<svg width="672" height="168" viewBox="0 0 672 168" fill="none" xmlns="http://www.w3.org/2000/svg">
<rect width="672" height="168" fill="#F6F6F6"/>
<path d="M273.148 54.2273V61.5H272.295L268.332 55.7898H268.261V61.5H267.381V54.2273H268.233L272.21 59.9517H272.281V54.2273H273.148ZM277.012 61.6136C276.52 61.6136 276.088 61.4964 275.716 61.2621C275.347 61.0277 275.058 60.6998 274.85 60.2784C274.644 59.857 274.541 59.3646 274.541 58.8011C274.541 58.233 274.644 57.737 274.85 57.3132C275.058 56.8894 275.347 56.5604 275.716 56.326C276.088 56.0916 276.52 55.9744 277.012 55.9744C277.505 55.9744 277.936 56.0916 278.305 56.326C278.677 56.5604 278.965 56.8894 279.171 57.3132C279.38 57.737 279.484 58.233 279.484 58.8011C279.484 59.3646 279.38 59.857 279.171 60.2784C278.965 60.6998 278.677 61.0277 278.305 61.2621C277.936 61.4964 277.505 61.6136 277.012 61.6136ZM277.012 60.8608C277.386 60.8608 277.694 60.7649 277.936 60.5732C278.177 60.3814 278.356 60.1293 278.472 59.8168C278.588 59.5043 278.646 59.1657 278.646 58.8011C278.646 58.4366 278.588 58.0968 278.472 57.782C278.356 57.4671 278.177 57.2126 277.936 57.0185C277.694 56.8243 277.386 56.7273 277.012 56.7273C276.638 56.7273 276.33 56.8243 276.089 57.0185C275.847 57.2126 275.669 57.4671 275.553 57.782C275.437 58.0968 275.379 58.4366 275.379 58.8011C275.379 59.1657 275.437 59.5043 275.553 59.8168C275.669 60.1293 275.847 60.3814 276.089 60.5732C276.33 60.7649 276.638 60.8608 277.012 60.8608ZM283.135 56.0455V56.7557H280.309V56.0455H283.135ZM281.132 54.7386H281.971V59.9375C281.971 60.1742 282.005 60.3518 282.074 60.4702C282.145 60.5862 282.234 60.6643 282.343 60.7045C282.455 60.7424 282.572 60.7614 282.695 60.7614C282.787 60.7614 282.863 60.7566 282.922 60.7472C282.981 60.7353 283.029 60.7259 283.064 60.7188L283.235 61.4716C283.178 61.4929 283.099 61.5142 282.997 61.5355C282.895 61.5592 282.766 61.571 282.61 61.571C282.373 61.571 282.141 61.5201 281.914 61.4183C281.689 61.3165 281.502 61.1615 281.353 60.9531C281.206 60.7448 281.132 60.482 281.132 60.1648V54.7386ZM291.072 57.267L290.319 57.4801C290.272 57.3546 290.202 57.2327 290.11 57.1143C290.02 56.9936 289.897 56.8942 289.74 56.8161C289.584 56.7379 289.384 56.6989 289.14 56.6989C288.806 56.6989 288.528 56.7758 288.306 56.9297C288.086 57.0812 287.975 57.2741 287.975 57.5085C287.975 57.7169 288.051 57.8814 288.203 58.0021C288.354 58.1229 288.591 58.2235 288.913 58.304L289.723 58.5028C290.21 58.6212 290.574 58.8023 290.813 59.0462C291.052 59.2876 291.172 59.599 291.172 59.9801C291.172 60.2926 291.082 60.572 290.902 60.8182C290.724 61.0644 290.475 61.2585 290.156 61.4006C289.836 61.5426 289.465 61.6136 289.041 61.6136C288.484 61.6136 288.024 61.4929 287.659 61.2514C287.295 61.0099 287.064 60.6572 286.967 60.1932L287.762 59.9943C287.838 60.2879 287.981 60.508 288.192 60.6548C288.405 60.8016 288.683 60.875 289.027 60.875C289.417 60.875 289.727 60.7921 289.957 60.6264C290.189 60.4583 290.305 60.2571 290.305 60.0227C290.305 59.8333 290.239 59.6747 290.106 59.5469C289.974 59.4167 289.77 59.3196 289.495 59.2557L288.586 59.0426C288.087 58.9242 287.72 58.7408 287.485 58.4922C287.253 58.2412 287.137 57.9276 287.137 57.5511C287.137 57.2434 287.224 56.9711 287.397 56.7344C287.572 56.4976 287.81 56.3118 288.11 56.1768C288.413 56.0419 288.757 55.9744 289.14 55.9744C289.68 55.9744 290.104 56.0928 290.412 56.3295C290.722 56.5663 290.942 56.8788 291.072 57.267ZM294.72 61.6136C294.194 61.6136 293.741 61.4976 293.36 61.2656C292.981 61.0312 292.689 60.7045 292.483 60.2855C292.279 59.8641 292.177 59.3741 292.177 58.8153C292.177 58.2566 292.279 57.7642 292.483 57.3381C292.689 56.9096 292.975 56.5758 293.342 56.3366C293.711 56.0952 294.142 55.9744 294.635 55.9744C294.919 55.9744 295.199 56.0218 295.476 56.1165C295.753 56.2112 296.006 56.3651 296.233 56.5781C296.46 56.7888 296.641 57.0682 296.776 57.4162C296.911 57.7642 296.979 58.1927 296.979 58.7017V59.0568H292.774V58.3324H296.126C296.126 58.0246 296.065 57.75 295.942 57.5085C295.821 57.267 295.648 57.0765 295.423 56.9368C295.201 56.7971 294.938 56.7273 294.635 56.7273C294.301 56.7273 294.012 56.8101 293.768 56.9759C293.527 57.1392 293.341 57.3523 293.211 57.6151C293.081 57.8778 293.015 58.1596 293.015 58.4602V58.9432C293.015 59.3551 293.086 59.7043 293.229 59.9908C293.373 60.2749 293.573 60.4915 293.829 60.6406C294.084 60.7874 294.381 60.8608 294.72 60.8608C294.94 60.8608 295.139 60.83 295.317 60.7685C295.497 60.7045 295.652 60.6098 295.782 60.4844C295.912 60.3565 296.013 60.1979 296.084 60.0085L296.893 60.2358C296.808 60.5104 296.665 60.7519 296.464 60.9602C296.262 61.1662 296.014 61.3272 295.718 61.4432C295.422 61.5568 295.089 61.6136 294.72 61.6136ZM299.091 54.2273V61.5H298.253V54.2273H299.091ZM302.913 61.6136C302.388 61.6136 301.934 61.4976 301.553 61.2656C301.174 61.0312 300.882 60.7045 300.676 60.2855C300.473 59.8641 300.371 59.3741 300.371 58.8153C300.371 58.2566 300.473 57.7642 300.676 57.3381C300.882 56.9096 301.169 56.5758 301.536 56.3366C301.905 56.0952 302.336 55.9744 302.828 55.9744C303.112 55.9744 303.393 56.0218 303.67 56.1165C303.947 56.2112 304.199 56.3651 304.426 56.5781C304.653 56.7888 304.835 57.0682 304.969 57.4162C305.104 57.7642 305.172 58.1927 305.172 58.7017V59.0568H300.967V58.3324H304.32C304.32 58.0246 304.258 57.75 304.135 57.5085C304.014 57.267 303.841 57.0765 303.616 56.9368C303.394 56.7971 303.131 56.7273 302.828 56.7273C302.494 56.7273 302.205 56.8101 301.962 56.9759C301.72 57.1392 301.534 57.3523 301.404 57.6151C301.274 57.8778 301.209 58.1596 301.209 58.4602V58.9432C301.209 59.3551 301.28 59.7043 301.422 59.9908C301.566 60.2749 301.766 60.4915 302.022 60.6406C302.278 60.7874 302.575 60.8608 302.913 60.8608C303.134 60.8608 303.332 60.83 303.51 60.7685C303.69 60.7045 303.845 60.6098 303.975 60.4844C304.105 60.3565 304.206 60.1979 304.277 60.0085L305.087 60.2358C305.001 60.5104 304.858 60.7519 304.657 60.9602C304.456 61.1662 304.207 61.3272 303.911 61.4432C303.615 61.5568 303.283 61.6136 302.913 61.6136ZM308.663 61.6136C308.151 61.6136 307.711 61.4929 307.342 61.2514C306.972 61.0099 306.688 60.6773 306.489 60.2536C306.29 59.8298 306.191 59.3456 306.191 58.8011C306.191 58.2472 306.293 57.7583 306.496 57.3345C306.702 56.9084 306.989 56.5758 307.356 56.3366C307.725 56.0952 308.156 55.9744 308.648 55.9744C309.032 55.9744 309.378 56.0455 309.685 56.1875C309.993 56.3295 310.245 56.5284 310.442 56.7841C310.638 57.0398 310.76 57.3381 310.808 57.679H309.969C309.906 57.4304 309.763 57.2102 309.543 57.0185C309.326 56.8243 309.032 56.7273 308.663 56.7273C308.336 56.7273 308.049 56.8125 307.803 56.983C307.559 57.151 307.369 57.389 307.232 57.6967C307.097 58.0021 307.029 58.3608 307.029 58.7727C307.029 59.1941 307.095 59.5611 307.228 59.8736C307.363 60.1861 307.552 60.4287 307.796 60.6016C308.042 60.7744 308.331 60.8608 308.663 60.8608C308.88 60.8608 309.078 60.8229 309.256 60.7472C309.433 60.6714 309.584 60.5625 309.707 60.4205C309.83 60.2784 309.917 60.108 309.969 59.9091H310.808C310.76 60.2311 310.643 60.5211 310.456 60.7791C310.271 61.0348 310.026 61.2384 309.721 61.3899C309.418 61.5391 309.065 61.6136 308.663 61.6136ZM314.405 56.0455V56.7557H311.578V56.0455H314.405ZM312.402 54.7386H313.24V59.9375C313.24 60.1742 313.274 60.3518 313.343 60.4702C313.414 60.5862 313.504 60.6643 313.613 60.7045C313.724 60.7424 313.841 60.7614 313.964 60.7614C314.057 60.7614 314.133 60.7566 314.192 60.7472C314.251 60.7353 314.298 60.7259 314.334 60.7188L314.504 61.4716C314.447 61.4929 314.368 61.5142 314.266 61.5355C314.165 61.5592 314.036 61.571 313.879 61.571C313.643 61.571 313.411 61.5201 313.183 61.4183C312.958 61.3165 312.771 61.1615 312.622 60.9531C312.475 60.7448 312.402 60.482 312.402 60.1648V54.7386ZM317.894 61.6136C317.368 61.6136 316.915 61.4976 316.534 61.2656C316.155 61.0312 315.863 60.7045 315.657 60.2855C315.453 59.8641 315.351 59.3741 315.351 58.8153C315.351 58.2566 315.453 57.7642 315.657 57.3381C315.863 56.9096 316.149 56.5758 316.516 56.3366C316.885 56.0952 317.316 55.9744 317.809 55.9744C318.093 55.9744 318.373 56.0218 318.65 56.1165C318.927 56.2112 319.179 56.3651 319.407 56.5781C319.634 56.7888 319.815 57.0682 319.95 57.4162C320.085 57.7642 320.152 58.1927 320.152 58.7017V59.0568H315.948V58.3324H319.3C319.3 58.0246 319.239 57.75 319.115 57.5085C318.995 57.267 318.822 57.0765 318.597 56.9368C318.374 56.7971 318.112 56.7273 317.809 56.7273C317.475 56.7273 317.186 56.8101 316.942 56.9759C316.701 57.1392 316.515 57.3523 316.385 57.6151C316.254 57.8778 316.189 58.1596 316.189 58.4602V58.9432C316.189 59.3551 316.26 59.7043 316.402 59.9908C316.547 60.2749 316.747 60.4915 317.002 60.6406C317.258 60.7874 317.555 60.8608 317.894 60.8608C318.114 60.8608 318.313 60.83 318.49 60.7685C318.67 60.7045 318.825 60.6098 318.956 60.4844C319.086 60.3565 319.186 60.1979 319.257 60.0085L320.067 60.2358C319.982 60.5104 319.839 60.7519 319.637 60.9602C319.436 61.1662 319.188 61.3272 318.892 61.4432C318.596 61.5568 318.263 61.6136 317.894 61.6136ZM323.487 61.6136C323.032 61.6136 322.631 61.4988 322.283 61.2692C321.935 61.0372 321.663 60.7105 321.466 60.2891C321.27 59.8653 321.172 59.3646 321.172 58.7869C321.172 58.214 321.27 57.7169 321.466 57.2955C321.663 56.8741 321.936 56.5485 322.287 56.3189C322.637 56.0893 323.042 55.9744 323.501 55.9744C323.856 55.9744 324.137 56.0336 324.343 56.152C324.551 56.268 324.71 56.4006 324.819 56.5497C324.93 56.6965 325.016 56.8172 325.078 56.9119H325.149V54.2273H325.987V61.5H325.177V60.6619H325.078C325.016 60.7614 324.929 60.8868 324.815 61.0384C324.701 61.1875 324.539 61.3213 324.328 61.4396C324.118 61.5556 323.837 61.6136 323.487 61.6136ZM323.6 60.8608C323.937 60.8608 324.221 60.7732 324.453 60.598C324.685 60.4205 324.861 60.1754 324.982 59.8629C325.103 59.5481 325.163 59.1847 325.163 58.7727C325.163 58.3655 325.104 58.0092 324.985 57.7038C324.867 57.3961 324.692 57.157 324.46 56.9865C324.228 56.8137 323.941 56.7273 323.6 56.7273C323.245 56.7273 322.949 56.8184 322.713 57.0007C322.478 57.1806 322.302 57.4257 322.184 57.7358C322.068 58.0436 322.01 58.3892 322.01 58.7727C322.01 59.161 322.069 59.5137 322.187 59.831C322.308 60.1458 322.485 60.3968 322.72 60.5838C322.957 60.7685 323.25 60.8608 323.6 60.8608Z" fill="#E8178A"/>
<path d="M335.5 58H365.5" stroke="#E8178A"/>
<circle cx="364.5" cy="58" r="1" fill="#E8178A"/>
<rect x="365.5" y="48" width="40" height="20" rx="10" fill="#B5B5B5"/>
<circle cx="375.5" cy="58" r="8" fill="white"/>
<path d="M290.358 92.0455C290.315 91.6856 290.143 91.4062 289.839 91.2074C289.536 91.0085 289.165 90.9091 288.724 90.9091C288.402 90.9091 288.121 90.9612 287.879 91.0653C287.64 91.1695 287.453 91.3127 287.318 91.495C287.186 91.6773 287.119 91.8845 287.119 92.1165C287.119 92.3106 287.165 92.4775 287.258 92.6172C287.353 92.7545 287.473 92.8693 287.62 92.9616C287.767 93.0516 287.921 93.1262 288.082 93.1854C288.243 93.2422 288.391 93.2884 288.526 93.3239L289.264 93.5227C289.454 93.5724 289.664 93.6411 289.896 93.7287C290.131 93.8163 290.354 93.9358 290.567 94.0874C290.783 94.2365 290.96 94.4283 291.1 94.6626C291.24 94.897 291.31 95.1847 291.31 95.5256C291.31 95.9186 291.207 96.2737 291.001 96.5909C290.797 96.9081 290.499 97.1603 290.106 97.3473C289.715 97.5343 289.241 97.6278 288.682 97.6278C288.161 97.6278 287.71 97.5438 287.329 97.3757C286.95 97.2076 286.652 96.9732 286.434 96.6726C286.219 96.3719 286.097 96.0227 286.068 95.625H286.977C287.001 95.8996 287.093 96.1269 287.254 96.3068C287.418 96.4844 287.624 96.617 287.872 96.7045C288.123 96.7898 288.393 96.8324 288.682 96.8324C289.018 96.8324 289.32 96.7779 289.587 96.669C289.855 96.5578 290.067 96.4039 290.223 96.2074C290.379 96.0085 290.457 95.7765 290.457 95.5114C290.457 95.2699 290.39 95.0734 290.255 94.9219C290.12 94.7704 289.942 94.6473 289.722 94.5526C289.502 94.4579 289.264 94.375 289.009 94.304L288.114 94.0483C287.545 93.8849 287.096 93.6518 286.764 93.3487C286.433 93.0457 286.267 92.6491 286.267 92.1591C286.267 91.7519 286.377 91.3968 286.597 91.0938C286.82 90.7884 287.118 90.5516 287.492 90.3835C287.869 90.2131 288.289 90.1278 288.753 90.1278C289.222 90.1278 289.638 90.2119 290.003 90.38C290.367 90.5457 290.656 90.773 290.869 91.0618C291.085 91.3506 291.198 91.6785 291.21 92.0455H290.358ZM294.931 97.6136C294.405 97.6136 293.952 97.4976 293.571 97.2656C293.192 97.0312 292.9 96.7045 292.694 96.2855C292.49 95.8641 292.388 95.3741 292.388 94.8153C292.388 94.2566 292.49 93.7642 292.694 93.3381C292.9 92.9096 293.186 92.5758 293.553 92.3366C293.922 92.0952 294.353 91.9744 294.846 91.9744C295.13 91.9744 295.41 92.0218 295.687 92.1165C295.964 92.2112 296.216 92.3651 296.444 92.5781C296.671 92.7888 296.852 93.0682 296.987 93.4162C297.122 93.7642 297.189 94.1927 297.189 94.7017V95.0568H292.985V94.3324H296.337C296.337 94.0246 296.276 93.75 296.153 93.5085C296.032 93.267 295.859 93.0765 295.634 92.9368C295.412 92.7971 295.149 92.7273 294.846 92.7273C294.512 92.7273 294.223 92.8101 293.979 92.9759C293.738 93.1392 293.552 93.3523 293.422 93.6151C293.291 93.8778 293.226 94.1596 293.226 94.4602V94.9432C293.226 95.3551 293.297 95.7043 293.439 95.9908C293.584 96.2749 293.784 96.4915 294.04 96.6406C294.295 96.7874 294.592 96.8608 294.931 96.8608C295.151 96.8608 295.35 96.83 295.528 96.7685C295.707 96.7045 295.863 96.6098 295.993 96.4844C296.123 96.3565 296.224 96.1979 296.295 96.0085L297.104 96.2358C297.019 96.5104 296.876 96.7519 296.675 96.9602C296.473 97.1662 296.225 97.3272 295.929 97.4432C295.633 97.5568 295.3 97.6136 294.931 97.6136ZM299.302 90.2273V97.5H298.464V90.2273H299.302ZM303.124 97.6136C302.599 97.6136 302.145 97.4976 301.764 97.2656C301.385 97.0312 301.093 96.7045 300.887 96.2855C300.683 95.8641 300.582 95.3741 300.582 94.8153C300.582 94.2566 300.683 93.7642 300.887 93.3381C301.093 92.9096 301.379 92.5758 301.746 92.3366C302.116 92.0952 302.547 91.9744 303.039 91.9744C303.323 91.9744 303.604 92.0218 303.881 92.1165C304.158 92.2112 304.41 92.3651 304.637 92.5781C304.864 92.7888 305.045 93.0682 305.18 93.4162C305.315 93.7642 305.383 94.1927 305.383 94.7017V95.0568H301.178V94.3324H304.531C304.531 94.0246 304.469 93.75 304.346 93.5085C304.225 93.267 304.052 93.0765 303.827 92.9368C303.605 92.7971 303.342 92.7273 303.039 92.7273C302.705 92.7273 302.416 92.8101 302.173 92.9759C301.931 93.1392 301.745 93.3523 301.615 93.6151C301.485 93.8778 301.42 94.1596 301.42 94.4602V94.9432C301.42 95.3551 301.491 95.7043 301.633 95.9908C301.777 96.2749 301.977 96.4915 302.233 96.6406C302.489 96.7874 302.786 96.8608 303.124 96.8608C303.344 96.8608 303.543 96.83 303.721 96.7685C303.901 96.7045 304.056 96.6098 304.186 96.4844C304.316 96.3565 304.417 96.1979 304.488 96.0085L305.298 96.2358C305.212 96.5104 305.069 96.7519 304.868 96.9602C304.667 97.1662 304.418 97.3272 304.122 97.4432C303.826 97.5568 303.494 97.6136 303.124 97.6136ZM308.874 97.6136C308.362 97.6136 307.922 97.4929 307.553 97.2514C307.183 97.0099 306.899 96.6773 306.7 96.2536C306.501 95.8298 306.402 95.3456 306.402 94.8011C306.402 94.2472 306.504 93.7583 306.707 93.3345C306.913 92.9084 307.2 92.5758 307.567 92.3366C307.936 92.0952 308.367 91.9744 308.859 91.9744C309.243 91.9744 309.589 92.0455 309.896 92.1875C310.204 92.3295 310.456 92.5284 310.653 92.7841C310.849 93.0398 310.971 93.3381 311.018 93.679H310.18C310.116 93.4304 309.974 93.2102 309.754 93.0185C309.536 92.8243 309.243 92.7273 308.874 92.7273C308.547 92.7273 308.26 92.8125 308.014 92.983C307.77 93.151 307.58 93.389 307.442 93.6967C307.308 94.0021 307.24 94.3608 307.24 94.7727C307.24 95.1941 307.306 95.5611 307.439 95.8736C307.574 96.1861 307.763 96.4287 308.007 96.6016C308.253 96.7744 308.542 96.8608 308.874 96.8608C309.091 96.8608 309.289 96.8229 309.467 96.7472C309.644 96.6714 309.795 96.5625 309.918 96.4205C310.041 96.2784 310.128 96.108 310.18 95.9091H311.018C310.971 96.2311 310.854 96.5211 310.667 96.7791C310.482 97.0348 310.237 97.2384 309.932 97.3899C309.629 97.5391 309.276 97.6136 308.874 97.6136ZM314.616 92.0455V92.7557H311.789V92.0455H314.616ZM312.613 90.7386H313.451V95.9375C313.451 96.1742 313.485 96.3518 313.554 96.4702C313.625 96.5862 313.715 96.6643 313.824 96.7045C313.935 96.7424 314.052 96.7614 314.175 96.7614C314.268 96.7614 314.344 96.7566 314.403 96.7472C314.462 96.7353 314.509 96.7259 314.545 96.7188L314.715 97.4716C314.658 97.4929 314.579 97.5142 314.477 97.5355C314.375 97.5592 314.246 97.571 314.09 97.571C313.853 97.571 313.621 97.5201 313.394 97.4183C313.169 97.3165 312.982 97.1615 312.833 96.9531C312.686 96.7448 312.613 96.482 312.613 96.1648V90.7386ZM318.105 97.6136C317.579 97.6136 317.126 97.4976 316.745 97.2656C316.366 97.0312 316.074 96.7045 315.868 96.2855C315.664 95.8641 315.562 95.3741 315.562 94.8153C315.562 94.2566 315.664 93.7642 315.868 93.3381C316.074 92.9096 316.36 92.5758 316.727 92.3366C317.096 92.0952 317.527 91.9744 318.02 91.9744C318.304 91.9744 318.584 92.0218 318.861 92.1165C319.138 92.2112 319.39 92.3651 319.618 92.5781C319.845 92.7888 320.026 93.0682 320.161 93.4162C320.296 93.7642 320.363 94.1927 320.363 94.7017V95.0568H316.159V94.3324H319.511C319.511 94.0246 319.449 93.75 319.326 93.5085C319.206 93.267 319.033 93.0765 318.808 92.9368C318.585 92.7971 318.323 92.7273 318.02 92.7273C317.686 92.7273 317.397 92.8101 317.153 92.9759C316.912 93.1392 316.726 93.3523 316.596 93.6151C316.465 93.8778 316.4 94.1596 316.4 94.4602V94.9432C316.4 95.3551 316.471 95.7043 316.613 95.9908C316.758 96.2749 316.958 96.4915 317.213 96.6406C317.469 96.7874 317.766 96.8608 318.105 96.8608C318.325 96.8608 318.524 96.83 318.701 96.7685C318.881 96.7045 319.036 96.6098 319.167 96.4844C319.297 96.3565 319.397 96.1979 319.468 96.0085L320.278 96.2358C320.193 96.5104 320.05 96.7519 319.848 96.9602C319.647 97.1662 319.399 97.3272 319.103 97.4432C318.807 97.5568 318.474 97.6136 318.105 97.6136ZM323.698 97.6136C323.243 97.6136 322.842 97.4988 322.494 97.2692C322.146 97.0372 321.874 96.7105 321.677 96.2891C321.481 95.8653 321.382 95.3646 321.382 94.7869C321.382 94.214 321.481 93.7169 321.677 93.2955C321.874 92.8741 322.147 92.5485 322.498 92.3189C322.848 92.0893 323.253 91.9744 323.712 91.9744C324.067 91.9744 324.348 92.0336 324.554 92.152C324.762 92.268 324.921 92.4006 325.029 92.5497C325.141 92.6965 325.227 92.8172 325.289 92.9119H325.36V90.2273H326.198V97.5H325.388V96.6619H325.289C325.227 96.7614 325.14 96.8868 325.026 97.0384C324.912 97.1875 324.75 97.3213 324.539 97.4396C324.329 97.5556 324.048 97.6136 323.698 97.6136ZM323.811 96.8608C324.148 96.8608 324.432 96.7732 324.664 96.598C324.896 96.4205 325.072 96.1754 325.193 95.8629C325.314 95.5481 325.374 95.1847 325.374 94.7727C325.374 94.3655 325.315 94.0092 325.196 93.7038C325.078 93.3961 324.903 93.157 324.671 92.9865C324.439 92.8137 324.152 92.7273 323.811 92.7273C323.456 92.7273 323.16 92.8184 322.924 93.0007C322.689 93.1806 322.513 93.4257 322.395 93.7358C322.279 94.0436 322.221 94.3892 322.221 94.7727C322.221 95.161 322.28 95.5137 322.398 95.831C322.519 96.1458 322.696 96.3968 322.931 96.5838C323.167 96.7685 323.461 96.8608 323.811 96.8608Z" fill="#E8178A"/>
<path d="M335.5 94H365.5" stroke="#E8178A"/>
<circle cx="364.5" cy="94" r="1" fill="#E8178A"/>
<rect x="365.5" y="84" width="40" height="20" rx="10" fill="#0F67F5"/>
<circle cx="395.5" cy="94" r="8" fill="white"/>
<path d="M395.5 112L395.5 96" stroke="#E8178A"/>
<circle cx="395.5" cy="96" r="1" transform="rotate(-90 395.5 96)" fill="#E8178A"/>
<path d="M379.381 127V119.727H380.261V122.966H384.139V119.727H385.02V127H384.139V123.747H380.261V127H379.381ZM388.275 127.128C387.929 127.128 387.615 127.063 387.333 126.933C387.052 126.8 386.828 126.609 386.662 126.361C386.497 126.11 386.414 125.807 386.414 125.452C386.414 125.139 386.475 124.886 386.598 124.692C386.721 124.495 386.886 124.341 387.092 124.23C387.298 124.119 387.525 124.036 387.774 123.982C388.025 123.925 388.277 123.88 388.53 123.847C388.862 123.804 389.13 123.772 389.336 123.751C389.545 123.727 389.696 123.688 389.791 123.634C389.888 123.579 389.936 123.484 389.936 123.349V123.321C389.936 122.971 389.841 122.698 389.649 122.504C389.459 122.31 389.172 122.213 388.786 122.213C388.386 122.213 388.072 122.301 387.845 122.476C387.618 122.651 387.458 122.838 387.365 123.037L386.57 122.753C386.712 122.421 386.901 122.163 387.138 121.979C387.377 121.792 387.638 121.661 387.919 121.588C388.203 121.512 388.483 121.474 388.757 121.474C388.933 121.474 389.134 121.496 389.361 121.538C389.591 121.579 389.812 121.663 390.025 121.79C390.241 121.918 390.419 122.111 390.561 122.369C390.703 122.627 390.775 122.973 390.775 123.406V127H389.936V126.261H389.894C389.837 126.38 389.742 126.506 389.61 126.641C389.477 126.776 389.301 126.891 389.081 126.986C388.86 127.08 388.592 127.128 388.275 127.128ZM388.402 126.375C388.734 126.375 389.013 126.31 389.24 126.18C389.47 126.049 389.643 125.881 389.759 125.675C389.877 125.469 389.936 125.253 389.936 125.026V124.259C389.901 124.301 389.823 124.34 389.702 124.376C389.584 124.409 389.446 124.438 389.29 124.464C389.136 124.488 388.986 124.509 388.839 124.528C388.695 124.545 388.578 124.559 388.488 124.571C388.27 124.599 388.066 124.646 387.877 124.71C387.69 124.771 387.538 124.865 387.422 124.99C387.309 125.113 387.252 125.281 387.252 125.494C387.252 125.786 387.359 126.006 387.575 126.155C387.793 126.302 388.069 126.375 388.402 126.375ZM393.142 123.719V127H392.304V121.545H393.114V122.398H393.185C393.313 122.121 393.507 121.898 393.767 121.73C394.028 121.56 394.364 121.474 394.776 121.474C395.145 121.474 395.468 121.55 395.745 121.702C396.022 121.851 396.238 122.078 396.392 122.384C396.545 122.687 396.622 123.07 396.622 123.534V127H395.784V123.591C395.784 123.162 395.673 122.829 395.45 122.589C395.228 122.348 394.923 122.227 394.534 122.227C394.267 122.227 394.028 122.285 393.817 122.401C393.609 122.517 393.444 122.687 393.323 122.909C393.203 123.132 393.142 123.402 393.142 123.719ZM400.213 127.114C399.759 127.114 399.358 126.999 399.01 126.769C398.662 126.537 398.389 126.21 398.193 125.789C397.996 125.365 397.898 124.865 397.898 124.287C397.898 123.714 397.996 123.217 398.193 122.795C398.389 122.374 398.663 122.049 399.013 121.819C399.364 121.589 399.768 121.474 400.228 121.474C400.583 121.474 400.863 121.534 401.069 121.652C401.278 121.768 401.436 121.901 401.545 122.05C401.656 122.196 401.743 122.317 401.804 122.412H401.875V119.727H402.713V127H401.904V126.162H401.804C401.743 126.261 401.655 126.387 401.542 126.538C401.428 126.687 401.266 126.821 401.055 126.94C400.844 127.056 400.564 127.114 400.213 127.114ZM400.327 126.361C400.663 126.361 400.947 126.273 401.179 126.098C401.411 125.92 401.588 125.675 401.708 125.363C401.829 125.048 401.89 124.685 401.89 124.273C401.89 123.866 401.83 123.509 401.712 123.204C401.594 122.896 401.418 122.657 401.186 122.487C400.954 122.314 400.668 122.227 400.327 122.227C399.972 122.227 399.676 122.318 399.439 122.501C399.205 122.681 399.029 122.926 398.91 123.236C398.794 123.544 398.736 123.889 398.736 124.273C398.736 124.661 398.795 125.014 398.914 125.331C399.034 125.646 399.212 125.897 399.446 126.084C399.683 126.268 399.977 126.361 400.327 126.361ZM405.203 119.727V127H404.365V119.727H405.203ZM409.025 127.114C408.499 127.114 408.046 126.998 407.665 126.766C407.286 126.531 406.993 126.205 406.787 125.786C406.584 125.364 406.482 124.874 406.482 124.315C406.482 123.757 406.584 123.264 406.787 122.838C406.993 122.41 407.28 122.076 407.647 121.837C408.016 121.595 408.447 121.474 408.939 121.474C409.224 121.474 409.504 121.522 409.781 121.616C410.058 121.711 410.31 121.865 410.537 122.078C410.765 122.289 410.946 122.568 411.081 122.916C411.216 123.264 411.283 123.693 411.283 124.202V124.557H407.079V123.832H410.431C410.431 123.525 410.369 123.25 410.246 123.009C410.126 122.767 409.953 122.576 409.728 122.437C409.505 122.297 409.242 122.227 408.939 122.227C408.606 122.227 408.317 122.31 408.073 122.476C407.831 122.639 407.646 122.852 407.515 123.115C407.385 123.378 407.32 123.66 407.32 123.96V124.443C407.32 124.855 407.391 125.204 407.533 125.491C407.678 125.775 407.878 125.991 408.133 126.141C408.389 126.287 408.686 126.361 409.025 126.361C409.245 126.361 409.444 126.33 409.621 126.268C409.801 126.205 409.956 126.11 410.086 125.984C410.217 125.857 410.317 125.698 410.388 125.509L411.198 125.736C411.113 126.01 410.97 126.252 410.768 126.46C410.567 126.666 410.318 126.827 410.023 126.943C409.727 127.057 409.394 127.114 409.025 127.114Z" fill="#E8178A"/>
</svg>
