<svg width="52" height="52" viewBox="0 0 52 52" fill="none" xmlns="http://www.w3.org/2000/svg">
<circle cx="26" cy="26" r="25" fill="white" stroke="#EEEEEE" stroke-width="2"/>
<path fill-rule="evenodd" clip-rule="evenodd" d="M26 4.82353C14.3046 4.82353 4.82353 14.3046 4.82353 26C4.82353 29.7501 5.79829 33.2725 7.50827 36.3276C8.45109 34.7577 9.5998 33.3158 10.9244 32.0381C12.9211 30.112 15.2809 28.5942 17.8648 27.5618C18.5767 27.2774 19.3023 27.0311 20.0382 26.8236C17.656 25.0192 16.117 22.1598 16.117 18.9409C16.117 13.4831 20.5415 9.05859 25.9994 9.05859C31.4573 9.05859 35.8817 13.4831 35.8817 18.9409C35.8817 22.1596 34.343 25.0189 31.9609 26.8233C32.6972 27.0309 33.4231 27.2772 34.1353 27.5618C36.7192 28.5942 39.079 30.112 41.0757 32.0381C42.4003 33.3157 43.549 34.7576 44.4918 36.3275C46.2017 33.2724 47.1765 29.75 47.1765 26C47.1765 14.3046 37.6954 4.82353 26 4.82353ZM26 47.1765C19.1586 47.1765 13.0749 43.9322 9.20346 38.8982C10.0855 37.2154 11.2456 35.6656 12.6487 34.3122C14.385 32.6373 16.457 31.2988 18.7507 30.3824C21.0443 29.466 23.5081 28.9923 26.0001 28.9923C28.492 28.9923 30.9558 29.466 33.2494 30.3824C35.5431 31.2988 37.6151 32.6373 39.3515 34.3122C40.7545 35.6656 41.9145 37.2154 42.7966 38.8981C38.9252 43.9322 32.8415 47.1765 26 47.1765ZM2 26C2 12.7452 12.7452 2 26 2C39.2548 2 50 12.7452 50 26C50 39.2548 39.2548 50 26 50C12.7452 50 2 39.2548 2 26ZM18.9406 18.9409C18.9406 15.0425 22.1009 11.8821 25.9994 11.8821C29.8979 11.8821 33.0582 15.0425 33.0582 18.9409C33.0582 22.8394 29.8979 25.9998 25.9994 25.9998C22.1009 25.9998 18.9406 22.8394 18.9406 18.9409Z" fill="#545454"/>
</svg>
