<svg width="365" height="213" viewBox="0 0 365 213" fill="none" xmlns="http://www.w3.org/2000/svg">
<g filter="url(#filter0_dd_821_51492)">
<rect x="7" y="4" width="351" height="199" rx="4" fill="white"/>
<rect x="11" y="8" width="343" height="36" rx="4" fill="white"/>
<path d="M20.4091 32V20.3636H24.3409C25.2538 20.3636 26 20.5284 26.5795 20.858C27.1629 21.1837 27.5947 21.625 27.875 22.1818C28.1553 22.7386 28.2955 23.3598 28.2955 24.0455C28.2955 24.7311 28.1553 25.3542 27.875 25.9148C27.5985 26.4754 27.1705 26.9223 26.5909 27.2557C26.0114 27.5852 25.2689 27.75 24.3636 27.75H21.5455V26.5H24.3182C24.9432 26.5 25.4451 26.392 25.8239 26.1761C26.2027 25.9602 26.4773 25.6686 26.6477 25.3011C26.822 24.9299 26.9091 24.5114 26.9091 24.0455C26.9091 23.5795 26.822 23.1629 26.6477 22.7955C26.4773 22.428 26.2008 22.1402 25.8182 21.9318C25.4356 21.7197 24.928 21.6136 24.2955 21.6136H21.8182V32H20.4091ZM32.9517 32.2045C32.3987 32.2045 31.8968 32.1004 31.446 31.892C30.9953 31.6799 30.6373 31.375 30.3722 30.9773C30.107 30.5758 29.9744 30.0909 29.9744 29.5227C29.9744 29.0227 30.0729 28.6174 30.2699 28.3068C30.4669 27.9924 30.7301 27.7462 31.0597 27.5682C31.3892 27.3902 31.7528 27.2576 32.1506 27.1705C32.5521 27.0795 32.9555 27.0076 33.3608 26.9545C33.8911 26.8864 34.321 26.8352 34.6506 26.8011C34.9839 26.7633 35.2263 26.7008 35.3778 26.6136C35.5331 26.5265 35.6108 26.375 35.6108 26.1591V26.1136C35.6108 25.553 35.4574 25.1174 35.1506 24.8068C34.8475 24.4962 34.3873 24.3409 33.7699 24.3409C33.1297 24.3409 32.6278 24.4811 32.2642 24.7614C31.9006 25.0417 31.6449 25.3409 31.4972 25.6591L30.2244 25.2045C30.4517 24.6742 30.7547 24.2614 31.1335 23.9659C31.5161 23.6667 31.9328 23.4583 32.3835 23.3409C32.8381 23.2197 33.285 23.1591 33.7244 23.1591C34.0047 23.1591 34.3267 23.1932 34.6903 23.2614C35.0578 23.3258 35.4119 23.4602 35.7528 23.6648C36.0975 23.8693 36.3835 24.178 36.6108 24.5909C36.8381 25.0038 36.9517 25.5568 36.9517 26.25V32H35.6108V30.8182H35.5426C35.4517 31.0076 35.3002 31.2102 35.0881 31.4261C34.8759 31.642 34.5938 31.8258 34.2415 31.9773C33.8892 32.1288 33.4593 32.2045 32.9517 32.2045ZM33.1562 31C33.6866 31 34.1335 30.8958 34.4972 30.6875C34.8646 30.4792 35.1411 30.2102 35.3267 29.8807C35.5161 29.5511 35.6108 29.2045 35.6108 28.8409V27.6136C35.554 27.6818 35.429 27.7443 35.2358 27.8011C35.0464 27.8542 34.8267 27.9015 34.5767 27.9432C34.3305 27.9811 34.09 28.0152 33.8551 28.0455C33.6241 28.072 33.4366 28.0947 33.2926 28.1136C32.9441 28.1591 32.6184 28.233 32.3153 28.3352C32.0161 28.4337 31.7737 28.5833 31.5881 28.7841C31.4063 28.9811 31.3153 29.25 31.3153 29.5909C31.3153 30.0568 31.4877 30.4091 31.8324 30.6477C32.1809 30.8826 32.6222 31 33.1562 31ZM43.1946 23.2727V24.4091H38.6719V23.2727H43.1946ZM39.9901 21.1818H41.331V29.5C41.331 29.8788 41.3859 30.1629 41.4957 30.3523C41.6094 30.5379 41.7533 30.6629 41.9276 30.7273C42.1056 30.7879 42.2931 30.8182 42.4901 30.8182C42.6378 30.8182 42.759 30.8106 42.8537 30.7955C42.9484 30.7765 43.0241 30.7614 43.081 30.75L43.3537 31.9545C43.2628 31.9886 43.1359 32.0227 42.973 32.0568C42.8101 32.0947 42.6037 32.1136 42.3537 32.1136C41.9749 32.1136 41.6037 32.0322 41.2401 31.8693C40.8802 31.7064 40.581 31.4583 40.3423 31.125C40.1075 30.7917 39.9901 30.3712 39.9901 29.8636V21.1818ZM48.777 32.1818C47.9361 32.1818 47.2107 31.9962 46.6009 31.625C45.9948 31.25 45.527 30.7273 45.1974 30.0568C44.8717 29.3826 44.7088 28.5985 44.7088 27.7045C44.7088 26.8106 44.8717 26.0227 45.1974 25.3409C45.527 24.6553 45.9853 24.1212 46.5724 23.7386C47.1634 23.3523 47.8527 23.1591 48.6406 23.1591C49.0952 23.1591 49.544 23.2348 49.9872 23.3864C50.4304 23.5379 50.8338 23.7841 51.1974 24.125C51.5611 24.4621 51.8509 24.9091 52.0668 25.4659C52.2827 26.0227 52.3906 26.7083 52.3906 27.5227V28.0909H45.6634V26.9318H51.027C51.027 26.4394 50.9285 26 50.7315 25.6136C50.5384 25.2273 50.2618 24.9223 49.902 24.6989C49.5459 24.4754 49.1255 24.3636 48.6406 24.3636C48.1065 24.3636 47.6444 24.4962 47.2543 24.7614C46.8679 25.0227 46.5705 25.3636 46.3622 25.7841C46.1539 26.2045 46.0497 26.6553 46.0497 27.1364V27.9091C46.0497 28.5682 46.1634 29.1269 46.3906 29.5852C46.6217 30.0398 46.9418 30.3864 47.3509 30.625C47.7599 30.8598 48.2353 30.9773 48.777 30.9773C49.1293 30.9773 49.4474 30.928 49.7315 30.8295C50.0194 30.7273 50.2675 30.5758 50.4759 30.375C50.6842 30.1705 50.8452 29.9167 50.9588 29.6136L52.2543 29.9773C52.1179 30.4167 51.8887 30.803 51.5668 31.1364C51.2448 31.4659 50.8471 31.7235 50.3736 31.9091C49.9001 32.0909 49.3679 32.1818 48.777 32.1818ZM55.6122 20.3636V21.3864C55.6122 21.697 55.5554 22.0284 55.4418 22.3807C55.3319 22.7292 55.169 23.0682 54.9531 23.3977C54.741 23.7235 54.4834 24.0076 54.1804 24.25L53.4531 23.6591C53.6918 23.3182 53.8982 22.964 54.0724 22.5966C54.2505 22.2254 54.3395 21.8295 54.3395 21.4091V20.3636H55.6122ZM62.331 25.2273L61.1264 25.5682C61.0507 25.3674 60.9389 25.1723 60.7912 24.983C60.6473 24.7898 60.4503 24.6307 60.2003 24.5057C59.9503 24.3807 59.6302 24.3182 59.2401 24.3182C58.706 24.3182 58.2609 24.4413 57.9048 24.6875C57.5526 24.9299 57.3764 25.2386 57.3764 25.6136C57.3764 25.947 57.4976 26.2102 57.7401 26.4034C57.9825 26.5966 58.3613 26.7576 58.8764 26.8864L60.1719 27.2045C60.9522 27.3939 61.5336 27.6837 61.9162 28.0739C62.2988 28.4602 62.4901 28.9583 62.4901 29.5682C62.4901 30.0682 62.3461 30.5152 62.0582 30.9091C61.7741 31.303 61.3764 31.6136 60.8651 31.8409C60.3537 32.0682 59.759 32.1818 59.081 32.1818C58.1908 32.1818 57.4541 31.9886 56.8707 31.6023C56.2874 31.2159 55.9181 30.6515 55.7628 29.9091L57.0355 29.5909C57.1567 30.0606 57.3859 30.4129 57.723 30.6477C58.0639 30.8826 58.509 31 59.0582 31C59.6832 31 60.1795 30.8674 60.5469 30.6023C60.9181 30.3333 61.1037 30.0114 61.1037 29.6364C61.1037 29.3333 60.9976 29.0795 60.7855 28.875C60.5734 28.6667 60.2476 28.5114 59.8082 28.4091L58.3537 28.0682C57.5545 27.8788 56.9673 27.5852 56.5923 27.1875C56.2211 26.786 56.0355 26.2841 56.0355 25.6818C56.0355 25.1894 56.1738 24.7538 56.4503 24.375C56.7306 23.9962 57.1113 23.6989 57.5923 23.483C58.0772 23.267 58.6264 23.1591 59.2401 23.1591C60.1037 23.1591 60.7817 23.3485 61.2741 23.7273C61.7704 24.1061 62.1226 24.6061 62.331 25.2273ZM77.1449 24C77.0199 23.6174 76.8551 23.2746 76.6506 22.9716C76.4498 22.6648 76.2093 22.4034 75.929 22.1875C75.6525 21.9716 75.3381 21.8068 74.9858 21.6932C74.6335 21.5795 74.2472 21.5227 73.8267 21.5227C73.1373 21.5227 72.5104 21.7008 71.946 22.0568C71.3816 22.4129 70.9328 22.9375 70.5994 23.6307C70.2661 24.3239 70.0994 25.1742 70.0994 26.1818C70.0994 27.1894 70.268 28.0398 70.6051 28.733C70.9422 29.4261 71.3987 29.9508 71.9744 30.3068C72.5502 30.6629 73.1979 30.8409 73.9176 30.8409C74.5843 30.8409 75.1714 30.6989 75.679 30.4148C76.1903 30.1269 76.5881 29.7216 76.8722 29.1989C77.16 28.6723 77.304 28.053 77.304 27.3409L77.7358 27.4318H74.2358V26.1818H78.6676V27.4318C78.6676 28.3902 78.4631 29.2235 78.054 29.9318C77.6487 30.6402 77.0881 31.1894 76.3722 31.5795C75.66 31.9659 74.8419 32.1591 73.9176 32.1591C72.8873 32.1591 71.982 31.9167 71.2017 31.4318C70.4252 30.947 69.8191 30.2576 69.3835 29.3636C68.9517 28.4697 68.7358 27.4091 68.7358 26.1818C68.7358 25.2614 68.8589 24.4337 69.1051 23.6989C69.3551 22.9602 69.7074 22.3314 70.1619 21.8125C70.6165 21.2936 71.1544 20.8958 71.7756 20.6193C72.3968 20.3428 73.0805 20.2045 73.8267 20.2045C74.4403 20.2045 75.0123 20.2973 75.5426 20.483C76.0767 20.6648 76.5521 20.9242 76.9688 21.2614C77.3892 21.5947 77.7396 21.9943 78.0199 22.4602C78.3002 22.9223 78.4934 23.4356 78.5994 24H77.1449ZM80.8991 32V23.2727H82.1946V24.5909H82.2855C82.4446 24.1591 82.7325 23.8087 83.1491 23.5398C83.5658 23.2708 84.0355 23.1364 84.5582 23.1364C84.6567 23.1364 84.7798 23.1383 84.9276 23.142C85.0753 23.1458 85.187 23.1515 85.2628 23.1591V24.5227C85.2173 24.5114 85.1132 24.4943 84.9503 24.4716C84.7912 24.4451 84.6226 24.4318 84.4446 24.4318C84.0204 24.4318 83.6416 24.5208 83.3082 24.6989C82.9787 24.8731 82.7173 25.1155 82.5241 25.4261C82.3348 25.733 82.2401 26.0833 82.2401 26.4773V32H80.8991ZM89.4205 32.2045C88.8674 32.2045 88.3655 32.1004 87.9148 31.892C87.464 31.6799 87.1061 31.375 86.8409 30.9773C86.5758 30.5758 86.4432 30.0909 86.4432 29.5227C86.4432 29.0227 86.5417 28.6174 86.7386 28.3068C86.9356 27.9924 87.1989 27.7462 87.5284 27.5682C87.858 27.3902 88.2216 27.2576 88.6193 27.1705C89.0208 27.0795 89.4242 27.0076 89.8295 26.9545C90.3598 26.8864 90.7898 26.8352 91.1193 26.8011C91.4527 26.7633 91.6951 26.7008 91.8466 26.6136C92.0019 26.5265 92.0795 26.375 92.0795 26.1591V26.1136C92.0795 25.553 91.9261 25.1174 91.6193 24.8068C91.3163 24.4962 90.8561 24.3409 90.2386 24.3409C89.5985 24.3409 89.0966 24.4811 88.733 24.7614C88.3693 25.0417 88.1136 25.3409 87.9659 25.6591L86.6932 25.2045C86.9205 24.6742 87.2235 24.2614 87.6023 23.9659C87.9848 23.6667 88.4015 23.4583 88.8523 23.3409C89.3068 23.2197 89.7538 23.1591 90.1932 23.1591C90.4735 23.1591 90.7955 23.1932 91.1591 23.2614C91.5265 23.3258 91.8807 23.4602 92.2216 23.6648C92.5663 23.8693 92.8523 24.178 93.0795 24.5909C93.3068 25.0038 93.4205 25.5568 93.4205 26.25V32H92.0795V30.8182H92.0114C91.9205 31.0076 91.7689 31.2102 91.5568 31.4261C91.3447 31.642 91.0625 31.8258 90.7102 31.9773C90.358 32.1288 89.928 32.2045 89.4205 32.2045ZM89.625 31C90.1553 31 90.6023 30.8958 90.9659 30.6875C91.3333 30.4792 91.6098 30.2102 91.7955 29.8807C91.9848 29.5511 92.0795 29.2045 92.0795 28.8409V27.6136C92.0227 27.6818 91.8977 27.7443 91.7045 27.8011C91.5152 27.8542 91.2955 27.9015 91.0455 27.9432C90.7992 27.9811 90.5587 28.0152 90.3239 28.0455C90.0928 28.072 89.9053 28.0947 89.7614 28.1136C89.4129 28.1591 89.0871 28.233 88.7841 28.3352C88.4848 28.4337 88.2424 28.5833 88.0568 28.7841C87.875 28.9811 87.7841 29.25 87.7841 29.5909C87.7841 30.0568 87.9564 30.4091 88.3011 30.6477C88.6496 30.8826 89.0909 31 89.625 31ZM95.8679 32V23.2727H97.1634V24.6364H97.277C97.4588 24.1705 97.7524 23.8087 98.1577 23.5511C98.563 23.2898 99.0497 23.1591 99.6179 23.1591C100.194 23.1591 100.673 23.2898 101.055 23.5511C101.442 23.8087 101.743 24.1705 101.959 24.6364H102.05C102.273 24.1856 102.608 23.8277 103.055 23.5625C103.502 23.2936 104.038 23.1591 104.663 23.1591C105.444 23.1591 106.082 23.4034 106.578 23.892C107.074 24.3769 107.322 25.1326 107.322 26.1591V32H105.982V26.1591C105.982 25.5152 105.805 25.0549 105.453 24.7784C105.101 24.5019 104.686 24.3636 104.209 24.3636C103.595 24.3636 103.12 24.5492 102.783 24.9205C102.446 25.2879 102.277 25.7538 102.277 26.3182V32H100.913V26.0227C100.913 25.5265 100.752 25.1269 100.43 24.8239C100.108 24.517 99.6937 24.3636 99.1861 24.3636C98.8376 24.3636 98.5118 24.4564 98.2088 24.642C97.9096 24.8277 97.6671 25.0852 97.4815 25.4148C97.2997 25.7405 97.2088 26.1174 97.2088 26.5455V32H95.8679ZM109.774 32V23.2727H111.07V24.6364H111.183C111.365 24.1705 111.659 23.8087 112.064 23.5511C112.469 23.2898 112.956 23.1591 113.524 23.1591C114.1 23.1591 114.579 23.2898 114.962 23.5511C115.348 23.8087 115.649 24.1705 115.865 24.6364H115.956C116.179 24.1856 116.515 23.8277 116.962 23.5625C117.409 23.2936 117.945 23.1591 118.57 23.1591C119.35 23.1591 119.988 23.4034 120.484 23.892C120.981 24.3769 121.229 25.1326 121.229 26.1591V32H119.888V26.1591C119.888 25.5152 119.712 25.0549 119.359 24.7784C119.007 24.5019 118.592 24.3636 118.115 24.3636C117.501 24.3636 117.026 24.5492 116.689 24.9205C116.352 25.2879 116.183 25.7538 116.183 26.3182V32H114.82V26.0227C114.82 25.5265 114.659 25.1269 114.337 24.8239C114.015 24.517 113.6 24.3636 113.092 24.3636C112.744 24.3636 112.418 24.4564 112.115 24.642C111.816 24.8277 111.573 25.0852 111.388 25.4148C111.206 25.7405 111.115 26.1174 111.115 26.5455V32H109.774ZM126.249 32.2045C125.696 32.2045 125.194 32.1004 124.743 31.892C124.292 31.6799 123.934 31.375 123.669 30.9773C123.404 30.5758 123.271 30.0909 123.271 29.5227C123.271 29.0227 123.37 28.6174 123.567 28.3068C123.764 27.9924 124.027 27.7462 124.357 27.5682C124.686 27.3902 125.05 27.2576 125.447 27.1705C125.849 27.0795 126.252 27.0076 126.658 26.9545C127.188 26.8864 127.618 26.8352 127.947 26.8011C128.281 26.7633 128.523 26.7008 128.675 26.6136C128.83 26.5265 128.908 26.375 128.908 26.1591V26.1136C128.908 25.553 128.754 25.1174 128.447 24.8068C128.144 24.4962 127.684 24.3409 127.067 24.3409C126.427 24.3409 125.925 24.4811 125.561 24.7614C125.197 25.0417 124.942 25.3409 124.794 25.6591L123.521 25.2045C123.749 24.6742 124.052 24.2614 124.43 23.9659C124.813 23.6667 125.23 23.4583 125.68 23.3409C126.135 23.2197 126.582 23.1591 127.021 23.1591C127.302 23.1591 127.624 23.1932 127.987 23.2614C128.355 23.3258 128.709 23.4602 129.05 23.6648C129.394 23.8693 129.68 24.178 129.908 24.5909C130.135 25.0038 130.249 25.5568 130.249 26.25V32H128.908V30.8182H128.839C128.749 31.0076 128.597 31.2102 128.385 31.4261C128.173 31.642 127.891 31.8258 127.538 31.9773C127.186 32.1288 126.756 32.2045 126.249 32.2045ZM126.453 31C126.983 31 127.43 30.8958 127.794 30.6875C128.161 30.4792 128.438 30.2102 128.624 29.8807C128.813 29.5511 128.908 29.2045 128.908 28.8409V27.6136C128.851 27.6818 128.726 27.7443 128.533 27.8011C128.343 27.8542 128.124 27.9015 127.874 27.9432C127.627 27.9811 127.387 28.0152 127.152 28.0455C126.921 28.072 126.733 28.0947 126.589 28.1136C126.241 28.1591 125.915 28.233 125.612 28.3352C125.313 28.4337 125.071 28.5833 124.885 28.7841C124.703 28.9811 124.612 29.25 124.612 29.5909C124.612 30.0568 124.785 30.4091 125.129 30.6477C125.478 30.8826 125.919 31 126.453 31ZM132.696 32V23.2727H133.991V24.5909H134.082C134.241 24.1591 134.529 23.8087 134.946 23.5398C135.363 23.2708 135.832 23.1364 136.355 23.1364C136.454 23.1364 136.577 23.1383 136.724 23.142C136.872 23.1458 136.984 23.1515 137.06 23.1591V24.5227C137.014 24.5114 136.91 24.4943 136.747 24.4716C136.588 24.4451 136.42 24.4318 136.241 24.4318C135.817 24.4318 135.438 24.5208 135.105 24.6989C134.776 24.8731 134.514 25.1155 134.321 25.4261C134.132 25.733 134.037 26.0833 134.037 26.4773V32H132.696ZM149.695 23.2727C149.626 22.697 149.35 22.25 148.865 21.9318C148.38 21.6136 147.786 21.4545 147.081 21.4545C146.566 21.4545 146.115 21.5379 145.729 21.7045C145.346 21.8712 145.047 22.1004 144.831 22.392C144.619 22.6837 144.513 23.0152 144.513 23.3864C144.513 23.697 144.587 23.964 144.734 24.1875C144.886 24.4072 145.079 24.5909 145.314 24.7386C145.549 24.8826 145.795 25.0019 146.053 25.0966C146.31 25.1875 146.547 25.2614 146.763 25.3182L147.945 25.6364C148.248 25.7159 148.585 25.8258 148.956 25.9659C149.331 26.1061 149.689 26.2973 150.03 26.5398C150.375 26.7784 150.659 27.0852 150.882 27.4602C151.106 27.8352 151.217 28.2955 151.217 28.8409C151.217 29.4697 151.053 30.0379 150.723 30.5455C150.397 31.053 149.92 31.4564 149.291 31.7557C148.666 32.0549 147.907 32.2045 147.013 32.2045C146.179 32.2045 145.458 32.0701 144.848 31.8011C144.242 31.5322 143.765 31.1572 143.416 30.6761C143.071 30.1951 142.876 29.6364 142.831 29H144.286C144.323 29.4394 144.471 29.803 144.729 30.0909C144.99 30.375 145.32 30.5871 145.717 30.7273C146.119 30.8636 146.551 30.9318 147.013 30.9318C147.551 30.9318 148.034 30.8447 148.462 30.6705C148.89 30.4924 149.229 30.2462 149.479 29.9318C149.729 29.6136 149.854 29.2424 149.854 28.8182C149.854 28.4318 149.746 28.1174 149.53 27.875C149.314 27.6326 149.03 27.4356 148.678 27.2841C148.325 27.1326 147.945 27 147.536 26.8864L146.104 26.4773C145.195 26.2159 144.475 25.8428 143.945 25.358C143.414 24.8731 143.149 24.2386 143.149 23.4545C143.149 22.803 143.325 22.2348 143.678 21.75C144.034 21.2614 144.511 20.8826 145.109 20.6136C145.712 20.3409 146.384 20.2045 147.126 20.2045C147.876 20.2045 148.543 20.339 149.126 20.608C149.71 20.8731 150.172 21.2367 150.513 21.6989C150.857 22.161 151.039 22.6856 151.058 23.2727H149.695ZM156.898 32.1818C156.08 32.1818 155.375 31.9886 154.784 31.6023C154.193 31.2159 153.739 30.6837 153.42 30.0057C153.102 29.3277 152.943 28.553 152.943 27.6818C152.943 26.7955 153.106 26.0133 153.432 25.3352C153.761 24.6534 154.22 24.1212 154.807 23.7386C155.398 23.3523 156.087 23.1591 156.875 23.1591C157.489 23.1591 158.042 23.2727 158.534 23.5C159.027 23.7273 159.43 24.0455 159.744 24.4545C160.059 24.8636 160.254 25.3409 160.33 25.8864H158.989C158.886 25.4886 158.659 25.1364 158.307 24.8295C157.958 24.5189 157.489 24.3636 156.898 24.3636C156.375 24.3636 155.917 24.5 155.523 24.7727C155.133 25.0417 154.828 25.4223 154.608 25.9148C154.392 26.4034 154.284 26.9773 154.284 27.6364C154.284 28.3106 154.39 28.8977 154.602 29.3977C154.818 29.8977 155.121 30.286 155.511 30.5625C155.905 30.839 156.367 30.9773 156.898 30.9773C157.246 30.9773 157.562 30.9167 157.847 30.7955C158.131 30.6742 158.371 30.5 158.568 30.2727C158.765 30.0455 158.905 29.7727 158.989 29.4545H160.33C160.254 29.9697 160.066 30.4337 159.767 30.8466C159.472 31.2557 159.08 31.5814 158.591 31.8239C158.106 32.0625 157.542 32.1818 156.898 32.1818ZM163.631 26.75V32H162.29V20.3636H163.631V24.6364H163.744C163.949 24.1856 164.256 23.8277 164.665 23.5625C165.078 23.2936 165.627 23.1591 166.312 23.1591C166.907 23.1591 167.428 23.2784 167.875 23.517C168.322 23.7519 168.669 24.1136 168.915 24.6023C169.165 25.0871 169.29 25.7045 169.29 26.4545V32H167.949V26.5455C167.949 25.8523 167.769 25.3163 167.409 24.9375C167.053 24.5549 166.559 24.3636 165.926 24.3636C165.487 24.3636 165.093 24.4564 164.744 24.642C164.4 24.8277 164.127 25.0985 163.926 25.4545C163.729 25.8106 163.631 26.2424 163.631 26.75ZM175.288 32.1818C174.5 32.1818 173.809 31.9943 173.214 31.6193C172.624 31.2443 172.161 30.7197 171.828 30.0455C171.499 29.3712 171.334 28.5833 171.334 27.6818C171.334 26.7727 171.499 25.9792 171.828 25.3011C172.161 24.6231 172.624 24.0966 173.214 23.7216C173.809 23.3466 174.5 23.1591 175.288 23.1591C176.076 23.1591 176.766 23.3466 177.357 23.7216C177.951 24.0966 178.413 24.6231 178.743 25.3011C179.076 25.9792 179.243 26.7727 179.243 27.6818C179.243 28.5833 179.076 29.3712 178.743 30.0455C178.413 30.7197 177.951 31.2443 177.357 31.6193C176.766 31.9943 176.076 32.1818 175.288 32.1818ZM175.288 30.9773C175.887 30.9773 176.379 30.8239 176.766 30.517C177.152 30.2102 177.438 29.8068 177.624 29.3068C177.809 28.8068 177.902 28.2652 177.902 27.6818C177.902 27.0985 177.809 26.5549 177.624 26.0511C177.438 25.5473 177.152 25.1402 176.766 24.8295C176.379 24.5189 175.887 24.3636 175.288 24.3636C174.69 24.3636 174.197 24.5189 173.811 24.8295C173.425 25.1402 173.139 25.5473 172.953 26.0511C172.768 26.5549 172.675 27.0985 172.675 27.6818C172.675 28.2652 172.768 28.8068 172.953 29.3068C173.139 29.8068 173.425 30.2102 173.811 30.517C174.197 30.8239 174.69 30.9773 175.288 30.9773ZM184.835 32.1818C184.047 32.1818 183.356 31.9943 182.761 31.6193C182.17 31.2443 181.708 30.7197 181.375 30.0455C181.045 29.3712 180.881 28.5833 180.881 27.6818C180.881 26.7727 181.045 25.9792 181.375 25.3011C181.708 24.6231 182.17 24.0966 182.761 23.7216C183.356 23.3466 184.047 23.1591 184.835 23.1591C185.623 23.1591 186.313 23.3466 186.903 23.7216C187.498 24.0966 187.96 24.6231 188.29 25.3011C188.623 25.9792 188.79 26.7727 188.79 27.6818C188.79 28.5833 188.623 29.3712 188.29 30.0455C187.96 30.7197 187.498 31.2443 186.903 31.6193C186.313 31.9943 185.623 32.1818 184.835 32.1818ZM184.835 30.9773C185.434 30.9773 185.926 30.8239 186.312 30.517C186.699 30.2102 186.985 29.8068 187.17 29.3068C187.356 28.8068 187.449 28.2652 187.449 27.6818C187.449 27.0985 187.356 26.5549 187.17 26.0511C186.985 25.5473 186.699 25.1402 186.312 24.8295C185.926 24.5189 185.434 24.3636 184.835 24.3636C184.237 24.3636 183.744 24.5189 183.358 24.8295C182.972 25.1402 182.686 25.5473 182.5 26.0511C182.314 26.5549 182.222 27.0985 182.222 27.6818C182.222 28.2652 182.314 28.8068 182.5 29.3068C182.686 29.8068 182.972 30.2102 183.358 30.517C183.744 30.8239 184.237 30.9773 184.835 30.9773ZM192.178 20.3636V32H190.837V20.3636H192.178Z" fill="#333333"/>
<rect x="11" y="44" width="343" height="36" rx="4" fill="#F6F6F6"/>
<path d="M20.4091 68V56.3636H24.4773C25.2879 56.3636 25.9564 56.5038 26.483 56.7841C27.0095 57.0606 27.4015 57.4337 27.6591 57.9034C27.9167 58.3693 28.0455 58.8864 28.0455 59.4545C28.0455 59.9545 27.9564 60.3674 27.7784 60.6932C27.6042 61.0189 27.3731 61.2765 27.0852 61.4659C26.8011 61.6553 26.4924 61.7955 26.1591 61.8864V62C26.5152 62.0227 26.8731 62.1477 27.233 62.375C27.5928 62.6023 27.8939 62.928 28.1364 63.3523C28.3788 63.7765 28.5 64.2955 28.5 64.9091C28.5 65.4924 28.3674 66.017 28.1023 66.483C27.8371 66.9489 27.4186 67.3182 26.8466 67.5909C26.2746 67.8636 25.5303 68 24.6136 68H20.4091ZM21.8182 66.75H24.6136C25.5341 66.75 26.1875 66.572 26.5739 66.2159C26.964 65.8561 27.1591 65.4205 27.1591 64.9091C27.1591 64.5152 27.0587 64.1515 26.858 63.8182C26.6572 63.4811 26.3712 63.2121 26 63.0114C25.6288 62.8068 25.1894 62.7045 24.6818 62.7045H21.8182V66.75ZM21.8182 61.4773H24.4318C24.8561 61.4773 25.2386 61.3939 25.5795 61.2273C25.9242 61.0606 26.197 60.8258 26.3977 60.5227C26.6023 60.2197 26.7045 59.8636 26.7045 59.4545C26.7045 58.9432 26.5265 58.5095 26.1705 58.1534C25.8144 57.7936 25.25 57.6136 24.4773 57.6136H21.8182V61.4773ZM34.2926 68.1818C33.4517 68.1818 32.7263 67.9962 32.1165 67.625C31.5104 67.25 31.0426 66.7273 30.7131 66.0568C30.3873 65.3826 30.2244 64.5985 30.2244 63.7045C30.2244 62.8106 30.3873 62.0227 30.7131 61.3409C31.0426 60.6553 31.5009 60.1212 32.0881 59.7386C32.679 59.3523 33.3684 59.1591 34.1562 59.1591C34.6108 59.1591 35.0597 59.2348 35.5028 59.3864C35.946 59.5379 36.3494 59.7841 36.7131 60.125C37.0767 60.4621 37.3665 60.9091 37.5824 61.4659C37.7983 62.0227 37.9062 62.7083 37.9062 63.5227V64.0909H31.179V62.9318H36.5426C36.5426 62.4394 36.4441 62 36.2472 61.6136C36.054 61.2273 35.7775 60.9223 35.4176 60.6989C35.0616 60.4754 34.6411 60.3636 34.1562 60.3636C33.6222 60.3636 33.16 60.4962 32.7699 60.7614C32.3835 61.0227 32.0862 61.3636 31.8778 61.7841C31.6695 62.2045 31.5653 62.6553 31.5653 63.1364V63.9091C31.5653 64.5682 31.679 65.1269 31.9062 65.5852C32.1373 66.0398 32.4574 66.3864 32.8665 66.625C33.2756 66.8598 33.7509 66.9773 34.2926 66.9773C34.6449 66.9773 34.9631 66.928 35.2472 66.8295C35.535 66.7273 35.7831 66.5758 35.9915 66.375C36.1998 66.1705 36.3608 65.9167 36.4744 65.6136L37.7699 65.9773C37.6335 66.4167 37.4044 66.803 37.0824 67.1364C36.7604 67.4659 36.3627 67.7235 35.8892 67.9091C35.4157 68.0909 34.8835 68.1818 34.2926 68.1818ZM43.6051 68.1818C42.7642 68.1818 42.0388 67.9962 41.429 67.625C40.8229 67.25 40.3551 66.7273 40.0256 66.0568C39.6998 65.3826 39.5369 64.5985 39.5369 63.7045C39.5369 62.8106 39.6998 62.0227 40.0256 61.3409C40.3551 60.6553 40.8134 60.1212 41.4006 59.7386C41.9915 59.3523 42.6809 59.1591 43.4688 59.1591C43.9233 59.1591 44.3722 59.2348 44.8153 59.3864C45.2585 59.5379 45.6619 59.7841 46.0256 60.125C46.3892 60.4621 46.679 60.9091 46.8949 61.4659C47.1108 62.0227 47.2188 62.7083 47.2188 63.5227V64.0909H40.4915V62.9318H45.8551C45.8551 62.4394 45.7566 62 45.5597 61.6136C45.3665 61.2273 45.09 60.9223 44.7301 60.6989C44.3741 60.4754 43.9536 60.3636 43.4688 60.3636C42.9347 60.3636 42.4725 60.4962 42.0824 60.7614C41.696 61.0227 41.3987 61.3636 41.1903 61.7841C40.982 62.2045 40.8778 62.6553 40.8778 63.1364V63.9091C40.8778 64.5682 40.9915 65.1269 41.2188 65.5852C41.4498 66.0398 41.7699 66.3864 42.179 66.625C42.5881 66.8598 43.0634 66.9773 43.6051 66.9773C43.9574 66.9773 44.2756 66.928 44.5597 66.8295C44.8475 66.7273 45.0956 66.5758 45.304 66.375C45.5123 66.1705 45.6733 65.9167 45.7869 65.6136L47.0824 65.9773C46.946 66.4167 46.7169 66.803 46.3949 67.1364C46.0729 67.4659 45.6752 67.7235 45.2017 67.9091C44.7282 68.0909 44.196 68.1818 43.6051 68.1818ZM52.804 68.1818C51.9858 68.1818 51.2813 67.9886 50.6903 67.6023C50.0994 67.2159 49.6449 66.6837 49.3267 66.0057C49.0085 65.3277 48.8494 64.553 48.8494 63.6818C48.8494 62.7955 49.0123 62.0133 49.3381 61.3352C49.6676 60.6534 50.1259 60.1212 50.7131 59.7386C51.304 59.3523 51.9934 59.1591 52.7812 59.1591C53.3949 59.1591 53.9479 59.2727 54.4403 59.5C54.9328 59.7273 55.3362 60.0455 55.6506 60.4545C55.965 60.8636 56.16 61.3409 56.2358 61.8864H54.8949C54.7926 61.4886 54.5653 61.1364 54.2131 60.8295C53.8646 60.5189 53.3949 60.3636 52.804 60.3636C52.2813 60.3636 51.8229 60.5 51.429 60.7727C51.0388 61.0417 50.7339 61.4223 50.5142 61.9148C50.2983 62.4034 50.1903 62.9773 50.1903 63.6364C50.1903 64.3106 50.2964 64.8977 50.5085 65.3977C50.7244 65.8977 51.0275 66.286 51.4176 66.5625C51.8116 66.839 52.2737 66.9773 52.804 66.9773C53.1525 66.9773 53.4688 66.9167 53.7528 66.7955C54.0369 66.6742 54.2775 66.5 54.4744 66.2727C54.6714 66.0455 54.8116 65.7727 54.8949 65.4545H56.2358C56.16 65.9697 55.9725 66.4337 55.6733 66.8466C55.3778 67.2557 54.9858 67.5814 54.4972 67.8239C54.0123 68.0625 53.4479 68.1818 52.804 68.1818ZM59.5369 62.75V68H58.196V56.3636H59.5369V60.6364H59.6506C59.8551 60.1856 60.1619 59.8277 60.571 59.5625C60.9839 59.2936 61.5331 59.1591 62.2188 59.1591C62.8134 59.1591 63.3343 59.2784 63.7812 59.517C64.2282 59.7519 64.5748 60.1136 64.821 60.6023C65.071 61.0871 65.196 61.7045 65.196 62.4545V68H63.8551V62.5455C63.8551 61.8523 63.6752 61.3163 63.3153 60.9375C62.9593 60.5549 62.465 60.3636 61.8324 60.3636C61.393 60.3636 60.9991 60.4564 60.6506 60.642C60.3059 60.8277 60.0331 61.0985 59.8324 61.4545C59.6354 61.8106 59.5369 62.2424 59.5369 62.75ZM69.6264 68L66.9673 59.2727H68.3764L70.2628 65.9545H70.3537L72.2173 59.2727H73.6491L75.4901 65.9318H75.581L77.4673 59.2727H78.8764L76.2173 68H74.8991L72.9901 61.2955H72.8537L70.9446 68H69.6264ZM83.8977 68.1818C83.1098 68.1818 82.4186 67.9943 81.8239 67.6193C81.233 67.2443 80.7708 66.7197 80.4375 66.0455C80.108 65.3712 79.9432 64.5833 79.9432 63.6818C79.9432 62.7727 80.108 61.9792 80.4375 61.3011C80.7708 60.6231 81.233 60.0966 81.8239 59.7216C82.4186 59.3466 83.1098 59.1591 83.8977 59.1591C84.6856 59.1591 85.375 59.3466 85.9659 59.7216C86.5606 60.0966 87.0227 60.6231 87.3523 61.3011C87.6856 61.9792 87.8523 62.7727 87.8523 63.6818C87.8523 64.5833 87.6856 65.3712 87.3523 66.0455C87.0227 66.7197 86.5606 67.2443 85.9659 67.6193C85.375 67.9943 84.6856 68.1818 83.8977 68.1818ZM83.8977 66.9773C84.4962 66.9773 84.9886 66.8239 85.375 66.517C85.7614 66.2102 86.0473 65.8068 86.233 65.3068C86.4186 64.8068 86.5114 64.2652 86.5114 63.6818C86.5114 63.0985 86.4186 62.5549 86.233 62.0511C86.0473 61.5473 85.7614 61.1402 85.375 60.8295C84.9886 60.5189 84.4962 60.3636 83.8977 60.3636C83.2992 60.3636 82.8068 60.5189 82.4205 60.8295C82.0341 61.1402 81.7481 61.5473 81.5625 62.0511C81.3769 62.5549 81.2841 63.0985 81.2841 63.6818C81.2841 64.2652 81.3769 64.8068 81.5625 65.3068C81.7481 65.8068 82.0341 66.2102 82.4205 66.517C82.8068 66.8239 83.2992 66.9773 83.8977 66.9773ZM93.4446 68.1818C92.6567 68.1818 91.9654 67.9943 91.3707 67.6193C90.7798 67.2443 90.3177 66.7197 89.9844 66.0455C89.6548 65.3712 89.4901 64.5833 89.4901 63.6818C89.4901 62.7727 89.6548 61.9792 89.9844 61.3011C90.3177 60.6231 90.7798 60.0966 91.3707 59.7216C91.9654 59.3466 92.6567 59.1591 93.4446 59.1591C94.2325 59.1591 94.9219 59.3466 95.5128 59.7216C96.1075 60.0966 96.5696 60.6231 96.8991 61.3011C97.2325 61.9792 97.3991 62.7727 97.3991 63.6818C97.3991 64.5833 97.2325 65.3712 96.8991 66.0455C96.5696 66.7197 96.1075 67.2443 95.5128 67.6193C94.9219 67.9943 94.2325 68.1818 93.4446 68.1818ZM93.4446 66.9773C94.0431 66.9773 94.5355 66.8239 94.9219 66.517C95.3082 66.2102 95.5942 65.8068 95.7798 65.3068C95.9654 64.8068 96.0582 64.2652 96.0582 63.6818C96.0582 63.0985 95.9654 62.5549 95.7798 62.0511C95.5942 61.5473 95.3082 61.1402 94.9219 60.8295C94.5355 60.5189 94.0431 60.3636 93.4446 60.3636C92.8461 60.3636 92.3537 60.5189 91.9673 60.8295C91.581 61.1402 91.295 61.5473 91.1094 62.0511C90.9238 62.5549 90.831 63.0985 90.831 63.6818C90.831 64.2652 90.9238 64.8068 91.1094 65.3068C91.295 65.8068 91.581 66.2102 91.9673 66.517C92.3537 66.8239 92.8461 66.9773 93.4446 66.9773ZM102.741 68.1818C102.014 68.1818 101.372 67.9981 100.815 67.6307C100.259 67.2595 99.8229 66.7367 99.5085 66.0625C99.1941 65.3845 99.0369 64.5833 99.0369 63.6591C99.0369 62.7424 99.1941 61.947 99.5085 61.2727C99.8229 60.5985 100.26 60.0777 100.821 59.7102C101.382 59.3428 102.029 59.1591 102.764 59.1591C103.332 59.1591 103.781 59.2538 104.111 59.4432C104.444 59.6288 104.698 59.8409 104.872 60.0795C105.05 60.3144 105.188 60.5076 105.287 60.6591H105.401V56.3636H106.741V68H105.446V66.6591H105.287C105.188 66.8182 105.048 67.0189 104.866 67.2614C104.685 67.5 104.425 67.714 104.088 67.9034C103.751 68.089 103.302 68.1818 102.741 68.1818ZM102.923 66.9773C103.461 66.9773 103.916 66.8371 104.287 66.5568C104.658 66.2727 104.94 65.8807 105.134 65.3807C105.327 64.8769 105.423 64.2955 105.423 63.6364C105.423 62.9848 105.329 62.4148 105.139 61.9261C104.95 61.4337 104.67 61.0511 104.298 60.7784C103.927 60.5019 103.469 60.3636 102.923 60.3636C102.355 60.3636 101.882 60.5095 101.503 60.8011C101.128 61.089 100.846 61.4811 100.656 61.9773C100.471 62.4697 100.378 63.0227 100.378 63.6364C100.378 64.2576 100.473 64.822 100.662 65.3295C100.855 65.8333 101.139 66.2348 101.514 66.5341C101.893 66.8295 102.363 66.9773 102.923 66.9773ZM120.429 59.2727C120.361 58.697 120.084 58.25 119.599 57.9318C119.115 57.6136 118.52 57.4545 117.815 57.4545C117.3 57.4545 116.849 57.5379 116.463 57.7045C116.08 57.8712 115.781 58.1004 115.565 58.392C115.353 58.6837 115.247 59.0152 115.247 59.3864C115.247 59.697 115.321 59.964 115.469 60.1875C115.62 60.4072 115.813 60.5909 116.048 60.7386C116.283 60.8826 116.529 61.0019 116.787 61.0966C117.045 61.1875 117.281 61.2614 117.497 61.3182L118.679 61.6364C118.982 61.7159 119.319 61.8258 119.69 61.9659C120.065 62.1061 120.423 62.2973 120.764 62.5398C121.109 62.7784 121.393 63.0852 121.616 63.4602C121.84 63.8352 121.952 64.2955 121.952 64.8409C121.952 65.4697 121.787 66.0379 121.457 66.5455C121.132 67.053 120.654 67.4564 120.026 67.7557C119.401 68.0549 118.641 68.2045 117.747 68.2045C116.914 68.2045 116.192 68.0701 115.582 67.8011C114.976 67.5322 114.499 67.1572 114.151 66.6761C113.806 66.1951 113.611 65.6364 113.565 65H115.02C115.058 65.4394 115.205 65.803 115.463 66.0909C115.724 66.375 116.054 66.5871 116.452 66.7273C116.853 66.8636 117.285 66.9318 117.747 66.9318C118.285 66.9318 118.768 66.8447 119.196 66.6705C119.624 66.4924 119.963 66.2462 120.213 65.9318C120.463 65.6136 120.588 65.2424 120.588 64.8182C120.588 64.4318 120.48 64.1174 120.264 63.875C120.048 63.6326 119.764 63.4356 119.412 63.2841C119.06 63.1326 118.679 63 118.27 62.8864L116.838 62.4773C115.929 62.2159 115.209 61.8428 114.679 61.358C114.149 60.8731 113.884 60.2386 113.884 59.4545C113.884 58.803 114.06 58.2348 114.412 57.75C114.768 57.2614 115.245 56.8826 115.844 56.6136C116.446 56.3409 117.118 56.2045 117.861 56.2045C118.611 56.2045 119.277 56.339 119.861 56.608C120.444 56.8731 120.906 57.2367 121.247 57.6989C121.592 58.161 121.774 58.6856 121.793 59.2727H120.429ZM127.632 68.1818C126.814 68.1818 126.109 67.9886 125.518 67.6023C124.928 67.2159 124.473 66.6837 124.155 66.0057C123.837 65.3277 123.678 64.553 123.678 63.6818C123.678 62.7955 123.84 62.0133 124.166 61.3352C124.496 60.6534 124.954 60.1212 125.541 59.7386C126.132 59.3523 126.821 59.1591 127.609 59.1591C128.223 59.1591 128.776 59.2727 129.268 59.5C129.761 59.7273 130.164 60.0455 130.479 60.4545C130.793 60.8636 130.988 61.3409 131.064 61.8864H129.723C129.621 61.4886 129.393 61.1364 129.041 60.8295C128.693 60.5189 128.223 60.3636 127.632 60.3636C127.109 60.3636 126.651 60.5 126.257 60.7727C125.867 61.0417 125.562 61.4223 125.342 61.9148C125.126 62.4034 125.018 62.9773 125.018 63.6364C125.018 64.3106 125.125 64.8977 125.337 65.3977C125.553 65.8977 125.856 66.286 126.246 66.5625C126.64 66.839 127.102 66.9773 127.632 66.9773C127.981 66.9773 128.297 66.9167 128.581 66.7955C128.865 66.6742 129.106 66.5 129.303 66.2727C129.5 66.0455 129.64 65.7727 129.723 65.4545H131.064C130.988 65.9697 130.801 66.4337 130.501 66.8466C130.206 67.2557 129.814 67.5814 129.325 67.8239C128.84 68.0625 128.276 68.1818 127.632 68.1818ZM134.365 62.75V68H133.024V56.3636H134.365V60.6364H134.479C134.683 60.1856 134.99 59.8277 135.399 59.5625C135.812 59.2936 136.361 59.1591 137.047 59.1591C137.642 59.1591 138.162 59.2784 138.609 59.517C139.056 59.7519 139.403 60.1136 139.649 60.6023C139.899 61.0871 140.024 61.7045 140.024 62.4545V68H138.683V62.5455C138.683 61.8523 138.503 61.3163 138.143 60.9375C137.787 60.5549 137.293 60.3636 136.661 60.3636C136.221 60.3636 135.827 60.4564 135.479 60.642C135.134 60.8277 134.861 61.0985 134.661 61.4545C134.464 61.8106 134.365 62.2424 134.365 62.75ZM146.023 68.1818C145.235 68.1818 144.544 67.9943 143.949 67.6193C143.358 67.2443 142.896 66.7197 142.562 66.0455C142.233 65.3712 142.068 64.5833 142.068 63.6818C142.068 62.7727 142.233 61.9792 142.562 61.3011C142.896 60.6231 143.358 60.0966 143.949 59.7216C144.544 59.3466 145.235 59.1591 146.023 59.1591C146.811 59.1591 147.5 59.3466 148.091 59.7216C148.686 60.0966 149.148 60.6231 149.477 61.3011C149.811 61.9792 149.977 62.7727 149.977 63.6818C149.977 64.5833 149.811 65.3712 149.477 66.0455C149.148 66.7197 148.686 67.2443 148.091 67.6193C147.5 67.9943 146.811 68.1818 146.023 68.1818ZM146.023 66.9773C146.621 66.9773 147.114 66.8239 147.5 66.517C147.886 66.2102 148.172 65.8068 148.358 65.3068C148.544 64.8068 148.636 64.2652 148.636 63.6818C148.636 63.0985 148.544 62.5549 148.358 62.0511C148.172 61.5473 147.886 61.1402 147.5 60.8295C147.114 60.5189 146.621 60.3636 146.023 60.3636C145.424 60.3636 144.932 60.5189 144.545 60.8295C144.159 61.1402 143.873 61.5473 143.688 62.0511C143.502 62.5549 143.409 63.0985 143.409 63.6818C143.409 64.2652 143.502 64.8068 143.688 65.3068C143.873 65.8068 144.159 66.2102 144.545 66.517C144.932 66.8239 145.424 66.9773 146.023 66.9773ZM155.57 68.1818C154.782 68.1818 154.09 67.9943 153.496 67.6193C152.905 67.2443 152.443 66.7197 152.109 66.0455C151.78 65.3712 151.615 64.5833 151.615 63.6818C151.615 62.7727 151.78 61.9792 152.109 61.3011C152.443 60.6231 152.905 60.0966 153.496 59.7216C154.09 59.3466 154.782 59.1591 155.57 59.1591C156.357 59.1591 157.047 59.3466 157.638 59.7216C158.232 60.0966 158.695 60.6231 159.024 61.3011C159.357 61.9792 159.524 62.7727 159.524 63.6818C159.524 64.5833 159.357 65.3712 159.024 66.0455C158.695 66.7197 158.232 67.2443 157.638 67.6193C157.047 67.9943 156.357 68.1818 155.57 68.1818ZM155.57 66.9773C156.168 66.9773 156.661 66.8239 157.047 66.517C157.433 66.2102 157.719 65.8068 157.905 65.3068C158.09 64.8068 158.183 64.2652 158.183 63.6818C158.183 63.0985 158.09 62.5549 157.905 62.0511C157.719 61.5473 157.433 61.1402 157.047 60.8295C156.661 60.5189 156.168 60.3636 155.57 60.3636C154.971 60.3636 154.479 60.5189 154.092 60.8295C153.706 61.1402 153.42 61.5473 153.234 62.0511C153.049 62.5549 152.956 63.0985 152.956 63.6818C152.956 64.2652 153.049 64.8068 153.234 65.3068C153.42 65.8068 153.706 66.2102 154.092 66.517C154.479 66.8239 154.971 66.9773 155.57 66.9773ZM162.912 56.3636V68H161.571V56.3636H162.912Z" fill="#333333"/>
<rect x="11" y="80" width="343" height="36" rx="4" fill="white"/>
<path d="M26.7727 95.2727C26.7045 94.697 26.428 94.25 25.9432 93.9318C25.4583 93.6136 24.8636 93.4545 24.1591 93.4545C23.6439 93.4545 23.1932 93.5379 22.8068 93.7045C22.4242 93.8712 22.125 94.1004 21.9091 94.392C21.697 94.6837 21.5909 95.0152 21.5909 95.3864C21.5909 95.697 21.6648 95.964 21.8125 96.1875C21.964 96.4072 22.1572 96.5909 22.392 96.7386C22.6269 96.8826 22.8731 97.0019 23.1307 97.0966C23.3883 97.1875 23.625 97.2614 23.8409 97.3182L25.0227 97.6364C25.3258 97.7159 25.6629 97.8258 26.0341 97.9659C26.4091 98.1061 26.767 98.2973 27.108 98.5398C27.4527 98.7784 27.7367 99.0852 27.9602 99.4602C28.1837 99.8352 28.2955 100.295 28.2955 100.841C28.2955 101.47 28.1307 102.038 27.8011 102.545C27.4754 103.053 26.9981 103.456 26.3693 103.756C25.7443 104.055 24.9848 104.205 24.0909 104.205C23.2576 104.205 22.536 104.07 21.9261 103.801C21.3201 103.532 20.8428 103.157 20.4943 102.676C20.1496 102.195 19.9545 101.636 19.9091 101H21.3636C21.4015 101.439 21.5492 101.803 21.8068 102.091C22.0682 102.375 22.3977 102.587 22.7955 102.727C23.197 102.864 23.6288 102.932 24.0909 102.932C24.6288 102.932 25.1117 102.845 25.5398 102.67C25.9678 102.492 26.3068 102.246 26.5568 101.932C26.8068 101.614 26.9318 101.242 26.9318 100.818C26.9318 100.432 26.8239 100.117 26.608 99.875C26.392 99.6326 26.108 99.4356 25.7557 99.2841C25.4034 99.1326 25.0227 99 24.6136 98.8864L23.1818 98.4773C22.2727 98.2159 21.553 97.8428 21.0227 97.358C20.4924 96.8731 20.2273 96.2386 20.2273 95.4545C20.2273 94.803 20.4034 94.2348 20.7557 93.75C21.1117 93.2614 21.589 92.8826 22.1875 92.6136C22.7898 92.3409 23.4621 92.2045 24.2045 92.2045C24.9545 92.2045 25.6212 92.339 26.2045 92.608C26.7879 92.8731 27.25 93.2367 27.5909 93.6989C27.9356 94.161 28.1174 94.6856 28.1364 95.2727H26.7727ZM30.4304 104V95.2727H31.7713V104H30.4304ZM31.1122 93.8182C30.8509 93.8182 30.6255 93.7292 30.4361 93.5511C30.2505 93.3731 30.1577 93.1591 30.1577 92.9091C30.1577 92.6591 30.2505 92.4451 30.4361 92.267C30.6255 92.089 30.8509 92 31.1122 92C31.3736 92 31.5971 92.089 31.7827 92.267C31.9721 92.4451 32.0668 92.6591 32.0668 92.9091C32.0668 93.1591 31.9721 93.3731 31.7827 93.5511C31.5971 93.7292 31.3736 93.8182 31.1122 93.8182ZM34.2273 104V95.2727H35.5227V96.5909H35.6136C35.7727 96.1591 36.0606 95.8087 36.4773 95.5398C36.8939 95.2708 37.3636 95.1364 37.8864 95.1364C37.9848 95.1364 38.108 95.1383 38.2557 95.142C38.4034 95.1458 38.5152 95.1515 38.5909 95.1591V96.5227C38.5455 96.5114 38.4413 96.4943 38.2784 96.4716C38.1193 96.4451 37.9508 96.4318 37.7727 96.4318C37.3485 96.4318 36.9697 96.5208 36.6364 96.6989C36.3068 96.8731 36.0455 97.1155 35.8523 97.4261C35.6629 97.733 35.5682 98.0833 35.5682 98.4773V104H34.2273ZM44.2259 93.6136V92.3636H52.9531V93.6136H49.294V104H47.8849V93.6136H44.2259ZM56.2869 98.75V104H54.946V92.3636H56.2869V96.6364H56.4006C56.6051 96.1856 56.9119 95.8277 57.321 95.5625C57.7339 95.2936 58.2831 95.1591 58.9688 95.1591C59.5634 95.1591 60.0843 95.2784 60.5312 95.517C60.9782 95.7519 61.3248 96.1136 61.571 96.6023C61.821 97.0871 61.946 97.7045 61.946 98.4545V104H60.6051V98.5455C60.6051 97.8523 60.4252 97.3163 60.0653 96.9375C59.7093 96.5549 59.215 96.3636 58.5824 96.3636C58.143 96.3636 57.7491 96.4564 57.4006 96.642C57.0559 96.8277 56.7831 97.0985 56.5824 97.4545C56.3854 97.8106 56.2869 98.2424 56.2869 98.75ZM67.9446 104.182C67.1567 104.182 66.4654 103.994 65.8707 103.619C65.2798 103.244 64.8177 102.72 64.4844 102.045C64.1548 101.371 63.9901 100.583 63.9901 99.6818C63.9901 98.7727 64.1548 97.9792 64.4844 97.3011C64.8177 96.6231 65.2798 96.0966 65.8707 95.7216C66.4654 95.3466 67.1567 95.1591 67.9446 95.1591C68.7325 95.1591 69.4219 95.3466 70.0128 95.7216C70.6075 96.0966 71.0696 96.6231 71.3991 97.3011C71.7325 97.9792 71.8991 98.7727 71.8991 99.6818C71.8991 100.583 71.7325 101.371 71.3991 102.045C71.0696 102.72 70.6075 103.244 70.0128 103.619C69.4219 103.994 68.7325 104.182 67.9446 104.182ZM67.9446 102.977C68.5431 102.977 69.0355 102.824 69.4219 102.517C69.8082 102.21 70.0942 101.807 70.2798 101.307C70.4654 100.807 70.5582 100.265 70.5582 99.6818C70.5582 99.0985 70.4654 98.5549 70.2798 98.0511C70.0942 97.5473 69.8082 97.1402 69.4219 96.8295C69.0355 96.5189 68.5431 96.3636 67.9446 96.3636C67.3461 96.3636 66.8537 96.5189 66.4673 96.8295C66.081 97.1402 65.795 97.5473 65.6094 98.0511C65.4238 98.5549 65.331 99.0985 65.331 99.6818C65.331 100.265 65.4238 100.807 65.6094 101.307C65.795 101.807 66.081 102.21 66.4673 102.517C66.8537 102.824 67.3461 102.977 67.9446 102.977ZM73.946 104V95.2727H75.2415V96.6364H75.3551C75.5369 96.1705 75.8305 95.8087 76.2358 95.5511C76.6411 95.2898 77.1278 95.1591 77.696 95.1591C78.2718 95.1591 78.7509 95.2898 79.1335 95.5511C79.5199 95.8087 79.821 96.1705 80.0369 96.6364H80.1278C80.3513 96.1856 80.6866 95.8277 81.1335 95.5625C81.5805 95.2936 82.1165 95.1591 82.7415 95.1591C83.5218 95.1591 84.16 95.4034 84.6562 95.892C85.1525 96.3769 85.4006 97.1326 85.4006 98.1591V104H84.0597V98.1591C84.0597 97.5152 83.8835 97.0549 83.5312 96.7784C83.179 96.5019 82.7642 96.3636 82.2869 96.3636C81.6733 96.3636 81.1979 96.5492 80.8608 96.9205C80.5237 97.2879 80.3551 97.7538 80.3551 98.3182V104H78.9915V98.0227C78.9915 97.5265 78.8305 97.1269 78.5085 96.8239C78.1866 96.517 77.7718 96.3636 77.2642 96.3636C76.9157 96.3636 76.59 96.4564 76.2869 96.642C75.9877 96.8277 75.7453 97.0852 75.5597 97.4148C75.3778 97.7405 75.2869 98.1174 75.2869 98.5455V104H73.946ZM90.4205 104.205C89.8674 104.205 89.3655 104.1 88.9148 103.892C88.464 103.68 88.1061 103.375 87.8409 102.977C87.5758 102.576 87.4432 102.091 87.4432 101.523C87.4432 101.023 87.5417 100.617 87.7386 100.307C87.9356 99.9924 88.1989 99.7462 88.5284 99.5682C88.858 99.3902 89.2216 99.2576 89.6193 99.1705C90.0208 99.0795 90.4242 99.0076 90.8295 98.9545C91.3598 98.8864 91.7898 98.8352 92.1193 98.8011C92.4527 98.7633 92.6951 98.7008 92.8466 98.6136C93.0019 98.5265 93.0795 98.375 93.0795 98.1591V98.1136C93.0795 97.553 92.9261 97.1174 92.6193 96.8068C92.3163 96.4962 91.8561 96.3409 91.2386 96.3409C90.5985 96.3409 90.0966 96.4811 89.733 96.7614C89.3693 97.0417 89.1136 97.3409 88.9659 97.6591L87.6932 97.2045C87.9205 96.6742 88.2235 96.2614 88.6023 95.9659C88.9848 95.6667 89.4015 95.4583 89.8523 95.3409C90.3068 95.2197 90.7538 95.1591 91.1932 95.1591C91.4735 95.1591 91.7955 95.1932 92.1591 95.2614C92.5265 95.3258 92.8807 95.4602 93.2216 95.6648C93.5663 95.8693 93.8523 96.178 94.0795 96.5909C94.3068 97.0038 94.4205 97.5568 94.4205 98.25V104H93.0795V102.818H93.0114C92.9205 103.008 92.7689 103.21 92.5568 103.426C92.3447 103.642 92.0625 103.826 91.7102 103.977C91.358 104.129 90.928 104.205 90.4205 104.205ZM90.625 103C91.1553 103 91.6023 102.896 91.9659 102.688C92.3333 102.479 92.6098 102.21 92.7955 101.881C92.9848 101.551 93.0795 101.205 93.0795 100.841V99.6136C93.0227 99.6818 92.8977 99.7443 92.7045 99.8011C92.5152 99.8542 92.2955 99.9015 92.0455 99.9432C91.7992 99.9811 91.5587 100.015 91.3239 100.045C91.0928 100.072 90.9053 100.095 90.7614 100.114C90.4129 100.159 90.0871 100.233 89.7841 100.335C89.4848 100.434 89.2424 100.583 89.0568 100.784C88.875 100.981 88.7841 101.25 88.7841 101.591C88.7841 102.057 88.9564 102.409 89.3011 102.648C89.6496 102.883 90.0909 103 90.625 103ZM103.05 97.2273L101.845 97.5682C101.769 97.3674 101.658 97.1723 101.51 96.983C101.366 96.7898 101.169 96.6307 100.919 96.5057C100.669 96.3807 100.349 96.3182 99.9588 96.3182C99.4247 96.3182 98.9796 96.4413 98.6236 96.6875C98.2713 96.9299 98.0952 97.2386 98.0952 97.6136C98.0952 97.947 98.2164 98.2102 98.4588 98.4034C98.7012 98.5966 99.08 98.7576 99.5952 98.8864L100.891 99.2045C101.671 99.3939 102.252 99.6837 102.635 100.074C103.018 100.46 103.209 100.958 103.209 101.568C103.209 102.068 103.065 102.515 102.777 102.909C102.493 103.303 102.095 103.614 101.584 103.841C101.072 104.068 100.478 104.182 99.7997 104.182C98.9096 104.182 98.1728 103.989 97.5895 103.602C97.0062 103.216 96.6368 102.652 96.4815 101.909L97.7543 101.591C97.8755 102.061 98.1046 102.413 98.4418 102.648C98.7827 102.883 99.2277 103 99.777 103C100.402 103 100.898 102.867 101.266 102.602C101.637 102.333 101.822 102.011 101.822 101.636C101.822 101.333 101.716 101.08 101.504 100.875C101.292 100.667 100.966 100.511 100.527 100.409L99.0724 100.068C98.2732 99.8788 97.6861 99.5852 97.3111 99.1875C96.9399 98.786 96.7543 98.2841 96.7543 97.6818C96.7543 97.1894 96.8925 96.7538 97.169 96.375C97.4493 95.9962 97.83 95.6989 98.3111 95.483C98.7959 95.267 99.3452 95.1591 99.9588 95.1591C100.822 95.1591 101.5 95.3485 101.993 95.7273C102.489 96.1061 102.841 96.6061 103.05 97.2273ZM109.909 104V92.3636H113.841C114.75 92.3636 115.496 92.5189 116.08 92.8295C116.663 93.1364 117.095 93.5587 117.375 94.0966C117.655 94.6345 117.795 95.2462 117.795 95.9318C117.795 96.6174 117.655 97.2254 117.375 97.7557C117.095 98.286 116.665 98.7027 116.085 99.0057C115.506 99.3049 114.765 99.4545 113.864 99.4545H110.682V98.1818H113.818C114.439 98.1818 114.939 98.0909 115.318 97.9091C115.701 97.7273 115.977 97.4697 116.148 97.1364C116.322 96.7992 116.409 96.3977 116.409 95.9318C116.409 95.4659 116.322 95.0587 116.148 94.7102C115.973 94.3617 115.695 94.0928 115.312 93.9034C114.93 93.7102 114.424 93.6136 113.795 93.6136H111.318V104H109.909ZM115.386 98.7727L118.25 104H116.614L113.795 98.7727H115.386ZM119.962 104V95.2727H121.303V104H119.962ZM120.643 93.8182C120.382 93.8182 120.157 93.7292 119.967 93.5511C119.782 93.3731 119.689 93.1591 119.689 92.9091C119.689 92.6591 119.782 92.4451 119.967 92.267C120.157 92.089 120.382 92 120.643 92C120.905 92 121.128 92.089 121.314 92.267C121.503 92.4451 121.598 92.6591 121.598 92.9091C121.598 93.1591 121.503 93.3731 121.314 93.5511C121.128 93.7292 120.905 93.8182 120.643 93.8182ZM127.304 104.182C126.486 104.182 125.781 103.989 125.19 103.602C124.599 103.216 124.145 102.684 123.827 102.006C123.509 101.328 123.349 100.553 123.349 99.6818C123.349 98.7955 123.512 98.0133 123.838 97.3352C124.168 96.6534 124.626 96.1212 125.213 95.7386C125.804 95.3523 126.493 95.1591 127.281 95.1591C127.895 95.1591 128.448 95.2727 128.94 95.5C129.433 95.7273 129.836 96.0455 130.151 96.4545C130.465 96.8636 130.66 97.3409 130.736 97.8864H129.395C129.293 97.4886 129.065 97.1364 128.713 96.8295C128.365 96.5189 127.895 96.3636 127.304 96.3636C126.781 96.3636 126.323 96.5 125.929 96.7727C125.539 97.0417 125.234 97.4223 125.014 97.9148C124.798 98.4034 124.69 98.9773 124.69 99.6364C124.69 100.311 124.796 100.898 125.009 101.398C125.224 101.898 125.527 102.286 125.918 102.562C126.312 102.839 126.774 102.977 127.304 102.977C127.652 102.977 127.969 102.917 128.253 102.795C128.537 102.674 128.777 102.5 128.974 102.273C129.171 102.045 129.312 101.773 129.395 101.455H130.736C130.66 101.97 130.473 102.434 130.173 102.847C129.878 103.256 129.486 103.581 128.997 103.824C128.512 104.062 127.948 104.182 127.304 104.182ZM134.037 98.75V104H132.696V92.3636H134.037V96.6364H134.151C134.355 96.1856 134.662 95.8277 135.071 95.5625C135.484 95.2936 136.033 95.1591 136.719 95.1591C137.313 95.1591 137.834 95.2784 138.281 95.517C138.728 95.7519 139.075 96.1136 139.321 96.6023C139.571 97.0871 139.696 97.7045 139.696 98.4545V104H138.355V98.5455C138.355 97.8523 138.175 97.3163 137.815 96.9375C137.459 96.5549 136.965 96.3636 136.332 96.3636C135.893 96.3636 135.499 96.4564 135.151 96.642C134.806 96.8277 134.533 97.0985 134.332 97.4545C134.135 97.8106 134.037 98.2424 134.037 98.75ZM143.331 92.3636V93.3864C143.331 93.697 143.274 94.0284 143.161 94.3807C143.051 94.7292 142.888 95.0682 142.672 95.3977C142.46 95.7235 142.202 96.0076 141.899 96.25L141.172 95.6591C141.411 95.3182 141.617 94.964 141.791 94.5966C141.969 94.2254 142.058 93.8295 142.058 93.4091V92.3636H143.331ZM150.05 97.2273L148.845 97.5682C148.769 97.3674 148.658 97.1723 148.51 96.983C148.366 96.7898 148.169 96.6307 147.919 96.5057C147.669 96.3807 147.349 96.3182 146.959 96.3182C146.425 96.3182 145.98 96.4413 145.624 96.6875C145.271 96.9299 145.095 97.2386 145.095 97.6136C145.095 97.947 145.216 98.2102 145.459 98.4034C145.701 98.5966 146.08 98.7576 146.595 98.8864L147.891 99.2045C148.671 99.3939 149.252 99.6837 149.635 100.074C150.018 100.46 150.209 100.958 150.209 101.568C150.209 102.068 150.065 102.515 149.777 102.909C149.493 103.303 149.095 103.614 148.584 103.841C148.072 104.068 147.478 104.182 146.8 104.182C145.91 104.182 145.173 103.989 144.589 103.602C144.006 103.216 143.637 102.652 143.482 101.909L144.754 101.591C144.875 102.061 145.105 102.413 145.442 102.648C145.783 102.883 146.228 103 146.777 103C147.402 103 147.898 102.867 148.266 102.602C148.637 102.333 148.822 102.011 148.822 101.636C148.822 101.333 148.716 101.08 148.504 100.875C148.292 100.667 147.966 100.511 147.527 100.409L146.072 100.068C145.273 99.8788 144.686 99.5852 144.311 99.1875C143.94 98.786 143.754 98.2841 143.754 97.6818C143.754 97.1894 143.893 96.7538 144.169 96.375C144.449 95.9962 144.83 95.6989 145.311 95.483C145.796 95.267 146.345 95.1591 146.959 95.1591C147.822 95.1591 148.5 95.3485 148.993 95.7273C149.489 96.1061 149.841 96.6061 150.05 97.2273ZM163.273 95.2727C163.205 94.697 162.928 94.25 162.443 93.9318C161.958 93.6136 161.364 93.4545 160.659 93.4545C160.144 93.4545 159.693 93.5379 159.307 93.7045C158.924 93.8712 158.625 94.1004 158.409 94.392C158.197 94.6837 158.091 95.0152 158.091 95.3864C158.091 95.697 158.165 95.964 158.312 96.1875C158.464 96.4072 158.657 96.5909 158.892 96.7386C159.127 96.8826 159.373 97.0019 159.631 97.0966C159.888 97.1875 160.125 97.2614 160.341 97.3182L161.523 97.6364C161.826 97.7159 162.163 97.8258 162.534 97.9659C162.909 98.1061 163.267 98.2973 163.608 98.5398C163.953 98.7784 164.237 99.0852 164.46 99.4602C164.684 99.8352 164.795 100.295 164.795 100.841C164.795 101.47 164.631 102.038 164.301 102.545C163.975 103.053 163.498 103.456 162.869 103.756C162.244 104.055 161.485 104.205 160.591 104.205C159.758 104.205 159.036 104.07 158.426 103.801C157.82 103.532 157.343 103.157 156.994 102.676C156.65 102.195 156.455 101.636 156.409 101H157.864C157.902 101.439 158.049 101.803 158.307 102.091C158.568 102.375 158.898 102.587 159.295 102.727C159.697 102.864 160.129 102.932 160.591 102.932C161.129 102.932 161.612 102.845 162.04 102.67C162.468 102.492 162.807 102.246 163.057 101.932C163.307 101.614 163.432 101.242 163.432 100.818C163.432 100.432 163.324 100.117 163.108 99.875C162.892 99.6326 162.608 99.4356 162.256 99.2841C161.903 99.1326 161.523 99 161.114 98.8864L159.682 98.4773C158.773 98.2159 158.053 97.8428 157.523 97.358C156.992 96.8731 156.727 96.2386 156.727 95.4545C156.727 94.803 156.903 94.2348 157.256 93.75C157.612 93.2614 158.089 92.8826 158.688 92.6136C159.29 92.3409 159.962 92.2045 160.705 92.2045C161.455 92.2045 162.121 92.339 162.705 92.608C163.288 92.8731 163.75 93.2367 164.091 93.6989C164.436 94.161 164.617 94.6856 164.636 95.2727H163.273ZM170.476 104.182C169.658 104.182 168.953 103.989 168.362 103.602C167.771 103.216 167.317 102.684 166.999 102.006C166.68 101.328 166.521 100.553 166.521 99.6818C166.521 98.7955 166.684 98.0133 167.01 97.3352C167.339 96.6534 167.798 96.1212 168.385 95.7386C168.976 95.3523 169.665 95.1591 170.453 95.1591C171.067 95.1591 171.62 95.2727 172.112 95.5C172.605 95.7273 173.008 96.0455 173.322 96.4545C173.637 96.8636 173.832 97.3409 173.908 97.8864H172.567C172.464 97.4886 172.237 97.1364 171.885 96.8295C171.536 96.5189 171.067 96.3636 170.476 96.3636C169.953 96.3636 169.495 96.5 169.101 96.7727C168.711 97.0417 168.406 97.4223 168.186 97.9148C167.97 98.4034 167.862 98.9773 167.862 99.6364C167.862 100.311 167.968 100.898 168.18 101.398C168.396 101.898 168.699 102.286 169.089 102.562C169.483 102.839 169.946 102.977 170.476 102.977C170.824 102.977 171.141 102.917 171.425 102.795C171.709 102.674 171.949 102.5 172.146 102.273C172.343 102.045 172.483 101.773 172.567 101.455H173.908C173.832 101.97 173.644 102.434 173.345 102.847C173.05 103.256 172.658 103.581 172.169 103.824C171.684 104.062 171.12 104.182 170.476 104.182ZM177.209 98.75V104H175.868V92.3636H177.209V96.6364H177.322C177.527 96.1856 177.834 95.8277 178.243 95.5625C178.656 95.2936 179.205 95.1591 179.891 95.1591C180.485 95.1591 181.006 95.2784 181.453 95.517C181.9 95.7519 182.247 96.1136 182.493 96.6023C182.743 97.0871 182.868 97.7045 182.868 98.4545V104H181.527V98.5455C181.527 97.8523 181.347 97.3163 180.987 96.9375C180.631 96.5549 180.137 96.3636 179.504 96.3636C179.065 96.3636 178.671 96.4564 178.322 96.642C177.978 96.8277 177.705 97.0985 177.504 97.4545C177.307 97.8106 177.209 98.2424 177.209 98.75ZM188.866 104.182C188.079 104.182 187.387 103.994 186.793 103.619C186.202 103.244 185.74 102.72 185.406 102.045C185.077 101.371 184.912 100.583 184.912 99.6818C184.912 98.7727 185.077 97.9792 185.406 97.3011C185.74 96.6231 186.202 96.0966 186.793 95.7216C187.387 95.3466 188.079 95.1591 188.866 95.1591C189.654 95.1591 190.344 95.3466 190.935 95.7216C191.529 96.0966 191.991 96.6231 192.321 97.3011C192.654 97.9792 192.821 98.7727 192.821 99.6818C192.821 100.583 192.654 101.371 192.321 102.045C191.991 102.72 191.529 103.244 190.935 103.619C190.344 103.994 189.654 104.182 188.866 104.182ZM188.866 102.977C189.465 102.977 189.957 102.824 190.344 102.517C190.73 102.21 191.016 101.807 191.202 101.307C191.387 100.807 191.48 100.265 191.48 99.6818C191.48 99.0985 191.387 98.5549 191.202 98.0511C191.016 97.5473 190.73 97.1402 190.344 96.8295C189.957 96.5189 189.465 96.3636 188.866 96.3636C188.268 96.3636 187.776 96.5189 187.389 96.8295C187.003 97.1402 186.717 97.5473 186.531 98.0511C186.346 98.5549 186.253 99.0985 186.253 99.6818C186.253 100.265 186.346 100.807 186.531 101.307C186.717 101.807 187.003 102.21 187.389 102.517C187.776 102.824 188.268 102.977 188.866 102.977ZM198.413 104.182C197.625 104.182 196.934 103.994 196.339 103.619C195.749 103.244 195.286 102.72 194.953 102.045C194.624 101.371 194.459 100.583 194.459 99.6818C194.459 98.7727 194.624 97.9792 194.953 97.3011C195.286 96.6231 195.749 96.0966 196.339 95.7216C196.934 95.3466 197.625 95.1591 198.413 95.1591C199.201 95.1591 199.891 95.3466 200.482 95.7216C201.076 96.0966 201.538 96.6231 201.868 97.3011C202.201 97.9792 202.368 98.7727 202.368 99.6818C202.368 100.583 202.201 101.371 201.868 102.045C201.538 102.72 201.076 103.244 200.482 103.619C199.891 103.994 199.201 104.182 198.413 104.182ZM198.413 102.977C199.012 102.977 199.504 102.824 199.891 102.517C200.277 102.21 200.563 101.807 200.749 101.307C200.934 100.807 201.027 100.265 201.027 99.6818C201.027 99.0985 200.934 98.5549 200.749 98.0511C200.563 97.5473 200.277 97.1402 199.891 96.8295C199.504 96.5189 199.012 96.3636 198.413 96.3636C197.815 96.3636 197.322 96.5189 196.936 96.8295C196.55 97.1402 196.264 97.5473 196.078 98.0511C195.893 98.5549 195.8 99.0985 195.8 99.6818C195.8 100.265 195.893 100.807 196.078 101.307C196.264 101.807 196.55 102.21 196.936 102.517C197.322 102.824 197.815 102.977 198.413 102.977ZM205.756 92.3636V104H204.415V92.3636H205.756Z" fill="#0F67F5"/>
<rect x="11" y="116" width="343" height="36" rx="4" fill="white"/>
<path d="M20.8864 140H19.4091L23.6818 128.364H25.1364L29.4091 140H27.9318L24.4545 130.205H24.3636L20.8864 140ZM21.4318 135.455H27.3864V136.705H21.4318V135.455ZM32.3807 128.364V140H31.0398V128.364H32.3807ZM38.6321 131.273V132.409H34.1094V131.273H38.6321ZM35.4276 129.182H36.7685V137.5C36.7685 137.879 36.8234 138.163 36.9332 138.352C37.0469 138.538 37.1908 138.663 37.3651 138.727C37.5431 138.788 37.7306 138.818 37.9276 138.818C38.0753 138.818 38.1965 138.811 38.2912 138.795C38.3859 138.777 38.4616 138.761 38.5185 138.75L38.7912 139.955C38.7003 139.989 38.5734 140.023 38.4105 140.057C38.2476 140.095 38.0412 140.114 37.7912 140.114C37.4124 140.114 37.0412 140.032 36.6776 139.869C36.3177 139.706 36.0185 139.458 35.7798 139.125C35.545 138.792 35.4276 138.371 35.4276 137.864V129.182ZM40.6491 140V131.273H41.9446V132.591H42.0355C42.1946 132.159 42.4825 131.809 42.8991 131.54C43.3158 131.271 43.7855 131.136 44.3082 131.136C44.4067 131.136 44.5298 131.138 44.6776 131.142C44.8253 131.146 44.937 131.152 45.0128 131.159V132.523C44.9673 132.511 44.8632 132.494 44.7003 132.472C44.5412 132.445 44.3726 132.432 44.1946 132.432C43.7704 132.432 43.3916 132.521 43.0582 132.699C42.7287 132.873 42.4673 133.116 42.2741 133.426C42.0848 133.733 41.9901 134.083 41.9901 134.477V140H40.6491ZM46.6023 140V131.273H47.9432V140H46.6023ZM47.2841 129.818C47.0227 129.818 46.7973 129.729 46.608 129.551C46.4223 129.373 46.3295 129.159 46.3295 128.909C46.3295 128.659 46.4223 128.445 46.608 128.267C46.7973 128.089 47.0227 128 47.2841 128C47.5455 128 47.7689 128.089 47.9545 128.267C48.1439 128.445 48.2386 128.659 48.2386 128.909C48.2386 129.159 48.1439 129.373 47.9545 129.551C47.7689 129.729 47.5455 129.818 47.2841 129.818ZM51.7401 134.75V140H50.3991V131.273H51.6946V132.636H51.8082C52.0128 132.193 52.3234 131.837 52.7401 131.568C53.1567 131.295 53.6946 131.159 54.3537 131.159C54.9446 131.159 55.4616 131.28 55.9048 131.523C56.348 131.761 56.6927 132.125 56.9389 132.614C57.1851 133.098 57.3082 133.712 57.3082 134.455V140H55.9673V134.545C55.9673 133.86 55.7893 133.326 55.4332 132.943C55.0772 132.557 54.5885 132.364 53.9673 132.364C53.5393 132.364 53.1567 132.456 52.8196 132.642C52.4863 132.828 52.223 133.098 52.0298 133.455C51.8366 133.811 51.7401 134.242 51.7401 134.75ZM63.304 140.182C62.4858 140.182 61.7813 139.989 61.1903 139.602C60.5994 139.216 60.1449 138.684 59.8267 138.006C59.5085 137.328 59.3494 136.553 59.3494 135.682C59.3494 134.795 59.5123 134.013 59.8381 133.335C60.1676 132.653 60.6259 132.121 61.2131 131.739C61.804 131.352 62.4934 131.159 63.2812 131.159C63.8949 131.159 64.4479 131.273 64.9403 131.5C65.4328 131.727 65.8362 132.045 66.1506 132.455C66.465 132.864 66.66 133.341 66.7358 133.886H65.3949C65.2926 133.489 65.0653 133.136 64.7131 132.83C64.3646 132.519 63.8949 132.364 63.304 132.364C62.7813 132.364 62.3229 132.5 61.929 132.773C61.5388 133.042 61.2339 133.422 61.0142 133.915C60.7983 134.403 60.6903 134.977 60.6903 135.636C60.6903 136.311 60.7964 136.898 61.0085 137.398C61.2244 137.898 61.5275 138.286 61.9176 138.562C62.3116 138.839 62.7737 138.977 63.304 138.977C63.6525 138.977 63.9688 138.917 64.2528 138.795C64.5369 138.674 64.7775 138.5 64.9744 138.273C65.1714 138.045 65.3116 137.773 65.3949 137.455H66.7358C66.66 137.97 66.4725 138.434 66.1733 138.847C65.8778 139.256 65.4858 139.581 64.9972 139.824C64.5123 140.062 63.9479 140.182 63.304 140.182ZM70.0369 134.75V140H68.696V128.364H70.0369V132.636H70.1506C70.3551 132.186 70.6619 131.828 71.071 131.562C71.4839 131.294 72.0331 131.159 72.7188 131.159C73.3134 131.159 73.8343 131.278 74.2812 131.517C74.7282 131.752 75.0748 132.114 75.321 132.602C75.571 133.087 75.696 133.705 75.696 134.455V140H74.3551V134.545C74.3551 133.852 74.1752 133.316 73.8153 132.938C73.4593 132.555 72.965 132.364 72.3324 132.364C71.893 132.364 71.4991 132.456 71.1506 132.642C70.8059 132.828 70.5331 133.098 70.3324 133.455C70.1354 133.811 70.0369 134.242 70.0369 134.75ZM80.7173 140.205C80.1643 140.205 79.6624 140.1 79.2116 139.892C78.7609 139.68 78.4029 139.375 78.1378 138.977C77.8726 138.576 77.7401 138.091 77.7401 137.523C77.7401 137.023 77.8385 136.617 78.0355 136.307C78.2325 135.992 78.4957 135.746 78.8253 135.568C79.1548 135.39 79.5185 135.258 79.9162 135.17C80.3177 135.08 80.7211 135.008 81.1264 134.955C81.6567 134.886 82.0866 134.835 82.4162 134.801C82.7495 134.763 82.992 134.701 83.1435 134.614C83.2988 134.527 83.3764 134.375 83.3764 134.159V134.114C83.3764 133.553 83.223 133.117 82.9162 132.807C82.6132 132.496 82.1529 132.341 81.5355 132.341C80.8954 132.341 80.3935 132.481 80.0298 132.761C79.6662 133.042 79.4105 133.341 79.2628 133.659L77.9901 133.205C78.2173 132.674 78.5204 132.261 78.8991 131.966C79.2817 131.667 79.6984 131.458 80.1491 131.341C80.6037 131.22 81.0507 131.159 81.4901 131.159C81.7704 131.159 82.0923 131.193 82.456 131.261C82.8234 131.326 83.1776 131.46 83.5185 131.665C83.8632 131.869 84.1491 132.178 84.3764 132.591C84.6037 133.004 84.7173 133.557 84.7173 134.25V140H83.3764V138.818H83.3082C83.2173 139.008 83.0658 139.21 82.8537 139.426C82.6416 139.642 82.3594 139.826 82.0071 139.977C81.6548 140.129 81.2249 140.205 80.7173 140.205ZM80.9219 139C81.4522 139 81.8991 138.896 82.2628 138.688C82.6302 138.479 82.9067 138.21 83.0923 137.881C83.2817 137.551 83.3764 137.205 83.3764 136.841V135.614C83.3196 135.682 83.1946 135.744 83.0014 135.801C82.812 135.854 82.5923 135.902 82.3423 135.943C82.0961 135.981 81.8556 136.015 81.6207 136.045C81.3897 136.072 81.2022 136.095 81.0582 136.114C80.7098 136.159 80.384 136.233 80.081 136.335C79.7817 136.434 79.5393 136.583 79.3537 136.784C79.1719 136.981 79.081 137.25 79.081 137.591C79.081 138.057 79.2533 138.409 79.598 138.648C79.9465 138.883 80.3878 139 80.9219 139ZM87.1648 140V131.273H88.4602V132.636H88.5739C88.7557 132.17 89.0492 131.809 89.4545 131.551C89.8598 131.29 90.3466 131.159 90.9148 131.159C91.4905 131.159 91.9697 131.29 92.3523 131.551C92.7386 131.809 93.0398 132.17 93.2557 132.636H93.3466C93.5701 132.186 93.9053 131.828 94.3523 131.562C94.7992 131.294 95.3352 131.159 95.9602 131.159C96.7405 131.159 97.3788 131.403 97.875 131.892C98.3712 132.377 98.6193 133.133 98.6193 134.159V140H97.2784V134.159C97.2784 133.515 97.1023 133.055 96.75 132.778C96.3977 132.502 95.983 132.364 95.5057 132.364C94.892 132.364 94.4167 132.549 94.0795 132.92C93.7424 133.288 93.5739 133.754 93.5739 134.318V140H92.2102V134.023C92.2102 133.527 92.0492 133.127 91.7273 132.824C91.4053 132.517 90.9905 132.364 90.483 132.364C90.1345 132.364 89.8087 132.456 89.5057 132.642C89.2064 132.828 88.964 133.085 88.7784 133.415C88.5966 133.741 88.5057 134.117 88.5057 134.545V140H87.1648ZM113.707 132C113.582 131.617 113.418 131.275 113.213 130.972C113.012 130.665 112.772 130.403 112.491 130.188C112.215 129.972 111.901 129.807 111.548 129.693C111.196 129.58 110.81 129.523 110.389 129.523C109.7 129.523 109.073 129.701 108.509 130.057C107.944 130.413 107.495 130.938 107.162 131.631C106.829 132.324 106.662 133.174 106.662 134.182C106.662 135.189 106.83 136.04 107.168 136.733C107.505 137.426 107.961 137.951 108.537 138.307C109.113 138.663 109.76 138.841 110.48 138.841C111.147 138.841 111.734 138.699 112.241 138.415C112.753 138.127 113.151 137.722 113.435 137.199C113.723 136.672 113.866 136.053 113.866 135.341L114.298 135.432H110.798V134.182H115.23V135.432C115.23 136.39 115.026 137.223 114.616 137.932C114.211 138.64 113.651 139.189 112.935 139.58C112.223 139.966 111.404 140.159 110.48 140.159C109.45 140.159 108.545 139.917 107.764 139.432C106.988 138.947 106.382 138.258 105.946 137.364C105.514 136.47 105.298 135.409 105.298 134.182C105.298 133.261 105.421 132.434 105.668 131.699C105.918 130.96 106.27 130.331 106.724 129.812C107.179 129.294 107.717 128.896 108.338 128.619C108.959 128.343 109.643 128.205 110.389 128.205C111.003 128.205 111.575 128.297 112.105 128.483C112.639 128.665 113.115 128.924 113.531 129.261C113.952 129.595 114.302 129.994 114.582 130.46C114.863 130.922 115.056 131.436 115.162 132H113.707ZM117.462 140V131.273H118.757V132.591H118.848C119.007 132.159 119.295 131.809 119.712 131.54C120.128 131.271 120.598 131.136 121.121 131.136C121.219 131.136 121.342 131.138 121.49 131.142C121.638 131.146 121.75 131.152 121.825 131.159V132.523C121.78 132.511 121.676 132.494 121.513 132.472C121.354 132.445 121.185 132.432 121.007 132.432C120.583 132.432 120.204 132.521 119.871 132.699C119.541 132.873 119.28 133.116 119.087 133.426C118.897 133.733 118.803 134.083 118.803 134.477V140H117.462ZM125.983 140.205C125.43 140.205 124.928 140.1 124.477 139.892C124.027 139.68 123.669 139.375 123.403 138.977C123.138 138.576 123.006 138.091 123.006 137.523C123.006 137.023 123.104 136.617 123.301 136.307C123.498 135.992 123.761 135.746 124.091 135.568C124.42 135.39 124.784 135.258 125.182 135.17C125.583 135.08 125.987 135.008 126.392 134.955C126.922 134.886 127.352 134.835 127.682 134.801C128.015 134.763 128.258 134.701 128.409 134.614C128.564 134.527 128.642 134.375 128.642 134.159V134.114C128.642 133.553 128.489 133.117 128.182 132.807C127.879 132.496 127.419 132.341 126.801 132.341C126.161 132.341 125.659 132.481 125.295 132.761C124.932 133.042 124.676 133.341 124.528 133.659L123.256 133.205C123.483 132.674 123.786 132.261 124.165 131.966C124.547 131.667 124.964 131.458 125.415 131.341C125.869 131.22 126.316 131.159 126.756 131.159C127.036 131.159 127.358 131.193 127.722 131.261C128.089 131.326 128.443 131.46 128.784 131.665C129.129 131.869 129.415 132.178 129.642 132.591C129.869 133.004 129.983 133.557 129.983 134.25V140H128.642V138.818H128.574C128.483 139.008 128.331 139.21 128.119 139.426C127.907 139.642 127.625 139.826 127.273 139.977C126.92 140.129 126.491 140.205 125.983 140.205ZM126.188 139C126.718 139 127.165 138.896 127.528 138.688C127.896 138.479 128.172 138.21 128.358 137.881C128.547 137.551 128.642 137.205 128.642 136.841V135.614C128.585 135.682 128.46 135.744 128.267 135.801C128.078 135.854 127.858 135.902 127.608 135.943C127.362 135.981 127.121 136.015 126.886 136.045C126.655 136.072 126.468 136.095 126.324 136.114C125.975 136.159 125.65 136.233 125.347 136.335C125.047 136.434 124.805 136.583 124.619 136.784C124.438 136.981 124.347 137.25 124.347 137.591C124.347 138.057 124.519 138.409 124.864 138.648C125.212 138.883 125.653 139 126.188 139ZM132.43 140V131.273H133.726V132.636H133.839C134.021 132.17 134.315 131.809 134.72 131.551C135.125 131.29 135.612 131.159 136.18 131.159C136.756 131.159 137.235 131.29 137.618 131.551C138.004 131.809 138.305 132.17 138.521 132.636H138.612C138.836 132.186 139.171 131.828 139.618 131.562C140.065 131.294 140.601 131.159 141.226 131.159C142.006 131.159 142.644 131.403 143.141 131.892C143.637 132.377 143.885 133.133 143.885 134.159V140H142.544V134.159C142.544 133.515 142.368 133.055 142.016 132.778C141.663 132.502 141.249 132.364 140.771 132.364C140.158 132.364 139.682 132.549 139.345 132.92C139.008 133.288 138.839 133.754 138.839 134.318V140H137.476V134.023C137.476 133.527 137.315 133.127 136.993 132.824C136.671 132.517 136.256 132.364 135.749 132.364C135.4 132.364 135.074 132.456 134.771 132.642C134.472 132.828 134.23 133.085 134.044 133.415C133.862 133.741 133.771 134.117 133.771 134.545V140H132.43ZM146.337 140V131.273H147.632V132.636H147.746C147.928 132.17 148.221 131.809 148.626 131.551C149.032 131.29 149.518 131.159 150.087 131.159C150.662 131.159 151.142 131.29 151.524 131.551C151.911 131.809 152.212 132.17 152.428 132.636H152.518C152.742 132.186 153.077 131.828 153.524 131.562C153.971 131.294 154.507 131.159 155.132 131.159C155.912 131.159 156.551 131.403 157.047 131.892C157.543 132.377 157.791 133.133 157.791 134.159V140H156.45V134.159C156.45 133.515 156.274 133.055 155.922 132.778C155.57 132.502 155.155 132.364 154.678 132.364C154.064 132.364 153.589 132.549 153.251 132.92C152.914 133.288 152.746 133.754 152.746 134.318V140H151.382V134.023C151.382 133.527 151.221 133.127 150.899 132.824C150.577 132.517 150.162 132.364 149.655 132.364C149.306 132.364 148.981 132.456 148.678 132.642C148.378 132.828 148.136 133.085 147.95 133.415C147.768 133.741 147.678 134.117 147.678 134.545V140H146.337ZM162.811 140.205C162.258 140.205 161.756 140.1 161.305 139.892C160.855 139.68 160.497 139.375 160.232 138.977C159.966 138.576 159.834 138.091 159.834 137.523C159.834 137.023 159.932 136.617 160.129 136.307C160.326 135.992 160.589 135.746 160.919 135.568C161.249 135.39 161.612 135.258 162.01 135.17C162.411 135.08 162.815 135.008 163.22 134.955C163.75 134.886 164.18 134.835 164.51 134.801C164.843 134.763 165.086 134.701 165.237 134.614C165.393 134.527 165.47 134.375 165.47 134.159V134.114C165.47 133.553 165.317 133.117 165.01 132.807C164.707 132.496 164.247 132.341 163.629 132.341C162.989 132.341 162.487 132.481 162.124 132.761C161.76 133.042 161.504 133.341 161.357 133.659L160.084 133.205C160.311 132.674 160.614 132.261 160.993 131.966C161.375 131.667 161.792 131.458 162.243 131.341C162.697 131.22 163.144 131.159 163.584 131.159C163.864 131.159 164.186 131.193 164.55 131.261C164.917 131.326 165.271 131.46 165.612 131.665C165.957 131.869 166.243 132.178 166.47 132.591C166.697 133.004 166.811 133.557 166.811 134.25V140H165.47V138.818H165.402C165.311 139.008 165.16 139.21 164.947 139.426C164.735 139.642 164.453 139.826 164.101 139.977C163.749 140.129 163.319 140.205 162.811 140.205ZM163.016 139C163.546 139 163.993 138.896 164.357 138.688C164.724 138.479 165 138.21 165.186 137.881C165.375 137.551 165.47 137.205 165.47 136.841V135.614C165.413 135.682 165.288 135.744 165.095 135.801C164.906 135.854 164.686 135.902 164.436 135.943C164.19 135.981 163.949 136.015 163.714 136.045C163.483 136.072 163.296 136.095 163.152 136.114C162.804 136.159 162.478 136.233 162.175 136.335C161.875 136.434 161.633 136.583 161.447 136.784C161.266 136.981 161.175 137.25 161.175 137.591C161.175 138.057 161.347 138.409 161.692 138.648C162.04 138.883 162.482 139 163.016 139ZM169.259 140V131.273H170.554V132.591H170.645C170.804 132.159 171.092 131.809 171.509 131.54C171.925 131.271 172.395 131.136 172.918 131.136C173.016 131.136 173.139 131.138 173.287 131.142C173.435 131.146 173.546 131.152 173.622 131.159V132.523C173.577 132.511 173.473 132.494 173.31 132.472C173.151 132.445 172.982 132.432 172.804 132.432C172.38 132.432 172.001 132.521 171.668 132.699C171.338 132.873 171.077 133.116 170.884 133.426C170.694 133.733 170.599 134.083 170.599 134.477V140H169.259ZM186.257 131.273C186.189 130.697 185.912 130.25 185.428 129.932C184.943 129.614 184.348 129.455 183.643 129.455C183.128 129.455 182.678 129.538 182.291 129.705C181.909 129.871 181.609 130.1 181.393 130.392C181.181 130.684 181.075 131.015 181.075 131.386C181.075 131.697 181.149 131.964 181.297 132.188C181.448 132.407 181.642 132.591 181.876 132.739C182.111 132.883 182.357 133.002 182.615 133.097C182.873 133.187 183.109 133.261 183.325 133.318L184.507 133.636C184.81 133.716 185.147 133.826 185.518 133.966C185.893 134.106 186.251 134.297 186.592 134.54C186.937 134.778 187.221 135.085 187.445 135.46C187.668 135.835 187.78 136.295 187.78 136.841C187.78 137.47 187.615 138.038 187.286 138.545C186.96 139.053 186.482 139.456 185.854 139.756C185.229 140.055 184.469 140.205 183.575 140.205C182.742 140.205 182.02 140.07 181.411 139.801C180.804 139.532 180.327 139.157 179.979 138.676C179.634 138.195 179.439 137.636 179.393 137H180.848C180.886 137.439 181.034 137.803 181.291 138.091C181.553 138.375 181.882 138.587 182.28 138.727C182.681 138.864 183.113 138.932 183.575 138.932C184.113 138.932 184.596 138.845 185.024 138.67C185.452 138.492 185.791 138.246 186.041 137.932C186.291 137.614 186.416 137.242 186.416 136.818C186.416 136.432 186.308 136.117 186.092 135.875C185.876 135.633 185.592 135.436 185.24 135.284C184.888 135.133 184.507 135 184.098 134.886L182.666 134.477C181.757 134.216 181.037 133.843 180.507 133.358C179.977 132.873 179.712 132.239 179.712 131.455C179.712 130.803 179.888 130.235 180.24 129.75C180.596 129.261 181.073 128.883 181.672 128.614C182.274 128.341 182.946 128.205 183.689 128.205C184.439 128.205 185.106 128.339 185.689 128.608C186.272 128.873 186.734 129.237 187.075 129.699C187.42 130.161 187.602 130.686 187.621 131.273H186.257ZM193.46 140.182C192.642 140.182 191.938 139.989 191.347 139.602C190.756 139.216 190.301 138.684 189.983 138.006C189.665 137.328 189.506 136.553 189.506 135.682C189.506 134.795 189.669 134.013 189.994 133.335C190.324 132.653 190.782 132.121 191.369 131.739C191.96 131.352 192.65 131.159 193.438 131.159C194.051 131.159 194.604 131.273 195.097 131.5C195.589 131.727 195.992 132.045 196.307 132.455C196.621 132.864 196.816 133.341 196.892 133.886H195.551C195.449 133.489 195.222 133.136 194.869 132.83C194.521 132.519 194.051 132.364 193.46 132.364C192.938 132.364 192.479 132.5 192.085 132.773C191.695 133.042 191.39 133.422 191.17 133.915C190.955 134.403 190.847 134.977 190.847 135.636C190.847 136.311 190.953 136.898 191.165 137.398C191.381 137.898 191.684 138.286 192.074 138.562C192.468 138.839 192.93 138.977 193.46 138.977C193.809 138.977 194.125 138.917 194.409 138.795C194.693 138.674 194.934 138.5 195.131 138.273C195.328 138.045 195.468 137.773 195.551 137.455H196.892C196.816 137.97 196.629 138.434 196.33 138.847C196.034 139.256 195.642 139.581 195.153 139.824C194.669 140.062 194.104 140.182 193.46 140.182ZM200.193 134.75V140H198.852V128.364H200.193V132.636H200.307C200.511 132.186 200.818 131.828 201.227 131.562C201.64 131.294 202.189 131.159 202.875 131.159C203.47 131.159 203.991 131.278 204.438 131.517C204.884 131.752 205.231 132.114 205.477 132.602C205.727 133.087 205.852 133.705 205.852 134.455V140H204.511V134.545C204.511 133.852 204.331 133.316 203.972 132.938C203.616 132.555 203.121 132.364 202.489 132.364C202.049 132.364 201.655 132.456 201.307 132.642C200.962 132.828 200.689 133.098 200.489 133.455C200.292 133.811 200.193 134.242 200.193 134.75ZM211.851 140.182C211.063 140.182 210.372 139.994 209.777 139.619C209.186 139.244 208.724 138.72 208.391 138.045C208.061 137.371 207.896 136.583 207.896 135.682C207.896 134.773 208.061 133.979 208.391 133.301C208.724 132.623 209.186 132.097 209.777 131.722C210.372 131.347 211.063 131.159 211.851 131.159C212.639 131.159 213.328 131.347 213.919 131.722C214.514 132.097 214.976 132.623 215.305 133.301C215.639 133.979 215.805 134.773 215.805 135.682C215.805 136.583 215.639 137.371 215.305 138.045C214.976 138.72 214.514 139.244 213.919 139.619C213.328 139.994 212.639 140.182 211.851 140.182ZM211.851 138.977C212.449 138.977 212.942 138.824 213.328 138.517C213.714 138.21 214 137.807 214.186 137.307C214.372 136.807 214.464 136.265 214.464 135.682C214.464 135.098 214.372 134.555 214.186 134.051C214 133.547 213.714 133.14 213.328 132.83C212.942 132.519 212.449 132.364 211.851 132.364C211.252 132.364 210.76 132.519 210.374 132.83C209.987 133.14 209.701 133.547 209.516 134.051C209.33 134.555 209.237 135.098 209.237 135.682C209.237 136.265 209.33 136.807 209.516 137.307C209.701 137.807 209.987 138.21 210.374 138.517C210.76 138.824 211.252 138.977 211.851 138.977ZM221.398 140.182C220.61 140.182 219.919 139.994 219.324 139.619C218.733 139.244 218.271 138.72 217.938 138.045C217.608 137.371 217.443 136.583 217.443 135.682C217.443 134.773 217.608 133.979 217.938 133.301C218.271 132.623 218.733 132.097 219.324 131.722C219.919 131.347 220.61 131.159 221.398 131.159C222.186 131.159 222.875 131.347 223.466 131.722C224.061 132.097 224.523 132.623 224.852 133.301C225.186 133.979 225.352 134.773 225.352 135.682C225.352 136.583 225.186 137.371 224.852 138.045C224.523 138.72 224.061 139.244 223.466 139.619C222.875 139.994 222.186 140.182 221.398 140.182ZM221.398 138.977C221.996 138.977 222.489 138.824 222.875 138.517C223.261 138.21 223.547 137.807 223.733 137.307C223.919 136.807 224.011 136.265 224.011 135.682C224.011 135.098 223.919 134.555 223.733 134.051C223.547 133.547 223.261 133.14 222.875 132.83C222.489 132.519 221.996 132.364 221.398 132.364C220.799 132.364 220.307 132.519 219.92 132.83C219.534 133.14 219.248 133.547 219.062 134.051C218.877 134.555 218.784 135.098 218.784 135.682C218.784 136.265 218.877 136.807 219.062 137.307C219.248 137.807 219.534 138.21 219.92 138.517C220.307 138.824 220.799 138.977 221.398 138.977ZM228.74 128.364V140H227.399V128.364H228.74ZM239.582 131.273V132.409H234.878V131.273H239.582ZM236.287 140V130.068C236.287 129.568 236.404 129.152 236.639 128.818C236.874 128.485 237.179 128.235 237.554 128.068C237.929 127.902 238.325 127.818 238.741 127.818C239.071 127.818 239.34 127.845 239.548 127.898C239.757 127.951 239.912 128 240.014 128.045L239.628 129.205C239.56 129.182 239.465 129.153 239.344 129.119C239.226 129.085 239.071 129.068 238.878 129.068C238.435 129.068 238.115 129.18 237.918 129.403C237.724 129.627 237.628 129.955 237.628 130.386V140H236.287ZM244.648 140.182C243.86 140.182 243.169 139.994 242.574 139.619C241.983 139.244 241.521 138.72 241.188 138.045C240.858 137.371 240.693 136.583 240.693 135.682C240.693 134.773 240.858 133.979 241.188 133.301C241.521 132.623 241.983 132.097 242.574 131.722C243.169 131.347 243.86 131.159 244.648 131.159C245.436 131.159 246.125 131.347 246.716 131.722C247.311 132.097 247.773 132.623 248.102 133.301C248.436 133.979 248.602 134.773 248.602 135.682C248.602 136.583 248.436 137.371 248.102 138.045C247.773 138.72 247.311 139.244 246.716 139.619C246.125 139.994 245.436 140.182 244.648 140.182ZM244.648 138.977C245.246 138.977 245.739 138.824 246.125 138.517C246.511 138.21 246.797 137.807 246.983 137.307C247.169 136.807 247.261 136.265 247.261 135.682C247.261 135.098 247.169 134.555 246.983 134.051C246.797 133.547 246.511 133.14 246.125 132.83C245.739 132.519 245.246 132.364 244.648 132.364C244.049 132.364 243.557 132.519 243.17 132.83C242.784 133.14 242.498 133.547 242.312 134.051C242.127 134.555 242.034 135.098 242.034 135.682C242.034 136.265 242.127 136.807 242.312 137.307C242.498 137.807 242.784 138.21 243.17 138.517C243.557 138.824 244.049 138.977 244.648 138.977ZM250.649 140V131.273H251.945V132.591H252.036C252.195 132.159 252.482 131.809 252.899 131.54C253.316 131.271 253.786 131.136 254.308 131.136C254.407 131.136 254.53 131.138 254.678 131.142C254.825 131.146 254.937 131.152 255.013 131.159V132.523C254.967 132.511 254.863 132.494 254.7 132.472C254.541 132.445 254.373 132.432 254.195 132.432C253.77 132.432 253.392 132.521 253.058 132.699C252.729 132.873 252.467 133.116 252.274 133.426C252.085 133.733 251.99 134.083 251.99 134.477V140H250.649ZM269.239 132C269.114 131.617 268.949 131.275 268.744 130.972C268.544 130.665 268.303 130.403 268.023 130.188C267.746 129.972 267.432 129.807 267.08 129.693C266.727 129.58 266.341 129.523 265.92 129.523C265.231 129.523 264.604 129.701 264.04 130.057C263.475 130.413 263.027 130.938 262.693 131.631C262.36 132.324 262.193 133.174 262.193 134.182C262.193 135.189 262.362 136.04 262.699 136.733C263.036 137.426 263.492 137.951 264.068 138.307C264.644 138.663 265.292 138.841 266.011 138.841C266.678 138.841 267.265 138.699 267.773 138.415C268.284 138.127 268.682 137.722 268.966 137.199C269.254 136.672 269.398 136.053 269.398 135.341L269.83 135.432H266.33V134.182H270.761V135.432C270.761 136.39 270.557 137.223 270.148 137.932C269.742 138.64 269.182 139.189 268.466 139.58C267.754 139.966 266.936 140.159 266.011 140.159C264.981 140.159 264.076 139.917 263.295 139.432C262.519 138.947 261.913 138.258 261.477 137.364C261.045 136.47 260.83 135.409 260.83 134.182C260.83 133.261 260.953 132.434 261.199 131.699C261.449 130.96 261.801 130.331 262.256 129.812C262.71 129.294 263.248 128.896 263.869 128.619C264.491 128.343 265.174 128.205 265.92 128.205C266.534 128.205 267.106 128.297 267.636 128.483C268.17 128.665 268.646 128.924 269.062 129.261C269.483 129.595 269.833 129.994 270.114 130.46C270.394 130.922 270.587 131.436 270.693 132H269.239ZM273.54 140V131.273H274.881V140H273.54ZM274.222 129.818C273.96 129.818 273.735 129.729 273.545 129.551C273.36 129.373 273.267 129.159 273.267 128.909C273.267 128.659 273.36 128.445 273.545 128.267C273.735 128.089 273.96 128 274.222 128C274.483 128 274.706 128.089 274.892 128.267C275.081 128.445 275.176 128.659 275.176 128.909C275.176 129.159 275.081 129.373 274.892 129.551C274.706 129.729 274.483 129.818 274.222 129.818ZM277.337 140V131.273H278.632V132.591H278.723C278.882 132.159 279.17 131.809 279.587 131.54C280.003 131.271 280.473 131.136 280.996 131.136C281.094 131.136 281.217 131.138 281.365 131.142C281.513 131.146 281.625 131.152 281.7 131.159V132.523C281.655 132.511 281.551 132.494 281.388 132.472C281.229 132.445 281.06 132.432 280.882 132.432C280.458 132.432 280.079 132.521 279.746 132.699C279.416 132.873 279.155 133.116 278.962 133.426C278.772 133.733 278.678 134.083 278.678 134.477V140H277.337ZM284.631 128.364V140H283.29V128.364H284.631ZM293.268 133.227L292.064 133.568C291.988 133.367 291.876 133.172 291.729 132.983C291.585 132.79 291.388 132.631 291.138 132.506C290.888 132.381 290.568 132.318 290.178 132.318C289.643 132.318 289.198 132.441 288.842 132.688C288.49 132.93 288.314 133.239 288.314 133.614C288.314 133.947 288.435 134.21 288.678 134.403C288.92 134.597 289.299 134.758 289.814 134.886L291.109 135.205C291.89 135.394 292.471 135.684 292.854 136.074C293.236 136.46 293.428 136.958 293.428 137.568C293.428 138.068 293.284 138.515 292.996 138.909C292.712 139.303 292.314 139.614 291.803 139.841C291.291 140.068 290.696 140.182 290.018 140.182C289.128 140.182 288.392 139.989 287.808 139.602C287.225 139.216 286.856 138.652 286.7 137.909L287.973 137.591C288.094 138.061 288.323 138.413 288.661 138.648C289.001 138.883 289.446 139 289.996 139C290.621 139 291.117 138.867 291.484 138.602C291.856 138.333 292.041 138.011 292.041 137.636C292.041 137.333 291.935 137.08 291.723 136.875C291.511 136.667 291.185 136.511 290.746 136.409L289.291 136.068C288.492 135.879 287.905 135.585 287.53 135.188C287.159 134.786 286.973 134.284 286.973 133.682C286.973 133.189 287.111 132.754 287.388 132.375C287.668 131.996 288.049 131.699 288.53 131.483C289.015 131.267 289.564 131.159 290.178 131.159C291.041 131.159 291.719 131.348 292.212 131.727C292.708 132.106 293.06 132.606 293.268 133.227Z" fill="#333333"/>
<rect x="19.5" y="158.5" width="158" height="32" rx="3.5" fill="white"/>
<path d="M40.3068 168.818V179H39.1136L33.5653 171.006H33.4659V179H32.233V168.818H33.4261L38.9943 176.832H39.0938V168.818H40.3068ZM45.8166 179.159C45.0808 179.159 44.4461 178.997 43.9125 178.672C43.3822 178.344 42.9728 177.886 42.6845 177.3C42.3994 176.71 42.2569 176.024 42.2569 175.241C42.2569 174.459 42.3994 173.77 42.6845 173.173C42.9728 172.573 43.3739 172.106 43.8876 171.771C44.4047 171.433 45.0079 171.264 45.6973 171.264C46.095 171.264 46.4877 171.33 46.8755 171.463C47.2633 171.596 47.6163 171.811 47.9345 172.109C48.2527 172.404 48.5062 172.795 48.6951 173.283C48.8841 173.77 48.9785 174.37 48.9785 175.082V175.58H43.0922V174.565H47.7853C47.7853 174.134 47.6992 173.75 47.5268 173.412C47.3578 173.074 47.1158 172.807 46.801 172.612C46.4894 172.416 46.1215 172.318 45.6973 172.318C45.2299 172.318 44.8256 172.434 44.4842 172.666C44.1461 172.895 43.8859 173.193 43.7037 173.561C43.5214 173.929 43.4302 174.323 43.4302 174.744V175.42C43.4302 175.997 43.5297 176.486 43.7285 176.887C43.9307 177.285 44.2108 177.588 44.5687 177.797C44.9267 178.002 45.3426 178.105 45.8166 178.105C46.1248 178.105 46.4032 178.062 46.6518 177.976C46.9037 177.886 47.1208 177.754 47.3031 177.578C47.4854 177.399 47.6262 177.177 47.7257 176.912L48.8592 177.23C48.7399 177.615 48.5394 177.953 48.2576 178.244C47.9759 178.533 47.6279 178.758 47.2136 178.92C46.7993 179.08 46.3336 179.159 45.8166 179.159ZM52.4934 179L50.1667 171.364H51.3997L53.0502 177.21H53.1298L54.7605 171.364H56.0133L57.6241 177.19H57.7037L59.3542 171.364H60.5872L58.2605 179H57.1071L55.4366 173.134H55.3173L53.6468 179H52.4934ZM71.4849 173.074L70.4309 173.372C70.3646 173.196 70.2669 173.026 70.1376 172.86C70.0117 172.691 69.8393 172.552 69.6206 172.442C69.4018 172.333 69.1217 172.278 68.7804 172.278C68.313 172.278 67.9236 172.386 67.612 172.602C67.3038 172.814 67.1497 173.084 67.1497 173.412C67.1497 173.704 67.2557 173.934 67.4679 174.103C67.68 174.272 68.0114 174.413 68.4622 174.526L69.5957 174.804C70.2785 174.97 70.7872 175.223 71.122 175.565C71.4567 175.903 71.6241 176.339 71.6241 176.872C71.6241 177.31 71.4982 177.701 71.2463 178.045C70.9977 178.39 70.6497 178.662 70.2022 178.861C69.7548 179.06 69.2344 179.159 68.6412 179.159C67.8623 179.159 67.2176 178.99 66.7072 178.652C66.1968 178.314 65.8736 177.82 65.7377 177.17L66.8514 176.892C66.9574 177.303 67.158 177.611 67.4529 177.817C67.7512 178.022 68.1407 178.125 68.6213 178.125C69.1681 178.125 69.6023 178.009 69.9238 177.777C70.2486 177.542 70.411 177.26 70.411 176.932C70.411 176.667 70.3182 176.445 70.1326 176.266C69.947 176.083 69.662 175.947 69.2775 175.858L68.0048 175.56C67.3055 175.394 66.7917 175.137 66.4636 174.789C66.1388 174.438 65.9764 173.999 65.9764 173.472C65.9764 173.041 66.0974 172.66 66.3393 172.328C66.5846 171.997 66.9177 171.737 67.3386 171.548C67.7628 171.359 68.2434 171.264 68.7804 171.264C69.536 171.264 70.1293 171.43 70.5602 171.761C70.9944 172.093 71.3026 172.53 71.4849 173.074ZM76.4925 179.159C75.7766 179.159 75.1602 178.99 74.6431 178.652C74.1261 178.314 73.7283 177.848 73.4499 177.255C73.1715 176.662 73.0323 175.984 73.0323 175.222C73.0323 174.446 73.1748 173.762 73.4599 173.168C73.7482 172.572 74.1493 172.106 74.663 171.771C75.18 171.433 75.7833 171.264 76.4727 171.264C77.0096 171.264 77.4935 171.364 77.9244 171.562C78.3552 171.761 78.7082 172.04 78.9833 172.398C79.2584 172.756 79.4291 173.173 79.4954 173.651H78.3221C78.2326 173.303 78.0337 172.994 77.7255 172.726C77.4206 172.454 77.0096 172.318 76.4925 172.318C76.0352 172.318 75.6341 172.437 75.2894 172.676C74.948 172.911 74.6812 173.245 74.489 173.675C74.3001 174.103 74.2056 174.605 74.2056 175.182C74.2056 175.772 74.2984 176.286 74.484 176.723C74.6729 177.161 74.9381 177.5 75.2795 177.742C75.6242 177.984 76.0285 178.105 76.4925 178.105C76.7975 178.105 77.0742 178.052 77.3228 177.946C77.5714 177.84 77.7818 177.688 77.9542 177.489C78.1265 177.29 78.2492 177.051 78.3221 176.773H79.4954C79.4291 177.223 79.265 177.629 79.0032 177.991C78.7447 178.349 78.4016 178.634 77.9741 178.846C77.5498 179.055 77.056 179.159 76.4925 179.159ZM82.3839 174.406V179H81.2106V168.818H82.3839V172.557H82.4833C82.6623 172.162 82.9308 171.849 83.2887 171.617C83.65 171.382 84.1306 171.264 84.7305 171.264C85.2508 171.264 85.7066 171.369 86.0977 171.577C86.4888 171.783 86.792 172.099 87.0075 172.527C87.2262 172.951 87.3356 173.491 87.3356 174.148V179H86.1623V174.227C86.1623 173.621 86.0049 173.152 85.69 172.82C85.3784 172.486 84.9459 172.318 84.3924 172.318C84.0079 172.318 83.6632 172.399 83.3583 172.562C83.0567 172.724 82.8181 172.961 82.6424 173.273C82.4701 173.584 82.3839 173.962 82.3839 174.406ZM92.5843 179.159C91.8949 179.159 91.2901 178.995 90.7697 178.667C90.2527 178.339 89.8483 177.88 89.5566 177.29C89.2683 176.7 89.1241 176.01 89.1241 175.222C89.1241 174.426 89.2683 173.732 89.5566 173.138C89.8483 172.545 90.2527 172.085 90.7697 171.756C91.2901 171.428 91.8949 171.264 92.5843 171.264C93.2737 171.264 93.877 171.428 94.394 171.756C94.9144 172.085 95.3187 172.545 95.6071 173.138C95.8987 173.732 96.0446 174.426 96.0446 175.222C96.0446 176.01 95.8987 176.7 95.6071 177.29C95.3187 177.88 94.9144 178.339 94.394 178.667C93.877 178.995 93.2737 179.159 92.5843 179.159ZM92.5843 178.105C93.108 178.105 93.5389 177.971 93.877 177.702C94.215 177.434 94.4653 177.081 94.6277 176.643C94.7901 176.206 94.8713 175.732 94.8713 175.222C94.8713 174.711 94.7901 174.236 94.6277 173.795C94.4653 173.354 94.215 172.998 93.877 172.726C93.5389 172.454 93.108 172.318 92.5843 172.318C92.0607 172.318 91.6298 172.454 91.2917 172.726C90.9537 172.998 90.7034 173.354 90.541 173.795C90.3786 174.236 90.2974 174.711 90.2974 175.222C90.2974 175.732 90.3786 176.206 90.541 176.643C90.7034 177.081 90.9537 177.434 91.2917 177.702C91.6298 177.971 92.0607 178.105 92.5843 178.105ZM100.938 179.159C100.248 179.159 99.6436 178.995 99.1232 178.667C98.6062 178.339 98.2018 177.88 97.9102 177.29C97.6218 176.7 97.4776 176.01 97.4776 175.222C97.4776 174.426 97.6218 173.732 97.9102 173.138C98.2018 172.545 98.6062 172.085 99.1232 171.756C99.6436 171.428 100.248 171.264 100.938 171.264C101.627 171.264 102.23 171.428 102.748 171.756C103.268 172.085 103.672 172.545 103.961 173.138C104.252 173.732 104.398 174.426 104.398 175.222C104.398 176.01 104.252 176.7 103.961 177.29C103.672 177.88 103.268 178.339 102.748 178.667C102.23 178.995 101.627 179.159 100.938 179.159ZM100.938 178.105C101.462 178.105 101.892 177.971 102.23 177.702C102.569 177.434 102.819 177.081 102.981 176.643C103.144 176.206 103.225 175.732 103.225 175.222C103.225 174.711 103.144 174.236 102.981 173.795C102.819 173.354 102.569 172.998 102.23 172.726C101.892 172.454 101.462 172.318 100.938 172.318C100.414 172.318 99.9833 172.454 99.6452 172.726C99.3072 172.998 99.0569 173.354 98.8945 173.795C98.7321 174.236 98.6509 174.711 98.6509 175.222C98.6509 175.732 98.7321 176.206 98.8945 176.643C99.0569 177.081 99.3072 177.434 99.6452 177.702C99.9833 177.971 100.414 178.105 100.938 178.105ZM107.362 168.818V179H106.189V168.818H107.362Z" fill="#757575"/>
<rect x="19.5" y="158.5" width="158" height="32" rx="3.5" stroke="#545454"/>
<rect x="186" y="158" width="160" height="32" rx="4" fill="#0F67F5"/>
<path d="M212.674 178.5H210.705L214.29 168.318H216.567L220.156 178.5H218.188L215.468 170.406H215.389L212.674 178.5ZM212.739 174.508H218.108V175.989H212.739V174.508ZM224.019 178.634C223.419 178.634 222.882 178.48 222.408 178.172C221.935 177.864 221.56 177.416 221.285 176.83C221.01 176.243 220.872 175.53 220.872 174.692C220.872 173.843 221.011 173.127 221.29 172.544C221.572 171.957 221.951 171.515 222.428 171.217C222.906 170.915 223.438 170.764 224.024 170.764C224.472 170.764 224.84 170.84 225.128 170.993C225.416 171.142 225.645 171.323 225.814 171.535C225.983 171.744 226.114 171.941 226.207 172.126H226.281V168.318H228.086V178.5H226.316V177.297H226.207C226.114 177.482 225.98 177.68 225.804 177.888C225.628 178.094 225.396 178.27 225.108 178.415C224.82 178.561 224.457 178.634 224.019 178.634ZM224.521 177.158C224.903 177.158 225.227 177.055 225.496 176.849C225.764 176.641 225.968 176.351 226.107 175.979C226.247 175.608 226.316 175.176 226.316 174.682C226.316 174.188 226.247 173.759 226.107 173.394C225.971 173.03 225.769 172.746 225.501 172.544C225.236 172.342 224.909 172.241 224.521 172.241C224.12 172.241 223.786 172.345 223.517 172.554C223.249 172.763 223.046 173.051 222.911 173.419C222.775 173.787 222.707 174.208 222.707 174.682C222.707 175.159 222.775 175.585 222.911 175.96C223.05 176.331 223.254 176.624 223.522 176.839C223.794 177.052 224.127 177.158 224.521 177.158ZM232.838 178.634C232.238 178.634 231.701 178.48 231.227 178.172C230.753 177.864 230.378 177.416 230.103 176.83C229.828 176.243 229.691 175.53 229.691 174.692C229.691 173.843 229.83 173.127 230.108 172.544C230.39 171.957 230.769 171.515 231.247 171.217C231.724 170.915 232.256 170.764 232.843 170.764C233.29 170.764 233.658 170.84 233.946 170.993C234.235 171.142 234.463 171.323 234.632 171.535C234.801 171.744 234.932 171.941 235.025 172.126H235.1V168.318H236.904V178.5H235.134V177.297H235.025C234.932 177.482 234.798 177.68 234.622 177.888C234.447 178.094 234.215 178.27 233.926 178.415C233.638 178.561 233.275 178.634 232.838 178.634ZM233.34 177.158C233.721 177.158 234.046 177.055 234.314 176.849C234.583 176.641 234.786 176.351 234.926 175.979C235.065 175.608 235.134 175.176 235.134 174.682C235.134 174.188 235.065 173.759 234.926 173.394C234.79 173.03 234.588 172.746 234.319 172.544C234.054 172.342 233.728 172.241 233.34 172.241C232.939 172.241 232.604 172.345 232.335 172.554C232.067 172.763 231.865 173.051 231.729 173.419C231.593 173.787 231.525 174.208 231.525 174.682C231.525 175.159 231.593 175.585 231.729 175.96C231.868 176.331 232.072 176.624 232.34 176.839C232.612 177.052 232.945 177.158 233.34 177.158ZM250.742 168.318V178.5H249.101L244.303 171.565H244.219V178.5H242.374V168.318H244.025L248.818 175.259H248.907V168.318H250.742ZM256.052 178.649C255.287 178.649 254.626 178.49 254.069 178.172C253.515 177.85 253.089 177.396 252.791 176.81C252.493 176.22 252.344 175.525 252.344 174.727C252.344 173.941 252.493 173.252 252.791 172.658C253.093 172.062 253.514 171.598 254.054 171.266C254.594 170.932 255.229 170.764 255.958 170.764C256.429 170.764 256.873 170.84 257.29 170.993C257.711 171.142 258.083 171.374 258.404 171.689C258.729 172.004 258.984 172.405 259.17 172.892C259.355 173.376 259.448 173.953 259.448 174.622V175.174H253.189V173.961H257.723C257.72 173.616 257.645 173.31 257.499 173.041C257.353 172.769 257.15 172.556 256.888 172.4C256.629 172.244 256.328 172.166 255.983 172.166C255.615 172.166 255.292 172.256 255.013 172.435C254.735 172.61 254.518 172.842 254.362 173.131C254.21 173.416 254.132 173.729 254.128 174.07V175.129C254.128 175.573 254.21 175.955 254.372 176.273C254.534 176.588 254.762 176.83 255.053 176.999C255.345 177.164 255.686 177.247 256.077 177.247C256.339 177.247 256.576 177.211 256.788 177.138C257 177.062 257.184 176.951 257.34 176.805C257.496 176.659 257.614 176.478 257.693 176.263L259.373 176.452C259.267 176.896 259.065 177.284 258.767 177.615C258.472 177.943 258.094 178.198 257.633 178.381C257.173 178.56 256.646 178.649 256.052 178.649ZM262.506 178.5L260.348 170.864H262.182L263.525 176.233H263.594L264.967 170.864H266.781L268.153 176.203H268.228L269.55 170.864H271.39L269.227 178.5H267.353L265.921 173.339H265.817L264.385 178.5H262.506ZM281.732 171.117C281.686 170.683 281.49 170.345 281.145 170.103C280.804 169.861 280.36 169.74 279.813 169.74C279.428 169.74 279.099 169.798 278.824 169.914C278.549 170.03 278.338 170.187 278.192 170.386C278.046 170.585 277.972 170.812 277.968 171.067C277.968 171.28 278.017 171.464 278.113 171.619C278.212 171.775 278.346 171.908 278.515 172.017C278.684 172.123 278.872 172.213 279.077 172.286C279.283 172.358 279.49 172.42 279.699 172.469L280.653 172.708C281.038 172.798 281.407 172.919 281.762 173.071C282.12 173.223 282.44 173.416 282.721 173.648C283.006 173.88 283.232 174.16 283.397 174.488C283.563 174.816 283.646 175.201 283.646 175.641C283.646 176.238 283.494 176.763 283.189 177.217C282.884 177.668 282.443 178.021 281.866 178.276C281.293 178.528 280.598 178.654 279.783 178.654C278.991 178.654 278.303 178.531 277.72 178.286C277.14 178.041 276.686 177.683 276.358 177.212C276.033 176.742 275.857 176.168 275.831 175.492H277.645C277.672 175.847 277.781 176.142 277.973 176.377C278.166 176.612 278.416 176.788 278.724 176.904C279.036 177.02 279.384 177.078 279.768 177.078C280.169 177.078 280.521 177.018 280.822 176.899C281.127 176.777 281.366 176.607 281.538 176.392C281.71 176.173 281.798 175.918 281.802 175.626C281.798 175.361 281.72 175.143 281.568 174.97C281.415 174.795 281.202 174.649 280.927 174.533C280.655 174.413 280.337 174.307 279.972 174.214L278.814 173.916C277.975 173.701 277.312 173.374 276.825 172.937C276.341 172.496 276.099 171.911 276.099 171.182C276.099 170.582 276.262 170.057 276.586 169.606C276.915 169.155 277.36 168.805 277.924 168.557C278.487 168.305 279.125 168.179 279.838 168.179C280.56 168.179 281.193 168.305 281.737 168.557C282.284 168.805 282.713 169.152 283.025 169.596C283.336 170.037 283.497 170.544 283.507 171.117H281.732ZM288.542 178.649C287.78 178.649 287.125 178.482 286.578 178.147C286.034 177.812 285.615 177.35 285.32 176.76C285.029 176.167 284.883 175.484 284.883 174.712C284.883 173.936 285.032 173.252 285.33 172.658C285.628 172.062 286.049 171.598 286.593 171.266C287.14 170.932 287.786 170.764 288.532 170.764C289.152 170.764 289.7 170.879 290.177 171.107C290.658 171.333 291.041 171.652 291.326 172.067C291.611 172.478 291.773 172.958 291.813 173.509H290.093C290.023 173.141 289.858 172.834 289.596 172.589C289.337 172.34 288.991 172.216 288.557 172.216C288.189 172.216 287.866 172.315 287.587 172.514C287.309 172.71 287.092 172.991 286.936 173.359C286.784 173.727 286.707 174.168 286.707 174.682C286.707 175.202 286.784 175.65 286.936 176.024C287.088 176.395 287.302 176.682 287.577 176.884C287.856 177.083 288.182 177.183 288.557 177.183C288.822 177.183 289.059 177.133 289.268 177.033C289.48 176.931 289.657 176.783 289.8 176.591C289.942 176.399 290.04 176.165 290.093 175.89H291.813C291.77 176.43 291.611 176.909 291.336 177.327C291.061 177.741 290.686 178.066 290.212 178.301C289.738 178.533 289.181 178.649 288.542 178.649ZM295.091 174.026V178.5H293.291V168.318H295.051V172.161H295.14C295.319 171.73 295.596 171.391 295.971 171.142C296.348 170.89 296.829 170.764 297.412 170.764C297.943 170.764 298.405 170.875 298.799 171.097C299.194 171.319 299.499 171.644 299.714 172.072C299.933 172.499 300.042 173.021 300.042 173.638V178.5H298.243V173.916C298.243 173.402 298.11 173.003 297.845 172.718C297.583 172.43 297.215 172.286 296.741 172.286C296.423 172.286 296.138 172.355 295.886 172.494C295.638 172.63 295.442 172.827 295.299 173.086C295.16 173.344 295.091 173.658 295.091 174.026ZM305.208 178.649C304.462 178.649 303.816 178.485 303.269 178.157C302.722 177.829 302.298 177.37 301.996 176.78C301.698 176.19 301.549 175.5 301.549 174.712C301.549 173.923 301.698 173.232 301.996 172.638C302.298 172.045 302.722 171.585 303.269 171.256C303.816 170.928 304.462 170.764 305.208 170.764C305.954 170.764 306.6 170.928 307.147 171.256C307.694 171.585 308.116 172.045 308.415 172.638C308.716 173.232 308.867 173.923 308.867 174.712C308.867 175.5 308.716 176.19 308.415 176.78C308.116 177.37 307.694 177.829 307.147 178.157C306.6 178.485 305.954 178.649 305.208 178.649ZM305.218 177.207C305.622 177.207 305.96 177.096 306.232 176.874C306.504 176.649 306.706 176.347 306.839 175.969C306.974 175.592 307.042 175.171 307.042 174.707C307.042 174.239 306.974 173.817 306.839 173.439C306.706 173.058 306.504 172.754 306.232 172.529C305.96 172.304 305.622 172.191 305.218 172.191C304.803 172.191 304.459 172.304 304.184 172.529C303.912 172.754 303.708 173.058 303.572 173.439C303.44 173.817 303.373 174.239 303.373 174.707C303.373 175.171 303.44 175.592 303.572 175.969C303.708 176.347 303.912 176.649 304.184 176.874C304.459 177.096 304.803 177.207 305.218 177.207ZM313.725 178.649C312.98 178.649 312.333 178.485 311.786 178.157C311.24 177.829 310.815 177.37 310.514 176.78C310.215 176.19 310.066 175.5 310.066 174.712C310.066 173.923 310.215 173.232 310.514 172.638C310.815 172.045 311.24 171.585 311.786 171.256C312.333 170.928 312.98 170.764 313.725 170.764C314.471 170.764 315.117 170.928 315.664 171.256C316.211 171.585 316.634 172.045 316.932 172.638C317.234 173.232 317.384 173.923 317.384 174.712C317.384 175.5 317.234 176.19 316.932 176.78C316.634 177.37 316.211 177.829 315.664 178.157C315.117 178.485 314.471 178.649 313.725 178.649ZM313.735 177.207C314.14 177.207 314.478 177.096 314.75 176.874C315.021 176.649 315.224 176.347 315.356 175.969C315.492 175.592 315.56 175.171 315.56 174.707C315.56 174.239 315.492 173.817 315.356 173.439C315.224 173.058 315.021 172.754 314.75 172.529C314.478 172.304 314.14 172.191 313.735 172.191C313.321 172.191 312.976 172.304 312.701 172.529C312.429 172.754 312.226 173.058 312.09 173.439C311.957 173.817 311.891 174.239 311.891 174.707C311.891 175.171 311.957 175.592 312.09 175.969C312.226 176.347 312.429 176.649 312.701 176.874C312.976 177.096 313.321 177.207 313.735 177.207ZM320.712 168.318V178.5H318.912V168.318H320.712Z" fill="white"/>
<rect x="6.5" y="3.5" width="352" height="200" rx="4.5" stroke="#EEEEEE"/>
</g>
<defs>
<filter id="filter0_dd_821_51492" x="0" y="0" width="365" height="213" filterUnits="userSpaceOnUse" color-interpolation-filters="sRGB">
<feFlood flood-opacity="0" result="BackgroundImageFix"/>
<feColorMatrix in="SourceAlpha" type="matrix" values="0 0 0 0 0 0 0 0 0 0 0 0 0 0 0 0 0 0 127 0" result="hardAlpha"/>
<feOffset dy="3"/>
<feGaussianBlur stdDeviation="3"/>
<feColorMatrix type="matrix" values="0 0 0 0 0.2 0 0 0 0 0.2 0 0 0 0 0.2 0 0 0 0.1 0"/>
<feBlend mode="normal" in2="BackgroundImageFix" result="effect1_dropShadow_821_51492"/>
<feColorMatrix in="SourceAlpha" type="matrix" values="0 0 0 0 0 0 0 0 0 0 0 0 0 0 0 0 0 0 127 0" result="hardAlpha"/>
<feOffset dy="3"/>
<feGaussianBlur stdDeviation="3"/>
<feColorMatrix type="matrix" values="0 0 0 0 0.2 0 0 0 0 0.2 0 0 0 0 0.2 0 0 0 0.1 0"/>
<feBlend mode="normal" in2="effect1_dropShadow_821_51492" result="effect2_dropShadow_821_51492"/>
<feBlend mode="normal" in="SourceGraphic" in2="effect2_dropShadow_821_51492" result="shape"/>
</filter>
</defs>
</svg>
