<svg width="393" height="160" viewBox="0 0 393 160" fill="none" xmlns="http://www.w3.org/2000/svg">
<path d="M0 4C0 1.79086 1.79086 0 4 0H131V41H0V4Z" fill="#F6F6F6"/>
<path d="M21.3714 14.8182V25H19.7308L14.9332 18.0646H14.8487V25H13.0043V14.8182H14.6548L19.4474 21.7585H19.5369V14.8182H21.3714ZM25.4991 25.1541C25.0152 25.1541 24.5794 25.0679 24.1916 24.8956C23.8071 24.7199 23.5022 24.4614 23.2768 24.12C23.0547 23.7786 22.9437 23.3577 22.9437 22.8572C22.9437 22.4264 23.0233 22.0701 23.1824 21.7884C23.3414 21.5066 23.5585 21.2812 23.8336 21.1122C24.1087 20.9432 24.4186 20.8156 24.7633 20.7294C25.1113 20.6399 25.4709 20.5753 25.8422 20.5355C26.2896 20.4891 26.6525 20.4477 26.9309 20.4112C27.2093 20.3714 27.4115 20.3118 27.5375 20.2322C27.6667 20.1494 27.7314 20.0218 27.7314 19.8494V19.8196C27.7314 19.4451 27.6203 19.1551 27.3983 18.9496C27.1762 18.7441 26.8564 18.6413 26.4387 18.6413C25.9979 18.6413 25.6483 18.7375 25.3897 18.9297C25.1345 19.1219 24.9622 19.349 24.8727 19.6108L23.1923 19.3722C23.3249 18.9081 23.5436 18.5204 23.8485 18.2088C24.1535 17.8939 24.5263 17.6586 24.9672 17.5028C25.408 17.3438 25.8952 17.2642 26.4288 17.2642C26.7967 17.2642 27.1629 17.3073 27.5275 17.3935C27.8921 17.4796 28.2252 17.6222 28.5268 17.821C28.8284 18.0166 29.0704 18.2834 29.2527 18.6214C29.4383 18.9595 29.5311 19.3821 29.5311 19.8892V25H27.801V23.951H27.7413C27.6319 24.1631 27.4778 24.362 27.2789 24.5476C27.0834 24.7299 26.8365 24.8774 26.5382 24.9901C26.2432 25.0994 25.8968 25.1541 25.4991 25.1541ZM25.9664 23.8317C26.3277 23.8317 26.6409 23.7604 26.9061 23.6179C27.1712 23.4721 27.3751 23.2798 27.5176 23.0412C27.6634 22.8026 27.7363 22.5424 27.7363 22.2607V21.3608C27.68 21.4072 27.5839 21.4503 27.448 21.4901C27.3154 21.5298 27.1663 21.5646 27.0005 21.5945C26.8348 21.6243 26.6708 21.6508 26.5083 21.674C26.3459 21.6972 26.2051 21.7171 26.0858 21.7337C25.8173 21.7701 25.577 21.8298 25.3649 21.9126C25.1528 21.9955 24.9854 22.1115 24.8627 22.2607C24.7401 22.4065 24.6788 22.5954 24.6788 22.8274C24.6788 23.1589 24.7998 23.4091 25.0417 23.5781C25.2837 23.7472 25.5919 23.8317 25.9664 23.8317ZM31.3407 25V17.3636H33.0609V18.6612H33.1504C33.3095 18.2237 33.573 17.8823 33.9409 17.6371C34.3088 17.3885 34.7479 17.2642 35.2583 17.2642C35.7754 17.2642 36.2112 17.3902 36.5659 17.642C36.9238 17.8906 37.1757 18.2304 37.3216 18.6612H37.4011C37.5701 18.237 37.8552 17.8989 38.2562 17.647C38.6606 17.3918 39.1395 17.2642 39.693 17.2642C40.3957 17.2642 40.969 17.4863 41.4132 17.9304C41.8573 18.3745 42.0794 19.0225 42.0794 19.8743V25H40.2747V20.1527C40.2747 19.6787 40.1487 19.3324 39.8968 19.1136C39.6449 18.8916 39.3367 18.7805 38.9721 18.7805C38.5379 18.7805 38.1982 18.9164 37.9529 19.1882C37.711 19.4567 37.59 19.8063 37.59 20.2372V25H35.8251V20.0781C35.8251 19.6837 35.7058 19.3688 35.4672 19.1335C35.2318 18.8982 34.9236 18.7805 34.5424 18.7805C34.2839 18.7805 34.0486 18.8468 33.8365 18.9794C33.6243 19.1087 33.4553 19.2926 33.3294 19.5312C33.2034 19.7666 33.1404 20.0417 33.1404 20.3565V25H31.3407ZM47.2859 25.1491C46.5202 25.1491 45.859 24.9901 45.3022 24.6719C44.7487 24.3504 44.3228 23.8963 44.0245 23.3097C43.7262 22.7197 43.5771 22.0253 43.5771 21.2266C43.5771 20.4411 43.7262 19.7517 44.0245 19.1584C44.3261 18.5618 44.747 18.0978 45.2873 17.7663C45.8275 17.4316 46.4622 17.2642 47.1914 17.2642C47.6621 17.2642 48.1062 17.3404 48.5238 17.4929C48.9447 17.642 49.3159 17.8741 49.6374 18.1889C49.9622 18.5038 50.2174 18.9048 50.4031 19.392C50.5887 19.8759 50.6815 20.4527 50.6815 21.1222V21.674H44.4222V20.4609H48.9563C48.953 20.1162 48.8784 19.8097 48.7326 19.5412C48.5868 19.2694 48.3829 19.0556 48.1211 18.8999C47.8626 18.7441 47.561 18.6662 47.2163 18.6662C46.8484 18.6662 46.5252 18.7557 46.2468 18.9347C45.9684 19.1103 45.7513 19.3423 45.5955 19.6307C45.4431 19.9157 45.3652 20.2289 45.3619 20.5703V21.6293C45.3619 22.0734 45.4431 22.4545 45.6055 22.7727C45.7679 23.0876 45.9949 23.3295 46.2866 23.4986C46.5782 23.6643 46.9196 23.7472 47.3107 23.7472C47.5726 23.7472 47.8095 23.7107 48.0217 23.6378C48.2338 23.5616 48.4177 23.4505 48.5735 23.3047C48.7293 23.1589 48.8469 22.9782 48.9265 22.7628L50.6069 22.9517C50.5008 23.3958 50.2987 23.7836 50.0004 24.1151C49.7054 24.4432 49.3275 24.6984 48.8668 24.8807C48.4061 25.0597 47.8791 25.1491 47.2859 25.1491Z" fill="#1F1F1F"/>
<rect width="131" height="41" transform="translate(131)" fill="#F6F6F6"/>
<path d="M149.538 17.6172C149.491 17.183 149.296 16.8449 148.951 16.603C148.61 16.361 148.165 16.2401 147.619 16.2401C147.234 16.2401 146.904 16.2981 146.629 16.4141C146.354 16.5301 146.144 16.6875 145.998 16.8864C145.852 17.0852 145.777 17.3123 145.774 17.5675C145.774 17.7796 145.822 17.9635 145.918 18.1193C146.018 18.2751 146.152 18.4077 146.321 18.517C146.49 18.6231 146.677 18.7126 146.883 18.7855C147.088 18.8584 147.295 18.9197 147.504 18.9695L148.459 19.2081C148.843 19.2976 149.213 19.4186 149.567 19.571C149.925 19.7235 150.245 19.9157 150.527 20.1477C150.812 20.3797 151.037 20.6598 151.203 20.9879C151.369 21.3161 151.452 21.7005 151.452 22.1413C151.452 22.7379 151.299 23.2633 150.994 23.7173C150.689 24.1681 150.249 24.5211 149.672 24.7763C149.098 25.0282 148.404 25.1541 147.589 25.1541C146.797 25.1541 146.109 25.0315 145.526 24.7862C144.946 24.541 144.491 24.183 144.163 23.7124C143.839 23.2417 143.663 22.6683 143.636 21.9922H145.451C145.478 22.3468 145.587 22.6418 145.779 22.8771C145.971 23.1125 146.222 23.2881 146.53 23.4041C146.841 23.5201 147.189 23.5781 147.574 23.5781C147.975 23.5781 148.326 23.5185 148.628 23.3991C148.933 23.2765 149.171 23.1075 149.344 22.892C149.516 22.6733 149.604 22.4181 149.607 22.1264C149.604 21.8613 149.526 21.6425 149.374 21.4702C149.221 21.2945 149.007 21.1487 148.732 21.0327C148.46 20.9134 148.142 20.8073 147.778 20.7145L146.619 20.4162C145.781 20.2008 145.118 19.8743 144.631 19.4368C144.147 18.996 143.905 18.411 143.905 17.6818C143.905 17.0819 144.067 16.5566 144.392 16.1058C144.72 15.6551 145.166 15.3054 145.729 15.0568C146.293 14.8049 146.931 14.679 147.643 14.679C148.366 14.679 148.999 14.8049 149.543 15.0568C150.089 15.3054 150.519 15.6518 150.83 16.0959C151.142 16.5367 151.303 17.0438 151.312 17.6172H149.538ZM157.884 21.7884V17.3636H159.683V25H157.938V23.6428H157.859C157.686 24.0703 157.403 24.42 157.009 24.6918C156.618 24.9635 156.135 25.0994 155.562 25.0994C155.061 25.0994 154.619 24.9884 154.235 24.7663C153.853 24.541 153.555 24.2145 153.34 23.7869C153.124 23.3561 153.017 22.8357 153.017 22.2259V17.3636H154.816V21.9474C154.816 22.4313 154.949 22.8158 155.214 23.1009C155.479 23.3859 155.827 23.5284 156.258 23.5284C156.523 23.5284 156.78 23.4638 157.029 23.3345C157.277 23.2053 157.481 23.013 157.64 22.7578C157.802 22.4993 157.884 22.1761 157.884 21.7884ZM161.614 25V14.8182H163.413V18.6264H163.488C163.581 18.4408 163.712 18.2436 163.881 18.0348C164.05 17.8227 164.278 17.642 164.567 17.4929C164.855 17.3404 165.223 17.2642 165.67 17.2642C166.26 17.2642 166.792 17.415 167.266 17.7166C167.744 18.0149 168.121 18.4574 168.4 19.044C168.682 19.6274 168.822 20.3433 168.822 21.1918C168.822 22.0303 168.685 22.7429 168.41 23.3295C168.135 23.9162 167.76 24.3636 167.286 24.6719C166.812 24.9801 166.275 25.1342 165.675 25.1342C165.238 25.1342 164.875 25.0613 164.587 24.9155C164.298 24.7696 164.066 24.594 163.891 24.3885C163.718 24.1797 163.584 23.9825 163.488 23.7969H163.384V25H161.614ZM163.379 21.1818C163.379 21.6757 163.448 22.1082 163.587 22.4794C163.73 22.8506 163.934 23.1406 164.199 23.3494C164.467 23.5549 164.792 23.6577 165.173 23.6577C165.571 23.6577 165.904 23.5516 166.173 23.3395C166.441 23.1241 166.643 22.8307 166.779 22.4595C166.918 22.085 166.988 21.6591 166.988 21.1818C166.988 20.7079 166.92 20.2869 166.784 19.919C166.648 19.5511 166.446 19.2628 166.178 19.054C165.909 18.8452 165.574 18.7408 165.173 18.7408C164.789 18.7408 164.462 18.8419 164.194 19.044C163.925 19.2462 163.722 19.5296 163.582 19.8942C163.446 20.2588 163.379 20.688 163.379 21.1818ZM170.352 17.3636H172.152V25.4375C172.152 25.9877 172.048 26.4418 171.839 26.7997C171.63 27.1577 171.329 27.4245 170.934 27.6001C170.54 27.7758 170.061 27.8636 169.497 27.8636C169.431 27.8636 169.37 27.862 169.313 27.8587C169.257 27.8587 169.196 27.857 169.129 27.8537V26.3871C169.179 26.3904 169.224 26.392 169.264 26.392C169.303 26.3954 169.345 26.397 169.388 26.397C169.733 26.397 169.98 26.3125 170.129 26.1435C170.278 25.9777 170.352 25.7341 170.352 25.4126V17.3636ZM171.247 16.2798C170.959 16.2798 170.712 16.1854 170.507 15.9964C170.304 15.8042 170.203 15.5739 170.203 15.3054C170.203 15.0336 170.304 14.8033 170.507 14.6143C170.712 14.4221 170.959 14.326 171.247 14.326C171.532 14.326 171.776 14.4221 171.978 14.6143C172.184 14.8033 172.286 15.0336 172.286 15.3054C172.286 15.5739 172.184 15.8042 171.978 15.9964C171.776 16.1854 171.532 16.2798 171.247 16.2798ZM177.384 25.1491C176.618 25.1491 175.957 24.9901 175.4 24.6719C174.846 24.3504 174.42 23.8963 174.122 23.3097C173.824 22.7197 173.675 22.0253 173.675 21.2266C173.675 20.4411 173.824 19.7517 174.122 19.1584C174.424 18.5618 174.845 18.0978 175.385 17.7663C175.925 17.4316 176.56 17.2642 177.289 17.2642C177.76 17.2642 178.204 17.3404 178.621 17.4929C179.042 17.642 179.414 17.8741 179.735 18.1889C180.06 18.5038 180.315 18.9048 180.501 19.392C180.686 19.8759 180.779 20.4527 180.779 21.1222V21.674H174.52V20.4609H179.054C179.051 20.1162 178.976 19.8097 178.83 19.5412C178.684 19.2694 178.481 19.0556 178.219 18.8999C177.96 18.7441 177.659 18.6662 177.314 18.6662C176.946 18.6662 176.623 18.7557 176.344 18.9347C176.066 19.1103 175.849 19.3423 175.693 19.6307C175.541 19.9157 175.463 20.2289 175.46 20.5703V21.6293C175.46 22.0734 175.541 22.4545 175.703 22.7727C175.866 23.0876 176.093 23.3295 176.384 23.4986C176.676 23.6643 177.017 23.7472 177.408 23.7472C177.67 23.7472 177.907 23.7107 178.119 23.6378C178.331 23.5616 178.515 23.4505 178.671 23.3047C178.827 23.1589 178.945 22.9782 179.024 22.7628L180.705 22.9517C180.598 23.3958 180.396 23.7836 180.098 24.1151C179.803 24.4432 179.425 24.6984 178.964 24.8807C178.504 25.0597 177.977 25.1491 177.384 25.1491ZM185.633 25.1491C184.87 25.1491 184.216 24.9818 183.669 24.647C183.125 24.3123 182.706 23.8499 182.411 23.2599C182.119 22.6667 181.974 21.9839 181.974 21.2116C181.974 20.4361 182.123 19.7517 182.421 19.1584C182.719 18.5618 183.14 18.0978 183.684 17.7663C184.231 17.4316 184.877 17.2642 185.623 17.2642C186.242 17.2642 186.791 17.3786 187.268 17.6072C187.749 17.8326 188.132 18.1525 188.417 18.5668C188.702 18.9777 188.864 19.4583 188.904 20.0085H187.184C187.114 19.6406 186.948 19.334 186.687 19.0888C186.428 18.8402 186.082 18.7159 185.648 18.7159C185.28 18.7159 184.956 18.8153 184.678 19.0142C184.4 19.2098 184.183 19.4915 184.027 19.8594C183.874 20.2273 183.798 20.6681 183.798 21.1818C183.798 21.7022 183.874 22.1496 184.027 22.5241C184.179 22.8954 184.393 23.1821 184.668 23.3842C184.947 23.5831 185.273 23.6825 185.648 23.6825C185.913 23.6825 186.15 23.6328 186.358 23.5334C186.571 23.4306 186.748 23.2831 186.89 23.0909C187.033 22.8987 187.131 22.665 187.184 22.3899H188.904C188.861 22.9302 188.702 23.4091 188.427 23.8267C188.152 24.241 187.777 24.5658 187.303 24.8011C186.829 25.0331 186.272 25.1491 185.633 25.1491ZM194.195 17.3636V18.7557H189.805V17.3636H194.195ZM190.889 15.5341H192.689V22.7031C192.689 22.9451 192.725 23.1307 192.798 23.2599C192.874 23.3859 192.974 23.4721 193.096 23.5185C193.219 23.5649 193.355 23.5881 193.504 23.5881C193.617 23.5881 193.719 23.5798 193.812 23.5632C193.908 23.5466 193.981 23.5317 194.031 23.5185L194.334 24.9254C194.238 24.9586 194.1 24.995 193.922 25.0348C193.746 25.0746 193.53 25.0978 193.275 25.1044C192.824 25.1177 192.418 25.0497 192.057 24.9006C191.696 24.7481 191.409 24.5128 191.197 24.1946C190.988 23.8764 190.886 23.4787 190.889 23.0014V15.5341Z" fill="#1F1F1F"/>
<path d="M262 0H389C391.209 0 393 1.79086 393 4V41H262V0Z" fill="#F6F6F6"/>
<path d="M280.538 17.6172C280.491 17.183 280.296 16.8449 279.951 16.603C279.61 16.361 279.165 16.2401 278.619 16.2401C278.234 16.2401 277.904 16.2981 277.629 16.4141C277.354 16.5301 277.144 16.6875 276.998 16.8864C276.852 17.0852 276.777 17.3123 276.774 17.5675C276.774 17.7796 276.822 17.9635 276.918 18.1193C277.018 18.2751 277.152 18.4077 277.321 18.517C277.49 18.6231 277.677 18.7126 277.883 18.7855C278.088 18.8584 278.295 18.9197 278.504 18.9695L279.459 19.2081C279.843 19.2976 280.213 19.4186 280.567 19.571C280.925 19.7235 281.245 19.9157 281.527 20.1477C281.812 20.3797 282.037 20.6598 282.203 20.9879C282.369 21.3161 282.452 21.7005 282.452 22.1413C282.452 22.7379 282.299 23.2633 281.994 23.7173C281.689 24.1681 281.249 24.5211 280.672 24.7763C280.098 25.0282 279.404 25.1541 278.589 25.1541C277.797 25.1541 277.109 25.0315 276.526 24.7862C275.946 24.541 275.491 24.183 275.163 23.7124C274.839 23.2417 274.663 22.6683 274.636 21.9922H276.451C276.478 22.3468 276.587 22.6418 276.779 22.8771C276.971 23.1125 277.222 23.2881 277.53 23.4041C277.841 23.5201 278.189 23.5781 278.574 23.5781C278.975 23.5781 279.326 23.5185 279.628 23.3991C279.933 23.2765 280.171 23.1075 280.344 22.892C280.516 22.6733 280.604 22.4181 280.607 22.1264C280.604 21.8613 280.526 21.6425 280.374 21.4702C280.221 21.2945 280.007 21.1487 279.732 21.0327C279.46 20.9134 279.142 20.8073 278.778 20.7145L277.619 20.4162C276.781 20.2008 276.118 19.8743 275.631 19.4368C275.147 18.996 274.905 18.411 274.905 17.6818C274.905 17.0819 275.067 16.5566 275.392 16.1058C275.72 15.6551 276.166 15.3054 276.729 15.0568C277.293 14.8049 277.931 14.679 278.643 14.679C279.366 14.679 279.999 14.8049 280.543 15.0568C281.089 15.3054 281.519 15.6518 281.83 16.0959C282.142 16.5367 282.303 17.0438 282.312 17.6172H280.538ZM287.83 17.3636V18.7557H283.44V17.3636H287.83ZM284.524 15.5341H286.323V22.7031C286.323 22.9451 286.36 23.1307 286.433 23.2599C286.509 23.3859 286.608 23.4721 286.731 23.5185C286.854 23.5649 286.99 23.5881 287.139 23.5881C287.251 23.5881 287.354 23.5798 287.447 23.5632C287.543 23.5466 287.616 23.5317 287.666 23.5185L287.969 24.9254C287.873 24.9586 287.735 24.995 287.556 25.0348C287.381 25.0746 287.165 25.0978 286.91 25.1044C286.459 25.1177 286.053 25.0497 285.692 24.9006C285.331 24.7481 285.044 24.5128 284.832 24.1946C284.623 23.8764 284.52 23.4787 284.524 23.0014V15.5341ZM291.532 25.1541C291.048 25.1541 290.613 25.0679 290.225 24.8956C289.84 24.7199 289.535 24.4614 289.31 24.12C289.088 23.7786 288.977 23.3577 288.977 22.8572C288.977 22.4264 289.056 22.0701 289.216 21.7884C289.375 21.5066 289.592 21.2812 289.867 21.1122C290.142 20.9432 290.452 20.8156 290.797 20.7294C291.145 20.6399 291.504 20.5753 291.875 20.5355C292.323 20.4891 292.686 20.4477 292.964 20.4112C293.243 20.3714 293.445 20.3118 293.571 20.2322C293.7 20.1494 293.765 20.0218 293.765 19.8494V19.8196C293.765 19.4451 293.654 19.1551 293.431 18.9496C293.209 18.7441 292.89 18.6413 292.472 18.6413C292.031 18.6413 291.681 18.7375 291.423 18.9297C291.168 19.1219 290.995 19.349 290.906 19.6108L289.225 19.3722C289.358 18.9081 289.577 18.5204 289.882 18.2088C290.187 17.8939 290.56 17.6586 291 17.5028C291.441 17.3438 291.928 17.2642 292.462 17.2642C292.83 17.2642 293.196 17.3073 293.561 17.3935C293.925 17.4796 294.258 17.6222 294.56 17.821C294.862 18.0166 295.104 18.2834 295.286 18.6214C295.471 18.9595 295.564 19.3821 295.564 19.8892V25H293.834V23.951H293.775C293.665 24.1631 293.511 24.362 293.312 24.5476C293.117 24.7299 292.87 24.8774 292.571 24.9901C292.276 25.0994 291.93 25.1541 291.532 25.1541ZM292 23.8317C292.361 23.8317 292.674 23.7604 292.939 23.6179C293.204 23.4721 293.408 23.2798 293.551 23.0412C293.697 22.8026 293.77 22.5424 293.77 22.2607V21.3608C293.713 21.4072 293.617 21.4503 293.481 21.4901C293.349 21.5298 293.199 21.5646 293.034 21.5945C292.868 21.6243 292.704 21.6508 292.542 21.674C292.379 21.6972 292.238 21.7171 292.119 21.7337C291.85 21.7701 291.61 21.8298 291.398 21.9126C291.186 21.9955 291.019 22.1115 290.896 22.2607C290.773 22.4065 290.712 22.5954 290.712 22.8274C290.712 23.1589 290.833 23.4091 291.075 23.5781C291.317 23.7472 291.625 23.8317 292 23.8317ZM301.187 17.3636V18.7557H296.797V17.3636H301.187ZM297.881 15.5341H299.681V22.7031C299.681 22.9451 299.717 23.1307 299.79 23.2599C299.866 23.3859 299.966 23.4721 300.088 23.5185C300.211 23.5649 300.347 23.5881 300.496 23.5881C300.609 23.5881 300.712 23.5798 300.804 23.5632C300.9 23.5466 300.973 23.5317 301.023 23.5185L301.326 24.9254C301.23 24.9586 301.093 24.995 300.914 25.0348C300.738 25.0746 300.523 25.0978 300.267 25.1044C299.817 25.1177 299.411 25.0497 299.049 24.9006C298.688 24.7481 298.401 24.5128 298.189 24.1946C297.98 23.8764 297.878 23.4787 297.881 23.0014V15.5341ZM305.991 25.1491C305.225 25.1491 304.564 24.9901 304.007 24.6719C303.454 24.3504 303.028 23.8963 302.73 23.3097C302.431 22.7197 302.282 22.0253 302.282 21.2266C302.282 20.4411 302.431 19.7517 302.73 19.1584C303.031 18.5618 303.452 18.0978 303.992 17.7663C304.533 17.4316 305.167 17.2642 305.896 17.2642C306.367 17.2642 306.811 17.3404 307.229 17.4929C307.65 17.642 308.021 17.8741 308.343 18.1889C308.667 18.5038 308.923 18.9048 309.108 19.392C309.294 19.8759 309.387 20.4527 309.387 21.1222V21.674H303.127V20.4609H307.661C307.658 20.1162 307.584 19.8097 307.438 19.5412C307.292 19.2694 307.088 19.0556 306.826 18.8999C306.568 18.7441 306.266 18.6662 305.921 18.6662C305.553 18.6662 305.23 18.7557 304.952 18.9347C304.673 19.1103 304.456 19.3423 304.301 19.6307C304.148 19.9157 304.07 20.2289 304.067 20.5703V21.6293C304.067 22.0734 304.148 22.4545 304.311 22.7727C304.473 23.0876 304.7 23.3295 304.992 23.4986C305.283 23.6643 305.625 23.7472 306.016 23.7472C306.278 23.7472 306.515 23.7107 306.727 23.6378C306.939 23.5616 307.123 23.4505 307.279 23.3047C307.434 23.1589 307.552 22.9782 307.632 22.7628L309.312 22.9517C309.206 23.3958 309.004 23.7836 308.705 24.1151C308.41 24.4432 308.033 24.6984 307.572 24.8807C307.111 25.0597 306.584 25.1491 305.991 25.1491Z" fill="#1F1F1F"/>
<g filter="url(#filter0_i_821_53544)">
<rect width="131" height="40" transform="translate(0 40.75)" fill="white"/>
<path d="M13.0043 65.25V55.0682H16.8224C17.6046 55.0682 18.2609 55.2041 18.7912 55.4759C19.3248 55.7476 19.7275 56.1288 19.9993 56.6193C20.2744 57.1065 20.4119 57.675 20.4119 58.3246C20.4119 58.9775 20.2727 59.5443 19.9943 60.0249C19.7192 60.5021 19.3132 60.8717 18.7763 61.1335C18.2393 61.392 17.5798 61.5213 16.7976 61.5213H14.0781V59.9901H16.549C17.0064 59.9901 17.3809 59.9271 17.6726 59.8011C17.9643 59.6719 18.1797 59.4846 18.3189 59.2393C18.4614 58.9908 18.5327 58.6858 18.5327 58.3246C18.5327 57.9633 18.4614 57.6551 18.3189 57.3999C18.1764 57.1413 17.9593 56.9458 17.6676 56.8132C17.3759 56.6773 16.9998 56.6094 16.5391 56.6094H14.8487V65.25H13.0043ZM18.2642 60.6364L20.7848 65.25H18.7266L16.2507 60.6364H18.2642ZM24.2276 65.4041C23.7437 65.4041 23.3079 65.3179 22.9201 65.1456C22.5356 64.9699 22.2307 64.7114 22.0053 64.37C21.7833 64.0286 21.6722 63.6077 21.6722 63.1072C21.6722 62.6764 21.7518 62.3201 21.9109 62.0384C22.07 61.7566 22.2871 61.5312 22.5621 61.3622C22.8372 61.1932 23.1471 61.0656 23.4918 60.9794C23.8398 60.8899 24.1995 60.8253 24.5707 60.7855C25.0181 60.7391 25.381 60.6977 25.6594 60.6612C25.9379 60.6214 26.14 60.5618 26.266 60.4822C26.3952 60.3994 26.4599 60.2718 26.4599 60.0994V60.0696C26.4599 59.6951 26.3488 59.4051 26.1268 59.1996C25.9047 58.9941 25.5849 58.8913 25.1673 58.8913C24.7264 58.8913 24.3768 58.9875 24.1183 59.1797C23.863 59.3719 23.6907 59.599 23.6012 59.8608L21.9208 59.6222C22.0534 59.1581 22.2721 58.7704 22.5771 58.4588C22.882 58.1439 23.2549 57.9086 23.6957 57.7528C24.1365 57.5938 24.6237 57.5142 25.1573 57.5142C25.5252 57.5142 25.8915 57.5573 26.256 57.6435C26.6206 57.7296 26.9537 57.8722 27.2553 58.071C27.5569 58.2666 27.7989 58.5334 27.9812 58.8714C28.1668 59.2095 28.2596 59.6321 28.2596 60.1392V65.25H26.5295V64.201H26.4698C26.3604 64.4131 26.2063 64.612 26.0075 64.7976C25.8119 64.9799 25.565 65.1274 25.2667 65.2401C24.9717 65.3494 24.6254 65.4041 24.2276 65.4041ZM24.695 64.0817C25.0562 64.0817 25.3694 64.0104 25.6346 63.8679C25.8997 63.7221 26.1036 63.5298 26.2461 63.2912C26.3919 63.0526 26.4648 62.7924 26.4648 62.5107V61.6108C26.4085 61.6572 26.3124 61.7003 26.1765 61.7401C26.0439 61.7798 25.8948 61.8146 25.729 61.8445C25.5633 61.8743 25.3993 61.9008 25.2369 61.924C25.0745 61.9472 24.9336 61.9671 24.8143 61.9837C24.5458 62.0201 24.3055 62.0798 24.0934 62.1626C23.8813 62.2455 23.7139 62.3615 23.5913 62.5107C23.4686 62.6565 23.4073 62.8454 23.4073 63.0774C23.4073 63.4089 23.5283 63.6591 23.7702 63.8281C24.0122 63.9972 24.3204 64.0817 24.695 64.0817ZM31.7099 62.8537L31.7049 60.6811H31.9933L34.7376 57.6136H36.8406L33.4648 61.3722H33.092L31.7099 62.8537ZM30.0692 65.25V55.0682H31.869V65.25H30.0692ZM34.8619 65.25L32.3761 61.7749L33.5891 60.5071L37.0146 65.25H34.8619ZM38.04 65.25V57.6136H39.8397V65.25H38.04ZM38.9448 56.5298C38.6597 56.5298 38.4145 56.4354 38.209 56.2464C38.0035 56.0542 37.9007 55.8239 37.9007 55.5554C37.9007 55.2836 38.0035 55.0533 38.209 54.8643C38.4145 54.6721 38.6597 54.576 38.9448 54.576C39.2331 54.576 39.4784 54.6721 39.6806 54.8643C39.8861 55.0533 39.9888 55.2836 39.9888 55.5554C39.9888 55.8239 39.8861 56.0542 39.6806 56.2464C39.4784 56.4354 39.2331 56.5298 38.9448 56.5298ZM41.6903 65.25V57.6136H43.4105V58.9112H43.5C43.6591 58.4737 43.9226 58.1323 44.2905 57.8871C44.6584 57.6385 45.0975 57.5142 45.608 57.5142C46.125 57.5142 46.5608 57.6402 46.9155 57.892C47.2734 58.1406 47.5253 58.4804 47.6712 58.9112H47.7507C47.9197 58.487 48.2048 58.1489 48.6058 57.897C49.0102 57.6418 49.4891 57.5142 50.0426 57.5142C50.7453 57.5142 51.3187 57.7363 51.7628 58.1804C52.2069 58.6245 52.429 59.2725 52.429 60.1243V65.25H50.6243V60.4027C50.6243 59.9287 50.4983 59.5824 50.2464 59.3636C49.9946 59.1416 49.6863 59.0305 49.3217 59.0305C48.8875 59.0305 48.5478 59.1664 48.3026 59.4382C48.0606 59.7067 47.9396 60.0563 47.9396 60.4872V65.25H46.1747V60.3281C46.1747 59.9337 46.0554 59.6188 45.8168 59.3835C45.5814 59.1482 45.2732 59.0305 44.892 59.0305C44.6335 59.0305 44.3982 59.0968 44.1861 59.2294C43.974 59.3587 43.8049 59.5426 43.679 59.7812C43.553 60.0166 43.4901 60.2917 43.4901 60.6065V65.25H41.6903Z" fill="#545454"/>
</g>
<g filter="url(#filter1_i_821_53544)">
<rect width="131" height="40" transform="translate(131 40.75)" fill="white"/>
<rect x="143" y="58.25" width="4" height="4" rx="2" fill="#FFB61A"/>
<path d="M160.307 55.0682V65.25H159.114L153.565 57.2557H153.466V65.25H152.233V55.0682H153.426L158.994 63.0824H159.094V55.0682H160.307ZM163.192 55.0682L166.214 63.6392H166.334L169.356 55.0682H170.649L166.91 65.25H165.638L161.899 55.0682H163.192ZM172.235 65.25V55.0682H175.675C176.471 55.0682 177.124 55.2041 177.634 55.4759C178.144 55.7443 178.522 56.1139 178.768 56.5845C179.013 57.0552 179.135 57.5904 179.135 58.1903C179.135 58.7902 179.013 59.3222 178.768 59.7862C178.522 60.2502 178.146 60.6148 177.639 60.88C177.132 61.1418 176.484 61.2727 175.695 61.2727H172.911V60.1591H175.655C176.199 60.1591 176.636 60.0795 176.968 59.9205C177.303 59.7614 177.545 59.536 177.694 59.2443C177.846 58.9493 177.922 58.598 177.922 58.1903C177.922 57.7827 177.846 57.4264 177.694 57.1214C177.541 56.8165 177.298 56.5812 176.963 56.4155C176.628 56.2464 176.186 56.1619 175.635 56.1619H173.468V65.25H172.235ZM177.028 60.6761L179.533 65.25H178.101L175.635 60.6761H177.028Z" fill="#545454"/>
<g clip-path="url(#clip0_821_53544)">
<path d="M191.67 62.5399C191.32 62.5399 191.05 62.2599 191.05 61.9199V59.9199C191.05 59.5699 191.33 59.2999 191.67 59.2999C192.01 59.2999 192.29 59.5799 192.29 59.9199V61.9199C192.29 62.2699 192.01 62.5399 191.67 62.5399Z" fill="#545454"/>
<path d="M191.67 58.5399C191.58 58.5399 191.5 58.5199 191.43 58.4899C191.35 58.4599 191.28 58.4199 191.22 58.3599C191.17 58.2999 191.12 58.2299 191.09 58.1599C191.06 58.0799 191.04 57.9999 191.04 57.9199C191.04 57.8399 191.06 57.7499 191.09 57.6799C191.12 57.5999 191.17 57.5299 191.22 57.4799C191.28 57.4199 191.35 57.3699 191.43 57.3399C191.58 57.2799 191.75 57.2799 191.91 57.3399C191.98 57.3699 192.05 57.4199 192.11 57.4799C192.17 57.5299 192.21 57.5999 192.24 57.6799C192.28 57.7499 192.29 57.8399 192.29 57.9199C192.29 58.0799 192.23 58.2399 192.11 58.3599C191.99 58.4699 191.83 58.5399 191.67 58.5399Z" fill="#545454"/>
<path d="M191.67 67.2099C187.65 67.2099 184.38 63.9399 184.38 59.9199C184.38 55.8999 187.65 52.6299 191.67 52.6299C195.69 52.6299 198.96 55.8999 198.96 59.9199C198.96 63.9399 195.69 67.2099 191.67 67.2099ZM191.67 53.8699C188.33 53.8699 185.62 56.5899 185.62 59.9199C185.62 63.2499 188.33 65.9599 191.66 65.9599C194.99 65.9599 197.7 63.2499 197.7 59.9199C197.7 56.5899 195 53.8699 191.67 53.8699Z" fill="#545454"/>
</g>
</g>
<g filter="url(#filter2_i_821_53544)">
<rect width="131" height="40" transform="translate(262 40.75)" fill="white"/>
<rect x="274.5" y="49.75" width="83" height="21" rx="10.5" fill="#E9F8E9"/>
<path d="M291.297 65.25V55.0682H294.738C295.537 55.0682 296.189 55.2124 296.697 55.5007C297.207 55.7857 297.585 56.1719 297.83 56.6591C298.075 57.1463 298.198 57.6899 298.198 58.2898C298.198 58.8897 298.075 59.4349 297.83 59.9254C297.588 60.416 297.214 60.8071 296.706 61.0987C296.199 61.3871 295.55 61.5312 294.758 61.5312H292.292V60.4375H294.718C295.265 60.4375 295.704 60.343 296.035 60.1541C296.367 59.9652 296.607 59.71 296.756 59.3885C296.909 59.0637 296.985 58.6974 296.985 58.2898C296.985 57.8821 296.909 57.5175 296.756 57.196C296.607 56.8745 296.365 56.6226 296.03 56.4403C295.696 56.2547 295.251 56.1619 294.698 56.1619H292.53V65.25H291.297ZM303.045 65.4091C302.356 65.4091 301.751 65.245 301.231 64.9169C300.714 64.5888 300.309 64.1297 300.018 63.5398C299.729 62.9498 299.585 62.2604 299.585 61.4716C299.585 60.6761 299.729 59.9818 300.018 59.3885C300.309 58.7952 300.714 58.3345 301.231 58.0064C301.751 57.6783 302.356 57.5142 303.045 57.5142C303.735 57.5142 304.338 57.6783 304.855 58.0064C305.375 58.3345 305.78 58.7952 306.068 59.3885C306.36 59.9818 306.506 60.6761 306.506 61.4716C306.506 62.2604 306.36 62.9498 306.068 63.5398C305.78 64.1297 305.375 64.5888 304.855 64.9169C304.338 65.245 303.735 65.4091 303.045 65.4091ZM303.045 64.3551C303.569 64.3551 304 64.2209 304.338 63.9524C304.676 63.6839 304.926 63.331 305.089 62.8935C305.251 62.456 305.332 61.982 305.332 61.4716C305.332 60.9612 305.251 60.4856 305.089 60.0447C304.926 59.6039 304.676 59.2476 304.338 58.9759C304 58.7041 303.569 58.5682 303.045 58.5682C302.522 58.5682 302.091 58.7041 301.753 58.9759C301.415 59.2476 301.164 59.6039 301.002 60.0447C300.84 60.4856 300.758 60.9612 300.758 61.4716C300.758 61.982 300.84 62.456 301.002 62.8935C301.164 63.331 301.415 63.6839 301.753 63.9524C302.091 64.2209 302.522 64.3551 303.045 64.3551ZM313.706 59.3239L312.652 59.6222C312.585 59.4465 312.488 59.2758 312.358 59.1101C312.232 58.9411 312.06 58.8018 311.841 58.6925C311.623 58.5831 311.342 58.5284 311.001 58.5284C310.534 58.5284 310.144 58.6361 309.833 58.8516C309.525 59.0637 309.37 59.3338 309.37 59.6619C309.37 59.9536 309.476 60.1839 309.689 60.353C309.901 60.522 310.232 60.6629 310.683 60.7756L311.816 61.054C312.499 61.2197 313.008 61.4732 313.343 61.8146C313.677 62.1527 313.845 62.5885 313.845 63.1222C313.845 63.5597 313.719 63.9508 313.467 64.2955C313.218 64.6402 312.87 64.9119 312.423 65.1108C311.975 65.3097 311.455 65.4091 310.862 65.4091C310.083 65.4091 309.438 65.2401 308.928 64.902C308.417 64.5639 308.094 64.0701 307.958 63.4205L309.072 63.142C309.178 63.553 309.379 63.8613 309.674 64.0668C309.972 64.2723 310.361 64.375 310.842 64.375C311.389 64.375 311.823 64.259 312.145 64.027C312.469 63.7917 312.632 63.5099 312.632 63.1818C312.632 62.9167 312.539 62.6946 312.353 62.5156C312.168 62.3333 311.883 62.1974 311.498 62.108L310.225 61.8097C309.526 61.6439 309.012 61.3871 308.684 61.0391C308.359 60.6877 308.197 60.2486 308.197 59.7216C308.197 59.2907 308.318 58.9096 308.56 58.5781C308.805 58.2467 309.138 57.9865 309.559 57.7976C309.984 57.6087 310.464 57.5142 311.001 57.5142C311.757 57.5142 312.35 57.6799 312.781 58.0114C313.215 58.3428 313.523 58.7803 313.706 59.3239ZM315.611 65.25V57.6136H316.784V65.25H315.611ZM316.208 56.3409C315.979 56.3409 315.782 56.263 315.616 56.1072C315.454 55.9515 315.372 55.7642 315.372 55.5455C315.372 55.3267 315.454 55.1394 315.616 54.9837C315.782 54.8279 315.979 54.75 316.208 54.75C316.436 54.75 316.632 54.8279 316.794 54.9837C316.96 55.1394 317.043 55.3267 317.043 55.5455C317.043 55.7642 316.96 55.9515 316.794 56.1072C316.632 56.263 316.436 56.3409 316.208 56.3409ZM322.254 57.6136V58.608H318.297V57.6136H322.254ZM319.45 55.7841H320.624V63.0625C320.624 63.3939 320.672 63.6425 320.768 63.8082C320.867 63.9706 320.993 64.08 321.146 64.1364C321.301 64.1894 321.465 64.2159 321.638 64.2159C321.767 64.2159 321.873 64.2093 321.956 64.196C322.039 64.1795 322.105 64.1662 322.155 64.1562L322.393 65.2102C322.314 65.2401 322.203 65.2699 322.06 65.2997C321.918 65.3329 321.737 65.3494 321.518 65.3494C321.187 65.3494 320.862 65.2782 320.544 65.1357C320.229 64.9931 319.967 64.776 319.759 64.4844C319.553 64.1927 319.45 63.8248 319.45 63.3807V55.7841ZM324.019 65.25V57.6136H325.192V65.25H324.019ZM324.616 56.3409C324.387 56.3409 324.19 56.263 324.024 56.1072C323.862 55.9515 323.781 55.7642 323.781 55.5455C323.781 55.3267 323.862 55.1394 324.024 54.9837C324.19 54.8279 324.387 54.75 324.616 54.75C324.844 54.75 325.04 54.8279 325.202 54.9837C325.368 55.1394 325.451 55.3267 325.451 55.5455C325.451 55.7642 325.368 55.9515 325.202 56.1072C325.04 56.263 324.844 56.3409 324.616 56.3409ZM333.586 57.6136L330.762 65.25H329.569L326.745 57.6136H328.018L330.126 63.6989H330.205L332.313 57.6136H333.586ZM338.063 65.4091C337.327 65.4091 336.692 65.2467 336.159 64.9219C335.628 64.5938 335.219 64.1364 334.931 63.5497C334.646 62.9598 334.503 62.2737 334.503 61.4915C334.503 60.7093 334.646 60.0199 334.931 59.4233C335.219 58.8234 335.62 58.3561 336.134 58.0213C336.651 57.6832 337.254 57.5142 337.943 57.5142C338.341 57.5142 338.734 57.5805 339.122 57.7131C339.509 57.8456 339.862 58.0611 340.181 58.3594C340.499 58.6544 340.752 59.0455 340.941 59.5327C341.13 60.0199 341.225 60.6198 341.225 61.3324V61.8295H335.338V60.8153H340.031C340.031 60.3845 339.945 60 339.773 59.6619C339.604 59.3239 339.362 59.0571 339.047 58.8615C338.735 58.666 338.368 58.5682 337.943 58.5682C337.476 58.5682 337.072 58.6842 336.73 58.9162C336.392 59.1449 336.132 59.4432 335.95 59.8111C335.767 60.179 335.676 60.5734 335.676 60.9943V61.6705C335.676 62.2472 335.776 62.736 335.975 63.1371C336.177 63.5348 336.457 63.8381 336.815 64.0469C337.173 64.2524 337.589 64.3551 338.063 64.3551C338.371 64.3551 338.649 64.312 338.898 64.2259C339.15 64.1364 339.367 64.0038 339.549 63.8281C339.731 63.6491 339.872 63.4271 339.972 63.1619L341.105 63.4801C340.986 63.8646 340.785 64.2027 340.504 64.4943C340.222 64.7827 339.874 65.008 339.46 65.1705C339.045 65.3295 338.58 65.4091 338.063 65.4091Z" fill="#005509"/>
<rect x="274.5" y="49.75" width="83" height="21" rx="10.5" stroke="white"/>
</g>
<g filter="url(#filter3_i_821_53544)">
<rect width="131" height="40" transform="translate(0 80.25)" fill="white"/>
<path d="M13.0043 104.75V94.5682H19.6264V96.1143H14.8487V98.8786H19.2834V100.425H14.8487V103.204H19.6662V104.75H13.0043ZM21.4286 104.75V97.1136H23.1737V98.3864H23.2532C23.3924 97.9455 23.631 97.6058 23.9691 97.3672C24.3105 97.1252 24.6999 97.0043 25.1374 97.0043C25.2369 97.0043 25.3479 97.0092 25.4705 97.0192C25.5965 97.0258 25.7009 97.0374 25.7837 97.054V98.7095C25.7075 98.683 25.5865 98.6598 25.4208 98.6399C25.2584 98.6167 25.101 98.6051 24.9485 98.6051C24.6204 98.6051 24.3254 98.6764 24.0636 98.8189C23.805 98.9581 23.6012 99.152 23.4521 99.4006C23.3029 99.6491 23.2283 99.9358 23.2283 100.261V104.75H21.4286ZM26.9794 104.75V97.1136H28.7791V104.75H26.9794ZM27.8842 96.0298C27.5992 96.0298 27.3539 95.9354 27.1484 95.7464C26.9429 95.5542 26.8402 95.3239 26.8402 95.0554C26.8402 94.7836 26.9429 94.5533 27.1484 94.3643C27.3539 94.1721 27.5992 94.076 27.8842 94.076C28.1726 94.076 28.4179 94.1721 28.62 94.3643C28.8255 94.5533 28.9283 94.7836 28.9283 95.0554C28.9283 95.3239 28.8255 95.5542 28.62 95.7464C28.4179 95.9354 28.1726 96.0298 27.8842 96.0298ZM32.2704 102.354L32.2654 100.181H32.5538L35.2981 97.1136H37.4011L34.0254 100.872H33.6525L32.2704 102.354ZM30.6298 104.75V94.5682H32.4295V104.75H30.6298ZM35.4224 104.75L32.9366 101.275L34.1497 100.007L37.5751 104.75H35.4224ZM42.1527 104.75V94.5682H46.0504C46.7862 94.5682 47.3977 94.6842 47.8849 94.9162C48.3755 95.1449 48.7417 95.4581 48.9837 95.8558C49.2289 96.2536 49.3516 96.7043 49.3516 97.2081C49.3516 97.6224 49.272 97.977 49.1129 98.272C48.9538 98.5637 48.7401 98.8007 48.4716 98.983C48.2031 99.1652 47.9032 99.2962 47.5717 99.3757V99.4751C47.933 99.495 48.2794 99.6061 48.6108 99.8082C48.9455 100.007 49.219 100.289 49.4311 100.653C49.6432 101.018 49.7493 101.459 49.7493 101.976C49.7493 102.503 49.6217 102.977 49.3665 103.398C49.1113 103.815 48.7268 104.145 48.2131 104.387C47.6993 104.629 47.053 104.75 46.2741 104.75H42.1527ZM43.9972 103.209H45.9808C46.6503 103.209 47.1326 103.081 47.4276 102.826C47.7259 102.567 47.875 102.236 47.875 101.832C47.875 101.53 47.8004 101.258 47.6513 101.016C47.5021 100.771 47.29 100.579 47.0149 100.44C46.7398 100.297 46.4117 100.226 46.0305 100.226H43.9972V103.209ZM43.9972 98.8984H45.8217C46.1399 98.8984 46.4266 98.8404 46.6818 98.7244C46.937 98.6051 47.1375 98.4377 47.2834 98.2223C47.4325 98.0036 47.5071 97.745 47.5071 97.4467C47.5071 97.0523 47.3679 96.7275 47.0895 96.4723C46.8144 96.2171 46.4051 96.0895 45.8615 96.0895H43.9972V98.8984Z" fill="#545454"/>
</g>
<g filter="url(#filter4_i_821_53544)">
<rect width="131" height="40" transform="translate(131 80.25)" fill="white"/>
<rect x="143" y="97.75" width="4" height="4" rx="2" fill="#4FBF5E"/>
<path d="M152.651 94.5682L155.673 103.139H155.793L158.815 94.5682H160.108L156.369 104.75H155.097L151.358 94.5682H152.651ZM161.694 104.75V94.5682H165.134C165.93 94.5682 166.583 94.7041 167.093 94.9759C167.603 95.2443 167.981 95.6139 168.227 96.0845C168.472 96.5552 168.594 97.0904 168.594 97.6903C168.594 98.2902 168.472 98.8222 168.227 99.2862C167.981 99.7502 167.605 100.115 167.098 100.38C166.591 100.642 165.943 100.773 165.154 100.773H162.37V99.6591H165.114C165.658 99.6591 166.095 99.5795 166.427 99.4205C166.762 99.2614 167.004 99.036 167.153 98.7443C167.305 98.4493 167.381 98.098 167.381 97.6903C167.381 97.2827 167.305 96.9264 167.153 96.6214C167 96.3165 166.757 96.0812 166.422 95.9155C166.087 95.7464 165.645 95.6619 165.094 95.6619H162.927V104.75H161.694ZM166.487 100.176L168.992 104.75H167.56L165.094 100.176H166.487Z" fill="#545454"/>
<path d="M181.67 102.04C181.32 102.04 181.05 101.76 181.05 101.42V99.4199C181.05 99.0699 181.33 98.7999 181.67 98.7999C182.01 98.7999 182.29 99.0799 182.29 99.4199V101.42C182.29 101.77 182.01 102.04 181.67 102.04Z" fill="#545454"/>
<path d="M181.67 98.0399C181.58 98.0399 181.5 98.0199 181.43 97.9899C181.35 97.9599 181.28 97.9199 181.22 97.8599C181.17 97.7999 181.12 97.7299 181.09 97.6599C181.06 97.5799 181.04 97.4999 181.04 97.4199C181.04 97.3399 181.06 97.2499 181.09 97.1799C181.12 97.0999 181.17 97.0299 181.22 96.9799C181.28 96.9199 181.35 96.8699 181.43 96.8399C181.58 96.7799 181.75 96.7799 181.91 96.8399C181.98 96.8699 182.05 96.9199 182.11 96.9799C182.17 97.0299 182.21 97.0999 182.24 97.1799C182.28 97.2499 182.29 97.3399 182.29 97.4199C182.29 97.5799 182.23 97.7399 182.11 97.8599C181.99 97.9699 181.83 98.0399 181.67 98.0399Z" fill="#545454"/>
<path d="M181.67 106.71C177.65 106.71 174.38 103.44 174.38 99.4199C174.38 95.3999 177.65 92.1299 181.67 92.1299C185.69 92.1299 188.96 95.3999 188.96 99.4199C188.96 103.44 185.69 106.71 181.67 106.71ZM181.67 93.3699C178.33 93.3699 175.62 96.0899 175.62 99.4199C175.62 102.75 178.33 105.46 181.66 105.46C184.99 105.46 187.7 102.75 187.7 99.4199C187.7 96.0899 185 93.3699 181.67 93.3699Z" fill="#545454"/>
</g>
<g filter="url(#filter5_i_821_53544)">
<rect width="131" height="40" transform="translate(262 80.25)" fill="white"/>
<rect x="274.5" y="89.25" width="83" height="21" rx="10.5" fill="#E9F8E9"/>
<path d="M291.297 104.75V94.5682H294.738C295.537 94.5682 296.189 94.7124 296.697 95.0007C297.207 95.2857 297.585 95.6719 297.83 96.1591C298.075 96.6463 298.198 97.1899 298.198 97.7898C298.198 98.3897 298.075 98.9349 297.83 99.4254C297.588 99.916 297.214 100.307 296.706 100.599C296.199 100.887 295.55 101.031 294.758 101.031H292.292V99.9375H294.718C295.265 99.9375 295.704 99.843 296.035 99.6541C296.367 99.4652 296.607 99.21 296.756 98.8885C296.909 98.5637 296.985 98.1974 296.985 97.7898C296.985 97.3821 296.909 97.0175 296.756 96.696C296.607 96.3745 296.365 96.1226 296.03 95.9403C295.696 95.7547 295.251 95.6619 294.698 95.6619H292.53V104.75H291.297ZM303.045 104.909C302.356 104.909 301.751 104.745 301.231 104.417C300.714 104.089 300.309 103.63 300.018 103.04C299.729 102.45 299.585 101.76 299.585 100.972C299.585 100.176 299.729 99.4818 300.018 98.8885C300.309 98.2952 300.714 97.8345 301.231 97.5064C301.751 97.1783 302.356 97.0142 303.045 97.0142C303.735 97.0142 304.338 97.1783 304.855 97.5064C305.375 97.8345 305.78 98.2952 306.068 98.8885C306.36 99.4818 306.506 100.176 306.506 100.972C306.506 101.76 306.36 102.45 306.068 103.04C305.78 103.63 305.375 104.089 304.855 104.417C304.338 104.745 303.735 104.909 303.045 104.909ZM303.045 103.855C303.569 103.855 304 103.721 304.338 103.452C304.676 103.184 304.926 102.831 305.089 102.393C305.251 101.956 305.332 101.482 305.332 100.972C305.332 100.461 305.251 99.9856 305.089 99.5447C304.926 99.1039 304.676 98.7476 304.338 98.4759C304 98.2041 303.569 98.0682 303.045 98.0682C302.522 98.0682 302.091 98.2041 301.753 98.4759C301.415 98.7476 301.164 99.1039 301.002 99.5447C300.84 99.9856 300.758 100.461 300.758 100.972C300.758 101.482 300.84 101.956 301.002 102.393C301.164 102.831 301.415 103.184 301.753 103.452C302.091 103.721 302.522 103.855 303.045 103.855ZM313.706 98.8239L312.652 99.1222C312.585 98.9465 312.488 98.7758 312.358 98.6101C312.232 98.4411 312.06 98.3018 311.841 98.1925C311.623 98.0831 311.342 98.0284 311.001 98.0284C310.534 98.0284 310.144 98.1361 309.833 98.3516C309.525 98.5637 309.37 98.8338 309.37 99.1619C309.37 99.4536 309.476 99.6839 309.689 99.853C309.901 100.022 310.232 100.163 310.683 100.276L311.816 100.554C312.499 100.72 313.008 100.973 313.343 101.315C313.677 101.653 313.845 102.089 313.845 102.622C313.845 103.06 313.719 103.451 313.467 103.795C313.218 104.14 312.87 104.412 312.423 104.611C311.975 104.81 311.455 104.909 310.862 104.909C310.083 104.909 309.438 104.74 308.928 104.402C308.417 104.064 308.094 103.57 307.958 102.92L309.072 102.642C309.178 103.053 309.379 103.361 309.674 103.567C309.972 103.772 310.361 103.875 310.842 103.875C311.389 103.875 311.823 103.759 312.145 103.527C312.469 103.292 312.632 103.01 312.632 102.682C312.632 102.417 312.539 102.195 312.353 102.016C312.168 101.833 311.883 101.697 311.498 101.608L310.225 101.31C309.526 101.144 309.012 100.887 308.684 100.539C308.359 100.188 308.197 99.7486 308.197 99.2216C308.197 98.7907 308.318 98.4096 308.56 98.0781C308.805 97.7467 309.138 97.4865 309.559 97.2976C309.984 97.1087 310.464 97.0142 311.001 97.0142C311.757 97.0142 312.35 97.1799 312.781 97.5114C313.215 97.8428 313.523 98.2803 313.706 98.8239ZM315.611 104.75V97.1136H316.784V104.75H315.611ZM316.208 95.8409C315.979 95.8409 315.782 95.763 315.616 95.6072C315.454 95.4515 315.372 95.2642 315.372 95.0455C315.372 94.8267 315.454 94.6394 315.616 94.4837C315.782 94.3279 315.979 94.25 316.208 94.25C316.436 94.25 316.632 94.3279 316.794 94.4837C316.96 94.6394 317.043 94.8267 317.043 95.0455C317.043 95.2642 316.96 95.4515 316.794 95.6072C316.632 95.763 316.436 95.8409 316.208 95.8409ZM322.254 97.1136V98.108H318.297V97.1136H322.254ZM319.45 95.2841H320.624V102.562C320.624 102.894 320.672 103.143 320.768 103.308C320.867 103.471 320.993 103.58 321.146 103.636C321.301 103.689 321.465 103.716 321.638 103.716C321.767 103.716 321.873 103.709 321.956 103.696C322.039 103.679 322.105 103.666 322.155 103.656L322.393 104.71C322.314 104.74 322.203 104.77 322.06 104.8C321.918 104.833 321.737 104.849 321.518 104.849C321.187 104.849 320.862 104.778 320.544 104.636C320.229 104.493 319.967 104.276 319.759 103.984C319.553 103.693 319.45 103.325 319.45 102.881V95.2841ZM324.019 104.75V97.1136H325.192V104.75H324.019ZM324.616 95.8409C324.387 95.8409 324.19 95.763 324.024 95.6072C323.862 95.4515 323.781 95.2642 323.781 95.0455C323.781 94.8267 323.862 94.6394 324.024 94.4837C324.19 94.3279 324.387 94.25 324.616 94.25C324.844 94.25 325.04 94.3279 325.202 94.4837C325.368 94.6394 325.451 94.8267 325.451 95.0455C325.451 95.2642 325.368 95.4515 325.202 95.6072C325.04 95.763 324.844 95.8409 324.616 95.8409ZM333.586 97.1136L330.762 104.75H329.569L326.745 97.1136H328.018L330.126 103.199H330.205L332.313 97.1136H333.586ZM338.063 104.909C337.327 104.909 336.692 104.747 336.159 104.422C335.628 104.094 335.219 103.636 334.931 103.05C334.646 102.46 334.503 101.774 334.503 100.991C334.503 100.209 334.646 99.5199 334.931 98.9233C335.219 98.3234 335.62 97.8561 336.134 97.5213C336.651 97.1832 337.254 97.0142 337.943 97.0142C338.341 97.0142 338.734 97.0805 339.122 97.2131C339.509 97.3456 339.862 97.5611 340.181 97.8594C340.499 98.1544 340.752 98.5455 340.941 99.0327C341.13 99.5199 341.225 100.12 341.225 100.832V101.33H335.338V100.315H340.031C340.031 99.8845 339.945 99.5 339.773 99.1619C339.604 98.8239 339.362 98.5571 339.047 98.3615C338.735 98.166 338.368 98.0682 337.943 98.0682C337.476 98.0682 337.072 98.1842 336.73 98.4162C336.392 98.6449 336.132 98.9432 335.95 99.3111C335.767 99.679 335.676 100.073 335.676 100.494V101.17C335.676 101.747 335.776 102.236 335.975 102.637C336.177 103.035 336.457 103.338 336.815 103.547C337.173 103.752 337.589 103.855 338.063 103.855C338.371 103.855 338.649 103.812 338.898 103.726C339.15 103.636 339.367 103.504 339.549 103.328C339.731 103.149 339.872 102.927 339.972 102.662L341.105 102.98C340.986 103.365 340.785 103.703 340.504 103.994C340.222 104.283 339.874 104.508 339.46 104.67C339.045 104.83 338.58 104.909 338.063 104.909Z" fill="#005509"/>
<rect x="274.5" y="89.25" width="83" height="21" rx="10.5" stroke="white"/>
</g>
<g filter="url(#filter6_i_821_53544)">
<rect width="131" height="40" transform="translate(0 120)" fill="white"/>
<path d="M21.7195 137.754H19.8601C19.8071 137.449 19.7093 137.179 19.5668 136.943C19.4242 136.705 19.2469 136.502 19.0348 136.337C18.8227 136.171 18.5807 136.047 18.3089 135.964C18.0405 135.878 17.7505 135.835 17.4389 135.835C16.8854 135.835 16.3949 135.974 15.9673 136.252C15.5398 136.527 15.205 136.932 14.9631 137.465C14.7211 137.996 14.6001 138.643 14.6001 139.409C14.6001 140.188 14.7211 140.844 14.9631 141.378C15.2083 141.908 15.5431 142.309 15.9673 142.581C16.3949 142.849 16.8838 142.984 17.4339 142.984C17.7389 142.984 18.0239 142.944 18.2891 142.864C18.5575 142.781 18.7978 142.661 19.0099 142.501C19.2254 142.342 19.406 142.147 19.5518 141.915C19.701 141.683 19.8037 141.418 19.8601 141.119L21.7195 141.129C21.6499 141.613 21.4991 142.067 21.267 142.491C21.0384 142.916 20.7384 143.29 20.3672 143.615C19.996 143.937 19.5618 144.188 19.0646 144.371C18.5675 144.55 18.0156 144.639 17.4091 144.639C16.5142 144.639 15.7154 144.432 15.0128 144.018C14.3101 143.603 13.7566 143.005 13.3523 142.223C12.9479 141.441 12.7457 140.503 12.7457 139.409C12.7457 138.312 12.9496 137.374 13.3572 136.595C13.7649 135.813 14.3201 135.215 15.0227 134.8C15.7254 134.386 16.5208 134.179 17.4091 134.179C17.9759 134.179 18.5028 134.259 18.9901 134.418C19.4773 134.577 19.9115 134.81 20.2926 135.119C20.6738 135.424 20.987 135.798 21.2322 136.242C21.4808 136.683 21.6432 137.187 21.7195 137.754ZM25.1287 140.026V144.5H23.329V134.318H25.089V138.161H25.1784C25.3574 137.73 25.6342 137.391 26.0087 137.142C26.3865 136.89 26.8671 136.764 27.4505 136.764C27.9808 136.764 28.4431 136.875 28.8375 137.097C29.2319 137.319 29.5369 137.644 29.7523 138.072C29.9711 138.499 30.0804 139.021 30.0804 139.638V144.5H28.2807V139.916C28.2807 139.402 28.1481 139.003 27.883 138.718C27.6212 138.43 27.2533 138.286 26.7793 138.286C26.4611 138.286 26.1761 138.355 25.9242 138.494C25.6756 138.63 25.4801 138.827 25.3375 139.086C25.1983 139.344 25.1287 139.658 25.1287 140.026ZM36.7821 141.288V136.864H38.5819V144.5H36.8368V143.143H36.7573C36.5849 143.57 36.3016 143.92 35.9071 144.192C35.516 144.464 35.0338 144.599 34.4604 144.599C33.9599 144.599 33.5175 144.488 33.133 144.266C32.7518 144.041 32.4535 143.714 32.2381 143.287C32.0227 142.856 31.915 142.336 31.915 141.726V136.864H33.7147V141.447C33.7147 141.931 33.8472 142.316 34.1124 142.601C34.3775 142.886 34.7256 143.028 35.1564 143.028C35.4216 143.028 35.6784 142.964 35.927 142.835C36.1756 142.705 36.3794 142.513 36.5385 142.258C36.7009 141.999 36.7821 141.676 36.7821 141.288ZM43.7635 144.649C43.0012 144.649 42.3466 144.482 41.7997 144.147C41.2562 143.812 40.8369 143.35 40.5419 142.76C40.2502 142.167 40.1044 141.484 40.1044 140.712C40.1044 139.936 40.2536 139.252 40.5518 138.658C40.8501 138.062 41.2711 137.598 41.8146 137.266C42.3615 136.932 43.0078 136.764 43.7536 136.764C44.3733 136.764 44.9219 136.879 45.3991 137.107C45.8797 137.333 46.2625 137.652 46.5476 138.067C46.8326 138.478 46.995 138.958 47.0348 139.509H45.3146C45.245 139.141 45.0793 138.834 44.8175 138.589C44.5589 138.34 44.2126 138.216 43.7784 138.216C43.4105 138.216 43.0874 138.315 42.8089 138.514C42.5305 138.71 42.3134 138.991 42.1577 139.359C42.0052 139.727 41.929 140.168 41.929 140.682C41.929 141.202 42.0052 141.65 42.1577 142.024C42.3101 142.395 42.5239 142.682 42.799 142.884C43.0774 143.083 43.4039 143.183 43.7784 143.183C44.0436 143.183 44.2805 143.133 44.4893 143.033C44.7015 142.931 44.8788 142.783 45.0213 142.591C45.1638 142.399 45.2616 142.165 45.3146 141.89H47.0348C46.9917 142.43 46.8326 142.909 46.5575 143.327C46.2824 143.741 45.9079 144.066 45.4339 144.301C44.96 144.533 44.4032 144.649 43.7635 144.649ZM50.1532 142.104L50.1483 139.931H50.4366L53.1809 136.864H55.2839L51.9082 140.622H51.5353L50.1532 142.104ZM48.5126 144.5V134.318H50.3123V144.5H48.5126ZM53.3052 144.5L50.8194 141.025L52.0325 139.757L55.4579 144.5H53.3052ZM63.4858 144.5H60.0355V134.318H63.5554C64.5663 134.318 65.4347 134.522 66.1605 134.93C66.8897 135.334 67.4498 135.916 67.8409 136.675C68.232 137.434 68.4276 138.342 68.4276 139.399C68.4276 140.46 68.2304 141.371 67.8359 142.134C67.4448 142.896 66.8797 143.481 66.1406 143.888C65.4048 144.296 64.5199 144.5 63.4858 144.5ZM61.88 142.904H63.3963C64.1056 142.904 64.6972 142.775 65.1712 142.516C65.6451 142.254 66.0014 141.865 66.2401 141.348C66.4787 140.828 66.598 140.178 66.598 139.399C66.598 138.62 66.4787 137.974 66.2401 137.46C66.0014 136.943 65.6484 136.557 65.1811 136.302C64.7171 136.043 64.1404 135.914 63.451 135.914H61.88V142.904Z" fill="#545454"/>
</g>
<g filter="url(#filter7_i_821_53544)">
<rect width="131" height="40" transform="translate(131 120)" fill="white"/>
<rect x="143" y="137.5" width="4" height="4" rx="2" fill="#815FDD"/>
<path d="M157.801 136.864C157.741 136.36 157.5 135.969 157.075 135.69C156.651 135.412 156.131 135.273 155.514 135.273C155.063 135.273 154.669 135.346 154.331 135.491C153.996 135.637 153.734 135.838 153.545 136.093C153.36 136.348 153.267 136.638 153.267 136.963C153.267 137.235 153.332 137.469 153.461 137.664C153.594 137.856 153.763 138.017 153.968 138.146C154.174 138.272 154.389 138.377 154.614 138.46C154.84 138.539 155.047 138.604 155.236 138.653L156.27 138.932C156.535 139.001 156.83 139.098 157.155 139.22C157.483 139.343 157.796 139.51 158.094 139.722C158.396 139.931 158.645 140.2 158.84 140.528C159.036 140.856 159.134 141.259 159.134 141.736C159.134 142.286 158.989 142.783 158.701 143.227C158.416 143.671 157.998 144.024 157.448 144.286C156.901 144.548 156.237 144.679 155.455 144.679C154.725 144.679 154.094 144.561 153.56 144.326C153.03 144.091 152.612 143.763 152.308 143.342C152.006 142.921 151.835 142.432 151.795 141.875H153.068C153.101 142.259 153.231 142.578 153.456 142.83C153.685 143.078 153.973 143.264 154.321 143.386C154.672 143.506 155.05 143.565 155.455 143.565C155.925 143.565 156.348 143.489 156.722 143.337C157.097 143.181 157.393 142.965 157.612 142.69C157.831 142.412 157.94 142.087 157.94 141.716C157.94 141.378 157.846 141.103 157.657 140.891C157.468 140.679 157.219 140.506 156.911 140.374C156.603 140.241 156.27 140.125 155.912 140.026L154.659 139.668C153.864 139.439 153.234 139.112 152.77 138.688C152.306 138.264 152.074 137.709 152.074 137.023C152.074 136.453 152.228 135.955 152.536 135.531C152.848 135.104 153.265 134.772 153.789 134.537C154.316 134.298 154.904 134.179 155.554 134.179C156.21 134.179 156.794 134.297 157.304 134.532C157.814 134.764 158.219 135.082 158.517 135.487C158.819 135.891 158.978 136.35 158.994 136.864H157.801ZM164.104 144.659C163.388 144.659 162.771 144.49 162.254 144.152C161.737 143.814 161.34 143.348 161.061 142.755C160.783 142.162 160.644 141.484 160.644 140.722C160.644 139.946 160.786 139.262 161.071 138.668C161.36 138.072 161.761 137.606 162.274 137.271C162.791 136.933 163.395 136.764 164.084 136.764C164.621 136.764 165.105 136.864 165.536 137.062C165.967 137.261 166.32 137.54 166.595 137.898C166.87 138.256 167.04 138.673 167.107 139.151H165.933C165.844 138.803 165.645 138.494 165.337 138.226C165.032 137.954 164.621 137.818 164.104 137.818C163.646 137.818 163.245 137.937 162.901 138.176C162.559 138.411 162.293 138.745 162.1 139.175C161.911 139.603 161.817 140.105 161.817 140.682C161.817 141.272 161.91 141.786 162.095 142.223C162.284 142.661 162.549 143 162.891 143.242C163.235 143.484 163.64 143.605 164.104 143.605C164.409 143.605 164.686 143.552 164.934 143.446C165.183 143.34 165.393 143.188 165.566 142.989C165.738 142.79 165.86 142.551 165.933 142.273H167.107C167.04 142.723 166.876 143.129 166.615 143.491C166.356 143.849 166.013 144.134 165.585 144.346C165.161 144.555 164.667 144.659 164.104 144.659ZM168.822 144.5V136.864H169.995V144.5H168.822ZM169.419 135.591C169.19 135.591 168.993 135.513 168.827 135.357C168.664 135.201 168.583 135.014 168.583 134.795C168.583 134.577 168.664 134.389 168.827 134.234C168.993 134.078 169.19 134 169.419 134C169.647 134 169.843 134.078 170.005 134.234C170.171 134.389 170.254 134.577 170.254 134.795C170.254 135.014 170.171 135.201 170.005 135.357C169.843 135.513 169.647 135.591 169.419 135.591ZM175.346 144.659C174.61 144.659 173.975 144.497 173.442 144.172C172.911 143.844 172.502 143.386 172.214 142.8C171.929 142.21 171.786 141.524 171.786 140.741C171.786 139.959 171.929 139.27 172.214 138.673C172.502 138.073 172.903 137.606 173.417 137.271C173.934 136.933 174.537 136.764 175.227 136.764C175.624 136.764 176.017 136.83 176.405 136.963C176.793 137.096 177.146 137.311 177.464 137.609C177.782 137.904 178.036 138.295 178.224 138.783C178.413 139.27 178.508 139.87 178.508 140.582V141.08H172.621V140.065H177.315C177.315 139.634 177.228 139.25 177.056 138.912C176.887 138.574 176.645 138.307 176.33 138.112C176.019 137.916 175.651 137.818 175.227 137.818C174.759 137.818 174.355 137.934 174.013 138.166C173.675 138.395 173.415 138.693 173.233 139.061C173.051 139.429 172.96 139.823 172.96 140.244V140.92C172.96 141.497 173.059 141.986 173.258 142.387C173.46 142.785 173.74 143.088 174.098 143.297C174.456 143.502 174.872 143.605 175.346 143.605C175.654 143.605 175.933 143.562 176.181 143.476C176.433 143.386 176.65 143.254 176.832 143.078C177.015 142.899 177.156 142.677 177.255 142.412L178.388 142.73C178.269 143.115 178.069 143.453 177.787 143.744C177.505 144.033 177.157 144.258 176.743 144.42C176.329 144.58 175.863 144.659 175.346 144.659ZM181.466 139.906V144.5H180.293V136.864H181.426V138.057H181.526C181.705 137.669 181.976 137.357 182.341 137.122C182.705 136.884 183.176 136.764 183.753 136.764C184.27 136.764 184.722 136.87 185.11 137.082C185.498 137.291 185.799 137.609 186.015 138.037C186.23 138.461 186.338 138.998 186.338 139.648V144.5H185.165V139.727C185.165 139.127 185.009 138.66 184.697 138.325C184.386 137.987 183.958 137.818 183.415 137.818C183.04 137.818 182.705 137.899 182.411 138.062C182.119 138.224 181.888 138.461 181.719 138.773C181.55 139.084 181.466 139.462 181.466 139.906ZM191.584 144.659C190.868 144.659 190.252 144.49 189.735 144.152C189.218 143.814 188.82 143.348 188.542 142.755C188.263 142.162 188.124 141.484 188.124 140.722C188.124 139.946 188.267 139.262 188.552 138.668C188.84 138.072 189.241 137.606 189.755 137.271C190.272 136.933 190.875 136.764 191.564 136.764C192.101 136.764 192.585 136.864 193.016 137.062C193.447 137.261 193.8 137.54 194.075 137.898C194.35 138.256 194.521 138.673 194.587 139.151H193.414C193.324 138.803 193.126 138.494 192.817 138.226C192.512 137.954 192.101 137.818 191.584 137.818C191.127 137.818 190.726 137.937 190.381 138.176C190.04 138.411 189.773 138.745 189.581 139.175C189.392 139.603 189.297 140.105 189.297 140.682C189.297 141.272 189.39 141.786 189.576 142.223C189.765 142.661 190.03 143 190.371 143.242C190.716 143.484 191.12 143.605 191.584 143.605C191.889 143.605 192.166 143.552 192.415 143.446C192.663 143.34 192.874 143.188 193.046 142.989C193.218 142.79 193.341 142.551 193.414 142.273H194.587C194.521 142.723 194.357 143.129 194.095 143.491C193.836 143.849 193.493 144.134 193.066 144.346C192.642 144.555 192.148 144.659 191.584 144.659ZM199.504 144.659C198.768 144.659 198.134 144.497 197.6 144.172C197.07 143.844 196.66 143.386 196.372 142.8C196.087 142.21 195.944 141.524 195.944 140.741C195.944 139.959 196.087 139.27 196.372 138.673C196.66 138.073 197.061 137.606 197.575 137.271C198.092 136.933 198.695 136.764 199.385 136.764C199.782 136.764 200.175 136.83 200.563 136.963C200.951 137.096 201.304 137.311 201.622 137.609C201.94 137.904 202.194 138.295 202.383 138.783C202.572 139.27 202.666 139.87 202.666 140.582V141.08H196.78V140.065H201.473C201.473 139.634 201.387 139.25 201.214 138.912C201.045 138.574 200.803 138.307 200.488 138.112C200.177 137.916 199.809 137.818 199.385 137.818C198.917 137.818 198.513 137.934 198.172 138.166C197.834 138.395 197.573 138.693 197.391 139.061C197.209 139.429 197.118 139.823 197.118 140.244V140.92C197.118 141.497 197.217 141.986 197.416 142.387C197.618 142.785 197.898 143.088 198.256 143.297C198.614 143.502 199.03 143.605 199.504 143.605C199.812 143.605 200.091 143.562 200.339 143.476C200.591 143.386 200.808 143.254 200.991 143.078C201.173 142.899 201.314 142.677 201.413 142.412L202.547 142.73C202.427 143.115 202.227 143.453 201.945 143.744C201.663 144.033 201.315 144.258 200.901 144.42C200.487 144.58 200.021 144.659 199.504 144.659Z" fill="#545454"/>
<g clip-path="url(#clip1_821_53544)">
<path d="M215.67 141.79C215.32 141.79 215.05 141.51 215.05 141.17V139.17C215.05 138.82 215.33 138.55 215.67 138.55C216.01 138.55 216.29 138.83 216.29 139.17V141.17C216.29 141.52 216.01 141.79 215.67 141.79Z" fill="#545454"/>
<path d="M215.67 137.79C215.58 137.79 215.5 137.77 215.43 137.74C215.35 137.71 215.28 137.67 215.22 137.61C215.17 137.55 215.12 137.48 215.09 137.41C215.06 137.33 215.04 137.25 215.04 137.17C215.04 137.09 215.06 137 215.09 136.93C215.12 136.85 215.17 136.78 215.22 136.73C215.28 136.67 215.35 136.62 215.43 136.59C215.58 136.53 215.75 136.53 215.91 136.59C215.98 136.62 216.05 136.67 216.11 136.73C216.17 136.78 216.21 136.85 216.24 136.93C216.28 137 216.29 137.09 216.29 137.17C216.29 137.33 216.23 137.49 216.11 137.61C215.99 137.72 215.83 137.79 215.67 137.79Z" fill="#545454"/>
<path d="M215.67 146.46C211.65 146.46 208.38 143.19 208.38 139.17C208.38 135.15 211.65 131.88 215.67 131.88C219.69 131.88 222.96 135.15 222.96 139.17C222.96 143.19 219.69 146.46 215.67 146.46ZM215.67 133.12C212.33 133.12 209.62 135.84 209.62 139.17C209.62 142.5 212.33 145.21 215.66 145.21C218.99 145.21 221.7 142.5 221.7 139.17C221.7 135.84 219 133.12 215.67 133.12Z" fill="#545454"/>
</g>
</g>
<g filter="url(#filter8_i_821_53544)">
<rect width="131" height="40" transform="translate(262 120)" fill="white"/>
<rect x="274.5" y="129" width="85" height="21" rx="10.5" fill="#FFF5E2"/>
<path d="M293.128 144.5L290.344 134.318H291.597L293.725 142.611H293.824L295.992 134.318H297.384L299.552 142.611H299.651L301.779 134.318H303.032L300.248 144.5H298.975L296.728 136.386H296.648L294.401 144.5H293.128ZM305.945 144.679C305.461 144.679 305.022 144.588 304.628 144.406C304.233 144.22 303.92 143.953 303.688 143.605C303.456 143.254 303.34 142.83 303.34 142.332C303.34 141.895 303.426 141.54 303.598 141.268C303.771 140.993 304.001 140.778 304.29 140.622C304.578 140.466 304.896 140.35 305.244 140.274C305.595 140.195 305.948 140.132 306.303 140.085C306.767 140.026 307.143 139.981 307.432 139.951C307.723 139.918 307.935 139.863 308.068 139.787C308.204 139.711 308.272 139.578 308.272 139.389V139.349C308.272 138.859 308.138 138.478 307.869 138.206C307.604 137.934 307.201 137.798 306.661 137.798C306.101 137.798 305.662 137.921 305.343 138.166C305.025 138.411 304.802 138.673 304.672 138.952L303.559 138.554C303.758 138.09 304.023 137.729 304.354 137.47C304.689 137.208 305.053 137.026 305.448 136.923C305.846 136.817 306.237 136.764 306.621 136.764C306.866 136.764 307.148 136.794 307.466 136.854C307.788 136.91 308.098 137.028 308.396 137.207C308.698 137.386 308.948 137.656 309.147 138.017C309.346 138.378 309.445 138.862 309.445 139.469V144.5H308.272V143.466H308.212C308.133 143.632 308 143.809 307.814 143.998C307.629 144.187 307.382 144.348 307.074 144.48C306.765 144.613 306.389 144.679 305.945 144.679ZM306.124 143.625C306.588 143.625 306.979 143.534 307.297 143.352C307.619 143.169 307.861 142.934 308.023 142.646C308.189 142.357 308.272 142.054 308.272 141.736V140.662C308.222 140.722 308.113 140.776 307.944 140.826C307.778 140.872 307.586 140.914 307.367 140.95C307.151 140.983 306.941 141.013 306.736 141.04C306.533 141.063 306.369 141.083 306.243 141.099C305.938 141.139 305.653 141.204 305.388 141.293C305.126 141.379 304.914 141.51 304.752 141.686C304.593 141.858 304.513 142.094 304.513 142.392C304.513 142.8 304.664 143.108 304.966 143.317C305.271 143.522 305.657 143.625 306.124 143.625ZM311.587 144.5V136.864H312.72V138.017H312.8C312.939 137.639 313.191 137.333 313.555 137.097C313.92 136.862 314.331 136.744 314.788 136.744C314.874 136.744 314.982 136.746 315.111 136.749C315.241 136.753 315.338 136.758 315.405 136.764V137.957C315.365 137.947 315.274 137.933 315.131 137.913C314.992 137.889 314.845 137.878 314.689 137.878C314.318 137.878 313.986 137.956 313.695 138.112C313.406 138.264 313.177 138.476 313.008 138.748C312.843 139.016 312.76 139.323 312.76 139.668V144.5H311.587ZM317.969 139.906V144.5H316.796V136.864H317.929V138.057H318.028C318.207 137.669 318.479 137.357 318.844 137.122C319.208 136.884 319.679 136.764 320.256 136.764C320.773 136.764 321.225 136.87 321.613 137.082C322.001 137.291 322.302 137.609 322.518 138.037C322.733 138.461 322.841 138.998 322.841 139.648V144.5H321.668V139.727C321.668 139.127 321.512 138.66 321.2 138.325C320.889 137.987 320.461 137.818 319.918 137.818C319.543 137.818 319.208 137.899 318.913 138.062C318.622 138.224 318.391 138.461 318.222 138.773C318.053 139.084 317.969 139.462 317.969 139.906ZM324.985 144.5V136.864H326.158V144.5H324.985ZM325.582 135.591C325.353 135.591 325.156 135.513 324.99 135.357C324.828 135.201 324.746 135.014 324.746 134.795C324.746 134.577 324.828 134.389 324.99 134.234C325.156 134.078 325.353 134 325.582 134C325.81 134 326.006 134.078 326.168 134.234C326.334 134.389 326.417 134.577 326.417 134.795C326.417 135.014 326.334 135.201 326.168 135.357C326.006 135.513 325.81 135.591 325.582 135.591ZM329.481 139.906V144.5H328.307V136.864H329.441V138.057H329.54C329.719 137.669 329.991 137.357 330.356 137.122C330.72 136.884 331.191 136.764 331.767 136.764C332.285 136.764 332.737 136.87 333.125 137.082C333.513 137.291 333.814 137.609 334.03 138.037C334.245 138.461 334.353 138.998 334.353 139.648V144.5H333.179V139.727C333.179 139.127 333.024 138.66 332.712 138.325C332.401 137.987 331.973 137.818 331.429 137.818C331.055 137.818 330.72 137.899 330.425 138.062C330.133 138.224 329.903 138.461 329.734 138.773C329.565 139.084 329.481 139.462 329.481 139.906ZM339.579 147.523C339.012 147.523 338.525 147.45 338.117 147.304C337.71 147.161 337.37 146.973 337.098 146.737C336.83 146.505 336.616 146.257 336.457 145.991L337.392 145.335C337.498 145.474 337.632 145.634 337.794 145.812C337.957 145.995 338.179 146.152 338.46 146.285C338.746 146.421 339.118 146.489 339.579 146.489C340.196 146.489 340.704 146.339 341.105 146.041C341.506 145.743 341.707 145.276 341.707 144.639V143.088H341.608C341.521 143.227 341.399 143.4 341.24 143.605C341.084 143.807 340.858 143.988 340.563 144.147C340.272 144.303 339.877 144.381 339.38 144.381C338.764 144.381 338.21 144.235 337.72 143.943C337.233 143.652 336.846 143.227 336.561 142.67C336.28 142.114 336.139 141.437 336.139 140.642C336.139 139.86 336.276 139.179 336.551 138.599C336.826 138.015 337.209 137.565 337.7 137.246C338.19 136.925 338.757 136.764 339.4 136.764C339.897 136.764 340.292 136.847 340.583 137.013C340.878 137.175 341.104 137.361 341.259 137.57C341.419 137.775 341.541 137.944 341.627 138.077H341.747V136.864H342.88V144.719C342.88 145.375 342.731 145.909 342.433 146.32C342.138 146.734 341.74 147.037 341.24 147.229C340.742 147.425 340.189 147.523 339.579 147.523ZM339.539 143.327C340.01 143.327 340.408 143.219 340.733 143.004C341.057 142.788 341.304 142.478 341.473 142.074C341.642 141.67 341.727 141.186 341.727 140.622C341.727 140.072 341.644 139.586 341.478 139.165C341.313 138.745 341.067 138.415 340.742 138.176C340.418 137.937 340.017 137.818 339.539 137.818C339.042 137.818 338.628 137.944 338.296 138.196C337.968 138.448 337.721 138.786 337.556 139.21C337.393 139.634 337.312 140.105 337.312 140.622C337.312 141.152 337.395 141.621 337.561 142.029C337.73 142.433 337.978 142.752 338.306 142.984C338.638 143.212 339.049 143.327 339.539 143.327Z" fill="#1F1F1F"/>
<rect x="274.5" y="129" width="85" height="21" rx="10.5" stroke="white"/>
</g>
<defs>
<filter id="filter0_i_821_53544" x="0" y="40.75" width="131" height="40" filterUnits="userSpaceOnUse" color-interpolation-filters="sRGB">
<feFlood flood-opacity="0" result="BackgroundImageFix"/>
<feBlend mode="normal" in="SourceGraphic" in2="BackgroundImageFix" result="shape"/>
<feColorMatrix in="SourceAlpha" type="matrix" values="0 0 0 0 0 0 0 0 0 0 0 0 0 0 0 0 0 0 127 0" result="hardAlpha"/>
<feOffset dy="-1"/>
<feComposite in2="hardAlpha" operator="arithmetic" k2="-1" k3="1"/>
<feColorMatrix type="matrix" values="0 0 0 0 0.933333 0 0 0 0 0.933333 0 0 0 0 0.933333 0 0 0 1 0"/>
<feBlend mode="normal" in2="shape" result="effect1_innerShadow_821_53544"/>
</filter>
<filter id="filter1_i_821_53544" x="131" y="40.75" width="131" height="40" filterUnits="userSpaceOnUse" color-interpolation-filters="sRGB">
<feFlood flood-opacity="0" result="BackgroundImageFix"/>
<feBlend mode="normal" in="SourceGraphic" in2="BackgroundImageFix" result="shape"/>
<feColorMatrix in="SourceAlpha" type="matrix" values="0 0 0 0 0 0 0 0 0 0 0 0 0 0 0 0 0 0 127 0" result="hardAlpha"/>
<feOffset dy="-1"/>
<feComposite in2="hardAlpha" operator="arithmetic" k2="-1" k3="1"/>
<feColorMatrix type="matrix" values="0 0 0 0 0.933333 0 0 0 0 0.933333 0 0 0 0 0.933333 0 0 0 1 0"/>
<feBlend mode="normal" in2="shape" result="effect1_innerShadow_821_53544"/>
</filter>
<filter id="filter2_i_821_53544" x="262" y="40.75" width="131" height="40" filterUnits="userSpaceOnUse" color-interpolation-filters="sRGB">
<feFlood flood-opacity="0" result="BackgroundImageFix"/>
<feBlend mode="normal" in="SourceGraphic" in2="BackgroundImageFix" result="shape"/>
<feColorMatrix in="SourceAlpha" type="matrix" values="0 0 0 0 0 0 0 0 0 0 0 0 0 0 0 0 0 0 127 0" result="hardAlpha"/>
<feOffset dy="-1"/>
<feComposite in2="hardAlpha" operator="arithmetic" k2="-1" k3="1"/>
<feColorMatrix type="matrix" values="0 0 0 0 0.933333 0 0 0 0 0.933333 0 0 0 0 0.933333 0 0 0 1 0"/>
<feBlend mode="normal" in2="shape" result="effect1_innerShadow_821_53544"/>
</filter>
<filter id="filter3_i_821_53544" x="0" y="80.25" width="188" height="40" filterUnits="userSpaceOnUse" color-interpolation-filters="sRGB">
<feFlood flood-opacity="0" result="BackgroundImageFix"/>
<feBlend mode="normal" in="SourceGraphic" in2="BackgroundImageFix" result="shape"/>
<feColorMatrix in="SourceAlpha" type="matrix" values="0 0 0 0 0 0 0 0 0 0 0 0 0 0 0 0 0 0 127 0" result="hardAlpha"/>
<feOffset dy="-1"/>
<feComposite in2="hardAlpha" operator="arithmetic" k2="-1" k3="1"/>
<feColorMatrix type="matrix" values="0 0 0 0 0.933333 0 0 0 0 0.933333 0 0 0 0 0.933333 0 0 0 1 0"/>
<feBlend mode="normal" in2="shape" result="effect1_innerShadow_821_53544"/>
</filter>
<filter id="filter4_i_821_53544" x="131" y="80.25" width="131" height="40" filterUnits="userSpaceOnUse" color-interpolation-filters="sRGB">
<feFlood flood-opacity="0" result="BackgroundImageFix"/>
<feBlend mode="normal" in="SourceGraphic" in2="BackgroundImageFix" result="shape"/>
<feColorMatrix in="SourceAlpha" type="matrix" values="0 0 0 0 0 0 0 0 0 0 0 0 0 0 0 0 0 0 127 0" result="hardAlpha"/>
<feOffset dy="-1"/>
<feComposite in2="hardAlpha" operator="arithmetic" k2="-1" k3="1"/>
<feColorMatrix type="matrix" values="0 0 0 0 0.933333 0 0 0 0 0.933333 0 0 0 0 0.933333 0 0 0 1 0"/>
<feBlend mode="normal" in2="shape" result="effect1_innerShadow_821_53544"/>
</filter>
<filter id="filter5_i_821_53544" x="262" y="80.25" width="131" height="40" filterUnits="userSpaceOnUse" color-interpolation-filters="sRGB">
<feFlood flood-opacity="0" result="BackgroundImageFix"/>
<feBlend mode="normal" in="SourceGraphic" in2="BackgroundImageFix" result="shape"/>
<feColorMatrix in="SourceAlpha" type="matrix" values="0 0 0 0 0 0 0 0 0 0 0 0 0 0 0 0 0 0 127 0" result="hardAlpha"/>
<feOffset dy="-1"/>
<feComposite in2="hardAlpha" operator="arithmetic" k2="-1" k3="1"/>
<feColorMatrix type="matrix" values="0 0 0 0 0.933333 0 0 0 0 0.933333 0 0 0 0 0.933333 0 0 0 1 0"/>
<feBlend mode="normal" in2="shape" result="effect1_innerShadow_821_53544"/>
</filter>
<filter id="filter6_i_821_53544" x="0" y="120" width="131" height="40" filterUnits="userSpaceOnUse" color-interpolation-filters="sRGB">
<feFlood flood-opacity="0" result="BackgroundImageFix"/>
<feBlend mode="normal" in="SourceGraphic" in2="BackgroundImageFix" result="shape"/>
<feColorMatrix in="SourceAlpha" type="matrix" values="0 0 0 0 0 0 0 0 0 0 0 0 0 0 0 0 0 0 127 0" result="hardAlpha"/>
<feOffset dy="-1"/>
<feComposite in2="hardAlpha" operator="arithmetic" k2="-1" k3="1"/>
<feColorMatrix type="matrix" values="0 0 0 0 0.933333 0 0 0 0 0.933333 0 0 0 0 0.933333 0 0 0 1 0"/>
<feBlend mode="normal" in2="shape" result="effect1_innerShadow_821_53544"/>
</filter>
<filter id="filter7_i_821_53544" x="131" y="120" width="131" height="40" filterUnits="userSpaceOnUse" color-interpolation-filters="sRGB">
<feFlood flood-opacity="0" result="BackgroundImageFix"/>
<feBlend mode="normal" in="SourceGraphic" in2="BackgroundImageFix" result="shape"/>
<feColorMatrix in="SourceAlpha" type="matrix" values="0 0 0 0 0 0 0 0 0 0 0 0 0 0 0 0 0 0 127 0" result="hardAlpha"/>
<feOffset dy="-1"/>
<feComposite in2="hardAlpha" operator="arithmetic" k2="-1" k3="1"/>
<feColorMatrix type="matrix" values="0 0 0 0 0.933333 0 0 0 0 0.933333 0 0 0 0 0.933333 0 0 0 1 0"/>
<feBlend mode="normal" in2="shape" result="effect1_innerShadow_821_53544"/>
</filter>
<filter id="filter8_i_821_53544" x="262" y="120" width="131" height="40" filterUnits="userSpaceOnUse" color-interpolation-filters="sRGB">
<feFlood flood-opacity="0" result="BackgroundImageFix"/>
<feBlend mode="normal" in="SourceGraphic" in2="BackgroundImageFix" result="shape"/>
<feColorMatrix in="SourceAlpha" type="matrix" values="0 0 0 0 0 0 0 0 0 0 0 0 0 0 0 0 0 0 127 0" result="hardAlpha"/>
<feOffset dy="-1"/>
<feComposite in2="hardAlpha" operator="arithmetic" k2="-1" k3="1"/>
<feColorMatrix type="matrix" values="0 0 0 0 0.933333 0 0 0 0 0.933333 0 0 0 0 0.933333 0 0 0 1 0"/>
<feBlend mode="normal" in2="shape" result="effect1_innerShadow_821_53544"/>
</filter>
<clipPath id="clip0_821_53544">
<rect width="16" height="16" fill="white" transform="translate(184 52.25)"/>
</clipPath>
<clipPath id="clip1_821_53544">
<rect width="16" height="16" fill="white" transform="translate(208 131.5)"/>
</clipPath>
</defs>
</svg>
