<svg width="232" height="196" viewBox="0 0 232 196" fill="none" xmlns="http://www.w3.org/2000/svg">
<g filter="url(#filter0_dd_821_51775)">
<rect x="6" y="3" width="220" height="184" rx="4" fill="white"/>
<path d="M25.4716 20.5625C25.4186 20.0663 25.1951 19.6799 24.8011 19.4034C24.411 19.1269 23.9034 18.9886 23.2784 18.9886C22.839 18.9886 22.4621 19.0549 22.1477 19.1875C21.8333 19.3201 21.5928 19.5 21.4261 19.7273C21.2595 19.9545 21.1742 20.214 21.1705 20.5057C21.1705 20.7481 21.2254 20.9583 21.3352 21.1364C21.4489 21.3144 21.6023 21.4659 21.7955 21.5909C21.9886 21.7121 22.2027 21.8144 22.4375 21.8977C22.6723 21.9811 22.9091 22.0511 23.1477 22.108L24.2386 22.3807C24.678 22.483 25.1004 22.6212 25.5057 22.7955C25.9148 22.9697 26.2803 23.1894 26.6023 23.4545C26.928 23.7197 27.1856 24.0398 27.375 24.4148C27.5644 24.7898 27.6591 25.2292 27.6591 25.733C27.6591 26.4148 27.4848 27.0152 27.1364 27.5341C26.7879 28.0492 26.2841 28.4527 25.625 28.7443C24.9697 29.0322 24.1761 29.1761 23.2443 29.1761C22.339 29.1761 21.553 29.036 20.8864 28.7557C20.2235 28.4754 19.7045 28.0663 19.3295 27.5284C18.9583 26.9905 18.7576 26.3352 18.7273 25.5625H20.8011C20.8314 25.9678 20.9564 26.3049 21.1761 26.5739C21.3958 26.8428 21.6818 27.0436 22.0341 27.1761C22.3902 27.3087 22.7879 27.375 23.2273 27.375C23.6856 27.375 24.0871 27.3068 24.4318 27.1705C24.7803 27.0303 25.053 26.8371 25.25 26.5909C25.447 26.3409 25.5473 26.0492 25.5511 25.7159C25.5473 25.4129 25.4583 25.1629 25.2841 24.9659C25.1098 24.7652 24.8655 24.5985 24.5511 24.4659C24.2405 24.3295 23.8769 24.2083 23.4602 24.1023L22.1364 23.7614C21.178 23.5152 20.4205 23.142 19.8636 22.642C19.3106 22.1383 19.0341 21.4697 19.0341 20.6364C19.0341 19.9508 19.2197 19.3504 19.5909 18.8352C19.9659 18.3201 20.4754 17.9205 21.1193 17.6364C21.7633 17.3485 22.4924 17.2045 23.3068 17.2045C24.1326 17.2045 24.8561 17.3485 25.4773 17.6364C26.1023 17.9205 26.5928 18.3163 26.9489 18.8239C27.3049 19.3277 27.4886 19.9072 27.5 20.5625H25.4716ZM35.0099 25.3295V20.2727H37.0668V29H35.0724V27.4489H34.9815C34.7846 27.9375 34.4607 28.3371 34.0099 28.6477C33.563 28.9583 33.0118 29.1136 32.3565 29.1136C31.7846 29.1136 31.2789 28.9867 30.8395 28.733C30.4039 28.4754 30.063 28.1023 29.8168 27.6136C29.5705 27.1212 29.4474 26.5265 29.4474 25.8295V20.2727H31.5043V25.5114C31.5043 26.0644 31.6558 26.5038 31.9588 26.8295C32.2618 27.1553 32.6596 27.3182 33.152 27.3182C33.455 27.3182 33.7486 27.2443 34.0327 27.0966C34.3168 26.9489 34.5497 26.7292 34.7315 26.4375C34.9171 26.142 35.0099 25.7727 35.0099 25.3295ZM39.2727 29V17.3636H41.3295V21.7159H41.4148C41.5208 21.5038 41.6705 21.2784 41.8636 21.0398C42.0568 20.7973 42.3182 20.5909 42.6477 20.4205C42.9773 20.2462 43.3977 20.1591 43.9091 20.1591C44.5833 20.1591 45.1913 20.3314 45.733 20.6761C46.2784 21.017 46.7102 21.5227 47.0284 22.1932C47.3504 22.8598 47.5114 23.678 47.5114 24.6477C47.5114 25.6061 47.3542 26.4205 47.0398 27.0909C46.7254 27.7614 46.2973 28.2727 45.7557 28.625C45.214 28.9773 44.6004 29.1534 43.9148 29.1534C43.4148 29.1534 43 29.0701 42.6705 28.9034C42.3409 28.7367 42.0758 28.536 41.875 28.3011C41.678 28.0625 41.5246 27.8371 41.4148 27.625H41.2955V29H39.2727ZM41.2898 24.6364C41.2898 25.2008 41.3693 25.6951 41.5284 26.1193C41.6913 26.5436 41.9242 26.875 42.2273 27.1136C42.5341 27.3485 42.9053 27.4659 43.3409 27.4659C43.7955 27.4659 44.1761 27.3447 44.483 27.1023C44.7898 26.8561 45.0208 26.5208 45.1761 26.0966C45.3352 25.6686 45.4148 25.1818 45.4148 24.6364C45.4148 24.0947 45.3371 23.6136 45.1818 23.1932C45.0265 22.7727 44.7955 22.4432 44.4886 22.2045C44.1818 21.9659 43.7992 21.8466 43.3409 21.8466C42.9015 21.8466 42.5284 21.9621 42.2216 22.1932C41.9148 22.4242 41.6818 22.7481 41.5227 23.1648C41.3674 23.5814 41.2898 24.072 41.2898 24.6364ZM49.2599 20.2727H51.3168V29.5C51.3168 30.1288 51.1974 30.6477 50.9588 31.0568C50.7202 31.4659 50.3755 31.7708 49.9247 31.9716C49.474 32.1723 48.9266 32.2727 48.2827 32.2727C48.2069 32.2727 48.1368 32.2708 48.0724 32.267C48.008 32.267 47.938 32.2652 47.8622 32.2614V30.5852C47.919 30.589 47.9702 30.5909 48.0156 30.5909C48.0611 30.5947 48.1084 30.5966 48.1577 30.5966C48.5516 30.5966 48.8338 30.5 49.0043 30.3068C49.1747 30.1174 49.2599 29.839 49.2599 29.4716V20.2727ZM50.2827 19.0341C49.9531 19.0341 49.6709 18.9261 49.4361 18.7102C49.205 18.4905 49.0895 18.2273 49.0895 17.9205C49.0895 17.6098 49.205 17.3466 49.4361 17.1307C49.6709 16.911 49.9531 16.8011 50.2827 16.8011C50.6084 16.8011 50.8868 16.911 51.1179 17.1307C51.3527 17.3466 51.4702 17.6098 51.4702 17.9205C51.4702 18.2273 51.3527 18.4905 51.1179 18.7102C50.8868 18.9261 50.6084 19.0341 50.2827 19.0341ZM57.2955 29.1705C56.4205 29.1705 55.6648 28.9886 55.0284 28.625C54.3958 28.2576 53.9091 27.7386 53.5682 27.0682C53.2273 26.3939 53.0568 25.6004 53.0568 24.6875C53.0568 23.7898 53.2273 23.0019 53.5682 22.3239C53.9129 21.642 54.3939 21.1117 55.0114 20.733C55.6288 20.3504 56.3542 20.1591 57.1875 20.1591C57.7254 20.1591 58.233 20.2462 58.7102 20.4205C59.1913 20.5909 59.6155 20.8561 59.983 21.2159C60.3542 21.5758 60.6458 22.0341 60.858 22.5909C61.0701 23.1439 61.1761 23.803 61.1761 24.5682V25.1989H54.0227V23.8125H59.2045C59.2008 23.4186 59.1155 23.0682 58.9489 22.7614C58.7822 22.4508 58.5492 22.2064 58.25 22.0284C57.9545 21.8504 57.6098 21.7614 57.2159 21.7614C56.7955 21.7614 56.4261 21.8636 56.108 22.0682C55.7898 22.2689 55.5417 22.5341 55.3636 22.8636C55.1894 23.1894 55.1004 23.5473 55.0966 23.9375V25.1477C55.0966 25.6553 55.1894 26.0909 55.375 26.4545C55.5606 26.8144 55.8201 27.0909 56.1534 27.2841C56.4867 27.4735 56.8769 27.5682 57.3239 27.5682C57.6231 27.5682 57.8939 27.5265 58.1364 27.4432C58.3788 27.3561 58.589 27.2292 58.767 27.0625C58.9451 26.8958 59.0795 26.6894 59.1705 26.4432L61.0909 26.6591C60.9697 27.1667 60.7386 27.6098 60.3977 27.9886C60.0606 28.3636 59.6288 28.6553 59.1023 28.8636C58.5758 29.0682 57.9735 29.1705 57.2955 29.1705ZM66.723 29.1705C65.8518 29.1705 65.1037 28.9792 64.4787 28.5966C63.8575 28.214 63.3783 27.6856 63.0412 27.0114C62.7079 26.3333 62.5412 25.553 62.5412 24.6705C62.5412 23.7841 62.7116 23.0019 63.0526 22.3239C63.3935 21.642 63.8745 21.1117 64.4957 20.733C65.1207 20.3504 65.8594 20.1591 66.7116 20.1591C67.42 20.1591 68.0469 20.2898 68.5923 20.5511C69.1416 20.8087 69.5791 21.1742 69.9048 21.6477C70.2306 22.1174 70.4162 22.6667 70.4616 23.2955H68.4957C68.4162 22.875 68.2268 22.5246 67.9276 22.2443C67.6321 21.9602 67.2363 21.8182 66.7401 21.8182C66.3196 21.8182 65.9503 21.9318 65.6321 22.1591C65.3139 22.3826 65.0658 22.7045 64.8878 23.125C64.7135 23.5455 64.6264 24.0492 64.6264 24.6364C64.6264 25.2311 64.7135 25.7424 64.8878 26.1705C65.062 26.5947 65.3063 26.9223 65.6207 27.1534C65.9389 27.3807 66.312 27.4943 66.7401 27.4943C67.0431 27.4943 67.3139 27.4375 67.5526 27.3239C67.795 27.2064 67.9976 27.0379 68.1605 26.8182C68.3234 26.5985 68.4351 26.3314 68.4957 26.017H70.4616C70.4124 26.6345 70.2306 27.1818 69.9162 27.6591C69.6018 28.1326 69.1738 28.5038 68.6321 28.7727C68.0904 29.0379 67.4541 29.1705 66.723 29.1705ZM76.5085 20.2727V21.8636H71.4915V20.2727H76.5085ZM72.7301 18.1818H74.7869V26.375C74.7869 26.6515 74.8286 26.8636 74.9119 27.0114C74.9991 27.1553 75.1127 27.2538 75.2528 27.3068C75.393 27.3598 75.5483 27.3864 75.7188 27.3864C75.8475 27.3864 75.965 27.3769 76.071 27.358C76.1809 27.339 76.2642 27.322 76.321 27.3068L76.6676 28.9148C76.5578 28.9527 76.4006 28.9943 76.196 29.0398C75.9953 29.0852 75.7491 29.1117 75.4574 29.1193C74.9422 29.1345 74.4782 29.0568 74.0653 28.8864C73.6525 28.7121 73.3248 28.4432 73.0824 28.0795C72.8438 27.7159 72.7263 27.2614 72.7301 26.7159V18.1818ZM85.0014 22.5795L83.1264 22.7841C83.0734 22.5947 82.9806 22.4167 82.848 22.25C82.7192 22.0833 82.545 21.9489 82.3253 21.8466C82.1056 21.7443 81.8366 21.6932 81.5185 21.6932C81.0904 21.6932 80.7306 21.786 80.4389 21.9716C80.151 22.1572 80.009 22.3977 80.0128 22.6932C80.009 22.947 80.1018 23.1534 80.2912 23.3125C80.4844 23.4716 80.8026 23.6023 81.2457 23.7045L82.7344 24.0227C83.5601 24.2008 84.1738 24.483 84.5753 24.8693C84.9806 25.2557 85.1851 25.7614 85.1889 26.3864C85.1851 26.9356 85.0241 27.4205 84.706 27.8409C84.3916 28.2576 83.9541 28.5833 83.3935 28.8182C82.8329 29.053 82.1889 29.1705 81.4616 29.1705C80.3935 29.1705 79.5336 28.947 78.8821 28.5C78.2306 28.0492 77.8423 27.4223 77.7173 26.6193L79.723 26.4261C79.8139 26.8201 80.0071 27.1174 80.3026 27.3182C80.598 27.5189 80.9825 27.6193 81.456 27.6193C81.9446 27.6193 82.3366 27.5189 82.6321 27.3182C82.9313 27.1174 83.081 26.8693 83.081 26.5739C83.081 26.3239 82.9844 26.1174 82.7912 25.9545C82.6018 25.7917 82.3063 25.6667 81.9048 25.5795L80.4162 25.267C79.5791 25.0928 78.9598 24.7992 78.5582 24.3864C78.1567 23.9697 77.9579 23.4432 77.9616 22.8068C77.9579 22.2689 78.1037 21.803 78.3991 21.4091C78.6984 21.0114 79.1132 20.7045 79.6435 20.4886C80.1776 20.2689 80.7931 20.1591 81.4901 20.1591C82.5128 20.1591 83.3177 20.3769 83.9048 20.8125C84.4957 21.2481 84.8613 21.8371 85.0014 22.5795Z" fill="#333333"/>
<rect width="220" height="48" transform="translate(6 39)" fill="white"/>
<path d="M19.4091 69V57.3636H26.4318V58.6136H20.8182V62.5455H26.0682V63.7955H20.8182V67.75H26.5227V69H19.4091ZM30.1307 63.75V69H28.7898V60.2727H30.0852V61.6364H30.1989C30.4034 61.1932 30.714 60.8371 31.1307 60.5682C31.5473 60.2955 32.0852 60.1591 32.7443 60.1591C33.3352 60.1591 33.8523 60.2803 34.2955 60.5227C34.7386 60.7614 35.0833 61.125 35.3295 61.6136C35.5758 62.0985 35.6989 62.7121 35.6989 63.4545V69H34.358V63.5455C34.358 62.8598 34.1799 62.3258 33.8239 61.9432C33.4678 61.5568 32.9792 61.3636 32.358 61.3636C31.9299 61.3636 31.5473 61.4564 31.2102 61.642C30.8769 61.8277 30.6136 62.0985 30.4205 62.4545C30.2273 62.8106 30.1307 63.2424 30.1307 63.75ZM41.6719 72.4545C41.0241 72.4545 40.4673 72.3712 40.0014 72.2045C39.5355 72.0417 39.1473 71.8258 38.8366 71.5568C38.5298 71.2917 38.2855 71.0076 38.1037 70.7045L39.1719 69.9545C39.2931 70.1136 39.4465 70.2955 39.6321 70.5C39.8177 70.7083 40.0715 70.8883 40.3935 71.0398C40.7192 71.1951 41.1454 71.2727 41.6719 71.2727C42.3764 71.2727 42.9579 71.1023 43.4162 70.7614C43.8745 70.4205 44.1037 69.8864 44.1037 69.1591V67.3864H43.9901C43.8916 67.5455 43.7514 67.7424 43.5696 67.9773C43.3916 68.2083 43.134 68.4148 42.7969 68.5966C42.4635 68.7746 42.0128 68.8636 41.4446 68.8636C40.7401 68.8636 40.1075 68.697 39.5469 68.3636C38.9901 68.0303 38.5488 67.5455 38.223 66.9091C37.901 66.2727 37.7401 65.5 37.7401 64.5909C37.7401 63.697 37.8973 62.9186 38.2116 62.2557C38.526 61.589 38.9635 61.0739 39.5241 60.7102C40.0848 60.3428 40.7325 60.1591 41.4673 60.1591C42.0355 60.1591 42.4863 60.2538 42.8196 60.4432C43.1567 60.6288 43.4143 60.8409 43.5923 61.0795C43.7741 61.3144 43.9143 61.5076 44.0128 61.6591H44.1491V60.2727H45.4446V69.25C45.4446 70 45.2741 70.6098 44.9332 71.0795C44.5961 71.553 44.1416 71.8996 43.5696 72.1193C43.0014 72.3428 42.3688 72.4545 41.6719 72.4545ZM41.6264 67.6591C42.1643 67.6591 42.6188 67.536 42.9901 67.2898C43.3613 67.0436 43.6435 66.6894 43.8366 66.2273C44.0298 65.7652 44.1264 65.2121 44.1264 64.5682C44.1264 63.9394 44.0317 63.3845 43.8423 62.9034C43.6529 62.4223 43.3726 62.0455 43.0014 61.7727C42.6302 61.5 42.1719 61.3636 41.6264 61.3636C41.0582 61.3636 40.5848 61.5076 40.206 61.7955C39.831 62.0833 39.5488 62.4697 39.3594 62.9545C39.1738 63.4394 39.081 63.9773 39.081 64.5682C39.081 65.1742 39.1757 65.7102 39.3651 66.1761C39.5582 66.6383 39.8423 67.0019 40.2173 67.267C40.5961 67.5284 41.0658 67.6591 41.6264 67.6591ZM49.2401 57.3636V69H47.8991V57.3636H49.2401ZM51.696 69V60.2727H53.0369V69H51.696ZM52.3778 58.8182C52.1165 58.8182 51.8911 58.7292 51.7017 58.5511C51.5161 58.3731 51.4233 58.1591 51.4233 57.9091C51.4233 57.6591 51.5161 57.4451 51.7017 57.267C51.8911 57.089 52.1165 57 52.3778 57C52.6392 57 52.8627 57.089 53.0483 57.267C53.2377 57.4451 53.3324 57.6591 53.3324 57.9091C53.3324 58.1591 53.2377 58.3731 53.0483 58.5511C52.8627 58.7292 52.6392 58.8182 52.3778 58.8182ZM61.6747 62.2273L60.4702 62.5682C60.3944 62.3674 60.2827 62.1723 60.1349 61.983C59.991 61.7898 59.794 61.6307 59.544 61.5057C59.294 61.3807 58.974 61.3182 58.5838 61.3182C58.0497 61.3182 57.6046 61.4413 57.2486 61.6875C56.8963 61.9299 56.7202 62.2386 56.7202 62.6136C56.7202 62.947 56.8414 63.2102 57.0838 63.4034C57.3262 63.5966 57.705 63.7576 58.2202 63.8864L59.5156 64.2045C60.2959 64.3939 60.8774 64.6837 61.2599 65.0739C61.6425 65.4602 61.8338 65.9583 61.8338 66.5682C61.8338 67.0682 61.6899 67.5152 61.402 67.9091C61.1179 68.303 60.7202 68.6136 60.2088 68.8409C59.6974 69.0682 59.1027 69.1818 58.4247 69.1818C57.5346 69.1818 56.7978 68.9886 56.2145 68.6023C55.6312 68.2159 55.2618 67.6515 55.1065 66.9091L56.3793 66.5909C56.5005 67.0606 56.7296 67.4129 57.0668 67.6477C57.4077 67.8826 57.8527 68 58.402 68C59.027 68 59.5232 67.8674 59.8906 67.6023C60.2618 67.3333 60.4474 67.0114 60.4474 66.6364C60.4474 66.3333 60.3414 66.0795 60.1293 65.875C59.9171 65.6667 59.5914 65.5114 59.152 65.4091L57.6974 65.0682C56.8982 64.8788 56.3111 64.5852 55.9361 64.1875C55.5649 63.786 55.3793 63.2841 55.3793 62.6818C55.3793 62.1894 55.5175 61.7538 55.794 61.375C56.0743 60.9962 56.455 60.6989 56.9361 60.483C57.4209 60.267 57.9702 60.1591 58.5838 60.1591C59.4474 60.1591 60.1255 60.3485 60.6179 60.7273C61.1141 61.1061 61.4664 61.6061 61.6747 62.2273ZM65.1932 63.75V69H63.8523V57.3636H65.1932V61.6364H65.3068C65.5114 61.1856 65.8182 60.8277 66.2273 60.5625C66.6402 60.2936 67.1894 60.1591 67.875 60.1591C68.4697 60.1591 68.9905 60.2784 69.4375 60.517C69.8845 60.7519 70.2311 61.1136 70.4773 61.6023C70.7273 62.0871 70.8523 62.7045 70.8523 63.4545V69H69.5114V63.5455C69.5114 62.8523 69.3314 62.3163 68.9716 61.9375C68.6155 61.5549 68.1212 61.3636 67.4886 61.3636C67.0492 61.3636 66.6553 61.4564 66.3068 61.642C65.9621 61.8277 65.6894 62.0985 65.4886 62.4545C65.2917 62.8106 65.1932 63.2424 65.1932 63.75Z" fill="#333333"/>
<path d="M204.001 67.6199C203.841 67.6199 203.681 67.5599 203.561 67.4399C203.321 67.1999 203.321 66.7999 203.561 66.5599L207.121 62.9999L203.561 59.4399C203.321 59.1999 203.321 58.7999 203.561 58.5599C203.801 58.3199 204.201 58.3199 204.441 58.5599L208.441 62.5599C208.681 62.7999 208.681 63.1999 208.441 63.4399L204.441 67.4399C204.321 67.5599 204.161 67.6199 204.001 67.6199V67.6199Z" fill="#545454"/>
<rect width="220" height="48" transform="translate(6 87)" fill="white"/>
<path d="M27.3636 109C27.2386 108.617 27.0739 108.275 26.8693 107.972C26.6686 107.665 26.428 107.403 26.1477 107.188C25.8712 106.972 25.5568 106.807 25.2045 106.693C24.8523 106.58 24.4659 106.523 24.0455 106.523C23.3561 106.523 22.7292 106.701 22.1648 107.057C21.6004 107.413 21.1515 107.938 20.8182 108.631C20.4848 109.324 20.3182 110.174 20.3182 111.182C20.3182 112.189 20.4867 113.04 20.8239 113.733C21.161 114.426 21.6174 114.951 22.1932 115.307C22.7689 115.663 23.4167 115.841 24.1364 115.841C24.803 115.841 25.3902 115.699 25.8977 115.415C26.4091 115.127 26.8068 114.722 27.0909 114.199C27.3788 113.672 27.5227 113.053 27.5227 112.341L27.9545 112.432H24.4545V111.182H28.8864V112.432C28.8864 113.39 28.6818 114.223 28.2727 114.932C27.8674 115.64 27.3068 116.189 26.5909 116.58C25.8788 116.966 25.0606 117.159 24.1364 117.159C23.1061 117.159 22.2008 116.917 21.4205 116.432C20.6439 115.947 20.0379 115.258 19.6023 114.364C19.1705 113.47 18.9545 112.409 18.9545 111.182C18.9545 110.261 19.0777 109.434 19.3239 108.699C19.5739 107.96 19.9261 107.331 20.3807 106.812C20.8352 106.294 21.3731 105.896 21.9943 105.619C22.6155 105.343 23.2992 105.205 24.0455 105.205C24.6591 105.205 25.2311 105.297 25.7614 105.483C26.2955 105.665 26.7708 105.924 27.1875 106.261C27.608 106.595 27.9583 106.994 28.2386 107.46C28.5189 107.922 28.7121 108.436 28.8182 109H27.3636ZM31.1179 117V108.273H32.4134V109.591H32.5043C32.6634 109.159 32.9512 108.809 33.3679 108.54C33.7846 108.271 34.2543 108.136 34.777 108.136C34.8755 108.136 34.9986 108.138 35.1463 108.142C35.294 108.146 35.4058 108.152 35.4815 108.159V109.523C35.4361 109.511 35.3319 109.494 35.169 109.472C35.0099 109.445 34.8414 109.432 34.6634 109.432C34.2391 109.432 33.8603 109.521 33.527 109.699C33.1974 109.873 32.9361 110.116 32.7429 110.426C32.5535 110.733 32.4588 111.083 32.4588 111.477V117H31.1179ZM39.6392 117.205C39.0862 117.205 38.5843 117.1 38.1335 116.892C37.6828 116.68 37.3248 116.375 37.0597 115.977C36.7945 115.576 36.6619 115.091 36.6619 114.523C36.6619 114.023 36.7604 113.617 36.9574 113.307C37.1544 112.992 37.4176 112.746 37.7472 112.568C38.0767 112.39 38.4403 112.258 38.8381 112.17C39.2396 112.08 39.643 112.008 40.0483 111.955C40.5786 111.886 41.0085 111.835 41.3381 111.801C41.6714 111.763 41.9138 111.701 42.0653 111.614C42.2206 111.527 42.2983 111.375 42.2983 111.159V111.114C42.2983 110.553 42.1449 110.117 41.8381 109.807C41.535 109.496 41.0748 109.341 40.4574 109.341C39.8172 109.341 39.3153 109.481 38.9517 109.761C38.5881 110.042 38.3324 110.341 38.1847 110.659L36.9119 110.205C37.1392 109.674 37.4422 109.261 37.821 108.966C38.2036 108.667 38.6203 108.458 39.071 108.341C39.5256 108.22 39.9725 108.159 40.4119 108.159C40.6922 108.159 41.0142 108.193 41.3778 108.261C41.7453 108.326 42.0994 108.46 42.4403 108.665C42.785 108.869 43.071 109.178 43.2983 109.591C43.5256 110.004 43.6392 110.557 43.6392 111.25V117H42.2983V115.818H42.2301C42.1392 116.008 41.9877 116.21 41.7756 116.426C41.5634 116.642 41.2813 116.826 40.929 116.977C40.5767 117.129 40.1468 117.205 39.6392 117.205ZM39.8438 116C40.3741 116 40.821 115.896 41.1847 115.688C41.5521 115.479 41.8286 115.21 42.0142 114.881C42.2036 114.551 42.2983 114.205 42.2983 113.841V112.614C42.2415 112.682 42.1165 112.744 41.9233 112.801C41.7339 112.854 41.5142 112.902 41.2642 112.943C41.018 112.981 40.7775 113.015 40.5426 113.045C40.3116 113.072 40.1241 113.095 39.9801 113.114C39.6316 113.159 39.3059 113.233 39.0028 113.335C38.7036 113.434 38.4612 113.583 38.2756 113.784C38.0938 113.981 38.0028 114.25 38.0028 114.591C38.0028 115.057 38.1752 115.409 38.5199 115.648C38.8684 115.883 39.3097 116 39.8438 116ZM46.0866 117V108.273H47.3821V109.636H47.4957C47.6776 109.17 47.9711 108.809 48.3764 108.551C48.7817 108.29 49.2685 108.159 49.8366 108.159C50.4124 108.159 50.8916 108.29 51.2741 108.551C51.6605 108.809 51.9616 109.17 52.1776 109.636H52.2685C52.492 109.186 52.8272 108.828 53.2741 108.562C53.7211 108.294 54.2571 108.159 54.8821 108.159C55.6624 108.159 56.3007 108.403 56.7969 108.892C57.2931 109.377 57.5412 110.133 57.5412 111.159V117H56.2003V111.159C56.2003 110.515 56.0241 110.055 55.6719 109.778C55.3196 109.502 54.9048 109.364 54.4276 109.364C53.8139 109.364 53.3385 109.549 53.0014 109.92C52.6643 110.288 52.4957 110.754 52.4957 111.318V117H51.1321V111.023C51.1321 110.527 50.9711 110.127 50.6491 109.824C50.3272 109.517 49.9124 109.364 49.4048 109.364C49.0563 109.364 48.7306 109.456 48.4276 109.642C48.1283 109.828 47.8859 110.085 47.7003 110.415C47.5185 110.741 47.4276 111.117 47.4276 111.545V117H46.0866ZM59.9929 117V108.273H61.2884V109.636H61.402C61.5838 109.17 61.8774 108.809 62.2827 108.551C62.688 108.29 63.1747 108.159 63.7429 108.159C64.3187 108.159 64.7978 108.29 65.1804 108.551C65.5668 108.809 65.8679 109.17 66.0838 109.636H66.1747C66.3982 109.186 66.7334 108.828 67.1804 108.562C67.6274 108.294 68.1634 108.159 68.7884 108.159C69.5687 108.159 70.2069 108.403 70.7031 108.892C71.1993 109.377 71.4474 110.133 71.4474 111.159V117H70.1065V111.159C70.1065 110.515 69.9304 110.055 69.5781 109.778C69.2259 109.502 68.8111 109.364 68.3338 109.364C67.7202 109.364 67.2448 109.549 66.9077 109.92C66.5705 110.288 66.402 110.754 66.402 111.318V117H65.0384V111.023C65.0384 110.527 64.8774 110.127 64.5554 109.824C64.2334 109.517 63.8187 109.364 63.3111 109.364C62.9626 109.364 62.6368 109.456 62.3338 109.642C62.0346 109.828 61.7921 110.085 61.6065 110.415C61.4247 110.741 61.3338 111.117 61.3338 111.545V117H59.9929ZM76.4673 117.205C75.9143 117.205 75.4124 117.1 74.9616 116.892C74.5109 116.68 74.1529 116.375 73.8878 115.977C73.6226 115.576 73.4901 115.091 73.4901 114.523C73.4901 114.023 73.5885 113.617 73.7855 113.307C73.9825 112.992 74.2457 112.746 74.5753 112.568C74.9048 112.39 75.2685 112.258 75.6662 112.17C76.0677 112.08 76.4711 112.008 76.8764 111.955C77.4067 111.886 77.8366 111.835 78.1662 111.801C78.4995 111.763 78.742 111.701 78.8935 111.614C79.0488 111.527 79.1264 111.375 79.1264 111.159V111.114C79.1264 110.553 78.973 110.117 78.6662 109.807C78.3632 109.496 77.9029 109.341 77.2855 109.341C76.6454 109.341 76.1435 109.481 75.7798 109.761C75.4162 110.042 75.1605 110.341 75.0128 110.659L73.7401 110.205C73.9673 109.674 74.2704 109.261 74.6491 108.966C75.0317 108.667 75.4484 108.458 75.8991 108.341C76.3537 108.22 76.8007 108.159 77.2401 108.159C77.5204 108.159 77.8423 108.193 78.206 108.261C78.5734 108.326 78.9276 108.46 79.2685 108.665C79.6132 108.869 79.8991 109.178 80.1264 109.591C80.3537 110.004 80.4673 110.557 80.4673 111.25V117H79.1264V115.818H79.0582C78.9673 116.008 78.8158 116.21 78.6037 116.426C78.3916 116.642 78.1094 116.826 77.7571 116.977C77.4048 117.129 76.9749 117.205 76.4673 117.205ZM76.6719 116C77.2022 116 77.6491 115.896 78.0128 115.688C78.3802 115.479 78.6567 115.21 78.8423 114.881C79.0317 114.551 79.1264 114.205 79.1264 113.841V112.614C79.0696 112.682 78.9446 112.744 78.7514 112.801C78.562 112.854 78.3423 112.902 78.0923 112.943C77.8461 112.981 77.6056 113.015 77.3707 113.045C77.1397 113.072 76.9522 113.095 76.8082 113.114C76.4598 113.159 76.134 113.233 75.831 113.335C75.5317 113.434 75.2893 113.583 75.1037 113.784C74.9219 113.981 74.831 114.25 74.831 114.591C74.831 115.057 75.0033 115.409 75.348 115.648C75.6965 115.883 76.1378 116 76.6719 116ZM82.9148 117V108.273H84.2102V109.591H84.3011C84.4602 109.159 84.7481 108.809 85.1648 108.54C85.5814 108.271 86.0511 108.136 86.5739 108.136C86.6723 108.136 86.7955 108.138 86.9432 108.142C87.0909 108.146 87.2027 108.152 87.2784 108.159V109.523C87.233 109.511 87.1288 109.494 86.9659 109.472C86.8068 109.445 86.6383 109.432 86.4602 109.432C86.036 109.432 85.6572 109.521 85.3239 109.699C84.9943 109.873 84.733 110.116 84.5398 110.426C84.3504 110.733 84.2557 111.083 84.2557 111.477V117H82.9148Z" fill="#333333"/>
<path d="M204.001 115.62C203.841 115.62 203.681 115.56 203.561 115.44C203.321 115.2 203.321 114.8 203.561 114.56L207.121 111L203.561 107.44C203.321 107.2 203.321 106.8 203.561 106.56C203.801 106.32 204.201 106.32 204.441 106.56L208.441 110.56C208.681 110.8 208.681 111.2 208.441 111.44L204.441 115.44C204.321 115.56 204.161 115.62 204.001 115.62V115.62Z" fill="#545454"/>
<rect width="220" height="48" transform="translate(6 135)" fill="white"/>
<path d="M25.7727 156.273C25.7045 155.697 25.428 155.25 24.9432 154.932C24.4583 154.614 23.8636 154.455 23.1591 154.455C22.6439 154.455 22.1932 154.538 21.8068 154.705C21.4242 154.871 21.125 155.1 20.9091 155.392C20.697 155.684 20.5909 156.015 20.5909 156.386C20.5909 156.697 20.6648 156.964 20.8125 157.188C20.964 157.407 21.1572 157.591 21.392 157.739C21.6269 157.883 21.8731 158.002 22.1307 158.097C22.3883 158.187 22.625 158.261 22.8409 158.318L24.0227 158.636C24.3258 158.716 24.6629 158.826 25.0341 158.966C25.4091 159.106 25.767 159.297 26.108 159.54C26.4527 159.778 26.7367 160.085 26.9602 160.46C27.1837 160.835 27.2955 161.295 27.2955 161.841C27.2955 162.47 27.1307 163.038 26.8011 163.545C26.4754 164.053 25.9981 164.456 25.3693 164.756C24.7443 165.055 23.9848 165.205 23.0909 165.205C22.2576 165.205 21.536 165.07 20.9261 164.801C20.3201 164.532 19.8428 164.157 19.4943 163.676C19.1496 163.195 18.9545 162.636 18.9091 162H20.3636C20.4015 162.439 20.5492 162.803 20.8068 163.091C21.0682 163.375 21.3977 163.587 21.7955 163.727C22.197 163.864 22.6288 163.932 23.0909 163.932C23.6288 163.932 24.1117 163.845 24.5398 163.67C24.9678 163.492 25.3068 163.246 25.5568 162.932C25.8068 162.614 25.9318 162.242 25.9318 161.818C25.9318 161.432 25.8239 161.117 25.608 160.875C25.392 160.633 25.108 160.436 24.7557 160.284C24.4034 160.133 24.0227 160 23.6136 159.886L22.1818 159.477C21.2727 159.216 20.553 158.843 20.0227 158.358C19.4924 157.873 19.2273 157.239 19.2273 156.455C19.2273 155.803 19.4034 155.235 19.7557 154.75C20.1117 154.261 20.589 153.883 21.1875 153.614C21.7898 153.341 22.4621 153.205 23.2045 153.205C23.9545 153.205 24.6212 153.339 25.2045 153.608C25.7879 153.873 26.25 154.237 26.5909 154.699C26.9356 155.161 27.1174 155.686 27.1364 156.273H25.7727ZM32.9759 165.182C32.1577 165.182 31.4531 164.989 30.8622 164.602C30.2713 164.216 29.8168 163.684 29.4986 163.006C29.1804 162.328 29.0213 161.553 29.0213 160.682C29.0213 159.795 29.1842 159.013 29.5099 158.335C29.8395 157.653 30.2978 157.121 30.8849 156.739C31.4759 156.352 32.1652 156.159 32.9531 156.159C33.5668 156.159 34.1198 156.273 34.6122 156.5C35.1046 156.727 35.508 157.045 35.8224 157.455C36.1368 157.864 36.3319 158.341 36.4077 158.886H35.0668C34.9645 158.489 34.7372 158.136 34.3849 157.83C34.0365 157.519 33.5668 157.364 32.9759 157.364C32.4531 157.364 31.9948 157.5 31.6009 157.773C31.2107 158.042 30.9058 158.422 30.6861 158.915C30.4702 159.403 30.3622 159.977 30.3622 160.636C30.3622 161.311 30.4683 161.898 30.6804 162.398C30.8963 162.898 31.1993 163.286 31.5895 163.562C31.9834 163.839 32.4455 163.977 32.9759 163.977C33.3243 163.977 33.6406 163.917 33.9247 163.795C34.2088 163.674 34.4493 163.5 34.6463 163.273C34.8433 163.045 34.9834 162.773 35.0668 162.455H36.4077C36.3319 162.97 36.1444 163.434 35.8452 163.847C35.5497 164.256 35.1577 164.581 34.669 164.824C34.1842 165.062 33.6198 165.182 32.9759 165.182ZM38.3679 165V156.273H39.7088V165H38.3679ZM39.0497 154.818C38.7884 154.818 38.563 154.729 38.3736 154.551C38.188 154.373 38.0952 154.159 38.0952 153.909C38.0952 153.659 38.188 153.445 38.3736 153.267C38.563 153.089 38.7884 153 39.0497 153C39.3111 153 39.5346 153.089 39.7202 153.267C39.9096 153.445 40.0043 153.659 40.0043 153.909C40.0043 154.159 39.9096 154.373 39.7202 154.551C39.5346 154.729 39.3111 154.818 39.0497 154.818ZM45.8239 165.182C44.983 165.182 44.2576 164.996 43.6477 164.625C43.0417 164.25 42.5739 163.727 42.2443 163.057C41.9186 162.383 41.7557 161.598 41.7557 160.705C41.7557 159.811 41.9186 159.023 42.2443 158.341C42.5739 157.655 43.0322 157.121 43.6193 156.739C44.2102 156.352 44.8996 156.159 45.6875 156.159C46.142 156.159 46.5909 156.235 47.0341 156.386C47.4773 156.538 47.8807 156.784 48.2443 157.125C48.608 157.462 48.8977 157.909 49.1136 158.466C49.3295 159.023 49.4375 159.708 49.4375 160.523V161.091H42.7102V159.932H48.0739C48.0739 159.439 47.9754 159 47.7784 158.614C47.5852 158.227 47.3087 157.922 46.9489 157.699C46.5928 157.475 46.1723 157.364 45.6875 157.364C45.1534 157.364 44.6913 157.496 44.3011 157.761C43.9148 158.023 43.6174 158.364 43.4091 158.784C43.2008 159.205 43.0966 159.655 43.0966 160.136V160.909C43.0966 161.568 43.2102 162.127 43.4375 162.585C43.6686 163.04 43.9886 163.386 44.3977 163.625C44.8068 163.86 45.2822 163.977 45.8239 163.977C46.1761 163.977 46.4943 163.928 46.7784 163.83C47.0663 163.727 47.3144 163.576 47.5227 163.375C47.7311 163.17 47.892 162.917 48.0057 162.614L49.3011 162.977C49.1648 163.417 48.9356 163.803 48.6136 164.136C48.2917 164.466 47.8939 164.723 47.4205 164.909C46.947 165.091 46.4148 165.182 45.8239 165.182ZM52.8182 159.75V165H51.4773V156.273H52.7727V157.636H52.8864C53.0909 157.193 53.4015 156.837 53.8182 156.568C54.2348 156.295 54.7727 156.159 55.4318 156.159C56.0227 156.159 56.5398 156.28 56.983 156.523C57.4261 156.761 57.7708 157.125 58.017 157.614C58.2633 158.098 58.3864 158.712 58.3864 159.455V165H57.0455V159.545C57.0455 158.86 56.8674 158.326 56.5114 157.943C56.1553 157.557 55.6667 157.364 55.0455 157.364C54.6174 157.364 54.2348 157.456 53.8977 157.642C53.5644 157.828 53.3011 158.098 53.108 158.455C52.9148 158.811 52.8182 159.242 52.8182 159.75ZM64.3821 165.182C63.5639 165.182 62.8594 164.989 62.2685 164.602C61.6776 164.216 61.223 163.684 60.9048 163.006C60.5866 162.328 60.4276 161.553 60.4276 160.682C60.4276 159.795 60.5904 159.013 60.9162 158.335C61.2457 157.653 61.7041 157.121 62.2912 156.739C62.8821 156.352 63.5715 156.159 64.3594 156.159C64.973 156.159 65.526 156.273 66.0185 156.5C66.5109 156.727 66.9143 157.045 67.2287 157.455C67.5431 157.864 67.7382 158.341 67.8139 158.886H66.473C66.3707 158.489 66.1435 158.136 65.7912 157.83C65.4427 157.519 64.973 157.364 64.3821 157.364C63.8594 157.364 63.401 157.5 63.0071 157.773C62.617 158.042 62.312 158.422 62.0923 158.915C61.8764 159.403 61.7685 159.977 61.7685 160.636C61.7685 161.311 61.8745 161.898 62.0866 162.398C62.3026 162.898 62.6056 163.286 62.9957 163.562C63.3897 163.839 63.8518 163.977 64.3821 163.977C64.7306 163.977 65.0469 163.917 65.331 163.795C65.6151 163.674 65.8556 163.5 66.0526 163.273C66.2495 163.045 66.3897 162.773 66.473 162.455H67.8139C67.7382 162.97 67.5507 163.434 67.2514 163.847C66.956 164.256 66.5639 164.581 66.0753 164.824C65.5904 165.062 65.026 165.182 64.3821 165.182ZM73.4332 165.182C72.5923 165.182 71.867 164.996 71.2571 164.625C70.651 164.25 70.1832 163.727 69.8537 163.057C69.5279 162.383 69.3651 161.598 69.3651 160.705C69.3651 159.811 69.5279 159.023 69.8537 158.341C70.1832 157.655 70.6416 157.121 71.2287 156.739C71.8196 156.352 72.509 156.159 73.2969 156.159C73.7514 156.159 74.2003 156.235 74.6435 156.386C75.0866 156.538 75.4901 156.784 75.8537 157.125C76.2173 157.462 76.5071 157.909 76.723 158.466C76.9389 159.023 77.0469 159.708 77.0469 160.523V161.091H70.3196V159.932H75.6832C75.6832 159.439 75.5848 159 75.3878 158.614C75.1946 158.227 74.9181 157.922 74.5582 157.699C74.2022 157.475 73.7817 157.364 73.2969 157.364C72.7628 157.364 72.3007 157.496 71.9105 157.761C71.5241 158.023 71.2268 158.364 71.0185 158.784C70.8101 159.205 70.706 159.655 70.706 160.136V160.909C70.706 161.568 70.8196 162.127 71.0469 162.585C71.2779 163.04 71.598 163.386 72.0071 163.625C72.4162 163.86 72.8916 163.977 73.4332 163.977C73.7855 163.977 74.1037 163.928 74.3878 163.83C74.6757 163.727 74.9238 163.576 75.1321 163.375C75.3404 163.17 75.5014 162.917 75.6151 162.614L76.9105 162.977C76.7741 163.417 76.545 163.803 76.223 164.136C75.901 164.466 75.5033 164.723 75.0298 164.909C74.5563 165.091 74.0241 165.182 73.4332 165.182Z" fill="#333333"/>
<path d="M204.001 163.62C203.841 163.62 203.681 163.56 203.561 163.44C203.321 163.2 203.321 162.8 203.561 162.56L207.121 159L203.561 155.44C203.321 155.2 203.321 154.8 203.561 154.56C203.801 154.32 204.201 154.32 204.441 154.56L208.441 158.56C208.681 158.8 208.681 159.2 208.441 159.44L204.441 163.44C204.321 163.56 204.161 163.62 204.001 163.62V163.62Z" fill="#545454"/>
</g>
<defs>
<filter id="filter0_dd_821_51775" x="0" y="0" width="232" height="196" filterUnits="userSpaceOnUse" color-interpolation-filters="sRGB">
<feFlood flood-opacity="0" result="BackgroundImageFix"/>
<feColorMatrix in="SourceAlpha" type="matrix" values="0 0 0 0 0 0 0 0 0 0 0 0 0 0 0 0 0 0 127 0" result="hardAlpha"/>
<feOffset dy="3"/>
<feGaussianBlur stdDeviation="3"/>
<feColorMatrix type="matrix" values="0 0 0 0 0.2 0 0 0 0 0.2 0 0 0 0 0.2 0 0 0 0.1 0"/>
<feBlend mode="normal" in2="BackgroundImageFix" result="effect1_dropShadow_821_51775"/>
<feColorMatrix in="SourceAlpha" type="matrix" values="0 0 0 0 0 0 0 0 0 0 0 0 0 0 0 0 0 0 127 0" result="hardAlpha"/>
<feOffset dy="3"/>
<feGaussianBlur stdDeviation="3"/>
<feColorMatrix type="matrix" values="0 0 0 0 0.2 0 0 0 0 0.2 0 0 0 0 0.2 0 0 0 0.1 0"/>
<feBlend mode="normal" in2="effect1_dropShadow_821_51775" result="effect2_dropShadow_821_51775"/>
<feBlend mode="normal" in="SourceGraphic" in2="effect2_dropShadow_821_51775" result="shape"/>
</filter>
</defs>
</svg>
