<svg width="245" height="116" viewBox="0 0 245 116" fill="none" xmlns="http://www.w3.org/2000/svg">
<path d="M150.5 0H94.5V32H150.5V0Z" fill="#F6F6F6"/>
<path fill-rule="evenodd" clip-rule="evenodd" d="M94.5 0H150.5V32H94.5V0ZM95.5 31H149.5V1H95.5V31Z" fill="#AFAFAF"/>
<path d="M147.5 3H97.5V29H147.5V3Z" fill="white"/>
<path fill-rule="evenodd" clip-rule="evenodd" d="M124.5 13H118.5V11H124.5V13Z" fill="#AFAFAF"/>
<path fill-rule="evenodd" clip-rule="evenodd" d="M140.5 13H134.5V11H140.5V13Z" fill="#AFAFAF"/>
<path fill-rule="evenodd" clip-rule="evenodd" d="M124.5 21H118.5V19H124.5V21Z" fill="#AFAFAF"/>
<path fill-rule="evenodd" clip-rule="evenodd" d="M108.5 21H106.5V19H108.5V21Z" fill="#AFAFAF"/>
<path fill-rule="evenodd" clip-rule="evenodd" d="M140.5 21H134.5V19H140.5V21Z" fill="#AFAFAF"/>
<path d="M109.299 9.74983C109.299 10.7162 108.493 11.4997 107.499 11.4997C106.505 11.4997 105.699 10.7162 105.699 9.74983C105.699 8.78343 106.505 8 107.499 8C108.493 8 109.299 8.78343 109.299 9.74983Z" fill="#AFAFAF"/>
<path d="M110.5 14.2713C110.5 15.0004 110.5 15.0004 107.5 15.0004C104.5 15.0004 104.5 15.0004 104.5 14.2713C104.5 13.0633 105.843 12.084 107.5 12.084C109.157 12.084 110.5 13.0633 110.5 14.2713Z" fill="#AFAFAF"/>
<path d="M20.468 45.3636V57H18.593L13.1101 49.0739H13.0135V57H10.9055V45.3636H12.7919L18.2692 53.2955H18.3714V45.3636H20.468ZM26.4808 57.1705C25.6286 57.1705 24.8899 56.983 24.2649 56.608C23.6399 56.233 23.1551 55.7083 22.8104 55.0341C22.4695 54.3598 22.299 53.572 22.299 52.6705C22.299 51.7689 22.4695 50.9792 22.8104 50.3011C23.1551 49.6231 23.6399 49.0966 24.2649 48.7216C24.8899 48.3466 25.6286 48.1591 26.4808 48.1591C27.3331 48.1591 28.0717 48.3466 28.6967 48.7216C29.3217 49.0966 29.8047 49.6231 30.1456 50.3011C30.4903 50.9792 30.6626 51.7689 30.6626 52.6705C30.6626 53.572 30.4903 54.3598 30.1456 55.0341C29.8047 55.7083 29.3217 56.233 28.6967 56.608C28.0717 56.983 27.3331 57.1705 26.4808 57.1705ZM26.4922 55.5227C26.9543 55.5227 27.3407 55.3958 27.6513 55.142C27.9619 54.8845 28.1929 54.5398 28.3445 54.108C28.4998 53.6761 28.5774 53.1951 28.5774 52.6648C28.5774 52.1307 28.4998 51.6477 28.3445 51.2159C28.1929 50.7803 27.9619 50.4337 27.6513 50.1761C27.3407 49.9186 26.9543 49.7898 26.4922 49.7898C26.0187 49.7898 25.6248 49.9186 25.3104 50.1761C24.9998 50.4337 24.7668 50.7803 24.6115 51.2159C24.46 51.6477 24.3842 52.1307 24.3842 52.6648C24.3842 53.1951 24.46 53.6761 24.6115 54.108C24.7668 54.5398 24.9998 54.8845 25.3104 55.142C25.6248 55.3958 26.0187 55.5227 26.4922 55.5227ZM40.1839 57.1705C39.3127 57.1705 38.5646 56.9792 37.9396 56.5966C37.3184 56.214 36.8393 55.6856 36.5021 55.0114C36.1688 54.3333 36.0021 53.553 36.0021 52.6705C36.0021 51.7841 36.1726 51.0019 36.5135 50.3239C36.8544 49.642 37.3355 49.1117 37.9567 48.733C38.5817 48.3504 39.3203 48.1591 40.1726 48.1591C40.8809 48.1591 41.5078 48.2898 42.0533 48.5511C42.6025 48.8087 43.04 49.1742 43.3658 49.6477C43.6915 50.1174 43.8771 50.6667 43.9226 51.2955H41.9567C41.8771 50.875 41.6877 50.5246 41.3885 50.2443C41.093 49.9602 40.6972 49.8182 40.201 49.8182C39.7805 49.8182 39.4112 49.9318 39.093 50.1591C38.7749 50.3826 38.5268 50.7045 38.3487 51.125C38.1745 51.5455 38.0874 52.0492 38.0874 52.6364C38.0874 53.2311 38.1745 53.7424 38.3487 54.1705C38.523 54.5947 38.7673 54.9223 39.0817 55.1534C39.3999 55.3807 39.773 55.4943 40.201 55.4943C40.504 55.4943 40.7749 55.4375 41.0135 55.3239C41.2559 55.2064 41.4586 55.0379 41.6214 54.8182C41.7843 54.5985 41.8961 54.3314 41.9567 54.017H43.9226C43.8733 54.6345 43.6915 55.1818 43.3771 55.6591C43.0627 56.1326 42.6347 56.5038 42.093 56.7727C41.5514 57.0379 40.915 57.1705 40.1839 57.1705ZM49.4183 57.1705C48.5661 57.1705 47.8274 56.983 47.2024 56.608C46.5774 56.233 46.0926 55.7083 45.7479 55.0341C45.407 54.3598 45.2365 53.572 45.2365 52.6705C45.2365 51.7689 45.407 50.9792 45.7479 50.3011C46.0926 49.6231 46.5774 49.0966 47.2024 48.7216C47.8274 48.3466 48.5661 48.1591 49.4183 48.1591C50.2706 48.1591 51.0092 48.3466 51.6342 48.7216C52.2592 49.0966 52.7422 49.6231 53.0831 50.3011C53.4278 50.9792 53.6001 51.7689 53.6001 52.6705C53.6001 53.572 53.4278 54.3598 53.0831 55.0341C52.7422 55.7083 52.2592 56.233 51.6342 56.608C51.0092 56.983 50.2706 57.1705 49.4183 57.1705ZM49.4297 55.5227C49.8918 55.5227 50.2782 55.3958 50.5888 55.142C50.8994 54.8845 51.1304 54.5398 51.282 54.108C51.4373 53.6761 51.5149 53.1951 51.5149 52.6648C51.5149 52.1307 51.4373 51.6477 51.282 51.2159C51.1304 50.7803 50.8994 50.4337 50.5888 50.1761C50.2782 49.9186 49.8918 49.7898 49.4297 49.7898C48.9562 49.7898 48.5623 49.9186 48.2479 50.1761C47.9373 50.4337 47.7043 50.7803 47.549 51.2159C47.3975 51.6477 47.3217 52.1307 47.3217 52.6648C47.3217 53.1951 47.3975 53.6761 47.549 54.108C47.7043 54.5398 47.9373 54.8845 48.2479 55.142C48.5623 55.3958 48.9562 55.5227 49.4297 55.5227ZM55.3459 57V48.2727H57.3118V49.7557H57.4141C57.5959 49.2557 57.897 48.8655 58.3175 48.5852C58.7379 48.3011 59.2398 48.1591 59.8232 48.1591C60.4141 48.1591 60.9122 48.303 61.3175 48.5909C61.7266 48.875 62.0144 49.2633 62.1811 49.7557H62.272C62.4652 49.2708 62.791 48.8845 63.2493 48.5966C63.7114 48.3049 64.2588 48.1591 64.8913 48.1591C65.6944 48.1591 66.3497 48.4129 66.8572 48.9205C67.3648 49.428 67.6186 50.1686 67.6186 51.142V57H65.5561V51.4602C65.5561 50.9186 65.4122 50.5227 65.1243 50.2727C64.8364 50.0189 64.4841 49.892 64.0675 49.892C63.5713 49.892 63.183 50.0473 62.9027 50.358C62.6262 50.6648 62.4879 51.0644 62.4879 51.5568V57H60.4709V51.375C60.4709 50.9242 60.3345 50.5644 60.0618 50.2955C59.7929 50.0265 59.4406 49.892 59.005 49.892C58.7095 49.892 58.4406 49.9678 58.1982 50.1193C57.9557 50.267 57.7625 50.4773 57.6186 50.75C57.4747 51.0189 57.4027 51.3333 57.4027 51.6932V57H55.3459ZM69.7053 60.2727V48.2727H71.728V49.7159H71.8473C71.9534 49.5038 72.103 49.2784 72.2962 49.0398C72.4893 48.7973 72.7507 48.5909 73.0803 48.4205C73.4098 48.2462 73.8303 48.1591 74.3416 48.1591C75.0159 48.1591 75.6238 48.3314 76.1655 48.6761C76.7109 49.017 77.1428 49.5227 77.4609 50.1932C77.7829 50.8598 77.9439 51.678 77.9439 52.6477C77.9439 53.6061 77.7867 54.4205 77.4723 55.0909C77.1579 55.7614 76.7299 56.2727 76.1882 56.625C75.6465 56.9773 75.0329 57.1534 74.3473 57.1534C73.8473 57.1534 73.4325 57.0701 73.103 56.9034C72.7734 56.7367 72.5083 56.536 72.3075 56.3011C72.1106 56.0625 71.9571 55.8371 71.8473 55.625H71.7621V60.2727H69.7053ZM71.7223 52.6364C71.7223 53.2008 71.8018 53.6951 71.9609 54.1193C72.1238 54.5436 72.3568 54.875 72.6598 55.1136C72.9666 55.3485 73.3378 55.4659 73.7734 55.4659C74.228 55.4659 74.6087 55.3447 74.9155 55.1023C75.2223 54.8561 75.4534 54.5208 75.6087 54.0966C75.7678 53.6686 75.8473 53.1818 75.8473 52.6364C75.8473 52.0947 75.7696 51.6136 75.6143 51.1932C75.459 50.7727 75.228 50.4432 74.9212 50.2045C74.6143 49.9659 74.2318 49.8466 73.7734 49.8466C73.334 49.8466 72.9609 49.9621 72.6541 50.1932C72.3473 50.4242 72.1143 50.7481 71.9553 51.1648C71.8 51.5814 71.7223 52.072 71.7223 52.6364ZM81.7621 45.3636V57H79.7053V45.3636H81.7621ZM87.7408 57.1705C86.8658 57.1705 86.1101 56.9886 85.4737 56.625C84.8411 56.2576 84.3544 55.7386 84.0135 55.0682C83.6726 54.3939 83.5021 53.6004 83.5021 52.6875C83.5021 51.7898 83.6726 51.0019 84.0135 50.3239C84.3582 49.642 84.8393 49.1117 85.4567 48.733C86.0741 48.3504 86.7995 48.1591 87.6328 48.1591C88.1707 48.1591 88.6783 48.2462 89.1555 48.4205C89.6366 48.5909 90.0608 48.8561 90.4283 49.2159C90.7995 49.5758 91.0911 50.0341 91.3033 50.5909C91.5154 51.1439 91.6214 51.803 91.6214 52.5682V53.1989H84.468V51.8125H89.6499C89.6461 51.4186 89.5608 51.0682 89.3942 50.7614C89.2275 50.4508 88.9946 50.2064 88.6953 50.0284C88.3999 49.8504 88.0552 49.7614 87.6612 49.7614C87.2408 49.7614 86.8714 49.8636 86.5533 50.0682C86.2351 50.2689 85.987 50.5341 85.8089 50.8636C85.6347 51.1894 85.5457 51.5473 85.5419 51.9375V53.1477C85.5419 53.6553 85.6347 54.0909 85.8203 54.4545C86.0059 54.8144 86.2654 55.0909 86.5987 55.2841C86.9321 55.4735 87.3222 55.5682 87.7692 55.5682C88.0684 55.5682 88.3393 55.5265 88.5817 55.4432C88.8241 55.3561 89.0343 55.2292 89.2124 55.0625C89.3904 54.8958 89.5249 54.6894 89.6158 54.4432L91.5362 54.6591C91.415 55.1667 91.1839 55.6098 90.843 55.9886C90.5059 56.3636 90.0741 56.6553 89.5476 56.8636C89.0211 57.0682 88.4188 57.1705 87.7408 57.1705ZM97.7195 48.2727V49.8636H92.7024V48.2727H97.7195ZM93.9411 46.1818H95.9979V54.375C95.9979 54.6515 96.0395 54.8636 96.1229 55.0114C96.21 55.1553 96.3236 55.2538 96.4638 55.3068C96.6039 55.3598 96.7592 55.3864 96.9297 55.3864C97.0585 55.3864 97.1759 55.3769 97.282 55.358C97.3918 55.339 97.4751 55.322 97.532 55.3068L97.8786 56.9148C97.7687 56.9527 97.6115 56.9943 97.407 57.0398C97.2062 57.0852 96.96 57.1117 96.6683 57.1193C96.1532 57.1345 95.6892 57.0568 95.2763 56.8864C94.8634 56.7121 94.5357 56.4432 94.2933 56.0795C94.0547 55.7159 93.9373 55.2614 93.9411 54.7159V46.1818ZM103.21 57.1705C102.335 57.1705 101.579 56.9886 100.942 56.625C100.31 56.2576 99.8232 55.7386 99.4822 55.0682C99.1413 54.3939 98.9709 53.6004 98.9709 52.6875C98.9709 51.7898 99.1413 51.0019 99.4822 50.3239C99.8269 49.642 100.308 49.1117 100.925 48.733C101.543 48.3504 102.268 48.1591 103.102 48.1591C103.639 48.1591 104.147 48.2462 104.624 48.4205C105.105 48.5909 105.53 48.8561 105.897 49.2159C106.268 49.5758 106.56 50.0341 106.772 50.5909C106.984 51.1439 107.09 51.803 107.09 52.5682V53.1989H99.9368V51.8125H105.119C105.115 51.4186 105.03 51.0682 104.863 50.7614C104.696 50.4508 104.463 50.2064 104.164 50.0284C103.869 49.8504 103.524 49.7614 103.13 49.7614C102.71 49.7614 102.34 49.8636 102.022 50.0682C101.704 50.2689 101.456 50.5341 101.278 50.8636C101.103 51.1894 101.014 51.5473 101.011 51.9375V53.1477C101.011 53.6553 101.103 54.0909 101.289 54.4545C101.475 54.8144 101.734 55.0909 102.067 55.2841C102.401 55.4735 102.791 55.5682 103.238 55.5682C103.537 55.5682 103.808 55.5265 104.05 55.4432C104.293 55.3561 104.503 55.2292 104.681 55.0625C104.859 54.8958 104.994 54.6894 105.085 54.4432L107.005 54.6591C106.884 55.1667 106.653 55.6098 106.312 55.9886C105.975 56.3636 105.543 56.6553 105.016 56.8636C104.49 57.0682 103.888 57.1705 103.21 57.1705ZM112.069 57.1534C111.383 57.1534 110.77 56.9773 110.228 56.625C109.686 56.2727 109.258 55.7614 108.944 55.0909C108.629 54.4205 108.472 53.6061 108.472 52.6477C108.472 51.678 108.631 50.8598 108.95 50.1932C109.272 49.5227 109.705 49.017 110.251 48.6761C110.796 48.3314 111.404 48.1591 112.075 48.1591C112.586 48.1591 113.006 48.2462 113.336 48.4205C113.665 48.5909 113.927 48.7973 114.12 49.0398C114.313 49.2784 114.463 49.5038 114.569 49.7159H114.654V45.3636H116.717V57H114.694V55.625H114.569C114.463 55.8371 114.309 56.0625 114.109 56.3011C113.908 56.536 113.643 56.7367 113.313 56.9034C112.984 57.0701 112.569 57.1534 112.069 57.1534ZM112.643 55.4659C113.078 55.4659 113.45 55.3485 113.756 55.1136C114.063 54.875 114.296 54.5436 114.455 54.1193C114.614 53.6951 114.694 53.2008 114.694 52.6364C114.694 52.072 114.614 51.5814 114.455 51.1648C114.3 50.7481 114.069 50.4242 113.762 50.1932C113.459 49.9621 113.086 49.8466 112.643 49.8466C112.184 49.8466 111.802 49.9659 111.495 50.2045C111.188 50.4432 110.957 50.7727 110.802 51.1932C110.647 51.6136 110.569 52.0947 110.569 52.6364C110.569 53.1818 110.647 53.6686 110.802 54.0966C110.961 54.5208 111.194 54.8561 111.501 55.1023C111.811 55.3447 112.192 55.4659 112.643 55.4659ZM124.678 57L122.212 48.2727H124.309L125.843 54.4091H125.923L127.491 48.2727H129.565L131.133 54.375H131.218L132.729 48.2727H134.832L132.36 57H130.218L128.582 51.1023H128.462L126.826 57H124.678ZM139.825 57.1705C138.972 57.1705 138.234 56.983 137.609 56.608C136.984 56.233 136.499 55.7083 136.154 55.0341C135.813 54.3598 135.643 53.572 135.643 52.6705C135.643 51.7689 135.813 50.9792 136.154 50.3011C136.499 49.6231 136.984 49.0966 137.609 48.7216C138.234 48.3466 138.972 48.1591 139.825 48.1591C140.677 48.1591 141.415 48.3466 142.04 48.7216C142.665 49.0966 143.148 49.6231 143.489 50.3011C143.834 50.9792 144.006 51.7689 144.006 52.6705C144.006 53.572 143.834 54.3598 143.489 55.0341C143.148 55.7083 142.665 56.233 142.04 56.608C141.415 56.983 140.677 57.1705 139.825 57.1705ZM139.836 55.5227C140.298 55.5227 140.684 55.3958 140.995 55.142C141.306 54.8845 141.537 54.5398 141.688 54.108C141.844 53.6761 141.921 53.1951 141.921 52.6648C141.921 52.1307 141.844 51.6477 141.688 51.2159C141.537 50.7803 141.306 50.4337 140.995 50.1761C140.684 49.9186 140.298 49.7898 139.836 49.7898C139.362 49.7898 138.969 49.9186 138.654 50.1761C138.344 50.4337 138.111 50.7803 137.955 51.2159C137.804 51.6477 137.728 52.1307 137.728 52.6648C137.728 53.1951 137.804 53.6761 137.955 54.108C138.111 54.5398 138.344 54.8845 138.654 55.142C138.969 55.3958 139.362 55.5227 139.836 55.5227ZM145.752 57V48.2727H147.746V49.7273H147.837C147.996 49.2235 148.269 48.8352 148.656 48.5625C149.046 48.286 149.491 48.1477 149.991 48.1477C150.104 48.1477 150.231 48.1534 150.371 48.1648C150.515 48.1723 150.635 48.1856 150.729 48.2045V50.0966C150.642 50.0663 150.504 50.0398 150.315 50.017C150.129 49.9905 149.949 49.9773 149.775 49.9773C149.4 49.9773 149.063 50.0587 148.763 50.2216C148.468 50.3807 148.235 50.6023 148.065 50.8864C147.894 51.1705 147.809 51.4981 147.809 51.8693V57H145.752ZM153.971 54.2614L153.965 51.7784H154.295L157.431 48.2727H159.835L155.977 52.5682H155.55L153.971 54.2614ZM152.096 57V45.3636H154.153V57H152.096ZM157.573 57L154.732 53.0284L156.119 51.5795L160.033 57H157.573ZM169.532 48.2727V49.8636H164.515V48.2727H169.532ZM165.754 46.1818H167.81V54.375C167.81 54.6515 167.852 54.8636 167.935 55.0114C168.022 55.1553 168.136 55.2538 168.276 55.3068C168.416 55.3598 168.572 55.3864 168.742 55.3864C168.871 55.3864 168.988 55.3769 169.094 55.358C169.204 55.339 169.288 55.322 169.344 55.3068L169.691 56.9148C169.581 56.9527 169.424 56.9943 169.219 57.0398C169.019 57.0852 168.772 57.1117 168.481 57.1193C167.966 57.1345 167.502 57.0568 167.089 56.8864C166.676 56.7121 166.348 56.4432 166.106 56.0795C165.867 55.7159 165.75 55.2614 165.754 54.7159V46.1818ZM174.965 57.1705C174.113 57.1705 173.374 56.983 172.749 56.608C172.124 56.233 171.639 55.7083 171.295 55.0341C170.954 54.3598 170.783 53.572 170.783 52.6705C170.783 51.7689 170.954 50.9792 171.295 50.3011C171.639 49.6231 172.124 49.0966 172.749 48.7216C173.374 48.3466 174.113 48.1591 174.965 48.1591C175.817 48.1591 176.556 48.3466 177.181 48.7216C177.806 49.0966 178.289 49.6231 178.63 50.3011C178.975 50.9792 179.147 51.7689 179.147 52.6705C179.147 53.572 178.975 54.3598 178.63 55.0341C178.289 55.7083 177.806 56.233 177.181 56.608C176.556 56.983 175.817 57.1705 174.965 57.1705ZM174.977 55.5227C175.439 55.5227 175.825 55.3958 176.136 55.142C176.446 54.8845 176.677 54.5398 176.829 54.108C176.984 53.6761 177.062 53.1951 177.062 52.6648C177.062 52.1307 176.984 51.6477 176.829 51.2159C176.677 50.7803 176.446 50.4337 176.136 50.1761C175.825 49.9186 175.439 49.7898 174.977 49.7898C174.503 49.7898 174.109 49.9186 173.795 50.1761C173.484 50.4337 173.251 50.7803 173.096 51.2159C172.944 51.6477 172.869 52.1307 172.869 52.6648C172.869 53.1951 172.944 53.6761 173.096 54.108C173.251 54.5398 173.484 54.8845 173.795 55.142C174.109 55.3958 174.503 55.5227 174.977 55.5227ZM184.862 57V48.2727H186.856V49.7273H186.947C187.106 49.2235 187.379 48.8352 187.765 48.5625C188.155 48.286 188.6 48.1477 189.1 48.1477C189.214 48.1477 189.341 48.1534 189.481 48.1648C189.625 48.1723 189.744 48.1856 189.839 48.2045V50.0966C189.752 50.0663 189.613 50.0398 189.424 50.017C189.238 49.9905 189.058 49.9773 188.884 49.9773C188.509 49.9773 188.172 50.0587 187.873 50.2216C187.577 50.3807 187.344 50.6023 187.174 50.8864C187.004 51.1705 186.918 51.4981 186.918 51.8693V57H184.862ZM194.71 57.1705C193.835 57.1705 193.079 56.9886 192.442 56.625C191.81 56.2576 191.323 55.7386 190.982 55.0682C190.641 54.3939 190.471 53.6004 190.471 52.6875C190.471 51.7898 190.641 51.0019 190.982 50.3239C191.327 49.642 191.808 49.1117 192.425 48.733C193.043 48.3504 193.768 48.1591 194.602 48.1591C195.139 48.1591 195.647 48.2462 196.124 48.4205C196.605 48.5909 197.03 48.8561 197.397 49.2159C197.768 49.5758 198.06 50.0341 198.272 50.5909C198.484 51.1439 198.59 51.803 198.59 52.5682V53.1989H191.437V51.8125H196.619C196.615 51.4186 196.53 51.0682 196.363 50.7614C196.196 50.4508 195.963 50.2064 195.664 50.0284C195.369 49.8504 195.024 49.7614 194.63 49.7614C194.21 49.7614 193.84 49.8636 193.522 50.0682C193.204 50.2689 192.956 50.5341 192.778 50.8636C192.603 51.1894 192.514 51.5473 192.511 51.9375V53.1477C192.511 53.6553 192.603 54.0909 192.789 54.4545C192.975 54.8144 193.234 55.0909 193.567 55.2841C193.901 55.4735 194.291 55.5682 194.738 55.5682C195.037 55.5682 195.308 55.5265 195.55 55.4432C195.793 55.3561 196.003 55.2292 196.181 55.0625C196.359 54.8958 196.494 54.6894 196.585 54.4432L198.505 54.6591C198.384 55.1667 198.153 55.6098 197.812 55.9886C197.475 56.3636 197.043 56.6553 196.516 56.8636C195.99 57.0682 195.388 57.1705 194.71 57.1705ZM207.876 48.2727L204.768 57H202.495L199.387 48.2727H201.58L203.586 54.7557H203.677L205.688 48.2727H207.876ZM209.299 57V48.2727H211.356V57H209.299ZM210.333 47.0341C210.007 47.0341 209.727 46.9261 209.492 46.7102C209.257 46.4905 209.14 46.2273 209.14 45.9205C209.14 45.6098 209.257 45.3466 209.492 45.1307C209.727 44.911 210.007 44.8011 210.333 44.8011C210.663 44.8011 210.943 44.911 211.174 45.1307C211.409 45.3466 211.526 45.6098 211.526 45.9205C211.526 46.2273 211.409 46.4905 211.174 46.7102C210.943 46.9261 210.663 47.0341 210.333 47.0341ZM217.335 57.1705C216.46 57.1705 215.704 56.9886 215.067 56.625C214.435 56.2576 213.948 55.7386 213.607 55.0682C213.266 54.3939 213.096 53.6004 213.096 52.6875C213.096 51.7898 213.266 51.0019 213.607 50.3239C213.952 49.642 214.433 49.1117 215.05 48.733C215.668 48.3504 216.393 48.1591 217.227 48.1591C217.764 48.1591 218.272 48.2462 218.749 48.4205C219.23 48.5909 219.655 48.8561 220.022 49.2159C220.393 49.5758 220.685 50.0341 220.897 50.5909C221.109 51.1439 221.215 51.803 221.215 52.5682V53.1989H214.062V51.8125H219.244C219.24 51.4186 219.155 51.0682 218.988 50.7614C218.821 50.4508 218.588 50.2064 218.289 50.0284C217.994 49.8504 217.649 49.7614 217.255 49.7614C216.835 49.7614 216.465 49.8636 216.147 50.0682C215.829 50.2689 215.581 50.5341 215.403 50.8636C215.228 51.1894 215.139 51.5473 215.136 51.9375V53.1477C215.136 53.6553 215.228 54.0909 215.414 54.4545C215.6 54.8144 215.859 55.0909 216.192 55.2841C216.526 55.4735 216.916 55.5682 217.363 55.5682C217.662 55.5682 217.933 55.5265 218.175 55.4432C218.418 55.3561 218.628 55.2292 218.806 55.0625C218.984 54.8958 219.119 54.6894 219.21 54.4432L221.13 54.6591C221.009 55.1667 220.778 55.6098 220.437 55.9886C220.1 56.3636 219.668 56.6553 219.141 56.8636C218.615 57.0682 218.013 57.1705 217.335 57.1705ZM224.71 57L222.244 48.2727H224.34L225.874 54.4091H225.954L227.522 48.2727H229.596L231.164 54.375H231.249L232.761 48.2727H234.863L232.391 57H230.249L228.613 51.1023H228.494L226.857 57H224.71Z" fill="#545454"/>
<path d="M23.464 77H22.1714L25.9101 66.8182H27.1828L30.9214 77H29.6288L26.5862 68.429H26.5067L23.464 77ZM23.9413 73.0227H29.1515V74.1165H23.9413V73.0227ZM37.7574 71.0739L36.7034 71.3722C36.6371 71.1965 36.5393 71.0258 36.4101 70.8601C36.2841 70.6911 36.1118 70.5518 35.893 70.4425C35.6743 70.3331 35.3942 70.2784 35.0528 70.2784C34.5855 70.2784 34.1961 70.3861 33.8845 70.6016C33.5763 70.8137 33.4221 71.0838 33.4221 71.4119C33.4221 71.7036 33.5282 71.9339 33.7403 72.103C33.9524 72.272 34.2839 72.4129 34.7346 72.5256L35.8682 72.804C36.5509 72.9697 37.0597 73.2232 37.3944 73.5646C37.7292 73.9027 37.8966 74.3385 37.8966 74.8722C37.8966 75.3097 37.7706 75.7008 37.5187 76.0455C37.2702 76.3902 36.9221 76.6619 36.4747 76.8608C36.0273 77.0597 35.5069 77.1591 34.9136 77.1591C34.1347 77.1591 33.4901 76.9901 32.9797 76.652C32.4693 76.3139 32.1461 75.8201 32.0102 75.1705L33.1238 74.892C33.2299 75.303 33.4304 75.6113 33.7254 75.8168C34.0237 76.0223 34.4131 76.125 34.8937 76.125C35.4406 76.125 35.8748 76.009 36.1963 75.777C36.5211 75.5417 36.6835 75.2599 36.6835 74.9318C36.6835 74.6667 36.5907 74.4446 36.4051 74.2656C36.2195 74.0833 35.9345 73.9474 35.55 73.858L34.2773 73.5597C33.5779 73.3939 33.0642 73.1371 32.7361 72.7891C32.4113 72.4377 32.2488 71.9986 32.2488 71.4716C32.2488 71.0407 32.3698 70.6596 32.6118 70.3281C32.857 69.9967 33.1901 69.7365 33.6111 69.5476C34.0353 69.3587 34.5159 69.2642 35.0528 69.2642C35.8085 69.2642 36.4018 69.4299 36.8327 69.7614C37.2668 70.0928 37.5751 70.5303 37.7574 71.0739ZM45.0718 71.0739L44.0178 71.3722C43.9516 71.1965 43.8538 71.0258 43.7245 70.8601C43.5986 70.6911 43.4262 70.5518 43.2075 70.4425C42.9887 70.3331 42.7087 70.2784 42.3673 70.2784C41.8999 70.2784 41.5105 70.3861 41.199 70.6016C40.8907 70.8137 40.7366 71.0838 40.7366 71.4119C40.7366 71.7036 40.8427 71.9339 41.0548 72.103C41.2669 72.272 41.5983 72.4129 42.0491 72.5256L43.1826 72.804C43.8654 72.9697 44.3741 73.2232 44.7089 73.5646C45.0436 73.9027 45.211 74.3385 45.211 74.8722C45.211 75.3097 45.0851 75.7008 44.8332 76.0455C44.5846 76.3902 44.2366 76.6619 43.7892 76.8608C43.3417 77.0597 42.8213 77.1591 42.2281 77.1591C41.4492 77.1591 40.8045 76.9901 40.2941 76.652C39.7837 76.3139 39.4606 75.8201 39.3247 75.1705L40.4383 74.892C40.5444 75.303 40.7449 75.6113 41.0399 75.8168C41.3382 76.0223 41.7276 76.125 42.2082 76.125C42.7551 76.125 43.1892 76.009 43.5107 75.777C43.8356 75.5417 43.998 75.2599 43.998 74.9318C43.998 74.6667 43.9052 74.4446 43.7195 74.2656C43.5339 74.0833 43.2489 73.9474 42.8644 73.858L41.5917 73.5597C40.8924 73.3939 40.3786 73.1371 40.0505 72.7891C39.7257 72.4377 39.5633 71.9986 39.5633 71.4716C39.5633 71.0407 39.6843 70.6596 39.9262 70.3281C40.1715 69.9967 40.5046 69.7365 40.9255 69.5476C41.3498 69.3587 41.8303 69.2642 42.3673 69.2642C43.123 69.2642 43.7162 69.4299 44.1471 69.7614C44.5813 70.0928 44.8895 70.5303 45.0718 71.0739ZM46.9772 77V69.3636H48.1505V77H46.9772ZM47.5738 68.0909C47.3451 68.0909 47.1479 68.013 46.9822 67.8572C46.8198 67.7015 46.7385 67.5142 46.7385 67.2955C46.7385 67.0767 46.8198 66.8894 46.9822 66.7337C47.1479 66.5779 47.3451 66.5 47.5738 66.5C47.8025 66.5 47.998 66.5779 48.1604 66.7337C48.3261 66.8894 48.409 67.0767 48.409 67.2955C48.409 67.5142 48.3261 67.7015 48.1604 67.8572C47.998 68.013 47.8025 68.0909 47.5738 68.0909ZM53.3818 80.0227C52.8151 80.0227 52.3279 79.9498 51.9202 79.804C51.5125 79.6615 51.1728 79.4725 50.901 79.2372C50.6325 79.0052 50.4188 78.7566 50.2597 78.4915L51.1943 77.8352C51.3004 77.9744 51.4346 78.1335 51.597 78.3125C51.7594 78.4948 51.9815 78.6522 52.2632 78.7848C52.5483 78.9207 52.9211 78.9886 53.3818 78.9886C53.9983 78.9886 54.5071 78.8395 54.9081 78.5412C55.3092 78.2429 55.5097 77.7756 55.5097 77.1392V75.5881H55.4102C55.3241 75.7273 55.2014 75.8996 55.0423 76.1051C54.8866 76.3073 54.6612 76.4879 54.3662 76.647C54.0745 76.8028 53.6801 76.8807 53.183 76.8807C52.5665 76.8807 52.013 76.7348 51.5225 76.4432C51.0352 76.1515 50.6491 75.7273 50.3641 75.1705C50.0824 74.6136 49.9415 73.9375 49.9415 73.142C49.9415 72.3598 50.079 71.6787 50.3541 71.0987C50.6292 70.5154 51.012 70.0646 51.5026 69.7464C51.9931 69.425 52.5599 69.2642 53.2029 69.2642C53.7 69.2642 54.0944 69.3471 54.3861 69.5128C54.6811 69.6752 54.9065 69.8608 55.0622 70.0696C55.2213 70.2751 55.344 70.4441 55.4301 70.5767H55.5494V69.3636H56.683V77.2188C56.683 77.875 56.5338 78.4086 56.2355 78.8196C55.9405 79.2339 55.5428 79.5372 55.0423 79.7294C54.5452 79.925 53.9917 80.0227 53.3818 80.0227ZM53.3421 75.8267C53.8127 75.8267 54.2104 75.719 54.5352 75.5036C54.8601 75.2881 55.107 74.9782 55.276 74.5739C55.445 74.1695 55.5296 73.6856 55.5296 73.1222C55.5296 72.572 55.4467 72.0864 55.281 71.6655C55.1153 71.2446 54.87 70.9148 54.5452 70.6761C54.2204 70.4375 53.8193 70.3182 53.3421 70.3182C52.8449 70.3182 52.4306 70.4441 52.0992 70.696C51.771 70.9479 51.5241 71.286 51.3584 71.7102C51.196 72.1345 51.1148 72.6051 51.1148 73.1222C51.1148 73.6525 51.1977 74.1214 51.3634 74.5291C51.5324 74.9335 51.781 75.2517 52.1091 75.4837C52.4405 75.7124 52.8515 75.8267 53.3421 75.8267ZM60.004 72.4062V77H58.8307V69.3636H59.9642V70.5568H60.0637C60.2426 70.169 60.5144 69.8575 60.879 69.6222C61.2436 69.3835 61.7142 69.2642 62.2909 69.2642C62.808 69.2642 63.2604 69.3703 63.6482 69.5824C64.036 69.7912 64.3376 70.1094 64.553 70.5369C64.7684 70.9612 64.8762 71.4981 64.8762 72.1477V77H63.7029V72.2273C63.7029 71.6274 63.5471 71.16 63.2355 70.8253C62.924 70.4872 62.4964 70.3182 61.9529 70.3182C61.5783 70.3182 61.2436 70.3994 60.9486 70.5618C60.6569 70.7242 60.4266 70.9612 60.2575 71.2727C60.0885 71.5843 60.004 71.9621 60.004 72.4062ZM72.6878 77L70.3611 69.3636H71.594L73.2446 75.2102H73.3241L74.9548 69.3636H76.2077L77.8184 75.1903H77.898L79.5486 69.3636H80.7815L78.4548 77H77.3014L75.6309 71.1335H75.5116L73.8412 77H72.6878ZM85.1752 77.1591C84.4858 77.1591 83.8809 76.995 83.3605 76.6669C82.8435 76.3388 82.4391 75.8797 82.1475 75.2898C81.8591 74.6998 81.7149 74.0104 81.7149 73.2216C81.7149 72.4261 81.8591 71.7318 82.1475 71.1385C82.4391 70.5452 82.8435 70.0845 83.3605 69.7564C83.8809 69.4283 84.4858 69.2642 85.1752 69.2642C85.8646 69.2642 86.4678 69.4283 86.9848 69.7564C87.5052 70.0845 87.9095 70.5452 88.1979 71.1385C88.4896 71.7318 88.6354 72.4261 88.6354 73.2216C88.6354 74.0104 88.4896 74.6998 88.1979 75.2898C87.9095 75.8797 87.5052 76.3388 86.9848 76.6669C86.4678 76.995 85.8646 77.1591 85.1752 77.1591ZM85.1752 76.1051C85.6988 76.1051 86.1297 75.9709 86.4678 75.7024C86.8058 75.4339 87.0561 75.081 87.2185 74.6435C87.3809 74.206 87.4621 73.732 87.4621 73.2216C87.4621 72.7112 87.3809 72.2356 87.2185 71.7947C87.0561 71.3539 86.8058 70.9976 86.4678 70.7259C86.1297 70.4541 85.6988 70.3182 85.1752 70.3182C84.6515 70.3182 84.2206 70.4541 83.8825 70.7259C83.5445 70.9976 83.2942 71.3539 83.1318 71.7947C82.9694 72.2356 82.8882 72.7112 82.8882 73.2216C82.8882 73.732 82.9694 74.206 83.1318 74.6435C83.2942 75.081 83.5445 75.4339 83.8825 75.7024C84.2206 75.9709 84.6515 76.1051 85.1752 76.1051ZM90.4264 77V69.3636H91.5599V70.517H91.6395C91.7787 70.1392 92.0306 69.8326 92.3952 69.5973C92.7597 69.362 93.1707 69.2443 93.6281 69.2443C93.7143 69.2443 93.822 69.246 93.9513 69.2493C94.0805 69.2526 94.1783 69.2576 94.2446 69.2642V70.4574C94.2048 70.4474 94.1137 70.4325 93.9711 70.4126C93.8319 70.3894 93.6845 70.3778 93.5287 70.3778C93.1575 70.3778 92.826 70.4557 92.5344 70.6115C92.246 70.764 92.0173 70.9761 91.8483 71.2479C91.6826 71.5163 91.5997 71.8229 91.5997 72.1676V77H90.4264ZM96.7291 74.2159L96.7093 72.7642H96.9479L100.289 69.3636H101.741L98.1808 72.9631H98.0814L96.7291 74.2159ZM95.6354 77V66.8182H96.8087V77H95.6354ZM100.488 77L97.5047 73.2216L98.3399 72.4062L101.979 77H100.488ZM110.589 69.3636V70.358H106.472V69.3636H110.589ZM107.705 77V68.3097C107.705 67.8722 107.808 67.5076 108.013 67.2159C108.219 66.9242 108.486 66.7055 108.814 66.5597C109.142 66.4138 109.488 66.3409 109.853 66.3409C110.141 66.3409 110.377 66.3641 110.559 66.4105C110.741 66.4569 110.877 66.5 110.967 66.5398L110.628 67.554C110.569 67.5341 110.486 67.5092 110.38 67.4794C110.277 67.4496 110.141 67.4347 109.972 67.4347C109.584 67.4347 109.304 67.5324 109.132 67.728C108.963 67.9235 108.878 68.2102 108.878 68.5881V77H107.705ZM115.021 77.1591C114.331 77.1591 113.727 76.995 113.206 76.6669C112.689 76.3388 112.285 75.8797 111.993 75.2898C111.705 74.6998 111.561 74.0104 111.561 73.2216C111.561 72.4261 111.705 71.7318 111.993 71.1385C112.285 70.5452 112.689 70.0845 113.206 69.7564C113.727 69.4283 114.331 69.2642 115.021 69.2642C115.71 69.2642 116.313 69.4283 116.831 69.7564C117.351 70.0845 117.755 70.5452 118.044 71.1385C118.335 71.7318 118.481 72.4261 118.481 73.2216C118.481 74.0104 118.335 74.6998 118.044 75.2898C117.755 75.8797 117.351 76.3388 116.831 76.6669C116.313 76.995 115.71 77.1591 115.021 77.1591ZM115.021 76.1051C115.545 76.1051 115.975 75.9709 116.313 75.7024C116.652 75.4339 116.902 75.081 117.064 74.6435C117.227 74.206 117.308 73.732 117.308 73.2216C117.308 72.7112 117.227 72.2356 117.064 71.7947C116.902 71.3539 116.652 70.9976 116.313 70.7259C115.975 70.4541 115.545 70.3182 115.021 70.3182C114.497 70.3182 114.066 70.4541 113.728 70.7259C113.39 70.9976 113.14 71.3539 112.978 71.7947C112.815 72.2356 112.734 72.7112 112.734 73.2216C112.734 73.732 112.815 74.206 112.978 74.6435C113.14 75.081 113.39 75.4339 113.728 75.7024C114.066 75.9709 114.497 76.1051 115.021 76.1051ZM120.272 77V69.3636H121.406V70.517H121.485C121.624 70.1392 121.876 69.8326 122.241 69.5973C122.605 69.362 123.016 69.2443 123.474 69.2443C123.56 69.2443 123.668 69.246 123.797 69.2493C123.926 69.2526 124.024 69.2576 124.09 69.2642V70.4574C124.051 70.4474 123.959 70.4325 123.817 70.4126C123.678 70.3894 123.53 70.3778 123.374 70.3778C123.003 70.3778 122.672 70.4557 122.38 70.6115C122.092 70.764 121.863 70.9761 121.694 71.2479C121.528 71.5163 121.445 71.8229 121.445 72.1676V77H120.272ZM130.174 79.8636C129.975 79.8636 129.798 79.8471 129.642 79.8139C129.487 79.7841 129.379 79.7543 129.319 79.7244L129.617 78.6903C129.902 78.7633 130.154 78.7898 130.373 78.7699C130.592 78.75 130.786 78.6522 130.955 78.4766C131.127 78.3042 131.285 78.0241 131.427 77.6364L131.646 77.0398L128.822 69.3636H130.095L132.203 75.4489H132.282L134.39 69.3636H135.663L132.421 78.1136C132.276 78.508 132.095 78.8345 131.88 79.093C131.664 79.3549 131.414 79.5488 131.129 79.6747C130.847 79.8007 130.529 79.8636 130.174 79.8636ZM140.04 77.1591C139.351 77.1591 138.746 76.995 138.226 76.6669C137.709 76.3388 137.304 75.8797 137.013 75.2898C136.724 74.6998 136.58 74.0104 136.58 73.2216C136.58 72.4261 136.724 71.7318 137.013 71.1385C137.304 70.5452 137.709 70.0845 138.226 69.7564C138.746 69.4283 139.351 69.2642 140.04 69.2642C140.73 69.2642 141.333 69.4283 141.85 69.7564C142.37 70.0845 142.775 70.5452 143.063 71.1385C143.355 71.7318 143.501 72.4261 143.501 73.2216C143.501 74.0104 143.355 74.6998 143.063 75.2898C142.775 75.8797 142.37 76.3388 141.85 76.6669C141.333 76.995 140.73 77.1591 140.04 77.1591ZM140.04 76.1051C140.564 76.1051 140.995 75.9709 141.333 75.7024C141.671 75.4339 141.921 75.081 142.084 74.6435C142.246 74.206 142.327 73.732 142.327 73.2216C142.327 72.7112 142.246 72.2356 142.084 71.7947C141.921 71.3539 141.671 70.9976 141.333 70.7259C140.995 70.4541 140.564 70.3182 140.04 70.3182C139.517 70.3182 139.086 70.4541 138.748 70.7259C138.41 70.9976 138.159 71.3539 137.997 71.7947C137.835 72.2356 137.753 72.7112 137.753 73.2216C137.753 73.732 137.835 74.206 137.997 74.6435C138.159 75.081 138.41 75.4339 138.748 75.7024C139.086 75.9709 139.517 76.1051 140.04 76.1051ZM150.104 73.8778V69.3636H151.277V77H150.104V75.7074H150.025C149.846 76.0952 149.567 76.425 149.189 76.6967C148.812 76.9652 148.334 77.0994 147.758 77.0994C147.28 77.0994 146.856 76.995 146.485 76.7862C146.114 76.5741 145.822 76.2559 145.61 75.8317C145.398 75.4041 145.292 74.8655 145.292 74.2159V69.3636H146.465V74.1364C146.465 74.6932 146.621 75.1373 146.932 75.4688C147.247 75.8002 147.648 75.9659 148.135 75.9659C148.427 75.9659 148.724 75.8913 149.025 75.7422C149.33 75.593 149.585 75.3643 149.791 75.0561C150 74.7479 150.104 74.3551 150.104 73.8778ZM153.426 77V69.3636H154.56V70.517H154.639C154.779 70.1392 155.031 69.8326 155.395 69.5973C155.76 69.362 156.171 69.2443 156.628 69.2443C156.714 69.2443 156.822 69.246 156.951 69.2493C157.081 69.2526 157.178 69.2576 157.245 69.2642V70.4574C157.205 70.4474 157.114 70.4325 156.971 70.4126C156.832 70.3894 156.684 70.3778 156.529 70.3778C156.157 70.3778 155.826 70.4557 155.534 70.6115C155.246 70.764 155.017 70.9761 154.848 71.2479C154.683 71.5163 154.6 71.8229 154.6 72.1676V77H153.426ZM167.982 71.0739L166.928 71.3722C166.862 71.1965 166.764 71.0258 166.635 70.8601C166.509 70.6911 166.336 70.5518 166.118 70.4425C165.899 70.3331 165.619 70.2784 165.277 70.2784C164.81 70.2784 164.421 70.3861 164.109 70.6016C163.801 70.8137 163.647 71.0838 163.647 71.4119C163.647 71.7036 163.753 71.9339 163.965 72.103C164.177 72.272 164.508 72.4129 164.959 72.5256L166.093 72.804C166.776 72.9697 167.284 73.2232 167.619 73.5646C167.954 73.9027 168.121 74.3385 168.121 74.8722C168.121 75.3097 167.995 75.7008 167.743 76.0455C167.495 76.3902 167.147 76.6619 166.699 76.8608C166.252 77.0597 165.732 77.1591 165.138 77.1591C164.359 77.1591 163.715 76.9901 163.204 76.652C162.694 76.3139 162.371 75.8201 162.235 75.1705L163.348 74.892C163.455 75.303 163.655 75.6113 163.95 75.8168C164.248 76.0223 164.638 76.125 165.118 76.125C165.665 76.125 166.099 76.009 166.421 75.777C166.746 75.5417 166.908 75.2599 166.908 74.9318C166.908 74.6667 166.815 74.4446 166.63 74.2656C166.444 74.0833 166.159 73.9474 165.775 73.858L164.502 73.5597C163.803 73.3939 163.289 73.1371 162.961 72.7891C162.636 72.4377 162.473 71.9986 162.473 71.4716C162.473 71.0407 162.594 70.6596 162.836 70.3281C163.082 69.9967 163.415 69.7365 163.836 69.5476C164.26 69.3587 164.741 69.2642 165.277 69.2642C166.033 69.2642 166.626 69.4299 167.057 69.7614C167.491 70.0928 167.8 70.5303 167.982 71.0739ZM173.208 69.3636V70.358H169.251V69.3636H173.208ZM170.404 67.5341H171.578V74.8125C171.578 75.1439 171.626 75.3925 171.722 75.5582C171.821 75.7206 171.947 75.83 172.1 75.8864C172.255 75.9394 172.42 75.9659 172.592 75.9659C172.721 75.9659 172.827 75.9593 172.91 75.946C172.993 75.9295 173.059 75.9162 173.109 75.9062L173.348 76.9602C173.268 76.9901 173.157 77.0199 173.014 77.0497C172.872 77.0829 172.691 77.0994 172.473 77.0994C172.141 77.0994 171.816 77.0282 171.498 76.8857C171.183 76.7431 170.921 76.526 170.713 76.2344C170.507 75.9427 170.404 75.5748 170.404 75.1307V67.5341ZM179.786 73.8778V69.3636H180.959V77H179.786V75.7074H179.706C179.527 76.0952 179.249 76.425 178.871 76.6967C178.493 76.9652 178.016 77.0994 177.439 77.0994C176.962 77.0994 176.538 76.995 176.166 76.7862C175.795 76.5741 175.504 76.2559 175.291 75.8317C175.079 75.4041 174.973 74.8655 174.973 74.2159V69.3636H176.147V74.1364C176.147 74.6932 176.302 75.1373 176.614 75.4688C176.929 75.8002 177.33 75.9659 177.817 75.9659C178.109 75.9659 178.405 75.8913 178.707 75.7422C179.012 75.593 179.267 75.3643 179.473 75.0561C179.681 74.7479 179.786 74.3551 179.786 73.8778ZM185.992 77.1591C185.355 77.1591 184.793 76.9983 184.306 76.6768C183.819 76.352 183.438 75.8946 183.163 75.3047C182.888 74.7114 182.75 74.0104 182.75 73.2017C182.75 72.3996 182.888 71.7036 183.163 71.1136C183.438 70.5237 183.821 70.0679 184.311 69.7464C184.802 69.425 185.368 69.2642 186.011 69.2642C186.509 69.2642 186.901 69.3471 187.19 69.5128C187.481 69.6752 187.703 69.8608 187.856 70.0696C188.012 70.2751 188.133 70.4441 188.219 70.5767H188.318V66.8182H189.492V77H188.358V75.8267H188.219C188.133 75.9659 188.01 76.1416 187.851 76.3537C187.692 76.5625 187.465 76.7498 187.17 76.9155C186.875 77.0779 186.482 77.1591 185.992 77.1591ZM186.151 76.1051C186.621 76.1051 187.019 75.9825 187.344 75.7372C187.669 75.4886 187.916 75.1456 188.085 74.7081C188.254 74.2673 188.338 73.7585 188.338 73.1818C188.338 72.6117 188.255 72.1129 188.09 71.6854C187.924 71.2545 187.679 70.9197 187.354 70.6811C187.029 70.4392 186.628 70.3182 186.151 70.3182C185.653 70.3182 185.239 70.4458 184.908 70.701C184.58 70.9529 184.333 71.2959 184.167 71.7301C184.005 72.161 183.923 72.6449 183.923 73.1818C183.923 73.7254 184.006 74.2192 184.172 74.6634C184.341 75.1042 184.59 75.4555 184.918 75.7173C185.249 75.9759 185.66 76.1051 186.151 76.1051ZM195.005 77.1591C194.269 77.1591 193.635 76.9967 193.101 76.6719C192.571 76.3438 192.161 75.8864 191.873 75.2997C191.588 74.7098 191.445 74.0237 191.445 73.2415C191.445 72.4593 191.588 71.7699 191.873 71.1733C192.161 70.5734 192.562 70.1061 193.076 69.7713C193.593 69.4332 194.196 69.2642 194.886 69.2642C195.283 69.2642 195.676 69.3305 196.064 69.4631C196.452 69.5956 196.805 69.8111 197.123 70.1094C197.441 70.4044 197.695 70.7955 197.884 71.2827C198.073 71.7699 198.167 72.3698 198.167 73.0824V73.5795H192.281V72.5653H196.974C196.974 72.1345 196.888 71.75 196.715 71.4119C196.546 71.0739 196.304 70.8071 195.989 70.6115C195.678 70.416 195.31 70.3182 194.886 70.3182C194.418 70.3182 194.014 70.4342 193.673 70.6662C193.335 70.8949 193.074 71.1932 192.892 71.5611C192.71 71.929 192.619 72.3234 192.619 72.7443V73.4205C192.619 73.9972 192.718 74.486 192.917 74.8871C193.119 75.2848 193.399 75.5881 193.757 75.7969C194.115 76.0024 194.531 76.1051 195.005 76.1051C195.313 76.1051 195.592 76.062 195.84 75.9759C196.092 75.8864 196.309 75.7538 196.492 75.5781C196.674 75.3991 196.815 75.1771 196.914 74.9119L198.048 75.2301C197.928 75.6146 197.728 75.9527 197.446 76.2443C197.164 76.5327 196.816 76.758 196.402 76.9205C195.988 77.0795 195.522 77.1591 195.005 77.1591ZM201.125 72.4062V77H199.952V69.3636H201.085V70.5568H201.185C201.364 70.169 201.636 69.8575 202 69.6222C202.365 69.3835 202.835 69.2642 203.412 69.2642C203.929 69.2642 204.381 69.3703 204.769 69.5824C205.157 69.7912 205.459 70.1094 205.674 70.5369C205.89 70.9612 205.997 71.4981 205.997 72.1477V77H204.824V72.2273C204.824 71.6274 204.668 71.16 204.357 70.8253C204.045 70.4872 203.618 70.3182 203.074 70.3182C202.699 70.3182 202.365 70.3994 202.07 70.5618C201.778 70.7242 201.548 70.9612 201.379 71.2727C201.21 71.5843 201.125 71.9621 201.125 72.4062ZM211.462 69.3636V70.358H207.505V69.3636H211.462ZM208.658 67.5341H209.832V74.8125C209.832 75.1439 209.88 75.3925 209.976 75.5582C210.075 75.7206 210.201 75.83 210.354 75.8864C210.509 75.9394 210.673 75.9659 210.846 75.9659C210.975 75.9659 211.081 75.9593 211.164 75.946C211.247 75.9295 211.313 75.9162 211.363 75.9062L211.601 76.9602C211.522 76.9901 211.411 77.0199 211.268 77.0497C211.126 77.0829 210.945 77.0994 210.726 77.0994C210.395 77.0994 210.07 77.0282 209.752 76.8857C209.437 76.7431 209.175 76.526 208.967 76.2344C208.761 75.9427 208.658 75.5748 208.658 75.1307V67.5341ZM218.5 71.0739L217.446 71.3722C217.379 71.1965 217.282 71.0258 217.152 70.8601C217.026 70.6911 216.854 70.5518 216.635 70.4425C216.416 70.3331 216.136 70.2784 215.795 70.2784C215.328 70.2784 214.938 70.3861 214.627 70.6016C214.318 70.8137 214.164 71.0838 214.164 71.4119C214.164 71.7036 214.27 71.9339 214.483 72.103C214.695 72.272 215.026 72.4129 215.477 72.5256L216.61 72.804C217.293 72.9697 217.802 73.2232 218.137 73.5646C218.471 73.9027 218.639 74.3385 218.639 74.8722C218.639 75.3097 218.513 75.7008 218.261 76.0455C218.012 76.3902 217.664 76.6619 217.217 76.8608C216.769 77.0597 216.249 77.1591 215.656 77.1591C214.877 77.1591 214.232 76.9901 213.722 76.652C213.211 76.3139 212.888 75.8201 212.752 75.1705L213.866 74.892C213.972 75.303 214.173 75.6113 214.468 75.8168C214.766 76.0223 215.155 76.125 215.636 76.125C216.183 76.125 216.617 76.009 216.938 75.777C217.263 75.5417 217.426 75.2599 217.426 74.9318C217.426 74.6667 217.333 74.4446 217.147 74.2656C216.962 74.0833 216.677 73.9474 216.292 73.858L215.019 73.5597C214.32 73.3939 213.806 73.1371 213.478 72.7891C213.153 72.4377 212.991 71.9986 212.991 71.4716C212.991 71.0407 213.112 70.6596 213.354 70.3281C213.599 69.9967 213.932 69.7365 214.353 69.5476C214.777 69.3587 215.258 69.2642 215.795 69.2642C216.551 69.2642 217.144 69.4299 217.575 69.7614C218.009 70.0928 218.317 70.5303 218.5 71.0739ZM221.26 77.0795C221.015 77.0795 220.804 76.9917 220.629 76.8161C220.453 76.6404 220.365 76.4299 220.365 76.1847C220.365 75.9394 220.453 75.7289 220.629 75.5533C220.804 75.3776 221.015 75.2898 221.26 75.2898C221.505 75.2898 221.716 75.3776 221.891 75.5533C222.067 75.7289 222.155 75.9394 222.155 76.1847C222.155 76.3471 222.113 76.4962 222.031 76.6321C221.951 76.768 221.843 76.8774 221.707 76.9602C221.575 77.0398 221.426 77.0795 221.26 77.0795Z" fill="#545454"/>
<path d="M105.004 110V99.8182H108.822C109.605 99.8182 110.261 99.9541 110.791 100.226C111.325 100.498 111.728 100.879 111.999 101.369C112.274 101.857 112.412 102.425 112.412 103.075C112.412 103.728 112.273 104.294 111.994 104.775C111.719 105.252 111.313 105.622 110.776 105.884C110.239 106.142 109.58 106.271 108.798 106.271H106.078V104.74H108.549C109.006 104.74 109.381 104.677 109.673 104.551C109.964 104.422 110.18 104.235 110.319 103.989C110.461 103.741 110.533 103.436 110.533 103.075C110.533 102.713 110.461 102.405 110.319 102.15C110.176 101.891 109.959 101.696 109.668 101.563C109.376 101.427 109 101.359 108.539 101.359H106.849V110H105.004ZM110.264 105.386L112.785 110H110.727L108.251 105.386H110.264ZM117.301 110.149C116.536 110.149 115.875 109.99 115.318 109.672C114.764 109.35 114.338 108.896 114.04 108.31C113.742 107.72 113.593 107.025 113.593 106.227C113.593 105.441 113.742 104.752 114.04 104.158C114.342 103.562 114.763 103.098 115.303 102.766C115.843 102.432 116.478 102.264 117.207 102.264C117.678 102.264 118.122 102.34 118.539 102.493C118.96 102.642 119.332 102.874 119.653 103.189C119.978 103.504 120.233 103.905 120.419 104.392C120.604 104.876 120.697 105.453 120.697 106.122V106.674H114.438V105.461H118.972C118.969 105.116 118.894 104.81 118.748 104.541C118.602 104.269 118.399 104.056 118.137 103.9C117.878 103.744 117.577 103.666 117.232 103.666C116.864 103.666 116.541 103.756 116.262 103.935C115.984 104.11 115.767 104.342 115.611 104.631C115.459 104.916 115.381 105.229 115.377 105.57V106.629C115.377 107.073 115.459 107.455 115.621 107.773C115.783 108.088 116.011 108.33 116.302 108.499C116.594 108.664 116.935 108.747 117.326 108.747C117.588 108.747 117.825 108.711 118.037 108.638C118.249 108.562 118.433 108.451 118.589 108.305C118.745 108.159 118.863 107.978 118.942 107.763L120.623 107.952C120.516 108.396 120.314 108.784 120.016 109.115C119.721 109.443 119.343 109.698 118.882 109.881C118.422 110.06 117.895 110.149 117.301 110.149ZM126.033 102.364V103.756H121.643V102.364H126.033ZM122.727 100.534H124.526V107.703C124.526 107.945 124.563 108.131 124.636 108.26C124.712 108.386 124.811 108.472 124.934 108.518C125.057 108.565 125.193 108.588 125.342 108.588C125.454 108.588 125.557 108.58 125.65 108.563C125.746 108.547 125.819 108.532 125.869 108.518L126.172 109.925C126.076 109.959 125.938 109.995 125.759 110.035C125.584 110.075 125.368 110.098 125.113 110.104C124.662 110.118 124.256 110.05 123.895 109.901C123.534 109.748 123.247 109.513 123.035 109.195C122.826 108.876 122.723 108.479 122.727 108.001V100.534ZM127.538 110V102.364H129.283V103.636H129.363C129.502 103.196 129.74 102.856 130.078 102.617C130.42 102.375 130.809 102.254 131.247 102.254C131.346 102.254 131.457 102.259 131.58 102.269C131.706 102.276 131.81 102.287 131.893 102.304V103.96C131.817 103.933 131.696 103.91 131.53 103.89C131.368 103.867 131.21 103.855 131.058 103.855C130.73 103.855 130.435 103.926 130.173 104.069C129.914 104.208 129.711 104.402 129.561 104.651C129.412 104.899 129.338 105.186 129.338 105.511V110H127.538ZM134.44 112.864C134.195 112.864 133.968 112.844 133.759 112.804C133.553 112.768 133.389 112.724 133.267 112.675L133.684 111.273C133.946 111.349 134.18 111.385 134.385 111.382C134.591 111.379 134.771 111.314 134.927 111.188C135.086 111.066 135.22 110.86 135.33 110.572L135.484 110.159L132.715 102.364H134.624L136.384 108.131H136.463L138.228 102.364H140.142L137.085 110.925C136.942 111.329 136.753 111.675 136.518 111.964C136.283 112.255 135.994 112.478 135.653 112.63C135.315 112.786 134.91 112.864 134.44 112.864Z" fill="#0F67F5"/>
</svg>
