<svg width="672" height="158" viewBox="0 0 672 158" fill="none" xmlns="http://www.w3.org/2000/svg">
<rect width="672" height="158" fill="#F6F6F6"/>
<rect x="190" y="60.5" width="292" height="39" rx="3.5" fill="white"/>
<path d="M209.273 77.2727C209.205 76.697 208.928 76.25 208.443 75.9318C207.958 75.6136 207.364 75.4545 206.659 75.4545C206.144 75.4545 205.693 75.5379 205.307 75.7045C204.924 75.8712 204.625 76.1004 204.409 76.392C204.197 76.6837 204.091 77.0152 204.091 77.3864C204.091 77.697 204.165 77.964 204.312 78.1875C204.464 78.4072 204.657 78.5909 204.892 78.7386C205.127 78.8826 205.373 79.0019 205.631 79.0966C205.888 79.1875 206.125 79.2614 206.341 79.3182L207.523 79.6364C207.826 79.7159 208.163 79.8258 208.534 79.9659C208.909 80.1061 209.267 80.2973 209.608 80.5398C209.953 80.7784 210.237 81.0852 210.46 81.4602C210.684 81.8352 210.795 82.2955 210.795 82.8409C210.795 83.4697 210.631 84.0379 210.301 84.5455C209.975 85.053 209.498 85.4564 208.869 85.7557C208.244 86.0549 207.485 86.2045 206.591 86.2045C205.758 86.2045 205.036 86.0701 204.426 85.8011C203.82 85.5322 203.343 85.1572 202.994 84.6761C202.65 84.1951 202.455 83.6364 202.409 83H203.864C203.902 83.4394 204.049 83.803 204.307 84.0909C204.568 84.375 204.898 84.5871 205.295 84.7273C205.697 84.8636 206.129 84.9318 206.591 84.9318C207.129 84.9318 207.612 84.8447 208.04 84.6705C208.468 84.4924 208.807 84.2462 209.057 83.9318C209.307 83.6136 209.432 83.2424 209.432 82.8182C209.432 82.4318 209.324 82.1174 209.108 81.875C208.892 81.6326 208.608 81.4356 208.256 81.2841C207.903 81.1326 207.523 81 207.114 80.8864L205.682 80.4773C204.773 80.2159 204.053 79.8428 203.523 79.358C202.992 78.8731 202.727 78.2386 202.727 77.4545C202.727 76.803 202.903 76.2348 203.256 75.75C203.612 75.2614 204.089 74.8826 204.688 74.6136C205.29 74.3409 205.962 74.2045 206.705 74.2045C207.455 74.2045 208.121 74.339 208.705 74.608C209.288 74.8731 209.75 75.2367 210.091 75.6989C210.436 76.161 210.617 76.6856 210.636 77.2727H209.273ZM215.499 86.2045C214.946 86.2045 214.444 86.1004 213.993 85.892C213.542 85.6799 213.184 85.375 212.919 84.9773C212.654 84.5758 212.521 84.0909 212.521 83.5227C212.521 83.0227 212.62 82.6174 212.817 82.3068C213.014 81.9924 213.277 81.7462 213.607 81.5682C213.936 81.3902 214.3 81.2576 214.697 81.1705C215.099 81.0795 215.502 81.0076 215.908 80.9545C216.438 80.8864 216.868 80.8352 217.197 80.8011C217.531 80.7633 217.773 80.7008 217.925 80.6136C218.08 80.5265 218.158 80.375 218.158 80.1591V80.1136C218.158 79.553 218.004 79.1174 217.697 78.8068C217.394 78.4962 216.934 78.3409 216.317 78.3409C215.677 78.3409 215.175 78.4811 214.811 78.7614C214.447 79.0417 214.192 79.3409 214.044 79.6591L212.771 79.2045C212.999 78.6742 213.302 78.2614 213.68 77.9659C214.063 77.6667 214.48 77.4583 214.93 77.3409C215.385 77.2197 215.832 77.1591 216.271 77.1591C216.552 77.1591 216.874 77.1932 217.237 77.2614C217.605 77.3258 217.959 77.4602 218.3 77.6648C218.644 77.8693 218.93 78.178 219.158 78.5909C219.385 79.0038 219.499 79.5568 219.499 80.25V86H218.158V84.8182H218.089C217.999 85.0076 217.847 85.2102 217.635 85.4261C217.423 85.642 217.141 85.8258 216.788 85.9773C216.436 86.1288 216.006 86.2045 215.499 86.2045ZM215.703 85C216.233 85 216.68 84.8958 217.044 84.6875C217.411 84.4792 217.688 84.2102 217.874 83.8807C218.063 83.5511 218.158 83.2045 218.158 82.8409V81.6136C218.101 81.6818 217.976 81.7443 217.783 81.8011C217.593 81.8542 217.374 81.9015 217.124 81.9432C216.877 81.9811 216.637 82.0152 216.402 82.0455C216.171 82.072 215.983 82.0947 215.839 82.1136C215.491 82.1591 215.165 82.233 214.862 82.3352C214.563 82.4337 214.321 82.5833 214.135 82.7841C213.953 82.9811 213.862 83.25 213.862 83.5909C213.862 84.0568 214.035 84.4091 214.379 84.6477C214.728 84.8826 215.169 85 215.703 85ZM221.946 86V77.2727H223.241V78.6364H223.355C223.537 78.1705 223.83 77.8087 224.236 77.5511C224.641 77.2898 225.128 77.1591 225.696 77.1591C226.272 77.1591 226.751 77.2898 227.134 77.5511C227.52 77.8087 227.821 78.1705 228.037 78.6364H228.128C228.351 78.1856 228.687 77.8277 229.134 77.5625C229.58 77.2936 230.116 77.1591 230.741 77.1591C231.522 77.1591 232.16 77.4034 232.656 77.892C233.152 78.3769 233.401 79.1326 233.401 80.1591V86H232.06V80.1591C232.06 79.5152 231.884 79.0549 231.531 78.7784C231.179 78.5019 230.764 78.3636 230.287 78.3636C229.673 78.3636 229.198 78.5492 228.861 78.9205C228.524 79.2879 228.355 79.7538 228.355 80.3182V86H226.991V80.0227C226.991 79.5265 226.83 79.1269 226.509 78.8239C226.187 78.517 225.772 78.3636 225.264 78.3636C224.916 78.3636 224.59 78.4564 224.287 78.642C223.988 78.8277 223.745 79.0852 223.56 79.4148C223.378 79.7405 223.287 80.1174 223.287 80.5455V86H221.946ZM239.625 86.1591C238.769 86.1591 238.04 85.9261 237.438 85.4602C236.835 84.9905 236.375 84.3106 236.057 83.4205C235.739 82.5265 235.58 81.447 235.58 80.1818C235.58 78.9242 235.739 77.8504 236.057 76.9602C236.379 76.0663 236.841 75.3845 237.443 74.9148C238.049 74.4413 238.777 74.2045 239.625 74.2045C240.473 74.2045 241.199 74.4413 241.801 74.9148C242.407 75.3845 242.869 76.0663 243.188 76.9602C243.509 77.8504 243.67 78.9242 243.67 80.1818C243.67 81.447 243.511 82.5265 243.193 83.4205C242.875 84.3106 242.415 84.9905 241.812 85.4602C241.21 85.9261 240.481 86.1591 239.625 86.1591ZM239.625 84.9091C240.473 84.9091 241.133 84.5 241.602 83.6818C242.072 82.8636 242.307 81.697 242.307 80.1818C242.307 79.1742 242.199 78.3163 241.983 77.608C241.771 76.8996 241.464 76.3598 241.062 75.9886C240.665 75.6174 240.186 75.4318 239.625 75.4318C238.784 75.4318 238.127 75.8466 237.653 76.6761C237.18 77.5019 236.943 78.6705 236.943 80.1818C236.943 81.1894 237.049 82.0455 237.261 82.75C237.473 83.4545 237.778 83.9905 238.176 84.358C238.578 84.7254 239.061 84.9091 239.625 84.9091ZM249.511 86.1818C248.67 86.1818 247.945 85.9962 247.335 85.625C246.729 85.25 246.261 84.7273 245.932 84.0568C245.606 83.3826 245.443 82.5985 245.443 81.7045C245.443 80.8106 245.606 80.0227 245.932 79.3409C246.261 78.6553 246.72 78.1212 247.307 77.7386C247.898 77.3523 248.587 77.1591 249.375 77.1591C249.83 77.1591 250.278 77.2348 250.722 77.3864C251.165 77.5379 251.568 77.7841 251.932 78.125C252.295 78.4621 252.585 78.9091 252.801 79.4659C253.017 80.0227 253.125 80.7083 253.125 81.5227V82.0909H246.398V80.9318H251.761C251.761 80.4394 251.663 80 251.466 79.6136C251.273 79.2273 250.996 78.9223 250.636 78.6989C250.28 78.4754 249.86 78.3636 249.375 78.3636C248.841 78.3636 248.379 78.4962 247.989 78.7614C247.602 79.0227 247.305 79.3636 247.097 79.7841C246.888 80.2045 246.784 80.6553 246.784 81.1364V81.9091C246.784 82.5682 246.898 83.1269 247.125 83.5852C247.356 84.0398 247.676 84.3864 248.085 84.625C248.494 84.8598 248.97 84.9773 249.511 84.9773C249.864 84.9773 250.182 84.928 250.466 84.8295C250.754 84.7273 251.002 84.5758 251.21 84.375C251.419 84.1705 251.58 83.9167 251.693 83.6136L252.989 83.9773C252.852 84.4167 252.623 84.803 252.301 85.1364C251.979 85.4659 251.581 85.7235 251.108 85.9091C250.634 86.0909 250.102 86.1818 249.511 86.1818ZM248.693 76.0909L250.08 73.4545H251.648L249.875 76.0909H248.693ZM256.506 74.3636V86H255.165V74.3636H256.506Z" fill="#EE0505"/>
<rect x="190" y="60.5" width="292" height="39" rx="3.5" stroke="#EE0505"/>
<path d="M198.871 37.8182V48H197.231L192.433 41.0646H192.349V48H190.504V37.8182H192.155L196.947 44.7585H197.037V37.8182H198.871ZM202.999 48.1541C202.515 48.1541 202.079 48.0679 201.692 47.8956C201.307 47.7199 201.002 47.4614 200.777 47.12C200.555 46.7786 200.444 46.3577 200.444 45.8572C200.444 45.4264 200.523 45.0701 200.682 44.7884C200.841 44.5066 201.059 44.2812 201.334 44.1122C201.609 43.9432 201.919 43.8156 202.263 43.7294C202.611 43.6399 202.971 43.5753 203.342 43.5355C203.79 43.4891 204.153 43.4477 204.431 43.4112C204.709 43.3714 204.912 43.3118 205.037 43.2322C205.167 43.1494 205.231 43.0218 205.231 42.8494V42.8196C205.231 42.4451 205.12 42.1551 204.898 41.9496C204.676 41.7441 204.356 41.6413 203.939 41.6413C203.498 41.6413 203.148 41.7375 202.89 41.9297C202.635 42.1219 202.462 42.349 202.373 42.6108L200.692 42.3722C200.825 41.9081 201.044 41.5204 201.349 41.2088C201.653 40.8939 202.026 40.6586 202.467 40.5028C202.908 40.3438 203.395 40.2642 203.929 40.2642C204.297 40.2642 204.663 40.3073 205.028 40.3935C205.392 40.4796 205.725 40.6222 206.027 40.821C206.328 41.0166 206.57 41.2834 206.753 41.6214C206.938 41.9595 207.031 42.3821 207.031 42.8892V48H205.301V46.951H205.241C205.132 47.1631 204.978 47.362 204.779 47.5476C204.583 47.7299 204.336 47.8774 204.038 47.9901C203.743 48.0994 203.397 48.1541 202.999 48.1541ZM203.466 46.8317C203.828 46.8317 204.141 46.7604 204.406 46.6179C204.671 46.4721 204.875 46.2798 205.018 46.0412C205.163 45.8026 205.236 45.5424 205.236 45.2607V44.3608C205.18 44.4072 205.084 44.4503 204.948 44.4901C204.815 44.5298 204.666 44.5646 204.501 44.5945C204.335 44.6243 204.171 44.6508 204.008 44.674C203.846 44.6972 203.705 44.7171 203.586 44.7337C203.317 44.7701 203.077 44.8298 202.865 44.9126C202.653 44.9955 202.485 45.1115 202.363 45.2607C202.24 45.4065 202.179 45.5954 202.179 45.8274C202.179 46.1589 202.3 46.4091 202.542 46.5781C202.784 46.7472 203.092 46.8317 203.466 46.8317ZM208.841 48V40.3636H210.561V41.6612H210.65C210.809 41.2237 211.073 40.8823 211.441 40.6371C211.809 40.3885 212.248 40.2642 212.758 40.2642C213.275 40.2642 213.711 40.3902 214.066 40.642C214.424 40.8906 214.676 41.2304 214.822 41.6612H214.901C215.07 41.237 215.355 40.8989 215.756 40.647C216.161 40.3918 216.64 40.2642 217.193 40.2642C217.896 40.2642 218.469 40.4863 218.913 40.9304C219.357 41.3745 219.579 42.0225 219.579 42.8743V48H217.775V43.1527C217.775 42.6787 217.649 42.3324 217.397 42.1136C217.145 41.8916 216.837 41.7805 216.472 41.7805C216.038 41.7805 215.698 41.9164 215.453 42.1882C215.211 42.4567 215.09 42.8063 215.09 43.2372V48H213.325V43.0781C213.325 42.6837 213.206 42.3688 212.967 42.1335C212.732 41.8982 212.424 41.7805 212.042 41.7805C211.784 41.7805 211.549 41.8468 211.336 41.9794C211.124 42.1087 210.955 42.2926 210.829 42.5312C210.703 42.7666 210.64 43.0417 210.64 43.3565V48H208.841ZM224.786 48.1491C224.02 48.1491 223.359 47.9901 222.802 47.6719C222.249 47.3504 221.823 46.8963 221.525 46.3097C221.226 45.7197 221.077 45.0253 221.077 44.2266C221.077 43.4411 221.226 42.7517 221.525 42.1584C221.826 41.5618 222.247 41.0978 222.787 40.7663C223.328 40.4316 223.962 40.2642 224.691 40.2642C225.162 40.2642 225.606 40.3404 226.024 40.4929C226.445 40.642 226.816 40.8741 227.137 41.1889C227.462 41.5038 227.717 41.9048 227.903 42.392C228.089 42.8759 228.181 43.4527 228.181 44.1222V44.674H221.922V43.4609H226.456C226.453 43.1162 226.378 42.8097 226.233 42.5412C226.087 42.2694 225.883 42.0556 225.621 41.8999C225.363 41.7441 225.061 41.6662 224.716 41.6662C224.348 41.6662 224.025 41.7557 223.747 41.9347C223.468 42.1103 223.251 42.3423 223.096 42.6307C222.943 42.9157 222.865 43.2289 222.862 43.5703V44.6293C222.862 45.0734 222.943 45.4545 223.105 45.7727C223.268 46.0876 223.495 46.3295 223.787 46.4986C224.078 46.6643 224.42 46.7472 224.811 46.7472C225.073 46.7472 225.31 46.7107 225.522 46.6378C225.734 46.5616 225.918 46.4505 226.074 46.3047C226.229 46.1589 226.347 45.9782 226.426 45.7628L228.107 45.9517C228.001 46.3958 227.799 46.7836 227.5 47.1151C227.205 47.4432 226.828 47.6984 226.367 47.8807C225.906 48.0597 225.379 48.1491 224.786 48.1491Z" fill="#333333"/>
<g clip-path="url(#clip0_10896_106816)">
<path d="M197.17 116.96C196.82 116.96 196.55 116.68 196.55 116.34V113.01C196.55 112.67 196.83 112.39 197.17 112.39C197.51 112.39 197.79 112.67 197.79 113.01V116.34C197.79 116.68 197.51 116.96 197.17 116.96Z" fill="#EE0505"/>
<path d="M197.17 118.96C197 118.96 196.84 118.89 196.73 118.78C196.67 118.72 196.62 118.65 196.59 118.57C196.56 118.5 196.54 118.42 196.54 118.33C196.54 118.17 196.61 118.01 196.73 117.89C196.96 117.66 197.37 117.66 197.61 117.89C197.73 118.01 197.79 118.17 197.79 118.33C197.79 118.42 197.78 118.5 197.75 118.57C197.71 118.65 197.67 118.72 197.61 118.78C197.49 118.89 197.33 118.96 197.17 118.96Z" fill="#EE0505"/>
<path d="M197.17 122.96C193.15 122.96 189.88 119.69 189.88 115.67C189.88 111.65 193.15 108.38 197.17 108.38C201.19 108.38 204.46 111.65 204.46 115.67C204.46 119.69 201.19 122.96 197.17 122.96ZM197.17 109.62C193.84 109.62 191.12 112.33 191.12 115.67C191.12 119.01 193.83 121.71 197.16 121.71C200.49 121.71 203.2 119 203.2 115.67C203.2 112.34 200.5 109.62 197.17 109.62Z" fill="#EE0505"/>
</g>
<path d="M215.151 121H213.858L217.597 110.818H218.869L222.608 121H221.315L218.273 112.429H218.193L215.151 121ZM215.628 117.023H220.838V118.116H215.628V117.023ZM229.322 113.364L226.498 121H225.305L222.481 113.364H223.754L225.862 119.449H225.941L228.049 113.364H229.322ZM233.7 121.159C233.01 121.159 232.405 120.995 231.885 120.667C231.368 120.339 230.964 119.88 230.672 119.29C230.384 118.7 230.239 118.01 230.239 117.222C230.239 116.426 230.384 115.732 230.672 115.138C230.964 114.545 231.368 114.085 231.885 113.756C232.405 113.428 233.01 113.264 233.7 113.264C234.389 113.264 234.992 113.428 235.509 113.756C236.03 114.085 236.434 114.545 236.722 115.138C237.014 115.732 237.16 116.426 237.16 117.222C237.16 118.01 237.014 118.7 236.722 119.29C236.434 119.88 236.03 120.339 235.509 120.667C234.992 120.995 234.389 121.159 233.7 121.159ZM233.7 120.105C234.223 120.105 234.654 119.971 234.992 119.702C235.33 119.434 235.58 119.081 235.743 118.643C235.905 118.206 235.987 117.732 235.987 117.222C235.987 116.711 235.905 116.236 235.743 115.795C235.58 115.354 235.33 114.998 234.992 114.726C234.654 114.454 234.223 114.318 233.7 114.318C233.176 114.318 232.745 114.454 232.407 114.726C232.069 114.998 231.819 115.354 231.656 115.795C231.494 116.236 231.413 116.711 231.413 117.222C231.413 117.732 231.494 118.206 231.656 118.643C231.819 119.081 232.069 119.434 232.407 119.702C232.745 119.971 233.176 120.105 233.7 120.105ZM238.951 121V113.364H240.124V121H238.951ZM239.547 112.091C239.319 112.091 239.122 112.013 238.956 111.857C238.793 111.701 238.712 111.514 238.712 111.295C238.712 111.077 238.793 110.889 238.956 110.734C239.122 110.578 239.319 110.5 239.547 110.5C239.776 110.5 239.972 110.578 240.134 110.734C240.3 110.889 240.383 111.077 240.383 111.295C240.383 111.514 240.3 111.701 240.134 111.857C239.972 112.013 239.776 112.091 239.547 112.091ZM245.157 121.159C244.52 121.159 243.958 120.998 243.471 120.677C242.984 120.352 242.603 119.895 242.328 119.305C242.053 118.711 241.915 118.01 241.915 117.202C241.915 116.4 242.053 115.704 242.328 115.114C242.603 114.524 242.986 114.068 243.476 113.746C243.967 113.425 244.533 113.264 245.176 113.264C245.674 113.264 246.066 113.347 246.355 113.513C246.646 113.675 246.868 113.861 247.021 114.07C247.177 114.275 247.298 114.444 247.384 114.577H247.483V110.818H248.657V121H247.523V119.827H247.384C247.298 119.966 247.175 120.142 247.016 120.354C246.857 120.562 246.63 120.75 246.335 120.915C246.04 121.078 245.647 121.159 245.157 121.159ZM245.316 120.105C245.786 120.105 246.184 119.982 246.509 119.737C246.834 119.489 247.081 119.146 247.25 118.708C247.419 118.267 247.503 117.759 247.503 117.182C247.503 116.612 247.42 116.113 247.255 115.685C247.089 115.254 246.844 114.92 246.519 114.681C246.194 114.439 245.793 114.318 245.316 114.318C244.819 114.318 244.404 114.446 244.073 114.701C243.745 114.953 243.498 115.296 243.332 115.73C243.17 116.161 243.088 116.645 243.088 117.182C243.088 117.725 243.171 118.219 243.337 118.663C243.506 119.104 243.755 119.455 244.083 119.717C244.414 119.976 244.825 120.105 245.316 120.105ZM260.315 115.074L259.261 115.372C259.195 115.196 259.097 115.026 258.968 114.86C258.842 114.691 258.669 114.552 258.451 114.442C258.232 114.333 257.952 114.278 257.61 114.278C257.143 114.278 256.754 114.386 256.442 114.602C256.134 114.814 255.98 115.084 255.98 115.412C255.98 115.704 256.086 115.934 256.298 116.103C256.51 116.272 256.842 116.413 257.292 116.526L258.426 116.804C259.109 116.97 259.617 117.223 259.952 117.565C260.287 117.903 260.454 118.339 260.454 118.872C260.454 119.31 260.328 119.701 260.076 120.045C259.828 120.39 259.48 120.662 259.032 120.861C258.585 121.06 258.065 121.159 257.471 121.159C256.692 121.159 256.048 120.99 255.537 120.652C255.027 120.314 254.704 119.82 254.568 119.17L255.681 118.892C255.788 119.303 255.988 119.611 256.283 119.817C256.581 120.022 256.971 120.125 257.451 120.125C257.998 120.125 258.432 120.009 258.754 119.777C259.079 119.542 259.241 119.26 259.241 118.932C259.241 118.667 259.148 118.445 258.963 118.266C258.777 118.083 258.492 117.947 258.108 117.858L256.835 117.56C256.136 117.394 255.622 117.137 255.294 116.789C254.969 116.438 254.806 115.999 254.806 115.472C254.806 115.041 254.927 114.66 255.169 114.328C255.415 113.997 255.748 113.737 256.169 113.548C256.593 113.359 257.074 113.264 257.61 113.264C258.366 113.264 258.959 113.43 259.39 113.761C259.824 114.093 260.133 114.53 260.315 115.074ZM262.22 123.864V113.364H263.354V114.577H263.493C263.579 114.444 263.699 114.275 263.851 114.07C264.007 113.861 264.229 113.675 264.517 113.513C264.809 113.347 265.203 113.264 265.7 113.264C266.343 113.264 266.91 113.425 267.401 113.746C267.891 114.068 268.274 114.524 268.549 115.114C268.824 115.704 268.962 116.4 268.962 117.202C268.962 118.01 268.824 118.711 268.549 119.305C268.274 119.895 267.893 120.352 267.406 120.677C266.919 120.998 266.357 121.159 265.72 121.159C265.23 121.159 264.837 121.078 264.542 120.915C264.247 120.75 264.02 120.562 263.861 120.354C263.702 120.142 263.579 119.966 263.493 119.827H263.394V123.864H262.22ZM263.374 117.182C263.374 117.759 263.458 118.267 263.627 118.708C263.796 119.146 264.043 119.489 264.368 119.737C264.693 119.982 265.091 120.105 265.561 120.105C266.052 120.105 266.461 119.976 266.789 119.717C267.121 119.455 267.369 119.104 267.535 118.663C267.704 118.219 267.789 117.725 267.789 117.182C267.789 116.645 267.706 116.161 267.54 115.73C267.378 115.296 267.131 114.953 266.799 114.701C266.471 114.446 266.058 114.318 265.561 114.318C265.084 114.318 264.683 114.439 264.358 114.681C264.033 114.92 263.788 115.254 263.622 115.685C263.457 116.113 263.374 116.612 263.374 117.182ZM273.953 121.159C273.218 121.159 272.583 120.997 272.049 120.672C271.519 120.344 271.11 119.886 270.821 119.3C270.536 118.71 270.394 118.024 270.394 117.241C270.394 116.459 270.536 115.77 270.821 115.173C271.11 114.573 271.511 114.106 272.024 113.771C272.541 113.433 273.145 113.264 273.834 113.264C274.232 113.264 274.624 113.33 275.012 113.463C275.4 113.596 275.753 113.811 276.071 114.109C276.389 114.404 276.643 114.795 276.832 115.283C277.021 115.77 277.115 116.37 277.115 117.082V117.58H271.229V116.565H275.922C275.922 116.134 275.836 115.75 275.664 115.412C275.494 115.074 275.253 114.807 274.938 114.612C274.626 114.416 274.258 114.318 273.834 114.318C273.367 114.318 272.962 114.434 272.621 114.666C272.283 114.895 272.023 115.193 271.84 115.561C271.658 115.929 271.567 116.323 271.567 116.744V117.42C271.567 117.997 271.666 118.486 271.865 118.887C272.067 119.285 272.347 119.588 272.705 119.797C273.063 120.002 273.479 120.105 273.953 120.105C274.262 120.105 274.54 120.062 274.789 119.976C275.04 119.886 275.258 119.754 275.44 119.578C275.622 119.399 275.763 119.177 275.862 118.912L276.996 119.23C276.877 119.615 276.676 119.953 276.394 120.244C276.113 120.533 275.765 120.758 275.35 120.92C274.936 121.08 274.47 121.159 273.953 121.159ZM282.002 121.159C281.286 121.159 280.67 120.99 280.153 120.652C279.636 120.314 279.238 119.848 278.96 119.255C278.681 118.662 278.542 117.984 278.542 117.222C278.542 116.446 278.685 115.762 278.97 115.168C279.258 114.572 279.659 114.106 280.173 113.771C280.69 113.433 281.293 113.264 281.982 113.264C282.519 113.264 283.003 113.364 283.434 113.562C283.865 113.761 284.218 114.04 284.493 114.398C284.768 114.756 284.939 115.173 285.005 115.651H283.832C283.742 115.303 283.544 114.994 283.235 114.726C282.93 114.454 282.519 114.318 282.002 114.318C281.545 114.318 281.144 114.437 280.799 114.676C280.458 114.911 280.191 115.245 279.999 115.675C279.81 116.103 279.715 116.605 279.715 117.182C279.715 117.772 279.808 118.286 279.994 118.723C280.183 119.161 280.448 119.5 280.789 119.742C281.134 119.984 281.538 120.105 282.002 120.105C282.307 120.105 282.584 120.052 282.833 119.946C283.081 119.84 283.292 119.688 283.464 119.489C283.636 119.29 283.759 119.051 283.832 118.773H285.005C284.939 119.223 284.775 119.629 284.513 119.991C284.254 120.349 283.911 120.634 283.484 120.846C283.06 121.055 282.566 121.159 282.002 121.159ZM286.72 121V113.364H287.894V121H286.72ZM287.317 112.091C287.088 112.091 286.891 112.013 286.725 111.857C286.563 111.701 286.482 111.514 286.482 111.295C286.482 111.077 286.563 110.889 286.725 110.734C286.891 110.578 287.088 110.5 287.317 110.5C287.546 110.5 287.741 110.578 287.904 110.734C288.069 110.889 288.152 111.077 288.152 111.295C288.152 111.514 288.069 111.701 287.904 111.857C287.741 112.013 287.546 112.091 287.317 112.091ZM292.29 121.179C291.806 121.179 291.367 121.088 290.972 120.906C290.578 120.72 290.265 120.453 290.033 120.105C289.801 119.754 289.685 119.33 289.685 118.832C289.685 118.395 289.771 118.04 289.943 117.768C290.116 117.493 290.346 117.278 290.634 117.122C290.923 116.966 291.241 116.85 291.589 116.774C291.94 116.695 292.293 116.632 292.648 116.585C293.112 116.526 293.488 116.481 293.776 116.451C294.068 116.418 294.28 116.363 294.413 116.287C294.549 116.211 294.616 116.078 294.616 115.889V115.849C294.616 115.359 294.482 114.978 294.214 114.706C293.949 114.434 293.546 114.298 293.006 114.298C292.446 114.298 292.006 114.421 291.688 114.666C291.37 114.911 291.146 115.173 291.017 115.452L289.903 115.054C290.102 114.59 290.367 114.229 290.699 113.97C291.034 113.708 291.398 113.526 291.793 113.423C292.19 113.317 292.581 113.264 292.966 113.264C293.211 113.264 293.493 113.294 293.811 113.354C294.133 113.41 294.442 113.528 294.741 113.707C295.042 113.886 295.293 114.156 295.491 114.517C295.69 114.878 295.79 115.362 295.79 115.969V121H294.616V119.966H294.557C294.477 120.132 294.345 120.309 294.159 120.498C293.973 120.687 293.727 120.848 293.418 120.98C293.11 121.113 292.734 121.179 292.29 121.179ZM292.469 120.125C292.933 120.125 293.324 120.034 293.642 119.852C293.964 119.669 294.205 119.434 294.368 119.146C294.534 118.857 294.616 118.554 294.616 118.236V117.162C294.567 117.222 294.457 117.276 294.288 117.326C294.123 117.372 293.93 117.414 293.712 117.45C293.496 117.483 293.286 117.513 293.08 117.54C292.878 117.563 292.714 117.583 292.588 117.599C292.283 117.639 291.998 117.704 291.733 117.793C291.471 117.879 291.259 118.01 291.097 118.186C290.938 118.358 290.858 118.594 290.858 118.892C290.858 119.3 291.009 119.608 291.31 119.817C291.615 120.022 292.001 120.125 292.469 120.125ZM299.105 110.818V121H297.931V110.818H299.105ZM308.293 121.159C307.577 121.159 306.961 120.99 306.444 120.652C305.927 120.314 305.529 119.848 305.251 119.255C304.972 118.662 304.833 117.984 304.833 117.222C304.833 116.446 304.976 115.762 305.261 115.168C305.549 114.572 305.95 114.106 306.464 113.771C306.981 113.433 307.584 113.264 308.273 113.264C308.81 113.264 309.294 113.364 309.725 113.562C310.156 113.761 310.509 114.04 310.784 114.398C311.059 114.756 311.23 115.173 311.296 115.651H310.123C310.033 115.303 309.835 114.994 309.526 114.726C309.221 114.454 308.81 114.318 308.293 114.318C307.836 114.318 307.435 114.437 307.09 114.676C306.749 114.911 306.482 115.245 306.29 115.675C306.101 116.103 306.006 116.605 306.006 117.182C306.006 117.772 306.099 118.286 306.285 118.723C306.474 119.161 306.739 119.5 307.08 119.742C307.425 119.984 307.829 120.105 308.293 120.105C308.598 120.105 308.875 120.052 309.124 119.946C309.372 119.84 309.583 119.688 309.755 119.489C309.927 119.29 310.05 119.051 310.123 118.773H311.296C311.23 119.223 311.066 119.629 310.804 119.991C310.545 120.349 310.202 120.634 309.775 120.846C309.351 121.055 308.857 121.159 308.293 121.159ZM314.185 116.406V121H313.011V110.818H314.185V114.557H314.284C314.463 114.162 314.732 113.849 315.089 113.617C315.451 113.382 315.931 113.264 316.531 113.264C317.052 113.264 317.507 113.369 317.898 113.577C318.29 113.783 318.593 114.099 318.808 114.527C319.027 114.951 319.136 115.491 319.136 116.148V121H317.963V116.227C317.963 115.621 317.806 115.152 317.491 114.82C317.179 114.486 316.747 114.318 316.193 114.318C315.809 114.318 315.464 114.399 315.159 114.562C314.857 114.724 314.619 114.961 314.443 115.273C314.271 115.584 314.185 115.962 314.185 116.406ZM323.53 121.179C323.046 121.179 322.607 121.088 322.213 120.906C321.818 120.72 321.505 120.453 321.273 120.105C321.041 119.754 320.925 119.33 320.925 118.832C320.925 118.395 321.011 118.04 321.183 117.768C321.356 117.493 321.586 117.278 321.874 117.122C322.163 116.966 322.481 116.85 322.829 116.774C323.18 116.695 323.533 116.632 323.888 116.585C324.352 116.526 324.728 116.481 325.017 116.451C325.308 116.418 325.52 116.363 325.653 116.287C325.789 116.211 325.857 116.078 325.857 115.889V115.849C325.857 115.359 325.722 114.978 325.454 114.706C325.189 114.434 324.786 114.298 324.246 114.298C323.686 114.298 323.247 114.421 322.928 114.666C322.61 114.911 322.387 115.173 322.257 115.452L321.144 115.054C321.343 114.59 321.608 114.229 321.939 113.97C322.274 113.708 322.638 113.526 323.033 113.423C323.431 113.317 323.822 113.264 324.206 113.264C324.451 113.264 324.733 113.294 325.051 113.354C325.373 113.41 325.683 113.528 325.981 113.707C326.283 113.886 326.533 114.156 326.732 114.517C326.931 114.878 327.03 115.362 327.03 115.969V121H325.857V119.966H325.797C325.718 120.132 325.585 120.309 325.399 120.498C325.214 120.687 324.967 120.848 324.659 120.98C324.35 121.113 323.974 121.179 323.53 121.179ZM323.709 120.125C324.173 120.125 324.564 120.034 324.882 119.852C325.204 119.669 325.446 119.434 325.608 119.146C325.774 118.857 325.857 118.554 325.857 118.236V117.162C325.807 117.222 325.698 117.276 325.529 117.326C325.363 117.372 325.171 117.414 324.952 117.45C324.736 117.483 324.526 117.513 324.32 117.54C324.118 117.563 323.954 117.583 323.828 117.599C323.523 117.639 323.238 117.704 322.973 117.793C322.711 117.879 322.499 118.01 322.337 118.186C322.178 118.358 322.098 118.594 322.098 118.892C322.098 119.3 322.249 119.608 322.551 119.817C322.856 120.022 323.242 120.125 323.709 120.125ZM329.172 121V113.364H330.305V114.517H330.385C330.524 114.139 330.776 113.833 331.14 113.597C331.505 113.362 331.916 113.244 332.373 113.244C332.459 113.244 332.567 113.246 332.696 113.249C332.826 113.253 332.923 113.258 332.99 113.264V114.457C332.95 114.447 332.859 114.433 332.716 114.413C332.577 114.389 332.43 114.378 332.274 114.378C331.903 114.378 331.571 114.456 331.279 114.612C330.991 114.764 330.762 114.976 330.593 115.248C330.428 115.516 330.345 115.823 330.345 116.168V121H329.172ZM336.628 121.179C336.144 121.179 335.705 121.088 335.31 120.906C334.916 120.72 334.603 120.453 334.371 120.105C334.139 119.754 334.023 119.33 334.023 118.832C334.023 118.395 334.109 118.04 334.281 117.768C334.453 117.493 334.684 117.278 334.972 117.122C335.26 116.966 335.579 116.85 335.927 116.774C336.278 116.695 336.631 116.632 336.986 116.585C337.45 116.526 337.826 116.481 338.114 116.451C338.406 116.418 338.618 116.363 338.751 116.287C338.886 116.211 338.954 116.078 338.954 115.889V115.849C338.954 115.359 338.82 114.978 338.552 114.706C338.287 114.434 337.884 114.298 337.344 114.298C336.783 114.298 336.344 114.421 336.026 114.666C335.708 114.911 335.484 115.173 335.355 115.452L334.241 115.054C334.44 114.59 334.705 114.229 335.037 113.97C335.372 113.708 335.736 113.526 336.131 113.423C336.528 113.317 336.919 113.264 337.304 113.264C337.549 113.264 337.831 113.294 338.149 113.354C338.47 113.41 338.78 113.528 339.079 113.707C339.38 113.886 339.631 114.156 339.829 114.517C340.028 114.878 340.128 115.362 340.128 115.969V121H338.954V119.966H338.895C338.815 120.132 338.683 120.309 338.497 120.498C338.311 120.687 338.064 120.848 337.756 120.98C337.448 121.113 337.072 121.179 336.628 121.179ZM336.807 120.125C337.271 120.125 337.662 120.034 337.98 119.852C338.301 119.669 338.543 119.434 338.706 119.146C338.872 118.857 338.954 118.554 338.954 118.236V117.162C338.905 117.222 338.795 117.276 338.626 117.326C338.461 117.372 338.268 117.414 338.05 117.45C337.834 117.483 337.624 117.513 337.418 117.54C337.216 117.563 337.052 117.583 336.926 117.599C336.621 117.639 336.336 117.704 336.071 117.793C335.809 117.879 335.597 118.01 335.434 118.186C335.275 118.358 335.196 118.594 335.196 118.892C335.196 119.3 335.347 119.608 335.648 119.817C335.953 120.022 336.339 120.125 336.807 120.125ZM345.371 121.159C344.656 121.159 344.039 120.99 343.522 120.652C343.005 120.314 342.607 119.848 342.329 119.255C342.05 118.662 341.911 117.984 341.911 117.222C341.911 116.446 342.054 115.762 342.339 115.168C342.627 114.572 343.028 114.106 343.542 113.771C344.059 113.433 344.662 113.264 345.352 113.264C345.888 113.264 346.372 113.364 346.803 113.562C347.234 113.761 347.587 114.04 347.862 114.398C348.137 114.756 348.308 115.173 348.374 115.651H347.201C347.112 115.303 346.913 114.994 346.604 114.726C346.299 114.454 345.888 114.318 345.371 114.318C344.914 114.318 344.513 114.437 344.168 114.676C343.827 114.911 343.56 115.245 343.368 115.675C343.179 116.103 343.085 116.605 343.085 117.182C343.085 117.772 343.177 118.286 343.363 118.723C343.552 119.161 343.817 119.5 344.158 119.742C344.503 119.984 344.907 120.105 345.371 120.105C345.676 120.105 345.953 120.052 346.202 119.946C346.45 119.84 346.661 119.688 346.833 119.489C347.005 119.29 347.128 119.051 347.201 118.773H348.374C348.308 119.223 348.144 119.629 347.882 119.991C347.624 120.349 347.281 120.634 346.853 120.846C346.429 121.055 345.935 121.159 345.371 121.159ZM353.411 113.364V114.358H349.453V113.364H353.411ZM350.607 111.534H351.78V118.812C351.78 119.144 351.828 119.393 351.924 119.558C352.023 119.721 352.149 119.83 352.302 119.886C352.458 119.939 352.622 119.966 352.794 119.966C352.923 119.966 353.029 119.959 353.112 119.946C353.195 119.929 353.261 119.916 353.311 119.906L353.55 120.96C353.47 120.99 353.359 121.02 353.217 121.05C353.074 121.083 352.893 121.099 352.675 121.099C352.343 121.099 352.018 121.028 351.7 120.886C351.385 120.743 351.124 120.526 350.915 120.234C350.709 119.943 350.607 119.575 350.607 119.131V111.534ZM358.295 121.159C357.559 121.159 356.925 120.997 356.391 120.672C355.861 120.344 355.451 119.886 355.163 119.3C354.878 118.71 354.735 118.024 354.735 117.241C354.735 116.459 354.878 115.77 355.163 115.173C355.451 114.573 355.852 114.106 356.366 113.771C356.883 113.433 357.486 113.264 358.176 113.264C358.574 113.264 358.966 113.33 359.354 113.463C359.742 113.596 360.095 113.811 360.413 114.109C360.731 114.404 360.985 114.795 361.174 115.283C361.363 115.77 361.457 116.37 361.457 117.082V117.58H355.571V116.565H360.264C360.264 116.134 360.178 115.75 360.005 115.412C359.836 115.074 359.594 114.807 359.279 114.612C358.968 114.416 358.6 114.318 358.176 114.318C357.708 114.318 357.304 114.434 356.963 114.666C356.625 114.895 356.364 115.193 356.182 115.561C356 115.929 355.909 116.323 355.909 116.744V117.42C355.909 117.997 356.008 118.486 356.207 118.887C356.409 119.285 356.689 119.588 357.047 119.797C357.405 120.002 357.821 120.105 358.295 120.105C358.603 120.105 358.882 120.062 359.13 119.976C359.382 119.886 359.599 119.754 359.782 119.578C359.964 119.399 360.105 119.177 360.204 118.912L361.338 119.23C361.218 119.615 361.018 119.953 360.736 120.244C360.454 120.533 360.106 120.758 359.692 120.92C359.278 121.08 358.812 121.159 358.295 121.159ZM363.242 121V113.364H364.375V114.517H364.455C364.594 114.139 364.846 113.833 365.211 113.597C365.575 113.362 365.986 113.244 366.444 113.244C366.53 113.244 366.637 113.246 366.767 113.249C366.896 113.253 366.994 113.258 367.06 113.264V114.457C367.02 114.447 366.929 114.433 366.787 114.413C366.647 114.389 366.5 114.378 366.344 114.378C365.973 114.378 365.641 114.456 365.35 114.612C365.061 114.764 364.833 114.976 364.664 115.248C364.498 115.516 364.415 115.823 364.415 116.168V121H363.242ZM373.86 115.074L372.806 115.372C372.74 115.196 372.642 115.026 372.513 114.86C372.387 114.691 372.214 114.552 371.996 114.442C371.777 114.333 371.497 114.278 371.155 114.278C370.688 114.278 370.299 114.386 369.987 114.602C369.679 114.814 369.525 115.084 369.525 115.412C369.525 115.704 369.631 115.934 369.843 116.103C370.055 116.272 370.386 116.413 370.837 116.526L371.971 116.804C372.653 116.97 373.162 117.223 373.497 117.565C373.832 117.903 373.999 118.339 373.999 118.872C373.999 119.31 373.873 119.701 373.621 120.045C373.373 120.39 373.025 120.662 372.577 120.861C372.13 121.06 371.609 121.159 371.016 121.159C370.237 121.159 369.593 120.99 369.082 120.652C368.572 120.314 368.249 119.82 368.113 119.17L369.226 118.892C369.332 119.303 369.533 119.611 369.828 119.817C370.126 120.022 370.516 120.125 370.996 120.125C371.543 120.125 371.977 120.009 372.299 119.777C372.624 119.542 372.786 119.26 372.786 118.932C372.786 118.667 372.693 118.445 372.508 118.266C372.322 118.083 372.037 117.947 371.653 117.858L370.38 117.56C369.68 117.394 369.167 117.137 368.839 116.789C368.514 116.438 368.351 115.999 368.351 115.472C368.351 115.041 368.472 114.66 368.714 114.328C368.96 113.997 369.293 113.737 369.714 113.548C370.138 113.359 370.618 113.264 371.155 113.264C371.911 113.264 372.504 113.43 372.935 113.761C373.369 114.093 373.678 114.53 373.86 115.074ZM382.805 121.159C382.116 121.159 381.511 120.995 380.99 120.667C380.473 120.339 380.069 119.88 379.777 119.29C379.489 118.7 379.345 118.01 379.345 117.222C379.345 116.426 379.489 115.732 379.777 115.138C380.069 114.545 380.473 114.085 380.99 113.756C381.511 113.428 382.116 113.264 382.805 113.264C383.494 113.264 384.098 113.428 384.615 113.756C385.135 114.085 385.539 114.545 385.828 115.138C386.119 115.732 386.265 116.426 386.265 117.222C386.265 118.01 386.119 118.7 385.828 119.29C385.539 119.88 385.135 120.339 384.615 120.667C384.098 120.995 383.494 121.159 382.805 121.159ZM382.805 120.105C383.329 120.105 383.76 119.971 384.098 119.702C384.436 119.434 384.686 119.081 384.848 118.643C385.011 118.206 385.092 117.732 385.092 117.222C385.092 116.711 385.011 116.236 384.848 115.795C384.686 115.354 384.436 114.998 384.098 114.726C383.76 114.454 383.329 114.318 382.805 114.318C382.281 114.318 381.85 114.454 381.512 114.726C381.174 114.998 380.924 115.354 380.762 115.795C380.599 116.236 380.518 116.711 380.518 117.222C380.518 117.732 380.599 118.206 380.762 118.643C380.924 119.081 381.174 119.434 381.512 119.702C381.85 119.971 382.281 120.105 382.805 120.105ZM388.056 121V113.364H389.19V114.517H389.269C389.409 114.139 389.66 113.833 390.025 113.597C390.39 113.362 390.801 113.244 391.258 113.244C391.344 113.244 391.452 113.246 391.581 113.249C391.71 113.253 391.808 113.258 391.874 113.264V114.457C391.835 114.447 391.744 114.433 391.601 114.413C391.462 114.389 391.314 114.378 391.159 114.378C390.787 114.378 390.456 114.456 390.164 114.612C389.876 114.764 389.647 114.976 389.478 115.248C389.312 115.516 389.23 115.823 389.23 116.168V121H388.056ZM398.376 116.406V121H397.203V113.364H398.336V114.557H398.436C398.615 114.169 398.886 113.857 399.251 113.622C399.616 113.384 400.086 113.264 400.663 113.264C401.18 113.264 401.632 113.37 402.02 113.582C402.408 113.791 402.71 114.109 402.925 114.537C403.141 114.961 403.248 115.498 403.248 116.148V121H402.075V116.227C402.075 115.627 401.919 115.16 401.608 114.825C401.296 114.487 400.868 114.318 400.325 114.318C399.95 114.318 399.616 114.399 399.321 114.562C399.029 114.724 398.799 114.961 398.63 115.273C398.461 115.584 398.376 115.962 398.376 116.406ZM410.205 117.878V113.364H411.378V121H410.205V119.707H410.125C409.946 120.095 409.668 120.425 409.29 120.697C408.912 120.965 408.435 121.099 407.858 121.099C407.381 121.099 406.957 120.995 406.585 120.786C406.214 120.574 405.923 120.256 405.71 119.832C405.498 119.404 405.392 118.866 405.392 118.216V113.364H406.566V118.136C406.566 118.693 406.721 119.137 407.033 119.469C407.348 119.8 407.749 119.966 408.236 119.966C408.528 119.966 408.824 119.891 409.126 119.742C409.431 119.593 409.686 119.364 409.892 119.056C410.1 118.748 410.205 118.355 410.205 117.878ZM413.527 121V113.364H414.661V114.557H414.76C414.919 114.149 415.176 113.833 415.531 113.607C415.885 113.379 416.311 113.264 416.808 113.264C417.312 113.264 417.731 113.379 418.066 113.607C418.404 113.833 418.668 114.149 418.857 114.557H418.936C419.132 114.162 419.425 113.849 419.816 113.617C420.207 113.382 420.676 113.264 421.223 113.264C421.906 113.264 422.464 113.478 422.898 113.906C423.333 114.33 423.55 114.991 423.55 115.889V121H422.376V115.889C422.376 115.326 422.222 114.923 421.914 114.681C421.606 114.439 421.243 114.318 420.825 114.318C420.288 114.318 419.872 114.481 419.577 114.805C419.282 115.127 419.135 115.535 419.135 116.028V121H417.942V115.77C417.942 115.336 417.801 114.986 417.519 114.721C417.237 114.452 416.875 114.318 416.43 114.318C416.125 114.318 415.84 114.399 415.575 114.562C415.313 114.724 415.101 114.95 414.939 115.238C414.78 115.523 414.7 115.853 414.7 116.227V121H413.527ZM425.854 121V110.818H427.027V114.577H427.127C427.213 114.444 427.332 114.275 427.485 114.07C427.641 113.861 427.863 113.675 428.151 113.513C428.443 113.347 428.837 113.264 429.334 113.264C429.977 113.264 430.544 113.425 431.034 113.746C431.525 114.068 431.908 114.524 432.183 115.114C432.458 115.704 432.596 116.4 432.596 117.202C432.596 118.01 432.458 118.711 432.183 119.305C431.908 119.895 431.527 120.352 431.039 120.677C430.552 120.998 429.99 121.159 429.354 121.159C428.864 121.159 428.471 121.078 428.176 120.915C427.881 120.75 427.654 120.562 427.495 120.354C427.336 120.142 427.213 119.966 427.127 119.827H426.988V121H425.854ZM427.007 117.182C427.007 117.759 427.092 118.267 427.261 118.708C427.43 119.146 427.677 119.489 428.002 119.737C428.327 119.982 428.724 120.105 429.195 120.105C429.685 120.105 430.095 119.976 430.423 119.717C430.754 119.455 431.003 119.104 431.169 118.663C431.338 118.219 431.422 117.725 431.422 117.182C431.422 116.645 431.339 116.161 431.174 115.73C431.011 115.296 430.764 114.953 430.433 114.701C430.105 114.446 429.692 114.318 429.195 114.318C428.718 114.318 428.317 114.439 427.992 114.681C427.667 114.92 427.422 115.254 427.256 115.685C427.09 116.113 427.007 116.612 427.007 117.182ZM437.592 121.159C436.856 121.159 436.221 120.997 435.688 120.672C435.158 120.344 434.748 119.886 434.46 119.3C434.175 118.71 434.032 118.024 434.032 117.241C434.032 116.459 434.175 115.77 434.46 115.173C434.748 114.573 435.149 114.106 435.663 113.771C436.18 113.433 436.783 113.264 437.473 113.264C437.87 113.264 438.263 113.33 438.651 113.463C439.039 113.596 439.392 113.811 439.71 114.109C440.028 114.404 440.282 114.795 440.471 115.283C440.659 115.77 440.754 116.37 440.754 117.082V117.58H434.868V116.565H439.561C439.561 116.134 439.475 115.75 439.302 115.412C439.133 115.074 438.891 114.807 438.576 114.612C438.265 114.416 437.897 114.318 437.473 114.318C437.005 114.318 436.601 114.434 436.26 114.666C435.922 114.895 435.661 115.193 435.479 115.561C435.297 115.929 435.206 116.323 435.206 116.744V117.42C435.206 117.997 435.305 118.486 435.504 118.887C435.706 119.285 435.986 119.588 436.344 119.797C436.702 120.002 437.118 120.105 437.592 120.105C437.9 120.105 438.179 120.062 438.427 119.976C438.679 119.886 438.896 119.754 439.078 119.578C439.261 119.399 439.402 119.177 439.501 118.912L440.635 119.23C440.515 119.615 440.315 119.953 440.033 120.244C439.751 120.533 439.403 120.758 438.989 120.92C438.575 121.08 438.109 121.159 437.592 121.159ZM442.539 121V113.364H443.672V114.517H443.752C443.891 114.139 444.143 113.833 444.507 113.597C444.872 113.362 445.283 113.244 445.74 113.244C445.827 113.244 445.934 113.246 446.064 113.249C446.193 113.253 446.291 113.258 446.357 113.264V114.457C446.317 114.447 446.226 114.433 446.083 114.413C445.944 114.389 445.797 114.378 445.641 114.378C445.27 114.378 444.938 114.456 444.647 114.612C444.358 114.764 444.13 114.976 443.961 115.248C443.795 115.516 443.712 115.823 443.712 116.168V121H442.539ZM453.157 115.074L452.103 115.372C452.037 115.196 451.939 115.026 451.809 114.86C451.684 114.691 451.511 114.552 451.292 114.442C451.074 114.333 450.794 114.278 450.452 114.278C449.985 114.278 449.595 114.386 449.284 114.602C448.976 114.814 448.822 115.084 448.822 115.412C448.822 115.704 448.928 115.934 449.14 116.103C449.352 116.272 449.683 116.413 450.134 116.526L451.268 116.804C451.95 116.97 452.459 117.223 452.794 117.565C453.129 117.903 453.296 118.339 453.296 118.872C453.296 119.31 453.17 119.701 452.918 120.045C452.67 120.39 452.322 120.662 451.874 120.861C451.427 121.06 450.906 121.159 450.313 121.159C449.534 121.159 448.89 120.99 448.379 120.652C447.869 120.314 447.546 119.82 447.41 119.17L448.523 118.892C448.629 119.303 448.83 119.611 449.125 119.817C449.423 120.022 449.813 120.125 450.293 120.125C450.84 120.125 451.274 120.009 451.596 119.777C451.921 119.542 452.083 119.26 452.083 118.932C452.083 118.667 451.99 118.445 451.805 118.266C451.619 118.083 451.334 117.947 450.949 117.858L449.677 117.56C448.977 117.394 448.464 117.137 448.135 116.789C447.811 116.438 447.648 115.999 447.648 115.472C447.648 115.041 447.769 114.66 448.011 114.328C448.256 113.997 448.59 113.737 449.01 113.548C449.435 113.359 449.915 113.264 450.452 113.264C451.208 113.264 451.801 113.43 452.232 113.761C452.666 114.093 452.974 114.53 453.157 115.074Z" fill="#EE0505"/>
<defs>
<clipPath id="clip0_10896_106816">
<rect width="16" height="16" fill="white" transform="translate(189.5 108)"/>
</clipPath>
</defs>
</svg>
