<svg width="314" height="184" viewBox="0 0 314 184" fill="none" xmlns="http://www.w3.org/2000/svg">
<g filter="url(#filter0_dd_821_55351)">
<rect x="6" y="3" width="294" height="172" rx="8" fill="white"/>
<rect x="18" y="15" width="270" height="74" rx="4" fill="#F0F6FE"/>
<path d="M35.3791 45.1301V45.6301H35.8791H48.1291H48.6291V45.1301V36.3801H49.3791V46.0001C49.3791 46.2077 49.2093 46.3801 48.9991 46.3801H34.9991C34.7916 46.3801 34.6191 46.2103 34.6191 46.0001V36.3801H35.3791V45.1301ZM49.3791 35.3801H48.6291H48.1291H35.8791H35.3791H34.6191V35.0001C34.6191 34.822 34.7442 34.6697 34.9126 34.6301H49.0855C49.2524 34.6694 49.3791 34.8199 49.3791 35.0001V35.3801ZM50.3791 35.0001C50.3791 34.4613 50.0717 34.0007 49.6291 33.7727V31.8801V31.3801H49.1291H34.8791H34.3791V31.8801V33.767C33.926 33.9957 33.6191 34.4665 33.6191 35.0001V31.0001C33.6191 30.7926 33.789 30.6201 33.9991 30.6201H49.9991C50.2067 30.6201 50.3791 30.7899 50.3791 31.0001V35.0001Z" fill="#0F67F5" stroke="#0F67F5"/>
<path d="M69.4716 36.5625C69.4186 36.0663 69.1951 35.6799 68.8011 35.4034C68.411 35.1269 67.9034 34.9886 67.2784 34.9886C66.839 34.9886 66.4621 35.0549 66.1477 35.1875C65.8333 35.3201 65.5928 35.5 65.4261 35.7273C65.2595 35.9545 65.1742 36.214 65.1705 36.5057C65.1705 36.7481 65.2254 36.9583 65.3352 37.1364C65.4489 37.3144 65.6023 37.4659 65.7955 37.5909C65.9886 37.7121 66.2027 37.8144 66.4375 37.8977C66.6723 37.9811 66.9091 38.0511 67.1477 38.108L68.2386 38.3807C68.678 38.483 69.1004 38.6212 69.5057 38.7955C69.9148 38.9697 70.2803 39.1894 70.6023 39.4545C70.928 39.7197 71.1856 40.0398 71.375 40.4148C71.5644 40.7898 71.6591 41.2292 71.6591 41.733C71.6591 42.4148 71.4848 43.0152 71.1364 43.5341C70.7879 44.0492 70.2841 44.4527 69.625 44.7443C68.9697 45.0322 68.1761 45.1761 67.2443 45.1761C66.339 45.1761 65.553 45.036 64.8864 44.7557C64.2235 44.4754 63.7045 44.0663 63.3295 43.5284C62.9583 42.9905 62.7576 42.3352 62.7273 41.5625H64.8011C64.8314 41.9678 64.9564 42.3049 65.1761 42.5739C65.3958 42.8428 65.6818 43.0436 66.0341 43.1761C66.3902 43.3087 66.7879 43.375 67.2273 43.375C67.6856 43.375 68.0871 43.3068 68.4318 43.1705C68.7803 43.0303 69.053 42.8371 69.25 42.5909C69.447 42.3409 69.5473 42.0492 69.5511 41.7159C69.5473 41.4129 69.4583 41.1629 69.2841 40.9659C69.1098 40.7652 68.8655 40.5985 68.5511 40.4659C68.2405 40.3295 67.8769 40.2083 67.4602 40.1023L66.1364 39.7614C65.178 39.5152 64.4205 39.142 63.8636 38.642C63.3106 38.1383 63.0341 37.4697 63.0341 36.6364C63.0341 35.9508 63.2197 35.3504 63.5909 34.8352C63.9659 34.3201 64.4754 33.9205 65.1193 33.6364C65.7633 33.3485 66.4924 33.2045 67.3068 33.2045C68.1326 33.2045 68.8561 33.3485 69.4773 33.6364C70.1023 33.9205 70.5928 34.3163 70.9489 34.8239C71.3049 35.3277 71.4886 35.9072 71.5 36.5625H69.4716ZM77.3111 45.1705C76.4361 45.1705 75.6804 44.9886 75.044 44.625C74.4115 44.2576 73.9247 43.7386 73.5838 43.0682C73.2429 42.3939 73.0724 41.6004 73.0724 40.6875C73.0724 39.7898 73.2429 39.0019 73.5838 38.3239C73.9285 37.642 74.4096 37.1117 75.027 36.733C75.6444 36.3504 76.3698 36.1591 77.2031 36.1591C77.741 36.1591 78.2486 36.2462 78.7259 36.4205C79.2069 36.5909 79.6312 36.8561 79.9986 37.2159C80.3698 37.5758 80.6615 38.0341 80.8736 38.5909C81.0857 39.1439 81.1918 39.803 81.1918 40.5682V41.1989H74.0384V39.8125H79.2202C79.2164 39.4186 79.1312 39.0682 78.9645 38.7614C78.7978 38.4508 78.5649 38.2064 78.2656 38.0284C77.9702 37.8504 77.6255 37.7614 77.2315 37.7614C76.8111 37.7614 76.4418 37.8636 76.1236 38.0682C75.8054 38.2689 75.5573 38.5341 75.3793 38.8636C75.205 39.1894 75.116 39.5473 75.1122 39.9375V41.1477C75.1122 41.6553 75.205 42.0909 75.3906 42.4545C75.5762 42.8144 75.8357 43.0909 76.169 43.2841C76.5024 43.4735 76.8925 43.5682 77.3395 43.5682C77.6387 43.5682 77.9096 43.5265 78.152 43.4432C78.3944 43.3561 78.6046 43.2292 78.7827 43.0625C78.9607 42.8958 79.0952 42.6894 79.1861 42.4432L81.1065 42.6591C80.9853 43.1667 80.7543 43.6098 80.4134 43.9886C80.0762 44.3636 79.6444 44.6553 79.1179 44.8636C78.5914 45.0682 77.9891 45.1705 77.3111 45.1705ZM87.2898 36.2727V37.8636H82.2727V36.2727H87.2898ZM83.5114 34.1818H85.5682V42.375C85.5682 42.6515 85.6098 42.8636 85.6932 43.0114C85.7803 43.1553 85.8939 43.2538 86.0341 43.3068C86.1742 43.3598 86.3295 43.3864 86.5 43.3864C86.6288 43.3864 86.7462 43.3769 86.8523 43.358C86.9621 43.339 87.0455 43.322 87.1023 43.3068L87.4489 44.9148C87.339 44.9527 87.1818 44.9943 86.9773 45.0398C86.7765 45.0852 86.5303 45.1117 86.2386 45.1193C85.7235 45.1345 85.2595 45.0568 84.8466 44.8864C84.4337 44.7121 84.1061 44.4432 83.8636 44.0795C83.625 43.7159 83.5076 43.2614 83.5114 42.7159V34.1818ZM92.9787 48.2727V36.2727H95.0014V37.7159H95.1207C95.2268 37.5038 95.3764 37.2784 95.5696 37.0398C95.7628 36.7973 96.0241 36.5909 96.3537 36.4205C96.6832 36.2462 97.1037 36.1591 97.6151 36.1591C98.2893 36.1591 98.8973 36.3314 99.4389 36.6761C99.9844 37.017 100.416 37.5227 100.734 38.1932C101.056 38.8598 101.217 39.678 101.217 40.6477C101.217 41.6061 101.06 42.4205 100.746 43.0909C100.431 43.7614 100.003 44.2727 99.4616 44.625C98.92 44.9773 98.3063 45.1534 97.6207 45.1534C97.1207 45.1534 96.706 45.0701 96.3764 44.9034C96.0469 44.7367 95.7817 44.536 95.581 44.3011C95.384 44.0625 95.2306 43.8371 95.1207 43.625H95.0355V48.2727H92.9787ZM94.9957 40.6364C94.9957 41.2008 95.0753 41.6951 95.2344 42.1193C95.3973 42.5436 95.6302 42.875 95.9332 43.1136C96.2401 43.3485 96.6113 43.4659 97.0469 43.4659C97.5014 43.4659 97.8821 43.3447 98.1889 43.1023C98.4957 42.8561 98.7268 42.5208 98.8821 42.0966C99.0412 41.6686 99.1207 41.1818 99.1207 40.6364C99.1207 40.0947 99.0431 39.6136 98.8878 39.1932C98.7325 38.7727 98.5014 38.4432 98.1946 38.2045C97.8878 37.9659 97.5052 37.8466 97.0469 37.8466C96.6075 37.8466 96.2344 37.9621 95.9276 38.1932C95.6207 38.4242 95.3878 38.7481 95.2287 39.1648C95.0734 39.5814 94.9957 40.072 94.9957 40.6364ZM102.979 45V36.2727H104.973V37.7273H105.064C105.223 37.2235 105.496 36.8352 105.882 36.5625C106.272 36.286 106.717 36.1477 107.217 36.1477C107.331 36.1477 107.458 36.1534 107.598 36.1648C107.742 36.1723 107.861 36.1856 107.956 36.2045V38.0966C107.869 38.0663 107.731 38.0398 107.541 38.017C107.356 37.9905 107.176 37.9773 107.001 37.9773C106.626 37.9773 106.289 38.0587 105.99 38.2216C105.695 38.3807 105.462 38.6023 105.291 38.8864C105.121 39.1705 105.036 39.4981 105.036 39.8693V45H102.979ZM111.678 45.1761C111.125 45.1761 110.626 45.0777 110.183 44.8807C109.744 44.6799 109.395 44.3845 109.138 43.9943C108.884 43.6042 108.757 43.1231 108.757 42.5511C108.757 42.0587 108.848 41.6515 109.03 41.3295C109.212 41.0076 109.46 40.75 109.774 40.5568C110.089 40.3636 110.443 40.2178 110.837 40.1193C111.234 40.017 111.645 39.9432 112.07 39.8977C112.581 39.8447 112.996 39.7973 113.314 39.7557C113.632 39.7102 113.863 39.642 114.007 39.5511C114.155 39.4564 114.229 39.3106 114.229 39.1136V39.0795C114.229 38.6515 114.102 38.3201 113.848 38.0852C113.594 37.8504 113.229 37.733 112.751 37.733C112.248 37.733 111.848 37.8428 111.553 38.0625C111.261 38.2822 111.064 38.5417 110.962 38.8409L109.041 38.5682C109.193 38.0379 109.443 37.5947 109.791 37.2386C110.14 36.8788 110.566 36.6098 111.07 36.4318C111.573 36.25 112.13 36.1591 112.74 36.1591C113.161 36.1591 113.579 36.2083 113.996 36.3068C114.412 36.4053 114.793 36.5682 115.138 36.7955C115.482 37.0189 115.759 37.3239 115.967 37.7102C116.179 38.0966 116.286 38.5795 116.286 39.1591V45H114.308V43.8011H114.24C114.115 44.0436 113.939 44.2708 113.712 44.483C113.488 44.6913 113.206 44.8598 112.865 44.9886C112.528 45.1136 112.132 45.1761 111.678 45.1761ZM112.212 43.6648C112.625 43.6648 112.982 43.5833 113.286 43.4205C113.589 43.2538 113.821 43.0341 113.984 42.7614C114.151 42.4886 114.234 42.1913 114.234 41.8693V40.8409C114.17 40.8939 114.06 40.9432 113.905 40.9886C113.753 41.0341 113.583 41.0739 113.393 41.108C113.204 41.142 113.017 41.1723 112.831 41.1989C112.645 41.2254 112.484 41.2481 112.348 41.267C112.041 41.3087 111.767 41.3769 111.524 41.4716C111.282 41.5663 111.09 41.6989 110.95 41.8693C110.81 42.036 110.74 42.2519 110.74 42.517C110.74 42.8958 110.878 43.1818 111.155 43.375C111.431 43.5682 111.784 43.6648 112.212 43.6648ZM122.161 45.1705C121.289 45.1705 120.541 44.9792 119.916 44.5966C119.295 44.214 118.816 43.6856 118.479 43.0114C118.145 42.3333 117.979 41.553 117.979 40.6705C117.979 39.7841 118.149 39.0019 118.49 38.3239C118.831 37.642 119.312 37.1117 119.933 36.733C120.558 36.3504 121.297 36.1591 122.149 36.1591C122.857 36.1591 123.484 36.2898 124.03 36.5511C124.579 36.8087 125.017 37.1742 125.342 37.6477C125.668 38.1174 125.854 38.6667 125.899 39.2955H123.933C123.854 38.875 123.664 38.5246 123.365 38.2443C123.07 37.9602 122.674 37.8182 122.178 37.8182C121.757 37.8182 121.388 37.9318 121.07 38.1591C120.751 38.3826 120.503 38.7045 120.325 39.125C120.151 39.5455 120.064 40.0492 120.064 40.6364C120.064 41.2311 120.151 41.7424 120.325 42.1705C120.5 42.5947 120.744 42.9223 121.058 43.1534C121.376 43.3807 121.75 43.4943 122.178 43.4943C122.481 43.4943 122.751 43.4375 122.99 43.3239C123.232 43.2064 123.435 43.0379 123.598 42.8182C123.761 42.5985 123.873 42.3314 123.933 42.017H125.899C125.85 42.6345 125.668 43.1818 125.354 43.6591C125.039 44.1326 124.611 44.5038 124.07 44.7727C123.528 45.0379 122.892 45.1705 122.161 45.1705ZM131.946 36.2727V37.8636H126.929V36.2727H131.946ZM128.168 34.1818H130.224V42.375C130.224 42.6515 130.266 42.8636 130.349 43.0114C130.437 43.1553 130.55 43.2538 130.69 43.3068C130.83 43.3598 130.986 43.3864 131.156 43.3864C131.285 43.3864 131.402 43.3769 131.509 43.358C131.618 43.339 131.702 43.322 131.759 43.3068L132.105 44.9148C131.995 44.9527 131.838 44.9943 131.634 45.0398C131.433 45.0852 131.187 45.1117 130.895 45.1193C130.38 45.1345 129.916 45.0568 129.503 44.8864C129.09 44.7121 128.762 44.4432 128.52 44.0795C128.281 43.7159 128.164 43.2614 128.168 42.7159V34.1818ZM133.666 45V36.2727H135.723V45H133.666ZM134.7 35.0341C134.375 35.0341 134.094 34.9261 133.859 34.7102C133.625 34.4905 133.507 34.2273 133.507 33.9205C133.507 33.6098 133.625 33.3466 133.859 33.1307C134.094 32.911 134.375 32.8011 134.7 32.8011C135.03 32.8011 135.31 32.911 135.541 33.1307C135.776 33.3466 135.893 33.6098 135.893 33.9205C135.893 34.2273 135.776 34.4905 135.541 34.7102C135.31 34.9261 135.03 35.0341 134.7 35.0341ZM141.645 45.1705C140.774 45.1705 140.026 44.9792 139.401 44.5966C138.779 44.214 138.3 43.6856 137.963 43.0114C137.63 42.3333 137.463 41.553 137.463 40.6705C137.463 39.7841 137.634 39.0019 137.974 38.3239C138.315 37.642 138.796 37.1117 139.418 36.733C140.043 36.3504 140.781 36.1591 141.634 36.1591C142.342 36.1591 142.969 36.2898 143.514 36.5511C144.063 36.8087 144.501 37.1742 144.827 37.6477C145.152 38.1174 145.338 38.6667 145.384 39.2955H143.418C143.338 38.875 143.149 38.5246 142.849 38.2443C142.554 37.9602 142.158 37.8182 141.662 37.8182C141.241 37.8182 140.872 37.9318 140.554 38.1591C140.236 38.3826 139.988 38.7045 139.81 39.125C139.635 39.5455 139.548 40.0492 139.548 40.6364C139.548 41.2311 139.635 41.7424 139.81 42.1705C139.984 42.5947 140.228 42.9223 140.543 43.1534C140.861 43.3807 141.234 43.4943 141.662 43.4943C141.965 43.4943 142.236 43.4375 142.474 43.3239C142.717 43.2064 142.92 43.0379 143.082 42.8182C143.245 42.5985 143.357 42.3314 143.418 42.017H145.384C145.334 42.6345 145.152 43.1818 144.838 43.6591C144.524 44.1326 144.096 44.5038 143.554 44.7727C143.012 45.0379 142.376 45.1705 141.645 45.1705ZM150.936 45.1705C150.061 45.1705 149.305 44.9886 148.669 44.625C148.036 44.2576 147.55 43.7386 147.209 43.0682C146.868 42.3939 146.697 41.6004 146.697 40.6875C146.697 39.7898 146.868 39.0019 147.209 38.3239C147.554 37.642 148.035 37.1117 148.652 36.733C149.269 36.3504 149.995 36.1591 150.828 36.1591C151.366 36.1591 151.874 36.2462 152.351 36.4205C152.832 36.5909 153.256 36.8561 153.624 37.2159C153.995 37.5758 154.286 38.0341 154.499 38.5909C154.711 39.1439 154.817 39.803 154.817 40.5682V41.1989H147.663V39.8125H152.845C152.841 39.4186 152.756 39.0682 152.589 38.7614C152.423 38.4508 152.19 38.2064 151.891 38.0284C151.595 37.8504 151.25 37.7614 150.857 37.7614C150.436 37.7614 150.067 37.8636 149.749 38.0682C149.43 38.2689 149.182 38.5341 149.004 38.8636C148.83 39.1894 148.741 39.5473 148.737 39.9375V41.1477C148.737 41.6553 148.83 42.0909 149.016 42.4545C149.201 42.8144 149.461 43.0909 149.794 43.2841C150.127 43.4735 150.518 43.5682 150.964 43.5682C151.264 43.5682 151.535 43.5265 151.777 43.4432C152.019 43.3561 152.23 43.2292 152.408 43.0625C152.586 42.8958 152.72 42.6894 152.811 42.4432L154.732 42.6591C154.61 43.1667 154.379 43.6098 154.038 43.9886C153.701 44.3636 153.269 44.6553 152.743 44.8636C152.216 45.0682 151.614 45.1705 150.936 45.1705ZM163.455 38.5795L161.58 38.7841C161.527 38.5947 161.434 38.4167 161.301 38.25C161.172 38.0833 160.998 37.9489 160.778 37.8466C160.559 37.7443 160.29 37.6932 159.972 37.6932C159.544 37.6932 159.184 37.786 158.892 37.9716C158.604 38.1572 158.462 38.3977 158.466 38.6932C158.462 38.947 158.555 39.1534 158.744 39.3125C158.938 39.4716 159.256 39.6023 159.699 39.7045L161.188 40.0227C162.013 40.2008 162.627 40.483 163.028 40.8693C163.434 41.2557 163.638 41.7614 163.642 42.3864C163.638 42.9356 163.477 43.4205 163.159 43.8409C162.845 44.2576 162.407 44.5833 161.847 44.8182C161.286 45.053 160.642 45.1705 159.915 45.1705C158.847 45.1705 157.987 44.947 157.335 44.5C156.684 44.0492 156.295 43.4223 156.17 42.6193L158.176 42.4261C158.267 42.8201 158.46 43.1174 158.756 43.3182C159.051 43.5189 159.436 43.6193 159.909 43.6193C160.398 43.6193 160.79 43.5189 161.085 43.3182C161.384 43.1174 161.534 42.8693 161.534 42.5739C161.534 42.3239 161.438 42.1174 161.244 41.9545C161.055 41.7917 160.759 41.6667 160.358 41.5795L158.869 41.267C158.032 41.0928 157.413 40.7992 157.011 40.3864C156.61 39.9697 156.411 39.4432 156.415 38.8068C156.411 38.2689 156.557 37.803 156.852 37.4091C157.152 37.0114 157.566 36.7045 158.097 36.4886C158.631 36.2689 159.246 36.1591 159.943 36.1591C160.966 36.1591 161.771 36.3769 162.358 36.8125C162.949 37.2481 163.314 37.8371 163.455 38.5795Z" fill="#0F67F5"/>
<path d="M63.233 71V60.8182H64.4659V65.3523H69.8949V60.8182H71.1278V71H69.8949V66.446H64.4659V71H63.233ZM76.6388 71.1591C75.9031 71.1591 75.2683 70.9967 74.7347 70.6719C74.2044 70.3438 73.7951 69.8864 73.5067 69.2997C73.2217 68.7098 73.0792 68.0237 73.0792 67.2415C73.0792 66.4593 73.2217 65.7699 73.5067 65.1733C73.7951 64.5734 74.1961 64.1061 74.7099 63.7713C75.2269 63.4332 75.8301 63.2642 76.5195 63.2642C76.9173 63.2642 77.31 63.3305 77.6978 63.4631C78.0856 63.5956 78.4386 63.8111 78.7567 64.1094C79.0749 64.4044 79.3285 64.7955 79.5174 65.2827C79.7063 65.7699 79.8008 66.3698 79.8008 67.0824V67.5795H73.9144V66.5653H78.6076C78.6076 66.1345 78.5214 65.75 78.3491 65.4119C78.18 65.0739 77.9381 64.8071 77.6232 64.6115C77.3117 64.416 76.9438 64.3182 76.5195 64.3182C76.0522 64.3182 75.6478 64.4342 75.3065 64.6662C74.9684 64.8949 74.7082 65.1932 74.5259 65.5611C74.3436 65.929 74.2525 66.3234 74.2525 66.7443V67.4205C74.2525 67.9972 74.3519 68.486 74.5508 68.8871C74.753 69.2848 75.033 69.5881 75.391 69.7969C75.7489 70.0024 76.1649 70.1051 76.6388 70.1051C76.9471 70.1051 77.2255 70.062 77.4741 69.9759C77.726 69.8864 77.9431 69.7538 78.1254 69.5781C78.3076 69.3991 78.4485 69.1771 78.5479 68.9119L79.6815 69.2301C79.5621 69.6146 79.3616 69.9527 79.0799 70.2443C78.7982 70.5327 78.4502 70.758 78.0359 70.9205C77.6216 71.0795 77.1559 71.1591 76.6388 71.1591ZM82.7589 60.8182V71H81.5856V60.8182H82.7589ZM84.9078 73.8636V63.3636H86.0414V64.5767H86.1806C86.2667 64.4441 86.3861 64.2751 86.5385 64.0696C86.6943 63.8608 86.9164 63.6752 87.2047 63.5128C87.4964 63.3471 87.8908 63.2642 88.388 63.2642C89.031 63.2642 89.5977 63.425 90.0882 63.7464C90.5788 64.0679 90.9616 64.5237 91.2367 65.1136C91.5118 65.7036 91.6493 66.3996 91.6493 67.2017C91.6493 68.0104 91.5118 68.7114 91.2367 69.3047C90.9616 69.8946 90.5804 70.352 90.0932 70.6768C89.606 70.9983 89.0442 71.1591 88.4078 71.1591C87.9173 71.1591 87.5246 71.0779 87.2296 70.9155C86.9346 70.7498 86.7076 70.5625 86.5485 70.3537C86.3894 70.1416 86.2667 69.9659 86.1806 69.8267H86.0811V73.8636H84.9078ZM86.0613 67.1818C86.0613 67.7585 86.1458 68.2673 86.3148 68.7081C86.4838 69.1456 86.7308 69.4886 87.0556 69.7372C87.3804 69.9825 87.7781 70.1051 88.2488 70.1051C88.7393 70.1051 89.1486 69.9759 89.4767 69.7173C89.8082 69.4555 90.0568 69.1042 90.2225 68.6634C90.3915 68.2192 90.476 67.7254 90.476 67.1818C90.476 66.6449 90.3932 66.161 90.2275 65.7301C90.065 65.2959 89.8181 64.9529 89.4867 64.701C89.1586 64.4458 88.7459 64.3182 88.2488 64.3182C87.7715 64.3182 87.3704 64.4392 87.0456 64.6811C86.7208 64.9197 86.4756 65.2545 86.3098 65.6854C86.1441 66.1129 86.0613 66.6117 86.0613 67.1818ZM98.1323 73.8636C97.9334 73.8636 97.7561 73.8471 97.6003 73.8139C97.4445 73.7841 97.3368 73.7543 97.2772 73.7244L97.5755 72.6903C97.8605 72.7633 98.1124 72.7898 98.3311 72.7699C98.5499 72.75 98.7438 72.6522 98.9128 72.4766C99.0852 72.3042 99.2426 72.0241 99.3851 71.6364L99.6039 71.0398L96.78 63.3636H98.0527L100.161 69.4489H100.24L102.348 63.3636H103.621L100.379 72.1136C100.234 72.508 100.053 72.8345 99.8375 73.093C99.6221 73.3549 99.3719 73.5488 99.0868 73.6747C98.8051 73.8007 98.4869 73.8636 98.1323 73.8636ZM107.998 71.1591C107.309 71.1591 106.704 70.995 106.184 70.6669C105.667 70.3388 105.262 69.8797 104.971 69.2898C104.682 68.6998 104.538 68.0104 104.538 67.2216C104.538 66.4261 104.682 65.7318 104.971 65.1385C105.262 64.5452 105.667 64.0845 106.184 63.7564C106.704 63.4283 107.309 63.2642 107.998 63.2642C108.688 63.2642 109.291 63.4283 109.808 63.7564C110.328 64.0845 110.733 64.5452 111.021 65.1385C111.313 65.7318 111.459 66.4261 111.459 67.2216C111.459 68.0104 111.313 68.6998 111.021 69.2898C110.733 69.8797 110.328 70.3388 109.808 70.6669C109.291 70.995 108.688 71.1591 107.998 71.1591ZM107.998 70.1051C108.522 70.1051 108.953 69.9709 109.291 69.7024C109.629 69.4339 109.879 69.081 110.042 68.6435C110.204 68.206 110.285 67.732 110.285 67.2216C110.285 66.7112 110.204 66.2356 110.042 65.7947C109.879 65.3539 109.629 64.9976 109.291 64.7259C108.953 64.4541 108.522 64.3182 107.998 64.3182C107.475 64.3182 107.044 64.4541 106.706 64.7259C106.368 64.9976 106.117 65.3539 105.955 65.7947C105.793 66.2356 105.711 66.7112 105.711 67.2216C105.711 67.732 105.793 68.206 105.955 68.6435C106.117 69.081 106.368 69.4339 106.706 69.7024C107.044 69.9709 107.475 70.1051 107.998 70.1051ZM118.062 67.8778V63.3636H119.235V71H118.062V69.7074H117.983C117.804 70.0952 117.525 70.425 117.147 70.6967C116.77 70.9652 116.292 71.0994 115.716 71.0994C115.238 71.0994 114.814 70.995 114.443 70.7862C114.072 70.5741 113.78 70.2559 113.568 69.8317C113.356 69.4041 113.25 68.8655 113.25 68.2159V63.3636H114.423V68.1364C114.423 68.6932 114.579 69.1373 114.89 69.4688C115.205 69.8002 115.606 69.9659 116.093 69.9659C116.385 69.9659 116.682 69.8913 116.983 69.7422C117.288 69.593 117.543 69.3643 117.749 69.0561C117.958 68.7479 118.062 68.3551 118.062 67.8778ZM121.384 71V63.3636H122.518V64.517H122.597C122.737 64.1392 122.989 63.8326 123.353 63.5973C123.718 63.362 124.129 63.2443 124.586 63.2443C124.672 63.2443 124.78 63.246 124.909 63.2493C125.039 63.2526 125.136 63.2576 125.203 63.2642V64.4574C125.163 64.4474 125.072 64.4325 124.929 64.4126C124.79 64.3894 124.642 64.3778 124.487 64.3778C124.115 64.3778 123.784 64.4557 123.492 64.6115C123.204 64.764 122.975 64.9761 122.806 65.2479C122.641 65.5163 122.558 65.8229 122.558 66.1676V71H121.384ZM133.633 71.1591C132.917 71.1591 132.301 70.9901 131.784 70.652C131.267 70.3139 130.869 69.8482 130.591 69.255C130.312 68.6617 130.173 67.9839 130.173 67.2216C130.173 66.446 130.315 65.7616 130.6 65.1683C130.889 64.5717 131.29 64.1061 131.804 63.7713C132.321 63.4332 132.924 63.2642 133.613 63.2642C134.15 63.2642 134.634 63.3636 135.065 63.5625C135.496 63.7614 135.849 64.0398 136.124 64.3977C136.399 64.7557 136.57 65.1733 136.636 65.6506H135.463C135.373 65.3026 135.174 64.9943 134.866 64.7259C134.561 64.4541 134.15 64.3182 133.633 64.3182C133.176 64.3182 132.775 64.4375 132.43 64.6761C132.089 64.9115 131.822 65.2446 131.63 65.6754C131.441 66.103 131.346 66.6051 131.346 67.1818C131.346 67.7718 131.439 68.2855 131.625 68.723C131.814 69.1605 132.079 69.5002 132.42 69.7422C132.765 69.9841 133.169 70.1051 133.633 70.1051C133.938 70.1051 134.215 70.0521 134.463 69.946C134.712 69.84 134.922 69.6875 135.095 69.4886C135.267 69.2898 135.39 69.0511 135.463 68.7727H136.636C136.57 69.2235 136.406 69.6295 136.144 69.9908C135.885 70.3487 135.542 70.6338 135.115 70.8459C134.69 71.0547 134.197 71.1591 133.633 71.1591ZM139.525 66.4062V71H138.351V60.8182H139.525V64.5568H139.624C139.803 64.1624 140.071 63.8492 140.429 63.6172C140.791 63.3819 141.271 63.2642 141.871 63.2642C142.391 63.2642 142.847 63.3686 143.238 63.5774C143.629 63.7829 143.933 64.0994 144.148 64.527C144.367 64.9512 144.476 65.4915 144.476 66.1477V71H143.303V66.2273C143.303 65.6207 143.145 65.1518 142.831 64.8203C142.519 64.4856 142.087 64.3182 141.533 64.3182C141.149 64.3182 140.804 64.3994 140.499 64.5618C140.197 64.7242 139.959 64.9612 139.783 65.2727C139.611 65.5843 139.525 65.9621 139.525 66.4062ZM146.623 71V63.3636H147.796V71H146.623ZM147.219 62.0909C146.991 62.0909 146.793 62.013 146.628 61.8572C146.465 61.7015 146.384 61.5142 146.384 61.2955C146.384 61.0767 146.465 60.8894 146.628 60.7337C146.793 60.5779 146.991 60.5 147.219 60.5C147.448 60.5 147.644 60.5779 147.806 60.7337C147.972 60.8894 148.055 61.0767 148.055 61.2955C148.055 61.5142 147.972 61.7015 147.806 61.8572C147.644 62.013 147.448 62.0909 147.219 62.0909ZM151.118 60.8182V71H149.945V60.8182H151.118ZM156.151 71.1591C155.514 71.1591 154.953 70.9983 154.465 70.6768C153.978 70.352 153.597 69.8946 153.322 69.3047C153.047 68.7114 152.909 68.0104 152.909 67.2017C152.909 66.3996 153.047 65.7036 153.322 65.1136C153.597 64.5237 153.98 64.0679 154.47 63.7464C154.961 63.425 155.528 63.2642 156.171 63.2642C156.668 63.2642 157.061 63.3471 157.349 63.5128C157.641 63.6752 157.863 63.8608 158.015 64.0696C158.171 64.2751 158.292 64.4441 158.378 64.5767H158.477V60.8182H159.651V71H158.517V69.8267H158.378C158.292 69.9659 158.169 70.1416 158.01 70.3537C157.851 70.5625 157.624 70.7498 157.329 70.9155C157.034 71.0779 156.641 71.1591 156.151 71.1591ZM156.31 70.1051C156.78 70.1051 157.178 69.9825 157.503 69.7372C157.828 69.4886 158.075 69.1456 158.244 68.7081C158.413 68.2673 158.497 67.7585 158.497 67.1818C158.497 66.6117 158.414 66.1129 158.249 65.6854C158.083 65.2545 157.838 64.9197 157.513 64.6811C157.188 64.4392 156.787 64.3182 156.31 64.3182C155.813 64.3182 155.398 64.4458 155.067 64.701C154.739 64.9529 154.492 65.2959 154.326 65.7301C154.164 66.161 154.083 66.6449 154.083 67.1818C154.083 67.7254 154.165 68.2192 154.331 68.6634C154.5 69.1042 154.749 69.4555 155.077 69.7173C155.408 69.9759 155.819 70.1051 156.31 70.1051ZM169.221 63.3636V64.358H165.264V63.3636H169.221ZM166.417 61.5341H167.59V68.8125C167.59 69.1439 167.638 69.3925 167.735 69.5582C167.834 69.7206 167.96 69.83 168.112 69.8864C168.268 69.9394 168.432 69.9659 168.605 69.9659C168.734 69.9659 168.84 69.9593 168.923 69.946C169.006 69.9295 169.072 69.9162 169.122 69.9062L169.36 70.9602C169.281 70.9901 169.17 71.0199 169.027 71.0497C168.885 71.0829 168.704 71.0994 168.485 71.0994C168.154 71.0994 167.829 71.0282 167.511 70.8857C167.196 70.7431 166.934 70.526 166.725 70.2344C166.52 69.9427 166.417 69.5748 166.417 69.1307V61.5341ZM174.006 71.1591C173.317 71.1591 172.712 70.995 172.192 70.6669C171.675 70.3388 171.27 69.8797 170.979 69.2898C170.69 68.6998 170.546 68.0104 170.546 67.2216C170.546 66.4261 170.69 65.7318 170.979 65.1385C171.27 64.5452 171.675 64.0845 172.192 63.7564C172.712 63.4283 173.317 63.2642 174.006 63.2642C174.696 63.2642 175.299 63.4283 175.816 63.7564C176.336 64.0845 176.741 64.5452 177.029 65.1385C177.321 65.7318 177.466 66.4261 177.466 67.2216C177.466 68.0104 177.321 68.6998 177.029 69.2898C176.741 69.8797 176.336 70.3388 175.816 70.6669C175.299 70.995 174.696 71.1591 174.006 71.1591ZM174.006 70.1051C174.53 70.1051 174.961 69.9709 175.299 69.7024C175.637 69.4339 175.887 69.081 176.05 68.6435C176.212 68.206 176.293 67.732 176.293 67.2216C176.293 66.7112 176.212 66.2356 176.05 65.7947C175.887 65.3539 175.637 64.9976 175.299 64.7259C174.961 64.4541 174.53 64.3182 174.006 64.3182C173.483 64.3182 173.052 64.4541 172.714 64.7259C172.376 64.9976 172.125 65.3539 171.963 65.7947C171.8 66.2356 171.719 66.7112 171.719 67.2216C171.719 67.732 171.8 68.206 171.963 68.6435C172.125 69.081 172.376 69.4339 172.714 69.7024C173.052 69.9709 173.483 70.1051 174.006 70.1051ZM183.195 71V63.3636H184.368V71H183.195ZM183.792 62.0909C183.563 62.0909 183.366 62.013 183.2 61.8572C183.038 61.7015 182.956 61.5142 182.956 61.2955C182.956 61.0767 183.038 60.8894 183.2 60.7337C183.366 60.5779 183.563 60.5 183.792 60.5C184.02 60.5 184.216 60.5779 184.378 60.7337C184.544 60.8894 184.627 61.0767 184.627 61.2955C184.627 61.5142 184.544 61.7015 184.378 61.8572C184.216 62.013 184.02 62.0909 183.792 62.0909ZM186.517 71V63.3636H187.651V64.5568H187.75C187.909 64.1491 188.166 63.8326 188.521 63.6072C188.875 63.3786 189.301 63.2642 189.798 63.2642C190.302 63.2642 190.722 63.3786 191.056 63.6072C191.394 63.8326 191.658 64.1491 191.847 64.5568H191.926C192.122 64.1624 192.415 63.8492 192.806 63.6172C193.197 63.3819 193.666 63.2642 194.213 63.2642C194.896 63.2642 195.454 63.478 195.889 63.9055C196.323 64.3298 196.54 64.991 196.54 65.8892V71H195.367V65.8892C195.367 65.3258 195.213 64.9231 194.904 64.6811C194.596 64.4392 194.233 64.3182 193.816 64.3182C193.279 64.3182 192.863 64.4806 192.568 64.8054C192.273 65.1269 192.125 65.5346 192.125 66.0284V71H190.932V65.7699C190.932 65.3357 190.791 64.986 190.509 64.7209C190.228 64.4524 189.865 64.3182 189.421 64.3182C189.116 64.3182 188.831 64.3994 188.566 64.5618C188.304 64.7242 188.092 64.9496 187.929 65.2379C187.77 65.523 187.691 65.8527 187.691 66.2273V71H186.517ZM198.685 73.8636V63.3636H199.819V64.5767H199.958C200.044 64.4441 200.163 64.2751 200.316 64.0696C200.472 63.8608 200.694 63.6752 200.982 63.5128C201.274 63.3471 201.668 63.2642 202.165 63.2642C202.808 63.2642 203.375 63.425 203.866 63.7464C204.356 64.0679 204.739 64.5237 205.014 65.1136C205.289 65.7036 205.427 66.3996 205.427 67.2017C205.427 68.0104 205.289 68.7114 205.014 69.3047C204.739 69.8946 204.358 70.352 203.871 70.6768C203.383 70.9983 202.822 71.1591 202.185 71.1591C201.695 71.1591 201.302 71.0779 201.007 70.9155C200.712 70.7498 200.485 70.5625 200.326 70.3537C200.167 70.1416 200.044 69.9659 199.958 69.8267H199.858V73.8636H198.685ZM199.839 67.1818C199.839 67.7585 199.923 68.2673 200.092 68.7081C200.261 69.1456 200.508 69.4886 200.833 69.7372C201.158 69.9825 201.555 70.1051 202.026 70.1051C202.517 70.1051 202.926 69.9759 203.254 69.7173C203.586 69.4555 203.834 69.1042 204 68.6634C204.169 68.2192 204.253 67.7254 204.253 67.1818C204.253 66.6449 204.171 66.161 204.005 65.7301C203.842 65.2959 203.595 64.9529 203.264 64.701C202.936 64.4458 202.523 64.3182 202.026 64.3182C201.549 64.3182 201.148 64.4392 200.823 64.6811C200.498 64.9197 200.253 65.2545 200.087 65.6854C199.921 66.1129 199.839 66.6117 199.839 67.1818ZM207.216 71V63.3636H208.35V64.517H208.43C208.569 64.1392 208.821 63.8326 209.185 63.5973C209.55 63.362 209.961 63.2443 210.418 63.2443C210.504 63.2443 210.612 63.246 210.741 63.2493C210.871 63.2526 210.968 63.2576 211.035 63.2642V64.4574C210.995 64.4474 210.904 64.4325 210.761 64.4126C210.622 64.3894 210.474 64.3778 210.319 64.3778C209.948 64.3778 209.616 64.4557 209.324 64.6115C209.036 64.764 208.807 64.9761 208.638 65.2479C208.473 65.5163 208.39 65.8229 208.39 66.1676V71H207.216ZM215.295 71.1591C214.606 71.1591 214.001 70.995 213.481 70.6669C212.964 70.3388 212.559 69.8797 212.268 69.2898C211.979 68.6998 211.835 68.0104 211.835 67.2216C211.835 66.4261 211.979 65.7318 212.268 65.1385C212.559 64.5452 212.964 64.0845 213.481 63.7564C214.001 63.4283 214.606 63.2642 215.295 63.2642C215.985 63.2642 216.588 63.4283 217.105 63.7564C217.625 64.0845 218.03 64.5452 218.318 65.1385C218.61 65.7318 218.756 66.4261 218.756 67.2216C218.756 68.0104 218.61 68.6998 218.318 69.2898C218.03 69.8797 217.625 70.3388 217.105 70.6669C216.588 70.995 215.985 71.1591 215.295 71.1591ZM215.295 70.1051C215.819 70.1051 216.25 69.9709 216.588 69.7024C216.926 69.4339 217.176 69.081 217.339 68.6435C217.501 68.206 217.582 67.732 217.582 67.2216C217.582 66.7112 217.501 66.2356 217.339 65.7947C217.176 65.3539 216.926 64.9976 216.588 64.7259C216.25 64.4541 215.819 64.3182 215.295 64.3182C214.772 64.3182 214.341 64.4541 214.003 64.7259C213.665 64.9976 213.414 65.3539 213.252 65.7947C213.09 66.2356 213.008 66.7112 213.008 67.2216C213.008 67.732 213.09 68.206 213.252 68.6435C213.414 69.081 213.665 69.4339 214.003 69.7024C214.341 69.9709 214.772 70.1051 215.295 70.1051ZM226.517 63.3636L223.694 71H222.5L219.676 63.3636H220.949L223.057 69.4489H223.137L225.245 63.3636H226.517ZM230.994 71.1591C230.259 71.1591 229.624 70.9967 229.09 70.6719C228.56 70.3438 228.151 69.8864 227.862 69.2997C227.577 68.7098 227.435 68.0237 227.435 67.2415C227.435 66.4593 227.577 65.7699 227.862 65.1733C228.151 64.5734 228.552 64.1061 229.065 63.7713C229.582 63.4332 230.186 63.2642 230.875 63.2642C231.273 63.2642 231.665 63.3305 232.053 63.4631C232.441 63.5956 232.794 63.8111 233.112 64.1094C233.43 64.4044 233.684 64.7955 233.873 65.2827C234.062 65.7699 234.156 66.3698 234.156 67.0824V67.5795H228.27V66.5653H232.963C232.963 66.1345 232.877 65.75 232.705 65.4119C232.536 65.0739 232.294 64.8071 231.979 64.6115C231.667 64.416 231.299 64.3182 230.875 64.3182C230.408 64.3182 230.003 64.4342 229.662 64.6662C229.324 64.8949 229.064 65.1932 228.881 65.5611C228.699 65.929 228.608 66.3234 228.608 66.7443V67.4205C228.608 67.9972 228.707 68.486 228.906 68.8871C229.108 69.2848 229.388 69.5881 229.746 69.7969C230.104 70.0024 230.52 70.1051 230.994 70.1051C231.303 70.1051 231.581 70.062 231.83 69.9759C232.081 69.8864 232.299 69.7538 232.481 69.5781C232.663 69.3991 232.804 69.1771 232.903 68.9119L234.037 69.2301C233.918 69.6146 233.717 69.9527 233.435 70.2443C233.154 70.5327 232.806 70.758 232.391 70.9205C231.977 71.0795 231.511 71.1591 230.994 71.1591ZM245.288 65.0739L244.234 65.3722C244.167 65.1965 244.07 65.0258 243.94 64.8601C243.814 64.6911 243.642 64.5518 243.423 64.4425C243.205 64.3331 242.924 64.2784 242.583 64.2784C242.116 64.2784 241.726 64.3861 241.415 64.6016C241.107 64.8137 240.952 65.0838 240.952 65.4119C240.952 65.7036 241.058 65.9339 241.271 66.103C241.483 66.272 241.814 66.4129 242.265 66.5256L243.398 66.804C244.081 66.9697 244.59 67.2232 244.925 67.5646C245.259 67.9027 245.427 68.3385 245.427 68.8722C245.427 69.3097 245.301 69.7008 245.049 70.0455C244.8 70.3902 244.452 70.6619 244.005 70.8608C243.558 71.0597 243.037 71.1591 242.444 71.1591C241.665 71.1591 241.02 70.9901 240.51 70.652C240 70.3139 239.676 69.8201 239.54 69.1705L240.654 68.892C240.76 69.303 240.961 69.6113 241.256 69.8168C241.554 70.0223 241.943 70.125 242.424 70.125C242.971 70.125 243.405 70.009 243.727 69.777C244.051 69.5417 244.214 69.2599 244.214 68.9318C244.214 68.6667 244.121 68.4446 243.935 68.2656C243.75 68.0833 243.465 67.9474 243.08 67.858L241.808 67.5597C241.108 67.3939 240.594 67.1371 240.266 66.7891C239.942 66.4377 239.779 65.9986 239.779 65.4716C239.779 65.0407 239.9 64.6596 240.142 64.3281C240.387 63.9967 240.72 63.7365 241.141 63.5476C241.566 63.3587 242.046 63.2642 242.583 63.2642C243.339 63.2642 243.932 63.4299 244.363 63.7614C244.797 64.0928 245.105 64.5303 245.288 65.0739ZM248.287 68.2159L248.267 66.7642H248.506L251.846 63.3636H253.298L249.738 66.9631H249.639L248.287 68.2159ZM247.193 71V60.8182H248.366V71H247.193ZM252.045 71L249.062 67.2216L249.898 66.4062L253.537 71H252.045ZM254.808 71V63.3636H255.982V71H254.808ZM255.405 62.0909C255.176 62.0909 254.979 62.013 254.813 61.8572C254.651 61.7015 254.57 61.5142 254.57 61.2955C254.57 61.0767 254.651 60.8894 254.813 60.7337C254.979 60.5779 255.176 60.5 255.405 60.5C255.634 60.5 255.829 60.5779 255.991 60.7337C256.157 60.8894 256.24 61.0767 256.24 61.2955C256.24 61.5142 256.157 61.7015 255.991 61.8572C255.829 62.013 255.634 62.0909 255.405 62.0909ZM259.304 60.8182V71H258.131V60.8182H259.304ZM262.626 60.8182V71H261.453V60.8182H262.626ZM270.184 65.0739L269.13 65.3722C269.064 65.1965 268.966 65.0258 268.837 64.8601C268.711 64.6911 268.539 64.5518 268.32 64.4425C268.101 64.3331 267.821 64.2784 267.48 64.2784C267.012 64.2784 266.623 64.3861 266.311 64.6016C266.003 64.8137 265.849 65.0838 265.849 65.4119C265.849 65.7036 265.955 65.9339 266.167 66.103C266.379 66.272 266.711 66.4129 267.161 66.5256L268.295 66.804C268.978 66.9697 269.486 67.2232 269.821 67.5646C270.156 67.9027 270.323 68.3385 270.323 68.8722C270.323 69.3097 270.197 69.7008 269.945 70.0455C269.697 70.3902 269.349 70.6619 268.901 70.8608C268.454 71.0597 267.934 71.1591 267.34 71.1591C266.561 71.1591 265.917 70.9901 265.406 70.652C264.896 70.3139 264.573 69.8201 264.437 69.1705L265.551 68.892C265.657 69.303 265.857 69.6113 266.152 69.8168C266.45 70.0223 266.84 70.125 267.32 70.125C267.867 70.125 268.302 70.009 268.623 69.777C268.948 69.5417 269.11 69.2599 269.11 68.9318C269.11 68.6667 269.017 68.4446 268.832 68.2656C268.646 68.0833 268.361 67.9474 267.977 67.858L266.704 67.5597C266.005 67.3939 265.491 67.1371 265.163 66.7891C264.838 66.4377 264.676 65.9986 264.676 65.4716C264.676 65.0407 264.797 64.6596 265.039 64.3281C265.284 63.9967 265.617 63.7365 266.038 63.5476C266.462 63.3587 266.943 63.2642 267.48 63.2642C268.235 63.2642 268.829 63.4299 269.259 63.7614C269.694 64.0928 270.002 64.5303 270.184 65.0739Z" fill="#333333"/>
<rect x="18" y="89" width="270" height="74" rx="4" fill="white"/>
<path d="M43.3791 120.32C44.2352 119.714 45.1104 119.38 45.9991 119.38C47.3034 119.38 48.9277 120.072 50.787 121.314M43.3791 120.32L50.5091 121.73M43.3791 120.32V119.421C44.2613 118.886 45.1373 118.63 45.9991 118.63C47.0713 118.63 48.345 119.019 49.8747 119.876L50.6191 120.294V119.44V107.47V107.195L50.3871 107.048C48.696 105.975 47.2056 105.37 45.9991 105.37C45.086 105.37 44.1549 105.74 43.2477 106.408C43.1378 106.175 42.9645 105.978 42.7496 105.84C43.8443 105.012 44.9325 104.62 45.9991 104.62C47.3729 104.62 49.0725 105.257 51.2113 106.686L51.2118 106.686C51.3124 106.753 51.3791 106.877 51.3791 107V121C51.3791 121.136 51.3002 121.267 51.183 121.329L51.1821 121.33C51.1337 121.356 51.0769 121.37 51.0091 121.37H50.9139M50.787 121.314L50.5091 121.73M50.787 121.314C50.7868 121.314 50.7867 121.314 50.7865 121.314L50.5091 121.73M50.787 121.314C50.8279 121.342 50.8708 121.36 50.9139 121.37M50.5091 121.73C50.6591 121.83 50.8291 121.88 50.9991 121.88M50.9139 121.37H50.802L50.6556 121.517L50.6456 121.527L50.9991 121.88M50.9139 121.37C50.9424 121.377 50.9709 121.38 50.9991 121.38V121.86V121.88" fill="#0F67F5" stroke="#333333"/>
<path d="M63.1477 107.364H65.7273L69.1818 115.795H69.3182L72.7727 107.364H75.3523V119H73.3295V111.006H73.2216L70.0057 118.966H68.4943L65.2784 110.989H65.1705V119H63.1477V107.364ZM81.3636 119.17C80.5114 119.17 79.7727 118.983 79.1477 118.608C78.5227 118.233 78.0379 117.708 77.6932 117.034C77.3523 116.36 77.1818 115.572 77.1818 114.67C77.1818 113.769 77.3523 112.979 77.6932 112.301C78.0379 111.623 78.5227 111.097 79.1477 110.722C79.7727 110.347 80.5114 110.159 81.3636 110.159C82.2159 110.159 82.9545 110.347 83.5795 110.722C84.2045 111.097 84.6875 111.623 85.0284 112.301C85.3731 112.979 85.5455 113.769 85.5455 114.67C85.5455 115.572 85.3731 116.36 85.0284 117.034C84.6875 117.708 84.2045 118.233 83.5795 118.608C82.9545 118.983 82.2159 119.17 81.3636 119.17ZM81.375 117.523C81.8371 117.523 82.2235 117.396 82.5341 117.142C82.8447 116.884 83.0758 116.54 83.2273 116.108C83.3826 115.676 83.4602 115.195 83.4602 114.665C83.4602 114.131 83.3826 113.648 83.2273 113.216C83.0758 112.78 82.8447 112.434 82.5341 112.176C82.2235 111.919 81.8371 111.79 81.375 111.79C80.9015 111.79 80.5076 111.919 80.1932 112.176C79.8826 112.434 79.6496 112.78 79.4943 113.216C79.3428 113.648 79.267 114.131 79.267 114.665C79.267 115.195 79.3428 115.676 79.4943 116.108C79.6496 116.54 79.8826 116.884 80.1932 117.142C80.5076 117.396 80.9015 117.523 81.375 117.523ZM91.098 119.17C90.2268 119.17 89.4787 118.979 88.8537 118.597C88.2325 118.214 87.7533 117.686 87.4162 117.011C87.0829 116.333 86.9162 115.553 86.9162 114.67C86.9162 113.784 87.0866 113.002 87.4276 112.324C87.7685 111.642 88.2495 111.112 88.8707 110.733C89.4957 110.35 90.2344 110.159 91.0866 110.159C91.795 110.159 92.4219 110.29 92.9673 110.551C93.5166 110.809 93.9541 111.174 94.2798 111.648C94.6056 112.117 94.7912 112.667 94.8366 113.295H92.8707C92.7912 112.875 92.6018 112.525 92.3026 112.244C92.0071 111.96 91.6113 111.818 91.1151 111.818C90.6946 111.818 90.3253 111.932 90.0071 112.159C89.6889 112.383 89.4408 112.705 89.2628 113.125C89.0885 113.545 89.0014 114.049 89.0014 114.636C89.0014 115.231 89.0885 115.742 89.2628 116.17C89.437 116.595 89.6813 116.922 89.9957 117.153C90.3139 117.381 90.687 117.494 91.1151 117.494C91.4181 117.494 91.6889 117.437 91.9276 117.324C92.17 117.206 92.3726 117.038 92.5355 116.818C92.6984 116.598 92.8101 116.331 92.8707 116.017H94.8366C94.7874 116.634 94.6056 117.182 94.2912 117.659C93.9768 118.133 93.5488 118.504 93.0071 118.773C92.4654 119.038 91.8291 119.17 91.098 119.17ZM98.4006 116.261L98.3949 113.778H98.7244L101.861 110.273H104.264L100.406 114.568H99.9801L98.4006 116.261ZM96.5256 119V107.364H98.5824V119H96.5256ZM102.003 119L99.1619 115.028L100.548 113.58L104.463 119H102.003ZM113.962 110.273V111.864H108.945V110.273H113.962ZM110.183 108.182H112.24V116.375C112.24 116.652 112.282 116.864 112.365 117.011C112.452 117.155 112.566 117.254 112.706 117.307C112.846 117.36 113.001 117.386 113.172 117.386C113.301 117.386 113.418 117.377 113.524 117.358C113.634 117.339 113.717 117.322 113.774 117.307L114.121 118.915C114.011 118.953 113.854 118.994 113.649 119.04C113.448 119.085 113.202 119.112 112.911 119.119C112.395 119.134 111.931 119.057 111.518 118.886C111.106 118.712 110.778 118.443 110.536 118.08C110.297 117.716 110.179 117.261 110.183 116.716V108.182ZM119.452 119.17C118.577 119.17 117.821 118.989 117.185 118.625C116.552 118.258 116.065 117.739 115.724 117.068C115.384 116.394 115.213 115.6 115.213 114.688C115.213 113.79 115.384 113.002 115.724 112.324C116.069 111.642 116.55 111.112 117.168 110.733C117.785 110.35 118.51 110.159 119.344 110.159C119.882 110.159 120.389 110.246 120.866 110.42C121.348 110.591 121.772 110.856 122.139 111.216C122.51 111.576 122.802 112.034 123.014 112.591C123.226 113.144 123.332 113.803 123.332 114.568V115.199H116.179V113.812H121.361C121.357 113.419 121.272 113.068 121.105 112.761C120.938 112.451 120.705 112.206 120.406 112.028C120.111 111.85 119.766 111.761 119.372 111.761C118.952 111.761 118.582 111.864 118.264 112.068C117.946 112.269 117.698 112.534 117.52 112.864C117.346 113.189 117.257 113.547 117.253 113.938V115.148C117.253 115.655 117.346 116.091 117.531 116.455C117.717 116.814 117.976 117.091 118.31 117.284C118.643 117.473 119.033 117.568 119.48 117.568C119.779 117.568 120.05 117.527 120.293 117.443C120.535 117.356 120.745 117.229 120.923 117.062C121.101 116.896 121.236 116.689 121.327 116.443L123.247 116.659C123.126 117.167 122.895 117.61 122.554 117.989C122.217 118.364 121.785 118.655 121.259 118.864C120.732 119.068 120.13 119.17 119.452 119.17ZM131.97 112.58L130.095 112.784C130.042 112.595 129.949 112.417 129.817 112.25C129.688 112.083 129.514 111.949 129.294 111.847C129.074 111.744 128.805 111.693 128.487 111.693C128.059 111.693 127.699 111.786 127.408 111.972C127.12 112.157 126.978 112.398 126.982 112.693C126.978 112.947 127.071 113.153 127.26 113.312C127.453 113.472 127.771 113.602 128.214 113.705L129.703 114.023C130.529 114.201 131.143 114.483 131.544 114.869C131.949 115.256 132.154 115.761 132.158 116.386C132.154 116.936 131.993 117.42 131.675 117.841C131.36 118.258 130.923 118.583 130.362 118.818C129.802 119.053 129.158 119.17 128.43 119.17C127.362 119.17 126.502 118.947 125.851 118.5C125.199 118.049 124.811 117.422 124.686 116.619L126.692 116.426C126.783 116.82 126.976 117.117 127.271 117.318C127.567 117.519 127.951 117.619 128.425 117.619C128.913 117.619 129.305 117.519 129.601 117.318C129.9 117.117 130.05 116.869 130.05 116.574C130.05 116.324 129.953 116.117 129.76 115.955C129.571 115.792 129.275 115.667 128.874 115.58L127.385 115.267C126.548 115.093 125.929 114.799 125.527 114.386C125.125 113.97 124.927 113.443 124.93 112.807C124.927 112.269 125.072 111.803 125.368 111.409C125.667 111.011 126.082 110.705 126.612 110.489C127.146 110.269 127.762 110.159 128.459 110.159C129.482 110.159 130.286 110.377 130.874 110.812C131.464 111.248 131.83 111.837 131.97 112.58ZM138.212 110.273V111.864H133.195V110.273H138.212ZM134.433 108.182H136.49V116.375C136.49 116.652 136.532 116.864 136.615 117.011C136.702 117.155 136.816 117.254 136.956 117.307C137.096 117.36 137.251 117.386 137.422 117.386C137.551 117.386 137.668 117.377 137.774 117.358C137.884 117.339 137.967 117.322 138.024 117.307L138.371 118.915C138.261 118.953 138.104 118.994 137.899 119.04C137.698 119.085 137.452 119.112 137.161 119.119C136.645 119.134 136.181 119.057 135.768 118.886C135.356 118.712 135.028 118.443 134.786 118.08C134.547 117.716 134.429 117.261 134.433 116.716V108.182ZM146.705 112.58L144.83 112.784C144.777 112.595 144.684 112.417 144.551 112.25C144.422 112.083 144.248 111.949 144.028 111.847C143.809 111.744 143.54 111.693 143.222 111.693C142.794 111.693 142.434 111.786 142.142 111.972C141.854 112.157 141.712 112.398 141.716 112.693C141.712 112.947 141.805 113.153 141.994 113.312C142.188 113.472 142.506 113.602 142.949 113.705L144.438 114.023C145.263 114.201 145.877 114.483 146.278 114.869C146.684 115.256 146.888 115.761 146.892 116.386C146.888 116.936 146.727 117.42 146.409 117.841C146.095 118.258 145.657 118.583 145.097 118.818C144.536 119.053 143.892 119.17 143.165 119.17C142.097 119.17 141.237 118.947 140.585 118.5C139.934 118.049 139.545 117.422 139.42 116.619L141.426 116.426C141.517 116.82 141.71 117.117 142.006 117.318C142.301 117.519 142.686 117.619 143.159 117.619C143.648 117.619 144.04 117.519 144.335 117.318C144.634 117.117 144.784 116.869 144.784 116.574C144.784 116.324 144.688 116.117 144.494 115.955C144.305 115.792 144.009 115.667 143.608 115.58L142.119 115.267C141.282 115.093 140.663 114.799 140.261 114.386C139.86 113.97 139.661 113.443 139.665 112.807C139.661 112.269 139.807 111.803 140.102 111.409C140.402 111.011 140.816 110.705 141.347 110.489C141.881 110.269 142.496 110.159 143.193 110.159C144.216 110.159 145.021 110.377 145.608 110.812C146.199 111.248 146.564 111.837 146.705 112.58Z" fill="#333333"/>
<path d="M62.6761 135.912V134.818H70.3125V135.912H67.1108V145H65.8778V135.912H62.6761ZM71.2633 145V137.364H72.3968V138.517H72.4764C72.6156 138.139 72.8675 137.833 73.2321 137.597C73.5967 137.362 74.0076 137.244 74.465 137.244C74.5512 137.244 74.6589 137.246 74.7882 137.249C74.9174 137.253 75.0152 137.258 75.0815 137.264V138.457C75.0417 138.447 74.9506 138.433 74.8081 138.413C74.6689 138.389 74.5214 138.378 74.3656 138.378C73.9944 138.378 73.6629 138.456 73.3713 138.612C73.0829 138.764 72.8542 138.976 72.6852 139.248C72.5195 139.516 72.4366 139.823 72.4366 140.168V145H71.2633ZM78.7195 145.179C78.2356 145.179 77.7964 145.088 77.402 144.906C77.0076 144.72 76.6944 144.453 76.4624 144.105C76.2304 143.754 76.1143 143.33 76.1143 142.832C76.1143 142.395 76.2005 142.04 76.3729 141.768C76.5452 141.493 76.7756 141.278 77.0639 141.122C77.3523 140.966 77.6705 140.85 78.0185 140.774C78.3698 140.695 78.7228 140.632 79.0774 140.585C79.5414 140.526 79.9176 140.481 80.206 140.451C80.4976 140.418 80.7098 140.363 80.8423 140.287C80.9782 140.211 81.0462 140.078 81.0462 139.889V139.849C81.0462 139.359 80.9119 138.978 80.6435 138.706C80.3783 138.434 79.9756 138.298 79.4354 138.298C78.8752 138.298 78.4361 138.421 78.1179 138.666C77.7997 138.911 77.576 139.173 77.4467 139.452L76.3331 139.054C76.532 138.59 76.7971 138.229 77.1286 137.97C77.4633 137.708 77.8279 137.526 78.2223 137.423C78.62 137.317 79.0111 137.264 79.3956 137.264C79.6409 137.264 79.9226 137.294 80.2408 137.354C80.5623 137.41 80.8722 137.528 81.1705 137.707C81.4721 137.886 81.7223 138.156 81.9212 138.517C82.12 138.878 82.2195 139.362 82.2195 139.969V145H81.0462V143.966H80.9865C80.907 144.132 80.7744 144.309 80.5888 144.498C80.4032 144.687 80.1563 144.848 79.848 144.98C79.5398 145.113 79.1636 145.179 78.7195 145.179ZM78.8984 144.125C79.3625 144.125 79.7536 144.034 80.0717 143.852C80.3932 143.669 80.6352 143.434 80.7976 143.146C80.9633 142.857 81.0462 142.554 81.0462 142.236V141.162C80.9964 141.222 80.8871 141.276 80.718 141.326C80.5523 141.372 80.3601 141.414 80.1413 141.45C79.9259 141.483 79.7154 141.513 79.5099 141.54C79.3078 141.563 79.1437 141.583 79.0178 141.599C78.7128 141.639 78.4278 141.704 78.1626 141.793C77.9008 141.879 77.6887 142.01 77.5263 142.186C77.3672 142.358 77.2876 142.594 77.2876 142.892C77.2876 143.3 77.4384 143.608 77.7401 143.817C78.045 144.022 78.4311 144.125 78.8984 144.125ZM84.361 145V137.364H85.5343V145H84.361ZM84.9576 136.091C84.7289 136.091 84.5317 136.013 84.3659 135.857C84.2035 135.701 84.1223 135.514 84.1223 135.295C84.1223 135.077 84.2035 134.889 84.3659 134.734C84.5317 134.578 84.7289 134.5 84.9576 134.5C85.1863 134.5 85.3818 134.578 85.5442 134.734C85.7099 134.889 85.7928 135.077 85.7928 135.295C85.7928 135.514 85.7099 135.701 85.5442 135.857C85.3818 136.013 85.1863 136.091 84.9576 136.091ZM88.8565 140.406V145H87.6832V137.364H88.8168V138.557H88.9162C89.0952 138.169 89.367 137.857 89.7315 137.622C90.0961 137.384 90.5668 137.264 91.1435 137.264C91.6605 137.264 92.1129 137.37 92.5007 137.582C92.8885 137.791 93.1901 138.109 93.4055 138.537C93.621 138.961 93.7287 139.498 93.7287 140.148V145H92.5554V140.227C92.5554 139.627 92.3996 139.16 92.0881 138.825C91.7765 138.487 91.349 138.318 90.8054 138.318C90.4309 138.318 90.0961 138.399 89.8011 138.562C89.5095 138.724 89.2791 138.961 89.1101 139.273C88.9411 139.584 88.8565 139.962 88.8565 140.406ZM100.566 147.864C100.367 147.864 100.19 147.847 100.034 147.814C99.8781 147.784 99.7704 147.754 99.7108 147.724L100.009 146.69C100.294 146.763 100.546 146.79 100.765 146.77C100.983 146.75 101.177 146.652 101.346 146.477C101.519 146.304 101.676 146.024 101.819 145.636L102.037 145.04L99.2136 137.364H100.486L102.594 143.449H102.674L104.782 137.364H106.055L102.813 146.114C102.667 146.508 102.487 146.835 102.271 147.093C102.056 147.355 101.805 147.549 101.52 147.675C101.239 147.801 100.921 147.864 100.566 147.864ZM110.432 145.159C109.743 145.159 109.138 144.995 108.617 144.667C108.1 144.339 107.696 143.88 107.404 143.29C107.116 142.7 106.972 142.01 106.972 141.222C106.972 140.426 107.116 139.732 107.404 139.138C107.696 138.545 108.1 138.085 108.617 137.756C109.138 137.428 109.743 137.264 110.432 137.264C111.121 137.264 111.725 137.428 112.242 137.756C112.762 138.085 113.166 138.545 113.455 139.138C113.746 139.732 113.892 140.426 113.892 141.222C113.892 142.01 113.746 142.7 113.455 143.29C113.166 143.88 112.762 144.339 112.242 144.667C111.725 144.995 111.121 145.159 110.432 145.159ZM110.432 144.105C110.956 144.105 111.387 143.971 111.725 143.702C112.063 143.434 112.313 143.081 112.475 142.643C112.638 142.206 112.719 141.732 112.719 141.222C112.719 140.711 112.638 140.236 112.475 139.795C112.313 139.354 112.063 138.998 111.725 138.726C111.387 138.454 110.956 138.318 110.432 138.318C109.908 138.318 109.477 138.454 109.139 138.726C108.801 138.998 108.551 139.354 108.389 139.795C108.226 140.236 108.145 140.711 108.145 141.222C108.145 141.732 108.226 142.206 108.389 142.643C108.551 143.081 108.801 143.434 109.139 143.702C109.477 143.971 109.908 144.105 110.432 144.105ZM120.496 141.878V137.364H121.669V145H120.496V143.707H120.416C120.237 144.095 119.959 144.425 119.581 144.697C119.203 144.965 118.726 145.099 118.149 145.099C117.672 145.099 117.248 144.995 116.876 144.786C116.505 144.574 116.214 144.256 116.001 143.832C115.789 143.404 115.683 142.866 115.683 142.216V137.364H116.857V142.136C116.857 142.693 117.012 143.137 117.324 143.469C117.639 143.8 118.04 143.966 118.527 143.966C118.819 143.966 119.115 143.891 119.417 143.742C119.722 143.593 119.977 143.364 120.183 143.056C120.391 142.748 120.496 142.355 120.496 141.878ZM123.818 145V137.364H124.952V138.517H125.031C125.17 138.139 125.422 137.833 125.787 137.597C126.151 137.362 126.562 137.244 127.02 137.244C127.106 137.244 127.214 137.246 127.343 137.249C127.472 137.253 127.57 137.258 127.636 137.264V138.457C127.596 138.447 127.505 138.433 127.363 138.413C127.224 138.389 127.076 138.378 126.92 138.378C126.549 138.378 126.218 138.456 125.926 138.612C125.638 138.764 125.409 138.976 125.24 139.248C125.074 139.516 124.991 139.823 124.991 140.168V145H123.818ZM136.067 145.159C135.351 145.159 134.734 144.99 134.217 144.652C133.7 144.314 133.303 143.848 133.024 143.255C132.746 142.662 132.607 141.984 132.607 141.222C132.607 140.446 132.749 139.762 133.034 139.168C133.322 138.572 133.723 138.106 134.237 137.771C134.754 137.433 135.357 137.264 136.047 137.264C136.584 137.264 137.068 137.364 137.499 137.562C137.929 137.761 138.282 138.04 138.558 138.398C138.833 138.756 139.003 139.173 139.07 139.651H137.896C137.807 139.303 137.608 138.994 137.3 138.726C136.995 138.454 136.584 138.318 136.067 138.318C135.609 138.318 135.208 138.437 134.864 138.676C134.522 138.911 134.255 139.245 134.063 139.675C133.874 140.103 133.78 140.605 133.78 141.182C133.78 141.772 133.873 142.286 134.058 142.723C134.247 143.161 134.512 143.5 134.854 143.742C135.198 143.984 135.603 144.105 136.067 144.105C136.372 144.105 136.648 144.052 136.897 143.946C137.146 143.84 137.356 143.688 137.528 143.489C137.701 143.29 137.823 143.051 137.896 142.773H139.07C139.003 143.223 138.839 143.629 138.577 143.991C138.319 144.349 137.976 144.634 137.548 144.846C137.124 145.055 136.63 145.159 136.067 145.159ZM141.958 140.406V145H140.785V134.818H141.958V138.557H142.058C142.237 138.162 142.505 137.849 142.863 137.617C143.224 137.382 143.705 137.264 144.305 137.264C144.825 137.264 145.281 137.369 145.672 137.577C146.063 137.783 146.366 138.099 146.582 138.527C146.8 138.951 146.91 139.491 146.91 140.148V145H145.737V140.227C145.737 139.621 145.579 139.152 145.264 138.82C144.953 138.486 144.52 138.318 143.967 138.318C143.582 138.318 143.237 138.399 142.933 138.562C142.631 138.724 142.392 138.961 142.217 139.273C142.044 139.584 141.958 139.962 141.958 140.406ZM149.056 145V137.364H150.23V145H149.056ZM149.653 136.091C149.424 136.091 149.227 136.013 149.061 135.857C148.899 135.701 148.818 135.514 148.818 135.295C148.818 135.077 148.899 134.889 149.061 134.734C149.227 134.578 149.424 134.5 149.653 134.5C149.882 134.5 150.077 134.578 150.24 134.734C150.405 134.889 150.488 135.077 150.488 135.295C150.488 135.514 150.405 135.701 150.24 135.857C150.077 136.013 149.882 136.091 149.653 136.091ZM153.552 134.818V145H152.379V134.818H153.552ZM158.584 145.159C157.948 145.159 157.386 144.998 156.899 144.677C156.412 144.352 156.031 143.895 155.756 143.305C155.48 142.711 155.343 142.01 155.343 141.202C155.343 140.4 155.48 139.704 155.756 139.114C156.031 138.524 156.413 138.068 156.904 137.746C157.394 137.425 157.961 137.264 158.604 137.264C159.101 137.264 159.494 137.347 159.782 137.513C160.074 137.675 160.296 137.861 160.449 138.07C160.604 138.275 160.725 138.444 160.812 138.577H160.911V134.818H162.084V145H160.951V143.827H160.812C160.725 143.966 160.603 144.142 160.444 144.354C160.285 144.562 160.058 144.75 159.763 144.915C159.468 145.078 159.075 145.159 158.584 145.159ZM158.743 144.105C159.214 144.105 159.612 143.982 159.937 143.737C160.261 143.489 160.508 143.146 160.677 142.708C160.846 142.267 160.931 141.759 160.931 141.182C160.931 140.612 160.848 140.113 160.682 139.685C160.517 139.254 160.271 138.92 159.947 138.681C159.622 138.439 159.221 138.318 158.743 138.318C158.246 138.318 157.832 138.446 157.501 138.701C157.172 138.953 156.925 139.296 156.76 139.73C156.597 140.161 156.516 140.645 156.516 141.182C156.516 141.725 156.599 142.219 156.765 142.663C156.934 143.104 157.182 143.455 157.51 143.717C157.842 143.976 158.253 144.105 158.743 144.105ZM171.734 137.364V138.358H167.618V137.364H171.734ZM168.851 145V136.31C168.851 135.872 168.953 135.508 169.159 135.216C169.364 134.924 169.631 134.705 169.959 134.56C170.287 134.414 170.634 134.341 170.998 134.341C171.287 134.341 171.522 134.364 171.704 134.411C171.887 134.457 172.023 134.5 172.112 134.54L171.774 135.554C171.714 135.534 171.631 135.509 171.525 135.479C171.423 135.45 171.287 135.435 171.118 135.435C170.73 135.435 170.45 135.532 170.278 135.728C170.108 135.924 170.024 136.21 170.024 136.588V145H168.851ZM176.166 145.159C175.477 145.159 174.872 144.995 174.352 144.667C173.835 144.339 173.43 143.88 173.139 143.29C172.85 142.7 172.706 142.01 172.706 141.222C172.706 140.426 172.85 139.732 173.139 139.138C173.43 138.545 173.835 138.085 174.352 137.756C174.872 137.428 175.477 137.264 176.166 137.264C176.856 137.264 177.459 137.428 177.976 137.756C178.496 138.085 178.901 138.545 179.189 139.138C179.481 139.732 179.627 140.426 179.627 141.222C179.627 142.01 179.481 142.7 179.189 143.29C178.901 143.88 178.496 144.339 177.976 144.667C177.459 144.995 176.856 145.159 176.166 145.159ZM176.166 144.105C176.69 144.105 177.121 143.971 177.459 143.702C177.797 143.434 178.047 143.081 178.21 142.643C178.372 142.206 178.453 141.732 178.453 141.222C178.453 140.711 178.372 140.236 178.21 139.795C178.047 139.354 177.797 138.998 177.459 138.726C177.121 138.454 176.69 138.318 176.166 138.318C175.643 138.318 175.212 138.454 174.874 138.726C174.536 138.998 174.285 139.354 174.123 139.795C173.961 140.236 173.879 140.711 173.879 141.222C173.879 141.732 173.961 142.206 174.123 142.643C174.285 143.081 174.536 143.434 174.874 143.702C175.212 143.971 175.643 144.105 176.166 144.105ZM181.418 145V137.364H182.551V138.517H182.631C182.77 138.139 183.022 137.833 183.386 137.597C183.751 137.362 184.162 137.244 184.619 137.244C184.705 137.244 184.813 137.246 184.942 137.249C185.072 137.253 185.17 137.258 185.236 137.264V138.457C185.196 138.447 185.105 138.433 184.962 138.413C184.823 138.389 184.676 138.378 184.52 138.378C184.149 138.378 183.817 138.456 183.526 138.612C183.237 138.764 183.009 138.976 182.839 139.248C182.674 139.516 182.591 139.823 182.591 140.168V145H181.418ZM193.885 137.364V138.358H189.928V137.364H193.885ZM191.081 135.534H192.254V142.812C192.254 143.144 192.302 143.393 192.399 143.558C192.498 143.721 192.624 143.83 192.776 143.886C192.932 143.939 193.096 143.966 193.269 143.966C193.398 143.966 193.504 143.959 193.587 143.946C193.67 143.929 193.736 143.916 193.786 143.906L194.024 144.96C193.945 144.99 193.834 145.02 193.691 145.05C193.549 145.083 193.368 145.099 193.149 145.099C192.818 145.099 192.493 145.028 192.175 144.886C191.86 144.743 191.598 144.526 191.389 144.234C191.184 143.943 191.081 143.575 191.081 143.131V135.534ZM196.987 140.406V145H195.814V134.818H196.987V138.557H197.087C197.266 138.162 197.534 137.849 197.892 137.617C198.253 137.382 198.734 137.264 199.334 137.264C199.854 137.264 200.31 137.369 200.701 137.577C201.092 137.783 201.396 138.099 201.611 138.527C201.83 138.951 201.939 139.491 201.939 140.148V145H200.766V140.227C200.766 139.621 200.608 139.152 200.294 138.82C199.982 138.486 199.549 138.318 198.996 138.318C198.611 138.318 198.267 138.399 197.962 138.562C197.66 138.724 197.422 138.961 197.246 139.273C197.074 139.584 196.987 139.962 196.987 140.406ZM207.287 145.159C206.551 145.159 205.917 144.997 205.383 144.672C204.853 144.344 204.444 143.886 204.155 143.3C203.87 142.71 203.728 142.024 203.728 141.241C203.728 140.459 203.87 139.77 204.155 139.173C204.444 138.573 204.845 138.106 205.358 137.771C205.875 137.433 206.479 137.264 207.168 137.264C207.566 137.264 207.958 137.33 208.346 137.463C208.734 137.596 209.087 137.811 209.405 138.109C209.723 138.404 209.977 138.795 210.166 139.283C210.355 139.77 210.449 140.37 210.449 141.082V141.58H204.563V140.565H209.256C209.256 140.134 209.17 139.75 208.998 139.412C208.828 139.074 208.587 138.807 208.272 138.612C207.96 138.416 207.592 138.318 207.168 138.318C206.701 138.318 206.296 138.434 205.955 138.666C205.617 138.895 205.357 139.193 205.174 139.561C204.992 139.929 204.901 140.323 204.901 140.744V141.42C204.901 141.997 205 142.486 205.199 142.887C205.401 143.285 205.681 143.588 206.039 143.797C206.397 144.002 206.813 144.105 207.287 144.105C207.596 144.105 207.874 144.062 208.123 143.976C208.374 143.886 208.592 143.754 208.774 143.578C208.956 143.399 209.097 143.177 209.196 142.912L210.33 143.23C210.211 143.615 210.01 143.953 209.728 144.244C209.447 144.533 209.099 144.758 208.684 144.92C208.27 145.08 207.804 145.159 207.287 145.159ZM216.172 145V137.364H217.305V138.517H217.385C217.524 138.139 217.776 137.833 218.14 137.597C218.505 137.362 218.916 137.244 219.373 137.244C219.459 137.244 219.567 137.246 219.696 137.249C219.826 137.253 219.923 137.258 219.99 137.264V138.457C219.95 138.447 219.859 138.433 219.716 138.413C219.577 138.389 219.43 138.378 219.274 138.378C218.903 138.378 218.571 138.456 218.279 138.612C217.991 138.764 217.762 138.976 217.593 139.248C217.428 139.516 217.345 139.823 217.345 140.168V145H216.172ZM224.35 145.159C223.614 145.159 222.979 144.997 222.446 144.672C221.915 144.344 221.506 143.886 221.218 143.3C220.933 142.71 220.79 142.024 220.79 141.241C220.79 140.459 220.933 139.77 221.218 139.173C221.506 138.573 221.907 138.106 222.421 137.771C222.938 137.433 223.541 137.264 224.23 137.264C224.628 137.264 225.021 137.33 225.409 137.463C225.797 137.596 226.15 137.811 226.468 138.109C226.786 138.404 227.039 138.795 227.228 139.283C227.417 139.77 227.512 140.37 227.512 141.082V141.58H221.625V140.565H226.319C226.319 140.134 226.232 139.75 226.06 139.412C225.891 139.074 225.649 138.807 225.334 138.612C225.023 138.416 224.655 138.318 224.23 138.318C223.763 138.318 223.359 138.434 223.017 138.666C222.679 138.895 222.419 139.193 222.237 139.561C222.055 139.929 221.963 140.323 221.963 140.744V141.42C221.963 141.997 222.063 142.486 222.262 142.887C222.464 143.285 222.744 143.588 223.102 143.797C223.46 144.002 223.876 144.105 224.35 144.105C224.658 144.105 224.936 144.062 225.185 143.976C225.437 143.886 225.654 143.754 225.836 143.578C226.019 143.399 226.159 143.177 226.259 142.912L227.392 143.23C227.273 143.615 227.073 143.953 226.791 144.244C226.509 144.533 226.161 144.758 225.747 144.92C225.333 145.08 224.867 145.159 224.35 145.159ZM231.544 145.179C231.06 145.179 230.621 145.088 230.226 144.906C229.832 144.72 229.519 144.453 229.287 144.105C229.055 143.754 228.939 143.33 228.939 142.832C228.939 142.395 229.025 142.04 229.197 141.768C229.369 141.493 229.6 141.278 229.888 141.122C230.176 140.966 230.495 140.85 230.843 140.774C231.194 140.695 231.547 140.632 231.902 140.585C232.366 140.526 232.742 140.481 233.03 140.451C233.322 140.418 233.534 140.363 233.667 140.287C233.802 140.211 233.87 140.078 233.87 139.889V139.849C233.87 139.359 233.736 138.978 233.468 138.706C233.203 138.434 232.8 138.298 232.26 138.298C231.699 138.298 231.26 138.421 230.942 138.666C230.624 138.911 230.4 139.173 230.271 139.452L229.157 139.054C229.356 138.59 229.621 138.229 229.953 137.97C230.288 137.708 230.652 137.526 231.047 137.423C231.444 137.317 231.835 137.264 232.22 137.264C232.465 137.264 232.747 137.294 233.065 137.354C233.386 137.41 233.696 137.528 233.995 137.707C234.296 137.886 234.547 138.156 234.745 138.517C234.944 138.878 235.044 139.362 235.044 139.969V145H233.87V143.966H233.811C233.731 144.132 233.599 144.309 233.413 144.498C233.227 144.687 232.98 144.848 232.672 144.98C232.364 145.113 231.988 145.179 231.544 145.179ZM231.723 144.125C232.187 144.125 232.578 144.034 232.896 143.852C233.217 143.669 233.459 143.434 233.622 143.146C233.788 142.857 233.87 142.554 233.87 142.236V141.162C233.821 141.222 233.711 141.276 233.542 141.326C233.377 141.372 233.184 141.414 232.966 141.45C232.75 141.483 232.54 141.513 232.334 141.54C232.132 141.563 231.968 141.583 231.842 141.599C231.537 141.639 231.252 141.704 230.987 141.793C230.725 141.879 230.513 142.01 230.35 142.186C230.191 142.358 230.112 142.594 230.112 142.892C230.112 143.3 230.263 143.608 230.564 143.817C230.869 144.022 231.255 144.125 231.723 144.125ZM238.358 134.818V145H237.185V134.818H238.358ZM247.647 145.159C246.911 145.159 246.276 144.997 245.743 144.672C245.212 144.344 244.803 143.886 244.515 143.3C244.23 142.71 244.087 142.024 244.087 141.241C244.087 140.459 244.23 139.77 244.515 139.173C244.803 138.573 245.204 138.106 245.718 137.771C246.235 137.433 246.838 137.264 247.527 137.264C247.925 137.264 248.318 137.33 248.706 137.463C249.093 137.596 249.446 137.811 249.765 138.109C250.083 138.404 250.336 138.795 250.525 139.283C250.714 139.77 250.809 140.37 250.809 141.082V141.58H244.922V140.565H249.615C249.615 140.134 249.529 139.75 249.357 139.412C249.188 139.074 248.946 138.807 248.631 138.612C248.319 138.416 247.952 138.318 247.527 138.318C247.06 138.318 246.656 138.434 246.314 138.666C245.976 138.895 245.716 139.193 245.534 139.561C245.351 139.929 245.26 140.323 245.26 140.744V141.42C245.26 141.997 245.36 142.486 245.559 142.887C245.761 143.285 246.041 143.588 246.399 143.797C246.757 144.002 247.173 144.105 247.647 144.105C247.955 144.105 248.233 144.062 248.482 143.976C248.734 143.886 248.951 143.754 249.133 143.578C249.315 143.399 249.456 143.177 249.556 142.912L250.689 143.23C250.57 143.615 250.369 143.953 250.088 144.244C249.806 144.533 249.458 144.758 249.044 144.92C248.629 145.08 248.164 145.159 247.647 145.159ZM253.263 137.364L255.093 140.486L256.922 137.364H258.275L255.809 141.182L258.275 145H256.922L255.093 142.037L253.263 145H251.911L254.337 141.182L251.911 137.364H253.263ZM262.196 145.179C261.712 145.179 261.273 145.088 260.879 144.906C260.484 144.72 260.171 144.453 259.939 144.105C259.707 143.754 259.591 143.33 259.591 142.832C259.591 142.395 259.677 142.04 259.849 141.768C260.022 141.493 260.252 141.278 260.54 141.122C260.829 140.966 261.147 140.85 261.495 140.774C261.846 140.695 262.199 140.632 262.554 140.585C263.018 140.526 263.394 140.481 263.683 140.451C263.974 140.418 264.186 140.363 264.319 140.287C264.455 140.211 264.523 140.078 264.523 139.889V139.849C264.523 139.359 264.388 138.978 264.12 138.706C263.855 138.434 263.452 138.298 262.912 138.298C262.352 138.298 261.913 138.421 261.594 138.666C261.276 138.911 261.053 139.173 260.923 139.452L259.81 139.054C260.009 138.59 260.274 138.229 260.605 137.97C260.94 137.708 261.304 137.526 261.699 137.423C262.097 137.317 262.488 137.264 262.872 137.264C263.117 137.264 263.399 137.294 263.717 137.354C264.039 137.41 264.349 137.528 264.647 137.707C264.949 137.886 265.199 138.156 265.398 138.517C265.597 138.878 265.696 139.362 265.696 139.969V145H264.523V143.966H264.463C264.384 144.132 264.251 144.309 264.065 144.498C263.88 144.687 263.633 144.848 263.325 144.98C263.016 145.113 262.64 145.179 262.196 145.179ZM262.375 144.125C262.839 144.125 263.23 144.034 263.548 143.852C263.87 143.669 264.112 143.434 264.274 143.146C264.44 142.857 264.523 142.554 264.523 142.236V141.162C264.473 141.222 264.364 141.276 264.195 141.326C264.029 141.372 263.837 141.414 263.618 141.45C263.402 141.483 263.192 141.513 262.987 141.54C262.784 141.563 262.62 141.583 262.494 141.599C262.189 141.639 261.904 141.704 261.639 141.793C261.377 141.879 261.165 142.01 261.003 142.186C260.844 142.358 260.764 142.594 260.764 142.892C260.764 143.3 260.915 143.608 261.217 143.817C261.522 144.022 261.908 144.125 262.375 144.125ZM267.838 145V137.364H268.971V138.557H269.07C269.23 138.149 269.486 137.833 269.841 137.607C270.196 137.379 270.622 137.264 271.119 137.264C271.623 137.264 272.042 137.379 272.377 137.607C272.715 137.833 272.978 138.149 273.167 138.557H273.247C273.442 138.162 273.735 137.849 274.127 137.617C274.518 137.382 274.987 137.264 275.534 137.264C276.216 137.264 276.775 137.478 277.209 137.906C277.643 138.33 277.86 138.991 277.86 139.889V145H276.687V139.889C276.687 139.326 276.533 138.923 276.225 138.681C275.916 138.439 275.553 138.318 275.136 138.318C274.599 138.318 274.183 138.481 273.888 138.805C273.593 139.127 273.445 139.535 273.445 140.028V145H272.252V139.77C272.252 139.336 272.111 138.986 271.83 138.721C271.548 138.452 271.185 138.318 270.741 138.318C270.436 138.318 270.151 138.399 269.886 138.562C269.624 138.724 269.412 138.95 269.249 139.238C269.09 139.523 269.011 139.853 269.011 140.227V145H267.838Z" fill="#333333"/>
</g>
<defs>
<filter id="filter0_dd_821_55351" x="0" y="0" width="314" height="184" filterUnits="userSpaceOnUse" color-interpolation-filters="sRGB">
<feFlood flood-opacity="0" result="BackgroundImageFix"/>
<feColorMatrix in="SourceAlpha" type="matrix" values="0 0 0 0 0 0 0 0 0 0 0 0 0 0 0 0 0 0 127 0" result="hardAlpha"/>
<feOffset dy="3"/>
<feGaussianBlur stdDeviation="3"/>
<feColorMatrix type="matrix" values="0 0 0 0 0.2 0 0 0 0 0.2 0 0 0 0 0.2 0 0 0 0.1 0"/>
<feBlend mode="normal" in2="BackgroundImageFix" result="effect1_dropShadow_821_55351"/>
<feColorMatrix in="SourceAlpha" type="matrix" values="0 0 0 0 0 0 0 0 0 0 0 0 0 0 0 0 0 0 127 0" result="hardAlpha"/>
<feOffset dy="3"/>
<feGaussianBlur stdDeviation="3"/>
<feColorMatrix type="matrix" values="0 0 0 0 0.2 0 0 0 0 0.2 0 0 0 0 0.2 0 0 0 0.1 0"/>
<feBlend mode="normal" in2="effect1_dropShadow_821_55351" result="effect2_dropShadow_821_55351"/>
<feBlend mode="normal" in="SourceGraphic" in2="effect2_dropShadow_821_55351" result="shape"/>
</filter>
</defs>
</svg>
