<svg width="227" height="40" viewBox="0 0 227 40" fill="none" xmlns="http://www.w3.org/2000/svg">
<rect x="0.5" y="0.5" width="226" height="39" rx="3.5" fill="white"/>
<path d="M22.7727 18H21.3636C21.2803 17.5947 21.1345 17.2386 20.9261 16.9318C20.7216 16.625 20.4716 16.3674 20.1761 16.1591C19.8845 15.947 19.5606 15.7879 19.2045 15.6818C18.8485 15.5758 18.4773 15.5227 18.0909 15.5227C17.3864 15.5227 16.7481 15.7008 16.1761 16.0568C15.608 16.4129 15.1553 16.9375 14.8182 17.6307C14.4848 18.3239 14.3182 19.1742 14.3182 20.1818C14.3182 21.1894 14.4848 22.0398 14.8182 22.733C15.1553 23.4261 15.608 23.9508 16.1761 24.3068C16.7481 24.6629 17.3864 24.8409 18.0909 24.8409C18.4773 24.8409 18.8485 24.7879 19.2045 24.6818C19.5606 24.5758 19.8845 24.4186 20.1761 24.2102C20.4716 23.9981 20.7216 23.7386 20.9261 23.4318C21.1345 23.1212 21.2803 22.7652 21.3636 22.3636H22.7727C22.6667 22.9583 22.4735 23.4905 22.1932 23.9602C21.9129 24.4299 21.5644 24.8295 21.1477 25.1591C20.7311 25.4848 20.2633 25.733 19.7443 25.9034C19.2292 26.0739 18.678 26.1591 18.0909 26.1591C17.0985 26.1591 16.2159 25.9167 15.4432 25.4318C14.6705 24.947 14.0625 24.2576 13.6193 23.3636C13.1761 22.4697 12.9545 21.4091 12.9545 20.1818C12.9545 18.9545 13.1761 17.8939 13.6193 17C14.0625 16.1061 14.6705 15.4167 15.4432 14.9318C16.2159 14.447 17.0985 14.2045 18.0909 14.2045C18.678 14.2045 19.2292 14.2898 19.7443 14.4602C20.2633 14.6307 20.7311 14.8807 21.1477 15.2102C21.5644 15.536 21.9129 15.9337 22.1932 16.4034C22.4735 16.8693 22.6667 17.4015 22.7727 18ZM24.8679 26V17.2727H26.1634V18.5909H26.2543C26.4134 18.1591 26.7012 17.8087 27.1179 17.5398C27.5346 17.2708 28.0043 17.1364 28.527 17.1364C28.6255 17.1364 28.7486 17.1383 28.8963 17.142C29.044 17.1458 29.1558 17.1515 29.2315 17.1591V18.5227C29.1861 18.5114 29.0819 18.4943 28.919 18.4716C28.7599 18.4451 28.5914 18.4318 28.4134 18.4318C27.9891 18.4318 27.6103 18.5208 27.277 18.6989C26.9474 18.8731 26.6861 19.1155 26.4929 19.4261C26.3035 19.733 26.2088 20.0833 26.2088 20.4773V26H24.8679ZM34.2145 26.1818C33.3736 26.1818 32.6482 25.9962 32.0384 25.625C31.4323 25.25 30.9645 24.7273 30.6349 24.0568C30.3092 23.3826 30.1463 22.5985 30.1463 21.7045C30.1463 20.8106 30.3092 20.0227 30.6349 19.3409C30.9645 18.6553 31.4228 18.1212 32.0099 17.7386C32.6009 17.3523 33.2902 17.1591 34.0781 17.1591C34.5327 17.1591 34.9815 17.2348 35.4247 17.3864C35.8679 17.5379 36.2713 17.7841 36.6349 18.125C36.9986 18.4621 37.2884 18.9091 37.5043 19.4659C37.7202 20.0227 37.8281 20.7083 37.8281 21.5227V22.0909H31.1009V20.9318H36.4645C36.4645 20.4394 36.366 20 36.169 19.6136C35.9759 19.2273 35.6993 18.9223 35.3395 18.6989C34.9834 18.4754 34.563 18.3636 34.0781 18.3636C33.544 18.3636 33.0819 18.4962 32.6918 18.7614C32.3054 19.0227 32.008 19.3636 31.7997 19.7841C31.5914 20.2045 31.4872 20.6553 31.4872 21.1364V21.9091C31.4872 22.5682 31.6009 23.1269 31.8281 23.5852C32.0592 24.0398 32.3793 24.3864 32.7884 24.625C33.1974 24.8598 33.6728 24.9773 34.2145 24.9773C34.5668 24.9773 34.8849 24.928 35.169 24.8295C35.4569 24.7273 35.705 24.5758 35.9134 24.375C36.1217 24.1705 36.2827 23.9167 36.3963 23.6136L37.6918 23.9773C37.5554 24.4167 37.3262 24.803 37.0043 25.1364C36.6823 25.4659 36.2846 25.7235 35.8111 25.9091C35.3376 26.0909 34.8054 26.1818 34.2145 26.1818ZM42.4361 26.2045C41.883 26.2045 41.3812 26.1004 40.9304 25.892C40.4796 25.6799 40.1217 25.375 39.8565 24.9773C39.5914 24.5758 39.4588 24.0909 39.4588 23.5227C39.4588 23.0227 39.5573 22.6174 39.7543 22.3068C39.9512 21.9924 40.2145 21.7462 40.544 21.5682C40.8736 21.3902 41.2372 21.2576 41.6349 21.1705C42.0365 21.0795 42.4399 21.0076 42.8452 20.9545C43.3755 20.8864 43.8054 20.8352 44.1349 20.8011C44.4683 20.7633 44.7107 20.7008 44.8622 20.6136C45.0175 20.5265 45.0952 20.375 45.0952 20.1591V20.1136C45.0952 19.553 44.9418 19.1174 44.6349 18.8068C44.3319 18.4962 43.8717 18.3409 43.2543 18.3409C42.6141 18.3409 42.1122 18.4811 41.7486 18.7614C41.3849 19.0417 41.1293 19.3409 40.9815 19.6591L39.7088 19.2045C39.9361 18.6742 40.2391 18.2614 40.6179 17.9659C41.0005 17.6667 41.4171 17.4583 41.8679 17.3409C42.3224 17.2197 42.7694 17.1591 43.2088 17.1591C43.4891 17.1591 43.8111 17.1932 44.1747 17.2614C44.5421 17.3258 44.8963 17.4602 45.2372 17.6648C45.5819 17.8693 45.8679 18.178 46.0952 18.5909C46.3224 19.0038 46.4361 19.5568 46.4361 20.25V26H45.0952V24.8182H45.027C44.9361 25.0076 44.7846 25.2102 44.5724 25.4261C44.3603 25.642 44.0781 25.8258 43.7259 25.9773C43.3736 26.1288 42.9437 26.2045 42.4361 26.2045ZM42.6406 25C43.1709 25 43.6179 24.8958 43.9815 24.6875C44.349 24.4792 44.6255 24.2102 44.8111 23.8807C45.0005 23.5511 45.0952 23.2045 45.0952 22.8409V21.6136C45.0384 21.6818 44.9134 21.7443 44.7202 21.8011C44.5308 21.8542 44.3111 21.9015 44.0611 21.9432C43.8149 21.9811 43.5743 22.0152 43.3395 22.0455C43.1084 22.072 42.9209 22.0947 42.777 22.1136C42.4285 22.1591 42.1027 22.233 41.7997 22.3352C41.5005 22.4337 41.258 22.5833 41.0724 22.7841C40.8906 22.9811 40.7997 23.25 40.7997 23.5909C40.7997 24.0568 40.9721 24.4091 41.3168 24.6477C41.6652 24.8826 42.1065 25 42.6406 25ZM52.679 17.2727V18.4091H48.1562V17.2727H52.679ZM49.4744 15.1818H50.8153V23.5C50.8153 23.8788 50.8703 24.1629 50.9801 24.3523C51.0938 24.5379 51.2377 24.6629 51.4119 24.7273C51.59 24.7879 51.7775 24.8182 51.9744 24.8182C52.1222 24.8182 52.2434 24.8106 52.3381 24.7955C52.4328 24.7765 52.5085 24.7614 52.5653 24.75L52.8381 25.9545C52.7472 25.9886 52.6203 26.0227 52.4574 26.0568C52.2945 26.0947 52.0881 26.1136 51.8381 26.1136C51.4593 26.1136 51.0881 26.0322 50.7244 25.8693C50.3646 25.7064 50.0653 25.4583 49.8267 25.125C49.5919 24.7917 49.4744 24.3712 49.4744 23.8636V15.1818ZM58.2614 26.1818C57.4205 26.1818 56.6951 25.9962 56.0852 25.625C55.4792 25.25 55.0114 24.7273 54.6818 24.0568C54.3561 23.3826 54.1932 22.5985 54.1932 21.7045C54.1932 20.8106 54.3561 20.0227 54.6818 19.3409C55.0114 18.6553 55.4697 18.1212 56.0568 17.7386C56.6477 17.3523 57.3371 17.1591 58.125 17.1591C58.5795 17.1591 59.0284 17.2348 59.4716 17.3864C59.9148 17.5379 60.3182 17.7841 60.6818 18.125C61.0455 18.4621 61.3352 18.9091 61.5511 19.4659C61.767 20.0227 61.875 20.7083 61.875 21.5227V22.0909H55.1477V20.9318H60.5114C60.5114 20.4394 60.4129 20 60.2159 19.6136C60.0227 19.2273 59.7462 18.9223 59.3864 18.6989C59.0303 18.4754 58.6098 18.3636 58.125 18.3636C57.5909 18.3636 57.1288 18.4962 56.7386 18.7614C56.3523 19.0227 56.0549 19.3636 55.8466 19.7841C55.6383 20.2045 55.5341 20.6553 55.5341 21.1364V21.9091C55.5341 22.5682 55.6477 23.1269 55.875 23.5852C56.1061 24.0398 56.4261 24.3864 56.8352 24.625C57.2443 24.8598 57.7197 24.9773 58.2614 24.9773C58.6136 24.9773 58.9318 24.928 59.2159 24.8295C59.5038 24.7273 59.7519 24.5758 59.9602 24.375C60.1686 24.1705 60.3295 23.9167 60.4432 23.6136L61.7386 23.9773C61.6023 24.4167 61.3731 24.803 61.0511 25.1364C60.7292 25.4659 60.3314 25.7235 59.858 25.9091C59.3845 26.0909 58.8523 26.1818 58.2614 26.1818ZM70.983 26.2045C70.4299 26.2045 69.928 26.1004 69.4773 25.892C69.0265 25.6799 68.6686 25.375 68.4034 24.9773C68.1383 24.5758 68.0057 24.0909 68.0057 23.5227C68.0057 23.0227 68.1042 22.6174 68.3011 22.3068C68.4981 21.9924 68.7614 21.7462 69.0909 21.5682C69.4205 21.3902 69.7841 21.2576 70.1818 21.1705C70.5833 21.0795 70.9867 21.0076 71.392 20.9545C71.9223 20.8864 72.3523 20.8352 72.6818 20.8011C73.0152 20.7633 73.2576 20.7008 73.4091 20.6136C73.5644 20.5265 73.642 20.375 73.642 20.1591V20.1136C73.642 19.553 73.4886 19.1174 73.1818 18.8068C72.8788 18.4962 72.4186 18.3409 71.8011 18.3409C71.161 18.3409 70.6591 18.4811 70.2955 18.7614C69.9318 19.0417 69.6761 19.3409 69.5284 19.6591L68.2557 19.2045C68.483 18.6742 68.786 18.2614 69.1648 17.9659C69.5473 17.6667 69.964 17.4583 70.4148 17.3409C70.8693 17.2197 71.3163 17.1591 71.7557 17.1591C72.036 17.1591 72.358 17.1932 72.7216 17.2614C73.089 17.3258 73.4432 17.4602 73.7841 17.6648C74.1288 17.8693 74.4148 18.178 74.642 18.5909C74.8693 19.0038 74.983 19.5568 74.983 20.25V26H73.642V24.8182H73.5739C73.483 25.0076 73.3314 25.2102 73.1193 25.4261C72.9072 25.642 72.625 25.8258 72.2727 25.9773C71.9205 26.1288 71.4905 26.2045 70.983 26.2045ZM71.1875 25C71.7178 25 72.1648 24.8958 72.5284 24.6875C72.8958 24.4792 73.1723 24.2102 73.358 23.8807C73.5473 23.5511 73.642 23.2045 73.642 22.8409V21.6136C73.5852 21.6818 73.4602 21.7443 73.267 21.8011C73.0777 21.8542 72.858 21.9015 72.608 21.9432C72.3617 21.9811 72.1212 22.0152 71.8864 22.0455C71.6553 22.072 71.4678 22.0947 71.3239 22.1136C70.9754 22.1591 70.6496 22.233 70.3466 22.3352C70.0473 22.4337 69.8049 22.5833 69.6193 22.7841C69.4375 22.9811 69.3466 23.25 69.3466 23.5909C69.3466 24.0568 69.5189 24.4091 69.8636 24.6477C70.2121 24.8826 70.6534 25 71.1875 25ZM81.9304 29.2727V17.2727H83.2259V18.6591H83.3849C83.4834 18.5076 83.6198 18.3144 83.794 18.0795C83.9721 17.8409 84.2259 17.6288 84.5554 17.4432C84.8887 17.2538 85.3395 17.1591 85.9077 17.1591C86.6425 17.1591 87.2902 17.3428 87.8509 17.7102C88.4115 18.0777 88.849 18.5985 89.1634 19.2727C89.4777 19.947 89.6349 20.7424 89.6349 21.6591C89.6349 22.5833 89.4777 23.3845 89.1634 24.0625C88.849 24.7367 88.4134 25.2595 87.8565 25.6307C87.2997 25.9981 86.6577 26.1818 85.9304 26.1818C85.3698 26.1818 84.9209 26.089 84.5838 25.9034C84.2467 25.714 83.9872 25.5 83.8054 25.2614C83.6236 25.0189 83.4834 24.8182 83.3849 24.6591H83.2713V29.2727H81.9304ZM83.2486 21.6364C83.2486 22.2955 83.3452 22.8769 83.5384 23.3807C83.7315 23.8807 84.0137 24.2727 84.3849 24.5568C84.7562 24.8371 85.2107 24.9773 85.7486 24.9773C86.3092 24.9773 86.777 24.8295 87.152 24.5341C87.5308 24.2348 87.8149 23.8333 88.0043 23.3295C88.1974 22.822 88.294 22.2576 88.294 21.6364C88.294 21.0227 88.1993 20.4697 88.0099 19.9773C87.8243 19.4811 87.5421 19.089 87.1634 18.8011C86.7884 18.5095 86.3168 18.3636 85.7486 18.3636C85.2031 18.3636 84.7448 18.5019 84.3736 18.7784C84.0024 19.0511 83.7221 19.4337 83.5327 19.9261C83.3433 20.4148 83.2486 20.9848 83.2486 21.6364ZM94.2486 26.2045C93.6955 26.2045 93.1937 26.1004 92.7429 25.892C92.2921 25.6799 91.9342 25.375 91.669 24.9773C91.4039 24.5758 91.2713 24.0909 91.2713 23.5227C91.2713 23.0227 91.3698 22.6174 91.5668 22.3068C91.7637 21.9924 92.027 21.7462 92.3565 21.5682C92.6861 21.3902 93.0497 21.2576 93.4474 21.1705C93.849 21.0795 94.2524 21.0076 94.6577 20.9545C95.188 20.8864 95.6179 20.8352 95.9474 20.8011C96.2808 20.7633 96.5232 20.7008 96.6747 20.6136C96.83 20.5265 96.9077 20.375 96.9077 20.1591V20.1136C96.9077 19.553 96.7543 19.1174 96.4474 18.8068C96.1444 18.4962 95.6842 18.3409 95.0668 18.3409C94.4266 18.3409 93.9247 18.4811 93.5611 18.7614C93.1974 19.0417 92.9418 19.3409 92.794 19.6591L91.5213 19.2045C91.7486 18.6742 92.0516 18.2614 92.4304 17.9659C92.813 17.6667 93.2296 17.4583 93.6804 17.3409C94.1349 17.2197 94.5819 17.1591 95.0213 17.1591C95.3016 17.1591 95.6236 17.1932 95.9872 17.2614C96.3546 17.3258 96.7088 17.4602 97.0497 17.6648C97.3944 17.8693 97.6804 18.178 97.9077 18.5909C98.1349 19.0038 98.2486 19.5568 98.2486 20.25V26H96.9077V24.8182H96.8395C96.7486 25.0076 96.5971 25.2102 96.3849 25.4261C96.1728 25.642 95.8906 25.8258 95.5384 25.9773C95.1861 26.1288 94.7562 26.2045 94.2486 26.2045ZM94.4531 25C94.9834 25 95.4304 24.8958 95.794 24.6875C96.1615 24.4792 96.438 24.2102 96.6236 23.8807C96.813 23.5511 96.9077 23.2045 96.9077 22.8409V21.6136C96.8509 21.6818 96.7259 21.7443 96.5327 21.8011C96.3433 21.8542 96.1236 21.9015 95.8736 21.9432C95.6274 21.9811 95.3868 22.0152 95.152 22.0455C94.9209 22.072 94.7334 22.0947 94.5895 22.1136C94.241 22.1591 93.9152 22.233 93.6122 22.3352C93.313 22.4337 93.0705 22.5833 92.8849 22.7841C92.7031 22.9811 92.6122 23.25 92.6122 23.5909C92.6122 24.0568 92.7846 24.4091 93.1293 24.6477C93.4777 24.8826 93.919 25 94.4531 25ZM106.878 19.2273L105.673 19.5682C105.598 19.3674 105.486 19.1723 105.338 18.983C105.194 18.7898 104.997 18.6307 104.747 18.5057C104.497 18.3807 104.177 18.3182 103.787 18.3182C103.253 18.3182 102.808 18.4413 102.452 18.6875C102.099 18.9299 101.923 19.2386 101.923 19.6136C101.923 19.947 102.045 20.2102 102.287 20.4034C102.529 20.5966 102.908 20.7576 103.423 20.8864L104.719 21.2045C105.499 21.3939 106.08 21.6837 106.463 22.0739C106.846 22.4602 107.037 22.9583 107.037 23.5682C107.037 24.0682 106.893 24.5152 106.605 24.9091C106.321 25.303 105.923 25.6136 105.412 25.8409C104.901 26.0682 104.306 26.1818 103.628 26.1818C102.738 26.1818 102.001 25.9886 101.418 25.6023C100.834 25.2159 100.465 24.6515 100.31 23.9091L101.582 23.5909C101.704 24.0606 101.933 24.4129 102.27 24.6477C102.611 24.8826 103.056 25 103.605 25C104.23 25 104.726 24.8674 105.094 24.6023C105.465 24.3333 105.651 24.0114 105.651 23.6364C105.651 23.3333 105.545 23.0795 105.332 22.875C105.12 22.6667 104.795 22.5114 104.355 22.4091L102.901 22.0682C102.101 21.8788 101.514 21.5852 101.139 21.1875C100.768 20.786 100.582 20.2841 100.582 19.6818C100.582 19.1894 100.721 18.7538 100.997 18.375C101.277 17.9962 101.658 17.6989 102.139 17.483C102.624 17.267 103.173 17.1591 103.787 17.1591C104.651 17.1591 105.329 17.3485 105.821 17.7273C106.317 18.1061 106.67 18.6061 106.878 19.2273ZM115.237 19.2273L114.033 19.5682C113.957 19.3674 113.845 19.1723 113.697 18.983C113.554 18.7898 113.357 18.6307 113.107 18.5057C112.857 18.3807 112.536 18.3182 112.146 18.3182C111.612 18.3182 111.167 18.4413 110.811 18.6875C110.459 18.9299 110.283 19.2386 110.283 19.6136C110.283 19.947 110.404 20.2102 110.646 20.4034C110.889 20.5966 111.268 20.7576 111.783 20.8864L113.078 21.2045C113.858 21.3939 114.44 21.6837 114.822 22.0739C115.205 22.4602 115.396 22.9583 115.396 23.5682C115.396 24.0682 115.252 24.5152 114.964 24.9091C114.68 25.303 114.283 25.6136 113.771 25.8409C113.26 26.0682 112.665 26.1818 111.987 26.1818C111.097 26.1818 110.36 25.9886 109.777 25.6023C109.194 25.2159 108.824 24.6515 108.669 23.9091L109.942 23.5909C110.063 24.0606 110.292 24.4129 110.629 24.6477C110.97 24.8826 111.415 25 111.964 25C112.589 25 113.086 24.8674 113.453 24.6023C113.824 24.3333 114.01 24.0114 114.01 23.6364C114.01 23.3333 113.904 23.0795 113.692 22.875C113.48 22.6667 113.154 22.5114 112.714 22.4091L111.26 22.0682C110.461 21.8788 109.874 21.5852 109.499 21.1875C109.127 20.786 108.942 20.2841 108.942 19.6818C108.942 19.1894 109.08 18.7538 109.357 18.375C109.637 17.9962 110.018 17.6989 110.499 17.483C110.983 17.267 111.533 17.1591 112.146 17.1591C113.01 17.1591 113.688 17.3485 114.18 17.7273C114.677 18.1061 115.029 18.6061 115.237 19.2273ZM119.392 26L116.733 17.2727H118.142L120.028 23.9545H120.119L121.983 17.2727H123.415L125.256 23.9318H125.347L127.233 17.2727H128.642L125.983 26H124.665L122.756 19.2955H122.619L120.71 26H119.392ZM133.663 26.1818C132.875 26.1818 132.184 25.9943 131.589 25.6193C130.999 25.2443 130.536 24.7197 130.203 24.0455C129.874 23.3712 129.709 22.5833 129.709 21.6818C129.709 20.7727 129.874 19.9792 130.203 19.3011C130.536 18.6231 130.999 18.0966 131.589 17.7216C132.184 17.3466 132.875 17.1591 133.663 17.1591C134.451 17.1591 135.141 17.3466 135.732 17.7216C136.326 18.0966 136.788 18.6231 137.118 19.3011C137.451 19.9792 137.618 20.7727 137.618 21.6818C137.618 22.5833 137.451 23.3712 137.118 24.0455C136.788 24.7197 136.326 25.2443 135.732 25.6193C135.141 25.9943 134.451 26.1818 133.663 26.1818ZM133.663 24.9773C134.262 24.9773 134.754 24.8239 135.141 24.517C135.527 24.2102 135.813 23.8068 135.999 23.3068C136.184 22.8068 136.277 22.2652 136.277 21.6818C136.277 21.0985 136.184 20.5549 135.999 20.0511C135.813 19.5473 135.527 19.1402 135.141 18.8295C134.754 18.5189 134.262 18.3636 133.663 18.3636C133.065 18.3636 132.572 18.5189 132.186 18.8295C131.8 19.1402 131.514 19.5473 131.328 20.0511C131.143 20.5549 131.05 21.0985 131.05 21.6818C131.05 22.2652 131.143 22.8068 131.328 23.3068C131.514 23.8068 131.8 24.2102 132.186 24.517C132.572 24.8239 133.065 24.9773 133.663 24.9773ZM139.665 26V17.2727H140.96V18.5909H141.051C141.21 18.1591 141.498 17.8087 141.915 17.5398C142.331 17.2708 142.801 17.1364 143.324 17.1364C143.422 17.1364 143.545 17.1383 143.693 17.142C143.841 17.1458 143.953 17.1515 144.028 17.1591V18.5227C143.983 18.5114 143.879 18.4943 143.716 18.4716C143.557 18.4451 143.388 18.4318 143.21 18.4318C142.786 18.4318 142.407 18.5208 142.074 18.6989C141.744 18.8731 141.483 19.1155 141.29 19.4261C141.1 19.733 141.006 20.0833 141.006 20.4773V26H139.665ZM148.648 26.1818C147.92 26.1818 147.278 25.9981 146.722 25.6307C146.165 25.2595 145.729 24.7367 145.415 24.0625C145.1 23.3845 144.943 22.5833 144.943 21.6591C144.943 20.7424 145.1 19.947 145.415 19.2727C145.729 18.5985 146.167 18.0777 146.727 17.7102C147.288 17.3428 147.936 17.1591 148.67 17.1591C149.239 17.1591 149.688 17.2538 150.017 17.4432C150.35 17.6288 150.604 17.8409 150.778 18.0795C150.956 18.3144 151.095 18.5076 151.193 18.6591H151.307V14.3636H152.648V26H151.352V24.6591H151.193C151.095 24.8182 150.955 25.0189 150.773 25.2614C150.591 25.5 150.331 25.714 149.994 25.9034C149.657 26.089 149.208 26.1818 148.648 26.1818ZM148.83 24.9773C149.367 24.9773 149.822 24.8371 150.193 24.5568C150.564 24.2727 150.847 23.8807 151.04 23.3807C151.233 22.8769 151.33 22.2955 151.33 21.6364C151.33 20.9848 151.235 20.4148 151.045 19.9261C150.856 19.4337 150.576 19.0511 150.205 18.7784C149.833 18.5019 149.375 18.3636 148.83 18.3636C148.261 18.3636 147.788 18.5095 147.409 18.8011C147.034 19.089 146.752 19.4811 146.562 19.9773C146.377 20.4697 146.284 21.0227 146.284 21.6364C146.284 22.2576 146.379 22.822 146.568 23.3295C146.761 23.8333 147.045 24.2348 147.42 24.5341C147.799 24.8295 148.269 24.9773 148.83 24.9773Z" fill="#757575"/>
<path d="M204.587 25.7746C198.337 25.7746 195.662 20.5746 195.549 20.3496C195.437 20.1246 195.437 19.8746 195.549 19.6496C195.662 19.4246 198.337 14.2246 204.587 14.2246C210.837 14.2246 213.512 19.4371 213.624 19.6621C213.737 19.8871 213.737 20.1371 213.624 20.3621C213.512 20.5871 210.837 25.7996 204.587 25.7996V25.7746ZM197.149 19.9996C197.812 21.0746 200.137 24.2121 204.587 24.2121C209.037 24.2121 211.362 21.0746 212.024 19.9871C211.362 18.9121 209.037 15.7621 204.587 15.7621C200.137 15.7621 197.812 18.9371 197.149 19.9996Z" fill="#757575"/>
<path d="M204.587 23.2746C202.774 23.2746 201.312 21.7996 201.312 19.9996C201.312 18.1996 202.787 16.7246 204.587 16.7246C206.387 16.7246 207.862 18.1996 207.862 19.9996C207.862 21.7996 206.387 23.2746 204.587 23.2746ZM204.587 18.2746C203.637 18.2746 202.862 19.0496 202.862 19.9996C202.862 20.9496 203.637 21.7246 204.587 21.7246C205.537 21.7246 206.312 20.9496 206.312 19.9996C206.312 19.0496 205.537 18.2746 204.587 18.2746Z" fill="#757575"/>
<rect x="0.5" y="0.5" width="226" height="39" rx="3.5" stroke="#545454"/>
</svg>
