<svg width="440" height="153" viewBox="0 0 440 153" fill="none" xmlns="http://www.w3.org/2000/svg">
<g filter="url(#filter0_dd_821_54464)">
<rect x="20" y="10.5" width="400" height="104" rx="8" fill="white"/>
<path d="M45.1477 46.5V34.8636H49.5114C50.4053 34.8636 51.1553 35.0303 51.7614 35.3636C52.3712 35.697 52.8314 36.1553 53.142 36.7386C53.4564 37.3182 53.6136 37.9773 53.6136 38.7159C53.6136 39.4621 53.4564 40.125 53.142 40.7045C52.8277 41.2841 52.3636 41.7405 51.75 42.0739C51.1364 42.4034 50.3807 42.5682 49.483 42.5682H46.5909V40.8352H49.1989C49.7216 40.8352 50.1496 40.7443 50.483 40.5625C50.8163 40.3807 51.0625 40.1307 51.2216 39.8125C51.3845 39.4943 51.4659 39.1288 51.4659 38.7159C51.4659 38.303 51.3845 37.9394 51.2216 37.625C51.0625 37.3106 50.8144 37.0663 50.4773 36.892C50.1439 36.714 49.714 36.625 49.1875 36.625H47.2557V46.5H45.1477ZM59.0355 46.6705C58.1832 46.6705 57.4446 46.483 56.8196 46.108C56.1946 45.733 55.7098 45.2083 55.3651 44.5341C55.0241 43.8598 54.8537 43.072 54.8537 42.1705C54.8537 41.2689 55.0241 40.4792 55.3651 39.8011C55.7098 39.1231 56.1946 38.5966 56.8196 38.2216C57.4446 37.8466 58.1832 37.6591 59.0355 37.6591C59.8878 37.6591 60.6264 37.8466 61.2514 38.2216C61.8764 38.5966 62.3594 39.1231 62.7003 39.8011C63.045 40.4792 63.2173 41.2689 63.2173 42.1705C63.2173 43.072 63.045 43.8598 62.7003 44.5341C62.3594 45.2083 61.8764 45.733 61.2514 46.108C60.6264 46.483 59.8878 46.6705 59.0355 46.6705ZM59.0469 45.0227C59.509 45.0227 59.8954 44.8958 60.206 44.642C60.5166 44.3845 60.7476 44.0398 60.8991 43.608C61.0545 43.1761 61.1321 42.6951 61.1321 42.1648C61.1321 41.6307 61.0545 41.1477 60.8991 40.7159C60.7476 40.2803 60.5166 39.9337 60.206 39.6761C59.8954 39.4186 59.509 39.2898 59.0469 39.2898C58.5734 39.2898 58.1795 39.4186 57.8651 39.6761C57.5545 39.9337 57.3215 40.2803 57.1662 40.7159C57.0147 41.1477 56.9389 41.6307 56.9389 42.1648C56.9389 42.6951 57.0147 43.1761 57.1662 43.608C57.3215 44.0398 57.5545 44.3845 57.8651 44.642C58.1795 44.8958 58.5734 45.0227 59.0469 45.0227ZM64.9631 49.7727V37.7727H66.9858V39.2159H67.1051C67.2112 39.0038 67.3608 38.7784 67.554 38.5398C67.7472 38.2973 68.0085 38.0909 68.3381 37.9205C68.6676 37.7462 69.0881 37.6591 69.5994 37.6591C70.2737 37.6591 70.8816 37.8314 71.4233 38.1761C71.9688 38.517 72.4006 39.0227 72.7188 39.6932C73.0407 40.3598 73.2017 41.178 73.2017 42.1477C73.2017 43.1061 73.0445 43.9205 72.7301 44.5909C72.4157 45.2614 71.9877 45.7727 71.446 46.125C70.9044 46.4773 70.2907 46.6534 69.6051 46.6534C69.1051 46.6534 68.6903 46.5701 68.3608 46.4034C68.0313 46.2367 67.7661 46.036 67.5653 45.8011C67.3684 45.5625 67.215 45.3371 67.1051 45.125H67.0199V49.7727H64.9631ZM66.9801 42.1364C66.9801 42.7008 67.0597 43.1951 67.2188 43.6193C67.3816 44.0436 67.6146 44.375 67.9176 44.6136C68.2244 44.8485 68.5956 44.9659 69.0312 44.9659C69.4858 44.9659 69.8665 44.8447 70.1733 44.6023C70.4801 44.3561 70.7112 44.0208 70.8665 43.5966C71.0256 43.1686 71.1051 42.6818 71.1051 42.1364C71.1051 41.5947 71.0275 41.1136 70.8722 40.6932C70.7169 40.2727 70.4858 39.9432 70.179 39.7045C69.8722 39.4659 69.4896 39.3466 69.0312 39.3466C68.5919 39.3466 68.2188 39.4621 67.9119 39.6932C67.6051 39.9242 67.3722 40.2481 67.2131 40.6648C67.0578 41.0814 66.9801 41.572 66.9801 42.1364ZM78.7699 46.6705C77.9176 46.6705 77.179 46.483 76.554 46.108C75.929 45.733 75.4441 45.2083 75.0994 44.5341C74.7585 43.8598 74.5881 43.072 74.5881 42.1705C74.5881 41.2689 74.7585 40.4792 75.0994 39.8011C75.4441 39.1231 75.929 38.5966 76.554 38.2216C77.179 37.8466 77.9176 37.6591 78.7699 37.6591C79.6222 37.6591 80.3608 37.8466 80.9858 38.2216C81.6108 38.5966 82.0938 39.1231 82.4347 39.8011C82.7794 40.4792 82.9517 41.2689 82.9517 42.1705C82.9517 43.072 82.7794 43.8598 82.4347 44.5341C82.0938 45.2083 81.6108 45.733 80.9858 46.108C80.3608 46.483 79.6222 46.6705 78.7699 46.6705ZM78.7812 45.0227C79.2434 45.0227 79.6297 44.8958 79.9403 44.642C80.2509 44.3845 80.482 44.0398 80.6335 43.608C80.7888 43.1761 80.8665 42.6951 80.8665 42.1648C80.8665 41.6307 80.7888 41.1477 80.6335 40.7159C80.482 40.2803 80.2509 39.9337 79.9403 39.6761C79.6297 39.4186 79.2434 39.2898 78.7812 39.2898C78.3078 39.2898 77.9138 39.4186 77.5994 39.6761C77.2888 39.9337 77.0559 40.2803 76.9006 40.7159C76.7491 41.1477 76.6733 41.6307 76.6733 42.1648C76.6733 42.6951 76.7491 43.1761 76.9006 43.608C77.0559 44.0398 77.2888 44.3845 77.5994 44.642C77.9138 44.8958 78.3078 45.0227 78.7812 45.0227ZM92.196 37.7727L89.0881 46.5H86.8153L83.7074 37.7727H85.9006L87.9062 44.2557H87.9972L90.0085 37.7727H92.196ZM97.1861 46.6705C96.3111 46.6705 95.5554 46.4886 94.919 46.125C94.2865 45.7576 93.7997 45.2386 93.4588 44.5682C93.1179 43.8939 92.9474 43.1004 92.9474 42.1875C92.9474 41.2898 93.1179 40.5019 93.4588 39.8239C93.8035 39.142 94.2846 38.6117 94.902 38.233C95.5194 37.8504 96.2448 37.6591 97.0781 37.6591C97.616 37.6591 98.1236 37.7462 98.6009 37.9205C99.0819 38.0909 99.5062 38.3561 99.8736 38.7159C100.245 39.0758 100.536 39.5341 100.749 40.0909C100.961 40.6439 101.067 41.303 101.067 42.0682V42.6989H93.9134V41.3125H99.0952C99.0914 40.9186 99.0062 40.5682 98.8395 40.2614C98.6728 39.9508 98.4399 39.7064 98.1406 39.5284C97.8452 39.3504 97.5005 39.2614 97.1065 39.2614C96.6861 39.2614 96.3168 39.3636 95.9986 39.5682C95.6804 39.7689 95.4323 40.0341 95.2543 40.3636C95.08 40.6894 94.991 41.0473 94.9872 41.4375V42.6477C94.9872 43.1553 95.08 43.5909 95.2656 43.9545C95.4512 44.3144 95.7107 44.5909 96.044 44.7841C96.3774 44.9735 96.7675 45.0682 97.2145 45.0682C97.5137 45.0682 97.7846 45.0265 98.027 44.9432C98.2694 44.8561 98.4796 44.7292 98.6577 44.5625C98.8357 44.3958 98.9702 44.1894 99.0611 43.9432L100.982 44.1591C100.86 44.6667 100.629 45.1098 100.288 45.4886C99.9512 45.8636 99.5194 46.1553 98.9929 46.3636C98.4664 46.5682 97.8641 46.6705 97.1861 46.6705ZM102.807 46.5V37.7727H104.801V39.2273H104.892C105.051 38.7235 105.324 38.3352 105.71 38.0625C106.1 37.786 106.545 37.6477 107.045 37.6477C107.159 37.6477 107.286 37.6534 107.426 37.6648C107.57 37.6723 107.689 37.6856 107.784 37.7045V39.5966C107.697 39.5663 107.559 39.5398 107.369 39.517C107.184 39.4905 107.004 39.4773 106.83 39.4773C106.455 39.4773 106.117 39.5587 105.818 39.7216C105.523 39.8807 105.29 40.1023 105.119 40.3864C104.949 40.6705 104.864 40.9981 104.864 41.3693V46.5H102.807Z" fill="#1F1F1F"/>
<path d="M44.6761 59.4119V58.3182H52.3125V59.4119H49.1108V68.5H47.8778V59.4119H44.6761ZM55.2296 63.9062V68.5H54.0563V58.3182H55.2296V62.0568H55.329C55.508 61.6624 55.7765 61.3492 56.1344 61.1172C56.4957 60.8819 56.9763 60.7642 57.5762 60.7642C58.0965 60.7642 58.5523 60.8686 58.9434 61.0774C59.3345 61.2829 59.6377 61.5994 59.8532 62.027C60.0719 62.4512 60.1813 62.9915 60.1813 63.6477V68.5H59.008V63.7273C59.008 63.1207 58.8506 62.6518 58.5357 62.3203C58.2241 61.9856 57.7916 61.8182 57.2381 61.8182C56.8536 61.8182 56.5089 61.8994 56.204 62.0618C55.9024 62.2242 55.6638 62.4612 55.4881 62.7727C55.3158 63.0843 55.2296 63.4621 55.2296 63.9062ZM65.5295 68.6591C64.7937 68.6591 64.159 68.4967 63.6254 68.1719C63.0951 67.8438 62.6857 67.3864 62.3974 66.7997C62.1123 66.2098 61.9698 65.5237 61.9698 64.7415C61.9698 63.9593 62.1123 63.2699 62.3974 62.6733C62.6857 62.0734 63.0868 61.6061 63.6005 61.2713C64.1175 60.9332 64.7208 60.7642 65.4102 60.7642C65.8079 60.7642 66.2006 60.8305 66.5884 60.9631C66.9762 61.0956 67.3292 61.3111 67.6474 61.6094C67.9656 61.9044 68.2191 62.2955 68.408 62.7827C68.5969 63.2699 68.6914 63.8698 68.6914 64.5824V65.0795H62.805V64.0653H67.4982C67.4982 63.6345 67.4121 63.25 67.2397 62.9119C67.0707 62.5739 66.8287 62.3071 66.5138 62.1115C66.2023 61.916 65.8344 61.8182 65.4102 61.8182C64.9428 61.8182 64.5385 61.9342 64.1971 62.1662C63.859 62.3949 63.5988 62.6932 63.4165 63.0611C63.2343 63.429 63.1431 63.8234 63.1431 64.2443V64.9205C63.1431 65.4972 63.2425 65.986 63.4414 66.3871C63.6436 66.7848 63.9237 67.0881 64.2816 67.2969C64.6396 67.5024 65.0555 67.6051 65.5295 67.6051C65.8377 67.6051 66.1161 67.562 66.3647 67.4759C66.6166 67.3864 66.8337 67.2538 67.016 67.0781C67.1983 66.8991 67.3391 66.6771 67.4386 66.4119L68.5721 66.7301C68.4528 67.1146 68.2522 67.4527 67.9705 67.7443C67.6888 68.0327 67.3408 68.258 66.9265 68.4205C66.5122 68.5795 66.0465 68.6591 65.5295 68.6591ZM77.0785 59.8295L75.5273 57.5227H76.8995L78.1126 59.8295H77.0785ZM81.5318 68.5V58.3182H84.9721C85.7709 58.3182 86.4238 58.4624 86.9309 58.7507C87.4413 59.0357 87.8192 59.4219 88.0645 59.9091C88.3097 60.3963 88.4324 60.9399 88.4324 61.5398C88.4324 62.1397 88.3097 62.6849 88.0645 63.1754C87.8225 63.666 87.448 64.0571 86.9409 64.3487C86.4338 64.6371 85.7842 64.7812 84.992 64.7812H82.5261V63.6875H84.9522C85.4991 63.6875 85.9383 63.593 86.2697 63.4041C86.6011 63.2152 86.8414 62.96 86.9906 62.6385C87.1431 62.3137 87.2193 61.9474 87.2193 61.5398C87.2193 61.1321 87.1431 60.7675 86.9906 60.446C86.8414 60.1245 86.5995 59.8726 86.2647 59.6903C85.93 59.5047 85.4859 59.4119 84.9324 59.4119H82.7647V68.5H81.5318ZM93.2797 68.6591C92.5903 68.6591 91.9854 68.495 91.465 68.1669C90.948 67.8388 90.5436 67.3797 90.252 66.7898C89.9636 66.1998 89.8194 65.5104 89.8194 64.7216C89.8194 63.9261 89.9636 63.2318 90.252 62.6385C90.5436 62.0452 90.948 61.5845 91.465 61.2564C91.9854 60.9283 92.5903 60.7642 93.2797 60.7642C93.969 60.7642 94.5723 60.9283 95.0893 61.2564C95.6097 61.5845 96.014 62.0452 96.3024 62.6385C96.594 63.2318 96.7399 63.9261 96.7399 64.7216C96.7399 65.5104 96.594 66.1998 96.3024 66.7898C96.014 67.3797 95.6097 67.8388 95.0893 68.1669C94.5723 68.495 93.969 68.6591 93.2797 68.6591ZM93.2797 67.6051C93.8033 67.6051 94.2342 67.4709 94.5723 67.2024C94.9103 66.9339 95.1606 66.581 95.323 66.1435C95.4854 65.706 95.5666 65.232 95.5666 64.7216C95.5666 64.2112 95.4854 63.7356 95.323 63.2947C95.1606 62.8539 94.9103 62.4976 94.5723 62.2259C94.2342 61.9541 93.8033 61.8182 93.2797 61.8182C92.756 61.8182 92.3251 61.9541 91.987 62.2259C91.649 62.4976 91.3987 62.8539 91.2363 63.2947C91.0739 63.7356 90.9927 64.2112 90.9927 64.7216C90.9927 65.232 91.0739 65.706 91.2363 66.1435C91.3987 66.581 91.649 66.9339 91.987 67.2024C92.3251 67.4709 92.756 67.6051 93.2797 67.6051ZM98.5309 71.3636V60.8636H99.6644V62.0767H99.8036C99.8898 61.9441 100.009 61.7751 100.162 61.5696C100.317 61.3608 100.539 61.1752 100.828 61.0128C101.119 60.8471 101.514 60.7642 102.011 60.7642C102.654 60.7642 103.221 60.925 103.711 61.2464C104.202 61.5679 104.585 62.0237 104.86 62.6136C105.135 63.2036 105.272 63.8996 105.272 64.7017C105.272 65.5104 105.135 66.2114 104.86 66.8047C104.585 67.3946 104.203 67.852 103.716 68.1768C103.229 68.4983 102.667 68.6591 102.031 68.6591C101.54 68.6591 101.148 68.5779 100.853 68.4155C100.558 68.2498 100.331 68.0625 100.172 67.8537C100.012 67.6416 99.8898 67.4659 99.8036 67.3267H99.7042V71.3636H98.5309ZM99.6843 64.6818C99.6843 65.2585 99.7688 65.7673 99.9379 66.2081C100.107 66.6456 100.354 66.9886 100.679 67.2372C101.003 67.4825 101.401 67.6051 101.872 67.6051C102.362 67.6051 102.772 67.4759 103.1 67.2173C103.431 66.9555 103.68 66.6042 103.846 66.1634C104.015 65.7192 104.099 65.2254 104.099 64.6818C104.099 64.1449 104.016 63.661 103.85 63.2301C103.688 62.7959 103.441 62.4529 103.11 62.201C102.782 61.9458 102.369 61.8182 101.872 61.8182C101.395 61.8182 100.993 61.9392 100.669 62.1811C100.344 62.4197 100.099 62.7545 99.9329 63.1854C99.7672 63.6129 99.6843 64.1117 99.6843 64.6818ZM110.164 68.6591C109.475 68.6591 108.87 68.495 108.35 68.1669C107.833 67.8388 107.428 67.3797 107.137 66.7898C106.848 66.1998 106.704 65.5104 106.704 64.7216C106.704 63.9261 106.848 63.2318 107.137 62.6385C107.428 62.0452 107.833 61.5845 108.35 61.2564C108.87 60.9283 109.475 60.7642 110.164 60.7642C110.854 60.7642 111.457 60.9283 111.974 61.2564C112.494 61.5845 112.899 62.0452 113.187 62.6385C113.479 63.2318 113.625 63.9261 113.625 64.7216C113.625 65.5104 113.479 66.1998 113.187 66.7898C112.899 67.3797 112.494 67.8388 111.974 68.1669C111.457 68.495 110.854 68.6591 110.164 68.6591ZM110.164 67.6051C110.688 67.6051 111.119 67.4709 111.457 67.2024C111.795 66.9339 112.045 66.581 112.208 66.1435C112.37 65.706 112.451 65.232 112.451 64.7216C112.451 64.2112 112.37 63.7356 112.208 63.2947C112.045 62.8539 111.795 62.4976 111.457 62.2259C111.119 61.9541 110.688 61.8182 110.164 61.8182C109.641 61.8182 109.21 61.9541 108.872 62.2259C108.534 62.4976 108.283 62.8539 108.121 63.2947C107.959 63.7356 107.877 64.2112 107.877 64.7216C107.877 65.232 107.959 65.706 108.121 66.1435C108.283 66.581 108.534 66.9339 108.872 67.2024C109.21 67.4709 109.641 67.6051 110.164 67.6051ZM121.387 60.8636L118.563 68.5H117.369L114.546 60.8636H115.818L117.926 66.9489H118.006L120.114 60.8636H121.387ZM125.863 68.6591C125.128 68.6591 124.493 68.4967 123.959 68.1719C123.429 67.8438 123.02 67.3864 122.731 66.7997C122.446 66.2098 122.304 65.5237 122.304 64.7415C122.304 63.9593 122.446 63.2699 122.731 62.6733C123.02 62.0734 123.421 61.6061 123.934 61.2713C124.452 60.9332 125.055 60.7642 125.744 60.7642C126.142 60.7642 126.535 60.8305 126.922 60.9631C127.31 61.0956 127.663 61.3111 127.981 61.6094C128.3 61.9044 128.553 62.2955 128.742 62.7827C128.931 63.2699 129.025 63.8698 129.025 64.5824V65.0795H123.139V64.0653H127.832C127.832 63.6345 127.746 63.25 127.574 62.9119C127.405 62.5739 127.163 62.3071 126.848 62.1115C126.536 61.916 126.168 61.8182 125.744 61.8182C125.277 61.8182 124.872 61.9342 124.531 62.1662C124.193 62.3949 123.933 62.6932 123.751 63.0611C123.568 63.429 123.477 63.8234 123.477 64.2443V64.9205C123.477 65.4972 123.577 65.986 123.775 66.3871C123.978 66.7848 124.258 67.0881 124.616 67.2969C124.974 67.5024 125.39 67.6051 125.863 67.6051C126.172 67.6051 126.45 67.562 126.699 67.4759C126.951 67.3864 127.168 67.2538 127.35 67.0781C127.532 66.8991 127.673 66.6771 127.773 66.4119L128.906 66.7301C128.787 67.1146 128.586 67.4527 128.305 67.7443C128.023 68.0327 127.675 68.258 127.26 68.4205C126.846 68.5795 126.381 68.6591 125.863 68.6591ZM130.81 68.5V60.8636H131.944V62.017H132.023C132.162 61.6392 132.414 61.3326 132.779 61.0973C133.144 60.862 133.555 60.7443 134.012 60.7443C134.098 60.7443 134.206 60.746 134.335 60.7493C134.464 60.7526 134.562 60.7576 134.628 60.7642V61.9574C134.589 61.9474 134.497 61.9325 134.355 61.9126C134.216 61.8894 134.068 61.8778 133.912 61.8778C133.541 61.8778 133.21 61.9557 132.918 62.1115C132.63 62.264 132.401 62.4761 132.232 62.7479C132.066 63.0163 131.983 63.3229 131.983 63.6676V68.5H130.81ZM138.684 59.8295L137.133 57.5227H138.505L139.718 59.8295H138.684ZM150.018 68.6591C149.302 68.6591 148.686 68.4901 148.169 68.152C147.651 67.8139 147.254 67.3482 146.975 66.755C146.697 66.1617 146.558 65.4839 146.558 64.7216C146.558 63.946 146.7 63.2616 146.985 62.6683C147.274 62.0717 147.675 61.6061 148.188 61.2713C148.705 60.9332 149.309 60.7642 149.998 60.7642C150.535 60.7642 151.019 60.8636 151.45 61.0625C151.881 61.2614 152.234 61.5398 152.509 61.8977C152.784 62.2557 152.954 62.6733 153.021 63.1506H151.847C151.758 62.8026 151.559 62.4943 151.251 62.2259C150.946 61.9541 150.535 61.8182 150.018 61.8182C149.561 61.8182 149.16 61.9375 148.815 62.1761C148.473 62.4115 148.207 62.7446 148.014 63.1754C147.825 63.603 147.731 64.1051 147.731 64.6818C147.731 65.2718 147.824 65.7855 148.009 66.223C148.198 66.6605 148.463 67.0002 148.805 67.2422C149.15 67.4841 149.554 67.6051 150.018 67.6051C150.323 67.6051 150.6 67.5521 150.848 67.446C151.097 67.34 151.307 67.1875 151.48 66.9886C151.652 66.7898 151.775 66.5511 151.847 66.2727H153.021C152.954 66.7235 152.79 67.1295 152.529 67.4908C152.27 67.8487 151.927 68.1338 151.499 68.3459C151.075 68.5547 150.581 68.6591 150.018 68.6591ZM156.983 68.679C156.499 68.679 156.06 68.5878 155.666 68.4055C155.271 68.2199 154.958 67.9531 154.726 67.6051C154.494 67.2538 154.378 66.8295 154.378 66.3324C154.378 65.8949 154.464 65.5402 154.637 65.2685C154.809 64.9934 155.039 64.7779 155.328 64.6222C155.616 64.4664 155.934 64.3504 156.282 64.2741C156.633 64.1946 156.986 64.1316 157.341 64.0852C157.805 64.0256 158.181 63.9808 158.47 63.951C158.761 63.9179 158.973 63.8632 159.106 63.7869C159.242 63.7107 159.31 63.5781 159.31 63.3892V63.3494C159.31 62.8589 159.176 62.4777 158.907 62.206C158.642 61.9342 158.239 61.7983 157.699 61.7983C157.139 61.7983 156.7 61.9209 156.382 62.1662C156.063 62.4115 155.84 62.6733 155.71 62.9517L154.597 62.554C154.796 62.09 155.061 61.7287 155.392 61.4702C155.727 61.2083 156.092 61.026 156.486 60.9233C156.884 60.8172 157.275 60.7642 157.659 60.7642C157.905 60.7642 158.186 60.794 158.504 60.8537C158.826 60.91 159.136 61.0277 159.434 61.2067C159.736 61.3857 159.986 61.6558 160.185 62.017C160.384 62.3783 160.483 62.8622 160.483 63.4688V68.5H159.31V67.4659H159.25C159.171 67.6316 159.038 67.8089 158.852 67.9979C158.667 68.1868 158.42 68.3475 158.112 68.4801C157.803 68.6127 157.427 68.679 156.983 68.679ZM157.162 67.625C157.626 67.625 158.017 67.5339 158.335 67.3516C158.657 67.1693 158.899 66.9339 159.061 66.6456C159.227 66.3572 159.31 66.054 159.31 65.7358V64.6619C159.26 64.7216 159.151 64.7763 158.982 64.826C158.816 64.8724 158.624 64.9138 158.405 64.9503C158.19 64.9834 157.979 65.0133 157.774 65.0398C157.571 65.063 157.407 65.0829 157.281 65.0994C156.977 65.1392 156.691 65.2038 156.426 65.2933C156.164 65.3795 155.952 65.5104 155.79 65.6861C155.631 65.8584 155.551 66.0937 155.551 66.392C155.551 66.7997 155.702 67.108 156.004 67.3168C156.309 67.5223 156.695 67.625 157.162 67.625ZM163.798 63.9062V68.5H162.625V60.8636H163.758V62.0568H163.858C164.037 61.669 164.308 61.3575 164.673 61.1222C165.038 60.8835 165.508 60.7642 166.085 60.7642C166.602 60.7642 167.054 60.8703 167.442 61.0824C167.83 61.2912 168.132 61.6094 168.347 62.0369C168.562 62.4612 168.67 62.9981 168.67 63.6477V68.5H167.497V63.7273C167.497 63.1274 167.341 62.66 167.029 62.3253C166.718 61.9872 166.29 61.8182 165.747 61.8182C165.372 61.8182 165.038 61.8994 164.743 62.0618C164.451 62.2242 164.221 62.4612 164.051 62.7727C163.882 63.0843 163.798 63.4621 163.798 63.9062ZM177.635 68.6591C176.999 68.6591 176.437 68.4983 175.95 68.1768C175.463 67.852 175.081 67.3946 174.806 66.8047C174.531 66.2114 174.394 65.5104 174.394 64.7017C174.394 63.8996 174.531 63.2036 174.806 62.6136C175.081 62.0237 175.464 61.5679 175.955 61.2464C176.445 60.925 177.012 60.7642 177.655 60.7642C178.152 60.7642 178.545 60.8471 178.833 61.0128C179.125 61.1752 179.347 61.3608 179.499 61.5696C179.655 61.7751 179.776 61.9441 179.862 62.0767H179.962V58.3182H181.135V68.5H180.002V67.3267H179.862C179.776 67.4659 179.654 67.6416 179.494 67.8537C179.335 68.0625 179.108 68.2498 178.813 68.4155C178.518 68.5779 178.126 68.6591 177.635 68.6591ZM177.794 67.6051C178.265 67.6051 178.663 67.4825 178.987 67.2372C179.312 66.9886 179.559 66.6456 179.728 66.2081C179.897 65.7673 179.982 65.2585 179.982 64.6818C179.982 64.1117 179.899 63.6129 179.733 63.1854C179.567 62.7545 179.322 62.4197 178.997 62.1811C178.673 61.9392 178.271 61.8182 177.794 61.8182C177.297 61.8182 176.883 61.9458 176.551 62.201C176.223 62.4529 175.976 62.7959 175.811 63.2301C175.648 63.661 175.567 64.1449 175.567 64.6818C175.567 65.2254 175.65 65.7192 175.816 66.1634C175.985 66.6042 176.233 66.9555 176.561 67.2173C176.893 67.4759 177.304 67.6051 177.794 67.6051ZM183.447 68.5V60.8636H184.62V68.5H183.447ZM184.044 59.5909C183.815 59.5909 183.618 59.513 183.452 59.3572C183.289 59.2015 183.208 59.0142 183.208 58.7955C183.208 58.5767 183.289 58.3894 183.452 58.2337C183.618 58.0779 183.815 58 184.044 58C184.272 58 184.468 58.0779 184.63 58.2337C184.796 58.3894 184.879 58.5767 184.879 58.7955C184.879 59.0142 184.796 59.2015 184.63 59.3572C184.468 59.513 184.272 59.5909 184.044 59.5909ZM192.178 62.5739L191.124 62.8722C191.058 62.6965 190.96 62.5258 190.831 62.3601C190.705 62.1911 190.533 62.0518 190.314 61.9425C190.095 61.8331 189.815 61.7784 189.474 61.7784C189.006 61.7784 188.617 61.8861 188.305 62.1016C187.997 62.3137 187.843 62.5838 187.843 62.9119C187.843 63.2036 187.949 63.4339 188.161 63.603C188.373 63.772 188.705 63.9129 189.156 64.0256L190.289 64.304C190.972 64.4697 191.481 64.7232 191.815 65.0646C192.15 65.4027 192.317 65.8385 192.317 66.3722C192.317 66.8097 192.192 67.2008 191.94 67.5455C191.691 67.8902 191.343 68.1619 190.896 68.3608C190.448 68.5597 189.928 68.6591 189.335 68.6591C188.556 68.6591 187.911 68.4901 187.401 68.152C186.89 67.8139 186.567 67.3201 186.431 66.6705L187.545 66.392C187.651 66.803 187.851 67.1113 188.146 67.3168C188.445 67.5223 188.834 67.625 189.315 67.625C189.862 67.625 190.296 67.509 190.617 67.277C190.942 67.0417 191.104 66.7599 191.104 66.4318C191.104 66.1667 191.012 65.9446 190.826 65.7656C190.64 65.5833 190.355 65.4474 189.971 65.358L188.698 65.0597C187.999 64.8939 187.485 64.6371 187.157 64.2891C186.832 63.9377 186.67 63.4986 186.67 62.9716C186.67 62.5407 186.791 62.1596 187.033 61.8281C187.278 61.4967 187.611 61.2365 188.032 61.0476C188.456 60.8587 188.937 60.7642 189.474 60.7642C190.229 60.7642 190.823 60.9299 191.254 61.2614C191.688 61.5928 191.996 62.0303 192.178 62.5739ZM194.084 71.3636V60.8636H195.217V62.0767H195.356C195.443 61.9441 195.562 61.7751 195.714 61.5696C195.87 61.3608 196.092 61.1752 196.381 61.0128C196.672 60.8471 197.067 60.7642 197.564 60.7642C198.207 60.7642 198.773 60.925 199.264 61.2464C199.755 61.5679 200.137 62.0237 200.412 62.6136C200.688 63.2036 200.825 63.8996 200.825 64.7017C200.825 65.5104 200.688 66.2114 200.412 66.8047C200.137 67.3946 199.756 67.852 199.269 68.1768C198.782 68.4983 198.22 68.6591 197.584 68.6591C197.093 68.6591 196.7 68.5779 196.405 68.4155C196.11 68.2498 195.883 68.0625 195.724 67.8537C195.565 67.6416 195.443 67.4659 195.356 67.3267H195.257V71.3636H194.084ZM195.237 64.6818C195.237 65.2585 195.322 65.7673 195.491 66.2081C195.66 66.6456 195.907 66.9886 196.231 67.2372C196.556 67.4825 196.954 67.6051 197.425 67.6051C197.915 67.6051 198.324 67.4759 198.653 67.2173C198.984 66.9555 199.233 66.6042 199.398 66.1634C199.567 65.7192 199.652 65.2254 199.652 64.6818C199.652 64.1449 199.569 63.661 199.403 63.2301C199.241 62.7959 198.994 62.4529 198.662 62.201C198.334 61.9458 197.922 61.8182 197.425 61.8182C196.947 61.8182 196.546 61.9392 196.221 62.1811C195.897 62.4197 195.651 62.7545 195.486 63.1854C195.32 63.6129 195.237 64.1117 195.237 64.6818ZM203.788 58.3182V68.5H202.615V58.3182H203.788ZM208.184 68.679C207.7 68.679 207.261 68.5878 206.867 68.4055C206.472 68.2199 206.159 67.9531 205.927 67.6051C205.695 67.2538 205.579 66.8295 205.579 66.3324C205.579 65.8949 205.665 65.5402 205.838 65.2685C206.01 64.9934 206.24 64.7779 206.529 64.6222C206.817 64.4664 207.135 64.3504 207.483 64.2741C207.835 64.1946 208.188 64.1316 208.542 64.0852C209.006 64.0256 209.382 63.9808 209.671 63.951C209.962 63.9179 210.175 63.8632 210.307 63.7869C210.443 63.7107 210.511 63.5781 210.511 63.3892V63.3494C210.511 62.8589 210.377 62.4777 210.108 62.206C209.843 61.9342 209.44 61.7983 208.9 61.7983C208.34 61.7983 207.901 61.9209 207.583 62.1662C207.265 62.4115 207.041 62.6733 206.912 62.9517L205.798 62.554C205.997 62.09 206.262 61.7287 206.593 61.4702C206.928 61.2083 207.293 61.026 207.687 60.9233C208.085 60.8172 208.476 60.7642 208.86 60.7642C209.106 60.7642 209.387 60.794 209.706 60.8537C210.027 60.91 210.337 61.0277 210.635 61.2067C210.937 61.3857 211.187 61.6558 211.386 62.017C211.585 62.3783 211.684 62.8622 211.684 63.4688V68.5H210.511V67.4659H210.451C210.372 67.6316 210.239 67.8089 210.054 67.9979C209.868 68.1868 209.621 68.3475 209.313 68.4801C209.005 68.6127 208.628 68.679 208.184 68.679ZM208.363 67.625C208.827 67.625 209.218 67.5339 209.537 67.3516C209.858 67.1693 210.1 66.9339 210.262 66.6456C210.428 66.3572 210.511 66.054 210.511 65.7358V64.6619C210.461 64.7216 210.352 64.7763 210.183 64.826C210.017 64.8724 209.825 64.9138 209.606 64.9503C209.391 64.9834 209.18 65.0133 208.975 65.0398C208.773 65.063 208.609 65.0829 208.483 65.0994C208.178 65.1392 207.893 65.2038 207.627 65.2933C207.366 65.3795 207.154 65.5104 206.991 65.6861C206.832 65.8584 206.752 66.0937 206.752 66.392C206.752 66.7997 206.903 67.108 207.205 67.3168C207.51 67.5223 207.896 67.625 208.363 67.625ZM214.308 71.3636C214.109 71.3636 213.932 71.3471 213.776 71.3139C213.62 71.2841 213.513 71.2543 213.453 71.2244L213.751 70.1903C214.036 70.2633 214.288 70.2898 214.507 70.2699C214.726 70.25 214.92 70.1522 215.089 69.9766C215.261 69.8042 215.418 69.5241 215.561 69.1364L215.78 68.5398L212.956 60.8636H214.229L216.336 66.9489H216.416L218.524 60.8636H219.797L216.555 69.6136C216.409 70.008 216.229 70.3345 216.013 70.593C215.798 70.8549 215.548 71.0488 215.263 71.1747C214.981 71.3007 214.663 71.3636 214.308 71.3636ZM227.53 68.679C227.046 68.679 226.607 68.5878 226.213 68.4055C225.818 68.2199 225.505 67.9531 225.273 67.6051C225.041 67.2538 224.925 66.8295 224.925 66.3324C224.925 65.8949 225.011 65.5402 225.183 65.2685C225.356 64.9934 225.586 64.7779 225.874 64.6222C226.163 64.4664 226.481 64.3504 226.829 64.2741C227.18 64.1946 227.533 64.1316 227.888 64.0852C228.352 64.0256 228.728 63.9808 229.017 63.951C229.308 63.9179 229.52 63.8632 229.653 63.7869C229.789 63.7107 229.857 63.5781 229.857 63.3892V63.3494C229.857 62.8589 229.722 62.4777 229.454 62.206C229.189 61.9342 228.786 61.7983 228.246 61.7983C227.686 61.7983 227.247 61.9209 226.928 62.1662C226.61 62.4115 226.387 62.6733 226.257 62.9517L225.144 62.554C225.343 62.09 225.608 61.7287 225.939 61.4702C226.274 61.2083 226.638 61.026 227.033 60.9233C227.431 60.8172 227.822 60.7642 228.206 60.7642C228.451 60.7642 228.733 60.794 229.051 60.8537C229.373 60.91 229.683 61.0277 229.981 61.2067C230.283 61.3857 230.533 61.6558 230.732 62.017C230.931 62.3783 231.03 62.8622 231.03 63.4688V68.5H229.857V67.4659H229.797C229.718 67.6316 229.585 67.8089 229.399 67.9979C229.214 68.1868 228.967 68.3475 228.659 68.4801C228.35 68.6127 227.974 68.679 227.53 68.679ZM227.709 67.625C228.173 67.625 228.564 67.5339 228.882 67.3516C229.204 67.1693 229.446 66.9339 229.608 66.6456C229.774 66.3572 229.857 66.054 229.857 65.7358V64.6619C229.807 64.7216 229.698 64.7763 229.529 64.826C229.363 64.8724 229.171 64.9138 228.952 64.9503C228.736 64.9834 228.526 65.0133 228.32 65.0398C228.118 65.063 227.954 65.0829 227.828 65.0994C227.523 65.1392 227.238 65.2038 226.973 65.2933C226.711 65.3795 226.499 65.5104 226.337 65.6861C226.178 65.8584 226.098 66.0937 226.098 66.392C226.098 66.7997 226.249 67.108 226.551 67.3168C226.856 67.5223 227.242 67.625 227.709 67.625ZM234.345 63.9062V68.5H233.172V60.8636H234.305V62.0568H234.404C234.583 61.669 234.855 61.3575 235.22 61.1222C235.584 60.8835 236.055 60.7642 236.632 60.7642C237.149 60.7642 237.601 60.8703 237.989 61.0824C238.377 61.2912 238.678 61.6094 238.894 62.0369C239.109 62.4612 239.217 62.9981 239.217 63.6477V68.5H238.044V63.7273C238.044 63.1274 237.888 62.66 237.576 62.3253C237.265 61.9872 236.837 61.8182 236.294 61.8182C235.919 61.8182 235.584 61.8994 235.289 62.0618C234.998 62.2242 234.767 62.4612 234.598 62.7727C234.429 63.0843 234.345 63.4621 234.345 63.9062ZM241.843 71.3636C241.644 71.3636 241.467 71.3471 241.311 71.3139C241.155 71.2841 241.048 71.2543 240.988 71.2244L241.286 70.1903C241.571 70.2633 241.823 70.2898 242.042 70.2699C242.261 70.25 242.455 70.1522 242.624 69.9766C242.796 69.8042 242.954 69.5241 243.096 69.1364L243.315 68.5398L240.491 60.8636H241.764L243.872 66.9489H243.951L246.059 60.8636H247.332L244.09 69.6136C243.945 70.008 243.764 70.3345 243.548 70.593C243.333 70.8549 243.083 71.0488 242.798 71.1747C242.516 71.3007 242.198 71.3636 241.843 71.3636ZM256.139 60.8636V61.858H252.182V60.8636H256.139ZM253.335 59.0341H254.508V66.3125C254.508 66.6439 254.556 66.8925 254.653 67.0582C254.752 67.2206 254.878 67.33 255.03 67.3864C255.186 67.4394 255.35 67.4659 255.523 67.4659C255.652 67.4659 255.758 67.4593 255.841 67.446C255.924 67.4295 255.99 67.4162 256.04 67.4062L256.278 68.4602C256.199 68.4901 256.088 68.5199 255.945 68.5497C255.803 68.5829 255.622 68.5994 255.403 68.5994C255.072 68.5994 254.747 68.5282 254.429 68.3857C254.114 68.2431 253.852 68.026 253.643 67.7344C253.438 67.4427 253.335 67.0748 253.335 66.6307V59.0341ZM258.66 71.3636C258.461 71.3636 258.283 71.3471 258.128 71.3139C257.972 71.2841 257.864 71.2543 257.805 71.2244L258.103 70.1903C258.388 70.2633 258.64 70.2898 258.858 70.2699C259.077 70.25 259.271 70.1522 259.44 69.9766C259.613 69.8042 259.77 69.5241 259.912 69.1364L260.131 68.5398L257.307 60.8636H258.58L260.688 66.9489H260.768L262.876 60.8636H264.148L260.907 69.6136C260.761 70.008 260.58 70.3345 260.365 70.593C260.149 70.8549 259.899 71.0488 259.614 71.1747C259.332 71.3007 259.014 71.3636 258.66 71.3636ZM265.697 71.3636V60.8636H266.83V62.0767H266.97C267.056 61.9441 267.175 61.7751 267.328 61.5696C267.483 61.3608 267.705 61.1752 267.994 61.0128C268.285 60.8471 268.68 60.7642 269.177 60.7642C269.82 60.7642 270.387 60.925 270.877 61.2464C271.368 61.5679 271.751 62.0237 272.026 62.6136C272.301 63.2036 272.438 63.8996 272.438 64.7017C272.438 65.5104 272.301 66.2114 272.026 66.8047C271.751 67.3946 271.369 67.852 270.882 68.1768C270.395 68.4983 269.833 68.6591 269.197 68.6591C268.706 68.6591 268.314 68.5779 268.019 68.4155C267.724 68.2498 267.497 68.0625 267.338 67.8537C267.178 67.6416 267.056 67.4659 266.97 67.3267H266.87V71.3636H265.697ZM266.85 64.6818C266.85 65.2585 266.935 65.7673 267.104 66.2081C267.273 66.6456 267.52 66.9886 267.845 67.2372C268.169 67.4825 268.567 67.6051 269.038 67.6051C269.528 67.6051 269.938 67.4759 270.266 67.2173C270.597 66.9555 270.846 66.6042 271.012 66.1634C271.181 65.7192 271.265 65.2254 271.265 64.6818C271.265 64.1449 271.182 63.661 271.017 63.2301C270.854 62.7959 270.607 62.4529 270.276 62.201C269.948 61.9458 269.535 61.8182 269.038 61.8182C268.561 61.8182 268.16 61.9392 267.835 62.1811C267.51 62.4197 267.265 62.7545 267.099 63.1854C266.933 63.6129 266.85 64.1117 266.85 64.6818ZM277.43 68.6591C276.694 68.6591 276.059 68.4967 275.526 68.1719C274.995 67.8438 274.586 67.3864 274.298 66.7997C274.013 66.2098 273.87 65.5237 273.87 64.7415C273.87 63.9593 274.013 63.2699 274.298 62.6733C274.586 62.0734 274.987 61.6061 275.501 61.2713C276.018 60.9332 276.621 60.7642 277.311 60.7642C277.708 60.7642 278.101 60.8305 278.489 60.9631C278.877 61.0956 279.23 61.3111 279.548 61.6094C279.866 61.9044 280.119 62.2955 280.308 62.7827C280.497 63.2699 280.592 63.8698 280.592 64.5824V65.0795H274.705V64.0653H279.399C279.399 63.6345 279.312 63.25 279.14 62.9119C278.971 62.5739 278.729 62.3071 278.414 62.1115C278.103 61.916 277.735 61.8182 277.311 61.8182C276.843 61.8182 276.439 61.9342 276.097 62.1662C275.759 62.3949 275.499 62.6932 275.317 63.0611C275.135 63.429 275.044 63.8234 275.044 64.2443V64.9205C275.044 65.4972 275.143 65.986 275.342 66.3871C275.544 66.7848 275.824 67.0881 276.182 67.2969C276.54 67.5024 276.956 67.6051 277.43 67.6051C277.738 67.6051 278.017 67.562 278.265 67.4759C278.517 67.3864 278.734 67.2538 278.916 67.0781C279.099 66.8991 279.24 66.6771 279.339 66.4119L280.472 66.7301C280.353 67.1146 280.153 67.4527 279.871 67.7443C279.589 68.0327 279.241 68.258 278.827 68.4205C278.413 68.5795 277.947 68.6591 277.43 68.6591ZM289.416 68.6591C288.727 68.6591 288.122 68.495 287.602 68.1669C287.085 67.8388 286.68 67.3797 286.389 66.7898C286.1 66.1998 285.956 65.5104 285.956 64.7216C285.956 63.9261 286.1 63.2318 286.389 62.6385C286.68 62.0452 287.085 61.5845 287.602 61.2564C288.122 60.9283 288.727 60.7642 289.416 60.7642C290.106 60.7642 290.709 60.9283 291.226 61.2564C291.746 61.5845 292.151 62.0452 292.439 62.6385C292.731 63.2318 292.877 63.9261 292.877 64.7216C292.877 65.5104 292.731 66.1998 292.439 66.7898C292.151 67.3797 291.746 67.8388 291.226 68.1669C290.709 68.495 290.106 68.6591 289.416 68.6591ZM289.416 67.6051C289.94 67.6051 290.371 67.4709 290.709 67.2024C291.047 66.9339 291.297 66.581 291.46 66.1435C291.622 65.706 291.703 65.232 291.703 64.7216C291.703 64.2112 291.622 63.7356 291.46 63.2947C291.297 62.8539 291.047 62.4976 290.709 62.2259C290.371 61.9541 289.94 61.8182 289.416 61.8182C288.893 61.8182 288.462 61.9541 288.124 62.2259C287.786 62.4976 287.535 62.8539 287.373 63.2947C287.211 63.7356 287.129 64.2112 287.129 64.7216C287.129 65.232 287.211 65.706 287.373 66.1435C287.535 66.581 287.786 66.9339 288.124 67.2024C288.462 67.4709 288.893 67.6051 289.416 67.6051ZM298.068 60.8636V61.858H293.952V60.8636H298.068ZM295.185 68.5V59.8097C295.185 59.3722 295.287 59.0076 295.493 58.7159C295.698 58.4242 295.965 58.2055 296.293 58.0597C296.621 57.9138 296.968 57.8409 297.332 57.8409C297.621 57.8409 297.856 57.8641 298.038 57.9105C298.221 57.9569 298.357 58 298.446 58.0398L298.108 59.054C298.048 59.0341 297.965 59.0092 297.859 58.9794C297.757 58.9496 297.621 58.9347 297.452 58.9347C297.064 58.9347 296.784 59.0324 296.612 59.228C296.442 59.4235 296.358 59.7102 296.358 60.0881V68.5H295.185ZM306.852 68.6591C306.116 68.6591 305.481 68.4967 304.948 68.1719C304.417 67.8438 304.008 67.3864 303.72 66.7997C303.435 66.2098 303.292 65.5237 303.292 64.7415C303.292 63.9593 303.435 63.2699 303.72 62.6733C304.008 62.0734 304.409 61.6061 304.923 61.2713C305.44 60.9332 306.043 60.7642 306.732 60.7642C307.13 60.7642 307.523 60.8305 307.911 60.9631C308.298 61.0956 308.651 61.3111 308.97 61.6094C309.288 61.9044 309.541 62.2955 309.73 62.7827C309.919 63.2699 310.014 63.8698 310.014 64.5824V65.0795H304.127V64.0653H308.82C308.82 63.6345 308.734 63.25 308.562 62.9119C308.393 62.5739 308.151 62.3071 307.836 62.1115C307.525 61.916 307.157 61.8182 306.732 61.8182C306.265 61.8182 305.861 61.9342 305.519 62.1662C305.181 62.3949 304.921 62.6932 304.739 63.0611C304.557 63.429 304.465 63.8234 304.465 64.2443V64.9205C304.465 65.4972 304.565 65.986 304.764 66.3871C304.966 66.7848 305.246 67.0881 305.604 67.2969C305.962 67.5024 306.378 67.6051 306.852 67.6051C307.16 67.6051 307.438 67.562 307.687 67.4759C307.939 67.3864 308.156 67.2538 308.338 67.0781C308.521 66.8991 308.661 66.6771 308.761 66.4119L309.894 66.7301C309.775 67.1146 309.575 67.4527 309.293 67.7443C309.011 68.0327 308.663 68.258 308.249 68.4205C307.834 68.5795 307.369 68.6591 306.852 68.6591ZM312.972 58.3182V68.5H311.798V58.3182H312.972ZM318.322 68.6591C317.587 68.6591 316.952 68.4967 316.418 68.1719C315.888 67.8438 315.479 67.3864 315.19 66.7997C314.905 66.2098 314.763 65.5237 314.763 64.7415C314.763 63.9593 314.905 63.2699 315.19 62.6733C315.479 62.0734 315.88 61.6061 316.393 61.2713C316.911 60.9332 317.514 60.7642 318.203 60.7642C318.601 60.7642 318.994 60.8305 319.381 60.9631C319.769 61.0956 320.122 61.3111 320.44 61.6094C320.759 61.9044 321.012 62.2955 321.201 62.7827C321.39 63.2699 321.484 63.8698 321.484 64.5824V65.0795H315.598V64.0653H320.291C320.291 63.6345 320.205 63.25 320.033 62.9119C319.864 62.5739 319.622 62.3071 319.307 62.1115C318.995 61.916 318.627 61.8182 318.203 61.8182C317.736 61.8182 317.331 61.9342 316.99 62.1662C316.652 62.3949 316.392 62.6932 316.21 63.0611C316.027 63.429 315.936 63.8234 315.936 64.2443V64.9205C315.936 65.4972 316.036 65.986 316.234 66.3871C316.437 66.7848 316.717 67.0881 317.075 67.2969C317.433 67.5024 317.848 67.6051 318.322 67.6051C318.631 67.6051 318.909 67.562 319.158 67.4759C319.41 67.3864 319.627 67.2538 319.809 67.0781C319.991 66.8991 320.132 66.6771 320.232 66.4119L321.365 66.7301C321.246 67.1146 321.045 67.4527 320.763 67.7443C320.482 68.0327 320.134 68.258 319.719 68.4205C319.305 68.5795 318.839 68.6591 318.322 68.6591ZM323.269 68.5V60.8636H324.403V62.0568H324.502C324.661 61.6491 324.918 61.3326 325.273 61.1072C325.627 60.8786 326.053 60.7642 326.55 60.7642C327.054 60.7642 327.473 60.8786 327.808 61.1072C328.146 61.3326 328.41 61.6491 328.599 62.0568H328.678C328.874 61.6624 329.167 61.3492 329.558 61.1172C329.949 60.8819 330.418 60.7642 330.965 60.7642C331.648 60.7642 332.206 60.978 332.641 61.4055C333.075 61.8298 333.292 62.491 333.292 63.3892V68.5H332.119V63.3892C332.119 62.8258 331.964 62.4231 331.656 62.1811C331.348 61.9392 330.985 61.8182 330.567 61.8182C330.031 61.8182 329.615 61.9806 329.32 62.3054C329.025 62.6269 328.877 63.0346 328.877 63.5284V68.5H327.684V63.2699C327.684 62.8357 327.543 62.486 327.261 62.2209C326.98 61.9524 326.617 61.8182 326.173 61.8182C325.868 61.8182 325.583 61.8994 325.317 62.0618C325.056 62.2242 324.844 62.4496 324.681 62.7379C324.522 63.023 324.442 63.3527 324.442 63.7273V68.5H323.269ZM338.639 68.6591C337.903 68.6591 337.268 68.4967 336.735 68.1719C336.204 67.8438 335.795 67.3864 335.507 66.7997C335.222 66.2098 335.079 65.5237 335.079 64.7415C335.079 63.9593 335.222 63.2699 335.507 62.6733C335.795 62.0734 336.196 61.6061 336.71 61.2713C337.227 60.9332 337.83 60.7642 338.52 60.7642C338.917 60.7642 339.31 60.8305 339.698 60.9631C340.086 61.0956 340.439 61.3111 340.757 61.6094C341.075 61.9044 341.328 62.2955 341.517 62.7827C341.706 63.2699 341.801 63.8698 341.801 64.5824V65.0795H335.914V64.0653H340.608C340.608 63.6345 340.521 63.25 340.349 62.9119C340.18 62.5739 339.938 62.3071 339.623 62.1115C339.312 61.916 338.944 61.8182 338.52 61.8182C338.052 61.8182 337.648 61.9342 337.306 62.1662C336.968 62.3949 336.708 62.6932 336.526 63.0611C336.344 63.429 336.252 63.8234 336.252 64.2443V64.9205C336.252 65.4972 336.352 65.986 336.551 66.3871C336.753 66.7848 337.033 67.0881 337.391 67.2969C337.749 67.5024 338.165 67.6051 338.639 67.6051C338.947 67.6051 339.225 67.562 339.474 67.4759C339.726 67.3864 339.943 67.2538 340.125 67.0781C340.308 66.8991 340.449 66.6771 340.548 66.4119L341.681 66.7301C341.562 67.1146 341.362 67.4527 341.08 67.7443C340.798 68.0327 340.45 68.258 340.036 68.4205C339.622 68.5795 339.156 68.6591 338.639 68.6591ZM344.759 63.9062V68.5H343.586V60.8636H344.719V62.0568H344.819C344.998 61.669 345.269 61.3575 345.634 61.1222C345.998 60.8835 346.469 60.7642 347.046 60.7642C347.563 60.7642 348.015 60.8703 348.403 61.0824C348.791 61.2912 349.092 61.6094 349.308 62.0369C349.523 62.4612 349.631 62.9981 349.631 63.6477V68.5H348.458V63.7273C348.458 63.1274 348.302 62.66 347.99 62.3253C347.679 61.9872 347.251 61.8182 346.708 61.8182C346.333 61.8182 345.998 61.8994 345.703 62.0618C345.412 62.2242 345.181 62.4612 345.012 62.7727C344.843 63.0843 344.759 63.4621 344.759 63.9062ZM355.096 60.8636V61.858H351.139V60.8636H355.096ZM352.292 59.0341H353.465V66.3125C353.465 66.6439 353.513 66.8925 353.61 67.0582C353.709 67.2206 353.835 67.33 353.987 67.3864C354.143 67.4394 354.307 67.4659 354.48 67.4659C354.609 67.4659 354.715 67.4593 354.798 67.446C354.881 67.4295 354.947 67.4162 354.997 67.4062L355.235 68.4602C355.156 68.4901 355.045 68.5199 354.902 68.5497C354.76 68.5829 354.579 68.5994 354.36 68.5994C354.029 68.5994 353.704 68.5282 353.386 68.3857C353.071 68.2431 352.809 68.026 352.6 67.7344C352.395 67.4427 352.292 67.0748 352.292 66.6307V59.0341ZM363.046 68.679C362.562 68.679 362.123 68.5878 361.728 68.4055C361.334 68.2199 361.021 67.9531 360.789 67.6051C360.557 67.2538 360.441 66.8295 360.441 66.3324C360.441 65.8949 360.527 65.5402 360.699 65.2685C360.871 64.9934 361.102 64.7779 361.39 64.6222C361.678 64.4664 361.997 64.3504 362.345 64.2741C362.696 64.1946 363.049 64.1316 363.404 64.0852C363.868 64.0256 364.244 63.9808 364.532 63.951C364.824 63.9179 365.036 63.8632 365.169 63.7869C365.304 63.7107 365.372 63.5781 365.372 63.3892V63.3494C365.372 62.8589 365.238 62.4777 364.97 62.206C364.704 61.9342 364.302 61.7983 363.762 61.7983C363.201 61.7983 362.762 61.9209 362.444 62.1662C362.126 62.4115 361.902 62.6733 361.773 62.9517L360.659 62.554C360.858 62.09 361.123 61.7287 361.455 61.4702C361.789 61.2083 362.154 61.026 362.548 60.9233C362.946 60.8172 363.337 60.7642 363.722 60.7642C363.967 60.7642 364.249 60.794 364.567 60.8537C364.888 60.91 365.198 61.0277 365.497 61.2067C365.798 61.3857 366.048 61.6558 366.247 62.017C366.446 62.3783 366.546 62.8622 366.546 63.4688V68.5H365.372V67.4659H365.313C365.233 67.6316 365.101 67.8089 364.915 67.9979C364.729 68.1868 364.482 68.3475 364.174 68.4801C363.866 68.6127 363.49 68.679 363.046 68.679ZM363.225 67.625C363.689 67.625 364.08 67.5339 364.398 67.3516C364.719 67.1693 364.961 66.9339 365.124 66.6456C365.289 66.3572 365.372 66.054 365.372 65.7358V64.6619C365.323 64.7216 365.213 64.7763 365.044 64.826C364.878 64.8724 364.686 64.9138 364.468 64.9503C364.252 64.9834 364.042 65.0133 363.836 65.0398C363.634 65.063 363.47 65.0829 363.344 65.0994C363.039 65.1392 362.754 65.2038 362.489 65.2933C362.227 65.3795 362.015 65.5104 361.852 65.6861C361.693 65.8584 361.614 66.0937 361.614 66.392C361.614 66.7997 361.765 67.108 362.066 67.3168C362.371 67.5223 362.757 67.625 363.225 67.625ZM374.096 62.5739L373.042 62.8722C372.976 62.6965 372.878 62.5258 372.749 62.3601C372.623 62.1911 372.451 62.0518 372.232 61.9425C372.013 61.8331 371.733 61.7784 371.392 61.7784C370.924 61.7784 370.535 61.8861 370.223 62.1016C369.915 62.3137 369.761 62.5838 369.761 62.9119C369.761 63.2036 369.867 63.4339 370.079 63.603C370.291 63.772 370.623 63.9129 371.074 64.0256L372.207 64.304C372.89 64.4697 373.399 64.7232 373.733 65.0646C374.068 65.4027 374.235 65.8385 374.235 66.3722C374.235 66.8097 374.109 67.2008 373.858 67.5455C373.609 67.8902 373.261 68.1619 372.814 68.3608C372.366 68.5597 371.846 68.6591 371.252 68.6591C370.474 68.6591 369.829 68.4901 369.319 68.152C368.808 67.8139 368.485 67.3201 368.349 66.6705L369.463 66.392C369.569 66.803 369.769 67.1113 370.064 67.3168C370.363 67.5223 370.752 67.625 371.233 67.625C371.779 67.625 372.214 67.509 372.535 67.277C372.86 67.0417 373.022 66.7599 373.022 66.4318C373.022 66.1667 372.93 65.9446 372.744 65.7656C372.558 65.5833 372.273 65.4474 371.889 65.358L370.616 65.0597C369.917 64.8939 369.403 64.6371 369.075 64.2891C368.75 63.9377 368.588 63.4986 368.588 62.9716C368.588 62.5407 368.709 62.1596 368.951 61.8281C369.196 61.4967 369.529 61.2365 369.95 61.0476C370.374 60.8587 370.855 60.7642 371.392 60.7642C372.147 60.7642 372.741 60.9299 373.172 61.2614C373.606 61.5928 373.914 62.0303 374.096 62.5739ZM47.321 89.679C46.8371 89.679 46.398 89.5878 46.0036 89.4055C45.6091 89.2199 45.2959 88.9531 45.0639 88.6051C44.8319 88.2538 44.7159 87.8295 44.7159 87.3324C44.7159 86.8949 44.8021 86.5402 44.9744 86.2685C45.1468 85.9934 45.3771 85.7779 45.6655 85.6222C45.9538 85.4664 46.272 85.3504 46.62 85.2741C46.9714 85.1946 47.3243 85.1316 47.679 85.0852C48.143 85.0256 48.5192 84.9808 48.8075 84.951C49.0992 84.9179 49.3113 84.8632 49.4439 84.7869C49.5798 84.7107 49.6477 84.5781 49.6477 84.3892V84.3494C49.6477 83.8589 49.5135 83.4777 49.245 83.206C48.9799 82.9342 48.5772 82.7983 48.0369 82.7983C47.4768 82.7983 47.0376 82.9209 46.7195 83.1662C46.4013 83.4115 46.1776 83.6733 46.0483 83.9517L44.9347 83.554C45.1335 83.09 45.3987 82.7287 45.7301 82.4702C46.0649 82.2083 46.4295 82.026 46.8239 81.9233C47.2216 81.8172 47.6127 81.7642 47.9972 81.7642C48.2424 81.7642 48.5241 81.794 48.8423 81.8537C49.1638 81.91 49.4737 82.0277 49.772 82.2067C50.0736 82.3857 50.3239 82.6558 50.5227 83.017C50.7216 83.3783 50.821 83.8622 50.821 84.4688V89.5H49.6477V88.4659H49.5881C49.5085 88.6316 49.3759 88.8089 49.1903 88.9979C49.0047 89.1868 48.7578 89.3475 48.4496 89.4801C48.1413 89.6127 47.7652 89.679 47.321 89.679ZM47.5 88.625C47.964 88.625 48.3551 88.5339 48.6733 88.3516C48.9948 88.1693 49.2367 87.9339 49.3991 87.6456C49.5649 87.3572 49.6477 87.054 49.6477 86.7358V85.6619C49.598 85.7216 49.4886 85.7763 49.3196 85.826C49.1539 85.8724 48.9616 85.9138 48.7429 85.9503C48.5275 85.9834 48.317 86.0133 48.1115 86.0398C47.9093 86.063 47.7453 86.0829 47.6193 86.0994C47.3144 86.1392 47.0294 86.2038 46.7642 86.2933C46.5024 86.3795 46.2902 86.5104 46.1278 86.6861C45.9688 86.8584 45.8892 87.0937 45.8892 87.392C45.8892 87.7997 46.04 88.108 46.3416 88.3168C46.6465 88.5223 47.0327 88.625 47.5 88.625ZM60.2211 81.8636V82.858H56.2637V81.8636H60.2211ZM57.4171 80.0341H58.5904V87.3125C58.5904 87.6439 58.6384 87.8925 58.7346 88.0582C58.834 88.2206 58.9599 88.33 59.1124 88.3864C59.2682 88.4394 59.4322 88.4659 59.6046 88.4659C59.7338 88.4659 59.8399 88.4593 59.9228 88.446C60.0056 88.4295 60.0719 88.4162 60.1216 88.4062L60.3603 89.4602C60.2807 89.4901 60.1697 89.5199 60.0272 89.5497C59.8846 89.5829 59.704 89.5994 59.4853 89.5994C59.1538 89.5994 58.829 89.5282 58.5108 89.3857C58.196 89.2431 57.9341 89.026 57.7253 88.7344C57.5198 88.4427 57.4171 88.0748 57.4171 87.6307V80.0341ZM61.986 89.5V81.8636H63.1195V83.017H63.199C63.3382 82.6392 63.5901 82.3326 63.9547 82.0973C64.3193 81.862 64.7303 81.7443 65.1877 81.7443C65.2739 81.7443 65.3816 81.746 65.5108 81.7493C65.6401 81.7526 65.7379 81.7576 65.8042 81.7642V82.9574C65.7644 82.9474 65.6732 82.9325 65.5307 82.9126C65.3915 82.8894 65.244 82.8778 65.0882 82.8778C64.717 82.8778 64.3856 82.9557 64.0939 83.1115C63.8056 83.264 63.5769 83.4761 63.4078 83.7479C63.2421 84.0163 63.1593 84.3229 63.1593 84.6676V89.5H61.986ZM67.195 89.5V81.8636H68.3683V89.5H67.195ZM67.7915 80.5909C67.5629 80.5909 67.3656 80.513 67.1999 80.3572C67.0375 80.2015 66.9563 80.0142 66.9563 79.7955C66.9563 79.5767 67.0375 79.3894 67.1999 79.2337C67.3656 79.0779 67.5629 79 67.7915 79C68.0202 79 68.2158 79.0779 68.3782 79.2337C68.5439 79.3894 68.6268 79.5767 68.6268 79.7955C68.6268 80.0142 68.5439 80.2015 68.3782 80.3572C68.2158 80.513 68.0202 80.5909 67.7915 80.5909ZM73.5996 92.5227C73.0328 92.5227 72.5456 92.4498 72.138 92.304C71.7303 92.1615 71.3906 91.9725 71.1188 91.7372C70.8503 91.5052 70.6365 91.2566 70.4775 90.9915L71.4121 90.3352C71.5182 90.4744 71.6524 90.6335 71.8148 90.8125C71.9772 90.9948 72.1993 91.1522 72.481 91.2848C72.766 91.4207 73.1389 91.4886 73.5996 91.4886C74.2161 91.4886 74.7248 91.3395 75.1259 91.0412C75.5269 90.7429 75.7275 90.2756 75.7275 89.6392V88.0881H75.628C75.5418 88.2273 75.4192 88.3996 75.2601 88.6051C75.1043 88.8073 74.879 88.9879 74.584 89.147C74.2923 89.3028 73.8979 89.3807 73.4007 89.3807C72.7843 89.3807 72.2308 89.2348 71.7402 88.9432C71.253 88.6515 70.8669 88.2273 70.5819 87.6705C70.3001 87.1136 70.1593 86.4375 70.1593 85.642C70.1593 84.8598 70.2968 84.1787 70.5719 83.5987C70.847 83.0154 71.2298 82.5646 71.7203 82.2464C72.2109 81.925 72.7776 81.7642 73.4206 81.7642C73.9178 81.7642 74.3122 81.8471 74.6039 82.0128C74.8989 82.1752 75.1242 82.3608 75.28 82.5696C75.4391 82.7751 75.5617 82.9441 75.6479 83.0767H75.7672V81.8636H76.9007V89.7188C76.9007 90.375 76.7516 90.9086 76.4533 91.3196C76.1583 91.7339 75.7606 92.0372 75.2601 92.2294C74.763 92.425 74.2095 92.5227 73.5996 92.5227ZM73.5598 88.3267C74.0305 88.3267 74.4282 88.219 74.753 88.0036C75.0778 87.7881 75.3248 87.4782 75.4938 87.0739C75.6628 86.6695 75.7473 86.1856 75.7473 85.6222C75.7473 85.072 75.6645 84.5864 75.4988 84.1655C75.333 83.7446 75.0878 83.4148 74.763 83.1761C74.4382 82.9375 74.0371 82.8182 73.5598 82.8182C73.0627 82.8182 72.6484 82.9441 72.3169 83.196C71.9888 83.4479 71.7419 83.786 71.5762 84.2102C71.4138 84.6345 71.3326 85.1051 71.3326 85.6222C71.3326 86.1525 71.4154 86.6214 71.5811 87.0291C71.7502 87.4335 71.9988 87.7517 72.3269 87.9837C72.6583 88.2124 73.0693 88.3267 73.5598 88.3267ZM82.1309 92.5227C81.5641 92.5227 81.0769 92.4498 80.6692 92.304C80.2615 92.1615 79.9218 91.9725 79.65 91.7372C79.3816 91.5052 79.1678 91.2566 79.0087 90.9915L79.9434 90.3352C80.0494 90.4744 80.1837 90.6335 80.3461 90.8125C80.5085 90.9948 80.7305 91.1522 81.0123 91.2848C81.2973 91.4207 81.6702 91.4886 82.1309 91.4886C82.7473 91.4886 83.2561 91.3395 83.6571 91.0412C84.0582 90.7429 84.2587 90.2756 84.2587 89.6392V88.0881H84.1593C84.0731 88.2273 83.9505 88.3996 83.7914 88.6051C83.6356 88.8073 83.4102 88.9879 83.1152 89.147C82.8236 89.3028 82.4292 89.3807 81.932 89.3807C81.3155 89.3807 80.762 89.2348 80.2715 88.9432C79.7843 88.6515 79.3981 88.2273 79.1131 87.6705C78.8314 87.1136 78.6905 86.4375 78.6905 85.642C78.6905 84.8598 78.8281 84.1787 79.1032 83.5987C79.3783 83.0154 79.7611 82.5646 80.2516 82.2464C80.7421 81.925 81.3089 81.7642 81.9519 81.7642C82.449 81.7642 82.8435 81.8471 83.1351 82.0128C83.4301 82.1752 83.6555 82.3608 83.8113 82.5696C83.9703 82.7751 84.093 82.9441 84.1792 83.0767H84.2985V81.8636H85.432V89.7188C85.432 90.375 85.2828 90.9086 84.9846 91.3196C84.6896 91.7339 84.2918 92.0372 83.7914 92.2294C83.2942 92.425 82.7407 92.5227 82.1309 92.5227ZM82.0911 88.3267C82.5617 88.3267 82.9595 88.219 83.2843 88.0036C83.6091 87.7881 83.856 87.4782 84.025 87.0739C84.1941 86.6695 84.2786 86.1856 84.2786 85.6222C84.2786 85.072 84.1957 84.5864 84.03 84.1655C83.8643 83.7446 83.619 83.4148 83.2942 83.1761C82.9694 82.9375 82.5684 82.8182 82.0911 82.8182C81.5939 82.8182 81.1796 82.9441 80.8482 83.196C80.5201 83.4479 80.2731 83.786 80.1074 84.2102C79.945 84.6345 79.8638 85.1051 79.8638 85.6222C79.8638 86.1525 79.9467 86.6214 80.1124 87.0291C80.2814 87.4335 80.53 87.7517 80.8581 87.9837C81.1896 88.2124 81.6006 88.3267 82.0911 88.3267ZM90.7814 89.6591C90.0456 89.6591 89.4109 89.4967 88.8773 89.1719C88.347 88.8438 87.9377 88.3864 87.6493 87.7997C87.3643 87.2098 87.2218 86.5237 87.2218 85.7415C87.2218 84.9593 87.3643 84.2699 87.6493 83.6733C87.9377 83.0734 88.3387 82.6061 88.8525 82.2713C89.3695 81.9332 89.9727 81.7642 90.6621 81.7642C91.0598 81.7642 91.4526 81.8305 91.8404 81.9631C92.2282 82.0956 92.5811 82.3111 92.8993 82.6094C93.2175 82.9044 93.4711 83.2955 93.66 83.7827C93.8489 84.2699 93.9434 84.8698 93.9434 85.5824V86.0795H88.057V85.0653H92.7502C92.7502 84.6345 92.664 84.25 92.4917 83.9119C92.3226 83.5739 92.0807 83.3071 91.7658 83.1115C91.4542 82.916 91.0864 82.8182 90.6621 82.8182C90.1948 82.8182 89.7904 82.9342 89.449 83.1662C89.111 83.3949 88.8508 83.6932 88.6685 84.0611C88.4862 84.429 88.3951 84.8234 88.3951 85.2443V85.9205C88.3951 86.4972 88.4945 86.986 88.6934 87.3871C88.8955 87.7848 89.1756 88.0881 89.5336 88.2969C89.8915 88.5024 90.3075 88.6051 90.7814 88.6051C91.0897 88.6051 91.3681 88.562 91.6167 88.4759C91.8685 88.3864 92.0856 88.2538 92.2679 88.0781C92.4502 87.8991 92.5911 87.6771 92.6905 87.4119L93.824 87.7301C93.7047 88.1146 93.5042 88.4527 93.2225 88.7443C92.9408 89.0327 92.5927 89.258 92.1784 89.4205C91.7641 89.5795 91.2985 89.6591 90.7814 89.6591ZM95.7282 89.5V81.8636H96.8617V83.017H96.9412C97.0804 82.6392 97.3323 82.3326 97.6969 82.0973C98.0615 81.862 98.4725 81.7443 98.9299 81.7443C99.016 81.7443 99.1238 81.746 99.253 81.7493C99.3823 81.7526 99.4801 81.7576 99.5463 81.7642V82.9574C99.5066 82.9474 99.4154 82.9325 99.2729 82.9126C99.1337 82.8894 98.9862 82.8778 98.8304 82.8778C98.4592 82.8778 98.1278 82.9557 97.8361 83.1115C97.5478 83.264 97.3191 83.4761 97.15 83.7479C96.9843 84.0163 96.9015 84.3229 96.9015 84.6676V89.5H95.7282ZM107.122 89.679C106.638 89.679 106.199 89.5878 105.804 89.4055C105.41 89.2199 105.097 88.9531 104.865 88.6051C104.633 88.2538 104.517 87.8295 104.517 87.3324C104.517 86.8949 104.603 86.5402 104.775 86.2685C104.948 85.9934 105.178 85.7779 105.466 85.6222C105.755 85.4664 106.073 85.3504 106.421 85.2741C106.772 85.1946 107.125 85.1316 107.48 85.0852C107.944 85.0256 108.32 84.9808 108.608 84.951C108.9 84.9179 109.112 84.8632 109.245 84.7869C109.381 84.7107 109.449 84.5781 109.449 84.3892V84.3494C109.449 83.8589 109.314 83.4777 109.046 83.206C108.781 82.9342 108.378 82.7983 107.838 82.7983C107.278 82.7983 106.838 82.9209 106.52 83.1662C106.202 83.4115 105.978 83.6733 105.849 83.9517L104.735 83.554C104.934 83.09 105.199 82.7287 105.531 82.4702C105.866 82.2083 106.23 82.026 106.625 81.9233C107.022 81.8172 107.413 81.7642 107.798 81.7642C108.043 81.7642 108.325 81.794 108.643 81.8537C108.965 81.91 109.275 82.0277 109.573 82.2067C109.874 82.3857 110.125 82.6558 110.324 83.017C110.522 83.3783 110.622 83.8622 110.622 84.4688V89.5H109.449V88.4659H109.389C109.309 88.6316 109.177 88.8089 108.991 88.9979C108.806 89.1868 108.559 89.3475 108.25 89.4801C107.942 89.6127 107.566 89.679 107.122 89.679ZM107.301 88.625C107.765 88.625 108.156 88.5339 108.474 88.3516C108.796 88.1693 109.038 87.9339 109.2 87.6456C109.366 87.3572 109.449 87.054 109.449 86.7358V85.6619C109.399 85.7216 109.289 85.7763 109.12 85.826C108.955 85.8724 108.762 85.9138 108.544 85.9503C108.328 85.9834 108.118 86.0133 107.912 86.0398C107.71 86.063 107.546 86.0829 107.42 86.0994C107.115 86.1392 106.83 86.2038 106.565 86.2933C106.303 86.3795 106.091 86.5104 105.929 86.6861C105.77 86.8584 105.69 87.0937 105.69 87.392C105.69 87.7997 105.841 88.108 106.142 88.3168C106.447 88.5223 106.833 88.625 107.301 88.625ZM113.937 84.9062V89.5H112.763V81.8636H113.897V83.0568H113.996C114.175 82.669 114.447 82.3575 114.812 82.1222C115.176 81.8835 115.647 81.7642 116.224 81.7642C116.741 81.7642 117.193 81.8703 117.581 82.0824C117.969 82.2912 118.27 82.6094 118.486 83.0369C118.701 83.4612 118.809 83.9981 118.809 84.6477V89.5H117.635V84.7273C117.635 84.1274 117.48 83.66 117.168 83.3253C116.857 82.9872 116.429 82.8182 115.885 82.8182C115.511 82.8182 115.176 82.8994 114.881 83.0618C114.59 83.2242 114.359 83.4612 114.19 83.7727C114.021 84.0843 113.937 84.4621 113.937 84.9062ZM123.836 89.6591C123.2 89.6591 122.638 89.4983 122.151 89.1768C121.664 88.852 121.283 88.3946 121.007 87.8047C120.732 87.2114 120.595 86.5104 120.595 85.7017C120.595 84.8996 120.732 84.2036 121.007 83.6136C121.283 83.0237 121.665 82.5679 122.156 82.2464C122.646 81.925 123.213 81.7642 123.856 81.7642C124.353 81.7642 124.746 81.8471 125.034 82.0128C125.326 82.1752 125.548 82.3608 125.701 82.5696C125.856 82.7751 125.977 82.9441 126.064 83.0767H126.163V79.3182H127.336V89.5H126.203V88.3267H126.064C125.977 88.4659 125.855 88.6416 125.696 88.8537C125.537 89.0625 125.31 89.2498 125.015 89.4155C124.72 89.5779 124.327 89.6591 123.836 89.6591ZM123.995 88.6051C124.466 88.6051 124.864 88.4825 125.189 88.2372C125.513 87.9886 125.76 87.6456 125.929 87.2081C126.098 86.7673 126.183 86.2585 126.183 85.6818C126.183 85.1117 126.1 84.6129 125.934 84.1854C125.769 83.7545 125.523 83.4197 125.199 83.1811C124.874 82.9392 124.473 82.8182 123.995 82.8182C123.498 82.8182 123.084 82.9458 122.752 83.201C122.424 83.4529 122.177 83.7959 122.012 84.2301C121.849 84.661 121.768 85.1449 121.768 85.6818C121.768 86.2254 121.851 86.7192 122.017 87.1634C122.186 87.6042 122.434 87.9555 122.762 88.2173C123.094 88.4759 123.505 88.6051 123.995 88.6051ZM134.759 84.9062V89.5H133.586V79.3182H134.759V83.0568H134.858C135.037 82.6624 135.306 82.3492 135.664 82.1172C136.025 81.8819 136.506 81.7642 137.105 81.7642C137.626 81.7642 138.082 81.8686 138.473 82.0774C138.864 82.2829 139.167 82.5994 139.382 83.027C139.601 83.4512 139.711 83.9915 139.711 84.6477V89.5H138.537V84.7273C138.537 84.1207 138.38 83.6518 138.065 83.3203C137.753 82.9856 137.321 82.8182 136.767 82.8182C136.383 82.8182 136.038 82.8994 135.733 83.0618C135.432 83.2242 135.193 83.4612 135.017 83.7727C134.845 84.0843 134.759 84.4621 134.759 84.9062ZM144.104 89.679C143.62 89.679 143.181 89.5878 142.787 89.4055C142.392 89.2199 142.079 88.9531 141.847 88.6051C141.615 88.2538 141.499 87.8295 141.499 87.3324C141.499 86.8949 141.585 86.5402 141.758 86.2685C141.93 85.9934 142.16 85.7779 142.449 85.6222C142.737 85.4664 143.055 85.3504 143.403 85.2741C143.755 85.1946 144.108 85.1316 144.462 85.0852C144.926 85.0256 145.302 84.9808 145.591 84.951C145.882 84.9179 146.095 84.8632 146.227 84.7869C146.363 84.7107 146.431 84.5781 146.431 84.3892V84.3494C146.431 83.8589 146.297 83.4777 146.028 83.206C145.763 82.9342 145.36 82.7983 144.82 82.7983C144.26 82.7983 143.821 82.9209 143.503 83.1662C143.184 83.4115 142.961 83.6733 142.831 83.9517L141.718 83.554C141.917 83.09 142.182 82.7287 142.513 82.4702C142.848 82.2083 143.213 82.026 143.607 81.9233C144.005 81.8172 144.396 81.7642 144.78 81.7642C145.026 81.7642 145.307 81.794 145.626 81.8537C145.947 81.91 146.257 82.0277 146.555 82.2067C146.857 82.3857 147.107 82.6558 147.306 83.017C147.505 83.3783 147.604 83.8622 147.604 84.4688V89.5H146.431V88.4659H146.371C146.292 88.6316 146.159 88.8089 145.974 88.9979C145.788 89.1868 145.541 89.3475 145.233 89.4801C144.925 89.6127 144.548 89.679 144.104 89.679ZM144.283 88.625C144.747 88.625 145.138 88.5339 145.456 88.3516C145.778 88.1693 146.02 87.9339 146.182 87.6456C146.348 87.3572 146.431 87.054 146.431 86.7358V85.6619C146.381 85.7216 146.272 85.7763 146.103 85.826C145.937 85.8724 145.745 85.9138 145.526 85.9503C145.311 85.9834 145.1 86.0133 144.895 86.0398C144.693 86.063 144.528 86.0829 144.403 86.0994C144.098 86.1392 143.813 86.2038 143.547 86.2933C143.286 86.3795 143.073 86.5104 142.911 86.6861C142.752 86.8584 142.672 87.0937 142.672 87.392C142.672 87.7997 142.823 88.108 143.125 88.3168C143.43 88.5223 143.816 88.625 144.283 88.625ZM155.155 83.5739L154.101 83.8722C154.035 83.6965 153.937 83.5258 153.808 83.3601C153.682 83.1911 153.509 83.0518 153.29 82.9425C153.072 82.8331 152.792 82.7784 152.45 82.7784C151.983 82.7784 151.594 82.8861 151.282 83.1016C150.974 83.3137 150.82 83.5838 150.82 83.9119C150.82 84.2036 150.926 84.4339 151.138 84.603C151.35 84.772 151.681 84.9129 152.132 85.0256L153.266 85.304C153.948 85.4697 154.457 85.7232 154.792 86.0646C155.127 86.4027 155.294 86.8385 155.294 87.3722C155.294 87.8097 155.168 88.2008 154.916 88.5455C154.668 88.8902 154.32 89.1619 153.872 89.3608C153.425 89.5597 152.904 89.6591 152.311 89.6591C151.532 89.6591 150.888 89.4901 150.377 89.152C149.867 88.8139 149.544 88.3201 149.408 87.6705L150.521 87.392C150.627 87.803 150.828 88.1113 151.123 88.3168C151.421 88.5223 151.811 88.625 152.291 88.625C152.838 88.625 153.272 88.509 153.594 88.277C153.919 88.0417 154.081 87.7599 154.081 87.4318C154.081 87.1667 153.988 86.9446 153.803 86.7656C153.617 86.5833 153.332 86.4474 152.947 86.358L151.675 86.0597C150.975 85.8939 150.462 85.6371 150.134 85.2891C149.809 84.9377 149.646 84.4986 149.646 83.9716C149.646 83.5407 149.767 83.1596 150.009 82.8281C150.254 82.4967 150.588 82.2365 151.009 82.0476C151.433 81.8587 151.913 81.7642 152.45 81.7642C153.206 81.7642 153.799 81.9299 154.23 82.2614C154.664 82.5928 154.973 83.0303 155.155 83.5739ZM164.319 81.8636V82.858H160.361V81.8636H164.319ZM161.515 80.0341H162.688V87.3125C162.688 87.6439 162.736 87.8925 162.832 88.0582C162.932 88.2206 163.058 88.33 163.21 88.3864C163.366 88.4394 163.53 88.4659 163.702 88.4659C163.831 88.4659 163.938 88.4593 164.02 88.446C164.103 88.4295 164.17 88.4162 164.219 88.4062L164.458 89.4602C164.378 89.4901 164.267 89.5199 164.125 89.5497C163.982 89.5829 163.802 89.5994 163.583 89.5994C163.251 89.5994 162.927 89.5282 162.608 89.3857C162.294 89.2431 162.032 89.026 161.823 88.7344C161.617 88.4427 161.515 88.0748 161.515 87.6307V80.0341ZM167.421 84.9062V89.5H166.248V79.3182H167.421V83.0568H167.52C167.699 82.6624 167.968 82.3492 168.326 82.1172C168.687 81.8819 169.168 81.7642 169.768 81.7642C170.288 81.7642 170.744 81.8686 171.135 82.0774C171.526 82.2829 171.829 82.5994 172.045 83.027C172.263 83.4512 172.373 83.9915 172.373 84.6477V89.5H171.199V84.7273C171.199 84.1207 171.042 83.6518 170.727 83.3203C170.416 82.9856 169.983 82.8182 169.43 82.8182C169.045 82.8182 168.7 82.8994 168.395 83.0618C168.094 83.2242 167.855 83.4612 167.68 83.7727C167.507 84.0843 167.421 84.4621 167.421 84.9062ZM177.721 89.6591C176.985 89.6591 176.35 89.4967 175.817 89.1719C175.286 88.8438 174.877 88.3864 174.589 87.7997C174.304 87.2098 174.161 86.5237 174.161 85.7415C174.161 84.9593 174.304 84.2699 174.589 83.6733C174.877 83.0734 175.278 82.6061 175.792 82.2713C176.309 81.9332 176.912 81.7642 177.602 81.7642C177.999 81.7642 178.392 81.8305 178.78 81.9631C179.168 82.0956 179.521 82.3111 179.839 82.6094C180.157 82.9044 180.411 83.2955 180.599 83.7827C180.788 84.2699 180.883 84.8698 180.883 85.5824V86.0795H174.996V85.0653H179.69C179.69 84.6345 179.603 84.25 179.431 83.9119C179.262 83.5739 179.02 83.3071 178.705 83.1115C178.394 82.916 178.026 82.8182 177.602 82.8182C177.134 82.8182 176.73 82.9342 176.388 83.1662C176.05 83.3949 175.79 83.6932 175.608 84.0611C175.426 84.429 175.335 84.8234 175.335 85.2443V85.9205C175.335 86.4972 175.434 86.986 175.633 87.3871C175.835 87.7848 176.115 88.0881 176.473 88.2969C176.831 88.5024 177.247 88.6051 177.721 88.6051C178.029 88.6051 178.308 88.562 178.556 88.4759C178.808 88.3864 179.025 88.2538 179.207 88.0781C179.39 87.8991 179.531 87.6771 179.63 87.4119L180.763 87.7301C180.644 88.1146 180.444 88.4527 180.162 88.7443C179.88 89.0327 179.532 89.258 179.118 89.4205C178.704 89.5795 178.238 89.6591 177.721 89.6591ZM189.707 89.6591C188.991 89.6591 188.375 89.4901 187.858 89.152C187.341 88.8139 186.943 88.3482 186.665 87.755C186.386 87.1617 186.247 86.4839 186.247 85.7216C186.247 84.946 186.39 84.2616 186.675 83.6683C186.963 83.0717 187.364 82.6061 187.878 82.2713C188.395 81.9332 188.998 81.7642 189.688 81.7642C190.224 81.7642 190.708 81.8636 191.139 82.0625C191.57 82.2614 191.923 82.5398 192.198 82.8977C192.473 83.2557 192.644 83.6733 192.71 84.1506H191.537C191.447 83.8026 191.249 83.4943 190.94 83.2259C190.635 82.9541 190.224 82.8182 189.707 82.8182C189.25 82.8182 188.849 82.9375 188.504 83.1761C188.163 83.4115 187.896 83.7446 187.704 84.1754C187.515 84.603 187.42 85.1051 187.42 85.6818C187.42 86.2718 187.513 86.7855 187.699 87.223C187.888 87.6605 188.153 88.0002 188.494 88.2422C188.839 88.4841 189.243 88.6051 189.707 88.6051C190.012 88.6051 190.289 88.5521 190.538 88.446C190.786 88.34 190.997 88.1875 191.169 87.9886C191.341 87.7898 191.464 87.5511 191.537 87.2727H192.71C192.644 87.7235 192.48 88.1295 192.218 88.4908C191.96 88.8487 191.616 89.1338 191.189 89.3459C190.765 89.5547 190.271 89.6591 189.707 89.6591ZM197.528 89.6591C196.838 89.6591 196.233 89.495 195.713 89.1669C195.196 88.8388 194.792 88.3797 194.5 87.7898C194.212 87.1998 194.067 86.5104 194.067 85.7216C194.067 84.9261 194.212 84.2318 194.5 83.6385C194.792 83.0452 195.196 82.5845 195.713 82.2564C196.233 81.9283 196.838 81.7642 197.528 81.7642C198.217 81.7642 198.82 81.9283 199.337 82.2564C199.858 82.5845 200.262 83.0452 200.55 83.6385C200.842 84.2318 200.988 84.9261 200.988 85.7216C200.988 86.5104 200.842 87.1998 200.55 87.7898C200.262 88.3797 199.858 88.8388 199.337 89.1669C198.82 89.495 198.217 89.6591 197.528 89.6591ZM197.528 88.6051C198.051 88.6051 198.482 88.4709 198.82 88.2024C199.158 87.9339 199.409 87.581 199.571 87.1435C199.733 86.706 199.815 86.232 199.815 85.7216C199.815 85.2112 199.733 84.7356 199.571 84.2947C199.409 83.8539 199.158 83.4976 198.82 83.2259C198.482 82.9541 198.051 82.8182 197.528 82.8182C197.004 82.8182 196.573 82.9541 196.235 83.2259C195.897 83.4976 195.647 83.8539 195.484 84.2947C195.322 84.7356 195.241 85.2112 195.241 85.7216C195.241 86.232 195.322 86.706 195.484 87.1435C195.647 87.581 195.897 87.9339 196.235 88.2024C196.573 88.4709 197.004 88.6051 197.528 88.6051ZM203.952 84.9062V89.5H202.779V81.8636H203.912V83.0568H204.012C204.191 82.669 204.463 82.3575 204.827 82.1222C205.192 81.8835 205.662 81.7642 206.239 81.7642C206.756 81.7642 207.209 81.8703 207.596 82.0824C207.984 82.2912 208.286 82.6094 208.501 83.0369C208.717 83.4612 208.824 83.9981 208.824 84.6477V89.5H207.651V84.7273C207.651 84.1274 207.495 83.66 207.184 83.3253C206.872 82.9872 206.445 82.8182 205.901 82.8182C205.527 82.8182 205.192 82.8994 204.897 83.0618C204.605 83.2242 204.375 83.4612 204.206 83.7727C204.037 84.0843 203.952 84.4621 203.952 84.9062ZM214.289 81.8636V82.858H210.332V81.8636H214.289ZM211.485 80.0341H212.659V87.3125C212.659 87.6439 212.707 87.8925 212.803 88.0582C212.902 88.2206 213.028 88.33 213.181 88.3864C213.337 88.4394 213.501 88.4659 213.673 88.4659C213.802 88.4659 213.908 88.4593 213.991 88.446C214.074 88.4295 214.14 88.4162 214.19 88.4062L214.429 89.4602C214.349 89.4901 214.238 89.5199 214.096 89.5497C213.953 89.5829 213.772 89.5994 213.554 89.5994C213.222 89.5994 212.897 89.5282 212.579 89.3857C212.264 89.2431 212.002 89.026 211.794 88.7344C211.588 88.4427 211.485 88.0748 211.485 87.6307V80.0341ZM219.174 89.6591C218.438 89.6591 217.804 89.4967 217.27 89.1719C216.74 88.8438 216.33 88.3864 216.042 87.7997C215.757 87.2098 215.614 86.5237 215.614 85.7415C215.614 84.9593 215.757 84.2699 216.042 83.6733C216.33 83.0734 216.731 82.6061 217.245 82.2713C217.762 81.9332 218.365 81.7642 219.055 81.7642C219.452 81.7642 219.845 81.8305 220.233 81.9631C220.621 82.0956 220.974 82.3111 221.292 82.6094C221.61 82.9044 221.864 83.2955 222.053 83.7827C222.241 84.2699 222.336 84.8698 222.336 85.5824V86.0795H216.45V85.0653H221.143C221.143 84.6345 221.057 84.25 220.884 83.9119C220.715 83.5739 220.473 83.3071 220.158 83.1115C219.847 82.916 219.479 82.8182 219.055 82.8182C218.587 82.8182 218.183 82.9342 217.842 83.1662C217.504 83.3949 217.243 83.6932 217.061 84.0611C216.879 84.429 216.788 84.8234 216.788 85.2443V85.9205C216.788 86.4972 216.887 86.986 217.086 87.3871C217.288 87.7848 217.568 88.0881 217.926 88.2969C218.284 88.5024 218.7 88.6051 219.174 88.6051C219.482 88.6051 219.761 88.562 220.009 88.4759C220.261 88.3864 220.478 88.2538 220.661 88.0781C220.843 87.8991 220.984 87.6771 221.083 87.4119L222.217 87.7301C222.097 88.1146 221.897 88.4527 221.615 88.7443C221.333 89.0327 220.985 89.258 220.571 89.4205C220.157 89.5795 219.691 89.6591 219.174 89.6591ZM225.294 84.9062V89.5H224.121V81.8636H225.254V83.0568H225.354C225.533 82.669 225.804 82.3575 226.169 82.1222C226.534 81.8835 227.004 81.7642 227.581 81.7642C228.098 81.7642 228.55 81.8703 228.938 82.0824C229.326 82.2912 229.628 82.6094 229.843 83.0369C230.058 83.4612 230.166 83.9981 230.166 84.6477V89.5H228.993V84.7273C228.993 84.1274 228.837 83.66 228.526 83.3253C228.214 82.9872 227.786 82.8182 227.243 82.8182C226.868 82.8182 226.534 82.8994 226.239 83.0618C225.947 83.2242 225.717 83.4612 225.548 83.7727C225.379 84.0843 225.294 84.4621 225.294 84.9062ZM235.631 81.8636V82.858H231.674V81.8636H235.631ZM232.827 80.0341H234.001V87.3125C234.001 87.6439 234.049 87.8925 234.145 88.0582C234.244 88.2206 234.37 88.33 234.523 88.3864C234.678 88.4394 234.842 88.4659 235.015 88.4659C235.144 88.4659 235.25 88.4593 235.333 88.446C235.416 88.4295 235.482 88.4162 235.532 88.4062L235.77 89.4602C235.691 89.4901 235.58 89.5199 235.437 89.5497C235.295 89.5829 235.114 89.5994 234.895 89.5994C234.564 89.5994 234.239 89.5282 233.921 89.3857C233.606 89.2431 233.344 89.026 233.135 88.7344C232.93 88.4427 232.827 88.0748 232.827 87.6307V80.0341ZM242.507 84.9062V89.5H241.334V79.3182H242.507V83.0568H242.606C242.785 82.6624 243.054 82.3492 243.412 82.1172C243.773 81.8819 244.254 81.7642 244.854 81.7642C245.374 81.7642 245.83 81.8686 246.221 82.0774C246.612 82.2829 246.915 82.5994 247.131 83.027C247.349 83.4512 247.459 83.9915 247.459 84.6477V89.5H246.285V84.7273C246.285 84.1207 246.128 83.6518 245.813 83.3203C245.501 82.9856 245.069 82.8182 244.515 82.8182C244.131 82.8182 243.786 82.8994 243.481 83.0618C243.18 83.2242 242.941 83.4612 242.765 83.7727C242.593 84.0843 242.507 84.4621 242.507 84.9062ZM249.605 89.5V81.8636H250.778V89.5H249.605ZM250.202 80.5909C249.973 80.5909 249.776 80.513 249.61 80.3572C249.448 80.2015 249.366 80.0142 249.366 79.7955C249.366 79.5767 249.448 79.3894 249.61 79.2337C249.776 79.0779 249.973 79 250.202 79C250.43 79 250.626 79.0779 250.788 79.2337C250.954 79.3894 251.037 79.5767 251.037 79.7955C251.037 80.0142 250.954 80.2015 250.788 80.3572C250.626 80.513 250.43 80.5909 250.202 80.5909ZM255.811 89.6591C255.175 89.6591 254.613 89.4983 254.126 89.1768C253.638 88.852 253.257 88.3946 252.982 87.8047C252.707 87.2114 252.569 86.5104 252.569 85.7017C252.569 84.8996 252.707 84.2036 252.982 83.6136C253.257 83.0237 253.64 82.5679 254.131 82.2464C254.621 81.925 255.188 81.7642 255.831 81.7642C256.328 81.7642 256.721 81.8471 257.009 82.0128C257.301 82.1752 257.523 82.3608 257.675 82.5696C257.831 82.7751 257.952 82.9441 258.038 83.0767H258.138V79.3182H259.311V89.5H258.177V88.3267H258.038C257.952 88.4659 257.829 88.6416 257.67 88.8537C257.511 89.0625 257.284 89.2498 256.989 89.4155C256.694 89.5779 256.301 89.6591 255.811 89.6591ZM255.97 88.6051C256.441 88.6051 256.838 88.4825 257.163 88.2372C257.488 87.9886 257.735 87.6456 257.904 87.2081C258.073 86.7673 258.157 86.2585 258.157 85.6818C258.157 85.1117 258.075 84.6129 257.909 84.1854C257.743 83.7545 257.498 83.4197 257.173 83.1811C256.848 82.9392 256.447 82.8182 255.97 82.8182C255.473 82.8182 255.059 82.9458 254.727 83.201C254.399 83.4529 254.152 83.7959 253.986 84.2301C253.824 84.661 253.743 85.1449 253.743 85.6818C253.743 86.2254 253.826 86.7192 253.991 87.1634C254.16 87.6042 254.409 87.9555 254.737 88.2173C255.068 88.4759 255.479 88.6051 255.97 88.6051ZM264.506 89.6591C263.87 89.6591 263.308 89.4983 262.821 89.1768C262.334 88.852 261.952 88.3946 261.677 87.8047C261.402 87.2114 261.265 86.5104 261.265 85.7017C261.265 84.8996 261.402 84.2036 261.677 83.6136C261.952 83.0237 262.335 82.5679 262.826 82.2464C263.316 81.925 263.883 81.7642 264.526 81.7642C265.023 81.7642 265.416 81.8471 265.704 82.0128C265.996 82.1752 266.218 82.3608 266.371 82.5696C266.526 82.7751 266.647 82.9441 266.733 83.0767H266.833V79.3182H268.006V89.5H266.873V88.3267H266.733C266.647 88.4659 266.525 88.6416 266.366 88.8537C266.206 89.0625 265.979 89.2498 265.684 89.4155C265.39 89.5779 264.997 89.6591 264.506 89.6591ZM264.665 88.6051C265.136 88.6051 265.534 88.4825 265.858 88.2372C266.183 87.9886 266.43 87.6456 266.599 87.2081C266.768 86.7673 266.853 86.2585 266.853 85.6818C266.853 85.1117 266.77 84.6129 266.604 84.1854C266.439 83.7545 266.193 83.4197 265.868 83.1811C265.544 82.9392 265.143 82.8182 264.665 82.8182C264.168 82.8182 263.754 82.9458 263.422 83.201C263.094 83.4529 262.847 83.7959 262.682 84.2301C262.519 84.661 262.438 85.1449 262.438 85.6818C262.438 86.2254 262.521 86.7192 262.687 87.1634C262.856 87.6042 263.104 87.9555 263.432 88.2173C263.764 88.4759 264.175 88.6051 264.665 88.6051ZM273.52 89.6591C272.784 89.6591 272.149 89.4967 271.616 89.1719C271.085 88.8438 270.676 88.3864 270.388 87.7997C270.103 87.2098 269.96 86.5237 269.96 85.7415C269.96 84.9593 270.103 84.2699 270.388 83.6733C270.676 83.0734 271.077 82.6061 271.591 82.2713C272.108 81.9332 272.711 81.7642 273.4 81.7642C273.798 81.7642 274.191 81.8305 274.579 81.9631C274.966 82.0956 275.319 82.3111 275.638 82.6094C275.956 82.9044 276.209 83.2955 276.398 83.7827C276.587 84.2699 276.682 84.8698 276.682 85.5824V86.0795H270.795V85.0653H275.488C275.488 84.6345 275.402 84.25 275.23 83.9119C275.061 83.5739 274.819 83.3071 274.504 83.1115C274.193 82.916 273.825 82.8182 273.4 82.8182C272.933 82.8182 272.529 82.9342 272.187 83.1662C271.849 83.3949 271.589 83.6932 271.407 84.0611C271.224 84.429 271.133 84.8234 271.133 85.2443V85.9205C271.133 86.4972 271.233 86.986 271.432 87.3871C271.634 87.7848 271.914 88.0881 272.272 88.2969C272.63 88.5024 273.046 88.6051 273.52 88.6051C273.828 88.6051 274.106 88.562 274.355 88.4759C274.607 88.3864 274.824 88.2538 275.006 88.0781C275.189 87.8991 275.329 87.6771 275.429 87.4119L276.562 87.7301C276.443 88.1146 276.242 88.4527 275.961 88.7443C275.679 89.0327 275.331 89.258 274.917 89.4205C274.502 89.5795 274.037 89.6591 273.52 89.6591ZM279.64 84.9062V89.5H278.466V81.8636H279.6V83.0568H279.699C279.878 82.669 280.15 82.3575 280.515 82.1222C280.879 81.8835 281.35 81.7642 281.927 81.7642C282.444 81.7642 282.896 81.8703 283.284 82.0824C283.672 82.2912 283.973 82.6094 284.189 83.0369C284.404 83.4612 284.512 83.9981 284.512 84.6477V89.5H283.339V84.7273C283.339 84.1274 283.183 83.66 282.871 83.3253C282.56 82.9872 282.132 82.8182 281.589 82.8182C281.214 82.8182 280.879 82.8994 280.584 83.0618C280.293 83.2242 280.062 83.4612 279.893 83.7727C279.724 84.0843 279.64 84.4621 279.64 84.9062ZM290.752 89.5V79.3182H291.926V83.0767H292.025C292.111 82.9441 292.231 82.7751 292.383 82.5696C292.539 82.3608 292.761 82.1752 293.049 82.0128C293.341 81.8471 293.735 81.7642 294.233 81.7642C294.876 81.7642 295.442 81.925 295.933 82.2464C296.423 82.5679 296.806 83.0237 297.081 83.6136C297.356 84.2036 297.494 84.8996 297.494 85.7017C297.494 86.5104 297.356 87.2114 297.081 87.8047C296.806 88.3946 296.425 88.852 295.938 89.1768C295.451 89.4983 294.889 89.6591 294.252 89.6591C293.762 89.6591 293.369 89.5779 293.074 89.4155C292.779 89.2498 292.552 89.0625 292.393 88.8537C292.234 88.6416 292.111 88.4659 292.025 88.3267H291.886V89.5H290.752ZM291.906 85.6818C291.906 86.2585 291.99 86.7673 292.159 87.2081C292.328 87.6456 292.575 87.9886 292.9 88.2372C293.225 88.4825 293.623 88.6051 294.093 88.6051C294.584 88.6051 294.993 88.4759 295.321 88.2173C295.653 87.9555 295.901 87.6042 296.067 87.1634C296.236 86.7192 296.321 86.2254 296.321 85.6818C296.321 85.1449 296.238 84.661 296.072 84.2301C295.91 83.7959 295.663 83.4529 295.331 83.201C295.003 82.9458 294.591 82.8182 294.093 82.8182C293.616 82.8182 293.215 82.9392 292.89 83.1811C292.565 83.4197 292.32 83.7545 292.154 84.1854C291.989 84.6129 291.906 85.1117 291.906 85.6818ZM299.771 92.3636C299.572 92.3636 299.395 92.3471 299.239 92.3139C299.083 92.2841 298.975 92.2543 298.916 92.2244L299.214 91.1903C299.499 91.2633 299.751 91.2898 299.97 91.2699C300.189 91.25 300.382 91.1522 300.551 90.9766C300.724 90.8042 300.881 90.5241 301.024 90.1364L301.243 89.5398L298.419 81.8636H299.691L301.799 87.9489H301.879L303.987 81.8636H305.26L302.018 90.6136C301.872 91.008 301.692 91.3345 301.476 91.593C301.261 91.8549 301.011 92.0488 300.725 92.1747C300.444 92.3007 300.126 92.3636 299.771 92.3636ZM313.629 89.6591C312.993 89.6591 312.431 89.4983 311.944 89.1768C311.457 88.852 311.076 88.3946 310.8 87.8047C310.525 87.2114 310.388 86.5104 310.388 85.7017C310.388 84.8996 310.525 84.2036 310.8 83.6136C311.076 83.0237 311.458 82.5679 311.949 82.2464C312.439 81.925 313.006 81.7642 313.649 81.7642C314.146 81.7642 314.539 81.8471 314.827 82.0128C315.119 82.1752 315.341 82.3608 315.494 82.5696C315.649 82.7751 315.77 82.9441 315.857 83.0767H315.956V79.3182H317.129V89.5H315.996V88.3267H315.857C315.77 88.4659 315.648 88.6416 315.489 88.8537C315.33 89.0625 315.103 89.2498 314.808 89.4155C314.513 89.5779 314.12 89.6591 313.629 89.6591ZM313.788 88.6051C314.259 88.6051 314.657 88.4825 314.982 88.2372C315.306 87.9886 315.553 87.6456 315.722 87.2081C315.891 86.7673 315.976 86.2585 315.976 85.6818C315.976 85.1117 315.893 84.6129 315.727 84.1854C315.562 83.7545 315.316 83.4197 314.991 83.1811C314.667 82.9392 314.266 82.8182 313.788 82.8182C313.291 82.8182 312.877 82.9458 312.545 83.201C312.217 83.4529 311.97 83.7959 311.805 84.2301C311.642 84.661 311.561 85.1449 311.561 85.6818C311.561 86.2254 311.644 86.7192 311.81 87.1634C311.979 87.6042 312.227 87.9555 312.555 88.2173C312.887 88.4759 313.298 88.6051 313.788 88.6051ZM322.643 89.6591C321.907 89.6591 321.272 89.4967 320.739 89.1719C320.208 88.8438 319.799 88.3864 319.511 87.7997C319.226 87.2098 319.083 86.5237 319.083 85.7415C319.083 84.9593 319.226 84.2699 319.511 83.6733C319.799 83.0734 320.2 82.6061 320.714 82.2713C321.231 81.9332 321.834 81.7642 322.523 81.7642C322.921 81.7642 323.314 81.8305 323.702 81.9631C324.089 82.0956 324.442 82.3111 324.761 82.6094C325.079 82.9044 325.332 83.2955 325.521 83.7827C325.71 84.2699 325.805 84.8698 325.805 85.5824V86.0795H319.918V85.0653H324.612C324.612 84.6345 324.525 84.25 324.353 83.9119C324.184 83.5739 323.942 83.3071 323.627 83.1115C323.316 82.916 322.948 82.8182 322.523 82.8182C322.056 82.8182 321.652 82.9342 321.31 83.1662C320.972 83.3949 320.712 83.6932 320.53 84.0611C320.348 84.429 320.256 84.8234 320.256 85.2443V85.9205C320.256 86.4972 320.356 86.986 320.555 87.3871C320.757 87.7848 321.037 88.0881 321.395 88.2969C321.753 88.5024 322.169 88.6051 322.643 88.6051C322.951 88.6051 323.229 88.562 323.478 88.4759C323.73 88.3864 323.947 88.2538 324.129 88.0781C324.312 87.8991 324.452 87.6771 324.552 87.4119L325.685 87.7301C325.566 88.1146 325.366 88.4527 325.084 88.7443C324.802 89.0327 324.454 89.258 324.04 89.4205C323.625 89.5795 323.16 89.6591 322.643 89.6591ZM330.99 81.8636V82.858H326.874V81.8636H330.99ZM328.107 89.5V80.8097C328.107 80.3722 328.209 80.0076 328.415 79.7159C328.62 79.4242 328.887 79.2055 329.215 79.0597C329.543 78.9138 329.89 78.8409 330.254 78.8409C330.543 78.8409 330.778 78.8641 330.96 78.9105C331.143 78.9569 331.278 79 331.368 79.0398L331.03 80.054C330.97 80.0341 330.887 80.0092 330.781 79.9794C330.679 79.9496 330.543 79.9347 330.374 79.9347C329.986 79.9347 329.706 80.0324 329.533 80.228C329.364 80.4235 329.28 80.7102 329.28 81.0881V89.5H328.107ZM334.663 89.679C334.179 89.679 333.74 89.5878 333.345 89.4055C332.951 89.2199 332.638 88.9531 332.406 88.6051C332.174 88.2538 332.058 87.8295 332.058 87.3324C332.058 86.8949 332.144 86.5402 332.316 86.2685C332.489 85.9934 332.719 85.7779 333.007 85.6222C333.296 85.4664 333.614 85.3504 333.962 85.2741C334.313 85.1946 334.666 85.1316 335.021 85.0852C335.485 85.0256 335.861 84.9808 336.149 84.951C336.441 84.9179 336.653 84.8632 336.786 84.7869C336.922 84.7107 336.99 84.5781 336.99 84.3892V84.3494C336.99 83.8589 336.855 83.4777 336.587 83.206C336.322 82.9342 335.919 82.7983 335.379 82.7983C334.819 82.7983 334.379 82.9209 334.061 83.1662C333.743 83.4115 333.519 83.6733 333.39 83.9517L332.276 83.554C332.475 83.09 332.74 82.7287 333.072 82.4702C333.407 82.2083 333.771 82.026 334.166 81.9233C334.563 81.8172 334.954 81.7642 335.339 81.7642C335.584 81.7642 335.866 81.794 336.184 81.8537C336.506 81.91 336.816 82.0277 337.114 82.2067C337.415 82.3857 337.666 82.6558 337.865 83.017C338.063 83.3783 338.163 83.8622 338.163 84.4688V89.5H336.99V88.4659H336.93C336.85 88.6316 336.718 88.8089 336.532 88.9979C336.347 89.1868 336.1 89.3475 335.791 89.4801C335.483 89.6127 335.107 89.679 334.663 89.679ZM334.842 88.625C335.306 88.625 335.697 88.5339 336.015 88.3516C336.337 88.1693 336.579 87.9339 336.741 87.6456C336.907 87.3572 336.99 87.054 336.99 86.7358V85.6619C336.94 85.7216 336.83 85.7763 336.661 85.826C336.496 85.8724 336.303 85.9138 336.085 85.9503C335.869 85.9834 335.659 86.0133 335.453 86.0398C335.251 86.063 335.087 86.0829 334.961 86.0994C334.656 86.1392 334.371 86.2038 334.106 86.2933C333.844 86.3795 333.632 86.5104 333.47 86.6861C333.311 86.8584 333.231 87.0937 333.231 87.392C333.231 87.7997 333.382 88.108 333.683 88.3168C333.988 88.5223 334.374 88.625 334.842 88.625ZM345.117 86.3778V81.8636H346.29V89.5H345.117V88.2074H345.037C344.858 88.5952 344.58 88.925 344.202 89.1967C343.824 89.4652 343.347 89.5994 342.77 89.5994C342.293 89.5994 341.869 89.495 341.498 89.2862C341.126 89.0741 340.835 88.7559 340.623 88.3317C340.41 87.9041 340.304 87.3655 340.304 86.7159V81.8636H341.478V86.6364C341.478 87.1932 341.633 87.6373 341.945 87.9688C342.26 88.3002 342.661 88.4659 343.148 88.4659C343.44 88.4659 343.736 88.3913 344.038 88.2422C344.343 88.093 344.598 87.8643 344.804 87.5561C345.012 87.2479 345.117 86.8551 345.117 86.3778ZM349.612 79.3182V89.5H348.439V79.3182H349.612ZM355.082 81.8636V82.858H351.125V81.8636H355.082ZM352.278 80.0341H353.452V87.3125C353.452 87.6439 353.5 87.8925 353.596 88.0582C353.695 88.2206 353.821 88.33 353.974 88.3864C354.129 88.4394 354.294 88.4659 354.466 88.4659C354.595 88.4659 354.701 88.4593 354.784 88.446C354.867 88.4295 354.933 88.4162 354.983 88.4062L355.222 89.4602C355.142 89.4901 355.031 89.5199 354.888 89.5497C354.746 89.5829 354.565 89.5994 354.347 89.5994C354.015 89.5994 353.69 89.5282 353.372 89.3857C353.057 89.2431 352.795 89.026 352.587 88.7344C352.381 88.4427 352.278 88.0748 352.278 87.6307V80.0341Z" fill="#1F1F1F"/>
</g>
<g filter="url(#filter1_dd_821_54464)">
<path d="M219.293 122.191L212.586 115.118C212.211 114.722 211.702 114.5 211.172 114.5H228.828C228.298 114.5 227.789 114.722 227.414 115.118L220.707 122.191C220.317 122.603 219.683 122.603 219.293 122.191Z" fill="white"/>
</g>
<path d="M402.425 38.2123C402.225 38.2123 402.025 38.1373 401.875 37.9873L397.712 33.8248L393.55 37.9873C393.25 38.2873 392.75 38.2873 392.45 37.9873C392.15 37.6873 392.15 37.1873 392.45 36.8873L396.612 32.7248L392.45 28.5623C392.15 28.2623 392.15 27.7623 392.45 27.4623C392.75 27.1623 393.25 27.1623 393.55 27.4623L397.712 31.6248L401.875 27.4623C402.175 27.1623 402.675 27.1623 402.975 27.4623C403.275 27.7623 403.275 28.2623 402.975 28.5623L398.812 32.7248L402.975 36.8873C403.275 37.1873 403.275 37.6873 402.975 37.9873C402.825 38.1373 402.625 38.2123 402.425 38.2123Z" fill="#757575"/>
<defs>
<filter id="filter0_dd_821_54464" x="0" y="0.5" width="440" height="144" filterUnits="userSpaceOnUse" color-interpolation-filters="sRGB">
<feFlood flood-opacity="0" result="BackgroundImageFix"/>
<feColorMatrix in="SourceAlpha" type="matrix" values="0 0 0 0 0 0 0 0 0 0 0 0 0 0 0 0 0 0 127 0" result="hardAlpha"/>
<feOffset dy="6"/>
<feGaussianBlur stdDeviation="3"/>
<feColorMatrix type="matrix" values="0 0 0 0 0.2 0 0 0 0 0.2 0 0 0 0 0.2 0 0 0 0.1 0"/>
<feBlend mode="normal" in2="BackgroundImageFix" result="effect1_dropShadow_821_54464"/>
<feColorMatrix in="SourceAlpha" type="matrix" values="0 0 0 0 0 0 0 0 0 0 0 0 0 0 0 0 0 0 127 0" result="hardAlpha"/>
<feOffset dy="10"/>
<feGaussianBlur stdDeviation="10"/>
<feColorMatrix type="matrix" values="0 0 0 0 0.2 0 0 0 0 0.2 0 0 0 0 0.2 0 0 0 0.05 0"/>
<feBlend mode="normal" in2="effect1_dropShadow_821_54464" result="effect2_dropShadow_821_54464"/>
<feBlend mode="normal" in="SourceGraphic" in2="effect2_dropShadow_821_54464" result="shape"/>
</filter>
<filter id="filter1_dd_821_54464" x="191.172" y="104.5" width="57.6562" height="48" filterUnits="userSpaceOnUse" color-interpolation-filters="sRGB">
<feFlood flood-opacity="0" result="BackgroundImageFix"/>
<feColorMatrix in="SourceAlpha" type="matrix" values="0 0 0 0 0 0 0 0 0 0 0 0 0 0 0 0 0 0 127 0" result="hardAlpha"/>
<feOffset dy="6"/>
<feGaussianBlur stdDeviation="3"/>
<feColorMatrix type="matrix" values="0 0 0 0 0.2 0 0 0 0 0.2 0 0 0 0 0.2 0 0 0 0.25 0"/>
<feBlend mode="normal" in2="BackgroundImageFix" result="effect1_dropShadow_821_54464"/>
<feColorMatrix in="SourceAlpha" type="matrix" values="0 0 0 0 0 0 0 0 0 0 0 0 0 0 0 0 0 0 127 0" result="hardAlpha"/>
<feOffset dy="10"/>
<feGaussianBlur stdDeviation="10"/>
<feColorMatrix type="matrix" values="0 0 0 0 0.2 0 0 0 0 0.2 0 0 0 0 0.2 0 0 0 0.2 0"/>
<feBlend mode="normal" in2="effect1_dropShadow_821_54464" result="effect2_dropShadow_821_54464"/>
<feBlend mode="normal" in="SourceGraphic" in2="effect2_dropShadow_821_54464" result="shape"/>
</filter>
</defs>
</svg>
