<svg width="270" height="71" viewBox="0 0 270 71" fill="none" xmlns="http://www.w3.org/2000/svg">
<rect x="1" y="1.14722" width="268" height="69" rx="3.5" fill="#F3F8FF"/>
<g clip-path="url(#clip0_10204_88747)">
<path d="M24.1699 27.9371C23.8199 27.9371 23.5499 27.6571 23.5499 27.3171V25.3171C23.5499 24.9671 23.8299 24.6971 24.1699 24.6971C24.5099 24.6971 24.7899 24.9771 24.7899 25.3171V27.3171C24.7899 27.6671 24.5099 27.9371 24.1699 27.9371Z" fill="#102DA3"/>
<path d="M24.1699 23.9371C24.0799 23.9371 23.9999 23.9171 23.9299 23.8871C23.8499 23.8571 23.7799 23.8171 23.7199 23.7571C23.6699 23.6971 23.6199 23.6271 23.5899 23.5571C23.5599 23.4771 23.5399 23.3971 23.5399 23.3171C23.5399 23.2371 23.5599 23.1471 23.5899 23.0771C23.6199 22.9971 23.6699 22.9271 23.7199 22.8771C23.7799 22.8171 23.8499 22.7671 23.9299 22.7371C24.0799 22.6771 24.2499 22.6771 24.4099 22.7371C24.4799 22.7671 24.5499 22.8171 24.6099 22.8771C24.6699 22.9271 24.7099 22.9971 24.7399 23.0771C24.7799 23.1471 24.7899 23.2371 24.7899 23.3171C24.7899 23.4771 24.7299 23.6371 24.6099 23.7571C24.4899 23.8671 24.3299 23.9371 24.1699 23.9371Z" fill="#102DA3"/>
<path d="M24.1699 32.6071C20.1499 32.6071 16.8799 29.3371 16.8799 25.3171C16.8799 21.2971 20.1499 18.0271 24.1699 18.0271C28.1899 18.0271 31.4599 21.2971 31.4599 25.3171C31.4599 29.3371 28.1899 32.6071 24.1699 32.6071ZM24.1699 19.2671C20.8299 19.2671 18.1199 21.9871 18.1199 25.3171C18.1199 28.6471 20.8299 31.3571 24.1599 31.3571C27.4899 31.3571 30.1999 28.6471 30.1999 25.3171C30.1999 21.9871 27.4999 19.2671 24.1699 19.2671Z" fill="#102DA3"/>
</g>
<path d="M41.1364 20.7779V19.0109H50.4205V20.7779H46.8239V30.6472H44.733V20.7779H41.1364ZM52.1193 30.6472V21.9199H54.1761V30.6472H52.1193ZM53.1534 20.6813C52.8277 20.6813 52.5473 20.5734 52.3125 20.3574C52.0777 20.1377 51.9602 19.8745 51.9602 19.5677C51.9602 19.2571 52.0777 18.9938 52.3125 18.7779C52.5473 18.5582 52.8277 18.4484 53.1534 18.4484C53.483 18.4484 53.7633 18.5582 53.9943 18.7779C54.2292 18.9938 54.3466 19.2571 54.3466 19.5677C54.3466 19.8745 54.2292 20.1377 53.9943 20.3574C53.7633 20.5734 53.483 20.6813 53.1534 20.6813ZM60.6491 21.9199V23.5109H55.6321V21.9199H60.6491ZM56.8707 19.829H58.9276V28.0222C58.9276 28.2987 58.9692 28.5109 59.0526 28.6586C59.1397 28.8025 59.2533 28.901 59.3935 28.954C59.5336 29.0071 59.6889 29.0336 59.8594 29.0336C59.9882 29.0336 60.1056 29.0241 60.2116 29.0052C60.3215 28.9862 60.4048 28.9692 60.4616 28.954L60.8082 30.562C60.6984 30.5999 60.5412 30.6415 60.3366 30.687C60.1359 30.7324 59.8897 30.759 59.598 30.7665C59.0829 30.7817 58.6188 30.704 58.206 30.5336C57.7931 30.3593 57.4654 30.0904 57.223 29.7268C56.9844 29.3631 56.867 28.9086 56.8707 28.3631V19.829ZM64.6136 19.0109V30.6472H62.5568V19.0109H64.6136ZM70.5923 30.8177C69.7173 30.8177 68.9616 30.6359 68.3253 30.2722C67.6927 29.9048 67.206 29.3859 66.8651 28.7154C66.5241 28.0412 66.3537 27.2476 66.3537 26.3347C66.3537 25.437 66.5241 24.6491 66.8651 23.9711C67.2098 23.2893 67.6908 22.759 68.3082 22.3802C68.9257 21.9976 69.651 21.8063 70.4844 21.8063C71.0223 21.8063 71.5298 21.8934 72.0071 22.0677C72.4882 22.2381 72.9124 22.5033 73.2798 22.8631C73.651 23.223 73.9427 23.6813 74.1548 24.2381C74.367 24.7912 74.473 25.4502 74.473 26.2154V26.8461H67.3196V25.4597H72.5014C72.4976 25.0658 72.4124 24.7154 72.2457 24.4086C72.0791 24.098 71.8461 23.8537 71.5469 23.6756C71.2514 23.4976 70.9067 23.4086 70.5128 23.4086C70.0923 23.4086 69.723 23.5109 69.4048 23.7154C69.0866 23.9162 68.8385 24.1813 68.6605 24.5109C68.4863 24.8366 68.3973 25.1946 68.3935 25.5847V26.7949C68.3935 27.3025 68.4863 27.7381 68.6719 28.1018C68.8575 28.4616 69.117 28.7381 69.4503 28.9313C69.7836 29.1207 70.1738 29.2154 70.6207 29.2154C70.92 29.2154 71.1908 29.1737 71.4332 29.0904C71.6757 29.0033 71.8859 28.8764 72.0639 28.7097C72.242 28.5431 72.3764 28.3366 72.4673 28.0904L74.3878 28.3063C74.2666 28.8139 74.0355 29.2571 73.6946 29.6359C73.3575 30.0109 72.9257 30.3025 72.3991 30.5109C71.8726 30.7154 71.2704 30.8177 70.5923 30.8177ZM80.1818 30.6472V21.9199H82.2386V30.6472H80.1818ZM81.2159 20.6813C80.8902 20.6813 80.6098 20.5734 80.375 20.3574C80.1402 20.1377 80.0227 19.8745 80.0227 19.5677C80.0227 19.2571 80.1402 18.9938 80.375 18.7779C80.6098 18.5582 80.8902 18.4484 81.2159 18.4484C81.5455 18.4484 81.8258 18.5582 82.0568 18.7779C82.2917 18.9938 82.4091 19.2571 82.4091 19.5677C82.4091 19.8745 82.2917 20.1377 82.0568 20.3574C81.8258 20.5734 81.5455 20.6813 81.2159 20.6813ZM86.4105 25.5336V30.6472H84.3537V21.9199H86.3196V23.4029H86.4219C86.6226 22.9143 86.9427 22.526 87.3821 22.2381C87.8253 21.9502 88.3726 21.8063 89.0241 21.8063C89.6264 21.8063 90.151 21.9351 90.598 22.1927C91.0488 22.4502 91.3973 22.8234 91.6435 23.312C91.8935 23.8006 92.0166 24.3934 92.0128 25.0904V30.6472H89.956V25.4086C89.956 24.8252 89.8045 24.3688 89.5014 24.0393C89.2022 23.7097 88.7874 23.5449 88.2571 23.5449C87.8973 23.5449 87.5772 23.6245 87.2969 23.7836C87.0204 23.9389 86.8026 24.1643 86.6435 24.4597C86.4882 24.7552 86.4105 25.1131 86.4105 25.5336ZM98.5241 21.9199V23.5109H93.3651V21.9199H98.5241ZM94.6548 30.6472V21.0961C94.6548 20.509 94.776 20.0203 95.0185 19.6302C95.2647 19.24 95.5942 18.9484 96.0071 18.7552C96.42 18.562 96.8783 18.4654 97.3821 18.4654C97.7382 18.4654 98.0545 18.4938 98.331 18.5506C98.6075 18.6074 98.812 18.6586 98.9446 18.704L98.5355 20.2949C98.4484 20.2684 98.3385 20.2419 98.206 20.2154C98.0734 20.1851 97.9257 20.1699 97.7628 20.1699C97.3802 20.1699 97.1094 20.2627 96.9503 20.4484C96.795 20.6302 96.7173 20.8915 96.7173 21.2324V30.6472H94.6548ZM103.614 30.8177C102.761 30.8177 102.023 30.6302 101.398 30.2552C100.773 29.8802 100.288 29.3556 99.9432 28.6813C99.6023 28.0071 99.4318 27.2192 99.4318 26.3177C99.4318 25.4162 99.6023 24.6264 99.9432 23.9484C100.288 23.2703 100.773 22.7438 101.398 22.3688C102.023 21.9938 102.761 21.8063 103.614 21.8063C104.466 21.8063 105.205 21.9938 105.83 22.3688C106.455 22.7438 106.938 23.2703 107.278 23.9484C107.623 24.6264 107.795 25.4162 107.795 26.3177C107.795 27.2192 107.623 28.0071 107.278 28.6813C106.938 29.3556 106.455 29.8802 105.83 30.2552C105.205 30.6302 104.466 30.8177 103.614 30.8177ZM103.625 29.1699C104.087 29.1699 104.473 29.0431 104.784 28.7893C105.095 28.5317 105.326 28.187 105.477 27.7552C105.633 27.3234 105.71 26.8423 105.71 26.312C105.71 25.7779 105.633 25.2949 105.477 24.8631C105.326 24.4275 105.095 24.0809 104.784 23.8234C104.473 23.5658 104.087 23.437 103.625 23.437C103.152 23.437 102.758 23.5658 102.443 23.8234C102.133 24.0809 101.9 24.4275 101.744 24.8631C101.593 25.2949 101.517 25.7779 101.517 26.312C101.517 26.8423 101.593 27.3234 101.744 27.7552C101.9 28.187 102.133 28.5317 102.443 28.7893C102.758 29.0431 103.152 29.1699 103.625 29.1699ZM113.51 30.6472V21.9199H115.476V23.4029H115.578C115.76 22.9029 116.061 22.5127 116.482 22.2324C116.902 21.9484 117.404 21.8063 117.987 21.8063C118.578 21.8063 119.076 21.9502 119.482 22.2381C119.891 22.5222 120.179 22.9105 120.345 23.4029H120.436C120.629 22.918 120.955 22.5317 121.413 22.2438C121.875 21.9521 122.423 21.8063 123.055 21.8063C123.858 21.8063 124.514 22.0601 125.021 22.5677C125.529 23.0752 125.783 23.8158 125.783 24.7893V30.6472H123.72V25.1074C123.72 24.5658 123.576 24.1699 123.288 23.9199C123 23.6662 122.648 23.5393 122.232 23.5393C121.735 23.5393 121.347 23.6946 121.067 24.0052C120.79 24.312 120.652 24.7116 120.652 25.204V30.6472H118.635V25.0222C118.635 24.5715 118.499 24.2116 118.226 23.9427C117.957 23.6737 117.605 23.5393 117.169 23.5393C116.874 23.5393 116.605 23.615 116.362 23.7665C116.12 23.9143 115.927 24.1245 115.783 24.3972C115.639 24.6662 115.567 24.9805 115.567 25.3404V30.6472H113.51ZM131.733 30.8177C130.858 30.8177 130.102 30.6359 129.466 30.2722C128.833 29.9048 128.347 29.3859 128.006 28.7154C127.665 28.0412 127.494 27.2476 127.494 26.3347C127.494 25.437 127.665 24.6491 128.006 23.9711C128.35 23.2893 128.831 22.759 129.449 22.3802C130.066 21.9976 130.792 21.8063 131.625 21.8063C132.163 21.8063 132.67 21.8934 133.148 22.0677C133.629 22.2381 134.053 22.5033 134.42 22.8631C134.792 23.223 135.083 23.6813 135.295 24.2381C135.508 24.7912 135.614 25.4502 135.614 26.2154V26.8461H128.46V25.4597H133.642C133.638 25.0658 133.553 24.7154 133.386 24.4086C133.22 24.098 132.987 23.8537 132.688 23.6756C132.392 23.4976 132.047 23.4086 131.653 23.4086C131.233 23.4086 130.864 23.5109 130.545 23.7154C130.227 23.9162 129.979 24.1813 129.801 24.5109C129.627 24.8366 129.538 25.1946 129.534 25.5847V26.7949C129.534 27.3025 129.627 27.7381 129.812 28.1018C129.998 28.4616 130.258 28.7381 130.591 28.9313C130.924 29.1207 131.314 29.2154 131.761 29.2154C132.061 29.2154 132.331 29.1737 132.574 29.0904C132.816 29.0033 133.027 28.8764 133.205 28.7097C133.383 28.5431 133.517 28.3366 133.608 28.0904L135.528 28.3063C135.407 28.8139 135.176 29.2571 134.835 29.6359C134.498 30.0109 134.066 30.3025 133.54 30.5109C133.013 30.7154 132.411 30.8177 131.733 30.8177ZM144.251 24.2268L142.376 24.4313C142.323 24.2419 142.231 24.0639 142.098 23.8972C141.969 23.7306 141.795 23.5961 141.575 23.4938C141.356 23.3915 141.087 23.3404 140.768 23.3404C140.34 23.3404 139.981 23.4332 139.689 23.6188C139.401 23.8044 139.259 24.0449 139.263 24.3404C139.259 24.5942 139.352 24.8006 139.541 24.9597C139.734 25.1188 140.053 25.2495 140.496 25.3518L141.984 25.6699C142.81 25.848 143.424 26.1302 143.825 26.5165C144.231 26.9029 144.435 27.4086 144.439 28.0336C144.435 28.5828 144.274 29.0677 143.956 29.4881C143.642 29.9048 143.204 30.2306 142.643 30.4654C142.083 30.7002 141.439 30.8177 140.712 30.8177C139.643 30.8177 138.784 30.5942 138.132 30.1472C137.481 29.6965 137.092 29.0696 136.967 28.2665L138.973 28.0734C139.064 28.4673 139.257 28.7646 139.553 28.9654C139.848 29.1662 140.232 29.2665 140.706 29.2665C141.195 29.2665 141.587 29.1662 141.882 28.9654C142.181 28.7646 142.331 28.5165 142.331 28.2211C142.331 27.9711 142.234 27.7646 142.041 27.6018C141.852 27.4389 141.556 27.3139 141.155 27.2268L139.666 26.9143C138.829 26.74 138.21 26.4465 137.808 26.0336C137.407 25.6169 137.208 25.0904 137.212 24.454C137.208 23.9162 137.354 23.4502 137.649 23.0563C137.948 22.6586 138.363 22.3518 138.893 22.1359C139.428 21.9162 140.043 21.8063 140.74 21.8063C141.763 21.8063 142.568 22.0241 143.155 22.4597C143.746 22.8953 144.111 23.4843 144.251 24.2268ZM153.033 24.2268L151.158 24.4313C151.105 24.2419 151.012 24.0639 150.879 23.8972C150.75 23.7306 150.576 23.5961 150.357 23.4938C150.137 23.3915 149.868 23.3404 149.55 23.3404C149.122 23.3404 148.762 23.4332 148.47 23.6188C148.182 23.8044 148.04 24.0449 148.044 24.3404C148.04 24.5942 148.133 24.8006 148.322 24.9597C148.516 25.1188 148.834 25.2495 149.277 25.3518L150.766 25.6699C151.591 25.848 152.205 26.1302 152.607 26.5165C153.012 26.9029 153.216 27.4086 153.22 28.0336C153.216 28.5828 153.055 29.0677 152.737 29.4881C152.423 29.9048 151.985 30.2306 151.425 30.4654C150.864 30.7002 150.22 30.8177 149.493 30.8177C148.425 30.8177 147.565 30.5942 146.913 30.1472C146.262 29.6965 145.874 29.0696 145.749 28.2665L147.754 28.0734C147.845 28.4673 148.038 28.7646 148.334 28.9654C148.629 29.1662 149.014 29.2665 149.487 29.2665C149.976 29.2665 150.368 29.1662 150.663 28.9654C150.963 28.7646 151.112 28.5165 151.112 28.2211C151.112 27.9711 151.016 27.7646 150.822 27.6018C150.633 27.4389 150.338 27.3139 149.936 27.2268L148.447 26.9143C147.61 26.74 146.991 26.4465 146.589 26.0336C146.188 25.6169 145.989 25.0904 145.993 24.454C145.989 23.9162 146.135 23.4502 146.43 23.0563C146.73 22.6586 147.144 22.3518 147.675 22.1359C148.209 21.9162 148.824 21.8063 149.521 21.8063C150.544 21.8063 151.349 22.0241 151.936 22.4597C152.527 22.8953 152.893 23.4843 153.033 24.2268ZM157.428 30.8234C156.875 30.8234 156.376 30.7249 155.933 30.5279C155.494 30.3271 155.145 30.0317 154.888 29.6415C154.634 29.2514 154.507 28.7703 154.507 28.1984C154.507 27.7059 154.598 27.2987 154.78 26.9768C154.962 26.6548 155.21 26.3972 155.524 26.204C155.839 26.0109 156.193 25.865 156.587 25.7665C156.984 25.6643 157.395 25.5904 157.82 25.5449C158.331 25.4919 158.746 25.4446 159.064 25.4029C159.382 25.3574 159.613 25.2893 159.757 25.1984C159.905 25.1037 159.979 24.9578 159.979 24.7609V24.7268C159.979 24.2987 159.852 23.9673 159.598 23.7324C159.344 23.4976 158.979 23.3802 158.501 23.3802C157.998 23.3802 157.598 23.49 157.303 23.7097C157.011 23.9294 156.814 24.1889 156.712 24.4881L154.791 24.2154C154.943 23.6851 155.193 23.2419 155.541 22.8859C155.89 22.526 156.316 22.2571 156.82 22.079C157.323 21.8972 157.88 21.8063 158.49 21.8063C158.911 21.8063 159.329 21.8556 159.746 21.954C160.162 22.0525 160.543 22.2154 160.888 22.4427C161.232 22.6662 161.509 22.9711 161.717 23.3574C161.929 23.7438 162.036 24.2268 162.036 24.8063V30.6472H160.058V29.4484H159.99C159.865 29.6908 159.689 29.9181 159.462 30.1302C159.238 30.3385 158.956 30.5071 158.615 30.6359C158.278 30.7609 157.882 30.8234 157.428 30.8234ZM157.962 29.312C158.375 29.312 158.732 29.2306 159.036 29.0677C159.339 28.901 159.571 28.6813 159.734 28.4086C159.901 28.1359 159.984 27.8385 159.984 27.5165V26.4881C159.92 26.5412 159.81 26.5904 159.655 26.6359C159.503 26.6813 159.333 26.7211 159.143 26.7552C158.954 26.7893 158.767 26.8196 158.581 26.8461C158.395 26.8726 158.234 26.8953 158.098 26.9143C157.791 26.9559 157.517 27.0241 157.274 27.1188C157.032 27.2135 156.84 27.3461 156.7 27.5165C156.56 27.6832 156.49 27.8991 156.49 28.1643C156.49 28.5431 156.628 28.829 156.905 29.0222C157.181 29.2154 157.534 29.312 157.962 29.312ZM167.899 34.1018C167.161 34.1018 166.526 34.0014 165.996 33.8006C165.465 33.6037 165.039 33.3385 164.717 33.0052C164.395 32.6718 164.172 32.3025 164.047 31.8972L165.899 31.4484C165.982 31.6188 166.104 31.7874 166.263 31.954C166.422 32.1245 166.636 32.2646 166.905 32.3745C167.178 32.4881 167.52 32.5449 167.933 32.5449C168.517 32.5449 169 32.4029 169.382 32.1188C169.765 31.8385 169.956 31.3764 169.956 30.7324V29.079H169.854C169.748 29.2912 169.592 29.509 169.388 29.7324C169.187 29.9559 168.92 30.1434 168.587 30.2949C168.257 30.4465 167.842 30.5222 167.342 30.5222C166.672 30.5222 166.064 30.365 165.518 30.0506C164.977 29.7324 164.545 29.259 164.223 28.6302C163.905 27.9976 163.746 27.2059 163.746 26.2552C163.746 25.2968 163.905 24.4881 164.223 23.829C164.545 23.1662 164.979 22.6643 165.524 22.3234C166.07 21.9787 166.678 21.8063 167.348 21.8063C167.859 21.8063 168.28 21.8934 168.609 22.0677C168.943 22.2381 169.208 22.4446 169.405 22.687C169.602 22.9256 169.751 23.151 169.854 23.3631H169.967V21.9199H171.996V30.7893C171.996 31.5355 171.818 32.1529 171.462 32.6415C171.106 33.1302 170.619 33.4957 170.001 33.7381C169.384 33.9806 168.683 34.1018 167.899 34.1018ZM167.916 28.9086C168.352 28.9086 168.723 28.8025 169.03 28.5904C169.337 28.3783 169.57 28.0734 169.729 27.6756C169.888 27.2779 169.967 26.8006 169.967 26.2438C169.967 25.6946 169.888 25.2135 169.729 24.8006C169.573 24.3877 169.342 24.0677 169.036 23.8404C168.732 23.6093 168.359 23.4938 167.916 23.4938C167.458 23.4938 167.075 23.6131 166.768 23.8518C166.462 24.0904 166.231 24.4181 166.075 24.8347C165.92 25.2476 165.842 25.7173 165.842 26.2438C165.842 26.7779 165.92 27.2457 166.075 27.6472C166.234 28.0449 166.467 28.3555 166.774 28.579C167.085 28.7987 167.465 28.9086 167.916 28.9086ZM177.967 30.8177C177.092 30.8177 176.337 30.6359 175.7 30.2722C175.068 29.9048 174.581 29.3859 174.24 28.7154C173.899 28.0412 173.729 27.2476 173.729 26.3347C173.729 25.437 173.899 24.6491 174.24 23.9711C174.585 23.2893 175.066 22.759 175.683 22.3802C176.301 21.9976 177.026 21.8063 177.859 21.8063C178.397 21.8063 178.905 21.8934 179.382 22.0677C179.863 22.2381 180.287 22.5033 180.655 22.8631C181.026 23.223 181.318 23.6813 181.53 24.2381C181.742 24.7912 181.848 25.4502 181.848 26.2154V26.8461H174.695V25.4597H179.876C179.873 25.0658 179.787 24.7154 179.621 24.4086C179.454 24.098 179.221 23.8537 178.922 23.6756C178.626 23.4976 178.282 23.4086 177.888 23.4086C177.467 23.4086 177.098 23.5109 176.78 23.7154C176.462 23.9162 176.214 24.1813 176.036 24.5109C175.861 24.8366 175.772 25.1946 175.768 25.5847V26.7949C175.768 27.3025 175.861 27.7381 176.047 28.1018C176.232 28.4616 176.492 28.7381 176.825 28.9313C177.159 29.1207 177.549 29.2154 177.996 29.2154C178.295 29.2154 178.566 29.1737 178.808 29.0904C179.051 29.0033 179.261 28.8764 179.439 28.7097C179.617 28.5431 179.751 28.3366 179.842 28.0904L181.763 28.3063C181.642 28.8139 181.411 29.2571 181.07 29.6359C180.732 30.0109 180.301 30.3025 179.774 30.5109C179.248 30.7154 178.645 30.8177 177.967 30.8177Z" fill="#102DA3"/>
<path d="M44.875 52.6472H41.733V42.4654H45.0142C46.0019 42.4654 46.8471 42.6692 47.5497 43.0769C48.2524 43.4813 48.791 44.0629 49.1655 44.8219C49.54 45.5776 49.7273 46.4824 49.7273 47.5364C49.7273 48.597 49.5384 49.5101 49.1605 50.2758C48.7827 51.0381 48.2325 51.6247 47.5099 52.0357C46.7874 52.4434 45.9091 52.6472 44.875 52.6472ZM42.9659 51.5535H44.7955C45.6373 51.5535 46.335 51.3911 46.8885 51.0663C47.442 50.7414 47.8546 50.2791 48.1264 49.6792C48.3982 49.0793 48.5341 48.365 48.5341 47.5364C48.5341 46.7145 48.3999 46.0068 48.1314 45.4136C47.8629 44.817 47.4619 44.3596 46.9283 44.0414C46.3946 43.7199 45.7301 43.5591 44.9347 43.5591H42.9659V51.5535ZM54.8381 52.8063C54.1023 52.8063 53.4676 52.6439 52.9339 52.3191C52.4036 51.991 51.9943 51.5336 51.706 50.9469C51.4209 50.357 51.2784 49.6709 51.2784 48.8887C51.2784 48.1065 51.4209 47.4171 51.706 46.8205C51.9943 46.2206 52.3954 45.7533 52.9091 45.4185C53.4261 45.0805 54.0294 44.9114 54.7188 44.9114C55.1165 44.9114 55.5092 44.9777 55.897 45.1103C56.2848 45.2429 56.6378 45.4583 56.956 45.7566C57.2741 46.0516 57.5277 46.4427 57.7166 46.9299C57.9055 47.4171 58 48.017 58 48.7296V49.2268H52.1136V48.2126H56.8068C56.8068 47.7817 56.7206 47.3972 56.5483 47.0591C56.3793 46.7211 56.1373 46.4543 55.8224 46.2587C55.5109 46.0632 55.143 45.9654 54.7188 45.9654C54.2514 45.9654 53.8471 46.0814 53.5057 46.3134C53.1676 46.5421 52.9074 46.8404 52.7251 47.2083C52.5429 47.5762 52.4517 47.9706 52.4517 48.3915V49.0677C52.4517 49.6444 52.5511 50.1332 52.75 50.5343C52.9522 50.932 53.2322 51.2353 53.5902 51.4441C53.9482 51.6496 54.3641 51.7523 54.8381 51.7523C55.1463 51.7523 55.4247 51.7092 55.6733 51.6231C55.9252 51.5336 56.1423 51.401 56.3246 51.2253C56.5069 51.0464 56.6477 50.8243 56.7472 50.5591L57.8807 50.8773C57.7614 51.2618 57.5608 51.5999 57.2791 51.8915C56.9974 52.1799 56.6494 52.4053 56.2351 52.5677C55.8208 52.7268 55.3551 52.8063 54.8381 52.8063ZM65.1939 46.7211L64.1399 47.0194C64.0736 46.8437 63.9759 46.673 63.8466 46.5073C63.7206 46.3383 63.5483 46.1991 63.3295 46.0897C63.1108 45.9803 62.8307 45.9256 62.4893 45.9256C62.022 45.9256 61.6326 46.0333 61.321 46.2488C61.0128 46.4609 60.8587 46.731 60.8587 47.0591C60.8587 47.3508 60.9647 47.5812 61.1768 47.7502C61.389 47.9192 61.7204 48.0601 62.1712 48.1728L63.3047 48.4512C63.9875 48.6169 64.4962 48.8705 64.831 49.2118C65.1657 49.5499 65.3331 49.9858 65.3331 50.5194C65.3331 50.9569 65.2071 51.348 64.9553 51.6927C64.7067 52.0374 64.3587 52.3091 63.9112 52.508C63.4638 52.7069 62.9434 52.8063 62.3501 52.8063C61.5713 52.8063 60.9266 52.6373 60.4162 52.2992C59.9058 51.9611 59.5826 51.4673 59.4467 50.8177L60.5604 50.5393C60.6664 50.9502 60.867 51.2585 61.1619 51.464C61.4602 51.6695 61.8497 51.7722 62.3303 51.7722C62.8771 51.7722 63.3113 51.6562 63.6328 51.4242C63.9576 51.1889 64.12 50.9072 64.12 50.579C64.12 50.3139 64.0272 50.0918 63.8416 49.9128C63.656 49.7306 63.371 49.5947 62.9865 49.5052L61.7138 49.2069C61.0144 49.0412 60.5007 48.7843 60.1726 48.4363C59.8478 48.085 59.6854 47.6458 59.6854 47.1188C59.6854 46.6879 59.8063 46.3068 60.0483 45.9753C60.2936 45.6439 60.6267 45.3837 61.0476 45.1948C61.4718 45.0059 61.9524 44.9114 62.4893 44.9114C63.245 44.9114 63.8383 45.0771 64.2692 45.4086C64.7034 45.74 65.0116 46.1775 65.1939 46.7211ZM70.2015 52.8063C69.4856 52.8063 68.8691 52.6373 68.3521 52.2992C67.835 51.9611 67.4373 51.4955 67.1589 50.9022C66.8805 50.3089 66.7413 49.6311 66.7413 48.8688C66.7413 48.0932 66.8838 47.4088 67.1689 46.8155C67.4572 46.2189 67.8583 45.7533 68.372 45.4185C68.889 45.0805 69.4922 44.9114 70.1816 44.9114C70.7186 44.9114 71.2025 45.0109 71.6333 45.2097C72.0642 45.4086 72.4172 45.687 72.6923 46.0449C72.9674 46.4029 73.1381 46.8205 73.2044 47.2978H72.0311C71.9416 46.9498 71.7427 46.6415 71.4345 46.3731C71.1296 46.1013 70.7186 45.9654 70.2015 45.9654C69.7441 45.9654 69.3431 46.0847 68.9984 46.3234C68.657 46.5587 68.3902 46.8918 68.198 47.3226C68.0091 47.7502 67.9146 48.2523 67.9146 48.829C67.9146 49.419 68.0074 49.9327 68.193 50.3702C68.3819 50.8077 68.6471 51.1475 68.9885 51.3894C69.3332 51.6314 69.7375 51.7523 70.2015 51.7523C70.5065 51.7523 70.7832 51.6993 71.0318 51.5932C71.2804 51.4872 71.4908 51.3347 71.6632 51.1359C71.8355 50.937 71.9582 50.6984 72.0311 50.4199H73.2044C73.1381 50.8707 72.974 51.2767 72.7122 51.638C72.4537 51.9959 72.1106 52.281 71.6831 52.4931C71.2588 52.7019 70.765 52.8063 70.2015 52.8063ZM74.9196 52.6472V45.0109H76.0531V46.1643H76.1326C76.2718 45.7864 76.5237 45.4798 76.8883 45.2445C77.2529 45.0092 77.6639 44.8915 78.1213 44.8915C78.2074 44.8915 78.3152 44.8932 78.4444 44.8965C78.5737 44.8998 78.6715 44.9048 78.7377 44.9114V46.1046C78.698 46.0947 78.6068 46.0797 78.4643 46.0599C78.3251 46.0367 78.1776 46.0251 78.0218 46.0251C77.6506 46.0251 77.3192 46.1029 77.0275 46.2587C76.7392 46.4112 76.5105 46.6233 76.3414 46.8951C76.1757 47.1636 76.0929 47.4701 76.0929 47.8148V52.6472H74.9196ZM80.1286 52.6472V45.0109H81.3018V52.6472H80.1286ZM80.7251 43.7381C80.4964 43.7381 80.2992 43.6602 80.1335 43.5045C79.9711 43.3487 79.8899 43.1614 79.8899 42.9427C79.8899 42.7239 79.9711 42.5367 80.1335 42.3809C80.2992 42.2251 80.4964 42.1472 80.7251 42.1472C80.9538 42.1472 81.1494 42.2251 81.3118 42.3809C81.4775 42.5367 81.5604 42.7239 81.5604 42.9427C81.5604 43.1614 81.4775 43.3487 81.3118 43.5045C81.1494 43.6602 80.9538 43.7381 80.7251 43.7381ZM83.4508 55.5109V45.0109H84.5843V46.2239H84.7235C84.8097 46.0913 84.929 45.9223 85.0815 45.7168C85.2373 45.508 85.4593 45.3224 85.7477 45.16C86.0394 44.9943 86.4338 44.9114 86.9309 44.9114C87.5739 44.9114 88.1407 45.0722 88.6312 45.3937C89.1217 45.7152 89.5046 46.1709 89.7797 46.7609C90.0547 47.3508 90.1923 48.0468 90.1923 48.8489C90.1923 49.6576 90.0547 50.3586 89.7797 50.9519C89.5046 51.5419 89.1234 51.9993 88.6362 52.3241C88.149 52.6456 87.5872 52.8063 86.9508 52.8063C86.4603 52.8063 86.0675 52.7251 85.7725 52.5627C85.4776 52.397 85.2505 52.2097 85.0914 52.0009C84.9324 51.7888 84.8097 51.6131 84.7235 51.4739H84.6241V55.5109H83.4508ZM84.6042 48.829C84.6042 49.4057 84.6887 49.9145 84.8578 50.3553C85.0268 50.7928 85.2737 51.1359 85.5985 51.3844C85.9234 51.6297 86.3211 51.7523 86.7917 51.7523C87.2823 51.7523 87.6916 51.6231 88.0197 51.3645C88.3511 51.1027 88.5997 50.7514 88.7654 50.3106C88.9345 49.8664 89.019 49.3726 89.019 48.829C89.019 48.2921 88.9361 47.8082 88.7704 47.3773C88.608 46.9431 88.3611 46.6001 88.0297 46.3482C87.7015 46.093 87.2889 45.9654 86.7917 45.9654C86.3145 45.9654 85.9134 46.0864 85.5886 46.3283C85.2638 46.567 85.0185 46.9017 84.8528 47.3326C84.6871 47.7601 84.6042 48.259 84.6042 48.829ZM95.3031 45.0109V46.0052H91.3457V45.0109H95.3031ZM92.4991 43.1813H93.6724V50.4597C93.6724 50.7912 93.7205 51.0397 93.8166 51.2055C93.916 51.3679 94.042 51.4772 94.1944 51.5336C94.3502 51.5866 94.5143 51.6131 94.6866 51.6131C94.8159 51.6131 94.9219 51.6065 95.0048 51.5932C95.0877 51.5767 95.1539 51.5634 95.2037 51.5535L95.4423 52.6074C95.3627 52.6373 95.2517 52.6671 95.1092 52.6969C94.9667 52.7301 94.786 52.7466 94.5673 52.7466C94.2359 52.7466 93.911 52.6754 93.5929 52.5329C93.278 52.3904 93.0162 52.1733 92.8074 51.8816C92.6019 51.5899 92.4991 51.222 92.4991 50.7779V43.1813ZM97.068 52.6472V45.0109H98.2413V52.6472H97.068ZM97.6646 43.7381C97.4359 43.7381 97.2387 43.6602 97.073 43.5045C96.9106 43.3487 96.8294 43.1614 96.8294 42.9427C96.8294 42.7239 96.9106 42.5367 97.073 42.3809C97.2387 42.2251 97.4359 42.1472 97.6646 42.1472C97.8933 42.1472 98.0888 42.2251 98.2512 42.3809C98.417 42.5367 98.4998 42.7239 98.4998 42.9427C98.4998 43.1614 98.417 43.3487 98.2512 43.5045C98.0888 43.6602 97.8933 43.7381 97.6646 43.7381ZM103.493 52.8063C102.803 52.8063 102.198 52.6422 101.678 52.3141C101.161 51.986 100.757 51.527 100.465 50.937C100.176 50.347 100.032 49.6576 100.032 48.8688C100.032 48.0734 100.176 47.379 100.465 46.7857C100.757 46.1924 101.161 45.7317 101.678 45.4036C102.198 45.0755 102.803 44.9114 103.493 44.9114C104.182 44.9114 104.785 45.0755 105.302 45.4036C105.823 45.7317 106.227 46.1924 106.515 46.7857C106.807 47.379 106.953 48.0734 106.953 48.8688C106.953 49.6576 106.807 50.347 106.515 50.937C106.227 51.527 105.823 51.986 105.302 52.3141C104.785 52.6422 104.182 52.8063 103.493 52.8063ZM103.493 51.7523C104.016 51.7523 104.447 51.6181 104.785 51.3496C105.123 51.0812 105.373 50.7282 105.536 50.2907C105.698 49.8532 105.779 49.3792 105.779 48.8688C105.779 48.3584 105.698 47.8828 105.536 47.442C105.373 47.0011 105.123 46.6448 104.785 46.3731C104.447 46.1013 104.016 45.9654 103.493 45.9654C102.969 45.9654 102.538 46.1013 102.2 46.3731C101.862 46.6448 101.612 47.0011 101.449 47.442C101.287 47.8828 101.206 48.3584 101.206 48.8688C101.206 49.3792 101.287 49.8532 101.449 50.2907C101.612 50.7282 101.862 51.0812 102.2 51.3496C102.538 51.6181 102.969 51.7523 103.493 51.7523ZM109.917 48.0535V52.6472H108.744V45.0109H109.877V46.204H109.977C110.156 45.8163 110.427 45.5047 110.792 45.2694C111.157 45.0307 111.627 44.9114 112.204 44.9114C112.721 44.9114 113.173 45.0175 113.561 45.2296C113.949 45.4384 114.251 45.7566 114.466 46.1841C114.682 46.6084 114.789 47.1453 114.789 47.7949V52.6472H113.616V47.8745C113.616 47.2746 113.46 46.8073 113.149 46.4725C112.837 46.1344 112.41 45.9654 111.866 45.9654C111.491 45.9654 111.157 46.0466 110.862 46.209C110.57 46.3714 110.34 46.6084 110.171 46.9199C110.002 47.2315 109.917 47.6093 109.917 48.0535ZM120.871 52.6472V45.0109H122.044V52.6472H120.871ZM121.467 43.7381C121.239 43.7381 121.041 43.6602 120.876 43.5045C120.713 43.3487 120.632 43.1614 120.632 42.9427C120.632 42.7239 120.713 42.5367 120.876 42.3809C121.041 42.2251 121.239 42.1472 121.467 42.1472C121.696 42.1472 121.892 42.2251 122.054 42.3809C122.22 42.5367 122.303 42.7239 122.303 42.9427C122.303 43.1614 122.22 43.3487 122.054 43.5045C121.892 43.6602 121.696 43.7381 121.467 43.7381ZM125.366 48.0535V52.6472H124.193V45.0109H125.327V46.204H125.426C125.605 45.8163 125.877 45.5047 126.241 45.2694C126.606 45.0307 127.077 44.9114 127.653 44.9114C128.17 44.9114 128.623 45.0175 129.01 45.2296C129.398 45.4384 129.7 45.7566 129.915 46.1841C130.131 46.6084 130.238 47.1453 130.238 47.7949V52.6472H129.065V47.8745C129.065 47.2746 128.909 46.8073 128.598 46.4725C128.286 46.1344 127.859 45.9654 127.315 45.9654C126.941 45.9654 126.606 46.0466 126.311 46.209C126.019 46.3714 125.789 46.6084 125.62 46.9199C125.451 47.2315 125.366 47.6093 125.366 48.0535ZM135.783 45.0109V46.0052H131.667V45.0109H135.783ZM132.9 52.6472V43.9569C132.9 43.5194 133.002 43.1548 133.208 42.8631C133.413 42.5715 133.68 42.3527 134.008 42.2069C134.336 42.061 134.683 41.9881 135.047 41.9881C135.336 41.9881 135.571 42.0113 135.753 42.0577C135.935 42.1041 136.071 42.1472 136.161 42.187L135.823 43.2012C135.763 43.1813 135.68 43.1564 135.574 43.1266C135.471 43.0968 135.336 43.0819 135.167 43.0819C134.779 43.0819 134.499 43.1797 134.326 43.3752C134.157 43.5707 134.073 43.8574 134.073 44.2353V52.6472H132.9ZM140.215 52.8063C139.526 52.8063 138.921 52.6422 138.401 52.3141C137.884 51.986 137.479 51.527 137.188 50.937C136.899 50.347 136.755 49.6576 136.755 48.8688C136.755 48.0734 136.899 47.379 137.188 46.7857C137.479 46.1924 137.884 45.7317 138.401 45.4036C138.921 45.0755 139.526 44.9114 140.215 44.9114C140.905 44.9114 141.508 45.0755 142.025 45.4036C142.545 45.7317 142.95 46.1924 143.238 46.7857C143.53 47.379 143.675 48.0734 143.675 48.8688C143.675 49.6576 143.53 50.347 143.238 50.937C142.95 51.527 142.545 51.986 142.025 52.3141C141.508 52.6422 140.905 52.8063 140.215 52.8063ZM140.215 51.7523C140.739 51.7523 141.17 51.6181 141.508 51.3496C141.846 51.0812 142.096 50.7282 142.259 50.2907C142.421 49.8532 142.502 49.3792 142.502 48.8688C142.502 48.3584 142.421 47.8828 142.259 47.442C142.096 47.0011 141.846 46.6448 141.508 46.3731C141.17 46.1013 140.739 45.9654 140.215 45.9654C139.692 45.9654 139.261 46.1013 138.923 46.3731C138.585 46.6448 138.334 47.0011 138.172 47.442C138.009 47.8828 137.928 48.3584 137.928 48.8688C137.928 49.3792 138.009 49.8532 138.172 50.2907C138.334 50.7282 138.585 51.0812 138.923 51.3496C139.261 51.6181 139.692 51.7523 140.215 51.7523ZM149.404 52.6472V45.0109H150.537V46.204H150.637C150.796 45.7964 151.053 45.4798 151.407 45.2545C151.762 45.0258 152.188 44.9114 152.685 44.9114C153.189 44.9114 153.608 45.0258 153.943 45.2545C154.281 45.4798 154.545 45.7964 154.733 46.204H154.813C155.009 45.8096 155.302 45.4964 155.693 45.2644C156.084 45.0291 156.553 44.9114 157.1 44.9114C157.783 44.9114 158.341 45.1252 158.775 45.5528C159.21 45.977 159.427 46.6382 159.427 47.5364V52.6472H158.253V47.5364C158.253 46.973 158.099 46.5703 157.791 46.3283C157.483 46.0864 157.12 45.9654 156.702 45.9654C156.165 45.9654 155.749 46.1278 155.454 46.4526C155.159 46.7741 155.012 47.1818 155.012 47.6756V52.6472H153.819V47.4171C153.819 46.9829 153.678 46.6332 153.396 46.3681C153.114 46.0996 152.751 45.9654 152.307 45.9654C152.002 45.9654 151.717 46.0466 151.452 46.209C151.19 46.3714 150.978 46.5968 150.816 46.8851C150.657 47.1702 150.577 47.5 150.577 47.8745V52.6472H149.404ZM164.774 52.8063C164.038 52.8063 163.403 52.6439 162.869 52.3191C162.339 51.991 161.93 51.5336 161.642 50.9469C161.356 50.357 161.214 49.6709 161.214 48.8887C161.214 48.1065 161.356 47.4171 161.642 46.8205C161.93 46.2206 162.331 45.7533 162.845 45.4185C163.362 45.0805 163.965 44.9114 164.654 44.9114C165.052 44.9114 165.445 44.9777 165.833 45.1103C166.22 45.2429 166.573 45.4583 166.892 45.7566C167.21 46.0516 167.463 46.4427 167.652 46.9299C167.841 47.4171 167.936 48.017 167.936 48.7296V49.2268H162.049V48.2126H166.742C166.742 47.7817 166.656 47.3972 166.484 47.0591C166.315 46.7211 166.073 46.4543 165.758 46.2587C165.446 46.0632 165.079 45.9654 164.654 45.9654C164.187 45.9654 163.783 46.0814 163.441 46.3134C163.103 46.5421 162.843 46.8404 162.661 47.2083C162.478 47.5762 162.387 47.9706 162.387 48.3915V49.0677C162.387 49.6444 162.487 50.1332 162.686 50.5343C162.888 50.932 163.168 51.2353 163.526 51.4441C163.884 51.6496 164.3 51.7523 164.774 51.7523C165.082 51.7523 165.36 51.7092 165.609 51.6231C165.861 51.5336 166.078 51.401 166.26 51.2253C166.442 51.0464 166.583 50.8243 166.683 50.5591L167.816 50.8773C167.697 51.2618 167.496 51.5999 167.215 51.8915C166.933 52.1799 166.585 52.4053 166.171 52.5677C165.756 52.7268 165.291 52.8063 164.774 52.8063ZM175.129 46.7211L174.075 47.0194C174.009 46.8437 173.911 46.673 173.782 46.5073C173.656 46.3383 173.484 46.1991 173.265 46.0897C173.046 45.9803 172.766 45.9256 172.425 45.9256C171.958 45.9256 171.568 46.0333 171.257 46.2488C170.948 46.4609 170.794 46.731 170.794 47.0591C170.794 47.3508 170.9 47.5812 171.112 47.7502C171.325 47.9192 171.656 48.0601 172.107 48.1728L173.24 48.4512C173.923 48.6169 174.432 48.8705 174.767 49.2118C175.101 49.5499 175.269 49.9858 175.269 50.5194C175.269 50.9569 175.143 51.348 174.891 51.6927C174.642 52.0374 174.294 52.3091 173.847 52.508C173.399 52.7069 172.879 52.8063 172.286 52.8063C171.507 52.8063 170.862 52.6373 170.352 52.2992C169.841 51.9611 169.518 51.4673 169.382 50.8177L170.496 50.5393C170.602 50.9502 170.802 51.2585 171.097 51.464C171.396 51.6695 171.785 51.7722 172.266 51.7722C172.813 51.7722 173.247 51.6562 173.568 51.4242C173.893 51.1889 174.056 50.9072 174.056 50.579C174.056 50.3139 173.963 50.0918 173.777 49.9128C173.592 49.7306 173.307 49.5947 172.922 49.5052L171.649 49.2069C170.95 49.0412 170.436 48.7843 170.108 48.4363C169.783 48.085 169.621 47.6458 169.621 47.1188C169.621 46.6879 169.742 46.3068 169.984 45.9753C170.229 45.6439 170.562 45.3837 170.983 45.1948C171.407 45.0059 171.888 44.9114 172.425 44.9114C173.181 44.9114 173.774 45.0771 174.205 45.4086C174.639 45.74 174.947 46.1775 175.129 46.7211ZM182.444 46.7211L181.39 47.0194C181.324 46.8437 181.226 46.673 181.097 46.5073C180.971 46.3383 180.798 46.1991 180.58 46.0897C180.361 45.9803 180.081 45.9256 179.739 45.9256C179.272 45.9256 178.883 46.0333 178.571 46.2488C178.263 46.4609 178.109 46.731 178.109 47.0591C178.109 47.3508 178.215 47.5812 178.427 47.7502C178.639 47.9192 178.97 48.0601 179.421 48.1728L180.555 48.4512C181.237 48.6169 181.746 48.8705 182.081 49.2118C182.416 49.5499 182.583 49.9858 182.583 50.5194C182.583 50.9569 182.457 51.348 182.205 51.6927C181.957 52.0374 181.609 52.3091 181.161 52.508C180.714 52.7069 180.193 52.8063 179.6 52.8063C178.821 52.8063 178.177 52.6373 177.666 52.2992C177.156 51.9611 176.833 51.4673 176.697 50.8177L177.81 50.5393C177.916 50.9502 178.117 51.2585 178.412 51.464C178.71 51.6695 179.1 51.7722 179.58 51.7722C180.127 51.7722 180.561 51.6562 180.883 51.4242C181.208 51.1889 181.37 50.9072 181.37 50.579C181.37 50.3139 181.277 50.0918 181.092 49.9128C180.906 49.7306 180.621 49.5947 180.237 49.5052L178.964 49.2069C178.264 49.0412 177.751 48.7843 177.423 48.4363C177.098 48.085 176.935 47.6458 176.935 47.1188C176.935 46.6879 177.056 46.3068 177.298 45.9753C177.544 45.6439 177.877 45.3837 178.298 45.1948C178.722 45.0059 179.202 44.9114 179.739 44.9114C180.495 44.9114 181.088 45.0771 181.519 45.4086C181.953 45.74 182.262 46.1775 182.444 46.7211ZM186.596 52.8262C186.113 52.8262 185.673 52.735 185.279 52.5528C184.885 52.3672 184.571 52.1003 184.339 51.7523C184.107 51.401 183.991 50.9768 183.991 50.4796C183.991 50.0421 184.077 49.6875 184.25 49.4157C184.422 49.1406 184.653 48.9252 184.941 48.7694C185.229 48.6136 185.547 48.4976 185.895 48.4214C186.247 48.3418 186.6 48.2788 186.954 48.2324C187.418 48.1728 187.795 48.128 188.083 48.0982C188.375 48.0651 188.587 48.0104 188.719 47.9341C188.855 47.8579 188.923 47.7253 188.923 47.5364V47.4966C188.923 47.0061 188.789 46.625 188.52 46.3532C188.255 46.0814 187.853 45.9455 187.312 45.9455C186.752 45.9455 186.313 46.0681 185.995 46.3134C185.677 46.5587 185.453 46.8205 185.324 47.0989L184.21 46.7012C184.409 46.2372 184.674 45.8759 185.006 45.6174C185.34 45.3555 185.705 45.1733 186.099 45.0705C186.497 44.9645 186.888 44.9114 187.273 44.9114C187.518 44.9114 187.8 44.9413 188.118 45.0009C188.439 45.0573 188.749 45.1749 189.047 45.3539C189.349 45.5329 189.599 45.803 189.798 46.1643C189.997 46.5255 190.096 47.0094 190.096 47.616V52.6472H188.923V51.6131H188.863C188.784 51.7788 188.651 51.9562 188.466 52.1451C188.28 52.334 188.033 52.4948 187.725 52.6273C187.417 52.7599 187.041 52.8262 186.596 52.8262ZM186.775 51.7722C187.239 51.7722 187.631 51.6811 187.949 51.4988C188.27 51.3165 188.512 51.0812 188.675 50.7928C188.84 50.5045 188.923 50.2012 188.923 49.883V48.8091C188.873 48.8688 188.764 48.9235 188.595 48.9732C188.429 49.0196 188.237 49.061 188.018 49.0975C187.803 49.1306 187.592 49.1605 187.387 49.187C187.185 49.2102 187.021 49.2301 186.895 49.2466C186.59 49.2864 186.305 49.3511 186.04 49.4405C185.778 49.5267 185.566 49.6576 185.403 49.8333C185.244 50.0056 185.165 50.241 185.165 50.5393C185.165 50.9469 185.315 51.2552 185.617 51.464C185.922 51.6695 186.308 51.7722 186.775 51.7722ZM195.32 55.6699C194.754 55.6699 194.266 55.597 193.859 55.4512C193.451 55.3087 193.111 55.1198 192.839 54.8844C192.571 54.6524 192.357 54.4038 192.198 54.1387L193.133 53.4824C193.239 53.6216 193.373 53.7807 193.536 53.9597C193.698 54.142 193.92 54.2994 194.202 54.432C194.487 54.5679 194.86 54.6359 195.32 54.6359C195.937 54.6359 196.446 54.4867 196.847 54.1884C197.248 53.8901 197.448 53.4228 197.448 52.7864V51.2353H197.349C197.263 51.3745 197.14 51.5468 196.981 51.7523C196.825 51.9545 196.6 52.1351 196.305 52.2942C196.013 52.45 195.619 52.5279 195.121 52.5279C194.505 52.5279 193.951 52.3821 193.461 52.0904C192.974 51.7987 192.588 51.3745 192.303 50.8177C192.021 50.2609 191.88 49.5847 191.88 48.7893C191.88 48.0071 192.018 47.326 192.293 46.7459C192.568 46.1626 192.951 45.7118 193.441 45.3937C193.932 45.0722 194.498 44.9114 195.141 44.9114C195.638 44.9114 196.033 44.9943 196.325 45.16C196.62 45.3224 196.845 45.508 197.001 45.7168C197.16 45.9223 197.282 46.0913 197.369 46.2239H197.488V45.0109H198.621V52.866C198.621 53.5222 198.472 54.0558 198.174 54.4668C197.879 54.8811 197.481 55.1844 196.981 55.3766C196.484 55.5722 195.93 55.6699 195.32 55.6699ZM195.281 51.4739C195.751 51.4739 196.149 51.3662 196.474 51.1508C196.799 50.9353 197.045 50.6254 197.214 50.2211C197.384 49.8167 197.468 49.3328 197.468 48.7694C197.468 48.2192 197.385 47.7336 197.219 47.3127C197.054 46.8918 196.808 46.562 196.484 46.3234C196.159 46.0847 195.758 45.9654 195.281 45.9654C194.783 45.9654 194.369 46.0913 194.038 46.3432C193.71 46.5951 193.463 46.9332 193.297 47.3574C193.134 47.7817 193.053 48.2523 193.053 48.7694C193.053 49.2997 193.136 49.7687 193.302 50.1763C193.471 50.5807 193.719 50.8989 194.048 51.1309C194.379 51.3596 194.79 51.4739 195.281 51.4739ZM203.971 52.8063C203.235 52.8063 202.6 52.6439 202.067 52.3191C201.536 51.991 201.127 51.5336 200.839 50.9469C200.554 50.357 200.411 49.6709 200.411 48.8887C200.411 48.1065 200.554 47.4171 200.839 46.8205C201.127 46.2206 201.528 45.7533 202.042 45.4185C202.559 45.0805 203.162 44.9114 203.852 44.9114C204.249 44.9114 204.642 44.9777 205.03 45.1103C205.418 45.2429 205.771 45.4583 206.089 45.7566C206.407 46.0516 206.661 46.4427 206.849 46.9299C207.038 47.4171 207.133 48.017 207.133 48.7296V49.2268H201.246V48.2126H205.94C205.94 47.7817 205.853 47.3972 205.681 47.0591C205.512 46.7211 205.27 46.4543 204.955 46.2587C204.644 46.0632 204.276 45.9654 203.852 45.9654C203.384 45.9654 202.98 46.0814 202.638 46.3134C202.3 46.5421 202.04 46.8404 201.858 47.2083C201.676 47.5762 201.585 47.9706 201.585 48.3915V49.0677C201.585 49.6444 201.684 50.1332 201.883 50.5343C202.085 50.932 202.365 51.2353 202.723 51.4441C203.081 51.6496 203.497 51.7523 203.971 51.7523C204.279 51.7523 204.558 51.7092 204.806 51.6231C205.058 51.5336 205.275 51.401 205.457 51.2253C205.64 51.0464 205.781 50.8243 205.88 50.5591L207.013 50.8773C206.894 51.2618 206.694 51.5999 206.412 51.8915C206.13 52.1799 205.782 52.4053 205.368 52.5677C204.954 52.7268 204.488 52.8063 203.971 52.8063Z" fill="#333333"/>
<path d="M245.623 24.9533L245.27 24.5998L244.916 24.9533L241.586 28.2833C241.566 28.3034 241.536 28.3169 241.5 28.3169C241.464 28.3169 241.434 28.3034 241.413 28.2833C241.393 28.2632 241.38 28.2332 241.38 28.1969C241.38 28.1605 241.393 28.1305 241.413 28.1104L244.743 24.7804L245.097 24.4269L244.743 24.0733L241.413 20.7433C241.393 20.7232 241.38 20.6932 241.38 20.6569C241.38 20.6205 241.393 20.5905 241.413 20.5704C241.434 20.5503 241.464 20.5369 241.5 20.5369C241.536 20.5369 241.566 20.5503 241.586 20.5704L244.916 23.9004L245.27 24.254L245.623 23.9004L248.953 20.5704C248.974 20.5503 249.004 20.5369 249.04 20.5369C249.076 20.5369 249.106 20.5503 249.126 20.5704C249.146 20.5905 249.16 20.6205 249.16 20.6569C249.16 20.6932 249.146 20.7232 249.126 20.7433L245.796 24.0733L245.443 24.4269L245.796 24.7804L249.126 28.1104C249.146 28.1305 249.16 28.1605 249.16 28.1969C249.16 28.2332 249.146 28.2632 249.126 28.2833C249.106 28.3034 249.076 28.3169 249.04 28.3169C249.004 28.3169 248.974 28.3034 248.953 28.2833L245.623 24.9533Z" fill="#0F67F5" stroke="#757575"/>
<rect x="229.5" y="8.64722" width="32" height="32" rx="4" stroke="#757575"/>
<rect x="1" y="1.14722" width="268" height="69" rx="3.5" stroke="white"/>
<defs>
<clipPath id="clip0_10204_88747">
<rect width="16" height="16" fill="white" transform="translate(16.5 17.6472)"/>
</clipPath>
</defs>
</svg>
