<svg width="375" height="264" viewBox="0 0 375 264" fill="none" xmlns="http://www.w3.org/2000/svg">
<g clip-path="url(#clip0_822_9223)">
<rect width="375" height="264" fill="#333333" fill-opacity="0.6"/>
<g filter="url(#filter0_dd_822_9223)">
<rect width="304" height="265" fill="white"/>
<mask id="path-1-inside-1_822_9223" fill="white">
<path d="M0 0H304V64H0V0Z"/>
</mask>
<path d="M0 0H304V64H0V0Z" fill="white"/>
<path d="M33.4058 37.69H33.3102C33.208 37.69 33.1165 37.6531 33.0537 37.5867L33.0488 37.5815L33.0438 37.5764L28.0038 32.5364L27.6502 32.1829L27.2967 32.5364L22.2567 37.5764C22.1119 37.7212 21.8685 37.7212 21.7238 37.5764C21.579 37.4317 21.579 37.1883 21.7238 37.0436L26.7638 32.0036L27.1173 31.65L26.7638 31.2964L21.7338 26.2664C21.5891 26.1217 21.5891 25.8783 21.7338 25.7336C21.8785 25.5888 22.1219 25.5888 22.2667 25.7336L27.3067 30.7736L27.6602 31.1271L28.0138 30.7736L33.0538 25.7336C33.1985 25.5888 33.4419 25.5888 33.5867 25.7336C33.7314 25.8783 33.7314 26.1217 33.5867 26.2664L28.5467 31.3064L28.1931 31.66L28.5467 32.0136L33.5867 37.0536C33.7314 37.1983 33.7314 37.4417 33.5867 37.5864C33.5327 37.6405 33.4709 37.6744 33.4058 37.69Z" fill="#0F67F5" stroke="#757575"/>
<g clip-path="url(#clip1_822_9223)">
<path d="M115.072 40.9554C115.069 41.1019 115.008 41.2413 114.902 41.3433C114.796 41.4452 114.654 41.5015 114.506 41.4998H90.0704C89.922 41.4998 89.7796 41.4412 89.6747 41.3368C89.5697 41.2324 89.5107 41.0908 89.5107 40.9431C89.5107 34.2136 95.4152 28.7749 102.291 28.7749C109.168 28.7749 115.072 34.183 115.072 40.9125V40.9554Z" fill="#F74E4E"/>
<path d="M112.55 27.5082C113.939 27.5082 115.065 26.388 115.065 25.0061C115.065 23.6242 113.939 22.5039 112.55 22.5039C111.16 22.5039 110.034 23.6242 110.034 25.0061C110.034 26.388 111.16 27.5082 112.55 27.5082Z" fill="#F74E4E"/>
<path d="M77.6589 40.9367C77.6589 41.086 77.5993 41.2291 77.4932 41.3347C77.3871 41.4402 77.2432 41.4995 77.0931 41.4995H56.4399C56.2898 41.4995 56.1459 41.4402 56.0398 41.3347C55.9336 41.2291 55.874 41.086 55.874 40.9367C55.8778 40.8257 55.9118 40.7179 55.9724 40.6247L66.2929 22.7547C66.3477 22.6801 66.4187 22.6187 66.5007 22.5752C66.5828 22.5318 66.6736 22.5074 66.7665 22.5039C66.8591 22.5045 66.9501 22.5276 67.0316 22.5714C67.1131 22.6151 67.1826 22.6781 67.2339 22.7547L77.5605 40.6247C77.624 40.7166 77.6583 40.8252 77.6589 40.9367Z" fill="#FFB71B"/>
<path d="M143.734 22.5039C143.632 22.5048 143.532 22.5392 143.451 22.6018L131.15 31.6683C131.067 31.7304 130.965 31.7628 130.861 31.7601C130.769 31.7618 130.678 31.734 130.603 31.6805H130.566L118.37 22.6324C118.291 22.5751 118.196 22.5431 118.099 22.5406C117.956 22.5485 117.823 22.6121 117.727 22.7175C117.632 22.8229 117.582 22.9616 117.588 23.1034V40.9428C117.585 41.0127 117.596 41.0826 117.62 41.1484C117.644 41.2143 117.68 41.2748 117.728 41.3265C117.775 41.3782 117.832 41.4201 117.896 41.4498C117.96 41.4795 118.029 41.4964 118.099 41.4995H143.734C143.877 41.4932 144.011 41.4311 144.108 41.3269C144.204 41.2226 144.256 41.0846 144.251 40.9428V23.0667C144.256 22.9243 144.205 22.7856 144.108 22.6804C144.011 22.5752 143.877 22.5118 143.734 22.5039V22.5039Z" fill="#4FBF5E"/>
<path d="M90.2 22.5349H87.2417C87.1677 22.5333 87.0973 22.503 87.0456 22.4504C86.9939 22.3978 86.9649 22.3271 86.9649 22.2535V18.0629C86.9649 17.9884 86.9501 17.9147 86.9213 17.8461C86.8924 17.7774 86.8502 17.715 86.797 17.6627C86.7438 17.6104 86.6807 17.569 86.6113 17.5411C86.542 17.5132 86.4677 17.4992 86.3929 17.5H80.7406C80.5906 17.5 80.4467 17.5593 80.3405 17.6649C80.2344 17.7704 80.1748 17.9136 80.1748 18.0629V40.9433C80.1764 41.0915 80.2368 41.2331 80.3427 41.3373C80.4486 41.4415 80.5916 41.5 80.7406 41.5H86.3929C86.5419 41.5 86.6849 41.4415 86.7909 41.3373C86.8968 41.2331 86.9571 41.0915 86.9588 40.9433V29.5642C86.9579 29.5276 86.9645 29.4911 86.978 29.457C86.9916 29.4229 87.0118 29.3918 87.0376 29.3656C87.0634 29.3394 87.0942 29.3186 87.1282 29.3044C87.1622 29.2901 87.1987 29.2828 87.2355 29.2828H90.2C90.3501 29.2828 90.494 29.2235 90.6002 29.118C90.7063 29.0124 90.7659 28.8693 90.7659 28.72V23.0978C90.7659 22.9485 90.7063 22.8053 90.6002 22.6998C90.494 22.5942 90.3501 22.5349 90.2 22.5349Z" fill="#71C5FF"/>
</g>
<path d="M304 63H0V65H304V63Z" fill="#EEEEEE" mask="url(#path-1-inside-1_822_9223)"/>
<rect width="304" height="48" transform="translate(0 72)" fill="white"/>
<path d="M17.1477 102V90.3636H21.5114C22.4053 90.3636 23.1553 90.5303 23.7614 90.8636C24.3712 91.197 24.8314 91.6553 25.142 92.2386C25.4564 92.8182 25.6136 93.4773 25.6136 94.2159C25.6136 94.9621 25.4564 95.625 25.142 96.2045C24.8277 96.7841 24.3636 97.2405 23.75 97.5739C23.1364 97.9034 22.3807 98.0682 21.483 98.0682H18.5909V96.3352H21.1989C21.7216 96.3352 22.1496 96.2443 22.483 96.0625C22.8163 95.8807 23.0625 95.6307 23.2216 95.3125C23.3845 94.9943 23.4659 94.6288 23.4659 94.2159C23.4659 93.803 23.3845 93.4394 23.2216 93.125C23.0625 92.8106 22.8144 92.5663 22.4773 92.392C22.1439 92.214 21.714 92.125 21.1875 92.125H19.2557V102H17.1477ZM29.7088 102.176C29.1558 102.176 28.6577 102.078 28.2145 101.881C27.7751 101.68 27.4266 101.384 27.169 100.994C26.9152 100.604 26.7884 100.123 26.7884 99.5511C26.7884 99.0587 26.8793 98.6515 27.0611 98.3295C27.2429 98.0076 27.491 97.75 27.8054 97.5568C28.1198 97.3636 28.474 97.2178 28.8679 97.1193C29.2656 97.017 29.6766 96.9432 30.1009 96.8977C30.6122 96.8447 31.027 96.7973 31.3452 96.7557C31.6634 96.7102 31.8944 96.642 32.0384 96.5511C32.1861 96.4564 32.2599 96.3106 32.2599 96.1136V96.0795C32.2599 95.6515 32.133 95.3201 31.8793 95.0852C31.6255 94.8504 31.2599 94.733 30.7827 94.733C30.2789 94.733 29.8793 94.8428 29.5838 95.0625C29.2921 95.2822 29.0952 95.5417 28.9929 95.8409L27.0724 95.5682C27.224 95.0379 27.474 94.5947 27.8224 94.2386C28.1709 93.8788 28.5971 93.6098 29.1009 93.4318C29.6046 93.25 30.1615 93.1591 30.7713 93.1591C31.1918 93.1591 31.6103 93.2083 32.027 93.3068C32.4437 93.4053 32.8243 93.5682 33.169 93.7955C33.5137 94.0189 33.7902 94.3239 33.9986 94.7102C34.2107 95.0966 34.3168 95.5795 34.3168 96.1591V102H32.3395V100.801H32.2713C32.1463 101.044 31.9702 101.271 31.7429 101.483C31.5194 101.691 31.2372 101.86 30.8963 101.989C30.5592 102.114 30.1634 102.176 29.7088 102.176ZM30.2429 100.665C30.6558 100.665 31.0137 100.583 31.3168 100.42C31.6198 100.254 31.8527 100.034 32.0156 99.7614C32.1823 99.4886 32.2656 99.1913 32.2656 98.8693V97.8409C32.2012 97.8939 32.0914 97.9432 31.9361 97.9886C31.7846 98.0341 31.6141 98.0739 31.4247 98.108C31.2353 98.142 31.0478 98.1723 30.8622 98.1989C30.6766 98.2254 30.5156 98.2481 30.3793 98.267C30.0724 98.3087 29.7978 98.3769 29.5554 98.4716C29.313 98.5663 29.1217 98.6989 28.9815 98.8693C28.8414 99.036 28.7713 99.2519 28.7713 99.517C28.7713 99.8958 28.9096 100.182 29.1861 100.375C29.4626 100.568 29.8149 100.665 30.2429 100.665ZM36.3849 102V93.2727H38.3793V94.7273H38.4702C38.6293 94.2235 38.902 93.8352 39.2884 93.5625C39.6785 93.286 40.1236 93.1477 40.6236 93.1477C40.7372 93.1477 40.8641 93.1534 41.0043 93.1648C41.1482 93.1723 41.2675 93.1856 41.3622 93.2045V95.0966C41.2751 95.0663 41.1368 95.0398 40.9474 95.017C40.7618 94.9905 40.5819 94.9773 40.4077 94.9773C40.0327 94.9773 39.6955 95.0587 39.3963 95.2216C39.1009 95.3807 38.8679 95.6023 38.6974 95.8864C38.527 96.1705 38.4418 96.4981 38.4418 96.8693V102H36.3849ZM46.233 102.17C45.358 102.17 44.6023 101.989 43.9659 101.625C43.3333 101.258 42.8466 100.739 42.5057 100.068C42.1648 99.3939 41.9943 98.6004 41.9943 97.6875C41.9943 96.7898 42.1648 96.0019 42.5057 95.3239C42.8504 94.642 43.3314 94.1117 43.9489 93.733C44.5663 93.3504 45.2917 93.1591 46.125 93.1591C46.6629 93.1591 47.1705 93.2462 47.6477 93.4205C48.1288 93.5909 48.553 93.8561 48.9205 94.2159C49.2917 94.5758 49.5833 95.0341 49.7955 95.5909C50.0076 96.1439 50.1136 96.803 50.1136 97.5682V98.1989H42.9602V96.8125H48.142C48.1383 96.4186 48.053 96.0682 47.8864 95.7614C47.7197 95.4508 47.4867 95.2064 47.1875 95.0284C46.892 94.8504 46.5473 94.7614 46.1534 94.7614C45.733 94.7614 45.3636 94.8636 45.0455 95.0682C44.7273 95.2689 44.4792 95.5341 44.3011 95.8636C44.1269 96.1894 44.0379 96.5473 44.0341 96.9375V98.1477C44.0341 98.6553 44.1269 99.0909 44.3125 99.4545C44.4981 99.8144 44.7576 100.091 45.0909 100.284C45.4242 100.473 45.8144 100.568 46.2614 100.568C46.5606 100.568 46.8314 100.527 47.0739 100.443C47.3163 100.356 47.5265 100.229 47.7045 100.062C47.8826 99.8958 48.017 99.6894 48.108 99.4432L50.0284 99.6591C49.9072 100.167 49.6761 100.61 49.3352 100.989C48.9981 101.364 48.5663 101.655 48.0398 101.864C47.5133 102.068 46.911 102.17 46.233 102.17ZM53.9105 96.8864V102H51.8537V93.2727H53.8196V94.7557H53.9219C54.1226 94.267 54.4427 93.8788 54.8821 93.5909C55.3253 93.303 55.8726 93.1591 56.5241 93.1591C57.1264 93.1591 57.651 93.2879 58.098 93.5455C58.5488 93.803 58.8973 94.1761 59.1435 94.6648C59.3935 95.1534 59.5166 95.7462 59.5128 96.4432V102H57.456V96.7614C57.456 96.178 57.3045 95.7216 57.0014 95.392C56.7022 95.0625 56.2874 94.8977 55.7571 94.8977C55.3973 94.8977 55.0772 94.9773 54.7969 95.1364C54.5204 95.2917 54.3026 95.517 54.1435 95.8125C53.9882 96.108 53.9105 96.4659 53.9105 96.8864ZM65.9616 93.2727V94.8636H60.9446V93.2727H65.9616ZM62.1832 91.1818H64.2401V99.375C64.2401 99.6515 64.2817 99.8636 64.3651 100.011C64.4522 100.155 64.5658 100.254 64.706 100.307C64.8461 100.36 65.0014 100.386 65.1719 100.386C65.3007 100.386 65.4181 100.377 65.5241 100.358C65.634 100.339 65.7173 100.322 65.7741 100.307L66.1207 101.915C66.0109 101.953 65.8537 101.994 65.6491 102.04C65.4484 102.085 65.2022 102.112 64.9105 102.119C64.3954 102.134 63.9313 102.057 63.5185 101.886C63.1056 101.712 62.7779 101.443 62.5355 101.08C62.2969 100.716 62.1795 100.261 62.1832 99.7159V91.1818ZM74.4545 95.5795L72.5795 95.7841C72.5265 95.5947 72.4337 95.4167 72.3011 95.25C72.1723 95.0833 71.9981 94.9489 71.7784 94.8466C71.5587 94.7443 71.2898 94.6932 70.9716 94.6932C70.5436 94.6932 70.1837 94.786 69.892 94.9716C69.6042 95.1572 69.4621 95.3977 69.4659 95.6932C69.4621 95.947 69.5549 96.1534 69.7443 96.3125C69.9375 96.4716 70.2557 96.6023 70.6989 96.7045L72.1875 97.0227C73.0133 97.2008 73.6269 97.483 74.0284 97.8693C74.4337 98.2557 74.6383 98.7614 74.642 99.3864C74.6383 99.9356 74.4773 100.42 74.1591 100.841C73.8447 101.258 73.4072 101.583 72.8466 101.818C72.286 102.053 71.642 102.17 70.9148 102.17C69.8466 102.17 68.9867 101.947 68.3352 101.5C67.6837 101.049 67.2955 100.422 67.1705 99.6193L69.1761 99.4261C69.267 99.8201 69.4602 100.117 69.7557 100.318C70.0511 100.519 70.4356 100.619 70.9091 100.619C71.3977 100.619 71.7898 100.519 72.0852 100.318C72.3845 100.117 72.5341 99.8693 72.5341 99.5739C72.5341 99.3239 72.4375 99.1174 72.2443 98.9545C72.0549 98.7917 71.7595 98.6667 71.358 98.5795L69.8693 98.267C69.0322 98.0928 68.4129 97.7992 68.0114 97.3864C67.6098 96.9697 67.411 96.4432 67.4148 95.8068C67.411 95.2689 67.5568 94.803 67.8523 94.4091C68.1515 94.0114 68.5663 93.7045 69.0966 93.4886C69.6307 93.2689 70.2462 93.1591 70.9432 93.1591C71.9659 93.1591 72.7708 93.3769 73.358 93.8125C73.9489 94.2481 74.3144 94.8371 74.4545 95.5795Z" fill="#1F1F1F"/>
<path d="M282 99.88C281.78 99.88 281.55 99.79 281.38 99.62L276 94.24L270.62 99.62C270.28 99.96 269.72 99.96 269.38 99.62C269.04 99.28 269.04 98.72 269.38 98.38L275.38 92.38C275.72 92.04 276.28 92.04 276.62 92.38L282.62 98.38C282.96 98.72 282.96 99.28 282.62 99.62C282.45 99.79 282.23 99.88 282 99.88Z" fill="#545454"/>
<rect width="304" height="48" transform="translate(0 120)" fill="white"/>
<path d="M37.2955 138.364V150H35.8864V139.841H35.8182L32.9773 141.727V140.295L35.8864 138.364H37.2955ZM44.733 138.364V150H43.3239V139.841H43.2557L40.4148 141.727V140.295L43.3239 138.364H44.733ZM51.5114 147.955V140.455H52.7841V147.955H51.5114ZM48.3977 144.841V143.568H55.8977V144.841H48.3977ZM66.6719 153.455C66.0241 153.455 65.4673 153.371 65.0014 153.205C64.5355 153.042 64.1473 152.826 63.8366 152.557C63.5298 152.292 63.2855 152.008 63.1037 151.705L64.1719 150.955C64.2931 151.114 64.4465 151.295 64.6321 151.5C64.8177 151.708 65.0715 151.888 65.3935 152.04C65.7192 152.195 66.1454 152.273 66.6719 152.273C67.3764 152.273 67.9579 152.102 68.4162 151.761C68.8745 151.42 69.1037 150.886 69.1037 150.159V148.386H68.9901C68.8916 148.545 68.7514 148.742 68.5696 148.977C68.3916 149.208 68.134 149.415 67.7969 149.597C67.4635 149.775 67.0128 149.864 66.4446 149.864C65.7401 149.864 65.1075 149.697 64.5469 149.364C63.9901 149.03 63.5488 148.545 63.223 147.909C62.901 147.273 62.7401 146.5 62.7401 145.591C62.7401 144.697 62.8973 143.919 63.2116 143.256C63.526 142.589 63.9635 142.074 64.5241 141.71C65.0848 141.343 65.7325 141.159 66.4673 141.159C67.0355 141.159 67.4863 141.254 67.8196 141.443C68.1567 141.629 68.4143 141.841 68.5923 142.08C68.7741 142.314 68.9143 142.508 69.0128 142.659H69.1491V141.273H70.4446V150.25C70.4446 151 70.2741 151.61 69.9332 152.08C69.5961 152.553 69.1416 152.9 68.5696 153.119C68.0014 153.343 67.3688 153.455 66.6719 153.455ZM66.6264 148.659C67.1643 148.659 67.6188 148.536 67.9901 148.29C68.3613 148.044 68.6435 147.689 68.8366 147.227C69.0298 146.765 69.1264 146.212 69.1264 145.568C69.1264 144.939 69.0317 144.384 68.8423 143.903C68.6529 143.422 68.3726 143.045 68.0014 142.773C67.6302 142.5 67.1719 142.364 66.6264 142.364C66.0582 142.364 65.5848 142.508 65.206 142.795C64.831 143.083 64.5488 143.47 64.3594 143.955C64.1738 144.439 64.081 144.977 64.081 145.568C64.081 146.174 64.1757 146.71 64.3651 147.176C64.5582 147.638 64.8423 148.002 65.2173 148.267C65.5961 148.528 66.0658 148.659 66.6264 148.659ZM72.8991 150V141.273H74.1946V142.591H74.2855C74.4446 142.159 74.7325 141.809 75.1491 141.54C75.5658 141.271 76.0355 141.136 76.5582 141.136C76.6567 141.136 76.7798 141.138 76.9276 141.142C77.0753 141.146 77.187 141.152 77.2628 141.159V142.523C77.2173 142.511 77.1132 142.494 76.9503 142.472C76.7912 142.445 76.6226 142.432 76.4446 142.432C76.0204 142.432 75.6416 142.521 75.3082 142.699C74.9787 142.873 74.7173 143.116 74.5241 143.426C74.3348 143.733 74.2401 144.083 74.2401 144.477V150H72.8991ZM81.4205 150.205C80.8674 150.205 80.3655 150.1 79.9148 149.892C79.464 149.68 79.1061 149.375 78.8409 148.977C78.5758 148.576 78.4432 148.091 78.4432 147.523C78.4432 147.023 78.5417 146.617 78.7386 146.307C78.9356 145.992 79.1989 145.746 79.5284 145.568C79.858 145.39 80.2216 145.258 80.6193 145.17C81.0208 145.08 81.4242 145.008 81.8295 144.955C82.3598 144.886 82.7898 144.835 83.1193 144.801C83.4527 144.763 83.6951 144.701 83.8466 144.614C84.0019 144.527 84.0795 144.375 84.0795 144.159V144.114C84.0795 143.553 83.9261 143.117 83.6193 142.807C83.3163 142.496 82.8561 142.341 82.2386 142.341C81.5985 142.341 81.0966 142.481 80.733 142.761C80.3693 143.042 80.1136 143.341 79.9659 143.659L78.6932 143.205C78.9205 142.674 79.2235 142.261 79.6023 141.966C79.9848 141.667 80.4015 141.458 80.8523 141.341C81.3068 141.22 81.7538 141.159 82.1932 141.159C82.4735 141.159 82.7955 141.193 83.1591 141.261C83.5265 141.326 83.8807 141.46 84.2216 141.665C84.5663 141.869 84.8523 142.178 85.0795 142.591C85.3068 143.004 85.4205 143.557 85.4205 144.25V150H84.0795V148.818H84.0114C83.9205 149.008 83.7689 149.21 83.5568 149.426C83.3447 149.642 83.0625 149.826 82.7102 149.977C82.358 150.129 81.928 150.205 81.4205 150.205ZM81.625 149C82.1553 149 82.6023 148.896 82.9659 148.688C83.3333 148.479 83.6098 148.21 83.7955 147.881C83.9848 147.551 84.0795 147.205 84.0795 146.841V145.614C84.0227 145.682 83.8977 145.744 83.7045 145.801C83.5152 145.854 83.2955 145.902 83.0455 145.943C82.7992 145.981 82.5587 146.015 82.3239 146.045C82.0928 146.072 81.9053 146.095 81.7614 146.114C81.4129 146.159 81.0871 146.233 80.7841 146.335C80.4848 146.434 80.2424 146.583 80.0568 146.784C79.875 146.981 79.7841 147.25 79.7841 147.591C79.7841 148.057 79.9564 148.409 80.3011 148.648C80.6496 148.883 81.0909 149 81.625 149ZM87.8679 150V141.273H89.1634V142.636H89.277C89.4588 142.17 89.7524 141.809 90.1577 141.551C90.563 141.29 91.0497 141.159 91.6179 141.159C92.1937 141.159 92.6728 141.29 93.0554 141.551C93.4418 141.809 93.7429 142.17 93.9588 142.636H94.0497C94.2732 142.186 94.6084 141.828 95.0554 141.562C95.5024 141.294 96.0384 141.159 96.6634 141.159C97.4437 141.159 98.0819 141.403 98.5781 141.892C99.0743 142.377 99.3224 143.133 99.3224 144.159V150H97.9815V144.159C97.9815 143.515 97.8054 143.055 97.4531 142.778C97.1009 142.502 96.6861 142.364 96.2088 142.364C95.5952 142.364 95.1198 142.549 94.7827 142.92C94.4455 143.288 94.277 143.754 94.277 144.318V150H92.9134V144.023C92.9134 143.527 92.7524 143.127 92.4304 142.824C92.1084 142.517 91.6937 142.364 91.1861 142.364C90.8376 142.364 90.5118 142.456 90.2088 142.642C89.9096 142.828 89.6671 143.085 89.4815 143.415C89.2997 143.741 89.2088 144.117 89.2088 144.545V150H87.8679ZM101.774 150V141.273H103.07V142.636H103.183C103.365 142.17 103.659 141.809 104.064 141.551C104.469 141.29 104.956 141.159 105.524 141.159C106.1 141.159 106.579 141.29 106.962 141.551C107.348 141.809 107.649 142.17 107.865 142.636H107.956C108.179 142.186 108.515 141.828 108.962 141.562C109.409 141.294 109.945 141.159 110.57 141.159C111.35 141.159 111.988 141.403 112.484 141.892C112.981 142.377 113.229 143.133 113.229 144.159V150H111.888V144.159C111.888 143.515 111.712 143.055 111.359 142.778C111.007 142.502 110.592 142.364 110.115 142.364C109.501 142.364 109.026 142.549 108.689 142.92C108.352 143.288 108.183 143.754 108.183 144.318V150H106.82V144.023C106.82 143.527 106.659 143.127 106.337 142.824C106.015 142.517 105.6 142.364 105.092 142.364C104.744 142.364 104.418 142.456 104.115 142.642C103.816 142.828 103.573 143.085 103.388 143.415C103.206 143.741 103.115 144.117 103.115 144.545V150H101.774ZM118.249 150.205C117.696 150.205 117.194 150.1 116.743 149.892C116.292 149.68 115.934 149.375 115.669 148.977C115.404 148.576 115.271 148.091 115.271 147.523C115.271 147.023 115.37 146.617 115.567 146.307C115.764 145.992 116.027 145.746 116.357 145.568C116.686 145.39 117.05 145.258 117.447 145.17C117.849 145.08 118.252 145.008 118.658 144.955C119.188 144.886 119.618 144.835 119.947 144.801C120.281 144.763 120.523 144.701 120.675 144.614C120.83 144.527 120.908 144.375 120.908 144.159V144.114C120.908 143.553 120.754 143.117 120.447 142.807C120.144 142.496 119.684 142.341 119.067 142.341C118.427 142.341 117.925 142.481 117.561 142.761C117.197 143.042 116.942 143.341 116.794 143.659L115.521 143.205C115.749 142.674 116.052 142.261 116.43 141.966C116.813 141.667 117.23 141.458 117.68 141.341C118.135 141.22 118.582 141.159 119.021 141.159C119.302 141.159 119.624 141.193 119.987 141.261C120.355 141.326 120.709 141.46 121.05 141.665C121.394 141.869 121.68 142.178 121.908 142.591C122.135 143.004 122.249 143.557 122.249 144.25V150H120.908V148.818H120.839C120.749 149.008 120.597 149.21 120.385 149.426C120.173 149.642 119.891 149.826 119.538 149.977C119.186 150.129 118.756 150.205 118.249 150.205ZM118.453 149C118.983 149 119.43 148.896 119.794 148.688C120.161 148.479 120.438 148.21 120.624 147.881C120.813 147.551 120.908 147.205 120.908 146.841V145.614C120.851 145.682 120.726 145.744 120.533 145.801C120.343 145.854 120.124 145.902 119.874 145.943C119.627 145.981 119.387 146.015 119.152 146.045C118.921 146.072 118.733 146.095 118.589 146.114C118.241 146.159 117.915 146.233 117.612 146.335C117.313 146.434 117.071 146.583 116.885 146.784C116.703 146.981 116.612 147.25 116.612 147.591C116.612 148.057 116.785 148.409 117.129 148.648C117.478 148.883 117.919 149 118.453 149ZM124.696 150V141.273H125.991V142.591H126.082C126.241 142.159 126.529 141.809 126.946 141.54C127.363 141.271 127.832 141.136 128.355 141.136C128.454 141.136 128.577 141.138 128.724 141.142C128.872 141.146 128.984 141.152 129.06 141.159V142.523C129.014 142.511 128.91 142.494 128.747 142.472C128.588 142.445 128.42 142.432 128.241 142.432C127.817 142.432 127.438 142.521 127.105 142.699C126.776 142.873 126.514 143.116 126.321 143.426C126.132 143.733 126.037 144.083 126.037 144.477V150H124.696ZM138.808 150.182C137.967 150.182 137.242 149.996 136.632 149.625C136.026 149.25 135.558 148.727 135.229 148.057C134.903 147.383 134.74 146.598 134.74 145.705C134.74 144.811 134.903 144.023 135.229 143.341C135.558 142.655 136.017 142.121 136.604 141.739C137.195 141.352 137.884 141.159 138.672 141.159C139.126 141.159 139.575 141.235 140.018 141.386C140.462 141.538 140.865 141.784 141.229 142.125C141.592 142.462 141.882 142.909 142.098 143.466C142.314 144.023 142.422 144.708 142.422 145.523V146.091H135.695V144.932H141.058C141.058 144.439 140.96 144 140.763 143.614C140.57 143.227 140.293 142.922 139.933 142.699C139.577 142.475 139.157 142.364 138.672 142.364C138.138 142.364 137.676 142.496 137.286 142.761C136.899 143.023 136.602 143.364 136.393 143.784C136.185 144.205 136.081 144.655 136.081 145.136V145.909C136.081 146.568 136.195 147.127 136.422 147.585C136.653 148.04 136.973 148.386 137.382 148.625C137.791 148.86 138.267 148.977 138.808 148.977C139.161 148.977 139.479 148.928 139.763 148.83C140.051 148.727 140.299 148.576 140.507 148.375C140.715 148.17 140.876 147.917 140.99 147.614L142.286 147.977C142.149 148.417 141.92 148.803 141.598 149.136C141.276 149.466 140.878 149.723 140.405 149.909C139.931 150.091 139.399 150.182 138.808 150.182ZM145.227 141.273L147.318 144.841L149.409 141.273H150.955L148.136 145.636L150.955 150H149.409L147.318 146.614L145.227 150H143.682L146.455 145.636L143.682 141.273H145.227ZM155.436 150.205C154.883 150.205 154.381 150.1 153.93 149.892C153.48 149.68 153.122 149.375 152.857 148.977C152.591 148.576 152.459 148.091 152.459 147.523C152.459 147.023 152.557 146.617 152.754 146.307C152.951 145.992 153.214 145.746 153.544 145.568C153.874 145.39 154.237 145.258 154.635 145.17C155.036 145.08 155.44 145.008 155.845 144.955C156.375 144.886 156.805 144.835 157.135 144.801C157.468 144.763 157.711 144.701 157.862 144.614C158.018 144.527 158.095 144.375 158.095 144.159V144.114C158.095 143.553 157.942 143.117 157.635 142.807C157.332 142.496 156.872 142.341 156.254 142.341C155.614 142.341 155.112 142.481 154.749 142.761C154.385 143.042 154.129 143.341 153.982 143.659L152.709 143.205C152.936 142.674 153.239 142.261 153.618 141.966C154 141.667 154.417 141.458 154.868 141.341C155.322 141.22 155.769 141.159 156.209 141.159C156.489 141.159 156.811 141.193 157.175 141.261C157.542 141.326 157.896 141.46 158.237 141.665C158.582 141.869 158.868 142.178 159.095 142.591C159.322 143.004 159.436 143.557 159.436 144.25V150H158.095V148.818H158.027C157.936 149.008 157.785 149.21 157.572 149.426C157.36 149.642 157.078 149.826 156.726 149.977C156.374 150.129 155.944 150.205 155.436 150.205ZM155.641 149C156.171 149 156.618 148.896 156.982 148.688C157.349 148.479 157.625 148.21 157.811 147.881C158 147.551 158.095 147.205 158.095 146.841V145.614C158.038 145.682 157.913 145.744 157.72 145.801C157.531 145.854 157.311 145.902 157.061 145.943C156.815 145.981 156.574 146.015 156.339 146.045C156.108 146.072 155.921 146.095 155.777 146.114C155.429 146.159 155.103 146.233 154.8 146.335C154.5 146.434 154.258 146.583 154.072 146.784C153.891 146.981 153.8 147.25 153.8 147.591C153.8 148.057 153.972 148.409 154.317 148.648C154.665 148.883 155.107 149 155.641 149ZM161.884 150V141.273H163.179V142.636H163.293C163.474 142.17 163.768 141.809 164.173 141.551C164.579 141.29 165.065 141.159 165.634 141.159C166.209 141.159 166.688 141.29 167.071 141.551C167.457 141.809 167.759 142.17 167.974 142.636H168.065C168.289 142.186 168.624 141.828 169.071 141.562C169.518 141.294 170.054 141.159 170.679 141.159C171.459 141.159 172.098 141.403 172.594 141.892C173.09 142.377 173.338 143.133 173.338 144.159V150H171.997V144.159C171.997 143.515 171.821 143.055 171.469 142.778C171.116 142.502 170.702 142.364 170.224 142.364C169.611 142.364 169.135 142.549 168.798 142.92C168.461 143.288 168.293 143.754 168.293 144.318V150H166.929V144.023C166.929 143.527 166.768 143.127 166.446 142.824C166.124 142.517 165.709 142.364 165.202 142.364C164.853 142.364 164.527 142.456 164.224 142.642C163.925 142.828 163.683 143.085 163.497 143.415C163.315 143.741 163.224 144.117 163.224 144.545V150H161.884ZM181.972 143.227L180.767 143.568C180.691 143.367 180.58 143.172 180.432 142.983C180.288 142.79 180.091 142.631 179.841 142.506C179.591 142.381 179.271 142.318 178.881 142.318C178.347 142.318 177.902 142.441 177.545 142.688C177.193 142.93 177.017 143.239 177.017 143.614C177.017 143.947 177.138 144.21 177.381 144.403C177.623 144.597 178.002 144.758 178.517 144.886L179.812 145.205C180.593 145.394 181.174 145.684 181.557 146.074C181.939 146.46 182.131 146.958 182.131 147.568C182.131 148.068 181.987 148.515 181.699 148.909C181.415 149.303 181.017 149.614 180.506 149.841C179.994 150.068 179.4 150.182 178.722 150.182C177.831 150.182 177.095 149.989 176.511 149.602C175.928 149.216 175.559 148.652 175.403 147.909L176.676 147.591C176.797 148.061 177.027 148.413 177.364 148.648C177.705 148.883 178.15 149 178.699 149C179.324 149 179.82 148.867 180.188 148.602C180.559 148.333 180.744 148.011 180.744 147.636C180.744 147.333 180.638 147.08 180.426 146.875C180.214 146.667 179.888 146.511 179.449 146.409L177.994 146.068C177.195 145.879 176.608 145.585 176.233 145.188C175.862 144.786 175.676 144.284 175.676 143.682C175.676 143.189 175.814 142.754 176.091 142.375C176.371 141.996 176.752 141.699 177.233 141.483C177.718 141.267 178.267 141.159 178.881 141.159C179.744 141.159 180.422 141.348 180.915 141.727C181.411 142.106 181.763 142.606 181.972 143.227Z" fill="#333333"/>
<mask id="path-13-inside-2_822_9223" fill="white">
<path d="M0 168H304V216H0V168Z"/>
</mask>
<path d="M0 168H304V216H0V168Z" fill="#F0F6FE"/>
<path d="M35.2557 186.364V198H33.1477V186.364H35.2557ZM39.5043 192.886V198H37.4474V189.273H39.4134V190.756H39.5156C39.7164 190.267 40.0365 189.879 40.4759 189.591C40.919 189.303 41.4664 189.159 42.1179 189.159C42.7202 189.159 43.2448 189.288 43.6918 189.545C44.1425 189.803 44.491 190.176 44.7372 190.665C44.9872 191.153 45.1103 191.746 45.1065 192.443V198H43.0497V192.761C43.0497 192.178 42.8982 191.722 42.5952 191.392C42.2959 191.062 41.8812 190.898 41.3509 190.898C40.991 190.898 40.6709 190.977 40.3906 191.136C40.1141 191.292 39.8963 191.517 39.7372 191.812C39.5819 192.108 39.5043 192.466 39.5043 192.886ZM50.4361 198.153C49.7505 198.153 49.1368 197.977 48.5952 197.625C48.0535 197.273 47.6255 196.761 47.3111 196.091C46.9967 195.42 46.8395 194.606 46.8395 193.648C46.8395 192.678 46.9986 191.86 47.3168 191.193C47.6387 190.523 48.0724 190.017 48.6179 189.676C49.1634 189.331 49.7713 189.159 50.4418 189.159C50.9531 189.159 51.3736 189.246 51.7031 189.42C52.0327 189.591 52.294 189.797 52.4872 190.04C52.6804 190.278 52.83 190.504 52.9361 190.716H53.0213V186.364H55.0838V198H53.0611V196.625H52.9361C52.83 196.837 52.6766 197.062 52.4759 197.301C52.2751 197.536 52.0099 197.737 51.6804 197.903C51.3509 198.07 50.9361 198.153 50.4361 198.153ZM51.0099 196.466C51.4455 196.466 51.8168 196.348 52.1236 196.114C52.4304 195.875 52.6634 195.544 52.8224 195.119C52.9815 194.695 53.0611 194.201 53.0611 193.636C53.0611 193.072 52.9815 192.581 52.8224 192.165C52.6671 191.748 52.4361 191.424 52.1293 191.193C51.8262 190.962 51.4531 190.847 51.0099 190.847C50.5516 190.847 50.169 190.966 49.8622 191.205C49.5554 191.443 49.3243 191.773 49.169 192.193C49.0137 192.614 48.9361 193.095 48.9361 193.636C48.9361 194.182 49.0137 194.669 49.169 195.097C49.3281 195.521 49.5611 195.856 49.8679 196.102C50.1785 196.345 50.5592 196.466 51.0099 196.466ZM61.1392 198.17C60.2642 198.17 59.5085 197.989 58.8722 197.625C58.2396 197.258 57.7528 196.739 57.4119 196.068C57.071 195.394 56.9006 194.6 56.9006 193.688C56.9006 192.79 57.071 192.002 57.4119 191.324C57.7566 190.642 58.2377 190.112 58.8551 189.733C59.4725 189.35 60.1979 189.159 61.0312 189.159C61.5691 189.159 62.0767 189.246 62.554 189.42C63.035 189.591 63.4593 189.856 63.8267 190.216C64.1979 190.576 64.4896 191.034 64.7017 191.591C64.9138 192.144 65.0199 192.803 65.0199 193.568V194.199H57.8665V192.812H63.0483C63.0445 192.419 62.9593 192.068 62.7926 191.761C62.6259 191.451 62.393 191.206 62.0938 191.028C61.7983 190.85 61.4536 190.761 61.0597 190.761C60.6392 190.761 60.2699 190.864 59.9517 191.068C59.6335 191.269 59.3854 191.534 59.2074 191.864C59.0331 192.189 58.9441 192.547 58.9403 192.938V194.148C58.9403 194.655 59.0331 195.091 59.2188 195.455C59.4044 195.814 59.6638 196.091 59.9972 196.284C60.3305 196.473 60.7206 196.568 61.1676 196.568C61.4669 196.568 61.7377 196.527 61.9801 196.443C62.2225 196.356 62.4328 196.229 62.6108 196.062C62.7888 195.896 62.9233 195.689 63.0142 195.443L64.9347 195.659C64.8134 196.167 64.5824 196.61 64.2415 196.989C63.9044 197.364 63.4725 197.655 62.946 197.864C62.4195 198.068 61.8172 198.17 61.1392 198.17ZM66.7599 201.273V189.273H68.7827V190.716H68.902C69.008 190.504 69.1577 190.278 69.3509 190.04C69.544 189.797 69.8054 189.591 70.1349 189.42C70.4645 189.246 70.8849 189.159 71.3963 189.159C72.0705 189.159 72.6785 189.331 73.2202 189.676C73.7656 190.017 74.1974 190.523 74.5156 191.193C74.8376 191.86 74.9986 192.678 74.9986 193.648C74.9986 194.606 74.8414 195.42 74.527 196.091C74.2126 196.761 73.7846 197.273 73.2429 197.625C72.7012 197.977 72.0876 198.153 71.402 198.153C70.902 198.153 70.4872 198.07 70.1577 197.903C69.8281 197.737 69.563 197.536 69.3622 197.301C69.1652 197.062 69.0118 196.837 68.902 196.625H68.8168V201.273H66.7599ZM68.777 193.636C68.777 194.201 68.8565 194.695 69.0156 195.119C69.1785 195.544 69.4115 195.875 69.7145 196.114C70.0213 196.348 70.3925 196.466 70.8281 196.466C71.2827 196.466 71.6634 196.345 71.9702 196.102C72.277 195.856 72.508 195.521 72.6634 195.097C72.8224 194.669 72.902 194.182 72.902 193.636C72.902 193.095 72.8243 192.614 72.669 192.193C72.5137 191.773 72.2827 191.443 71.9759 191.205C71.669 190.966 71.2865 190.847 70.8281 190.847C70.3887 190.847 70.0156 190.962 69.7088 191.193C69.402 191.424 69.169 191.748 69.0099 192.165C68.8546 192.581 68.777 193.072 68.777 193.636ZM80.6236 198.17C79.7486 198.17 78.9929 197.989 78.3565 197.625C77.724 197.258 77.2372 196.739 76.8963 196.068C76.5554 195.394 76.3849 194.6 76.3849 193.688C76.3849 192.79 76.5554 192.002 76.8963 191.324C77.241 190.642 77.7221 190.112 78.3395 189.733C78.9569 189.35 79.6823 189.159 80.5156 189.159C81.0535 189.159 81.5611 189.246 82.0384 189.42C82.5194 189.591 82.9437 189.856 83.3111 190.216C83.6823 190.576 83.974 191.034 84.1861 191.591C84.3982 192.144 84.5043 192.803 84.5043 193.568V194.199H77.3509V192.812H82.5327C82.5289 192.419 82.4437 192.068 82.277 191.761C82.1103 191.451 81.8774 191.206 81.5781 191.028C81.2827 190.85 80.938 190.761 80.544 190.761C80.1236 190.761 79.7543 190.864 79.4361 191.068C79.1179 191.269 78.8698 191.534 78.6918 191.864C78.5175 192.189 78.4285 192.547 78.4247 192.938V194.148C78.4247 194.655 78.5175 195.091 78.7031 195.455C78.8887 195.814 79.1482 196.091 79.4815 196.284C79.8149 196.473 80.205 196.568 80.652 196.568C80.9512 196.568 81.2221 196.527 81.4645 196.443C81.7069 196.356 81.9171 196.229 82.0952 196.062C82.2732 195.896 82.4077 195.689 82.4986 195.443L84.419 195.659C84.2978 196.167 84.0668 196.61 83.7259 196.989C83.3887 197.364 82.9569 197.655 82.4304 197.864C81.9039 198.068 81.3016 198.17 80.6236 198.17ZM88.3011 192.886V198H86.2443V189.273H88.2102V190.756H88.3125C88.5133 190.267 88.8333 189.879 89.2727 189.591C89.7159 189.303 90.2633 189.159 90.9148 189.159C91.517 189.159 92.0417 189.288 92.4886 189.545C92.9394 189.803 93.2879 190.176 93.5341 190.665C93.7841 191.153 93.9072 191.746 93.9034 192.443V198H91.8466V192.761C91.8466 192.178 91.6951 191.722 91.392 191.392C91.0928 191.062 90.678 190.898 90.1477 190.898C89.7879 190.898 89.4678 190.977 89.1875 191.136C88.911 191.292 88.6932 191.517 88.5341 191.812C88.3788 192.108 88.3011 192.466 88.3011 192.886ZM99.233 198.153C98.5473 198.153 97.9337 197.977 97.392 197.625C96.8504 197.273 96.4223 196.761 96.108 196.091C95.7936 195.42 95.6364 194.606 95.6364 193.648C95.6364 192.678 95.7955 191.86 96.1136 191.193C96.4356 190.523 96.8693 190.017 97.4148 189.676C97.9602 189.331 98.5682 189.159 99.2386 189.159C99.75 189.159 100.17 189.246 100.5 189.42C100.83 189.591 101.091 189.797 101.284 190.04C101.477 190.278 101.627 190.504 101.733 190.716H101.818V186.364H103.881V198H101.858V196.625H101.733C101.627 196.837 101.473 197.062 101.273 197.301C101.072 197.536 100.807 197.737 100.477 197.903C100.148 198.07 99.733 198.153 99.233 198.153ZM99.8068 196.466C100.242 196.466 100.614 196.348 100.92 196.114C101.227 195.875 101.46 195.544 101.619 195.119C101.778 194.695 101.858 194.201 101.858 193.636C101.858 193.072 101.778 192.581 101.619 192.165C101.464 191.748 101.233 191.424 100.926 191.193C100.623 190.962 100.25 190.847 99.8068 190.847C99.3485 190.847 98.9659 190.966 98.6591 191.205C98.3523 191.443 98.1212 191.773 97.9659 192.193C97.8106 192.614 97.733 193.095 97.733 193.636C97.733 194.182 97.8106 194.669 97.9659 195.097C98.125 195.521 98.358 195.856 98.6648 196.102C98.9754 196.345 99.3561 196.466 99.8068 196.466ZM109.936 198.17C109.061 198.17 108.305 197.989 107.669 197.625C107.036 197.258 106.55 196.739 106.209 196.068C105.868 195.394 105.697 194.6 105.697 193.688C105.697 192.79 105.868 192.002 106.209 191.324C106.554 190.642 107.035 190.112 107.652 189.733C108.269 189.35 108.995 189.159 109.828 189.159C110.366 189.159 110.874 189.246 111.351 189.42C111.832 189.591 112.256 189.856 112.624 190.216C112.995 190.576 113.286 191.034 113.499 191.591C113.711 192.144 113.817 192.803 113.817 193.568V194.199H106.663V192.812H111.845C111.841 192.419 111.756 192.068 111.589 191.761C111.423 191.451 111.19 191.206 110.891 191.028C110.595 190.85 110.25 190.761 109.857 190.761C109.436 190.761 109.067 190.864 108.749 191.068C108.43 191.269 108.182 191.534 108.004 191.864C107.83 192.189 107.741 192.547 107.737 192.938V194.148C107.737 194.655 107.83 195.091 108.016 195.455C108.201 195.814 108.461 196.091 108.794 196.284C109.127 196.473 109.518 196.568 109.964 196.568C110.264 196.568 110.535 196.527 110.777 196.443C111.019 196.356 111.23 196.229 111.408 196.062C111.586 195.896 111.72 195.689 111.811 195.443L113.732 195.659C113.61 196.167 113.379 196.61 113.038 196.989C112.701 197.364 112.269 197.655 111.743 197.864C111.216 198.068 110.614 198.17 109.936 198.17ZM117.614 192.886V198H115.557V189.273H117.523V190.756H117.625C117.826 190.267 118.146 189.879 118.585 189.591C119.028 189.303 119.576 189.159 120.227 189.159C120.83 189.159 121.354 189.288 121.801 189.545C122.252 189.803 122.6 190.176 122.847 190.665C123.097 191.153 123.22 191.746 123.216 192.443V198H121.159V192.761C121.159 192.178 121.008 191.722 120.705 191.392C120.405 191.062 119.991 190.898 119.46 190.898C119.1 190.898 118.78 190.977 118.5 191.136C118.223 191.292 118.006 191.517 117.847 191.812C117.691 192.108 117.614 192.466 117.614 192.886ZM129.665 189.273V190.864H124.648V189.273H129.665ZM125.886 187.182H127.943V195.375C127.943 195.652 127.985 195.864 128.068 196.011C128.155 196.155 128.269 196.254 128.409 196.307C128.549 196.36 128.705 196.386 128.875 196.386C129.004 196.386 129.121 196.377 129.227 196.358C129.337 196.339 129.42 196.322 129.477 196.307L129.824 197.915C129.714 197.953 129.557 197.994 129.352 198.04C129.152 198.085 128.905 198.112 128.614 198.119C128.098 198.134 127.634 198.057 127.222 197.886C126.809 197.712 126.481 197.443 126.239 197.08C126 196.716 125.883 196.261 125.886 195.716V187.182ZM139.217 198.17C138.342 198.17 137.587 197.989 136.95 197.625C136.318 197.258 135.831 196.739 135.49 196.068C135.149 195.394 134.979 194.6 134.979 193.688C134.979 192.79 135.149 192.002 135.49 191.324C135.835 190.642 136.316 190.112 136.933 189.733C137.551 189.35 138.276 189.159 139.109 189.159C139.647 189.159 140.155 189.246 140.632 189.42C141.113 189.591 141.537 189.856 141.905 190.216C142.276 190.576 142.568 191.034 142.78 191.591C142.992 192.144 143.098 192.803 143.098 193.568V194.199H135.945V192.812H141.126C141.123 192.419 141.037 192.068 140.871 191.761C140.704 191.451 140.471 191.206 140.172 191.028C139.876 190.85 139.532 190.761 139.138 190.761C138.717 190.761 138.348 190.864 138.03 191.068C137.712 191.269 137.464 191.534 137.286 191.864C137.111 192.189 137.022 192.547 137.018 192.938V194.148C137.018 194.655 137.111 195.091 137.297 195.455C137.482 195.814 137.742 196.091 138.075 196.284C138.409 196.473 138.799 196.568 139.246 196.568C139.545 196.568 139.816 196.527 140.058 196.443C140.301 196.356 140.511 196.229 140.689 196.062C140.867 195.896 141.001 195.689 141.092 195.443L143.013 195.659C142.892 196.167 142.661 196.61 142.32 196.989C141.982 197.364 141.551 197.655 141.024 197.864C140.498 198.068 139.895 198.17 139.217 198.17ZM146.332 189.273L148.094 192.494L149.884 189.273H152.06L149.429 193.636L152.105 198H149.94L148.094 194.858L146.264 198H144.082L146.741 193.636L144.151 189.273H146.332ZM156.131 198.176C155.578 198.176 155.08 198.078 154.636 197.881C154.197 197.68 153.848 197.384 153.591 196.994C153.337 196.604 153.21 196.123 153.21 195.551C153.21 195.059 153.301 194.652 153.483 194.33C153.665 194.008 153.913 193.75 154.227 193.557C154.542 193.364 154.896 193.218 155.29 193.119C155.688 193.017 156.098 192.943 156.523 192.898C157.034 192.845 157.449 192.797 157.767 192.756C158.085 192.71 158.316 192.642 158.46 192.551C158.608 192.456 158.682 192.311 158.682 192.114V192.08C158.682 191.652 158.555 191.32 158.301 191.085C158.047 190.85 157.682 190.733 157.205 190.733C156.701 190.733 156.301 190.843 156.006 191.062C155.714 191.282 155.517 191.542 155.415 191.841L153.494 191.568C153.646 191.038 153.896 190.595 154.244 190.239C154.593 189.879 155.019 189.61 155.523 189.432C156.027 189.25 156.583 189.159 157.193 189.159C157.614 189.159 158.032 189.208 158.449 189.307C158.866 189.405 159.246 189.568 159.591 189.795C159.936 190.019 160.212 190.324 160.42 190.71C160.633 191.097 160.739 191.58 160.739 192.159V198H158.761V196.801H158.693C158.568 197.044 158.392 197.271 158.165 197.483C157.941 197.691 157.659 197.86 157.318 197.989C156.981 198.114 156.585 198.176 156.131 198.176ZM156.665 196.665C157.078 196.665 157.436 196.583 157.739 196.42C158.042 196.254 158.275 196.034 158.438 195.761C158.604 195.489 158.688 195.191 158.688 194.869V193.841C158.623 193.894 158.513 193.943 158.358 193.989C158.206 194.034 158.036 194.074 157.847 194.108C157.657 194.142 157.47 194.172 157.284 194.199C157.098 194.225 156.938 194.248 156.801 194.267C156.494 194.309 156.22 194.377 155.977 194.472C155.735 194.566 155.544 194.699 155.403 194.869C155.263 195.036 155.193 195.252 155.193 195.517C155.193 195.896 155.331 196.182 155.608 196.375C155.884 196.568 156.237 196.665 156.665 196.665ZM162.807 198V189.273H164.773V190.756H164.875C165.057 190.256 165.358 189.866 165.778 189.585C166.199 189.301 166.701 189.159 167.284 189.159C167.875 189.159 168.373 189.303 168.778 189.591C169.188 189.875 169.475 190.263 169.642 190.756H169.733C169.926 190.271 170.252 189.884 170.71 189.597C171.172 189.305 171.72 189.159 172.352 189.159C173.155 189.159 173.811 189.413 174.318 189.92C174.826 190.428 175.08 191.169 175.08 192.142V198H173.017V192.46C173.017 191.919 172.873 191.523 172.585 191.273C172.297 191.019 171.945 190.892 171.528 190.892C171.032 190.892 170.644 191.047 170.364 191.358C170.087 191.665 169.949 192.064 169.949 192.557V198H167.932V192.375C167.932 191.924 167.795 191.564 167.523 191.295C167.254 191.027 166.902 190.892 166.466 190.892C166.17 190.892 165.902 190.968 165.659 191.119C165.417 191.267 165.223 191.477 165.08 191.75C164.936 192.019 164.864 192.333 164.864 192.693V198H162.807ZM184.064 191.58L182.189 191.784C182.136 191.595 182.043 191.417 181.911 191.25C181.782 191.083 181.607 190.949 181.388 190.847C181.168 190.744 180.899 190.693 180.581 190.693C180.153 190.693 179.793 190.786 179.501 190.972C179.214 191.157 179.071 191.398 179.075 191.693C179.071 191.947 179.164 192.153 179.354 192.312C179.547 192.472 179.865 192.602 180.308 192.705L181.797 193.023C182.623 193.201 183.236 193.483 183.638 193.869C184.043 194.256 184.248 194.761 184.251 195.386C184.248 195.936 184.087 196.42 183.768 196.841C183.454 197.258 183.017 197.583 182.456 197.818C181.895 198.053 181.251 198.17 180.524 198.17C179.456 198.17 178.596 197.947 177.945 197.5C177.293 197.049 176.905 196.422 176.78 195.619L178.786 195.426C178.876 195.82 179.07 196.117 179.365 196.318C179.661 196.519 180.045 196.619 180.518 196.619C181.007 196.619 181.399 196.519 181.695 196.318C181.994 196.117 182.143 195.869 182.143 195.574C182.143 195.324 182.047 195.117 181.854 194.955C181.664 194.792 181.369 194.667 180.967 194.58L179.479 194.267C178.642 194.093 178.022 193.799 177.621 193.386C177.219 192.97 177.02 192.443 177.024 191.807C177.02 191.269 177.166 190.803 177.462 190.409C177.761 190.011 178.176 189.705 178.706 189.489C179.24 189.269 179.856 189.159 180.553 189.159C181.575 189.159 182.38 189.377 182.967 189.812C183.558 190.248 183.924 190.837 184.064 191.58Z" fill="#0F67F5"/>
<path d="M4 216V168H-4V216H4Z" fill="#0F67F5" mask="url(#path-13-inside-2_822_9223)"/>
<rect width="304" height="48" transform="translate(0 216)" fill="white"/>
<path d="M33.4091 246V234.364H34.8182V240.136H34.9545L40.1818 234.364H42.0227L37.1364 239.614L42.0227 246H40.3182L36.2727 240.591L34.8182 242.227V246H33.4091ZM50.2102 237.273C50.142 236.697 49.8655 236.25 49.3807 235.932C48.8958 235.614 48.3011 235.455 47.5966 235.455C47.0814 235.455 46.6307 235.538 46.2443 235.705C45.8617 235.871 45.5625 236.1 45.3466 236.392C45.1345 236.684 45.0284 237.015 45.0284 237.386C45.0284 237.697 45.1023 237.964 45.25 238.188C45.4015 238.407 45.5947 238.591 45.8295 238.739C46.0644 238.883 46.3106 239.002 46.5682 239.097C46.8258 239.187 47.0625 239.261 47.2784 239.318L48.4602 239.636C48.7633 239.716 49.1004 239.826 49.4716 239.966C49.8466 240.106 50.2045 240.297 50.5455 240.54C50.8902 240.778 51.1742 241.085 51.3977 241.46C51.6212 241.835 51.733 242.295 51.733 242.841C51.733 243.47 51.5682 244.038 51.2386 244.545C50.9129 245.053 50.4356 245.456 49.8068 245.756C49.1818 246.055 48.4223 246.205 47.5284 246.205C46.6951 246.205 45.9735 246.07 45.3636 245.801C44.7576 245.532 44.2803 245.157 43.9318 244.676C43.5871 244.195 43.392 243.636 43.3466 243H44.8011C44.839 243.439 44.9867 243.803 45.2443 244.091C45.5057 244.375 45.8352 244.587 46.233 244.727C46.6345 244.864 47.0663 244.932 47.5284 244.932C48.0663 244.932 48.5492 244.845 48.9773 244.67C49.4053 244.492 49.7443 244.246 49.9943 243.932C50.2443 243.614 50.3693 243.242 50.3693 242.818C50.3693 242.432 50.2614 242.117 50.0455 241.875C49.8295 241.633 49.5455 241.436 49.1932 241.284C48.8409 241.133 48.4602 241 48.0511 240.886L46.6193 240.477C45.7102 240.216 44.9905 239.843 44.4602 239.358C43.9299 238.873 43.6648 238.239 43.6648 237.455C43.6648 236.803 43.8409 236.235 44.1932 235.75C44.5492 235.261 45.0265 234.883 45.625 234.614C46.2273 234.341 46.8996 234.205 47.642 234.205C48.392 234.205 49.0587 234.339 49.642 234.608C50.2254 234.873 50.6875 235.237 51.0284 235.699C51.3731 236.161 51.5549 236.686 51.5739 237.273H50.2102ZM53.8452 246V244.977L57.6861 240.773C58.1368 240.28 58.508 239.852 58.7997 239.489C59.0914 239.121 59.3073 238.777 59.4474 238.455C59.5914 238.129 59.6634 237.788 59.6634 237.432C59.6634 237.023 59.5649 236.669 59.3679 236.369C59.1747 236.07 58.9096 235.839 58.5724 235.676C58.2353 235.513 57.8565 235.432 57.4361 235.432C56.9891 235.432 56.599 235.525 56.2656 235.71C55.9361 235.892 55.6804 236.148 55.4986 236.477C55.3205 236.807 55.2315 237.193 55.2315 237.636H53.8906C53.8906 236.955 54.0478 236.356 54.3622 235.841C54.6766 235.326 55.1046 234.924 55.6463 234.636C56.1918 234.348 56.8035 234.205 57.4815 234.205C58.1634 234.205 58.7675 234.348 59.294 234.636C59.8205 234.924 60.2334 235.312 60.5327 235.801C60.8319 236.29 60.9815 236.833 60.9815 237.432C60.9815 237.86 60.9039 238.278 60.7486 238.688C60.5971 239.093 60.3319 239.545 59.9531 240.045C59.5781 240.542 59.0573 241.148 58.3906 241.864L55.777 244.659V244.75H61.1861V246H53.8452ZM69.3963 234.364V246H68.0554V234.364H69.3963ZM75.5114 246.182C74.6705 246.182 73.9451 245.996 73.3352 245.625C72.7292 245.25 72.2614 244.727 71.9318 244.057C71.6061 243.383 71.4432 242.598 71.4432 241.705C71.4432 240.811 71.6061 240.023 71.9318 239.341C72.2614 238.655 72.7197 238.121 73.3068 237.739C73.8977 237.352 74.5871 237.159 75.375 237.159C75.8295 237.159 76.2784 237.235 76.7216 237.386C77.1648 237.538 77.5682 237.784 77.9318 238.125C78.2955 238.462 78.5852 238.909 78.8011 239.466C79.017 240.023 79.125 240.708 79.125 241.523V242.091H72.3977V240.932H77.7614C77.7614 240.439 77.6629 240 77.4659 239.614C77.2727 239.227 76.9962 238.922 76.6364 238.699C76.2803 238.475 75.8598 238.364 75.375 238.364C74.8409 238.364 74.3788 238.496 73.9886 238.761C73.6023 239.023 73.3049 239.364 73.0966 239.784C72.8883 240.205 72.7841 240.655 72.7841 241.136V241.909C72.7841 242.568 72.8977 243.127 73.125 243.585C73.3561 244.04 73.6761 244.386 74.0852 244.625C74.4943 244.86 74.9697 244.977 75.5114 244.977C75.8636 244.977 76.1818 244.928 76.4659 244.83C76.7538 244.727 77.0019 244.576 77.2102 244.375C77.4186 244.17 77.5795 243.917 77.6932 243.614L78.9886 243.977C78.8523 244.417 78.6231 244.803 78.3011 245.136C77.9792 245.466 77.5814 245.723 77.108 245.909C76.6345 246.091 76.1023 246.182 75.5114 246.182ZM83.733 246.205C83.1799 246.205 82.678 246.1 82.2273 245.892C81.7765 245.68 81.4186 245.375 81.1534 244.977C80.8883 244.576 80.7557 244.091 80.7557 243.523C80.7557 243.023 80.8542 242.617 81.0511 242.307C81.2481 241.992 81.5114 241.746 81.8409 241.568C82.1705 241.39 82.5341 241.258 82.9318 241.17C83.3333 241.08 83.7367 241.008 84.142 240.955C84.6723 240.886 85.1023 240.835 85.4318 240.801C85.7652 240.763 86.0076 240.701 86.1591 240.614C86.3144 240.527 86.392 240.375 86.392 240.159V240.114C86.392 239.553 86.2386 239.117 85.9318 238.807C85.6288 238.496 85.1686 238.341 84.5511 238.341C83.911 238.341 83.4091 238.481 83.0455 238.761C82.6818 239.042 82.4261 239.341 82.2784 239.659L81.0057 239.205C81.233 238.674 81.536 238.261 81.9148 237.966C82.2973 237.667 82.714 237.458 83.1648 237.341C83.6193 237.22 84.0663 237.159 84.5057 237.159C84.786 237.159 85.108 237.193 85.4716 237.261C85.839 237.326 86.1932 237.46 86.5341 237.665C86.8788 237.869 87.1648 238.178 87.392 238.591C87.6193 239.004 87.733 239.557 87.733 240.25V246H86.392V244.818H86.3239C86.233 245.008 86.0814 245.21 85.8693 245.426C85.6572 245.642 85.375 245.826 85.0227 245.977C84.6705 246.129 84.2405 246.205 83.733 246.205ZM83.9375 245C84.4678 245 84.9148 244.896 85.2784 244.688C85.6458 244.479 85.9223 244.21 86.108 243.881C86.2973 243.551 86.392 243.205 86.392 242.841V241.614C86.3352 241.682 86.2102 241.744 86.017 241.801C85.8277 241.854 85.608 241.902 85.358 241.943C85.1117 241.981 84.8712 242.015 84.6364 242.045C84.4053 242.072 84.2178 242.095 84.0739 242.114C83.7254 242.159 83.3996 242.233 83.0966 242.335C82.7973 242.434 82.5549 242.583 82.3693 242.784C82.1875 242.981 82.0966 243.25 82.0966 243.591C82.0966 244.057 82.2689 244.409 82.6136 244.648C82.9621 244.883 83.4034 245 83.9375 245ZM90.1804 246V237.273H91.4759V238.591H91.5668C91.7259 238.159 92.0137 237.809 92.4304 237.54C92.8471 237.271 93.3168 237.136 93.8395 237.136C93.938 237.136 94.0611 237.138 94.2088 237.142C94.3565 237.146 94.4683 237.152 94.544 237.159V238.523C94.4986 238.511 94.3944 238.494 94.2315 238.472C94.0724 238.445 93.9039 238.432 93.7259 238.432C93.3016 238.432 92.9228 238.521 92.5895 238.699C92.2599 238.873 91.9986 239.116 91.8054 239.426C91.616 239.733 91.5213 240.083 91.5213 240.477V246H90.1804ZM97.4744 240.75V246H96.1335V237.273H97.429V238.636H97.5426C97.7472 238.193 98.0578 237.837 98.4744 237.568C98.8911 237.295 99.429 237.159 100.088 237.159C100.679 237.159 101.196 237.28 101.639 237.523C102.082 237.761 102.427 238.125 102.673 238.614C102.92 239.098 103.043 239.712 103.043 240.455V246H101.702V240.545C101.702 239.86 101.524 239.326 101.168 238.943C100.812 238.557 100.323 238.364 99.7017 238.364C99.2737 238.364 98.8911 238.456 98.554 238.642C98.2206 238.828 97.9574 239.098 97.7642 239.455C97.571 239.811 97.4744 240.242 97.4744 240.75ZM105.493 246V237.273H106.834V246H105.493ZM106.175 235.818C105.913 235.818 105.688 235.729 105.499 235.551C105.313 235.373 105.22 235.159 105.22 234.909C105.22 234.659 105.313 234.445 105.499 234.267C105.688 234.089 105.913 234 106.175 234C106.436 234 106.66 234.089 106.845 234.267C107.035 234.445 107.129 234.659 107.129 234.909C107.129 235.159 107.035 235.373 106.845 235.551C106.66 235.729 106.436 235.818 106.175 235.818ZM110.631 240.75V246H109.29V237.273H110.585V238.636H110.699C110.903 238.193 111.214 237.837 111.631 237.568C112.047 237.295 112.585 237.159 113.244 237.159C113.835 237.159 114.352 237.28 114.795 237.523C115.239 237.761 115.583 238.125 115.83 238.614C116.076 239.098 116.199 239.712 116.199 240.455V246H114.858V240.545C114.858 239.86 114.68 239.326 114.324 238.943C113.968 238.557 113.479 238.364 112.858 238.364C112.43 238.364 112.047 238.456 111.71 238.642C111.377 238.828 111.114 239.098 110.92 239.455C110.727 239.811 110.631 240.242 110.631 240.75ZM122.172 249.455C121.524 249.455 120.967 249.371 120.501 249.205C120.036 249.042 119.647 248.826 119.337 248.557C119.03 248.292 118.786 248.008 118.604 247.705L119.672 246.955C119.793 247.114 119.946 247.295 120.132 247.5C120.318 247.708 120.571 247.888 120.893 248.04C121.219 248.195 121.645 248.273 122.172 248.273C122.876 248.273 123.458 248.102 123.916 247.761C124.375 247.42 124.604 246.886 124.604 246.159V244.386H124.49C124.392 244.545 124.251 244.742 124.07 244.977C123.892 245.208 123.634 245.415 123.297 245.597C122.964 245.775 122.513 245.864 121.945 245.864C121.24 245.864 120.607 245.697 120.047 245.364C119.49 245.03 119.049 244.545 118.723 243.909C118.401 243.273 118.24 242.5 118.24 241.591C118.24 240.697 118.397 239.919 118.712 239.256C119.026 238.589 119.464 238.074 120.024 237.71C120.585 237.343 121.232 237.159 121.967 237.159C122.536 237.159 122.986 237.254 123.32 237.443C123.657 237.629 123.914 237.841 124.092 238.08C124.274 238.314 124.414 238.508 124.513 238.659H124.649V237.273H125.945V246.25C125.945 247 125.774 247.61 125.433 248.08C125.096 248.553 124.642 248.9 124.07 249.119C123.501 249.343 122.869 249.455 122.172 249.455ZM122.126 244.659C122.664 244.659 123.119 244.536 123.49 244.29C123.861 244.044 124.143 243.689 124.337 243.227C124.53 242.765 124.626 242.212 124.626 241.568C124.626 240.939 124.532 240.384 124.342 239.903C124.153 239.422 123.873 239.045 123.501 238.773C123.13 238.5 122.672 238.364 122.126 238.364C121.558 238.364 121.085 238.508 120.706 238.795C120.331 239.083 120.049 239.47 119.859 239.955C119.674 240.439 119.581 240.977 119.581 241.568C119.581 242.174 119.676 242.71 119.865 243.176C120.058 243.638 120.342 244.002 120.717 244.267C121.096 244.528 121.566 244.659 122.126 244.659Z" fill="#333333"/>
</g>
</g>
<defs>
<filter id="filter0_dd_822_9223" x="-10" y="-20" width="344" height="312" filterUnits="userSpaceOnUse" color-interpolation-filters="sRGB">
<feFlood flood-opacity="0" result="BackgroundImageFix"/>
<feColorMatrix in="SourceAlpha" type="matrix" values="0 0 0 0 0 0 0 0 0 0 0 0 0 0 0 0 0 0 127 0" result="hardAlpha"/>
<feOffset dx="6"/>
<feGaussianBlur stdDeviation="3"/>
<feColorMatrix type="matrix" values="0 0 0 0 0.2 0 0 0 0 0.2 0 0 0 0 0.2 0 0 0 0.25 0"/>
<feBlend mode="normal" in2="BackgroundImageFix" result="effect1_dropShadow_822_9223"/>
<feColorMatrix in="SourceAlpha" type="matrix" values="0 0 0 0 0 0 0 0 0 0 0 0 0 0 0 0 0 0 127 0" result="hardAlpha"/>
<feOffset dx="10"/>
<feGaussianBlur stdDeviation="10"/>
<feColorMatrix type="matrix" values="0 0 0 0 0.2 0 0 0 0 0.2 0 0 0 0 0.2 0 0 0 0.2 0"/>
<feBlend mode="normal" in2="effect1_dropShadow_822_9223" result="effect2_dropShadow_822_9223"/>
<feBlend mode="normal" in="SourceGraphic" in2="effect2_dropShadow_822_9223" result="shape"/>
</filter>
<clipPath id="clip0_822_9223">
<rect width="375" height="264" fill="white"/>
</clipPath>
<clipPath id="clip1_822_9223">
<rect width="88" height="24" fill="white" transform="translate(56 17.5)"/>
</clipPath>
</defs>
</svg>
