<svg width="672" height="143" viewBox="0 0 672 143" fill="none" xmlns="http://www.w3.org/2000/svg">
<rect width="672" height="143" fill="#F6F6F6"/>
<rect x="208" y="67" width="256" height="4" rx="2" fill="#B0B0B0"/>
<rect x="208" y="67" width="84" height="4" rx="2" fill="#1E71F6"/>
<circle cx="284" cy="69" r="8" fill="#194CCC"/>
<path d="M213.295 93.3636V105H211.886V94.8409H211.818L208.977 96.7273V95.2955L211.886 93.3636H213.295ZM220.278 105.159C219.612 105.159 219.011 105.027 218.477 104.761C217.943 104.496 217.515 104.133 217.193 103.67C216.871 103.208 216.695 102.682 216.665 102.091H218.028C218.081 102.617 218.32 103.053 218.744 103.398C219.172 103.739 219.684 103.909 220.278 103.909C220.756 103.909 221.18 103.797 221.551 103.574C221.926 103.35 222.22 103.044 222.432 102.653C222.648 102.259 222.756 101.814 222.756 101.318C222.756 100.811 222.644 100.358 222.42 99.9602C222.201 99.5587 221.898 99.2424 221.511 99.0114C221.125 98.7803 220.684 98.6629 220.188 98.6591C219.831 98.6553 219.466 98.7102 219.091 98.8239C218.716 98.9337 218.407 99.0758 218.165 99.25L216.847 99.0909L217.551 93.3636H223.597V94.6136H218.733L218.324 98.0455H218.392C218.631 97.8561 218.93 97.6989 219.29 97.5739C219.65 97.4489 220.025 97.3864 220.415 97.3864C221.127 97.3864 221.761 97.5568 222.318 97.8977C222.879 98.2348 223.318 98.697 223.636 99.2841C223.958 99.8712 224.119 100.542 224.119 101.295C224.119 102.038 223.953 102.701 223.619 103.284C223.29 103.864 222.835 104.322 222.256 104.659C221.676 104.992 221.017 105.159 220.278 105.159Z" fill="#757575"/>
<path d="M218.71 33.3636V45H216.835L211.352 37.0739H211.256V45H209.148V33.3636H211.034L216.511 41.2955H216.614V33.3636H218.71ZM226.479 41.3295V36.2727H228.536V45H226.541V43.4489H226.45C226.253 43.9375 225.929 44.3371 225.479 44.6477C225.032 44.9583 224.481 45.1136 223.825 45.1136C223.253 45.1136 222.748 44.9867 222.308 44.733C221.873 44.4754 221.532 44.1023 221.286 43.6136C221.039 43.1212 220.916 42.5265 220.916 41.8295V36.2727H222.973V41.5114C222.973 42.0644 223.125 42.5038 223.428 42.8295C223.731 43.1553 224.128 43.3182 224.621 43.3182C224.924 43.3182 225.217 43.2443 225.501 43.0966C225.786 42.9489 226.018 42.7292 226.2 42.4375C226.386 42.142 226.479 41.7727 226.479 41.3295ZM230.651 45V36.2727H232.616V37.7557H232.719C232.901 37.2557 233.202 36.8655 233.622 36.5852C234.043 36.3011 234.545 36.1591 235.128 36.1591C235.719 36.1591 236.217 36.303 236.622 36.5909C237.031 36.875 237.319 37.2633 237.486 37.7557H237.577C237.77 37.2708 238.096 36.8845 238.554 36.5966C239.016 36.3049 239.563 36.1591 240.196 36.1591C240.999 36.1591 241.654 36.4129 242.162 36.9205C242.67 37.428 242.923 38.1686 242.923 39.142V45H240.861V39.4602C240.861 38.9186 240.717 38.5227 240.429 38.2727C240.141 38.0189 239.789 37.892 239.372 37.892C238.876 37.892 238.488 38.0473 238.207 38.358C237.931 38.6648 237.793 39.0644 237.793 39.5568V45H235.776V39.375C235.776 38.9242 235.639 38.5644 235.366 38.2955C235.098 38.0265 234.745 37.892 234.31 37.892C234.014 37.892 233.745 37.9678 233.503 38.1193C233.26 38.267 233.067 38.4773 232.923 38.75C232.779 39.0189 232.707 39.3333 232.707 39.6932V45H230.651ZM245.101 45V33.3636H247.158V37.7159H247.243C247.349 37.5038 247.499 37.2784 247.692 37.0398C247.885 36.7973 248.146 36.5909 248.476 36.4205C248.805 36.2462 249.226 36.1591 249.737 36.1591C250.411 36.1591 251.019 36.3314 251.561 36.6761C252.107 37.017 252.538 37.5227 252.857 38.1932C253.179 38.8598 253.339 39.678 253.339 40.6477C253.339 41.6061 253.182 42.4205 252.868 43.0909C252.554 43.7614 252.125 44.2727 251.584 44.625C251.042 44.9773 250.429 45.1534 249.743 45.1534C249.243 45.1534 248.828 45.0701 248.499 44.9034C248.169 44.7367 247.904 44.536 247.703 44.3011C247.506 44.0625 247.353 43.8371 247.243 43.625H247.124V45H245.101ZM247.118 40.6364C247.118 41.2008 247.197 41.6951 247.357 42.1193C247.519 42.5436 247.752 42.875 248.055 43.1136C248.362 43.3485 248.733 43.4659 249.169 43.4659C249.624 43.4659 250.004 43.3447 250.311 43.1023C250.618 42.8561 250.849 42.5208 251.004 42.0966C251.163 41.6686 251.243 41.1818 251.243 40.6364C251.243 40.0947 251.165 39.6136 251.01 39.1932C250.855 38.7727 250.624 38.4432 250.317 38.2045C250.01 37.9659 249.627 37.8466 249.169 37.8466C248.73 37.8466 248.357 37.9621 248.05 38.1932C247.743 38.4242 247.51 38.7481 247.351 39.1648C247.196 39.5814 247.118 40.072 247.118 40.6364ZM258.952 45.1705C258.077 45.1705 257.321 44.9886 256.685 44.625C256.052 44.2576 255.565 43.7386 255.224 43.0682C254.884 42.3939 254.713 41.6004 254.713 40.6875C254.713 39.7898 254.884 39.0019 255.224 38.3239C255.569 37.642 256.05 37.1117 256.668 36.733C257.285 36.3504 258.01 36.1591 258.844 36.1591C259.382 36.1591 259.889 36.2462 260.366 36.4205C260.848 36.5909 261.272 36.8561 261.639 37.2159C262.01 37.5758 262.302 38.0341 262.514 38.5909C262.726 39.1439 262.832 39.803 262.832 40.5682V41.1989H255.679V39.8125H260.861C260.857 39.4186 260.772 39.0682 260.605 38.7614C260.438 38.4508 260.205 38.2064 259.906 38.0284C259.611 37.8504 259.266 37.7614 258.872 37.7614C258.452 37.7614 258.082 37.8636 257.764 38.0682C257.446 38.2689 257.198 38.5341 257.02 38.8636C256.846 39.1894 256.757 39.5473 256.753 39.9375V41.1477C256.753 41.6553 256.846 42.0909 257.031 42.4545C257.217 42.8144 257.476 43.0909 257.81 43.2841C258.143 43.4735 258.533 43.5682 258.98 43.5682C259.279 43.5682 259.55 43.5265 259.793 43.4432C260.035 43.3561 260.245 43.2292 260.423 43.0625C260.601 42.8958 260.736 42.6894 260.827 42.4432L262.747 42.6591C262.626 43.1667 262.395 43.6098 262.054 43.9886C261.717 44.3636 261.285 44.6553 260.759 44.8636C260.232 45.0682 259.63 45.1705 258.952 45.1705ZM264.572 45V36.2727H266.567V37.7273H266.658C266.817 37.2235 267.089 36.8352 267.476 36.5625C267.866 36.286 268.311 36.1477 268.811 36.1477C268.925 36.1477 269.052 36.1534 269.192 36.1648C269.336 36.1723 269.455 36.1856 269.55 36.2045V38.0966C269.463 38.0663 269.324 38.0398 269.135 38.017C268.949 37.9905 268.769 37.9773 268.595 37.9773C268.22 37.9773 267.883 38.0587 267.584 38.2216C267.288 38.3807 267.055 38.6023 266.885 38.8864C266.714 39.1705 266.629 39.4981 266.629 39.8693V45H264.572ZM278.692 45.1705C277.839 45.1705 277.101 44.983 276.476 44.608C275.851 44.233 275.366 43.7083 275.021 43.0341C274.68 42.3598 274.51 41.572 274.51 40.6705C274.51 39.7689 274.68 38.9792 275.021 38.3011C275.366 37.6231 275.851 37.0966 276.476 36.7216C277.101 36.3466 277.839 36.1591 278.692 36.1591C279.544 36.1591 280.283 36.3466 280.908 36.7216C281.533 37.0966 282.016 37.6231 282.357 38.3011C282.701 38.9792 282.874 39.7689 282.874 40.6705C282.874 41.572 282.701 42.3598 282.357 43.0341C282.016 43.7083 281.533 44.233 280.908 44.608C280.283 44.983 279.544 45.1705 278.692 45.1705ZM278.703 43.5227C279.165 43.5227 279.552 43.3958 279.862 43.142C280.173 42.8845 280.404 42.5398 280.555 42.108C280.711 41.6761 280.788 41.1951 280.788 40.6648C280.788 40.1307 280.711 39.6477 280.555 39.2159C280.404 38.7803 280.173 38.4337 279.862 38.1761C279.552 37.9186 279.165 37.7898 278.703 37.7898C278.23 37.7898 277.836 37.9186 277.521 38.1761C277.211 38.4337 276.978 38.7803 276.822 39.2159C276.671 39.6477 276.595 40.1307 276.595 40.6648C276.595 41.1951 276.671 41.6761 276.822 42.108C276.978 42.5398 277.211 42.8845 277.521 43.142C277.836 43.3958 278.23 43.5227 278.703 43.5227ZM289.04 36.2727V37.8636H283.881V36.2727H289.04ZM285.17 45V35.4489C285.17 34.8617 285.292 34.3731 285.534 33.983C285.78 33.5928 286.11 33.3011 286.523 33.108C286.936 32.9148 287.394 32.8182 287.898 32.8182C288.254 32.8182 288.57 32.8466 288.847 32.9034C289.123 32.9602 289.328 33.0114 289.46 33.0568L289.051 34.6477C288.964 34.6212 288.854 34.5947 288.722 34.5682C288.589 34.5379 288.441 34.5227 288.278 34.5227C287.896 34.5227 287.625 34.6155 287.466 34.8011C287.311 34.983 287.233 35.2443 287.233 35.5852V45H285.17ZM300.443 48.2727V43.625H300.358C300.252 43.8371 300.098 44.0625 299.898 44.3011C299.697 44.536 299.432 44.7367 299.102 44.9034C298.773 45.0701 298.358 45.1534 297.858 45.1534C297.172 45.1534 296.559 44.9773 296.017 44.625C295.475 44.2727 295.047 43.7614 294.733 43.0909C294.419 42.4205 294.261 41.6061 294.261 40.6477C294.261 39.678 294.42 38.8598 294.739 38.1932C295.061 37.5227 295.494 37.017 296.04 36.6761C296.585 36.3314 297.193 36.1591 297.864 36.1591C298.375 36.1591 298.795 36.2462 299.125 36.4205C299.455 36.5909 299.716 36.7973 299.909 37.0398C300.102 37.2784 300.252 37.5038 300.358 37.7159H300.483V36.2727H302.506V48.2727H300.443ZM298.432 43.4659C298.867 43.4659 299.239 43.3485 299.545 43.1136C299.852 42.875 300.085 42.5436 300.244 42.1193C300.403 41.6951 300.483 41.2008 300.483 40.6364C300.483 40.072 300.403 39.5814 300.244 39.1648C300.089 38.7481 299.858 38.4242 299.551 38.1932C299.248 37.9621 298.875 37.8466 298.432 37.8466C297.973 37.8466 297.591 37.9659 297.284 38.2045C296.977 38.4432 296.746 38.7727 296.591 39.1932C296.436 39.6136 296.358 40.0947 296.358 40.6364C296.358 41.1818 296.436 41.6686 296.591 42.0966C296.75 42.5208 296.983 42.8561 297.29 43.1023C297.6 43.3447 297.981 43.4659 298.432 43.4659ZM310.182 41.3295V36.2727H312.239V45H310.244V43.4489H310.153C309.956 43.9375 309.633 44.3371 309.182 44.6477C308.735 44.9583 308.184 45.1136 307.528 45.1136C306.956 45.1136 306.451 44.9867 306.011 44.733C305.576 44.4754 305.235 44.1023 304.989 43.6136C304.742 43.1212 304.619 42.5265 304.619 41.8295V36.2727H306.676V41.5114C306.676 42.0644 306.828 42.5038 307.131 42.8295C307.434 43.1553 307.831 43.3182 308.324 43.3182C308.627 43.3182 308.92 43.2443 309.205 43.0966C309.489 42.9489 309.722 42.7292 309.903 42.4375C310.089 42.142 310.182 41.7727 310.182 41.3295ZM318.217 45.1705C317.342 45.1705 316.587 44.9886 315.95 44.625C315.318 44.2576 314.831 43.7386 314.49 43.0682C314.149 42.3939 313.979 41.6004 313.979 40.6875C313.979 39.7898 314.149 39.0019 314.49 38.3239C314.835 37.642 315.316 37.1117 315.933 36.733C316.551 36.3504 317.276 36.1591 318.109 36.1591C318.647 36.1591 319.155 36.2462 319.632 36.4205C320.113 36.5909 320.537 36.8561 320.905 37.2159C321.276 37.5758 321.568 38.0341 321.78 38.5909C321.992 39.1439 322.098 39.803 322.098 40.5682V41.1989H314.945V39.8125H320.126C320.123 39.4186 320.037 39.0682 319.871 38.7614C319.704 38.4508 319.471 38.2064 319.172 38.0284C318.876 37.8504 318.532 37.7614 318.138 37.7614C317.717 37.7614 317.348 37.8636 317.03 38.0682C316.712 38.2689 316.464 38.5341 316.286 38.8636C316.111 39.1894 316.022 39.5473 316.018 39.9375V41.1477C316.018 41.6553 316.111 42.0909 316.297 42.4545C316.482 42.8144 316.742 43.0909 317.075 43.2841C317.409 43.4735 317.799 43.5682 318.246 43.5682C318.545 43.5682 318.816 43.5265 319.058 43.4432C319.301 43.3561 319.511 43.2292 319.689 43.0625C319.867 42.8958 320.001 42.6894 320.092 42.4432L322.013 42.6591C321.892 43.1667 321.661 43.6098 321.32 43.9886C320.982 44.3636 320.551 44.6553 320.024 44.8636C319.498 45.0682 318.895 45.1705 318.217 45.1705ZM330.736 38.5795L328.861 38.7841C328.808 38.5947 328.715 38.4167 328.582 38.25C328.454 38.0833 328.279 37.9489 328.06 37.8466C327.84 37.7443 327.571 37.6932 327.253 37.6932C326.825 37.6932 326.465 37.786 326.173 37.9716C325.885 38.1572 325.743 38.3977 325.747 38.6932C325.743 38.947 325.836 39.1534 326.026 39.3125C326.219 39.4716 326.537 39.6023 326.98 39.7045L328.469 40.0227C329.295 40.2008 329.908 40.483 330.31 40.8693C330.715 41.2557 330.92 41.7614 330.923 42.3864C330.92 42.9356 330.759 43.4205 330.44 43.8409C330.126 44.2576 329.688 44.5833 329.128 44.8182C328.567 45.053 327.923 45.1705 327.196 45.1705C326.128 45.1705 325.268 44.947 324.616 44.5C323.965 44.0492 323.577 43.4223 323.452 42.6193L325.457 42.4261C325.548 42.8201 325.741 43.1174 326.037 43.3182C326.332 43.5189 326.717 43.6193 327.19 43.6193C327.679 43.6193 328.071 43.5189 328.366 43.3182C328.666 43.1174 328.815 42.8693 328.815 42.5739C328.815 42.3239 328.719 42.1174 328.526 41.9545C328.336 41.7917 328.041 41.6667 327.639 41.5795L326.151 41.267C325.313 41.0928 324.694 40.7992 324.293 40.3864C323.891 39.9697 323.692 39.4432 323.696 38.8068C323.692 38.2689 323.838 37.803 324.134 37.4091C324.433 37.0114 324.848 36.7045 325.378 36.4886C325.912 36.2689 326.527 36.1591 327.224 36.1591C328.247 36.1591 329.052 36.3769 329.639 36.8125C330.23 37.2481 330.596 37.8371 330.736 38.5795ZM336.977 36.2727V37.8636H331.96V36.2727H336.977ZM333.199 34.1818H335.256V42.375C335.256 42.6515 335.297 42.8636 335.381 43.0114C335.468 43.1553 335.581 43.2538 335.722 43.3068C335.862 43.3598 336.017 43.3864 336.188 43.3864C336.316 43.3864 336.434 43.3769 336.54 43.358C336.65 43.339 336.733 43.322 336.79 43.3068L337.136 44.9148C337.027 44.9527 336.869 44.9943 336.665 45.0398C336.464 45.0852 336.218 45.1117 335.926 45.1193C335.411 45.1345 334.947 45.0568 334.534 44.8864C334.121 44.7121 333.794 44.4432 333.551 44.0795C333.313 43.7159 333.195 43.2614 333.199 42.7159V34.1818ZM338.697 45V36.2727H340.754V45H338.697ZM339.732 35.0341C339.406 35.0341 339.125 34.9261 338.891 34.7102C338.656 34.4905 338.538 34.2273 338.538 33.9205C338.538 33.6098 338.656 33.3466 338.891 33.1307C339.125 32.911 339.406 32.8011 339.732 32.8011C340.061 32.8011 340.341 32.911 340.572 33.1307C340.807 33.3466 340.925 33.6098 340.925 33.9205C340.925 34.2273 340.807 34.4905 340.572 34.7102C340.341 34.9261 340.061 35.0341 339.732 35.0341ZM346.676 45.1705C345.824 45.1705 345.085 44.983 344.46 44.608C343.835 44.233 343.35 43.7083 343.006 43.0341C342.665 42.3598 342.494 41.572 342.494 40.6705C342.494 39.7689 342.665 38.9792 343.006 38.3011C343.35 37.6231 343.835 37.0966 344.46 36.7216C345.085 36.3466 345.824 36.1591 346.676 36.1591C347.528 36.1591 348.267 36.3466 348.892 36.7216C349.517 37.0966 350 37.6231 350.341 38.3011C350.686 38.9792 350.858 39.7689 350.858 40.6705C350.858 41.572 350.686 42.3598 350.341 43.0341C350 43.7083 349.517 44.233 348.892 44.608C348.267 44.983 347.528 45.1705 346.676 45.1705ZM346.688 43.5227C347.15 43.5227 347.536 43.3958 347.847 43.142C348.157 42.8845 348.388 42.5398 348.54 42.108C348.695 41.6761 348.773 41.1951 348.773 40.6648C348.773 40.1307 348.695 39.6477 348.54 39.2159C348.388 38.7803 348.157 38.4337 347.847 38.1761C347.536 37.9186 347.15 37.7898 346.688 37.7898C346.214 37.7898 345.82 37.9186 345.506 38.1761C345.195 38.4337 344.962 38.7803 344.807 39.2159C344.655 39.6477 344.58 40.1307 344.58 40.6648C344.58 41.1951 344.655 41.6761 344.807 42.108C344.962 42.5398 345.195 42.8845 345.506 43.142C345.82 43.3958 346.214 43.5227 346.688 43.5227ZM354.661 39.8864V45H352.604V36.2727H354.57V37.7557H354.672C354.873 37.267 355.193 36.8788 355.632 36.5909C356.075 36.303 356.623 36.1591 357.274 36.1591C357.876 36.1591 358.401 36.2879 358.848 36.5455C359.299 36.803 359.647 37.1761 359.893 37.6648C360.143 38.1534 360.267 38.7462 360.263 39.4432V45H358.206V39.7614C358.206 39.178 358.054 38.7216 357.751 38.392C357.452 38.0625 357.037 37.8977 356.507 37.8977C356.147 37.8977 355.827 37.9773 355.547 38.1364C355.27 38.2917 355.053 38.517 354.893 38.8125C354.738 39.108 354.661 39.4659 354.661 39.8864ZM369.251 38.5795L367.376 38.7841C367.323 38.5947 367.231 38.4167 367.098 38.25C366.969 38.0833 366.795 37.9489 366.575 37.8466C366.356 37.7443 366.087 37.6932 365.768 37.6932C365.34 37.6932 364.981 37.786 364.689 37.9716C364.401 38.1572 364.259 38.3977 364.263 38.6932C364.259 38.947 364.352 39.1534 364.541 39.3125C364.734 39.4716 365.053 39.6023 365.496 39.7045L366.984 40.0227C367.81 40.2008 368.424 40.483 368.825 40.8693C369.231 41.2557 369.435 41.7614 369.439 42.3864C369.435 42.9356 369.274 43.4205 368.956 43.8409C368.642 44.2576 368.204 44.5833 367.643 44.8182C367.083 45.053 366.439 45.1705 365.712 45.1705C364.643 45.1705 363.784 44.947 363.132 44.5C362.481 44.0492 362.092 43.4223 361.967 42.6193L363.973 42.4261C364.064 42.8201 364.257 43.1174 364.553 43.3182C364.848 43.5189 365.232 43.6193 365.706 43.6193C366.195 43.6193 366.587 43.5189 366.882 43.3182C367.181 43.1174 367.331 42.8693 367.331 42.5739C367.331 42.3239 367.234 42.1174 367.041 41.9545C366.852 41.7917 366.556 41.6667 366.155 41.5795L364.666 41.267C363.829 41.0928 363.21 40.7992 362.808 40.3864C362.407 39.9697 362.208 39.4432 362.212 38.8068C362.208 38.2689 362.354 37.803 362.649 37.4091C362.948 37.0114 363.363 36.7045 363.893 36.4886C364.428 36.2689 365.043 36.1591 365.74 36.1591C366.763 36.1591 367.568 36.3769 368.155 36.8125C368.746 37.2481 369.111 37.8371 369.251 38.5795Z" fill="#333333"/>
<circle cx="369" cy="41.5" r="1" transform="rotate(180 369 41.5)" fill="#E8178A"/>
<path d="M398 41.5L368 41.5" stroke="#E8178A"/>
<path d="M402.881 45V37.7273H403.761V44.2188H407.142V45H402.881ZM409.997 45.1278C409.652 45.1278 409.338 45.0627 409.056 44.9325C408.774 44.8 408.551 44.6094 408.385 44.3608C408.219 44.1098 408.136 43.8068 408.136 43.4517C408.136 43.1392 408.198 42.8859 408.321 42.6918C408.444 42.4953 408.609 42.3414 408.815 42.2301C409.021 42.1188 409.248 42.036 409.496 41.9815C409.747 41.9247 410 41.8797 410.253 41.8466C410.584 41.804 410.853 41.772 411.059 41.7507C411.267 41.727 411.419 41.688 411.513 41.6335C411.611 41.5791 411.659 41.4844 411.659 41.3494V41.321C411.659 40.9706 411.563 40.6984 411.371 40.5043C411.182 40.3101 410.894 40.2131 410.509 40.2131C410.108 40.2131 409.795 40.3007 409.567 40.4759C409.34 40.651 409.18 40.8381 409.088 41.0369L408.293 40.7528C408.435 40.4214 408.624 40.1634 408.861 39.9787C409.1 39.7917 409.36 39.6615 409.642 39.5881C409.926 39.5123 410.205 39.4744 410.48 39.4744C410.655 39.4744 410.857 39.4957 411.084 39.5384C411.313 39.5786 411.535 39.6626 411.748 39.7905C411.963 39.9183 412.142 40.1113 412.284 40.3693C412.426 40.6274 412.497 40.973 412.497 41.4062V45H411.659V44.2614H411.616C411.56 44.3797 411.465 44.5064 411.332 44.6413C411.2 44.7763 411.023 44.8911 410.803 44.9858C410.583 45.0805 410.314 45.1278 409.997 45.1278ZM410.125 44.375C410.456 44.375 410.736 44.3099 410.963 44.1797C411.193 44.0495 411.366 43.8814 411.482 43.6754C411.6 43.4695 411.659 43.2528 411.659 43.0256V42.2585C411.624 42.3011 411.545 42.3402 411.425 42.3757C411.306 42.4089 411.169 42.4384 411.013 42.4645C410.859 42.4882 410.709 42.5095 410.562 42.5284C410.417 42.545 410.3 42.5592 410.21 42.571C409.992 42.5994 409.789 42.6456 409.599 42.7095C409.412 42.7711 409.261 42.8646 409.145 42.9901C409.031 43.1132 408.974 43.2812 408.974 43.4943C408.974 43.7855 409.082 44.0057 409.298 44.1548C409.515 44.3016 409.791 44.375 410.125 44.375ZM414.14 45V37.7273H414.979V40.4119H415.05C415.111 40.3172 415.196 40.1965 415.305 40.0497C415.416 39.9006 415.575 39.768 415.781 39.652C415.989 39.5336 416.271 39.4744 416.626 39.4744C417.086 39.4744 417.49 39.5893 417.841 39.8189C418.191 40.0485 418.465 40.3741 418.661 40.7955C418.858 41.2169 418.956 41.714 418.956 42.2869C418.956 42.8646 418.858 43.3653 418.661 43.7891C418.465 44.2105 418.192 44.5372 417.844 44.7692C417.496 44.9988 417.095 45.1136 416.64 45.1136C416.29 45.1136 416.01 45.0556 415.799 44.9396C415.588 44.8213 415.426 44.6875 415.312 44.5384C415.199 44.3868 415.111 44.2614 415.05 44.1619H414.95V45H414.14ZM414.964 42.2727C414.964 42.6847 415.025 43.0481 415.145 43.3629C415.266 43.6754 415.443 43.9205 415.675 44.098C415.907 44.2732 416.191 44.3608 416.527 44.3608C416.877 44.3608 417.17 44.2685 417.404 44.0838C417.641 43.8968 417.818 43.6458 417.937 43.331C418.057 43.0137 418.118 42.661 418.118 42.2727C418.118 41.8892 418.059 41.5436 417.94 41.2358C417.824 40.9257 417.648 40.6806 417.411 40.5007C417.177 40.3184 416.882 40.2273 416.527 40.2273C416.186 40.2273 415.899 40.3137 415.667 40.4865C415.435 40.657 415.26 40.8961 415.142 41.2038C415.023 41.5092 414.964 41.8655 414.964 42.2727ZM422.525 45.1136C421.999 45.1136 421.546 44.9976 421.165 44.7656C420.786 44.5312 420.493 44.2045 420.287 43.7855C420.084 43.3641 419.982 42.8741 419.982 42.3153C419.982 41.7566 420.084 41.2642 420.287 40.8381C420.493 40.4096 420.78 40.0758 421.147 39.8366C421.516 39.5952 421.947 39.4744 422.439 39.4744C422.724 39.4744 423.004 39.5218 423.281 39.6165C423.558 39.7112 423.81 39.8651 424.037 40.0781C424.265 40.2888 424.446 40.5682 424.581 40.9162C424.716 41.2642 424.783 41.6927 424.783 42.2017V42.5568H420.579V41.8324H423.931C423.931 41.5246 423.869 41.25 423.746 41.0085C423.626 40.767 423.453 40.5765 423.228 40.4368C423.005 40.2971 422.742 40.2273 422.439 40.2273C422.106 40.2273 421.817 40.3101 421.573 40.4759C421.331 40.6392 421.146 40.8523 421.015 41.1151C420.885 41.3778 420.82 41.6596 420.82 41.9602V42.4432C420.82 42.8551 420.891 43.2043 421.033 43.4908C421.178 43.7749 421.378 43.9915 421.633 44.1406C421.889 44.2874 422.186 44.3608 422.525 44.3608C422.745 44.3608 422.944 44.33 423.121 44.2685C423.301 44.2045 423.456 44.1098 423.586 43.9844C423.717 43.8565 423.817 43.6979 423.888 43.5085L424.698 43.7358C424.613 44.0104 424.47 44.2519 424.268 44.4602C424.067 44.6662 423.818 44.8272 423.523 44.9432C423.227 45.0568 422.894 45.1136 422.525 45.1136ZM426.896 37.7273V45H426.058V37.7273H426.896Z" fill="#E8178A"/>
<path d="M384.5 86L384.5 70" stroke="#E8178A"/>
<circle cx="384.5" cy="70" r="1" transform="rotate(-90 384.5 70)" fill="#E8178A"/>
<path d="M371.483 94.5085V93.7273H376.938V94.5085H374.651V101H373.77V94.5085H371.483ZM377.617 101V95.5455H378.426V96.3693H378.483C378.583 96.0994 378.762 95.8804 379.023 95.7124C379.283 95.5443 379.577 95.4602 379.904 95.4602C379.965 95.4602 380.042 95.4614 380.134 95.4638C380.227 95.4661 380.297 95.4697 380.344 95.4744V96.3267C380.316 96.3196 380.25 96.3089 380.149 96.2947C380.049 96.2782 379.944 96.2699 379.833 96.2699C379.567 96.2699 379.331 96.3255 379.122 96.4368C378.916 96.5457 378.753 96.6972 378.632 96.8913C378.514 97.0831 378.455 97.3021 378.455 97.5483V101H377.617ZM382.942 101.128C382.597 101.128 382.283 101.063 382.001 100.933C381.72 100.8 381.496 100.609 381.33 100.361C381.165 100.11 381.082 99.8068 381.082 99.4517C381.082 99.1392 381.143 98.8859 381.266 98.6918C381.389 98.4953 381.554 98.3414 381.76 98.2301C381.966 98.1188 382.193 98.036 382.442 97.9815C382.693 97.9247 382.945 97.8797 383.198 97.8466C383.53 97.804 383.798 97.772 384.004 97.7507C384.213 97.727 384.364 97.688 384.459 97.6335C384.556 97.5791 384.604 97.4844 384.604 97.3494V97.321C384.604 96.9706 384.509 96.6984 384.317 96.5043C384.127 96.3101 383.84 96.2131 383.454 96.2131C383.054 96.2131 382.74 96.3007 382.513 96.4759C382.286 96.651 382.126 96.8381 382.033 97.0369L381.238 96.7528C381.38 96.4214 381.569 96.1634 381.806 95.9787C382.045 95.7917 382.306 95.6615 382.587 95.5881C382.871 95.5123 383.151 95.4744 383.425 95.4744C383.601 95.4744 383.802 95.4957 384.029 95.5384C384.259 95.5786 384.48 95.6626 384.693 95.7905C384.909 95.9183 385.087 96.1113 385.229 96.3693C385.371 96.6274 385.442 96.973 385.442 97.4062V101H384.604V100.261H384.562C384.505 100.38 384.41 100.506 384.278 100.641C384.145 100.776 383.969 100.891 383.749 100.986C383.528 101.08 383.26 101.128 382.942 101.128ZM383.07 100.375C383.402 100.375 383.681 100.31 383.908 100.18C384.138 100.049 384.311 99.8814 384.427 99.6754C384.545 99.4695 384.604 99.2528 384.604 99.0256V98.2585C384.569 98.3011 384.491 98.3402 384.37 98.3757C384.252 98.4089 384.114 98.4384 383.958 98.4645C383.804 98.4882 383.654 98.5095 383.507 98.5284C383.363 98.545 383.246 98.5592 383.156 98.571C382.938 98.5994 382.734 98.6456 382.545 98.7095C382.358 98.7711 382.206 98.8646 382.09 98.9901C381.977 99.1132 381.92 99.2812 381.92 99.4943C381.92 99.7855 382.027 100.006 382.243 100.155C382.461 100.302 382.737 100.375 383.07 100.375ZM389.188 101.114C388.677 101.114 388.236 100.993 387.867 100.751C387.498 100.51 387.214 100.177 387.015 99.7536C386.816 99.3298 386.716 98.8456 386.716 98.3011C386.716 97.7472 386.818 97.2583 387.022 96.8345C387.228 96.4084 387.514 96.0758 387.881 95.8366C388.251 95.5952 388.681 95.4744 389.174 95.4744C389.557 95.4744 389.903 95.5455 390.211 95.6875C390.519 95.8295 390.771 96.0284 390.967 96.2841C391.164 96.5398 391.286 96.8381 391.333 97.179H390.495C390.431 96.9304 390.289 96.7102 390.069 96.5185C389.851 96.3243 389.557 96.2273 389.188 96.2273C388.861 96.2273 388.575 96.3125 388.329 96.483C388.085 96.651 387.894 96.889 387.757 97.1967C387.622 97.5021 387.555 97.8608 387.555 98.2727C387.555 98.6941 387.621 99.0611 387.753 99.3736C387.888 99.6861 388.078 99.9287 388.322 100.102C388.568 100.274 388.857 100.361 389.188 100.361C389.406 100.361 389.604 100.323 389.781 100.247C389.959 100.171 390.109 100.062 390.232 99.9205C390.355 99.7784 390.443 99.608 390.495 99.4091H391.333C391.286 99.7311 391.168 100.021 390.981 100.279C390.797 100.535 390.552 100.738 390.246 100.89C389.943 101.039 389.59 101.114 389.188 101.114ZM393.339 99.0114L393.325 97.9744H393.496L395.882 95.5455H396.919L394.376 98.1165H394.305L393.339 99.0114ZM392.558 101V93.7273H393.396V101H392.558ZM396.024 101L393.893 98.3011L394.49 97.7188L397.089 101H396.024Z" fill="#E8178A"/>
<path d="M284 86L284 70" stroke="#E8178A"/>
<circle cx="284" cy="70" r="1" transform="rotate(-90 284 70)" fill="#E8178A"/>
<path d="M267.881 101V93.7273H268.761V96.9659H272.639V93.7273H273.52V101H272.639V97.7472H268.761V101H267.881ZM276.775 101.128C276.429 101.128 276.115 101.063 275.833 100.933C275.552 100.8 275.328 100.609 275.162 100.361C274.997 100.11 274.914 99.8068 274.914 99.4517C274.914 99.1392 274.975 98.8859 275.098 98.6918C275.221 98.4953 275.386 98.3414 275.592 98.2301C275.798 98.1188 276.025 98.036 276.274 97.9815C276.525 97.9247 276.777 97.8797 277.03 97.8466C277.362 97.804 277.63 97.772 277.836 97.7507C278.045 97.727 278.196 97.688 278.291 97.6335C278.388 97.5791 278.436 97.4844 278.436 97.3494V97.321C278.436 96.9706 278.341 96.6984 278.149 96.5043C277.959 96.3101 277.672 96.2131 277.286 96.2131C276.886 96.2131 276.572 96.3007 276.345 96.4759C276.118 96.651 275.958 96.8381 275.865 97.0369L275.07 96.7528C275.212 96.4214 275.401 96.1634 275.638 95.9787C275.877 95.7917 276.138 95.6615 276.419 95.5881C276.703 95.5123 276.983 95.4744 277.257 95.4744C277.433 95.4744 277.634 95.4957 277.861 95.5384C278.091 95.5786 278.312 95.6626 278.525 95.7905C278.741 95.9183 278.919 96.1113 279.061 96.3693C279.203 96.6274 279.275 96.973 279.275 97.4062V101H278.436V100.261H278.394C278.337 100.38 278.242 100.506 278.11 100.641C277.977 100.776 277.801 100.891 277.581 100.986C277.36 101.08 277.092 101.128 276.775 101.128ZM276.902 100.375C277.234 100.375 277.513 100.31 277.74 100.18C277.97 100.049 278.143 99.8814 278.259 99.6754C278.377 99.4695 278.436 99.2528 278.436 99.0256V98.2585C278.401 98.3011 278.323 98.3402 278.202 98.3757C278.084 98.4089 277.946 98.4384 277.79 98.4645C277.636 98.4882 277.486 98.5095 277.339 98.5284C277.195 98.545 277.078 98.5592 276.988 98.571C276.77 98.5994 276.566 98.6456 276.377 98.7095C276.19 98.7711 276.038 98.8646 275.922 98.9901C275.809 99.1132 275.752 99.2812 275.752 99.4943C275.752 99.7855 275.859 100.006 276.075 100.155C276.293 100.302 276.569 100.375 276.902 100.375ZM281.642 97.7188V101H280.804V95.5455H281.614V96.3977H281.685C281.813 96.1207 282.007 95.8982 282.267 95.7301C282.528 95.5597 282.864 95.4744 283.276 95.4744C283.645 95.4744 283.968 95.5502 284.245 95.7017C284.522 95.8509 284.738 96.0781 284.892 96.3835C285.045 96.6866 285.122 97.0701 285.122 97.5341V101H284.284V97.5909C284.284 97.1624 284.173 96.8286 283.95 96.5895C283.728 96.348 283.423 96.2273 283.034 96.2273C282.767 96.2273 282.528 96.2853 282.317 96.4013C282.109 96.5173 281.944 96.6866 281.823 96.9091C281.703 97.1316 281.642 97.4015 281.642 97.7188ZM288.713 101.114C288.259 101.114 287.858 100.999 287.51 100.769C287.162 100.537 286.889 100.21 286.693 99.7891C286.496 99.3653 286.398 98.8646 286.398 98.2869C286.398 97.714 286.496 97.2169 286.693 96.7955C286.889 96.3741 287.163 96.0485 287.513 95.8189C287.864 95.5893 288.268 95.4744 288.728 95.4744C289.083 95.4744 289.363 95.5336 289.569 95.652C289.778 95.768 289.936 95.9006 290.045 96.0497C290.156 96.1965 290.243 96.3172 290.304 96.4119H290.375V93.7273H291.213V101H290.404V100.162H290.304C290.243 100.261 290.155 100.387 290.042 100.538C289.928 100.687 289.766 100.821 289.555 100.94C289.344 101.056 289.064 101.114 288.713 101.114ZM288.827 100.361C289.163 100.361 289.447 100.273 289.679 100.098C289.911 99.9205 290.088 99.6754 290.208 99.3629C290.329 99.0481 290.39 98.6847 290.39 98.2727C290.39 97.8655 290.33 97.5092 290.212 97.2038C290.094 96.8961 289.918 96.657 289.686 96.4865C289.454 96.3137 289.168 96.2273 288.827 96.2273C288.472 96.2273 288.176 96.3184 287.939 96.5007C287.705 96.6806 287.529 96.9257 287.41 97.2358C287.294 97.5436 287.236 97.8892 287.236 98.2727C287.236 98.661 287.295 99.0137 287.414 99.331C287.534 99.6458 287.712 99.8968 287.946 100.084C288.183 100.268 288.477 100.361 288.827 100.361ZM293.703 93.7273V101H292.865V93.7273H293.703ZM297.525 101.114C296.999 101.114 296.546 100.998 296.165 100.766C295.786 100.531 295.493 100.205 295.287 99.7855C295.084 99.3641 294.982 98.8741 294.982 98.3153C294.982 97.7566 295.084 97.2642 295.287 96.8381C295.493 96.4096 295.78 96.0758 296.147 95.8366C296.516 95.5952 296.947 95.4744 297.439 95.4744C297.724 95.4744 298.004 95.5218 298.281 95.6165C298.558 95.7112 298.81 95.8651 299.037 96.0781C299.265 96.2888 299.446 96.5682 299.581 96.9162C299.716 97.2642 299.783 97.6927 299.783 98.2017V98.5568H295.579V97.8324H298.931C298.931 97.5246 298.869 97.25 298.746 97.0085C298.626 96.767 298.453 96.5765 298.228 96.4368C298.005 96.2971 297.742 96.2273 297.439 96.2273C297.106 96.2273 296.817 96.3101 296.573 96.4759C296.331 96.6392 296.146 96.8523 296.015 97.1151C295.885 97.3778 295.82 97.6596 295.82 97.9602V98.4432C295.82 98.8551 295.891 99.2043 296.033 99.4908C296.178 99.7749 296.378 99.9915 296.633 100.141C296.889 100.287 297.186 100.361 297.525 100.361C297.745 100.361 297.944 100.33 298.121 100.268C298.301 100.205 298.456 100.11 298.586 99.9844C298.717 99.8565 298.817 99.6979 298.888 99.5085L299.698 99.7358C299.613 100.01 299.47 100.252 299.268 100.46C299.067 100.666 298.818 100.827 298.523 100.943C298.227 101.057 297.894 101.114 297.525 101.114Z" fill="#E8178A"/>
<path d="M165.881 72V64.7273H170.241V65.5085H166.761V67.9659H169.915V68.7472H166.761V72H165.881ZM171.636 72V66.5455H172.474V72H171.636ZM172.062 65.6364C171.899 65.6364 171.758 65.5807 171.64 65.4695C171.524 65.3582 171.466 65.2244 171.466 65.0682C171.466 64.9119 171.524 64.7782 171.64 64.6669C171.758 64.5556 171.899 64.5 172.062 64.5C172.226 64.5 172.365 64.5556 172.481 64.6669C172.6 64.7782 172.659 64.9119 172.659 65.0682C172.659 65.2244 172.6 65.3582 172.481 65.4695C172.365 65.5807 172.226 65.6364 172.062 65.6364ZM174.847 64.7273V72H174.009V64.7273H174.847ZM177.22 64.7273V72H176.382V64.7273H177.22Z" fill="#E8178A"/>
<path d="M182 68.5H212" stroke="#E8178A"/>
<circle cx="211" cy="68.5" r="1" fill="#E8178A"/>
<path d="M154.179 94.7273L156.338 100.849H156.423L158.582 94.7273H159.506L156.835 102H155.926L153.256 94.7273H154.179ZM161.622 102.128C161.277 102.128 160.963 102.063 160.681 101.933C160.399 101.8 160.176 101.609 160.01 101.361C159.844 101.11 159.761 100.807 159.761 100.452C159.761 100.139 159.823 99.8859 159.946 99.6918C160.069 99.4953 160.234 99.3414 160.44 99.2301C160.646 99.1188 160.873 99.036 161.121 98.9815C161.372 98.9247 161.625 98.8797 161.878 98.8466C162.209 98.804 162.478 98.772 162.684 98.7507C162.892 98.727 163.044 98.688 163.138 98.6335C163.236 98.5791 163.284 98.4844 163.284 98.3494V98.321C163.284 97.9706 163.188 97.6984 162.996 97.5043C162.807 97.3101 162.519 97.2131 162.134 97.2131C161.733 97.2131 161.42 97.3007 161.192 97.4759C160.965 97.651 160.805 97.8381 160.713 98.0369L159.918 97.7528C160.06 97.4214 160.249 97.1634 160.486 96.9787C160.725 96.7917 160.985 96.6615 161.267 96.5881C161.551 96.5123 161.83 96.4744 162.105 96.4744C162.28 96.4744 162.482 96.4957 162.709 96.5384C162.938 96.5786 163.16 96.6626 163.373 96.7905C163.588 96.9183 163.767 97.1113 163.909 97.3693C164.051 97.6274 164.122 97.973 164.122 98.4062V102H163.284V101.261H163.241C163.185 101.38 163.09 101.506 162.957 101.641C162.825 101.776 162.648 101.891 162.428 101.986C162.208 102.08 161.939 102.128 161.622 102.128ZM161.75 101.375C162.081 101.375 162.361 101.31 162.588 101.18C162.818 101.049 162.991 100.881 163.107 100.675C163.225 100.469 163.284 100.253 163.284 100.026V99.2585C163.249 99.3011 163.17 99.3402 163.05 99.3757C162.931 99.4089 162.794 99.4384 162.638 99.4645C162.484 99.4882 162.334 99.5095 162.187 99.5284C162.042 99.545 161.925 99.5592 161.835 99.571C161.617 99.5994 161.414 99.6456 161.224 99.7095C161.037 99.7711 160.886 99.8646 160.77 99.9901C160.656 100.113 160.599 100.281 160.599 100.494C160.599 100.786 160.707 101.006 160.923 101.155C161.14 101.302 161.416 101.375 161.75 101.375ZM166.49 94.7273V102H165.652V94.7273H166.49ZM171.462 99.7699V96.5455H172.3V102H171.462V101.077H171.406C171.278 101.354 171.079 101.589 170.809 101.783C170.539 101.975 170.198 102.071 169.786 102.071C169.445 102.071 169.142 101.996 168.877 101.847C168.612 101.696 168.404 101.469 168.252 101.165C168.101 100.86 168.025 100.475 168.025 100.011V96.5455H168.863V99.9545C168.863 100.352 168.974 100.67 169.197 100.906C169.422 101.143 169.708 101.261 170.056 101.261C170.264 101.261 170.476 101.208 170.692 101.102C170.91 100.995 171.092 100.832 171.239 100.612C171.388 100.391 171.462 100.111 171.462 99.7699ZM176.122 102.114C175.597 102.114 175.143 101.998 174.762 101.766C174.383 101.531 174.091 101.205 173.885 100.786C173.682 100.364 173.58 99.8741 173.58 99.3153C173.58 98.7566 173.682 98.2642 173.885 97.8381C174.091 97.4096 174.378 97.0758 174.744 96.8366C175.114 96.5952 175.545 96.4744 176.037 96.4744C176.321 96.4744 176.602 96.5218 176.879 96.6165C177.156 96.7112 177.408 96.8651 177.635 97.0781C177.862 97.2888 178.044 97.5682 178.178 97.9162C178.313 98.2642 178.381 98.6927 178.381 99.2017V99.5568H174.176V98.8324H177.529C177.529 98.5246 177.467 98.25 177.344 98.0085C177.223 97.767 177.05 97.5765 176.825 97.4368C176.603 97.2971 176.34 97.2273 176.037 97.2273C175.703 97.2273 175.414 97.3101 175.171 97.4759C174.929 97.6392 174.743 97.8523 174.613 98.1151C174.483 98.3778 174.418 98.6596 174.418 98.9602V99.4432C174.418 99.8551 174.489 100.204 174.631 100.491C174.775 100.775 174.975 100.991 175.231 101.141C175.487 101.287 175.784 101.361 176.122 101.361C176.343 101.361 176.541 101.33 176.719 101.268C176.899 101.205 177.054 101.11 177.184 100.984C177.314 100.857 177.415 100.698 177.486 100.509L178.296 100.736C178.21 101.01 178.067 101.252 177.866 101.46C177.665 101.666 177.416 101.827 177.12 101.943C176.824 102.057 176.492 102.114 176.122 102.114Z" fill="#E8178A"/>
<path d="M183 98.5H213" stroke="#E8178A"/>
<circle cx="212" cy="98.5" r="1" fill="#E8178A"/>
</svg>
