<svg width="260" height="68" viewBox="0 0 260 68" fill="none" xmlns="http://www.w3.org/2000/svg">
<rect y="6" width="256" height="4" rx="2" fill="#B0B0B0"/>
<rect y="6" width="84" height="4" rx="2" fill="#1E71F6"/>
<circle cx="76" cy="8" r="8" fill="#194CCC"/>
<path d="M1.40909 28.3636H3.09091L7.04545 38.0227H7.18182L11.1364 28.3636H12.8182V40H11.5V31.1591H11.3864L7.75 40H6.47727L2.84091 31.1591H2.72727V40H1.40909V28.3636ZM15.4616 40V31.2727H16.8026V40H15.4616ZM16.1435 29.8182C15.8821 29.8182 15.6567 29.7292 15.4673 29.5511C15.2817 29.3731 15.1889 29.1591 15.1889 28.9091C15.1889 28.6591 15.2817 28.4451 15.4673 28.267C15.6567 28.089 15.8821 28 16.1435 28C16.4048 28 16.6283 28.089 16.8139 28.267C17.0033 28.4451 17.098 28.6591 17.098 28.9091C17.098 29.1591 17.0033 29.3731 16.8139 29.5511C16.6283 29.7292 16.4048 29.8182 16.1435 29.8182ZM20.5994 34.75V40H19.2585V31.2727H20.554V32.6364H20.6676C20.8722 32.1932 21.1828 31.8371 21.5994 31.5682C22.0161 31.2955 22.554 31.1591 23.2131 31.1591C23.804 31.1591 24.321 31.2803 24.7642 31.5227C25.2074 31.7614 25.5521 32.125 25.7983 32.6136C26.0445 33.0985 26.1676 33.7121 26.1676 34.4545V40H24.8267V34.5455C24.8267 33.8598 24.6487 33.3258 24.2926 32.9432C23.9366 32.5568 23.4479 32.3636 22.8267 32.3636C22.3987 32.3636 22.0161 32.4564 21.679 32.642C21.3456 32.8277 21.0824 33.0985 20.8892 33.4545C20.696 33.8106 20.5994 34.2424 20.5994 34.75ZM28.6179 40V31.2727H29.9588V40H28.6179ZM29.2997 29.8182C29.0384 29.8182 28.813 29.7292 28.6236 29.5511C28.438 29.3731 28.3452 29.1591 28.3452 28.9091C28.3452 28.6591 28.438 28.4451 28.6236 28.267C28.813 28.089 29.0384 28 29.2997 28C29.5611 28 29.7846 28.089 29.9702 28.267C30.1596 28.4451 30.2543 28.6591 30.2543 28.9091C30.2543 29.1591 30.1596 29.3731 29.9702 29.5511C29.7846 29.7292 29.5611 29.8182 29.2997 29.8182ZM32.4148 40V31.2727H33.7102V32.6364H33.8239C34.0057 32.1705 34.2992 31.8087 34.7045 31.5511C35.1098 31.2898 35.5966 31.1591 36.1648 31.1591C36.7405 31.1591 37.2197 31.2898 37.6023 31.5511C37.9886 31.8087 38.2898 32.1705 38.5057 32.6364H38.5966C38.8201 32.1856 39.1553 31.8277 39.6023 31.5625C40.0492 31.2936 40.5852 31.1591 41.2102 31.1591C41.9905 31.1591 42.6288 31.4034 43.125 31.892C43.6212 32.3769 43.8693 33.1326 43.8693 34.1591V40H42.5284V34.1591C42.5284 33.5152 42.3523 33.0549 42 32.7784C41.6477 32.5019 41.233 32.3636 40.7557 32.3636C40.142 32.3636 39.6667 32.5492 39.3295 32.9205C38.9924 33.2879 38.8239 33.7538 38.8239 34.3182V40H37.4602V34.0227C37.4602 33.5265 37.2992 33.1269 36.9773 32.8239C36.6553 32.517 36.2405 32.3636 35.733 32.3636C35.3845 32.3636 35.0587 32.4564 34.7557 32.642C34.4564 32.8277 34.214 33.0852 34.0284 33.4148C33.8466 33.7405 33.7557 34.1174 33.7557 34.5455V40H32.4148ZM51.821 36.4318V31.2727H53.1619V40H51.821V38.5227H51.7301C51.5256 38.9659 51.2074 39.3428 50.7756 39.6534C50.3438 39.9602 49.7983 40.1136 49.1392 40.1136C48.5938 40.1136 48.1089 39.9943 47.6847 39.7557C47.2604 39.5133 46.9271 39.1496 46.6847 38.6648C46.4422 38.1761 46.321 37.5606 46.321 36.8182V31.2727H47.6619V36.7273C47.6619 37.3636 47.84 37.8712 48.196 38.25C48.5559 38.6288 49.0142 38.8182 49.571 38.8182C49.9044 38.8182 50.2434 38.733 50.5881 38.5625C50.9366 38.392 51.2282 38.1307 51.4631 37.7784C51.7017 37.4261 51.821 36.9773 51.821 36.4318ZM55.6179 40V31.2727H56.9134V32.6364H57.027C57.2088 32.1705 57.5024 31.8087 57.9077 31.5511C58.313 31.2898 58.7997 31.1591 59.3679 31.1591C59.9437 31.1591 60.4228 31.2898 60.8054 31.5511C61.1918 31.8087 61.4929 32.1705 61.7088 32.6364H61.7997C62.0232 32.1856 62.3584 31.8277 62.8054 31.5625C63.2524 31.2936 63.7884 31.1591 64.4134 31.1591C65.1937 31.1591 65.8319 31.4034 66.3281 31.892C66.8243 32.3769 67.0724 33.1326 67.0724 34.1591V40H65.7315V34.1591C65.7315 33.5152 65.5554 33.0549 65.2031 32.7784C64.8509 32.5019 64.4361 32.3636 63.9588 32.3636C63.3452 32.3636 62.8698 32.5492 62.5327 32.9205C62.1955 33.2879 62.027 33.7538 62.027 34.3182V40H60.6634V34.0227C60.6634 33.5265 60.5024 33.1269 60.1804 32.8239C59.8584 32.517 59.4437 32.3636 58.9361 32.3636C58.5876 32.3636 58.2618 32.4564 57.9588 32.642C57.6596 32.8277 57.4171 33.0852 57.2315 33.4148C57.0497 33.7405 56.9588 34.1174 56.9588 34.5455V40H55.6179ZM77.5696 40.1818C76.7514 40.1818 76.0469 39.9886 75.456 39.6023C74.8651 39.2159 74.4105 38.6837 74.0923 38.0057C73.7741 37.3277 73.6151 36.553 73.6151 35.6818C73.6151 34.7955 73.7779 34.0133 74.1037 33.3352C74.4332 32.6534 74.8916 32.1212 75.4787 31.7386C76.0696 31.3523 76.759 31.1591 77.5469 31.1591C78.1605 31.1591 78.7135 31.2727 79.206 31.5C79.6984 31.7273 80.1018 32.0455 80.4162 32.4545C80.7306 32.8636 80.9257 33.3409 81.0014 33.8864H79.6605C79.5582 33.4886 79.331 33.1364 78.9787 32.8295C78.6302 32.5189 78.1605 32.3636 77.5696 32.3636C77.0469 32.3636 76.5885 32.5 76.1946 32.7727C75.8045 33.0417 75.4995 33.4223 75.2798 33.9148C75.0639 34.4034 74.956 34.9773 74.956 35.6364C74.956 36.3106 75.062 36.8977 75.2741 37.3977C75.4901 37.8977 75.7931 38.286 76.1832 38.5625C76.5772 38.839 77.0393 38.9773 77.5696 38.9773C77.9181 38.9773 78.2344 38.9167 78.5185 38.7955C78.8026 38.6742 79.0431 38.5 79.2401 38.2727C79.437 38.0455 79.5772 37.7727 79.6605 37.4545H81.0014C80.9257 37.9697 80.7382 38.4337 80.4389 38.8466C80.1435 39.2557 79.7514 39.5814 79.2628 39.8239C78.7779 40.0625 78.2135 40.1818 77.5696 40.1818ZM86.5071 40.1818C85.7192 40.1818 85.0279 39.9943 84.4332 39.6193C83.8423 39.2443 83.3802 38.7197 83.0469 38.0455C82.7173 37.3712 82.5526 36.5833 82.5526 35.6818C82.5526 34.7727 82.7173 33.9792 83.0469 33.3011C83.3802 32.6231 83.8423 32.0966 84.4332 31.7216C85.0279 31.3466 85.7192 31.1591 86.5071 31.1591C87.295 31.1591 87.9844 31.3466 88.5753 31.7216C89.17 32.0966 89.6321 32.6231 89.9616 33.3011C90.295 33.9792 90.4616 34.7727 90.4616 35.6818C90.4616 36.5833 90.295 37.3712 89.9616 38.0455C89.6321 38.7197 89.17 39.2443 88.5753 39.6193C87.9844 39.9943 87.295 40.1818 86.5071 40.1818ZM86.5071 38.9773C87.1056 38.9773 87.598 38.8239 87.9844 38.517C88.3707 38.2102 88.6567 37.8068 88.8423 37.3068C89.0279 36.8068 89.1207 36.2652 89.1207 35.6818C89.1207 35.0985 89.0279 34.5549 88.8423 34.0511C88.6567 33.5473 88.3707 33.1402 87.9844 32.8295C87.598 32.5189 87.1056 32.3636 86.5071 32.3636C85.9086 32.3636 85.4162 32.5189 85.0298 32.8295C84.6435 33.1402 84.3575 33.5473 84.1719 34.0511C83.9863 34.5549 83.8935 35.0985 83.8935 35.6818C83.8935 36.2652 83.9863 36.8068 84.1719 37.3068C84.3575 37.8068 84.6435 38.2102 85.0298 38.517C85.4162 38.8239 85.9086 38.9773 86.5071 38.9773ZM92.5085 40V31.2727H93.804V32.6364H93.9176C94.0994 32.1705 94.393 31.8087 94.7983 31.5511C95.2036 31.2898 95.6903 31.1591 96.2585 31.1591C96.8343 31.1591 97.3134 31.2898 97.696 31.5511C98.0824 31.8087 98.3835 32.1705 98.5994 32.6364H98.6903C98.9138 32.1856 99.2491 31.8277 99.696 31.5625C100.143 31.2936 100.679 31.1591 101.304 31.1591C102.084 31.1591 102.723 31.4034 103.219 31.892C103.715 32.3769 103.963 33.1326 103.963 34.1591V40H102.622V34.1591C102.622 33.5152 102.446 33.0549 102.094 32.7784C101.741 32.5019 101.327 32.3636 100.849 32.3636C100.236 32.3636 99.7604 32.5492 99.4233 32.9205C99.0862 33.2879 98.9176 33.7538 98.9176 34.3182V40H97.554V34.0227C97.554 33.5265 97.393 33.1269 97.071 32.8239C96.7491 32.517 96.3343 32.3636 95.8267 32.3636C95.4782 32.3636 95.1525 32.4564 94.8494 32.642C94.5502 32.8277 94.3078 33.0852 94.1222 33.4148C93.9403 33.7405 93.8494 34.1174 93.8494 34.5455V40H92.5085ZM106.415 43.2727V31.2727H107.71V32.6591H107.869C107.968 32.5076 108.104 32.3144 108.278 32.0795C108.456 31.8409 108.71 31.6288 109.04 31.4432C109.373 31.2538 109.824 31.1591 110.392 31.1591C111.127 31.1591 111.775 31.3428 112.335 31.7102C112.896 32.0777 113.333 32.5985 113.648 33.2727C113.962 33.947 114.119 34.7424 114.119 35.6591C114.119 36.5833 113.962 37.3845 113.648 38.0625C113.333 38.7367 112.898 39.2595 112.341 39.6307C111.784 39.9981 111.142 40.1818 110.415 40.1818C109.854 40.1818 109.405 40.089 109.068 39.9034C108.731 39.714 108.472 39.5 108.29 39.2614C108.108 39.0189 107.968 38.8182 107.869 38.6591H107.756V43.2727H106.415ZM107.733 35.6364C107.733 36.2955 107.83 36.8769 108.023 37.3807C108.216 37.8807 108.498 38.2727 108.869 38.5568C109.241 38.8371 109.695 38.9773 110.233 38.9773C110.794 38.9773 111.261 38.8295 111.636 38.5341C112.015 38.2348 112.299 37.8333 112.489 37.3295C112.682 36.822 112.778 36.2576 112.778 35.6364C112.778 35.0227 112.684 34.4697 112.494 33.9773C112.309 33.4811 112.027 33.089 111.648 32.8011C111.273 32.5095 110.801 32.3636 110.233 32.3636C109.688 32.3636 109.229 32.5019 108.858 32.7784C108.487 33.0511 108.206 33.4337 108.017 33.9261C107.828 34.4148 107.733 34.9848 107.733 35.6364ZM117.506 28.3636V40H116.165V28.3636H117.506ZM123.621 40.1818C122.78 40.1818 122.054 39.9962 121.445 39.625C120.839 39.25 120.371 38.7273 120.041 38.0568C119.715 37.3826 119.553 36.5985 119.553 35.7045C119.553 34.8106 119.715 34.0227 120.041 33.3409C120.371 32.6553 120.829 32.1212 121.416 31.7386C122.007 31.3523 122.696 31.1591 123.484 31.1591C123.939 31.1591 124.388 31.2348 124.831 31.3864C125.274 31.5379 125.678 31.7841 126.041 32.125C126.405 32.4621 126.695 32.9091 126.911 33.4659C127.126 34.0227 127.234 34.7083 127.234 35.5227V36.0909H120.507V34.9318H125.871C125.871 34.4394 125.772 34 125.575 33.6136C125.382 33.2273 125.106 32.9223 124.746 32.6989C124.39 32.4754 123.969 32.3636 123.484 32.3636C122.95 32.3636 122.488 32.4962 122.098 32.7614C121.712 33.0227 121.414 33.3636 121.206 33.7841C120.998 34.2045 120.893 34.6553 120.893 35.1364V35.9091C120.893 36.5682 121.007 37.1269 121.234 37.5852C121.465 38.0398 121.786 38.3864 122.195 38.625C122.604 38.8598 123.079 38.9773 123.621 38.9773C123.973 38.9773 124.291 38.928 124.575 38.8295C124.863 38.7273 125.111 38.5758 125.32 38.375C125.528 38.1705 125.689 37.9167 125.803 37.6136L127.098 37.9773C126.962 38.4167 126.732 38.803 126.411 39.1364C126.089 39.4659 125.691 39.7235 125.217 39.9091C124.744 40.0909 124.212 40.1818 123.621 40.1818ZM133.07 31.2727V32.4091H128.547V31.2727H133.07ZM129.865 29.1818H131.206V37.5C131.206 37.8788 131.261 38.1629 131.371 38.3523C131.484 38.5379 131.628 38.6629 131.803 38.7273C131.981 38.7879 132.168 38.8182 132.365 38.8182C132.513 38.8182 132.634 38.8106 132.729 38.7955C132.823 38.7765 132.899 38.7614 132.956 38.75L133.229 39.9545C133.138 39.9886 133.011 40.0227 132.848 40.0568C132.685 40.0947 132.479 40.1136 132.229 40.1136C131.85 40.1136 131.479 40.0322 131.115 39.8693C130.755 39.7064 130.456 39.4583 130.217 39.125C129.982 38.7917 129.865 38.3712 129.865 37.8636V29.1818ZM135.087 40V31.2727H136.428V40H135.087ZM135.768 29.8182C135.507 29.8182 135.282 29.7292 135.092 29.5511C134.907 29.3731 134.814 29.1591 134.814 28.9091C134.814 28.6591 134.907 28.4451 135.092 28.267C135.282 28.089 135.507 28 135.768 28C136.03 28 136.253 28.089 136.439 28.267C136.628 28.4451 136.723 28.6591 136.723 28.9091C136.723 29.1591 136.628 29.3731 136.439 29.5511C136.253 29.7292 136.03 29.8182 135.768 29.8182ZM142.429 40.1818C141.641 40.1818 140.95 39.9943 140.355 39.6193C139.764 39.2443 139.302 38.7197 138.969 38.0455C138.639 37.3712 138.474 36.5833 138.474 35.6818C138.474 34.7727 138.639 33.9792 138.969 33.3011C139.302 32.6231 139.764 32.0966 140.355 31.7216C140.95 31.3466 141.641 31.1591 142.429 31.1591C143.217 31.1591 143.906 31.3466 144.497 31.7216C145.092 32.0966 145.554 32.6231 145.884 33.3011C146.217 33.9792 146.384 34.7727 146.384 35.6818C146.384 36.5833 146.217 37.3712 145.884 38.0455C145.554 38.7197 145.092 39.2443 144.497 39.6193C143.906 39.9943 143.217 40.1818 142.429 40.1818ZM142.429 38.9773C143.027 38.9773 143.52 38.8239 143.906 38.517C144.293 38.2102 144.579 37.8068 144.764 37.3068C144.95 36.8068 145.043 36.2652 145.043 35.6818C145.043 35.0985 144.95 34.5549 144.764 34.0511C144.579 33.5473 144.293 33.1402 143.906 32.8295C143.52 32.5189 143.027 32.3636 142.429 32.3636C141.83 32.3636 141.338 32.5189 140.952 32.8295C140.565 33.1402 140.279 33.5473 140.094 34.0511C139.908 34.5549 139.815 35.0985 139.815 35.6818C139.815 36.2652 139.908 36.8068 140.094 37.3068C140.279 37.8068 140.565 38.2102 140.952 38.517C141.338 38.8239 141.83 38.9773 142.429 38.9773ZM149.771 34.75V40H148.43V31.2727H149.726V32.6364H149.839C150.044 32.1932 150.355 31.8371 150.771 31.5682C151.188 31.2955 151.726 31.1591 152.385 31.1591C152.976 31.1591 153.493 31.2803 153.936 31.5227C154.379 31.7614 154.724 32.125 154.97 32.6136C155.216 33.0985 155.339 33.7121 155.339 34.4545V40H153.999V34.5455C153.999 33.8598 153.821 33.3258 153.464 32.9432C153.108 32.5568 152.62 32.3636 151.999 32.3636C151.571 32.3636 151.188 32.4564 150.851 32.642C150.518 32.8277 150.254 33.0985 150.061 33.4545C149.868 33.8106 149.771 34.2424 149.771 34.75ZM165.835 40.1818C165.047 40.1818 164.356 39.9943 163.761 39.6193C163.17 39.2443 162.708 38.7197 162.375 38.0455C162.045 37.3712 161.881 36.5833 161.881 35.6818C161.881 34.7727 162.045 33.9792 162.375 33.3011C162.708 32.6231 163.17 32.0966 163.761 31.7216C164.356 31.3466 165.047 31.1591 165.835 31.1591C166.623 31.1591 167.313 31.3466 167.903 31.7216C168.498 32.0966 168.96 32.6231 169.29 33.3011C169.623 33.9792 169.79 34.7727 169.79 35.6818C169.79 36.5833 169.623 37.3712 169.29 38.0455C168.96 38.7197 168.498 39.2443 167.903 39.6193C167.313 39.9943 166.623 40.1818 165.835 40.1818ZM165.835 38.9773C166.434 38.9773 166.926 38.8239 167.312 38.517C167.699 38.2102 167.985 37.8068 168.17 37.3068C168.356 36.8068 168.449 36.2652 168.449 35.6818C168.449 35.0985 168.356 34.5549 168.17 34.0511C167.985 33.5473 167.699 33.1402 167.312 32.8295C166.926 32.5189 166.434 32.3636 165.835 32.3636C165.237 32.3636 164.744 32.5189 164.358 32.8295C163.972 33.1402 163.686 33.5473 163.5 34.0511C163.314 34.5549 163.222 35.0985 163.222 35.6818C163.222 36.2652 163.314 36.8068 163.5 37.3068C163.686 37.8068 163.972 38.2102 164.358 38.517C164.744 38.8239 165.237 38.9773 165.835 38.9773ZM175.723 31.2727V32.4091H171.018V31.2727H175.723ZM172.428 40V30.0682C172.428 29.5682 172.545 29.1515 172.78 28.8182C173.015 28.4848 173.32 28.2348 173.695 28.0682C174.07 27.9015 174.465 27.8182 174.882 27.8182C175.212 27.8182 175.481 27.8447 175.689 27.8977C175.897 27.9508 176.053 28 176.155 28.0455L175.768 29.2045C175.7 29.1818 175.606 29.1534 175.484 29.1193C175.367 29.0852 175.212 29.0682 175.018 29.0682C174.575 29.0682 174.255 29.1799 174.058 29.4034C173.865 29.6269 173.768 29.9545 173.768 30.3864V40H172.428ZM183.443 34.75V40H182.102V28.3636H183.443V32.6364H183.557C183.761 32.1856 184.068 31.8277 184.477 31.5625C184.89 31.2936 185.439 31.1591 186.125 31.1591C186.72 31.1591 187.241 31.2784 187.688 31.517C188.134 31.7519 188.481 32.1136 188.727 32.6023C188.977 33.0871 189.102 33.7045 189.102 34.4545V40H187.761V34.5455C187.761 33.8523 187.581 33.3163 187.222 32.9375C186.866 32.5549 186.371 32.3636 185.739 32.3636C185.299 32.3636 184.905 32.4564 184.557 32.642C184.212 32.8277 183.939 33.0985 183.739 33.4545C183.542 33.8106 183.443 34.2424 183.443 34.75ZM195.101 40.1818C194.313 40.1818 193.622 39.9943 193.027 39.6193C192.436 39.2443 191.974 38.7197 191.641 38.0455C191.311 37.3712 191.146 36.5833 191.146 35.6818C191.146 34.7727 191.311 33.9792 191.641 33.3011C191.974 32.6231 192.436 32.0966 193.027 31.7216C193.622 31.3466 194.313 31.1591 195.101 31.1591C195.889 31.1591 196.578 31.3466 197.169 31.7216C197.764 32.0966 198.226 32.6231 198.555 33.3011C198.889 33.9792 199.055 34.7727 199.055 35.6818C199.055 36.5833 198.889 37.3712 198.555 38.0455C198.226 38.7197 197.764 39.2443 197.169 39.6193C196.578 39.9943 195.889 40.1818 195.101 40.1818ZM195.101 38.9773C195.699 38.9773 196.192 38.8239 196.578 38.517C196.964 38.2102 197.25 37.8068 197.436 37.3068C197.622 36.8068 197.714 36.2652 197.714 35.6818C197.714 35.0985 197.622 34.5549 197.436 34.0511C197.25 33.5473 196.964 33.1402 196.578 32.8295C196.192 32.5189 195.699 32.3636 195.101 32.3636C194.502 32.3636 194.01 32.5189 193.624 32.8295C193.237 33.1402 192.951 33.5473 192.766 34.0511C192.58 34.5549 192.487 35.0985 192.487 35.6818C192.487 36.2652 192.58 36.8068 192.766 37.3068C192.951 37.8068 193.237 38.2102 193.624 38.517C194.01 38.8239 194.502 38.9773 195.101 38.9773ZM201.102 40V31.2727H202.398V32.6364H202.511C202.693 32.1705 202.987 31.8087 203.392 31.5511C203.797 31.2898 204.284 31.1591 204.852 31.1591C205.428 31.1591 205.907 31.2898 206.29 31.5511C206.676 31.8087 206.977 32.1705 207.193 32.6364H207.284C207.508 32.1856 207.843 31.8277 208.29 31.5625C208.737 31.2936 209.273 31.1591 209.898 31.1591C210.678 31.1591 211.316 31.4034 211.812 31.892C212.309 32.3769 212.557 33.1326 212.557 34.1591V40H211.216V34.1591C211.216 33.5152 211.04 33.0549 210.688 32.7784C210.335 32.5019 209.92 32.3636 209.443 32.3636C208.83 32.3636 208.354 32.5492 208.017 32.9205C207.68 33.2879 207.511 33.7538 207.511 34.3182V40H206.148V34.0227C206.148 33.5265 205.987 33.1269 205.665 32.8239C205.343 32.517 204.928 32.3636 204.42 32.3636C204.072 32.3636 203.746 32.4564 203.443 32.642C203.144 32.8277 202.902 33.0852 202.716 33.4148C202.534 33.7405 202.443 34.1174 202.443 34.5455V40H201.102ZM218.668 40.1818C217.827 40.1818 217.101 39.9962 216.491 39.625C215.885 39.25 215.418 38.7273 215.088 38.0568C214.762 37.3826 214.599 36.5985 214.599 35.7045C214.599 34.8106 214.762 34.0227 215.088 33.3409C215.418 32.6553 215.876 32.1212 216.463 31.7386C217.054 31.3523 217.743 31.1591 218.531 31.1591C218.986 31.1591 219.435 31.2348 219.878 31.3864C220.321 31.5379 220.724 31.7841 221.088 32.125C221.452 32.4621 221.741 32.9091 221.957 33.4659C222.173 34.0227 222.281 34.7083 222.281 35.5227V36.0909H215.554V34.9318H220.918C220.918 34.4394 220.819 34 220.622 33.6136C220.429 33.2273 220.152 32.9223 219.793 32.6989C219.437 32.4754 219.016 32.3636 218.531 32.3636C217.997 32.3636 217.535 32.4962 217.145 32.7614C216.759 33.0227 216.461 33.3636 216.253 33.7841C216.045 34.2045 215.94 34.6553 215.94 35.1364V35.9091C215.94 36.5682 216.054 37.1269 216.281 37.5852C216.512 38.0398 216.832 38.3864 217.241 38.625C217.651 38.8598 218.126 38.9773 218.668 38.9773C219.02 38.9773 219.338 38.928 219.622 38.8295C219.91 38.7273 220.158 38.5758 220.366 38.375C220.575 38.1705 220.736 37.9167 220.849 37.6136L222.145 37.9773C222.009 38.4167 221.779 38.803 221.457 39.1364C221.135 39.4659 220.738 39.7235 220.264 39.9091C219.791 40.0909 219.259 40.1818 218.668 40.1818ZM226.298 40L223.639 31.2727H225.048L226.935 37.9545H227.026L228.889 31.2727H230.321L232.162 37.9318H232.253L234.139 31.2727H235.548L232.889 40H231.571L229.662 33.2955H229.526L227.616 40H226.298ZM240.57 40.1818C239.782 40.1818 239.09 39.9943 238.496 39.6193C237.905 39.2443 237.443 38.7197 237.109 38.0455C236.78 37.3712 236.615 36.5833 236.615 35.6818C236.615 34.7727 236.78 33.9792 237.109 33.3011C237.443 32.6231 237.905 32.0966 238.496 31.7216C239.09 31.3466 239.782 31.1591 240.57 31.1591C241.357 31.1591 242.047 31.3466 242.638 31.7216C243.232 32.0966 243.695 32.6231 244.024 33.3011C244.357 33.9792 244.524 34.7727 244.524 35.6818C244.524 36.5833 244.357 37.3712 244.024 38.0455C243.695 38.7197 243.232 39.2443 242.638 39.6193C242.047 39.9943 241.357 40.1818 240.57 40.1818ZM240.57 38.9773C241.168 38.9773 241.661 38.8239 242.047 38.517C242.433 38.2102 242.719 37.8068 242.905 37.3068C243.09 36.8068 243.183 36.2652 243.183 35.6818C243.183 35.0985 243.09 34.5549 242.905 34.0511C242.719 33.5473 242.433 33.1402 242.047 32.8295C241.661 32.5189 241.168 32.3636 240.57 32.3636C239.971 32.3636 239.479 32.5189 239.092 32.8295C238.706 33.1402 238.42 33.5473 238.234 34.0511C238.049 34.5549 237.956 35.0985 237.956 35.6818C237.956 36.2652 238.049 36.8068 238.234 37.3068C238.42 37.8068 238.706 38.2102 239.092 38.517C239.479 38.8239 239.971 38.9773 240.57 38.9773ZM246.571 40V31.2727H247.866V32.5909H247.957C248.116 32.1591 248.404 31.8087 248.821 31.5398C249.238 31.2708 249.707 31.1364 250.23 31.1364C250.329 31.1364 250.452 31.1383 250.599 31.142C250.747 31.1458 250.859 31.1515 250.935 31.1591V32.5227C250.889 32.5114 250.785 32.4943 250.622 32.4716C250.463 32.4451 250.295 32.4318 250.116 32.4318C249.692 32.4318 249.313 32.5208 248.98 32.6989C248.651 32.8731 248.389 33.1155 248.196 33.4261C248.007 33.733 247.912 34.0833 247.912 34.4773V40H246.571ZM253.774 36.8182L253.751 35.1591H254.024L257.842 31.2727H259.501L255.433 35.3864H255.32L253.774 36.8182ZM252.524 40V28.3636H253.865V40H252.524ZM258.07 40L254.661 35.6818L255.615 34.75L259.774 40H258.07ZM1.40909 64V52.3636H2.75V56.6591H2.86364C2.96212 56.5076 3.09848 56.3144 3.27273 56.0795C3.45076 55.8409 3.70455 55.6288 4.03409 55.4432C4.36742 55.2538 4.81818 55.1591 5.38636 55.1591C6.12121 55.1591 6.76894 55.3428 7.32955 55.7102C7.89015 56.0777 8.32765 56.5985 8.64205 57.2727C8.95644 57.947 9.11364 58.7424 9.11364 59.6591C9.11364 60.5833 8.95644 61.3845 8.64205 62.0625C8.32765 62.7367 7.89205 63.2595 7.33523 63.6307C6.77841 63.9981 6.13636 64.1818 5.40909 64.1818C4.84848 64.1818 4.39962 64.089 4.0625 63.9034C3.72538 63.714 3.46591 63.5 3.28409 63.2614C3.10227 63.0189 2.96212 62.8182 2.86364 62.6591H2.70455V64H1.40909ZM2.72727 59.6364C2.72727 60.2955 2.82386 60.8769 3.01705 61.3807C3.21023 61.8807 3.49242 62.2727 3.86364 62.5568C4.23485 62.8371 4.68939 62.9773 5.22727 62.9773C5.78788 62.9773 6.25568 62.8295 6.63068 62.5341C7.00947 62.2348 7.29356 61.8333 7.48295 61.3295C7.67614 60.822 7.77273 60.2576 7.77273 59.6364C7.77273 59.0227 7.67803 58.4697 7.48864 57.9773C7.30303 57.4811 7.02083 57.089 6.64205 56.8011C6.26705 56.5095 5.79545 56.3636 5.22727 56.3636C4.68182 56.3636 4.22348 56.5019 3.85227 56.7784C3.48106 57.0511 3.20076 57.4337 3.01136 57.9261C2.82197 58.4148 2.72727 58.9848 2.72727 59.6364ZM11.7159 67.2727C11.4886 67.2727 11.286 67.2538 11.108 67.2159C10.9299 67.1818 10.8068 67.1477 10.7386 67.1136L11.0795 65.9318C11.4053 66.0152 11.6932 66.0455 11.9432 66.0227C12.1932 66 12.4148 65.8883 12.608 65.6875C12.8049 65.4905 12.9848 65.1705 13.1477 64.7273L13.3977 64.0455L10.1705 55.2727H11.625L14.0341 62.2273H14.125L16.5341 55.2727H17.9886L14.2841 65.2727C14.1174 65.7235 13.911 66.0966 13.6648 66.392C13.4186 66.6913 13.1326 66.9129 12.8068 67.0568C12.4848 67.2008 12.1212 67.2727 11.7159 67.2727ZM28.054 55.2727V56.4091H23.5312V55.2727H28.054ZM24.8494 53.1818H26.1903V61.5C26.1903 61.8788 26.2453 62.1629 26.3551 62.3523C26.4688 62.5379 26.6127 62.6629 26.7869 62.7273C26.965 62.7879 27.1525 62.8182 27.3494 62.8182C27.4972 62.8182 27.6184 62.8106 27.7131 62.7955C27.8078 62.7765 27.8835 62.7614 27.9403 62.75L28.2131 63.9545C28.1222 63.9886 27.9953 64.0227 27.8324 64.0568C27.6695 64.0947 27.4631 64.1136 27.2131 64.1136C26.8343 64.1136 26.4631 64.0322 26.0994 63.8693C25.7396 63.7064 25.4403 63.4583 25.2017 63.125C24.9669 62.7917 24.8494 62.3712 24.8494 61.8636V53.1818ZM31.5994 58.75V64H30.2585V52.3636H31.5994V56.6364H31.7131C31.9176 56.1856 32.2244 55.8277 32.6335 55.5625C33.0464 55.2936 33.5956 55.1591 34.2812 55.1591C34.8759 55.1591 35.3968 55.2784 35.8438 55.517C36.2907 55.7519 36.6373 56.1136 36.8835 56.6023C37.1335 57.0871 37.2585 57.7045 37.2585 58.4545V64H35.9176V58.5455C35.9176 57.8523 35.7377 57.3163 35.3778 56.9375C35.0218 56.5549 34.5275 56.3636 33.8949 56.3636C33.4555 56.3636 33.0616 56.4564 32.7131 56.642C32.3684 56.8277 32.0956 57.0985 31.8949 57.4545C31.6979 57.8106 31.5994 58.2424 31.5994 58.75ZM43.3707 64.1818C42.5298 64.1818 41.8045 63.9962 41.1946 63.625C40.5885 63.25 40.1207 62.7273 39.7912 62.0568C39.4654 61.3826 39.3026 60.5985 39.3026 59.7045C39.3026 58.8106 39.4654 58.0227 39.7912 57.3409C40.1207 56.6553 40.5791 56.1212 41.1662 55.7386C41.7571 55.3523 42.4465 55.1591 43.2344 55.1591C43.6889 55.1591 44.1378 55.2348 44.581 55.3864C45.0241 55.5379 45.4276 55.7841 45.7912 56.125C46.1548 56.4621 46.4446 56.9091 46.6605 57.4659C46.8764 58.0227 46.9844 58.7083 46.9844 59.5227V60.0909H40.2571V58.9318H45.6207C45.6207 58.4394 45.5223 58 45.3253 57.6136C45.1321 57.2273 44.8556 56.9223 44.4957 56.6989C44.1397 56.4754 43.7192 56.3636 43.2344 56.3636C42.7003 56.3636 42.2382 56.4962 41.848 56.7614C41.4616 57.0227 41.1643 57.3636 40.956 57.7841C40.7476 58.2045 40.6435 58.6553 40.6435 59.1364V59.9091C40.6435 60.5682 40.7571 61.1269 40.9844 61.5852C41.2154 62.0398 41.5355 62.3864 41.9446 62.625C42.3537 62.8598 42.8291 62.9773 43.3707 62.9773C43.723 62.9773 44.0412 62.928 44.3253 62.8295C44.6132 62.7273 44.8613 62.5758 45.0696 62.375C45.2779 62.1705 45.4389 61.9167 45.5526 61.6136L46.848 61.9773C46.7116 62.4167 46.4825 62.803 46.1605 63.1364C45.8385 63.4659 45.4408 63.7235 44.9673 63.9091C44.4938 64.0909 43.9616 64.1818 43.3707 64.1818ZM59.706 57.2273L58.5014 57.5682C58.4257 57.3674 58.3139 57.1723 58.1662 56.983C58.0223 56.7898 57.8253 56.6307 57.5753 56.5057C57.3253 56.3807 57.0052 56.3182 56.6151 56.3182C56.081 56.3182 55.6359 56.4413 55.2798 56.6875C54.9276 56.9299 54.7514 57.2386 54.7514 57.6136C54.7514 57.947 54.8726 58.2102 55.1151 58.4034C55.3575 58.5966 55.7363 58.7576 56.2514 58.8864L57.5469 59.2045C58.3272 59.3939 58.9086 59.6837 59.2912 60.0739C59.6738 60.4602 59.8651 60.9583 59.8651 61.5682C59.8651 62.0682 59.7211 62.5152 59.4332 62.9091C59.1491 63.303 58.7514 63.6136 58.2401 63.8409C57.7287 64.0682 57.134 64.1818 56.456 64.1818C55.5658 64.1818 54.8291 63.9886 54.2457 63.6023C53.6624 63.2159 53.2931 62.6515 53.1378 61.9091L54.4105 61.5909C54.5317 62.0606 54.7609 62.4129 55.098 62.6477C55.4389 62.8826 55.884 63 56.4332 63C57.0582 63 57.5545 62.8674 57.9219 62.6023C58.2931 62.3333 58.4787 62.0114 58.4787 61.6364C58.4787 61.3333 58.3726 61.0795 58.1605 60.875C57.9484 60.6667 57.6226 60.5114 57.1832 60.4091L55.7287 60.0682C54.9295 59.8788 54.3423 59.5852 53.9673 59.1875C53.5961 58.786 53.4105 58.2841 53.4105 57.6818C53.4105 57.1894 53.5488 56.7538 53.8253 56.375C54.1056 55.9962 54.4863 55.6989 54.9673 55.483C55.4522 55.267 56.0014 55.1591 56.6151 55.1591C57.4787 55.1591 58.1567 55.3485 58.6491 55.7273C59.1454 56.1061 59.4976 56.6061 59.706 57.2273ZM65.679 55.2727V56.4091H61.1562V55.2727H65.679ZM62.4744 53.1818H63.8153V61.5C63.8153 61.8788 63.8703 62.1629 63.9801 62.3523C64.0938 62.5379 64.2377 62.6629 64.4119 62.7273C64.59 62.7879 64.7775 62.8182 64.9744 62.8182C65.1222 62.8182 65.2434 62.8106 65.3381 62.7955C65.4328 62.7765 65.5085 62.7614 65.5653 62.75L65.8381 63.9545C65.7472 63.9886 65.6203 64.0227 65.4574 64.0568C65.2945 64.0947 65.0881 64.1136 64.8381 64.1136C64.4593 64.1136 64.0881 64.0322 63.7244 63.8693C63.3646 63.7064 63.0653 63.4583 62.8267 63.125C62.5919 62.7917 62.4744 62.3712 62.4744 61.8636V53.1818ZM73.196 60.4318V55.2727H74.5369V64H73.196V62.5227H73.1051C72.9006 62.9659 72.5824 63.3428 72.1506 63.6534C71.7188 63.9602 71.1733 64.1136 70.5142 64.1136C69.9688 64.1136 69.4839 63.9943 69.0597 63.7557C68.6354 63.5133 68.3021 63.1496 68.0597 62.6648C67.8172 62.1761 67.696 61.5606 67.696 60.8182V55.2727H69.0369V60.7273C69.0369 61.3636 69.215 61.8712 69.571 62.25C69.9309 62.6288 70.3892 62.8182 70.946 62.8182C71.2794 62.8182 71.6184 62.733 71.9631 62.5625C72.3116 62.392 72.6032 62.1307 72.8381 61.7784C73.0767 61.4261 73.196 60.9773 73.196 60.4318ZM80.2884 64.1818C79.5611 64.1818 78.919 63.9981 78.3622 63.6307C77.8054 63.2595 77.3698 62.7367 77.0554 62.0625C76.741 61.3845 76.5838 60.5833 76.5838 59.6591C76.5838 58.7424 76.741 57.947 77.0554 57.2727C77.3698 56.5985 77.8073 56.0777 78.3679 55.7102C78.9285 55.3428 79.5762 55.1591 80.3111 55.1591C80.8793 55.1591 81.3281 55.2538 81.6577 55.4432C81.991 55.6288 82.2448 55.8409 82.419 56.0795C82.5971 56.3144 82.7353 56.5076 82.8338 56.6591H82.9474V52.3636H84.2884V64H82.9929V62.6591H82.8338C82.7353 62.8182 82.5952 63.0189 82.4134 63.2614C82.2315 63.5 81.9721 63.714 81.6349 63.9034C81.2978 64.089 80.849 64.1818 80.2884 64.1818ZM80.4702 62.9773C81.008 62.9773 81.4626 62.8371 81.8338 62.5568C82.205 62.2727 82.4872 61.8807 82.6804 61.3807C82.8736 60.8769 82.9702 60.2955 82.9702 59.6364C82.9702 58.9848 82.8755 58.4148 82.6861 57.9261C82.4967 57.4337 82.2164 57.0511 81.8452 56.7784C81.474 56.5019 81.0156 56.3636 80.4702 56.3636C79.902 56.3636 79.4285 56.5095 79.0497 56.8011C78.6747 57.089 78.3925 57.4811 78.2031 57.9773C78.0175 58.4697 77.9247 59.0227 77.9247 59.6364C77.9247 60.2576 78.0194 60.822 78.2088 61.3295C78.402 61.8333 78.6861 62.2348 79.0611 62.5341C79.4399 62.8295 79.9096 62.9773 80.4702 62.9773ZM90.5895 64.1818C89.7486 64.1818 89.0232 63.9962 88.4134 63.625C87.8073 63.25 87.3395 62.7273 87.0099 62.0568C86.6842 61.3826 86.5213 60.5985 86.5213 59.7045C86.5213 58.8106 86.6842 58.0227 87.0099 57.3409C87.3395 56.6553 87.7978 56.1212 88.3849 55.7386C88.9759 55.3523 89.6652 55.1591 90.4531 55.1591C90.9077 55.1591 91.3565 55.2348 91.7997 55.3864C92.2429 55.5379 92.6463 55.7841 93.0099 56.125C93.3736 56.4621 93.6634 56.9091 93.8793 57.4659C94.0952 58.0227 94.2031 58.7083 94.2031 59.5227V60.0909H87.4759V58.9318H92.8395C92.8395 58.4394 92.741 58 92.544 57.6136C92.3509 57.2273 92.0743 56.9223 91.7145 56.6989C91.3584 56.4754 90.938 56.3636 90.4531 56.3636C89.919 56.3636 89.4569 56.4962 89.0668 56.7614C88.6804 57.0227 88.383 57.3636 88.1747 57.7841C87.9664 58.2045 87.8622 58.6553 87.8622 59.1364V59.9091C87.8622 60.5682 87.9759 61.1269 88.2031 61.5852C88.4342 62.0398 88.7543 62.3864 89.1634 62.625C89.5724 62.8598 90.0478 62.9773 90.5895 62.9773C90.9418 62.9773 91.2599 62.928 91.544 62.8295C91.8319 62.7273 92.08 62.5758 92.2884 62.375C92.4967 62.1705 92.6577 61.9167 92.7713 61.6136L94.0668 61.9773C93.9304 62.4167 93.7012 62.803 93.3793 63.1364C93.0573 63.4659 92.6596 63.7235 92.1861 63.9091C91.7126 64.0909 91.1804 64.1818 90.5895 64.1818ZM97.5838 58.75V64H96.2429V55.2727H97.5384V56.6364H97.652C97.8565 56.1932 98.1671 55.8371 98.5838 55.5682C99.0005 55.2955 99.5384 55.1591 100.197 55.1591C100.788 55.1591 101.305 55.2803 101.749 55.5227C102.192 55.7614 102.536 56.125 102.783 56.6136C103.029 57.0985 103.152 57.7121 103.152 58.4545V64H101.811V58.5455C101.811 57.8598 101.633 57.3258 101.277 56.9432C100.921 56.5568 100.432 56.3636 99.8111 56.3636C99.383 56.3636 99.0005 56.4564 98.6634 56.642C98.33 56.8277 98.0668 57.0985 97.8736 57.4545C97.6804 57.8106 97.5838 58.2424 97.5838 58.75ZM109.398 55.2727V56.4091H104.875V55.2727H109.398ZM106.193 53.1818H107.534V61.5C107.534 61.8788 107.589 62.1629 107.699 62.3523C107.813 62.5379 107.956 62.6629 108.131 62.7273C108.309 62.7879 108.496 62.8182 108.693 62.8182C108.841 62.8182 108.962 62.8106 109.057 62.7955C109.152 62.7765 109.227 62.7614 109.284 62.75L109.557 63.9545C109.466 63.9886 109.339 64.0227 109.176 64.0568C109.013 64.0947 108.807 64.1136 108.557 64.1136C108.178 64.1136 107.807 64.0322 107.443 63.8693C107.083 63.7064 106.784 63.4583 106.545 63.125C106.311 62.7917 106.193 62.3712 106.193 61.8636V53.1818ZM112.392 64.0909C112.112 64.0909 111.871 63.9905 111.67 63.7898C111.47 63.589 111.369 63.3485 111.369 63.0682C111.369 62.7879 111.47 62.5473 111.67 62.3466C111.871 62.1458 112.112 62.0455 112.392 62.0455C112.672 62.0455 112.913 62.1458 113.114 62.3466C113.314 62.5473 113.415 62.7879 113.415 63.0682C113.415 63.2538 113.367 63.4242 113.273 63.5795C113.182 63.7348 113.059 63.8598 112.903 63.9545C112.752 64.0455 112.581 64.0909 112.392 64.0909ZM112.392 57.6136C112.112 57.6136 111.871 57.5133 111.67 57.3125C111.47 57.1117 111.369 56.8712 111.369 56.5909C111.369 56.3106 111.47 56.0701 111.67 55.8693C111.871 55.6686 112.112 55.5682 112.392 55.5682C112.672 55.5682 112.913 55.6686 113.114 55.8693C113.314 56.0701 113.415 56.3106 113.415 56.5909C113.415 56.7765 113.367 56.947 113.273 57.1023C113.182 57.2576 113.059 57.3826 112.903 57.4773C112.752 57.5682 112.581 57.6136 112.392 57.6136ZM124.23 64.1591C123.48 64.1591 122.812 64.0303 122.224 63.7727C121.641 63.5152 121.177 63.1572 120.832 62.6989C120.491 62.2367 120.306 61.7008 120.276 61.0909H121.707C121.738 61.4659 121.866 61.7898 122.094 62.0625C122.321 62.3314 122.618 62.5398 122.986 62.6875C123.353 62.8352 123.76 62.9091 124.207 62.9091C124.707 62.9091 125.151 62.822 125.537 62.6477C125.923 62.4735 126.226 62.2311 126.446 61.9205C126.666 61.6098 126.776 61.25 126.776 60.8409C126.776 60.4129 126.67 60.036 126.457 59.7102C126.245 59.3807 125.935 59.1231 125.526 58.9375C125.116 58.7519 124.616 58.6591 124.026 58.6591H123.094V57.4091H124.026C124.488 57.4091 124.893 57.3258 125.241 57.1591C125.594 56.9924 125.868 56.7576 126.065 56.4545C126.266 56.1515 126.366 55.7955 126.366 55.3864C126.366 54.9924 126.279 54.6496 126.105 54.358C125.931 54.0663 125.685 53.839 125.366 53.6761C125.052 53.5133 124.681 53.4318 124.253 53.4318C123.851 53.4318 123.473 53.5057 123.116 53.6534C122.764 53.7973 122.476 54.0076 122.253 54.2841C122.029 54.5568 121.908 54.8864 121.889 55.2727H120.526C120.548 54.6629 120.732 54.1288 121.077 53.6705C121.421 53.2083 121.872 52.8485 122.429 52.5909C122.99 52.3333 123.605 52.2045 124.276 52.2045C124.995 52.2045 125.613 52.3504 126.128 52.642C126.643 52.9299 127.039 53.3106 127.315 53.7841C127.592 54.2576 127.73 54.7689 127.73 55.3182C127.73 55.9735 127.558 56.5322 127.213 56.9943C126.872 57.4564 126.408 57.7765 125.821 57.9545V58.0455C126.556 58.1667 127.13 58.4792 127.543 58.983C127.955 59.483 128.162 60.1023 128.162 60.8409C128.162 61.4735 127.99 62.0417 127.645 62.5455C127.304 63.0455 126.838 63.4394 126.247 63.7273C125.656 64.0152 124.984 64.1591 124.23 64.1591ZM134.281 64.1591C133.425 64.1591 132.696 63.9261 132.094 63.4602C131.491 62.9905 131.031 62.3106 130.713 61.4205C130.395 60.5265 130.236 59.447 130.236 58.1818C130.236 56.9242 130.395 55.8504 130.713 54.9602C131.035 54.0663 131.497 53.3845 132.099 52.9148C132.705 52.4413 133.433 52.2045 134.281 52.2045C135.13 52.2045 135.855 52.4413 136.457 52.9148C137.063 53.3845 137.526 54.0663 137.844 54.9602C138.166 55.8504 138.327 56.9242 138.327 58.1818C138.327 59.447 138.168 60.5265 137.849 61.4205C137.531 62.3106 137.071 62.9905 136.469 63.4602C135.866 63.9261 135.137 64.1591 134.281 64.1591ZM134.281 62.9091C135.13 62.9091 135.789 62.5 136.259 61.6818C136.728 60.8636 136.963 59.697 136.963 58.1818C136.963 57.1742 136.855 56.3163 136.639 55.608C136.427 54.8996 136.12 54.3598 135.719 53.9886C135.321 53.6174 134.842 53.4318 134.281 53.4318C133.44 53.4318 132.783 53.8466 132.31 54.6761C131.836 55.5019 131.599 56.6705 131.599 58.1818C131.599 59.1894 131.705 60.0455 131.918 60.75C132.13 61.4545 132.435 61.9905 132.832 62.358C133.234 62.7254 133.717 62.9091 134.281 62.9091ZM146.418 61.8182V61.2045C146.418 60.7803 146.505 60.392 146.679 60.0398C146.857 59.6837 147.115 59.3996 147.452 59.1875C147.793 58.9716 148.205 58.8636 148.69 58.8636C149.183 58.8636 149.596 58.9716 149.929 59.1875C150.262 59.3996 150.514 59.6837 150.685 60.0398C150.855 60.392 150.94 60.7803 150.94 61.2045V61.8182C150.94 62.2424 150.853 62.6326 150.679 62.9886C150.509 63.3409 150.255 63.625 149.918 63.8409C149.584 64.053 149.175 64.1591 148.69 64.1591C148.198 64.1591 147.783 64.053 147.446 63.8409C147.109 63.625 146.853 63.3409 146.679 62.9886C146.505 62.6326 146.418 62.2424 146.418 61.8182ZM147.577 61.2045V61.8182C147.577 62.1705 147.66 62.4867 147.827 62.767C147.993 63.0436 148.281 63.1818 148.69 63.1818C149.088 63.1818 149.368 63.0436 149.531 62.767C149.698 62.4867 149.781 62.1705 149.781 61.8182V61.2045C149.781 60.8523 149.702 60.5379 149.543 60.2614C149.384 59.9811 149.099 59.8409 148.69 59.8409C148.293 59.8409 148.007 59.9811 147.832 60.2614C147.662 60.5379 147.577 60.8523 147.577 61.2045ZM140.622 55.1591V54.5455C140.622 54.1212 140.709 53.733 140.884 53.3807C141.062 53.0246 141.319 52.7405 141.656 52.5284C141.997 52.3125 142.41 52.2045 142.895 52.2045C143.387 52.2045 143.8 52.3125 144.134 52.5284C144.467 52.7405 144.719 53.0246 144.889 53.3807C145.06 53.733 145.145 54.1212 145.145 54.5455V55.1591C145.145 55.5833 145.058 55.9735 144.884 56.3295C144.713 56.6818 144.459 56.9659 144.122 57.1818C143.789 57.3939 143.38 57.5 142.895 57.5C142.402 57.5 141.988 57.3939 141.651 57.1818C141.313 56.9659 141.058 56.6818 140.884 56.3295C140.709 55.9735 140.622 55.5833 140.622 55.1591ZM141.781 54.5455V55.1591C141.781 55.5114 141.865 55.8277 142.031 56.108C142.198 56.3845 142.486 56.5227 142.895 56.5227C143.293 56.5227 143.573 56.3845 143.736 56.108C143.902 55.8277 143.986 55.5114 143.986 55.1591V54.5455C143.986 54.1932 143.906 53.8788 143.747 53.6023C143.588 53.322 143.304 53.1818 142.895 53.1818C142.497 53.1818 142.211 53.322 142.037 53.6023C141.866 53.8788 141.781 54.1932 141.781 54.5455ZM141.054 64L149.054 52.3636H150.349L142.349 64H141.054Z" fill="#757575"/>
</svg>
