<svg width="184" height="21" viewBox="0 0 184 21" fill="none" xmlns="http://www.w3.org/2000/svg">
<rect x="0.570312" y="0.259766" width="40" height="20" rx="10" fill="#0F67F5"/>
<ellipse cx="30.5703" cy="10.2598" rx="8" ry="8" fill="white"/>
<path d="M51.788 14.2598H50.7258L53.798 5.89297H54.8438L57.916 14.2598H56.8538L54.3536 7.21662H54.2882L51.788 14.2598ZM52.1802 10.9915H56.4616V11.8903H52.1802V10.9915ZM61.6214 16.7437C61.1557 16.7437 60.7553 16.6837 60.4203 16.5639C60.0853 16.4468 59.8062 16.2915 59.5828 16.0982C59.3622 15.9075 59.1865 15.7033 59.0558 15.4854L59.8239 14.9461C59.911 15.0605 60.0213 15.1912 60.1548 15.3383C60.2882 15.4881 60.4707 15.6175 60.7022 15.7264C60.9364 15.8381 61.2428 15.8939 61.6214 15.8939C62.128 15.8939 62.5461 15.7713 62.8756 15.5262C63.2052 15.2811 63.3699 14.8971 63.3699 14.3742V13.0995H63.2882C63.2174 13.2139 63.1167 13.3555 62.9859 13.5244C62.8579 13.6905 62.6727 13.839 62.4303 13.9697C62.1906 14.0977 61.8665 14.1617 61.458 14.1617C60.9514 14.1617 60.4966 14.0419 60.0935 13.8022C59.6931 13.5625 59.3758 13.2139 59.1416 12.7564C58.9101 12.2988 58.7944 11.7432 58.7944 11.0895C58.7944 10.4468 58.9074 9.88708 59.1334 9.41045C59.3595 8.93111 59.6741 8.5607 60.0772 8.29924C60.4802 8.03505 60.946 7.90296 61.4743 7.90296C61.8829 7.90296 62.207 7.97105 62.4467 8.10723C62.6891 8.24068 62.8743 8.3932 63.0023 8.56479C63.133 8.73365 63.2338 8.87255 63.3046 8.98149H63.4026V7.98467H64.3341V14.4395C64.3341 14.9788 64.2115 15.4173 63.9664 15.755C63.724 16.0954 63.3972 16.3447 62.9859 16.5026C62.5774 16.6633 62.1226 16.7437 61.6214 16.7437ZM61.5887 13.2956C61.9755 13.2956 62.3023 13.2071 62.5692 13.0301C62.8361 12.853 63.039 12.5984 63.1779 12.2661C63.3168 11.9338 63.3863 11.5362 63.3863 11.0732C63.3863 10.6211 63.3182 10.2221 63.182 9.87618C63.0458 9.53029 62.8443 9.2593 62.5774 9.0632C62.3105 8.8671 61.9809 8.76905 61.5887 8.76905C61.1802 8.76905 60.8398 8.87255 60.5674 9.07954C60.2978 9.28653 60.0949 9.56434 59.9587 9.91295C59.8252 10.2616 59.7585 10.6483 59.7585 11.0732C59.7585 11.509 59.8266 11.8943 59.9628 12.2293C60.1017 12.5616 60.3059 12.8231 60.5756 13.0137C60.8479 13.2017 61.1856 13.2956 61.5887 13.2956ZM66.099 14.2598V7.98467H67.0304V8.93247H67.0958C67.2102 8.62198 67.4172 8.37005 67.7168 8.17668C68.0164 7.9833 68.3541 7.88662 68.7299 7.88662C68.8007 7.88662 68.8893 7.88798 68.9955 7.8907C69.1017 7.89343 69.182 7.89751 69.2365 7.90296V8.88344C69.2038 8.87527 69.1289 8.86302 69.0118 8.84668C68.8974 8.82761 68.7762 8.81808 68.6482 8.81808C68.3432 8.81808 68.0708 8.88208 67.8311 9.01009C67.5942 9.13537 67.4063 9.30968 67.2674 9.53301C67.1312 9.75362 67.0631 10.0056 67.0631 10.2888V14.2598H66.099ZM72.8194 14.3905C72.2147 14.3905 71.6932 14.257 71.2547 13.9901C70.8189 13.7205 70.4825 13.3446 70.2456 12.8626C70.0114 12.3778 69.8943 11.814 69.8943 11.1712C69.8943 10.5285 70.0114 9.96198 70.2456 9.47173C70.4825 8.97877 70.8121 8.59475 71.2342 8.31967C71.6591 8.04186 72.1548 7.90296 72.7213 7.90296C73.0481 7.90296 73.3709 7.95743 73.6895 8.06637C74.0082 8.17532 74.2983 8.35235 74.5597 8.59747C74.8212 8.83987 75.0295 9.16125 75.1848 9.56161C75.34 9.96198 75.4176 10.4549 75.4176 11.0405V11.449H70.5806V10.6156H74.4372C74.4372 10.2616 74.3663 9.94563 74.2247 9.66783C74.0858 9.39003 73.887 9.17078 73.6283 9.01009C73.3722 8.8494 73.0699 8.76905 72.7213 8.76905C72.3373 8.76905 72.005 8.86438 71.7245 9.05503C71.4467 9.24295 71.2329 9.48808 71.0831 9.79039C70.9333 10.0927 70.8584 10.4168 70.8584 10.7627V11.3183C70.8584 11.7922 70.9401 12.1939 71.1035 12.5235C71.2697 12.8503 71.4998 13.0995 71.7939 13.2711C72.0881 13.44 72.4299 13.5244 72.8194 13.5244C73.0727 13.5244 73.3014 13.489 73.5057 13.4182C73.7127 13.3446 73.8911 13.2357 74.0409 13.0914C74.1907 12.9443 74.3064 12.7618 74.3881 12.5439L75.3196 12.8054C75.2215 13.1213 75.0568 13.3991 74.8253 13.6388C74.5938 13.8757 74.3078 14.0609 73.9673 14.1944C73.6269 14.3251 73.2442 14.3905 72.8194 14.3905ZM79.5153 14.3905C78.9106 14.3905 78.3891 14.257 77.9506 13.9901C77.5148 13.7205 77.1784 13.3446 76.9415 12.8626C76.7073 12.3778 76.5901 11.814 76.5901 11.1712C76.5901 10.5285 76.7073 9.96198 76.9415 9.47173C77.1784 8.97877 77.508 8.59475 77.9301 8.31967C78.355 8.04186 78.8507 7.90296 79.4172 7.90296C79.744 7.90296 80.0668 7.95743 80.3854 8.06637C80.7041 8.17532 80.9941 8.35235 81.2556 8.59747C81.5171 8.83987 81.7254 9.16125 81.8807 9.56161C82.0359 9.96198 82.1135 10.4549 82.1135 11.0405V11.449H77.2765V10.6156H81.1331C81.1331 10.2616 81.0622 9.94563 80.9206 9.66783C80.7817 9.39003 80.5829 9.17078 80.3242 9.01009C80.0681 8.8494 79.7658 8.76905 79.4172 8.76905C79.0332 8.76905 78.7009 8.86438 78.4204 9.05503C78.1426 9.24295 77.9288 9.48808 77.779 9.79039C77.6292 10.0927 77.5543 10.4168 77.5543 10.7627V11.3183C77.5543 11.7922 77.636 12.1939 77.7994 12.5235C77.9655 12.8503 78.1957 13.0995 78.4898 13.2711C78.784 13.44 79.1258 13.5244 79.5153 13.5244C79.7685 13.5244 79.9973 13.489 80.2016 13.4182C80.4086 13.3446 80.587 13.2357 80.7368 13.0914C80.8866 12.9443 81.0023 12.7618 81.084 12.5439L82.0155 12.8054C81.9174 13.1213 81.7527 13.3991 81.5212 13.6388C81.2897 13.8757 81.0037 14.0609 80.6632 14.1944C80.3228 14.3251 79.9401 14.3905 79.5153 14.3905ZM89.5448 7.98467V8.80174H86.2928V7.98467H89.5448ZM87.2407 6.48126H88.2048V12.4622C88.2048 12.7346 88.2443 12.9388 88.3233 13.075C88.405 13.2085 88.5085 13.2983 88.6338 13.3446C88.7618 13.3882 88.8966 13.41 89.0382 13.41C89.1444 13.41 89.2316 13.4046 89.2997 13.3937C89.3678 13.3801 89.4222 13.3692 89.4631 13.361L89.6592 14.2271C89.5938 14.2516 89.5026 14.2761 89.3855 14.3006C89.2683 14.3279 89.1199 14.3415 88.9402 14.3415C88.6678 14.3415 88.4009 14.2829 88.1394 14.1658C87.8807 14.0487 87.6655 13.8703 87.4939 13.6306C87.3251 13.3909 87.2407 13.0886 87.2407 12.7237V6.48126ZM93.4769 14.3905C92.9104 14.3905 92.4134 14.2557 91.9858 13.986C91.5609 13.7164 91.2286 13.3392 90.989 12.8544C90.752 12.3696 90.6335 11.8031 90.6335 11.1549C90.6335 10.5012 90.752 9.93066 90.989 9.44314C91.2286 8.95562 91.5609 8.57704 91.9858 8.30741C92.4134 8.03778 92.9104 7.90296 93.4769 7.90296C94.0434 7.90296 94.5391 8.03778 94.964 8.30741C95.3916 8.57704 95.7239 8.95562 95.9608 9.44314C96.2005 9.93066 96.3203 10.5012 96.3203 11.1549C96.3203 11.8031 96.2005 12.3696 95.9608 12.8544C95.7239 13.3392 95.3916 13.7164 94.964 13.986C94.5391 14.2557 94.0434 14.3905 93.4769 14.3905ZM93.4769 13.5244C93.9073 13.5244 94.2613 13.4141 94.5391 13.1935C94.8169 12.9729 95.0226 12.6828 95.156 12.3233C95.2895 11.9638 95.3562 11.5743 95.3562 11.1549C95.3562 10.7355 95.2895 10.3446 95.156 9.9824C95.0226 9.62017 94.8169 9.32739 94.5391 9.10405C94.2613 8.88072 93.9073 8.76905 93.4769 8.76905C93.0466 8.76905 92.6926 8.88072 92.4147 9.10405C92.1369 9.32739 91.9313 9.62017 91.7979 9.9824C91.6644 10.3446 91.5977 10.7355 91.5977 11.1549C91.5977 11.5743 91.6644 11.9638 91.7979 12.3233C91.9313 12.6828 92.1369 12.9729 92.4147 13.1935C92.6926 13.4141 93.0466 13.5244 93.4769 13.5244ZM103.577 14.3905C102.989 14.3905 102.482 14.2516 102.057 13.9738C101.632 13.696 101.305 13.3133 101.077 12.8258C100.848 12.3383 100.734 11.7813 100.734 11.1549C100.734 10.5176 100.851 9.95517 101.085 9.46765C101.322 8.97741 101.651 8.59475 102.074 8.31967C102.498 8.04186 102.994 7.90296 103.561 7.90296C104.002 7.90296 104.399 7.98467 104.754 8.14808C105.108 8.31149 105.398 8.54027 105.624 8.83442C105.85 9.12856 105.99 9.47173 106.044 9.86393H105.08C105.007 9.57795 104.843 9.32466 104.59 9.10405C104.34 8.88072 104.002 8.76905 103.577 8.76905C103.201 8.76905 102.872 8.8671 102.588 9.0632C102.308 9.25657 102.089 9.53029 101.931 9.88435C101.775 10.2357 101.698 10.6483 101.698 11.1222C101.698 11.607 101.774 12.0292 101.926 12.3887C102.082 12.7482 102.3 13.0274 102.58 13.2262C102.863 13.425 103.196 13.5244 103.577 13.5244C103.828 13.5244 104.055 13.4808 104.259 13.3937C104.463 13.3065 104.636 13.1812 104.778 13.0178C104.92 12.8544 105.02 12.6583 105.08 12.4295H106.044C105.99 12.7999 105.855 13.1336 105.64 13.4304C105.428 13.7246 105.146 13.9588 104.794 14.1331C104.446 14.3047 104.04 14.3905 103.577 14.3905ZM110.003 14.3905C109.437 14.3905 108.94 14.2557 108.512 13.986C108.087 13.7164 107.755 13.3392 107.515 12.8544C107.278 12.3696 107.16 11.8031 107.16 11.1549C107.16 10.5012 107.278 9.93066 107.515 9.44314C107.755 8.95562 108.087 8.57704 108.512 8.30741C108.94 8.03778 109.437 7.90296 110.003 7.90296C110.57 7.90296 111.065 8.03778 111.49 8.30741C111.918 8.57704 112.25 8.95562 112.487 9.44314C112.727 9.93066 112.847 10.5012 112.847 11.1549C112.847 11.8031 112.727 12.3696 112.487 12.8544C112.25 13.3392 111.918 13.7164 111.49 13.986C111.065 14.2557 110.57 14.3905 110.003 14.3905ZM110.003 13.5244C110.434 13.5244 110.788 13.4141 111.065 13.1935C111.343 12.9729 111.549 12.6828 111.682 12.3233C111.816 11.9638 111.882 11.5743 111.882 11.1549C111.882 10.7355 111.816 10.3446 111.682 9.9824C111.549 9.62017 111.343 9.32739 111.065 9.10405C110.788 8.88072 110.434 8.76905 110.003 8.76905C109.573 8.76905 109.219 8.88072 108.941 9.10405C108.663 9.32739 108.458 9.62017 108.324 9.9824C108.191 10.3446 108.124 10.7355 108.124 11.1549C108.124 11.5743 108.191 11.9638 108.324 12.3233C108.458 12.6828 108.663 12.9729 108.941 13.1935C109.219 13.4141 109.573 13.5244 110.003 13.5244ZM116.868 14.3905C116.301 14.3905 115.804 14.2557 115.376 13.986C114.952 13.7164 114.619 13.3392 114.38 12.8544C114.143 12.3696 114.024 11.8031 114.024 11.1549C114.024 10.5012 114.143 9.93066 114.38 9.44314C114.619 8.95562 114.952 8.57704 115.376 8.30741C115.804 8.03778 116.301 7.90296 116.868 7.90296C117.434 7.90296 117.93 8.03778 118.355 8.30741C118.782 8.57704 119.115 8.95562 119.352 9.44314C119.591 9.93066 119.711 10.5012 119.711 11.1549C119.711 11.8031 119.591 12.3696 119.352 12.8544C119.115 13.3392 118.782 13.7164 118.355 13.986C117.93 14.2557 117.434 14.3905 116.868 14.3905ZM116.868 13.5244C117.298 13.5244 117.652 13.4141 117.93 13.1935C118.208 12.9729 118.413 12.6828 118.547 12.3233C118.68 11.9638 118.747 11.5743 118.747 11.1549C118.747 10.7355 118.68 10.3446 118.547 9.9824C118.413 9.62017 118.208 9.32739 117.93 9.10405C117.652 8.88072 117.298 8.76905 116.868 8.76905C116.437 8.76905 116.083 8.88072 115.805 9.10405C115.528 9.32739 115.322 9.62017 115.189 9.9824C115.055 10.3446 114.988 10.7355 114.988 11.1549C114.988 11.5743 115.055 11.9638 115.189 12.3233C115.322 12.6828 115.528 12.9729 115.805 13.1935C116.083 13.4141 116.437 13.5244 116.868 13.5244ZM122.082 11.972L122.065 10.779H122.261L125.007 7.98467H126.2L123.274 10.9425H123.193L122.082 11.972ZM121.183 14.2598V5.89297H122.147V14.2598H121.183ZM125.17 14.2598L122.719 11.1549L123.405 10.4849L126.396 14.2598H125.17ZM127.441 14.2598V7.98467H128.405V14.2598H127.441ZM127.931 6.93882C127.743 6.93882 127.581 6.87481 127.445 6.74681C127.311 6.6188 127.244 6.46492 127.244 6.28516C127.244 6.10541 127.311 5.95152 127.445 5.82352C127.581 5.69551 127.743 5.6315 127.931 5.6315C128.119 5.6315 128.279 5.69551 128.413 5.82352C128.549 5.95152 128.617 6.10541 128.617 6.28516C128.617 6.46492 128.549 6.6188 128.413 6.74681C128.279 6.87481 128.119 6.93882 127.931 6.93882ZM132.802 14.3905C132.197 14.3905 131.675 14.257 131.237 13.9901C130.801 13.7205 130.465 13.3446 130.228 12.8626C129.994 12.3778 129.876 11.814 129.876 11.1712C129.876 10.5285 129.994 9.96198 130.228 9.47173C130.465 8.97877 130.794 8.59475 131.216 8.31967C131.641 8.04186 132.137 7.90296 132.703 7.90296C133.03 7.90296 133.353 7.95743 133.672 8.06637C133.99 8.17532 134.28 8.35235 134.542 8.59747C134.803 8.83987 135.012 9.16125 135.167 9.56161C135.322 9.96198 135.4 10.4549 135.4 11.0405V11.449H130.563V10.6156H134.419C134.419 10.2616 134.348 9.94563 134.207 9.66783C134.068 9.39003 133.869 9.17078 133.61 9.01009C133.354 8.8494 133.052 8.76905 132.703 8.76905C132.319 8.76905 131.987 8.86438 131.707 9.05503C131.429 9.24295 131.215 9.48808 131.065 9.79039C130.915 10.0927 130.841 10.4168 130.841 10.7627V11.3183C130.841 11.7922 130.922 12.1939 131.086 12.5235C131.252 12.8503 131.482 13.0995 131.776 13.2711C132.07 13.44 132.412 13.5244 132.802 13.5244C133.055 13.5244 133.284 13.489 133.488 13.4182C133.695 13.3446 133.873 13.2357 134.023 13.0914C134.173 12.9443 134.289 12.7618 134.37 12.5439L135.302 12.8054C135.204 13.1213 135.039 13.3991 134.807 13.6388C134.576 13.8757 134.29 14.0609 133.949 14.1944C133.609 14.3251 133.226 14.3905 132.802 14.3905ZM144.547 9.39003L143.681 9.63515C143.626 9.4908 143.546 9.35054 143.44 9.21436C143.336 9.07546 143.195 8.96107 143.015 8.87119C142.835 8.78131 142.605 8.73637 142.324 8.73637C141.94 8.73637 141.62 8.82489 141.364 9.00192C141.111 9.17623 140.984 9.3982 140.984 9.66783C140.984 9.90751 141.072 10.0968 141.246 10.2357C141.42 10.3746 141.693 10.4903 142.063 10.5829L142.994 10.8117C143.556 10.9479 143.974 11.1563 144.249 11.4368C144.524 11.7146 144.661 12.0727 144.661 12.5112C144.661 12.8707 144.558 13.1921 144.351 13.4754C144.147 13.7586 143.861 13.982 143.493 14.1454C143.125 14.3088 142.698 14.3905 142.21 14.3905C141.57 14.3905 141.04 14.2516 140.621 13.9738C140.201 13.696 139.936 13.2902 139.824 12.7564L140.739 12.5276C140.826 12.8653 140.991 13.1186 141.234 13.2875C141.479 13.4563 141.799 13.5407 142.194 13.5407C142.643 13.5407 143 13.4454 143.264 13.2548C143.531 13.0614 143.664 12.8299 143.664 12.5603C143.664 12.3424 143.588 12.1599 143.436 12.0128C143.283 11.863 143.049 11.7514 142.733 11.6778L141.687 11.4327C141.112 11.2965 140.69 11.0854 140.421 10.7995C140.154 10.5108 140.02 10.1499 140.02 9.71686C140.02 9.36279 140.12 9.04958 140.319 8.77722C140.52 8.50487 140.794 8.29107 141.14 8.13582C141.488 7.98058 141.883 7.90296 142.324 7.90296C142.945 7.90296 143.433 8.03914 143.787 8.31149C144.144 8.58385 144.397 8.94336 144.547 9.39003ZM148.744 14.3905C148.139 14.3905 147.617 14.257 147.179 13.9901C146.743 13.7205 146.407 13.3446 146.17 12.8626C145.936 12.3778 145.818 11.814 145.818 11.1712C145.818 10.5285 145.936 9.96198 146.17 9.47173C146.407 8.97877 146.736 8.59475 147.158 8.31967C147.583 8.04186 148.079 7.90296 148.646 7.90296C148.972 7.90296 149.295 7.95743 149.614 8.06637C149.932 8.17532 150.222 8.35235 150.484 8.59747C150.745 8.83987 150.954 9.16125 151.109 9.56161C151.264 9.96198 151.342 10.4549 151.342 11.0405V11.449H146.505V10.6156H150.361C150.361 10.2616 150.291 9.94563 150.149 9.66783C150.01 9.39003 149.811 9.17078 149.552 9.01009C149.296 8.8494 148.994 8.76905 148.646 8.76905C148.261 8.76905 147.929 8.86438 147.649 9.05503C147.371 9.24295 147.157 9.48808 147.007 9.79039C146.857 10.0927 146.783 10.4168 146.783 10.7627V11.3183C146.783 11.7922 146.864 12.1939 147.028 12.5235C147.194 12.8503 147.424 13.0995 147.718 13.2711C148.012 13.44 148.354 13.5244 148.744 13.5244C148.997 13.5244 149.226 13.489 149.43 13.4182C149.637 13.3446 149.815 13.2357 149.965 13.0914C150.115 12.9443 150.231 12.7618 150.312 12.5439L151.244 12.8054C151.146 13.1213 150.981 13.3991 150.749 13.6388C150.518 13.8757 150.232 14.0609 149.892 14.1944C149.551 14.3251 149.168 14.3905 148.744 14.3905ZM155.538 7.98467V8.80174H152.286V7.98467H155.538ZM153.233 6.48126H154.198V12.4622C154.198 12.7346 154.237 12.9388 154.316 13.075C154.398 13.2085 154.501 13.2983 154.626 13.3446C154.754 13.3882 154.889 13.41 155.031 13.41C155.137 13.41 155.224 13.4046 155.292 13.3937C155.36 13.3801 155.415 13.3692 155.456 13.361L155.652 14.2271C155.587 14.2516 155.495 14.2761 155.378 14.3006C155.261 14.3279 155.113 14.3415 154.933 14.3415C154.661 14.3415 154.394 14.2829 154.132 14.1658C153.873 14.0487 153.658 13.8703 153.487 13.6306C153.318 13.3909 153.233 13.0886 153.233 12.7237V6.48126ZM159.717 7.98467V8.80174H156.465V7.98467H159.717ZM157.413 6.48126H158.377V12.4622C158.377 12.7346 158.416 12.9388 158.495 13.075C158.577 13.2085 158.681 13.2983 158.806 13.3446C158.934 13.3882 159.069 13.41 159.21 13.41C159.316 13.41 159.404 13.4046 159.472 13.3937C159.54 13.3801 159.594 13.3692 159.635 13.361L159.831 14.2271C159.766 14.2516 159.675 14.2761 159.557 14.3006C159.44 14.3279 159.292 14.3415 159.112 14.3415C158.84 14.3415 158.573 14.2829 158.311 14.1658C158.053 14.0487 157.838 13.8703 157.666 13.6306C157.497 13.3909 157.413 13.0886 157.413 12.7237V6.48126ZM161.167 14.2598V7.98467H162.131V14.2598H161.167ZM161.657 6.93882C161.469 6.93882 161.307 6.87481 161.171 6.74681C161.038 6.6188 160.971 6.46492 160.971 6.28516C160.971 6.10541 161.038 5.95152 161.171 5.82352C161.307 5.69551 161.469 5.6315 161.657 5.6315C161.845 5.6315 162.006 5.69551 162.139 5.82352C162.276 5.95152 162.344 6.10541 162.344 6.28516C162.344 6.46492 162.276 6.6188 162.139 6.74681C162.006 6.87481 161.845 6.93882 161.657 6.93882ZM164.861 10.4849V14.2598H163.897V7.98467H164.829V8.96515H164.91C165.057 8.64649 165.281 8.39048 165.58 8.19711C165.88 8.00101 166.267 7.90296 166.741 7.90296C167.165 7.90296 167.537 7.99011 167.856 8.16442C168.175 8.33601 168.422 8.59747 168.599 8.94881C168.776 9.29743 168.865 9.73864 168.865 10.2725V14.2598H167.901V10.3378C167.901 9.84486 167.773 9.46084 167.517 9.18576C167.261 8.90796 166.909 8.76905 166.463 8.76905C166.155 8.76905 165.88 8.83578 165.638 8.96924C165.398 9.10269 165.209 9.29743 165.07 9.55344C164.931 9.80946 164.861 10.1199 164.861 10.4849ZM173.16 16.7437C172.694 16.7437 172.294 16.6837 171.959 16.5639C171.624 16.4468 171.344 16.2915 171.121 16.0982C170.9 15.9075 170.725 15.7033 170.594 15.4854L171.362 14.9461C171.449 15.0605 171.56 15.1912 171.693 15.3383C171.826 15.4881 172.009 15.6175 172.24 15.7264C172.475 15.8381 172.781 15.8939 173.16 15.8939C173.666 15.8939 174.084 15.7713 174.414 15.5262C174.743 15.2811 174.908 14.8971 174.908 14.3742V13.0995H174.826C174.756 13.2139 174.655 13.3555 174.524 13.5244C174.396 13.6905 174.211 13.839 173.969 13.9697C173.729 14.0977 173.405 14.1617 172.996 14.1617C172.49 14.1617 172.035 14.0419 171.632 13.8022C171.231 13.5625 170.914 13.2139 170.68 12.7564C170.448 12.2988 170.333 11.7432 170.333 11.0895C170.333 10.4468 170.446 9.88708 170.672 9.41045C170.898 8.93111 171.212 8.5607 171.615 8.29924C172.018 8.03505 172.484 7.90296 173.013 7.90296C173.421 7.90296 173.745 7.97105 173.985 8.10723C174.227 8.24068 174.413 8.3932 174.541 8.56479C174.671 8.73365 174.772 8.87255 174.843 8.98149H174.941V7.98467H175.872V14.4395C175.872 14.9788 175.75 15.4173 175.505 15.755C175.262 16.0954 174.935 16.3447 174.524 16.5026C174.116 16.6633 173.661 16.7437 173.16 16.7437ZM173.127 13.2956C173.514 13.2956 173.841 13.2071 174.107 13.0301C174.374 12.853 174.577 12.5984 174.716 12.2661C174.855 11.9338 174.925 11.5362 174.925 11.0732C174.925 10.6211 174.856 10.2221 174.72 9.87618C174.584 9.53029 174.383 9.2593 174.116 9.0632C173.849 8.8671 173.519 8.76905 173.127 8.76905C172.718 8.76905 172.378 8.87255 172.106 9.07954C171.836 9.28653 171.633 9.56434 171.497 9.91295C171.363 10.2616 171.297 10.6483 171.297 11.0732C171.297 11.509 171.365 11.8943 171.501 12.2293C171.64 12.5616 171.844 12.8231 172.114 13.0137C172.386 13.2017 172.724 13.2956 173.127 13.2956ZM182.082 9.39003L181.216 9.63515C181.162 9.4908 181.081 9.35054 180.975 9.21436C180.871 9.07546 180.73 8.96107 180.55 8.87119C180.37 8.78131 180.14 8.73637 179.86 8.73637C179.476 8.73637 179.156 8.82489 178.9 9.00192C178.646 9.17623 178.52 9.3982 178.52 9.66783C178.52 9.90751 178.607 10.0968 178.781 10.2357C178.955 10.3746 179.228 10.4903 179.598 10.5829L180.53 10.8117C181.091 10.9479 181.509 11.1563 181.784 11.4368C182.059 11.7146 182.196 12.0727 182.196 12.5112C182.196 12.8707 182.093 13.1921 181.886 13.4754C181.682 13.7586 181.396 13.982 181.028 14.1454C180.66 14.3088 180.233 14.3905 179.745 14.3905C179.105 14.3905 178.575 14.2516 178.156 13.9738C177.737 13.696 177.471 13.2902 177.359 12.7564L178.275 12.5276C178.362 12.8653 178.526 13.1186 178.769 13.2875C179.014 13.4563 179.334 13.5407 179.729 13.5407C180.178 13.5407 180.535 13.4454 180.799 13.2548C181.066 13.0614 181.2 12.8299 181.2 12.5603C181.2 12.3424 181.123 12.1599 180.971 12.0128C180.818 11.863 180.584 11.7514 180.268 11.6778L179.222 11.4327C178.648 11.2965 178.226 11.0854 177.956 10.7995C177.689 10.5108 177.556 10.1499 177.556 9.71686C177.556 9.36279 177.655 9.04958 177.854 8.77722C178.055 8.50487 178.329 8.29107 178.675 8.13582C179.024 7.98058 179.418 7.90296 179.86 7.90296C180.481 7.90296 180.968 8.03914 181.322 8.31149C181.679 8.58385 181.932 8.94336 182.082 9.39003Z" fill="#1F1F1F"/>
</svg>
