<svg width="182" height="21" viewBox="0 0 182 21" fill="none" xmlns="http://www.w3.org/2000/svg">
<rect x="0.570312" y="0.259766" width="40" height="20" rx="10" fill="#0F67F5"/>
<ellipse cx="30.5703" cy="10.2598" rx="8" ry="8" fill="white"/>
<path d="M51.788 14.2598H50.7258L53.798 5.89297H54.8438L57.916 14.2598H56.8538L54.3536 7.21662H54.2882L51.788 14.2598ZM52.1802 10.9915H56.4616V11.8903H52.1802V10.9915ZM59.0885 5.89297H60.0526V12.6256C60.0526 12.9307 60.0867 13.1445 60.1548 13.267C60.2229 13.3896 60.3631 13.4481 60.5756 13.4427C60.69 13.4372 60.7744 13.4291 60.8289 13.4182C60.8861 13.4046 60.9378 13.3909 60.9841 13.3773L61.1802 14.2107C61.0958 14.2353 60.9895 14.257 60.8615 14.2761C60.7335 14.2979 60.6001 14.3088 60.4612 14.3088C60.0036 14.3088 59.6604 14.1835 59.4317 13.9329C59.2029 13.6824 59.0885 13.3338 59.0885 12.8871V5.89297ZM63.4874 14.2598L61.5755 7.98467H62.5886L63.945 12.789H64.0103L65.3503 7.98467H66.3798L67.7035 12.7727H67.7688L69.1252 7.98467H70.1384L68.2264 14.2598H67.2786L65.9059 9.43905H65.8079L64.4352 14.2598H63.4874ZM73.2596 14.4068C72.8619 14.4068 72.501 14.3319 72.1769 14.1821C71.8528 14.0296 71.5955 13.8104 71.4048 13.5244C71.2142 13.2357 71.1188 12.8871 71.1188 12.4786C71.1188 12.119 71.1896 11.8276 71.3313 11.6043C71.4729 11.3782 71.6622 11.2012 71.8991 11.0732C72.1361 10.9452 72.3975 10.8499 72.6835 10.7872C72.9722 10.7219 73.2623 10.6701 73.5537 10.632C73.935 10.5829 74.2441 10.5462 74.4811 10.5217C74.7208 10.4944 74.8951 10.4495 75.004 10.3869C75.1157 10.3242 75.1715 10.2153 75.1715 10.06V10.0273C75.1715 9.62425 75.0612 9.31104 74.8406 9.08771C74.6227 8.86438 74.2918 8.75271 73.8478 8.75271C73.3876 8.75271 73.0267 8.85348 72.7652 9.05503C72.5038 9.25657 72.3199 9.47173 72.2137 9.70051L71.2986 9.37369C71.462 8.99239 71.6799 8.69552 71.9522 8.48308C72.2273 8.26792 72.5269 8.11812 72.851 8.03369C73.1779 7.94654 73.4992 7.90296 73.8152 7.90296C74.0167 7.90296 74.2482 7.92747 74.5097 7.9765C74.7739 8.0228 75.0285 8.11948 75.2736 8.26656C75.5215 8.41363 75.7271 8.6356 75.8905 8.93247C76.0539 9.22934 76.1356 9.62698 76.1356 10.1254V14.2598H75.1715V13.41H75.1225C75.0571 13.5462 74.9482 13.6919 74.7957 13.8471C74.6431 14.0024 74.4402 14.1345 74.1869 14.2434C73.9336 14.3524 73.6245 14.4068 73.2596 14.4068ZM73.4066 13.5407C73.7879 13.5407 74.1093 13.4658 74.3708 13.316C74.635 13.1663 74.8338 12.9729 74.9672 12.7359C75.1034 12.499 75.1715 12.2498 75.1715 11.9883V11.1059C75.1306 11.1549 75.0408 11.1998 74.9019 11.2407C74.7657 11.2788 74.6077 11.3129 74.428 11.3428C74.2509 11.3701 74.078 11.3946 73.9091 11.4164C73.743 11.4354 73.6082 11.4518 73.5047 11.4654C73.2541 11.4981 73.0199 11.5512 72.802 11.6247C72.5868 11.6955 72.4125 11.8031 72.2791 11.9475C72.1483 12.0891 72.083 12.2825 72.083 12.5276C72.083 12.8626 72.2069 13.1159 72.4547 13.2875C72.7053 13.4563 73.0226 13.5407 73.4066 13.5407ZM78.2917 16.6129C78.1283 16.6129 77.9826 16.5993 77.8546 16.5721C77.7265 16.5476 77.638 16.523 77.589 16.4985L77.8341 15.6488C78.0684 15.7087 78.2753 15.7305 78.4551 15.7142C78.6349 15.6978 78.7942 15.6175 78.9331 15.4731C79.0747 15.3315 79.2041 15.1013 79.3212 14.7827L79.501 14.2924L77.1805 7.98467H78.2263L79.9585 12.9851H80.0239L81.7561 7.98467H82.8019L80.1383 15.1749C80.0184 15.499 79.87 15.7673 79.693 15.9797C79.5159 16.1949 79.3103 16.3542 79.0761 16.4577C78.8446 16.5612 78.5831 16.6129 78.2917 16.6129ZM88.5194 9.39003L87.6533 9.63515C87.5988 9.4908 87.5185 9.35054 87.4122 9.21436C87.3087 9.07546 87.1671 8.96107 86.9874 8.87119C86.8076 8.78131 86.5775 8.73637 86.2969 8.73637C85.9129 8.73637 85.5929 8.82489 85.3369 9.00192C85.0836 9.17623 84.9569 9.3982 84.9569 9.66783C84.9569 9.90751 85.0441 10.0968 85.2184 10.2357C85.3927 10.3746 85.6651 10.4903 86.0355 10.5829L86.9669 10.8117C87.528 10.9479 87.9461 11.1563 88.2211 11.4368C88.4962 11.7146 88.6338 12.0727 88.6338 12.5112C88.6338 12.8707 88.5303 13.1921 88.3233 13.4754C88.119 13.7586 87.833 13.982 87.4653 14.1454C87.0977 14.3088 86.6701 14.3905 86.1825 14.3905C85.5425 14.3905 85.0128 14.2516 84.5933 13.9738C84.1739 13.696 83.9084 13.2902 83.7967 12.7564L84.7118 12.5276C84.799 12.8653 84.9638 13.1186 85.2061 13.2875C85.4513 13.4563 85.7713 13.5407 86.1662 13.5407C86.6156 13.5407 86.9724 13.4454 87.2366 13.2548C87.5035 13.0614 87.6369 12.8299 87.6369 12.5603C87.6369 12.3424 87.5607 12.1599 87.4082 12.0128C87.2556 11.863 87.0214 11.7514 86.7055 11.6778L85.6596 11.4327C85.0849 11.2965 84.6628 11.0854 84.3932 10.7995C84.1263 10.5108 83.9928 10.1499 83.9928 9.71686C83.9928 9.36279 84.0922 9.04958 84.291 8.77722C84.4926 8.50487 84.7663 8.29107 85.1122 8.13582C85.4608 7.98058 85.8557 7.90296 86.2969 7.90296C86.9179 7.90296 87.4054 8.03914 87.7595 8.31149C88.1163 8.58385 88.3696 8.94336 88.5194 9.39003ZM98.027 7.98467C97.978 7.57068 97.7792 7.2493 97.4305 7.02052C97.0819 6.79174 96.6543 6.67735 96.1477 6.67735C95.7773 6.67735 95.4532 6.73727 95.1754 6.85711C94.9003 6.97695 94.6852 7.14172 94.5299 7.35144C94.3774 7.56115 94.3012 7.79946 94.3012 8.06637C94.3012 8.28971 94.3543 8.48172 94.4605 8.64241C94.5694 8.80037 94.7083 8.93247 94.8772 9.03869C95.0461 9.14218 95.2231 9.22797 95.4083 9.29606C95.5935 9.36143 95.7637 9.41454 95.919 9.45539L96.7687 9.68417C96.9866 9.74137 97.229 9.82035 97.4959 9.92112C97.7655 10.0219 98.0229 10.1594 98.268 10.3337C98.5159 10.5053 98.7201 10.7259 98.8808 10.9956C99.0415 11.2652 99.1219 11.5961 99.1219 11.9883C99.1219 12.4404 99.0034 12.849 98.7664 13.2139C98.5322 13.5789 98.1891 13.8689 97.7369 14.0841C97.2876 14.2993 96.7415 14.4068 96.0987 14.4068C95.4995 14.4068 94.9807 14.3102 94.5422 14.1168C94.1064 13.9234 93.7633 13.6538 93.5127 13.3079C93.2648 12.962 93.1246 12.5603 93.0919 12.1027H94.1377C94.165 12.4186 94.2712 12.6801 94.4564 12.8871C94.6443 13.0914 94.8813 13.2439 95.1673 13.3446C95.456 13.4427 95.7664 13.4917 96.0987 13.4917C96.4855 13.4917 96.8327 13.4291 97.1405 13.3038C97.4482 13.1758 97.692 12.9988 97.8718 12.7727C98.0515 12.5439 98.1414 12.277 98.1414 11.972C98.1414 11.6942 98.0638 11.4681 97.9085 11.2938C97.7533 11.1195 97.549 10.9779 97.2957 10.8689C97.0424 10.76 96.7687 10.6647 96.4746 10.5829L95.4451 10.2888C94.7914 10.1009 94.2739 9.83261 93.8926 9.48399C93.5113 9.13537 93.3207 8.67918 93.3207 8.1154C93.3207 7.64694 93.4473 7.23841 93.7006 6.88979C93.9566 6.53845 94.2998 6.2661 94.7301 6.07272C95.1632 5.87663 95.6466 5.77858 96.1804 5.77858C96.7197 5.77858 97.199 5.87526 97.6185 6.06864C98.0379 6.25929 98.3702 6.52075 98.6153 6.85302C98.8631 7.1853 98.9939 7.56251 99.0075 7.98467H98.027ZM103.288 14.3905C102.683 14.3905 102.162 14.257 101.723 13.9901C101.287 13.7205 100.951 13.3446 100.714 12.8626C100.48 12.3778 100.363 11.814 100.363 11.1712C100.363 10.5285 100.48 9.96198 100.714 9.47173C100.951 8.97877 101.281 8.59475 101.703 8.31967C102.128 8.04186 102.623 7.90296 103.19 7.90296C103.517 7.90296 103.839 7.95743 104.158 8.06637C104.477 8.17532 104.767 8.35235 105.028 8.59747C105.29 8.83987 105.498 9.16125 105.653 9.56161C105.809 9.96198 105.886 10.4549 105.886 11.0405V11.449H101.049V10.6156H104.906C104.906 10.2616 104.835 9.94563 104.693 9.66783C104.554 9.39003 104.356 9.17078 104.097 9.01009C103.841 8.8494 103.538 8.76905 103.19 8.76905C102.806 8.76905 102.474 8.86438 102.193 9.05503C101.915 9.24295 101.701 9.48808 101.552 9.79039C101.402 10.0927 101.327 10.4168 101.327 10.7627V11.3183C101.327 11.7922 101.409 12.1939 101.572 12.5235C101.738 12.8503 101.968 13.0995 102.262 13.2711C102.557 13.44 102.898 13.5244 103.288 13.5244C103.541 13.5244 103.77 13.489 103.974 13.4182C104.181 13.3446 104.36 13.2357 104.509 13.0914C104.659 12.9443 104.775 12.7618 104.857 12.5439L105.788 12.8054C105.69 13.1213 105.525 13.3991 105.294 13.6388C105.062 13.8757 104.776 14.0609 104.436 14.1944C104.095 14.3251 103.713 14.3905 103.288 14.3905ZM108.317 10.4849V14.2598H107.353V7.98467H108.284V8.96515H108.366C108.513 8.64649 108.736 8.39048 109.036 8.19711C109.336 8.00101 109.722 7.90296 110.196 7.90296C110.621 7.90296 110.993 7.99011 111.312 8.16442C111.63 8.33601 111.878 8.59747 112.055 8.94881C112.232 9.29743 112.321 9.73864 112.321 10.2725V14.2598H111.356V10.3378C111.356 9.84486 111.228 9.46084 110.972 9.18576C110.716 8.90796 110.365 8.76905 109.918 8.76905C109.611 8.76905 109.336 8.83578 109.093 8.96924C108.854 9.10269 108.664 9.29743 108.525 9.55344C108.386 9.80946 108.317 10.1199 108.317 10.4849ZM116.452 14.3905C115.929 14.3905 115.467 14.2584 115.067 13.9942C114.667 13.7273 114.353 13.3515 114.127 12.8667C113.901 12.3791 113.788 11.8031 113.788 11.1386C113.788 10.4795 113.901 9.90751 114.127 9.42271C114.353 8.93792 114.668 8.56342 115.071 8.29924C115.474 8.03505 115.94 7.90296 116.468 7.90296C116.877 7.90296 117.2 7.97105 117.437 8.10723C117.676 8.24068 117.859 8.3932 117.984 8.56479C118.112 8.73365 118.211 8.87255 118.282 8.98149H118.364V5.89297H119.328V14.2598H118.397V13.2956H118.282C118.211 13.41 118.111 13.5544 117.98 13.7287C117.849 13.9003 117.663 14.0541 117.42 14.1903C117.178 14.3238 116.855 14.3905 116.452 14.3905ZM116.583 13.5244C116.969 13.5244 117.296 13.4236 117.563 13.2221C117.83 13.0178 118.033 12.7359 118.172 12.3764C118.311 12.0142 118.38 11.5961 118.38 11.1222C118.38 10.6538 118.312 10.2439 118.176 9.89253C118.04 9.53846 117.838 9.26338 117.571 9.06728C117.304 8.86846 116.975 8.76905 116.583 8.76905C116.174 8.76905 115.834 8.87391 115.561 9.08363C115.292 9.29062 115.089 9.57251 114.953 9.92929C114.819 10.2834 114.752 10.681 114.752 11.1222C114.752 11.5689 114.821 11.9747 114.957 12.3397C115.096 12.7019 115.3 12.9906 115.569 13.2057C115.842 13.4182 116.18 13.5244 116.583 13.5244ZM124.594 14.2598V5.89297H127.421C128.075 5.89297 128.611 6.00463 129.031 6.22797C129.45 6.44857 129.761 6.75225 129.962 7.139C130.164 7.52575 130.265 7.9656 130.265 8.45857C130.265 8.95153 130.164 9.38867 129.962 9.76996C129.761 10.1513 129.452 10.4509 129.035 10.6687C128.618 10.8839 128.086 10.9915 127.437 10.9915H125.15V10.0764H127.405C127.851 10.0764 128.211 10.011 128.483 9.88027C128.758 9.74954 128.957 9.56434 129.08 9.32466C129.205 9.08226 129.268 8.79357 129.268 8.45857C129.268 8.12357 129.205 7.83078 129.08 7.58022C128.954 7.32965 128.754 7.13628 128.479 7.0001C128.204 6.8612 127.841 6.79174 127.388 6.79174H125.607V14.2598H124.594ZM128.532 10.5012L130.591 14.2598H129.415L127.388 10.5012H128.532ZM134.386 14.3905C133.781 14.3905 133.259 14.257 132.821 13.9901C132.385 13.7205 132.049 13.3446 131.812 12.8626C131.578 12.3778 131.46 11.814 131.46 11.1712C131.46 10.5285 131.578 9.96198 131.812 9.47173C132.049 8.97877 132.378 8.59475 132.8 8.31967C133.225 8.04186 133.721 7.90296 134.288 7.90296C134.614 7.90296 134.937 7.95743 135.256 8.06637C135.574 8.17532 135.864 8.35235 136.126 8.59747C136.387 8.83987 136.596 9.16125 136.751 9.56161C136.906 9.96198 136.984 10.4549 136.984 11.0405V11.449H132.147V10.6156H136.003C136.003 10.2616 135.933 9.94563 135.791 9.66783C135.652 9.39003 135.453 9.17078 135.195 9.01009C134.938 8.8494 134.636 8.76905 134.288 8.76905C133.904 8.76905 133.571 8.86438 133.291 9.05503C133.013 9.24295 132.799 9.48808 132.649 9.79039C132.5 10.0927 132.425 10.4168 132.425 10.7627V11.3183C132.425 11.7922 132.506 12.1939 132.67 12.5235C132.836 12.8503 133.066 13.0995 133.36 13.2711C133.654 13.44 133.996 13.5244 134.386 13.5244C134.639 13.5244 134.868 13.489 135.072 13.4182C135.279 13.3446 135.457 13.2357 135.607 13.0914C135.757 12.9443 135.873 12.7618 135.954 12.5439L136.886 12.8054C136.788 13.1213 136.623 13.3991 136.392 13.6388C136.16 13.8757 135.874 14.0609 135.534 14.1944C135.193 14.3251 134.81 14.3905 134.386 14.3905ZM138.451 14.2598V7.98467H139.382V8.96515H139.464C139.594 8.63015 139.805 8.37005 140.097 8.18485C140.388 7.99692 140.738 7.90296 141.147 7.90296C141.561 7.90296 141.905 7.99692 142.18 8.18485C142.458 8.37005 142.675 8.63015 142.83 8.96515H142.895C143.056 8.64105 143.297 8.38367 143.618 8.19302C143.94 7.99965 144.325 7.90296 144.775 7.90296C145.336 7.90296 145.795 8.07863 146.151 8.42997C146.508 8.77859 146.687 9.32194 146.687 10.06V14.2598H145.722V10.06C145.722 9.59702 145.596 9.26611 145.343 9.06728C145.089 8.86846 144.791 8.76905 144.448 8.76905C144.007 8.76905 143.665 8.90251 143.422 9.16942C143.18 9.4336 143.059 9.7686 143.059 10.1744V14.2598H142.078V9.96198C142.078 9.60519 141.963 9.31785 141.731 9.09997C141.5 8.87936 141.201 8.76905 140.836 8.76905C140.586 8.76905 140.352 8.83578 140.134 8.96924C139.919 9.10269 139.744 9.28789 139.611 9.52484C139.48 9.75907 139.415 10.0301 139.415 10.3378V14.2598H138.451ZM148.449 14.2598V7.98467H149.414V14.2598H148.449ZM148.94 6.93882C148.752 6.93882 148.59 6.87481 148.454 6.74681C148.32 6.6188 148.253 6.46492 148.253 6.28516C148.253 6.10541 148.32 5.95152 148.454 5.82352C148.59 5.69551 148.752 5.6315 148.94 5.6315C149.128 5.6315 149.288 5.69551 149.422 5.82352C149.558 5.95152 149.626 6.10541 149.626 6.28516C149.626 6.46492 149.558 6.6188 149.422 6.74681C149.288 6.87481 149.128 6.93882 148.94 6.93882ZM152.144 10.4849V14.2598H151.179V7.98467H152.111V8.96515H152.193C152.34 8.64649 152.563 8.39048 152.863 8.19711C153.162 8.00101 153.549 7.90296 154.023 7.90296C154.448 7.90296 154.82 7.99011 155.138 8.16442C155.457 8.33601 155.705 8.59747 155.882 8.94881C156.059 9.29743 156.147 9.73864 156.147 10.2725V14.2598H155.183V10.3378C155.183 9.84486 155.055 9.46084 154.799 9.18576C154.543 8.90796 154.192 8.76905 153.745 8.76905C153.437 8.76905 153.162 8.83578 152.92 8.96924C152.68 9.10269 152.491 9.29743 152.352 9.55344C152.213 9.80946 152.144 10.1199 152.144 10.4849ZM160.279 14.3905C159.756 14.3905 159.294 14.2584 158.894 13.9942C158.493 13.7273 158.18 13.3515 157.954 12.8667C157.728 12.3791 157.615 11.8031 157.615 11.1386C157.615 10.4795 157.728 9.90751 157.954 9.42271C158.18 8.93792 158.495 8.56342 158.898 8.29924C159.301 8.03505 159.767 7.90296 160.295 7.90296C160.703 7.90296 161.026 7.97105 161.263 8.10723C161.503 8.24068 161.685 8.3932 161.811 8.56479C161.939 8.73365 162.038 8.87255 162.109 8.98149H162.19V5.89297H163.155V14.2598H162.223V13.2956H162.109C162.038 13.41 161.937 13.5544 161.806 13.7287C161.676 13.9003 161.489 14.0541 161.247 14.1903C161.004 14.3238 160.682 14.3905 160.279 14.3905ZM160.409 13.5244C160.796 13.5244 161.123 13.4236 161.39 13.2221C161.657 13.0178 161.86 12.7359 161.998 12.3764C162.137 12.0142 162.207 11.5961 162.207 11.1222C162.207 10.6538 162.139 10.2439 162.003 9.89253C161.866 9.53846 161.665 9.26338 161.398 9.06728C161.131 8.86846 160.801 8.76905 160.409 8.76905C160.001 8.76905 159.66 8.87391 159.388 9.08363C159.118 9.29062 158.915 9.57251 158.779 9.92929C158.646 10.2834 158.579 10.681 158.579 11.1222C158.579 11.5689 158.647 11.9747 158.783 12.3397C158.922 12.7019 159.126 12.9906 159.396 13.2057C159.668 13.4182 160.006 13.5244 160.409 13.5244ZM167.685 14.3905C167.081 14.3905 166.559 14.257 166.121 13.9901C165.685 13.7205 165.348 13.3446 165.112 12.8626C164.877 12.3778 164.76 11.814 164.76 11.1712C164.76 10.5285 164.877 9.96198 165.112 9.47173C165.348 8.97877 165.678 8.59475 166.1 8.31967C166.525 8.04186 167.021 7.90296 167.587 7.90296C167.914 7.90296 168.237 7.95743 168.555 8.06637C168.874 8.17532 169.164 8.35235 169.426 8.59747C169.687 8.83987 169.895 9.16125 170.051 9.56161C170.206 9.96198 170.284 10.4549 170.284 11.0405V11.449H165.447V10.6156H169.303C169.303 10.2616 169.232 9.94563 169.091 9.66783C168.952 9.39003 168.753 9.17078 168.494 9.01009C168.238 8.8494 167.936 8.76905 167.587 8.76905C167.203 8.76905 166.871 8.86438 166.59 9.05503C166.313 9.24295 166.099 9.48808 165.949 9.79039C165.799 10.0927 165.724 10.4168 165.724 10.7627V11.3183C165.724 11.7922 165.806 12.1939 165.969 12.5235C166.136 12.8503 166.366 13.0995 166.66 13.2711C166.954 13.44 167.296 13.5244 167.685 13.5244C167.939 13.5244 168.167 13.489 168.372 13.4182C168.579 13.3446 168.757 13.2357 168.907 13.0914C169.057 12.9443 169.172 12.7618 169.254 12.5439L170.186 12.8054C170.087 13.1213 169.923 13.3991 169.691 13.6388C169.46 13.8757 169.174 14.0609 168.833 14.1944C168.493 14.3251 168.11 14.3905 167.685 14.3905ZM171.75 14.2598V7.98467H172.682V8.93247H172.747C172.861 8.62198 173.068 8.37005 173.368 8.17668C173.668 7.9833 174.005 7.88662 174.381 7.88662C174.452 7.88662 174.541 7.88798 174.647 7.8907C174.753 7.89343 174.833 7.89751 174.888 7.90296V8.88344C174.855 8.87527 174.78 8.86302 174.663 8.84668C174.549 8.82761 174.427 8.81808 174.299 8.81808C173.994 8.81808 173.722 8.88208 173.482 9.01009C173.245 9.13537 173.058 9.30968 172.919 9.53301C172.782 9.75362 172.714 10.0056 172.714 10.2888V14.2598H171.75ZM180.476 9.39003L179.609 9.63515C179.555 9.4908 179.475 9.35054 179.368 9.21436C179.265 9.07546 179.123 8.96107 178.943 8.87119C178.764 8.78131 178.534 8.73637 178.253 8.73637C177.869 8.73637 177.549 8.82489 177.293 9.00192C177.04 9.17623 176.913 9.3982 176.913 9.66783C176.913 9.90751 177 10.0968 177.175 10.2357C177.349 10.3746 177.621 10.4903 177.992 10.5829L178.923 10.8117C179.484 10.9479 179.902 11.1563 180.177 11.4368C180.452 11.7146 180.59 12.0727 180.59 12.5112C180.59 12.8707 180.486 13.1921 180.279 13.4754C180.075 13.7586 179.789 13.982 179.421 14.1454C179.054 14.3088 178.626 14.3905 178.139 14.3905C177.499 14.3905 176.969 14.2516 176.549 13.9738C176.13 13.696 175.865 13.2902 175.753 12.7564L176.668 12.5276C176.755 12.8653 176.92 13.1186 177.162 13.2875C177.407 13.4563 177.727 13.5407 178.122 13.5407C178.572 13.5407 178.929 13.4454 179.193 13.2548C179.46 13.0614 179.593 12.8299 179.593 12.5603C179.593 12.3424 179.517 12.1599 179.364 12.0128C179.212 11.863 178.978 11.7514 178.662 11.6778L177.616 11.4327C177.041 11.2965 176.619 11.0854 176.349 10.7995C176.082 10.5108 175.949 10.1499 175.949 9.71686C175.949 9.36279 176.048 9.04958 176.247 8.77722C176.449 8.50487 176.722 8.29107 177.068 8.13582C177.417 7.98058 177.812 7.90296 178.253 7.90296C178.874 7.90296 179.362 8.03914 179.716 8.31149C180.072 8.58385 180.326 8.94336 180.476 9.39003Z" fill="#1F1F1F"/>
</svg>
