<svg width="308" height="21" viewBox="0 0 308 21" fill="none" xmlns="http://www.w3.org/2000/svg">
<rect x="0.570312" y="0.259766" width="40" height="20" rx="10" fill="#0F67F5"/>
<ellipse cx="30.5703" cy="10.2598" rx="8" ry="8" fill="white"/>
<path d="M50.9872 6.79174V5.89297H57.2623V6.79174H54.6314V14.2598H53.6182V6.79174H50.9872ZM61.7961 11.6942V7.98467H62.7602V14.2598H61.7961V13.1976H61.7307C61.5836 13.5162 61.3548 13.7872 61.0444 14.0106C60.7339 14.2312 60.3417 14.3415 59.8678 14.3415C59.4756 14.3415 59.127 14.2557 58.8219 14.0841C58.5169 13.9098 58.2772 13.6483 58.1029 13.2997C57.9286 12.9484 57.8414 12.5058 57.8414 11.972V7.98467H58.8056V11.9066C58.8056 12.3642 58.9336 12.7291 59.1896 13.0015C59.4484 13.2738 59.7779 13.41 60.1783 13.41C60.4179 13.41 60.6617 13.3487 60.9095 13.2262C61.1601 13.1036 61.3698 12.9157 61.5387 12.6624C61.7103 12.4091 61.7961 12.0864 61.7961 11.6942ZM64.5261 14.2598V7.98467H65.4576V8.93247H65.5229C65.6373 8.62198 65.8443 8.37005 66.1439 8.17668C66.4435 7.9833 66.7812 7.88662 67.1571 7.88662C67.2279 7.88662 67.3164 7.88798 67.4226 7.8907C67.5288 7.89343 67.6092 7.89751 67.6637 7.90296V8.88344C67.631 8.87527 67.5561 8.86302 67.439 8.84668C67.3246 8.82761 67.2034 8.81808 67.0754 8.81808C66.7703 8.81808 66.498 8.88208 66.2583 9.01009C66.0213 9.13537 65.8334 9.30968 65.6945 9.53301C65.5583 9.75362 65.4902 10.0056 65.4902 10.2888V14.2598H64.5261ZM69.7707 10.4849V14.2598H68.8065V7.98467H69.738V8.96515H69.8197C69.9668 8.64649 70.1901 8.39048 70.4897 8.19711C70.7893 8.00101 71.176 7.90296 71.6499 7.90296C72.0748 7.90296 72.4466 7.99011 72.7652 8.16442C73.0839 8.33601 73.3317 8.59747 73.5088 8.94881C73.6858 9.29743 73.7743 9.73864 73.7743 10.2725V14.2598H72.8102V10.3378C72.8102 9.84486 72.6822 9.46084 72.4261 9.18576C72.1701 8.90796 71.8188 8.76905 71.3721 8.76905C71.0644 8.76905 70.7893 8.83578 70.5469 8.96924C70.3072 9.10269 70.1179 9.29743 69.979 9.55344C69.8401 9.80946 69.7707 10.1199 69.7707 10.4849ZM81.321 14.3905C80.7545 14.3905 80.2574 14.2557 79.8298 13.986C79.4049 13.7164 79.0727 13.3392 78.833 12.8544C78.596 12.3696 78.4776 11.8031 78.4776 11.1549C78.4776 10.5012 78.596 9.93066 78.833 9.44314C79.0727 8.95562 79.4049 8.57704 79.8298 8.30741C80.2574 8.03778 80.7545 7.90296 81.321 7.90296C81.8875 7.90296 82.3832 8.03778 82.808 8.30741C83.2356 8.57704 83.5679 8.95562 83.8049 9.44314C84.0445 9.93066 84.1644 10.5012 84.1644 11.1549C84.1644 11.8031 84.0445 12.3696 83.8049 12.8544C83.5679 13.3392 83.2356 13.7164 82.808 13.986C82.3832 14.2557 81.8875 14.3905 81.321 14.3905ZM81.321 13.5244C81.7513 13.5244 82.1054 13.4141 82.3832 13.1935C82.661 12.9729 82.8666 12.6828 83.0001 12.3233C83.1335 11.9638 83.2002 11.5743 83.2002 11.1549C83.2002 10.7355 83.1335 10.3446 83.0001 9.9824C82.8666 9.62017 82.661 9.32739 82.3832 9.10405C82.1054 8.88072 81.7513 8.76905 81.321 8.76905C80.8907 8.76905 80.5366 8.88072 80.2588 9.10405C79.981 9.32739 79.7754 9.62017 79.6419 9.9824C79.5084 10.3446 79.4417 10.7355 79.4417 11.1549C79.4417 11.5743 79.5084 11.9638 79.6419 12.3233C79.7754 12.6828 79.981 12.9729 80.2588 13.1935C80.5366 13.4141 80.8907 13.5244 81.321 13.5244ZM86.6003 10.4849V14.2598H85.6361V7.98467H86.5676V8.96515H86.6493C86.7964 8.64649 87.0197 8.39048 87.3193 8.19711C87.6189 8.00101 88.0056 7.90296 88.4795 7.90296C88.9044 7.90296 89.2762 7.99011 89.5948 8.16442C89.9135 8.33601 90.1613 8.59747 90.3384 8.94881C90.5154 9.29743 90.6039 9.73864 90.6039 10.2725V14.2598H89.6398V10.3378C89.6398 9.84486 89.5118 9.46084 89.2557 9.18576C88.9997 8.90796 88.6484 8.76905 88.2017 8.76905C87.894 8.76905 87.6189 8.83578 87.3765 8.96924C87.1368 9.10269 86.9475 9.29743 86.8086 9.55344C86.6697 9.80946 86.6003 10.1199 86.6003 10.4849ZM97.4479 14.4068C97.0503 14.4068 96.6894 14.3319 96.3653 14.1821C96.0412 14.0296 95.7838 13.8104 95.5932 13.5244C95.4025 13.2357 95.3072 12.8871 95.3072 12.4786C95.3072 12.119 95.378 11.8276 95.5196 11.6043C95.6612 11.3782 95.8505 11.2012 96.0875 11.0732C96.3244 10.9452 96.5859 10.8499 96.8719 10.7872C97.1606 10.7219 97.4506 10.6701 97.742 10.632C98.1233 10.5829 98.4325 10.5462 98.6694 10.5217C98.9091 10.4944 99.0834 10.4495 99.1923 10.3869C99.304 10.3242 99.3598 10.2153 99.3598 10.06V10.0273C99.3598 9.62425 99.2495 9.31104 99.0289 9.08771C98.811 8.86438 98.4801 8.75271 98.0362 8.75271C97.5759 8.75271 97.215 8.85348 96.9536 9.05503C96.6921 9.25657 96.5083 9.47173 96.4021 9.70051L95.4869 9.37369C95.6503 8.99239 95.8682 8.69552 96.1406 8.48308C96.4157 8.26792 96.7153 8.11812 97.0394 8.03369C97.3662 7.94654 97.6876 7.90296 98.0035 7.90296C98.2051 7.90296 98.4366 7.92747 98.698 7.9765C98.9622 8.0228 99.2169 8.11948 99.462 8.26656C99.7098 8.41363 99.9155 8.6356 100.079 8.93247C100.242 9.22934 100.324 9.62698 100.324 10.1254V14.2598H99.3598V13.41H99.3108C99.2455 13.5462 99.1365 13.6919 98.984 13.8471C98.8315 14.0024 98.6286 14.1345 98.3753 14.2434C98.122 14.3524 97.8129 14.4068 97.4479 14.4068ZM97.595 13.5407C97.9763 13.5407 98.2977 13.4658 98.5591 13.316C98.8233 13.1663 99.0221 12.9729 99.1556 12.7359C99.2918 12.499 99.3598 12.2498 99.3598 11.9883V11.1059C99.319 11.1549 99.2291 11.1998 99.0902 11.2407C98.954 11.2788 98.7961 11.3129 98.6163 11.3428C98.4393 11.3701 98.2663 11.3946 98.0975 11.4164C97.9313 11.4354 97.7965 11.4518 97.693 11.4654C97.4425 11.4981 97.2082 11.5512 96.9903 11.6247C96.7752 11.6955 96.6009 11.8031 96.4674 11.9475C96.3367 12.0891 96.2713 12.2825 96.2713 12.5276C96.2713 12.8626 96.3952 13.1159 96.6431 13.2875C96.8937 13.4563 97.211 13.5407 97.595 13.5407ZM106.038 11.6942V7.98467H107.003V14.2598H106.038V13.1976H105.973C105.826 13.5162 105.597 13.7872 105.287 14.0106C104.976 14.2312 104.584 14.3415 104.11 14.3415C103.718 14.3415 103.369 14.2557 103.064 14.0841C102.759 13.9098 102.52 13.6483 102.345 13.2997C102.171 12.9484 102.084 12.5058 102.084 11.972V7.98467H103.048V11.9066C103.048 12.3642 103.176 12.7291 103.432 13.0015C103.691 13.2738 104.02 13.41 104.421 13.41C104.66 13.41 104.904 13.3487 105.152 13.2262C105.402 13.1036 105.612 12.9157 105.781 12.6624C105.953 12.4091 106.038 12.0864 106.038 11.6942ZM111.497 7.98467V8.80174H108.245V7.98467H111.497ZM109.193 6.48126H110.157V12.4622C110.157 12.7346 110.197 12.9388 110.276 13.075C110.358 13.2085 110.461 13.2983 110.586 13.3446C110.714 13.3882 110.849 13.41 110.991 13.41C111.097 13.41 111.184 13.4046 111.252 13.3937C111.32 13.3801 111.375 13.3692 111.416 13.361L111.612 14.2271C111.546 14.2516 111.455 14.2761 111.338 14.3006C111.221 14.3279 111.073 14.3415 110.893 14.3415C110.62 14.3415 110.354 14.2829 110.092 14.1658C109.833 14.0487 109.618 13.8703 109.447 13.6306C109.278 13.3909 109.193 13.0886 109.193 12.7237V6.48126ZM115.43 14.3905C114.863 14.3905 114.366 14.2557 113.938 13.986C113.514 13.7164 113.181 13.3392 112.942 12.8544C112.705 12.3696 112.586 11.8031 112.586 11.1549C112.586 10.5012 112.705 9.93066 112.942 9.44314C113.181 8.95562 113.514 8.57704 113.938 8.30741C114.366 8.03778 114.863 7.90296 115.43 7.90296C115.996 7.90296 116.492 8.03778 116.917 8.30741C117.344 8.57704 117.677 8.95562 117.913 9.44314C118.153 9.93066 118.273 10.5012 118.273 11.1549C118.273 11.8031 118.153 12.3696 117.913 12.8544C117.677 13.3392 117.344 13.7164 116.917 13.986C116.492 14.2557 115.996 14.3905 115.43 14.3905ZM115.43 13.5244C115.86 13.5244 116.214 13.4141 116.492 13.1935C116.77 12.9729 116.975 12.6828 117.109 12.3233C117.242 11.9638 117.309 11.5743 117.309 11.1549C117.309 10.7355 117.242 10.3446 117.109 9.9824C116.975 9.62017 116.77 9.32739 116.492 9.10405C116.214 8.88072 115.86 8.76905 115.43 8.76905C114.999 8.76905 114.645 8.88072 114.367 9.10405C114.09 9.32739 113.884 9.62017 113.75 9.9824C113.617 10.3446 113.55 10.7355 113.55 11.1549C113.55 11.5743 113.617 11.9638 113.75 12.3233C113.884 12.6828 114.09 12.9729 114.367 13.1935C114.645 13.4141 114.999 13.5244 115.43 13.5244ZM119.745 14.2598V7.98467H120.676V8.96515H120.758C120.889 8.63015 121.1 8.37005 121.391 8.18485C121.683 7.99692 122.033 7.90296 122.441 7.90296C122.855 7.90296 123.2 7.99692 123.475 8.18485C123.752 8.37005 123.969 8.63015 124.124 8.96515H124.19C124.35 8.64105 124.591 8.38367 124.913 8.19302C125.234 7.99965 125.619 7.90296 126.069 7.90296C126.63 7.90296 127.089 8.07863 127.446 8.42997C127.802 8.77859 127.981 9.32194 127.981 10.06V14.2598H127.017V10.06C127.017 9.59702 126.89 9.26611 126.637 9.06728C126.383 8.86846 126.085 8.76905 125.742 8.76905C125.301 8.76905 124.959 8.90251 124.717 9.16942C124.474 9.4336 124.353 9.7686 124.353 10.1744V14.2598H123.373V9.96198C123.373 9.60519 123.257 9.31785 123.025 9.09997C122.794 8.87936 122.496 8.76905 122.131 8.76905C121.88 8.76905 121.646 8.83578 121.428 8.96924C121.213 9.10269 121.038 9.28789 120.905 9.52484C120.774 9.75907 120.709 10.0301 120.709 10.3378V14.2598H119.745ZM131.59 14.4068C131.193 14.4068 130.832 14.3319 130.508 14.1821C130.183 14.0296 129.926 13.8104 129.735 13.5244C129.545 13.2357 129.449 12.8871 129.449 12.4786C129.449 12.119 129.52 11.8276 129.662 11.6043C129.804 11.3782 129.993 11.2012 130.23 11.0732C130.467 10.9452 130.728 10.8499 131.014 10.7872C131.303 10.7219 131.593 10.6701 131.884 10.632C132.266 10.5829 132.575 10.5462 132.812 10.5217C133.051 10.4944 133.226 10.4495 133.335 10.3869C133.446 10.3242 133.502 10.2153 133.502 10.06V10.0273C133.502 9.62425 133.392 9.31104 133.171 9.08771C132.953 8.86438 132.622 8.75271 132.178 8.75271C131.718 8.75271 131.357 8.85348 131.096 9.05503C130.834 9.25657 130.651 9.47173 130.544 9.70051L129.629 9.37369C129.793 8.99239 130.011 8.69552 130.283 8.48308C130.558 8.26792 130.858 8.11812 131.182 8.03369C131.508 7.94654 131.83 7.90296 132.146 7.90296C132.347 7.90296 132.579 7.92747 132.84 7.9765C133.105 8.0228 133.359 8.11948 133.604 8.26656C133.852 8.41363 134.058 8.6356 134.221 8.93247C134.385 9.22934 134.466 9.62698 134.466 10.1254V14.2598H133.502V13.41H133.453C133.388 13.5462 133.279 13.6919 133.126 13.8471C132.974 14.0024 132.771 14.1345 132.518 14.2434C132.264 14.3524 131.955 14.4068 131.59 14.4068ZM131.737 13.5407C132.119 13.5407 132.44 13.4658 132.701 13.316C132.966 13.1663 133.164 12.9729 133.298 12.7359C133.434 12.499 133.502 12.2498 133.502 11.9883V11.1059C133.461 11.1549 133.371 11.1998 133.233 11.2407C133.096 11.2788 132.938 11.3129 132.759 11.3428C132.582 11.3701 132.409 11.3946 132.24 11.4164C132.074 11.4354 131.939 11.4518 131.835 11.4654C131.585 11.4981 131.351 11.5512 131.133 11.6247C130.917 11.6955 130.743 11.8031 130.61 11.9475C130.479 12.0891 130.414 12.2825 130.414 12.5276C130.414 12.8626 130.538 13.1159 130.785 13.2875C131.036 13.4563 131.353 13.5407 131.737 13.5407ZM138.955 7.98467V8.80174H135.703V7.98467H138.955ZM136.651 6.48126H137.615V12.4622C137.615 12.7346 137.655 12.9388 137.734 13.075C137.815 13.2085 137.919 13.2983 138.044 13.3446C138.172 13.3882 138.307 13.41 138.448 13.41C138.555 13.41 138.642 13.4046 138.71 13.3937C138.778 13.3801 138.833 13.3692 138.873 13.361L139.069 14.2271C139.004 14.2516 138.913 14.2761 138.796 14.3006C138.679 14.3279 138.53 14.3415 138.35 14.3415C138.078 14.3415 137.811 14.2829 137.55 14.1658C137.291 14.0487 137.076 13.8703 136.904 13.6306C136.735 13.3909 136.651 13.0886 136.651 12.7237V6.48126ZM140.405 14.2598V7.98467H141.37V14.2598H140.405ZM140.896 6.93882C140.708 6.93882 140.546 6.87481 140.409 6.74681C140.276 6.6188 140.209 6.46492 140.209 6.28516C140.209 6.10541 140.276 5.95152 140.409 5.82352C140.546 5.69551 140.708 5.6315 140.896 5.6315C141.084 5.6315 141.244 5.69551 141.378 5.82352C141.514 5.95152 141.582 6.10541 141.582 6.28516C141.582 6.46492 141.514 6.6188 141.378 6.74681C141.244 6.87481 141.084 6.93882 140.896 6.93882ZM145.685 14.3905C145.096 14.3905 144.59 14.2516 144.165 13.9738C143.74 13.696 143.413 13.3133 143.184 12.8258C142.956 12.3383 142.841 11.7813 142.841 11.1549C142.841 10.5176 142.958 9.95517 143.193 9.46765C143.43 8.97741 143.759 8.59475 144.181 8.31967C144.606 8.04186 145.102 7.90296 145.668 7.90296C146.11 7.90296 146.507 7.98467 146.861 8.14808C147.215 8.31149 147.505 8.54027 147.731 8.83442C147.957 9.12856 148.098 9.47173 148.152 9.86393H147.188C147.115 9.57795 146.951 9.32466 146.698 9.10405C146.447 8.88072 146.11 8.76905 145.685 8.76905C145.309 8.76905 144.979 8.8671 144.696 9.0632C144.415 9.25657 144.196 9.53029 144.038 9.88435C143.883 10.2357 143.805 10.6483 143.805 11.1222C143.805 11.607 143.882 12.0292 144.034 12.3887C144.189 12.7482 144.407 13.0274 144.688 13.2262C144.971 13.425 145.303 13.5244 145.685 13.5244C145.935 13.5244 146.163 13.4808 146.367 13.3937C146.571 13.3065 146.744 13.1812 146.886 13.0178C147.027 12.8544 147.128 12.6583 147.188 12.4295H148.152C148.098 12.7999 147.963 13.1336 147.748 13.4304C147.535 13.7246 147.253 13.9588 146.902 14.1331C146.553 14.3047 146.148 14.3905 145.685 14.3905ZM156.752 11.6942V7.98467H157.716V14.2598H156.752V13.1976H156.687C156.539 13.5162 156.311 13.7872 156 14.0106C155.69 14.2312 155.297 14.3415 154.824 14.3415C154.431 14.3415 154.083 14.2557 153.778 14.0841C153.473 13.9098 153.233 13.6483 153.059 13.2997C152.884 12.9484 152.797 12.5058 152.797 11.972V7.98467H153.761V11.9066C153.761 12.3642 153.889 12.7291 154.145 13.0015C154.404 13.2738 154.734 13.41 155.134 13.41C155.374 13.41 155.618 13.3487 155.865 13.2262C156.116 13.1036 156.326 12.9157 156.494 12.6624C156.666 12.4091 156.752 12.0864 156.752 11.6942ZM159.482 16.6129V7.98467H160.413V8.98149H160.528C160.599 8.87255 160.697 8.73365 160.822 8.56479C160.95 8.3932 161.132 8.24068 161.369 8.10723C161.609 7.97105 161.933 7.90296 162.342 7.90296C162.87 7.90296 163.336 8.03505 163.739 8.29924C164.142 8.56342 164.457 8.93792 164.683 9.42271C164.909 9.90751 165.022 10.4795 165.022 11.1386C165.022 11.8031 164.909 12.3791 164.683 12.8667C164.457 13.3515 164.143 13.7273 163.743 13.9942C163.343 14.2584 162.881 14.3905 162.358 14.3905C161.955 14.3905 161.632 14.3238 161.39 14.1903C161.147 14.0541 160.961 13.9003 160.83 13.7287C160.699 13.5544 160.599 13.41 160.528 13.2956H160.446V16.6129H159.482ZM160.43 11.1222C160.43 11.5961 160.499 12.0142 160.638 12.3764C160.777 12.7359 160.98 13.0178 161.247 13.2221C161.514 13.4236 161.841 13.5244 162.227 13.5244C162.63 13.5244 162.967 13.4182 163.236 13.2057C163.509 12.9906 163.713 12.7019 163.849 12.3397C163.988 11.9747 164.058 11.5689 164.058 11.1222C164.058 10.681 163.989 10.2834 163.853 9.92929C163.72 9.57251 163.517 9.29062 163.245 9.08363C162.975 8.87391 162.636 8.76905 162.227 8.76905C161.835 8.76905 161.506 8.86846 161.239 9.06728C160.972 9.26338 160.77 9.53846 160.634 9.89253C160.498 10.2439 160.43 10.6538 160.43 11.1222ZM168.862 14.3905C168.339 14.3905 167.877 14.2584 167.477 13.9942C167.077 13.7273 166.763 13.3515 166.537 12.8667C166.311 12.3791 166.198 11.8031 166.198 11.1386C166.198 10.4795 166.311 9.90751 166.537 9.42271C166.763 8.93792 167.078 8.56342 167.481 8.29924C167.884 8.03505 168.35 7.90296 168.878 7.90296C169.287 7.90296 169.609 7.97105 169.846 8.10723C170.086 8.24068 170.269 8.3932 170.394 8.56479C170.522 8.73365 170.621 8.87255 170.692 8.98149H170.774V5.89297H171.738V14.2598H170.806V13.2956H170.692C170.621 13.41 170.521 13.5544 170.39 13.7287C170.259 13.9003 170.072 14.0541 169.83 14.1903C169.588 14.3238 169.265 14.3905 168.862 14.3905ZM168.993 13.5244C169.379 13.5244 169.706 13.4236 169.973 13.2221C170.24 13.0178 170.443 12.7359 170.582 12.3764C170.721 12.0142 170.79 11.5961 170.79 11.1222C170.79 10.6538 170.722 10.2439 170.586 9.89253C170.45 9.53846 170.248 9.26338 169.981 9.06728C169.714 8.86846 169.385 8.76905 168.993 8.76905C168.584 8.76905 168.244 8.87391 167.971 9.08363C167.702 9.29062 167.499 9.57251 167.363 9.92929C167.229 10.2834 167.162 10.681 167.162 11.1222C167.162 11.5689 167.23 11.9747 167.367 12.3397C167.506 12.7019 167.71 12.9906 167.979 13.2057C168.252 13.4182 168.59 13.5244 168.993 13.5244ZM175.484 14.4068C175.087 14.4068 174.726 14.3319 174.402 14.1821C174.078 14.0296 173.82 13.8104 173.629 13.5244C173.439 13.2357 173.344 12.8871 173.344 12.4786C173.344 12.119 173.414 11.8276 173.556 11.6043C173.698 11.3782 173.887 11.2012 174.124 11.0732C174.361 10.9452 174.622 10.8499 174.908 10.7872C175.197 10.7219 175.487 10.6701 175.778 10.632C176.16 10.5829 176.469 10.5462 176.706 10.5217C176.945 10.4944 177.12 10.4495 177.229 10.3869C177.34 10.3242 177.396 10.2153 177.396 10.06V10.0273C177.396 9.62425 177.286 9.31104 177.065 9.08771C176.847 8.86438 176.516 8.75271 176.073 8.75271C175.612 8.75271 175.251 8.85348 174.99 9.05503C174.728 9.25657 174.545 9.47173 174.438 9.70051L173.523 9.37369C173.687 8.99239 173.905 8.69552 174.177 8.48308C174.452 8.26792 174.752 8.11812 175.076 8.03369C175.403 7.94654 175.724 7.90296 176.04 7.90296C176.241 7.90296 176.473 7.92747 176.734 7.9765C176.999 8.0228 177.253 8.11948 177.498 8.26656C177.746 8.41363 177.952 8.6356 178.115 8.93247C178.279 9.22934 178.36 9.62698 178.36 10.1254V14.2598H177.396V13.41H177.347C177.282 13.5462 177.173 13.6919 177.02 13.8471C176.868 14.0024 176.665 14.1345 176.412 14.2434C176.158 14.3524 175.849 14.4068 175.484 14.4068ZM175.631 13.5407C176.013 13.5407 176.334 13.4658 176.595 13.316C176.86 13.1663 177.058 12.9729 177.192 12.7359C177.328 12.499 177.396 12.2498 177.396 11.9883V11.1059C177.355 11.1549 177.265 11.1998 177.127 11.2407C176.99 11.2788 176.832 11.3129 176.653 11.3428C176.476 11.3701 176.303 11.3946 176.134 11.4164C175.968 11.4354 175.833 11.4518 175.729 11.4654C175.479 11.4981 175.245 11.5512 175.027 11.6247C174.812 11.6955 174.637 11.8031 174.504 11.9475C174.373 12.0891 174.308 12.2825 174.308 12.5276C174.308 12.8626 174.432 13.1159 174.679 13.2875C174.93 13.4563 175.247 13.5407 175.631 13.5407ZM182.849 7.98467V8.80174H179.597V7.98467H182.849ZM180.545 6.48126H181.509V12.4622C181.509 12.7346 181.549 12.9388 181.628 13.075C181.709 13.2085 181.813 13.2983 181.938 13.3446C182.066 13.3882 182.201 13.41 182.343 13.41C182.449 13.41 182.536 13.4046 182.604 13.3937C182.672 13.3801 182.727 13.3692 182.767 13.361L182.963 14.2271C182.898 14.2516 182.807 14.2761 182.69 14.3006C182.573 14.3279 182.424 14.3415 182.244 14.3415C181.972 14.3415 181.705 14.2829 181.444 14.1658C181.185 14.0487 180.97 13.8703 180.798 13.6306C180.629 13.3909 180.545 13.0886 180.545 12.7237V6.48126ZM186.863 14.3905C186.258 14.3905 185.737 14.257 185.298 13.9901C184.862 13.7205 184.526 13.3446 184.289 12.8626C184.055 12.3778 183.938 11.814 183.938 11.1712C183.938 10.5285 184.055 9.96198 184.289 9.47173C184.526 8.97877 184.856 8.59475 185.278 8.31967C185.703 8.04186 186.198 7.90296 186.765 7.90296C187.092 7.90296 187.414 7.95743 187.733 8.06637C188.052 8.17532 188.342 8.35235 188.603 8.59747C188.865 8.83987 189.073 9.16125 189.228 9.56161C189.384 9.96198 189.461 10.4549 189.461 11.0405V11.449H184.624V10.6156H188.481C188.481 10.2616 188.41 9.94563 188.268 9.66783C188.129 9.39003 187.931 9.17078 187.672 9.01009C187.416 8.8494 187.114 8.76905 186.765 8.76905C186.381 8.76905 186.049 8.86438 185.768 9.05503C185.49 9.24295 185.276 9.48808 185.127 9.79039C184.977 10.0927 184.902 10.4168 184.902 10.7627V11.3183C184.902 11.7922 184.984 12.1939 185.147 12.5235C185.313 12.8503 185.543 13.0995 185.838 13.2711C186.132 13.44 186.473 13.5244 186.863 13.5244C187.116 13.5244 187.345 13.489 187.549 13.4182C187.756 13.3446 187.935 13.2357 188.084 13.0914C188.234 12.9443 188.35 12.7618 188.432 12.5439L189.363 12.8054C189.265 13.1213 189.1 13.3991 188.869 13.6388C188.637 13.8757 188.351 14.0609 188.011 14.1944C187.67 14.3251 187.288 14.3905 186.863 14.3905ZM195.373 9.39003L194.507 9.63515C194.452 9.4908 194.372 9.35054 194.266 9.21436C194.162 9.07546 194.02 8.96107 193.841 8.87119C193.661 8.78131 193.431 8.73637 193.15 8.73637C192.766 8.73637 192.446 8.82489 192.19 9.00192C191.937 9.17623 191.81 9.3982 191.81 9.66783C191.81 9.90751 191.897 10.0968 192.072 10.2357C192.246 10.3746 192.518 10.4903 192.889 10.5829L193.82 10.8117C194.381 10.9479 194.799 11.1563 195.075 11.4368C195.35 11.7146 195.487 12.0727 195.487 12.5112C195.487 12.8707 195.384 13.1921 195.177 13.4754C194.972 13.7586 194.686 13.982 194.319 14.1454C193.951 14.3088 193.523 14.3905 193.036 14.3905C192.396 14.3905 191.866 14.2516 191.447 13.9738C191.027 13.696 190.762 13.2902 190.65 12.7564L191.565 12.5276C191.652 12.8653 191.817 13.1186 192.06 13.2875C192.305 13.4563 192.625 13.5407 193.02 13.5407C193.469 13.5407 193.826 13.4454 194.09 13.2548C194.357 13.0614 194.49 12.8299 194.49 12.5603C194.49 12.3424 194.414 12.1599 194.262 12.0128C194.109 11.863 193.875 11.7514 193.559 11.6778L192.513 11.4327C191.938 11.2965 191.516 11.0854 191.247 10.7995C190.98 10.5108 190.846 10.1499 190.846 9.71686C190.846 9.36279 190.946 9.04958 191.144 8.77722C191.346 8.50487 191.62 8.29107 191.966 8.13582C192.314 7.98058 192.709 7.90296 193.15 7.90296C193.771 7.90296 194.259 8.03914 194.613 8.31149C194.97 8.58385 195.223 8.94336 195.373 9.39003ZM202.903 7.98467V8.80174H199.651V7.98467H202.903ZM200.599 6.48126H201.563V12.4622C201.563 12.7346 201.603 12.9388 201.682 13.075C201.763 13.2085 201.867 13.2983 201.992 13.3446C202.12 13.3882 202.255 13.41 202.396 13.41C202.503 13.41 202.59 13.4046 202.658 13.3937C202.726 13.3801 202.781 13.3692 202.821 13.361L203.017 14.2271C202.952 14.2516 202.861 14.2761 202.744 14.3006C202.627 14.3279 202.478 14.3415 202.298 14.3415C202.026 14.3415 201.759 14.2829 201.498 14.1658C201.239 14.0487 201.024 13.8703 200.852 13.6306C200.683 13.3909 200.599 13.0886 200.599 12.7237V6.48126ZM206.835 14.3905C206.269 14.3905 205.772 14.2557 205.344 13.986C204.919 13.7164 204.587 13.3392 204.347 12.8544C204.11 12.3696 203.992 11.8031 203.992 11.1549C203.992 10.5012 204.11 9.93066 204.347 9.44314C204.587 8.95562 204.919 8.57704 205.344 8.30741C205.772 8.03778 206.269 7.90296 206.835 7.90296C207.402 7.90296 207.897 8.03778 208.322 8.30741C208.75 8.57704 209.082 8.95562 209.319 9.44314C209.559 9.93066 209.679 10.5012 209.679 11.1549C209.679 11.8031 209.559 12.3696 209.319 12.8544C209.082 13.3392 208.75 13.7164 208.322 13.986C207.897 14.2557 207.402 14.3905 206.835 14.3905ZM206.835 13.5244C207.266 13.5244 207.62 13.4141 207.897 13.1935C208.175 12.9729 208.381 12.6828 208.514 12.3233C208.648 11.9638 208.714 11.5743 208.714 11.1549C208.714 10.7355 208.648 10.3446 208.514 9.9824C208.381 9.62017 208.175 9.32739 207.897 9.10405C207.62 8.88072 207.266 8.76905 206.835 8.76905C206.405 8.76905 206.051 8.88072 205.773 9.10405C205.495 9.32739 205.29 9.62017 205.156 9.9824C205.023 10.3446 204.956 10.7355 204.956 11.1549C204.956 11.5743 205.023 11.9638 205.156 12.3233C205.29 12.6828 205.495 12.9729 205.773 13.1935C206.051 13.4141 206.405 13.5244 206.835 13.5244ZM215.285 11.972L215.268 10.779H215.464L218.21 7.98467H219.403L216.478 10.9425H216.396L215.285 11.972ZM214.386 14.2598V5.89297H215.35V14.2598H214.386ZM218.373 14.2598L215.922 11.1549L216.608 10.4849L219.599 14.2598H218.373ZM221.608 10.4849V14.2598H220.644V7.98467H221.575V8.96515H221.657C221.804 8.64649 222.027 8.39048 222.327 8.19711C222.626 8.00101 223.013 7.90296 223.487 7.90296C223.912 7.90296 224.284 7.99011 224.602 8.16442C224.921 8.33601 225.169 8.59747 225.346 8.94881C225.523 9.29743 225.611 9.73864 225.611 10.2725V14.2598H224.647V10.3378C224.647 9.84486 224.519 9.46084 224.263 9.18576C224.007 8.90796 223.656 8.76905 223.209 8.76905C222.902 8.76905 222.626 8.83578 222.384 8.96924C222.144 9.10269 221.955 9.29743 221.816 9.55344C221.677 9.80946 221.608 10.1199 221.608 10.4849ZM229.923 14.3905C229.356 14.3905 228.859 14.2557 228.431 13.986C228.007 13.7164 227.674 13.3392 227.435 12.8544C227.198 12.3696 227.079 11.8031 227.079 11.1549C227.079 10.5012 227.198 9.93066 227.435 9.44314C227.674 8.95562 228.007 8.57704 228.431 8.30741C228.859 8.03778 229.356 7.90296 229.923 7.90296C230.489 7.90296 230.985 8.03778 231.41 8.30741C231.837 8.57704 232.169 8.95562 232.406 9.44314C232.646 9.93066 232.766 10.5012 232.766 11.1549C232.766 11.8031 232.646 12.3696 232.406 12.8544C232.169 13.3392 231.837 13.7164 231.41 13.986C230.985 14.2557 230.489 14.3905 229.923 14.3905ZM229.923 13.5244C230.353 13.5244 230.707 13.4141 230.985 13.1935C231.263 12.9729 231.468 12.6828 231.602 12.3233C231.735 11.9638 231.802 11.5743 231.802 11.1549C231.802 10.7355 231.735 10.3446 231.602 9.9824C231.468 9.62017 231.263 9.32739 230.985 9.10405C230.707 8.88072 230.353 8.76905 229.923 8.76905C229.492 8.76905 229.138 8.88072 228.86 9.10405C228.583 9.32739 228.377 9.62017 228.243 9.9824C228.11 10.3446 228.043 10.7355 228.043 11.1549C228.043 11.5743 228.11 11.9638 228.243 12.3233C228.377 12.6828 228.583 12.9729 228.86 13.1935C229.138 13.4141 229.492 13.5244 229.923 13.5244ZM235.446 14.2598L233.534 7.98467H234.547L235.903 12.789H235.969L237.309 7.98467H238.338L239.662 12.7727H239.727L241.084 7.98467H242.097L240.185 14.2598H239.237L237.864 9.43905H237.766L236.394 14.2598H235.446ZM249.238 14.3905C248.633 14.3905 248.112 14.257 247.673 13.9901C247.238 13.7205 246.901 13.3446 246.664 12.8626C246.43 12.3778 246.313 11.814 246.313 11.1712C246.313 10.5285 246.43 9.96198 246.664 9.47173C246.901 8.97877 247.231 8.59475 247.653 8.31967C248.078 8.04186 248.574 7.90296 249.14 7.90296C249.467 7.90296 249.79 7.95743 250.108 8.06637C250.427 8.17532 250.717 8.35235 250.978 8.59747C251.24 8.83987 251.448 9.16125 251.604 9.56161C251.759 9.96198 251.836 10.4549 251.836 11.0405V11.449H246.999V10.6156H250.856C250.856 10.2616 250.785 9.94563 250.643 9.66783C250.505 9.39003 250.306 9.17078 250.047 9.01009C249.791 8.8494 249.489 8.76905 249.14 8.76905C248.756 8.76905 248.424 8.86438 248.143 9.05503C247.865 9.24295 247.652 9.48808 247.502 9.79039C247.352 10.0927 247.277 10.4168 247.277 10.7627V11.3183C247.277 11.7922 247.359 12.1939 247.522 12.5235C247.688 12.8503 247.919 13.0995 248.213 13.2711C248.507 13.44 248.849 13.5244 249.238 13.5244C249.491 13.5244 249.72 13.489 249.924 13.4182C250.131 13.3446 250.31 13.2357 250.46 13.0914C250.609 12.9443 250.725 12.7618 250.807 12.5439L251.738 12.8054C251.64 13.1213 251.475 13.3991 251.244 13.6388C251.012 13.8757 250.727 14.0609 250.386 14.1944C250.046 14.3251 249.663 14.3905 249.238 14.3905ZM258.243 7.98467L255.923 14.2598H254.942L252.622 7.98467H253.668L255.4 12.9851H255.465L257.197 7.98467H258.243ZM261.922 14.3905C261.317 14.3905 260.796 14.257 260.357 13.9901C259.922 13.7205 259.585 13.3446 259.348 12.8626C259.114 12.3778 258.997 11.814 258.997 11.1712C258.997 10.5285 259.114 9.96198 259.348 9.47173C259.585 8.97877 259.915 8.59475 260.337 8.31967C260.762 8.04186 261.258 7.90296 261.824 7.90296C262.151 7.90296 262.474 7.95743 262.792 8.06637C263.111 8.17532 263.401 8.35235 263.662 8.59747C263.924 8.83987 264.132 9.16125 264.287 9.56161C264.443 9.96198 264.52 10.4549 264.52 11.0405V11.449H259.683V10.6156H263.54C263.54 10.2616 263.469 9.94563 263.327 9.66783C263.189 9.39003 262.99 9.17078 262.731 9.01009C262.475 8.8494 262.173 8.76905 261.824 8.76905C261.44 8.76905 261.108 8.86438 260.827 9.05503C260.549 9.24295 260.336 9.48808 260.186 9.79039C260.036 10.0927 259.961 10.4168 259.961 10.7627V11.3183C259.961 11.7922 260.043 12.1939 260.206 12.5235C260.372 12.8503 260.603 13.0995 260.897 13.2711C261.191 13.44 261.533 13.5244 261.922 13.5244C262.175 13.5244 262.404 13.489 262.608 13.4182C262.815 13.3446 262.994 13.2357 263.144 13.0914C263.293 12.9443 263.409 12.7618 263.491 12.5439L264.422 12.8054C264.324 13.1213 264.159 13.3991 263.928 13.6388C263.696 13.8757 263.411 14.0609 263.07 14.1944C262.73 14.3251 262.347 14.3905 261.922 14.3905ZM265.987 14.2598V7.98467H266.918V8.93247H266.984C267.098 8.62198 267.305 8.37005 267.605 8.17668C267.904 7.9833 268.242 7.88662 268.618 7.88662C268.689 7.88662 268.777 7.88798 268.884 7.8907C268.99 7.89343 269.07 7.89751 269.125 7.90296V8.88344C269.092 8.87527 269.017 8.86302 268.9 8.84668C268.785 8.82761 268.664 8.81808 268.536 8.81808C268.231 8.81808 267.959 8.88208 267.719 9.01009C267.482 9.13537 267.294 9.30968 267.155 9.53301C267.019 9.75362 266.951 10.0056 266.951 10.2888V14.2598H265.987ZM271.079 16.6129C270.916 16.6129 270.77 16.5993 270.642 16.5721C270.514 16.5476 270.426 16.523 270.377 16.4985L270.622 15.6488C270.856 15.7087 271.063 15.7305 271.243 15.7142C271.423 15.6978 271.582 15.6175 271.721 15.4731C271.862 15.3315 271.992 15.1013 272.109 14.7827L272.289 14.2924L269.968 7.98467H271.014L272.746 12.9851H272.812L274.544 7.98467H275.59L272.926 15.1749C272.806 15.499 272.658 15.7673 272.481 15.9797C272.304 16.1949 272.098 16.3542 271.864 16.4577C271.632 16.5612 271.371 16.6129 271.079 16.6129ZM279.591 7.98467V8.80174H276.339V7.98467H279.591ZM277.287 6.48126H278.251V12.4622C278.251 12.7346 278.291 12.9388 278.37 13.075C278.451 13.2085 278.555 13.2983 278.68 13.3446C278.808 13.3882 278.943 13.41 279.085 13.41C279.191 13.41 279.278 13.4046 279.346 13.3937C279.414 13.3801 279.469 13.3692 279.51 13.361L279.706 14.2271C279.64 14.2516 279.549 14.2761 279.432 14.3006C279.315 14.3279 279.166 14.3415 278.987 14.3415C278.714 14.3415 278.447 14.2829 278.186 14.1658C277.927 14.0487 277.712 13.8703 277.54 13.6306C277.372 13.3909 277.287 13.0886 277.287 12.7237V6.48126ZM282.14 10.4849V14.2598H281.176V5.89297H282.14V8.96515H282.222C282.369 8.64105 282.59 8.38367 282.884 8.19302C283.181 7.99965 283.576 7.90296 284.069 7.90296C284.496 7.90296 284.871 7.98875 285.192 8.16034C285.514 8.3292 285.763 8.5893 285.94 8.94064C286.12 9.28926 286.209 9.7332 286.209 10.2725V14.2598H285.245V10.3378C285.245 9.83942 285.116 9.45403 284.857 9.18167C284.601 8.90659 284.246 8.76905 283.791 8.76905C283.475 8.76905 283.192 8.83578 282.941 8.96924C282.693 9.10269 282.497 9.29743 282.353 9.55344C282.211 9.80946 282.14 10.1199 282.14 10.4849ZM287.973 14.2598V7.98467H288.937V14.2598H287.973ZM288.464 6.93882C288.276 6.93882 288.114 6.87481 287.977 6.74681C287.844 6.6188 287.777 6.46492 287.777 6.28516C287.777 6.10541 287.844 5.95152 287.977 5.82352C288.114 5.69551 288.276 5.6315 288.464 5.6315C288.652 5.6315 288.812 5.69551 288.946 5.82352C289.082 5.95152 289.15 6.10541 289.15 6.28516C289.15 6.46492 289.082 6.6188 288.946 6.74681C288.812 6.87481 288.652 6.93882 288.464 6.93882ZM291.668 10.4849V14.2598H290.703V7.98467H291.635V8.96515H291.717C291.864 8.64649 292.087 8.39048 292.387 8.19711C292.686 8.00101 293.073 7.90296 293.547 7.90296C293.972 7.90296 294.343 7.99011 294.662 8.16442C294.981 8.33601 295.229 8.59747 295.406 8.94881C295.583 9.29743 295.671 9.73864 295.671 10.2725V14.2598H294.707V10.3378C294.707 9.84486 294.579 9.46084 294.323 9.18576C294.067 8.90796 293.716 8.76905 293.269 8.76905C292.961 8.76905 292.686 8.83578 292.444 8.96924C292.204 9.10269 292.015 9.29743 291.876 9.55344C291.737 9.80946 291.668 10.1199 291.668 10.4849ZM299.966 16.7437C299.5 16.7437 299.1 16.6837 298.765 16.5639C298.43 16.4468 298.151 16.2915 297.927 16.0982C297.707 15.9075 297.531 15.7033 297.4 15.4854L298.168 14.9461C298.255 15.0605 298.366 15.1912 298.499 15.3383C298.633 15.4881 298.815 15.6175 299.047 15.7264C299.281 15.8381 299.587 15.8939 299.966 15.8939C300.472 15.8939 300.891 15.7713 301.22 15.5262C301.55 15.2811 301.714 14.8971 301.714 14.3742V13.0995H301.633C301.562 13.2139 301.461 13.3555 301.33 13.5244C301.202 13.6905 301.017 13.839 300.775 13.9697C300.535 14.0977 300.211 14.1617 299.802 14.1617C299.296 14.1617 298.841 14.0419 298.438 13.8022C298.038 13.5625 297.72 13.2139 297.486 12.7564C297.255 12.2988 297.139 11.7432 297.139 11.0895C297.139 10.4468 297.252 9.88708 297.478 9.41045C297.704 8.93111 298.019 8.5607 298.422 8.29924C298.825 8.03505 299.29 7.90296 299.819 7.90296C300.227 7.90296 300.551 7.97105 300.791 8.10723C301.034 8.24068 301.219 8.3932 301.347 8.56479C301.477 8.73365 301.578 8.87255 301.649 8.98149H301.747V7.98467H302.679V14.4395C302.679 14.9788 302.556 15.4173 302.311 15.755C302.068 16.0954 301.742 16.3447 301.33 16.5026C300.922 16.6633 300.467 16.7437 299.966 16.7437ZM299.933 13.2956C300.32 13.2956 300.647 13.2071 300.914 13.0301C301.181 12.853 301.384 12.5984 301.522 12.2661C301.661 11.9338 301.731 11.5362 301.731 11.0732C301.731 10.6211 301.663 10.2221 301.526 9.87618C301.39 9.53029 301.189 9.2593 300.922 9.0632C300.655 8.8671 300.325 8.76905 299.933 8.76905C299.525 8.76905 299.184 8.87255 298.912 9.07954C298.642 9.28653 298.439 9.56434 298.303 9.91295C298.17 10.2616 298.103 10.6483 298.103 11.0732C298.103 11.509 298.171 11.8943 298.307 12.2293C298.446 12.5616 298.65 12.8231 298.92 13.0137C299.192 13.2017 299.53 13.2956 299.933 13.2956ZM305.718 5.89297L305.636 11.9066H304.689L304.607 5.89297H305.718ZM305.162 14.3251C304.961 14.3251 304.788 14.253 304.644 14.1086C304.499 13.9643 304.427 13.7913 304.427 13.5898C304.427 13.3882 304.499 13.2153 304.644 13.0709C304.788 12.9266 304.961 12.8544 305.162 12.8544C305.364 12.8544 305.537 12.9266 305.681 13.0709C305.826 13.2153 305.898 13.3882 305.898 13.5898C305.898 13.7232 305.864 13.8458 305.796 13.9574C305.73 14.0691 305.642 14.159 305.53 14.2271C305.421 14.2924 305.299 14.3251 305.162 14.3251Z" fill="#1F1F1F"/>
</svg>
