<svg width="34" height="34" fill="none" xmlns="http://www.w3.org/2000/svg"><path d="M33.25 11.35c0 2.734-1.209 5.525-2.445 6.76-6.295 7.631-18.751 3.13-18.751-6.76a10.55 10.55 0 0 1 3.836-8.154c6.84-5.66 17.36-.862 17.36 8.153Z" fill="#374F68"/><path d="M33.252 11.35c0 2.734-1.208 5.525-2.444 6.761-6.825 5.638-17.338.834-17.338-8.175 0-3.674 2.12-6.613 2.444-6.761 6.818-5.638 17.338-.84 17.338 8.175Z" fill="#425B72"/><path d="M30.423 11.35a7.772 7.772 0 0 1-7.772 7.772c-7.411 0-10.598-9.418-4.74-13.925a7.772 7.772 0 0 1 12.512 6.154Z" fill="#DAD7E5"/><path d="M30.423 11.35a7.701 7.701 0 0 1-1.618 4.741A7.771 7.771 0 0 1 17.91 5.197a7.772 7.772 0 0 1 12.513 6.154Z" fill="#EDEBF2"/><path d="m16.176 19.736-3.15 3.15-2.007-1.999 3.15-3.179c1.57 1.576 1.124 1.13 2.007 2.028Z" fill="#374F68"/><path d="m15.478 19.022-1.151 1.152a1.837 1.837 0 0 1-2.6 0l2.444-2.466 1.307 1.314Z" fill="#425B72"/><path d="m13.072 24.929-1.844 1.844-3.999-3.999 1.845-1.844a1.413 1.413 0 0 1 1.999 0l2 2a1.413 1.413 0 0 1 0 1.999Z" fill="#374F68"/><path d="M13.015 22.873a2.53 2.53 0 0 1-3.533 0l-1.159-1.159.784-.784a1.413 1.413 0 0 1 2 0l1.908 1.943Z" fill="#425B72"/><path d="m11.227 26.773-5.653 5.652a2.826 2.826 0 0 1-4.62-3.06c.297-.706 0-.317 6.274-6.591l3.999 3.999Z" fill="#374F68"/><path d="M10.168 25.713c-4.677 4.713-5.023 5.42-6.592 5.42a2.827 2.827 0 0 1-2.62-1.767c.296-.707 0-.318 6.273-6.592l2.94 2.94Z" fill="#425B72"/></svg>




