<svg width="40" height="40" fill="none" xmlns="http://www.w3.org/2000/svg"><path d="m10.82 14.4 1.614 6.819c1.94.682 4.616 1.104 7.57 1.104 5.924 0 10.725-1.695 10.725-3.785v-3.81L10.82 14.4Z" fill="#5D5360"/><path d="M9.277 18.538c0 1.047 1.207 1.995 3.155 2.68v-2.294a1.893 1.893 0 0 1 2.631-1.742l1.576.669c.79.335 1.62.583 2.474.672a8.203 8.203 0 0 0 4.092-.604l7.521-3.191V9.075H9.277v9.463Z" fill="#4B3F4E"/><path d="M39.05 8.326 22.709 1.393a6.939 6.939 0 0 0-5.42 0L.947 8.326a.838.838 0 0 0-.2.119l.2.822L17.288 16.2a6.94 6.94 0 0 0 5.42 0L39.05 9.267l.2-.822a.838.838 0 0 0-.2-.12Z" fill="#6F6571"/><path d="M39.252 8.445 22.71 15.463a6.94 6.94 0 0 1-5.42 0L.748 8.445a.815.815 0 0 0 .2 1.38l16.342 6.932a6.94 6.94 0 0 0 5.42 0l16.341-6.932a.815.815 0 0 0 .2-1.38Z" fill="#5D5360"/><path d="M9.906 24.216H8.644v-10.3c0-.515.308-.973.783-1.168L19.76 8.493l.48 1.166-10.332 4.256-.001 10.302Z" fill="#FFD064"/><path d="M9.273 22.953c-.696 0-1.261.565-1.261 1.262v3.154c0 .349.282.631.63.631h1.262a.63.63 0 0 0 .631-.63v-3.155c0-.697-.565-1.262-1.262-1.262Z" fill="#FFE07D"/><path d="M20 10.337c1.045 0 1.892-.565 1.892-1.262 0-.696-.847-1.261-1.892-1.261s-1.893.565-1.893 1.261c0 .697.848 1.262 1.893 1.262Z" fill="#857E87"/></svg>
