<svg width="117" height="32" fill="none" xmlns="http://www.w3.org/2000/svg"><g clip-path="url(#a)"><path d="M78.54 31.274a.742.742 0 0 1-.753.726H45.299a.745.745 0 0 1-.745-.742c0-8.973 7.85-16.225 16.993-16.225 9.142 0 16.992 7.211 16.992 16.184v.057ZM75.187 13.345a3.34 3.34 0 0 0 3.344-3.336 3.34 3.34 0 0 0-3.344-3.337 3.34 3.34 0 0 0-3.345 3.337 3.34 3.34 0 0 0 3.345 3.336Z" fill="#F74E4E"/><path d="M28.797 31.25a.75.75 0 0 1-.752.75H.585a.753.753 0 0 1-.752-.75.814.814 0 0 1 .13-.416L13.686 7.007a.817.817 0 0 1 .63-.334.754.754 0 0 1 .622.334l13.73 23.827a.74.74 0 0 1 .13.416Z" fill="#FFB71B"/><path d="M116.646 6.673a.621.621 0 0 0-.376.13L99.915 18.892a.615.615 0 0 1-.384.122.574.574 0 0 1-.344-.106h-.049L82.923 6.844a.639.639 0 0 0-.36-.123.72.72 0 0 0-.679.75v23.787a.71.71 0 0 0 .679.742h34.083a.719.719 0 0 0 .687-.742V7.423a.73.73 0 0 0-.687-.75Z" fill="#4FBF5E"/><path d="M45.47 6.713h-3.933a.377.377 0 0 1-.368-.375V.75a.75.75 0 0 0-.76-.75h-7.515a.753.753 0 0 0-.752.75v30.508a.75.75 0 0 0 .752.742h7.515a.754.754 0 0 0 .752-.742V16.086a.366.366 0 0 1 .368-.376h3.942a.753.753 0 0 0 .752-.75V7.464a.75.75 0 0 0-.752-.75Z" fill="#71C5FF"/></g><defs><clipPath id="a"><path fill="#fff" d="M0 0h117v32H0z"/></clipPath></defs></svg>
