<svg width="34" height="34" fill="none" xmlns="http://www.w3.org/2000/svg"><path d="M28.717 11.172 9.098 30.8l-1.102-1.83c-.46-.763-.05-.523-1.844-1.116-.6-1.795-.346-1.413-1.123-1.844l-1.823-1.095L22.832 5.287l5.885 5.885Z" fill="#FC6"/><path d="M28.012 10.466C13.34 25.14 13.472 25.479 10.816 26.186a7.312 7.312 0 0 1-6.902-1.979l18.92-18.92 5.178 5.179Z" fill="#FFDE76"/><path d="m9.096 30.798-4.239 1.236a6.189 6.189 0 0 0-2.91-2.91c.48-1.625.197-.658 1.236-4.24l2.451 1.47.495 1.47 1.47.494c.925 1.561.6.996 1.497 2.48Z" fill="#F6CCAF"/><path d="M8.351 29.563c-3.172.572-5.312-1.293-6.019-1.66l.876-2.99 2.452 1.47.494 1.47 1.47.494.727 1.215Z" fill="#FFDEC7"/><path d="M4.88 32.035c0 .07.064 0-4.125 1.215.572-1.95.297-1.025 1.215-4.126a6.252 6.252 0 0 1 2.91 2.91Z" fill="#374F68"/><path d="m4.129 30.848-2.925.855.763-2.579a6.126 6.126 0 0 1 2.162 1.724Z" fill="#425B72"/><path d="M27.258 9.71 7.999 28.969c-.452-.756-.184-.558-1.116-.876l19.379-19.38.996.997ZM25.301 7.753 5.915 27.132c-.318-.94-.12-.707-.883-1.123l19.266-19.26 1.003 1.004Z" fill="#FFBA55"/><path d="M25.302 7.753 6.997 26.051a7.484 7.484 0 0 1-1.413-.593L24.299 6.75l1.003 1.003Z" fill="#FC6"/><path d="M32.649 7.251 30.685 9.23l-5.907-5.906 1.979-1.964a2.12 2.12 0 0 1 2.946 0l2.946 2.925a2.12 2.12 0 0 1 0 2.967Z" fill="#DB5669"/><path d="M33.133 5.068c-.544 1.554-2.953 2.226-4.416.763l-3.236-3.214 1.272-1.258a2.12 2.12 0 0 1 2.946 0c3.257 3.257 3.236 3.144 3.434 3.71Z" fill="#F26674"/><path d="m30.68 9.23-1.965 1.963-5.885-5.906 1.943-1.964 5.906 5.906Z" fill="#DAD7E5"/><path d="M29.974 8.523a1.78 1.78 0 0 1-2.515 0l-3.92-3.942 1.235-1.258 5.2 5.2Z" fill="#EDEBF2"/><path d="m27.254 9.71-16.44 16.475c-.715.17-1.45.234-2.183.191L26.293 8.75l.96.961Z" fill="#FC6"/></svg>
