<svg width="226" height="15" fill="none" xmlns="http://www.w3.org/2000/svg"><path d="M9.47 4H8.24A2.56 2.56 0 0 0 7.2 2.39a2.79 2.79 0 0 0-.85-.42 3.4 3.4 0 0 0-2.65.33c-.5.31-.9.77-1.19 1.38-.29.6-.44 1.35-.44 2.23 0 .88.15 1.62.44 2.23.3.6.7 1.07 1.19 1.38a3.4 3.4 0 0 0 2.65.33c.31-.1.6-.23.85-.42a2.62 2.62 0 0 0 1.04-1.61h1.23a3.82 3.82 0 0 1-2.65 3.1 4.58 4.58 0 0 1-3.76-.42 4.37 4.37 0 0 1-1.6-1.8 6.2 6.2 0 0 1-.58-2.8c0-1.06.2-2 .58-2.78A4.27 4.27 0 0 1 5.37.67c.52 0 1 .08 1.45.23a3.95 3.95 0 0 1 2.14 1.7c.25.41.42.88.51 1.4Zm4.94 7.16c-.7 0-1.3-.17-1.82-.5a3.34 3.34 0 0 1-1.21-1.37 4.66 4.66 0 0 1-.43-2.07c0-.8.14-1.49.43-2.08.3-.6.7-1.06 1.21-1.38.52-.33 1.13-.5 1.82-.5a3.3 3.3 0 0 1 3.02 1.87c.3.6.44 1.3.44 2.1 0 .78-.15 1.47-.44 2.06a3.3 3.3 0 0 1-1.21 1.38 3.3 3.3 0 0 1-1.81.49Zm0-1.05c.52 0 .95-.14 1.29-.4.34-.28.59-.63.75-1.07a4.25 4.25 0 0 0 0-2.85 2.4 2.4 0 0 0-.75-1.06 2 2 0 0 0-1.3-.41 2 2 0 0 0-1.29.4 2.4 2.4 0 0 0-.75 1.07 4.1 4.1 0 0 0-.24 1.43c0 .51.08.99.24 1.42.17.44.42.8.76 1.06.33.27.76.4 1.29.4Zm6.42-3.7V11h-1.17V3.36h1.13v1.2h.1c.18-.4.45-.7.82-.94.36-.24.83-.36 1.4-.36.53 0 .98.11 1.37.32.38.21.69.53.9.96.22.42.32.96.32 1.6V11h-1.17V6.23c0-.6-.15-1.07-.47-1.4-.3-.34-.74-.51-1.28-.51-.37 0-.7.08-1 .24-.3.16-.53.4-.7.71-.16.31-.25.7-.25 1.14Zm10.34-3.05v1H27.2v-1h3.96Zm-2.8-1.83h1.17v7.28c0 .33.05.58.14.75.1.16.23.27.38.33.16.05.32.08.5.08a2.08 2.08 0 0 0 .51-.06l.24 1.05a2.37 2.37 0 0 1-.88.14c-.33 0-.65-.07-.97-.21a1.94 1.94 0 0 1-.79-.66 1.9 1.9 0 0 1-.3-1.1v-7.6Zm6.81 9.65c-.48 0-.92-.1-1.32-.27-.4-.19-.7-.46-.94-.8a2.26 2.26 0 0 1-.34-1.28c0-.44.08-.79.25-1.06.18-.28.4-.5.7-.65.28-.15.6-.27.95-.35.35-.08.7-.14 1.06-.18l1.13-.14c.29-.03.5-.09.63-.16.14-.08.2-.21.2-.4v-.04c0-.5-.13-.87-.4-1.14-.26-.28-.66-.41-1.2-.41a2.1 2.1 0 0 0-1.99 1.15l-1.11-.4a2.67 2.67 0 0 1 1.88-1.63 4.54 4.54 0 0 1 2.02-.07c.32.06.63.18.93.36.3.18.55.45.75.8.2.37.3.85.3 1.46V11h-1.17V9.97h-.06a2.3 2.3 0 0 1-1.14 1.01c-.3.13-.68.2-1.13.2Zm.18-1.05c.46 0 .86-.1 1.17-.28a1.86 1.86 0 0 0 .98-1.61V7.16c-.05.06-.16.12-.33.17l-.58.12a26.2 26.2 0 0 1-1.12.15 4 4 0 0 0-.86.2c-.26.08-.47.21-.63.39a1 1 0 0 0-.24.7c0 .41.15.72.45.93.3.2.7.3 1.16.3Zm8.57 1.03a3.3 3.3 0 0 1-1.85-.5 3.3 3.3 0 0 1-1.2-1.4 4.73 4.73 0 0 1-.42-2.04c0-.77.15-1.46.43-2.05.3-.6.7-1.06 1.2-1.4.52-.34 1.13-.5 1.82-.5.53 0 1.02.1 1.45.3a2.6 2.6 0 0 1 1.57 2.09h-1.18a1.79 1.79 0 0 0-1.83-1.33c-.45-.01-.85.1-1.2.35-.34.23-.6.56-.8 1a3.7 3.7 0 0 0-.28 1.5c0 .6.1 1.1.28 1.54.19.44.45.78.8 1.02.34.24.74.37 1.2.37.31 0 .59-.06.84-.16a1.71 1.71 0 0 0 1-1.18h1.17a2.72 2.72 0 0 1-1.52 2.08c-.43.2-.92.3-1.48.3Zm8.03-7.8v1h-3.95v-1h3.95Zm-2.8-1.83h1.17v7.28c0 .33.05.58.15.75.1.16.22.27.38.33.15.05.32.08.49.08a2.08 2.08 0 0 0 .51-.06l.24 1.05a2.37 2.37 0 0 1-.87.14c-.33 0-.66-.07-.98-.21a1.94 1.94 0 0 1-.78-.66 1.9 1.9 0 0 1-.31-1.1v-7.6Zm13.32 6.35V3.36h1.17V11h-1.17V9.7h-.08a2.5 2.5 0 0 1-.84 1c-.37.27-.85.4-1.43.4-.47 0-.9-.1-1.27-.31a2.2 2.2 0 0 1-.88-.96 3.63 3.63 0 0 1-.31-1.61V3.36h1.17v4.78c0 .55.16 1 .47 1.33.31.33.71.5 1.2.5a2 2 0 0 0 1.97-2.1Zm8.73-2.8-1.05.3a1.96 1.96 0 0 0-.3-.52c-.12-.17-.3-.3-.51-.42-.22-.1-.5-.16-.84-.16a2 2 0 0 0-1.17.32.94.94 0 0 0-.46.81c0 .3.1.52.31.7.22.16.55.3 1 .42l1.13.27c.68.17 1.2.42 1.53.76.33.34.5.78.5 1.31 0 .44-.13.83-.38 1.18-.25.34-.6.61-1.04.81-.45.2-.97.3-1.56.3-.78 0-1.43-.17-1.94-.5a2.25 2.25 0 0 1-.97-1.49l1.12-.28c.1.41.3.72.6.93.3.2.69.3 1.17.3.54 0 .98-.11 1.3-.34.32-.24.49-.52.49-.85a.9.9 0 0 0-.28-.66 1.78 1.78 0 0 0-.86-.41l-1.27-.3a3.03 3.03 0 0 1-1.54-.77 1.87 1.87 0 0 1-.49-1.32c0-.43.12-.81.36-1.14.25-.33.58-.6 1-.78.43-.2.9-.29 1.45-.29.75 0 1.34.17 1.78.5.43.33.74.77.92 1.31Zm8.1 6.1c-.5 0-.93-.1-1.33-.27-.4-.19-.7-.46-.94-.8a2.26 2.26 0 0 1-.34-1.28c0-.44.08-.79.25-1.06.18-.28.4-.5.7-.65.28-.15.6-.27.95-.35.35-.08.7-.14 1.06-.18l1.13-.14c.29-.03.5-.09.63-.16.14-.08.2-.21.2-.4v-.04c0-.5-.13-.87-.4-1.14-.26-.28-.66-.41-1.2-.41a2.1 2.1 0 0 0-1.99 1.15l-1.12-.4a2.67 2.67 0 0 1 1.9-1.63 4.54 4.54 0 0 1 2.01-.07c.32.06.63.18.93.36.3.18.55.45.75.8.2.37.3.85.3 1.46V11h-1.17V9.97h-.06a2.3 2.3 0 0 1-1.14 1.01c-.3.13-.69.2-1.13.2Zm.17-1.05c.46 0 .85-.1 1.17-.28a1.86 1.86 0 0 0 .98-1.61V7.16c-.05.06-.16.12-.33.17l-.58.12a26.14 26.14 0 0 1-1.12.15c-.3.04-.6.1-.86.2-.26.08-.47.21-.63.39a1 1 0 0 0-.24.7c0 .41.15.72.45.93.3.2.7.3 1.16.3Zm8.78-6.77v1h-3.95v-1h3.95Zm-2.8-1.83h1.17v7.28c0 .33.05.58.15.75.1.16.22.27.37.33.16.05.32.08.5.08l.31-.02.2-.04.24 1.05a2.38 2.38 0 0 1-.87.14c-.33 0-.66-.07-.98-.21a1.94 1.94 0 0 1-.78-.66 1.9 1.9 0 0 1-.31-1.1v-7.6Z" fill="#1F1F1F"/><path d="m99.48 5.07-1.05.3a1.96 1.96 0 0 0-.3-.51c-.12-.17-.3-.3-.51-.42-.22-.1-.5-.16-.84-.16a2 2 0 0 0-1.17.32c-.3.21-.46.48-.46.81 0 .3.1.52.32.7.2.16.54.3.99.42l1.13.27c.69.17 1.2.42 1.53.76.33.34.5.78.5 1.31 0 .44-.12.83-.38 1.18-.24.34-.6.61-1.04.81-.45.2-.97.3-1.56.3-.78 0-1.42-.17-1.93-.5a2.25 2.25 0 0 1-.97-1.49l1.1-.28c.12.41.32.72.61.93.3.2.69.3 1.17.3.55 0 .98-.11 1.3-.34.33-.24.49-.52.49-.85a.9.9 0 0 0-.28-.66 1.78 1.78 0 0 0-.85-.41L96 7.56a3.04 3.04 0 0 1-1.54-.77 1.87 1.87 0 0 1-.49-1.32c0-.43.13-.81.37-1.14.24-.33.58-.6 1-.78.42-.2.9-.29 1.44-.29.75 0 1.35.17 1.78.5.43.33.74.77.92 1.31Zm6.72 2.8v-4.5h1.17V11h-1.17V9.7h-.08a2.5 2.5 0 0 1-.83 1c-.38.27-.86.4-1.44.4-.47 0-.9-.1-1.27-.31a2.2 2.2 0 0 1-.87-.96 3.63 3.63 0 0 1-.32-1.61V3.36h1.17v4.78c0 .55.16 1 .47 1.33.31.33.72.5 1.2.5a2 2 0 0 0 1.97-2.1Zm3.32 6V3.36h1.14v1.2h.14l.35-.5c.16-.2.38-.4.67-.56.3-.16.69-.25 1.18-.25a3.03 3.03 0 0 1 2.85 1.85c.28.6.42 1.29.42 2.1 0 .8-.14 1.5-.42 2.1a2.99 2.99 0 0 1-2.83 1.85c-.49 0-.88-.08-1.17-.24-.3-.17-.53-.36-.69-.57a7.5 7.5 0 0 1-.36-.52h-.1v4.03h-1.18Zm1.16-6.69c0 .58.08 1.09.25 1.53.17.44.42.78.74 1.03.33.24.72.37 1.2.37s.9-.13 1.22-.4c.33-.25.58-.6.75-1.05.17-.44.25-.93.25-1.48a3.9 3.9 0 0 0-.25-1.45 2.25 2.25 0 0 0-.74-1.03 1.96 1.96 0 0 0-1.24-.38 1.96 1.96 0 0 0-1.94 1.37c-.16.42-.24.92-.24 1.5Zm7.37 6.68V3.36h1.14v1.22h.14c.08-.14.2-.3.36-.51.15-.2.37-.4.66-.56.3-.16.69-.25 1.18-.25a3.03 3.03 0 0 1 2.85 1.85c.28.6.42 1.29.42 2.1 0 .8-.14 1.5-.42 2.1a3 3 0 0 1-2.83 1.85c-.49 0-.88-.08-1.17-.24-.3-.17-.53-.36-.69-.57a7.5 7.5 0 0 1-.36-.52h-.1v4.03h-1.18Zm1.16-6.68c0 .58.08 1.09.25 1.53.17.44.42.78.74 1.03.33.24.72.37 1.2.37.49 0 .9-.13 1.22-.4.33-.25.58-.6.75-1.05.17-.44.25-.93.25-1.48a3.9 3.9 0 0 0-.25-1.45c-.16-.43-.4-.78-.74-1.03a1.96 1.96 0 0 0-1.23-.38 1.96 1.96 0 0 0-1.94 1.37 4 4 0 0 0-.25 1.5Zm10.48 3.98c-.7 0-1.3-.17-1.82-.5a3.35 3.35 0 0 1-1.21-1.37 4.66 4.66 0 0 1-.43-2.07c0-.8.14-1.49.43-2.08.3-.6.7-1.06 1.21-1.38.52-.33 1.13-.5 1.82-.5a3.24 3.24 0 0 1 3.02 1.88c.3.6.44 1.29.44 2.08S133 8.7 132.7 9.3a3.3 3.3 0 0 1-1.21 1.38 3.3 3.3 0 0 1-1.81.49Zm0-1.05c.52 0 .95-.14 1.29-.4.34-.28.59-.63.75-1.07a4.08 4.08 0 0 0 0-2.85 2.4 2.4 0 0 0-.75-1.06 2 2 0 0 0-1.3-.41 2 2 0 0 0-1.28.4 2.4 2.4 0 0 0-.76 1.07 4.2 4.2 0 0 0 0 2.85c.17.44.42.8.76 1.06.33.27.76.4 1.29.4Zm5.25.89V3.36h1.13v1.16h.08c.14-.38.4-.69.76-.92.36-.24.77-.36 1.23-.36a12.96 12.96 0 0 1 .62.02v1.2a3.43 3.43 0 0 0-.72-.08c-.37 0-.7.08-1 .23a1.71 1.71 0 0 0-.94 1.56V11h-1.16Zm9-7.64v1H140v-1h3.96Zm-2.8-1.83h1.18v7.28c0 .33.05.58.14.75.1.16.23.27.38.33.16.05.32.08.5.08l.3-.02.2-.04.25 1.05a2.41 2.41 0 0 1-.88.14c-.33 0-.65-.07-.97-.21a1.94 1.94 0 0 1-.79-.66 1.9 1.9 0 0 1-.3-1.1v-7.6Zm10.44 12.15a7.97 7.97 0 0 1-2.7-.41 5.1 5.1 0 0 1-3.16-3.2 8.12 8.12 0 0 1-.4-2.67c0-.97.13-1.84.4-2.6a5.24 5.24 0 0 1 3.14-3.18 7.36 7.36 0 0 1 5.03.03 5.03 5.03 0 0 1 2.82 2.97c.24.64.36 1.3.36 1.99 0 .48-.03.96-.07 1.46-.05.5-.15.94-.3 1.36-.14.41-.38.74-.69 1-.3.25-.72.37-1.25.37-.23 0-.49-.04-.76-.1a2.2 2.2 0 0 1-.75-.37 1 1 0 0 1-.38-.68h-.06a1.77 1.77 0 0 1-1 .96c-.27.1-.59.14-.97.13a2.59 2.59 0 0 1-1.13-.29 2.6 2.6 0 0 1-.83-.72 3.63 3.63 0 0 1-.5-1.07c-.1-.4-.16-.85-.16-1.32 0-.45.06-.86.2-1.23a2.8 2.8 0 0 1 2.43-1.95c.33-.03.63-.02.9.04s.5.15.67.28c.18.12.29.25.33.4h.06v-.56h1.06v4.5c0 .27.07.52.23.73a.8.8 0 0 0 .68.32c.34 0 .6-.12.78-.35.18-.23.3-.6.37-1.08.07-.48.1-1.1.1-1.85a4.8 4.8 0 0 0-.73-2.54 3.98 3.98 0 0 0-2.23-1.67 5.35 5.35 0 0 0-1.69-.25 5.7 5.7 0 0 0-2.1.36 4.2 4.2 0 0 0-2.54 2.72 6.9 6.9 0 0 0-.33 2.23c0 .85.11 1.6.33 2.25a4.24 4.24 0 0 0 2.63 2.68 6.57 6.57 0 0 0 4.27.03l.58-.19.28.92a10.05 10.05 0 0 1-2.92.56ZM151 9.73c.45 0 .8-.1 1.08-.27.28-.18.48-.45.6-.81.13-.36.2-.82.2-1.37 0-.56-.08-.99-.22-1.3a1.25 1.25 0 0 0-.61-.66c-.28-.12-.61-.19-1-.19s-.7.1-.98.3c-.26.2-.47.46-.6.79-.15.32-.22.68-.22 1.06 0 .43.06.82.17 1.2.11.37.3.67.55.9.26.23.6.35 1.03.35Zm10.9 4.3c-.56 0-1.05-.08-1.46-.23a3.1 3.1 0 0 1-1.66-1.3l.94-.66c.1.13.24.3.4.47.16.18.39.34.67.47.28.14.66.2 1.12.2a2.5 2.5 0 0 0 1.52-.44c.4-.3.6-.76.6-1.4V9.59h-.1c-.08.14-.2.31-.36.52-.16.2-.38.38-.68.54-.3.15-.68.23-1.18.23a3.08 3.08 0 0 1-2.82-1.71 4.46 4.46 0 0 1-.42-2.03c0-.78.13-1.46.4-2.04.28-.58.67-1.04 1.16-1.35a2.95 2.95 0 0 1 1.7-.49 2.17 2.17 0 0 1 1.86.81l.37.5h.11v-1.2h1.14v7.85c0 .65-.15 1.19-.45 1.6-.3.41-.7.72-1.2.9-.49.2-1.04.3-1.65.3Zm-.03-4.2c.47 0 .87-.11 1.19-.33.32-.21.57-.52.74-.93.17-.4.25-.88.25-1.45 0-.55-.08-1.03-.25-1.45a2.18 2.18 0 0 0-.73-1 1.98 1.98 0 0 0-1.2-.35 2 2 0 0 0-1.99 1.39c-.16.42-.24.9-.24 1.41 0 .53.08 1 .25 1.4.17.41.42.73.74.96.34.23.75.35 1.24.35Zm5.48 1.17V3.36h1.14v1.2h.1c.16-.41.41-.73.77-.95a2.3 2.3 0 0 1 1.28-.35 2.14 2.14 0 0 1 2.05 1.3h.07c.2-.4.5-.71.88-.94.4-.24.86-.36 1.41-.36.68 0 1.24.22 1.68.65.43.42.65 1.08.65 1.98V11h-1.17V5.89c0-.56-.16-.97-.47-1.2-.3-.25-.67-.37-1.09-.37-.53 0-.95.16-1.24.49-.3.32-.45.72-.45 1.22V11h-1.19V5.77c0-.43-.14-.78-.42-1.05-.28-.27-.65-.4-1.1-.4-.3 0-.58.08-.85.24a1.8 1.8 0 0 0-.63.68 2 2 0 0 0-.24.99V11h-1.18Zm14.42.18c-.48 0-.92-.1-1.32-.27-.4-.19-.7-.46-.94-.8a2.26 2.26 0 0 1-.34-1.28c0-.44.08-.79.25-1.06.18-.28.4-.5.7-.65.28-.15.6-.27.95-.35.35-.08.7-.14 1.06-.18l1.13-.14c.29-.03.5-.09.63-.16.14-.08.2-.21.2-.4v-.04c0-.5-.13-.87-.4-1.14-.26-.28-.66-.41-1.2-.41a2.1 2.1 0 0 0-1.99 1.15l-1.12-.4a2.68 2.68 0 0 1 1.9-1.63 4.54 4.54 0 0 1 2.01-.07c.32.06.63.18.93.36.3.18.55.45.75.8.2.37.3.85.3 1.46V11h-1.17V9.97h-.06a2.3 2.3 0 0 1-1.14 1.01c-.3.13-.69.2-1.13.2Zm.18-1.05c.46 0 .85-.1 1.17-.28a1.86 1.86 0 0 0 .98-1.61V7.16c-.05.06-.16.12-.33.17l-.58.12a26.18 26.18 0 0 1-1.12.15c-.3.04-.6.1-.86.2-.26.08-.47.21-.63.39a1 1 0 0 0-.24.7c0 .41.15.72.45.93.3.2.7.3 1.16.3Zm5.46.87V3.36h1.18V11h-1.18Zm.6-8.9a.83.83 0 0 1-.6-.24.75.75 0 0 1-.24-.56c0-.22.08-.41.25-.57A.83.83 0 0 1 188 .5c.23 0 .42.08.59.23a.78.78 0 0 1-.01 1.13.82.82 0 0 1-.58.23Zm3.9-1.28V11h-1.18V.82h1.18Zm3 10.26a.86.86 0 0 1-.63-.26.86.86 0 0 1-.26-.64c0-.24.08-.45.26-.63a.86.86 0 0 1 .63-.26c.25 0 .46.09.63.26a.86.86 0 0 1 .14 1.08.93.93 0 0 1-.32.33.85.85 0 0 1-.45.12Zm6.1.08a3.3 3.3 0 0 1-1.84-.5 3.41 3.41 0 0 1-1.2-1.4 4.74 4.74 0 0 1-.42-2.04c0-.77.15-1.46.43-2.05.29-.6.7-1.06 1.2-1.4.52-.34 1.13-.5 1.81-.5.54 0 1.02.1 1.46.3a2.6 2.6 0 0 1 1.57 2.09h-1.18a1.79 1.79 0 0 0-1.83-1.33c-.45-.01-.85.1-1.2.35-.34.23-.6.56-.8 1-.19.42-.28.93-.28 1.5 0 .6.09 1.1.28 1.54.18.44.45.78.8 1.02a2.2 2.2 0 0 0 2.03.21 1.72 1.72 0 0 0 1-1.18h1.18a2.71 2.71 0 0 1-1.52 2.08c-.43.2-.92.3-1.49.3Zm7.82 0a3.3 3.3 0 0 1-1.81-.5 3.34 3.34 0 0 1-1.21-1.37 4.65 4.65 0 0 1-.44-2.07c0-.8.15-1.49.44-2.08a3.27 3.27 0 0 1 3.02-1.88 3.3 3.3 0 0 1 3.02 1.87c.3.6.44 1.3.44 2.1a4.6 4.6 0 0 1-.43 2.06 3.3 3.3 0 0 1-1.22 1.38 3.3 3.3 0 0 1-1.8.49Zm0-1.05c.53 0 .96-.14 1.3-.4.34-.28.59-.63.75-1.07a4.25 4.25 0 0 0 0-2.85c-.16-.44-.41-.8-.75-1.06a2 2 0 0 0-1.3-.41 2 2 0 0 0-1.29.4 2.4 2.4 0 0 0-.75 1.07 4.1 4.1 0 0 0-.24 1.43c0 .51.08.99.24 1.42.16.44.41.8.75 1.06.34.27.77.4 1.3.4Zm5.26.89V3.36h1.13v1.2h.1c.16-.41.41-.73.77-.95a2.3 2.3 0 0 1 1.28-.35 2.14 2.14 0 0 1 2.05 1.3h.08c.19-.4.48-.71.88-.94.39-.24.86-.36 1.4-.36.68 0 1.24.22 1.68.65.43.42.65 1.08.65 1.98V11h-1.18V5.89c0-.56-.15-.97-.46-1.2-.3-.25-.67-.37-1.09-.37-.53 0-.95.16-1.24.49-.3.32-.45.72-.45 1.22V11h-1.19V5.77c0-.43-.14-.78-.42-1.05-.28-.27-.65-.4-1.1-.4-.3 0-.58.08-.85.24a1.96 1.96 0 0 0-.87 1.67V11h-1.17Z" fill="#0F67F5"/></svg>