<svg width="672" height="73" fill="none" xmlns="http://www.w3.org/2000/svg"><path fill="#F6F6F6" d="M0 0h672v73H0z"/><path d="M295.06 41v-8.73h1.05v7.8h4.06V41h-5.11Zm6.61 0v-6.55h1V41h-1Zm.51-7.64a.71.71 0 0 1-.5-.2.64.64 0 0 1-.21-.48c0-.19.07-.35.2-.48.15-.13.32-.2.51-.2.2 0 .37.07.5.2.15.13.22.3.22.48 0 .19-.07.35-.21.48a.7.7 0 0 1-.5.2Zm3.34 3.7V41h-1v-6.55h.97v1.03h.08c.16-.34.4-.6.7-.8.32-.2.72-.31 1.21-.31.45 0 .83.09 1.17.27.33.18.59.45.77.82.19.36.28.82.28 1.38V41h-1v-4.1c0-.5-.14-.9-.4-1.2a1.42 1.42 0 0 0-1.1-.43c-.33 0-.61.07-.87.21a1.5 1.5 0 0 0-.59.61c-.14.27-.22.6-.22.97Zm6.96 1.55-.02-1.24h.2l2.87-2.92h1.24l-3.05 3.09h-.09l-1.15 1.07Zm-.94 2.39v-8.73h1V41h-1Zm4.16 0-2.56-3.24.72-.7 3.12 3.94h-1.28Zm8.57 0h-2.7v-8.73h2.82c.85 0 1.57.18 2.17.53.6.34 1.07.84 1.39 1.5.32.64.48 1.42.48 2.32 0 .9-.16 1.7-.49 2.35-.32.65-.8 1.15-1.41 1.5-.62.36-1.37.53-2.26.53Zm-1.64-.94h1.57a3.5 3.5 0 0 0 1.8-.42 2.6 2.6 0 0 0 1.06-1.18 4.5 4.5 0 0 0 .35-1.84c0-.7-.12-1.31-.35-1.82-.23-.51-.57-.9-1.03-1.18a3.26 3.26 0 0 0-1.7-.41h-1.7v6.85Zm10.18 1.08a2.8 2.8 0 0 1-2.68-1.6 4 4 0 0 1-.37-1.76c0-.67.12-1.26.37-1.77a2.77 2.77 0 0 1 2.58-1.64c.34 0 .67.06 1 .17a2.5 2.5 0 0 1 1.57 1.56c.16.42.24.93.24 1.54v.43h-5.05v-.87h4.03c0-.37-.08-.7-.23-.99a1.67 1.67 0 0 0-1.56-.94 1.85 1.85 0 0 0-1.71 1.07c-.16.31-.24.65-.24 1.01v.58c0 .5.09.92.26 1.26.17.34.41.6.72.78.3.17.66.26 1.07.26.26 0 .5-.03.71-.1a1.55 1.55 0 0 0 .92-.91l.98.26c-.1.33-.28.62-.52.87s-.54.44-.9.58c-.35.14-.75.2-1.2.2Zm7.15-6.69v.86h-3.52v-.86h3.52ZM337.5 41v-7.45c0-.37.1-.69.27-.94s.4-.43.68-.56a2.53 2.53 0 0 1 1.85-.02l-.3.87a4.97 4.97 0 0 0-.2-.06c-.1-.03-.2-.04-.35-.04-.34 0-.58.08-.72.25-.15.17-.22.42-.22.74V41h-1Zm5.62.15c-.41 0-.79-.07-1.13-.23-.34-.16-.6-.39-.8-.69-.2-.3-.3-.66-.3-1.09 0-.37.07-.68.22-.91.15-.24.35-.42.6-.55.24-.14.51-.24.81-.3a14.93 14.93 0 0 1 1.88-.28c.25-.03.43-.07.54-.14.12-.07.18-.18.18-.34v-.03c0-.43-.12-.75-.35-.98-.23-.24-.57-.35-1.03-.35-.48 0-.86.1-1.13.31-.28.21-.47.44-.58.67l-.95-.34c.17-.4.4-.7.68-.93.29-.22.6-.38.94-.46a3.9 3.9 0 0 1 1.73-.06c.27.04.54.15.8.3.25.15.47.38.64.7.17.3.25.72.25 1.24V41h-1v-.89h-.06a1.97 1.97 0 0 1-.98.87c-.25.12-.58.17-.96.17Zm.16-.9a2 2 0 0 0 1-.23 1.59 1.59 0 0 0 .84-1.39v-.92a.64.64 0 0 1-.29.14 4.8 4.8 0 0 1-1.03.18l-.42.06c-.26.03-.5.08-.74.16-.22.08-.4.19-.54.34a.86.86 0 0 0-.2.6c0 .35.12.62.38.8.26.17.6.26 1 .26Zm8.8-1.93v-3.87h1V41h-1v-1.1h-.06c-.16.32-.4.6-.72.84-.33.23-.73.35-1.23.35-.4 0-.77-.1-1.09-.27a1.87 1.87 0 0 1-.75-.82 3.1 3.1 0 0 1-.27-1.39v-4.16h1v4.1c0 .47.14.85.4 1.14.27.28.62.42 1.03.42a1.71 1.71 0 0 0 1.7-1.79Zm3.86-6.05V41h-1.01v-8.73h1Zm4.69 2.18v.86h-3.4v-.86h3.4Zm-2.4-1.56h1v6.23c0 .29.04.5.12.64.09.14.2.24.32.29a1.78 1.78 0 0 0 .87.02l.2.9a2.04 2.04 0 0 1-.75.12c-.28 0-.56-.07-.83-.19-.27-.12-.5-.3-.67-.56a1.6 1.6 0 0 1-.27-.94v-6.51Zm8.03 1.56 1.57 2.68 1.57-2.68h1.16l-2.12 3.28 2.12 3.27h-1.16l-1.57-2.54-1.57 2.54h-1.16l2.08-3.27-2.08-3.28h1.16Zm10.37 1.47-.9.26c-.06-.15-.15-.3-.26-.44a1.2 1.2 0 0 0-.44-.36 1.6 1.6 0 0 0-.72-.14c-.4 0-.73.1-1 .28-.26.18-.4.4-.4.69 0 .25.1.45.28.6.18.14.46.26.85.35l.97.24c.58.15 1.02.36 1.3.66.3.29.44.66.44 1.12 0 .37-.1.7-.32 1-.22.3-.52.53-.9.7-.38.17-.83.26-1.34.26-.67 0-1.22-.15-1.66-.44a1.93 1.93 0 0 1-.83-1.27l.96-.24c.09.36.26.62.51.8.26.17.6.26 1 .26.47 0 .85-.1 1.12-.3.28-.2.42-.44.42-.72a.76.76 0 0 0-.24-.57c-.16-.16-.4-.28-.73-.35l-1.1-.26a2.6 2.6 0 0 1-1.31-.66 1.6 1.6 0 0 1-.42-1.13c0-.37.1-.7.3-.98.22-.28.5-.5.87-.67a3 3 0 0 1 1.23-.24c.65 0 1.16.14 1.53.43.37.28.63.65.79 1.12Z" fill="#0F67F5"/><path d="M232.88 41v-7.27h.88v6.49h3.38V41h-4.26Zm7.12.13a2.2 2.2 0 0 1-.94-.2c-.29-.13-.5-.32-.68-.57a1.61 1.61 0 0 1-.24-.9c0-.32.06-.57.18-.77.12-.2.29-.35.5-.46.2-.11.43-.2.68-.25a33.94 33.94 0 0 1 1.56-.23c.2-.02.36-.06.45-.12.1-.05.15-.15.15-.28v-.03c0-.35-.1-.62-.29-.82-.19-.19-.48-.29-.86-.29-.4 0-.72.1-.94.27-.23.17-.39.36-.48.56l-.8-.29c.15-.33.33-.59.57-.77.24-.19.5-.32.78-.4a3.24 3.24 0 0 1 1.44-.04c.23.04.45.12.67.25.21.13.4.32.53.58.15.26.22.6.22 1.04V41h-.84v-.74h-.04a1.63 1.63 0 0 1-.81.72c-.23.1-.5.15-.81.15Zm.13-.76c.33 0 .6-.06.83-.19a1.33 1.33 0 0 0 .7-1.15v-.77a.68.68 0 0 1-.23.12 4 4 0 0 1-.87.15l-.35.04c-.22.03-.42.08-.61.14a.94.94 0 0 0-.45.28.71.71 0 0 0-.18.5c0 .3.11.52.33.66.21.15.5.23.82.23Zm4.01.63v-7.27h.84v2.68h.07l.25-.36c.12-.15.27-.28.48-.4.2-.12.5-.18.85-.18a2.17 2.17 0 0 1 2.03 1.33c.2.42.3.91.3 1.49 0 .57-.1 1.08-.3 1.5a2.14 2.14 0 0 1-2.02 1.32 1.7 1.7 0 0 1-.84-.17 1.56 1.56 0 0 1-.49-.4l-.26-.38h-.1V41h-.81Zm.82-2.73c0 .41.06.78.19 1.1.12.3.3.55.53.73.23.17.51.26.85.26.35 0 .64-.1.87-.28.24-.18.42-.43.54-.75.12-.32.18-.67.18-1.06 0-.38-.06-.73-.18-1.03a1.6 1.6 0 0 0-.53-.74 1.4 1.4 0 0 0-.88-.27 1.4 1.4 0 0 0-1.39.97c-.12.3-.18.67-.18 1.07Zm7.56 2.84c-.52 0-.97-.11-1.36-.34a2.34 2.34 0 0 1-.87-.98c-.2-.43-.3-.92-.3-1.47 0-.56.1-1.06.3-1.48a2.3 2.3 0 0 1 2.15-1.36c.28 0 .56.04.84.14a2.08 2.08 0 0 1 1.3 1.3c.14.34.2.77.2 1.28v.36h-4.2v-.73h3.35c0-.3-.06-.58-.18-.82a1.38 1.38 0 0 0-1.31-.78c-.33 0-.62.08-.87.25-.24.16-.42.37-.56.64-.13.26-.19.54-.19.84v.48c0 .42.07.76.21 1.05.15.28.35.5.6.65.26.15.56.22.9.22.22 0 .41-.03.6-.1a1.21 1.21 0 0 0 .76-.75l.8.23c-.08.27-.22.51-.42.72-.2.2-.45.37-.75.48-.3.12-.63.17-1 .17Zm4.38-7.38V41h-.84v-7.27h.84Z" fill="#E8178A"/><path d="M266 37.5h30" stroke="#E8178A"/><circle cx="295" cy="37.5" r="1" fill="#E8178A"/></svg>