<svg width="672" height="85" fill="none" xmlns="http://www.w3.org/2000/svg"><path fill="#F6F6F6" d="M0 0h672v85H0z"/><path d="M208.06 38.86v-1.54h8.12v1.54h-3.15v8.64h-1.83v-8.64h-3.14Zm11.4 4.17v4.47h-1.8V37.32h1.77v3.84h.09c.17-.43.45-.77.83-1.02.37-.25.86-.38 1.44-.38.53 0 1 .12 1.39.34.39.22.7.54.91.97.22.43.33.95.33 1.57v4.86h-1.8v-4.58c0-.52-.13-.92-.4-1.2a1.42 1.42 0 0 0-1.1-.43c-.32 0-.6.07-.86.2-.25.14-.44.34-.58.6-.14.25-.21.57-.21.94Zm6.8 4.47v-7.64h1.8v7.64h-1.8Zm.9-8.72c-.29 0-.53-.1-.74-.28a.91.91 0 0 1-.3-.7c0-.27.1-.5.3-.69.2-.19.45-.28.74-.28s.53.1.73.28a.95.95 0 0 1 .01 1.39c-.2.19-.45.28-.74.28Zm8.78 3.1-1.64.18a1.31 1.31 0 0 0-.7-.82c-.2-.09-.43-.13-.7-.13-.38 0-.7.08-.95.24-.25.16-.38.37-.38.63 0 .22.08.4.25.54.17.14.44.26.83.35l1.3.27c.73.16 1.27.4 1.62.75.35.33.53.78.53 1.32 0 .48-.14.9-.42 1.28-.28.36-.66.65-1.15.85-.49.2-1.05.3-1.69.3-.93 0-1.69-.19-2.26-.58a2.4 2.4 0 0 1-1.02-1.64l1.76-.17c.08.34.25.6.5.78.27.17.6.26 1.02.26.42 0 .77-.09 1.03-.26.26-.18.39-.4.39-.65a.7.7 0 0 0-.25-.54 1.77 1.77 0 0 0-.78-.33l-1.3-.28a3.1 3.1 0 0 1-1.63-.77 1.9 1.9 0 0 1-.52-1.38c0-.47.12-.88.38-1.22a2.5 2.5 0 0 1 1.1-.8 4 4 0 0 1 1.6-.3c.9 0 1.6.2 2.12.58.52.38.84.9.96 1.54Zm5.12 5.62v-7.64h1.8v7.64h-1.8Zm.9-8.72c-.28 0-.53-.1-.73-.28a.91.91 0 0 1-.31-.7c0-.27.1-.5.3-.69.21-.19.46-.28.74-.28.3 0 .54.1.74.28.2.2.3.42.3.7 0 .26-.1.5-.3.69-.2.19-.45.28-.74.28Zm8.78 3.1-1.64.18a1.33 1.33 0 0 0-.24-.47 1.21 1.21 0 0 0-.46-.35 1.62 1.62 0 0 0-.7-.13c-.38 0-.7.08-.95.24-.25.16-.37.37-.37.63 0 .22.08.4.24.54.17.14.45.26.84.35l1.3.27c.72.16 1.26.4 1.61.75.36.33.54.78.54 1.32 0 .48-.15.9-.42 1.28a2.7 2.7 0 0 1-1.15.85c-.5.2-1.06.3-1.7.3-.93 0-1.68-.19-2.25-.58a2.4 2.4 0 0 1-1.02-1.64l1.76-.17c.08.34.25.6.5.78.26.17.6.26 1.01.26.43 0 .77-.09 1.03-.26.26-.18.4-.4.4-.65 0-.22-.09-.4-.26-.54a1.76 1.76 0 0 0-.77-.33l-1.3-.28a3.1 3.1 0 0 1-1.63-.77 1.89 1.89 0 0 1-.52-1.38c0-.47.12-.88.38-1.22a2.5 2.5 0 0 1 1.09-.8c.47-.2 1-.3 1.61-.3.9 0 1.6.2 2.12.58.51.38.83.9.96 1.54Zm7.32 5.77c-.48 0-.92-.08-1.3-.25a2.14 2.14 0 0 1-.92-.78 2.27 2.27 0 0 1-.33-1.26c0-.43.08-.79.24-1.07.16-.28.37-.5.65-.68.27-.17.58-.3.93-.38.35-.09.7-.15 1.08-.2l1.08-.12c.28-.04.49-.1.61-.18.13-.08.2-.2.2-.38v-.03c0-.37-.12-.66-.34-.87-.22-.2-.54-.3-.96-.3-.44 0-.79.09-1.05.28-.25.2-.42.42-.51.68l-1.68-.24a2.68 2.68 0 0 1 1.77-1.87 4.76 4.76 0 0 1 2.56-.1c.37.08.7.22 1 .42.3.2.55.46.73.8.18.34.28.76.28 1.27v5.11h-1.74v-1.05h-.05a2.21 2.21 0 0 1-1.2 1.04c-.3.1-.65.16-1.05.16Zm.47-1.32c.36 0 .68-.07.94-.21a1.55 1.55 0 0 0 .83-1.36v-.9a.86.86 0 0 1-.29.13 14.09 14.09 0 0 1-1.36.24c-.27.04-.5.1-.72.18-.21.09-.38.2-.5.35a.85.85 0 0 0-.19.57c0 .33.12.58.37.75.24.17.55.25.92.25Zm10.65-9.01V47.5h-1.8V37.32h1.8Zm1.85 10.18v-7.64h1.8v7.64h-1.8Zm.9-8.72c-.28 0-.53-.1-.73-.28a.91.91 0 0 1-.31-.7c0-.27.1-.5.3-.69.21-.19.46-.28.74-.28.3 0 .54.1.74.28.2.2.3.42.3.7 0 .26-.1.5-.3.69-.2.19-.45.28-.74.28Zm4.55 4.25v4.47h-1.8v-7.64h1.72v1.3h.09c.17-.43.45-.77.84-1.02.39-.25.87-.38 1.44-.38.52 0 .98.12 1.37.34.4.23.7.55.92.98.22.43.32.95.32 1.56v4.86h-1.8v-4.58c0-.51-.13-.91-.4-1.2a1.4 1.4 0 0 0-1.09-.43c-.31 0-.6.07-.84.2a1.5 1.5 0 0 0-.57.6 2 2 0 0 0-.2.94Zm8.37 2.07v-2.17h.28l2.75-3.07h2.1l-3.38 3.76h-.37l-1.38 1.48Zm-1.64 2.4V37.32h1.8V47.5h-1.8Zm4.8 0-2.5-3.48 1.22-1.26 3.42 4.74H288Z" fill="#0F67F5"/><path stroke="#757575" d="M315 34.5v16"/><path d="M339.06 39.36v-1.54h8.12v1.54h-3.15V48h-1.83v-8.64h-3.14Zm11.4 4.17V48h-1.8V37.82h1.77v3.84h.09c.18-.43.45-.77.83-1.02.37-.25.85-.38 1.44-.38.53 0 1 .12 1.38.34.4.22.7.54.92.97.22.43.33.95.33 1.57V48h-1.8v-4.58c0-.52-.13-.92-.4-1.2a1.42 1.42 0 0 0-1.1-.43c-.32 0-.6.07-.86.2-.25.14-.44.34-.58.6-.14.25-.21.57-.21.94Zm6.8 4.47v-7.64h1.8V48h-1.8Zm.9-8.72c-.29 0-.53-.1-.74-.28a.91.91 0 0 1-.3-.7c0-.27.1-.5.3-.69.2-.19.45-.28.74-.28s.53.1.73.28a.95.95 0 0 1 .01 1.39c-.2.19-.45.28-.74.28Zm8.78 3.1-1.64.18a1.31 1.31 0 0 0-.7-.82c-.2-.09-.43-.13-.7-.13-.38 0-.7.08-.95.24-.25.16-.38.37-.38.63 0 .22.08.4.25.54.17.14.44.26.83.35l1.3.27c.73.16 1.26.4 1.62.75.35.33.53.78.53 1.32 0 .48-.14.9-.42 1.28-.28.36-.66.65-1.15.85-.49.2-1.05.3-1.69.3-.93 0-1.69-.19-2.26-.58-.57-.4-.9-.94-1.01-1.64l1.75-.17c.08.34.25.6.5.78.27.17.6.26 1.02.26.42 0 .77-.09 1.03-.26.26-.18.39-.4.39-.65a.7.7 0 0 0-.25-.54 1.77 1.77 0 0 0-.78-.33l-1.3-.28a3.1 3.1 0 0 1-1.63-.77 1.9 1.9 0 0 1-.52-1.38c0-.47.12-.88.38-1.22a2.5 2.5 0 0 1 1.1-.8 4 4 0 0 1 1.6-.3c.9 0 1.6.2 2.12.58.52.38.84.9.96 1.54Zm5.12 5.62v-7.64h1.8V48h-1.8Zm.9-8.72c-.28 0-.53-.1-.73-.28a.91.91 0 0 1-.31-.7c0-.27.1-.5.3-.69.21-.19.46-.28.74-.28.3 0 .54.1.74.28.2.2.3.42.3.7 0 .26-.1.5-.3.69-.2.19-.45.28-.74.28Zm8.79 3.1-1.64.18a1.33 1.33 0 0 0-.25-.47 1.21 1.21 0 0 0-.46-.35 1.62 1.62 0 0 0-.7-.13c-.38 0-.7.08-.95.24-.25.16-.37.37-.37.63 0 .22.08.4.24.54.17.14.45.26.84.35l1.3.27c.72.16 1.26.4 1.61.75.36.33.54.78.54 1.32 0 .48-.15.9-.42 1.28a2.7 2.7 0 0 1-1.15.85c-.5.2-1.06.3-1.7.3-.93 0-1.68-.19-2.25-.58a2.4 2.4 0 0 1-1.02-1.64l1.76-.17c.08.34.25.6.5.78.26.17.6.26 1.01.26.43 0 .77-.09 1.03-.26.26-.18.4-.4.4-.65 0-.22-.09-.4-.26-.54a1.76 1.76 0 0 0-.77-.33l-1.3-.28a3.1 3.1 0 0 1-1.63-.77 1.89 1.89 0 0 1-.52-1.38c0-.47.12-.88.38-1.22a2.5 2.5 0 0 1 1.09-.8c.46-.2 1-.3 1.61-.3.9 0 1.6.2 2.12.58.51.38.83.9.95 1.54Zm7.31 5.77c-.48 0-.92-.08-1.3-.25a2.14 2.14 0 0 1-.92-.78 2.27 2.27 0 0 1-.33-1.26c0-.43.08-.79.24-1.07.16-.28.37-.5.65-.68.27-.17.58-.3.93-.38.35-.09.7-.15 1.08-.2l1.08-.12c.28-.04.49-.1.61-.18.13-.08.2-.2.2-.38v-.03c0-.37-.12-.66-.34-.87-.22-.2-.54-.3-.96-.3-.44 0-.79.09-1.05.28-.25.2-.42.42-.51.68l-1.68-.24a2.68 2.68 0 0 1 1.77-1.87 4.76 4.76 0 0 1 2.56-.1c.37.08.7.22 1 .42.3.2.55.46.73.8.18.34.28.76.28 1.27V48h-1.74v-1.05h-.05a2.21 2.21 0 0 1-1.2 1.04c-.3.1-.65.16-1.05.16Zm.47-1.32c.36 0 .68-.07.94-.21a1.55 1.55 0 0 0 .83-1.36v-.9a.86.86 0 0 1-.29.13 14.09 14.09 0 0 1-1.36.24c-.27.04-.5.1-.72.18-.21.09-.38.2-.5.35a.85.85 0 0 0-.19.57c0 .33.12.58.37.75.24.17.55.25.92.25Zm10.65-3.3V48h-1.8V37.82h1.76v3.84h.09c.18-.43.45-.77.83-1.02.38-.25.86-.38 1.44-.38.53 0 1 .12 1.39.34.4.22.7.54.91.97.22.43.33.95.33 1.57V48h-1.8v-4.58c0-.52-.13-.92-.4-1.2a1.42 1.42 0 0 0-1.1-.43c-.32 0-.6.07-.86.2-.25.14-.44.34-.58.6-.14.25-.21.57-.21.94Zm10.12 4.62a3.7 3.7 0 0 1-1.94-.5 3.35 3.35 0 0 1-1.28-1.37 4.53 4.53 0 0 1-.44-2.07c0-.79.15-1.48.44-2.07.3-.6.73-1.06 1.28-1.38a3.7 3.7 0 0 1 1.94-.5c.74 0 1.39.17 1.93.5.55.32.97.79 1.27 1.38.3.6.45 1.28.45 2.07 0 .8-.15 1.48-.45 2.07a3.3 3.3 0 0 1-1.27 1.38c-.54.33-1.19.49-1.94.49Zm0-1.44c.4 0 .75-.11 1.02-.34a2 2 0 0 0 .6-.9c.14-.38.2-.8.2-1.26 0-.47-.06-.9-.2-1.27a2 2 0 0 0-.6-.91 1.54 1.54 0 0 0-1.01-.34c-.42 0-.76.11-1.04.34-.27.22-.47.53-.61.9a3.95 3.95 0 0 0 0 2.54c.13.38.34.68.61.9.28.23.62.34 1.04.34Zm11.74-6.35L419.32 48h-1.99l-2.71-7.64h1.91l1.76 5.68h.08l1.76-5.68h1.91Zm4.37 7.79c-.77 0-1.43-.16-1.99-.48a3.23 3.23 0 0 1-1.27-1.36 4.55 4.55 0 0 1-.45-2.08c0-.79.15-1.48.45-2.07a3.38 3.38 0 0 1 3.16-1.9c.48 0 .92.08 1.34.23a3 3 0 0 1 1.11.7c.32.31.58.71.77 1.2.18.49.28 1.06.28 1.73v.55h-6.26v-1.2h4.53a2 2 0 0 0-.22-.93 1.63 1.63 0 0 0-.62-.64 1.72 1.72 0 0 0-.9-.23 1.8 1.8 0 0 0-1.62.96 2 2 0 0 0-.24.94v1.06c0 .44.09.82.25 1.14.16.32.39.56.68.73a2.2 2.2 0 0 0 1.73.14c.22-.08.4-.19.56-.34.15-.14.27-.32.35-.54l1.68.2c-.1.44-.3.82-.6 1.16-.3.32-.68.58-1.14.76-.46.18-.99.27-1.58.27Zm4.92-.15v-7.64h1.74v1.28h.08a1.9 1.9 0 0 1 1.89-1.39 4.14 4.14 0 0 1 .64.05v1.66a3.34 3.34 0 0 0-.84-.1c-.32 0-.62.07-.88.2a1.57 1.57 0 0 0-.83 1.45V48h-1.8Zm9.02-10.18h1.8v8c0 .28.04.48.13.6.09.13.24.18.46.18a2.1 2.1 0 0 0 .43-.06l.3 1.36a3.58 3.58 0 0 1-.97.15c-.73.02-1.27-.13-1.62-.46-.35-.32-.53-.82-.53-1.48v-8.3ZM444.37 48v-7.64h1.8V48h-1.8Zm.9-8.72c-.28 0-.52-.1-.73-.28a.91.91 0 0 1-.3-.7c0-.27.1-.5.3-.69.2-.19.45-.28.73-.28.3 0 .54.1.74.28.2.2.3.42.3.7 0 .26-.1.5-.3.69-.2.19-.45.28-.74.28Zm4.55 4.25V48h-1.8v-7.64h1.72v1.3h.09c.18-.43.46-.77.84-1.02.39-.25.87-.38 1.44-.38.52 0 .98.12 1.37.34.4.23.7.55.92.98.22.43.33.95.32 1.56V48h-1.8v-4.58c0-.51-.13-.91-.4-1.2a1.4 1.4 0 0 0-1.08-.43c-.32 0-.6.07-.84.2-.25.14-.44.34-.58.6a2 2 0 0 0-.2.94Zm8.37 2.07v-2.17h.29l2.74-3.07h2.1l-3.37 3.76h-.38l-1.38 1.48Zm-1.64 2.4V37.82h1.8V48h-1.8Zm4.8 0-2.5-3.48 1.22-1.26L463.5 48h-2.16ZM338.5 50.78h125.1v.96H338.5v-.96Z" fill="#184BC8"/><g clip-path="url(#a)"><path d="M426.82 61.5a12.14 12.14 0 0 0-6.1-3.4c-1.7-.43-3.46-.66-5.22-.7v-4.7a3.02 3.02 0 0 0-3.11-2.92 3.02 3.02 0 0 0-3.11 2.91v8.9l-1.42-1.41a3.35 3.35 0 0 0-5.7 2.34c-.01.84.31 1.66.9 2.27l4.14 4.9a10.26 10.26 0 0 0 3.05 5.82v1.7a.95.95 0 0 0 .88.97h12.37a.95.95 0 0 0 .89-.96v-2.4a11.39 11.39 0 0 0 2.67-7.43v-5.34a.88.88 0 0 0-.24-.55Zm-1.54 5.93a9.53 9.53 0 0 1-2.31 6.45.98.98 0 0 0-.36.64v1.92h-10.54v-1.31a.88.88 0 0 0-.4-.74 6.46 6.46 0 0 1-1.61-1.98 8.14 8.14 0 0 1-1.07-3.13.8.8 0 0 0-.2-.52l-4.38-5.18a1.51 1.51 0 0 1 0-2.15 1.57 1.57 0 0 1 2.2 0l2.67 2.67v2.79l1.78-.89V52.7a1.27 1.27 0 0 1 1.33-1.14 1.26 1.26 0 0 1 1.33 1.13v10.5l1.78.37V59.2c.75.02 1.5.07 2.23.16V64l1.42.31v-4.75l1.12.24c.46.13.92.27 1.36.44v4.58l1.43.3V60.9c.8.4 1.55.92 2.22 1.54v5Z" fill="#000"/></g><defs><clipPath id="a"><path fill="#fff" transform="translate(399.5 48)" d="M0 0h32v32H0z"/></clipPath></defs></svg>