<svg width="226" height="15" viewBox="0 0 226 15" fill="none" xmlns="http://www.w3.org/2000/svg">
<path d="M9.47204 4H8.23908C8.16616 3.64536 8.03856 3.33381 7.85627 3.06534C7.67729 2.79688 7.45854 2.5715 7.20002 2.3892C6.94481 2.2036 6.66143 2.06439 6.34988 1.97159C6.03832 1.87879 5.71351 1.83239 5.37544 1.83239C4.75897 1.83239 4.20049 1.98816 3.70002 2.29972C3.20286 2.61127 2.80679 3.07031 2.51181 3.67685C2.22014 4.28338 2.07431 5.02746 2.07431 5.90909C2.07431 6.79072 2.22014 7.5348 2.51181 8.14134C2.80679 8.74787 3.20286 9.20691 3.70002 9.51847C4.20049 9.83002 4.75897 9.9858 5.37544 9.9858C5.71351 9.9858 6.03832 9.93939 6.34988 9.84659C6.66143 9.75379 6.94481 9.61624 7.20002 9.43395C7.45854 9.24834 7.67729 9.02131 7.85627 8.75284C8.03856 8.48106 8.16616 8.16951 8.23908 7.81818H9.47204C9.37923 8.33854 9.2102 8.80421 8.96493 9.2152C8.71967 9.62618 8.41474 9.97585 8.05016 10.2642C7.68558 10.5492 7.27625 10.7663 6.82218 10.9155C6.37142 11.0646 5.88918 11.1392 5.37544 11.1392C4.50707 11.1392 3.73482 10.9271 3.05868 10.5028C2.38255 10.0786 1.85059 9.47538 1.4628 8.69318C1.07502 7.91098 0.881126 6.98295 0.881126 5.90909C0.881126 4.83523 1.07502 3.9072 1.4628 3.125C1.85059 2.3428 2.38255 1.73958 3.05868 1.31534C3.73482 0.891098 4.50707 0.678977 5.37544 0.678977C5.88918 0.678977 6.37142 0.753551 6.82218 0.902699C7.27625 1.05185 7.68558 1.2706 8.05016 1.55895C8.41474 1.84399 8.71967 2.192 8.96493 2.60298C9.2102 3.01065 9.37923 3.47633 9.47204 4ZM14.4076 11.1591C13.7182 11.1591 13.1133 10.995 12.593 10.6669C12.0759 10.3388 11.6715 9.87973 11.3799 9.28977C11.0915 8.69981 10.9474 8.01042 10.9474 7.22159C10.9474 6.42614 11.0915 5.73177 11.3799 5.13849C11.6715 4.54522 12.0759 4.08452 12.593 3.75639C13.1133 3.42827 13.7182 3.2642 14.4076 3.2642C15.097 3.2642 15.7002 3.42827 16.2172 3.75639C16.7376 4.08452 17.142 4.54522 17.4303 5.13849C17.722 5.73177 17.8678 6.42614 17.8678 7.22159C17.8678 8.01042 17.722 8.69981 17.4303 9.28977C17.142 9.87973 16.7376 10.3388 16.2172 10.6669C15.7002 10.995 15.097 11.1591 14.4076 11.1591ZM14.4076 10.1051C14.9313 10.1051 15.3621 9.97088 15.7002 9.70241C16.0383 9.43395 16.2885 9.08097 16.4509 8.64347C16.6133 8.20597 16.6945 7.73201 16.6945 7.22159C16.6945 6.71117 16.6133 6.23556 16.4509 5.79474C16.2885 5.35393 16.0383 4.99763 15.7002 4.72585C15.3621 4.45407 14.9313 4.31818 14.4076 4.31818C13.8839 4.31818 13.453 4.45407 13.115 4.72585C12.7769 4.99763 12.5267 5.35393 12.3643 5.79474C12.2019 6.23556 12.1206 6.71117 12.1206 7.22159C12.1206 7.73201 12.2019 8.20597 12.3643 8.64347C12.5267 9.08097 12.7769 9.43395 13.115 9.70241C13.453 9.97088 13.8839 10.1051 14.4076 10.1051ZM20.8321 6.40625V11H19.6588V3.36364H20.7923V4.55682H20.8918C21.0708 4.16903 21.3425 3.85748 21.7071 3.62216C22.0717 3.38352 22.5423 3.2642 23.1191 3.2642C23.6361 3.2642 24.0885 3.37027 24.4763 3.58239C24.8641 3.79119 25.1657 4.10938 25.3811 4.53693C25.5966 4.96117 25.7043 5.49811 25.7043 6.14773V11H24.531V6.22727C24.531 5.62737 24.3752 5.16004 24.0637 4.82528C23.7521 4.48722 23.3245 4.31818 22.781 4.31818C22.4065 4.31818 22.0717 4.39938 21.7767 4.56179C21.4851 4.72419 21.2547 4.96117 21.0857 5.27273C20.9166 5.58428 20.8321 5.96212 20.8321 6.40625ZM31.1693 3.36364V4.35795H27.2119V3.36364H31.1693ZM28.3653 1.53409H29.5386V8.8125C29.5386 9.14394 29.5867 9.39252 29.6828 9.55824C29.7822 9.72064 29.9082 9.83002 30.0606 9.88636C30.2164 9.93939 30.3805 9.96591 30.5528 9.96591C30.6821 9.96591 30.7881 9.95928 30.871 9.94602C30.9539 9.92945 31.0202 9.91619 31.0699 9.90625L31.3085 10.9602C31.229 10.9901 31.1179 11.0199 30.9754 11.0497C30.8329 11.0829 30.6523 11.0994 30.4335 11.0994C30.1021 11.0994 29.7773 11.0282 29.4591 10.8857C29.1442 10.7431 28.8824 10.526 28.6736 10.2344C28.4681 9.94271 28.3653 9.57481 28.3653 9.13068V1.53409ZM35.1814 11.179C34.6975 11.179 34.2583 11.0878 33.8639 10.9055C33.4695 10.7199 33.1563 10.4531 32.9243 10.1051C32.6923 9.75379 32.5763 9.32955 32.5763 8.83239C32.5763 8.39489 32.6624 8.04025 32.8348 7.76847C33.0071 7.49337 33.2375 7.27794 33.5258 7.12216C33.8142 6.96638 34.1324 6.85038 34.4804 6.77415C34.8317 6.6946 35.1847 6.63163 35.5393 6.58523C36.0033 6.52557 36.3795 6.48082 36.6679 6.45099C36.9595 6.41785 37.1717 6.36316 37.3042 6.28693C37.4401 6.2107 37.5081 6.07812 37.5081 5.8892V5.84943C37.5081 5.3589 37.3738 4.97775 37.1054 4.70597C36.8402 4.43419 36.4375 4.2983 35.8973 4.2983C35.3372 4.2983 34.898 4.42093 34.5798 4.66619C34.2616 4.91146 34.0379 5.1733 33.9086 5.4517L32.795 5.05398C32.9939 4.58996 33.259 4.22869 33.5905 3.97017C33.9252 3.70833 34.2898 3.52604 34.6842 3.4233C35.0819 3.31723 35.473 3.2642 35.8575 3.2642C36.1028 3.2642 36.3845 3.29403 36.7027 3.35369C37.0242 3.41004 37.3341 3.5277 37.6324 3.70668C37.934 3.88565 38.1842 4.15578 38.3831 4.51705C38.5819 4.87831 38.6814 5.36222 38.6814 5.96875V11H37.5081V9.96591H37.4484C37.3689 10.1316 37.2363 10.3089 37.0507 10.4979C36.8651 10.6868 36.6182 10.8475 36.3099 10.9801C36.0017 11.1127 35.6255 11.179 35.1814 11.179ZM35.3604 10.125C35.8244 10.125 36.2155 10.0339 36.5336 9.85156C36.8551 9.66927 37.0971 9.43395 37.2595 9.1456C37.4252 8.85724 37.5081 8.55398 37.5081 8.2358V7.16193C37.4584 7.22159 37.349 7.27628 37.18 7.32599C37.0142 7.3724 36.822 7.41383 36.6032 7.45028C36.3878 7.48343 36.1773 7.51326 35.9719 7.53977C35.7697 7.56297 35.6056 7.58286 35.4797 7.59943C35.1747 7.6392 34.8897 7.70384 34.6246 7.79332C34.3627 7.8795 34.1506 8.01042 33.9882 8.18608C33.8291 8.35843 33.7496 8.59375 33.7496 8.89205C33.7496 9.29972 33.9004 9.60795 34.202 9.81676C34.5069 10.0223 34.893 10.125 35.3604 10.125ZM43.9252 11.1591C43.2093 11.1591 42.5928 10.9901 42.0757 10.652C41.5587 10.3139 41.161 9.84825 40.8825 9.25497C40.6041 8.66169 40.4649 7.9839 40.4649 7.22159C40.4649 6.44602 40.6075 5.7616 40.8925 5.16832C41.1808 4.57173 41.5819 4.10606 42.0956 3.77131C42.6127 3.43324 43.2159 3.2642 43.9053 3.2642C44.4422 3.2642 44.9261 3.36364 45.357 3.5625C45.7878 3.76136 46.1408 4.03977 46.4159 4.39773C46.691 4.75568 46.8617 5.1733 46.928 5.65057H45.7547C45.6652 5.30256 45.4664 4.99432 45.1581 4.72585C44.8532 4.45407 44.4422 4.31818 43.9252 4.31818C43.4678 4.31818 43.0667 4.4375 42.722 4.67614C42.3807 4.91146 42.1138 5.24455 41.9216 5.67543C41.7327 6.10298 41.6382 6.60511 41.6382 7.18182C41.6382 7.77178 41.731 8.28551 41.9166 8.72301C42.1056 9.16051 42.3707 9.50024 42.7121 9.74219C43.0568 9.98414 43.4611 10.1051 43.9252 10.1051C44.2301 10.1051 44.5068 10.0521 44.7554 9.94602C45.004 9.83996 45.2145 9.6875 45.3868 9.48864C45.5592 9.28977 45.6818 9.05114 45.7547 8.77273H46.928C46.8617 9.22348 46.6977 9.6295 46.4358 9.99077C46.1773 10.3487 45.8343 10.6338 45.4067 10.8459C44.9825 11.0547 44.4886 11.1591 43.9252 11.1591ZM51.9642 3.36364V4.35795H48.0068V3.36364H51.9642ZM49.1602 1.53409H50.3335V8.8125C50.3335 9.14394 50.3816 9.39252 50.4777 9.55824C50.5771 9.72064 50.7031 9.83002 50.8556 9.88636C51.0113 9.93939 51.1754 9.96591 51.3477 9.96591C51.477 9.96591 51.5831 9.95928 51.6659 9.94602C51.7488 9.92945 51.8151 9.91619 51.8648 9.90625L52.1034 10.9602C52.0239 10.9901 51.9128 11.0199 51.7703 11.0497C51.6278 11.0829 51.4472 11.0994 51.2284 11.0994C50.897 11.0994 50.5722 11.0282 50.254 10.8857C49.9391 10.7431 49.6773 10.526 49.4685 10.2344C49.263 9.94271 49.1602 9.57481 49.1602 9.13068V1.53409ZM62.4791 7.87784V3.36364H63.6524V11H62.4791V9.70739H62.3996C62.2206 10.0952 61.9422 10.425 61.5644 10.6967C61.1865 10.9652 60.7093 11.0994 60.1325 11.0994C59.6553 11.0994 59.231 10.995 58.8598 10.7862C58.4886 10.5741 58.1969 10.2559 57.9848 9.83168C57.7727 9.40412 57.6666 8.86553 57.6666 8.21591V3.36364H58.8399V8.13636C58.8399 8.69318 58.9957 9.13731 59.3073 9.46875C59.6221 9.80019 60.0232 9.96591 60.5104 9.96591C60.8021 9.96591 61.0987 9.89134 61.4003 9.74219C61.7052 9.59304 61.9604 9.36435 62.1659 9.05611C62.3747 8.74787 62.4791 8.35511 62.4791 7.87784ZM71.2105 5.07386L70.1565 5.37216C70.0902 5.1965 69.9925 5.0258 69.8632 4.86009C69.7372 4.69105 69.5649 4.55185 69.3461 4.44247C69.1274 4.3331 68.8473 4.27841 68.5059 4.27841C68.0386 4.27841 67.6492 4.38613 67.3376 4.60156C67.0294 4.81368 66.8753 5.08381 66.8753 5.41193C66.8753 5.7036 66.9813 5.93395 67.1934 6.10298C67.4056 6.27202 67.737 6.41288 68.1878 6.52557L69.3213 6.80398C70.0041 6.9697 70.5128 7.22325 70.8476 7.56463C71.1823 7.9027 71.3497 8.33854 71.3497 8.87216C71.3497 9.30966 71.2238 9.70076 70.9719 10.0455C70.7233 10.3902 70.3753 10.6619 69.9278 10.8608C69.4804 11.0597 68.96 11.1591 68.3667 11.1591C67.5879 11.1591 66.9432 10.9901 66.4328 10.652C65.9224 10.3139 65.5992 9.82008 65.4633 9.17045L66.577 8.89205C66.683 9.30303 66.8836 9.61127 67.1785 9.81676C67.4768 10.0223 67.8663 10.125 68.3469 10.125C68.8937 10.125 69.3279 10.009 69.6494 9.77699C69.9742 9.54167 70.1366 9.25994 70.1366 8.93182C70.1366 8.66667 70.0438 8.4446 69.8582 8.26562C69.6726 8.08333 69.3876 7.94744 69.0031 7.85795L67.7304 7.55966C67.031 7.39394 66.5173 7.13707 66.1892 6.78906C65.8644 6.43774 65.702 5.99858 65.702 5.47159C65.702 5.04072 65.8229 4.65956 66.0649 4.32812C66.3102 3.99669 66.6433 3.73651 67.0642 3.54758C67.4884 3.35866 67.969 3.2642 68.5059 3.2642C69.2616 3.2642 69.8549 3.42992 70.2858 3.76136C70.72 4.0928 71.0282 4.5303 71.2105 5.07386ZM79.3005 11.179C78.8166 11.179 78.3775 11.0878 77.983 10.9055C77.5886 10.7199 77.2754 10.4531 77.0434 10.1051C76.8114 9.75379 76.6954 9.32955 76.6954 8.83239C76.6954 8.39489 76.7816 8.04025 76.9539 7.76847C77.1263 7.49337 77.3566 7.27794 77.645 7.12216C77.9333 6.96638 78.2515 6.85038 78.5995 6.77415C78.9508 6.6946 79.3038 6.63163 79.6585 6.58523C80.1225 6.52557 80.4987 6.48082 80.787 6.45099C81.0787 6.41785 81.2908 6.36316 81.4234 6.28693C81.5593 6.2107 81.6272 6.07812 81.6272 5.8892V5.84943C81.6272 5.3589 81.493 4.97775 81.2245 4.70597C80.9594 4.43419 80.5567 4.2983 80.0164 4.2983C79.4563 4.2983 79.0171 4.42093 78.699 4.66619C78.3808 4.91146 78.157 5.1733 78.0278 5.4517L76.9142 5.05398C77.113 4.58996 77.3782 4.22869 77.7096 3.97017C78.0444 3.70833 78.4089 3.52604 78.8034 3.4233C79.2011 3.31723 79.5922 3.2642 79.9767 3.2642C80.2219 3.2642 80.5036 3.29403 80.8218 3.35369C81.1433 3.41004 81.4532 3.5277 81.7515 3.70668C82.0531 3.88565 82.3034 4.15578 82.5022 4.51705C82.7011 4.87831 82.8005 5.36222 82.8005 5.96875V11H81.6272V9.96591H81.5676C81.488 10.1316 81.3554 10.3089 81.1698 10.4979C80.9842 10.6868 80.7373 10.8475 80.4291 10.9801C80.1208 11.1127 79.7446 11.179 79.3005 11.179ZM79.4795 10.125C79.9435 10.125 80.3346 10.0339 80.6528 9.85156C80.9743 9.66927 81.2162 9.43395 81.3786 9.1456C81.5444 8.85724 81.6272 8.55398 81.6272 8.2358V7.16193C81.5775 7.22159 81.4681 7.27628 81.2991 7.32599C81.1334 7.3724 80.9411 7.41383 80.7224 7.45028C80.507 7.48343 80.2965 7.51326 80.091 7.53977C79.8888 7.56297 79.7248 7.58286 79.5988 7.59943C79.2939 7.6392 79.0088 7.70384 78.7437 7.79332C78.4819 7.8795 78.2697 8.01042 78.1073 8.18608C77.9482 8.35843 77.8687 8.59375 77.8687 8.89205C77.8687 9.29972 78.0195 9.60795 78.3211 9.81676C78.626 10.0223 79.0122 10.125 79.4795 10.125ZM88.2631 3.36364V4.35795H84.3057V3.36364H88.2631ZM85.4591 1.53409H86.6324V8.8125C86.6324 9.14394 86.6804 9.39252 86.7765 9.55824C86.876 9.72064 87.0019 9.83002 87.1544 9.88636C87.3102 9.93939 87.4742 9.96591 87.6466 9.96591C87.7758 9.96591 87.8819 9.95928 87.9648 9.94602C88.0476 9.92945 88.1139 9.91619 88.1636 9.90625L88.4023 10.9602C88.3227 10.9901 88.2117 11.0199 88.0692 11.0497C87.9266 11.0829 87.746 11.0994 87.5273 11.0994C87.1958 11.0994 86.871 11.0282 86.5528 10.8857C86.238 10.7431 85.9761 10.526 85.7673 10.2344C85.5618 9.94271 85.4591 9.57481 85.4591 9.13068V1.53409Z" fill="#1F1F1F"/>
<path d="M99.483 5.07386L98.429 5.37216C98.3627 5.1965 98.2649 5.0258 98.1357 4.86009C98.0097 4.69105 97.8374 4.55185 97.6186 4.44247C97.3999 4.3331 97.1198 4.27841 96.7784 4.27841C96.3111 4.27841 95.9216 4.38613 95.6101 4.60156C95.3018 4.81368 95.1477 5.08381 95.1477 5.41193C95.1477 5.7036 95.2538 5.93395 95.4659 6.10298C95.678 6.27202 96.0095 6.41288 96.4602 6.52557L97.5938 6.80398C98.2765 6.9697 98.7853 7.22325 99.12 7.56463C99.4548 7.9027 99.6222 8.33854 99.6222 8.87216C99.6222 9.30966 99.4962 9.70076 99.2443 10.0455C98.9957 10.3902 98.6477 10.6619 98.2003 10.8608C97.7528 11.0597 97.2325 11.1591 96.6392 11.1591C95.8603 11.1591 95.2157 10.9901 94.7053 10.652C94.1948 10.3139 93.8717 9.82008 93.7358 9.17045L94.8494 8.89205C94.9555 9.30303 95.156 9.61127 95.451 9.81676C95.7493 10.0223 96.1387 10.125 96.6193 10.125C97.1662 10.125 97.6004 10.009 97.9219 9.77699C98.2467 9.54167 98.4091 9.25994 98.4091 8.93182C98.4091 8.66667 98.3163 8.4446 98.1307 8.26562C97.9451 8.08333 97.66 7.94744 97.2756 7.85795L96.0028 7.55966C95.3035 7.39394 94.7898 7.13707 94.4616 6.78906C94.1368 6.43774 93.9744 5.99858 93.9744 5.47159C93.9744 5.04072 94.0954 4.65956 94.3374 4.32812C94.5826 3.99669 94.9157 3.73651 95.3366 3.54758C95.7609 3.35866 96.2415 3.2642 96.7784 3.2642C97.5341 3.2642 98.1274 3.42992 98.5582 3.76136C98.9924 4.0928 99.3007 4.5303 99.483 5.07386ZM106.201 7.87784V3.36364H107.374V11H106.201V9.70739H106.121C105.942 10.0952 105.664 10.425 105.286 10.6967C104.908 10.9652 104.431 11.0994 103.854 11.0994C103.377 11.0994 102.953 10.995 102.581 10.7862C102.21 10.5741 101.919 10.2559 101.706 9.83168C101.494 9.40412 101.388 8.86553 101.388 8.21591V3.36364H102.562V8.13636C102.562 8.69318 102.717 9.13731 103.029 9.46875C103.344 9.80019 103.745 9.96591 104.232 9.96591C104.524 9.96591 104.82 9.89134 105.122 9.74219C105.427 9.59304 105.682 9.36435 105.888 9.05611C106.096 8.74787 106.201 8.35511 106.201 7.87784ZM109.523 13.8636V3.36364H110.657V4.5767H110.796C110.882 4.44413 111.001 4.27509 111.154 4.0696C111.31 3.8608 111.532 3.67519 111.82 3.51278C112.112 3.34706 112.506 3.2642 113.003 3.2642C113.646 3.2642 114.213 3.42495 114.703 3.74645C115.194 4.06794 115.577 4.52367 115.852 5.11364C116.127 5.7036 116.265 6.39962 116.265 7.2017C116.265 8.01042 116.127 8.71141 115.852 9.30469C115.577 9.89465 115.196 10.352 114.708 10.6768C114.221 10.9983 113.659 11.1591 113.023 11.1591C112.533 11.1591 112.14 11.0779 111.845 10.9155C111.55 10.7498 111.323 10.5625 111.164 10.3537C111.005 10.1416 110.882 9.96591 110.796 9.8267H110.696V13.8636H109.523ZM110.676 7.18182C110.676 7.75852 110.761 8.26728 110.93 8.7081C111.099 9.1456 111.346 9.48864 111.671 9.73722C111.996 9.98248 112.393 10.1051 112.864 10.1051C113.355 10.1051 113.764 9.97585 114.092 9.71733C114.423 9.45549 114.672 9.10417 114.838 8.66335C115.007 8.21922 115.091 7.72538 115.091 7.18182C115.091 6.64489 115.008 6.16098 114.843 5.73011C114.68 5.29593 114.433 4.95289 114.102 4.70099C113.774 4.44579 113.361 4.31818 112.864 4.31818C112.387 4.31818 111.986 4.43916 111.661 4.68111C111.336 4.91974 111.091 5.2545 110.925 5.68537C110.759 6.11293 110.676 6.61174 110.676 7.18182ZM118.054 13.8636V3.36364H119.188V4.5767H119.327C119.413 4.44413 119.533 4.27509 119.685 4.0696C119.841 3.8608 120.063 3.67519 120.351 3.51278C120.643 3.34706 121.037 3.2642 121.534 3.2642C122.177 3.2642 122.744 3.42495 123.235 3.74645C123.725 4.06794 124.108 4.52367 124.383 5.11364C124.658 5.7036 124.796 6.39962 124.796 7.2017C124.796 8.01042 124.658 8.71141 124.383 9.30469C124.108 9.89465 123.727 10.352 123.24 10.6768C122.752 10.9983 122.191 11.1591 121.554 11.1591C121.064 11.1591 120.671 11.0779 120.376 10.9155C120.081 10.7498 119.854 10.5625 119.695 10.3537C119.536 10.1416 119.413 9.96591 119.327 9.8267H119.228V13.8636H118.054ZM119.208 7.18182C119.208 7.75852 119.292 8.26728 119.461 8.7081C119.63 9.1456 119.877 9.48864 120.202 9.73722C120.527 9.98248 120.925 10.1051 121.395 10.1051C121.886 10.1051 122.295 9.97585 122.623 9.71733C122.955 9.45549 123.203 9.10417 123.369 8.66335C123.538 8.21922 123.623 7.72538 123.623 7.18182C123.623 6.64489 123.54 6.16098 123.374 5.73011C123.212 5.29593 122.965 4.95289 122.633 4.70099C122.305 4.44579 121.892 4.31818 121.395 4.31818C120.918 4.31818 120.517 4.43916 120.192 4.68111C119.867 4.91974 119.622 5.2545 119.456 5.68537C119.291 6.11293 119.208 6.61174 119.208 7.18182ZM129.688 11.1591C128.998 11.1591 128.394 10.995 127.873 10.6669C127.356 10.3388 126.952 9.87973 126.66 9.28977C126.372 8.69981 126.228 8.01042 126.228 7.22159C126.228 6.42614 126.372 5.73177 126.66 5.13849C126.952 4.54522 127.356 4.08452 127.873 3.75639C128.394 3.42827 128.998 3.2642 129.688 3.2642C130.377 3.2642 130.98 3.42827 131.498 3.75639C132.018 4.08452 132.422 4.54522 132.711 5.13849C133.002 5.73177 133.148 6.42614 133.148 7.22159C133.148 8.01042 133.002 8.69981 132.711 9.28977C132.422 9.87973 132.018 10.3388 131.498 10.6669C130.98 10.995 130.377 11.1591 129.688 11.1591ZM129.688 10.1051C130.212 10.1051 130.642 9.97088 130.98 9.70241C131.319 9.43395 131.569 9.08097 131.731 8.64347C131.894 8.20597 131.975 7.73201 131.975 7.22159C131.975 6.71117 131.894 6.23556 131.731 5.79474C131.569 5.35393 131.319 4.99763 130.98 4.72585C130.642 4.45407 130.212 4.31818 129.688 4.31818C129.164 4.31818 128.733 4.45407 128.395 4.72585C128.057 4.99763 127.807 5.35393 127.645 5.79474C127.482 6.23556 127.401 6.71117 127.401 7.22159C127.401 7.73201 127.482 8.20597 127.645 8.64347C127.807 9.08097 128.057 9.43395 128.395 9.70241C128.733 9.97088 129.164 10.1051 129.688 10.1051ZM134.939 11V3.36364H136.073V4.51705H136.152C136.291 4.1392 136.543 3.83262 136.908 3.5973C137.272 3.36198 137.683 3.24432 138.141 3.24432C138.227 3.24432 138.335 3.24597 138.464 3.24929C138.593 3.2526 138.691 3.25758 138.757 3.2642V4.45739C138.718 4.44744 138.626 4.43253 138.484 4.41264C138.345 4.38944 138.197 4.37784 138.041 4.37784C137.67 4.37784 137.339 4.45573 137.047 4.61151C136.759 4.76397 136.53 4.97609 136.361 5.24787C136.195 5.51634 136.112 5.82292 136.112 6.16761V11H134.939ZM143.948 3.36364V4.35795H139.99V3.36364H143.948ZM141.144 1.53409H142.317V8.8125C142.317 9.14394 142.365 9.39252 142.461 9.55824C142.561 9.72064 142.686 9.83002 142.839 9.88636C142.995 9.93939 143.159 9.96591 143.331 9.96591C143.46 9.96591 143.566 9.95928 143.649 9.94602C143.732 9.92945 143.798 9.91619 143.848 9.90625L144.087 10.9602C144.007 10.9901 143.896 11.0199 143.754 11.0497C143.611 11.0829 143.431 11.0994 143.212 11.0994C142.88 11.0994 142.556 11.0282 142.237 10.8857C141.923 10.7431 141.661 10.526 141.452 10.2344C141.246 9.94271 141.144 9.57481 141.144 9.13068V1.53409ZM151.579 13.6847C150.565 13.6847 149.668 13.5455 148.889 13.267C148.11 12.992 147.456 12.5859 146.926 12.049C146.395 11.5121 145.994 10.8542 145.722 10.0753C145.451 9.2964 145.315 8.40483 145.315 7.40057C145.315 6.42945 145.452 5.56108 145.727 4.79545C146.006 4.02983 146.409 3.38021 146.936 2.84659C147.466 2.30966 148.109 1.90033 148.865 1.61861C149.624 1.33688 150.482 1.19602 151.44 1.19602C152.371 1.19602 153.186 1.34848 153.886 1.65341C154.588 1.95502 155.175 2.36435 155.646 2.88139C156.12 3.39512 156.474 3.97348 156.71 4.61648C156.948 5.25947 157.068 5.92235 157.068 6.60511C157.068 7.0857 157.044 7.57292 156.998 8.06676C156.952 8.56061 156.854 9.01468 156.705 9.42898C156.556 9.83996 156.325 10.1714 156.014 10.4233C155.705 10.6752 155.288 10.8011 154.761 10.8011C154.529 10.8011 154.274 10.7647 153.995 10.6918C153.717 10.6188 153.47 10.4979 153.254 10.3288C153.039 10.1598 152.911 9.93277 152.872 9.64773H152.812C152.732 9.83996 152.61 10.0223 152.444 10.1946C152.282 10.367 152.068 10.5045 151.803 10.6072C151.541 10.71 151.221 10.7547 150.843 10.7415C150.412 10.7249 150.033 10.6288 149.705 10.4531C149.377 10.2741 149.102 10.0322 148.879 9.72727C148.661 9.41903 148.495 9.06274 148.382 8.65838C148.273 8.25071 148.218 7.81155 148.218 7.34091C148.218 6.89347 148.285 6.48414 148.417 6.11293C148.55 5.74171 148.734 5.4169 148.969 5.13849C149.208 4.86009 149.486 4.63802 149.804 4.4723C150.126 4.30327 150.472 4.19886 150.843 4.15909C151.175 4.12595 151.476 4.14086 151.748 4.20384C152.02 4.26349 152.244 4.35464 152.419 4.47727C152.595 4.59659 152.706 4.72917 152.752 4.875H152.812V4.31818H153.866V8.8125C153.866 9.09091 153.944 9.33617 154.1 9.5483C154.255 9.76042 154.482 9.86648 154.781 9.86648C155.119 9.86648 155.377 9.75047 155.556 9.51847C155.739 9.28646 155.863 8.9285 155.929 8.4446C155.999 7.9607 156.034 7.34091 156.034 6.58523C156.034 6.1411 155.972 5.7036 155.85 5.27273C155.73 4.83854 155.548 4.43253 155.303 4.05469C155.061 3.67685 154.754 3.34375 154.383 3.0554C154.012 2.76705 153.576 2.54167 153.075 2.37926C152.578 2.21354 152.013 2.13068 151.38 2.13068C150.601 2.13068 149.904 2.25166 149.287 2.49361C148.674 2.73224 148.152 3.08191 147.721 3.54261C147.294 4 146.967 4.55682 146.742 5.21307C146.52 5.866 146.409 6.60843 146.409 7.44034C146.409 8.28551 146.52 9.03622 146.742 9.69247C146.967 10.3487 147.298 10.9022 147.736 11.353C148.177 11.8037 148.722 12.1451 149.372 12.3771C150.021 12.6125 150.77 12.7301 151.619 12.7301C151.983 12.7301 152.343 12.6953 152.698 12.6257C153.052 12.5561 153.365 12.4799 153.637 12.397C153.909 12.3142 154.105 12.2528 154.224 12.2131L154.502 13.1278C154.297 13.214 154.028 13.3002 153.697 13.3864C153.369 13.4725 153.017 13.5438 152.643 13.6001C152.272 13.6565 151.917 13.6847 151.579 13.6847ZM151.002 9.72727C151.446 9.72727 151.806 9.63778 152.081 9.45881C152.356 9.27983 152.557 9.00971 152.683 8.64844C152.809 8.28717 152.872 7.83144 152.872 7.28125C152.872 6.72443 152.802 6.29025 152.663 5.97869C152.524 5.66714 152.318 5.44839 152.046 5.32244C151.775 5.1965 151.44 5.13352 151.042 5.13352C150.664 5.13352 150.341 5.23295 150.073 5.43182C149.807 5.62737 149.604 5.8892 149.461 6.21733C149.322 6.54214 149.252 6.89678 149.252 7.28125C149.252 7.70549 149.309 8.10488 149.421 8.4794C149.534 8.85062 149.718 9.15223 149.973 9.38423C150.228 9.61293 150.571 9.72727 151.002 9.72727ZM161.906 14.0227C161.339 14.0227 160.852 13.9498 160.445 13.804C160.037 13.6615 159.697 13.4725 159.425 13.2372C159.157 13.0052 158.943 12.7566 158.784 12.4915L159.719 11.8352C159.825 11.9744 159.959 12.1335 160.121 12.3125C160.284 12.4948 160.506 12.6522 160.788 12.7848C161.073 12.9207 161.446 12.9886 161.906 12.9886C162.523 12.9886 163.031 12.8395 163.433 12.5412C163.834 12.2429 164.034 11.7756 164.034 11.1392V9.58807H163.935C163.848 9.72727 163.726 9.89962 163.567 10.1051C163.411 10.3073 163.186 10.4879 162.891 10.647C162.599 10.8028 162.205 10.8807 161.707 10.8807C161.091 10.8807 160.537 10.7348 160.047 10.4432C159.56 10.1515 159.174 9.72727 158.888 9.17045C158.607 8.61364 158.466 7.9375 158.466 7.14205C158.466 6.35985 158.603 5.67874 158.879 5.09872C159.154 4.51539 159.536 4.06463 160.027 3.74645C160.518 3.42495 161.084 3.2642 161.727 3.2642C162.224 3.2642 162.619 3.34706 162.911 3.51278C163.205 3.67519 163.431 3.8608 163.587 4.0696C163.746 4.27509 163.868 4.44413 163.955 4.5767H164.074V3.36364H165.207V11.2188C165.207 11.875 165.058 12.4086 164.76 12.8196C164.465 13.2339 164.067 13.5372 163.567 13.7294C163.07 13.925 162.516 14.0227 161.906 14.0227ZM161.866 9.8267C162.337 9.8267 162.735 9.71899 163.06 9.50355C163.384 9.28812 163.631 8.97822 163.8 8.57386C163.969 8.16951 164.054 7.68561 164.054 7.12216C164.054 6.57197 163.971 6.08641 163.805 5.66548C163.64 5.24455 163.394 4.91477 163.07 4.67614C162.745 4.4375 162.344 4.31818 161.866 4.31818C161.369 4.31818 160.955 4.44413 160.624 4.69602C160.295 4.94792 160.049 5.28598 159.883 5.71023C159.72 6.13447 159.639 6.60511 159.639 7.12216C159.639 7.65246 159.722 8.12145 159.888 8.52912C160.057 8.93348 160.305 9.25166 160.634 9.48366C160.965 9.71236 161.376 9.8267 161.866 9.8267ZM167.355 11V3.36364H168.489V4.55682H168.588C168.747 4.14915 169.004 3.83262 169.359 3.60724C169.713 3.37855 170.139 3.2642 170.636 3.2642C171.14 3.2642 171.559 3.37855 171.894 3.60724C172.232 3.83262 172.496 4.14915 172.685 4.55682H172.764C172.96 4.16241 173.253 3.84919 173.644 3.61719C174.035 3.38187 174.504 3.2642 175.051 3.2642C175.734 3.2642 176.292 3.47798 176.727 3.90554C177.161 4.32978 177.378 4.991 177.378 5.8892V11H176.205V5.8892C176.205 5.32576 176.05 4.92306 175.742 4.68111C175.434 4.43916 175.071 4.31818 174.653 4.31818C174.116 4.31818 173.701 4.48059 173.406 4.8054C173.111 5.12689 172.963 5.53456 172.963 6.02841V11H171.77V5.76989C171.77 5.3357 171.629 4.98603 171.347 4.72088C171.066 4.45241 170.703 4.31818 170.259 4.31818C169.954 4.31818 169.669 4.39938 169.403 4.56179C169.142 4.72419 168.929 4.94957 168.767 5.23793C168.608 5.52296 168.528 5.85275 168.528 6.22727V11H167.355ZM181.77 11.179C181.286 11.179 180.847 11.0878 180.453 10.9055C180.058 10.7199 179.745 10.4531 179.513 10.1051C179.281 9.75379 179.165 9.32955 179.165 8.83239C179.165 8.39489 179.251 8.04025 179.424 7.76847C179.596 7.49337 179.826 7.27794 180.115 7.12216C180.403 6.96638 180.721 6.85038 181.069 6.77415C181.421 6.6946 181.774 6.63163 182.128 6.58523C182.592 6.52557 182.968 6.48082 183.257 6.45099C183.548 6.41785 183.761 6.36316 183.893 6.28693C184.029 6.2107 184.097 6.07812 184.097 5.8892V5.84943C184.097 5.3589 183.963 4.97775 183.694 4.70597C183.429 4.43419 183.026 4.2983 182.486 4.2983C181.926 4.2983 181.487 4.42093 181.169 4.66619C180.85 4.91146 180.627 5.1733 180.498 5.4517L179.384 5.05398C179.583 4.58996 179.848 4.22869 180.179 3.97017C180.514 3.70833 180.879 3.52604 181.273 3.4233C181.671 3.31723 182.062 3.2642 182.446 3.2642C182.692 3.2642 182.973 3.29403 183.292 3.35369C183.613 3.41004 183.923 3.5277 184.221 3.70668C184.523 3.88565 184.773 4.15578 184.972 4.51705C185.171 4.87831 185.27 5.36222 185.27 5.96875V11H184.097V9.96591H184.037C183.958 10.1316 183.825 10.3089 183.64 10.4979C183.454 10.6868 183.207 10.8475 182.899 10.9801C182.591 11.1127 182.214 11.179 181.77 11.179ZM181.949 10.125C182.413 10.125 182.804 10.0339 183.123 9.85156C183.444 9.66927 183.686 9.43395 183.848 9.1456C184.014 8.85724 184.097 8.55398 184.097 8.2358V7.16193C184.047 7.22159 183.938 7.27628 183.769 7.32599C183.603 7.3724 183.411 7.41383 183.192 7.45028C182.977 7.48343 182.766 7.51326 182.561 7.53977C182.359 7.56297 182.194 7.58286 182.069 7.59943C181.764 7.6392 181.479 7.70384 181.213 7.79332C180.952 7.8795 180.739 8.01042 180.577 8.18608C180.418 8.35843 180.338 8.59375 180.338 8.89205C180.338 9.29972 180.489 9.60795 180.791 9.81676C181.096 10.0223 181.482 10.125 181.949 10.125ZM187.412 11V3.36364H188.585V11H187.412ZM188.008 2.09091C187.78 2.09091 187.582 2.01302 187.417 1.85724C187.254 1.70147 187.173 1.5142 187.173 1.29545C187.173 1.0767 187.254 0.889441 187.417 0.733664C187.582 0.577888 187.78 0.5 188.008 0.5C188.237 0.5 188.433 0.577888 188.595 0.733664C188.761 0.889441 188.844 1.0767 188.844 1.29545C188.844 1.5142 188.761 1.70147 188.595 1.85724C188.433 2.01302 188.237 2.09091 188.008 2.09091ZM191.907 0.818182V11H190.734V0.818182H191.907ZM194.911 11.0795C194.666 11.0795 194.456 10.9917 194.28 10.8161C194.104 10.6404 194.017 10.4299 194.017 10.1847C194.017 9.93939 194.104 9.72893 194.28 9.55327C194.456 9.3776 194.666 9.28977 194.911 9.28977C195.157 9.28977 195.367 9.3776 195.543 9.55327C195.718 9.72893 195.806 9.93939 195.806 10.1847C195.806 10.3471 195.765 10.4962 195.682 10.6321C195.602 10.768 195.495 10.8774 195.359 10.9602C195.226 11.0398 195.077 11.0795 194.911 11.0795ZM201.014 11.1591C200.298 11.1591 199.682 10.9901 199.165 10.652C198.648 10.3139 198.25 9.84825 197.971 9.25497C197.693 8.66169 197.554 7.9839 197.554 7.22159C197.554 6.44602 197.696 5.7616 197.981 5.16832C198.27 4.57173 198.671 4.10606 199.184 3.77131C199.702 3.43324 200.305 3.2642 200.994 3.2642C201.531 3.2642 202.015 3.36364 202.446 3.5625C202.877 3.76136 203.23 4.03977 203.505 4.39773C203.78 4.75568 203.951 5.1733 204.017 5.65057H202.844C202.754 5.30256 202.555 4.99432 202.247 4.72585C201.942 4.45407 201.531 4.31818 201.014 4.31818C200.557 4.31818 200.156 4.4375 199.811 4.67614C199.47 4.91146 199.203 5.24455 199.01 5.67543C198.822 6.10298 198.727 6.60511 198.727 7.18182C198.727 7.77178 198.82 8.28551 199.006 8.72301C199.194 9.16051 199.46 9.50024 199.801 9.74219C200.146 9.98414 200.55 10.1051 201.014 10.1051C201.319 10.1051 201.596 10.0521 201.844 9.94602C202.093 9.83996 202.303 9.6875 202.476 9.48864C202.648 9.28977 202.771 9.05114 202.844 8.77273H204.017C203.951 9.22348 203.787 9.6295 203.525 9.99077C203.266 10.3487 202.923 10.6338 202.496 10.8459C202.071 11.0547 201.577 11.1591 201.014 11.1591ZM208.834 11.1591C208.145 11.1591 207.54 10.995 207.02 10.6669C206.503 10.3388 206.098 9.87973 205.807 9.28977C205.518 8.69981 205.374 8.01042 205.374 7.22159C205.374 6.42614 205.518 5.73177 205.807 5.13849C206.098 4.54522 206.503 4.08452 207.02 3.75639C207.54 3.42827 208.145 3.2642 208.834 3.2642C209.524 3.2642 210.127 3.42827 210.644 3.75639C211.164 4.08452 211.569 4.54522 211.857 5.13849C212.149 5.73177 212.295 6.42614 212.295 7.22159C212.295 8.01042 212.149 8.69981 211.857 9.28977C211.569 9.87973 211.164 10.3388 210.644 10.6669C210.127 10.995 209.524 11.1591 208.834 11.1591ZM208.834 10.1051C209.358 10.1051 209.789 9.97088 210.127 9.70241C210.465 9.43395 210.715 9.08097 210.878 8.64347C211.04 8.20597 211.121 7.73201 211.121 7.22159C211.121 6.71117 211.04 6.23556 210.878 5.79474C210.715 5.35393 210.465 4.99763 210.127 4.72585C209.789 4.45407 209.358 4.31818 208.834 4.31818C208.311 4.31818 207.88 4.45407 207.542 4.72585C207.204 4.99763 206.953 5.35393 206.791 5.79474C206.629 6.23556 206.547 6.71117 206.547 7.22159C206.547 7.73201 206.629 8.20597 206.791 8.64347C206.953 9.08097 207.204 9.43395 207.542 9.70241C207.88 9.97088 208.311 10.1051 208.834 10.1051ZM214.086 11V3.36364H215.219V4.55682H215.319C215.478 4.14915 215.734 3.83262 216.089 3.60724C216.444 3.37855 216.87 3.2642 217.367 3.2642C217.871 3.2642 218.29 3.37855 218.625 3.60724C218.963 3.83262 219.226 4.14915 219.415 4.55682H219.495C219.69 4.16241 219.984 3.84919 220.375 3.61719C220.766 3.38187 221.235 3.2642 221.782 3.2642C222.464 3.2642 223.023 3.47798 223.457 3.90554C223.891 4.32978 224.108 4.991 224.108 5.8892V11H222.935V5.8892C222.935 5.32576 222.781 4.92306 222.473 4.68111C222.164 4.43916 221.801 4.31818 221.384 4.31818C220.847 4.31818 220.431 4.48059 220.136 4.8054C219.841 5.12689 219.694 5.53456 219.694 6.02841V11H218.5V5.76989C218.5 5.3357 218.359 4.98603 218.078 4.72088C217.796 4.45241 217.433 4.31818 216.989 4.31818C216.684 4.31818 216.399 4.39938 216.134 4.56179C215.872 4.72419 215.66 4.94957 215.498 5.23793C215.338 5.52296 215.259 5.85275 215.259 6.22727V11H214.086Z" fill="#0F67F5"/>
</svg>
