<svg width="672" height="168" fill="none" xmlns="http://www.w3.org/2000/svg"><path fill="#F6F6F6" d="M0 0h672v168H0z"/><path d="M273.15 54.23v7.27h-.85l-3.97-5.71h-.07v5.71h-.88v-7.27h.85l3.98 5.72h.07v-5.72h.87ZM277 61.6c-.49 0-.92-.11-1.3-.35a2.39 2.39 0 0 1-.86-.98c-.2-.42-.3-.92-.3-1.48 0-.57.1-1.06.3-1.49a2.33 2.33 0 0 1 2.17-1.34 2.35 2.35 0 0 1 2.16 1.34c.2.43.3.92.3 1.5 0 .55-.1 1.05-.3 1.47a2.36 2.36 0 0 1-2.16 1.34Zm0-.75c.38 0 .68-.1.93-.29.24-.19.42-.44.53-.75a2.93 2.93 0 0 0 0-2.03c-.11-.32-.3-.58-.53-.77-.25-.2-.55-.3-.93-.3-.37 0-.68.1-.92.3-.24.2-.42.45-.54.76a3.12 3.12 0 0 0 0 2.04c.12.3.3.56.54.75.24.2.55.3.92.3Zm6.13-4.81v.7h-2.83v-.7h2.82Zm-2-1.31h.83v5.2c0 .23.03.41.1.53.07.12.16.2.27.23.12.04.23.06.36.06l.22-.01.14-.03.18.75a1.7 1.7 0 0 1-.63.1 1.47 1.47 0 0 1-1.26-.62c-.14-.2-.22-.47-.22-.79v-5.42Zm9.93 2.53-.75.21a1.4 1.4 0 0 0-.21-.37 1.01 1.01 0 0 0-.37-.3 1.34 1.34 0 0 0-.6-.11c-.33 0-.61.08-.83.23-.22.15-.33.34-.33.58 0 .2.07.37.22.5.15.11.4.21.71.3l.81.2c.49.11.85.3 1.1.54.23.24.35.55.35.93 0 .31-.09.6-.27.84a1.8 1.8 0 0 1-.74.58c-.32.14-.7.21-1.12.21-.56 0-1.02-.12-1.38-.36a1.6 1.6 0 0 1-.7-1.06l.8-.2c.08.3.22.52.43.66.21.15.5.23.84.23.39 0 .7-.09.93-.25.23-.17.35-.37.35-.6a.63.63 0 0 0-.2-.48 1.27 1.27 0 0 0-.62-.3l-.9-.2c-.5-.13-.87-.3-1.1-.56a1.33 1.33 0 0 1-.35-.94c0-.3.08-.58.26-.82.17-.23.41-.42.71-.55.3-.14.65-.2 1.03-.2.54 0 .96.11 1.27.35.31.24.53.55.66.94Zm3.65 4.34c-.53 0-.98-.11-1.36-.34a2.33 2.33 0 0 1-.88-.98c-.2-.43-.3-.92-.3-1.47 0-.56.1-1.06.3-1.48a2.3 2.3 0 0 1 2.15-1.36c.29 0 .57.04.85.14a2.09 2.09 0 0 1 1.3 1.3c.13.34.2.77.2 1.28v.36h-4.2v-.73h3.35c0-.3-.06-.58-.19-.82a1.4 1.4 0 0 0-1.3-.78c-.34 0-.63.08-.87.25-.24.16-.43.37-.56.64-.13.26-.2.54-.2.84v.48c0 .42.08.76.22 1.05.14.28.34.5.6.65.25.15.55.22.89.22.22 0 .42-.03.6-.1a1.19 1.19 0 0 0 .76-.75l.81.23a1.8 1.8 0 0 1-.43.72c-.2.2-.45.37-.74.48-.3.12-.63.17-1 .17Zm4.37-7.38v7.27h-.84v-7.27h.84Zm3.82 7.38a2.6 2.6 0 0 1-1.36-.34 2.33 2.33 0 0 1-.87-.98c-.2-.43-.3-.92-.3-1.47 0-.56.1-1.06.3-1.48a2.3 2.3 0 0 1 2.15-1.36c.28 0 .56.04.84.14a2.08 2.08 0 0 1 1.3 1.3c.13.34.2.77.2 1.28v.36h-4.2v-.73h3.35c0-.3-.06-.58-.19-.82a1.4 1.4 0 0 0-1.3-.78c-.34 0-.63.08-.87.25-.24.16-.43.37-.56.64-.13.26-.2.54-.2.84v.48c0 .42.08.76.22 1.05.15.28.35.5.6.65.26.15.56.22.9.22.21 0 .41-.03.59-.1a1.18 1.18 0 0 0 .77-.75l.8.23a1.8 1.8 0 0 1-.42.72c-.2.2-.45.37-.75.48-.3.12-.63.17-1 .17Zm5.75 0c-.5 0-.95-.12-1.32-.36a2.36 2.36 0 0 1-.85-1c-.2-.42-.3-.9-.3-1.45 0-.55.1-1.04.3-1.47a2.3 2.3 0 0 1 2.15-1.36c.4 0 .74.08 1.05.22a1.92 1.92 0 0 1 1.12 1.49h-.84a1.3 1.3 0 0 0-1.3-.95c-.33 0-.62.08-.87.25-.24.17-.43.4-.57.72-.13.3-.2.66-.2 1.07 0 .42.07.8.2 1.1.13.32.32.56.57.73.24.17.53.26.86.26.22 0 .42-.04.6-.11a1.23 1.23 0 0 0 .7-.84h.85a1.95 1.95 0 0 1-1.09 1.48c-.3.15-.66.22-1.06.22Zm5.74-5.56v.7h-2.82v-.7h2.82Zm-2-1.31h.84v5.2c0 .23.03.41.1.53.07.12.16.2.27.23.11.04.23.06.35.06a1.5 1.5 0 0 0 .37-.04l.17.75a1.7 1.7 0 0 1-.62.1 1.7 1.7 0 0 1-.7-.15c-.22-.1-.4-.26-.56-.47-.14-.2-.22-.47-.22-.79v-5.42Zm5.5 6.87c-.53 0-.98-.11-1.37-.34a2.33 2.33 0 0 1-.87-.98c-.2-.43-.3-.92-.3-1.47 0-.56.1-1.06.3-1.48a2.3 2.3 0 0 1 2.15-1.36c.28 0 .56.04.84.14a2.1 2.1 0 0 1 1.3 1.3c.13.34.2.77.2 1.28v.36h-4.2v-.73h3.35c0-.3-.06-.58-.19-.82a1.38 1.38 0 0 0-1.3-.78c-.33 0-.62.08-.87.25-.24.16-.43.37-.56.64-.13.26-.2.54-.2.84v.48c0 .42.08.76.22 1.05.15.28.35.5.6.65.26.15.56.22.9.22.21 0 .41-.03.59-.1a1.19 1.19 0 0 0 .77-.75l.8.23c-.08.27-.22.51-.42.72-.2.2-.45.37-.75.48-.3.12-.63.17-1 .17Zm5.59 0a2.14 2.14 0 0 1-2.02-1.32 3.5 3.5 0 0 1-.3-1.5c0-.58.1-1.07.3-1.5a2.16 2.16 0 0 1 2.03-1.32c.36 0 .64.06.84.18.21.12.37.25.48.4l.26.36h.07v-2.68h.84v7.27h-.81v-.84h-.1l-.26.38a1.63 1.63 0 0 1-1.33.57Zm.11-.75c.34 0 .62-.09.85-.26.24-.18.41-.42.53-.74.12-.31.18-.68.18-1.09 0-.4-.06-.76-.18-1.07a1.4 1.4 0 0 0-1.38-.98c-.35 0-.65.1-.89.28-.23.18-.4.43-.53.74a3 3 0 0 0-.17 1.03c0 .4.06.74.18 1.06.12.32.3.57.53.75.24.19.53.28.88.28Z" fill="#E8178A"/><path d="M335.5 58h30" stroke="#E8178A"/><circle cx="364.5" cy="58" r="1" fill="#E8178A"/><rect x="365.5" y="48" width="40" height="20" rx="10" fill="#B5B5B5"/><circle cx="375.5" cy="58" r="8" fill="#fff"/><path d="M290.36 92.05a1.11 1.11 0 0 0-.52-.84c-.3-.2-.67-.3-1.12-.3a2 2 0 0 0-.84.16c-.24.1-.43.24-.56.43a1.03 1.03 0 0 0-.06 1.12c.1.13.21.25.36.34.15.1.3.17.46.23.16.05.31.1.45.13l.73.2c.2.05.4.12.64.2.23.1.45.22.67.37a1.66 1.66 0 0 1 .74 1.44c0 .39-.1.74-.3 1.06-.21.32-.51.57-.9.76-.4.18-.87.28-1.43.28-.52 0-.97-.09-1.35-.25a2.2 2.2 0 0 1-.9-.7 2.1 2.1 0 0 1-.36-1.06h.9c.03.28.12.5.28.69.17.17.37.3.62.4a2.64 2.64 0 0 0 1.71-.04c.28-.11.49-.27.64-.46.16-.2.24-.43.24-.7a.85.85 0 0 0-.2-.59 1.49 1.49 0 0 0-.54-.37 5.6 5.6 0 0 0-.71-.25l-.9-.25a3.33 3.33 0 0 1-1.35-.7c-.33-.3-.5-.7-.5-1.2 0-.4.12-.75.34-1.06.22-.3.52-.54.9-.7.37-.18.79-.26 1.25-.26.47 0 .89.08 1.25.25.37.17.66.4.87.68.21.3.33.62.34.99h-.85Zm4.57 5.56c-.53 0-.98-.11-1.36-.34a2.33 2.33 0 0 1-.88-.98c-.2-.43-.3-.92-.3-1.47 0-.56.1-1.06.3-1.48a2.3 2.3 0 0 1 2.15-1.36c.29 0 .57.04.85.14a2.1 2.1 0 0 1 1.3 1.3c.13.34.2.77.2 1.28v.36h-4.2v-.73h3.35c0-.3-.06-.58-.19-.82a1.4 1.4 0 0 0-1.3-.78c-.34 0-.63.08-.87.25-.24.16-.43.37-.56.64-.13.26-.2.54-.2.84v.48c0 .42.08.76.22 1.05.14.28.34.5.6.65.25.15.55.22.9.22.21 0 .41-.03.59-.1a1.19 1.19 0 0 0 .76-.75l.81.23a1.8 1.8 0 0 1-.43.72c-.2.2-.44.37-.74.48-.3.12-.63.17-1 .17Zm4.37-7.38v7.27h-.84v-7.27h.84Zm3.82 7.38a2.6 2.6 0 0 1-1.36-.34 2.33 2.33 0 0 1-.87-.98c-.2-.43-.3-.92-.3-1.47 0-.56.1-1.06.3-1.48a2.31 2.31 0 0 1 2.15-1.36c.28 0 .56.04.84.14a2.08 2.08 0 0 1 1.3 1.3c.13.34.2.77.2 1.28v.36h-4.2v-.73h3.35c0-.3-.06-.58-.18-.82a1.4 1.4 0 0 0-1.31-.78c-.34 0-.62.08-.87.25-.24.16-.43.37-.56.64-.13.26-.19.54-.19.84v.48c0 .42.07.76.21 1.05.15.28.35.5.6.65.26.15.56.22.9.22.21 0 .41-.03.6-.1a1.21 1.21 0 0 0 .76-.75l.8.23a1.8 1.8 0 0 1-.42.72c-.2.2-.45.37-.75.48-.3.12-.63.17-1 .17Zm5.75 0c-.5 0-.95-.12-1.32-.36a2.36 2.36 0 0 1-.85-1c-.2-.42-.3-.9-.3-1.45 0-.55.1-1.04.3-1.47a2.3 2.3 0 0 1 2.15-1.36c.4 0 .74.08 1.05.22a1.92 1.92 0 0 1 1.12 1.49h-.84a1.27 1.27 0 0 0-1.3-.95c-.33 0-.62.08-.87.25-.24.17-.43.4-.57.72-.13.3-.2.66-.2 1.07 0 .42.07.8.2 1.1.13.32.32.56.57.73.24.17.53.26.86.26.22 0 .42-.04.6-.11a1.23 1.23 0 0 0 .71-.84h.84a1.94 1.94 0 0 1-1.09 1.48c-.3.15-.65.22-1.06.22Zm5.75-5.56v.7h-2.83v-.7h2.83Zm-2-1.31h.83v5.2c0 .23.04.41.1.53.07.12.16.2.27.23.12.04.23.06.36.06a1.5 1.5 0 0 0 .37-.04l.16.75a1.7 1.7 0 0 1-.62.1 1.47 1.47 0 0 1-1.26-.62c-.14-.2-.22-.47-.22-.79v-5.42Zm5.49 6.87c-.53 0-.98-.11-1.37-.34a2.33 2.33 0 0 1-.87-.98c-.2-.43-.3-.92-.3-1.47 0-.56.1-1.06.3-1.48a2.3 2.3 0 0 1 2.15-1.36c.28 0 .56.04.84.14a2.1 2.1 0 0 1 1.3 1.3c.14.34.2.77.2 1.28v.36h-4.2v-.73h3.35c0-.3-.06-.58-.18-.82a1.38 1.38 0 0 0-1.31-.78 1.5 1.5 0 0 0-1.42.89c-.14.26-.2.54-.2.84v.48c0 .42.07.76.21 1.05.15.28.35.5.6.65.26.15.56.22.9.22.21 0 .41-.03.6-.1a1.21 1.21 0 0 0 .76-.75l.8.23c-.08.27-.22.51-.42.72-.2.2-.45.37-.75.48-.3.12-.63.17-1 .17Zm5.59 0a2.14 2.14 0 0 1-2.02-1.32 3.5 3.5 0 0 1-.3-1.5c0-.58.1-1.07.3-1.5a2.16 2.16 0 0 1 2.03-1.32c.36 0 .64.06.84.18.21.12.37.25.48.4l.26.36h.07v-2.68h.84v7.27h-.81v-.84h-.1l-.26.38a1.63 1.63 0 0 1-1.33.57Zm.11-.75c.34 0 .62-.09.85-.26.24-.18.41-.42.53-.74.12-.31.18-.68.18-1.09 0-.4-.06-.76-.17-1.07a1.6 1.6 0 0 0-.53-.71 1.4 1.4 0 0 0-.86-.26c-.35 0-.65.09-.89.27-.23.18-.4.43-.53.74a3 3 0 0 0-.17 1.03c0 .4.06.74.18 1.06.12.32.3.57.53.75.24.19.53.28.88.28Z" fill="#E8178A"/><path d="M335.5 94h30" stroke="#E8178A"/><circle cx="364.5" cy="94" r="1" fill="#E8178A"/><rect x="365.5" y="84" width="40" height="20" rx="10" fill="#0F67F5"/><circle cx="395.5" cy="94" r="8" fill="#fff"/><path d="M395.5 112V96" stroke="#E8178A"/><circle cx="395.5" cy="96" r="1" transform="rotate(-90 395.5 96)" fill="#E8178A"/><path d="M379.38 127v-7.27h.88v3.24h3.88v-3.24h.88V127h-.88v-3.25h-3.88V127h-.88Zm8.9.13c-.35 0-.66-.07-.95-.2-.28-.13-.5-.32-.67-.57a1.62 1.62 0 0 1-.25-.9c0-.32.06-.57.19-.77.12-.2.29-.35.5-.46.2-.11.42-.2.67-.25a31.19 31.19 0 0 1 1.56-.23c.22-.02.37-.06.46-.12.1-.05.15-.15.15-.28v-.03c0-.35-.1-.62-.3-.82-.18-.19-.47-.29-.85-.29a1.52 1.52 0 0 0-1.43.83l-.79-.29c.14-.33.33-.59.57-.77.24-.19.5-.32.78-.4a3.24 3.24 0 0 1 1.44-.04c.23.04.45.12.66.25.22.13.4.32.54.58.14.26.21.6.21 1.04V127h-.83v-.74h-.05c-.05.12-.15.25-.28.38-.13.14-.3.25-.53.35-.22.09-.49.14-.8.14Zm.12-.75c.33 0 .61-.07.84-.2a1.34 1.34 0 0 0 .7-1.15v-.77a.65.65 0 0 1-.24.12 3.99 3.99 0 0 1-.86.15l-.35.04c-.22.03-.42.08-.61.14-.19.06-.34.16-.46.28a.72.72 0 0 0-.17.5c0 .3.1.52.32.67.22.14.5.22.83.22Zm4.74-2.66V127h-.84v-5.45h.81v.85h.07c.13-.28.33-.5.59-.67.26-.17.6-.26 1-.26.38 0 .7.08.98.23.27.15.49.38.64.68.16.3.23.69.23 1.15V127h-.84v-3.4c0-.44-.1-.77-.33-1.01a1.18 1.18 0 0 0-.92-.36 1.33 1.33 0 0 0-1.21.67c-.12.23-.18.5-.18.82Zm7.07 3.4a2.13 2.13 0 0 1-2.02-1.33c-.2-.43-.3-.93-.3-1.5 0-.58.1-1.07.3-1.5a2.16 2.16 0 0 1 2.04-1.32c.35 0 .63.06.84.18.2.12.37.25.48.4.1.15.2.27.25.36h.07v-2.68h.84V127h-.8v-.84h-.1l-.27.38c-.11.15-.27.28-.49.4-.2.12-.49.17-.84.17Zm.12-.76c.33 0 .62-.09.85-.26.23-.18.4-.42.53-.74a3 3 0 0 0 .18-1.09c0-.4-.06-.76-.18-1.07-.12-.3-.3-.54-.52-.71a1.4 1.4 0 0 0-.86-.26c-.36 0-.65.09-.9.27-.23.18-.4.43-.52.74-.12.3-.17.65-.17 1.03a3 3 0 0 0 .17 1.06c.12.32.3.57.54.75.23.19.53.28.88.28Zm4.87-6.63V127h-.83v-7.27h.83Zm3.82 7.38c-.52 0-.97-.11-1.35-.34a2.34 2.34 0 0 1-.88-.98c-.2-.43-.3-.92-.3-1.48 0-.55.1-1.05.3-1.47a2.3 2.3 0 0 1 2.15-1.36c.28 0 .56.04.84.14a2.09 2.09 0 0 1 1.3 1.3c.14.34.2.77.2 1.28v.36h-4.2v-.73h3.35c0-.3-.06-.58-.18-.82s-.3-.43-.52-.57a1.45 1.45 0 0 0-.8-.21c-.32 0-.61.08-.86.25a1.7 1.7 0 0 0-.75 1.48v.48c0 .42.07.76.21 1.05a1.55 1.55 0 0 0 1.5.87c.22 0 .41-.03.6-.1a1.25 1.25 0 0 0 .76-.75l.8.23c-.08.27-.22.51-.42.72-.2.2-.45.37-.75.48-.3.12-.63.17-1 .17Z" fill="#E8178A"/></svg>