<svg width="264" height="136" viewBox="0 0 264 136" fill="none" xmlns="http://www.w3.org/2000/svg">
<rect width="264" height="44" fill="white"/>
<line y1="43.5" x2="264" y2="43.5" stroke="#EBEBEB"/>
<path d="M16.3523 16.3636H18.733L21.5795 21.5114H21.6932L24.5398 16.3636H26.9205L22.6875 23.6591V28H20.5852V23.6591L16.3523 16.3636ZM30.5043 28.1705C29.652 28.1705 28.9134 27.983 28.2884 27.608C27.6634 27.233 27.1785 26.7083 26.8338 26.0341C26.4929 25.3598 26.3224 24.572 26.3224 23.6705C26.3224 22.7689 26.4929 21.9792 26.8338 21.3011C27.1785 20.6231 27.6634 20.0966 28.2884 19.7216C28.9134 19.3466 29.652 19.1591 30.5043 19.1591C31.3565 19.1591 32.0952 19.3466 32.7202 19.7216C33.3452 20.0966 33.8281 20.6231 34.169 21.3011C34.5137 21.9792 34.6861 22.7689 34.6861 23.6705C34.6861 24.572 34.5137 25.3598 34.169 26.0341C33.8281 26.7083 33.3452 27.233 32.7202 27.608C32.0952 27.983 31.3565 28.1705 30.5043 28.1705ZM30.5156 26.5227C30.9777 26.5227 31.3641 26.3958 31.6747 26.142C31.9853 25.8845 32.2164 25.5398 32.3679 25.108C32.5232 24.6761 32.6009 24.1951 32.6009 23.6648C32.6009 23.1307 32.5232 22.6477 32.3679 22.2159C32.2164 21.7803 31.9853 21.4337 31.6747 21.1761C31.3641 20.9186 30.9777 20.7898 30.5156 20.7898C30.0421 20.7898 29.6482 20.9186 29.3338 21.1761C29.0232 21.4337 28.7902 21.7803 28.6349 22.2159C28.4834 22.6477 28.4077 23.1307 28.4077 23.6648C28.4077 24.1951 28.4834 24.6761 28.6349 25.108C28.7902 25.5398 29.0232 25.8845 29.3338 26.142C29.6482 26.3958 30.0421 26.5227 30.5156 26.5227ZM41.9943 24.3295V19.2727H44.0511V28H42.0568V26.4489H41.9659C41.7689 26.9375 41.4451 27.3371 40.9943 27.6477C40.5473 27.9583 39.9962 28.1136 39.3409 28.1136C38.7689 28.1136 38.2633 27.9867 37.8239 27.733C37.3883 27.4754 37.0473 27.1023 36.8011 26.6136C36.5549 26.1212 36.4318 25.5265 36.4318 24.8295V19.2727H38.4886V24.5114C38.4886 25.0644 38.6402 25.5038 38.9432 25.8295C39.2462 26.1553 39.6439 26.3182 40.1364 26.3182C40.4394 26.3182 40.733 26.2443 41.017 26.0966C41.3011 25.9489 41.5341 25.7292 41.7159 25.4375C41.9015 25.142 41.9943 24.7727 41.9943 24.3295ZM46.1662 28V19.2727H48.1605V20.7273H48.2514C48.4105 20.2235 48.6832 19.8352 49.0696 19.5625C49.4598 19.286 49.9048 19.1477 50.4048 19.1477C50.5185 19.1477 50.6454 19.1534 50.7855 19.1648C50.9295 19.1723 51.0488 19.1856 51.1435 19.2045V21.0966C51.0563 21.0663 50.9181 21.0398 50.7287 21.017C50.5431 20.9905 50.3632 20.9773 50.1889 20.9773C49.8139 20.9773 49.4768 21.0587 49.1776 21.2216C48.8821 21.3807 48.6491 21.6023 48.4787 21.8864C48.3082 22.1705 48.223 22.4981 48.223 22.8693V28H46.1662ZM58.9901 28.1761C58.437 28.1761 57.9389 28.0777 57.4957 27.8807C57.0563 27.6799 56.7079 27.3845 56.4503 26.9943C56.1965 26.6042 56.0696 26.1231 56.0696 25.5511C56.0696 25.0587 56.1605 24.6515 56.3423 24.3295C56.5241 24.0076 56.7723 23.75 57.0866 23.5568C57.401 23.3636 57.7552 23.2178 58.1491 23.1193C58.5469 23.017 58.9579 22.9432 59.3821 22.8977C59.8935 22.8447 60.3082 22.7973 60.6264 22.7557C60.9446 22.7102 61.1757 22.642 61.3196 22.5511C61.4673 22.4564 61.5412 22.3106 61.5412 22.1136V22.0795C61.5412 21.6515 61.4143 21.3201 61.1605 21.0852C60.9067 20.8504 60.5412 20.733 60.0639 20.733C59.5601 20.733 59.1605 20.8428 58.8651 21.0625C58.5734 21.2822 58.3764 21.5417 58.2741 21.8409L56.3537 21.5682C56.5052 21.0379 56.7552 20.5947 57.1037 20.2386C57.4522 19.8788 57.8783 19.6098 58.3821 19.4318C58.8859 19.25 59.4427 19.1591 60.0526 19.1591C60.473 19.1591 60.8916 19.2083 61.3082 19.3068C61.7249 19.4053 62.1056 19.5682 62.4503 19.7955C62.795 20.0189 63.0715 20.3239 63.2798 20.7102C63.492 21.0966 63.598 21.5795 63.598 22.1591V28H61.6207V26.8011H61.5526C61.4276 27.0436 61.2514 27.2708 61.0241 27.483C60.8007 27.6913 60.5185 27.8598 60.1776 27.9886C59.8404 28.1136 59.4446 28.1761 58.9901 28.1761ZM59.5241 26.6648C59.937 26.6648 60.295 26.5833 60.598 26.4205C60.901 26.2538 61.134 26.0341 61.2969 25.7614C61.4635 25.4886 61.5469 25.1913 61.5469 24.8693V23.8409C61.4825 23.8939 61.3726 23.9432 61.2173 23.9886C61.0658 24.0341 60.8954 24.0739 60.706 24.108C60.5166 24.142 60.3291 24.1723 60.1435 24.1989C59.9579 24.2254 59.7969 24.2481 59.6605 24.267C59.3537 24.3087 59.0791 24.3769 58.8366 24.4716C58.5942 24.5663 58.4029 24.6989 58.2628 24.8693C58.1226 25.036 58.0526 25.2519 58.0526 25.517C58.0526 25.8958 58.1908 26.1818 58.4673 26.375C58.7438 26.5682 59.0961 26.6648 59.5241 26.6648ZM69.473 28.1705C68.6018 28.1705 67.8537 27.9792 67.2287 27.5966C66.6075 27.214 66.1283 26.6856 65.7912 26.0114C65.4579 25.3333 65.2912 24.553 65.2912 23.6705C65.2912 22.7841 65.4616 22.0019 65.8026 21.3239C66.1435 20.642 66.6245 20.1117 67.2457 19.733C67.8707 19.3504 68.6094 19.1591 69.4616 19.1591C70.17 19.1591 70.7969 19.2898 71.3423 19.5511C71.8916 19.8087 72.3291 20.1742 72.6548 20.6477C72.9806 21.1174 73.1662 21.6667 73.2116 22.2955H71.2457C71.1662 21.875 70.9768 21.5246 70.6776 21.2443C70.3821 20.9602 69.9863 20.8182 69.4901 20.8182C69.0696 20.8182 68.7003 20.9318 68.3821 21.1591C68.0639 21.3826 67.8158 21.7045 67.6378 22.125C67.4635 22.5455 67.3764 23.0492 67.3764 23.6364C67.3764 24.2311 67.4635 24.7424 67.6378 25.1705C67.812 25.5947 68.0563 25.9223 68.3707 26.1534C68.6889 26.3807 69.062 26.4943 69.4901 26.4943C69.7931 26.4943 70.0639 26.4375 70.3026 26.3239C70.545 26.2064 70.7476 26.0379 70.9105 25.8182C71.0734 25.5985 71.1851 25.3314 71.2457 25.017H73.2116C73.1624 25.6345 72.9806 26.1818 72.6662 26.6591C72.3518 27.1326 71.9238 27.5038 71.3821 27.7727C70.8404 28.0379 70.2041 28.1705 69.473 28.1705ZM78.7074 28.1705C77.8362 28.1705 77.0881 27.9792 76.4631 27.5966C75.8419 27.214 75.3627 26.6856 75.0256 26.0114C74.6922 25.3333 74.5256 24.553 74.5256 23.6705C74.5256 22.7841 74.696 22.0019 75.0369 21.3239C75.3778 20.642 75.8589 20.1117 76.4801 19.733C77.1051 19.3504 77.8438 19.1591 78.696 19.1591C79.4044 19.1591 80.0313 19.2898 80.5767 19.5511C81.1259 19.8087 81.5634 20.1742 81.8892 20.6477C82.215 21.1174 82.4006 21.6667 82.446 22.2955H80.4801C80.4006 21.875 80.2112 21.5246 79.9119 21.2443C79.6165 20.9602 79.2206 20.8182 78.7244 20.8182C78.304 20.8182 77.9347 20.9318 77.6165 21.1591C77.2983 21.3826 77.0502 21.7045 76.8722 22.125C76.6979 22.5455 76.6108 23.0492 76.6108 23.6364C76.6108 24.2311 76.6979 24.7424 76.8722 25.1705C77.0464 25.5947 77.2907 25.9223 77.6051 26.1534C77.9233 26.3807 78.2964 26.4943 78.7244 26.4943C79.0275 26.4943 79.2983 26.4375 79.5369 26.3239C79.7794 26.2064 79.982 26.0379 80.1449 25.8182C80.3078 25.5985 80.4195 25.3314 80.4801 25.017H82.446C82.3968 25.6345 82.215 26.1818 81.9006 26.6591C81.5862 27.1326 81.1581 27.5038 80.6165 27.7727C80.0748 28.0379 79.4384 28.1705 78.7074 28.1705ZM87.9418 28.1705C87.0895 28.1705 86.3509 27.983 85.7259 27.608C85.1009 27.233 84.616 26.7083 84.2713 26.0341C83.9304 25.3598 83.7599 24.572 83.7599 23.6705C83.7599 22.7689 83.9304 21.9792 84.2713 21.3011C84.616 20.6231 85.1009 20.0966 85.7259 19.7216C86.3509 19.3466 87.0895 19.1591 87.9418 19.1591C88.794 19.1591 89.5327 19.3466 90.1577 19.7216C90.7827 20.0966 91.2656 20.6231 91.6065 21.3011C91.9512 21.9792 92.1236 22.7689 92.1236 23.6705C92.1236 24.572 91.9512 25.3598 91.6065 26.0341C91.2656 26.7083 90.7827 27.233 90.1577 27.608C89.5327 27.983 88.794 28.1705 87.9418 28.1705ZM87.9531 26.5227C88.4152 26.5227 88.8016 26.3958 89.1122 26.142C89.4228 25.8845 89.6539 25.5398 89.8054 25.108C89.9607 24.6761 90.0384 24.1951 90.0384 23.6648C90.0384 23.1307 89.9607 22.6477 89.8054 22.2159C89.6539 21.7803 89.4228 21.4337 89.1122 21.1761C88.8016 20.9186 88.4152 20.7898 87.9531 20.7898C87.4796 20.7898 87.0857 20.9186 86.7713 21.1761C86.4607 21.4337 86.2277 21.7803 86.0724 22.2159C85.9209 22.6477 85.8452 23.1307 85.8452 23.6648C85.8452 24.1951 85.9209 24.6761 86.0724 25.108C86.2277 25.5398 86.4607 25.8845 86.7713 26.142C87.0857 26.3958 87.4796 26.5227 87.9531 26.5227ZM99.4318 24.3295V19.2727H101.489V28H99.4943V26.4489H99.4034C99.2064 26.9375 98.8826 27.3371 98.4318 27.6477C97.9848 27.9583 97.4337 28.1136 96.7784 28.1136C96.2064 28.1136 95.7008 27.9867 95.2614 27.733C94.8258 27.4754 94.4848 27.1023 94.2386 26.6136C93.9924 26.1212 93.8693 25.5265 93.8693 24.8295V19.2727H95.9261V24.5114C95.9261 25.0644 96.0777 25.5038 96.3807 25.8295C96.6837 26.1553 97.0814 26.3182 97.5739 26.3182C97.8769 26.3182 98.1705 26.2443 98.4545 26.0966C98.7386 25.9489 98.9716 25.7292 99.1534 25.4375C99.339 25.142 99.4318 24.7727 99.4318 24.3295ZM105.661 22.8864V28H103.604V19.2727H105.57V20.7557H105.672C105.873 20.267 106.193 19.8788 106.632 19.5909C107.075 19.303 107.623 19.1591 108.274 19.1591C108.876 19.1591 109.401 19.2879 109.848 19.5455C110.299 19.803 110.647 20.1761 110.893 20.6648C111.143 21.1534 111.267 21.7462 111.263 22.4432V28H109.206V22.7614C109.206 22.178 109.054 21.7216 108.751 21.392C108.452 21.0625 108.037 20.8977 107.507 20.8977C107.147 20.8977 106.827 20.9773 106.547 21.1364C106.27 21.2917 106.053 21.517 105.893 21.8125C105.738 22.108 105.661 22.4659 105.661 22.8864ZM117.712 19.2727V20.8636H112.695V19.2727H117.712ZM113.933 17.1818H115.99V25.375C115.99 25.6515 116.032 25.8636 116.115 26.0114C116.202 26.1553 116.316 26.2538 116.456 26.3068C116.596 26.3598 116.751 26.3864 116.922 26.3864C117.051 26.3864 117.168 26.3769 117.274 26.358C117.384 26.339 117.467 26.322 117.524 26.3068L117.871 27.9148C117.761 27.9527 117.604 27.9943 117.399 28.0398C117.198 28.0852 116.952 28.1117 116.661 28.1193C116.145 28.1345 115.681 28.0568 115.268 27.8864C114.856 27.7121 114.528 27.4432 114.286 27.0795C114.047 26.7159 113.929 26.2614 113.933 25.7159V17.1818Z" fill="#0F67F5"/>
<line x1="8.74228e-08" y1="43" x2="135" y2="43" stroke="#0F67F5" stroke-width="2"/>
<path d="M152.409 28V16.3636H156.341C157.254 16.3636 158 16.5284 158.58 16.858C159.163 17.1837 159.595 17.625 159.875 18.1818C160.155 18.7386 160.295 19.3598 160.295 20.0455C160.295 20.7311 160.155 21.3542 159.875 21.9148C159.598 22.4754 159.17 22.9223 158.591 23.2557C158.011 23.5852 157.269 23.75 156.364 23.75H153.545V22.5H156.318C156.943 22.5 157.445 22.392 157.824 22.1761C158.203 21.9602 158.477 21.6686 158.648 21.3011C158.822 20.9299 158.909 20.5114 158.909 20.0455C158.909 19.5795 158.822 19.1629 158.648 18.7955C158.477 18.428 158.201 18.1402 157.818 17.9318C157.436 17.7197 156.928 17.6136 156.295 17.6136H153.818V28H152.409ZM164.952 28.2045C164.399 28.2045 163.897 28.1004 163.446 27.892C162.995 27.6799 162.637 27.375 162.372 26.9773C162.107 26.5758 161.974 26.0909 161.974 25.5227C161.974 25.0227 162.073 24.6174 162.27 24.3068C162.467 23.9924 162.73 23.7462 163.06 23.5682C163.389 23.3902 163.753 23.2576 164.151 23.1705C164.552 23.0795 164.955 23.0076 165.361 22.9545C165.891 22.8864 166.321 22.8352 166.651 22.8011C166.984 22.7633 167.226 22.7008 167.378 22.6136C167.533 22.5265 167.611 22.375 167.611 22.1591V22.1136C167.611 21.553 167.457 21.1174 167.151 20.8068C166.848 20.4962 166.387 20.3409 165.77 20.3409C165.13 20.3409 164.628 20.4811 164.264 20.7614C163.901 21.0417 163.645 21.3409 163.497 21.6591L162.224 21.2045C162.452 20.6742 162.755 20.2614 163.134 19.9659C163.516 19.6667 163.933 19.4583 164.384 19.3409C164.838 19.2197 165.285 19.1591 165.724 19.1591C166.005 19.1591 166.327 19.1932 166.69 19.2614C167.058 19.3258 167.412 19.4602 167.753 19.6648C168.098 19.8693 168.384 20.178 168.611 20.5909C168.838 21.0038 168.952 21.5568 168.952 22.25V28H167.611V26.8182H167.543C167.452 27.0076 167.3 27.2102 167.088 27.4261C166.876 27.642 166.594 27.8258 166.241 27.9773C165.889 28.1288 165.459 28.2045 164.952 28.2045ZM165.156 27C165.687 27 166.134 26.8958 166.497 26.6875C166.865 26.4792 167.141 26.2102 167.327 25.8807C167.516 25.5511 167.611 25.2045 167.611 24.8409V23.6136C167.554 23.6818 167.429 23.7443 167.236 23.8011C167.046 23.8542 166.827 23.9015 166.577 23.9432C166.33 23.9811 166.09 24.0152 165.855 24.0455C165.624 24.072 165.437 24.0947 165.293 24.1136C164.944 24.1591 164.618 24.233 164.315 24.3352C164.016 24.4337 163.774 24.5833 163.588 24.7841C163.406 24.9811 163.315 25.25 163.315 25.5909C163.315 26.0568 163.488 26.4091 163.832 26.6477C164.181 26.8826 164.622 27 165.156 27ZM171.95 31.2727C171.723 31.2727 171.52 31.2538 171.342 31.2159C171.164 31.1818 171.041 31.1477 170.973 31.1136L171.314 29.9318C171.64 30.0152 171.928 30.0455 172.178 30.0227C172.428 30 172.649 29.8883 172.842 29.6875C173.039 29.4905 173.219 29.1705 173.382 28.7273L173.632 28.0455L170.405 19.2727H171.859L174.268 26.2273H174.359L176.768 19.2727H178.223L174.518 29.2727C174.352 29.7235 174.145 30.0966 173.899 30.392C173.653 30.6913 173.367 30.9129 173.041 31.0568C172.719 31.2008 172.356 31.2727 171.95 31.2727ZM179.993 28V19.2727H181.288V20.6364H181.402C181.584 20.1705 181.877 19.8087 182.283 19.5511C182.688 19.2898 183.175 19.1591 183.743 19.1591C184.319 19.1591 184.798 19.2898 185.18 19.5511C185.567 19.8087 185.868 20.1705 186.084 20.6364H186.175C186.398 20.1856 186.733 19.8277 187.18 19.5625C187.627 19.2936 188.163 19.1591 188.788 19.1591C189.569 19.1591 190.207 19.4034 190.703 19.892C191.199 20.3769 191.447 21.1326 191.447 22.1591V28H190.107V22.1591C190.107 21.5152 189.93 21.0549 189.578 20.7784C189.226 20.5019 188.811 20.3636 188.334 20.3636C187.72 20.3636 187.245 20.5492 186.908 20.9205C186.571 21.2879 186.402 21.7538 186.402 22.3182V28H185.038V22.0227C185.038 21.5265 184.877 21.1269 184.555 20.8239C184.233 20.517 183.819 20.3636 183.311 20.3636C182.963 20.3636 182.637 20.4564 182.334 20.642C182.035 20.8277 181.792 21.0852 181.607 21.4148C181.425 21.7405 181.334 22.1174 181.334 22.5455V28H179.993ZM197.558 28.1818C196.717 28.1818 195.992 27.9962 195.382 27.625C194.776 27.25 194.308 26.7273 193.979 26.0568C193.653 25.3826 193.49 24.5985 193.49 23.7045C193.49 22.8106 193.653 22.0227 193.979 21.3409C194.308 20.6553 194.767 20.1212 195.354 19.7386C195.945 19.3523 196.634 19.1591 197.422 19.1591C197.876 19.1591 198.325 19.2348 198.768 19.3864C199.212 19.5379 199.615 19.7841 199.979 20.125C200.342 20.4621 200.632 20.9091 200.848 21.4659C201.064 22.0227 201.172 22.7083 201.172 23.5227V24.0909H194.445V22.9318H199.808C199.808 22.4394 199.71 22 199.513 21.6136C199.32 21.2273 199.043 20.9223 198.683 20.6989C198.327 20.4754 197.907 20.3636 197.422 20.3636C196.888 20.3636 196.426 20.4962 196.036 20.7614C195.649 21.0227 195.352 21.3636 195.143 21.7841C194.935 22.2045 194.831 22.6553 194.831 23.1364V23.9091C194.831 24.5682 194.945 25.1269 195.172 25.5852C195.403 26.0398 195.723 26.3864 196.132 26.625C196.541 26.8598 197.017 26.9773 197.558 26.9773C197.911 26.9773 198.229 26.928 198.513 26.8295C198.801 26.7273 199.049 26.5758 199.257 26.375C199.465 26.1705 199.626 25.9167 199.74 25.6136L201.036 25.9773C200.899 26.4167 200.67 26.803 200.348 27.1364C200.026 27.4659 199.628 27.7235 199.155 27.9091C198.681 28.0909 198.149 28.1818 197.558 28.1818ZM204.553 22.75V28H203.212V19.2727H204.507V20.6364H204.621C204.825 20.1932 205.136 19.8371 205.553 19.5682C205.969 19.2955 206.507 19.1591 207.166 19.1591C207.757 19.1591 208.274 19.2803 208.717 19.5227C209.161 19.7614 209.505 20.125 209.751 20.6136C209.998 21.0985 210.121 21.7121 210.121 22.4545V28H208.78V22.5455C208.78 21.8598 208.602 21.3258 208.246 20.9432C207.89 20.5568 207.401 20.3636 206.78 20.3636C206.352 20.3636 205.969 20.4564 205.632 20.642C205.299 20.8277 205.036 21.0985 204.842 21.4545C204.649 21.8106 204.553 22.2424 204.553 22.75ZM216.366 19.2727V20.4091H211.844V19.2727H216.366ZM213.162 17.1818H214.503V25.5C214.503 25.8788 214.558 26.1629 214.668 26.3523C214.781 26.5379 214.925 26.6629 215.099 26.7273C215.277 26.7879 215.465 26.8182 215.662 26.8182C215.81 26.8182 215.931 26.8106 216.026 26.7955C216.12 26.7765 216.196 26.7614 216.253 26.75L216.526 27.9545C216.435 27.9886 216.308 28.0227 216.145 28.0568C215.982 28.0947 215.776 28.1136 215.526 28.1136C215.147 28.1136 214.776 28.0322 214.412 27.8693C214.052 27.7064 213.753 27.4583 213.514 27.125C213.279 26.7917 213.162 26.3712 213.162 25.8636V17.1818Z" fill="#333333"/>
<rect width="264" height="76" transform="translate(0 60)" fill="white"/>
<rect x="12" y="72" width="99" height="12" fill="#EBEBEB"/>
<rect x="12" y="92" width="240" height="12" fill="#EBEBEB"/>
<rect x="12" y="112" width="240" height="12" fill="#EBEBEB"/>
</svg>
