<svg width="672" height="109" viewBox="0 0 672 109" fill="none" xmlns="http://www.w3.org/2000/svg">
<rect width="672" height="109" fill="#F6F6F6"/>
<g filter="url(#filter0_dd_13037_4306)">
<path d="M336.091 32L341 37H331L336.091 32Z" fill="#333333"/>
<path d="M209.5 41C209.5 38.7909 211.291 37 213.5 37H458.5C460.709 37 462.5 38.7909 462.5 41V73C462.5 75.2091 460.709 77 458.5 77H213.5C211.291 77 209.5 75.2091 209.5 73V41Z" fill="#333333"/>
<path d="M226.273 52.6136V51.3636H235V52.6136H231.341V63H229.932V52.6136H226.273ZM238.334 57.75V63H236.993V51.3636H238.334V55.6364H238.447C238.652 55.1856 238.959 54.8277 239.368 54.5625C239.781 54.2936 240.33 54.1591 241.016 54.1591C241.61 54.1591 242.131 54.2784 242.578 54.517C243.025 54.7519 243.372 55.1136 243.618 55.6023C243.868 56.0871 243.993 56.7045 243.993 57.4545V63H242.652V57.5455C242.652 56.8523 242.472 56.3163 242.112 55.9375C241.756 55.5549 241.262 55.3636 240.629 55.3636C240.19 55.3636 239.796 55.4564 239.447 55.642C239.103 55.8277 238.83 56.0985 238.629 56.4545C238.432 56.8106 238.334 57.2424 238.334 57.75ZM246.446 63V54.2727H247.787V63H246.446ZM247.128 52.8182C246.866 52.8182 246.641 52.7292 246.452 52.5511C246.266 52.3731 246.173 52.1591 246.173 51.9091C246.173 51.6591 246.266 51.4451 246.452 51.267C246.641 51.089 246.866 51 247.128 51C247.389 51 247.613 51.089 247.798 51.267C247.988 51.4451 248.082 51.6591 248.082 51.9091C248.082 52.1591 247.988 52.3731 247.798 52.5511C247.613 52.7292 247.389 52.8182 247.128 52.8182ZM256.425 56.2273L255.22 56.5682C255.144 56.3674 255.033 56.1723 254.885 55.983C254.741 55.7898 254.544 55.6307 254.294 55.5057C254.044 55.3807 253.724 55.3182 253.334 55.3182C252.8 55.3182 252.355 55.4413 251.999 55.6875C251.646 55.9299 251.47 56.2386 251.47 56.6136C251.47 56.947 251.591 57.2102 251.834 57.4034C252.076 57.5966 252.455 57.7576 252.97 57.8864L254.266 58.2045C255.046 58.3939 255.627 58.6837 256.01 59.0739C256.393 59.4602 256.584 59.9583 256.584 60.5682C256.584 61.0682 256.44 61.5152 256.152 61.9091C255.868 62.303 255.47 62.6136 254.959 62.8409C254.447 63.0682 253.853 63.1818 253.175 63.1818C252.285 63.1818 251.548 62.9886 250.964 62.6023C250.381 62.2159 250.012 61.6515 249.857 60.9091L251.129 60.5909C251.25 61.0606 251.48 61.4129 251.817 61.6477C252.158 61.8826 252.603 62 253.152 62C253.777 62 254.273 61.8674 254.641 61.6023C255.012 61.3333 255.197 61.0114 255.197 60.6364C255.197 60.3333 255.091 60.0795 254.879 59.875C254.667 59.6667 254.341 59.5114 253.902 59.4091L252.447 59.0682C251.648 58.8788 251.061 58.5852 250.686 58.1875C250.315 57.786 250.129 57.2841 250.129 56.6818C250.129 56.1894 250.268 55.7538 250.544 55.375C250.824 54.9962 251.205 54.6989 251.686 54.483C252.171 54.267 252.72 54.1591 253.334 54.1591C254.197 54.1591 254.875 54.3485 255.368 54.7273C255.864 55.1061 256.216 55.6061 256.425 56.2273ZM263.102 63V54.2727H264.443V63H263.102ZM263.784 52.8182C263.523 52.8182 263.297 52.7292 263.108 52.5511C262.922 52.3731 262.83 52.1591 262.83 51.9091C262.83 51.6591 262.922 51.4451 263.108 51.267C263.297 51.089 263.523 51 263.784 51C264.045 51 264.269 51.089 264.455 51.267C264.644 51.4451 264.739 51.6591 264.739 51.9091C264.739 52.1591 264.644 52.3731 264.455 52.5511C264.269 52.7292 264.045 52.8182 263.784 52.8182ZM273.081 56.2273L271.876 56.5682C271.801 56.3674 271.689 56.1723 271.541 55.983C271.397 55.7898 271.2 55.6307 270.95 55.5057C270.7 55.3807 270.38 55.3182 269.99 55.3182C269.456 55.3182 269.011 55.4413 268.655 55.6875C268.303 55.9299 268.126 56.2386 268.126 56.6136C268.126 56.947 268.248 57.2102 268.49 57.4034C268.732 57.5966 269.111 57.7576 269.626 57.8864L270.922 58.2045C271.702 58.3939 272.284 58.6837 272.666 59.0739C273.049 59.4602 273.24 59.9583 273.24 60.5682C273.24 61.0682 273.096 61.5152 272.808 61.9091C272.524 62.303 272.126 62.6136 271.615 62.8409C271.104 63.0682 270.509 63.1818 269.831 63.1818C268.941 63.1818 268.204 62.9886 267.621 62.6023C267.037 62.2159 266.668 61.6515 266.513 60.9091L267.786 60.5909C267.907 61.0606 268.136 61.4129 268.473 61.6477C268.814 61.8826 269.259 62 269.808 62C270.433 62 270.929 61.8674 271.297 61.6023C271.668 61.3333 271.854 61.0114 271.854 60.6364C271.854 60.3333 271.748 60.0795 271.536 59.875C271.323 59.6667 270.998 59.5114 270.558 59.4091L269.104 59.0682C268.304 58.8788 267.717 58.5852 267.342 58.1875C266.971 57.786 266.786 57.2841 266.786 56.6818C266.786 56.1894 266.924 55.7538 267.2 55.375C267.481 54.9962 267.861 54.6989 268.342 54.483C268.827 54.267 269.376 54.1591 269.99 54.1591C270.854 54.1591 271.532 54.3485 272.024 54.7273C272.52 55.1061 272.873 55.6061 273.081 56.2273ZM283.554 54.2727V55.4091H279.031V54.2727H283.554ZM280.349 52.1818H281.69V60.5C281.69 60.8788 281.745 61.1629 281.855 61.3523C281.969 61.5379 282.113 61.6629 282.287 61.7273C282.465 61.7879 282.652 61.8182 282.849 61.8182C282.997 61.8182 283.118 61.8106 283.213 61.7955C283.308 61.7765 283.384 61.7614 283.44 61.75L283.713 62.9545C283.622 62.9886 283.495 63.0227 283.332 63.0568C283.17 63.0947 282.963 63.1136 282.713 63.1136C282.334 63.1136 281.963 63.0322 281.599 62.8693C281.24 62.7064 280.94 62.4583 280.702 62.125C280.467 61.7917 280.349 61.3712 280.349 60.8636V52.1818ZM287.099 57.75V63H285.759V51.3636H287.099V55.6364H287.213C287.418 55.1856 287.724 54.8277 288.134 54.5625C288.546 54.2936 289.096 54.1591 289.781 54.1591C290.376 54.1591 290.897 54.2784 291.344 54.517C291.791 54.7519 292.137 55.1136 292.384 55.6023C292.634 56.0871 292.759 56.7045 292.759 57.4545V63H291.418V57.5455C291.418 56.8523 291.238 56.3163 290.878 55.9375C290.522 55.5549 290.027 55.3636 289.395 55.3636C288.955 55.3636 288.562 55.4564 288.213 55.642C287.868 55.8277 287.596 56.0985 287.395 56.4545C287.198 56.8106 287.099 57.2424 287.099 57.75ZM298.871 63.1818C298.03 63.1818 297.304 62.9962 296.695 62.625C296.089 62.25 295.621 61.7273 295.291 61.0568C294.965 60.3826 294.803 59.5985 294.803 58.7045C294.803 57.8106 294.965 57.0227 295.291 56.3409C295.621 55.6553 296.079 55.1212 296.666 54.7386C297.257 54.3523 297.946 54.1591 298.734 54.1591C299.189 54.1591 299.638 54.2348 300.081 54.3864C300.524 54.5379 300.928 54.7841 301.291 55.125C301.655 55.4621 301.945 55.9091 302.161 56.4659C302.376 57.0227 302.484 57.7083 302.484 58.5227V59.0909H295.757V57.9318H301.121C301.121 57.4394 301.022 57 300.825 56.6136C300.632 56.2273 300.356 55.9223 299.996 55.6989C299.64 55.4754 299.219 55.3636 298.734 55.3636C298.2 55.3636 297.738 55.4962 297.348 55.7614C296.962 56.0227 296.664 56.3636 296.456 56.7841C296.248 57.2045 296.143 57.6553 296.143 58.1364V58.9091C296.143 59.5682 296.257 60.1269 296.484 60.5852C296.715 61.0398 297.036 61.3864 297.445 61.625C297.854 61.8598 298.329 61.9773 298.871 61.9773C299.223 61.9773 299.541 61.928 299.825 61.8295C300.113 61.7273 300.361 61.5758 300.57 61.375C300.778 61.1705 300.939 60.9167 301.053 60.6136L302.348 60.9773C302.212 61.4167 301.982 61.803 301.661 62.1364C301.339 62.4659 300.941 62.7235 300.467 62.9091C299.994 63.0909 299.462 63.1818 298.871 63.1818ZM312.82 54.2727V55.4091H308.297V54.2727H312.82ZM309.615 52.1818H310.956V60.5C310.956 60.8788 311.011 61.1629 311.121 61.3523C311.234 61.5379 311.378 61.6629 311.553 61.7273C311.731 61.7879 311.918 61.8182 312.115 61.8182C312.263 61.8182 312.384 61.8106 312.479 61.7955C312.573 61.7765 312.649 61.7614 312.706 61.75L312.979 62.9545C312.888 62.9886 312.761 63.0227 312.598 63.0568C312.435 63.0947 312.229 63.1136 311.979 63.1136C311.6 63.1136 311.229 63.0322 310.865 62.8693C310.505 62.7064 310.206 62.4583 309.967 62.125C309.732 61.7917 309.615 61.3712 309.615 60.8636V52.1818ZM318.288 63.1818C317.5 63.1818 316.809 62.9943 316.214 62.6193C315.624 62.2443 315.161 61.7197 314.828 61.0455C314.499 60.3712 314.334 59.5833 314.334 58.6818C314.334 57.7727 314.499 56.9792 314.828 56.3011C315.161 55.6231 315.624 55.0966 316.214 54.7216C316.809 54.3466 317.5 54.1591 318.288 54.1591C319.076 54.1591 319.766 54.3466 320.357 54.7216C320.951 55.0966 321.413 55.6231 321.743 56.3011C322.076 56.9792 322.243 57.7727 322.243 58.6818C322.243 59.5833 322.076 60.3712 321.743 61.0455C321.413 61.7197 320.951 62.2443 320.357 62.6193C319.766 62.9943 319.076 63.1818 318.288 63.1818ZM318.288 61.9773C318.887 61.9773 319.379 61.8239 319.766 61.517C320.152 61.2102 320.438 60.8068 320.624 60.3068C320.809 59.8068 320.902 59.2652 320.902 58.6818C320.902 58.0985 320.809 57.5549 320.624 57.0511C320.438 56.5473 320.152 56.1402 319.766 55.8295C319.379 55.5189 318.887 55.3636 318.288 55.3636C317.69 55.3636 317.197 55.5189 316.811 55.8295C316.425 56.1402 316.139 56.5473 315.953 57.0511C315.768 57.5549 315.675 58.0985 315.675 58.6818C315.675 59.2652 315.768 59.8068 315.953 60.3068C316.139 60.8068 316.425 61.2102 316.811 61.517C317.197 61.8239 317.69 61.9773 318.288 61.9773ZM327.835 63.1818C327.047 63.1818 326.356 62.9943 325.761 62.6193C325.17 62.2443 324.708 61.7197 324.375 61.0455C324.045 60.3712 323.881 59.5833 323.881 58.6818C323.881 57.7727 324.045 56.9792 324.375 56.3011C324.708 55.6231 325.17 55.0966 325.761 54.7216C326.356 54.3466 327.047 54.1591 327.835 54.1591C328.623 54.1591 329.313 54.3466 329.903 54.7216C330.498 55.0966 330.96 55.6231 331.29 56.3011C331.623 56.9792 331.79 57.7727 331.79 58.6818C331.79 59.5833 331.623 60.3712 331.29 61.0455C330.96 61.7197 330.498 62.2443 329.903 62.6193C329.313 62.9943 328.623 63.1818 327.835 63.1818ZM327.835 61.9773C328.434 61.9773 328.926 61.8239 329.312 61.517C329.699 61.2102 329.985 60.8068 330.17 60.3068C330.356 59.8068 330.449 59.2652 330.449 58.6818C330.449 58.0985 330.356 57.5549 330.17 57.0511C329.985 56.5473 329.699 56.1402 329.312 55.8295C328.926 55.5189 328.434 55.3636 327.835 55.3636C327.237 55.3636 326.744 55.5189 326.358 55.8295C325.972 56.1402 325.686 56.5473 325.5 57.0511C325.314 57.5549 325.222 58.0985 325.222 58.6818C325.222 59.2652 325.314 59.8068 325.5 60.3068C325.686 60.8068 325.972 61.2102 326.358 61.517C326.744 61.8239 327.237 61.9773 327.835 61.9773ZM335.178 51.3636V63H333.837V51.3636H335.178ZM341.429 54.2727V55.4091H336.906V54.2727H341.429ZM338.224 52.1818H339.565V60.5C339.565 60.8788 339.62 61.1629 339.73 61.3523C339.844 61.5379 339.988 61.6629 340.162 61.7273C340.34 61.7879 340.527 61.8182 340.724 61.8182C340.872 61.8182 340.993 61.8106 341.088 61.7955C341.183 61.7765 341.259 61.7614 341.315 61.75L341.588 62.9545C341.497 62.9886 341.37 63.0227 341.207 63.0568C341.045 63.0947 340.838 63.1136 340.588 63.1136C340.209 63.1136 339.838 63.0322 339.474 62.8693C339.115 62.7064 338.815 62.4583 338.577 62.125C338.342 61.7917 338.224 61.3712 338.224 60.8636V52.1818ZM343.446 63V54.2727H344.787V63H343.446ZM344.128 52.8182C343.866 52.8182 343.641 52.7292 343.452 52.5511C343.266 52.3731 343.173 52.1591 343.173 51.9091C343.173 51.6591 343.266 51.4451 343.452 51.267C343.641 51.089 343.866 51 344.128 51C344.389 51 344.613 51.089 344.798 51.267C344.988 51.4451 345.082 51.6591 345.082 51.9091C345.082 52.1591 344.988 52.3731 344.798 52.5511C344.613 52.7292 344.389 52.8182 344.128 52.8182ZM347.243 66.2727V54.2727H348.538V55.6591H348.697C348.796 55.5076 348.932 55.3144 349.107 55.0795C349.285 54.8409 349.538 54.6288 349.868 54.4432C350.201 54.2538 350.652 54.1591 351.22 54.1591C351.955 54.1591 352.603 54.3428 353.163 54.7102C353.724 55.0777 354.161 55.5985 354.476 56.2727C354.79 56.947 354.947 57.7424 354.947 58.6591C354.947 59.5833 354.79 60.3845 354.476 61.0625C354.161 61.7367 353.726 62.2595 353.169 62.6307C352.612 62.9981 351.97 63.1818 351.243 63.1818C350.682 63.1818 350.233 63.089 349.896 62.9034C349.559 62.714 349.3 62.5 349.118 62.2614C348.936 62.0189 348.796 61.8182 348.697 61.6591H348.584V66.2727H347.243ZM348.561 58.6364C348.561 59.2955 348.658 59.8769 348.851 60.3807C349.044 60.8807 349.326 61.2727 349.697 61.5568C350.069 61.8371 350.523 61.9773 351.061 61.9773C351.622 61.9773 352.089 61.8295 352.464 61.5341C352.843 61.2348 353.127 60.8333 353.317 60.3295C353.51 59.822 353.607 59.2576 353.607 58.6364C353.607 58.0227 353.512 57.4697 353.322 56.9773C353.137 56.4811 352.855 56.089 352.476 55.8011C352.101 55.5095 351.629 55.3636 351.061 55.3636C350.516 55.3636 350.057 55.5019 349.686 55.7784C349.315 56.0511 349.035 56.4337 348.845 56.9261C348.656 57.4148 348.561 57.9848 348.561 58.6364ZM365.038 63.1818C364.22 63.1818 363.516 62.9886 362.925 62.6023C362.334 62.2159 361.879 61.6837 361.561 61.0057C361.243 60.3277 361.084 59.553 361.084 58.6818C361.084 57.7955 361.247 57.0133 361.572 56.3352C361.902 55.6534 362.36 55.1212 362.947 54.7386C363.538 54.3523 364.228 54.1591 365.016 54.1591C365.629 54.1591 366.182 54.2727 366.675 54.5C367.167 54.7273 367.571 55.0455 367.885 55.4545C368.199 55.8636 368.394 56.3409 368.47 56.8864H367.129C367.027 56.4886 366.8 56.1364 366.447 55.8295C366.099 55.5189 365.629 55.3636 365.038 55.3636C364.516 55.3636 364.057 55.5 363.663 55.7727C363.273 56.0417 362.968 56.4223 362.749 56.9148C362.533 57.4034 362.425 57.9773 362.425 58.6364C362.425 59.3106 362.531 59.8977 362.743 60.3977C362.959 60.8977 363.262 61.286 363.652 61.5625C364.046 61.839 364.508 61.9773 365.038 61.9773C365.387 61.9773 365.703 61.9167 365.987 61.7955C366.271 61.6742 366.512 61.5 366.709 61.2727C366.906 61.0455 367.046 60.7727 367.129 60.4545H368.47C368.394 60.9697 368.207 61.4337 367.908 61.8466C367.612 62.2557 367.22 62.5814 366.732 62.8239C366.247 63.0625 365.682 63.1818 365.038 63.1818ZM373.976 63.1818C373.188 63.1818 372.497 62.9943 371.902 62.6193C371.311 62.2443 370.849 61.7197 370.516 61.0455C370.186 60.3712 370.021 59.5833 370.021 58.6818C370.021 57.7727 370.186 56.9792 370.516 56.3011C370.849 55.6231 371.311 55.0966 371.902 54.7216C372.497 54.3466 373.188 54.1591 373.976 54.1591C374.764 54.1591 375.453 54.3466 376.044 54.7216C376.639 55.0966 377.101 55.6231 377.43 56.3011C377.764 56.9792 377.93 57.7727 377.93 58.6818C377.93 59.5833 377.764 60.3712 377.43 61.0455C377.101 61.7197 376.639 62.2443 376.044 62.6193C375.453 62.9943 374.764 63.1818 373.976 63.1818ZM373.976 61.9773C374.574 61.9773 375.067 61.8239 375.453 61.517C375.839 61.2102 376.125 60.8068 376.311 60.3068C376.497 59.8068 376.589 59.2652 376.589 58.6818C376.589 58.0985 376.497 57.5549 376.311 57.0511C376.125 56.5473 375.839 56.1402 375.453 55.8295C375.067 55.5189 374.574 55.3636 373.976 55.3636C373.377 55.3636 372.885 55.5189 372.499 55.8295C372.112 56.1402 371.826 56.5473 371.641 57.0511C371.455 57.5549 371.362 58.0985 371.362 58.6818C371.362 59.2652 371.455 59.8068 371.641 60.3068C371.826 60.8068 372.112 61.2102 372.499 61.517C372.885 61.8239 373.377 61.9773 373.976 61.9773ZM381.318 57.75V63H379.977V54.2727H381.273V55.6364H381.386C381.591 55.1932 381.902 54.8371 382.318 54.5682C382.735 54.2955 383.273 54.1591 383.932 54.1591C384.523 54.1591 385.04 54.2803 385.483 54.5227C385.926 54.7614 386.271 55.125 386.517 55.6136C386.763 56.0985 386.886 56.7121 386.886 57.4545V63H385.545V57.5455C385.545 56.8598 385.367 56.3258 385.011 55.9432C384.655 55.5568 384.167 55.3636 383.545 55.3636C383.117 55.3636 382.735 55.4564 382.398 55.642C382.064 55.8277 381.801 56.0985 381.608 56.4545C381.415 56.8106 381.318 57.2424 381.318 57.75ZM393.132 54.2727V55.4091H388.609V54.2727H393.132ZM389.928 52.1818H391.268V60.5C391.268 60.8788 391.323 61.1629 391.433 61.3523C391.547 61.5379 391.691 61.6629 391.865 61.7273C392.043 61.7879 392.231 61.8182 392.428 61.8182C392.575 61.8182 392.696 61.8106 392.791 61.7955C392.886 61.7765 392.962 61.7614 393.018 61.75L393.291 62.9545C393.2 62.9886 393.073 63.0227 392.911 63.0568C392.748 63.0947 392.541 63.1136 392.291 63.1136C391.912 63.1136 391.541 63.0322 391.178 62.8693C390.818 62.7064 390.518 62.4583 390.28 62.125C390.045 61.7917 389.928 61.3712 389.928 60.8636V52.1818ZM398.714 63.1818C397.874 63.1818 397.148 62.9962 396.538 62.625C395.932 62.25 395.464 61.7273 395.135 61.0568C394.809 60.3826 394.646 59.5985 394.646 58.7045C394.646 57.8106 394.809 57.0227 395.135 56.3409C395.464 55.6553 395.923 55.1212 396.51 54.7386C397.101 54.3523 397.79 54.1591 398.578 54.1591C399.033 54.1591 399.482 54.2348 399.925 54.3864C400.368 54.5379 400.771 54.7841 401.135 55.125C401.499 55.4621 401.788 55.9091 402.004 56.4659C402.22 57.0227 402.328 57.7083 402.328 58.5227V59.0909H395.601V57.9318H400.964C400.964 57.4394 400.866 57 400.669 56.6136C400.476 56.2273 400.199 55.9223 399.839 55.6989C399.483 55.4754 399.063 55.3636 398.578 55.3636C398.044 55.3636 397.582 55.4962 397.192 55.7614C396.805 56.0227 396.508 56.3636 396.3 56.7841C396.091 57.2045 395.987 57.6553 395.987 58.1364V58.9091C395.987 59.5682 396.101 60.1269 396.328 60.5852C396.559 61.0398 396.879 61.3864 397.288 61.625C397.697 61.8598 398.173 61.9773 398.714 61.9773C399.067 61.9773 399.385 61.928 399.669 61.8295C399.957 61.7273 400.205 61.5758 400.413 61.375C400.622 61.1705 400.783 60.9167 400.896 60.6136L402.192 60.9773C402.055 61.4167 401.826 61.803 401.504 62.1364C401.182 62.4659 400.785 62.7235 400.311 62.9091C399.838 63.0909 399.305 63.1818 398.714 63.1818ZM405.709 57.75V63H404.368V54.2727H405.663V55.6364H405.777C405.982 55.1932 406.292 54.8371 406.709 54.5682C407.125 54.2955 407.663 54.1591 408.322 54.1591C408.913 54.1591 409.43 54.2803 409.874 54.5227C410.317 54.7614 410.661 55.125 410.908 55.6136C411.154 56.0985 411.277 56.7121 411.277 57.4545V63H409.936V57.5455C409.936 56.8598 409.758 56.3258 409.402 55.9432C409.046 55.5568 408.557 55.3636 407.936 55.3636C407.508 55.3636 407.125 55.4564 406.788 55.642C406.455 55.8277 406.192 56.0985 405.999 56.4545C405.805 56.8106 405.709 57.2424 405.709 57.75ZM417.523 54.2727V55.4091H413V54.2727H417.523ZM414.318 52.1818H415.659V60.5C415.659 60.8788 415.714 61.1629 415.824 61.3523C415.938 61.5379 416.081 61.6629 416.256 61.7273C416.434 61.7879 416.621 61.8182 416.818 61.8182C416.966 61.8182 417.087 61.8106 417.182 61.7955C417.277 61.7765 417.352 61.7614 417.409 61.75L417.682 62.9545C417.591 62.9886 417.464 63.0227 417.301 63.0568C417.138 63.0947 416.932 63.1136 416.682 63.1136C416.303 63.1136 415.932 63.0322 415.568 62.8693C415.208 62.7064 414.909 62.4583 414.67 62.125C414.436 61.7917 414.318 61.3712 414.318 60.8636V52.1818ZM421.54 61.4091L421.449 62.0227C421.384 62.4545 421.286 62.9167 421.153 63.4091C421.025 63.9015 420.89 64.3655 420.75 64.8011C420.61 65.2367 420.494 65.5833 420.403 65.8409H419.381C419.43 65.5985 419.494 65.2784 419.574 64.8807C419.653 64.483 419.733 64.0379 419.812 63.5455C419.896 63.0568 419.964 62.5568 420.017 62.0455L420.085 61.4091H421.54ZM434.024 59.4318V54.2727H435.365V63H434.024V61.5227H433.933C433.729 61.9659 433.411 62.3428 432.979 62.6534C432.547 62.9602 432.001 63.1136 431.342 63.1136C430.797 63.1136 430.312 62.9943 429.888 62.7557C429.464 62.5133 429.13 62.1496 428.888 61.6648C428.645 61.1761 428.524 60.5606 428.524 59.8182V54.2727H429.865V59.7273C429.865 60.3636 430.043 60.8712 430.399 61.25C430.759 61.6288 431.217 61.8182 431.774 61.8182C432.107 61.8182 432.446 61.733 432.791 61.5625C433.14 61.392 433.431 61.1307 433.666 60.7784C433.905 60.4261 434.024 59.9773 434.024 59.4318ZM437.821 66.2727V54.2727H439.116V55.6591H439.276C439.374 55.5076 439.51 55.3144 439.685 55.0795C439.863 54.8409 440.116 54.6288 440.446 54.4432C440.779 54.2538 441.23 54.1591 441.798 54.1591C442.533 54.1591 443.181 54.3428 443.741 54.7102C444.302 55.0777 444.74 55.5985 445.054 56.2727C445.368 56.947 445.526 57.7424 445.526 58.6591C445.526 59.5833 445.368 60.3845 445.054 61.0625C444.74 61.7367 444.304 62.2595 443.747 62.6307C443.19 62.9981 442.548 63.1818 441.821 63.1818C441.26 63.1818 440.812 63.089 440.474 62.9034C440.137 62.714 439.878 62.5 439.696 62.2614C439.514 62.0189 439.374 61.8182 439.276 61.6591H439.162V66.2727H437.821ZM439.139 58.6364C439.139 59.2955 439.236 59.8769 439.429 60.3807C439.622 60.8807 439.904 61.2727 440.276 61.5568C440.647 61.8371 441.101 61.9773 441.639 61.9773C442.2 61.9773 442.668 61.8295 443.043 61.5341C443.421 61.2348 443.705 60.8333 443.895 60.3295C444.088 59.822 444.185 59.2576 444.185 58.6364C444.185 58.0227 444.09 57.4697 443.901 56.9773C443.715 56.4811 443.433 56.089 443.054 55.8011C442.679 55.5095 442.207 55.3636 441.639 55.3636C441.094 55.3636 440.635 55.5019 440.264 55.7784C439.893 56.0511 439.613 56.4337 439.423 56.9261C439.234 57.4148 439.139 57.9848 439.139 58.6364Z" fill="white"/>
</g>
<defs>
<filter id="filter0_dd_13037_4306" x="206.5" y="30" width="259" height="52" filterUnits="userSpaceOnUse" color-interpolation-filters="sRGB">
<feFlood flood-opacity="0" result="BackgroundImageFix"/>
<feColorMatrix in="SourceAlpha" type="matrix" values="0 0 0 0 0 0 0 0 0 0 0 0 0 0 0 0 0 0 127 0" result="hardAlpha"/>
<feOffset dy="2"/>
<feGaussianBlur stdDeviation="1.5"/>
<feColorMatrix type="matrix" values="0 0 0 0 0.2 0 0 0 0 0.2 0 0 0 0 0.2 0 0 0 0.15 0"/>
<feBlend mode="normal" in2="BackgroundImageFix" result="effect1_dropShadow_13037_4306"/>
<feColorMatrix in="SourceAlpha" type="matrix" values="0 0 0 0 0 0 0 0 0 0 0 0 0 0 0 0 0 0 127 0" result="hardAlpha"/>
<feOffset dy="1"/>
<feGaussianBlur stdDeviation="1.5"/>
<feColorMatrix type="matrix" values="0 0 0 0 0.2 0 0 0 0 0.2 0 0 0 0 0.2 0 0 0 0.1 0"/>
<feBlend mode="normal" in2="effect1_dropShadow_13037_4306" result="effect2_dropShadow_13037_4306"/>
<feBlend mode="normal" in="SourceGraphic" in2="effect2_dropShadow_13037_4306" result="shape"/>
</filter>
</defs>
</svg>
