<svg width="672" height="182" viewBox="0 0 672 182" fill="none" xmlns="http://www.w3.org/2000/svg">
<rect width="672" height="182" fill="#F6F6F6"/>
<rect width="351" height="44" transform="translate(160.5 69)" fill="white"/>
<line x1="160.5" y1="112.5" x2="511.5" y2="112.5" stroke="#EBEBEB"/>
<path d="M177.136 87.1307V85.3636H186.42V87.1307H182.824V97H180.733V87.1307H177.136ZM189.443 97.1761C188.89 97.1761 188.392 97.0777 187.949 96.8807C187.509 96.6799 187.161 96.3845 186.903 95.9943C186.65 95.6042 186.523 95.1231 186.523 94.5511C186.523 94.0587 186.614 93.6515 186.795 93.3295C186.977 93.0076 187.225 92.75 187.54 92.5568C187.854 92.3636 188.208 92.2178 188.602 92.1193C189 92.017 189.411 91.9432 189.835 91.8977C190.347 91.8447 190.761 91.7973 191.08 91.7557C191.398 91.7102 191.629 91.642 191.773 91.5511C191.92 91.4564 191.994 91.3106 191.994 91.1136V91.0795C191.994 90.6515 191.867 90.3201 191.614 90.0852C191.36 89.8504 190.994 89.733 190.517 89.733C190.013 89.733 189.614 89.8428 189.318 90.0625C189.027 90.2822 188.83 90.5417 188.727 90.8409L186.807 90.5682C186.958 90.0379 187.208 89.5947 187.557 89.2386C187.905 88.8788 188.331 88.6098 188.835 88.4318C189.339 88.25 189.896 88.1591 190.506 88.1591C190.926 88.1591 191.345 88.2083 191.761 88.3068C192.178 88.4053 192.559 88.5682 192.903 88.7955C193.248 89.0189 193.525 89.3239 193.733 89.7102C193.945 90.0966 194.051 90.5795 194.051 91.1591V97H192.074V95.8011H192.006C191.881 96.0436 191.705 96.2708 191.477 96.483C191.254 96.6913 190.972 96.8598 190.631 96.9886C190.294 97.1136 189.898 97.1761 189.443 97.1761ZM189.977 95.6648C190.39 95.6648 190.748 95.5833 191.051 95.4205C191.354 95.2538 191.587 95.0341 191.75 94.7614C191.917 94.4886 192 94.1913 192 93.8693V92.8409C191.936 92.8939 191.826 92.9432 191.67 92.9886C191.519 93.0341 191.348 93.0739 191.159 93.108C190.97 93.142 190.782 93.1723 190.597 93.1989C190.411 93.2254 190.25 93.2481 190.114 93.267C189.807 93.3087 189.532 93.3769 189.29 93.4716C189.047 93.5663 188.856 93.6989 188.716 93.8693C188.576 94.036 188.506 94.2519 188.506 94.517C188.506 94.8958 188.644 95.1818 188.92 95.375C189.197 95.5682 189.549 95.6648 189.977 95.6648ZM196.21 97V85.3636H198.267V89.7159H198.352C198.458 89.5038 198.608 89.2784 198.801 89.0398C198.994 88.7973 199.256 88.5909 199.585 88.4205C199.915 88.2462 200.335 88.1591 200.847 88.1591C201.521 88.1591 202.129 88.3314 202.67 88.6761C203.216 89.017 203.648 89.5227 203.966 90.1932C204.288 90.8598 204.449 91.678 204.449 92.6477C204.449 93.6061 204.292 94.4205 203.977 95.0909C203.663 95.7614 203.235 96.2727 202.693 96.625C202.152 96.9773 201.538 97.1534 200.852 97.1534C200.352 97.1534 199.938 97.0701 199.608 96.9034C199.278 96.7367 199.013 96.536 198.812 96.3011C198.616 96.0625 198.462 95.8371 198.352 95.625H198.233V97H196.21ZM198.227 92.6364C198.227 93.2008 198.307 93.6951 198.466 94.1193C198.629 94.5436 198.862 94.875 199.165 95.1136C199.472 95.3485 199.843 95.4659 200.278 95.4659C200.733 95.4659 201.114 95.3447 201.42 95.1023C201.727 94.8561 201.958 94.5208 202.114 94.0966C202.273 93.6686 202.352 93.1818 202.352 92.6364C202.352 92.0947 202.275 91.6136 202.119 91.1932C201.964 90.7727 201.733 90.4432 201.426 90.2045C201.119 89.9659 200.737 89.8466 200.278 89.8466C199.839 89.8466 199.466 89.9621 199.159 90.1932C198.852 90.4242 198.619 90.7481 198.46 91.1648C198.305 91.5814 198.227 92.072 198.227 92.6364ZM210.908 85.3636V97H208.8V87.4148H208.732L206.01 89.1534V87.2216L208.902 85.3636H210.908Z" fill="#0F67F5"/>
<line x1="160.5" y1="112" x2="229.5" y2="112" stroke="#0F67F5" stroke-width="2"/>
<path d="M246.273 86.6136V85.3636H255V86.6136H251.341V97H249.932V86.6136H246.273ZM258.374 97.2045C257.821 97.2045 257.319 97.1004 256.868 96.892C256.417 96.6799 256.059 96.375 255.794 95.9773C255.529 95.5758 255.396 95.0909 255.396 94.5227C255.396 94.0227 255.495 93.6174 255.692 93.3068C255.889 92.9924 256.152 92.7462 256.482 92.5682C256.811 92.3902 257.175 92.2576 257.572 92.1705C257.974 92.0795 258.377 92.0076 258.783 91.9545C259.313 91.8864 259.743 91.8352 260.072 91.8011C260.406 91.7633 260.648 91.7008 260.8 91.6136C260.955 91.5265 261.033 91.375 261.033 91.1591V91.1136C261.033 90.553 260.879 90.1174 260.572 89.8068C260.269 89.4962 259.809 89.3409 259.192 89.3409C258.552 89.3409 258.05 89.4811 257.686 89.7614C257.322 90.0417 257.067 90.3409 256.919 90.6591L255.646 90.2045C255.874 89.6742 256.177 89.2614 256.555 88.9659C256.938 88.6667 257.355 88.4583 257.805 88.3409C258.26 88.2197 258.707 88.1591 259.146 88.1591C259.427 88.1591 259.749 88.1932 260.112 88.2614C260.48 88.3258 260.834 88.4602 261.175 88.6648C261.519 88.8693 261.805 89.178 262.033 89.5909C262.26 90.0038 262.374 90.5568 262.374 91.25V97H261.033V95.8182H260.964C260.874 96.0076 260.722 96.2102 260.51 96.4261C260.298 96.642 260.016 96.8258 259.663 96.9773C259.311 97.1288 258.881 97.2045 258.374 97.2045ZM258.578 96C259.108 96 259.555 95.8958 259.919 95.6875C260.286 95.4792 260.563 95.2102 260.749 94.8807C260.938 94.5511 261.033 94.2045 261.033 93.8409V92.6136C260.976 92.6818 260.851 92.7443 260.658 92.8011C260.468 92.8542 260.249 92.9015 259.999 92.9432C259.752 92.9811 259.512 93.0152 259.277 93.0455C259.046 93.072 258.858 93.0947 258.714 93.1136C258.366 93.1591 258.04 93.233 257.737 93.3352C257.438 93.4337 257.196 93.5833 257.01 93.7841C256.828 93.9811 256.737 94.25 256.737 94.5909C256.737 95.0568 256.91 95.4091 257.254 95.6477C257.603 95.8826 258.044 96 258.578 96ZM265.003 97V85.3636H266.344V89.6591H266.457C266.556 89.5076 266.692 89.3144 266.866 89.0795C267.045 88.8409 267.298 88.6288 267.628 88.4432C267.961 88.2538 268.412 88.1591 268.98 88.1591C269.715 88.1591 270.363 88.3428 270.923 88.7102C271.484 89.0777 271.921 89.5985 272.236 90.2727C272.55 90.947 272.707 91.7424 272.707 92.6591C272.707 93.5833 272.55 94.3845 272.236 95.0625C271.921 95.7367 271.486 96.2595 270.929 96.6307C270.372 96.9981 269.73 97.1818 269.003 97.1818C268.442 97.1818 267.993 97.089 267.656 96.9034C267.319 96.714 267.06 96.5 266.878 96.2614C266.696 96.0189 266.556 95.8182 266.457 95.6591H266.298V97H265.003ZM266.321 92.6364C266.321 93.2955 266.418 93.8769 266.611 94.3807C266.804 94.8807 267.086 95.2727 267.457 95.5568C267.829 95.8371 268.283 95.9773 268.821 95.9773C269.382 95.9773 269.849 95.8295 270.224 95.5341C270.603 95.2348 270.887 94.8333 271.077 94.3295C271.27 93.822 271.366 93.2576 271.366 92.6364C271.366 92.0227 271.272 91.4697 271.082 90.9773C270.897 90.4811 270.615 90.089 270.236 89.8011C269.861 89.5095 269.389 89.3636 268.821 89.3636C268.276 89.3636 267.817 89.5019 267.446 89.7784C267.075 90.0511 266.795 90.4337 266.605 90.9261C266.416 91.4148 266.321 91.9848 266.321 92.6364ZM274.736 97V95.9773L278.577 91.7727C279.027 91.2803 279.399 90.8523 279.69 90.4886C279.982 90.1212 280.198 89.7765 280.338 89.4545C280.482 89.1288 280.554 88.7879 280.554 88.4318C280.554 88.0227 280.455 87.6686 280.259 87.3693C280.065 87.0701 279.8 86.839 279.463 86.6761C279.126 86.5133 278.747 86.4318 278.327 86.4318C277.88 86.4318 277.49 86.5246 277.156 86.7102C276.827 86.892 276.571 87.1477 276.389 87.4773C276.211 87.8068 276.122 88.1932 276.122 88.6364H274.781C274.781 87.9545 274.938 87.3561 275.253 86.8409C275.567 86.3258 275.995 85.9242 276.537 85.6364C277.082 85.3485 277.694 85.2045 278.372 85.2045C279.054 85.2045 279.658 85.3485 280.185 85.6364C280.711 85.9242 281.124 86.3125 281.423 86.8011C281.723 87.2898 281.872 87.8333 281.872 88.4318C281.872 88.8598 281.795 89.2784 281.639 89.6875C281.488 90.0928 281.223 90.5455 280.844 91.0455C280.469 91.5417 279.948 92.1477 279.281 92.8636L276.668 95.6591V95.75H282.077V97H274.736Z" fill="#333333"/>
<path d="M316.273 86.6136V85.3636H325V86.6136H321.341V97H319.932V86.6136H316.273ZM328.374 97.2045C327.821 97.2045 327.319 97.1004 326.868 96.892C326.417 96.6799 326.059 96.375 325.794 95.9773C325.529 95.5758 325.396 95.0909 325.396 94.5227C325.396 94.0227 325.495 93.6174 325.692 93.3068C325.889 92.9924 326.152 92.7462 326.482 92.5682C326.811 92.3902 327.175 92.2576 327.572 92.1705C327.974 92.0795 328.377 92.0076 328.783 91.9545C329.313 91.8864 329.743 91.8352 330.072 91.8011C330.406 91.7633 330.648 91.7008 330.8 91.6136C330.955 91.5265 331.033 91.375 331.033 91.1591V91.1136C331.033 90.553 330.879 90.1174 330.572 89.8068C330.269 89.4962 329.809 89.3409 329.192 89.3409C328.552 89.3409 328.05 89.4811 327.686 89.7614C327.322 90.0417 327.067 90.3409 326.919 90.6591L325.646 90.2045C325.874 89.6742 326.177 89.2614 326.555 88.9659C326.938 88.6667 327.355 88.4583 327.805 88.3409C328.26 88.2197 328.707 88.1591 329.146 88.1591C329.427 88.1591 329.749 88.1932 330.112 88.2614C330.48 88.3258 330.834 88.4602 331.175 88.6648C331.519 88.8693 331.805 89.178 332.033 89.5909C332.26 90.0038 332.374 90.5568 332.374 91.25V97H331.033V95.8182H330.964C330.874 96.0076 330.722 96.2102 330.51 96.4261C330.298 96.642 330.016 96.8258 329.663 96.9773C329.311 97.1288 328.881 97.2045 328.374 97.2045ZM328.578 96C329.108 96 329.555 95.8958 329.919 95.6875C330.286 95.4792 330.563 95.2102 330.749 94.8807C330.938 94.5511 331.033 94.2045 331.033 93.8409V92.6136C330.976 92.6818 330.851 92.7443 330.658 92.8011C330.468 92.8542 330.249 92.9015 329.999 92.9432C329.752 92.9811 329.512 93.0152 329.277 93.0455C329.046 93.072 328.858 93.0947 328.714 93.1136C328.366 93.1591 328.04 93.233 327.737 93.3352C327.438 93.4337 327.196 93.5833 327.01 93.7841C326.828 93.9811 326.737 94.25 326.737 94.5909C326.737 95.0568 326.91 95.4091 327.254 95.6477C327.603 95.8826 328.044 96 328.578 96ZM335.003 97V85.3636H336.344V89.6591H336.457C336.556 89.5076 336.692 89.3144 336.866 89.0795C337.045 88.8409 337.298 88.6288 337.628 88.4432C337.961 88.2538 338.412 88.1591 338.98 88.1591C339.715 88.1591 340.363 88.3428 340.923 88.7102C341.484 89.0777 341.921 89.5985 342.236 90.2727C342.55 90.947 342.707 91.7424 342.707 92.6591C342.707 93.5833 342.55 94.3845 342.236 95.0625C341.921 95.7367 341.486 96.2595 340.929 96.6307C340.372 96.9981 339.73 97.1818 339.003 97.1818C338.442 97.1818 337.993 97.089 337.656 96.9034C337.319 96.714 337.06 96.5 336.878 96.2614C336.696 96.0189 336.556 95.8182 336.457 95.6591H336.298V97H335.003ZM336.321 92.6364C336.321 93.2955 336.418 93.8769 336.611 94.3807C336.804 94.8807 337.086 95.2727 337.457 95.5568C337.829 95.8371 338.283 95.9773 338.821 95.9773C339.382 95.9773 339.849 95.8295 340.224 95.5341C340.603 95.2348 340.887 94.8333 341.077 94.3295C341.27 93.822 341.366 93.2576 341.366 92.6364C341.366 92.0227 341.272 91.4697 341.082 90.9773C340.897 90.4811 340.615 90.089 340.236 89.8011C339.861 89.5095 339.389 89.3636 338.821 89.3636C338.276 89.3636 337.817 89.5019 337.446 89.7784C337.075 90.0511 336.795 90.4337 336.605 90.9261C336.416 91.4148 336.321 91.9848 336.321 92.6364ZM348.668 97.1591C347.918 97.1591 347.249 97.0303 346.662 96.7727C346.079 96.5152 345.615 96.1572 345.27 95.6989C344.929 95.2367 344.743 94.7008 344.713 94.0909H346.145C346.175 94.4659 346.304 94.7898 346.531 95.0625C346.759 95.3314 347.056 95.5398 347.423 95.6875C347.791 95.8352 348.198 95.9091 348.645 95.9091C349.145 95.9091 349.588 95.822 349.974 95.6477C350.361 95.4735 350.664 95.2311 350.884 94.9205C351.103 94.6098 351.213 94.25 351.213 93.8409C351.213 93.4129 351.107 93.036 350.895 92.7102C350.683 92.3807 350.372 92.1231 349.963 91.9375C349.554 91.7519 349.054 91.6591 348.463 91.6591H347.531V90.4091H348.463C348.925 90.4091 349.33 90.3258 349.679 90.1591C350.031 89.9924 350.306 89.7576 350.503 89.4545C350.704 89.1515 350.804 88.7955 350.804 88.3864C350.804 87.9924 350.717 87.6496 350.543 87.358C350.368 87.0663 350.122 86.839 349.804 86.6761C349.49 86.5133 349.118 86.4318 348.69 86.4318C348.289 86.4318 347.91 86.5057 347.554 86.6534C347.202 86.7973 346.914 87.0076 346.69 87.2841C346.467 87.5568 346.346 87.8864 346.327 88.2727H344.963C344.986 87.6629 345.17 87.1288 345.514 86.6705C345.859 86.2083 346.31 85.8485 346.866 85.5909C347.427 85.3333 348.043 85.2045 348.713 85.2045C349.433 85.2045 350.05 85.3504 350.565 85.642C351.08 85.9299 351.476 86.3106 351.753 86.7841C352.029 87.2576 352.168 87.7689 352.168 88.3182C352.168 88.9735 351.995 89.5322 351.651 89.9943C351.31 90.4564 350.846 90.7765 350.259 90.9545V91.0455C350.993 91.1667 351.567 91.4792 351.98 91.983C352.393 92.483 352.599 93.1023 352.599 93.8409C352.599 94.4735 352.427 95.0417 352.082 95.5455C351.741 96.0455 351.276 96.4394 350.685 96.7273C350.094 97.0152 349.421 97.1591 348.668 97.1591Z" fill="#333333"/>
<path d="M387.273 86.6136V85.3636H396V86.6136H392.341V97H390.932V86.6136H387.273ZM399.374 97.2045C398.821 97.2045 398.319 97.1004 397.868 96.892C397.417 96.6799 397.059 96.375 396.794 95.9773C396.529 95.5758 396.396 95.0909 396.396 94.5227C396.396 94.0227 396.495 93.6174 396.692 93.3068C396.889 92.9924 397.152 92.7462 397.482 92.5682C397.811 92.3902 398.175 92.2576 398.572 92.1705C398.974 92.0795 399.377 92.0076 399.783 91.9545C400.313 91.8864 400.743 91.8352 401.072 91.8011C401.406 91.7633 401.648 91.7008 401.8 91.6136C401.955 91.5265 402.033 91.375 402.033 91.1591V91.1136C402.033 90.553 401.879 90.1174 401.572 89.8068C401.269 89.4962 400.809 89.3409 400.192 89.3409C399.552 89.3409 399.05 89.4811 398.686 89.7614C398.322 90.0417 398.067 90.3409 397.919 90.6591L396.646 90.2045C396.874 89.6742 397.177 89.2614 397.555 88.9659C397.938 88.6667 398.355 88.4583 398.805 88.3409C399.26 88.2197 399.707 88.1591 400.146 88.1591C400.427 88.1591 400.749 88.1932 401.112 88.2614C401.48 88.3258 401.834 88.4602 402.175 88.6648C402.519 88.8693 402.805 89.178 403.033 89.5909C403.26 90.0038 403.374 90.5568 403.374 91.25V97H402.033V95.8182H401.964C401.874 96.0076 401.722 96.2102 401.51 96.4261C401.298 96.642 401.016 96.8258 400.663 96.9773C400.311 97.1288 399.881 97.2045 399.374 97.2045ZM399.578 96C400.108 96 400.555 95.8958 400.919 95.6875C401.286 95.4792 401.563 95.2102 401.749 94.8807C401.938 94.5511 402.033 94.2045 402.033 93.8409V92.6136C401.976 92.6818 401.851 92.7443 401.658 92.8011C401.468 92.8542 401.249 92.9015 400.999 92.9432C400.752 92.9811 400.512 93.0152 400.277 93.0455C400.046 93.072 399.858 93.0947 399.714 93.1136C399.366 93.1591 399.04 93.233 398.737 93.3352C398.438 93.4337 398.196 93.5833 398.01 93.7841C397.828 93.9811 397.737 94.25 397.737 94.5909C397.737 95.0568 397.91 95.4091 398.254 95.6477C398.603 95.8826 399.044 96 399.578 96ZM406.003 97V85.3636H407.344V89.6591H407.457C407.556 89.5076 407.692 89.3144 407.866 89.0795C408.045 88.8409 408.298 88.6288 408.628 88.4432C408.961 88.2538 409.412 88.1591 409.98 88.1591C410.715 88.1591 411.363 88.3428 411.923 88.7102C412.484 89.0777 412.921 89.5985 413.236 90.2727C413.55 90.947 413.707 91.7424 413.707 92.6591C413.707 93.5833 413.55 94.3845 413.236 95.0625C412.921 95.7367 412.486 96.2595 411.929 96.6307C411.372 96.9981 410.73 97.1818 410.003 97.1818C409.442 97.1818 408.993 97.089 408.656 96.9034C408.319 96.714 408.06 96.5 407.878 96.2614C407.696 96.0189 407.556 95.8182 407.457 95.6591H407.298V97H406.003ZM407.321 92.6364C407.321 93.2955 407.418 93.8769 407.611 94.3807C407.804 94.8807 408.086 95.2727 408.457 95.5568C408.829 95.8371 409.283 95.9773 409.821 95.9773C410.382 95.9773 410.849 95.8295 411.224 95.5341C411.603 95.2348 411.887 94.8333 412.077 94.3295C412.27 93.822 412.366 93.2576 412.366 92.6364C412.366 92.0227 412.272 91.4697 412.082 90.9773C411.897 90.4811 411.615 90.089 411.236 89.8011C410.861 89.5095 410.389 89.3636 409.821 89.3636C409.276 89.3636 408.817 89.5019 408.446 89.7784C408.075 90.0511 407.795 90.4337 407.605 90.9261C407.416 91.4148 407.321 91.9848 407.321 92.6364ZM415.463 94.6136V93.4545L420.577 85.3636H421.418V87.1591H420.849L416.986 93.2727V93.3636H423.872V94.6136H415.463ZM420.94 97V94.2614V93.7216V85.3636H422.281V97H420.94Z" fill="#333333"/>
<path d="M458.273 86.6136V85.3636H467V86.6136H463.341V97H461.932V86.6136H458.273ZM470.374 97.2045C469.821 97.2045 469.319 97.1004 468.868 96.892C468.417 96.6799 468.059 96.375 467.794 95.9773C467.529 95.5758 467.396 95.0909 467.396 94.5227C467.396 94.0227 467.495 93.6174 467.692 93.3068C467.889 92.9924 468.152 92.7462 468.482 92.5682C468.811 92.3902 469.175 92.2576 469.572 92.1705C469.974 92.0795 470.377 92.0076 470.783 91.9545C471.313 91.8864 471.743 91.8352 472.072 91.8011C472.406 91.7633 472.648 91.7008 472.8 91.6136C472.955 91.5265 473.033 91.375 473.033 91.1591V91.1136C473.033 90.553 472.879 90.1174 472.572 89.8068C472.269 89.4962 471.809 89.3409 471.192 89.3409C470.552 89.3409 470.05 89.4811 469.686 89.7614C469.322 90.0417 469.067 90.3409 468.919 90.6591L467.646 90.2045C467.874 89.6742 468.177 89.2614 468.555 88.9659C468.938 88.6667 469.355 88.4583 469.805 88.3409C470.26 88.2197 470.707 88.1591 471.146 88.1591C471.427 88.1591 471.749 88.1932 472.112 88.2614C472.48 88.3258 472.834 88.4602 473.175 88.6648C473.519 88.8693 473.805 89.178 474.033 89.5909C474.26 90.0038 474.374 90.5568 474.374 91.25V97H473.033V95.8182H472.964C472.874 96.0076 472.722 96.2102 472.51 96.4261C472.298 96.642 472.016 96.8258 471.663 96.9773C471.311 97.1288 470.881 97.2045 470.374 97.2045ZM470.578 96C471.108 96 471.555 95.8958 471.919 95.6875C472.286 95.4792 472.563 95.2102 472.749 94.8807C472.938 94.5511 473.033 94.2045 473.033 93.8409V92.6136C472.976 92.6818 472.851 92.7443 472.658 92.8011C472.468 92.8542 472.249 92.9015 471.999 92.9432C471.752 92.9811 471.512 93.0152 471.277 93.0455C471.046 93.072 470.858 93.0947 470.714 93.1136C470.366 93.1591 470.04 93.233 469.737 93.3352C469.438 93.4337 469.196 93.5833 469.01 93.7841C468.828 93.9811 468.737 94.25 468.737 94.5909C468.737 95.0568 468.91 95.4091 469.254 95.6477C469.603 95.8826 470.044 96 470.578 96ZM477.003 97V85.3636H478.344V89.6591H478.457C478.556 89.5076 478.692 89.3144 478.866 89.0795C479.045 88.8409 479.298 88.6288 479.628 88.4432C479.961 88.2538 480.412 88.1591 480.98 88.1591C481.715 88.1591 482.363 88.3428 482.923 88.7102C483.484 89.0777 483.921 89.5985 484.236 90.2727C484.55 90.947 484.707 91.7424 484.707 92.6591C484.707 93.5833 484.55 94.3845 484.236 95.0625C483.921 95.7367 483.486 96.2595 482.929 96.6307C482.372 96.9981 481.73 97.1818 481.003 97.1818C480.442 97.1818 479.993 97.089 479.656 96.9034C479.319 96.714 479.06 96.5 478.878 96.2614C478.696 96.0189 478.556 95.8182 478.457 95.6591H478.298V97H477.003ZM478.321 92.6364C478.321 93.2955 478.418 93.8769 478.611 94.3807C478.804 94.8807 479.086 95.2727 479.457 95.5568C479.829 95.8371 480.283 95.9773 480.821 95.9773C481.382 95.9773 481.849 95.8295 482.224 95.5341C482.603 95.2348 482.887 94.8333 483.077 94.3295C483.27 93.822 483.366 93.2576 483.366 92.6364C483.366 92.0227 483.272 91.4697 483.082 90.9773C482.897 90.4811 482.615 90.089 482.236 89.8011C481.861 89.5095 481.389 89.3636 480.821 89.3636C480.276 89.3636 479.817 89.5019 479.446 89.7784C479.075 90.0511 478.795 90.4337 478.605 90.9261C478.416 91.4148 478.321 91.9848 478.321 92.6364ZM490.372 97.1591C489.705 97.1591 489.105 97.0265 488.571 96.7614C488.037 96.4962 487.609 96.1326 487.287 95.6705C486.965 95.2083 486.789 94.6818 486.759 94.0909H488.122C488.175 94.6174 488.414 95.053 488.838 95.3977C489.266 95.7386 489.777 95.9091 490.372 95.9091C490.849 95.9091 491.274 95.7973 491.645 95.5739C492.02 95.3504 492.313 95.0436 492.526 94.6534C492.741 94.2595 492.849 93.8144 492.849 93.3182C492.849 92.8106 492.738 92.358 492.514 91.9602C492.295 91.5587 491.991 91.2424 491.605 91.0114C491.219 90.7803 490.777 90.6629 490.281 90.6591C489.925 90.6553 489.56 90.7102 489.185 90.8239C488.81 90.9337 488.501 91.0758 488.259 91.25L486.94 91.0909L487.645 85.3636H493.69V86.6136H488.827L488.418 90.0455H488.486C488.724 89.8561 489.024 89.6989 489.384 89.5739C489.743 89.4489 490.118 89.3864 490.509 89.3864C491.221 89.3864 491.855 89.5568 492.412 89.8977C492.973 90.2348 493.412 90.697 493.73 91.2841C494.052 91.8712 494.213 92.5417 494.213 93.2955C494.213 94.0379 494.046 94.7008 493.713 95.2841C493.384 95.8636 492.929 96.322 492.349 96.6591C491.77 96.9924 491.111 97.1591 490.372 97.1591Z" fill="#333333"/>
<path d="M173.179 40H172.256L174.926 32.7273H175.835L178.506 40H177.582L175.409 33.8778H175.352L173.179 40ZM173.52 37.1591H177.241V37.9403H173.52V37.1591ZM181.741 40.1136C181.229 40.1136 180.789 39.9929 180.42 39.7514C180.05 39.5099 179.766 39.1773 179.567 38.7536C179.369 38.3298 179.269 37.8456 179.269 37.3011C179.269 36.7472 179.371 36.2583 179.575 35.8345C179.781 35.4084 180.067 35.0758 180.434 34.8366C180.803 34.5952 181.234 34.4744 181.727 34.4744C182.11 34.4744 182.456 34.5455 182.763 34.6875C183.071 34.8295 183.323 35.0284 183.52 35.2841C183.716 35.5398 183.838 35.8381 183.886 36.179H183.048C182.984 35.9304 182.842 35.7102 182.621 35.5185C182.404 35.3243 182.11 35.2273 181.741 35.2273C181.414 35.2273 181.128 35.3125 180.881 35.483C180.638 35.651 180.447 35.889 180.31 36.1967C180.175 36.5021 180.107 36.8608 180.107 37.2727C180.107 37.6941 180.174 38.0611 180.306 38.3736C180.441 38.6861 180.63 38.9287 180.874 39.1016C181.121 39.2744 181.409 39.3608 181.741 39.3608C181.959 39.3608 182.156 39.3229 182.334 39.2472C182.511 39.1714 182.662 39.0625 182.785 38.9205C182.908 38.7784 182.996 38.608 183.048 38.4091H183.886C183.838 38.7311 183.721 39.0211 183.534 39.2791C183.349 39.5348 183.104 39.7384 182.799 39.8899C182.496 40.0391 182.143 40.1136 181.741 40.1136ZM187.483 34.5455V35.2557H184.656V34.5455H187.483ZM185.48 33.2386H186.318V38.4375C186.318 38.6742 186.353 38.8518 186.421 38.9702C186.492 39.0862 186.582 39.1643 186.691 39.2045C186.802 39.2424 186.92 39.2614 187.043 39.2614C187.135 39.2614 187.211 39.2566 187.27 39.2472C187.329 39.2353 187.376 39.2259 187.412 39.2188L187.582 39.9716C187.526 39.9929 187.446 40.0142 187.344 40.0355C187.243 40.0592 187.114 40.071 186.957 40.071C186.721 40.071 186.489 40.0201 186.261 39.9183C186.036 39.8165 185.849 39.6615 185.7 39.4531C185.554 39.2448 185.48 38.982 185.48 38.6648V33.2386ZM188.744 40V34.5455H189.582V40H188.744ZM189.17 33.6364C189.006 33.6364 188.866 33.5807 188.747 33.4695C188.631 33.3582 188.573 33.2244 188.573 33.0682C188.573 32.9119 188.631 32.7782 188.747 32.6669C188.866 32.5556 189.006 32.5 189.17 32.5C189.333 32.5 189.473 32.5556 189.589 32.6669C189.707 32.7782 189.766 32.9119 189.766 33.0682C189.766 33.2244 189.707 33.3582 189.589 33.4695C189.473 33.5807 189.333 33.6364 189.17 33.6364ZM195.577 34.5455L193.56 40H192.708L190.691 34.5455H191.6L193.105 38.892H193.162L194.668 34.5455H195.577ZM198.775 40.1136C198.249 40.1136 197.796 39.9976 197.415 39.7656C197.036 39.5312 196.743 39.2045 196.537 38.7855C196.334 38.3641 196.232 37.8741 196.232 37.3153C196.232 36.7566 196.334 36.2642 196.537 35.8381C196.743 35.4096 197.03 35.0758 197.397 34.8366C197.766 34.5952 198.197 34.4744 198.689 34.4744C198.974 34.4744 199.254 34.5218 199.531 34.6165C199.808 34.7112 200.06 34.8651 200.287 35.0781C200.515 35.2888 200.696 35.5682 200.831 35.9162C200.966 36.2642 201.033 36.6927 201.033 37.2017V37.5568H196.829V36.8324H200.181C200.181 36.5246 200.119 36.25 199.996 36.0085C199.876 35.767 199.703 35.5765 199.478 35.4368C199.255 35.2971 198.992 35.2273 198.689 35.2273C198.356 35.2273 198.067 35.3101 197.823 35.4759C197.581 35.6392 197.396 35.8523 197.265 36.1151C197.135 36.3778 197.07 36.6596 197.07 36.9602V37.4432C197.07 37.8551 197.141 38.2043 197.283 38.4908C197.428 38.7749 197.628 38.9915 197.883 39.1406C198.139 39.2874 198.436 39.3608 198.775 39.3608C198.995 39.3608 199.194 39.33 199.371 39.2685C199.551 39.2045 199.706 39.1098 199.836 38.9844C199.967 38.8565 200.067 38.6979 200.138 38.5085L200.948 38.7358C200.863 39.0104 200.72 39.2519 200.518 39.4602C200.317 39.6662 200.068 39.8272 199.773 39.9432C199.477 40.0568 199.144 40.1136 198.775 40.1136ZM207.493 34.5455V35.2557H204.666V34.5455H207.493ZM205.49 33.2386H206.328V38.4375C206.328 38.6742 206.362 38.8518 206.431 38.9702C206.502 39.0862 206.592 39.1643 206.701 39.2045C206.812 39.2424 206.929 39.2614 207.052 39.2614C207.145 39.2614 207.22 39.2566 207.28 39.2472C207.339 39.2353 207.386 39.2259 207.422 39.2188L207.592 39.9716C207.535 39.9929 207.456 40.0142 207.354 40.0355C207.252 40.0592 207.123 40.071 206.967 40.071C206.73 40.071 206.498 40.0201 206.271 39.9183C206.046 39.8165 205.859 39.6615 205.71 39.4531C205.563 39.2448 205.49 38.982 205.49 38.6648V33.2386ZM210.358 40.1278C210.013 40.1278 209.699 40.0627 209.417 39.9325C209.136 39.8 208.912 39.6094 208.746 39.3608C208.581 39.1098 208.498 38.8068 208.498 38.4517C208.498 38.1392 208.559 37.8859 208.682 37.6918C208.805 37.4953 208.97 37.3414 209.176 37.2301C209.382 37.1188 209.609 37.036 209.858 36.9815C210.109 36.9247 210.361 36.8797 210.614 36.8466C210.946 36.804 211.214 36.772 211.42 36.7507C211.629 36.727 211.78 36.688 211.875 36.6335C211.972 36.5791 212.02 36.4844 212.02 36.3494V36.321C212.02 35.9706 211.925 35.6984 211.733 35.5043C211.543 35.3101 211.256 35.2131 210.87 35.2131C210.47 35.2131 210.156 35.3007 209.929 35.4759C209.702 35.651 209.542 35.8381 209.449 36.0369L208.654 35.7528C208.796 35.4214 208.985 35.1634 209.222 34.9787C209.461 34.7917 209.722 34.6615 210.003 34.5881C210.287 34.5123 210.567 34.4744 210.841 34.4744C211.017 34.4744 211.218 34.4957 211.445 34.5384C211.675 34.5786 211.896 34.6626 212.109 34.7905C212.325 34.9183 212.503 35.1113 212.645 35.3693C212.787 35.6274 212.858 35.973 212.858 36.4062V40H212.02V39.2614H211.978C211.921 39.3797 211.826 39.5064 211.694 39.6413C211.561 39.7763 211.385 39.8911 211.165 39.9858C210.944 40.0805 210.676 40.1278 210.358 40.1278ZM210.486 39.375C210.818 39.375 211.097 39.3099 211.324 39.1797C211.554 39.0495 211.727 38.8814 211.843 38.6754C211.961 38.4695 212.02 38.2528 212.02 38.0256V37.2585C211.985 37.3011 211.907 37.3402 211.786 37.3757C211.668 37.4089 211.53 37.4384 211.374 37.4645C211.22 37.4882 211.07 37.5095 210.923 37.5284C210.779 37.545 210.662 37.5592 210.572 37.571C210.354 37.5994 210.15 37.6456 209.961 37.7095C209.774 37.7711 209.622 37.8646 209.506 37.9901C209.393 38.1132 209.336 38.2812 209.336 38.4943C209.336 38.7855 209.443 39.0057 209.659 39.1548C209.877 39.3016 210.153 39.375 210.486 39.375ZM214.502 40V32.7273H215.34V35.4119H215.411C215.472 35.3172 215.558 35.1965 215.667 35.0497C215.778 34.9006 215.936 34.768 216.142 34.652C216.351 34.5336 216.632 34.4744 216.988 34.4744C217.447 34.4744 217.852 34.5893 218.202 34.8189C218.552 35.0485 218.826 35.3741 219.022 35.7955C219.219 36.2169 219.317 36.714 219.317 37.2869C219.317 37.8646 219.219 38.3653 219.022 38.7891C218.826 39.2105 218.554 39.5372 218.206 39.7692C217.858 39.9988 217.456 40.1136 217.002 40.1136C216.651 40.1136 216.371 40.0556 216.16 39.9396C215.949 39.8213 215.787 39.6875 215.674 39.5384C215.56 39.3868 215.472 39.2614 215.411 39.1619H215.311V40H214.502ZM215.326 37.2727C215.326 37.6847 215.386 38.0481 215.507 38.3629C215.627 38.6754 215.804 38.9205 216.036 39.098C216.268 39.2732 216.552 39.3608 216.888 39.3608C217.239 39.3608 217.531 39.2685 217.765 39.0838C218.002 38.8968 218.18 38.6458 218.298 38.331C218.419 38.0137 218.479 37.661 218.479 37.2727C218.479 36.8892 218.42 36.5436 218.301 36.2358C218.185 35.9257 218.009 35.6806 217.772 35.5007C217.538 35.3184 217.243 35.2273 216.888 35.2273C216.547 35.2273 216.261 35.3137 216.029 35.4865C215.797 35.657 215.622 35.8961 215.503 36.2038C215.385 36.5092 215.326 36.8655 215.326 37.2727Z" fill="#E8178A"/>
<path d="M196 48L196 78" stroke="#E8178A"/>
<circle cx="196" cy="77" r="1" transform="rotate(90 196 77)" fill="#E8178A"/>
<path d="M80.733 90H79.8523C79.8002 89.7467 79.709 89.5241 79.5788 89.3324C79.451 89.1406 79.2947 88.9796 79.1101 88.8494C78.9278 88.7169 78.7254 88.6174 78.5028 88.5511C78.2803 88.4848 78.0483 88.4517 77.8068 88.4517C77.3665 88.4517 76.9676 88.563 76.6101 88.7855C76.255 89.008 75.9721 89.3359 75.7614 89.7692C75.553 90.2024 75.4489 90.7339 75.4489 91.3636C75.4489 91.9934 75.553 92.5249 75.7614 92.9581C75.9721 93.3913 76.255 93.7192 76.6101 93.9418C76.9676 94.1643 77.3665 94.2756 77.8068 94.2756C78.0483 94.2756 78.2803 94.2424 78.5028 94.1761C78.7254 94.1098 78.9278 94.0116 79.1101 93.8814C79.2947 93.7488 79.451 93.5866 79.5788 93.3949C79.709 93.2008 79.8002 92.9782 79.8523 92.7273H80.733C80.6667 93.099 80.5459 93.4316 80.3707 93.7251C80.1955 94.0187 79.9777 94.2685 79.7173 94.4744C79.4569 94.678 79.1645 94.8331 78.8402 94.9396C78.5182 95.0462 78.1738 95.0994 77.8068 95.0994C77.1866 95.0994 76.6349 94.9479 76.152 94.6449C75.669 94.3419 75.2891 93.911 75.0121 93.3523C74.7351 92.7936 74.5966 92.1307 74.5966 91.3636C74.5966 90.5966 74.7351 89.9337 75.0121 89.375C75.2891 88.8163 75.669 88.3854 76.152 88.0824C76.6349 87.7794 77.1866 87.6278 77.8068 87.6278C78.1738 87.6278 78.5182 87.6811 78.8402 87.7876C79.1645 87.8942 79.4569 88.0504 79.7173 88.2564C79.9777 88.46 80.1955 88.7086 80.3707 89.0021C80.5459 89.2933 80.6667 89.6259 80.733 90ZM84.2583 95.1136C83.7659 95.1136 83.3339 94.9964 82.9622 94.7621C82.5929 94.5277 82.304 94.1998 82.0957 93.7784C81.8897 93.357 81.7868 92.8646 81.7868 92.3011C81.7868 91.733 81.8897 91.237 82.0957 90.8132C82.304 90.3894 82.5929 90.0604 82.9622 89.826C83.3339 89.5916 83.7659 89.4744 84.2583 89.4744C84.7508 89.4744 85.1816 89.5916 85.551 89.826C85.9226 90.0604 86.2115 90.3894 86.4174 90.8132C86.6258 91.237 86.7299 91.733 86.7299 92.3011C86.7299 92.8646 86.6258 93.357 86.4174 93.7784C86.2115 94.1998 85.9226 94.5277 85.551 94.7621C85.1816 94.9964 84.7508 95.1136 84.2583 95.1136ZM84.2583 94.3608C84.6324 94.3608 84.9402 94.2649 85.1816 94.0732C85.4231 93.8814 85.6019 93.6293 85.7179 93.3168C85.8339 93.0043 85.8919 92.6657 85.8919 92.3011C85.8919 91.9366 85.8339 91.5968 85.7179 91.282C85.6019 90.9671 85.4231 90.7126 85.1816 90.5185C84.9402 90.3243 84.6324 90.2273 84.2583 90.2273C83.8843 90.2273 83.5765 90.3243 83.335 90.5185C83.0936 90.7126 82.9148 90.9671 82.7988 91.282C82.6828 91.5968 82.6248 91.9366 82.6248 92.3011C82.6248 92.6657 82.6828 93.0043 82.7988 93.3168C82.9148 93.6293 83.0936 93.8814 83.335 94.0732C83.5765 94.2649 83.8843 94.3608 84.2583 94.3608ZM88.8473 91.7188V95H88.0092V89.5455H88.8189V90.3977H88.8899C89.0178 90.1207 89.2119 89.8982 89.4723 89.7301C89.7327 89.5597 90.0689 89.4744 90.4808 89.4744C90.8501 89.4744 91.1733 89.5502 91.4503 89.7017C91.7273 89.8509 91.9427 90.0781 92.0966 90.3835C92.2505 90.6866 92.3274 91.0701 92.3274 91.5341V95H91.4893V91.5909C91.4893 91.1624 91.3781 90.8286 91.1555 90.5895C90.933 90.348 90.6276 90.2273 90.2393 90.2273C89.9718 90.2273 89.7327 90.2853 89.522 90.4013C89.3137 90.5173 89.1491 90.6866 89.0284 90.9091C88.9077 91.1316 88.8473 91.4015 88.8473 91.7188ZM96.231 89.5455V90.2557H93.4043V89.5455H96.231ZM94.2282 88.2386H95.0662V93.4375C95.0662 93.6742 95.1006 93.8518 95.1692 93.9702C95.2402 94.0862 95.3302 94.1643 95.4391 94.2045C95.5504 94.2424 95.6676 94.2614 95.7907 94.2614C95.883 94.2614 95.9587 94.2566 96.0179 94.2472C96.0771 94.2353 96.1245 94.2259 96.16 94.2188L96.3304 94.9716C96.2736 94.9929 96.1943 95.0142 96.0925 95.0355C95.9907 95.0592 95.8617 95.071 95.7054 95.071C95.4687 95.071 95.2367 95.0201 95.0094 94.9183C94.7845 94.8165 94.5975 94.6615 94.4483 94.4531C94.3016 94.2448 94.2282 93.982 94.2282 93.6648V88.2386ZM99.0968 95.1278C98.7511 95.1278 98.4374 95.0627 98.1557 94.9325C97.874 94.8 97.6503 94.6094 97.4846 94.3608C97.3188 94.1098 97.236 93.8068 97.236 93.4517C97.236 93.1392 97.2975 92.8859 97.4206 92.6918C97.5437 92.4953 97.7083 92.3414 97.9142 92.2301C98.1202 92.1188 98.3475 92.036 98.5961 91.9815C98.847 91.9247 99.0991 91.8797 99.3525 91.8466C99.6839 91.804 99.9526 91.772 100.159 91.7507C100.367 91.727 100.518 91.688 100.613 91.6335C100.71 91.5791 100.759 91.4844 100.759 91.3494V91.321C100.759 90.9706 100.663 90.6984 100.471 90.5043C100.282 90.3101 99.994 90.2131 99.6081 90.2131C99.208 90.2131 98.8944 90.3007 98.6671 90.4759C98.4398 90.651 98.28 90.8381 98.1877 91.0369L97.3922 90.7528C97.5343 90.4214 97.7237 90.1634 97.9604 89.9787C98.1995 89.7917 98.4599 89.6615 98.7417 89.5881C99.0257 89.5123 99.3051 89.4744 99.5797 89.4744C99.7549 89.4744 99.9561 89.4957 100.183 89.5384C100.413 89.5786 100.634 89.6626 100.847 89.7905C101.063 89.9183 101.242 90.1113 101.384 90.3693C101.526 90.6274 101.597 90.973 101.597 91.4062V95H100.759V94.2614H100.716C100.659 94.3797 100.565 94.5064 100.432 94.6413C100.299 94.7763 100.123 94.8911 99.9029 94.9858C99.6827 95.0805 99.414 95.1278 99.0968 95.1278ZM99.2246 94.375C99.556 94.375 99.8354 94.3099 100.063 94.1797C100.292 94.0495 100.465 93.8814 100.581 93.6754C100.7 93.4695 100.759 93.2528 100.759 93.0256V92.2585C100.723 92.3011 100.645 92.3402 100.524 92.3757C100.406 92.4089 100.269 92.4384 100.112 92.4645C99.9585 92.4882 99.8082 92.5095 99.6614 92.5284C99.517 92.545 99.3998 92.5592 99.3098 92.571C99.092 92.5994 98.8884 92.6456 98.699 92.7095C98.512 92.7711 98.3605 92.8646 98.2445 92.9901C98.1309 93.1132 98.074 93.2812 98.074 93.4943C98.074 93.7855 98.1818 94.0057 98.3972 94.1548C98.615 94.3016 98.8908 94.375 99.2246 94.375ZM103.126 95V89.5455H103.964V95H103.126ZM103.553 88.6364C103.389 88.6364 103.248 88.5807 103.13 88.4695C103.014 88.3582 102.956 88.2244 102.956 88.0682C102.956 87.9119 103.014 87.7782 103.13 87.6669C103.248 87.5556 103.389 87.5 103.553 87.5C103.716 87.5 103.856 87.5556 103.972 87.6669C104.09 87.7782 104.149 87.9119 104.149 88.0682C104.149 88.2244 104.09 88.3582 103.972 88.4695C103.856 88.5807 103.716 88.6364 103.553 88.6364ZM106.338 91.7188V95H105.499V89.5455H106.309V90.3977H106.38C106.508 90.1207 106.702 89.8982 106.963 89.7301C107.223 89.5597 107.559 89.4744 107.971 89.4744C108.34 89.4744 108.664 89.5502 108.941 89.7017C109.218 89.8509 109.433 90.0781 109.587 90.3835C109.741 90.6866 109.818 91.0701 109.818 91.5341V95H108.98V91.5909C108.98 91.1624 108.868 90.8286 108.646 90.5895C108.423 90.348 108.118 90.2273 107.73 90.2273C107.462 90.2273 107.223 90.2853 107.012 90.4013C106.804 90.5173 106.639 90.6866 106.519 90.9091C106.398 91.1316 106.338 91.4015 106.338 91.7188ZM113.636 95.1136C113.11 95.1136 112.657 94.9976 112.276 94.7656C111.897 94.5312 111.605 94.2045 111.399 93.7855C111.195 93.3641 111.093 92.8741 111.093 92.3153C111.093 91.7566 111.195 91.2642 111.399 90.8381C111.605 90.4096 111.891 90.0758 112.258 89.8366C112.627 89.5952 113.058 89.4744 113.551 89.4744C113.835 89.4744 114.115 89.5218 114.392 89.6165C114.669 89.7112 114.922 89.8651 115.149 90.0781C115.376 90.2888 115.557 90.5682 115.692 90.9162C115.827 91.2642 115.895 91.6927 115.895 92.2017V92.5568H111.69V91.8324H115.042C115.042 91.5246 114.981 91.25 114.858 91.0085C114.737 90.767 114.564 90.5765 114.339 90.4368C114.117 90.2971 113.854 90.2273 113.551 90.2273C113.217 90.2273 112.928 90.3101 112.684 90.4759C112.443 90.6392 112.257 90.8523 112.127 91.1151C111.997 91.3778 111.931 91.6596 111.931 91.9602V92.4432C111.931 92.8551 112.002 93.2043 112.145 93.4908C112.289 93.7749 112.489 93.9915 112.745 94.1406C113 94.2874 113.297 94.3608 113.636 94.3608C113.856 94.3608 114.055 94.33 114.233 94.2685C114.413 94.2045 114.568 94.1098 114.698 93.9844C114.828 93.8565 114.929 93.6979 115 93.5085L115.809 93.7358C115.724 94.0104 115.581 94.2519 115.38 94.4602C115.178 94.6662 114.93 94.8272 114.634 94.9432C114.338 95.0568 114.005 95.1136 113.636 95.1136ZM117.169 95V89.5455H117.979V90.3693H118.036C118.135 90.0994 118.315 89.8804 118.576 89.7124C118.836 89.5443 119.13 89.4602 119.456 89.4602C119.518 89.4602 119.595 89.4614 119.687 89.4638C119.779 89.4661 119.849 89.4697 119.897 89.4744V90.3267C119.868 90.3196 119.803 90.3089 119.701 90.2947C119.602 90.2782 119.497 90.2699 119.385 90.2699C119.12 90.2699 118.883 90.3255 118.675 90.4368C118.469 90.5457 118.306 90.6972 118.185 90.8913C118.067 91.0831 118.007 91.3021 118.007 91.5483V95H117.169Z" fill="#E8178A"/>
<path d="M129 91.5H159" stroke="#E8178A"/>
<circle cx="158" cy="91.5" r="1" fill="#E8178A"/>
<path d="M196 141L196 111" stroke="#E8178A"/>
<circle cx="1" cy="1" r="1" transform="matrix(-4.37114e-08 -1 -1 4.41441e-06 197 113)" fill="#E8178A"/>
<path d="M151.179 156H150.256L152.926 148.727H153.835L156.506 156H155.582L153.409 149.878H153.352L151.179 156ZM151.52 153.159H155.241V153.94H151.52V153.159ZM159.741 156.114C159.229 156.114 158.789 155.993 158.42 155.751C158.05 155.51 157.766 155.177 157.567 154.754C157.369 154.33 157.269 153.846 157.269 153.301C157.269 152.747 157.371 152.258 157.575 151.835C157.781 151.408 158.067 151.076 158.434 150.837C158.803 150.595 159.234 150.474 159.727 150.474C160.11 150.474 160.456 150.545 160.763 150.688C161.071 150.83 161.323 151.028 161.52 151.284C161.716 151.54 161.838 151.838 161.886 152.179H161.048C160.984 151.93 160.842 151.71 160.621 151.518C160.404 151.324 160.11 151.227 159.741 151.227C159.414 151.227 159.128 151.312 158.881 151.483C158.638 151.651 158.447 151.889 158.31 152.197C158.175 152.502 158.107 152.861 158.107 153.273C158.107 153.694 158.174 154.061 158.306 154.374C158.441 154.686 158.63 154.929 158.874 155.102C159.121 155.274 159.409 155.361 159.741 155.361C159.959 155.361 160.156 155.323 160.334 155.247C160.511 155.171 160.662 155.062 160.785 154.92C160.908 154.778 160.996 154.608 161.048 154.409H161.886C161.838 154.731 161.721 155.021 161.534 155.279C161.349 155.535 161.104 155.738 160.799 155.89C160.496 156.039 160.143 156.114 159.741 156.114ZM165.483 150.545V151.256H162.656V150.545H165.483ZM163.48 149.239H164.318V154.438C164.318 154.674 164.353 154.852 164.421 154.97C164.492 155.086 164.582 155.164 164.691 155.205C164.802 155.242 164.92 155.261 165.043 155.261C165.135 155.261 165.211 155.257 165.27 155.247C165.329 155.235 165.376 155.226 165.412 155.219L165.582 155.972C165.526 155.993 165.446 156.014 165.344 156.036C165.243 156.059 165.114 156.071 164.957 156.071C164.721 156.071 164.489 156.02 164.261 155.918C164.036 155.817 163.849 155.661 163.7 155.453C163.554 155.245 163.48 154.982 163.48 154.665V149.239ZM166.744 156V150.545H167.582V156H166.744ZM167.17 149.636C167.006 149.636 166.866 149.581 166.747 149.469C166.631 149.358 166.573 149.224 166.573 149.068C166.573 148.912 166.631 148.778 166.747 148.667C166.866 148.556 167.006 148.5 167.17 148.5C167.333 148.5 167.473 148.556 167.589 148.667C167.707 148.778 167.766 148.912 167.766 149.068C167.766 149.224 167.707 149.358 167.589 149.469C167.473 149.581 167.333 149.636 167.17 149.636ZM173.577 150.545L171.56 156H170.708L168.691 150.545H169.6L171.105 154.892H171.162L172.668 150.545H173.577ZM176.775 156.114C176.249 156.114 175.796 155.998 175.415 155.766C175.036 155.531 174.743 155.205 174.537 154.786C174.334 154.364 174.232 153.874 174.232 153.315C174.232 152.757 174.334 152.264 174.537 151.838C174.743 151.41 175.03 151.076 175.397 150.837C175.766 150.595 176.197 150.474 176.689 150.474C176.974 150.474 177.254 150.522 177.531 150.616C177.808 150.711 178.06 150.865 178.287 151.078C178.515 151.289 178.696 151.568 178.831 151.916C178.966 152.264 179.033 152.693 179.033 153.202V153.557H174.829V152.832H178.181C178.181 152.525 178.119 152.25 177.996 152.009C177.876 151.767 177.703 151.576 177.478 151.437C177.255 151.297 176.992 151.227 176.689 151.227C176.356 151.227 176.067 151.31 175.823 151.476C175.581 151.639 175.396 151.852 175.265 152.115C175.135 152.378 175.07 152.66 175.07 152.96V153.443C175.07 153.855 175.141 154.204 175.283 154.491C175.428 154.775 175.628 154.991 175.883 155.141C176.139 155.287 176.436 155.361 176.775 155.361C176.995 155.361 177.194 155.33 177.371 155.268C177.551 155.205 177.706 155.11 177.836 154.984C177.967 154.857 178.067 154.698 178.138 154.509L178.948 154.736C178.863 155.01 178.72 155.252 178.518 155.46C178.317 155.666 178.068 155.827 177.773 155.943C177.477 156.057 177.144 156.114 176.775 156.114ZM185.493 150.545V151.256H182.666V150.545H185.493ZM183.49 149.239H184.328V154.438C184.328 154.674 184.362 154.852 184.431 154.97C184.502 155.086 184.592 155.164 184.701 155.205C184.812 155.242 184.929 155.261 185.052 155.261C185.145 155.261 185.22 155.257 185.28 155.247C185.339 155.235 185.386 155.226 185.422 155.219L185.592 155.972C185.535 155.993 185.456 156.014 185.354 156.036C185.252 156.059 185.123 156.071 184.967 156.071C184.73 156.071 184.498 156.02 184.271 155.918C184.046 155.817 183.859 155.661 183.71 155.453C183.563 155.245 183.49 154.982 183.49 154.665V149.239ZM188.358 156.128C188.013 156.128 187.699 156.063 187.417 155.933C187.136 155.8 186.912 155.609 186.746 155.361C186.581 155.11 186.498 154.807 186.498 154.452C186.498 154.139 186.559 153.886 186.682 153.692C186.805 153.495 186.97 153.341 187.176 153.23C187.382 153.119 187.609 153.036 187.858 152.982C188.109 152.925 188.361 152.88 188.614 152.847C188.946 152.804 189.214 152.772 189.42 152.751C189.629 152.727 189.78 152.688 189.875 152.634C189.972 152.579 190.02 152.484 190.02 152.349V152.321C190.02 151.971 189.925 151.698 189.733 151.504C189.543 151.31 189.256 151.213 188.87 151.213C188.47 151.213 188.156 151.301 187.929 151.476C187.702 151.651 187.542 151.838 187.449 152.037L186.654 151.753C186.796 151.421 186.985 151.163 187.222 150.979C187.461 150.792 187.722 150.661 188.003 150.588C188.287 150.512 188.567 150.474 188.841 150.474C189.017 150.474 189.218 150.496 189.445 150.538C189.675 150.579 189.896 150.663 190.109 150.79C190.325 150.918 190.503 151.111 190.645 151.369C190.787 151.627 190.858 151.973 190.858 152.406V156H190.02V155.261H189.978C189.921 155.38 189.826 155.506 189.694 155.641C189.561 155.776 189.385 155.891 189.165 155.986C188.944 156.08 188.676 156.128 188.358 156.128ZM188.486 155.375C188.818 155.375 189.097 155.31 189.324 155.18C189.554 155.049 189.727 154.881 189.843 154.675C189.961 154.469 190.02 154.253 190.02 154.026V153.259C189.985 153.301 189.907 153.34 189.786 153.376C189.668 153.409 189.53 153.438 189.374 153.464C189.22 153.488 189.07 153.509 188.923 153.528C188.779 153.545 188.662 153.559 188.572 153.571C188.354 153.599 188.15 153.646 187.961 153.71C187.774 153.771 187.622 153.865 187.506 153.99C187.393 154.113 187.336 154.281 187.336 154.494C187.336 154.786 187.443 155.006 187.659 155.155C187.877 155.302 188.153 155.375 188.486 155.375ZM192.502 156V148.727H193.34V151.412H193.411C193.472 151.317 193.558 151.196 193.667 151.05C193.778 150.901 193.936 150.768 194.142 150.652C194.351 150.534 194.632 150.474 194.988 150.474C195.447 150.474 195.852 150.589 196.202 150.819C196.552 151.049 196.826 151.374 197.022 151.795C197.219 152.217 197.317 152.714 197.317 153.287C197.317 153.865 197.219 154.365 197.022 154.789C196.826 155.21 196.554 155.537 196.206 155.769C195.858 155.999 195.456 156.114 195.002 156.114C194.651 156.114 194.371 156.056 194.16 155.94C193.949 155.821 193.787 155.687 193.674 155.538C193.56 155.387 193.472 155.261 193.411 155.162H193.311V156H192.502ZM193.326 153.273C193.326 153.685 193.386 154.048 193.507 154.363C193.627 154.675 193.804 154.92 194.036 155.098C194.268 155.273 194.552 155.361 194.888 155.361C195.239 155.361 195.531 155.268 195.765 155.084C196.002 154.897 196.18 154.646 196.298 154.331C196.419 154.014 196.479 153.661 196.479 153.273C196.479 152.889 196.42 152.544 196.301 152.236C196.185 151.926 196.009 151.681 195.772 151.501C195.538 151.318 195.243 151.227 194.888 151.227C194.547 151.227 194.261 151.314 194.029 151.487C193.797 151.657 193.622 151.896 193.503 152.204C193.385 152.509 193.326 152.866 193.326 153.273ZM201.412 156V150.545H202.25V156H201.412ZM201.838 149.636C201.674 149.636 201.533 149.581 201.415 149.469C201.299 149.358 201.241 149.224 201.241 149.068C201.241 148.912 201.299 148.778 201.415 148.667C201.533 148.556 201.674 148.5 201.838 148.5C202.001 148.5 202.141 148.556 202.257 148.667C202.375 148.778 202.434 148.912 202.434 149.068C202.434 149.224 202.375 149.358 202.257 149.469C202.141 149.581 202.001 149.636 201.838 149.636ZM204.623 152.719V156H203.785V150.545H204.594V151.398H204.665C204.793 151.121 204.987 150.898 205.248 150.73C205.508 150.56 205.844 150.474 206.256 150.474C206.626 150.474 206.949 150.55 207.226 150.702C207.503 150.851 207.718 151.078 207.872 151.384C208.026 151.687 208.103 152.07 208.103 152.534V156H207.265V152.591C207.265 152.162 207.153 151.829 206.931 151.589C206.708 151.348 206.403 151.227 206.015 151.227C205.747 151.227 205.508 151.285 205.297 151.401C205.089 151.517 204.925 151.687 204.804 151.909C204.683 152.132 204.623 152.402 204.623 152.719ZM211.694 156.114C211.239 156.114 210.838 155.999 210.49 155.769C210.142 155.537 209.87 155.21 209.673 154.789C209.477 154.365 209.379 153.865 209.379 153.287C209.379 152.714 209.477 152.217 209.673 151.795C209.87 151.374 210.143 151.049 210.494 150.819C210.844 150.589 211.249 150.474 211.708 150.474C212.063 150.474 212.344 150.534 212.55 150.652C212.758 150.768 212.917 150.901 213.026 151.05C213.137 151.196 213.223 151.317 213.285 151.412H213.356V148.727H214.194V156H213.384V155.162H213.285C213.223 155.261 213.136 155.387 213.022 155.538C212.908 155.687 212.746 155.821 212.536 155.94C212.325 156.056 212.044 156.114 211.694 156.114ZM211.808 155.361C212.144 155.361 212.428 155.273 212.66 155.098C212.892 154.92 213.068 154.675 213.189 154.363C213.31 154.048 213.37 153.685 213.37 153.273C213.37 152.866 213.311 152.509 213.192 152.204C213.074 151.896 212.899 151.657 212.667 151.487C212.435 151.314 212.148 151.227 211.808 151.227C211.452 151.227 211.156 151.318 210.92 151.501C210.685 151.681 210.509 151.926 210.391 152.236C210.275 152.544 210.217 152.889 210.217 153.273C210.217 153.661 210.276 154.014 210.394 154.331C210.515 154.646 210.692 154.897 210.927 155.084C211.164 155.268 211.457 155.361 211.808 155.361ZM215.845 156V150.545H216.683V156H215.845ZM216.271 149.636C216.108 149.636 215.967 149.581 215.849 149.469C215.733 149.358 215.675 149.224 215.675 149.068C215.675 148.912 215.733 148.778 215.849 148.667C215.967 148.556 216.108 148.5 216.271 148.5C216.435 148.5 216.574 148.556 216.69 148.667C216.809 148.778 216.868 148.912 216.868 149.068C216.868 149.224 216.809 149.358 216.69 149.469C216.574 149.581 216.435 149.636 216.271 149.636ZM220.434 156.114C219.923 156.114 219.482 155.993 219.113 155.751C218.744 155.51 218.46 155.177 218.261 154.754C218.062 154.33 217.963 153.846 217.963 153.301C217.963 152.747 218.064 152.258 218.268 151.835C218.474 151.408 218.76 151.076 219.127 150.837C219.497 150.595 219.927 150.474 220.42 150.474C220.803 150.474 221.149 150.545 221.457 150.688C221.765 150.83 222.017 151.028 222.213 151.284C222.41 151.54 222.532 151.838 222.579 152.179H221.741C221.677 151.93 221.535 151.71 221.315 151.518C221.097 151.324 220.803 151.227 220.434 151.227C220.107 151.227 219.821 151.312 219.575 151.483C219.331 151.651 219.14 151.889 219.003 152.197C218.868 152.502 218.801 152.861 218.801 153.273C218.801 153.694 218.867 154.061 218.999 154.374C219.134 154.686 219.324 154.929 219.568 155.102C219.814 155.274 220.103 155.361 220.434 155.361C220.652 155.361 220.85 155.323 221.027 155.247C221.205 155.171 221.355 155.062 221.478 154.92C221.601 154.778 221.689 154.608 221.741 154.409H222.579C222.532 154.731 222.414 155.021 222.227 155.279C222.043 155.535 221.798 155.738 221.492 155.89C221.189 156.039 220.837 156.114 220.434 156.114ZM225.409 156.128C225.064 156.128 224.75 156.063 224.468 155.933C224.186 155.8 223.963 155.609 223.797 155.361C223.631 155.11 223.548 154.807 223.548 154.452C223.548 154.139 223.61 153.886 223.733 153.692C223.856 153.495 224.021 153.341 224.227 153.23C224.433 153.119 224.66 153.036 224.909 152.982C225.16 152.925 225.412 152.88 225.665 152.847C225.996 152.804 226.265 152.772 226.471 152.751C226.679 152.727 226.831 152.688 226.926 152.634C227.023 152.579 227.071 152.484 227.071 152.349V152.321C227.071 151.971 226.975 151.698 226.784 151.504C226.594 151.31 226.307 151.213 225.921 151.213C225.521 151.213 225.207 151.301 224.98 151.476C224.752 151.651 224.593 151.838 224.5 152.037L223.705 151.753C223.847 151.421 224.036 151.163 224.273 150.979C224.512 150.792 224.772 150.661 225.054 150.588C225.338 150.512 225.618 150.474 225.892 150.474C226.067 150.474 226.269 150.496 226.496 150.538C226.726 150.579 226.947 150.663 227.16 150.79C227.375 150.918 227.554 151.111 227.696 151.369C227.838 151.627 227.909 151.973 227.909 152.406V156H227.071V155.261H227.029C226.972 155.38 226.877 155.506 226.744 155.641C226.612 155.776 226.436 155.891 226.215 155.986C225.995 156.08 225.727 156.128 225.409 156.128ZM225.537 155.375C225.869 155.375 226.148 155.31 226.375 155.18C226.605 155.049 226.778 154.881 226.894 154.675C227.012 154.469 227.071 154.253 227.071 154.026V153.259C227.036 153.301 226.958 153.34 226.837 153.376C226.718 153.409 226.581 153.438 226.425 153.464C226.271 153.488 226.121 153.509 225.974 153.528C225.829 153.545 225.712 153.559 225.622 153.571C225.405 153.599 225.201 153.646 225.012 153.71C224.825 153.771 224.673 153.865 224.557 153.99C224.443 154.113 224.387 154.281 224.387 154.494C224.387 154.786 224.494 155.006 224.71 155.155C224.927 155.302 225.203 155.375 225.537 155.375ZM231.811 150.545V151.256H228.984V150.545H231.811ZM229.808 149.239H230.646V154.438C230.646 154.674 230.681 154.852 230.749 154.97C230.82 155.086 230.91 155.164 231.019 155.205C231.13 155.242 231.248 155.261 231.371 155.261C231.463 155.261 231.539 155.257 231.598 155.247C231.657 155.235 231.705 155.226 231.74 155.219L231.911 155.972C231.854 155.993 231.774 156.014 231.673 156.036C231.571 156.059 231.442 156.071 231.286 156.071C231.049 156.071 230.817 156.02 230.589 155.918C230.365 155.817 230.178 155.661 230.028 155.453C229.882 155.245 229.808 154.982 229.808 154.665V149.239ZM235.229 156.114C234.737 156.114 234.305 155.996 233.933 155.762C233.564 155.528 233.275 155.2 233.066 154.778C232.86 154.357 232.757 153.865 232.757 153.301C232.757 152.733 232.86 152.237 233.066 151.813C233.275 151.389 233.564 151.06 233.933 150.826C234.305 150.592 234.737 150.474 235.229 150.474C235.721 150.474 236.152 150.592 236.522 150.826C236.893 151.06 237.182 151.389 237.388 151.813C237.596 152.237 237.701 152.733 237.701 153.301C237.701 153.865 237.596 154.357 237.388 154.778C237.182 155.2 236.893 155.528 236.522 155.762C236.152 155.996 235.721 156.114 235.229 156.114ZM235.229 155.361C235.603 155.361 235.911 155.265 236.152 155.073C236.394 154.881 236.573 154.629 236.689 154.317C236.805 154.004 236.863 153.666 236.863 153.301C236.863 152.937 236.805 152.597 236.689 152.282C236.573 151.967 236.394 151.713 236.152 151.518C235.911 151.324 235.603 151.227 235.229 151.227C234.855 151.227 234.547 151.324 234.306 151.518C234.064 151.713 233.886 151.967 233.77 152.282C233.654 152.597 233.596 152.937 233.596 153.301C233.596 153.666 233.654 154.004 233.77 154.317C233.886 154.629 234.064 154.881 234.306 155.073C234.547 155.265 234.855 155.361 235.229 155.361ZM238.98 156V150.545H239.79V151.369H239.846C239.946 151.099 240.126 150.88 240.386 150.712C240.647 150.544 240.94 150.46 241.267 150.46C241.328 150.46 241.405 150.461 241.498 150.464C241.59 150.466 241.66 150.47 241.707 150.474V151.327C241.679 151.32 241.614 151.309 241.512 151.295C241.412 151.278 241.307 151.27 241.196 151.27C240.931 151.27 240.694 151.326 240.486 151.437C240.28 151.546 240.116 151.697 239.996 151.891C239.877 152.083 239.818 152.302 239.818 152.548V156H238.98Z" fill="#E8178A"/>
<path d="M472 111L472 141" stroke="#E8178A"/>
<circle cx="1" cy="1" r="1" transform="matrix(-4.37114e-06 1 1 4.37114e-10 471 139)" fill="#E8178A"/>
<path d="M414.648 148.727V156H413.795L409.832 150.29H409.761V156H408.881V148.727H409.733L413.71 154.452H413.781V148.727H414.648ZM418.512 156.114C418.02 156.114 417.588 155.996 417.216 155.762C416.847 155.528 416.558 155.2 416.35 154.778C416.144 154.357 416.041 153.865 416.041 153.301C416.041 152.733 416.144 152.237 416.35 151.813C416.558 151.389 416.847 151.06 417.216 150.826C417.588 150.592 418.02 150.474 418.512 150.474C419.005 150.474 419.436 150.592 419.805 150.826C420.177 151.06 420.465 151.389 420.671 151.813C420.88 152.237 420.984 152.733 420.984 153.301C420.984 153.865 420.88 154.357 420.671 154.778C420.465 155.2 420.177 155.528 419.805 155.762C419.436 155.996 419.005 156.114 418.512 156.114ZM418.512 155.361C418.886 155.361 419.194 155.265 419.436 155.073C419.677 154.881 419.856 154.629 419.972 154.317C420.088 154.004 420.146 153.666 420.146 153.301C420.146 152.937 420.088 152.597 419.972 152.282C419.856 151.967 419.677 151.713 419.436 151.518C419.194 151.324 418.886 151.227 418.512 151.227C418.138 151.227 417.83 151.324 417.589 151.518C417.347 151.713 417.169 151.967 417.053 152.282C416.937 152.597 416.879 152.937 416.879 153.301C416.879 153.666 416.937 154.004 417.053 154.317C417.169 154.629 417.347 154.881 417.589 155.073C417.83 155.265 418.138 155.361 418.512 155.361ZM424.635 150.545V151.256H421.809V150.545H424.635ZM422.632 149.239H423.471V154.438C423.471 154.674 423.505 154.852 423.574 154.97C423.645 155.086 423.734 155.164 423.843 155.205C423.955 155.242 424.072 155.261 424.195 155.261C424.287 155.261 424.363 155.257 424.422 155.247C424.481 155.235 424.529 155.226 424.564 155.219L424.735 155.972C424.678 155.993 424.599 156.014 424.497 156.036C424.395 156.059 424.266 156.071 424.11 156.071C423.873 156.071 423.641 156.02 423.414 155.918C423.189 155.817 423.002 155.661 422.853 155.453C422.706 155.245 422.632 154.982 422.632 154.665V149.239ZM430.314 156.128C429.968 156.128 429.654 156.063 429.373 155.933C429.091 155.8 428.867 155.609 428.701 155.361C428.536 155.11 428.453 154.807 428.453 154.452C428.453 154.139 428.514 153.886 428.637 153.692C428.761 153.495 428.925 153.341 429.131 153.23C429.337 153.119 429.564 153.036 429.813 152.982C430.064 152.925 430.316 152.88 430.569 152.847C430.901 152.804 431.169 152.772 431.375 152.751C431.584 152.727 431.735 152.688 431.83 152.634C431.927 152.579 431.975 152.484 431.975 152.349V152.321C431.975 151.971 431.88 151.698 431.688 151.504C431.498 151.31 431.211 151.213 430.825 151.213C430.425 151.213 430.111 151.301 429.884 151.476C429.657 151.651 429.497 151.838 429.404 152.037L428.609 151.753C428.751 151.421 428.94 151.163 429.177 150.979C429.416 150.792 429.677 150.661 429.958 150.588C430.243 150.512 430.522 150.474 430.797 150.474C430.972 150.474 431.173 150.496 431.4 150.538C431.63 150.579 431.851 150.663 432.064 150.79C432.28 150.918 432.458 151.111 432.6 151.369C432.743 151.627 432.814 151.973 432.814 152.406V156H431.975V155.261H431.933C431.876 155.38 431.781 155.506 431.649 155.641C431.516 155.776 431.34 155.891 431.12 155.986C430.9 156.08 430.631 156.128 430.314 156.128ZM430.441 155.375C430.773 155.375 431.052 155.31 431.279 155.18C431.509 155.049 431.682 154.881 431.798 154.675C431.916 154.469 431.975 154.253 431.975 154.026V153.259C431.94 153.301 431.862 153.34 431.741 153.376C431.623 153.409 431.485 153.438 431.329 153.464C431.175 153.488 431.025 153.509 430.878 153.528C430.734 153.545 430.617 153.559 430.527 153.571C430.309 153.599 430.105 153.646 429.916 153.71C429.729 153.771 429.577 153.865 429.461 153.99C429.348 154.113 429.291 154.281 429.291 154.494C429.291 154.786 429.399 155.006 429.614 155.155C429.832 155.302 430.108 155.375 430.441 155.375ZM436.559 156.114C436.048 156.114 435.607 155.993 435.238 155.751C434.869 155.51 434.585 155.177 434.386 154.754C434.187 154.33 434.088 153.846 434.088 153.301C434.088 152.747 434.189 152.258 434.393 151.835C434.599 151.408 434.885 151.076 435.252 150.837C435.622 150.595 436.052 150.474 436.545 150.474C436.928 150.474 437.274 150.545 437.582 150.688C437.89 150.83 438.142 151.028 438.338 151.284C438.535 151.54 438.657 151.838 438.704 152.179H437.866C437.802 151.93 437.66 151.71 437.44 151.518C437.222 151.324 436.928 151.227 436.559 151.227C436.232 151.227 435.946 151.312 435.7 151.483C435.456 151.651 435.265 151.889 435.128 152.197C434.993 152.502 434.926 152.861 434.926 153.273C434.926 153.694 434.992 154.061 435.124 154.374C435.259 154.686 435.449 154.929 435.693 155.102C435.939 155.274 436.228 155.361 436.559 155.361C436.777 155.361 436.975 155.323 437.152 155.247C437.33 155.171 437.48 155.062 437.603 154.92C437.726 154.778 437.814 154.608 437.866 154.409H438.704C438.657 154.731 438.539 155.021 438.352 155.279C438.168 155.535 437.923 155.738 437.617 155.89C437.314 156.039 436.962 156.114 436.559 156.114ZM442.301 150.545V151.256H439.475V150.545H442.301ZM440.298 149.239H441.137V154.438C441.137 154.674 441.171 154.852 441.24 154.97C441.311 155.086 441.401 155.164 441.509 155.205C441.621 155.242 441.738 155.261 441.861 155.261C441.953 155.261 442.029 155.257 442.088 155.247C442.147 155.235 442.195 155.226 442.23 155.219L442.401 155.972C442.344 155.993 442.265 156.014 442.163 156.036C442.061 156.059 441.932 156.071 441.776 156.071C441.539 156.071 441.307 156.02 441.08 155.918C440.855 155.817 440.668 155.661 440.519 155.453C440.372 155.245 440.298 154.982 440.298 154.665V149.239ZM443.562 156V150.545H444.4V156H443.562ZM443.988 149.636C443.825 149.636 443.684 149.581 443.566 149.469C443.45 149.358 443.392 149.224 443.392 149.068C443.392 148.912 443.45 148.778 443.566 148.667C443.684 148.556 443.825 148.5 443.988 148.5C444.151 148.5 444.291 148.556 444.407 148.667C444.526 148.778 444.585 148.912 444.585 149.068C444.585 149.224 444.526 149.358 444.407 149.469C444.291 149.581 444.151 149.636 443.988 149.636ZM450.395 150.545L448.378 156H447.526L445.509 150.545H446.418L447.924 154.892H447.98L449.486 150.545H450.395ZM453.593 156.114C453.067 156.114 452.614 155.998 452.233 155.766C451.854 155.531 451.562 155.205 451.356 154.786C451.152 154.364 451.05 153.874 451.05 153.315C451.05 152.757 451.152 152.264 451.356 151.838C451.562 151.41 451.848 151.076 452.215 150.837C452.585 150.595 453.015 150.474 453.508 150.474C453.792 150.474 454.072 150.522 454.349 150.616C454.626 150.711 454.879 150.865 455.106 151.078C455.333 151.289 455.514 151.568 455.649 151.916C455.784 152.264 455.852 152.693 455.852 153.202V153.557H451.647V152.832H454.999C454.999 152.525 454.938 152.25 454.815 152.009C454.694 151.767 454.521 151.576 454.296 151.437C454.074 151.297 453.811 151.227 453.508 151.227C453.174 151.227 452.885 151.31 452.641 151.476C452.4 151.639 452.214 151.852 452.084 152.115C451.954 152.378 451.888 152.66 451.888 152.96V153.443C451.888 153.855 451.96 154.204 452.102 154.491C452.246 154.775 452.446 154.991 452.702 155.141C452.957 155.287 453.254 155.361 453.593 155.361C453.813 155.361 454.012 155.33 454.19 155.268C454.37 155.205 454.525 155.11 454.655 154.984C454.785 154.857 454.886 154.698 454.957 154.509L455.766 154.736C455.681 155.01 455.538 155.252 455.337 155.46C455.135 155.666 454.887 155.827 454.591 155.943C454.295 156.057 453.962 156.114 453.593 156.114ZM462.311 150.545V151.256H459.484V150.545H462.311ZM460.308 149.239H461.146V154.438C461.146 154.674 461.181 154.852 461.249 154.97C461.32 155.086 461.41 155.164 461.519 155.205C461.63 155.242 461.748 155.261 461.871 155.261C461.963 155.261 462.039 155.257 462.098 155.247C462.157 155.235 462.205 155.226 462.24 155.219L462.411 155.972C462.354 155.993 462.274 156.014 462.173 156.036C462.071 156.059 461.942 156.071 461.786 156.071C461.549 156.071 461.317 156.02 461.089 155.918C460.865 155.817 460.678 155.661 460.528 155.453C460.382 155.245 460.308 154.982 460.308 154.665V149.239ZM465.177 156.128C464.831 156.128 464.518 156.063 464.236 155.933C463.954 155.8 463.73 155.609 463.565 155.361C463.399 155.11 463.316 154.807 463.316 154.452C463.316 154.139 463.378 153.886 463.501 153.692C463.624 153.495 463.788 153.341 463.994 153.23C464.2 153.119 464.428 153.036 464.676 152.982C464.927 152.925 465.179 152.88 465.433 152.847C465.764 152.804 466.033 152.772 466.239 152.751C466.447 152.727 466.598 152.688 466.693 152.634C466.79 152.579 466.839 152.484 466.839 152.349V152.321C466.839 151.971 466.743 151.698 466.551 151.504C466.362 151.31 466.074 151.213 465.688 151.213C465.288 151.213 464.974 151.301 464.747 151.476C464.52 151.651 464.36 151.838 464.268 152.037L463.472 151.753C463.614 151.421 463.804 151.163 464.04 150.979C464.28 150.792 464.54 150.661 464.822 150.588C465.106 150.512 465.385 150.474 465.66 150.474C465.835 150.474 466.036 150.496 466.263 150.538C466.493 150.579 466.714 150.663 466.928 150.79C467.143 150.918 467.322 151.111 467.464 151.369C467.606 151.627 467.677 151.973 467.677 152.406V156H466.839V155.261H466.796C466.739 155.38 466.645 155.506 466.512 155.641C466.379 155.776 466.203 155.891 465.983 155.986C465.763 156.08 465.494 156.128 465.177 156.128ZM465.305 155.375C465.636 155.375 465.915 155.31 466.143 155.18C466.372 155.049 466.545 154.881 466.661 154.675C466.78 154.469 466.839 154.253 466.839 154.026V153.259C466.803 153.301 466.725 153.34 466.604 153.376C466.486 153.409 466.349 153.438 466.192 153.464C466.039 153.488 465.888 153.509 465.741 153.528C465.597 153.545 465.48 153.559 465.39 153.571C465.172 153.599 464.969 153.646 464.779 153.71C464.592 153.771 464.441 153.865 464.325 153.99C464.211 154.113 464.154 154.281 464.154 154.494C464.154 154.786 464.262 155.006 464.477 155.155C464.695 155.302 464.971 155.375 465.305 155.375ZM469.32 156V148.727H470.158V151.412H470.229C470.291 151.317 470.376 151.196 470.485 151.05C470.596 150.901 470.755 150.768 470.961 150.652C471.169 150.534 471.451 150.474 471.806 150.474C472.265 150.474 472.67 150.589 473.02 150.819C473.371 151.049 473.644 151.374 473.841 151.795C474.037 152.217 474.135 152.714 474.135 153.287C474.135 153.865 474.037 154.365 473.841 154.789C473.644 155.21 473.372 155.537 473.024 155.769C472.676 155.999 472.275 156.114 471.82 156.114C471.47 156.114 471.189 156.056 470.979 155.94C470.768 155.821 470.606 155.687 470.492 155.538C470.378 155.387 470.291 155.261 470.229 155.162H470.13V156H469.32ZM470.144 153.273C470.144 153.685 470.204 154.048 470.325 154.363C470.446 154.675 470.622 154.92 470.854 155.098C471.086 155.273 471.37 155.361 471.706 155.361C472.057 155.361 472.349 155.268 472.584 155.084C472.82 154.897 472.998 154.646 473.116 154.331C473.237 154.014 473.297 153.661 473.297 153.273C473.297 152.889 473.238 152.544 473.12 152.236C473.004 151.926 472.827 151.681 472.591 151.501C472.356 151.318 472.062 151.227 471.706 151.227C471.366 151.227 471.079 151.314 470.847 151.487C470.615 151.657 470.44 151.896 470.322 152.204C470.203 152.509 470.144 152.866 470.144 153.273ZM479.281 151.767L478.528 151.98C478.481 151.855 478.411 151.733 478.319 151.614C478.229 151.494 478.106 151.394 477.949 151.316C477.793 151.238 477.593 151.199 477.349 151.199C477.015 151.199 476.737 151.276 476.515 151.43C476.295 151.581 476.184 151.774 476.184 152.009C476.184 152.217 476.26 152.381 476.412 152.502C476.563 152.623 476.8 152.723 477.122 152.804L477.932 153.003C478.419 153.121 478.783 153.302 479.022 153.546C479.261 153.788 479.381 154.099 479.381 154.48C479.381 154.793 479.291 155.072 479.111 155.318C478.933 155.564 478.684 155.759 478.365 155.901C478.045 156.043 477.674 156.114 477.25 156.114C476.693 156.114 476.233 155.993 475.868 155.751C475.504 155.51 475.273 155.157 475.176 154.693L475.971 154.494C476.047 154.788 476.19 155.008 476.401 155.155C476.614 155.302 476.892 155.375 477.236 155.375C477.626 155.375 477.936 155.292 478.166 155.126C478.398 154.958 478.514 154.757 478.514 154.523C478.514 154.333 478.448 154.175 478.315 154.047C478.183 153.917 477.979 153.82 477.704 153.756L476.795 153.543C476.296 153.424 475.929 153.241 475.694 152.992C475.462 152.741 475.346 152.428 475.346 152.051C475.346 151.743 475.433 151.471 475.606 151.234C475.781 150.998 476.019 150.812 476.319 150.677C476.622 150.542 476.966 150.474 477.349 150.474C477.889 150.474 478.313 150.593 478.621 150.83C478.931 151.066 479.151 151.379 479.281 151.767ZM483.568 156V148.727H484.406V151.412H484.477C484.539 151.317 484.624 151.196 484.733 151.05C484.844 150.901 485.003 150.768 485.209 150.652C485.417 150.534 485.699 150.474 486.054 150.474C486.513 150.474 486.918 150.589 487.268 150.819C487.619 151.049 487.892 151.374 488.089 151.795C488.285 152.217 488.384 152.714 488.384 153.287C488.384 153.865 488.285 154.365 488.089 154.789C487.892 155.21 487.62 155.537 487.272 155.769C486.924 155.999 486.523 156.114 486.068 156.114C485.718 156.114 485.437 156.056 485.227 155.94C485.016 155.821 484.854 155.687 484.74 155.538C484.626 155.387 484.539 155.261 484.477 155.162H484.378V156H483.568ZM484.392 153.273C484.392 153.685 484.452 154.048 484.573 154.363C484.694 154.675 484.87 154.92 485.102 155.098C485.334 155.273 485.618 155.361 485.955 155.361C486.305 155.361 486.597 155.268 486.832 155.084C487.068 154.897 487.246 154.646 487.364 154.331C487.485 154.014 487.545 153.661 487.545 153.273C487.545 152.889 487.486 152.544 487.368 152.236C487.252 151.926 487.076 151.681 486.839 151.501C486.604 151.318 486.31 151.227 485.955 151.227C485.614 151.227 485.327 151.314 485.095 151.487C484.863 151.657 484.688 151.896 484.57 152.204C484.451 152.509 484.392 152.866 484.392 153.273ZM491.881 156.114C491.389 156.114 490.957 155.996 490.585 155.762C490.216 155.528 489.927 155.2 489.719 154.778C489.513 154.357 489.41 153.865 489.41 153.301C489.41 152.733 489.513 152.237 489.719 151.813C489.927 151.389 490.216 151.06 490.585 150.826C490.957 150.592 491.389 150.474 491.881 150.474C492.374 150.474 492.805 150.592 493.174 150.826C493.546 151.06 493.835 151.389 494.04 151.813C494.249 152.237 494.353 152.733 494.353 153.301C494.353 153.865 494.249 154.357 494.04 154.778C493.835 155.2 493.546 155.528 493.174 155.762C492.805 155.996 492.374 156.114 491.881 156.114ZM491.881 155.361C492.255 155.361 492.563 155.265 492.805 155.073C493.046 154.881 493.225 154.629 493.341 154.317C493.457 154.004 493.515 153.666 493.515 153.301C493.515 152.937 493.457 152.597 493.341 152.282C493.225 151.967 493.046 151.713 492.805 151.518C492.563 151.324 492.255 151.227 491.881 151.227C491.507 151.227 491.2 151.324 490.958 151.518C490.717 151.713 490.538 151.967 490.422 152.282C490.306 152.597 490.248 152.937 490.248 153.301C490.248 153.666 490.306 154.004 490.422 154.317C490.538 154.629 490.717 154.881 490.958 155.073C491.2 155.265 491.507 155.361 491.881 155.361ZM498.004 150.545V151.256H495.178V150.545H498.004ZM496.002 149.239H496.84V154.438C496.84 154.674 496.874 154.852 496.943 154.97C497.014 155.086 497.104 155.164 497.213 155.205C497.324 155.242 497.441 155.261 497.564 155.261C497.656 155.261 497.732 155.257 497.791 155.247C497.851 155.235 497.898 155.226 497.933 155.219L498.104 155.972C498.047 155.993 497.968 156.014 497.866 156.036C497.764 156.059 497.635 156.071 497.479 156.071C497.242 156.071 497.01 156.02 496.783 155.918C496.558 155.817 496.371 155.661 496.222 155.453C496.075 155.245 496.002 154.982 496.002 154.665V149.239ZM501.637 150.545V151.256H498.811V150.545H501.637ZM499.634 149.239H500.472V154.438C500.472 154.674 500.507 154.852 500.575 154.97C500.646 155.086 500.736 155.164 500.845 155.205C500.957 155.242 501.074 155.261 501.197 155.261C501.289 155.261 501.365 155.257 501.424 155.247C501.483 155.235 501.531 155.226 501.566 155.219L501.737 155.972C501.68 155.993 501.601 156.014 501.499 156.036C501.397 156.059 501.268 156.071 501.112 156.071C500.875 156.071 500.643 156.02 500.416 155.918C500.191 155.817 500.004 155.661 499.855 155.453C499.708 155.245 499.634 154.982 499.634 154.665V149.239ZM505.055 156.114C504.563 156.114 504.131 155.996 503.759 155.762C503.39 155.528 503.101 155.2 502.893 154.778C502.687 154.357 502.584 153.865 502.584 153.301C502.584 152.733 502.687 152.237 502.893 151.813C503.101 151.389 503.39 151.06 503.759 150.826C504.131 150.592 504.563 150.474 505.055 150.474C505.548 150.474 505.979 150.592 506.348 150.826C506.72 151.06 507.008 151.389 507.214 151.813C507.423 152.237 507.527 152.733 507.527 153.301C507.527 153.865 507.423 154.357 507.214 154.778C507.008 155.2 506.72 155.528 506.348 155.762C505.979 155.996 505.548 156.114 505.055 156.114ZM505.055 155.361C505.429 155.361 505.737 155.265 505.979 155.073C506.22 154.881 506.399 154.629 506.515 154.317C506.631 154.004 506.689 153.666 506.689 153.301C506.689 152.937 506.631 152.597 506.515 152.282C506.399 151.967 506.22 151.713 505.979 151.518C505.737 151.324 505.429 151.227 505.055 151.227C504.681 151.227 504.373 151.324 504.132 151.518C503.89 151.713 503.712 151.967 503.596 152.282C503.48 152.597 503.422 152.937 503.422 153.301C503.422 153.666 503.48 154.004 503.596 154.317C503.712 154.629 503.89 154.881 504.132 155.073C504.373 155.265 504.681 155.361 505.055 155.361ZM508.806 156V150.545H509.616V151.398H509.687C509.8 151.107 509.984 150.88 510.237 150.719C510.491 150.556 510.795 150.474 511.15 150.474C511.51 150.474 511.809 150.556 512.048 150.719C512.29 150.88 512.478 151.107 512.613 151.398H512.67C512.809 151.116 513.019 150.892 513.298 150.727C513.578 150.558 513.913 150.474 514.303 150.474C514.791 150.474 515.19 150.627 515.5 150.933C515.81 151.236 515.965 151.708 515.965 152.349V156H515.127V152.349C515.127 151.947 515.017 151.659 514.797 151.487C514.577 151.314 514.317 151.227 514.019 151.227C513.636 151.227 513.339 151.343 513.128 151.575C512.917 151.805 512.812 152.096 512.812 152.449V156H511.96V152.264C511.96 151.954 511.859 151.704 511.658 151.515C511.456 151.323 511.197 151.227 510.88 151.227C510.662 151.227 510.459 151.285 510.269 151.401C510.082 151.517 509.931 151.678 509.815 151.884C509.701 152.088 509.644 152.323 509.644 152.591V156H508.806ZM521.148 148.727V156H520.31V148.727H521.148ZM522.683 156V150.545H523.521V156H522.683ZM523.109 149.636C522.946 149.636 522.805 149.581 522.687 149.469C522.571 149.358 522.513 149.224 522.513 149.068C522.513 148.912 522.571 148.778 522.687 148.667C522.805 148.556 522.946 148.5 523.109 148.5C523.273 148.5 523.412 148.556 523.528 148.667C523.647 148.778 523.706 148.912 523.706 149.068C523.706 149.224 523.647 149.358 523.528 149.469C523.412 149.581 523.273 149.636 523.109 149.636ZM525.894 152.719V156H525.056V150.545H525.866V151.398H525.937C526.065 151.121 526.259 150.898 526.519 150.73C526.78 150.56 527.116 150.474 527.528 150.474C527.897 150.474 528.22 150.55 528.497 150.702C528.774 150.851 528.99 151.078 529.143 151.384C529.297 151.687 529.374 152.07 529.374 152.534V156H528.536V152.591C528.536 152.162 528.425 151.829 528.202 151.589C527.98 151.348 527.674 151.227 527.286 151.227C527.019 151.227 526.78 151.285 526.569 151.401C526.361 151.517 526.196 151.687 526.075 151.909C525.955 152.132 525.894 152.402 525.894 152.719ZM533.193 156.114C532.667 156.114 532.214 155.998 531.833 155.766C531.454 155.531 531.161 155.205 530.955 154.786C530.752 154.364 530.65 153.874 530.65 153.315C530.65 152.757 530.752 152.264 530.955 151.838C531.161 151.41 531.448 151.076 531.815 150.837C532.184 150.595 532.615 150.474 533.107 150.474C533.392 150.474 533.672 150.522 533.949 150.616C534.226 150.711 534.478 150.865 534.705 151.078C534.933 151.289 535.114 151.568 535.249 151.916C535.384 152.264 535.451 152.693 535.451 153.202V153.557H531.247V152.832H534.599C534.599 152.525 534.537 152.25 534.414 152.009C534.294 151.767 534.121 151.576 533.896 151.437C533.673 151.297 533.41 151.227 533.107 151.227C532.774 151.227 532.485 151.31 532.241 151.476C531.999 151.639 531.814 151.852 531.683 152.115C531.553 152.378 531.488 152.66 531.488 152.96V153.443C531.488 153.855 531.559 154.204 531.701 154.491C531.846 154.775 532.046 154.991 532.301 155.141C532.557 155.287 532.854 155.361 533.193 155.361C533.413 155.361 533.612 155.33 533.789 155.268C533.969 155.205 534.124 155.11 534.254 154.984C534.385 154.857 534.485 154.698 534.556 154.509L535.366 154.736C535.281 155.01 535.137 155.252 534.936 155.46C534.735 155.666 534.486 155.827 534.191 155.943C533.895 156.057 533.562 156.114 533.193 156.114Z" fill="#E8178A"/>
<path d="M445.648 32.7273V40H444.795L440.832 34.2898H440.761V40H439.881V32.7273H440.733L444.71 38.4517H444.781V32.7273H445.648ZM449.512 40.1136C449.02 40.1136 448.588 39.9964 448.216 39.7621C447.847 39.5277 447.558 39.1998 447.35 38.7784C447.144 38.357 447.041 37.8646 447.041 37.3011C447.041 36.733 447.144 36.237 447.35 35.8132C447.558 35.3894 447.847 35.0604 448.216 34.826C448.588 34.5916 449.02 34.4744 449.512 34.4744C450.005 34.4744 450.436 34.5916 450.805 34.826C451.177 35.0604 451.465 35.3894 451.671 35.8132C451.88 36.237 451.984 36.733 451.984 37.3011C451.984 37.8646 451.88 38.357 451.671 38.7784C451.465 39.1998 451.177 39.5277 450.805 39.7621C450.436 39.9964 450.005 40.1136 449.512 40.1136ZM449.512 39.3608C449.886 39.3608 450.194 39.2649 450.436 39.0732C450.677 38.8814 450.856 38.6293 450.972 38.3168C451.088 38.0043 451.146 37.6657 451.146 37.3011C451.146 36.9366 451.088 36.5968 450.972 36.282C450.856 35.9671 450.677 35.7126 450.436 35.5185C450.194 35.3243 449.886 35.2273 449.512 35.2273C449.138 35.2273 448.83 35.3243 448.589 35.5185C448.347 35.7126 448.169 35.9671 448.053 36.282C447.937 36.5968 447.879 36.9366 447.879 37.3011C447.879 37.6657 447.937 38.0043 448.053 38.3168C448.169 38.6293 448.347 38.8814 448.589 39.0732C448.83 39.2649 449.138 39.3608 449.512 39.3608ZM455.635 34.5455V35.2557H452.809V34.5455H455.635ZM453.632 33.2386H454.471V38.4375C454.471 38.6742 454.505 38.8518 454.574 38.9702C454.645 39.0862 454.734 39.1643 454.843 39.2045C454.955 39.2424 455.072 39.2614 455.195 39.2614C455.287 39.2614 455.363 39.2566 455.422 39.2472C455.481 39.2353 455.529 39.2259 455.564 39.2188L455.735 39.9716C455.678 39.9929 455.599 40.0142 455.497 40.0355C455.395 40.0592 455.266 40.071 455.11 40.071C454.873 40.071 454.641 40.0201 454.414 39.9183C454.189 39.8165 454.002 39.6615 453.853 39.4531C453.706 39.2448 453.632 38.982 453.632 38.6648V33.2386ZM461.314 40.1278C460.968 40.1278 460.654 40.0627 460.373 39.9325C460.091 39.8 459.867 39.6094 459.701 39.3608C459.536 39.1098 459.453 38.8068 459.453 38.4517C459.453 38.1392 459.514 37.8859 459.637 37.6918C459.761 37.4953 459.925 37.3414 460.131 37.2301C460.337 37.1188 460.564 37.036 460.813 36.9815C461.064 36.9247 461.316 36.8797 461.569 36.8466C461.901 36.804 462.169 36.772 462.375 36.7507C462.584 36.727 462.735 36.688 462.83 36.6335C462.927 36.5791 462.975 36.4844 462.975 36.3494V36.321C462.975 35.9706 462.88 35.6984 462.688 35.5043C462.498 35.3101 462.211 35.2131 461.825 35.2131C461.425 35.2131 461.111 35.3007 460.884 35.4759C460.657 35.651 460.497 35.8381 460.404 36.0369L459.609 35.7528C459.751 35.4214 459.94 35.1634 460.177 34.9787C460.416 34.7917 460.677 34.6615 460.958 34.5881C461.243 34.5123 461.522 34.4744 461.797 34.4744C461.972 34.4744 462.173 34.4957 462.4 34.5384C462.63 34.5786 462.851 34.6626 463.064 34.7905C463.28 34.9183 463.458 35.1113 463.6 35.3693C463.743 35.6274 463.814 35.973 463.814 36.4062V40H462.975V39.2614H462.933C462.876 39.3797 462.781 39.5064 462.649 39.6413C462.516 39.7763 462.34 39.8911 462.12 39.9858C461.9 40.0805 461.631 40.1278 461.314 40.1278ZM461.441 39.375C461.773 39.375 462.052 39.3099 462.279 39.1797C462.509 39.0495 462.682 38.8814 462.798 38.6754C462.916 38.4695 462.975 38.2528 462.975 38.0256V37.2585C462.94 37.3011 462.862 37.3402 462.741 37.3757C462.623 37.4089 462.485 37.4384 462.329 37.4645C462.175 37.4882 462.025 37.5095 461.878 37.5284C461.734 37.545 461.617 37.5592 461.527 37.571C461.309 37.5994 461.105 37.6456 460.916 37.7095C460.729 37.7711 460.577 37.8646 460.461 37.9901C460.348 38.1132 460.291 38.2812 460.291 38.4943C460.291 38.7855 460.399 39.0057 460.614 39.1548C460.832 39.3016 461.108 39.375 461.441 39.375ZM467.559 40.1136C467.048 40.1136 466.607 39.9929 466.238 39.7514C465.869 39.5099 465.585 39.1773 465.386 38.7536C465.187 38.3298 465.088 37.8456 465.088 37.3011C465.088 36.7472 465.189 36.2583 465.393 35.8345C465.599 35.4084 465.885 35.0758 466.252 34.8366C466.622 34.5952 467.052 34.4744 467.545 34.4744C467.928 34.4744 468.274 34.5455 468.582 34.6875C468.89 34.8295 469.142 35.0284 469.338 35.2841C469.535 35.5398 469.657 35.8381 469.704 36.179H468.866C468.802 35.9304 468.66 35.7102 468.44 35.5185C468.222 35.3243 467.928 35.2273 467.559 35.2273C467.232 35.2273 466.946 35.3125 466.7 35.483C466.456 35.651 466.265 35.889 466.128 36.1967C465.993 36.5021 465.926 36.8608 465.926 37.2727C465.926 37.6941 465.992 38.0611 466.124 38.3736C466.259 38.6861 466.449 38.9287 466.693 39.1016C466.939 39.2744 467.228 39.3608 467.559 39.3608C467.777 39.3608 467.975 39.3229 468.152 39.2472C468.33 39.1714 468.48 39.0625 468.603 38.9205C468.726 38.7784 468.814 38.608 468.866 38.4091H469.704C469.657 38.7311 469.539 39.0211 469.352 39.2791C469.168 39.5348 468.923 39.7384 468.617 39.8899C468.314 40.0391 467.962 40.1136 467.559 40.1136ZM473.301 34.5455V35.2557H470.475V34.5455H473.301ZM471.298 33.2386H472.137V38.4375C472.137 38.6742 472.171 38.8518 472.24 38.9702C472.311 39.0862 472.401 39.1643 472.509 39.2045C472.621 39.2424 472.738 39.2614 472.861 39.2614C472.953 39.2614 473.029 39.2566 473.088 39.2472C473.147 39.2353 473.195 39.2259 473.23 39.2188L473.401 39.9716C473.344 39.9929 473.265 40.0142 473.163 40.0355C473.061 40.0592 472.932 40.071 472.776 40.071C472.539 40.071 472.307 40.0201 472.08 39.9183C471.855 39.8165 471.668 39.6615 471.519 39.4531C471.372 39.2448 471.298 38.982 471.298 38.6648V33.2386ZM474.562 40V34.5455H475.4V40H474.562ZM474.988 33.6364C474.825 33.6364 474.684 33.5807 474.566 33.4695C474.45 33.3582 474.392 33.2244 474.392 33.0682C474.392 32.9119 474.45 32.7782 474.566 32.6669C474.684 32.5556 474.825 32.5 474.988 32.5C475.151 32.5 475.291 32.5556 475.407 32.6669C475.526 32.7782 475.585 32.9119 475.585 33.0682C475.585 33.2244 475.526 33.3582 475.407 33.4695C475.291 33.5807 475.151 33.6364 474.988 33.6364ZM481.395 34.5455L479.378 40H478.526L476.509 34.5455H477.418L478.924 38.892H478.98L480.486 34.5455H481.395ZM484.593 40.1136C484.067 40.1136 483.614 39.9976 483.233 39.7656C482.854 39.5312 482.562 39.2045 482.356 38.7855C482.152 38.3641 482.05 37.8741 482.05 37.3153C482.05 36.7566 482.152 36.2642 482.356 35.8381C482.562 35.4096 482.848 35.0758 483.215 34.8366C483.585 34.5952 484.015 34.4744 484.508 34.4744C484.792 34.4744 485.072 34.5218 485.349 34.6165C485.626 34.7112 485.879 34.8651 486.106 35.0781C486.333 35.2888 486.514 35.5682 486.649 35.9162C486.784 36.2642 486.852 36.6927 486.852 37.2017V37.5568H482.647V36.8324H485.999C485.999 36.5246 485.938 36.25 485.815 36.0085C485.694 35.767 485.521 35.5765 485.296 35.4368C485.074 35.2971 484.811 35.2273 484.508 35.2273C484.174 35.2273 483.885 35.3101 483.641 35.4759C483.4 35.6392 483.214 35.8523 483.084 36.1151C482.954 36.3778 482.888 36.6596 482.888 36.9602V37.4432C482.888 37.8551 482.96 38.2043 483.102 38.4908C483.246 38.7749 483.446 38.9915 483.702 39.1406C483.957 39.2874 484.254 39.3608 484.593 39.3608C484.813 39.3608 485.012 39.33 485.19 39.2685C485.37 39.2045 485.525 39.1098 485.655 38.9844C485.785 38.8565 485.886 38.6979 485.957 38.5085L486.766 38.7358C486.681 39.0104 486.538 39.2519 486.337 39.4602C486.135 39.6662 485.887 39.8272 485.591 39.9432C485.295 40.0568 484.962 40.1136 484.593 40.1136ZM493.311 34.5455V35.2557H490.484V34.5455H493.311ZM491.308 33.2386H492.146V38.4375C492.146 38.6742 492.181 38.8518 492.249 38.9702C492.32 39.0862 492.41 39.1643 492.519 39.2045C492.63 39.2424 492.748 39.2614 492.871 39.2614C492.963 39.2614 493.039 39.2566 493.098 39.2472C493.157 39.2353 493.205 39.2259 493.24 39.2188L493.411 39.9716C493.354 39.9929 493.274 40.0142 493.173 40.0355C493.071 40.0592 492.942 40.071 492.786 40.071C492.549 40.071 492.317 40.0201 492.089 39.9183C491.865 39.8165 491.678 39.6615 491.528 39.4531C491.382 39.2448 491.308 38.982 491.308 38.6648V33.2386ZM496.177 40.1278C495.831 40.1278 495.518 40.0627 495.236 39.9325C494.954 39.8 494.73 39.6094 494.565 39.3608C494.399 39.1098 494.316 38.8068 494.316 38.4517C494.316 38.1392 494.378 37.8859 494.501 37.6918C494.624 37.4953 494.788 37.3414 494.994 37.2301C495.2 37.1188 495.428 37.036 495.676 36.9815C495.927 36.9247 496.179 36.8797 496.433 36.8466C496.764 36.804 497.033 36.772 497.239 36.7507C497.447 36.727 497.598 36.688 497.693 36.6335C497.79 36.5791 497.839 36.4844 497.839 36.3494V36.321C497.839 35.9706 497.743 35.6984 497.551 35.5043C497.362 35.3101 497.074 35.2131 496.688 35.2131C496.288 35.2131 495.974 35.3007 495.747 35.4759C495.52 35.651 495.36 35.8381 495.268 36.0369L494.472 35.7528C494.614 35.4214 494.804 35.1634 495.04 34.9787C495.28 34.7917 495.54 34.6615 495.822 34.5881C496.106 34.5123 496.385 34.4744 496.66 34.4744C496.835 34.4744 497.036 34.4957 497.263 34.5384C497.493 34.5786 497.714 34.6626 497.928 34.7905C498.143 34.9183 498.322 35.1113 498.464 35.3693C498.606 35.6274 498.677 35.973 498.677 36.4062V40H497.839V39.2614H497.796C497.739 39.3797 497.645 39.5064 497.512 39.6413C497.379 39.7763 497.203 39.8911 496.983 39.9858C496.763 40.0805 496.494 40.1278 496.177 40.1278ZM496.305 39.375C496.636 39.375 496.915 39.3099 497.143 39.1797C497.372 39.0495 497.545 38.8814 497.661 38.6754C497.78 38.4695 497.839 38.2528 497.839 38.0256V37.2585C497.803 37.3011 497.725 37.3402 497.604 37.3757C497.486 37.4089 497.349 37.4384 497.192 37.4645C497.039 37.4882 496.888 37.5095 496.741 37.5284C496.597 37.545 496.48 37.5592 496.39 37.571C496.172 37.5994 495.969 37.6456 495.779 37.7095C495.592 37.7711 495.441 37.8646 495.325 37.9901C495.211 38.1132 495.154 38.2812 495.154 38.4943C495.154 38.7855 495.262 39.0057 495.477 39.1548C495.695 39.3016 495.971 39.375 496.305 39.375ZM500.32 40V32.7273H501.158V35.4119H501.229C501.291 35.3172 501.376 35.1965 501.485 35.0497C501.596 34.9006 501.755 34.768 501.961 34.652C502.169 34.5336 502.451 34.4744 502.806 34.4744C503.265 34.4744 503.67 34.5893 504.02 34.8189C504.371 35.0485 504.644 35.3741 504.841 35.7955C505.037 36.2169 505.135 36.714 505.135 37.2869C505.135 37.8646 505.037 38.3653 504.841 38.7891C504.644 39.2105 504.372 39.5372 504.024 39.7692C503.676 39.9988 503.275 40.1136 502.82 40.1136C502.47 40.1136 502.189 40.0556 501.979 39.9396C501.768 39.8213 501.606 39.6875 501.492 39.5384C501.378 39.3868 501.291 39.2614 501.229 39.1619H501.13V40H500.32ZM501.144 37.2727C501.144 37.6847 501.204 38.0481 501.325 38.3629C501.446 38.6754 501.622 38.9205 501.854 39.098C502.086 39.2732 502.37 39.3608 502.706 39.3608C503.057 39.3608 503.349 39.2685 503.584 39.0838C503.82 38.8968 503.998 38.6458 504.116 38.331C504.237 38.0137 504.297 37.661 504.297 37.2727C504.297 36.8892 504.238 36.5436 504.12 36.2358C504.004 35.9257 503.827 35.6806 503.591 35.5007C503.356 35.3184 503.062 35.2273 502.706 35.2273C502.366 35.2273 502.079 35.3137 501.847 35.4865C501.615 35.657 501.44 35.8961 501.322 36.2038C501.203 36.5092 501.144 36.8655 501.144 37.2727Z" fill="#E8178A"/>
<path d="M472.5 48L472.5 78" stroke="#E8178A"/>
<circle cx="472.5" cy="77" r="1" transform="rotate(90 472.5 77)" fill="#E8178A"/>
</svg>
