<svg width="672" height="134" viewBox="0 0 672 134" fill="none" xmlns="http://www.w3.org/2000/svg">
<rect width="672" height="134" fill="#F6F6F6"/>
<rect width="351" height="44" transform="translate(160.5 32)" fill="white"/>
<line x1="160.5" y1="75.5" x2="511.5" y2="75.5" stroke="#EBEBEB"/>
<path d="M177.136 50.1307V48.3636H186.42V50.1307H182.824V60H180.733V50.1307H177.136ZM189.443 60.1761C188.89 60.1761 188.392 60.0777 187.949 59.8807C187.509 59.6799 187.161 59.3845 186.903 58.9943C186.65 58.6042 186.523 58.1231 186.523 57.5511C186.523 57.0587 186.614 56.6515 186.795 56.3295C186.977 56.0076 187.225 55.75 187.54 55.5568C187.854 55.3636 188.208 55.2178 188.602 55.1193C189 55.017 189.411 54.9432 189.835 54.8977C190.347 54.8447 190.761 54.7973 191.08 54.7557C191.398 54.7102 191.629 54.642 191.773 54.5511C191.92 54.4564 191.994 54.3106 191.994 54.1136V54.0795C191.994 53.6515 191.867 53.3201 191.614 53.0852C191.36 52.8504 190.994 52.733 190.517 52.733C190.013 52.733 189.614 52.8428 189.318 53.0625C189.027 53.2822 188.83 53.5417 188.727 53.8409L186.807 53.5682C186.958 53.0379 187.208 52.5947 187.557 52.2386C187.905 51.8788 188.331 51.6098 188.835 51.4318C189.339 51.25 189.896 51.1591 190.506 51.1591C190.926 51.1591 191.345 51.2083 191.761 51.3068C192.178 51.4053 192.559 51.5682 192.903 51.7955C193.248 52.0189 193.525 52.3239 193.733 52.7102C193.945 53.0966 194.051 53.5795 194.051 54.1591V60H192.074V58.8011H192.006C191.881 59.0436 191.705 59.2708 191.477 59.483C191.254 59.6913 190.972 59.8598 190.631 59.9886C190.294 60.1136 189.898 60.1761 189.443 60.1761ZM189.977 58.6648C190.39 58.6648 190.748 58.5833 191.051 58.4205C191.354 58.2538 191.587 58.0341 191.75 57.7614C191.917 57.4886 192 57.1913 192 56.8693V55.8409C191.936 55.8939 191.826 55.9432 191.67 55.9886C191.519 56.0341 191.348 56.0739 191.159 56.108C190.97 56.142 190.782 56.1723 190.597 56.1989C190.411 56.2254 190.25 56.2481 190.114 56.267C189.807 56.3087 189.532 56.3769 189.29 56.4716C189.047 56.5663 188.856 56.6989 188.716 56.8693C188.576 57.036 188.506 57.2519 188.506 57.517C188.506 57.8958 188.644 58.1818 188.92 58.375C189.197 58.5682 189.549 58.6648 189.977 58.6648ZM196.21 60V48.3636H198.267V52.7159H198.352C198.458 52.5038 198.608 52.2784 198.801 52.0398C198.994 51.7973 199.256 51.5909 199.585 51.4205C199.915 51.2462 200.335 51.1591 200.847 51.1591C201.521 51.1591 202.129 51.3314 202.67 51.6761C203.216 52.017 203.648 52.5227 203.966 53.1932C204.288 53.8598 204.449 54.678 204.449 55.6477C204.449 56.6061 204.292 57.4205 203.977 58.0909C203.663 58.7614 203.235 59.2727 202.693 59.625C202.152 59.9773 201.538 60.1534 200.852 60.1534C200.352 60.1534 199.938 60.0701 199.608 59.9034C199.278 59.7367 199.013 59.536 198.812 59.3011C198.616 59.0625 198.462 58.8371 198.352 58.625H198.233V60H196.21ZM198.227 55.6364C198.227 56.2008 198.307 56.6951 198.466 57.1193C198.629 57.5436 198.862 57.875 199.165 58.1136C199.472 58.3485 199.843 58.4659 200.278 58.4659C200.733 58.4659 201.114 58.3447 201.42 58.1023C201.727 57.8561 201.958 57.5208 202.114 57.0966C202.273 56.6686 202.352 56.1818 202.352 55.6364C202.352 55.0947 202.275 54.6136 202.119 54.1932C201.964 53.7727 201.733 53.4432 201.426 53.2045C201.119 52.9659 200.737 52.8466 200.278 52.8466C199.839 52.8466 199.466 52.9621 199.159 53.1932C198.852 53.4242 198.619 53.7481 198.46 54.1648C198.305 54.5814 198.227 55.072 198.227 55.6364ZM210.908 48.3636V60H208.8V50.4148H208.732L206.01 52.1534V50.2216L208.902 48.3636H210.908Z" fill="#0F67F5"/>
<line x1="160.5" y1="75" x2="229.5" y2="75" stroke="#0F67F5" stroke-width="2"/>
<path d="M246.273 49.6136V48.3636H255V49.6136H251.341V60H249.932V49.6136H246.273ZM258.374 60.2045C257.821 60.2045 257.319 60.1004 256.868 59.892C256.417 59.6799 256.059 59.375 255.794 58.9773C255.529 58.5758 255.396 58.0909 255.396 57.5227C255.396 57.0227 255.495 56.6174 255.692 56.3068C255.889 55.9924 256.152 55.7462 256.482 55.5682C256.811 55.3902 257.175 55.2576 257.572 55.1705C257.974 55.0795 258.377 55.0076 258.783 54.9545C259.313 54.8864 259.743 54.8352 260.072 54.8011C260.406 54.7633 260.648 54.7008 260.8 54.6136C260.955 54.5265 261.033 54.375 261.033 54.1591V54.1136C261.033 53.553 260.879 53.1174 260.572 52.8068C260.269 52.4962 259.809 52.3409 259.192 52.3409C258.552 52.3409 258.05 52.4811 257.686 52.7614C257.322 53.0417 257.067 53.3409 256.919 53.6591L255.646 53.2045C255.874 52.6742 256.177 52.2614 256.555 51.9659C256.938 51.6667 257.355 51.4583 257.805 51.3409C258.26 51.2197 258.707 51.1591 259.146 51.1591C259.427 51.1591 259.749 51.1932 260.112 51.2614C260.48 51.3258 260.834 51.4602 261.175 51.6648C261.519 51.8693 261.805 52.178 262.033 52.5909C262.26 53.0038 262.374 53.5568 262.374 54.25V60H261.033V58.8182H260.964C260.874 59.0076 260.722 59.2102 260.51 59.4261C260.298 59.642 260.016 59.8258 259.663 59.9773C259.311 60.1288 258.881 60.2045 258.374 60.2045ZM258.578 59C259.108 59 259.555 58.8958 259.919 58.6875C260.286 58.4792 260.563 58.2102 260.749 57.8807C260.938 57.5511 261.033 57.2045 261.033 56.8409V55.6136C260.976 55.6818 260.851 55.7443 260.658 55.8011C260.468 55.8542 260.249 55.9015 259.999 55.9432C259.752 55.9811 259.512 56.0152 259.277 56.0455C259.046 56.072 258.858 56.0947 258.714 56.1136C258.366 56.1591 258.04 56.233 257.737 56.3352C257.438 56.4337 257.196 56.5833 257.01 56.7841C256.828 56.9811 256.737 57.25 256.737 57.5909C256.737 58.0568 256.91 58.4091 257.254 58.6477C257.603 58.8826 258.044 59 258.578 59ZM265.003 60V48.3636H266.344V52.6591H266.457C266.556 52.5076 266.692 52.3144 266.866 52.0795C267.045 51.8409 267.298 51.6288 267.628 51.4432C267.961 51.2538 268.412 51.1591 268.98 51.1591C269.715 51.1591 270.363 51.3428 270.923 51.7102C271.484 52.0777 271.921 52.5985 272.236 53.2727C272.55 53.947 272.707 54.7424 272.707 55.6591C272.707 56.5833 272.55 57.3845 272.236 58.0625C271.921 58.7367 271.486 59.2595 270.929 59.6307C270.372 59.9981 269.73 60.1818 269.003 60.1818C268.442 60.1818 267.993 60.089 267.656 59.9034C267.319 59.714 267.06 59.5 266.878 59.2614C266.696 59.0189 266.556 58.8182 266.457 58.6591H266.298V60H265.003ZM266.321 55.6364C266.321 56.2955 266.418 56.8769 266.611 57.3807C266.804 57.8807 267.086 58.2727 267.457 58.5568C267.829 58.8371 268.283 58.9773 268.821 58.9773C269.382 58.9773 269.849 58.8295 270.224 58.5341C270.603 58.2348 270.887 57.8333 271.077 57.3295C271.27 56.822 271.366 56.2576 271.366 55.6364C271.366 55.0227 271.272 54.4697 271.082 53.9773C270.897 53.4811 270.615 53.089 270.236 52.8011C269.861 52.5095 269.389 52.3636 268.821 52.3636C268.276 52.3636 267.817 52.5019 267.446 52.7784C267.075 53.0511 266.795 53.4337 266.605 53.9261C266.416 54.4148 266.321 54.9848 266.321 55.6364ZM274.736 60V58.9773L278.577 54.7727C279.027 54.2803 279.399 53.8523 279.69 53.4886C279.982 53.1212 280.198 52.7765 280.338 52.4545C280.482 52.1288 280.554 51.7879 280.554 51.4318C280.554 51.0227 280.455 50.6686 280.259 50.3693C280.065 50.0701 279.8 49.839 279.463 49.6761C279.126 49.5133 278.747 49.4318 278.327 49.4318C277.88 49.4318 277.49 49.5246 277.156 49.7102C276.827 49.892 276.571 50.1477 276.389 50.4773C276.211 50.8068 276.122 51.1932 276.122 51.6364H274.781C274.781 50.9545 274.938 50.3561 275.253 49.8409C275.567 49.3258 275.995 48.9242 276.537 48.6364C277.082 48.3485 277.694 48.2045 278.372 48.2045C279.054 48.2045 279.658 48.3485 280.185 48.6364C280.711 48.9242 281.124 49.3125 281.423 49.8011C281.723 50.2898 281.872 50.8333 281.872 51.4318C281.872 51.8598 281.795 52.2784 281.639 52.6875C281.488 53.0928 281.223 53.5455 280.844 54.0455C280.469 54.5417 279.948 55.1477 279.281 55.8636L276.668 58.6591V58.75H282.077V60H274.736Z" fill="#333333"/>
<path d="M316.273 49.6136V48.3636H325V49.6136H321.341V60H319.932V49.6136H316.273ZM328.374 60.2045C327.821 60.2045 327.319 60.1004 326.868 59.892C326.417 59.6799 326.059 59.375 325.794 58.9773C325.529 58.5758 325.396 58.0909 325.396 57.5227C325.396 57.0227 325.495 56.6174 325.692 56.3068C325.889 55.9924 326.152 55.7462 326.482 55.5682C326.811 55.3902 327.175 55.2576 327.572 55.1705C327.974 55.0795 328.377 55.0076 328.783 54.9545C329.313 54.8864 329.743 54.8352 330.072 54.8011C330.406 54.7633 330.648 54.7008 330.8 54.6136C330.955 54.5265 331.033 54.375 331.033 54.1591V54.1136C331.033 53.553 330.879 53.1174 330.572 52.8068C330.269 52.4962 329.809 52.3409 329.192 52.3409C328.552 52.3409 328.05 52.4811 327.686 52.7614C327.322 53.0417 327.067 53.3409 326.919 53.6591L325.646 53.2045C325.874 52.6742 326.177 52.2614 326.555 51.9659C326.938 51.6667 327.355 51.4583 327.805 51.3409C328.26 51.2197 328.707 51.1591 329.146 51.1591C329.427 51.1591 329.749 51.1932 330.112 51.2614C330.48 51.3258 330.834 51.4602 331.175 51.6648C331.519 51.8693 331.805 52.178 332.033 52.5909C332.26 53.0038 332.374 53.5568 332.374 54.25V60H331.033V58.8182H330.964C330.874 59.0076 330.722 59.2102 330.51 59.4261C330.298 59.642 330.016 59.8258 329.663 59.9773C329.311 60.1288 328.881 60.2045 328.374 60.2045ZM328.578 59C329.108 59 329.555 58.8958 329.919 58.6875C330.286 58.4792 330.563 58.2102 330.749 57.8807C330.938 57.5511 331.033 57.2045 331.033 56.8409V55.6136C330.976 55.6818 330.851 55.7443 330.658 55.8011C330.468 55.8542 330.249 55.9015 329.999 55.9432C329.752 55.9811 329.512 56.0152 329.277 56.0455C329.046 56.072 328.858 56.0947 328.714 56.1136C328.366 56.1591 328.04 56.233 327.737 56.3352C327.438 56.4337 327.196 56.5833 327.01 56.7841C326.828 56.9811 326.737 57.25 326.737 57.5909C326.737 58.0568 326.91 58.4091 327.254 58.6477C327.603 58.8826 328.044 59 328.578 59ZM335.003 60V48.3636H336.344V52.6591H336.457C336.556 52.5076 336.692 52.3144 336.866 52.0795C337.045 51.8409 337.298 51.6288 337.628 51.4432C337.961 51.2538 338.412 51.1591 338.98 51.1591C339.715 51.1591 340.363 51.3428 340.923 51.7102C341.484 52.0777 341.921 52.5985 342.236 53.2727C342.55 53.947 342.707 54.7424 342.707 55.6591C342.707 56.5833 342.55 57.3845 342.236 58.0625C341.921 58.7367 341.486 59.2595 340.929 59.6307C340.372 59.9981 339.73 60.1818 339.003 60.1818C338.442 60.1818 337.993 60.089 337.656 59.9034C337.319 59.714 337.06 59.5 336.878 59.2614C336.696 59.0189 336.556 58.8182 336.457 58.6591H336.298V60H335.003ZM336.321 55.6364C336.321 56.2955 336.418 56.8769 336.611 57.3807C336.804 57.8807 337.086 58.2727 337.457 58.5568C337.829 58.8371 338.283 58.9773 338.821 58.9773C339.382 58.9773 339.849 58.8295 340.224 58.5341C340.603 58.2348 340.887 57.8333 341.077 57.3295C341.27 56.822 341.366 56.2576 341.366 55.6364C341.366 55.0227 341.272 54.4697 341.082 53.9773C340.897 53.4811 340.615 53.089 340.236 52.8011C339.861 52.5095 339.389 52.3636 338.821 52.3636C338.276 52.3636 337.817 52.5019 337.446 52.7784C337.075 53.0511 336.795 53.4337 336.605 53.9261C336.416 54.4148 336.321 54.9848 336.321 55.6364ZM348.668 60.1591C347.918 60.1591 347.249 60.0303 346.662 59.7727C346.079 59.5152 345.615 59.1572 345.27 58.6989C344.929 58.2367 344.743 57.7008 344.713 57.0909H346.145C346.175 57.4659 346.304 57.7898 346.531 58.0625C346.759 58.3314 347.056 58.5398 347.423 58.6875C347.791 58.8352 348.198 58.9091 348.645 58.9091C349.145 58.9091 349.588 58.822 349.974 58.6477C350.361 58.4735 350.664 58.2311 350.884 57.9205C351.103 57.6098 351.213 57.25 351.213 56.8409C351.213 56.4129 351.107 56.036 350.895 55.7102C350.683 55.3807 350.372 55.1231 349.963 54.9375C349.554 54.7519 349.054 54.6591 348.463 54.6591H347.531V53.4091H348.463C348.925 53.4091 349.33 53.3258 349.679 53.1591C350.031 52.9924 350.306 52.7576 350.503 52.4545C350.704 52.1515 350.804 51.7955 350.804 51.3864C350.804 50.9924 350.717 50.6496 350.543 50.358C350.368 50.0663 350.122 49.839 349.804 49.6761C349.49 49.5133 349.118 49.4318 348.69 49.4318C348.289 49.4318 347.91 49.5057 347.554 49.6534C347.202 49.7973 346.914 50.0076 346.69 50.2841C346.467 50.5568 346.346 50.8864 346.327 51.2727H344.963C344.986 50.6629 345.17 50.1288 345.514 49.6705C345.859 49.2083 346.31 48.8485 346.866 48.5909C347.427 48.3333 348.043 48.2045 348.713 48.2045C349.433 48.2045 350.05 48.3504 350.565 48.642C351.08 48.9299 351.476 49.3106 351.753 49.7841C352.029 50.2576 352.168 50.7689 352.168 51.3182C352.168 51.9735 351.995 52.5322 351.651 52.9943C351.31 53.4564 350.846 53.7765 350.259 53.9545V54.0455C350.993 54.1667 351.567 54.4792 351.98 54.983C352.393 55.483 352.599 56.1023 352.599 56.8409C352.599 57.4735 352.427 58.0417 352.082 58.5455C351.741 59.0455 351.276 59.4394 350.685 59.7273C350.094 60.0152 349.421 60.1591 348.668 60.1591Z" fill="#333333"/>
<path d="M387.273 49.6136V48.3636H396V49.6136H392.341V60H390.932V49.6136H387.273ZM399.374 60.2045C398.821 60.2045 398.319 60.1004 397.868 59.892C397.417 59.6799 397.059 59.375 396.794 58.9773C396.529 58.5758 396.396 58.0909 396.396 57.5227C396.396 57.0227 396.495 56.6174 396.692 56.3068C396.889 55.9924 397.152 55.7462 397.482 55.5682C397.811 55.3902 398.175 55.2576 398.572 55.1705C398.974 55.0795 399.377 55.0076 399.783 54.9545C400.313 54.8864 400.743 54.8352 401.072 54.8011C401.406 54.7633 401.648 54.7008 401.8 54.6136C401.955 54.5265 402.033 54.375 402.033 54.1591V54.1136C402.033 53.553 401.879 53.1174 401.572 52.8068C401.269 52.4962 400.809 52.3409 400.192 52.3409C399.552 52.3409 399.05 52.4811 398.686 52.7614C398.322 53.0417 398.067 53.3409 397.919 53.6591L396.646 53.2045C396.874 52.6742 397.177 52.2614 397.555 51.9659C397.938 51.6667 398.355 51.4583 398.805 51.3409C399.26 51.2197 399.707 51.1591 400.146 51.1591C400.427 51.1591 400.749 51.1932 401.112 51.2614C401.48 51.3258 401.834 51.4602 402.175 51.6648C402.519 51.8693 402.805 52.178 403.033 52.5909C403.26 53.0038 403.374 53.5568 403.374 54.25V60H402.033V58.8182H401.964C401.874 59.0076 401.722 59.2102 401.51 59.4261C401.298 59.642 401.016 59.8258 400.663 59.9773C400.311 60.1288 399.881 60.2045 399.374 60.2045ZM399.578 59C400.108 59 400.555 58.8958 400.919 58.6875C401.286 58.4792 401.563 58.2102 401.749 57.8807C401.938 57.5511 402.033 57.2045 402.033 56.8409V55.6136C401.976 55.6818 401.851 55.7443 401.658 55.8011C401.468 55.8542 401.249 55.9015 400.999 55.9432C400.752 55.9811 400.512 56.0152 400.277 56.0455C400.046 56.072 399.858 56.0947 399.714 56.1136C399.366 56.1591 399.04 56.233 398.737 56.3352C398.438 56.4337 398.196 56.5833 398.01 56.7841C397.828 56.9811 397.737 57.25 397.737 57.5909C397.737 58.0568 397.91 58.4091 398.254 58.6477C398.603 58.8826 399.044 59 399.578 59ZM406.003 60V48.3636H407.344V52.6591H407.457C407.556 52.5076 407.692 52.3144 407.866 52.0795C408.045 51.8409 408.298 51.6288 408.628 51.4432C408.961 51.2538 409.412 51.1591 409.98 51.1591C410.715 51.1591 411.363 51.3428 411.923 51.7102C412.484 52.0777 412.921 52.5985 413.236 53.2727C413.55 53.947 413.707 54.7424 413.707 55.6591C413.707 56.5833 413.55 57.3845 413.236 58.0625C412.921 58.7367 412.486 59.2595 411.929 59.6307C411.372 59.9981 410.73 60.1818 410.003 60.1818C409.442 60.1818 408.993 60.089 408.656 59.9034C408.319 59.714 408.06 59.5 407.878 59.2614C407.696 59.0189 407.556 58.8182 407.457 58.6591H407.298V60H406.003ZM407.321 55.6364C407.321 56.2955 407.418 56.8769 407.611 57.3807C407.804 57.8807 408.086 58.2727 408.457 58.5568C408.829 58.8371 409.283 58.9773 409.821 58.9773C410.382 58.9773 410.849 58.8295 411.224 58.5341C411.603 58.2348 411.887 57.8333 412.077 57.3295C412.27 56.822 412.366 56.2576 412.366 55.6364C412.366 55.0227 412.272 54.4697 412.082 53.9773C411.897 53.4811 411.615 53.089 411.236 52.8011C410.861 52.5095 410.389 52.3636 409.821 52.3636C409.276 52.3636 408.817 52.5019 408.446 52.7784C408.075 53.0511 407.795 53.4337 407.605 53.9261C407.416 54.4148 407.321 54.9848 407.321 55.6364ZM415.463 57.6136V56.4545L420.577 48.3636H421.418V50.1591H420.849L416.986 56.2727V56.3636H423.872V57.6136H415.463ZM420.94 60V57.2614V56.7216V48.3636H422.281V60H420.94Z" fill="#333333"/>
<path d="M458.273 49.6136V48.3636H467V49.6136H463.341V60H461.932V49.6136H458.273ZM470.374 60.2045C469.821 60.2045 469.319 60.1004 468.868 59.892C468.417 59.6799 468.059 59.375 467.794 58.9773C467.529 58.5758 467.396 58.0909 467.396 57.5227C467.396 57.0227 467.495 56.6174 467.692 56.3068C467.889 55.9924 468.152 55.7462 468.482 55.5682C468.811 55.3902 469.175 55.2576 469.572 55.1705C469.974 55.0795 470.377 55.0076 470.783 54.9545C471.313 54.8864 471.743 54.8352 472.072 54.8011C472.406 54.7633 472.648 54.7008 472.8 54.6136C472.955 54.5265 473.033 54.375 473.033 54.1591V54.1136C473.033 53.553 472.879 53.1174 472.572 52.8068C472.269 52.4962 471.809 52.3409 471.192 52.3409C470.552 52.3409 470.05 52.4811 469.686 52.7614C469.322 53.0417 469.067 53.3409 468.919 53.6591L467.646 53.2045C467.874 52.6742 468.177 52.2614 468.555 51.9659C468.938 51.6667 469.355 51.4583 469.805 51.3409C470.26 51.2197 470.707 51.1591 471.146 51.1591C471.427 51.1591 471.749 51.1932 472.112 51.2614C472.48 51.3258 472.834 51.4602 473.175 51.6648C473.519 51.8693 473.805 52.178 474.033 52.5909C474.26 53.0038 474.374 53.5568 474.374 54.25V60H473.033V58.8182H472.964C472.874 59.0076 472.722 59.2102 472.51 59.4261C472.298 59.642 472.016 59.8258 471.663 59.9773C471.311 60.1288 470.881 60.2045 470.374 60.2045ZM470.578 59C471.108 59 471.555 58.8958 471.919 58.6875C472.286 58.4792 472.563 58.2102 472.749 57.8807C472.938 57.5511 473.033 57.2045 473.033 56.8409V55.6136C472.976 55.6818 472.851 55.7443 472.658 55.8011C472.468 55.8542 472.249 55.9015 471.999 55.9432C471.752 55.9811 471.512 56.0152 471.277 56.0455C471.046 56.072 470.858 56.0947 470.714 56.1136C470.366 56.1591 470.04 56.233 469.737 56.3352C469.438 56.4337 469.196 56.5833 469.01 56.7841C468.828 56.9811 468.737 57.25 468.737 57.5909C468.737 58.0568 468.91 58.4091 469.254 58.6477C469.603 58.8826 470.044 59 470.578 59ZM477.003 60V48.3636H478.344V52.6591H478.457C478.556 52.5076 478.692 52.3144 478.866 52.0795C479.045 51.8409 479.298 51.6288 479.628 51.4432C479.961 51.2538 480.412 51.1591 480.98 51.1591C481.715 51.1591 482.363 51.3428 482.923 51.7102C483.484 52.0777 483.921 52.5985 484.236 53.2727C484.55 53.947 484.707 54.7424 484.707 55.6591C484.707 56.5833 484.55 57.3845 484.236 58.0625C483.921 58.7367 483.486 59.2595 482.929 59.6307C482.372 59.9981 481.73 60.1818 481.003 60.1818C480.442 60.1818 479.993 60.089 479.656 59.9034C479.319 59.714 479.06 59.5 478.878 59.2614C478.696 59.0189 478.556 58.8182 478.457 58.6591H478.298V60H477.003ZM478.321 55.6364C478.321 56.2955 478.418 56.8769 478.611 57.3807C478.804 57.8807 479.086 58.2727 479.457 58.5568C479.829 58.8371 480.283 58.9773 480.821 58.9773C481.382 58.9773 481.849 58.8295 482.224 58.5341C482.603 58.2348 482.887 57.8333 483.077 57.3295C483.27 56.822 483.366 56.2576 483.366 55.6364C483.366 55.0227 483.272 54.4697 483.082 53.9773C482.897 53.4811 482.615 53.089 482.236 52.8011C481.861 52.5095 481.389 52.3636 480.821 52.3636C480.276 52.3636 479.817 52.5019 479.446 52.7784C479.075 53.0511 478.795 53.4337 478.605 53.9261C478.416 54.4148 478.321 54.9848 478.321 55.6364ZM490.372 60.1591C489.705 60.1591 489.105 60.0265 488.571 59.7614C488.037 59.4962 487.609 59.1326 487.287 58.6705C486.965 58.2083 486.789 57.6818 486.759 57.0909H488.122C488.175 57.6174 488.414 58.053 488.838 58.3977C489.266 58.7386 489.777 58.9091 490.372 58.9091C490.849 58.9091 491.274 58.7973 491.645 58.5739C492.02 58.3504 492.313 58.0436 492.526 57.6534C492.741 57.2595 492.849 56.8144 492.849 56.3182C492.849 55.8106 492.738 55.358 492.514 54.9602C492.295 54.5587 491.991 54.2424 491.605 54.0114C491.219 53.7803 490.777 53.6629 490.281 53.6591C489.925 53.6553 489.56 53.7102 489.185 53.8239C488.81 53.9337 488.501 54.0758 488.259 54.25L486.94 54.0909L487.645 48.3636H493.69V49.6136H488.827L488.418 53.0455H488.486C488.724 52.8561 489.024 52.6989 489.384 52.5739C489.743 52.4489 490.118 52.3864 490.509 52.3864C491.221 52.3864 491.855 52.5568 492.412 52.8977C492.973 53.2348 493.412 53.697 493.73 54.2841C494.052 54.8712 494.213 55.5417 494.213 56.2955C494.213 57.0379 494.046 57.7008 493.713 58.2841C493.384 58.8636 492.929 59.322 492.349 59.6591C491.77 59.9924 491.111 60.1591 490.372 60.1591Z" fill="#333333"/>
<path d="M169.926 95H168.693C168.62 94.6454 168.493 94.3338 168.31 94.0653C168.131 93.7969 167.913 93.5715 167.654 93.3892C167.399 93.2036 167.116 93.0644 166.804 92.9716C166.492 92.8788 166.168 92.8324 165.83 92.8324C165.213 92.8324 164.655 92.9882 164.154 93.2997C163.657 93.6113 163.261 94.0703 162.966 94.6768C162.674 95.2834 162.528 96.0275 162.528 96.9091C162.528 97.7907 162.674 98.5348 162.966 99.1413C163.261 99.7479 163.657 100.207 164.154 100.518C164.655 100.83 165.213 100.986 165.83 100.986C166.168 100.986 166.492 100.939 166.804 100.847C167.116 100.754 167.399 100.616 167.654 100.434C167.913 100.248 168.131 100.021 168.31 99.7528C168.493 99.4811 168.62 99.1695 168.693 98.8182H169.926C169.833 99.3385 169.664 99.8042 169.419 100.215C169.174 100.626 168.869 100.976 168.504 101.264C168.14 101.549 167.73 101.766 167.276 101.915C166.826 102.065 166.343 102.139 165.83 102.139C164.961 102.139 164.189 101.927 163.513 101.503C162.837 101.079 162.305 100.475 161.917 99.6932C161.529 98.911 161.335 97.983 161.335 96.9091C161.335 95.8352 161.529 94.9072 161.917 94.125C162.305 93.3428 162.837 92.7396 163.513 92.3153C164.189 91.8911 164.961 91.679 165.83 91.679C166.343 91.679 166.826 91.7536 167.276 91.9027C167.73 92.0518 168.14 92.2706 168.504 92.5589C168.869 92.844 169.174 93.192 169.419 93.603C169.664 94.0107 169.833 94.4763 169.926 95ZM174.862 102.159C174.172 102.159 173.567 101.995 173.047 101.667C172.53 101.339 172.126 100.88 171.834 100.29C171.546 99.6998 171.401 99.0104 171.401 98.2216C171.401 97.4261 171.546 96.7318 171.834 96.1385C172.126 95.5452 172.53 95.0845 173.047 94.7564C173.567 94.4283 174.172 94.2642 174.862 94.2642C175.551 94.2642 176.154 94.4283 176.671 94.7564C177.192 95.0845 177.596 95.5452 177.884 96.1385C178.176 96.7318 178.322 97.4261 178.322 98.2216C178.322 99.0104 178.176 99.6998 177.884 100.29C177.596 100.88 177.192 101.339 176.671 101.667C176.154 101.995 175.551 102.159 174.862 102.159ZM174.862 101.105C175.385 101.105 175.816 100.971 176.154 100.702C176.492 100.434 176.743 100.081 176.905 99.6435C177.067 99.206 177.149 98.732 177.149 98.2216C177.149 97.7112 177.067 97.2356 176.905 96.7947C176.743 96.3539 176.492 95.9976 176.154 95.7259C175.816 95.4541 175.385 95.3182 174.862 95.3182C174.338 95.3182 173.907 95.4541 173.569 95.7259C173.231 95.9976 172.981 96.3539 172.818 96.7947C172.656 97.2356 172.575 97.7112 172.575 98.2216C172.575 98.732 172.656 99.206 172.818 99.6435C172.981 100.081 173.231 100.434 173.569 100.702C173.907 100.971 174.338 101.105 174.862 101.105ZM181.286 97.4062V102H180.113V94.3636H181.246V95.5568H181.346C181.525 95.169 181.797 94.8575 182.161 94.6222C182.526 94.3835 182.996 94.2642 183.573 94.2642C184.09 94.2642 184.543 94.3703 184.93 94.5824C185.318 94.7912 185.62 95.1094 185.835 95.5369C186.051 95.9612 186.158 96.4981 186.158 97.1477V102H184.985V97.2273C184.985 96.6274 184.829 96.16 184.518 95.8253C184.206 95.4872 183.779 95.3182 183.235 95.3182C182.861 95.3182 182.526 95.3994 182.231 95.5618C181.939 95.7242 181.709 95.9612 181.54 96.2727C181.371 96.5843 181.286 96.9621 181.286 97.4062ZM191.623 94.3636V95.358H187.666V94.3636H191.623ZM188.819 92.5341H189.993V99.8125C189.993 100.144 190.041 100.393 190.137 100.558C190.236 100.721 190.362 100.83 190.515 100.886C190.671 100.939 190.835 100.966 191.007 100.966C191.136 100.966 191.242 100.959 191.325 100.946C191.408 100.929 191.474 100.916 191.524 100.906L191.763 101.96C191.683 101.99 191.572 102.02 191.43 102.05C191.287 102.083 191.106 102.099 190.888 102.099C190.556 102.099 190.231 102.028 189.913 101.886C189.598 101.743 189.336 101.526 189.128 101.234C188.922 100.943 188.819 100.575 188.819 100.131V92.5341ZM196.508 102.159C195.772 102.159 195.137 101.997 194.604 101.672C194.074 101.344 193.664 100.886 193.376 100.3C193.091 99.7098 192.948 99.0237 192.948 98.2415C192.948 97.4593 193.091 96.7699 193.376 96.1733C193.664 95.5734 194.065 95.1061 194.579 94.7713C195.096 94.4332 195.699 94.2642 196.389 94.2642C196.786 94.2642 197.179 94.3305 197.567 94.4631C197.955 94.5956 198.308 94.8111 198.626 95.1094C198.944 95.4044 199.198 95.7955 199.387 96.2827C199.575 96.7699 199.67 97.3698 199.67 98.0824V98.5795H193.784V97.5653H198.477C198.477 97.1345 198.391 96.75 198.218 96.4119C198.049 96.0739 197.807 95.8071 197.492 95.6115C197.181 95.416 196.813 95.3182 196.389 95.3182C195.921 95.3182 195.517 95.4342 195.176 95.6662C194.838 95.8949 194.577 96.1932 194.395 96.5611C194.213 96.929 194.122 97.3234 194.122 97.7443V98.4205C194.122 98.9972 194.221 99.486 194.42 99.8871C194.622 100.285 194.902 100.588 195.26 100.797C195.618 101.002 196.034 101.105 196.508 101.105C196.816 101.105 197.095 101.062 197.343 100.976C197.595 100.886 197.812 100.754 197.994 100.578C198.177 100.399 198.318 100.177 198.417 99.9119L199.551 100.23C199.431 100.615 199.231 100.953 198.949 101.244C198.667 101.533 198.319 101.758 197.905 101.92C197.491 102.08 197.025 102.159 196.508 102.159ZM202.628 97.4062V102H201.455V94.3636H202.588V95.5568H202.688C202.867 95.169 203.138 94.8575 203.503 94.6222C203.868 94.3835 204.338 94.2642 204.915 94.2642C205.432 94.2642 205.884 94.3703 206.272 94.5824C206.66 94.7912 206.962 95.1094 207.177 95.5369C207.392 95.9612 207.5 96.4981 207.5 97.1477V102H206.327V97.2273C206.327 96.6274 206.171 96.16 205.86 95.8253C205.548 95.4872 205.12 95.3182 204.577 95.3182C204.202 95.3182 203.868 95.3994 203.573 95.5618C203.281 95.7242 203.051 95.9612 202.882 96.2727C202.713 96.5843 202.628 96.9621 202.628 97.4062ZM212.965 94.3636V95.358H209.008V94.3636H212.965ZM210.161 92.5341H211.335V99.8125C211.335 100.144 211.383 100.393 211.479 100.558C211.578 100.721 211.704 100.83 211.857 100.886C212.012 100.939 212.176 100.966 212.349 100.966C212.478 100.966 212.584 100.959 212.667 100.946C212.75 100.929 212.816 100.916 212.866 100.906L213.104 101.96C213.025 101.99 212.914 102.02 212.771 102.05C212.629 102.083 212.448 102.099 212.229 102.099C211.898 102.099 211.573 102.028 211.255 101.886C210.94 101.743 210.678 101.526 210.469 101.234C210.264 100.943 210.161 100.575 210.161 100.131V92.5341ZM222.068 94.3636V95.358H217.952V94.3636H222.068ZM219.185 102V93.3097C219.185 92.8722 219.287 92.5076 219.493 92.2159C219.698 91.9242 219.965 91.7055 220.293 91.5597C220.621 91.4138 220.968 91.3409 221.332 91.3409C221.621 91.3409 221.856 91.3641 222.038 91.4105C222.221 91.4569 222.357 91.5 222.446 91.5398L222.108 92.554C222.048 92.5341 221.965 92.5092 221.859 92.4794C221.757 92.4496 221.621 92.4347 221.452 92.4347C221.064 92.4347 220.784 92.5324 220.612 92.728C220.442 92.9235 220.358 93.2102 220.358 93.5881V102H219.185ZM226.5 102.159C225.811 102.159 225.206 101.995 224.686 101.667C224.169 101.339 223.764 100.88 223.473 100.29C223.184 99.6998 223.04 99.0104 223.04 98.2216C223.04 97.4261 223.184 96.7318 223.473 96.1385C223.764 95.5452 224.169 95.0845 224.686 94.7564C225.206 94.4283 225.811 94.2642 226.5 94.2642C227.19 94.2642 227.793 94.4283 228.31 94.7564C228.83 95.0845 229.235 95.5452 229.523 96.1385C229.815 96.7318 229.961 97.4261 229.961 98.2216C229.961 99.0104 229.815 99.6998 229.523 100.29C229.235 100.88 228.83 101.339 228.31 101.667C227.793 101.995 227.19 102.159 226.5 102.159ZM226.5 101.105C227.024 101.105 227.455 100.971 227.793 100.702C228.131 100.434 228.381 100.081 228.544 99.6435C228.706 99.206 228.787 98.732 228.787 98.2216C228.787 97.7112 228.706 97.2356 228.544 96.7947C228.381 96.3539 228.131 95.9976 227.793 95.7259C227.455 95.4541 227.024 95.3182 226.5 95.3182C225.977 95.3182 225.546 95.4541 225.208 95.7259C224.87 95.9976 224.619 96.3539 224.457 96.7947C224.295 97.2356 224.213 97.7112 224.213 98.2216C224.213 98.732 224.295 99.206 224.457 99.6435C224.619 100.081 224.87 100.434 225.208 100.702C225.546 100.971 225.977 101.105 226.5 101.105ZM231.752 102V94.3636H232.885V95.517H232.965C233.104 95.1392 233.356 94.8326 233.72 94.5973C234.085 94.362 234.496 94.2443 234.953 94.2443C235.039 94.2443 235.147 94.246 235.276 94.2493C235.406 94.2526 235.503 94.2576 235.57 94.2642V95.4574C235.53 95.4474 235.439 95.4325 235.296 95.4126C235.157 95.3894 235.01 95.3778 234.854 95.3778C234.483 95.3778 234.151 95.4557 233.86 95.6115C233.571 95.764 233.343 95.9761 233.173 96.2479C233.008 96.5163 232.925 96.8229 232.925 97.1676V102H231.752ZM240.5 92.9119V91.8182H248.137V92.9119H244.935V102H243.702V92.9119H240.5ZM251.089 102.179C250.605 102.179 250.166 102.088 249.771 101.906C249.377 101.72 249.064 101.453 248.831 101.105C248.599 100.754 248.483 100.33 248.483 99.8324C248.483 99.3949 248.57 99.0402 248.742 98.7685C248.914 98.4934 249.145 98.2779 249.433 98.1222C249.721 97.9664 250.04 97.8504 250.388 97.7741C250.739 97.6946 251.092 97.6316 251.447 97.5852C251.911 97.5256 252.287 97.4808 252.575 97.451C252.867 97.4179 253.079 97.3632 253.211 97.2869C253.347 97.2107 253.415 97.0781 253.415 96.8892V96.8494C253.415 96.3589 253.281 95.9777 253.013 95.706C252.747 95.4342 252.345 95.2983 251.805 95.2983C251.244 95.2983 250.805 95.4209 250.487 95.6662C250.169 95.9115 249.945 96.1733 249.816 96.4517L248.702 96.054C248.901 95.59 249.166 95.2287 249.498 94.9702C249.832 94.7083 250.197 94.526 250.591 94.4233C250.989 94.3172 251.38 94.2642 251.765 94.2642C252.01 94.2642 252.292 94.294 252.61 94.3537C252.931 94.41 253.241 94.5277 253.54 94.7067C253.841 94.8857 254.091 95.1558 254.29 95.517C254.489 95.8783 254.589 96.3622 254.589 96.9688V102H253.415V100.966H253.356C253.276 101.132 253.144 101.309 252.958 101.498C252.772 101.687 252.525 101.848 252.217 101.98C251.909 102.113 251.533 102.179 251.089 102.179ZM251.268 101.125C251.732 101.125 252.123 101.034 252.441 100.852C252.762 100.669 253.004 100.434 253.167 100.146C253.332 99.8572 253.415 99.554 253.415 99.2358V98.1619C253.366 98.2216 253.256 98.2763 253.087 98.326C252.921 98.3724 252.729 98.4138 252.51 98.4503C252.295 98.4834 252.085 98.5133 251.879 98.5398C251.677 98.563 251.513 98.5829 251.387 98.5994C251.082 98.6392 250.797 98.7038 250.532 98.7933C250.27 98.8795 250.058 99.0104 249.895 99.1861C249.736 99.3584 249.657 99.5937 249.657 99.892C249.657 100.3 249.808 100.608 250.109 100.817C250.414 101.022 250.8 101.125 251.268 101.125ZM256.889 102V91.8182H258.062V95.5767H258.162C258.248 95.4441 258.367 95.2751 258.52 95.0696C258.676 94.8608 258.898 94.6752 259.186 94.5128C259.478 94.3471 259.872 94.2642 260.369 94.2642C261.012 94.2642 261.579 94.425 262.07 94.7464C262.56 95.0679 262.943 95.5237 263.218 96.1136C263.493 96.7036 263.631 97.3996 263.631 98.2017C263.631 99.0104 263.493 99.7114 263.218 100.305C262.943 100.895 262.562 101.352 262.075 101.677C261.587 101.998 261.026 102.159 260.389 102.159C259.899 102.159 259.506 102.078 259.211 101.915C258.916 101.75 258.689 101.562 258.53 101.354C258.371 101.142 258.248 100.966 258.162 100.827H258.023V102H256.889ZM258.043 98.1818C258.043 98.7585 258.127 99.2673 258.296 99.7081C258.465 100.146 258.712 100.489 259.037 100.737C259.362 100.982 259.759 101.105 260.23 101.105C260.721 101.105 261.13 100.976 261.458 100.717C261.79 100.455 262.038 100.104 262.204 99.6634C262.373 99.2192 262.457 98.7254 262.457 98.1818C262.457 97.6449 262.375 97.161 262.209 96.7301C262.046 96.2959 261.799 95.9529 261.468 95.701C261.14 95.4458 260.727 95.3182 260.23 95.3182C259.753 95.3182 259.352 95.4392 259.027 95.6811C258.702 95.9197 258.457 96.2545 258.291 96.6854C258.125 97.1129 258.043 97.6117 258.043 98.1818ZM268.985 91.8182V102H267.752V93.1108H267.692L265.207 94.7614V93.5085L267.752 91.8182H268.985Z" fill="black"/>
</svg>
