<svg width="232" height="83" fill="none" xmlns="http://www.w3.org/2000/svg"><path d="M116 16.38a.88.88 0 0 1-.88-.88v-3a.88.88 0 0 1 1.76 0v3c0 .48-.39.88-.88.88Zm0-6a.93.93 0 0 1-.62-.26.97.97 0 0 1-.19-.29.9.9 0 0 1 .19-.95.97.97 0 0 1 .29-.19.86.86 0 0 1 1.14.48c.04.1.07.21.07.33a.9.9 0 0 1-.26.62.91.91 0 0 1-.62.26Z" fill="#0F67F5"/><path d="M116 23.38a10.9 10.9 0 0 1 0-21.76 10.9 10.9 0 0 1 0 21.76Zm0-20a9.13 9.13 0 1 0 .02 18.26A9.13 9.13 0 0 0 116 3.38Z" fill="#0F67F5"/><g filter="url(#a)"><path d="m116.1 32.5 4.9 5h-10l5.1-5ZM3 41.5a4 4 0 0 1 4-4h218a4 4 0 0 1 4 4v32a4 4 0 0 1-4 4H7a4 4 0 0 1-4-4v-32Z" fill="#333"/><path d="M26.77 54.77a1.78 1.78 0 0 0-.83-1.34 3.18 3.18 0 0 0-1.78-.48c-.52 0-.97.09-1.35.25-.39.17-.68.4-.9.7a1.65 1.65 0 0 0-.1 1.79c.15.22.35.4.58.55.24.14.48.26.74.36l.71.22 1.18.32c.3.08.64.19 1.01.33.38.14.74.33 1.08.57a2.65 2.65 0 0 1 1.19 2.3c0 .63-.17 1.2-.5 1.7-.32.51-.8.92-1.43 1.22-.63.3-1.39.44-2.28.44a5.3 5.3 0 0 1-2.16-.4 3.2 3.2 0 0 1-2.02-2.8h1.45c.04.44.19.8.45 1.1.26.27.59.49.99.63a4 4 0 0 0 1.3.2c.53 0 1.01-.09 1.44-.26.43-.18.77-.42 1.02-.74s.37-.69.37-1.11c0-.39-.1-.7-.32-.95-.22-.24-.5-.43-.85-.59a8.95 8.95 0 0 0-1.15-.4l-1.43-.4a5.33 5.33 0 0 1-2.16-1.12 2.46 2.46 0 0 1-.8-1.9c0-.66.18-1.23.54-1.71.35-.49.83-.87 1.43-1.14.6-.27 1.27-.4 2.01-.4.75 0 1.42.13 2 .4a3.5 3.5 0 0 1 1.4 1.09c.34.46.52.99.54 1.57h-1.37Zm9.16 5.16v-5.16h1.34v8.73h-1.34v-1.48h-.09a2.76 2.76 0 0 1-2.6 1.6c-.54 0-1.02-.13-1.45-.36a2.5 2.5 0 0 1-1-1.1 4.14 4.14 0 0 1-.36-1.84v-5.55h1.34v5.46c0 .63.18 1.14.54 1.52.36.38.81.57 1.37.57a2.28 2.28 0 0 0 2.25-2.39Zm3.8 6.84v-12h1.3v1.39h.15l.41-.58c.18-.24.43-.45.76-.64.34-.19.79-.28 1.35-.28a3.46 3.46 0 0 1 3.26 2.11c.31.68.47 1.47.47 2.39 0 .92-.16 1.72-.47 2.4a3.42 3.42 0 0 1-3.23 2.12 2.8 2.8 0 0 1-1.35-.28 2.5 2.5 0 0 1-.78-.64 8.63 8.63 0 0 1-.42-.6h-.11v4.61h-1.34Zm1.32-7.63c0 .66.1 1.24.29 1.74.19.5.47.9.84 1.18.37.28.83.42 1.37.42a2.2 2.2 0 0 0 1.4-.45c.38-.3.66-.7.85-1.2.2-.5.3-1.07.3-1.7 0-.6-.1-1.16-.3-1.65-.18-.5-.46-.9-.84-1.18a2.24 2.24 0 0 0-1.41-.44 2.24 2.24 0 0 0-2.22 1.57 4.72 4.72 0 0 0-.28 1.7Zm8.43 7.63v-12h1.3v1.39h.15l.41-.58c.18-.24.43-.45.76-.64.34-.19.79-.28 1.35-.28a3.46 3.46 0 0 1 3.26 2.11c.31.68.47 1.47.47 2.39 0 .92-.16 1.72-.47 2.4a3.42 3.42 0 0 1-3.23 2.12 2.8 2.8 0 0 1-1.35-.28 2.5 2.5 0 0 1-.78-.64 8.63 8.63 0 0 1-.42-.6h-.11v4.61h-1.34Zm1.32-7.63c0 .66.1 1.24.29 1.74.19.5.47.9.84 1.18.37.28.83.42 1.37.42a2.2 2.2 0 0 0 1.4-.45c.38-.3.66-.7.85-1.2.2-.5.3-1.07.3-1.7 0-.6-.1-1.16-.3-1.65-.18-.5-.46-.9-.84-1.18a2.24 2.24 0 0 0-1.41-.44 2.24 2.24 0 0 0-2.22 1.57 4.72 4.72 0 0 0-.28 1.7Zm9.77-7.28V63.5h-1.34V51.86h1.34Zm6.11 11.82a3.74 3.74 0 0 1-3.58-2.13 5.35 5.35 0 0 1-.48-2.35c0-.89.16-1.68.48-2.36a3.7 3.7 0 0 1 3.44-2.18c.46 0 .91.07 1.35.23a3.34 3.34 0 0 1 2.08 2.08c.22.55.33 1.24.33 2.05v.57h-6.73v-1.16h5.36c0-.5-.1-.93-.3-1.32a2.23 2.23 0 0 0-2.08-1.25c-.54 0-1 .14-1.39.4-.39.26-.68.6-.9 1.02a3 3 0 0 0-.3 1.36v.77c0 .66.11 1.22.34 1.68.23.45.55.8.96 1.03.4.24.88.36 1.42.36.36 0 .67-.05.96-.15a2 2 0 0 0 1.23-1.22l1.29.37c-.14.44-.36.82-.69 1.16a3.4 3.4 0 0 1-1.19.77c-.47.18-1 .27-1.6.27Zm5.66-.18v-8.73h1.3v1.37h.1c.19-.47.48-.83.89-1.09.4-.26.89-.4 1.46-.4s1.05.14 1.43.4c.4.26.7.62.9 1.09h.1a2.6 2.6 0 0 1 1-1.08c.45-.27.99-.4 1.61-.4.78 0 1.42.24 1.92.73s.74 1.24.74 2.27v5.84h-1.34v-5.84c0-.64-.18-1.1-.53-1.38a1.96 1.96 0 0 0-1.24-.42c-.62 0-1.1.19-1.43.56-.34.37-.5.83-.5 1.4v5.68h-1.37v-5.98c0-.5-.16-.9-.48-1.2a1.88 1.88 0 0 0-2.22-.18c-.3.19-.54.45-.73.77-.18.33-.27.7-.27 1.14v5.45h-1.34Zm17.56.18a3.74 3.74 0 0 1-3.58-2.13 5.35 5.35 0 0 1-.49-2.35c0-.89.17-1.68.5-2.36a3.7 3.7 0 0 1 3.44-2.18c.45 0 .9.07 1.34.23a3.34 3.34 0 0 1 2.08 2.08c.22.55.33 1.24.33 2.05v.57h-6.73v-1.16h5.36c0-.5-.1-.93-.3-1.32a2.23 2.23 0 0 0-2.08-1.25c-.54 0-1 .14-1.4.4-.38.26-.67.6-.88 1.02a3 3 0 0 0-.32 1.36v.77c0 .66.12 1.22.35 1.68.23.45.55.8.96 1.03.4.24.88.36 1.42.36.35 0 .67-.05.96-.15.28-.1.53-.25.74-.45.2-.21.37-.46.48-.77l1.3.37a2.99 2.99 0 0 1-1.89 1.93c-.46.18-1 .27-1.59.27Zm7-5.43v5.25h-1.34v-8.73h1.3v1.37h.1c.2-.45.52-.8.94-1.07.41-.27.95-.41 1.61-.41.6 0 1.1.12 1.55.36.44.24.79.6 1.03 1.1.25.48.37 1.1.37 1.83v5.55h-1.34v-5.45c0-.69-.17-1.22-.53-1.6a1.9 1.9 0 0 0-1.47-.59c-.42 0-.8.1-1.14.28a2 2 0 0 0-.8.81c-.19.36-.28.8-.28 1.3Zm11.81-3.48v1.14h-4.52v-1.14h4.52Zm-3.2-2.09h1.34V61c0 .38.05.66.16.85.11.19.26.31.43.38a2.38 2.38 0 0 0 .93.07l.23-.05.27 1.2a2.71 2.71 0 0 1-1 .16 2.7 2.7 0 0 1-1.11-.24 2.21 2.21 0 0 1-.9-.74 2.14 2.14 0 0 1-.35-1.27v-8.68Zm7.78 11.02c-.55 0-1.05-.1-1.5-.3-.45-.22-.8-.52-1.07-.92s-.4-.89-.4-1.46a2.05 2.05 0 0 1 1.08-1.95c.33-.18.7-.31 1.1-.4.4-.09.8-.16 1.2-.22l1.3-.15c.33-.04.57-.1.72-.19.16-.08.23-.23.23-.45v-.05c0-.56-.15-1-.46-1.3-.3-.31-.76-.47-1.38-.47a2.39 2.39 0 0 0-2.27 1.32l-1.27-.46a3.08 3.08 0 0 1 2.16-1.86 5.2 5.2 0 0 1 2.3-.08c.37.07.73.2 1.07.4.34.2.63.52.86.93.22.41.34.97.34 1.66v5.75h-1.34v-1.18h-.07a2.62 2.62 0 0 1-1.3 1.16c-.36.15-.79.22-1.3.22Zm.21-1.2c.53 0 .98-.1 1.34-.31a2.12 2.12 0 0 0 1.11-1.85v-1.23c-.05.07-.18.13-.37.2-.19.04-.41.1-.66.13a29.56 29.56 0 0 1-1.28.17c-.35.05-.68.12-.98.23-.3.1-.54.24-.73.44-.18.2-.27.47-.27.81 0 .47.17.82.52 1.06.34.23.79.35 1.32.35Zm7.58-10.64V63.5h-1.34V51.86h1.34Zm6.96 11.64v-8.73h1.34v8.73h-1.34Zm.68-10.18a.96.96 0 0 1-.68-.27.86.86 0 0 1-.27-.64c0-.25.09-.46.27-.64a.96.96 0 0 1 .68-.27c.26 0 .49.09.67.27a.85.85 0 0 1 0 1.28.93.93 0 0 1-.67.27Zm4.46 4.93v5.25h-1.34v-8.73h1.3v1.37h.1c.21-.45.52-.8.94-1.07.41-.27.95-.41 1.61-.41.6 0 1.1.12 1.55.36.45.24.79.6 1.04 1.1.24.48.37 1.1.37 1.83v5.55h-1.34v-5.45c0-.69-.18-1.22-.54-1.6a1.9 1.9 0 0 0-1.47-.59c-.42 0-.8.1-1.14.28a2 2 0 0 0-.8.81c-.19.36-.28.8-.28 1.3Zm11.9-3.48v1.14h-4.7v-1.14h4.7Zm-3.3 8.73v-9.93a2.08 2.08 0 0 1 1.27-2 3.36 3.36 0 0 1 2.46-.02l-.38 1.15a6.67 6.67 0 0 0-.29-.08 1.73 1.73 0 0 0-.46-.05c-.44 0-.76.11-.96.33-.2.23-.3.55-.3.99v9.61h-1.33Zm8.37.18a3.8 3.8 0 0 1-2.08-.56 3.84 3.84 0 0 1-1.38-1.57 5.32 5.32 0 0 1-.5-2.37c0-.9.17-1.7.5-2.38.33-.68.8-1.2 1.38-1.58a3.8 3.8 0 0 1 2.08-.56c.79 0 1.47.19 2.07.56.6.38 1.05.9 1.38 1.58.34.68.5 1.47.5 2.38 0 .9-.16 1.7-.5 2.37-.33.67-.79 1.2-1.38 1.57-.6.37-1.28.56-2.07.56Zm0-1.2c.6 0 1.09-.16 1.47-.46.4-.31.68-.71.86-1.21a4.8 4.8 0 0 0 0-3.26c-.18-.5-.47-.91-.85-1.22a2.28 2.28 0 0 0-1.48-.47c-.6 0-1.1.16-1.48.47-.39.31-.67.72-.86 1.22a4.7 4.7 0 0 0-.28 1.63c0 .59.1 1.13.28 1.63.19.5.47.9.86 1.2.39.31.88.47 1.48.47Zm6 1.02v-8.73h1.3v1.32h.09c.16-.43.44-.78.86-1.05s.89-.4 1.4-.4a15.28 15.28 0 0 1 .71.02v1.36a4.07 4.07 0 0 0-.81-.09c-.43 0-.8.1-1.14.27a1.96 1.96 0 0 0-1.07 1.78v5.52h-1.34Zm5.95 0v-8.73h1.3v1.37h.11c.18-.47.48-.83.88-1.09.4-.26.9-.4 1.46-.4.58 0 1.06.14 1.44.4.39.26.69.62.9 1.09h.1c.22-.45.55-.81 1-1.08.45-.27.98-.4 1.6-.4.79 0 1.43.24 1.92.73.5.49.75 1.24.75 2.27v5.84h-1.34v-5.84c0-.64-.18-1.1-.53-1.38a1.96 1.96 0 0 0-1.25-.42c-.61 0-1.09.19-1.42.56-.34.37-.5.83-.5 1.4v5.68h-1.37v-5.98c0-.5-.16-.9-.49-1.2-.32-.3-.73-.46-1.24-.46a1.92 1.92 0 0 0-1.7 1.05c-.19.33-.28.7-.28 1.14v5.45h-1.34Zm16.48.2c-.56 0-1.06-.1-1.5-.3a2.56 2.56 0 0 1-1.08-.92c-.27-.4-.4-.89-.4-1.46a2.05 2.05 0 0 1 1.08-1.95c.33-.18.7-.31 1.1-.4.4-.09.8-.16 1.2-.22l1.3-.15c.33-.04.57-.1.72-.19.16-.08.24-.23.24-.45v-.05c0-.56-.16-1-.46-1.3-.3-.31-.77-.47-1.38-.47a2.4 2.4 0 0 0-1.51.42 2.5 2.5 0 0 0-.77.9l-1.27-.46a3.06 3.06 0 0 1 2.16-1.86 5.18 5.18 0 0 1 2.3-.08c.37.07.73.2 1.07.4.34.2.63.52.86.93.22.41.34.97.34 1.66v5.75h-1.34v-1.18h-.07a2.62 2.62 0 0 1-1.3 1.16c-.36.15-.79.22-1.3.22Zm.2-1.2c.53 0 .98-.1 1.34-.31a2.13 2.13 0 0 0 1.12-1.85v-1.23a.99.99 0 0 1-.38.2c-.19.04-.4.1-.66.13a30.34 30.34 0 0 1-1.28.17c-.35.05-.68.12-.98.23-.3.1-.54.24-.73.44-.18.2-.27.47-.27.81 0 .47.17.82.52 1.06.35.23.79.35 1.32.35Zm10.04-7.73v1.14h-4.52v-1.14h4.52Zm-3.2-2.09h1.34V61c0 .38.05.66.16.85.11.19.26.31.43.38.18.06.37.09.56.09.15 0 .27 0 .37-.02l.23-.05.27 1.2a2.73 2.73 0 0 1-1 .16 2.7 2.7 0 0 1-1.11-.24 2.21 2.21 0 0 1-.9-.74 2.14 2.14 0 0 1-.35-1.27v-8.68Zm5.22 10.82v-8.73h1.34v8.73h-1.34Zm.68-10.18a.95.95 0 0 1-.68-.27.86.86 0 0 1-.28-.64c0-.25.1-.46.28-.64a.95.95 0 0 1 .68-.27c.26 0 .48.09.67.27.19.18.28.39.28.64s-.1.46-.28.64a.93.93 0 0 1-.67.27Zm6.66 10.36a3.8 3.8 0 0 1-2.08-.56 3.84 3.84 0 0 1-1.38-1.57 5.32 5.32 0 0 1-.5-2.37c0-.9.17-1.7.5-2.38.33-.68.8-1.2 1.38-1.58a3.8 3.8 0 0 1 2.08-.56c.79 0 1.48.19 2.07.56.6.38 1.05.9 1.38 1.58.34.68.5 1.47.5 2.38 0 .9-.16 1.7-.5 2.37-.33.67-.79 1.2-1.38 1.57-.6.37-1.28.56-2.07.56Zm0-1.2c.6 0 1.09-.16 1.48-.46.38-.31.67-.71.85-1.21.19-.5.28-1.04.28-1.63 0-.58-.09-1.13-.28-1.63-.18-.5-.47-.91-.85-1.22a2.28 2.28 0 0 0-1.48-.47c-.6 0-1.1.16-1.48.47-.38.31-.67.72-.86 1.22a4.8 4.8 0 0 0 0 3.26c.19.5.47.9.86 1.2.39.31.88.47 1.48.47Zm7.34-4.23v5.25h-1.34v-8.73h1.3v1.37h.1c.21-.45.52-.8.94-1.07.42-.27.96-.41 1.61-.41.6 0 1.11.12 1.56.36.44.24.78.6 1.03 1.1.25.48.37 1.1.37 1.83v5.55h-1.34v-5.45c0-.69-.18-1.22-.54-1.6a1.9 1.9 0 0 0-1.46-.59c-.43 0-.81.1-1.15.28a2 2 0 0 0-.79.81c-.2.36-.29.8-.29 1.3Z" fill="#fff"/></g><defs><filter id="a" x="0" y="30.5" width="232" height="52" filterUnits="userSpaceOnUse" color-interpolation-filters="sRGB"><feFlood flood-opacity="0" result="BackgroundImageFix"/><feColorMatrix in="SourceAlpha" values="0 0 0 0 0 0 0 0 0 0 0 0 0 0 0 0 0 0 127 0" result="hardAlpha"/><feOffset dy="2"/><feGaussianBlur stdDeviation="1.5"/><feColorMatrix values="0 0 0 0 0.2 0 0 0 0 0.2 0 0 0 0 0.2 0 0 0 0.15 0"/><feBlend in2="BackgroundImageFix" result="effect1_dropShadow_13278_51481"/><feColorMatrix in="SourceAlpha" values="0 0 0 0 0 0 0 0 0 0 0 0 0 0 0 0 0 0 127 0" result="hardAlpha"/><feOffset dy="1"/><feGaussianBlur stdDeviation="1.5"/><feColorMatrix values="0 0 0 0 0.2 0 0 0 0 0.2 0 0 0 0 0.2 0 0 0 0.1 0"/><feBlend in2="effect1_dropShadow_13278_51481" result="effect2_dropShadow_13278_51481"/><feBlend in="SourceGraphic" in2="effect2_dropShadow_13278_51481" result="shape"/></filter></defs></svg>