<svg width="284" height="42" fill="none" xmlns="http://www.w3.org/2000/svg"><rect x=".5" width="104" height="42" rx="4" fill="#0F67F5"/><path d="M25.73 27V15.55h4.32a11 11 0 0 1 1.75.1c.56.1 1.03.28 1.41.55.38.26.69.62.91 1.1.24.47.36 1 .36 1.56 0 .97-.31 1.8-.93 2.48-.62.67-1.74 1-3.36 1h-2.94V27h-1.52Zm1.52-6h2.96c.98 0 1.68-.19 2.09-.55a2 2 0 0 0 .61-1.54c0-.48-.12-.9-.36-1.23a1.68 1.68 0 0 0-.96-.68c-.25-.07-.72-.1-1.41-.1h-2.93V21Zm8.96 6v-8.3h1.27v1.26c.32-.59.62-.98.89-1.16.27-.2.58-.28.9-.28.48 0 .96.15 1.45.45l-.49 1.3a2 2 0 0 0-1.03-.3c-.3 0-.58.1-.83.28-.24.18-.41.44-.52.77-.15.5-.23 1.04-.23 1.64V27h-1.4Zm5.35-9.84v-1.61h1.4v1.61h-1.4Zm0 9.84v-8.3h1.4V27h-1.4Zm3.56 0v-8.3h1.26v1.17a2.92 2.92 0 0 1 2.51-1.35c.62 0 1.12.12 1.5.38a2 2 0 0 1 .84 1.07 2.98 2.98 0 0 1 2.57-1.45c.82 0 1.45.22 1.9.68.44.46.66 1.16.66 2.1V27h-1.4v-5.23c0-.56-.05-.96-.14-1.2a1.15 1.15 0 0 0-.5-.6 1.96 1.96 0 0 0-2.3.36c-.37.38-.57 1-.57 1.85V27h-1.4v-5.4c0-.62-.12-1.08-.35-1.4-.23-.3-.6-.47-1.12-.47-.4 0-.76.1-1.1.32-.34.2-.58.51-.73.91-.15.4-.23.98-.23 1.74V27h-1.4Zm18.74-1.02a4.31 4.31 0 0 1-3.05 1.21c-.92 0-1.62-.22-2.1-.67a2.22 2.22 0 0 1-.74-1.7 2.27 2.27 0 0 1 1-1.93c.3-.2.64-.36 1.01-.46.28-.07.7-.14 1.25-.21 1.14-.14 1.98-.3 2.51-.49l.01-.36c0-.58-.13-.98-.4-1.21-.36-.32-.9-.48-1.6-.48-.66 0-1.15.12-1.47.35-.31.23-.54.64-.7 1.23l-1.37-.19c.13-.59.33-1.06.62-1.42.28-.37.7-.64 1.24-.84.54-.2 1.17-.3 1.88-.3s1.29.09 1.73.26c.44.16.77.37.98.63.2.25.35.57.43.95.05.24.07.67.07 1.3v1.87c0 1.31.03 2.14.09 2.49.06.34.18.67.36.99h-1.47a2.9 2.9 0 0 1-.28-1.02Zm-.12-3.14c-.5.2-1.27.38-2.3.53a4.9 4.9 0 0 0-1.22.28 1.21 1.21 0 0 0-.75 1.12c0 .38.14.7.42.94.29.25.7.38 1.25.38.54 0 1.02-.12 1.45-.36.42-.24.73-.56.93-.97.15-.32.22-.79.22-1.4v-.52Zm3.6 4.16v-8.3h1.26v1.26c.32-.59.62-.98.9-1.16.27-.2.57-.28.9-.28.47 0 .95.15 1.44.45l-.48 1.3c-.34-.2-.69-.3-1.03-.3-.3 0-.59.1-.83.28-.24.18-.42.44-.52.77-.16.5-.24 1.04-.24 1.64V27h-1.4Zm5.28 3.2-.16-1.32c.3.08.58.12.8.12.32 0 .57-.05.76-.16.18-.1.34-.25.46-.43a6.9 6.9 0 0 0 .55-1.4l-3.15-8.3h1.52l1.72 4.8c.23.6.43 1.25.6 1.92.17-.65.36-1.28.58-1.9l1.78-4.83h1.4l-3.15 8.44c-.34.91-.6 1.54-.8 1.88-.24.47-.53.8-.85 1.02-.32.22-.7.33-1.16.33-.27 0-.57-.06-.9-.17Z" fill="#fff"/><rect x="159.5" y="1" width="123" height="40" rx="3" fill="#fff"/><path d="m183.22 23.32 1.43-.12c.07.57.22 1.04.47 1.4.25.37.63.67 1.15.9.52.22 1.11.34 1.76.34a4.2 4.2 0 0 0 1.53-.26c.44-.17.77-.4.99-.7a1.65 1.65 0 0 0 .02-1.93 2.3 2.3 0 0 0-1.04-.68c-.3-.12-.99-.3-2.04-.55-1.05-.26-1.79-.5-2.2-.72a3.14 3.14 0 0 1-1.23-1.06 2.88 2.88 0 0 1 .09-3.05c.33-.5.8-.89 1.44-1.15a5.46 5.46 0 0 1 2.1-.39c.85 0 1.6.14 2.24.42a3.22 3.22 0 0 1 2.06 3l-1.45.11a2.34 2.34 0 0 0-.8-1.64c-.45-.37-1.11-.55-1.99-.55-.92 0-1.59.17-2 .5a1.5 1.5 0 0 0-.63 1.22c0 .4.15.75.44 1.01.3.27 1.06.54 2.28.82a15 15 0 0 1 2.54.73c.67.3 1.16.7 1.48 1.17.32.47.48 1.01.48 1.63 0 .6-.18 1.18-.53 1.72-.35.54-.85.96-1.5 1.26a6.62 6.62 0 0 1-4.81 0 3.68 3.68 0 0 1-2.28-3.43Zm16.69 1 1.45.19c-.23.85-.65 1.5-1.27 1.97s-1.42.7-2.38.7a3.82 3.82 0 0 1-2.89-1.11 4.4 4.4 0 0 1-1.06-3.15c0-1.4.36-2.48 1.08-3.25a3.65 3.65 0 0 1 2.8-1.15c1.1 0 2 .37 2.71 1.13a4.5 4.5 0 0 1 1.06 3.19l-.01.37h-6.19c.05.91.31 1.61.77 2.1a2.3 2.3 0 0 0 1.74.72c.51 0 .95-.13 1.32-.4.36-.28.65-.7.87-1.3Zm-4.62-2.27h4.63a2.82 2.82 0 0 0-.53-1.57 2.16 2.16 0 0 0-1.74-.8c-.65 0-1.2.2-1.63.64a2.57 2.57 0 0 0-.73 1.73Zm13.26 1.91 1.38.18a3.6 3.6 0 0 1-1.16 2.24c-.62.54-1.39.8-2.3.8a3.58 3.58 0 0 1-2.74-1.1 4.6 4.6 0 0 1-1.03-3.2c0-.9.15-1.68.45-2.35a3.1 3.1 0 0 1 1.35-1.5c.6-.35 1.27-.51 1.98-.51.9 0 1.64.22 2.22.68.57.46.94 1.1 1.1 1.94l-1.37.21a2.26 2.26 0 0 0-.7-1.26 1.77 1.77 0 0 0-1.2-.42c-.7 0-1.28.26-1.72.77-.44.5-.66 1.3-.66 2.4 0 1.12.21 1.93.64 2.43.43.5.98.76 1.67.76a2 2 0 0 0 1.38-.5c.37-.35.6-.87.7-1.57Zm2.06-1.1c0-1.54.43-2.68 1.28-3.42a3.86 3.86 0 0 1 2.61-.92c1.14 0 2.07.37 2.8 1.12a4.25 4.25 0 0 1 1.08 3.1c0 1.06-.16 1.9-.48 2.52-.32.6-.78 1.08-1.4 1.42-.6.34-1.28.5-2 .5-1.16 0-2.1-.36-2.82-1.11-.71-.74-1.07-1.82-1.07-3.22Zm1.44 0c0 1.05.24 1.85.7 2.38.46.53 1.05.8 1.75.8s1.28-.27 1.74-.8c.47-.54.7-1.35.7-2.44 0-1.02-.24-1.8-.7-2.32a2.2 2.2 0 0 0-1.74-.8c-.7 0-1.29.26-1.75.79-.46.52-.7 1.32-.7 2.38Zm7.99 4.14v-8.3h1.27v1.18a2.98 2.98 0 0 1 2.63-1.36c.5 0 .96.09 1.38.27.42.18.74.41.95.7.2.3.35.64.43 1.04.06.26.08.72.08 1.37V27h-1.4v-5.05c0-.57-.06-1-.17-1.28a1.3 1.3 0 0 0-.59-.68 1.8 1.8 0 0 0-.97-.26c-.6 0-1.12.2-1.56.57-.43.38-.65 1.1-.65 2.17V27h-1.4Zm14.29 0v-1.05A2.58 2.58 0 0 1 232 27.2c-.66 0-1.27-.18-1.83-.55a3.64 3.64 0 0 1-1.29-1.52 5.4 5.4 0 0 1-.45-2.26c0-.83.14-1.58.41-2.25a3.26 3.26 0 0 1 3.1-2.1 2.74 2.74 0 0 1 2.28 1.15v-4.11h1.4V27h-1.3Zm-4.45-4.14c0 1.06.23 1.86.68 2.38a1.97 1.97 0 0 0 3.14.04c.44-.5.65-1.27.65-2.3 0-1.14-.22-1.97-.66-2.5a2.02 2.02 0 0 0-3.18-.03c-.42.5-.63 1.31-.63 2.4Zm13.39 3.12c-.53.44-1.03.75-1.51.93-.48.19-1 .28-1.55.28-.91 0-1.61-.22-2.1-.67a2.22 2.22 0 0 1-.74-1.7 2.28 2.28 0 0 1 1-1.93c.3-.2.65-.36 1.02-.46.28-.07.7-.14 1.25-.21 1.14-.14 1.97-.3 2.5-.49l.02-.36c0-.58-.14-.98-.4-1.21-.36-.32-.9-.48-1.6-.48-.66 0-1.16.12-1.47.35-.31.23-.55.64-.7 1.23l-1.37-.19c.12-.59.33-1.06.61-1.42.3-.37.7-.64 1.25-.84.54-.2 1.17-.3 1.88-.3.7 0 1.28.09 1.73.26.44.16.76.37.97.63.21.25.36.57.44.95.05.24.07.67.07 1.3v1.87c0 1.31.03 2.14.09 2.49.06.34.18.67.36.99h-1.47a2.9 2.9 0 0 1-.28-1.02Zm-.12-3.14c-.51.2-1.28.38-2.3.53a4.8 4.8 0 0 0-1.22.28 1.22 1.22 0 0 0-.75 1.12c0 .38.14.7.42.94.28.25.7.38 1.25.38.54 0 1.02-.12 1.44-.36.42-.24.73-.56.93-.97.15-.32.23-.79.23-1.4v-.52Zm3.6 4.16v-8.3H248v1.26c.32-.59.62-.98.89-1.16.27-.2.58-.28.9-.28.48 0 .96.15 1.45.45l-.48 1.3c-.35-.2-.7-.3-1.04-.3-.3 0-.58.1-.82.28-.25.18-.42.44-.53.77-.15.5-.23 1.04-.23 1.64V27h-1.4Zm5.27 3.2-.15-1.32c.3.08.57.12.8.12.31 0 .56-.05.75-.16.19-.1.34-.25.46-.43.1-.14.24-.5.43-1.05l.13-.34-3.15-8.32h1.52l1.72 4.8c.22.62.43 1.26.6 1.93.16-.65.36-1.28.58-1.9l1.77-4.83h1.41l-3.16 8.44c-.33.91-.6 1.54-.78 1.88-.25.47-.54.8-.86 1.02-.33.22-.71.33-1.16.33-.27 0-.57-.06-.9-.17Z" fill="#0F67F5"/><rect x="159.5" y="1" width="123" height="40" rx="3" stroke="#0F67F5" stroke-width="2"/></svg>