<svg width="292" height="22" fill="none" xmlns="http://www.w3.org/2000/svg"><path d="M9.47 7H8.24A2.56 2.56 0 0 0 7.2 5.39a2.79 2.79 0 0 0-.85-.42 3.4 3.4 0 0 0-2.65.33c-.5.31-.9.77-1.19 1.38-.29.6-.44 1.35-.44 2.23 0 .88.15 1.62.44 2.23.3.6.7 1.07 1.19 1.38a3.4 3.4 0 0 0 2.65.33c.31-.1.6-.23.85-.42a2.62 2.62 0 0 0 1.04-1.61h1.23a3.82 3.82 0 0 1-2.65 3.1 4.58 4.58 0 0 1-3.76-.42 4.37 4.37 0 0 1-1.6-1.8 6.2 6.2 0 0 1-.58-2.8c0-1.06.2-2 .58-2.78a4.27 4.27 0 0 1 3.91-2.45c.52 0 1 .08 1.45.23a3.95 3.95 0 0 1 2.14 1.7c.25.41.42.88.51 1.4Zm4.94 7.16c-.7 0-1.3-.17-1.82-.5a3.34 3.34 0 0 1-1.21-1.37 4.66 4.66 0 0 1-.43-2.07c0-.8.14-1.49.43-2.08.3-.6.7-1.06 1.21-1.38.52-.33 1.13-.5 1.82-.5a3.3 3.3 0 0 1 3.02 1.87c.3.6.44 1.3.44 2.1 0 .78-.15 1.47-.44 2.06a3.3 3.3 0 0 1-1.21 1.38 3.3 3.3 0 0 1-1.81.49Zm0-1.05c.52 0 .95-.14 1.29-.4.34-.28.59-.63.75-1.07a4.25 4.25 0 0 0 0-2.85 2.4 2.4 0 0 0-.75-1.06 2 2 0 0 0-1.3-.41 2 2 0 0 0-1.29.4 2.4 2.4 0 0 0-.75 1.07 4.1 4.1 0 0 0-.24 1.43c0 .51.08.99.24 1.42.17.44.42.8.76 1.06.33.27.76.4 1.29.4Zm6.42-3.7V14h-1.17V6.36h1.13v1.2h.1c.18-.4.45-.7.82-.94.36-.24.83-.36 1.4-.36.53 0 .98.11 1.37.32.38.21.69.53.9.96.22.42.32.96.32 1.6V14h-1.17V9.23c0-.6-.15-1.07-.47-1.4-.3-.34-.74-.51-1.28-.51-.37 0-.7.08-1 .24-.3.16-.53.4-.7.71-.16.31-.25.7-.25 1.14Zm10.34-3.05v1H27.2v-1h3.96Zm-2.8-1.83h1.17v7.28c0 .33.05.58.14.75.1.16.23.27.38.33.16.05.32.08.5.08a2.07 2.07 0 0 0 .51-.06l.24 1.05a2.37 2.37 0 0 1-.88.14c-.33 0-.65-.07-.97-.21a1.94 1.94 0 0 1-.79-.66 1.9 1.9 0 0 1-.3-1.1v-7.6Zm6.81 9.65c-.48 0-.92-.1-1.32-.27-.4-.19-.7-.46-.94-.8a2.26 2.26 0 0 1-.34-1.28c0-.44.08-.79.25-1.06.18-.28.4-.5.7-.65.28-.15.6-.27.95-.35.35-.08.7-.14 1.06-.18l1.13-.14c.29-.03.5-.09.63-.16.14-.08.2-.21.2-.4v-.04c0-.5-.13-.87-.4-1.14-.26-.28-.66-.41-1.2-.41a2.1 2.1 0 0 0-1.99 1.15l-1.11-.4a2.67 2.67 0 0 1 1.88-1.63 4.54 4.54 0 0 1 2.02-.07c.32.06.63.18.93.36.3.18.55.45.75.8.2.37.3.85.3 1.46V14h-1.17v-1.03h-.06a2.3 2.3 0 0 1-1.14 1.01c-.3.13-.68.2-1.13.2Zm.18-1.05c.46 0 .86-.1 1.17-.28a1.86 1.86 0 0 0 .98-1.61v-1.08c-.05.06-.16.12-.33.17a5.55 5.55 0 0 1-1.2.21l-.5.06a4 4 0 0 0-.86.2c-.26.08-.47.21-.63.39a1 1 0 0 0-.24.7c0 .41.15.72.45.93.3.2.7.3 1.16.3Zm8.57 1.03a3.3 3.3 0 0 1-1.85-.5 3.3 3.3 0 0 1-1.2-1.4 4.73 4.73 0 0 1-.42-2.04c0-.77.15-1.46.43-2.05.3-.6.7-1.06 1.2-1.4.52-.34 1.13-.5 1.82-.5.53 0 1.02.1 1.45.3a2.6 2.6 0 0 1 1.57 2.09h-1.18a1.79 1.79 0 0 0-1.83-1.33c-.45-.01-.85.1-1.2.35-.34.23-.6.56-.8 1a3.7 3.7 0 0 0-.28 1.5c0 .6.1 1.1.28 1.54.19.44.45.78.8 1.02.34.24.74.37 1.2.37.31 0 .59-.06.84-.16a1.71 1.71 0 0 0 1-1.18h1.17a2.72 2.72 0 0 1-1.52 2.08c-.43.2-.92.3-1.48.3Zm8.03-7.8v1h-3.95v-1h3.95Zm-2.8-1.83h1.17v7.28c0 .33.05.58.15.75.1.16.22.27.38.33.15.05.32.08.49.08a2.07 2.07 0 0 0 .51-.06l.24 1.05a2.37 2.37 0 0 1-.87.14c-.33 0-.66-.07-.98-.21a1.94 1.94 0 0 1-.78-.66 1.9 1.9 0 0 1-.31-1.1v-7.6Zm13.32 6.35V6.36h1.17V14h-1.17v-1.3h-.08a2.5 2.5 0 0 1-.84 1c-.37.27-.85.4-1.43.4-.47 0-.9-.1-1.27-.31a2.2 2.2 0 0 1-.88-.96 3.63 3.63 0 0 1-.31-1.61V6.36h1.17v4.78c0 .55.16 1 .47 1.33.31.33.71.5 1.2.5a2 2 0 0 0 1.97-2.1Zm8.73-2.8-1.05.3a1.96 1.96 0 0 0-.3-.52c-.12-.17-.3-.3-.51-.42-.22-.1-.5-.16-.84-.16a2 2 0 0 0-1.17.32.94.94 0 0 0-.46.81c0 .3.1.52.31.7.22.16.55.3 1 .42l1.13.27c.68.17 1.2.42 1.53.76.33.34.5.78.5 1.31 0 .44-.13.83-.38 1.18-.25.34-.6.61-1.04.81-.45.2-.97.3-1.56.3-.78 0-1.43-.17-1.94-.5a2.25 2.25 0 0 1-.97-1.49l1.12-.28c.1.41.3.72.6.93.3.2.69.3 1.17.3.54 0 .98-.11 1.3-.34.32-.24.49-.52.49-.85a.9.9 0 0 0-.28-.66 1.78 1.78 0 0 0-.86-.41l-1.27-.3a3.04 3.04 0 0 1-1.54-.77 1.87 1.87 0 0 1-.49-1.32c0-.43.12-.81.36-1.14.25-.33.58-.6 1-.78.43-.2.9-.29 1.45-.29.75 0 1.34.17 1.78.5.43.33.74.77.92 1.31Zm8.1 6.1c-.5 0-.93-.1-1.33-.27-.4-.19-.7-.46-.94-.8a2.26 2.26 0 0 1-.34-1.28c0-.44.08-.79.25-1.06.18-.28.4-.5.7-.65.28-.15.6-.27.95-.35.35-.08.7-.14 1.06-.18l1.13-.14c.29-.03.5-.09.63-.16.14-.08.2-.21.2-.4v-.04c0-.5-.13-.87-.4-1.14-.26-.28-.66-.41-1.2-.41a2.1 2.1 0 0 0-1.99 1.15l-1.12-.4a2.67 2.67 0 0 1 1.9-1.63 4.54 4.54 0 0 1 2.01-.07c.32.06.63.18.93.36.3.18.55.45.75.8.2.37.3.85.3 1.46V14h-1.17v-1.03h-.06a2.3 2.3 0 0 1-1.14 1.01c-.3.13-.69.2-1.13.2Zm.17-1.05c.46 0 .85-.1 1.17-.28a1.86 1.86 0 0 0 .98-1.61v-1.08c-.05.06-.16.12-.33.17a5.55 5.55 0 0 1-1.2.21l-.5.06c-.3.04-.6.1-.86.2-.26.08-.47.21-.63.39a1 1 0 0 0-.24.7c0 .41.15.72.45.93.3.2.7.3 1.16.3Zm8.78-6.77v1h-3.95v-1h3.95Zm-2.8-1.83h1.17v7.28c0 .33.05.58.15.75.1.16.22.27.37.33.16.05.32.08.5.08a2.08 2.08 0 0 0 .51-.06l.24 1.05a2.38 2.38 0 0 1-.87.14c-.33 0-.66-.07-.98-.21a1.94 1.94 0 0 1-.78-.66 1.9 1.9 0 0 1-.31-1.1v-7.6Z" fill="#1F1F1F"/><path d="m102.72 7.61-1.58.45c-.1-.27-.24-.52-.44-.77a2.13 2.13 0 0 0-.77-.63 2.82 2.82 0 0 0-1.26-.24 3 3 0 0 0-1.75.48c-.47.32-.7.73-.7 1.22 0 .44.16.78.48 1.03.32.26.81.47 1.49.64l1.7.42a4.7 4.7 0 0 1 2.29 1.14c.5.5.75 1.16.75 1.96a2.9 2.9 0 0 1-.56 1.76c-.38.52-.9.92-1.57 1.22-.67.3-1.45.45-2.34.45a5.15 5.15 0 0 1-2.9-.76 3.37 3.37 0 0 1-1.46-2.22l1.67-.42c.16.61.46 1.08.9 1.39.45.3 1.04.46 1.76.46.82 0 1.47-.18 1.95-.52.49-.36.73-.78.73-1.27 0-.4-.14-.73-.41-1a2.6 2.6 0 0 0-1.29-.61l-1.9-.45a4.55 4.55 0 0 1-2.32-1.16 2.8 2.8 0 0 1-.73-1.97c0-.65.18-1.22.55-1.72.36-.5.86-.89 1.5-1.17a5.26 5.26 0 0 1 2.16-.42c1.13 0 2.02.24 2.67.74.65.5 1.11 1.16 1.38 1.97Zm10.08 4.2V5.06h1.76V16.5h-1.76v-1.94h-.12a3.76 3.76 0 0 1-1.25 1.49c-.57.4-1.28.6-2.15.6a3.8 3.8 0 0 1-1.9-.47c-.56-.32-1-.8-1.32-1.43a5.44 5.44 0 0 1-.48-2.43V5.05h1.76v7.15c0 .84.24 1.5.7 2 .48.5 1.08.75 1.8.75a3 3 0 0 0 2.96-3.13Zm4.98 8.99V5.05h1.7v1.82h.21c.13-.2.31-.46.54-.77.23-.3.57-.59 1-.83A3.6 3.6 0 0 1 123 4.9a4.55 4.55 0 0 1 4.28 2.77c.41.89.62 1.93.62 3.13 0 1.22-.2 2.27-.62 3.16a4.49 4.49 0 0 1-4.24 2.78c-.74 0-1.33-.12-1.77-.37a3.27 3.27 0 0 1-1.02-.84 11.8 11.8 0 0 1-.56-.79h-.14v6.06h-1.77Zm1.73-10.03c0 .87.13 1.63.38 2.3.26.65.63 1.16 1.12 1.54.48.36 1.08.55 1.79.55.73 0 1.35-.2 1.84-.58.5-.4.87-.92 1.12-1.59.25-.66.38-1.4.38-2.22 0-.8-.13-1.53-.38-2.17a3.37 3.37 0 0 0-1.1-1.55 2.93 2.93 0 0 0-1.86-.57 2.94 2.94 0 0 0-2.91 2.05 6.18 6.18 0 0 0-.38 2.24Zm11.07 10.03V5.05h1.7v1.82h.21c.13-.2.3-.46.54-.77.23-.3.56-.59 1-.83a3.6 3.6 0 0 1 1.77-.37 4.55 4.55 0 0 1 4.27 2.77c.42.89.62 1.93.62 3.13 0 1.22-.2 2.27-.62 3.16a4.49 4.49 0 0 1-4.24 2.78c-.73 0-1.32-.12-1.77-.37a3.29 3.29 0 0 1-1.02-.84 11.1 11.1 0 0 1-.55-.79h-.15v6.06h-1.76Zm1.73-10.03c0 .87.13 1.63.38 2.3.25.65.63 1.16 1.11 1.54.49.36 1.09.55 1.8.55.73 0 1.34-.2 1.84-.58.5-.4.87-.92 1.11-1.59.26-.66.38-1.4.38-2.22 0-.8-.12-1.53-.37-2.17a3.37 3.37 0 0 0-1.11-1.55 2.93 2.93 0 0 0-1.86-.57 2.94 2.94 0 0 0-2.9 2.05 6.2 6.2 0 0 0-.38 2.24Zm15.72 5.97a5 5 0 0 1-2.72-.74 5.02 5.02 0 0 1-1.82-2.07 7 7 0 0 1-.65-3.1c0-1.2.22-2.23.65-3.12a5 5 0 0 1 1.82-2.08 5 5 0 0 1 2.72-.73c1.04 0 1.94.24 2.72.73.78.5 1.38 1.19 1.82 2.08.43.89.65 1.93.65 3.12 0 1.19-.22 2.22-.65 3.1a4.95 4.95 0 0 1-1.82 2.07 4.9 4.9 0 0 1-2.72.74Zm0-1.58c.79 0 1.43-.2 1.94-.6.5-.4.88-.94 1.13-1.6a6.1 6.1 0 0 0 .36-2.13c0-.76-.12-1.48-.36-2.14a3.61 3.61 0 0 0-1.13-1.6 3 3 0 0 0-1.94-.61 3 3 0 0 0-1.94.6c-.5.42-.88.95-1.12 1.61a6.13 6.13 0 0 0-.37 2.14c0 .77.12 1.48.37 2.14.24.65.62 1.18 1.12 1.58.51.4 1.16.6 1.94.6Zm7.88 1.34V5.05h1.7v1.73h.12c.2-.57.59-1.03 1.13-1.38a3.34 3.34 0 0 1 1.85-.53 19.55 19.55 0 0 1 .93.03v1.79a5.22 5.22 0 0 0-1.08-.12c-.56 0-1.05.11-1.49.35a2.58 2.58 0 0 0-1.4 2.33v7.25h-1.76Zm13.51-11.45v1.49h-5.93v-1.5h5.93Zm-4.2-2.75h1.75v10.92c0 .5.08.87.22 1.12.15.24.34.4.57.49a2.9 2.9 0 0 0 1.21.09l.3-.06.36 1.58a3.59 3.59 0 0 1-1.31.2c-.5 0-.99-.1-1.46-.31a2.9 2.9 0 0 1-1.18-.98 2.8 2.8 0 0 1-.47-1.65V2.3Zm15.65 18.23c-1.52 0-2.87-.21-4.04-.63a7.66 7.66 0 0 1-2.94-1.83 7.8 7.8 0 0 1-1.8-2.96c-.41-1.17-.62-2.5-.62-4 0-1.47.2-2.77.62-3.92a7.98 7.98 0 0 1 1.81-2.92 7.9 7.9 0 0 1 2.9-1.84c1.13-.42 2.42-.64 3.86-.64 1.4 0 2.62.23 3.67.69a7.53 7.53 0 0 1 4.23 4.44c.36.97.54 1.96.54 2.99 0 .72-.03 1.45-.1 2.19a8.32 8.32 0 0 1-.44 2.04 3.34 3.34 0 0 1-1.04 1.5c-.46.37-1.09.56-1.88.56-.35 0-.73-.05-1.15-.16a3 3 0 0 1-1.1-.55 1.5 1.5 0 0 1-.58-1.02h-.1a2.64 2.64 0 0 1-1.5 1.44c-.4.16-.88.22-1.45.2a3.89 3.89 0 0 1-1.7-.43 3.7 3.7 0 0 1-1.24-1.09c-.33-.46-.58-1-.75-1.6a7.6 7.6 0 0 1-.24-1.98c0-.67.1-1.28.3-1.84a4.19 4.19 0 0 1 3.64-2.93c.5-.05.94-.03 1.35.07.41.09.75.22 1 .4.27.18.44.38.5.6h.1v-.83h1.58v6.74c0 .42.12.78.35 1.1.23.32.57.48 1.02.48.5 0 .9-.17 1.16-.52.28-.35.46-.89.56-1.61.1-.73.16-1.66.16-2.8a7.16 7.16 0 0 0-1.1-3.79 5.97 5.97 0 0 0-3.34-2.51 8.02 8.02 0 0 0-2.54-.37c-1.17 0-2.22.18-3.14.54-.92.36-1.7.88-2.35 1.57a6.9 6.9 0 0 0-1.47 2.51c-.33.98-.5 2.1-.5 3.34 0 1.27.17 2.4.5 3.38a6.6 6.6 0 0 0 1.5 2.49 6.37 6.37 0 0 0 2.45 1.54 9.87 9.87 0 0 0 4.99.37 14.38 14.38 0 0 0 2.29-.62l.41 1.37a15 15 0 0 1-4.38.84Zm-.87-5.94c.67 0 1.2-.13 1.62-.4.41-.27.72-.68.9-1.22.2-.54.29-1.22.29-2.05 0-.83-.1-1.48-.32-1.95-.2-.47-.51-.8-.92-.99-.4-.19-.91-.28-1.5-.28-.57 0-1.06.15-1.46.45-.4.3-.7.68-.92 1.18a4 4 0 0 0-.31 1.6c0 .63.08 1.23.25 1.79.17.56.45 1 .83 1.36.38.34.9.51 1.54.51Zm16.36 6.44c-.85 0-1.58-.1-2.2-.32a4.65 4.65 0 0 1-2.48-1.97l1.4-.99c.16.21.36.45.6.72.25.27.58.5 1 .7.43.21.99.31 1.68.31.92 0 1.69-.22 2.29-.67.6-.45.9-1.15.9-2.1v-2.33h-.15a9.3 9.3 0 0 1-.55.78c-.23.3-.57.57-1.01.81-.44.23-1.03.35-1.78.35a4.6 4.6 0 0 1-4.23-2.57 6.68 6.68 0 0 1-.63-3.04c0-1.17.2-2.2.62-3.06a4.55 4.55 0 0 1 4.27-2.75c.75 0 1.34.12 1.78.37.44.24.78.52 1.01.83.24.31.42.57.55.77h.18V5.05h1.7v11.78a4 4 0 0 1-.67 2.4 3.82 3.82 0 0 1-1.79 1.36c-.75.3-1.58.44-2.5.44Zm-.06-6.29c.7 0 1.3-.16 1.79-.48.49-.33.86-.8 1.11-1.4.25-.6.38-1.33.38-2.18a5.9 5.9 0 0 0-.37-2.18A3.27 3.27 0 0 0 198.1 7a2.96 2.96 0 0 0-1.81-.53 3 3 0 0 0-1.87.56 3.4 3.4 0 0 0-1.1 1.53 5.9 5.9 0 0 0-.37 2.11c0 .8.12 1.5.37 2.11.25.61.63 1.09 1.12 1.44.5.34 1.11.51 1.85.51Zm8.23 1.76V5.05h1.7v1.79h.15c.24-.62.63-1.1 1.16-1.43a3.46 3.46 0 0 1 1.92-.51c.75 0 1.38.17 1.88.51.5.34.9.81 1.19 1.43h.12a3.2 3.2 0 0 1 1.32-1.41 4.02 4.02 0 0 1 2.1-.53c1.03 0 1.87.32 2.52.96.65.63.98 1.63.98 2.97v7.67h-1.76V8.83c0-.84-.23-1.45-.7-1.8-.46-.37-1-.55-1.63-.55-.8 0-1.43.24-1.87.73-.44.48-.67 1.1-.67 1.83v7.46h-1.78V8.65c0-.65-.22-1.17-.64-1.57-.42-.4-.97-.6-1.63-.6-.46 0-.89.12-1.28.36-.4.25-.72.58-.96 1.02-.24.42-.36.92-.36 1.48v7.16h-1.76Zm21.63.27a4.7 4.7 0 0 1-1.98-.41 3.4 3.4 0 0 1-1.41-1.2 3.39 3.39 0 0 1-.52-1.91c0-.66.13-1.19.38-1.6.26-.41.61-.73 1.04-.97.44-.23.91-.4 1.43-.52a31.56 31.56 0 0 1 3.29-.48c.43-.05.75-.14.95-.25.2-.11.3-.31.3-.6v-.06c0-.73-.2-1.3-.6-1.71-.4-.4-1-.61-1.81-.61-.84 0-1.5.18-1.98.55-.47.37-.81.76-1 1.18l-1.67-.6a4 4 0 0 1 2.83-2.45 6.8 6.8 0 0 1 3.03-.1c.48.09.94.26 1.4.53.44.27.82.67 1.12 1.22.3.54.44 1.26.44 2.17v7.55h-1.75v-1.55h-.1a3.43 3.43 0 0 1-1.7 1.52c-.46.2-1.03.3-1.7.3Zm.26-1.58c.7 0 1.29-.14 1.76-.41a2.8 2.8 0 0 0 1.47-2.43v-1.6c-.08.08-.24.16-.5.24-.25.07-.53.13-.86.19a39.62 39.62 0 0 1-1.69.22c-.45.06-.88.16-1.28.29-.4.13-.71.33-.95.59a1.5 1.5 0 0 0-.36 1.06c0 .61.22 1.07.68 1.39.45.3 1.03.46 1.73.46Zm8.2 1.31V5.05h1.76V16.5h-1.76Zm.9-13.36c-.35 0-.65-.12-.9-.35a1.12 1.12 0 0 1-.36-.85c0-.32.12-.6.37-.84.24-.23.54-.35.88-.35.35 0 .64.12.88.35.25.23.38.52.38.84 0 .33-.13.61-.38.85-.24.23-.53.35-.88.35Zm5.84-1.91V16.5h-1.76V1.23h1.76Zm4.5 15.39a1.3 1.3 0 0 1-.94-.4 1.3 1.3 0 0 1-.4-.94c0-.37.14-.69.4-.95s.58-.4.95-.4.68.14.94.4c.27.26.4.58.4.95a1.39 1.39 0 0 1-.67 1.16c-.2.12-.42.18-.67.18Zm9.16.12c-1.07 0-2-.25-2.77-.76a4.96 4.96 0 0 1-1.8-2.1 7.1 7.1 0 0 1-.62-3.05 7 7 0 0 1 .64-3.08A4.84 4.84 0 0 1 255 4.9c.8 0 1.53.16 2.18.45.64.3 1.18.72 1.59 1.26.41.53.67 1.16.76 1.88h-1.75a2.68 2.68 0 0 0-2.74-2 3.1 3.1 0 0 0-1.81.53 3.5 3.5 0 0 0-1.2 1.5c-.29.64-.43 1.4-.43 2.26 0 .89.14 1.66.42 2.31.28.66.68 1.17 1.2 1.53.5.37 1.11.55 1.81.55.46 0 .87-.08 1.25-.24a2.58 2.58 0 0 0 1.5-1.76h1.75a4.07 4.07 0 0 1-2.28 3.1c-.63.32-1.37.48-2.22.48Zm11.73 0a5 5 0 0 1-2.72-.74 5.01 5.01 0 0 1-1.82-2.07 6.98 6.98 0 0 1-.65-3.1c0-1.2.22-2.23.65-3.12a5 5 0 0 1 1.82-2.08 5 5 0 0 1 2.72-.73c1.04 0 1.94.24 2.72.73.78.5 1.38 1.19 1.82 2.08.43.89.65 1.93.65 3.12 0 1.19-.22 2.22-.65 3.1a4.95 4.95 0 0 1-1.82 2.07 4.9 4.9 0 0 1-2.72.74Zm0-1.58c.79 0 1.43-.2 1.94-.6.5-.4.88-.94 1.13-1.6a6.1 6.1 0 0 0 .36-2.13c0-.76-.12-1.48-.36-2.14a3.6 3.6 0 0 0-1.13-1.6 3 3 0 0 0-1.94-.61 3 3 0 0 0-1.94.6c-.5.42-.88.95-1.12 1.61a6.13 6.13 0 0 0-.37 2.14c0 .77.12 1.48.37 2.14.24.65.62 1.18 1.12 1.58.51.4 1.16.6 1.94.6Zm7.88 1.34V5.05h1.7v1.79h.15c.24-.62.62-1.1 1.15-1.43a3.46 3.46 0 0 1 1.92-.51c.76 0 1.38.17 1.89.51.5.34.9.81 1.18 1.43h.12c.3-.6.74-1.07 1.32-1.41a4.02 4.02 0 0 1 2.11-.53c1.03 0 1.86.32 2.52.96.65.63.97 1.63.97 2.97v7.67h-1.76V8.83c0-.84-.23-1.45-.7-1.8-.45-.37-1-.55-1.62-.55-.81 0-1.43.24-1.88.73-.44.48-.66 1.1-.66 1.83v7.46h-1.79V8.65c0-.65-.21-1.17-.63-1.57a2.3 2.3 0 0 0-1.64-.6c-.45 0-.88.12-1.28.36-.4.25-.71.58-.95 1.02a3 3 0 0 0-.36 1.48v7.16h-1.76Z" fill="#0F67F5"/></svg>