<svg width="672" height="80" viewBox="0 0 672 80" fill="none" xmlns="http://www.w3.org/2000/svg">
<rect width="672" height="80" fill="#F6F6F6"/>
<path d="M48.5043 45V34.8182H50.3487V43.4538H54.8331V45H48.5043ZM59.7351 45.1491C58.9695 45.1491 58.3082 44.9901 57.7514 44.6719C57.1979 44.3504 56.772 43.8963 56.4737 43.3097C56.1754 42.7197 56.0263 42.0253 56.0263 41.2266C56.0263 40.4411 56.1754 39.7517 56.4737 39.1584C56.7753 38.5618 57.1963 38.0978 57.7365 37.7663C58.2768 37.4316 58.9115 37.2642 59.6406 37.2642C60.1113 37.2642 60.5554 37.3404 60.973 37.4929C61.3939 37.642 61.7652 37.8741 62.0866 38.1889C62.4115 38.5038 62.6667 38.9048 62.8523 39.392C63.0379 39.8759 63.1307 40.4527 63.1307 41.1222V41.674H56.8714V40.4609H61.4055C61.4022 40.1162 61.3277 39.8097 61.1818 39.5412C61.036 39.2694 60.8321 39.0556 60.5703 38.8999C60.3118 38.7441 60.0102 38.6662 59.6655 38.6662C59.2976 38.6662 58.9744 38.7557 58.696 38.9347C58.4176 39.1103 58.2005 39.3423 58.0447 39.6307C57.8923 39.9157 57.8144 40.2289 57.8111 40.5703V41.6293C57.8111 42.0734 57.8923 42.4545 58.0547 42.7727C58.2171 43.0876 58.4441 43.3295 58.7358 43.4986C59.0275 43.6643 59.3688 43.7472 59.7599 43.7472C60.0218 43.7472 60.2588 43.7107 60.4709 43.6378C60.683 43.5616 60.867 43.4505 61.0227 43.3047C61.1785 43.1589 61.2962 42.9782 61.3757 42.7628L63.0561 42.9517C62.95 43.3958 62.7479 43.7836 62.4496 44.1151C62.1546 44.4432 61.7768 44.6984 61.3161 44.8807C60.8554 45.0597 60.3284 45.1491 59.7351 45.1491ZM66.8507 45.1541C66.3668 45.1541 65.9309 45.0679 65.5431 44.8956C65.1587 44.7199 64.8538 44.4614 64.6284 44.12C64.4063 43.7786 64.2953 43.3577 64.2953 42.8572C64.2953 42.4264 64.3748 42.0701 64.5339 41.7884C64.693 41.5066 64.9101 41.2812 65.1852 41.1122C65.4603 40.9432 65.7702 40.8156 66.1149 40.7294C66.4629 40.6399 66.8225 40.5753 67.1937 40.5355C67.6412 40.4891 68.0041 40.4477 68.2825 40.4112C68.5609 40.3714 68.7631 40.3118 68.889 40.2322C69.0183 40.1494 69.0829 40.0218 69.0829 39.8494V39.8196C69.0829 39.4451 68.9719 39.1551 68.7498 38.9496C68.5278 38.7441 68.2079 38.6413 67.7903 38.6413C67.3495 38.6413 66.9998 38.7375 66.7413 38.9297C66.4861 39.1219 66.3137 39.349 66.2243 39.6108L64.5439 39.3722C64.6764 38.9081 64.8952 38.5204 65.2001 38.2088C65.505 37.8939 65.8779 37.6586 66.3187 37.5028C66.7595 37.3438 67.2467 37.2642 67.7804 37.2642C68.1483 37.2642 68.5145 37.3073 68.8791 37.3935C69.2437 37.4796 69.5768 37.6222 69.8784 37.821C70.18 38.0166 70.4219 38.2834 70.6042 38.6214C70.7898 38.9595 70.8826 39.3821 70.8826 39.8892V45H69.1525V43.951H69.0929C68.9835 44.1631 68.8294 44.362 68.6305 44.5476C68.435 44.7299 68.188 44.8774 67.8897 44.9901C67.5948 45.0994 67.2484 45.1541 66.8507 45.1541ZM67.318 43.8317C67.6793 43.8317 67.9925 43.7604 68.2576 43.6179C68.5228 43.4721 68.7266 43.2798 68.8691 43.0412C69.015 42.8026 69.0879 42.5424 69.0879 42.2607V41.3608C69.0315 41.4072 68.9354 41.4503 68.7995 41.4901C68.667 41.5298 68.5178 41.5646 68.3521 41.5945C68.1864 41.6243 68.0223 41.6508 67.8599 41.674C67.6975 41.6972 67.5566 41.7171 67.4373 41.7337C67.1689 41.7701 66.9286 41.8298 66.7164 41.9126C66.5043 41.9955 66.3369 42.1115 66.2143 42.2607C66.0917 42.4065 66.0304 42.5954 66.0304 42.8274C66.0304 43.1589 66.1513 43.4091 66.3933 43.5781C66.6352 43.7472 66.9435 43.8317 67.318 43.8317ZM72.6923 45V37.3636H74.4373V38.6364H74.5169C74.6561 38.1955 74.8947 37.8558 75.2328 37.6172C75.5742 37.3752 75.9636 37.2543 76.4011 37.2543C76.5005 37.2543 76.6116 37.2592 76.7342 37.2692C76.8601 37.2758 76.9645 37.2874 77.0474 37.304V38.9595C76.9712 38.933 76.8502 38.9098 76.6845 38.8899C76.5221 38.8667 76.3646 38.8551 76.2122 38.8551C75.8841 38.8551 75.5891 38.9264 75.3272 39.0689C75.0687 39.2081 74.8649 39.402 74.7157 39.6506C74.5666 39.8991 74.492 40.1858 74.492 40.5107V45H72.6923ZM80.0428 40.5256V45H78.2431V37.3636H79.9632V38.6612H80.0527C80.2284 38.2337 80.5085 37.8939 80.8929 37.642C81.2807 37.3902 81.7596 37.2642 82.3297 37.2642C82.8567 37.2642 83.3158 37.3769 83.7069 37.6023C84.1013 37.8277 84.4062 38.1541 84.6216 38.5817C84.8404 39.0092 84.9481 39.5279 84.9448 40.1378V45H83.1451V40.4162C83.1451 39.9058 83.0125 39.5064 82.7473 39.218C82.4855 38.9297 82.1226 38.7855 81.6586 38.7855C81.3437 38.7855 81.0636 38.8551 80.8184 38.9943C80.5764 39.1302 80.3858 39.3274 80.2466 39.5859C80.1107 39.8445 80.0428 40.1577 80.0428 40.5256ZM90.247 45V37.3636H91.9672V38.6612H92.0566C92.2157 38.2237 92.4792 37.8823 92.8471 37.6371C93.215 37.3885 93.6542 37.2642 94.1646 37.2642C94.6816 37.2642 95.1175 37.3902 95.4721 37.642C95.8301 37.8906 96.082 38.2304 96.2278 38.6612H96.3074C96.4764 38.237 96.7614 37.8989 97.1625 37.647C97.5668 37.3918 98.0458 37.2642 98.5993 37.2642C99.3019 37.2642 99.8753 37.4863 100.319 37.9304C100.764 38.3745 100.986 39.0225 100.986 39.8743V45H99.1809V40.1527C99.1809 39.6787 99.055 39.3324 98.8031 39.1136C98.5512 38.8916 98.243 38.7805 97.8784 38.7805C97.4442 38.7805 97.1045 38.9164 96.8592 39.1882C96.6172 39.4567 96.4963 39.8063 96.4963 40.2372V45H94.7314V40.0781C94.7314 39.6837 94.612 39.3688 94.3734 39.1335C94.1381 38.8982 93.8298 38.7805 93.4487 38.7805C93.1902 38.7805 92.9548 38.8468 92.7427 38.9794C92.5306 39.1087 92.3616 39.2926 92.2356 39.5312C92.1097 39.7666 92.0467 40.0417 92.0467 40.3565V45H90.247ZM106.142 45.1491C105.397 45.1491 104.75 44.9851 104.203 44.657C103.657 44.3288 103.232 43.8698 102.931 43.2798C102.632 42.6899 102.483 42.0005 102.483 41.2116C102.483 40.4228 102.632 39.7318 102.931 39.1385C103.232 38.5452 103.657 38.0845 104.203 37.7564C104.75 37.4283 105.397 37.2642 106.142 37.2642C106.888 37.2642 107.534 37.4283 108.081 37.7564C108.628 38.0845 109.051 38.5452 109.349 39.1385C109.651 39.7318 109.801 40.4228 109.801 41.2116C109.801 42.0005 109.651 42.6899 109.349 43.2798C109.051 43.8698 108.628 44.3288 108.081 44.657C107.534 44.9851 106.888 45.1491 106.142 45.1491ZM106.152 43.7074C106.557 43.7074 106.895 43.5964 107.167 43.3743C107.438 43.1489 107.641 42.8473 107.773 42.4695C107.909 42.0916 107.977 41.6707 107.977 41.2067C107.977 40.7393 107.909 40.3168 107.773 39.9389C107.641 39.5578 107.438 39.2545 107.167 39.0291C106.895 38.8037 106.557 38.6911 106.152 38.6911C105.738 38.6911 105.393 38.8037 105.118 39.0291C104.846 39.2545 104.643 39.5578 104.507 39.9389C104.374 40.3168 104.308 40.7393 104.308 41.2067C104.308 41.6707 104.374 42.0916 104.507 42.4695C104.643 42.8473 104.846 43.1489 105.118 43.3743C105.393 43.5964 105.738 43.7074 106.152 43.7074ZM111.329 45V37.3636H113.074V38.6364H113.154C113.293 38.1955 113.531 37.8558 113.869 37.6172C114.211 37.3752 114.6 37.2543 115.038 37.2543C115.137 37.2543 115.248 37.2592 115.371 37.2692C115.497 37.2758 115.601 37.2874 115.684 37.304V38.9595C115.608 38.933 115.487 38.9098 115.321 38.8899C115.159 38.8667 115.001 38.8551 114.849 38.8551C114.521 38.8551 114.226 38.9264 113.964 39.0689C113.705 39.2081 113.502 39.402 113.352 39.6506C113.203 39.8991 113.129 40.1858 113.129 40.5107V45H111.329ZM119.946 45.1491C119.18 45.1491 118.519 44.9901 117.962 44.6719C117.409 44.3504 116.983 43.8963 116.685 43.3097C116.386 42.7197 116.237 42.0253 116.237 41.2266C116.237 40.4411 116.386 39.7517 116.685 39.1584C116.986 38.5618 117.407 38.0978 117.947 37.7663C118.488 37.4316 119.122 37.2642 119.852 37.2642C120.322 37.2642 120.766 37.3404 121.184 37.4929C121.605 37.642 121.976 37.8741 122.298 38.1889C122.622 38.5038 122.878 38.9048 123.063 39.392C123.249 39.8759 123.342 40.4527 123.342 41.1222V41.674H117.082V40.4609H121.616C121.613 40.1162 121.539 39.8097 121.393 39.5412C121.247 39.2694 121.043 39.0556 120.781 38.8999C120.523 38.7441 120.221 38.6662 119.876 38.6662C119.509 38.6662 119.185 38.7557 118.907 38.9347C118.629 39.1103 118.411 39.3423 118.256 39.6307C118.103 39.9157 118.025 40.2289 118.022 40.5703V41.6293C118.022 42.0734 118.103 42.4545 118.266 42.7727C118.428 43.0876 118.655 43.3295 118.947 43.4986C119.238 43.6643 119.58 43.7472 119.971 43.7472C120.233 43.7472 120.47 43.7107 120.682 43.6378C120.894 43.5616 121.078 43.4505 121.234 43.3047C121.389 43.1589 121.507 42.9782 121.587 42.7628L123.267 42.9517C123.161 43.3958 122.959 43.7836 122.661 44.1151C122.366 44.4432 121.988 44.6984 121.527 44.8807C121.066 45.0597 120.539 45.1491 119.946 45.1491Z" fill="#0F67F5"/>
<line x1="157" y1="32" x2="157" y2="48" stroke="#757575"/>
<path d="M198.339 38H197.106C197.033 37.6454 196.906 37.3338 196.723 37.0653C196.544 36.7969 196.326 36.5715 196.067 36.3892C195.812 36.2036 195.529 36.0644 195.217 35.9716C194.906 35.8788 194.581 35.8324 194.243 35.8324C193.626 35.8324 193.068 35.9882 192.567 36.2997C192.07 36.6113 191.674 37.0703 191.379 37.6768C191.087 38.2834 190.941 39.0275 190.941 39.9091C190.941 40.7907 191.087 41.5348 191.379 42.1413C191.674 42.7479 192.07 43.2069 192.567 43.5185C193.068 43.83 193.626 43.9858 194.243 43.9858C194.581 43.9858 194.906 43.9394 195.217 43.8466C195.529 43.7538 195.812 43.6162 196.067 43.4339C196.326 43.2483 196.544 43.0213 196.723 42.7528C196.906 42.4811 197.033 42.1695 197.106 41.8182H198.339C198.246 42.3385 198.077 42.8042 197.832 43.2152C197.587 43.6262 197.282 43.9759 196.917 44.2642C196.553 44.5492 196.143 44.7663 195.689 44.9155C195.239 45.0646 194.756 45.1392 194.243 45.1392C193.374 45.1392 192.602 44.9271 191.926 44.5028C191.25 44.0786 190.718 43.4754 190.33 42.6932C189.942 41.911 189.748 40.983 189.748 39.9091C189.748 38.8352 189.942 37.9072 190.33 37.125C190.718 36.3428 191.25 35.7396 191.926 35.3153C192.602 34.8911 193.374 34.679 194.243 34.679C194.756 34.679 195.239 34.7536 195.689 34.9027C196.143 35.0518 196.553 35.2706 196.917 35.5589C197.282 35.844 197.587 36.192 197.832 36.603C198.077 37.0107 198.246 37.4763 198.339 38ZM203.275 45.1591C202.585 45.1591 201.98 44.995 201.46 44.6669C200.943 44.3388 200.539 43.8797 200.247 43.2898C199.959 42.6998 199.815 42.0104 199.815 41.2216C199.815 40.4261 199.959 39.7318 200.247 39.1385C200.539 38.5452 200.943 38.0845 201.46 37.7564C201.98 37.4283 202.585 37.2642 203.275 37.2642C203.964 37.2642 204.567 37.4283 205.084 37.7564C205.605 38.0845 206.009 38.5452 206.297 39.1385C206.589 39.7318 206.735 40.4261 206.735 41.2216C206.735 42.0104 206.589 42.6998 206.297 43.2898C206.009 43.8797 205.605 44.3388 205.084 44.6669C204.567 44.995 203.964 45.1591 203.275 45.1591ZM203.275 44.1051C203.798 44.1051 204.229 43.9709 204.567 43.7024C204.905 43.4339 205.156 43.081 205.318 42.6435C205.48 42.206 205.562 41.732 205.562 41.2216C205.562 40.7112 205.48 40.2356 205.318 39.7947C205.156 39.3539 204.905 38.9976 204.567 38.7259C204.229 38.4541 203.798 38.3182 203.275 38.3182C202.751 38.3182 202.32 38.4541 201.982 38.7259C201.644 38.9976 201.394 39.3539 201.231 39.7947C201.069 40.2356 200.988 40.7112 200.988 41.2216C200.988 41.732 201.069 42.206 201.231 42.6435C201.394 43.081 201.644 43.4339 201.982 43.7024C202.32 43.9709 202.751 44.1051 203.275 44.1051ZM209.699 40.4062V45H208.526V37.3636H209.66V38.5568H209.759C209.938 38.169 210.21 37.8575 210.574 37.6222C210.939 37.3835 211.41 37.2642 211.986 37.2642C212.503 37.2642 212.956 37.3703 213.343 37.5824C213.731 37.7912 214.033 38.1094 214.248 38.5369C214.464 38.9612 214.571 39.4981 214.571 40.1477V45H213.398V40.2273C213.398 39.6274 213.242 39.16 212.931 38.8253C212.619 38.4872 212.192 38.3182 211.648 38.3182C211.274 38.3182 210.939 38.3994 210.644 38.5618C210.352 38.7242 210.122 38.9612 209.953 39.2727C209.784 39.5843 209.699 39.9621 209.699 40.4062ZM220.036 37.3636V38.358H216.079V37.3636H220.036ZM217.233 35.5341H218.406V42.8125C218.406 43.1439 218.454 43.3925 218.55 43.5582C218.649 43.7206 218.775 43.83 218.928 43.8864C219.084 43.9394 219.248 43.9659 219.42 43.9659C219.549 43.9659 219.655 43.9593 219.738 43.946C219.821 43.9295 219.887 43.9162 219.937 43.9062L220.176 44.9602C220.096 44.9901 219.985 45.0199 219.843 45.0497C219.7 45.0829 219.519 45.0994 219.301 45.0994C218.969 45.0994 218.644 45.0282 218.326 44.8857C218.011 44.7431 217.75 44.526 217.541 44.2344C217.335 43.9427 217.233 43.5748 217.233 43.1307V35.5341ZM224.049 45.179C223.565 45.179 223.126 45.0878 222.731 44.9055C222.337 44.7199 222.023 44.4531 221.791 44.1051C221.559 43.7538 221.443 43.3295 221.443 42.8324C221.443 42.3949 221.53 42.0402 221.702 41.7685C221.874 41.4934 222.105 41.2779 222.393 41.1222C222.681 40.9664 223 40.8504 223.348 40.7741C223.699 40.6946 224.052 40.6316 224.407 40.5852C224.871 40.5256 225.247 40.4808 225.535 40.451C225.827 40.4179 226.039 40.3632 226.171 40.2869C226.307 40.2107 226.375 40.0781 226.375 39.8892V39.8494C226.375 39.3589 226.241 38.9777 225.973 38.706C225.707 38.4342 225.305 38.2983 224.764 38.2983C224.204 38.2983 223.765 38.4209 223.447 38.6662C223.129 38.9115 222.905 39.1733 222.776 39.4517L221.662 39.054C221.861 38.59 222.126 38.2287 222.458 37.9702C222.792 37.7083 223.157 37.526 223.551 37.4233C223.949 37.3172 224.34 37.2642 224.725 37.2642C224.97 37.2642 225.252 37.294 225.57 37.3537C225.891 37.41 226.201 37.5277 226.5 37.7067C226.801 37.8857 227.051 38.1558 227.25 38.517C227.449 38.8783 227.549 39.3622 227.549 39.9688V45H226.375V43.9659H226.316C226.236 44.1316 226.103 44.3089 225.918 44.4979C225.732 44.6868 225.485 44.8475 225.177 44.9801C224.869 45.1127 224.493 45.179 224.049 45.179ZM224.228 44.125C224.692 44.125 225.083 44.0339 225.401 43.8516C225.722 43.6693 225.964 43.4339 226.127 43.1456C226.292 42.8572 226.375 42.554 226.375 42.2358V41.1619C226.326 41.2216 226.216 41.2763 226.047 41.326C225.881 41.3724 225.689 41.4138 225.47 41.4503C225.255 41.4834 225.045 41.5133 224.839 41.5398C224.637 41.563 224.473 41.5829 224.347 41.5994C224.042 41.6392 223.757 41.7038 223.492 41.7933C223.23 41.8795 223.018 42.0104 222.855 42.1861C222.696 42.3584 222.617 42.5937 222.617 42.892C222.617 43.2997 222.768 43.608 223.069 43.8168C223.374 44.0223 223.76 44.125 224.228 44.125ZM232.792 45.1591C232.076 45.1591 231.46 44.9901 230.943 44.652C230.426 44.3139 230.028 43.8482 229.75 43.255C229.471 42.6617 229.332 41.9839 229.332 41.2216C229.332 40.446 229.475 39.7616 229.76 39.1683C230.048 38.5717 230.449 38.1061 230.963 37.7713C231.48 37.4332 232.083 37.2642 232.772 37.2642C233.309 37.2642 233.793 37.3636 234.224 37.5625C234.655 37.7614 235.008 38.0398 235.283 38.3977C235.558 38.7557 235.729 39.1733 235.795 39.6506H234.622C234.532 39.3026 234.334 38.9943 234.025 38.7259C233.72 38.4541 233.309 38.3182 232.792 38.3182C232.335 38.3182 231.934 38.4375 231.589 38.6761C231.248 38.9115 230.981 39.2446 230.789 39.6754C230.6 40.103 230.505 40.6051 230.505 41.1818C230.505 41.7718 230.598 42.2855 230.784 42.723C230.973 43.1605 231.238 43.5002 231.579 43.7422C231.924 43.9841 232.328 44.1051 232.792 44.1051C233.097 44.1051 233.374 44.0521 233.623 43.946C233.871 43.84 234.082 43.6875 234.254 43.4886C234.426 43.2898 234.549 43.0511 234.622 42.7727H235.795C235.729 43.2235 235.565 43.6295 235.303 43.9908C235.044 44.3487 234.701 44.6338 234.274 44.8459C233.85 45.0547 233.356 45.1591 232.792 45.1591ZM240.831 37.3636V38.358H236.874V37.3636H240.831ZM238.027 35.5341H239.201V42.8125C239.201 43.1439 239.249 43.3925 239.345 43.5582C239.444 43.7206 239.57 43.83 239.723 43.8864C239.879 43.9394 240.043 43.9659 240.215 43.9659C240.344 43.9659 240.45 43.9593 240.533 43.946C240.616 43.9295 240.682 43.9162 240.732 43.9062L240.971 44.9602C240.891 44.9901 240.78 45.0199 240.638 45.0497C240.495 45.0829 240.314 45.0994 240.096 45.0994C239.764 45.0994 239.439 45.0282 239.121 44.8857C238.806 44.7431 238.544 44.526 238.336 44.2344C238.13 43.9427 238.027 43.5748 238.027 43.1307V35.5341ZM251.346 41.8778V37.3636H252.52V45H251.346V43.7074H251.267C251.088 44.0952 250.809 44.425 250.432 44.6967C250.054 44.9652 249.576 45.0994 249 45.0994C248.522 45.0994 248.098 44.995 247.727 44.7862C247.356 44.5741 247.064 44.2559 246.852 43.8317C246.64 43.4041 246.534 42.8655 246.534 42.2159V37.3636H247.707V42.1364C247.707 42.6932 247.863 43.1373 248.174 43.4688C248.489 43.8002 248.89 43.9659 249.378 43.9659C249.669 43.9659 249.966 43.8913 250.267 43.7422C250.572 43.593 250.828 43.3643 251.033 43.0561C251.242 42.7479 251.346 42.3551 251.346 41.8778ZM260.078 39.0739L259.024 39.3722C258.957 39.1965 258.86 39.0258 258.73 38.8601C258.604 38.6911 258.432 38.5518 258.213 38.4425C257.995 38.3331 257.715 38.2784 257.373 38.2784C256.906 38.2784 256.516 38.3861 256.205 38.6016C255.897 38.8137 255.742 39.0838 255.742 39.4119C255.742 39.7036 255.849 39.9339 256.061 40.103C256.273 40.272 256.604 40.4129 257.055 40.5256L258.188 40.804C258.871 40.9697 259.38 41.2232 259.715 41.5646C260.05 41.9027 260.217 42.3385 260.217 42.8722C260.217 43.3097 260.091 43.7008 259.839 44.0455C259.59 44.3902 259.242 44.6619 258.795 44.8608C258.348 45.0597 257.827 45.1591 257.234 45.1591C256.455 45.1591 255.81 44.9901 255.3 44.652C254.79 44.3139 254.466 43.8201 254.331 43.1705L255.444 42.892C255.55 43.303 255.751 43.6113 256.046 43.8168C256.344 44.0223 256.733 44.125 257.214 44.125C257.761 44.125 258.195 44.009 258.517 43.777C258.841 43.5417 259.004 43.2599 259.004 42.9318C259.004 42.6667 258.911 42.4446 258.725 42.2656C258.54 42.0833 258.255 41.9474 257.87 41.858L256.598 41.5597C255.898 41.3939 255.384 41.1371 255.056 40.7891C254.732 40.4377 254.569 39.9986 254.569 39.4716C254.569 39.0407 254.69 38.6596 254.932 38.3281C255.177 37.9967 255.51 37.7365 255.931 37.5476C256.356 37.3587 256.836 37.2642 257.373 37.2642C258.129 37.2642 258.722 37.4299 259.153 37.7614C259.587 38.0928 259.895 38.5303 260.078 39.0739ZM268.804 45.1591C268.168 45.1591 267.606 44.9983 267.119 44.6768C266.631 44.352 266.25 43.8946 265.975 43.3047C265.7 42.7114 265.563 42.0104 265.563 41.2017C265.563 40.3996 265.7 39.7036 265.975 39.1136C266.25 38.5237 266.633 38.0679 267.124 37.7464C267.614 37.425 268.181 37.2642 268.824 37.2642C269.321 37.2642 269.714 37.3471 270.002 37.5128C270.294 37.6752 270.516 37.8608 270.668 38.0696C270.824 38.2751 270.945 38.4441 271.031 38.5767H271.131V34.8182H272.304V45H271.171V43.8267H271.031C270.945 43.9659 270.823 44.1416 270.663 44.3537C270.504 44.5625 270.277 44.7498 269.982 44.9155C269.687 45.0779 269.295 45.1591 268.804 45.1591ZM268.963 44.1051C269.434 44.1051 269.832 43.9825 270.156 43.7372C270.481 43.4886 270.728 43.1456 270.897 42.7081C271.066 42.2673 271.151 41.7585 271.151 41.1818C271.151 40.6117 271.068 40.1129 270.902 39.6854C270.736 39.2545 270.491 38.9197 270.166 38.6811C269.841 38.4392 269.44 38.3182 268.963 38.3182C268.466 38.3182 268.052 38.4458 267.72 38.701C267.392 38.9529 267.145 39.2959 266.979 39.7301C266.817 40.161 266.736 40.6449 266.736 41.1818C266.736 41.7254 266.819 42.2192 266.984 42.6634C267.153 43.1042 267.402 43.4555 267.73 43.7173C268.062 43.9759 268.473 44.1051 268.963 44.1051ZM274.616 45V37.3636H275.789V45H274.616ZM275.212 36.0909C274.984 36.0909 274.787 36.013 274.621 35.8572C274.458 35.7015 274.377 35.5142 274.377 35.2955C274.377 35.0767 274.458 34.8894 274.621 34.7337C274.787 34.5779 274.984 34.5 275.212 34.5C275.441 34.5 275.637 34.5779 275.799 34.7337C275.965 34.8894 276.048 35.0767 276.048 35.2955C276.048 35.5142 275.965 35.7015 275.799 35.8572C275.637 36.013 275.441 36.0909 275.212 36.0909ZM277.938 45V37.3636H279.072V38.517H279.151C279.29 38.1392 279.542 37.8326 279.907 37.5973C280.271 37.362 280.682 37.2443 281.14 37.2443C281.226 37.2443 281.334 37.246 281.463 37.2493C281.592 37.2526 281.69 37.2576 281.756 37.2642V38.4574C281.717 38.4474 281.625 38.4325 281.483 38.4126C281.344 38.3894 281.196 38.3778 281.04 38.3778C280.669 38.3778 280.338 38.4557 280.046 38.6115C279.758 38.764 279.529 38.9761 279.36 39.2479C279.194 39.5163 279.111 39.8229 279.111 40.1676V45H277.938ZM286.116 45.1591C285.381 45.1591 284.746 44.9967 284.212 44.6719C283.682 44.3438 283.273 43.8864 282.984 43.2997C282.699 42.7098 282.557 42.0237 282.557 41.2415C282.557 40.4593 282.699 39.7699 282.984 39.1733C283.273 38.5734 283.674 38.1061 284.187 37.7713C284.704 37.4332 285.308 37.2642 285.997 37.2642C286.395 37.2642 286.788 37.3305 287.175 37.4631C287.563 37.5956 287.916 37.8111 288.234 38.1094C288.552 38.4044 288.806 38.7955 288.995 39.2827C289.184 39.7699 289.278 40.3698 289.278 41.0824V41.5795H283.392V40.5653H288.085C288.085 40.1345 287.999 39.75 287.827 39.4119C287.658 39.0739 287.416 38.8071 287.101 38.6115C286.789 38.416 286.421 38.3182 285.997 38.3182C285.53 38.3182 285.125 38.4342 284.784 38.6662C284.446 38.8949 284.186 39.1932 284.003 39.5611C283.821 39.929 283.73 40.3234 283.73 40.7443V41.4205C283.73 41.9972 283.829 42.486 284.028 42.8871C284.23 43.2848 284.511 43.5881 284.869 43.7969C285.226 44.0024 285.642 44.1051 286.116 44.1051C286.425 44.1051 286.703 44.062 286.952 43.9759C287.204 43.8864 287.421 43.7538 287.603 43.5781C287.785 43.3991 287.926 43.1771 288.025 42.9119L289.159 43.2301C289.04 43.6146 288.839 43.9527 288.557 44.2443C288.276 44.5327 287.928 44.758 287.513 44.9205C287.099 45.0795 286.633 45.1591 286.116 45.1591ZM294.165 45.1591C293.449 45.1591 292.833 44.9901 292.316 44.652C291.799 44.3139 291.401 43.8482 291.123 43.255C290.844 42.6617 290.705 41.9839 290.705 41.2216C290.705 40.446 290.848 39.7616 291.133 39.1683C291.421 38.5717 291.822 38.1061 292.336 37.7713C292.853 37.4332 293.456 37.2642 294.146 37.2642C294.682 37.2642 295.166 37.3636 295.597 37.5625C296.028 37.7614 296.381 38.0398 296.656 38.3977C296.931 38.7557 297.102 39.1733 297.168 39.6506H295.995C295.905 39.3026 295.707 38.9943 295.398 38.7259C295.093 38.4541 294.682 38.3182 294.165 38.3182C293.708 38.3182 293.307 38.4375 292.962 38.6761C292.621 38.9115 292.354 39.2446 292.162 39.6754C291.973 40.103 291.878 40.6051 291.878 41.1818C291.878 41.7718 291.971 42.2855 292.157 42.723C292.346 43.1605 292.611 43.5002 292.952 43.7422C293.297 43.9841 293.701 44.1051 294.165 44.1051C294.47 44.1051 294.747 44.0521 294.996 43.946C295.244 43.84 295.455 43.6875 295.627 43.4886C295.799 43.2898 295.922 43.0511 295.995 42.7727H297.168C297.102 43.2235 296.938 43.6295 296.676 43.9908C296.418 44.3487 296.074 44.6338 295.647 44.8459C295.223 45.0547 294.729 45.1591 294.165 45.1591ZM302.204 37.3636V38.358H298.247V37.3636H302.204ZM299.4 35.5341H300.574V42.8125C300.574 43.1439 300.622 43.3925 300.718 43.5582C300.817 43.7206 300.943 43.83 301.096 43.8864C301.252 43.9394 301.416 43.9659 301.588 43.9659C301.717 43.9659 301.823 43.9593 301.906 43.946C301.989 43.9295 302.055 43.9162 302.105 43.9062L302.344 44.9602C302.264 44.9901 302.153 45.0199 302.011 45.0497C301.868 45.0829 301.687 45.0994 301.469 45.0994C301.137 45.0994 300.812 45.0282 300.494 44.8857C300.179 44.7431 299.918 44.526 299.709 44.2344C299.503 43.9427 299.4 43.5748 299.4 43.1307V35.5341ZM305.307 34.8182V45H304.133V34.8182H305.307ZM308.211 47.8636C308.013 47.8636 307.835 47.8471 307.679 47.8139C307.524 47.7841 307.416 47.7543 307.356 47.7244L307.655 46.6903C307.94 46.7633 308.191 46.7898 308.41 46.7699C308.629 46.75 308.823 46.6522 308.992 46.4766C309.164 46.3042 309.322 46.0241 309.464 45.6364L309.683 45.0398L306.859 37.3636H308.132L310.24 43.4489H310.319L312.427 37.3636H313.7L310.459 46.1136C310.313 46.508 310.132 46.8345 309.917 47.093C309.701 47.3549 309.451 47.5488 309.166 47.6747C308.884 47.8007 308.566 47.8636 308.211 47.8636ZM321.433 45.179C320.949 45.179 320.51 45.0878 320.116 44.9055C319.721 44.7199 319.408 44.4531 319.176 44.1051C318.944 43.7538 318.828 43.3295 318.828 42.8324C318.828 42.3949 318.914 42.0402 319.087 41.7685C319.259 41.4934 319.489 41.2779 319.778 41.1222C320.066 40.9664 320.384 40.8504 320.732 40.7741C321.084 40.6946 321.437 40.6316 321.791 40.5852C322.255 40.5256 322.631 40.4808 322.92 40.451C323.212 40.4179 323.424 40.3632 323.556 40.2869C323.692 40.2107 323.76 40.0781 323.76 39.8892V39.8494C323.76 39.3589 323.626 38.9777 323.357 38.706C323.092 38.4342 322.689 38.2983 322.149 38.2983C321.589 38.2983 321.15 38.4209 320.832 38.6662C320.514 38.9115 320.29 39.1733 320.161 39.4517L319.047 39.054C319.246 38.59 319.511 38.2287 319.842 37.9702C320.177 37.7083 320.542 37.526 320.936 37.4233C321.334 37.3172 321.725 37.2642 322.109 37.2642C322.355 37.2642 322.636 37.294 322.955 37.3537C323.276 37.41 323.586 37.5277 323.884 37.7067C324.186 37.8857 324.436 38.1558 324.635 38.517C324.834 38.8783 324.933 39.3622 324.933 39.9688V45H323.76V43.9659H323.7C323.621 44.1316 323.488 44.3089 323.303 44.4979C323.117 44.6868 322.87 44.8475 322.562 44.9801C322.254 45.1127 321.877 45.179 321.433 45.179ZM321.612 44.125C322.076 44.125 322.467 44.0339 322.786 43.8516C323.107 43.6693 323.349 43.4339 323.511 43.1456C323.677 42.8572 323.76 42.554 323.76 42.2358V41.1619C323.71 41.2216 323.601 41.2763 323.432 41.326C323.266 41.3724 323.074 41.4138 322.855 41.4503C322.64 41.4834 322.429 41.5133 322.224 41.5398C322.022 41.563 321.858 41.5829 321.732 41.5994C321.427 41.6392 321.142 41.7038 320.877 41.7933C320.615 41.8795 320.403 42.0104 320.24 42.1861C320.081 42.3584 320.002 42.5937 320.002 42.892C320.002 43.2997 320.152 43.608 320.454 43.8168C320.759 44.0223 321.145 44.125 321.612 44.125ZM330.396 37.3636V38.358H326.438V37.3636H330.396ZM327.592 35.5341H328.765V42.8125C328.765 43.1439 328.813 43.3925 328.909 43.5582C329.009 43.7206 329.135 43.83 329.287 43.8864C329.443 43.9394 329.607 43.9659 329.779 43.9659C329.909 43.9659 330.015 43.9593 330.098 43.946C330.18 43.9295 330.247 43.9162 330.296 43.9062L330.535 44.9602C330.456 44.9901 330.344 45.0199 330.202 45.0497C330.059 45.0829 329.879 45.0994 329.66 45.0994C329.329 45.0994 329.004 45.0282 328.686 44.8857C328.371 44.7431 328.109 44.526 327.9 44.2344C327.695 43.9427 327.592 43.5748 327.592 43.1307V35.5341Z" fill="#1F1F1F"/>
<path d="M341.983 39.0739L340.929 39.3722C340.863 39.1965 340.765 39.0258 340.636 38.8601C340.51 38.6911 340.337 38.5518 340.119 38.4425C339.9 38.3331 339.62 38.2784 339.278 38.2784C338.811 38.2784 338.422 38.3861 338.11 38.6016C337.802 38.8137 337.648 39.0838 337.648 39.4119C337.648 39.7036 337.754 39.9339 337.966 40.103C338.178 40.272 338.509 40.4129 338.96 40.5256L340.094 40.804C340.777 40.9697 341.285 41.2232 341.62 41.5646C341.955 41.9027 342.122 42.3385 342.122 42.8722C342.122 43.3097 341.996 43.7008 341.744 44.0455C341.496 44.3902 341.148 44.6619 340.7 44.8608C340.253 45.0597 339.732 45.1591 339.139 45.1591C338.36 45.1591 337.716 44.9901 337.205 44.652C336.695 44.3139 336.372 43.8201 336.236 43.1705L337.349 42.892C337.455 43.303 337.656 43.6113 337.951 43.8168C338.249 44.0223 338.639 44.125 339.119 44.125C339.666 44.125 340.1 44.009 340.422 43.777C340.747 43.5417 340.909 43.2599 340.909 42.9318C340.909 42.6667 340.816 42.4446 340.631 42.2656C340.445 42.0833 340.16 41.9474 339.776 41.858L338.503 41.5597C337.804 41.3939 337.29 41.1371 336.962 40.7891C336.637 40.4377 336.474 39.9986 336.474 39.4716C336.474 39.0407 336.595 38.6596 336.837 38.3281C337.083 37.9967 337.416 37.7365 337.837 37.5476C338.261 37.3587 338.741 37.2642 339.278 37.2642C340.034 37.2642 340.627 37.4299 341.058 37.7614C341.492 38.0928 341.801 38.5303 341.983 39.0739ZM348.701 41.8778V37.3636H349.874V45H348.701V43.7074H348.621C348.442 44.0952 348.164 44.425 347.786 44.6967C347.408 44.9652 346.931 45.0994 346.354 45.0994C345.877 45.0994 345.453 44.995 345.081 44.7862C344.71 44.5741 344.419 44.2559 344.206 43.8317C343.994 43.4041 343.888 42.8655 343.888 42.2159V37.3636H345.062V42.1364C345.062 42.6932 345.217 43.1373 345.529 43.4688C345.844 43.8002 346.245 43.9659 346.732 43.9659C347.024 43.9659 347.32 43.8913 347.622 43.7422C347.927 43.593 348.182 43.3643 348.388 43.0561C348.596 42.7479 348.701 42.3551 348.701 41.8778ZM352.023 47.8636V37.3636H353.157V38.5767H353.296C353.382 38.4441 353.501 38.2751 353.654 38.0696C353.81 37.8608 354.032 37.6752 354.32 37.5128C354.612 37.3471 355.006 37.2642 355.503 37.2642C356.146 37.2642 356.713 37.425 357.203 37.7464C357.694 38.0679 358.077 38.5237 358.352 39.1136C358.627 39.7036 358.765 40.3996 358.765 41.2017C358.765 42.0104 358.627 42.7114 358.352 43.3047C358.077 43.8946 357.696 44.352 357.208 44.6768C356.721 44.9983 356.159 45.1591 355.523 45.1591C355.033 45.1591 354.64 45.0779 354.345 44.9155C354.05 44.7498 353.823 44.5625 353.664 44.3537C353.505 44.1416 353.382 43.9659 353.296 43.8267H353.196V47.8636H352.023ZM353.176 41.1818C353.176 41.7585 353.261 42.2673 353.43 42.7081C353.599 43.1456 353.846 43.4886 354.171 43.7372C354.496 43.9825 354.893 44.1051 355.364 44.1051C355.855 44.1051 356.264 43.9759 356.592 43.7173C356.923 43.4555 357.172 43.1042 357.338 42.6634C357.507 42.2192 357.591 41.7254 357.591 41.1818C357.591 40.6449 357.508 40.161 357.343 39.7301C357.18 39.2959 356.933 38.9529 356.602 38.701C356.274 38.4458 355.861 38.3182 355.364 38.3182C354.887 38.3182 354.486 38.4392 354.161 38.6811C353.836 38.9197 353.591 39.2545 353.425 39.6854C353.259 40.1129 353.176 40.6117 353.176 41.1818ZM360.554 47.8636V37.3636H361.688V38.5767H361.827C361.913 38.4441 362.033 38.2751 362.185 38.0696C362.341 37.8608 362.563 37.6752 362.851 37.5128C363.143 37.3471 363.537 37.2642 364.034 37.2642C364.677 37.2642 365.244 37.425 365.735 37.7464C366.225 38.0679 366.608 38.5237 366.883 39.1136C367.158 39.7036 367.296 40.3996 367.296 41.2017C367.296 42.0104 367.158 42.7114 366.883 43.3047C366.608 43.8946 366.227 44.352 365.74 44.6768C365.252 44.9983 364.691 45.1591 364.054 45.1591C363.564 45.1591 363.171 45.0779 362.876 44.9155C362.581 44.7498 362.354 44.5625 362.195 44.3537C362.036 44.1416 361.913 43.9659 361.827 43.8267H361.728V47.8636H360.554ZM361.708 41.1818C361.708 41.7585 361.792 42.2673 361.961 42.7081C362.13 43.1456 362.377 43.4886 362.702 43.7372C363.027 43.9825 363.425 44.1051 363.895 44.1051C364.386 44.1051 364.795 43.9759 365.123 43.7173C365.455 43.4555 365.703 43.1042 365.869 42.6634C366.038 42.2192 366.123 41.7254 366.123 41.1818C366.123 40.6449 366.04 40.161 365.874 39.7301C365.712 39.2959 365.465 38.9529 365.133 38.701C364.805 38.4458 364.392 38.3182 363.895 38.3182C363.418 38.3182 363.017 38.4392 362.692 38.6811C362.367 38.9197 362.122 39.2545 361.956 39.6854C361.791 40.1129 361.708 40.6117 361.708 41.1818ZM372.188 45.1591C371.498 45.1591 370.894 44.995 370.373 44.6669C369.856 44.3388 369.452 43.8797 369.16 43.2898C368.872 42.6998 368.728 42.0104 368.728 41.2216C368.728 40.4261 368.872 39.7318 369.16 39.1385C369.452 38.5452 369.856 38.0845 370.373 37.7564C370.894 37.4283 371.498 37.2642 372.188 37.2642C372.877 37.2642 373.48 37.4283 373.998 37.7564C374.518 38.0845 374.922 38.5452 375.211 39.1385C375.502 39.7318 375.648 40.4261 375.648 41.2216C375.648 42.0104 375.502 42.6998 375.211 43.2898C374.922 43.8797 374.518 44.3388 373.998 44.6669C373.48 44.995 372.877 45.1591 372.188 45.1591ZM372.188 44.1051C372.712 44.1051 373.142 43.9709 373.48 43.7024C373.819 43.4339 374.069 43.081 374.231 42.6435C374.394 42.206 374.475 41.732 374.475 41.2216C374.475 40.7112 374.394 40.2356 374.231 39.7947C374.069 39.3539 373.819 38.9976 373.48 38.7259C373.142 38.4541 372.712 38.3182 372.188 38.3182C371.664 38.3182 371.233 38.4541 370.895 38.7259C370.557 38.9976 370.307 39.3539 370.145 39.7947C369.982 40.2356 369.901 40.7112 369.901 41.2216C369.901 41.732 369.982 42.206 370.145 42.6435C370.307 43.081 370.557 43.4339 370.895 43.7024C371.233 43.9709 371.664 44.1051 372.188 44.1051ZM377.439 45V37.3636H378.573V38.517H378.652C378.791 38.1392 379.043 37.8326 379.408 37.5973C379.772 37.362 380.183 37.2443 380.641 37.2443C380.727 37.2443 380.835 37.246 380.964 37.2493C381.093 37.2526 381.191 37.2576 381.257 37.2642V38.4574C381.218 38.4474 381.126 38.4325 380.984 38.4126C380.845 38.3894 380.697 38.3778 380.541 38.3778C380.17 38.3778 379.839 38.4557 379.547 38.6115C379.259 38.764 379.03 38.9761 378.861 39.2479C378.695 39.5163 378.612 39.8229 378.612 40.1676V45H377.439ZM386.448 37.3636V38.358H382.49V37.3636H386.448ZM383.644 35.5341H384.817V42.8125C384.817 43.1439 384.865 43.3925 384.961 43.5582C385.061 43.7206 385.186 43.83 385.339 43.8864C385.495 43.9394 385.659 43.9659 385.831 43.9659C385.96 43.9659 386.066 43.9593 386.149 43.946C386.232 43.9295 386.298 43.9162 386.348 43.9062L386.587 44.9602C386.507 44.9901 386.396 45.0199 386.254 45.0497C386.111 45.0829 385.931 45.0994 385.712 45.0994C385.38 45.0994 385.056 45.0282 384.737 44.8857C384.423 44.7431 384.161 44.526 383.952 44.2344C383.746 43.9427 383.644 43.5748 383.644 43.1307V35.5341ZM394.079 47.6847C393.065 47.6847 392.168 47.5455 391.389 47.267C390.61 46.992 389.956 46.5859 389.426 46.049C388.895 45.5121 388.494 44.8542 388.222 44.0753C387.951 43.2964 387.815 42.4048 387.815 41.4006C387.815 40.4295 387.952 39.5611 388.227 38.7955C388.506 38.0298 388.909 37.3802 389.436 36.8466C389.966 36.3097 390.609 35.9003 391.365 35.6186C392.124 35.3369 392.982 35.196 393.94 35.196C394.871 35.196 395.686 35.3485 396.386 35.6534C397.088 35.955 397.675 36.3643 398.146 36.8814C398.62 37.3951 398.974 37.9735 399.21 38.6165C399.448 39.2595 399.568 39.9223 399.568 40.6051C399.568 41.0857 399.544 41.5729 399.498 42.0668C399.452 42.5606 399.354 43.0147 399.205 43.429C399.056 43.84 398.825 44.1714 398.514 44.4233C398.205 44.6752 397.788 44.8011 397.261 44.8011C397.029 44.8011 396.774 44.7647 396.495 44.6918C396.217 44.6188 395.97 44.4979 395.754 44.3288C395.539 44.1598 395.411 43.9328 395.372 43.6477H395.312C395.232 43.84 395.11 44.0223 394.944 44.1946C394.782 44.367 394.568 44.5045 394.303 44.6072C394.041 44.71 393.721 44.7547 393.343 44.7415C392.912 44.7249 392.533 44.6288 392.205 44.4531C391.877 44.2741 391.602 44.0322 391.379 43.7273C391.161 43.419 390.995 43.0627 390.882 42.6584C390.773 42.2507 390.718 41.8116 390.718 41.3409C390.718 40.8935 390.785 40.4841 390.917 40.1129C391.05 39.7417 391.234 39.4169 391.469 39.1385C391.708 38.8601 391.986 38.638 392.304 38.4723C392.626 38.3033 392.972 38.1989 393.343 38.1591C393.675 38.1259 393.976 38.1409 394.248 38.2038C394.52 38.2635 394.744 38.3546 394.919 38.4773C395.095 38.5966 395.206 38.7292 395.252 38.875H395.312V38.3182H396.366V42.8125C396.366 43.0909 396.444 43.3362 396.6 43.5483C396.755 43.7604 396.982 43.8665 397.281 43.8665C397.619 43.8665 397.877 43.7505 398.056 43.5185C398.239 43.2865 398.363 42.9285 398.429 42.4446C398.499 41.9607 398.534 41.3409 398.534 40.5852C398.534 40.1411 398.472 39.7036 398.35 39.2727C398.23 38.8385 398.048 38.4325 397.803 38.0547C397.561 37.6768 397.254 37.3437 396.883 37.0554C396.512 36.767 396.076 36.5417 395.575 36.3793C395.078 36.2135 394.513 36.1307 393.88 36.1307C393.101 36.1307 392.404 36.2517 391.787 36.4936C391.174 36.7322 390.652 37.0819 390.221 37.5426C389.794 38 389.467 38.5568 389.242 39.2131C389.02 39.866 388.909 40.6084 388.909 41.4403C388.909 42.2855 389.02 43.0362 389.242 43.6925C389.467 44.3487 389.798 44.9022 390.236 45.353C390.677 45.8037 391.222 46.1451 391.872 46.3771C392.521 46.6125 393.27 46.7301 394.119 46.7301C394.483 46.7301 394.843 46.6953 395.198 46.6257C395.552 46.5561 395.865 46.4799 396.137 46.397C396.409 46.3142 396.605 46.2528 396.724 46.2131L397.002 47.1278C396.797 47.214 396.528 47.3002 396.197 47.3864C395.869 47.4725 395.517 47.5438 395.143 47.6001C394.772 47.6565 394.417 47.6847 394.079 47.6847ZM393.502 43.7273C393.946 43.7273 394.306 43.6378 394.581 43.4588C394.856 43.2798 395.057 43.0097 395.183 42.6484C395.309 42.2872 395.372 41.8314 395.372 41.2812C395.372 40.7244 395.302 40.2902 395.163 39.9787C395.024 39.6671 394.818 39.4484 394.546 39.3224C394.275 39.1965 393.94 39.1335 393.542 39.1335C393.164 39.1335 392.841 39.233 392.573 39.4318C392.307 39.6274 392.104 39.8892 391.961 40.2173C391.822 40.5421 391.752 40.8968 391.752 41.2812C391.752 41.7055 391.809 42.1049 391.921 42.4794C392.034 42.8506 392.218 43.1522 392.473 43.3842C392.728 43.6129 393.071 43.7273 393.502 43.7273ZM404.406 48.0227C403.839 48.0227 403.352 47.9498 402.945 47.804C402.537 47.6615 402.197 47.4725 401.925 47.2372C401.657 47.0052 401.443 46.7566 401.284 46.4915L402.219 45.8352C402.325 45.9744 402.459 46.1335 402.621 46.3125C402.784 46.4948 403.006 46.6522 403.288 46.7848C403.573 46.9207 403.946 46.9886 404.406 46.9886C405.023 46.9886 405.531 46.8395 405.933 46.5412C406.334 46.2429 406.534 45.7756 406.534 45.1392V43.5881H406.435C406.348 43.7273 406.226 43.8996 406.067 44.1051C405.911 44.3073 405.686 44.4879 405.391 44.647C405.099 44.8028 404.705 44.8807 404.207 44.8807C403.591 44.8807 403.037 44.7348 402.547 44.4432C402.06 44.1515 401.674 43.7273 401.388 43.1705C401.107 42.6136 400.966 41.9375 400.966 41.142C400.966 40.3598 401.103 39.6787 401.379 39.0987C401.654 38.5154 402.036 38.0646 402.527 37.7464C403.018 37.425 403.584 37.2642 404.227 37.2642C404.724 37.2642 405.119 37.3471 405.411 37.5128C405.705 37.6752 405.931 37.8608 406.087 38.0696C406.246 38.2751 406.368 38.4441 406.455 38.5767H406.574V37.3636H407.707V45.2188C407.707 45.875 407.558 46.4086 407.26 46.8196C406.965 47.2339 406.567 47.5372 406.067 47.7294C405.57 47.925 405.016 48.0227 404.406 48.0227ZM404.366 43.8267C404.837 43.8267 405.235 43.719 405.56 43.5036C405.884 43.2881 406.131 42.9782 406.3 42.5739C406.469 42.1695 406.554 41.6856 406.554 41.1222C406.554 40.572 406.471 40.0864 406.305 39.6655C406.14 39.2446 405.894 38.9148 405.57 38.6761C405.245 38.4375 404.844 38.3182 404.366 38.3182C403.869 38.3182 403.455 38.4441 403.124 38.696C402.795 38.9479 402.549 39.286 402.383 39.7102C402.22 40.1345 402.139 40.6051 402.139 41.1222C402.139 41.6525 402.222 42.1214 402.388 42.5291C402.557 42.9335 402.805 43.2517 403.134 43.4837C403.465 43.7124 403.876 43.8267 404.366 43.8267ZM409.855 45V37.3636H410.989V38.5568H411.088C411.247 38.1491 411.504 37.8326 411.859 37.6072C412.213 37.3786 412.639 37.2642 413.136 37.2642C413.64 37.2642 414.059 37.3786 414.394 37.6072C414.732 37.8326 414.996 38.1491 415.185 38.5568H415.264C415.46 38.1624 415.753 37.8492 416.144 37.6172C416.535 37.3819 417.004 37.2642 417.551 37.2642C418.234 37.2642 418.792 37.478 419.227 37.9055C419.661 38.3298 419.878 38.991 419.878 39.8892V45H418.705V39.8892C418.705 39.3258 418.55 38.9231 418.242 38.6811C417.934 38.4392 417.571 38.3182 417.153 38.3182C416.616 38.3182 416.201 38.4806 415.906 38.8054C415.611 39.1269 415.463 39.5346 415.463 40.0284V45H414.27V39.7699C414.27 39.3357 414.129 38.986 413.847 38.7209C413.566 38.4524 413.203 38.3182 412.759 38.3182C412.454 38.3182 412.169 38.3994 411.903 38.5618C411.642 38.7242 411.429 38.9496 411.267 39.2379C411.108 39.523 411.028 39.8527 411.028 40.2273V45H409.855ZM424.27 45.179C423.786 45.179 423.347 45.0878 422.953 44.9055C422.558 44.7199 422.245 44.4531 422.013 44.1051C421.781 43.7538 421.665 43.3295 421.665 42.8324C421.665 42.3949 421.751 42.0402 421.924 41.7685C422.096 41.4934 422.326 41.2779 422.615 41.1222C422.903 40.9664 423.221 40.8504 423.569 40.7741C423.921 40.6946 424.274 40.6316 424.628 40.5852C425.092 40.5256 425.468 40.4808 425.757 40.451C426.048 40.4179 426.261 40.3632 426.393 40.2869C426.529 40.2107 426.597 40.0781 426.597 39.8892V39.8494C426.597 39.3589 426.463 38.9777 426.194 38.706C425.929 38.4342 425.526 38.2983 424.986 38.2983C424.426 38.2983 423.987 38.4209 423.669 38.6662C423.35 38.9115 423.127 39.1733 422.998 39.4517L421.884 39.054C422.083 38.59 422.348 38.2287 422.679 37.9702C423.014 37.7083 423.379 37.526 423.773 37.4233C424.171 37.3172 424.562 37.2642 424.946 37.2642C425.192 37.2642 425.473 37.294 425.792 37.3537C426.113 37.41 426.423 37.5277 426.721 37.7067C427.023 37.8857 427.273 38.1558 427.472 38.517C427.671 38.8783 427.77 39.3622 427.77 39.9688V45H426.597V43.9659H426.537C426.458 44.1316 426.325 44.3089 426.14 44.4979C425.954 44.6868 425.707 44.8475 425.399 44.9801C425.091 45.1127 424.714 45.179 424.27 45.179ZM424.449 44.125C424.913 44.125 425.304 44.0339 425.623 43.8516C425.944 43.6693 426.186 43.4339 426.348 43.1456C426.514 42.8572 426.597 42.554 426.597 42.2358V41.1619C426.547 41.2216 426.438 41.2763 426.269 41.326C426.103 41.3724 425.911 41.4138 425.692 41.4503C425.477 41.4834 425.266 41.5133 425.061 41.5398C424.859 41.563 424.694 41.5829 424.569 41.5994C424.264 41.6392 423.979 41.7038 423.713 41.7933C423.452 41.8795 423.239 42.0104 423.077 42.1861C422.918 42.3584 422.838 42.5937 422.838 42.892C422.838 43.2997 422.989 43.608 423.291 43.8168C423.596 44.0223 423.982 44.125 424.449 44.125ZM429.912 45V37.3636H431.085V45H429.912ZM430.508 36.0909C430.28 36.0909 430.082 36.013 429.917 35.8572C429.754 35.7015 429.673 35.5142 429.673 35.2955C429.673 35.0767 429.754 34.8894 429.917 34.7337C430.082 34.5779 430.28 34.5 430.508 34.5C430.737 34.5 430.933 34.5779 431.095 34.7337C431.261 34.8894 431.344 35.0767 431.344 35.2955C431.344 35.5142 431.261 35.7015 431.095 35.8572C430.933 36.013 430.737 36.0909 430.508 36.0909ZM434.407 34.8182V45H433.234V34.8182H434.407ZM437.411 45.0795C437.166 45.0795 436.956 44.9917 436.78 44.8161C436.604 44.6404 436.517 44.4299 436.517 44.1847C436.517 43.9394 436.604 43.7289 436.78 43.5533C436.956 43.3776 437.166 43.2898 437.411 43.2898C437.657 43.2898 437.867 43.3776 438.043 43.5533C438.218 43.7289 438.306 43.9394 438.306 44.1847C438.306 44.3471 438.265 44.4962 438.182 44.6321C438.102 44.768 437.995 44.8774 437.859 44.9602C437.726 45.0398 437.577 45.0795 437.411 45.0795ZM443.514 45.1591C442.798 45.1591 442.182 44.9901 441.665 44.652C441.148 44.3139 440.75 43.8482 440.471 43.255C440.193 42.6617 440.054 41.9839 440.054 41.2216C440.054 40.446 440.196 39.7616 440.481 39.1683C440.77 38.5717 441.171 38.1061 441.684 37.7713C442.202 37.4332 442.805 37.2642 443.494 37.2642C444.031 37.2642 444.515 37.3636 444.946 37.5625C445.377 37.7614 445.73 38.0398 446.005 38.3977C446.28 38.7557 446.451 39.1733 446.517 39.6506H445.344C445.254 39.3026 445.055 38.9943 444.747 38.7259C444.442 38.4541 444.031 38.3182 443.514 38.3182C443.057 38.3182 442.656 38.4375 442.311 38.6761C441.97 38.9115 441.703 39.2446 441.51 39.6754C441.322 40.103 441.227 40.6051 441.227 41.1818C441.227 41.7718 441.32 42.2855 441.506 42.723C441.694 43.1605 441.96 43.5002 442.301 43.7422C442.646 43.9841 443.05 44.1051 443.514 44.1051C443.819 44.1051 444.096 44.0521 444.344 43.946C444.593 43.84 444.803 43.6875 444.976 43.4886C445.148 43.2898 445.271 43.0511 445.344 42.7727H446.517C446.451 43.2235 446.287 43.6295 446.025 43.9908C445.766 44.3487 445.423 44.6338 444.996 44.8459C444.571 45.0547 444.077 45.1591 443.514 45.1591ZM451.334 45.1591C450.645 45.1591 450.04 44.995 449.52 44.6669C449.003 44.3388 448.598 43.8797 448.307 43.2898C448.018 42.6998 447.874 42.0104 447.874 41.2216C447.874 40.4261 448.018 39.7318 448.307 39.1385C448.598 38.5452 449.003 38.0845 449.52 37.7564C450.04 37.4283 450.645 37.2642 451.334 37.2642C452.024 37.2642 452.627 37.4283 453.144 37.7564C453.664 38.0845 454.069 38.5452 454.357 39.1385C454.649 39.7318 454.795 40.4261 454.795 41.2216C454.795 42.0104 454.649 42.6998 454.357 43.2898C454.069 43.8797 453.664 44.3388 453.144 44.6669C452.627 44.995 452.024 45.1591 451.334 45.1591ZM451.334 44.1051C451.858 44.1051 452.289 43.9709 452.627 43.7024C452.965 43.4339 453.215 43.081 453.378 42.6435C453.54 42.206 453.621 41.732 453.621 41.2216C453.621 40.7112 453.54 40.2356 453.378 39.7947C453.215 39.3539 452.965 38.9976 452.627 38.7259C452.289 38.4541 451.858 38.3182 451.334 38.3182C450.811 38.3182 450.38 38.4541 450.042 38.7259C449.704 38.9976 449.453 39.3539 449.291 39.7947C449.129 40.2356 449.047 40.7112 449.047 41.2216C449.047 41.732 449.129 42.206 449.291 42.6435C449.453 43.081 449.704 43.4339 450.042 43.7024C450.38 43.9709 450.811 44.1051 451.334 44.1051ZM456.586 45V37.3636H457.719V38.5568H457.819C457.978 38.1491 458.234 37.8326 458.589 37.6072C458.944 37.3786 459.37 37.2642 459.867 37.2642C460.371 37.2642 460.79 37.3786 461.125 37.6072C461.463 37.8326 461.726 38.1491 461.915 38.5568H461.995C462.19 38.1624 462.484 37.8492 462.875 37.6172C463.266 37.3819 463.735 37.2642 464.282 37.2642C464.964 37.2642 465.523 37.478 465.957 37.9055C466.391 38.3298 466.608 38.991 466.608 39.8892V45H465.435V39.8892C465.435 39.3258 465.281 38.9231 464.973 38.6811C464.664 38.4392 464.301 38.3182 463.884 38.3182C463.347 38.3182 462.931 38.4806 462.636 38.8054C462.341 39.1269 462.194 39.5346 462.194 40.0284V45H461V39.7699C461 39.3357 460.859 38.986 460.578 38.7209C460.296 38.4524 459.933 38.3182 459.489 38.3182C459.184 38.3182 458.899 38.3994 458.634 38.5618C458.372 38.7242 458.16 38.9496 457.998 39.2379C457.838 39.523 457.759 39.8527 457.759 40.2273V45H456.586Z" fill="#0F67F5"/>
<line x1="501" y1="32" x2="501" y2="48" stroke="#757575"/>
<path d="M536.955 45H533.504V34.8182H537.024C538.035 34.8182 538.903 35.022 539.629 35.4297C540.358 35.834 540.919 36.4157 541.31 37.1747C541.701 37.9337 541.896 38.8419 541.896 39.8991C541.896 40.9598 541.699 41.8712 541.305 42.6335C540.914 43.3958 540.348 43.9808 539.609 44.3885C538.874 44.7962 537.989 45 536.955 45ZM535.349 43.4041H536.865C537.574 43.4041 538.166 43.2749 538.64 43.0163C539.114 42.7545 539.47 42.3651 539.709 41.848C539.947 41.3277 540.067 40.678 540.067 39.8991C540.067 39.1203 539.947 38.474 539.709 37.9602C539.47 37.4432 539.117 37.0571 538.65 36.8018C538.186 36.5433 537.609 36.4141 536.92 36.4141H535.349V43.4041ZM546.9 45.1491C546.154 45.1491 545.508 44.9851 544.961 44.657C544.414 44.3288 543.99 43.8698 543.689 43.2798C543.39 42.6899 543.241 42.0005 543.241 41.2116C543.241 40.4228 543.39 39.7318 543.689 39.1385C543.99 38.5452 544.414 38.0845 544.961 37.7564C545.508 37.4283 546.154 37.2642 546.9 37.2642C547.646 37.2642 548.292 37.4283 548.839 37.7564C549.386 38.0845 549.809 38.5452 550.107 39.1385C550.408 39.7318 550.559 40.4228 550.559 41.2116C550.559 42.0005 550.408 42.6899 550.107 43.2798C549.809 43.8698 549.386 44.3288 548.839 44.657C548.292 44.9851 547.646 45.1491 546.9 45.1491ZM546.91 43.7074C547.315 43.7074 547.653 43.5964 547.924 43.3743C548.196 43.1489 548.398 42.8473 548.531 42.4695C548.667 42.0916 548.735 41.6707 548.735 41.2067C548.735 40.7393 548.667 40.3168 548.531 39.9389C548.398 39.5578 548.196 39.2545 547.924 39.0291C547.653 38.8037 547.315 38.6911 546.91 38.6911C546.496 38.6911 546.151 38.8037 545.876 39.0291C545.604 39.2545 545.4 39.5578 545.265 39.9389C545.132 40.3168 545.066 40.7393 545.066 41.2067C545.066 41.6707 545.132 42.0916 545.265 42.4695C545.4 42.8473 545.604 43.1489 545.876 43.3743C546.151 43.5964 546.496 43.7074 546.91 43.7074ZM553.444 45L551.286 37.3636H553.121L554.463 42.733H554.533L555.905 37.3636H557.72L559.092 42.7031H559.166L560.489 37.3636H562.328L560.166 45H558.291L556.86 39.8395H556.755L555.323 45H553.444ZM565.385 40.5256V45H563.585V37.3636H565.305V38.6612H565.395C565.57 38.2337 565.85 37.8939 566.235 37.642C566.623 37.3902 567.101 37.2642 567.672 37.2642C568.199 37.2642 568.658 37.3769 569.049 37.6023C569.443 37.8277 569.748 38.1541 569.963 38.5817C570.182 39.0092 570.29 39.5279 570.287 40.1378V45H568.487V40.4162C568.487 39.9058 568.354 39.5064 568.089 39.218C567.827 38.9297 567.464 38.7855 567 38.7855C566.685 38.7855 566.405 38.8551 566.16 38.9943C565.918 39.1302 565.728 39.3274 565.588 39.5859C565.453 39.8445 565.385 40.1577 565.385 40.5256ZM573.916 34.8182V45H572.116V34.8182H573.916ZM579.097 45.1491C578.352 45.1491 577.705 44.9851 577.159 44.657C576.612 44.3288 576.187 43.8698 575.886 43.2798C575.588 42.6899 575.438 42.0005 575.438 41.2116C575.438 40.4228 575.588 39.7318 575.886 39.1385C576.187 38.5452 576.612 38.0845 577.159 37.7564C577.705 37.4283 578.352 37.2642 579.097 37.2642C579.843 37.2642 580.49 37.4283 581.036 37.7564C581.583 38.0845 582.006 38.5452 582.304 39.1385C582.606 39.7318 582.757 40.4228 582.757 41.2116C582.757 42.0005 582.606 42.6899 582.304 43.2798C582.006 43.8698 581.583 44.3288 581.036 44.657C580.49 44.9851 579.843 45.1491 579.097 45.1491ZM579.107 43.7074C579.512 43.7074 579.85 43.5964 580.122 43.3743C580.393 43.1489 580.596 42.8473 580.728 42.4695C580.864 42.0916 580.932 41.6707 580.932 41.2067C580.932 40.7393 580.864 40.3168 580.728 39.9389C580.596 39.5578 580.393 39.2545 580.122 39.0291C579.85 38.8037 579.512 38.6911 579.107 38.6911C578.693 38.6911 578.348 38.8037 578.073 39.0291C577.802 39.2545 577.598 39.5578 577.462 39.9389C577.329 40.3168 577.263 40.7393 577.263 41.2067C577.263 41.6707 577.329 42.0916 577.462 42.4695C577.598 42.8473 577.802 43.1489 578.073 43.3743C578.348 43.5964 578.693 43.7074 579.107 43.7074ZM586.482 45.1541C585.998 45.1541 585.562 45.0679 585.174 44.8956C584.79 44.7199 584.485 44.4614 584.259 44.12C584.037 43.7786 583.926 43.3577 583.926 42.8572C583.926 42.4264 584.006 42.0701 584.165 41.7884C584.324 41.5066 584.541 41.2812 584.816 41.1122C585.091 40.9432 585.401 40.8156 585.746 40.7294C586.094 40.6399 586.453 40.5753 586.825 40.5355C587.272 40.4891 587.635 40.4477 587.913 40.4112C588.192 40.3714 588.394 40.3118 588.52 40.2322C588.649 40.1494 588.714 40.0218 588.714 39.8494V39.8196C588.714 39.4451 588.603 39.1551 588.381 38.9496C588.159 38.7441 587.839 38.6413 587.421 38.6413C586.98 38.6413 586.631 38.7375 586.372 38.9297C586.117 39.1219 585.945 39.349 585.855 39.6108L584.175 39.3722C584.307 38.9081 584.526 38.5204 584.831 38.2088C585.136 37.8939 585.509 37.6586 585.95 37.5028C586.39 37.3438 586.878 37.2642 587.411 37.2642C587.779 37.2642 588.145 37.3073 588.51 37.3935C588.875 37.4796 589.208 37.6222 589.509 37.821C589.811 38.0166 590.053 38.2834 590.235 38.6214C590.421 38.9595 590.513 39.3821 590.513 39.8892V45H588.783V43.951H588.724C588.614 44.1631 588.46 44.362 588.261 44.5476C588.066 44.7299 587.819 44.8774 587.521 44.9901C587.226 45.0994 586.879 45.1541 586.482 45.1541ZM586.949 43.8317C587.31 43.8317 587.623 43.7604 587.888 43.6179C588.154 43.4721 588.357 43.2798 588.5 43.0412C588.646 42.8026 588.719 42.5424 588.719 42.2607V41.3608C588.662 41.4072 588.566 41.4503 588.43 41.4901C588.298 41.5298 588.149 41.5646 587.983 41.5945C587.817 41.6243 587.653 41.6508 587.491 41.674C587.328 41.6972 587.188 41.7171 587.068 41.7337C586.8 41.7701 586.559 41.8298 586.347 41.9126C586.135 41.9955 585.968 42.1115 585.845 42.2607C585.723 42.4065 585.661 42.5954 585.661 42.8274C585.661 43.1589 585.782 43.4091 586.024 43.5781C586.266 43.7472 586.574 43.8317 586.949 43.8317ZM595.157 45.1342C594.557 45.1342 594.02 44.9801 593.546 44.6719C593.072 44.3636 592.698 43.9162 592.423 43.3295C592.147 42.7429 592.01 42.0303 592.01 41.1918C592.01 40.3433 592.149 39.6274 592.428 39.044C592.709 38.4574 593.089 38.0149 593.566 37.7166C594.043 37.415 594.575 37.2642 595.162 37.2642C595.609 37.2642 595.977 37.3404 596.266 37.4929C596.554 37.642 596.783 37.8227 596.952 38.0348C597.121 38.2436 597.252 38.4408 597.344 38.6264H597.419V34.8182H599.224V45H597.454V43.7969H597.344C597.252 43.9825 597.117 44.1797 596.942 44.3885C596.766 44.594 596.534 44.7696 596.246 44.9155C595.957 45.0613 595.594 45.1342 595.157 45.1342ZM595.659 43.6577C596.04 43.6577 596.365 43.5549 596.634 43.3494C596.902 43.1406 597.106 42.8506 597.245 42.4794C597.384 42.1082 597.454 41.6757 597.454 41.1818C597.454 40.688 597.384 40.2588 597.245 39.8942C597.109 39.5296 596.907 39.2462 596.638 39.044C596.373 38.8419 596.047 38.7408 595.659 38.7408C595.258 38.7408 594.923 38.8452 594.655 39.054C594.386 39.2628 594.184 39.5511 594.048 39.919C593.912 40.2869 593.844 40.7079 593.844 41.1818C593.844 41.6591 593.912 42.085 594.048 42.4595C594.188 42.8307 594.391 43.1241 594.66 43.3395C594.932 43.5516 595.265 43.6577 595.659 43.6577Z" fill="#0F67F5"/>
<path d="M616.83 43.29C616.48 43.29 616.21 43.01 616.21 42.67V34C616.21 33.65 616.49 33.38 616.83 33.38C617.17 33.38 617.45 33.66 617.45 34V42.67C617.45 43.02 617.17 43.29 616.83 43.29Z" fill="#0F67F5"/>
<path d="M616.83 43.96C616.66 43.96 616.51 43.89 616.39 43.78L613.06 40.45C612.82 40.21 612.82 39.81 613.06 39.57C613.3 39.33 613.7 39.33 613.94 39.57L616.83 42.46L619.72 39.57C619.96 39.33 620.36 39.33 620.6 39.57C620.84 39.81 620.84 40.21 620.6 40.45L617.27 43.78C617.15 43.9 616.99 43.96 616.83 43.96Z" fill="#0F67F5"/>
<path d="M622.17 46.62H611.5C611.15 46.62 610.88 46.34 610.88 46C610.88 45.66 611.16 45.38 611.5 45.38H622.17C622.52 45.38 622.79 45.66 622.79 46C622.79 46.34 622.51 46.62 622.17 46.62Z" fill="#0F67F5"/>
</svg>
