<svg width="672" height="73" fill="none" xmlns="http://www.w3.org/2000/svg"><path fill="#F6F6F6" d="M0 0h672v73H0z"/><path d="M293.86 41v-8.73h1.58v7.4h3.85V41h-5.43Zm6.73 0v-6.55h1.54V41h-1.54Zm.78-7.47a.9.9 0 0 1-.64-.25.78.78 0 0 1-.26-.59c0-.23.09-.43.26-.6a.9.9 0 0 1 .63-.24.9.9 0 0 1 .64.25c.17.16.26.36.26.59 0 .23-.09.43-.26.6a.9.9 0 0 1-.63.24Zm3.9 3.63V41h-1.55v-6.55h1.47v1.12h.08c.15-.37.39-.66.72-.88.33-.21.74-.32 1.23-.32.45 0 .85.1 1.18.29.34.2.6.47.79.84.18.37.28.81.27 1.33V41h-1.54v-3.93c0-.44-.11-.78-.34-1.03a1.2 1.2 0 0 0-.93-.37c-.27 0-.51.06-.72.18-.21.12-.38.29-.5.5a1.7 1.7 0 0 0-.17.81Zm7.17 1.79v-1.87h.24l2.35-2.63h1.8l-2.89 3.23h-.32l-1.18 1.27Zm-1.4 2.05v-8.73h1.53V41h-1.54Zm4.1 0L313 38.02l1.04-1.09 2.93 4.07h-1.84Zm8.73 0h-2.96v-8.73h3.01c.87 0 1.62.18 2.24.53.62.34 1.1.84 1.44 1.5.33.64.5 1.42.5 2.33 0 .9-.17 1.69-.5 2.34a3.5 3.5 0 0 1-1.46 1.5c-.63.36-1.39.53-2.27.53Zm-1.38-1.37h1.3c.6 0 1.11-.1 1.52-.33.4-.22.71-.56.92-1 .2-.45.3-1 .3-1.67a4 4 0 0 0-.3-1.66 2.1 2.1 0 0 0-.91-1c-.4-.22-.9-.33-1.49-.33h-1.34v6Zm9.94 1.5c-.65 0-1.22-.14-1.7-.41a2.77 2.77 0 0 1-1.1-1.17 3.9 3.9 0 0 1-.38-1.78c0-.68.13-1.27.39-1.78a2.9 2.9 0 0 1 2.71-1.62 3.07 3.07 0 0 1 2.1.8c.28.26.5.6.65 1.02.16.42.24.91.24 1.49v.47h-5.36V37.1h3.88c0-.3-.06-.56-.19-.79a1.4 1.4 0 0 0-.52-.55 1.5 1.5 0 0 0-.78-.2 1.54 1.54 0 0 0-1.39.83c-.13.24-.2.51-.2.8v.91c0 .38.07.7.21.98.14.27.34.48.59.62a1.9 1.9 0 0 0 1.48.12 1.18 1.18 0 0 0 .78-.75l1.44.16c-.1.38-.26.72-.52 1-.25.28-.58.5-.97.66-.4.15-.85.23-1.36.23Zm7.53-6.68v1.2h-3.87v-1.2h3.87Zm-2.9 6.55v-7.16c0-.44.1-.81.27-1.1.19-.3.44-.51.75-.66.3-.14.65-.22 1.03-.22a3.56 3.56 0 0 1 1.17.18l-.3 1.2a2.67 2.67 0 0 0-.59-.1c-.28 0-.49.07-.6.21a.88.88 0 0 0-.18.59V41h-1.55Zm5.77.13a2.7 2.7 0 0 1-1.12-.22 1.8 1.8 0 0 1-.78-.66 1.9 1.9 0 0 1-.29-1.09c0-.37.07-.67.2-.91.14-.24.33-.44.56-.58.24-.15.5-.26.8-.33.3-.08.6-.13.93-.17l.93-.1c.24-.04.41-.09.52-.16a.36.36 0 0 0 .17-.32v-.03c0-.32-.1-.57-.29-.75a1.19 1.19 0 0 0-.82-.26c-.38 0-.68.08-.9.25-.22.16-.37.36-.44.58l-1.44-.2a2.3 2.3 0 0 1 1.52-1.6 4.07 4.07 0 0 1 2.2-.1c.3.07.59.2.85.37.26.16.46.4.62.68.16.3.24.65.24 1.09V41h-1.49v-.9h-.05a1.88 1.88 0 0 1-1.03.9c-.25.09-.55.13-.89.13Zm.4-1.13c.31 0 .58-.06.8-.18a1.35 1.35 0 0 0 .72-1.17v-.77a.73.73 0 0 1-.25.11 11.47 11.47 0 0 1-1.17.2 2.7 2.7 0 0 0-.61.16.98.98 0 0 0-.43.3.73.73 0 0 0-.16.49c0 .28.1.5.31.64.2.15.47.22.8.22Zm8.78-1.75v-3.8h1.54V41h-1.5v-1.16H352c-.15.36-.4.66-.73.9-.33.23-.75.35-1.24.35-.43 0-.8-.1-1.14-.29a2 2 0 0 1-.76-.84 2.97 2.97 0 0 1-.28-1.34v-4.17h1.54v3.93c0 .42.12.75.34 1 .23.24.53.36.9.36a1.41 1.41 0 0 0 1.18-.66c.14-.22.21-.5.21-.83Zm4.67-5.98V41h-1.54v-8.73h1.54Zm4.86 2.18v1.2h-3.77v-1.2h3.77Zm-2.84-1.56h1.55v6.14c0 .2.03.37.09.48.07.1.15.18.26.22.1.04.22.06.34.06a1.52 1.52 0 0 0 .46-.06l.26 1.2a3.4 3.4 0 0 1-.91.16c-.39.01-.74-.05-1.05-.18-.3-.13-.55-.33-.73-.6a1.8 1.8 0 0 1-.27-1.02v-6.4Zm8.37 1.56 1.32 2.42 1.34-2.42h1.63l-1.97 3.28 2 3.27h-1.62l-1.38-2.36L367 41h-1.63l2-3.27-1.95-3.28h1.64Zm10.66 1.73-1.4.16a1.12 1.12 0 0 0-.6-.7 1.43 1.43 0 0 0-.62-.12c-.32 0-.59.07-.8.2-.22.15-.33.33-.32.55 0 .19.06.35.2.46.15.12.39.22.72.3l1.12.24c.62.13 1.08.34 1.38.63.3.3.45.67.46 1.14 0 .41-.13.78-.36 1.1-.24.3-.57.55-.99.72-.42.18-.9.27-1.45.27-.8 0-1.44-.17-1.93-.5a2.05 2.05 0 0 1-.88-1.42l1.5-.14c.08.3.22.52.44.67.23.15.51.22.87.22.37 0 .66-.07.88-.22.23-.15.34-.34.34-.56a.58.58 0 0 0-.22-.46 1.52 1.52 0 0 0-.67-.29l-1.11-.23a2.66 2.66 0 0 1-1.4-.66c-.3-.31-.44-.7-.44-1.18 0-.4.1-.76.33-1.05.22-.3.53-.53.93-.7.4-.16.86-.24 1.38-.24.77 0 1.38.16 1.81.49.45.33.72.77.83 1.32Z" fill="#0F67F5"/><path d="M231.88 41v-7.27h.88v6.49h3.38V41h-4.26Zm7.12.13a2.2 2.2 0 0 1-.94-.2c-.29-.13-.5-.32-.68-.57a1.61 1.61 0 0 1-.24-.9c0-.32.06-.57.18-.77.12-.2.29-.35.5-.46.2-.11.43-.2.68-.25a33.94 33.94 0 0 1 1.56-.23c.2-.02.36-.06.45-.12.1-.05.15-.15.15-.28v-.03c0-.35-.1-.62-.29-.82-.19-.19-.48-.29-.86-.29-.4 0-.72.1-.94.27-.23.17-.39.36-.48.56l-.8-.29c.15-.33.33-.59.57-.77.24-.19.5-.32.78-.4a3.24 3.24 0 0 1 1.44-.04c.23.04.45.12.67.25.21.13.4.32.53.58.15.26.22.6.22 1.04V41h-.84v-.74h-.04a1.63 1.63 0 0 1-.81.72c-.23.1-.5.15-.81.15Zm.13-.76c.33 0 .6-.06.83-.19a1.33 1.33 0 0 0 .7-1.15v-.77a.68.68 0 0 1-.23.12 4 4 0 0 1-.87.15l-.35.04c-.22.03-.42.08-.61.14a.94.94 0 0 0-.45.28.71.71 0 0 0-.18.5c0 .3.11.52.33.66.21.15.5.23.82.23Zm4.01.63v-7.27h.84v2.68h.07l.25-.36c.12-.15.27-.28.48-.4.2-.12.5-.18.85-.18a2.17 2.17 0 0 1 2.03 1.33c.2.42.3.91.3 1.49 0 .57-.1 1.08-.3 1.5a2.14 2.14 0 0 1-2.02 1.32 1.7 1.7 0 0 1-.84-.17 1.56 1.56 0 0 1-.49-.4l-.26-.38h-.1V41h-.81Zm.82-2.73c0 .41.06.78.19 1.1.12.3.3.55.53.73.23.17.51.26.85.26.35 0 .64-.1.87-.28.24-.18.42-.43.54-.75.12-.32.18-.67.18-1.06 0-.38-.06-.73-.18-1.03a1.6 1.6 0 0 0-.53-.74 1.4 1.4 0 0 0-.88-.27 1.4 1.4 0 0 0-1.39.97c-.12.3-.18.67-.18 1.07Zm7.56 2.84c-.52 0-.97-.11-1.36-.34a2.34 2.34 0 0 1-.87-.98c-.2-.43-.3-.92-.3-1.47 0-.56.1-1.06.3-1.48a2.3 2.3 0 0 1 2.15-1.36c.28 0 .56.04.84.14a2.08 2.08 0 0 1 1.3 1.3c.14.34.2.77.2 1.28v.36h-4.2v-.73h3.35c0-.3-.06-.58-.18-.82a1.38 1.38 0 0 0-1.31-.78c-.33 0-.62.08-.87.25-.24.16-.42.37-.56.64-.13.26-.19.54-.19.84v.48c0 .42.07.76.21 1.05.15.28.35.5.6.65.26.15.56.22.9.22.22 0 .41-.03.6-.1a1.21 1.21 0 0 0 .76-.75l.8.23c-.08.27-.22.51-.42.72-.2.2-.45.37-.75.48-.3.12-.63.17-1 .17Zm4.38-7.38V41h-.84v-7.27h.84Z" fill="#E8178A"/><path d="M265 37.5h30" stroke="#E8178A"/><circle cx="294" cy="37.5" r="1" fill="#E8178A"/></svg>