<svg width="286" height="131" viewBox="0 0 286 131" fill="none" xmlns="http://www.w3.org/2000/svg">
<path d="M143 16.38C142.52 16.38 142.12 15.99 142.12 15.5V12.5C142.12 12.02 142.51 11.62 143 11.62C143.49 11.62 143.88 12.01 143.88 12.5V15.5C143.88 15.98 143.49 16.38 143 16.38Z" fill="#0F67F5"/>
<path d="M143 10.3796C142.89 10.3796 142.77 10.3496 142.67 10.3096C142.56 10.2596 142.46 10.1996 142.38 10.1196C142.3 10.0396 142.24 9.93957 142.19 9.82957C142.15 9.72957 142.13 9.60957 142.13 9.49957C142.13 9.26957 142.22 9.04957 142.38 8.87957C142.46 8.79957 142.56 8.73957 142.67 8.68957C142.88 8.59957 143.12 8.59957 143.34 8.68957C143.44 8.73957 143.54 8.79957 143.62 8.87957C143.7 8.95957 143.76 9.05957 143.81 9.16957C143.85 9.26957 143.88 9.37957 143.88 9.49957C143.88 9.72957 143.78 9.95957 143.62 10.1196C143.45 10.2796 143.23 10.3796 143 10.3796Z" fill="#0F67F5"/>
<path d="M143 23.38C137 23.38 132.12 18.5 132.12 12.5C132.12 6.5 137 1.62 143 1.62C149 1.62 153.88 6.5 153.88 12.5C153.88 18.5 149 23.38 143 23.38ZM143 3.38C137.97 3.38 133.88 7.47 133.88 12.5C133.88 17.53 137.97 21.62 143 21.62C148.03 21.62 152.12 17.53 152.12 12.5C152.12 7.47 148.03 3.38 143 3.38Z" fill="#0F67F5"/>
<g filter="url(#filter0_dd_13278_51484)">
<path d="M143.091 32.5L148 37.5H138L143.091 32.5Z" fill="#333333"/>
<path d="M3 41.5C3 39.2909 4.79086 37.5 7 37.5H279C281.209 37.5 283 39.2909 283 41.5V121.5C283 123.709 281.209 125.5 279 125.5H6.99999C4.79085 125.5 3 123.709 3 121.5V41.5Z" fill="#333333"/>
<path d="M20.8864 51.8636L24.3409 61.6591H24.4773L27.9318 51.8636H29.4091L25.1364 63.5H23.6818L19.4091 51.8636H20.8864ZM33.8864 63.6818C33.0455 63.6818 32.3201 63.4962 31.7102 63.125C31.1042 62.75 30.6364 62.2273 30.3068 61.5568C29.9811 60.8826 29.8182 60.0985 29.8182 59.2045C29.8182 58.3106 29.9811 57.5227 30.3068 56.8409C30.6364 56.1553 31.0947 55.6212 31.6818 55.2386C32.2727 54.8523 32.9621 54.6591 33.75 54.6591C34.2045 54.6591 34.6534 54.7348 35.0966 54.8864C35.5398 55.0379 35.9432 55.2841 36.3068 55.625C36.6705 55.9621 36.9602 56.4091 37.1761 56.9659C37.392 57.5227 37.5 58.2083 37.5 59.0227V59.5909H30.7727V58.4318H36.1364C36.1364 57.9394 36.0379 57.5 35.8409 57.1136C35.6477 56.7273 35.3712 56.4223 35.0114 56.1989C34.6553 55.9754 34.2348 55.8636 33.75 55.8636C33.2159 55.8636 32.7538 55.9962 32.3636 56.2614C31.9773 56.5227 31.6799 56.8636 31.4716 57.2841C31.2633 57.7045 31.1591 58.1553 31.1591 58.6364V59.4091C31.1591 60.0682 31.2727 60.6269 31.5 61.0852C31.7311 61.5398 32.0511 61.8864 32.4602 62.125C32.8693 62.3598 33.3447 62.4773 33.8864 62.4773C34.2386 62.4773 34.5568 62.428 34.8409 62.3295C35.1288 62.2273 35.3769 62.0758 35.5852 61.875C35.7936 61.6705 35.9545 61.4167 36.0682 61.1136L37.3636 61.4773C37.2273 61.9167 36.9981 62.303 36.6761 62.6364C36.3542 62.9659 35.9564 63.2235 35.483 63.4091C35.0095 63.5909 34.4773 63.6818 33.8864 63.6818ZM39.5398 63.5V54.7727H40.8352V56.0909H40.9261C41.0852 55.6591 41.3731 55.3087 41.7898 55.0398C42.2064 54.7708 42.6761 54.6364 43.1989 54.6364C43.2973 54.6364 43.4205 54.6383 43.5682 54.642C43.7159 54.6458 43.8277 54.6515 43.9034 54.6591V56.0227C43.858 56.0114 43.7538 55.9943 43.5909 55.9716C43.4318 55.9451 43.2633 55.9318 43.0852 55.9318C42.661 55.9318 42.2822 56.0208 41.9489 56.1989C41.6193 56.3731 41.358 56.6155 41.1648 56.9261C40.9754 57.233 40.8807 57.5833 40.8807 57.9773V63.5H39.5398ZM46.6222 66.7727C46.3949 66.7727 46.1922 66.7538 46.0142 66.7159C45.8362 66.6818 45.7131 66.6477 45.6449 66.6136L45.9858 65.4318C46.3116 65.5152 46.5994 65.5455 46.8494 65.5227C47.0994 65.5 47.321 65.3883 47.5142 65.1875C47.7112 64.9905 47.8911 64.6705 48.054 64.2273L48.304 63.5455L45.0767 54.7727H46.5312L48.9403 61.7273H49.0312L51.4403 54.7727H52.8949L49.1903 64.7727C49.0237 65.2235 48.8172 65.5966 48.571 65.892C48.3248 66.1913 48.0388 66.4129 47.7131 66.5568C47.3911 66.7008 47.0275 66.7727 46.6222 66.7727ZM60.5057 51.8636V63.5H59.1648V51.8636H60.5057ZM66.5071 63.6818C65.7192 63.6818 65.0279 63.4943 64.4332 63.1193C63.8423 62.7443 63.3802 62.2197 63.0469 61.5455C62.7173 60.8712 62.5526 60.0833 62.5526 59.1818C62.5526 58.2727 62.7173 57.4792 63.0469 56.8011C63.3802 56.1231 63.8423 55.5966 64.4332 55.2216C65.0279 54.8466 65.7192 54.6591 66.5071 54.6591C67.295 54.6591 67.9844 54.8466 68.5753 55.2216C69.17 55.5966 69.6321 56.1231 69.9616 56.8011C70.295 57.4792 70.4616 58.2727 70.4616 59.1818C70.4616 60.0833 70.295 60.8712 69.9616 61.5455C69.6321 62.2197 69.17 62.7443 68.5753 63.1193C67.9844 63.4943 67.295 63.6818 66.5071 63.6818ZM66.5071 62.4773C67.1056 62.4773 67.598 62.3239 67.9844 62.017C68.3707 61.7102 68.6567 61.3068 68.8423 60.8068C69.0279 60.3068 69.1207 59.7652 69.1207 59.1818C69.1207 58.5985 69.0279 58.0549 68.8423 57.5511C68.6567 57.0473 68.3707 56.6402 67.9844 56.3295C67.598 56.0189 67.1056 55.8636 66.5071 55.8636C65.9086 55.8636 65.4162 56.0189 65.0298 56.3295C64.6435 56.6402 64.3575 57.0473 64.1719 57.5511C63.9863 58.0549 63.8935 58.5985 63.8935 59.1818C63.8935 59.7652 63.9863 60.3068 64.1719 60.8068C64.3575 61.3068 64.6435 61.7102 65.0298 62.017C65.4162 62.3239 65.9086 62.4773 66.5071 62.4773ZM73.8494 58.25V63.5H72.5085V54.7727H73.804V56.1364H73.9176C74.1222 55.6932 74.4328 55.3371 74.8494 55.0682C75.2661 54.7955 75.804 54.6591 76.4631 54.6591C77.054 54.6591 77.571 54.7803 78.0142 55.0227C78.4574 55.2614 78.8021 55.625 79.0483 56.1136C79.2945 56.5985 79.4176 57.2121 79.4176 57.9545V63.5H78.0767V58.0455C78.0767 57.3598 77.8987 56.8258 77.5426 56.4432C77.1866 56.0568 76.6979 55.8636 76.0767 55.8636C75.6487 55.8636 75.2661 55.9564 74.929 56.142C74.5956 56.3277 74.3324 56.5985 74.1392 56.9545C73.946 57.3106 73.8494 57.7424 73.8494 58.25ZM85.3906 66.9545C84.7429 66.9545 84.1861 66.8712 83.7202 66.7045C83.2543 66.5417 82.866 66.3258 82.5554 66.0568C82.2486 65.7917 82.0043 65.5076 81.8224 65.2045L82.8906 64.4545C83.0118 64.6136 83.1652 64.7955 83.3509 65C83.5365 65.2083 83.7902 65.3883 84.1122 65.5398C84.438 65.6951 84.8641 65.7727 85.3906 65.7727C86.0952 65.7727 86.6766 65.6023 87.1349 65.2614C87.5933 64.9205 87.8224 64.3864 87.8224 63.6591V61.8864H87.7088C87.6103 62.0455 87.4702 62.2424 87.2884 62.4773C87.1103 62.7083 86.8527 62.9148 86.5156 63.0966C86.1823 63.2746 85.7315 63.3636 85.1634 63.3636C84.4588 63.3636 83.8262 63.197 83.2656 62.8636C82.7088 62.5303 82.2675 62.0455 81.9418 61.4091C81.6198 60.7727 81.4588 60 81.4588 59.0909C81.4588 58.197 81.616 57.4186 81.9304 56.7557C82.2448 56.089 82.6823 55.5739 83.2429 55.2102C83.8035 54.8428 84.4512 54.6591 85.1861 54.6591C85.7543 54.6591 86.205 54.7538 86.5384 54.9432C86.8755 55.1288 87.133 55.3409 87.3111 55.5795C87.4929 55.8144 87.633 56.0076 87.7315 56.1591H87.8679V54.7727H89.1634V63.75C89.1634 64.5 88.9929 65.1098 88.652 65.5795C88.3149 66.053 87.8603 66.3996 87.2884 66.6193C86.7202 66.8428 86.0876 66.9545 85.3906 66.9545ZM85.3452 62.1591C85.883 62.1591 86.3376 62.036 86.7088 61.7898C87.08 61.5436 87.3622 61.1894 87.5554 60.7273C87.7486 60.2652 87.8452 59.7121 87.8452 59.0682C87.8452 58.4394 87.7505 57.8845 87.5611 57.4034C87.3717 56.9223 87.0914 56.5455 86.7202 56.2727C86.349 56 85.8906 55.8636 85.3452 55.8636C84.777 55.8636 84.3035 56.0076 83.9247 56.2955C83.5497 56.5833 83.2675 56.9697 83.0781 57.4545C82.8925 57.9394 82.7997 58.4773 82.7997 59.0682C82.7997 59.6742 82.8944 60.2102 83.0838 60.6761C83.277 61.1383 83.5611 61.5019 83.9361 61.767C84.3149 62.0284 84.7846 62.1591 85.3452 62.1591ZM99.9134 54.7727V55.9091H95.3906V54.7727H99.9134ZM96.7088 52.6818H98.0497V61C98.0497 61.3788 98.1046 61.6629 98.2145 61.8523C98.3281 62.0379 98.4721 62.1629 98.6463 62.2273C98.8243 62.2879 99.0118 62.3182 99.2088 62.3182C99.3565 62.3182 99.4777 62.3106 99.5724 62.2955C99.6671 62.2765 99.7429 62.2614 99.7997 62.25L100.072 63.4545C99.9815 63.4886 99.8546 63.5227 99.6918 63.5568C99.5289 63.5947 99.3224 63.6136 99.0724 63.6136C98.6937 63.6136 98.3224 63.5322 97.9588 63.3693C97.599 63.2064 97.2997 62.9583 97.0611 62.625C96.8262 62.2917 96.7088 61.8712 96.7088 61.3636V52.6818ZM105.382 63.6818C104.594 63.6818 103.903 63.4943 103.308 63.1193C102.717 62.7443 102.255 62.2197 101.922 61.5455C101.592 60.8712 101.428 60.0833 101.428 59.1818C101.428 58.2727 101.592 57.4792 101.922 56.8011C102.255 56.1231 102.717 55.5966 103.308 55.2216C103.903 54.8466 104.594 54.6591 105.382 54.6591C106.17 54.6591 106.859 54.8466 107.45 55.2216C108.045 55.5966 108.507 56.1231 108.837 56.8011C109.17 57.4792 109.337 58.2727 109.337 59.1818C109.337 60.0833 109.17 60.8712 108.837 61.5455C108.507 62.2197 108.045 62.7443 107.45 63.1193C106.859 63.4943 106.17 63.6818 105.382 63.6818ZM105.382 62.4773C105.981 62.4773 106.473 62.3239 106.859 62.017C107.246 61.7102 107.532 61.3068 107.717 60.8068C107.903 60.3068 107.996 59.7652 107.996 59.1818C107.996 58.5985 107.903 58.0549 107.717 57.5511C107.532 57.0473 107.246 56.6402 106.859 56.3295C106.473 56.0189 105.981 55.8636 105.382 55.8636C104.784 55.8636 104.291 56.0189 103.905 56.3295C103.518 56.6402 103.232 57.0473 103.047 57.5511C102.861 58.0549 102.768 58.5985 102.768 59.1818C102.768 59.7652 102.861 60.3068 103.047 60.8068C103.232 61.3068 103.518 61.7102 103.905 62.017C104.291 62.3239 104.784 62.4773 105.382 62.4773ZM114.929 63.6818C114.141 63.6818 113.45 63.4943 112.855 63.1193C112.264 62.7443 111.802 62.2197 111.469 61.5455C111.139 60.8712 110.974 60.0833 110.974 59.1818C110.974 58.2727 111.139 57.4792 111.469 56.8011C111.802 56.1231 112.264 55.5966 112.855 55.2216C113.45 54.8466 114.141 54.6591 114.929 54.6591C115.717 54.6591 116.406 54.8466 116.997 55.2216C117.592 55.5966 118.054 56.1231 118.384 56.8011C118.717 57.4792 118.884 58.2727 118.884 59.1818C118.884 60.0833 118.717 60.8712 118.384 61.5455C118.054 62.2197 117.592 62.7443 116.997 63.1193C116.406 63.4943 115.717 63.6818 114.929 63.6818ZM114.929 62.4773C115.527 62.4773 116.02 62.3239 116.406 62.017C116.793 61.7102 117.079 61.3068 117.264 60.8068C117.45 60.3068 117.543 59.7652 117.543 59.1818C117.543 58.5985 117.45 58.0549 117.264 57.5511C117.079 57.0473 116.793 56.6402 116.406 56.3295C116.02 56.0189 115.527 55.8636 114.929 55.8636C114.33 55.8636 113.838 56.0189 113.452 56.3295C113.065 56.6402 112.779 57.0473 112.594 57.5511C112.408 58.0549 112.315 58.5985 112.315 59.1818C112.315 59.7652 112.408 60.3068 112.594 60.8068C112.779 61.3068 113.065 61.7102 113.452 62.017C113.838 62.3239 114.33 62.4773 114.929 62.4773ZM122.271 51.8636V63.5H120.93V51.8636H122.271ZM128.523 54.7727V55.9091H124V54.7727H128.523ZM125.318 52.6818H126.659V61C126.659 61.3788 126.714 61.6629 126.824 61.8523C126.938 62.0379 127.081 62.1629 127.256 62.2273C127.434 62.2879 127.621 62.3182 127.818 62.3182C127.966 62.3182 128.087 62.3106 128.182 62.2955C128.277 62.2765 128.352 62.2614 128.409 62.25L128.682 63.4545C128.591 63.4886 128.464 63.5227 128.301 63.5568C128.138 63.5947 127.932 63.6136 127.682 63.6136C127.303 63.6136 126.932 63.5322 126.568 63.3693C126.208 63.2064 125.909 62.9583 125.67 62.625C125.436 62.2917 125.318 61.8712 125.318 61.3636V52.6818ZM130.54 63.5V54.7727H131.881V63.5H130.54ZM131.222 53.3182C130.96 53.3182 130.735 53.2292 130.545 53.0511C130.36 52.8731 130.267 52.6591 130.267 52.4091C130.267 52.1591 130.36 51.9451 130.545 51.767C130.735 51.589 130.96 51.5 131.222 51.5C131.483 51.5 131.706 51.589 131.892 51.767C132.081 51.9451 132.176 52.1591 132.176 52.4091C132.176 52.6591 132.081 52.8731 131.892 53.0511C131.706 53.2292 131.483 53.3182 131.222 53.3182ZM134.337 66.7727V54.7727H135.632V56.1591H135.791C135.89 56.0076 136.026 55.8144 136.2 55.5795C136.378 55.3409 136.632 55.1288 136.962 54.9432C137.295 54.7538 137.746 54.6591 138.314 54.6591C139.049 54.6591 139.696 54.8428 140.257 55.2102C140.818 55.5777 141.255 56.0985 141.57 56.7727C141.884 57.447 142.041 58.2424 142.041 59.1591C142.041 60.0833 141.884 60.8845 141.57 61.5625C141.255 62.2367 140.82 62.7595 140.263 63.1307C139.706 63.4981 139.064 63.6818 138.337 63.6818C137.776 63.6818 137.327 63.589 136.99 63.4034C136.653 63.214 136.393 63 136.212 62.7614C136.03 62.5189 135.89 62.3182 135.791 62.1591H135.678V66.7727H134.337ZM135.655 59.1364C135.655 59.7955 135.751 60.3769 135.945 60.8807C136.138 61.3807 136.42 61.7727 136.791 62.0568C137.162 62.3371 137.617 62.4773 138.155 62.4773C138.715 62.4773 139.183 62.3295 139.558 62.0341C139.937 61.7348 140.221 61.3333 140.411 60.8295C140.604 60.322 140.7 59.7576 140.7 59.1364C140.7 58.5227 140.606 57.9697 140.416 57.4773C140.231 56.9811 139.948 56.589 139.57 56.3011C139.195 56.0095 138.723 55.8636 138.155 55.8636C137.609 55.8636 137.151 56.0019 136.78 56.2784C136.409 56.5511 136.128 56.9337 135.939 57.4261C135.75 57.9148 135.655 58.4848 135.655 59.1364ZM152.132 63.6818C151.314 63.6818 150.609 63.4886 150.018 63.1023C149.428 62.7159 148.973 62.1837 148.655 61.5057C148.337 60.8277 148.178 60.053 148.178 59.1818C148.178 58.2955 148.34 57.5133 148.666 56.8352C148.996 56.1534 149.454 55.6212 150.041 55.2386C150.632 54.8523 151.321 54.6591 152.109 54.6591C152.723 54.6591 153.276 54.7727 153.768 55C154.261 55.2273 154.664 55.5455 154.979 55.9545C155.293 56.3636 155.488 56.8409 155.564 57.3864H154.223C154.121 56.9886 153.893 56.6364 153.541 56.3295C153.193 56.0189 152.723 55.8636 152.132 55.8636C151.609 55.8636 151.151 56 150.757 56.2727C150.367 56.5417 150.062 56.9223 149.842 57.4148C149.626 57.9034 149.518 58.4773 149.518 59.1364C149.518 59.8106 149.625 60.3977 149.837 60.8977C150.053 61.3977 150.356 61.786 150.746 62.0625C151.14 62.339 151.602 62.4773 152.132 62.4773C152.481 62.4773 152.797 62.4167 153.081 62.2955C153.365 62.1742 153.606 62 153.803 61.7727C154 61.5455 154.14 61.2727 154.223 60.9545H155.564C155.488 61.4697 155.301 61.9337 155.001 62.3466C154.706 62.7557 154.314 63.0814 153.825 63.3239C153.34 63.5625 152.776 63.6818 152.132 63.6818ZM161.07 63.6818C160.282 63.6818 159.59 63.4943 158.996 63.1193C158.405 62.7443 157.943 62.2197 157.609 61.5455C157.28 60.8712 157.115 60.0833 157.115 59.1818C157.115 58.2727 157.28 57.4792 157.609 56.8011C157.943 56.1231 158.405 55.5966 158.996 55.2216C159.59 54.8466 160.282 54.6591 161.07 54.6591C161.857 54.6591 162.547 54.8466 163.138 55.2216C163.732 55.5966 164.195 56.1231 164.524 56.8011C164.857 57.4792 165.024 58.2727 165.024 59.1818C165.024 60.0833 164.857 60.8712 164.524 61.5455C164.195 62.2197 163.732 62.7443 163.138 63.1193C162.547 63.4943 161.857 63.6818 161.07 63.6818ZM161.07 62.4773C161.668 62.4773 162.161 62.3239 162.547 62.017C162.933 61.7102 163.219 61.3068 163.405 60.8068C163.59 60.3068 163.683 59.7652 163.683 59.1818C163.683 58.5985 163.59 58.0549 163.405 57.5511C163.219 57.0473 162.933 56.6402 162.547 56.3295C162.161 56.0189 161.668 55.8636 161.07 55.8636C160.471 55.8636 159.979 56.0189 159.592 56.3295C159.206 56.6402 158.92 57.0473 158.734 57.5511C158.549 58.0549 158.456 58.5985 158.456 59.1818C158.456 59.7652 158.549 60.3068 158.734 60.8068C158.92 61.3068 159.206 61.7102 159.592 62.017C159.979 62.3239 160.471 62.4773 161.07 62.4773ZM168.412 58.25V63.5H167.071V54.7727H168.366V56.1364H168.48C168.685 55.6932 168.995 55.3371 169.412 55.0682C169.829 54.7955 170.366 54.6591 171.026 54.6591C171.616 54.6591 172.134 54.7803 172.577 55.0227C173.02 55.2614 173.365 55.625 173.611 56.1136C173.857 56.5985 173.98 57.2121 173.98 57.9545V63.5H172.639V58.0455C172.639 57.3598 172.461 56.8258 172.105 56.4432C171.749 56.0568 171.26 55.8636 170.639 55.8636C170.211 55.8636 169.829 55.9564 169.491 56.142C169.158 56.3277 168.895 56.5985 168.702 56.9545C168.509 57.3106 168.412 57.7424 168.412 58.25ZM180.226 54.7727V55.9091H175.703V54.7727H180.226ZM177.021 52.6818H178.362V61C178.362 61.3788 178.417 61.6629 178.527 61.8523C178.641 62.0379 178.785 62.1629 178.959 62.2273C179.137 62.2879 179.324 62.3182 179.521 62.3182C179.669 62.3182 179.79 62.3106 179.885 62.2955C179.98 62.2765 180.055 62.2614 180.112 62.25L180.385 63.4545C180.294 63.4886 180.167 63.5227 180.004 63.5568C179.841 63.5947 179.635 63.6136 179.385 63.6136C179.006 63.6136 178.635 63.5322 178.271 63.3693C177.911 63.2064 177.612 62.9583 177.374 62.625C177.139 62.2917 177.021 61.8712 177.021 61.3636V52.6818ZM185.808 63.6818C184.967 63.6818 184.242 63.4962 183.632 63.125C183.026 62.75 182.558 62.2273 182.229 61.5568C181.903 60.8826 181.74 60.0985 181.74 59.2045C181.74 58.3106 181.903 57.5227 182.229 56.8409C182.558 56.1553 183.017 55.6212 183.604 55.2386C184.195 54.8523 184.884 54.6591 185.672 54.6591C186.126 54.6591 186.575 54.7348 187.018 54.8864C187.462 55.0379 187.865 55.2841 188.229 55.625C188.592 55.9621 188.882 56.4091 189.098 56.9659C189.314 57.5227 189.422 58.2083 189.422 59.0227V59.5909H182.695V58.4318H188.058C188.058 57.9394 187.96 57.5 187.763 57.1136C187.57 56.7273 187.293 56.4223 186.933 56.1989C186.577 55.9754 186.157 55.8636 185.672 55.8636C185.138 55.8636 184.676 55.9962 184.286 56.2614C183.899 56.5227 183.602 56.8636 183.393 57.2841C183.185 57.7045 183.081 58.1553 183.081 58.6364V59.4091C183.081 60.0682 183.195 60.6269 183.422 61.0852C183.653 61.5398 183.973 61.8864 184.382 62.125C184.791 62.3598 185.267 62.4773 185.808 62.4773C186.161 62.4773 186.479 62.428 186.763 62.3295C187.051 62.2273 187.299 62.0758 187.507 61.875C187.715 61.6705 187.876 61.4167 187.99 61.1136L189.286 61.4773C189.149 61.9167 188.92 62.303 188.598 62.6364C188.276 62.9659 187.878 63.2235 187.405 63.4091C186.931 63.5909 186.399 63.6818 185.808 63.6818ZM192.803 58.25V63.5H191.462V54.7727H192.757V56.1364H192.871C193.075 55.6932 193.386 55.3371 193.803 55.0682C194.219 54.7955 194.757 54.6591 195.416 54.6591C196.007 54.6591 196.524 54.7803 196.967 55.0227C197.411 55.2614 197.755 55.625 198.001 56.1136C198.248 56.5985 198.371 57.2121 198.371 57.9545V63.5H197.03V58.0455C197.03 57.3598 196.852 56.8258 196.496 56.4432C196.14 56.0568 195.651 55.8636 195.03 55.8636C194.602 55.8636 194.219 55.9564 193.882 56.142C193.549 56.3277 193.286 56.5985 193.092 56.9545C192.899 57.3106 192.803 57.7424 192.803 58.25ZM204.616 54.7727V55.9091H200.094V54.7727H204.616ZM201.412 52.6818H202.753V61C202.753 61.3788 202.808 61.6629 202.918 61.8523C203.031 62.0379 203.175 62.1629 203.349 62.2273C203.527 62.2879 203.715 62.3182 203.912 62.3182C204.06 62.3182 204.181 62.3106 204.276 62.2955C204.37 62.2765 204.446 62.2614 204.503 62.25L204.776 63.4545C204.685 63.4886 204.558 63.5227 204.395 63.5568C204.232 63.5947 204.026 63.6136 203.776 63.6136C203.397 63.6136 203.026 63.5322 202.662 63.3693C202.302 63.2064 202.003 62.9583 201.764 62.625C201.529 62.2917 201.412 61.8712 201.412 61.3636V52.6818ZM213.702 63.7045C213.149 63.7045 212.647 63.6004 212.196 63.392C211.745 63.1799 211.387 62.875 211.122 62.4773C210.857 62.0758 210.724 61.5909 210.724 61.0227C210.724 60.5227 210.823 60.1174 211.02 59.8068C211.217 59.4924 211.48 59.2462 211.81 59.0682C212.139 58.8902 212.503 58.7576 212.901 58.6705C213.302 58.5795 213.705 58.5076 214.111 58.4545C214.641 58.3864 215.071 58.3352 215.401 58.3011C215.734 58.2633 215.976 58.2008 216.128 58.1136C216.283 58.0265 216.361 57.875 216.361 57.6591V57.6136C216.361 57.053 216.207 56.6174 215.901 56.3068C215.598 55.9962 215.137 55.8409 214.52 55.8409C213.88 55.8409 213.378 55.9811 213.014 56.2614C212.651 56.5417 212.395 56.8409 212.247 57.1591L210.974 56.7045C211.202 56.1742 211.505 55.7614 211.884 55.4659C212.266 55.1667 212.683 54.9583 213.134 54.8409C213.588 54.7197 214.035 54.6591 214.474 54.6591C214.755 54.6591 215.077 54.6932 215.44 54.7614C215.808 54.8258 216.162 54.9602 216.503 55.1648C216.848 55.3693 217.134 55.678 217.361 56.0909C217.588 56.5038 217.702 57.0568 217.702 57.75V63.5H216.361V62.3182H216.293C216.202 62.5076 216.05 62.7102 215.838 62.9261C215.626 63.142 215.344 63.3258 214.991 63.4773C214.639 63.6288 214.209 63.7045 213.702 63.7045ZM213.906 62.5C214.437 62.5 214.884 62.3958 215.247 62.1875C215.615 61.9792 215.891 61.7102 216.077 61.3807C216.266 61.0511 216.361 60.7045 216.361 60.3409V59.1136C216.304 59.1818 216.179 59.2443 215.986 59.3011C215.796 59.3542 215.577 59.4015 215.327 59.4432C215.08 59.4811 214.84 59.5152 214.605 59.5455C214.374 59.572 214.187 59.5947 214.043 59.6136C213.694 59.6591 213.368 59.733 213.065 59.8352C212.766 59.9337 212.524 60.0833 212.338 60.2841C212.156 60.4811 212.065 60.75 212.065 61.0909C212.065 61.5568 212.238 61.9091 212.582 62.1477C212.931 62.3826 213.372 62.5 213.906 62.5ZM221.49 58.25V63.5H220.149V54.7727H221.445V56.1364H221.558C221.763 55.6932 222.073 55.3371 222.49 55.0682C222.907 54.7955 223.445 54.6591 224.104 54.6591C224.695 54.6591 225.212 54.7803 225.655 55.0227C226.098 55.2614 226.443 55.625 226.689 56.1136C226.935 56.5985 227.058 57.2121 227.058 57.9545V63.5H225.717V58.0455C225.717 57.3598 225.539 56.8258 225.183 56.4432C224.827 56.0568 224.339 55.8636 223.717 55.8636C223.289 55.8636 222.907 55.9564 222.57 56.142C222.236 56.3277 221.973 56.5985 221.78 56.9545C221.587 57.3106 221.49 57.7424 221.49 58.25ZM232.804 63.6818C232.077 63.6818 231.435 63.4981 230.878 63.1307C230.321 62.7595 229.885 62.2367 229.571 61.5625C229.257 60.8845 229.099 60.0833 229.099 59.1591C229.099 58.2424 229.257 57.447 229.571 56.7727C229.885 56.0985 230.323 55.5777 230.884 55.2102C231.444 54.8428 232.092 54.6591 232.827 54.6591C233.395 54.6591 233.844 54.7538 234.173 54.9432C234.507 55.1288 234.76 55.3409 234.935 55.5795C235.113 55.8144 235.251 56.0076 235.349 56.1591H235.463V51.8636H236.804V63.5H235.509V62.1591H235.349C235.251 62.3182 235.111 62.5189 234.929 62.7614C234.747 63 234.488 63.214 234.151 63.4034C233.813 63.589 233.365 63.6818 232.804 63.6818ZM232.986 62.4773C233.524 62.4773 233.978 62.3371 234.349 62.0568C234.721 61.7727 235.003 61.3807 235.196 60.8807C235.389 60.3769 235.486 59.7955 235.486 59.1364C235.486 58.4848 235.391 57.9148 235.202 57.4261C235.012 56.9337 234.732 56.5511 234.361 56.2784C233.99 56.0019 233.531 55.8636 232.986 55.8636C232.418 55.8636 231.944 56.0095 231.565 56.3011C231.19 56.589 230.908 56.9811 230.719 57.4773C230.533 57.9697 230.44 58.5227 230.44 59.1364C230.44 59.7576 230.535 60.322 230.724 60.8295C230.918 61.3333 231.202 61.7348 231.577 62.0341C231.955 62.3295 232.425 62.4773 232.986 62.4773ZM23.8864 87.6818C23.0455 87.6818 22.3201 87.4962 21.7102 87.125C21.1042 86.75 20.6364 86.2273 20.3068 85.5568C19.9811 84.8826 19.8182 84.0985 19.8182 83.2045C19.8182 82.3106 19.9811 81.5227 20.3068 80.8409C20.6364 80.1553 21.0947 79.6212 21.6818 79.2386C22.2727 78.8523 22.9621 78.6591 23.75 78.6591C24.2045 78.6591 24.6534 78.7348 25.0966 78.8864C25.5398 79.0379 25.9432 79.2841 26.3068 79.625C26.6705 79.9621 26.9602 80.4091 27.1761 80.9659C27.392 81.5227 27.5 82.2083 27.5 83.0227V83.5909H20.7727V82.4318H26.1364C26.1364 81.9394 26.0379 81.5 25.8409 81.1136C25.6477 80.7273 25.3712 80.4223 25.0114 80.1989C24.6553 79.9754 24.2348 79.8636 23.75 79.8636C23.2159 79.8636 22.7538 79.9962 22.3636 80.2614C21.9773 80.5227 21.6799 80.8636 21.4716 81.2841C21.2633 81.7045 21.1591 82.1553 21.1591 82.6364V83.4091C21.1591 84.0682 21.2727 84.6269 21.5 85.0852C21.7311 85.5398 22.0511 85.8864 22.4602 86.125C22.8693 86.3598 23.3447 86.4773 23.8864 86.4773C24.2386 86.4773 24.5568 86.428 24.8409 86.3295C25.1288 86.2273 25.3769 86.0758 25.5852 85.875C25.7936 85.6705 25.9545 85.4167 26.0682 85.1136L27.3636 85.4773C27.2273 85.9167 26.9981 86.303 26.6761 86.6364C26.3542 86.9659 25.9564 87.2235 25.483 87.4091C25.0095 87.5909 24.4773 87.6818 23.8864 87.6818ZM35.7216 80.7273L34.517 81.0682C34.4413 80.8674 34.3295 80.6723 34.1818 80.483C34.0379 80.2898 33.8409 80.1307 33.5909 80.0057C33.3409 79.8807 33.0208 79.8182 32.6307 79.8182C32.0966 79.8182 31.6515 79.9413 31.2955 80.1875C30.9432 80.4299 30.767 80.7386 30.767 81.1136C30.767 81.447 30.8883 81.7102 31.1307 81.9034C31.3731 82.0966 31.7519 82.2576 32.267 82.3864L33.5625 82.7045C34.3428 82.8939 34.9242 83.1837 35.3068 83.5739C35.6894 83.9602 35.8807 84.4583 35.8807 85.0682C35.8807 85.5682 35.7367 86.0152 35.4489 86.4091C35.1648 86.803 34.767 87.1136 34.2557 87.3409C33.7443 87.5682 33.1496 87.6818 32.4716 87.6818C31.5814 87.6818 30.8447 87.4886 30.2614 87.1023C29.678 86.7159 29.3087 86.1515 29.1534 85.4091L30.4261 85.0909C30.5473 85.5606 30.7765 85.9129 31.1136 86.1477C31.4545 86.3826 31.8996 86.5 32.4489 86.5C33.0739 86.5 33.5701 86.3674 33.9375 86.1023C34.3087 85.8333 34.4943 85.5114 34.4943 85.1364C34.4943 84.8333 34.3883 84.5795 34.1761 84.375C33.964 84.1667 33.6383 84.0114 33.1989 83.9091L31.7443 83.5682C30.9451 83.3788 30.358 83.0852 29.983 82.6875C29.6117 82.286 29.4261 81.7841 29.4261 81.1818C29.4261 80.6894 29.5644 80.2538 29.8409 79.875C30.1212 79.4962 30.5019 79.1989 30.983 78.983C31.4678 78.767 32.017 78.6591 32.6307 78.6591C33.4943 78.6591 34.1723 78.8485 34.6648 79.2273C35.161 79.6061 35.5133 80.1061 35.7216 80.7273ZM44.081 80.7273L42.8764 81.0682C42.8007 80.8674 42.6889 80.6723 42.5412 80.483C42.3973 80.2898 42.2003 80.1307 41.9503 80.0057C41.7003 79.8807 41.3802 79.8182 40.9901 79.8182C40.456 79.8182 40.0109 79.9413 39.6548 80.1875C39.3026 80.4299 39.1264 80.7386 39.1264 81.1136C39.1264 81.447 39.2476 81.7102 39.4901 81.9034C39.7325 82.0966 40.1113 82.2576 40.6264 82.3864L41.9219 82.7045C42.7022 82.8939 43.2836 83.1837 43.6662 83.5739C44.0488 83.9602 44.2401 84.4583 44.2401 85.0682C44.2401 85.5682 44.0961 86.0152 43.8082 86.4091C43.5241 86.803 43.1264 87.1136 42.6151 87.3409C42.1037 87.5682 41.509 87.6818 40.831 87.6818C39.9408 87.6818 39.2041 87.4886 38.6207 87.1023C38.0374 86.7159 37.6681 86.1515 37.5128 85.4091L38.7855 85.0909C38.9067 85.5606 39.1359 85.9129 39.473 86.1477C39.8139 86.3826 40.259 86.5 40.8082 86.5C41.4332 86.5 41.9295 86.3674 42.2969 86.1023C42.6681 85.8333 42.8537 85.5114 42.8537 85.1364C42.8537 84.8333 42.7476 84.5795 42.5355 84.375C42.3234 84.1667 41.9976 84.0114 41.5582 83.9091L40.1037 83.5682C39.3045 83.3788 38.7173 83.0852 38.3423 82.6875C37.9711 82.286 37.7855 81.7841 37.7855 81.1818C37.7855 80.6894 37.9238 80.2538 38.2003 79.875C38.4806 79.4962 38.8613 79.1989 39.3423 78.983C39.8272 78.767 40.3764 78.6591 40.9901 78.6591C41.8537 78.6591 42.5317 78.8485 43.0241 79.2273C43.5204 79.6061 43.8726 80.1061 44.081 80.7273ZM49.9176 87.6818C49.0767 87.6818 48.3513 87.4962 47.7415 87.125C47.1354 86.75 46.6676 86.2273 46.3381 85.5568C46.0123 84.8826 45.8494 84.0985 45.8494 83.2045C45.8494 82.3106 46.0123 81.5227 46.3381 80.8409C46.6676 80.1553 47.1259 79.6212 47.7131 79.2386C48.304 78.8523 48.9934 78.6591 49.7812 78.6591C50.2358 78.6591 50.6847 78.7348 51.1278 78.8864C51.571 79.0379 51.9744 79.2841 52.3381 79.625C52.7017 79.9621 52.9915 80.4091 53.2074 80.9659C53.4233 81.5227 53.5312 82.2083 53.5312 83.0227V83.5909H46.804V82.4318H52.1676C52.1676 81.9394 52.0691 81.5 51.8722 81.1136C51.679 80.7273 51.4025 80.4223 51.0426 80.1989C50.6866 79.9754 50.2661 79.8636 49.7812 79.8636C49.2472 79.8636 48.785 79.9962 48.3949 80.2614C48.0085 80.5227 47.7112 80.8636 47.5028 81.2841C47.2945 81.7045 47.1903 82.1553 47.1903 82.6364V83.4091C47.1903 84.0682 47.304 84.6269 47.5312 85.0852C47.7623 85.5398 48.0824 85.8864 48.4915 86.125C48.9006 86.3598 49.3759 86.4773 49.9176 86.4773C50.2699 86.4773 50.5881 86.428 50.8722 86.3295C51.16 86.2273 51.4081 86.0758 51.6165 85.875C51.8248 85.6705 51.9858 85.4167 52.0994 85.1136L53.3949 85.4773C53.2585 85.9167 53.0294 86.303 52.7074 86.6364C52.3854 86.9659 51.9877 87.2235 51.5142 87.4091C51.0407 87.5909 50.5085 87.6818 49.9176 87.6818ZM56.9119 82.25V87.5H55.571V78.7727H56.8665V80.1364H56.9801C57.1847 79.6932 57.4953 79.3371 57.9119 79.0682C58.3286 78.7955 58.8665 78.6591 59.5256 78.6591C60.1165 78.6591 60.6335 78.7803 61.0767 79.0227C61.5199 79.2614 61.8646 79.625 62.1108 80.1136C62.357 80.5985 62.4801 81.2121 62.4801 81.9545V87.5H61.1392V82.0455C61.1392 81.3598 60.9612 80.8258 60.6051 80.4432C60.2491 80.0568 59.7604 79.8636 59.1392 79.8636C58.7112 79.8636 58.3286 79.9564 57.9915 80.142C57.6581 80.3277 57.3949 80.5985 57.2017 80.9545C57.0085 81.3106 56.9119 81.7424 56.9119 82.25ZM68.7259 78.7727V79.9091H64.2031V78.7727H68.7259ZM65.5213 76.6818H66.8622V85C66.8622 85.3788 66.9171 85.6629 67.027 85.8523C67.1406 86.0379 67.2846 86.1629 67.4588 86.2273C67.6368 86.2879 67.8243 86.3182 68.0213 86.3182C68.169 86.3182 68.2902 86.3106 68.3849 86.2955C68.4796 86.2765 68.5554 86.2614 68.6122 86.25L68.8849 87.4545C68.794 87.4886 68.6671 87.5227 68.5043 87.5568C68.3414 87.5947 68.1349 87.6136 67.8849 87.6136C67.5062 87.6136 67.1349 87.5322 66.7713 87.3693C66.4115 87.2064 66.1122 86.9583 65.8736 86.625C65.6387 86.2917 65.5213 85.8712 65.5213 85.3636V76.6818ZM70.7429 87.5V78.7727H72.0838V87.5H70.7429ZM71.4247 77.3182C71.1634 77.3182 70.938 77.2292 70.7486 77.0511C70.563 76.8731 70.4702 76.6591 70.4702 76.4091C70.4702 76.1591 70.563 75.9451 70.7486 75.767C70.938 75.589 71.1634 75.5 71.4247 75.5C71.6861 75.5 71.9096 75.589 72.0952 75.767C72.2846 75.9451 72.3793 76.1591 72.3793 76.4091C72.3793 76.6591 72.2846 76.8731 72.0952 77.0511C71.9096 77.2292 71.6861 77.3182 71.4247 77.3182ZM77.108 87.7045C76.5549 87.7045 76.053 87.6004 75.6023 87.392C75.1515 87.1799 74.7936 86.875 74.5284 86.4773C74.2633 86.0758 74.1307 85.5909 74.1307 85.0227C74.1307 84.5227 74.2292 84.1174 74.4261 83.8068C74.6231 83.4924 74.8864 83.2462 75.2159 83.0682C75.5455 82.8902 75.9091 82.7576 76.3068 82.6705C76.7083 82.5795 77.1117 82.5076 77.517 82.4545C78.0473 82.3864 78.4773 82.3352 78.8068 82.3011C79.1402 82.2633 79.3826 82.2008 79.5341 82.1136C79.6894 82.0265 79.767 81.875 79.767 81.6591V81.6136C79.767 81.053 79.6136 80.6174 79.3068 80.3068C79.0038 79.9962 78.5436 79.8409 77.9261 79.8409C77.286 79.8409 76.7841 79.9811 76.4205 80.2614C76.0568 80.5417 75.8011 80.8409 75.6534 81.1591L74.3807 80.7045C74.608 80.1742 74.911 79.7614 75.2898 79.4659C75.6723 79.1667 76.089 78.9583 76.5398 78.8409C76.9943 78.7197 77.4413 78.6591 77.8807 78.6591C78.161 78.6591 78.483 78.6932 78.8466 78.7614C79.214 78.8258 79.5682 78.9602 79.9091 79.1648C80.2538 79.3693 80.5398 79.678 80.767 80.0909C80.9943 80.5038 81.108 81.0568 81.108 81.75V87.5H79.767V86.3182H79.6989C79.608 86.5076 79.4564 86.7102 79.2443 86.9261C79.0322 87.142 78.75 87.3258 78.3977 87.4773C78.0455 87.6288 77.6155 87.7045 77.108 87.7045ZM77.3125 86.5C77.8428 86.5 78.2898 86.3958 78.6534 86.1875C79.0208 85.9792 79.2973 85.7102 79.483 85.3807C79.6723 85.0511 79.767 84.7045 79.767 84.3409V83.1136C79.7102 83.1818 79.5852 83.2443 79.392 83.3011C79.2027 83.3542 78.983 83.4015 78.733 83.4432C78.4867 83.4811 78.2462 83.5152 78.0114 83.5455C77.7803 83.572 77.5928 83.5947 77.4489 83.6136C77.1004 83.6591 76.7746 83.733 76.4716 83.8352C76.1723 83.9337 75.9299 84.0833 75.7443 84.2841C75.5625 84.4811 75.4716 84.75 75.4716 85.0909C75.4716 85.5568 75.6439 85.9091 75.9886 86.1477C76.3371 86.3826 76.7784 86.5 77.3125 86.5ZM84.8963 75.8636V87.5H83.5554V75.8636H84.8963ZM95.6477 78.7727V79.9091H91.125V78.7727H95.6477ZM92.4432 76.6818H93.7841V85C93.7841 85.3788 93.839 85.6629 93.9489 85.8523C94.0625 86.0379 94.2064 86.1629 94.3807 86.2273C94.5587 86.2879 94.7462 86.3182 94.9432 86.3182C95.0909 86.3182 95.2121 86.3106 95.3068 86.2955C95.4015 86.2765 95.4773 86.2614 95.5341 86.25L95.8068 87.4545C95.7159 87.4886 95.589 87.5227 95.4261 87.5568C95.2633 87.5947 95.0568 87.6136 94.8068 87.6136C94.428 87.6136 94.0568 87.5322 93.6932 87.3693C93.3333 87.2064 93.0341 86.9583 92.7955 86.625C92.5606 86.2917 92.4432 85.8712 92.4432 85.3636V76.6818ZM100.233 87.7045C99.6799 87.7045 99.178 87.6004 98.7273 87.392C98.2765 87.1799 97.9186 86.875 97.6534 86.4773C97.3883 86.0758 97.2557 85.5909 97.2557 85.0227C97.2557 84.5227 97.3542 84.1174 97.5511 83.8068C97.7481 83.4924 98.0114 83.2462 98.3409 83.0682C98.6705 82.8902 99.0341 82.7576 99.4318 82.6705C99.8333 82.5795 100.237 82.5076 100.642 82.4545C101.172 82.3864 101.602 82.3352 101.932 82.3011C102.265 82.2633 102.508 82.2008 102.659 82.1136C102.814 82.0265 102.892 81.875 102.892 81.6591V81.6136C102.892 81.053 102.739 80.6174 102.432 80.3068C102.129 79.9962 101.669 79.8409 101.051 79.8409C100.411 79.8409 99.9091 79.9811 99.5455 80.2614C99.1818 80.5417 98.9261 80.8409 98.7784 81.1591L97.5057 80.7045C97.733 80.1742 98.036 79.7614 98.4148 79.4659C98.7973 79.1667 99.214 78.9583 99.6648 78.8409C100.119 78.7197 100.566 78.6591 101.006 78.6591C101.286 78.6591 101.608 78.6932 101.972 78.7614C102.339 78.8258 102.693 78.9602 103.034 79.1648C103.379 79.3693 103.665 79.678 103.892 80.0909C104.119 80.5038 104.233 81.0568 104.233 81.75V87.5H102.892V86.3182H102.824C102.733 86.5076 102.581 86.7102 102.369 86.9261C102.157 87.142 101.875 87.3258 101.523 87.4773C101.17 87.6288 100.741 87.7045 100.233 87.7045ZM100.438 86.5C100.968 86.5 101.415 86.3958 101.778 86.1875C102.146 85.9792 102.422 85.7102 102.608 85.3807C102.797 85.0511 102.892 84.7045 102.892 84.3409V83.1136C102.835 83.1818 102.71 83.2443 102.517 83.3011C102.328 83.3542 102.108 83.4015 101.858 83.4432C101.612 83.4811 101.371 83.5152 101.136 83.5455C100.905 83.572 100.718 83.5947 100.574 83.6136C100.225 83.6591 99.8996 83.733 99.5966 83.8352C99.2973 83.9337 99.0549 84.0833 98.8693 84.2841C98.6875 84.4811 98.5966 84.75 98.5966 85.0909C98.5966 85.5568 98.7689 85.9091 99.1136 86.1477C99.4621 86.3826 99.9034 86.5 100.438 86.5ZM112.862 80.7273L111.658 81.0682C111.582 80.8674 111.47 80.6723 111.322 80.483C111.179 80.2898 110.982 80.1307 110.732 80.0057C110.482 79.8807 110.161 79.8182 109.771 79.8182C109.237 79.8182 108.792 79.9413 108.436 80.1875C108.084 80.4299 107.908 80.7386 107.908 81.1136C107.908 81.447 108.029 81.7102 108.271 81.9034C108.514 82.0966 108.893 82.2576 109.408 82.3864L110.703 82.7045C111.483 82.8939 112.065 83.1837 112.447 83.5739C112.83 83.9602 113.021 84.4583 113.021 85.0682C113.021 85.5682 112.877 86.0152 112.589 86.4091C112.305 86.803 111.908 87.1136 111.396 87.3409C110.885 87.5682 110.29 87.6818 109.612 87.6818C108.722 87.6818 107.985 87.4886 107.402 87.1023C106.819 86.7159 106.449 86.1515 106.294 85.4091L107.567 85.0909C107.688 85.5606 107.917 85.9129 108.254 86.1477C108.595 86.3826 109.04 86.5 109.589 86.5C110.214 86.5 110.711 86.3674 111.078 86.1023C111.449 85.8333 111.635 85.5114 111.635 85.1364C111.635 84.8333 111.529 84.5795 111.317 84.375C111.105 84.1667 110.779 84.0114 110.339 83.9091L108.885 83.5682C108.086 83.3788 107.499 83.0852 107.124 82.6875C106.752 82.286 106.567 81.7841 106.567 81.1818C106.567 80.6894 106.705 80.2538 106.982 79.875C107.262 79.4962 107.643 79.1989 108.124 78.983C108.608 78.767 109.158 78.6591 109.771 78.6591C110.635 78.6591 111.313 78.8485 111.805 79.2273C112.302 79.6061 112.654 80.1061 112.862 80.7273ZM116.29 84.3182L116.267 82.6591H116.54L120.358 78.7727H122.017L117.949 82.8864H117.835L116.29 84.3182ZM115.04 87.5V75.8636H116.381V87.5H115.04ZM120.585 87.5L117.176 83.1818L118.131 82.25L122.29 87.5H120.585ZM128.243 87.5V78.7727H129.584V87.5H128.243ZM128.925 77.3182C128.663 77.3182 128.438 77.2292 128.249 77.0511C128.063 76.8731 127.97 76.6591 127.97 76.4091C127.97 76.1591 128.063 75.9451 128.249 75.767C128.438 75.589 128.663 75.5 128.925 75.5C129.186 75.5 129.41 75.589 129.595 75.767C129.785 75.9451 129.879 76.1591 129.879 76.4091C129.879 76.6591 129.785 76.8731 129.595 77.0511C129.41 77.2292 129.186 77.3182 128.925 77.3182ZM133.381 82.25V87.5H132.04V78.7727H133.335V80.1364H133.449C133.653 79.6932 133.964 79.3371 134.381 79.0682C134.797 78.7955 135.335 78.6591 135.994 78.6591C136.585 78.6591 137.102 78.7803 137.545 79.0227C137.989 79.2614 138.333 79.625 138.58 80.1136C138.826 80.5985 138.949 81.2121 138.949 81.9545V87.5H137.608V82.0455C137.608 81.3598 137.43 80.8258 137.074 80.4432C136.718 80.0568 136.229 79.8636 135.608 79.8636C135.18 79.8636 134.797 79.9564 134.46 80.142C134.127 80.3277 133.864 80.5985 133.67 80.9545C133.477 81.3106 133.381 81.7424 133.381 82.25ZM147.581 80.7273L146.376 81.0682C146.301 80.8674 146.189 80.6723 146.041 80.483C145.897 80.2898 145.7 80.1307 145.45 80.0057C145.2 79.8807 144.88 79.8182 144.49 79.8182C143.956 79.8182 143.511 79.9413 143.155 80.1875C142.803 80.4299 142.626 80.7386 142.626 81.1136C142.626 81.447 142.748 81.7102 142.99 81.9034C143.232 82.0966 143.611 82.2576 144.126 82.3864L145.422 82.7045C146.202 82.8939 146.784 83.1837 147.166 83.5739C147.549 83.9602 147.74 84.4583 147.74 85.0682C147.74 85.5682 147.596 86.0152 147.308 86.4091C147.024 86.803 146.626 87.1136 146.115 87.3409C145.604 87.5682 145.009 87.6818 144.331 87.6818C143.441 87.6818 142.704 87.4886 142.121 87.1023C141.537 86.7159 141.168 86.1515 141.013 85.4091L142.286 85.0909C142.407 85.5606 142.636 85.9129 142.973 86.1477C143.314 86.3826 143.759 86.5 144.308 86.5C144.933 86.5 145.429 86.3674 145.797 86.1023C146.168 85.8333 146.354 85.5114 146.354 85.1364C146.354 84.8333 146.248 84.5795 146.036 84.375C145.823 84.1667 145.498 84.0114 145.058 83.9091L143.604 83.5682C142.804 83.3788 142.217 83.0852 141.842 82.6875C141.471 82.286 141.286 81.7841 141.286 81.1818C141.286 80.6894 141.424 80.2538 141.7 79.875C141.981 79.4962 142.361 79.1989 142.842 78.983C143.327 78.767 143.876 78.6591 144.49 78.6591C145.354 78.6591 146.032 78.8485 146.524 79.2273C147.02 79.6061 147.373 80.1061 147.581 80.7273ZM153.554 78.7727V79.9091H149.031V78.7727H153.554ZM150.349 76.6818H151.69V85C151.69 85.3788 151.745 85.6629 151.855 85.8523C151.969 86.0379 152.113 86.1629 152.287 86.2273C152.465 86.2879 152.652 86.3182 152.849 86.3182C152.997 86.3182 153.118 86.3106 153.213 86.2955C153.308 86.2765 153.384 86.2614 153.44 86.25L153.713 87.4545C153.622 87.4886 153.495 87.5227 153.332 87.5568C153.17 87.5947 152.963 87.6136 152.713 87.6136C152.334 87.6136 151.963 87.5322 151.599 87.3693C151.24 87.2064 150.94 86.9583 150.702 86.625C150.467 86.2917 150.349 85.8712 150.349 85.3636V76.6818ZM155.571 87.5V78.7727H156.866V80.0909H156.957C157.116 79.6591 157.404 79.3087 157.821 79.0398C158.238 78.7708 158.707 78.6364 159.23 78.6364C159.329 78.6364 159.452 78.6383 159.599 78.642C159.747 78.6458 159.859 78.6515 159.935 78.6591V80.0227C159.889 80.0114 159.785 79.9943 159.622 79.9716C159.463 79.9451 159.295 79.9318 159.116 79.9318C158.692 79.9318 158.313 80.0208 157.98 80.1989C157.651 80.3731 157.389 80.6155 157.196 80.9261C157.007 81.233 156.912 81.5833 156.912 81.9773V87.5H155.571ZM167.024 83.9318V78.7727H168.365V87.5H167.024V86.0227H166.933C166.729 86.4659 166.411 86.8428 165.979 87.1534C165.547 87.4602 165.001 87.6136 164.342 87.6136C163.797 87.6136 163.312 87.4943 162.888 87.2557C162.464 87.0133 162.13 86.6496 161.888 86.1648C161.645 85.6761 161.524 85.0606 161.524 84.3182V78.7727H162.865V84.2273C162.865 84.8636 163.043 85.3712 163.399 85.75C163.759 86.1288 164.217 86.3182 164.774 86.3182C165.107 86.3182 165.446 86.233 165.791 86.0625C166.14 85.892 166.431 85.6307 166.666 85.2784C166.905 84.9261 167.024 84.4773 167.024 83.9318ZM174.366 87.6818C173.548 87.6818 172.844 87.4886 172.253 87.1023C171.662 86.7159 171.207 86.1837 170.889 85.5057C170.571 84.8277 170.412 84.053 170.412 83.1818C170.412 82.2955 170.575 81.5133 170.901 80.8352C171.23 80.1534 171.688 79.6212 172.276 79.2386C172.866 78.8523 173.556 78.6591 174.344 78.6591C174.957 78.6591 175.51 78.7727 176.003 79C176.495 79.2273 176.899 79.5455 177.213 79.9545C177.527 80.3636 177.723 80.8409 177.798 81.3864H176.457C176.355 80.9886 176.128 80.6364 175.776 80.3295C175.427 80.0189 174.957 79.8636 174.366 79.8636C173.844 79.8636 173.385 80 172.991 80.2727C172.601 80.5417 172.296 80.9223 172.077 81.4148C171.861 81.9034 171.753 82.4773 171.753 83.1364C171.753 83.8106 171.859 84.3977 172.071 84.8977C172.287 85.3977 172.59 85.786 172.98 86.0625C173.374 86.339 173.836 86.4773 174.366 86.4773C174.715 86.4773 175.031 86.4167 175.315 86.2955C175.599 86.1742 175.84 86 176.037 85.7727C176.234 85.5455 176.374 85.2727 176.457 84.9545H177.798C177.723 85.4697 177.535 85.9337 177.236 86.3466C176.94 86.7557 176.548 87.0814 176.06 87.3239C175.575 87.5625 175.01 87.6818 174.366 87.6818ZM183.554 78.7727V79.9091H179.031V78.7727H183.554ZM180.349 76.6818H181.69V85C181.69 85.3788 181.745 85.6629 181.855 85.8523C181.969 86.0379 182.113 86.1629 182.287 86.2273C182.465 86.2879 182.652 86.3182 182.849 86.3182C182.997 86.3182 183.118 86.3106 183.213 86.2955C183.308 86.2765 183.384 86.2614 183.44 86.25L183.713 87.4545C183.622 87.4886 183.495 87.5227 183.332 87.5568C183.17 87.5947 182.963 87.6136 182.713 87.6136C182.334 87.6136 181.963 87.5322 181.599 87.3693C181.24 87.2064 180.94 86.9583 180.702 86.625C180.467 86.2917 180.349 85.8712 180.349 85.3636V76.6818ZM185.571 87.5V78.7727H186.912V87.5H185.571ZM186.253 77.3182C185.991 77.3182 185.766 77.2292 185.577 77.0511C185.391 76.8731 185.298 76.6591 185.298 76.4091C185.298 76.1591 185.391 75.9451 185.577 75.767C185.766 75.589 185.991 75.5 186.253 75.5C186.514 75.5 186.738 75.589 186.923 75.767C187.113 75.9451 187.207 76.1591 187.207 76.4091C187.207 76.6591 187.113 76.8731 186.923 77.0511C186.738 77.2292 186.514 77.3182 186.253 77.3182ZM192.913 87.6818C192.125 87.6818 191.434 87.4943 190.839 87.1193C190.249 86.7443 189.786 86.2197 189.453 85.5455C189.124 84.8712 188.959 84.0833 188.959 83.1818C188.959 82.2727 189.124 81.4792 189.453 80.8011C189.786 80.1231 190.249 79.5966 190.839 79.2216C191.434 78.8466 192.125 78.6591 192.913 78.6591C193.701 78.6591 194.391 78.8466 194.982 79.2216C195.576 79.5966 196.038 80.1231 196.368 80.8011C196.701 81.4792 196.868 82.2727 196.868 83.1818C196.868 84.0833 196.701 84.8712 196.368 85.5455C196.038 86.2197 195.576 86.7443 194.982 87.1193C194.391 87.4943 193.701 87.6818 192.913 87.6818ZM192.913 86.4773C193.512 86.4773 194.004 86.3239 194.391 86.017C194.777 85.7102 195.063 85.3068 195.249 84.8068C195.434 84.3068 195.527 83.7652 195.527 83.1818C195.527 82.5985 195.434 82.0549 195.249 81.5511C195.063 81.0473 194.777 80.6402 194.391 80.3295C194.004 80.0189 193.512 79.8636 192.913 79.8636C192.315 79.8636 191.822 80.0189 191.436 80.3295C191.05 80.6402 190.764 81.0473 190.578 81.5511C190.393 82.0549 190.3 82.5985 190.3 83.1818C190.3 83.7652 190.393 84.3068 190.578 84.8068C190.764 85.3068 191.05 85.7102 191.436 86.017C191.822 86.3239 192.315 86.4773 192.913 86.4773ZM200.256 82.25V87.5H198.915V78.7727H200.21V80.1364H200.324C200.528 79.6932 200.839 79.3371 201.256 79.0682C201.672 78.7955 202.21 78.6591 202.869 78.6591C203.46 78.6591 203.977 78.7803 204.42 79.0227C204.864 79.2614 205.208 79.625 205.455 80.1136C205.701 80.5985 205.824 81.2121 205.824 81.9545V87.5H204.483V82.0455C204.483 81.3598 204.305 80.8258 203.949 80.4432C203.593 80.0568 203.104 79.8636 202.483 79.8636C202.055 79.8636 201.672 79.9564 201.335 80.142C201.002 80.3277 200.739 80.5985 200.545 80.9545C200.352 81.3106 200.256 81.7424 200.256 82.25ZM214.456 80.7273L213.251 81.0682C213.176 80.8674 213.064 80.6723 212.916 80.483C212.772 80.2898 212.575 80.1307 212.325 80.0057C212.075 79.8807 211.755 79.8182 211.365 79.8182C210.831 79.8182 210.386 79.9413 210.03 80.1875C209.678 80.4299 209.501 80.7386 209.501 81.1136C209.501 81.447 209.623 81.7102 209.865 81.9034C210.107 82.0966 210.486 82.2576 211.001 82.3864L212.297 82.7045C213.077 82.8939 213.659 83.1837 214.041 83.5739C214.424 83.9602 214.615 84.4583 214.615 85.0682C214.615 85.5682 214.471 86.0152 214.183 86.4091C213.899 86.803 213.501 87.1136 212.99 87.3409C212.479 87.5682 211.884 87.6818 211.206 87.6818C210.316 87.6818 209.579 87.4886 208.996 87.1023C208.412 86.7159 208.043 86.1515 207.888 85.4091L209.161 85.0909C209.282 85.5606 209.511 85.9129 209.848 86.1477C210.189 86.3826 210.634 86.5 211.183 86.5C211.808 86.5 212.304 86.3674 212.672 86.1023C213.043 85.8333 213.229 85.5114 213.229 85.1364C213.229 84.8333 213.123 84.5795 212.911 84.375C212.698 84.1667 212.373 84.0114 211.933 83.9091L210.479 83.5682C209.679 83.3788 209.092 83.0852 208.717 82.6875C208.346 82.286 208.161 81.7841 208.161 81.1818C208.161 80.6894 208.299 80.2538 208.575 79.875C208.856 79.4962 209.236 79.1989 209.717 78.983C210.202 78.767 210.751 78.6591 211.365 78.6591C212.229 78.6591 212.907 78.8485 213.399 79.2273C213.895 79.6061 214.248 80.1061 214.456 80.7273ZM225.02 78.7727V79.9091H220.315V78.7727H225.02ZM221.724 87.5V77.5682C221.724 77.0682 221.842 76.6515 222.077 76.3182C222.312 75.9848 222.616 75.7348 222.991 75.5682C223.366 75.4015 223.762 75.3182 224.179 75.3182C224.509 75.3182 224.777 75.3447 224.986 75.3977C225.194 75.4508 225.349 75.5 225.452 75.5455L225.065 76.7045C224.997 76.6818 224.902 76.6534 224.781 76.6193C224.664 76.5852 224.509 76.5682 224.315 76.5682C223.872 76.5682 223.552 76.6799 223.355 76.9034C223.162 77.1269 223.065 77.4545 223.065 77.8864V87.5H221.724ZM230.085 87.6818C229.297 87.6818 228.606 87.4943 228.011 87.1193C227.42 86.7443 226.958 86.2197 226.625 85.5455C226.295 84.8712 226.131 84.0833 226.131 83.1818C226.131 82.2727 226.295 81.4792 226.625 80.8011C226.958 80.1231 227.42 79.5966 228.011 79.2216C228.606 78.8466 229.297 78.6591 230.085 78.6591C230.873 78.6591 231.563 78.8466 232.153 79.2216C232.748 79.5966 233.21 80.1231 233.54 80.8011C233.873 81.4792 234.04 82.2727 234.04 83.1818C234.04 84.0833 233.873 84.8712 233.54 85.5455C233.21 86.2197 232.748 86.7443 232.153 87.1193C231.563 87.4943 230.873 87.6818 230.085 87.6818ZM230.085 86.4773C230.684 86.4773 231.176 86.3239 231.562 86.017C231.949 85.7102 232.235 85.3068 232.42 84.8068C232.606 84.3068 232.699 83.7652 232.699 83.1818C232.699 82.5985 232.606 82.0549 232.42 81.5511C232.235 81.0473 231.949 80.6402 231.562 80.3295C231.176 80.0189 230.684 79.8636 230.085 79.8636C229.487 79.8636 228.994 80.0189 228.608 80.3295C228.222 80.6402 227.936 81.0473 227.75 81.5511C227.564 82.0549 227.472 82.5985 227.472 83.1818C227.472 83.7652 227.564 84.3068 227.75 84.8068C227.936 85.3068 228.222 85.7102 228.608 86.017C228.994 86.3239 229.487 86.4773 230.085 86.4773ZM236.087 87.5V78.7727H237.382V80.0909H237.473C237.632 79.6591 237.92 79.3087 238.337 79.0398C238.753 78.7708 239.223 78.6364 239.746 78.6364C239.844 78.6364 239.967 78.6383 240.115 78.642C240.263 78.6458 240.375 78.6515 240.45 78.6591V80.0227C240.405 80.0114 240.301 79.9943 240.138 79.9716C239.979 79.9451 239.81 79.9318 239.632 79.9318C239.208 79.9318 238.829 80.0208 238.496 80.1989C238.166 80.3731 237.905 80.6155 237.712 80.9261C237.522 81.233 237.428 81.5833 237.428 81.9773V87.5H236.087ZM25.7273 107.932V102.773H27.0682V111.5H25.7273V110.023H25.6364C25.4318 110.466 25.1136 110.843 24.6818 111.153C24.25 111.46 23.7045 111.614 23.0455 111.614C22.5 111.614 22.0152 111.494 21.5909 111.256C21.1667 111.013 20.8333 110.65 20.5909 110.165C20.3485 109.676 20.2273 109.061 20.2273 108.318V102.773H21.5682V108.227C21.5682 108.864 21.7462 109.371 22.1023 109.75C22.4621 110.129 22.9205 110.318 23.4773 110.318C23.8106 110.318 24.1496 110.233 24.4943 110.062C24.8428 109.892 25.1345 109.631 25.3693 109.278C25.608 108.926 25.7273 108.477 25.7273 107.932ZM35.706 104.727L34.5014 105.068C34.4257 104.867 34.3139 104.672 34.1662 104.483C34.0223 104.29 33.8253 104.131 33.5753 104.006C33.3253 103.881 33.0052 103.818 32.6151 103.818C32.081 103.818 31.6359 103.941 31.2798 104.188C30.9276 104.43 30.7514 104.739 30.7514 105.114C30.7514 105.447 30.8726 105.71 31.1151 105.903C31.3575 106.097 31.7363 106.258 32.2514 106.386L33.5469 106.705C34.3272 106.894 34.9086 107.184 35.2912 107.574C35.6738 107.96 35.8651 108.458 35.8651 109.068C35.8651 109.568 35.7211 110.015 35.4332 110.409C35.1491 110.803 34.7514 111.114 34.2401 111.341C33.7287 111.568 33.134 111.682 32.456 111.682C31.5658 111.682 30.8291 111.489 30.2457 111.102C29.6624 110.716 29.2931 110.152 29.1378 109.409L30.4105 109.091C30.5317 109.561 30.7609 109.913 31.098 110.148C31.4389 110.383 31.884 110.5 32.4332 110.5C33.0582 110.5 33.5545 110.367 33.9219 110.102C34.2931 109.833 34.4787 109.511 34.4787 109.136C34.4787 108.833 34.3726 108.58 34.1605 108.375C33.9484 108.167 33.6226 108.011 33.1832 107.909L31.7287 107.568C30.9295 107.379 30.3423 107.085 29.9673 106.688C29.5961 106.286 29.4105 105.784 29.4105 105.182C29.4105 104.689 29.5488 104.254 29.8253 103.875C30.1056 103.496 30.4863 103.199 30.9673 102.983C31.4522 102.767 32.0014 102.659 32.6151 102.659C33.4787 102.659 34.1567 102.848 34.6491 103.227C35.1454 103.606 35.4976 104.106 35.706 104.727ZM41.5426 111.682C40.7017 111.682 39.9763 111.496 39.3665 111.125C38.7604 110.75 38.2926 110.227 37.9631 109.557C37.6373 108.883 37.4744 108.098 37.4744 107.205C37.4744 106.311 37.6373 105.523 37.9631 104.841C38.2926 104.155 38.7509 103.621 39.3381 103.239C39.929 102.852 40.6184 102.659 41.4062 102.659C41.8608 102.659 42.3097 102.735 42.7528 102.886C43.196 103.038 43.5994 103.284 43.9631 103.625C44.3267 103.962 44.6165 104.409 44.8324 104.966C45.0483 105.523 45.1562 106.208 45.1562 107.023V107.591H38.429V106.432H43.7926C43.7926 105.939 43.6941 105.5 43.4972 105.114C43.304 104.727 43.0275 104.422 42.6676 104.199C42.3116 103.975 41.8911 103.864 41.4062 103.864C40.8722 103.864 40.41 103.996 40.0199 104.261C39.6335 104.523 39.3362 104.864 39.1278 105.284C38.9195 105.705 38.8153 106.155 38.8153 106.636V107.409C38.8153 108.068 38.929 108.627 39.1562 109.085C39.3873 109.54 39.7074 109.886 40.1165 110.125C40.5256 110.36 41.0009 110.477 41.5426 110.477C41.8949 110.477 42.2131 110.428 42.4972 110.33C42.785 110.227 43.0331 110.076 43.2415 109.875C43.4498 109.67 43.6108 109.417 43.7244 109.114L45.0199 109.477C44.8835 109.917 44.6544 110.303 44.3324 110.636C44.0104 110.966 43.6127 111.223 43.1392 111.409C42.6657 111.591 42.1335 111.682 41.5426 111.682ZM47.196 111.5V102.773H48.4915V104.091H48.5824C48.7415 103.659 49.0294 103.309 49.446 103.04C49.8627 102.771 50.3324 102.636 50.8551 102.636C50.9536 102.636 51.0767 102.638 51.2244 102.642C51.3722 102.646 51.4839 102.652 51.5597 102.659V104.023C51.5142 104.011 51.41 103.994 51.2472 103.972C51.0881 103.945 50.9195 103.932 50.7415 103.932C50.3172 103.932 49.9384 104.021 49.6051 104.199C49.2756 104.373 49.0142 104.616 48.821 104.926C48.6316 105.233 48.5369 105.583 48.5369 105.977V111.5H47.196ZM53.1264 111.591C52.8461 111.591 52.6056 111.491 52.4048 111.29C52.2041 111.089 52.1037 110.848 52.1037 110.568C52.1037 110.288 52.2041 110.047 52.4048 109.847C52.6056 109.646 52.8461 109.545 53.1264 109.545C53.4067 109.545 53.6473 109.646 53.848 109.847C54.0488 110.047 54.1491 110.288 54.1491 110.568C54.1491 110.754 54.1018 110.924 54.0071 111.08C53.9162 111.235 53.7931 111.36 53.6378 111.455C53.4863 111.545 53.3158 111.591 53.1264 111.591Z" fill="white"/>
</g>
<defs>
<filter id="filter0_dd_13278_51484" x="0" y="30.5" width="286" height="100" filterUnits="userSpaceOnUse" color-interpolation-filters="sRGB">
<feFlood flood-opacity="0" result="BackgroundImageFix"/>
<feColorMatrix in="SourceAlpha" type="matrix" values="0 0 0 0 0 0 0 0 0 0 0 0 0 0 0 0 0 0 127 0" result="hardAlpha"/>
<feOffset dy="2"/>
<feGaussianBlur stdDeviation="1.5"/>
<feColorMatrix type="matrix" values="0 0 0 0 0.2 0 0 0 0 0.2 0 0 0 0 0.2 0 0 0 0.15 0"/>
<feBlend mode="normal" in2="BackgroundImageFix" result="effect1_dropShadow_13278_51484"/>
<feColorMatrix in="SourceAlpha" type="matrix" values="0 0 0 0 0 0 0 0 0 0 0 0 0 0 0 0 0 0 127 0" result="hardAlpha"/>
<feOffset dy="1"/>
<feGaussianBlur stdDeviation="1.5"/>
<feColorMatrix type="matrix" values="0 0 0 0 0.2 0 0 0 0 0.2 0 0 0 0 0.2 0 0 0 0.1 0"/>
<feBlend mode="normal" in2="effect1_dropShadow_13278_51484" result="effect2_dropShadow_13278_51484"/>
<feBlend mode="normal" in="SourceGraphic" in2="effect2_dropShadow_13278_51484" result="shape"/>
</filter>
</defs>
</svg>
