<svg width="286" height="131" fill="none" xmlns="http://www.w3.org/2000/svg"><path d="M143 16.38a.88.88 0 0 1-.88-.88v-3a.88.88 0 0 1 1.76 0v3c0 .48-.39.88-.88.88Zm0-6a.93.93 0 0 1-.62-.26.97.97 0 0 1-.19-.29.9.9 0 0 1 .19-.95.97.97 0 0 1 .29-.19.86.86 0 0 1 1.14.48c.04.1.07.21.07.33a.9.9 0 0 1-.26.62.91.91 0 0 1-.62.26Z" fill="#0F67F5"/><path d="M143 23.38a10.9 10.9 0 0 1 0-21.76 10.9 10.9 0 0 1 0 21.76Zm0-20a9.13 9.13 0 1 0 .02 18.26A9.13 9.13 0 0 0 143 3.38Z" fill="#0F67F5"/><g filter="url(#a)"><path d="m143.1 32.5 4.9 5h-10l5.1-5ZM3 41.5a4 4 0 0 1 4-4h272a4 4 0 0 1 4 4v80a4 4 0 0 1-4 4H7a4 4 0 0 1-4-4v-80Z" fill="#333"/><path d="m20.89 51.86 3.45 9.8h.14l3.45-9.8h1.48L25.14 63.5h-1.46l-4.27-11.64h1.48Zm13 11.82a3.74 3.74 0 0 1-3.58-2.13 5.35 5.35 0 0 1-.5-2.35c0-.89.17-1.68.5-2.36a3.7 3.7 0 0 1 3.44-2.18 4 4 0 0 1 1.35.23 3.34 3.34 0 0 1 2.08 2.08c.21.55.32 1.24.32 2.05v.57h-6.73v-1.16h5.37c0-.5-.1-.93-.3-1.32a2.23 2.23 0 0 0-2.09-1.25 2.47 2.47 0 0 0-2.28 1.42 3 3 0 0 0-.31 1.36v.77c0 .66.11 1.22.34 1.68.23.45.55.8.96 1.03.4.24.88.36 1.43.36.35 0 .67-.05.95-.15.29-.1.54-.25.75-.45.2-.21.36-.46.48-.77l1.3.37a2.9 2.9 0 0 1-.7 1.16c-.32.33-.71.58-1.19.77-.47.18-1 .27-1.6.27Zm5.65-.18v-8.73h1.3v1.32h.09c.16-.43.44-.78.86-1.05s.89-.4 1.4-.4a15.25 15.25 0 0 1 .71.02v1.36a4 4 0 0 0-.81-.09c-.43 0-.8.1-1.14.27a1.96 1.96 0 0 0-1.07 1.78v5.52h-1.34Zm7.08 3.27a2.94 2.94 0 0 1-.98-.16l.35-1.18c.32.09.6.12.86.1.25-.03.47-.14.66-.34.2-.2.38-.52.54-.96l.25-.68-3.22-8.78h1.45l2.41 6.96h.1l2.4-6.96h1.45l-3.7 10c-.17.45-.37.83-.62 1.12-.25.3-.53.52-.86.67-.32.14-.68.21-1.09.21Zm13.89-14.9V63.5h-1.35V51.86h1.35Zm6 11.81a3.8 3.8 0 0 1-2.08-.56 3.84 3.84 0 0 1-1.38-1.57 5.32 5.32 0 0 1-.5-2.37c0-.9.17-1.7.5-2.38.33-.68.8-1.2 1.38-1.58a3.8 3.8 0 0 1 2.08-.56c.78 0 1.47.19 2.07.56.59.38 1.05.9 1.38 1.58.34.68.5 1.47.5 2.38 0 .9-.16 1.7-.5 2.37-.33.67-.79 1.2-1.38 1.57-.6.37-1.28.56-2.07.56Zm0-1.2c.6 0 1.09-.16 1.47-.46.4-.31.68-.71.86-1.21a4.8 4.8 0 0 0 0-3.26 2.7 2.7 0 0 0-.86-1.22 2.28 2.28 0 0 0-1.47-.47c-.6 0-1.1.16-1.48.47-.39.31-.67.72-.86 1.22a4.8 4.8 0 0 0 0 3.26c.19.5.47.9.86 1.2.39.31.88.47 1.48.47Zm7.34-4.23v5.25H72.5v-8.73h1.3v1.37h.1c.21-.45.52-.8.94-1.07.42-.27.95-.41 1.61-.41.6 0 1.11.12 1.55.36.45.24.8.6 1.04 1.1.24.48.37 1.1.37 1.83v5.55h-1.34v-5.45c0-.69-.18-1.22-.54-1.6a1.9 1.9 0 0 0-1.46-.59c-.43 0-.81.1-1.15.28a2 2 0 0 0-.8.81c-.18.36-.28.8-.28 1.3Zm11.54 8.7a4.9 4.9 0 0 1-1.67-.25 3.54 3.54 0 0 1-1.9-1.5l1.07-.75c.12.16.28.35.46.55a2.5 2.5 0 0 0 2.04.77c.7 0 1.29-.17 1.74-.5.46-.35.7-.88.7-1.61v-1.77h-.12c-.1.16-.24.35-.42.59-.18.23-.44.43-.77.62-.34.17-.79.26-1.36.26a3.5 3.5 0 0 1-3.22-1.95 5.09 5.09 0 0 1-.48-2.32c0-.9.16-1.67.47-2.33a3.46 3.46 0 0 1 3.26-2.1c.56 0 1.02.1 1.35.28.34.19.6.4.77.64.18.23.32.43.42.58h.14v-1.39h1.3v8.98c0 .75-.18 1.36-.52 1.83s-.79.82-1.36 1.04c-.57.22-1.2.33-1.9.33Zm-.04-4.8c.53 0 .99-.11 1.36-.36.37-.25.65-.6.85-1.06.19-.46.29-1.02.29-1.66 0-.63-.1-1.19-.29-1.67a2.5 2.5 0 0 0-.84-1.13c-.37-.27-.83-.4-1.37-.4a2.28 2.28 0 0 0-2.27 1.58 4.48 4.48 0 0 0-.28 1.62c0 .6.1 1.14.28 1.6.2.47.48.83.86 1.1.37.26.84.39 1.4.39Zm14.56-7.38v1.14H95.4v-1.14h4.52Zm-3.2-2.09h1.34V61c0 .38.05.66.16.85.12.19.26.31.44.38.17.06.36.09.56.09.15 0 .27 0 .36-.02l.23-.05.27 1.2a2.7 2.7 0 0 1-1 .16 2.7 2.7 0 0 1-1.11-.24 2.21 2.21 0 0 1-.9-.74 2.14 2.14 0 0 1-.35-1.27v-8.68Zm8.67 11a3.8 3.8 0 0 1-2.07-.56c-.6-.38-1.06-.9-1.39-1.57a5.32 5.32 0 0 1-.5-2.37c0-.9.17-1.7.5-2.38.33-.68.8-1.2 1.39-1.58a3.8 3.8 0 0 1 2.07-.56c.79 0 1.48.19 2.07.56.6.38 1.06.9 1.39 1.58.33.68.5 1.47.5 2.38 0 .9-.17 1.7-.5 2.37a3.8 3.8 0 0 1-1.39 1.57c-.6.37-1.28.56-2.07.56Zm0-1.2c.6 0 1.1-.16 1.48-.46.39-.31.67-.71.86-1.21a4.77 4.77 0 0 0 0-3.26c-.19-.5-.47-.91-.86-1.22a2.28 2.28 0 0 0-1.48-.47c-.6 0-1.09.16-1.47.47-.4.31-.68.72-.86 1.22a4.77 4.77 0 0 0 0 3.26c.18.5.47.9.86 1.2.38.31.87.47 1.47.47Zm9.55 1.2a3.8 3.8 0 0 1-2.08-.56 3.84 3.84 0 0 1-1.38-1.57 5.32 5.32 0 0 1-.5-2.37c0-.9.17-1.7.5-2.38.33-.68.8-1.2 1.39-1.58a3.8 3.8 0 0 1 2.07-.56c.79 0 1.48.19 2.07.56.6.38 1.05.9 1.38 1.58.34.68.5 1.47.5 2.38 0 .9-.16 1.7-.5 2.37-.33.67-.79 1.2-1.38 1.57-.6.37-1.28.56-2.07.56Zm0-1.2c.6 0 1.09-.16 1.48-.46.38-.31.67-.71.85-1.21.19-.5.28-1.04.28-1.63 0-.58-.09-1.13-.28-1.63-.18-.5-.47-.91-.85-1.22a2.28 2.28 0 0 0-1.48-.47c-.6 0-1.1.16-1.48.47-.39.31-.67.72-.86 1.22a4.8 4.8 0 0 0 0 3.26c.19.5.47.9.86 1.2.39.31.88.47 1.48.47Zm7.34-10.62V63.5h-1.34V51.86h1.34Zm6.25 2.91v1.14H124v-1.14h4.52Zm-3.2-2.09h1.34V61c0 .38.05.66.16.85.12.19.26.31.44.38.17.06.36.09.56.09.15 0 .27 0 .36-.02l.23-.05.27 1.2a2.73 2.73 0 0 1-1 .16 2.7 2.7 0 0 1-1.11-.24 2.21 2.21 0 0 1-.9-.74 2.14 2.14 0 0 1-.35-1.27v-8.68Zm5.22 10.82v-8.73h1.34v8.73h-1.34Zm.68-10.18a.96.96 0 0 1-.68-.27.86.86 0 0 1-.27-.64c0-.25.09-.46.27-.64a.96.96 0 0 1 .68-.27c.26 0 .49.09.67.27a.85.85 0 0 1 0 1.28.93.93 0 0 1-.67.27Zm3.12 13.45v-12h1.3v1.39h.15l.41-.58c.18-.24.43-.45.76-.64s.79-.28 1.35-.28a3.46 3.46 0 0 1 3.26 2.11c.31.68.47 1.47.47 2.39 0 .92-.16 1.72-.47 2.4a3.42 3.42 0 0 1-3.23 2.12 2.8 2.8 0 0 1-1.35-.28c-.34-.19-.6-.4-.78-.64a8.77 8.77 0 0 1-.42-.6h-.11v4.61h-1.34Zm1.31-7.63c0 .66.1 1.24.3 1.74.19.5.47.9.84 1.18.37.28.83.42 1.37.42a2.2 2.2 0 0 0 1.4-.45c.38-.3.66-.7.85-1.2.2-.5.29-1.07.29-1.7 0-.6-.1-1.16-.28-1.65-.19-.5-.47-.9-.85-1.18a2.26 2.26 0 0 0-1.41-.44 2.24 2.24 0 0 0-2.22 1.57 4.73 4.73 0 0 0-.28 1.7Zm16.48 4.54a3.8 3.8 0 0 1-2.11-.58 3.78 3.78 0 0 1-1.37-1.6 5.41 5.41 0 0 1-.47-2.32c0-.88.16-1.67.49-2.34a3.7 3.7 0 0 1 3.44-2.18c.61 0 1.17.11 1.66.34a2.98 2.98 0 0 1 1.8 2.39h-1.35a2.04 2.04 0 0 0-2.1-1.52c-.51 0-.97.13-1.36.4-.4.27-.7.65-.92 1.14a4.23 4.23 0 0 0-.32 1.73c0 .67.1 1.26.32 1.76.21.5.52.89.9 1.16.4.28.86.42 1.4.42.34 0 .66-.06.94-.18a1.96 1.96 0 0 0 1.14-1.35h1.34a3.1 3.1 0 0 1-1.74 2.37c-.48.24-1.04.36-1.69.36Zm8.94 0a3.8 3.8 0 0 1-2.07-.56c-.6-.38-1.06-.9-1.4-1.57a5.33 5.33 0 0 1-.48-2.37c0-.9.16-1.7.49-2.38.33-.68.8-1.2 1.39-1.58a3.8 3.8 0 0 1 2.07-.56 3.67 3.67 0 0 1 3.45 2.14c.34.68.5 1.47.5 2.38 0 .9-.16 1.7-.5 2.37-.33.67-.79 1.2-1.38 1.57-.6.37-1.28.56-2.07.56Zm0-1.2c.6 0 1.1-.16 1.48-.46.38-.31.67-.71.85-1.21.19-.5.28-1.04.28-1.63 0-.58-.09-1.13-.28-1.63-.18-.5-.47-.91-.85-1.22a2.28 2.28 0 0 0-1.48-.47c-.6 0-1.1.16-1.48.47-.38.31-.67.72-.86 1.22a4.7 4.7 0 0 0-.27 1.63c0 .59.09 1.13.27 1.63.19.5.48.9.86 1.2.39.31.88.47 1.48.47Zm7.34-4.23v5.25h-1.34v-8.73h1.3v1.37h.11c.2-.45.52-.8.93-1.07.42-.27.96-.41 1.62-.41.59 0 1.1.12 1.55.36.44.24.78.6 1.03 1.1.25.48.37 1.1.37 1.83v5.55h-1.34v-5.45c0-.69-.18-1.22-.53-1.6a1.9 1.9 0 0 0-1.47-.59c-.43 0-.81.1-1.15.28a2 2 0 0 0-.79.81c-.2.36-.29.8-.29 1.3Zm11.82-3.48v1.14h-4.53v-1.14h4.53Zm-3.2-2.09h1.33V61c0 .38.06.66.17.85.11.19.25.31.43.38.18.06.36.09.56.09.15 0 .27 0 .36-.02l.23-.05.27 1.2a2.73 2.73 0 0 1-1 .16 2.7 2.7 0 0 1-1.1-.24 2.2 2.2 0 0 1-.9-.74 2.14 2.14 0 0 1-.36-1.27v-8.68Zm8.78 11a3.73 3.73 0 0 1-3.58-2.13 5.34 5.34 0 0 1-.49-2.35c0-.89.16-1.68.49-2.36a3.7 3.7 0 0 1 3.44-2.18c.46 0 .9.07 1.35.23a3.34 3.34 0 0 1 2.08 2.08c.21.55.32 1.24.32 2.05v.57h-6.72v-1.16h5.36c0-.5-.1-.93-.3-1.32a2.22 2.22 0 0 0-2.09-1.25 2.53 2.53 0 0 0-2.28 1.42 3 3 0 0 0-.3 1.36v.77c0 .66.1 1.22.33 1.68.23.45.55.8.96 1.03.41.24.89.36 1.43.36.35 0 .67-.05.95-.15.3-.1.54-.25.75-.45.2-.21.37-.46.48-.77l1.3.37a2.9 2.9 0 0 1-.7 1.16c-.31.33-.71.58-1.19.77-.47.18-1 .27-1.6.27Zm7-5.43v5.25h-1.35v-8.73h1.3v1.37h.11c.2-.45.52-.8.93-1.07.42-.27.96-.41 1.62-.41.59 0 1.1.12 1.55.36.44.24.78.6 1.03 1.1.25.48.37 1.1.37 1.83v5.55h-1.34v-5.45c0-.69-.18-1.22-.53-1.6a1.9 1.9 0 0 0-1.47-.59c-.43 0-.81.1-1.15.28a2 2 0 0 0-.79.81c-.2.36-.29.8-.29 1.3Zm11.8-3.48v1.14h-4.52v-1.14h4.53Zm-3.2-2.09h1.34V61c0 .38.06.66.17.85.11.19.26.31.43.38.18.06.37.09.56.09.15 0 .27 0 .37-.02l.22-.05.28 1.2a2.73 2.73 0 0 1-1 .16 2.7 2.7 0 0 1-1.12-.24 2.21 2.21 0 0 1-.9-.74 2.14 2.14 0 0 1-.35-1.27v-8.68Zm12.3 11.02c-.56 0-1.06-.1-1.51-.3a2.7 2.7 0 0 1-1.08-.92c-.26-.4-.4-.89-.4-1.46 0-.5.1-.9.3-1.21.2-.32.46-.56.79-.74.33-.18.7-.31 1.1-.4.4-.09.8-.16 1.2-.22l1.3-.15c.32-.04.57-.1.72-.19.15-.08.23-.23.23-.45v-.05c0-.56-.15-1-.46-1.3-.3-.31-.76-.47-1.38-.47-.64 0-1.14.14-1.5.42a2.5 2.5 0 0 0-.77.9l-1.28-.46a3.06 3.06 0 0 1 2.16-1.86 5.18 5.18 0 0 1 2.31-.08c.37.07.72.2 1.06.4.35.2.63.52.86.93.23.41.34.97.34 1.66v5.75h-1.34v-1.18h-.07a2.62 2.62 0 0 1-1.3 1.16c-.35.15-.78.22-1.29.22Zm.2-1.2c.53 0 .97-.1 1.34-.31a2.13 2.13 0 0 0 1.11-1.85v-1.23a.93.93 0 0 1-.37.2c-.2.04-.41.1-.66.13a30.34 30.34 0 0 1-1.29.17c-.35.05-.67.12-.97.23-.3.1-.55.24-.73.44-.18.2-.28.47-.28.81 0 .47.18.82.52 1.06.35.23.8.35 1.33.35Zm7.58-4.25v5.25h-1.34v-8.73h1.3v1.37h.1c.21-.45.52-.8.94-1.07.42-.27.95-.41 1.61-.41.6 0 1.11.12 1.56.36.44.24.78.6 1.03 1.1.25.48.37 1.1.37 1.83v5.55h-1.34v-5.45c0-.69-.18-1.22-.54-1.6a1.9 1.9 0 0 0-1.46-.59c-.43 0-.81.1-1.15.28-.33.19-.6.46-.79.81-.2.36-.29.8-.29 1.3Zm11.31 5.43a3.42 3.42 0 0 1-3.23-2.12 5.67 5.67 0 0 1-.47-2.4c0-.92.16-1.71.47-2.39a3.46 3.46 0 0 1 3.26-2.11c.57 0 1.01.1 1.34.28.34.19.59.4.77.64.17.23.31.43.4.58h.12v-4.3h1.34V63.5h-1.3v-1.34h-.15l-.42.6a2.5 2.5 0 0 1-.78.64 2.8 2.8 0 0 1-1.35.28Zm.19-1.2c.53 0 .99-.14 1.36-.42.37-.29.65-.68.85-1.18.19-.5.29-1.08.29-1.74 0-.66-.1-1.23-.29-1.71a2.24 2.24 0 0 0-2.22-1.56c-.56 0-1.04.14-1.42.43-.37.29-.65.68-.84 1.18a5.03 5.03 0 0 0 0 3.35c.2.5.48.9.86 1.2.38.3.84.45 1.4.45Zm-209.1 25.2a3.74 3.74 0 0 1-3.58-2.13 5.35 5.35 0 0 1-.5-2.35c0-.89.17-1.68.5-2.36a3.7 3.7 0 0 1 3.44-2.18 4 4 0 0 1 1.35.23 3.34 3.34 0 0 1 2.08 2.08c.21.55.32 1.24.32 2.05v.57h-6.73v-1.16h5.37c0-.5-.1-.93-.3-1.32a2.23 2.23 0 0 0-2.09-1.25 2.47 2.47 0 0 0-2.28 1.42 3 3 0 0 0-.31 1.36v.77c0 .66.11 1.22.34 1.68.23.45.55.8.96 1.03.4.24.88.36 1.43.36.35 0 .67-.05.95-.15.29-.1.54-.25.75-.45.2-.2.36-.46.48-.77l1.3.37a2.9 2.9 0 0 1-.7 1.16c-.32.33-.71.58-1.19.77-.47.18-1 .27-1.6.27Zm11.83-6.95-1.2.34c-.08-.2-.2-.4-.34-.59a1.56 1.56 0 0 0-.59-.47 2.15 2.15 0 0 0-.96-.2c-.53 0-.98.13-1.33.38-.36.24-.53.55-.53.92 0 .34.12.6.36.8.24.19.62.35 1.14.48l1.3.31c.77.2 1.35.48 1.74.87.38.39.57.89.57 1.5 0 .5-.14.95-.43 1.34-.29.4-.68.7-1.2.93-.5.23-1.1.34-1.78.34a3.9 3.9 0 0 1-2.2-.58 2.57 2.57 0 0 1-1.12-1.7l1.28-.3c.12.46.35.81.68 1.05.34.23.79.35 1.34.35a2.5 2.5 0 0 0 1.49-.4c.37-.27.55-.59.55-.96 0-.3-.1-.56-.31-.77-.22-.2-.54-.36-.98-.46l-1.46-.34a3.47 3.47 0 0 1-1.76-.88c-.37-.4-.55-.9-.55-1.5 0-.5.13-.94.41-1.31.28-.38.66-.68 1.14-.9a4 4 0 0 1 1.65-.32c.86 0 1.54.19 2.03.57.5.38.85.88 1.06 1.5Zm8.36 0-1.2.34c-.08-.2-.2-.4-.34-.59a1.56 1.56 0 0 0-.59-.47 2.15 2.15 0 0 0-.96-.2c-.53 0-.98.13-1.34.38-.35.24-.52.55-.52.92 0 .34.12.6.36.8.24.19.62.35 1.14.48l1.3.31c.77.2 1.35.48 1.74.87.38.39.57.89.57 1.5 0 .5-.14.95-.43 1.34-.29.4-.68.7-1.2.93-.5.23-1.1.34-1.78.34a3.9 3.9 0 0 1-2.2-.58 2.57 2.57 0 0 1-1.12-1.7l1.28-.3c.12.46.35.81.68 1.05.34.23.79.35 1.34.35a2.5 2.5 0 0 0 1.49-.4c.37-.27.55-.59.55-.96 0-.3-.1-.56-.31-.77-.22-.2-.54-.36-.98-.46l-1.46-.34a3.47 3.47 0 0 1-1.76-.88c-.37-.4-.55-.9-.55-1.5 0-.5.13-.94.41-1.31.28-.38.66-.68 1.14-.9a4 4 0 0 1 1.65-.32c.86 0 1.54.19 2.03.57.5.38.85.88 1.06 1.5Zm5.84 6.95a3.74 3.74 0 0 1-3.58-2.13 5.35 5.35 0 0 1-.5-2.35c0-.89.17-1.68.5-2.36a3.7 3.7 0 0 1 3.44-2.18c.46 0 .9.07 1.35.23a3.34 3.34 0 0 1 2.08 2.08c.21.55.32 1.24.32 2.05v.57H46.8v-1.16h5.37c0-.5-.1-.93-.3-1.32a2.23 2.23 0 0 0-2.09-1.25 2.47 2.47 0 0 0-2.28 1.42 3 3 0 0 0-.31 1.36v.77c0 .66.11 1.22.34 1.68.23.45.55.8.96 1.03.41.24.89.36 1.43.36.35 0 .67-.05.95-.15.29-.1.54-.25.75-.45.2-.2.37-.46.48-.77l1.3.37a2.9 2.9 0 0 1-.7 1.16c-.31.33-.71.58-1.19.77-.47.18-1 .27-1.6.27Zm7-5.43v5.25h-1.35v-8.73h1.3v1.37h.11c.2-.45.52-.8.93-1.07.42-.27.96-.41 1.62-.41.59 0 1.1.12 1.55.36.44.24.78.6 1.03 1.1.25.48.37 1.1.37 1.83v5.55h-1.34v-5.45c0-.69-.18-1.22-.53-1.6a1.9 1.9 0 0 0-1.47-.59c-.43 0-.81.1-1.15.28a2 2 0 0 0-.79.81c-.2.36-.29.8-.29 1.3Zm11.8-3.48v1.14H64.2v-1.14h4.53Zm-3.2-2.09h1.34V85c0 .38.06.66.17.85.11.19.25.31.43.38.18.06.36.09.56.09.15 0 .27 0 .36-.02l.23-.05.27 1.2a2.73 2.73 0 0 1-1 .16 2.7 2.7 0 0 1-1.1-.24 2.21 2.21 0 0 1-.9-.75 2.14 2.14 0 0 1-.36-1.26v-8.68Zm5.22 10.82v-8.73h1.34v8.73h-1.34Zm.68-10.18a.95.95 0 0 1-.67-.27.86.86 0 0 1-.28-.64c0-.25.1-.46.28-.64a.95.95 0 0 1 .67-.27.94.94 0 0 1 .96.91c0 .25-.1.46-.28.64a.93.93 0 0 1-.68.27Zm5.69 10.38c-.56 0-1.06-.1-1.5-.3a2.64 2.64 0 0 1-1.08-.92c-.27-.4-.4-.89-.4-1.46 0-.5.1-.9.3-1.21.2-.32.46-.56.79-.74.33-.18.69-.31 1.09-.4.4-.1.8-.16 1.2-.22l1.3-.15c.33-.04.57-.1.72-.19.16-.08.24-.23.24-.45v-.05c0-.56-.16-1-.46-1.3-.3-.31-.77-.47-1.38-.47-.64 0-1.15.14-1.51.42-.36.28-.62.58-.77.9l-1.27-.46a3.06 3.06 0 0 1 2.16-1.86 5.19 5.19 0 0 1 2.3-.08c.37.07.73.2 1.07.4.34.2.63.52.86.93.22.41.34.97.34 1.66v5.75h-1.34v-1.18h-.07a2.62 2.62 0 0 1-1.3 1.16 3.3 3.3 0 0 1-1.3.22Zm.2-1.2c.53 0 .98-.1 1.34-.31a2.13 2.13 0 0 0 1.12-1.85v-1.23c-.06.07-.18.13-.38.2-.19.04-.4.1-.66.13a29.95 29.95 0 0 1-1.28.17c-.35.05-.68.12-.98.23-.3.1-.54.24-.73.44-.18.2-.27.47-.27.81 0 .47.17.82.52 1.06.35.23.79.35 1.32.35Zm7.59-10.64V87.5h-1.34V75.86h1.34Zm10.75 2.91v1.14h-4.53v-1.14h4.53Zm-3.2-2.09h1.33V85c0 .38.06.66.17.85.11.19.26.31.43.38.18.06.37.09.56.09.15 0 .27 0 .37-.02l.22-.05.28 1.2a2.73 2.73 0 0 1-1 .16 2.7 2.7 0 0 1-1.12-.24 2.21 2.21 0 0 1-.9-.75 2.14 2.14 0 0 1-.35-1.26v-8.68Zm7.78 11.02c-.55 0-1.05-.1-1.5-.3a2.77 2.77 0 0 1-1.08-.92c-.26-.4-.4-.89-.4-1.46 0-.5.1-.9.3-1.21.2-.32.46-.56.8-.74.32-.18.68-.31 1.08-.4.4-.1.8-.16 1.21-.22l1.3-.15c.33-.04.57-.1.72-.19.15-.08.23-.23.23-.45v-.05c0-.56-.15-1-.46-1.3-.3-.31-.76-.47-1.38-.47a2.39 2.39 0 0 0-2.27 1.32l-1.27-.46a3.06 3.06 0 0 1 2.15-1.86 5.19 5.19 0 0 1 2.31-.08c.37.07.72.2 1.06.4.35.2.64.52.86.93.23.41.34.97.34 1.66v5.75h-1.34v-1.18h-.07a2.62 2.62 0 0 1-1.3 1.16c-.35.15-.78.22-1.29.22Zm.2-1.2c.54 0 .98-.1 1.35-.31a2.13 2.13 0 0 0 1.11-1.85v-1.23a.93.93 0 0 1-.37.2c-.2.04-.41.1-.66.13a29.63 29.63 0 0 1-1.29.17c-.34.05-.67.12-.97.23-.3.1-.55.24-.73.44-.18.2-.27.47-.27.81 0 .47.17.82.51 1.06.35.23.8.35 1.33.35Zm12.43-5.77-1.2.34c-.08-.2-.19-.4-.34-.59a1.56 1.56 0 0 0-.59-.47 2.15 2.15 0 0 0-.96-.2c-.53 0-.98.13-1.33.38-.36.24-.53.55-.53.92 0 .34.12.6.36.8.24.19.62.35 1.14.48l1.3.31c.77.2 1.36.48 1.74.87.38.39.57.89.57 1.5 0 .5-.14.95-.43 1.34-.28.4-.68.7-1.2.93-.5.23-1.1.34-1.78.34a3.9 3.9 0 0 1-2.2-.58 2.57 2.57 0 0 1-1.12-1.7l1.28-.3c.12.46.35.81.68 1.05.34.23.79.35 1.34.35a2.5 2.5 0 0 0 1.49-.4c.37-.27.56-.59.56-.96 0-.3-.11-.56-.32-.77-.21-.2-.54-.36-.98-.46l-1.45-.34a3.47 3.47 0 0 1-1.77-.88c-.37-.4-.55-.9-.55-1.5 0-.5.14-.94.41-1.31.28-.38.66-.68 1.14-.9a4 4 0 0 1 1.65-.32c.87 0 1.54.19 2.04.57.5.38.84.88 1.05 1.5Zm3.43 3.59-.02-1.66h.27l3.82-3.89h1.66l-4.07 4.12h-.12l-1.54 1.43Zm-1.25 3.18V75.86h1.34V87.5h-1.34Zm5.54 0-3.4-4.32.95-.93 4.16 5.25h-1.7Zm7.66 0v-8.73h1.34v8.73h-1.34Zm.69-10.18a.95.95 0 0 1-.68-.27.86.86 0 0 1-.28-.64c0-.25.1-.46.28-.64a.95.95 0 0 1 .68-.27.9.9 0 0 1 .66.27c.2.18.29.39.29.64s-.1.46-.28.64a.93.93 0 0 1-.67.27Zm4.45 4.93v5.25h-1.34v-8.73h1.3v1.37h.1c.21-.45.52-.8.94-1.07.42-.27.96-.41 1.61-.41.6 0 1.11.12 1.55.36.45.24.8.6 1.04 1.1.25.48.37 1.1.37 1.83v5.55h-1.34v-5.45c0-.69-.18-1.22-.54-1.6a1.9 1.9 0 0 0-1.46-.59c-.43 0-.81.1-1.15.28a2 2 0 0 0-.79.81c-.2.36-.29.8-.29 1.3Zm14.2-1.52-1.2.34a2.2 2.2 0 0 0-.34-.59 1.56 1.56 0 0 0-.59-.47 2.15 2.15 0 0 0-.96-.2c-.53 0-.98.13-1.34.38-.35.24-.52.55-.52.92 0 .34.12.6.36.8.24.19.62.35 1.14.48l1.3.31c.77.2 1.35.48 1.74.87.38.39.57.89.57 1.5 0 .5-.14.95-.43 1.34-.29.4-.68.7-1.2.93-.5.23-1.1.34-1.78.34a3.9 3.9 0 0 1-2.2-.58 2.57 2.57 0 0 1-1.12-1.7l1.28-.3c.12.46.35.81.68 1.05.34.23.79.35 1.34.35a2.5 2.5 0 0 0 1.49-.4c.37-.27.55-.59.55-.96 0-.3-.1-.56-.31-.77-.22-.2-.54-.36-.98-.46l-1.46-.34a3.47 3.47 0 0 1-1.76-.88c-.37-.4-.55-.9-.55-1.5 0-.5.13-.94.41-1.31.28-.38.66-.68 1.14-.9a4 4 0 0 1 1.65-.32c.86 0 1.54.19 2.03.57.5.38.85.88 1.06 1.5Zm5.97-1.96v1.14h-4.52v-1.14h4.52Zm-3.2-2.09h1.34V85c0 .38.06.66.16.85.12.19.26.31.44.38.18.06.36.09.56.09.15 0 .27 0 .36-.02l.23-.05.27 1.2a2.73 2.73 0 0 1-1 .16 2.7 2.7 0 0 1-1.11-.24 2.21 2.21 0 0 1-.9-.75 2.14 2.14 0 0 1-.35-1.26v-8.68Zm5.22 10.82v-8.73h1.3v1.32h.09c.16-.43.44-.78.86-1.05s.89-.4 1.41-.4a15.13 15.13 0 0 1 .7.02v1.36a4.07 4.07 0 0 0-.81-.09c-.43 0-.8.1-1.14.27a1.96 1.96 0 0 0-1.07 1.78v5.52h-1.34Zm11.45-3.57v-5.16h1.34v8.73h-1.34v-1.48h-.09a2.74 2.74 0 0 1-2.59 1.59 3 3 0 0 1-1.45-.35 2.5 2.5 0 0 1-1-1.1 4.14 4.14 0 0 1-.37-1.84v-5.55h1.34v5.46c0 .63.18 1.14.54 1.52.36.38.82.57 1.37.57a2.28 2.28 0 0 0 2.25-2.39Zm7.35 3.75c-.82 0-1.53-.2-2.12-.58a3.78 3.78 0 0 1-1.36-1.6 5.41 5.41 0 0 1-.48-2.32c0-.88.16-1.67.5-2.34a3.7 3.7 0 0 1 3.44-2.18c.6 0 1.16.11 1.65.34a2.97 2.97 0 0 1 1.8 2.39h-1.34a2.04 2.04 0 0 0-2.1-1.52c-.52 0-.98.13-1.37.4-.39.27-.7.65-.91 1.14a4.23 4.23 0 0 0-.33 1.73c0 .67.1 1.26.32 1.76s.52.89.91 1.16c.4.28.86.42 1.39.42.34 0 .66-.06.94-.18a1.96 1.96 0 0 0 1.15-1.35h1.34a3.1 3.1 0 0 1-1.74 2.37 3.8 3.8 0 0 1-1.7.36Zm9.18-8.9v1.13h-4.52v-1.14h4.52Zm-3.2-2.1h1.34V85c0 .38.06.66.16.85.12.19.26.31.44.38.18.06.36.09.56.09.15 0 .27 0 .36-.02l.23-.05.27 1.2a2.73 2.73 0 0 1-1 .16 2.7 2.7 0 0 1-1.11-.24 2.21 2.21 0 0 1-.9-.75 2.14 2.14 0 0 1-.35-1.26v-8.68Zm5.22 10.82v-8.73h1.34v8.73h-1.34Zm.68-10.18a.95.95 0 0 1-.67-.27.86.86 0 0 1-.28-.64c0-.25.1-.46.28-.64a.95.95 0 0 1 .67-.27c.26 0 .49.09.67.27a.85.85 0 0 1 0 1.28.93.93 0 0 1-.67.27Zm6.66 10.36a3.8 3.8 0 0 1-2.07-.56 3.82 3.82 0 0 1-1.39-1.57 5.33 5.33 0 0 1-.5-2.37c0-.9.17-1.7.5-2.38.34-.68.8-1.2 1.39-1.58a3.8 3.8 0 0 1 2.07-.56c.8 0 1.48.19 2.07.56.6.38 1.06.9 1.39 1.58.33.68.5 1.47.5 2.38 0 .9-.17 1.7-.5 2.37a3.8 3.8 0 0 1-1.39 1.57c-.59.37-1.28.56-2.07.56Zm0-1.2c.6 0 1.1-.16 1.48-.46.39-.31.67-.71.86-1.21a4.77 4.77 0 0 0 0-3.26c-.19-.5-.47-.91-.86-1.22a2.29 2.29 0 0 0-1.48-.47c-.6 0-1.09.16-1.47.47a2.7 2.7 0 0 0-.86 1.22 4.7 4.7 0 0 0-.28 1.63c0 .59.1 1.13.28 1.63.18.5.47.9.86 1.2.38.31.88.47 1.47.47Zm7.35-4.23v5.25h-1.34v-8.73h1.29v1.37h.11c.2-.45.52-.8.94-1.07.41-.27.95-.41 1.6-.41.6 0 1.12.12 1.56.36.44.24.79.6 1.04 1.1.24.48.36 1.1.36 1.83v5.55h-1.34v-5.45c0-.69-.17-1.22-.53-1.6a1.9 1.9 0 0 0-1.47-.59c-.42 0-.8.1-1.14.28a2 2 0 0 0-.8.81c-.19.36-.28.8-.28 1.3Zm14.2-1.52-1.2.34a2.2 2.2 0 0 0-.34-.59 1.6 1.6 0 0 0-.6-.47 2.15 2.15 0 0 0-.95-.2c-.54 0-.98.13-1.34.38-.35.24-.53.55-.53.92 0 .34.12.6.37.8.24.19.62.35 1.13.48l1.3.31c.78.2 1.36.48 1.74.87.38.39.58.89.58 1.5 0 .5-.15.95-.44 1.34-.28.4-.68.7-1.19.93-.51.23-1.1.34-1.78.34-.9 0-1.63-.2-2.21-.58a2.57 2.57 0 0 1-1.11-1.7l1.27-.3c.12.46.35.81.69 1.05.34.23.78.35 1.33.35a2.5 2.5 0 0 0 1.5-.4c.36-.27.55-.59.55-.96 0-.3-.1-.56-.32-.77-.21-.2-.54-.36-.98-.46l-1.45-.34a3.47 3.47 0 0 1-1.76-.88c-.37-.4-.56-.9-.56-1.5 0-.5.14-.94.41-1.31.29-.38.67-.68 1.15-.9a4 4 0 0 1 1.65-.32c.86 0 1.54.19 2.03.57.5.38.85.88 1.06 1.5Zm10.56-1.96v1.14h-4.7v-1.14h4.7Zm-3.3 8.73v-9.93a2.08 2.08 0 0 1 1.27-2 3.37 3.37 0 0 1 2.46-.02l-.39 1.15a6.67 6.67 0 0 0-.28-.08 1.72 1.72 0 0 0-.47-.05c-.44 0-.76.11-.96.33-.19.23-.28.55-.28.99v9.61h-1.35Zm8.37.18a3.8 3.8 0 0 1-2.08-.56 3.84 3.84 0 0 1-1.38-1.57 5.32 5.32 0 0 1-.5-2.37c0-.9.16-1.7.5-2.38a3.8 3.8 0 0 1 1.38-1.58 3.8 3.8 0 0 1 2.08-.56c.78 0 1.47.19 2.06.56.6.38 1.06.9 1.39 1.58.33.68.5 1.47.5 2.38 0 .9-.17 1.7-.5 2.37a3.8 3.8 0 0 1-1.39 1.57 3.8 3.8 0 0 1-2.06.56Zm0-1.2c.6 0 1.09-.16 1.47-.46.39-.31.68-.71.86-1.21a4.8 4.8 0 0 0 0-3.26 2.7 2.7 0 0 0-.86-1.22 2.28 2.28 0 0 0-1.47-.47c-.6 0-1.1.16-1.48.47-.39.31-.67.72-.86 1.22a4.77 4.77 0 0 0 0 3.26c.19.5.47.9.86 1.2.38.31.88.47 1.47.47Zm6 1.02v-8.73h1.3v1.32h.08c.16-.43.45-.78.87-1.05.41-.27.88-.4 1.4-.4a15.28 15.28 0 0 1 .71.02v1.36a3.93 3.93 0 0 0-.82-.09c-.42 0-.8.1-1.13.27a1.95 1.95 0 0 0-1.07 1.78v5.52h-1.34ZM25.73 107.93v-5.16h1.34v8.73h-1.34v-1.48h-.1a2.73 2.73 0 0 1-2.58 1.59c-.55 0-1.03-.12-1.46-.35a2.5 2.5 0 0 1-1-1.1 4.14 4.14 0 0 1-.36-1.84v-5.55h1.34v5.46c0 .63.18 1.14.53 1.52.36.38.82.57 1.38.57a2.28 2.28 0 0 0 1.89-1.04c.24-.35.36-.8.36-1.35Zm9.98-3.2-1.2.34c-.08-.2-.2-.4-.34-.59a1.6 1.6 0 0 0-.6-.47 2.15 2.15 0 0 0-.95-.2c-.54 0-.98.13-1.34.38-.35.24-.53.55-.53.92 0 .34.12.6.37.8.24.19.62.35 1.13.48l1.3.31c.78.2 1.36.48 1.74.87.38.39.58.89.58 1.5 0 .5-.15.95-.44 1.34-.28.4-.68.7-1.19.93-.51.23-1.1.34-1.78.34-.9 0-1.63-.2-2.21-.58a2.57 2.57 0 0 1-1.11-1.7l1.27-.3c.12.46.35.81.69 1.05.34.23.78.35 1.33.35a2.5 2.5 0 0 0 1.5-.4c.36-.27.55-.59.55-.96 0-.3-.1-.56-.32-.77-.21-.2-.54-.36-.98-.46l-1.45-.34a3.47 3.47 0 0 1-1.76-.88c-.37-.4-.56-.9-.56-1.5 0-.5.14-.94.42-1.31.28-.38.66-.68 1.14-.9a4 4 0 0 1 1.65-.32c.86 0 1.54.19 2.03.57.5.38.85.88 1.06 1.5Zm5.83 6.95a3.74 3.74 0 0 1-3.58-2.13 5.35 5.35 0 0 1-.49-2.35c0-.89.17-1.68.5-2.36a3.69 3.69 0 0 1 3.44-2.18c.45 0 .9.08 1.34.23a3.34 3.34 0 0 1 2.08 2.08c.22.55.33 1.24.33 2.05v.57h-6.73v-1.16h5.36c0-.5-.1-.93-.3-1.32a2.22 2.22 0 0 0-2.08-1.25c-.54 0-1 .14-1.39.4-.39.26-.68.6-.9 1.02a3 3 0 0 0-.3 1.36v.77c0 .66.1 1.22.34 1.67.23.46.55.8.96 1.05.4.23.88.35 1.42.35.35 0 .67-.05.96-.15.28-.1.53-.25.74-.45.21-.21.37-.46.48-.77l1.3.37a2.99 2.99 0 0 1-1.89 1.93c-.46.18-1 .27-1.59.27Zm5.66-.18v-8.73h1.3v1.32h.08c.16-.43.45-.78.87-1.05.41-.27.88-.4 1.4-.4a14.07 14.07 0 0 1 .71.02v1.36a3.42 3.42 0 0 0-.31-.05 3.02 3.02 0 0 0-.5-.04c-.43 0-.81.1-1.14.27a1.96 1.96 0 0 0-1.07 1.78v5.52H47.2Zm5.93.1a.98.98 0 0 1-.73-.31.99.99 0 0 1-.3-.72c0-.28.1-.52.3-.72a1 1 0 0 1 .73-.3c.28 0 .52.1.72.3.2.2.3.44.3.72a1.07 1.07 0 0 1-.51.89.98.98 0 0 1-.51.13Z" fill="#fff"/></g><defs><filter id="a" x="0" y="30.5" width="286" height="100" filterUnits="userSpaceOnUse" color-interpolation-filters="sRGB"><feFlood flood-opacity="0" result="BackgroundImageFix"/><feColorMatrix in="SourceAlpha" values="0 0 0 0 0 0 0 0 0 0 0 0 0 0 0 0 0 0 127 0" result="hardAlpha"/><feOffset dy="2"/><feGaussianBlur stdDeviation="1.5"/><feColorMatrix values="0 0 0 0 0.2 0 0 0 0 0.2 0 0 0 0 0.2 0 0 0 0.15 0"/><feBlend in2="BackgroundImageFix" result="effect1_dropShadow_13278_51484"/><feColorMatrix in="SourceAlpha" values="0 0 0 0 0 0 0 0 0 0 0 0 0 0 0 0 0 0 127 0" result="hardAlpha"/><feOffset dy="1"/><feGaussianBlur stdDeviation="1.5"/><feColorMatrix values="0 0 0 0 0.2 0 0 0 0 0.2 0 0 0 0 0.2 0 0 0 0.1 0"/><feBlend in2="effect1_dropShadow_13278_51484" result="effect2_dropShadow_13278_51484"/><feBlend in="SourceGraphic" in2="effect2_dropShadow_13278_51484" result="shape"/></filter></defs></svg>