<svg width="271" height="136" fill="none" xmlns="http://www.w3.org/2000/svg"><path fill="#fff" d="M0 0h264v44H0z"/><path stroke="#EBEBEB" d="M0 43.5h264"/><path d="M16.35 16.36h2.38l2.85 5.15h.11l2.85-5.15h2.38l-4.23 7.3V28h-2.1v-4.34l-4.24-7.3Zm21.8 5.82a6.8 6.8 0 0 1-.7 3.22 4.99 4.99 0 0 1-4.64 2.76 5.08 5.08 0 0 1-4.65-2.76c-.47-.9-.7-1.97-.7-3.22 0-1.25.23-2.32.7-3.21a5.03 5.03 0 0 1 4.65-2.77 4.98 4.98 0 0 1 4.64 2.76c.47.9.7 1.97.7 3.22Zm-2.11 0c0-.88-.14-1.63-.42-2.23a3.07 3.07 0 0 0-1.14-1.38 3.01 3.01 0 0 0-1.67-.47c-.63 0-1.2.15-1.68.47A3.1 3.1 0 0 0 30 19.95c-.27.6-.4 1.35-.4 2.23 0 .88.13 1.63.4 2.24.28.6.66 1.07 1.14 1.38.49.31 1.05.47 1.68.47.63 0 1.19-.16 1.67-.47.49-.31.87-.77 1.14-1.38a5.4 5.4 0 0 0 .42-2.24Zm11.44-5.82h2.11v7.6a4 4 0 0 1-2.24 3.68c-.7.36-1.53.54-2.48.54s-1.78-.18-2.49-.53a4 4 0 0 1-1.65-1.49 4.1 4.1 0 0 1-.58-2.2v-7.6h2.1v7.43c0 .48.11.92.32 1.3.22.37.52.67.91.89.4.2.86.32 1.39.32.53 0 1-.11 1.39-.32a2.47 2.47 0 0 0 1.22-2.19v-7.43ZM51.88 28V16.36h4.37c.89 0 1.64.16 2.25.47.6.31 1.07.75 1.38 1.3.31.56.47 1.21.47 1.96a3.8 3.8 0 0 1-.48 1.94c-.31.54-.78.97-1.4 1.27-.6.3-1.36.44-2.25.44H53.1v-1.75h2.82c.53 0 .95-.07 1.29-.22.33-.14.58-.36.74-.64.16-.28.24-.63.24-1.04 0-.42-.08-.77-.24-1.06-.17-.3-.41-.52-.75-.67a3.07 3.07 0 0 0-1.29-.23H54V28h-2.1Zm6.01-5.27L60.77 28h-2.35l-2.83-5.27h2.3ZM67.75 28H65.5l4.1-11.64h2.6L76.3 28h-2.25l-3.1-9.25h-.1L67.75 28Zm.08-4.56h6.13v1.7h-6.13v-1.7Zm19.42-3.15h-2.13a2.65 2.65 0 0 0-.94-1.62 2.53 2.53 0 0 0-.83-.43 3.24 3.24 0 0 0-2.68.33c-.48.32-.87.78-1.14 1.39-.28.6-.42 1.35-.42 2.22 0 .9.14 1.64.42 2.25.28.6.66 1.07 1.14 1.38a3.39 3.39 0 0 0 2.65.32 2.68 2.68 0 0 0 1.45-1.08c.17-.27.29-.57.35-.91h2.13a4.57 4.57 0 0 1-3.04 3.71c-.56.2-1.2.3-1.89.3a4.96 4.96 0 0 1-4.64-2.76 6.9 6.9 0 0 1-.69-3.2c0-1.26.24-2.33.7-3.22a5 5 0 0 1 4.63-2.77c.65 0 1.25.1 1.8.28a4.6 4.6 0 0 1 1.5.8 4.7 4.7 0 0 1 1.63 3.01Zm11.89 0H97a2.64 2.64 0 0 0-.94-1.62 2.53 2.53 0 0 0-.83-.43 3.24 3.24 0 0 0-2.67.33c-.5.32-.88.78-1.15 1.39-.28.6-.42 1.35-.42 2.22 0 .9.14 1.64.42 2.25.28.6.66 1.07 1.15 1.38a3.39 3.39 0 0 0 2.65.32 2.68 2.68 0 0 0 1.44-1.08c.17-.27.29-.57.35-.91h2.13a4.57 4.57 0 0 1-3.03 3.71c-.57.2-1.2.3-1.9.3a4.96 4.96 0 0 1-4.64-2.76 6.9 6.9 0 0 1-.69-3.2c0-1.26.24-2.33.7-3.22a5 5 0 0 1 4.63-2.77c.65 0 1.25.1 1.81.28.56.18 1.05.45 1.49.8a4.7 4.7 0 0 1 1.63 3.01Zm12.33 1.9c0 1.25-.24 2.32-.7 3.21a4.99 4.99 0 0 1-4.65 2.76 5.08 5.08 0 0 1-4.65-2.76c-.46-.9-.7-1.97-.7-3.22 0-1.25.24-2.32.7-3.21a5.03 5.03 0 0 1 4.65-2.77 4.98 4.98 0 0 1 4.64 2.76c.47.9.7 1.97.7 3.22Zm-2.12 0c0-.9-.14-1.64-.42-2.24a3.07 3.07 0 0 0-1.13-1.38 3.01 3.01 0 0 0-1.68-.47 3 3 0 0 0-1.68.47 3.1 3.1 0 0 0-1.14 1.38c-.27.6-.4 1.35-.4 2.23 0 .88.13 1.63.4 2.24.28.6.66 1.07 1.14 1.38.49.31 1.05.47 1.68.47.63 0 1.2-.16 1.68-.47a3.1 3.1 0 0 0 1.13-1.38 5.4 5.4 0 0 0 .42-2.24Zm11.45-5.83h2.1v7.6a4 4 0 0 1-2.24 3.68c-.7.36-1.53.54-2.48.54s-1.78-.18-2.49-.53a4 4 0 0 1-1.64-1.49 4.1 4.1 0 0 1-.59-2.2v-7.6h2.1v7.43a2.4 2.4 0 0 0 1.23 2.19c.4.2.86.32 1.4.32.53 0 .99-.11 1.38-.32a2.48 2.48 0 0 0 1.23-2.19v-7.43Zm13.96 0V28h-1.88l-5.48-7.93h-.1V28h-2.1V16.36h1.88l5.48 7.94h.1v-7.94h2.1Zm1.78 1.77v-1.77h9.29v1.77h-3.6V28h-2.1v-9.87h-3.59Z" fill="#0F67F5"/><path stroke="#0F67F5" stroke-width="2" d="M0 43h163"/><path d="M180.4 28V16.36h3.94c.91 0 1.66.17 2.24.5a3.1 3.1 0 0 1 1.3 1.32c.28.56.41 1.18.41 1.87 0 .68-.13 1.3-.41 1.86a3.16 3.16 0 0 1-1.29 1.35c-.58.33-1.32.49-2.23.49h-2.82V22.5h2.78c.62 0 1.13-.1 1.5-.32.38-.22.66-.51.83-.88.17-.37.26-.79.26-1.25 0-.47-.09-.89-.26-1.25a1.87 1.87 0 0 0-.83-.87 3.14 3.14 0 0 0-1.53-.32h-2.47V28h-1.41Zm9.45 0h-1.47l4.27-11.64h1.45L198.38 28h-1.48l-3.48-9.8h-.09l-3.48 9.8Zm.55-4.55h5.95v1.25h-5.95v-1.25Zm7.6-7.09h1.62l3.22 5.44h.14l3.23-5.44h1.61l-4.2 6.84V28h-1.41v-4.8l-4.2-6.84Zm11.64 0h1.69l3.95 9.66h.14l3.95-9.66h1.68V28h-1.32v-8.84h-.1L215.97 28h-1.27l-3.64-8.84h-.1V28h-1.33V16.36ZM223.88 28V16.36h7.02v1.25h-5.61v3.94h5.25v1.25h-5.25v3.95h5.7V28h-7.11Zm18.79-11.64V28h-1.37l-6.34-9.14h-.11V28h-1.41V16.36h1.36l6.37 9.16h.11v-9.16h1.39Zm2.18 1.25v-1.25h8.73v1.25h-3.66V28h-1.41V17.61h-3.66Z" fill="#333"/><path fill="#fff" d="M0 60h264v76H0z"/><path fill="#EBEBEB" d="M12 72h99v12H12zm0 20h240v12H12zm0 20h240v12H12z"/></svg>