<svg width="672" height="259" fill="none" xmlns="http://www.w3.org/2000/svg"><path fill="#F6F6F6" d="M0 0h672v259H0z"/><g filter="url(#a)"><path d="m187.1 32 4.9 5h-10l5.1-5Z" fill="#333"/><rect x="137" y="37" width="100" height="69" rx="4" fill="#333"/><path d="M149.68 48v-.9c0-.27.04-.55.14-.86.1-.3.24-.6.43-.89.19-.29.41-.54.68-.75l.63.52c-.2.3-.39.6-.54.93-.15.32-.23.67-.23 1.04V48h-1.11Zm8.6 1.07-1.06.3a1.95 1.95 0 0 0-.3-.51c-.12-.17-.3-.3-.51-.42-.22-.1-.5-.16-.84-.16a2 2 0 0 0-1.17.32c-.3.21-.46.48-.46.81 0 .3.1.52.31.7.22.16.55.3 1 .42l1.13.27c.69.17 1.2.42 1.53.76.33.34.5.78.5 1.31 0 .44-.13.83-.38 1.18-.25.34-.6.61-1.04.81-.45.2-.97.3-1.56.3-.78 0-1.43-.17-1.94-.5a2.25 2.25 0 0 1-.97-1.49l1.12-.28c.1.41.3.72.6.93.3.2.69.3 1.17.3.55 0 .98-.11 1.3-.34.33-.24.49-.52.49-.85a.9.9 0 0 0-.28-.66 1.78 1.78 0 0 0-.85-.41l-1.28-.3a3.04 3.04 0 0 1-1.54-.77 1.87 1.87 0 0 1-.49-1.32c0-.43.12-.81.37-1.14.24-.33.58-.6 1-.78.42-.2.9-.29 1.44-.29.75 0 1.35.17 1.78.5.43.33.74.77.92 1.31Zm1.9 5.93v-7.64h1.13v1.2h.1c.16-.41.42-.73.77-.95a2.3 2.3 0 0 1 1.28-.35c.5 0 .92.12 1.26.35.34.22.6.54.79.95h.08c.2-.4.48-.71.88-.94.39-.24.86-.36 1.4-.36.69 0 1.25.22 1.68.65.43.42.65 1.08.65 1.98V55h-1.17v-5.11c0-.56-.16-.97-.47-1.2-.3-.25-.67-.37-1.08-.37-.54 0-.96.16-1.25.49-.3.32-.44.72-.44 1.22V55h-1.2v-5.23c0-.43-.14-.78-.42-1.05a1.5 1.5 0 0 0-1.09-.4c-.3 0-.59.08-.85.24-.27.16-.48.39-.64.68a2 2 0 0 0-.24.99V55h-1.17Zm13.2-10.18v.9a3.58 3.58 0 0 1-1.25 2.5l-.64-.52c.2-.3.39-.6.54-.93.16-.32.24-.67.24-1.04v-.91h1.1Zm5.96 4.15V47.9h6.13v1.07h-6.13Zm0 2.95v-1.08h6.13v1.08h-6.13Zm-25.7 14.9V77h-1.24v-8.89h-.06l-2.49 1.65v-1.25l2.55-1.7h1.23Zm6.24 10.32c-.75 0-1.38-.2-1.91-.61s-.93-1-1.2-1.79a8.47 8.47 0 0 1-.43-2.83c0-1.1.14-2.04.42-2.82a3.9 3.9 0 0 1 1.21-1.79 3 3 0 0 1 1.91-.62c.75 0 1.38.2 1.9.62.54.41.94 1 1.22 1.79.28.78.42 1.72.42 2.82a8.5 8.5 0 0 1-.41 2.83 3.82 3.82 0 0 1-1.21 1.79c-.53.4-1.17.6-1.92.6Zm0-1.1c.75 0 1.32-.35 1.73-1.07.41-.71.62-1.74.62-3.06 0-.88-.1-1.63-.28-2.25a3.1 3.1 0 0 0-.8-1.42 1.78 1.78 0 0 0-1.27-.49c-.73 0-1.3.37-1.72 1.1a6.22 6.22 0 0 0-.62 3.06c0 .88.09 1.63.28 2.25.18.61.45 1.08.8 1.4.35.32.77.49 1.26.49Zm8.75 1.1c-.75 0-1.38-.2-1.91-.61s-.93-1-1.2-1.79a8.47 8.47 0 0 1-.43-2.83c0-1.1.14-2.04.42-2.82a3.9 3.9 0 0 1 1.21-1.79 3 3 0 0 1 1.91-.62c.75 0 1.38.2 1.9.62.54.41.94 1 1.22 1.79.28.78.42 1.72.42 2.82a8.5 8.5 0 0 1-.41 2.83 3.82 3.82 0 0 1-1.21 1.79c-.53.4-1.17.6-1.92.6Zm0-1.1c.75 0 1.32-.35 1.73-1.07.41-.71.62-1.74.62-3.06 0-.88-.1-1.63-.28-2.25a3.1 3.1 0 0 0-.8-1.42 1.78 1.78 0 0 0-1.27-.49c-.73 0-1.3.37-1.72 1.1a6.22 6.22 0 0 0-.62 3.06c0 .88.09 1.63.28 2.25.18.61.45 1.08.8 1.4.35.32.77.49 1.26.49Zm5.45 3.82v-10.5h1.13v1.22h.14l.36-.51c.16-.2.38-.4.67-.56.29-.16.69-.25 1.18-.25a3.03 3.03 0 0 1 2.85 1.85c.28.6.41 1.29.41 2.1 0 .8-.13 1.5-.4 2.1a2.99 2.99 0 0 1-2.83 1.85c-.5 0-.9-.08-1.19-.24-.3-.17-.52-.36-.68-.57a7.86 7.86 0 0 1-.37-.52h-.1v4.03h-1.17Zm1.16-6.68c0 .58.08 1.09.25 1.53.17.44.41.78.74 1.03.32.24.72.37 1.2.37s.9-.13 1.22-.4c.33-.25.58-.6.75-1.05a4.3 4.3 0 0 0 0-2.93c-.16-.43-.4-.78-.74-1.03a1.96 1.96 0 0 0-1.24-.38 1.96 1.96 0 0 0-1.94 1.37c-.16.42-.24.92-.24 1.5Zm7.93-3.82L185 72.5l1.83-3.13h1.35l-2.46 3.82 2.47 3.82h-1.36L185 74.04 183.17 77h-1.35l2.43-3.82-2.43-3.82h1.35ZM150.07 98v-7.64h1.14v1.2h.1c.16-.41.41-.73.77-.95.35-.23.78-.35 1.27-.35.5 0 .93.12 1.26.35.34.22.6.54.8.95h.07c.2-.4.5-.71.88-.94.4-.24.86-.36 1.41-.36.68 0 1.24.22 1.67.65.44.42.66 1.08.66 1.98V98h-1.18v-5.11c0-.56-.15-.97-.46-1.2-.3-.25-.67-.37-1.09-.37-.53 0-.95.16-1.25.49-.3.32-.44.72-.44 1.22V98h-1.2v-5.23c0-.43-.13-.78-.41-1.05-.29-.27-.65-.4-1.1-.4-.3 0-.58.08-.85.24a1.8 1.8 0 0 0-.63.68 2 2 0 0 0-.24.99V98h-1.18Zm14.42.18c-.49 0-.92-.1-1.32-.27-.4-.19-.7-.46-.94-.8a2.26 2.26 0 0 1-.35-1.28c0-.44.09-.79.26-1.06.18-.28.4-.5.7-.65.28-.15.6-.27.95-.35.35-.08.7-.14 1.06-.18l1.13-.14c.29-.03.5-.09.63-.16.14-.08.2-.21.2-.4v-.04c0-.5-.13-.87-.4-1.14-.26-.28-.66-.41-1.2-.41a2.1 2.1 0 0 0-1.99 1.15l-1.12-.4a2.73 2.73 0 0 1 1.9-1.63 4.54 4.54 0 0 1 2.01-.07c.32.06.63.18.93.36.3.18.55.45.75.8.2.37.3.85.3 1.46V98h-1.17v-1.03h-.06a2.29 2.29 0 0 1-1.14 1.01c-.31.13-.69.2-1.13.2Zm.18-1.06c.46 0 .85-.09 1.17-.27a1.86 1.86 0 0 0 .98-1.61v-1.08c-.05.06-.16.12-.33.17a5.55 5.55 0 0 1-1.21.21l-.5.06c-.3.04-.58.1-.85.2-.26.08-.47.21-.63.39a1 1 0 0 0-.24.7c0 .41.15.72.45.93.3.2.7.3 1.16.3Zm6.34-6.76 1.83 3.13 1.82-3.13h1.36l-2.47 3.82 2.47 3.82h-1.36l-1.82-2.96L171 98h-1.36l2.43-3.82-2.43-3.82H171ZM179.7 98l-2.78-10.18h1.25l2.13 8.3h.1l2.16-8.3h1.4l2.16 8.3h.1l2.13-8.3h1.25L186.82 98h-1.27l-2.25-8.11h-.08L180.97 98h-1.27Zm11.28 0v-7.64h1.17V98h-1.17Zm.6-8.9a.83.83 0 0 1-.6-.24.75.75 0 0 1-.24-.56c0-.22.08-.41.25-.57a.83.83 0 0 1 .59-.23c.22 0 .42.08.58.23.17.16.25.35.25.57 0 .21-.08.4-.25.56a.82.82 0 0 1-.58.23Zm5.6 9.06a2.99 2.99 0 0 1-2.82-1.86 4.86 4.86 0 0 1-.42-2.1c0-.8.14-1.5.42-2.09a3.03 3.03 0 0 1 2.85-1.85c.5 0 .89.09 1.17.25.3.17.52.35.67.56.16.2.28.37.36.5h.1v-3.75h1.18V98h-1.14v-1.17h-.14c-.08.14-.2.31-.37.52-.15.21-.38.4-.68.57-.3.16-.68.24-1.17.24Zm.16-1.05c.48 0 .87-.13 1.2-.37.32-.25.57-.6.74-1.03.17-.44.25-.95.25-1.53 0-.57-.08-1.07-.25-1.5a1.96 1.96 0 0 0-1.94-1.37c-.5 0-.9.14-1.24.4-.33.24-.57.59-.74 1.02a4.1 4.1 0 0 0-.24 1.45c0 .55.08 1.04.25 1.48.16.44.41.8.74 1.06s.74.39 1.23.39Zm8.98-6.75v1h-3.96v-1h3.96Zm-2.8-1.83h1.17v7.28c0 .33.05.58.14.75.1.16.23.27.38.33.16.05.32.08.5.08l.31-.02.2-.04.24 1.05a2.41 2.41 0 0 1-.88.14c-.33 0-.65-.07-.97-.21a1.94 1.94 0 0 1-.79-.66 1.9 1.9 0 0 1-.3-1.1v-7.6Zm5.9 4.88V98h-1.17V87.82h1.17v3.74h.1c.18-.4.45-.71.8-.94a2.6 2.6 0 0 1 1.45-.36c.52 0 .97.1 1.36.32.4.2.7.52.91.95.22.42.33.96.33 1.62V98h-1.17v-4.77a2 2 0 0 0-.47-1.41c-.31-.33-.75-.5-1.3-.5-.39 0-.73.08-1.03.24-.3.16-.55.4-.72.71a2.3 2.3 0 0 0-.26 1.14Z" fill="#fff"/></g><g filter="url(#b)"><path d="m392.1 32 4.9 5h-10l5.1-5Z" fill="#333"/><rect x="267" y="37" width="250" height="48" rx="4" fill="#333"/><path d="M279.68 48v-.9c0-.27.04-.55.14-.86.1-.3.24-.6.43-.89.19-.29.41-.54.68-.75l.63.52c-.2.3-.39.6-.54.93-.15.32-.23.67-.23 1.04V48h-1.11Zm3.18 7v-7.64H284v1.2h.1c.15-.41.41-.73.77-.95.35-.23.78-.35 1.27-.35.5 0 .93.12 1.26.35.34.22.6.54.8.95h.07c.2-.4.5-.71.88-.94.4-.24.86-.36 1.4-.36.7 0 1.25.22 1.68.65.44.42.66 1.08.66 1.98V55h-1.18v-5.11c0-.56-.15-.97-.46-1.2-.3-.25-.67-.37-1.09-.37-.54 0-.95.16-1.25.49-.3.32-.44.72-.44 1.22V55h-1.2v-5.23c0-.43-.13-.78-.41-1.05-.29-.27-.65-.4-1.1-.4-.3 0-.58.08-.85.24a1.9 1.9 0 0 0-.64.68 2 2 0 0 0-.23.99V55h-1.18Zm15.05.16a2.99 2.99 0 0 1-2.82-1.86 4.86 4.86 0 0 1-.42-2.1c0-.8.14-1.5.42-2.09a3.03 3.03 0 0 1 2.85-1.85c.5 0 .88.09 1.17.25.3.17.52.35.67.56.16.2.28.37.36.5h.1v-3.75h1.17V55h-1.13v-1.17h-.14c-.08.14-.2.31-.37.52-.15.21-.38.4-.68.57-.3.16-.69.24-1.18.24Zm.16-1.05a2 2 0 0 0 1.2-.37c.32-.25.57-.6.74-1.03.17-.44.25-.95.25-1.53 0-.57-.08-1.07-.25-1.5a1.96 1.96 0 0 0-1.94-1.37c-.5 0-.9.14-1.24.4-.33.24-.57.59-.74 1.02-.16.43-.24.91-.24 1.45 0 .55.08 1.04.25 1.48.16.44.41.8.74 1.06s.74.39 1.23.39Zm6.69-9.3v.9a3.58 3.58 0 0 1-1.25 2.5l-.64-.5c.21-.3.4-.62.54-.94.16-.32.24-.67.24-1.04v-.91h1.11Zm5.97 4.16V47.9h6.12v1.07h-6.13Zm0 2.95v-1.08h6.12v1.08h-6.13ZM323.39 55v-.9l3.37-3.67c.39-.43.71-.8.97-1.13.25-.32.44-.62.57-.9.12-.29.19-.59.19-.9a1.65 1.65 0 0 0-.96-1.53 2.2 2.2 0 0 0-1-.22 2 2 0 0 0-1.02.25c-.29.16-.51.38-.67.67a2.1 2.1 0 0 0-.23 1.01h-1.18a2.87 2.87 0 0 1 1.54-2.63 3.38 3.38 0 0 1 1.6-.37c.6 0 1.13.12 1.6.38a2.84 2.84 0 0 1 1.47 2.44c0 .38-.07.74-.2 1.1-.14.36-.37.75-.7 1.19-.33.43-.79.96-1.37 1.6l-2.29 2.44v.08h4.74V55h-6.43Zm11.66.14a3.5 3.5 0 0 1-1.57-.35 2.92 2.92 0 0 1-1.13-.95 2.6 2.6 0 0 1-.46-1.39h1.2c.04.47.25.85.62 1.15.37.3.82.45 1.34.45a2.12 2.12 0 0 0 1.89-1.1c.19-.35.28-.74.28-1.17 0-.45-.1-.84-.3-1.19a2.15 2.15 0 0 0-1.95-1.14 3.18 3.18 0 0 0-1.77.52l-1.15-.14.62-5.01h5.29v1.1h-4.26l-.36 3h.06a2.98 2.98 0 0 1 1.77-.58A3.12 3.12 0 0 1 338 50c.28.51.42 1.1.42 1.76 0 .65-.14 1.23-.44 1.74a3.2 3.2 0 0 1-2.92 1.64Zm8.66 0a3 3 0 0 1-1.91-.61 3.7 3.7 0 0 1-1.21-1.79 8.47 8.47 0 0 1-.42-2.83c0-1.1.14-2.04.42-2.82.28-.78.68-1.38 1.21-1.79a3 3 0 0 1 1.9-.62c.75 0 1.39.2 1.91.62.53.41.94 1 1.22 1.79.28.78.42 1.72.42 2.82 0 1.1-.14 2.05-.42 2.83a3.82 3.82 0 0 1-1.2 1.79c-.53.4-1.17.6-1.92.6Zm0-1.1c.74 0 1.32-.35 1.73-1.07.41-.71.62-1.74.62-3.06 0-.88-.1-1.63-.29-2.25a3.09 3.09 0 0 0-.8-1.42 1.78 1.78 0 0 0-1.26-.49c-.74 0-1.31.37-1.73 1.1a6.23 6.23 0 0 0-.62 3.06c0 .88.1 1.63.28 2.25.19.61.45 1.08.8 1.4.35.32.77.49 1.27.49Zm5.45 3.82v-10.5h1.13v1.22h.14l.36-.51c.15-.2.38-.4.66-.56.3-.16.7-.25 1.19-.25a3.03 3.03 0 0 1 2.85 1.85c.27.6.4 1.29.4 2.1 0 .8-.13 1.5-.4 2.1a2.99 2.99 0 0 1-2.83 1.85c-.5 0-.88-.08-1.18-.24a2.2 2.2 0 0 1-.68-.57 7.43 7.43 0 0 1-.37-.52h-.1v4.03h-1.17Zm1.15-6.68c0 .58.09 1.09.25 1.53.17.44.42.78.75 1.03.32.24.72.37 1.19.37.49 0 .9-.13 1.23-.4.33-.25.58-.6.74-1.05.17-.44.26-.93.26-1.48 0-.54-.09-1.02-.25-1.45a2.32 2.32 0 0 0-.74-1.03 1.96 1.96 0 0 0-1.24-.38 1.95 1.95 0 0 0-1.94 1.37 4 4 0 0 0-.25 1.5Zm7.94-3.82 1.83 3.13 1.83-3.13h1.35l-2.46 3.82 2.46 3.82h-1.35l-1.83-2.96-1.83 2.96h-1.35l2.42-3.82-2.42-3.82h1.35Zm10.23-1.45v-1.1h7.63v1.1h-3.2V55h-1.23v-9.09h-3.2Zm10.55 4.5V55h-1.17V44.82h1.17v3.74h.1c.18-.4.44-.71.8-.94.37-.24.84-.36 1.44-.36.52 0 .98.1 1.37.32.4.2.7.52.91.95.22.42.33.96.33 1.62V55h-1.17v-4.77c0-.6-.16-1.08-.48-1.41-.3-.33-.74-.5-1.3-.5-.38 0-.72.08-1.03.24-.3.16-.54.4-.71.71-.18.31-.26.7-.26 1.14Zm7.1 4.59v-7.64h1.17V55h-1.17Zm.6-8.9a.83.83 0 0 1-.6-.24.75.75 0 0 1-.24-.56c0-.22.08-.41.24-.57a.83.83 0 0 1 .6-.23c.22 0 .42.08.58.23.17.16.25.35.25.57 0 .21-.08.4-.25.56a.82.82 0 0 1-.59.23Zm8.13 2.97-1.06.3a1.95 1.95 0 0 0-.29-.51c-.13-.17-.3-.3-.52-.42-.22-.1-.5-.16-.84-.16a2 2 0 0 0-1.16.32c-.31.21-.47.48-.47.81 0 .3.1.52.32.7.21.16.54.3 1 .42l1.13.27c.68.17 1.19.42 1.52.76.34.34.5.78.5 1.31 0 .44-.12.83-.37 1.18-.25.34-.6.61-1.05.81-.44.2-.96.3-1.56.3a3.5 3.5 0 0 1-1.93-.5 2.25 2.25 0 0 1-.97-1.49l1.11-.28c.11.41.31.72.6.93.3.2.7.3 1.17.3.55 0 .99-.11 1.3-.34.33-.24.5-.52.5-.85a.9.9 0 0 0-.28-.66 1.78 1.78 0 0 0-.86-.41l-1.27-.3a3.04 3.04 0 0 1-1.54-.77 1.87 1.87 0 0 1-.5-1.32c0-.43.13-.81.37-1.14.25-.33.58-.6 1-.78.43-.2.9-.29 1.44-.29.76 0 1.35.17 1.78.5.44.33.75.77.93 1.31ZM400.7 55v-7.64h1.17V55h-1.17Zm.6-8.9a.83.83 0 0 1-.6-.24.75.75 0 0 1-.24-.56c0-.22.08-.41.25-.57a.83.83 0 0 1 .59-.23c.23 0 .42.08.58.23.17.16.25.35.25.57 0 .21-.08.4-.25.56a.82.82 0 0 1-.58.23Zm8.13 2.97-1.05.3a1.95 1.95 0 0 0-.3-.51c-.12-.17-.3-.3-.51-.42-.22-.1-.5-.16-.84-.16a2 2 0 0 0-1.17.32c-.3.21-.46.48-.46.81 0 .3.1.52.31.7.22.16.55.3 1 .42l1.13.27c.69.17 1.2.42 1.53.76.33.34.5.78.5 1.31 0 .44-.13.83-.38 1.18-.25.34-.6.61-1.04.81-.45.2-.97.3-1.56.3-.78 0-1.42-.17-1.94-.5a2.25 2.25 0 0 1-.96-1.49l1.1-.28c.11.41.31.72.61.93.3.2.69.3 1.17.3.55 0 .98-.11 1.3-.34.33-.24.49-.52.49-.85a.9.9 0 0 0-.28-.66 1.78 1.78 0 0 0-.85-.41l-1.28-.3a3.04 3.04 0 0 1-1.54-.77 1.87 1.87 0 0 1-.49-1.32c0-.43.13-.81.37-1.14.24-.33.57-.6 1-.78.42-.2.9-.29 1.44-.29.75 0 1.35.17 1.78.5.43.33.74.77.92 1.31Zm9.17-1.7v.99h-3.96v-1h3.96Zm-2.8-1.84h1.16v7.28c0 .33.05.58.15.75.1.16.22.27.38.33.15.05.32.08.49.08l.32-.02.2-.04.24 1.05a2.33 2.33 0 0 1-.88.14c-.33 0-.66-.07-.97-.21a1.94 1.94 0 0 1-.79-.66 1.9 1.9 0 0 1-.3-1.1v-7.6Zm5.9 4.88V55h-1.18V44.82h1.18v3.74h.1c.18-.4.44-.71.8-.94a2.6 2.6 0 0 1 1.44-.36c.52 0 .98.1 1.37.32.4.2.7.52.91.95.22.42.33.96.33 1.62V55h-1.17v-4.77c0-.6-.16-1.08-.48-1.41-.3-.33-.74-.5-1.3-.5-.38 0-.72.08-1.03.24-.3.16-.54.4-.71.71-.17.31-.26.7-.26 1.14Zm10.3 4.75a3.27 3.27 0 0 1-3.13-1.86 4.68 4.68 0 0 1-.43-2.06c0-.78.14-1.47.43-2.07a3.23 3.23 0 0 1 3.01-1.9c.4 0 .79.06 1.18.2a2.92 2.92 0 0 1 1.82 1.81 5 5 0 0 1 .28 1.8v.5h-5.89v-1.01h4.7c0-.44-.09-.82-.26-1.16a1.95 1.95 0 0 0-1.83-1.1 2.23 2.23 0 0 0-2 1.26c-.18.36-.27.75-.27 1.17v.68c0 .58.1 1.07.3 1.47.2.4.48.7.84.9.36.21.77.32 1.25.32.3 0 .58-.05.83-.13.25-.1.47-.23.66-.4.18-.18.32-.4.42-.67l1.13.32a2.5 2.5 0 0 1-.6 1.01c-.28.3-.63.52-1.05.68-.4.16-.88.24-1.4.24Zm12.18-.16h-3.14V44.82h3.28c.99 0 1.84.2 2.54.61a4 4 0 0 1 1.61 1.74c.38.76.57 1.67.57 2.72 0 1.06-.2 1.97-.57 2.74a4.04 4.04 0 0 1-1.65 1.76c-.72.4-1.6.61-2.64.61Zm-1.9-1.1h1.82c.85 0 1.54-.16 2.1-.48a3 3 0 0 0 1.24-1.39c.27-.6.4-1.31.4-2.14 0-.82-.13-1.53-.4-2.12a2.97 2.97 0 0 0-1.2-1.38 3.8 3.8 0 0 0-2-.48h-1.97v8Zm8.82 1.1V44.82h6.15v1.1h-4.91v3.43h4.6v1.1h-4.6v3.46h4.99V55h-6.23Zm8.37 0V44.82h6.1v1.1h-4.87v3.43h4.42v1.1h-4.42V55h-1.23Zm7.36 0h-1.29l3.74-10.18h1.27L474.3 55H473l-3.03-8.57h-.08L466.83 55Zm.48-3.98h5.21v1.1h-5.2v-1.1Zm15.25-6.2h1.23v6.74a3.45 3.45 0 0 1-1.87 3.15c-.59.31-1.29.47-2.09.47a4.4 4.4 0 0 1-2.08-.47 3.48 3.48 0 0 1-1.38-1.29 3.58 3.58 0 0 1-.5-1.86v-6.74h1.24v6.64c0 .5.11.94.33 1.33.22.38.53.69.93.9.41.23.9.34 1.46.34.57 0 1.06-.11 1.47-.33.4-.22.72-.53.93-.91.22-.39.33-.83.33-1.33v-6.64Zm3.7 10.18V44.82h1.23v9.09h4.73V55h-5.97Zm5.96-9.09v-1.1h7.63v1.1h-3.2V55h-1.23v-9.09h-3.2ZM280.07 77v-7.64h1.14v1.2h.1c.16-.41.41-.73.77-.95.35-.23.78-.35 1.28-.35a2.14 2.14 0 0 1 2.05 1.3h.07c.2-.4.5-.71.88-.94.4-.24.86-.36 1.41-.36.68 0 1.24.22 1.68.65.43.42.65 1.08.65 1.98V77h-1.18v-5.11c0-.56-.15-.97-.46-1.2-.3-.25-.67-.37-1.09-.37-.54 0-.95.16-1.25.49-.3.32-.44.72-.44 1.22V77h-1.2v-5.23c0-.43-.13-.78-.41-1.05-.29-.27-.65-.4-1.1-.4-.3 0-.58.08-.85.24a1.8 1.8 0 0 0-.63.68 2 2 0 0 0-.24.99V77h-1.18Zm14.42.18c-.49 0-.92-.1-1.32-.27-.4-.19-.7-.46-.94-.8a2.26 2.26 0 0 1-.35-1.28c0-.44.09-.79.26-1.06.18-.28.4-.5.7-.65.28-.15.6-.27.95-.35.35-.08.7-.14 1.06-.18l1.13-.14c.29-.03.5-.09.63-.16.14-.08.2-.21.2-.4v-.04c0-.5-.13-.87-.4-1.14-.26-.28-.67-.41-1.2-.41a2.1 2.1 0 0 0-1.99 1.15l-1.12-.4a2.73 2.73 0 0 1 1.9-1.63 4.54 4.54 0 0 1 2.01-.07c.32.06.63.18.93.36.3.18.55.45.75.8.2.37.3.85.3 1.46V77h-1.17v-1.03h-.06a2.29 2.29 0 0 1-1.14 1.01c-.31.13-.69.2-1.13.2Zm.18-1.06c.46 0 .85-.09 1.17-.27a1.86 1.86 0 0 0 .98-1.61v-1.08c-.05.06-.16.12-.33.17a5.55 5.55 0 0 1-1.21.21l-.5.06c-.3.04-.58.1-.85.2-.26.08-.47.21-.63.39a1 1 0 0 0-.24.7c0 .41.15.72.45.93.3.2.7.3 1.16.3Zm6.34-6.76 1.82 3.13 1.84-3.13h1.35l-2.47 3.82 2.47 3.82h-1.35l-1.84-2.96-1.82 2.96h-1.36l2.43-3.82-2.43-3.82h1.36ZM309.7 77l-2.78-10.18h1.25l2.13 8.3h.1l2.16-8.3h1.4l2.16 8.3h.1l2.13-8.3h1.25L316.82 77h-1.27l-2.25-8.11h-.08L310.97 77h-1.27Zm11.28 0v-7.64h1.17V77h-1.17Zm.6-8.9a.83.83 0 0 1-.6-.24.75.75 0 0 1-.24-.56c0-.22.08-.41.25-.57a.83.83 0 0 1 .59-.23c.23 0 .42.08.58.23.17.16.25.35.25.57 0 .21-.08.4-.25.56a.82.82 0 0 1-.58.23Zm5.6 9.06a2.99 2.99 0 0 1-2.82-1.86 4.86 4.86 0 0 1-.42-2.1c0-.8.14-1.5.42-2.09a3.03 3.03 0 0 1 2.85-1.85c.5 0 .89.09 1.17.25.3.17.52.35.67.56.16.2.28.37.36.5h.1v-3.75h1.18V77h-1.14v-1.17h-.14c-.08.14-.2.31-.37.52-.15.21-.38.4-.68.57-.3.16-.68.24-1.17.24Zm.17-1.05c.47 0 .86-.13 1.19-.37.32-.25.57-.6.74-1.03.17-.44.25-.95.25-1.53 0-.57-.08-1.07-.25-1.5a1.96 1.96 0 0 0-1.94-1.37c-.5 0-.9.14-1.24.4-.33.24-.57.59-.74 1.02a4.1 4.1 0 0 0-.24 1.45c0 .55.08 1.04.25 1.48.17.44.41.8.74 1.06s.74.39 1.24.39Zm8.97-6.75v1h-3.96v-1h3.96Zm-2.8-1.83h1.17v7.28c0 .33.05.58.14.75.1.16.23.27.38.33.16.05.32.08.5.08l.31-.02.2-.04.24 1.05a2.41 2.41 0 0 1-.88.14c-.33 0-.65-.07-.97-.21a1.94 1.94 0 0 1-.79-.66 1.9 1.9 0 0 1-.3-1.1v-7.6Zm5.9 4.88V77h-1.17V66.82h1.17v3.74h.1c.18-.4.45-.71.8-.94a2.6 2.6 0 0 1 1.45-.36c.52 0 .97.1 1.37.32.39.2.69.52.9.95.22.42.33.96.33 1.62V77h-1.17v-4.77a2 2 0 0 0-.47-1.41c-.31-.33-.75-.5-1.3-.5-.38 0-.73.08-1.04.24-.3.16-.53.4-.71.71a2.3 2.3 0 0 0-.26 1.14Z" fill="#fff"/></g><g filter="url(#c)"><path d="m336.1 174 4.9 5h-10l5.1-5Z" fill="#333"/><rect x="136" y="179" width="400" height="48" rx="4" fill="#333"/><path d="M148.68 190v-.9c0-.27.04-.56.14-.86.1-.3.24-.6.43-.89.19-.29.41-.54.68-.75l.63.52c-.2.3-.39.6-.54.93-.15.32-.23.67-.23 1.03v.92h-1.11Zm4.36-3.18V197h-1.18v-10.18h1.18Zm5.23 13.2a4.2 4.2 0 0 1-1.46-.22 3.1 3.1 0 0 1-1.66-1.3l.93-.66c.1.13.24.3.4.47a2 2 0 0 0 .67.47c.28.14.66.2 1.12.2a2.5 2.5 0 0 0 1.52-.44c.4-.3.6-.76.6-1.4v-1.55h-.1c-.08.14-.2.31-.36.51-.16.2-.38.39-.68.55-.29.15-.68.23-1.18.23a3.07 3.07 0 0 1-2.82-1.71 4.45 4.45 0 0 1-.42-2.03c0-.78.13-1.46.41-2.04a3.04 3.04 0 0 1 2.85-1.83c.5 0 .89.08 1.18.24.3.17.52.35.68.56l.37.5h.12v-1.2h1.13v7.85c0 .66-.15 1.19-.45 1.6-.3.41-.7.72-1.2.9-.49.2-1.04.3-1.65.3Zm-.04-4.2c.47 0 .87-.1 1.2-.32.32-.21.56-.52.73-.93.17-.4.25-.88.25-1.45 0-.55-.08-1.03-.24-1.46a2.2 2.2 0 0 0-.74-.98 1.97 1.97 0 0 0-1.2-.36 2 2 0 0 0-1.99 1.39c-.16.42-.24.9-.24 1.41 0 .53.08 1 .25 1.4.17.41.42.73.75.96.33.23.74.35 1.23.35Zm6.52-9v.9a3.58 3.58 0 0 1-1.25 2.5l-.64-.52c.21-.3.4-.6.54-.93.16-.32.24-.67.24-1.04v-.91h1.11Zm5.97 4.15v-1.07h6.12v1.07h-6.13Zm0 2.95v-1.08h6.12v1.08h-6.13Zm12.43 1v-1.02l4.47-7.08h.74v1.57h-.5l-3.38 5.35v.08h6.02v1.1h-7.35Zm4.79 2.08v-10.18h1.17V197h-1.17Zm7.75.14c-.75 0-1.39-.2-1.92-.61-.52-.41-.93-1-1.2-1.79a8.5 8.5 0 0 1-.42-2.83c0-1.1.14-2.04.41-2.82.29-.78.7-1.38 1.22-1.79a3.01 3.01 0 0 1 1.9-.62c.75 0 1.38.2 1.91.62.53.41.94 1 1.22 1.79.28.78.42 1.72.42 2.82a8.5 8.5 0 0 1-.42 2.83 3.83 3.83 0 0 1-1.2 1.79c-.54.4-1.17.6-1.92.6Zm0-1.1c.74 0 1.32-.35 1.73-1.07.4-.71.61-1.73.61-3.06 0-.88-.09-1.63-.28-2.25a3.09 3.09 0 0 0-.8-1.42 1.78 1.78 0 0 0-1.26-.49c-.74 0-1.31.37-1.73 1.1a6.23 6.23 0 0 0-.62 3.06c0 .88.1 1.63.28 2.25.19.61.45 1.08.8 1.4.35.32.77.48 1.27.48Zm8.75 1.1c-.75 0-1.39-.2-1.92-.61-.52-.41-.93-1-1.2-1.79a8.5 8.5 0 0 1-.42-2.83c0-1.1.14-2.04.41-2.82.29-.78.7-1.38 1.22-1.79a3.01 3.01 0 0 1 1.9-.62c.75 0 1.38.2 1.91.62.53.41.94 1 1.22 1.79.28.78.42 1.72.42 2.82a8.5 8.5 0 0 1-.42 2.83 3.83 3.83 0 0 1-1.2 1.79c-.54.4-1.17.6-1.92.6Zm0-1.1c.74 0 1.32-.35 1.73-1.07.4-.71.61-1.73.61-3.06 0-.88-.09-1.63-.28-2.25a3.09 3.09 0 0 0-.8-1.42 1.78 1.78 0 0 0-1.26-.49c-.74 0-1.31.37-1.73 1.1a6.23 6.23 0 0 0-.62 3.06c0 .88.1 1.63.28 2.25.19.61.45 1.08.8 1.4.35.32.77.48 1.27.48Zm5.45 3.82v-10.5h1.13v1.22h.14l.36-.51c.15-.2.38-.4.66-.56.3-.16.69-.25 1.19-.25a3.04 3.04 0 0 1 2.84 1.85c.28.6.42 1.29.42 2.1 0 .8-.14 1.5-.41 2.1a3 3 0 0 1-2.83 1.85 2.18 2.18 0 0 1-1.86-.8 7.52 7.52 0 0 1-.37-.53h-.1v4.03h-1.17Zm1.15-6.68c0 .58.08 1.09.25 1.53.17.44.42.78.74 1.03.33.24.73.36 1.2.36.49 0 .9-.12 1.23-.38.33-.26.57-.62.74-1.06.17-.44.26-.94.26-1.48 0-.53-.09-1.02-.25-1.45a2.27 2.27 0 0 0-.75-1.03 1.96 1.96 0 0 0-1.23-.38 1.96 1.96 0 0 0-1.94 1.37 4 4 0 0 0-.25 1.5Zm7.94-3.82 1.83 3.13 1.83-3.13h1.35l-2.47 3.82L224 197h-1.35l-1.83-2.96-1.83 2.96h-1.35l2.42-3.82-2.42-3.82h1.35Zm10.22-1.45v-1.1h7.64v1.1h-3.2V197h-1.23v-9.09h-3.2Zm10.56 4.5V197h-1.18v-10.18h1.18v3.74h.1c.17-.4.44-.71.8-.94.36-.24.84-.36 1.44-.36.52 0 .98.1 1.37.32.4.2.7.52.91.95.22.42.33.96.33 1.62V197h-1.18v-4.77c0-.6-.15-1.08-.47-1.41-.3-.33-.74-.5-1.3-.5-.38 0-.72.08-1.03.24-.3.16-.54.4-.72.71-.17.31-.25.7-.25 1.14Zm7.1 4.59v-7.64h1.17V197h-1.18Zm.6-8.9a.83.83 0 0 1-.6-.24.75.75 0 0 1-.24-.57c0-.21.08-.4.24-.56a.83.83 0 0 1 .6-.23c.22 0 .42.08.58.23.16.16.25.35.25.56 0 .22-.09.41-.25.57a.82.82 0 0 1-.59.23Zm8.13 2.97-1.06.3a1.95 1.95 0 0 0-.3-.51 1.5 1.5 0 0 0-.5-.42c-.23-.1-.5-.16-.85-.16a2 2 0 0 0-1.17.32c-.3.21-.46.48-.46.81 0 .3.1.52.32.7.21.16.54.3 1 .42l1.13.27c.68.17 1.19.42 1.52.76.34.34.5.78.5 1.31 0 .44-.12.83-.37 1.17-.25.35-.6.62-1.05.82-.44.2-.96.3-1.56.3-.78 0-1.42-.17-1.93-.5a2.25 2.25 0 0 1-.97-1.49l1.11-.28c.1.41.31.72.6.93.3.2.7.3 1.17.3.55 0 .98-.11 1.3-.34.33-.24.5-.52.5-.85 0-.26-.1-.49-.29-.66a1.76 1.76 0 0 0-.85-.41l-1.27-.3a3.04 3.04 0 0 1-1.55-.77 1.86 1.86 0 0 1-.48-1.32c0-.43.12-.81.36-1.14.25-.33.58-.6 1-.78.42-.2.9-.29 1.44-.29.76 0 1.35.17 1.78.5.44.33.74.77.93 1.31Zm5.84 5.93v-7.64h1.17V197h-1.17Zm.6-8.9a.83.83 0 0 1-.6-.24.75.75 0 0 1-.24-.57c0-.21.08-.4.24-.56a.83.83 0 0 1 .6-.23c.23 0 .42.08.58.23.17.16.25.35.25.56 0 .22-.08.41-.25.57a.82.82 0 0 1-.58.23Zm8.13 2.97-1.05.3a1.96 1.96 0 0 0-.3-.51c-.12-.17-.3-.3-.51-.42-.22-.1-.5-.16-.84-.16a2 2 0 0 0-1.17.32c-.31.21-.47.48-.47.81 0 .3.11.52.32.7.22.16.55.3 1 .42l1.13.27c.68.17 1.2.42 1.53.76.33.34.5.78.5 1.31 0 .44-.13.83-.38 1.17-.25.35-.6.62-1.04.82-.45.2-.97.3-1.56.3-.78 0-1.43-.17-1.94-.5a2.25 2.25 0 0 1-.97-1.49l1.12-.28c.1.41.3.72.6.93.3.2.69.3 1.17.3.54 0 .98-.11 1.3-.34.32-.24.49-.52.49-.85a.9.9 0 0 0-.28-.66 1.76 1.76 0 0 0-.86-.41l-1.27-.3a3.04 3.04 0 0 1-1.54-.77 1.87 1.87 0 0 1-.49-1.32c0-.43.12-.81.37-1.14.24-.33.57-.6 1-.78.42-.2.9-.29 1.44-.29.75 0 1.35.17 1.78.5.43.33.74.77.92 1.31Zm9.16-1.7v.99h-3.95v-1h3.95Zm-2.8-1.84h1.17v7.28c0 .33.05.58.15.75.1.16.22.27.38.33.15.05.32.08.49.08l.32-.02.2-.04.23 1.05a2.41 2.41 0 0 1-.87.14c-.33 0-.66-.07-.98-.21a1.94 1.94 0 0 1-.78-.66 1.9 1.9 0 0 1-.3-1.1v-7.6Zm5.9 4.88V197h-1.17v-10.18h1.18v3.74h.1c.18-.4.44-.71.8-.94a2.6 2.6 0 0 1 1.44-.36c.52 0 .98.1 1.37.32.4.2.7.52.91.95.22.42.33.96.33 1.62V197h-1.18v-4.77c0-.6-.15-1.08-.47-1.41-.3-.33-.74-.5-1.3-.5-.38 0-.72.08-1.03.24-.3.16-.54.4-.71.71-.18.31-.26.7-.26 1.14Zm10.3 4.75a3.27 3.27 0 0 1-3.13-1.86 4.68 4.68 0 0 1-.42-2.06c0-.78.14-1.47.43-2.07a3.23 3.23 0 0 1 3.01-1.9c.4 0 .79.06 1.18.2a2.94 2.94 0 0 1 1.81 1.81 5 5 0 0 1 .29 1.8v.5H290v-1.02h4.7c0-.43-.1-.81-.26-1.15a1.94 1.94 0 0 0-1.83-1.1c-.47 0-.87.12-1.22.36-.33.23-.6.52-.78.9-.18.36-.27.75-.27 1.17v.68c0 .58.1 1.07.3 1.47.2.4.48.7.84.9.36.21.77.31 1.25.31.3 0 .58-.04.83-.12a1.72 1.72 0 0 0 1.08-1.07l1.13.32a2.5 2.5 0 0 1-.6 1.01c-.28.3-.63.52-1.05.68-.41.16-.88.24-1.4.24Zm12.21-7.8v1h-3.95v-1h3.95Zm-2.8-1.83h1.17v7.28c0 .33.05.58.14.75.1.16.23.27.38.33.16.05.32.08.5.08l.31-.02.2-.04.24 1.05a2.34 2.34 0 0 1-.87.14c-.33 0-.66-.07-.98-.21a1.94 1.94 0 0 1-.78-.66 1.9 1.9 0 0 1-.31-1.1v-7.6Zm7.59 9.63c-.7 0-1.3-.16-1.82-.5a3.34 3.34 0 0 1-1.21-1.37 4.66 4.66 0 0 1-.43-2.07c0-.8.14-1.49.43-2.08.3-.6.7-1.05 1.21-1.38.52-.33 1.13-.5 1.82-.5a3.24 3.24 0 0 1 3.02 1.88c.3.6.44 1.29.44 2.08s-.15 1.48-.44 2.07a3.3 3.3 0 0 1-1.21 1.38 3.3 3.3 0 0 1-1.81.49Zm0-1.06a2 2 0 0 0 1.29-.4c.34-.27.59-.62.75-1.06a4.25 4.25 0 0 0 0-2.85 2.4 2.4 0 0 0-.75-1.06 2 2 0 0 0-1.3-.41 2 2 0 0 0-1.28.4 2.4 2.4 0 0 0-.76 1.07 4.2 4.2 0 0 0 0 2.85c.17.44.42.8.75 1.06a2 2 0 0 0 1.3.4Zm8.35 1.06a3.2 3.2 0 0 1-1.81-.5 3.34 3.34 0 0 1-1.22-1.37 4.66 4.66 0 0 1-.43-2.07c0-.8.14-1.49.43-2.08a3.3 3.3 0 0 1 3.03-1.88 3.28 3.28 0 0 1 3.02 1.88c.3.6.44 1.29.44 2.08s-.14 1.48-.44 2.07a3.26 3.26 0 0 1-1.21 1.38 3.3 3.3 0 0 1-1.8.49Zm0-1.06c.52 0 .95-.13 1.3-.4.33-.27.58-.62.74-1.06a4.1 4.1 0 0 0 0-2.85 2.4 2.4 0 0 0-.75-1.06 2 2 0 0 0-1.29-.41 2 2 0 0 0-1.3.4c-.33.28-.58.63-.74 1.07a4.1 4.1 0 0 0-.25 1.43c0 .51.09.99.25 1.42.16.44.41.8.75 1.06.34.27.77.4 1.3.4Zm6.43-9.28V197h-1.18v-10.18h1.18Zm5.46 2.54v1h-3.95v-1h3.95Zm-2.8-1.83h1.17v7.28c0 .33.05.58.15.75.1.16.22.27.38.33.15.05.32.08.49.08l.32-.02.2-.04.23 1.05a2.34 2.34 0 0 1-.87.14c-.33 0-.66-.07-.98-.21a1.94 1.94 0 0 1-.78-.66 1.9 1.9 0 0 1-.3-1.1v-7.6Zm4.57 9.47v-7.64h1.17V197h-1.17Zm.6-8.9a.83.83 0 0 1-.6-.24.75.75 0 0 1-.24-.57c0-.21.08-.4.25-.56a.83.83 0 0 1 .59-.23c.23 0 .42.08.58.23.17.16.25.35.25.56 0 .22-.08.41-.25.57a.82.82 0 0 1-.58.23Zm2.72 11.76v-10.5h1.14v1.22h.13l.36-.51c.16-.2.38-.4.67-.56.3-.16.69-.25 1.18-.25a3.04 3.04 0 0 1 2.85 1.85c.28.6.41 1.29.41 2.1 0 .8-.13 1.5-.4 2.1a3 3 0 0 1-2.83 1.85 2.18 2.18 0 0 1-1.86-.8 7.52 7.52 0 0 1-.38-.53h-.1v4.03h-1.17Zm1.16-6.68c0 .58.08 1.09.25 1.53.17.44.42.78.74 1.03.32.24.72.36 1.2.36s.9-.12 1.22-.38c.33-.26.58-.62.75-1.06.17-.44.25-.94.25-1.48 0-.53-.08-1.02-.25-1.45-.16-.43-.4-.78-.74-1.03a1.96 1.96 0 0 0-1.24-.38 1.96 1.96 0 0 0-1.94 1.37c-.16.42-.24.92-.24 1.5Zm14.41 3.98a3.3 3.3 0 0 1-1.85-.5 3.3 3.3 0 0 1-1.19-1.4 4.72 4.72 0 0 1-.42-2.04c0-.77.15-1.46.43-2.05a3.23 3.23 0 0 1 3.01-1.9c.54 0 1.02.1 1.45.3a2.6 2.6 0 0 1 1.57 2.09h-1.17a1.78 1.78 0 0 0-1.83-1.33 1.9 1.9 0 0 0-1.2.35c-.34.23-.6.56-.8 1a3.7 3.7 0 0 0-.28 1.5c0 .6.09 1.1.28 1.54a2.06 2.06 0 0 0 2 1.38c.3 0 .58-.05.83-.15a1.71 1.71 0 0 0 1-1.18h1.18a2.72 2.72 0 0 1-1.52 2.08c-.43.2-.92.3-1.49.3Zm7.82 0a3.2 3.2 0 0 1-1.81-.5 3.34 3.34 0 0 1-1.21-1.37 4.66 4.66 0 0 1-.44-2.07c0-.8.15-1.49.44-2.08.29-.6.7-1.05 1.2-1.38.53-.33 1.13-.5 1.82-.5a3.3 3.3 0 0 1 3.02 1.87c.3.6.44 1.3.44 2.1 0 .78-.14 1.47-.43 2.06-.3.59-.7 1.05-1.22 1.38a3.3 3.3 0 0 1-1.8.49Zm0-1.06c.53 0 .96-.13 1.3-.4.33-.27.58-.62.75-1.06a4.25 4.25 0 0 0 0-2.85 2.4 2.4 0 0 0-.75-1.06 2 2 0 0 0-1.3-.41 2 2 0 0 0-1.29.4c-.34.28-.59.63-.75 1.07a4.1 4.1 0 0 0-.24 1.43c0 .51.08.99.24 1.42.16.44.41.8.75 1.06.34.27.77.4 1.3.4Zm6.43-3.7v4.6h-1.18v-7.64h1.14v1.2h.1c.18-.4.45-.7.81-.94.37-.24.84-.36 1.41-.36.52 0 .98.11 1.36.32.39.21.7.53.9.96.22.42.33.96.33 1.6V197h-1.17v-4.77c0-.6-.16-1.07-.47-1.4a1.65 1.65 0 0 0-1.28-.51c-.38 0-.71.08-1 .24-.3.16-.53.4-.7.71-.17.31-.25.7-.25 1.14Zm10.33-3.04v1h-3.95v-1h3.95Zm-2.8-1.83h1.18v7.28c0 .33.04.58.14.75.1.16.22.27.38.33.15.05.32.08.49.08l.32-.02.2-.04.24 1.05a2.41 2.41 0 0 1-.88.14c-.33 0-.66-.07-.98-.21a1.94 1.94 0 0 1-.78-.66 1.9 1.9 0 0 1-.3-1.1v-7.6Zm7.69 9.63a3.27 3.27 0 0 1-3.13-1.86 4.68 4.68 0 0 1-.43-2.06c0-.78.14-1.47.43-2.07a3.23 3.23 0 0 1 3.01-1.9c.4 0 .8.06 1.18.2a2.93 2.93 0 0 1 1.82 1.81 5 5 0 0 1 .28 1.8v.5h-5.88v-1.02h4.69c0-.43-.09-.81-.26-1.15a1.94 1.94 0 0 0-1.83-1.1 2.2 2.2 0 0 0-1.99 1.26c-.19.36-.28.75-.28 1.17v.68c0 .58.1 1.07.3 1.47.2.4.48.7.84.9a2.8 2.8 0 0 0 2.09.19c.25-.1.46-.23.65-.4.18-.18.32-.4.42-.67l1.13.32c-.12.39-.32.72-.6 1.01-.28.3-.63.52-1.04.68-.42.16-.88.24-1.4.24Zm6.12-4.75V197h-1.17v-7.64h1.13v1.2h.1c.18-.4.45-.7.81-.94.37-.24.84-.36 1.42-.36.51 0 .97.11 1.35.32.4.21.7.53.9.96.22.42.33.96.33 1.6V197h-1.17v-4.77c0-.6-.16-1.07-.47-1.4a1.65 1.65 0 0 0-1.28-.51c-.38 0-.71.08-1 .24-.3.16-.53.4-.7.71-.16.31-.25.7-.25 1.14Zm10.34-3.05v1h-3.96v-1h3.96Zm-2.8-1.83h1.17v7.28c0 .33.04.58.14.75.1.16.23.27.38.33.15.05.32.08.5.08l.3-.02.2-.04.25 1.05a2.34 2.34 0 0 1-.88.14c-.33 0-.66-.07-.97-.21a1.94 1.94 0 0 1-.79-.66 1.9 1.9 0 0 1-.3-1.1v-7.6Zm6-.71v.9a3.62 3.62 0 0 1-1.25 2.5l-.65-.52c.21-.3.4-.6.54-.93.16-.32.24-.67.24-1.04v-.91h1.11Zm5.87 4.25-1.05.3a1.96 1.96 0 0 0-.3-.51c-.12-.17-.3-.3-.51-.42-.22-.1-.5-.16-.84-.16a2 2 0 0 0-1.17.32c-.3.21-.46.48-.46.81 0 .3.1.52.31.7.22.16.55.3 1 .42l1.13.27c.69.17 1.2.42 1.53.76.33.34.5.78.5 1.31 0 .44-.13.83-.38 1.17-.25.35-.6.62-1.04.82-.45.2-.97.3-1.56.3-.78 0-1.43-.17-1.94-.5a2.25 2.25 0 0 1-.97-1.49l1.12-.28c.1.41.3.72.6.93.3.2.69.3 1.17.3.55 0 .98-.11 1.3-.34.32-.24.49-.52.49-.85a.9.9 0 0 0-.28-.66 1.76 1.76 0 0 0-.86-.41l-1.27-.3a3.04 3.04 0 0 1-1.54-.77 1.87 1.87 0 0 1-.49-1.32c0-.43.12-.81.37-1.14.24-.33.57-.6 1-.78.42-.2.9-.29 1.44-.29.75 0 1.35.17 1.78.5.43.33.74.77.92 1.31Zm5.84 5.93v-7.64h1.14v1.2h.1c.16-.41.41-.73.77-.95.35-.23.78-.35 1.28-.35a2.14 2.14 0 0 1 2.05 1.3h.07c.2-.4.5-.71.88-.94.4-.24.86-.36 1.41-.36.68 0 1.24.22 1.68.65.43.42.65 1.08.65 1.98V197h-1.18v-5.11c0-.56-.15-.97-.46-1.2-.3-.25-.67-.37-1.09-.37-.53 0-.95.16-1.25.49-.29.32-.44.72-.44 1.22V197h-1.2v-5.23c0-.43-.13-.78-.41-1.05-.28-.27-.65-.4-1.1-.4-.3 0-.58.08-.85.24a1.8 1.8 0 0 0-.63.68 2 2 0 0 0-.24.99V197h-1.18Zm14.42.18c-.48 0-.92-.1-1.32-.27-.4-.19-.7-.46-.94-.8a2.26 2.26 0 0 1-.35-1.28c0-.44.1-.79.26-1.06.18-.28.4-.5.7-.65.28-.15.6-.27.95-.35.35-.08.7-.14 1.06-.19l1.13-.13c.29-.03.5-.09.63-.16.14-.08.2-.21.2-.4v-.04c0-.5-.13-.87-.4-1.14-.26-.28-.66-.41-1.2-.41a2.1 2.1 0 0 0-1.99 1.15l-1.12-.4a2.67 2.67 0 0 1 1.9-1.63 4.55 4.55 0 0 1 2.01-.07c.32.06.63.18.93.36.3.18.55.45.75.8.2.37.3.85.3 1.46V197h-1.17v-1.03h-.06a2.3 2.3 0 0 1-1.14 1.01c-.31.13-.69.2-1.13.2Zm.18-1.06c.46 0 .85-.09 1.17-.27a1.88 1.88 0 0 0 .98-1.61v-1.08c-.05.06-.16.12-.33.17l-.58.12a29 29 0 0 1-1.12.15c-.3.04-.6.1-.86.2-.26.08-.47.21-.63.39a1 1 0 0 0-.24.7c0 .41.15.72.45.93.3.2.7.3 1.16.3Zm6.34-6.76 1.83 3.13 1.82-3.13h1.36l-2.47 3.82 2.47 3.82h-1.36l-1.82-2.96-1.83 2.96h-1.36l2.43-3.82-2.43-3.82h1.36Zm8.69 7.64-2.78-10.18h1.25l2.13 8.3h.1l2.16-8.3h1.4l2.16 8.3h.1l2.13-8.3H451L448.21 197h-1.27l-2.25-8.11h-.08l-2.25 8.11h-1.27Zm11.28 0v-7.64h1.17V197h-1.17Zm.6-8.9a.83.83 0 0 1-.6-.24.75.75 0 0 1-.24-.57c0-.21.08-.4.25-.56a.83.83 0 0 1 .59-.23c.23 0 .42.08.58.23.17.16.25.35.25.56 0 .22-.08.41-.25.57a.82.82 0 0 1-.58.23Zm5.6 9.06a3 3 0 0 1-2.82-1.85c-.28-.6-.42-1.3-.42-2.1 0-.81.14-1.5.42-2.1a3.04 3.04 0 0 1 2.85-1.85c.5 0 .89.09 1.18.25.29.17.5.35.66.56.16.2.28.37.36.5h.1v-3.75h1.18V197h-1.14v-1.17h-.14c-.08.14-.2.31-.36.52-.16.21-.39.4-.69.56-.29.17-.68.25-1.17.25Zm.17-1.06c.47 0 .86-.12 1.19-.36.32-.25.57-.6.74-1.03.17-.44.25-.95.25-1.53 0-.57-.08-1.07-.25-1.5a1.96 1.96 0 0 0-1.94-1.37c-.5 0-.9.14-1.24.4-.32.24-.57.59-.74 1.02a4.1 4.1 0 0 0-.24 1.45c0 .54.08 1.04.25 1.48.17.44.42.8.74 1.06.33.26.75.38 1.24.38Zm8.97-6.74v1h-3.96v-1h3.96Zm-2.8-1.83h1.17v7.28c0 .33.05.58.14.75.1.16.23.27.38.33.16.05.32.08.5.08l.31-.02.2-.04.24 1.05a2.4 2.4 0 0 1-.88.14c-.33 0-.65-.07-.97-.21a1.93 1.93 0 0 1-.79-.66 1.9 1.9 0 0 1-.3-1.1v-7.6Zm5.9 4.88V197h-1.17v-10.18h1.17v3.74h.1c.18-.4.45-.71.8-.94.37-.24.85-.36 1.45-.36.52 0 .97.1 1.36.32.4.2.7.52.92.95.21.42.32.96.32 1.62V197h-1.17v-4.77a2 2 0 0 0-.47-1.41c-.31-.33-.75-.5-1.3-.5-.38 0-.73.08-1.03.24-.3.16-.54.4-.72.71-.17.31-.26.7-.26 1.14Zm14.36-3.05v1h-3.96v-1h3.96Zm-2.8-1.83h1.17v7.28c0 .33.05.58.14.75.1.16.23.27.38.33.15.05.32.08.5.08l.31-.02.2-.04.24 1.05a2.4 2.4 0 0 1-.88.14c-.33 0-.65-.07-.97-.21a1.93 1.93 0 0 1-.79-.66 1.9 1.9 0 0 1-.3-1.1v-7.6Zm5.9 4.88V197h-1.17v-10.18h1.17v3.74h.1c.18-.4.45-.71.8-.94.37-.24.85-.36 1.45-.36.52 0 .97.1 1.36.32.4.2.7.52.91.95.22.42.33.96.33 1.62V197h-1.17v-4.77a2 2 0 0 0-.47-1.41c-.31-.33-.75-.5-1.3-.5-.38 0-.73.08-1.03.24-.3.16-.55.4-.72.71-.17.31-.26.7-.26 1.14Zm9.35 4.77c-.49 0-.93-.1-1.32-.27-.4-.19-.7-.46-.94-.8a2.26 2.26 0 0 1-.35-1.28c0-.44.09-.79.26-1.06.17-.28.4-.5.69-.65.29-.15.6-.27.96-.35.35-.08.7-.14 1.05-.19l1.13-.13c.3-.03.5-.09.64-.16.13-.08.2-.21.2-.4v-.04c0-.5-.13-.87-.4-1.14-.27-.28-.67-.41-1.2-.41-.57 0-1 .12-1.33.37-.31.24-.54.5-.67.78l-1.11-.4a2.67 2.67 0 0 1 1.89-1.63 4.55 4.55 0 0 1 2.02-.07c.32.06.63.18.93.36.3.18.55.45.75.8.2.37.3.85.3 1.46V197h-1.18v-1.03h-.06a2.27 2.27 0 0 1-1.14 1.01c-.3.13-.68.2-1.12.2Zm.18-1.06c.46 0 .85-.09 1.17-.27a1.86 1.86 0 0 0 .97-1.61v-1.08a.71.71 0 0 1-.32.17l-.58.12a29.98 29.98 0 0 1-1.13.15c-.3.04-.59.1-.85.2-.26.08-.48.21-.64.39a1 1 0 0 0-.24.7c0 .41.15.72.46.93.3.2.69.3 1.16.3Zm8.78-6.76v1h-3.96v-1h3.96Zm-2.8-1.83h1.17v7.28c0 .33.05.58.14.75.1.16.23.27.38.33.16.05.32.08.5.08l.31-.02.2-.04.24 1.05a2.41 2.41 0 0 1-.88.14c-.33 0-.65-.07-.97-.21a1.94 1.94 0 0 1-.79-.66 1.9 1.9 0 0 1-.3-1.1v-7.6ZM150.8 219l-2.32-7.64h1.23l1.65 5.85h.08l1.63-5.85h1.25l1.62 5.83h.07l1.66-5.83h1.23l-2.33 7.64h-1.15l-1.67-5.87h-.12l-1.67 5.87h-1.16Zm9.65 0v-7.64h1.13v1.16h.08c.14-.38.4-.69.76-.92.36-.24.77-.36 1.23-.36a14.85 14.85 0 0 1 .62.02v1.2a3.7 3.7 0 0 0-.72-.08c-.37 0-.7.08-1 .23a1.71 1.71 0 0 0-.93 1.56V219h-1.17Zm7.46.18c-.49 0-.93-.1-1.32-.27a2.3 2.3 0 0 1-.94-.8 2.26 2.26 0 0 1-.35-1.28c0-.44.09-.79.26-1.06.17-.28.4-.5.69-.65.29-.15.6-.27.95-.35.36-.08.7-.14 1.06-.19a52 52 0 0 1 1.13-.13c.3-.03.5-.09.64-.16.13-.08.2-.21.2-.4v-.04c0-.5-.13-.87-.4-1.14-.27-.28-.67-.41-1.2-.41-.57 0-1 .12-1.33.37-.31.24-.54.5-.67.78l-1.11-.4a2.68 2.68 0 0 1 1.89-1.63 4.55 4.55 0 0 1 2.02-.07c.32.06.63.18.93.36.3.18.55.45.75.8.2.37.3.85.3 1.46V219h-1.18v-1.03h-.06a2.28 2.28 0 0 1-1.14 1.01c-.3.13-.68.2-1.13.2Zm.17-1.06c.47 0 .86-.09 1.18-.27a1.86 1.86 0 0 0 .97-1.61v-1.08c-.05.06-.16.12-.33.17l-.57.12a29.98 29.98 0 0 1-1.13.15c-.3.04-.59.1-.85.2-.26.08-.48.21-.64.39a1 1 0 0 0-.24.7c0 .41.15.72.46.93.3.2.69.3 1.15.3Zm5.47 3.74v-10.5h1.13v1.22h.14l.36-.51c.15-.2.38-.4.66-.56.3-.16.69-.25 1.19-.25a3.04 3.04 0 0 1 2.84 1.85c.28.6.42 1.29.42 2.1 0 .8-.14 1.5-.41 2.1a3 3 0 0 1-2.83 1.85 2.18 2.18 0 0 1-1.86-.8 7.52 7.52 0 0 1-.37-.53h-.1v4.03h-1.17Zm1.15-6.68c0 .58.08 1.09.25 1.53.17.44.42.78.74 1.03.33.24.73.36 1.2.36.49 0 .9-.12 1.23-.38.33-.26.57-.62.74-1.06.17-.44.25-.94.25-1.48 0-.53-.08-1.02-.24-1.45a2.27 2.27 0 0 0-.75-1.03 1.96 1.96 0 0 0-1.23-.38 1.96 1.96 0 0 0-1.94 1.37 4 4 0 0 0-.25 1.5Zm12.79-2.1-1.06.3a1.95 1.95 0 0 0-.29-.52c-.13-.17-.3-.3-.52-.42-.22-.1-.5-.16-.84-.16a2 2 0 0 0-1.17.32c-.3.21-.46.48-.46.81 0 .3.1.52.32.7.21.16.54.3 1 .42l1.13.27c.68.17 1.19.42 1.52.76.34.34.5.78.5 1.31 0 .44-.12.83-.37 1.17-.25.35-.6.62-1.05.82-.44.2-.96.3-1.56.3-.78 0-1.42-.17-1.93-.5a2.25 2.25 0 0 1-.97-1.49l1.11-.28c.1.41.31.72.6.93.3.2.7.3 1.17.3.55 0 .98-.11 1.3-.34.33-.24.5-.52.5-.85a.9.9 0 0 0-.28-.66 1.77 1.77 0 0 0-.86-.41l-1.27-.3a3.03 3.03 0 0 1-1.54-.77 1.86 1.86 0 0 1-.5-1.32c0-.43.13-.81.37-1.14.25-.33.58-.6 1-.78.42-.2.9-.29 1.44-.29.76 0 1.35.17 1.78.5.44.33.75.77.93 1.31Zm9.16-1.72v1h-3.96v-1h3.96Zm-2.8-1.83h1.17v7.28c0 .33.05.58.14.75.1.16.23.27.38.33.16.05.32.08.5.08l.31-.02.2-.04.24 1.05a2.41 2.41 0 0 1-.88.14c-.33 0-.65-.07-.97-.21a1.94 1.94 0 0 1-.78-.66 1.83 1.83 0 0 1-.31-1.1v-7.6Zm5.9 4.88V219h-1.17v-10.18h1.17v3.74h.1c.18-.4.45-.71.8-.94.37-.24.85-.36 1.45-.36.52 0 .98.1 1.37.32.39.2.7.52.9.95.22.42.34.96.34 1.62V219h-1.18v-4.77a2 2 0 0 0-.47-1.41c-.31-.33-.75-.5-1.3-.5-.38 0-.73.08-1.03.24-.3.16-.54.4-.72.71a2.3 2.3 0 0 0-.26 1.14Zm10.3 4.75a3.27 3.27 0 0 1-3.13-1.86 4.68 4.68 0 0 1-.43-2.06c0-.78.15-1.47.43-2.07a3.23 3.23 0 0 1 3.01-1.9c.4 0 .8.06 1.18.2a2.93 2.93 0 0 1 1.82 1.81 5 5 0 0 1 .28 1.8v.5h-5.88v-1.02h4.7c0-.43-.1-.81-.27-1.15a1.94 1.94 0 0 0-1.83-1.1 2.22 2.22 0 0 0-1.99 1.26c-.18.36-.27.75-.27 1.17v.68c0 .58.1 1.07.3 1.47.2.4.48.7.84.9.35.21.77.31 1.24.31.31 0 .59-.04.84-.12.25-.1.47-.23.65-.4.18-.18.32-.4.42-.67l1.14.32c-.12.39-.32.72-.6 1.01-.29.3-.64.52-1.05.68-.41.16-.88.24-1.4.24Zm12.2-7.8v1h-3.95v-1h3.96Zm-2.8-1.83h1.18v7.28c0 .33.05.58.14.75.1.16.23.27.38.33.16.05.32.08.5.08l.31-.02.2-.04.24 1.05a2.34 2.34 0 0 1-.88.14c-.33 0-.65-.07-.97-.21a1.94 1.94 0 0 1-.79-.66 1.9 1.9 0 0 1-.3-1.1v-7.6Zm7.7 9.63a3.27 3.27 0 0 1-3.13-1.86 4.68 4.68 0 0 1-.44-2.06c0-.78.15-1.47.43-2.07a3.23 3.23 0 0 1 3.01-1.9c.4 0 .8.06 1.18.2a2.94 2.94 0 0 1 1.82 1.81 5 5 0 0 1 .28 1.8v.5h-5.88v-1.02h4.7c0-.43-.1-.81-.27-1.15a1.94 1.94 0 0 0-1.83-1.1 2.2 2.2 0 0 0-1.99 1.26c-.18.36-.27.75-.27 1.17v.68c0 .58.1 1.07.3 1.47.2.4.48.7.84.9.35.21.77.31 1.24.31.31 0 .59-.04.84-.12.25-.1.47-.23.65-.4.18-.18.32-.4.42-.67l1.13.32a2.5 2.5 0 0 1-.6 1.01c-.28.3-.63.52-1.04.68-.41.16-.88.24-1.4.24Zm5.6-7.8 1.84 3.13 1.83-3.13h1.35l-2.47 3.82 2.47 3.82h-1.35l-1.83-2.96-1.83 2.96h-1.35l2.42-3.82-2.42-3.82h1.35Zm10.02 0v1h-3.96v-1h3.96Zm-2.8-1.83h1.16v7.28c0 .33.05.58.15.75.1.16.22.27.38.33.15.05.32.08.49.08l.32-.02.2-.04.24 1.05a2.34 2.34 0 0 1-.88.14c-.33 0-.66-.07-.97-.21a1.94 1.94 0 0 1-.79-.66 1.9 1.9 0 0 1-.3-1.1v-7.6Zm8.5 9.47v-7.64h1.17V219h-1.17Zm.6-8.9a.83.83 0 0 1-.6-.24.75.75 0 0 1-.24-.57c0-.21.08-.4.24-.56a.83.83 0 0 1 .6-.23c.22 0 .42.08.58.23.17.16.25.35.25.56 0 .22-.08.41-.25.57a.82.82 0 0 1-.59.23Zm3.9 4.3v4.6h-1.18v-7.64h1.13v1.2h.1c.18-.4.45-.7.82-.94a2.5 2.5 0 0 1 1.41-.36c.52 0 .97.11 1.36.32.39.21.69.53.9.96.22.42.33.96.33 1.6V219h-1.18v-4.77c0-.6-.15-1.07-.47-1.4-.3-.34-.73-.51-1.28-.51-.37 0-.7.08-1 .24-.3.16-.52.4-.7.71-.16.31-.25.7-.25 1.14Zm10.95 4.6v-7.64h1.13v1.2h.1c.16-.41.42-.73.77-.95.36-.23.78-.35 1.28-.35s.92.12 1.26.35c.34.22.6.54.79.95h.08c.2-.4.49-.71.88-.94.39-.24.86-.36 1.4-.36.69 0 1.25.22 1.68.65.43.42.65 1.08.65 1.98V219h-1.17v-5.11c0-.56-.16-.97-.46-1.2a1.7 1.7 0 0 0-1.1-.37c-.53 0-.95.16-1.24.49-.3.32-.44.72-.44 1.22V219h-1.2v-5.23c0-.43-.14-.78-.42-1.05-.28-.27-.65-.4-1.09-.4-.3 0-.59.08-.85.24-.27.16-.48.39-.64.68-.16.28-.24.61-.24.99V219h-1.17Zm16.98-3.12v-4.52h1.17V219h-1.17v-1.3h-.08a2.5 2.5 0 0 1-.84 1c-.38.27-.85.4-1.43.4-.48 0-.9-.1-1.27-.31a2.2 2.2 0 0 1-.88-.96 3.63 3.63 0 0 1-.31-1.61v-4.86h1.17v4.78c0 .55.16 1 .47 1.33.31.33.71.5 1.2.5a2 2 0 0 0 1.97-2.1Zm4.5-7.06V219h-1.18v-10.18h1.17Zm5.46 2.54v1h-3.95v-1h3.95Zm-2.8-1.83h1.17v7.28c0 .33.05.58.15.75.1.16.22.27.38.33.15.05.31.08.49.08l.31-.02.2-.04.24 1.05a2.41 2.41 0 0 1-.87.14c-.33 0-.66-.07-.98-.21a1.94 1.94 0 0 1-.78-.66 1.9 1.9 0 0 1-.31-1.1v-7.6Zm4.57 9.47v-7.64h1.17V219h-1.17Zm.6-8.9a.83.83 0 0 1-.6-.24.75.75 0 0 1-.24-.57c0-.21.08-.4.24-.56a.83.83 0 0 1 .6-.23c.22 0 .42.08.58.23.17.16.25.35.25.56 0 .22-.08.41-.25.57a.82.82 0 0 1-.58.23Zm3.9-1.28V219h-1.18v-10.18h1.17Zm2.14 10.18v-7.64h1.18V219h-1.18Zm.6-8.9a.83.83 0 0 1-.6-.24.75.75 0 0 1-.24-.57.83.83 0 0 1 .84-.8c.23.01.42.09.59.24.16.16.25.35.25.56 0 .22-.09.41-.25.57a.82.82 0 0 1-.59.23Zm3.9 4.3v4.6h-1.17v-7.64h1.13v1.2h.1c.18-.4.45-.7.81-.94.37-.24.84-.36 1.42-.36.51 0 .96.11 1.35.32.4.21.7.53.9.96.22.42.33.96.33 1.6V219h-1.17v-4.77c0-.6-.16-1.07-.47-1.4a1.65 1.65 0 0 0-1.28-.51c-.38 0-.71.08-1 .24-.3.16-.53.4-.7.71-.17.31-.25.7-.25 1.14Zm10.22 4.76a3.6 3.6 0 0 1-1.9-.49 3.28 3.28 0 0 1-1.24-1.37 4.68 4.68 0 0 1-.42-2.06c0-.78.14-1.47.42-2.07.3-.6.7-1.06 1.2-1.4a3.6 3.6 0 0 1 2.99-.3 2.93 2.93 0 0 1 1.82 1.81 5 5 0 0 1 .29 1.8v.5h-5.89v-1.02h4.7c0-.43-.1-.81-.26-1.15a1.94 1.94 0 0 0-1.83-1.1c-.47 0-.87.12-1.22.36-.33.23-.6.52-.78.9-.18.36-.27.75-.27 1.17v.68c0 .58.1 1.07.3 1.47.2.4.48.7.84.9.36.21.77.31 1.25.31.3 0 .58-.04.83-.12.25-.1.47-.23.65-.4.18-.18.33-.4.43-.67l1.13.32a2.5 2.5 0 0 1-.6 1.01c-.28.3-.63.52-1.05.68-.41.16-.88.24-1.4.24Zm5.8-.08a.86.86 0 0 1-.63-.26.86.86 0 0 1-.27-.63c0-.25.1-.46.27-.64a.86.86 0 0 1 .63-.26.9.9 0 0 1 .77 1.34.93.93 0 0 1-.32.33.85.85 0 0 1-.45.12Z" fill="#fff"/></g><defs><filter id="a" x="134" y="30" width="106" height="81" filterUnits="userSpaceOnUse" color-interpolation-filters="sRGB"><feFlood flood-opacity="0" result="BackgroundImageFix"/><feColorMatrix in="SourceAlpha" values="0 0 0 0 0 0 0 0 0 0 0 0 0 0 0 0 0 0 127 0" result="hardAlpha"/><feOffset dy="2"/><feGaussianBlur stdDeviation="1.5"/><feColorMatrix values="0 0 0 0 0.2 0 0 0 0 0.2 0 0 0 0 0.2 0 0 0 0.15 0"/><feBlend in2="BackgroundImageFix" result="effect1_dropShadow_13251_3326"/><feColorMatrix in="SourceAlpha" values="0 0 0 0 0 0 0 0 0 0 0 0 0 0 0 0 0 0 127 0" result="hardAlpha"/><feOffset dy="1"/><feGaussianBlur stdDeviation="1.5"/><feColorMatrix values="0 0 0 0 0.2 0 0 0 0 0.2 0 0 0 0 0.2 0 0 0 0.1 0"/><feBlend in2="effect1_dropShadow_13251_3326" result="effect2_dropShadow_13251_3326"/><feBlend in="SourceGraphic" in2="effect2_dropShadow_13251_3326" result="shape"/></filter><filter id="b" x="264" y="30" width="256" height="60" filterUnits="userSpaceOnUse" color-interpolation-filters="sRGB"><feFlood flood-opacity="0" result="BackgroundImageFix"/><feColorMatrix in="SourceAlpha" values="0 0 0 0 0 0 0 0 0 0 0 0 0 0 0 0 0 0 127 0" result="hardAlpha"/><feOffset dy="2"/><feGaussianBlur stdDeviation="1.5"/><feColorMatrix values="0 0 0 0 0.2 0 0 0 0 0.2 0 0 0 0 0.2 0 0 0 0.15 0"/><feBlend in2="BackgroundImageFix" result="effect1_dropShadow_13251_3326"/><feColorMatrix in="SourceAlpha" values="0 0 0 0 0 0 0 0 0 0 0 0 0 0 0 0 0 0 127 0" result="hardAlpha"/><feOffset dy="1"/><feGaussianBlur stdDeviation="1.5"/><feColorMatrix values="0 0 0 0 0.2 0 0 0 0 0.2 0 0 0 0 0.2 0 0 0 0.1 0"/><feBlend in2="effect1_dropShadow_13251_3326" result="effect2_dropShadow_13251_3326"/><feBlend in="SourceGraphic" in2="effect2_dropShadow_13251_3326" result="shape"/></filter><filter id="c" x="133" y="172" width="406" height="60" filterUnits="userSpaceOnUse" color-interpolation-filters="sRGB"><feFlood flood-opacity="0" result="BackgroundImageFix"/><feColorMatrix in="SourceAlpha" values="0 0 0 0 0 0 0 0 0 0 0 0 0 0 0 0 0 0 127 0" result="hardAlpha"/><feOffset dy="2"/><feGaussianBlur stdDeviation="1.5"/><feColorMatrix values="0 0 0 0 0.2 0 0 0 0 0.2 0 0 0 0 0.2 0 0 0 0.15 0"/><feBlend in2="BackgroundImageFix" result="effect1_dropShadow_13251_3326"/><feColorMatrix in="SourceAlpha" values="0 0 0 0 0 0 0 0 0 0 0 0 0 0 0 0 0 0 127 0" result="hardAlpha"/><feOffset dy="1"/><feGaussianBlur stdDeviation="1.5"/><feColorMatrix values="0 0 0 0 0.2 0 0 0 0 0.2 0 0 0 0 0.2 0 0 0 0.1 0"/><feBlend in2="effect1_dropShadow_13251_3326" result="effect2_dropShadow_13251_3326"/><feBlend in="SourceGraphic" in2="effect2_dropShadow_13251_3326" result="shape"/></filter></defs></svg>