<svg width="672" height="228" fill="none" xmlns="http://www.w3.org/2000/svg"><path fill="#F6F6F6" d="M0 0h672v228H0z"/><path d="M43.1 36.29h-2.12a2.65 2.65 0 0 0-.94-1.62 2.53 2.53 0 0 0-.83-.43 3.24 3.24 0 0 0-2.68.33c-.48.32-.87.78-1.14 1.39-.28.6-.42 1.35-.42 2.22 0 .9.14 1.64.42 2.25.28.6.66 1.07 1.14 1.38a3.39 3.39 0 0 0 2.65.32 2.68 2.68 0 0 0 1.45-1.08c.17-.27.29-.57.35-.91h2.13a4.57 4.57 0 0 1-3.04 3.71c-.56.2-1.2.3-1.89.3a4.96 4.96 0 0 1-4.64-2.76 6.9 6.9 0 0 1-.69-3.2c0-1.26.24-2.33.7-3.22a5 5 0 0 1 4.63-2.77c.65 0 1.25.1 1.8.28a4.6 4.6 0 0 1 1.5.8 4.7 4.7 0 0 1 1.63 3.01Zm3.9-3.93V44h-2.05V32.36H47Zm4.63 11.82c-.55 0-1.05-.1-1.5-.3a2.5 2.5 0 0 1-1.04-.89 2.6 2.6 0 0 1-.38-1.44c0-.5.1-.9.27-1.22.18-.32.43-.58.75-.77.31-.2.67-.34 1.06-.44.4-.1.8-.18 1.23-.22l1.25-.14c.32-.05.55-.12.69-.2.15-.1.22-.25.22-.45v-.03c0-.43-.13-.76-.38-1-.25-.23-.62-.35-1.1-.35-.5 0-.9.11-1.2.33a1.7 1.7 0 0 0-.59.78L49 37.57a3.07 3.07 0 0 1 2.03-2.14 5.44 5.44 0 0 1 2.93-.13c.42.1.8.27 1.14.5.35.22.62.52.83.91.21.39.32.87.32 1.45V44h-1.98v-1.2h-.07a2.51 2.51 0 0 1-1.38 1.2c-.34.12-.73.19-1.19.19Zm.53-1.52c.42 0 .78-.08 1.08-.24a1.74 1.74 0 0 0 .95-1.56v-1.02a.97.97 0 0 1-.33.15l-.51.12a16.16 16.16 0 0 1-1.05.16c-.3.04-.58.1-.82.2-.25.1-.44.23-.58.4a.97.97 0 0 0-.2.65c0 .38.13.66.4.85.28.2.64.3 1.06.3Zm13.04-5.08-1.87.2a1.5 1.5 0 0 0-.8-.93 1.9 1.9 0 0 0-.8-.16c-.44 0-.8.1-1.09.28-.29.19-.43.43-.42.72 0 .26.08.46.27.62.2.16.52.3.96.4l1.49.31c.82.18 1.44.46 1.84.85.4.39.6.9.61 1.52 0 .55-.16 1.03-.48 1.45a3.1 3.1 0 0 1-1.31.98c-.56.23-1.2.35-1.94.35a4.48 4.48 0 0 1-2.57-.67 2.7 2.7 0 0 1-1.17-1.88l2-.2c.1.4.29.7.59.9.3.2.68.3 1.15.3.49 0 .88-.1 1.18-.3.3-.2.44-.45.44-.75a.8.8 0 0 0-.29-.62 2.02 2.02 0 0 0-.88-.37l-1.5-.31a3.54 3.54 0 0 1-1.85-.88 2.2 2.2 0 0 1-.6-1.58c0-.54.15-1 .44-1.4.3-.4.72-.7 1.25-.92a4.82 4.82 0 0 1 1.84-.33c1.03 0 1.83.22 2.42.65.59.44.95 1.03 1.1 1.77Zm8.79 0-1.88.2a1.5 1.5 0 0 0-.8-.93 1.9 1.9 0 0 0-.8-.16c-.44 0-.8.1-1.09.28-.28.19-.43.43-.42.72 0 .26.09.46.28.62.19.16.5.3.95.4l1.49.31c.82.18 1.44.46 1.84.85.4.39.6.9.61 1.52 0 .55-.16 1.03-.48 1.45a3.1 3.1 0 0 1-1.31.98c-.56.23-1.2.35-1.93.35a4.48 4.48 0 0 1-2.58-.67 2.7 2.7 0 0 1-1.17-1.88l2-.2c.1.4.3.7.59.9.3.2.68.3 1.15.3.49 0 .88-.1 1.18-.3.3-.2.45-.45.45-.75 0-.25-.1-.45-.3-.62a2.02 2.02 0 0 0-.88-.37l-1.49-.31a3.54 3.54 0 0 1-1.86-.88 2.2 2.2 0 0 1-.6-1.58c0-.54.15-1 .44-1.4.3-.4.72-.7 1.25-.92a4.82 4.82 0 0 1 1.84-.33c1.03 0 1.83.22 2.42.65.59.44.96 1.03 1.1 1.77Zm5.74 6.59a4.5 4.5 0 0 1-2.26-.55A3.7 3.7 0 0 1 76 42.08a5.21 5.21 0 0 1-.52-2.38c0-.9.17-1.69.52-2.37a3.87 3.87 0 0 1 3.61-2.16c.54 0 1.05.09 1.53.26s.9.44 1.27.8c.37.36.66.81.88 1.37.2.55.31 1.21.31 1.98v.63h-7.15V38.8h5.18a1.96 1.96 0 0 0-.95-1.78c-.3-.18-.64-.27-1.04-.27a2 2 0 0 0-1.1.3c-.32.2-.57.47-.75.8-.17.33-.26.69-.27 1.08v1.2c0 .52.1.95.28 1.31.19.36.45.64.78.83.33.2.72.29 1.17.29.3 0 .57-.04.81-.13.25-.08.46-.21.63-.38.18-.16.32-.37.4-.62l1.93.22a3 3 0 0 1-.7 1.33c-.33.37-.76.67-1.29.87-.53.2-1.13.31-1.8.31Zm12.52-6.59-1.87.2a1.5 1.5 0 0 0-.8-.93 1.9 1.9 0 0 0-.81-.16c-.43 0-.79.1-1.08.28-.29.19-.43.43-.43.72 0 .26.1.46.28.62.2.16.51.3.96.4l1.48.31a3.8 3.8 0 0 1 1.85.85c.4.39.6.9.6 1.52 0 .55-.16 1.03-.47 1.45a3.1 3.1 0 0 1-1.32.98c-.56.23-1.2.35-1.93.35a4.48 4.48 0 0 1-2.58-.67 2.7 2.7 0 0 1-1.16-1.88l2-.2c.1.4.29.7.58.9.3.2.68.3 1.16.3.48 0 .88-.1 1.17-.3.3-.2.45-.45.45-.75a.8.8 0 0 0-.29-.62 2.02 2.02 0 0 0-.89-.37l-1.48-.31a3.54 3.54 0 0 1-1.86-.88 2.2 2.2 0 0 1-.6-1.58c0-.54.14-1 .44-1.4.3-.4.71-.7 1.24-.92a4.82 4.82 0 0 1 1.85-.33c1.02 0 1.83.22 2.41.65.6.44.96 1.03 1.1 1.77Zm8.36 6.6c-.55 0-1.05-.1-1.49-.3-.44-.2-.79-.5-1.04-.89a2.6 2.6 0 0 1-.39-1.44c0-.5.1-.9.28-1.22.18-.32.43-.58.74-.77.32-.2.67-.34 1.06-.44.4-.1.81-.18 1.24-.22l1.24-.14c.32-.05.55-.12.7-.2.14-.1.22-.25.22-.45v-.03c0-.43-.13-.76-.38-1a1.6 1.6 0 0 0-1.1-.35c-.5 0-.9.11-1.2.33-.3.22-.49.48-.6.78l-1.91-.27a3.07 3.07 0 0 1 2.03-2.14 5.43 5.43 0 0 1 2.93-.13c.41.1.8.27 1.13.5.35.22.63.52.84.91.2.39.31.87.31 1.45V44h-1.97v-1.2h-.07a2.52 2.52 0 0 1-1.38 1.2 3.5 3.5 0 0 1-1.19.19Zm.54-1.52c.41 0 .77-.08 1.07-.24.3-.17.54-.39.7-.66.17-.27.25-.57.25-.9v-1.02a.97.97 0 0 1-.33.15l-.5.12a15.88 15.88 0 0 1-1.05.16c-.31.04-.59.1-.83.2s-.43.23-.57.4a.97.97 0 0 0-.21.65c0 .38.14.66.41.85.28.2.63.3 1.06.3Zm8.2-3.77V44h-2.06v-8.73h1.97v1.49h.1c.2-.5.52-.88.96-1.17.44-.29.99-.43 1.64-.43.6 0 1.13.13 1.58.39.45.25.8.63 1.04 1.11.25.5.37 1.09.37 1.78V44h-2.06v-5.24c0-.58-.15-1.04-.45-1.37a1.6 1.6 0 0 0-1.25-.5c-.36 0-.67.09-.96.25-.27.15-.49.38-.65.67-.15.3-.23.66-.23 1.08Zm10.93 5.26a3.3 3.3 0 0 1-3.13-2.06 5.71 5.71 0 0 1-.47-2.44c0-.97.16-1.79.48-2.46a3.34 3.34 0 0 1 4.39-1.77c.33.17.59.38.78.62.2.24.34.46.45.68h.08v-4.36h2.07V44h-2.03v-1.38h-.12c-.1.22-.26.44-.46.68a2.53 2.53 0 0 1-2.04.85Zm.57-1.68c.44 0 .81-.12 1.12-.36.3-.23.54-.57.7-1 .16-.41.23-.9.23-1.47s-.08-1.06-.23-1.48a2.09 2.09 0 0 0-.7-.97 1.8 1.8 0 0 0-1.12-.34c-.45 0-.84.12-1.14.35-.31.24-.54.57-.7 1-.15.41-.23.9-.23 1.44 0 .54.08 1.03.23 1.46.16.42.4.76.7 1 .31.24.7.37 1.14.37Zm10.24 4.8v-12h2.02v1.45h.12c.1-.22.26-.44.45-.68a2.46 2.46 0 0 1 2.04-.88 3.32 3.32 0 0 1 3.12 2.03c.33.67.49 1.49.49 2.46 0 .96-.16 1.77-.48 2.44a3.3 3.3 0 0 1-3.13 2.06 2.53 2.53 0 0 1-2.04-.85 3.9 3.9 0 0 1-.45-.67h-.08v4.64h-2.06Zm2.01-7.63c0 .56.09 1.06.24 1.48.17.42.4.76.7 1 .3.23.68.35 1.12.35.45 0 .83-.13 1.14-.37.3-.24.54-.58.7-1 .15-.43.23-.92.23-1.46 0-.55-.08-1.03-.23-1.45a2.16 2.16 0 0 0-.7-.99c-.3-.23-.69-.35-1.14-.35-.44 0-.82.11-1.12.34-.31.23-.54.56-.7.97-.16.42-.24.91-.24 1.48Zm13.55.69v-5.06h2.06V44h-2v-1.55h-.09c-.2.49-.52.89-.97 1.2-.45.3-1 .46-1.65.46a2.66 2.66 0 0 1-2.54-1.5 3.96 3.96 0 0 1-.37-1.78v-5.56h2.06v5.24c0 .55.15 1 .45 1.32.3.33.7.49 1.2.49a1.88 1.88 0 0 0 1.57-.88c.19-.3.28-.67.28-1.11Zm4.17 6.94v-12h2.03v1.45h.11c.11-.22.26-.44.45-.68a2.5 2.5 0 0 1 2.05-.88 3.33 3.33 0 0 1 3.12 2.03c.32.67.48 1.49.48 2.46 0 .96-.16 1.77-.47 2.44a3.3 3.3 0 0 1-3.13 2.06 2.53 2.53 0 0 1-2.04-.85c-.2-.24-.35-.46-.46-.67h-.08v4.64h-2.06Zm2.02-7.63c0 .56.08 1.06.24 1.48.16.42.4.76.7 1 .3.23.68.35 1.11.35.46 0 .84-.13 1.14-.37.3-.24.54-.58.7-1 .16-.43.23-.92.23-1.46 0-.55-.07-1.03-.23-1.45a2.17 2.17 0 0 0-.7-.99c-.3-.23-.68-.35-1.14-.35-.44 0-.81.11-1.12.34-.3.23-.54.56-.7.97-.15.42-.23.91-.23 1.48Zm7.98 4.36v-8.73h2.06V44h-2.06Zm1.04-9.97c-.33 0-.61-.1-.84-.32a1.04 1.04 0 0 1-.36-.79c0-.31.12-.57.36-.79.23-.22.51-.33.84-.33.33 0 .6.11.84.33a1.07 1.07 0 0 1 0 1.58c-.23.22-.51.32-.84.32Zm5.2-1.67V44h-2.07V32.36h2.06Zm9 5.22-1.87.2a1.51 1.51 0 0 0-.28-.53 1.4 1.4 0 0 0-.52-.4 1.9 1.9 0 0 0-.8-.16c-.44 0-.8.1-1.09.28-.29.19-.43.43-.43.72 0 .26.1.46.28.62.2.16.52.3.96.4l1.49.31c.82.18 1.44.46 1.84.85.4.39.6.9.61 1.52 0 .55-.16 1.03-.48 1.45a3.1 3.1 0 0 1-1.31.98c-.56.23-1.2.35-1.94.35a4.48 4.48 0 0 1-2.58-.67 2.7 2.7 0 0 1-1.16-1.88l2-.2c.1.4.29.7.59.9.3.2.67.3 1.15.3.49 0 .88-.1 1.17-.3.3-.2.45-.45.45-.75a.8.8 0 0 0-.29-.62 2.03 2.03 0 0 0-.88-.37l-1.5-.31a3.54 3.54 0 0 1-1.85-.88 2.2 2.2 0 0 1-.6-1.58c0-.54.15-1 .44-1.4.3-.4.72-.7 1.25-.92a4.83 4.83 0 0 1 1.84-.33c1.02 0 1.83.22 2.42.65.59.44.95 1.03 1.1 1.77Z" fill="#000"/><path fill="#fff" d="M32 60h608v44H32z"/><path stroke="#EBEBEB" d="M32 103.5h608"/><path d="M49.15 76.36h2.58l3.45 8.44h.14l3.45-8.44h2.58V88h-2.02v-8h-.1L56 87.98h-1.52L51.27 80h-.11v8h-2.02V76.36Zm16.92 11.82c-.55 0-1.05-.1-1.5-.3-.44-.2-.78-.5-1.04-.89a2.6 2.6 0 0 1-.38-1.44 2.11 2.11 0 0 1 1.02-2c.3-.19.66-.33 1.06-.43.4-.1.8-.18 1.23-.22l1.24-.14c.32-.05.55-.12.7-.2.15-.1.22-.25.22-.45v-.03c0-.43-.13-.76-.38-1a1.6 1.6 0 0 0-1.1-.35c-.5 0-.9.11-1.2.33-.29.22-.49.48-.59.78l-1.92-.27a3.07 3.07 0 0 1 2.03-2.14 5.44 5.44 0 0 1 2.93-.13c.41.1.8.27 1.14.5.34.22.62.52.83.91.21.39.32.87.32 1.45V88H68.7v-1.2h-.07a2.51 2.51 0 0 1-1.37 1.2 3.6 3.6 0 0 1-1.2.19Zm.53-1.52c.42 0 .77-.08 1.08-.24a1.74 1.74 0 0 0 .95-1.56v-1.02a.97.97 0 0 1-.33.15l-.52.12a16.16 16.16 0 0 1-1.04.16c-.3.04-.58.1-.83.2-.24.1-.43.23-.57.4a.97.97 0 0 0-.2.65c0 .38.13.66.4.86.28.19.63.28 1.06.28Zm8.2-3.77V88h-2.06v-8.73h1.97v1.49h.1c.2-.5.52-.88.96-1.17.45-.29 1-.43 1.64-.43.6 0 1.13.13 1.58.39.45.25.8.63 1.04 1.11.25.5.38 1.09.37 1.78V88h-2.05v-5.24c0-.58-.15-1.04-.46-1.37a1.6 1.6 0 0 0-1.24-.5c-.36 0-.68.09-.96.25-.28.15-.5.38-.66.67-.15.3-.23.66-.23 1.08ZM85 88.18c-.55 0-1.05-.1-1.49-.3-.44-.2-.79-.5-1.04-.89a2.6 2.6 0 0 1-.38-1.44 2.11 2.11 0 0 1 1.02-2c.3-.19.66-.33 1.05-.43.4-.1.81-.18 1.24-.22l1.24-.14c.32-.05.55-.12.7-.2.14-.1.22-.25.22-.45v-.03c0-.43-.13-.76-.38-1a1.6 1.6 0 0 0-1.1-.35c-.5 0-.9.11-1.2.33-.3.22-.49.48-.59.78l-1.92-.27a3.07 3.07 0 0 1 2.03-2.14 5.44 5.44 0 0 1 2.93-.13c.41.1.8.27 1.14.5.34.22.62.52.83.91.2.39.31.87.31 1.45V88h-1.97v-1.2h-.07a2.51 2.51 0 0 1-1.38 1.2c-.33.12-.73.19-1.18.19Zm.54-1.52c.41 0 .77-.08 1.07-.24.3-.17.54-.39.7-.66.17-.27.25-.57.25-.9v-1.02a.97.97 0 0 1-.33.15l-.5.12a16.16 16.16 0 0 1-1.05.16c-.31.04-.59.1-.83.2s-.43.23-.57.4a.97.97 0 0 0-.21.65 1 1 0 0 0 .41.86c.28.19.63.28 1.06.28Zm9.94 4.8c-.74 0-1.38-.1-1.9-.3-.54-.2-.96-.47-1.28-.8-.33-.34-.55-.7-.67-1.11l1.85-.45c.08.17.2.34.36.5.16.18.37.32.64.43.28.11.62.17 1.03.17.58 0 1.07-.14 1.45-.43.38-.28.57-.74.57-1.38v-1.66h-.1a2.59 2.59 0 0 1-1.26 1.22c-.33.15-.75.22-1.25.22a3.5 3.5 0 0 1-1.82-.47 3.27 3.27 0 0 1-1.3-1.42 5.26 5.26 0 0 1-.48-2.37c0-.96.16-1.77.48-2.43a3.34 3.34 0 0 1 4.39-1.76c.33.17.6.38.8.62.19.24.34.46.44.68h.12v-1.45h2.02v8.87a3 3 0 0 1-.53 1.85 3.2 3.2 0 0 1-1.46 1.1c-.62.24-1.32.36-2.1.36Zm.01-5.2c.44 0 .81-.1 1.12-.32.3-.2.54-.51.7-.91.16-.4.24-.88.24-1.43a4 4 0 0 0-.24-1.45 2.06 2.06 0 0 0-.7-.96 1.8 1.8 0 0 0-1.12-.34c-.45 0-.84.12-1.14.35a2.2 2.2 0 0 0-.7.99c-.15.41-.23.88-.23 1.4 0 .54.08 1 .23 1.41.16.4.4.7.7.93.31.22.7.33 1.14.33Zm10.06 1.91a4.5 4.5 0 0 1-2.27-.55 3.7 3.7 0 0 1-1.46-1.55 5.21 5.21 0 0 1-.51-2.38c0-.9.17-1.69.5-2.37a3.87 3.87 0 0 1 3.63-2.16c.53 0 1.04.09 1.52.26s.9.44 1.27.8c.37.36.67.81.88 1.37.21.55.32 1.21.32 1.98v.63h-7.16v-1.4h5.19c0-.4-.1-.74-.26-1.05-.17-.3-.4-.55-.7-.73-.3-.18-.64-.27-1.03-.27a2 2 0 0 0-1.11.3 2.13 2.13 0 0 0-1.01 1.88v1.2c0 .52.09.95.28 1.31.18.36.44.64.77.83.34.2.73.29 1.17.29.3 0 .57-.04.82-.13.24-.08.45-.21.63-.38.17-.16.31-.37.4-.62l1.92.22c-.12.5-.35.95-.7 1.33-.33.37-.76.67-1.29.87-.52.2-1.13.31-1.8.31Zm13.4 0a3.83 3.83 0 0 1-3.68-2.16 5.25 5.25 0 0 1-.51-2.34c0-.89.17-1.67.51-2.35.34-.68.82-1.2 1.44-1.59a4.16 4.16 0 0 1 2.22-.57c.7 0 1.34.13 1.88.4a3.22 3.22 0 0 1 1.87 2.74h-1.97a1.87 1.87 0 0 0-.56-1.06c-.3-.28-.7-.42-1.2-.42-.41 0-.78.11-1.1.34-.32.22-.56.54-.74.97a3.8 3.8 0 0 0-.27 1.5c0 .6.1 1.11.27 1.54.17.42.42.75.73.98.32.23.7.34 1.12.34.3 0 .57-.05.81-.17.24-.11.45-.28.6-.5.17-.22.28-.49.34-.8h1.97a3.22 3.22 0 0 1-1.83 2.76 4.3 4.3 0 0 1-1.9.4Zm7.48-11.8V88h-2.06V76.36h2.06Zm4.62 11.8c-.55 0-1.05-.1-1.5-.29a2.5 2.5 0 0 1-1.04-.89 2.59 2.59 0 0 1-.38-1.44c0-.5.1-.9.28-1.22.18-.32.43-.58.74-.77.31-.2.67-.34 1.06-.44.4-.1.81-.18 1.23-.22l1.25-.14c.32-.05.55-.12.7-.2.14-.1.21-.25.21-.45v-.03c0-.43-.12-.76-.38-1-.25-.23-.62-.35-1.1-.35-.5 0-.9.11-1.2.33-.28.22-.48.48-.58.78l-1.92-.27a3.08 3.08 0 0 1 2.03-2.14 5.44 5.44 0 0 1 2.93-.13c.4.1.79.27 1.13.5.35.22.62.52.83.91.21.39.32.87.32 1.45V88h-1.98v-1.2h-.06a2.52 2.52 0 0 1-1.38 1.19c-.34.12-.73.19-1.19.19Zm.54-1.5c.41 0 .77-.09 1.07-.25.3-.17.54-.39.7-.66.17-.27.25-.57.25-.9v-1.02a.96.96 0 0 1-.33.15l-.51.12a15.83 15.83 0 0 1-1.05.16c-.3.04-.58.1-.82.2s-.44.23-.58.4a.97.97 0 0 0-.2.65c0 .38.13.66.41.86.28.19.63.28 1.06.28Zm13.04-5.1-1.88.21a1.5 1.5 0 0 0-.8-.93 1.9 1.9 0 0 0-.8-.16c-.44 0-.8.1-1.09.28-.28.19-.43.43-.42.72 0 .26.09.46.28.62.19.16.5.3.95.4l1.49.31c.82.18 1.44.46 1.84.85.4.39.61.9.61 1.52 0 .55-.16 1.03-.48 1.45a3.1 3.1 0 0 1-1.31.98c-.56.23-1.2.35-1.93.35a4.48 4.48 0 0 1-2.58-.67 2.7 2.7 0 0 1-1.17-1.88l2-.2c.1.4.3.7.59.9.3.2.68.3 1.15.3.49 0 .88-.1 1.18-.3.3-.2.45-.45.45-.75 0-.25-.1-.45-.3-.62a2.02 2.02 0 0 0-.88-.37l-1.49-.31a3.54 3.54 0 0 1-1.86-.88 2.2 2.2 0 0 1-.6-1.58c0-.54.15-1 .44-1.4.3-.4.72-.7 1.25-.92a4.83 4.83 0 0 1 1.84-.33c1.03 0 1.83.22 2.42.65.6.44.96 1.03 1.1 1.77Zm8.78.01-1.88.2a1.5 1.5 0 0 0-.8-.93 1.9 1.9 0 0 0-.8-.16c-.43 0-.8.1-1.09.28-.28.19-.43.43-.42.72 0 .26.09.46.28.62.2.16.5.3.95.4l1.5.31c.82.18 1.43.46 1.83.85.4.39.61.9.62 1.52 0 .55-.17 1.03-.49 1.45a3.1 3.1 0 0 1-1.31.98c-.56.23-1.2.35-1.93.35a4.48 4.48 0 0 1-2.58-.67 2.7 2.7 0 0 1-1.17-1.88l2-.2c.1.4.3.7.59.9.3.2.68.3 1.15.3.5 0 .88-.1 1.18-.3.3-.2.45-.45.45-.75 0-.25-.1-.45-.3-.62a2.02 2.02 0 0 0-.88-.37l-1.49-.31a3.54 3.54 0 0 1-1.86-.88 2.2 2.2 0 0 1-.6-1.58c0-.54.15-1 .44-1.4.3-.4.72-.7 1.25-.92a4.82 4.82 0 0 1 1.85-.33 4 4 0 0 1 2.41.65c.6.44.96 1.03 1.1 1.77Zm5.75 6.6a4.5 4.5 0 0 1-2.27-.56 3.69 3.69 0 0 1-1.46-1.55 5.21 5.21 0 0 1-.51-2.38c0-.9.17-1.69.5-2.37a3.86 3.86 0 0 1 3.63-2.16c.53 0 1.04.09 1.52.26s.9.44 1.27.8c.37.36.66.81.88 1.37.2.55.32 1.21.32 1.98v.63h-7.16v-1.4h5.18a1.96 1.96 0 0 0-.95-1.78c-.3-.18-.64-.27-1.04-.27a2 2 0 0 0-1.1.3c-.32.2-.57.47-.75.8a2.3 2.3 0 0 0-.26 1.08v1.2c0 .52.09.95.27 1.31.19.36.45.64.78.83.34.2.73.29 1.17.29.3 0 .57-.04.82-.13.24-.08.45-.21.63-.38.17-.16.3-.37.4-.62l1.92.22c-.12.5-.35.95-.7 1.33-.33.37-.76.67-1.29.87-.53.2-1.13.31-1.8.31Zm12.51-6.6-1.87.2a1.51 1.51 0 0 0-.28-.53c-.13-.17-.3-.3-.52-.4a1.9 1.9 0 0 0-.81-.16c-.43 0-.79.1-1.08.28-.29.19-.43.43-.43.72 0 .26.1.46.28.62.2.16.51.3.96.4l1.49.31c.82.18 1.44.46 1.84.85.4.39.6.9.61 1.52 0 .55-.16 1.03-.48 1.45a3.1 3.1 0 0 1-1.31.98c-.56.23-1.2.35-1.94.35a4.48 4.48 0 0 1-2.58-.67 2.7 2.7 0 0 1-1.16-1.88l2-.2c.1.4.29.7.58.9.3.2.68.3 1.16.3.49 0 .88-.1 1.17-.3.3-.2.45-.45.45-.75a.8.8 0 0 0-.29-.62 2.02 2.02 0 0 0-.88-.37l-1.5-.31a3.54 3.54 0 0 1-1.85-.88 2.2 2.2 0 0 1-.6-1.58c0-.54.15-1 .44-1.4.3-.4.72-.7 1.25-.92a4.83 4.83 0 0 1 1.84-.33c1.03 0 1.83.22 2.42.65.59.44.95 1.03 1.1 1.77Z" fill="#0F67F5"/><path stroke="#0F67F5" stroke-width="2" d="M32 103h157"/><path d="M206.4 76.36h1.7l3.94 9.66h.14l3.96-9.66h1.68V88h-1.32v-8.84h-.11L212.75 88h-1.27l-3.64-8.84h-.11V88h-1.32V76.36Zm16.63 11.84c-.55 0-1.06-.1-1.5-.3a2.7 2.7 0 0 1-1.08-.92c-.26-.4-.4-.89-.4-1.46 0-.5.1-.9.3-1.21.2-.32.46-.56.79-.74.33-.18.7-.31 1.09-.4.4-.1.8-.16 1.2-.22l1.3-.15c.33-.04.57-.1.73-.19.15-.08.23-.23.23-.45v-.05c0-.56-.15-1-.46-1.3-.3-.31-.76-.47-1.38-.47-.64 0-1.14.14-1.5.42a2.5 2.5 0 0 0-.78.9l-1.27-.46a3 3 0 0 1 .91-1.23c.38-.3.8-.51 1.25-.63a5.18 5.18 0 0 1 2.3-.08c.38.07.73.2 1.07.4.35.2.63.52.86.93.23.41.34.97.34 1.66V88h-1.34v-1.18h-.07a2.62 2.62 0 0 1-1.3 1.16c-.35.15-.78.22-1.29.22Zm.2-1.2c.53 0 .98-.1 1.34-.31a2.13 2.13 0 0 0 1.12-1.85v-1.23c-.06.07-.18.13-.38.2-.19.04-.4.1-.66.13a29.63 29.63 0 0 1-1.28.17c-.35.05-.67.12-.98.23-.3.1-.54.24-.72.44-.19.2-.28.47-.28.81 0 .47.18.82.52 1.06.35.23.79.35 1.32.35Zm7.59-4.25V88h-1.34v-8.73h1.3v1.37h.1c.21-.45.52-.8.94-1.07.42-.27.95-.41 1.61-.41.6 0 1.11.12 1.55.36.45.24.8.6 1.04 1.1.24.48.37 1.1.37 1.83V88h-1.34v-5.45c0-.69-.18-1.22-.54-1.6a1.9 1.9 0 0 0-1.47-.59c-.42 0-.8.1-1.14.28-.34.19-.6.46-.8.81-.19.36-.28.8-.28 1.3Zm10.59 5.45c-.56 0-1.06-.1-1.51-.3a2.77 2.77 0 0 1-1.08-.92c-.26-.4-.4-.89-.4-1.46 0-.5.1-.9.3-1.21.2-.32.46-.56.8-.74.32-.18.69-.31 1.08-.4.4-.1.8-.16 1.21-.22l1.3-.15c.33-.04.57-.1.72-.19.16-.08.23-.23.23-.45v-.05c0-.56-.15-1-.46-1.3-.3-.31-.76-.47-1.38-.47-.64 0-1.14.14-1.5.42a2.5 2.5 0 0 0-.77.9l-1.27-.46c.22-.53.53-.94.9-1.23.39-.3.8-.51 1.26-.63a5.18 5.18 0 0 1 2.3-.08c.37.07.73.2 1.07.4.34.2.63.52.85.93.23.41.34.97.34 1.66V88h-1.34v-1.18H244a2.62 2.62 0 0 1-1.3 1.16c-.36.15-.79.22-1.3.22Zm.2-1.2c.53 0 .98-.1 1.34-.31a2.13 2.13 0 0 0 1.11-1.85v-1.23c-.05.07-.18.13-.37.2-.19.04-.41.1-.66.13a29.63 29.63 0 0 1-1.28.17c-.35.05-.68.12-.98.23-.3.1-.54.24-.73.44-.18.2-.27.47-.27.81 0 .47.17.82.52 1.06.34.23.78.35 1.32.35Zm9.76 4.45c-.64 0-1.2-.08-1.66-.25a3.54 3.54 0 0 1-1.9-1.5l1.06-.75c.13.16.28.35.47.55.18.2.44.39.76.54.32.16.75.23 1.28.23.7 0 1.28-.17 1.74-.5.46-.35.69-.88.69-1.61v-1.77h-.12c-.1.16-.23.35-.42.59-.18.23-.43.43-.77.62-.33.17-.78.26-1.35.26a3.5 3.5 0 0 1-3.22-1.95 5.09 5.09 0 0 1-.49-2.32c0-.9.16-1.67.47-2.33a3.47 3.47 0 0 1 3.25-2.1c.58 0 1.03.1 1.36.28.34.19.6.4.77.64.19.23.33.43.43.58h.13v-1.39h1.3v8.98c0 .75-.17 1.36-.51 1.83-.34.47-.8.82-1.37 1.04-.56.22-1.2.33-1.9.33Zm-.04-4.8c.54 0 1-.11 1.36-.36.37-.25.66-.6.85-1.06.2-.46.29-1.02.29-1.66 0-.63-.1-1.19-.29-1.67a2.5 2.5 0 0 0-.83-1.13c-.38-.27-.84-.4-1.38-.4a2.28 2.28 0 0 0-2.27 1.58 4.5 4.5 0 0 0-.28 1.62c0 .6.1 1.14.29 1.6.2.47.47.83.85 1.1.38.26.85.39 1.41.39Zm9.93 1.53a3.73 3.73 0 0 1-3.58-2.13 5.34 5.34 0 0 1-.49-2.35c0-.89.17-1.68.5-2.36a3.7 3.7 0 0 1 3.44-2.18c.45 0 .9.07 1.34.23a3.34 3.34 0 0 1 2.08 2.08c.22.55.32 1.24.32 2.05v.57h-6.72v-1.16h5.36c0-.5-.1-.93-.3-1.32a2.22 2.22 0 0 0-2.08-1.25c-.54 0-1 .14-1.4.4-.38.26-.68.6-.88 1.02a3 3 0 0 0-.32 1.36v.77c0 .66.12 1.22.35 1.68.23.45.55.8.95 1.03.41.24.89.36 1.43.36.35 0 .67-.05.96-.15.28-.1.53-.25.74-.45.2-.2.37-.46.48-.77l1.3.37a2.99 2.99 0 0 1-1.89 1.93c-.47.18-1 .27-1.59.27Zm10.16 3.1v-12h1.29v1.38h.16l.4-.58c.19-.24.44-.45.77-.64s.78-.28 1.35-.28a3.46 3.46 0 0 1 3.26 2.11c.31.68.47 1.47.47 2.39 0 .92-.16 1.72-.47 2.4a3.42 3.42 0 0 1-3.23 2.12 2.8 2.8 0 0 1-1.35-.28 2.5 2.5 0 0 1-.78-.64 8.77 8.77 0 0 1-.42-.6h-.11v4.61h-1.34Zm1.31-7.64c0 .66.1 1.24.3 1.74.19.5.47.9.84 1.18.37.28.82.42 1.36.42a2.2 2.2 0 0 0 1.4-.45c.38-.3.67-.7.86-1.2.2-.5.29-1.07.29-1.7 0-.6-.1-1.16-.29-1.65a2.27 2.27 0 0 0-2.26-1.62 2.24 2.24 0 0 0-2.21 1.57 4.73 4.73 0 0 0-.29 1.7Zm13.94.8v-5.17H288V88h-1.34v-1.48h-.1a2.74 2.74 0 0 1-2.59 1.59 3 3 0 0 1-1.45-.35 2.5 2.5 0 0 1-1-1.1 4.15 4.15 0 0 1-.36-1.84v-5.55h1.34v5.46c0 .63.17 1.14.53 1.52.36.38.82.57 1.38.57a2.28 2.28 0 0 0 2.25-2.39Zm3.8 6.83v-12h1.29v1.39h.16l.4-.58c.18-.24.44-.45.77-.64s.78-.28 1.35-.28a3.46 3.46 0 0 1 3.25 2.11c.32.68.48 1.47.48 2.39 0 .92-.16 1.72-.48 2.4a3.42 3.42 0 0 1-3.23 2.12 2.8 2.8 0 0 1-1.34-.28c-.34-.19-.6-.4-.78-.64a8.77 8.77 0 0 1-.42-.6h-.12v4.61h-1.34Zm1.31-7.63c0 .66.1 1.24.29 1.74.2.5.48.9.85 1.18.37.28.82.42 1.36.42a2.2 2.2 0 0 0 1.4-.45c.38-.3.67-.7.86-1.2.19-.5.28-1.07.28-1.7 0-.6-.09-1.16-.28-1.65-.18-.5-.47-.9-.85-1.18a2.22 2.22 0 0 0-1.41-.44 2.24 2.24 0 0 0-2.22 1.57 4.73 4.73 0 0 0-.28 1.7Zm8.43 4.36v-8.73h1.34V88h-1.34Zm.68-10.18a.95.95 0 0 1-.67-.27.86.86 0 0 1-.28-.64c0-.25.1-.46.28-.64a.95.95 0 0 1 .67-.27c.26 0 .49.09.67.27a.85.85 0 0 1 0 1.28.93.93 0 0 1-.67.27Zm4.46-1.46V88H304V76.36h1.34Zm8.64 4.87-1.2.34c-.08-.2-.2-.4-.34-.59a1.6 1.6 0 0 0-.6-.47 2.15 2.15 0 0 0-.95-.2c-.54 0-.98.13-1.34.38-.35.24-.53.55-.53.92 0 .34.12.6.37.8.24.19.62.35 1.13.48l1.3.31c.78.2 1.36.48 1.74.87.38.39.58.89.58 1.5 0 .5-.15.95-.44 1.34-.28.4-.68.7-1.19.93-.51.23-1.1.34-1.78.34-.9 0-1.63-.2-2.21-.58a2.57 2.57 0 0 1-1.11-1.7l1.27-.3c.12.46.35.81.69 1.05.34.23.79.35 1.33.35a2.5 2.5 0 0 0 1.5-.4c.36-.27.55-.59.55-.96 0-.3-.1-.56-.32-.77-.21-.2-.54-.36-.98-.46l-1.45-.34a3.47 3.47 0 0 1-1.76-.88c-.37-.4-.56-.9-.56-1.5 0-.5.14-.94.42-1.31.28-.38.66-.68 1.14-.9a4 4 0 0 1 1.65-.32c.86 0 1.54.19 2.03.57.5.38.85.88 1.06 1.5Z" fill="#333"/><path fill="#fff" d="M32 120h608v76H32z"/><path fill="#EBEBEB" d="M44 132h99v12H44zm0 20h584v12H44zm0 20h584v12H44z"/></svg>