<svg width="672" height="259" viewBox="0 0 672 259" fill="none" xmlns="http://www.w3.org/2000/svg">
<rect width="672" height="259" fill="#F6F6F6"/>
<g filter="url(#filter0_dd_13251_3326)">
<path d="M187.091 32L192 37H182L187.091 32Z" fill="#333333"/>
<rect x="137" y="37" width="100" height="69" rx="4" fill="#333333"/>
<path d="M149.676 48V47.1051C149.676 46.8333 149.724 46.545 149.82 46.2401C149.92 45.9318 150.062 45.6352 150.248 45.3501C150.437 45.0618 150.664 44.8116 150.929 44.5994L151.565 45.1165C151.357 45.4148 151.174 45.7263 151.018 46.0511C150.866 46.3726 150.79 46.7173 150.79 47.0852V48H149.676ZM158.272 49.0739L157.218 49.3722C157.152 49.1965 157.054 49.0258 156.925 48.8601C156.799 48.6911 156.626 48.5518 156.408 48.4425C156.189 48.3331 155.909 48.2784 155.567 48.2784C155.1 48.2784 154.711 48.3861 154.399 48.6016C154.091 48.8137 153.937 49.0838 153.937 49.4119C153.937 49.7036 154.043 49.9339 154.255 50.103C154.467 50.272 154.799 50.4129 155.249 50.5256L156.383 50.804C157.066 50.9697 157.574 51.2232 157.909 51.5646C158.244 51.9027 158.411 52.3385 158.411 52.8722C158.411 53.3097 158.285 53.7008 158.033 54.0455C157.785 54.3902 157.437 54.6619 156.989 54.8608C156.542 55.0597 156.022 55.1591 155.428 55.1591C154.649 55.1591 154.005 54.9901 153.494 54.652C152.984 54.3139 152.661 53.8201 152.525 53.1705L153.638 52.892C153.745 53.303 153.945 53.6113 154.24 53.8168C154.538 54.0223 154.928 54.125 155.408 54.125C155.955 54.125 156.389 54.009 156.711 53.777C157.036 53.5417 157.198 53.2599 157.198 52.9318C157.198 52.6667 157.105 52.4446 156.92 52.2656C156.734 52.0833 156.449 51.9474 156.065 51.858L154.792 51.5597C154.093 51.3939 153.579 51.1371 153.251 50.7891C152.926 50.4377 152.763 49.9986 152.763 49.4716C152.763 49.0407 152.884 48.6596 153.126 48.3281C153.372 47.9967 153.705 47.7365 154.126 47.5476C154.55 47.3587 155.031 47.2642 155.567 47.2642C156.323 47.2642 156.916 47.4299 157.347 47.7614C157.781 48.0928 158.09 48.5303 158.272 49.0739ZM160.177 55V47.3636H161.311V48.5568H161.41C161.569 48.1491 161.826 47.8326 162.181 47.6072C162.536 47.3786 162.961 47.2642 163.459 47.2642C163.962 47.2642 164.382 47.3786 164.716 47.6072C165.055 47.8326 165.318 48.1491 165.507 48.5568H165.586C165.782 48.1624 166.075 47.8492 166.466 47.6172C166.858 47.3819 167.327 47.2642 167.873 47.2642C168.556 47.2642 169.115 47.478 169.549 47.9055C169.983 48.3298 170.2 48.991 170.2 49.8892V55H169.027V49.8892C169.027 49.3258 168.873 48.9231 168.564 48.6811C168.256 48.4392 167.893 48.3182 167.476 48.3182C166.939 48.3182 166.523 48.4806 166.228 48.8054C165.933 49.1269 165.785 49.5346 165.785 50.0284V55H164.592V49.7699C164.592 49.3357 164.451 48.986 164.17 48.7209C163.888 48.4524 163.525 48.3182 163.081 48.3182C162.776 48.3182 162.491 48.3994 162.226 48.5618C161.964 48.7242 161.752 48.9496 161.589 49.2379C161.43 49.523 161.351 49.8527 161.351 50.2273V55H160.177ZM173.379 44.8182V45.7131C173.379 45.9848 173.33 46.2749 173.23 46.5831C173.134 46.888 172.992 47.1847 172.803 47.473C172.617 47.758 172.392 48.0066 172.127 48.2188L171.49 47.7017C171.699 47.4034 171.88 47.0935 172.032 46.772C172.188 46.4472 172.266 46.1009 172.266 45.733V44.8182H173.379ZM179.344 48.9744V47.9006H185.469V48.9744H179.344ZM179.344 51.9176V50.8438H185.469V51.9176H179.344ZM153.634 66.8182V77H152.401V68.1108H152.341L149.855 69.7614V68.5085L152.401 66.8182H153.634ZM159.883 77.1392C159.134 77.1392 158.496 76.9354 157.969 76.5277C157.442 76.1167 157.039 75.5218 156.761 74.7429C156.482 73.9607 156.343 73.0161 156.343 71.9091C156.343 70.8087 156.482 69.8691 156.761 69.0902C157.042 68.308 157.447 67.7114 157.974 67.3004C158.504 66.8861 159.14 66.679 159.883 66.679C160.625 66.679 161.26 66.8861 161.787 67.3004C162.317 67.7114 162.722 68.308 163 69.0902C163.282 69.8691 163.423 70.8087 163.423 71.9091C163.423 73.0161 163.283 73.9607 163.005 74.7429C162.727 75.5218 162.324 76.1167 161.797 76.5277C161.27 76.9354 160.632 77.1392 159.883 77.1392ZM159.883 76.0455C160.625 76.0455 161.202 75.6875 161.613 74.9716C162.024 74.2557 162.229 73.2348 162.229 71.9091C162.229 71.0275 162.135 70.2768 161.946 69.657C161.76 69.0372 161.492 68.5649 161.141 68.2401C160.793 67.9152 160.373 67.7528 159.883 67.7528C159.147 67.7528 158.572 68.1158 158.158 68.8416C157.743 69.5642 157.536 70.5866 157.536 71.9091C157.536 72.7907 157.629 73.5398 157.815 74.1562C158 74.7727 158.267 75.2417 158.615 75.5632C158.966 75.8847 159.389 76.0455 159.883 76.0455ZM168.633 77.1392C167.884 77.1392 167.246 76.9354 166.719 76.5277C166.192 76.1167 165.789 75.5218 165.511 74.7429C165.232 73.9607 165.093 73.0161 165.093 71.9091C165.093 70.8087 165.232 69.8691 165.511 69.0902C165.792 68.308 166.197 67.7114 166.724 67.3004C167.254 66.8861 167.89 66.679 168.633 66.679C169.375 66.679 170.01 66.8861 170.537 67.3004C171.067 67.7114 171.472 68.308 171.75 69.0902C172.032 69.8691 172.173 70.8087 172.173 71.9091C172.173 73.0161 172.033 73.9607 171.755 74.7429C171.477 75.5218 171.074 76.1167 170.547 76.5277C170.02 76.9354 169.382 77.1392 168.633 77.1392ZM168.633 76.0455C169.375 76.0455 169.952 75.6875 170.363 74.9716C170.774 74.2557 170.979 73.2348 170.979 71.9091C170.979 71.0275 170.885 70.2768 170.696 69.657C170.51 69.0372 170.242 68.5649 169.891 68.2401C169.543 67.9152 169.123 67.7528 168.633 67.7528C167.897 67.7528 167.322 68.1158 166.908 68.8416C166.493 69.5642 166.286 70.5866 166.286 71.9091C166.286 72.7907 166.379 73.5398 166.565 74.1562C166.75 74.7727 167.017 75.2417 167.365 75.5632C167.716 75.8847 168.139 76.0455 168.633 76.0455ZM174.082 79.8636V69.3636H175.215V70.5767H175.354C175.441 70.4441 175.56 70.2751 175.712 70.0696C175.868 69.8608 176.09 69.6752 176.379 69.5128C176.67 69.3471 177.065 69.2642 177.562 69.2642C178.205 69.2642 178.772 69.425 179.262 69.7464C179.753 70.0679 180.135 70.5237 180.411 71.1136C180.686 71.7036 180.823 72.3996 180.823 73.2017C180.823 74.0104 180.686 74.7114 180.411 75.3047C180.135 75.8946 179.754 76.352 179.267 76.6768C178.78 76.9983 178.218 77.1591 177.582 77.1591C177.091 77.1591 176.698 77.0779 176.403 76.9155C176.108 76.7498 175.881 76.5625 175.722 76.3537C175.563 76.1416 175.441 75.9659 175.354 75.8267H175.255V79.8636H174.082ZM175.235 73.1818C175.235 73.7585 175.32 74.2673 175.489 74.7081C175.658 75.1456 175.905 75.4886 176.229 75.7372C176.554 75.9825 176.952 76.1051 177.423 76.1051C177.913 76.1051 178.322 75.9759 178.651 75.7173C178.982 75.4555 179.231 75.1042 179.396 74.6634C179.565 74.2192 179.65 73.7254 179.65 73.1818C179.65 72.6449 179.567 72.161 179.401 71.7301C179.239 71.2959 178.992 70.9529 178.661 70.701C178.332 70.4458 177.92 70.3182 177.423 70.3182C176.945 70.3182 176.544 70.4392 176.219 70.6811C175.895 70.9197 175.649 71.2545 175.484 71.6854C175.318 72.1129 175.235 72.6117 175.235 73.1818ZM183.173 69.3636L185.003 72.4858L186.833 69.3636H188.185L185.719 73.1818L188.185 77H186.833L185.003 74.0369L183.173 77H181.821L184.247 73.1818L181.821 69.3636H183.173ZM150.074 98V90.3636H151.207V91.5568H151.307C151.466 91.1491 151.723 90.8326 152.077 90.6072C152.432 90.3786 152.858 90.2642 153.355 90.2642C153.859 90.2642 154.278 90.3786 154.613 90.6072C154.951 90.8326 155.214 91.1491 155.403 91.5568H155.483C155.679 91.1624 155.972 90.8492 156.363 90.6172C156.754 90.3819 157.223 90.2642 157.77 90.2642C158.453 90.2642 159.011 90.478 159.445 90.9055C159.879 91.3298 160.097 91.991 160.097 92.8892V98H158.923V92.8892C158.923 92.3258 158.769 91.9231 158.461 91.6811C158.153 91.4392 157.79 91.3182 157.372 91.3182C156.835 91.3182 156.419 91.4806 156.124 91.8054C155.829 92.1269 155.682 92.5346 155.682 93.0284V98H154.489V92.7699C154.489 92.3357 154.348 91.986 154.066 91.7209C153.784 91.4524 153.421 91.3182 152.977 91.3182C152.672 91.3182 152.387 91.3994 152.122 91.5618C151.86 91.7242 151.648 91.9496 151.486 92.2379C151.327 92.523 151.247 92.8527 151.247 93.2273V98H150.074ZM164.489 98.179C164.005 98.179 163.566 98.0878 163.172 97.9055C162.777 97.7199 162.464 97.4531 162.232 97.1051C162 96.7538 161.884 96.3295 161.884 95.8324C161.884 95.3949 161.97 95.0402 162.142 94.7685C162.315 94.4934 162.545 94.2779 162.833 94.1222C163.122 93.9664 163.44 93.8504 163.788 93.7741C164.139 93.6946 164.492 93.6316 164.847 93.5852C165.311 93.5256 165.687 93.4808 165.975 93.451C166.267 93.4179 166.479 93.3632 166.612 93.2869C166.748 93.2107 166.816 93.0781 166.816 92.8892V92.8494C166.816 92.3589 166.681 91.9777 166.413 91.706C166.148 91.4342 165.745 91.2983 165.205 91.2983C164.645 91.2983 164.206 91.4209 163.887 91.6662C163.569 91.9115 163.346 92.1733 163.216 92.4517L162.103 92.054C162.301 91.59 162.567 91.2287 162.898 90.9702C163.233 90.7083 163.597 90.526 163.992 90.4233C164.39 90.3172 164.781 90.2642 165.165 90.2642C165.41 90.2642 165.692 90.294 166.01 90.3537C166.332 90.41 166.642 90.5277 166.94 90.7067C167.242 90.8857 167.492 91.1558 167.691 91.517C167.89 91.8783 167.989 92.3622 167.989 92.9688V98H166.816V96.9659H166.756C166.676 97.1316 166.544 97.3089 166.358 97.4979C166.173 97.6868 165.926 97.8475 165.618 97.9801C165.309 98.1127 164.933 98.179 164.489 98.179ZM164.668 97.125C165.132 97.125 165.523 97.0339 165.841 96.8516C166.163 96.6693 166.405 96.4339 166.567 96.1456C166.733 95.8572 166.816 95.554 166.816 95.2358V94.1619C166.766 94.2216 166.657 94.2763 166.488 94.326C166.322 94.3724 166.13 94.4138 165.911 94.4503C165.695 94.4834 165.485 94.5133 165.279 94.5398C165.077 94.563 164.913 94.5829 164.787 94.5994C164.482 94.6392 164.197 94.7038 163.932 94.7933C163.67 94.8795 163.458 95.0104 163.296 95.1861C163.137 95.3584 163.057 95.5937 163.057 95.892C163.057 96.2997 163.208 96.608 163.51 96.8168C163.815 97.0223 164.201 97.125 164.668 97.125ZM171.006 90.3636L172.835 93.4858L174.665 90.3636H176.017L173.551 94.1818L176.017 98H174.665L172.835 95.0369L171.006 98H169.653L172.079 94.1818L169.653 90.3636H171.006ZM179.7 98L176.915 87.8182H178.168L180.296 96.1108H180.396L182.563 87.8182H183.955L186.123 96.1108H186.222L188.35 87.8182H189.603L186.819 98H185.546L183.299 89.8864H183.219L180.972 98H179.7ZM190.98 98V90.3636H192.153V98H190.98ZM191.577 89.0909C191.348 89.0909 191.151 89.013 190.985 88.8572C190.823 88.7015 190.741 88.5142 190.741 88.2955C190.741 88.0767 190.823 87.8894 190.985 87.7337C191.151 87.5779 191.348 87.5 191.577 87.5C191.805 87.5 192.001 87.5779 192.163 87.7337C192.329 87.8894 192.412 88.0767 192.412 88.2955C192.412 88.5142 192.329 88.7015 192.163 88.8572C192.001 89.013 191.805 89.0909 191.577 89.0909ZM197.186 98.1591C196.55 98.1591 195.988 97.9983 195.501 97.6768C195.013 97.352 194.632 96.8946 194.357 96.3047C194.082 95.7114 193.944 95.0104 193.944 94.2017C193.944 93.3996 194.082 92.7036 194.357 92.1136C194.632 91.5237 195.015 91.0679 195.506 90.7464C195.996 90.425 196.563 90.2642 197.206 90.2642C197.703 90.2642 198.096 90.3471 198.384 90.5128C198.676 90.6752 198.898 90.8608 199.05 91.0696C199.206 91.2751 199.327 91.4441 199.413 91.5767H199.513V87.8182H200.686V98H199.552V96.8267H199.413C199.327 96.9659 199.204 97.1416 199.045 97.3537C198.886 97.5625 198.659 97.7498 198.364 97.9155C198.069 98.0779 197.676 98.1591 197.186 98.1591ZM197.345 97.1051C197.816 97.1051 198.213 96.9825 198.538 96.7372C198.863 96.4886 199.11 96.1456 199.279 95.7081C199.448 95.2673 199.532 94.7585 199.532 94.1818C199.532 93.6117 199.45 93.1129 199.284 92.6854C199.118 92.2545 198.873 91.9197 198.548 91.6811C198.223 91.4392 197.822 91.3182 197.345 91.3182C196.848 91.3182 196.434 91.4458 196.102 91.701C195.774 91.9529 195.527 92.2959 195.361 92.7301C195.199 93.161 195.118 93.6449 195.118 94.1818C195.118 94.7254 195.201 95.2192 195.366 95.6634C195.535 96.1042 195.784 96.4555 196.112 96.7173C196.443 96.9759 196.854 97.1051 197.345 97.1051ZM206.319 90.3636V91.358H202.361V90.3636H206.319ZM203.515 88.5341H204.688V95.8125C204.688 96.1439 204.736 96.3925 204.832 96.5582C204.932 96.7206 205.058 96.83 205.21 96.8864C205.366 96.9394 205.53 96.9659 205.702 96.9659C205.831 96.9659 205.938 96.9593 206.02 96.946C206.103 96.9295 206.17 96.9162 206.219 96.9062L206.458 97.9602C206.378 97.9901 206.267 98.0199 206.125 98.0497C205.982 98.0829 205.802 98.0994 205.583 98.0994C205.251 98.0994 204.927 98.0282 204.608 97.8857C204.294 97.7431 204.032 97.526 203.823 97.2344C203.617 96.9427 203.515 96.5748 203.515 96.1307V88.5341ZM209.421 93.4062V98H208.248V87.8182H209.421V91.5568H209.52C209.699 91.1624 209.968 90.8492 210.326 90.6172C210.687 90.3819 211.168 90.2642 211.768 90.2642C212.288 90.2642 212.744 90.3686 213.135 90.5774C213.526 90.7829 213.829 91.0994 214.045 91.527C214.263 91.9512 214.373 92.4915 214.373 93.1477V98H213.199V93.2273C213.199 92.6207 213.042 92.1518 212.727 91.8203C212.416 91.4856 211.983 91.3182 211.43 91.3182C211.045 91.3182 210.7 91.3994 210.395 91.5618C210.094 91.7242 209.855 91.9612 209.68 92.2727C209.507 92.5843 209.421 92.9621 209.421 93.4062Z" fill="white"/>
</g>
<g filter="url(#filter1_dd_13251_3326)">
<path d="M392.091 32L397 37H387L392.091 32Z" fill="#333333"/>
<rect x="267" y="37" width="250" height="48" rx="4" fill="#333333"/>
<path d="M279.676 48V47.1051C279.676 46.8333 279.724 46.545 279.82 46.2401C279.92 45.9318 280.062 45.6352 280.248 45.3501C280.437 45.0618 280.664 44.8116 280.929 44.5994L281.565 45.1165C281.357 45.4148 281.174 45.7263 281.018 46.0511C280.866 46.3726 280.79 46.7173 280.79 47.0852V48H279.676ZM282.863 55V47.3636H283.996V48.5568H284.096C284.255 48.1491 284.512 47.8326 284.866 47.6072C285.221 47.3786 285.647 47.2642 286.144 47.2642C286.648 47.2642 287.067 47.3786 287.402 47.6072C287.74 47.8326 288.004 48.1491 288.192 48.5568H288.272C288.468 48.1624 288.761 47.8492 289.152 47.6172C289.543 47.3819 290.012 47.2642 290.559 47.2642C291.242 47.2642 291.8 47.478 292.234 47.9055C292.669 48.3298 292.886 48.991 292.886 49.8892V55H291.712V49.8892C291.712 49.3258 291.558 48.9231 291.25 48.6811C290.942 48.4392 290.579 48.3182 290.161 48.3182C289.624 48.3182 289.208 48.4806 288.913 48.8054C288.618 49.1269 288.471 49.5346 288.471 50.0284V55H287.278V49.7699C287.278 49.3357 287.137 48.986 286.855 48.7209C286.573 48.4524 286.21 48.3182 285.766 48.3182C285.461 48.3182 285.176 48.3994 284.911 48.5618C284.649 48.7242 284.437 48.9496 284.275 49.2379C284.116 49.523 284.036 49.8527 284.036 50.2273V55H282.863ZM297.914 55.1591C297.278 55.1591 296.716 54.9983 296.229 54.6768C295.742 54.352 295.361 53.8946 295.086 53.3047C294.81 52.7114 294.673 52.0104 294.673 51.2017C294.673 50.3996 294.81 49.7036 295.086 49.1136C295.361 48.5237 295.743 48.0679 296.234 47.7464C296.725 47.425 297.291 47.2642 297.934 47.2642C298.431 47.2642 298.824 47.3471 299.113 47.5128C299.404 47.6752 299.626 47.8608 299.779 48.0696C299.935 48.2751 300.056 48.4441 300.142 48.5767H300.241V44.8182H301.414V55H300.281V53.8267H300.142C300.056 53.9659 299.933 54.1416 299.774 54.3537C299.615 54.5625 299.388 54.7498 299.093 54.9155C298.798 55.0779 298.405 55.1591 297.914 55.1591ZM298.074 54.1051C298.544 54.1051 298.942 53.9825 299.267 53.7372C299.592 53.4886 299.838 53.1456 300.007 52.7081C300.176 52.2673 300.261 51.7585 300.261 51.1818C300.261 50.6117 300.178 50.1129 300.012 49.6854C299.847 49.2545 299.601 48.9197 299.277 48.6811C298.952 48.4392 298.551 48.3182 298.074 48.3182C297.576 48.3182 297.162 48.4458 296.831 48.701C296.502 48.9529 296.256 49.2959 296.09 49.7301C295.927 50.161 295.846 50.6449 295.846 51.1818C295.846 51.7254 295.929 52.2192 296.095 52.6634C296.264 53.1042 296.512 53.4555 296.841 53.7173C297.172 53.9759 297.583 54.1051 298.074 54.1051ZM304.76 44.8182V45.7131C304.76 45.9848 304.711 46.2749 304.611 46.5831C304.515 46.888 304.373 47.1847 304.184 47.473C303.998 47.758 303.773 48.0066 303.507 48.2188L302.871 47.7017C303.08 47.4034 303.261 47.0935 303.413 46.772C303.569 46.4472 303.647 46.1009 303.647 45.733V44.8182H304.76ZM310.725 48.9744V47.9006H316.85V48.9744H310.725ZM310.725 51.9176V50.8438H316.85V51.9176H310.725ZM323.394 55V54.1051L326.755 50.4261C327.149 49.9953 327.474 49.6207 327.729 49.3026C327.984 48.9811 328.173 48.6795 328.296 48.3977C328.422 48.1127 328.485 47.8144 328.485 47.5028C328.485 47.1449 328.399 46.835 328.226 46.5732C328.057 46.3113 327.825 46.1091 327.53 45.9666C327.235 45.8241 326.904 45.7528 326.536 45.7528C326.145 45.7528 325.803 45.834 325.512 45.9964C325.223 46.1555 325 46.3793 324.841 46.6676C324.685 46.956 324.607 47.294 324.607 47.6818H323.434C323.434 47.0852 323.571 46.5616 323.846 46.1108C324.121 45.66 324.496 45.3087 324.97 45.0568C325.447 44.8049 325.982 44.679 326.576 44.679C327.172 44.679 327.701 44.8049 328.162 45.0568C328.622 45.3087 328.984 45.6484 329.245 46.076C329.507 46.5036 329.638 46.9792 329.638 47.5028C329.638 47.8774 329.57 48.2436 329.434 48.6016C329.302 48.9562 329.07 49.3523 328.738 49.7898C328.41 50.224 327.954 50.7543 327.371 51.3807L325.084 53.8267V53.9062H329.817V55H323.394ZM335.052 55.1392C334.469 55.1392 333.944 55.0232 333.476 54.7912C333.009 54.5592 332.634 54.241 332.353 53.8366C332.071 53.4323 331.917 52.9716 331.89 52.4545H333.083C333.13 52.9152 333.339 53.2964 333.71 53.598C334.084 53.8963 334.532 54.0455 335.052 54.0455C335.47 54.0455 335.841 53.9477 336.166 53.7521C336.494 53.5566 336.751 53.2881 336.936 52.9467C337.125 52.602 337.22 52.2126 337.22 51.7784C337.22 51.3343 337.122 50.9382 336.926 50.5902C336.734 50.2389 336.469 49.9621 336.131 49.7599C335.793 49.5578 335.407 49.455 334.973 49.4517C334.661 49.4484 334.341 49.4964 334.013 49.5959C333.685 49.692 333.415 49.8163 333.203 49.9688L332.049 49.8295L332.666 44.8182H337.956V45.9119H333.7L333.342 48.9148H333.402C333.61 48.7491 333.872 48.6115 334.187 48.5021C334.502 48.3928 334.83 48.3381 335.172 48.3381C335.795 48.3381 336.35 48.4872 336.837 48.7855C337.328 49.0805 337.712 49.4848 337.99 49.9986C338.272 50.5123 338.413 51.099 338.413 51.7585C338.413 52.4081 338.267 52.9882 337.975 53.4986C337.687 54.0057 337.289 54.4067 336.782 54.7017C336.275 54.9934 335.699 55.1392 335.052 55.1392ZM343.709 55.1392C342.96 55.1392 342.322 54.9354 341.795 54.5277C341.268 54.1167 340.865 53.5218 340.587 52.7429C340.308 51.9607 340.169 51.0161 340.169 49.9091C340.169 48.8087 340.308 47.8691 340.587 47.0902C340.869 46.308 341.273 45.7114 341.8 45.3004C342.33 44.8861 342.967 44.679 343.709 44.679C344.451 44.679 345.086 44.8861 345.613 45.3004C346.143 45.7114 346.548 46.308 346.826 47.0902C347.108 47.8691 347.249 48.8087 347.249 49.9091C347.249 51.0161 347.11 51.9607 346.831 52.7429C346.553 53.5218 346.15 54.1167 345.623 54.5277C345.096 54.9354 344.458 55.1392 343.709 55.1392ZM343.709 54.0455C344.451 54.0455 345.028 53.6875 345.439 52.9716C345.85 52.2557 346.056 51.2348 346.056 49.9091C346.056 49.0275 345.961 48.2768 345.772 47.657C345.587 47.0372 345.318 46.5649 344.967 46.2401C344.619 45.9152 344.2 45.7528 343.709 45.7528C342.973 45.7528 342.398 46.1158 341.984 46.8416C341.57 47.5642 341.362 48.5866 341.362 49.9091C341.362 50.7907 341.455 51.5398 341.641 52.1562C341.826 52.7727 342.093 53.2417 342.441 53.5632C342.793 53.8847 343.215 54.0455 343.709 54.0455ZM349.158 57.8636V47.3636H350.291V48.5767H350.431C350.517 48.4441 350.636 48.2751 350.789 48.0696C350.944 47.8608 351.166 47.6752 351.455 47.5128C351.746 47.3471 352.141 47.2642 352.638 47.2642C353.281 47.2642 353.848 47.425 354.338 47.7464C354.829 48.0679 355.212 48.5237 355.487 49.1136C355.762 49.7036 355.899 50.3996 355.899 51.2017C355.899 52.0104 355.762 52.7114 355.487 53.3047C355.212 53.8946 354.83 54.352 354.343 54.6768C353.856 54.9983 353.294 55.1591 352.658 55.1591C352.167 55.1591 351.775 55.0779 351.48 54.9155C351.185 54.7498 350.958 54.5625 350.798 54.3537C350.639 54.1416 350.517 53.9659 350.431 53.8267H350.331V57.8636H349.158ZM350.311 51.1818C350.311 51.7585 350.396 52.2673 350.565 52.7081C350.734 53.1456 350.981 53.4886 351.306 53.7372C351.63 53.9825 352.028 54.1051 352.499 54.1051C352.989 54.1051 353.399 53.9759 353.727 53.7173C354.058 53.4555 354.307 53.1042 354.472 52.6634C354.642 52.2192 354.726 51.7254 354.726 51.1818C354.726 50.6449 354.643 50.161 354.477 49.7301C354.315 49.2959 354.068 48.9529 353.737 48.701C353.409 48.4458 352.996 48.3182 352.499 48.3182C352.021 48.3182 351.62 48.4392 351.296 48.6811C350.971 48.9197 350.726 49.2545 350.56 49.6854C350.394 50.1129 350.311 50.6117 350.311 51.1818ZM358.25 47.3636L360.079 50.4858L361.909 47.3636H363.261L360.795 51.1818L363.261 55H361.909L360.079 52.0369L358.25 55H356.897L359.324 51.1818L356.897 47.3636H358.25ZM368.475 45.9119V44.8182H376.111V45.9119H372.91V55H371.677V45.9119H368.475ZM379.028 50.4062V55H377.855V44.8182H379.028V48.5568H379.128C379.307 48.1624 379.575 47.8492 379.933 47.6172C380.295 47.3819 380.775 47.2642 381.375 47.2642C381.895 47.2642 382.351 47.3686 382.742 47.5774C383.133 47.7829 383.437 48.0994 383.652 48.527C383.871 48.9512 383.98 49.4915 383.98 50.1477V55H382.807V50.2273C382.807 49.6207 382.649 49.1518 382.335 48.8203C382.023 48.4856 381.59 48.3182 381.037 48.3182C380.652 48.3182 380.308 48.3994 380.003 48.5618C379.701 48.7242 379.463 48.9612 379.287 49.2727C379.115 49.5843 379.028 49.9621 379.028 50.4062ZM386.127 55V47.3636H387.3V55H386.127ZM386.723 46.0909C386.494 46.0909 386.297 46.013 386.132 45.8572C385.969 45.7015 385.888 45.5142 385.888 45.2955C385.888 45.0767 385.969 44.8894 386.132 44.7337C386.297 44.5779 386.494 44.5 386.723 44.5C386.952 44.5 387.147 44.5779 387.31 44.7337C387.476 44.8894 387.558 45.0767 387.558 45.2955C387.558 45.5142 387.476 45.7015 387.31 45.8572C387.147 46.013 386.952 46.0909 386.723 46.0909ZM394.858 49.0739L393.804 49.3722C393.738 49.1965 393.64 49.0258 393.511 48.8601C393.385 48.6911 393.212 48.5518 392.994 48.4425C392.775 48.3331 392.495 48.2784 392.153 48.2784C391.686 48.2784 391.297 48.3861 390.985 48.6016C390.677 48.8137 390.523 49.0838 390.523 49.4119C390.523 49.7036 390.629 49.9339 390.841 50.103C391.053 50.272 391.384 50.4129 391.835 50.5256L392.969 50.804C393.652 50.9697 394.16 51.2232 394.495 51.5646C394.83 51.9027 394.997 52.3385 394.997 52.8722C394.997 53.3097 394.871 53.7008 394.619 54.0455C394.371 54.3902 394.023 54.6619 393.575 54.8608C393.128 55.0597 392.607 55.1591 392.014 55.1591C391.235 55.1591 390.591 54.9901 390.08 54.652C389.57 54.3139 389.247 53.8201 389.111 53.1705L390.224 52.892C390.33 53.303 390.531 53.6113 390.826 53.8168C391.124 54.0223 391.514 54.125 391.994 54.125C392.541 54.125 392.975 54.009 393.297 53.777C393.622 53.5417 393.784 53.2599 393.784 52.9318C393.784 52.6667 393.691 52.4446 393.506 52.2656C393.32 52.0833 393.035 51.9474 392.651 51.858L391.378 51.5597C390.679 51.3939 390.165 51.1371 389.837 50.7891C389.512 50.4377 389.349 49.9986 389.349 49.4716C389.349 49.0407 389.47 48.6596 389.712 48.3281C389.958 47.9967 390.291 47.7365 390.712 47.5476C391.136 47.3587 391.616 47.2642 392.153 47.2642C392.909 47.2642 393.502 47.4299 393.933 47.7614C394.367 48.0928 394.676 48.5303 394.858 49.0739ZM400.701 55V47.3636H401.874V55H400.701ZM401.297 46.0909C401.069 46.0909 400.872 46.013 400.706 45.8572C400.543 45.7015 400.462 45.5142 400.462 45.2955C400.462 45.0767 400.543 44.8894 400.706 44.7337C400.872 44.5779 401.069 44.5 401.297 44.5C401.526 44.5 401.722 44.5779 401.884 44.7337C402.05 44.8894 402.133 45.0767 402.133 45.2955C402.133 45.5142 402.05 45.7015 401.884 45.8572C401.722 46.013 401.526 46.0909 401.297 46.0909ZM409.432 49.0739L408.378 49.3722C408.312 49.1965 408.214 49.0258 408.085 48.8601C407.959 48.6911 407.787 48.5518 407.568 48.4425C407.349 48.3331 407.069 48.2784 406.728 48.2784C406.26 48.2784 405.871 48.3861 405.559 48.6016C405.251 48.8137 405.097 49.0838 405.097 49.4119C405.097 49.7036 405.203 49.9339 405.415 50.103C405.627 50.272 405.959 50.4129 406.409 50.5256L407.543 50.804C408.226 50.9697 408.734 51.2232 409.069 51.5646C409.404 51.9027 409.571 52.3385 409.571 52.8722C409.571 53.3097 409.445 53.7008 409.194 54.0455C408.945 54.3902 408.597 54.6619 408.15 54.8608C407.702 55.0597 407.182 55.1591 406.588 55.1591C405.81 55.1591 405.165 54.9901 404.654 54.652C404.144 54.3139 403.821 53.8201 403.685 53.1705L404.799 52.892C404.905 53.303 405.105 53.6113 405.4 53.8168C405.699 54.0223 406.088 54.125 406.569 54.125C407.115 54.125 407.55 54.009 407.871 53.777C408.196 53.5417 408.358 53.2599 408.358 52.9318C408.358 52.6667 408.266 52.4446 408.08 52.2656C407.894 52.0833 407.609 51.9474 407.225 51.858L405.952 51.5597C405.253 51.3939 404.739 51.1371 404.411 50.7891C404.086 50.4377 403.924 49.9986 403.924 49.4716C403.924 49.0407 404.045 48.6596 404.287 48.3281C404.532 47.9967 404.865 47.7365 405.286 47.5476C405.71 47.3587 406.191 47.2642 406.728 47.2642C407.483 47.2642 408.077 47.4299 408.507 47.7614C408.942 48.0928 409.25 48.5303 409.432 49.0739ZM418.596 47.3636V48.358H414.639V47.3636H418.596ZM415.792 45.5341H416.965V52.8125C416.965 53.1439 417.013 53.3925 417.11 53.5582C417.209 53.7206 417.335 53.83 417.487 53.8864C417.643 53.9394 417.807 53.9659 417.98 53.9659C418.109 53.9659 418.215 53.9593 418.298 53.946C418.381 53.9295 418.447 53.9162 418.497 53.9062L418.735 54.9602C418.656 54.9901 418.545 55.0199 418.402 55.0497C418.26 55.0829 418.079 55.0994 417.86 55.0994C417.529 55.0994 417.204 55.0282 416.886 54.8857C416.571 54.7431 416.309 54.526 416.1 54.2344C415.895 53.9427 415.792 53.5748 415.792 53.1307V45.5341ZM421.698 50.4062V55H420.525V44.8182H421.698V48.5568H421.798C421.977 48.1624 422.245 47.8492 422.603 47.6172C422.964 47.3819 423.445 47.2642 424.045 47.2642C424.565 47.2642 425.021 47.3686 425.412 47.5774C425.803 47.7829 426.106 48.0994 426.322 48.527C426.541 48.9512 426.65 49.4915 426.65 50.1477V55H425.477V50.2273C425.477 49.6207 425.319 49.1518 425.004 48.8203C424.693 48.4856 424.26 48.3182 423.707 48.3182C423.322 48.3182 422.978 48.3994 422.673 48.5618C422.371 48.7242 422.133 48.9612 421.957 49.2727C421.785 49.5843 421.698 49.9621 421.698 50.4062ZM431.998 55.1591C431.262 55.1591 430.628 54.9967 430.094 54.6719C429.564 54.3438 429.154 53.8864 428.866 53.2997C428.581 52.7098 428.439 52.0237 428.439 51.2415C428.439 50.4593 428.581 49.7699 428.866 49.1733C429.154 48.5734 429.556 48.1061 430.069 47.7713C430.586 47.4332 431.19 47.2642 431.879 47.2642C432.277 47.2642 432.669 47.3305 433.057 47.4631C433.445 47.5956 433.798 47.8111 434.116 48.1094C434.434 48.4044 434.688 48.7955 434.877 49.2827C435.066 49.7699 435.16 50.3698 435.16 51.0824V51.5795H429.274V50.5653H433.967C433.967 50.1345 433.881 49.75 433.708 49.4119C433.539 49.0739 433.297 48.8071 432.983 48.6115C432.671 48.416 432.303 48.3182 431.879 48.3182C431.412 48.3182 431.007 48.4342 430.666 48.6662C430.328 48.8949 430.068 49.1932 429.885 49.5611C429.703 49.929 429.612 50.3234 429.612 50.7443V51.4205C429.612 51.9972 429.711 52.486 429.91 52.8871C430.112 53.2848 430.392 53.5881 430.75 53.7969C431.108 54.0024 431.524 54.1051 431.998 54.1051C432.306 54.1051 432.585 54.062 432.833 53.9759C433.085 53.8864 433.302 53.7538 433.485 53.5781C433.667 53.3991 433.808 53.1771 433.907 52.9119L435.041 53.2301C434.922 53.6146 434.721 53.9527 434.439 54.2443C434.158 54.5327 433.81 54.758 433.395 54.9205C432.981 55.0795 432.515 55.1591 431.998 55.1591ZM444.184 55H441.042V44.8182H444.323C445.31 44.8182 446.156 45.022 446.858 45.4297C447.561 45.834 448.1 46.4157 448.474 47.1747C448.849 47.9304 449.036 48.8352 449.036 49.8892C449.036 50.9498 448.847 51.8629 448.469 52.6286C448.091 53.3909 447.541 53.9775 446.819 54.3885C446.096 54.7962 445.218 55 444.184 55ZM442.275 53.9062H444.104C444.946 53.9062 445.644 53.7438 446.197 53.419C446.751 53.0942 447.163 52.6319 447.435 52.032C447.707 51.4321 447.843 50.7178 447.843 49.8892C447.843 49.0672 447.708 48.3596 447.44 47.7663C447.172 47.1697 446.77 46.7124 446.237 46.3942C445.703 46.0727 445.039 45.9119 444.243 45.9119H442.275V53.9062ZM451.104 55V44.8182H457.249V45.9119H452.337V49.3523H456.931V50.446H452.337V53.9062H457.328V55H451.104ZM459.471 55V44.8182H465.576V45.9119H460.704V49.3523H465.119V50.446H460.704V55H459.471ZM466.834 55H465.542L469.28 44.8182H470.553L474.292 55H472.999L469.956 46.429H469.877L466.834 55ZM467.311 51.0227H472.522V52.1165H467.311V51.0227ZM482.559 44.8182H483.792V51.5597C483.792 52.2557 483.628 52.8771 483.3 53.424C482.975 53.9676 482.516 54.3968 481.923 54.7116C481.33 55.0232 480.634 55.179 479.835 55.179C479.036 55.179 478.34 55.0232 477.747 54.7116C477.154 54.3968 476.693 53.9676 476.365 53.424C476.04 52.8771 475.877 52.2557 475.877 51.5597V44.8182H477.11V51.4602C477.11 51.9574 477.22 52.3999 477.439 52.7876C477.657 53.1721 477.969 53.4754 478.373 53.6974C478.781 53.9162 479.268 54.0256 479.835 54.0256C480.402 54.0256 480.889 53.9162 481.297 53.6974C481.704 53.4754 482.016 53.1721 482.231 52.7876C482.45 52.3999 482.559 51.9574 482.559 51.4602V44.8182ZM486.254 55V44.8182H487.487V53.9062H492.22V55H486.254ZM492.219 45.9119V44.8182H499.855V45.9119H496.654V55H495.421V45.9119H492.219ZM280.074 77V69.3636H281.207V70.5568H281.307C281.466 70.1491 281.723 69.8326 282.077 69.6072C282.432 69.3786 282.858 69.2642 283.355 69.2642C283.859 69.2642 284.278 69.3786 284.613 69.6072C284.951 69.8326 285.214 70.1491 285.403 70.5568H285.483C285.679 70.1624 285.972 69.8492 286.363 69.6172C286.754 69.3819 287.223 69.2642 287.77 69.2642C288.453 69.2642 289.011 69.478 289.445 69.9055C289.879 70.3298 290.097 70.991 290.097 71.8892V77H288.923V71.8892C288.923 71.3258 288.769 70.9231 288.461 70.6811C288.153 70.4392 287.79 70.3182 287.372 70.3182C286.835 70.3182 286.419 70.4806 286.124 70.8054C285.829 71.1269 285.682 71.5346 285.682 72.0284V77H284.489V71.7699C284.489 71.3357 284.348 70.986 284.066 70.7209C283.784 70.4524 283.421 70.3182 282.977 70.3182C282.672 70.3182 282.387 70.3994 282.122 70.5618C281.86 70.7242 281.648 70.9496 281.486 71.2379C281.327 71.523 281.247 71.8527 281.247 72.2273V77H280.074ZM294.489 77.179C294.005 77.179 293.566 77.0878 293.172 76.9055C292.777 76.7199 292.464 76.4531 292.232 76.1051C292 75.7538 291.884 75.3295 291.884 74.8324C291.884 74.3949 291.97 74.0402 292.142 73.7685C292.315 73.4934 292.545 73.2779 292.833 73.1222C293.122 72.9664 293.44 72.8504 293.788 72.7741C294.139 72.6946 294.492 72.6316 294.847 72.5852C295.311 72.5256 295.687 72.4808 295.975 72.451C296.267 72.4179 296.479 72.3632 296.612 72.2869C296.748 72.2107 296.816 72.0781 296.816 71.8892V71.8494C296.816 71.3589 296.681 70.9777 296.413 70.706C296.148 70.4342 295.745 70.2983 295.205 70.2983C294.645 70.2983 294.206 70.4209 293.887 70.6662C293.569 70.9115 293.346 71.1733 293.216 71.4517L292.103 71.054C292.301 70.59 292.567 70.2287 292.898 69.9702C293.233 69.7083 293.597 69.526 293.992 69.4233C294.39 69.3172 294.781 69.2642 295.165 69.2642C295.41 69.2642 295.692 69.294 296.01 69.3537C296.332 69.41 296.642 69.5277 296.94 69.7067C297.242 69.8857 297.492 70.1558 297.691 70.517C297.89 70.8783 297.989 71.3622 297.989 71.9688V77H296.816V75.9659H296.756C296.676 76.1316 296.544 76.3089 296.358 76.4979C296.173 76.6868 295.926 76.8475 295.618 76.9801C295.309 77.1127 294.933 77.179 294.489 77.179ZM294.668 76.125C295.132 76.125 295.523 76.0339 295.841 75.8516C296.163 75.6693 296.405 75.4339 296.567 75.1456C296.733 74.8572 296.816 74.554 296.816 74.2358V73.1619C296.766 73.2216 296.657 73.2763 296.488 73.326C296.322 73.3724 296.13 73.4138 295.911 73.4503C295.695 73.4834 295.485 73.5133 295.279 73.5398C295.077 73.563 294.913 73.5829 294.787 73.5994C294.482 73.6392 294.197 73.7038 293.932 73.7933C293.67 73.8795 293.458 74.0104 293.296 74.1861C293.137 74.3584 293.057 74.5937 293.057 74.892C293.057 75.2997 293.208 75.608 293.51 75.8168C293.815 76.0223 294.201 76.125 294.668 76.125ZM301.006 69.3636L302.835 72.4858L304.665 69.3636H306.017L303.551 73.1818L306.017 77H304.665L302.835 74.0369L301.006 77H299.653L302.079 73.1818L299.653 69.3636H301.006ZM309.7 77L306.915 66.8182H308.168L310.296 75.1108H310.396L312.563 66.8182H313.955L316.123 75.1108H316.222L318.35 66.8182H319.603L316.819 77H315.546L313.299 68.8864H313.219L310.972 77H309.7ZM320.98 77V69.3636H322.153V77H320.98ZM321.577 68.0909C321.348 68.0909 321.151 68.013 320.985 67.8572C320.823 67.7015 320.741 67.5142 320.741 67.2955C320.741 67.0767 320.823 66.8894 320.985 66.7337C321.151 66.5779 321.348 66.5 321.577 66.5C321.805 66.5 322.001 66.5779 322.163 66.7337C322.329 66.8894 322.412 67.0767 322.412 67.2955C322.412 67.5142 322.329 67.7015 322.163 67.8572C322.001 68.013 321.805 68.0909 321.577 68.0909ZM327.186 77.1591C326.55 77.1591 325.988 76.9983 325.501 76.6768C325.013 76.352 324.632 75.8946 324.357 75.3047C324.082 74.7114 323.944 74.0104 323.944 73.2017C323.944 72.3996 324.082 71.7036 324.357 71.1136C324.632 70.5237 325.015 70.0679 325.506 69.7464C325.996 69.425 326.563 69.2642 327.206 69.2642C327.703 69.2642 328.096 69.3471 328.384 69.5128C328.676 69.6752 328.898 69.8608 329.05 70.0696C329.206 70.2751 329.327 70.4441 329.413 70.5767H329.513V66.8182H330.686V77H329.552V75.8267H329.413C329.327 75.9659 329.204 76.1416 329.045 76.3537C328.886 76.5625 328.659 76.7498 328.364 76.9155C328.069 77.0779 327.676 77.1591 327.186 77.1591ZM327.345 76.1051C327.816 76.1051 328.213 75.9825 328.538 75.7372C328.863 75.4886 329.11 75.1456 329.279 74.7081C329.448 74.2673 329.532 73.7585 329.532 73.1818C329.532 72.6117 329.45 72.1129 329.284 71.6854C329.118 71.2545 328.873 70.9197 328.548 70.6811C328.223 70.4392 327.822 70.3182 327.345 70.3182C326.848 70.3182 326.434 70.4458 326.102 70.701C325.774 70.9529 325.527 71.2959 325.361 71.7301C325.199 72.161 325.118 72.6449 325.118 73.1818C325.118 73.7254 325.201 74.2192 325.366 74.6634C325.535 75.1042 325.784 75.4555 326.112 75.7173C326.443 75.9759 326.854 76.1051 327.345 76.1051ZM336.319 69.3636V70.358H332.361V69.3636H336.319ZM333.515 67.5341H334.688V74.8125C334.688 75.1439 334.736 75.3925 334.832 75.5582C334.932 75.7206 335.058 75.83 335.21 75.8864C335.366 75.9394 335.53 75.9659 335.702 75.9659C335.831 75.9659 335.938 75.9593 336.02 75.946C336.103 75.9295 336.17 75.9162 336.219 75.9062L336.458 76.9602C336.378 76.9901 336.267 77.0199 336.125 77.0497C335.982 77.0829 335.802 77.0994 335.583 77.0994C335.251 77.0994 334.927 77.0282 334.608 76.8857C334.294 76.7431 334.032 76.526 333.823 76.2344C333.617 75.9427 333.515 75.5748 333.515 75.1307V67.5341ZM339.421 72.4062V77H338.248V66.8182H339.421V70.5568H339.52C339.699 70.1624 339.968 69.8492 340.326 69.6172C340.687 69.3819 341.168 69.2642 341.768 69.2642C342.288 69.2642 342.744 69.3686 343.135 69.5774C343.526 69.7829 343.829 70.0994 344.045 70.527C344.263 70.9512 344.373 71.4915 344.373 72.1477V77H343.199V72.2273C343.199 71.6207 343.042 71.1518 342.727 70.8203C342.416 70.4856 341.983 70.3182 341.43 70.3182C341.045 70.3182 340.7 70.3994 340.395 70.5618C340.094 70.7242 339.855 70.9612 339.68 71.2727C339.507 71.5843 339.421 71.9621 339.421 72.4062Z" fill="white"/>
</g>
<g filter="url(#filter2_dd_13251_3326)">
<path d="M336.091 174L341 179H331L336.091 174Z" fill="#333333"/>
<rect x="136" y="179" width="400" height="48" rx="4" fill="#333333"/>
<path d="M148.676 190V189.105C148.676 188.833 148.724 188.545 148.82 188.24C148.92 187.932 149.062 187.635 149.248 187.35C149.437 187.062 149.664 186.812 149.929 186.599L150.565 187.116C150.357 187.415 150.174 187.726 150.018 188.051C149.866 188.373 149.79 188.717 149.79 189.085V190H148.676ZM153.036 186.818V197H151.863V186.818H153.036ZM158.268 200.023C157.701 200.023 157.214 199.95 156.806 199.804C156.398 199.661 156.059 199.473 155.787 199.237C155.518 199.005 155.305 198.757 155.145 198.491L156.08 197.835C156.186 197.974 156.32 198.134 156.483 198.312C156.645 198.495 156.867 198.652 157.149 198.785C157.434 198.921 157.807 198.989 158.268 198.989C158.884 198.989 159.393 198.839 159.794 198.541C160.195 198.243 160.395 197.776 160.395 197.139V195.588H160.296C160.21 195.727 160.087 195.9 159.928 196.105C159.772 196.307 159.547 196.488 159.252 196.647C158.96 196.803 158.566 196.881 158.069 196.881C157.452 196.881 156.899 196.735 156.408 196.443C155.921 196.152 155.535 195.727 155.25 195.17C154.968 194.614 154.827 193.937 154.827 193.142C154.827 192.36 154.965 191.679 155.24 191.099C155.515 190.515 155.898 190.065 156.388 189.746C156.879 189.425 157.446 189.264 158.089 189.264C158.586 189.264 158.98 189.347 159.272 189.513C159.567 189.675 159.792 189.861 159.948 190.07C160.107 190.275 160.23 190.444 160.316 190.577H160.435V189.364H161.569V197.219C161.569 197.875 161.42 198.409 161.121 198.82C160.826 199.234 160.429 199.537 159.928 199.729C159.431 199.925 158.877 200.023 158.268 200.023ZM158.228 195.827C158.698 195.827 159.096 195.719 159.421 195.504C159.746 195.288 159.993 194.978 160.162 194.574C160.331 194.17 160.415 193.686 160.415 193.122C160.415 192.572 160.332 192.086 160.167 191.665C160.001 191.245 159.756 190.915 159.431 190.676C159.106 190.437 158.705 190.318 158.228 190.318C157.731 190.318 157.316 190.444 156.985 190.696C156.657 190.948 156.41 191.286 156.244 191.71C156.082 192.134 156.001 192.605 156.001 193.122C156.001 193.652 156.083 194.121 156.249 194.529C156.418 194.933 156.667 195.252 156.995 195.484C157.326 195.712 157.737 195.827 158.228 195.827ZM164.751 186.818V187.713C164.751 187.985 164.701 188.275 164.601 188.583C164.505 188.888 164.363 189.185 164.174 189.473C163.988 189.758 163.763 190.007 163.498 190.219L162.861 189.702C163.07 189.403 163.251 189.094 163.403 188.772C163.559 188.447 163.637 188.101 163.637 187.733V186.818H164.751ZM170.715 190.974V189.901H176.84V190.974H170.715ZM170.715 193.918V192.844H176.84V193.918H170.715ZM183.145 194.912V193.898L187.62 186.818H188.356V188.389H187.858L184.478 193.739V193.818H190.503V194.912H183.145ZM187.938 197V194.604V194.131V186.818H189.111V197H187.938ZM195.688 197.139C194.938 197.139 194.3 196.935 193.773 196.528C193.246 196.117 192.844 195.522 192.565 194.743C192.287 193.961 192.148 193.016 192.148 191.909C192.148 190.809 192.287 189.869 192.565 189.09C192.847 188.308 193.251 187.711 193.778 187.3C194.309 186.886 194.945 186.679 195.688 186.679C196.43 186.679 197.065 186.886 197.592 187.3C198.122 187.711 198.526 188.308 198.805 189.09C199.086 189.869 199.227 190.809 199.227 191.909C199.227 193.016 199.088 193.961 198.81 194.743C198.531 195.522 198.129 196.117 197.602 196.528C197.075 196.935 196.437 197.139 195.688 197.139ZM195.688 196.045C196.43 196.045 197.007 195.687 197.418 194.972C197.829 194.256 198.034 193.235 198.034 191.909C198.034 191.027 197.94 190.277 197.751 189.657C197.565 189.037 197.297 188.565 196.945 188.24C196.597 187.915 196.178 187.753 195.688 187.753C194.952 187.753 194.377 188.116 193.962 188.842C193.548 189.564 193.341 190.587 193.341 191.909C193.341 192.791 193.434 193.54 193.619 194.156C193.805 194.773 194.072 195.242 194.42 195.563C194.771 195.885 195.194 196.045 195.688 196.045ZM204.438 197.139C203.688 197.139 203.05 196.935 202.523 196.528C201.996 196.117 201.594 195.522 201.315 194.743C201.037 193.961 200.898 193.016 200.898 191.909C200.898 190.809 201.037 189.869 201.315 189.09C201.597 188.308 202.001 187.711 202.528 187.3C203.059 186.886 203.695 186.679 204.438 186.679C205.18 186.679 205.815 186.886 206.342 187.3C206.872 187.711 207.276 188.308 207.555 189.09C207.836 189.869 207.977 190.809 207.977 191.909C207.977 193.016 207.838 193.961 207.56 194.743C207.281 195.522 206.879 196.117 206.352 196.528C205.825 196.935 205.187 197.139 204.438 197.139ZM204.438 196.045C205.18 196.045 205.757 195.687 206.168 194.972C206.579 194.256 206.784 193.235 206.784 191.909C206.784 191.027 206.69 190.277 206.501 189.657C206.315 189.037 206.047 188.565 205.695 188.24C205.347 187.915 204.928 187.753 204.438 187.753C203.702 187.753 203.127 188.116 202.712 188.842C202.298 189.564 202.091 190.587 202.091 191.909C202.091 192.791 202.184 193.54 202.369 194.156C202.555 194.773 202.822 195.242 203.17 195.563C203.521 195.885 203.944 196.045 204.438 196.045ZM209.886 199.864V189.364H211.02V190.577H211.159C211.245 190.444 211.365 190.275 211.517 190.07C211.673 189.861 211.895 189.675 212.183 189.513C212.475 189.347 212.869 189.264 213.366 189.264C214.009 189.264 214.576 189.425 215.067 189.746C215.557 190.068 215.94 190.524 216.215 191.114C216.49 191.704 216.628 192.4 216.628 193.202C216.628 194.01 216.49 194.711 216.215 195.305C215.94 195.895 215.559 196.352 215.072 196.677C214.585 196.998 214.023 197.159 213.386 197.159C212.896 197.159 212.503 197.078 212.208 196.915C211.913 196.75 211.686 196.562 211.527 196.354C211.368 196.142 211.245 195.966 211.159 195.827H211.06V199.864H209.886ZM211.04 193.182C211.04 193.759 211.124 194.267 211.293 194.708C211.462 195.146 211.709 195.489 212.034 195.737C212.359 195.982 212.757 196.105 213.227 196.105C213.718 196.105 214.127 195.976 214.455 195.717C214.787 195.455 215.035 195.104 215.201 194.663C215.37 194.219 215.455 193.725 215.455 193.182C215.455 192.645 215.372 192.161 215.206 191.73C215.044 191.296 214.797 190.953 214.465 190.701C214.137 190.446 213.724 190.318 213.227 190.318C212.75 190.318 212.349 190.439 212.024 190.681C211.699 190.92 211.454 191.254 211.288 191.685C211.123 192.113 211.04 192.612 211.04 193.182ZM218.978 189.364L220.808 192.486L222.637 189.364H223.99L221.524 193.182L223.99 197H222.637L220.808 194.037L218.978 197H217.626L220.052 193.182L217.626 189.364H218.978ZM229.203 187.912V186.818H236.84V187.912H233.638V197H232.405V187.912H229.203ZM239.757 192.406V197H238.584V186.818H239.757V190.557H239.856C240.035 190.162 240.304 189.849 240.662 189.617C241.023 189.382 241.504 189.264 242.104 189.264C242.624 189.264 243.08 189.369 243.471 189.577C243.862 189.783 244.165 190.099 244.381 190.527C244.599 190.951 244.709 191.491 244.709 192.148V197H243.535V192.227C243.535 191.621 243.378 191.152 243.063 190.82C242.751 190.486 242.319 190.318 241.765 190.318C241.381 190.318 241.036 190.399 240.731 190.562C240.43 190.724 240.191 190.961 240.015 191.273C239.843 191.584 239.757 191.962 239.757 192.406ZM246.855 197V189.364H248.028V197H246.855ZM247.452 188.091C247.223 188.091 247.026 188.013 246.86 187.857C246.698 187.701 246.616 187.514 246.616 187.295C246.616 187.077 246.698 186.889 246.86 186.734C247.026 186.578 247.223 186.5 247.452 186.5C247.68 186.5 247.876 186.578 248.038 186.734C248.204 186.889 248.287 187.077 248.287 187.295C248.287 187.514 248.204 187.701 248.038 187.857C247.876 188.013 247.68 188.091 247.452 188.091ZM255.586 191.074L254.532 191.372C254.466 191.196 254.368 191.026 254.239 190.86C254.113 190.691 253.941 190.552 253.722 190.442C253.503 190.333 253.223 190.278 252.882 190.278C252.415 190.278 252.025 190.386 251.714 190.602C251.405 190.814 251.251 191.084 251.251 191.412C251.251 191.704 251.357 191.934 251.569 192.103C251.782 192.272 252.113 192.413 252.564 192.526L253.697 192.804C254.38 192.97 254.889 193.223 255.224 193.565C255.558 193.903 255.726 194.339 255.726 194.872C255.726 195.31 255.6 195.701 255.348 196.045C255.099 196.39 254.751 196.662 254.304 196.861C253.856 197.06 253.336 197.159 252.743 197.159C251.964 197.159 251.319 196.99 250.809 196.652C250.298 196.314 249.975 195.82 249.839 195.17L250.953 194.892C251.059 195.303 251.26 195.611 251.555 195.817C251.853 196.022 252.242 196.125 252.723 196.125C253.27 196.125 253.704 196.009 254.025 195.777C254.35 195.542 254.513 195.26 254.513 194.932C254.513 194.667 254.42 194.445 254.234 194.266C254.049 194.083 253.764 193.947 253.379 193.858L252.106 193.56C251.407 193.394 250.893 193.137 250.565 192.789C250.24 192.438 250.078 191.999 250.078 191.472C250.078 191.041 250.199 190.66 250.441 190.328C250.686 189.997 251.019 189.737 251.44 189.548C251.864 189.359 252.345 189.264 252.882 189.264C253.638 189.264 254.231 189.43 254.662 189.761C255.096 190.093 255.404 190.53 255.586 191.074ZM261.429 197V189.364H262.603V197H261.429ZM262.026 188.091C261.797 188.091 261.6 188.013 261.434 187.857C261.272 187.701 261.191 187.514 261.191 187.295C261.191 187.077 261.272 186.889 261.434 186.734C261.6 186.578 261.797 186.5 262.026 186.5C262.255 186.5 262.45 186.578 262.613 186.734C262.778 186.889 262.861 187.077 262.861 187.295C262.861 187.514 262.778 187.701 262.613 187.857C262.45 188.013 262.255 188.091 262.026 188.091ZM270.161 191.074L269.107 191.372C269.04 191.196 268.943 191.026 268.813 190.86C268.687 190.691 268.515 190.552 268.296 190.442C268.078 190.333 267.798 190.278 267.456 190.278C266.989 190.278 266.599 190.386 266.288 190.602C265.98 190.814 265.825 191.084 265.825 191.412C265.825 191.704 265.932 191.934 266.144 192.103C266.356 192.272 266.687 192.413 267.138 192.526L268.271 192.804C268.954 192.97 269.463 193.223 269.798 193.565C270.133 193.903 270.3 194.339 270.3 194.872C270.3 195.31 270.174 195.701 269.922 196.045C269.673 196.39 269.325 196.662 268.878 196.861C268.431 197.06 267.91 197.159 267.317 197.159C266.538 197.159 265.893 196.99 265.383 196.652C264.873 196.314 264.549 195.82 264.414 195.17L265.527 194.892C265.633 195.303 265.834 195.611 266.129 195.817C266.427 196.022 266.816 196.125 267.297 196.125C267.844 196.125 268.278 196.009 268.6 195.777C268.924 195.542 269.087 195.26 269.087 194.932C269.087 194.667 268.994 194.445 268.808 194.266C268.623 194.083 268.338 193.947 267.953 193.858L266.681 193.56C265.981 193.394 265.468 193.137 265.139 192.789C264.815 192.438 264.652 191.999 264.652 191.472C264.652 191.041 264.773 190.66 265.015 190.328C265.26 189.997 265.593 189.737 266.014 189.548C266.439 189.359 266.919 189.264 267.456 189.264C268.212 189.264 268.805 189.43 269.236 189.761C269.67 190.093 269.978 190.53 270.161 191.074ZM279.325 189.364V190.358H275.367V189.364H279.325ZM276.521 187.534H277.694V194.812C277.694 195.144 277.742 195.393 277.838 195.558C277.938 195.721 278.063 195.83 278.216 195.886C278.372 195.939 278.536 195.966 278.708 195.966C278.837 195.966 278.943 195.959 279.026 195.946C279.109 195.929 279.175 195.916 279.225 195.906L279.464 196.96C279.384 196.99 279.273 197.02 279.131 197.05C278.988 197.083 278.808 197.099 278.589 197.099C278.257 197.099 277.933 197.028 277.614 196.886C277.299 196.743 277.038 196.526 276.829 196.234C276.623 195.943 276.521 195.575 276.521 195.131V187.534ZM282.427 192.406V197H281.254V186.818H282.427V190.557H282.526C282.705 190.162 282.974 189.849 283.332 189.617C283.693 189.382 284.174 189.264 284.773 189.264C285.294 189.264 285.75 189.369 286.141 189.577C286.532 189.783 286.835 190.099 287.05 190.527C287.269 190.951 287.379 191.491 287.379 192.148V197H286.205V192.227C286.205 191.621 286.048 191.152 285.733 190.82C285.421 190.486 284.989 190.318 284.435 190.318C284.051 190.318 283.706 190.399 283.401 190.562C283.1 190.724 282.861 190.961 282.685 191.273C282.513 191.584 282.427 191.962 282.427 192.406ZM292.727 197.159C291.991 197.159 291.356 196.997 290.823 196.672C290.292 196.344 289.883 195.886 289.595 195.3C289.31 194.71 289.167 194.024 289.167 193.241C289.167 192.459 289.31 191.77 289.595 191.173C289.883 190.573 290.284 190.106 290.798 189.771C291.315 189.433 291.918 189.264 292.607 189.264C293.005 189.264 293.398 189.33 293.786 189.463C294.173 189.596 294.526 189.811 294.845 190.109C295.163 190.404 295.416 190.795 295.605 191.283C295.794 191.77 295.889 192.37 295.889 193.082V193.58H290.002V192.565H294.695C294.695 192.134 294.609 191.75 294.437 191.412C294.268 191.074 294.026 190.807 293.711 190.612C293.4 190.416 293.032 190.318 292.607 190.318C292.14 190.318 291.736 190.434 291.394 190.666C291.056 190.895 290.796 191.193 290.614 191.561C290.432 191.929 290.34 192.323 290.34 192.744V193.42C290.34 193.997 290.44 194.486 290.639 194.887C290.841 195.285 291.121 195.588 291.479 195.797C291.837 196.002 292.253 196.105 292.727 196.105C293.035 196.105 293.313 196.062 293.562 195.976C293.814 195.886 294.031 195.754 294.213 195.578C294.396 195.399 294.536 195.177 294.636 194.912L295.769 195.23C295.65 195.615 295.45 195.953 295.168 196.244C294.886 196.533 294.538 196.758 294.124 196.92C293.709 197.08 293.244 197.159 292.727 197.159ZM304.932 189.364V190.358H300.975V189.364H304.932ZM302.128 187.534H303.301V194.812C303.301 195.144 303.349 195.393 303.445 195.558C303.545 195.721 303.671 195.83 303.823 195.886C303.979 195.939 304.143 195.966 304.316 195.966C304.445 195.966 304.551 195.959 304.634 195.946C304.717 195.929 304.783 195.916 304.833 195.906L305.071 196.96C304.992 196.99 304.881 197.02 304.738 197.05C304.596 197.083 304.415 197.099 304.196 197.099C303.865 197.099 303.54 197.028 303.222 196.886C302.907 196.743 302.645 196.526 302.436 196.234C302.231 195.943 302.128 195.575 302.128 195.131V187.534ZM309.717 197.159C309.028 197.159 308.423 196.995 307.903 196.667C307.385 196.339 306.981 195.88 306.689 195.29C306.401 194.7 306.257 194.01 306.257 193.222C306.257 192.426 306.401 191.732 306.689 191.138C306.981 190.545 307.385 190.085 307.903 189.756C308.423 189.428 309.028 189.264 309.717 189.264C310.407 189.264 311.01 189.428 311.527 189.756C312.047 190.085 312.452 190.545 312.74 191.138C313.032 191.732 313.177 192.426 313.177 193.222C313.177 194.01 313.032 194.7 312.74 195.29C312.452 195.88 312.047 196.339 311.527 196.667C311.01 196.995 310.407 197.159 309.717 197.159ZM309.717 196.105C310.241 196.105 310.672 195.971 311.01 195.702C311.348 195.434 311.598 195.081 311.76 194.643C311.923 194.206 312.004 193.732 312.004 193.222C312.004 192.711 311.923 192.236 311.76 191.795C311.598 191.354 311.348 190.998 311.01 190.726C310.672 190.454 310.241 190.318 309.717 190.318C309.193 190.318 308.763 190.454 308.425 190.726C308.086 190.998 307.836 191.354 307.674 191.795C307.511 192.236 307.43 192.711 307.43 193.222C307.43 193.732 307.511 194.206 307.674 194.643C307.836 195.081 308.086 195.434 308.425 195.702C308.763 195.971 309.193 196.105 309.717 196.105ZM318.071 197.159C317.381 197.159 316.776 196.995 316.256 196.667C315.739 196.339 315.335 195.88 315.043 195.29C314.755 194.7 314.61 194.01 314.61 193.222C314.61 192.426 314.755 191.732 315.043 191.138C315.335 190.545 315.739 190.085 316.256 189.756C316.776 189.428 317.381 189.264 318.071 189.264C318.76 189.264 319.363 189.428 319.88 189.756C320.401 190.085 320.805 190.545 321.093 191.138C321.385 191.732 321.531 192.426 321.531 193.222C321.531 194.01 321.385 194.7 321.093 195.29C320.805 195.88 320.401 196.339 319.88 196.667C319.363 196.995 318.76 197.159 318.071 197.159ZM318.071 196.105C318.594 196.105 319.025 195.971 319.363 195.702C319.701 195.434 319.952 195.081 320.114 194.643C320.276 194.206 320.358 193.732 320.358 193.222C320.358 192.711 320.276 192.236 320.114 191.795C319.952 191.354 319.701 190.998 319.363 190.726C319.025 190.454 318.594 190.318 318.071 190.318C317.547 190.318 317.116 190.454 316.778 190.726C316.44 190.998 316.19 191.354 316.027 191.795C315.865 192.236 315.784 192.711 315.784 193.222C315.784 193.732 315.865 194.206 316.027 194.643C316.19 195.081 316.44 195.434 316.778 195.702C317.116 195.971 317.547 196.105 318.071 196.105ZM324.495 186.818V197H323.322V186.818H324.495ZM329.965 189.364V190.358H326.008V189.364H329.965ZM327.161 187.534H328.335V194.812C328.335 195.144 328.383 195.393 328.479 195.558C328.578 195.721 328.704 195.83 328.857 195.886C329.012 195.939 329.176 195.966 329.349 195.966C329.478 195.966 329.584 195.959 329.667 195.946C329.75 195.929 329.816 195.916 329.866 195.906L330.104 196.96C330.025 196.99 329.914 197.02 329.771 197.05C329.629 197.083 329.448 197.099 329.229 197.099C328.898 197.099 328.573 197.028 328.255 196.886C327.94 196.743 327.678 196.526 327.469 196.234C327.264 195.943 327.161 195.575 327.161 195.131V187.534ZM331.73 197V189.364H332.903V197H331.73ZM332.327 188.091C332.098 188.091 331.901 188.013 331.735 187.857C331.573 187.701 331.491 187.514 331.491 187.295C331.491 187.077 331.573 186.889 331.735 186.734C331.901 186.578 332.098 186.5 332.327 186.5C332.555 186.5 332.751 186.578 332.913 186.734C333.079 186.889 333.162 187.077 333.162 187.295C333.162 187.514 333.079 187.701 332.913 187.857C332.751 188.013 332.555 188.091 332.327 188.091ZM335.052 199.864V189.364H336.186V190.577H336.325C336.411 190.444 336.531 190.275 336.683 190.07C336.839 189.861 337.061 189.675 337.349 189.513C337.641 189.347 338.035 189.264 338.532 189.264C339.175 189.264 339.742 189.425 340.233 189.746C340.723 190.068 341.106 190.524 341.381 191.114C341.656 191.704 341.794 192.4 341.794 193.202C341.794 194.01 341.656 194.711 341.381 195.305C341.106 195.895 340.725 196.352 340.238 196.677C339.751 196.998 339.189 197.159 338.552 197.159C338.062 197.159 337.669 197.078 337.374 196.915C337.079 196.75 336.852 196.562 336.693 196.354C336.534 196.142 336.411 195.966 336.325 195.827H336.226V199.864H335.052ZM336.206 193.182C336.206 193.759 336.29 194.267 336.459 194.708C336.628 195.146 336.875 195.489 337.2 195.737C337.525 195.982 337.923 196.105 338.393 196.105C338.884 196.105 339.293 195.976 339.621 195.717C339.953 195.455 340.201 195.104 340.367 194.663C340.536 194.219 340.621 193.725 340.621 193.182C340.621 192.645 340.538 192.161 340.372 191.73C340.21 191.296 339.963 190.953 339.631 190.701C339.303 190.446 338.89 190.318 338.393 190.318C337.916 190.318 337.515 190.439 337.19 190.681C336.865 190.92 336.62 191.254 336.454 191.685C336.289 192.113 336.206 192.612 336.206 193.182ZM350.623 197.159C349.907 197.159 349.291 196.99 348.774 196.652C348.257 196.314 347.859 195.848 347.581 195.255C347.302 194.662 347.163 193.984 347.163 193.222C347.163 192.446 347.306 191.762 347.591 191.168C347.879 190.572 348.28 190.106 348.794 189.771C349.311 189.433 349.914 189.264 350.604 189.264C351.14 189.264 351.624 189.364 352.055 189.562C352.486 189.761 352.839 190.04 353.114 190.398C353.389 190.756 353.56 191.173 353.626 191.651H352.453C352.363 191.303 352.165 190.994 351.856 190.726C351.551 190.454 351.14 190.318 350.623 190.318C350.166 190.318 349.765 190.437 349.42 190.676C349.079 190.911 348.812 191.245 348.62 191.675C348.431 192.103 348.336 192.605 348.336 193.182C348.336 193.772 348.429 194.286 348.615 194.723C348.804 195.161 349.069 195.5 349.41 195.742C349.755 195.984 350.159 196.105 350.623 196.105C350.928 196.105 351.205 196.052 351.454 195.946C351.702 195.84 351.913 195.688 352.085 195.489C352.257 195.29 352.38 195.051 352.453 194.773H353.626C353.56 195.223 353.396 195.629 353.134 195.991C352.876 196.349 352.532 196.634 352.105 196.846C351.681 197.055 351.187 197.159 350.623 197.159ZM358.444 197.159C357.754 197.159 357.149 196.995 356.629 196.667C356.112 196.339 355.708 195.88 355.416 195.29C355.128 194.7 354.983 194.01 354.983 193.222C354.983 192.426 355.128 191.732 355.416 191.138C355.708 190.545 356.112 190.085 356.629 189.756C357.149 189.428 357.754 189.264 358.444 189.264C359.133 189.264 359.736 189.428 360.253 189.756C360.774 190.085 361.178 190.545 361.466 191.138C361.758 191.732 361.904 192.426 361.904 193.222C361.904 194.01 361.758 194.7 361.466 195.29C361.178 195.88 360.774 196.339 360.253 196.667C359.736 196.995 359.133 197.159 358.444 197.159ZM358.444 196.105C358.967 196.105 359.398 195.971 359.736 195.702C360.074 195.434 360.325 195.081 360.487 194.643C360.649 194.206 360.731 193.732 360.731 193.222C360.731 192.711 360.649 192.236 360.487 191.795C360.325 191.354 360.074 190.998 359.736 190.726C359.398 190.454 358.967 190.318 358.444 190.318C357.92 190.318 357.489 190.454 357.151 190.726C356.813 190.998 356.563 191.354 356.4 191.795C356.238 192.236 356.157 192.711 356.157 193.222C356.157 193.732 356.238 194.206 356.4 194.643C356.563 195.081 356.813 195.434 357.151 195.702C357.489 195.971 357.92 196.105 358.444 196.105ZM364.868 192.406V197H363.695V189.364H364.828V190.557H364.928C365.107 190.169 365.379 189.857 365.743 189.622C366.108 189.384 366.578 189.264 367.155 189.264C367.672 189.264 368.125 189.37 368.512 189.582C368.9 189.791 369.202 190.109 369.417 190.537C369.633 190.961 369.74 191.498 369.74 192.148V197H368.567V192.227C368.567 191.627 368.411 191.16 368.1 190.825C367.788 190.487 367.361 190.318 366.817 190.318C366.443 190.318 366.108 190.399 365.813 190.562C365.521 190.724 365.291 190.961 365.122 191.273C364.953 191.584 364.868 191.962 364.868 192.406ZM375.205 189.364V190.358H371.248V189.364H375.205ZM372.401 187.534H373.575V194.812C373.575 195.144 373.623 195.393 373.719 195.558C373.818 195.721 373.944 195.83 374.097 195.886C374.253 195.939 374.417 195.966 374.589 195.966C374.718 195.966 374.824 195.959 374.907 195.946C374.99 195.929 375.056 195.916 375.106 195.906L375.345 196.96C375.265 196.99 375.154 197.02 375.012 197.05C374.869 197.083 374.688 197.099 374.47 197.099C374.138 197.099 373.813 197.028 373.495 196.886C373.18 196.743 372.919 196.526 372.71 196.234C372.504 195.943 372.401 195.575 372.401 195.131V187.534ZM380.09 197.159C379.354 197.159 378.72 196.997 378.186 196.672C377.656 196.344 377.246 195.886 376.958 195.3C376.673 194.71 376.53 194.024 376.53 193.241C376.53 192.459 376.673 191.77 376.958 191.173C377.246 190.573 377.647 190.106 378.161 189.771C378.678 189.433 379.281 189.264 379.971 189.264C380.368 189.264 380.761 189.33 381.149 189.463C381.537 189.596 381.89 189.811 382.208 190.109C382.526 190.404 382.78 190.795 382.969 191.283C383.157 191.77 383.252 192.37 383.252 193.082V193.58H377.366V192.565H382.059C382.059 192.134 381.973 191.75 381.8 191.412C381.631 191.074 381.389 190.807 381.074 190.612C380.763 190.416 380.395 190.318 379.971 190.318C379.503 190.318 379.099 190.434 378.758 190.666C378.42 190.895 378.159 191.193 377.977 191.561C377.795 191.929 377.704 192.323 377.704 192.744V193.42C377.704 193.997 377.803 194.486 378.002 194.887C378.204 195.285 378.484 195.588 378.842 195.797C379.2 196.002 379.616 196.105 380.09 196.105C380.398 196.105 380.677 196.062 380.925 195.976C381.177 195.886 381.394 195.754 381.577 195.578C381.759 195.399 381.9 195.177 381.999 194.912L383.133 195.23C383.013 195.615 382.813 195.953 382.531 196.244C382.249 196.533 381.901 196.758 381.487 196.92C381.073 197.08 380.607 197.159 380.09 197.159ZM386.21 192.406V197H385.037V189.364H386.17V190.557H386.27C386.449 190.169 386.72 189.857 387.085 189.622C387.45 189.384 387.92 189.264 388.497 189.264C389.014 189.264 389.466 189.37 389.854 189.582C390.242 189.791 390.544 190.109 390.759 190.537C390.974 190.961 391.082 191.498 391.082 192.148V197H389.909V192.227C389.909 191.627 389.753 191.16 389.442 190.825C389.13 190.487 388.702 190.318 388.159 190.318C387.784 190.318 387.45 190.399 387.155 190.562C386.863 190.724 386.633 190.961 386.464 191.273C386.295 191.584 386.21 191.962 386.21 192.406ZM396.547 189.364V190.358H392.59V189.364H396.547ZM393.743 187.534H394.917V194.812C394.917 195.144 394.965 195.393 395.061 195.558C395.16 195.721 395.286 195.83 395.439 195.886C395.594 195.939 395.758 195.966 395.931 195.966C396.06 195.966 396.166 195.959 396.249 195.946C396.332 195.929 396.398 195.916 396.448 195.906L396.686 196.96C396.607 196.99 396.496 197.02 396.353 197.05C396.211 197.083 396.03 197.099 395.811 197.099C395.48 197.099 395.155 197.028 394.837 196.886C394.522 196.743 394.26 196.526 394.051 196.234C393.846 195.943 393.743 195.575 393.743 195.131V187.534ZM399.743 186.818V187.713C399.743 187.985 399.693 188.275 399.594 188.583C399.497 188.888 399.355 189.185 399.166 189.473C398.98 189.758 398.755 190.007 398.49 190.219L397.854 189.702C398.062 189.403 398.243 189.094 398.395 188.772C398.551 188.447 398.629 188.101 398.629 187.733V186.818H399.743ZM405.622 191.074L404.568 191.372C404.501 191.196 404.404 191.026 404.274 190.86C404.148 190.691 403.976 190.552 403.757 190.442C403.539 190.333 403.258 190.278 402.917 190.278C402.45 190.278 402.06 190.386 401.749 190.602C401.441 190.814 401.286 191.084 401.286 191.412C401.286 191.704 401.392 191.934 401.605 192.103C401.817 192.272 402.148 192.413 402.599 192.526L403.732 192.804C404.415 192.97 404.924 193.223 405.259 193.565C405.593 193.903 405.761 194.339 405.761 194.872C405.761 195.31 405.635 195.701 405.383 196.045C405.134 196.39 404.786 196.662 404.339 196.861C403.892 197.06 403.371 197.159 402.778 197.159C401.999 197.159 401.354 196.99 400.844 196.652C400.334 196.314 400.01 195.82 399.874 195.17L400.988 194.892C401.094 195.303 401.295 195.611 401.59 195.817C401.888 196.022 402.277 196.125 402.758 196.125C403.305 196.125 403.739 196.009 404.061 195.777C404.385 195.542 404.548 195.26 404.548 194.932C404.548 194.667 404.455 194.445 404.269 194.266C404.084 194.083 403.799 193.947 403.414 193.858L402.142 193.56C401.442 193.394 400.928 193.137 400.6 192.789C400.276 192.438 400.113 191.999 400.113 191.472C400.113 191.041 400.234 190.66 400.476 190.328C400.721 189.997 401.054 189.737 401.475 189.548C401.9 189.359 402.38 189.264 402.917 189.264C403.673 189.264 404.266 189.43 404.697 189.761C405.131 190.093 405.439 190.53 405.622 191.074ZM411.464 197V189.364H412.598V190.557H412.697C412.857 190.149 413.113 189.833 413.468 189.607C413.823 189.379 414.249 189.264 414.746 189.264C415.25 189.264 415.669 189.379 416.004 189.607C416.342 189.833 416.605 190.149 416.794 190.557H416.874C417.069 190.162 417.362 189.849 417.754 189.617C418.145 189.382 418.614 189.264 419.161 189.264C419.843 189.264 420.402 189.478 420.836 189.906C421.27 190.33 421.487 190.991 421.487 191.889V197H420.314V191.889C420.314 191.326 420.16 190.923 419.852 190.681C419.543 190.439 419.18 190.318 418.763 190.318C418.226 190.318 417.81 190.481 417.515 190.805C417.22 191.127 417.072 191.535 417.072 192.028V197H415.879V191.77C415.879 191.336 415.738 190.986 415.457 190.721C415.175 190.452 414.812 190.318 414.368 190.318C414.063 190.318 413.778 190.399 413.513 190.562C413.251 190.724 413.039 190.95 412.876 191.238C412.717 191.523 412.638 191.853 412.638 192.227V197H411.464ZM425.88 197.179C425.396 197.179 424.957 197.088 424.562 196.906C424.168 196.72 423.855 196.453 423.623 196.105C423.391 195.754 423.275 195.33 423.275 194.832C423.275 194.395 423.361 194.04 423.533 193.768C423.705 193.493 423.936 193.278 424.224 193.122C424.512 192.966 424.831 192.85 425.179 192.774C425.53 192.695 425.883 192.632 426.238 192.585C426.702 192.526 427.078 192.481 427.366 192.451C427.658 192.418 427.87 192.363 428.002 192.287C428.138 192.211 428.206 192.078 428.206 191.889V191.849C428.206 191.359 428.072 190.978 427.804 190.706C427.538 190.434 427.136 190.298 426.596 190.298C426.035 190.298 425.596 190.421 425.278 190.666C424.96 190.911 424.736 191.173 424.607 191.452L423.493 191.054C423.692 190.59 423.957 190.229 424.289 189.97C424.623 189.708 424.988 189.526 425.382 189.423C425.78 189.317 426.171 189.264 426.556 189.264C426.801 189.264 427.083 189.294 427.401 189.354C427.722 189.41 428.032 189.528 428.331 189.707C428.632 189.886 428.882 190.156 429.081 190.517C429.28 190.878 429.38 191.362 429.38 191.969V197H428.206V195.966H428.147C428.067 196.132 427.935 196.309 427.749 196.498C427.563 196.687 427.316 196.848 427.008 196.98C426.7 197.113 426.324 197.179 425.88 197.179ZM426.059 196.125C426.523 196.125 426.914 196.034 427.232 195.852C427.553 195.669 427.795 195.434 427.958 195.146C428.123 194.857 428.206 194.554 428.206 194.236V193.162C428.157 193.222 428.047 193.276 427.878 193.326C427.712 193.372 427.52 193.414 427.301 193.45C427.086 193.483 426.876 193.513 426.67 193.54C426.468 193.563 426.304 193.583 426.178 193.599C425.873 193.639 425.588 193.704 425.323 193.793C425.061 193.879 424.849 194.01 424.686 194.186C424.527 194.358 424.448 194.594 424.448 194.892C424.448 195.3 424.599 195.608 424.9 195.817C425.205 196.022 425.591 196.125 426.059 196.125ZM432.396 189.364L434.226 192.486L436.055 189.364H437.407L434.942 193.182L437.407 197H436.055L434.226 194.037L432.396 197H431.044L433.47 193.182L431.044 189.364H432.396ZM441.09 197L438.306 186.818H439.559L441.687 195.111H441.786L443.954 186.818H445.346L447.513 195.111H447.613L449.741 186.818H450.994L448.21 197H446.937L444.69 188.886H444.61L442.363 197H441.09ZM452.371 197V189.364H453.544V197H452.371ZM452.967 188.091C452.739 188.091 452.541 188.013 452.376 187.857C452.213 187.701 452.132 187.514 452.132 187.295C452.132 187.077 452.213 186.889 452.376 186.734C452.541 186.578 452.739 186.5 452.967 186.5C453.196 186.5 453.392 186.578 453.554 186.734C453.72 186.889 453.803 187.077 453.803 187.295C453.803 187.514 453.72 187.701 453.554 187.857C453.392 188.013 453.196 188.091 452.967 188.091ZM458.577 197.159C457.94 197.159 457.378 196.998 456.891 196.677C456.404 196.352 456.023 195.895 455.748 195.305C455.473 194.711 455.335 194.01 455.335 193.202C455.335 192.4 455.473 191.704 455.748 191.114C456.023 190.524 456.406 190.068 456.896 189.746C457.387 189.425 457.953 189.264 458.596 189.264C459.094 189.264 459.486 189.347 459.775 189.513C460.066 189.675 460.288 189.861 460.441 190.07C460.597 190.275 460.718 190.444 460.804 190.577H460.903V186.818H462.077V197H460.943V195.827H460.804C460.718 195.966 460.595 196.142 460.436 196.354C460.277 196.562 460.05 196.75 459.755 196.915C459.46 197.078 459.067 197.159 458.577 197.159ZM458.736 196.105C459.206 196.105 459.604 195.982 459.929 195.737C460.254 195.489 460.501 195.146 460.67 194.708C460.839 194.267 460.923 193.759 460.923 193.182C460.923 192.612 460.84 192.113 460.675 191.685C460.509 191.254 460.264 190.92 459.939 190.681C459.614 190.439 459.213 190.318 458.736 190.318C458.238 190.318 457.824 190.446 457.493 190.701C457.165 190.953 456.918 191.296 456.752 191.73C456.59 192.161 456.508 192.645 456.508 193.182C456.508 193.725 456.591 194.219 456.757 194.663C456.926 195.104 457.175 195.455 457.503 195.717C457.834 195.976 458.245 196.105 458.736 196.105ZM467.709 189.364V190.358H463.752V189.364H467.709ZM464.905 187.534H466.079V194.812C466.079 195.144 466.127 195.393 466.223 195.558C466.322 195.721 466.448 195.83 466.601 195.886C466.756 195.939 466.921 195.966 467.093 195.966C467.222 195.966 467.328 195.959 467.411 195.946C467.494 195.929 467.56 195.916 467.61 195.906L467.849 196.96C467.769 196.99 467.658 197.02 467.515 197.05C467.373 197.083 467.192 197.099 466.974 197.099C466.642 197.099 466.317 197.028 465.999 196.886C465.684 196.743 465.422 196.526 465.214 196.234C465.008 195.943 464.905 195.575 464.905 195.131V187.534ZM470.812 192.406V197H469.638V186.818H470.812V190.557H470.911C471.09 190.162 471.358 189.849 471.716 189.617C472.078 189.382 472.558 189.264 473.158 189.264C473.679 189.264 474.134 189.369 474.525 189.577C474.916 189.783 475.22 190.099 475.435 190.527C475.654 190.951 475.763 191.491 475.763 192.148V197H474.59V192.227C474.59 191.621 474.433 191.152 474.118 190.82C473.806 190.486 473.374 190.318 472.82 190.318C472.436 190.318 472.091 190.399 471.786 190.562C471.484 190.724 471.246 190.961 471.07 191.273C470.898 191.584 470.812 191.962 470.812 192.406ZM485.168 189.364V190.358H481.211V189.364H485.168ZM482.364 187.534H483.538V194.812C483.538 195.144 483.586 195.393 483.682 195.558C483.781 195.721 483.907 195.83 484.06 195.886C484.215 195.939 484.379 195.966 484.552 195.966C484.681 195.966 484.787 195.959 484.87 195.946C484.953 195.929 485.019 195.916 485.069 195.906L485.308 196.96C485.228 196.99 485.117 197.02 484.974 197.05C484.832 197.083 484.651 197.099 484.433 197.099C484.101 197.099 483.776 197.028 483.458 196.886C483.143 196.743 482.881 196.526 482.673 196.234C482.467 195.943 482.364 195.575 482.364 195.131V187.534ZM488.271 192.406V197H487.097V186.818H488.271V190.557H488.37C488.549 190.162 488.817 189.849 489.175 189.617C489.537 189.382 490.017 189.264 490.617 189.264C491.138 189.264 491.593 189.369 491.984 189.577C492.375 189.783 492.679 190.099 492.894 190.527C493.113 190.951 493.222 191.491 493.222 192.148V197H492.049V192.227C492.049 191.621 491.892 191.152 491.577 190.82C491.265 190.486 490.833 190.318 490.279 190.318C489.895 190.318 489.55 190.399 489.245 190.562C488.943 190.724 488.705 190.961 488.529 191.273C488.357 191.584 488.271 191.962 488.271 192.406ZM497.616 197.179C497.132 197.179 496.693 197.088 496.298 196.906C495.904 196.72 495.591 196.453 495.359 196.105C495.127 195.754 495.011 195.33 495.011 194.832C495.011 194.395 495.097 194.04 495.269 193.768C495.442 193.493 495.672 193.278 495.96 193.122C496.249 192.966 496.567 192.85 496.915 192.774C497.266 192.695 497.619 192.632 497.974 192.585C498.438 192.526 498.814 192.481 499.102 192.451C499.394 192.418 499.606 192.363 499.739 192.287C499.875 192.211 499.943 192.078 499.943 191.889V191.849C499.943 191.359 499.808 190.978 499.54 190.706C499.275 190.434 498.872 190.298 498.332 190.298C497.772 190.298 497.333 190.421 497.014 190.666C496.696 190.911 496.472 191.173 496.343 191.452L495.23 191.054C495.428 190.59 495.694 190.229 496.025 189.97C496.36 189.708 496.724 189.526 497.119 189.423C497.517 189.317 497.908 189.264 498.292 189.264C498.537 189.264 498.819 189.294 499.137 189.354C499.459 189.41 499.769 189.528 500.067 189.707C500.369 189.886 500.619 190.156 500.818 190.517C501.017 190.878 501.116 191.362 501.116 191.969V197H499.943V195.966H499.883C499.803 196.132 499.671 196.309 499.485 196.498C499.3 196.687 499.053 196.848 498.744 196.98C498.436 197.113 498.06 197.179 497.616 197.179ZM497.795 196.125C498.259 196.125 498.65 196.034 498.968 195.852C499.29 195.669 499.532 195.434 499.694 195.146C499.86 194.857 499.943 194.554 499.943 194.236V193.162C499.893 193.222 499.784 193.276 499.615 193.326C499.449 193.372 499.257 193.414 499.038 193.45C498.822 193.483 498.612 193.513 498.406 193.54C498.204 193.563 498.04 193.583 497.914 193.599C497.609 193.639 497.324 193.704 497.059 193.793C496.797 193.879 496.585 194.01 496.423 194.186C496.264 194.358 496.184 194.594 496.184 194.892C496.184 195.3 496.335 195.608 496.637 195.817C496.941 196.022 497.328 196.125 497.795 196.125ZM506.578 189.364V190.358H502.621V189.364H506.578ZM503.775 187.534H504.948V194.812C504.948 195.144 504.996 195.393 505.092 195.558C505.191 195.721 505.317 195.83 505.47 195.886C505.626 195.939 505.79 195.966 505.962 195.966C506.091 195.966 506.197 195.959 506.28 195.946C506.363 195.929 506.429 195.916 506.479 195.906L506.718 196.96C506.638 196.99 506.527 197.02 506.385 197.05C506.242 197.083 506.061 197.099 505.843 197.099C505.511 197.099 505.186 197.028 504.868 196.886C504.553 196.743 504.292 196.526 504.083 196.234C503.877 195.943 503.775 195.575 503.775 195.131V187.534ZM150.804 219L148.477 211.364H149.71L151.361 217.21H151.44L153.071 211.364H154.324L155.935 217.19H156.014L157.665 211.364H158.898L156.571 219H155.418L153.747 213.134H153.628L151.957 219H150.804ZM160.449 219V211.364H161.582V212.517H161.662C161.801 212.139 162.053 211.833 162.418 211.597C162.782 211.362 163.193 211.244 163.651 211.244C163.737 211.244 163.844 211.246 163.974 211.249C164.103 211.253 164.201 211.258 164.267 211.264V212.457C164.227 212.447 164.136 212.433 163.994 212.413C163.854 212.389 163.707 212.378 163.551 212.378C163.18 212.378 162.848 212.456 162.557 212.612C162.268 212.764 162.04 212.976 161.871 213.248C161.705 213.516 161.622 213.823 161.622 214.168V219H160.449ZM167.905 219.179C167.421 219.179 166.982 219.088 166.588 218.906C166.193 218.72 165.88 218.453 165.648 218.105C165.416 217.754 165.3 217.33 165.3 216.832C165.3 216.395 165.386 216.04 165.558 215.768C165.731 215.493 165.961 215.278 166.249 215.122C166.538 214.966 166.856 214.85 167.204 214.774C167.555 214.695 167.908 214.632 168.263 214.585C168.727 214.526 169.103 214.481 169.392 214.451C169.683 214.418 169.895 214.363 170.028 214.287C170.164 214.211 170.232 214.078 170.232 213.889V213.849C170.232 213.359 170.097 212.978 169.829 212.706C169.564 212.434 169.161 212.298 168.621 212.298C168.061 212.298 167.622 212.421 167.303 212.666C166.985 212.911 166.762 213.173 166.632 213.452L165.519 213.054C165.718 212.59 165.983 212.229 166.314 211.97C166.649 211.708 167.013 211.526 167.408 211.423C167.806 211.317 168.197 211.264 168.581 211.264C168.826 211.264 169.108 211.294 169.426 211.354C169.748 211.41 170.058 211.528 170.356 211.707C170.658 211.886 170.908 212.156 171.107 212.517C171.306 212.878 171.405 213.362 171.405 213.969V219H170.232V217.966H170.172C170.093 218.132 169.96 218.309 169.774 218.498C169.589 218.687 169.342 218.848 169.034 218.98C168.725 219.113 168.349 219.179 167.905 219.179ZM168.084 218.125C168.548 218.125 168.939 218.034 169.257 217.852C169.579 217.669 169.821 217.434 169.983 217.146C170.149 216.857 170.232 216.554 170.232 216.236V215.162C170.182 215.222 170.073 215.276 169.904 215.326C169.738 215.372 169.546 215.414 169.327 215.45C169.111 215.483 168.901 215.513 168.695 215.54C168.493 215.563 168.329 215.583 168.203 215.599C167.898 215.639 167.613 215.704 167.348 215.793C167.086 215.879 166.874 216.01 166.712 216.186C166.553 216.358 166.473 216.594 166.473 216.892C166.473 217.3 166.624 217.608 166.926 217.817C167.231 218.022 167.617 218.125 168.084 218.125ZM173.547 221.864V211.364H174.68V212.577H174.819C174.905 212.444 175.025 212.275 175.177 212.07C175.333 211.861 175.555 211.675 175.843 211.513C176.135 211.347 176.529 211.264 177.027 211.264C177.67 211.264 178.236 211.425 178.727 211.746C179.217 212.068 179.6 212.524 179.875 213.114C180.15 213.704 180.288 214.4 180.288 215.202C180.288 216.01 180.15 216.711 179.875 217.305C179.6 217.895 179.219 218.352 178.732 218.677C178.245 218.998 177.683 219.159 177.047 219.159C176.556 219.159 176.163 219.078 175.868 218.915C175.573 218.75 175.346 218.562 175.187 218.354C175.028 218.142 174.905 217.966 174.819 217.827H174.72V221.864H173.547ZM174.7 215.182C174.7 215.759 174.784 216.267 174.953 216.708C175.123 217.146 175.369 217.489 175.694 217.737C176.019 217.982 176.417 218.105 176.887 218.105C177.378 218.105 177.787 217.976 178.115 217.717C178.447 217.455 178.695 217.104 178.861 216.663C179.03 216.219 179.115 215.725 179.115 215.182C179.115 214.645 179.032 214.161 178.866 213.73C178.704 213.296 178.457 212.953 178.125 212.701C177.797 212.446 177.385 212.318 176.887 212.318C176.41 212.318 176.009 212.439 175.684 212.681C175.359 212.92 175.114 213.254 174.949 213.685C174.783 214.113 174.7 214.612 174.7 215.182ZM187.487 213.074L186.433 213.372C186.367 213.196 186.269 213.026 186.14 212.86C186.014 212.691 185.841 212.552 185.623 212.442C185.404 212.333 185.124 212.278 184.782 212.278C184.315 212.278 183.926 212.386 183.614 212.602C183.306 212.814 183.152 213.084 183.152 213.412C183.152 213.704 183.258 213.934 183.47 214.103C183.682 214.272 184.013 214.413 184.464 214.526L185.598 214.804C186.28 214.97 186.789 215.223 187.124 215.565C187.459 215.903 187.626 216.339 187.626 216.872C187.626 217.31 187.5 217.701 187.248 218.045C187 218.39 186.652 218.662 186.204 218.861C185.757 219.06 185.236 219.159 184.643 219.159C183.864 219.159 183.22 218.99 182.709 218.652C182.199 218.314 181.876 217.82 181.74 217.17L182.853 216.892C182.959 217.303 183.16 217.611 183.455 217.817C183.753 218.022 184.143 218.125 184.623 218.125C185.17 218.125 185.604 218.009 185.926 217.777C186.251 217.542 186.413 217.26 186.413 216.932C186.413 216.667 186.32 216.445 186.135 216.266C185.949 216.083 185.664 215.947 185.279 215.858L184.007 215.56C183.307 215.394 182.794 215.137 182.466 214.789C182.141 214.438 181.978 213.999 181.978 213.472C181.978 213.041 182.099 212.66 182.341 212.328C182.587 211.997 182.92 211.737 183.341 211.548C183.765 211.359 184.245 211.264 184.782 211.264C185.538 211.264 186.131 211.43 186.562 211.761C186.996 212.093 187.305 212.53 187.487 213.074ZM196.651 211.364V212.358H192.693V211.364H196.651ZM193.847 209.534H195.02V216.812C195.02 217.144 195.068 217.393 195.164 217.558C195.264 217.721 195.39 217.83 195.542 217.886C195.698 217.939 195.862 217.966 196.034 217.966C196.164 217.966 196.27 217.959 196.352 217.946C196.435 217.929 196.502 217.916 196.551 217.906L196.79 218.96C196.71 218.99 196.599 219.02 196.457 219.05C196.314 219.083 196.134 219.099 195.915 219.099C195.584 219.099 195.259 219.028 194.941 218.886C194.626 218.743 194.364 218.526 194.155 218.234C193.95 217.943 193.847 217.575 193.847 217.131V209.534ZM199.753 214.406V219H198.58V208.818H199.753V212.557H199.852C200.031 212.162 200.3 211.849 200.658 211.617C201.019 211.382 201.5 211.264 202.1 211.264C202.62 211.264 203.076 211.369 203.467 211.577C203.858 211.783 204.161 212.099 204.377 212.527C204.595 212.951 204.705 213.491 204.705 214.148V219H203.531V214.227C203.531 213.621 203.374 213.152 203.059 212.82C202.748 212.486 202.315 212.318 201.762 212.318C201.377 212.318 201.032 212.399 200.727 212.562C200.426 212.724 200.187 212.961 200.012 213.273C199.839 213.584 199.753 213.962 199.753 214.406ZM210.053 219.159C209.317 219.159 208.682 218.997 208.149 218.672C207.618 218.344 207.209 217.886 206.921 217.3C206.636 216.71 206.493 216.024 206.493 215.241C206.493 214.459 206.636 213.77 206.921 213.173C207.209 212.573 207.61 212.106 208.124 211.771C208.641 211.433 209.244 211.264 209.934 211.264C210.331 211.264 210.724 211.33 211.112 211.463C211.5 211.596 211.853 211.811 212.171 212.109C212.489 212.404 212.743 212.795 212.931 213.283C213.12 213.77 213.215 214.37 213.215 215.082V215.58H207.328V214.565H212.022C212.022 214.134 211.935 213.75 211.763 213.412C211.594 213.074 211.352 212.807 211.037 212.612C210.726 212.416 210.358 212.318 209.934 212.318C209.466 212.318 209.062 212.434 208.721 212.666C208.382 212.895 208.122 213.193 207.94 213.561C207.758 213.929 207.667 214.323 207.667 214.744V215.42C207.667 215.997 207.766 216.486 207.965 216.887C208.167 217.285 208.447 217.588 208.805 217.797C209.163 218.002 209.579 218.105 210.053 218.105C210.361 218.105 210.64 218.062 210.888 217.976C211.14 217.886 211.357 217.754 211.539 217.578C211.722 217.399 211.863 217.177 211.962 216.912L213.096 217.23C212.976 217.615 212.776 217.953 212.494 218.244C212.212 218.533 211.864 218.758 211.45 218.92C211.036 219.08 210.57 219.159 210.053 219.159ZM222.258 211.364V212.358H218.301V211.364H222.258ZM219.454 209.534H220.627V216.812C220.627 217.144 220.676 217.393 220.772 217.558C220.871 217.721 220.997 217.83 221.15 217.886C221.305 217.939 221.469 217.966 221.642 217.966C221.771 217.966 221.877 217.959 221.96 217.946C222.043 217.929 222.109 217.916 222.159 217.906L222.397 218.96C222.318 218.99 222.207 219.02 222.064 219.05C221.922 219.083 221.741 219.099 221.522 219.099C221.191 219.099 220.866 219.028 220.548 218.886C220.233 218.743 219.971 218.526 219.762 218.234C219.557 217.943 219.454 217.575 219.454 217.131V209.534ZM227.143 219.159C226.407 219.159 225.772 218.997 225.239 218.672C224.708 218.344 224.299 217.886 224.011 217.3C223.726 216.71 223.583 216.024 223.583 215.241C223.583 214.459 223.726 213.77 224.011 213.173C224.299 212.573 224.7 212.106 225.214 211.771C225.731 211.433 226.334 211.264 227.023 211.264C227.421 211.264 227.814 211.33 228.202 211.463C228.589 211.596 228.942 211.811 229.261 212.109C229.579 212.404 229.832 212.795 230.021 213.283C230.21 213.77 230.305 214.37 230.305 215.082V215.58H224.418V214.565H229.112C229.112 214.134 229.025 213.75 228.853 213.412C228.684 213.074 228.442 212.807 228.127 212.612C227.816 212.416 227.448 212.318 227.023 212.318C226.556 212.318 226.152 212.434 225.81 212.666C225.472 212.895 225.212 213.193 225.03 213.561C224.848 213.929 224.756 214.323 224.756 214.744V215.42C224.756 215.997 224.856 216.486 225.055 216.887C225.257 217.285 225.537 217.588 225.895 217.797C226.253 218.002 226.669 218.105 227.143 218.105C227.451 218.105 227.729 218.062 227.978 217.976C228.23 217.886 228.447 217.754 228.629 217.578C228.812 217.399 228.952 217.177 229.052 216.912L230.185 217.23C230.066 217.615 229.866 217.953 229.584 218.244C229.302 218.533 228.954 218.758 228.54 218.92C228.125 219.08 227.66 219.159 227.143 219.159ZM232.759 211.364L234.589 214.486L236.419 211.364H237.771L235.305 215.182L237.771 219H236.419L234.589 216.037L232.759 219H231.407L233.833 215.182L231.407 211.364H232.759ZM242.766 211.364V212.358H238.809V211.364H242.766ZM239.962 209.534H241.135V216.812C241.135 217.144 241.183 217.393 241.279 217.558C241.379 217.721 241.505 217.83 241.657 217.886C241.813 217.939 241.977 217.966 242.15 217.966C242.279 217.966 242.385 217.959 242.468 217.946C242.551 217.929 242.617 217.916 242.667 217.906L242.905 218.96C242.826 218.99 242.715 219.02 242.572 219.05C242.43 219.083 242.249 219.099 242.03 219.099C241.699 219.099 241.374 219.028 241.056 218.886C240.741 218.743 240.479 218.526 240.27 218.234C240.065 217.943 239.962 217.575 239.962 217.131V209.534ZM248.468 219V211.364H249.642V219H248.468ZM249.065 210.091C248.836 210.091 248.639 210.013 248.473 209.857C248.311 209.701 248.23 209.514 248.23 209.295C248.23 209.077 248.311 208.889 248.473 208.734C248.639 208.578 248.836 208.5 249.065 208.5C249.294 208.5 249.489 208.578 249.652 208.734C249.817 208.889 249.9 209.077 249.9 209.295C249.9 209.514 249.817 209.701 249.652 209.857C249.489 210.013 249.294 210.091 249.065 210.091ZM252.964 214.406V219H251.791V211.364H252.924V212.557H253.024C253.203 212.169 253.474 211.857 253.839 211.622C254.204 211.384 254.674 211.264 255.251 211.264C255.768 211.264 256.22 211.37 256.608 211.582C256.996 211.791 257.298 212.109 257.513 212.537C257.728 212.961 257.836 213.498 257.836 214.148V219H256.663V214.227C256.663 213.627 256.507 213.16 256.195 212.825C255.884 212.487 255.456 212.318 254.913 212.318C254.538 212.318 254.204 212.399 253.909 212.562C253.617 212.724 253.387 212.961 253.218 213.273C253.048 213.584 252.964 213.962 252.964 214.406ZM263.918 219V211.364H265.051V212.557H265.151C265.31 212.149 265.567 211.833 265.921 211.607C266.276 211.379 266.702 211.264 267.199 211.264C267.703 211.264 268.122 211.379 268.457 211.607C268.795 211.833 269.058 212.149 269.247 212.557H269.327C269.522 212.162 269.816 211.849 270.207 211.617C270.598 211.382 271.067 211.264 271.614 211.264C272.296 211.264 272.855 211.478 273.289 211.906C273.723 212.33 273.94 212.991 273.94 213.889V219H272.767V213.889C272.767 213.326 272.613 212.923 272.305 212.681C271.996 212.439 271.634 212.318 271.216 212.318C270.679 212.318 270.263 212.481 269.968 212.805C269.673 213.127 269.526 213.535 269.526 214.028V219H268.332V213.77C268.332 213.336 268.192 212.986 267.91 212.721C267.628 212.452 267.265 212.318 266.821 212.318C266.516 212.318 266.231 212.399 265.966 212.562C265.704 212.724 265.492 212.95 265.33 213.238C265.17 213.523 265.091 213.853 265.091 214.227V219H263.918ZM280.898 215.878V211.364H282.071V219H280.898V217.707H280.819C280.64 218.095 280.361 218.425 279.983 218.697C279.605 218.965 279.128 219.099 278.551 219.099C278.074 219.099 277.65 218.995 277.279 218.786C276.908 218.574 276.616 218.256 276.404 217.832C276.192 217.404 276.086 216.866 276.086 216.216V211.364H277.259V216.136C277.259 216.693 277.415 217.137 277.726 217.469C278.041 217.8 278.442 217.966 278.929 217.966C279.221 217.966 279.518 217.891 279.819 217.742C280.124 217.593 280.379 217.364 280.585 217.056C280.794 216.748 280.898 216.355 280.898 215.878ZM285.394 208.818V219H284.22V208.818H285.394ZM290.864 211.364V212.358H286.906V211.364H290.864ZM288.06 209.534H289.233V216.812C289.233 217.144 289.281 217.393 289.377 217.558C289.477 217.721 289.603 217.83 289.755 217.886C289.911 217.939 290.075 217.966 290.247 217.966C290.376 217.966 290.482 217.959 290.565 217.946C290.648 217.929 290.714 217.916 290.764 217.906L291.003 218.96C290.923 218.99 290.812 219.02 290.67 219.05C290.527 219.083 290.347 219.099 290.128 219.099C289.796 219.099 289.472 219.028 289.153 218.886C288.839 218.743 288.577 218.526 288.368 218.234C288.162 217.943 288.06 217.575 288.06 217.131V209.534ZM292.629 219V211.364H293.802V219H292.629ZM293.225 210.091C292.996 210.091 292.799 210.013 292.634 209.857C292.471 209.701 292.39 209.514 292.39 209.295C292.39 209.077 292.471 208.889 292.634 208.734C292.799 208.578 292.996 208.5 293.225 208.5C293.454 208.5 293.649 208.578 293.812 208.734C293.978 208.889 294.06 209.077 294.06 209.295C294.06 209.514 293.978 209.701 293.812 209.857C293.649 210.013 293.454 210.091 293.225 210.091ZM297.124 208.818V219H295.951V208.818H297.124ZM299.273 219V211.364H300.446V219H299.273ZM299.87 210.091C299.641 210.091 299.444 210.013 299.278 209.857C299.116 209.701 299.034 209.514 299.034 209.295C299.034 209.077 299.116 208.889 299.278 208.734C299.444 208.578 299.641 208.5 299.87 208.5C300.098 208.5 300.294 208.578 300.456 208.734C300.622 208.889 300.705 209.077 300.705 209.295C300.705 209.514 300.622 209.701 300.456 209.857C300.294 210.013 300.098 210.091 299.87 210.091ZM303.769 214.406V219H302.595V211.364H303.729V212.557H303.828C304.007 212.169 304.279 211.857 304.644 211.622C305.008 211.384 305.479 211.264 306.056 211.264C306.573 211.264 307.025 211.37 307.413 211.582C307.801 211.791 308.102 212.109 308.318 212.537C308.533 212.961 308.641 213.498 308.641 214.148V219H307.468V214.227C307.468 213.627 307.312 213.16 307 212.825C306.689 212.487 306.261 212.318 305.718 212.318C305.343 212.318 305.008 212.399 304.713 212.562C304.422 212.724 304.191 212.961 304.022 213.273C303.853 213.584 303.769 213.962 303.769 214.406ZM313.987 219.159C313.251 219.159 312.616 218.997 312.082 218.672C311.552 218.344 311.143 217.886 310.854 217.3C310.569 216.71 310.427 216.024 310.427 215.241C310.427 214.459 310.569 213.77 310.854 213.173C311.143 212.573 311.544 212.106 312.058 211.771C312.575 211.433 313.178 211.264 313.867 211.264C314.265 211.264 314.658 211.33 315.045 211.463C315.433 211.596 315.786 211.811 316.104 212.109C316.423 212.404 316.676 212.795 316.865 213.283C317.054 213.77 317.148 214.37 317.148 215.082V215.58H311.262V214.565H315.955C315.955 214.134 315.869 213.75 315.697 213.412C315.528 213.074 315.286 212.807 314.971 212.612C314.659 212.416 314.291 212.318 313.867 212.318C313.4 212.318 312.996 212.434 312.654 212.666C312.316 212.895 312.056 213.193 311.874 213.561C311.691 213.929 311.6 214.323 311.6 214.744V215.42C311.6 215.997 311.7 216.486 311.898 216.887C312.101 217.285 312.381 217.588 312.739 217.797C313.097 218.002 313.513 218.105 313.987 218.105C314.295 218.105 314.573 218.062 314.822 217.976C315.074 217.886 315.291 217.754 315.473 217.578C315.655 217.399 315.796 217.177 315.896 216.912L317.029 217.23C316.91 217.615 316.709 217.953 316.428 218.244C316.146 218.533 315.798 218.758 315.384 218.92C314.969 219.08 314.504 219.159 313.987 219.159ZM319.788 219.08C319.543 219.08 319.333 218.992 319.157 218.816C318.981 218.64 318.893 218.43 318.893 218.185C318.893 217.939 318.981 217.729 319.157 217.553C319.333 217.378 319.543 217.29 319.788 217.29C320.034 217.29 320.244 217.378 320.42 217.553C320.595 217.729 320.683 217.939 320.683 218.185C320.683 218.347 320.642 218.496 320.559 218.632C320.479 218.768 320.372 218.877 320.236 218.96C320.103 219.04 319.954 219.08 319.788 219.08Z" fill="white"/>
</g>
<defs>
<filter id="filter0_dd_13251_3326" x="134" y="30" width="106" height="81" filterUnits="userSpaceOnUse" color-interpolation-filters="sRGB">
<feFlood flood-opacity="0" result="BackgroundImageFix"/>
<feColorMatrix in="SourceAlpha" type="matrix" values="0 0 0 0 0 0 0 0 0 0 0 0 0 0 0 0 0 0 127 0" result="hardAlpha"/>
<feOffset dy="2"/>
<feGaussianBlur stdDeviation="1.5"/>
<feColorMatrix type="matrix" values="0 0 0 0 0.2 0 0 0 0 0.2 0 0 0 0 0.2 0 0 0 0.15 0"/>
<feBlend mode="normal" in2="BackgroundImageFix" result="effect1_dropShadow_13251_3326"/>
<feColorMatrix in="SourceAlpha" type="matrix" values="0 0 0 0 0 0 0 0 0 0 0 0 0 0 0 0 0 0 127 0" result="hardAlpha"/>
<feOffset dy="1"/>
<feGaussianBlur stdDeviation="1.5"/>
<feColorMatrix type="matrix" values="0 0 0 0 0.2 0 0 0 0 0.2 0 0 0 0 0.2 0 0 0 0.1 0"/>
<feBlend mode="normal" in2="effect1_dropShadow_13251_3326" result="effect2_dropShadow_13251_3326"/>
<feBlend mode="normal" in="SourceGraphic" in2="effect2_dropShadow_13251_3326" result="shape"/>
</filter>
<filter id="filter1_dd_13251_3326" x="264" y="30" width="256" height="60" filterUnits="userSpaceOnUse" color-interpolation-filters="sRGB">
<feFlood flood-opacity="0" result="BackgroundImageFix"/>
<feColorMatrix in="SourceAlpha" type="matrix" values="0 0 0 0 0 0 0 0 0 0 0 0 0 0 0 0 0 0 127 0" result="hardAlpha"/>
<feOffset dy="2"/>
<feGaussianBlur stdDeviation="1.5"/>
<feColorMatrix type="matrix" values="0 0 0 0 0.2 0 0 0 0 0.2 0 0 0 0 0.2 0 0 0 0.15 0"/>
<feBlend mode="normal" in2="BackgroundImageFix" result="effect1_dropShadow_13251_3326"/>
<feColorMatrix in="SourceAlpha" type="matrix" values="0 0 0 0 0 0 0 0 0 0 0 0 0 0 0 0 0 0 127 0" result="hardAlpha"/>
<feOffset dy="1"/>
<feGaussianBlur stdDeviation="1.5"/>
<feColorMatrix type="matrix" values="0 0 0 0 0.2 0 0 0 0 0.2 0 0 0 0 0.2 0 0 0 0.1 0"/>
<feBlend mode="normal" in2="effect1_dropShadow_13251_3326" result="effect2_dropShadow_13251_3326"/>
<feBlend mode="normal" in="SourceGraphic" in2="effect2_dropShadow_13251_3326" result="shape"/>
</filter>
<filter id="filter2_dd_13251_3326" x="133" y="172" width="406" height="60" filterUnits="userSpaceOnUse" color-interpolation-filters="sRGB">
<feFlood flood-opacity="0" result="BackgroundImageFix"/>
<feColorMatrix in="SourceAlpha" type="matrix" values="0 0 0 0 0 0 0 0 0 0 0 0 0 0 0 0 0 0 127 0" result="hardAlpha"/>
<feOffset dy="2"/>
<feGaussianBlur stdDeviation="1.5"/>
<feColorMatrix type="matrix" values="0 0 0 0 0.2 0 0 0 0 0.2 0 0 0 0 0.2 0 0 0 0.15 0"/>
<feBlend mode="normal" in2="BackgroundImageFix" result="effect1_dropShadow_13251_3326"/>
<feColorMatrix in="SourceAlpha" type="matrix" values="0 0 0 0 0 0 0 0 0 0 0 0 0 0 0 0 0 0 127 0" result="hardAlpha"/>
<feOffset dy="1"/>
<feGaussianBlur stdDeviation="1.5"/>
<feColorMatrix type="matrix" values="0 0 0 0 0.2 0 0 0 0 0.2 0 0 0 0 0.2 0 0 0 0.1 0"/>
<feBlend mode="normal" in2="effect1_dropShadow_13251_3326" result="effect2_dropShadow_13251_3326"/>
<feBlend mode="normal" in="SourceGraphic" in2="effect2_dropShadow_13251_3326" result="shape"/>
</filter>
</defs>
</svg>
