<svg width="672" height="106" fill="none" xmlns="http://www.w3.org/2000/svg"><path fill="#F6F6F6" d="M0 5h672v101H0z"/><path d="M291.86 60v-8.73h1.58v7.4h3.85V60h-5.43Zm9.63.13c-.66 0-1.23-.14-1.7-.41a2.77 2.77 0 0 1-1.1-1.17 3.9 3.9 0 0 1-.38-1.78c0-.68.13-1.27.38-1.78a2.9 2.9 0 0 1 2.72-1.62c.4 0 .78.06 1.14.2.36.12.68.32.95.6.28.26.5.6.66 1.02.16.42.24.91.24 1.49v.47h-5.37V56.1h3.89a1.57 1.57 0 0 0-.72-1.34 1.5 1.5 0 0 0-.77-.2 1.54 1.54 0 0 0-1.39.83c-.13.24-.2.51-.2.8v.91c0 .38.07.7.2.98a1.6 1.6 0 0 0 1.47.84c.22 0 .43-.04.6-.1a1.2 1.2 0 0 0 .77-.75l1.45.16c-.09.38-.26.72-.52 1-.25.28-.57.5-.97.66-.4.15-.84.23-1.35.23Zm6.1 0c-.42 0-.8-.07-1.12-.22-.33-.15-.6-.37-.79-.66-.19-.3-.28-.66-.28-1.09 0-.37.06-.67.2-.91s.32-.44.56-.58c.23-.15.5-.26.8-.33.3-.08.6-.13.92-.17l.93-.1c.24-.04.42-.09.52-.16a.36.36 0 0 0 .17-.32v-.03c0-.32-.1-.57-.29-.75a1.19 1.19 0 0 0-.82-.26c-.38 0-.68.08-.9.25-.22.16-.36.36-.44.58l-1.44-.2a2.3 2.3 0 0 1 1.52-1.6 4.08 4.08 0 0 1 2.2-.1c.3.07.6.2.85.37.26.16.47.4.62.68.16.3.24.65.24 1.09V60h-1.48v-.9h-.05a1.9 1.9 0 0 1-1.03.9c-.26.09-.55.13-.9.13Zm.4-1.13c.3 0 .57-.06.8-.18a1.35 1.35 0 0 0 .71-1.17v-.77a.73.73 0 0 1-.24.11l-.39.1a11.47 11.47 0 0 1-.78.11 2.7 2.7 0 0 0-.62.15c-.18.07-.32.17-.43.3a.73.73 0 0 0-.16.49c0 .28.1.5.31.64.21.15.48.22.8.22Zm4.6 1v-6.55h1.5v1.1h.07a1.63 1.63 0 0 1 1.61-1.19 3.57 3.57 0 0 1 .56.04v1.42a2.86 2.86 0 0 0-.72-.09c-.28 0-.53.06-.76.19a1.34 1.34 0 0 0-.71 1.23V60h-1.55Zm6.3-3.84V60h-1.54v-6.55h1.48v1.12h.07c.15-.37.4-.66.72-.88.33-.21.75-.32 1.23-.32.46 0 .85.1 1.18.29.34.2.6.47.79.84.19.37.28.81.28 1.33V60h-1.55v-3.93c0-.44-.11-.78-.34-1.03a1.2 1.2 0 0 0-.93-.37c-.27 0-.51.06-.72.18-.2.12-.37.29-.5.5a1.7 1.7 0 0 0-.17.81Zm8.75 3.84v-6.55h1.48v1.12h.07c.14-.38.36-.67.68-.88a2 2 0 0 1 1.13-.32c.44 0 .81.1 1.12.32.3.22.52.5.65.88h.06c.15-.37.4-.66.74-.87.34-.22.75-.33 1.23-.33a2 2 0 0 1 1.47.57c.38.38.58.94.58 1.67V60h-1.55v-4.15c0-.41-.11-.7-.33-.9a1.16 1.16 0 0 0-.79-.28c-.37 0-.66.12-.87.35-.21.23-.31.53-.31.9V60h-1.52v-4.22c0-.34-.1-.6-.3-.8-.2-.21-.47-.31-.8-.31-.22 0-.42.06-.6.17a1.2 1.2 0 0 0-.43.47c-.11.2-.17.44-.17.71V60h-1.54Zm13.63.13c-.64 0-1.2-.14-1.67-.42a2.87 2.87 0 0 1-1.09-1.18 3.99 3.99 0 0 1-.38-1.78c0-.67.13-1.27.38-1.77.26-.51.62-.9 1.1-1.19a3.17 3.17 0 0 1 1.65-.42c.64 0 1.2.14 1.67.42.47.28.83.68 1.08 1.19.26.5.4 1.1.4 1.77 0 .68-.14 1.27-.4 1.78-.25.5-.61.9-1.08 1.18-.47.28-1.03.42-1.67.42Zm0-1.24c.35 0 .64-.1.87-.28.24-.2.4-.46.52-.78s.18-.68.18-1.08-.06-.76-.18-1.09a1.72 1.72 0 0 0-.52-.78c-.23-.2-.52-.29-.87-.29s-.65.1-.88.3c-.24.19-.41.45-.53.77a3.41 3.41 0 0 0 0 2.17c.12.32.3.58.53.78.23.19.53.28.88.28Zm4.44 1.11v-6.55h1.5v1.1h.06a1.63 1.63 0 0 1 1.62-1.19 3.56 3.56 0 0 1 .55.04v1.42a2.85 2.85 0 0 0-.72-.09c-.27 0-.53.06-.75.19a1.35 1.35 0 0 0-.72 1.23V60h-1.54Zm7.39.13c-.66 0-1.23-.14-1.7-.41a2.77 2.77 0 0 1-1.1-1.17 3.9 3.9 0 0 1-.38-1.78c0-.68.13-1.27.38-1.78a2.9 2.9 0 0 1 2.72-1.62c.4 0 .78.06 1.14.2.36.12.68.32.95.6.28.26.5.6.66 1.02.16.42.24.91.24 1.49v.47h-5.37V56.1h3.89c0-.3-.07-.56-.2-.79a1.4 1.4 0 0 0-.52-.55 1.5 1.5 0 0 0-.77-.2 1.54 1.54 0 0 0-1.39.83c-.13.24-.2.51-.2.8v.91c0 .38.07.7.2.98.15.27.34.48.59.62.25.15.54.22.88.22.22 0 .43-.04.6-.1a1.18 1.18 0 0 0 .78-.75l1.44.16c-.09.38-.26.72-.52 1-.25.28-.57.5-.97.66-.4.15-.84.23-1.35.23Z" fill="#0F67F5"/><path fill-rule="evenodd" clip-rule="evenodd" d="M367.04 49.54h5.3v1.25h-4.05v9.42h9.42v-4.04h1.25v5.29h-11.92V49.54Zm9.78 1.25h-1.15v-1.25h3.29v3.3h-1.25v-1.16l-4.27 4.26-.88-.88 4.26-4.27Z" fill="#0F67F5"/><path fill="#F9C7E3" d="M357.5 48h8v15h-8z"/><g clip-path="url(#a)" stroke="#E8178A"><path d="M358 40V25m-.5 7.5h8M365 40V25"/></g><path d="M365.05 14.67a2.3 2.3 0 0 1-.56 1.54 2.57 2.57 0 0 1-.85.67 3.31 3.31 0 0 1 1.03.77 2.47 2.47 0 0 1 .6 1.64 2.54 2.54 0 0 1-.95 2.12c-.3.24-.64.42-1.03.54a4.4 4.4 0 0 1-2.57 0c-.4-.12-.75-.3-1.04-.54a2.5 2.5 0 0 1-.94-2.12c0-.27.04-.53.1-.78a2.59 2.59 0 0 1 1.51-1.64 2.47 2.47 0 0 1-1.4-2.2c0-.44.08-.83.23-1.17a2.53 2.53 0 0 1 1.59-1.4 3.89 3.89 0 0 1 2.43-.01c.38.12.7.3.98.54.27.23.48.52.64.87.15.34.23.73.23 1.17Zm-1.42 4.53a1.75 1.75 0 0 0-.45-1.2 1.53 1.53 0 0 0-.52-.33 2.06 2.06 0 0 0-1.34 0c-.2.08-.36.19-.5.33a1.6 1.6 0 0 0-.33.53 2.06 2.06 0 0 0 .01 1.38 1.35 1.35 0 0 0 .84.8 2.09 2.09 0 0 0 1.32 0c.2-.07.38-.18.52-.32a1.63 1.63 0 0 0 .45-1.19Zm-.2-4.47a1.62 1.62 0 0 0-.4-1.08 1.4 1.4 0 0 0-1.04-.41c-.22 0-.41.03-.59.1-.16.07-.3.17-.43.3a1.3 1.3 0 0 0-.28.47 1.91 1.91 0 0 0 0 1.24c.07.18.16.34.3.46a1 1 0 0 0 .44.31c.17.07.36.11.58.11.21 0 .4-.04.58-.1.17-.08.32-.18.44-.32.13-.12.22-.28.29-.46.07-.19.1-.4.1-.62ZM229.88 59v-7.27h.88v6.49h3.38V59h-4.26Zm7.12.13a2.2 2.2 0 0 1-.94-.2c-.29-.13-.5-.32-.68-.57a1.61 1.61 0 0 1-.24-.9c0-.32.06-.57.18-.77.12-.2.29-.35.5-.46.2-.11.43-.2.68-.25a33.94 33.94 0 0 1 1.56-.23c.2-.02.36-.06.45-.12.1-.05.15-.15.15-.28v-.03c0-.35-.1-.62-.29-.82-.19-.19-.48-.29-.86-.29-.4 0-.72.1-.94.27-.23.17-.39.36-.48.56l-.8-.29c.15-.33.33-.59.57-.77.24-.19.5-.32.78-.4a3.24 3.24 0 0 1 1.44-.04c.23.04.45.12.67.25.21.13.4.32.53.58.15.26.22.6.22 1.04V59h-.84v-.74h-.04a1.63 1.63 0 0 1-.81.72c-.23.1-.5.15-.81.15Zm.13-.76c.33 0 .6-.06.83-.19a1.33 1.33 0 0 0 .7-1.15v-.77a.68.68 0 0 1-.23.12 4 4 0 0 1-.87.15l-.35.04c-.22.03-.42.08-.61.14a.94.94 0 0 0-.45.28.71.71 0 0 0-.18.5c0 .3.11.52.33.66.21.15.5.23.82.23Zm4.01.63v-7.27h.84v2.68h.07l.25-.36c.12-.15.27-.28.48-.4.2-.12.5-.18.85-.18a2.17 2.17 0 0 1 2.03 1.33c.2.42.3.91.3 1.49 0 .57-.1 1.08-.3 1.5a2.14 2.14 0 0 1-2.02 1.32 1.7 1.7 0 0 1-.84-.17 1.56 1.56 0 0 1-.49-.4l-.26-.38h-.1V59h-.81Zm.82-2.73c0 .41.06.78.19 1.1.12.3.3.55.53.73.23.17.51.26.85.26.35 0 .64-.1.87-.28.24-.18.42-.43.54-.75.12-.32.18-.67.18-1.06 0-.38-.06-.73-.18-1.03a1.6 1.6 0 0 0-.53-.74 1.4 1.4 0 0 0-.88-.27 1.4 1.4 0 0 0-1.39.97c-.12.3-.18.67-.18 1.07Zm7.56 2.84c-.52 0-.97-.11-1.36-.34a2.34 2.34 0 0 1-.87-.98c-.2-.43-.3-.92-.3-1.47 0-.56.1-1.06.3-1.48a2.3 2.3 0 0 1 2.15-1.36c.28 0 .56.04.84.14a2.08 2.08 0 0 1 1.3 1.3c.14.34.2.77.2 1.28v.36h-4.2v-.73h3.35c0-.3-.06-.58-.18-.82a1.38 1.38 0 0 0-1.31-.78c-.33 0-.62.08-.87.25-.24.16-.42.37-.56.64-.13.26-.19.54-.19.84v.48c0 .42.07.76.21 1.05.15.28.35.5.6.65.26.15.56.22.9.22.22 0 .41-.03.6-.1a1.21 1.21 0 0 0 .76-.75l.8.23c-.08.27-.22.51-.42.72-.2.2-.45.37-.75.48-.3.12-.63.17-1 .17Zm4.38-7.38V59h-.84v-7.27h.84Z" fill="#E8178A"/><path d="M263 55.5h30" stroke="#E8178A"/><circle cx="292" cy="55.5" r="1" fill="#E8178A"/><path d="M408 55.5h-30" stroke="#E8178A"/><circle cx="379" cy="55.5" r="1" transform="rotate(180 379 55.5)" fill="#E8178A"/><path d="M417.76 51.73V59h-.88v-7.27h.88Zm3.87 7.38c-.51 0-.95-.12-1.32-.36a2.36 2.36 0 0 1-.85-1c-.2-.42-.3-.9-.3-1.45 0-.55.1-1.04.3-1.47a2.3 2.3 0 0 1 2.15-1.36c.39 0 .73.08 1.04.22.31.14.56.34.76.6.2.25.32.55.36.89h-.83a1.27 1.27 0 0 0-1.3-.95 1.48 1.48 0 0 0-1.44.97c-.14.3-.2.66-.2 1.07 0 .42.06.8.2 1.1a1.47 1.47 0 0 0 1.43.99c.22 0 .42-.04.6-.11a1.22 1.22 0 0 0 .7-.84h.84a1.94 1.94 0 0 1-1.08 1.48c-.3.15-.66.22-1.06.22Zm5.58 0c-.49 0-.92-.11-1.3-.35a2.39 2.39 0 0 1-.86-.98c-.2-.42-.3-.92-.3-1.48 0-.57.1-1.06.3-1.49a2.37 2.37 0 0 1 2.17-1.34 2.34 2.34 0 0 1 2.16 1.34c.2.43.3.92.3 1.5 0 .55-.1 1.05-.3 1.47a2.32 2.32 0 0 1-2.17 1.33Zm0-.75c.38 0 .69-.1.93-.29.24-.19.42-.44.54-.75a3.07 3.07 0 0 0-.01-2.04 1.66 1.66 0 0 0-.53-.76 1.4 1.4 0 0 0-.93-.3c-.37 0-.68.1-.92.3-.24.2-.42.45-.53.76a2.88 2.88 0 0 0 0 2.04c.11.3.3.56.53.75.24.2.55.3.92.3Zm4.6-2.64V59h-.84v-5.45h.8v.85h.08c.13-.28.32-.5.58-.67.26-.17.6-.26 1-.26.38 0 .7.08.98.23.27.15.49.38.64.68.16.3.23.69.23 1.15V59h-.83v-3.4c0-.44-.12-.77-.34-1.01a1.19 1.19 0 0 0-.91-.36c-.27 0-.51.06-.72.17-.2.12-.37.29-.5.5-.12.23-.18.5-.18.82Z" fill="#E8178A"/><defs><clipPath id="a"><path fill="#fff" transform="translate(357.5 25)" d="M0 0h8v15H0z"/></clipPath></defs></svg>