<svg width="136" height="14" fill="none" xmlns="http://www.w3.org/2000/svg"><path d="M2.08.82 5.1 9.39h.12L8.25.82h1.29L5.8 11H4.53L.79.82h1.29ZM10.96 11V3.36h1.18V11h-1.18Zm.6-8.9a.83.83 0 0 1-.6-.24.75.75 0 0 1-.23-.56c0-.22.08-.41.24-.57a.83.83 0 0 1 .6-.23c.22 0 .42.08.58.23.16.16.25.35.25.57 0 .21-.09.4-.25.56a.82.82 0 0 1-.59.23Zm8.14 2.97-1.06.3a1.96 1.96 0 0 0-.3-.51 1.5 1.5 0 0 0-.5-.42c-.23-.1-.5-.16-.85-.16a2 2 0 0 0-1.17.32c-.3.21-.46.48-.46.81 0 .3.1.52.32.7.21.16.54.3 1 .42l1.13.27c.68.17 1.19.42 1.52.76.34.34.5.78.5 1.31 0 .44-.12.83-.37 1.18-.25.34-.6.61-1.05.81-.44.2-.96.3-1.56.3-.78 0-1.42-.17-1.93-.5a2.25 2.25 0 0 1-.97-1.49l1.11-.28c.1.41.3.72.6.93.3.2.7.3 1.17.3.55 0 .98-.11 1.3-.34.33-.24.5-.52.5-.85 0-.26-.1-.49-.29-.66a1.78 1.78 0 0 0-.85-.41l-1.27-.3a3.04 3.04 0 0 1-1.55-.77 1.87 1.87 0 0 1-.48-1.32c0-.43.12-.81.36-1.14.25-.33.58-.6 1-.78.42-.2.9-.29 1.44-.29.76 0 1.35.17 1.78.5.44.33.74.77.93 1.31ZM21.6 11V3.36h1.17V11H21.6Zm.6-8.9a.83.83 0 0 1-.6-.24.75.75 0 0 1-.24-.56c0-.22.08-.41.25-.57A.83.83 0 0 1 22.2.5c.23 0 .42.08.58.23.17.16.25.35.25.57 0 .21-.08.4-.25.56a.82.82 0 0 1-.58.23Zm6.04 1.26v1H24.3v-1h3.95Zm-2.8-1.83h1.17v7.28c0 .33.05.58.15.75.1.16.22.27.38.33.15.05.32.08.49.08l.32-.02.2-.04.23 1.05a2.37 2.37 0 0 1-.87.14c-.33 0-.66-.07-.98-.21a1.94 1.94 0 0 1-.78-.66 1.9 1.9 0 0 1-.3-1.1v-7.6Zm11.6 9.63c-.68 0-1.29-.17-1.8-.5a3.34 3.34 0 0 1-1.22-1.37 4.66 4.66 0 0 1-.43-2.07c0-.8.14-1.49.43-2.08.3-.6.7-1.06 1.21-1.38.52-.33 1.13-.5 1.82-.5a3.3 3.3 0 0 1 3.02 1.87c.3.6.44 1.3.44 2.1 0 .78-.15 1.47-.44 2.06a3.3 3.3 0 0 1-1.21 1.38 3.3 3.3 0 0 1-1.81.49Zm0-1.05c.53 0 .96-.14 1.3-.4.34-.28.59-.63.75-1.07a4.1 4.1 0 0 0 0-2.85 2.4 2.4 0 0 0-.75-1.06 2 2 0 0 0-1.3-.41 2 2 0 0 0-1.28.4A2.4 2.4 0 0 0 35 5.8a4.1 4.1 0 0 0-.25 1.43c0 .51.08.99.25 1.42.16.44.4.8.75 1.06.33.27.77.4 1.29.4Zm10.07-2.23V3.36h1.18V11H47.1V9.7h-.08a2.5 2.5 0 0 1-.83 1c-.38.27-.86.4-1.43.4-.48 0-.9-.1-1.28-.31a2.2 2.2 0 0 1-.87-.96 3.63 3.63 0 0 1-.32-1.61V3.36h1.17v4.78c0 .55.16 1 .47 1.33.32.33.72.5 1.2.5a2 2 0 0 0 1.97-2.1ZM50.44 11V3.36h1.13v1.16h.08c.14-.38.39-.69.75-.92.37-.24.78-.36 1.24-.36a12.96 12.96 0 0 1 .61.02v1.2a3.48 3.48 0 0 0-.71-.08c-.37 0-.7.08-1 .23a1.71 1.71 0 0 0-.93 1.56V11h-1.17Z" fill="#1F1F1F"/><path d="M60.23 11V.82h1.24v4.53h5.42V.82h1.24V11h-1.24V6.45h-5.42V11h-1.24Zm13.4.16A3.27 3.27 0 0 1 70.5 9.3a4.68 4.68 0 0 1-.42-2.06c0-.78.14-1.47.43-2.07a3.23 3.23 0 0 1 3.01-1.9c.4 0 .79.06 1.18.2a2.92 2.92 0 0 1 1.82 1.81 5 5 0 0 1 .28 1.8v.5h-5.89V6.57h4.7c0-.44-.09-.82-.26-1.16a1.95 1.95 0 0 0-1.83-1.1c-.47 0-.87.12-1.21.36-.34.22-.6.52-.78.9-.19.36-.28.75-.28 1.17v.68c0 .58.1 1.07.3 1.47.2.4.48.7.84.9a2.68 2.68 0 0 0 2.08.19c.26-.1.47-.23.66-.4.18-.18.32-.4.42-.67l1.13.32c-.12.38-.32.72-.6 1.01-.28.3-.63.52-1.04.68-.42.16-.88.24-1.4.24ZM79.77.82V11H78.6V.82h1.17Zm2.15 13.04V3.36h1.13v1.22h.14l.36-.51c.15-.2.38-.4.66-.56.3-.16.7-.25 1.19-.25a3.03 3.03 0 0 1 2.85 1.85c.27.6.4 1.29.4 2.1 0 .8-.13 1.5-.4 2.1a2.99 2.99 0 0 1-2.83 1.85c-.5 0-.89-.08-1.18-.24-.3-.17-.52-.36-.68-.57a7.49 7.49 0 0 1-.37-.52h-.1v4.03h-1.17Zm1.15-6.68c0 .58.09 1.09.25 1.53.17.44.42.78.75 1.03.32.24.72.37 1.19.37.49 0 .9-.13 1.23-.4.33-.25.58-.6.74-1.05.17-.44.26-.93.26-1.48 0-.54-.09-1.02-.25-1.45a2.32 2.32 0 0 0-.74-1.03 1.96 1.96 0 0 0-1.24-.38 1.96 1.96 0 0 0-1.94 1.37 4 4 0 0 0-.25 1.5Zm14.42 3.98a3.3 3.3 0 0 1-1.85-.5 3.3 3.3 0 0 1-1.2-1.4 4.73 4.73 0 0 1-.41-2.04c0-.77.14-1.46.43-2.05a3.23 3.23 0 0 1 3.01-1.9c.54 0 1.02.1 1.45.3a2.6 2.6 0 0 1 1.57 2.09h-1.17a1.79 1.79 0 0 0-1.83-1.33 1.9 1.9 0 0 0-1.2.35c-.35.23-.61.56-.8 1a3.7 3.7 0 0 0-.29 1.5c0 .6.1 1.1.28 1.54.19.44.45.78.8 1.02a2.2 2.2 0 0 0 2.04.21 1.71 1.71 0 0 0 1-1.18h1.17a2.73 2.73 0 0 1-1.52 2.08c-.42.2-.92.3-1.48.3Zm7.92 0a3.27 3.27 0 0 1-3.13-1.86 4.67 4.67 0 0 1-.43-2.06c0-.78.14-1.47.43-2.07a3.23 3.23 0 0 1 3.01-1.9c.4 0 .79.06 1.18.2a2.93 2.93 0 0 1 1.82 1.81 5 5 0 0 1 .28 1.8v.5h-5.89V6.57h4.7c0-.44-.09-.82-.26-1.16a1.95 1.95 0 0 0-1.83-1.1c-.47 0-.87.12-1.21.36-.34.22-.6.52-.78.9-.19.36-.28.75-.28 1.17v.68c0 .58.1 1.07.3 1.47.2.4.48.7.84.9.36.21.77.32 1.25.32a2.08 2.08 0 0 0 1.49-.53c.18-.18.32-.4.42-.67l1.13.32c-.12.38-.32.72-.6 1.01-.28.3-.63.52-1.04.68-.42.16-.88.24-1.4.24Zm6.12-4.75V11h-1.17V3.36h1.13v1.2h.1c.18-.4.45-.7.81-.94.37-.24.84-.36 1.42-.36.51 0 .97.11 1.35.32.4.21.7.53.9.96.22.42.33.96.33 1.6V11h-1.17V6.23c0-.6-.16-1.07-.47-1.4a1.65 1.65 0 0 0-1.28-.51c-.38 0-.71.08-1 .24-.3.16-.53.4-.7.71-.17.31-.25.7-.25 1.14Zm10.34-3.05v1h-3.96v-1h3.96Zm-2.8-1.83h1.16v7.28c0 .33.05.58.15.75.1.16.22.27.38.33.15.05.32.08.49.08l.32-.02.2-.04.23 1.05a2.41 2.41 0 0 1-.87.14c-.33 0-.66-.07-.97-.21a1.94 1.94 0 0 1-.79-.66 1.9 1.9 0 0 1-.3-1.1v-7.6Zm7.68 9.63a3.6 3.6 0 0 1-1.9-.49 3.28 3.28 0 0 1-1.23-1.37 4.68 4.68 0 0 1-.43-2.06c0-.78.14-1.47.43-2.07a3.23 3.23 0 0 1 3.01-1.9c.4 0 .8.06 1.18.2a2.92 2.92 0 0 1 1.82 1.81 5 5 0 0 1 .28 1.8v.5h-5.88V6.57h4.69c0-.44-.09-.82-.26-1.16a1.95 1.95 0 0 0-1.83-1.1c-.47 0-.87.12-1.21.36-.34.22-.6.52-.78.9-.19.36-.28.75-.28 1.17v.68c0 .58.1 1.07.3 1.47.2.4.48.7.84.9.36.21.78.32 1.25.32.3 0 .59-.05.84-.13.25-.1.46-.23.65-.4.18-.18.32-.4.42-.67l1.13.32a2.5 2.5 0 0 1-.6 1.01c-.28.3-.63.52-1.04.68-.42.16-.88.24-1.4.24Zm4.95-.16V3.36h1.13v1.16h.08c.14-.38.4-.69.76-.92.36-.24.77-.36 1.23-.36a12.96 12.96 0 0 1 .62.02v1.2a3.43 3.43 0 0 0-.72-.08c-.37 0-.7.08-1 .23a1.71 1.71 0 0 0-.93 1.56V11h-1.17Z" fill="#0F67F5"/></svg>