<svg width="252" height="128" fill="none" xmlns="http://www.w3.org/2000/svg"><path fill="#fff" d="M0 0h252v44H0z"/><path stroke="#EBEBEB" d="M0 43.5h252"/><path d="M17.15 28V16.36h7.57v1.77h-5.46v3.16h5.06v1.77h-5.06v3.17h5.5V28h-7.61Zm11.68-5.11V28h-2.05v-8.73h1.96v1.49h.1c.2-.5.52-.88.96-1.17.45-.29 1-.43 1.65-.43.6 0 1.12.13 1.57.39.45.25.8.63 1.05 1.11.25.5.37 1.09.36 1.78V28h-2.05v-5.24c0-.58-.15-1.04-.46-1.37a1.6 1.6 0 0 0-1.24-.5c-.36 0-.68.09-.96.25-.28.15-.5.38-.65.67-.16.3-.24.66-.24 1.08Zm11.5 8.56a5.4 5.4 0 0 1-1.91-.3c-.53-.2-.96-.46-1.28-.8a2.7 2.7 0 0 1-.67-1.1l1.85-.45c.08.17.2.34.36.5.16.18.38.32.65.43.27.11.61.17 1.03.17a2.3 2.3 0 0 0 1.44-.43c.39-.28.58-.74.58-1.38v-1.66h-.1a2.59 2.59 0 0 1-2.52 1.45 3.38 3.38 0 0 1-3.12-1.9 5.26 5.26 0 0 1-.47-2.37c0-.96.16-1.77.47-2.43a3.34 3.34 0 0 1 4.39-1.76c.33.17.6.38.8.62.2.24.34.46.45.68h.1v-1.45h2.04v8.87a3 3 0 0 1-.54 1.85 3.2 3.2 0 0 1-1.46 1.1 5.7 5.7 0 0 1-2.1.36Zm0-5.19c.44 0 .81-.1 1.12-.32.3-.2.54-.51.7-.91.16-.4.24-.88.24-1.43a4 4 0 0 0-.24-1.45 2.06 2.06 0 0 0-.7-.96 1.8 1.8 0 0 0-1.11-.34c-.46 0-.84.12-1.15.35-.3.24-.54.57-.7.99-.15.41-.23.88-.23 1.4 0 .54.08 1 .24 1.41.16.4.39.7.7.93.3.22.69.33 1.14.33Zm8.25-9.9V28h-2.05V16.36h2.05ZM50.7 28v-8.73h2.05V28H50.7Zm1.03-9.97c-.32 0-.6-.1-.84-.32a1.04 1.04 0 0 1-.35-.79c0-.31.12-.57.35-.79.24-.22.52-.33.84-.33.33 0 .61.11.84.33.24.22.35.48.35.8 0 .3-.11.56-.35.78-.23.22-.5.32-.84.32Zm10.04 3.55-1.88.2a1.5 1.5 0 0 0-.8-.93 1.9 1.9 0 0 0-.8-.16c-.43 0-.8.1-1.09.28-.28.19-.43.43-.42.72 0 .26.09.46.28.62.19.16.5.3.95.4l1.49.31c.83.18 1.44.46 1.84.85.4.39.61.9.61 1.52 0 .55-.16 1.03-.48 1.45a3.1 3.1 0 0 1-1.31.98c-.56.23-1.2.35-1.93.35a4.48 4.48 0 0 1-2.58-.67 2.7 2.7 0 0 1-1.17-1.88l2-.2c.1.4.3.7.59.9.3.2.68.3 1.15.3.49 0 .88-.1 1.18-.3.3-.2.45-.45.45-.75 0-.25-.1-.45-.3-.62a2.02 2.02 0 0 0-.88-.37l-1.49-.31a3.54 3.54 0 0 1-1.86-.88 2.2 2.2 0 0 1-.6-1.58c0-.54.15-1 .44-1.4.3-.4.72-.7 1.25-.92a4.82 4.82 0 0 1 1.85-.33 4 4 0 0 1 2.41.65c.6.44.96 1.03 1.1 1.77Zm3.94 1.3V28h-2.06V16.36h2.01v4.4h.1c.2-.5.52-.89.95-1.17a2.9 2.9 0 0 1 1.65-.43c.6 0 1.14.13 1.59.38.45.25.8.62 1.04 1.11.25.5.38 1.09.38 1.8V28H69.3v-5.24c0-.59-.15-1.04-.45-1.37-.3-.33-.72-.5-1.27-.5-.36 0-.69.09-.97.25a1.6 1.6 0 0 0-.67.67c-.16.3-.24.66-.24 1.08Z" fill="#0F67F5"/><path stroke="#0F67F5" stroke-width="2" d="M0 43h89"/><path d="M106.4 16.36h1.7l3.95 9.66h.13l3.96-9.66h1.68V28h-1.32v-8.84h-.11L112.75 28h-1.27l-3.64-8.84h-.11V28h-1.32V16.36Zm16.63 11.84c-.55 0-1.06-.1-1.5-.3-.46-.22-.81-.52-1.08-.92s-.4-.89-.4-1.46c0-.5.1-.9.3-1.21.2-.32.46-.56.79-.74.33-.18.7-.31 1.09-.4.4-.1.8-.16 1.2-.22l1.3-.15c.33-.04.57-.1.73-.19.15-.08.23-.23.23-.45v-.05c0-.56-.15-1-.46-1.3-.3-.31-.77-.47-1.38-.47-.64 0-1.14.14-1.5.42a2.5 2.5 0 0 0-.77.9l-1.28-.46a3 3 0 0 1 .91-1.23c.38-.3.8-.51 1.25-.63a5.18 5.18 0 0 1 2.3-.08c.38.07.73.2 1.07.4.35.2.63.52.86.93.23.41.34.97.34 1.66V28h-1.34v-1.18h-.07a2.62 2.62 0 0 1-1.3 1.16c-.35.15-.78.22-1.29.22Zm.2-1.2c.53 0 .98-.1 1.34-.31a2.13 2.13 0 0 0 1.12-1.85v-1.23c-.06.07-.18.13-.38.2-.19.04-.4.1-.66.13a29.63 29.63 0 0 1-1.28.17c-.35.05-.67.12-.98.23-.3.1-.54.24-.72.44-.19.2-.28.47-.28.81 0 .47.18.82.52 1.06.35.23.79.35 1.32.35Zm10.04-7.73v1.14h-4.52v-1.14h4.52Zm-3.2-2.09h1.34v8.32c0 .38.05.66.16.85.12.19.26.31.44.38.17.06.36.09.56.09.15 0 .27 0 .36-.02l.23-.05.27 1.2a2.73 2.73 0 0 1-1 .16 2.7 2.7 0 0 1-1.11-.24 2.21 2.21 0 0 1-.9-.75 2.14 2.14 0 0 1-.35-1.26v-8.68Zm6.75 5.57V28h-1.34V16.36h1.34v4.28h.11c.2-.45.51-.81.92-1.08.41-.27.96-.4 1.65-.4.6 0 1.12.12 1.56.36.45.23.8.6 1.04 1.08.25.49.38 1.1.38 1.85V28h-1.34v-5.45c0-.7-.18-1.23-.54-1.61a1.93 1.93 0 0 0-1.49-.58c-.44 0-.83.1-1.18.28-.34.19-.62.46-.82.81-.2.36-.3.8-.3 1.3Zm46.95-3.48a1.78 1.78 0 0 0-.83-1.34 3.18 3.18 0 0 0-1.78-.48c-.52 0-.97.09-1.35.25-.39.17-.69.4-.9.7a1.65 1.65 0 0 0-.1 1.79c.15.22.35.4.58.55.24.14.48.26.74.36l.71.22 1.18.32c.3.08.64.19 1.01.33.38.14.74.33 1.08.57a2.65 2.65 0 0 1 1.19 2.3c0 .63-.17 1.2-.5 1.7-.33.51-.8.92-1.43 1.22-.63.3-1.38.44-2.28.44a5.3 5.3 0 0 1-2.16-.4 3.22 3.22 0 0 1-2.02-2.8h1.45c.04.44.19.8.45 1.1.26.27.59.49.98.63a4.21 4.21 0 0 0 2.75-.06c.43-.18.77-.42 1.02-.74s.37-.69.37-1.11c0-.39-.1-.7-.32-.95-.22-.24-.5-.43-.85-.59a9 9 0 0 0-1.15-.4l-1.43-.4a5.33 5.33 0 0 1-2.16-1.12 2.46 2.46 0 0 1-.8-1.9c0-.66.18-1.23.54-1.71a3.5 3.5 0 0 1 1.43-1.14c.6-.27 1.27-.4 2.02-.4s1.41.13 2 .4c.58.26 1.04.63 1.38 1.09.35.46.53.99.55 1.57h-1.37Zm7.2 8.91c-.81 0-1.52-.2-2.1-.58a3.77 3.77 0 0 1-1.37-1.6 5.4 5.4 0 0 1-.48-2.32c0-.88.16-1.67.49-2.34a3.7 3.7 0 0 1 3.44-2.18c.62 0 1.17.11 1.66.34a2.97 2.97 0 0 1 1.8 2.39h-1.34c-.1-.4-.33-.75-.69-1.06a2.04 2.04 0 0 0-1.4-.47 2.39 2.39 0 0 0-2.29 1.55 4.23 4.23 0 0 0-.33 1.73c0 .67.1 1.26.32 1.76s.52.89.9 1.16c.4.28.87.42 1.4.42.34 0 .66-.06.95-.18a1.96 1.96 0 0 0 1.14-1.35h1.34a3.11 3.11 0 0 1-1.74 2.37 3.8 3.8 0 0 1-1.7.36Zm5.4-.18v-8.73h1.34V28h-1.34Zm.68-10.18a.95.95 0 0 1-.68-.27.86.86 0 0 1-.28-.64c0-.25.1-.46.28-.64a.95.95 0 0 1 .68-.27c.26 0 .48.09.67.27.19.18.28.39.28.64s-.09.46-.28.64a.93.93 0 0 1-.67.27Zm6.77 10.36a3.74 3.74 0 0 1-3.58-2.13 5.36 5.36 0 0 1-.48-2.35c0-.89.16-1.68.48-2.36a3.7 3.7 0 0 1 3.44-2.18c.46 0 .91.07 1.35.23a3.33 3.33 0 0 1 2.08 2.08c.22.55.33 1.24.33 2.05v.57h-6.73v-1.16h5.36c0-.5-.1-.93-.3-1.32a2.22 2.22 0 0 0-2.08-1.25c-.54 0-1 .14-1.39.4-.39.26-.68.6-.9 1.02a3 3 0 0 0-.3 1.36v.77c0 .66.11 1.22.34 1.68a2.48 2.48 0 0 0 2.38 1.39c.36 0 .67-.05.96-.15a2 2 0 0 0 1.23-1.22l1.3.37a3.01 3.01 0 0 1-1.89 1.93c-.47.18-1 .27-1.6.27Zm7-5.43V28h-1.34v-8.73h1.3v1.37h.1c.21-.45.52-.8.94-1.07.42-.27.95-.41 1.61-.41.6 0 1.11.12 1.55.36.45.24.8.6 1.04 1.1.24.48.37 1.1.37 1.83V28h-1.34v-5.45c0-.69-.18-1.22-.54-1.6a1.9 1.9 0 0 0-1.47-.59c-.42 0-.8.1-1.14.28-.34.19-.6.46-.8.81-.19.36-.28.8-.28 1.3Zm11.56 5.43a3.8 3.8 0 0 1-2.11-.58 3.78 3.78 0 0 1-1.37-1.6 5.41 5.41 0 0 1-.47-2.32c0-.88.16-1.67.49-2.34a3.7 3.7 0 0 1 3.44-2.18c.61 0 1.17.11 1.66.34a2.98 2.98 0 0 1 1.8 2.39h-1.35a2.04 2.04 0 0 0-2.1-1.52c-.51 0-.97.13-1.36.4-.4.27-.7.65-.92 1.14a4.23 4.23 0 0 0-.32 1.73c0 .67.1 1.26.32 1.76.21.5.52.89.9 1.16.4.28.86.42 1.4.42.34 0 .66-.06.94-.18a1.96 1.96 0 0 0 1.14-1.35h1.34a3.1 3.1 0 0 1-1.74 2.37c-.48.24-1.04.36-1.69.36Zm9.05 0a3.73 3.73 0 0 1-3.58-2.13 5.34 5.34 0 0 1-.48-2.35c0-.89.16-1.68.48-2.36a3.7 3.7 0 0 1 3.44-2.18c.46 0 .91.07 1.35.23a3.34 3.34 0 0 1 2.08 2.08c.22.55.33 1.24.33 2.05v.57h-6.73v-1.16h5.36c0-.5-.1-.93-.3-1.32a2.22 2.22 0 0 0-2.08-1.25c-.54 0-1 .14-1.39.4-.39.26-.68.6-.9 1.02a3 3 0 0 0-.3 1.36v.77c0 .66.11 1.22.34 1.68a2.48 2.48 0 0 0 2.38 1.39c.36 0 .67-.05.96-.15a2 2 0 0 0 1.23-1.22l1.3.37c-.15.44-.38.82-.7 1.16a3.4 3.4 0 0 1-1.19.77c-.47.18-1 .27-1.6.27Z" fill="#333"/><path fill="#fff" d="M0 52h252v76H0z"/><path fill="#EBEBEB" d="M12 64h99v12H12zm0 20h228v12H12zm0 20h228v12H12z"/></svg>