<svg width="210" height="14" fill="none" xmlns="http://www.w3.org/2000/svg"><path d="M1.5 11V.82h6.1v1.1H2.73v3.43h4.41v1.1H2.73V11H1.49Zm10.6.16c-.7 0-1.3-.17-1.82-.5A3.34 3.34 0 0 1 9.07 9.3a4.66 4.66 0 0 1-.44-2.07c0-.8.15-1.49.44-2.08a3.27 3.27 0 0 1 3.02-1.88 3.3 3.3 0 0 1 3.02 1.87c.3.6.44 1.3.44 2.1 0 .78-.14 1.47-.43 2.06a3.3 3.3 0 0 1-1.22 1.38 3.3 3.3 0 0 1-1.8.49Zm0-1.05c.52 0 .95-.14 1.29-.4.33-.28.58-.63.75-1.07a4.25 4.25 0 0 0 0-2.85 2.4 2.4 0 0 0-.75-1.06 2 2 0 0 0-1.3-.41 2 2 0 0 0-1.29.4 2.4 2.4 0 0 0-.75 1.07 4.1 4.1 0 0 0-.24 1.43c0 .51.08.99.24 1.42.16.44.41.8.75 1.06.34.27.77.4 1.3.4Zm5.25.89V3.36h1.13v1.16h.08c.14-.38.39-.69.75-.92.37-.24.78-.36 1.24-.36a12.98 12.98 0 0 1 .61.02v1.2a3.47 3.47 0 0 0-.71-.08c-.37 0-.7.08-1 .23a1.72 1.72 0 0 0-.93 1.56V11h-1.17Zm9.14 0V3.36h1.14v1.2h.1c.15-.41.41-.73.77-.95a2.3 2.3 0 0 1 1.27-.35c.5 0 .93.12 1.26.35.34.22.6.54.8.95h.07c.2-.4.49-.71.88-.94.4-.24.86-.36 1.4-.36.7 0 1.25.22 1.68.65.44.42.65 1.08.65 1.98V11h-1.17V5.89c0-.56-.15-.97-.46-1.2-.3-.25-.67-.37-1.09-.37-.54 0-.95.16-1.25.49-.3.32-.44.72-.44 1.22V11h-1.2V5.77c0-.43-.13-.78-.42-1.05-.28-.27-.64-.4-1.08-.4-.31 0-.6.08-.86.24a1.9 1.9 0 0 0-.64.68 2 2 0 0 0-.23.99V11h-1.18Zm15.27.16c-.69 0-1.3-.17-1.81-.5a3.34 3.34 0 0 1-1.22-1.37 4.66 4.66 0 0 1-.43-2.07c0-.8.15-1.49.43-2.08a3.3 3.3 0 0 1 3.03-1.88 3.3 3.3 0 0 1 3.02 1.87c.3.6.44 1.3.44 2.1a4.5 4.5 0 0 1-.44 2.06 3.3 3.3 0 0 1-1.2 1.38 3.3 3.3 0 0 1-1.82.49Zm0-1.05c.53 0 .96-.14 1.3-.4.33-.28.58-.63.75-1.07a4.25 4.25 0 0 0 0-2.85 2.4 2.4 0 0 0-.76-1.06 2 2 0 0 0-1.29-.41 2 2 0 0 0-1.3.4 2.4 2.4 0 0 0-.74 1.07 4.1 4.1 0 0 0-.24 1.43c0 .51.08.99.24 1.42.16.44.41.8.75 1.06.34.27.77.4 1.3.4Zm5.25.89V3.36h1.14v1.16h.08c.14-.38.39-.69.75-.92.37-.24.78-.36 1.24-.36a12.98 12.98 0 0 1 .61.02v1.2a3.48 3.48 0 0 0-.71-.08c-.38 0-.7.08-1 .23a1.72 1.72 0 0 0-.93 1.56V11H47Zm8.18.16a3.27 3.27 0 0 1-3.13-1.86 4.68 4.68 0 0 1-.43-2.06c0-.78.14-1.47.43-2.07a3.23 3.23 0 0 1 3.01-1.9c.4 0 .8.06 1.18.2a2.92 2.92 0 0 1 1.82 1.81 5 5 0 0 1 .28 1.8v.5h-5.88V6.57h4.69c0-.44-.09-.82-.26-1.16a1.95 1.95 0 0 0-1.83-1.1c-.47 0-.87.12-1.21.36-.34.22-.6.52-.78.9-.18.36-.27.75-.27 1.17v.68c0 .58.1 1.07.3 1.47.2.4.48.7.83.9.36.21.78.32 1.25.32.31 0 .59-.05.84-.13.25-.1.47-.23.65-.4.18-.18.32-.4.42-.67l1.13.32c-.12.38-.32.72-.6 1.01-.28.3-.63.52-1.04.68-.42.16-.88.24-1.4.24Zm8.89-.16V3.36h1.17V11h-1.17Zm.6-8.9a.83.83 0 0 1-.6-.24.75.75 0 0 1-.24-.56c0-.22.08-.41.24-.57a.83.83 0 0 1 .6-.23c.22 0 .42.08.58.23.16.16.25.35.25.57 0 .21-.09.4-.25.56a.82.82 0 0 1-.59.23Zm3.9 4.3V11H67.4V3.36h1.13v1.2h.1c.18-.4.45-.7.82-.94.36-.24.83-.36 1.4-.36.53 0 .98.11 1.37.32.38.21.68.53.9.96.22.42.32.96.32 1.6V11h-1.17V6.23c0-.6-.16-1.07-.47-1.4-.3-.34-.74-.51-1.28-.51-.37 0-.7.08-1 .24-.3.16-.53.4-.7.71-.16.31-.25.7-.25 1.14Zm10.4-3.04v1h-4.1v-1h4.1ZM76.1 11V2.31c0-.44.1-.8.31-1.1.2-.29.48-.5.8-.65a2.94 2.94 0 0 1 2.15-.02l-.33 1.01a5.78 5.78 0 0 0-.25-.07 1.5 1.5 0 0 0-.4-.05c-.4 0-.68.1-.85.3-.17.2-.25.48-.25.86V11H76.1Zm7.32.16c-.69 0-1.3-.17-1.81-.5a3.34 3.34 0 0 1-1.22-1.37 4.66 4.66 0 0 1-.43-2.07c0-.8.14-1.49.43-2.08a3.3 3.3 0 0 1 3.03-1.88 3.28 3.28 0 0 1 3.02 1.88c.3.6.44 1.29.44 2.08s-.15 1.48-.44 2.07a3.3 3.3 0 0 1-1.21 1.38 3.3 3.3 0 0 1-1.81.49Zm0-1.05c.52 0 .95-.14 1.3-.4.33-.28.58-.63.74-1.07a4.1 4.1 0 0 0 0-2.85 2.4 2.4 0 0 0-.75-1.06 2 2 0 0 0-1.29-.41 2 2 0 0 0-1.3.4 2.4 2.4 0 0 0-.74 1.07 4.1 4.1 0 0 0-.25 1.43c0 .51.08.99.25 1.42.16.44.41.8.75 1.06a2 2 0 0 0 1.29.4Zm5.25.89V3.36h1.14v1.16h.07c.14-.38.4-.69.76-.92.36-.24.78-.36 1.23-.36a12.98 12.98 0 0 1 .62.02v1.2a3.48 3.48 0 0 0-.72-.08c-.37 0-.7.08-.99.23a1.72 1.72 0 0 0-.93 1.56V11h-1.18Zm7.46.18c-.49 0-.93-.1-1.32-.27-.4-.19-.7-.46-.94-.8a2.26 2.26 0 0 1-.35-1.28c0-.44.09-.79.26-1.06.17-.28.4-.5.7-.65.28-.15.6-.27.95-.35.35-.08.7-.14 1.06-.18l1.12-.14c.3-.03.5-.09.64-.16.14-.08.2-.21.2-.4v-.04c0-.5-.13-.87-.4-1.14-.26-.28-.67-.41-1.2-.41a2.07 2.07 0 0 0-2 1.15l-1.1-.4a2.67 2.67 0 0 1 1.88-1.63 4.54 4.54 0 0 1 2.02-.07c.32.06.63.18.93.36.3.18.55.45.75.8.2.37.3.85.3 1.46V11h-1.18V9.97h-.06a2.3 2.3 0 0 1-1.14 1.01c-.3.13-.68.2-1.12.2Zm.18-1.05c.46 0 .85-.1 1.17-.28a1.86 1.86 0 0 0 .97-1.61V7.16c-.05.06-.15.12-.32.17l-.58.12a26.14 26.14 0 0 1-1.12.15c-.3.04-.6.1-.86.2-.26.08-.47.21-.64.39a1 1 0 0 0-.23.7c0 .41.15.72.45.93.3.2.69.3 1.16.3Zm5.46.87V3.36h1.13v1.2h.1c.16-.41.42-.73.77-.95a2.3 2.3 0 0 1 1.28-.35c.5 0 .92.12 1.26.35.34.22.6.54.79.95h.08c.2-.4.49-.71.88-.94.39-.24.86-.36 1.4-.36.69 0 1.25.22 1.68.65.44.42.65 1.08.65 1.98V11h-1.17V5.89c0-.56-.16-.97-.46-1.2a1.68 1.68 0 0 0-1.1-.37c-.53 0-.95.16-1.24.49-.3.32-.44.72-.44 1.22V11h-1.2V5.77c0-.43-.14-.78-.42-1.05a1.5 1.5 0 0 0-1.09-.4c-.3 0-.59.08-.85.24-.26.16-.48.39-.64.68a2 2 0 0 0-.24.99V11h-1.17Zm15.49-7.64v1h-3.96v-1h3.96Zm-2.8-1.83h1.17v7.28c0 .33.05.58.14.75.1.16.23.27.38.33.16.05.32.08.5.08l.31-.02.2-.04.24 1.05a2.33 2.33 0 0 1-.88.14c-.33 0-.65-.07-.97-.21a1.94 1.94 0 0 1-.79-.66 1.9 1.9 0 0 1-.3-1.1v-7.6Zm4.56 9.47V3.36h1.18V11h-1.18Zm.6-8.9a.84.84 0 0 1-.6-.24.75.75 0 0 1-.24-.56c0-.22.09-.41.25-.57a.84.84 0 0 1 .59-.23c.23 0 .42.08.59.23.16.16.25.35.25.57 0 .21-.09.4-.25.56a.82.82 0 0 1-.59.23Zm5.83 9.06c-.7 0-1.3-.17-1.82-.5a3.35 3.35 0 0 1-1.21-1.37 4.66 4.66 0 0 1-.43-2.07c0-.8.14-1.49.43-2.08.3-.6.7-1.06 1.21-1.38.52-.33 1.13-.5 1.82-.5a3.28 3.28 0 0 1 3.02 1.87c.3.6.44 1.3.44 2.1a4.6 4.6 0 0 1-.44 2.06 3.3 3.3 0 0 1-1.21 1.38 3.3 3.3 0 0 1-1.81.49Zm0-1.05c.52 0 .95-.14 1.29-.4.34-.28.59-.63.75-1.07a4.1 4.1 0 0 0 0-2.85 2.4 2.4 0 0 0-.75-1.06 2 2 0 0 0-1.3-.41 2 2 0 0 0-1.28.4c-.34.28-.6.63-.76 1.07a4.1 4.1 0 0 0-.24 1.43c0 .51.08.99.24 1.42.17.44.42.8.75 1.06.34.27.77.4 1.3.4Zm6.42-3.7V11h-1.17V3.36h1.13v1.2h.1c.18-.4.45-.7.82-.94.36-.24.83-.36 1.4-.36.53 0 .98.11 1.37.32.38.21.69.53.9.96.22.42.32.96.32 1.6V11h-1.17V6.23c0-.6-.16-1.07-.47-1.4-.3-.34-.73-.51-1.28-.51-.37 0-.7.08-1 .24-.3.16-.53.4-.7.71-.16.31-.25.7-.25 1.14Zm8.77 3.2-.08.53a21.98 21.98 0 0 1-.91 3.34h-.9l.17-.83a32.12 32.12 0 0 0 .39-2.49l.06-.55h1.27Z" fill="#1F1F1F"/><path d="M150.18 11.16a3.3 3.3 0 0 1-1.85-.5 3.3 3.3 0 0 1-1.2-1.4 4.72 4.72 0 0 1-.41-2.04c0-.77.14-1.46.42-2.05.3-.6.7-1.06 1.2-1.4.52-.34 1.13-.5 1.82-.5.53 0 1.02.1 1.45.3a2.6 2.6 0 0 1 1.57 2.09H152a1.79 1.79 0 0 0-1.83-1.33 1.9 1.9 0 0 0-1.2.35c-.35.23-.61.56-.8 1a3.7 3.7 0 0 0-.3 1.5c0 .6.1 1.1.29 1.54.19.44.45.78.8 1.02.34.24.74.37 1.2.37.31 0 .59-.06.84-.16a1.72 1.72 0 0 0 1-1.18h1.17a2.71 2.71 0 0 1-1.52 2.08c-.43.2-.92.3-1.48.3ZM156.07.82V11h-1.18V.82h1.18ZM158.22 11V3.36h1.17V11h-1.17Zm.6-8.9a.84.84 0 0 1-.6-.24.75.75 0 0 1-.24-.56c0-.22.08-.41.24-.57a.84.84 0 0 1 .6-.23c.22 0 .42.08.58.23.16.16.25.35.25.57 0 .21-.09.4-.25.56a.82.82 0 0 1-.59.23Zm5.82 9.06a3.3 3.3 0 0 1-1.85-.5 3.57 3.57 0 0 1-1.2-1.4 4.74 4.74 0 0 1-.4-2.04c0-.77.13-1.46.42-2.05a3.23 3.23 0 0 1 3.01-1.9c.54 0 1.02.1 1.45.3a2.6 2.6 0 0 1 1.57 2.09h-1.17a1.79 1.79 0 0 0-1.83-1.33 1.9 1.9 0 0 0-1.2.35c-.34.23-.61.56-.8 1-.2.42-.29.93-.29 1.5 0 .6.1 1.1.28 1.54.2.44.46.78.8 1.02s.75.37 1.21.37c.3 0 .58-.06.83-.16a1.72 1.72 0 0 0 1-1.18h1.17a2.72 2.72 0 0 1-1.52 2.08c-.42.2-.92.3-1.48.3Zm5.81-2.94-.02-1.46h.24l3.34-3.4h1.45l-3.56 3.6h-.1l-1.35 1.26Zm-1.1 2.78V.82h1.18V11h-1.17Zm4.86 0-2.98-3.78.83-.81L175.7 11h-1.49Zm7.88-4.6V11h-1.18V.82h1.18v3.74h.1c.17-.4.44-.71.8-.94a2.6 2.6 0 0 1 1.44-.36c.52 0 .98.1 1.37.32.39.2.7.52.9.95.23.42.34.96.34 1.62V11h-1.18V6.23c0-.6-.15-1.08-.47-1.41a1.7 1.7 0 0 0-1.3-.5c-.38 0-.73.08-1.03.24-.3.16-.54.4-.72.71a2.3 2.3 0 0 0-.25 1.14Zm10.3 4.76a3.27 3.27 0 0 1-3.13-1.86 4.68 4.68 0 0 1-.44-2.06c0-.78.15-1.47.43-2.07.3-.6.7-1.06 1.2-1.4a3.62 3.62 0 0 1 2.99-.3 2.92 2.92 0 0 1 1.82 1.81 5 5 0 0 1 .29 1.8v.5h-5.89V6.57h4.7c0-.44-.1-.82-.27-1.16a1.95 1.95 0 0 0-1.82-1.1c-.47 0-.88.12-1.22.36-.34.22-.6.52-.78.9-.18.36-.27.75-.27 1.17v.68c0 .58.1 1.07.3 1.47.2.4.48.7.84.9.36.21.77.32 1.25.32.3 0 .58-.05.83-.13.25-.1.47-.23.65-.4.18-.18.32-.4.42-.67l1.14.32c-.12.38-.32.72-.6 1.01-.29.3-.63.52-1.05.68-.41.16-.88.24-1.4.24Zm4.94-.16V3.36h1.13v1.16h.08c.14-.38.4-.69.76-.92.36-.24.78-.36 1.23-.36a13.03 13.03 0 0 1 .62.02v1.2a3.49 3.49 0 0 0-.72-.08c-.37 0-.7.08-.99.23a1.71 1.71 0 0 0-.94 1.56V11h-1.17Zm8.18.16a3.27 3.27 0 0 1-3.13-1.86 4.68 4.68 0 0 1-.43-2.06c0-.78.14-1.47.43-2.07a3.23 3.23 0 0 1 3.01-1.9c.4 0 .8.06 1.18.2a2.92 2.92 0 0 1 1.82 1.81 5 5 0 0 1 .28 1.8v.5h-5.88V6.57h4.69c0-.44-.09-.82-.26-1.16a1.95 1.95 0 0 0-1.83-1.1c-.47 0-.87.12-1.21.36-.34.22-.6.52-.78.9-.19.36-.28.75-.28 1.17v.68c0 .58.1 1.07.3 1.47.2.4.48.7.84.9.36.21.78.32 1.25.32.3 0 .59-.05.84-.13.25-.1.46-.23.65-.4.18-.18.32-.4.42-.67l1.13.32c-.12.38-.32.72-.6 1.01-.28.3-.63.52-1.04.68-.42.16-.88.24-1.4.24Z" fill="#0F67F5"/></svg>