<svg width="210" height="14" viewBox="0 0 210 14" fill="none" xmlns="http://www.w3.org/2000/svg">
<path d="M1.49467 11V0.818182H7.59979V1.91193H2.72763V5.35227H7.1424V6.44602H2.72763V11H1.49467ZM12.0941 11.1591C11.4047 11.1591 10.7998 10.995 10.2795 10.6669C9.76243 10.3388 9.35807 9.87973 9.06641 9.28977C8.77805 8.69981 8.63388 8.01042 8.63388 7.22159C8.63388 6.42614 8.77805 5.73177 9.06641 5.13849C9.35807 4.54522 9.76243 4.08452 10.2795 3.75639C10.7998 3.42827 11.4047 3.2642 12.0941 3.2642C12.7835 3.2642 13.3867 3.42827 13.9038 3.75639C14.4241 4.08452 14.8285 4.54522 15.1168 5.13849C15.4085 5.73177 15.5543 6.42614 15.5543 7.22159C15.5543 8.01042 15.4085 8.69981 15.1168 9.28977C14.8285 9.87973 14.4241 10.3388 13.9038 10.6669C13.3867 10.995 12.7835 11.1591 12.0941 11.1591ZM12.0941 10.1051C12.6178 10.1051 13.0487 9.97088 13.3867 9.70241C13.7248 9.43395 13.975 9.08097 14.1374 8.64347C14.2998 8.20597 14.381 7.73201 14.381 7.22159C14.381 6.71117 14.2998 6.23556 14.1374 5.79474C13.975 5.35393 13.7248 4.99763 13.3867 4.72585C13.0487 4.45407 12.6178 4.31818 12.0941 4.31818C11.5704 4.31818 11.1396 4.45407 10.8015 4.72585C10.4634 4.99763 10.2132 5.35393 10.0508 5.79474C9.88838 6.23556 9.80717 6.71117 9.80717 7.22159C9.80717 7.73201 9.88838 8.20597 10.0508 8.64347C10.2132 9.08097 10.4634 9.43395 10.8015 9.70241C11.1396 9.97088 11.5704 10.1051 12.0941 10.1051ZM17.3453 11V3.36364H18.4789V4.51705H18.5584C18.6976 4.1392 18.9495 3.83262 19.3141 3.5973C19.6787 3.36198 20.0897 3.24432 20.5471 3.24432C20.6332 3.24432 20.7409 3.24597 20.8702 3.24929C20.9995 3.2526 21.0972 3.25758 21.1635 3.2642V4.45739C21.1238 4.44744 21.0326 4.43253 20.8901 4.41264C20.7509 4.38944 20.6034 4.37784 20.4476 4.37784C20.0764 4.37784 19.745 4.45573 19.4533 4.61151C19.165 4.76397 18.9363 4.97609 18.7672 5.24787C18.6015 5.51634 18.5186 5.82292 18.5186 6.16761V11H17.3453ZM26.4918 11V3.36364H27.6254V4.55682H27.7248C27.8839 4.14915 28.1407 3.83262 28.4954 3.60724C28.85 3.37855 29.2759 3.2642 29.7731 3.2642C30.2769 3.2642 30.6961 3.37855 31.0309 3.60724C31.369 3.83262 31.6325 4.14915 31.8214 4.55682H31.9009C32.0965 4.16241 32.3898 3.84919 32.7809 3.61719C33.172 3.38187 33.641 3.2642 34.1879 3.2642C34.8706 3.2642 35.4291 3.47798 35.8633 3.90554C36.2975 4.32978 36.5146 4.991 36.5146 5.8892V11H35.3413V5.8892C35.3413 5.32576 35.1871 4.92306 34.8789 4.68111C34.5707 4.43916 34.2077 4.31818 33.7901 4.31818C33.2532 4.31818 32.8372 4.48059 32.5423 4.8054C32.2473 5.12689 32.0998 5.53456 32.0998 6.02841V11H30.9066V5.76989C30.9066 5.3357 30.7657 4.98603 30.484 4.72088C30.2023 4.45241 29.8394 4.31818 29.3952 4.31818C29.0903 4.31818 28.8053 4.39938 28.5401 4.56179C28.2783 4.72419 28.0662 4.94957 27.9038 5.23793C27.7447 5.52296 27.6651 5.85275 27.6651 6.22727V11H26.4918ZM41.7621 11.1591C41.0727 11.1591 40.4678 10.995 39.9474 10.6669C39.4304 10.3388 39.026 9.87973 38.7344 9.28977C38.446 8.69981 38.3018 8.01042 38.3018 7.22159C38.3018 6.42614 38.446 5.73177 38.7344 5.13849C39.026 4.54522 39.4304 4.08452 39.9474 3.75639C40.4678 3.42827 41.0727 3.2642 41.7621 3.2642C42.4515 3.2642 43.0547 3.42827 43.5717 3.75639C44.0921 4.08452 44.4964 4.54522 44.7848 5.13849C45.0765 5.73177 45.2223 6.42614 45.2223 7.22159C45.2223 8.01042 45.0765 8.69981 44.7848 9.28977C44.4964 9.87973 44.0921 10.3388 43.5717 10.6669C43.0547 10.995 42.4515 11.1591 41.7621 11.1591ZM41.7621 10.1051C42.2857 10.1051 42.7166 9.97088 43.0547 9.70241C43.3928 9.43395 43.643 9.08097 43.8054 8.64347C43.9678 8.20597 44.049 7.73201 44.049 7.22159C44.049 6.71117 43.9678 6.23556 43.8054 5.79474C43.643 5.35393 43.3928 4.99763 43.0547 4.72585C42.7166 4.45407 42.2857 4.31818 41.7621 4.31818C41.2384 4.31818 40.8075 4.45407 40.4695 4.72585C40.1314 4.99763 39.8812 5.35393 39.7188 5.79474C39.5563 6.23556 39.4751 6.71117 39.4751 7.22159C39.4751 7.73201 39.5563 8.20597 39.7188 8.64347C39.8812 9.08097 40.1314 9.43395 40.4695 9.70241C40.8075 9.97088 41.2384 10.1051 41.7621 10.1051ZM47.0133 11V3.36364H48.1468V4.51705H48.2264C48.3656 4.1392 48.6175 3.83262 48.9821 3.5973C49.3467 3.36198 49.7576 3.24432 50.215 3.24432C50.3012 3.24432 50.4089 3.24597 50.5382 3.24929C50.6674 3.2526 50.7652 3.25758 50.8315 3.2642V4.45739C50.7917 4.44744 50.7006 4.43253 50.5581 4.41264C50.4189 4.38944 50.2714 4.37784 50.1156 4.37784C49.7444 4.37784 49.4129 4.45573 49.1213 4.61151C48.8329 4.76397 48.6042 4.97609 48.4352 5.24787C48.2695 5.51634 48.1866 5.82292 48.1866 6.16761V11H47.0133ZM55.1916 11.1591C54.4558 11.1591 53.8211 10.9967 53.2875 10.6719C52.7572 10.3438 52.3478 9.88636 52.0595 9.29972C51.7744 8.70975 51.6319 8.02367 51.6319 7.24148C51.6319 6.45928 51.7744 5.76989 52.0595 5.1733C52.3478 4.57339 52.7489 4.10606 53.2626 3.77131C53.7797 3.43324 54.3829 3.2642 55.0723 3.2642C55.47 3.2642 55.8627 3.33049 56.2505 3.46307C56.6383 3.59564 56.9913 3.81108 57.3095 4.10938C57.6277 4.40436 57.8812 4.79545 58.0701 5.28267C58.2591 5.76989 58.3535 6.36979 58.3535 7.08239V7.57955H52.4672V6.56534H57.1603C57.1603 6.13447 57.0742 5.75 56.9018 5.41193C56.7328 5.07386 56.4908 4.80705 56.176 4.61151C55.8644 4.41596 55.4965 4.31818 55.0723 4.31818C54.6049 4.31818 54.2006 4.43419 53.8592 4.66619C53.5211 4.89489 53.2609 5.19318 53.0787 5.56108C52.8964 5.92898 52.8052 6.32339 52.8052 6.74432V7.42045C52.8052 7.99716 52.9047 8.48603 53.1035 8.88707C53.3057 9.2848 53.5858 9.58807 53.9437 9.79688C54.3017 10.0024 54.7176 10.1051 55.1916 10.1051C55.4998 10.1051 55.7782 10.062 56.0268 9.97585C56.2787 9.88636 56.4958 9.75379 56.6781 9.57812C56.8604 9.39915 57.0012 9.17708 57.1007 8.91193L58.2342 9.23011C58.1149 9.61458 57.9144 9.95265 57.6326 10.2443C57.3509 10.5327 57.0029 10.758 56.5886 10.9205C56.1743 11.0795 55.7086 11.1591 55.1916 11.1591ZM64.0758 11V3.36364H65.2491V11H64.0758ZM64.6724 2.09091C64.4437 2.09091 64.2465 2.01302 64.0808 1.85724C63.9184 1.70147 63.8372 1.5142 63.8372 1.29545C63.8372 1.0767 63.9184 0.889441 64.0808 0.733664C64.2465 0.577888 64.4437 0.5 64.6724 0.5C64.9011 0.5 65.0967 0.577888 65.2591 0.733664C65.4248 0.889441 65.5076 1.0767 65.5076 1.29545C65.5076 1.5142 65.4248 1.70147 65.2591 1.85724C65.0967 2.01302 64.9011 2.09091 64.6724 2.09091ZM68.5714 6.40625V11H67.3981V3.36364H68.5316V4.55682H68.631C68.81 4.16903 69.0818 3.85748 69.4464 3.62216C69.811 3.38352 70.2816 3.2642 70.8583 3.2642C71.3754 3.2642 71.8278 3.37027 72.2156 3.58239C72.6033 3.79119 72.9049 4.10938 73.1204 4.53693C73.3358 4.96117 73.4435 5.49811 73.4435 6.14773V11H72.2702V6.22727C72.2702 5.62737 72.1145 5.16004 71.8029 4.82528C71.4914 4.48722 71.0638 4.31818 70.5202 4.31818C70.1457 4.31818 69.811 4.39938 69.516 4.56179C69.2243 4.72419 68.994 4.96117 68.8249 5.27273C68.6559 5.58428 68.5714 5.96212 68.5714 6.40625ZM78.9881 3.36364V4.35795H74.8716V3.36364H78.9881ZM76.1046 11V2.30966C76.1046 1.87216 76.2073 1.50758 76.4128 1.21591C76.6183 0.924242 76.8851 0.705492 77.2132 0.559658C77.5414 0.413825 77.8877 0.340908 78.2523 0.340908C78.5407 0.340908 78.776 0.364109 78.9583 0.410511C79.1406 0.456912 79.2765 0.499999 79.3659 0.539772L79.0279 1.55398C78.9682 1.53409 78.8854 1.50923 78.7793 1.4794C78.6766 1.44957 78.5407 1.43466 78.3716 1.43466C77.9838 1.43466 77.7038 1.53243 77.5314 1.72798C77.3624 1.92353 77.2779 2.21023 77.2779 2.58807V11H76.1046ZM83.4203 11.1591C82.7309 11.1591 82.126 10.995 81.6056 10.6669C81.0886 10.3388 80.6842 9.87973 80.3926 9.28977C80.1042 8.69981 79.96 8.01042 79.96 7.22159C79.96 6.42614 80.1042 5.73177 80.3926 5.13849C80.6842 4.54522 81.0886 4.08452 81.6056 3.75639C82.126 3.42827 82.7309 3.2642 83.4203 3.2642C84.1097 3.2642 84.7129 3.42827 85.2299 3.75639C85.7503 4.08452 86.1547 4.54522 86.443 5.13849C86.7347 5.73177 86.8805 6.42614 86.8805 7.22159C86.8805 8.01042 86.7347 8.69981 86.443 9.28977C86.1547 9.87973 85.7503 10.3388 85.2299 10.6669C84.7129 10.995 84.1097 11.1591 83.4203 11.1591ZM83.4203 10.1051C83.944 10.1051 84.3748 9.97088 84.7129 9.70241C85.051 9.43395 85.3012 9.08097 85.4636 8.64347C85.626 8.20597 85.7072 7.73201 85.7072 7.22159C85.7072 6.71117 85.626 6.23556 85.4636 5.79474C85.3012 5.35393 85.051 4.99763 84.7129 4.72585C84.3748 4.45407 83.944 4.31818 83.4203 4.31818C82.8966 4.31818 82.4657 4.45407 82.1277 4.72585C81.7896 4.99763 81.5394 5.35393 81.377 5.79474C81.2145 6.23556 81.1333 6.71117 81.1333 7.22159C81.1333 7.73201 81.2145 8.20597 81.377 8.64347C81.5394 9.08097 81.7896 9.43395 82.1277 9.70241C82.4657 9.97088 82.8966 10.1051 83.4203 10.1051ZM88.6715 11V3.36364H89.805V4.51705H89.8846C90.0238 4.1392 90.2757 3.83262 90.6403 3.5973C91.0049 3.36198 91.4158 3.24432 91.8732 3.24432C91.9594 3.24432 92.0671 3.24597 92.1964 3.24929C92.3256 3.2526 92.4234 3.25758 92.4897 3.2642V4.45739C92.4499 4.44744 92.3588 4.43253 92.2163 4.41264C92.0771 4.38944 91.9296 4.37784 91.7738 4.37784C91.4026 4.37784 91.0711 4.45573 90.7795 4.61151C90.4911 4.76397 90.2624 4.97609 90.0934 5.24787C89.9277 5.51634 89.8448 5.82292 89.8448 6.16761V11H88.6715ZM96.1277 11.179C95.6438 11.179 95.2046 11.0878 94.8102 10.9055C94.4158 10.7199 94.1026 10.4531 93.8706 10.1051C93.6386 9.75379 93.5225 9.32955 93.5225 8.83239C93.5225 8.39489 93.6087 8.04025 93.7811 7.76847C93.9534 7.49337 94.1838 7.27794 94.4721 7.12216C94.7605 6.96638 95.0787 6.85038 95.4267 6.77415C95.778 6.6946 96.131 6.63163 96.4856 6.58523C96.9496 6.52557 97.3258 6.48082 97.6142 6.45099C97.9058 6.41785 98.118 6.36316 98.2505 6.28693C98.3864 6.2107 98.4544 6.07812 98.4544 5.8892V5.84943C98.4544 5.3589 98.3201 4.97775 98.0517 4.70597C97.7865 4.43419 97.3838 4.2983 96.8436 4.2983C96.2834 4.2983 95.8443 4.42093 95.5261 4.66619C95.2079 4.91146 94.9842 5.1733 94.8549 5.4517L93.7413 5.05398C93.9402 4.58996 94.2053 4.22869 94.5368 3.97017C94.8715 3.70833 95.2361 3.52604 95.6305 3.4233C96.0282 3.31723 96.4193 3.2642 96.8038 3.2642C97.0491 3.2642 97.3308 3.29403 97.649 3.35369C97.9705 3.41004 98.2804 3.5277 98.5787 3.70668C98.8803 3.88565 99.1305 4.15578 99.3294 4.51705C99.5282 4.87831 99.6277 5.36222 99.6277 5.96875V11H98.4544V9.96591H98.3947C98.3152 10.1316 98.1826 10.3089 97.997 10.4979C97.8114 10.6868 97.5645 10.8475 97.2562 10.9801C96.948 11.1127 96.5718 11.179 96.1277 11.179ZM96.3066 10.125C96.7707 10.125 97.1618 10.0339 97.4799 9.85156C97.8014 9.66927 98.0434 9.43395 98.2058 9.1456C98.3715 8.85724 98.4544 8.55398 98.4544 8.2358V7.16193C98.4047 7.22159 98.2953 7.27628 98.1262 7.32599C97.9605 7.3724 97.7683 7.41383 97.5495 7.45028C97.3341 7.48343 97.1236 7.51326 96.9181 7.53977C96.716 7.56297 96.5519 7.58286 96.426 7.59943C96.121 7.6392 95.836 7.70384 95.5708 7.79332C95.309 7.8795 95.0969 8.01042 94.9345 8.18608C94.7754 8.35843 94.6958 8.59375 94.6958 8.89205C94.6958 9.29972 94.8467 9.60795 95.1483 9.81676C95.4532 10.0223 95.8393 10.125 96.3066 10.125ZM101.769 11V3.36364H102.903V4.55682H103.002C103.161 4.14915 103.418 3.83262 103.773 3.60724C104.127 3.37855 104.553 3.2642 105.05 3.2642C105.554 3.2642 105.973 3.37855 106.308 3.60724C106.646 3.83262 106.91 4.14915 107.099 4.55682H107.178C107.374 4.16241 107.667 3.84919 108.058 3.61719C108.449 3.38187 108.918 3.2642 109.465 3.2642C110.148 3.2642 110.706 3.47798 111.141 3.90554C111.575 4.32978 111.792 4.991 111.792 5.8892V11H110.619V5.8892C110.619 5.32576 110.464 4.92306 110.156 4.68111C109.848 4.43916 109.485 4.31818 109.067 4.31818C108.531 4.31818 108.115 4.48059 107.82 4.8054C107.525 5.12689 107.377 5.53456 107.377 6.02841V11H106.184V5.76989C106.184 5.3357 106.043 4.98603 105.761 4.72088C105.48 4.45241 105.117 4.31818 104.673 4.31818C104.368 4.31818 104.083 4.39938 103.817 4.56179C103.556 4.72419 103.344 4.94957 103.181 5.23793C103.022 5.52296 102.942 5.85275 102.942 6.22727V11H101.769ZM117.258 3.36364V4.35795H113.301V3.36364H117.258ZM114.454 1.53409H115.627V8.8125C115.627 9.14394 115.676 9.39252 115.772 9.55824C115.871 9.72064 115.997 9.83002 116.15 9.88636C116.305 9.93939 116.469 9.96591 116.642 9.96591C116.771 9.96591 116.877 9.95928 116.96 9.94602C117.043 9.92945 117.109 9.91619 117.159 9.90625L117.397 10.9602C117.318 10.9901 117.207 11.0199 117.064 11.0497C116.922 11.0829 116.741 11.0994 116.522 11.0994C116.191 11.0994 115.866 11.0282 115.548 10.8857C115.233 10.7431 114.971 10.526 114.762 10.2344C114.557 9.94271 114.454 9.57481 114.454 9.13068V1.53409ZM119.023 11V3.36364H120.196V11H119.023ZM119.62 2.09091C119.391 2.09091 119.194 2.01302 119.028 1.85724C118.866 1.70147 118.784 1.5142 118.784 1.29545C118.784 1.0767 118.866 0.889441 119.028 0.733664C119.194 0.577888 119.391 0.5 119.62 0.5C119.848 0.5 120.044 0.577888 120.206 0.733664C120.372 0.889441 120.455 1.0767 120.455 1.29545C120.455 1.5142 120.372 1.70147 120.206 1.85724C120.044 2.01302 119.848 2.09091 119.62 2.09091ZM125.448 11.1591C124.758 11.1591 124.153 10.995 123.633 10.6669C123.116 10.3388 122.712 9.87973 122.42 9.28977C122.132 8.69981 121.987 8.01042 121.987 7.22159C121.987 6.42614 122.132 5.73177 122.42 5.13849C122.712 4.54522 123.116 4.08452 123.633 3.75639C124.153 3.42827 124.758 3.2642 125.448 3.2642C126.137 3.2642 126.74 3.42827 127.257 3.75639C127.778 4.08452 128.182 4.54522 128.47 5.13849C128.762 5.73177 128.908 6.42614 128.908 7.22159C128.908 8.01042 128.762 8.69981 128.47 9.28977C128.182 9.87973 127.778 10.3388 127.257 10.6669C126.74 10.995 126.137 11.1591 125.448 11.1591ZM125.448 10.1051C125.971 10.1051 126.402 9.97088 126.74 9.70241C127.078 9.43395 127.329 9.08097 127.491 8.64347C127.653 8.20597 127.735 7.73201 127.735 7.22159C127.735 6.71117 127.653 6.23556 127.491 5.79474C127.329 5.35393 127.078 4.99763 126.74 4.72585C126.402 4.45407 125.971 4.31818 125.448 4.31818C124.924 4.31818 124.493 4.45407 124.155 4.72585C123.817 4.99763 123.567 5.35393 123.404 5.79474C123.242 6.23556 123.161 6.71117 123.161 7.22159C123.161 7.73201 123.242 8.20597 123.404 8.64347C123.567 9.08097 123.817 9.43395 124.155 9.70241C124.493 9.97088 124.924 10.1051 125.448 10.1051ZM131.872 6.40625V11H130.699V3.36364H131.832V4.55682H131.932C132.111 4.16903 132.383 3.85748 132.747 3.62216C133.112 3.38352 133.582 3.2642 134.159 3.2642C134.676 3.2642 135.129 3.37027 135.516 3.58239C135.904 3.79119 136.206 4.10938 136.421 4.53693C136.637 4.96117 136.744 5.49811 136.744 6.14773V11H135.571V6.22727C135.571 5.62737 135.415 5.16004 135.104 4.82528C134.792 4.48722 134.365 4.31818 133.821 4.31818C133.446 4.31818 133.112 4.39938 132.817 4.56179C132.525 4.72419 132.295 4.96117 132.126 5.27273C131.957 5.58428 131.872 5.96212 131.872 6.40625ZM140.638 9.60795L140.559 10.1449C140.502 10.5227 140.416 10.9271 140.3 11.358C140.188 11.7888 140.07 12.1948 139.947 12.576C139.825 12.9571 139.724 13.2604 139.644 13.4858H138.749C138.792 13.2737 138.849 12.9936 138.918 12.6456C138.988 12.2976 139.057 11.9081 139.127 11.4773C139.2 11.0497 139.26 10.6122 139.306 10.1648L139.366 9.60795H140.638Z" fill="#1F1F1F"/>
<path d="M150.176 11.1591C149.46 11.1591 148.844 10.9901 148.327 10.652C147.81 10.3139 147.412 9.84825 147.134 9.25497C146.855 8.66169 146.716 7.9839 146.716 7.22159C146.716 6.44602 146.858 5.7616 147.143 5.16832C147.432 4.57173 147.833 4.10606 148.347 3.77131C148.864 3.43324 149.467 3.2642 150.156 3.2642C150.693 3.2642 151.177 3.36364 151.608 3.5625C152.039 3.76136 152.392 4.03977 152.667 4.39773C152.942 4.75568 153.113 5.1733 153.179 5.65057H152.006C151.916 5.30256 151.717 4.99432 151.409 4.72585C151.104 4.45407 150.693 4.31818 150.176 4.31818C149.719 4.31818 149.318 4.4375 148.973 4.67614C148.632 4.91146 148.365 5.24455 148.173 5.67543C147.984 6.10298 147.889 6.60511 147.889 7.18182C147.889 7.77178 147.982 8.28551 148.168 8.72301C148.357 9.16051 148.622 9.50024 148.963 9.74219C149.308 9.98414 149.712 10.1051 150.176 10.1051C150.481 10.1051 150.758 10.0521 151.006 9.94602C151.255 9.83996 151.465 9.6875 151.638 9.48864C151.81 9.28977 151.933 9.05114 152.006 8.77273H153.179C153.113 9.22348 152.949 9.6295 152.687 9.99077C152.428 10.3487 152.085 10.6338 151.658 10.8459C151.233 11.0547 150.74 11.1591 150.176 11.1591ZM156.067 0.818182V11H154.894V0.818182H156.067ZM158.216 11V3.36364H159.39V11H158.216ZM158.813 2.09091C158.584 2.09091 158.387 2.01302 158.221 1.85724C158.059 1.70147 157.978 1.5142 157.978 1.29545C157.978 1.0767 158.059 0.889441 158.221 0.733664C158.387 0.577888 158.584 0.5 158.813 0.5C159.042 0.5 159.237 0.577888 159.4 0.733664C159.565 0.889441 159.648 1.0767 159.648 1.29545C159.648 1.5142 159.565 1.70147 159.4 1.85724C159.237 2.01302 159.042 2.09091 158.813 2.09091ZM164.641 11.1591C163.925 11.1591 163.309 10.9901 162.792 10.652C162.275 10.3139 161.877 9.84825 161.598 9.25497C161.32 8.66169 161.181 7.9839 161.181 7.22159C161.181 6.44602 161.323 5.7616 161.608 5.16832C161.897 4.57173 162.298 4.10606 162.811 3.77131C163.328 3.43324 163.932 3.2642 164.621 3.2642C165.158 3.2642 165.642 3.36364 166.073 3.5625C166.504 3.76136 166.857 4.03977 167.132 4.39773C167.407 4.75568 167.578 5.1733 167.644 5.65057H166.471C166.381 5.30256 166.182 4.99432 165.874 4.72585C165.569 4.45407 165.158 4.31818 164.641 4.31818C164.184 4.31818 163.783 4.4375 163.438 4.67614C163.096 4.91146 162.83 5.24455 162.637 5.67543C162.449 6.10298 162.354 6.60511 162.354 7.18182C162.354 7.77178 162.447 8.28551 162.632 8.72301C162.821 9.16051 163.087 9.50024 163.428 9.74219C163.773 9.98414 164.177 10.1051 164.641 10.1051C164.946 10.1051 165.223 10.0521 165.471 9.94602C165.72 9.83996 165.93 9.6875 166.103 9.48864C166.275 9.28977 166.398 9.05114 166.471 8.77273H167.644C167.578 9.22348 167.413 9.6295 167.152 9.99077C166.893 10.3487 166.55 10.6338 166.123 10.8459C165.698 11.0547 165.204 11.1591 164.641 11.1591ZM170.453 8.21591L170.433 6.7642H170.672L174.012 3.36364H175.464L171.904 6.96307H171.805L170.453 8.21591ZM169.359 11V0.818182H170.532V11H169.359ZM174.211 11L171.228 7.22159L172.064 6.40625L175.703 11H174.211ZM182.085 6.40625V11H180.912V0.818182H182.085V4.55682H182.184C182.363 4.16241 182.632 3.84919 182.99 3.61719C183.351 3.38187 183.832 3.2642 184.432 3.2642C184.952 3.2642 185.408 3.36861 185.799 3.57741C186.19 3.78291 186.493 4.09943 186.709 4.52699C186.927 4.95123 187.037 5.49148 187.037 6.14773V11H185.863V6.22727C185.863 5.62074 185.706 5.15175 185.391 4.82031C185.08 4.48556 184.647 4.31818 184.094 4.31818C183.709 4.31818 183.364 4.39938 183.059 4.56179C182.758 4.72419 182.519 4.96117 182.344 5.27273C182.171 5.58428 182.085 5.96212 182.085 6.40625ZM192.385 11.1591C191.649 11.1591 191.014 10.9967 190.481 10.6719C189.951 10.3438 189.541 9.88636 189.253 9.29972C188.968 8.70975 188.825 8.02367 188.825 7.24148C188.825 6.45928 188.968 5.76989 189.253 5.1733C189.541 4.57339 189.942 4.10606 190.456 3.77131C190.973 3.43324 191.576 3.2642 192.266 3.2642C192.663 3.2642 193.056 3.33049 193.444 3.46307C193.832 3.59564 194.185 3.81108 194.503 4.10938C194.821 4.40436 195.075 4.79545 195.263 5.28267C195.452 5.76989 195.547 6.36979 195.547 7.08239V7.57955H189.661V6.56534H194.354C194.354 6.13447 194.268 5.75 194.095 5.41193C193.926 5.07386 193.684 4.80705 193.369 4.61151C193.058 4.41596 192.69 4.31818 192.266 4.31818C191.798 4.31818 191.394 4.43419 191.053 4.66619C190.714 4.89489 190.454 5.19318 190.272 5.56108C190.09 5.92898 189.999 6.32339 189.999 6.74432V7.42045C189.999 7.99716 190.098 8.48603 190.297 8.88707C190.499 9.2848 190.779 9.58807 191.137 9.79688C191.495 10.0024 191.911 10.1051 192.385 10.1051C192.693 10.1051 192.972 10.062 193.22 9.97585C193.472 9.88636 193.689 9.75379 193.871 9.57812C194.054 9.39915 194.195 9.17708 194.294 8.91193L195.428 9.23011C195.308 9.61458 195.108 9.95265 194.826 10.2443C194.544 10.5327 194.196 10.758 193.782 10.9205C193.368 11.0795 192.902 11.1591 192.385 11.1591ZM197.332 11V3.36364H198.465V4.51705H198.545C198.684 4.1392 198.936 3.83262 199.3 3.5973C199.665 3.36198 200.076 3.24432 200.533 3.24432C200.62 3.24432 200.727 3.24597 200.857 3.24929C200.986 3.2526 201.084 3.25758 201.15 3.2642V4.45739C201.11 4.44744 201.019 4.43253 200.876 4.41264C200.737 4.38944 200.59 4.37784 200.434 4.37784C200.063 4.37784 199.731 4.45573 199.44 4.61151C199.151 4.76397 198.923 4.97609 198.754 5.24787C198.588 5.51634 198.505 5.82292 198.505 6.16761V11H197.332ZM205.51 11.1591C204.774 11.1591 204.139 10.9967 203.606 10.6719C203.076 10.3438 202.666 9.88636 202.378 9.29972C202.093 8.70975 201.95 8.02367 201.95 7.24148C201.95 6.45928 202.093 5.76989 202.378 5.1733C202.666 4.57339 203.067 4.10606 203.581 3.77131C204.098 3.43324 204.701 3.2642 205.391 3.2642C205.788 3.2642 206.181 3.33049 206.569 3.46307C206.957 3.59564 207.31 3.81108 207.628 4.10938C207.946 4.40436 208.2 4.79545 208.388 5.28267C208.577 5.76989 208.672 6.36979 208.672 7.08239V7.57955H202.786V6.56534H207.479C207.479 6.13447 207.393 5.75 207.22 5.41193C207.051 5.07386 206.809 4.80705 206.494 4.61151C206.183 4.41596 205.815 4.31818 205.391 4.31818C204.923 4.31818 204.519 4.43419 204.178 4.66619C203.839 4.89489 203.579 5.19318 203.397 5.56108C203.215 5.92898 203.124 6.32339 203.124 6.74432V7.42045C203.124 7.99716 203.223 8.48603 203.422 8.88707C203.624 9.2848 203.904 9.58807 204.262 9.79688C204.62 10.0024 205.036 10.1051 205.51 10.1051C205.818 10.1051 206.097 10.062 206.345 9.97585C206.597 9.88636 206.814 9.75379 206.996 9.57812C207.179 9.39915 207.32 9.17708 207.419 8.91193L208.553 9.23011C208.433 9.61458 208.233 9.95265 207.951 10.2443C207.669 10.5327 207.321 10.758 206.907 10.9205C206.493 11.0795 206.027 11.1591 205.51 11.1591Z" fill="#0F67F5"/>
</svg>
