<svg width="672" height="84" fill="none" xmlns="http://www.w3.org/2000/svg"><path fill="#F6F6F6" d="M0 0h672v84H0z"/><path d="M55.36 46.5v-8.73h1.58v7.4h3.85v1.33h-5.43Zm6.73 0v-6.55h1.54v6.55H62.1Zm.78-7.47a.9.9 0 0 1-.64-.25.78.78 0 0 1-.26-.59c0-.23.09-.43.26-.6a.9.9 0 0 1 .64-.24c.24 0 .45.08.63.25.17.16.26.36.26.59 0 .23-.09.43-.26.6a.89.89 0 0 1-.63.24Zm3.9 3.63v3.84h-1.55v-6.55h1.47v1.12h.08c.15-.37.39-.66.72-.88.33-.21.74-.32 1.23-.32.45 0 .85.1 1.18.29.34.2.6.47.79.84.18.37.28.81.27 1.33v4.17h-1.54v-3.93c0-.44-.11-.78-.34-1.03a1.2 1.2 0 0 0-.93-.37c-.27 0-.51.06-.72.18-.21.12-.38.29-.5.5-.11.23-.17.5-.17.81Zm7.17 1.79v-1.87h.24l2.35-2.63h1.8l-2.89 3.23h-.32l-1.18 1.27Zm-1.4 2.05v-8.73h1.53v8.73h-1.54Zm4.1 0-2.13-2.98 1.04-1.09 2.93 4.07h-1.84Zm6.96-6.55 1.32 2.42 1.34-2.42h1.64l-1.98 3.28 2.01 3.27h-1.62l-1.39-2.36-1.37 2.36h-1.64l2-3.27-1.95-3.28h1.64Zm10.66 1.73-1.4.16a1.13 1.13 0 0 0-.6-.7 1.43 1.43 0 0 0-.6-.12c-.33 0-.6.07-.82.2-.22.15-.32.33-.32.55 0 .19.07.35.21.46.14.12.38.22.72.3l1.11.24c.62.13 1.08.34 1.38.63.3.3.46.67.46 1.14 0 .41-.12.78-.36 1.1-.23.3-.56.55-.98.72-.42.18-.9.27-1.45.27-.8 0-1.45-.17-1.94-.5a2 2 0 0 1-.87-1.42l1.5-.14c.07.3.22.52.44.67.22.15.5.22.86.22.37 0 .66-.07.89-.22.22-.15.33-.34.33-.56a.58.58 0 0 0-.21-.46 1.51 1.51 0 0 0-.67-.29l-1.12-.23a2.66 2.66 0 0 1-1.39-.66c-.3-.31-.45-.7-.45-1.18 0-.4.1-.76.33-1.05.23-.3.54-.53.93-.7.4-.16.87-.24 1.39-.24.77 0 1.37.16 1.81.49.44.33.72.77.82 1.32Z" fill="#0F67F5"/><path stroke="#757575" d="M128 34v16"/><path d="M160.5 47V36.82h1.85v8.63h4.48V47h-6.33Zm7.85 0v-7.64h1.8V47h-1.8Zm.9-8.72c-.28 0-.52-.1-.73-.28a.91.91 0 0 1-.3-.7c0-.27.1-.5.3-.69.2-.19.45-.28.74-.28s.53.1.74.28c.2.2.3.42.3.7 0 .26-.1.5-.3.69-.2.19-.45.28-.74.28Zm4.56 4.25V47H172v-7.64h1.72v1.3h.08c.18-.43.46-.77.84-1.02.4-.25.87-.38 1.44-.38.53 0 .99.12 1.38.34.4.23.7.55.91.98.22.43.33.95.33 1.56V47h-1.8v-4.58c0-.51-.14-.91-.4-1.2a1.4 1.4 0 0 0-1.09-.43c-.31 0-.6.07-.84.2a1.5 1.5 0 0 0-.57.6 2 2 0 0 0-.2.94Zm8.37 2.07v-2.17h.28l2.74-3.07h2.1l-3.37 3.76h-.37l-1.38 1.48Zm-1.64 2.4V36.82h1.8V47h-1.8Zm4.79 0-2.49-3.48 1.22-1.26 3.42 4.74h-2.15ZM198 41.38l-1.64.18a1.31 1.31 0 0 0-.7-.82 1.62 1.62 0 0 0-.7-.13c-.38 0-.7.08-.95.24-.25.16-.37.37-.37.63 0 .22.08.4.24.54.17.14.45.26.84.35l1.3.27c.72.16 1.26.4 1.61.75.36.33.54.78.54 1.32 0 .48-.15.9-.42 1.28-.28.36-.66.65-1.15.85-.5.2-1.06.3-1.7.3-.93 0-1.68-.19-2.25-.58a2.4 2.4 0 0 1-1.02-1.64l1.76-.17c.08.34.25.6.5.78.26.17.6.26 1.01.26.43 0 .77-.09 1.03-.26.26-.18.4-.4.4-.65 0-.22-.09-.4-.26-.54a1.77 1.77 0 0 0-.78-.33l-1.3-.28a3.1 3.1 0 0 1-1.62-.77 1.9 1.9 0 0 1-.53-1.38c0-.47.13-.88.39-1.22a2.5 2.5 0 0 1 1.09-.8c.46-.2 1-.3 1.61-.3.9 0 1.6.2 2.12.58.51.38.83.9.95 1.54Zm1.65 5.62v-7.64h1.72v1.3h.1c.15-.44.42-.78.78-1.02a2.3 2.3 0 0 1 1.32-.38c.52 0 .95.13 1.3.38.37.25.62.59.76 1.02h.08c.17-.42.46-.76.86-1.01.4-.26.88-.39 1.43-.39.7 0 1.28.23 1.73.67.44.44.66 1.1.66 1.94V47h-1.8v-4.85c0-.47-.13-.82-.38-1.04a1.35 1.35 0 0 0-.93-.33c-.43 0-.77.14-1.01.4a1.5 1.5 0 0 0-.37 1.06V47h-1.76v-4.92c0-.4-.12-.71-.36-.95a1.25 1.25 0 0 0-.92-.35 1.33 1.33 0 0 0-1.21.75c-.13.24-.2.51-.2.83V47h-1.8Z" fill="#0F67F5"/><path stroke="#757575" d="M244 34v16"/><path d="M276.65 48V36.36h2.1v9.87h5.13V48h-7.23Zm8.97 0v-8.73h2.06V48h-2.06Zm1.03-9.97c-.32 0-.6-.1-.84-.32a1.05 1.05 0 0 1-.35-.79c0-.31.12-.57.35-.79.24-.22.52-.33.84-.33.33 0 .61.11.84.33a1.05 1.05 0 0 1 0 1.58c-.23.22-.5.32-.84.32Zm5.2 4.86V48h-2.06v-8.73h1.97v1.49h.1c.2-.5.52-.88.96-1.17.44-.29.99-.43 1.64-.43.6 0 1.13.13 1.58.39.45.25.8.63 1.04 1.11.25.5.37 1.09.37 1.78V48h-2.06v-5.24c0-.58-.15-1.04-.45-1.37a1.6 1.6 0 0 0-1.25-.5c-.36 0-.68.09-.96.25-.27.15-.49.38-.65.67-.15.3-.23.66-.23 1.08Zm9.57 2.37v-2.48h.32l3.14-3.5h2.4l-3.86 4.29H303l-1.58 1.7ZM299.54 48V36.36h2.06V48h-2.06Zm5.48 0-2.84-3.97 1.38-1.45 3.92 5.42h-2.46Zm7.6 0v-8.73h1.96v1.49h.1c.19-.5.49-.9.91-1.17.42-.29.92-.43 1.5-.43.6 0 1.1.14 1.5.43.41.28.7.67.87 1.17h.09c.19-.49.51-.88.97-1.16.47-.3 1.01-.44 1.65-.44.8 0 1.45.25 1.96.76.5.5.76 1.25.76 2.22V48h-2.06v-5.54c0-.54-.14-.94-.43-1.19a1.54 1.54 0 0 0-1.06-.38c-.5 0-.88.16-1.16.47-.28.3-.42.7-.42 1.2V48h-2.02v-5.63c0-.45-.13-.8-.4-1.07s-.63-.4-1.06-.4c-.3 0-.57.07-.8.22-.25.15-.44.36-.59.63a2 2 0 0 0-.21.94V48h-2.06Zm17.6.15a3.3 3.3 0 0 1-3.13-2.06 5.73 5.73 0 0 1-.47-2.44c0-.97.16-1.79.48-2.46a3.35 3.35 0 0 1 4.39-1.77c.32.17.59.38.78.62.2.24.34.46.45.68h.08v-4.36h2.06V48h-2.02v-1.38h-.12c-.1.22-.26.44-.46.68a2.54 2.54 0 0 1-2.04.85Zm.57-1.68c.44 0 .8-.12 1.11-.36.31-.23.55-.57.7-1 .16-.41.24-.9.24-1.47s-.08-1.06-.24-1.48a2.1 2.1 0 0 0-.69-.97 1.8 1.8 0 0 0-1.12-.34c-.46 0-.84.12-1.15.35-.3.24-.53.57-.69 1-.15.41-.23.9-.23 1.44 0 .54.07 1.03.23 1.46.16.42.4.76.7 1 .31.24.69.37 1.14.37Z" fill="#0F67F5"/><path stroke="#757575" d="M369 34v16"/><path d="M402 49.5V34.23h2.77v12.95h6.73v2.32H402Zm11.78 0V38.05h2.7V49.5h-2.7Zm1.36-13.08c-.43 0-.8-.14-1.1-.43a1.35 1.35 0 0 1-.47-1.03c0-.41.16-.76.47-1.04.3-.29.67-.43 1.1-.43.43 0 .8.14 1.1.43.31.28.46.63.46 1.04 0 .4-.15.75-.46 1.03-.3.29-.67.43-1.1.43Zm6.82 6.37v6.71h-2.7V38.05h2.58v1.94h.13c.26-.64.68-1.15 1.26-1.53.58-.37 1.3-.56 2.16-.56.79 0 1.48.17 2.06.5.6.34 1.05.83 1.38 1.47.32.64.49 1.42.48 2.34v7.29h-2.7v-6.88c0-.76-.2-1.36-.6-1.8a2.1 2.1 0 0 0-1.63-.64c-.47 0-.9.1-1.26.31-.36.2-.65.5-.86.89a3 3 0 0 0-.3 1.4Zm12.56 3.12-.01-3.26h.43l4.12-4.6h3.15l-5.06 5.63h-.56l-2.07 2.23Zm-2.47 3.59V34.23h2.7V49.5h-2.7Zm7.2 0-3.74-5.21 1.82-1.9 5.14 7.11h-3.23Zm12.67-15.27V49.5h-2.7V34.23h2.7Zm7.76 19.8c-.97 0-1.8-.13-2.5-.4-.7-.25-1.26-.6-1.68-1.04a3.62 3.62 0 0 1-.88-1.45l2.43-.59a2.4 2.4 0 0 0 1.32 1.22c.36.15.8.22 1.35.22.77 0 1.4-.19 1.9-.56.5-.37.76-.97.76-1.82v-2.17h-.14a3.7 3.7 0 0 1-.61.86 3 3 0 0 1-1.05.74c-.43.2-.98.3-1.63.3a4.7 4.7 0 0 1-2.4-.62 4.44 4.44 0 0 1-1.7-1.87 6.91 6.91 0 0 1-.63-3.11c0-1.26.21-2.32.63-3.19a4.39 4.39 0 0 1 5.76-2.31c.44.22.78.5 1.04.81.26.32.46.61.6.89h.14v-1.9h2.66V49.7a4 4 0 0 1-.7 2.43 4.2 4.2 0 0 1-1.92 1.44 7.5 7.5 0 0 1-2.75.47Zm.02-6.81a2.5 2.5 0 0 0 1.46-.42c.4-.28.7-.68.92-1.2.2-.52.31-1.15.31-1.88 0-.72-.1-1.35-.31-1.9a2.7 2.7 0 0 0-.91-1.25c-.4-.3-.89-.46-1.47-.46-.6 0-1.1.16-1.5.47a2.8 2.8 0 0 0-.92 1.3c-.2.53-.3 1.15-.3 1.84 0 .7.1 1.32.3 1.84.21.52.52.93.92 1.23.4.28.9.43 1.5.43Z" fill="#0F67F5"/><path stroke="#757575" d="M499 34v16"/><path d="M532.5 52V31.64h3.7V48.9h8.97V52H532.5Zm15.7 0V36.73h3.6V52h-3.6Zm1.82-17.44a2.1 2.1 0 0 1-1.47-.57 1.83 1.83 0 0 1-.62-1.38c0-.54.2-1 .62-1.38.4-.39.9-.58 1.47-.58.58 0 1.07.2 1.47.58.41.38.62.84.62 1.38 0 .54-.2 1-.62 1.38-.4.38-.9.57-1.47.57Zm9.09 8.5V52h-3.6V36.73h3.44v2.6h.18c.35-.86.91-1.54 1.68-2.05a5.2 5.2 0 0 1 2.87-.75c1.06 0 1.98.22 2.76.67.79.46 1.4 1.1 1.83 1.96.43.86.65 1.9.64 3.12V52h-3.6v-9.17a3.4 3.4 0 0 0-.8-2.4 2.8 2.8 0 0 0-2.17-.86c-.63 0-1.19.14-1.68.42a2.9 2.9 0 0 0-1.14 1.18 4 4 0 0 0-.41 1.88Zm16.74 4.15v-4.35h.57l5.49-6.13h4.2l-6.75 7.51h-.74l-2.77 2.97ZM572.57 52V31.64h3.6V52h-3.6Zm9.59 0-4.97-6.95 2.42-2.54 6.85 9.49h-4.3Zm16.24-15.27 3.08 5.64 3.14-5.64h3.8l-4.6 7.63L608.5 52h-3.78l-3.24-5.5-3.2 5.5h-3.82l4.66-7.64-4.54-7.63h3.82Zm16.4-5.1V52h-3.6V31.64h3.6Z" fill="#0F67F5"/></svg>