<svg width="672" height="178" viewBox="0 0 672 178" fill="none" xmlns="http://www.w3.org/2000/svg">
<rect width="672" height="176.43" transform="translate(0 0.830078)" fill="#F6F6F6"/>
<mask id="path-1-inside-1_10720_94894" fill="white">
<path d="M123.711 35.6234C123.711 34.0807 124.962 32.8301 126.504 32.8301H265.238V61.4613H123.711V35.6234Z"/>
</mask>
<path d="M123.711 35.6234C123.711 34.0807 124.962 32.8301 126.504 32.8301H265.238V61.4613H123.711V35.6234Z" fill="white"/>
<path d="M141.672 45.5857H140.374C140.337 45.3727 140.268 45.1841 140.169 45.0198C140.069 44.8531 139.945 44.7119 139.797 44.5962C139.649 44.4805 139.48 44.3937 139.29 44.3358C139.103 44.2757 138.9 44.2456 138.683 44.2456C138.296 44.2456 137.954 44.3428 137.655 44.5372C137.357 44.7293 137.123 45.0117 136.954 45.3843C136.785 45.7546 136.701 46.2071 136.701 46.7418C136.701 47.2857 136.785 47.744 136.954 48.1166C137.125 48.4869 137.359 48.767 137.655 48.9568C137.954 49.1442 138.295 49.238 138.679 49.238C138.892 49.238 139.091 49.2102 139.277 49.1547C139.464 49.0968 139.632 49.0123 139.78 48.9012C139.93 48.7901 140.057 48.6536 140.158 48.4916C140.263 48.3295 140.334 48.1444 140.374 47.9361L141.672 47.943C141.623 48.2809 141.518 48.598 141.356 48.8943C141.196 49.1905 140.987 49.4521 140.728 49.6789C140.469 49.9034 140.165 50.0793 139.818 50.2066C139.471 50.3316 139.086 50.3941 138.662 50.3941C138.037 50.3941 137.479 50.2494 136.989 49.9601C136.498 49.6708 136.111 49.253 135.829 48.7068C135.547 48.1606 135.406 47.5056 135.406 46.7418C135.406 45.9757 135.548 45.3207 135.833 44.7768C136.117 44.2305 136.505 43.8128 136.996 43.5234C137.486 43.2341 138.042 43.0895 138.662 43.0895C139.058 43.0895 139.426 43.145 139.766 43.2561C140.106 43.3672 140.41 43.5304 140.676 43.7456C140.942 43.9586 141.161 44.2201 141.332 44.5303C141.505 44.8381 141.619 45.1899 141.672 45.5857ZM142.796 43.1867H144.053V48.7693C144.053 48.9683 144.083 49.1107 144.143 49.1963C144.203 49.282 144.31 49.3225 144.463 49.3178C144.546 49.3155 144.608 49.3109 144.65 49.3039C144.694 49.2947 144.733 49.2854 144.768 49.2762L144.976 50.2274C144.902 50.2506 144.81 50.2726 144.699 50.2934C144.59 50.3142 144.456 50.327 144.296 50.3316C143.787 50.3455 143.409 50.239 143.164 50.0122C142.919 49.7854 142.796 49.4393 142.796 48.9741V43.1867ZM147.138 50.4045C146.8 50.4045 146.495 50.3443 146.224 50.224C145.956 50.1013 145.743 49.9208 145.586 49.6824C145.431 49.444 145.353 49.15 145.353 48.8005C145.353 48.4997 145.409 48.2508 145.52 48.0541C145.631 47.8574 145.782 47.7 145.974 47.5819C146.167 47.4639 146.383 47.3748 146.624 47.3146C146.867 47.2521 147.118 47.207 147.377 47.1792C147.69 47.1468 147.943 47.1179 148.137 47.0924C148.332 47.0647 148.473 47.023 148.561 46.9674C148.651 46.9096 148.696 46.8205 148.696 46.7001V46.6793C148.696 46.4177 148.619 46.2152 148.464 46.0717C148.309 45.9282 148.085 45.8565 147.794 45.8565C147.486 45.8565 147.242 45.9236 147.061 46.0578C146.883 46.1921 146.763 46.3506 146.7 46.5335L145.527 46.3668C145.619 46.0428 145.772 45.772 145.985 45.5544C146.198 45.3346 146.458 45.1702 146.766 45.0614C147.074 44.9503 147.414 44.8948 147.787 44.8948C148.044 44.8948 148.299 44.9249 148.554 44.9851C148.809 45.0452 149.041 45.1448 149.252 45.2836C149.462 45.4202 149.631 45.6065 149.759 45.8426C149.888 46.0787 149.953 46.3738 149.953 46.7279V50.2969H148.745V49.5643H148.703C148.627 49.7125 148.519 49.8513 148.38 49.9809C148.244 50.1082 148.071 50.2112 147.863 50.2899C147.657 50.3663 147.415 50.4045 147.138 50.4045ZM147.464 49.481C147.716 49.481 147.935 49.4312 148.12 49.3317C148.305 49.2299 148.448 49.0956 148.547 48.929C148.649 48.7624 148.7 48.5807 148.7 48.3839V47.7555C148.66 47.7879 148.593 47.818 148.498 47.8458C148.406 47.8736 148.302 47.8979 148.186 47.9187C148.07 47.9395 147.956 47.9581 147.842 47.9743C147.729 47.9905 147.631 48.0043 147.547 48.0159C147.36 48.0414 147.192 48.083 147.044 48.1409C146.896 48.1988 146.779 48.2798 146.693 48.3839C146.608 48.4858 146.565 48.6177 146.565 48.7797C146.565 49.0112 146.649 49.1859 146.818 49.3039C146.987 49.422 147.202 49.481 147.464 49.481ZM155.432 46.3738L154.286 46.4988C154.254 46.383 154.197 46.2742 154.116 46.1724C154.037 46.0706 153.931 45.9884 153.796 45.9259C153.662 45.8634 153.498 45.8322 153.303 45.8322C153.042 45.8322 152.822 45.8889 152.644 46.0023C152.468 46.1157 152.381 46.2627 152.383 46.4432C152.381 46.5983 152.438 46.7244 152.553 46.8216C152.672 46.9188 152.866 46.9987 153.137 47.0612L154.046 47.2556C154.551 47.3644 154.926 47.5368 155.171 47.7729C155.419 48.009 155.544 48.318 155.546 48.6999C155.544 49.0355 155.445 49.3317 155.251 49.5886C155.059 49.8432 154.792 50.0423 154.449 50.1858C154.107 50.3293 153.713 50.401 153.269 50.401C152.616 50.401 152.091 50.2645 151.692 49.9914C151.294 49.7159 151.057 49.3329 150.981 48.8422L152.206 48.7242C152.262 48.9649 152.38 49.1466 152.56 49.2692C152.741 49.3919 152.976 49.4532 153.265 49.4532C153.564 49.4532 153.803 49.3919 153.984 49.2692C154.167 49.1466 154.258 48.995 154.258 48.8144C154.258 48.6617 154.199 48.5355 154.081 48.436C153.965 48.3365 153.785 48.2601 153.539 48.2069L152.63 48.0159C152.118 47.9095 151.74 47.7301 151.495 47.4778C151.249 47.2232 151.128 46.9015 151.13 46.5126C151.128 46.184 151.217 45.8993 151.397 45.6586C151.58 45.4156 151.834 45.2281 152.158 45.0962C152.484 44.9619 152.86 44.8948 153.286 44.8948C153.911 44.8948 154.403 45.0279 154.762 45.294C155.123 45.5602 155.346 45.9201 155.432 46.3738ZM160.797 46.3738L159.652 46.4988C159.619 46.383 159.562 46.2742 159.481 46.1724C159.403 46.0706 159.296 45.9884 159.162 45.9259C159.028 45.8634 158.863 45.8322 158.669 45.8322C158.407 45.8322 158.188 45.8889 158.009 46.0023C157.833 46.1157 157.747 46.2627 157.749 46.4432C157.747 46.5983 157.803 46.7244 157.919 46.8216C158.037 46.9188 158.232 46.9987 158.502 47.0612L159.412 47.2556C159.917 47.3644 160.291 47.5368 160.537 47.7729C160.784 48.009 160.909 48.318 160.912 48.6999C160.909 49.0355 160.811 49.3317 160.617 49.5886C160.425 49.8432 160.157 50.0423 159.815 50.1858C159.472 50.3293 159.079 50.401 158.634 50.401C157.982 50.401 157.456 50.2645 157.058 49.9914C156.66 49.7159 156.423 49.3329 156.346 48.8422L157.572 48.7242C157.627 48.9649 157.746 49.1466 157.926 49.2692C158.107 49.3919 158.342 49.4532 158.631 49.4532C158.929 49.4532 159.169 49.3919 159.349 49.2692C159.532 49.1466 159.624 48.995 159.624 48.8144C159.624 48.6617 159.565 48.5355 159.447 48.436C159.331 48.3365 159.15 48.2601 158.905 48.2069L157.995 48.0159C157.484 47.9095 157.106 47.7301 156.86 47.4778C156.615 47.2232 156.493 46.9015 156.496 46.5126C156.493 46.184 156.582 45.8993 156.763 45.6586C156.946 45.4156 157.199 45.2281 157.523 45.0962C157.85 44.9619 158.226 44.8948 158.652 44.8948C159.277 44.8948 159.768 45.0279 160.127 45.294C160.488 45.5602 160.712 45.9201 160.797 46.3738Z" fill="#1F1F1F"/>
<path d="M123.711 32.8301H265.238H123.711ZM265.238 62.1596H123.711V60.763H265.238V62.1596ZM123.711 61.4613V32.8301V61.4613ZM265.238 32.8301V61.4613V32.8301Z" fill="#F6F6F6" mask="url(#path-1-inside-1_10720_94894)"/>
<mask id="path-4-inside-2_10720_94894" fill="white">
<path d="M265.238 33.0117H406.765V61.2798H265.238V33.0117Z"/>
</mask>
<path d="M265.238 33.0117H406.765V61.2798H265.238V33.0117Z" fill="white"/>
<path d="M275.232 50.2969H273.857L276.36 43.1867H277.95L280.457 50.2969H279.082L277.183 44.6448H277.127L275.232 50.2969ZM275.277 47.509H279.026V48.5436H275.277V47.509ZM284.736 48.0541V44.9642H285.993V50.2969H284.775V49.3491H284.719C284.599 49.6477 284.401 49.8918 284.125 50.0816C283.852 50.2714 283.516 50.3663 283.115 50.3663C282.766 50.3663 282.457 50.2888 282.188 50.1337C281.922 49.9763 281.714 49.7483 281.563 49.4498C281.413 49.1489 281.338 48.7855 281.338 48.3596V44.9642H282.594V48.1652C282.594 48.5031 282.687 48.7716 282.872 48.9707C283.057 49.1697 283.3 49.2692 283.601 49.2692C283.786 49.2692 283.966 49.2241 284.139 49.1338C284.313 49.0436 284.455 48.9093 284.566 48.7311C284.68 48.5506 284.736 48.3249 284.736 48.0541ZM289.948 44.9642V45.9363H286.883V44.9642H289.948ZM287.64 43.6866H288.896V48.6929C288.896 48.8619 288.922 48.9915 288.973 49.0818C289.026 49.1697 289.096 49.2299 289.181 49.2623C289.267 49.2947 289.362 49.3109 289.466 49.3109C289.545 49.3109 289.616 49.3051 289.681 49.2935C289.748 49.282 289.799 49.2715 289.834 49.2623L290.046 50.2448C289.978 50.2679 289.882 50.2934 289.757 50.3212C289.635 50.349 289.484 50.3652 289.306 50.3698C288.991 50.379 288.708 50.3316 288.456 50.2274C288.203 50.121 288.003 49.9566 287.855 49.7344C287.709 49.5123 287.637 49.2345 287.64 48.9012V43.6866ZM293.268 50.401C292.748 50.401 292.296 50.2865 291.914 50.0573C291.532 49.8282 291.236 49.5076 291.026 49.0956C290.817 48.6837 290.713 48.2022 290.713 47.6514C290.713 47.1005 290.817 46.618 291.026 46.2037C291.236 45.7894 291.532 45.4676 291.914 45.2385C292.296 45.0094 292.748 44.8948 293.268 44.8948C293.789 44.8948 294.24 45.0094 294.622 45.2385C295.004 45.4676 295.299 45.7894 295.508 46.2037C295.718 46.618 295.824 47.1005 295.824 47.6514C295.824 48.2022 295.718 48.6837 295.508 49.0956C295.299 49.5076 295.004 49.8282 294.622 50.0573C294.24 50.2865 293.789 50.401 293.268 50.401ZM293.275 49.3942C293.558 49.3942 293.794 49.3167 293.983 49.1616C294.173 49.0042 294.314 48.7936 294.407 48.5297C294.502 48.2659 294.549 47.9719 294.549 47.6479C294.549 47.3216 294.502 47.0265 294.407 46.7626C294.314 46.4964 294.173 46.2847 293.983 46.1273C293.794 45.9699 293.558 45.8912 293.275 45.8912C292.986 45.8912 292.745 45.9699 292.553 46.1273C292.363 46.2847 292.221 46.4964 292.126 46.7626C292.034 47.0265 291.987 47.3216 291.987 47.6479C291.987 47.9719 292.034 48.2659 292.126 48.5297C292.221 48.7936 292.363 49.0042 292.553 49.1616C292.745 49.3167 292.986 49.3942 293.275 49.3942ZM296.89 50.2969V44.9642H298.091V45.8704H298.154C298.265 45.5648 298.449 45.3265 298.706 45.1552C298.963 44.9816 299.27 44.8948 299.626 44.8948C299.987 44.8948 300.291 44.9827 300.539 45.1586C300.789 45.3322 300.965 45.5695 301.067 45.8704H301.122C301.24 45.5741 301.439 45.338 301.719 45.1621C302.002 44.9839 302.336 44.8948 302.723 44.8948C303.213 44.8948 303.614 45.0499 303.924 45.36C304.234 45.6702 304.389 46.1226 304.389 46.7175V50.2969H303.129V46.9119C303.129 46.5809 303.041 46.3391 302.865 46.1863C302.689 46.0312 302.474 45.9537 302.219 45.9537C301.916 45.9537 301.679 46.0486 301.508 46.2384C301.339 46.4258 301.254 46.67 301.254 46.9709V50.2969H300.022V46.8598C300.022 46.5844 299.938 46.3645 299.772 46.2002C299.607 46.0359 299.392 45.9537 299.126 45.9537C298.946 45.9537 298.781 46 298.633 46.0926C298.485 46.1828 298.367 46.3113 298.279 46.4779C298.191 46.6423 298.147 46.8344 298.147 47.0542V50.2969H296.89ZM307.199 50.4045C306.861 50.4045 306.557 50.3443 306.286 50.224C306.017 50.1013 305.804 49.9208 305.647 49.6824C305.492 49.444 305.414 49.15 305.414 48.8005C305.414 48.4997 305.47 48.2508 305.581 48.0541C305.692 47.8574 305.844 47.7 306.036 47.5819C306.228 47.4639 306.444 47.3748 306.685 47.3146C306.928 47.2521 307.179 47.207 307.438 47.1792C307.751 47.1468 308.004 47.1179 308.199 47.0924C308.393 47.0647 308.534 47.023 308.622 46.9674C308.712 46.9096 308.758 46.8205 308.758 46.7001V46.6793C308.758 46.4177 308.68 46.2152 308.525 46.0717C308.37 45.9282 308.147 45.8565 307.855 45.8565C307.547 45.8565 307.303 45.9236 307.122 46.0578C306.944 46.1921 306.824 46.3506 306.761 46.5335L305.588 46.3668C305.68 46.0428 305.833 45.772 306.046 45.5544C306.259 45.3346 306.519 45.1702 306.827 45.0614C307.135 44.9503 307.475 44.8948 307.848 44.8948C308.105 44.8948 308.361 44.9249 308.615 44.9851C308.87 45.0452 309.102 45.1448 309.313 45.2836C309.524 45.4202 309.693 45.6065 309.82 45.8426C309.95 46.0787 310.014 46.3738 310.014 46.7279V50.2969H308.806V49.5643H308.765C308.688 49.7125 308.581 49.8513 308.442 49.9809C308.305 50.1082 308.133 50.2112 307.924 50.2899C307.718 50.3663 307.477 50.4045 307.199 50.4045ZM307.525 49.481C307.777 49.481 307.996 49.4312 308.181 49.3317C308.366 49.2299 308.509 49.0956 308.608 48.929C308.71 48.7624 308.761 48.5807 308.761 48.3839V47.7555C308.722 47.7879 308.655 47.818 308.56 47.8458C308.467 47.8736 308.363 47.8979 308.247 47.9187C308.132 47.9395 308.017 47.9581 307.904 47.9743C307.79 47.9905 307.692 48.0043 307.608 48.0159C307.421 48.0414 307.253 48.083 307.105 48.1409C306.957 48.1988 306.84 48.2798 306.754 48.3839C306.669 48.4858 306.626 48.6177 306.626 48.7797C306.626 49.0112 306.71 49.1859 306.879 49.3039C307.048 49.422 307.264 49.481 307.525 49.481ZM313.941 44.9642V45.9363H310.875V44.9642H313.941ZM311.632 43.6866H312.889V48.6929C312.889 48.8619 312.914 48.9915 312.965 49.0818C313.019 49.1697 313.088 49.2299 313.174 49.2623C313.259 49.2947 313.354 49.3109 313.458 49.3109C313.537 49.3109 313.609 49.3051 313.674 49.2935C313.741 49.282 313.792 49.2715 313.826 49.2623L314.038 50.2448C313.971 50.2679 313.875 50.2934 313.75 50.3212C313.627 50.349 313.477 50.3652 313.299 50.3698C312.984 50.379 312.7 50.3316 312.448 50.2274C312.196 50.121 311.996 49.9566 311.847 49.7344C311.702 49.5123 311.63 49.2345 311.632 48.9012V43.6866ZM314.992 50.2969V44.9642H316.249V50.2969H314.992ZM315.624 44.2074C315.425 44.2074 315.254 44.1414 315.11 44.0095C314.967 43.8753 314.895 43.7144 314.895 43.5269C314.895 43.3371 314.967 43.1763 315.11 43.0443C315.254 42.9101 315.425 42.843 315.624 42.843C315.825 42.843 315.997 42.9101 316.138 43.0443C316.281 43.1763 316.353 43.3371 316.353 43.5269C316.353 43.7144 316.281 43.8753 316.138 44.0095C315.997 44.1414 315.825 44.2074 315.624 44.2074ZM319.867 50.401C319.335 50.401 318.878 50.2841 318.496 50.0504C318.116 49.8166 317.824 49.4937 317.618 49.0818C317.414 48.6675 317.312 48.1907 317.312 47.6514C317.312 47.1098 317.416 46.6318 317.625 46.2175C317.833 45.8009 318.127 45.4769 318.506 45.2454C318.888 45.0117 319.34 44.8948 319.86 44.8948C320.293 44.8948 320.676 44.9746 321.01 45.1343C321.345 45.2917 321.612 45.5151 321.811 45.8044C322.011 46.0914 322.124 46.427 322.152 46.8112H320.95C320.902 46.5543 320.786 46.3402 320.603 46.1689C320.423 45.9953 320.181 45.9086 319.878 45.9086C319.621 45.9086 319.395 45.978 319.201 46.1169C319.006 46.2534 318.855 46.4501 318.746 46.7071C318.639 46.964 318.586 47.2718 318.586 47.6306C318.586 47.9939 318.639 48.3064 318.746 48.5679C318.852 48.8272 319.002 49.0274 319.194 49.1685C319.388 49.3074 319.616 49.3769 319.878 49.3769C320.063 49.3769 320.228 49.3421 320.374 49.2727C320.522 49.201 320.646 49.098 320.746 48.9637C320.845 48.8295 320.913 48.6663 320.95 48.4742H322.152C322.122 48.8515 322.011 49.1859 321.818 49.4775C321.626 49.7669 321.365 49.9937 321.034 50.158C320.703 50.32 320.314 50.401 319.867 50.401ZM329.008 48.0541V44.9642H330.264V50.2969H329.046V49.3491H328.99C328.87 49.6477 328.672 49.8918 328.397 50.0816C328.123 50.2714 327.787 50.3663 327.386 50.3663C327.037 50.3663 326.728 50.2888 326.459 50.1337C326.193 49.9763 325.985 49.7483 325.834 49.4498C325.684 49.1489 325.609 48.7855 325.609 48.3596V44.9642H326.866V48.1652C326.866 48.5031 326.958 48.7716 327.143 48.9707C327.328 49.1697 327.571 49.2692 327.872 49.2692C328.057 49.2692 328.237 49.2241 328.41 49.1338C328.584 49.0436 328.726 48.9093 328.837 48.7311C328.951 48.5506 329.008 48.3249 329.008 48.0541ZM331.557 52.2966V44.9642H332.793V45.8461H332.866C332.93 45.7164 333.022 45.5787 333.14 45.4329C333.258 45.2848 333.418 45.1586 333.619 45.0545C333.82 44.948 334.077 44.8948 334.39 44.8948C334.802 44.8948 335.173 45.0001 335.504 45.2107C335.837 45.419 336.101 45.728 336.296 46.1377C336.492 46.545 336.591 47.045 336.591 47.6375C336.591 48.2231 336.495 48.7207 336.303 49.1304C336.111 49.54 335.849 49.8525 335.518 50.0677C335.187 50.283 334.812 50.3906 334.393 50.3906C334.088 50.3906 333.834 50.3397 333.633 50.2379C333.432 50.136 333.269 50.0133 333.147 49.8698C333.026 49.724 332.933 49.5863 332.866 49.4567H332.814V52.2966H331.557ZM332.789 47.6306C332.789 47.9754 332.838 48.2775 332.935 48.5367C333.035 48.7959 333.177 48.9984 333.362 49.1442C333.55 49.2877 333.776 49.3595 334.043 49.3595C334.32 49.3595 334.553 49.2854 334.74 49.1373C334.928 48.9869 335.069 48.782 335.164 48.5228C335.261 48.2613 335.31 47.9638 335.31 47.6306C335.31 47.2996 335.262 47.0056 335.167 46.7487C335.073 46.4918 334.931 46.2904 334.744 46.1446C334.556 45.9988 334.323 45.9259 334.043 45.9259C333.774 45.9259 333.546 45.9965 333.359 46.1377C333.171 46.2789 333.029 46.4768 332.932 46.7314C332.837 46.986 332.789 47.2857 332.789 47.6306ZM339.646 50.3906C339.227 50.3906 338.852 50.283 338.521 50.0677C338.19 49.8525 337.929 49.54 337.737 49.1304C337.544 48.7207 337.448 48.2231 337.448 47.6375C337.448 47.045 337.546 46.545 337.74 46.1377C337.937 45.728 338.202 45.419 338.535 45.2107C338.868 45.0001 339.24 44.8948 339.649 44.8948C339.962 44.8948 340.219 44.948 340.42 45.0545C340.622 45.1586 340.781 45.2848 340.899 45.4329C341.017 45.5787 341.109 45.7164 341.174 45.8461H341.226V43.1867H342.486V50.2969H341.25V49.4567H341.174C341.109 49.5863 341.015 49.724 340.892 49.8698C340.77 50.0133 340.608 50.136 340.406 50.2379C340.205 50.3397 339.952 50.3906 339.646 50.3906ZM339.997 49.3595C340.263 49.3595 340.49 49.2877 340.677 49.1442C340.865 48.9984 341.007 48.7959 341.104 48.5367C341.201 48.2775 341.25 47.9754 341.25 47.6306C341.25 47.2857 341.201 46.986 341.104 46.7314C341.009 46.4768 340.868 46.2789 340.681 46.1377C340.495 45.9965 340.267 45.9259 339.997 45.9259C339.717 45.9259 339.483 45.9988 339.295 46.1446C339.108 46.2904 338.967 46.4918 338.872 46.7487C338.777 47.0056 338.729 47.2996 338.729 47.6306C338.729 47.9638 338.777 48.2613 338.872 48.5228C338.969 48.782 339.111 48.9869 339.299 49.1373C339.489 49.2854 339.721 49.3595 339.997 49.3595ZM345.36 50.4045C345.022 50.4045 344.717 50.3443 344.447 50.224C344.178 50.1013 343.965 49.9208 343.808 49.6824C343.653 49.444 343.575 49.15 343.575 48.8005C343.575 48.4997 343.631 48.2508 343.742 48.0541C343.853 47.8574 344.005 47.7 344.197 47.5819C344.389 47.4639 344.605 47.3748 344.846 47.3146C345.089 47.2521 345.34 47.207 345.599 47.1792C345.912 47.1468 346.165 47.1179 346.36 47.0924C346.554 47.0647 346.695 47.023 346.783 46.9674C346.873 46.9096 346.918 46.8205 346.918 46.7001V46.6793C346.918 46.4177 346.841 46.2152 346.686 46.0717C346.531 45.9282 346.307 45.8565 346.016 45.8565C345.708 45.8565 345.464 45.9236 345.283 46.0578C345.105 46.1921 344.985 46.3506 344.922 46.5335L343.749 46.3668C343.841 46.0428 343.994 45.772 344.207 45.5544C344.42 45.3346 344.68 45.1702 344.988 45.0614C345.296 44.9503 345.636 44.8948 346.009 44.8948C346.266 44.8948 346.522 44.9249 346.776 44.9851C347.031 45.0452 347.263 45.1448 347.474 45.2836C347.685 45.4202 347.854 45.6065 347.981 45.8426C348.11 46.0787 348.175 46.3738 348.175 46.7279V50.2969H346.967V49.5643H346.925C346.849 49.7125 346.741 49.8513 346.603 49.9809C346.466 50.1082 346.294 50.2112 346.085 50.2899C345.879 50.3663 345.637 50.4045 345.36 50.4045ZM345.686 49.481C345.938 49.481 346.157 49.4312 346.342 49.3317C346.527 49.2299 346.67 49.0956 346.769 48.929C346.871 48.7624 346.922 48.5807 346.922 48.3839V47.7555C346.883 47.7879 346.815 47.818 346.721 47.8458C346.628 47.8736 346.524 47.8979 346.408 47.9187C346.292 47.9395 346.178 47.9581 346.064 47.9743C345.951 47.9905 345.853 48.0043 345.769 48.0159C345.582 48.0414 345.414 48.083 345.266 48.1409C345.118 48.1988 345.001 48.2798 344.915 48.3839C344.83 48.4858 344.787 48.6177 344.787 48.7797C344.787 49.0112 344.871 49.1859 345.04 49.3039C345.209 49.422 345.424 49.481 345.686 49.481ZM352.102 44.9642V45.9363H349.036V44.9642H352.102ZM349.793 43.6866H351.05V48.6929C351.05 48.8619 351.075 48.9915 351.126 49.0818C351.18 49.1697 351.249 49.2299 351.335 49.2623C351.42 49.2947 351.515 49.3109 351.619 49.3109C351.698 49.3109 351.77 49.3051 351.835 49.2935C351.902 49.282 351.953 49.2715 351.987 49.2623L352.199 50.2448C352.132 50.2679 352.036 50.2934 351.911 50.3212C351.788 50.349 351.638 50.3652 351.46 50.3698C351.145 50.379 350.861 50.3316 350.609 50.2274C350.357 50.121 350.156 49.9566 350.008 49.7344C349.863 49.5123 349.791 49.2345 349.793 48.9012V43.6866ZM355.456 50.401C354.922 50.401 354.46 50.2899 354.071 50.0677C353.685 49.8432 353.387 49.5261 353.179 49.1165C352.971 48.7045 352.867 48.2196 352.867 47.6618C352.867 47.1133 352.971 46.6318 353.179 46.2175C353.39 45.8009 353.684 45.4769 354.061 45.2454C354.438 45.0117 354.881 44.8948 355.39 44.8948C355.719 44.8948 356.029 44.948 356.321 45.0545C356.615 45.1586 356.874 45.3207 357.099 45.5405C357.325 45.7604 357.504 46.0405 357.633 46.3807C357.763 46.7186 357.828 47.1214 357.828 47.5889V47.9743H353.457V47.1271H356.623C356.621 46.8864 356.569 46.6723 356.467 46.4849C356.365 46.2951 356.223 46.1458 356.04 46.037C355.859 45.9282 355.649 45.8738 355.408 45.8738C355.151 45.8738 354.925 45.9363 354.731 46.0613C354.536 46.184 354.385 46.346 354.276 46.5474C354.17 46.7464 354.115 46.9651 354.113 47.2035V47.943C354.113 48.2532 354.17 48.5193 354.283 48.7415C354.396 48.9614 354.555 49.1304 354.759 49.2484C354.962 49.3641 355.201 49.422 355.474 49.422C355.657 49.422 355.822 49.3965 355.97 49.3456C356.118 49.2924 356.247 49.2148 356.356 49.113C356.464 49.0112 356.547 48.885 356.602 48.7346L357.776 48.8665C357.702 49.1766 357.56 49.4474 357.352 49.6789C357.146 49.908 356.882 50.0863 356.56 50.2136C356.239 50.3385 355.871 50.401 355.456 50.401ZM363.106 46.3738L361.96 46.4988C361.928 46.383 361.871 46.2742 361.79 46.1724C361.711 46.0706 361.605 45.9884 361.47 45.9259C361.336 45.8634 361.172 45.8322 360.977 45.8322C360.716 45.8322 360.496 45.8889 360.318 46.0023C360.142 46.1157 360.055 46.2627 360.057 46.4432C360.055 46.5983 360.112 46.7244 360.228 46.8216C360.346 46.9188 360.54 46.9987 360.811 47.0612L361.72 47.2556C362.225 47.3644 362.6 47.5368 362.845 47.7729C363.093 48.009 363.218 48.318 363.22 48.6999C363.218 49.0355 363.12 49.3317 362.925 49.5886C362.733 49.8432 362.466 50.0423 362.123 50.1858C361.781 50.3293 361.387 50.401 360.943 50.401C360.29 50.401 359.765 50.2645 359.367 49.9914C358.968 49.7159 358.731 49.3329 358.655 48.8422L359.88 48.7242C359.936 48.9649 360.054 49.1466 360.234 49.2692C360.415 49.3919 360.65 49.4532 360.939 49.4532C361.238 49.4532 361.477 49.3919 361.658 49.2692C361.841 49.1466 361.932 48.995 361.932 48.8144C361.932 48.6617 361.873 48.5355 361.755 48.436C361.639 48.3365 361.459 48.2601 361.214 48.2069L360.304 48.0159C359.792 47.9095 359.414 47.7301 359.169 47.4778C358.923 47.2232 358.802 46.9015 358.804 46.5126C358.802 46.184 358.891 45.8993 359.071 45.6586C359.254 45.4156 359.508 45.2281 359.832 45.0962C360.158 44.9619 360.534 44.8948 360.96 44.8948C361.585 44.8948 362.077 45.0279 362.436 45.294C362.797 45.5602 363.02 45.9201 363.106 46.3738Z" fill="#1F1F1F"/>
<path d="M406.765 60.5815H265.238V61.9782H406.765V60.5815Z" fill="#F6F6F6" mask="url(#path-4-inside-2_10720_94894)"/>
<mask id="path-7-inside-3_10720_94894" fill="white">
<path d="M406.764 33.0117H545.497C547.04 33.0117 548.29 34.2623 548.29 35.805V61.2798H406.764V33.0117Z"/>
</mask>
<path d="M406.764 33.0117H545.497C547.04 33.0117 548.29 34.2623 548.29 35.805V61.2798H406.764V33.0117Z" fill="white"/>
<path d="M416.757 50.2969H415.382L417.885 43.1867H419.475L421.982 50.2969H420.607L418.708 44.6448H418.653L416.757 50.2969ZM416.802 47.509H420.552V48.5436H416.802V47.509ZM425.027 50.401C424.494 50.401 424.037 50.2841 423.655 50.0504C423.276 49.8166 422.983 49.4937 422.777 49.0818C422.573 48.6675 422.471 48.1907 422.471 47.6514C422.471 47.1098 422.576 46.6318 422.784 46.2175C422.992 45.8009 423.286 45.4769 423.666 45.2454C424.048 45.0117 424.499 44.8948 425.02 44.8948C425.453 44.8948 425.836 44.9746 426.169 45.1343C426.505 45.2917 426.772 45.5151 426.971 45.8044C427.17 46.0914 427.283 46.427 427.311 46.8112H426.11C426.061 46.5543 425.946 46.3402 425.763 46.1689C425.582 45.9953 425.34 45.9086 425.037 45.9086C424.78 45.9086 424.555 45.978 424.36 46.1169C424.166 46.2534 424.014 46.4501 423.905 46.7071C423.799 46.964 423.746 47.2718 423.746 47.6306C423.746 47.9939 423.799 48.3064 423.905 48.5679C424.012 48.8272 424.161 49.0274 424.353 49.1685C424.548 49.3074 424.776 49.3769 425.037 49.3769C425.222 49.3769 425.388 49.3421 425.534 49.2727C425.682 49.201 425.806 49.098 425.905 48.9637C426.005 48.8295 426.073 48.6663 426.11 48.4742H427.311C427.281 48.8515 427.17 49.1859 426.978 49.4775C426.786 49.7669 426.524 49.9937 426.193 50.158C425.862 50.32 425.473 50.401 425.027 50.401ZM431.006 44.9642V45.9363H427.94V44.9642H431.006ZM428.697 43.6866H429.954V48.6929C429.954 48.8619 429.979 48.9915 430.03 49.0818C430.084 49.1697 430.153 49.2299 430.239 49.2623C430.324 49.2947 430.419 49.3109 430.523 49.3109C430.602 49.3109 430.674 49.3051 430.739 49.2935C430.806 49.282 430.857 49.2715 430.891 49.2623L431.103 50.2448C431.036 50.2679 430.94 50.2934 430.815 50.3212C430.692 50.349 430.542 50.3652 430.364 50.3698C430.049 50.379 429.765 50.3316 429.513 50.2274C429.261 50.121 429.061 49.9566 428.913 49.7344C428.767 49.5123 428.695 49.2345 428.697 48.9012V43.6866ZM432.057 50.2969V44.9642H433.314V50.2969H432.057ZM432.689 44.2074C432.49 44.2074 432.319 44.1414 432.175 44.0095C432.032 43.8753 431.96 43.7144 431.96 43.5269C431.96 43.3371 432.032 43.1763 432.175 43.0443C432.319 42.9101 432.49 42.843 432.689 42.843C432.89 42.843 433.062 42.9101 433.203 43.0443C433.346 43.1763 433.418 43.3371 433.418 43.5269C433.418 43.7144 433.346 43.8753 433.203 44.0095C433.062 44.1414 432.89 44.2074 432.689 44.2074ZM436.932 50.401C436.412 50.401 435.96 50.2865 435.578 50.0573C435.196 49.8282 434.9 49.5076 434.69 49.0956C434.481 48.6837 434.377 48.2022 434.377 47.6514C434.377 47.1005 434.481 46.618 434.69 46.2037C434.9 45.7894 435.196 45.4676 435.578 45.2385C435.96 45.0094 436.412 44.8948 436.932 44.8948C437.453 44.8948 437.904 45.0094 438.286 45.2385C438.668 45.4676 438.963 45.7894 439.172 46.2037C439.382 46.618 439.488 47.1005 439.488 47.6514C439.488 48.2022 439.382 48.6837 439.172 49.0956C438.963 49.5076 438.668 49.8282 438.286 50.0573C437.904 50.2865 437.453 50.401 436.932 50.401ZM436.939 49.3942C437.222 49.3942 437.458 49.3167 437.647 49.1616C437.837 49.0042 437.978 48.7936 438.071 48.5297C438.166 48.2659 438.213 47.9719 438.213 47.6479C438.213 47.3216 438.166 47.0265 438.071 46.7626C437.978 46.4964 437.837 46.2847 437.647 46.1273C437.458 45.9699 437.222 45.8912 436.939 45.8912C436.65 45.8912 436.409 45.9699 436.217 46.1273C436.027 46.2847 435.885 46.4964 435.79 46.7626C435.698 47.0265 435.651 47.3216 435.651 47.6479C435.651 47.9719 435.698 48.2659 435.79 48.5297C435.885 48.7936 436.027 49.0042 436.217 49.1616C436.409 49.3167 436.65 49.3942 436.939 49.3942ZM441.811 47.1723V50.2969H440.554V44.9642H441.755V45.8704H441.818C441.941 45.5718 442.136 45.3346 442.405 45.1586C442.675 44.9827 443.01 44.8948 443.408 44.8948C443.776 44.8948 444.097 44.9735 444.37 45.1309C444.645 45.2883 444.858 45.5162 445.009 45.8148C445.161 46.1134 445.236 46.4756 445.234 46.9015V50.2969H443.977V47.0959C443.977 46.7395 443.885 46.4606 443.7 46.2592C443.517 46.0578 443.263 45.9572 442.939 45.9572C442.719 45.9572 442.524 46.0058 442.353 46.103C442.184 46.1979 442.051 46.3356 441.953 46.5161C441.858 46.6966 441.811 46.9154 441.811 47.1723ZM450.727 46.3738L449.581 46.4988C449.548 46.383 449.492 46.2742 449.411 46.1724C449.332 46.0706 449.226 45.9884 449.091 45.9259C448.957 45.8634 448.793 45.8322 448.598 45.8322C448.337 45.8322 448.117 45.8889 447.939 46.0023C447.763 46.1157 447.676 46.2627 447.678 46.4432C447.676 46.5983 447.733 46.7244 447.848 46.8216C447.966 46.9188 448.161 46.9987 448.432 47.0612L449.341 47.2556C449.846 47.3644 450.221 47.5368 450.466 47.7729C450.714 48.009 450.839 48.318 450.841 48.6999C450.839 49.0355 450.74 49.3317 450.546 49.5886C450.354 49.8432 450.087 50.0423 449.744 50.1858C449.401 50.3293 449.008 50.401 448.564 50.401C447.911 50.401 447.386 50.2645 446.987 49.9914C446.589 49.7159 446.352 49.3329 446.276 48.8422L447.501 48.7242C447.557 48.9649 447.675 49.1466 447.855 49.2692C448.036 49.3919 448.271 49.4532 448.56 49.4532C448.859 49.4532 449.098 49.3919 449.279 49.2692C449.462 49.1466 449.553 48.995 449.553 48.8144C449.553 48.6617 449.494 48.5355 449.376 48.436C449.26 48.3365 449.08 48.2601 448.834 48.2069L447.925 48.0159C447.413 47.9095 447.035 47.7301 446.79 47.4778C446.544 47.2232 446.423 46.9015 446.425 46.5126C446.423 46.184 446.512 45.8993 446.692 45.6586C446.875 45.4156 447.129 45.2281 447.453 45.0962C447.779 44.9619 448.155 44.8948 448.581 44.8948C449.206 44.8948 449.698 45.0279 450.056 45.294C450.418 45.5602 450.641 45.9201 450.727 46.3738Z" fill="#1F1F1F"/>
<path d="M406.764 33.0117H548.29H406.764ZM548.29 61.9782H406.764V60.5815H548.29V61.9782ZM406.764 61.2798V33.0117V61.2798ZM548.29 33.0117V61.2798V33.0117Z" fill="#F6F6F6" mask="url(#path-7-inside-3_10720_94894)"/>
<g filter="url(#filter0_i_10720_94894)">
<rect width="141.527" height="27.9329" transform="translate(123.711 61.4609)" fill="white"/>
<path d="M138.023 78.6753C137.565 78.6753 137.156 78.5966 136.798 78.4393C136.441 78.2819 136.158 78.0631 135.947 77.7831C135.739 77.5007 135.625 77.1732 135.607 76.8006H136.482C136.5 77.0297 136.579 77.2276 136.718 77.3943C136.857 77.5586 137.038 77.6859 137.263 77.7761C137.487 77.8664 137.736 77.9115 138.009 77.9115C138.315 77.9115 138.586 77.8583 138.822 77.7518C139.058 77.6454 139.243 77.4972 139.377 77.3075C139.511 77.1177 139.579 76.8978 139.579 76.6478C139.579 76.3863 139.514 76.156 139.384 75.9569C139.255 75.7556 139.065 75.5982 138.815 75.4848C138.565 75.3714 138.259 75.3147 137.898 75.3147H137.329V74.5509H137.898C138.181 74.5509 138.428 74.4999 138.641 74.3981C138.856 74.2963 139.024 74.1528 139.145 73.9676C139.267 73.7824 139.329 73.5649 139.329 73.3149C139.329 73.0742 139.275 72.8647 139.169 72.6865C139.062 72.5083 138.912 72.3694 138.718 72.2699C138.525 72.1704 138.299 72.1206 138.037 72.1206C137.792 72.1206 137.56 72.1658 137.343 72.256C137.128 72.344 136.952 72.4724 136.815 72.6414C136.679 72.808 136.604 73.0094 136.593 73.2455H135.76C135.774 72.8728 135.886 72.5465 136.096 72.2664C136.307 71.9841 136.582 71.7642 136.923 71.6068C137.265 71.4494 137.641 71.3707 138.051 71.3707C138.491 71.3707 138.868 71.4598 139.183 71.638C139.498 71.814 139.739 72.0466 139.908 72.3359C140.077 72.6252 140.162 72.9376 140.162 73.2733C140.162 73.6737 140.057 74.0151 139.846 74.2974C139.638 74.5798 139.354 74.7754 138.995 74.8842V74.9397C139.444 75.0138 139.795 75.2047 140.047 75.5125C140.3 75.8181 140.426 76.1965 140.426 76.6478C140.426 77.0343 140.32 77.3815 140.11 77.6894C139.901 77.9949 139.617 78.2356 139.256 78.4115C138.895 78.5874 138.484 78.6753 138.023 78.6753ZM142.262 78.5781H141.36L143.97 71.4679H144.859L147.47 78.5781H146.567L144.443 72.5928H144.387L142.262 78.5781ZM142.596 75.8007H146.234V76.5645H142.596V75.8007Z" fill="#545454"/>
</g>
<g filter="url(#filter1_i_10720_94894)">
<rect width="141.527" height="27.9329" transform="translate(265.238 61.4609)" fill="white"/>
<rect x="273.617" y="68.0947" width="27.9329" height="13.9665" rx="6.98323" fill="#0F67F5"/>
<circle cx="294.567" cy="75.0778" r="5.58658" fill="white"/>
</g>
<g filter="url(#filter2_i_10720_94894)">
<rect width="141.527" height="27.9329" transform="translate(406.764 61.4609)" fill="white"/>
<g filter="url(#filter3_i_10720_94894)">
<rect width="124.767" height="27.9329" transform="translate(415.143 61.1113)" fill="white"/>
<path d="M431.203 79.1206H426.545C426.001 79.1206 425.644 78.7644 425.644 78.2197V73.5619C425.644 73.3175 425.84 73.129 426.077 73.129C426.315 73.129 426.51 73.3245 426.51 73.5619V78.2197L431.196 78.2477L431.224 73.5619C431.224 73.3175 431.42 73.129 431.657 73.129C431.894 73.129 432.09 73.3245 432.09 73.5619V78.2197C432.09 78.7644 431.734 79.1206 431.189 79.1206H431.203ZM432.132 72.1374H425.617C425.372 72.1374 425.184 71.9418 425.184 71.7044C425.184 71.467 425.379 71.2714 425.617 71.2714H427.509C427.509 71.2714 427.509 71.2505 427.509 71.2435C427.509 70.9991 427.705 70.8105 427.942 70.8105H429.806C430.051 70.8105 430.239 71.0061 430.239 71.2435C430.239 71.2505 430.239 71.2645 430.239 71.2714H432.132C432.376 71.2714 432.565 71.467 432.565 71.7044C432.565 71.9418 432.369 72.1374 432.132 72.1374Z" fill="#0F67F5"/>
<path d="M443.336 78.2285H441.142V71.1183H443.434C444.123 71.1183 444.714 71.2607 445.204 71.5454C445.695 71.8277 446.071 72.2339 446.333 72.7639C446.594 73.2917 446.725 73.9235 446.725 74.6595C446.725 75.4002 446.593 76.0378 446.329 76.5725C446.065 77.1048 445.681 77.5145 445.176 77.8015C444.672 78.0862 444.059 78.2285 443.336 78.2285ZM442.003 77.4647H443.281C443.869 77.4647 444.356 77.3513 444.742 77.1245C445.129 76.8977 445.417 76.5748 445.607 76.1559C445.797 75.7369 445.892 75.2382 445.892 74.6595C445.892 74.0855 445.798 73.5914 445.61 73.1771C445.423 72.7605 445.143 72.4411 444.77 72.2189C444.398 71.9944 443.934 71.8821 443.378 71.8821H442.003V77.4647ZM450.294 78.3396C449.78 78.3396 449.337 78.2262 448.964 77.9994C448.594 77.7702 448.308 77.4508 448.107 77.0412C447.908 76.6292 447.808 76.1501 447.808 75.6039C447.808 75.0576 447.908 74.5762 448.107 74.1596C448.308 73.7407 448.588 73.4143 448.947 73.1806C449.308 72.9445 449.729 72.8264 450.211 72.8264C450.488 72.8264 450.763 72.8727 451.033 72.9653C451.304 73.0579 451.551 73.2083 451.773 73.4166C451.995 73.6226 452.172 73.8957 452.304 74.236C452.436 74.5762 452.502 74.9951 452.502 75.4928V75.8399H448.391V75.1317H451.669C451.669 74.8308 451.608 74.5623 451.488 74.3262C451.37 74.0902 451.201 73.9038 450.981 73.7673C450.764 73.6307 450.507 73.5625 450.211 73.5625C449.884 73.5625 449.602 73.6435 449.363 73.8055C449.127 73.9652 448.946 74.1735 448.818 74.4304C448.691 74.6873 448.627 74.9627 448.627 75.2567V75.7288C448.627 76.1316 448.697 76.473 448.836 76.753C448.977 77.0308 449.172 77.2425 449.422 77.3883C449.672 77.5318 449.963 77.6036 450.294 77.6036C450.509 77.6036 450.704 77.5735 450.877 77.5133C451.053 77.4508 451.205 77.3583 451.332 77.2356C451.459 77.1106 451.558 76.9555 451.627 76.7704L452.419 76.9926C452.335 77.261 452.195 77.4971 451.998 77.7008C451.802 77.9022 451.559 78.0596 451.269 78.173C450.98 78.2841 450.655 78.3396 450.294 78.3396ZM454.568 71.1183V78.2285H453.748V71.1183H454.568ZM458.304 78.3396C457.79 78.3396 457.347 78.2262 456.974 77.9994C456.604 77.7702 456.318 77.4508 456.117 77.0412C455.918 76.6292 455.818 76.1501 455.818 75.6039C455.818 75.0576 455.918 74.5762 456.117 74.1596C456.318 73.7407 456.598 73.4143 456.957 73.1806C457.318 72.9445 457.739 72.8264 458.221 72.8264C458.499 72.8264 458.773 72.8727 459.044 72.9653C459.314 73.0579 459.561 73.2083 459.783 73.4166C460.005 73.6226 460.182 73.8957 460.314 74.236C460.446 74.5762 460.512 74.9951 460.512 75.4928V75.8399H456.402V75.1317H459.679C459.679 74.8308 459.619 74.5623 459.498 74.3262C459.38 74.0902 459.211 73.9038 458.992 73.7673C458.774 73.6307 458.517 73.5625 458.221 73.5625C457.894 73.5625 457.612 73.6435 457.374 73.8055C457.138 73.9652 456.956 74.1735 456.829 74.4304C456.701 74.6873 456.638 74.9627 456.638 75.2567V75.7288C456.638 76.1316 456.707 76.473 456.846 76.753C456.987 77.0308 457.183 77.2425 457.433 77.3883C457.683 77.5318 457.973 77.6036 458.304 77.6036C458.519 77.6036 458.714 77.5735 458.887 77.5133C459.063 77.4508 459.215 77.3583 459.342 77.2356C459.469 77.1106 459.568 76.9555 459.637 76.7704L460.429 76.9926C460.345 77.261 460.205 77.4971 460.009 77.7008C459.812 77.9022 459.569 78.0596 459.28 78.173C458.99 78.2841 458.665 78.3396 458.304 78.3396ZM464.078 72.8959V73.5902H461.314V72.8959H464.078ZM462.12 71.6183H462.939V76.7009C462.939 76.9324 462.972 77.106 463.04 77.2217C463.109 77.3351 463.197 77.4115 463.303 77.4508C463.412 77.4879 463.527 77.5064 463.647 77.5064C463.737 77.5064 463.811 77.5018 463.869 77.4925C463.927 77.4809 463.974 77.4717 464.008 77.4647L464.175 78.2007C464.119 78.2216 464.042 78.2424 463.942 78.2632C463.843 78.2864 463.717 78.298 463.564 78.298C463.332 78.298 463.106 78.2482 462.883 78.1487C462.663 78.0491 462.481 77.8975 462.335 77.6939C462.191 77.4902 462.12 77.2333 462.12 76.9231V71.6183ZM467.489 78.3396C466.975 78.3396 466.532 78.2262 466.159 77.9994C465.789 77.7702 465.503 77.4508 465.301 77.0412C465.102 76.6292 465.003 76.1501 465.003 75.6039C465.003 75.0576 465.102 74.5762 465.301 74.1596C465.503 73.7407 465.783 73.4143 466.142 73.1806C466.503 72.9445 466.924 72.8264 467.405 72.8264C467.683 72.8264 467.957 72.8727 468.228 72.9653C468.499 73.0579 468.745 73.2083 468.968 73.4166C469.19 73.6226 469.367 73.8957 469.499 74.236C469.631 74.5762 469.697 74.9951 469.697 75.4928V75.8399H465.586V75.1317H468.863C468.863 74.8308 468.803 74.5623 468.683 74.3262C468.565 74.0902 468.396 73.9038 468.176 73.7673C467.959 73.6307 467.702 73.5625 467.405 73.5625C467.079 73.5625 466.797 73.6435 466.558 73.8055C466.322 73.9652 466.14 74.1735 466.013 74.4304C465.886 74.6873 465.822 74.9627 465.822 75.2567V75.7288C465.822 76.1316 465.892 76.473 466.031 76.753C466.172 77.0308 466.367 77.2425 466.617 77.3883C466.867 77.5318 467.158 77.6036 467.489 77.6036C467.704 77.6036 467.898 77.5735 468.072 77.5133C468.248 77.4508 468.399 77.3583 468.527 77.2356C468.654 77.1106 468.752 76.9555 468.822 76.7704L469.613 76.9926C469.53 77.261 469.39 77.4971 469.193 77.7008C468.997 77.9022 468.754 78.0596 468.464 78.173C468.175 78.2841 467.85 78.3396 467.489 78.3396Z" fill="#0F67F5"/>
</g>
</g>
<g filter="url(#filter4_i_10720_94894)">
<rect width="141.527" height="27.9329" transform="translate(123.711 89.3945)" fill="white"/>
<path d="M135.621 106.512V105.887L137.968 103.318C138.243 103.017 138.47 102.755 138.648 102.533C138.826 102.309 138.958 102.098 139.044 101.901C139.132 101.702 139.176 101.494 139.176 101.276C139.176 101.026 139.116 100.81 138.995 100.627C138.877 100.444 138.715 100.303 138.509 100.204C138.303 100.104 138.072 100.054 137.815 100.054C137.542 100.054 137.303 100.111 137.1 100.224C136.898 100.335 136.742 100.492 136.631 100.693C136.522 100.894 136.468 101.13 136.468 101.401H135.649C135.649 100.985 135.745 100.619 135.937 100.304C136.129 99.9894 136.39 99.7441 136.721 99.5682C137.055 99.3923 137.428 99.3043 137.843 99.3043C138.259 99.3043 138.628 99.3923 138.95 99.5682C139.272 99.7441 139.524 99.9813 139.707 100.28C139.89 100.578 139.981 100.911 139.981 101.276C139.981 101.538 139.934 101.794 139.839 102.044C139.746 102.291 139.584 102.568 139.353 102.873C139.124 103.177 138.806 103.547 138.398 103.984L136.801 105.692V105.748H140.106V106.512H135.621ZM141.957 106.512H141.054L143.665 99.4015H144.554L147.164 106.512H146.262L144.137 100.526H144.081L141.957 106.512ZM142.29 103.734H145.928V104.498H142.29V103.734Z" fill="#545454"/>
</g>
<g filter="url(#filter5_i_10720_94894)">
<rect width="141.527" height="27.9329" transform="translate(265.238 89.3945)" fill="white"/>
<rect x="273.617" y="96.0283" width="27.9329" height="13.9665" rx="6.98323" fill="#B5B5B5"/>
<circle cx="280.6" cy="103.011" r="5.58658" fill="white"/>
</g>
<g filter="url(#filter6_i_10720_94894)">
<rect width="141.527" height="27.9329" transform="translate(406.764 89.3945)" fill="white"/>
<g filter="url(#filter7_i_10720_94894)">
<rect width="124.767" height="27.9329" transform="translate(415.143 89.0449)" fill="white"/>
<path d="M431.203 107.054H426.545C426.001 107.054 425.644 106.698 425.644 106.153V101.496C425.644 101.251 425.84 101.063 426.077 101.063C426.315 101.063 426.51 101.258 426.51 101.496V106.153L431.196 106.181L431.224 101.496C431.224 101.251 431.42 101.063 431.657 101.063C431.894 101.063 432.09 101.258 432.09 101.496V106.153C432.09 106.698 431.734 107.054 431.189 107.054H431.203ZM432.132 100.071H425.617C425.372 100.071 425.184 99.8754 425.184 99.638C425.184 99.4006 425.379 99.205 425.617 99.205H427.509C427.509 99.205 427.509 99.1841 427.509 99.1771C427.509 98.9327 427.705 98.7441 427.942 98.7441H429.806C430.051 98.7441 430.239 98.9397 430.239 99.1771C430.239 99.1841 430.239 99.1981 430.239 99.205H432.132C432.376 99.205 432.565 99.4006 432.565 99.638C432.565 99.8754 432.369 100.071 432.132 100.071Z" fill="#0F67F5"/>
<path d="M443.336 106.162H441.142V99.0519H443.434C444.123 99.0519 444.714 99.1943 445.204 99.4789C445.695 99.7613 446.071 100.168 446.333 100.698C446.594 101.225 446.725 101.857 446.725 102.593C446.725 103.334 446.593 103.971 446.329 104.506C446.065 105.038 445.681 105.448 445.176 105.735C444.672 106.02 444.059 106.162 443.336 106.162ZM442.003 105.398H443.281C443.869 105.398 444.356 105.285 444.742 105.058C445.129 104.831 445.417 104.508 445.607 104.089C445.797 103.671 445.892 103.172 445.892 102.593C445.892 102.019 445.798 101.525 445.61 101.111C445.423 100.694 445.143 100.375 444.77 100.152C444.398 99.928 443.934 99.8157 443.378 99.8157H442.003V105.398ZM450.294 106.273C449.78 106.273 449.337 106.16 448.964 105.933C448.594 105.704 448.308 105.384 448.107 104.975C447.908 104.563 447.808 104.084 447.808 103.537C447.808 102.991 447.908 102.51 448.107 102.093C448.308 101.674 448.588 101.348 448.947 101.114C449.308 100.878 449.729 100.76 450.211 100.76C450.488 100.76 450.763 100.806 451.033 100.899C451.304 100.991 451.551 101.142 451.773 101.35C451.995 101.556 452.172 101.829 452.304 102.17C452.436 102.51 452.502 102.929 452.502 103.426V103.774H448.391V103.065H451.669C451.669 102.764 451.608 102.496 451.488 102.26C451.37 102.024 451.201 101.837 450.981 101.701C450.764 101.564 450.507 101.496 450.211 101.496C449.884 101.496 449.602 101.577 449.363 101.739C449.127 101.899 448.946 102.107 448.818 102.364C448.691 102.621 448.627 102.896 448.627 103.19V103.662C448.627 104.065 448.697 104.407 448.836 104.687C448.977 104.964 449.172 105.176 449.422 105.322C449.672 105.465 449.963 105.537 450.294 105.537C450.509 105.537 450.704 105.507 450.877 105.447C451.053 105.384 451.205 105.292 451.332 105.169C451.459 105.044 451.558 104.889 451.627 104.704L452.419 104.926C452.335 105.195 452.195 105.431 451.998 105.634C451.802 105.836 451.559 105.993 451.269 106.107C450.98 106.218 450.655 106.273 450.294 106.273ZM454.568 99.0519V106.162H453.748V99.0519H454.568ZM458.304 106.273C457.79 106.273 457.347 106.16 456.974 105.933C456.604 105.704 456.318 105.384 456.117 104.975C455.918 104.563 455.818 104.084 455.818 103.537C455.818 102.991 455.918 102.51 456.117 102.093C456.318 101.674 456.598 101.348 456.957 101.114C457.318 100.878 457.739 100.76 458.221 100.76C458.499 100.76 458.773 100.806 459.044 100.899C459.314 100.991 459.561 101.142 459.783 101.35C460.005 101.556 460.182 101.829 460.314 102.17C460.446 102.51 460.512 102.929 460.512 103.426V103.774H456.402V103.065H459.679C459.679 102.764 459.619 102.496 459.498 102.26C459.38 102.024 459.211 101.837 458.992 101.701C458.774 101.564 458.517 101.496 458.221 101.496C457.894 101.496 457.612 101.577 457.374 101.739C457.138 101.899 456.956 102.107 456.829 102.364C456.701 102.621 456.638 102.896 456.638 103.19V103.662C456.638 104.065 456.707 104.407 456.846 104.687C456.987 104.964 457.183 105.176 457.433 105.322C457.683 105.465 457.973 105.537 458.304 105.537C458.519 105.537 458.714 105.507 458.887 105.447C459.063 105.384 459.215 105.292 459.342 105.169C459.469 105.044 459.568 104.889 459.637 104.704L460.429 104.926C460.345 105.195 460.205 105.431 460.009 105.634C459.812 105.836 459.569 105.993 459.28 106.107C458.99 106.218 458.665 106.273 458.304 106.273ZM464.078 100.829V101.524H461.314V100.829H464.078ZM462.12 99.5519H462.939V104.635C462.939 104.866 462.972 105.04 463.04 105.155C463.109 105.269 463.197 105.345 463.303 105.384C463.412 105.421 463.527 105.44 463.647 105.44C463.737 105.44 463.811 105.435 463.869 105.426C463.927 105.415 463.974 105.405 464.008 105.398L464.175 106.134C464.119 106.155 464.042 106.176 463.942 106.197C463.843 106.22 463.717 106.232 463.564 106.232C463.332 106.232 463.106 106.182 462.883 106.082C462.663 105.983 462.481 105.831 462.335 105.627C462.191 105.424 462.12 105.167 462.12 104.857V99.5519ZM467.489 106.273C466.975 106.273 466.532 106.16 466.159 105.933C465.789 105.704 465.503 105.384 465.301 104.975C465.102 104.563 465.003 104.084 465.003 103.537C465.003 102.991 465.102 102.51 465.301 102.093C465.503 101.674 465.783 101.348 466.142 101.114C466.503 100.878 466.924 100.76 467.405 100.76C467.683 100.76 467.957 100.806 468.228 100.899C468.499 100.991 468.745 101.142 468.968 101.35C469.19 101.556 469.367 101.829 469.499 102.17C469.631 102.51 469.697 102.929 469.697 103.426V103.774H465.586V103.065H468.863C468.863 102.764 468.803 102.496 468.683 102.26C468.565 102.024 468.396 101.837 468.176 101.701C467.959 101.564 467.702 101.496 467.405 101.496C467.079 101.496 466.797 101.577 466.558 101.739C466.322 101.899 466.14 102.107 466.013 102.364C465.886 102.621 465.822 102.896 465.822 103.19V103.662C465.822 104.065 465.892 104.407 466.031 104.687C466.172 104.964 466.367 105.176 466.617 105.322C466.867 105.465 467.158 105.537 467.489 105.537C467.704 105.537 467.898 105.507 468.072 105.447C468.248 105.384 468.399 105.292 468.527 105.169C468.654 105.044 468.752 104.889 468.822 104.704L469.613 104.926C469.53 105.195 469.39 105.431 469.193 105.634C468.997 105.836 468.754 105.993 468.464 106.107C468.175 106.218 467.85 106.273 467.489 106.273Z" fill="#0F67F5"/>
</g>
</g>
<g filter="url(#filter8_i_10720_94894)">
<rect width="141.527" height="27.9329" transform="translate(123.711 117.327)" fill="white"/>
<path d="M138.12 127.334V134.444H137.259V128.237H137.218L135.482 129.389V128.515L137.259 127.334H138.12ZM140.29 134.444V127.334H142.776C143.271 127.334 143.68 127.42 144.002 127.591C144.323 127.76 144.563 127.988 144.72 128.275C144.878 128.56 144.956 128.876 144.956 129.223C144.956 129.528 144.902 129.781 144.793 129.98C144.687 130.179 144.546 130.336 144.37 130.452C144.196 130.568 144.007 130.653 143.804 130.709V130.778C144.021 130.792 144.24 130.868 144.46 131.007C144.68 131.146 144.864 131.345 145.012 131.604C145.16 131.864 145.234 132.181 145.234 132.556C145.234 132.912 145.153 133.233 144.991 133.517C144.829 133.802 144.573 134.028 144.224 134.194C143.874 134.361 143.42 134.444 142.859 134.444H140.29ZM141.151 133.681H142.859C143.422 133.681 143.821 133.572 144.057 133.354C144.296 133.134 144.415 132.868 144.415 132.556C144.415 132.315 144.353 132.093 144.231 131.889C144.108 131.683 143.933 131.519 143.707 131.396C143.48 131.271 143.211 131.209 142.901 131.209H141.151V133.681ZM141.151 130.459H142.748C143.008 130.459 143.241 130.408 143.45 130.306C143.66 130.204 143.827 130.061 143.95 129.875C144.075 129.69 144.137 129.473 144.137 129.223C144.137 128.91 144.028 128.645 143.811 128.428C143.593 128.208 143.248 128.098 142.776 128.098H141.151V130.459Z" fill="#545454"/>
</g>
<g filter="url(#filter9_i_10720_94894)">
<rect width="141.527" height="27.9329" transform="translate(265.238 117.327)" fill="white"/>
<rect x="273.617" y="123.961" width="27.9329" height="13.9665" rx="6.98323" fill="#0F67F5"/>
<circle cx="294.567" cy="130.944" r="5.58658" fill="white"/>
</g>
<g filter="url(#filter10_i_10720_94894)">
<rect width="141.527" height="27.9329" transform="translate(406.764 117.327)" fill="white"/>
<g filter="url(#filter11_i_10720_94894)">
<rect width="124.767" height="27.9329" transform="translate(415.143 116.978)" fill="white"/>
<path d="M431.203 134.987H426.545C426.001 134.987 425.644 134.631 425.644 134.086V129.428C425.644 129.184 425.84 128.995 426.077 128.995C426.315 128.995 426.51 129.191 426.51 129.428V134.086L431.196 134.114L431.224 129.428C431.224 129.184 431.42 128.995 431.657 128.995C431.894 128.995 432.09 129.191 432.09 129.428V134.086C432.09 134.631 431.734 134.987 431.189 134.987H431.203ZM432.132 128.004H425.617C425.372 128.004 425.184 127.808 425.184 127.571C425.184 127.333 425.379 127.138 425.617 127.138H427.509C427.509 127.138 427.509 127.117 427.509 127.11C427.509 126.865 427.705 126.677 427.942 126.677H429.806C430.051 126.677 430.239 126.872 430.239 127.11C430.239 127.117 430.239 127.131 430.239 127.138H432.132C432.376 127.138 432.565 127.333 432.565 127.571C432.565 127.808 432.369 128.004 432.132 128.004Z" fill="#0F67F5"/>
<path d="M443.336 134.095H441.142V126.985H443.434C444.123 126.985 444.714 127.127 445.204 127.412C445.695 127.694 446.071 128.1 446.333 128.63C446.594 129.158 446.725 129.79 446.725 130.526C446.725 131.266 446.593 131.904 446.329 132.439C446.065 132.971 445.681 133.381 445.176 133.668C444.672 133.952 444.059 134.095 443.336 134.095ZM442.003 133.331H443.281C443.869 133.331 444.356 133.218 444.742 132.991C445.129 132.764 445.417 132.441 445.607 132.022C445.797 131.603 445.892 131.104 445.892 130.526C445.892 129.952 445.798 129.458 445.61 129.043C445.423 128.627 445.143 128.307 444.77 128.085C444.398 127.861 443.934 127.748 443.378 127.748H442.003V133.331ZM450.294 134.206C449.78 134.206 449.337 134.092 448.964 133.866C448.594 133.636 448.308 133.317 448.107 132.907C447.908 132.495 447.808 132.016 447.808 131.47C447.808 130.924 447.908 130.442 448.107 130.026C448.308 129.607 448.588 129.281 448.947 129.047C449.308 128.811 449.729 128.693 450.211 128.693C450.488 128.693 450.763 128.739 451.033 128.832C451.304 128.924 451.551 129.075 451.773 129.283C451.995 129.489 452.172 129.762 452.304 130.102C452.436 130.442 452.502 130.861 452.502 131.359V131.706H448.391V130.998H451.669C451.669 130.697 451.608 130.429 451.488 130.192C451.37 129.956 451.201 129.77 450.981 129.633C450.764 129.497 450.507 129.429 450.211 129.429C449.884 129.429 449.602 129.51 449.363 129.672C449.127 129.831 448.946 130.04 448.818 130.297C448.691 130.554 448.627 130.829 448.627 131.123V131.595C448.627 131.998 448.697 132.339 448.836 132.619C448.977 132.897 449.172 133.109 449.422 133.255C449.672 133.398 449.963 133.47 450.294 133.47C450.509 133.47 450.704 133.44 450.877 133.38C451.053 133.317 451.205 133.224 451.332 133.102C451.459 132.977 451.558 132.822 451.627 132.637L452.419 132.859C452.335 133.127 452.195 133.363 451.998 133.567C451.802 133.768 451.559 133.926 451.269 134.039C450.98 134.15 450.655 134.206 450.294 134.206ZM454.568 126.985V134.095H453.748V126.985H454.568ZM458.304 134.206C457.79 134.206 457.347 134.092 456.974 133.866C456.604 133.636 456.318 133.317 456.117 132.907C455.918 132.495 455.818 132.016 455.818 131.47C455.818 130.924 455.918 130.442 456.117 130.026C456.318 129.607 456.598 129.281 456.957 129.047C457.318 128.811 457.739 128.693 458.221 128.693C458.499 128.693 458.773 128.739 459.044 128.832C459.314 128.924 459.561 129.075 459.783 129.283C460.005 129.489 460.182 129.762 460.314 130.102C460.446 130.442 460.512 130.861 460.512 131.359V131.706H456.402V130.998H459.679C459.679 130.697 459.619 130.429 459.498 130.192C459.38 129.956 459.211 129.77 458.992 129.633C458.774 129.497 458.517 129.429 458.221 129.429C457.894 129.429 457.612 129.51 457.374 129.672C457.138 129.831 456.956 130.04 456.829 130.297C456.701 130.554 456.638 130.829 456.638 131.123V131.595C456.638 131.998 456.707 132.339 456.846 132.619C456.987 132.897 457.183 133.109 457.433 133.255C457.683 133.398 457.973 133.47 458.304 133.47C458.519 133.47 458.714 133.44 458.887 133.38C459.063 133.317 459.215 133.224 459.342 133.102C459.469 132.977 459.568 132.822 459.637 132.637L460.429 132.859C460.345 133.127 460.205 133.363 460.009 133.567C459.812 133.768 459.569 133.926 459.28 134.039C458.99 134.15 458.665 134.206 458.304 134.206ZM464.078 128.762V129.456H461.314V128.762H464.078ZM462.12 127.484H462.939V132.567C462.939 132.799 462.972 132.972 463.04 133.088C463.109 133.201 463.197 133.278 463.303 133.317C463.412 133.354 463.527 133.373 463.647 133.373C463.737 133.373 463.811 133.368 463.869 133.359C463.927 133.347 463.974 133.338 464.008 133.331L464.175 134.067C464.119 134.088 464.042 134.109 463.942 134.129C463.843 134.153 463.717 134.164 463.564 134.164C463.332 134.164 463.106 134.114 462.883 134.015C462.663 133.915 462.481 133.764 462.335 133.56C462.191 133.356 462.12 133.099 462.12 132.789V127.484ZM467.489 134.206C466.975 134.206 466.532 134.092 466.159 133.866C465.789 133.636 465.503 133.317 465.301 132.907C465.102 132.495 465.003 132.016 465.003 131.47C465.003 130.924 465.102 130.442 465.301 130.026C465.503 129.607 465.783 129.281 466.142 129.047C466.503 128.811 466.924 128.693 467.405 128.693C467.683 128.693 467.957 128.739 468.228 128.832C468.499 128.924 468.745 129.075 468.968 129.283C469.19 129.489 469.367 129.762 469.499 130.102C469.631 130.442 469.697 130.861 469.697 131.359V131.706H465.586V130.998H468.863C468.863 130.697 468.803 130.429 468.683 130.192C468.565 129.956 468.396 129.77 468.176 129.633C467.959 129.497 467.702 129.429 467.405 129.429C467.079 129.429 466.797 129.51 466.558 129.672C466.322 129.831 466.14 130.04 466.013 130.297C465.886 130.554 465.822 130.829 465.822 131.123V131.595C465.822 131.998 465.892 132.339 466.031 132.619C466.172 132.897 466.367 133.109 466.617 133.255C466.867 133.398 467.158 133.47 467.489 133.47C467.704 133.47 467.898 133.44 468.072 133.38C468.248 133.317 468.399 133.224 468.527 133.102C468.654 132.977 468.752 132.822 468.822 132.637L469.613 132.859C469.53 133.127 469.39 133.363 469.193 133.567C468.997 133.768 468.754 133.926 468.464 134.039C468.175 134.15 467.85 134.206 467.489 134.206Z" fill="#0F67F5"/>
</g>
</g>
<defs>
<filter id="filter0_i_10720_94894" x="123.711" y="61.4609" width="141.527" height="27.9326" filterUnits="userSpaceOnUse" color-interpolation-filters="sRGB">
<feFlood flood-opacity="0" result="BackgroundImageFix"/>
<feBlend mode="normal" in="SourceGraphic" in2="BackgroundImageFix" result="shape"/>
<feColorMatrix in="SourceAlpha" type="matrix" values="0 0 0 0 0 0 0 0 0 0 0 0 0 0 0 0 0 0 127 0" result="hardAlpha"/>
<feOffset dy="-0.698323"/>
<feComposite in2="hardAlpha" operator="arithmetic" k2="-1" k3="1"/>
<feColorMatrix type="matrix" values="0 0 0 0 0.933333 0 0 0 0 0.933333 0 0 0 0 0.933333 0 0 0 1 0"/>
<feBlend mode="normal" in2="shape" result="effect1_innerShadow_10720_94894"/>
</filter>
<filter id="filter1_i_10720_94894" x="265.238" y="61.4609" width="141.527" height="27.9326" filterUnits="userSpaceOnUse" color-interpolation-filters="sRGB">
<feFlood flood-opacity="0" result="BackgroundImageFix"/>
<feBlend mode="normal" in="SourceGraphic" in2="BackgroundImageFix" result="shape"/>
<feColorMatrix in="SourceAlpha" type="matrix" values="0 0 0 0 0 0 0 0 0 0 0 0 0 0 0 0 0 0 127 0" result="hardAlpha"/>
<feOffset dy="-0.698323"/>
<feComposite in2="hardAlpha" operator="arithmetic" k2="-1" k3="1"/>
<feColorMatrix type="matrix" values="0 0 0 0 0.933333 0 0 0 0 0.933333 0 0 0 0 0.933333 0 0 0 1 0"/>
<feBlend mode="normal" in2="shape" result="effect1_innerShadow_10720_94894"/>
</filter>
<filter id="filter2_i_10720_94894" x="406.764" y="61.1113" width="141.527" height="28.2822" filterUnits="userSpaceOnUse" color-interpolation-filters="sRGB">
<feFlood flood-opacity="0" result="BackgroundImageFix"/>
<feBlend mode="normal" in="SourceGraphic" in2="BackgroundImageFix" result="shape"/>
<feColorMatrix in="SourceAlpha" type="matrix" values="0 0 0 0 0 0 0 0 0 0 0 0 0 0 0 0 0 0 127 0" result="hardAlpha"/>
<feOffset dy="-0.698323"/>
<feComposite in2="hardAlpha" operator="arithmetic" k2="-1" k3="1"/>
<feColorMatrix type="matrix" values="0 0 0 0 0.933333 0 0 0 0 0.933333 0 0 0 0 0.933333 0 0 0 1 0"/>
<feBlend mode="normal" in2="shape" result="effect1_innerShadow_10720_94894"/>
</filter>
<filter id="filter3_i_10720_94894" x="415.143" y="61.1113" width="124.768" height="27.9326" filterUnits="userSpaceOnUse" color-interpolation-filters="sRGB">
<feFlood flood-opacity="0" result="BackgroundImageFix"/>
<feBlend mode="normal" in="SourceGraphic" in2="BackgroundImageFix" result="shape"/>
<feColorMatrix in="SourceAlpha" type="matrix" values="0 0 0 0 0 0 0 0 0 0 0 0 0 0 0 0 0 0 127 0" result="hardAlpha"/>
<feOffset dy="-0.698323"/>
<feComposite in2="hardAlpha" operator="arithmetic" k2="-1" k3="1"/>
<feColorMatrix type="matrix" values="0 0 0 0 0.933333 0 0 0 0 0.933333 0 0 0 0 0.933333 0 0 0 1 0"/>
<feBlend mode="normal" in2="shape" result="effect1_innerShadow_10720_94894"/>
</filter>
<filter id="filter4_i_10720_94894" x="123.711" y="89.3945" width="141.527" height="27.9326" filterUnits="userSpaceOnUse" color-interpolation-filters="sRGB">
<feFlood flood-opacity="0" result="BackgroundImageFix"/>
<feBlend mode="normal" in="SourceGraphic" in2="BackgroundImageFix" result="shape"/>
<feColorMatrix in="SourceAlpha" type="matrix" values="0 0 0 0 0 0 0 0 0 0 0 0 0 0 0 0 0 0 127 0" result="hardAlpha"/>
<feOffset dy="-0.698323"/>
<feComposite in2="hardAlpha" operator="arithmetic" k2="-1" k3="1"/>
<feColorMatrix type="matrix" values="0 0 0 0 0.933333 0 0 0 0 0.933333 0 0 0 0 0.933333 0 0 0 1 0"/>
<feBlend mode="normal" in2="shape" result="effect1_innerShadow_10720_94894"/>
</filter>
<filter id="filter5_i_10720_94894" x="265.238" y="89.3945" width="141.527" height="27.9326" filterUnits="userSpaceOnUse" color-interpolation-filters="sRGB">
<feFlood flood-opacity="0" result="BackgroundImageFix"/>
<feBlend mode="normal" in="SourceGraphic" in2="BackgroundImageFix" result="shape"/>
<feColorMatrix in="SourceAlpha" type="matrix" values="0 0 0 0 0 0 0 0 0 0 0 0 0 0 0 0 0 0 127 0" result="hardAlpha"/>
<feOffset dy="-0.698323"/>
<feComposite in2="hardAlpha" operator="arithmetic" k2="-1" k3="1"/>
<feColorMatrix type="matrix" values="0 0 0 0 0.933333 0 0 0 0 0.933333 0 0 0 0 0.933333 0 0 0 1 0"/>
<feBlend mode="normal" in2="shape" result="effect1_innerShadow_10720_94894"/>
</filter>
<filter id="filter6_i_10720_94894" x="406.764" y="89.0449" width="141.527" height="28.2822" filterUnits="userSpaceOnUse" color-interpolation-filters="sRGB">
<feFlood flood-opacity="0" result="BackgroundImageFix"/>
<feBlend mode="normal" in="SourceGraphic" in2="BackgroundImageFix" result="shape"/>
<feColorMatrix in="SourceAlpha" type="matrix" values="0 0 0 0 0 0 0 0 0 0 0 0 0 0 0 0 0 0 127 0" result="hardAlpha"/>
<feOffset dy="-0.698323"/>
<feComposite in2="hardAlpha" operator="arithmetic" k2="-1" k3="1"/>
<feColorMatrix type="matrix" values="0 0 0 0 0.933333 0 0 0 0 0.933333 0 0 0 0 0.933333 0 0 0 1 0"/>
<feBlend mode="normal" in2="shape" result="effect1_innerShadow_10720_94894"/>
</filter>
<filter id="filter7_i_10720_94894" x="415.143" y="89.0449" width="124.768" height="27.9326" filterUnits="userSpaceOnUse" color-interpolation-filters="sRGB">
<feFlood flood-opacity="0" result="BackgroundImageFix"/>
<feBlend mode="normal" in="SourceGraphic" in2="BackgroundImageFix" result="shape"/>
<feColorMatrix in="SourceAlpha" type="matrix" values="0 0 0 0 0 0 0 0 0 0 0 0 0 0 0 0 0 0 127 0" result="hardAlpha"/>
<feOffset dy="-0.698323"/>
<feComposite in2="hardAlpha" operator="arithmetic" k2="-1" k3="1"/>
<feColorMatrix type="matrix" values="0 0 0 0 0.933333 0 0 0 0 0.933333 0 0 0 0 0.933333 0 0 0 1 0"/>
<feBlend mode="normal" in2="shape" result="effect1_innerShadow_10720_94894"/>
</filter>
<filter id="filter8_i_10720_94894" x="123.711" y="117.327" width="141.527" height="27.9326" filterUnits="userSpaceOnUse" color-interpolation-filters="sRGB">
<feFlood flood-opacity="0" result="BackgroundImageFix"/>
<feBlend mode="normal" in="SourceGraphic" in2="BackgroundImageFix" result="shape"/>
<feColorMatrix in="SourceAlpha" type="matrix" values="0 0 0 0 0 0 0 0 0 0 0 0 0 0 0 0 0 0 127 0" result="hardAlpha"/>
<feOffset dy="-0.698323"/>
<feComposite in2="hardAlpha" operator="arithmetic" k2="-1" k3="1"/>
<feColorMatrix type="matrix" values="0 0 0 0 0.933333 0 0 0 0 0.933333 0 0 0 0 0.933333 0 0 0 1 0"/>
<feBlend mode="normal" in2="shape" result="effect1_innerShadow_10720_94894"/>
</filter>
<filter id="filter9_i_10720_94894" x="265.238" y="117.327" width="141.527" height="27.9326" filterUnits="userSpaceOnUse" color-interpolation-filters="sRGB">
<feFlood flood-opacity="0" result="BackgroundImageFix"/>
<feBlend mode="normal" in="SourceGraphic" in2="BackgroundImageFix" result="shape"/>
<feColorMatrix in="SourceAlpha" type="matrix" values="0 0 0 0 0 0 0 0 0 0 0 0 0 0 0 0 0 0 127 0" result="hardAlpha"/>
<feOffset dy="-0.698323"/>
<feComposite in2="hardAlpha" operator="arithmetic" k2="-1" k3="1"/>
<feColorMatrix type="matrix" values="0 0 0 0 0.933333 0 0 0 0 0.933333 0 0 0 0 0.933333 0 0 0 1 0"/>
<feBlend mode="normal" in2="shape" result="effect1_innerShadow_10720_94894"/>
</filter>
<filter id="filter10_i_10720_94894" x="406.764" y="116.978" width="141.527" height="28.2822" filterUnits="userSpaceOnUse" color-interpolation-filters="sRGB">
<feFlood flood-opacity="0" result="BackgroundImageFix"/>
<feBlend mode="normal" in="SourceGraphic" in2="BackgroundImageFix" result="shape"/>
<feColorMatrix in="SourceAlpha" type="matrix" values="0 0 0 0 0 0 0 0 0 0 0 0 0 0 0 0 0 0 127 0" result="hardAlpha"/>
<feOffset dy="-0.698323"/>
<feComposite in2="hardAlpha" operator="arithmetic" k2="-1" k3="1"/>
<feColorMatrix type="matrix" values="0 0 0 0 0.933333 0 0 0 0 0.933333 0 0 0 0 0.933333 0 0 0 1 0"/>
<feBlend mode="normal" in2="shape" result="effect1_innerShadow_10720_94894"/>
</filter>
<filter id="filter11_i_10720_94894" x="415.143" y="116.978" width="124.768" height="27.9326" filterUnits="userSpaceOnUse" color-interpolation-filters="sRGB">
<feFlood flood-opacity="0" result="BackgroundImageFix"/>
<feBlend mode="normal" in="SourceGraphic" in2="BackgroundImageFix" result="shape"/>
<feColorMatrix in="SourceAlpha" type="matrix" values="0 0 0 0 0 0 0 0 0 0 0 0 0 0 0 0 0 0 127 0" result="hardAlpha"/>
<feOffset dy="-0.698323"/>
<feComposite in2="hardAlpha" operator="arithmetic" k2="-1" k3="1"/>
<feColorMatrix type="matrix" values="0 0 0 0 0.933333 0 0 0 0 0.933333 0 0 0 0 0.933333 0 0 0 1 0"/>
<feBlend mode="normal" in2="shape" result="effect1_innerShadow_10720_94894"/>
</filter>
</defs>
</svg>
