<svg width="672" height="178" fill="none" xmlns="http://www.w3.org/2000/svg"><path fill="#F6F6F6" d="M0 .83h672v176.43H0z"/><mask id="a" fill="#fff"><path d="M123.71 35.62a2.8 2.8 0 0 1 2.8-2.79h138.73v28.63H123.7V35.62Z"/></mask><path d="M123.71 35.62a2.8 2.8 0 0 1 2.8-2.79h138.73v28.63H123.7V35.62Z" fill="#fff"/><path d="M141.67 45.59h-1.3a1.63 1.63 0 0 0-.57-1 1.98 1.98 0 0 0-2.14-.06c-.3.2-.54.48-.7.85-.18.37-.26.83-.26 1.36 0 .55.09 1 .25 1.38.18.37.4.65.7.84a2.08 2.08 0 0 0 1.62.2 1.64 1.64 0 0 0 .89-.67c.1-.16.17-.35.21-.55h1.3a2.8 2.8 0 0 1-1.85 2.27c-.35.12-.73.18-1.16.18a3.03 3.03 0 0 1-2.83-1.69 4.24 4.24 0 0 1-.42-1.96c0-.76.14-1.42.42-1.96a3.04 3.04 0 0 1 2.83-1.7c.4.01.77.07 1.1.18.35.1.65.27.92.49a2.88 2.88 0 0 1 .99 1.84Zm1.13-2.4h1.25v5.58c0 .2.03.34.1.43.05.08.16.12.31.12a1.48 1.48 0 0 0 .3-.04l.22.95a2.46 2.46 0 0 1-.68.1c-.51.02-.9-.1-1.14-.32-.24-.22-.36-.57-.36-1.04V43.2Zm4.34 7.21c-.34 0-.64-.06-.92-.18-.26-.12-.48-.3-.63-.54a1.58 1.58 0 0 1-.24-.88c0-.3.06-.55.17-.75.11-.2.26-.35.45-.47.2-.12.41-.2.65-.27.25-.06.5-.1.76-.13l.76-.09c.2-.03.33-.07.42-.12.1-.06.14-.15.14-.27v-.02a.79.79 0 0 0-.24-.6c-.15-.15-.38-.22-.67-.22-.3 0-.55.06-.73.2a1 1 0 0 0-.36.47l-1.17-.16a1.87 1.87 0 0 1 1.24-1.3 2.89 2.89 0 0 1 2.48.22c.21.13.38.32.5.55.14.24.2.53.2.89v3.57h-1.2v-.74h-.05a1.52 1.52 0 0 1-.84.73c-.2.08-.45.11-.72.11Zm.32-.92c.26 0 .47-.05.66-.15a1.04 1.04 0 0 0 .58-.95v-.62a.6.6 0 0 1-.2.09l-.31.07a9.59 9.59 0 0 1-.64.1 2.2 2.2 0 0 0-.5.12.84.84 0 0 0-.36.24.6.6 0 0 0-.13.4c0 .23.09.4.26.52s.38.18.64.18Zm7.97-3.1-1.14.12a.91.91 0 0 0-.5-.57c-.13-.07-.3-.1-.49-.1-.26 0-.48.06-.66.17-.17.12-.26.26-.26.44 0 .16.06.28.17.38.12.1.32.18.59.24l.9.2c.51.1.89.28 1.13.51.25.24.37.55.38.93 0 .34-.1.63-.3.89-.2.25-.46.45-.8.6a3.1 3.1 0 0 1-1.18.21c-.65 0-1.18-.14-1.58-.4-.4-.28-.63-.67-.7-1.16l1.22-.12c.05.24.17.43.35.55.18.12.42.18.7.18.3 0 .54-.06.72-.18.19-.12.28-.28.28-.46a.47.47 0 0 0-.18-.37c-.12-.1-.3-.18-.54-.23l-.91-.2a2.1 2.1 0 0 1-1.13-.53 1.32 1.32 0 0 1-.37-.97c0-.33.09-.61.27-.85.18-.24.43-.43.76-.56.32-.14.7-.2 1.13-.2.62 0 1.11.13 1.47.4.36.26.59.62.67 1.07Zm5.37 0-1.15.12a.93.93 0 0 0-.17-.33.84.84 0 0 0-.32-.24c-.13-.07-.3-.1-.5-.1-.25 0-.47.06-.65.17-.18.12-.26.26-.26.44 0 .16.05.28.17.38.12.1.31.18.58.24l.91.2c.5.1.88.28 1.13.51.24.24.37.55.37.93 0 .34-.1.63-.3.89-.19.25-.45.45-.8.6-.34.14-.73.21-1.18.21-.65 0-1.17-.14-1.57-.4-.4-.28-.64-.67-.71-1.16l1.22-.12a.9.9 0 0 0 .36.55c.18.12.41.18.7.18.3 0 .54-.06.72-.18.18-.12.27-.28.27-.46a.47.47 0 0 0-.17-.37c-.12-.1-.3-.18-.54-.23L158 48a2.1 2.1 0 0 1-1.14-.53 1.32 1.32 0 0 1-.36-.97c0-.33.08-.61.26-.85.19-.24.44-.43.76-.56.33-.14.7-.2 1.13-.2.63 0 1.12.13 1.48.4.36.26.58.62.67 1.07Z" fill="#1F1F1F"/><path d="M123.71 32.83h141.53H123.7Zm141.53 29.33H123.7v-1.4h141.53v1.4Zm-141.53-.7V32.83v28.63Zm141.53-28.63v28.63-28.63Z" fill="#F6F6F6" mask="url(#a)"/><mask id="b" fill="#fff"><path d="M265.24 33.01h141.52v28.27H265.25V33.01Z"/></mask><path d="M265.24 33.01h141.52v28.27H265.25V33.01Z" fill="#fff"/><path d="M275.23 50.3h-1.37l2.5-7.11h1.59l2.5 7.1h-1.37l-1.9-5.65h-.05l-1.9 5.66Zm.05-2.8h3.75v1.04h-3.75v-1.03Zm9.46.55v-3.09h1.25v5.34h-1.22v-.95h-.05c-.12.3-.32.54-.6.73-.27.2-.6.29-1 .29-.35 0-.66-.08-.93-.24a1.62 1.62 0 0 1-.63-.68 2.4 2.4 0 0 1-.22-1.09v-3.4h1.25v3.2c0 .34.1.61.28.81.19.2.43.3.73.3a1.15 1.15 0 0 0 .97-.54c.11-.18.17-.4.17-.68Zm5.2-3.09v.98h-3.06v-.98h3.07Zm-2.3-1.27h1.26v5c0 .17.02.3.07.4.06.08.13.14.21.17a.8.8 0 0 0 .29.05 1.22 1.22 0 0 0 .36-.05l.22.98a2.91 2.91 0 0 1-.74.13c-.32 0-.6-.04-.85-.14-.26-.1-.46-.27-.6-.5-.15-.22-.22-.5-.22-.83v-5.2Zm5.63 6.71c-.52 0-.97-.11-1.36-.34a2.33 2.33 0 0 1-.88-.96 3.2 3.2 0 0 1-.32-1.45c0-.55.1-1.03.32-1.45.2-.41.5-.73.88-.96.39-.23.84-.35 1.36-.35.52 0 .97.12 1.35.35.38.23.68.55.89.96.2.42.31.9.31 1.45 0 .55-.1 1.03-.31 1.45a2.35 2.35 0 0 1-2.24 1.3Zm0-1c.29 0 .52-.08.71-.24.2-.16.33-.37.43-.63a2.77 2.77 0 0 0 0-1.77 1.4 1.4 0 0 0-.43-.63 1.07 1.07 0 0 0-.7-.24c-.3 0-.53.08-.73.24-.19.15-.33.37-.42.63-.1.27-.14.56-.14.89 0 .32.04.62.14.88s.23.47.42.63c.2.16.44.23.72.23Zm3.62.9v-5.34h1.2v.91h.06a1.54 1.54 0 0 1 1.48-.98c.36 0 .66.1.9.27.26.17.44.41.54.71h.05c.12-.3.32-.53.6-.7.28-.19.62-.28 1-.28.5 0 .9.16 1.2.47.31.31.47.76.47 1.36v3.58h-1.26v-3.4c0-.33-.09-.57-.26-.72a.94.94 0 0 0-.65-.24.9.9 0 0 0-.71.29c-.17.19-.26.43-.26.73v3.33h-1.23v-3.44c0-.28-.08-.5-.25-.66a.88.88 0 0 0-.64-.25.91.91 0 0 0-.5.14.97.97 0 0 0-.35.39 1.2 1.2 0 0 0-.13.57v3.25h-1.26Zm10.3.1c-.33 0-.63-.06-.9-.18s-.49-.3-.64-.54a1.58 1.58 0 0 1-.24-.88c0-.3.06-.55.17-.75.11-.2.26-.35.46-.47.19-.12.4-.2.64-.27.25-.06.5-.1.76-.13l.76-.09c.2-.03.33-.07.42-.12.1-.06.14-.15.14-.27v-.02a.79.79 0 0 0-.24-.6c-.15-.15-.37-.22-.66-.22-.31 0-.56.06-.74.2a1 1 0 0 0-.36.47l-1.17-.16a1.87 1.87 0 0 1 1.24-1.3 2.84 2.84 0 0 1 2.48.22c.21.13.38.32.51.55.13.24.2.53.2.89v3.57h-1.21v-.74h-.05a1.54 1.54 0 0 1-.84.73c-.2.08-.44.11-.72.11Zm.33-.92c.26 0 .48-.05.66-.15a1.04 1.04 0 0 0 .58-.95v-.62a.58.58 0 0 1-.2.09l-.31.07a9.54 9.54 0 0 1-.64.1 2.2 2.2 0 0 0-.5.12.84.84 0 0 0-.36.24.6.6 0 0 0-.12.4c0 .23.08.4.25.52.17.12.38.18.64.18Zm6.42-4.52v.98h-3.06v-.98h3.06Zm-2.3-1.27h1.25v5c0 .17.02.3.07.4.06.08.13.14.21.17a.8.8 0 0 0 .29.05 1.23 1.23 0 0 0 .37-.05l.2.98a2.8 2.8 0 0 1-.73.13c-.32 0-.6-.04-.85-.14s-.45-.27-.6-.5c-.15-.22-.22-.5-.22-.83v-5.2Zm3.35 6.6v-5.33h1.26v5.34h-1.26Zm.63-6.08a.73.73 0 0 1-.51-.2.64.64 0 0 1-.22-.48c0-.2.08-.35.22-.49.14-.13.31-.2.51-.2s.38.07.52.2a.67.67 0 0 1 0 .97.73.73 0 0 1-.52.2Zm4.25 6.2c-.54 0-1-.13-1.37-.36a2.34 2.34 0 0 1-.88-.97c-.2-.41-.3-.89-.3-1.43 0-.54.1-1.02.3-1.43a2.33 2.33 0 0 1 2.24-1.33c.43 0 .82.08 1.15.24a1.96 1.96 0 0 1 1.14 1.68h-1.2a1.14 1.14 0 0 0-.35-.64 1 1 0 0 0-.72-.26c-.26 0-.49.07-.68.2-.2.14-.34.34-.45.6-.11.25-.16.56-.16.92s.05.68.16.94c.1.26.25.46.44.6.2.14.43.2.69.2a1 1 0 0 0 .87-.41c.1-.13.16-.3.2-.49h1.2a1.97 1.97 0 0 1-1.12 1.68 2.5 2.5 0 0 1-1.16.25Zm9.14-2.36v-3.09h1.25v5.34h-1.21v-.95h-.06c-.12.3-.32.54-.6.73-.27.2-.6.29-1 .29-.35 0-.66-.08-.93-.24a1.62 1.62 0 0 1-.63-.68 2.4 2.4 0 0 1-.22-1.09v-3.4h1.26v3.2c0 .34.09.61.27.81.19.2.43.3.73.3a1.15 1.15 0 0 0 .97-.54c.11-.18.17-.4.17-.68Zm2.55 4.25v-7.34h1.23v.89h.08c.06-.13.15-.27.27-.42.12-.15.28-.27.48-.38a2.03 2.03 0 0 1 2.68 1.08c.2.41.3.91.3 1.5 0 .6-.1 1.1-.3 1.5a2.02 2.02 0 0 1-1.91 1.26 1.54 1.54 0 0 1-1.25-.52 2.34 2.34 0 0 1-.27-.41h-.06v2.84h-1.25Zm1.23-4.67c0 .35.05.65.14.9.1.27.25.47.43.61.19.15.42.22.68.22.28 0 .51-.07.7-.22.19-.15.33-.36.42-.62a2.66 2.66 0 0 0 .01-1.77 1.3 1.3 0 0 0-.43-.6 1.1 1.1 0 0 0-.7-.22c-.27 0-.5.07-.68.2a1.3 1.3 0 0 0-.43.6c-.1.26-.14.56-.14.9Zm6.86 2.76a2.02 2.02 0 0 1-1.91-1.26c-.2-.4-.3-.9-.3-1.5 0-.59.1-1.09.3-1.5.2-.4.46-.71.8-.92a2.04 2.04 0 0 1 1.88-.16c.2.1.36.23.48.38s.2.29.27.42h.06v-2.66h1.26v7.1h-1.24v-.83h-.08c-.06.13-.16.26-.28.41a1.53 1.53 0 0 1-1.24.52Zm.35-1.03c.26 0 .49-.07.68-.22.19-.14.33-.34.42-.6.1-.26.15-.56.15-.9 0-.35-.05-.65-.15-.9-.1-.26-.23-.46-.42-.6a1.1 1.1 0 0 0-.68-.21c-.28 0-.52.07-.7.21-.2.15-.33.35-.43.6-.1.27-.14.56-.14.9 0 .32.05.62.14.88.1.26.24.47.43.62.19.15.42.22.7.22Zm5.36 1.04c-.34 0-.64-.06-.91-.18s-.49-.3-.64-.54a1.58 1.58 0 0 1-.24-.88c0-.3.06-.55.17-.75.11-.2.26-.35.46-.47.19-.12.4-.2.65-.27.24-.06.49-.1.75-.13l.76-.09c.2-.03.33-.07.42-.12.1-.06.14-.15.14-.27v-.02a.79.79 0 0 0-.23-.6c-.16-.15-.38-.22-.67-.22-.31 0-.56.06-.74.2a1 1 0 0 0-.36.47l-1.17-.16a1.87 1.87 0 0 1 1.24-1.3 2.9 2.9 0 0 1 2.49.22c.2.13.37.32.5.55.13.24.2.53.2.89v3.57h-1.21v-.74h-.05a1.54 1.54 0 0 1-.84.73c-.2.08-.44.11-.72.11Zm.33-.92c.25 0 .47-.05.65-.15a1.04 1.04 0 0 0 .58-.95v-.62a.6.6 0 0 1-.2.09l-.31.07a9.59 9.59 0 0 1-.64.1 2.2 2.2 0 0 0-.5.12.84.84 0 0 0-.35.24.6.6 0 0 0-.13.4c0 .23.08.4.25.52.17.12.38.18.65.18Zm6.41-4.52v.98h-3.06v-.98h3.06Zm-2.3-1.27h1.25v5c0 .17.02.3.08.4.05.08.12.14.2.17a.8.8 0 0 0 .29.05 1.23 1.23 0 0 0 .37-.05l.2.98a2.8 2.8 0 0 1-.73.13c-.31 0-.6-.04-.85-.14s-.45-.27-.6-.5c-.15-.22-.22-.5-.22-.83v-5.2Zm5.66 6.71c-.54 0-1-.11-1.39-.33a2.26 2.26 0 0 1-.9-.95c-.2-.42-.3-.9-.3-1.46 0-.55.1-1.03.3-1.44a2.37 2.37 0 0 1 2.22-1.33c.33 0 .64.06.93.16a2.28 2.28 0 0 1 1.31 1.33c.13.34.2.74.2 1.2v.4h-4.37v-.85h3.16c0-.24-.05-.46-.15-.65a1.2 1.2 0 0 0-1.06-.61c-.26 0-.49.07-.68.2-.2.11-.35.28-.45.48-.11.2-.16.42-.17.65v.74c0 .31.06.58.17.8.12.22.28.39.48.5.2.12.44.18.71.18.19 0 .35-.02.5-.07a.99.99 0 0 0 .63-.62l1.18.14c-.08.3-.22.58-.43.8-.2.24-.47.42-.79.54-.32.13-.69.2-1.1.2Zm7.65-4.03-1.15.13a.91.91 0 0 0-.49-.57c-.13-.07-.3-.1-.5-.1-.25 0-.47.06-.65.17-.18.12-.26.26-.26.44 0 .16.05.28.17.38.12.1.31.18.58.24l.91.2c.5.1.88.28 1.13.51.24.24.37.55.37.93 0 .34-.1.63-.3.89-.19.25-.45.45-.8.6-.34.14-.73.21-1.18.21a2.8 2.8 0 0 1-1.57-.4 1.7 1.7 0 0 1-.72-1.16l1.23-.12c.06.24.17.43.35.55.19.12.42.18.7.18.3 0 .55-.06.73-.18.18-.12.27-.28.27-.46a.47.47 0 0 0-.18-.37c-.11-.1-.3-.18-.54-.23l-.9-.2a2.1 2.1 0 0 1-1.14-.53 1.32 1.32 0 0 1-.37-.97c0-.33.1-.61.27-.85.18-.24.44-.43.76-.56.33-.14.7-.2 1.13-.2.63 0 1.12.13 1.48.4.36.26.58.62.67 1.07Z" fill="#1F1F1F"/><path d="M406.76 60.58H265.25v1.4h141.52v-1.4Z" fill="#F6F6F6" mask="url(#b)"/><mask id="c" fill="#fff"><path d="M406.76 33.01H545.5a2.8 2.8 0 0 1 2.79 2.8v25.47H406.76V33.01Z"/></mask><path d="M406.76 33.01H545.5a2.8 2.8 0 0 1 2.79 2.8v25.47H406.76V33.01Z" fill="#fff"/><path d="M416.76 50.3h-1.38l2.5-7.11h1.6l2.5 7.1h-1.37l-1.9-5.65h-.06l-1.9 5.66Zm.04-2.8h3.75v1.04h-3.75v-1.03Zm8.23 2.9a2.35 2.35 0 0 1-2.25-1.32c-.2-.41-.3-.89-.3-1.43 0-.54.1-1.02.3-1.43.21-.42.5-.74.89-.97.38-.24.83-.36 1.35-.36.43 0 .82.08 1.15.24a1.96 1.96 0 0 1 1.14 1.68h-1.2a1.15 1.15 0 0 0-.35-.64 1 1 0 0 0-.72-.26c-.26 0-.49.07-.68.2-.2.14-.35.34-.46.6-.1.25-.15.56-.15.92s.05.68.15.94c.11.26.26.46.45.6.2.14.43.2.69.2a1 1 0 0 0 .87-.41c.1-.13.16-.3.2-.49h1.2a1.97 1.97 0 0 1-1.12 1.68 2.5 2.5 0 0 1-1.16.25Zm5.98-5.44v.98h-3.07v-.98h3.07Zm-2.31-1.27h1.25v5c0 .17.03.3.08.4.05.08.12.14.2.17a.8.8 0 0 0 .3.05 1.23 1.23 0 0 0 .36-.05l.21.98a2.8 2.8 0 0 1-.74.13c-.31 0-.6-.04-.85-.14s-.45-.27-.6-.5c-.14-.22-.22-.5-.21-.83v-5.2Zm3.36 6.6v-5.33h1.25v5.34h-1.25Zm.63-6.08a.73.73 0 0 1-.51-.2.64.64 0 0 1-.22-.48c0-.2.07-.35.22-.49.14-.13.31-.2.5-.2.21 0 .38.07.52.2.15.14.22.3.22.49 0 .18-.07.35-.22.48a.73.73 0 0 1-.51.2Zm4.24 6.2c-.52 0-.97-.12-1.35-.35a2.33 2.33 0 0 1-.89-.96c-.2-.42-.31-.9-.31-1.45 0-.55.1-1.03.31-1.45.21-.41.5-.73.89-.96.38-.23.83-.35 1.35-.35.52 0 .97.12 1.36.35.38.23.67.55.88.96.21.42.32.9.32 1.45 0 .55-.1 1.03-.32 1.45a2.33 2.33 0 0 1-2.24 1.3Zm0-1.02c.3 0 .53-.07.72-.23.19-.16.33-.37.42-.63.1-.26.14-.56.14-.88 0-.33-.04-.62-.14-.89a1.4 1.4 0 0 0-.42-.63 1.07 1.07 0 0 0-.71-.24c-.29 0-.53.08-.72.24-.2.15-.34.37-.43.63-.1.27-.14.56-.14.89 0 .32.05.62.14.88.1.26.24.47.43.63.19.16.43.23.72.23Zm4.88-2.22v3.13h-1.26v-5.34h1.2v.91h.07c.12-.3.32-.54.58-.71a1.8 1.8 0 0 1 1-.27c.38 0 .7.08.97.24.27.16.49.39.64.68.15.3.23.67.22 1.1v3.39h-1.25v-3.2c0-.36-.1-.64-.28-.84a.98.98 0 0 0-.76-.3c-.22 0-.42.05-.59.14-.17.1-.3.24-.4.42-.1.18-.14.4-.14.65Zm8.92-.8-1.15.13a.93.93 0 0 0-.17-.33.84.84 0 0 0-.32-.24c-.13-.07-.3-.1-.5-.1-.25 0-.47.06-.65.17-.18.12-.26.26-.26.44 0 .16.05.28.17.38.12.1.31.18.58.24l.91.2c.5.1.88.28 1.13.51.24.24.37.55.37.93 0 .34-.1.63-.3.89-.19.25-.45.45-.8.6-.34.14-.73.21-1.18.21-.65 0-1.17-.14-1.57-.4-.4-.28-.64-.67-.71-1.16l1.22-.12a.9.9 0 0 0 .36.55c.18.12.41.18.7.18.3 0 .54-.06.72-.18.18-.12.27-.28.27-.46a.47.47 0 0 0-.17-.37c-.12-.1-.3-.18-.55-.23l-.9-.2a2.1 2.1 0 0 1-1.14-.53 1.32 1.32 0 0 1-.37-.97c0-.33.1-.61.27-.85.19-.24.44-.43.76-.56.33-.14.7-.2 1.13-.2.63 0 1.12.13 1.48.4.36.26.58.62.67 1.07Z" fill="#1F1F1F"/><path d="M406.76 33.01H548.3 406.76ZM548.3 61.98H406.76v-1.4H548.3v1.4Zm-141.53-.7V33.01v28.27ZM548.3 33.01v28.27-28.27Z" fill="#F6F6F6" mask="url(#c)"/><g filter="url(#d)"><path fill="#fff" d="M123.71 61.46h141.53V89.4H123.71z"/><path d="M138.02 78.68c-.46 0-.86-.08-1.22-.24a2.1 2.1 0 0 1-.85-.66c-.21-.28-.32-.6-.34-.98h.87c.02.23.1.43.24.6.14.16.32.29.54.38.23.09.48.13.75.13.3 0 .58-.05.81-.16.24-.1.42-.25.56-.44a1.24 1.24 0 0 0-.56-1.82 2.21 2.21 0 0 0-.92-.18h-.57v-.76h.57c.28 0 .53-.05.74-.15a1.16 1.16 0 0 0 .69-1.08 1.1 1.1 0 0 0-.61-1.04c-.2-.11-.42-.16-.68-.16-.25 0-.48.05-.7.14-.21.08-.39.21-.53.38a1 1 0 0 0-.22.6h-.83c.01-.37.13-.7.34-.97.2-.29.48-.5.82-.66a2.67 2.67 0 0 1 2.26.03 1.88 1.88 0 0 1 .98 1.63c0 .4-.1.75-.31 1.03s-.5.48-.85.58v.06c.44.07.8.26 1.05.57.25.3.38.69.38 1.14 0 .38-.11.73-.32 1.04-.2.3-.5.55-.85.72-.36.18-.78.27-1.24.27Zm4.24-.1h-.9l2.61-7.11h.89l2.61 7.1h-.9l-2.13-5.98h-.05l-2.13 5.99Zm.34-2.78h3.63v.76h-3.63v-.76Z" fill="#545454"/></g><g filter="url(#e)"><path fill="#fff" d="M265.24 61.46h141.53V89.4H265.24z"/><rect x="273.62" y="68.09" width="27.93" height="13.97" rx="6.98" fill="#0F67F5"/><circle cx="294.57" cy="75.08" r="5.59" fill="#fff"/></g><g filter="url(#f)"><path fill="#fff" d="M406.76 61.46H548.3V89.4H406.76z"/><g filter="url(#g)"><path fill="#fff" d="M415.14 61.11h124.77v27.93H415.14z"/><path d="M431.2 79.12h-4.65c-.55 0-.9-.36-.9-.9v-4.66c0-.24.19-.43.43-.43s.43.2.43.43v4.66l4.69.03.02-4.69c0-.24.2-.43.44-.43.23 0 .43.2.43.43v4.66c0 .54-.36.9-.9.9h.01Zm.93-6.98h-6.51a.43.43 0 0 1-.44-.44c0-.23.2-.43.44-.43h1.89v-.03c0-.24.2-.43.43-.43h1.87c.24 0 .43.2.43.43v.03h1.9c.24 0 .43.2.43.43 0 .24-.2.44-.44.44Zm11.21 6.09h-2.2v-7.11h2.3c.68 0 1.27.14 1.76.43.5.28.87.68 1.13 1.21.26.53.4 1.16.4 1.9s-.14 1.38-.4 1.91-.65.94-1.15 1.23c-.5.29-1.12.43-1.84.43Zm-1.34-.77h1.28c.59 0 1.08-.1 1.46-.34.39-.22.68-.55.87-.96.19-.42.28-.92.28-1.5 0-.57-.1-1.07-.28-1.48a2.07 2.07 0 0 0-.84-.96 2.65 2.65 0 0 0-1.4-.34H442v5.58Zm8.3.88c-.52 0-.96-.11-1.34-.34a2.28 2.28 0 0 1-.85-.96c-.2-.41-.3-.89-.3-1.44 0-.54.1-1.02.3-1.44a2.26 2.26 0 0 1 2.1-1.33c.28 0 .55.04.82.14a2.04 2.04 0 0 1 1.27 1.27c.14.34.2.76.2 1.25v.35h-4.1v-.7h3.27c0-.3-.06-.58-.18-.81a1.36 1.36 0 0 0-1.28-.77c-.33 0-.6.08-.85.25a1.6 1.6 0 0 0-.54.62c-.13.26-.2.53-.2.83v.47c0 .4.08.74.22 1.02s.33.5.58.64c.25.14.54.21.87.21.22 0 .41-.03.59-.09.17-.06.32-.15.45-.27.13-.13.23-.28.3-.47l.79.22c-.09.27-.23.5-.42.71-.2.2-.44.36-.73.47a2.7 2.7 0 0 1-.98.17Zm4.27-7.22v7.1h-.82v-7.1h.82Zm3.73 7.22a2.28 2.28 0 0 1-2.19-1.3c-.2-.41-.3-.89-.3-1.44 0-.54.1-1.02.3-1.44a2.26 2.26 0 0 1 2.1-1.33c.29 0 .56.04.83.14a2.04 2.04 0 0 1 1.27 1.27c.14.34.2.76.2 1.25v.35h-4.1v-.7h3.27c0-.3-.06-.58-.18-.81a1.36 1.36 0 0 0-1.28-.77c-.33 0-.6.08-.85.25a1.6 1.6 0 0 0-.54.62c-.13.26-.2.53-.2.83v.47c0 .4.08.74.22 1.02s.33.5.58.64c.25.14.54.21.87.21.22 0 .41-.03.59-.09.17-.06.32-.15.45-.27.13-.13.23-.28.3-.47l.79.22a1.83 1.83 0 0 1-1.15 1.18 2.7 2.7 0 0 1-.98.17Zm5.78-5.44v.69h-2.77v-.7h2.77Zm-1.96-1.28h.82v5.08c0 .23.03.4.1.52s.16.2.26.23c.11.04.23.06.35.06.09 0 .16 0 .22-.02.06 0 .1-.02.14-.03l.17.74a1.66 1.66 0 0 1-.62.1c-.23 0-.45-.05-.68-.15-.22-.1-.4-.25-.55-.46a1.3 1.3 0 0 1-.21-.77v-5.3Zm5.37 6.72c-.51 0-.96-.11-1.33-.34a2.3 2.3 0 0 1-.86-.96c-.2-.41-.3-.89-.3-1.44 0-.54.1-1.02.3-1.44a2.26 2.26 0 0 1 2.1-1.33c.28 0 .56.04.83.14a2.05 2.05 0 0 1 1.27 1.27c.13.34.2.76.2 1.25v.35h-4.11v-.7h3.27c0-.3-.06-.58-.18-.81a1.36 1.36 0 0 0-1.28-.77c-.32 0-.6.08-.84.25a1.6 1.6 0 0 0-.55.62c-.12.26-.19.53-.19.83v.47c0 .4.07.74.21 1.02.14.28.34.5.59.64.25.14.54.21.87.21.21 0 .4-.03.58-.09.18-.06.33-.15.46-.27.12-.13.22-.28.3-.47l.78.22c-.08.27-.22.5-.42.71-.2.2-.44.36-.73.47a2.7 2.7 0 0 1-.97.17Z" fill="#0F67F5"/></g></g><g filter="url(#h)"><path fill="#fff" d="M123.71 89.4h141.53v27.92H123.71z"/><path d="M135.62 106.51v-.62l2.35-2.57c.27-.3.5-.56.68-.79.18-.22.3-.43.4-.63.08-.2.13-.4.13-.62a1.15 1.15 0 0 0-.67-1.08c-.2-.1-.44-.15-.7-.15-.27 0-.5.06-.71.17-.2.11-.36.27-.47.47-.1.2-.16.44-.16.71h-.82a2 2 0 0 1 1.07-1.83c.34-.18.7-.27 1.12-.27.42 0 .79.1 1.11.27a1.9 1.9 0 0 1 1.03 1.71c0 .26-.05.51-.14.76-.1.25-.26.53-.49.83-.23.3-.54.68-.95 1.11l-1.6 1.71v.06h3.3v.76h-4.48Zm6.34 0h-.9l2.6-7.1h.9l2.6 7.1h-.9l-2.12-5.98h-.06l-2.12 5.98Zm.33-2.78h3.64v.77h-3.64v-.77Z" fill="#545454"/></g><g filter="url(#i)"><path fill="#fff" d="M265.24 89.4h141.53v27.92H265.24z"/><rect x="273.62" y="96.03" width="27.93" height="13.97" rx="6.98" fill="#B5B5B5"/><circle cx="280.6" cy="103.01" r="5.59" fill="#fff"/></g><g filter="url(#j)"><path fill="#fff" d="M406.76 89.4H548.3v27.92H406.76z"/><g filter="url(#k)"><path fill="#fff" d="M415.14 89.04h124.77v27.93H415.14z"/><path d="M431.2 107.05h-4.65c-.55 0-.9-.35-.9-.9v-4.65a.43.43 0 1 1 .86 0v4.65l4.69.03.02-4.68c0-.25.2-.44.44-.44.23 0 .43.2.43.44v4.65c0 .55-.36.9-.9.9h.01Zm.93-6.98h-6.51a.43.43 0 0 1-.44-.43c0-.24.2-.44.44-.44h1.89v-.02c0-.25.2-.44.43-.44h1.87c.24 0 .43.2.43.44v.02h1.9a.44.44 0 0 1-.01.87Zm11.21 6.09h-2.2v-7.1h2.3c.68 0 1.27.13 1.76.42.5.28.87.69 1.13 1.22.26.52.4 1.16.4 1.9a4.3 4.3 0 0 1-.4 1.9c-.26.54-.65.95-1.15 1.23-.5.29-1.12.43-1.84.43Zm-1.34-.76h1.28a2.9 2.9 0 0 0 1.46-.34c.39-.23.68-.55.87-.97.19-.42.28-.92.28-1.5 0-.57-.1-1.06-.28-1.48a2.07 2.07 0 0 0-.84-.96 2.66 2.66 0 0 0-1.4-.33H442v5.58Zm8.3.87a2.5 2.5 0 0 1-1.34-.34 2.28 2.28 0 0 1-.85-.96c-.2-.4-.3-.89-.3-1.43 0-.55.1-1.03.3-1.45a2.26 2.26 0 0 1 2.1-1.33c.28 0 .55.05.82.14a2.03 2.03 0 0 1 1.27 1.27c.14.34.2.76.2 1.26v.34h-4.1v-.7h3.27c0-.3-.06-.57-.18-.81a1.36 1.36 0 0 0-1.28-.76c-.33 0-.6.08-.85.24a1.6 1.6 0 0 0-.54.62c-.13.26-.2.54-.2.83v.47c0 .4.08.75.22 1.03.14.27.33.49.58.63.25.15.54.22.87.22.22 0 .41-.03.59-.1.17-.06.32-.15.45-.27.13-.13.23-.28.3-.47l.79.23c-.09.26-.23.5-.42.7-.2.2-.44.36-.73.48a2.7 2.7 0 0 1-.98.16Zm4.27-7.22v7.11h-.82v-7.1h.82Zm3.73 7.22a2.5 2.5 0 0 1-1.33-.34 2.28 2.28 0 0 1-.85-.96c-.2-.4-.3-.89-.3-1.43 0-.55.1-1.03.3-1.45a2.26 2.26 0 0 1 2.1-1.33c.28 0 .55.05.82.14a2.04 2.04 0 0 1 1.27 1.27c.14.34.2.76.2 1.26v.34h-4.1v-.7h3.27c0-.3-.06-.57-.18-.81a1.36 1.36 0 0 0-1.28-.76c-.33 0-.6.08-.85.24a1.6 1.6 0 0 0-.54.62c-.13.26-.2.54-.2.83v.47c0 .4.08.75.22 1.03.14.27.33.49.58.63.25.15.54.22.87.22.22 0 .41-.03.59-.1.17-.06.32-.15.45-.27.13-.13.23-.28.3-.47l.79.23c-.08.26-.23.5-.42.7-.2.2-.44.36-.73.48-.29.1-.61.16-.98.16Zm5.78-5.44v.7h-2.77v-.7h2.77Zm-1.96-1.28h.82v5.09c0 .23.03.4.1.52.07.1.16.19.26.22.11.04.23.06.35.06l.22-.01.14-.03.17.73a1.66 1.66 0 0 1-.62.1c-.23 0-.45-.05-.68-.15a1.4 1.4 0 0 1-.55-.45 1.3 1.3 0 0 1-.21-.77v-5.3Zm5.37 6.72a2.5 2.5 0 0 1-1.33-.34 2.3 2.3 0 0 1-.86-.96c-.2-.4-.3-.89-.3-1.43 0-.55.1-1.03.3-1.45a2.26 2.26 0 0 1 2.1-1.33c.28 0 .56.05.83.14a2.04 2.04 0 0 1 1.27 1.27c.13.34.2.76.2 1.26v.34h-4.11v-.7h3.27c0-.3-.06-.57-.18-.81a1.36 1.36 0 0 0-1.28-.76c-.32 0-.6.08-.84.24a1.6 1.6 0 0 0-.55.62c-.12.26-.19.54-.19.83v.47c0 .4.07.75.21 1.03.14.27.34.49.59.63.25.15.54.22.87.22a1.57 1.57 0 0 0 1.04-.37c.12-.13.22-.28.3-.47l.78.23c-.08.26-.22.5-.42.7-.2.2-.44.36-.73.48a2.7 2.7 0 0 1-.97.16Z" fill="#0F67F5"/></g></g><g filter="url(#l)"><path fill="#fff" d="M123.71 117.33h141.53v27.93H123.71z"/><path d="M138.12 127.33v7.11h-.86v-6.2h-.04l-1.74 1.15v-.88l1.78-1.18h.86Zm2.17 7.11v-7.1h2.49c.5 0 .9.08 1.22.25.32.17.56.4.72.69a1.88 1.88 0 0 1 .07 1.7c-.1.2-.24.36-.42.47-.17.12-.36.2-.57.26v.07c.22.01.44.09.66.23.22.14.4.34.55.6.15.25.22.57.22.95a1.67 1.67 0 0 1-1.01 1.64c-.35.16-.8.24-1.36.24h-2.57Zm.86-.76h1.7c.57 0 .97-.1 1.2-.33a1 1 0 0 0 .36-.8c0-.24-.06-.46-.18-.66s-.3-.37-.52-.5c-.23-.12-.5-.18-.8-.18h-1.76v2.47Zm0-3.22h1.6c.26 0 .5-.05.7-.15.21-.1.38-.25.5-.44.13-.18.19-.4.19-.65 0-.31-.11-.57-.33-.8-.22-.21-.56-.32-1.03-.32h-1.63v2.36Z" fill="#545454"/></g><g filter="url(#m)"><path fill="#fff" d="M265.24 117.33h141.53v27.93H265.24z"/><rect x="273.62" y="123.96" width="27.93" height="13.97" rx="6.98" fill="#0F67F5"/><circle cx="294.57" cy="130.94" r="5.59" fill="#fff"/></g><g filter="url(#n)"><path fill="#fff" d="M406.76 117.33H548.3v27.93H406.76z"/><g filter="url(#o)"><path fill="#fff" d="M415.14 116.98h124.77v27.93H415.14z"/><path d="M431.2 134.99h-4.65c-.55 0-.9-.36-.9-.9v-4.66a.43.43 0 1 1 .86 0v4.66l4.69.02.02-4.68a.44.44 0 1 1 .87 0v4.66c0 .54-.36.9-.9.9h.01Zm.93-6.99h-6.51a.43.43 0 0 1-.44-.43c0-.24.2-.43.44-.43h1.89v-.03c0-.25.2-.43.43-.43h1.87c.24 0 .43.2.43.43v.03h1.9c.24 0 .43.2.43.43 0 .24-.2.43-.44.43Zm11.21 6.1h-2.2v-7.11h2.3c.68 0 1.27.14 1.76.42.5.28.87.69 1.13 1.22.26.53.4 1.16.4 1.9s-.14 1.37-.4 1.9c-.26.54-.65.95-1.15 1.24a3.7 3.7 0 0 1-1.84.43Zm-1.34-.77h1.28a2.8 2.8 0 0 0 1.46-.34c.39-.23.68-.55.87-.97.19-.42.28-.92.28-1.5 0-.57-.1-1.06-.28-1.48a2.07 2.07 0 0 0-.84-.95 2.66 2.66 0 0 0-1.4-.34H442v5.58Zm8.3.88c-.52 0-.96-.12-1.34-.34a2.29 2.29 0 0 1-.85-.96c-.2-.41-.3-.9-.3-1.44 0-.55.1-1.03.3-1.44a2.26 2.26 0 0 1 2.1-1.33c.28 0 .55.04.82.13a2.03 2.03 0 0 1 1.27 1.27c.14.34.2.76.2 1.26v.35h-4.1V131h3.27c0-.3-.06-.57-.18-.8a1.36 1.36 0 0 0-1.28-.77c-.33 0-.6.08-.85.24a1.6 1.6 0 0 0-.54.63c-.13.25-.2.53-.2.82v.47c0 .4.08.75.22 1.03s.33.49.58.63c.25.15.54.22.87.22.22 0 .41-.03.59-.09a1.23 1.23 0 0 0 .75-.74l.79.22c-.09.27-.23.5-.42.7-.2.2-.44.37-.73.48a2.7 2.7 0 0 1-.98.17Zm4.27-7.23v7.11h-.82V127h.82Zm3.73 7.23a2.6 2.6 0 0 1-1.33-.34 2.29 2.29 0 0 1-.85-.96c-.2-.41-.3-.9-.3-1.44 0-.55.1-1.03.3-1.44a2.26 2.26 0 0 1 2.1-1.33c.28 0 .55.04.82.13a2.04 2.04 0 0 1 1.27 1.27c.14.34.2.76.2 1.26v.35h-4.1V131h3.27c0-.3-.06-.57-.18-.8a1.37 1.37 0 0 0-1.28-.77c-.33 0-.6.08-.85.24a1.6 1.6 0 0 0-.54.63c-.13.25-.2.53-.2.82v.47c0 .4.08.75.22 1.03s.33.49.58.63c.25.15.54.22.87.22.22 0 .41-.03.59-.09a1.23 1.23 0 0 0 .75-.74l.79.22c-.08.27-.23.5-.42.7-.2.2-.44.37-.73.48-.29.11-.61.17-.98.17Zm5.78-5.45v.7h-2.77v-.7h2.77Zm-1.96-1.28h.82v5.09c0 .23.03.4.1.52.07.11.16.19.26.23a1.49 1.49 0 0 0 .57.04l.14-.03.17.74-.24.06c-.1.02-.22.03-.38.03-.23 0-.45-.05-.68-.15a1.4 1.4 0 0 1-.55-.45 1.3 1.3 0 0 1-.21-.77v-5.3Zm5.37 6.73c-.51 0-.96-.12-1.33-.34a2.3 2.3 0 0 1-.86-.96c-.2-.41-.3-.9-.3-1.44 0-.55.1-1.03.3-1.44a2.26 2.26 0 0 1 2.1-1.33c.28 0 .56.04.83.13a2.04 2.04 0 0 1 1.27 1.27c.13.34.2.76.2 1.26v.35h-4.11V131h3.27c0-.3-.06-.57-.18-.8a1.36 1.36 0 0 0-1.28-.77c-.32 0-.6.08-.84.24a1.6 1.6 0 0 0-.55.63 1.9 1.9 0 0 0-.19.82v.47c0 .4.07.75.21 1.03.14.28.34.49.59.63.25.15.54.22.87.22.21 0 .4-.03.58-.09.18-.06.33-.16.46-.28.12-.12.22-.28.3-.46l.78.22c-.08.27-.22.5-.42.7-.2.2-.44.37-.73.48a2.7 2.7 0 0 1-.97.17Z" fill="#0F67F5"/></g></g><defs><filter id="d" x="123.71" y="61.46" width="141.53" height="27.93" filterUnits="userSpaceOnUse" color-interpolation-filters="sRGB"><feFlood flood-opacity="0" result="BackgroundImageFix"/><feBlend in="SourceGraphic" in2="BackgroundImageFix" result="shape"/><feColorMatrix in="SourceAlpha" values="0 0 0 0 0 0 0 0 0 0 0 0 0 0 0 0 0 0 127 0" result="hardAlpha"/><feOffset dy="-.7"/><feComposite in2="hardAlpha" operator="arithmetic" k2="-1" k3="1"/><feColorMatrix values="0 0 0 0 0.933333 0 0 0 0 0.933333 0 0 0 0 0.933333 0 0 0 1 0"/><feBlend in2="shape" result="effect1_innerShadow_10720_94894"/></filter><filter id="e" x="265.24" y="61.46" width="141.53" height="27.93" filterUnits="userSpaceOnUse" color-interpolation-filters="sRGB"><feFlood flood-opacity="0" result="BackgroundImageFix"/><feBlend in="SourceGraphic" in2="BackgroundImageFix" result="shape"/><feColorMatrix in="SourceAlpha" values="0 0 0 0 0 0 0 0 0 0 0 0 0 0 0 0 0 0 127 0" result="hardAlpha"/><feOffset dy="-.7"/><feComposite in2="hardAlpha" operator="arithmetic" k2="-1" k3="1"/><feColorMatrix values="0 0 0 0 0.933333 0 0 0 0 0.933333 0 0 0 0 0.933333 0 0 0 1 0"/><feBlend in2="shape" result="effect1_innerShadow_10720_94894"/></filter><filter id="f" x="406.76" y="61.11" width="141.53" height="28.28" filterUnits="userSpaceOnUse" color-interpolation-filters="sRGB"><feFlood flood-opacity="0" result="BackgroundImageFix"/><feBlend in="SourceGraphic" in2="BackgroundImageFix" result="shape"/><feColorMatrix in="SourceAlpha" values="0 0 0 0 0 0 0 0 0 0 0 0 0 0 0 0 0 0 127 0" result="hardAlpha"/><feOffset dy="-.7"/><feComposite in2="hardAlpha" operator="arithmetic" k2="-1" k3="1"/><feColorMatrix values="0 0 0 0 0.933333 0 0 0 0 0.933333 0 0 0 0 0.933333 0 0 0 1 0"/><feBlend in2="shape" result="effect1_innerShadow_10720_94894"/></filter><filter id="g" x="415.14" y="61.11" width="124.77" height="27.93" filterUnits="userSpaceOnUse" color-interpolation-filters="sRGB"><feFlood flood-opacity="0" result="BackgroundImageFix"/><feBlend in="SourceGraphic" in2="BackgroundImageFix" result="shape"/><feColorMatrix in="SourceAlpha" values="0 0 0 0 0 0 0 0 0 0 0 0 0 0 0 0 0 0 127 0" result="hardAlpha"/><feOffset dy="-.7"/><feComposite in2="hardAlpha" operator="arithmetic" k2="-1" k3="1"/><feColorMatrix values="0 0 0 0 0.933333 0 0 0 0 0.933333 0 0 0 0 0.933333 0 0 0 1 0"/><feBlend in2="shape" result="effect1_innerShadow_10720_94894"/></filter><filter id="h" x="123.71" y="89.39" width="141.53" height="27.93" filterUnits="userSpaceOnUse" color-interpolation-filters="sRGB"><feFlood flood-opacity="0" result="BackgroundImageFix"/><feBlend in="SourceGraphic" in2="BackgroundImageFix" result="shape"/><feColorMatrix in="SourceAlpha" values="0 0 0 0 0 0 0 0 0 0 0 0 0 0 0 0 0 0 127 0" result="hardAlpha"/><feOffset dy="-.7"/><feComposite in2="hardAlpha" operator="arithmetic" k2="-1" k3="1"/><feColorMatrix values="0 0 0 0 0.933333 0 0 0 0 0.933333 0 0 0 0 0.933333 0 0 0 1 0"/><feBlend in2="shape" result="effect1_innerShadow_10720_94894"/></filter><filter id="i" x="265.24" y="89.39" width="141.53" height="27.93" filterUnits="userSpaceOnUse" color-interpolation-filters="sRGB"><feFlood flood-opacity="0" result="BackgroundImageFix"/><feBlend in="SourceGraphic" in2="BackgroundImageFix" result="shape"/><feColorMatrix in="SourceAlpha" values="0 0 0 0 0 0 0 0 0 0 0 0 0 0 0 0 0 0 127 0" result="hardAlpha"/><feOffset dy="-.7"/><feComposite in2="hardAlpha" operator="arithmetic" k2="-1" k3="1"/><feColorMatrix values="0 0 0 0 0.933333 0 0 0 0 0.933333 0 0 0 0 0.933333 0 0 0 1 0"/><feBlend in2="shape" result="effect1_innerShadow_10720_94894"/></filter><filter id="j" x="406.76" y="89.04" width="141.53" height="28.28" filterUnits="userSpaceOnUse" color-interpolation-filters="sRGB"><feFlood flood-opacity="0" result="BackgroundImageFix"/><feBlend in="SourceGraphic" in2="BackgroundImageFix" result="shape"/><feColorMatrix in="SourceAlpha" values="0 0 0 0 0 0 0 0 0 0 0 0 0 0 0 0 0 0 127 0" result="hardAlpha"/><feOffset dy="-.7"/><feComposite in2="hardAlpha" operator="arithmetic" k2="-1" k3="1"/><feColorMatrix values="0 0 0 0 0.933333 0 0 0 0 0.933333 0 0 0 0 0.933333 0 0 0 1 0"/><feBlend in2="shape" result="effect1_innerShadow_10720_94894"/></filter><filter id="k" x="415.14" y="89.04" width="124.77" height="27.93" filterUnits="userSpaceOnUse" color-interpolation-filters="sRGB"><feFlood flood-opacity="0" result="BackgroundImageFix"/><feBlend in="SourceGraphic" in2="BackgroundImageFix" result="shape"/><feColorMatrix in="SourceAlpha" values="0 0 0 0 0 0 0 0 0 0 0 0 0 0 0 0 0 0 127 0" result="hardAlpha"/><feOffset dy="-.7"/><feComposite in2="hardAlpha" operator="arithmetic" k2="-1" k3="1"/><feColorMatrix values="0 0 0 0 0.933333 0 0 0 0 0.933333 0 0 0 0 0.933333 0 0 0 1 0"/><feBlend in2="shape" result="effect1_innerShadow_10720_94894"/></filter><filter id="l" x="123.71" y="117.33" width="141.53" height="27.93" filterUnits="userSpaceOnUse" color-interpolation-filters="sRGB"><feFlood flood-opacity="0" result="BackgroundImageFix"/><feBlend in="SourceGraphic" in2="BackgroundImageFix" result="shape"/><feColorMatrix in="SourceAlpha" values="0 0 0 0 0 0 0 0 0 0 0 0 0 0 0 0 0 0 127 0" result="hardAlpha"/><feOffset dy="-.7"/><feComposite in2="hardAlpha" operator="arithmetic" k2="-1" k3="1"/><feColorMatrix values="0 0 0 0 0.933333 0 0 0 0 0.933333 0 0 0 0 0.933333 0 0 0 1 0"/><feBlend in2="shape" result="effect1_innerShadow_10720_94894"/></filter><filter id="m" x="265.24" y="117.33" width="141.53" height="27.93" filterUnits="userSpaceOnUse" color-interpolation-filters="sRGB"><feFlood flood-opacity="0" result="BackgroundImageFix"/><feBlend in="SourceGraphic" in2="BackgroundImageFix" result="shape"/><feColorMatrix in="SourceAlpha" values="0 0 0 0 0 0 0 0 0 0 0 0 0 0 0 0 0 0 127 0" result="hardAlpha"/><feOffset dy="-.7"/><feComposite in2="hardAlpha" operator="arithmetic" k2="-1" k3="1"/><feColorMatrix values="0 0 0 0 0.933333 0 0 0 0 0.933333 0 0 0 0 0.933333 0 0 0 1 0"/><feBlend in2="shape" result="effect1_innerShadow_10720_94894"/></filter><filter id="n" x="406.76" y="116.98" width="141.53" height="28.28" filterUnits="userSpaceOnUse" color-interpolation-filters="sRGB"><feFlood flood-opacity="0" result="BackgroundImageFix"/><feBlend in="SourceGraphic" in2="BackgroundImageFix" result="shape"/><feColorMatrix in="SourceAlpha" values="0 0 0 0 0 0 0 0 0 0 0 0 0 0 0 0 0 0 127 0" result="hardAlpha"/><feOffset dy="-.7"/><feComposite in2="hardAlpha" operator="arithmetic" k2="-1" k3="1"/><feColorMatrix values="0 0 0 0 0.933333 0 0 0 0 0.933333 0 0 0 0 0.933333 0 0 0 1 0"/><feBlend in2="shape" result="effect1_innerShadow_10720_94894"/></filter><filter id="o" x="415.14" y="116.98" width="124.77" height="27.93" filterUnits="userSpaceOnUse" color-interpolation-filters="sRGB"><feFlood flood-opacity="0" result="BackgroundImageFix"/><feBlend in="SourceGraphic" in2="BackgroundImageFix" result="shape"/><feColorMatrix in="SourceAlpha" values="0 0 0 0 0 0 0 0 0 0 0 0 0 0 0 0 0 0 127 0" result="hardAlpha"/><feOffset dy="-.7"/><feComposite in2="hardAlpha" operator="arithmetic" k2="-1" k3="1"/><feColorMatrix values="0 0 0 0 0.933333 0 0 0 0 0.933333 0 0 0 0 0.933333 0 0 0 1 0"/><feBlend in2="shape" result="effect1_innerShadow_10720_94894"/></filter></defs></svg>