<svg width="300" height="92" viewBox="0 0 300 92" fill="none" xmlns="http://www.w3.org/2000/svg">
<rect x="0.5" y="0.5" width="299" height="91" rx="8" fill="white"/>
<g clip-path="url(#clip0_13278_51485)">
<mask id="path-2-inside-1_13278_51485" fill="white">
<path d="M8.5 8.5H96.5V43.5H8.5V8.5Z"/>
</mask>
<path d="M8.5 8.5H96.5V43.5H8.5V8.5Z" fill="#F6F6F6"/>
<path d="M27.0376 23.1172C26.9912 22.683 26.7957 22.3449 26.451 22.103C26.1096 21.861 25.6655 21.7401 25.1186 21.7401C24.7341 21.7401 24.4044 21.7981 24.1293 21.9141C23.8542 22.0301 23.6437 22.1875 23.4979 22.3864C23.352 22.5852 23.2775 22.8123 23.2741 23.0675C23.2741 23.2796 23.3222 23.4635 23.4183 23.6193C23.5178 23.7751 23.652 23.9077 23.821 24.017C23.9901 24.1231 24.1773 24.2126 24.3828 24.2855C24.5883 24.3584 24.7955 24.4197 25.0043 24.4695L25.9588 24.7081C26.3433 24.7976 26.7128 24.9186 27.0675 25.071C27.4254 25.2235 27.7453 25.4157 28.027 25.6477C28.312 25.8797 28.5374 26.1598 28.7031 26.4879C28.8688 26.8161 28.9517 27.2005 28.9517 27.6413C28.9517 28.2379 28.7992 28.7633 28.4943 29.2173C28.1894 29.6681 27.7486 30.0211 27.1719 30.2763C26.5985 30.5282 25.9041 30.6541 25.0888 30.6541C24.2966 30.6541 23.6089 30.5315 23.0256 30.2862C22.4455 30.041 21.9915 29.683 21.6634 29.2124C21.3385 28.7417 21.1629 28.1683 21.1364 27.4922H22.951C22.9775 27.8468 23.0869 28.1418 23.2791 28.3771C23.4714 28.6125 23.7216 28.7881 24.0298 28.9041C24.3414 29.0201 24.6894 29.0781 25.0739 29.0781C25.4749 29.0781 25.8262 29.0185 26.1278 28.8991C26.4328 28.7765 26.6714 28.6075 26.8438 28.392C27.0161 28.1733 27.1039 27.9181 27.1072 27.6264C27.1039 27.3613 27.026 27.1425 26.8736 26.9702C26.7211 26.7945 26.5073 26.6487 26.2322 26.5327C25.9605 26.4134 25.6423 26.3073 25.2777 26.2145L24.1193 25.9162C23.2808 25.7008 22.6179 25.3743 22.1307 24.9368C21.6468 24.496 21.4048 23.911 21.4048 23.1818C21.4048 22.5819 21.5672 22.0566 21.892 21.6058C22.2202 21.1551 22.666 20.8054 23.2294 20.5568C23.7929 20.3049 24.4309 20.179 25.1435 20.179C25.866 20.179 26.4991 20.3049 27.0426 20.5568C27.5895 20.8054 28.0187 21.1518 28.3303 21.5959C28.6418 22.0367 28.8026 22.5438 28.8125 23.1172H27.0376ZM33.8475 30.6491C33.0852 30.6491 32.4306 30.4818 31.8837 30.147C31.3401 29.8123 30.9209 29.3499 30.6259 28.7599C30.3342 28.1667 30.1884 27.4839 30.1884 26.7116C30.1884 25.9361 30.3375 25.2517 30.6358 24.6584C30.9341 24.0618 31.3551 23.5978 31.8986 23.2663C32.4455 22.9316 33.0918 22.7642 33.8375 22.7642C34.4573 22.7642 35.0059 22.8786 35.4831 23.1072C35.9637 23.3326 36.3465 23.6525 36.6316 24.0668C36.9166 24.4777 37.079 24.9583 37.1188 25.5085H35.3986C35.329 25.1406 35.1633 24.834 34.9015 24.5888C34.6429 24.3402 34.2966 24.2159 33.8624 24.2159C33.4945 24.2159 33.1713 24.3153 32.8929 24.5142C32.6145 24.7098 32.3974 24.9915 32.2417 25.3594C32.0892 25.7273 32.013 26.1681 32.013 26.6818C32.013 27.2022 32.0892 27.6496 32.2417 28.0241C32.3941 28.3954 32.6079 28.6821 32.883 28.8842C33.1614 29.0831 33.4879 29.1825 33.8624 29.1825C34.1275 29.1825 34.3645 29.1328 34.5733 29.0334C34.7855 28.9306 34.9628 28.7831 35.1053 28.5909C35.2478 28.3987 35.3456 28.165 35.3986 27.8899H37.1188C37.0757 28.4302 36.9166 28.9091 36.6415 29.3267C36.3664 29.741 35.9919 30.0658 35.5179 30.3011C35.044 30.5331 34.4872 30.6491 33.8475 30.6491ZM41.9276 30.6491C41.1818 30.6491 40.5355 30.4851 39.9886 30.157C39.4418 29.8288 39.0175 29.3698 38.7159 28.7798C38.4176 28.1899 38.2685 27.5005 38.2685 26.7116C38.2685 25.9228 38.4176 25.2318 38.7159 24.6385C39.0175 24.0452 39.4418 23.5845 39.9886 23.2564C40.5355 22.9283 41.1818 22.7642 41.9276 22.7642C42.6733 22.7642 43.3196 22.9283 43.8665 23.2564C44.4134 23.5845 44.8359 24.0452 45.1342 24.6385C45.4358 25.2318 45.5866 25.9228 45.5866 26.7116C45.5866 27.5005 45.4358 28.1899 45.1342 28.7798C44.8359 29.3698 44.4134 29.8288 43.8665 30.157C43.3196 30.4851 42.6733 30.6491 41.9276 30.6491ZM41.9375 29.2074C42.3419 29.2074 42.6799 29.0964 42.9517 28.8743C43.2235 28.6489 43.4257 28.3473 43.5582 27.9695C43.6941 27.5916 43.7621 27.1707 43.7621 26.7067C43.7621 26.2393 43.6941 25.8168 43.5582 25.4389C43.4257 25.0578 43.2235 24.7545 42.9517 24.5291C42.6799 24.3037 42.3419 24.1911 41.9375 24.1911C41.5232 24.1911 41.1785 24.3037 40.9034 24.5291C40.6316 24.7545 40.4278 25.0578 40.2919 25.4389C40.1593 25.8168 40.093 26.2393 40.093 26.7067C40.093 27.1707 40.1593 27.5916 40.2919 27.9695C40.4278 28.3473 40.6316 28.6489 40.9034 28.8743C41.1785 29.0964 41.5232 29.2074 41.9375 29.2074ZM47.1142 30.5V22.8636H48.8592V24.1364H48.9387C49.0779 23.6955 49.3166 23.3558 49.6547 23.1172C49.996 22.8752 50.3855 22.7543 50.823 22.7543C50.9224 22.7543 51.0334 22.7592 51.1561 22.7692C51.282 22.7758 51.3864 22.7874 51.4693 22.804V24.4595C51.3931 24.433 51.2721 24.4098 51.1064 24.3899C50.944 24.3667 50.7865 24.3551 50.6341 24.3551C50.3059 24.3551 50.0109 24.4264 49.7491 24.5689C49.4906 24.7081 49.2868 24.902 49.1376 25.1506C48.9885 25.3991 48.9139 25.6858 48.9139 26.0107V30.5H47.1142ZM55.7312 30.6491C54.9656 30.6491 54.3043 30.4901 53.7475 30.1719C53.194 29.8504 52.7681 29.3963 52.4698 28.8097C52.1715 28.2197 52.0224 27.5253 52.0224 26.7266C52.0224 25.9411 52.1715 25.2517 52.4698 24.6584C52.7714 24.0618 53.1924 23.5978 53.7326 23.2663C54.2728 22.9316 54.9076 22.7642 55.6367 22.7642C56.1074 22.7642 56.5515 22.8404 56.9691 22.9929C57.39 23.142 57.7612 23.3741 58.0827 23.6889C58.4076 24.0038 58.6628 24.4048 58.8484 24.892C59.034 25.3759 59.1268 25.9527 59.1268 26.6222V27.174H52.8675V25.9609H57.4016C57.3983 25.6162 57.3237 25.3097 57.1779 25.0412C57.0321 24.7694 56.8282 24.5556 56.5664 24.3999C56.3079 24.2441 56.0063 24.1662 55.6616 24.1662C55.2937 24.1662 54.9705 24.2557 54.6921 24.4347C54.4137 24.6103 54.1966 24.8423 54.0408 25.1307C53.8884 25.4157 53.8105 25.7289 53.8072 26.0703V27.1293C53.8072 27.5734 53.8884 27.9545 54.0508 28.2727C54.2132 28.5876 54.4402 28.8295 54.7319 28.9986C55.0236 29.1643 55.3649 29.2472 55.756 29.2472C56.0179 29.2472 56.2549 29.2107 56.467 29.1378C56.6791 29.0616 56.863 28.9505 57.0188 28.8047C57.1746 28.6589 57.2923 28.4782 57.3718 28.2628L59.0522 28.4517C58.9461 28.8958 58.744 29.2836 58.4457 29.6151C58.1507 29.9432 57.7728 30.1984 57.3121 30.3807C56.8514 30.5597 56.3245 30.6491 55.7312 30.6491Z" fill="#1F1F1F"/>
<g clip-path="url(#clip1_13278_51485)">
<path d="M76.1699 27.79C75.8199 27.79 75.5499 27.51 75.5499 27.17V25.17C75.5499 24.82 75.8299 24.55 76.1699 24.55C76.5099 24.55 76.7899 24.83 76.7899 25.17V27.17C76.7899 27.52 76.5099 27.79 76.1699 27.79Z" fill="#545454"/>
<path d="M76.1699 23.79C76.0799 23.79 75.9999 23.77 75.9299 23.74C75.8499 23.71 75.7799 23.67 75.7199 23.61C75.6699 23.55 75.6199 23.48 75.5899 23.41C75.5599 23.33 75.5399 23.25 75.5399 23.17C75.5399 23.09 75.5599 23 75.5899 22.93C75.6199 22.85 75.6699 22.78 75.7199 22.73C75.7799 22.67 75.8499 22.62 75.9299 22.59C76.0799 22.53 76.2499 22.53 76.4099 22.59C76.4799 22.62 76.5499 22.67 76.6099 22.73C76.6699 22.78 76.7099 22.85 76.7399 22.93C76.7799 23 76.7899 23.09 76.7899 23.17C76.7899 23.33 76.7299 23.49 76.6099 23.61C76.4899 23.72 76.3299 23.79 76.1699 23.79Z" fill="#545454"/>
<path d="M76.1699 32.46C72.1499 32.46 68.8799 29.19 68.8799 25.17C68.8799 21.15 72.1499 17.88 76.1699 17.88C80.1899 17.88 83.4599 21.15 83.4599 25.17C83.4599 29.19 80.1899 32.46 76.1699 32.46ZM76.1699 19.12C72.8299 19.12 70.1199 21.84 70.1199 25.17C70.1199 28.5 72.8299 31.21 76.1599 31.21C79.4899 31.21 82.1999 28.5 82.1999 25.17C82.1999 21.84 79.4999 19.12 76.1699 19.12Z" fill="#545454"/>
</g>
<path d="M96.5 42.5H8.5V44.5H96.5V42.5Z" fill="#F6F6F6" mask="url(#path-2-inside-1_13278_51485)"/>
<mask id="path-6-inside-2_13278_51485" fill="white">
<path d="M96.5 8.5H181.5V43.5H96.5V8.5Z"/>
</mask>
<path d="M96.5 8.5H181.5V43.5H96.5V8.5Z" fill="#F6F6F6"/>
<path d="M115.038 23.1172C114.991 22.683 114.796 22.3449 114.451 22.103C114.11 21.861 113.665 21.7401 113.119 21.7401C112.734 21.7401 112.404 21.7981 112.129 21.9141C111.854 22.0301 111.644 22.1875 111.498 22.3864C111.352 22.5852 111.277 22.8123 111.274 23.0675C111.274 23.2796 111.322 23.4635 111.418 23.6193C111.518 23.7751 111.652 23.9077 111.821 24.017C111.99 24.1231 112.177 24.2126 112.383 24.2855C112.588 24.3584 112.795 24.4197 113.004 24.4695L113.959 24.7081C114.343 24.7976 114.713 24.9186 115.067 25.071C115.425 25.2235 115.745 25.4157 116.027 25.6477C116.312 25.8797 116.537 26.1598 116.703 26.4879C116.869 26.8161 116.952 27.2005 116.952 27.6413C116.952 28.2379 116.799 28.7633 116.494 29.2173C116.189 29.6681 115.749 30.0211 115.172 30.2763C114.598 30.5282 113.904 30.6541 113.089 30.6541C112.297 30.6541 111.609 30.5315 111.026 30.2862C110.446 30.041 109.991 29.683 109.663 29.2124C109.339 28.7417 109.163 28.1683 109.136 27.4922H110.951C110.978 27.8468 111.087 28.1418 111.279 28.3771C111.471 28.6125 111.722 28.7881 112.03 28.9041C112.341 29.0201 112.689 29.0781 113.074 29.0781C113.475 29.0781 113.826 29.0185 114.128 28.8991C114.433 28.7765 114.671 28.6075 114.844 28.392C115.016 28.1733 115.104 27.9181 115.107 27.6264C115.104 27.3613 115.026 27.1425 114.874 26.9702C114.721 26.7945 114.507 26.6487 114.232 26.5327C113.96 26.4134 113.642 26.3073 113.278 26.2145L112.119 25.9162C111.281 25.7008 110.618 25.3743 110.131 24.9368C109.647 24.496 109.405 23.911 109.405 23.1818C109.405 22.5819 109.567 22.0566 109.892 21.6058C110.22 21.1551 110.666 20.8054 111.229 20.5568C111.793 20.3049 112.431 20.179 113.143 20.179C113.866 20.179 114.499 20.3049 115.043 20.5568C115.589 20.8054 116.019 21.1518 116.33 21.5959C116.642 22.0367 116.803 22.5438 116.812 23.1172H115.038ZM123.384 27.2884V22.8636H125.183V30.5H123.438V29.1428H123.359C123.186 29.5703 122.903 29.92 122.509 30.1918C122.118 30.4635 121.635 30.5994 121.062 30.5994C120.561 30.5994 120.119 30.4884 119.735 30.2663C119.353 30.041 119.055 29.7145 118.84 29.2869C118.624 28.8561 118.517 28.3357 118.517 27.7259V22.8636H120.316V27.4474C120.316 27.9313 120.449 28.3158 120.714 28.6009C120.979 28.8859 121.327 29.0284 121.758 29.0284C122.023 29.0284 122.28 28.9638 122.529 28.8345C122.777 28.7053 122.981 28.513 123.14 28.2578C123.302 27.9993 123.384 27.6761 123.384 27.2884ZM127.034 30.5V22.8636H128.779V24.1364H128.859C128.998 23.6955 129.237 23.3558 129.575 23.1172C129.916 22.8752 130.305 22.7543 130.743 22.7543C130.842 22.7543 130.953 22.7592 131.076 22.7692C131.202 22.7758 131.306 22.7874 131.389 22.804V24.4595C131.313 24.433 131.192 24.4098 131.026 24.3899C130.864 24.3667 130.706 24.3551 130.554 24.3551C130.226 24.3551 129.931 24.4264 129.669 24.5689C129.411 24.7081 129.207 24.902 129.058 25.1506C128.908 25.3991 128.834 25.6858 128.834 26.0107V30.5H127.034ZM134.385 26.0256V30.5H132.585V22.8636H134.305V24.1612H134.395C134.57 23.7337 134.85 23.3939 135.235 23.142C135.623 22.8902 136.101 22.7642 136.672 22.7642C137.199 22.7642 137.658 22.8769 138.049 23.1023C138.443 23.3277 138.748 23.6541 138.963 24.0817C139.182 24.5092 139.29 25.0279 139.287 25.6378V30.5H137.487V25.9162C137.487 25.4058 137.354 25.0064 137.089 24.718C136.827 24.4297 136.464 24.2855 136 24.2855C135.685 24.2855 135.405 24.3551 135.16 24.4943C134.918 24.6302 134.728 24.8274 134.588 25.0859C134.453 25.3445 134.385 25.6577 134.385 26.0256ZM143.314 30.6541C142.83 30.6541 142.394 30.5679 142.006 30.3956C141.622 30.2199 141.317 29.9614 141.091 29.62C140.869 29.2786 140.758 28.8577 140.758 28.3572C140.758 27.9264 140.838 27.5701 140.997 27.2884C141.156 27.0066 141.373 26.7812 141.648 26.6122C141.923 26.4432 142.233 26.3156 142.578 26.2294C142.926 26.1399 143.285 26.0753 143.657 26.0355C144.104 25.9891 144.467 25.9477 144.745 25.9112C145.024 25.8714 145.226 25.8118 145.352 25.7322C145.481 25.6494 145.546 25.5218 145.546 25.3494V25.3196C145.546 24.9451 145.435 24.6551 145.213 24.4496C144.991 24.2441 144.671 24.1413 144.253 24.1413C143.812 24.1413 143.463 24.2375 143.204 24.4297C142.949 24.6219 142.777 24.849 142.687 25.1108L141.007 24.8722C141.139 24.4081 141.358 24.0204 141.663 23.7088C141.968 23.3939 142.341 23.1586 142.782 23.0028C143.222 22.8438 143.71 22.7642 144.243 22.7642C144.611 22.7642 144.977 22.8073 145.342 22.8935C145.707 22.9796 146.04 23.1222 146.341 23.321C146.643 23.5166 146.885 23.7834 147.067 24.1214C147.253 24.4595 147.346 24.8821 147.346 25.3892V30.5H145.615V29.451H145.556C145.446 29.6631 145.292 29.862 145.093 30.0476C144.898 30.2299 144.651 30.3774 144.353 30.4901C144.058 30.5994 143.711 30.6541 143.314 30.6541ZM143.781 29.3317C144.142 29.3317 144.455 29.2604 144.721 29.1179C144.986 28.9721 145.19 28.7798 145.332 28.5412C145.478 28.3026 145.551 28.0424 145.551 27.7607V26.8608C145.494 26.9072 145.398 26.9503 145.262 26.9901C145.13 27.0298 144.981 27.0646 144.815 27.0945C144.649 27.1243 144.485 27.1508 144.323 27.174C144.16 27.1972 144.02 27.2171 143.9 27.2337C143.632 27.2701 143.391 27.3298 143.179 27.4126C142.967 27.4955 142.8 27.6115 142.677 27.7607C142.555 27.9065 142.493 28.0954 142.493 28.3274C142.493 28.6589 142.614 28.9091 142.856 29.0781C143.098 29.2472 143.406 29.3317 143.781 29.3317ZM149.155 30.5V22.8636H150.875V24.1612H150.965C151.124 23.7237 151.387 23.3823 151.755 23.1371C152.123 22.8885 152.562 22.7642 153.073 22.7642C153.59 22.7642 154.026 22.8902 154.38 23.142C154.738 23.3906 154.99 23.7304 155.136 24.1612H155.216C155.385 23.737 155.67 23.3989 156.071 23.147C156.475 22.8918 156.954 22.7642 157.507 22.7642C158.21 22.7642 158.783 22.9863 159.228 23.4304C159.672 23.8745 159.894 24.5225 159.894 25.3743V30.5H158.089V25.6527C158.089 25.1787 157.963 24.8324 157.711 24.6136C157.459 24.3916 157.151 24.2805 156.787 24.2805C156.352 24.2805 156.013 24.4164 155.767 24.6882C155.525 24.9567 155.404 25.3063 155.404 25.7372V30.5H153.64V25.5781C153.64 25.1837 153.52 24.8688 153.282 24.6335C153.046 24.3982 152.738 24.2805 152.357 24.2805C152.098 24.2805 151.863 24.3468 151.651 24.4794C151.439 24.6087 151.27 24.7926 151.144 25.0312C151.018 25.2666 150.955 25.5417 150.955 25.8565V30.5H149.155ZM165.1 30.6491C164.335 30.6491 163.673 30.4901 163.117 30.1719C162.563 29.8504 162.137 29.3963 161.839 28.8097C161.541 28.2197 161.392 27.5253 161.392 26.7266C161.392 25.9411 161.541 25.2517 161.839 24.6584C162.141 24.0618 162.561 23.5978 163.102 23.2663C163.642 22.9316 164.277 22.7642 165.006 22.7642C165.477 22.7642 165.921 22.8404 166.338 22.9929C166.759 23.142 167.13 23.3741 167.452 23.6889C167.777 24.0038 168.032 24.4048 168.218 24.892C168.403 25.3759 168.496 25.9527 168.496 26.6222V27.174H162.237V25.9609H166.771C166.767 25.6162 166.693 25.3097 166.547 25.0412C166.401 24.7694 166.197 24.5556 165.936 24.3999C165.677 24.2441 165.375 24.1662 165.031 24.1662C164.663 24.1662 164.34 24.2557 164.061 24.4347C163.783 24.6103 163.566 24.8423 163.41 25.1307C163.258 25.4157 163.18 25.7289 163.176 26.0703V27.1293C163.176 27.5734 163.258 27.9545 163.42 28.2727C163.582 28.5876 163.809 28.8295 164.101 28.9986C164.393 29.1643 164.734 29.2472 165.125 29.2472C165.387 29.2472 165.624 29.2107 165.836 29.1378C166.048 29.0616 166.232 28.9505 166.388 28.8047C166.544 28.6589 166.661 28.4782 166.741 28.2628L168.421 28.4517C168.315 28.8958 168.113 29.2836 167.815 29.6151C167.52 29.9432 167.142 30.1984 166.681 30.3807C166.221 30.5597 165.694 30.6491 165.1 30.6491Z" fill="#1F1F1F"/>
<path d="M181.5 42.5H96.5V44.5H181.5V42.5Z" fill="#F6F6F6" mask="url(#path-6-inside-2_13278_51485)"/>
<mask id="path-9-inside-3_13278_51485" fill="white">
<path d="M181.5 8.5H291.5V43.5H181.5V8.5Z"/>
</mask>
<path d="M181.5 8.5H291.5V43.5H181.5V8.5Z" fill="#F6F6F6"/>
<path d="M200.038 23.1172C199.991 22.683 199.796 22.3449 199.451 22.103C199.11 21.861 198.665 21.7401 198.119 21.7401C197.734 21.7401 197.404 21.7981 197.129 21.9141C196.854 22.0301 196.644 22.1875 196.498 22.3864C196.352 22.5852 196.277 22.8123 196.274 23.0675C196.274 23.2796 196.322 23.4635 196.418 23.6193C196.518 23.7751 196.652 23.9077 196.821 24.017C196.99 24.1231 197.177 24.2126 197.383 24.2855C197.588 24.3584 197.795 24.4197 198.004 24.4695L198.959 24.7081C199.343 24.7976 199.713 24.9186 200.067 25.071C200.425 25.2235 200.745 25.4157 201.027 25.6477C201.312 25.8797 201.537 26.1598 201.703 26.4879C201.869 26.8161 201.952 27.2005 201.952 27.6413C201.952 28.2379 201.799 28.7633 201.494 29.2173C201.189 29.6681 200.749 30.0211 200.172 30.2763C199.598 30.5282 198.904 30.6541 198.089 30.6541C197.297 30.6541 196.609 30.5315 196.026 30.2862C195.446 30.041 194.991 29.683 194.663 29.2124C194.339 28.7417 194.163 28.1683 194.136 27.4922H195.951C195.978 27.8468 196.087 28.1418 196.279 28.3771C196.471 28.6125 196.722 28.7881 197.03 28.9041C197.341 29.0201 197.689 29.0781 198.074 29.0781C198.475 29.0781 198.826 29.0185 199.128 28.8991C199.433 28.7765 199.671 28.6075 199.844 28.392C200.016 28.1733 200.104 27.9181 200.107 27.6264C200.104 27.3613 200.026 27.1425 199.874 26.9702C199.721 26.7945 199.507 26.6487 199.232 26.5327C198.96 26.4134 198.642 26.3073 198.278 26.2145L197.119 25.9162C196.281 25.7008 195.618 25.3743 195.131 24.9368C194.647 24.496 194.405 23.911 194.405 23.1818C194.405 22.5819 194.567 22.0566 194.892 21.6058C195.22 21.1551 195.666 20.8054 196.229 20.5568C196.793 20.3049 197.431 20.179 198.143 20.179C198.866 20.179 199.499 20.3049 200.043 20.5568C200.589 20.8054 201.019 21.1518 201.33 21.5959C201.642 22.0367 201.803 22.5438 201.812 23.1172H200.038ZM208.384 27.2884V22.8636H210.183V30.5H208.438V29.1428H208.359C208.186 29.5703 207.903 29.92 207.509 30.1918C207.118 30.4635 206.635 30.5994 206.062 30.5994C205.561 30.5994 205.119 30.4884 204.735 30.2663C204.353 30.041 204.055 29.7145 203.84 29.2869C203.624 28.8561 203.517 28.3357 203.517 27.7259V22.8636H205.316V27.4474C205.316 27.9313 205.449 28.3158 205.714 28.6009C205.979 28.8859 206.327 29.0284 206.758 29.0284C207.023 29.0284 207.28 28.9638 207.529 28.8345C207.777 28.7053 207.981 28.513 208.14 28.2578C208.302 27.9993 208.384 27.6761 208.384 27.2884ZM212.114 30.5V20.3182H213.913V24.1264H213.988C214.081 23.9408 214.212 23.7436 214.381 23.5348C214.55 23.3227 214.778 23.142 215.067 22.9929C215.355 22.8404 215.723 22.7642 216.17 22.7642C216.76 22.7642 217.292 22.915 217.766 23.2166C218.244 23.5149 218.621 23.9574 218.9 24.544C219.182 25.1274 219.322 25.8433 219.322 26.6918C219.322 27.5303 219.185 28.2429 218.91 28.8295C218.635 29.4162 218.26 29.8636 217.786 30.1719C217.312 30.4801 216.775 30.6342 216.175 30.6342C215.738 30.6342 215.375 30.5613 215.087 30.4155C214.798 30.2696 214.566 30.094 214.391 29.8885C214.218 29.6797 214.084 29.4825 213.988 29.2969H213.884V30.5H212.114ZM213.879 26.6818C213.879 27.1757 213.948 27.6082 214.087 27.9794C214.23 28.3506 214.434 28.6406 214.699 28.8494C214.967 29.0549 215.292 29.1577 215.673 29.1577C216.071 29.1577 216.404 29.0516 216.673 28.8395C216.941 28.6241 217.143 28.3307 217.279 27.9595C217.418 27.585 217.488 27.1591 217.488 26.6818C217.488 26.2079 217.42 25.7869 217.284 25.419C217.148 25.0511 216.946 24.7628 216.678 24.554C216.409 24.3452 216.074 24.2408 215.673 24.2408C215.289 24.2408 214.962 24.3419 214.694 24.544C214.425 24.7462 214.222 25.0296 214.082 25.3942C213.946 25.7588 213.879 26.188 213.879 26.6818ZM220.852 22.8636H222.652V30.9375C222.652 31.4877 222.548 31.9418 222.339 32.2997C222.13 32.6577 221.829 32.9245 221.434 33.1001C221.04 33.2758 220.561 33.3636 219.997 33.3636C219.931 33.3636 219.87 33.362 219.813 33.3587C219.757 33.3587 219.696 33.357 219.629 33.3537V31.8871C219.679 31.8904 219.724 31.892 219.764 31.892C219.803 31.8954 219.845 31.897 219.888 31.897C220.233 31.897 220.48 31.8125 220.629 31.6435C220.778 31.4777 220.852 31.2341 220.852 30.9126V22.8636ZM221.747 21.7798C221.459 21.7798 221.212 21.6854 221.007 21.4964C220.804 21.3042 220.703 21.0739 220.703 20.8054C220.703 20.5336 220.804 20.3033 221.007 20.1143C221.212 19.9221 221.459 19.826 221.747 19.826C222.032 19.826 222.276 19.9221 222.478 20.1143C222.684 20.3033 222.786 20.5336 222.786 20.8054C222.786 21.0739 222.684 21.3042 222.478 21.4964C222.276 21.6854 222.032 21.7798 221.747 21.7798ZM227.884 30.6491C227.118 30.6491 226.457 30.4901 225.9 30.1719C225.346 29.8504 224.92 29.3963 224.622 28.8097C224.324 28.2197 224.175 27.5253 224.175 26.7266C224.175 25.9411 224.324 25.2517 224.622 24.6584C224.924 24.0618 225.345 23.5978 225.885 23.2663C226.425 22.9316 227.06 22.7642 227.789 22.7642C228.26 22.7642 228.704 22.8404 229.121 22.9929C229.542 23.142 229.914 23.3741 230.235 23.6889C230.56 24.0038 230.815 24.4048 231.001 24.892C231.186 25.3759 231.279 25.9527 231.279 26.6222V27.174H225.02V25.9609H229.554C229.551 25.6162 229.476 25.3097 229.33 25.0412C229.184 24.7694 228.981 24.5556 228.719 24.3999C228.46 24.2441 228.159 24.1662 227.814 24.1662C227.446 24.1662 227.123 24.2557 226.844 24.4347C226.566 24.6103 226.349 24.8423 226.193 25.1307C226.041 25.4157 225.963 25.7289 225.96 26.0703V27.1293C225.96 27.5734 226.041 27.9545 226.203 28.2727C226.366 28.5876 226.593 28.8295 226.884 28.9986C227.176 29.1643 227.517 29.2472 227.908 29.2472C228.17 29.2472 228.407 29.2107 228.619 29.1378C228.831 29.0616 229.015 28.9505 229.171 28.8047C229.327 28.6589 229.445 28.4782 229.524 28.2628L231.205 28.4517C231.098 28.8958 230.896 29.2836 230.598 29.6151C230.303 29.9432 229.925 30.1984 229.464 30.3807C229.004 30.5597 228.477 30.6491 227.884 30.6491ZM236.133 30.6491C235.37 30.6491 234.716 30.4818 234.169 30.147C233.625 29.8123 233.206 29.3499 232.911 28.7599C232.619 28.1667 232.474 27.4839 232.474 26.7116C232.474 25.9361 232.623 25.2517 232.921 24.6584C233.219 24.0618 233.64 23.5978 234.184 23.2663C234.731 22.9316 235.377 22.7642 236.123 22.7642C236.742 22.7642 237.291 22.8786 237.768 23.1072C238.249 23.3326 238.632 23.6525 238.917 24.0668C239.202 24.4777 239.364 24.9583 239.404 25.5085H237.684C237.614 25.1406 237.448 24.834 237.187 24.5888C236.928 24.3402 236.582 24.2159 236.148 24.2159C235.78 24.2159 235.456 24.3153 235.178 24.5142C234.9 24.7098 234.683 24.9915 234.527 25.3594C234.374 25.7273 234.298 26.1681 234.298 26.6818C234.298 27.2022 234.374 27.6496 234.527 28.0241C234.679 28.3954 234.893 28.6821 235.168 28.8842C235.447 29.0831 235.773 29.1825 236.148 29.1825C236.413 29.1825 236.65 29.1328 236.858 29.0334C237.071 28.9306 237.248 28.7831 237.39 28.5909C237.533 28.3987 237.631 28.165 237.684 27.8899H239.404C239.361 28.4302 239.202 28.9091 238.927 29.3267C238.652 29.741 238.277 30.0658 237.803 30.3011C237.329 30.5331 236.772 30.6491 236.133 30.6491ZM244.695 22.8636V24.2557H240.305V22.8636H244.695ZM241.389 21.0341H243.189V28.2031C243.189 28.4451 243.225 28.6307 243.298 28.7599C243.374 28.8859 243.474 28.9721 243.596 29.0185C243.719 29.0649 243.855 29.0881 244.004 29.0881C244.117 29.0881 244.219 29.0798 244.312 29.0632C244.408 29.0466 244.481 29.0317 244.531 29.0185L244.834 30.4254C244.738 30.4586 244.6 30.495 244.422 30.5348C244.246 30.5746 244.03 30.5978 243.775 30.6044C243.324 30.6177 242.918 30.5497 242.557 30.4006C242.196 30.2481 241.909 30.0128 241.697 29.6946C241.488 29.3764 241.386 28.9787 241.389 28.5014V21.0341Z" fill="#1F1F1F"/>
<path d="M291.5 42.5H181.5V44.5H291.5V42.5Z" fill="#F6F6F6" mask="url(#path-9-inside-3_13278_51485)"/>
<rect width="283" height="40" transform="translate(8.5 43.5)" fill="white"/>
<g filter="url(#filter0_i_13278_51485)">
<rect width="88" height="40" transform="translate(8.5 43.5)" fill="white"/>
<path d="M24.9347 68.1392C24.517 68.1326 24.0994 68.053 23.6818 67.9006C23.2642 67.7481 22.883 67.4912 22.5384 67.13C22.1937 66.7654 21.9169 66.2732 21.7081 65.6534C21.4993 65.0303 21.3949 64.2481 21.3949 63.3068C21.3949 62.4053 21.4794 61.6065 21.6484 60.9105C21.8175 60.2112 22.0627 59.6229 22.3842 59.1456C22.7057 58.665 23.0935 58.3004 23.5476 58.0518C24.005 57.8033 24.5204 57.679 25.0938 57.679C25.6638 57.679 26.1709 57.7933 26.6151 58.022C27.0625 58.2474 27.4271 58.5623 27.7088 58.9666C27.9905 59.371 28.1728 59.8366 28.2557 60.3636H27.0426C26.9299 59.9062 26.7112 59.5268 26.3864 59.2251C26.0616 58.9235 25.6307 58.7727 25.0938 58.7727C24.3049 58.7727 23.6835 59.1158 23.2294 59.8018C22.7786 60.4879 22.5516 61.4508 22.5483 62.6903H22.6278C22.8134 62.4086 23.0339 62.1683 23.2891 61.9695C23.5476 61.7673 23.8326 61.6115 24.1442 61.5021C24.4557 61.3928 24.7855 61.3381 25.1335 61.3381C25.7169 61.3381 26.2505 61.4839 26.7344 61.7756C27.2183 62.0639 27.6061 62.4633 27.8977 62.9737C28.1894 63.4808 28.3352 64.0625 28.3352 64.7188C28.3352 65.3485 28.1944 65.9252 27.9126 66.4489C27.6309 66.9692 27.2348 67.3835 26.7244 67.6918C26.2173 67.9967 25.6207 68.1458 24.9347 68.1392ZM24.9347 67.0455C25.3523 67.0455 25.7268 66.9411 26.0582 66.7322C26.393 66.5234 26.6565 66.2434 26.8487 65.892C27.0443 65.5407 27.142 65.1496 27.142 64.7188C27.142 64.2978 27.0476 63.915 26.8587 63.5703C26.6731 63.2223 26.4162 62.9455 26.0881 62.7401C25.7633 62.5346 25.392 62.4318 24.9744 62.4318C24.6596 62.4318 24.3662 62.4948 24.0945 62.6207C23.8227 62.7434 23.584 62.9124 23.3786 63.1278C23.1764 63.3433 23.0173 63.5902 22.9013 63.8686C22.7853 64.1437 22.7273 64.4337 22.7273 64.7386C22.7273 65.143 22.8217 65.5208 23.0107 65.8722C23.2029 66.2235 23.4647 66.5069 23.7962 66.7223C24.1309 66.9377 24.5104 67.0455 24.9347 67.0455ZM33.8699 57.8182V68H32.6369V59.1108H32.5772L30.0914 60.7614V59.5085L32.6369 57.8182H33.8699Z" fill="#333333"/>
</g>
<g filter="url(#filter1_i_13278_51485)">
<rect width="85" height="40" transform="translate(96.5 43.5)" fill="white"/>
<path d="M109.733 68V57.8182H113.293C114.002 57.8182 114.587 57.9408 115.048 58.1861C115.508 58.428 115.851 58.7545 116.077 59.1655C116.302 59.5732 116.415 60.0256 116.415 60.5227C116.415 60.9602 116.337 61.3215 116.181 61.6065C116.029 61.8916 115.826 62.117 115.575 62.2827C115.326 62.4484 115.056 62.571 114.764 62.6506V62.75C115.076 62.7699 115.389 62.8793 115.704 63.0781C116.019 63.277 116.282 63.562 116.494 63.9332C116.706 64.3045 116.812 64.7585 116.812 65.2955C116.812 65.8059 116.696 66.2649 116.464 66.6726C116.232 67.0803 115.866 67.4034 115.366 67.642C114.865 67.8807 114.214 68 113.412 68H109.733ZM110.966 66.9062H113.412C114.217 66.9062 114.789 66.7505 115.127 66.4389C115.469 66.1241 115.639 65.7429 115.639 65.2955C115.639 64.9508 115.551 64.6326 115.376 64.3409C115.2 64.0459 114.95 63.8106 114.625 63.6349C114.3 63.456 113.916 63.3665 113.472 63.3665H110.966V66.9062ZM110.966 62.2926H113.253C113.624 62.2926 113.959 62.2197 114.257 62.0739C114.559 61.928 114.797 61.7225 114.973 61.4574C115.152 61.1922 115.241 60.8807 115.241 60.5227C115.241 60.0753 115.086 59.6958 114.774 59.3842C114.463 59.0694 113.969 58.9119 113.293 58.9119H110.966V62.2926ZM118.679 68V60.3636H119.813V61.517H119.892C120.032 61.1392 120.283 60.8326 120.648 60.5973C121.013 60.362 121.424 60.2443 121.881 60.2443C121.967 60.2443 122.075 60.246 122.204 60.2493C122.333 60.2526 122.431 60.2576 122.498 60.2642V61.4574C122.458 61.4474 122.367 61.4325 122.224 61.4126C122.085 61.3894 121.937 61.3778 121.782 61.3778C121.41 61.3778 121.079 61.4557 120.787 61.6115C120.499 61.764 120.27 61.9761 120.101 62.2479C119.935 62.5163 119.853 62.8229 119.853 63.1676V68H118.679ZM126.758 68.1591C126.069 68.1591 125.464 67.995 124.944 67.6669C124.426 67.3388 124.022 66.8797 123.73 66.2898C123.442 65.6998 123.298 65.0104 123.298 64.2216C123.298 63.4261 123.442 62.7318 123.73 62.1385C124.022 61.5452 124.426 61.0845 124.944 60.7564C125.464 60.4283 126.069 60.2642 126.758 60.2642C127.448 60.2642 128.051 60.4283 128.568 60.7564C129.088 61.0845 129.493 61.5452 129.781 62.1385C130.073 62.7318 130.218 63.4261 130.218 64.2216C130.218 65.0104 130.073 65.6998 129.781 66.2898C129.493 66.8797 129.088 67.3388 128.568 67.6669C128.051 67.995 127.448 68.1591 126.758 68.1591ZM126.758 67.1051C127.282 67.1051 127.713 66.9709 128.051 66.7024C128.389 66.4339 128.639 66.081 128.801 65.6435C128.964 65.206 129.045 64.732 129.045 64.2216C129.045 63.7112 128.964 63.2356 128.801 62.7947C128.639 62.3539 128.389 61.9976 128.051 61.7259C127.713 61.4541 127.282 61.3182 126.758 61.3182C126.234 61.3182 125.804 61.4541 125.466 61.7259C125.127 61.9976 124.877 62.3539 124.715 62.7947C124.552 63.2356 124.471 63.7112 124.471 64.2216C124.471 64.732 124.552 65.206 124.715 65.6435C124.877 66.081 125.127 66.4339 125.466 66.7024C125.804 66.9709 126.234 67.1051 126.758 67.1051ZM133.48 68L131.153 60.3636H132.386L134.037 66.2102H134.116L135.747 60.3636H137L138.61 66.1903H138.69L140.341 60.3636H141.574L139.247 68H138.093L136.423 62.1335H136.304L134.633 68H133.48ZM144.298 63.4062V68H143.125V60.3636H144.258V61.5568H144.358C144.537 61.169 144.808 60.8575 145.173 60.6222C145.538 60.3835 146.008 60.2642 146.585 60.2642C147.102 60.2642 147.554 60.3703 147.942 60.5824C148.33 60.7912 148.632 61.1094 148.847 61.5369C149.062 61.9612 149.17 62.4981 149.17 63.1477V68H147.997V63.2273C147.997 62.6274 147.841 62.16 147.529 61.8253C147.218 61.4872 146.79 61.3182 146.247 61.3182C145.872 61.3182 145.538 61.3994 145.243 61.5618C144.951 61.7242 144.721 61.9612 144.551 62.2727C144.382 62.5843 144.298 62.9621 144.298 63.4062Z" fill="#333333"/>
</g>
<g filter="url(#filter2_i_13278_51485)">
<rect width="110" height="40" transform="translate(181.5 43.5)" fill="white"/>
<path d="M194.733 68V57.8182H200.878V58.9119H195.966V62.3523H200.56V63.446H195.966V66.9062H200.957V68H194.733ZM204.114 63.4062V68H202.941V60.3636H204.075V61.5568H204.174C204.353 61.169 204.625 60.8575 204.989 60.6222C205.354 60.3835 205.825 60.2642 206.401 60.2642C206.918 60.2642 207.371 60.3703 207.759 60.5824C208.146 60.7912 208.448 61.1094 208.663 61.5369C208.879 61.9612 208.987 62.4981 208.987 63.1477V68H207.813V63.2273C207.813 62.6274 207.657 62.16 207.346 61.8253C207.034 61.4872 206.607 61.3182 206.063 61.3182C205.689 61.3182 205.354 61.3994 205.059 61.5618C204.767 61.7242 204.537 61.9612 204.368 62.2727C204.199 62.5843 204.114 62.9621 204.114 63.4062ZM214.213 71.0227C213.646 71.0227 213.159 70.9498 212.751 70.804C212.344 70.6615 212.004 70.4725 211.732 70.2372C211.464 70.0052 211.25 69.7566 211.091 69.4915L212.025 68.8352C212.131 68.9744 212.266 69.1335 212.428 69.3125C212.59 69.4948 212.813 69.6522 213.094 69.7848C213.379 69.9207 213.752 69.9886 214.213 69.9886C214.829 69.9886 215.338 69.8395 215.739 69.5412C216.14 69.2429 216.341 68.7756 216.341 68.1392V66.5881H216.241C216.155 66.7273 216.032 66.8996 215.873 67.1051C215.718 67.3073 215.492 67.4879 215.197 67.647C214.906 67.8028 214.511 67.8807 214.014 67.8807C213.398 67.8807 212.844 67.7348 212.354 67.4432C211.866 67.1515 211.48 66.7273 211.195 66.1705C210.913 65.6136 210.773 64.9375 210.773 64.142C210.773 63.3598 210.91 62.6787 211.185 62.0987C211.46 61.5154 211.843 61.0646 212.334 60.7464C212.824 60.425 213.391 60.2642 214.034 60.2642C214.531 60.2642 214.925 60.3471 215.217 60.5128C215.512 60.6752 215.738 60.8608 215.893 61.0696C216.052 61.2751 216.175 61.4441 216.261 61.5767H216.381V60.3636H217.514V68.2188C217.514 68.875 217.365 69.4086 217.067 69.8196C216.772 70.2339 216.374 70.5372 215.873 70.7294C215.376 70.925 214.823 71.0227 214.213 71.0227ZM214.173 66.8267C214.644 66.8267 215.041 66.719 215.366 66.5036C215.691 66.2881 215.938 65.9782 216.107 65.5739C216.276 65.1695 216.361 64.6856 216.361 64.1222C216.361 63.572 216.278 63.0864 216.112 62.6655C215.946 62.2446 215.701 61.9148 215.376 61.6761C215.051 61.4375 214.65 61.3182 214.173 61.3182C213.676 61.3182 213.262 61.4441 212.93 61.696C212.602 61.9479 212.355 62.286 212.189 62.7102C212.027 63.1345 211.946 63.6051 211.946 64.1222C211.946 64.6525 212.029 65.1214 212.194 65.5291C212.363 65.9335 212.612 66.2517 212.94 66.4837C213.272 66.7124 213.683 66.8267 214.173 66.8267ZM220.835 57.8182V68H219.662V57.8182H220.835ZM222.984 68V60.3636H224.157V68H222.984ZM223.581 59.0909C223.352 59.0909 223.155 59.013 222.989 58.8572C222.827 58.7015 222.745 58.5142 222.745 58.2955C222.745 58.0767 222.827 57.8894 222.989 57.7337C223.155 57.5779 223.352 57.5 223.581 57.5C223.809 57.5 224.005 57.5779 224.167 57.7337C224.333 57.8894 224.416 58.0767 224.416 58.2955C224.416 58.5142 224.333 58.7015 224.167 58.8572C224.005 59.013 223.809 59.0909 223.581 59.0909ZM231.715 62.0739L230.661 62.3722C230.595 62.1965 230.497 62.0258 230.368 61.8601C230.242 61.6911 230.07 61.5518 229.851 61.4425C229.632 61.3331 229.352 61.2784 229.011 61.2784C228.544 61.2784 228.154 61.3861 227.843 61.6016C227.534 61.8137 227.38 62.0838 227.38 62.4119C227.38 62.7036 227.486 62.9339 227.698 63.103C227.91 63.272 228.242 63.4129 228.693 63.5256L229.826 63.804C230.509 63.9697 231.018 64.2232 231.352 64.5646C231.687 64.9027 231.855 65.3385 231.855 65.8722C231.855 66.3097 231.729 66.7008 231.477 67.0455C231.228 67.3902 230.88 67.6619 230.433 67.8608C229.985 68.0597 229.465 68.1591 228.872 68.1591C228.093 68.1591 227.448 67.9901 226.938 67.652C226.427 67.3139 226.104 66.8201 225.968 66.1705L227.082 65.892C227.188 66.303 227.388 66.6113 227.683 66.8168C227.982 67.0223 228.371 67.125 228.852 67.125C229.399 67.125 229.833 67.009 230.154 66.777C230.479 66.5417 230.642 66.2599 230.642 65.9318C230.642 65.6667 230.549 65.4446 230.363 65.2656C230.177 65.0833 229.892 64.9474 229.508 64.858L228.235 64.5597C227.536 64.3939 227.022 64.1371 226.694 63.7891C226.369 63.4377 226.207 62.9986 226.207 62.4716C226.207 62.0407 226.328 61.6596 226.57 61.3281C226.815 60.9967 227.148 60.7365 227.569 60.5476C227.993 60.3587 228.474 60.2642 229.011 60.2642C229.767 60.2642 230.36 60.4299 230.791 60.7614C231.225 61.0928 231.533 61.5303 231.715 62.0739ZM234.794 63.4062V68H233.621V57.8182H234.794V61.5568H234.893C235.072 61.1624 235.341 60.8492 235.699 60.6172C236.06 60.3819 236.541 60.2642 237.141 60.2642C237.661 60.2642 238.117 60.3686 238.508 60.5774C238.899 60.7829 239.202 61.0994 239.418 61.527C239.636 61.9512 239.746 62.4915 239.746 63.1477V68H238.572V63.2273C238.572 62.6207 238.415 62.1518 238.1 61.8203C237.789 61.4856 237.356 61.3182 236.803 61.3182C236.418 61.3182 236.073 61.3994 235.768 61.5618C235.467 61.7242 235.228 61.9612 235.053 62.2727C234.88 62.5843 234.794 62.9621 234.794 63.4062Z" fill="#333333"/>
</g>
</g>
<g filter="url(#filter3_dd_13278_51485)">
<path d="M85.5 24.4091L90.5 19.5L90.5 29.5L85.5 24.4091Z" fill="#333333"/>
<rect x="90.5" y="4.5" width="146" height="40" rx="4" fill="#333333"/>
<path d="M107.273 20.1136V18.8636H116V20.1136H112.341V30.5H110.932V20.1136H107.273ZM120.273 30.6818C119.485 30.6818 118.794 30.4943 118.199 30.1193C117.608 29.7443 117.146 29.2197 116.812 28.5455C116.483 27.8712 116.318 27.0833 116.318 26.1818C116.318 25.2727 116.483 24.4792 116.812 23.8011C117.146 23.1231 117.608 22.5966 118.199 22.2216C118.794 21.8466 119.485 21.6591 120.273 21.6591C121.061 21.6591 121.75 21.8466 122.341 22.2216C122.936 22.5966 123.398 23.1231 123.727 23.8011C124.061 24.4792 124.227 25.2727 124.227 26.1818C124.227 27.0833 124.061 27.8712 123.727 28.5455C123.398 29.2197 122.936 29.7443 122.341 30.1193C121.75 30.4943 121.061 30.6818 120.273 30.6818ZM120.273 29.4773C120.871 29.4773 121.364 29.3239 121.75 29.017C122.136 28.7102 122.422 28.3068 122.608 27.8068C122.794 27.3068 122.886 26.7652 122.886 26.1818C122.886 25.5985 122.794 25.0549 122.608 24.5511C122.422 24.0473 122.136 23.6402 121.75 23.3295C121.364 23.0189 120.871 22.8636 120.273 22.8636C119.674 22.8636 119.182 23.0189 118.795 23.3295C118.409 23.6402 118.123 24.0473 117.938 24.5511C117.752 25.0549 117.659 25.5985 117.659 26.1818C117.659 26.7652 117.752 27.3068 117.938 27.8068C118.123 28.3068 118.409 28.7102 118.795 29.017C119.182 29.3239 119.674 29.4773 120.273 29.4773ZM129.82 30.6818C129.032 30.6818 128.34 30.4943 127.746 30.1193C127.155 29.7443 126.693 29.2197 126.359 28.5455C126.03 27.8712 125.865 27.0833 125.865 26.1818C125.865 25.2727 126.03 24.4792 126.359 23.8011C126.693 23.1231 127.155 22.5966 127.746 22.2216C128.34 21.8466 129.032 21.6591 129.82 21.6591C130.607 21.6591 131.297 21.8466 131.888 22.2216C132.482 22.5966 132.945 23.1231 133.274 23.8011C133.607 24.4792 133.774 25.2727 133.774 26.1818C133.774 27.0833 133.607 27.8712 133.274 28.5455C132.945 29.2197 132.482 29.7443 131.888 30.1193C131.297 30.4943 130.607 30.6818 129.82 30.6818ZM129.82 29.4773C130.418 29.4773 130.911 29.3239 131.297 29.017C131.683 28.7102 131.969 28.3068 132.155 27.8068C132.34 27.3068 132.433 26.7652 132.433 26.1818C132.433 25.5985 132.34 25.0549 132.155 24.5511C131.969 24.0473 131.683 23.6402 131.297 23.3295C130.911 23.0189 130.418 22.8636 129.82 22.8636C129.221 22.8636 128.729 23.0189 128.342 23.3295C127.956 23.6402 127.67 24.0473 127.484 24.5511C127.299 25.0549 127.206 25.5985 127.206 26.1818C127.206 26.7652 127.299 27.3068 127.484 27.8068C127.67 28.3068 127.956 28.7102 128.342 29.017C128.729 29.3239 129.221 29.4773 129.82 29.4773ZM137.162 18.8636V30.5H135.821V18.8636H137.162ZM143.413 21.7727V22.9091H138.891V21.7727H143.413ZM140.209 19.6818H141.55V28C141.55 28.3788 141.605 28.6629 141.714 28.8523C141.828 29.0379 141.972 29.1629 142.146 29.2273C142.324 29.2879 142.512 29.3182 142.709 29.3182C142.857 29.3182 142.978 29.3106 143.072 29.2955C143.167 29.2765 143.243 29.2614 143.3 29.25L143.572 30.4545C143.482 30.4886 143.355 30.5227 143.192 30.5568C143.029 30.5947 142.822 30.6136 142.572 30.6136C142.194 30.6136 141.822 30.5322 141.459 30.3693C141.099 30.2064 140.8 29.9583 140.561 29.625C140.326 29.2917 140.209 28.8712 140.209 28.3636V19.6818ZM145.43 30.5V21.7727H146.771V30.5H145.43ZM146.112 20.3182C145.851 20.3182 145.625 20.2292 145.436 20.0511C145.25 19.8731 145.158 19.6591 145.158 19.4091C145.158 19.1591 145.25 18.9451 145.436 18.767C145.625 18.589 145.851 18.5 146.112 18.5C146.374 18.5 146.597 18.589 146.783 18.767C146.972 18.9451 147.067 19.1591 147.067 19.4091C147.067 19.6591 146.972 19.8731 146.783 20.0511C146.597 20.2292 146.374 20.3182 146.112 20.3182ZM149.227 33.7727V21.7727H150.523V23.1591H150.682C150.78 23.0076 150.917 22.8144 151.091 22.5795C151.269 22.3409 151.523 22.1288 151.852 21.9432C152.186 21.7538 152.636 21.6591 153.205 21.6591C153.939 21.6591 154.587 21.8428 155.148 22.2102C155.708 22.5777 156.146 23.0985 156.46 23.7727C156.775 24.447 156.932 25.2424 156.932 26.1591C156.932 27.0833 156.775 27.8845 156.46 28.5625C156.146 29.2367 155.71 29.7595 155.153 30.1307C154.597 30.4981 153.955 30.6818 153.227 30.6818C152.667 30.6818 152.218 30.589 151.881 30.4034C151.544 30.214 151.284 30 151.102 29.7614C150.92 29.5189 150.78 29.3182 150.682 29.1591H150.568V33.7727H149.227ZM150.545 26.1364C150.545 26.7955 150.642 27.3769 150.835 27.8807C151.028 28.3807 151.311 28.7727 151.682 29.0568C152.053 29.3371 152.508 29.4773 153.045 29.4773C153.606 29.4773 154.074 29.3295 154.449 29.0341C154.828 28.7348 155.112 28.3333 155.301 27.8295C155.494 27.322 155.591 26.7576 155.591 26.1364C155.591 25.5227 155.496 24.9697 155.307 24.4773C155.121 23.9811 154.839 23.589 154.46 23.3011C154.085 23.0095 153.614 22.8636 153.045 22.8636C152.5 22.8636 152.042 23.0019 151.67 23.2784C151.299 23.5511 151.019 23.9337 150.83 24.4261C150.64 24.9148 150.545 25.4848 150.545 26.1364ZM167.023 30.6818C166.205 30.6818 165.5 30.4886 164.909 30.1023C164.318 29.7159 163.864 29.1837 163.545 28.5057C163.227 27.8277 163.068 27.053 163.068 26.1818C163.068 25.2955 163.231 24.5133 163.557 23.8352C163.886 23.1534 164.345 22.6212 164.932 22.2386C165.523 21.8523 166.212 21.6591 167 21.6591C167.614 21.6591 168.167 21.7727 168.659 22C169.152 22.2273 169.555 22.5455 169.869 22.9545C170.184 23.3636 170.379 23.8409 170.455 24.3864H169.114C169.011 23.9886 168.784 23.6364 168.432 23.3295C168.083 23.0189 167.614 22.8636 167.023 22.8636C166.5 22.8636 166.042 23 165.648 23.2727C165.258 23.5417 164.953 23.9223 164.733 24.4148C164.517 24.9034 164.409 25.4773 164.409 26.1364C164.409 26.8106 164.515 27.3977 164.727 27.8977C164.943 28.3977 165.246 28.786 165.636 29.0625C166.03 29.339 166.492 29.4773 167.023 29.4773C167.371 29.4773 167.688 29.4167 167.972 29.2955C168.256 29.1742 168.496 29 168.693 28.7727C168.89 28.5455 169.03 28.2727 169.114 27.9545H170.455C170.379 28.4697 170.191 28.9337 169.892 29.3466C169.597 29.7557 169.205 30.0814 168.716 30.3239C168.231 30.5625 167.667 30.6818 167.023 30.6818ZM175.96 30.6818C175.172 30.6818 174.481 30.4943 173.886 30.1193C173.295 29.7443 172.833 29.2197 172.5 28.5455C172.17 27.8712 172.006 27.0833 172.006 26.1818C172.006 25.2727 172.17 24.4792 172.5 23.8011C172.833 23.1231 173.295 22.5966 173.886 22.2216C174.481 21.8466 175.172 21.6591 175.96 21.6591C176.748 21.6591 177.438 21.8466 178.028 22.2216C178.623 22.5966 179.085 23.1231 179.415 23.8011C179.748 24.4792 179.915 25.2727 179.915 26.1818C179.915 27.0833 179.748 27.8712 179.415 28.5455C179.085 29.2197 178.623 29.7443 178.028 30.1193C177.438 30.4943 176.748 30.6818 175.96 30.6818ZM175.96 29.4773C176.559 29.4773 177.051 29.3239 177.438 29.017C177.824 28.7102 178.11 28.3068 178.295 27.8068C178.481 27.3068 178.574 26.7652 178.574 26.1818C178.574 25.5985 178.481 25.0549 178.295 24.5511C178.11 24.0473 177.824 23.6402 177.438 23.3295C177.051 23.0189 176.559 22.8636 175.96 22.8636C175.362 22.8636 174.869 23.0189 174.483 23.3295C174.097 23.6402 173.811 24.0473 173.625 24.5511C173.439 25.0549 173.347 25.5985 173.347 26.1818C173.347 26.7652 173.439 27.3068 173.625 27.8068C173.811 28.3068 174.097 28.7102 174.483 29.017C174.869 29.3239 175.362 29.4773 175.96 29.4773ZM183.303 25.25V30.5H181.962V21.7727H183.257V23.1364H183.371C183.575 22.6932 183.886 22.3371 184.303 22.0682C184.719 21.7955 185.257 21.6591 185.916 21.6591C186.507 21.6591 187.024 21.7803 187.467 22.0227C187.911 22.2614 188.255 22.625 188.501 23.1136C188.748 23.5985 188.871 24.2121 188.871 24.9545V30.5H187.53V25.0455C187.53 24.3598 187.352 23.8258 186.996 23.4432C186.64 23.0568 186.151 22.8636 185.53 22.8636C185.102 22.8636 184.719 22.9564 184.382 23.142C184.049 23.3277 183.786 23.5985 183.592 23.9545C183.399 24.3106 183.303 24.7424 183.303 25.25ZM195.116 21.7727V22.9091H190.594V21.7727H195.116ZM191.912 19.6818H193.253V28C193.253 28.3788 193.308 28.6629 193.418 28.8523C193.531 29.0379 193.675 29.1629 193.849 29.2273C194.027 29.2879 194.215 29.3182 194.412 29.3182C194.56 29.3182 194.681 29.3106 194.776 29.2955C194.87 29.2765 194.946 29.2614 195.003 29.25L195.276 30.4545C195.185 30.4886 195.058 30.5227 194.895 30.5568C194.732 30.5947 194.526 30.6136 194.276 30.6136C193.897 30.6136 193.526 30.5322 193.162 30.3693C192.802 30.2064 192.503 29.9583 192.264 29.625C192.029 29.2917 191.912 28.8712 191.912 28.3636V19.6818ZM200.699 30.6818C199.858 30.6818 199.133 30.4962 198.523 30.125C197.917 29.75 197.449 29.2273 197.119 28.5568C196.794 27.8826 196.631 27.0985 196.631 26.2045C196.631 25.3106 196.794 24.5227 197.119 23.8409C197.449 23.1553 197.907 22.6212 198.494 22.2386C199.085 21.8523 199.775 21.6591 200.562 21.6591C201.017 21.6591 201.466 21.7348 201.909 21.8864C202.352 22.0379 202.756 22.2841 203.119 22.625C203.483 22.9621 203.773 23.4091 203.989 23.9659C204.205 24.5227 204.312 25.2083 204.312 26.0227V26.5909H197.585V25.4318H202.949C202.949 24.9394 202.85 24.5 202.653 24.1136C202.46 23.7273 202.184 23.4223 201.824 23.1989C201.468 22.9754 201.047 22.8636 200.562 22.8636C200.028 22.8636 199.566 22.9962 199.176 23.2614C198.79 23.5227 198.492 23.8636 198.284 24.2841C198.076 24.7045 197.972 25.1553 197.972 25.6364V26.4091C197.972 27.0682 198.085 27.6269 198.312 28.0852C198.544 28.5398 198.864 28.8864 199.273 29.125C199.682 29.3598 200.157 29.4773 200.699 29.4773C201.051 29.4773 201.369 29.428 201.653 29.3295C201.941 29.2273 202.189 29.0758 202.398 28.875C202.606 28.6705 202.767 28.4167 202.881 28.1136L204.176 28.4773C204.04 28.9167 203.811 29.303 203.489 29.6364C203.167 29.9659 202.769 30.2235 202.295 30.4091C201.822 30.5909 201.29 30.6818 200.699 30.6818ZM207.693 25.25V30.5H206.352V21.7727H207.648V23.1364H207.761C207.966 22.6932 208.277 22.3371 208.693 22.0682C209.11 21.7955 209.648 21.6591 210.307 21.6591C210.898 21.6591 211.415 21.7803 211.858 22.0227C212.301 22.2614 212.646 22.625 212.892 23.1136C213.138 23.5985 213.261 24.2121 213.261 24.9545V30.5H211.92V25.0455C211.92 24.3598 211.742 23.8258 211.386 23.4432C211.03 23.0568 210.542 22.8636 209.92 22.8636C209.492 22.8636 209.11 22.9564 208.773 23.142C208.439 23.3277 208.176 23.5985 207.983 23.9545C207.79 24.3106 207.693 24.7424 207.693 25.25ZM219.507 21.7727V22.9091H214.984V21.7727H219.507ZM216.303 19.6818H217.643V28C217.643 28.3788 217.698 28.6629 217.808 28.8523C217.922 29.0379 218.066 29.1629 218.24 29.2273C218.418 29.2879 218.606 29.3182 218.803 29.3182C218.95 29.3182 219.071 29.3106 219.166 29.2955C219.261 29.2765 219.337 29.2614 219.393 29.25L219.666 30.4545C219.575 30.4886 219.448 30.5227 219.286 30.5568C219.123 30.5947 218.916 30.6136 218.666 30.6136C218.287 30.6136 217.916 30.5322 217.553 30.3693C217.193 30.2064 216.893 29.9583 216.655 29.625C216.42 29.2917 216.303 28.8712 216.303 28.3636V19.6818Z" fill="white"/>
</g>
<g clip-path="url(#clip2_13278_51485)">
<path d="M91.3244 42.5022C89.6666 40.7933 87.543 39.6093 85.2177 39.0978C83.5105 38.6687 81.7599 38.4361 79.9999 38.4045V33.6933C79.9721 32.8948 79.6292 32.1398 79.0462 31.5934C78.4631 31.0471 77.6875 30.7538 76.8888 30.7778C76.0902 30.7538 75.3145 31.0471 74.7315 31.5934C74.1485 32.1398 73.8056 32.8948 73.7777 33.6933V42.5822L72.3555 41.1778C71.729 40.5632 70.8864 40.219 70.0088 40.219C69.1312 40.219 68.2887 40.5632 67.6622 41.1778C67.3483 41.481 67.0984 41.8442 66.9274 42.2458C66.7564 42.6473 66.6677 43.0791 66.6666 43.5156C66.6503 44.3618 66.9699 45.18 67.5555 45.7911L71.6977 50.6978C71.8976 51.9515 72.3286 53.1571 72.9688 54.2533C73.4366 55.0963 74.0369 55.8587 74.7466 56.5111V58.2178C74.7438 58.4612 74.8344 58.6963 74.9998 58.8749C75.1651 59.0535 75.3926 59.1619 75.6355 59.1778H87.9999C88.2428 59.1619 88.4703 59.0535 88.6357 58.8749C88.801 58.6963 88.8916 58.4612 88.8888 58.2178V55.8178C90.6355 53.738 91.5813 51.1025 91.5555 48.3867V43.0533C91.5444 42.8485 91.4627 42.6538 91.3244 42.5022ZM89.7777 48.4311C89.8345 50.7944 89.0108 53.0945 87.4666 54.8845C87.2704 55.0443 87.1431 55.2734 87.1111 55.5245V57.4445H76.5688V56.1289C76.5691 55.9833 76.5335 55.8399 76.4653 55.7112C76.3971 55.5826 76.2984 55.4727 76.1777 55.3911C75.5116 54.845 74.9615 54.171 74.5599 53.4089C73.9937 52.4501 73.6307 51.3851 73.4933 50.28C73.4837 50.0877 73.412 49.9036 73.2888 49.7556L68.9155 44.5822C68.7731 44.4417 68.66 44.2742 68.5828 44.0896C68.5056 43.9049 68.4658 43.7068 68.4658 43.5067C68.4658 43.3066 68.5056 43.1084 68.5828 42.9238C68.66 42.7392 68.7731 42.5717 68.9155 42.4311C69.2082 42.1429 69.6025 41.9813 70.0133 41.9813C70.4241 41.9813 70.8184 42.1429 71.1111 42.4311L73.7777 45.0978V47.8889L75.5555 47V33.6933C75.5871 33.3679 75.7438 33.0675 75.9925 32.8553C76.2412 32.6431 76.5625 32.5356 76.8888 32.5556C77.2152 32.5356 77.5365 32.6431 77.7852 32.8553C78.0339 33.0675 78.1905 33.3679 78.2222 33.6933V44.1822L79.9999 44.5645V40.1911C80.7459 40.2058 81.4906 40.2592 82.2311 40.3511V45L83.6533 45.3111V40.5556C84.0177 40.6267 84.3911 40.7067 84.7733 40.8045C85.2341 40.925 85.6881 41.0704 86.1333 41.24V45.8178L87.5555 46.1289V41.8889C88.3635 42.2968 89.1113 42.8142 89.7777 43.4267V48.4311Z" fill="black"/>
</g>
<defs>
<filter id="filter0_i_13278_51485" x="8.5" y="43.5" width="101" height="40" filterUnits="userSpaceOnUse" color-interpolation-filters="sRGB">
<feFlood flood-opacity="0" result="BackgroundImageFix"/>
<feBlend mode="normal" in="SourceGraphic" in2="BackgroundImageFix" result="shape"/>
<feColorMatrix in="SourceAlpha" type="matrix" values="0 0 0 0 0 0 0 0 0 0 0 0 0 0 0 0 0 0 127 0" result="hardAlpha"/>
<feOffset dy="-1"/>
<feComposite in2="hardAlpha" operator="arithmetic" k2="-1" k3="1"/>
<feColorMatrix type="matrix" values="0 0 0 0 0.933333 0 0 0 0 0.933333 0 0 0 0 0.933333 0 0 0 1 0"/>
<feBlend mode="normal" in2="shape" result="effect1_innerShadow_13278_51485"/>
</filter>
<filter id="filter1_i_13278_51485" x="96.5" y="43.5" width="85" height="40" filterUnits="userSpaceOnUse" color-interpolation-filters="sRGB">
<feFlood flood-opacity="0" result="BackgroundImageFix"/>
<feBlend mode="normal" in="SourceGraphic" in2="BackgroundImageFix" result="shape"/>
<feColorMatrix in="SourceAlpha" type="matrix" values="0 0 0 0 0 0 0 0 0 0 0 0 0 0 0 0 0 0 127 0" result="hardAlpha"/>
<feOffset dy="-1"/>
<feComposite in2="hardAlpha" operator="arithmetic" k2="-1" k3="1"/>
<feColorMatrix type="matrix" values="0 0 0 0 0.933333 0 0 0 0 0.933333 0 0 0 0 0.933333 0 0 0 1 0"/>
<feBlend mode="normal" in2="shape" result="effect1_innerShadow_13278_51485"/>
</filter>
<filter id="filter2_i_13278_51485" x="181.5" y="43.5" width="110" height="40" filterUnits="userSpaceOnUse" color-interpolation-filters="sRGB">
<feFlood flood-opacity="0" result="BackgroundImageFix"/>
<feBlend mode="normal" in="SourceGraphic" in2="BackgroundImageFix" result="shape"/>
<feColorMatrix in="SourceAlpha" type="matrix" values="0 0 0 0 0 0 0 0 0 0 0 0 0 0 0 0 0 0 127 0" result="hardAlpha"/>
<feOffset dy="-1"/>
<feComposite in2="hardAlpha" operator="arithmetic" k2="-1" k3="1"/>
<feColorMatrix type="matrix" values="0 0 0 0 0.933333 0 0 0 0 0.933333 0 0 0 0 0.933333 0 0 0 1 0"/>
<feBlend mode="normal" in2="shape" result="effect1_innerShadow_13278_51485"/>
</filter>
<filter id="filter3_dd_13278_51485" x="82.5" y="2.5" width="157" height="47" filterUnits="userSpaceOnUse" color-interpolation-filters="sRGB">
<feFlood flood-opacity="0" result="BackgroundImageFix"/>
<feColorMatrix in="SourceAlpha" type="matrix" values="0 0 0 0 0 0 0 0 0 0 0 0 0 0 0 0 0 0 127 0" result="hardAlpha"/>
<feOffset dy="2"/>
<feGaussianBlur stdDeviation="1.5"/>
<feColorMatrix type="matrix" values="0 0 0 0 0.2 0 0 0 0 0.2 0 0 0 0 0.2 0 0 0 0.15 0"/>
<feBlend mode="normal" in2="BackgroundImageFix" result="effect1_dropShadow_13278_51485"/>
<feColorMatrix in="SourceAlpha" type="matrix" values="0 0 0 0 0 0 0 0 0 0 0 0 0 0 0 0 0 0 127 0" result="hardAlpha"/>
<feOffset dy="1"/>
<feGaussianBlur stdDeviation="1.5"/>
<feColorMatrix type="matrix" values="0 0 0 0 0.2 0 0 0 0 0.2 0 0 0 0 0.2 0 0 0 0.1 0"/>
<feBlend mode="normal" in2="effect1_dropShadow_13278_51485" result="effect2_dropShadow_13278_51485"/>
<feBlend mode="normal" in="SourceGraphic" in2="effect2_dropShadow_13278_51485" result="shape"/>
</filter>
<clipPath id="clip0_13278_51485">
<rect width="283" height="75" fill="white" transform="translate(8.5 8.5)"/>
</clipPath>
<clipPath id="clip1_13278_51485">
<rect width="16" height="16" fill="white" transform="translate(68.5 17.5)"/>
</clipPath>
<clipPath id="clip2_13278_51485">
<rect width="32" height="32" fill="white" transform="translate(64 29)"/>
</clipPath>
</defs>
</svg>
