<svg width="300" height="92" fill="none" xmlns="http://www.w3.org/2000/svg"><rect x=".5" y=".5" width="299" height="91" rx="8" fill="#fff"/><g clip-path="url(#a)"><mask id="c" fill="#fff"><path d="M8.5 8.5h88v35h-88v-35Z"/></mask><path d="M8.5 8.5h88v35h-88v-35Z" fill="#F6F6F6"/><path d="M27.04 23.12a1.36 1.36 0 0 0-.59-1.02 2.25 2.25 0 0 0-1.33-.36c-.39 0-.72.06-1 .17-.27.12-.48.28-.62.48a1.15 1.15 0 0 0-.08 1.23c.1.16.23.29.4.4.17.1.36.2.56.27.2.07.42.13.62.18l.96.24c.38.09.75.2 1.1.36.37.15.69.35.97.58a2.53 2.53 0 0 1 .92 2 2.76 2.76 0 0 1-1.78 2.63 5.2 5.2 0 0 1-2.08.37 5.3 5.3 0 0 1-2.06-.36 3.07 3.07 0 0 1-1.37-1.08 3.18 3.18 0 0 1-.52-1.72h1.81c.03.36.14.65.33.89.2.23.44.4.75.52s.66.18 1.04.18c.4 0 .76-.06 1.06-.18.3-.12.54-.3.71-.5.18-.23.26-.48.27-.77a.97.97 0 0 0-.24-.66 1.71 1.71 0 0 0-.64-.44 6.18 6.18 0 0 0-.95-.32l-1.16-.3a4.66 4.66 0 0 1-1.99-.97 2.26 2.26 0 0 1-.73-1.76c0-.6.17-1.12.5-1.57.32-.45.77-.8 1.33-1.05a4.5 4.5 0 0 1 1.91-.38c.73 0 1.36.12 1.9.38.55.25.98.6 1.29 1.04.31.44.47.94.48 1.52h-1.77Zm6.8 7.53a3.35 3.35 0 0 1-3.22-1.89 4.64 4.64 0 0 1-.43-2.05c0-.77.15-1.46.45-2.05.3-.6.72-1.06 1.26-1.4a3.7 3.7 0 0 1 1.94-.5c.62 0 1.17.12 1.64.35a2.81 2.81 0 0 1 1.64 2.4H35.4a1.64 1.64 0 0 0-.5-.92c-.26-.25-.6-.37-1.04-.37-.37 0-.69.1-.97.3-.28.19-.5.47-.65.84-.15.37-.23.8-.23 1.32s.08.97.23 1.34c.15.38.37.66.64.86.28.2.6.3.98.3.27 0 .5-.05.71-.15.22-.1.4-.25.54-.44.14-.2.24-.43.29-.7h1.72a2.83 2.83 0 0 1-1.6 2.41 3.8 3.8 0 0 1-1.67.35Zm8.09 0a3.7 3.7 0 0 1-1.94-.5 3.34 3.34 0 0 1-1.27-1.37 4.53 4.53 0 0 1-.45-2.07c0-.79.15-1.48.45-2.07.3-.6.72-1.06 1.27-1.38a3.7 3.7 0 0 1 1.94-.5c.74 0 1.39.17 1.94.5.54.32.97.79 1.26 1.38.3.6.46 1.28.46 2.07 0 .79-.15 1.48-.46 2.07-.3.59-.72 1.05-1.26 1.38a3.7 3.7 0 0 1-1.94.49Zm0-1.44c.41 0 .75-.11 1.02-.34a2 2 0 0 0 .6-.9 3.85 3.85 0 0 0 .01-2.53 2 2 0 0 0-.6-.91 1.54 1.54 0 0 0-1.02-.34c-.42 0-.76.11-1.04.34-.27.22-.47.53-.6.9-.14.39-.2.8-.2 1.28 0 .46.06.88.2 1.26.13.38.33.68.6.9.28.23.62.34 1.04.34Zm5.18 1.29v-7.64h1.75v1.28h.08a1.9 1.9 0 0 1 1.88-1.39 4.13 4.13 0 0 1 .65.05v1.66a3.34 3.34 0 0 0-.84-.1c-.32 0-.62.07-.88.2a1.56 1.56 0 0 0-.84 1.45v4.49h-1.8Zm8.62.15a3.9 3.9 0 0 1-1.98-.48 3.23 3.23 0 0 1-1.28-1.36 4.56 4.56 0 0 1-.45-2.08c0-.79.15-1.48.45-2.07a3.38 3.38 0 0 1 3.17-1.9c.47 0 .91.08 1.33.23a3.19 3.19 0 0 1 1.88 1.9c.18.49.28 1.06.28 1.73v.55h-6.26v-1.2h4.53a2 2 0 0 0-.22-.93 1.63 1.63 0 0 0-.61-.64 1.72 1.72 0 0 0-.9-.23c-.38 0-.7.09-.98.26-.28.18-.5.41-.65.7a2 2 0 0 0-.23.94v1.06c0 .44.08.82.24 1.14.16.32.39.56.68.73.3.16.63.25 1.03.25.26 0 .5-.04.7-.11.22-.08.4-.19.56-.34.15-.14.27-.32.35-.54l1.68.2c-.1.44-.3.82-.6 1.16-.3.32-.68.58-1.14.76-.46.18-.99.27-1.58.27Z" fill="#1F1F1F"/><g clip-path="url(#b)" fill="#545454"><path d="M76.17 27.79a.62.62 0 0 1-.62-.62v-2c0-.35.28-.62.62-.62.34 0 .62.28.62.62v2c0 .35-.28.62-.62.62Zm0-4a.6.6 0 0 1-.24-.05.57.57 0 0 1-.21-.13.86.86 0 0 1-.13-.2.69.69 0 0 1-.05-.24.64.64 0 0 1 .39-.58.66.66 0 0 1 .48 0c.07.03.14.08.2.14.06.05.1.12.13.2a.5.5 0 0 1 .05.24c0 .16-.06.32-.18.44a.67.67 0 0 1-.44.18Z"/><path d="M76.17 32.46a7.3 7.3 0 1 1 .02-14.6 7.3 7.3 0 0 1-.02 14.6Zm0-13.34a6.05 6.05 0 1 0 0 12.09 6.05 6.05 0 0 0 0-12.09Z"/></g><path d="M96.5 42.5h-88v2h88v-2Z" fill="#F6F6F6" mask="url(#c)"/><mask id="d" fill="#fff"><path d="M96.5 8.5h85v35h-85v-35Z"/></mask><path d="M96.5 8.5h85v35h-85v-35Z" fill="#F6F6F6"/><path d="M115.04 23.12a1.36 1.36 0 0 0-.59-1.02 2.25 2.25 0 0 0-1.33-.36c-.39 0-.72.06-1 .17-.27.12-.48.28-.62.48a1.15 1.15 0 0 0-.08 1.23c.1.16.23.29.4.4.17.1.36.2.56.27.2.07.42.13.62.18l.96.24c.38.09.75.2 1.1.36.36.15.69.35.97.58a2.52 2.52 0 0 1 .92 2 2.76 2.76 0 0 1-1.78 2.63 5.2 5.2 0 0 1-2.08.37 5.3 5.3 0 0 1-2.06-.36 3.07 3.07 0 0 1-1.37-1.08 3.2 3.2 0 0 1-.52-1.72h1.81a1.55 1.55 0 0 0 1.08 1.41c.31.12.66.18 1.04.18.4 0 .76-.06 1.06-.18.3-.12.54-.3.71-.5.18-.23.26-.48.27-.77a.97.97 0 0 0-.24-.66 1.72 1.72 0 0 0-.64-.44 6.2 6.2 0 0 0-.95-.32l-1.16-.3a4.66 4.66 0 0 1-1.99-.97 2.26 2.26 0 0 1-.72-1.76c0-.6.16-1.12.48-1.57.33-.45.78-.8 1.34-1.05a4.5 4.5 0 0 1 1.91-.38c.73 0 1.36.12 1.9.38.55.25.98.6 1.29 1.04.31.44.47.94.48 1.52h-1.77Zm8.34 4.17v-4.43h1.8v7.64h-1.74v-1.36h-.08a2.3 2.3 0 0 1-.85 1.05c-.4.27-.88.4-1.45.4-.5 0-.94-.1-1.33-.32a2.3 2.3 0 0 1-.89-.98 3.45 3.45 0 0 1-.32-1.56v-4.87h1.8v4.59c0 .48.13.87.4 1.15.26.29.6.43 1.04.43a1.67 1.67 0 0 0 1.38-.77c.16-.26.24-.58.24-.97Zm3.65 3.21v-7.64h1.75v1.28h.08a1.9 1.9 0 0 1 1.88-1.39 4.14 4.14 0 0 1 .65.05v1.66a3.34 3.34 0 0 0-.84-.1c-.32 0-.62.07-.88.2a1.57 1.57 0 0 0-.84 1.45v4.49h-1.8Zm7.35-4.47v4.47h-1.8v-7.64h1.72v1.3h.1c.17-.43.45-.77.84-1.02.38-.25.86-.38 1.43-.38.53 0 .99.12 1.38.34.4.23.7.55.91.98.22.43.33.95.33 1.56v4.86h-1.8v-4.58c0-.51-.14-.91-.4-1.2a1.4 1.4 0 0 0-1.09-.43c-.31 0-.6.07-.84.2a1.5 1.5 0 0 0-.57.6 2 2 0 0 0-.2.94Zm8.93 4.62c-.48 0-.92-.08-1.3-.25a2.14 2.14 0 0 1-.92-.78 2.27 2.27 0 0 1-.33-1.26c0-.43.08-.79.24-1.07.16-.28.37-.5.65-.68.27-.17.58-.3.93-.38.35-.09.7-.15 1.08-.2l1.09-.12c.27-.04.48-.1.6-.18.13-.08.2-.2.2-.38v-.03c0-.37-.12-.66-.34-.87-.22-.2-.54-.3-.96-.3-.44 0-.79.09-1.05.28-.25.2-.42.42-.51.68l-1.68-.24a2.68 2.68 0 0 1 1.77-1.87 4.76 4.76 0 0 1 2.56-.1c.37.08.7.22 1 .42.3.2.54.46.73.8.18.34.28.76.28 1.27v5.11h-1.73v-1.05h-.06a2.21 2.21 0 0 1-1.2 1.04c-.3.1-.65.16-1.05.16Zm.47-1.32c.36 0 .68-.07.94-.21a1.55 1.55 0 0 0 .83-1.36v-.9a.86.86 0 0 1-.29.13 14.09 14.09 0 0 1-1.36.24c-.27.04-.5.1-.72.18-.21.09-.38.2-.5.35a.85.85 0 0 0-.19.57c0 .33.12.58.37.75.24.17.55.25.92.25Zm5.38 1.17v-7.64h1.72v1.3h.09c.15-.44.42-.78.78-1.02a2.3 2.3 0 0 1 1.32-.38c.52 0 .96.13 1.31.38a2 2 0 0 1 .76 1.02h.08c.16-.42.45-.76.85-1.01.4-.26.88-.39 1.44-.39.7 0 1.27.23 1.72.67.44.44.66 1.1.66 1.94v5.13h-1.8v-4.85c0-.47-.13-.82-.38-1.04a1.35 1.35 0 0 0-.92-.33c-.44 0-.78.14-1.02.4a1.5 1.5 0 0 0-.37 1.06v4.76h-1.76v-4.92c0-.4-.12-.71-.36-.95a1.25 1.25 0 0 0-.92-.35c-.26 0-.5.07-.7.2-.22.13-.39.31-.52.55-.12.24-.18.51-.18.83v4.64h-1.8Zm15.94.15a3.9 3.9 0 0 1-1.98-.48 3.23 3.23 0 0 1-1.28-1.36 4.57 4.57 0 0 1-.45-2.08c0-.79.15-1.48.45-2.07a3.38 3.38 0 0 1 3.17-1.9c.47 0 .91.08 1.33.23a3.19 3.19 0 0 1 1.88 1.9c.18.49.28 1.06.28 1.73v.55h-6.26v-1.2h4.53a2 2 0 0 0-.22-.93 1.63 1.63 0 0 0-1.52-.87c-.37 0-.69.09-.97.26-.28.18-.5.41-.65.7-.15.29-.23.6-.23.94v1.06c0 .44.08.82.24 1.14.16.32.39.56.68.73.3.16.63.25 1.03.25.26 0 .5-.04.7-.11.22-.08.4-.19.56-.34.15-.14.27-.32.35-.54l1.68.2c-.1.44-.3.82-.6 1.16-.3.32-.68.58-1.14.76-.46.18-.99.27-1.58.27Z" fill="#1F1F1F"/><path d="M181.5 42.5h-85v2h85v-2Z" fill="#F6F6F6" mask="url(#d)"/><mask id="e" fill="#fff"><path d="M181.5 8.5h110v35h-110v-35Z"/></mask><path d="M181.5 8.5h110v35h-110v-35Z" fill="#F6F6F6"/><path d="M200.04 23.12a1.36 1.36 0 0 0-.59-1.02 2.25 2.25 0 0 0-1.33-.36c-.39 0-.72.06-1 .17-.27.12-.48.28-.62.48a1.15 1.15 0 0 0-.08 1.23c.1.16.23.29.4.4.17.1.36.2.56.27.2.07.41.13.62.18l.96.24c.38.09.75.2 1.1.36.37.15.69.35.97.58a2.52 2.52 0 0 1 .93 2 2.76 2.76 0 0 1-1.79 2.63 5.2 5.2 0 0 1-2.08.37 5.3 5.3 0 0 1-2.06-.36 3.07 3.07 0 0 1-1.37-1.08 3.2 3.2 0 0 1-.52-1.72h1.81a1.55 1.55 0 0 0 1.08 1.41c.31.12.66.18 1.04.18.4 0 .76-.06 1.06-.18.3-.12.54-.3.71-.5.18-.23.26-.48.27-.77a.97.97 0 0 0-.24-.66 1.72 1.72 0 0 0-.64-.44 6.2 6.2 0 0 0-.95-.32l-1.16-.3a4.66 4.66 0 0 1-1.99-.97 2.26 2.26 0 0 1-.72-1.76c0-.6.16-1.12.48-1.57.33-.45.78-.8 1.34-1.05a4.5 4.5 0 0 1 1.91-.38c.73 0 1.36.12 1.9.38.55.25.98.6 1.29 1.04.31.44.47.94.48 1.52h-1.77Zm8.34 4.17v-4.43h1.8v7.64h-1.74v-1.36h-.08a2.3 2.3 0 0 1-.85 1.05c-.4.27-.88.4-1.45.4-.5 0-.94-.1-1.32-.32a2.3 2.3 0 0 1-.9-.98 3.45 3.45 0 0 1-.32-1.56v-4.87h1.8v4.59c0 .48.13.87.4 1.15.26.29.6.43 1.04.43a1.67 1.67 0 0 0 1.38-.77c.16-.26.24-.58.24-.97Zm3.73 3.21V20.32h1.8v3.8h.08c.1-.18.22-.38.4-.59.16-.2.39-.39.68-.54a2.91 2.91 0 0 1 3.83 1.55c.28.59.42 1.3.42 2.15 0 .84-.13 1.55-.41 2.14a2.89 2.89 0 0 1-2.73 1.8c-.44 0-.8-.07-1.1-.21a2.2 2.2 0 0 1-.69-.53 3.3 3.3 0 0 1-.4-.6h-.1v1.21h-1.78Zm1.77-3.82c0 .5.07.93.2 1.3.15.37.35.66.62.87.27.2.6.3.97.3.4 0 .73-.1 1-.31.27-.22.47-.5.6-.88.15-.38.22-.8.22-1.28 0-.47-.07-.9-.2-1.26a1.9 1.9 0 0 0-.61-.87c-.27-.2-.6-.3-1-.3s-.72.1-.99.3c-.26.2-.47.48-.6.84-.14.37-.21.8-.21 1.3Zm6.97-3.82h1.8v8.08c0 .55-.1 1-.31 1.36-.21.36-.51.62-.9.8a3.52 3.52 0 0 1-1.63.26h-.18v-1.47a2.07 2.07 0 0 0 .26 0c.34 0 .59-.08.74-.25.15-.16.22-.4.22-.73v-8.05Zm.9-1.08c-.3 0-.54-.1-.74-.28a.92.92 0 0 1-.3-.7c0-.27.1-.5.3-.69.2-.19.45-.28.74-.28.28 0 .53.1.73.28.2.2.3.42.3.7 0 .26-.1.5-.3.69-.2.19-.45.28-.73.28Zm6.13 8.87c-.76 0-1.42-.16-1.98-.48a3.23 3.23 0 0 1-1.28-1.36 4.57 4.57 0 0 1-.44-2.08c0-.79.14-1.48.44-2.07a3.39 3.39 0 0 1 3.17-1.9c.47 0 .91.08 1.33.23a3 3 0 0 1 1.12.7c.32.31.57.71.76 1.2.19.49.28 1.06.28 1.73v.55h-6.26v-1.2h4.53c0-.35-.07-.66-.22-.93a1.62 1.62 0 0 0-.61-.64 1.72 1.72 0 0 0-.9-.23c-.37 0-.7.09-.98.26-.27.18-.5.41-.65.7a2 2 0 0 0-.23.94v1.06c0 .44.08.82.24 1.14.17.32.4.56.68.73.3.16.64.25 1.03.25.26 0 .5-.04.7-.11.22-.08.4-.19.56-.34.16-.14.28-.32.35-.54l1.69.2a2.7 2.7 0 0 1-1.75 1.92c-.46.18-.98.27-1.58.27Zm8.25 0a3.35 3.35 0 0 1-3.22-1.89c-.3-.6-.44-1.28-.44-2.05 0-.77.15-1.46.45-2.05.3-.6.72-1.06 1.26-1.4a3.7 3.7 0 0 1 1.94-.5c.62 0 1.17.12 1.65.35a2.81 2.81 0 0 1 1.63 2.4h-1.72a1.65 1.65 0 0 0-.5-.92 1.4 1.4 0 0 0-1.03-.37c-.37 0-.7.1-.97.3-.28.19-.5.47-.65.84-.16.37-.23.8-.23 1.32s.07.97.23 1.34c.15.38.36.66.64.86.28.2.6.3.98.3.26 0 .5-.05.7-.15.22-.1.4-.25.54-.44.14-.2.24-.43.3-.7h1.71a2.83 2.83 0 0 1-1.6 2.41c-.47.23-1.03.35-1.67.35Zm8.56-7.79v1.4h-4.38v-1.4h4.38Zm-3.3-1.83h1.8v7.17c0 .25.03.43.1.56a.6.6 0 0 0 .3.26c.13.04.26.07.41.07a1.75 1.75 0 0 0 .53-.07l.3 1.4a4.05 4.05 0 0 1-1.06.18c-.45.02-.85-.05-1.21-.2a1.9 1.9 0 0 1-.86-.7 2.1 2.1 0 0 1-.31-1.2v-7.47Z" fill="#1F1F1F"/><path d="M291.5 42.5h-110v2h110v-2Z" fill="#F6F6F6" mask="url(#e)"/><path fill="#fff" d="M8.5 43.5h283v40H8.5z"/><g filter="url(#f)"><path fill="#fff" d="M8.5 43.5h88v40h-88z"/><path d="M24.93 68.14c-.41 0-.83-.09-1.25-.24a3 3 0 0 1-1.14-.77 3.96 3.96 0 0 1-.83-1.48 10.2 10.2 0 0 1-.06-4.74c.17-.7.41-1.29.73-1.76a3.13 3.13 0 0 1 2.71-1.47 3.02 3.02 0 0 1 2.62 1.29c.28.4.46.87.55 1.4h-1.22a2.25 2.25 0 0 0-.65-1.14c-.33-.3-.76-.46-1.3-.46-.79 0-1.4.35-1.86 1.03a5.26 5.26 0 0 0-.68 2.89h.08a3 3 0 0 1 2.5-1.35c.59 0 1.12.14 1.6.44a3.4 3.4 0 0 1 1.61 2.94c0 .63-.15 1.2-.43 1.73a3.22 3.22 0 0 1-2.98 1.69Zm0-1.1c.42 0 .8-.1 1.13-.3a2.37 2.37 0 0 0 1.08-2.01 2.35 2.35 0 0 0-1.05-1.99c-.33-.2-.7-.3-1.12-.3-.31 0-.6.05-.88.18a2.27 2.27 0 0 0-1.19 1.25 2.36 2.36 0 0 0 .9 2.85 2 2 0 0 0 1.13.33Zm8.94-9.22V68h-1.23v-8.89h-.06l-2.49 1.65v-1.25l2.55-1.7h1.23Z" fill="#333"/></g><g filter="url(#g)"><path fill="#fff" d="M96.5 43.5h85v40h-85z"/><path d="M109.73 68V57.82h3.56c.71 0 1.3.12 1.76.37.46.24.8.56 1.03.98a2.79 2.79 0 0 1 .1 2.44c-.15.28-.35.5-.6.67-.25.17-.52.3-.82.37v.1a2 2 0 0 1 .94.33c.32.2.58.48.8.85.2.37.31.83.31 1.37 0 .5-.11.96-.35 1.37-.23.41-.6.73-1.1.97-.5.24-1.15.36-1.95.36h-3.68Zm1.24-1.1h2.44c.8 0 1.38-.15 1.72-.46.34-.32.5-.7.5-1.14 0-.35-.08-.67-.25-.96a1.9 1.9 0 0 0-.75-.7 2.37 2.37 0 0 0-1.16-.27h-2.5v3.54Zm0-4.6h2.28c.37 0 .7-.08 1-.23a1.63 1.63 0 0 0 .98-1.55 1.5 1.5 0 0 0-.46-1.14c-.3-.31-.8-.47-1.48-.47h-2.32v3.38Zm7.7 5.7v-7.64h1.14v1.16h.08c.14-.38.4-.69.76-.92.36-.24.77-.36 1.23-.36a13.07 13.07 0 0 1 .62.02v1.2a3.46 3.46 0 0 0-.72-.08c-.37 0-.7.08-1 .23a1.71 1.71 0 0 0-.93 1.56V68h-1.17Zm8.09.16c-.7 0-1.3-.16-1.82-.5a3.34 3.34 0 0 1-1.21-1.37 4.66 4.66 0 0 1-.43-2.07c0-.8.14-1.49.43-2.08.3-.6.7-1.06 1.21-1.38.52-.33 1.13-.5 1.82-.5a3.3 3.3 0 0 1 3.02 1.87c.3.6.44 1.3.44 2.1a4.6 4.6 0 0 1-.44 2.06 3.3 3.3 0 0 1-1.21 1.38 3.3 3.3 0 0 1-1.81.49Zm0-1.05c.52 0 .95-.14 1.3-.4.33-.28.58-.63.74-1.07a4.25 4.25 0 0 0 0-2.85 2.4 2.4 0 0 0-.75-1.06 2 2 0 0 0-1.3-.41 2 2 0 0 0-1.28.4 2.4 2.4 0 0 0-.75 1.07c-.17.45-.25.92-.25 1.43 0 .51.08.99.25 1.42.16.44.4.8.75 1.06.33.27.76.4 1.29.4Zm6.72.89-2.33-7.64h1.24l1.65 5.85h.08l1.63-5.85H137l1.61 5.83h.08l1.65-5.83h1.23L139.25 68h-1.16l-1.67-5.87h-.12L134.63 68h-1.15Zm10.82-4.6V68h-1.18v-7.64h1.14v1.2h.1c.18-.4.45-.7.81-.94.37-.24.84-.36 1.42-.36.51 0 .96.11 1.35.32.39.21.7.53.9.96.22.42.33.96.33 1.6V68H148v-4.77c0-.6-.16-1.07-.47-1.4a1.65 1.65 0 0 0-1.28-.51c-.38 0-.71.08-1 .24-.3.16-.53.4-.7.71-.17.31-.25.7-.25 1.14Z" fill="#333"/></g><g filter="url(#h)"><path fill="#fff" d="M181.5 43.5h110v40h-110z"/><path d="M194.73 68V57.82h6.15v1.1h-4.91v3.43h4.59v1.1h-4.6v3.46h5V68h-6.23Zm9.38-4.6V68h-1.17v-7.64h1.13v1.2h.1c.18-.4.46-.7.82-.94a2.5 2.5 0 0 1 1.41-.36c.52 0 .97.11 1.36.32.39.21.69.53.9.96.22.42.33.96.33 1.6V68h-1.18v-4.77c0-.6-.15-1.07-.46-1.4a1.67 1.67 0 0 0-1.29-.51c-.37 0-.7.08-1 .24-.3.16-.52.4-.7.71-.16.31-.25.7-.25 1.14Zm10.1 7.62c-.56 0-1.05-.07-1.46-.22a3.11 3.11 0 0 1-1.66-1.3l.94-.66c.1.13.24.3.4.47a2 2 0 0 0 .66.47c.29.14.66.2 1.12.2.62 0 1.13-.14 1.53-.44.4-.3.6-.76.6-1.4v-1.55h-.1c-.09.14-.2.31-.37.52-.15.2-.38.38-.67.54-.3.15-.69.23-1.19.23a3.07 3.07 0 0 1-2.82-1.71 4.45 4.45 0 0 1-.42-2.03c0-.78.14-1.46.41-2.04a3.03 3.03 0 0 1 2.85-1.83c.5 0 .9.08 1.19.24.3.17.52.35.67.56.16.2.29.37.37.5h.12v-1.2h1.13v7.85c0 .66-.14 1.19-.44 1.6-.3.41-.7.72-1.2.9-.5.2-1.05.3-1.66.3Zm-.04-4.2c.47 0 .87-.1 1.2-.32a2 2 0 0 0 .74-.93c.17-.4.25-.88.25-1.45 0-.55-.08-1.03-.25-1.45a2.19 2.19 0 0 0-.73-1 1.98 1.98 0 0 0-1.2-.35 2 2 0 0 0-1.25.38 2.3 2.3 0 0 0-.74 1.01c-.16.42-.24.9-.24 1.41 0 .53.08 1 .24 1.4.17.41.42.73.75.96.33.23.74.35 1.23.35Zm6.67-9V68h-1.18V57.82h1.18ZM222.97 68v-7.64h1.18V68h-1.18Zm.6-8.9a.83.83 0 0 1-.6-.24.75.75 0 0 1-.23-.56c0-.22.08-.41.24-.57a.83.83 0 0 1 .6-.23c.22 0 .41.08.58.23.16.16.25.35.25.57 0 .21-.09.4-.25.56a.82.82 0 0 1-.59.23Zm8.13 2.97-1.05.3a1.95 1.95 0 0 0-.3-.51 1.5 1.5 0 0 0-.5-.42c-.23-.1-.5-.16-.85-.16a2 2 0 0 0-1.17.32c-.3.21-.46.48-.46.81 0 .3.1.52.32.7.21.16.54.3 1 .42l1.13.27c.68.17 1.19.42 1.52.76.34.34.5.78.5 1.31 0 .44-.12.83-.37 1.18-.25.34-.6.61-1.05.81-.44.2-.97.3-1.56.3-.78 0-1.42-.17-1.93-.5a2.25 2.25 0 0 1-.97-1.49l1.11-.28c.1.41.3.72.6.93.3.2.7.3 1.17.3.55 0 .98-.11 1.3-.34.33-.24.5-.52.5-.85 0-.26-.1-.49-.29-.66a1.78 1.78 0 0 0-.85-.41l-1.27-.3a3.04 3.04 0 0 1-1.55-.77 1.87 1.87 0 0 1-.48-1.32c0-.43.12-.81.36-1.14.25-.33.58-.6 1-.78.42-.2.9-.29 1.44-.29.76 0 1.35.17 1.78.5.44.33.74.77.93 1.31Zm3.08 1.34V68h-1.17V57.82h1.17v3.74h.1c.18-.4.45-.71.8-.94a2.6 2.6 0 0 1 1.45-.36c.52 0 .98.1 1.37.32.39.2.7.52.9.95.23.42.34.96.34 1.62V68h-1.18v-4.77a2 2 0 0 0-.47-1.41 1.7 1.7 0 0 0-1.3-.5c-.38 0-.73.08-1.03.24-.3.16-.54.4-.72.71a2.3 2.3 0 0 0-.26 1.14Z" fill="#333"/></g></g><g filter="url(#i)"><path d="m85.5 24.4 5-4.9v10l-5-5.1Z" fill="#333"/><rect x="90.5" y="4.5" width="146" height="40" rx="4" fill="#333"/><path d="M107.27 20.11v-1.25H116v1.25h-3.66V30.5h-1.4V20.11h-3.67Zm13 10.57a3.8 3.8 0 0 1-2.07-.56c-.6-.38-1.05-.9-1.39-1.57a5.33 5.33 0 0 1-.5-2.37c0-.9.17-1.7.5-2.38.34-.68.8-1.2 1.39-1.58a3.8 3.8 0 0 1 2.07-.56c.8 0 1.48.19 2.07.56.6.38 1.06.9 1.39 1.58.33.68.5 1.47.5 2.38 0 .9-.17 1.7-.5 2.37a3.8 3.8 0 0 1-1.39 1.57c-.59.37-1.28.56-2.07.56Zm0-1.2c.6 0 1.1-.16 1.48-.46.39-.31.67-.71.86-1.21a4.77 4.77 0 0 0 0-3.26c-.19-.5-.47-.91-.86-1.22a2.28 2.28 0 0 0-1.48-.47c-.6 0-1.09.16-1.47.47-.4.31-.68.72-.86 1.22a4.77 4.77 0 0 0 0 3.26c.18.5.47.9.86 1.2.38.31.87.47 1.47.47Zm9.55 1.2a3.8 3.8 0 0 1-2.07-.56c-.6-.38-1.06-.9-1.4-1.57a5.33 5.33 0 0 1-.48-2.37c0-.9.16-1.7.49-2.38.33-.68.8-1.2 1.39-1.58a3.8 3.8 0 0 1 2.07-.56 3.67 3.67 0 0 1 3.45 2.14c.34.68.5 1.47.5 2.38 0 .9-.16 1.7-.5 2.37-.33.67-.79 1.2-1.38 1.57-.6.37-1.28.56-2.07.56Zm0-1.2c.6 0 1.1-.16 1.48-.46.38-.31.67-.71.85-1.21.19-.5.28-1.04.28-1.63 0-.58-.09-1.13-.28-1.63-.18-.5-.47-.91-.85-1.22a2.28 2.28 0 0 0-1.48-.47c-.6 0-1.1.16-1.48.47-.38.31-.67.72-.86 1.22a4.7 4.7 0 0 0-.27 1.63c0 .59.09 1.13.27 1.63.19.5.48.9.86 1.2.39.31.88.47 1.48.47Zm7.34-10.62V30.5h-1.34V18.86h1.34Zm6.25 2.91v1.14h-4.52v-1.14h4.52Zm-3.2-2.09h1.34V28c0 .38.05.66.16.85.12.19.26.31.44.38.17.06.36.09.56.09.15 0 .27 0 .36-.02l.23-.05.27 1.2a2.67 2.67 0 0 1-1 .16 2.7 2.7 0 0 1-1.11-.24 2.21 2.21 0 0 1-.9-.75 2.14 2.14 0 0 1-.35-1.26v-8.68Zm5.22 10.82v-8.73h1.34v8.73h-1.34Zm.68-10.18a.95.95 0 0 1-.67-.27.86.86 0 0 1-.28-.64c0-.25.09-.46.28-.64a.95.95 0 0 1 .67-.27c.26 0 .49.09.67.27a.85.85 0 0 1 0 1.28.93.93 0 0 1-.67.27Zm3.12 13.45v-12h1.3v1.39h.15l.41-.58c.18-.24.43-.45.76-.64.34-.19.79-.28 1.36-.28a3.47 3.47 0 0 1 3.25 2.11c.31.68.47 1.47.47 2.39 0 .92-.16 1.72-.47 2.4a3.41 3.41 0 0 1-3.23 2.12c-.56 0-1.01-.1-1.35-.28a2.5 2.5 0 0 1-.78-.64 8.36 8.36 0 0 1-.42-.6h-.11v4.61h-1.34Zm1.31-7.63c0 .66.1 1.24.3 1.74.19.5.47.9.84 1.18.37.28.83.42 1.36.42a2.2 2.2 0 0 0 1.4-.45c.39-.3.67-.7.86-1.2.2-.5.3-1.07.3-1.7 0-.6-.1-1.16-.3-1.65-.18-.5-.46-.9-.84-1.18a2.2 2.2 0 0 0-1.42-.44 2.24 2.24 0 0 0-2.21 1.57 4.7 4.7 0 0 0-.29 1.7Zm16.48 4.54c-.81 0-1.52-.2-2.11-.58a3.78 3.78 0 0 1-1.37-1.6 5.41 5.41 0 0 1-.47-2.32c0-.88.16-1.67.49-2.34a3.7 3.7 0 0 1 3.44-2.18c.61 0 1.17.11 1.66.34a3.08 3.08 0 0 1 1.8 2.39h-1.35a2.04 2.04 0 0 0-2.1-1.52c-.51 0-.97.13-1.36.4-.4.27-.7.65-.92 1.14a4.23 4.23 0 0 0-.32 1.73c0 .67.1 1.26.32 1.76.21.5.52.89.9 1.16.4.28.86.42 1.4.42.34 0 .66-.06.94-.18a1.96 1.96 0 0 0 1.14-1.35h1.34a3.11 3.11 0 0 1-1.73 2.37 3.8 3.8 0 0 1-1.7.36Zm8.94 0a3.8 3.8 0 0 1-2.07-.56c-.6-.38-1.06-.9-1.39-1.57a5.32 5.32 0 0 1-.5-2.37c0-.9.17-1.7.5-2.38.33-.68.8-1.2 1.39-1.58a3.8 3.8 0 0 1 2.07-.56 3.67 3.67 0 0 1 3.45 2.14c.34.68.5 1.47.5 2.38 0 .9-.16 1.7-.5 2.37a3.7 3.7 0 0 1-3.45 2.13Zm0-1.2c.6 0 1.1-.16 1.48-.46.38-.31.67-.71.85-1.21.2-.5.28-1.04.28-1.63 0-.58-.09-1.13-.28-1.63-.18-.5-.47-.91-.85-1.22a2.29 2.29 0 0 0-1.48-.47c-.6 0-1.1.16-1.48.47-.38.31-.67.72-.85 1.22-.2.5-.28 1.05-.28 1.63 0 .59.09 1.13.28 1.63.18.5.47.9.85 1.2.39.31.88.47 1.48.47Zm7.34-4.23v5.25h-1.34v-8.73h1.3v1.37h.11c.2-.45.52-.8.93-1.07.42-.27.96-.41 1.62-.41.59 0 1.1.12 1.55.36.44.24.78.6 1.03 1.1.25.48.37 1.1.37 1.83v5.55h-1.34v-5.45c0-.69-.18-1.22-.53-1.6a1.9 1.9 0 0 0-1.47-.59c-.43 0-.81.1-1.15.28a2 2 0 0 0-.79.81c-.2.36-.29.8-.29 1.3Zm11.82-3.48v1.14h-4.53v-1.14h4.53Zm-3.2-2.09h1.33V28c0 .38.06.66.17.85.11.19.26.31.43.38.18.06.37.09.56.09.15 0 .27 0 .37-.02l.22-.05.28 1.2a2.73 2.73 0 0 1-1 .16 2.7 2.7 0 0 1-1.12-.24 2.21 2.21 0 0 1-.9-.75 2.14 2.14 0 0 1-.35-1.26v-8.68Zm8.78 11a3.74 3.74 0 0 1-3.58-2.13 5.36 5.36 0 0 1-.49-2.35c0-.89.16-1.68.49-2.36.33-.68.79-1.22 1.37-1.6a3.7 3.7 0 0 1 2.07-.58c.46 0 .9.07 1.35.23a3.33 3.33 0 0 1 2.08 2.08c.22.55.32 1.24.32 2.05v.57h-6.72v-1.16h5.36c0-.5-.1-.93-.3-1.32a2.22 2.22 0 0 0-2.09-1.25c-.53 0-1 .14-1.38.4-.39.26-.69.6-.9 1.02a3 3 0 0 0-.3 1.36v.77c0 .66.1 1.22.33 1.68.23.45.55.8.96 1.04.41.23.89.35 1.43.35.35 0 .67-.05.95-.15.3-.1.54-.25.75-.45.2-.2.37-.46.48-.77l1.3.37a2.9 2.9 0 0 1-.7 1.16c-.31.33-.71.58-1.19.77-.47.18-1 .27-1.6.27Zm7-5.43v5.25h-1.35v-8.73h1.3v1.37h.11c.2-.45.52-.8.93-1.07.42-.27.96-.41 1.62-.41.59 0 1.1.12 1.55.36.44.24.79.6 1.03 1.1.25.48.37 1.1.37 1.83v5.55h-1.34v-5.45c0-.69-.18-1.22-.53-1.6a1.9 1.9 0 0 0-1.47-.59c-.43 0-.81.1-1.15.28-.33.19-.6.46-.79.81-.19.36-.29.8-.29 1.3Zm11.8-3.48v1.14h-4.52v-1.14h4.53Zm-3.2-2.09h1.34V28c0 .38.06.66.17.85.11.19.26.31.43.38.18.06.37.09.56.09.15 0 .27 0 .37-.02l.22-.05.28 1.2a2.75 2.75 0 0 1-1 .16 2.7 2.7 0 0 1-1.12-.24 2.2 2.2 0 0 1-.9-.75 2.14 2.14 0 0 1-.35-1.26v-8.68Z" fill="#fff"/></g><g clip-path="url(#j)"><path d="M91.32 42.5a12.14 12.14 0 0 0-6.1-3.4 23.1 23.1 0 0 0-5.22-.7v-4.7a3.02 3.02 0 0 0-3.11-2.92 3.02 3.02 0 0 0-3.11 2.91v8.9l-1.42-1.41a3.35 3.35 0 0 0-5.7 2.34c-.01.84.31 1.66.9 2.27l4.14 4.9a10.25 10.25 0 0 0 3.05 5.82v1.7a.95.95 0 0 0 .89.97H88a.95.95 0 0 0 .89-.96v-2.4a11.39 11.39 0 0 0 2.67-7.43v-5.34a.89.89 0 0 0-.24-.55Zm-1.54 5.93a9.53 9.53 0 0 1-2.31 6.45.99.99 0 0 0-.36.64v1.92H76.57v-1.31a.89.89 0 0 0-.4-.74 6.45 6.45 0 0 1-1.61-1.98 8.12 8.12 0 0 1-1.07-3.13.89.89 0 0 0-.2-.52l-4.37-5.18a1.51 1.51 0 0 1 0-2.15 1.56 1.56 0 0 1 2.2 0l2.66 2.67v2.79l1.78-.89V33.7a1.26 1.26 0 0 1 1.33-1.14 1.26 1.26 0 0 1 1.33 1.13v10.5l1.78.37V40.2c.75.02 1.5.07 2.23.16V45l1.42.31v-4.75l1.12.24c.46.13.92.27 1.36.44v4.58l1.43.3V41.9c.8.4 1.55.92 2.22 1.54v5Z" fill="#000"/></g><defs><filter id="f" x="8.5" y="43.5" width="101" height="40" filterUnits="userSpaceOnUse" color-interpolation-filters="sRGB"><feFlood flood-opacity="0" result="BackgroundImageFix"/><feBlend in="SourceGraphic" in2="BackgroundImageFix" result="shape"/><feColorMatrix in="SourceAlpha" values="0 0 0 0 0 0 0 0 0 0 0 0 0 0 0 0 0 0 127 0" result="hardAlpha"/><feOffset dy="-1"/><feComposite in2="hardAlpha" operator="arithmetic" k2="-1" k3="1"/><feColorMatrix values="0 0 0 0 0.933333 0 0 0 0 0.933333 0 0 0 0 0.933333 0 0 0 1 0"/><feBlend in2="shape" result="effect1_innerShadow_13278_51485"/></filter><filter id="g" x="96.5" y="43.5" width="85" height="40" filterUnits="userSpaceOnUse" color-interpolation-filters="sRGB"><feFlood flood-opacity="0" result="BackgroundImageFix"/><feBlend in="SourceGraphic" in2="BackgroundImageFix" result="shape"/><feColorMatrix in="SourceAlpha" values="0 0 0 0 0 0 0 0 0 0 0 0 0 0 0 0 0 0 127 0" result="hardAlpha"/><feOffset dy="-1"/><feComposite in2="hardAlpha" operator="arithmetic" k2="-1" k3="1"/><feColorMatrix values="0 0 0 0 0.933333 0 0 0 0 0.933333 0 0 0 0 0.933333 0 0 0 1 0"/><feBlend in2="shape" result="effect1_innerShadow_13278_51485"/></filter><filter id="h" x="181.5" y="43.5" width="110" height="40" filterUnits="userSpaceOnUse" color-interpolation-filters="sRGB"><feFlood flood-opacity="0" result="BackgroundImageFix"/><feBlend in="SourceGraphic" in2="BackgroundImageFix" result="shape"/><feColorMatrix in="SourceAlpha" values="0 0 0 0 0 0 0 0 0 0 0 0 0 0 0 0 0 0 127 0" result="hardAlpha"/><feOffset dy="-1"/><feComposite in2="hardAlpha" operator="arithmetic" k2="-1" k3="1"/><feColorMatrix values="0 0 0 0 0.933333 0 0 0 0 0.933333 0 0 0 0 0.933333 0 0 0 1 0"/><feBlend in2="shape" result="effect1_innerShadow_13278_51485"/></filter><filter id="i" x="82.5" y="2.5" width="157" height="47" filterUnits="userSpaceOnUse" color-interpolation-filters="sRGB"><feFlood flood-opacity="0" result="BackgroundImageFix"/><feColorMatrix in="SourceAlpha" values="0 0 0 0 0 0 0 0 0 0 0 0 0 0 0 0 0 0 127 0" result="hardAlpha"/><feOffset dy="2"/><feGaussianBlur stdDeviation="1.5"/><feColorMatrix values="0 0 0 0 0.2 0 0 0 0 0.2 0 0 0 0 0.2 0 0 0 0.15 0"/><feBlend in2="BackgroundImageFix" result="effect1_dropShadow_13278_51485"/><feColorMatrix in="SourceAlpha" values="0 0 0 0 0 0 0 0 0 0 0 0 0 0 0 0 0 0 127 0" result="hardAlpha"/><feOffset dy="1"/><feGaussianBlur stdDeviation="1.5"/><feColorMatrix values="0 0 0 0 0.2 0 0 0 0 0.2 0 0 0 0 0.2 0 0 0 0.1 0"/><feBlend in2="effect1_dropShadow_13278_51485" result="effect2_dropShadow_13278_51485"/><feBlend in="SourceGraphic" in2="effect2_dropShadow_13278_51485" result="shape"/></filter><clipPath id="a"><path fill="#fff" transform="translate(8.5 8.5)" d="M0 0h283v75H0z"/></clipPath><clipPath id="b"><path fill="#fff" transform="translate(68.5 17.5)" d="M0 0h16v16H0z"/></clipPath><clipPath id="j"><path fill="#fff" transform="translate(64 29)" d="M0 0h32v32H0z"/></clipPath></defs></svg>