<svg width="264" height="128" viewBox="0 0 264 128" fill="none" xmlns="http://www.w3.org/2000/svg">
<g clip-path="url(#clip0_13011_6500)">
<rect width="395" height="44" fill="white"/>
<line y1="43.5" x2="395" y2="43.5" stroke="#EBEBEB"/>
<path d="M18.642 28H16.392L20.4886 16.3636H23.0909L27.1932 28H24.9432L21.8352 18.75H21.7443L18.642 28ZM18.7159 23.4375H24.8523V25.1307H18.7159V23.4375ZM32.1761 28.1705C31.3049 28.1705 30.5568 27.9792 29.9318 27.5966C29.3106 27.214 28.8314 26.6856 28.4943 26.0114C28.161 25.3333 27.9943 24.553 27.9943 23.6705C27.9943 22.7841 28.1648 22.0019 28.5057 21.3239C28.8466 20.642 29.3277 20.1117 29.9489 19.733C30.5739 19.3504 31.3125 19.1591 32.1648 19.1591C32.8731 19.1591 33.5 19.2898 34.0455 19.5511C34.5947 19.8087 35.0322 20.1742 35.358 20.6477C35.6837 21.1174 35.8693 21.6667 35.9148 22.2955H33.9489C33.8693 21.875 33.6799 21.5246 33.3807 21.2443C33.0852 20.9602 32.6894 20.8182 32.1932 20.8182C31.7727 20.8182 31.4034 20.9318 31.0852 21.1591C30.767 21.3826 30.5189 21.7045 30.3409 22.125C30.1667 22.5455 30.0795 23.0492 30.0795 23.6364C30.0795 24.2311 30.1667 24.7424 30.3409 25.1705C30.5152 25.5947 30.7595 25.9223 31.0739 26.1534C31.392 26.3807 31.7652 26.4943 32.1932 26.4943C32.4962 26.4943 32.767 26.4375 33.0057 26.3239C33.2481 26.2064 33.4508 26.0379 33.6136 25.8182C33.7765 25.5985 33.8883 25.3314 33.9489 25.017H35.9148C35.8655 25.6345 35.6837 26.1818 35.3693 26.6591C35.0549 27.1326 34.6269 27.5038 34.0852 27.7727C33.5436 28.0379 32.9072 28.1705 32.1761 28.1705ZM41.9616 19.2727V20.8636H36.9446V19.2727H41.9616ZM38.1832 17.1818H40.2401V25.375C40.2401 25.6515 40.2817 25.8636 40.3651 26.0114C40.4522 26.1553 40.5658 26.2538 40.706 26.3068C40.8461 26.3598 41.0014 26.3864 41.1719 26.3864C41.3007 26.3864 41.4181 26.3769 41.5241 26.358C41.634 26.339 41.7173 26.322 41.7741 26.3068L42.1207 27.9148C42.0109 27.9527 41.8537 27.9943 41.6491 28.0398C41.4484 28.0852 41.2022 28.1117 40.9105 28.1193C40.3954 28.1345 39.9313 28.0568 39.5185 27.8864C39.1056 27.7121 38.7779 27.4432 38.5355 27.0795C38.2969 26.7159 38.1795 26.2614 38.1832 25.7159V17.1818ZM43.6818 28V19.2727H45.7386V28H43.6818ZM44.7159 18.0341C44.3902 18.0341 44.1098 17.9261 43.875 17.7102C43.6402 17.4905 43.5227 17.2273 43.5227 16.9205C43.5227 16.6098 43.6402 16.3466 43.875 16.1307C44.1098 15.911 44.3902 15.8011 44.7159 15.8011C45.0455 15.8011 45.3258 15.911 45.5568 16.1307C45.7917 16.3466 45.9091 16.6098 45.9091 16.9205C45.9091 17.2273 45.7917 17.4905 45.5568 17.7102C45.3258 17.9261 45.0455 18.0341 44.7159 18.0341ZM55.6491 19.2727L52.5412 28H50.2685L47.1605 19.2727H49.3537L51.3594 25.7557H51.4503L53.4616 19.2727H55.6491ZM60.6392 28.1705C59.7642 28.1705 59.0085 27.9886 58.3722 27.625C57.7396 27.2576 57.2528 26.7386 56.9119 26.0682C56.571 25.3939 56.4006 24.6004 56.4006 23.6875C56.4006 22.7898 56.571 22.0019 56.9119 21.3239C57.2566 20.642 57.7377 20.1117 58.3551 19.733C58.9725 19.3504 59.6979 19.1591 60.5312 19.1591C61.0691 19.1591 61.5767 19.2462 62.054 19.4205C62.535 19.5909 62.9593 19.8561 63.3267 20.2159C63.6979 20.5758 63.9896 21.0341 64.2017 21.5909C64.4138 22.1439 64.5199 22.803 64.5199 23.5682V24.1989H57.3665V22.8125H62.5483C62.5445 22.4186 62.4593 22.0682 62.2926 21.7614C62.1259 21.4508 61.893 21.2064 61.5938 21.0284C61.2983 20.8504 60.9536 20.7614 60.5597 20.7614C60.1392 20.7614 59.7699 20.8636 59.4517 21.0682C59.1335 21.2689 58.8854 21.5341 58.7074 21.8636C58.5331 22.1894 58.4441 22.5473 58.4403 22.9375V24.1477C58.4403 24.6553 58.5331 25.0909 58.7188 25.4545C58.9044 25.8144 59.1638 26.0909 59.4972 26.2841C59.8305 26.4735 60.2206 26.5682 60.6676 26.5682C60.9669 26.5682 61.2377 26.5265 61.4801 26.4432C61.7225 26.3561 61.9328 26.2292 62.1108 26.0625C62.2888 25.8958 62.4233 25.6894 62.5142 25.4432L64.4347 25.6591C64.3134 26.1667 64.0824 26.6098 63.7415 26.9886C63.4044 27.3636 62.9725 27.6553 62.446 27.8636C61.9195 28.0682 61.3172 28.1705 60.6392 28.1705ZM70.2287 28V19.2727H72.1946V20.7557H72.2969C72.4787 20.2557 72.7798 19.8655 73.2003 19.5852C73.6207 19.3011 74.1226 19.1591 74.706 19.1591C75.2969 19.1591 75.795 19.303 76.2003 19.5909C76.6094 19.875 76.8973 20.2633 77.0639 20.7557H77.1548C77.348 20.2708 77.6738 19.8845 78.1321 19.5966C78.5942 19.3049 79.1416 19.1591 79.7741 19.1591C80.5772 19.1591 81.2325 19.4129 81.7401 19.9205C82.2476 20.428 82.5014 21.1686 82.5014 22.142V28H80.4389V22.4602C80.4389 21.9186 80.295 21.5227 80.0071 21.2727C79.7192 21.0189 79.367 20.892 78.9503 20.892C78.4541 20.892 78.0658 21.0473 77.7855 21.358C77.509 21.6648 77.3707 22.0644 77.3707 22.5568V28H75.3537V22.375C75.3537 21.9242 75.2173 21.5644 74.9446 21.2955C74.6757 21.0265 74.3234 20.892 73.8878 20.892C73.5923 20.892 73.3234 20.9678 73.081 21.1193C72.8385 21.267 72.6454 21.4773 72.5014 21.75C72.3575 22.0189 72.2855 22.3333 72.2855 22.6932V28H70.2287ZM88.3949 28.1705C87.5426 28.1705 86.804 27.983 86.179 27.608C85.554 27.233 85.0691 26.7083 84.7244 26.0341C84.3835 25.3598 84.2131 24.572 84.2131 23.6705C84.2131 22.7689 84.3835 21.9792 84.7244 21.3011C85.0691 20.6231 85.554 20.0966 86.179 19.7216C86.804 19.3466 87.5426 19.1591 88.3949 19.1591C89.2472 19.1591 89.9858 19.3466 90.6108 19.7216C91.2358 20.0966 91.7188 20.6231 92.0597 21.3011C92.4044 21.9792 92.5767 22.7689 92.5767 23.6705C92.5767 24.572 92.4044 25.3598 92.0597 26.0341C91.7188 26.7083 91.2358 27.233 90.6108 27.608C89.9858 27.983 89.2472 28.1705 88.3949 28.1705ZM88.4062 26.5227C88.8684 26.5227 89.2547 26.3958 89.5653 26.142C89.8759 25.8845 90.107 25.5398 90.2585 25.108C90.4138 24.6761 90.4915 24.1951 90.4915 23.6648C90.4915 23.1307 90.4138 22.6477 90.2585 22.2159C90.107 21.7803 89.8759 21.4337 89.5653 21.1761C89.2547 20.9186 88.8684 20.7898 88.4062 20.7898C87.9328 20.7898 87.5388 20.9186 87.2244 21.1761C86.9138 21.4337 86.6809 21.7803 86.5256 22.2159C86.3741 22.6477 86.2983 23.1307 86.2983 23.6648C86.2983 24.1951 86.3741 24.6761 86.5256 25.108C86.6809 25.5398 86.9138 25.8845 87.2244 26.142C87.5388 26.3958 87.9328 26.5227 88.4062 26.5227ZM98.1293 28.1705C97.258 28.1705 96.5099 27.9792 95.8849 27.5966C95.2637 27.214 94.7846 26.6856 94.4474 26.0114C94.1141 25.3333 93.9474 24.553 93.9474 23.6705C93.9474 22.7841 94.1179 22.0019 94.4588 21.3239C94.7997 20.642 95.2808 20.1117 95.902 19.733C96.527 19.3504 97.2656 19.1591 98.1179 19.1591C98.8262 19.1591 99.4531 19.2898 99.9986 19.5511C100.548 19.8087 100.985 20.1742 101.311 20.6477C101.637 21.1174 101.822 21.6667 101.868 22.2955H99.902C99.8224 21.875 99.633 21.5246 99.3338 21.2443C99.0384 20.9602 98.6425 20.8182 98.1463 20.8182C97.7259 20.8182 97.3565 20.9318 97.0384 21.1591C96.7202 21.3826 96.4721 21.7045 96.294 22.125C96.1198 22.5455 96.0327 23.0492 96.0327 23.6364C96.0327 24.2311 96.1198 24.7424 96.294 25.1705C96.4683 25.5947 96.7126 25.9223 97.027 26.1534C97.3452 26.3807 97.7183 26.4943 98.1463 26.4943C98.4493 26.4943 98.7202 26.4375 98.9588 26.3239C99.2012 26.2064 99.4039 26.0379 99.5668 25.8182C99.7296 25.5985 99.8414 25.3314 99.902 25.017H101.868C101.819 25.6345 101.637 26.1818 101.322 26.6591C101.008 27.1326 100.58 27.5038 100.038 27.7727C99.4967 28.0379 98.8603 28.1705 98.1293 28.1705ZM105.432 25.2614L105.426 22.7784H105.756L108.892 19.2727H111.295L107.438 23.5682H107.011L105.432 25.2614ZM103.557 28V16.3636H105.614V28H103.557ZM109.034 28L106.193 24.0284L107.58 22.5795L111.494 28H109.034ZM123.533 21.5795L121.658 21.7841C121.605 21.5947 121.512 21.4167 121.379 21.25C121.25 21.0833 121.076 20.9489 120.857 20.8466C120.637 20.7443 120.368 20.6932 120.05 20.6932C119.622 20.6932 119.262 20.786 118.97 20.9716C118.682 21.1572 118.54 21.3977 118.544 21.6932C118.54 21.947 118.633 22.1534 118.822 22.3125C119.016 22.4716 119.334 22.6023 119.777 22.7045L121.266 23.0227C122.091 23.2008 122.705 23.483 123.107 23.8693C123.512 24.2557 123.716 24.7614 123.72 25.3864C123.716 25.9356 123.555 26.4205 123.237 26.8409C122.923 27.2576 122.485 27.5833 121.925 27.8182C121.364 28.053 120.72 28.1705 119.993 28.1705C118.925 28.1705 118.065 27.947 117.413 27.5C116.762 27.0492 116.374 26.4223 116.249 25.6193L118.254 25.4261C118.345 25.8201 118.538 26.1174 118.834 26.3182C119.129 26.5189 119.514 26.6193 119.987 26.6193C120.476 26.6193 120.868 26.5189 121.163 26.3182C121.463 26.1174 121.612 25.8693 121.612 25.5739C121.612 25.3239 121.516 25.1174 121.322 24.9545C121.133 24.7917 120.838 24.6667 120.436 24.5795L118.947 24.267C118.11 24.0928 117.491 23.7992 117.089 23.3864C116.688 22.9697 116.489 22.4432 116.493 21.8068C116.489 21.2689 116.635 20.803 116.93 20.4091C117.23 20.0114 117.644 19.7045 118.175 19.4886C118.709 19.2689 119.324 19.1591 120.021 19.1591C121.044 19.1591 121.849 19.3769 122.436 19.8125C123.027 20.2481 123.393 20.8371 123.533 21.5795ZM129.28 28.1705C128.405 28.1705 127.649 27.9886 127.013 27.625C126.38 27.2576 125.893 26.7386 125.553 26.0682C125.212 25.3939 125.041 24.6004 125.041 23.6875C125.041 22.7898 125.212 22.0019 125.553 21.3239C125.897 20.642 126.378 20.1117 126.996 19.733C127.613 19.3504 128.339 19.1591 129.172 19.1591C129.71 19.1591 130.217 19.2462 130.695 19.4205C131.176 19.5909 131.6 19.8561 131.967 20.2159C132.339 20.5758 132.63 21.0341 132.842 21.5909C133.054 22.1439 133.161 22.803 133.161 23.5682V24.1989H126.007V22.8125H131.189C131.185 22.4186 131.1 22.0682 130.933 21.7614C130.767 21.4508 130.534 21.2064 130.234 21.0284C129.939 20.8504 129.594 20.7614 129.2 20.7614C128.78 20.7614 128.411 20.8636 128.092 21.0682C127.774 21.2689 127.526 21.5341 127.348 21.8636C127.174 22.1894 127.085 22.5473 127.081 22.9375V24.1477C127.081 24.6553 127.174 25.0909 127.359 25.4545C127.545 25.8144 127.804 26.0909 128.138 26.2841C128.471 26.4735 128.861 26.5682 129.308 26.5682C129.607 26.5682 129.878 26.5265 130.121 26.4432C130.363 26.3561 130.573 26.2292 130.751 26.0625C130.929 25.8958 131.064 25.6894 131.155 25.4432L133.075 25.6591C132.954 26.1667 132.723 26.6098 132.382 26.9886C132.045 27.3636 131.613 27.6553 131.087 27.8636C130.56 28.0682 129.958 28.1705 129.28 28.1705ZM141.798 21.5795L139.923 21.7841C139.87 21.5947 139.777 21.4167 139.645 21.25C139.516 21.0833 139.342 20.9489 139.122 20.8466C138.902 20.7443 138.634 20.6932 138.315 20.6932C137.887 20.6932 137.527 20.786 137.236 20.9716C136.948 21.1572 136.806 21.3977 136.81 21.6932C136.806 21.947 136.899 22.1534 137.088 22.3125C137.281 22.4716 137.599 22.6023 138.043 22.7045L139.531 23.0227C140.357 23.2008 140.971 23.483 141.372 23.8693C141.777 24.2557 141.982 24.7614 141.986 25.3864C141.982 25.9356 141.821 26.4205 141.503 26.8409C141.188 27.2576 140.751 27.5833 140.19 27.8182C139.63 28.053 138.986 28.1705 138.259 28.1705C137.19 28.1705 136.33 27.947 135.679 27.5C135.027 27.0492 134.639 26.4223 134.514 25.6193L136.52 25.4261C136.611 25.8201 136.804 26.1174 137.099 26.3182C137.395 26.5189 137.779 26.6193 138.253 26.6193C138.741 26.6193 139.134 26.5189 139.429 26.3182C139.728 26.1174 139.878 25.8693 139.878 25.5739C139.878 25.3239 139.781 25.1174 139.588 24.9545C139.399 24.7917 139.103 24.6667 138.702 24.5795L137.213 24.267C136.376 24.0928 135.757 23.7992 135.355 23.3864C134.954 22.9697 134.755 22.4432 134.759 21.8068C134.755 21.2689 134.901 20.803 135.196 20.4091C135.495 20.0114 135.91 19.7045 136.44 19.4886C136.974 19.2689 137.59 19.1591 138.287 19.1591C139.31 19.1591 140.115 19.3769 140.702 19.8125C141.293 20.2481 141.658 20.8371 141.798 21.5795ZM150.58 21.5795L148.705 21.7841C148.652 21.5947 148.559 21.4167 148.426 21.25C148.297 21.0833 148.123 20.9489 147.903 20.8466C147.684 20.7443 147.415 20.6932 147.097 20.6932C146.669 20.6932 146.309 20.786 146.017 20.9716C145.729 21.1572 145.587 21.3977 145.591 21.6932C145.587 21.947 145.68 22.1534 145.869 22.3125C146.063 22.4716 146.381 22.6023 146.824 22.7045L148.312 23.0227C149.138 23.2008 149.752 23.483 150.153 23.8693C150.559 24.2557 150.763 24.7614 150.767 25.3864C150.763 25.9356 150.602 26.4205 150.284 26.8409C149.97 27.2576 149.532 27.5833 148.972 27.8182C148.411 28.053 147.767 28.1705 147.04 28.1705C145.972 28.1705 145.112 27.947 144.46 27.5C143.809 27.0492 143.42 26.4223 143.295 25.6193L145.301 25.4261C145.392 25.8201 145.585 26.1174 145.881 26.3182C146.176 26.5189 146.561 26.6193 147.034 26.6193C147.523 26.6193 147.915 26.5189 148.21 26.3182C148.509 26.1174 148.659 25.8693 148.659 25.5739C148.659 25.3239 148.563 25.1174 148.369 24.9545C148.18 24.7917 147.884 24.6667 147.483 24.5795L145.994 24.267C145.157 24.0928 144.538 23.7992 144.136 23.3864C143.735 22.9697 143.536 22.4432 143.54 21.8068C143.536 21.2689 143.682 20.803 143.977 20.4091C144.277 20.0114 144.691 19.7045 145.222 19.4886C145.756 19.2689 146.371 19.1591 147.068 19.1591C148.091 19.1591 148.896 19.3769 149.483 19.8125C150.074 20.2481 150.439 20.8371 150.58 21.5795ZM152.463 28V19.2727H154.52V28H152.463ZM153.497 18.0341C153.171 18.0341 152.891 17.9261 152.656 17.7102C152.421 17.4905 152.304 17.2273 152.304 16.9205C152.304 16.6098 152.421 16.3466 152.656 16.1307C152.891 15.911 153.171 15.8011 153.497 15.8011C153.827 15.8011 154.107 15.911 154.338 16.1307C154.573 16.3466 154.69 16.6098 154.69 16.9205C154.69 17.2273 154.573 17.4905 154.338 17.7102C154.107 17.9261 153.827 18.0341 153.497 18.0341ZM160.442 28.1705C159.589 28.1705 158.851 27.983 158.226 27.608C157.601 27.233 157.116 26.7083 156.771 26.0341C156.43 25.3598 156.26 24.572 156.26 23.6705C156.26 22.7689 156.43 21.9792 156.771 21.3011C157.116 20.6231 157.601 20.0966 158.226 19.7216C158.851 19.3466 159.589 19.1591 160.442 19.1591C161.294 19.1591 162.033 19.3466 162.658 19.7216C163.283 20.0966 163.766 20.6231 164.107 21.3011C164.451 21.9792 164.624 22.7689 164.624 23.6705C164.624 24.572 164.451 25.3598 164.107 26.0341C163.766 26.7083 163.283 27.233 162.658 27.608C162.033 27.983 161.294 28.1705 160.442 28.1705ZM160.453 26.5227C160.915 26.5227 161.302 26.3958 161.612 26.142C161.923 25.8845 162.154 25.5398 162.305 25.108C162.461 24.6761 162.538 24.1951 162.538 23.6648C162.538 23.1307 162.461 22.6477 162.305 22.2159C162.154 21.7803 161.923 21.4337 161.612 21.1761C161.302 20.9186 160.915 20.7898 160.453 20.7898C159.98 20.7898 159.586 20.9186 159.271 21.1761C158.961 21.4337 158.728 21.7803 158.572 22.2159C158.421 22.6477 158.345 23.1307 158.345 23.6648C158.345 24.1951 158.421 24.6761 158.572 25.108C158.728 25.5398 158.961 25.8845 159.271 26.142C159.586 26.3958 159.98 26.5227 160.453 26.5227ZM168.426 22.8864V28H166.369V19.2727H168.335V20.7557H168.438C168.638 20.267 168.958 19.8788 169.398 19.5909C169.841 19.303 170.388 19.1591 171.04 19.1591C171.642 19.1591 172.167 19.2879 172.614 19.5455C173.064 19.803 173.413 20.1761 173.659 20.6648C173.909 21.1534 174.032 21.7462 174.028 22.4432V28H171.972V22.7614C171.972 22.178 171.82 21.7216 171.517 21.392C171.218 21.0625 170.803 20.8977 170.273 20.8977C169.913 20.8977 169.593 20.9773 169.312 21.1364C169.036 21.2917 168.818 21.517 168.659 21.8125C168.504 22.108 168.426 22.4659 168.426 22.8864Z" fill="#0F67F5"/>
<line x1="8.74228e-08" y1="43" x2="192" y2="43" stroke="#0F67F5" stroke-width="2"/>
<path d="M209.409 28V16.3636H216.386V17.6136H210.818V21.5455H215.864V22.7955H210.818V28H209.409ZM218.618 28V19.2727H219.959V28H218.618ZM219.3 17.8182C219.038 17.8182 218.813 17.7292 218.624 17.5511C218.438 17.3731 218.345 17.1591 218.345 16.9091C218.345 16.6591 218.438 16.4451 218.624 16.267C218.813 16.089 219.038 16 219.3 16C219.561 16 219.785 16.089 219.97 16.267C220.16 16.4451 220.254 16.6591 220.254 16.9091C220.254 17.1591 220.16 17.3731 219.97 17.5511C219.785 17.7292 219.561 17.8182 219.3 17.8182ZM223.756 22.75V28H222.415V19.2727H223.71V20.6364H223.824C224.028 20.1932 224.339 19.8371 224.756 19.5682C225.172 19.2955 225.71 19.1591 226.369 19.1591C226.96 19.1591 227.477 19.2803 227.92 19.5227C228.364 19.7614 228.708 20.125 228.955 20.6136C229.201 21.0985 229.324 21.7121 229.324 22.4545V28H227.983V22.5455C227.983 21.8598 227.805 21.3258 227.449 20.9432C227.093 20.5568 226.604 20.3636 225.983 20.3636C225.555 20.3636 225.172 20.4564 224.835 20.642C224.502 20.8277 224.239 21.0985 224.045 21.4545C223.852 21.8106 223.756 22.2424 223.756 22.75ZM231.774 28V19.2727H233.115V28H231.774ZM232.456 17.8182C232.195 17.8182 231.969 17.7292 231.78 17.5511C231.594 17.3731 231.501 17.1591 231.501 16.9091C231.501 16.6591 231.594 16.4451 231.78 16.267C231.969 16.089 232.195 16 232.456 16C232.717 16 232.941 16.089 233.126 16.267C233.316 16.4451 233.411 16.6591 233.411 16.9091C233.411 17.1591 233.316 17.3731 233.126 17.5511C232.941 17.7292 232.717 17.8182 232.456 17.8182ZM241.753 21.2273L240.548 21.5682C240.473 21.3674 240.361 21.1723 240.213 20.983C240.069 20.7898 239.872 20.6307 239.622 20.5057C239.372 20.3807 239.052 20.3182 238.662 20.3182C238.128 20.3182 237.683 20.4413 237.327 20.6875C236.974 20.9299 236.798 21.2386 236.798 21.6136C236.798 21.947 236.92 22.2102 237.162 22.4034C237.404 22.5966 237.783 22.7576 238.298 22.8864L239.594 23.2045C240.374 23.3939 240.955 23.6837 241.338 24.0739C241.721 24.4602 241.912 24.9583 241.912 25.5682C241.912 26.0682 241.768 26.5152 241.48 26.9091C241.196 27.303 240.798 27.6136 240.287 27.8409C239.776 28.0682 239.181 28.1818 238.503 28.1818C237.613 28.1818 236.876 27.9886 236.293 27.6023C235.709 27.2159 235.34 26.6515 235.185 25.9091L236.457 25.5909C236.579 26.0606 236.808 26.4129 237.145 26.6477C237.486 26.8826 237.931 27 238.48 27C239.105 27 239.601 26.8674 239.969 26.6023C240.34 26.3333 240.526 26.0114 240.526 25.6364C240.526 25.3333 240.42 25.0795 240.207 24.875C239.995 24.6667 239.67 24.5114 239.23 24.4091L237.776 24.0682C236.976 23.8788 236.389 23.5852 236.014 23.1875C235.643 22.786 235.457 22.2841 235.457 21.6818C235.457 21.1894 235.596 20.7538 235.872 20.375C236.152 19.9962 236.533 19.6989 237.014 19.483C237.499 19.267 238.048 19.1591 238.662 19.1591C239.526 19.1591 240.204 19.3485 240.696 19.7273C241.192 20.1061 241.545 20.6061 241.753 21.2273ZM245.271 22.75V28H243.93V16.3636H245.271V20.6364H245.385C245.589 20.1856 245.896 19.8277 246.305 19.5625C246.718 19.2936 247.268 19.1591 247.953 19.1591C248.548 19.1591 249.069 19.2784 249.516 19.517C249.963 19.7519 250.309 20.1136 250.555 20.6023C250.805 21.0871 250.93 21.7045 250.93 22.4545V28H249.589V22.5455C249.589 21.8523 249.41 21.3163 249.05 20.9375C248.694 20.5549 248.199 20.3636 247.567 20.3636C247.127 20.3636 246.733 20.4564 246.385 20.642C246.04 20.8277 245.768 21.0985 245.567 21.4545C245.37 21.8106 245.271 22.2424 245.271 22.75ZM257.043 28.1818C256.202 28.1818 255.476 27.9962 254.866 27.625C254.26 27.25 253.793 26.7273 253.463 26.0568C253.137 25.3826 252.974 24.5985 252.974 23.7045C252.974 22.8106 253.137 22.0227 253.463 21.3409C253.793 20.6553 254.251 20.1212 254.838 19.7386C255.429 19.3523 256.118 19.1591 256.906 19.1591C257.361 19.1591 257.81 19.2348 258.253 19.3864C258.696 19.5379 259.099 19.7841 259.463 20.125C259.827 20.4621 260.116 20.9091 260.332 21.4659C260.548 22.0227 260.656 22.7083 260.656 23.5227V24.0909H253.929V22.9318H259.293C259.293 22.4394 259.194 22 258.997 21.6136C258.804 21.2273 258.527 20.9223 258.168 20.6989C257.812 20.4754 257.391 20.3636 256.906 20.3636C256.372 20.3636 255.91 20.4962 255.52 20.7614C255.134 21.0227 254.836 21.3636 254.628 21.7841C254.42 22.2045 254.315 22.6553 254.315 23.1364V23.9091C254.315 24.5682 254.429 25.1269 254.656 25.5852C254.887 26.0398 255.207 26.3864 255.616 26.625C256.026 26.8598 256.501 26.9773 257.043 26.9773C257.395 26.9773 257.713 26.928 257.997 26.8295C258.285 26.7273 258.533 26.5758 258.741 26.375C258.95 26.1705 259.111 25.9167 259.224 25.6136L260.52 25.9773C260.384 26.4167 260.154 26.803 259.832 27.1364C259.51 27.4659 259.113 27.7235 258.639 27.9091C258.166 28.0909 257.634 28.1818 257.043 28.1818ZM265.991 28.1818C265.264 28.1818 264.622 27.9981 264.065 27.6307C263.509 27.2595 263.073 26.7367 262.759 26.0625C262.444 25.3845 262.287 24.5833 262.287 23.6591C262.287 22.7424 262.444 21.947 262.759 21.2727C263.073 20.5985 263.51 20.0777 264.071 19.7102C264.632 19.3428 265.279 19.1591 266.014 19.1591C266.582 19.1591 267.031 19.2538 267.361 19.4432C267.694 19.6288 267.948 19.8409 268.122 20.0795C268.3 20.3144 268.438 20.5076 268.537 20.6591H268.651V16.3636H269.991V28H268.696V26.6591H268.537C268.438 26.8182 268.298 27.0189 268.116 27.2614C267.935 27.5 267.675 27.714 267.338 27.9034C267.001 28.089 266.552 28.1818 265.991 28.1818ZM266.173 26.9773C266.711 26.9773 267.166 26.8371 267.537 26.5568C267.908 26.2727 268.19 25.8807 268.384 25.3807C268.577 24.8769 268.673 24.2955 268.673 23.6364C268.673 22.9848 268.579 22.4148 268.389 21.9261C268.2 21.4337 267.92 21.0511 267.548 20.7784C267.177 20.5019 266.719 20.3636 266.173 20.3636C265.605 20.3636 265.132 20.5095 264.753 20.8011C264.378 21.089 264.096 21.4811 263.906 21.9773C263.721 22.4697 263.628 23.0227 263.628 23.6364C263.628 24.2576 263.723 24.822 263.912 25.3295C264.105 25.8333 264.389 26.2348 264.764 26.5341C265.143 26.8295 265.613 26.9773 266.173 26.9773ZM277.134 28V19.2727H278.429V20.6364H278.543C278.724 20.1705 279.018 19.8087 279.423 19.5511C279.829 19.2898 280.315 19.1591 280.884 19.1591C281.459 19.1591 281.938 19.2898 282.321 19.5511C282.707 19.8087 283.009 20.1705 283.224 20.6364H283.315C283.539 20.1856 283.874 19.8277 284.321 19.5625C284.768 19.2936 285.304 19.1591 285.929 19.1591C286.709 19.1591 287.348 19.4034 287.844 19.892C288.34 20.3769 288.588 21.1326 288.588 22.1591V28H287.247V22.1591C287.247 21.5152 287.071 21.0549 286.719 20.7784C286.366 20.5019 285.952 20.3636 285.474 20.3636C284.861 20.3636 284.385 20.5492 284.048 20.9205C283.711 21.2879 283.543 21.7538 283.543 22.3182V28H282.179V22.0227C282.179 21.5265 282.018 21.1269 281.696 20.8239C281.374 20.517 280.959 20.3636 280.452 20.3636C280.103 20.3636 279.777 20.4564 279.474 20.642C279.175 20.8277 278.933 21.0852 278.747 21.4148C278.565 21.7405 278.474 22.1174 278.474 22.5455V28H277.134ZM294.585 28.1818C293.797 28.1818 293.106 27.9943 292.511 27.6193C291.92 27.2443 291.458 26.7197 291.125 26.0455C290.795 25.3712 290.631 24.5833 290.631 23.6818C290.631 22.7727 290.795 21.9792 291.125 21.3011C291.458 20.6231 291.92 20.0966 292.511 19.7216C293.106 19.3466 293.797 19.1591 294.585 19.1591C295.373 19.1591 296.063 19.3466 296.653 19.7216C297.248 20.0966 297.71 20.6231 298.04 21.3011C298.373 21.9792 298.54 22.7727 298.54 23.6818C298.54 24.5833 298.373 25.3712 298.04 26.0455C297.71 26.7197 297.248 27.2443 296.653 27.6193C296.063 27.9943 295.373 28.1818 294.585 28.1818ZM294.585 26.9773C295.184 26.9773 295.676 26.8239 296.062 26.517C296.449 26.2102 296.735 25.8068 296.92 25.3068C297.106 24.8068 297.199 24.2652 297.199 23.6818C297.199 23.0985 297.106 22.5549 296.92 22.0511C296.735 21.5473 296.449 21.1402 296.062 20.8295C295.676 20.5189 295.184 20.3636 294.585 20.3636C293.987 20.3636 293.494 20.5189 293.108 20.8295C292.722 21.1402 292.436 21.5473 292.25 22.0511C292.064 22.5549 291.972 23.0985 291.972 23.6818C291.972 24.2652 292.064 24.8068 292.25 25.3068C292.436 25.8068 292.722 26.2102 293.108 26.517C293.494 26.8239 293.987 26.9773 294.585 26.9773ZM304.132 28.1818C303.314 28.1818 302.609 27.9886 302.018 27.6023C301.428 27.2159 300.973 26.6837 300.655 26.0057C300.337 25.3277 300.178 24.553 300.178 23.6818C300.178 22.7955 300.34 22.0133 300.666 21.3352C300.996 20.6534 301.454 20.1212 302.041 19.7386C302.632 19.3523 303.321 19.1591 304.109 19.1591C304.723 19.1591 305.276 19.2727 305.768 19.5C306.261 19.7273 306.664 20.0455 306.979 20.4545C307.293 20.8636 307.488 21.3409 307.564 21.8864H306.223C306.121 21.4886 305.893 21.1364 305.541 20.8295C305.193 20.5189 304.723 20.3636 304.132 20.3636C303.609 20.3636 303.151 20.5 302.757 20.7727C302.367 21.0417 302.062 21.4223 301.842 21.9148C301.626 22.4034 301.518 22.9773 301.518 23.6364C301.518 24.3106 301.625 24.8977 301.837 25.3977C302.053 25.8977 302.356 26.286 302.746 26.5625C303.14 26.839 303.602 26.9773 304.132 26.9773C304.481 26.9773 304.797 26.9167 305.081 26.7955C305.365 26.6742 305.606 26.5 305.803 26.2727C306 26.0455 306.14 25.7727 306.223 25.4545H307.564C307.488 25.9697 307.301 26.4337 307.001 26.8466C306.706 27.2557 306.314 27.5814 305.825 27.8239C305.34 28.0625 304.776 28.1818 304.132 28.1818ZM310.774 24.8182L310.751 23.1591H311.024L314.842 19.2727H316.501L312.433 23.3864H312.32L310.774 24.8182ZM309.524 28V16.3636H310.865V28H309.524ZM315.07 28L311.661 23.6818L312.615 22.75L316.774 28H315.07ZM328.909 21.2273L327.705 21.5682C327.629 21.3674 327.517 21.1723 327.369 20.983C327.225 20.7898 327.028 20.6307 326.778 20.5057C326.528 20.3807 326.208 20.3182 325.818 20.3182C325.284 20.3182 324.839 20.4413 324.483 20.6875C324.131 20.9299 323.955 21.2386 323.955 21.6136C323.955 21.947 324.076 22.2102 324.318 22.4034C324.561 22.5966 324.939 22.7576 325.455 22.8864L326.75 23.2045C327.53 23.3939 328.112 23.6837 328.494 24.0739C328.877 24.4602 329.068 24.9583 329.068 25.5682C329.068 26.0682 328.924 26.5152 328.636 26.9091C328.352 27.303 327.955 27.6136 327.443 27.8409C326.932 28.0682 326.337 28.1818 325.659 28.1818C324.769 28.1818 324.032 27.9886 323.449 27.6023C322.866 27.2159 322.496 26.6515 322.341 25.9091L323.614 25.5909C323.735 26.0606 323.964 26.4129 324.301 26.6477C324.642 26.8826 325.087 27 325.636 27C326.261 27 326.758 26.8674 327.125 26.6023C327.496 26.3333 327.682 26.0114 327.682 25.6364C327.682 25.3333 327.576 25.0795 327.364 24.875C327.152 24.6667 326.826 24.5114 326.386 24.4091L324.932 24.0682C324.133 23.8788 323.545 23.5852 323.17 23.1875C322.799 22.786 322.614 22.2841 322.614 21.6818C322.614 21.1894 322.752 20.7538 323.028 20.375C323.309 19.9962 323.689 19.6989 324.17 19.483C324.655 19.267 325.205 19.1591 325.818 19.1591C326.682 19.1591 327.36 19.3485 327.852 19.7273C328.348 20.1061 328.701 20.6061 328.909 21.2273ZM334.746 28.1818C333.905 28.1818 333.179 27.9962 332.57 27.625C331.964 27.25 331.496 26.7273 331.166 26.0568C330.84 25.3826 330.678 24.5985 330.678 23.7045C330.678 22.8106 330.84 22.0227 331.166 21.3409C331.496 20.6553 331.954 20.1212 332.541 19.7386C333.132 19.3523 333.821 19.1591 334.609 19.1591C335.064 19.1591 335.513 19.2348 335.956 19.3864C336.399 19.5379 336.803 19.7841 337.166 20.125C337.53 20.4621 337.82 20.9091 338.036 21.4659C338.251 22.0227 338.359 22.7083 338.359 23.5227V24.0909H331.632V22.9318H336.996C336.996 22.4394 336.897 22 336.7 21.6136C336.507 21.2273 336.231 20.9223 335.871 20.6989C335.515 20.4754 335.094 20.3636 334.609 20.3636C334.075 20.3636 333.613 20.4962 333.223 20.7614C332.837 21.0227 332.539 21.3636 332.331 21.7841C332.123 22.2045 332.018 22.6553 332.018 23.1364V23.9091C332.018 24.5682 332.132 25.1269 332.359 25.5852C332.59 26.0398 332.911 26.3864 333.32 26.625C333.729 26.8598 334.204 26.9773 334.746 26.9773C335.098 26.9773 335.416 26.928 335.7 26.8295C335.988 26.7273 336.236 26.5758 336.445 26.375C336.653 26.1705 336.814 25.9167 336.928 25.6136L338.223 25.9773C338.087 26.4167 337.857 26.803 337.536 27.1364C337.214 27.4659 336.816 27.7235 336.342 27.9091C335.869 28.0909 335.337 28.1818 334.746 28.1818ZM346.581 21.2273L345.376 21.5682C345.301 21.3674 345.189 21.1723 345.041 20.983C344.897 20.7898 344.7 20.6307 344.45 20.5057C344.2 20.3807 343.88 20.3182 343.49 20.3182C342.956 20.3182 342.511 20.4413 342.155 20.6875C341.803 20.9299 341.626 21.2386 341.626 21.6136C341.626 21.947 341.748 22.2102 341.99 22.4034C342.232 22.5966 342.611 22.7576 343.126 22.8864L344.422 23.2045C345.202 23.3939 345.784 23.6837 346.166 24.0739C346.549 24.4602 346.74 24.9583 346.74 25.5682C346.74 26.0682 346.596 26.5152 346.308 26.9091C346.024 27.303 345.626 27.6136 345.115 27.8409C344.604 28.0682 344.009 28.1818 343.331 28.1818C342.441 28.1818 341.704 27.9886 341.121 27.6023C340.537 27.2159 340.168 26.6515 340.013 25.9091L341.286 25.5909C341.407 26.0606 341.636 26.4129 341.973 26.6477C342.314 26.8826 342.759 27 343.308 27C343.933 27 344.429 26.8674 344.797 26.6023C345.168 26.3333 345.354 26.0114 345.354 25.6364C345.354 25.3333 345.248 25.0795 345.036 24.875C344.823 24.6667 344.498 24.5114 344.058 24.4091L342.604 24.0682C341.804 23.8788 341.217 23.5852 340.842 23.1875C340.471 22.786 340.286 22.2841 340.286 21.6818C340.286 21.1894 340.424 20.7538 340.7 20.375C340.981 19.9962 341.361 19.6989 341.842 19.483C342.327 19.267 342.876 19.1591 343.49 19.1591C344.354 19.1591 345.032 19.3485 345.524 19.7273C346.02 20.1061 346.373 20.6061 346.581 21.2273ZM354.94 21.2273L353.736 21.5682C353.66 21.3674 353.548 21.1723 353.401 20.983C353.257 20.7898 353.06 20.6307 352.81 20.5057C352.56 20.3807 352.24 20.3182 351.849 20.3182C351.315 20.3182 350.87 20.4413 350.514 20.6875C350.162 20.9299 349.986 21.2386 349.986 21.6136C349.986 21.947 350.107 22.2102 350.349 22.4034C350.592 22.5966 350.971 22.7576 351.486 22.8864L352.781 23.2045C353.562 23.3939 354.143 23.6837 354.526 24.0739C354.908 24.4602 355.099 24.9583 355.099 25.5682C355.099 26.0682 354.955 26.5152 354.668 26.9091C354.384 27.303 353.986 27.6136 353.474 27.8409C352.963 28.0682 352.368 28.1818 351.69 28.1818C350.8 28.1818 350.063 27.9886 349.48 27.6023C348.897 27.2159 348.527 26.6515 348.372 25.9091L349.645 25.5909C349.766 26.0606 349.995 26.4129 350.332 26.6477C350.673 26.8826 351.118 27 351.668 27C352.293 27 352.789 26.8674 353.156 26.6023C353.527 26.3333 353.713 26.0114 353.713 25.6364C353.713 25.3333 353.607 25.0795 353.395 24.875C353.183 24.6667 352.857 24.5114 352.418 24.4091L350.963 24.0682C350.164 23.8788 349.577 23.5852 349.202 23.1875C348.83 22.786 348.645 22.2841 348.645 21.6818C348.645 21.1894 348.783 20.7538 349.06 20.375C349.34 19.9962 349.721 19.6989 350.202 19.483C350.687 19.267 351.236 19.1591 351.849 19.1591C352.713 19.1591 353.391 19.3485 353.884 19.7273C354.38 20.1061 354.732 20.6061 354.94 21.2273ZM357.118 28V19.2727H358.459V28H357.118ZM357.8 17.8182C357.538 17.8182 357.313 17.7292 357.124 17.5511C356.938 17.3731 356.845 17.1591 356.845 16.9091C356.845 16.6591 356.938 16.4451 357.124 16.267C357.313 16.089 357.538 16 357.8 16C358.061 16 358.285 16.089 358.47 16.267C358.66 16.4451 358.754 16.6591 358.754 16.9091C358.754 17.1591 358.66 17.3731 358.47 17.5511C358.285 17.7292 358.061 17.8182 357.8 17.8182ZM364.46 28.1818C363.672 28.1818 362.981 27.9943 362.386 27.6193C361.795 27.2443 361.333 26.7197 361 26.0455C360.67 25.3712 360.506 24.5833 360.506 23.6818C360.506 22.7727 360.67 21.9792 361 21.3011C361.333 20.6231 361.795 20.0966 362.386 19.7216C362.981 19.3466 363.672 19.1591 364.46 19.1591C365.248 19.1591 365.938 19.3466 366.528 19.7216C367.123 20.0966 367.585 20.6231 367.915 21.3011C368.248 21.9792 368.415 22.7727 368.415 23.6818C368.415 24.5833 368.248 25.3712 367.915 26.0455C367.585 26.7197 367.123 27.2443 366.528 27.6193C365.938 27.9943 365.248 28.1818 364.46 28.1818ZM364.46 26.9773C365.059 26.9773 365.551 26.8239 365.938 26.517C366.324 26.2102 366.61 25.8068 366.795 25.3068C366.981 24.8068 367.074 24.2652 367.074 23.6818C367.074 23.0985 366.981 22.5549 366.795 22.0511C366.61 21.5473 366.324 21.1402 365.938 20.8295C365.551 20.5189 365.059 20.3636 364.46 20.3636C363.862 20.3636 363.369 20.5189 362.983 20.8295C362.597 21.1402 362.311 21.5473 362.125 22.0511C361.939 22.5549 361.847 23.0985 361.847 23.6818C361.847 24.2652 361.939 24.8068 362.125 25.3068C362.311 25.8068 362.597 26.2102 362.983 26.517C363.369 26.8239 363.862 26.9773 364.46 26.9773ZM371.803 22.75V28H370.462V19.2727H371.757V20.6364H371.871C372.075 20.1932 372.386 19.8371 372.803 19.5682C373.219 19.2955 373.757 19.1591 374.416 19.1591C375.007 19.1591 375.524 19.2803 375.967 19.5227C376.411 19.7614 376.755 20.125 377.001 20.6136C377.248 21.0985 377.371 21.7121 377.371 22.4545V28H376.03V22.5455C376.03 21.8598 375.852 21.3258 375.496 20.9432C375.14 20.5568 374.651 20.3636 374.03 20.3636C373.602 20.3636 373.219 20.4564 372.882 20.642C372.549 20.8277 372.286 21.0985 372.092 21.4545C371.899 21.8106 371.803 22.2424 371.803 22.75Z" fill="#333333"/>
<rect width="264" height="76" transform="translate(0 52)" fill="white"/>
<rect x="12" y="64" width="99" height="12" fill="#EBEBEB"/>
<rect x="12" y="84" width="240" height="12" fill="#EBEBEB"/>
<rect x="12" y="104" width="240" height="12" fill="#EBEBEB"/>
</g>
<defs>
<clipPath id="clip0_13011_6500">
<rect width="264" height="128" fill="white"/>
</clipPath>
</defs>
</svg>
