<svg width="264" height="128" fill="none" xmlns="http://www.w3.org/2000/svg"><g clip-path="url(#a)"><path fill="#fff" d="M0 0h395v44H0z"/><path stroke="#EBEBEB" d="M0 43.5h395"/><path d="M18.64 28H16.4l4.1-11.64h2.6L27.2 28h-2.25l-3.1-9.25h-.1L18.64 28Zm.08-4.56h6.13v1.7h-6.13v-1.7Zm13.46 4.73a3.83 3.83 0 0 1-3.68-2.16 5.24 5.24 0 0 1-.5-2.34c0-.89.16-1.67.5-2.35.35-.68.83-1.2 1.45-1.59a4.16 4.16 0 0 1 2.21-.57c.71 0 1.34.13 1.89.4a3.21 3.21 0 0 1 1.86 2.74h-1.96a1.88 1.88 0 0 0-.57-1.06c-.3-.28-.7-.42-1.19-.42-.42 0-.79.11-1.1.34-.32.22-.57.54-.75.96a4.1 4.1 0 0 0-.26 1.52c0 .6.09 1.1.26 1.53.18.42.42.75.73.98.32.23.7.34 1.12.34.3 0 .58-.05.82-.17.24-.11.44-.28.6-.5.17-.22.28-.49.34-.8h1.96a3.23 3.23 0 0 1-1.83 2.76 4.3 4.3 0 0 1-1.9.39Zm9.78-8.9v1.6h-5.02v-1.6h5.02Zm-3.78-2.09h2.06v8.2c0 .27.04.48.13.63.08.15.2.24.34.3.14.05.3.08.46.08a2.01 2.01 0 0 0 .6-.08l.35 1.6a4.59 4.59 0 0 1-1.2.2 3.3 3.3 0 0 1-1.4-.22 2.17 2.17 0 0 1-.98-.81 2.4 2.4 0 0 1-.36-1.36v-8.54ZM43.68 28v-8.73h2.06V28h-2.06Zm1.04-9.97c-.33 0-.61-.1-.84-.32a1.04 1.04 0 0 1-.36-.79c0-.31.12-.57.35-.79.24-.22.52-.33.85-.33.33 0 .6.11.84.33a1.06 1.06 0 0 1 0 1.58c-.23.22-.51.32-.84.32Zm10.93 1.24L52.55 28h-2.28l-3.11-8.73h2.2l2 6.49h.09l2.01-6.49h2.19Zm4.99 8.9a4.5 4.5 0 0 1-2.27-.55 3.7 3.7 0 0 1-1.46-1.55 5.21 5.21 0 0 1-.5-2.38c0-.9.16-1.69.5-2.37a3.87 3.87 0 0 1 3.62-2.16c.54 0 1.05.09 1.52.26a3.59 3.59 0 0 1 2.15 2.17c.21.55.32 1.21.32 1.98v.63h-7.15v-1.4h5.18c0-.4-.1-.74-.26-1.05a1.89 1.89 0 0 0-1.73-1 2 2 0 0 0-1.1.3 2.22 2.22 0 0 0-1.02 1.88v1.2c0 .52.1.95.28 1.31.18.36.44.64.78.83.33.2.72.29 1.17.29.3 0 .57-.04.81-.13.24-.08.45-.21.63-.38.18-.16.31-.37.4-.62l1.92.22a3 3 0 0 1-.69 1.33c-.34.37-.77.67-1.3.87-.52.2-1.12.31-1.8.31Zm9.59-.17v-8.73h1.96v1.49h.1c.19-.5.49-.9.91-1.17.42-.29.92-.43 1.5-.43.6 0 1.1.14 1.5.43.4.29.7.67.86 1.17h.1c.19-.49.51-.88.97-1.16.46-.3 1.01-.44 1.64-.44.8 0 1.46.25 1.97.76.5.5.76 1.25.76 2.22V28h-2.06v-5.54c0-.54-.14-.94-.43-1.19a1.54 1.54 0 0 0-1.06-.38c-.5 0-.88.16-1.16.47-.28.3-.42.7-.42 1.2V28h-2.02v-5.63c0-.45-.13-.8-.4-1.07s-.63-.4-1.06-.4c-.3 0-.57.07-.8.22-.25.15-.44.36-.59.63a2 2 0 0 0-.21.94V28h-2.06Zm18.16.17c-.85 0-1.59-.19-2.21-.56a3.82 3.82 0 0 1-1.46-1.58 5.17 5.17 0 0 1-.5-2.36c0-.9.16-1.7.5-2.37.35-.68.83-1.2 1.46-1.58a4.23 4.23 0 0 1 2.21-.56 3.82 3.82 0 0 1 3.67 2.14c.34.68.52 1.47.52 2.37 0 .9-.18 1.69-.52 2.36-.34.68-.82 1.2-1.45 1.58-.62.37-1.36.56-2.22.56Zm.02-1.65c.46 0 .84-.12 1.16-.38.3-.26.54-.6.69-1.03.15-.43.23-.91.23-1.45 0-.53-.08-1.01-.23-1.44a2.3 2.3 0 0 0-.7-1.04c-.3-.26-.7-.39-1.15-.39-.48 0-.87.13-1.19.39-.3.25-.54.6-.7 1.04-.15.43-.22.91-.22 1.44 0 .54.07 1.02.23 1.45.15.43.38.77.7 1.03.3.26.7.38 1.18.38Zm9.72 1.65a3.83 3.83 0 0 1-3.68-2.16 5.24 5.24 0 0 1-.5-2.34c0-.89.17-1.67.5-2.35.35-.68.83-1.2 1.45-1.59a4.16 4.16 0 0 1 2.22-.57c.7 0 1.33.13 1.88.4a3.21 3.21 0 0 1 1.87 2.74H99.9a1.88 1.88 0 0 0-.57-1.06c-.3-.28-.69-.42-1.18-.42-.42 0-.8.11-1.11.34-.32.22-.57.54-.75.96a4.1 4.1 0 0 0-.26 1.52c0 .6.09 1.1.26 1.53.18.42.42.75.74.98.32.23.69.34 1.12.34a1.71 1.71 0 0 0 1.75-1.47h1.97a3.22 3.22 0 0 1-1.83 2.76 4.3 4.3 0 0 1-1.91.39Zm7.3-2.9v-2.5h.33l3.13-3.5h2.4l-3.85 4.3H107l-1.58 1.7ZM103.56 28V16.36h2.05V28h-2.05Zm5.47 0-2.84-3.97 1.39-1.45 3.91 5.42h-2.46Zm14.5-6.42-1.87.2a1.5 1.5 0 0 0-.8-.93 1.9 1.9 0 0 0-.81-.16c-.43 0-.79.1-1.08.28-.29.19-.43.43-.43.72 0 .26.1.46.28.62.2.16.51.3.96.4l1.49.31c.82.18 1.44.46 1.84.85.4.39.6.9.61 1.52 0 .55-.16 1.03-.48 1.45a3.1 3.1 0 0 1-1.31.98c-.57.23-1.21.35-1.94.35a4.48 4.48 0 0 1-2.58-.67 2.7 2.7 0 0 1-1.16-1.88l2-.2c.1.4.29.7.58.9.3.2.68.3 1.16.3.49 0 .88-.1 1.17-.3.3-.2.45-.45.45-.75a.8.8 0 0 0-.29-.62 2.02 2.02 0 0 0-.88-.37l-1.5-.31a3.54 3.54 0 0 1-1.85-.88 2.2 2.2 0 0 1-.6-1.58c0-.54.15-1 .44-1.4.3-.4.71-.7 1.24-.92a4.82 4.82 0 0 1 1.85-.33c1.02 0 1.83.22 2.42.65.59.44.95 1.03 1.1 1.77Zm5.75 6.6a4.5 4.5 0 0 1-2.27-.55 3.69 3.69 0 0 1-1.46-1.56 5.21 5.21 0 0 1-.5-2.38c0-.9.16-1.69.5-2.37a3.86 3.86 0 0 1 3.62-2.16c.54 0 1.05.09 1.53.26s.9.44 1.27.8c.37.36.66.81.87 1.37.21.55.32 1.21.32 1.98v.63h-7.15v-1.4h5.18c0-.4-.09-.74-.26-1.05a1.89 1.89 0 0 0-1.73-1 2 2 0 0 0-1.1.3c-.33.2-.57.47-.75.8a2.3 2.3 0 0 0-.27 1.08v1.2c0 .52.1.95.28 1.31.19.36.44.64.78.83.33.2.72.29 1.17.29.3 0 .57-.04.81-.13.24-.08.45-.21.63-.38.18-.16.31-.37.4-.62l1.92.22a3.03 3.03 0 0 1-1.99 2.2c-.52.2-1.12.31-1.8.31Zm12.52-6.6-1.88.2a1.51 1.51 0 0 0-.27-.53c-.13-.17-.3-.3-.53-.4a1.9 1.9 0 0 0-.8-.16c-.43 0-.8.1-1.08.28-.3.19-.43.43-.43.72 0 .26.09.46.28.62.2.16.5.3.95.4l1.5.31c.82.18 1.43.46 1.83.85.4.39.61.9.62 1.52 0 .55-.17 1.03-.49 1.45a3.1 3.1 0 0 1-1.31.98c-.56.23-1.2.35-1.93.35a4.48 4.48 0 0 1-2.58-.67 2.7 2.7 0 0 1-1.17-1.88l2.01-.2c.1.4.28.7.58.9.3.2.68.3 1.15.3.5 0 .88-.1 1.18-.3.3-.2.45-.45.45-.75 0-.25-.1-.45-.3-.62a2.02 2.02 0 0 0-.88-.37l-1.49-.31a3.54 3.54 0 0 1-1.86-.88 2.2 2.2 0 0 1-.6-1.58c0-.54.15-1 .45-1.4.3-.4.71-.7 1.24-.92a4.83 4.83 0 0 1 1.85-.33c1.02 0 1.83.22 2.41.65.6.44.96 1.03 1.1 1.77Zm8.78 0-1.88.2a1.5 1.5 0 0 0-.8-.93 1.9 1.9 0 0 0-.8-.16c-.43 0-.8.1-1.08.28-.3.19-.43.43-.43.72 0 .26.09.46.28.62.2.16.51.3.95.4l1.5.31c.82.18 1.43.46 1.83.85.4.39.61.9.62 1.52 0 .55-.17 1.03-.49 1.45a3.1 3.1 0 0 1-1.3.98c-.57.23-1.21.35-1.94.35a4.48 4.48 0 0 1-2.58-.67 2.7 2.7 0 0 1-1.17-1.88l2.01-.2c.1.4.28.7.58.9.3.2.68.3 1.15.3.5 0 .88-.1 1.18-.3.3-.2.45-.45.45-.75 0-.25-.1-.45-.3-.62a2.02 2.02 0 0 0-.88-.37l-1.49-.31a3.54 3.54 0 0 1-1.85-.88 2.2 2.2 0 0 1-.6-1.58c0-.54.14-1 .44-1.4.3-.4.71-.7 1.24-.92a4.82 4.82 0 0 1 1.85-.33c1.02 0 1.83.22 2.41.65.6.44.96 1.03 1.1 1.77Zm1.88 6.42v-8.73h2.06V28h-2.06Zm1.04-9.97c-.33 0-.6-.1-.84-.32a1.04 1.04 0 0 1-.36-.79c0-.31.12-.57.36-.79.23-.22.51-.33.84-.33.33 0 .6.11.84.33a1.06 1.06 0 0 1 0 1.58c-.23.22-.51.32-.84.32Zm6.94 10.14c-.85 0-1.59-.19-2.21-.56a3.82 3.82 0 0 1-1.46-1.58 5.17 5.17 0 0 1-.51-2.36c0-.9.17-1.7.51-2.37.35-.68.83-1.2 1.46-1.58a4.22 4.22 0 0 1 2.21-.56c.85 0 1.6.19 2.22.56.62.38 1.1.9 1.45 1.58.34.68.51 1.47.51 2.37 0 .9-.17 1.69-.51 2.36a3.82 3.82 0 0 1-3.67 2.14Zm.01-1.65c.47 0 .85-.12 1.16-.38.31-.26.54-.6.7-1.03.15-.43.23-.91.23-1.45 0-.53-.08-1.01-.23-1.44a2.29 2.29 0 0 0-.7-1.04c-.3-.26-.7-.39-1.16-.39-.47 0-.86.13-1.18.39-.3.25-.54.6-.7 1.04-.15.43-.22.91-.22 1.44 0 .54.07 1.02.22 1.45.16.43.4.77.7 1.03.32.26.71.38 1.18.38Zm7.98-3.63V28h-2.06v-8.73h1.97v1.49h.1c.2-.5.52-.88.96-1.17.44-.29.99-.43 1.64-.43.6 0 1.13.13 1.57.39.45.25.8.63 1.05 1.11.25.5.37 1.09.37 1.78V28h-2.06v-5.24c0-.58-.15-1.04-.45-1.37a1.6 1.6 0 0 0-1.25-.5c-.36 0-.68.09-.96.25-.27.15-.5.38-.65.67-.16.3-.23.66-.23 1.08Z" fill="#0F67F5"/><path stroke="#0F67F5" stroke-width="2" d="M0 43h192"/><path d="M209.4 28V16.36h6.99v1.25h-5.57v3.94h5.04v1.25h-5.04V28h-1.41Zm9.22 0v-8.73h1.34V28h-1.34Zm.68-10.18a.95.95 0 0 1-.68-.27.86.86 0 0 1-.28-.64c0-.25.1-.46.28-.64a.95.95 0 0 1 .68-.27c.26 0 .48.09.67.27.19.18.28.39.28.64s-.09.46-.28.64a.93.93 0 0 1-.67.27Zm4.46 4.93V28h-1.34v-8.73h1.29v1.37h.11c.2-.45.52-.8.94-1.07.41-.27.95-.41 1.6-.41.6 0 1.12.12 1.56.36.44.24.79.6 1.04 1.1.24.48.36 1.1.36 1.83V28h-1.34v-5.45c0-.69-.17-1.22-.53-1.6a1.9 1.9 0 0 0-1.47-.59c-.42 0-.8.1-1.14.28a2 2 0 0 0-.8.81c-.19.36-.28.8-.28 1.3Zm8.01 5.25v-8.73h1.34V28h-1.34Zm.69-10.18a.95.95 0 0 1-.68-.27.86.86 0 0 1-.28-.64c0-.25.1-.46.28-.64a.95.95 0 0 1 .68-.27c.26 0 .48.09.67.27.19.18.28.39.28.64s-.1.46-.28.64a.93.93 0 0 1-.67.27Zm9.3 3.4-1.21.35a2.2 2.2 0 0 0-.34-.59 1.56 1.56 0 0 0-.59-.47 2.15 2.15 0 0 0-.96-.2c-.53 0-.98.13-1.33.38-.36.24-.53.55-.53.92 0 .34.12.6.36.8.24.19.62.35 1.14.48l1.3.31c.77.2 1.36.48 1.74.87.38.39.57.89.57 1.5 0 .5-.14.95-.43 1.34-.28.4-.68.7-1.2.93-.5.23-1.1.34-1.78.34-.89 0-1.62-.2-2.2-.58a2.57 2.57 0 0 1-1.12-1.7l1.28-.3c.12.46.35.81.69 1.05.34.23.78.35 1.33.35a2.5 2.5 0 0 0 1.49-.4c.37-.27.56-.59.56-.96 0-.3-.11-.56-.32-.77-.22-.2-.54-.36-.98-.46l-1.45-.34a3.47 3.47 0 0 1-1.77-.88c-.37-.4-.55-.9-.55-1.5 0-.5.14-.94.41-1.32.28-.37.66-.67 1.14-.89a4 4 0 0 1 1.65-.32c.87 0 1.54.19 2.04.57.5.38.84.88 1.05 1.5Zm3.51 1.53V28h-1.34V16.36h1.34v4.28h.11c.2-.45.52-.81.93-1.08.4-.27.96-.4 1.64-.4.6 0 1.12.12 1.57.36.44.23.79.6 1.03 1.08.25.49.38 1.1.38 1.85V28h-1.34v-5.45c0-.7-.18-1.23-.54-1.61a1.93 1.93 0 0 0-1.48-.58c-.44 0-.84.1-1.19.28a2.1 2.1 0 0 0-.81.81c-.2.36-.3.8-.3 1.3Zm11.77 5.43a3.74 3.74 0 0 1-3.58-2.13 5.34 5.34 0 0 1-.49-2.35c0-.89.17-1.68.5-2.36a3.7 3.7 0 0 1 3.44-2.18c.45 0 .9.07 1.34.23a3.34 3.34 0 0 1 2.08 2.08c.22.55.33 1.24.33 2.05v.57h-6.73v-1.16h5.36c0-.5-.1-.93-.3-1.32a2.23 2.23 0 0 0-2.08-1.25c-.54 0-1 .14-1.39.4-.39.26-.68.6-.9 1.02a3 3 0 0 0-.3 1.36v.77c0 .66.1 1.22.34 1.68a2.48 2.48 0 0 0 2.38 1.39c.35 0 .67-.05.96-.15a1.94 1.94 0 0 0 1.22-1.22l1.3.37a2.99 2.99 0 0 1-1.89 1.93c-.46.18-1 .27-1.59.27Zm8.95 0a3.42 3.42 0 0 1-3.23-2.12 5.66 5.66 0 0 1-.47-2.4c0-.92.15-1.71.47-2.39a3.46 3.46 0 0 1 3.25-2.11c.57 0 1.02.1 1.35.28.33.19.59.4.76.64.18.23.32.43.42.58h.11v-4.3H270V28h-1.3v-1.34h-.15l-.42.6c-.19.24-.44.45-.78.64a2.8 2.8 0 0 1-1.35.28Zm.18-1.2c.54 0 1-.14 1.37-.42.37-.29.65-.68.84-1.18.2-.5.3-1.08.3-1.74 0-.66-.1-1.23-.3-1.71-.18-.5-.46-.88-.83-1.15a2.24 2.24 0 0 0-1.38-.42c-.56 0-1.04.15-1.42.44-.37.29-.65.68-.84 1.18a5.03 5.03 0 0 0 0 3.35c.2.5.48.9.85 1.2.38.3.85.45 1.41.45ZM277.13 28v-8.73h1.3v1.37h.11c.18-.47.48-.83.88-1.09.4-.26.9-.4 1.46-.4.58 0 1.06.14 1.44.4.39.26.69.62.9 1.09h.1c.22-.45.55-.81 1-1.08.45-.27.98-.4 1.6-.4.79 0 1.43.24 1.92.73.5.49.75 1.24.75 2.27V28h-1.34v-5.84c0-.64-.18-1.1-.53-1.38a1.96 1.96 0 0 0-1.25-.42c-.6 0-1.09.19-1.42.56-.34.37-.5.83-.5 1.4V28h-1.37v-5.98c0-.5-.16-.9-.48-1.2a1.92 1.92 0 0 0-2.95.59c-.19.33-.28.7-.28 1.14V28h-1.34Zm17.45.18a3.8 3.8 0 0 1-2.07-.56 3.84 3.84 0 0 1-1.38-1.57 5.32 5.32 0 0 1-.5-2.37c0-.9.17-1.7.5-2.38a3.8 3.8 0 0 1 1.38-1.58 3.8 3.8 0 0 1 2.07-.56c.8 0 1.48.19 2.07.56.6.38 1.06.9 1.39 1.58.33.68.5 1.47.5 2.38 0 .9-.17 1.7-.5 2.37a3.8 3.8 0 0 1-1.39 1.57 3.8 3.8 0 0 1-2.06.56Zm0-1.2c.6 0 1.1-.16 1.48-.46.39-.31.68-.71.86-1.21a4.8 4.8 0 0 0 0-3.26c-.19-.5-.47-.91-.86-1.22a2.28 2.28 0 0 0-1.48-.47c-.6 0-1.09.16-1.47.47-.39.31-.67.72-.86 1.22a4.77 4.77 0 0 0 0 3.26c.19.5.47.9.86 1.2.38.31.88.47 1.47.47Zm9.55 1.2a3.8 3.8 0 0 1-2.11-.58 3.78 3.78 0 0 1-1.37-1.6 5.41 5.41 0 0 1-.47-2.32c0-.88.16-1.67.49-2.34a3.7 3.7 0 0 1 3.44-2.18c.61 0 1.17.11 1.66.34a2.98 2.98 0 0 1 1.8 2.39h-1.35a2.04 2.04 0 0 0-2.1-1.52c-.51 0-.97.13-1.36.4-.4.27-.7.65-.92 1.14a4.23 4.23 0 0 0-.32 1.73c0 .67.1 1.26.32 1.76.21.5.52.89.9 1.16.4.28.86.42 1.4.42.34 0 .66-.06.94-.18a1.96 1.96 0 0 0 1.14-1.35h1.34a3.1 3.1 0 0 1-1.74 2.37c-.48.24-1.04.36-1.69.36Zm6.64-3.36-.02-1.66h.27l3.82-3.89h1.66l-4.07 4.12h-.11l-1.55 1.43ZM309.52 28V16.36h1.35V28h-1.35Zm5.55 0-3.4-4.32.94-.93 4.16 5.25h-1.7Zm13.84-6.77-1.2.34c-.08-.2-.2-.4-.34-.59a1.52 1.52 0 0 0-.6-.47 2.15 2.15 0 0 0-.95-.2c-.54 0-.98.13-1.34.38-.35.24-.53.55-.53.92 0 .34.13.6.37.8.24.19.62.35 1.13.48l1.3.31c.78.2 1.36.48 1.74.87.39.39.58.89.58 1.5 0 .5-.15.95-.43 1.34-.29.4-.69.7-1.2.93-.5.23-1.1.34-1.78.34-.9 0-1.63-.2-2.21-.58a2.57 2.57 0 0 1-1.1-1.7l1.26-.3c.13.46.35.81.7 1.05.33.23.78.35 1.33.35a2.5 2.5 0 0 0 1.49-.4c.37-.27.55-.59.55-.96 0-.3-.1-.56-.32-.77a2 2 0 0 0-.97-.46l-1.46-.34a3.47 3.47 0 0 1-1.76-.88c-.37-.4-.56-.9-.56-1.5 0-.5.14-.94.42-1.32.28-.37.66-.67 1.14-.89a4.01 4.01 0 0 1 1.65-.32c.86 0 1.54.19 2.03.57.5.38.85.88 1.06 1.5Zm5.84 6.95a3.74 3.74 0 0 1-3.58-2.13 5.34 5.34 0 0 1-.5-2.35c0-.89.17-1.68.5-2.36a3.7 3.7 0 0 1 3.44-2.18 4 4 0 0 1 1.35.23 3.33 3.33 0 0 1 2.08 2.08c.21.55.32 1.24.32 2.05v.57h-6.73v-1.16H337c0-.5-.1-.93-.3-1.32a2.22 2.22 0 0 0-2.1-1.25c-.53 0-.99.14-1.38.4-.38.26-.68.6-.89 1.02a3 3 0 0 0-.31 1.36v.77c0 .66.11 1.22.34 1.68a2.48 2.48 0 0 0 2.39 1.39c.35 0 .67-.05.95-.15.29-.1.54-.25.75-.45.2-.2.36-.46.48-.77l1.3.37a2.9 2.9 0 0 1-.7 1.16c-.32.33-.71.58-1.19.77-.47.18-1 .27-1.6.27Zm11.83-6.95-1.2.34a2.2 2.2 0 0 0-.34-.59 1.56 1.56 0 0 0-.59-.47 2.15 2.15 0 0 0-.96-.2c-.53 0-.98.13-1.34.38-.35.24-.52.55-.52.92 0 .34.12.6.36.8.24.19.62.35 1.14.48l1.3.31c.77.2 1.35.48 1.74.87.38.39.57.89.57 1.5 0 .5-.14.95-.43 1.34-.29.4-.68.7-1.2.93-.5.23-1.1.34-1.78.34a3.9 3.9 0 0 1-2.2-.58 2.57 2.57 0 0 1-1.12-1.7l1.28-.3c.12.46.35.81.68 1.05.34.23.79.35 1.34.35a2.5 2.5 0 0 0 1.49-.4c.37-.27.55-.59.55-.96 0-.3-.1-.56-.31-.77-.22-.2-.54-.36-.98-.46l-1.46-.34a3.47 3.47 0 0 1-1.76-.88c-.37-.4-.55-.9-.55-1.5 0-.5.13-.94.41-1.32.28-.37.66-.67 1.14-.89a4 4 0 0 1 1.65-.32c.86 0 1.54.19 2.03.57.5.38.85.88 1.06 1.5Zm8.36 0-1.2.34c-.08-.2-.2-.4-.34-.59a1.56 1.56 0 0 0-.59-.47 2.15 2.15 0 0 0-.96-.2c-.54 0-.98.13-1.34.38-.35.24-.52.55-.52.92 0 .34.12.6.36.8.24.19.62.35 1.14.48l1.3.31c.77.2 1.35.48 1.74.87.38.39.57.89.57 1.5 0 .5-.15.95-.43 1.34-.29.4-.68.7-1.2.93-.5.23-1.1.34-1.78.34-.89 0-1.63-.2-2.21-.58a2.57 2.57 0 0 1-1.1-1.7l1.26-.3c.13.46.36.81.7 1.05.33.23.78.35 1.33.35a2.5 2.5 0 0 0 1.49-.4c.37-.27.55-.59.55-.96 0-.3-.1-.56-.31-.77-.22-.2-.54-.36-.98-.46l-1.46-.34a3.47 3.47 0 0 1-1.76-.88c-.37-.4-.56-.9-.56-1.5 0-.5.14-.94.42-1.32.28-.37.66-.67 1.14-.89a4 4 0 0 1 1.65-.32c.86 0 1.54.19 2.03.57.5.38.85.88 1.06 1.5Zm2.18 6.77v-8.73h1.34V28h-1.34Zm.68-10.18a.95.95 0 0 1-.68-.27.86.86 0 0 1-.27-.64c0-.25.09-.46.27-.64a.95.95 0 0 1 .68-.27c.26 0 .49.09.67.27.19.18.28.39.28.64s-.09.46-.28.64a.93.93 0 0 1-.67.27Zm6.66 10.36a3.8 3.8 0 0 1-2.07-.56c-.6-.38-1.06-.9-1.39-1.57a5.32 5.32 0 0 1-.5-2.37c0-.9.17-1.7.5-2.38.33-.68.8-1.2 1.39-1.58a3.8 3.8 0 0 1 2.07-.56c.79 0 1.48.19 2.07.56.6.38 1.06.9 1.39 1.58.33.68.5 1.47.5 2.38 0 .9-.17 1.7-.5 2.37a3.77 3.77 0 0 1-3.46 2.14Zm0-1.2c.6 0 1.1-.16 1.48-.46.38-.31.67-.71.86-1.21.18-.5.27-1.04.27-1.63a4.8 4.8 0 0 0-.27-1.63c-.19-.5-.48-.91-.86-1.22a2.29 2.29 0 0 0-1.48-.47c-.6 0-1.1.16-1.48.47-.38.31-.67.72-.86 1.22a4.8 4.8 0 0 0-.27 1.63c0 .59.09 1.13.27 1.63.2.5.48.9.86 1.2.39.31.88.47 1.48.47Zm7.34-4.23V28h-1.34v-8.73h1.3v1.37h.11c.2-.45.52-.8.93-1.07.42-.27.96-.41 1.62-.41.59 0 1.1.12 1.55.36.44.24.78.6 1.03 1.1.25.48.37 1.1.37 1.83V28h-1.34v-5.45c0-.69-.18-1.22-.53-1.6a1.9 1.9 0 0 0-1.47-.59c-.43 0-.81.1-1.15.28a2 2 0 0 0-.79.81c-.2.36-.29.8-.29 1.3Z" fill="#333"/><path fill="#fff" d="M0 52h264v76H0z"/><path fill="#EBEBEB" d="M12 64h99v12H12zm0 20h240v12H12zm0 20h240v12H12z"/></g><defs><clipPath id="a"><path fill="#fff" d="M0 0h264v128H0z"/></clipPath></defs></svg>