<svg width="672" height="106" fill="none" xmlns="http://www.w3.org/2000/svg"><path fill="#F6F6F6" d="M0 0h672v106H0z"/><rect x="193" y="32" width="132" height="42" rx="4" fill="#0F67F5"/><path d="M230.16 59V47.55h3.72c1.4 0 2.32.05 2.75.17a3 3 0 0 1 1.64 1.12c.45.58.67 1.32.67 2.23 0 .7-.13 1.3-.38 1.77a3.17 3.17 0 0 1-2.18 1.68c-.55.1-1.35.16-2.4.16h-1.5V59h-2.32Zm2.32-9.52v3.25h1.26a6 6 0 0 0 1.83-.18 1.52 1.52 0 0 0 .99-1.45c0-.42-.13-.76-.37-1.03a1.6 1.6 0 0 0-.93-.5 9.73 9.73 0 0 0-1.67-.09h-1.11ZM242.92 59h-2.2v-8.3h2.05v1.18c.34-.55.66-.92.93-1.1.28-.18.6-.26.96-.26.5 0 .98.13 1.44.41l-.68 1.91a1.93 1.93 0 0 0-1.03-.36c-.3 0-.57.09-.78.26-.21.17-.38.47-.5.92a13.3 13.3 0 0 0-.19 2.78V59Zm4.14-9.42v-2.03h2.19v2.03h-2.2Zm0 9.42v-8.3h2.19V59h-2.2Zm4.28-8.3h2.03v1.14a3.26 3.26 0 0 1 2.58-1.32c.53 0 1 .1 1.39.32.39.22.7.55.96 1 .36-.45.75-.78 1.18-1 .42-.22.87-.32 1.35-.32.6 0 1.12.12 1.55.37.42.25.73.6.94 1.09.15.35.23.92.23 1.72V59h-2.2v-4.74c0-.83-.07-1.36-.23-1.6-.2-.3-.51-.46-.93-.46a1.54 1.54 0 0 0-1.46 1.1c-.12.36-.18.93-.18 1.72V59h-2.2v-4.55c0-.8-.03-1.33-.1-1.56a.99.99 0 0 0-.38-.52 1.13 1.13 0 0 0-.66-.17 1.52 1.52 0 0 0-1.5 1.06 6.1 6.1 0 0 0-.17 1.7V59h-2.2v-8.3Zm16.04 2.53-1.99-.35c.23-.8.61-1.4 1.16-1.79a4.23 4.23 0 0 1 2.43-.57c.98 0 1.71.11 2.2.35.47.23.8.52 1 .88.2.35.3 1 .3 1.96l-.03 2.56c0 .73.04 1.27.1 1.62.08.34.21.71.4 1.11h-2.17a8.48 8.48 0 0 1-.29-.9c-.37.36-.77.63-1.2.81-.43.19-.88.28-1.37.28a2.8 2.8 0 0 1-2.02-.7 2.32 2.32 0 0 1-.74-1.76c0-.46.12-.88.34-1.25.22-.37.54-.65.94-.84.4-.2.99-.37 1.75-.52 1.02-.19 1.73-.37 2.13-.53v-.22c0-.42-.1-.72-.31-.9-.21-.18-.6-.27-1.18-.27-.4 0-.7.07-.92.23-.22.15-.4.42-.53.8Zm2.94 1.79c-.28.09-.73.2-1.34.33-.6.13-1 .26-1.2.38a.92.92 0 0 0-.42.78c0 .3.11.57.34.8.23.22.52.33.88.33.4 0 .77-.13 1.13-.39.27-.2.44-.44.52-.73.06-.18.09-.54.09-1.07v-.43Zm6.43 3.98h-2.2v-8.3h2.04v1.18c.35-.55.67-.92.94-1.1.28-.18.6-.26.95-.26.5 0 .99.13 1.45.41l-.68 1.91a1.93 1.93 0 0 0-1.03-.36c-.3 0-.57.09-.78.26-.22.17-.38.47-.51.92a13.3 13.3 0 0 0-.18 2.78V59Zm3.1-8.3h2.33l1.98 5.9 1.94-5.9h2.27l-2.93 7.99-.52 1.44c-.2.49-.38.86-.55 1.11-.18.26-.38.46-.6.62-.23.16-.5.29-.84.37-.33.1-.7.14-1.12.14-.42 0-.83-.05-1.24-.14l-.2-1.71c.35.06.66.1.94.1.5 0 .88-.15 1.13-.46.24-.3.43-.67.56-1.14l-3.16-8.32Z" fill="#fff"/><rect x="350" y="33" width="128" height="40" rx="3" fill="#fff"/><path d="m373.58 55.27 2.25-.22c.13.76.4 1.31.82 1.67.42.35.98.53 1.68.53.74 0 1.3-.16 1.68-.47.38-.32.57-.69.57-1.1 0-.28-.08-.5-.24-.7a2.04 2.04 0 0 0-.83-.5c-.27-.09-.89-.26-1.85-.5a6.28 6.28 0 0 1-2.61-1.13 2.98 2.98 0 0 1-.57-3.94c.34-.5.81-.9 1.43-1.16a5.7 5.7 0 0 1 2.26-.4c1.44 0 2.52.32 3.24.95a3.33 3.33 0 0 1 1.15 2.52l-2.31.1c-.1-.59-.31-1-.64-1.26-.32-.26-.81-.4-1.46-.4-.67 0-1.2.14-1.58.42a.84.84 0 0 0-.37.71c0 .27.12.5.35.7.29.24 1 .5 2.12.76 1.13.27 1.96.54 2.5.83a3.14 3.14 0 0 1 1.72 2.98 3.38 3.38 0 0 1-2.1 3.13c-.66.28-1.5.41-2.49.41a4.97 4.97 0 0 1-3.33-1 4.38 4.38 0 0 1-1.4-2.93Zm16.05 1.09 2.18.37a3.6 3.6 0 0 1-1.33 1.83 3.9 3.9 0 0 1-2.28.63c-1.44 0-2.5-.47-3.2-1.42a4.75 4.75 0 0 1-.82-2.86c0-1.37.36-2.45 1.08-3.22a3.54 3.54 0 0 1 2.72-1.17c1.24 0 2.21.4 2.93 1.22.71.81 1.05 2.06 1.02 3.74h-5.5c.01.66.2 1.16.53 1.53.34.36.76.54 1.27.54.34 0 .63-.1.86-.28.24-.2.42-.5.54-.91Zm.12-2.22c-.02-.63-.18-1.12-.5-1.44a1.5 1.5 0 0 0-1.13-.5c-.48 0-.88.17-1.19.52-.31.35-.47.82-.46 1.42h3.28Zm11.21-.98-2.16.39a1.56 1.56 0 0 0-.5-.98 1.48 1.48 0 0 0-1-.33c-.55 0-.99.2-1.32.57-.32.38-.48 1-.48 1.9 0 .98.16 1.67.5 2.08.33.4.77.6 1.33.6.42 0 .76-.1 1.02-.34.27-.24.45-.65.56-1.23l2.16.37a3.82 3.82 0 0 1-1.29 2.24c-.63.5-1.49.76-2.55.76a3.81 3.81 0 0 1-2.91-1.15 4.47 4.47 0 0 1-1.08-3.18c0-1.37.36-2.44 1.09-3.2a3.85 3.85 0 0 1 2.94-1.14c1 0 1.8.21 2.4.65.6.43 1.03 1.1 1.3 1.99Zm1.17 1.57c0-.72.18-1.43.53-2.11a3.7 3.7 0 0 1 1.53-1.57c.66-.35 1.4-.53 2.2-.53a4.13 4.13 0 0 1 4.3 4.3c0 1.26-.4 2.3-1.22 3.13a4.1 4.1 0 0 1-3.06 1.24 4.8 4.8 0 0 1-2.18-.52 3.55 3.55 0 0 1-1.57-1.5 5.06 5.06 0 0 1-.54-2.44Zm2.25.12c0 .82.19 1.45.58 1.9.4.43.87.65 1.45.65.57 0 1.05-.22 1.43-.66.4-.44.59-1.07.59-1.9 0-.82-.2-1.44-.59-1.88a1.84 1.84 0 0 0-1.43-.66c-.58 0-1.06.22-1.45.66-.39.44-.58 1.07-.58 1.9ZM419.95 59h-2.2v-4.23c0-.9-.04-1.48-.13-1.74a1.2 1.2 0 0 0-.47-.62 1.3 1.3 0 0 0-.75-.21c-.38 0-.73.1-1.03.3-.3.22-.5.5-.62.84a7.3 7.3 0 0 0-.17 1.9V59h-2.2v-8.3h2.05v1.22a3.32 3.32 0 0 1 2.73-1.4c.49 0 .93.08 1.33.26a2.16 2.16 0 0 1 1.34 1.59c.08.34.12.83.12 1.47V59Zm9.85 0h-2.04v-1.22a3.25 3.25 0 0 1-2.6 1.41 3.2 3.2 0 0 1-2.45-1.15 4.72 4.72 0 0 1-1.02-3.22c0-1.4.33-2.47 1-3.2a3.23 3.23 0 0 1 4.9.05v-4.12h2.2V59Zm-5.87-4.33c0 .89.13 1.53.37 1.92.36.58.85.86 1.49.86.5 0 .93-.21 1.29-.64.35-.43.53-1.07.53-1.93 0-.95-.18-1.64-.52-2.05a1.63 1.63 0 0 0-1.32-.63c-.52 0-.96.2-1.31.62-.35.41-.53 1.03-.53 1.85Zm9.68-1.44-2-.35c.23-.8.61-1.4 1.16-1.79a4.23 4.23 0 0 1 2.44-.57c.98 0 1.7.11 2.19.35.47.23.81.52 1 .88.2.35.3 1 .3 1.96l-.02 2.56c0 .73.03 1.27.1 1.62.07.34.2.71.4 1.11h-2.17a7.67 7.67 0 0 1-.3-.9c-.37.36-.77.63-1.2.81-.42.19-.88.28-1.36.28-.86 0-1.53-.23-2.03-.7a2.32 2.32 0 0 1-.73-1.76c0-.46.11-.88.33-1.25.23-.37.54-.65.94-.84.4-.2 1-.37 1.75-.52 1.03-.19 1.74-.37 2.13-.53v-.22c0-.42-.1-.72-.3-.9-.22-.18-.6-.27-1.19-.27-.39 0-.7.07-.91.23-.22.15-.4.42-.53.8Zm2.94 1.79c-.29.09-.73.2-1.34.33-.61.13-1 .26-1.2.38a.92.92 0 0 0-.43.78c0 .3.12.57.35.8.23.22.52.33.87.33.4 0 .78-.13 1.13-.39.27-.2.44-.44.53-.73.06-.18.08-.54.08-1.07v-.43Zm6.42 3.98h-2.2v-8.3h2.05v1.18c.35-.55.66-.92.94-1.1.28-.18.6-.26.95-.26.5 0 .98.13 1.44.41l-.68 1.91a1.92 1.92 0 0 0-1.03-.36c-.3 0-.56.09-.78.26-.21.17-.38.47-.5.92a13.3 13.3 0 0 0-.19 2.78V59Zm3.1-8.3h2.33l1.99 5.9 1.94-5.9h2.27l-2.93 7.99-.52 1.44c-.2.49-.38.86-.56 1.11a2.32 2.32 0 0 1-1.44.99c-.32.1-.7.14-1.11.14-.43 0-.84-.05-1.25-.14l-.2-1.71c.35.06.66.1.94.1.5 0 .89-.15 1.13-.46.25-.3.43-.67.56-1.14l-3.15-8.32Z" fill="#0F67F5"/><rect x="350" y="33" width="128" height="40" rx="3" stroke="#0F67F5" stroke-width="2"/></svg>