<svg width="672" height="85" fill="none" xmlns="http://www.w3.org/2000/svg"><path fill="#F6F6F6" d="M0 0h672v85H0z"/><path d="M120.95 47.5h-3.45V37.32h3.52c1.02 0 1.88.2 2.6.61.74.4 1.3.99 1.69 1.74.4.76.59 1.67.59 2.73s-.2 1.97-.6 2.73a4.1 4.1 0 0 1-1.7 1.76 5.4 5.4 0 0 1-2.64.61Zm-1.6-1.6h1.52c.7 0 1.3-.13 1.77-.38.47-.27.83-.65 1.07-1.17.24-.52.36-1.17.36-1.95s-.12-1.43-.36-1.94a2.5 2.5 0 0 0-1.06-1.16 3.52 3.52 0 0 0-1.73-.39h-1.57v7Zm11.6 1.75c-.77 0-1.43-.16-1.98-.48a3.23 3.23 0 0 1-1.28-1.36 4.55 4.55 0 0 1-.45-2.08c0-.79.15-1.48.45-2.07a3.38 3.38 0 0 1 3.16-1.9c.48 0 .92.08 1.34.23a3 3 0 0 1 1.11.7c.33.31.58.71.77 1.2.18.49.28 1.06.28 1.73v.55h-6.26v-1.2h4.53a2 2 0 0 0-.22-.93 1.63 1.63 0 0 0-.62-.64 1.72 1.72 0 0 0-.9-.23 1.8 1.8 0 0 0-1.62.96 2 2 0 0 0-.23.94v1.06c0 .44.08.82.24 1.14.16.32.39.56.68.73.3.16.63.25 1.03.25.26 0 .5-.04.7-.11.22-.08.4-.19.56-.34.15-.14.27-.32.35-.54l1.68.2c-.1.44-.3.82-.6 1.16-.3.32-.68.58-1.14.76-.46.18-.99.27-1.58.27Zm8.79-7.79v1.4h-4.52v-1.4h4.52Zm-3.39 7.64v-8.36c0-.51.1-.94.32-1.28a2 2 0 0 1 .86-.77 2.8 2.8 0 0 1 1.2-.25 4.15 4.15 0 0 1 1.37.21l-.35 1.4a3.09 3.09 0 0 0-.68-.12c-.33 0-.57.08-.71.25-.14.16-.2.38-.2.68v8.24h-1.81Zm6.73.15c-.48 0-.92-.08-1.3-.25a2.13 2.13 0 0 1-.92-.78 2.27 2.27 0 0 1-.33-1.26c0-.43.08-.79.24-1.07.16-.28.37-.5.65-.68.27-.17.58-.3.93-.38.34-.09.7-.15 1.08-.2l1.08-.12c.28-.04.49-.1.61-.18.13-.08.2-.2.2-.38v-.03c0-.37-.12-.66-.34-.87-.22-.2-.54-.3-.96-.3-.44 0-.79.09-1.05.28-.25.2-.42.42-.51.68l-1.68-.24a2.69 2.69 0 0 1 1.77-1.87 4.76 4.76 0 0 1 2.56-.1c.37.08.7.22 1 .42.3.2.54.46.73.8.18.34.28.76.28 1.27v5.11h-1.74v-1.05h-.06a2.19 2.19 0 0 1-1.2 1.04c-.3.1-.64.16-1.04.16Zm.47-1.32a2 2 0 0 0 .94-.21c.26-.15.47-.34.61-.58.15-.24.22-.5.22-.78v-.9a.84.84 0 0 1-.29.13 13.77 13.77 0 0 1-1.36.24c-.27.04-.5.1-.72.18-.21.09-.38.2-.5.35a.85.85 0 0 0-.19.57c0 .33.12.58.37.75.24.17.55.25.92.25Zm10.24-2.04v-4.43h1.8v7.64h-1.74v-1.36h-.08a2.3 2.3 0 0 1-.85 1.05c-.4.27-.88.4-1.45.4-.5 0-.94-.1-1.33-.32a2.31 2.31 0 0 1-.9-.98 3.45 3.45 0 0 1-.31-1.56v-4.87h1.8v4.59c0 .48.13.87.4 1.15.26.29.6.43 1.04.43.26 0 .52-.07.77-.2.25-.12.45-.32.6-.57.17-.26.25-.58.25-.97Zm5.45-6.97V47.5h-1.8V37.32h1.8Zm5.67 2.54v1.4h-4.4v-1.4h4.4Zm-3.31-1.83h1.8v7.17c0 .25.04.43.1.56a.6.6 0 0 0 .3.26c.13.04.27.07.41.07a1.75 1.75 0 0 0 .53-.07l.3 1.4a4 4 0 0 1-1.05.18 2.8 2.8 0 0 1-1.22-.2 1.9 1.9 0 0 1-.86-.7 2.1 2.1 0 0 1-.31-1.2v-7.47Z" fill="#0F67F5"/><path stroke="#757575" d="M190 34.5v16"/><path d="M214.5 48V37.82h1.85v4.3h4.72v-4.3h1.85V48h-1.85v-4.33h-4.72V48h-1.85Zm13.67.15a3.7 3.7 0 0 1-1.93-.5 3.35 3.35 0 0 1-1.28-1.37 4.53 4.53 0 0 1-.45-2.07c0-.79.15-1.48.45-2.07.3-.6.73-1.06 1.28-1.38a3.7 3.7 0 0 1 1.93-.5c.75 0 1.4.17 1.94.5.55.32.97.79 1.27 1.38.3.6.45 1.28.45 2.07 0 .8-.15 1.48-.45 2.07-.3.59-.72 1.05-1.27 1.38-.54.33-1.2.49-1.94.49Zm.01-1.44c.4 0 .75-.11 1.02-.34a2 2 0 0 0 .6-.9c.14-.38.2-.8.2-1.26 0-.47-.06-.9-.2-1.27a2 2 0 0 0-.6-.91 1.54 1.54 0 0 0-1.02-.34c-.41 0-.75.11-1.03.34a2 2 0 0 0-.61.9 3.95 3.95 0 0 0 0 2.54c.13.38.34.68.61.9.28.23.62.34 1.03.34Zm11.74-6.35L237.2 48h-1.99l-2.72-7.64h1.92l1.76 5.68h.08l1.76-5.68h1.91Zm4.37 7.79c-.77 0-1.43-.16-1.99-.48a3.24 3.24 0 0 1-1.27-1.36 4.57 4.57 0 0 1-.45-2.08c0-.79.15-1.48.45-2.07a3.39 3.39 0 0 1 3.16-1.9c.47 0 .92.08 1.34.23a3 3 0 0 1 1.1.7c.33.31.59.71.78 1.2.18.49.27 1.06.27 1.73v.55h-6.26v-1.2h4.54a2 2 0 0 0-.22-.93 1.63 1.63 0 0 0-.62-.64 1.72 1.72 0 0 0-.9-.23 1.8 1.8 0 0 0-1.62.96 2 2 0 0 0-.24.94v1.06c0 .44.08.82.25 1.14.16.32.39.56.68.73a2.25 2.25 0 0 0 1.73.14c.22-.08.4-.19.55-.34.16-.14.28-.32.36-.54l1.68.2c-.1.44-.3.82-.6 1.16-.3.32-.68.58-1.14.76-.46.18-.99.27-1.58.27Zm4.92-.15v-7.64h1.74v1.28h.08a1.9 1.9 0 0 1 1.88-1.39 4.14 4.14 0 0 1 .65.05v1.66a3.34 3.34 0 0 0-.84-.1c-.32 0-.62.07-.88.2a1.57 1.57 0 0 0-.83 1.45V48h-1.8Zm-35.71 2.78h40.34v.96H213.5v-.96Z" fill="#184BC8"/><path stroke="#757575" d="M279 34.5v16"/><path d="M303.5 47.5V37.32h3.82c.79 0 1.44.14 1.97.44.53.29.94.69 1.2 1.2.28.5.42 1.08.42 1.73a3.6 3.6 0 0 1-.41 1.74c-.28.5-.68.9-1.22 1.2-.54.29-1.2.43-1.98.43h-2.53v-1.52h2.28c.46 0 .83-.08 1.12-.24.3-.15.51-.37.65-.65s.21-.6.21-.96-.07-.68-.21-.96a1.45 1.45 0 0 0-.65-.64 2.4 2.4 0 0 0-1.13-.23h-1.7v8.64h-1.84Zm8.93 0v-7.64h1.75v1.28h.08a1.9 1.9 0 0 1 1.88-1.39 4.1 4.1 0 0 1 .65.05v1.66a3.35 3.35 0 0 0-.84-.1c-.32 0-.62.07-.88.2a1.57 1.57 0 0 0-.84 1.45v4.49h-1.8Zm8.62.15a3.9 3.9 0 0 1-1.98-.48 3.23 3.23 0 0 1-1.28-1.36 4.57 4.57 0 0 1-.45-2.08c0-.79.15-1.48.45-2.07a3.39 3.39 0 0 1 3.17-1.9c.47 0 .91.08 1.33.23a3 3 0 0 1 1.11.7c.33.31.58.71.77 1.2.18.49.28 1.06.28 1.73v.55h-6.26v-1.2h4.53a2 2 0 0 0-.22-.93 1.62 1.62 0 0 0-.61-.64 1.72 1.72 0 0 0-.9-.23c-.38 0-.7.09-.98.26-.28.18-.5.41-.65.7-.15.29-.23.6-.23.94v1.06c0 .44.08.82.24 1.14.16.32.4.56.68.73.3.16.63.25 1.03.25.26 0 .5-.04.7-.11.22-.08.4-.19.56-.34.16-.14.27-.32.35-.54l1.68.2c-.1.44-.3.82-.6 1.16-.3.32-.68.58-1.14.76-.46.18-.99.27-1.58.27ZM332 41.88l-1.63.18a1.33 1.33 0 0 0-.25-.47 1.21 1.21 0 0 0-.46-.35 1.62 1.62 0 0 0-.7-.13c-.38 0-.7.08-.95.24-.25.16-.37.37-.37.63 0 .22.08.4.24.54.17.14.45.26.84.35l1.3.27c.72.16 1.26.4 1.61.75.36.33.54.78.54 1.32 0 .48-.15.9-.42 1.28a2.7 2.7 0 0 1-1.15.85c-.5.2-1.06.3-1.7.3-.93 0-1.68-.19-2.25-.58a2.4 2.4 0 0 1-1.02-1.64l1.76-.17c.08.34.25.6.5.78.26.17.6.26 1.01.26.43 0 .77-.09 1.03-.26.26-.18.4-.4.4-.65 0-.22-.09-.4-.26-.54a1.77 1.77 0 0 0-.77-.33l-1.3-.28a3.1 3.1 0 0 1-1.63-.77 1.9 1.9 0 0 1-.52-1.38c0-.47.12-.88.38-1.22a2.5 2.5 0 0 1 1.09-.8c.46-.2 1-.3 1.61-.3.9 0 1.6.2 2.12.58.51.38.83.9.95 1.54Zm7.69 0-1.64.18a1.31 1.31 0 0 0-.7-.82c-.2-.09-.43-.13-.7-.13-.38 0-.7.08-.95.24-.25.16-.38.37-.38.63 0 .22.08.4.25.54.17.14.44.26.83.35l1.3.27c.73.16 1.26.4 1.62.75.35.33.53.78.53 1.32 0 .48-.14.9-.42 1.28-.28.36-.66.65-1.15.85-.49.2-1.05.3-1.69.3-.93 0-1.69-.19-2.26-.58-.57-.4-.9-.94-1.01-1.64l1.75-.17c.08.34.25.6.5.78.27.17.6.26 1.02.26.42 0 .77-.09 1.03-.26.26-.18.39-.4.39-.65a.7.7 0 0 0-.25-.54 1.77 1.77 0 0 0-.78-.33l-1.3-.28a3.1 3.1 0 0 1-1.63-.77 1.9 1.9 0 0 1-.52-1.38c0-.47.12-.88.38-1.22a2.5 2.5 0 0 1 1.1-.8 4 4 0 0 1 1.6-.3c.9 0 1.6.2 2.12.58.52.38.84.9.96 1.54Zm5.03 5.77c-.77 0-1.43-.16-1.99-.48a3.23 3.23 0 0 1-1.27-1.36 4.57 4.57 0 0 1-.45-2.08c0-.79.15-1.48.45-2.07a3.39 3.39 0 0 1 3.16-1.9c.47 0 .92.08 1.33.23a3 3 0 0 1 1.12.7c.32.31.58.71.76 1.2.19.49.28 1.06.28 1.73v.55h-6.26v-1.2h4.54c0-.35-.08-.66-.23-.93a1.62 1.62 0 0 0-.6-.64 1.72 1.72 0 0 0-.91-.23 1.8 1.8 0 0 0-1.62.96 2 2 0 0 0-.24.94v1.06c0 .44.08.82.25 1.14.16.32.39.56.68.73a2.25 2.25 0 0 0 1.73.14c.22-.08.4-.19.56-.34.15-.14.27-.32.35-.54l1.68.2a2.69 2.69 0 0 1-1.74 1.92c-.46.18-.99.27-1.58.27Zm7.75-.02a2.89 2.89 0 0 1-2.74-1.8 5.01 5.01 0 0 1-.4-2.14c0-.85.13-1.56.41-2.15a2.92 2.92 0 0 1 3.84-1.55c.29.15.52.33.68.54.17.21.3.41.4.6h.07v-3.81h1.8V47.5h-1.76v-1.2h-.11c-.1.18-.23.38-.4.59a2.2 2.2 0 0 1-1.8.74Zm.5-1.47c.38 0 .7-.1.98-.31.26-.2.47-.5.6-.87.15-.37.22-.8.22-1.3s-.07-.92-.21-1.29a1.84 1.84 0 0 0-.6-.85c-.27-.2-.6-.3-.99-.3-.4 0-.73.1-1 .31s-.47.5-.6.87c-.14.37-.21.79-.21 1.26 0 .48.06.9.2 1.28a2 2 0 0 0 .61.88c.27.21.6.32 1 .32Z" fill="#102DA3"/><path stroke="#757575" d="M383 34.5v16"/><path d="M407.5 47.5V37.32h6.53v1.54h-4.68v2.77h4.23v1.54h-4.23v4.33h-1.85Zm10.9.15a3.7 3.7 0 0 1-1.94-.5 3.34 3.34 0 0 1-1.27-1.37 4.52 4.52 0 0 1-.45-2.07c0-.79.15-1.48.45-2.07.3-.6.72-1.06 1.27-1.38a3.7 3.7 0 0 1 1.94-.5c.74 0 1.39.17 1.94.5.54.32.97.79 1.27 1.38.3.6.45 1.28.45 2.07 0 .8-.15 1.48-.45 2.07a3.3 3.3 0 0 1-1.27 1.38 3.7 3.7 0 0 1-1.94.49Zm0-1.44c.41 0 .75-.11 1.02-.34.27-.22.48-.52.6-.9.15-.38.21-.8.21-1.26 0-.47-.06-.9-.2-1.27a2 2 0 0 0-.6-.91 1.55 1.55 0 0 0-1.02-.34c-.42 0-.76.11-1.04.34-.27.22-.47.53-.6.9-.14.39-.2.8-.2 1.28 0 .46.06.88.2 1.26.13.38.33.68.6.9.28.23.62.34 1.04.34Zm8.52 1.44a3.35 3.35 0 0 1-3.22-1.89 4.6 4.6 0 0 1-.44-2.05c0-.77.15-1.46.44-2.05a3.38 3.38 0 0 1 3.21-1.9c.62 0 1.16.12 1.64.35a2.81 2.81 0 0 1 1.64 2.4h-1.72a1.65 1.65 0 0 0-.5-.92c-.26-.25-.6-.37-1.04-.37-.37 0-.69.1-.97.3-.28.19-.5.47-.65.84-.15.37-.23.8-.23 1.32s.08.97.23 1.34c.15.38.37.66.64.86.28.2.6.3.98.3.27 0 .5-.05.71-.15.21-.1.4-.25.53-.44.15-.2.24-.43.3-.7h1.72a2.83 2.83 0 0 1-1.6 2.41 3.8 3.8 0 0 1-1.67.35Zm9.61-3.36v-4.43h1.8v7.64h-1.74v-1.36h-.08c-.18.43-.46.78-.85 1.05-.4.27-.88.4-1.45.4-.5 0-.94-.1-1.33-.32a2.32 2.32 0 0 1-.9-.98 3.47 3.47 0 0 1-.31-1.56v-4.87h1.8v4.59c0 .48.13.87.4 1.15.26.29.6.43 1.04.43a1.65 1.65 0 0 0 1.38-.77c.16-.26.24-.58.24-.97Zm9.69-2.4-1.64.17a1.31 1.31 0 0 0-.7-.82 1.7 1.7 0 0 0-.71-.13c-.37 0-.69.08-.94.24-.26.16-.38.37-.38.63 0 .22.08.4.25.54.17.14.44.26.83.35l1.3.27c.73.16 1.26.4 1.62.75.35.33.53.78.53 1.32 0 .48-.14.9-.42 1.28-.28.36-.66.65-1.15.85-.49.2-1.05.3-1.69.3-.93 0-1.69-.19-2.26-.58a2.4 2.4 0 0 1-1.02-1.64l1.76-.17c.08.34.25.6.5.78.26.17.6.26 1.02.26.42 0 .77-.09 1.02-.26.27-.18.4-.4.4-.65 0-.22-.09-.4-.26-.54a1.77 1.77 0 0 0-.77-.33l-1.3-.28a3.1 3.1 0 0 1-1.63-.77 1.9 1.9 0 0 1-.52-1.38c0-.47.12-.88.38-1.22a2.5 2.5 0 0 1 1.09-.8c.47-.2 1-.3 1.62-.3.89 0 1.6.2 2.1.58.53.38.85.9.97 1.54Z" fill="#102DA3"/><rect x="405.5" y="36.5" width="43" height="12" rx="3" stroke="#184BC8" stroke-width="2"/><path stroke="#757575" d="M472 34.5v16"/><path d="M499.95 47.5h-3.45V37.32h3.52c1.02 0 1.88.2 2.6.61.74.4 1.3.99 1.69 1.74.4.76.59 1.67.59 2.73s-.2 1.97-.6 2.73a4.1 4.1 0 0 1-1.7 1.76 5.4 5.4 0 0 1-2.65.61Zm-1.6-1.6h1.51c.71 0 1.3-.13 1.78-.38.47-.27.83-.65 1.07-1.17.24-.52.36-1.17.36-1.95s-.12-1.43-.36-1.94a2.5 2.5 0 0 0-1.06-1.16 3.52 3.52 0 0 0-1.73-.39h-1.57v7Zm8.22 1.6v-7.64h1.8v7.64h-1.8Zm.9-8.72c-.28 0-.53-.1-.73-.28a.91.91 0 0 1-.31-.7c0-.27.1-.5.3-.69.21-.19.46-.28.74-.28.3 0 .54.1.74.28.2.2.3.42.3.7 0 .26-.1.5-.3.69-.2.19-.45.28-.74.28Zm8.78 3.1-1.63.18a1.33 1.33 0 0 0-.25-.47 1.21 1.21 0 0 0-.46-.35 1.62 1.62 0 0 0-.7-.13c-.38 0-.7.08-.95.24-.25.16-.37.37-.37.63 0 .22.08.4.24.54.17.14.45.26.84.35l1.3.27c.72.16 1.26.4 1.61.75.36.33.54.78.54 1.32 0 .48-.14.9-.42 1.28a2.7 2.7 0 0 1-1.15.85c-.5.2-1.06.3-1.7.3-.93 0-1.68-.19-2.25-.58a2.4 2.4 0 0 1-1.02-1.64l1.76-.17c.08.34.25.6.5.78.26.17.6.26 1.01.26.43 0 .77-.09 1.03-.26.26-.18.4-.4.4-.65 0-.22-.09-.4-.26-.54a1.77 1.77 0 0 0-.77-.33l-1.3-.28a3.1 3.1 0 0 1-1.63-.77 1.9 1.9 0 0 1-.52-1.38c0-.47.12-.88.38-1.22a2.5 2.5 0 0 1 1.09-.8c.46-.2 1-.3 1.61-.3.9 0 1.6.2 2.12.58.51.38.83.9.96 1.54Zm3.85 5.77c-.48 0-.92-.08-1.3-.25a2.14 2.14 0 0 1-.92-.78 2.27 2.27 0 0 1-.34-1.26c0-.43.09-.79.24-1.07.16-.28.38-.5.65-.68.28-.17.59-.3.94-.38.34-.09.7-.15 1.07-.2l1.1-.12c.27-.04.47-.1.6-.18.13-.08.2-.2.2-.38v-.03c0-.37-.12-.66-.34-.87-.22-.2-.54-.3-.96-.3-.44 0-.79.09-1.05.28-.25.2-.43.42-.52.68l-1.68-.24a2.68 2.68 0 0 1 1.78-1.87 4.76 4.76 0 0 1 2.56-.1c.36.08.7.22 1 .42.3.2.54.46.72.8.19.34.28.76.28 1.27v5.11h-1.73v-1.05h-.06a2.23 2.23 0 0 1-1.2 1.04c-.3.1-.64.16-1.04.16Zm.47-1.32a2 2 0 0 0 .94-.21c.26-.15.47-.34.6-.58.15-.24.23-.5.23-.78v-.9a.85.85 0 0 1-.29.13 14.09 14.09 0 0 1-1.36.24c-.27.04-.51.1-.72.18-.22.09-.38.2-.5.35a.85.85 0 0 0-.19.57c0 .33.12.58.36.75.25.17.55.25.93.25Zm5.45 1.17V37.32h1.8v3.8h.08c.09-.18.22-.38.39-.59.17-.2.4-.39.69-.54a2.91 2.91 0 0 1 3.83 1.55c.28.59.42 1.3.42 2.15a5.1 5.1 0 0 1-.41 2.14 2.89 2.89 0 0 1-2.73 1.8c-.44 0-.8-.07-1.1-.21a2.2 2.2 0 0 1-.7-.53 3.9 3.9 0 0 1-.4-.6h-.1v1.21h-1.77Zm1.77-3.82c0 .5.07.93.2 1.3.15.37.35.66.62.87.27.2.59.3.97.3.4 0 .73-.1 1-.31.27-.22.47-.5.6-.88.15-.38.22-.8.22-1.28 0-.47-.07-.9-.2-1.26a1.9 1.9 0 0 0-.61-.87c-.27-.2-.6-.3-1-.3a1.6 1.6 0 0 0-1.59 1.14c-.14.37-.21.8-.21 1.3Zm8.77-6.36V47.5h-1.8V37.32h1.8Zm5.23 10.33c-.76 0-1.42-.16-1.98-.48a3.24 3.24 0 0 1-1.28-1.36 4.57 4.57 0 0 1-.45-2.08c0-.79.15-1.48.45-2.07a3.39 3.39 0 0 1 3.17-1.9c.47 0 .91.08 1.33.23a3 3 0 0 1 1.11.7c.33.31.58.71.77 1.2.19.49.28 1.06.28 1.73v.55h-6.26v-1.2h4.53a2 2 0 0 0-.22-.93 1.62 1.62 0 0 0-.61-.64 1.72 1.72 0 0 0-.9-.23c-.38 0-.7.09-.98.26-.28.18-.5.41-.65.7a2 2 0 0 0-.23.94v1.06c0 .44.08.82.24 1.14.16.32.4.56.68.73.3.16.63.25 1.03.25.26 0 .5-.04.7-.11.22-.08.4-.19.56-.34.15-.14.27-.32.35-.54l1.68.2c-.1.44-.3.82-.6 1.16-.3.32-.68.58-1.14.76-.46.18-.99.27-1.58.27Zm7.75-.02a2.89 2.89 0 0 1-2.73-1.8 5.01 5.01 0 0 1-.41-2.14c0-.85.14-1.56.41-2.15a2.92 2.92 0 0 1 3.84-1.55c.3.15.52.33.69.54.17.21.3.41.4.6h.07v-3.81h1.8V47.5h-1.77v-1.2h-.1c-.1.18-.24.38-.41.59a2.2 2.2 0 0 1-1.79.74Zm.5-1.47c.39 0 .71-.1.98-.31.27-.2.47-.5.61-.87s.21-.8.21-1.3-.07-.92-.2-1.29a1.83 1.83 0 0 0-.62-.85c-.26-.2-.59-.3-.97-.3-.4 0-.74.1-1 .31-.28.21-.48.5-.62.87-.13.37-.2.79-.2 1.26 0 .48.07.9.2 1.28a2 2 0 0 0 .62.88c.27.21.6.32 1 .32Z" fill="#0F67F5" opacity=".3"/></svg>