<svg width="672" height="85" viewBox="0 0 672 85" fill="none" xmlns="http://www.w3.org/2000/svg">
<rect width="672" height="85" fill="#F6F6F6"/>
<path d="M120.955 47.5H117.504V37.3182H121.024C122.035 37.3182 122.903 37.522 123.629 37.9297C124.358 38.334 124.919 38.9157 125.31 39.6747C125.701 40.4337 125.896 41.3419 125.896 42.3991C125.896 43.4598 125.699 44.3712 125.305 45.1335C124.914 45.8958 124.348 46.4808 123.609 46.8885C122.874 47.2962 121.989 47.5 120.955 47.5ZM119.349 45.9041H120.865C121.574 45.9041 122.166 45.7749 122.64 45.5163C123.114 45.2545 123.47 44.8651 123.709 44.348C123.947 43.8277 124.067 43.178 124.067 42.3991C124.067 41.6203 123.947 40.974 123.709 40.4602C123.47 39.9432 123.117 39.5571 122.65 39.3018C122.186 39.0433 121.609 38.9141 120.92 38.9141H119.349V45.9041ZM130.95 47.6491C130.184 47.6491 129.523 47.4901 128.966 47.1719C128.413 46.8504 127.987 46.3963 127.689 45.8097C127.39 45.2197 127.241 44.5253 127.241 43.7266C127.241 42.9411 127.39 42.2517 127.689 41.6584C127.99 41.0618 128.411 40.5978 128.951 40.2663C129.492 39.9316 130.126 39.7642 130.855 39.7642C131.326 39.7642 131.77 39.8404 132.188 39.9929C132.609 40.142 132.98 40.3741 133.301 40.6889C133.626 41.0038 133.882 41.4048 134.067 41.892C134.253 42.3759 134.346 42.9527 134.346 43.6222V44.174H128.086V42.9609H132.62C132.617 42.6162 132.542 42.3097 132.397 42.0412C132.251 41.7694 132.047 41.5556 131.785 41.3999C131.527 41.2441 131.225 41.1662 130.88 41.1662C130.512 41.1662 130.189 41.2557 129.911 41.4347C129.632 41.6103 129.415 41.8423 129.26 42.1307C129.107 42.4157 129.029 42.7289 129.026 43.0703V44.1293C129.026 44.5734 129.107 44.9545 129.27 45.2727C129.432 45.5876 129.659 45.8295 129.951 45.9986C130.242 46.1643 130.584 46.2472 130.975 46.2472C131.237 46.2472 131.474 46.2107 131.686 46.1378C131.898 46.0616 132.082 45.9505 132.238 45.8047C132.393 45.6589 132.511 45.4782 132.591 45.2628L134.271 45.4517C134.165 45.8958 133.963 46.2836 133.664 46.6151C133.369 46.9432 132.992 47.1984 132.531 47.3807C132.07 47.5597 131.543 47.6491 130.95 47.6491ZM139.736 39.8636V41.2557H135.222V39.8636H139.736ZM136.35 47.5V39.1428C136.35 38.629 136.456 38.2015 136.669 37.8601C136.884 37.5187 137.172 37.2635 137.534 37.0945C137.895 36.9254 138.296 36.8409 138.737 36.8409C139.048 36.8409 139.325 36.8658 139.567 36.9155C139.809 36.9652 139.988 37.0099 140.104 37.0497L139.746 38.4418C139.67 38.4186 139.574 38.3954 139.458 38.3722C139.342 38.3456 139.212 38.3324 139.07 38.3324C138.735 38.3324 138.498 38.4136 138.359 38.576C138.223 38.7351 138.155 38.9638 138.155 39.2621V47.5H136.35ZM143.083 47.6541C142.599 47.6541 142.163 47.5679 141.776 47.3956C141.391 47.2199 141.086 46.9614 140.861 46.62C140.639 46.2786 140.528 45.8577 140.528 45.3572C140.528 44.9264 140.607 44.5701 140.766 44.2884C140.925 44.0066 141.143 43.7812 141.418 43.6122C141.693 43.4432 142.003 43.3156 142.347 43.2294C142.695 43.1399 143.055 43.0753 143.426 43.0355C143.874 42.9891 144.237 42.9477 144.515 42.9112C144.793 42.8714 144.996 42.8118 145.121 42.7322C145.251 42.6494 145.315 42.5218 145.315 42.3494V42.3196C145.315 41.9451 145.204 41.6551 144.982 41.4496C144.76 41.2441 144.44 41.1413 144.023 41.1413C143.582 41.1413 143.232 41.2375 142.974 41.4297C142.719 41.6219 142.546 41.849 142.457 42.1108L140.776 41.8722C140.909 41.4081 141.128 41.0204 141.433 40.7088C141.737 40.3939 142.11 40.1586 142.551 40.0028C142.992 39.8438 143.479 39.7642 144.013 39.7642C144.381 39.7642 144.747 39.8073 145.112 39.8935C145.476 39.9796 145.809 40.1222 146.111 40.321C146.412 40.5166 146.654 40.7834 146.837 41.1214C147.022 41.4595 147.115 41.8821 147.115 42.3892V47.5H145.385V46.451H145.325C145.216 46.6631 145.062 46.862 144.863 47.0476C144.667 47.2299 144.42 47.3774 144.122 47.4901C143.827 47.5994 143.481 47.6541 143.083 47.6541ZM143.55 46.3317C143.912 46.3317 144.225 46.2604 144.49 46.1179C144.755 45.9721 144.959 45.7798 145.102 45.5412C145.247 45.3026 145.32 45.0424 145.32 44.7607V43.8608C145.264 43.9072 145.168 43.9503 145.032 43.9901C144.899 44.0298 144.75 44.0646 144.585 44.0945C144.419 44.1243 144.255 44.1508 144.092 44.174C143.93 44.1972 143.789 44.2171 143.67 44.2337C143.401 44.2701 143.161 44.3298 142.949 44.4126C142.737 44.4955 142.569 44.6115 142.447 44.7607C142.324 44.9065 142.263 45.0954 142.263 45.3274C142.263 45.6589 142.384 45.9091 142.626 46.0781C142.868 46.2472 143.176 46.3317 143.55 46.3317ZM153.792 44.2884V39.8636H155.592V47.5H153.847V46.1428H153.767C153.595 46.5703 153.311 46.92 152.917 47.1918C152.526 47.4635 152.044 47.5994 151.47 47.5994C150.97 47.5994 150.527 47.4884 150.143 47.2663C149.762 47.041 149.463 46.7145 149.248 46.2869C149.032 45.8561 148.925 45.3357 148.925 44.7259V39.8636H150.724V44.4474C150.724 44.9313 150.857 45.3158 151.122 45.6009C151.387 45.8859 151.735 46.0284 152.166 46.0284C152.431 46.0284 152.688 45.9638 152.937 45.8345C153.185 45.7053 153.389 45.513 153.548 45.2578C153.711 44.9993 153.792 44.6761 153.792 44.2884ZM159.242 37.3182V47.5H157.442V37.3182H159.242ZM164.906 39.8636V41.2557H160.516V39.8636H164.906ZM161.6 38.0341H163.4V45.2031C163.4 45.4451 163.436 45.6307 163.509 45.7599C163.585 45.8859 163.685 45.9721 163.807 46.0185C163.93 46.0649 164.066 46.0881 164.215 46.0881C164.328 46.0881 164.43 46.0798 164.523 46.0632C164.619 46.0466 164.692 46.0317 164.742 46.0185L165.045 47.4254C164.949 47.4586 164.811 47.495 164.632 47.5348C164.457 47.5746 164.241 47.5978 163.986 47.6044C163.535 47.6177 163.129 47.5497 162.768 47.4006C162.407 47.2481 162.12 47.0128 161.908 46.6946C161.699 46.3764 161.596 45.9787 161.6 45.5014V38.0341Z" fill="#0F67F5"/>
<line x1="190" y1="34.5" x2="190" y2="50.5" stroke="#757575"/>
<path d="M214.504 48V37.8182H216.349V42.1286H221.067V37.8182H222.916V48H221.067V43.6747H216.349V48H214.504ZM228.174 48.1491C227.428 48.1491 226.782 47.9851 226.235 47.657C225.688 47.3288 225.264 46.8698 224.962 46.2798C224.664 45.6899 224.515 45.0005 224.515 44.2116C224.515 43.4228 224.664 42.7318 224.962 42.1385C225.264 41.5452 225.688 41.0845 226.235 40.7564C226.782 40.4283 227.428 40.2642 228.174 40.2642C228.919 40.2642 229.566 40.4283 230.113 40.7564C230.659 41.0845 231.082 41.5452 231.38 42.1385C231.682 42.7318 231.833 43.4228 231.833 44.2116C231.833 45.0005 231.682 45.6899 231.38 46.2798C231.082 46.8698 230.659 47.3288 230.113 47.657C229.566 47.9851 228.919 48.1491 228.174 48.1491ZM228.184 46.7074C228.588 46.7074 228.926 46.5964 229.198 46.3743C229.47 46.1489 229.672 45.8473 229.804 45.4695C229.94 45.0916 230.008 44.6707 230.008 44.2067C230.008 43.7393 229.94 43.3168 229.804 42.9389C229.672 42.5578 229.47 42.2545 229.198 42.0291C228.926 41.8037 228.588 41.6911 228.184 41.6911C227.769 41.6911 227.425 41.8037 227.15 42.0291C226.878 42.2545 226.674 42.5578 226.538 42.9389C226.405 43.3168 226.339 43.7393 226.339 44.2067C226.339 44.6707 226.405 45.0916 226.538 45.4695C226.674 45.8473 226.878 46.1489 227.15 46.3743C227.425 46.5964 227.769 46.7074 228.184 46.7074ZM239.922 40.3636L237.202 48H235.213L232.494 40.3636H234.413L236.168 46.0362H236.248L238.007 40.3636H239.922ZM244.288 48.1491C243.522 48.1491 242.861 47.9901 242.304 47.6719C241.751 47.3504 241.325 46.8963 241.026 46.3097C240.728 45.7197 240.579 45.0253 240.579 44.2266C240.579 43.4411 240.728 42.7517 241.026 42.1584C241.328 41.5618 241.749 41.0978 242.289 40.7663C242.829 40.4316 243.464 40.2642 244.193 40.2642C244.664 40.2642 245.108 40.3404 245.526 40.4929C245.947 40.642 246.318 40.8741 246.639 41.1889C246.964 41.5038 247.219 41.9048 247.405 42.392C247.591 42.8759 247.683 43.4527 247.683 44.1222V44.674H241.424V43.4609H245.958C245.955 43.1162 245.88 42.8097 245.735 42.5412C245.589 42.2694 245.385 42.0556 245.123 41.8999C244.865 41.7441 244.563 41.6662 244.218 41.6662C243.85 41.6662 243.527 41.7557 243.249 41.9347C242.97 42.1103 242.753 42.3423 242.597 42.6307C242.445 42.9157 242.367 43.2289 242.364 43.5703V44.6293C242.364 45.0734 242.445 45.4545 242.607 45.7727C242.77 46.0876 242.997 46.3295 243.289 46.4986C243.58 46.6643 243.922 46.7472 244.313 46.7472C244.575 46.7472 244.811 46.7107 245.024 46.6378C245.236 46.5616 245.42 46.4505 245.575 46.3047C245.731 46.1589 245.849 45.9782 245.928 45.7628L247.609 45.9517C247.503 46.3958 247.301 46.7836 247.002 47.1151C246.707 47.4432 246.329 47.6984 245.869 47.8807C245.408 48.0597 244.881 48.1491 244.288 48.1491ZM249.206 48V40.3636H250.951V41.6364H251.031C251.17 41.1955 251.408 40.8558 251.746 40.6172C252.088 40.3752 252.477 40.2543 252.915 40.2543C253.014 40.2543 253.125 40.2592 253.248 40.2692C253.374 40.2758 253.478 40.2874 253.561 40.304V41.9595C253.485 41.933 253.364 41.9098 253.198 41.8899C253.036 41.8667 252.878 41.8551 252.726 41.8551C252.398 41.8551 252.103 41.9264 251.841 42.0689C251.582 42.2081 251.379 42.402 251.229 42.6506C251.08 42.8991 251.006 43.1858 251.006 43.5107V48H249.206Z" fill="#184BC8"/>
<path d="M213.5 50.7841H253.835V51.7386H213.5V50.7841Z" fill="#184BC8"/>
<line x1="279" y1="34.5" x2="279" y2="50.5" stroke="#757575"/>
<path d="M303.504 47.5V37.3182H307.322C308.105 37.3182 308.761 37.464 309.291 37.7557C309.825 38.0473 310.228 38.4484 310.499 38.9588C310.774 39.4659 310.912 40.0426 310.912 40.6889C310.912 41.3419 310.774 41.9219 310.499 42.429C310.224 42.9361 309.818 43.3355 309.281 43.6271C308.744 43.9155 308.083 44.0597 307.298 44.0597H304.767V42.5433H307.049C307.506 42.5433 307.881 42.4638 308.173 42.3047C308.464 42.1456 308.68 41.9268 308.819 41.6484C308.961 41.37 309.033 41.0502 309.033 40.6889C309.033 40.3277 308.961 40.0095 308.819 39.7344C308.68 39.4593 308.463 39.2455 308.168 39.093C307.876 38.9373 307.5 38.8594 307.039 38.8594H305.349V47.5H303.504ZM312.434 47.5V39.8636H314.18V41.1364H314.259C314.398 40.6955 314.637 40.3558 314.975 40.1172C315.316 39.8752 315.706 39.7543 316.143 39.7543C316.243 39.7543 316.354 39.7592 316.476 39.7692C316.602 39.7758 316.707 39.7874 316.79 39.804V41.4595C316.713 41.433 316.592 41.4098 316.427 41.3899C316.264 41.3667 316.107 41.3551 315.954 41.3551C315.626 41.3551 315.331 41.4264 315.069 41.5689C314.811 41.7081 314.607 41.902 314.458 42.1506C314.309 42.3991 314.234 42.6858 314.234 43.0107V47.5H312.434ZM321.051 47.6491C320.286 47.6491 319.625 47.4901 319.068 47.1719C318.514 46.8504 318.088 46.3963 317.79 45.8097C317.492 45.2197 317.343 44.5253 317.343 43.7266C317.343 42.9411 317.492 42.2517 317.79 41.6584C318.092 41.0618 318.513 40.5978 319.053 40.2663C319.593 39.9316 320.228 39.7642 320.957 39.7642C321.428 39.7642 321.872 39.8404 322.289 39.9929C322.71 40.142 323.082 40.3741 323.403 40.6889C323.728 41.0038 323.983 41.4048 324.169 41.892C324.354 42.3759 324.447 42.9527 324.447 43.6222V44.174H318.188V42.9609H322.722C322.719 42.6162 322.644 42.3097 322.498 42.0412C322.352 41.7694 322.149 41.5556 321.887 41.3999C321.628 41.2441 321.327 41.1662 320.982 41.1662C320.614 41.1662 320.291 41.2557 320.012 41.4347C319.734 41.6103 319.517 41.8423 319.361 42.1307C319.209 42.4157 319.131 42.7289 319.127 43.0703V44.1293C319.127 44.5734 319.209 44.9545 319.371 45.2727C319.533 45.5876 319.761 45.8295 320.052 45.9986C320.344 46.1643 320.685 46.2472 321.076 46.2472C321.338 46.2472 321.575 46.2107 321.787 46.1378C321.999 46.0616 322.183 45.9505 322.339 45.8047C322.495 45.6589 322.613 45.4782 322.692 45.2628L324.373 45.4517C324.266 45.8958 324.064 46.2836 323.766 46.6151C323.471 46.9432 323.093 47.1984 322.632 47.3807C322.172 47.5597 321.645 47.6491 321.051 47.6491ZM332.005 41.8821L330.365 42.0611C330.318 41.8954 330.237 41.7396 330.121 41.5938C330.008 41.4479 329.856 41.3303 329.664 41.2408C329.471 41.1513 329.236 41.1065 328.958 41.1065C328.583 41.1065 328.268 41.1877 328.013 41.3501C327.761 41.5125 327.637 41.723 327.64 41.9815C327.637 42.2036 327.718 42.3842 327.884 42.5234C328.053 42.6626 328.331 42.777 328.719 42.8665L330.021 43.1449C330.744 43.3007 331.281 43.5476 331.632 43.8857C331.987 44.2237 332.166 44.6662 332.169 45.2131C332.166 45.6937 332.025 46.1179 331.747 46.4858C331.472 46.8504 331.089 47.1354 330.598 47.3409C330.108 47.5464 329.544 47.6491 328.908 47.6491C327.973 47.6491 327.221 47.4536 326.651 47.0625C326.081 46.6681 325.741 46.1196 325.632 45.4169L327.387 45.2479C327.466 45.5926 327.635 45.8527 327.894 46.0284C328.152 46.2041 328.489 46.2919 328.903 46.2919C329.33 46.2919 329.673 46.2041 329.932 46.0284C330.194 45.8527 330.325 45.6357 330.325 45.3771C330.325 45.1584 330.24 44.9777 330.071 44.8352C329.905 44.6927 329.647 44.5833 329.296 44.5071L327.993 44.2337C327.261 44.0812 326.719 43.8243 326.367 43.4631C326.016 43.0985 325.842 42.6378 325.845 42.081C325.842 41.6103 325.97 41.2027 326.228 40.858C326.49 40.5099 326.853 40.2415 327.317 40.0526C327.784 39.8603 328.323 39.7642 328.933 39.7642C329.828 39.7642 330.532 39.9548 331.046 40.3359C331.563 40.7171 331.883 41.2325 332.005 41.8821ZM339.689 41.8821L338.048 42.0611C338.002 41.8954 337.921 41.7396 337.805 41.5938C337.692 41.4479 337.539 41.3303 337.347 41.2408C337.155 41.1513 336.92 41.1065 336.641 41.1065C336.267 41.1065 335.952 41.1877 335.697 41.3501C335.445 41.5125 335.32 41.723 335.324 41.9815C335.32 42.2036 335.402 42.3842 335.567 42.5234C335.736 42.6626 336.015 42.777 336.403 42.8665L337.705 43.1449C338.428 43.3007 338.965 43.5476 339.316 43.8857C339.671 44.2237 339.849 44.6662 339.853 45.2131C339.849 45.6937 339.709 46.1179 339.43 46.4858C339.155 46.8504 338.772 47.1354 338.282 47.3409C337.791 47.5464 337.228 47.6491 336.591 47.6491C335.657 47.6491 334.904 47.4536 334.334 47.0625C333.764 46.6681 333.425 46.1196 333.315 45.4169L335.07 45.2479C335.15 45.5926 335.319 45.8527 335.577 46.0284C335.836 46.2041 336.172 46.2919 336.586 46.2919C337.014 46.2919 337.357 46.2041 337.616 46.0284C337.877 45.8527 338.008 45.6357 338.008 45.3771C338.008 45.1584 337.924 44.9777 337.755 44.8352C337.589 44.6927 337.331 44.5833 336.979 44.5071L335.677 44.2337C334.944 44.0812 334.402 43.8243 334.051 43.4631C333.7 43.0985 333.526 42.6378 333.529 42.081C333.526 41.6103 333.653 41.2027 333.912 40.858C334.174 40.5099 334.537 40.2415 335.001 40.0526C335.468 39.8603 336.006 39.7642 336.616 39.7642C337.511 39.7642 338.215 39.9548 338.729 40.3359C339.246 40.7171 339.566 41.2325 339.689 41.8821ZM344.718 47.6491C343.952 47.6491 343.291 47.4901 342.734 47.1719C342.18 46.8504 341.754 46.3963 341.456 45.8097C341.158 45.2197 341.009 44.5253 341.009 43.7266C341.009 42.9411 341.158 42.2517 341.456 41.6584C341.758 41.0618 342.179 40.5978 342.719 40.2663C343.259 39.9316 343.894 39.7642 344.623 39.7642C345.094 39.7642 345.538 39.8404 345.955 39.9929C346.376 40.142 346.748 40.3741 347.069 40.6889C347.394 41.0038 347.649 41.4048 347.835 41.892C348.02 42.3759 348.113 42.9527 348.113 43.6222V44.174H341.854V42.9609H346.388C346.385 42.6162 346.31 42.3097 346.164 42.0412C346.018 41.7694 345.815 41.5556 345.553 41.3999C345.294 41.2441 344.993 41.1662 344.648 41.1662C344.28 41.1662 343.957 41.2557 343.678 41.4347C343.4 41.6103 343.183 41.8423 343.027 42.1307C342.875 42.4157 342.797 42.7289 342.794 43.0703V44.1293C342.794 44.5734 342.875 44.9545 343.037 45.2727C343.2 45.5876 343.427 45.8295 343.718 45.9986C344.01 46.1643 344.351 46.2472 344.742 46.2472C345.004 46.2472 345.241 46.2107 345.453 46.1378C345.665 46.0616 345.849 45.9505 346.005 45.8047C346.161 45.6589 346.279 45.4782 346.358 45.2628L348.039 45.4517C347.932 45.8958 347.73 46.2836 347.432 46.6151C347.137 46.9432 346.759 47.1984 346.298 47.3807C345.838 47.5597 345.311 47.6491 344.718 47.6491ZM352.469 47.6342C351.87 47.6342 351.333 47.4801 350.859 47.1719C350.385 46.8636 350.01 46.4162 349.735 45.8295C349.46 45.2429 349.322 44.5303 349.322 43.6918C349.322 42.8433 349.462 42.1274 349.74 41.544C350.022 40.9574 350.401 40.5149 350.879 40.2166C351.356 39.915 351.888 39.7642 352.474 39.7642C352.922 39.7642 353.29 39.8404 353.578 39.9929C353.866 40.142 354.095 40.3227 354.264 40.5348C354.433 40.7436 354.564 40.9408 354.657 41.1264H354.732V37.3182H356.536V47.5H354.766V46.2969H354.657C354.564 46.4825 354.43 46.6797 354.254 46.8885C354.079 47.094 353.847 47.2696 353.558 47.4155C353.27 47.5613 352.907 47.6342 352.469 47.6342ZM352.972 46.1577C353.353 46.1577 353.678 46.0549 353.946 45.8494C354.214 45.6406 354.418 45.3506 354.558 44.9794C354.697 44.6082 354.766 44.1757 354.766 43.6818C354.766 43.188 354.697 42.7588 354.558 42.3942C354.422 42.0296 354.219 41.7462 353.951 41.544C353.686 41.3419 353.359 41.2408 352.972 41.2408C352.571 41.2408 352.236 41.3452 351.967 41.554C351.699 41.7628 351.497 42.0511 351.361 42.419C351.225 42.7869 351.157 43.2079 351.157 43.6818C351.157 44.1591 351.225 44.585 351.361 44.9595C351.5 45.3307 351.704 45.6241 351.972 45.8395C352.244 46.0516 352.577 46.1577 352.972 46.1577Z" fill="#102DA3"/>
<line x1="383" y1="34.5" x2="383" y2="50.5" stroke="#757575"/>
<path d="M407.504 47.5V37.3182H414.027V38.8643H409.349V41.6286H413.58V43.1747H409.349V47.5H407.504ZM418.398 47.6491C417.653 47.6491 417.006 47.4851 416.459 47.157C415.912 46.8288 415.488 46.3698 415.187 45.7798C414.888 45.1899 414.739 44.5005 414.739 43.7116C414.739 42.9228 414.888 42.2318 415.187 41.6385C415.488 41.0452 415.912 40.5845 416.459 40.2564C417.006 39.9283 417.653 39.7642 418.398 39.7642C419.144 39.7642 419.79 39.9283 420.337 40.2564C420.884 40.5845 421.307 41.0452 421.605 41.6385C421.907 42.2318 422.057 42.9228 422.057 43.7116C422.057 44.5005 421.907 45.1899 421.605 45.7798C421.307 46.3698 420.884 46.8288 420.337 47.157C419.79 47.4851 419.144 47.6491 418.398 47.6491ZM418.408 46.2074C418.813 46.2074 419.151 46.0964 419.422 45.8743C419.694 45.6489 419.896 45.3473 420.029 44.9695C420.165 44.5916 420.233 44.1707 420.233 43.7067C420.233 43.2393 420.165 42.8168 420.029 42.4389C419.896 42.0578 419.694 41.7545 419.422 41.5291C419.151 41.3037 418.813 41.1911 418.408 41.1911C417.994 41.1911 417.649 41.3037 417.374 41.5291C417.102 41.7545 416.898 42.0578 416.763 42.4389C416.63 42.8168 416.564 43.2393 416.564 43.7067C416.564 44.1707 416.63 44.5916 416.763 44.9695C416.898 45.3473 417.102 45.6489 417.374 45.8743C417.649 46.0964 417.994 46.2074 418.408 46.2074ZM426.916 47.6491C426.154 47.6491 425.499 47.4818 424.952 47.147C424.408 46.8123 423.989 46.3499 423.694 45.7599C423.403 45.1667 423.257 44.4839 423.257 43.7116C423.257 42.9361 423.406 42.2517 423.704 41.6584C424.002 41.0618 424.423 40.5978 424.967 40.2663C425.514 39.9316 426.16 39.7642 426.906 39.7642C427.526 39.7642 428.074 39.8786 428.551 40.1072C429.032 40.3326 429.415 40.6525 429.7 41.0668C429.985 41.4777 430.147 41.9583 430.187 42.5085H428.467C428.397 42.1406 428.232 41.834 427.97 41.5888C427.711 41.3402 427.365 41.2159 426.931 41.2159C426.563 41.2159 426.24 41.3153 425.961 41.5142C425.683 41.7098 425.466 41.9915 425.31 42.3594C425.158 42.7273 425.081 43.1681 425.081 43.6818C425.081 44.2022 425.158 44.6496 425.31 45.0241C425.462 45.3954 425.676 45.6821 425.951 45.8842C426.23 46.0831 426.556 46.1825 426.931 46.1825C427.196 46.1825 427.433 46.1328 427.642 46.0334C427.854 45.9306 428.031 45.7831 428.174 45.5909C428.316 45.3987 428.414 45.165 428.467 44.8899H430.187C430.144 45.4302 429.985 45.9091 429.71 46.3267C429.435 46.741 429.06 47.0658 428.586 47.3011C428.112 47.5331 427.556 47.6491 426.916 47.6491ZM436.532 44.2884V39.8636H438.332V47.5H436.587V46.1428H436.507C436.335 46.5703 436.052 46.92 435.657 47.1918C435.266 47.4635 434.784 47.5994 434.21 47.5994C433.71 47.5994 433.267 47.4884 432.883 47.2663C432.502 47.041 432.204 46.7145 431.988 46.2869C431.773 45.8561 431.665 45.3357 431.665 44.7259V39.8636H433.465V44.4474C433.465 44.9313 433.597 45.3158 433.862 45.6009C434.128 45.8859 434.476 46.0284 434.906 46.0284C435.172 46.0284 435.428 45.9638 435.677 45.8345C435.926 45.7053 436.129 45.513 436.289 45.2578C436.451 44.9993 436.532 44.6761 436.532 44.2884ZM446.218 41.8821L444.577 42.0611C444.531 41.8954 444.45 41.7396 444.334 41.5938C444.221 41.4479 444.069 41.3303 443.876 41.2408C443.684 41.1513 443.449 41.1065 443.17 41.1065C442.796 41.1065 442.481 41.1877 442.226 41.3501C441.974 41.5125 441.85 41.723 441.853 41.9815C441.85 42.2036 441.931 42.3842 442.097 42.5234C442.266 42.6626 442.544 42.777 442.932 42.8665L444.234 43.1449C444.957 43.3007 445.494 43.5476 445.845 43.8857C446.2 44.2237 446.379 44.6662 446.382 45.2131C446.379 45.6937 446.238 46.1179 445.96 46.4858C445.684 46.8504 445.302 47.1354 444.811 47.3409C444.321 47.5464 443.757 47.6491 443.121 47.6491C442.186 47.6491 441.434 47.4536 440.864 47.0625C440.294 46.6681 439.954 46.1196 439.844 45.4169L441.599 45.2479C441.679 45.5926 441.848 45.8527 442.107 46.0284C442.365 46.2041 442.701 46.2919 443.116 46.2919C443.543 46.2919 443.886 46.2041 444.145 46.0284C444.407 45.8527 444.538 45.6357 444.538 45.3771C444.538 45.1584 444.453 44.9777 444.284 44.8352C444.118 44.6927 443.86 44.5833 443.509 44.5071L442.206 44.2337C441.473 44.0812 440.932 43.8243 440.58 43.4631C440.229 43.0985 440.055 42.6378 440.058 42.081C440.055 41.6103 440.183 41.2027 440.441 40.858C440.703 40.5099 441.066 40.2415 441.53 40.0526C441.997 39.8603 442.536 39.7642 443.146 39.7642C444.04 39.7642 444.745 39.9548 445.259 40.3359C445.776 40.7171 446.095 41.2325 446.218 41.8821Z" fill="#102DA3"/>
<rect x="405.5" y="36.5" width="43" height="12" rx="3" stroke="#184BC8" stroke-width="2"/>
<line x1="472" y1="34.5" x2="472" y2="50.5" stroke="#757575"/>
<g opacity="0.3">
<path d="M499.955 47.5H496.504V37.3182H500.024C501.035 37.3182 501.903 37.522 502.629 37.9297C503.358 38.334 503.919 38.9157 504.31 39.6747C504.701 40.4337 504.896 41.3419 504.896 42.3991C504.896 43.4598 504.699 44.3712 504.305 45.1335C503.914 45.8958 503.348 46.4808 502.609 46.8885C501.874 47.2962 500.989 47.5 499.955 47.5ZM498.349 45.9041H499.865C500.574 45.9041 501.166 45.7749 501.64 45.5163C502.114 45.2545 502.47 44.8651 502.709 44.348C502.947 43.8277 503.067 43.178 503.067 42.3991C503.067 41.6203 502.947 40.974 502.709 40.4602C502.47 39.9432 502.117 39.5571 501.65 39.3018C501.186 39.0433 500.609 38.9141 499.92 38.9141H498.349V45.9041ZM506.569 47.5V39.8636H508.369V47.5H506.569ZM507.474 38.7798C507.189 38.7798 506.944 38.6854 506.738 38.4964C506.533 38.3042 506.43 38.0739 506.43 37.8054C506.43 37.5336 506.533 37.3033 506.738 37.1143C506.944 36.9221 507.189 36.826 507.474 36.826C507.762 36.826 508.008 36.9221 508.21 37.1143C508.415 37.3033 508.518 37.5336 508.518 37.8054C508.518 38.0739 508.415 38.3042 508.21 38.4964C508.008 38.6854 507.762 38.7798 507.474 38.7798ZM516.255 41.8821L514.615 42.0611C514.568 41.8954 514.487 41.7396 514.371 41.5938C514.258 41.4479 514.106 41.3303 513.914 41.2408C513.721 41.1513 513.486 41.1065 513.208 41.1065C512.833 41.1065 512.518 41.1877 512.263 41.3501C512.011 41.5125 511.887 41.723 511.89 41.9815C511.887 42.2036 511.968 42.3842 512.134 42.5234C512.303 42.6626 512.581 42.777 512.969 42.8665L514.271 43.1449C514.994 43.3007 515.531 43.5476 515.882 43.8857C516.237 44.2237 516.416 44.6662 516.419 45.2131C516.416 45.6937 516.275 46.1179 515.997 46.4858C515.722 46.8504 515.339 47.1354 514.848 47.3409C514.358 47.5464 513.794 47.6491 513.158 47.6491C512.223 47.6491 511.471 47.4536 510.901 47.0625C510.331 46.6681 509.991 46.1196 509.882 45.4169L511.637 45.2479C511.716 45.5926 511.885 45.8527 512.144 46.0284C512.402 46.2041 512.739 46.2919 513.153 46.2919C513.58 46.2919 513.923 46.2041 514.182 46.0284C514.444 45.8527 514.575 45.6357 514.575 45.3771C514.575 45.1584 514.49 44.9777 514.321 44.8352C514.155 44.6927 513.897 44.5833 513.546 44.5071L512.243 44.2337C511.511 44.0812 510.969 43.8243 510.617 43.4631C510.266 43.0985 510.092 42.6378 510.095 42.081C510.092 41.6103 510.22 41.2027 510.478 40.858C510.74 40.5099 511.103 40.2415 511.567 40.0526C512.034 39.8603 512.573 39.7642 513.183 39.7642C514.078 39.7642 514.782 39.9548 515.296 40.3359C515.813 40.7171 516.133 41.2325 516.255 41.8821ZM520.101 47.6541C519.617 47.6541 519.181 47.5679 518.793 47.3956C518.409 47.2199 518.104 46.9614 517.878 46.62C517.656 46.2786 517.545 45.8577 517.545 45.3572C517.545 44.9264 517.625 44.5701 517.784 44.2884C517.943 44.0066 518.16 43.7812 518.435 43.6122C518.71 43.4432 519.02 43.3156 519.365 43.2294C519.713 43.1399 520.073 43.0753 520.444 43.0355C520.891 42.9891 521.254 42.9477 521.532 42.9112C521.811 42.8714 522.013 42.8118 522.139 42.7322C522.268 42.6494 522.333 42.5218 522.333 42.3494V42.3196C522.333 41.9451 522.222 41.6551 522 41.4496C521.778 41.2441 521.458 41.1413 521.04 41.1413C520.599 41.1413 520.25 41.2375 519.991 41.4297C519.736 41.6219 519.564 41.849 519.474 42.1108L517.794 41.8722C517.926 41.4081 518.145 41.0204 518.45 40.7088C518.755 40.3939 519.128 40.1586 519.569 40.0028C520.01 39.8438 520.497 39.7642 521.03 39.7642C521.398 39.7642 521.765 39.8073 522.129 39.8935C522.494 39.9796 522.827 40.1222 523.128 40.321C523.43 40.5166 523.672 40.7834 523.854 41.1214C524.04 41.4595 524.133 41.8821 524.133 42.3892V47.5H522.403V46.451H522.343C522.233 46.6631 522.079 46.862 521.881 47.0476C521.685 47.2299 521.438 47.3774 521.14 47.4901C520.845 47.5994 520.498 47.6541 520.101 47.6541ZM520.568 46.3317C520.929 46.3317 521.242 46.2604 521.508 46.1179C521.773 45.9721 521.977 45.7798 522.119 45.5412C522.265 45.3026 522.338 45.0424 522.338 44.7607V43.8608C522.282 43.9072 522.185 43.9503 522.05 43.9901C521.917 44.0298 521.768 44.0646 521.602 44.0945C521.436 44.1243 521.272 44.1508 521.11 44.174C520.948 44.1972 520.807 44.2171 520.687 44.2337C520.419 44.2701 520.179 44.3298 519.966 44.4126C519.754 44.4955 519.587 44.6115 519.464 44.7607C519.342 44.9065 519.28 45.0954 519.28 45.3274C519.28 45.6589 519.401 45.9091 519.643 46.0781C519.885 46.2472 520.193 46.3317 520.568 46.3317ZM526.022 47.5V37.3182H527.822V41.1264H527.896C527.989 40.9408 528.12 40.7436 528.289 40.5348C528.458 40.3227 528.687 40.142 528.975 39.9929C529.263 39.8404 529.631 39.7642 530.079 39.7642C530.669 39.7642 531.201 39.915 531.675 40.2166C532.152 40.5149 532.53 40.9574 532.808 41.544C533.09 42.1274 533.231 42.8433 533.231 43.6918C533.231 44.5303 533.093 45.2429 532.818 45.8295C532.543 46.4162 532.168 46.8636 531.694 47.1719C531.22 47.4801 530.684 47.6342 530.084 47.6342C529.646 47.6342 529.283 47.5613 528.995 47.4155C528.706 47.2696 528.474 47.094 528.299 46.8885C528.126 46.6797 527.992 46.4825 527.896 46.2969H527.792V47.5H526.022ZM527.787 43.6818C527.787 44.1757 527.856 44.6082 527.996 44.9794C528.138 45.3506 528.342 45.6406 528.607 45.8494C528.876 46.0549 529.2 46.1577 529.581 46.1577C529.979 46.1577 530.312 46.0516 530.581 45.8395C530.849 45.6241 531.051 45.3307 531.187 44.9595C531.327 44.585 531.396 44.1591 531.396 43.6818C531.396 43.2079 531.328 42.7869 531.192 42.419C531.056 42.0511 530.854 41.7628 530.586 41.554C530.317 41.3452 529.983 41.2408 529.581 41.2408C529.197 41.2408 528.871 41.3419 528.602 41.544C528.334 41.7462 528.13 42.0296 527.991 42.3942C527.855 42.7588 527.787 43.188 527.787 43.6818ZM536.56 37.3182V47.5H534.761V37.3182H536.56ZM541.792 47.6491C541.026 47.6491 540.365 47.4901 539.808 47.1719C539.255 46.8504 538.829 46.3963 538.53 45.8097C538.232 45.2197 538.083 44.5253 538.083 43.7266C538.083 42.9411 538.232 42.2517 538.53 41.6584C538.832 41.0618 539.253 40.5978 539.793 40.2663C540.333 39.9316 540.968 39.7642 541.697 39.7642C542.168 39.7642 542.612 39.8404 543.03 39.9929C543.451 40.142 543.822 40.3741 544.143 40.6889C544.468 41.0038 544.723 41.4048 544.909 41.892C545.095 42.3759 545.187 42.9527 545.187 43.6222V44.174H538.928V42.9609H543.462C543.459 42.6162 543.384 42.3097 543.238 42.0412C543.093 41.7694 542.889 41.5556 542.627 41.3999C542.368 41.2441 542.067 41.1662 541.722 41.1662C541.354 41.1662 541.031 41.2557 540.753 41.4347C540.474 41.6103 540.257 41.8423 540.101 42.1307C539.949 42.4157 539.871 42.7289 539.868 43.0703V44.1293C539.868 44.5734 539.949 44.9545 540.111 45.2727C540.274 45.5876 540.501 45.8295 540.792 45.9986C541.084 46.1643 541.425 46.2472 541.817 46.2472C542.078 46.2472 542.315 46.2107 542.528 46.1378C542.74 46.0616 542.924 45.9505 543.079 45.8047C543.235 45.6589 543.353 45.4782 543.432 45.2628L545.113 45.4517C545.007 45.8958 544.805 46.2836 544.506 46.6151C544.211 46.9432 543.833 47.1984 543.373 47.3807C542.912 47.5597 542.385 47.6491 541.792 47.6491ZM549.544 47.6342C548.944 47.6342 548.407 47.4801 547.933 47.1719C547.459 46.8636 547.084 46.4162 546.809 45.8295C546.534 45.2429 546.397 44.5303 546.397 43.6918C546.397 42.8433 546.536 42.1274 546.814 41.544C547.096 40.9574 547.475 40.5149 547.953 40.2166C548.43 39.915 548.962 39.7642 549.549 39.7642C549.996 39.7642 550.364 39.8404 550.652 39.9929C550.941 40.142 551.169 40.3227 551.338 40.5348C551.507 40.7436 551.638 40.9408 551.731 41.1264H551.806V37.3182H553.61V47.5H551.841V46.2969H551.731C551.638 46.4825 551.504 46.6797 551.328 46.8885C551.153 47.094 550.921 47.2696 550.632 47.4155C550.344 47.5613 549.981 47.6342 549.544 47.6342ZM550.046 46.1577C550.427 46.1577 550.752 46.0549 551.02 45.8494C551.289 45.6406 551.493 45.3506 551.632 44.9794C551.771 44.6082 551.841 44.1757 551.841 43.6818C551.841 43.188 551.771 42.7588 551.632 42.3942C551.496 42.0296 551.294 41.7462 551.025 41.544C550.76 41.3419 550.434 41.2408 550.046 41.2408C549.645 41.2408 549.31 41.3452 549.042 41.554C548.773 41.7628 548.571 42.0511 548.435 42.419C548.299 42.7869 548.231 43.2079 548.231 43.6818C548.231 44.1591 548.299 44.585 548.435 44.9595C548.574 45.3307 548.778 45.6241 549.047 45.8395C549.318 46.0516 549.651 46.1577 550.046 46.1577Z" fill="#0F67F5"/>
</g>
</svg>
