<svg width="672" height="104" viewBox="0 0 672 104" fill="none" xmlns="http://www.w3.org/2000/svg">
<rect width="672" height="104" fill="#F6F6F6"/>
<g filter="url(#filter0_dd_13251_3406)">
<rect x="199" y="32" width="269" height="40" rx="4" fill="#333333"/>
<path d="M215.773 47.6136V46.3636H224.5V47.6136H220.841V58H219.432V47.6136H215.773ZM227.834 52.75V58H226.493V46.3636H227.834V50.6364H227.947C228.152 50.1856 228.459 49.8277 228.868 49.5625C229.281 49.2936 229.83 49.1591 230.516 49.1591C231.11 49.1591 231.631 49.2784 232.078 49.517C232.525 49.7519 232.872 50.1136 233.118 50.6023C233.368 51.0871 233.493 51.7045 233.493 52.4545V58H232.152V52.5455C232.152 51.8523 231.972 51.3163 231.612 50.9375C231.256 50.5549 230.762 50.3636 230.129 50.3636C229.69 50.3636 229.296 50.4564 228.947 50.642C228.603 50.8277 228.33 51.0985 228.129 51.4545C227.932 51.8106 227.834 52.2424 227.834 52.75ZM235.946 58V49.2727H237.287V58H235.946ZM236.628 47.8182C236.366 47.8182 236.141 47.7292 235.952 47.5511C235.766 47.3731 235.673 47.1591 235.673 46.9091C235.673 46.6591 235.766 46.4451 235.952 46.267C236.141 46.089 236.366 46 236.628 46C236.889 46 237.113 46.089 237.298 46.267C237.488 46.4451 237.582 46.6591 237.582 46.9091C237.582 47.1591 237.488 47.3731 237.298 47.5511C237.113 47.7292 236.889 47.8182 236.628 47.8182ZM245.925 51.2273L244.72 51.5682C244.644 51.3674 244.533 51.1723 244.385 50.983C244.241 50.7898 244.044 50.6307 243.794 50.5057C243.544 50.3807 243.224 50.3182 242.834 50.3182C242.3 50.3182 241.855 50.4413 241.499 50.6875C241.146 50.9299 240.97 51.2386 240.97 51.6136C240.97 51.947 241.091 52.2102 241.334 52.4034C241.576 52.5966 241.955 52.7576 242.47 52.8864L243.766 53.2045C244.546 53.3939 245.127 53.6837 245.51 54.0739C245.893 54.4602 246.084 54.9583 246.084 55.5682C246.084 56.0682 245.94 56.5152 245.652 56.9091C245.368 57.303 244.97 57.6136 244.459 57.8409C243.947 58.0682 243.353 58.1818 242.675 58.1818C241.785 58.1818 241.048 57.9886 240.464 57.6023C239.881 57.2159 239.512 56.6515 239.357 55.9091L240.629 55.5909C240.75 56.0606 240.98 56.4129 241.317 56.6477C241.658 56.8826 242.103 57 242.652 57C243.277 57 243.773 56.8674 244.141 56.6023C244.512 56.3333 244.697 56.0114 244.697 55.6364C244.697 55.3333 244.591 55.0795 244.379 54.875C244.167 54.6667 243.841 54.5114 243.402 54.4091L241.947 54.0682C241.148 53.8788 240.561 53.5852 240.186 53.1875C239.815 52.786 239.629 52.2841 239.629 51.6818C239.629 51.1894 239.768 50.7538 240.044 50.375C240.324 49.9962 240.705 49.6989 241.186 49.483C241.671 49.267 242.22 49.1591 242.834 49.1591C243.697 49.1591 244.375 49.3485 244.868 49.7273C245.364 50.1061 245.716 50.6061 245.925 51.2273ZM252.602 58V49.2727H253.943V58H252.602ZM253.284 47.8182C253.023 47.8182 252.797 47.7292 252.608 47.5511C252.422 47.3731 252.33 47.1591 252.33 46.9091C252.33 46.6591 252.422 46.4451 252.608 46.267C252.797 46.089 253.023 46 253.284 46C253.545 46 253.769 46.089 253.955 46.267C254.144 46.4451 254.239 46.6591 254.239 46.9091C254.239 47.1591 254.144 47.3731 253.955 47.5511C253.769 47.7292 253.545 47.8182 253.284 47.8182ZM262.581 51.2273L261.376 51.5682C261.301 51.3674 261.189 51.1723 261.041 50.983C260.897 50.7898 260.7 50.6307 260.45 50.5057C260.2 50.3807 259.88 50.3182 259.49 50.3182C258.956 50.3182 258.511 50.4413 258.155 50.6875C257.803 50.9299 257.626 51.2386 257.626 51.6136C257.626 51.947 257.748 52.2102 257.99 52.4034C258.232 52.5966 258.611 52.7576 259.126 52.8864L260.422 53.2045C261.202 53.3939 261.784 53.6837 262.166 54.0739C262.549 54.4602 262.74 54.9583 262.74 55.5682C262.74 56.0682 262.596 56.5152 262.308 56.9091C262.024 57.303 261.626 57.6136 261.115 57.8409C260.604 58.0682 260.009 58.1818 259.331 58.1818C258.441 58.1818 257.704 57.9886 257.121 57.6023C256.537 57.2159 256.168 56.6515 256.013 55.9091L257.286 55.5909C257.407 56.0606 257.636 56.4129 257.973 56.6477C258.314 56.8826 258.759 57 259.308 57C259.933 57 260.429 56.8674 260.797 56.6023C261.168 56.3333 261.354 56.0114 261.354 55.6364C261.354 55.3333 261.248 55.0795 261.036 54.875C260.823 54.6667 260.498 54.5114 260.058 54.4091L258.604 54.0682C257.804 53.8788 257.217 53.5852 256.842 53.1875C256.471 52.786 256.286 52.2841 256.286 51.6818C256.286 51.1894 256.424 50.7538 256.7 50.375C256.981 49.9962 257.361 49.6989 257.842 49.483C258.327 49.267 258.876 49.1591 259.49 49.1591C260.354 49.1591 261.032 49.3485 261.524 49.7273C262.02 50.1061 262.373 50.6061 262.581 51.2273ZM273.054 49.2727V50.4091H268.531V49.2727H273.054ZM269.849 47.1818H271.19V55.5C271.19 55.8788 271.245 56.1629 271.355 56.3523C271.469 56.5379 271.613 56.6629 271.787 56.7273C271.965 56.7879 272.152 56.8182 272.349 56.8182C272.497 56.8182 272.618 56.8106 272.713 56.7955C272.808 56.7765 272.884 56.7614 272.94 56.75L273.213 57.9545C273.122 57.9886 272.995 58.0227 272.832 58.0568C272.67 58.0947 272.463 58.1136 272.213 58.1136C271.834 58.1136 271.463 58.0322 271.099 57.8693C270.74 57.7064 270.44 57.4583 270.202 57.125C269.967 56.7917 269.849 56.3712 269.849 55.8636V47.1818ZM276.599 52.75V58H275.259V46.3636H276.599V50.6364H276.713C276.918 50.1856 277.224 49.8277 277.634 49.5625C278.046 49.2936 278.596 49.1591 279.281 49.1591C279.876 49.1591 280.397 49.2784 280.844 49.517C281.291 49.7519 281.637 50.1136 281.884 50.6023C282.134 51.0871 282.259 51.7045 282.259 52.4545V58H280.918V52.5455C280.918 51.8523 280.738 51.3163 280.378 50.9375C280.022 50.5549 279.527 50.3636 278.895 50.3636C278.455 50.3636 278.062 50.4564 277.713 50.642C277.368 50.8277 277.096 51.0985 276.895 51.4545C276.698 51.8106 276.599 52.2424 276.599 52.75ZM288.371 58.1818C287.53 58.1818 286.804 57.9962 286.195 57.625C285.589 57.25 285.121 56.7273 284.791 56.0568C284.465 55.3826 284.303 54.5985 284.303 53.7045C284.303 52.8106 284.465 52.0227 284.791 51.3409C285.121 50.6553 285.579 50.1212 286.166 49.7386C286.757 49.3523 287.446 49.1591 288.234 49.1591C288.689 49.1591 289.138 49.2348 289.581 49.3864C290.024 49.5379 290.428 49.7841 290.791 50.125C291.155 50.4621 291.445 50.9091 291.661 51.4659C291.876 52.0227 291.984 52.7083 291.984 53.5227V54.0909H285.257V52.9318H290.621C290.621 52.4394 290.522 52 290.325 51.6136C290.132 51.2273 289.856 50.9223 289.496 50.6989C289.14 50.4754 288.719 50.3636 288.234 50.3636C287.7 50.3636 287.238 50.4962 286.848 50.7614C286.462 51.0227 286.164 51.3636 285.956 51.7841C285.748 52.2045 285.643 52.6553 285.643 53.1364V53.9091C285.643 54.5682 285.757 55.1269 285.984 55.5852C286.215 56.0398 286.536 56.3864 286.945 56.625C287.354 56.8598 287.829 56.9773 288.371 56.9773C288.723 56.9773 289.041 56.928 289.325 56.8295C289.613 56.7273 289.861 56.5758 290.07 56.375C290.278 56.1705 290.439 55.9167 290.553 55.6136L291.848 55.9773C291.712 56.4167 291.482 56.803 291.161 57.1364C290.839 57.4659 290.441 57.7235 289.967 57.9091C289.494 58.0909 288.962 58.1818 288.371 58.1818ZM302.32 49.2727V50.4091H297.797V49.2727H302.32ZM299.115 47.1818H300.456V55.5C300.456 55.8788 300.511 56.1629 300.621 56.3523C300.734 56.5379 300.878 56.6629 301.053 56.7273C301.231 56.7879 301.418 56.8182 301.615 56.8182C301.763 56.8182 301.884 56.8106 301.979 56.7955C302.073 56.7765 302.149 56.7614 302.206 56.75L302.479 57.9545C302.388 57.9886 302.261 58.0227 302.098 58.0568C301.935 58.0947 301.729 58.1136 301.479 58.1136C301.1 58.1136 300.729 58.0322 300.365 57.8693C300.005 57.7064 299.706 57.4583 299.467 57.125C299.232 56.7917 299.115 56.3712 299.115 55.8636V47.1818ZM307.788 58.1818C307 58.1818 306.309 57.9943 305.714 57.6193C305.124 57.2443 304.661 56.7197 304.328 56.0455C303.999 55.3712 303.834 54.5833 303.834 53.6818C303.834 52.7727 303.999 51.9792 304.328 51.3011C304.661 50.6231 305.124 50.0966 305.714 49.7216C306.309 49.3466 307 49.1591 307.788 49.1591C308.576 49.1591 309.266 49.3466 309.857 49.7216C310.451 50.0966 310.913 50.6231 311.243 51.3011C311.576 51.9792 311.743 52.7727 311.743 53.6818C311.743 54.5833 311.576 55.3712 311.243 56.0455C310.913 56.7197 310.451 57.2443 309.857 57.6193C309.266 57.9943 308.576 58.1818 307.788 58.1818ZM307.788 56.9773C308.387 56.9773 308.879 56.8239 309.266 56.517C309.652 56.2102 309.938 55.8068 310.124 55.3068C310.309 54.8068 310.402 54.2652 310.402 53.6818C310.402 53.0985 310.309 52.5549 310.124 52.0511C309.938 51.5473 309.652 51.1402 309.266 50.8295C308.879 50.5189 308.387 50.3636 307.788 50.3636C307.19 50.3636 306.697 50.5189 306.311 50.8295C305.925 51.1402 305.639 51.5473 305.453 52.0511C305.268 52.5549 305.175 53.0985 305.175 53.6818C305.175 54.2652 305.268 54.8068 305.453 55.3068C305.639 55.8068 305.925 56.2102 306.311 56.517C306.697 56.8239 307.19 56.9773 307.788 56.9773ZM317.335 58.1818C316.547 58.1818 315.856 57.9943 315.261 57.6193C314.67 57.2443 314.208 56.7197 313.875 56.0455C313.545 55.3712 313.381 54.5833 313.381 53.6818C313.381 52.7727 313.545 51.9792 313.875 51.3011C314.208 50.6231 314.67 50.0966 315.261 49.7216C315.856 49.3466 316.547 49.1591 317.335 49.1591C318.123 49.1591 318.813 49.3466 319.403 49.7216C319.998 50.0966 320.46 50.6231 320.79 51.3011C321.123 51.9792 321.29 52.7727 321.29 53.6818C321.29 54.5833 321.123 55.3712 320.79 56.0455C320.46 56.7197 319.998 57.2443 319.403 57.6193C318.813 57.9943 318.123 58.1818 317.335 58.1818ZM317.335 56.9773C317.934 56.9773 318.426 56.8239 318.812 56.517C319.199 56.2102 319.485 55.8068 319.67 55.3068C319.856 54.8068 319.949 54.2652 319.949 53.6818C319.949 53.0985 319.856 52.5549 319.67 52.0511C319.485 51.5473 319.199 51.1402 318.812 50.8295C318.426 50.5189 317.934 50.3636 317.335 50.3636C316.737 50.3636 316.244 50.5189 315.858 50.8295C315.472 51.1402 315.186 51.5473 315 52.0511C314.814 52.5549 314.722 53.0985 314.722 53.6818C314.722 54.2652 314.814 54.8068 315 55.3068C315.186 55.8068 315.472 56.2102 315.858 56.517C316.244 56.8239 316.737 56.9773 317.335 56.9773ZM324.678 46.3636V58H323.337V46.3636H324.678ZM330.929 49.2727V50.4091H326.406V49.2727H330.929ZM327.724 47.1818H329.065V55.5C329.065 55.8788 329.12 56.1629 329.23 56.3523C329.344 56.5379 329.488 56.6629 329.662 56.7273C329.84 56.7879 330.027 56.8182 330.224 56.8182C330.372 56.8182 330.493 56.8106 330.588 56.7955C330.683 56.7765 330.759 56.7614 330.815 56.75L331.088 57.9545C330.997 57.9886 330.87 58.0227 330.707 58.0568C330.545 58.0947 330.338 58.1136 330.088 58.1136C329.709 58.1136 329.338 58.0322 328.974 57.8693C328.615 57.7064 328.315 57.4583 328.077 57.125C327.842 56.7917 327.724 56.3712 327.724 55.8636V47.1818ZM332.946 58V49.2727H334.287V58H332.946ZM333.628 47.8182C333.366 47.8182 333.141 47.7292 332.952 47.5511C332.766 47.3731 332.673 47.1591 332.673 46.9091C332.673 46.6591 332.766 46.4451 332.952 46.267C333.141 46.089 333.366 46 333.628 46C333.889 46 334.113 46.089 334.298 46.267C334.488 46.4451 334.582 46.6591 334.582 46.9091C334.582 47.1591 334.488 47.3731 334.298 47.5511C334.113 47.7292 333.889 47.8182 333.628 47.8182ZM336.743 61.2727V49.2727H338.038V50.6591H338.197C338.296 50.5076 338.432 50.3144 338.607 50.0795C338.785 49.8409 339.038 49.6288 339.368 49.4432C339.701 49.2538 340.152 49.1591 340.72 49.1591C341.455 49.1591 342.103 49.3428 342.663 49.7102C343.224 50.0777 343.661 50.5985 343.976 51.2727C344.29 51.947 344.447 52.7424 344.447 53.6591C344.447 54.5833 344.29 55.3845 343.976 56.0625C343.661 56.7367 343.226 57.2595 342.669 57.6307C342.112 57.9981 341.47 58.1818 340.743 58.1818C340.182 58.1818 339.733 58.089 339.396 57.9034C339.059 57.714 338.8 57.5 338.618 57.2614C338.436 57.0189 338.296 56.8182 338.197 56.6591H338.084V61.2727H336.743ZM338.061 53.6364C338.061 54.2955 338.158 54.8769 338.351 55.3807C338.544 55.8807 338.826 56.2727 339.197 56.5568C339.569 56.8371 340.023 56.9773 340.561 56.9773C341.122 56.9773 341.589 56.8295 341.964 56.5341C342.343 56.2348 342.627 55.8333 342.817 55.3295C343.01 54.822 343.107 54.2576 343.107 53.6364C343.107 53.0227 343.012 52.4697 342.822 51.9773C342.637 51.4811 342.355 51.089 341.976 50.8011C341.601 50.5095 341.129 50.3636 340.561 50.3636C340.016 50.3636 339.557 50.5019 339.186 50.7784C338.815 51.0511 338.535 51.4337 338.345 51.9261C338.156 52.4148 338.061 52.9848 338.061 53.6364ZM354.538 58.1818C353.72 58.1818 353.016 57.9886 352.425 57.6023C351.834 57.2159 351.379 56.6837 351.061 56.0057C350.743 55.3277 350.584 54.553 350.584 53.6818C350.584 52.7955 350.747 52.0133 351.072 51.3352C351.402 50.6534 351.86 50.1212 352.447 49.7386C353.038 49.3523 353.728 49.1591 354.516 49.1591C355.129 49.1591 355.682 49.2727 356.175 49.5C356.667 49.7273 357.071 50.0455 357.385 50.4545C357.699 50.8636 357.894 51.3409 357.97 51.8864H356.629C356.527 51.4886 356.3 51.1364 355.947 50.8295C355.599 50.5189 355.129 50.3636 354.538 50.3636C354.016 50.3636 353.557 50.5 353.163 50.7727C352.773 51.0417 352.468 51.4223 352.249 51.9148C352.033 52.4034 351.925 52.9773 351.925 53.6364C351.925 54.3106 352.031 54.8977 352.243 55.3977C352.459 55.8977 352.762 56.286 353.152 56.5625C353.546 56.839 354.008 56.9773 354.538 56.9773C354.887 56.9773 355.203 56.9167 355.487 56.7955C355.771 56.6742 356.012 56.5 356.209 56.2727C356.406 56.0455 356.546 55.7727 356.629 55.4545H357.97C357.894 55.9697 357.707 56.4337 357.408 56.8466C357.112 57.2557 356.72 57.5814 356.232 57.8239C355.747 58.0625 355.182 58.1818 354.538 58.1818ZM363.476 58.1818C362.688 58.1818 361.997 57.9943 361.402 57.6193C360.811 57.2443 360.349 56.7197 360.016 56.0455C359.686 55.3712 359.521 54.5833 359.521 53.6818C359.521 52.7727 359.686 51.9792 360.016 51.3011C360.349 50.6231 360.811 50.0966 361.402 49.7216C361.997 49.3466 362.688 49.1591 363.476 49.1591C364.264 49.1591 364.953 49.3466 365.544 49.7216C366.139 50.0966 366.601 50.6231 366.93 51.3011C367.264 51.9792 367.43 52.7727 367.43 53.6818C367.43 54.5833 367.264 55.3712 366.93 56.0455C366.601 56.7197 366.139 57.2443 365.544 57.6193C364.953 57.9943 364.264 58.1818 363.476 58.1818ZM363.476 56.9773C364.074 56.9773 364.567 56.8239 364.953 56.517C365.339 56.2102 365.625 55.8068 365.811 55.3068C365.997 54.8068 366.089 54.2652 366.089 53.6818C366.089 53.0985 365.997 52.5549 365.811 52.0511C365.625 51.5473 365.339 51.1402 364.953 50.8295C364.567 50.5189 364.074 50.3636 363.476 50.3636C362.877 50.3636 362.385 50.5189 361.999 50.8295C361.612 51.1402 361.326 51.5473 361.141 52.0511C360.955 52.5549 360.862 53.0985 360.862 53.6818C360.862 54.2652 360.955 54.8068 361.141 55.3068C361.326 55.8068 361.612 56.2102 361.999 56.517C362.385 56.8239 362.877 56.9773 363.476 56.9773ZM370.818 52.75V58H369.477V49.2727H370.773V50.6364H370.886C371.091 50.1932 371.402 49.8371 371.818 49.5682C372.235 49.2955 372.773 49.1591 373.432 49.1591C374.023 49.1591 374.54 49.2803 374.983 49.5227C375.426 49.7614 375.771 50.125 376.017 50.6136C376.263 51.0985 376.386 51.7121 376.386 52.4545V58H375.045V52.5455C375.045 51.8598 374.867 51.3258 374.511 50.9432C374.155 50.5568 373.667 50.3636 373.045 50.3636C372.617 50.3636 372.235 50.4564 371.898 50.642C371.564 50.8277 371.301 51.0985 371.108 51.4545C370.915 51.8106 370.818 52.2424 370.818 52.75ZM382.632 49.2727V50.4091H378.109V49.2727H382.632ZM379.428 47.1818H380.768V55.5C380.768 55.8788 380.823 56.1629 380.933 56.3523C381.047 56.5379 381.191 56.6629 381.365 56.7273C381.543 56.7879 381.731 56.8182 381.928 56.8182C382.075 56.8182 382.196 56.8106 382.291 56.7955C382.386 56.7765 382.462 56.7614 382.518 56.75L382.791 57.9545C382.7 57.9886 382.573 58.0227 382.411 58.0568C382.248 58.0947 382.041 58.1136 381.791 58.1136C381.412 58.1136 381.041 58.0322 380.678 57.8693C380.318 57.7064 380.018 57.4583 379.78 57.125C379.545 56.7917 379.428 56.3712 379.428 55.8636V47.1818ZM388.214 58.1818C387.374 58.1818 386.648 57.9962 386.038 57.625C385.432 57.25 384.964 56.7273 384.635 56.0568C384.309 55.3826 384.146 54.5985 384.146 53.7045C384.146 52.8106 384.309 52.0227 384.635 51.3409C384.964 50.6553 385.423 50.1212 386.01 49.7386C386.601 49.3523 387.29 49.1591 388.078 49.1591C388.533 49.1591 388.982 49.2348 389.425 49.3864C389.868 49.5379 390.271 49.7841 390.635 50.125C390.999 50.4621 391.288 50.9091 391.504 51.4659C391.72 52.0227 391.828 52.7083 391.828 53.5227V54.0909H385.101V52.9318H390.464C390.464 52.4394 390.366 52 390.169 51.6136C389.976 51.2273 389.699 50.9223 389.339 50.6989C388.983 50.4754 388.563 50.3636 388.078 50.3636C387.544 50.3636 387.082 50.4962 386.692 50.7614C386.305 51.0227 386.008 51.3636 385.8 51.7841C385.591 52.2045 385.487 52.6553 385.487 53.1364V53.9091C385.487 54.5682 385.601 55.1269 385.828 55.5852C386.059 56.0398 386.379 56.3864 386.788 56.625C387.197 56.8598 387.673 56.9773 388.214 56.9773C388.567 56.9773 388.885 56.928 389.169 56.8295C389.457 56.7273 389.705 56.5758 389.913 56.375C390.122 56.1705 390.283 55.9167 390.396 55.6136L391.692 55.9773C391.555 56.4167 391.326 56.803 391.004 57.1364C390.682 57.4659 390.285 57.7235 389.811 57.9091C389.338 58.0909 388.805 58.1818 388.214 58.1818ZM395.209 52.75V58H393.868V49.2727H395.163V50.6364H395.277C395.482 50.1932 395.792 49.8371 396.209 49.5682C396.625 49.2955 397.163 49.1591 397.822 49.1591C398.413 49.1591 398.93 49.2803 399.374 49.5227C399.817 49.7614 400.161 50.125 400.408 50.6136C400.654 51.0985 400.777 51.7121 400.777 52.4545V58H399.436V52.5455C399.436 51.8598 399.258 51.3258 398.902 50.9432C398.546 50.5568 398.057 50.3636 397.436 50.3636C397.008 50.3636 396.625 50.4564 396.288 50.642C395.955 50.8277 395.692 51.0985 395.499 51.4545C395.305 51.8106 395.209 52.2424 395.209 52.75ZM407.023 49.2727V50.4091H402.5V49.2727H407.023ZM403.818 47.1818H405.159V55.5C405.159 55.8788 405.214 56.1629 405.324 56.3523C405.438 56.5379 405.581 56.6629 405.756 56.7273C405.934 56.7879 406.121 56.8182 406.318 56.8182C406.466 56.8182 406.587 56.8106 406.682 56.7955C406.777 56.7765 406.852 56.7614 406.909 56.75L407.182 57.9545C407.091 57.9886 406.964 58.0227 406.801 58.0568C406.638 58.0947 406.432 58.1136 406.182 58.1136C405.803 58.1136 405.432 58.0322 405.068 57.8693C404.708 57.7064 404.409 57.4583 404.17 57.125C403.936 56.7917 403.818 56.3712 403.818 55.8636V47.1818ZM411.04 56.4091L410.949 57.0227C410.884 57.4545 410.786 57.9167 410.653 58.4091C410.525 58.9015 410.39 59.3655 410.25 59.8011C410.11 60.2367 409.994 60.5833 409.903 60.8409H408.881C408.93 60.5985 408.994 60.2784 409.074 59.8807C409.153 59.483 409.233 59.0379 409.312 58.5455C409.396 58.0568 409.464 57.5568 409.517 57.0455L409.585 56.4091H411.04ZM418.024 58V49.2727H419.32V50.5909H419.411C419.57 50.1591 419.857 49.8087 420.274 49.5398C420.691 49.2708 421.161 49.1364 421.683 49.1364C421.782 49.1364 421.905 49.1383 422.053 49.142C422.2 49.1458 422.312 49.1515 422.388 49.1591V50.5227C422.342 50.5114 422.238 50.4943 422.075 50.4716C421.916 50.4451 421.748 50.4318 421.57 50.4318C421.145 50.4318 420.767 50.5208 420.433 50.6989C420.104 50.8731 419.842 51.1155 419.649 51.4261C419.46 51.733 419.365 52.0833 419.365 52.4773V58H418.024ZM423.977 58V49.2727H425.318V58H423.977ZM424.659 47.8182C424.398 47.8182 424.172 47.7292 423.983 47.5511C423.797 47.3731 423.705 47.1591 423.705 46.9091C423.705 46.6591 423.797 46.4451 423.983 46.267C424.172 46.089 424.398 46 424.659 46C424.92 46 425.144 46.089 425.33 46.267C425.519 46.4451 425.614 46.6591 425.614 46.9091C425.614 47.1591 425.519 47.3731 425.33 47.5511C425.144 47.7292 424.92 47.8182 424.659 47.8182ZM431.297 61.4545C430.649 61.4545 430.092 61.3712 429.626 61.2045C429.161 61.0417 428.772 60.8258 428.462 60.5568C428.155 60.2917 427.911 60.0076 427.729 59.7045L428.797 58.9545C428.918 59.1136 429.071 59.2955 429.257 59.5C429.443 59.7083 429.696 59.8883 430.018 60.0398C430.344 60.1951 430.77 60.2727 431.297 60.2727C432.001 60.2727 432.583 60.1023 433.041 59.7614C433.5 59.4205 433.729 58.8864 433.729 58.1591V56.3864H433.615C433.517 56.5455 433.376 56.7424 433.195 56.9773C433.017 57.2083 432.759 57.4148 432.422 57.5966C432.089 57.7746 431.638 57.8636 431.07 57.8636C430.365 57.8636 429.732 57.697 429.172 57.3636C428.615 57.0303 428.174 56.5455 427.848 55.9091C427.526 55.2727 427.365 54.5 427.365 53.5909C427.365 52.697 427.522 51.9186 427.837 51.2557C428.151 50.589 428.589 50.0739 429.149 49.7102C429.71 49.3428 430.357 49.1591 431.092 49.1591C431.661 49.1591 432.111 49.2538 432.445 49.4432C432.782 49.6288 433.039 49.8409 433.217 50.0795C433.399 50.3144 433.539 50.5076 433.638 50.6591H433.774V49.2727H435.07V58.25C435.07 59 434.899 59.6098 434.558 60.0795C434.221 60.553 433.767 60.8996 433.195 61.1193C432.626 61.3428 431.994 61.4545 431.297 61.4545ZM431.251 56.6591C431.789 56.6591 432.244 56.536 432.615 56.2898C432.986 56.0436 433.268 55.6894 433.462 55.2273C433.655 54.7652 433.751 54.2121 433.751 53.5682C433.751 52.9394 433.657 52.3845 433.467 51.9034C433.278 51.4223 432.998 51.0455 432.626 50.7727C432.255 50.5 431.797 50.3636 431.251 50.3636C430.683 50.3636 430.21 50.5076 429.831 50.7955C429.456 51.0833 429.174 51.4697 428.984 51.9545C428.799 52.4394 428.706 52.9773 428.706 53.5682C428.706 54.1742 428.801 54.7102 428.99 55.1761C429.183 55.6383 429.467 56.0019 429.842 56.267C430.221 56.5284 430.691 56.6591 431.251 56.6591ZM438.865 52.75V58H437.524V46.3636H438.865V50.6364H438.979C439.183 50.1856 439.49 49.8277 439.899 49.5625C440.312 49.2936 440.861 49.1591 441.547 49.1591C442.142 49.1591 442.662 49.2784 443.109 49.517C443.556 49.7519 443.903 50.1136 444.149 50.6023C444.399 51.0871 444.524 51.7045 444.524 52.4545V58H443.183V52.5455C443.183 51.8523 443.003 51.3163 442.643 50.9375C442.287 50.5549 441.793 50.3636 441.161 50.3636C440.721 50.3636 440.327 50.4564 439.979 50.642C439.634 50.8277 439.361 51.0985 439.161 51.4545C438.964 51.8106 438.865 52.2424 438.865 52.75ZM450.773 49.2727V50.4091H446.25V49.2727H450.773ZM447.568 47.1818H448.909V55.5C448.909 55.8788 448.964 56.1629 449.074 56.3523C449.188 56.5379 449.331 56.6629 449.506 56.7273C449.684 56.7879 449.871 56.8182 450.068 56.8182C450.216 56.8182 450.337 56.8106 450.432 56.7955C450.527 56.7765 450.602 56.7614 450.659 56.75L450.932 57.9545C450.841 57.9886 450.714 58.0227 450.551 58.0568C450.388 58.0947 450.182 58.1136 449.932 58.1136C449.553 58.1136 449.182 58.0322 448.818 57.8693C448.458 57.7064 448.159 57.4583 447.92 57.125C447.686 56.7917 447.568 56.3712 447.568 55.8636V47.1818Z" fill="white"/>
<path d="M473 52.0909L468 57L468 47L473 52.0909Z" fill="#333333"/>
</g>
<defs>
<filter id="filter0_dd_13251_3406" x="196" y="30" width="280" height="47" filterUnits="userSpaceOnUse" color-interpolation-filters="sRGB">
<feFlood flood-opacity="0" result="BackgroundImageFix"/>
<feColorMatrix in="SourceAlpha" type="matrix" values="0 0 0 0 0 0 0 0 0 0 0 0 0 0 0 0 0 0 127 0" result="hardAlpha"/>
<feOffset dy="2"/>
<feGaussianBlur stdDeviation="1.5"/>
<feColorMatrix type="matrix" values="0 0 0 0 0.2 0 0 0 0 0.2 0 0 0 0 0.2 0 0 0 0.15 0"/>
<feBlend mode="normal" in2="BackgroundImageFix" result="effect1_dropShadow_13251_3406"/>
<feColorMatrix in="SourceAlpha" type="matrix" values="0 0 0 0 0 0 0 0 0 0 0 0 0 0 0 0 0 0 127 0" result="hardAlpha"/>
<feOffset dy="1"/>
<feGaussianBlur stdDeviation="1.5"/>
<feColorMatrix type="matrix" values="0 0 0 0 0.2 0 0 0 0 0.2 0 0 0 0 0.2 0 0 0 0.1 0"/>
<feBlend mode="normal" in2="effect1_dropShadow_13251_3406" result="effect2_dropShadow_13251_3406"/>
<feBlend mode="normal" in="SourceGraphic" in2="effect2_dropShadow_13251_3406" result="shape"/>
</filter>
</defs>
</svg>
