<svg width="300" height="116" fill="none" xmlns="http://www.w3.org/2000/svg"><rect x=".5" width="299" height="86" rx="8" fill="#fff"/><g clip-path="url(#a)"><mask id="b" fill="#fff"><path d="M8.5 8h75v29h-75V8Z"/></mask><path d="M8.5 8h75v29h-75V8Z" fill="#F6F6F6"/><path d="M27.04 19.62a1.36 1.36 0 0 0-.59-1.02 2.25 2.25 0 0 0-1.33-.36c-.39 0-.72.06-1 .17-.27.12-.48.28-.62.48a1.15 1.15 0 0 0-.08 1.23c.1.16.23.29.4.4.17.1.36.2.56.27.2.07.42.13.62.18l.96.24c.38.09.75.2 1.1.36.37.15.69.35.97.58a2.53 2.53 0 0 1 .92 2 2.76 2.76 0 0 1-1.78 2.63 5.2 5.2 0 0 1-2.08.37 5.3 5.3 0 0 1-2.06-.36 3.07 3.07 0 0 1-1.37-1.08 3.18 3.18 0 0 1-.52-1.72h1.81c.03.36.14.65.33.89.2.23.44.4.75.52s.66.18 1.04.18c.4 0 .76-.06 1.06-.18.3-.12.54-.3.71-.5.18-.23.26-.48.27-.77a.97.97 0 0 0-.24-.66 1.71 1.71 0 0 0-.64-.44 6.18 6.18 0 0 0-.95-.32l-1.16-.3a4.66 4.66 0 0 1-1.99-.97 2.26 2.26 0 0 1-.73-1.76c0-.6.17-1.12.5-1.57.32-.45.77-.8 1.33-1.05a4.5 4.5 0 0 1 1.91-.38c.73 0 1.36.12 1.9.38.55.25.98.6 1.29 1.04.31.44.47.94.48 1.52h-1.77Zm8.34 4.17v-4.43h1.8V27h-1.74v-1.36h-.08a2.3 2.3 0 0 1-.85 1.05c-.4.27-.87.4-1.45.4-.5 0-.94-.1-1.33-.32a2.31 2.31 0 0 1-.89-.98 3.46 3.46 0 0 1-.32-1.56v-4.87h1.8v4.59c0 .48.13.87.4 1.15.26.29.6.43 1.04.43a1.65 1.65 0 0 0 1.38-.77c.16-.26.24-.58.24-.97ZM39.11 27V16.82h1.8v3.8H41c.1-.18.22-.38.4-.59.16-.2.39-.39.68-.54a2.91 2.91 0 0 1 3.83 1.55c.28.59.42 1.3.42 2.15a5 5 0 0 1-.41 2.14 2.89 2.89 0 0 1-2.73 1.8c-.44 0-.8-.07-1.1-.21a2.22 2.22 0 0 1-.69-.53 3.3 3.3 0 0 1-.4-.6h-.1V27h-1.8Zm1.77-3.82c0 .5.07.93.2 1.3.15.37.35.66.62.87.27.2.6.3.97.3.4 0 .73-.1 1-.31.27-.22.47-.5.6-.88.15-.38.22-.8.22-1.28 0-.47-.07-.9-.2-1.26a1.9 1.9 0 0 0-.61-.87c-.27-.2-.6-.3-1-.3s-.72.1-.99.3c-.26.2-.47.48-.6.84-.14.37-.21.8-.21 1.3Zm6.97-3.82h1.8v8.08c0 .55-.1 1-.31 1.36-.21.36-.51.62-.9.8a3.52 3.52 0 0 1-1.63.26h-.18v-1.47a2.05 2.05 0 0 0 .26 0c.34 0 .59-.08.74-.25.15-.16.22-.4.22-.73v-8.05Zm.9-1.08c-.3 0-.54-.1-.74-.28a.92.92 0 0 1-.3-.7c0-.27.1-.5.3-.69.2-.19.45-.28.74-.28.28 0 .53.1.73.28.2.2.3.42.3.7 0 .26-.1.5-.3.69-.2.19-.45.28-.73.28Zm6.13 8.87c-.76 0-1.42-.16-1.98-.48a3.23 3.23 0 0 1-1.28-1.36 4.56 4.56 0 0 1-.45-2.08c0-.79.15-1.48.45-2.07a3.38 3.38 0 0 1 3.17-1.9c.47 0 .91.08 1.33.23a3.17 3.17 0 0 1 1.88 1.9c.19.49.28 1.06.28 1.73v.55h-6.26v-1.2h4.53c0-.35-.07-.66-.22-.93a1.63 1.63 0 0 0-.61-.64 1.72 1.72 0 0 0-.9-.23c-.37 0-.7.09-.98.26-.27.18-.5.41-.65.7a2 2 0 0 0-.23.94v1.06c0 .44.08.82.24 1.14.17.32.4.56.68.73.3.16.64.25 1.03.25.26 0 .5-.04.7-.11.22-.08.4-.19.56-.34.16-.14.27-.32.35-.54l1.68.2c-.1.44-.3.82-.6 1.16a3 3 0 0 1-1.14.76c-.46.18-.98.27-1.58.27Zm8.25 0a3.35 3.35 0 0 1-3.22-1.89c-.3-.6-.44-1.28-.44-2.05 0-.77.15-1.46.45-2.05.3-.6.72-1.06 1.26-1.4a3.7 3.7 0 0 1 1.94-.5c.62 0 1.17.12 1.65.35A2.81 2.81 0 0 1 66.4 22h-1.72a1.64 1.64 0 0 0-.5-.92 1.4 1.4 0 0 0-1.03-.37c-.37 0-.7.1-.97.3-.28.19-.5.47-.65.84-.16.37-.23.8-.23 1.32s.07.97.23 1.34c.15.38.36.66.64.86.28.2.6.3.98.3.26 0 .5-.05.7-.15.22-.1.4-.25.54-.44.14-.2.24-.43.3-.7h1.71a2.83 2.83 0 0 1-1.6 2.41c-.47.23-1.03.35-1.67.35Zm8.56-7.79v1.4h-4.38v-1.4h4.38Zm-3.3-1.83h1.8v7.17c0 .25.03.43.1.56a.6.6 0 0 0 .3.26c.13.04.26.07.41.07a1.76 1.76 0 0 0 .53-.07l.3 1.4a4.01 4.01 0 0 1-1.05.18 2.8 2.8 0 0 1-1.22-.2 1.9 1.9 0 0 1-.86-.7 2.1 2.1 0 0 1-.31-1.2v-7.47Z" fill="#1F1F1F"/><path d="M83.5 36h-75v2h75v-2Z" fill="#F6F6F6" mask="url(#b)"/><mask id="c" fill="#fff"><path d="M83.5 8h128v29h-128V8Z"/></mask><path d="M83.5 8h128v29h-128V8Z" fill="#F6F6F6"/><path d="M96.06 18.36v-1.54h8.12v1.54h-3.15V27H99.2v-8.64h-3.14Zm11.83 8.79a3.7 3.7 0 0 1-1.94-.5 3.34 3.34 0 0 1-1.27-1.37 4.53 4.53 0 0 1-.45-2.07c0-.79.15-1.48.45-2.07.3-.6.72-1.06 1.27-1.38a3.7 3.7 0 0 1 1.94-.5c.75 0 1.4.17 1.94.5.55.32.97.79 1.27 1.38.3.6.45 1.28.45 2.07 0 .79-.15 1.48-.45 2.07a3.3 3.3 0 0 1-1.27 1.38 3.7 3.7 0 0 1-1.94.49Zm.01-1.44c.4 0 .74-.11 1.02-.34a2 2 0 0 0 .6-.9c.14-.38.2-.8.2-1.26 0-.47-.06-.9-.2-1.27a2 2 0 0 0-.6-.91 1.54 1.54 0 0 0-1.02-.34c-.41 0-.76.11-1.03.34-.28.22-.48.53-.62.9a3.95 3.95 0 0 0 0 2.54c.14.38.34.68.62.9.27.23.62.34 1.03.34Zm5.18 4.15v-10.5h1.77v1.27h.1c.1-.19.22-.39.4-.6.16-.2.4-.39.68-.54a2.91 2.91 0 0 1 3.83 1.55c.28.59.43 1.3.43 2.15 0 .84-.14 1.55-.42 2.14a2.89 2.89 0 0 1-2.73 1.8c-.44 0-.8-.07-1.09-.21a2.22 2.22 0 0 1-.7-.53 3.3 3.3 0 0 1-.4-.6h-.07v4.07h-1.8Zm1.76-6.68c0 .5.07.93.21 1.3.14.37.35.66.61.87.27.2.6.3.98.3.4 0 .73-.1 1-.31.26-.22.47-.5.6-.88.14-.38.21-.8.21-1.28 0-.47-.07-.9-.2-1.26a1.9 1.9 0 0 0-.6-.87c-.28-.2-.61-.3-1.01-.3-.39 0-.71.1-.98.3-.27.2-.47.48-.61.84-.14.37-.2.8-.2 1.3Zm6.99 3.82v-7.64h1.8V27h-1.8Zm.9-8.72c-.28 0-.53-.1-.73-.28a.91.91 0 0 1-.31-.7c0-.27.1-.5.3-.69.21-.19.46-.28.74-.28.29 0 .54.1.74.28.2.2.3.42.3.7 0 .26-.1.5-.3.69-.2.19-.45.28-.74.28Zm6.08 8.87a3.35 3.35 0 0 1-3.22-1.89c-.3-.6-.44-1.28-.44-2.05 0-.77.15-1.46.45-2.05.3-.6.72-1.06 1.26-1.4a3.7 3.7 0 0 1 1.94-.5c.62 0 1.17.12 1.64.35a2.82 2.82 0 0 1 1.64 2.4h-1.72a1.65 1.65 0 0 0-.5-.92c-.26-.25-.6-.37-1.04-.37-.36 0-.69.1-.97.3-.27.19-.5.47-.65.84-.15.37-.23.8-.23 1.32s.08.97.23 1.34c.16.38.37.66.64.86.28.2.6.3.98.3.27 0 .5-.05.71-.15.22-.1.4-.25.54-.44.14-.2.24-.43.29-.7h1.72a2.82 2.82 0 0 1-1.6 2.41c-.47.23-1.03.35-1.67.35Zm10.78-5.77-1.64.18a1.31 1.31 0 0 0-.7-.82c-.2-.09-.43-.13-.7-.13-.38 0-.7.08-.95.24-.25.16-.38.37-.37.63 0 .22.08.4.24.54.17.14.45.26.84.35l1.3.27c.72.16 1.26.4 1.61.75.35.33.53.78.54 1.32 0 .48-.15.9-.42 1.28-.28.36-.66.65-1.15.85-.5.2-1.06.3-1.7.3-.93 0-1.68-.19-2.25-.58-.57-.4-.91-.94-1.02-1.64l1.75-.17c.08.34.25.6.51.78.26.17.6.26 1.01.26.43 0 .77-.09 1.03-.26.26-.18.4-.4.4-.65a.7.7 0 0 0-.26-.54 1.77 1.77 0 0 0-.78-.33l-1.3-.28a3.1 3.1 0 0 1-1.63-.77 1.9 1.9 0 0 1-.52-1.38c0-.47.13-.88.39-1.22a2.5 2.5 0 0 1 1.09-.8c.46-.2 1-.3 1.61-.3.9 0 1.6.2 2.11.58.52.38.84.9.96 1.54Zm8.45 5.77a3.35 3.35 0 0 1-3.22-1.89 4.64 4.64 0 0 1-.43-2.05c0-.77.15-1.46.44-2.05a3.38 3.38 0 0 1 3.21-1.9c.62 0 1.16.12 1.64.35a2.81 2.81 0 0 1 1.64 2.4h-1.72a1.65 1.65 0 0 0-.5-.92c-.26-.25-.6-.37-1.04-.37-.37 0-.7.1-.97.3-.28.19-.5.47-.65.84-.15.37-.23.8-.23 1.32s.08.97.23 1.34c.15.38.37.66.64.86.28.2.6.3.98.3.26 0 .5-.05.71-.15.21-.1.39-.25.53-.44.14-.2.24-.43.3-.7h1.72a2.83 2.83 0 0 1-1.6 2.41c-.48.23-1.04.35-1.68.35Zm8.09 0a3.7 3.7 0 0 1-1.94-.5 3.35 3.35 0 0 1-1.28-1.37 4.53 4.53 0 0 1-.44-2.07c0-.79.15-1.48.44-2.07.3-.6.73-1.06 1.28-1.38a3.7 3.7 0 0 1 1.94-.5c.74 0 1.39.17 1.93.5.55.32.97.79 1.27 1.38.3.6.45 1.28.45 2.07 0 .79-.15 1.48-.45 2.07a3.3 3.3 0 0 1-1.27 1.38c-.54.33-1.19.49-1.94.49Zm0-1.44c.4 0 .75-.11 1.02-.34.27-.22.47-.52.6-.9.14-.38.2-.8.2-1.26 0-.47-.06-.9-.2-1.27a2 2 0 0 0-.6-.91 1.54 1.54 0 0 0-1.02-.34c-.41 0-.75.11-1.03.34-.27.22-.47.53-.61.9a3.95 3.95 0 0 0 0 2.54c.13.38.34.68.61.9.28.23.62.34 1.03.34Zm11.74-6.35L165.15 27h-1.99l-2.72-7.64h1.92l1.76 5.68h.08l1.76-5.68h1.91Zm4.37 7.79c-.77 0-1.43-.16-1.99-.48a3.23 3.23 0 0 1-1.27-1.36 4.55 4.55 0 0 1-.45-2.08c0-.79.15-1.48.45-2.07a3.38 3.38 0 0 1 3.17-1.9c.47 0 .9.08 1.33.23.42.15.79.38 1.11.7.32.31.58.71.77 1.2.18.49.27 1.06.27 1.73v.55h-6.25v-1.2h4.53a2 2 0 0 0-.22-.93 1.63 1.63 0 0 0-.62-.64 1.72 1.72 0 0 0-.9-.23 1.8 1.8 0 0 0-1.62.96 2 2 0 0 0-.24.94v1.06c0 .44.09.82.25 1.14.16.32.39.56.68.73a2.31 2.31 0 0 0 1.74.14c.2-.08.4-.19.55-.34.15-.14.27-.32.35-.54l1.68.2c-.1.44-.3.82-.6 1.16-.3.32-.68.58-1.14.76-.46.18-.99.27-1.58.27Zm4.92-.15v-7.64h1.74v1.28h.08a1.9 1.9 0 0 1 1.89-1.39 4.14 4.14 0 0 1 .64.05v1.66a3.34 3.34 0 0 0-.84-.1c-.32 0-.62.07-.88.2a1.57 1.57 0 0 0-.83 1.45V27h-1.8Zm8.61.15c-.76 0-1.42-.16-1.98-.48a3.23 3.23 0 0 1-1.28-1.36 4.55 4.55 0 0 1-.44-2.08c0-.79.14-1.48.44-2.07a3.38 3.38 0 0 1 3.17-1.9c.47 0 .91.08 1.33.23a3.17 3.17 0 0 1 1.88 1.9c.19.49.28 1.06.28 1.73v.55h-6.26v-1.2h4.53c0-.35-.07-.66-.22-.93a1.63 1.63 0 0 0-.61-.64 1.72 1.72 0 0 0-.9-.23 1.8 1.8 0 0 0-1.63.96 2 2 0 0 0-.23.94v1.06c0 .44.08.82.24 1.14a1.8 1.8 0 0 0 1.71.98c.26 0 .5-.04.71-.11.21-.08.4-.19.55-.34.16-.14.28-.32.35-.54l1.69.2a2.7 2.7 0 0 1-1.75 1.92c-.46.18-.98.27-1.58.27Zm7.76-.02a2.89 2.89 0 0 1-2.74-1.8 5.01 5.01 0 0 1-.41-2.14c0-.85.14-1.56.42-2.15a2.92 2.92 0 0 1 3.84-1.55c.28.15.51.33.68.54.17.21.3.41.4.6h.07v-3.81h1.8V27h-1.77v-1.2h-.1c-.1.18-.23.38-.4.59a2.22 2.22 0 0 1-1.8.74Zm.5-1.47c.38 0 .7-.1.97-.31.27-.2.47-.5.61-.87s.21-.8.21-1.3-.07-.92-.2-1.29a1.84 1.84 0 0 0-.61-.85c-.27-.2-.6-.3-.98-.3-.4 0-.74.1-1 .31-.27.21-.48.5-.61.87-.14.37-.2.79-.2 1.26 0 .48.06.9.2 1.28a2 2 0 0 0 .6.88c.28.21.61.32 1 .32Z" fill="#1F1F1F"/><path d="M211.5 36h-128v2h128v-2Z" fill="#F6F6F6" mask="url(#c)"/><mask id="d" fill="#fff"><path d="M211.5 8h80v29h-80V8Z"/></mask><path d="M211.5 8h80v29h-80V8Z" fill="#F6F6F6"/><path d="M233.22 20.25h-1.86a2.32 2.32 0 0 0-.83-1.41 2.21 2.21 0 0 0-.72-.38 2.84 2.84 0 0 0-2.34.3c-.43.27-.76.67-1 1.2a4.67 4.67 0 0 0-.37 1.95c0 .78.12 1.43.36 1.97.25.53.58.93 1 1.2a2.96 2.96 0 0 0 2.32.28 2.33 2.33 0 0 0 1.27-.95c.15-.23.25-.5.31-.8l1.86.02a4 4 0 0 1-1.35 2.49c-.37.32-.8.57-1.3.75-.5.18-1.05.27-1.66.27a4.34 4.34 0 0 1-4.06-2.42 6.1 6.1 0 0 1-.6-2.81 6 6 0 0 1 .6-2.81 4.37 4.37 0 0 1 4.06-2.42c.57 0 1.1.08 1.58.24a3.98 3.98 0 0 1 2.24 1.82c.25.44.41.95.49 1.51Zm3.4-3.43V27h-1.8V16.82h1.8Zm4.06 10.33c-.49 0-.92-.08-1.31-.25a2.13 2.13 0 0 1-.91-.78 2.26 2.26 0 0 1-.34-1.26c0-.43.08-.79.24-1.07.16-.28.38-.5.65-.68.28-.17.59-.3.93-.38.35-.09.7-.15 1.08-.2l1.09-.12c.28-.04.48-.1.6-.18.13-.08.2-.2.2-.38v-.03c0-.37-.11-.66-.33-.87-.23-.2-.55-.3-.96-.3-.44 0-.8.09-1.05.28-.26.2-.43.42-.52.68l-1.68-.24a2.69 2.69 0 0 1 1.78-1.87 4.76 4.76 0 0 1 2.56-.1c.36.08.7.22 1 .42.3.2.54.46.72.8.19.34.28.76.28 1.27V27h-1.73v-1.05h-.06a2.19 2.19 0 0 1-1.2 1.04c-.3.1-.65.16-1.04.16Zm.46-1.32c.37 0 .68-.07.94-.21a1.55 1.55 0 0 0 .83-1.36v-.9a.84.84 0 0 1-.28.13l-.45.1a13.72 13.72 0 0 1-.92.14c-.26.04-.5.1-.72.18-.21.09-.38.2-.5.35a.85.85 0 0 0-.18.57c0 .33.12.58.36.75.24.17.55.25.92.25Zm11.41-4.45-1.64.18a1.31 1.31 0 0 0-.7-.82 1.65 1.65 0 0 0-.7-.13c-.38 0-.7.08-.95.24-.25.16-.37.37-.37.63 0 .22.08.4.24.54.17.14.45.26.84.35l1.3.27c.72.16 1.26.4 1.61.75.36.33.53.78.54 1.32 0 .48-.15.9-.43 1.28a2.7 2.7 0 0 1-1.14.85c-.5.2-1.06.3-1.7.3-.93 0-1.68-.19-2.25-.58-.57-.4-.91-.94-1.02-1.64l1.75-.17c.08.34.25.6.51.78.26.17.6.26 1.01.26.43 0 .77-.09 1.03-.26.26-.18.4-.4.4-.65a.7.7 0 0 0-.26-.54 1.77 1.77 0 0 0-.78-.33l-1.3-.28a3.1 3.1 0 0 1-1.62-.77 1.9 1.9 0 0 1-.53-1.38c0-.47.13-.88.39-1.22a2.5 2.5 0 0 1 1.09-.8c.46-.2 1-.3 1.61-.3.9 0 1.6.2 2.11.58.52.38.84.9.96 1.54Zm7.69 0-1.64.18a1.31 1.31 0 0 0-.7-.82 1.7 1.7 0 0 0-.71-.13c-.38 0-.69.08-.94.24-.26.16-.38.37-.38.63 0 .22.08.4.25.54.17.14.44.26.83.35l1.3.27c.73.16 1.26.4 1.62.75.35.33.53.78.53 1.32 0 .48-.14.9-.42 1.28-.28.36-.66.65-1.15.85-.49.2-1.05.3-1.69.3-.93 0-1.69-.19-2.26-.58a2.4 2.4 0 0 1-1.02-1.64l1.76-.17c.08.34.25.6.5.78.26.17.6.26 1.01.26.43 0 .78-.09 1.03-.26.27-.18.4-.4.4-.65 0-.22-.09-.4-.26-.54a1.77 1.77 0 0 0-.77-.33l-1.3-.28a3.1 3.1 0 0 1-1.63-.77 1.89 1.89 0 0 1-.52-1.38c0-.47.12-.88.38-1.22a2.5 2.5 0 0 1 1.09-.8c.47-.2 1-.3 1.62-.3.89 0 1.6.2 2.1.58.53.38.85.9.97 1.54Z" fill="#1F1F1F"/><path d="M291.5 36h-80v2h80v-2Z" fill="#F6F6F6" mask="url(#d)"/><path fill="#fff" d="M8.5 37h283v41H8.5z"/><g filter="url(#e)"><path fill="#fff" d="M8.5 37.5h75v40h-75z"/><path d="M21.73 62V51.82h6.15v1.1h-4.91v3.43h4.59v1.1h-4.6v3.46h5V62h-6.23Zm9.38-4.6V62h-1.17v-7.64h1.13v1.2h.1c.18-.4.45-.7.82-.94a2.5 2.5 0 0 1 1.41-.36c.52 0 .97.11 1.36.32.39.21.69.53.9.96.22.42.33.96.33 1.6V62H34.8v-4.77c0-.6-.15-1.07-.46-1.4a1.67 1.67 0 0 0-1.29-.51c-.37 0-.7.08-1 .24-.3.16-.52.4-.7.71-.16.31-.25.7-.25 1.14Zm10.1 7.62c-.56 0-1.05-.07-1.46-.22a3.1 3.1 0 0 1-1.66-1.3l.94-.66c.1.13.24.3.4.47a2 2 0 0 0 .66.47c.29.14.66.2 1.12.2.62 0 1.13-.14 1.53-.44.4-.3.6-.76.6-1.4v-1.55h-.1c-.08.14-.2.31-.37.52-.15.2-.38.38-.67.54-.3.15-.69.23-1.19.23a3.07 3.07 0 0 1-2.82-1.71 4.45 4.45 0 0 1-.42-2.03c0-.78.14-1.46.42-2.04a3.03 3.03 0 0 1 2.85-1.83c.5 0 .89.08 1.18.24.3.17.52.35.67.56l.37.5h.12v-1.2h1.13v7.85a2.7 2.7 0 0 1-.44 1.6c-.3.41-.7.72-1.2.9-.5.2-1.05.3-1.66.3Zm-.04-4.2c.47 0 .87-.1 1.2-.32.32-.21.57-.52.74-.93.17-.4.25-.88.25-1.45 0-.55-.08-1.03-.25-1.45a2.19 2.19 0 0 0-.73-1 1.98 1.98 0 0 0-1.2-.35 2 2 0 0 0-1.99 1.39c-.16.42-.24.9-.24 1.41 0 .53.08 1 .24 1.4.17.41.42.73.75.96.33.23.74.35 1.23.35Zm6.66-9V62h-1.17V51.82h1.18ZM49.98 62v-7.64h1.18V62h-1.18Zm.6-8.9a.83.83 0 0 1-.6-.24.75.75 0 0 1-.23-.56c0-.22.08-.41.24-.57a.83.83 0 0 1 .6-.23c.22 0 .41.08.58.23.16.16.25.35.25.57 0 .21-.09.4-.25.56a.82.82 0 0 1-.59.23Zm8.14 2.97-1.06.3a1.96 1.96 0 0 0-.3-.51 1.5 1.5 0 0 0-.5-.42c-.23-.1-.5-.16-.85-.16a2 2 0 0 0-1.17.32c-.3.21-.46.48-.46.81 0 .3.1.52.32.7.21.16.54.3 1 .42l1.13.27c.68.17 1.19.42 1.52.76.34.34.5.78.5 1.31 0 .44-.12.83-.37 1.18-.25.34-.6.61-1.05.81-.44.2-.97.3-1.56.3-.78 0-1.42-.17-1.93-.5a2.25 2.25 0 0 1-.97-1.49l1.11-.28c.1.41.3.72.6.93.3.2.7.3 1.17.3.55 0 .98-.11 1.3-.34.33-.24.5-.52.5-.85 0-.26-.1-.49-.29-.66a1.78 1.78 0 0 0-.85-.41l-1.27-.3a3.04 3.04 0 0 1-1.55-.77 1.87 1.87 0 0 1-.48-1.32c0-.43.12-.81.36-1.14.24-.33.58-.6 1-.78.42-.2.9-.29 1.44-.29.76 0 1.35.17 1.78.5.43.33.74.77.93 1.31Zm3.07 1.34V62h-1.17V51.82h1.17v3.74h.1c.18-.4.45-.71.8-.94a2.6 2.6 0 0 1 1.45-.36c.52 0 .98.1 1.37.32.39.2.7.52.9.95.23.42.34.96.34 1.62V62h-1.18v-4.77c0-.6-.15-1.08-.47-1.41a1.7 1.7 0 0 0-1.3-.5c-.38 0-.73.08-1.03.24-.3.16-.54.4-.72.71-.17.31-.26.7-.26 1.14Z" fill="#333"/></g><g filter="url(#f)"><path fill="#fff" d="M83.5 37h128v41h-128z"/><path d="M96.73 62V51.82h3.44c.8 0 1.45.14 1.96.43s.89.67 1.14 1.16c.24.49.36 1.03.36 1.63 0 .6-.12 1.14-.36 1.64-.25.49-.62.88-1.13 1.17-.5.29-1.16.43-1.95.43h-2.46v-1.1h2.42c.55 0 .99-.09 1.32-.28.33-.18.57-.44.72-.76.15-.33.23-.7.23-1.1 0-.4-.08-.77-.23-1.1a1.63 1.63 0 0 0-.72-.75 2.75 2.75 0 0 0-1.34-.28h-2.16V62h-1.24Zm8.73 0v-7.64h1.13v1.16h.08c.14-.38.4-.69.76-.92.36-.24.77-.36 1.23-.36a13.07 13.07 0 0 1 .62.02v1.2a3.46 3.46 0 0 0-.72-.08c-.37 0-.7.08-1 .23a1.72 1.72 0 0 0-.94 1.56V62h-1.16Zm8.18.16a3.26 3.26 0 0 1-3.13-1.86 4.68 4.68 0 0 1-.43-2.06c0-.78.14-1.47.43-2.07a3.23 3.23 0 0 1 3.01-1.9c.4 0 .79.06 1.18.2a2.92 2.92 0 0 1 1.82 1.81 5 5 0 0 1 .28 1.8v.5h-5.89v-1.01h4.7c0-.44-.09-.82-.26-1.16a1.95 1.95 0 0 0-1.83-1.1c-.47 0-.87.12-1.21.36-.34.22-.6.52-.78.9-.19.36-.28.75-.28 1.17v.68c0 .58.1 1.07.3 1.47.2.4.48.7.84.9.36.21.78.32 1.25.32a2.08 2.08 0 0 0 1.49-.53c.18-.18.32-.4.42-.67l1.13.32a2.5 2.5 0 0 1-.6 1.01c-.28.3-.63.52-1.04.68-.42.16-.88.24-1.4.24Zm8.35-7.8v1h-4.12v-1h4.12ZM119.1 62v-8.69c0-.44.1-.8.31-1.1.2-.29.47-.5.8-.65a2.94 2.94 0 0 1 2.15-.02l-.33 1.01a5.95 5.95 0 0 0-.25-.07 1.5 1.5 0 0 0-.41-.05c-.39 0-.67.1-.84.3-.17.2-.25.48-.25.86V62h-1.18Zm4.53 0v-7.64h1.17V62h-1.17Zm.6-8.9a.83.83 0 0 1-.6-.24.75.75 0 0 1-.24-.56c0-.22.08-.41.25-.57a.83.83 0 0 1 .59-.23c.23 0 .42.08.58.23.17.16.25.35.25.57 0 .21-.08.4-.25.56a.82.82 0 0 1-.58.23Zm3.6 1.26 1.83 3.13 1.83-3.13h1.35l-2.47 3.82 2.47 3.82h-1.35l-1.83-2.96-1.83 2.96h-1.36l2.43-3.82-2.43-3.82h1.36Zm9.57 7.8a3.6 3.6 0 0 1-1.9-.49 3.28 3.28 0 0 1-1.23-1.37 4.68 4.68 0 0 1-.43-2.06c0-.78.14-1.47.43-2.07a3.23 3.23 0 0 1 3.01-1.9c.4 0 .8.06 1.18.2a2.92 2.92 0 0 1 1.82 1.81 5 5 0 0 1 .28 1.8v.5h-5.88v-1.01h4.69c0-.44-.09-.82-.26-1.16a1.95 1.95 0 0 0-1.83-1.1c-.47 0-.87.12-1.21.36-.34.22-.6.52-.78.9-.19.36-.28.75-.28 1.17v.68c0 .58.1 1.07.3 1.47.2.4.48.7.84.9.36.21.78.32 1.25.32.3 0 .59-.05.84-.13.25-.1.47-.23.65-.4.18-.18.32-.4.42-.67l1.13.32c-.12.38-.32.72-.6 1.01-.28.3-.63.52-1.04.68-.42.16-.88.24-1.4.24Zm10.36-6.09-1.06.3a1.95 1.95 0 0 0-.3-.51 1.5 1.5 0 0 0-.5-.42c-.23-.1-.5-.16-.85-.16a2 2 0 0 0-1.17.32c-.3.21-.46.48-.46.81 0 .3.1.52.32.7.21.16.54.3 1 .42l1.13.27c.68.17 1.19.42 1.52.76.34.34.5.78.5 1.31 0 .44-.12.83-.37 1.18-.25.34-.6.61-1.05.81-.44.2-.96.3-1.56.3-.78 0-1.42-.17-1.93-.5a2.25 2.25 0 0 1-.97-1.49l1.11-.28c.1.41.3.72.6.93.3.2.7.3 1.17.3.55 0 .98-.11 1.3-.34.33-.24.5-.52.5-.85 0-.26-.1-.49-.29-.66a1.78 1.78 0 0 0-.85-.41l-1.27-.3a3.04 3.04 0 0 1-1.54-.77 1.87 1.87 0 0 1-.5-1.32c0-.43.13-.81.37-1.14.25-.33.58-.6 1-.78.42-.2.9-.29 1.44-.29.76 0 1.35.17 1.78.5.44.33.74.77.93 1.31Zm3.65 4.54-.08.53a23.86 23.86 0 0 1-.91 3.34h-.9l.17-.83a32.26 32.26 0 0 0 .39-2.49l.06-.55h1.27Zm11.84-6.25c-.06-.5-.3-.9-.72-1.17a2.79 2.79 0 0 0-1.57-.42c-.45 0-.84.08-1.18.22-.34.15-.6.35-.78.6a1.44 1.44 0 0 0-.09 1.57c.13.2.3.36.5.49a5.58 5.58 0 0 0 1.28.5l1.03.28c.26.07.56.17.88.29.33.12.65.29.94.5.3.21.55.48.75.8a2.68 2.68 0 0 1-.14 2.71c-.28.44-.7.8-1.25 1.06s-1.21.39-2 .39c-.72 0-1.36-.12-1.89-.35a2.8 2.8 0 0 1-1.76-2.45h1.27c.03.38.16.7.38.95.23.25.52.43.87.56.35.12.73.18 1.13.18.47 0 .9-.08 1.27-.23.38-.16.67-.37.9-.65.21-.28.32-.6.32-.97 0-.34-.1-.62-.28-.83a2.08 2.08 0 0 0-.75-.52 7.8 7.8 0 0 0-1-.34l-1.25-.36a4.67 4.67 0 0 1-1.9-.98 2.17 2.17 0 0 1-.69-1.67c0-.57.16-1.06.47-1.49.3-.43.72-.76 1.25-1a4.23 4.23 0 0 1 1.76-.35c.66 0 1.24.12 1.75.35.51.23.92.55 1.22.96.3.4.46.86.47 1.37h-1.19Zm8.01 4.52v-4.52h1.18V62h-1.18v-1.3h-.08c-.18.4-.45.72-.83 1-.38.27-.86.4-1.43.4-.48 0-.9-.1-1.28-.31a2.2 2.2 0 0 1-.87-.96 3.63 3.63 0 0 1-.32-1.61v-4.86h1.17v4.78c0 .55.16 1 .47 1.33.32.33.72.5 1.2.5a2 2 0 0 0 1.66-.91c.2-.31.31-.7.31-1.18Zm6.73-4.52v1h-4.12v-1h4.12ZM175.1 62v-8.69c0-.44.1-.8.31-1.1.2-.29.47-.5.8-.65a2.94 2.94 0 0 1 2.15-.02l-.33 1.01a5.95 5.95 0 0 0-.25-.07 1.5 1.5 0 0 0-.41-.05c-.39 0-.67.1-.84.3-.17.2-.25.48-.25.86V62h-1.18Zm7.93-7.64v1h-4.12v-1h4.12ZM180.15 62v-8.69c0-.44.1-.8.3-1.1.21-.29.48-.5.8-.65a2.94 2.94 0 0 1 2.15-.02l-.33 1.01a5.95 5.95 0 0 0-.25-.07 1.5 1.5 0 0 0-.4-.05c-.4 0-.67.1-.85.3-.16.2-.25.48-.25.86V62h-1.17Zm4.53 0v-7.64h1.17V62h-1.17Zm.6-8.9a.83.83 0 0 1-.6-.24.75.75 0 0 1-.24-.56c0-.22.08-.41.24-.57a.83.83 0 0 1 .6-.23c.22 0 .42.08.58.23.16.16.25.35.25.57 0 .21-.09.4-.25.56a.82.82 0 0 1-.59.23Zm3.6 1.26 1.82 3.13 1.83-3.13h1.35l-2.46 3.82 2.46 3.82h-1.35l-1.83-2.96-1.83 2.96h-1.35l2.43-3.82-2.43-3.82h1.35Zm7.53 7.72a.86.86 0 0 1-.63-.26.86.86 0 0 1-.26-.64.9.9 0 0 1 .26-.63.86.86 0 0 1 .63-.26c.25 0 .46.09.63.26a.86.86 0 0 1 .14 1.08.93.93 0 0 1-.32.33.85.85 0 0 1-.45.12Zm3.86 0a.86.86 0 0 1-.63-.26.86.86 0 0 1-.27-.64c0-.24.1-.45.27-.63a.86.86 0 0 1 .63-.26.9.9 0 0 1 .89.89.92.92 0 0 1-.45.78.85.85 0 0 1-.44.12Zm3.85 0a.86.86 0 0 1-.63-.26.86.86 0 0 1-.26-.64.9.9 0 0 1 .26-.63.86.86 0 0 1 .63-.26.9.9 0 0 1 .9.89c0 .17-.04.32-.13.45a.93.93 0 0 1-.32.33.85.85 0 0 1-.45.12Z" fill="#333"/></g><g filter="url(#g)"><path fill="#fff" d="M211.5 37.5h80v40h-80z"/><path d="M223.86 51.82h1.41l2.82 4.75h.12l2.83-4.75h1.4l-3.67 5.98V62h-1.23v-4.2l-3.68-5.98Zm13.44 10.32c-.65 0-1.24-.11-1.75-.34a3 3 0 0 1-1.22-.94c-.3-.4-.46-.87-.49-1.4h1.26c.02.32.14.6.34.84s.46.42.78.55c.32.13.67.2 1.06.2.44 0 .83-.08 1.17-.23.34-.16.6-.37.8-.64.19-.27.28-.59.28-.94 0-.38-.1-.7-.28-1a1.85 1.85 0 0 0-.81-.67c-.36-.16-.8-.24-1.31-.24h-.82v-1.1h.82c.4 0 .75-.07 1.06-.22a1.64 1.64 0 0 0 .98-1.55 1.56 1.56 0 0 0-.88-1.5 2.1 2.1 0 0 0-.97-.2c-.35 0-.68.06-.99.19-.3.12-.56.3-.76.55-.2.24-.3.53-.31.86h-1.2c.02-.53.18-1 .49-1.4.3-.4.7-.72 1.18-.94a3.82 3.82 0 0 1 3.24.04 2.7 2.7 0 0 1 1.4 2.34 2.32 2.32 0 0 1-1.67 2.31v.08c.64.1 1.14.38 1.5.82.37.44.55.98.55 1.63a2.6 2.6 0 0 1-.46 1.49c-.3.43-.7.78-1.22 1.03s-1.1.38-1.76.38Z" fill="#333"/></g></g><g filter="url(#h)"><path d="m159.6 66 4.9 5h-10l5.1-5ZM78 75a4 4 0 0 1 4-4h155a4 4 0 0 1 4 4v32a4 4 0 0 1-4 4H82a4 4 0 0 1-4-4V75Z" fill="#333"/><path d="M95.4 97V85.36h3.94c.91 0 1.66.17 2.24.5a3.1 3.1 0 0 1 1.3 1.32c.28.56.42 1.18.42 1.87 0 .68-.14 1.3-.42 1.86a3.16 3.16 0 0 1-1.29 1.35c-.58.33-1.32.49-2.23.49h-2.81V91.5h2.77c.62 0 1.13-.1 1.5-.32.38-.22.66-.51.83-.88.17-.37.26-.79.26-1.25 0-.47-.09-.89-.26-1.25a1.87 1.87 0 0 0-.83-.87 3.14 3.14 0 0 0-1.52-.32h-2.48V97H95.4Zm9.98 0v-8.73h1.3v1.32h.09c.16-.43.45-.78.86-1.05.42-.27.89-.4 1.41-.4a15.28 15.28 0 0 1 .7.02v1.36a3.93 3.93 0 0 0-.81-.09c-.43 0-.8.1-1.14.27a1.96 1.96 0 0 0-1.07 1.78V97h-1.34Zm9.35.18a3.73 3.73 0 0 1-3.58-2.13 5.34 5.34 0 0 1-.49-2.35c0-.89.17-1.68.5-2.36a3.7 3.7 0 0 1 3.44-2.18c.45 0 .9.07 1.34.23a3.34 3.34 0 0 1 2.08 2.08c.22.55.32 1.24.32 2.05v.57h-6.72v-1.16h5.36c0-.5-.1-.93-.3-1.32a2.23 2.23 0 0 0-2.09-1.25c-.53 0-1 .14-1.38.4-.39.26-.69.6-.9 1.02a3 3 0 0 0-.3 1.36v.77c0 .66.1 1.22.33 1.68.23.45.55.8.96 1.03.41.24.89.36 1.43.36.35 0 .67-.05.95-.15.3-.1.54-.25.75-.45.2-.2.37-.46.48-.77l1.3.37a2.99 2.99 0 0 1-1.89 1.93c-.47.18-1 .27-1.59.27Zm9.54-8.9v1.13h-4.7v-1.14h4.7Zm-3.3 8.72v-9.93a2.08 2.08 0 0 1 1.27-2 3.37 3.37 0 0 1 2.46-.02l-.39 1.15a6.67 6.67 0 0 0-.28-.08 1.72 1.72 0 0 0-.47-.05c-.44 0-.76.11-.95.33-.2.23-.3.55-.3.99V97h-1.34Zm5.18 0v-8.73h1.34V97h-1.34Zm.68-10.18a.95.95 0 0 1-.67-.27.86.86 0 0 1-.28-.64c0-.25.09-.46.28-.64a.95.95 0 0 1 .67-.27c.26 0 .49.09.67.27a.85.85 0 0 1 0 1.28.93.93 0 0 1-.67.27Zm4.12 1.45 2.09 3.57 2.09-3.57h1.54l-2.81 4.37 2.81 4.36h-1.54l-2.1-3.39-2.08 3.39h-1.55l2.77-4.36-2.77-4.37h1.55Zm10.94 8.91a3.73 3.73 0 0 1-3.58-2.13 5.34 5.34 0 0 1-.5-2.35c0-.89.17-1.68.5-2.36a3.7 3.7 0 0 1 3.44-2.18c.46 0 .9.07 1.35.23a3.34 3.34 0 0 1 2.08 2.08c.21.55.32 1.24.32 2.05v.57h-6.73v-1.16h5.37c0-.5-.1-.93-.3-1.32a2.22 2.22 0 0 0-2.09-1.25 2.47 2.47 0 0 0-2.28 1.42 3 3 0 0 0-.31 1.36v.77c0 .66.11 1.22.34 1.68.23.45.55.8.96 1.03.4.24.88.36 1.43.36.35 0 .67-.05.95-.15.29-.1.54-.25.75-.45.2-.2.37-.46.48-.77l1.3.37a2.9 2.9 0 0 1-.7 1.16c-.32.33-.71.58-1.19.77-.47.18-1 .27-1.6.27Zm11.83-6.95-1.2.34c-.08-.2-.19-.4-.34-.59a1.56 1.56 0 0 0-.59-.47 2.15 2.15 0 0 0-.96-.2c-.53 0-.98.13-1.34.38-.35.24-.52.55-.52.92 0 .34.12.6.36.8.24.19.62.35 1.14.48l1.3.31c.77.2 1.35.48 1.74.87.38.39.57.89.57 1.5 0 .5-.14.95-.43 1.34-.28.4-.68.7-1.2.93-.5.23-1.1.34-1.78.34a3.9 3.9 0 0 1-2.2-.58 2.57 2.57 0 0 1-1.12-1.7l1.28-.3c.12.46.35.81.68 1.05.34.23.79.35 1.34.35a2.5 2.5 0 0 0 1.49-.4c.37-.27.55-.59.55-.96 0-.3-.1-.56-.31-.77-.22-.2-.54-.36-.98-.46l-1.46-.34a3.47 3.47 0 0 1-1.76-.88c-.37-.4-.55-.9-.55-1.5 0-.5.13-.94.41-1.31.28-.38.66-.68 1.14-.9a4 4 0 0 1 1.65-.32c.86 0 1.54.19 2.03.57.5.38.85.88 1.06 1.5Zm4.18 5.18-.1.61c-.06.43-.16.9-.29 1.39a25.59 25.59 0 0 1-.75 2.43h-1.02l.2-.96a36.66 36.66 0 0 0 .44-2.83l.06-.64h1.46Zm13.53-7.14a1.78 1.78 0 0 0-.83-1.34 3.18 3.18 0 0 0-1.78-.48c-.52 0-.97.09-1.36.25-.38.17-.68.4-.9.7a1.65 1.65 0 0 0-.1 1.79c.16.22.35.4.59.55.23.14.48.26.74.36.25.09.5.16.7.22l1.19.32c.3.08.64.19 1.01.33.38.14.73.33 1.07.57a2.65 2.65 0 0 1 1.19 2.3c0 .63-.16 1.2-.5 1.7-.32.51-.8.92-1.42 1.22-.63.3-1.39.44-2.28.44-.84 0-1.56-.13-2.17-.4a3.21 3.21 0 0 1-2.02-2.8h1.46c.04.44.19.8.44 1.1.26.28.6.49 1 .63a4 4 0 0 0 1.29.2c.53 0 1.02-.09 1.45-.26.42-.18.76-.42 1.01-.74s.38-.69.38-1.11c0-.39-.11-.7-.33-.94-.21-.25-.5-.44-.85-.6a8.94 8.94 0 0 0-1.14-.4l-1.43-.4a5.33 5.33 0 0 1-2.16-1.12 2.46 2.46 0 0 1-.8-1.9c0-.66.18-1.23.53-1.71a3.5 3.5 0 0 1 1.43-1.14c.6-.27 1.28-.4 2.02-.4.75 0 1.42.13 2 .4.58.26 1.05.63 1.39 1.09.34.46.52.99.54 1.57h-1.36Zm9.16 5.16v-5.16h1.34V97h-1.34v-1.48h-.1a2.73 2.73 0 0 1-2.58 1.59c-.55 0-1.03-.12-1.46-.35a2.55 2.55 0 0 1-1-1.1 4.15 4.15 0 0 1-.36-1.84v-5.55h1.34v5.46c0 .63.18 1.14.53 1.52.36.38.82.57 1.38.57a2.28 2.28 0 0 0 2.25-2.39Zm7.68-5.16v1.14h-4.7v-1.14h4.7Zm-3.3 8.73v-9.93a2.08 2.08 0 0 1 1.27-2 3.37 3.37 0 0 1 2.46-.02l-.39 1.15a6.67 6.67 0 0 0-.28-.08 1.72 1.72 0 0 0-.47-.05c-.44 0-.76.11-.96.33-.19.23-.28.55-.28.99V97h-1.35Zm9.07-8.73v1.14h-4.7v-1.14h4.7Zm-3.3 8.73v-9.93c0-.5.12-.92.35-1.25.24-.34.54-.59.92-.75a3.36 3.36 0 0 1 2.46-.02l-.39 1.15a6.67 6.67 0 0 0-.28-.08 1.73 1.73 0 0 0-.47-.05c-.44 0-.76.11-.96.33-.2.23-.29.55-.29.99V97h-1.34Zm5.17 0v-8.73h1.35V97h-1.34Zm.69-10.18a.96.96 0 0 1-.68-.27.86.86 0 0 1-.28-.64c0-.25.1-.46.28-.64a.96.96 0 0 1 .68-.27c.26 0 .48.09.67.27.19.18.28.39.28.64s-.1.46-.28.64a.93.93 0 0 1-.67.27Zm4.11 1.45 2.1 3.57 2.08-3.57h1.55l-2.82 4.37 2.82 4.36h-1.55l-2.09-3.39-2.09 3.39h-1.54l2.77-4.36-2.77-4.37h1.54Zm10.94 8.91a3.74 3.74 0 0 1-3.58-2.13 5.36 5.36 0 0 1-.49-2.35c0-.89.17-1.68.5-2.36a3.7 3.7 0 0 1 3.44-2.18c.45 0 .9.07 1.34.23a3.33 3.33 0 0 1 2.08 2.08c.22.55.33 1.24.33 2.05v.57h-6.73v-1.16h5.36c0-.5-.1-.93-.3-1.32a2.23 2.23 0 0 0-2.08-1.25c-.54 0-1 .14-1.4.4-.38.26-.67.6-.88 1.02a3 3 0 0 0-.31 1.36v.77c0 .66.1 1.22.34 1.68.23.45.55.8.96 1.03.4.24.88.36 1.42.36.35 0 .67-.05.96-.15.28-.1.53-.25.74-.45.2-.2.37-.46.48-.77l1.3.37a2.99 2.99 0 0 1-1.89 1.93c-.47.18-1 .27-1.59.27Zm11.84-6.95-1.2.34c-.08-.2-.2-.4-.34-.59a1.6 1.6 0 0 0-.6-.47 2.15 2.15 0 0 0-.95-.2c-.54 0-.98.13-1.34.38-.35.24-.53.55-.53.92 0 .34.12.6.37.8.24.19.62.35 1.13.48l1.3.31c.78.2 1.36.48 1.74.87.39.39.58.89.58 1.5 0 .5-.15.95-.44 1.34-.28.4-.68.7-1.19.93-.51.23-1.1.34-1.78.34-.9 0-1.63-.2-2.21-.58a2.57 2.57 0 0 1-1.11-1.7l1.27-.3c.12.46.35.81.69 1.05.34.23.78.35 1.33.35a2.5 2.5 0 0 0 1.5-.4c.36-.27.55-.59.55-.96 0-.3-.1-.56-.32-.77-.21-.2-.54-.36-.98-.46l-1.45-.34a3.47 3.47 0 0 1-1.76-.88c-.37-.4-.56-.9-.56-1.5 0-.5.14-.94.42-1.31.28-.38.66-.68 1.14-.9a4 4 0 0 1 1.65-.32c.86 0 1.54.19 2.03.57.5.38.85.88 1.06 1.5Z" fill="#fff"/></g><defs><filter id="e" x="8.5" y="37.5" width="75" height="40" filterUnits="userSpaceOnUse" color-interpolation-filters="sRGB"><feFlood flood-opacity="0" result="BackgroundImageFix"/><feBlend in="SourceGraphic" in2="BackgroundImageFix" result="shape"/><feColorMatrix in="SourceAlpha" values="0 0 0 0 0 0 0 0 0 0 0 0 0 0 0 0 0 0 127 0" result="hardAlpha"/><feOffset dy="-1"/><feComposite in2="hardAlpha" operator="arithmetic" k2="-1" k3="1"/><feColorMatrix values="0 0 0 0 0.933333 0 0 0 0 0.933333 0 0 0 0 0.933333 0 0 0 1 0"/><feBlend in2="shape" result="effect1_innerShadow_13278_51483"/></filter><filter id="f" x="83.5" y="37" width="128" height="41" filterUnits="userSpaceOnUse" color-interpolation-filters="sRGB"><feFlood flood-opacity="0" result="BackgroundImageFix"/><feBlend in="SourceGraphic" in2="BackgroundImageFix" result="shape"/><feColorMatrix in="SourceAlpha" values="0 0 0 0 0 0 0 0 0 0 0 0 0 0 0 0 0 0 127 0" result="hardAlpha"/><feOffset dy="-1"/><feComposite in2="hardAlpha" operator="arithmetic" k2="-1" k3="1"/><feColorMatrix values="0 0 0 0 0.933333 0 0 0 0 0.933333 0 0 0 0 0.933333 0 0 0 1 0"/><feBlend in2="shape" result="effect1_innerShadow_13278_51483"/></filter><filter id="g" x="211.5" y="37.5" width="80" height="40" filterUnits="userSpaceOnUse" color-interpolation-filters="sRGB"><feFlood flood-opacity="0" result="BackgroundImageFix"/><feBlend in="SourceGraphic" in2="BackgroundImageFix" result="shape"/><feColorMatrix in="SourceAlpha" values="0 0 0 0 0 0 0 0 0 0 0 0 0 0 0 0 0 0 127 0" result="hardAlpha"/><feOffset dy="-1"/><feComposite in2="hardAlpha" operator="arithmetic" k2="-1" k3="1"/><feColorMatrix values="0 0 0 0 0.933333 0 0 0 0 0.933333 0 0 0 0 0.933333 0 0 0 1 0"/><feBlend in2="shape" result="effect1_innerShadow_13278_51483"/></filter><filter id="h" x="75" y="64" width="169" height="52" filterUnits="userSpaceOnUse" color-interpolation-filters="sRGB"><feFlood flood-opacity="0" result="BackgroundImageFix"/><feColorMatrix in="SourceAlpha" values="0 0 0 0 0 0 0 0 0 0 0 0 0 0 0 0 0 0 127 0" result="hardAlpha"/><feOffset dy="2"/><feGaussianBlur stdDeviation="1.5"/><feColorMatrix values="0 0 0 0 0.2 0 0 0 0 0.2 0 0 0 0 0.2 0 0 0 0.15 0"/><feBlend in2="BackgroundImageFix" result="effect1_dropShadow_13278_51483"/><feColorMatrix in="SourceAlpha" values="0 0 0 0 0 0 0 0 0 0 0 0 0 0 0 0 0 0 127 0" result="hardAlpha"/><feOffset dy="1"/><feGaussianBlur stdDeviation="1.5"/><feColorMatrix values="0 0 0 0 0.2 0 0 0 0 0.2 0 0 0 0 0.2 0 0 0 0.1 0"/><feBlend in2="effect1_dropShadow_13278_51483" result="effect2_dropShadow_13278_51483"/><feBlend in="SourceGraphic" in2="effect2_dropShadow_13278_51483" result="shape"/></filter><clipPath id="a"><path fill="#fff" transform="translate(8.5 8)" d="M0 0h283v70H0z"/></clipPath></defs></svg>