<svg width="672" height="393" fill="none" xmlns="http://www.w3.org/2000/svg"><path fill="#F6F6F6" d="M0 .67h672v391.47H0z"/><path fill="#fff" d="M164.7 32.67h342.6v327.47H164.7z"/><path fill="#D6EAFF" d="M178.95 61.18h314.1v133.6h-314.1z"/><path d="M359.39 153.78h-46.78a2.4 2.4 0 0 1-2.42-2.41v-46.78a2.4 2.4 0 0 1 2.42-2.42h46.78c1.33 0 2.42 1.1 2.42 2.42v46.78a2.4 2.4 0 0 1-2.42 2.41Zm-44.36-4.87h41.94v-41.9h-41.94v41.94-.04Z" fill="#0F67F5"/><path d="M351.6 153.78c-.63 0-1.25-.23-1.72-.7l-26.86-26.86-8.66 8.7c-.93.93-2.5.93-3.43 0a2.45 2.45 0 0 1 0-3.43l10.41-10.41c.94-.9 2.54-.9 3.43 0l28.58 28.57c.93.94.93 2.5 0 3.43-.47.47-1.1.7-1.72.7h-.04Zm-11.7-28.58a8.95 8.95 0 0 1-8.93-8.92 8.95 8.95 0 0 1 8.93-8.93 8.95 8.95 0 0 1 8.93 8.93 8.95 8.95 0 0 1-8.93 8.93Zm0-12.97a4.08 4.08 0 0 0-4.06 4.05 4.08 4.08 0 0 0 4.06 4.06 4.08 4.08 0 0 0 4.05-4.06 4.08 4.08 0 0 0-4.05-4.05Z" fill="#0F67F5"/><path d="M339.9 142.09c-.63 0-1.25-.24-1.72-.7a2.45 2.45 0 0 1 0-3.43l19.5-19.5a2.46 2.46 0 0 1 3.43 0c.93.94.93 2.5 0 3.44l-19.5 19.49c-.46.47-1.09.7-1.71.7Z" fill="#0F67F5"/><path d="M184.03 228.6v-12.93h-4.54V213h12.02v2.67h-4.54v12.92h-2.94Zm9.58 0V213h2.8v5.9h.4a2.84 2.84 0 0 1 1.56-1.3c.43-.15.98-.23 1.63-.23a4.14 4.14 0 0 1 3.76 2.22c.36.69.54 1.49.54 2.41v6.6h-2.8v-6.38c0-.83-.22-1.45-.63-1.87-.4-.41-.98-.62-1.74-.62-.86 0-1.53.29-2 .87a3.6 3.6 0 0 0-.72 2.38v5.61h-2.8Zm18.76.3c-1.1 0-2.07-.22-2.92-.69a5.13 5.13 0 0 1-1.96-1.98 6.34 6.34 0 0 1-.7-3.03v-.26c0-1.16.24-2.16.7-3.01a4.8 4.8 0 0 1 1.94-1.98 5.7 5.7 0 0 1 2.9-.72 5.3 5.3 0 0 1 2.82.74c.8.47 1.43 1.14 1.87 2 .45.85.67 1.84.67 2.97v.95h-8.04c.03.76.31 1.38.85 1.85.53.48 1.19.72 1.96.72.78 0 1.36-.18 1.73-.52.38-.34.66-.72.85-1.13l2.3 1.2c-.21.39-.52.8-.92 1.27-.38.44-.9.83-1.56 1.16a5.8 5.8 0 0 1-2.5.47Zm-2.7-7.1h5.17a2.2 2.2 0 0 0-.78-1.54 2.6 2.6 0 0 0-1.76-.58c-.76 0-1.36.2-1.8.58-.45.39-.72.9-.83 1.54Zm16.18 6.8v-11.06h2.76v1.2h.4c.2-.36.51-.68.96-.95a3.25 3.25 0 0 1 1.76-.42c.78 0 1.42.15 1.9.46.47.3.83.7 1.08 1.18h.4c.26-.47.61-.86 1.07-1.18a3.47 3.47 0 0 1 1.96-.46c.69 0 1.3.14 1.85.44.57.28 1.01.72 1.34 1.32.34.58.51 1.31.51 2.2v7.26h-2.8v-7.06c0-.6-.16-1.06-.47-1.36a1.78 1.78 0 0 0-1.32-.46c-.64 0-1.13.2-1.5.62-.33.4-.5.98-.5 1.74v6.52h-2.81v-7.06c0-.6-.16-1.06-.47-1.36a1.78 1.78 0 0 0-1.31-.46c-.64 0-1.14.2-1.5.62-.34.4-.5.98-.5 1.74v6.52h-2.81Zm22.44.3c-.79 0-1.5-.13-2.12-.4a3.65 3.65 0 0 1-1.49-1.2 3.42 3.42 0 0 1-.53-1.94c0-.75.17-1.39.53-1.89.37-.52.88-.9 1.52-1.16.65-.27 1.4-.4 2.22-.4h3.03v-.62c0-.52-.16-.95-.49-1.27-.32-.34-.84-.52-1.56-.52-.7 0-1.21.17-1.56.5a2.2 2.2 0 0 0-.66 1.22l-2.59-.87a4.21 4.21 0 0 1 2.43-2.67c.67-.3 1.48-.45 2.43-.45 1.45 0 2.6.37 3.45 1.1.85.72 1.27 1.78 1.27 3.16v4.12c0 .44.2.67.63.67h.89v2.31h-1.88c-.55 0-1-.13-1.35-.4a1.27 1.27 0 0 1-.54-1.07v-.02h-.42a2.67 2.67 0 0 1-1.38 1.47 4.2 4.2 0 0 1-1.83.34Zm.49-2.27a2.8 2.8 0 0 0 1.92-.64c.5-.45.75-1.03.75-1.76V224h-2.83a2 2 0 0 0-1.22.33c-.3.22-.45.53-.45.94 0 .4.16.72.47.97.31.26.77.38 1.36.38Zm8.96 1.96v-11.05h2.8v11.05h-2.8Zm1.4-12.34a1.7 1.7 0 0 1-1.8-1.78 1.7 1.7 0 0 1 1.8-1.78 1.7 1.7 0 0 1 1.8 1.78 1.71 1.71 0 0 1-1.8 1.78Zm4.51 12.34v-11.05h2.77V219h.4c.18-.38.51-.75 1-1.09a3.8 3.8 0 0 1 2.23-.53 4.14 4.14 0 0 1 3.76 2.22c.36.69.54 1.49.54 2.41v6.6h-2.8v-6.38c0-.83-.22-1.45-.63-1.87-.4-.41-.98-.62-1.74-.62-.86 0-1.53.29-2 .87a3.6 3.6 0 0 0-.72 2.38v5.61h-2.8Zm19.39 0V213h2.8v5.9h.4a2.84 2.84 0 0 1 1.56-1.3c.44-.15.98-.23 1.63-.23a4.14 4.14 0 0 1 3.77 2.22c.35.69.53 1.49.53 2.41v6.6h-2.8v-6.38c0-.83-.21-1.45-.63-1.87-.4-.41-.98-.62-1.74-.62-.86 0-1.53.29-2 .87a3.6 3.6 0 0 0-.71 2.38v5.61h-2.81Zm18.76.32c-1.1 0-2.07-.23-2.92-.7a5.13 5.13 0 0 1-1.96-1.98 6.34 6.34 0 0 1-.69-3.03v-.26c0-1.16.23-2.16.7-3.01a4.8 4.8 0 0 1 1.93-1.98 5.7 5.7 0 0 1 2.9-.72 5.3 5.3 0 0 1 2.82.74 4.9 4.9 0 0 1 1.88 2c.44.85.66 1.84.66 2.97v.95h-8.04c.03.76.31 1.38.85 1.85.53.48 1.19.72 1.96.72.79 0 1.37-.18 1.74-.52.37-.34.65-.72.84-1.13l2.3 1.2c-.21.39-.51.8-.92 1.27-.38.44-.9.83-1.56 1.16a5.8 5.8 0 0 1-2.49.47Zm-2.7-7.11h5.17a2.2 2.2 0 0 0-.78-1.54 2.6 2.6 0 0 0-1.76-.58c-.75 0-1.36.2-1.8.58-.45.39-.72.9-.82 1.54Zm13.95 7.1c-.78 0-1.49-.13-2.11-.4a3.64 3.64 0 0 1-1.5-1.2 3.42 3.42 0 0 1-.53-1.94c0-.75.18-1.39.53-1.89.38-.52.88-.9 1.52-1.16a5.8 5.8 0 0 1 2.23-.4h3.03v-.62c0-.52-.17-.95-.5-1.27-.32-.34-.84-.52-1.55-.52-.7 0-1.22.17-1.56.5-.34.3-.57.72-.67 1.22l-2.58-.87a4.2 4.2 0 0 1 2.43-2.67c.66-.3 1.47-.45 2.42-.45 1.46 0 2.6.37 3.45 1.1.85.72 1.27 1.78 1.27 3.16v4.12c0 .44.21.67.63.67h.89v2.31h-1.87c-.55 0-1-.13-1.36-.4a1.27 1.27 0 0 1-.54-1.07v-.02h-.42a2.67 2.67 0 0 1-1.38 1.47 4.2 4.2 0 0 1-1.83.34Zm.5-2.27a2.8 2.8 0 0 0 1.9-.64c.51-.45.77-1.03.77-1.76V224h-2.83a2 2 0 0 0-1.23.33c-.3.22-.44.53-.44.94 0 .4.15.72.46.97.32.26.77.38 1.36.38Zm13.19 2.28a5 5 0 0 1-2.47-.65 4.92 4.92 0 0 1-1.83-1.94 6.36 6.36 0 0 1-.7-3.07v-.36c0-1.2.24-2.23.7-3.07a4.8 4.8 0 0 1 4.3-2.58c.67 0 1.22.07 1.67.24.46.15.83.34 1.11.58.29.23.5.49.65.75h.4V213h2.8v15.6h-2.75v-1.34h-.4c-.26.41-.65.8-1.19 1.13a4.2 4.2 0 0 1-2.3.52Zm.84-2.45c.87 0 1.59-.28 2.17-.83.57-.56.87-1.38.87-2.45v-.22c0-1.07-.3-1.88-.87-2.43a2.92 2.92 0 0 0-2.17-.85c-.86 0-1.58.28-2.16.85-.57.55-.86 1.36-.86 2.43v.22c0 1.07.29 1.89.86 2.45.58.55 1.3.83 2.16.83Zm8.9 2.13V213h2.82v15.6h-2.81Zm5.93 0v-11.05h2.8v11.05h-2.8Zm1.4-12.34c-.5 0-.94-.16-1.3-.49a1.7 1.7 0 0 1-.5-1.29 1.7 1.7 0 0 1 1.8-1.78 1.7 1.7 0 0 1 1.8 1.78 1.71 1.71 0 0 1-1.8 1.78Zm4.51 12.34v-11.05h2.77V219h.4c.18-.38.5-.75 1-1.09a3.8 3.8 0 0 1 2.23-.53 4.14 4.14 0 0 1 3.76 2.22c.36.69.54 1.49.54 2.41v6.6h-2.81v-6.38c0-.83-.2-1.45-.63-1.87-.4-.41-.97-.62-1.73-.62-.86 0-1.53.29-2 .87a3.6 3.6 0 0 0-.72 2.38v5.61h-2.8Zm18.76.32c-1.1 0-2.07-.23-2.91-.7a5.13 5.13 0 0 1-1.96-1.98 6.34 6.34 0 0 1-.7-3.03v-.26c0-1.16.24-2.16.7-3.01a4.8 4.8 0 0 1 1.93-1.98c.84-.48 1.8-.72 2.9-.72 1.08 0 2.03.25 2.83.74.8.47 1.43 1.14 1.87 2 .45.85.67 1.84.67 2.97v.95h-8.04c.03.76.3 1.38.84 1.85.54.48 1.2.72 1.96.72.8 0 1.37-.18 1.74-.52.37-.34.65-.72.85-1.13l2.3 1.2c-.21.39-.52.8-.92 1.27-.39.44-.9.83-1.56 1.16a5.8 5.8 0 0 1-2.5.47Zm-2.7-7.11h5.18a2.19 2.19 0 0 0-.78-1.54 2.6 2.6 0 0 0-1.76-.58c-.76 0-1.36.2-1.8.58-.45.39-.73.9-.83 1.54Zm12.16 7.1c-.6 0-1.1-.19-1.52-.57-.4-.4-.6-.92-.6-1.54a2 2 0 0 1 .6-1.51c.42-.4.92-.6 1.52-.6a2.05 2.05 0 0 1 2.11 2.1c0 .63-.2 1.15-.6 1.55-.4.38-.9.58-1.51.58Zm9.76-.3V213h2.94v12.92h7.13v2.67H386.3Zm17.42.3a6.5 6.5 0 0 1-2.96-.66 5 5 0 0 1-2.07-1.94 5.85 5.85 0 0 1-.76-3.05v-.36c0-1.19.25-2.2.76-3.05.5-.85 1.2-1.5 2.07-1.94a6.45 6.45 0 0 1 2.96-.67c1.1 0 2.1.23 2.97.67.87.45 1.56 1.1 2.07 1.94.5.85.76 1.86.76 3.05v.36a5.9 5.9 0 0 1-.76 3.05 5 5 0 0 1-2.07 1.94c-.88.44-1.87.67-2.97.67Zm0-2.49c.87 0 1.58-.27 2.14-.82.57-.57.85-1.37.85-2.4v-.23c0-1.04-.28-1.84-.85-2.39a2.85 2.85 0 0 0-2.14-.84 2.9 2.9 0 0 0-2.13.84c-.57.55-.85 1.35-.85 2.39v.22c0 1.04.28 1.84.85 2.4.56.56 1.27.83 2.13.83Zm8.39 2.18v-11.05h2.76v1.25h.4c.16-.44.43-.77.8-.98.39-.2.83-.31 1.34-.31h1.33v2.5h-1.38c-.7 0-1.3.19-1.76.57-.46.38-.69.96-.69 1.74v6.28h-2.8Zm13.47.32c-1.1 0-2.07-.23-2.92-.7a5.12 5.12 0 0 1-1.96-1.98 6.33 6.33 0 0 1-.69-3.03v-.26c0-1.16.23-2.16.7-3.01a4.8 4.8 0 0 1 1.93-1.98 5.7 5.7 0 0 1 2.9-.72c1.08 0 2.02.25 2.83.74.8.47 1.42 1.14 1.87 2 .44.85.67 1.84.67 2.97v.95h-8.05c.03.76.32 1.38.85 1.85.54.48 1.19.72 1.96.72.79 0 1.37-.18 1.74-.52.37-.34.65-.72.84-1.13l2.3 1.2c-.2.39-.51.8-.91 1.27-.39.44-.9.83-1.56 1.16a5.8 5.8 0 0 1-2.5.47Zm-2.7-7.11h5.18a2.19 2.19 0 0 0-.79-1.54 2.6 2.6 0 0 0-1.75-.58c-.76 0-1.36.2-1.8.58-.46.39-.73.9-.83 1.54Zm10.52 6.8v-11.06h2.77v1.2h.4c.2-.36.51-.68.96-.95a3.25 3.25 0 0 1 1.76-.42c.78 0 1.41.15 1.89.46.47.3.84.7 1.1 1.18h.4c.24-.47.6-.86 1.06-1.18a3.47 3.47 0 0 1 1.96-.46c.68 0 1.3.14 1.85.44a3.1 3.1 0 0 1 1.34 1.32c.34.58.5 1.31.5 2.2v7.26h-2.8v-7.06c0-.6-.15-1.06-.47-1.36a1.77 1.77 0 0 0-1.31-.46c-.64 0-1.14.2-1.5.62-.33.4-.5.98-.5 1.74v6.52H440v-7.06c0-.6-.16-1.06-.47-1.36a1.78 1.78 0 0 0-1.31-.46c-.64 0-1.14.2-1.5.62-.34.4-.5.98-.5 1.74v6.52h-2.82Zm-252.89 25v-11.06h2.8v11.05h-2.8Zm1.4-12.35a1.7 1.7 0 0 1-1.8-1.78 1.7 1.7 0 0 1 1.8-1.78 1.7 1.7 0 0 1 1.8 1.78 1.71 1.71 0 0 1-1.8 1.78Zm4.52 16.8v-15.5h2.76v1.33h.4c.25-.43.65-.8 1.18-1.13.54-.35 1.3-.52 2.3-.52a4.8 4.8 0 0 1 4.3 2.59c.46.84.69 1.87.69 3.07v.36c0 1.2-.23 2.22-.7 3.07a4.9 4.9 0 0 1-1.82 1.94c-.76.43-1.58.65-2.47.65a5.1 5.1 0 0 1-1.7-.25 3.3 3.3 0 0 1-1.09-.58c-.27-.25-.48-.5-.65-.76h-.4v5.73h-2.8Zm5.79-6.6c.88 0 1.6-.27 2.16-.82.58-.56.87-1.38.87-2.45v-.22c0-1.07-.3-1.88-.87-2.43a2.97 2.97 0 0 0-2.16-.85c-.86 0-1.58.28-2.16.85-.58.55-.87 1.36-.87 2.43v.22c0 1.07.29 1.89.87 2.45.58.55 1.3.83 2.16.83Zm13 2.46a6.19 6.19 0 0 1-3.54-.94 3.85 3.85 0 0 1-1.67-2.67l2.58-.67c.1.52.28.93.52 1.22.25.3.55.52.9.65.38.12.78.18 1.21.18.66 0 1.14-.11 1.45-.34.31-.23.47-.52.47-.87 0-.34-.15-.6-.45-.78-.3-.19-.77-.34-1.42-.46l-.63-.11c-.77-.15-1.47-.35-2.11-.6a3.96 3.96 0 0 1-1.54-1.1 2.68 2.68 0 0 1-.58-1.78c0-1.1.4-1.94 1.2-2.52.8-.59 1.86-.89 3.17-.89a5.4 5.4 0 0 1 3.07.83 3.8 3.8 0 0 1 1.6 2.16l-2.6.8c-.12-.56-.37-.97-.74-1.2-.35-.24-.8-.36-1.33-.36-.54 0-.95.1-1.23.29a.85.85 0 0 0-.42.76c0 .35.15.62.44.8.3.16.7.29 1.2.38l.63.1c.83.16 1.58.36 2.25.61.68.24 1.22.59 1.6 1.05.4.44.6 1.05.6 1.83a3.2 3.2 0 0 1-1.26 2.69c-.84.62-1.96.94-3.37.94Zm11.3-.14c-.86 0-1.61-.2-2.27-.58a4.11 4.11 0 0 1-1.49-1.65c-.36-.7-.53-1.5-.53-2.4v-6.6h2.8v6.38c0 .83.2 1.45.6 1.87.42.41 1 .62 1.76.62.87 0 1.53-.28 2-.85.48-.57.72-1.38.72-2.4v-5.62h2.8v11.05h-2.75v-1.44h-.4c-.18.37-.52.73-1 1.09-.5.35-1.24.53-2.23.53Zm9.52-.18v-11.05h2.76v1.2h.4c.2-.36.52-.68.96-.95a3.25 3.25 0 0 1 1.76-.42c.79 0 1.42.15 1.9.46.47.3.84.7 1.09 1.18h.4c.25-.47.6-.86 1.07-1.18a3.48 3.48 0 0 1 1.96-.46c.68 0 1.3.14 1.85.44.56.28 1 .72 1.33 1.32.35.58.52 1.31.52 2.2v7.26h-2.81v-7.06c0-.6-.16-1.06-.47-1.36a1.78 1.78 0 0 0-1.31-.46c-.64 0-1.14.2-1.5.62-.34.4-.5.98-.5 1.74v6.52h-2.81v-7.06c0-.6-.16-1.06-.47-1.36a1.78 1.78 0 0 0-1.32-.46c-.63 0-1.13.2-1.49.62-.34.4-.51.98-.51 1.74v6.52h-2.8Zm29.13.32a5 5 0 0 1-2.48-.65 4.92 4.92 0 0 1-1.82-1.94 6.36 6.36 0 0 1-.7-3.07v-.36c0-1.2.24-2.23.7-3.07a4.8 4.8 0 0 1 4.3-2.58c.67 0 1.22.07 1.67.24.46.15.83.34 1.11.58.28.23.5.49.65.75h.4V238h2.8v15.6h-2.76v-1.34h-.4c-.25.41-.64.8-1.18 1.13a4.2 4.2 0 0 1-2.3.52Zm.84-2.45c.87 0 1.59-.28 2.16-.83.58-.56.87-1.38.87-2.45v-.22c0-1.07-.29-1.88-.87-2.43a2.92 2.92 0 0 0-2.16-.85c-.86 0-1.58.28-2.16.85-.58.55-.87 1.36-.87 2.43v.22c0 1.07.3 1.89.87 2.45.58.55 1.3.83 2.16.83Zm14.16 2.45c-1.1 0-2.08-.23-2.96-.67a5 5 0 0 1-2.07-1.94 5.85 5.85 0 0 1-.76-3.05v-.36c0-1.19.25-2.2.76-3.05.5-.85 1.2-1.5 2.07-1.94a6.45 6.45 0 0 1 2.96-.67c1.1 0 2.1.23 2.97.67.87.45 1.56 1.1 2.07 1.94.5.85.76 1.86.76 3.05v.36a5.9 5.9 0 0 1-.76 3.05 5 5 0 0 1-2.07 1.94c-.88.44-1.87.67-2.97.67Zm0-2.5c.87 0 1.58-.27 2.14-.82.57-.57.85-1.37.85-2.4v-.23c0-1.04-.28-1.84-.85-2.39a2.85 2.85 0 0 0-2.14-.84 2.9 2.9 0 0 0-2.13.84c-.57.55-.85 1.35-.85 2.39v.22c0 1.04.28 1.84.85 2.4.56.56 1.27.83 2.13.83Zm8.39 2.18V238h2.8v15.6h-2.8Zm11.17.32c-1.1 0-2.09-.23-2.96-.67a5 5 0 0 1-2.07-1.94 5.85 5.85 0 0 1-.76-3.05v-.36c0-1.19.25-2.2.76-3.05.5-.85 1.2-1.5 2.07-1.94a6.45 6.45 0 0 1 2.96-.67c1.1 0 2.09.23 2.96.67.88.45 1.57 1.1 2.08 1.94.5.85.75 1.86.75 3.05v.36a5.9 5.9 0 0 1-.75 3.05 5 5 0 0 1-2.08 1.94c-.87.44-1.86.67-2.96.67Zm0-2.5c.86 0 1.58-.27 2.14-.82.56-.57.85-1.37.85-2.4v-.23c0-1.04-.29-1.84-.85-2.39a2.85 2.85 0 0 0-2.14-.84 2.9 2.9 0 0 0-2.14.84c-.56.55-.84 1.35-.84 2.39v.22c0 1.04.28 1.84.84 2.4.57.56 1.28.83 2.14.83Zm8.38 2.18v-11.05h2.77v1.25h.4c.16-.44.43-.77.8-.98.39-.2.83-.31 1.34-.31h1.33v2.5h-1.38c-.71 0-1.3.19-1.76.57-.46.38-.69.96-.69 1.74v6.28h-2.8Zm19.08.32a6.18 6.18 0 0 1-3.54-.94 3.85 3.85 0 0 1-1.67-2.67l2.58-.67c.1.52.28.93.51 1.22.26.3.56.52.92.65.37.12.77.18 1.2.18.66 0 1.14-.11 1.45-.34.31-.23.47-.52.47-.87 0-.34-.15-.6-.45-.78-.3-.19-.77-.34-1.42-.46l-.63-.11c-.77-.15-1.48-.35-2.11-.6a3.96 3.96 0 0 1-1.54-1.1 2.68 2.68 0 0 1-.58-1.78c0-1.1.4-1.94 1.2-2.52.8-.59 1.86-.89 3.17-.89a5.4 5.4 0 0 1 3.07.83 3.8 3.8 0 0 1 1.6 2.16l-2.6.8c-.12-.56-.37-.97-.74-1.2-.35-.24-.8-.36-1.33-.36-.54 0-.95.1-1.23.29a.85.85 0 0 0-.42.76c0 .35.15.62.44.8.3.16.7.29 1.2.38l.63.1c.83.16 1.58.36 2.25.61.68.24 1.22.59 1.6 1.05.4.44.6 1.05.6 1.83a3.2 3.2 0 0 1-1.26 2.69c-.84.62-1.96.94-3.37.94Zm7.1-.32v-11.05h2.8v11.05h-2.8Zm1.4-12.34c-.5 0-.94-.16-1.3-.49a1.71 1.71 0 0 1-.5-1.29c0-.53.17-.97.5-1.3.36-.32.8-.48 1.3-.48a1.7 1.7 0 0 1 1.8 1.78 1.7 1.7 0 0 1-1.8 1.78Zm8.74 12.34c-.72 0-1.32-.22-1.78-.66a2.52 2.52 0 0 1-.67-1.83v-6.24h-2.76v-2.32h2.76v-3.43h2.81v3.43h3.03v2.32h-3.03v5.75c0 .44.2.67.63.67h2.13v2.31h-3.12Zm15.02.32c-.79 0-1.5-.14-2.12-.4a3.64 3.64 0 0 1-1.5-1.2 3.42 3.42 0 0 1-.53-1.95c0-.75.18-1.39.54-1.89.37-.52.88-.9 1.51-1.16.66-.27 1.4-.4 2.23-.4h3.03v-.62c0-.52-.16-.95-.49-1.27-.33-.34-.85-.52-1.56-.52-.7 0-1.22.17-1.56.5-.34.3-.56.72-.67 1.22l-2.58-.87a4.21 4.21 0 0 1 2.43-2.67c.67-.3 1.48-.45 2.43-.45 1.45 0 2.6.37 3.45 1.1.85.72 1.27 1.78 1.27 3.16v4.12c0 .44.2.67.62.67h.9v2.31h-1.88c-.55 0-1-.13-1.36-.4a1.27 1.27 0 0 1-.53-1.07v-.02h-.42a2.67 2.67 0 0 1-1.38 1.47 4.2 4.2 0 0 1-1.83.34Zm.49-2.28a2.8 2.8 0 0 0 1.91-.64c.5-.45.76-1.03.76-1.76V249h-2.83a2 2 0 0 0-1.22.33c-.3.22-.45.53-.45.94 0 .4.16.72.47.97.31.26.76.38 1.36.38Zm8.96 1.96v-11.05h2.76v1.2h.4c.2-.36.51-.68.96-.95a3.25 3.25 0 0 1 1.76-.42c.78 0 1.42.15 1.89.46.48.3.84.7 1.1 1.18h.4c.25-.47.6-.86 1.06-1.18a3.48 3.48 0 0 1 1.96-.46c.69 0 1.3.14 1.85.44.57.28 1.01.72 1.34 1.32.34.58.51 1.31.51 2.2v7.26h-2.8v-7.06c0-.6-.16-1.06-.47-1.36a1.78 1.78 0 0 0-1.32-.46c-.64 0-1.13.2-1.5.62-.33.4-.5.98-.5 1.74v6.52h-2.81v-7.06c0-.6-.16-1.06-.47-1.36a1.78 1.78 0 0 0-1.31-.46c-.64 0-1.14.2-1.5.62-.34.4-.5.98-.5 1.74v6.52h-2.81Zm24.04.32c-1.1 0-2.07-.23-2.92-.7a5.13 5.13 0 0 1-1.95-1.98 6.34 6.34 0 0 1-.7-3.03v-.26c0-1.16.24-2.16.7-3.01a4.8 4.8 0 0 1 1.93-1.98 5.7 5.7 0 0 1 2.9-.72c1.08 0 2.03.25 2.83.74.8.47 1.42 1.14 1.87 2 .44.85.67 1.84.67 2.97v.95h-8.04c.03.76.3 1.38.84 1.85.54.48 1.2.72 1.96.72.79 0 1.37-.18 1.74-.52.37-.34.65-.72.85-1.13l2.3 1.2c-.22.39-.52.8-.92 1.27-.39.44-.9.83-1.56 1.16a5.8 5.8 0 0 1-2.5.47Zm-2.7-7.11h5.18a2.19 2.19 0 0 0-.78-1.54 2.6 2.6 0 0 0-1.76-.58c-.76 0-1.36.2-1.8.58-.45.39-.73.9-.83 1.54Zm14.39 6.8c-.73 0-1.32-.23-1.78-.67a2.51 2.51 0 0 1-.67-1.83v-6.24h-2.76v-2.32h2.76v-3.43h2.8v3.43h3.03v2.32H395v5.75c0 .44.2.67.62.67h2.14v2.31h-3.12Zm18.71 5.47a9.06 9.06 0 0 1-4.17-.87 5.69 5.69 0 0 1-2.56-2.65 10.6 10.6 0 0 1-.84-4.54v-6.2c0-1.84.28-3.35.84-4.54a5.69 5.69 0 0 1 2.56-2.65 9.05 9.05 0 0 1 4.17-.87v2.4c-1.62 0-2.84.48-3.65 1.41-.8.92-1.2 2.37-1.2 4.35v6.01c0 1.98.4 3.42 1.2 4.34.81.94 2.03 1.4 3.65 1.4v2.41Zm1.66-5.48V238h2.94v6.44h5.8V238h2.93v15.6h-2.94v-6.49h-5.8v6.48H415Zm18.9 0v-13.5h-.4l-2.1 4.95h-2.99l3.19-7.04h5.15v15.6h-2.86Zm4.32 5.48v-2.4c1.63 0 2.85-.47 3.65-1.4.8-.93 1.2-2.37 1.2-4.35v-6.01c0-1.98-.4-3.43-1.2-4.35-.8-.93-2.02-1.4-3.65-1.4v-2.4c1.66 0 3.05.28 4.16.86a5.57 5.57 0 0 1 2.54 2.65c.58 1.2.87 2.7.87 4.55V251c0 1.84-.29 3.36-.87 4.54a5.57 5.57 0 0 1-2.54 2.65 8.9 8.9 0 0 1-4.16.87Zm-258.44 19.35v-6.8h.82v6.06h3.16v.74h-3.98Zm7.22.1c-.46 0-.86-.1-1.2-.33a2.23 2.23 0 0 1-.82-.92c-.2-.4-.29-.85-.29-1.38 0-.53.1-1 .3-1.4.19-.39.46-.7.8-.92.35-.21.75-.32 1.22-.32.46 0 .86.1 1.2.32.35.22.62.53.81.93.2.4.3.86.3 1.39 0 .53-.1.99-.3 1.38-.19.4-.46.7-.8.92a2.2 2.2 0 0 1-1.22.33Zm0-.7c.35 0 .64-.1.87-.27.22-.18.4-.42.5-.71a2.91 2.91 0 0 0 0-1.9 1.6 1.6 0 0 0-.5-.72 1.33 1.33 0 0 0-.87-.27c-.34 0-.63.09-.86.27-.22.18-.4.42-.5.72a2.75 2.75 0 0 0 0 1.9c.1.3.28.53.5.7.23.19.52.28.87.28Zm3.51.6v-5.1h.76v.76h.05c.1-.25.27-.45.51-.61.24-.16.52-.24.82-.24a9.72 9.72 0 0 1 .42.01v.8a2.09 2.09 0 0 0-.48-.05c-.25 0-.47.05-.67.16-.19.1-.34.24-.46.42-.1.18-.16.38-.16.62v3.23h-.79Zm5.47.1c-.5 0-.92-.1-1.27-.32a2.2 2.2 0 0 1-.82-.92c-.2-.4-.29-.85-.29-1.38 0-.52.1-.98.29-1.38.19-.4.46-.71.8-.94a2.43 2.43 0 0 1 2-.2 1.97 1.97 0 0 1 1.21 1.21c.13.33.2.73.2 1.2v.34h-3.94v-.68h3.13c0-.29-.05-.54-.17-.77a1.3 1.3 0 0 0-1.22-.73 1.45 1.45 0 0 0-1.33.83c-.12.25-.19.51-.19.8v.44c0 .39.07.72.2.98a1.47 1.47 0 0 0 1.4.81c.2 0 .4-.02.56-.08a1.2 1.2 0 0 0 .72-.71l.75.21c-.08.26-.21.48-.4.68-.19.2-.42.34-.7.45-.27.1-.59.16-.93.16Zm3.3-.1v-5.1h.76v.79h.07c.1-.27.28-.49.51-.63.24-.16.53-.24.86-.24.34 0 .62.08.84.24.22.14.4.36.53.63h.05c.13-.26.33-.47.59-.63.26-.16.57-.24.94-.24.45 0 .83.15 1.12.43.29.29.43.73.43 1.33v3.42h-.78V275c0-.38-.1-.65-.31-.8a1.1 1.1 0 0 0-.73-.25c-.36 0-.63.1-.83.32-.2.22-.3.5-.3.82v3.33h-.8v-3.5a.91.91 0 0 0-.28-.7 1 1 0 0 0-.72-.27 1.1 1.1 0 0 0-1 .61c-.1.2-.16.42-.16.67v3.19h-.78Zm10.77 0v-5.1h.78v5.1h-.78Zm.4-5.96a.56.56 0 0 1-.4-.15.5.5 0 0 1-.16-.38.5.5 0 0 1 .16-.38c.11-.1.24-.15.4-.15.15 0 .28.05.39.15.11.1.16.23.16.38a.5.5 0 0 1-.16.38c-.1.1-.24.15-.4.15Zm1.82 7.87v-7.02h.76v.81h.09l.24-.34a1.4 1.4 0 0 1 1.23-.53 2.03 2.03 0 0 1 1.9 1.23c.2.4.28.86.28 1.4 0 .54-.09 1-.27 1.4a2 2 0 0 1-1.89 1.24c-.33 0-.6-.05-.79-.16-.2-.11-.35-.24-.45-.38-.11-.14-.2-.26-.25-.35h-.07v2.7h-.78Zm.77-4.47c0 .39.06.73.17 1.02.11.3.28.52.5.7.21.16.48.24.8.24.32 0 .6-.09.81-.26.22-.18.39-.41.5-.7a2.87 2.87 0 0 0 0-1.97 1.33 1.33 0 0 0-1.32-.94 1.31 1.31 0 0 0-1.3.91c-.1.29-.16.62-.16 1Zm8.55-1.4-.7.2a1.35 1.35 0 0 0-.2-.35.96.96 0 0 0-.35-.28 1.25 1.25 0 0 0-.56-.1c-.31 0-.57.06-.78.2-.2.15-.31.33-.31.55 0 .2.07.35.21.46.14.12.36.2.66.29l.76.18c.46.11.8.28 1.02.5.23.24.34.53.34.88 0 .3-.09.56-.25.79-.17.23-.4.4-.7.54-.3.13-.65.2-1.04.2a2.3 2.3 0 0 1-1.3-.34 1.5 1.5 0 0 1-.65-.99l.75-.18c.07.27.2.48.4.61.2.14.46.21.78.21.37 0 .66-.08.87-.23.22-.16.33-.35.33-.57a.6.6 0 0 0-.19-.44 1.19 1.19 0 0 0-.57-.27l-.85-.2a2.04 2.04 0 0 1-1.03-.52 1.25 1.25 0 0 1-.33-.88c0-.29.09-.54.25-.76.16-.22.38-.4.66-.52.29-.13.6-.2.97-.2.5 0 .9.12 1.19.34.29.22.5.51.62.88Zm4.48 1.87v-3.02h.79v5.1h-.79v-.86h-.05a1.6 1.6 0 0 1-1.51.93c-.32 0-.6-.07-.85-.2a1.47 1.47 0 0 1-.59-.65 2.42 2.42 0 0 1-.21-1.08v-3.24h.78v3.2c0 .36.1.66.32.88.2.22.47.33.8.33a1.33 1.33 0 0 0 1.1-.6c.14-.21.21-.47.21-.8Zm2.22 2.09v-5.1h.76v.79h.07c.1-.27.28-.49.51-.63.24-.16.53-.24.86-.24a1.43 1.43 0 0 1 1.37.87h.05c.13-.26.33-.47.59-.63.26-.16.57-.24.94-.24.45 0 .83.15 1.12.43.29.29.43.73.43 1.33v3.42h-.78V275c0-.38-.1-.65-.31-.8a1.1 1.1 0 0 0-.73-.25c-.36 0-.63.1-.83.32-.2.22-.3.5-.3.82v3.33h-.8v-3.5a.91.91 0 0 0-.28-.7 1.01 1.01 0 0 0-.72-.27c-.2 0-.4.05-.58.16a1.24 1.24 0 0 0-.58 1.12v3.19h-.79Zm12.7.1a2 2 0 0 1-1.9-1.24c-.18-.4-.27-.86-.27-1.4 0-.54.1-1 .27-1.4a2.03 2.03 0 0 1 1.9-1.24c.34 0 .6.06.8.17.2.11.34.23.44.37.1.14.19.25.24.34h.07v-2.5h.78v6.8h-.75v-.79h-.1c-.05.1-.14.21-.24.35-.1.14-.26.27-.46.38-.2.1-.46.16-.78.16Zm.1-.7c.32 0 .58-.08.8-.25.22-.17.38-.4.5-.69a3.16 3.16 0 0 0 0-2.02 1.3 1.3 0 0 0-1.3-.91c-.33 0-.6.09-.83.25-.22.17-.38.4-.5.7a2.87 2.87 0 0 0 .01 1.96c.11.29.28.52.5.7.22.17.5.26.82.26Zm5.85.7c-.46 0-.86-.1-1.21-.33a2.24 2.24 0 0 1-.81-.92 3.1 3.1 0 0 1-.29-1.38c0-.53.1-1 .29-1.4.2-.39.46-.7.8-.92.36-.21.76-.32 1.22-.32.46 0 .87.1 1.21.32.35.22.62.53.81.93.2.4.3.86.3 1.39 0 .53-.1.99-.3 1.38-.19.4-.46.7-.8.92a2.2 2.2 0 0 1-1.22.33Zm0-.7c.35 0 .64-.1.87-.27.22-.18.39-.42.5-.71a2.91 2.91 0 0 0 0-1.9c-.11-.3-.28-.54-.5-.72a1.33 1.33 0 0 0-.87-.27c-.35 0-.64.09-.86.27-.23.18-.4.42-.5.72a2.7 2.7 0 0 0 0 1.9c.1.3.27.53.5.7.22.19.51.28.86.28Zm4.3-6.2v6.8h-.79v-6.8h.79Zm3.5 6.9c-.46 0-.86-.1-1.2-.33a2.24 2.24 0 0 1-.82-.92 3.1 3.1 0 0 1-.29-1.38c0-.53.1-1 .3-1.4.19-.39.46-.7.8-.92.35-.21.75-.32 1.22-.32.46 0 .86.1 1.2.32.35.22.62.53.81.93.2.4.3.86.3 1.39 0 .53-.1.99-.3 1.38-.19.4-.46.7-.8.92a2.2 2.2 0 0 1-1.22.33Zm0-.7c.35 0 .64-.1.87-.27.22-.18.4-.42.5-.71a2.91 2.91 0 0 0 0-1.9c-.1-.3-.28-.54-.5-.72a1.33 1.33 0 0 0-.87-.27c-.34 0-.63.09-.86.27-.22.18-.4.42-.5.72a2.91 2.91 0 0 0 0 1.9c.1.3.28.53.5.7.23.19.52.28.87.28Zm3.51.6v-5.1h.76v.76h.06c.09-.25.26-.45.5-.61.24-.16.52-.24.82-.24a9.56 9.56 0 0 1 .42.01v.8l-.19-.03-.3-.02c-.24 0-.46.05-.66.16-.19.1-.34.24-.46.42-.1.18-.16.38-.16.62v3.23h-.79Zm9.73-3.97-.7.2a1.3 1.3 0 0 0-.2-.34.95.95 0 0 0-.34-.28 1.26 1.26 0 0 0-.57-.1c-.3 0-.57.06-.78.2-.2.15-.3.33-.3.55 0 .2.06.35.2.46.15.12.37.2.67.29l.76.18c.46.11.8.28 1.02.5.22.24.33.53.33.88 0 .3-.08.56-.25.79-.16.23-.4.4-.7.54-.3.13-.64.2-1.04.2a2.3 2.3 0 0 1-1.3-.34 1.5 1.5 0 0 1-.64-.99l.75-.18c.07.27.2.48.4.61.2.14.46.21.78.21.36 0 .65-.08.87-.23.22-.16.32-.35.32-.57a.6.6 0 0 0-.18-.44 1.19 1.19 0 0 0-.57-.27l-.85-.2a2.04 2.04 0 0 1-1.03-.52 1.25 1.25 0 0 1-.33-.88c0-.29.08-.54.24-.76.17-.22.39-.4.67-.52.28-.13.6-.2.96-.2.5 0 .9.12 1.2.34.28.22.49.51.61.88Zm1.27 3.97v-5.1h.79v5.1h-.79Zm.4-5.96a.56.56 0 0 1-.4-.15.5.5 0 0 1-.15-.38.5.5 0 0 1 .16-.38c.1-.1.24-.15.4-.15a.53.53 0 0 1 .55.53.5.5 0 0 1-.16.38.57.57 0 0 1-.4.15Zm4.05.85v.67h-2.65v-.67h2.64Zm-1.88-1.22h.79v4.86c0 .23.03.4.1.5.06.11.14.18.24.22a1.37 1.37 0 0 0 .67.01l.17.7a1.6 1.6 0 0 1-.59.1c-.22 0-.44-.05-.65-.14a1.3 1.3 0 0 1-.52-.44c-.14-.2-.2-.44-.2-.73v-5.08Zm7.19 6.45c-.33 0-.62-.07-.88-.19a1.5 1.5 0 0 1-.63-.53 1.51 1.51 0 0 1-.23-.85c0-.3.05-.53.17-.72.11-.18.27-.32.46-.43.2-.1.4-.18.64-.23.23-.05.47-.1.7-.13l.76-.08c.2-.03.34-.06.43-.12.09-.05.13-.13.13-.26v-.03c0-.33-.09-.58-.27-.76-.17-.18-.44-.27-.8-.27-.38 0-.67.08-.88.24-.22.17-.37.34-.45.53l-.75-.27a1.8 1.8 0 0 1 1.26-1.09 3.03 3.03 0 0 1 1.35-.05c.22.04.43.12.63.24s.36.3.5.54c.13.24.2.57.2.97v3.37h-.79v-.7h-.04a1.53 1.53 0 0 1-.76.68c-.2.09-.46.14-.75.14Zm.12-.71c.3 0 .57-.06.78-.18a1.25 1.25 0 0 0 .65-1.08v-.72c-.03.04-.1.08-.22.11a3.9 3.9 0 0 1-.8.14l-.33.04c-.2.03-.4.07-.57.13a.99.99 0 0 0-.43.27.67.67 0 0 0-.16.47c0 .27.1.48.3.61.2.14.46.21.78.21Zm3.65.59v-5.1h.76v.79h.06c.1-.27.28-.49.52-.63.23-.16.52-.24.85-.24a1.44 1.44 0 0 1 1.37.87h.05a1.7 1.7 0 0 1 1.53-.87c.46 0 .83.15 1.12.43.3.29.44.73.44 1.33v3.42h-.79V275c0-.38-.1-.65-.3-.8a1.14 1.14 0 0 0-.74-.25c-.35 0-.63.1-.83.32-.2.22-.3.5-.3.82v3.33h-.8v-3.5a.94.94 0 0 0-.27-.7 1.01 1.01 0 0 0-.73-.27c-.2 0-.4.05-.57.16a1.24 1.24 0 0 0-.59 1.12v3.19h-.78Zm10.27.1c-.5 0-.92-.1-1.27-.32a2.19 2.19 0 0 1-.82-.92c-.2-.4-.29-.85-.29-1.38 0-.52.1-.98.29-1.38.19-.4.46-.71.8-.94a2.4 2.4 0 0 1 2-.2 1.95 1.95 0 0 1 1.21 1.21c.13.33.2.73.2 1.2v.34h-3.94v-.68h3.13c0-.29-.05-.54-.17-.77a1.3 1.3 0 0 0-1.22-.73 1.45 1.45 0 0 0-1.33.83c-.13.25-.19.51-.19.8v.44c0 .39.07.72.2.98.14.27.33.47.56.61.24.14.52.2.84.2.2 0 .4-.02.56-.08.17-.06.31-.15.43-.27.12-.11.22-.26.28-.44l.76.21c-.08.26-.21.48-.4.68-.19.2-.42.34-.7.45-.27.1-.59.16-.93.16Zm5.52-5.2v.66h-2.64v-.67h2.64Zm-1.87-1.23h.79v4.86c0 .23.03.4.1.5.06.11.14.18.24.22a1.37 1.37 0 0 0 .54.04l.14-.03.16.7a1.58 1.58 0 0 1-.59.1c-.22 0-.44-.05-.65-.14a1.3 1.3 0 0 1-.52-.44c-.14-.2-.2-.44-.2-.73v-5.08Zm4.22 5.4-.05.35a14.8 14.8 0 0 1-.61 2.23h-.6l.11-.56a21.71 21.71 0 0 0 .26-1.65l.04-.38h.85Zm6.16 1.03c-.48 0-.89-.11-1.23-.34a2.2 2.2 0 0 1-.8-.93c-.19-.4-.28-.85-.28-1.36 0-.52.1-.98.28-1.37.2-.4.46-.71.8-.94.35-.22.76-.33 1.22-.33.36 0 .68.06.97.2a1.75 1.75 0 0 1 1.05 1.4h-.79a1.2 1.2 0 0 0-1.22-.9c-.3 0-.57.08-.8.24-.23.16-.41.38-.54.67-.12.28-.19.62-.19 1 0 .4.06.74.19 1.03.13.3.3.52.53.68.23.17.5.25.81.25.2 0 .39-.04.56-.1a1.15 1.15 0 0 0 .66-.8h.79a1.83 1.83 0 0 1-1.02 1.4c-.28.13-.61.2-.99.2Zm5.23 0c-.46 0-.87-.1-1.22-.33a2.24 2.24 0 0 1-.8-.92 3.1 3.1 0 0 1-.3-1.38c0-.53.1-1 .3-1.4.19-.39.46-.7.8-.92.35-.21.76-.32 1.22-.32a2.15 2.15 0 0 1 2.02 1.25c.2.4.29.86.29 1.39 0 .53-.1.99-.3 1.38-.19.4-.46.7-.8.92a2.2 2.2 0 0 1-1.21.33Zm0-.7c.35 0 .63-.1.86-.27.23-.18.4-.42.5-.71.11-.3.16-.6.16-.95 0-.34-.05-.66-.16-.95a1.5 1.5 0 0 0-.5-.72 1.33 1.33 0 0 0-.86-.27c-.35 0-.64.09-.87.27-.22.18-.39.42-.5.72a2.91 2.91 0 0 0 0 1.9c.11.3.28.53.5.7.23.19.52.28.87.28Zm4.3-2.47v3.06h-.8v-5.1h.76v.8h.07c.12-.26.3-.47.55-.63.24-.16.55-.24.94-.24.34 0 .65.08.9.22.27.14.47.35.61.64.15.28.22.64.22 1.07v3.25h-.79v-3.2c0-.4-.1-.7-.31-.93a1.1 1.1 0 0 0-.86-.34c-.25 0-.47.05-.67.16-.2.11-.35.27-.46.48-.11.2-.17.46-.17.76Zm8.3-.9-.71.2a1.32 1.32 0 0 0-.2-.34.95.95 0 0 0-.34-.28 1.25 1.25 0 0 0-.56-.1c-.32 0-.58.06-.78.2-.21.15-.31.33-.31.55 0 .2.07.35.21.46.14.12.36.2.66.29l.76.18c.46.11.8.28 1.02.5a1.35 1.35 0 0 1 .09 1.67c-.17.23-.4.4-.7.54-.3.13-.65.2-1.05.2a2.3 2.3 0 0 1-1.29-.34 1.5 1.5 0 0 1-.65-.99l.75-.18c.07.27.2.48.4.61.2.14.46.21.78.21.37 0 .66-.08.87-.23.22-.16.33-.35.33-.57a.6.6 0 0 0-.19-.44 1.2 1.2 0 0 0-.57-.27l-.85-.2a2.03 2.03 0 0 1-1.03-.52 1.24 1.24 0 0 1-.33-.88c0-.29.08-.54.24-.76.17-.22.4-.4.67-.52.29-.13.6-.2.97-.2.5 0 .9.12 1.19.34.29.22.5.51.61.88Zm3.4 4.07c-.48 0-.9-.1-1.26-.32a2.19 2.19 0 0 1-.83-.92c-.19-.4-.28-.85-.28-1.38 0-.52.1-.98.28-1.38.2-.4.46-.71.8-.94a2.44 2.44 0 0 1 2-.2 1.97 1.97 0 0 1 1.22 1.21c.13.33.19.73.19 1.2v.34h-3.93v-.68h3.13c0-.29-.06-.54-.17-.77a1.3 1.3 0 0 0-1.22-.73c-.31 0-.59.08-.81.23-.23.15-.4.35-.53.6a1.8 1.8 0 0 0-.18.8v.44c0 .39.07.72.2.98.14.27.32.47.56.61.24.14.52.2.84.2.2 0 .39-.02.56-.08.16-.06.3-.15.43-.27.12-.11.22-.26.28-.44l.76.21c-.08.26-.21.48-.4.68-.19.2-.42.34-.7.45-.28.1-.59.16-.93.16Zm5.39 0c-.48 0-.9-.11-1.24-.34a2.2 2.2 0 0 1-.8-.93c-.18-.4-.28-.85-.28-1.36 0-.52.1-.98.29-1.37.2-.4.46-.71.8-.94.35-.22.75-.33 1.21-.33.36 0 .69.06.97.2a1.73 1.73 0 0 1 1.05 1.4h-.78a1.19 1.19 0 0 0-1.22-.89c-.3-.01-.58.07-.8.23a1.5 1.5 0 0 0-.54.67c-.13.28-.2.62-.2 1 0 .4.07.74.2 1.03.12.3.3.52.53.68.23.17.5.25.8.25.21 0 .4-.04.56-.1a1.15 1.15 0 0 0 .67-.8h.78a1.82 1.82 0 0 1-1.01 1.4c-.29.13-.62.2-1 .2Zm5.37-5.2v.66h-2.65v-.67h2.65Zm-1.88-1.23h.79v4.86c0 .23.03.4.1.5.06.11.15.18.25.22a1.37 1.37 0 0 0 .67.01l.16.7a1.6 1.6 0 0 1-.58.1c-.22 0-.44-.05-.65-.14a1.3 1.3 0 0 1-.53-.44c-.14-.2-.2-.44-.2-.73v-5.08Zm5.14 6.43c-.49 0-.91-.1-1.27-.32a2.19 2.19 0 0 1-.82-.92c-.2-.4-.29-.85-.29-1.38 0-.52.1-.98.29-1.38.2-.4.46-.71.8-.94a2.44 2.44 0 0 1 2-.2 1.97 1.97 0 0 1 1.22 1.21c.12.33.19.73.19 1.2v.34h-3.94v-.68h3.14c0-.29-.06-.54-.17-.77a1.3 1.3 0 0 0-1.23-.73c-.3 0-.58.08-.8.23-.23.15-.4.35-.53.6a1.8 1.8 0 0 0-.18.8v.44c0 .39.06.72.2.98.13.27.32.47.56.61.24.14.52.2.83.2.2 0 .4-.02.56-.08a1.15 1.15 0 0 0 .72-.71l.76.21a1.8 1.8 0 0 1-.4.68c-.2.2-.43.34-.7.45-.28.1-.6.16-.94.16Zm5.53-5.2v.66h-2.65v-.67h2.65Zm-1.88-1.23h.79v4.86c0 .23.03.4.1.5.06.11.15.18.25.22a1.37 1.37 0 0 0 .54.04l.13-.03.16.7a1.58 1.58 0 0 1-.58.1 1.7 1.7 0 0 1-.66-.14 1.3 1.3 0 0 1-.52-.44c-.14-.2-.2-.44-.2-.73v-5.08Zm6.27 4.24v-3.02h.79v5.1h-.79v-.86h-.05a1.61 1.61 0 0 1-1.52.93c-.31 0-.6-.07-.85-.2a1.46 1.46 0 0 1-.58-.65 2.42 2.42 0 0 1-.21-1.08v-3.24h.78v3.2c0 .36.1.66.31.88.22.22.48.33.8.33.2 0 .4-.05.6-.15a1.3 1.3 0 0 0 .72-1.24Zm2.22 2.09v-5.1h.76v.76h.06c.09-.25.26-.45.5-.61.24-.16.52-.24.82-.24a9.56 9.56 0 0 1 .42.01v.8a2.09 2.09 0 0 0-.48-.05c-.25 0-.47.05-.67.16a1.14 1.14 0 0 0-.63 1.04v3.23h-.78Zm7.62.12c-.32 0-.62-.07-.88-.19s-.47-.3-.63-.53a1.5 1.5 0 0 1-.23-.85c0-.3.05-.53.17-.72.12-.18.27-.32.46-.43.2-.1.4-.18.64-.23.24-.05.47-.1.7-.13l.76-.08c.2-.03.34-.06.43-.12.09-.05.13-.13.13-.26v-.03c0-.33-.09-.58-.27-.76-.17-.18-.44-.27-.8-.27-.38 0-.67.08-.88.24-.22.17-.37.34-.45.53l-.75-.27a1.8 1.8 0 0 1 1.27-1.09 3.04 3.04 0 0 1 1.35-.05c.21.04.42.12.62.24s.37.3.5.54a2 2 0 0 1 .2.97v3.37h-.79v-.7h-.04c-.05.11-.14.23-.26.36a1.82 1.82 0 0 1-1.25.46Zm.12-.71c.3 0 .57-.06.78-.18a1.25 1.25 0 0 0 .65-1.08v-.72c-.03.04-.1.08-.22.11a3.83 3.83 0 0 1-.8.14l-.33.04a3 3 0 0 0-.57.13.99.99 0 0 0-.43.27.67.67 0 0 0-.16.47c0 .27.1.48.3.61.2.14.47.21.78.21Zm5.58.7a2 2 0 0 1-1.9-1.25c-.18-.4-.27-.86-.27-1.4 0-.54.1-1 .27-1.4a2.02 2.02 0 0 1 1.9-1.24c.34 0 .6.06.8.17.2.11.34.23.44.37.1.14.19.25.24.34h.07v-2.5h.79v6.8h-.76v-.79h-.1c-.05.1-.13.21-.24.35-.1.14-.26.27-.46.38-.2.1-.46.16-.78.16Zm.1-.71c.32 0 .58-.08.8-.25.22-.17.38-.4.5-.69a3.16 3.16 0 0 0 0-2.02 1.3 1.3 0 0 0-1.3-.91c-.33 0-.6.09-.83.25-.22.17-.38.4-.5.7a2.87 2.87 0 0 0 .01 1.96c.11.29.28.52.5.7.22.17.5.26.82.26Zm3.78.6v-5.1h.78v5.1h-.78Zm.4-5.96a.56.56 0 0 1-.4-.15.5.5 0 0 1-.16-.38.5.5 0 0 1 .16-.38c.11-.1.25-.15.4-.15a.6.6 0 0 1 .4.15c.1.1.16.23.16.38a.5.5 0 0 1-.17.38c-.1.1-.24.15-.4.15Zm1.82 7.87v-7.02h.76v.81h.1l.23-.34a1.4 1.4 0 0 1 1.24-.53 2.02 2.02 0 0 1 1.9 1.23c.18.4.27.86.27 1.4 0 .54-.09 1-.27 1.4a2 2 0 0 1-1.9 1.24c-.32 0-.58-.05-.78-.16-.2-.11-.35-.24-.45-.38-.11-.14-.2-.26-.25-.35h-.07v2.7h-.78Zm.77-4.47c0 .39.06.73.17 1.02.11.3.28.52.5.7.21.16.48.24.8.24.32 0 .6-.09.81-.26.23-.18.4-.41.5-.7.12-.3.17-.63.17-1 0-.36-.05-.68-.17-.97a1.5 1.5 0 0 0-.49-.69 1.3 1.3 0 0 0-.83-.25 1.3 1.3 0 0 0-1.3.91c-.1.29-.16.62-.16 1Zm4.93 2.56v-5.1h.79v5.1h-.79Zm.4-5.96a.56.56 0 0 1-.4-.15.5.5 0 0 1-.16-.38.5.5 0 0 1 .17-.38c.1-.1.24-.15.39-.15a.6.6 0 0 1 .4.15c.1.1.16.23.16.38a.5.5 0 0 1-.17.38c-.1.1-.24.15-.39.15Zm5.44 2-.7.2a1.3 1.3 0 0 0-.2-.35.95.95 0 0 0-.35-.28 1.26 1.26 0 0 0-.56-.1c-.31 0-.57.06-.78.2-.2.15-.31.33-.31.55 0 .2.07.35.21.46.14.12.37.2.67.29l.75.18c.46.11.8.28 1.02.5.23.24.34.53.34.88 0 .3-.08.56-.25.79-.17.23-.4.4-.7.54-.3.13-.65.2-1.04.2a2.3 2.3 0 0 1-1.3-.34 1.5 1.5 0 0 1-.64-.99l.74-.18c.07.27.2.48.4.61.2.14.46.21.78.21.37 0 .66-.08.87-.23.22-.16.33-.35.33-.57a.6.6 0 0 0-.19-.44 1.19 1.19 0 0 0-.57-.27l-.85-.2a2.03 2.03 0 0 1-1.03-.52 1.25 1.25 0 0 1-.32-.88c0-.29.08-.54.24-.76.16-.22.38-.4.67-.52.28-.13.6-.2.96-.2.5 0 .9.12 1.19.34.29.22.5.51.62.88Zm3.34 4.06c-.47 0-.89-.11-1.23-.34a2.2 2.2 0 0 1-.8-.93c-.19-.4-.28-.85-.28-1.36 0-.52.1-.98.29-1.37.19-.4.46-.71.8-.94.35-.22.75-.33 1.21-.33.36 0 .68.06.97.2a1.73 1.73 0 0 1 1.05 1.4H390a1.2 1.2 0 0 0-1.22-.89 1.3 1.3 0 0 0-.81.23c-.23.16-.4.38-.54.67-.12.28-.19.62-.19 1 0 .4.07.74.2 1.03a1.38 1.38 0 0 0 1.34.92c.2 0 .38-.03.55-.1a1.15 1.15 0 0 0 .67-.78h.78a1.82 1.82 0 0 1-1.02 1.38c-.28.14-.61.21-.99.21Zm3.16-.1v-5.1h.78v5.1h-.78Zm.4-5.96a.56.56 0 0 1-.4-.15.5.5 0 0 1-.16-.38.5.5 0 0 1 .16-.38c.11-.1.24-.15.4-.15a.53.53 0 0 1 .55.53.5.5 0 0 1-.16.38.57.57 0 0 1-.4.15Zm2.6 2.89v3.06h-.78v-5.1h.75v.8h.07c.12-.26.3-.47.54-.63.25-.16.56-.24.95-.24.34 0 .65.08.9.22.26.14.47.35.61.64.14.28.22.64.22 1.07v3.25h-.79v-3.2c0-.4-.1-.7-.31-.93a1.1 1.1 0 0 0-.86-.34c-.25 0-.47.05-.67.16-.2.11-.35.27-.46.48-.11.2-.17.46-.17.76Zm6.75 5.08c-.38 0-.7-.04-.98-.14a2.08 2.08 0 0 1-1.1-.88l.62-.44c.07.1.16.2.27.32.1.12.25.23.44.32.2.09.44.13.75.13.41 0 .75-.1 1.02-.3.27-.2.4-.5.4-.93v-1.04h-.06l-.25.35c-.1.13-.26.25-.45.36-.2.1-.46.15-.8.15-.4 0-.78-.1-1.1-.29-.33-.2-.59-.48-.78-.85a2.97 2.97 0 0 1-.28-1.35c0-.53.1-.98.28-1.37a2.03 2.03 0 0 1 1.9-1.23c.33 0 .6.06.79.17.2.11.35.23.45.37.1.14.2.25.25.34h.08v-.8h.75v5.24c0 .44-.1.8-.3 1.07-.2.28-.46.48-.8.6a3 3 0 0 1-1.1.2Zm-.03-2.8c.32 0 .58-.07.8-.21.22-.15.38-.36.5-.63a2.76 2.76 0 0 0 0-1.94c-.11-.28-.28-.5-.5-.66a1.32 1.32 0 0 0-.8-.24c-.33 0-.6.08-.83.25-.22.17-.38.4-.5.68a2.8 2.8 0 0 0 .01 1.88c.11.27.28.49.5.64.22.16.5.23.82.23Zm8.44.9a2.19 2.19 0 0 1-2.1-1.24c-.18-.4-.28-.86-.28-1.39 0-.52.1-.98.29-1.38.2-.4.46-.71.8-.94a2.44 2.44 0 0 1 2-.2 1.95 1.95 0 0 1 1.22 1.21c.12.33.19.73.19 1.2v.34h-3.94v-.68h3.14c0-.29-.06-.54-.18-.77a1.3 1.3 0 0 0-1.22-.73c-.31 0-.58.08-.8.23-.23.15-.4.35-.53.6a1.8 1.8 0 0 0-.18.8v.44c0 .39.06.72.2.98a1.45 1.45 0 0 0 1.4.82c.2 0 .38-.03.55-.09a1.15 1.15 0 0 0 .72-.71l.75.21c-.07.26-.2.48-.4.68-.19.2-.42.34-.7.45-.27.1-.58.16-.93.16Zm4.1-6.92v6.8h-.8v-6.8h.8Zm1.43 6.8v-5.1h.78v5.1h-.78Zm.4-5.95a.56.56 0 0 1-.4-.15.5.5 0 0 1-.16-.38.5.5 0 0 1 .16-.38c.11-.1.24-.15.4-.15a.53.53 0 0 1 .55.53.5.5 0 0 1-.16.38.57.57 0 0 1-.4.15Zm4.04.85v.67h-2.65v-.67h2.65Zm-1.88-1.22h.79v4.86c0 .23.03.4.1.5.06.11.14.18.25.22a1.37 1.37 0 0 0 .67.01l.16.7a1.64 1.64 0 0 1-.58.1c-.23 0-.44-.05-.65-.14a1.3 1.3 0 0 1-.53-.44c-.14-.2-.2-.44-.2-.73v-5.08Zm4.23 5.4-.06.35c-.03.26-.1.53-.17.81a15.71 15.71 0 0 1-.44 1.43h-.6a82.5 82.5 0 0 0 .26-1.35c.05-.28.09-.57.12-.87l.04-.38h.85Zm7.7-3.04-.7.2a1.3 1.3 0 0 0-.2-.34.95.95 0 0 0-.35-.28 1.26 1.26 0 0 0-.56-.1c-.31 0-.57.06-.78.2-.2.15-.31.33-.31.55 0 .2.07.35.21.46.14.12.36.2.67.29l.75.18c.46.11.8.28 1.02.5.23.24.34.53.34.88 0 .3-.09.56-.25.79-.17.23-.4.4-.7.54-.3.13-.65.2-1.05.2a2.3 2.3 0 0 1-1.29-.34 1.5 1.5 0 0 1-.65-.99l.75-.18c.07.27.2.48.4.61.2.14.46.21.78.21.37 0 .66-.08.87-.23.22-.16.33-.35.33-.57a.6.6 0 0 0-.19-.44 1.19 1.19 0 0 0-.57-.27l-.85-.2a2.04 2.04 0 0 1-1.03-.52 1.25 1.25 0 0 1-.33-.88c0-.29.08-.54.25-.76.16-.22.38-.4.66-.52.29-.13.6-.2.97-.2.5 0 .9.12 1.19.34.29.22.5.51.62.88Zm3.4 4.07c-.48 0-.9-.1-1.26-.32a2.2 2.2 0 0 1-.82-.92c-.2-.4-.29-.85-.29-1.38 0-.52.1-.98.29-1.38.19-.4.46-.71.8-.94a2.44 2.44 0 0 1 2-.2 1.97 1.97 0 0 1 1.21 1.21c.13.33.2.73.2 1.2v.34h-3.94v-.68h3.13c0-.29-.05-.54-.17-.77a1.3 1.3 0 0 0-1.22-.73 1.45 1.45 0 0 0-1.33.83c-.13.25-.19.51-.19.8v.44c0 .39.07.72.2.98.14.27.32.47.56.61.24.14.52.2.84.2.2 0 .4-.02.56-.08a1.2 1.2 0 0 0 .72-.71l.75.21c-.08.26-.21.48-.4.68-.19.2-.42.34-.7.45-.27.1-.59.16-.93.16Zm5.24 0a2 2 0 0 1-1.89-1.24c-.18-.4-.28-.86-.28-1.4 0-.54.1-1 .28-1.4a2.02 2.02 0 0 1 1.9-1.24c.34 0 .6.06.8.17.19.11.34.23.44.37l.24.34h.07v-2.5h.78v6.8h-.76v-.79h-.09l-.25.35c-.1.14-.25.27-.45.38-.2.1-.46.16-.79.16Zm.1-.7c.32 0 .59-.08.8-.25.22-.17.39-.4.5-.69.11-.3.17-.63.17-1.02 0-.38-.06-.71-.17-1a1.3 1.3 0 0 0-1.3-.91c-.32 0-.6.09-.82.25-.22.17-.39.4-.5.7a2.87 2.87 0 0 0 .01 1.96c.1.29.27.52.5.7.21.17.49.26.82.26Zm8.34.7a2 2 0 0 1-1.89-1.24c-.18-.4-.27-.86-.27-1.4 0-.54.09-1 .27-1.4a2.03 2.03 0 0 1 1.9-1.24c.34 0 .6.06.8.17.19.11.34.23.44.37.1.14.19.25.24.34h.07v-2.5h.78v6.8h-.75v-.79h-.1l-.24.35c-.11.14-.26.27-.46.38-.2.1-.46.16-.79.16Zm.11-.7c.31 0 .58-.08.8-.25.21-.17.38-.4.5-.69a3.16 3.16 0 0 0 0-2.02 1.3 1.3 0 0 0-1.3-.91c-.33 0-.6.09-.83.25-.22.17-.39.4-.5.7a2.87 2.87 0 0 0 .01 1.96c.11.29.28.52.5.7.22.17.5.26.82.26Zm5.85.7c-.46 0-.86-.1-1.21-.33a2.24 2.24 0 0 1-.81-.92 3.1 3.1 0 0 1-.3-1.38c0-.53.1-1 .3-1.4.2-.39.46-.7.8-.92.36-.21.76-.32 1.22-.32.46 0 .87.1 1.21.32.35.22.62.53.81.93.2.4.3.86.3 1.39 0 .53-.1.99-.3 1.38-.2.4-.46.7-.8.92a2.2 2.2 0 0 1-1.22.33Zm0-.7c.35 0 .64-.1.87-.27.22-.18.39-.42.5-.71a2.91 2.91 0 0 0 0-1.9c-.11-.3-.28-.54-.5-.72a1.33 1.33 0 0 0-.87-.27c-.35 0-.64.09-.86.27-.23.18-.4.42-.5.72a2.7 2.7 0 0 0 0 1.9c.1.3.27.53.5.7.22.19.51.28.86.28Zm-271.34 14.7c-.5 0-.92-.1-1.27-.32a2.19 2.19 0 0 1-.82-.92c-.2-.4-.3-.85-.3-1.38 0-.52.1-.98.3-1.38.19-.4.46-.71.8-.94a2.44 2.44 0 0 1 2-.2 1.97 1.97 0 0 1 1.21 1.21c.13.33.2.73.2 1.2v.34h-3.94v-.68h3.13c0-.29-.05-.54-.17-.77a1.3 1.3 0 0 0-1.22-.73 1.45 1.45 0 0 0-1.33.83c-.13.25-.19.51-.19.8v.44c0 .39.07.72.2.98.14.27.33.47.56.61.24.14.52.2.84.2.2 0 .39-.02.56-.08a1.2 1.2 0 0 0 .72-.71l.75.21c-.08.26-.21.48-.4.68-.19.2-.42.34-.7.45-.28.1-.59.16-.93.16Zm3.3-.1v-5.1h.79v5.1h-.79Zm.4-5.96a.56.56 0 0 1-.4-.15.5.5 0 0 1-.16-.38.5.5 0 0 1 .17-.38c.1-.1.24-.15.4-.15.15 0 .28.05.38.15.12.1.17.23.17.38a.5.5 0 0 1-.16.38.57.57 0 0 1-.4.15Zm5.04 3.87v-3.02h.78v5.1h-.78v-.86h-.05a1.6 1.6 0 0 1-1.52.93c-.32 0-.6-.07-.85-.2a1.47 1.47 0 0 1-.58-.65 2.42 2.42 0 0 1-.22-1.08v-3.24h.79v3.2c0 .36.1.66.31.88.21.22.48.33.8.33a1.33 1.33 0 0 0 1.11-.6c.14-.21.21-.47.21-.8Zm5.84-1.88-.7.2a1.3 1.3 0 0 0-.2-.34.95.95 0 0 0-.35-.28 1.26 1.26 0 0 0-.56-.1c-.31 0-.57.06-.78.2-.2.15-.31.33-.31.55 0 .2.07.35.21.46.14.12.36.2.67.29l.75.18c.46.11.8.28 1.02.5.23.24.34.53.34.88 0 .3-.08.56-.25.79-.17.23-.4.4-.7.54-.3.13-.65.2-1.04.2a2.3 2.3 0 0 1-1.3-.34 1.5 1.5 0 0 1-.65-.99l.75-.18c.07.27.2.48.4.61.2.14.46.21.78.21.37 0 .66-.08.87-.23.22-.16.33-.35.33-.57a.6.6 0 0 0-.19-.44 1.19 1.19 0 0 0-.57-.27l-.85-.2a2.04 2.04 0 0 1-1.03-.52 1.25 1.25 0 0 1-.33-.88c0-.29.09-.54.25-.76.16-.22.38-.4.67-.52.28-.13.6-.2.96-.2.5 0 .9.12 1.19.34.29.22.5.51.62.88Zm1.27 3.97v-5.1h.76v.79h.06c.1-.27.28-.49.52-.63.24-.16.52-.24.85-.24a1.44 1.44 0 0 1 1.37.87h.05c.13-.26.33-.47.6-.63.25-.16.57-.24.93-.24.46 0 .83.15 1.12.43.3.29.44.73.44 1.33v3.42h-.79V289c0-.38-.1-.65-.3-.8a1.13 1.13 0 0 0-.73-.25c-.36 0-.64.1-.84.32-.2.22-.3.5-.3.82v3.33h-.8v-3.5a.94.94 0 0 0-.27-.7 1 1 0 0 0-.73-.27c-.2 0-.4.05-.57.16a1.24 1.24 0 0 0-.59 1.12v3.19h-.78Zm10.2.1c-.46 0-.86-.1-1.2-.33a2.24 2.24 0 0 1-.82-.92 3.1 3.1 0 0 1-.29-1.38c0-.53.1-1 .3-1.4.19-.39.46-.7.8-.92a2.3 2.3 0 0 1 1.21-.32c.46 0 .87.1 1.21.32.35.22.62.53.81.93.2.4.3.86.3 1.39 0 .53-.1.99-.3 1.38-.19.4-.46.7-.8.92a2.2 2.2 0 0 1-1.22.33Zm0-.7c.35 0 .64-.1.87-.27.22-.18.4-.42.5-.71a2.91 2.91 0 0 0 0-1.9c-.1-.3-.28-.54-.5-.72a1.33 1.33 0 0 0-.87-.27c-.35 0-.63.09-.86.27-.23.18-.4.42-.5.72-.11.3-.16.6-.16.95 0 .34.05.66.16.95.1.3.27.53.5.7.23.19.51.28.86.28Zm5.44.7a2 2 0 0 1-1.89-1.24c-.18-.4-.28-.86-.28-1.4 0-.54.1-1 .28-1.4a2.03 2.03 0 0 1 1.9-1.24c.34 0 .6.06.8.17.19.11.33.23.44.37l.24.34h.06v-2.5h.79v6.8h-.76v-.79h-.1c-.05.1-.13.21-.24.35-.1.14-.25.27-.45.38-.2.1-.46.16-.79.16Zm.1-.7c.32 0 .59-.08.8-.25.22-.17.39-.4.5-.69.11-.3.17-.63.17-1.02 0-.38-.06-.71-.17-1a1.3 1.3 0 0 0-1.3-.91c-.33 0-.6.09-.82.25-.22.17-.39.4-.5.7-.1.28-.16.6-.16.96 0 .37.05.7.16 1 .12.29.28.52.5.7.22.17.5.26.83.26Zm8.63-4.5v.66h-2.64v-.67h2.65Zm-1.87-1.23h.78v4.86c0 .23.04.4.1.5.07.11.15.18.25.22a1.38 1.38 0 0 0 .54.04l.14-.03.16.7a1.58 1.58 0 0 1-.59.1c-.22 0-.44-.05-.65-.14a1.3 1.3 0 0 1-.52-.44c-.14-.2-.2-.44-.2-.73v-5.08Zm5.14 6.43c-.5 0-.92-.1-1.27-.32a2.2 2.2 0 0 1-.82-.92c-.2-.4-.29-.85-.29-1.38 0-.52.1-.98.29-1.38.19-.4.46-.71.8-.94a2.43 2.43 0 0 1 2-.2 1.97 1.97 0 0 1 1.21 1.21c.13.33.2.73.2 1.2v.34h-3.94v-.68h3.14c0-.29-.06-.54-.18-.77-.11-.23-.27-.4-.48-.53-.21-.13-.46-.2-.74-.2a1.45 1.45 0 0 0-1.33.83 1.8 1.8 0 0 0-.18.8v.44c0 .39.06.72.2.98.13.27.32.47.56.61.24.14.51.2.83.2.2 0 .4-.02.56-.08a1.2 1.2 0 0 0 .72-.71l.75.21c-.08.26-.21.48-.4.68-.19.2-.42.34-.7.45-.27.1-.58.16-.93.16Zm3.3-.1v-5.1h.76v.79h.07c.1-.27.28-.49.51-.63.24-.16.53-.24.86-.24a1.43 1.43 0 0 1 1.37.87h.05c.13-.26.33-.47.59-.63.26-.16.57-.24.94-.24.46 0 .83.15 1.12.43.29.29.43.73.43 1.33v3.42h-.78V289c0-.38-.1-.65-.31-.8a1.1 1.1 0 0 0-.73-.25c-.36 0-.63.1-.83.32-.2.22-.3.5-.3.82v3.33h-.8v-3.5a.91.91 0 0 0-.28-.7 1 1 0 0 0-.72-.27 1.1 1.1 0 0 0-1 .61c-.1.2-.16.42-.16.67v3.19h-.78Zm8.14 1.9v-7h.75v.8h.1l.24-.34a1.4 1.4 0 0 1 1.23-.53 2.02 2.02 0 0 1 1.9 1.23c.2.4.28.86.28 1.4 0 .54-.09 1-.27 1.4a2 2 0 0 1-1.9 1.24c-.32 0-.58-.05-.78-.16-.2-.11-.35-.24-.46-.38a4.7 4.7 0 0 1-.24-.35h-.07v2.7h-.78Zm.77-4.46c0 .39.05.73.17 1.02.11.3.28.52.5.7.21.16.47.24.79.24.33 0 .6-.09.82-.26.22-.18.39-.41.5-.7a2.87 2.87 0 0 0 0-1.97 1.5 1.5 0 0 0-.5-.69 1.3 1.3 0 0 0-.82-.25 1.3 1.3 0 0 0-1.3.91c-.1.29-.16.62-.16 1Zm7 2.66c-.46 0-.86-.1-1.21-.33a2.24 2.24 0 0 1-.81-.92c-.2-.4-.3-.85-.3-1.38 0-.53.1-1 .3-1.4.2-.39.46-.7.8-.92.36-.21.76-.32 1.22-.32.46 0 .87.1 1.21.32.35.22.62.53.81.93.2.4.3.86.3 1.39 0 .53-.1.99-.3 1.38-.2.4-.46.7-.8.92a2.2 2.2 0 0 1-1.22.33Zm0-.7c.35 0 .64-.1.87-.27.22-.18.39-.42.5-.71a2.91 2.91 0 0 0 0-1.9 1.6 1.6 0 0 0-.5-.72 1.33 1.33 0 0 0-.87-.27c-.35 0-.64.09-.86.27-.23.18-.4.42-.5.72a2.75 2.75 0 0 0 0 1.9c.1.3.27.53.5.7.22.19.51.28.86.28Zm3.51.6v-5.1h.76v.76h.05c.1-.25.26-.45.5-.61.25-.16.52-.24.83-.24a9.72 9.72 0 0 1 .41.01v.8a2.09 2.09 0 0 0-.48-.05c-.24 0-.47.05-.66.16a1.1 1.1 0 0 0-.62 1.04v3.23h-.79Zm6.11 0v-5.1h.79v5.1h-.79Zm.4-5.96a.56.56 0 0 1-.4-.15.5.5 0 0 1-.16-.38.5.5 0 0 1 .17-.38c.1-.1.24-.15.4-.15.15 0 .28.05.38.15.12.1.17.23.17.38a.5.5 0 0 1-.17.38c-.1.1-.23.15-.39.15Zm2.6 2.89v3.06h-.78v-5.1h.76v.8h.07c.12-.26.3-.47.54-.63.25-.16.56-.24.95-.24.34 0 .64.08.9.22s.46.35.6.64c.15.28.22.64.22 1.07v3.25h-.78v-3.2c0-.4-.1-.7-.31-.93a1.1 1.1 0 0 0-.86-.34c-.25 0-.47.05-.67.16-.2.11-.35.27-.46.48-.12.2-.17.46-.17.76Zm6.77 3.17a2.2 2.2 0 0 1-1.24-.34 2.2 2.2 0 0 1-.8-.93c-.18-.4-.27-.85-.27-1.36 0-.52.1-.98.28-1.37.2-.4.46-.71.8-.94.35-.22.76-.33 1.22-.33.36 0 .68.06.97.2a1.73 1.73 0 0 1 1.05 1.4h-.79a1.2 1.2 0 0 0-1.22-.89 1.3 1.3 0 0 0-.8.23c-.23.16-.41.38-.54.67-.13.28-.19.62-.19 1 0 .4.06.74.19 1.03.12.3.3.52.53.68.23.17.5.25.81.25.2 0 .39-.04.56-.1a1.15 1.15 0 0 0 .66-.8h.79a1.82 1.82 0 0 1-1.02 1.4c-.28.13-.61.2-.99.2Zm3.15-.1v-5.1h.79v5.1h-.79Zm.4-5.96a.56.56 0 0 1-.4-.15.5.5 0 0 1-.16-.38.5.5 0 0 1 .17-.38c.1-.1.24-.15.4-.15.15 0 .28.05.38.15.12.1.17.23.17.38a.5.5 0 0 1-.17.38c-.1.1-.23.15-.39.15Zm3.75 6.06a2 2 0 0 1-1.89-1.24c-.18-.4-.28-.86-.28-1.4 0-.54.1-1 .28-1.4a2.03 2.03 0 0 1 1.9-1.24c.34 0 .6.06.8.17.19.11.34.23.44.37l.24.34h.06v-2.5h.79v6.8h-.76v-.79h-.1c-.05.1-.13.21-.24.35-.1.14-.25.27-.45.38-.2.1-.46.16-.79.16Zm.1-.7c.32 0 .59-.08.8-.25.22-.17.39-.4.5-.69.11-.3.17-.63.17-1.02 0-.38-.06-.71-.17-1a1.3 1.3 0 0 0-1.3-.91c-.32 0-.6.09-.82.25-.22.17-.39.4-.5.7-.1.28-.16.6-.16.96 0 .37.05.7.16 1 .12.29.28.52.5.7.22.17.5.26.83.26Zm3.78.6v-5.1h.79v5.1h-.79Zm.4-5.96a.56.56 0 0 1-.4-.15.5.5 0 0 1-.15-.38.5.5 0 0 1 .16-.38c.1-.1.24-.15.4-.15.15 0 .28.05.38.15.12.1.17.23.17.38a.5.5 0 0 1-.17.38c-.1.1-.23.15-.39.15Zm3.75 6.06a2 2 0 0 1-1.89-1.24c-.18-.4-.27-.86-.27-1.4 0-.54.09-1 .27-1.4a2.02 2.02 0 0 1 1.9-1.24c.34 0 .6.06.8.17.19.11.34.23.44.37l.24.34h.07v-2.5h.78v6.8h-.76v-.79h-.09l-.25.35c-.1.14-.25.27-.45.38-.2.1-.46.16-.79.16Zm.1-.7c.32 0 .59-.08.8-.25.22-.17.39-.4.5-.69.11-.3.17-.63.17-1.02 0-.38-.06-.71-.17-1a1.3 1.3 0 0 0-1.3-.91c-.32 0-.6.09-.82.25-.22.17-.39.4-.5.7-.1.28-.16.6-.16.96 0 .37.05.7.17 1 .1.29.28.52.5.7.22.17.49.26.82.26Zm7-1.5v-3h.79v5.1h-.79v-.87h-.05a1.61 1.61 0 0 1-1.51.93c-.33 0-.6-.07-.86-.2a1.47 1.47 0 0 1-.58-.65 2.43 2.43 0 0 1-.21-1.08v-3.24h.78v3.2c0 .36.1.66.31.88.21.22.48.33.8.33a1.33 1.33 0 0 0 1.11-.6c.14-.21.21-.47.21-.8Zm3-.97v3.06h-.78v-5.1h.76v.8h.07c.12-.26.3-.47.54-.63.25-.16.56-.24.94-.24.35 0 .65.08.91.22s.46.35.6.64c.15.28.22.64.22 1.07v3.25h-.78v-3.2c0-.4-.1-.7-.31-.93a1.1 1.1 0 0 0-.86-.34c-.25 0-.47.05-.67.16-.2.11-.35.27-.46.48-.12.2-.17.46-.17.76Zm6.92-2.04v.67h-2.65v-.67h2.64Zm-1.88-1.22h.78v4.86c0 .23.04.4.1.5.07.11.15.18.25.22a1.37 1.37 0 0 0 .67.01l.17.7a1.64 1.64 0 0 1-.59.1c-.22 0-.44-.05-.65-.14a1.3 1.3 0 0 1-.52-.44c-.14-.2-.2-.44-.2-.73v-5.08Zm8.9 4.24v-3.02h.79v5.1h-.79v-.86h-.05a1.6 1.6 0 0 1-1.52.93c-.32 0-.6-.07-.85-.2a1.47 1.47 0 0 1-.58-.65 2.42 2.42 0 0 1-.21-1.08v-3.24h.78v3.2c0 .36.1.66.31.88.21.22.48.33.8.33a1.33 1.33 0 0 0 1.11-.6c.14-.21.21-.47.21-.8Zm4.44-3.02v.67h-2.64v-.67h2.64Zm-1.87-1.22h.78v4.86c0 .23.03.4.1.5.06.11.15.18.25.22a1.38 1.38 0 0 0 .54.04l.13-.03.16.7a1.58 1.58 0 0 1-.58.1c-.22 0-.44-.05-.65-.14a1.3 1.3 0 0 1-.53-.44 1.3 1.3 0 0 1-.2-.73v-5.08Zm6.47-.48v6.8h-.79v-6.8h.79Zm2.93 6.93c-.32 0-.61-.07-.88-.19a1.5 1.5 0 0 1-.62-.53 1.51 1.51 0 0 1-.24-.85c0-.3.06-.53.18-.72.11-.18.26-.32.46-.43.19-.1.4-.18.64-.23.23-.05.47-.1.7-.13l.76-.08c.2-.03.33-.06.42-.12.1-.05.14-.13.14-.26v-.03c0-.33-.1-.58-.27-.76-.18-.18-.45-.27-.8-.27-.38 0-.68.08-.89.24-.21.17-.36.34-.45.53l-.74-.27c.13-.3.3-.55.53-.72.22-.18.47-.3.73-.37a3.03 3.03 0 0 1 1.35-.05c.22.04.42.12.62.24s.37.3.5.54c.14.24.2.57.2.97v3.37h-.78v-.7h-.04a1.53 1.53 0 0 1-.76.68c-.2.09-.46.14-.76.14Zm.12-.71c.31 0 .57-.06.79-.18a1.25 1.25 0 0 0 .65-1.08v-.72c-.03.04-.1.08-.22.11a3.85 3.85 0 0 1-.8.14l-.34.04c-.2.03-.4.07-.57.13a.98.98 0 0 0-.42.27.66.66 0 0 0-.16.47c0 .27.1.48.3.61.2.14.46.21.77.21Zm3.76.59v-6.8h.78v2.5h.07l.24-.34c.1-.14.25-.26.45-.37.2-.1.45-.17.79-.17a2.03 2.03 0 0 1 1.9 1.24c.18.4.28.86.28 1.4 0 .54-.1 1-.28 1.4a2 2 0 0 1-1.89 1.24c-.33 0-.6-.05-.79-.16-.2-.11-.35-.24-.45-.38-.1-.14-.2-.26-.25-.35h-.1v.79h-.75Zm.77-2.56c0 .39.06.73.17 1.02.11.3.28.52.5.7.21.16.48.24.8.24.32 0 .6-.09.81-.26.22-.18.4-.41.5-.7.12-.3.17-.63.17-1 0-.36-.05-.68-.16-.97a1.55 1.55 0 0 0-.5-.69c-.22-.16-.5-.25-.83-.25a1.3 1.3 0 0 0-1.3.91c-.1.29-.16.62-.16 1Zm7 2.66c-.45 0-.86-.1-1.2-.33a2.23 2.23 0 0 1-.81-.92 3.1 3.1 0 0 1-.3-1.38c0-.53.1-1 .3-1.4.19-.39.46-.7.8-.92.35-.21.76-.32 1.22-.32a2.15 2.15 0 0 1 2.02 1.25c.2.4.3.86.3 1.39 0 .53-.1.99-.3 1.38-.2.4-.46.7-.81.92a2.2 2.2 0 0 1-1.21.33Zm0-.7c.36 0 .65-.1.87-.27.23-.18.4-.42.5-.71a2.73 2.73 0 0 0 0-1.9 1.6 1.6 0 0 0-.5-.72 1.33 1.33 0 0 0-.86-.27c-.35 0-.64.09-.86.27-.23.18-.4.42-.5.72a2.7 2.7 0 0 0 0 1.9c.1.3.27.53.5.7.22.19.5.28.86.28Zm3.52.6v-5.1h.75v.76h.06c.1-.25.26-.45.5-.61.25-.16.52-.24.83-.24a9.72 9.72 0 0 1 .41.01v.8a2.09 2.09 0 0 0-.48-.05c-.25 0-.47.05-.66.16a1.14 1.14 0 0 0-.63 1.04v3.23h-.78Zm5.46.1c-.49 0-.91-.1-1.27-.32a2.19 2.19 0 0 1-.82-.92c-.19-.4-.28-.85-.28-1.38 0-.52.09-.98.28-1.38.2-.4.46-.71.8-.94a2.44 2.44 0 0 1 2-.2 1.97 1.97 0 0 1 1.22 1.21c.12.33.19.73.19 1.2v.34h-3.94v-.68h3.14c0-.29-.06-.54-.17-.77a1.3 1.3 0 0 0-1.23-.73c-.3 0-.58.08-.8.23-.23.15-.4.35-.53.6a1.8 1.8 0 0 0-.18.8v.44c0 .39.07.72.2.98.13.27.32.47.56.61.24.14.52.2.83.2.2 0 .4-.02.56-.08a1.15 1.15 0 0 0 .72-.71l.76.21a1.8 1.8 0 0 1-.4.68c-.2.2-.43.34-.7.45-.28.1-.6.16-.94.16Zm8.08 0c-.5 0-.92-.1-1.27-.32a2.19 2.19 0 0 1-.82-.92c-.2-.4-.29-.85-.29-1.38 0-.52.1-.98.29-1.38.19-.4.46-.71.8-.94a2.44 2.44 0 0 1 2-.2 1.97 1.97 0 0 1 1.21 1.21c.13.33.2.73.2 1.2v.34h-3.94v-.68h3.14c0-.29-.06-.54-.18-.77a1.3 1.3 0 0 0-1.22-.73 1.45 1.45 0 0 0-1.33.83 1.8 1.8 0 0 0-.18.8v.44c0 .39.06.72.2.98.13.27.32.47.56.61.24.14.51.2.83.2.2 0 .4-.02.56-.08a1.2 1.2 0 0 0 .72-.71l.75.21c-.08.26-.21.48-.4.68-.19.2-.42.34-.7.45-.27.1-.58.16-.93.16Zm5.53-5.2v.66h-2.65v-.67h2.65Zm-1.88-1.23h.79v4.86c0 .23.03.4.1.5.06.11.14.18.25.22a1.37 1.37 0 0 0 .67.01l.16.7a1.6 1.6 0 0 1-.59.1c-.22 0-.44-.05-.65-.14a1.3 1.3 0 0 1-.52-.44c-.14-.2-.2-.44-.2-.73v-5.08Zm7.61 6.43a2 2 0 0 1-1.89-1.24c-.18-.4-.27-.86-.27-1.4 0-.54.09-1 .27-1.4a2.02 2.02 0 0 1 1.9-1.24c.34 0 .6.06.8.17.19.11.34.23.44.37l.24.34h.07v-2.5h.78v6.8h-.75v-.79h-.1l-.24.35c-.11.14-.26.27-.46.38-.2.1-.46.16-.79.16Zm.11-.7c.31 0 .58-.08.8-.25.21-.17.38-.4.5-.69a3.16 3.16 0 0 0 0-2.02 1.3 1.3 0 0 0-1.3-.91c-.33 0-.6.09-.83.25-.22.17-.38.4-.5.7a2.87 2.87 0 0 0 .01 1.96c.11.29.28.52.5.7.22.17.5.26.82.26Zm5.85.7c-.46 0-.86-.1-1.21-.33a2.24 2.24 0 0 1-.81-.92c-.2-.4-.3-.85-.3-1.38 0-.53.1-1 .3-1.4.2-.39.46-.7.8-.92.36-.21.76-.32 1.22-.32.46 0 .87.1 1.21.32.35.22.62.53.81.93.2.4.3.86.3 1.39 0 .53-.1.99-.3 1.38-.2.4-.46.7-.81.92a2.2 2.2 0 0 1-1.2.33Zm0-.7c.35 0 .64-.1.87-.27.22-.18.39-.42.5-.71a2.91 2.91 0 0 0 0-1.9 1.6 1.6 0 0 0-.5-.72 1.33 1.33 0 0 0-.87-.27c-.35 0-.64.09-.86.27-.23.18-.4.42-.5.72a2.75 2.75 0 0 0 0 1.9c.1.3.27.53.5.7.22.19.51.28.86.28Zm4.3-6.2v6.8h-.79v-6.8h.78Zm3.5 6.9c-.46 0-.86-.1-1.2-.33a2.23 2.23 0 0 1-.82-.92c-.2-.4-.29-.85-.29-1.38 0-.53.1-1 .29-1.4.2-.39.47-.7.81-.92a2.3 2.3 0 0 1 1.21-.32c.46 0 .87.1 1.21.32.35.22.62.53.81.93.2.4.3.86.3 1.39 0 .53-.1.99-.3 1.38-.19.4-.46.7-.8.92a2.2 2.2 0 0 1-1.22.33Zm0-.7c.35 0 .64-.1.87-.27.22-.18.4-.42.5-.71a2.91 2.91 0 0 0 0-1.9 1.6 1.6 0 0 0-.5-.72 1.33 1.33 0 0 0-.87-.27c-.35 0-.63.09-.86.27-.23.18-.4.42-.5.72a2.75 2.75 0 0 0 0 1.9c.1.3.27.53.5.7.23.19.51.28.86.28Zm3.51.6v-5.1h.76v.76h.05c.1-.25.26-.45.5-.61.25-.16.53-.24.83-.24a9.72 9.72 0 0 1 .42.01v.8a2.09 2.09 0 0 0-.48-.05c-.25 0-.47.05-.67.16a1.14 1.14 0 0 0-.63 1.04v3.23h-.78Zm5.47.1c-.5 0-.92-.1-1.27-.32a2.2 2.2 0 0 1-.82-.92c-.2-.4-.29-.85-.29-1.38 0-.52.1-.98.29-1.38.19-.4.46-.71.8-.94a2.44 2.44 0 0 1 2-.2 1.97 1.97 0 0 1 1.21 1.21c.13.33.2.73.2 1.2v.34h-3.94v-.68h3.13c0-.29-.05-.54-.17-.77a1.3 1.3 0 0 0-1.22-.73 1.45 1.45 0 0 0-1.33.83c-.13.25-.19.51-.19.8v.44c0 .39.07.72.2.98.14.27.32.47.56.61.24.14.52.2.84.2.2 0 .4-.02.56-.08a1.2 1.2 0 0 0 .72-.71l.75.21c-.08.26-.21.48-.4.68-.19.2-.42.34-.7.45-.27.1-.59.16-.93.16Zm5.94-.1v-5.1h.75v.79h.07c.1-.27.28-.49.52-.63.23-.16.52-.24.85-.24.34 0 .62.08.84.24.22.14.4.36.53.63h.05c.13-.26.33-.47.59-.63.26-.16.57-.24.94-.24.46 0 .83.15 1.12.43.29.29.43.73.43 1.33v3.42h-.78V289c0-.38-.1-.65-.3-.8a1.14 1.14 0 0 0-.74-.25c-.36 0-.63.1-.83.32-.2.22-.3.5-.3.82v3.33h-.8v-3.5a.91.91 0 0 0-.28-.7 1.01 1.01 0 0 0-.72-.27c-.2 0-.4.05-.57.16a1.24 1.24 0 0 0-.59 1.12v3.19h-.78Zm9.63.12a2.1 2.1 0 0 1-.88-.19 1.5 1.5 0 0 1-.63-.53 1.51 1.51 0 0 1-.23-.85c0-.3.06-.53.17-.72.12-.18.27-.32.46-.43.2-.1.4-.18.64-.23.24-.05.47-.1.7-.13l.76-.08c.2-.03.34-.06.43-.12.09-.05.13-.13.13-.26v-.03c0-.33-.08-.58-.26-.76-.18-.18-.45-.27-.81-.27-.38 0-.67.08-.88.24-.22.17-.37.34-.45.53l-.75-.27a1.78 1.78 0 0 1 1.27-1.09 3.03 3.03 0 0 1 1.35-.05c.21.04.42.12.62.24s.37.3.5.54c.13.24.2.57.2.97v3.37h-.79v-.7h-.04c-.05.11-.14.23-.26.36a1.82 1.82 0 0 1-1.25.46Zm.12-.71c.3 0 .57-.06.78-.18a1.25 1.25 0 0 0 .65-1.08v-.72c-.03.04-.1.08-.21.11a3.9 3.9 0 0 1-.81.14l-.33.04c-.2.03-.4.07-.57.13a.98.98 0 0 0-.43.27.67.67 0 0 0-.16.47c0 .27.1.48.3.61.2.14.47.21.78.21Zm5.7 2.6c-.37 0-.7-.04-.97-.14a2.08 2.08 0 0 1-1.1-.88l.62-.44c.07.1.16.2.27.32.1.12.25.23.44.32.2.09.44.13.75.13.41 0 .75-.1 1.02-.3.27-.2.4-.5.4-.93v-1.04h-.06l-.25.35c-.1.13-.26.25-.45.36-.2.1-.46.15-.8.15-.4 0-.77-.1-1.1-.29-.33-.2-.59-.48-.78-.85a2.97 2.97 0 0 1-.28-1.35c0-.53.1-.98.28-1.37a2.02 2.02 0 0 1 1.9-1.23c.33 0 .6.06.8.17.19.11.34.23.44.37.1.14.2.25.25.34h.08v-.8h.76v5.24c0 .44-.1.8-.3 1.07-.2.28-.47.48-.8.6a3 3 0 0 1-1.11.2Zm-.02-2.8c.32 0 .58-.07.8-.21.22-.15.38-.36.5-.63a2.76 2.76 0 0 0 0-1.94c-.11-.28-.28-.5-.5-.66a1.32 1.32 0 0 0-.8-.24c-.33 0-.6.08-.83.25-.22.17-.38.4-.5.68a2.8 2.8 0 0 0 .01 1.88c.11.27.28.49.5.64.22.16.5.23.82.23Zm4.45-2.28v3.06H403v-5.1h.76v.8h.06c.12-.26.3-.47.55-.63.24-.16.56-.24.94-.24.35 0 .65.08.91.22s.46.35.6.64c.15.28.22.64.22 1.07v3.25h-.78v-3.2c0-.4-.1-.7-.31-.93a1.1 1.1 0 0 0-.86-.34c-.25 0-.48.05-.67.16-.2.11-.35.27-.47.48-.1.2-.17.46-.17.76Zm6.2 3.19c-.33 0-.62-.07-.89-.19-.26-.12-.47-.3-.62-.53a1.5 1.5 0 0 1-.23-.85c0-.3.05-.53.17-.72.11-.18.27-.32.46-.43.2-.1.4-.18.64-.23.23-.05.47-.1.7-.13l.76-.08a1 1 0 0 0 .42-.12c.1-.05.14-.13.14-.26v-.03c0-.33-.09-.58-.27-.76-.18-.18-.44-.27-.8-.27-.38 0-.67.08-.89.24-.2.17-.36.34-.44.53l-.75-.27a1.8 1.8 0 0 1 1.26-1.09 3.03 3.03 0 0 1 1.35-.05c.22.04.42.12.62.24s.37.3.5.54a2 2 0 0 1 .2.97v3.37h-.78v-.7h-.04a1.53 1.53 0 0 1-.76.68c-.2.09-.46.14-.75.14Zm.11-.71c.31 0 .58-.06.79-.18a1.25 1.25 0 0 0 .65-1.08v-.72c-.03.04-.1.08-.22.11a3.9 3.9 0 0 1-.8.14l-.33.04c-.2.03-.4.07-.58.13a.99.99 0 0 0-.42.27.67.67 0 0 0-.16.47c0 .27.1.48.3.61.2.14.46.21.77.21Zm7.79.7a2.1 2.1 0 0 1-.88-.18 1.5 1.5 0 0 1-.63-.53 1.5 1.5 0 0 1-.23-.85c0-.3.06-.53.17-.72.12-.18.27-.32.46-.43.2-.1.4-.18.64-.23.24-.05.47-.1.7-.13l.76-.08c.2-.03.34-.06.43-.12.09-.05.13-.13.13-.26v-.03c0-.33-.09-.58-.27-.76-.17-.18-.44-.27-.8-.27-.38 0-.67.08-.88.24-.22.17-.37.34-.45.53l-.75-.27a1.87 1.87 0 0 1 1.27-1.09 3.03 3.03 0 0 1 1.35-.05c.21.04.42.12.62.24s.37.3.5.54c.13.24.2.57.2.97v3.37h-.79v-.7h-.04c-.05.11-.14.23-.26.36a1.82 1.82 0 0 1-1.25.46Zm.12-.7c.3 0 .57-.06.78-.18a1.25 1.25 0 0 0 .65-1.08v-.72c-.03.04-.1.08-.22.11a3.92 3.92 0 0 1-.8.14l-.33.04c-.2.03-.4.07-.57.13a.98.98 0 0 0-.43.27.66.66 0 0 0-.16.47c0 .27.1.48.3.61.2.14.47.21.78.21Zm4.43-6.22v6.8h-.78v-6.8h.78Zm1.44 6.8v-5.1h.78v5.1h-.78Zm.4-5.95a.56.56 0 0 1-.4-.15.5.5 0 0 1-.16-.38.5.5 0 0 1 .16-.38c.11-.1.25-.15.4-.15.15 0 .28.05.39.15.11.1.17.23.17.38a.5.5 0 0 1-.17.38c-.1.1-.24.15-.4.15Zm5.3 7.87v-2.7h-.06l-.25.35c-.1.14-.26.27-.46.38-.2.1-.46.16-.78.16a2 2 0 0 1-1.9-1.24c-.18-.4-.27-.86-.27-1.4 0-.54.1-1 .28-1.4a2.02 2.02 0 0 1 1.9-1.24c.33 0 .6.06.79.17.2.11.34.23.44.37l.25.34h.09v-.8h.76v7h-.79Zm-1.45-2.51c.32 0 .58-.08.8-.25.22-.17.38-.4.5-.69a3.16 3.16 0 0 0 0-2.02 1.3 1.3 0 0 0-1.3-.91c-.33 0-.6.09-.83.25-.22.17-.38.4-.5.7a2.87 2.87 0 0 0 .01 1.96c.11.29.28.52.5.7.22.17.5.26.82.26Zm6.89-1.5v-3h.78v5.1H435v-.87h-.06c-.12.26-.3.48-.55.66-.26.18-.58.27-.96.27-.32 0-.6-.07-.85-.2a1.46 1.46 0 0 1-.59-.65 2.42 2.42 0 0 1-.2-1.08v-3.24h.77v3.2c0 .36.1.66.32.88.2.22.48.33.8.33a1.33 1.33 0 0 0 1.32-1.4Zm3.72 2.22a2.1 2.1 0 0 1-.88-.19 1.5 1.5 0 0 1-.63-.53 1.51 1.51 0 0 1-.23-.85c0-.3.06-.53.17-.72.12-.18.27-.32.46-.43.2-.1.4-.18.64-.23.24-.05.47-.1.7-.13l.76-.08c.2-.03.34-.06.43-.12.09-.05.13-.13.13-.26v-.03c0-.33-.09-.58-.26-.76-.18-.18-.45-.27-.81-.27-.38 0-.67.08-.88.24-.21.17-.37.34-.45.53l-.75-.27a1.87 1.87 0 0 1 1.27-1.09 3.03 3.03 0 0 1 1.35-.05c.21.04.42.12.62.24s.37.3.5.54c.13.24.2.57.2.97v3.37h-.79v-.7h-.04c-.05.11-.14.23-.26.36a1.82 1.82 0 0 1-1.25.46Zm.12-.71c.3 0 .57-.06.78-.18a1.25 1.25 0 0 0 .65-1.08v-.72c-.03.04-.1.08-.21.11a3.85 3.85 0 0 1-.81.14l-.33.04c-.2.03-.4.07-.57.13a.98.98 0 0 0-.43.27.66.66 0 0 0-.16.47c0 .27.1.48.3.61.2.14.47.21.78.21Zm4.22.64a.57.57 0 0 1-.42-.18.57.57 0 0 1-.18-.42c0-.16.06-.3.18-.42a.58.58 0 0 1 .42-.18c.17 0 .3.06.42.18s.18.26.18.42c0 .1-.03.2-.08.3a.61.61 0 0 1-.22.22.56.56 0 0 1-.3.08Z" fill="#000"/><rect x="291.74" y="310.24" width="88.51" height="21.39" rx="1.78" fill="#0F67F5"/><path d="M312.9 319.92h-1.25a1.54 1.54 0 0 0-.55-.95 1.5 1.5 0 0 0-.48-.25 1.9 1.9 0 0 0-1.57.2c-.28.18-.5.45-.67.8-.16.36-.24.8-.24 1.3 0 .53.08.97.24 1.32a1.75 1.75 0 0 0 1.65 1.08c.2 0 .4-.03.57-.08a1.56 1.56 0 0 0 .85-.64c.1-.15.17-.33.2-.53h1.25a2.7 2.7 0 0 1-1.78 2.17c-.33.12-.7.18-1.1.18a2.9 2.9 0 0 1-2.71-1.61 4.06 4.06 0 0 1-.41-1.88c0-.74.14-1.36.4-1.88a2.93 2.93 0 0 1 2.72-1.62c.38 0 .73.06 1.05.16.33.1.62.26.87.47a2.73 2.73 0 0 1 .96 1.76Zm2.54 4.61c-.32 0-.61-.05-.87-.17a1.42 1.42 0 0 1-.61-.52c-.15-.23-.23-.5-.23-.84 0-.3.06-.53.16-.72.1-.18.25-.34.44-.45.18-.11.39-.2.62-.25.23-.06.47-.1.72-.13l.73-.09a.86.86 0 0 0 .4-.12c.09-.05.13-.14.13-.25v-.02a.75.75 0 0 0-.22-.58c-.15-.14-.36-.21-.64-.21-.3 0-.53.06-.7.2a.96.96 0 0 0-.35.45l-1.12-.16a1.8 1.8 0 0 1 1.19-1.25 3.15 3.15 0 0 1 1.71-.07c.24.05.46.15.66.28.2.13.37.31.49.54.12.22.19.5.19.84v3.42h-1.16v-.7h-.04a1.46 1.46 0 0 1-.8.7 2 2 0 0 1-.7.1Zm.31-.88c.25 0 .45-.05.63-.14.18-.1.31-.23.41-.39.1-.16.15-.33.15-.52v-.6a.58.58 0 0 1-.2.08l-.3.07a7.75 7.75 0 0 1-.6.1c-.19.02-.35.06-.49.12a.8.8 0 0 0-.33.23.57.57 0 0 0-.13.38c0 .22.08.39.25.5.16.11.36.17.61.17Zm4.8-6.02v6.8h-1.2v-6.8h1.2Zm2.44 0v6.8h-1.2v-6.8h1.2Zm6.1 1.7v.93h-2.93v-.93h2.93Zm-2.2-1.23h1.2v4.8c0 .16.02.28.07.37a.4.4 0 0 0 .2.17c.08.03.17.05.27.05a1.18 1.18 0 0 0 .35-.05l.2.94a2.33 2.33 0 0 1-1.52-.02c-.24-.1-.43-.26-.57-.47a1.4 1.4 0 0 1-.2-.8v-4.99Zm5.38 6.43c-.5 0-.93-.11-1.3-.33a2.23 2.23 0 0 1-.85-.92c-.2-.4-.3-.85-.3-1.38 0-.53.1-1 .3-1.39.2-.4.49-.7.85-.92.37-.22.8-.33 1.3-.33s.93.1 1.3.33c.36.22.64.53.84.92.2.4.3.86.3 1.39a3 3 0 0 1-.3 1.38c-.2.4-.48.7-.84.92-.37.22-.8.33-1.3.33Zm0-.96c.28 0 .5-.08.69-.23.18-.15.31-.35.4-.6.1-.25.14-.54.14-.85 0-.3-.05-.6-.14-.84a1.35 1.35 0 0 0-.4-.61 1.05 1.05 0 0 0-.68-.23c-.28 0-.51.08-.7.23-.18.15-.31.35-.4.6-.1.26-.14.54-.14.85 0 .31.05.6.14.85.09.25.22.45.4.6.19.15.42.23.7.23Zm7.26.96c-.33 0-.62-.05-.88-.17a1.43 1.43 0 0 1-.61-.52c-.15-.23-.22-.5-.22-.84a1.24 1.24 0 0 1 .6-1.17c.18-.11.38-.2.61-.25.24-.06.48-.1.73-.13l.72-.09a.82.82 0 0 0 .4-.12c.1-.05.14-.14.14-.25v-.02a.75.75 0 0 0-.22-.58c-.15-.14-.37-.21-.65-.21-.3 0-.52.06-.7.2a.96.96 0 0 0-.34.45l-1.13-.16a1.8 1.8 0 0 1 1.19-1.25 3.16 3.16 0 0 1 1.71-.07c.25.05.47.15.67.28.2.13.36.31.48.54.13.22.19.5.19.84v3.42h-1.16v-.7h-.04a1.46 1.46 0 0 1-.8.7 2 2 0 0 1-.7.1Zm.3-.88c.25 0 .46-.05.64-.14a1.06 1.06 0 0 0 .55-.91v-.6a.58.58 0 0 1-.2.08 2.9 2.9 0 0 1-.62.13l-.28.04c-.18.02-.34.06-.48.12a.8.8 0 0 0-.34.23.57.57 0 0 0-.12.38c0 .22.08.39.24.5.16.11.37.17.62.17Zm5.83.88c-.51 0-.95-.11-1.32-.34a2.23 2.23 0 0 1-.84-.92c-.2-.4-.29-.86-.29-1.37 0-.52.1-.98.3-1.38a2.24 2.24 0 0 1 2.14-1.26c.41 0 .78.08 1.1.23a1.87 1.87 0 0 1 1.1 1.6h-1.16a1.1 1.1 0 0 0-.33-.61.96.96 0 0 0-.7-.25c-.24 0-.46.07-.64.2-.19.13-.33.32-.44.56-.1.25-.15.54-.15.89s.05.64.15.9c.1.24.25.43.43.57.19.13.4.2.66.2.17 0 .33-.03.47-.1a.96.96 0 0 0 .36-.3c.1-.13.16-.28.2-.46h1.14a1.88 1.88 0 0 1-1.07 1.61c-.31.15-.69.23-1.11.23Zm5.72-5.2v.93h-2.94v-.93h2.94Zm-2.21-1.23h1.2v4.8c0 .16.02.28.07.37.06.08.12.14.2.17.09.03.18.05.28.05a1.18 1.18 0 0 0 .35-.05l.2.94a2.39 2.39 0 0 1-1.52-.02c-.24-.1-.43-.26-.58-.47a1.5 1.5 0 0 1-.2-.8v-4.99Zm3.21 6.33v-5.1h1.2v5.1h-1.2Zm.6-5.83a.7.7 0 0 1-.48-.19.6.6 0 0 1-.2-.46.6.6 0 0 1 .2-.46.7.7 0 0 1 .49-.2c.2 0 .36.07.49.2.14.13.2.28.2.46s-.06.33-.2.46a.7.7 0 0 1-.5.2Zm4.07 5.93c-.5 0-.93-.11-1.3-.33a2.23 2.23 0 0 1-.85-.92c-.2-.4-.3-.85-.3-1.38 0-.53.1-1 .3-1.39.2-.4.49-.7.85-.92.37-.22.8-.33 1.3-.33s.93.1 1.3.33c.36.22.64.53.84.92.2.4.3.86.3 1.39a3 3 0 0 1-.3 1.38c-.2.4-.48.7-.84.92-.37.22-.8.33-1.3.33Zm0-.96c.28 0 .5-.08.68-.23.19-.15.32-.35.4-.6.1-.25.14-.54.14-.85 0-.3-.04-.6-.13-.84a1.35 1.35 0 0 0-.4-.61 1.05 1.05 0 0 0-.68-.23c-.28 0-.51.08-.7.23-.18.15-.31.35-.4.6-.1.26-.14.54-.14.85 0 .31.05.6.14.85.09.25.22.45.4.6.19.15.42.23.7.23Zm4.67-2.13v2.99h-1.2v-5.1h1.15v.86h.06c.11-.28.3-.51.56-.68.25-.17.57-.25.96-.25.35 0 .65.07.92.23.26.15.46.36.6.65.15.29.23.63.22 1.04v3.25h-1.2v-3.06c0-.35-.09-.61-.26-.8a.93.93 0 0 0-.73-.3c-.21 0-.4.05-.56.15a.96.96 0 0 0-.39.4c-.09.16-.13.37-.13.62Z" fill="#fff"/></svg>