<svg width="264" height="83" fill="none" xmlns="http://www.w3.org/2000/svg"><path d="m2.08 2.82 3.02 8.57h.12l3.03-8.57h1.29L5.8 13H4.53L.79 2.82h1.29ZM10.96 13V5.36h1.18V13h-1.18Zm.6-8.9a.83.83 0 0 1-.6-.24.75.75 0 0 1-.23-.56c0-.22.08-.41.24-.57a.83.83 0 0 1 .6-.23c.22 0 .42.08.58.23.16.16.25.35.25.57 0 .21-.09.4-.25.56a.82.82 0 0 1-.59.23Zm8.14 2.97-1.06.3a1.96 1.96 0 0 0-.3-.51 1.5 1.5 0 0 0-.5-.42c-.23-.1-.5-.16-.85-.16a2 2 0 0 0-1.17.32c-.3.21-.46.48-.46.81 0 .3.1.52.32.7.21.16.54.3 1 .42l1.13.27c.68.17 1.19.42 1.52.76.34.34.5.78.5 1.31 0 .44-.12.83-.37 1.18-.25.34-.6.61-1.05.81-.44.2-.96.3-1.56.3-.78 0-1.42-.17-1.93-.5a2.25 2.25 0 0 1-.97-1.49l1.11-.28c.1.41.3.72.6.93.3.2.7.3 1.17.3.55 0 .98-.11 1.3-.34.33-.24.5-.52.5-.85 0-.26-.1-.49-.29-.66a1.78 1.78 0 0 0-.85-.41l-1.27-.3a3.04 3.04 0 0 1-1.55-.77 1.87 1.87 0 0 1-.48-1.32c0-.43.12-.81.36-1.14.25-.33.58-.6 1-.78.42-.2.9-.29 1.44-.29.76 0 1.35.17 1.78.5.44.33.74.77.93 1.31ZM21.6 13V5.36h1.17V13H21.6Zm.6-8.9a.83.83 0 0 1-.6-.24.75.75 0 0 1-.24-.56c0-.22.08-.41.25-.57a.83.83 0 0 1 .59-.23c.23 0 .42.08.58.23.17.16.25.35.25.57 0 .21-.08.4-.25.56a.82.82 0 0 1-.58.23Zm6.04 1.26v1H24.3v-1h3.95Zm-2.8-1.83h1.17v7.28c0 .33.05.58.15.75.1.16.22.27.38.33.15.05.32.08.49.08l.32-.02.2-.04.23 1.05a2.37 2.37 0 0 1-.87.14c-.33 0-.66-.07-.98-.21a1.94 1.94 0 0 1-.78-.66 1.9 1.9 0 0 1-.3-1.1v-7.6Zm11.6 9.63c-.68 0-1.29-.17-1.8-.5a3.34 3.34 0 0 1-1.22-1.37 4.66 4.66 0 0 1-.43-2.07c0-.8.14-1.49.43-2.08.3-.6.7-1.06 1.21-1.38.52-.33 1.13-.5 1.82-.5a3.3 3.3 0 0 1 3.02 1.87c.3.6.44 1.3.44 2.1 0 .78-.15 1.47-.44 2.06a3.3 3.3 0 0 1-1.21 1.38 3.3 3.3 0 0 1-1.81.49Zm0-1.05c.53 0 .96-.14 1.3-.4.34-.28.59-.63.75-1.07a4.1 4.1 0 0 0 0-2.85 2.4 2.4 0 0 0-.75-1.06 2 2 0 0 0-1.3-.41 2 2 0 0 0-1.28.4A2.4 2.4 0 0 0 35 7.8a4.1 4.1 0 0 0-.25 1.43c0 .51.08.99.25 1.42.16.44.4.8.75 1.06.33.27.77.4 1.29.4Zm10.07-2.23V5.36h1.18V13H47.1v-1.3h-.08a2.5 2.5 0 0 1-.83 1c-.38.27-.86.4-1.43.4-.48 0-.9-.1-1.28-.31a2.2 2.2 0 0 1-.87-.96 3.63 3.63 0 0 1-.32-1.61V5.36h1.17v4.78c0 .55.16 1 .47 1.33.32.33.72.5 1.2.5a2 2 0 0 0 1.97-2.1ZM50.44 13V5.36h1.13v1.16h.08c.14-.38.39-.69.75-.92.37-.24.78-.36 1.24-.36a12.96 12.96 0 0 1 .61.02v1.2a3.48 3.48 0 0 0-.71-.08c-.37 0-.7.08-1 .23a1.71 1.71 0 0 0-.93 1.56V13h-1.17Z" fill="#1F1F1F"/><path d="M64.23 13V2.82h1.24v4.53h5.42V2.82h1.24V13h-1.24V8.45h-5.42V13h-1.24Zm13.4.16a3.27 3.27 0 0 1-3.13-1.86 4.68 4.68 0 0 1-.42-2.06c0-.78.14-1.47.43-2.07a3.23 3.23 0 0 1 3.01-1.9c.4 0 .79.06 1.18.2a2.92 2.92 0 0 1 1.82 1.81 5 5 0 0 1 .28 1.8v.5h-5.89V8.57h4.7c0-.44-.09-.82-.26-1.16a1.95 1.95 0 0 0-1.83-1.1c-.47 0-.87.12-1.21.36-.34.22-.6.52-.78.9-.19.36-.28.75-.28 1.17v.68c0 .58.1 1.07.3 1.47.2.4.48.7.84.9a2.68 2.68 0 0 0 2.08.19c.26-.1.47-.23.66-.4.18-.18.32-.4.42-.67l1.13.32c-.12.38-.32.72-.6 1.01-.28.3-.63.52-1.04.68-.42.16-.88.24-1.4.24Zm6.13-10.34V13h-1.17V2.82h1.17Zm2.15 13.04V5.36h1.13v1.22h.14l.36-.51c.15-.2.38-.4.66-.56.3-.16.7-.25 1.19-.25a3.03 3.03 0 0 1 2.85 1.85c.27.6.4 1.29.4 2.1 0 .8-.13 1.5-.4 2.1a2.99 2.99 0 0 1-2.83 1.85c-.5 0-.89-.08-1.18-.24-.3-.17-.52-.36-.68-.57a7.5 7.5 0 0 1-.37-.52h-.1v4.03h-1.17Zm1.15-6.68c0 .58.09 1.09.25 1.53.17.44.42.78.75 1.03.32.24.72.37 1.19.37.49 0 .9-.13 1.23-.4.33-.25.58-.6.74-1.05.17-.44.26-.93.26-1.48 0-.54-.09-1.02-.25-1.45a2.32 2.32 0 0 0-.74-1.03 1.96 1.96 0 0 0-1.24-.38 1.96 1.96 0 0 0-1.94 1.37 4 4 0 0 0-.25 1.5Zm14.42 3.98a3.3 3.3 0 0 1-1.85-.5 3.3 3.3 0 0 1-1.2-1.4 4.73 4.73 0 0 1-.41-2.04c0-.77.14-1.46.43-2.05a3.23 3.23 0 0 1 3.01-1.9c.54 0 1.02.1 1.45.3a2.61 2.61 0 0 1 1.57 2.09h-1.17a1.79 1.79 0 0 0-1.83-1.33 1.9 1.9 0 0 0-1.2.35c-.35.23-.61.56-.8 1a3.7 3.7 0 0 0-.29 1.5c0 .6.1 1.1.28 1.54.19.44.45.78.8 1.02a2.2 2.2 0 0 0 2.04.21 1.72 1.72 0 0 0 1-1.18h1.17a2.74 2.74 0 0 1-1.52 2.08c-.42.2-.92.3-1.48.3Zm7.92 0a3.27 3.27 0 0 1-3.13-1.86 4.67 4.67 0 0 1-.43-2.06c0-.78.14-1.47.43-2.07a3.23 3.23 0 0 1 3.01-1.9c.4 0 .79.06 1.18.2a2.93 2.93 0 0 1 1.82 1.81 5 5 0 0 1 .28 1.8v.5h-5.89V8.57h4.7c0-.44-.09-.82-.26-1.16a1.95 1.95 0 0 0-1.83-1.1c-.47 0-.87.12-1.21.36-.34.22-.6.52-.78.9-.19.36-.28.75-.28 1.17v.68c0 .58.1 1.07.3 1.47.2.4.48.7.84.9.36.21.77.32 1.25.32a2.08 2.08 0 0 0 1.49-.53c.18-.18.32-.4.42-.67l1.13.32c-.12.38-.32.72-.6 1.01-.28.3-.63.52-1.04.68-.42.16-.88.24-1.4.24Zm6.12-4.75V13h-1.17V5.36h1.13v1.2h.1c.18-.4.45-.7.81-.94.37-.24.84-.36 1.42-.36.51 0 .97.11 1.35.32.4.21.7.53.9.96.22.42.33.96.33 1.6V13h-1.17V8.23c0-.6-.16-1.07-.47-1.4a1.65 1.65 0 0 0-1.28-.51c-.38 0-.71.08-1 .24-.3.16-.53.4-.7.71-.17.31-.25.7-.25 1.14Zm10.34-3.05v1h-3.96v-1h3.96Zm-2.8-1.83h1.16v7.28c0 .33.05.58.15.75.1.16.22.27.38.33.15.05.32.08.49.08l.32-.02.2-.04.23 1.05a2.41 2.41 0 0 1-.87.14c-.33 0-.66-.07-.97-.21a1.94 1.94 0 0 1-.79-.66 1.9 1.9 0 0 1-.3-1.1v-7.6Zm7.68 9.63a3.6 3.6 0 0 1-1.9-.49 3.28 3.28 0 0 1-1.23-1.37 4.68 4.68 0 0 1-.43-2.06c0-.78.14-1.47.43-2.07a3.23 3.23 0 0 1 3.01-1.9c.4 0 .8.06 1.18.2a2.92 2.92 0 0 1 1.82 1.81 5 5 0 0 1 .28 1.8v.5h-5.88V8.57h4.69c0-.44-.09-.82-.26-1.16a1.95 1.95 0 0 0-1.83-1.1c-.47 0-.87.12-1.21.36-.34.22-.6.52-.78.9-.19.36-.28.75-.28 1.17v.68c0 .58.1 1.07.3 1.47.2.4.48.7.84.9.36.21.78.32 1.25.32.3 0 .59-.05.84-.13.25-.1.46-.23.65-.4.18-.18.32-.4.42-.67l1.13.32a2.5 2.5 0 0 1-.6 1.01c-.28.3-.63.52-1.04.68-.42.16-.88.24-1.4.24Zm4.95-.16V5.36h1.13v1.16h.08c.14-.38.4-.69.76-.92.36-.24.77-.36 1.23-.36a12.96 12.96 0 0 1 .62.02v1.2a3.43 3.43 0 0 0-.72-.08c-.37 0-.7.08-1 .23a1.71 1.71 0 0 0-.93 1.56V13h-1.17Z" fill="#0F67F5"/><path fill-rule="evenodd" clip-rule="evenodd" d="M150.04 2.04h5.3V3.3h-4.05v9.42h9.42V8.67h1.25v5.29h-11.92V2.04Zm9.78 1.25h-1.15V2.04h3.29v3.3h-1.25V4.17l-4.27 4.26-.88-.88 4.26-4.27Z" fill="#0F67F5"/><path d="M4.25 37.16c-.69 0-1.29-.16-1.81-.5a3.34 3.34 0 0 1-1.21-1.37 4.66 4.66 0 0 1-.44-2.07c0-.8.15-1.49.44-2.08a3.27 3.27 0 0 1 3.02-1.88 3.3 3.3 0 0 1 3.02 1.87c.3.6.44 1.3.44 2.1 0 .78-.14 1.47-.43 2.06a3.3 3.3 0 0 1-1.22 1.38 3.3 3.3 0 0 1-1.8.49Zm0-1.05c.53 0 .96-.14 1.3-.4.33-.28.59-.63.75-1.07a4.25 4.25 0 0 0 0-2.85 2.4 2.4 0 0 0-.75-1.06 2 2 0 0 0-1.3-.41 2 2 0 0 0-1.29.4 2.4 2.4 0 0 0-.75 1.07 4.1 4.1 0 0 0-.24 1.43c0 .51.08.99.24 1.42.16.44.41.8.75 1.06.34.27.77.4 1.3.4Zm5.26.89v-7.64h1.13v1.16h.08c.14-.38.39-.69.75-.92.37-.24.78-.36 1.24-.36a13.1 13.1 0 0 1 .61.02v1.2a3.45 3.45 0 0 0-.71-.08c-.37 0-.7.08-1 .23a1.71 1.71 0 0 0-.93 1.56V37H9.5Zm9.14 0v-7.64h1.14v1.16h.08c.13-.38.39-.69.75-.92.37-.24.78-.36 1.23-.36a13.08 13.08 0 0 1 .62.02v1.2a3.45 3.45 0 0 0-.72-.08c-.37 0-.7.08-.99.23a1.71 1.71 0 0 0-.93 1.56V37h-1.18Zm8.18.16a3.27 3.27 0 0 1-3.13-1.86 4.68 4.68 0 0 1-.43-2.06c0-.78.14-1.47.43-2.07a3.23 3.23 0 0 1 3.01-1.9c.4 0 .8.06 1.18.2a2.92 2.92 0 0 1 1.82 1.81 5 5 0 0 1 .28 1.8v.5h-5.88v-1.01h4.69c0-.44-.09-.82-.26-1.16a1.95 1.95 0 0 0-1.83-1.1c-.47 0-.87.12-1.21.36-.34.22-.6.52-.78.9-.18.36-.28.75-.28 1.17v.68c0 .58.1 1.07.3 1.47.2.4.48.7.84.9.36.21.78.32 1.25.32.3 0 .59-.05.84-.13.25-.1.46-.23.65-.4.18-.18.32-.4.42-.67l1.13.32c-.12.38-.32.72-.6 1.01-.28.3-.63.52-1.04.68-.42.16-.88.24-1.4.24Zm7.2.02c-.49 0-.93-.1-1.32-.27a2.3 2.3 0 0 1-.94-.8 2.26 2.26 0 0 1-.35-1.28c0-.44.09-.79.26-1.06.17-.28.4-.5.69-.65.29-.15.6-.27.95-.35.35-.08.7-.14 1.06-.18l1.13-.14c.3-.03.5-.09.64-.16.13-.08.2-.21.2-.4v-.04c0-.5-.13-.87-.4-1.14-.27-.28-.67-.41-1.21-.41a2.1 2.1 0 0 0-1.99 1.15l-1.11-.4a2.67 2.67 0 0 1 1.89-1.63 4.54 4.54 0 0 1 2.02-.07c.32.06.63.18.93.36.3.18.55.45.75.8.2.37.3.85.3 1.46V37h-1.18v-1.03h-.06a2.3 2.3 0 0 1-1.14 1.01c-.3.13-.68.2-1.13.2Zm.17-1.05c.47 0 .86-.1 1.18-.28a1.86 1.86 0 0 0 .97-1.61v-1.08c-.05.06-.16.12-.33.17l-.57.12a26.34 26.34 0 0 1-1.13.15c-.3.04-.59.1-.85.2-.26.08-.48.21-.64.39a1 1 0 0 0-.24.7c0 .41.15.72.45.93.31.2.7.3 1.16.3Zm8.35 1.03a2.99 2.99 0 0 1-2.83-1.86 5.01 5.01 0 0 1-.41-2.1 5 5 0 0 1 .41-2.09 3.03 3.03 0 0 1 2.85-1.85c.5 0 .89.09 1.18.25.29.17.51.35.66.56l.37.5h.1v-3.75h1.17V37h-1.13v-1.17h-.14l-.37.52c-.16.21-.39.4-.68.57-.3.16-.69.24-1.18.24Zm.16-1.05a2 2 0 0 0 1.2-.37c.32-.25.56-.6.73-1.03.17-.44.26-.95.26-1.53 0-.57-.09-1.07-.25-1.5a1.96 1.96 0 0 0-1.94-1.37c-.5 0-.91.14-1.24.4-.33.24-.58.59-.75 1.02a4.1 4.1 0 0 0-.24 1.45c0 .55.08 1.04.25 1.48.17.44.42.8.75 1.06s.74.39 1.23.39Zm12.7 1.05c-.7 0-1.3-.16-1.82-.5a3.34 3.34 0 0 1-1.22-1.37 4.66 4.66 0 0 1-.43-2.07c0-.8.14-1.49.43-2.08a3.3 3.3 0 0 1 3.03-1.88 3.28 3.28 0 0 1 3.02 1.88c.3.6.44 1.29.44 2.08s-.14 1.48-.44 2.07a3.3 3.3 0 0 1-1.21 1.38 3.3 3.3 0 0 1-1.8.49Zm0-1.05c.51 0 .95-.14 1.28-.4.34-.28.6-.63.75-1.07a4.1 4.1 0 0 0 0-2.85 2.4 2.4 0 0 0-.75-1.06 2 2 0 0 0-1.29-.41 2 2 0 0 0-1.3.4 2.4 2.4 0 0 0-.74 1.07 4.1 4.1 0 0 0-.25 1.43c0 .51.09.99.25 1.42.16.44.41.8.75 1.06.34.27.77.4 1.3.4Zm10.05-2.23v-4.52h1.18V37h-1.18v-1.3h-.08a2.5 2.5 0 0 1-.83 1c-.38.27-.86.4-1.43.4-.48 0-.9-.1-1.27-.31a2.2 2.2 0 0 1-.88-.96 3.62 3.62 0 0 1-.32-1.61v-4.86h1.18v4.78c0 .55.15 1 .46 1.33.32.33.72.5 1.2.5a2 2 0 0 0 1.97-2.1ZM68.8 37v-7.64h1.13v1.16H70c.14-.38.4-.69.76-.92.36-.24.77-.36 1.23-.36a13.09 13.09 0 0 1 .61.02v1.2a3.44 3.44 0 0 0-.71-.08c-.37 0-.7.08-1 .23a1.71 1.71 0 0 0-.93 1.56V37h-1.17Z" fill="#1F1F1F"/><path d="M82.65 37h-1.3l3.75-10.18h1.27L90.1 37h-1.3l-3.04-8.57h-.08L82.65 37Zm.48-3.98h5.2v1.1h-5.2v-1.1Zm11.25-3.66v1h-3.96v-1h3.96Zm-2.8-1.83h1.17v7.28c0 .33.04.58.14.75.1.16.23.27.38.33.15.05.32.08.5.08a2.07 2.07 0 0 0 .5-.06l.25 1.05a2.37 2.37 0 0 1-.88.14c-.33 0-.65-.07-.97-.21a1.94 1.94 0 0 1-.79-.66 1.9 1.9 0 0 1-.3-1.1v-7.6Zm7.58 9.63a3.2 3.2 0 0 1-1.81-.5 3.34 3.34 0 0 1-1.22-1.37 4.66 4.66 0 0 1-.43-2.07c0-.8.15-1.49.43-2.08a3.3 3.3 0 0 1 3.03-1.88 3.3 3.3 0 0 1 3.02 1.87c.3.6.44 1.3.44 2.1a4.6 4.6 0 0 1-.44 2.06 3.3 3.3 0 0 1-1.2 1.38 3.3 3.3 0 0 1-1.82.49Zm0-1.05c.53 0 .96-.14 1.3-.4.33-.28.58-.63.75-1.07a4.25 4.25 0 0 0 0-2.85c-.17-.44-.42-.8-.75-1.06a2 2 0 0 0-1.3-.41 2 2 0 0 0-1.29.4 2.4 2.4 0 0 0-.75 1.07 4.1 4.1 0 0 0-.24 1.43c0 .51.08.99.24 1.42.16.44.41.8.75 1.06.34.27.77.4 1.3.4Zm5.25.89v-7.64h1.14v1.2h.1c.16-.41.41-.73.77-.95.35-.23.78-.35 1.27-.35.5 0 .93.12 1.26.35.34.22.6.54.8.95h.07c.2-.4.5-.71.88-.94.4-.24.86-.36 1.41-.36.68 0 1.24.22 1.67.65.44.42.66 1.08.66 1.98V37h-1.18v-5.11c0-.56-.15-.97-.46-1.2-.3-.25-.67-.37-1.09-.37-.53 0-.95.16-1.25.49-.3.32-.44.72-.44 1.22V37h-1.2v-5.23c0-.43-.13-.78-.41-1.05-.29-.27-.65-.4-1.1-.4-.3 0-.58.08-.85.24a1.8 1.8 0 0 0-.63.68 2 2 0 0 0-.24.99V37h-1.18Zm16.27 0V26.82h1.17v3.76h.1l.36-.51c.16-.2.38-.4.66-.56.3-.16.7-.25 1.19-.25a3.04 3.04 0 0 1 2.85 1.85c.27.6.41 1.29.41 2.1 0 .8-.14 1.5-.41 2.1a3 3 0 0 1-2.83 1.85c-.5 0-.88-.08-1.18-.24-.3-.17-.52-.36-.68-.57a7.5 7.5 0 0 1-.37-.52h-.14V37h-1.13Zm1.15-3.82c0 .58.09 1.09.25 1.53.17.44.42.78.75 1.03.32.24.72.37 1.19.37.49 0 .9-.13 1.23-.4.33-.25.58-.6.74-1.05.17-.44.26-.93.26-1.48 0-.54-.09-1.02-.25-1.45a2.32 2.32 0 0 0-.74-1.03 1.96 1.96 0 0 0-1.24-.38 1.96 1.96 0 0 0-1.94 1.37 4.2 4.2 0 0 0-.25 1.5Zm8.56-6.36V37h-1.18V26.82h1.18Zm5.25 10.34c-.69 0-1.3-.16-1.82-.5a3.35 3.35 0 0 1-1.2-1.37 4.66 4.66 0 0 1-.44-2.07c0-.8.14-1.49.43-2.08.3-.6.7-1.06 1.21-1.38.53-.33 1.13-.5 1.82-.5a3.22 3.22 0 0 1 3.02 1.88c.3.6.44 1.29.44 2.08s-.15 1.48-.44 2.07a3.3 3.3 0 0 1-1.21 1.38 3.3 3.3 0 0 1-1.81.49Zm0-1.05c.52 0 .95-.14 1.3-.4.33-.28.58-.63.74-1.07a4.08 4.08 0 0 0 0-2.85 2.4 2.4 0 0 0-.75-1.06 2 2 0 0 0-1.3-.41 2 2 0 0 0-1.28.4 2.4 2.4 0 0 0-.75 1.07c-.17.45-.25.92-.25 1.43 0 .51.08.99.25 1.42.16.44.4.8.75 1.06.33.27.77.4 1.29.4Zm8.33 3.91c-.56 0-1.05-.07-1.46-.22a3.1 3.1 0 0 1-1.66-1.3l.94-.66c.1.13.24.3.4.47a2 2 0 0 0 .66.47c.29.14.66.2 1.12.2.62 0 1.13-.14 1.53-.44.4-.3.6-.76.6-1.4v-1.55h-.1c-.09.14-.2.31-.37.52-.15.2-.38.38-.67.54-.3.15-.69.23-1.19.23a3.07 3.07 0 0 1-2.82-1.71 4.45 4.45 0 0 1-.42-2.03c0-.78.14-1.46.41-2.04a3.04 3.04 0 0 1 2.85-1.83c.5 0 .9.08 1.19.24.3.17.52.35.67.56l.37.5h.12v-1.2h1.13v7.85a2.7 2.7 0 0 1-.44 1.6c-.3.41-.7.72-1.2.9-.5.2-1.05.3-1.66.3Zm-.04-4.2c.47 0 .87-.1 1.2-.32a2 2 0 0 0 .74-.93c.17-.4.25-.88.25-1.45 0-.55-.08-1.03-.25-1.45a2.19 2.19 0 0 0-.73-1 1.98 1.98 0 0 0-1.2-.35 2 2 0 0 0-2 1.39 4.21 4.21 0 0 0 .01 2.81c.17.41.42.73.75.96.33.23.74.35 1.23.35Z" fill="#0F67F5"/><path fill-rule="evenodd" clip-rule="evenodd" d="M159.04 26.04h5.3v1.25h-4.05v9.42h9.42v-4.04h1.25v5.29h-11.92V26.04Zm9.78 1.25h-1.15v-1.25h3.29v3.3h-1.25v-1.16l-4.27 4.26-.88-.88 4.26-4.27Z" fill="#0F67F5"/><path d="M4.4 50.36v1H.43v-1h3.95Zm-2.8-1.83h1.16v7.28c0 .33.05.58.15.75.1.16.22.27.38.33.15.05.32.08.49.08a2.07 2.07 0 0 0 .52-.06l.23 1.05a2.37 2.37 0 0 1-.87.14c-.33 0-.66-.07-.98-.21a1.94 1.94 0 0 1-.78-.66 1.9 1.9 0 0 1-.3-1.1v-7.6Zm7.58 9.63a3.2 3.2 0 0 1-1.81-.5 3.34 3.34 0 0 1-1.22-1.37 4.66 4.66 0 0 1-.43-2.07c0-.8.14-1.49.43-2.08a3.3 3.3 0 0 1 3.03-1.88 3.28 3.28 0 0 1 3.02 1.88c.3.6.44 1.29.44 2.08s-.15 1.48-.44 2.07a3.3 3.3 0 0 1-1.2 1.38 3.3 3.3 0 0 1-1.81.49Zm0-1.05c.52 0 .95-.14 1.3-.4.33-.28.58-.63.74-1.07a4.1 4.1 0 0 0 0-2.85 2.4 2.4 0 0 0-.75-1.06 2 2 0 0 0-1.29-.41 2 2 0 0 0-1.3.4 2.4 2.4 0 0 0-.74 1.07 4.1 4.1 0 0 0-.25 1.43c0 .51.08.99.25 1.42.16.44.4.8.75 1.06a2 2 0 0 0 1.29.4Zm12.59-6.75v1h-4.12v-1h4.12ZM18.89 58v-8.69c0-.44.1-.8.3-1.1.21-.29.48-.5.8-.65a2.94 2.94 0 0 1 2.15-.02l-.33 1.01a5.68 5.68 0 0 0-.25-.07 1.5 1.5 0 0 0-.4-.05c-.4 0-.68.1-.85.3-.17.2-.25.48-.25.86V58h-1.17Zm4.52 0v-7.64h1.18V58H23.4Zm.6-8.9a.83.83 0 0 1-.6-.24.75.75 0 0 1-.23-.56c0-.22.08-.41.24-.57a.83.83 0 0 1 .59-.23c.23 0 .42.08.59.23.16.16.25.35.25.57 0 .21-.09.4-.25.56a.82.82 0 0 1-.59.23Zm3.9 4.3V58h-1.17v-7.64h1.13v1.2h.1c.18-.4.45-.7.81-.94.37-.24.84-.36 1.42-.36.51 0 .97.11 1.35.32.4.21.7.53.9.96.22.42.33.96.33 1.6V58h-1.17v-4.77c0-.6-.16-1.07-.47-1.4a1.65 1.65 0 0 0-1.28-.51c-.38 0-.71.08-1 .24-.3.16-.53.4-.7.71-.17.31-.25.7-.25 1.14Zm9.9 4.76a2.99 2.99 0 0 1-2.83-1.86 5.01 5.01 0 0 1-.41-2.1c0-.8.13-1.5.41-2.09a3.03 3.03 0 0 1 2.85-1.85c.5 0 .89.09 1.18.25.29.17.51.35.66.56l.37.5h.1v-3.75h1.17V58h-1.13v-1.17h-.14l-.37.52c-.16.21-.39.4-.68.57-.3.16-.7.24-1.18.24Zm.16-1.05a2 2 0 0 0 1.2-.37c.32-.25.56-.6.73-1.03.17-.44.26-.95.26-1.53 0-.57-.09-1.07-.25-1.5a1.96 1.96 0 0 0-1.94-1.37c-.5 0-.91.14-1.24.4-.33.24-.58.59-.75 1.02a4.1 4.1 0 0 0-.24 1.45c0 .55.08 1.04.25 1.48.17.44.42.8.75 1.06s.74.39 1.23.39Zm11.84 1.07c-.49 0-.93-.1-1.32-.27a2.3 2.3 0 0 1-.94-.8 2.26 2.26 0 0 1-.35-1.28c0-.44.09-.79.26-1.06.17-.28.4-.5.69-.65.29-.15.6-.27.95-.35.36-.08.7-.14 1.06-.18l1.13-.14c.3-.03.5-.09.64-.16.13-.08.2-.21.2-.4v-.04c0-.5-.13-.87-.4-1.14-.27-.28-.67-.41-1.2-.41-.57 0-1 .12-1.33.37-.31.24-.54.5-.67.78l-1.11-.4a2.67 2.67 0 0 1 1.89-1.63 4.54 4.54 0 0 1 2.02-.07c.32.06.63.18.93.36.3.18.55.45.75.8.2.37.3.85.3 1.46V58h-1.18v-1.03h-.06a2.3 2.3 0 0 1-1.14 1.01c-.3.13-.68.2-1.12.2Zm.17-1.05c.47 0 .86-.1 1.18-.28a1.86 1.86 0 0 0 .97-1.61v-1.08c-.05.06-.16.12-.33.17a5.55 5.55 0 0 1-1.2.21l-.5.06c-.3.04-.59.1-.85.2-.26.08-.48.21-.64.39a1 1 0 0 0-.24.7c0 .41.15.72.46.93.3.2.69.3 1.15.3Zm6.64-3.72V58h-1.17v-7.64h1.13v1.2h.1c.18-.4.45-.7.82-.94.36-.24.83-.36 1.4-.36.52 0 .98.11 1.36.32.4.21.7.53.9.96.22.42.33.96.33 1.6V58h-1.17v-4.77c0-.6-.16-1.07-.47-1.4a1.65 1.65 0 0 0-1.28-.51c-.38 0-.71.08-1 .24-.3.16-.53.4-.7.71-.17.31-.25.7-.25 1.14Zm12.43-1.34-1.06.3a1.96 1.96 0 0 0-.3-.51 1.5 1.5 0 0 0-.5-.42c-.23-.1-.5-.16-.85-.16a2 2 0 0 0-1.17.32c-.3.21-.46.48-.46.81 0 .3.1.52.32.7.21.16.54.3 1 .42l1.13.27c.68.17 1.19.42 1.52.76.34.34.5.78.5 1.31 0 .44-.12.83-.37 1.18-.25.34-.6.61-1.05.81-.44.2-.97.3-1.56.3-.78 0-1.42-.17-1.93-.5a2.25 2.25 0 0 1-.97-1.49l1.11-.28c.1.41.3.72.6.93.3.2.7.3 1.17.3.55 0 .98-.11 1.3-.34.33-.24.5-.52.5-.85 0-.26-.1-.49-.29-.66a1.78 1.78 0 0 0-.85-.41l-1.27-.3a3.04 3.04 0 0 1-1.55-.77 1.87 1.87 0 0 1-.48-1.32c0-.43.12-.81.36-1.14.25-.33.58-.6 1-.78.42-.2.9-.29 1.44-.29.76 0 1.35.17 1.78.5.43.33.74.77.93 1.31ZM72.68 58l-2.33-7.64h1.24l1.65 5.85h.08l1.63-5.85h1.25l1.61 5.83h.08l1.65-5.83h1.23L78.45 58h-1.16l-1.67-5.87h-.12L73.83 58h-1.15Zm12.59.16a3.27 3.27 0 0 1-3.13-1.86 4.68 4.68 0 0 1-.43-2.06c0-.78.14-1.47.43-2.07a3.23 3.23 0 0 1 3.01-1.9c.4 0 .79.06 1.18.2a2.92 2.92 0 0 1 1.82 1.81 5 5 0 0 1 .28 1.8v.5h-5.89v-1.01h4.7c0-.44-.09-.82-.26-1.16a1.95 1.95 0 0 0-1.83-1.1 2.23 2.23 0 0 0-2 1.26c-.18.36-.27.75-.27 1.17v.68c0 .58.1 1.07.3 1.47.2.4.48.7.84.9.36.21.77.32 1.25.32.3 0 .58-.05.83-.13a1.72 1.72 0 0 0 1.08-1.07l1.13.32a2.73 2.73 0 0 1-1.65 1.69c-.4.16-.88.24-1.4.24ZM90.2 58v-7.64h1.14v1.16h.08c.14-.38.39-.69.75-.92.37-.24.78-.36 1.24-.36a13.08 13.08 0 0 1 .61.02v1.2a3.45 3.45 0 0 0-.71-.08c-.37 0-.7.08-1 .23a1.71 1.71 0 0 0-.93 1.56V58H90.2Zm10.62-5.93-1.05.3a1.96 1.96 0 0 0-.3-.51c-.12-.17-.3-.3-.51-.42-.22-.1-.5-.16-.84-.16a2 2 0 0 0-1.17.32c-.3.21-.46.48-.46.81 0 .3.1.52.32.7.2.16.54.3.99.42l1.13.27c.69.17 1.2.42 1.53.76.33.34.5.78.5 1.31 0 .44-.12.83-.38 1.18-.25.34-.6.61-1.04.81-.45.2-.97.3-1.56.3-.78 0-1.42-.17-1.94-.5a2.25 2.25 0 0 1-.96-1.49l1.1-.28c.12.41.32.72.61.93.3.2.69.3 1.17.3.55 0 .98-.11 1.3-.34.33-.24.49-.52.49-.85a.9.9 0 0 0-.28-.66 1.78 1.78 0 0 0-.85-.41l-1.28-.3a3.04 3.04 0 0 1-1.54-.77 1.87 1.87 0 0 1-.49-1.32c0-.43.13-.81.37-1.14.24-.33.58-.6 1-.78.42-.2.9-.29 1.44-.29.75 0 1.35.17 1.78.5.43.33.74.77.92 1.31Zm9.17-1.7v.99h-3.96v-1H110Zm-2.8-1.84h1.17v7.28c0 .33.04.58.14.75.1.16.22.27.38.33.15.05.32.08.49.08l.32-.02.2-.04.24 1.05a2.41 2.41 0 0 1-.88.14c-.33 0-.66-.07-.97-.21a1.94 1.94 0 0 1-.79-.66 1.9 1.9 0 0 1-.3-1.1v-7.6Zm7.58 9.63a3.2 3.2 0 0 1-1.81-.5 3.35 3.35 0 0 1-1.22-1.37 4.66 4.66 0 0 1-.43-2.07c0-.8.15-1.49.43-2.08a3.3 3.3 0 0 1 3.03-1.88 3.28 3.28 0 0 1 3.02 1.87c.3.6.44 1.3.44 2.1a4.6 4.6 0 0 1-.44 2.06 3.3 3.3 0 0 1-1.2 1.38 3.3 3.3 0 0 1-1.82.49Zm0-1.05c.53 0 .96-.14 1.3-.4.33-.28.58-.63.75-1.07a4.25 4.25 0 0 0 0-2.85 2.4 2.4 0 0 0-.76-1.06 2 2 0 0 0-1.29-.41 2 2 0 0 0-1.3.4c-.33.28-.58.63-.74 1.07a4.1 4.1 0 0 0-.24 1.43c0 .51.08.99.24 1.42.16.44.41.8.75 1.06.34.27.77.4 1.3.4Zm12.51-6.75v1h-3.96v-1h3.96Zm-2.8-1.83h1.17v7.28c0 .33.05.58.15.75.1.16.22.27.37.33.16.05.32.08.5.08l.31-.02.2-.04.24 1.05a2.4 2.4 0 0 1-.87.14 2.4 2.4 0 0 1-.98-.21 1.93 1.93 0 0 1-.78-.66 1.83 1.83 0 0 1-.31-1.1v-7.6Zm5.9 4.88V58h-1.17V47.82h1.17v3.74h.1c.18-.4.45-.71.8-.94.37-.24.85-.36 1.45-.36.52 0 .98.1 1.37.32.39.2.7.52.9.95.23.42.34.96.34 1.62V58h-1.18v-4.77a2 2 0 0 0-.47-1.41 1.7 1.7 0 0 0-1.3-.5c-.38 0-.73.08-1.03.24-.3.16-.54.4-.72.71-.17.31-.26.7-.26 1.14Zm10.3 4.75a3.6 3.6 0 0 1-1.9-.49 3.28 3.28 0 0 1-1.23-1.37 4.68 4.68 0 0 1-.43-2.06c0-.78.15-1.47.43-2.07a3.23 3.23 0 0 1 3.01-1.9c.4 0 .8.06 1.18.2a2.92 2.92 0 0 1 1.82 1.81 5 5 0 0 1 .28 1.8v.5h-5.88v-1.01h4.7c0-.44-.1-.82-.27-1.16a1.95 1.95 0 0 0-1.83-1.1 2 2 0 0 0-1.2.36c-.35.22-.6.52-.79.9-.18.36-.27.75-.27 1.17v.68c0 .58.1 1.07.3 1.47.2.4.48.7.84.9.35.21.77.32 1.24.32.31 0 .59-.05.84-.13.25-.1.47-.23.65-.4.18-.18.32-.4.42-.67l1.14.32c-.12.38-.32.72-.6 1.01-.29.3-.63.52-1.05.68-.41.16-.88.24-1.4.24Zm8.89-.16v-7.64h1.13v1.2h.1c.16-.41.42-.73.77-.95.36-.23.78-.35 1.28-.35s.92.12 1.26.35c.34.22.6.54.79.95h.08c.2-.4.49-.71.88-.94.39-.24.86-.36 1.4-.36.69 0 1.24.22 1.68.65.43.42.65 1.08.65 1.98V58h-1.17v-5.11c0-.56-.16-.97-.47-1.2-.3-.25-.67-.37-1.08-.37-.54 0-.96.16-1.25.49-.3.32-.44.72-.44 1.22V58h-1.2v-5.23c0-.43-.14-.78-.42-1.05a1.5 1.5 0 0 0-1.09-.4c-.3 0-.59.08-.85.24-.27.16-.48.39-.64.68a2 2 0 0 0-.24.99V58h-1.17Zm15.27.16c-.7 0-1.3-.16-1.82-.5a3.35 3.35 0 0 1-1.21-1.37 4.66 4.66 0 0 1-.43-2.07c0-.8.14-1.49.43-2.08.3-.6.7-1.06 1.21-1.38.52-.33 1.13-.5 1.82-.5a3.22 3.22 0 0 1 3.02 1.88c.3.6.44 1.29.44 2.08s-.15 1.48-.44 2.07a3.3 3.3 0 0 1-1.21 1.38 3.3 3.3 0 0 1-1.81.49Zm0-1.05c.52 0 .95-.14 1.3-.4.33-.28.58-.63.74-1.07a4.08 4.08 0 0 0 0-2.85 2.4 2.4 0 0 0-.75-1.06 2 2 0 0 0-1.3-.41 2 2 0 0 0-1.28.4 2.4 2.4 0 0 0-.75 1.07c-.17.45-.25.92-.25 1.43 0 .51.08.99.25 1.42.16.44.4.8.75 1.06.33.27.76.4 1.29.4Zm10.66-5.04-1.06.3a1.95 1.95 0 0 0-.29-.51c-.13-.17-.3-.3-.52-.42a2 2 0 0 0-.84-.16 2 2 0 0 0-1.17.32c-.3.21-.46.48-.46.81 0 .3.1.52.32.7.21.16.54.3 1 .42l1.13.27c.68.17 1.2.42 1.53.76.33.34.5.78.5 1.31 0 .44-.13.83-.38 1.18-.25.34-.6.61-1.04.81-.45.2-.97.3-1.56.3-.78 0-1.43-.17-1.94-.5a2.25 2.25 0 0 1-.97-1.49l1.12-.28c.1.41.3.72.6.93.3.2.68.3 1.17.3.54 0 .98-.11 1.3-.34.32-.24.48-.52.48-.85a.88.88 0 0 0-.27-.66 1.78 1.78 0 0 0-.86-.41l-1.27-.3a3.04 3.04 0 0 1-1.54-.77 1.87 1.87 0 0 1-.49-1.32c0-.43.12-.81.36-1.14.25-.33.58-.6 1-.78.43-.2.9-.29 1.44-.29.76 0 1.35.17 1.78.5.44.33.75.77.93 1.31Zm5.23-1.7v.99h-3.96v-1h3.96Zm-2.8-1.84h1.16v7.28c0 .33.05.58.15.75.1.16.22.27.38.33.15.05.32.08.49.08l.32-.02.2-.04.23 1.05a2.41 2.41 0 0 1-.87.14c-.33 0-.66-.07-.97-.21a1.94 1.94 0 0 1-.8-.66 1.9 1.9 0 0 1-.3-1.1v-7.6Zm11.9 1.83v1h-4.12v-1h4.12ZM186.95 58v-8.69c0-.44.1-.8.31-1.1.2-.29.48-.5.8-.65a2.94 2.94 0 0 1 2.15-.02l-.33 1.01a5.4 5.4 0 0 0-.25-.07c-.1-.03-.24-.05-.4-.05-.4 0-.68.1-.85.3-.17.2-.25.48-.25.86V58h-1.18Zm4.53 0v-7.64h1.14v1.16h.07c.14-.38.4-.69.76-.92.37-.24.78-.36 1.23-.36a13.07 13.07 0 0 1 .62.02v1.2a3.5 3.5 0 0 0-.72-.08c-.37 0-.7.08-.99.23a1.71 1.71 0 0 0-.94 1.56V58h-1.17Zm8.18.16a3.6 3.6 0 0 1-1.9-.49 3.28 3.28 0 0 1-1.23-1.37 4.68 4.68 0 0 1-.43-2.06c0-.78.14-1.47.43-2.07a3.23 3.23 0 0 1 3.01-1.9c.4 0 .8.06 1.18.2a2.92 2.92 0 0 1 1.82 1.81 5 5 0 0 1 .28 1.8v.5h-5.88v-1.01h4.69c0-.44-.09-.82-.26-1.16a1.95 1.95 0 0 0-1.83-1.1c-.47 0-.87.12-1.21.36-.34.22-.6.52-.78.9-.19.36-.28.75-.28 1.17v.68c0 .58.1 1.07.3 1.47.2.4.49.7.84.9.36.21.78.32 1.25.32.3 0 .59-.05.84-.13.25-.1.47-.23.65-.4.18-.18.32-.4.42-.67l1.13.32a2.5 2.5 0 0 1-.6 1.01c-.28.3-.63.52-1.04.68-.42.16-.88.24-1.4.24Zm10.16 2.7v-4.03h-.1l-.37.52c-.16.21-.39.4-.68.57-.3.16-.69.24-1.18.24a2.99 2.99 0 0 1-2.83-1.86 5.01 5.01 0 0 1-.41-2.1 5 5 0 0 1 .41-2.09 3.03 3.03 0 0 1 2.85-1.85c.5 0 .89.09 1.18.25.29.17.51.35.66.56l.37.5h.14v-1.2h1.13v10.5h-1.17Zm-2.17-3.75a2 2 0 0 0 1.2-.37c.32-.25.56-.6.73-1.03.17-.44.26-.95.26-1.53 0-.57-.09-1.07-.25-1.5a1.96 1.96 0 0 0-1.94-1.37c-.5 0-.91.14-1.24.4-.33.24-.58.59-.74 1.02a4.1 4.1 0 0 0-.25 1.45c0 .55.09 1.04.25 1.48.17.44.42.8.75 1.06s.74.39 1.23.39Zm10.3-2.23v-4.52h1.17V58h-1.17v-1.3h-.08a2.5 2.5 0 0 1-.83 1c-.38.27-.86.4-1.44.4-.47 0-.9-.1-1.27-.31a2.2 2.2 0 0 1-.87-.96 3.63 3.63 0 0 1-.32-1.61v-4.86h1.17v4.78c0 .55.16 1 .47 1.33.31.33.72.5 1.2.5a2 2 0 0 0 1.97-2.1Zm6.53 3.28a3.26 3.26 0 0 1-3.13-1.86 4.68 4.68 0 0 1-.44-2.06c0-.78.15-1.47.43-2.07.3-.6.7-1.06 1.2-1.4a3.62 3.62 0 0 1 2.99-.3 2.92 2.92 0 0 1 1.82 1.81 5 5 0 0 1 .29 1.8v.5h-5.89v-1.01h4.7c0-.44-.1-.82-.26-1.16a1.95 1.95 0 0 0-1.84-1.1 2 2 0 0 0-1.2.36c-.35.22-.6.52-.79.9-.18.36-.27.75-.27 1.17v.68c0 .58.1 1.07.3 1.47.2.4.48.7.84.9.36.21.77.32 1.25.32.3 0 .58-.05.83-.13.25-.1.47-.23.65-.4.18-.18.32-.4.42-.67l1.14.32a2.5 2.5 0 0 1-.6 1.01c-.29.3-.63.52-1.05.68-.41.16-.88.24-1.4.24Zm6.12-4.75V58h-1.18v-7.64h1.14v1.2h.1c.17-.4.44-.7.81-.94.36-.24.84-.36 1.41-.36.52 0 .97.11 1.36.32.39.21.69.53.9.96.22.42.33.96.33 1.6V58h-1.18v-4.77c0-.6-.15-1.07-.46-1.4a1.67 1.67 0 0 0-1.29-.51c-.37 0-.7.08-1 .24-.3.16-.52.4-.7.71-.16.31-.25.7-.25 1.14Zm10.33-3.05v1h-3.96v-1h3.96Zm-2.8-1.83h1.17v7.28c0 .33.05.58.14.75.1.16.23.27.38.33.16.05.32.08.5.08l.31-.02.2-.04.24 1.05a2.33 2.33 0 0 1-.87.14c-.33 0-.66-.07-.98-.21a1.94 1.94 0 0 1-.78-.66 1.9 1.9 0 0 1-.31-1.1v-7.6Zm5.9-.71V58h-1.17V47.82h1.17Zm2.9 13.04a2.57 2.57 0 0 1-.85-.14l.3-1.03c.29.07.54.1.76.08a.9.9 0 0 0 .58-.3c.17-.17.33-.45.47-.83l.22-.6-2.82-7.68h1.27l2.1 6.09h.09l2.1-6.09h1.28l-3.24 8.75c-.15.4-.33.72-.55.98a1.9 1.9 0 0 1-.75.58c-.28.13-.6.2-.95.2ZM3.34 80.18c-.5 0-.93-.1-1.33-.27-.4-.19-.7-.46-.94-.8a2.26 2.26 0 0 1-.34-1.28c0-.44.08-.79.25-1.06.18-.28.4-.5.7-.65.28-.15.6-.27.95-.35.35-.08.7-.14 1.06-.18l1.13-.14c.29-.03.5-.09.63-.16.14-.08.2-.21.2-.4v-.04c0-.5-.13-.87-.4-1.14-.26-.28-.66-.41-1.2-.41a2.1 2.1 0 0 0-1.99 1.15l-1.12-.4a2.67 2.67 0 0 1 1.9-1.63 4.54 4.54 0 0 1 2.01-.07c.32.06.63.18.93.36.3.18.55.45.75.8.2.37.3.85.3 1.46V80H5.65v-1.03h-.06a2.3 2.3 0 0 1-1.14 1.01c-.3.13-.68.2-1.13.2Zm.17-1.06c.46 0 .86-.09 1.17-.27a1.86 1.86 0 0 0 .98-1.61v-1.08c-.05.06-.16.12-.33.17a5.55 5.55 0 0 1-1.2.21l-.5.06c-.3.04-.6.1-.86.2-.26.08-.47.21-.63.39a1 1 0 0 0-.24.7c0 .41.15.72.45.93.3.2.7.3 1.16.3Zm10.87-5.05-1.05.3a1.95 1.95 0 0 0-.3-.51c-.12-.17-.3-.3-.51-.42-.22-.1-.5-.16-.84-.16a2 2 0 0 0-1.17.32c-.3.21-.46.48-.46.81 0 .3.1.52.31.7.22.16.55.3 1 .42l1.13.27c.69.17 1.2.42 1.53.76.33.34.5.78.5 1.31 0 .44-.13.83-.38 1.18-.25.34-.6.61-1.04.81-.45.2-.97.3-1.56.3-.78 0-1.43-.17-1.94-.5a2.25 2.25 0 0 1-.97-1.49l1.12-.28c.1.41.3.72.6.93.3.2.69.3 1.17.3.54 0 .98-.11 1.3-.34.33-.24.49-.52.49-.85a.9.9 0 0 0-.28-.66 1.78 1.78 0 0 0-.86-.41l-1.27-.3a3.04 3.04 0 0 1-1.54-.77 1.9 1.9 0 0 1-.49-1.32c0-.43.12-.81.37-1.14.24-.33.57-.6 1-.78.42-.2.9-.29 1.44-.29.75 0 1.35.17 1.78.5.43.33.74.77.92 1.31Zm3 3.15-.02-1.46h.24l3.34-3.4h1.45l-3.56 3.6h-.1l-1.35 1.26ZM16.27 80V69.82h1.18V80h-1.17Zm4.86 0-2.98-3.78.83-.81L22.62 80h-1.5Zm5.65.16a3.27 3.27 0 0 1-3.13-1.86 4.68 4.68 0 0 1-.43-2.06c0-.78.14-1.47.43-2.07a3.23 3.23 0 0 1 3.01-1.9c.4 0 .8.06 1.18.2a2.92 2.92 0 0 1 1.82 1.81 5 5 0 0 1 .28 1.8v.5h-5.89v-1.01h4.7c0-.44-.09-.82-.26-1.16a1.95 1.95 0 0 0-1.83-1.1c-.47 0-.87.12-1.21.36-.34.22-.6.52-.78.9-.19.36-.28.75-.28 1.17v.68c0 .58.1 1.07.3 1.47.2.4.48.7.84.9a2.68 2.68 0 0 0 2.08.19c.26-.1.47-.23.66-.4.18-.18.32-.4.42-.67l1.13.32c-.12.38-.32.72-.6 1.01-.28.3-.63.52-1.04.68-.42.16-.88.24-1.4.24Zm7.83 0a2.99 2.99 0 0 1-2.83-1.86 5.01 5.01 0 0 1-.41-2.1 5 5 0 0 1 .41-2.09 3.03 3.03 0 0 1 2.85-1.85c.5 0 .89.09 1.18.25.29.17.51.35.66.56l.37.5h.1v-3.75h1.17V80h-1.13v-1.17h-.14l-.37.52c-.16.21-.39.4-.68.57-.3.16-.69.24-1.18.24Zm.16-1.05a2 2 0 0 0 1.2-.37c.32-.25.56-.6.73-1.03.17-.44.26-.95.26-1.53 0-.57-.09-1.07-.25-1.5a1.96 1.96 0 0 0-1.94-1.37c-.5 0-.91.14-1.24.4-.33.24-.58.59-.74 1.02a4.1 4.1 0 0 0-.25 1.45c0 .55.08 1.04.25 1.48.17.44.42.8.75 1.06s.74.39 1.23.39Zm14.8 3.75v-4.03h-.1c-.09.14-.2.31-.37.52-.16.21-.38.4-.68.57-.3.16-.69.24-1.18.24a2.99 2.99 0 0 1-2.83-1.86 5.01 5.01 0 0 1-.4-2.1 5 5 0 0 1 .4-2.09 3.03 3.03 0 0 1 2.85-1.85 2.12 2.12 0 0 1 1.85.81l.36.5h.14v-1.2h1.13v10.5h-1.17Zm-2.17-3.75a2 2 0 0 0 1.2-.37c.32-.25.57-.6.74-1.03.16-.44.25-.95.25-1.53 0-.57-.08-1.07-.25-1.5a1.96 1.96 0 0 0-1.94-1.37c-.5 0-.91.14-1.24.4-.33.24-.58.59-.74 1.02a4.1 4.1 0 0 0-.25 1.45c0 .55.09 1.04.25 1.48.17.44.42.8.75 1.06s.74.39 1.23.39Zm10.3-2.23v-4.52h1.18V80H57.7v-1.3h-.08a2.5 2.5 0 0 1-.83 1c-.38.27-.86.4-1.43.4-.48 0-.9-.1-1.28-.31a2.2 2.2 0 0 1-.87-.96 3.62 3.62 0 0 1-.32-1.61v-4.86h1.17v4.78c0 .55.16 1 .47 1.33.32.33.72.5 1.2.5a2 2 0 0 0 1.97-2.1Zm6.53 3.28a3.27 3.27 0 0 1-3.13-1.86 4.68 4.68 0 0 1-.43-2.06c0-.78.14-1.47.42-2.07.3-.6.7-1.06 1.2-1.4a3.62 3.62 0 0 1 2.99-.3 2.92 2.92 0 0 1 1.83 1.81 5 5 0 0 1 .28 1.8v.5H61.5v-1.01h4.7c0-.44-.1-.82-.26-1.16a1.95 1.95 0 0 0-1.83-1.1 2.2 2.2 0 0 0-2 1.26c-.18.36-.27.75-.27 1.17v.68c0 .58.1 1.07.3 1.47.2.4.48.7.84.9.36.21.77.32 1.25.32.3 0 .58-.05.83-.13a1.72 1.72 0 0 0 1.08-1.07l1.13.32a2.73 2.73 0 0 1-1.65 1.69c-.41.16-.88.24-1.4.24Zm10.35-6.09-1.05.3a1.96 1.96 0 0 0-.3-.51c-.12-.17-.3-.3-.51-.42-.22-.1-.5-.16-.84-.16a2 2 0 0 0-1.17.32c-.3.21-.46.48-.46.81 0 .3.1.52.32.7.2.16.54.3.99.42l1.13.27c.69.17 1.2.42 1.53.76.33.34.5.78.5 1.31 0 .44-.12.83-.38 1.18-.24.34-.6.61-1.04.81-.45.2-.97.3-1.56.3-.78 0-1.42-.17-1.94-.5a2.25 2.25 0 0 1-.96-1.49l1.1-.28c.12.41.32.72.61.93.3.2.69.3 1.17.3.55 0 .98-.11 1.3-.34.33-.24.49-.52.49-.85a.9.9 0 0 0-.28-.66 1.78 1.78 0 0 0-.85-.41l-1.28-.3a3.04 3.04 0 0 1-1.54-.77 1.9 1.9 0 0 1-.49-1.32c0-.43.13-.81.37-1.14.24-.33.58-.6 1-.78.42-.2.9-.29 1.44-.29.75 0 1.35.17 1.78.5.43.33.74.77.92 1.31Zm5.23-1.7v.99h-3.96v-1h3.96ZM77 70.52h1.17v7.28c0 .33.05.58.14.75.1.16.23.27.38.33.16.05.32.08.5.08a2.08 2.08 0 0 0 .51-.06l.24 1.05a2.38 2.38 0 0 1-.88.14c-.33 0-.65-.07-.97-.21a1.94 1.94 0 0 1-.79-.66 1.9 1.9 0 0 1-.3-1.1v-7.6ZM81.56 80v-7.64h1.18V80h-1.18Zm.6-8.9a.83.83 0 0 1-.6-.24.75.75 0 0 1-.23-.56c0-.22.08-.41.24-.57a.83.83 0 0 1 .6-.23c.22 0 .41.08.58.23.16.16.25.35.25.57 0 .21-.09.4-.25.56a.82.82 0 0 1-.59.23ZM88 80.15c-.7 0-1.3-.16-1.82-.5a3.34 3.34 0 0 1-1.2-1.37 4.66 4.66 0 0 1-.44-2.07c0-.8.14-1.49.43-2.08.3-.6.7-1.06 1.21-1.38.52-.33 1.13-.5 1.82-.5a3.3 3.3 0 0 1 3.02 1.87c.3.6.44 1.3.44 2.1 0 .78-.15 1.47-.44 2.06a3.3 3.3 0 0 1-1.21 1.38 3.3 3.3 0 0 1-1.81.49Zm0-1.05c.52 0 .95-.14 1.3-.4.33-.28.58-.63.74-1.07a4.1 4.1 0 0 0 0-2.85 2.4 2.4 0 0 0-.75-1.06 2 2 0 0 0-1.3-.41 2 2 0 0 0-1.28.4 2.4 2.4 0 0 0-.75 1.07 4.1 4.1 0 0 0-.25 1.43c0 .51.08.99.25 1.42.16.44.4.8.75 1.06.33.27.76.4 1.29.4Zm6.42-3.7V80h-1.17v-7.64h1.13v1.2h.1c.18-.4.45-.7.82-.94a2.5 2.5 0 0 1 1.41-.36c.52 0 .97.11 1.36.32.38.21.69.53.9.96.22.42.33.96.33 1.6V80h-1.18v-4.77c0-.6-.15-1.07-.47-1.4-.3-.34-.73-.51-1.28-.51-.37 0-.7.08-1 .24-.3.16-.52.4-.7.71-.16.31-.25.7-.25 1.14Zm12.43-1.34-1.06.3a1.95 1.95 0 0 0-.29-.51c-.13-.17-.3-.3-.52-.42-.22-.1-.5-.16-.84-.16a2 2 0 0 0-1.17.32c-.3.21-.46.48-.46.81 0 .3.1.52.32.7.21.16.55.3 1 .42l1.13.27c.68.17 1.2.42 1.53.76.33.34.5.78.5 1.31 0 .44-.13.83-.38 1.18-.25.34-.6.61-1.04.81-.45.2-.97.3-1.57.3a3.5 3.5 0 0 1-1.93-.5 2.25 2.25 0 0 1-.97-1.49l1.12-.28c.1.41.3.72.6.93.3.2.68.3 1.17.3.54 0 .98-.11 1.3-.34.32-.24.48-.52.48-.85a.88.88 0 0 0-.27-.66 1.78 1.78 0 0 0-.86-.41l-1.27-.3a3.04 3.04 0 0 1-1.54-.77c-.33-.35-.49-.8-.49-1.32 0-.43.12-.81.36-1.14.25-.33.58-.6 1-.78.43-.2.9-.29 1.44-.29.76 0 1.35.17 1.78.5.44.33.75.77.93 1.31Z" fill="#1F1F1F"/><path d="M113.23 79V68.82h6.1v1.1h-4.86v3.43h4.41v1.1h-4.41V79h-1.24Zm7.37 0h-1.3l3.74-10.18h1.27L128.06 79h-1.29l-3.04-8.57h-.08L120.6 79Zm.47-3.98h5.21v1.1h-5.2v-1.1Zm11.79.8h1.35l1.13 1.49.3.4 1.7 2.24h-1.36l-1.11-1.49-.28-.37-1.73-2.27Zm4.9-1.91c0 1.07-.2 2-.59 2.78a4.27 4.27 0 0 1-3.91 2.45 4.26 4.26 0 0 1-3.91-2.45 6.2 6.2 0 0 1-.59-2.78c0-1.07.2-2 .59-2.78a4.27 4.27 0 0 1 3.91-2.45 4.27 4.27 0 0 1 3.91 2.45c.39.78.58 1.7.58 2.78Zm-1.2 0c0-.88-.15-1.63-.44-2.23a3.08 3.08 0 0 0-2.86-1.84 3.1 3.1 0 0 0-1.68.46c-.5.31-.9.77-1.19 1.38-.29.6-.43 1.35-.43 2.23 0 .88.14 1.62.43 2.23a3.1 3.1 0 0 0 2.86 1.84 3.08 3.08 0 0 0 2.87-1.84c.3-.6.44-1.35.44-2.23Z" fill="#0F67F5"/><path fill-rule="evenodd" clip-rule="evenodd" d="M149.04 68.04h5.3v1.25h-4.05v9.42h9.42v-4.04h1.25v5.29h-11.92V68.04Zm9.78 1.25h-1.15v-1.25h3.29v3.3h-1.25v-1.16l-4.27 4.26-.88-.88 4.26-4.27Z" fill="#0F67F5"/></svg>