<svg width="672" height="624" fill="none" xmlns="http://www.w3.org/2000/svg"><path fill="#F6F6F6" d="M0 .83h672v623.03H0z"/><path fill="#fff" d="M80.86 32.84h510.27v559.02H80.86z"/><path d="M109.86 99.3V79.57h-7.05v-4.02h18.87v4.02h-7.03V99.3h-4.8Zm19.44-23.75v8.73a6.71 6.71 0 0 1 5.26-2.57c1.05 0 2 .2 2.84.58a4.73 4.73 0 0 1 2.77 3.5c.16.74.24 1.88.24 3.42v10.1h-4.55v-9.1c0-1.8-.09-2.94-.26-3.43a2.2 2.2 0 0 0-.92-1.15c-.44-.3-.98-.44-1.64-.44-.76 0-1.43.19-2.03.55a3.2 3.2 0 0 0-1.3 1.67 9.77 9.77 0 0 0-.41 3.27v8.62h-4.56V75.55h4.56ZM155 93.83l4.54.76a7.46 7.46 0 0 1-2.77 3.8 8.11 8.11 0 0 1-4.71 1.3c-3 0-5.2-.98-6.64-2.93a9.85 9.85 0 0 1-1.7-5.93c0-2.85.74-5.08 2.23-6.7a7.35 7.35 0 0 1 5.65-2.42c2.56 0 4.58.85 6.06 2.54 1.48 1.69 2.19 4.27 2.13 7.76h-11.4c.02 1.35.39 2.4 1.1 3.16.7.75 1.57 1.12 2.62 1.12.7 0 1.3-.2 1.8-.58a3.6 3.6 0 0 0 1.1-1.88Zm.27-4.6c-.04-1.32-.38-2.32-1.03-3a3.12 3.12 0 0 0-2.36-1.04c-1 0-1.81.36-2.46 1.09a4.2 4.2 0 0 0-.96 2.95h6.8Zm17.13-7.13h4.2v2.35c1.5-1.83 3.29-2.74 5.36-2.74 1.1 0 2.06.23 2.87.68a5.22 5.22 0 0 1 2 2.06 7.95 7.95 0 0 1 2.44-2.06 6 6 0 0 1 2.8-.68 6.2 6.2 0 0 1 3.21.78c.88.5 1.53 1.25 1.96 2.25.31.73.47 1.92.47 3.56v11h-4.55v-9.83c0-1.7-.16-2.8-.47-3.3-.42-.65-1.07-.98-1.95-.98a3.14 3.14 0 0 0-3 2.3 11.8 11.8 0 0 0-.38 3.55v8.26h-4.55v-9.43c0-1.67-.09-2.75-.25-3.24a2.05 2.05 0 0 0-.76-1.08c-.33-.24-.8-.36-1.38-.36a3.13 3.13 0 0 0-3.1 2.21c-.24.7-.36 1.9-.36 3.54v8.36h-4.56V82.1Zm33.26 5.25-4.13-.75a6.43 6.43 0 0 1 2.4-3.7c1.13-.8 2.82-1.2 5.06-1.2 2.02 0 3.54.25 4.53.74 1 .47 1.7 1.08 2.1 1.83.4.73.6 2.09.6 4.06l-.04 5.32c0 1.51.07 2.63.2 3.35.16.71.44 1.48.84 2.3h-4.5a16.37 16.37 0 0 1-.6-1.88 8.22 8.22 0 0 1-2.5 1.7c-.89.38-1.83.57-2.84.57a5.9 5.9 0 0 1-4.2-1.44 4.8 4.8 0 0 1-1.52-3.65c0-.97.23-1.83.7-2.59a4.49 4.49 0 0 1 1.94-1.75c.85-.4 2.06-.76 3.63-1.07 2.13-.4 3.6-.77 4.42-1.11v-.46c0-.87-.21-1.5-.64-1.86-.44-.38-1.25-.57-2.45-.57-.8 0-1.44.16-1.9.49-.45.31-.81.87-1.1 1.67Zm6.1 3.69c-.59.2-1.51.43-2.77.7a8.35 8.35 0 0 0-2.48.8c-.6.41-.9.95-.9 1.6 0 .63.24 1.18.72 1.65.47.46 1.08.7 1.81.7.82 0 1.6-.28 2.35-.82.55-.4.91-.9 1.09-1.5.12-.4.17-1.13.17-2.22v-.91Zm8.97-11.28v-4.2h4.55v4.2h-4.55Zm0 19.54V82.1h4.55v17.2h-4.55Zm24.88 0h-4.55v-8.78c0-1.86-.1-3.05-.29-3.6a2.51 2.51 0 0 0-2.53-1.73c-.79 0-1.5.22-2.12.65-.63.43-1.06 1-1.3 1.72-.22.71-.34 2.03-.34 3.95v7.8h-4.55V82.1h4.23v2.53a6.89 6.89 0 0 1 5.67-2.92c1 0 1.92.18 2.75.55a4.49 4.49 0 0 1 2.77 3.29c.18.71.26 1.73.26 3.06v10.7Zm18.4-23.75v8.73a6.71 6.71 0 0 1 5.27-2.57c1.05 0 2 .2 2.84.58a4.73 4.73 0 0 1 2.77 3.5c.16.74.24 1.88.24 3.42v10.1h-4.55v-9.1c0-1.8-.09-2.94-.26-3.43a2.2 2.2 0 0 0-.93-1.15c-.43-.3-.97-.44-1.63-.44-.76 0-1.43.19-2.03.55a3.2 3.2 0 0 0-1.3 1.67 9.77 9.77 0 0 0-.41 3.27v8.62h-4.56V75.55h4.56Zm25.72 18.28 4.53.76a7.46 7.46 0 0 1-2.77 3.8 8.11 8.11 0 0 1-4.71 1.3c-3 0-5.2-.98-6.64-2.93a9.85 9.85 0 0 1-1.7-5.93c0-2.85.74-5.08 2.23-6.7a7.35 7.35 0 0 1 5.65-2.42c2.56 0 4.58.85 6.06 2.54 1.48 1.69 2.19 4.27 2.13 7.76H283.1c.03 1.35.4 2.4 1.1 3.16.7.75 1.58 1.12 2.63 1.12.7 0 1.3-.2 1.8-.58a3.6 3.6 0 0 0 1.1-1.88Zm.25-4.6c-.03-1.32-.37-2.32-1.02-3a3.12 3.12 0 0 0-2.36-1.04c-1 0-1.81.36-2.46 1.09a4.2 4.2 0 0 0-.96 2.95h6.8Zm11.65-1.88-4.13-.75a6.44 6.44 0 0 1 2.4-3.7c1.13-.8 2.82-1.2 5.05-1.2 2.04 0 3.55.25 4.54.74 1 .47 1.69 1.08 2.09 1.83.41.73.62 2.09.62 4.06l-.05 5.32c0 1.51.07 2.63.2 3.35.16.71.43 1.48.83 2.3h-4.5a16.77 16.77 0 0 1-.6-1.88 8.2 8.2 0 0 1-2.5 1.7c-.88.38-1.82.57-2.83.57a5.9 5.9 0 0 1-4.2-1.44 4.8 4.8 0 0 1-1.52-3.65c0-.97.24-1.83.7-2.59a4.49 4.49 0 0 1 1.94-1.75c.84-.4 2.06-.76 3.63-1.07 2.13-.4 3.6-.77 4.42-1.11v-.46c0-.87-.21-1.5-.64-1.86-.44-.38-1.25-.57-2.45-.57a3.2 3.2 0 0 0-1.9.49c-.45.31-.82.87-1.1 1.67Zm6.1 3.69c-.59.2-1.51.43-2.78.7a8.34 8.34 0 0 0-2.47.8c-.6.41-.9.95-.9 1.6 0 .63.24 1.18.72 1.65.47.46 1.08.7 1.81.7.82 0 1.6-.28 2.35-.82.55-.4.91-.9 1.09-1.5.12-.4.17-1.13.17-2.22v-.91Zm24.75 8.26h-4.23v-2.52a6.89 6.89 0 0 1-2.5 2.2c-.94.47-1.9.71-2.88.71-1.98 0-3.67-.8-5.08-2.38-1.4-1.6-2.11-3.82-2.11-6.67 0-2.92.68-5.13 2.06-6.65a6.7 6.7 0 0 1 5.2-2.28c1.92 0 3.58.8 4.99 2.4v-8.56h4.55V99.3Zm-12.15-8.97c0 1.83.25 3.16.76 3.98a3.44 3.44 0 0 0 3.08 1.78c1.04 0 1.94-.44 2.67-1.32.74-.9 1.1-2.23 1.1-4 0-1.98-.35-3.4-1.07-4.27a3.38 3.38 0 0 0-2.74-1.3c-1.07 0-1.98.42-2.72 1.29-.72.85-1.08 2.13-1.08 3.84Zm16.65 8.97V75.55h4.55V99.3h-4.55Zm9.24-19.53v-4.22h4.55v4.22h-4.55Zm0 19.53V82.1h4.55v17.2h-4.55Zm24.88 0h-4.55v-8.78c0-1.86-.1-3.05-.3-3.6a2.5 2.5 0 0 0-.95-1.27 2.7 2.7 0 0 0-1.57-.46c-.79 0-1.5.22-2.12.65a3.3 3.3 0 0 0-1.3 1.72c-.23.71-.34 2.03-.34 3.95v7.8h-4.55V82.1h4.23v2.53a6.89 6.89 0 0 1 5.67-2.92c1 0 1.92.18 2.75.55a4.5 4.5 0 0 1 2.77 3.29c.17.71.26 1.73.26 3.06v10.7Zm14.6-5.47 4.53.76a7.46 7.46 0 0 1-2.77 3.8 8.11 8.11 0 0 1-4.71 1.3c-3 0-5.2-.98-6.64-2.93a9.85 9.85 0 0 1-1.7-5.93c0-2.85.74-5.08 2.23-6.7a7.35 7.35 0 0 1 5.65-2.42c2.56 0 4.58.85 6.06 2.54 1.48 1.69 2.19 4.27 2.12 7.76h-11.4c.03 1.35.4 2.4 1.1 3.16.7.75 1.58 1.12 2.63 1.12.7 0 1.3-.2 1.8-.58a3.6 3.6 0 0 0 1.1-1.88Zm.25-4.6c-.03-1.32-.37-2.32-1.02-3a3.12 3.12 0 0 0-2.36-1.04c-1 0-1.82.36-2.46 1.09a4.2 4.2 0 0 0-.96 2.95h6.8Zm25.03 17.05h-3.12a31.5 31.5 0 0 1-3.78-7.77 24.53 24.53 0 0 1 .3-16.67 32.16 32.16 0 0 1 3.54-6.7h3.11a49.72 49.72 0 0 0-3.06 8.37 31.13 31.13 0 0 0-.34 12.73c.33 1.86.79 3.62 1.36 5.3a55.1 55.1 0 0 0 2 4.74Zm3.55-6.98V75.55h4.8v9.35h9.4v-9.35h4.79V99.3h-4.8V88.92h-9.4V99.3h-4.79Zm34.6 0h-4.55V82.15a15.7 15.7 0 0 1-5.88 3.45v-4.13a13.25 13.25 0 0 0 3.87-2.2 8.45 8.45 0 0 0 2.87-3.81h3.7V99.3Zm6.53 6.98a56.1 56.1 0 0 0 1.9-4.42 36.96 36.96 0 0 0 1.72-7.35 31.13 31.13 0 0 0-.6-11 48.43 48.43 0 0 0-3.05-8.36h3.1a29.53 29.53 0 0 1 3.79 7.39c.9 2.6 1.36 5.24 1.36 7.92 0 2.25-.36 4.67-1.07 7.25a30.52 30.52 0 0 1-4 8.57h-3.15Zm-352.54 29.56v-9.97h1.32v8.8h4.91v1.18h-6.23Zm7.2-3.6c0-1.35.37-2.34 1.11-2.98.62-.54 1.38-.8 2.27-.8 1 0 1.81.32 2.44.97.63.65.95 1.55.95 2.7 0 .93-.14 1.66-.43 2.2-.27.53-.68.94-1.21 1.24a3.5 3.5 0 0 1-1.75.44 3.26 3.26 0 0 1-2.45-.97c-.62-.65-.93-1.59-.93-2.8Zm1.26 0c0 .92.2 1.61.6 2.07.4.46.91.7 1.52.7s1.12-.24 1.52-.7c.4-.47.6-1.17.6-2.12 0-.9-.2-1.57-.6-2.03-.4-.46-.91-.7-1.52-.7-.6 0-1.12.24-1.52.7-.4.46-.6 1.15-.6 2.07Zm6.94 3.6v-7.22h1.1v1.1a3 3 0 0 1 .77-1.02c.24-.16.5-.24.8-.24.4 0 .83.13 1.25.39l-.42 1.14c-.3-.18-.6-.27-.9-.27-.27 0-.5.08-.72.25a1.3 1.3 0 0 0-.46.66 5 5 0 0 0-.2 1.43v3.78h-1.22Zm9.6-2.32 1.26.15c-.2.74-.57 1.32-1.1 1.73-.55.4-1.24.6-2.08.6a3.3 3.3 0 0 1-2.51-.97 3.83 3.83 0 0 1-.93-2.74c0-1.21.31-2.16.94-2.83.63-.67 1.44-1 2.44-1 .96 0 1.75.32 2.36.98.62.66.92 1.59.92 2.78v.32h-5.4c.05.8.28 1.4.68 1.83a2 2 0 0 0 1.51.63c.45 0 .83-.12 1.15-.35.32-.24.57-.62.76-1.13Zm-4.03-1.98h4.04c-.06-.61-.2-1.07-.46-1.37-.4-.47-.9-.7-1.52-.7-.56 0-1.04.18-1.42.56-.38.37-.6.88-.64 1.5Zm6.84 4.3v-7.22h1.1v1.01a2.55 2.55 0 0 1 2.18-1.17c.54 0 .97.1 1.31.33.35.22.6.53.73.93a2.6 2.6 0 0 1 2.24-1.26c.71 0 1.26.2 1.65.6.38.39.58 1 .58 1.82v4.97h-1.22v-4.56c0-.49-.04-.84-.12-1.05a1 1 0 0 0-.43-.53 1.7 1.7 0 0 0-2 .31c-.34.34-.5.88-.5 1.63v4.2h-1.23v-4.7c0-.54-.1-.95-.3-1.22-.2-.28-.53-.41-.98-.41-.34 0-.66.09-.96.27-.29.18-.5.45-.63.8-.13.34-.2.85-.2 1.5v3.75h-1.22Zm15.49-8.56v-1.41h1.22v1.4h-1.22Zm0 8.56v-7.22h1.22v7.22h-1.22Zm3.1 2.77v-10h1.11v.95a2.42 2.42 0 0 1 2.1-1.1c.61 0 1.16.15 1.63.47.47.32.83.77 1.07 1.35.24.57.36 1.2.36 1.9 0 .74-.14 1.4-.4 2a3 3 0 0 1-2.75 1.83c-.41 0-.78-.09-1.1-.26a2.51 2.51 0 0 1-.8-.65v3.51h-1.23Zm1.1-6.34c0 .93.2 1.62.57 2.06.38.45.83.67 1.37.67.54 0 1-.23 1.4-.69.38-.46.58-1.17.58-2.14 0-.92-.2-1.61-.58-2.07a1.7 1.7 0 0 0-1.35-.69c-.52 0-.98.25-1.39.74-.4.48-.6 1.2-.6 2.12Zm6.16 1.42 1.21-.2c.07.5.26.86.57 1.12a2 2 0 0 0 1.3.4c.57 0 .98-.12 1.25-.35a1 1 0 0 0 .41-.8c0-.29-.12-.5-.36-.66a5.07 5.07 0 0 0-1.25-.42 11.6 11.6 0 0 1-1.87-.58c-.34-.17-.6-.4-.79-.69a1.98 1.98 0 0 1-.05-1.87c.15-.27.35-.5.6-.68.2-.14.46-.26.78-.36a4.27 4.27 0 0 1 2.56.1c.43.16.74.39.95.67.2.27.34.65.42 1.11l-1.2.17a1.3 1.3 0 0 0-.47-.87 1.72 1.72 0 0 0-1.1-.32c-.57 0-.97.1-1.21.28-.24.19-.36.4-.36.66 0 .15.05.3.15.42.1.14.25.24.47.33.12.04.48.15 1.08.31.87.23 1.47.42 1.81.57.34.15.61.36.81.64.2.29.3.64.3 1.05 0 .41-.13.8-.37 1.16-.23.36-.58.64-1.03.84-.44.19-.95.29-1.52.29a3.4 3.4 0 0 1-2.15-.59c-.49-.39-.8-.97-.94-1.73Zm12.2 2.16v-1.07a2.64 2.64 0 0 1-2.3 1.23c-.43 0-.83-.08-1.2-.25a2.01 2.01 0 0 1-.82-.6c-.18-.26-.3-.56-.37-.92a6.2 6.2 0 0 1-.08-1.14v-4.48h1.23v4c0 .65.02 1.08.07 1.3.08.32.24.58.49.76.25.18.56.27.93.27.36 0 .7-.09 1.03-.28.32-.19.55-.44.68-.76.14-.33.2-.8.2-1.42v-3.87h1.23v7.22h-1.1Zm3.02 0v-7.23h1.09v1.01a2.55 2.55 0 0 1 2.2-1.17c.53 0 .96.1 1.3.33.35.22.6.53.73.93a2.6 2.6 0 0 1 2.23-1.26c.72 0 1.27.2 1.66.6.38.39.58 1 .58 1.82v4.97h-1.22v-4.56c0-.49-.04-.84-.13-1.05a1 1 0 0 0-.42-.53 1.7 1.7 0 0 0-2 .31c-.34.34-.5.88-.5 1.63v4.2h-1.23v-4.7c0-.54-.1-.95-.3-1.22-.2-.28-.53-.41-.98-.41-.35 0-.67.09-.96.27-.3.18-.5.45-.63.8-.13.34-.2.85-.2 1.5v3.75H172Zm20.17 0v-.92a2.25 2.25 0 0 1-2.02 1.08c-.58 0-1.1-.16-1.6-.48a3.17 3.17 0 0 1-1.12-1.32 4.66 4.66 0 0 1-.4-1.97c0-.72.13-1.38.37-1.96a2.84 2.84 0 0 1 2.7-1.82 2.38 2.38 0 0 1 1.99.99v-3.58h1.22v9.97h-1.14Zm-3.87-3.61c0 .92.2 1.62.58 2.07.4.46.85.7 1.38.7.54 0 1-.23 1.36-.66.38-.44.57-1.11.57-2 0-1-.2-1.72-.57-2.19a1.76 1.76 0 0 0-2.78-.02c-.36.44-.54 1.14-.54 2.1Zm6.48 0c0-1.35.37-2.34 1.12-2.98.62-.54 1.38-.8 2.27-.8 1 0 1.8.32 2.44.97.63.65.94 1.55.94 2.7 0 .93-.14 1.66-.42 2.2-.28.53-.68.94-1.22 1.24-.53.3-1.11.44-1.74.44a3.26 3.26 0 0 1-2.46-.97c-.62-.65-.93-1.59-.93-2.8Zm1.26 0c0 .92.2 1.61.6 2.07.41.46.92.7 1.53.7.6 0 1.11-.24 1.52-.7.4-.47.6-1.17.6-2.12 0-.9-.2-1.57-.61-2.03-.4-.46-.9-.7-1.51-.7s-1.12.24-1.52.7c-.4.46-.61 1.15-.61 2.07Zm6.93 3.6v-9.97h1.22v9.97h-1.22Zm2.67-3.6c0-1.35.37-2.34 1.12-2.98.62-.54 1.38-.8 2.27-.8 1 0 1.8.32 2.44.97.63.65.94 1.55.94 2.7 0 .93-.14 1.66-.42 2.2-.28.53-.68.94-1.22 1.24-.53.3-1.11.44-1.74.44a3.26 3.26 0 0 1-2.46-.97c-.62-.65-.93-1.59-.93-2.8Zm1.26 0c0 .92.2 1.61.6 2.07.4.46.92.7 1.53.7.6 0 1.11-.24 1.52-.7.4-.47.6-1.17.6-2.12 0-.9-.2-1.57-.61-2.03-.4-.46-.9-.7-1.51-.7s-1.12.24-1.53.7c-.4.46-.6 1.15-.6 2.07Zm6.94 3.6v-7.22h1.1v1.1c.28-.52.54-.86.78-1.02.24-.16.5-.24.79-.24.41 0 .83.13 1.25.39l-.42 1.14c-.3-.18-.6-.27-.9-.27-.26 0-.5.08-.72.25a1.3 1.3 0 0 0-.45.66c-.14.44-.2.91-.2 1.43v3.78h-1.23Zm8.04-2.15 1.21-.2c.07.5.26.86.57 1.12a2 2 0 0 0 1.3.4c.57 0 .98-.12 1.26-.35.27-.23.4-.5.4-.8 0-.29-.12-.5-.36-.66a5.07 5.07 0 0 0-1.25-.42 11.6 11.6 0 0 1-1.87-.58c-.34-.17-.6-.4-.79-.69a1.98 1.98 0 0 1-.05-1.87 2 2 0 0 1 .6-.68c.2-.14.46-.26.78-.36a4.27 4.27 0 0 1 2.56.1c.43.16.75.39.95.67.2.27.34.65.42 1.11l-1.2.17a1.3 1.3 0 0 0-.47-.87 1.72 1.72 0 0 0-1.1-.32c-.57 0-.97.1-1.2.28-.25.19-.37.4-.37.66 0 .15.05.3.15.42.1.14.26.24.47.33.12.04.48.15 1.08.31.87.23 1.47.42 1.81.57.35.15.62.36.81.64.2.29.3.64.3 1.05 0 .41-.13.8-.37 1.16a2.3 2.3 0 0 1-1.03.84c-.44.19-.95.29-1.52.29a3.4 3.4 0 0 1-2.15-.59c-.49-.39-.8-.97-.94-1.73Zm7.47-6.41v-1.41h1.22v1.4h-1.22Zm0 8.56v-7.22h1.22v7.22h-1.22Zm5.77-1.1.17 1.1c-.34.06-.65.1-.92.1a2.1 2.1 0 0 1-1.04-.21 1.19 1.19 0 0 1-.51-.55 4.4 4.4 0 0 1-.15-1.45v-4.16h-.9v-.95h.9v-1.8l1.21-.72v2.52h1.24v.95h-1.24v4.23c0 .35.03.57.06.67.05.1.12.18.22.24s.24.09.42.09c.13 0 .31-.02.54-.05Zm9.8.21a3.75 3.75 0 0 1-2.66 1.06c-.8 0-1.41-.2-1.84-.58a1.93 1.93 0 0 1-.64-1.49 2 2 0 0 1 .87-1.67 3 3 0 0 1 .89-.4c.24-.07.6-.13 1.09-.19.99-.12 1.71-.26 2.18-.42v-.32c0-.5-.1-.85-.34-1.06-.31-.27-.78-.41-1.4-.41-.57 0-1 .1-1.27.3-.28.2-.48.56-.6 1.07l-1.2-.16c.1-.51.28-.93.53-1.24a2.4 2.4 0 0 1 1.08-.73 4.77 4.77 0 0 1 1.64-.25c.62 0 1.12.07 1.5.21.4.15.68.33.86.55.18.22.3.5.38.84a7 7 0 0 1 .06 1.12v1.64c0 1.14.02 1.86.07 2.16.06.3.16.59.32.87h-1.28a2.7 2.7 0 0 1-.25-.9Zm-.1-2.73c-.45.18-1.12.33-2 .46-.51.07-.87.16-1.08.25a1.05 1.05 0 0 0-.65.98c0 .32.12.6.37.81.25.22.6.33 1.09.33.47 0 .89-.1 1.25-.3.37-.22.64-.5.81-.86.14-.27.2-.68.2-1.22v-.45Zm3.14 3.63v-7.23h1.09v1.01a2.55 2.55 0 0 1 2.2-1.17c.53 0 .96.1 1.3.33.35.22.6.53.73.93a2.6 2.6 0 0 1 2.23-1.26c.72 0 1.27.2 1.66.6.38.39.58 1 .58 1.82v4.97h-1.22v-4.56c0-.49-.04-.84-.12-1.05-.08-.22-.22-.4-.43-.53s-.46-.2-.74-.2c-.5 0-.93.18-1.26.52-.34.33-.5.87-.5 1.62v4.2h-1.23v-4.7c0-.54-.1-.95-.3-1.22-.2-.28-.53-.41-.98-.41-.35 0-.66.09-.96.27-.3.18-.5.45-.63.8-.13.34-.2.85-.2 1.5v3.75h-1.22Zm16.55-2.33 1.26.15a3.1 3.1 0 0 1-1.1 1.73c-.54.4-1.23.6-2.07.6-1.06 0-1.9-.32-2.52-.97a3.84 3.84 0 0 1-.93-2.74c0-1.21.32-2.16.94-2.83.63-.67 1.44-1 2.44-1 .97 0 1.76.32 2.37.98a4 4 0 0 1 .92 2.78l-.01.32h-5.39c.04.8.27 1.4.67 1.83a2 2 0 0 0 1.51.63c.45 0 .84-.12 1.15-.35.32-.24.57-.62.76-1.13Zm-4.02-1.98h4.03a2.36 2.36 0 0 0-.46-1.37c-.39-.47-.9-.7-1.52-.7-.56 0-1.03.18-1.42.56-.38.37-.6.88-.63 1.5Zm9.5 3.2.18 1.1c-.35.06-.65.1-.93.1-.44 0-.79-.07-1.03-.21a1.19 1.19 0 0 1-.52-.55c-.1-.23-.15-.72-.15-1.45v-4.16h-.9v-.95h.9v-1.8l1.22-.72v2.52H270v.95h-1.23v4.23c0 .35.02.57.06.67.05.1.12.18.21.24.1.06.24.09.43.09.13 0 .31-.02.53-.05Zm1.53 1.1v-1.39h1.4v1.4c0 .5-.1.92-.28 1.23-.18.32-.47.57-.86.74l-.34-.53c.25-.1.44-.28.57-.5.12-.22.19-.53.2-.94h-.7Zm12.15-2.64 1.2.15a3.13 3.13 0 0 1-1.01 1.96c-.54.46-1.2.7-2 .7a3.1 3.1 0 0 1-2.38-.97c-.6-.65-.9-1.57-.9-2.78 0-.78.13-1.46.39-2.05.26-.58.65-1.02 1.17-1.31a3.5 3.5 0 0 1 1.73-.44c.79 0 1.43.2 1.93.6.5.39.82.95.96 1.68l-1.2.19a1.97 1.97 0 0 0-.6-1.1 1.55 1.55 0 0 0-1.04-.37 1.9 1.9 0 0 0-1.5.67c-.39.44-.58 1.14-.58 2.1 0 .97.19 1.67.56 2.11.37.44.85.66 1.45.66.48 0 .88-.15 1.2-.44.33-.3.53-.75.62-1.36Zm1.8-.97c0-1.34.37-2.33 1.11-2.97.62-.54 1.38-.8 2.27-.8 1 0 1.8.32 2.44.97.63.65.95 1.55.95 2.7 0 .93-.14 1.66-.43 2.2-.27.53-.68.94-1.21 1.24-.54.3-1.12.44-1.75.44a3.26 3.26 0 0 1-2.45-.97c-.62-.65-.93-1.59-.93-2.8Zm1.25 0c0 .93.2 1.62.61 2.08.4.46.91.7 1.52.7s1.12-.24 1.52-.7c.4-.47.6-1.17.6-2.12 0-.9-.2-1.57-.6-2.03-.4-.46-.91-.7-1.52-.7-.6 0-1.12.24-1.52.7-.4.46-.6 1.15-.6 2.07Zm6.96 3.62v-7.23h1.1v1.03a2.6 2.6 0 0 1 2.3-1.2c.44 0 .84.09 1.2.24.37.16.64.36.82.62.18.25.3.55.38.9.05.23.07.63.07 1.2v4.44h-1.23v-4.4c0-.5-.04-.87-.14-1.12a1.2 1.2 0 0 0-.5-.59 1.57 1.57 0 0 0-.86-.22 2 2 0 0 0-1.35.5c-.38.32-.57.95-.57 1.88v3.94h-1.22Zm7.26-2.16 1.22-.2c.06.5.25.86.56 1.12a2 2 0 0 0 1.3.4c.57 0 .99-.12 1.26-.35.27-.23.4-.5.4-.8 0-.29-.11-.5-.35-.66a5.3 5.3 0 0 0-1.25-.42 11.8 11.8 0 0 1-1.88-.58c-.34-.17-.6-.4-.79-.69a1.93 1.93 0 0 1-.04-1.87 2 2 0 0 1 .6-.68c.2-.14.45-.26.78-.36a4.14 4.14 0 0 1 2.55.1c.43.16.75.39.95.67.2.27.35.65.42 1.11l-1.2.17a1.3 1.3 0 0 0-.47-.87 1.72 1.72 0 0 0-1.1-.32c-.56 0-.97.1-1.2.28-.25.19-.37.4-.37.66 0 .15.05.3.15.42.1.14.26.24.47.33l1.08.31c.87.23 1.47.42 1.81.57.35.15.62.36.81.64a2 2 0 0 1-.07 2.21c-.23.36-.57.64-1.02.84a3.9 3.9 0 0 1-1.53.29c-.93 0-1.65-.2-2.15-.59-.49-.39-.8-.97-.94-1.73Zm12.4-.17 1.27.15a3.1 3.1 0 0 1-1.1 1.73c-.55.4-1.23.6-2.07.6-1.06 0-1.9-.32-2.52-.97a3.83 3.83 0 0 1-.93-2.74c0-1.21.32-2.16.94-2.83.63-.67 1.44-1 2.44-1 .96 0 1.75.32 2.37.98a4 4 0 0 1 .91 2.78v.32h-5.4c.06.8.28 1.4.68 1.83a2 2 0 0 0 1.51.63c.45 0 .84-.12 1.15-.35.32-.24.57-.62.76-1.13Zm-4.01-1.98h4.03a2.36 2.36 0 0 0-.46-1.37c-.4-.47-.9-.7-1.52-.7-.56 0-1.03.18-1.42.56-.38.37-.6.88-.63 1.5Zm11.54 1.66 1.2.15a3.13 3.13 0 0 1-1 1.96 3 3 0 0 1-2 .7c-.99 0-1.78-.32-2.39-.97-.6-.65-.9-1.57-.9-2.78 0-.78.13-1.46.4-2.05a2.7 2.7 0 0 1 1.17-1.31 3.5 3.5 0 0 1 1.73-.44c.78 0 1.42.2 1.92.6.5.39.82.95.96 1.68l-1.19.19a1.97 1.97 0 0 0-.6-1.1 1.55 1.55 0 0 0-1.05-.37 1.9 1.9 0 0 0-1.5.67c-.38.44-.58 1.14-.58 2.1 0 .97.19 1.67.56 2.11.37.44.86.66 1.46.66.48 0 .88-.15 1.2-.44.32-.3.53-.75.61-1.36Zm4.93 1.55.18 1.08c-.35.07-.66.11-.93.11a2.1 2.1 0 0 1-1.03-.21 1.19 1.19 0 0 1-.52-.55 4.4 4.4 0 0 1-.15-1.45v-4.16h-.9v-.95h.9v-1.8l1.22-.72v2.52h1.23v.95h-1.23v4.23c0 .35.02.57.06.67.05.1.12.18.21.24.1.06.24.09.42.09.14 0 .32-.02.54-.05Zm6.15-1.23 1.27.15c-.2.74-.57 1.32-1.11 1.73-.54.4-1.23.6-2.07.6-1.06 0-1.9-.32-2.52-.97a3.83 3.83 0 0 1-.92-2.74c0-1.21.3-2.16.94-2.83.62-.67 1.43-1 2.43-1 .97 0 1.76.32 2.37.98.61.66.92 1.59.92 2.78l-.01.32h-5.39c.05.8.27 1.4.68 1.83a2 2 0 0 0 1.5.63c.45 0 .84-.12 1.15-.35.32-.24.57-.62.76-1.13Zm-4.02-1.98h4.03a2.36 2.36 0 0 0-.46-1.37c-.39-.47-.9-.7-1.52-.7-.56 0-1.03.18-1.42.56-.38.37-.59.88-.63 1.5Zm9.5 3.2.18 1.1c-.34.06-.65.1-.92.1a2.1 2.1 0 0 1-1.04-.21 1.19 1.19 0 0 1-.51-.55 4.4 4.4 0 0 1-.15-1.45v-4.16h-.9v-.95h.9v-1.8l1.21-.72v2.52h1.24v.95h-1.24v4.23c0 .35.02.57.06.67.05.1.12.18.22.24s.24.09.42.09c.13 0 .31-.02.54-.05Zm5.94 1.1v-1.06a2.64 2.64 0 0 1-2.29 1.23c-.43 0-.82-.08-1.2-.25a2 2 0 0 1-.82-.6c-.18-.26-.3-.56-.37-.92a6.2 6.2 0 0 1-.08-1.14v-4.48h1.23v4c0 .65.02 1.08.07 1.3.08.32.24.58.5.76.24.18.55.27.92.27.36 0 .7-.09 1.03-.28.32-.19.55-.44.68-.76.14-.33.2-.8.2-1.42v-3.87h1.23v7.22h-1.1Zm3.01 0v-7.22h1.1v1.1c.28-.52.54-.86.78-1.02.24-.16.5-.24.79-.24.41 0 .83.13 1.26.39l-.42 1.14c-.3-.18-.6-.27-.9-.27-.27 0-.51.08-.72.25a1.3 1.3 0 0 0-.46.66 5 5 0 0 0-.2 1.43v3.78h-1.23Zm13.25-.89a3.75 3.75 0 0 1-2.66 1.06c-.8 0-1.4-.2-1.83-.58a1.93 1.93 0 0 1-.64-1.49 2 2 0 0 1 .87-1.67c.26-.18.56-.31.88-.4.25-.07.6-.13 1.1-.19a11.8 11.8 0 0 0 2.18-.42v-.32c0-.5-.11-.85-.34-1.06-.32-.27-.78-.41-1.4-.41-.57 0-1 .1-1.28.3-.27.2-.47.56-.6 1.07l-1.2-.16c.1-.51.29-.93.54-1.24.25-.31.6-.56 1.08-.73a4.78 4.78 0 0 1 1.64-.25c.62 0 1.12.07 1.5.21.39.15.67.33.85.55.19.22.31.5.38.84.05.2.07.58.07 1.12v1.64c0 1.14.02 1.86.07 2.16.06.3.16.59.31.87h-1.28c-.12-.26-.2-.56-.24-.9Zm-.1-2.73c-.45.18-1.11.33-2 .46-.5.07-.86.16-1.07.25a1.05 1.05 0 0 0-.65.98c0 .32.12.6.36.81.25.22.62.33 1.1.33.46 0 .88-.1 1.25-.3.37-.22.64-.5.81-.86.13-.27.2-.68.2-1.22v-.45Zm7.83 3.63v-.92a2.25 2.25 0 0 1-2.02 1.08c-.58 0-1.1-.16-1.6-.48a3.17 3.17 0 0 1-1.12-1.32 4.66 4.66 0 0 1-.4-1.97c0-.72.13-1.38.37-1.96a2.84 2.84 0 0 1 2.7-1.82 2.38 2.38 0 0 1 1.99.99v-3.58h1.22v9.97h-1.14Zm-3.87-3.61c0 .92.2 1.62.58 2.07.4.46.85.7 1.38.7.54 0 1-.23 1.36-.66.38-.44.57-1.11.57-2 0-1-.2-1.72-.57-2.19a1.76 1.76 0 0 0-2.78-.02c-.36.44-.54 1.14-.54 2.1Zm6.94-4.96v-1.41h1.23v1.4h-1.23Zm0 8.56v-7.22h1.23v7.22h-1.23Zm3.1 2.77v-10h1.12v.95c.26-.37.56-.64.89-.82.33-.2.73-.28 1.2-.28a2.81 2.81 0 0 1 2.7 1.82c.24.57.36 1.2.36 1.9 0 .74-.13 1.4-.4 2a3 3 0 0 1-2.75 1.83c-.4 0-.77-.09-1.1-.26a2.5 2.5 0 0 1-.8-.65v3.51h-1.22Zm1.1-6.34c0 .93.2 1.62.57 2.06.38.45.84.67 1.37.67.55 0 1.01-.23 1.4-.69.39-.46.58-1.17.58-2.14 0-.92-.19-1.61-.57-2.07a1.7 1.7 0 0 0-1.35-.69c-.53 0-.99.25-1.4.74-.4.48-.6 1.2-.6 2.12Zm6.66-5v-1.4h1.23v1.4h-1.23Zm0 8.58v-7.23h1.23v7.22h-1.23Zm2.6-2.16 1.22-.2c.07.5.26.86.56 1.12a2 2 0 0 0 1.31.4c.56 0 .98-.12 1.25-.35a1 1 0 0 0 .41-.8c0-.29-.12-.5-.36-.66a5.24 5.24 0 0 0-1.25-.42 11.6 11.6 0 0 1-1.87-.58c-.35-.17-.61-.4-.8-.69a1.93 1.93 0 0 1 .56-2.55c.2-.14.46-.26.78-.36a4.14 4.14 0 0 1 2.55.1c.44.16.75.39.96.67.2.27.34.65.42 1.11l-1.2.17a1.3 1.3 0 0 0-.48-.87 1.68 1.68 0 0 0-1.1-.32c-.56 0-.96.1-1.2.28-.24.19-.36.4-.36.66 0 .15.05.3.15.42.1.14.25.24.47.33.12.04.48.15 1.08.31.87.23 1.47.42 1.8.57.35.15.62.36.82.64.2.29.3.64.3 1.05 0 .41-.13.8-.37 1.16-.24.36-.58.64-1.03.84-.45.19-.95.29-1.52.29a3.4 3.4 0 0 1-2.15-.59 2.7 2.7 0 0 1-.94-1.73Zm12.18-.5 1.2.16a3.12 3.12 0 0 1-1 1.96 3 3 0 0 1-2 .7 3.1 3.1 0 0 1-2.39-.97c-.6-.65-.9-1.57-.9-2.78 0-.78.13-1.46.39-2.05a2.7 2.7 0 0 1 1.18-1.31 3.5 3.5 0 0 1 1.73-.44c.78 0 1.42.2 1.92.6.5.39.82.95.96 1.68l-1.19.19a1.97 1.97 0 0 0-.6-1.1 1.55 1.55 0 0 0-1.05-.37 1.9 1.9 0 0 0-1.5.67c-.39.44-.58 1.14-.58 2.1 0 .97.19 1.67.56 2.11.37.44.86.66 1.45.66.49 0 .89-.15 1.2-.44.33-.3.54-.75.62-1.36Zm2.26-5.91v-1.41h1.23v1.4h-1.23Zm0 8.56v-7.22h1.23v7.22h-1.23Zm3.1 0v-7.22h1.1v1.03a2.6 2.6 0 0 1 2.3-1.2c.43 0 .83.09 1.2.24.36.16.64.36.82.62.18.25.3.55.38.9.05.23.07.63.07 1.2v4.44h-1.23v-4.4c0-.5-.04-.87-.14-1.12a1.2 1.2 0 0 0-.5-.59 1.58 1.58 0 0 0-.86-.22 2 2 0 0 0-1.35.5c-.38.32-.57.95-.57 1.88v3.94h-1.22Zm7.53.6 1.19.18c.05.37.19.63.41.8.3.23.72.34 1.25.34.57 0 1-.11 1.31-.34.31-.22.52-.54.63-.95.06-.25.1-.77.09-1.57-.54.63-1.2.94-2 .94-1 0-1.77-.35-2.31-1.07a4.76 4.76 0 0 1-.44-4.48 3 3 0 0 1 1.08-1.36 2.94 2.94 0 0 1 1.67-.47c.86 0 1.56.34 2.11 1.03v-.87h1.13v6.25c0 1.12-.11 1.92-.34 2.38-.23.47-.6.85-1.1 1.12-.49.27-1.1.4-1.82.4-.87 0-1.56-.19-2.1-.58-.52-.38-.78-.97-.76-1.75Zm1.01-4.34c0 .95.2 1.64.57 2.08.37.43.84.65 1.41.65.56 0 1.04-.22 1.42-.65.38-.43.57-1.11.57-2.04 0-.88-.2-1.55-.6-2a1.81 1.81 0 0 0-2.8 0c-.38.44-.57 1.1-.57 1.96Zm15.8 1.42 1.26.15c-.2.74-.57 1.32-1.1 1.73-.55.4-1.24.6-2.08.6-1.05 0-1.9-.32-2.52-.97a3.83 3.83 0 0 1-.92-2.74c0-1.21.31-2.16.94-2.83.63-.67 1.44-1 2.44-1 .96 0 1.75.32 2.36.98.62.66.92 1.59.92 2.78v.32h-5.4c.05.8.27 1.4.68 1.83a2 2 0 0 0 1.5.63c.46 0 .84-.12 1.16-.35.32-.24.57-.62.75-1.13Zm-4.03-1.98h4.04a2.51 2.51 0 0 0-.46-1.37c-.4-.47-.9-.7-1.52-.7-.56 0-1.04.18-1.42.56-.38.37-.6.88-.64 1.5Zm6.8 4.3v-9.97h1.23v9.97h-1.22Zm3.14-8.56v-1.41h1.23v1.4h-1.23Zm0 8.56v-7.22h1.23v7.22h-1.23Zm5.77-1.1.18 1.1c-.34.06-.65.1-.93.1a2.1 2.1 0 0 1-1.03-.21 1.19 1.19 0 0 1-.52-.55 4.4 4.4 0 0 1-.15-1.45v-4.16h-.9v-.95h.9v-1.8l1.22-.72v2.52h1.23v.95h-1.23v4.23c0 .35.02.57.06.67.05.1.12.18.21.24.1.06.25.09.43.09.13 0 .31-.02.53-.05Zm1.53 1.1v-1.39h1.4v1.4c0 .5-.1.92-.28 1.23-.18.32-.47.57-.86.74l-.34-.53c.25-.1.45-.28.57-.5.12-.22.19-.53.2-.94h-.7Zm6.94-2.15 1.22-.2c.06.5.25.86.56 1.12a2 2 0 0 0 1.3.4c.57 0 .99-.12 1.26-.35.27-.23.4-.5.4-.8 0-.29-.11-.5-.35-.66a5.42 5.42 0 0 0-1.25-.42 11.8 11.8 0 0 1-1.88-.58c-.34-.17-.6-.4-.79-.69a1.93 1.93 0 0 1-.04-1.87 2 2 0 0 1 .6-.68c.2-.14.45-.26.78-.36a4.14 4.14 0 0 1 2.55.1c.43.16.75.39.95.67.2.27.35.65.42 1.11l-1.2.17a1.3 1.3 0 0 0-.47-.87 1.72 1.72 0 0 0-1.1-.32c-.56 0-.97.1-1.2.28-.25.19-.37.4-.37.66 0 .15.05.3.15.42.1.14.26.24.47.33l1.08.31c.87.23 1.47.42 1.81.57.35.15.62.36.81.64a2 2 0 0 1-.07 2.21 2.3 2.3 0 0 1-1.02.84 3.9 3.9 0 0 1-1.53.29c-.94 0-1.65-.2-2.15-.59-.49-.39-.8-.97-.94-1.73Zm12.4-.17 1.27.15a3.1 3.1 0 0 1-1.1 1.73c-.55.4-1.23.6-2.07.6-1.06 0-1.9-.32-2.52-.97a3.83 3.83 0 0 1-.93-2.74c0-1.21.32-2.16.94-2.83.63-.67 1.44-1 2.44-1 .96 0 1.75.32 2.37.98a4 4 0 0 1 .91 2.78v.32h-5.4c.06.8.28 1.4.68 1.83a2 2 0 0 0 1.51.63c.45 0 .84-.12 1.15-.35.32-.24.57-.62.76-1.13Zm-4.01-1.98h4.03a2.36 2.36 0 0 0-.46-1.37c-.4-.47-.9-.7-1.52-.7-.56 0-1.03.18-1.42.56-.38.37-.6.88-.63 1.5Zm11.52 4.3v-.9a2.25 2.25 0 0 1-2.02 1.07c-.58 0-1.11-.16-1.6-.48a3.17 3.17 0 0 1-1.12-1.32 4.66 4.66 0 0 1-.4-1.97c0-.72.13-1.38.37-1.96a2.84 2.84 0 0 1 3.86-1.54c.33.18.61.41.82.7v-3.57h1.22v9.97h-1.13Zm-3.88-3.6c0 .92.2 1.62.59 2.07.39.46.85.7 1.38.7.54 0 .99-.23 1.36-.66.38-.44.57-1.11.57-2 0-1-.2-1.72-.57-2.19a1.76 1.76 0 0 0-2.78-.02c-.36.44-.55 1.14-.55 2.1Zm15.51 3.6v-.9a2.25 2.25 0 0 1-2.02 1.07 2.9 2.9 0 0 1-1.6-.48 3.17 3.17 0 0 1-1.11-1.32 4.66 4.66 0 0 1-.4-1.97c0-.72.12-1.38.36-1.96a2.84 2.84 0 0 1 3.86-1.54c.34.18.62.41.83.7v-3.57h1.22v9.97h-1.14Zm-3.87-3.6c0 .92.2 1.62.59 2.07a1.73 1.73 0 0 0 2.74.03c.37-.43.56-1.1.56-2 0-.99-.19-1.71-.57-2.18a1.76 1.76 0 0 0-2.78-.02c-.36.44-.54 1.14-.54 2.1Zm6.48 0c0-1.35.38-2.34 1.12-2.98.62-.54 1.38-.8 2.27-.8 1 0 1.8.32 2.44.97.63.65.94 1.55.94 2.7 0 .93-.14 1.66-.42 2.2-.27.53-.68.94-1.22 1.24-.53.3-1.1.44-1.74.44a3.26 3.26 0 0 1-2.45-.97c-.63-.65-.94-1.59-.94-2.8Zm1.26 0c0 .92.2 1.61.6 2.07.41.46.92.7 1.53.7s1.12-.24 1.52-.7c.4-.47.6-1.17.6-2.12 0-.9-.2-1.57-.6-2.03-.41-.46-.91-.7-1.52-.7s-1.12.24-1.52.7c-.4.46-.6 1.15-.6 2.07Zm15.78 1.28 1.27.15c-.2.74-.57 1.32-1.11 1.73-.54.4-1.23.6-2.07.6-1.06 0-1.9-.32-2.52-.97a3.83 3.83 0 0 1-.92-2.74c0-1.21.31-2.16.94-2.83.62-.67 1.43-1 2.43-1 .97 0 1.76.32 2.37.98.61.66.92 1.59.92 2.78v.32h-5.4c.05.8.27 1.4.68 1.83a2 2 0 0 0 1.5.63c.45 0 .84-.12 1.16-.35.31-.24.57-.62.75-1.13Zm-4.02-1.98h4.04a2.44 2.44 0 0 0-.47-1.37c-.39-.47-.9-.7-1.52-.7-.56 0-1.03.18-1.42.56-.38.37-.59.88-.63 1.5Zm6.84-4.26v-1.41h1.22v1.4h-1.22Zm0 8.56v-7.22h1.22v7.22h-1.22Zm7.83 0v-1.06a2.64 2.64 0 0 1-2.3 1.23 2.9 2.9 0 0 1-1.2-.25 2.01 2.01 0 0 1-.81-.6c-.18-.26-.3-.56-.38-.92a6.2 6.2 0 0 1-.07-1.14v-4.48h1.22v4c0 .65.03 1.08.08 1.3.07.32.24.58.49.76.25.18.55.27.92.27s.71-.09 1.04-.28c.32-.19.55-.44.68-.76a4 4 0 0 0 .2-1.42v-3.87h1.23v7.22h-1.1Zm2.53-2.15 1.21-.2c.07.5.26.86.57 1.12a2 2 0 0 0 1.3.4c.57 0 .98-.12 1.25-.35a1 1 0 0 0 .41-.8c0-.29-.12-.5-.36-.66a5.07 5.07 0 0 0-1.25-.42 11.6 11.6 0 0 1-1.87-.58c-.35-.17-.6-.4-.79-.69a1.98 1.98 0 0 1-.05-1.87 2 2 0 0 1 .6-.68c.2-.14.46-.26.78-.36a4.15 4.15 0 0 1 2.55.1c.44.16.75.39.96.67.2.27.34.65.42 1.11l-1.2.17a1.3 1.3 0 0 0-.47-.87 1.72 1.72 0 0 0-1.1-.32c-.57 0-.97.1-1.21.28-.24.19-.36.4-.36.66 0 .15.05.3.15.42.1.14.26.24.47.33.12.04.48.15 1.08.31.87.23 1.47.42 1.81.57.34.15.61.36.81.64.2.29.3.64.3 1.05 0 .41-.13.8-.37 1.16a2.3 2.3 0 0 1-1.03.84c-.44.19-.95.29-1.52.29a3.4 3.4 0 0 1-2.15-.59c-.49-.39-.8-.97-.94-1.73Zm7.46 2.16v-7.23h1.1v1.01a2.53 2.53 0 0 1 2.18-1.17c.54 0 .98.1 1.32.33.34.22.58.53.73.93a2.6 2.6 0 0 1 2.23-1.26c.71 0 1.27.2 1.65.6.39.39.58 1 .58 1.82v4.97h-1.22v-4.56c0-.49-.04-.84-.12-1.05a1 1 0 0 0-.43-.53c-.2-.13-.45-.2-.74-.2-.5 0-.92.18-1.26.52-.34.33-.5.87-.5 1.62v4.2h-1.23v-4.7c0-.54-.1-.95-.3-1.22-.2-.28-.52-.41-.98-.41-.34 0-.66.09-.96.27-.29.18-.5.45-.63.8-.13.34-.2.85-.2 1.5v3.75h-1.22Zm11.15-3.62c0-1.34.37-2.33 1.12-2.97.62-.54 1.38-.8 2.27-.8 1 0 1.8.32 2.43.97.63.65.95 1.55.95 2.7 0 .93-.14 1.66-.42 2.2-.28.53-.68.94-1.22 1.24-.53.3-1.11.44-1.74.44a3.26 3.26 0 0 1-2.46-.97c-.62-.65-.93-1.59-.93-2.8Zm1.26 0c0 .93.2 1.62.6 2.08.4.46.92.7 1.53.7.6 0 1.11-.24 1.52-.7.4-.47.6-1.17.6-2.12 0-.9-.2-1.57-.61-2.03-.4-.46-.9-.7-1.51-.7s-1.12.24-1.53.7c-.4.46-.6 1.15-.6 2.07Zm11.64 3.62v-.92a2.25 2.25 0 0 1-2.02 1.08c-.58 0-1.1-.16-1.6-.48a3.17 3.17 0 0 1-1.11-1.32 4.66 4.66 0 0 1-.4-1.97c0-.72.12-1.38.36-1.96a2.84 2.84 0 0 1 3.86-1.54c.34.18.62.41.83.7v-3.57h1.22v9.97h-1.14Zm-3.87-3.61c0 .92.2 1.62.58 2.07.4.46.86.7 1.38.7.54 0 1-.23 1.37-.66.37-.44.56-1.11.56-2 0-1-.19-1.72-.57-2.19a1.76 1.76 0 0 0-2.78-.02c-.36.44-.54 1.14-.54 2.1Zm-432.24 23.5.18 1.1c-.35.06-.66.1-.93.1a2.1 2.1 0 0 1-1.03-.21 1.19 1.19 0 0 1-.52-.55 4.4 4.4 0 0 1-.15-1.45v-4.16h-.9v-.95h.9v-1.8l1.22-.72v2.52h1.23v.95h-1.23v4.23c0 .35.02.57.06.67.05.1.12.18.21.24.1.06.24.09.42.09.14 0 .32-.02.54-.05Zm6.15-1.22 1.27.15a3.1 3.1 0 0 1-1.11 1.73c-.54.4-1.23.6-2.07.6-1.06 0-1.9-.32-2.52-.97a3.83 3.83 0 0 1-.92-2.74c0-1.21.3-2.16.94-2.83.62-.67 1.43-1 2.43-1 .97 0 1.76.32 2.37.98.61.66.92 1.59.92 2.78l-.01.32h-5.39c.05.8.27 1.4.67 1.83a2 2 0 0 0 1.52.63c.44 0 .83-.12 1.14-.35.32-.24.57-.62.76-1.13Zm-4.02-1.98h4.03a2.36 2.36 0 0 0-.46-1.37c-.39-.47-.9-.7-1.52-.7-.56 0-1.03.18-1.42.56-.38.37-.59.88-.63 1.5Zm6.83 4.3v-7.22h1.1v1.01a2.54 2.54 0 0 1 2.19-1.17c.53 0 .97.1 1.31.33.34.22.59.53.73.93a2.6 2.6 0 0 1 2.23-1.26c.72 0 1.27.2 1.65.6.39.39.58 1 .58 1.82v4.97h-1.22v-4.56c0-.49-.04-.84-.12-1.05a1 1 0 0 0-.43-.53c-.2-.13-.45-.2-.73-.2-.51 0-.93.18-1.27.52-.33.33-.5.87-.5 1.62v4.2h-1.23v-4.7c0-.54-.1-.95-.3-1.22-.2-.28-.52-.41-.97-.41-.35 0-.67.09-.97.27-.28.18-.5.45-.63.8-.13.34-.2.85-.2 1.5v3.75h-1.22Zm11.6 2.77v-10h1.12v.95a2.43 2.43 0 0 1 2.1-1.1 2.81 2.81 0 0 1 2.7 1.82c.24.57.36 1.2.36 1.9 0 .74-.13 1.4-.4 2a3 3 0 0 1-2.75 1.83c-.4 0-.77-.09-1.1-.26a2.51 2.51 0 0 1-.8-.65v3.51h-1.22Zm1.12-6.34c0 .93.19 1.62.56 2.06.38.45.83.67 1.37.67.54 0 1-.23 1.4-.69.38-.46.58-1.17.58-2.14 0-.92-.2-1.61-.57-2.07a1.7 1.7 0 0 0-1.36-.69c-.52 0-.98.25-1.38.74-.4.48-.6 1.2-.6 2.12Zm6.19-.04c0-1.34.37-2.33 1.12-2.97.62-.54 1.37-.8 2.27-.8 1 0 1.8.32 2.43.97.63.65.95 1.55.95 2.7 0 .93-.14 1.66-.42 2.2-.28.53-.69.94-1.22 1.24-.53.3-1.11.44-1.74.44a3.26 3.26 0 0 1-2.46-.97c-.62-.65-.93-1.59-.93-2.8Zm1.26 0c0 .93.2 1.62.6 2.08.4.46.92.7 1.53.7.6 0 1.11-.24 1.52-.7.4-.47.6-1.17.6-2.12 0-.9-.2-1.57-.61-2.03-.4-.46-.9-.7-1.51-.7s-1.12.24-1.53.7c-.4.46-.6 1.15-.6 2.07Zm6.94 3.62v-7.23h1.1v1.1c.28-.52.54-.86.78-1.02.24-.16.5-.24.79-.24.4 0 .83.13 1.25.39l-.42 1.14c-.3-.18-.6-.27-.9-.27-.26 0-.5.08-.72.25a1.3 1.3 0 0 0-.45.66c-.14.44-.2.91-.2 1.43v3.78h-1.23Zm8.54-8.57v-1.41h1.22v1.4h-1.22Zm0 8.56v-7.22h1.22v7.22h-1.22Zm3.1 0v-7.22h1.1v1.03a2.6 2.6 0 0 1 2.3-1.2c.43 0 .83.09 1.2.24.36.16.63.36.81.62.19.25.31.55.39.9.04.23.06.63.06 1.2v4.44h-1.22v-4.4c0-.5-.05-.87-.14-1.12-.1-.25-.27-.44-.51-.59a1.58 1.58 0 0 0-.85-.22 2 2 0 0 0-1.36.5c-.37.32-.56.95-.56 1.88v3.94h-1.23Zm12.46-2.64 1.2.15a3.13 3.13 0 0 1-1 1.96 3 3 0 0 1-2 .7c-.99 0-1.78-.32-2.39-.97-.6-.65-.9-1.57-.9-2.78 0-.78.13-1.46.4-2.05.25-.58.64-1.02 1.17-1.31a3.5 3.5 0 0 1 1.73-.44c.78 0 1.43.2 1.92.6.5.39.82.95.96 1.68l-1.19.19a1.97 1.97 0 0 0-.6-1.1 1.55 1.55 0 0 0-1.04-.37 1.9 1.9 0 0 0-1.5.67c-.4.44-.59 1.14-.59 2.1 0 .97.19 1.67.56 2.11.37.44.86.66 1.46.66.48 0 .88-.15 1.2-.44.32-.3.53-.75.61-1.36Zm2.26-5.92v-1.41h1.23v1.4h-1.23Zm0 8.56v-7.22h1.23v7.22h-1.23Zm7.79 0v-.9a2.25 2.25 0 0 1-2.02 1.07c-.58 0-1.11-.16-1.6-.48a3.16 3.16 0 0 1-1.12-1.32 4.64 4.64 0 0 1-.4-1.97c0-.72.13-1.38.37-1.96a2.84 2.84 0 0 1 2.7-1.82 2.38 2.38 0 0 1 1.98.99v-3.58h1.22v9.97h-1.13Zm-3.87-3.6c0 .92.2 1.62.58 2.07.4.46.85.7 1.38.7.54 0 1-.23 1.36-.66.38-.44.57-1.11.57-2 0-1-.2-1.72-.57-2.19a1.76 1.76 0 0 0-2.78-.02c-.36.44-.54 1.14-.54 2.1Zm6.94-4.96v-1.41h1.23v1.4h-1.23Zm0 8.56v-7.22h1.23v7.22h-1.23Zm7.79 0v-.9a2.25 2.25 0 0 1-2.02 1.07c-.58 0-1.11-.16-1.6-.48a3.17 3.17 0 0 1-1.12-1.32 4.66 4.66 0 0 1-.4-1.97c0-.72.13-1.38.37-1.96a2.84 2.84 0 0 1 3.85-1.54c.34.18.62.41.84.7v-3.57h1.21v9.97h-1.13Zm-3.88-3.6c0 .92.2 1.62.59 2.07.39.46.85.7 1.38.7.54 0 .99-.23 1.36-.66.38-.44.57-1.11.57-2 0-1-.2-1.72-.57-2.19a1.76 1.76 0 0 0-2.78-.02c-.36.44-.54 1.14-.54 2.1Zm11.68 3.6v-1.06a2.64 2.64 0 0 1-2.3 1.23c-.42 0-.82-.08-1.19-.25a2 2 0 0 1-.82-.6c-.18-.26-.3-.56-.38-.92a6.2 6.2 0 0 1-.07-1.14v-4.48h1.22v4c0 .65.03 1.08.08 1.3.07.32.24.58.49.76.25.18.56.27.92.27a2 2 0 0 0 1.04-.28c.32-.19.55-.44.68-.76a4 4 0 0 0 .2-1.42v-3.87h1.23v7.22h-1.1Zm3.02 0v-7.22h1.1v1.03a2.6 2.6 0 0 1 2.3-1.2c.44 0 .84.09 1.2.24.37.16.64.36.82.62.19.25.31.55.39.9.04.23.06.63.06 1.2v4.44h-1.22v-4.4c0-.5-.05-.87-.14-1.12-.1-.25-.27-.44-.51-.59a1.58 1.58 0 0 0-.85-.22 2 2 0 0 0-1.36.5c-.38.32-.56.95-.56 1.88v3.94h-1.23Zm10.43-1.1.18 1.1c-.35.06-.65.1-.93.1a2.1 2.1 0 0 1-1.03-.21 1.2 1.2 0 0 1-.52-.55c-.1-.23-.15-.72-.15-1.45v-4.16h-.9v-.95h.9v-1.8l1.22-.72v2.52h1.23v.95h-1.23v4.23c0 .35.02.57.06.67.05.1.12.18.21.24.1.06.24.09.43.09.13 0 .31-.02.53-.05Zm9.82 1.1v-1.06a2.64 2.64 0 0 1-2.3 1.23c-.42 0-.82-.08-1.19-.25a2 2 0 0 1-.82-.6c-.18-.26-.3-.56-.38-.92a6.22 6.22 0 0 1-.07-1.14v-4.48h1.22v4c0 .65.03 1.08.08 1.3.07.32.24.58.49.76.25.18.56.27.92.27.37 0 .71-.09 1.04-.28.32-.19.54-.44.68-.76a4 4 0 0 0 .2-1.42v-3.87h1.23v7.22h-1.1Zm5.7-1.1.17 1.1c-.34.06-.65.1-.92.1-.45 0-.8-.07-1.04-.21a1.18 1.18 0 0 1-.51-.55 4.4 4.4 0 0 1-.15-1.45v-4.16h-.9v-.95h.9v-1.8l1.21-.72v2.52h1.23v.95h-1.23v4.23c0 .35.02.57.06.67.05.1.12.18.22.24s.24.09.42.09c.13 0 .31-.02.53-.05Zm5.05 1.1v-9.97h1.22v9.97h-1.22Zm7.85-.89a3.76 3.76 0 0 1-2.66 1.06c-.8 0-1.4-.2-1.84-.58a1.93 1.93 0 0 1-.63-1.49 1.98 1.98 0 0 1 .87-1.67c.26-.18.55-.31.88-.4.24-.07.6-.13 1.09-.19.99-.12 1.72-.26 2.18-.42l.01-.32c0-.5-.12-.85-.35-1.06-.3-.27-.77-.41-1.4-.41-.57 0-1 .1-1.27.3-.27.2-.47.56-.6 1.07l-1.2-.16c.1-.51.28-.93.53-1.24.25-.31.61-.56 1.09-.73a4.78 4.78 0 0 1 1.64-.25c.61 0 1.11.07 1.5.21.38.15.67.33.85.55.18.22.3.5.38.84.04.2.06.58.06 1.12v1.64c0 1.14.03 1.86.08 2.16.05.3.16.59.31.87h-1.28a2.7 2.7 0 0 1-.24-.9Zm-.1-2.73c-.45.18-1.12.33-2 .46-.51.07-.87.16-1.08.25a1.05 1.05 0 0 0-.65.98c0 .32.12.6.37.81.25.22.61.33 1.09.33.47 0 .89-.1 1.26-.3a2 2 0 0 0 .8-.86c.14-.27.2-.68.2-1.22v-.45Zm4.27 3.63h-1.14v-9.98h1.22v3.56a2.42 2.42 0 0 1 1.99-.97c.44 0 .86.09 1.25.27.4.18.73.43.98.75.26.33.46.72.6 1.17.15.46.23.95.23 1.47 0 1.24-.3 2.2-.92 2.87a2.87 2.87 0 0 1-2.2 1.02 2.3 2.3 0 0 1-2.01-1.07v.9Zm-.02-3.67c0 .86.12 1.49.36 1.88a1.75 1.75 0 0 0 2.95.24c.39-.46.59-1.15.59-2.08 0-.94-.2-1.63-.57-2.08a1.7 1.7 0 0 0-1.35-.68c-.54 0-1 .24-1.4.7a3.14 3.14 0 0 0-.58 2.02Zm6.19.05c0-1.34.37-2.33 1.11-2.97.63-.54 1.38-.8 2.28-.8.99 0 1.8.32 2.43.97.63.65.95 1.55.95 2.7 0 .93-.14 1.66-.42 2.2-.28.53-.69.94-1.22 1.24-.53.3-1.11.44-1.74.44a3.26 3.26 0 0 1-2.46-.97c-.62-.65-.93-1.59-.93-2.8Zm1.26 0c0 .93.2 1.62.6 2.08.4.46.91.7 1.53.7.6 0 1.11-.24 1.51-.7.4-.47.6-1.17.6-2.12 0-.9-.2-1.57-.6-2.03-.4-.46-.91-.7-1.51-.7-.62 0-1.12.24-1.53.7-.4.46-.6 1.15-.6 2.07Zm6.94 3.62v-7.23h1.1v1.1c.28-.52.54-.86.78-1.02.24-.16.5-.24.78-.24.42 0 .84.13 1.26.39l-.42 1.14c-.3-.18-.6-.27-.9-.27-.26 0-.5.08-.72.25a1.3 1.3 0 0 0-.45.66c-.14.44-.2.91-.2 1.43v3.78h-1.23Zm9.6-2.33 1.26.15a3.1 3.1 0 0 1-1.1 1.73c-.55.4-1.24.6-2.07.6-1.06 0-1.9-.32-2.52-.97a3.84 3.84 0 0 1-.93-2.74c0-1.21.31-2.16.94-2.83.63-.67 1.44-1 2.44-1 .96 0 1.75.32 2.36.98.62.66.92 1.59.92 2.78v.32h-5.4c.05.8.28 1.4.68 1.83a2 2 0 0 0 1.51.63c.45 0 .83-.12 1.15-.35.32-.24.57-.62.76-1.13Zm-4.02-1.98h4.03a2.36 2.36 0 0 0-.46-1.37c-.4-.47-.9-.7-1.52-.7-.56 0-1.04.18-1.42.56-.38.37-.6.88-.63 1.5Zm15.65 1.98 1.27.15a3.1 3.1 0 0 1-1.11 1.73c-.54.4-1.23.6-2.07.6-1.06 0-1.9-.32-2.52-.97a3.84 3.84 0 0 1-.92-2.74c0-1.21.31-2.16.94-2.83.62-.67 1.43-1 2.43-1 .97 0 1.76.32 2.37.98.61.66.92 1.59.92 2.78v.32h-5.4c.05.8.27 1.4.68 1.83a2 2 0 0 0 1.5.63c.46 0 .84-.12 1.16-.35.31-.24.57-.62.75-1.13Zm-4.02-1.98h4.04a2.44 2.44 0 0 0-.47-1.37c-.39-.47-.9-.7-1.51-.7-.57 0-1.04.18-1.43.56-.38.37-.59.88-.63 1.5Zm9.5 3.2.18 1.1c-.34.06-.65.1-.92.1a2.1 2.1 0 0 1-1.04-.21 1.2 1.2 0 0 1-.51-.55c-.1-.23-.15-.72-.15-1.45v-4.16h-.9v-.95h.9v-1.8l1.21-.72v2.52h1.24v.95h-1.24v4.23c0 .35.03.57.07.67.04.1.11.18.2.24.1.06.25.09.43.09.13 0 .31-.02.54-.05Zm9.78 1.1v-.9a2.25 2.25 0 0 1-2.02 1.07c-.58 0-1.11-.16-1.6-.48a3.17 3.17 0 0 1-1.12-1.32 4.66 4.66 0 0 1-.4-1.97c0-.72.13-1.38.37-1.96a2.84 2.84 0 0 1 3.86-1.54c.33.18.61.41.82.7v-3.57h1.22v9.97h-1.13Zm-3.88-3.6c0 .92.2 1.62.59 2.07.39.46.85.7 1.38.7.54 0 .99-.23 1.36-.66.38-.44.57-1.11.57-2 0-1-.2-1.72-.57-2.19a1.76 1.76 0 0 0-2.78-.02c-.36.44-.54 1.14-.54 2.1Zm6.49 0c0-1.35.37-2.34 1.12-2.98.62-.54 1.37-.8 2.27-.8 1 0 1.8.32 2.43.97.63.65.95 1.55.95 2.7 0 .93-.14 1.66-.42 2.2-.28.53-.69.94-1.22 1.24-.53.3-1.11.44-1.74.44a3.26 3.26 0 0 1-2.46-.97c-.62-.65-.93-1.59-.93-2.8Zm1.26 0c0 .92.2 1.61.6 2.07.4.46.92.7 1.53.7.6 0 1.11-.24 1.51-.7.4-.47.61-1.17.61-2.12 0-.9-.2-1.57-.61-2.03-.4-.46-.9-.7-1.51-.7-.62 0-1.12.24-1.53.7-.4.46-.6 1.15-.6 2.07Zm6.93 3.6v-9.97h1.22v9.97h-1.23Zm2.67-3.6c0-1.35.37-2.34 1.12-2.98.62-.54 1.37-.8 2.27-.8.99 0 1.8.32 2.43.97.63.65.95 1.55.95 2.7 0 .93-.14 1.66-.42 2.2-.28.53-.69.94-1.22 1.24-.53.3-1.11.44-1.74.44a3.26 3.26 0 0 1-2.46-.97c-.62-.65-.93-1.59-.93-2.8Zm1.26 0c0 .92.2 1.61.6 2.07.4.46.91.7 1.53.7.6 0 1.11-.24 1.51-.7.4-.47.61-1.17.61-2.12 0-.9-.2-1.57-.61-2.03-.4-.46-.91-.7-1.51-.7-.62 0-1.12.24-1.53.7-.4.46-.6 1.15-.6 2.07Zm6.94 3.6v-7.22h1.1v1.1a3 3 0 0 1 .77-1.02c.25-.16.5-.24.8-.24.4 0 .83.13 1.25.39l-.42 1.14c-.3-.18-.6-.27-.9-.27-.26 0-.5.08-.72.25a1.3 1.3 0 0 0-.45.66c-.14.44-.2.91-.2 1.43v3.78h-1.23Zm9.6-2.32 1.26.15a3.1 3.1 0 0 1-1.1 1.73c-.54.4-1.23.6-2.07.6-1.06 0-1.9-.32-2.52-.97a3.84 3.84 0 0 1-.93-2.74c0-1.21.32-2.16.94-2.83.63-.67 1.44-1 2.44-1 .96 0 1.75.32 2.37.98a4 4 0 0 1 .91 2.78v.32h-5.4c.05.8.28 1.4.68 1.83a2 2 0 0 0 1.51.63c.45 0 .84-.12 1.15-.35.32-.24.57-.62.76-1.13Zm-4.02-1.98h4.03a2.36 2.36 0 0 0-.46-1.37c-.4-.47-.9-.7-1.52-.7-.56 0-1.03.18-1.42.56-.38.37-.6.88-.63 1.5Zm10.7 4.3v-7.22h1.1v1.01a2.54 2.54 0 0 1 2.2-1.17c.53 0 .97.1 1.3.33.35.22.6.53.73.93a2.6 2.6 0 0 1 2.24-1.26c.71 0 1.26.2 1.65.6.38.39.58 1 .58 1.82v4.97H338v-4.56c0-.49-.04-.84-.12-1.05a1 1 0 0 0-.43-.53 1.7 1.7 0 0 0-2 .31c-.34.34-.5.88-.5 1.63v4.2h-1.23v-4.7c0-.54-.1-.95-.3-1.22-.2-.28-.53-.41-.98-.41-.34 0-.66.09-.96.27-.29.18-.5.45-.63.8-.13.34-.2.85-.2 1.5v3.75h-1.22Zm16.33-.89a3.75 3.75 0 0 1-2.66 1.06c-.8 0-1.4-.2-1.83-.58a1.93 1.93 0 0 1-.64-1.49 1.98 1.98 0 0 1 .87-1.67c.26-.18.56-.31.88-.4.25-.07.6-.13 1.1-.19a11.8 11.8 0 0 0 2.18-.42v-.32c0-.5-.11-.85-.34-1.06-.32-.27-.78-.41-1.4-.41-.57 0-1 .1-1.28.3-.27.2-.47.56-.6 1.07l-1.2-.16c.1-.51.29-.93.54-1.24.25-.31.6-.56 1.08-.73a4.78 4.78 0 0 1 1.64-.25c.62 0 1.12.07 1.5.21.39.15.67.33.85.55.19.22.31.5.38.84.05.2.06.58.06 1.12v1.64c0 1.14.03 1.86.08 2.16.06.3.16.59.31.87H346c-.12-.26-.2-.56-.24-.9Zm-.1-2.73c-.45.18-1.11.33-2 .46-.5.07-.86.16-1.07.25a1.06 1.06 0 0 0-.65.98c0 .32.12.6.36.81.25.22.61.33 1.1.33.46 0 .88-.1 1.25-.3.37-.22.64-.5.81-.86.13-.27.2-.68.2-1.22v-.45Zm2.92 4.22 1.19.18c.05.37.19.63.41.8.3.23.72.34 1.25.34.56 0 1-.11 1.31-.34.3-.22.52-.54.63-.95.06-.25.09-.77.08-1.57a2.5 2.5 0 0 1-2 .94 2.7 2.7 0 0 1-2.3-1.07 4.78 4.78 0 0 1-.44-4.48 3 3 0 0 1 1.08-1.36 2.94 2.94 0 0 1 1.67-.47c.85 0 1.56.34 2.11 1.03v-.87h1.13v6.25a5.8 5.8 0 0 1-.35 2.38c-.22.47-.59.85-1.09 1.12-.49.27-1.1.4-1.83.4-.86 0-1.55-.19-2.09-.58-.53-.38-.78-.97-.76-1.75Zm1.01-4.34c0 .95.19 1.64.56 2.08.38.43.85.65 1.42.65.56 0 1.03-.22 1.42-.65.38-.43.57-1.11.57-2.04 0-.88-.2-1.55-.6-2a1.81 1.81 0 0 0-2.8 0c-.38.44-.57 1.1-.57 1.96Zm6.97 3.75v-7.23h1.1v1.03a2.6 2.6 0 0 1 2.3-1.2c.44 0 .83.09 1.2.24.36.16.64.36.82.62.18.25.3.55.38.9.05.23.07.63.07 1.2v4.44h-1.23v-4.4c0-.5-.04-.87-.14-1.12a1.2 1.2 0 0 0-.5-.59 1.57 1.57 0 0 0-.86-.22 2 2 0 0 0-1.35.5c-.38.32-.57.95-.57 1.88v3.94h-1.22Zm12.47-.9a3.76 3.76 0 0 1-2.66 1.06c-.8 0-1.4-.2-1.83-.58a1.93 1.93 0 0 1-.64-1.49 1.98 1.98 0 0 1 .87-1.67c.26-.18.56-.31.88-.4.25-.07.6-.13 1.1-.19a11.8 11.8 0 0 0 2.18-.42v-.32c0-.5-.11-.85-.34-1.06-.32-.27-.78-.41-1.4-.41-.57 0-1 .1-1.28.3-.27.2-.47.56-.6 1.07l-1.2-.16c.1-.51.29-.93.54-1.24.25-.31.6-.56 1.08-.73a4.78 4.78 0 0 1 1.64-.25c.62 0 1.12.07 1.5.21.39.15.67.33.85.55.18.22.31.5.38.84.05.2.06.58.06 1.12v1.64c0 1.14.03 1.86.08 2.16.06.3.16.59.31.87h-1.28c-.12-.26-.2-.56-.24-.9Zm-.1-2.73c-.45.18-1.11.33-2 .46-.5.07-.86.16-1.07.25a1.06 1.06 0 0 0-.29 1.8c.25.21.62.32 1.1.32.46 0 .88-.1 1.25-.3.37-.22.64-.5.81-.86.13-.27.2-.68.2-1.22v-.45Zm11.73.98 1.2.15a3.12 3.12 0 0 1-1 1.96 3 3 0 0 1-2 .7c-.99 0-1.78-.32-2.39-.97-.6-.65-.9-1.57-.9-2.78 0-.78.13-1.46.4-2.05a2.7 2.7 0 0 1 1.17-1.31 3.5 3.5 0 0 1 1.73-.44c.78 0 1.42.2 1.92.6.5.39.82.95.96 1.68l-1.19.19a1.97 1.97 0 0 0-.6-1.1 1.55 1.55 0 0 0-1.05-.37 1.9 1.9 0 0 0-1.5.67c-.38.44-.58 1.14-.58 2.1 0 .97.19 1.67.56 2.11.37.44.86.66 1.46.66.48 0 .88-.15 1.2-.44.32-.3.53-.75.61-1.36Zm1.8-.97c0-1.34.37-2.33 1.12-2.97.62-.54 1.38-.8 2.27-.8 1 0 1.8.32 2.43.97.63.65.95 1.55.95 2.7 0 .93-.14 1.66-.42 2.2-.28.53-.68.94-1.22 1.24-.53.3-1.11.44-1.74.44a3.26 3.26 0 0 1-2.46-.97c-.62-.65-.93-1.59-.93-2.8Zm1.26 0c0 .93.2 1.62.6 2.08.4.46.92.7 1.53.7.6 0 1.11-.24 1.52-.7.4-.47.6-1.17.6-2.12 0-.9-.2-1.57-.61-2.03-.4-.46-.9-.7-1.51-.7s-1.12.24-1.53.7c-.4.46-.6 1.15-.6 2.07Zm6.95 3.62v-7.23h1.1v1.03a2.6 2.6 0 0 1 2.3-1.2c.44 0 .84.09 1.2.24.37.16.64.36.82.62.19.25.31.55.39.9.04.23.06.63.06 1.2v4.44h-1.22v-4.4c0-.5-.05-.87-.14-1.12-.1-.25-.27-.44-.51-.59a1.58 1.58 0 0 0-.85-.22 2 2 0 0 0-1.36.5c-.37.32-.56.95-.56 1.88v3.94h-1.23Zm7.27-2.16 1.21-.2c.07.5.26.86.56 1.12a2 2 0 0 0 1.31.4c.56 0 .98-.12 1.25-.35a1 1 0 0 0 .41-.8c0-.29-.12-.5-.36-.66a5.24 5.24 0 0 0-1.25-.42 11.6 11.6 0 0 1-1.87-.58c-.35-.17-.61-.4-.8-.69a1.93 1.93 0 0 1 .56-2.55c.2-.14.46-.26.78-.36a4.14 4.14 0 0 1 2.55.1c.43.16.75.39.96.67.2.27.34.65.42 1.11l-1.2.17a1.3 1.3 0 0 0-.48-.87 1.68 1.68 0 0 0-1.1-.32c-.56 0-.96.1-1.2.28-.24.19-.36.4-.36.66 0 .15.05.3.15.42.1.14.25.24.47.33.12.04.48.15 1.08.31.87.23 1.47.42 1.8.57.35.15.62.36.82.64a2.06 2.06 0 0 1-.07 2.2c-.24.37-.58.65-1.03.84-.45.2-.96.3-1.52.3a3.4 3.4 0 0 1-2.15-.59 2.7 2.7 0 0 1-.94-1.73Zm12.4-.17 1.27.15a3.1 3.1 0 0 1-1.11 1.73c-.54.4-1.23.6-2.07.6-1.06 0-1.9-.32-2.52-.97a3.84 3.84 0 0 1-.92-2.74c0-1.21.31-2.16.94-2.83.62-.67 1.44-1 2.43-1 .97 0 1.76.32 2.37.98.61.66.92 1.59.92 2.78v.32h-5.4c.05.8.27 1.4.68 1.83a2 2 0 0 0 1.5.63c.46 0 .84-.12 1.16-.35.31-.24.57-.62.75-1.13Zm-4.02-1.98h4.04a2.44 2.44 0 0 0-.47-1.37c-.39-.47-.9-.7-1.51-.7-.57 0-1.04.18-1.43.56-.38.37-.59.88-.63 1.5Zm11.44 7.07v-3.53a2.2 2.2 0 0 1-.8.66c-.34.18-.7.27-1.1.27a2.9 2.9 0 0 1-2.21-1.03 4.06 4.06 0 0 1-.93-2.82c0-.72.13-1.37.38-1.95a2.82 2.82 0 0 1 2.67-1.75c.9 0 1.6.37 2.11 1.13v-.97h1.1v10h-1.22Zm-3.78-6.4c0 .93.2 1.63.59 2.1a1.72 1.72 0 0 0 2.75.03c.37-.44.56-1.12.56-2.02 0-.96-.2-1.69-.6-2.17-.4-.49-.86-.73-1.4-.73-.52 0-.97.23-1.35.68-.36.45-.55 1.15-.55 2.11Zm11.66 3.63v-1.06a2.64 2.64 0 0 1-2.29 1.23 2.9 2.9 0 0 1-1.2-.25 2 2 0 0 1-.82-.6c-.18-.26-.3-.56-.37-.92a6.2 6.2 0 0 1-.08-1.14v-4.48h1.23v4c0 .65.02 1.08.07 1.3.08.32.24.58.5.76.24.18.55.27.92.27s.7-.09 1.03-.28c.32-.19.55-.44.68-.76.14-.33.2-.8.2-1.42v-3.87h1.23v7.22h-1.1Zm7.74-.89a3.75 3.75 0 0 1-2.66 1.06c-.8 0-1.4-.2-1.83-.58a1.93 1.93 0 0 1-.64-1.49 2 2 0 0 1 .87-1.67c.26-.18.56-.31.89-.4.24-.07.6-.13 1.08-.19 1-.12 1.72-.26 2.19-.42v-.32c0-.5-.1-.85-.34-1.06-.31-.27-.78-.41-1.4-.41-.57 0-1 .1-1.27.3-.28.2-.48.56-.61 1.07l-1.2-.16c.11-.51.29-.93.54-1.24a2.4 2.4 0 0 1 1.08-.73 4.78 4.78 0 0 1 1.64-.25c.62 0 1.12.07 1.5.21.4.15.67.33.86.55.18.22.3.5.38.84.04.2.06.58.06 1.12v1.64c0 1.14.02 1.86.07 2.16.06.3.16.59.32.87h-1.28a2.7 2.7 0 0 1-.25-.9Zm-.1-2.73c-.44.18-1.11.33-2 .46-.5.07-.86.16-1.07.25a1.05 1.05 0 0 0-.65.98c0 .32.12.6.37.81.24.22.6.33 1.08.33.48 0 .9-.1 1.26-.3.37-.22.64-.5.81-.86.13-.27.2-.68.2-1.22v-.45Zm5.82 2.53.17 1.08c-.34.07-.65.11-.92.11a2.1 2.1 0 0 1-1.04-.21 1.19 1.19 0 0 1-.51-.55 4.4 4.4 0 0 1-.15-1.45v-4.16h-.9v-.95h.9v-1.8l1.22-.72v2.52h1.23v.95h-1.23v4.23c0 .35.02.57.06.67.04.1.11.18.2.24.1.06.25.09.43.09.13 0 .31-.02.54-.05Zm1.55 1.1v-1.4h1.4v1.4h-1.4Z" fill="#333"/><rect x="102.1" y="183.39" width="139.92" height="32.15" rx="2.65" fill="#0F67F5"/><path d="M130.91 204.46v-10.13h3.8c.78 0 1.43.14 1.96.43.53.3.93.7 1.2 1.2.28.5.41 1.08.41 1.72 0 .65-.13 1.23-.4 1.74-.28.5-.69.9-1.22 1.19a4.1 4.1 0 0 1-1.97.43h-2.52v-1.51h2.27c.45 0 .83-.08 1.12-.24.29-.16.5-.37.64-.65s.21-.6.21-.95c0-.37-.07-.68-.2-.96a1.45 1.45 0 0 0-.66-.63 2.37 2.37 0 0 0-1.12-.24h-1.68v8.6h-1.84Zm8.89 0v-7.6h1.74v1.27h.08a1.9 1.9 0 0 1 1.87-1.38 4.08 4.08 0 0 1 .64.05v1.65a3.33 3.33 0 0 0-.83-.1c-.32 0-.62.07-.88.21a1.57 1.57 0 0 0-.83 1.44v4.46h-1.8Zm5.52 0v-7.6h1.8v7.6h-1.8Zm.9-8.68c-.28 0-.52-.09-.73-.28a.9.9 0 0 1-.3-.69c0-.27.1-.5.3-.68a1 1 0 0 1 .73-.29c.3 0 .54.1.74.29.2.19.3.41.3.69 0 .26-.1.5-.3.68-.2.19-.45.28-.74.28Zm2.74 8.68v-7.6h1.71v1.3h.09a2 2 0 0 1 .79-1.03c.36-.24.8-.37 1.3-.37.52 0 .96.13 1.3.38a2 2 0 0 1 .76 1.02h.08c.17-.43.45-.76.85-1.01.4-.26.88-.39 1.43-.39.7 0 1.27.23 1.71.67.45.44.67 1.08.67 1.93v5.1h-1.8v-4.82c0-.47-.13-.82-.38-1.03a1.34 1.34 0 0 0-.92-.34c-.43 0-.77.14-1.01.4a1.5 1.5 0 0 0-.36 1.05v4.74h-1.76v-4.9c0-.39-.12-.7-.35-.94a1.25 1.25 0 0 0-.93-.35 1.38 1.38 0 0 0-1.2.75c-.13.23-.2.5-.2.82v4.62h-1.78Zm14.7.16c-.5 0-.92-.09-1.31-.26a2.12 2.12 0 0 1-.91-.77 2.26 2.26 0 0 1-.33-1.26c0-.43.08-.78.23-1.06.16-.28.38-.5.65-.68.28-.16.58-.3.93-.38.34-.09.7-.15 1.07-.19l1.09-.12c.27-.04.47-.1.6-.18.13-.08.2-.21.2-.38v-.03c0-.38-.12-.66-.34-.87-.22-.2-.54-.3-.95-.3-.44 0-.8.1-1.05.28-.25.2-.42.42-.51.68l-1.68-.24a2.66 2.66 0 0 1 1.77-1.86 4.73 4.73 0 0 1 2.55-.1c.36.08.7.22 1 .42.3.2.54.46.72.8.18.33.27.75.27 1.26v5.08h-1.72v-1.04h-.06a2.2 2.2 0 0 1-1.2 1.03c-.29.11-.63.17-1.03.17Zm.46-1.32c.35 0 .67-.07.93-.21.26-.15.47-.34.61-.58.15-.23.22-.5.22-.77v-.9a.83.83 0 0 1-.29.13 12.76 12.76 0 0 1-1.35.24c-.27.04-.51.1-.72.18-.21.08-.38.2-.5.35a.85.85 0 0 0-.19.56c0 .33.13.58.36.75.25.17.55.25.93.25Zm5.34 1.16v-7.6h1.74v1.27h.08a1.9 1.9 0 0 1 1.88-1.38 4.1 4.1 0 0 1 .64.05v1.65a3.32 3.32 0 0 0-.83-.1c-.33 0-.62.07-.88.21a1.56 1.56 0 0 0-.83 1.44v4.46h-1.8Zm6.88 2.85a3.67 3.67 0 0 1-1.17-.18l.41-1.4c.26.08.5.11.7.11.2 0 .38-.07.54-.2.16-.12.3-.32.4-.6l.15-.42-2.75-7.76h1.9l1.75 5.74h.08l1.75-5.74h1.91l-3.04 8.52c-.15.4-.33.75-.57 1.04-.23.29-.52.51-.86.66-.33.16-.74.23-1.2.23Zm19.12-9.56h-1.85a2.29 2.29 0 0 0-.82-1.41 2.21 2.21 0 0 0-.72-.37 2.84 2.84 0 0 0-2.33.28c-.43.28-.76.68-1 1.21a4.65 4.65 0 0 0-.37 1.94c0 .77.12 1.42.37 1.96.24.52.57.92 1 1.2a2.96 2.96 0 0 0 2.31.28c.26-.09.5-.2.71-.37a2.14 2.14 0 0 0 .85-1.37h1.85a3.98 3.98 0 0 1-2.64 3.24 5.1 5.1 0 0 1-1.65.26 4.31 4.31 0 0 1-4.04-2.4c-.4-.78-.6-1.71-.6-2.8a6 6 0 0 1 .6-2.8 4.34 4.34 0 0 1 4.04-2.4c.56 0 1.09.07 1.57.23a3.98 3.98 0 0 1 2.24 1.82c.24.43.4.94.48 1.5Zm1.24-1.88v-1.54h8.08v1.54h-3.13v8.6h-1.82v-8.6h-3.13Zm9.72 8.6h-1.96l3.56-10.14h2.27l3.57 10.13h-1.96l-2.7-8.05h-.08l-2.7 8.05Zm.06-3.98h5.35v1.47h-5.35v-1.47Z" fill="#fff"/><path d="M103.9 260.08v-17.57h3.54v6.92h6.96v-6.92h3.54v17.57h-3.54v-7.68h-6.96v7.68h-3.55Zm25.07-4.05 3.36.57a5.53 5.53 0 0 1-2.05 2.81 6 6 0 0 1-3.49.96c-2.21 0-3.85-.72-4.91-2.17a7.3 7.3 0 0 1-1.26-4.39c0-2.1.55-3.76 1.65-4.95 1.1-1.2 2.5-1.8 4.19-1.8 1.9 0 3.39.63 4.48 1.89 1.1 1.24 1.62 3.16 1.57 5.74h-8.44c.03 1 .3 1.78.82 2.34.52.55 1.16.82 1.94.82.53 0 .97-.14 1.33-.43.36-.29.63-.75.81-1.39Zm.2-3.4c-.03-.98-.28-1.72-.76-2.22a2.3 2.3 0 0 0-1.75-.77c-.73 0-1.34.27-1.82.8a3.1 3.1 0 0 0-.7 2.19h5.03Zm8.62-1.4-3.06-.54a4.76 4.76 0 0 1 1.77-2.74c.84-.59 2.09-.88 3.74-.88a8 8 0 0 1 3.36.53c.74.36 1.25.8 1.55 1.36.3.54.45 1.55.45 3l-.03 3.94c0 1.12.05 1.95.15 2.48.11.53.32 1.1.61 1.7H143a12.03 12.03 0 0 1-.44-1.39c-.58.56-1.2.98-1.85 1.26-.66.28-1.35.42-2.1.42a4.36 4.36 0 0 1-3.1-1.06 3.56 3.56 0 0 1-1.13-2.7c0-.72.17-1.36.52-1.92.34-.57.82-1 1.44-1.3.62-.3 1.51-.56 2.68-.79 1.57-.3 2.67-.57 3.27-.82v-.34c0-.65-.16-1.1-.48-1.38-.32-.28-.92-.42-1.8-.42-.6 0-1.07.12-1.4.36-.35.23-.62.65-.83 1.24Zm4.5 2.74c-.43.14-1.11.32-2.05.52-.93.2-1.54.4-1.83.58a1.4 1.4 0 0 0-.66 1.19c0 .47.18.88.53 1.22.35.35.8.52 1.34.52.6 0 1.19-.2 1.74-.6.4-.3.67-.68.8-1.12.09-.28.13-.83.13-1.64v-.67Zm18.32 6.11h-3.13v-1.87a5.1 5.1 0 0 1-1.84 1.63c-.7.36-1.42.53-2.14.53a4.87 4.87 0 0 1-3.76-1.76c-1.04-1.18-1.56-2.83-1.56-4.94 0-2.16.5-3.8 1.52-4.91a4.95 4.95 0 0 1 7.54.08v-6.33h3.37v17.57Zm-8.99-6.64c0 1.36.19 2.34.56 2.95.55.88 1.3 1.32 2.28 1.32.78 0 1.44-.33 1.98-.98.54-.67.81-1.65.81-2.96 0-1.47-.26-2.52-.79-3.16a2.5 2.5 0 0 0-2.02-.97c-.8 0-1.47.32-2.02.96-.53.63-.8 1.58-.8 2.84Zm12.32 6.64v-17.57h3.37v17.57h-3.37Zm6.84-14.45v-3.12h3.37v3.12h-3.37Zm0 14.45v-12.73h3.37v12.73h-3.37Zm18.41 0h-3.37v-6.5c0-1.37-.07-2.26-.21-2.66a1.86 1.86 0 0 0-1.87-1.28c-.59 0-1.11.16-1.58.48-.46.32-.78.75-.95 1.27-.17.53-.26 1.5-.26 2.93v5.76h-3.36v-12.73h3.13v1.87a5.1 5.1 0 0 1 4.19-2.16c.74 0 1.42.14 2.04.41a3.31 3.31 0 0 1 2.05 2.44c.13.52.19 1.28.19 2.26v7.91Zm10.8-4.05 3.36.57a5.53 5.53 0 0 1-2.05 2.81 6 6 0 0 1-3.49.96c-2.21 0-3.85-.72-4.91-2.17a7.29 7.29 0 0 1-1.26-4.39c0-2.1.55-3.76 1.65-4.95 1.1-1.2 2.5-1.8 4.18-1.8 1.9 0 3.4.63 4.49 1.89 1.1 1.24 1.62 3.16 1.57 5.74h-8.44c.02 1 .3 1.78.81 2.34.52.55 1.17.82 1.95.82.52 0 .97-.14 1.33-.43.36-.29.63-.75.81-1.39Zm.2-3.4c-.03-.98-.28-1.72-.76-2.22a2.3 2.3 0 0 0-1.75-.77c-.74 0-1.34.27-1.82.8a3.1 3.1 0 0 0-.71 2.19h5.03Zm11.45-5.28h1.87v-.96c0-1.07.12-1.87.34-2.4a2.7 2.7 0 0 1 1.26-1.28c.61-.33 1.39-.5 2.32-.5.96 0 1.9.14 2.82.43l-.45 2.35a6.65 6.65 0 0 0-1.55-.2c-.49 0-.84.13-1.06.36-.2.22-.3.66-.3 1.3v.9h2.51V250h-2.52v10.08h-3.37V250h-1.87v-2.65Zm8.88 6.19c0-1.12.27-2.2.82-3.25a5.7 5.7 0 0 1 2.34-2.4 7 7 0 0 1 3.4-.82 6.35 6.35 0 0 1 6.57 6.61c0 1.93-.62 3.53-1.87 4.8a6.3 6.3 0 0 1-4.68 1.9 7.42 7.42 0 0 1-3.35-.8 5.44 5.44 0 0 1-2.4-2.31 7.77 7.77 0 0 1-.84-3.73Zm3.45.18c0 1.26.3 2.23.9 2.9.6.67 1.34 1 2.21 1 .88 0 1.62-.33 2.21-1 .6-.67.9-1.65.9-2.93 0-1.24-.3-2.2-.9-2.87a2.84 2.84 0 0 0-2.2-1.01 2.9 2.9 0 0 0-2.22 1c-.6.68-.9 1.65-.9 2.9Zm15.56 6.36h-3.37v-12.73h3.13v1.81a5.49 5.49 0 0 1 1.44-1.69c.43-.27.92-.4 1.46-.4.77 0 1.5.2 2.22.63l-1.05 2.94a2.96 2.96 0 0 0-1.58-.55c-.47 0-.87.13-1.2.4-.33.25-.58.72-.78 1.4-.18.67-.27 2.1-.27 4.26v3.93Zm11.99-3.63 3.38-.51c.14.65.43 1.15.87 1.5.44.33 1.06.5 1.85.5.87 0 1.52-.16 1.96-.48.3-.22.45-.52.45-.9a.88.88 0 0 0-.24-.64 2.8 2.8 0 0 0-1.13-.44c-2.72-.6-4.44-1.15-5.17-1.64a3.28 3.28 0 0 1-1.5-2.87c0-1.1.43-2.03 1.3-2.78.87-.75 2.22-1.13 4.05-1.13 1.74 0 3.04.29 3.89.86.84.56 1.43 1.4 1.75 2.51l-3.18.6c-.14-.5-.4-.88-.78-1.15a2.8 2.8 0 0 0-1.62-.4 3.6 3.6 0 0 0-1.9.38.8.8 0 0 0-.39.68c0 .24.11.45.34.61.3.23 1.35.54 3.14.95 1.8.4 3.05.9 3.76 1.5.7.6 1.06 1.43 1.06 2.5 0 1.17-.49 2.17-1.46 3.01-.98.84-2.42 1.26-4.33 1.26a7.18 7.18 0 0 1-4.13-1.05c-1-.7-1.66-1.66-1.97-2.87Zm22.22-.42 3.36.57a5.53 5.53 0 0 1-2.05 2.81 6 6 0 0 1-3.49.96c-2.21 0-3.85-.72-4.92-2.17a7.3 7.3 0 0 1-1.25-4.39c0-2.1.55-3.76 1.65-4.95 1.1-1.2 2.5-1.8 4.18-1.8 1.9 0 3.4.63 4.49 1.89 1.1 1.24 1.62 3.16 1.57 5.74h-8.44c.02 1 .3 1.78.81 2.34.52.55 1.17.82 1.95.82.52 0 .97-.14 1.33-.43.36-.29.63-.75.81-1.39Zm.2-3.4c-.03-.98-.28-1.72-.76-2.22a2.3 2.3 0 0 0-1.75-.77c-.74 0-1.34.27-1.82.8a3.1 3.1 0 0 0-.71 2.19h5.03Zm17.2-1.51-3.32.6a2.4 2.4 0 0 0-.77-1.5c-.4-.34-.9-.5-1.54-.5-.83 0-1.5.29-2.01.87-.5.57-.74 1.54-.74 2.9 0 1.51.25 2.58.75 3.2.51.63 1.2.94 2.05.94.64 0 1.17-.18 1.57-.54.41-.37.7-1 .87-1.88l3.3.56a5.87 5.87 0 0 1-1.97 3.44 6.12 6.12 0 0 1-3.92 1.16 5.85 5.85 0 0 1-4.46-1.76c-1.1-1.18-1.66-2.8-1.66-4.88 0-2.1.56-3.74 1.67-4.9a5.9 5.9 0 0 1 4.5-1.77 6.1 6.1 0 0 1 3.7 1.01 5.5 5.5 0 0 1 1.98 3.05Zm1.78 2.42c0-1.12.28-2.2.83-3.25a5.69 5.69 0 0 1 2.34-2.4 7 7 0 0 1 3.39-.82 6.34 6.34 0 0 1 6.58 6.61c0 1.93-.62 3.53-1.87 4.8a6.3 6.3 0 0 1-4.69 1.9 7.42 7.42 0 0 1-3.34-.8 5.44 5.44 0 0 1-2.41-2.31 7.76 7.76 0 0 1-.83-3.73Zm3.45.18c0 1.26.3 2.23.9 2.9.6.67 1.34 1 2.22 1 .88 0 1.62-.33 2.2-1 .6-.67.9-1.65.9-2.93 0-1.24-.3-2.2-.9-2.87a2.8 2.8 0 0 0-2.2-1.01 2.9 2.9 0 0 0-2.22 1c-.6.68-.9 1.65-.9 2.9Zm23.92 6.36h-3.37v-6.5c0-1.37-.07-2.26-.21-2.66a1.86 1.86 0 0 0-1.87-1.28c-.59 0-1.11.16-1.57.48-.47.32-.79.75-.96 1.27-.17.53-.25 1.5-.25 2.93v5.76h-3.37v-12.73h3.13v1.87a5.1 5.1 0 0 1 4.2-2.16 5 5 0 0 1 2.03.41 3.3 3.3 0 0 1 2.05 2.44c.13.52.2 1.28.2 2.26v7.91Zm15.1 0h-3.12v-1.87a5.08 5.08 0 0 1-1.85 1.63 4.6 4.6 0 0 1-2.13.53 4.87 4.87 0 0 1-3.77-1.76c-1.04-1.18-1.56-2.83-1.56-4.94 0-2.16.51-3.8 1.53-4.91a4.96 4.96 0 0 1 7.54.08v-6.33h3.37v17.57Zm-8.99-6.64c0 1.36.2 2.34.57 2.95.54.88 1.3 1.32 2.28 1.32.77 0 1.43-.33 1.98-.98.54-.67.81-1.65.81-2.96 0-1.47-.26-2.52-.8-3.16a2.5 2.5 0 0 0-2.02-.97c-.8 0-1.47.32-2.01.96-.54.63-.8 1.58-.8 2.84Zm14.85-2.2-3.06-.56a4.76 4.76 0 0 1 1.77-2.73c.84-.59 2.09-.88 3.74-.88a8 8 0 0 1 3.36.53c.74.36 1.25.8 1.55 1.36.3.54.45 1.55.45 3l-.03 3.94c0 1.12.05 1.95.15 2.48.12.53.32 1.1.61 1.7h-3.33a12.43 12.43 0 0 1-.44-1.39c-.58.56-1.2.98-1.85 1.26-.65.28-1.35.42-2.1.42a4.36 4.36 0 0 1-3.1-1.06 3.56 3.56 0 0 1-1.13-2.7c0-.72.17-1.36.52-1.92.34-.57.82-1 1.44-1.3.62-.3 1.51-.56 2.68-.79 1.58-.3 2.67-.57 3.27-.82v-.34c0-.65-.16-1.1-.48-1.38-.31-.28-.92-.42-1.8-.42-.6 0-1.07.12-1.4.36-.34.23-.62.65-.82 1.24Zm4.5 2.73c-.43.14-1.11.32-2.05.52-.93.2-1.54.4-1.83.58a1.4 1.4 0 0 0-.66 1.19c0 .47.18.88.53 1.22.35.35.8.52 1.34.52.6 0 1.19-.2 1.74-.6.4-.3.67-.68.8-1.12.09-.28.13-.83.13-1.64v-.67Zm9.87 6.11h-3.37v-12.73h3.13v1.81a5.49 5.49 0 0 1 1.44-1.69c.43-.27.92-.4 1.46-.4.77 0 1.5.2 2.22.63l-1.04 2.94a2.96 2.96 0 0 0-1.59-.55c-.47 0-.87.13-1.2.4-.32.25-.58.72-.77 1.4-.19.67-.28 2.1-.28 4.26v3.93Zm4.75-12.73h3.58l3.05 9.04 2.97-9.04h3.49l-4.5 12.25-.8 2.22c-.3.75-.58 1.31-.85 1.7-.26.4-.57.71-.93.95-.34.25-.77.44-1.28.58-.5.13-1.07.2-1.71.2-.65 0-1.28-.07-1.9-.2l-.3-2.64c.52.1 1 .16 1.42.16.78 0 1.36-.24 1.74-.7.37-.45.66-1.04.86-1.75l-4.84-12.77Zm33.2 3.77-3.33.6a2.4 2.4 0 0 0-.77-1.5c-.39-.34-.9-.5-1.53-.5-.84 0-1.51.29-2.01.87-.5.57-.75 1.54-.75 2.9 0 1.51.25 2.58.76 3.2.5.63 1.2.94 2.05.94.64 0 1.16-.18 1.57-.54.4-.37.7-1 .86-1.88l3.31.56a5.87 5.87 0 0 1-1.98 3.44 6.12 6.12 0 0 1-3.92 1.16 5.84 5.84 0 0 1-4.46-1.76c-1.1-1.18-1.65-2.8-1.65-4.88 0-2.1.55-3.74 1.66-4.9a5.9 5.9 0 0 1 4.51-1.77 6.1 6.1 0 0 1 3.7 1.01 5.5 5.5 0 0 1 1.97 3.05Zm1.78 2.42c0-1.12.27-2.2.83-3.25a5.69 5.69 0 0 1 2.33-2.4 7 7 0 0 1 3.4-.82 6.34 6.34 0 0 1 6.58 6.61 6.6 6.6 0 0 1-1.87 4.8 6.3 6.3 0 0 1-4.69 1.9 7.43 7.43 0 0 1-3.35-.8 5.43 5.43 0 0 1-2.4-2.31 7.76 7.76 0 0 1-.83-3.73Zm3.45.18c0 1.26.3 2.23.9 2.9.6.67 1.34 1 2.22 1a2.8 2.8 0 0 0 2.2-1c.6-.67.9-1.65.9-2.93 0-1.24-.3-2.2-.9-2.87a2.81 2.81 0 0 0-2.2-1.01 2.9 2.9 0 0 0-2.22 1c-.6.68-.9 1.65-.9 2.9Zm23.92 6.36h-3.37v-6.5c0-1.37-.07-2.26-.22-2.66a1.86 1.86 0 0 0-1.87-1.28c-.58 0-1.1.16-1.57.48-.46.32-.78.75-.96 1.27-.17.53-.25 1.5-.25 2.93v5.76h-3.37v-12.73h3.13v1.87a5.1 5.1 0 0 1 4.2-2.16c.74 0 1.42.14 2.04.41a3.32 3.32 0 0 1 2.04 2.44c.13.52.2 1.28.2 2.26v7.91Zm9.26-12.73v2.69h-2.3v5.13c0 1.04.02 1.65.06 1.82.05.17.15.3.3.42a1 1 0 0 0 .58.17c.3 0 .76-.1 1.35-.32l.29 2.6a6.7 6.7 0 0 1-2.66.51c-.6 0-1.16-.1-1.64-.3-.5-.2-.85-.47-1.08-.79a3.21 3.21 0 0 1-.47-1.32c-.07-.39-.1-1.18-.1-2.37v-5.55h-1.56v-2.69h1.55v-2.53l3.38-1.96v4.5h2.3Zm9.71 8.68 3.36.57a5.53 5.53 0 0 1-2.05 2.81 6 6 0 0 1-3.49.96c-2.21 0-3.85-.72-4.91-2.17a7.3 7.3 0 0 1-1.26-4.39c0-2.1.55-3.76 1.65-4.95 1.1-1.2 2.5-1.8 4.19-1.8 1.9 0 3.38.63 4.48 1.89 1.1 1.24 1.62 3.16 1.57 5.74h-8.44c.02 1 .3 1.78.82 2.34.52.55 1.16.82 1.94.82.53 0 .97-.14 1.33-.43.36-.29.63-.75.81-1.39Zm.2-3.4c-.03-.98-.28-1.72-.76-2.22a2.3 2.3 0 0 0-1.75-.77c-.74 0-1.34.27-1.82.8a3.1 3.1 0 0 0-.7 2.19h5.03Zm17.68 7.45h-3.37v-6.5c0-1.37-.07-2.26-.22-2.66a1.86 1.86 0 0 0-1.87-1.28c-.58 0-1.1.16-1.57.48-.46.32-.78.75-.96 1.27-.16.53-.25 1.5-.25 2.93v5.76h-3.37v-12.73h3.13v1.87a5.1 5.1 0 0 1 4.2-2.16c.74 0 1.42.14 2.04.41a3.3 3.3 0 0 1 2.05 2.44c.13.52.19 1.28.19 2.26v7.91Zm9.26-12.73v2.69h-2.3v5.13c0 1.04.02 1.65.06 1.82.05.17.15.3.3.42.16.11.36.17.58.17.31 0 .76-.1 1.35-.32l.3 2.6c-.8.34-1.68.51-2.67.51-.6 0-1.15-.1-1.64-.3-.49-.2-.85-.47-1.08-.79a3.24 3.24 0 0 1-.47-1.32c-.07-.39-.1-1.18-.1-2.37v-5.55h-1.55v-2.69h1.54v-2.53l3.38-1.96v4.5h2.3Zm14.76 17.9h-2.31a23.29 23.29 0 0 1-2.8-5.75 18.15 18.15 0 0 1 .23-12.34 23.03 23.03 0 0 1 2.62-4.95h2.3a36.63 36.63 0 0 0-2.27 6.19 22.98 22.98 0 0 0-.25 9.42 26.72 26.72 0 0 0 2.48 7.43Zm2.63-5.17v-17.57h3.55v6.92h6.95v-6.92h3.55v17.57h-3.55v-7.68h-6.95v7.68h-3.55Zm28.36-3.13v3.13h-11.8a8.1 8.1 0 0 1 1.14-3.35c.64-1.07 1.9-2.47 3.8-4.22a23.86 23.86 0 0 0 2.79-2.88c.46-.7.7-1.38.7-2.06 0-.75-.21-1.33-.62-1.73-.4-.4-.95-.6-1.67-.6-.7 0-1.26.2-1.68.63-.41.42-.65 1.12-.71 2.1l-3.36-.33c.2-1.85.83-3.18 1.88-4a6.32 6.32 0 0 1 3.96-1.2c1.73 0 3.1.47 4.09 1.4a4.6 4.6 0 0 1 1.48 3.49c0 .79-.14 1.54-.43 2.26a9.05 9.05 0 0 1-1.34 2.25c-.41.52-1.14 1.26-2.2 2.24a37.95 37.95 0 0 0-2.03 1.94 6 6 0 0 0-.69.94h6.7Zm2.08 8.3a23.96 23.96 0 0 0 2.16-5.9c.23-.99.4-1.93.5-2.81a22.98 22.98 0 0 0-.44-8.14 34.8 34.8 0 0 0-2.25-6.19h2.3a21.88 21.88 0 0 1 2.8 5.47c.67 1.92 1 3.88 1 5.86 0 1.67-.26 3.46-.79 5.37a22.58 22.58 0 0 1-2.96 6.34h-2.32Z" fill="#333"/><path fill="#F6F6F6" d="M102.1 286.63h195.75v118.1H102.1z"/><path d="M225.23 373.55h-50.52a2.6 2.6 0 0 1-2.6-2.6v-50.53a2.6 2.6 0 0 1 2.6-2.6h50.52a2.62 2.62 0 0 1 2.61 2.6v50.52a2.6 2.6 0 0 1-2.6 2.61Zm-47.9-5.26h45.3v-45.26h-45.3v45.3-.04Z" fill="#545454"/><path d="M216.81 373.55c-.67 0-1.35-.25-1.85-.76l-29-29-9.35 9.39a2.64 2.64 0 0 1-3.7 0 2.64 2.64 0 0 1 0-3.7l11.23-11.25a2.73 2.73 0 0 1 3.7 0l30.87 30.86a2.64 2.64 0 0 1 0 3.7c-.51.5-1.18.76-1.86.76h-.04Zm-12.63-30.85a9.67 9.67 0 0 1-9.64-9.65c0-5.3 4.34-9.64 9.64-9.64 5.3 0 9.64 4.34 9.64 9.64 0 5.3-4.33 9.64-9.64 9.64Zm0-14.03a4.4 4.4 0 0 0-4.38 4.38 4.4 4.4 0 0 0 4.38 4.38 4.4 4.4 0 0 0 4.38-4.38 4.4 4.4 0 0 0-4.38-4.38Z" fill="#545454"/><path d="M204.18 360.92c-.67 0-1.35-.25-1.85-.76a2.64 2.64 0 0 1 0-3.7l21.05-21.05a2.64 2.64 0 0 1 3.7 0 2.64 2.64 0 0 1 0 3.7l-21.05 21.05c-.5.5-1.18.76-1.85.76Z" fill="#545454"/><path d="M320.44 299.63v-13.3h2.69v5.23h5.26v-5.23h2.68v13.3h-2.68v-5.82h-5.26v5.82h-2.69Zm18.98-3.07 2.54.43a4.19 4.19 0 0 1-1.55 2.13c-.7.48-1.58.72-2.64.72-1.68 0-2.92-.54-3.72-1.64a5.52 5.52 0 0 1-.95-3.32c0-1.6.41-2.84 1.25-3.75a4.11 4.11 0 0 1 3.16-1.36c1.44 0 2.57.48 3.4 1.43.82.94 1.22 2.39 1.19 4.34h-6.4c.03.76.23 1.35.63 1.77.39.42.88.63 1.47.63.4 0 .73-.11 1-.33.27-.22.48-.57.62-1.05Zm.14-2.58c-.01-.74-.2-1.3-.57-1.68-.36-.38-.8-.58-1.32-.58-.56 0-1.02.2-1.38.61-.36.4-.54.96-.54 1.65h3.81Zm6.53-1.05-2.32-.42a3.6 3.6 0 0 1 1.35-2.06 4.92 4.92 0 0 1 2.83-.68 6.1 6.1 0 0 1 2.54.41c.55.27.94.61 1.17 1.03.23.4.34 1.17.34 2.27l-.03 2.98c0 .85.04 1.47.12 1.88.09.4.24.83.47 1.29h-2.53a9.6 9.6 0 0 1-.33-1.06c-.44.43-.9.75-1.4.96a4 4 0 0 1-1.59.31 3.3 3.3 0 0 1-2.35-.8 2.7 2.7 0 0 1-.85-2.05c0-.54.13-1.02.39-1.45.26-.43.62-.75 1.09-.98a8.44 8.44 0 0 1 2.03-.6c1.2-.22 2.02-.43 2.48-.62v-.25c0-.5-.12-.84-.37-1.05-.24-.21-.7-.32-1.37-.32-.45 0-.8.1-1.06.28-.25.17-.46.48-.61.93Zm3.4 2.07c-.32.1-.84.24-1.54.39-.71.15-1.17.3-1.4.44-.32.24-.49.54-.49.9s.13.67.4.93.6.39 1.02.39c.45 0 .9-.15 1.31-.46.3-.23.51-.5.6-.84a5 5 0 0 0 .1-1.24V295Zm13.87 4.63h-2.37v-1.42a3.65 3.65 0 0 1-3.01 1.64 3.7 3.7 0 0 1-2.85-1.34 5.47 5.47 0 0 1-1.18-3.74c0-1.63.39-2.87 1.15-3.72a3.75 3.75 0 0 1 5.71.07v-4.8h2.55v13.3Zm-6.8-5.03c0 1.03.14 1.77.42 2.23.41.67.99 1 1.73 1 .58 0 1.08-.25 1.5-.74.4-.5.61-1.25.61-2.24 0-1.11-.2-1.9-.6-2.4a1.9 1.9 0 0 0-1.53-.73c-.6 0-1.12.25-1.53.73-.4.48-.6 1.2-.6 2.15Zm9.32 5.03v-13.3h2.55v13.3h-2.55Zm5.17-10.94v-2.36h2.55v2.36h-2.55Zm0 10.94v-9.64h2.55v9.64h-2.55Zm13.94 0h-2.55v-4.92c0-1.04-.06-1.71-.17-2.01a1.4 1.4 0 0 0-1.41-.98c-.44 0-.84.13-1.19.37s-.6.56-.72.96a8.5 8.5 0 0 0-.2 2.21v4.37h-2.54v-9.64h2.36v1.42a3.86 3.86 0 0 1 3.18-1.64c.56 0 1.07.1 1.54.31a2.51 2.51 0 0 1 1.55 1.84c.1.4.15.97.15 1.72v5.99Zm8.17-3.07 2.54.43a4.19 4.19 0 0 1-1.55 2.13c-.7.48-1.58.72-2.64.72-1.68 0-2.91-.54-3.72-1.64a5.52 5.52 0 0 1-.95-3.32c0-1.6.42-2.84 1.25-3.75a4.11 4.11 0 0 1 3.17-1.36c1.43 0 2.56.48 3.39 1.43.83.94 1.22 2.39 1.19 4.34h-6.39c.02.76.23 1.35.62 1.77.4.42.88.63 1.47.63.4 0 .73-.11 1-.33a2 2 0 0 0 .62-1.05Zm.15-2.58c-.02-.74-.21-1.3-.57-1.68-.37-.38-.8-.58-1.33-.58-.56 0-1.02.2-1.38.61-.36.4-.54.96-.53 1.65h3.8Zm14.2-3.99v2.03h-1.74v3.89c0 .78.02 1.24.05 1.38.03.12.1.23.22.31.13.09.27.13.44.13.23 0 .58-.08 1.02-.25l.22 1.98c-.6.26-1.26.38-2.01.38-.46 0-.88-.07-1.25-.22a1.89 1.89 0 0 1-.81-.6 2.42 2.42 0 0 1-.35-1c-.06-.3-.09-.9-.09-1.8v-4.2h-1.17V290h1.17v-1.91l2.56-1.5V290h1.74Zm7.35 6.57 2.54.43a4.19 4.19 0 0 1-1.55 2.13c-.7.48-1.58.72-2.64.72-1.67 0-2.91-.54-3.72-1.64a5.52 5.52 0 0 1-.95-3.32c0-1.6.42-2.84 1.25-3.75a4.11 4.11 0 0 1 3.17-1.36c1.43 0 2.56.48 3.39 1.43.83.94 1.22 2.39 1.19 4.34h-6.39c.02.76.23 1.35.62 1.77.4.42.88.63 1.47.63.4 0 .73-.11 1-.33a2 2 0 0 0 .62-1.05Zm.15-2.58c-.02-.74-.21-1.3-.57-1.68-.37-.38-.8-.58-1.33-.58-.56 0-1.01.2-1.38.61-.36.4-.54.96-.53 1.65h3.8Zm7.06 5.65h-2.55v-9.64h2.36v1.37a4 4 0 0 1 1.1-1.28c.32-.2.69-.3 1.1-.3.58 0 1.14.15 1.68.48l-.8 2.22a2.24 2.24 0 0 0-1.19-.42c-.36 0-.66.1-.9.3-.25.2-.45.55-.6 1.06-.13.51-.2 1.6-.2 3.23v2.98Zm9.21-9.64v2.03h-1.74v3.89c0 .78.01 1.24.05 1.38.03.12.1.23.22.31.12.09.27.13.44.13.23 0 .58-.08 1.02-.25l.22 1.98c-.6.26-1.26.38-2.01.38-.46 0-.88-.07-1.25-.22a1.89 1.89 0 0 1-.81-.6 2.42 2.42 0 0 1-.36-1c-.05-.3-.08-.9-.08-1.8v-4.2h-1.17V290h1.17v-1.91l2.56-1.5V290h1.74Zm1.77-1.3v-2.36h2.55v2.36h-2.55Zm0 10.94v-9.64h2.55v9.64h-2.55Zm7.08-6.7-2.32-.42a3.6 3.6 0 0 1 1.35-2.06 4.92 4.92 0 0 1 2.83-.68 6.1 6.1 0 0 1 2.54.41c.55.27.94.61 1.17 1.03.23.4.34 1.17.34 2.27l-.03 2.98c0 .85.04 1.47.12 1.88.09.4.24.83.47 1.29h-2.53a9.18 9.18 0 0 1-.33-1.06c-.44.43-.9.75-1.4.96a4 4 0 0 1-1.59.31 3.3 3.3 0 0 1-2.35-.8 2.69 2.69 0 0 1-.85-2.05 2.66 2.66 0 0 1 1.48-2.43 8.43 8.43 0 0 1 2.03-.6 13.9 13.9 0 0 0 2.48-.62v-.25c0-.5-.12-.84-.36-1.05-.25-.21-.7-.32-1.37-.32-.46 0-.81.1-1.07.28-.25.17-.45.48-.61.93Zm3.4 2.07c-.32.1-.83.24-1.54.39-.71.15-1.17.3-1.4.44-.32.24-.49.54-.49.9s.13.67.4.93c.26.26.6.39 1.01.39.47 0 .9-.15 1.32-.46.3-.23.51-.5.6-.84.07-.22.1-.63.1-1.24V295Zm7.48 4.63h-2.55v-9.64h2.36v1.37a4 4 0 0 1 1.1-1.28c.32-.2.69-.3 1.1-.3.58 0 1.14.15 1.68.48l-.8 2.22a2.24 2.24 0 0 0-1.19-.42c-.36 0-.66.1-.9.3-.25.2-.45.55-.6 1.06-.14.51-.2 1.6-.2 3.23v2.98Zm3.59-9.64h2.71l2.3 6.84 2.25-6.84h2.64l-3.4 9.27-.6 1.68c-.23.56-.44 1-.65 1.29a2.67 2.67 0 0 1-1.67 1.15c-.38.1-.81.16-1.3.16s-.97-.06-1.44-.16l-.23-2c.4.08.76.12 1.08.12.6 0 1.03-.17 1.32-.52.28-.35.5-.79.65-1.33L454.6 290Zm25.12 2.85-2.52.45c-.08-.5-.27-.88-.58-1.13-.3-.25-.68-.38-1.16-.38-.63 0-1.14.22-1.52.66-.38.44-.56 1.17-.56 2.2 0 1.14.19 1.95.57 2.42.38.47.9.7 1.55.7.48 0 .88-.13 1.19-.4.3-.28.52-.75.65-1.43l2.5.43a4.44 4.44 0 0 1-1.5 2.6c-.73.59-1.72.88-2.96.88-1.4 0-2.53-.44-3.37-1.33a5.18 5.18 0 0 1-1.25-3.7c0-1.58.42-2.82 1.26-3.7a4.47 4.47 0 0 1 3.4-1.34 4.6 4.6 0 0 1 2.8.77c.7.5 1.2 1.27 1.5 2.3Zm1.35 1.83c0-.84.2-1.66.63-2.46.41-.79 1-1.4 1.76-1.81a5.28 5.28 0 0 1 2.57-.63 4.8 4.8 0 0 1 4.98 5.01c0 1.46-.47 2.67-1.41 3.63a4.76 4.76 0 0 1-3.55 1.43 5.6 5.6 0 0 1-2.53-.6 4.1 4.1 0 0 1-1.82-1.75 5.88 5.88 0 0 1-.63-2.82Zm2.61.14c0 .95.23 1.69.68 2.2a2.2 2.2 0 0 0 3.35-.01c.45-.5.68-1.24.68-2.2a3.2 3.2 0 0 0-.68-2.19c-.45-.5-1-.76-1.67-.76-.66 0-1.22.25-1.68.76-.45.51-.68 1.24-.68 2.2Zm18.1 4.82h-2.55v-4.92a7.5 7.5 0 0 0-.16-2.01 1.4 1.4 0 0 0-.54-.72 1.5 1.5 0 0 0-.88-.26c-.44 0-.83.13-1.19.37-.35.24-.59.56-.72.96a8.5 8.5 0 0 0-.2 2.21v4.37H493v-9.64h2.37v1.42a3.86 3.86 0 0 1 3.17-1.64c.56 0 1.08.1 1.54.31a2.52 2.52 0 0 1 1.56 1.84c.1.4.14.97.14 1.72v5.99Zm7.01-9.64v2.03h-1.74v3.89c0 .78.02 1.24.05 1.38.03.12.1.23.22.31.13.09.27.13.44.13.24 0 .58-.08 1.03-.25l.21 1.98c-.59.26-1.26.38-2.01.38-.46 0-.88-.07-1.25-.22a1.89 1.89 0 0 1-.81-.6 2.45 2.45 0 0 1-.36-1c-.05-.3-.08-.9-.08-1.8v-4.2h-1.17V290h1.17v-1.91l2.56-1.5V290h1.74Zm7.35 6.57 2.54.43a4.18 4.18 0 0 1-1.55 2.13c-.7.48-1.58.72-2.64.72-1.67 0-2.91-.54-3.72-1.64a5.52 5.52 0 0 1-.95-3.32c0-1.6.42-2.84 1.25-3.75a4.11 4.11 0 0 1 3.17-1.36c1.43 0 2.56.48 3.39 1.43.83.94 1.23 2.39 1.19 4.34h-6.39c.02.76.23 1.35.62 1.77.4.42.88.63 1.47.63.4 0 .73-.11 1-.33a2 2 0 0 0 .62-1.05Zm.15-2.58c-.02-.74-.21-1.3-.57-1.68-.37-.38-.8-.58-1.33-.58-.55 0-1.01.2-1.38.61-.36.4-.54.96-.53 1.65h3.8Zm13.38 5.65h-2.55v-4.92a7.5 7.5 0 0 0-.16-2.01 1.4 1.4 0 0 0-1.42-.98c-.44 0-.84.13-1.19.37s-.6.56-.72.96a8.5 8.5 0 0 0-.2 2.21v4.37h-2.54v-9.64h2.36v1.42a3.86 3.86 0 0 1 3.18-1.64c.56 0 1.08.1 1.54.31a2.52 2.52 0 0 1 1.55 1.84c.1.4.15.97.15 1.72v5.99Zm7.01-9.64v2.03h-1.74v3.89c0 .78.01 1.24.04 1.38.04.12.12.23.23.31.12.09.27.13.44.13.23 0 .57-.08 1.02-.25l.22 1.98c-.6.26-1.26.38-2.01.38-.46 0-.88-.07-1.25-.22a1.9 1.9 0 0 1-.81-.6 2.44 2.44 0 0 1-.36-1c-.05-.3-.08-.9-.08-1.8v-4.2h-1.17V290h1.17v-1.91l2.56-1.5V290h1.74Zm-212.04 34.55h-1.75a17.63 17.63 0 0 1-2.11-4.36 13.73 13.73 0 0 1 .17-9.33 17.4 17.4 0 0 1 1.98-3.75h1.74a27.8 27.8 0 0 0-1.72 4.68 17.43 17.43 0 0 0-.19 7.13 20.15 20.15 0 0 0 1.88 5.63Zm1.99-3.91v-13.3h2.68v5.23h5.26v-5.23h2.69v13.3h-2.69v-5.82h-5.26v5.82h-2.68Zm12.76-3.53 2.47-.3c.08.63.29 1.1.63 1.44.35.33.77.5 1.26.5.52 0 .96-.2 1.32-.6.36-.4.55-.94.55-1.62 0-.64-.18-1.14-.52-1.52a1.65 1.65 0 0 0-1.26-.56c-.33 0-.72.06-1.17.19l.28-2.08c.69.02 1.21-.13 1.58-.44.36-.32.54-.75.54-1.27 0-.45-.13-.8-.4-1.07s-.62-.4-1.06-.4c-.44 0-.8.15-1.12.45-.3.3-.5.75-.56 1.33l-2.35-.4c.17-.8.41-1.45.74-1.93s.79-.86 1.38-1.13a4.56 4.56 0 0 1 1.98-.42c1.25 0 2.26.4 3.01 1.2.63.65.94 1.39.94 2.21 0 1.17-.64 2.1-1.92 2.8a3.14 3.14 0 0 1 2.52 3.15 4 4 0 0 1-1.28 2.99 4.4 4.4 0 0 1-3.19 1.23 4.4 4.4 0 0 1-2.99-1.03 4.1 4.1 0 0 1-1.38-2.72Zm10.27 7.44a18.33 18.33 0 0 0 1.63-4.46 16.68 16.68 0 0 0 .52-4.21c0-1.45-.15-2.8-.46-4.09a27.78 27.78 0 0 0-1.7-4.68h1.73a16.9 16.9 0 0 1 2.12 4.14 13.53 13.53 0 0 1 .16 8.5 17.13 17.13 0 0 1-2.24 4.8h-1.76Z" fill="#333"/><path d="M346.88 355.44a1.35 1.35 0 0 0-.59-1.01 2.25 2.25 0 0 0-1.32-.36c-.39 0-.71.05-.99.17-.27.12-.48.27-.63.47a1.14 1.14 0 0 0-.08 1.23c.1.15.24.28.4.4.17.1.36.19.56.26l.62.18.95.24c.39.09.75.21 1.1.36.36.15.68.35.96.58.29.23.51.5.68.83.16.33.24.71.24 1.15a2.75 2.75 0 0 1-1.77 2.62c-.57.25-1.26.38-2.07.38a5.2 5.2 0 0 1-2.06-.37 3.06 3.06 0 0 1-1.35-1.07 3.16 3.16 0 0 1-.53-1.7h1.81c.03.34.13.64.33.87.19.24.44.41.74.53a3.1 3.1 0 0 0 2.09-.01c.3-.12.54-.29.71-.5.18-.22.26-.48.27-.76a.96.96 0 0 0-.24-.66 1.7 1.7 0 0 0-.63-.43 6.17 6.17 0 0 0-.95-.32l-1.16-.3a4.65 4.65 0 0 1-1.98-.97 2.25 2.25 0 0 1-.72-1.75c0-.6.16-1.12.49-1.57.32-.45.77-.8 1.33-1.04.56-.25 1.2-.38 1.9-.38.72 0 1.35.13 1.9.38.54.25.96.6 1.27 1.03.31.44.47.95.48 1.52h-1.76Zm6.82 7.5c-.76 0-1.41-.17-1.97-.48a3.22 3.22 0 0 1-1.27-1.36 4.54 4.54 0 0 1-.45-2.07c0-.78.15-1.47.45-2.06a3.37 3.37 0 0 1 3.15-1.89c.47 0 .91.08 1.33.23a3 3 0 0 1 1.1.7c.33.3.58.7.77 1.2.18.48.27 1.05.27 1.72v.55h-6.22v-1.21h4.5c0-.35-.07-.65-.22-.92a1.63 1.63 0 0 0-1.5-.87c-.37 0-.7.09-.97.27-.28.17-.5.4-.65.7a2 2 0 0 0-.23.93v1.05c0 .44.08.82.24 1.14.16.31.39.55.68.72a2 2 0 0 0 1.02.25c.26 0 .5-.04.7-.11.22-.08.4-.19.56-.33.15-.15.27-.33.35-.54l1.67.19c-.1.44-.3.82-.6 1.15-.3.33-.67.59-1.13.77a4.3 4.3 0 0 1-1.57.26Zm8.22 0a3.34 3.34 0 0 1-3.2-1.88 4.57 4.57 0 0 1-.45-2.05c0-.77.15-1.45.45-2.04.3-.6.71-1.06 1.26-1.39.54-.33 1.18-.5 1.93-.5.61 0 1.16.12 1.63.35a2.8 2.8 0 0 1 1.63 2.39h-1.71a1.63 1.63 0 0 0-.5-.92 1.4 1.4 0 0 0-1.03-.37c-.37 0-.69.1-.96.3-.28.2-.5.47-.65.84-.15.37-.23.8-.23 1.31 0 .52.08.97.23 1.34.15.37.36.66.64.86.27.2.6.3.97.3a1.57 1.57 0 0 0 1.24-.6c.14-.19.24-.42.29-.7h1.71a2.81 2.81 0 0 1-1.6 2.4c-.46.24-1.02.35-1.65.35Zm8.04 0c-.74 0-1.39-.17-1.93-.5a3.33 3.33 0 0 1-1.27-1.37 4.5 4.5 0 0 1-.44-2.06c0-.78.14-1.47.44-2.06.3-.59.72-1.05 1.27-1.38a3.69 3.69 0 0 1 1.93-.49c.74 0 1.38.17 1.93.5.54.32.96.78 1.26 1.37.3.6.45 1.28.45 2.06 0 .79-.15 1.48-.45 2.06a3.3 3.3 0 0 1-1.26 1.37c-.55.33-1.19.5-1.93.5Zm0-1.44c.41 0 .75-.11 1.02-.33a2 2 0 0 0 .6-.9c.14-.38.2-.8.2-1.26 0-.47-.06-.89-.2-1.26a2 2 0 0 0-.6-.9c-.27-.23-.6-.34-1.01-.34-.41 0-.76.1-1.03.33s-.47.53-.61.9c-.13.38-.2.8-.2 1.27 0 .46.07.88.2 1.26.14.37.34.67.6.9.28.22.63.33 1.04.33Zm6.95-3.17v4.46h-1.79v-7.6h1.71v1.29h.1c.17-.43.44-.77.83-1.02.38-.25.86-.38 1.43-.38.52 0 .98.12 1.37.34.4.23.7.55.9.98.23.42.33.94.33 1.55v4.84H380v-4.57c0-.5-.13-.9-.4-1.19a1.39 1.39 0 0 0-1.08-.43c-.31 0-.6.07-.84.2-.24.14-.43.34-.56.6a2 2 0 0 0-.2.93Zm9.52 4.59a2.89 2.89 0 0 1-2.72-1.8 4.99 4.99 0 0 1-.41-2.13c0-.84.14-1.55.42-2.13a2.92 2.92 0 0 1 3.82-1.54c.28.14.51.32.68.53.17.21.3.4.39.6h.07v-3.8h1.8v10.14h-1.76v-1.2h-.11c-.1.18-.23.38-.4.59a2.21 2.21 0 0 1-1.78.74Zm.5-1.47c.38 0 .7-.1.97-.3.27-.22.47-.5.61-.87s.2-.8.2-1.3c0-.49-.06-.91-.2-1.28a1.82 1.82 0 0 0-.6-.84c-.27-.2-.6-.3-.98-.3-.4 0-.73.1-1 .3-.26.21-.47.5-.6.87-.14.36-.2.78-.2 1.25 0 .48.06.9.2 1.28a2 2 0 0 0 .6.87c.28.21.61.32 1 .32Zm7.65 1.49c-.48 0-.92-.09-1.3-.26a2.12 2.12 0 0 1-.91-.77 2.25 2.25 0 0 1-.34-1.26c0-.43.08-.78.24-1.06.16-.28.38-.5.65-.67.27-.17.58-.3.92-.39a9 9 0 0 1 1.08-.19l1.08-.12c.28-.04.48-.1.6-.18.13-.08.2-.21.2-.38v-.03c0-.37-.11-.66-.33-.87-.22-.2-.54-.3-.96-.3-.44 0-.78.1-1.04.28-.26.2-.43.42-.52.68l-1.67-.24a2.67 2.67 0 0 1 1.77-1.86 4.72 4.72 0 0 1 2.55-.1c.36.08.69.22.99.42.3.2.54.46.72.8.19.33.28.75.28 1.26v5.09h-1.72v-1.05h-.06a2.2 2.2 0 0 1-1.2 1.03c-.3.11-.64.17-1.03.17Zm.46-1.32a2 2 0 0 0 .94-.21 1.6 1.6 0 0 0 .82-1.35v-.9a.86.86 0 0 1-.28.13 4.27 4.27 0 0 1-.94.19l-.42.05c-.27.04-.5.1-.72.18-.2.09-.38.2-.5.35a.85.85 0 0 0-.18.56c0 .33.12.58.36.75.24.17.55.25.92.25Zm5.35 1.17v-7.6h1.74v1.26h.08a1.89 1.89 0 0 1 1.87-1.37 4.58 4.58 0 0 1 .65.05v1.64a3.33 3.33 0 0 0-.83-.1c-.33 0-.63.07-.89.21a1.62 1.62 0 0 0-.83 1.44v4.47h-1.79Zm6.87 2.84a3.6 3.6 0 0 1-1.17-.18l.42-1.4c.26.08.5.11.7.11.2 0 .38-.07.54-.2.15-.11.29-.32.4-.6l.15-.42-2.76-7.76h1.9l1.75 5.75h.08l1.76-5.75h1.9l-3.04 8.53c-.14.4-.33.74-.56 1.03a2.3 2.3 0 0 1-.86.66 2.8 2.8 0 0 1-1.21.24Z" fill="#0F67F5"/><rect x="319.74" y="342.52" width="114.14" height="30.52" rx="1.99" stroke="#0F67F5" stroke-width="1.33"/><path fill="#F6F6F6" d="M102.1 431.28h195.75V549.4H102.1z"/><path d="M225.23 518.2h-50.52a2.6 2.6 0 0 1-2.6-2.6v-50.52a2.6 2.6 0 0 1 2.6-2.61h50.52a2.62 2.62 0 0 1 2.61 2.6v50.53a2.6 2.6 0 0 1-2.6 2.6Zm-47.9-5.26h45.3V467.7h-45.3V513v-.05Z" fill="#545454"/><path d="M216.81 518.2c-.67 0-1.35-.25-1.85-.75l-29-29-9.35 9.38a2.64 2.64 0 0 1-3.7 0 2.64 2.64 0 0 1 0-3.7l11.23-11.24a2.72 2.72 0 0 1 3.7 0l30.87 30.85a2.64 2.64 0 0 1 0 3.7c-.51.51-1.18.77-1.86.77h-.04Zm-12.63-30.85a9.67 9.67 0 0 1-9.64-9.64c0-5.3 4.34-9.64 9.64-9.64 5.3 0 9.64 4.33 9.64 9.64 0 5.3-4.33 9.64-9.64 9.64Zm0-14.02a4.4 4.4 0 0 0-4.38 4.38 4.4 4.4 0 0 0 4.38 4.38 4.4 4.4 0 0 0 4.38-4.38 4.4 4.4 0 0 0-4.38-4.38Z" fill="#545454"/><path d="M204.18 505.58c-.67 0-1.35-.26-1.85-.76a2.64 2.64 0 0 1 0-3.7l21.05-21.06a2.64 2.64 0 0 1 3.7 0 2.64 2.64 0 0 1 0 3.71l-21.05 21.05c-.5.5-1.18.76-1.85.76Z" fill="#545454"/><path d="M320.44 444.28v-13.3h2.69v5.24h5.26v-5.24h2.68v13.3h-2.68v-5.81h-5.26v5.81h-2.69Zm18.98-3.07 2.54.43a4.19 4.19 0 0 1-1.55 2.13 4.5 4.5 0 0 1-2.64.73c-1.68 0-2.92-.55-3.72-1.64a5.51 5.51 0 0 1-.95-3.32c0-1.6.41-2.85 1.25-3.75a4.12 4.12 0 0 1 3.16-1.36c1.44 0 2.57.47 3.4 1.42.82.95 1.22 2.4 1.19 4.35h-6.4c.03.75.23 1.34.63 1.77.39.41.88.62 1.47.62.4 0 .73-.1 1-.32s.48-.57.62-1.06Zm.14-2.57c-.01-.74-.2-1.3-.57-1.68-.36-.39-.8-.58-1.32-.58-.56 0-1.02.2-1.38.6-.36.41-.54.96-.54 1.66h3.81Zm6.53-1.05-2.32-.42a3.6 3.6 0 0 1 1.35-2.07 4.91 4.91 0 0 1 2.83-.67c1.13 0 1.98.13 2.54.4.55.27.94.62 1.17 1.03.23.41.34 1.17.34 2.28l-.03 2.98c0 .84.04 1.47.12 1.87.09.4.24.83.47 1.3h-2.53a9.89 9.89 0 0 1-.33-1.06c-.44.42-.9.74-1.4.95a4 4 0 0 1-1.59.32c-.99 0-1.77-.27-2.35-.8a2.7 2.7 0 0 1-.85-2.05c0-.54.13-1.03.39-1.45.26-.43.62-.76 1.09-.98a8.44 8.44 0 0 1 2.03-.6c1.2-.22 2.02-.43 2.48-.63v-.25c0-.49-.12-.84-.37-1.04-.24-.21-.7-.32-1.37-.32-.45 0-.8.09-1.06.27-.25.18-.46.49-.61.94Zm3.4 2.06c-.32.11-.84.24-1.54.4-.71.14-1.17.3-1.4.44-.32.24-.49.53-.49.9 0 .35.13.66.4.92s.6.4 1.02.4c.45 0 .9-.16 1.31-.46.3-.23.51-.51.6-.85a5 5 0 0 0 .1-1.24v-.5Zm13.87 4.63h-2.37v-1.41c-.4.55-.86.96-1.4 1.23-.53.26-1.07.4-1.61.4-1.1 0-2.06-.45-2.85-1.33a5.47 5.47 0 0 1-1.18-3.74c0-1.64.39-2.88 1.15-3.72a3.75 3.75 0 0 1 5.71.06v-4.79h2.55v13.3Zm-6.8-5.02c0 1.02.14 1.77.42 2.23a1.94 1.94 0 0 0 3.23.25c.4-.5.61-1.25.61-2.24 0-1.1-.2-1.9-.6-2.39-.4-.49-.9-.73-1.53-.73-.6 0-1.12.24-1.53.73-.4.47-.6 1.19-.6 2.14Zm9.32 5.02v-13.3h2.55v13.3h-2.55Zm5.17-10.94v-2.36h2.55v2.36h-2.55Zm0 10.94v-9.63h2.55v9.63h-2.55Zm13.94 0h-2.55v-4.92a7.4 7.4 0 0 0-.17-2.01 1.4 1.4 0 0 0-.53-.72 1.5 1.5 0 0 0-.88-.25c-.44 0-.84.12-1.19.36s-.6.56-.72.96a8.5 8.5 0 0 0-.2 2.22v4.36h-2.54v-9.63h2.36v1.41a3.86 3.86 0 0 1 3.18-1.63c.56 0 1.07.1 1.54.3a2.51 2.51 0 0 1 1.55 1.85c.1.4.15.97.15 1.71v6Zm8.17-3.07 2.54.43a4.19 4.19 0 0 1-1.55 2.13 4.5 4.5 0 0 1-2.64.73c-1.68 0-2.91-.55-3.72-1.64a5.52 5.52 0 0 1-.95-3.32c0-1.6.42-2.85 1.25-3.75a4.12 4.12 0 0 1 3.17-1.36c1.43 0 2.56.47 3.39 1.42.83.95 1.22 2.4 1.19 4.35h-6.39c.02.75.23 1.34.62 1.77.4.41.88.62 1.47.62.4 0 .73-.1 1-.32.28-.22.48-.57.62-1.06Zm.15-2.57c-.02-.74-.21-1.3-.57-1.68-.37-.39-.8-.58-1.33-.58-.56 0-1.02.2-1.38.6-.36.41-.54.96-.53 1.66h3.8Zm14.2-4v2.04h-1.74v3.88c0 .79.02 1.25.05 1.38.03.13.1.23.22.32.13.08.27.13.44.13.23 0 .58-.09 1.02-.25l.22 1.98c-.6.25-1.26.38-2.01.38-.46 0-.88-.08-1.25-.23a1.9 1.9 0 0 1-.81-.6 2.43 2.43 0 0 1-.35-1c-.06-.3-.09-.89-.09-1.8v-4.2h-1.17v-2.02h1.17v-1.92l2.56-1.49v3.4h1.74Zm7.35 6.57 2.54.43a4.19 4.19 0 0 1-1.55 2.13 4.5 4.5 0 0 1-2.64.73c-1.67 0-2.91-.55-3.72-1.64a5.51 5.51 0 0 1-.95-3.32c0-1.6.42-2.85 1.25-3.75a4.12 4.12 0 0 1 3.17-1.36c1.43 0 2.56.47 3.39 1.42.83.95 1.22 2.4 1.19 4.35h-6.39c.02.75.23 1.34.62 1.77.4.41.88.62 1.47.62.4 0 .73-.1 1-.32.28-.22.48-.57.62-1.06Zm.15-2.57c-.02-.74-.21-1.3-.57-1.68-.37-.39-.8-.58-1.33-.58-.56 0-1.01.2-1.38.6-.36.41-.54.96-.53 1.66h3.8Zm7.06 5.64h-2.55v-9.63h2.36v1.37c.4-.65.77-1.08 1.1-1.28.32-.2.69-.31 1.1-.31.58 0 1.14.16 1.68.48l-.8 2.22a2.24 2.24 0 0 0-1.19-.42c-.36 0-.66.1-.9.3-.25.2-.45.55-.6 1.06-.13.52-.2 1.6-.2 3.24v2.97Zm9.21-9.63v2.03h-1.74v3.88c0 .79.01 1.25.05 1.38.03.13.1.23.22.32.12.08.27.13.44.13.23 0 .58-.09 1.02-.25l.22 1.98c-.6.25-1.26.38-2.01.38-.46 0-.88-.08-1.25-.23a1.9 1.9 0 0 1-.81-.6 2.43 2.43 0 0 1-.36-1c-.05-.3-.08-.89-.08-1.8v-4.2h-1.17v-2.02h1.17v-1.92l2.56-1.49v3.4h1.74Zm1.77-1.31v-2.36h2.55v2.36h-2.55Zm0 10.94v-9.63h2.55v9.63h-2.55Zm7.08-6.7-2.32-.41a3.6 3.6 0 0 1 1.35-2.07 4.9 4.9 0 0 1 2.83-.67c1.13 0 1.98.13 2.54.4.55.27.94.62 1.17 1.03.23.41.34 1.17.34 2.28l-.03 2.98c0 .84.04 1.47.12 1.87.09.4.24.83.47 1.3h-2.53a9.45 9.45 0 0 1-.33-1.06c-.44.42-.9.74-1.4.95a4 4 0 0 1-1.59.32c-.99 0-1.77-.27-2.35-.8a2.69 2.69 0 0 1-.85-2.05c0-.54.13-1.03.4-1.45a2.4 2.4 0 0 1 1.08-.98 8.43 8.43 0 0 1 2.03-.6c1.2-.22 2.02-.43 2.48-.63v-.25c0-.49-.12-.84-.36-1.04-.25-.21-.7-.32-1.37-.32-.46 0-.81.09-1.07.27a1.9 1.9 0 0 0-.61.94Zm3.4 2.07c-.32.11-.83.24-1.54.4-.71.14-1.17.3-1.4.44-.32.24-.49.53-.49.9 0 .35.13.66.4.92.26.26.6.4 1.01.4.47 0 .9-.16 1.32-.46.3-.23.51-.51.6-.85.07-.21.1-.63.1-1.24v-.5Zm7.48 4.63h-2.55v-9.63h2.36v1.37c.4-.65.77-1.08 1.1-1.28.32-.2.69-.31 1.1-.31.58 0 1.14.16 1.68.48l-.8 2.22a2.24 2.24 0 0 0-1.19-.42c-.36 0-.66.1-.9.3-.25.2-.45.55-.6 1.06-.14.52-.2 1.6-.2 3.24v2.97Zm3.59-9.63h2.71l2.3 6.84 2.25-6.84h2.64l-3.4 9.27-.6 1.68c-.23.56-.44.99-.65 1.28-.2.3-.43.54-.7.72a3 3 0 0 1-.97.44 6.81 6.81 0 0 1-2.74 0l-.23-2c.4.08.76.12 1.08.12.6 0 1.03-.18 1.32-.53.28-.34.5-.78.65-1.32l-3.66-9.66Zm25.12 2.85-2.52.45c-.08-.5-.27-.88-.58-1.14-.3-.25-.68-.38-1.16-.38-.63 0-1.14.22-1.52.67-.38.43-.56 1.16-.56 2.2 0 1.13.19 1.94.57 2.41.38.48.9.71 1.55.71.48 0 .88-.13 1.19-.4.3-.28.52-.76.65-1.43l2.5.43a4.44 4.44 0 0 1-1.5 2.6c-.73.58-1.72.88-2.96.88-1.4 0-2.53-.45-3.37-1.33a5.18 5.18 0 0 1-1.25-3.7c0-1.59.42-2.83 1.26-3.7a4.47 4.47 0 0 1 3.4-1.34 4.6 4.6 0 0 1 2.8.76c.7.5 1.2 1.27 1.5 2.3Zm1.35 1.83c0-.85.2-1.67.63-2.46.41-.8 1-1.4 1.76-1.81a5.28 5.28 0 0 1 2.57-.63 4.8 4.8 0 0 1 4.98 5c0 1.46-.47 2.67-1.41 3.63a4.76 4.76 0 0 1-3.55 1.44 5.6 5.6 0 0 1-2.53-.6 4.1 4.1 0 0 1-1.82-1.75 5.88 5.88 0 0 1-.63-2.82Zm2.61.13c0 .96.23 1.7.68 2.2.46.5 1.02.76 1.68.76.67 0 1.22-.25 1.67-.76.45-.5.68-1.25.68-2.22 0-.94-.23-1.66-.68-2.17-.45-.51-1-.76-1.67-.76-.66 0-1.22.25-1.68.76-.45.5-.68 1.24-.68 2.2Zm18.1 4.82h-2.55v-4.92c0-1.04-.05-1.7-.16-2.01a1.4 1.4 0 0 0-.54-.72 1.5 1.5 0 0 0-.88-.25c-.44 0-.83.12-1.19.36-.35.24-.59.56-.72.96a8.5 8.5 0 0 0-.2 2.22v4.36H493v-9.63h2.37v1.41a3.86 3.86 0 0 1 3.17-1.63c.56 0 1.08.1 1.54.3a2.52 2.52 0 0 1 1.56 1.85c.1.4.14.97.14 1.71v6Zm7.01-9.63v2.03h-1.74v3.88c0 .79.02 1.25.05 1.38.03.13.1.23.22.32.13.08.27.13.44.13.24 0 .58-.09 1.03-.25l.21 1.98a5.1 5.1 0 0 1-2.01.38c-.46 0-.88-.08-1.25-.23a1.9 1.9 0 0 1-.81-.6 2.46 2.46 0 0 1-.36-1c-.05-.3-.08-.89-.08-1.8v-4.2h-1.17v-2.02h1.17v-1.92l2.56-1.49v3.4h1.74Zm7.35 6.56 2.54.43a4.18 4.18 0 0 1-1.55 2.13 4.5 4.5 0 0 1-2.64.73c-1.67 0-2.91-.55-3.72-1.64a5.51 5.51 0 0 1-.95-3.32c0-1.6.42-2.85 1.25-3.75a4.12 4.12 0 0 1 3.17-1.36c1.43 0 2.56.47 3.39 1.42.83.95 1.23 2.4 1.19 4.35h-6.39c.02.75.23 1.34.62 1.77.4.41.88.62 1.47.62.4 0 .73-.1 1-.32.28-.22.48-.57.62-1.06Zm.15-2.57c-.02-.74-.21-1.3-.57-1.68-.37-.39-.8-.58-1.33-.58-.55 0-1.01.2-1.38.6-.36.41-.54.96-.53 1.66h3.8Zm13.38 5.64h-2.55v-4.92c0-1.04-.05-1.7-.16-2.01a1.4 1.4 0 0 0-.54-.72 1.5 1.5 0 0 0-.88-.25c-.44 0-.84.12-1.19.36s-.6.56-.72.96a8.5 8.5 0 0 0-.2 2.22v4.36h-2.54v-9.63h2.36v1.41a3.86 3.86 0 0 1 3.18-1.63c.56 0 1.08.1 1.54.3a2.52 2.52 0 0 1 1.55 1.85c.1.4.15.97.15 1.71v6Zm7.01-9.63v2.03h-1.74v3.88c0 .79.01 1.25.04 1.38.04.13.12.23.23.32.12.08.27.13.44.13.23 0 .57-.09 1.02-.25l.22 1.98c-.6.25-1.26.38-2.01.38-.46 0-.88-.08-1.25-.23a1.9 1.9 0 0 1-.81-.6 2.44 2.44 0 0 1-.36-1c-.05-.3-.08-.89-.08-1.8v-4.2h-1.17v-2.02h1.17v-1.92l2.56-1.49v3.4h1.74Zm-212.04 34.54h-1.75a17.63 17.63 0 0 1-2.11-4.35 13.73 13.73 0 0 1 .17-9.34c.52-1.35 1.18-2.6 1.98-3.75h1.74a27.8 27.8 0 0 0-1.72 4.69 17.43 17.43 0 0 0-.19 7.13 20.18 20.18 0 0 0 1.88 5.62Zm1.99-3.9v-13.3h2.68v5.23h5.26v-5.24h2.69v13.3h-2.69v-5.81h-5.26v5.81h-2.68Zm12.76-3.54 2.47-.3c.08.63.29 1.11.63 1.44.35.34.77.5 1.26.5.52 0 .96-.2 1.32-.6.36-.4.55-.93.55-1.61 0-.64-.18-1.15-.52-1.52a1.65 1.65 0 0 0-1.26-.57c-.33 0-.72.07-1.17.2l.28-2.08c.69.02 1.21-.13 1.58-.45.36-.32.54-.74.54-1.27 0-.45-.13-.8-.4-1.07s-.62-.4-1.06-.4c-.44 0-.8.15-1.12.46-.3.3-.5.74-.56 1.32l-2.35-.4c.17-.8.41-1.44.74-1.92.33-.49.79-.86 1.38-1.14a4.7 4.7 0 0 1 1.98-.41c1.25 0 2.26.4 3.01 1.2.63.65.94 1.38.94 2.2 0 1.18-.64 2.1-1.92 2.8a3.09 3.09 0 0 1 2.52 3.16 4 4 0 0 1-1.28 2.98 4.41 4.41 0 0 1-3.19 1.24 4.4 4.4 0 0 1-2.99-1.04 4.1 4.1 0 0 1-1.38-2.72Zm10.27 7.44a18.35 18.35 0 0 0 1.63-4.46 16.66 16.66 0 0 0 .52-4.2c0-1.45-.15-2.81-.46-4.1a28.42 28.42 0 0 0-1.7-4.68h1.73a16.9 16.9 0 0 1 2.12 4.14 13.63 13.63 0 0 1 .16 8.5 17.13 17.13 0 0 1-2.24 4.8h-1.76Z" fill="#333"/><path d="M346.88 500.1a1.35 1.35 0 0 0-.59-1.02 2.24 2.24 0 0 0-1.32-.36c-.39 0-.71.06-.99.17-.27.12-.48.28-.63.47a1.14 1.14 0 0 0-.08 1.23c.1.16.24.29.4.4a5.45 5.45 0 0 0 1.18.45l.95.24a5.06 5.06 0 0 1 2.06.93c.29.23.51.51.68.84.16.32.24.7.24 1.15 0 .59-.15 1.11-.45 1.56-.3.45-.75.8-1.32 1.06-.57.25-1.26.37-2.07.37-.79 0-1.48-.12-2.06-.36a3.05 3.05 0 0 1-1.35-1.07 3.16 3.16 0 0 1-.53-1.71h1.81c.03.35.13.64.33.88.19.23.44.4.74.52.31.12.66.17 1.04.17.4 0 .75-.06 1.05-.17.3-.13.54-.3.71-.5.18-.23.26-.48.27-.77a.96.96 0 0 0-.24-.65 1.7 1.7 0 0 0-.63-.44 6.17 6.17 0 0 0-.95-.32l-1.16-.3a4.65 4.65 0 0 1-1.98-.97 2.25 2.25 0 0 1-.72-1.74c0-.6.16-1.12.49-1.57.32-.45.77-.8 1.33-1.05s1.2-.37 1.9-.37c.72 0 1.35.12 1.9.37.54.25.96.6 1.27 1.04.31.44.47.94.48 1.51h-1.76Zm6.82 7.49a3.9 3.9 0 0 1-1.97-.48 3.22 3.22 0 0 1-1.27-1.35 4.54 4.54 0 0 1-.45-2.08c0-.78.15-1.46.45-2.05a3.37 3.37 0 0 1 3.15-1.89c.47 0 .91.08 1.33.23.42.15.79.38 1.1.7.33.3.58.7.77 1.19.18.48.27 1.05.27 1.72v.55h-6.22v-1.2h4.5c0-.35-.07-.66-.22-.92a1.62 1.62 0 0 0-.6-.64 1.71 1.71 0 0 0-.9-.23 1.8 1.8 0 0 0-1.62.96 2 2 0 0 0-.23.93v1.06c0 .44.08.82.24 1.13.16.32.39.56.68.73.3.16.63.24 1.02.24.26 0 .5-.03.7-.1.22-.08.4-.2.56-.34.15-.14.27-.32.35-.54l1.67.2c-.1.43-.3.82-.6 1.15-.3.33-.67.58-1.13.76-.46.18-.98.27-1.57.27Zm8.22 0a3.35 3.35 0 0 1-3.2-1.88 4.57 4.57 0 0 1-.45-2.04c0-.77.15-1.45.45-2.04.3-.6.71-1.06 1.26-1.39.54-.33 1.18-.5 1.93-.5.61 0 1.16.11 1.63.34a2.8 2.8 0 0 1 1.63 2.4h-1.71a1.63 1.63 0 0 0-.5-.92 1.4 1.4 0 0 0-1.03-.38c-.37 0-.69.1-.96.3-.28.2-.5.48-.65.84-.15.37-.23.8-.23 1.32s.08.96.23 1.34c.15.37.36.65.64.85.27.2.6.3.97.3.26 0 .5-.05.7-.15.22-.1.4-.25.54-.44.14-.2.24-.42.29-.7h1.71a2.82 2.82 0 0 1-1.6 2.4c-.46.23-1.02.35-1.65.35Zm8.04 0c-.74 0-1.39-.16-1.93-.5a3.33 3.33 0 0 1-1.27-1.36 4.5 4.5 0 0 1-.44-2.06c0-.79.14-1.47.44-2.06.3-.6.72-1.05 1.27-1.38a3.69 3.69 0 0 1 1.93-.49c.74 0 1.38.16 1.93.49.54.33.96.78 1.26 1.38.3.59.45 1.27.45 2.06a4.5 4.5 0 0 1-.45 2.06 3.3 3.3 0 0 1-1.26 1.37c-.55.32-1.19.49-1.93.49Zm0-1.44c.41 0 .75-.1 1.02-.33a2 2 0 0 0 .6-.9c.14-.38.2-.8.2-1.26 0-.46-.06-.88-.2-1.26a2 2 0 0 0-.6-.9c-.27-.23-.6-.34-1.01-.34-.41 0-.76.11-1.03.34-.27.22-.47.52-.61.9-.13.38-.2.8-.2 1.26 0 .47.07.88.2 1.26.14.38.34.68.6.9.28.22.63.33 1.04.33Zm6.95-3.16v4.45h-1.79v-7.6h1.71v1.3h.1c.17-.44.44-.77.83-1.02.38-.25.86-.38 1.43-.38.52 0 .98.11 1.37.34.4.22.7.55.9.97.23.43.33.94.33 1.55v4.84H380v-4.56c0-.51-.13-.9-.4-1.2a1.4 1.4 0 0 0-1.08-.43c-.31 0-.6.07-.84.21-.24.14-.43.33-.56.6-.14.25-.2.56-.2.93Zm9.52 4.58a2.88 2.88 0 0 1-2.72-1.8 4.98 4.98 0 0 1-.41-2.12c0-.84.14-1.56.42-2.14a2.9 2.9 0 0 1 3.82-1.54c.28.15.51.33.68.54.17.2.3.4.39.59h.07v-3.8h1.8v10.14h-1.76v-1.2h-.11c-.1.19-.23.38-.4.6a2.2 2.2 0 0 1-1.78.73Zm.5-1.47c.38 0 .7-.1.97-.3.27-.21.47-.5.61-.87s.2-.8.2-1.29c0-.5-.06-.92-.2-1.28a1.82 1.82 0 0 0-.6-.85c-.27-.2-.6-.3-.98-.3-.4 0-.73.1-1 .31-.26.21-.47.5-.6.86-.14.37-.2.79-.2 1.26 0 .48.06.9.2 1.27s.34.66.6.88c.28.2.61.31 1 .31Zm7.65 1.5c-.48 0-.92-.1-1.3-.26a2.12 2.12 0 0 1-.91-.78 2.26 2.26 0 0 1-.34-1.25c0-.43.08-.79.24-1.07.16-.28.38-.5.65-.67.27-.17.58-.3.92-.38.35-.09.7-.15 1.08-.2l1.08-.12c.28-.04.48-.1.6-.18.13-.08.2-.2.2-.38v-.03c0-.37-.11-.66-.33-.86-.22-.2-.54-.3-.96-.3-.44 0-.78.09-1.04.28a1.4 1.4 0 0 0-.52.68l-1.67-.24a2.68 2.68 0 0 1 1.77-1.86 4.72 4.72 0 0 1 2.55-.1c.36.07.69.22.99.41.3.2.54.46.72.8.19.34.28.76.28 1.26v5.09h-1.72v-1.04h-.06a2.2 2.2 0 0 1-1.2 1.03c-.3.1-.64.16-1.03.16Zm.46-1.32c.36 0 .67-.07.94-.22.26-.14.46-.33.6-.57.15-.24.22-.5.22-.78v-.9a.84.84 0 0 1-.28.14l-.45.1-.49.08-.42.06c-.27.04-.5.1-.72.18-.2.08-.38.2-.5.34a.85.85 0 0 0-.18.57c0 .33.12.58.36.75.24.16.55.25.92.25Zm5.35 1.16v-7.6h1.74v1.27h.08a1.89 1.89 0 0 1 1.87-1.38 4.1 4.1 0 0 1 .65.05v1.65a3.32 3.32 0 0 0-.83-.1c-.33 0-.63.06-.89.2a1.55 1.55 0 0 0-.83 1.44v4.47h-1.79Zm6.87 2.85a3.68 3.68 0 0 1-1.17-.19l.42-1.4c.26.08.5.12.7.12.2 0 .38-.07.54-.2.15-.12.29-.32.4-.61l.15-.41-2.76-7.76h1.9l1.75 5.74h.08l1.76-5.74h1.9l-3.04 8.52c-.14.4-.33.75-.56 1.03a2.3 2.3 0 0 1-.86.67c-.34.15-.74.23-1.21.23Z" fill="#0F67F5"/><rect x="319.74" y="487.18" width="114.14" height="30.52" rx="1.99" stroke="#0F67F5" stroke-width="1.33"/></svg>