<svg width="672" height="290" fill="none" xmlns="http://www.w3.org/2000/svg"><path fill="#F6F6F6" d="M0 .86h672v289.11H0z"/><path fill="#0F67F5" d="M80.86 32.86h510.27v225.11H80.86z"/><path d="M109.86 99.33V79.6h-7.05v-4.02h18.87v4.02h-7.03v19.73h-4.8Zm19.44-23.75v8.73a6.71 6.71 0 0 1 5.26-2.58c1.05 0 2 .2 2.84.59a4.63 4.63 0 0 1 2.77 3.49c.16.74.24 1.88.24 3.43v10.09h-4.55v-9.09c0-1.8-.09-2.95-.26-3.43a2.2 2.2 0 0 0-.92-1.15c-.44-.3-.98-.44-1.64-.44-.76 0-1.43.18-2.03.55-.59.37-1.03.92-1.3 1.67a9.7 9.7 0 0 0-.41 3.27v8.62h-4.56V75.58h4.56ZM155 93.85l4.54.76a7.46 7.46 0 0 1-2.77 3.81 8.11 8.11 0 0 1-4.71 1.3c-3 0-5.2-.98-6.64-2.94a9.85 9.85 0 0 1-1.7-5.92c0-2.86.74-5.09 2.23-6.7a7.35 7.35 0 0 1 5.65-2.43c2.56 0 4.58.85 6.06 2.55 1.48 1.68 2.19 4.27 2.13 7.76h-11.4c.02 1.35.39 2.4 1.1 3.16.7.74 1.57 1.11 2.62 1.11.7 0 1.3-.19 1.8-.58a3.6 3.6 0 0 0 1.1-1.88Zm.27-4.6c-.04-1.32-.38-2.31-1.03-3a3.12 3.12 0 0 0-2.36-1.03c-1 0-1.81.36-2.46 1.08a4.2 4.2 0 0 0-.96 2.95h6.8Zm17.13-7.13h4.2v2.35c1.5-1.82 3.29-2.74 5.36-2.74 1.1 0 2.06.23 2.87.69a5.22 5.22 0 0 1 2 2.05 7.95 7.95 0 0 1 2.44-2.05 6 6 0 0 1 2.8-.69 6.2 6.2 0 0 1 3.21.78 4.66 4.66 0 0 1 1.96 2.25c.31.74.47 1.93.47 3.57v11h-4.55v-9.84c0-1.7-.16-2.8-.47-3.3-.42-.65-1.07-.97-1.95-.97-.63 0-1.23.2-1.8.58-.56.39-.96.96-1.2 1.72-.26.74-.38 1.93-.38 3.55v8.26h-4.55V89.9c0-1.67-.09-2.75-.25-3.24a2.05 2.05 0 0 0-.76-1.09 2.4 2.4 0 0 0-1.38-.35 3.15 3.15 0 0 0-3.11 2.2c-.23.71-.35 1.9-.35 3.55v8.36h-4.56v-17.2Zm33.26 5.25-4.13-.74a6.43 6.43 0 0 1 2.4-3.7c1.13-.8 2.82-1.2 5.06-1.2 2.02 0 3.54.25 4.53.73 1 .48 1.7 1.09 2.1 1.83.4.74.6 2.1.6 4.07l-.04 5.31c0 1.52.07 2.63.2 3.36.16.71.44 1.48.84 2.3h-4.5a16.37 16.37 0 0 1-.6-1.88 8.22 8.22 0 0 1-2.5 1.7c-.89.38-1.83.57-2.84.57a5.9 5.9 0 0 1-4.2-1.44 4.8 4.8 0 0 1-1.52-3.65c0-.97.23-1.84.7-2.6a4.49 4.49 0 0 1 1.94-1.74c.85-.41 2.06-.77 3.63-1.07 2.13-.4 3.6-.77 4.42-1.12v-.45c0-.88-.21-1.5-.64-1.87-.44-.37-1.25-.56-2.45-.56-.8 0-1.44.16-1.9.48-.45.32-.81.87-1.1 1.67Zm6.1 3.7c-.59.2-1.51.42-2.77.7a8.35 8.35 0 0 0-2.48.79c-.6.42-.9.95-.9 1.6 0 .64.24 1.19.72 1.65.47.47 1.08.7 1.81.7.82 0 1.6-.27 2.35-.81a2.9 2.9 0 0 0 1.09-1.5c.12-.4.17-1.14.17-2.23v-.9Zm8.97-11.28v-4.21h4.55v4.21h-4.55Zm0 19.54v-17.2h4.55v17.2h-4.55Zm24.88 0h-4.55v-8.78c0-1.86-.1-3.06-.29-3.6a2.51 2.51 0 0 0-2.53-1.73 3.57 3.57 0 0 0-3.42 2.36c-.22.72-.34 2.03-.34 3.96v7.79h-4.55v-17.2h4.23v2.52a6.89 6.89 0 0 1 5.67-2.92c1 0 1.92.19 2.75.56a4.49 4.49 0 0 1 2.77 3.28c.18.72.26 1.74.26 3.07v10.69Zm18.4-23.75v8.73a6.71 6.71 0 0 1 5.27-2.58c1.05 0 2 .2 2.84.59a4.63 4.63 0 0 1 2.77 3.49c.16.74.24 1.88.24 3.43v10.09h-4.55v-9.09c0-1.8-.09-2.95-.26-3.43a2.2 2.2 0 0 0-.93-1.15c-.43-.3-.97-.44-1.63-.44-.76 0-1.43.18-2.03.55-.59.37-1.03.92-1.3 1.67a9.7 9.7 0 0 0-.41 3.27v8.62h-4.56V75.58h4.56Zm25.72 18.27 4.53.76a7.46 7.46 0 0 1-2.77 3.81 8.11 8.11 0 0 1-4.71 1.3c-3 0-5.2-.98-6.64-2.94a9.85 9.85 0 0 1-1.7-5.92c0-2.86.74-5.09 2.23-6.7a7.35 7.35 0 0 1 5.65-2.43c2.56 0 4.58.85 6.06 2.55 1.48 1.68 2.19 4.27 2.13 7.76H283.1c.03 1.35.4 2.4 1.1 3.16.7.74 1.58 1.11 2.63 1.11.7 0 1.3-.19 1.8-.58a3.6 3.6 0 0 0 1.1-1.88Zm.25-4.6c-.03-1.32-.37-2.31-1.02-3a3.12 3.12 0 0 0-2.36-1.03c-1 0-1.81.36-2.46 1.08a4.2 4.2 0 0 0-.96 2.95h6.8Zm11.65-1.88-4.13-.74a6.44 6.44 0 0 1 2.4-3.7c1.13-.8 2.82-1.2 5.05-1.2 2.04 0 3.55.25 4.54.73 1 .48 1.69 1.09 2.09 1.83.41.74.62 2.1.62 4.07l-.05 5.31c0 1.52.07 2.63.2 3.36.16.71.43 1.48.83 2.3h-4.5a16.77 16.77 0 0 1-.6-1.88 8.2 8.2 0 0 1-2.5 1.7c-.88.38-1.82.57-2.83.57a5.9 5.9 0 0 1-4.2-1.44 4.8 4.8 0 0 1-1.52-3.65c0-.97.24-1.84.7-2.6a4.49 4.49 0 0 1 1.94-1.74 15.1 15.1 0 0 1 3.63-1.07c2.13-.4 3.6-.77 4.42-1.12v-.45c0-.88-.21-1.5-.64-1.87-.44-.37-1.25-.56-2.45-.56-.81 0-1.44.16-1.9.48-.45.32-.82.87-1.1 1.67Zm6.1 3.7a30 30 0 0 1-2.78.7 8.34 8.34 0 0 0-2.47.79c-.6.42-.9.95-.9 1.6 0 .64.24 1.19.72 1.65.47.47 1.08.7 1.81.7.82 0 1.6-.27 2.35-.81a2.9 2.9 0 0 0 1.09-1.5c.12-.4.17-1.14.17-2.23v-.9Zm24.75 8.26h-4.23V96.8a6.89 6.89 0 0 1-2.5 2.2c-.94.48-1.9.72-2.88.72-1.98 0-3.67-.8-5.08-2.38-1.4-1.6-2.11-3.83-2.11-6.68 0-2.91.68-5.13 2.06-6.64a6.7 6.7 0 0 1 5.2-2.29c1.92 0 3.58.8 4.99 2.4v-8.55h4.55v23.75Zm-12.15-8.98c0 1.84.25 3.17.76 3.99a3.44 3.44 0 0 0 3.08 1.78c1.04 0 1.94-.44 2.67-1.33.74-.9 1.1-2.23 1.1-4 0-1.98-.35-3.4-1.07-4.26a3.38 3.38 0 0 0-2.74-1.31c-1.07 0-1.98.43-2.72 1.3-.72.85-1.08 2.13-1.08 3.83Zm16.65 8.98V75.58h4.55v23.75h-4.55Zm9.24-19.54v-4.21h4.55v4.21h-4.55Zm0 19.54v-17.2h4.55v17.2h-4.55Zm24.88 0h-4.55v-8.78c0-1.86-.1-3.06-.3-3.6a2.5 2.5 0 0 0-.95-1.28c-.43-.3-.96-.45-1.57-.45-.79 0-1.5.21-2.12.65a3.3 3.3 0 0 0-1.3 1.71 15.1 15.1 0 0 0-.34 3.96v7.79h-4.55v-17.2h4.23v2.52a6.89 6.89 0 0 1 5.67-2.92c1 0 1.92.19 2.75.56a4.5 4.5 0 0 1 2.77 3.28c.17.72.26 1.74.26 3.07v10.69Zm14.6-5.48 4.53.76a7.46 7.46 0 0 1-2.77 3.81 8.11 8.11 0 0 1-4.71 1.3c-3 0-5.2-.98-6.64-2.94a9.85 9.85 0 0 1-1.7-5.92c0-2.86.74-5.09 2.23-6.7a7.35 7.35 0 0 1 5.65-2.43c2.56 0 4.58.85 6.06 2.55 1.48 1.68 2.19 4.27 2.12 7.76h-11.4c.03 1.35.4 2.4 1.1 3.16.7.74 1.58 1.11 2.63 1.11.7 0 1.3-.19 1.8-.58a3.6 3.6 0 0 0 1.1-1.88Zm.25-4.6c-.03-1.32-.37-2.31-1.02-3a3.12 3.12 0 0 0-2.36-1.03c-1 0-1.82.36-2.46 1.08a4.2 4.2 0 0 0-.96 2.95h6.8Zm-282.83 46.62v-9.97h1.32v8.8h4.91v1.17h-6.23Zm7.2-3.61c0-1.34.37-2.33 1.11-2.98.62-.53 1.38-.8 2.27-.8 1 0 1.81.33 2.44.98.63.65.95 1.55.95 2.7 0 .93-.14 1.66-.43 2.2-.27.52-.68.94-1.21 1.23a3.5 3.5 0 0 1-1.75.44 3.26 3.26 0 0 1-2.45-.97c-.62-.65-.93-1.58-.93-2.8Zm1.26 0c0 .92.2 1.62.6 2.08.4.46.91.69 1.52.69s1.12-.23 1.52-.7c.4-.46.6-1.17.6-2.11 0-.9-.2-1.57-.6-2.03-.4-.46-.91-.7-1.52-.7-.6 0-1.12.23-1.52.7-.4.45-.6 1.14-.6 2.07Zm6.94 3.61v-7.22h1.1v1.09c.28-.51.54-.85.77-1.01.24-.17.5-.25.8-.25.4 0 .83.13 1.25.4l-.42 1.13c-.3-.17-.6-.26-.9-.26-.27 0-.5.08-.72.24a1.3 1.3 0 0 0-.46.67c-.13.43-.2.91-.2 1.43v3.78h-1.22Zm9.6-2.33 1.26.16c-.2.74-.57 1.31-1.1 1.72-.55.41-1.24.61-2.08.61a3.3 3.3 0 0 1-2.51-.97 3.83 3.83 0 0 1-.93-2.74 4 4 0 0 1 .94-2.83c.63-.67 1.44-1 2.44-1 .96 0 1.75.32 2.36.98.62.66.92 1.58.92 2.77v.33h-5.4c.05.8.28 1.4.68 1.82a2 2 0 0 0 1.51.64c.45 0 .83-.12 1.15-.36.32-.23.57-.6.76-1.13Zm-4.03-1.98h4.04c-.06-.6-.2-1.06-.46-1.36-.4-.48-.9-.71-1.52-.71-.56 0-1.04.19-1.42.56-.38.38-.6.88-.64 1.51Zm6.84 4.31v-7.22h1.1v1a2.55 2.55 0 0 1 2.18-1.17c.54 0 .97.11 1.31.34.35.22.6.53.73.93a2.6 2.6 0 0 1 2.24-1.27c.71 0 1.26.2 1.65.6.38.4.58 1 .58 1.83v4.96h-1.22v-4.55c0-.5-.04-.84-.12-1.06a1 1 0 0 0-.43-.52 1.7 1.7 0 0 0-2 .31c-.34.34-.5.88-.5 1.62v4.2h-1.23v-4.7c0-.54-.1-.95-.3-1.22-.2-.27-.53-.4-.98-.4-.34 0-.66.08-.96.26-.29.19-.5.45-.63.8-.13.35-.2.85-.2 1.51v3.75h-1.22Zm15.49-8.57v-1.4h1.22v1.4h-1.22Zm0 8.57v-7.22h1.22v7.22h-1.22Zm3.1 2.77v-10h1.11v.94a2.42 2.42 0 0 1 2.1-1.1 2.84 2.84 0 0 1 2.7 1.82c.24.58.36 1.21.36 1.9 0 .74-.14 1.4-.4 2a3 3 0 0 1-2.75 1.83c-.41 0-.78-.08-1.1-.25a2.51 2.51 0 0 1-.8-.66v3.52h-1.23Zm1.1-6.34c0 .93.2 1.62.57 2.06.38.44.83.67 1.37.67.54 0 1-.23 1.4-.69.38-.46.58-1.18.58-2.14 0-.92-.2-1.61-.58-2.07a1.7 1.7 0 0 0-1.35-.69c-.52 0-.98.25-1.39.74-.4.48-.6 1.19-.6 2.12Zm6.16 1.41 1.21-.19c.07.49.26.86.57 1.12a2 2 0 0 0 1.3.39c.57 0 .98-.12 1.25-.34.28-.23.41-.5.41-.81 0-.28-.12-.5-.36-.66-.16-.1-.58-.24-1.25-.41-.9-.23-1.52-.42-1.87-.59-.34-.16-.6-.4-.79-.68-.18-.3-.26-.62-.26-.98 0-.32.07-.62.21-.89a2 2 0 0 1 .6-.68c.2-.15.46-.26.78-.36a4.16 4.16 0 0 1 2.55.1 2 2 0 0 1 .96.66c.2.28.34.65.42 1.12l-1.2.16a1.3 1.3 0 0 0-.47-.87c-.26-.2-.63-.31-1.1-.31-.57 0-.97.1-1.21.28-.24.18-.36.4-.36.65 0 .16.05.3.15.43.1.13.25.24.47.33.12.04.48.15 1.08.3.87.24 1.47.43 1.81.58.34.15.61.36.81.64.2.28.3.63.3 1.05 0 .4-.13.8-.37 1.15-.23.36-.58.64-1.03.84-.44.2-.95.3-1.52.3-.94 0-1.66-.2-2.15-.6a2.7 2.7 0 0 1-.94-1.73Zm12.2 2.16v-1.06a2.64 2.64 0 0 1-2.3 1.22 3 3 0 0 1-1.2-.24 2.01 2.01 0 0 1-.82-.61c-.18-.25-.3-.56-.37-.92a6.21 6.21 0 0 1-.08-1.14v-4.47h1.23v4c0 .64.02 1.07.07 1.3.08.32.24.57.49.76.25.18.56.27.93.27.36 0 .7-.1 1.03-.28.32-.19.55-.45.68-.77.14-.33.2-.8.2-1.41v-3.88h1.23v7.23h-1.1Zm3.02 0v-7.22h1.09v1a2.55 2.55 0 0 1 2.2-1.17c.53 0 .96.11 1.3.34.35.22.6.53.73.93a2.6 2.6 0 0 1 2.23-1.27c.72 0 1.27.2 1.66.6.38.4.58 1 .58 1.83v4.96h-1.22v-4.55a3 3 0 0 0-.13-1.06 1 1 0 0 0-.42-.52 1.7 1.7 0 0 0-2 .31c-.34.34-.5.88-.5 1.62v4.2h-1.23v-4.7c0-.54-.1-.95-.3-1.22-.2-.27-.53-.4-.98-.4-.35 0-.67.08-.96.26-.3.19-.5.45-.63.8-.13.35-.2.85-.2 1.51v3.75H172Zm20.17 0v-.91a2.25 2.25 0 0 1-2.02 1.07c-.58 0-1.1-.16-1.6-.47a3.17 3.17 0 0 1-1.12-1.33 4.66 4.66 0 0 1-.4-1.97c0-.72.13-1.37.37-1.95a2.84 2.84 0 0 1 2.7-1.83 2.38 2.38 0 0 1 1.99 1v-3.58h1.22v9.97h-1.14Zm-3.87-3.6c0 .92.2 1.61.58 2.07a1.73 1.73 0 0 0 2.74.03c.38-.44.57-1.1.57-2 0-1-.2-1.72-.57-2.18a1.76 1.76 0 0 0-2.78-.03c-.36.45-.54 1.15-.54 2.1Zm6.48-.01c0-1.34.37-2.33 1.12-2.98.62-.53 1.38-.8 2.27-.8 1 0 1.8.33 2.44.98.63.65.94 1.55.94 2.7 0 .93-.14 1.66-.42 2.2-.28.52-.68.94-1.22 1.23-.53.3-1.11.44-1.74.44a3.26 3.26 0 0 1-2.46-.97c-.62-.65-.93-1.58-.93-2.8Zm1.26 0c0 .92.2 1.62.6 2.08.41.46.92.69 1.53.69.6 0 1.11-.23 1.52-.7.4-.46.6-1.17.6-2.11 0-.9-.2-1.57-.61-2.03-.4-.46-.9-.7-1.51-.7s-1.12.23-1.52.7c-.4.45-.61 1.14-.61 2.07Zm6.93 3.61v-9.97h1.22v9.97h-1.22Zm2.67-3.61c0-1.34.37-2.33 1.12-2.98.62-.53 1.38-.8 2.27-.8 1 0 1.8.33 2.44.98.63.65.94 1.55.94 2.7 0 .93-.14 1.66-.42 2.2-.28.52-.68.94-1.22 1.23-.53.3-1.11.44-1.74.44a3.26 3.26 0 0 1-2.46-.97c-.62-.65-.93-1.58-.93-2.8Zm1.26 0c0 .92.2 1.62.6 2.08.4.46.92.69 1.53.69.6 0 1.11-.23 1.52-.7.4-.46.6-1.17.6-2.11 0-.9-.2-1.57-.61-2.03-.4-.46-.9-.7-1.51-.7s-1.12.23-1.53.7c-.4.45-.6 1.14-.6 2.07Zm6.94 3.61v-7.22h1.1v1.09c.28-.51.54-.85.78-1.01.24-.17.5-.25.79-.25.41 0 .83.13 1.25.4l-.42 1.13c-.3-.17-.6-.26-.9-.26-.26 0-.5.08-.72.24a1.3 1.3 0 0 0-.45.67c-.14.43-.2.91-.2 1.43v3.78h-1.23Zm8.04-2.16 1.21-.19c.07.49.26.86.57 1.12a2 2 0 0 0 1.3.39c.57 0 .98-.12 1.26-.34.27-.23.4-.5.4-.81 0-.28-.12-.5-.36-.66-.16-.1-.58-.24-1.25-.41-.9-.23-1.52-.42-1.87-.59-.34-.16-.6-.4-.79-.68-.17-.3-.26-.62-.26-.98 0-.32.07-.62.21-.89.15-.27.35-.5.6-.68.2-.15.46-.26.78-.36a4.17 4.17 0 0 1 2.55.1c.44.16.76.38.96.66.2.28.34.65.42 1.12l-1.2.16a1.3 1.3 0 0 0-.47-.87c-.26-.2-.63-.31-1.1-.31-.57 0-.97.1-1.2.28-.25.18-.37.4-.37.65 0 .16.05.3.15.43.1.13.26.24.47.33.12.04.48.15 1.08.3.87.24 1.47.43 1.81.58.35.15.62.36.81.64.2.28.3.63.3 1.05 0 .4-.13.8-.37 1.15a2.3 2.3 0 0 1-1.03.84c-.44.2-.95.3-1.52.3-.94 0-1.66-.2-2.15-.6a2.7 2.7 0 0 1-.94-1.73Zm7.47-6.4v-1.41h1.22v1.4h-1.22Zm0 8.56v-7.22h1.22v7.22h-1.22Zm5.77-1.1.17 1.09c-.34.07-.65.1-.92.1a2.1 2.1 0 0 1-1.04-.2 1.19 1.19 0 0 1-.51-.56c-.1-.23-.15-.71-.15-1.44v-4.16h-.9v-.95h.9v-1.8l1.21-.73v2.53h1.24v.95h-1.24v4.22c0 .35.03.58.06.68.05.1.12.18.22.23.1.06.24.1.42.1.13 0 .31-.02.54-.06Zm9.8.2a3.75 3.75 0 0 1-2.66 1.05c-.8.01-1.41-.18-1.84-.56a2 2 0 0 1-.64-1.5 2 2 0 0 1 .87-1.67c.27-.17.56-.3.89-.4.24-.06.6-.12 1.09-.18.99-.12 1.71-.26 2.18-.43v-.31c0-.5-.1-.86-.34-1.06-.31-.28-.78-.41-1.4-.41-.57 0-1 .1-1.27.3-.28.2-.48.56-.6 1.07l-1.2-.16c.1-.52.28-.93.53-1.24.25-.32.61-.56 1.08-.73a4.77 4.77 0 0 1 1.64-.26c.62 0 1.12.07 1.5.22.4.14.68.33.86.55.18.22.3.5.38.83a7 7 0 0 1 .06 1.13v1.63c0 1.14.02 1.86.07 2.17.06.3.16.58.32.86h-1.28a2.58 2.58 0 0 1-.25-.9Zm-.1-2.73a8.8 8.8 0 0 1-2 .47c-.51.07-.87.15-1.08.24a1.05 1.05 0 0 0-.65.98c0 .33.12.6.37.82.25.22.6.32 1.09.32.47 0 .89-.1 1.25-.3.37-.21.64-.5.81-.85.14-.28.2-.69.2-1.23v-.45Zm3.14 3.63v-7.22h1.09v1a2.55 2.55 0 0 1 2.2-1.17c.53 0 .96.11 1.3.34.35.22.6.53.73.93a2.6 2.6 0 0 1 2.23-1.27c.72 0 1.27.2 1.66.6.38.4.58 1 .58 1.83v4.96h-1.22v-4.55c0-.5-.04-.84-.12-1.06-.08-.21-.22-.39-.43-.52s-.46-.2-.74-.2c-.5 0-.93.17-1.26.51-.34.34-.5.88-.5 1.62v4.2h-1.23v-4.7c0-.54-.1-.95-.3-1.22-.2-.27-.53-.4-.98-.4-.35 0-.66.08-.96.26-.3.19-.5.45-.63.8-.13.35-.2.85-.2 1.51v3.75h-1.22Zm16.55-2.33 1.26.16a3.1 3.1 0 0 1-1.1 1.72c-.54.41-1.23.61-2.07.61-1.06 0-1.9-.32-2.52-.97a3.84 3.84 0 0 1-.93-2.74 4 4 0 0 1 .94-2.83c.63-.67 1.44-1 2.44-1 .97 0 1.76.32 2.37.98.6.66.92 1.58.92 2.77l-.01.33h-5.39c.04.8.27 1.4.67 1.82a2 2 0 0 0 1.51.64c.45 0 .84-.12 1.15-.36.32-.23.57-.6.76-1.13Zm-4.02-1.98h4.03c-.05-.6-.2-1.06-.46-1.36-.39-.48-.9-.71-1.52-.71-.56 0-1.03.19-1.42.56-.38.38-.6.88-.63 1.51Zm9.5 3.22.18 1.08c-.35.07-.65.1-.93.1a2.1 2.1 0 0 1-1.03-.2 1.19 1.19 0 0 1-.52-.56c-.1-.23-.15-.71-.15-1.44v-4.16h-.9v-.95h.9v-1.8l1.22-.73v2.53H270v.95h-1.23v4.22c0 .35.02.58.06.68.05.1.12.18.21.23.1.06.24.1.43.1.13 0 .31-.02.53-.06Zm1.53 1.1v-1.4h1.4v1.4c0 .5-.1.92-.28 1.23-.18.32-.47.56-.86.73l-.34-.52c.25-.11.44-.28.57-.5.12-.22.19-.54.2-.95h-.7Zm12.15-2.66 1.2.16a3.14 3.14 0 0 1-1.01 1.95c-.54.47-1.2.7-2 .7-.98 0-1.78-.32-2.38-.96-.6-.65-.9-1.58-.9-2.78a5 5 0 0 1 .39-2.05 2.7 2.7 0 0 1 1.17-1.32 3.5 3.5 0 0 1 1.73-.44c.79 0 1.43.2 1.93.6.5.4.82.96.96 1.69l-1.2.18a1.97 1.97 0 0 0-.6-1.1 1.55 1.55 0 0 0-1.04-.36 1.9 1.9 0 0 0-1.5.66c-.39.44-.58 1.14-.58 2.1 0 .97.19 1.68.56 2.12.37.44.85.66 1.45.66.48 0 .88-.15 1.2-.44.33-.3.53-.75.62-1.37Zm1.8-.96c0-1.34.37-2.33 1.11-2.98.62-.53 1.38-.8 2.27-.8 1 0 1.8.33 2.44.98.63.65.95 1.55.95 2.7 0 .93-.14 1.66-.43 2.2-.27.52-.68.94-1.21 1.23-.54.3-1.12.44-1.75.44a3.26 3.26 0 0 1-2.45-.97c-.62-.65-.93-1.58-.93-2.8Zm1.25 0c0 .92.2 1.62.61 2.08.4.46.91.69 1.52.69s1.12-.23 1.52-.7c.4-.46.6-1.17.6-2.11 0-.9-.2-1.57-.6-2.03-.4-.46-.91-.7-1.52-.7-.6 0-1.12.23-1.52.7-.4.45-.6 1.14-.6 2.07Zm6.96 3.61v-7.22h1.1v1.02a2.6 2.6 0 0 1 2.3-1.19c.44 0 .84.08 1.2.24.37.15.64.36.82.61.18.26.3.56.38.9.05.23.07.63.07 1.2v4.44h-1.23v-4.4c0-.5-.04-.87-.14-1.11-.1-.25-.26-.45-.5-.6a1.58 1.58 0 0 0-.86-.22 2 2 0 0 0-1.35.5c-.38.33-.57.96-.57 1.88v3.95h-1.22Zm7.26-2.16 1.22-.19c.06.49.25.86.56 1.12a2 2 0 0 0 1.3.39c.57 0 .99-.12 1.26-.34.27-.23.4-.5.4-.81 0-.28-.11-.5-.35-.66a5.3 5.3 0 0 0-1.25-.41c-.9-.23-1.53-.42-1.88-.59-.34-.16-.6-.4-.79-.68a1.94 1.94 0 0 1 .56-2.55c.2-.15.45-.26.78-.36a4.16 4.16 0 0 1 2.55.1c.43.16.75.38.95.66.2.28.35.65.42 1.12l-1.2.16a1.3 1.3 0 0 0-.47-.87c-.26-.2-.63-.31-1.1-.31-.56 0-.97.1-1.2.28-.25.18-.37.4-.37.65 0 .16.05.3.15.43.1.13.26.24.47.33.12.04.49.15 1.08.3.87.24 1.47.43 1.81.58.35.15.62.36.81.64.2.28.3.63.3 1.05 0 .4-.12.8-.37 1.15a2.3 2.3 0 0 1-1.02.84c-.45.2-.96.3-1.53.3-.93 0-1.65-.2-2.15-.6a2.7 2.7 0 0 1-.94-1.73Zm12.4-.17 1.27.16a3.1 3.1 0 0 1-1.1 1.72c-.55.41-1.23.61-2.07.61-1.06 0-1.9-.32-2.52-.97a3.83 3.83 0 0 1-.93-2.74 4 4 0 0 1 .94-2.83c.63-.67 1.44-1 2.44-1 .96 0 1.75.32 2.37.98.6.66.91 1.58.91 2.77v.33h-5.4c.06.8.28 1.4.68 1.82a2 2 0 0 0 1.51.64c.45 0 .84-.12 1.15-.36.32-.23.57-.6.76-1.13Zm-4.01-1.98h4.03c-.05-.6-.2-1.06-.46-1.36-.4-.48-.9-.71-1.52-.71-.56 0-1.03.19-1.42.56-.38.38-.6.88-.63 1.51Zm11.54 1.66 1.2.16a3.13 3.13 0 0 1-1 1.95c-.55.47-1.21.7-2 .7-.99 0-1.78-.32-2.39-.96-.6-.65-.9-1.58-.9-2.78 0-.78.13-1.47.4-2.05a2.7 2.7 0 0 1 1.17-1.32 3.5 3.5 0 0 1 1.73-.44c.78 0 1.42.2 1.92.6.5.4.82.96.96 1.69l-1.19.18a1.97 1.97 0 0 0-.6-1.1 1.55 1.55 0 0 0-1.05-.36 1.9 1.9 0 0 0-1.5.66c-.38.44-.58 1.14-.58 2.1 0 .97.19 1.68.56 2.12.37.44.86.66 1.46.66.48 0 .88-.15 1.2-.44.32-.3.53-.75.61-1.37Zm4.93 1.56.18 1.08c-.35.07-.66.1-.93.1a2.1 2.1 0 0 1-1.03-.2 1.19 1.19 0 0 1-.52-.56c-.1-.23-.15-.71-.15-1.44v-4.16h-.9v-.95h.9v-1.8l1.22-.73v2.53h1.23v.95h-1.23v4.22c0 .35.02.58.06.68.05.1.12.18.21.23.1.06.24.1.42.1.14 0 .32-.02.54-.06Zm6.15-1.24 1.27.16c-.2.74-.57 1.31-1.11 1.72-.54.41-1.23.61-2.07.61-1.06 0-1.9-.32-2.52-.97a3.83 3.83 0 0 1-.92-2.74 4 4 0 0 1 .94-2.83c.62-.67 1.43-1 2.43-1 .97 0 1.76.32 2.37.98.61.66.92 1.58.92 2.77l-.01.33h-5.39c.05.8.27 1.4.68 1.82a2 2 0 0 0 1.5.64c.45 0 .84-.12 1.15-.36.32-.23.57-.6.76-1.13Zm-4.02-1.98h4.03c-.05-.6-.2-1.06-.46-1.36-.39-.48-.9-.71-1.52-.71-.56 0-1.03.19-1.42.56-.38.38-.59.88-.63 1.51Zm9.5 3.22.18 1.08c-.34.07-.65.1-.92.1a2.1 2.1 0 0 1-1.04-.2 1.19 1.19 0 0 1-.51-.56c-.1-.23-.15-.71-.15-1.44v-4.16h-.9v-.95h.9v-1.8l1.21-.73v2.53h1.24v.95h-1.24v4.22c0 .35.02.58.06.68.05.1.12.18.22.23.1.06.24.1.42.1.13 0 .31-.02.54-.06Zm5.94 1.1v-1.07a2.64 2.64 0 0 1-2.29 1.22c-.43 0-.82-.08-1.2-.24a2 2 0 0 1-.82-.61c-.18-.25-.3-.56-.37-.92a6.21 6.21 0 0 1-.08-1.14v-4.47h1.23v4c0 .64.02 1.07.07 1.3.08.32.24.57.5.76.24.18.55.27.92.27.36 0 .7-.1 1.03-.28.32-.19.55-.45.68-.77.14-.33.2-.8.2-1.41v-3.88h1.23v7.23h-1.1Zm3.01 0v-7.23h1.1v1.09c.28-.51.54-.85.78-1.01.24-.17.5-.25.79-.25.41 0 .83.13 1.26.4l-.42 1.13c-.3-.17-.6-.26-.9-.26-.27 0-.51.08-.72.24a1.3 1.3 0 0 0-.46.67c-.13.43-.2.91-.2 1.43v3.78h-1.23Zm13.25-.9a3.75 3.75 0 0 1-2.66 1.05c-.8 0-1.4-.19-1.83-.57-.43-.4-.64-.9-.64-1.5a2 2 0 0 1 .87-1.67c.26-.17.56-.3.88-.4.25-.06.6-.12 1.1-.18.98-.12 1.71-.26 2.18-.43v-.31c0-.5-.11-.86-.34-1.06-.32-.28-.78-.41-1.4-.41-.57 0-1 .1-1.28.3-.27.2-.47.56-.6 1.07l-1.2-.16c.1-.52.29-.93.54-1.24.25-.32.6-.56 1.08-.73a4.78 4.78 0 0 1 1.64-.26c.62 0 1.12.07 1.5.22.39.14.67.33.85.55.19.22.31.5.38.83.05.2.07.59.07 1.13v1.63c0 1.14.02 1.86.07 2.17.06.3.16.58.31.86h-1.28c-.12-.25-.2-.55-.24-.9Zm-.1-2.74c-.45.19-1.11.34-2 .47-.5.07-.86.15-1.07.24a1.05 1.05 0 0 0-.65.98c0 .33.12.6.36.82.25.22.62.32 1.1.32.46 0 .88-.1 1.25-.3.37-.21.64-.5.81-.85.13-.28.2-.69.2-1.23v-.45Zm7.83 3.63v-.91a2.25 2.25 0 0 1-2.02 1.07c-.58 0-1.1-.16-1.6-.47a3.17 3.17 0 0 1-1.12-1.33 4.66 4.66 0 0 1-.4-1.97c0-.72.13-1.37.37-1.95a2.84 2.84 0 0 1 2.7-1.83 2.38 2.38 0 0 1 1.99 1v-3.58h1.22v9.97h-1.14Zm-3.87-3.6c0 .92.2 1.61.58 2.07a1.72 1.72 0 0 0 2.74.03c.38-.44.57-1.1.57-2 0-1-.2-1.72-.57-2.18a1.76 1.76 0 0 0-2.78-.03c-.36.45-.54 1.15-.54 2.1Zm6.94-4.97v-1.4h1.23v1.4h-1.23Zm0 8.57v-7.22h1.23v7.22h-1.23Zm3.1 2.77v-10h1.12v.94a2.37 2.37 0 0 1 2.09-1.1 2.82 2.82 0 0 1 2.7 1.82c.24.58.36 1.21.36 1.9 0 .74-.13 1.4-.4 2a3 3 0 0 1-2.75 1.83c-.4 0-.77-.08-1.1-.25a2.5 2.5 0 0 1-.8-.66v3.52h-1.22Zm1.1-6.34c0 .93.2 1.62.57 2.06.38.44.84.67 1.37.67.55 0 1.01-.23 1.4-.69.39-.46.58-1.18.58-2.14 0-.92-.19-1.61-.57-2.07a1.7 1.7 0 0 0-1.35-.69c-.53 0-.99.25-1.4.74-.4.48-.6 1.19-.6 2.12Zm6.66-5v-1.4h1.23v1.4h-1.23Zm0 8.57v-7.22h1.23v7.22h-1.23Zm2.6-2.16 1.22-.19c.07.49.26.86.56 1.12a2 2 0 0 0 1.31.39c.56 0 .98-.12 1.25-.34.28-.23.41-.5.41-.81 0-.28-.12-.5-.36-.66-.17-.1-.58-.24-1.25-.41-.9-.23-1.52-.42-1.87-.59-.35-.16-.61-.4-.8-.68a1.94 1.94 0 0 1-.04-1.87 2 2 0 0 1 .6-.68c.2-.15.46-.26.78-.36a4.16 4.16 0 0 1 2.55.1 2 2 0 0 1 .96.66c.2.28.34.65.42 1.12l-1.2.16a1.3 1.3 0 0 0-.48-.87c-.25-.2-.62-.31-1.1-.31-.56 0-.96.1-1.2.28-.24.18-.36.4-.36.65 0 .16.05.3.15.43.1.13.25.24.47.33.12.04.48.15 1.08.3.87.24 1.47.43 1.8.58.35.15.62.36.82.64.2.28.3.63.3 1.05 0 .4-.13.8-.37 1.15a2.3 2.3 0 0 1-1.03.84c-.45.2-.95.3-1.52.3-.94 0-1.66-.2-2.15-.6-.5-.38-.8-.96-.94-1.73Zm12.18-.49 1.2.16a3.13 3.13 0 0 1-1 1.95c-.55.47-1.21.7-2 .7-.99 0-1.79-.32-2.39-.96-.6-.65-.9-1.58-.9-2.78a5 5 0 0 1 .39-2.05 2.7 2.7 0 0 1 1.18-1.32 3.5 3.5 0 0 1 1.73-.44c.78 0 1.42.2 1.92.6.5.4.82.96.96 1.69l-1.19.18a1.97 1.97 0 0 0-.6-1.1 1.55 1.55 0 0 0-1.05-.36 1.9 1.9 0 0 0-1.5.66c-.39.44-.58 1.14-.58 2.1 0 .97.19 1.68.56 2.12.37.44.86.66 1.45.66.49 0 .89-.15 1.2-.44.33-.3.54-.75.62-1.37Zm2.26-5.92v-1.4h1.23v1.4h-1.23Zm0 8.57v-7.22h1.23v7.22h-1.23Zm3.1 0v-7.22h1.1v1.02a2.6 2.6 0 0 1 2.3-1.19 3 3 0 0 1 1.2.24c.36.15.64.36.82.61.18.26.3.56.38.9.05.23.07.63.07 1.2v4.44h-1.23v-4.4c0-.5-.04-.87-.14-1.11-.1-.25-.26-.45-.5-.6a1.58 1.58 0 0 0-.86-.22 2 2 0 0 0-1.35.5c-.38.33-.57.96-.57 1.88v3.95h-1.22Zm7.53.6 1.19.18c.05.36.19.63.41.8.3.23.72.34 1.25.34.57 0 1-.11 1.31-.34.31-.23.52-.54.63-.95.06-.25.1-.78.09-1.57-.54.63-1.2.94-2 .94-1 0-1.77-.36-2.31-1.07a4.76 4.76 0 0 1-.44-4.48 3 3 0 0 1 1.08-1.36 2.94 2.94 0 0 1 1.67-.48c.86 0 1.56.35 2.11 1.04v-.88h1.13v6.25a5.9 5.9 0 0 1-.34 2.39c-.23.47-.6.84-1.1 1.12-.49.27-1.1.4-1.82.4-.87 0-1.56-.2-2.1-.58-.52-.39-.78-.97-.76-1.75Zm1.01-4.34c0 .95.2 1.64.57 2.07.37.44.84.66 1.41.66.56 0 1.04-.22 1.42-.65.38-.44.57-1.12.57-2.04 0-.88-.2-1.55-.6-2a1.81 1.81 0 0 0-2.8 0c-.38.43-.57 1.09-.57 1.96Zm15.8 1.41 1.26.16c-.2.74-.57 1.31-1.1 1.72-.55.41-1.24.61-2.08.61-1.05 0-1.9-.32-2.52-.97a3.83 3.83 0 0 1-.92-2.74 4 4 0 0 1 .94-2.83c.63-.67 1.44-1 2.44-1 .96 0 1.75.32 2.36.98.62.66.92 1.58.92 2.77v.33h-5.4c.05.8.27 1.4.68 1.82a2 2 0 0 0 1.5.64c.46 0 .84-.12 1.16-.36.32-.23.57-.6.75-1.13Zm-4.03-1.98h4.04a2.5 2.5 0 0 0-.46-1.36c-.4-.48-.9-.71-1.52-.71-.56 0-1.04.19-1.42.56-.38.38-.6.88-.64 1.51Zm6.8 4.31v-9.97h1.23v9.97h-1.22Zm3.14-8.57v-1.4h1.23v1.4h-1.23Zm0 8.57v-7.22h1.23v7.22h-1.23Zm5.77-1.1.18 1.09c-.34.07-.65.1-.93.1a2.1 2.1 0 0 1-1.03-.2 1.19 1.19 0 0 1-.52-.56c-.1-.23-.15-.71-.15-1.44v-4.16h-.9v-.95h.9v-1.8l1.22-.73v2.53h1.23v.95h-1.23v4.22c0 .35.02.58.06.68.05.1.12.18.21.23.1.06.25.1.43.1.13 0 .31-.02.53-.06Zm1.53 1.1v-1.4h1.4v1.4c0 .51-.1.93-.28 1.24-.18.32-.47.56-.86.73l-.34-.52c.25-.11.45-.28.57-.5.12-.22.19-.54.2-.95h-.7Zm6.94-2.16 1.22-.19c.06.49.25.86.56 1.12a2 2 0 0 0 1.3.39c.57 0 .99-.12 1.26-.34.27-.23.4-.5.4-.81 0-.28-.11-.5-.35-.66a6.2 6.2 0 0 0-1.25-.41c-.9-.23-1.53-.42-1.88-.59-.34-.16-.6-.4-.79-.68a1.94 1.94 0 0 1 .56-2.55c.2-.15.45-.26.78-.36a4.16 4.16 0 0 1 2.55.1c.43.16.75.38.95.66.2.28.35.65.42 1.12l-1.2.16a1.3 1.3 0 0 0-.47-.87c-.26-.2-.63-.31-1.1-.31-.56 0-.97.1-1.2.28-.25.18-.37.4-.37.65 0 .16.05.3.15.43.1.13.26.24.47.33a22 22 0 0 0 1.08.3c.87.24 1.47.43 1.81.58.35.15.62.36.81.64.2.28.3.63.3 1.05 0 .4-.12.8-.37 1.15a2.3 2.3 0 0 1-1.02.84c-.45.2-.96.3-1.53.3-.94 0-1.65-.2-2.15-.6a2.7 2.7 0 0 1-.94-1.73Zm12.4-.17 1.27.16c-.2.74-.56 1.31-1.1 1.72-.55.41-1.23.61-2.07.61-1.06 0-1.9-.32-2.52-.97a3.83 3.83 0 0 1-.93-2.74 4 4 0 0 1 .94-2.83c.63-.67 1.44-1 2.44-1 .96 0 1.75.32 2.37.98.6.66.91 1.58.91 2.77v.33h-5.4c.06.8.28 1.4.68 1.82a2 2 0 0 0 1.51.64c.45 0 .84-.12 1.15-.36.32-.23.57-.6.76-1.13Zm-4.01-1.98h4.03c-.05-.6-.2-1.06-.46-1.36-.4-.48-.9-.71-1.52-.71-.56 0-1.03.19-1.42.56-.38.38-.6.88-.63 1.51Zm11.52 4.31v-.91a2.25 2.25 0 0 1-2.02 1.07c-.58 0-1.11-.16-1.6-.47a3.17 3.17 0 0 1-1.12-1.33 4.66 4.66 0 0 1-.4-1.97c0-.72.13-1.37.37-1.95a2.84 2.84 0 0 1 3.86-1.55c.33.18.61.42.82.72v-3.58h1.22v9.97h-1.13Zm-3.88-3.6c0 .92.2 1.61.59 2.07a1.73 1.73 0 0 0 2.74.03c.38-.44.57-1.1.57-2 0-1-.2-1.72-.57-2.18a1.76 1.76 0 0 0-2.78-.03c-.36.45-.55 1.15-.55 2.1Zm15.51 3.6v-.91a2.25 2.25 0 0 1-2.02 1.07c-.57 0-1.1-.16-1.6-.47a3.17 3.17 0 0 1-1.11-1.33 4.66 4.66 0 0 1-.4-1.97c0-.72.12-1.37.36-1.95a2.84 2.84 0 0 1 3.86-1.55c.34.18.62.42.83.72v-3.58h1.22v9.97h-1.14Zm-3.87-3.6c0 .92.2 1.61.59 2.07a1.73 1.73 0 0 0 2.74.03c.37-.44.56-1.1.56-2 0-1-.19-1.72-.57-2.18a1.76 1.76 0 0 0-2.78-.03c-.36.45-.54 1.15-.54 2.1Zm6.48-.01c0-1.34.38-2.33 1.12-2.98.62-.53 1.38-.8 2.27-.8 1 0 1.8.33 2.44.98.63.65.94 1.55.94 2.7 0 .93-.14 1.66-.42 2.2a2.9 2.9 0 0 1-1.22 1.23c-.53.3-1.1.44-1.74.44a3.26 3.26 0 0 1-2.45-.97c-.63-.65-.94-1.58-.94-2.8Zm1.26 0c0 .92.2 1.62.6 2.08.41.46.92.69 1.53.69s1.12-.23 1.52-.7c.4-.46.6-1.17.6-2.11 0-.9-.2-1.57-.6-2.03-.41-.46-.91-.7-1.52-.7s-1.12.23-1.52.7c-.4.45-.6 1.14-.6 2.07Zm15.78 1.28 1.27.16c-.2.74-.57 1.31-1.11 1.72-.54.41-1.23.61-2.07.61-1.06 0-1.9-.32-2.52-.97a3.83 3.83 0 0 1-.92-2.74 4 4 0 0 1 .94-2.83c.62-.67 1.43-1 2.43-1 .97 0 1.76.32 2.37.98.61.66.92 1.58.92 2.77v.33h-5.4c.05.8.27 1.4.68 1.82a2 2 0 0 0 1.5.64c.45 0 .84-.12 1.16-.36.31-.23.57-.6.75-1.13Zm-4.02-1.98h4.04a2.43 2.43 0 0 0-.47-1.36c-.39-.48-.9-.71-1.52-.71-.56 0-1.03.19-1.42.56-.38.38-.59.88-.63 1.51Zm6.84-4.26v-1.4h1.22v1.4h-1.22Zm0 8.57v-7.22h1.22v7.22h-1.22Zm7.83 0v-1.06a2.64 2.64 0 0 1-2.3 1.22c-.42 0-.82-.08-1.2-.24a2.01 2.01 0 0 1-.81-.61c-.18-.25-.3-.56-.38-.92a6.21 6.21 0 0 1-.07-1.14v-4.47h1.22v4c0 .64.03 1.07.08 1.3.07.32.24.57.49.76.25.18.55.27.92.27s.71-.1 1.04-.28c.32-.19.55-.45.68-.77.13-.33.2-.8.2-1.41v-3.88h1.23v7.23h-1.1Zm2.53-2.16 1.21-.19c.07.49.26.86.57 1.12a2 2 0 0 0 1.3.39c.57 0 .98-.12 1.25-.34.28-.23.41-.5.41-.81 0-.28-.12-.5-.36-.66-.16-.1-.58-.24-1.25-.41-.9-.23-1.52-.42-1.87-.59-.35-.16-.6-.4-.79-.68-.18-.3-.26-.62-.26-.98 0-.32.07-.62.21-.89.15-.27.35-.5.6-.68.2-.15.46-.26.78-.36a4.17 4.17 0 0 1 2.55.1 2 2 0 0 1 .96.66c.2.28.34.65.42 1.12l-1.2.16a1.3 1.3 0 0 0-.47-.87c-.26-.2-.63-.31-1.1-.31-.57 0-.97.1-1.21.28-.24.18-.36.4-.36.65 0 .16.05.3.15.43.1.13.26.24.47.33.12.04.48.15 1.08.3.87.24 1.47.43 1.81.58.34.15.61.36.81.64.2.28.3.63.3 1.05 0 .4-.13.8-.37 1.15a2.3 2.3 0 0 1-1.03.84c-.44.2-.95.3-1.52.3-.94 0-1.66-.2-2.15-.6a2.7 2.7 0 0 1-.94-1.73Zm7.46 2.16v-7.22h1.1v1a2.53 2.53 0 0 1 2.18-1.17c.54 0 .98.11 1.32.34.34.22.58.53.73.93a2.6 2.6 0 0 1 2.23-1.27c.71 0 1.27.2 1.65.6.39.4.58 1 .58 1.83v4.96h-1.22v-4.55c0-.5-.04-.84-.12-1.06a1 1 0 0 0-.43-.52c-.2-.13-.45-.2-.74-.2-.5 0-.92.17-1.26.51-.34.34-.5.88-.5 1.62v4.2h-1.23v-4.7c0-.54-.1-.95-.3-1.22-.2-.27-.52-.4-.98-.4-.34 0-.66.08-.96.26-.29.19-.5.45-.63.8-.13.35-.2.85-.2 1.51v3.75h-1.22Zm11.15-3.61c0-1.34.37-2.33 1.12-2.98.62-.53 1.38-.8 2.27-.8 1 0 1.8.33 2.43.98.63.65.95 1.55.95 2.7 0 .93-.14 1.66-.42 2.2-.28.52-.68.94-1.22 1.23-.53.3-1.11.44-1.74.44a3.26 3.26 0 0 1-2.46-.97c-.62-.65-.93-1.58-.93-2.8Zm1.26 0c0 .92.2 1.62.6 2.08.4.46.92.69 1.53.69.6 0 1.11-.23 1.52-.7.4-.46.6-1.17.6-2.11 0-.9-.2-1.57-.61-2.03-.4-.46-.9-.7-1.51-.7s-1.12.23-1.53.7c-.4.45-.6 1.14-.6 2.07Zm11.64 3.61v-.91a2.25 2.25 0 0 1-2.02 1.07c-.58 0-1.1-.16-1.6-.47a3.17 3.17 0 0 1-1.11-1.33 4.66 4.66 0 0 1-.4-1.97c0-.72.12-1.37.36-1.95a2.84 2.84 0 0 1 3.86-1.55c.34.18.62.42.83.72v-3.58h1.22v9.97h-1.14Zm-3.87-3.6c0 .92.2 1.61.58 2.07a1.73 1.73 0 0 0 2.74.03c.38-.44.57-1.1.57-2 0-1-.19-1.72-.57-2.18a1.76 1.76 0 0 0-2.78-.03c-.36.45-.54 1.15-.54 2.1Zm-432.24 23.5.18 1.09c-.35.07-.66.1-.93.1a2.1 2.1 0 0 1-1.03-.2 1.19 1.19 0 0 1-.52-.56c-.1-.23-.15-.71-.15-1.44v-4.16h-.9v-.95h.9v-1.8l1.22-.73v2.53h1.23v.95h-1.23v4.22c0 .35.02.58.06.68.05.1.12.18.21.23.1.06.24.1.42.1.14 0 .32-.02.54-.06Zm6.15-1.23 1.27.16a3.1 3.1 0 0 1-1.11 1.72c-.54.41-1.23.61-2.07.61-1.06 0-1.9-.32-2.52-.97a3.83 3.83 0 0 1-.92-2.74 4 4 0 0 1 .94-2.83c.62-.67 1.43-1 2.43-1 .97 0 1.76.32 2.37.98.61.66.92 1.58.92 2.77l-.01.33h-5.39c.05.8.27 1.4.67 1.82a2 2 0 0 0 1.52.64c.44 0 .83-.12 1.14-.36.32-.23.57-.6.76-1.13Zm-4.02-1.98h4.03c-.05-.6-.2-1.06-.46-1.36-.39-.48-.9-.71-1.52-.71-.56 0-1.03.19-1.42.56-.38.38-.59.88-.63 1.51Zm6.83 4.31v-7.22h1.1v1a2.54 2.54 0 0 1 2.19-1.17c.53 0 .97.11 1.31.34.34.22.59.53.73.93a2.6 2.6 0 0 1 2.23-1.27c.72 0 1.27.2 1.65.6.39.4.58 1 .58 1.83v4.96h-1.22v-4.55c0-.5-.04-.84-.12-1.06a1 1 0 0 0-.43-.52c-.2-.13-.45-.2-.73-.2-.51 0-.93.17-1.27.51-.33.34-.5.88-.5 1.62v4.2h-1.23v-4.7c0-.54-.1-.95-.3-1.22-.2-.27-.52-.4-.97-.4-.35 0-.67.08-.97.26-.28.19-.5.45-.63.8-.13.35-.2.85-.2 1.51v3.75h-1.22Zm11.6 2.77v-10h1.12v.94a2.43 2.43 0 0 1 2.1-1.1 2.82 2.82 0 0 1 2.7 1.82c.24.58.36 1.21.36 1.9 0 .74-.13 1.4-.4 2a3 3 0 0 1-2.75 1.83c-.4 0-.77-.08-1.1-.25a2.51 2.51 0 0 1-.8-.66v3.52h-1.22Zm1.12-6.34c0 .93.19 1.62.56 2.06.38.44.83.67 1.37.67.54 0 1-.23 1.4-.69.38-.46.58-1.18.58-2.14 0-.92-.2-1.61-.57-2.07a1.7 1.7 0 0 0-1.36-.69c-.52 0-.98.25-1.38.74-.4.48-.6 1.19-.6 2.12Zm6.19-.04c0-1.34.37-2.33 1.12-2.98.62-.53 1.37-.8 2.27-.8 1 0 1.8.33 2.43.98.63.65.95 1.55.95 2.7 0 .93-.14 1.66-.42 2.2-.28.52-.69.94-1.22 1.23-.53.3-1.11.44-1.74.44a3.26 3.26 0 0 1-2.46-.97c-.62-.65-.93-1.58-.93-2.8Zm1.26 0c0 .92.2 1.62.6 2.08.4.46.92.69 1.53.69.6 0 1.11-.23 1.52-.7.4-.46.6-1.17.6-2.11 0-.9-.2-1.57-.61-2.03-.4-.46-.9-.7-1.51-.7s-1.12.23-1.53.7c-.4.45-.6 1.14-.6 2.07Zm6.94 3.61v-7.22h1.1v1.09c.28-.51.54-.85.78-1.01.24-.17.5-.25.79-.25.4 0 .83.13 1.25.4l-.42 1.13c-.3-.17-.6-.26-.9-.26-.26 0-.5.08-.72.24a1.3 1.3 0 0 0-.45.67c-.14.43-.2.91-.2 1.43v3.78h-1.23Zm8.54-8.57v-1.4h1.22v1.4h-1.22Zm0 8.57v-7.22h1.22v7.22h-1.22Zm3.1 0v-7.22h1.1v1.02a2.6 2.6 0 0 1 2.3-1.19 3 3 0 0 1 1.2.24c.36.15.63.36.81.61.19.26.31.56.39.9.04.23.06.63.06 1.2v4.44h-1.22v-4.4c0-.5-.05-.87-.14-1.11-.1-.25-.27-.45-.51-.6a1.58 1.58 0 0 0-.85-.22 2 2 0 0 0-1.36.5c-.37.33-.56.96-.56 1.88v3.95h-1.23Zm12.46-2.65 1.2.16a3.14 3.14 0 0 1-1 1.95c-.55.47-1.2.7-2 .7-.99 0-1.78-.32-2.39-.96-.6-.65-.9-1.58-.9-2.78 0-.78.13-1.47.4-2.05.25-.59.64-1.03 1.17-1.32a3.5 3.5 0 0 1 1.73-.44c.78 0 1.43.2 1.92.6.5.4.82.96.96 1.69l-1.19.18a1.97 1.97 0 0 0-.6-1.1 1.55 1.55 0 0 0-1.04-.36 1.9 1.9 0 0 0-1.5.66c-.4.44-.59 1.14-.59 2.1 0 .97.19 1.68.56 2.12.37.44.86.66 1.46.66.48 0 .88-.15 1.2-.44.32-.3.53-.75.61-1.37Zm2.26-5.92v-1.4h1.23v1.4h-1.23Zm0 8.57v-7.22h1.23v7.22h-1.23Zm7.79 0v-.91a2.25 2.25 0 0 1-2.02 1.07c-.58 0-1.11-.16-1.6-.47a3.16 3.16 0 0 1-1.12-1.33 4.64 4.64 0 0 1-.4-1.97c0-.72.13-1.37.37-1.95a2.84 2.84 0 0 1 2.7-1.83 2.38 2.38 0 0 1 1.98 1v-3.58h1.22v9.97h-1.13Zm-3.87-3.6c0 .92.2 1.61.58 2.07a1.73 1.73 0 0 0 2.74.03c.38-.44.57-1.1.57-2 0-1-.2-1.72-.57-2.18a1.76 1.76 0 0 0-2.78-.03c-.36.45-.54 1.15-.54 2.1Zm6.94-4.97v-1.4h1.23v1.4h-1.23Zm0 8.57v-7.22h1.23v7.22h-1.23Zm7.79 0v-.91a2.25 2.25 0 0 1-2.02 1.07c-.58 0-1.11-.16-1.6-.47a3.17 3.17 0 0 1-1.12-1.33 4.66 4.66 0 0 1-.4-1.97c0-.72.13-1.37.37-1.95a2.84 2.84 0 0 1 3.85-1.55c.34.18.62.42.84.72v-3.58h1.21v9.97h-1.13Zm-3.88-3.6c0 .92.2 1.61.59 2.07a1.73 1.73 0 0 0 2.74.03c.38-.44.57-1.1.57-2 0-1-.2-1.72-.57-2.18a1.76 1.76 0 0 0-2.78-.03c-.36.45-.54 1.15-.54 2.1Zm11.68 3.6v-1.06a2.64 2.64 0 0 1-2.3 1.22c-.42 0-.82-.08-1.19-.24a2 2 0 0 1-.82-.61c-.18-.25-.3-.56-.38-.92a6.21 6.21 0 0 1-.07-1.14v-4.47h1.22v4c0 .64.03 1.07.08 1.3.07.32.24.57.49.76.25.18.56.27.92.27.37 0 .72-.1 1.04-.28.32-.19.55-.45.68-.77.13-.33.2-.8.2-1.41v-3.88h1.23v7.23h-1.1Zm3.02 0v-7.22h1.1v1.02a2.6 2.6 0 0 1 2.3-1.19c.44 0 .84.08 1.2.24.37.15.64.36.82.61.19.26.31.56.39.9.04.23.06.63.06 1.2v4.44h-1.22v-4.4c0-.5-.05-.87-.14-1.11-.1-.25-.27-.45-.51-.6a1.58 1.58 0 0 0-.85-.22 2 2 0 0 0-1.36.5c-.38.33-.56.96-.56 1.88v3.95h-1.23Zm10.43-1.1.18 1.09c-.35.07-.65.1-.93.1a2.1 2.1 0 0 1-1.03-.2 1.2 1.2 0 0 1-.52-.56c-.1-.23-.15-.71-.15-1.44v-4.16h-.9v-.95h.9v-1.8l1.22-.73v2.53h1.23v.95h-1.23v4.22c0 .35.02.58.06.68.05.1.12.18.21.23.1.06.24.1.43.1.13 0 .31-.02.53-.06Zm9.82 1.1v-1.06a2.64 2.64 0 0 1-2.3 1.22c-.42 0-.82-.08-1.19-.24a2 2 0 0 1-.82-.61c-.18-.25-.3-.56-.38-.92a6.24 6.24 0 0 1-.07-1.14v-4.47h1.22v4c0 .64.03 1.07.08 1.3.07.32.24.57.49.76.25.18.56.27.92.27.37 0 .71-.1 1.04-.28.32-.19.54-.45.68-.77.13-.33.2-.8.2-1.41v-3.88h1.23v7.23h-1.1Zm5.7-1.1.17 1.09c-.34.07-.65.1-.92.1-.45 0-.8-.06-1.04-.2a1.18 1.18 0 0 1-.51-.56c-.1-.23-.15-.71-.15-1.44v-4.16h-.9v-.95h.9v-1.8l1.21-.73v2.53h1.23v.95h-1.23v4.22c0 .35.02.58.06.68.05.1.12.18.22.23.1.06.24.1.42.1.13 0 .31-.02.53-.06Zm5.05 1.1v-9.97h1.22v9.97h-1.22Zm7.85-.9a3.76 3.76 0 0 1-2.66 1.05c-.8.01-1.4-.18-1.84-.56-.42-.4-.63-.9-.63-1.5a1.98 1.98 0 0 1 .87-1.67c.26-.17.55-.3.88-.4.24-.06.6-.12 1.09-.18.99-.12 1.72-.26 2.18-.43l.01-.31c0-.5-.12-.86-.35-1.06-.3-.28-.77-.41-1.4-.41-.57 0-1 .1-1.27.3-.27.2-.47.56-.6 1.07l-1.2-.16c.1-.52.28-.93.53-1.24.25-.32.61-.56 1.09-.73a4.78 4.78 0 0 1 1.64-.26c.61 0 1.11.07 1.5.22.38.14.67.33.85.55.18.22.3.5.38.83a7 7 0 0 1 .06 1.13v1.63c0 1.14.03 1.86.08 2.17.05.3.16.58.31.86h-1.28a2.6 2.6 0 0 1-.24-.9Zm-.1-2.73a8.8 8.8 0 0 1-2 .47c-.51.07-.87.15-1.08.24a1.05 1.05 0 0 0-.65.98c0 .33.12.6.37.82.25.22.61.32 1.09.32.47 0 .89-.1 1.26-.3.36-.21.63-.5.8-.85.14-.28.2-.69.2-1.23v-.45Zm4.27 3.63h-1.14v-9.97h1.22v3.55a2.42 2.42 0 0 1 1.99-.97c.44 0 .86.1 1.25.27.4.18.73.43.98.76.26.32.46.71.6 1.17.15.46.23.95.23 1.47 0 1.24-.3 2.2-.92 2.87a2.87 2.87 0 0 1-2.2 1.01 2.3 2.3 0 0 1-2.01-1.06v.9Zm-.02-3.67c0 .87.12 1.5.36 1.88.38.63.9.95 1.56.95.54 0 1-.23 1.39-.7.39-.46.59-1.16.59-2.08 0-.94-.2-1.64-.57-2.09a1.7 1.7 0 0 0-1.35-.67c-.54 0-1 .23-1.4.7a3.09 3.09 0 0 0-.58 2.01Zm6.19.06c0-1.34.37-2.33 1.11-2.98.63-.53 1.38-.8 2.28-.8.99 0 1.8.33 2.43.98.63.65.95 1.55.95 2.7 0 .93-.14 1.66-.42 2.2-.28.52-.69.94-1.22 1.23-.53.3-1.11.44-1.74.44a3.26 3.26 0 0 1-2.46-.97c-.62-.65-.93-1.58-.93-2.8Zm1.26 0c0 .92.2 1.62.6 2.08.4.46.91.69 1.53.69.6 0 1.11-.23 1.51-.7.4-.46.6-1.17.6-2.11 0-.9-.2-1.57-.6-2.03-.4-.46-.91-.7-1.51-.7-.62 0-1.12.23-1.53.7-.4.45-.6 1.14-.6 2.07Zm6.94 3.61v-7.22h1.1v1.09c.28-.51.54-.85.78-1.01.24-.17.5-.25.78-.25.42 0 .84.13 1.26.4l-.42 1.13c-.3-.17-.6-.26-.9-.26-.26 0-.5.08-.72.24a1.3 1.3 0 0 0-.45.67c-.14.43-.2.91-.2 1.43v3.78h-1.23Zm9.6-2.33 1.26.16a3.1 3.1 0 0 1-1.1 1.72c-.55.41-1.24.61-2.07.61-1.06 0-1.9-.32-2.52-.97a3.84 3.84 0 0 1-.93-2.74 4 4 0 0 1 .94-2.83c.63-.67 1.44-1 2.44-1 .96 0 1.75.32 2.36.98.62.66.92 1.58.92 2.77v.33h-5.4c.05.8.28 1.4.68 1.82a2 2 0 0 0 1.51.64c.45 0 .83-.12 1.15-.36.32-.23.57-.6.76-1.13Zm-4.02-1.98h4.03c-.05-.6-.2-1.06-.46-1.36-.4-.48-.9-.71-1.52-.71-.56 0-1.04.19-1.42.56-.38.38-.6.88-.63 1.51Zm15.65 1.98 1.27.16a3.1 3.1 0 0 1-1.11 1.72c-.54.41-1.23.61-2.07.61-1.06 0-1.9-.32-2.52-.97a3.84 3.84 0 0 1-.92-2.74 4 4 0 0 1 .94-2.83c.62-.67 1.43-1 2.43-1 .97 0 1.76.32 2.37.98.61.66.92 1.58.92 2.77v.33h-5.4c.05.8.27 1.4.68 1.82a2 2 0 0 0 1.5.64c.46 0 .84-.12 1.16-.36.31-.23.57-.6.75-1.13Zm-4.02-1.98h4.04a2.43 2.43 0 0 0-.47-1.36c-.39-.48-.9-.71-1.51-.71a2 2 0 0 0-1.43.56c-.38.38-.59.88-.63 1.51Zm9.5 3.22.18 1.08c-.34.07-.65.1-.92.1a2.1 2.1 0 0 1-1.04-.2 1.2 1.2 0 0 1-.51-.56c-.1-.23-.15-.71-.15-1.44v-4.16h-.9v-.95h.9v-1.8l1.21-.73v2.53h1.24v.95h-1.24v4.22c0 .35.03.58.07.68.04.1.11.18.2.23.1.06.25.1.43.1.13 0 .31-.02.54-.06Zm9.78 1.1v-.92a2.25 2.25 0 0 1-2.02 1.07c-.58 0-1.11-.16-1.6-.47a3.17 3.17 0 0 1-1.12-1.33 4.66 4.66 0 0 1-.4-1.97c0-.72.13-1.37.37-1.95a2.84 2.84 0 0 1 3.86-1.55c.33.18.61.42.82.72v-3.58h1.22v9.97h-1.13Zm-3.88-3.62c0 .93.2 1.62.59 2.08a1.73 1.73 0 0 0 2.74.03c.38-.44.57-1.1.57-2 0-1-.2-1.72-.57-2.18a1.76 1.76 0 0 0-2.78-.03c-.36.45-.54 1.15-.54 2.1Zm6.49 0c0-1.34.37-2.33 1.12-2.98.62-.53 1.37-.8 2.27-.8 1 0 1.8.33 2.43.98.63.65.95 1.55.95 2.7 0 .93-.14 1.66-.42 2.2-.28.52-.69.94-1.22 1.23-.53.3-1.11.44-1.74.44a3.26 3.26 0 0 1-2.46-.97c-.62-.65-.93-1.58-.93-2.8Zm1.26 0c0 .92.2 1.62.6 2.08.4.46.92.69 1.53.69.6 0 1.11-.23 1.51-.7.4-.46.61-1.17.61-2.11 0-.9-.2-1.57-.61-2.03-.4-.46-.9-.7-1.51-.7-.62 0-1.12.23-1.53.7-.4.45-.6 1.14-.6 2.07Zm6.93 3.61v-9.97h1.22v9.97h-1.23Zm2.67-3.61c0-1.34.37-2.33 1.12-2.98.62-.53 1.37-.8 2.27-.8.99 0 1.8.33 2.43.98.63.65.95 1.55.95 2.7 0 .93-.14 1.66-.42 2.2-.28.52-.69.94-1.22 1.23-.53.3-1.11.44-1.74.44a3.26 3.26 0 0 1-2.46-.97c-.62-.65-.93-1.58-.93-2.8Zm1.26 0c0 .92.2 1.62.6 2.08.4.46.91.69 1.53.69.6 0 1.11-.23 1.51-.7.4-.46.61-1.17.61-2.11 0-.9-.2-1.57-.61-2.03-.4-.46-.91-.7-1.51-.7-.62 0-1.12.23-1.53.7-.4.45-.6 1.14-.6 2.07Zm6.94 3.61v-7.22h1.1v1.09c.28-.51.54-.85.77-1.01.25-.17.5-.25.8-.25.4 0 .83.13 1.25.4l-.42 1.13c-.3-.17-.6-.26-.9-.26-.26 0-.5.08-.72.24a1.3 1.3 0 0 0-.45.67c-.14.43-.2.91-.2 1.43v3.78h-1.23Zm9.6-2.33 1.26.16a3.1 3.1 0 0 1-1.1 1.72c-.54.41-1.23.61-2.07.61-1.06 0-1.9-.32-2.52-.97a3.84 3.84 0 0 1-.93-2.74 4 4 0 0 1 .94-2.83c.63-.67 1.44-1 2.44-1 .96 0 1.75.32 2.37.98.6.66.91 1.58.91 2.77v.33h-5.4c.05.8.28 1.4.68 1.82a2 2 0 0 0 1.51.64c.45 0 .84-.12 1.15-.36.32-.23.57-.6.76-1.13Zm-4.02-1.98h4.03c-.05-.6-.2-1.06-.46-1.36-.4-.48-.9-.71-1.52-.71-.56 0-1.03.19-1.42.56-.38.38-.6.88-.63 1.51Zm10.7 4.31v-7.22h1.1v1a2.54 2.54 0 0 1 2.2-1.17c.53 0 .97.11 1.3.34.35.22.6.53.73.93a2.6 2.6 0 0 1 2.24-1.27c.71 0 1.26.2 1.65.6.38.4.58 1 .58 1.83v4.96H338v-4.55c0-.5-.04-.84-.12-1.06a1 1 0 0 0-.43-.52 1.7 1.7 0 0 0-2 .31c-.34.34-.5.88-.5 1.62v4.2h-1.23v-4.7c0-.54-.1-.95-.3-1.22-.2-.27-.53-.4-.98-.4-.34 0-.66.08-.96.26-.29.19-.5.45-.63.8-.13.35-.2.85-.2 1.51v3.75h-1.22Zm16.33-.9a3.75 3.75 0 0 1-2.66 1.05c-.8.01-1.4-.18-1.83-.56-.43-.4-.64-.9-.64-1.5a1.98 1.98 0 0 1 .87-1.67c.26-.17.56-.3.88-.4.25-.06.6-.12 1.1-.18.98-.12 1.71-.26 2.18-.43v-.31c0-.5-.11-.86-.34-1.06-.32-.28-.78-.41-1.4-.41-.57 0-1 .1-1.28.3-.27.2-.47.56-.6 1.07l-1.2-.16c.1-.52.29-.93.54-1.24.25-.32.6-.56 1.08-.73a4.78 4.78 0 0 1 1.64-.26c.62 0 1.12.07 1.5.22.39.14.67.33.85.55.19.22.31.5.38.83.05.2.06.59.06 1.13v1.63c0 1.14.03 1.86.08 2.17.06.3.16.58.31.86H346a2.6 2.6 0 0 1-.24-.9Zm-.1-2.73c-.45.19-1.11.34-2 .47-.5.07-.86.15-1.07.24a1.06 1.06 0 0 0-.65.98c0 .33.12.6.36.82.25.22.61.32 1.1.32.46 0 .88-.1 1.25-.3.37-.21.64-.5.81-.85.13-.28.2-.69.2-1.23v-.45Zm2.92 4.23 1.19.18c.05.36.19.63.41.8.3.23.72.34 1.25.34.56 0 1-.11 1.31-.34.3-.23.52-.54.63-.95.06-.25.09-.78.08-1.57a2.5 2.5 0 0 1-2 .94c-.99 0-1.76-.36-2.3-1.07a4.78 4.78 0 0 1-.44-4.48 3 3 0 0 1 1.08-1.36 2.94 2.94 0 0 1 1.67-.48c.85 0 1.56.35 2.11 1.04v-.88h1.13v6.25c0 1.13-.12 1.92-.35 2.39a2.5 2.5 0 0 1-1.09 1.12c-.49.27-1.1.4-1.83.4-.86 0-1.55-.2-2.09-.58-.53-.39-.78-.97-.76-1.75Zm1.01-4.34c0 .95.19 1.64.56 2.07.38.44.85.66 1.42.66.56 0 1.03-.22 1.42-.65.38-.44.57-1.12.57-2.04 0-.88-.2-1.55-.6-2a1.81 1.81 0 0 0-2.8 0c-.38.43-.57 1.09-.57 1.96Zm6.97 3.74v-7.22h1.1v1.02a2.6 2.6 0 0 1 2.3-1.19c.44 0 .83.08 1.2.24.36.15.64.36.82.61.18.26.3.56.38.9.05.23.07.63.07 1.2v4.44h-1.23v-4.4c0-.5-.04-.87-.14-1.11-.1-.25-.26-.45-.5-.6a1.58 1.58 0 0 0-.86-.22 2 2 0 0 0-1.35.5c-.38.33-.57.96-.57 1.88v3.95h-1.22Zm12.47-.9a3.76 3.76 0 0 1-2.66 1.05c-.8.01-1.4-.18-1.83-.56-.43-.4-.64-.9-.64-1.5a1.98 1.98 0 0 1 .87-1.67c.26-.17.56-.3.88-.4.25-.06.6-.12 1.1-.18.98-.12 1.71-.26 2.18-.43v-.31c0-.5-.11-.86-.34-1.06-.32-.28-.78-.41-1.4-.41-.57 0-1 .1-1.28.3-.27.2-.47.56-.6 1.07l-1.2-.16c.1-.52.29-.93.54-1.24.25-.32.6-.56 1.08-.73a4.78 4.78 0 0 1 1.64-.26c.62 0 1.12.07 1.5.22.39.14.67.33.85.55.18.22.31.5.38.83.05.2.06.59.06 1.13v1.63c0 1.14.03 1.86.08 2.17.06.3.16.58.31.86h-1.28a2.6 2.6 0 0 1-.24-.9Zm-.1-2.73c-.45.19-1.11.34-2 .47-.5.07-.86.15-1.07.24a1.06 1.06 0 0 0-.66.98c0 .33.13.6.37.82.25.22.62.32 1.1.32.46 0 .88-.1 1.25-.3.37-.21.64-.5.81-.85.13-.28.2-.69.2-1.23v-.45Zm11.73.98 1.2.16a3.13 3.13 0 0 1-1 1.95c-.55.47-1.21.7-2 .7-.99 0-1.78-.32-2.39-.96-.6-.65-.9-1.58-.9-2.78 0-.78.13-1.47.4-2.05a2.7 2.7 0 0 1 1.17-1.32 3.5 3.5 0 0 1 1.73-.44c.78 0 1.42.2 1.92.6.5.4.82.96.96 1.69l-1.19.18a1.97 1.97 0 0 0-.6-1.1 1.55 1.55 0 0 0-1.05-.36 1.9 1.9 0 0 0-1.5.66c-.38.44-.58 1.14-.58 2.1 0 .97.19 1.68.56 2.12.37.44.86.66 1.46.66.48 0 .88-.15 1.2-.44.32-.3.53-.75.61-1.37Zm1.8-.96c0-1.34.37-2.33 1.12-2.98.62-.53 1.38-.8 2.27-.8 1 0 1.8.33 2.43.98.63.65.95 1.55.95 2.7 0 .93-.14 1.66-.42 2.2-.28.52-.68.94-1.22 1.23-.53.3-1.11.44-1.74.44a3.26 3.26 0 0 1-2.46-.97c-.62-.65-.93-1.58-.93-2.8Zm1.26 0c0 .92.2 1.62.6 2.08.4.46.92.69 1.53.69.6 0 1.11-.23 1.52-.7.4-.46.6-1.17.6-2.11 0-.9-.2-1.57-.61-2.03-.4-.46-.9-.7-1.51-.7s-1.12.23-1.53.7c-.4.45-.6 1.14-.6 2.07Zm6.95 3.61v-7.22h1.1v1.02a2.6 2.6 0 0 1 2.3-1.19c.44 0 .84.08 1.2.24.37.15.64.36.82.61.19.26.31.56.39.9.04.23.06.63.06 1.2v4.44h-1.22v-4.4c0-.5-.05-.87-.14-1.11-.1-.25-.27-.45-.51-.6a1.58 1.58 0 0 0-.85-.22 2 2 0 0 0-1.36.5c-.37.33-.56.96-.56 1.88v3.95h-1.23Zm7.27-2.16 1.21-.19c.07.49.26.86.56 1.12a2 2 0 0 0 1.31.39c.56 0 .98-.12 1.25-.34.28-.23.41-.5.41-.81 0-.28-.12-.5-.36-.66-.17-.1-.58-.24-1.25-.41-.9-.23-1.52-.42-1.87-.59-.35-.16-.61-.4-.8-.68a1.94 1.94 0 0 1-.04-1.87 2 2 0 0 1 .6-.68c.2-.15.46-.26.78-.36a4.16 4.16 0 0 1 2.55.1c.43.16.75.38.96.66.2.28.34.65.42 1.12l-1.2.16a1.3 1.3 0 0 0-.48-.87c-.25-.2-.62-.31-1.1-.31-.56 0-.96.1-1.2.28-.24.18-.36.4-.36.65 0 .16.05.3.15.43.1.13.25.24.47.33.12.04.48.15 1.08.3.87.24 1.47.43 1.8.58.35.15.62.36.82.64.2.28.29.63.29 1.05 0 .4-.12.8-.36 1.15-.24.36-.58.64-1.03.84-.45.2-.96.3-1.52.3-.94 0-1.66-.2-2.15-.6-.5-.38-.8-.96-.94-1.73Zm12.4-.17 1.27.16a3.1 3.1 0 0 1-1.11 1.72c-.54.41-1.23.61-2.07.61-1.06 0-1.9-.32-2.52-.97a3.84 3.84 0 0 1-.92-2.74 4 4 0 0 1 .94-2.83c.62-.67 1.44-1 2.43-1 .97 0 1.76.32 2.37.98.61.66.92 1.58.92 2.77v.33h-5.4c.05.8.27 1.4.68 1.82a2 2 0 0 0 1.5.64c.46 0 .84-.12 1.16-.36.31-.23.57-.6.75-1.13Zm-4.02-1.98h4.04a2.43 2.43 0 0 0-.47-1.36c-.39-.48-.9-.71-1.51-.71a2 2 0 0 0-1.43.56c-.38.38-.59.88-.63 1.51Zm11.44 7.08v-3.54a2.2 2.2 0 0 1-.8.67c-.34.17-.7.26-1.1.26a2.9 2.9 0 0 1-2.21-1.02 4.05 4.05 0 0 1-.93-2.82c0-.73.13-1.38.38-1.95a2.82 2.82 0 0 1 2.67-1.76c.9 0 1.6.38 2.11 1.13v-.97h1.1v10h-1.22Zm-3.78-6.4c0 .93.2 1.63.59 2.1a1.73 1.73 0 0 0 2.75.03c.37-.45.56-1.12.56-2.02 0-.97-.2-1.69-.6-2.17-.4-.49-.86-.73-1.4-.73-.52 0-.97.22-1.35.68-.36.45-.55 1.15-.55 2.1Zm11.66 3.63v-1.06a2.64 2.64 0 0 1-2.29 1.22c-.42 0-.82-.08-1.2-.24a2 2 0 0 1-.82-.61c-.18-.25-.3-.56-.37-.92a6.21 6.21 0 0 1-.08-1.14v-4.47h1.23v4c0 .64.02 1.07.07 1.3.08.32.24.57.5.76.24.18.55.27.92.27s.7-.1 1.03-.28c.32-.19.55-.45.68-.77.14-.33.2-.8.2-1.41v-3.88h1.23v7.23h-1.1Zm7.74-.9a3.75 3.75 0 0 1-2.66 1.05c-.8.01-1.4-.18-1.83-.56-.43-.4-.64-.9-.64-1.5a2 2 0 0 1 .87-1.67c.26-.17.56-.3.89-.4.24-.06.6-.12 1.08-.18 1-.12 1.72-.26 2.19-.43v-.31c0-.5-.1-.86-.34-1.06-.31-.28-.78-.41-1.4-.41-.57 0-1 .1-1.27.3-.28.2-.48.56-.61 1.07l-1.2-.16c.11-.52.29-.93.54-1.24.25-.32.61-.56 1.08-.73a4.78 4.78 0 0 1 1.64-.26c.62 0 1.12.07 1.5.22.4.14.67.33.86.55.18.22.3.5.38.83a7 7 0 0 1 .06 1.13v1.63c0 1.14.02 1.86.07 2.17.06.3.16.58.32.86h-1.28a2.58 2.58 0 0 1-.25-.9Zm-.1-2.73c-.44.19-1.11.34-2 .47-.5.07-.86.15-1.07.24a1.05 1.05 0 0 0-.65.98c0 .33.12.6.37.82.24.22.6.32 1.08.32.48 0 .9-.1 1.26-.3.37-.21.64-.5.81-.85.13-.28.2-.69.2-1.23v-.45Zm5.82 2.53.17 1.09c-.34.07-.65.1-.92.1a2.1 2.1 0 0 1-1.04-.2 1.19 1.19 0 0 1-.51-.56c-.1-.23-.15-.71-.15-1.44v-4.16h-.9v-.95h.9v-1.8l1.22-.73v2.53h1.23v.95h-1.23v4.22c0 .35.02.58.06.68.04.1.11.18.2.23.1.06.25.1.43.1.13 0 .31-.02.54-.06Zm1.55 1.1v-1.4h1.4v1.4h-1.4Z" fill="#fff"/><rect x="102.85" y="184.17" width="123.68" height="30.59" rx="2.26" fill="#fff"/><path d="m120.63 200.65 1.7-.16c.1.56.3.98.61 1.25.32.27.74.4 1.27.4.56 0 .98-.12 1.26-.35.3-.24.43-.52.43-.84 0-.2-.06-.38-.18-.52a1.4 1.4 0 0 0-.62-.38c-.2-.07-.67-.2-1.4-.37a4.74 4.74 0 0 1-1.97-.86 2.25 2.25 0 0 1-.42-2.96c.25-.39.61-.68 1.08-.88.47-.2 1.04-.3 1.7-.3 1.08 0 1.9.23 2.44.71.55.48.84 1.11.87 1.9l-1.74.08c-.08-.44-.24-.76-.49-.96-.24-.2-.6-.29-1.1-.29a2 2 0 0 0-1.19.31.66.66 0 0 0-.02 1.06c.22.19.76.38 1.6.58.86.2 1.48.4 1.89.63a2.37 2.37 0 0 1 1.3 2.24 2.54 2.54 0 0 1-1.58 2.36c-.5.2-1.13.31-1.88.31-1.1 0-1.93-.25-2.52-.75a3.3 3.3 0 0 1-1.04-2.21Zm12.1.82 1.64.28c-.2.6-.54 1.06-1 1.38a3 3 0 0 1-1.72.47c-1.09 0-1.89-.35-2.41-1.06a3.59 3.59 0 0 1-.62-2.16c0-1.04.27-1.85.81-2.43a2.67 2.67 0 0 1 2.06-.89c.93 0 1.66.31 2.2.93.54.61.8 1.55.77 2.82h-4.14c0 .49.14.87.4 1.15.25.27.57.4.95.4.26 0 .48-.07.65-.2.18-.15.31-.38.4-.7Zm.09-1.67a1.63 1.63 0 0 0-.37-1.1 1.14 1.14 0 0 0-.86-.37c-.36 0-.66.13-.9.4a1.5 1.5 0 0 0-.34 1.07h2.47Zm8.45-.75-1.63.3a1.18 1.18 0 0 0-.38-.74 1.13 1.13 0 0 0-.75-.25c-.41 0-.74.15-1 .43-.23.29-.36.76-.36 1.43 0 .74.13 1.27.38 1.57.25.3.58.46 1 .46.32 0 .57-.09.77-.26.2-.18.34-.5.43-.93l1.62.28c-.16.75-.49 1.3-.97 1.69a3 3 0 0 1-1.92.57c-.92 0-1.65-.29-2.2-.86a3.36 3.36 0 0 1-.8-2.4c0-1.03.26-1.84.81-2.41a2.9 2.9 0 0 1 2.22-.87 3 3 0 0 1 1.8.5c.46.32.78.82.98 1.5Zm.88 1.2c0-.56.13-1.09.4-1.6.28-.52.66-.91 1.15-1.18.5-.27 1.06-.4 1.67-.4a3.12 3.12 0 0 1 3.23 3.24c0 .95-.3 1.74-.91 2.36a3.1 3.1 0 0 1-2.3.93c-.58 0-1.13-.13-1.65-.39a2.67 2.67 0 0 1-1.19-1.14c-.27-.5-.4-1.1-.4-1.83Zm1.7.08c0 .62.14 1.1.44 1.43.3.33.65.5 1.09.5.43 0 .79-.17 1.08-.5.3-.33.44-.81.44-1.44 0-.61-.15-1.08-.44-1.41a1.4 1.4 0 0 0-1.08-.5c-.44 0-.8.17-1.1.5-.29.33-.44.8-.44 1.42Zm11.75 3.13h-1.66v-3.2a5 5 0 0 0-.1-1.3.9.9 0 0 0-.35-.47.97.97 0 0 0-.58-.16c-.28 0-.54.08-.77.23a1.2 1.2 0 0 0-.47.63c-.08.26-.12.74-.12 1.44v2.83h-1.66v-6.26h1.54v.92a2.5 2.5 0 0 1 2.06-1.06c.37 0 .7.07 1 .2a1.64 1.64 0 0 1 1.01 1.2 5 5 0 0 1 .1 1.11v3.89Zm7.42 0h-1.54v-.92a2.5 2.5 0 0 1-.9.8 2.4 2.4 0 0 1-2.9-.6 3.56 3.56 0 0 1-.77-2.43c0-1.06.25-1.87.75-2.42a2.44 2.44 0 0 1 3.7.05v-3.12h1.66v8.64Zm-4.42-3.26c0 .66.1 1.15.28 1.45.26.43.64.64 1.12.64.38 0 .7-.16.97-.48.26-.33.4-.81.4-1.46 0-.71-.13-1.23-.4-1.54a1.2 1.2 0 0 0-.99-.48c-.39 0-.72.16-.99.47-.26.31-.4.78-.4 1.4Zm7.3-1.09-1.51-.27c.17-.6.46-1.05.87-1.34.41-.3 1.03-.44 1.84-.44.74 0 1.29.1 1.65.27.36.17.61.4.76.66.15.27.22.76.22 1.48l-.02 1.93a7 7 0 0 0 .08 1.22c.06.26.16.54.3.84h-1.64a6.06 6.06 0 0 1-.21-.68 3 3 0 0 1-.91.62c-.32.13-.67.2-1.03.2-.65 0-1.16-.17-1.53-.52-.37-.35-.55-.8-.55-1.33 0-.35.08-.67.25-.94.17-.28.4-.5.7-.64.31-.15.75-.28 1.33-.39.77-.14 1.3-.28 1.6-.4v-.17c0-.31-.07-.54-.23-.68-.16-.13-.45-.2-.89-.2-.3 0-.52.06-.69.18-.16.11-.3.31-.4.6Zm2.2 1.35c-.2.07-.54.15-1 .25-.46.1-.76.2-.9.29a.7.7 0 0 0-.33.58c0 .23.09.43.26.6.18.17.4.25.66.25.3 0 .59-.1.86-.29.2-.15.33-.33.4-.55.03-.14.05-.4.05-.8v-.33Zm4.85 3h-1.65v-6.26h1.53v.9c.27-.43.5-.7.71-.84.21-.13.45-.2.72-.2.38 0 .74.1 1.09.31l-.51 1.45a1.46 1.46 0 0 0-.78-.27.9.9 0 0 0-.59.2c-.16.12-.29.35-.38.68-.1.33-.14 1.03-.14 2.1v1.93Zm2.34-6.26h1.76l1.5 4.45 1.45-4.45h1.72l-2.21 6.02-.4 1.1a4.4 4.4 0 0 1-.41.83c-.13.2-.28.35-.46.47a1.9 1.9 0 0 1-.63.28 4.37 4.37 0 0 1-1.78 0l-.14-1.3c.25.05.49.08.7.08.38 0 .67-.12.85-.34.19-.23.33-.51.42-.86l-2.38-6.28Zm16.39 3.09 1.69.53a3.8 3.8 0 0 1-1.3 2.1c-.6.46-1.36.69-2.29.69-1.15 0-2.09-.4-2.83-1.18a4.51 4.51 0 0 1-1.1-3.21c0-1.44.37-2.55 1.1-3.35.75-.8 1.73-1.2 2.94-1.2 1.05 0 1.91.32 2.57.94.4.37.69.9.88 1.6l-1.72.4c-.1-.44-.32-.8-.64-1.05a1.82 1.82 0 0 0-1.18-.4c-.64 0-1.16.24-1.56.7-.4.46-.6 1.2-.6 2.23 0 1.1.2 1.87.6 2.33.38.47.9.7 1.52.7.47 0 .87-.15 1.2-.44.33-.3.57-.76.72-1.4Zm5.13 3.17v-7.17h-2.56v-1.47h6.86v1.47h-2.55v7.17h-1.75Zm12.32 0h-1.9l-.75-1.96h-3.45l-.71 1.96h-1.85l3.36-8.64h1.85l3.45 8.64Zm-3.2-3.42-1.2-3.2-1.16 3.2h2.36Z" fill="#0F67F5"/><rect x="102.85" y="184.17" width="123.68" height="30.59" rx="2.26" stroke="#0F67F5" stroke-width="1.51"/></svg>