<svg width="672" height="152" fill="none" xmlns="http://www.w3.org/2000/svg"><path fill="#F6F6F6" d="M0 0h672v152H0z"/><g opacity=".9" filter="url(#a)"><rect x="400" y="77" width="40" height="40" rx="4" fill="#fff"/><path d="m422.11 97.35.36-.35-.36-.35-5.38-5.38a.38.38 0 0 1 0-.54.38.38 0 0 1 .54 0l6 6a.4.4 0 0 1 0 .54l-6 6a.37.37 0 0 1-.54 0 .38.38 0 0 1 0-.54l5.38-5.38Z" fill="#0F67F5" stroke="#184BC8"/></g><g filter="url(#b)"><rect x="371" y="31.5" width="173" height="40" rx="4" fill="#333"/><path d="M397.77 49.5h-1.4a2.95 2.95 0 0 0-1.2-1.84c-.29-.21-.6-.37-.97-.48a3.9 3.9 0 0 0-1.1-.16 3.52 3.52 0 0 0-3.28 2.11c-.33.7-.5 1.54-.5 2.55 0 1 .17 1.86.5 2.55a3.55 3.55 0 0 0 3.27 2.1c.39.01.76-.04 1.11-.15a2.98 2.98 0 0 0 2.16-2.32h1.41a4.37 4.37 0 0 1-3.03 3.54 5.23 5.23 0 0 1-4.3-.47 5 5 0 0 1-1.82-2.07 7.1 7.1 0 0 1-.67-3.18c0-1.23.23-2.29.67-3.18a4.88 4.88 0 0 1 4.47-2.8c.59 0 1.14.09 1.65.26a4.52 4.52 0 0 1 2.45 1.94c.28.47.48 1 .58 1.6Zm3.44-3.64V57.5h-1.34V45.86h1.34Zm2.46 11.64v-8.73H405v8.73h-1.34Zm.68-10.18a.96.96 0 0 1-.68-.27.86.86 0 0 1-.28-.64c0-.25.1-.46.28-.64a.96.96 0 0 1 .68-.27c.26 0 .48.09.67.27.19.18.28.39.28.64s-.1.46-.28.64a.93.93 0 0 1-.67.27ZM411 57.68c-.82 0-1.53-.2-2.12-.58a3.78 3.78 0 0 1-1.36-1.6 5.41 5.41 0 0 1-.48-2.32c0-.88.16-1.67.5-2.34a3.7 3.7 0 0 1 3.44-2.18c.6 0 1.16.11 1.65.34a2.98 2.98 0 0 1 1.8 2.39h-1.34a2.04 2.04 0 0 0-2.1-1.52 2.37 2.37 0 0 0-2.28 1.54 4.23 4.23 0 0 0-.33 1.73c0 .67.11 1.26.32 1.76.22.5.52.89.91 1.16.4.28.86.42 1.39.42.35 0 .66-.06.95-.18a1.96 1.96 0 0 0 1.14-1.35h1.34a3.1 3.1 0 0 1-1.74 2.37 3.8 3.8 0 0 1-1.7.36Zm6.64-3.36-.02-1.66h.27l3.82-3.89h1.66l-4.07 4.12h-.12l-1.54 1.43Zm-1.25 3.18V45.86h1.34V57.5h-1.34Zm5.55 0-3.41-4.32.95-.93 4.16 5.25h-1.7Zm11.45-8.73v1.14h-4.52v-1.14h4.52Zm-3.2-2.09h1.33V55c0 .38.06.66.17.85.11.19.26.31.43.38.18.06.37.09.56.09.15 0 .27 0 .37-.02l.22-.05.28 1.2a2.73 2.73 0 0 1-1 .16 2.7 2.7 0 0 1-1.12-.24 2.21 2.21 0 0 1-.9-.74 2.14 2.14 0 0 1-.35-1.27v-8.68Zm8.67 11a3.8 3.8 0 0 1-2.08-.56 3.84 3.84 0 0 1-1.38-1.57 5.33 5.33 0 0 1-.5-2.37c0-.9.17-1.7.5-2.38.33-.68.8-1.2 1.38-1.58a3.8 3.8 0 0 1 2.08-.56c.78 0 1.47.19 2.06.56.6.38 1.06.9 1.4 1.58.32.68.5 1.47.5 2.38 0 .9-.18 1.7-.5 2.37a3.78 3.78 0 0 1-3.46 2.14Zm0-1.2c.6 0 1.09-.16 1.47-.46.39-.31.68-.71.86-1.21a4.8 4.8 0 0 0 0-3.26 2.7 2.7 0 0 0-.86-1.22 2.29 2.29 0 0 0-1.47-.47c-.6 0-1.1.16-1.48.47-.39.31-.67.72-.86 1.22a4.7 4.7 0 0 0-.28 1.63c0 .59.1 1.13.28 1.63.19.5.47.9.86 1.2.39.31.88.47 1.48.47Zm16.68-5.75-1.2.34c-.08-.2-.2-.4-.34-.59a1.52 1.52 0 0 0-.6-.47 2.15 2.15 0 0 0-.95-.2c-.53 0-.98.13-1.34.38-.35.24-.52.55-.52.92 0 .34.12.6.36.8.24.19.62.35 1.14.48l1.3.31c.77.2 1.35.48 1.74.87.38.39.57.89.57 1.5 0 .5-.14.95-.43 1.34-.29.4-.68.7-1.2.93-.5.23-1.1.34-1.78.34-.89 0-1.63-.2-2.21-.58a2.57 2.57 0 0 1-1.1-1.7l1.26-.3c.13.46.36.81.7 1.05.33.23.78.35 1.33.35a2.5 2.5 0 0 0 1.49-.4c.37-.27.55-.59.55-.96 0-.3-.1-.56-.32-.77a2 2 0 0 0-.97-.46l-1.46-.34a3.47 3.47 0 0 1-1.76-.88c-.37-.4-.56-.9-.56-1.5 0-.5.14-.94.42-1.31.28-.38.66-.68 1.14-.9a4 4 0 0 1 1.65-.32c.86 0 1.54.19 2.03.57.5.38.85.88 1.06 1.5Zm5.72 6.95c-.81 0-1.52-.2-2.11-.58a3.78 3.78 0 0 1-1.37-1.6 5.41 5.41 0 0 1-.47-2.32c0-.88.16-1.67.49-2.34a3.7 3.7 0 0 1 3.44-2.18c.61 0 1.17.11 1.66.34a3.08 3.08 0 0 1 1.8 2.39h-1.35a2.04 2.04 0 0 0-2.1-1.52c-.51 0-.97.13-1.36.4-.4.27-.7.65-.92 1.14a4.23 4.23 0 0 0-.32 1.73c0 .67.1 1.26.32 1.76.21.5.52.89.9 1.16.4.28.86.42 1.4.42.34 0 .66-.06.94-.18a1.96 1.96 0 0 0 1.14-1.35h1.34a3.11 3.11 0 0 1-1.73 2.37 3.8 3.8 0 0 1-1.7.36Zm5.4-.18v-8.73h1.29v1.32h.1c.15-.43.44-.78.86-1.05.41-.27.88-.4 1.4-.4a15.28 15.28 0 0 1 .7.02v1.36a3.93 3.93 0 0 0-.81-.09c-.42 0-.8.1-1.14.27a1.95 1.95 0 0 0-1.07 1.78v5.52h-1.33Zm9.23.18a3.8 3.8 0 0 1-2.08-.56 3.84 3.84 0 0 1-1.38-1.57 5.32 5.32 0 0 1-.5-2.37c0-.9.17-1.7.5-2.38.33-.68.8-1.2 1.38-1.58a3.8 3.8 0 0 1 2.08-.56c.79 0 1.48.19 2.07.56.6.38 1.05.9 1.38 1.58.34.68.5 1.47.5 2.38 0 .9-.16 1.7-.5 2.37-.33.67-.79 1.2-1.38 1.57-.6.37-1.28.56-2.07.56Zm0-1.2c.6 0 1.09-.16 1.48-.46.38-.31.67-.71.85-1.21a4.8 4.8 0 0 0 0-3.26 2.7 2.7 0 0 0-.86-1.22 2.28 2.28 0 0 0-1.47-.47c-.6 0-1.1.16-1.48.47-.39.31-.67.72-.86 1.22a4.7 4.7 0 0 0-.28 1.63c0 .59.1 1.13.28 1.63.19.5.47.9.86 1.2.39.31.88.47 1.48.47Zm7.34-10.62V57.5h-1.34V45.86h1.34Zm3.8 0V57.5h-1.34V45.86h1.34Zm6.95 11.64v-8.73h1.3v1.32h.09c.16-.43.45-.78.86-1.05.42-.27.89-.4 1.41-.4a15.2 15.2 0 0 1 .7.02v1.36a4.07 4.07 0 0 0-.81-.09c-.43 0-.8.1-1.14.27a1.96 1.96 0 0 0-1.07 1.78v5.52H494Zm5.96 0v-8.73h1.34v8.73h-1.34Zm.68-10.18a.95.95 0 0 1-.68-.27.86.86 0 0 1-.28-.64c0-.25.1-.46.28-.64a.95.95 0 0 1 .68-.27c.26 0 .48.09.67.27.19.18.28.39.28.64s-.1.46-.28.64a.93.93 0 0 1-.67.27Zm6.64 13.63a4.9 4.9 0 0 1-1.67-.25 3.55 3.55 0 0 1-1.9-1.5l1.07-.75c.12.16.27.35.46.55.18.2.44.39.76.54a3 3 0 0 0 1.28.23c.7 0 1.28-.17 1.74-.5.46-.35.69-.88.69-1.61v-1.77h-.12c-.1.16-.23.35-.42.59-.18.23-.43.43-.77.62-.33.17-.78.26-1.35.26a3.5 3.5 0 0 1-3.22-1.95 5.09 5.09 0 0 1-.49-2.32c0-.9.16-1.67.48-2.33a3.46 3.46 0 0 1 3.26-2.1c.56 0 1.01.1 1.34.28.34.19.6.4.78.64.18.23.32.43.42.58h.13v-1.39h1.3v8.98c0 .75-.17 1.36-.51 1.83-.34.47-.8.82-1.37 1.04-.56.22-1.2.33-1.9.33Zm-.05-4.8c.54 0 1-.11 1.36-.36.38-.25.66-.6.85-1.06.2-.46.29-1.02.29-1.66 0-.63-.1-1.19-.28-1.67a2.5 2.5 0 0 0-.84-1.13 2.3 2.3 0 0 0-1.38-.4 2.28 2.28 0 0 0-2.27 1.58 4.5 4.5 0 0 0-.27 1.62c0 .6.09 1.14.28 1.6.2.47.48.83.85 1.1.38.26.85.39 1.41.39Zm7.61-3.9v5.25h-1.34V45.86h1.34v4.28h.12c.2-.45.5-.81.92-1.08.41-.27.96-.4 1.65-.4.59 0 1.11.12 1.56.36.44.23.8.6 1.04 1.08.25.49.37 1.1.37 1.85v5.55h-1.34v-5.45c0-.7-.18-1.23-.54-1.61a1.93 1.93 0 0 0-1.48-.58c-.44 0-.83.1-1.18.28-.35.19-.62.46-.82.81-.2.36-.3.8-.3 1.3Zm11.91-3.48v1.14h-4.52v-1.14h4.52Zm-3.2-2.09h1.34V55c0 .38.05.66.16.85.12.19.26.31.43.38.18.06.37.09.57.09.14 0 .27 0 .36-.02l.23-.05.27 1.2a2.73 2.73 0 0 1-1 .16 2.7 2.7 0 0 1-1.11-.24 2.21 2.21 0 0 1-.9-.74 2.14 2.14 0 0 1-.35-1.27v-8.68Z" fill="#fff"/><path d="m457.4 76.5-4.9-5h10l-5.1 5Z" fill="#333"/></g><path fill="#fff" d="M193 76h286v44H193z"/><path stroke="#EBEBEB" d="M193 119.5h286"/><path d="M209.64 94.13v-1.77h9.28v1.77h-3.6V104h-2.09v-9.87h-3.6Zm12.3 10.05c-.55 0-1.05-.1-1.5-.3a2.5 2.5 0 0 1-1.04-.89 2.6 2.6 0 0 1-.38-1.44c0-.5.1-.9.27-1.22.19-.32.44-.58.75-.77.31-.2.67-.34 1.06-.44.4-.1.81-.18 1.24-.22l1.24-.14c.32-.05.55-.12.7-.2.14-.1.21-.25.21-.45v-.03c0-.43-.12-.76-.38-1-.25-.23-.62-.35-1.1-.35-.5 0-.9.11-1.2.33-.28.22-.48.48-.58.78l-1.92-.27a3.06 3.06 0 0 1 2.03-2.14 5.43 5.43 0 0 1 2.93-.13c.4.1.79.27 1.13.5.35.22.63.52.83.91.22.39.32.87.32 1.45V104h-1.98v-1.2h-.06a2.49 2.49 0 0 1-1.38 1.19c-.34.12-.73.19-1.19.19Zm.54-1.52c.41 0 .77-.08 1.07-.24.3-.17.54-.39.7-.66.17-.27.25-.57.25-.9v-1.02a.96.96 0 0 1-.33.15l-.51.12-.56.09-.49.07c-.3.04-.58.1-.82.2s-.43.23-.57.4a.97.97 0 0 0-.21.65c0 .38.13.66.41.86.28.19.63.29 1.06.29Zm6.23 1.34V92.36h2.06v4.36h.08c.1-.22.26-.44.45-.68.2-.24.46-.45.78-.62.33-.17.75-.26 1.27-.26a3.32 3.32 0 0 1 3.12 2.03c.32.67.48 1.49.48 2.46 0 .96-.16 1.77-.47 2.44a3.3 3.3 0 0 1-3.13 2.06 2.52 2.52 0 0 1-2.04-.85c-.2-.24-.35-.46-.46-.68h-.12V104h-2.02Zm2.02-4.36c0 .56.08 1.05.24 1.48.16.42.4.75.7 1 .3.23.67.35 1.1.35.46 0 .84-.13 1.15-.37.3-.24.54-.58.7-1 .15-.43.23-.92.23-1.46 0-.55-.07-1.03-.23-1.45a2.16 2.16 0 0 0-.7-.99c-.3-.23-.68-.35-1.14-.35-.44 0-.81.11-1.12.34-.3.23-.54.56-.7.97-.16.42-.23.91-.23 1.48Zm12.68-7.28V104h-2.11v-9.59h-.07l-2.72 1.74v-1.93l2.9-1.86h2Z" fill="#0F67F5"/><path stroke="#0F67F5" stroke-width="2" d="M193 119h69"/><path d="M278.77 93.61v-1.25h8.73v1.25h-3.66V104h-1.4V93.61h-3.67Zm12.1 10.6a3.5 3.5 0 0 1-1.5-.32 2.67 2.67 0 0 1-1.08-.91c-.26-.4-.4-.89-.4-1.46 0-.5.1-.9.3-1.21.2-.32.46-.56.8-.74.32-.18.69-.31 1.08-.4.4-.1.8-.16 1.21-.22l1.3-.15c.33-.04.57-.1.72-.19.15-.08.23-.23.23-.45v-.05c0-.56-.15-1-.46-1.3-.3-.31-.76-.47-1.38-.47a2.39 2.39 0 0 0-2.27 1.32l-1.27-.46a3.07 3.07 0 0 1 2.16-1.86 5.2 5.2 0 0 1 2.3-.08c.37.07.72.2 1.06.4.35.2.63.52.86.93.23.41.34.97.34 1.66V104h-1.34v-1.18h-.07a2.6 2.6 0 0 1-1.3 1.16c-.35.15-.78.22-1.29.22Zm.2-1.21c.54 0 .99-.1 1.35-.31a2.14 2.14 0 0 0 1.11-1.85v-1.23c-.05.07-.18.13-.37.2-.2.04-.41.1-.66.13a28.82 28.82 0 0 1-1.29.17c-.34.05-.67.12-.97.22-.3.1-.54.25-.73.45-.18.2-.27.47-.27.81 0 .47.17.82.51 1.06.35.23.8.35 1.33.35Zm6.43 1V92.36h1.34v4.3h.12l.4-.58c.19-.24.44-.45.77-.64s.78-.28 1.35-.28a3.46 3.46 0 0 1 3.26 2.11c.31.68.47 1.47.47 2.39 0 .92-.16 1.72-.47 2.4a3.42 3.42 0 0 1-3.23 2.12c-.57 0-1.02-.1-1.35-.28-.34-.19-.6-.4-.78-.64a8.68 8.68 0 0 1-.42-.6h-.16V104h-1.3Zm1.32-4.36c0 .66.1 1.24.3 1.74.18.5.47.9.84 1.18.37.28.82.42 1.36.42a2.2 2.2 0 0 0 1.4-.45c.38-.3.67-.7.86-1.2.19-.5.29-1.07.29-1.7 0-.6-.1-1.16-.29-1.65a2.27 2.27 0 0 0-2.26-1.62 2.24 2.24 0 0 0-2.21 1.57 4.73 4.73 0 0 0-.29 1.7Zm8.42 4.36v-1.02l3.84-4.2c.45-.5.82-.93 1.11-1.3.3-.36.5-.7.65-1.03.14-.32.21-.66.21-1.02a1.9 1.9 0 0 0-1.09-1.75 2.58 2.58 0 0 0-1.13-.25c-.45 0-.84.1-1.17.28a1.9 1.9 0 0 0-.77.77 2.4 2.4 0 0 0-.27 1.16h-1.34a3.27 3.27 0 0 1 1.76-3 3.87 3.87 0 0 1 1.83-.44c.68 0 1.29.15 1.81.44a3.15 3.15 0 0 1 1.69 2.79c0 .43-.07.85-.23 1.26-.15.4-.42.86-.8 1.36-.37.5-.9 1.1-1.56 1.81l-2.61 2.8v.09h5.4V104h-7.33Zm41.53-10.39v-1.25h8.73v1.25h-3.66V104h-1.4V93.61h-3.67Zm12.1 10.6a3.5 3.5 0 0 1-1.5-.32 2.67 2.67 0 0 1-1.08-.91c-.26-.4-.4-.89-.4-1.46 0-.5.1-.9.3-1.21.2-.32.46-.56.8-.74.32-.18.69-.31 1.08-.4.4-.1.8-.16 1.21-.22l1.3-.15c.33-.04.57-.1.72-.19.15-.08.23-.23.23-.45v-.05c0-.56-.15-1-.46-1.3-.3-.31-.76-.47-1.38-.47a2.39 2.39 0 0 0-2.27 1.32l-1.27-.46a3.07 3.07 0 0 1 2.16-1.86 5.2 5.2 0 0 1 2.3-.08c.37.07.72.2 1.06.4.35.2.63.52.86.93.23.41.34.97.34 1.66V104h-1.34v-1.18h-.07a2.6 2.6 0 0 1-1.3 1.16c-.35.15-.78.22-1.29.22Zm.2-1.21c.54 0 .99-.1 1.35-.31a2.14 2.14 0 0 0 1.11-1.85v-1.23c-.05.07-.18.13-.37.2-.2.04-.41.1-.66.13a28.82 28.82 0 0 1-1.29.17c-.34.05-.67.12-.97.22-.3.1-.54.25-.73.45-.18.2-.27.47-.27.81 0 .47.17.82.51 1.06.35.23.8.35 1.33.35Zm6.43 1V92.36h1.34v4.3h.12l.4-.58c.19-.24.44-.45.77-.64s.78-.28 1.35-.28a3.46 3.46 0 0 1 3.26 2.11c.31.68.47 1.47.47 2.39 0 .92-.16 1.72-.47 2.4a3.42 3.42 0 0 1-3.23 2.12c-.57 0-1.02-.1-1.35-.28-.34-.19-.6-.4-.78-.64a8.68 8.68 0 0 1-.42-.6h-.16V104h-1.3Zm1.32-4.36c0 .66.1 1.24.3 1.74.18.5.47.9.84 1.18.37.28.82.42 1.36.42a2.2 2.2 0 0 0 1.4-.45c.38-.3.67-.7.86-1.2.19-.5.29-1.07.29-1.7 0-.6-.1-1.16-.29-1.65a2.27 2.27 0 0 0-2.26-1.62 2.24 2.24 0 0 0-2.21 1.57 4.73 4.73 0 0 0-.29 1.7Zm12.35 4.52c-.75 0-1.42-.13-2-.39a3.45 3.45 0 0 1-1.4-1.07c-.34-.46-.53-1-.56-1.6h1.44c.03.37.15.69.38.96s.53.48.9.63c.36.14.77.22 1.21.22.5 0 .95-.09 1.33-.26.4-.18.7-.42.91-.73.22-.31.33-.67.33-1.08 0-.43-.1-.8-.31-1.13a2.1 2.1 0 0 0-.94-.77 3.5 3.5 0 0 0-1.5-.28h-.93V97.4h.93c.47 0 .87-.08 1.22-.25a1.89 1.89 0 0 0 1.13-1.77 2 2 0 0 0-.27-1.03 1.8 1.8 0 0 0-.74-.68 2.4 2.4 0 0 0-1.11-.25c-.4 0-.78.08-1.14.22-.35.15-.64.36-.86.63-.22.28-.34.6-.36 1h-1.37a2.8 2.8 0 0 1 .55-1.6c.35-.47.8-.83 1.36-1.09a4.37 4.37 0 0 1 3.7.05 3.09 3.09 0 0 1 1.6 2.68 2.62 2.62 0 0 1-1.9 2.64v.09c.72.12 1.3.43 1.71.93.41.5.62 1.12.62 1.86 0 .63-.17 1.2-.52 1.7-.34.5-.8.9-1.4 1.19-.59.28-1.26.43-2.01.43Z" fill="#333"/><g clip-path="url(#c)"><path d="M419.77 93.61v-1.25h8.73v1.25h-3.66V104h-1.4V93.61h-3.67Zm12.1 10.6a3.5 3.5 0 0 1-1.5-.32 2.67 2.67 0 0 1-1.08-.91c-.26-.4-.4-.89-.4-1.46 0-.5.1-.9.3-1.21.2-.32.46-.56.8-.74.32-.18.69-.31 1.08-.4.4-.1.8-.16 1.21-.22l1.3-.15c.33-.04.57-.1.72-.19.15-.08.23-.23.23-.45v-.05c0-.56-.15-1-.46-1.3-.3-.31-.76-.47-1.38-.47a2.39 2.39 0 0 0-2.27 1.32l-1.27-.46a3.07 3.07 0 0 1 2.16-1.86 5.2 5.2 0 0 1 2.3-.08c.37.07.72.2 1.06.4.35.2.63.52.86.93.23.41.34.97.34 1.66V104h-1.34v-1.18h-.07a2.6 2.6 0 0 1-1.3 1.16c-.35.15-.78.22-1.29.22Zm.2-1.21c.54 0 .99-.1 1.35-.31a2.14 2.14 0 0 0 1.11-1.85v-1.23c-.05.07-.18.13-.37.2-.2.04-.41.1-.66.13a28.82 28.82 0 0 1-1.29.17c-.34.05-.67.12-.97.22-.3.1-.54.25-.73.45-.18.2-.27.47-.27.81 0 .47.17.82.51 1.06.35.23.8.35 1.33.35Zm6.43 1V92.36h1.34v4.3h.12l.4-.58c.19-.24.44-.45.77-.64s.78-.28 1.35-.28a3.46 3.46 0 0 1 3.26 2.11c.31.68.47 1.47.47 2.39 0 .92-.16 1.72-.47 2.4a3.42 3.42 0 0 1-3.23 2.12c-.57 0-1.02-.1-1.35-.28-.34-.19-.6-.4-.78-.64a8.68 8.68 0 0 1-.42-.6h-.16V104h-1.3Zm1.32-4.36c0 .66.1 1.24.3 1.74.18.5.47.9.84 1.18.37.28.82.42 1.36.42a2.2 2.2 0 0 0 1.4-.45c.38-.3.67-.7.86-1.2.19-.5.29-1.07.29-1.7 0-.6-.1-1.16-.29-1.65a2.27 2.27 0 0 0-2.26-1.62 2.24 2.24 0 0 0-2.21 1.57 4.73 4.73 0 0 0-.29 1.7Zm12.28 4.52c-.48 0-.96-.1-1.43-.27a3.42 3.42 0 0 1-1.3-.88c-.4-.42-.72-.98-.96-1.7a11.67 11.67 0 0 1-.07-5.42c.2-.8.48-1.46.84-2a3.7 3.7 0 0 1 1.33-1.26 3.64 3.64 0 0 1 1.77-.43c.65 0 1.23.14 1.74.4.51.25.93.61 1.25 1.08.32.46.53.99.63 1.6h-1.4a2.57 2.57 0 0 0-.74-1.3 2.09 2.09 0 0 0-1.48-.53c-.9 0-1.61.4-2.13 1.18a6.01 6.01 0 0 0-.78 3.3h.1a3.41 3.41 0 0 1 2.86-1.54 3.65 3.65 0 0 1 3.16 1.87c.33.58.5 1.24.5 1.99a4.1 4.1 0 0 1-.49 1.98 3.69 3.69 0 0 1-3.4 1.93Zm0-1.25c.48 0 .9-.12 1.28-.36a2.72 2.72 0 0 0 1.24-2.3 2.68 2.68 0 0 0-1.2-2.26 2.3 2.3 0 0 0-1.28-.35c-.35 0-.69.07-1 .21a2.6 2.6 0 0 0-1.36 1.43 2.69 2.69 0 0 0 1.02 3.26c.38.25.81.37 1.3.37Z" fill="#757575"/></g><path d="m460.11 98.35.36-.35-.36-.35-5.38-5.38a.38.38 0 0 1 0-.54.38.38 0 0 1 .54 0l6 6a.4.4 0 0 1 0 .54l-6 6a.37.37 0 0 1-.54 0 .38.38 0 0 1 0-.54l5.38-5.38Z" fill="#0F67F5" stroke="#0F67F5"/><defs><filter id="a" x="389" y="70" width="62" height="62" filterUnits="userSpaceOnUse" color-interpolation-filters="sRGB"><feFlood flood-opacity="0" result="BackgroundImageFix"/><feColorMatrix in="SourceAlpha" values="0 0 0 0 0 0 0 0 0 0 0 0 0 0 0 0 0 0 127 0" result="hardAlpha"/><feOffset dy="4"/><feGaussianBlur stdDeviation="5.5"/><feColorMatrix values="0 0 0 0 0.121569 0 0 0 0 0.121569 0 0 0 0 0.121569 0 0 0 0.12 0"/><feBlend in2="BackgroundImageFix" result="effect1_dropShadow_12992_2828"/><feBlend in="SourceGraphic" in2="effect1_dropShadow_12992_2828" result="shape"/></filter><filter id="b" x="368" y="29.5" width="179" height="52" filterUnits="userSpaceOnUse" color-interpolation-filters="sRGB"><feFlood flood-opacity="0" result="BackgroundImageFix"/><feColorMatrix in="SourceAlpha" values="0 0 0 0 0 0 0 0 0 0 0 0 0 0 0 0 0 0 127 0" result="hardAlpha"/><feOffset dy="2"/><feGaussianBlur stdDeviation="1.5"/><feColorMatrix values="0 0 0 0 0.2 0 0 0 0 0.2 0 0 0 0 0.2 0 0 0 0.15 0"/><feBlend in2="BackgroundImageFix" result="effect1_dropShadow_12992_2828"/><feColorMatrix in="SourceAlpha" values="0 0 0 0 0 0 0 0 0 0 0 0 0 0 0 0 0 0 127 0" result="hardAlpha"/><feOffset dy="1"/><feGaussianBlur stdDeviation="1.5"/><feColorMatrix values="0 0 0 0 0.2 0 0 0 0 0.2 0 0 0 0 0.2 0 0 0 0.1 0"/><feBlend in2="effect1_dropShadow_12992_2828" result="effect2_dropShadow_12992_2828"/><feBlend in="SourceGraphic" in2="effect2_dropShadow_12992_2828" result="shape"/></filter><clipPath id="c"><path fill="#fff" transform="translate(403 76)" d="M0 0h39v44H0z"/></clipPath></defs></svg>