<svg width="672" height="477" fill="none" xmlns="http://www.w3.org/2000/svg"><path fill="#F6F6F6" d="M0 .97h672v476H0z"/><path fill="#fff" d="M76 32.97h400v85H76z"/><path fill="#0F67F5" d="M476 32.97h80v85h-80z"/><path fill="#FFB71B" d="M556 32.97h40v85h-40z"/><path d="M562.95 67.7v15.27h-1.85V69.64h-.09l-3.73 2.48v-1.88l3.82-2.54h1.85Zm9.37 15.48c-1.12 0-2.08-.3-2.87-.91a5.74 5.74 0 0 1-1.8-2.68 12.72 12.72 0 0 1-.63-4.25c0-1.65.2-3.06.62-4.23a5.78 5.78 0 0 1 1.82-2.69 4.5 4.5 0 0 1 2.86-.93c1.12 0 2.07.31 2.86.93a5.7 5.7 0 0 1 1.82 2.69c.42 1.17.63 2.58.63 4.23 0 1.66-.2 3.08-.62 4.25a5.73 5.73 0 0 1-1.81 2.68c-.8.6-1.75.91-2.88.91Zm0-1.64c1.12 0 1.98-.53 2.6-1.6.62-1.08.92-2.61.92-4.6 0-1.32-.14-2.45-.42-3.38a4.63 4.63 0 0 0-1.2-2.13 2.67 2.67 0 0 0-1.9-.73c-1.1 0-1.96.55-2.58 1.64-.63 1.08-.94 2.61-.94 4.6 0 1.32.14 2.44.42 3.37.28.92.68 1.63 1.2 2.1.53.5 1.16.73 1.9.73Zm15.93-1.43v-.8c0-.56.12-1.07.35-1.53a2.76 2.76 0 0 1 2.64-1.55c.64 0 1.18.14 1.62.43.44.28.77.65 1 1.12.22.46.33.97.33 1.53v.8c0 .56-.12 1.07-.34 1.54a2.7 2.7 0 0 1-2.61 1.53 3 3 0 0 1-1.64-.41 2.77 2.77 0 0 1-1-1.12 3.46 3.46 0 0 1-.35-1.54Zm1.52-.8v.8c0 .46.11.88.33 1.25.22.36.6.54 1.14.54.52 0 .89-.18 1.1-.54.22-.37.33-.79.33-1.25v-.8c0-.47-.1-.88-.31-1.24-.21-.37-.59-.55-1.12-.55-.53 0-.9.18-1.13.55a2.3 2.3 0 0 0-.34 1.24Zm-9.12-7.94v-.8c0-.56.11-1.07.34-1.53.23-.47.57-.84 1.01-1.12.45-.29 1-.43 1.63-.43.65 0 1.19.14 1.63.43.43.28.76.65.99 1.12.22.46.33.97.33 1.52v.81c0 .56-.11 1.07-.34 1.54a2.7 2.7 0 0 1-2.61 1.53c-.65 0-1.2-.14-1.63-.41a2.76 2.76 0 0 1-1.01-1.12 3.44 3.44 0 0 1-.34-1.54Zm1.52-.8v.8c0 .46.1.88.33 1.25.22.36.6.54 1.13.54.52 0 .89-.18 1.1-.54.22-.37.33-.79.33-1.25v-.8c0-.47-.1-.88-.31-1.24-.21-.37-.58-.55-1.12-.55-.52 0-.9.18-1.13.55a2.3 2.3 0 0 0-.33 1.23Zm-.96 12.4 10.5-15.27h1.7l-10.5 15.27h-1.7Z" fill="#000"/><path d="M496.58 82.97v-1.34l5.04-5.52c.6-.64 1.08-1.2 1.46-1.68.39-.48.67-.94.85-1.36.2-.43.29-.87.29-1.34a2.48 2.48 0 0 0-1.43-2.3 3.39 3.39 0 0 0-1.5-.33c-.58 0-1.1.13-1.53.37-.44.24-.77.57-1 1-.24.44-.36.95-.36 1.53h-1.76a4.3 4.3 0 0 1 2.3-3.94 5.08 5.08 0 0 1 2.41-.57c.9 0 1.7.2 2.38.57.7.38 1.24.89 1.63 1.53.4.64.59 1.35.59 2.14 0 .56-.1 1.1-.3 1.65a7.3 7.3 0 0 1-1.05 1.78 35.5 35.5 0 0 1-2.05 2.39l-3.43 3.66v.12h7.1v1.64h-9.64Zm17.7.21c-1.13 0-2.08-.3-2.87-.91a5.74 5.74 0 0 1-1.82-2.68 12.72 12.72 0 0 1-.62-4.25c0-1.65.2-3.06.62-4.23a5.78 5.78 0 0 1 1.82-2.69 4.5 4.5 0 0 1 2.87-.93c1.11 0 2.06.31 2.85.93a5.7 5.7 0 0 1 1.82 2.69c.43 1.17.64 2.58.64 4.23 0 1.66-.21 3.08-.63 4.25a5.73 5.73 0 0 1-1.81 2.68c-.8.6-1.75.91-2.87.91Zm0-1.64c1.11 0 1.98-.53 2.6-1.6.6-1.08.92-2.61.92-4.6 0-1.32-.14-2.45-.43-3.38a4.63 4.63 0 0 0-1.2-2.13 2.67 2.67 0 0 0-1.9-.73c-1.1 0-1.96.55-2.58 1.64-.62 1.08-.93 2.61-.93 4.6 0 1.32.14 2.44.42 3.37a4.4 4.4 0 0 0 1.2 2.1c.52.5 1.16.73 1.9.73Zm15.93-1.43v-.8c0-.56.11-1.07.34-1.53.23-.47.57-.84 1.01-1.12.45-.29 1-.43 1.63-.43.65 0 1.19.14 1.63.43.43.28.76.65.99 1.12.22.46.33.97.33 1.53v.8c0 .56-.11 1.07-.34 1.54a2.7 2.7 0 0 1-2.61 1.53c-.65 0-1.2-.14-1.63-.41a2.77 2.77 0 0 1-1.01-1.12 3.46 3.46 0 0 1-.34-1.54Zm1.52-.8v.8c0 .46.1.88.33 1.25.22.36.6.54 1.13.54.52 0 .89-.18 1.1-.54.22-.37.33-.79.33-1.25v-.8c0-.47-.1-.88-.31-1.24-.21-.37-.58-.55-1.12-.55-.52 0-.9.18-1.13.55a2.3 2.3 0 0 0-.33 1.24Zm-9.13-7.94v-.8c0-.56.11-1.07.34-1.53.24-.47.57-.84 1.02-1.12a2.9 2.9 0 0 1 1.62-.43c.65 0 1.2.14 1.63.43.44.28.77.65.99 1.12.22.46.34.97.34 1.52v.81c0 .56-.12 1.07-.35 1.54a2.71 2.71 0 0 1-2.6 1.53 3 3 0 0 1-1.64-.41 2.76 2.76 0 0 1-1-1.12 3.44 3.44 0 0 1-.35-1.54Zm1.52-.8v.8c0 .46.11.88.33 1.25.22.36.6.54 1.13.54.52 0 .9-.18 1.1-.54.23-.37.34-.79.34-1.25v-.8c0-.47-.11-.88-.32-1.24-.2-.37-.58-.55-1.12-.55-.52 0-.9.18-1.12.55a2.3 2.3 0 0 0-.34 1.23Zm-.95 12.4 10.5-15.27h1.7l-10.5 15.27h-1.7Z" fill="#fff"/><path d="m257.06 82.97 6.83-13.5v-.13H256V67.7h9.79v1.73L259 82.97h-1.94Zm16.17.21c-1.12 0-2.08-.3-2.87-.91a5.74 5.74 0 0 1-1.81-2.68 12.75 12.75 0 0 1-.63-4.25c0-1.65.21-3.06.63-4.23a5.78 5.78 0 0 1 1.82-2.69 4.5 4.5 0 0 1 2.86-.93c1.12 0 2.07.31 2.86.93a5.7 5.7 0 0 1 1.82 2.69c.42 1.17.63 2.58.63 4.23 0 1.66-.2 3.08-.63 4.25a5.74 5.74 0 0 1-1.8 2.68c-.8.6-1.75.91-2.88.91Zm0-1.64c1.12 0 1.98-.53 2.6-1.6.61-1.08.92-2.61.92-4.6 0-1.32-.14-2.45-.42-3.38a4.63 4.63 0 0 0-1.21-2.13 2.67 2.67 0 0 0-1.89-.73c-1.1 0-1.97.55-2.59 1.64-.62 1.08-.93 2.61-.93 4.6 0 1.32.14 2.44.42 3.37.28.92.68 1.63 1.2 2.1.53.5 1.16.73 1.9.73Zm15.93-1.43v-.8c0-.56.11-1.07.34-1.53.24-.47.57-.84 1.02-1.12a2.9 2.9 0 0 1 1.62-.43c.65 0 1.2.14 1.63.43.44.28.77.65 1 1.12.22.46.33.97.33 1.53v.8c0 .56-.12 1.07-.35 1.54a2.7 2.7 0 0 1-2.6 1.53 3.1 3.1 0 0 1-1.64-.41 2.77 2.77 0 0 1-1-1.12 3.46 3.46 0 0 1-.35-1.54Zm1.52-.8v.8c0 .46.11.88.33 1.25.22.36.6.54 1.13.54.53 0 .9-.18 1.1-.54.23-.37.33-.79.33-1.25v-.8c0-.47-.1-.88-.3-1.24-.22-.37-.59-.55-1.13-.55-.52 0-.9.18-1.12.55-.23.36-.34.77-.34 1.24Zm-9.13-7.94v-.8c0-.56.12-1.07.35-1.53a2.76 2.76 0 0 1 2.64-1.55c.64 0 1.19.14 1.62.43.44.28.77.65 1 1.12.22.46.33.97.33 1.52v.81c0 .56-.11 1.07-.34 1.54a2.71 2.71 0 0 1-2.61 1.53 3 3 0 0 1-1.64-.41 2.76 2.76 0 0 1-1-1.12 3.44 3.44 0 0 1-.35-1.54Zm1.52-.8v.8c0 .46.12.88.33 1.25.22.36.6.54 1.14.54.52 0 .89-.18 1.1-.54.22-.37.33-.79.33-1.25v-.8c0-.47-.1-.88-.32-1.24-.2-.37-.58-.55-1.11-.55-.53 0-.9.18-1.13.55a2.3 2.3 0 0 0-.34 1.23Zm-.95 12.4 10.5-15.27h1.7l-10.5 15.27h-1.7Z" fill="#000"/><path fill="#fff" d="M76 141.97h400v85H76z"/><path fill="#FFB71B" d="M476 141.97h80v85h-80z"/><path fill="#0F67F5" d="M556 141.97h40v85h-40z"/><path d="M562.95 176.7v15.27h-1.85v-13.33h-.09l-3.73 2.48v-1.88l3.82-2.54h1.85Zm9.37 15.48c-1.12 0-2.08-.3-2.87-.91a5.74 5.74 0 0 1-1.8-2.68 12.72 12.72 0 0 1-.63-4.25c0-1.65.2-3.06.62-4.23a5.78 5.78 0 0 1 1.82-2.69 4.5 4.5 0 0 1 2.86-.93c1.12 0 2.07.31 2.86.94a5.7 5.7 0 0 1 1.82 2.68c.42 1.17.63 2.58.63 4.23 0 1.66-.2 3.07-.62 4.25a5.73 5.73 0 0 1-1.81 2.68c-.8.6-1.75.91-2.88.91Zm0-1.64c1.12 0 1.98-.53 2.6-1.6.62-1.08.92-2.61.92-4.6 0-1.33-.14-2.45-.42-3.38a4.63 4.63 0 0 0-1.2-2.13 2.67 2.67 0 0 0-1.9-.73c-1.1 0-1.96.55-2.58 1.64-.63 1.08-.94 2.61-.94 4.6 0 1.32.14 2.44.42 3.37.28.92.68 1.63 1.2 2.1.53.5 1.16.73 1.9.73Zm15.93-1.43v-.8c0-.56.12-1.07.35-1.53.23-.47.57-.84 1.01-1.12.45-.29.99-.43 1.63-.43.64 0 1.18.14 1.62.43.44.28.77.65 1 1.12.22.46.33.97.33 1.53v.8c0 .56-.12 1.07-.34 1.54a2.7 2.7 0 0 1-2.61 1.53 3 3 0 0 1-1.64-.42 2.77 2.77 0 0 1-1-1.11 3.46 3.46 0 0 1-.35-1.54Zm1.52-.8v.8c0 .46.11.88.33 1.25.22.36.6.54 1.14.54.52 0 .89-.18 1.1-.54.22-.37.33-.79.33-1.25v-.8c0-.47-.1-.88-.31-1.24-.21-.37-.59-.56-1.12-.56-.53 0-.9.19-1.13.56a2.3 2.3 0 0 0-.34 1.24Zm-9.12-7.94v-.8c0-.56.11-1.07.34-1.53.23-.47.57-.84 1.01-1.12.45-.29 1-.43 1.63-.43.65 0 1.19.14 1.63.43.43.28.76.65.99 1.12.22.46.33.97.33 1.53v.8c0 .56-.11 1.07-.34 1.54a2.7 2.7 0 0 1-2.61 1.53 3 3 0 0 1-1.63-.41 2.76 2.76 0 0 1-1.01-1.12 3.45 3.45 0 0 1-.34-1.54Zm1.52-.8v.8c0 .46.1.88.33 1.25.22.36.6.54 1.13.54.52 0 .89-.18 1.1-.54.22-.37.33-.79.33-1.25v-.8c0-.47-.1-.88-.31-1.24-.21-.37-.58-.56-1.12-.56-.52 0-.9.19-1.13.56-.22.36-.33.77-.33 1.23Zm-.96 12.4 10.5-15.27h1.7l-10.5 15.27h-1.7Z" fill="#fff"/><path d="M496.58 191.97v-1.34l5.04-5.52c.6-.64 1.08-1.2 1.46-1.68.39-.48.67-.94.85-1.36.2-.43.29-.87.29-1.34a2.48 2.48 0 0 0-1.43-2.3 3.38 3.38 0 0 0-1.5-.33c-.58 0-1.1.13-1.53.37a2.5 2.5 0 0 0-1 1c-.24.44-.36.94-.36 1.53h-1.76a4.3 4.3 0 0 1 2.3-3.94 5.1 5.1 0 0 1 2.41-.57c.9 0 1.7.2 2.38.57.7.38 1.24.89 1.63 1.53.4.64.59 1.35.59 2.14 0 .56-.1 1.11-.3 1.65-.2.53-.55 1.12-1.05 1.78-.5.65-1.18 1.45-2.05 2.38l-3.43 3.67v.12h7.1v1.64h-9.64Zm17.7.21c-1.13 0-2.08-.3-2.87-.91a5.74 5.74 0 0 1-1.82-2.68 12.72 12.72 0 0 1-.62-4.25c0-1.65.2-3.06.62-4.23a5.78 5.78 0 0 1 1.82-2.69 4.5 4.5 0 0 1 2.87-.93c1.11 0 2.06.31 2.85.94a5.7 5.7 0 0 1 1.82 2.68c.43 1.17.64 2.58.64 4.23 0 1.66-.21 3.07-.63 4.25a5.74 5.74 0 0 1-1.81 2.68c-.8.6-1.75.91-2.87.91Zm0-1.64c1.11 0 1.98-.53 2.6-1.6.6-1.08.92-2.61.92-4.6 0-1.33-.14-2.45-.43-3.38a4.63 4.63 0 0 0-1.2-2.13 2.67 2.67 0 0 0-1.9-.73c-1.1 0-1.96.55-2.58 1.64-.62 1.08-.93 2.61-.93 4.6 0 1.32.14 2.44.42 3.37a4.4 4.4 0 0 0 1.2 2.1c.52.5 1.16.73 1.9.73Zm15.93-1.43v-.8c0-.56.11-1.07.34-1.53.23-.47.57-.84 1.01-1.12.45-.29 1-.43 1.63-.43.65 0 1.19.14 1.63.43.43.28.76.65.99 1.12.22.46.33.97.33 1.53v.8c0 .56-.11 1.07-.34 1.54a2.7 2.7 0 0 1-2.61 1.53 3 3 0 0 1-1.63-.42 2.77 2.77 0 0 1-1.01-1.11 3.46 3.46 0 0 1-.34-1.54Zm1.52-.8v.8c0 .46.1.88.33 1.25.22.36.6.54 1.13.54.52 0 .89-.18 1.1-.54.22-.37.33-.79.33-1.25v-.8c0-.47-.1-.88-.31-1.24-.21-.37-.58-.56-1.12-.56-.52 0-.9.19-1.13.56a2.3 2.3 0 0 0-.33 1.24Zm-9.13-7.94v-.8c0-.56.11-1.07.34-1.53.24-.47.57-.84 1.02-1.12a2.9 2.9 0 0 1 1.62-.43c.65 0 1.2.14 1.63.43.44.28.77.65.99 1.12.22.46.34.97.34 1.53v.8c0 .56-.12 1.07-.35 1.54a2.71 2.71 0 0 1-2.6 1.53 3 3 0 0 1-1.64-.41 2.76 2.76 0 0 1-1-1.12 3.45 3.45 0 0 1-.35-1.54Zm1.52-.8v.8c0 .46.11.88.33 1.25.22.36.6.54 1.13.54.52 0 .9-.18 1.1-.54.23-.37.34-.79.34-1.25v-.8c0-.47-.11-.88-.32-1.24-.2-.37-.58-.56-1.12-.56-.52 0-.9.19-1.12.56-.23.36-.34.77-.34 1.23Zm-.95 12.4 10.5-15.27h1.7l-10.5 15.27h-1.7Z" fill="#0F0F0F"/><path d="m257.06 191.97 6.83-13.5v-.13H256v-1.64h9.79v1.73l-6.8 13.54h-1.94Zm16.17.21c-1.12 0-2.08-.3-2.87-.91a5.74 5.74 0 0 1-1.81-2.68 12.75 12.75 0 0 1-.63-4.25c0-1.65.21-3.06.63-4.23a5.78 5.78 0 0 1 1.82-2.69 4.5 4.5 0 0 1 2.86-.93c1.12 0 2.07.31 2.86.94a5.7 5.7 0 0 1 1.82 2.68c.42 1.17.63 2.58.63 4.23 0 1.66-.2 3.07-.63 4.25a5.74 5.74 0 0 1-1.8 2.68c-.8.6-1.75.91-2.88.91Zm0-1.64c1.12 0 1.98-.53 2.6-1.6.61-1.08.92-2.61.92-4.6 0-1.33-.14-2.45-.42-3.38a4.63 4.63 0 0 0-1.21-2.13 2.67 2.67 0 0 0-1.89-.73c-1.1 0-1.97.55-2.59 1.64-.62 1.08-.93 2.61-.93 4.6 0 1.32.14 2.44.42 3.37.28.92.68 1.63 1.2 2.1.53.5 1.16.73 1.9.73Zm15.93-1.43v-.8c0-.56.11-1.07.34-1.53.24-.47.57-.84 1.02-1.12a2.9 2.9 0 0 1 1.62-.43c.65 0 1.2.14 1.63.43.44.28.77.65 1 1.12.22.46.33.97.33 1.53v.8c0 .56-.12 1.07-.35 1.54a2.7 2.7 0 0 1-2.6 1.53 3 3 0 0 1-1.64-.42 2.77 2.77 0 0 1-1-1.11 3.46 3.46 0 0 1-.35-1.54Zm1.52-.8v.8c0 .46.11.88.33 1.25.22.36.6.54 1.13.54.53 0 .9-.18 1.1-.54.23-.37.33-.79.33-1.25v-.8c0-.47-.1-.88-.3-1.24-.22-.37-.59-.56-1.13-.56-.52 0-.9.19-1.12.56-.23.36-.34.77-.34 1.24Zm-9.13-7.94v-.8c0-.56.12-1.07.35-1.53.23-.47.57-.84 1.01-1.12.45-.29.99-.43 1.63-.43.64 0 1.19.14 1.62.43.44.28.77.65 1 1.12.22.46.33.97.33 1.53v.8c0 .56-.11 1.07-.34 1.54a2.71 2.71 0 0 1-2.61 1.53 3 3 0 0 1-1.64-.41 2.76 2.76 0 0 1-1-1.12 3.45 3.45 0 0 1-.35-1.54Zm1.52-.8v.8c0 .46.12.88.33 1.25.22.36.6.54 1.14.54.52 0 .89-.18 1.1-.54.22-.37.33-.79.33-1.25v-.8c0-.47-.1-.88-.32-1.24-.2-.37-.58-.56-1.11-.56-.53 0-.9.19-1.13.56-.22.36-.34.77-.34 1.23Zm-.95 12.4 10.5-15.27h1.7l-10.5 15.27h-1.7Z" fill="#000"/><path fill="#fff" d="M76 250.97h400v85H76z"/><path fill="#0F67F5" d="M476 250.97h80v85h-80z"/><path fill="#4FBF5E" d="M556 250.97h40v85h-40z"/><path d="M562.95 285.7v15.27h-1.85v-13.33h-.09l-3.73 2.48v-1.88l3.82-2.54h1.85Zm9.37 15.48c-1.12 0-2.08-.3-2.87-.91a5.74 5.74 0 0 1-1.8-2.68 12.72 12.72 0 0 1-.63-4.25c0-1.65.2-3.06.62-4.23a5.78 5.78 0 0 1 1.82-2.69 4.5 4.5 0 0 1 2.86-.93c1.12 0 2.07.31 2.86.94a5.7 5.7 0 0 1 1.82 2.68c.42 1.17.63 2.58.63 4.23 0 1.66-.2 3.08-.62 4.25a5.73 5.73 0 0 1-1.81 2.68c-.8.6-1.75.91-2.88.91Zm0-1.64c1.12 0 1.98-.54 2.6-1.6.62-1.08.92-2.61.92-4.6 0-1.32-.14-2.45-.42-3.38a4.63 4.63 0 0 0-1.2-2.13 2.67 2.67 0 0 0-1.9-.73c-1.1 0-1.96.55-2.58 1.64-.63 1.08-.94 2.61-.94 4.6 0 1.32.14 2.44.42 3.37.28.92.68 1.63 1.2 2.1.53.5 1.16.73 1.9.73Zm15.93-1.43v-.8c0-.56.12-1.07.35-1.53.23-.47.57-.84 1.01-1.12.45-.29.99-.43 1.63-.43.64 0 1.18.14 1.62.43.44.28.77.65 1 1.12.22.46.33.97.33 1.53v.8c0 .56-.12 1.07-.34 1.54a2.7 2.7 0 0 1-2.61 1.53 3 3 0 0 1-1.64-.42 2.77 2.77 0 0 1-1-1.11 3.46 3.46 0 0 1-.35-1.54Zm1.52-.8v.8c0 .46.11.88.33 1.25.22.36.6.54 1.14.54.52 0 .89-.18 1.1-.54.22-.37.33-.79.33-1.25v-.8c0-.47-.1-.88-.31-1.24-.21-.37-.59-.56-1.12-.56-.53 0-.9.19-1.13.56a2.3 2.3 0 0 0-.34 1.24Zm-9.12-7.94v-.8c0-.56.11-1.07.34-1.53.23-.47.57-.84 1.01-1.12.45-.29 1-.43 1.63-.43.65 0 1.19.14 1.63.43.43.28.76.65.99 1.12.22.46.33.97.33 1.52v.81c0 .56-.11 1.07-.34 1.54a2.7 2.7 0 0 1-2.61 1.53 3 3 0 0 1-1.63-.42 2.76 2.76 0 0 1-1.01-1.11 3.45 3.45 0 0 1-.34-1.54Zm1.52-.8v.8c0 .46.1.88.33 1.25.22.36.6.54 1.13.54.52 0 .89-.18 1.1-.54.22-.37.33-.79.33-1.25v-.8c0-.47-.1-.88-.31-1.24-.21-.37-.58-.56-1.12-.56-.52 0-.9.19-1.13.56-.22.36-.33.77-.33 1.24Zm-.96 12.4 10.5-15.27h1.7l-10.5 15.27h-1.7Z" fill="#000"/><path d="M496.58 300.97v-1.34l5.04-5.52c.6-.64 1.08-1.2 1.46-1.68.39-.48.67-.94.85-1.36.2-.43.29-.87.29-1.34a2.48 2.48 0 0 0-1.43-2.3 3.38 3.38 0 0 0-1.5-.33c-.58 0-1.1.13-1.53.37a2.5 2.5 0 0 0-1 1c-.24.44-.36.94-.36 1.53h-1.76a4.3 4.3 0 0 1 2.3-3.94 5.1 5.1 0 0 1 2.41-.57c.9 0 1.7.2 2.38.57.7.38 1.24.89 1.63 1.53.4.64.59 1.35.59 2.14 0 .56-.1 1.11-.3 1.65-.2.53-.55 1.12-1.05 1.78-.5.65-1.18 1.45-2.05 2.38l-3.43 3.67v.12h7.1v1.64h-9.64Zm17.7.21c-1.13 0-2.08-.3-2.87-.91a5.74 5.74 0 0 1-1.82-2.68 12.72 12.72 0 0 1-.62-4.25c0-1.65.2-3.06.62-4.23a5.78 5.78 0 0 1 1.82-2.69 4.5 4.5 0 0 1 2.87-.93c1.11 0 2.06.31 2.85.94a5.7 5.7 0 0 1 1.82 2.68c.43 1.17.64 2.58.64 4.23 0 1.66-.21 3.08-.63 4.25a5.74 5.74 0 0 1-1.81 2.68c-.8.6-1.75.91-2.87.91Zm0-1.64c1.11 0 1.98-.54 2.6-1.6.6-1.08.92-2.61.92-4.6 0-1.32-.14-2.45-.43-3.38a4.63 4.63 0 0 0-1.2-2.13 2.67 2.67 0 0 0-1.9-.73c-1.1 0-1.96.55-2.58 1.64-.62 1.08-.93 2.61-.93 4.6 0 1.32.14 2.44.42 3.37a4.4 4.4 0 0 0 1.2 2.1c.52.5 1.16.73 1.9.73Zm15.93-1.43v-.8c0-.56.11-1.07.34-1.53.23-.47.57-.84 1.01-1.12.45-.29 1-.43 1.63-.43.65 0 1.19.14 1.63.43.43.28.76.65.99 1.12.22.46.33.97.33 1.53v.8c0 .56-.11 1.07-.34 1.54a2.7 2.7 0 0 1-2.61 1.53 3 3 0 0 1-1.63-.42 2.77 2.77 0 0 1-1.01-1.11 3.46 3.46 0 0 1-.34-1.54Zm1.52-.8v.8c0 .46.1.88.33 1.25.22.36.6.54 1.13.54.52 0 .89-.18 1.1-.54.22-.37.33-.79.33-1.25v-.8c0-.47-.1-.88-.31-1.24-.21-.37-.58-.56-1.12-.56-.52 0-.9.19-1.13.56a2.3 2.3 0 0 0-.33 1.24Zm-9.13-7.94v-.8c0-.56.11-1.07.34-1.53.24-.47.57-.84 1.02-1.12a2.9 2.9 0 0 1 1.62-.43c.65 0 1.2.14 1.63.43.44.28.77.65.99 1.12.22.46.34.97.34 1.52v.81c0 .56-.12 1.07-.35 1.54a2.71 2.71 0 0 1-2.6 1.53 3 3 0 0 1-1.64-.42 2.76 2.76 0 0 1-1-1.11 3.45 3.45 0 0 1-.35-1.54Zm1.52-.8v.8c0 .46.11.88.33 1.25.22.36.6.54 1.13.54.52 0 .9-.18 1.1-.54.23-.37.34-.79.34-1.25v-.8c0-.47-.11-.88-.32-1.24-.2-.37-.58-.56-1.12-.56-.52 0-.9.19-1.12.56-.23.36-.34.77-.34 1.24Zm-.95 12.4 10.5-15.27h1.7l-10.5 15.27h-1.7Z" fill="#fff"/><path d="m257.06 300.97 6.83-13.5v-.13H256v-1.64h9.79v1.73l-6.8 13.54h-1.94Zm16.17.21c-1.12 0-2.08-.3-2.87-.91a5.74 5.74 0 0 1-1.81-2.68 12.75 12.75 0 0 1-.63-4.25c0-1.65.21-3.06.63-4.23a5.78 5.78 0 0 1 1.82-2.69 4.5 4.5 0 0 1 2.86-.93c1.12 0 2.07.31 2.86.94a5.7 5.7 0 0 1 1.82 2.68c.42 1.17.63 2.58.63 4.23 0 1.66-.2 3.08-.63 4.25a5.74 5.74 0 0 1-1.8 2.68c-.8.6-1.75.91-2.88.91Zm0-1.64c1.12 0 1.98-.54 2.6-1.6.61-1.08.92-2.61.92-4.6 0-1.32-.14-2.45-.42-3.38a4.63 4.63 0 0 0-1.21-2.13 2.67 2.67 0 0 0-1.89-.73c-1.1 0-1.97.55-2.59 1.64-.62 1.08-.93 2.61-.93 4.6 0 1.32.14 2.44.42 3.37.28.92.68 1.63 1.2 2.1.53.5 1.16.73 1.9.73Zm15.93-1.43v-.8c0-.56.11-1.07.34-1.53.24-.47.57-.84 1.02-1.12a2.9 2.9 0 0 1 1.62-.43c.65 0 1.2.14 1.63.43.44.28.77.65 1 1.12.22.46.33.97.33 1.53v.8c0 .56-.12 1.07-.35 1.54a2.7 2.7 0 0 1-2.6 1.53 3 3 0 0 1-1.64-.42 2.77 2.77 0 0 1-1-1.11 3.46 3.46 0 0 1-.35-1.54Zm1.52-.8v.8c0 .46.11.88.33 1.25.22.36.6.54 1.13.54.53 0 .9-.18 1.1-.54.23-.37.33-.79.33-1.25v-.8c0-.47-.1-.88-.3-1.24-.22-.37-.59-.56-1.13-.56-.52 0-.9.19-1.12.56-.23.36-.34.77-.34 1.24Zm-9.13-7.94v-.8c0-.56.12-1.07.35-1.53.23-.47.57-.84 1.01-1.12.45-.29.99-.43 1.63-.43.64 0 1.19.14 1.62.43.44.28.77.65 1 1.12.22.46.33.97.33 1.52v.81c0 .56-.11 1.07-.34 1.54a2.71 2.71 0 0 1-2.61 1.53 3 3 0 0 1-1.64-.42 2.76 2.76 0 0 1-1-1.11 3.45 3.45 0 0 1-.35-1.54Zm1.52-.8v.8c0 .46.12.88.33 1.25.22.36.6.54 1.14.54.52 0 .89-.18 1.1-.54.22-.37.33-.79.33-1.25v-.8c0-.47-.1-.88-.32-1.24-.2-.37-.58-.56-1.11-.56-.53 0-.9.19-1.13.56-.22.36-.34.77-.34 1.24Zm-.95 12.4 10.5-15.27h1.7l-10.5 15.27h-1.7Z" fill="#000"/><path fill="#fff" d="M76 359.97h400v85H76z"/><path fill="#0F67F5" d="M476 359.97h80v85h-80z"/><path fill="#7F5EDD" d="M556 359.97h40v85h-40z"/><path d="M562.95 394.7v15.27h-1.85v-13.33h-.09l-3.73 2.48v-1.88l3.82-2.54h1.85Zm9.37 15.48c-1.12 0-2.08-.3-2.87-.91a5.74 5.74 0 0 1-1.8-2.68 12.72 12.72 0 0 1-.63-4.25c0-1.65.2-3.06.62-4.23a5.78 5.78 0 0 1 1.82-2.69 4.5 4.5 0 0 1 2.86-.93c1.12 0 2.07.31 2.86.94a5.7 5.7 0 0 1 1.82 2.68c.42 1.17.63 2.58.63 4.23 0 1.66-.2 3.08-.62 4.25a5.73 5.73 0 0 1-1.81 2.68c-.8.6-1.75.91-2.88.91Zm0-1.64c1.12 0 1.98-.54 2.6-1.6.62-1.08.92-2.61.92-4.6 0-1.32-.14-2.45-.42-3.38a4.63 4.63 0 0 0-1.2-2.13 2.67 2.67 0 0 0-1.9-.73c-1.1 0-1.96.55-2.58 1.64-.63 1.08-.94 2.61-.94 4.6 0 1.32.14 2.44.42 3.37.28.92.68 1.63 1.2 2.1.53.5 1.16.73 1.9.73Zm15.93-1.43v-.8c0-.56.12-1.07.35-1.53.23-.47.57-.84 1.01-1.12.45-.29.99-.43 1.63-.43.64 0 1.18.14 1.62.43.44.28.77.65 1 1.12.22.46.33.97.33 1.53v.8c0 .56-.12 1.07-.34 1.54a2.7 2.7 0 0 1-2.61 1.53 3 3 0 0 1-1.64-.42 2.77 2.77 0 0 1-1-1.11 3.46 3.46 0 0 1-.35-1.54Zm1.52-.8v.8c0 .46.11.88.33 1.25.22.36.6.54 1.14.54.52 0 .89-.18 1.1-.54.22-.37.33-.79.33-1.25v-.8c0-.47-.1-.88-.31-1.24-.21-.37-.59-.56-1.12-.56-.53 0-.9.19-1.13.56a2.3 2.3 0 0 0-.34 1.24Zm-9.12-7.94v-.8c0-.56.11-1.07.34-1.53.23-.47.57-.84 1.01-1.12.45-.29 1-.43 1.63-.43.65 0 1.19.14 1.63.43.43.28.76.65.99 1.12.22.46.33.97.33 1.52v.81c0 .56-.11 1.07-.34 1.54a2.7 2.7 0 0 1-2.61 1.53 3 3 0 0 1-1.63-.42 2.76 2.76 0 0 1-1.01-1.11 3.45 3.45 0 0 1-.34-1.54Zm1.52-.8v.8c0 .46.1.88.33 1.25.22.36.6.54 1.13.54.52 0 .89-.18 1.1-.54.22-.37.33-.79.33-1.25v-.8c0-.47-.1-.88-.31-1.24-.21-.37-.58-.56-1.12-.56-.52 0-.9.19-1.13.56-.22.36-.33.77-.33 1.24Zm-.96 12.4 10.5-15.27h1.7l-10.5 15.27h-1.7Zm-84.63 0v-1.34l5.04-5.52c.6-.64 1.08-1.2 1.46-1.68.39-.48.67-.94.85-1.36.2-.43.29-.87.29-1.34a2.48 2.48 0 0 0-1.43-2.3 3.38 3.38 0 0 0-1.5-.33c-.58 0-1.1.13-1.53.37a2.5 2.5 0 0 0-1 1c-.24.44-.36.94-.36 1.53h-1.76a4.3 4.3 0 0 1 2.3-3.94 5.1 5.1 0 0 1 2.41-.57c.9 0 1.7.2 2.38.57.7.38 1.24.89 1.63 1.53.4.64.59 1.35.59 2.14 0 .56-.1 1.11-.3 1.65-.2.53-.55 1.12-1.05 1.78-.5.65-1.18 1.45-2.05 2.38l-3.43 3.67v.12h7.1v1.64h-9.64Zm17.7.21c-1.13 0-2.08-.3-2.87-.91a5.74 5.74 0 0 1-1.82-2.68 12.72 12.72 0 0 1-.62-4.25c0-1.65.2-3.06.62-4.23a5.78 5.78 0 0 1 1.82-2.69 4.5 4.5 0 0 1 2.87-.93c1.11 0 2.06.31 2.85.94a5.7 5.7 0 0 1 1.82 2.68c.43 1.17.64 2.58.64 4.23 0 1.66-.21 3.08-.63 4.25a5.74 5.74 0 0 1-1.81 2.68c-.8.6-1.75.91-2.87.91Zm0-1.64c1.11 0 1.98-.54 2.6-1.6.6-1.08.92-2.61.92-4.6 0-1.32-.14-2.45-.43-3.38a4.63 4.63 0 0 0-1.2-2.13 2.67 2.67 0 0 0-1.9-.73c-1.1 0-1.96.55-2.58 1.64-.62 1.08-.93 2.61-.93 4.6 0 1.32.14 2.44.42 3.37a4.4 4.4 0 0 0 1.2 2.1c.52.5 1.16.73 1.9.73Zm15.93-1.43v-.8c0-.56.11-1.07.34-1.53.23-.47.57-.84 1.01-1.12.45-.29 1-.43 1.63-.43.65 0 1.19.14 1.63.43.43.28.76.65.99 1.12.22.46.33.97.33 1.53v.8c0 .56-.11 1.07-.34 1.54a2.7 2.7 0 0 1-2.61 1.53 3 3 0 0 1-1.63-.42 2.77 2.77 0 0 1-1.01-1.11 3.46 3.46 0 0 1-.34-1.54Zm1.52-.8v.8c0 .46.1.88.33 1.25.22.36.6.54 1.13.54.52 0 .89-.18 1.1-.54.22-.37.33-.79.33-1.25v-.8c0-.47-.1-.88-.31-1.24-.21-.37-.58-.56-1.12-.56-.52 0-.9.19-1.13.56a2.3 2.3 0 0 0-.33 1.24Zm-9.13-7.94v-.8c0-.56.11-1.07.34-1.53.24-.47.57-.84 1.02-1.12a2.9 2.9 0 0 1 1.62-.43c.65 0 1.2.14 1.63.43.44.28.77.65.99 1.12.22.46.34.97.34 1.52v.81c0 .56-.12 1.07-.35 1.54a2.71 2.71 0 0 1-2.6 1.53 3 3 0 0 1-1.64-.42 2.76 2.76 0 0 1-1-1.11 3.45 3.45 0 0 1-.35-1.54Zm1.52-.8v.8c0 .46.11.88.33 1.25.22.36.6.54 1.13.54.52 0 .9-.18 1.1-.54.23-.37.34-.79.34-1.25v-.8c0-.47-.11-.88-.32-1.24-.2-.37-.58-.56-1.12-.56-.52 0-.9.19-1.12.56-.23.36-.34.77-.34 1.24Zm-.95 12.4 10.5-15.27h1.7l-10.5 15.27h-1.7Z" fill="#fff"/><path d="m257.06 409.97 6.83-13.5v-.13H256v-1.64h9.79v1.73l-6.8 13.54h-1.94Zm16.17.21c-1.12 0-2.08-.3-2.87-.91a5.74 5.74 0 0 1-1.81-2.68 12.75 12.75 0 0 1-.63-4.25c0-1.65.21-3.06.63-4.23a5.78 5.78 0 0 1 1.82-2.69 4.5 4.5 0 0 1 2.86-.93c1.12 0 2.07.31 2.86.94a5.7 5.7 0 0 1 1.82 2.68c.42 1.17.63 2.58.63 4.23 0 1.66-.2 3.08-.63 4.25a5.74 5.74 0 0 1-1.8 2.68c-.8.6-1.75.91-2.88.91Zm0-1.64c1.12 0 1.98-.54 2.6-1.6.61-1.08.92-2.61.92-4.6 0-1.32-.14-2.45-.42-3.38a4.63 4.63 0 0 0-1.21-2.13 2.67 2.67 0 0 0-1.89-.73c-1.1 0-1.97.55-2.59 1.64-.62 1.08-.93 2.61-.93 4.6 0 1.32.14 2.44.42 3.37.28.92.68 1.63 1.2 2.1.53.5 1.16.73 1.9.73Zm15.93-1.43v-.8c0-.56.11-1.07.34-1.53.24-.47.57-.84 1.02-1.12a2.9 2.9 0 0 1 1.62-.43c.65 0 1.2.14 1.63.43.44.28.77.65 1 1.12.22.46.33.97.33 1.53v.8c0 .56-.12 1.07-.35 1.54a2.7 2.7 0 0 1-2.6 1.53 3 3 0 0 1-1.64-.42 2.77 2.77 0 0 1-1-1.11 3.46 3.46 0 0 1-.35-1.54Zm1.52-.8v.8c0 .46.11.88.33 1.25.22.36.6.54 1.13.54.53 0 .9-.18 1.1-.54.23-.37.33-.79.33-1.25v-.8c0-.47-.1-.88-.3-1.24-.22-.37-.59-.56-1.13-.56-.52 0-.9.19-1.12.56-.23.36-.34.77-.34 1.24Zm-9.13-7.94v-.8c0-.56.12-1.07.35-1.53.23-.47.57-.84 1.01-1.12.45-.29.99-.43 1.63-.43.64 0 1.19.14 1.62.43.44.28.77.65 1 1.12.22.46.33.97.33 1.52v.81c0 .56-.11 1.07-.34 1.54a2.71 2.71 0 0 1-2.61 1.53 3 3 0 0 1-1.64-.42 2.76 2.76 0 0 1-1-1.11 3.45 3.45 0 0 1-.35-1.54Zm1.52-.8v.8c0 .46.12.88.33 1.25.22.36.6.54 1.14.54.52 0 .89-.18 1.1-.54.22-.37.33-.79.33-1.25v-.8c0-.47-.1-.88-.32-1.24-.2-.37-.58-.56-1.11-.56-.53 0-.9.19-1.13.56-.22.36-.34.77-.34 1.24Zm-.95 12.4 10.5-15.27h1.7l-10.5 15.27h-1.7Z" fill="#000"/></svg>