<svg width="72" height="32" fill="none" xmlns="http://www.w3.org/2000/svg"><rect width="32" height="32" rx="4" fill="#0F67F5"/><path d="M14.3 21.38v.49h7.24v-9.08H13.8v8.59h.5Zm-3.35-1.93a.12.12 0 0 1-.07-.11V10c0-.07.05-.12.12-.12h8c.07 0 .12.05.12.12 0 .06-.06.12-.12.12h-7.88v9.21c0 .07-.05.12-.12.12h-.05Zm10.72 2.67h-8a.12.12 0 0 1-.12-.12v-9.33c0-.07.05-.12.12-.12h8c.07 0 .12.05.12.12V22c0 .07-.05.12-.12.12Z" fill="#0F67F5" stroke="#fff"/><path d="m55.98 19.32.04.04.43.42a.79.79 0 0 0-.78-.9.8.8 0 0 0-.79.79c0 .43.36.79.8.79.22 0 .42-.1.57-.25h-.58a.52.52 0 0 1-.43-.22.65.65 0 0 1-.05-.08v-.01l.44-.23-.45.22.5-.35m.3-.22a.45.45 0 0 1 .09.1v.02l-.28.15-.12.06v-.11m.3-.22-.3.22m.3-.22a.48.48 0 0 0-.3-.11v.33m.3-4.22h.01l.04.04.43.42a.79.79 0 0 0-.78-.9.8.8 0 0 0-.79.79c0 .43.36.79.8.79.22 0 .42-.1.57-.25h-.58a.52.52 0 0 1-.43-.22.65.65 0 0 1-.05-.08v-.01l.44-.23-.45.22.5-.35m.3-.22a.45.45 0 0 1 .09.1v.02l-.28.15-.12.06v-.11m.3-.22-.3.22m.3-.22a.48.48 0 0 0-.3-.11v.33m.3-4.22h.01l.04.04.43.42a.79.79 0 0 0-.78-.9.8.8 0 0 0-.79.79c0 .43.36.79.8.79.22 0 .42-.1.57-.25h-.58a.52.52 0 0 1-.43-.22.65.65 0 0 1-.05-.08v-.01l.44-.23-.45.22.5-.35m.3-.22a.45.45 0 0 1 .09.1v.02l-.28.15-.12.06v-.11m.3-.22-.3.22m.3-.22a.48.48 0 0 0-.3-.11v.33" fill="#0F67F5" stroke="#0F67F5"/><rect x="40.5" y=".5" width="31" height="31" rx="3.5" stroke="#0F67F5"/></svg>