<svg width="672" height="168" fill="none" xmlns="http://www.w3.org/2000/svg"><path fill="#F6F6F6" d="M0 0h672v167.33H0z"/><path stroke="#0F67F5" d="M128.5 81.83h63v35h-63z"/><path d="M150.63 125.15v10.18h-1.23v-8.89h-.06l-2.49 1.66v-1.26l2.55-1.69h1.23Zm6.31 10.32a3.5 3.5 0 0 1-1.25-.24 3 3 0 0 1-1.14-.77 3.94 3.94 0 0 1-.83-1.47 10.2 10.2 0 0 1-.06-4.74c.16-.7.41-1.3.73-1.77.32-.48.71-.85 1.17-1.1a3.2 3.2 0 0 1 1.54-.37 3.06 3.06 0 0 1 3.16 2.69h-1.21a2.24 2.24 0 0 0-.66-1.14c-.32-.3-.75-.45-1.29-.45-.79 0-1.4.34-1.86 1.03a5.26 5.26 0 0 0-.68 2.88h.08a2.98 2.98 0 0 1 2.5-1.35c.59 0 1.12.15 1.6.44a3.29 3.29 0 0 1 1.6 2.94c0 .63-.14 1.2-.42 1.73a3.2 3.2 0 0 1-2.98 1.7Zm0-1.1c.42 0 .8-.1 1.13-.3a2.37 2.37 0 0 0 1.08-2.01 2.35 2.35 0 0 0-1.05-1.99c-.33-.2-.7-.3-1.12-.3-.31 0-.6.06-.88.18a2.29 2.29 0 0 0-1.2 1.25 2.37 2.37 0 0 0 .9 2.85c.34.22.72.33 1.14.33Zm6.23-.34a.86.86 0 0 1-.63-.26.86.86 0 0 1-.26-.63c0-.25.09-.46.26-.63a.86.86 0 0 1 .63-.27.9.9 0 0 1 .64.26c.17.18.26.4.26.64 0 .16-.04.3-.13.44a.93.93 0 0 1-.32.33.85.85 0 0 1-.45.12Zm0-5.15a.86.86 0 0 1-.63-.26.86.86 0 0 1-.26-.64.9.9 0 0 1 .26-.63.86.86 0 0 1 .63-.26.9.9 0 0 1 .64.26.9.9 0 0 1 .26.64c0 .16-.04.3-.13.44a.94.94 0 0 1-.32.33.86.86 0 0 1-.45.12Zm6.23-3.87c.41 0 .83.08 1.25.24.42.16.8.42 1.14.78.35.36.62.84.83 1.46a10.13 10.13 0 0 1 .05 4.74 5.5 5.5 0 0 1-.73 1.78 3.16 3.16 0 0 1-2.7 1.47c-.57 0-1.08-.12-1.53-.34a3 3 0 0 1-1.64-2.37h1.22c.1.47.32.85.65 1.16.33.3.76.45 1.3.45.78 0 1.4-.34 1.85-1.03.46-.69.7-1.66.7-2.9h-.09a3.12 3.12 0 0 1-1.5 1.18 3.1 3.1 0 0 1-3.76-1.47 3.5 3.5 0 0 1-.45-1.75c0-.62.14-1.19.42-1.7a3.23 3.23 0 0 1 2.99-1.7Zm0 1.1c-.42 0-.8.1-1.13.3-.34.22-.6.5-.8.84a2.4 2.4 0 0 0-.28 1.16c0 .43.09.81.28 1.16a2.09 2.09 0 0 0 1.89 1.13 2.1 2.1 0 0 0 1.59-.7c.2-.22.36-.46.48-.74a2.28 2.28 0 0 0-.11-1.99 2.3 2.3 0 0 0-.8-.84 2.04 2.04 0 0 0-1.13-.32Z" fill="#E8178A"/><path stroke="#0F67F5" d="M216.5 75.17h63v41.67h-63z"/><path d="M241.5 135.47c-.66 0-1.25-.11-1.76-.34a3 3 0 0 1-1.22-.94c-.3-.4-.46-.87-.49-1.4h1.26c.02.33.14.6.34.85.2.23.45.42.78.55a2.98 2.98 0 0 0 2.23-.04c.34-.15.6-.37.8-.64.19-.27.28-.58.28-.94a1.77 1.77 0 0 0-1.1-1.67 3.14 3.14 0 0 0-1.3-.24h-.82v-1.1h.81c.41 0 .76-.07 1.07-.21a1.65 1.65 0 0 0 .99-1.55c0-.35-.08-.65-.24-.9a1.57 1.57 0 0 0-.64-.6 2.57 2.57 0 0 0-1.97-.02c-.3.13-.56.31-.76.55-.2.24-.3.53-.31.87h-1.2c.02-.54.18-1 .49-1.4.3-.4.7-.72 1.18-.95a3.83 3.83 0 0 1 3.24.05 2.7 2.7 0 0 1 1.4 2.34 2.32 2.32 0 0 1-1.67 2.3v.08c.64.1 1.14.38 1.5.82.36.44.55.98.55 1.63 0 .55-.16 1.05-.46 1.5-.3.43-.7.77-1.22 1.03a4 4 0 0 1-1.77.37Zm6.34-1.44a.86.86 0 0 1-.63-.26.86.86 0 0 1-.26-.63.9.9 0 0 1 .26-.64.86.86 0 0 1 .63-.26c.25 0 .46.09.63.26.18.18.27.4.27.64 0 .16-.04.3-.13.44a.93.93 0 0 1-.32.33.85.85 0 0 1-.45.12Zm0-5.15a.86.86 0 0 1-.63-.26.86.86 0 0 1-.26-.64.9.9 0 0 1 .26-.63.86.86 0 0 1 .63-.26c.25 0 .46.09.63.26a.87.87 0 0 1 .14 1.08.93.93 0 0 1-.32.33.85.85 0 0 1-.45.12Zm2.98 6.45v-.9l3.36-3.67c.4-.43.72-.8.98-1.12.25-.33.44-.63.56-.9.13-.3.2-.6.2-.9a1.66 1.66 0 0 0-.96-1.54c-.3-.14-.63-.21-1-.21-.39 0-.73.08-1.02.24-.29.16-.51.38-.67.67a2.1 2.1 0 0 0-.23 1.01h-1.18a2.87 2.87 0 0 1 1.54-2.62 3.38 3.38 0 0 1 1.6-.38 3.02 3.02 0 0 1 2.68 1.4c.26.43.39.9.39 1.43 0 .37-.07.74-.2 1.1a5.1 5.1 0 0 1-.7 1.18c-.33.44-.79.97-1.37 1.6l-2.29 2.44v.08h4.74v1.1h-6.43Z" fill="#E8178A"/><path stroke="#0F67F5" d="M304.5 69.83h63v47h-63z"/><path d="M325.81 133.25v-1.02l4.48-7.08h.74v1.57h-.5l-3.38 5.35v.08h6.02v1.1h-7.36Zm4.8 2.08v-10.17h1.17v10.17h-1.17Zm5.3-1.3a.86.86 0 0 1-.63-.26.86.86 0 0 1-.26-.63c0-.25.08-.46.26-.63a.86.86 0 0 1 .63-.27c.25 0 .46.09.63.26.18.18.27.4.27.64 0 .16-.05.3-.13.44a.92.92 0 0 1-.32.33.85.85 0 0 1-.45.12Zm0-5.15a.86.86 0 0 1-.63-.26.86.86 0 0 1-.26-.64c0-.24.08-.45.26-.63a.86.86 0 0 1 .63-.26c.25 0 .46.09.63.26a.87.87 0 0 1 .14 1.08.93.93 0 0 1-.32.33.86.86 0 0 1-.45.12Zm6.42 6.6a4.4 4.4 0 0 1-1.75-.34 3.02 3.02 0 0 1-1.22-.94c-.3-.4-.46-.88-.49-1.41h1.25c.03.33.14.6.34.85.2.23.46.42.78.55a3.04 3.04 0 0 0 2.24-.04c.33-.15.6-.36.8-.64a1.82 1.82 0 0 0 0-1.93 1.84 1.84 0 0 0-.81-.68c-.36-.16-.8-.24-1.32-.24h-.81v-1.1h.81c.4 0 .76-.07 1.07-.21a1.65 1.65 0 0 0 .99-1.55c0-.35-.08-.65-.24-.9a1.57 1.57 0 0 0-.64-.6 2.57 2.57 0 0 0-1.97-.02c-.31.13-.56.31-.76.55-.2.24-.3.53-.32.87h-1.19c.02-.54.18-1 .48-1.4.3-.4.7-.72 1.19-.95a3.83 3.83 0 0 1 3.23.05 2.62 2.62 0 0 1 1.4 2.34 2.29 2.29 0 0 1-1.67 2.3v.08a2.33 2.33 0 0 1 2.05 2.45c0 .55-.15 1.05-.45 1.5-.3.43-.7.77-1.22 1.03a4 4 0 0 1-1.77.37Z" fill="#E8178A"/><path stroke="#0F67F5" d="M392.5 53.83h63v63h-63z"/><path d="M420.13 125.15v10.18h-1.23v-8.89h-.06l-2.48 1.66v-1.26l2.54-1.69h1.23Zm3.8 8.88a.86.86 0 0 1-.63-.26.86.86 0 0 1-.26-.63c0-.25.09-.46.26-.63a.86.86 0 0 1 .64-.27.9.9 0 0 1 .89.9.91.91 0 0 1-.45.78.85.85 0 0 1-.44.11Zm0-5.15a.87.87 0 0 1-.63-.26.86.86 0 0 1-.26-.64.9.9 0 0 1 .26-.63.86.86 0 0 1 .64-.26.9.9 0 0 1 .89.9.92.92 0 0 1-.45.78.85.85 0 0 1-.44.11Zm6.57-3.73v10.18h-1.24v-8.89h-.06l-2.48 1.66v-1.26l2.54-1.69h1.24Z" fill="#E8178A"/><path stroke="#0F67F5" d="M480.5 32.5h63v84.33h-63z"/><path d="M505.5 135.47c-.66 0-1.25-.11-1.76-.34a3.02 3.02 0 0 1-1.22-.94c-.3-.4-.46-.87-.49-1.4h1.26c.02.33.14.6.33.85a2 2 0 0 0 .79.55 2.98 2.98 0 0 0 2.23-.04c.34-.15.6-.36.8-.64.19-.27.28-.58.28-.94a1.77 1.77 0 0 0-1.1-1.67 3.14 3.14 0 0 0-1.3-.24h-.82v-1.1h.81c.41 0 .76-.07 1.07-.21a1.65 1.65 0 0 0 .98-1.55c0-.35-.07-.65-.23-.9a1.57 1.57 0 0 0-.64-.6 2.57 2.57 0 0 0-1.97-.02c-.3.13-.56.31-.76.55-.2.24-.3.53-.31.87h-1.2c.02-.54.18-1 .49-1.4.3-.4.7-.72 1.18-.95a3.83 3.83 0 0 1 3.23.05 2.7 2.7 0 0 1 1.4 2.34 2.29 2.29 0 0 1-1.67 2.3v.08c.65.1 1.15.38 1.51.82.36.44.55.98.55 1.63 0 .55-.16 1.05-.46 1.5-.3.43-.7.77-1.22 1.03a4 4 0 0 1-1.77.37Zm6.34-1.44a.86.86 0 0 1-.63-.26.86.86 0 0 1-.26-.63c0-.25.09-.46.26-.63a.86.86 0 0 1 .63-.27c.25 0 .46.09.63.26.18.18.27.4.27.64 0 .16-.04.3-.13.44a.93.93 0 0 1-.32.33.85.85 0 0 1-.45.12Zm0-5.15a.86.86 0 0 1-.63-.26.86.86 0 0 1-.26-.64.9.9 0 0 1 .26-.63.86.86 0 0 1 .63-.26c.25 0 .46.09.63.26a.87.87 0 0 1 .14 1.08.93.93 0 0 1-.32.33.85.85 0 0 1-.45.12Zm2.75 4.37v-1.02l4.47-7.08h.74v1.57h-.5l-3.38 5.35v.08h6.02v1.1h-7.36Zm4.79 2.08v-10.17h1.17v10.17h-1.17Z" fill="#E8178A"/></svg>