<svg width="672" height="230" viewBox="0 0 672 230" fill="none" xmlns="http://www.w3.org/2000/svg">
<rect width="672" height="230" fill="#F6F6F6"/>
<rect x="76" y="32" width="520" height="166" rx="4" fill="#E5F1FF"/>
<path d="M106.468 71.294C105.46 71.294 104.543 71.07 103.717 70.622C102.905 70.16 102.254 69.495 101.764 68.627C101.288 67.745 101.05 66.674 101.05 65.414V61.886C101.05 59.996 101.582 58.547 102.646 57.539C103.71 56.517 105.152 56.006 106.972 56.006C108.778 56.006 110.171 56.489 111.151 57.455C112.145 58.407 112.642 59.702 112.642 61.34V61.424H109.912V61.256C109.912 60.738 109.8 60.269 109.576 59.849C109.366 59.429 109.044 59.1 108.61 58.862C108.176 58.61 107.63 58.484 106.972 58.484C105.992 58.484 105.222 58.785 104.662 59.387C104.102 59.989 103.822 60.808 103.822 61.844V65.456C103.822 66.478 104.102 67.304 104.662 67.934C105.222 68.55 106.006 68.858 107.014 68.858C108.022 68.858 108.757 68.592 109.219 68.06C109.681 67.528 109.912 66.856 109.912 66.044V65.834H106.426V63.482H112.642V71H110.08V69.593H109.702C109.604 69.831 109.443 70.083 109.219 70.349C109.009 70.615 108.687 70.839 108.253 71.021C107.819 71.203 107.224 71.294 106.468 71.294ZM120.12 71.294C119.084 71.294 118.167 71.077 117.369 70.643C116.585 70.195 115.969 69.572 115.521 68.774C115.087 67.962 114.87 67.01 114.87 65.918V65.666C114.87 64.574 115.087 63.629 115.521 62.831C115.955 62.019 116.564 61.396 117.348 60.962C118.132 60.514 119.042 60.29 120.078 60.29C121.1 60.29 121.989 60.521 122.745 60.983C123.501 61.431 124.089 62.061 124.509 62.873C124.929 63.671 125.139 64.602 125.139 65.666V66.569H117.558C117.586 67.283 117.852 67.864 118.356 68.312C118.86 68.76 119.476 68.984 120.204 68.984C120.946 68.984 121.492 68.823 121.842 68.501C122.192 68.179 122.458 67.822 122.64 67.43L124.803 68.564C124.607 68.928 124.32 69.327 123.942 69.761C123.578 70.181 123.088 70.545 122.472 70.853C121.856 71.147 121.072 71.294 120.12 71.294ZM117.579 64.595H122.451C122.395 63.993 122.15 63.51 121.716 63.146C121.296 62.782 120.743 62.6 120.057 62.6C119.343 62.6 118.776 62.782 118.356 63.146C117.936 63.51 117.677 63.993 117.579 64.595ZM131.136 71C130.45 71 129.89 70.79 129.456 70.37C129.036 69.936 128.826 69.362 128.826 68.648V62.768H126.222V60.584H128.826V57.35H131.472V60.584H134.328V62.768H131.472V68.186C131.472 68.606 131.668 68.816 132.06 68.816H134.076V71H131.136ZM142.055 71V60.584H144.659V61.76H145.037C145.191 61.34 145.443 61.032 145.793 60.836C146.157 60.64 146.577 60.542 147.053 60.542H148.313V62.894H147.011C146.339 62.894 145.786 63.076 145.352 63.44C144.918 63.79 144.701 64.336 144.701 65.078V71H142.055ZM154.758 71.294C153.722 71.294 152.805 71.077 152.007 70.643C151.223 70.195 150.607 69.572 150.159 68.774C149.725 67.962 149.508 67.01 149.508 65.918V65.666C149.508 64.574 149.725 63.629 150.159 62.831C150.593 62.019 151.202 61.396 151.986 60.962C152.77 60.514 153.68 60.29 154.716 60.29C155.738 60.29 156.627 60.521 157.383 60.983C158.139 61.431 158.727 62.061 159.147 62.873C159.567 63.671 159.777 64.602 159.777 65.666V66.569H152.196C152.224 67.283 152.49 67.864 152.994 68.312C153.498 68.76 154.114 68.984 154.842 68.984C155.584 68.984 156.13 68.823 156.48 68.501C156.83 68.179 157.096 67.822 157.278 67.43L159.441 68.564C159.245 68.928 158.958 69.327 158.58 69.761C158.216 70.181 157.726 70.545 157.11 70.853C156.494 71.147 155.71 71.294 154.758 71.294ZM152.217 64.595H157.089C157.033 63.993 156.788 63.51 156.354 63.146C155.934 62.782 155.381 62.6 154.695 62.6C153.981 62.6 153.414 62.782 152.994 63.146C152.574 63.51 152.315 63.993 152.217 64.595ZM165.366 71.294C164.624 71.294 163.959 71.168 163.371 70.916C162.783 70.65 162.314 70.272 161.964 69.782C161.628 69.278 161.46 68.669 161.46 67.955C161.46 67.241 161.628 66.646 161.964 66.17C162.314 65.68 162.79 65.316 163.392 65.078C164.008 64.826 164.708 64.7 165.492 64.7H168.348V64.112C168.348 63.622 168.194 63.223 167.886 62.915C167.578 62.593 167.088 62.432 166.416 62.432C165.758 62.432 165.268 62.586 164.946 62.894C164.624 63.188 164.414 63.573 164.316 64.049L161.88 63.23C162.048 62.698 162.314 62.215 162.678 61.781C163.056 61.333 163.553 60.976 164.169 60.71C164.799 60.43 165.562 60.29 166.458 60.29C167.83 60.29 168.915 60.633 169.713 61.319C170.511 62.005 170.91 62.999 170.91 64.301V68.186C170.91 68.606 171.106 68.816 171.498 68.816H172.338V71H170.574C170.056 71 169.629 70.874 169.293 70.622C168.957 70.37 168.789 70.034 168.789 69.614V69.593H168.39C168.334 69.761 168.208 69.985 168.012 70.265C167.816 70.531 167.508 70.769 167.088 70.979C166.668 71.189 166.094 71.294 165.366 71.294ZM165.828 69.152C166.57 69.152 167.172 68.949 167.634 68.543C168.11 68.123 168.348 67.57 168.348 66.884V66.674H165.681C165.191 66.674 164.806 66.779 164.526 66.989C164.246 67.199 164.106 67.493 164.106 67.871C164.106 68.249 164.253 68.557 164.547 68.795C164.841 69.033 165.268 69.152 165.828 69.152ZM178.268 71.294C177.442 71.294 176.665 71.091 175.937 70.685C175.223 70.265 174.649 69.656 174.215 68.858C173.781 68.06 173.564 67.094 173.564 65.96V65.624C173.564 64.49 173.781 63.524 174.215 62.726C174.649 61.928 175.223 61.326 175.937 60.92C176.651 60.5 177.428 60.29 178.268 60.29C178.898 60.29 179.423 60.367 179.843 60.521C180.277 60.661 180.627 60.843 180.893 61.067C181.159 61.291 181.362 61.529 181.502 61.781H181.88V56.3H184.526V71H181.922V69.74H181.544C181.306 70.132 180.935 70.489 180.431 70.811C179.941 71.133 179.22 71.294 178.268 71.294ZM179.066 68.984C179.878 68.984 180.557 68.725 181.103 68.207C181.649 67.675 181.922 66.905 181.922 65.897V65.687C181.922 64.679 181.649 63.916 181.103 63.398C180.571 62.866 179.892 62.6 179.066 62.6C178.254 62.6 177.575 62.866 177.029 63.398C176.483 63.916 176.21 64.679 176.21 65.687V65.897C176.21 66.905 176.483 67.675 177.029 68.207C177.575 68.725 178.254 68.984 179.066 68.984ZM188.593 75.2V72.89H194.263C194.655 72.89 194.851 72.68 194.851 72.26V69.635H194.473C194.361 69.873 194.186 70.111 193.948 70.349C193.71 70.587 193.388 70.783 192.982 70.937C192.576 71.091 192.058 71.168 191.428 71.168C190.616 71.168 189.902 70.986 189.286 70.622C188.684 70.244 188.215 69.726 187.879 69.068C187.543 68.41 187.375 67.654 187.375 66.8V60.584H190.021V66.59C190.021 67.374 190.21 67.962 190.588 68.354C190.98 68.746 191.533 68.942 192.247 68.942C193.059 68.942 193.689 68.676 194.137 68.144C194.585 67.598 194.809 66.842 194.809 65.876V60.584H197.455V72.848C197.455 73.562 197.245 74.129 196.825 74.549C196.405 74.983 195.845 75.2 195.145 75.2H188.593ZM207.454 71V62.768H204.808V60.584H207.454V58.652C207.454 57.938 207.664 57.371 208.084 56.951C208.518 56.517 209.078 56.3 209.764 56.3H212.494V58.484H210.688C210.296 58.484 210.1 58.694 210.1 59.114V60.584H212.83V62.768H210.1V71H207.454ZM219.486 71.294C218.45 71.294 217.519 71.084 216.693 70.664C215.867 70.244 215.216 69.635 214.74 68.837C214.264 68.039 214.026 67.08 214.026 65.96V65.624C214.026 64.504 214.264 63.545 214.74 62.747C215.216 61.949 215.867 61.34 216.693 60.92C217.519 60.5 218.45 60.29 219.486 60.29C220.522 60.29 221.453 60.5 222.279 60.92C223.105 61.34 223.756 61.949 224.232 62.747C224.708 63.545 224.946 64.504 224.946 65.624V65.96C224.946 67.08 224.708 68.039 224.232 68.837C223.756 69.635 223.105 70.244 222.279 70.664C221.453 71.084 220.522 71.294 219.486 71.294ZM219.486 68.942C220.298 68.942 220.97 68.683 221.502 68.165C222.034 67.633 222.3 66.877 222.3 65.897V65.687C222.3 64.707 222.034 63.958 221.502 63.44C220.984 62.908 220.312 62.642 219.486 62.642C218.674 62.642 218.002 62.908 217.47 63.44C216.938 63.958 216.672 64.707 216.672 65.687V65.897C216.672 66.877 216.938 67.633 217.47 68.165C218.002 68.683 218.674 68.942 219.486 68.942ZM227.388 71V60.584H229.992V61.76H230.37C230.524 61.34 230.776 61.032 231.126 60.836C231.49 60.64 231.91 60.542 232.386 60.542H233.646V62.894H232.344C231.672 62.894 231.119 63.076 230.685 63.44C230.251 63.79 230.034 64.336 230.034 65.078V71H227.388ZM245.792 71.294C244.756 71.294 243.839 71.077 243.041 70.643C242.257 70.195 241.641 69.572 241.193 68.774C240.759 67.962 240.542 67.01 240.542 65.918V65.666C240.542 64.574 240.759 63.629 241.193 62.831C241.627 62.019 242.236 61.396 243.02 60.962C243.804 60.514 244.714 60.29 245.75 60.29C246.772 60.29 247.661 60.521 248.417 60.983C249.173 61.431 249.761 62.061 250.181 62.873C250.601 63.671 250.811 64.602 250.811 65.666V66.569H243.23C243.258 67.283 243.524 67.864 244.028 68.312C244.532 68.76 245.148 68.984 245.876 68.984C246.618 68.984 247.164 68.823 247.514 68.501C247.864 68.179 248.13 67.822 248.312 67.43L250.475 68.564C250.279 68.928 249.992 69.327 249.614 69.761C249.25 70.181 248.76 70.545 248.144 70.853C247.528 71.147 246.744 71.294 245.792 71.294ZM243.251 64.595H248.123C248.067 63.993 247.822 63.51 247.388 63.146C246.968 62.782 246.415 62.6 245.729 62.6C245.015 62.6 244.448 62.782 244.028 63.146C243.608 63.51 243.349 63.993 243.251 64.595ZM253.166 71V60.584H255.77V61.949H256.148C256.316 61.585 256.631 61.242 257.093 60.92C257.555 60.584 258.255 60.416 259.193 60.416C260.005 60.416 260.712 60.605 261.314 60.983C261.93 61.347 262.406 61.858 262.742 62.516C263.078 63.16 263.246 63.916 263.246 64.784V71H260.6V64.994C260.6 64.21 260.404 63.622 260.012 63.23C259.634 62.838 259.088 62.642 258.374 62.642C257.562 62.642 256.932 62.915 256.484 63.461C256.036 63.993 255.812 64.742 255.812 65.708V71H253.166ZM269.81 71C269.124 71 268.564 70.79 268.13 70.37C267.71 69.936 267.5 69.362 267.5 68.648V62.768H264.896V60.584H267.5V57.35H270.146V60.584H273.002V62.768H270.146V68.186C270.146 68.606 270.342 68.816 270.734 68.816H272.75V71H269.81ZM275.397 71V60.584H278.001V61.76H278.379C278.533 61.34 278.785 61.032 279.135 60.836C279.499 60.64 279.919 60.542 280.395 60.542H281.655V62.894H280.353C279.681 62.894 279.128 63.076 278.694 63.44C278.26 63.79 278.043 64.336 278.043 65.078V71H275.397ZM286.711 71.294C285.969 71.294 285.304 71.168 284.716 70.916C284.128 70.65 283.659 70.272 283.309 69.782C282.973 69.278 282.805 68.669 282.805 67.955C282.805 67.241 282.973 66.646 283.309 66.17C283.659 65.68 284.135 65.316 284.737 65.078C285.353 64.826 286.053 64.7 286.837 64.7H289.693V64.112C289.693 63.622 289.539 63.223 289.231 62.915C288.923 62.593 288.433 62.432 287.761 62.432C287.103 62.432 286.613 62.586 286.291 62.894C285.969 63.188 285.759 63.573 285.661 64.049L283.225 63.23C283.393 62.698 283.659 62.215 284.023 61.781C284.401 61.333 284.898 60.976 285.514 60.71C286.144 60.43 286.907 60.29 287.803 60.29C289.175 60.29 290.26 60.633 291.058 61.319C291.856 62.005 292.255 62.999 292.255 64.301V68.186C292.255 68.606 292.451 68.816 292.843 68.816H293.683V71H291.919C291.401 71 290.974 70.874 290.638 70.622C290.302 70.37 290.134 70.034 290.134 69.614V69.593H289.735C289.679 69.761 289.553 69.985 289.357 70.265C289.161 70.531 288.853 70.769 288.433 70.979C288.013 71.189 287.439 71.294 286.711 71.294ZM287.173 69.152C287.915 69.152 288.517 68.949 288.979 68.543C289.455 68.123 289.693 67.57 289.693 66.884V66.674H287.026C286.536 66.674 286.151 66.779 285.871 66.989C285.591 67.199 285.451 67.493 285.451 67.871C285.451 68.249 285.598 68.557 285.892 68.795C286.186 69.033 286.613 69.152 287.173 69.152ZM295.617 71V60.584H298.221V61.949H298.599C298.767 61.585 299.082 61.242 299.544 60.92C300.006 60.584 300.706 60.416 301.644 60.416C302.456 60.416 303.163 60.605 303.765 60.983C304.381 61.347 304.857 61.858 305.193 62.516C305.529 63.16 305.697 63.916 305.697 64.784V71H303.051V64.994C303.051 64.21 302.855 63.622 302.463 63.23C302.085 62.838 301.539 62.642 300.825 62.642C300.013 62.642 299.383 62.915 298.935 63.461C298.487 63.993 298.263 64.742 298.263 65.708V71H295.617ZM313.451 71.294C312.443 71.294 311.526 71.084 310.7 70.664C309.888 70.244 309.244 69.635 308.768 68.837C308.292 68.039 308.054 67.073 308.054 65.939V65.645C308.054 64.511 308.292 63.545 308.768 62.747C309.244 61.949 309.888 61.34 310.7 60.92C311.526 60.5 312.443 60.29 313.451 60.29C314.445 60.29 315.299 60.465 316.013 60.815C316.727 61.165 317.301 61.648 317.735 62.264C318.183 62.866 318.477 63.552 318.617 64.322L316.055 64.868C315.999 64.448 315.873 64.07 315.677 63.734C315.481 63.398 315.201 63.132 314.837 62.936C314.487 62.74 314.046 62.642 313.514 62.642C312.982 62.642 312.499 62.761 312.065 62.999C311.645 63.223 311.309 63.566 311.057 64.028C310.819 64.476 310.7 65.029 310.7 65.687V65.897C310.7 66.555 310.819 67.115 311.057 67.577C311.309 68.025 311.645 68.368 312.065 68.606C312.499 68.83 312.982 68.942 313.514 68.942C314.312 68.942 314.914 68.739 315.32 68.333C315.74 67.913 316.006 67.367 316.118 66.695L318.68 67.304C318.498 68.046 318.183 68.725 317.735 69.341C317.301 69.943 316.727 70.419 316.013 70.769C315.299 71.119 314.445 71.294 313.451 71.294ZM325.609 71.294C324.573 71.294 323.656 71.077 322.858 70.643C322.074 70.195 321.458 69.572 321.01 68.774C320.576 67.962 320.359 67.01 320.359 65.918V65.666C320.359 64.574 320.576 63.629 321.01 62.831C321.444 62.019 322.053 61.396 322.837 60.962C323.621 60.514 324.531 60.29 325.567 60.29C326.589 60.29 327.478 60.521 328.234 60.983C328.99 61.431 329.578 62.061 329.998 62.873C330.418 63.671 330.628 64.602 330.628 65.666V66.569H323.047C323.075 67.283 323.341 67.864 323.845 68.312C324.349 68.76 324.965 68.984 325.693 68.984C326.435 68.984 326.981 68.823 327.331 68.501C327.681 68.179 327.947 67.822 328.129 67.43L330.292 68.564C330.096 68.928 329.809 69.327 329.431 69.761C329.067 70.181 328.577 70.545 327.961 70.853C327.345 71.147 326.561 71.294 325.609 71.294ZM323.068 64.595H327.94C327.884 63.993 327.639 63.51 327.205 63.146C326.785 62.782 326.232 62.6 325.546 62.6C324.832 62.6 324.265 62.782 323.845 63.146C323.425 63.51 323.166 63.993 323.068 64.595ZM343.061 71.294C342.025 71.294 341.108 71.077 340.31 70.643C339.526 70.195 338.91 69.572 338.462 68.774C338.028 67.962 337.811 67.01 337.811 65.918V65.666C337.811 64.574 338.028 63.629 338.462 62.831C338.896 62.019 339.505 61.396 340.289 60.962C341.073 60.514 341.983 60.29 343.019 60.29C344.041 60.29 344.93 60.521 345.686 60.983C346.442 61.431 347.03 62.061 347.45 62.873C347.87 63.671 348.08 64.602 348.08 65.666V66.569H340.499C340.527 67.283 340.793 67.864 341.297 68.312C341.801 68.76 342.417 68.984 343.145 68.984C343.887 68.984 344.433 68.823 344.783 68.501C345.133 68.179 345.399 67.822 345.581 67.43L347.744 68.564C347.548 68.928 347.261 69.327 346.883 69.761C346.519 70.181 346.029 70.545 345.413 70.853C344.797 71.147 344.013 71.294 343.061 71.294ZM340.52 64.595H345.392C345.336 63.993 345.091 63.51 344.657 63.146C344.237 62.782 343.684 62.6 342.998 62.6C342.284 62.6 341.717 62.782 341.297 63.146C340.877 63.51 340.618 63.993 340.52 64.595ZM348.834 71L352.614 65.75L348.876 60.584H351.942L354.315 64.049H354.693L357.066 60.584H360.132L356.394 65.75L360.174 71H357.066L354.693 67.493H354.315L351.942 71H348.834ZM365.256 71.294C364.514 71.294 363.849 71.168 363.261 70.916C362.673 70.65 362.204 70.272 361.854 69.782C361.518 69.278 361.35 68.669 361.35 67.955C361.35 67.241 361.518 66.646 361.854 66.17C362.204 65.68 362.68 65.316 363.282 65.078C363.898 64.826 364.598 64.7 365.382 64.7H368.238V64.112C368.238 63.622 368.084 63.223 367.776 62.915C367.468 62.593 366.978 62.432 366.306 62.432C365.648 62.432 365.158 62.586 364.836 62.894C364.514 63.188 364.304 63.573 364.206 64.049L361.77 63.23C361.938 62.698 362.204 62.215 362.568 61.781C362.946 61.333 363.443 60.976 364.059 60.71C364.689 60.43 365.452 60.29 366.348 60.29C367.72 60.29 368.805 60.633 369.603 61.319C370.401 62.005 370.8 62.999 370.8 64.301V68.186C370.8 68.606 370.996 68.816 371.388 68.816H372.228V71H370.464C369.946 71 369.519 70.874 369.183 70.622C368.847 70.37 368.679 70.034 368.679 69.614V69.593H368.28C368.224 69.761 368.098 69.985 367.902 70.265C367.706 70.531 367.398 70.769 366.978 70.979C366.558 71.189 365.984 71.294 365.256 71.294ZM365.718 69.152C366.46 69.152 367.062 68.949 367.524 68.543C368 68.123 368.238 67.57 368.238 66.884V66.674H365.571C365.081 66.674 364.696 66.779 364.416 66.989C364.136 67.199 363.996 67.493 363.996 67.871C363.996 68.249 364.143 68.557 364.437 68.795C364.731 69.033 365.158 69.152 365.718 69.152ZM374.162 71V60.584H376.766V61.718H377.144C377.326 61.368 377.627 61.067 378.047 60.815C378.467 60.549 379.02 60.416 379.706 60.416C380.448 60.416 381.043 60.563 381.491 60.857C381.939 61.137 382.282 61.508 382.52 61.97H382.898C383.136 61.522 383.472 61.151 383.906 60.857C384.34 60.563 384.956 60.416 385.754 60.416C386.398 60.416 386.979 60.556 387.497 60.836C388.029 61.102 388.449 61.515 388.757 62.075C389.079 62.621 389.24 63.314 389.24 64.154V71H386.594V64.343C386.594 63.769 386.447 63.342 386.153 63.062C385.859 62.768 385.446 62.621 384.914 62.621C384.312 62.621 383.843 62.817 383.507 63.209C383.185 63.587 383.024 64.133 383.024 64.847V71H380.378V64.343C380.378 63.769 380.231 63.342 379.937 63.062C379.643 62.768 379.23 62.621 378.698 62.621C378.096 62.621 377.627 62.817 377.291 63.209C376.969 63.587 376.808 64.133 376.808 64.847V71H374.162ZM396.412 71.294C395.054 71.294 393.941 71 393.073 70.412C392.205 69.824 391.68 68.984 391.498 67.892L393.934 67.262C394.032 67.752 394.193 68.137 394.417 68.417C394.655 68.697 394.942 68.9 395.278 69.026C395.628 69.138 396.006 69.194 396.412 69.194C397.028 69.194 397.483 69.089 397.777 68.879C398.071 68.655 398.218 68.382 398.218 68.06C398.218 67.738 398.078 67.493 397.798 67.325C397.518 67.143 397.07 66.996 396.454 66.884L395.866 66.779C395.138 66.639 394.473 66.45 393.871 66.212C393.269 65.96 392.786 65.617 392.422 65.183C392.058 64.749 391.876 64.189 391.876 63.503C391.876 62.467 392.254 61.676 393.01 61.13C393.766 60.57 394.76 60.29 395.992 60.29C397.154 60.29 398.12 60.549 398.89 61.067C399.66 61.585 400.164 62.264 400.402 63.104L397.945 63.86C397.833 63.328 397.602 62.95 397.252 62.726C396.916 62.502 396.496 62.39 395.992 62.39C395.488 62.39 395.103 62.481 394.837 62.663C394.571 62.831 394.438 63.069 394.438 63.377C394.438 63.713 394.578 63.965 394.858 64.133C395.138 64.287 395.516 64.406 395.992 64.49L396.58 64.595C397.364 64.735 398.071 64.924 398.701 65.162C399.345 65.386 399.849 65.715 400.213 66.149C400.591 66.569 400.78 67.143 400.78 67.871C400.78 68.963 400.381 69.81 399.583 70.412C398.799 71 397.742 71.294 396.412 71.294Z" fill="#1F1F1F"/>
<path d="M100.676 87.9119V86.8182H108.312V87.9119H105.111V97H103.878V87.9119H100.676ZM111.264 97.179C110.78 97.179 110.341 97.0878 109.947 96.9055C109.552 96.7199 109.239 96.4531 109.007 96.1051C108.775 95.7538 108.659 95.3295 108.659 94.8324C108.659 94.3949 108.745 94.0402 108.918 93.7685C109.09 93.4934 109.32 93.2779 109.609 93.1222C109.897 92.9664 110.215 92.8504 110.563 92.7741C110.915 92.6946 111.268 92.6316 111.622 92.5852C112.086 92.5256 112.463 92.4808 112.751 92.451C113.043 92.4179 113.255 92.3632 113.387 92.2869C113.523 92.2107 113.591 92.0781 113.591 91.8892V91.8494C113.591 91.3589 113.457 90.9777 113.188 90.706C112.923 90.4342 112.521 90.2983 111.98 90.2983C111.42 90.2983 110.981 90.4209 110.663 90.6662C110.345 90.9115 110.121 91.1733 109.992 91.4517L108.878 91.054C109.077 90.59 109.342 90.2287 109.673 89.9702C110.008 89.7083 110.373 89.526 110.767 89.4233C111.165 89.3172 111.556 89.2642 111.941 89.2642C112.186 89.2642 112.468 89.294 112.786 89.3537C113.107 89.41 113.417 89.5277 113.715 89.7067C114.017 89.8857 114.267 90.1558 114.466 90.517C114.665 90.8783 114.764 91.3622 114.764 91.9688V97H113.591V95.9659H113.531C113.452 96.1316 113.319 96.3089 113.134 96.4979C112.948 96.6868 112.701 96.8475 112.393 96.9801C112.085 97.1127 111.709 97.179 111.264 97.179ZM111.443 96.125C111.907 96.125 112.298 96.0339 112.617 95.8516C112.938 95.6693 113.18 95.4339 113.343 95.1456C113.508 94.8572 113.591 94.554 113.591 94.2358V93.1619C113.541 93.2216 113.432 93.2763 113.263 93.326C113.097 93.3724 112.905 93.4138 112.686 93.4503C112.471 93.4834 112.26 93.5133 112.055 93.5398C111.853 93.563 111.689 93.5829 111.563 93.5994C111.258 93.6392 110.973 93.7038 110.708 93.7933C110.446 93.8795 110.234 94.0104 110.071 94.1861C109.912 94.3584 109.833 94.5937 109.833 94.892C109.833 95.2997 109.983 95.608 110.285 95.8168C110.59 96.0223 110.976 96.125 111.443 96.125ZM118.079 86.8182V97H116.906V86.8182H118.079ZM121.322 94.2159L121.302 92.7642H121.541L124.882 89.3636H126.333L122.774 92.9631H122.674L121.322 94.2159ZM120.228 97V86.8182H121.401V97H120.228ZM125.08 97L122.097 93.2216L122.933 92.4062L126.572 97H125.08ZM135.102 89.3636V90.358H131.145V89.3636H135.102ZM132.298 87.5341H133.471V94.8125C133.471 95.1439 133.519 95.3925 133.615 95.5582C133.715 95.7206 133.841 95.83 133.993 95.8864C134.149 95.9394 134.313 95.9659 134.485 95.9659C134.615 95.9659 134.721 95.9593 134.804 95.946C134.886 95.9295 134.953 95.9162 135.002 95.9062L135.241 96.9602C135.162 96.9901 135.051 97.0199 134.908 97.0497C134.766 97.0829 134.585 97.0994 134.366 97.0994C134.035 97.0994 133.71 97.0282 133.392 96.8857C133.077 96.7431 132.815 96.526 132.606 96.2344C132.401 95.9427 132.298 95.5748 132.298 95.1307V87.5341ZM139.887 97.1591C139.198 97.1591 138.593 96.995 138.072 96.6669C137.555 96.3388 137.151 95.8797 136.859 95.2898C136.571 94.6998 136.427 94.0104 136.427 93.2216C136.427 92.4261 136.571 91.7318 136.859 91.1385C137.151 90.5452 137.555 90.0845 138.072 89.7564C138.593 89.4283 139.198 89.2642 139.887 89.2642C140.576 89.2642 141.18 89.4283 141.697 89.7564C142.217 90.0845 142.621 90.5452 142.91 91.1385C143.201 91.7318 143.347 92.4261 143.347 93.2216C143.347 94.0104 143.201 94.6998 142.91 95.2898C142.621 95.8797 142.217 96.3388 141.697 96.6669C141.18 96.995 140.576 97.1591 139.887 97.1591ZM139.887 96.1051C140.411 96.1051 140.842 95.9709 141.18 95.7024C141.518 95.4339 141.768 95.081 141.93 94.6435C142.093 94.206 142.174 93.732 142.174 93.2216C142.174 92.7112 142.093 92.2356 141.93 91.7947C141.768 91.3539 141.518 90.9976 141.18 90.7259C140.842 90.4541 140.411 90.3182 139.887 90.3182C139.363 90.3182 138.933 90.4541 138.594 90.7259C138.256 90.9976 138.006 91.3539 137.844 91.7947C137.681 92.2356 137.6 92.7112 137.6 93.2216C137.6 93.732 137.681 94.206 137.844 94.6435C138.006 95.081 138.256 95.4339 138.594 95.7024C138.933 95.9709 139.363 96.1051 139.887 96.1051ZM152.178 97.1591C151.489 97.1591 150.884 96.995 150.363 96.6669C149.846 96.3388 149.442 95.8797 149.15 95.2898C148.862 94.6998 148.718 94.0104 148.718 93.2216C148.718 92.4261 148.862 91.7318 149.15 91.1385C149.442 90.5452 149.846 90.0845 150.363 89.7564C150.884 89.4283 151.489 89.2642 152.178 89.2642C152.867 89.2642 153.471 89.4283 153.988 89.7564C154.508 90.0845 154.912 90.5452 155.201 91.1385C155.492 91.7318 155.638 92.4261 155.638 93.2216C155.638 94.0104 155.492 94.6998 155.201 95.2898C154.912 95.8797 154.508 96.3388 153.988 96.6669C153.471 96.995 152.867 97.1591 152.178 97.1591ZM152.178 96.1051C152.702 96.1051 153.133 95.9709 153.471 95.7024C153.809 95.4339 154.059 95.081 154.221 94.6435C154.384 94.206 154.465 93.732 154.465 93.2216C154.465 92.7112 154.384 92.2356 154.221 91.7947C154.059 91.3539 153.809 90.9976 153.471 90.7259C153.133 90.4541 152.702 90.3182 152.178 90.3182C151.654 90.3182 151.224 90.4541 150.885 90.7259C150.547 90.9976 150.297 91.3539 150.135 91.7947C149.972 92.2356 149.891 92.7112 149.891 93.2216C149.891 93.732 149.972 94.206 150.135 94.6435C150.297 95.081 150.547 95.4339 150.885 95.7024C151.224 95.9709 151.654 96.1051 152.178 96.1051ZM162.242 93.8778V89.3636H163.415V97H162.242V95.7074H162.162C161.983 96.0952 161.705 96.425 161.327 96.6967C160.949 96.9652 160.472 97.0994 159.895 97.0994C159.418 97.0994 158.994 96.995 158.623 96.7862C158.251 96.5741 157.96 96.2559 157.748 95.8317C157.535 95.4041 157.429 94.8655 157.429 94.2159V89.3636H158.603V94.1364C158.603 94.6932 158.758 95.1373 159.07 95.4688C159.385 95.8002 159.786 95.9659 160.273 95.9659C160.565 95.9659 160.861 95.8913 161.163 95.7422C161.468 95.593 161.723 95.3643 161.929 95.0561C162.137 94.7479 162.242 94.3551 162.242 93.8778ZM165.564 97V89.3636H166.698V90.517H166.777C166.916 90.1392 167.168 89.8326 167.533 89.5973C167.897 89.362 168.308 89.2443 168.766 89.2443C168.852 89.2443 168.96 89.246 169.089 89.2493C169.218 89.2526 169.316 89.2576 169.382 89.2642V90.4574C169.343 90.4474 169.251 90.4325 169.109 90.4126C168.97 90.3894 168.822 90.3778 168.666 90.3778C168.295 90.3778 167.964 90.4557 167.672 90.6115C167.384 90.764 167.155 90.9761 166.986 91.2479C166.82 91.5163 166.737 91.8229 166.737 92.1676V97H165.564ZM176.958 97.179C176.474 97.179 176.035 97.0878 175.64 96.9055C175.246 96.7199 174.933 96.4531 174.701 96.1051C174.469 95.7538 174.353 95.3295 174.353 94.8324C174.353 94.3949 174.439 94.0402 174.611 93.7685C174.783 93.4934 175.014 93.2779 175.302 93.1222C175.591 92.9664 175.909 92.8504 176.257 92.7741C176.608 92.6946 176.961 92.6316 177.316 92.5852C177.78 92.5256 178.156 92.4808 178.444 92.451C178.736 92.4179 178.948 92.3632 179.081 92.2869C179.217 92.2107 179.284 92.0781 179.284 91.8892V91.8494C179.284 91.3589 179.15 90.9777 178.882 90.706C178.617 90.4342 178.214 90.2983 177.674 90.2983C177.114 90.2983 176.674 90.4209 176.356 90.6662C176.038 90.9115 175.814 91.1733 175.685 91.4517L174.571 91.054C174.77 90.59 175.035 90.2287 175.367 89.9702C175.702 89.7083 176.066 89.526 176.461 89.4233C176.858 89.3172 177.249 89.2642 177.634 89.2642C177.879 89.2642 178.161 89.294 178.479 89.3537C178.801 89.41 179.11 89.5277 179.409 89.7067C179.71 89.8857 179.961 90.1558 180.159 90.517C180.358 90.8783 180.458 91.3622 180.458 91.9688V97H179.284V95.9659H179.225C179.145 96.1316 179.013 96.3089 178.827 96.4979C178.641 96.6868 178.395 96.8475 178.086 96.9801C177.778 97.1127 177.402 97.179 176.958 97.179ZM177.137 96.125C177.601 96.125 177.992 96.0339 178.31 95.8516C178.632 95.6693 178.873 95.4339 179.036 95.1456C179.202 94.8572 179.284 94.554 179.284 94.2358V93.1619C179.235 93.2216 179.125 93.2763 178.956 93.326C178.791 93.3724 178.598 93.4138 178.38 93.4503C178.164 93.4834 177.954 93.5133 177.748 93.5398C177.546 93.563 177.382 93.5829 177.256 93.5994C176.951 93.6392 176.666 93.7038 176.401 93.7933C176.139 93.8795 175.927 94.0104 175.765 94.1861C175.605 94.3584 175.526 94.5937 175.526 94.892C175.526 95.2997 175.677 95.608 175.978 95.8168C176.283 96.0223 176.669 96.125 177.137 96.125ZM185.483 97.1591C184.846 97.1591 184.285 96.9983 183.797 96.6768C183.31 96.352 182.929 95.8946 182.654 95.3047C182.379 94.7114 182.241 94.0104 182.241 93.2017C182.241 92.3996 182.379 91.7036 182.654 91.1136C182.929 90.5237 183.312 90.0679 183.802 89.7464C184.293 89.425 184.86 89.2642 185.503 89.2642C186 89.2642 186.393 89.3471 186.681 89.5128C186.973 89.6752 187.195 89.8608 187.347 90.0696C187.503 90.2751 187.624 90.4441 187.71 90.5767H187.809V86.8182H188.983V97H187.849V95.8267H187.71C187.624 95.9659 187.501 96.1416 187.342 96.3537C187.183 96.5625 186.956 96.7498 186.661 96.9155C186.366 97.0779 185.973 97.1591 185.483 97.1591ZM185.642 96.1051C186.113 96.1051 186.51 95.9825 186.835 95.7372C187.16 95.4886 187.407 95.1456 187.576 94.7081C187.745 94.2673 187.829 93.7585 187.829 93.1818C187.829 92.6117 187.747 92.1129 187.581 91.6854C187.415 91.2545 187.17 90.9197 186.845 90.6811C186.52 90.4392 186.119 90.3182 185.642 90.3182C185.145 90.3182 184.73 90.4458 184.399 90.701C184.071 90.9529 183.824 91.2959 183.658 91.7301C183.496 92.161 183.415 92.6449 183.415 93.1818C183.415 93.7254 183.497 94.2192 183.663 94.6634C183.832 95.1042 184.081 95.4555 184.409 95.7173C184.74 95.9759 185.151 96.1051 185.642 96.1051ZM191.295 97V89.3636H192.428V90.5568H192.528C192.687 90.1491 192.943 89.8326 193.298 89.6072C193.653 89.3786 194.079 89.2642 194.576 89.2642C195.08 89.2642 195.499 89.3786 195.834 89.6072C196.172 89.8326 196.435 90.1491 196.624 90.5568H196.704C196.899 90.1624 197.193 89.8492 197.584 89.6172C197.975 89.3819 198.444 89.2642 198.991 89.2642C199.673 89.2642 200.232 89.478 200.666 89.9055C201.1 90.3298 201.317 90.991 201.317 91.8892V97H200.144V91.8892C200.144 91.3258 199.99 90.9231 199.682 90.6811C199.373 90.4392 199.01 90.3182 198.593 90.3182C198.056 90.3182 197.64 90.4806 197.345 90.8054C197.05 91.1269 196.903 91.5346 196.903 92.0284V97H195.709V91.7699C195.709 91.3357 195.568 90.986 195.287 90.7209C195.005 90.4524 194.642 90.3182 194.198 90.3182C193.893 90.3182 193.608 90.3994 193.343 90.5618C193.081 90.7242 192.869 90.9496 192.706 91.2379C192.547 91.523 192.468 91.8527 192.468 92.2273V97H191.295ZM203.463 97V89.3636H204.636V97H203.463ZM204.059 88.0909C203.83 88.0909 203.633 88.013 203.468 87.8572C203.305 87.7015 203.224 87.5142 203.224 87.2955C203.224 87.0767 203.305 86.8894 203.468 86.7337C203.633 86.5779 203.83 86.5 204.059 86.5C204.288 86.5 204.483 86.5779 204.646 86.7337C204.811 86.8894 204.894 87.0767 204.894 87.2955C204.894 87.5142 204.811 87.7015 204.646 87.8572C204.483 88.013 204.288 88.0909 204.059 88.0909ZM212.194 91.0739L211.14 91.3722C211.074 91.1965 210.976 91.0258 210.847 90.8601C210.721 90.6911 210.548 90.5518 210.33 90.4425C210.111 90.3331 209.831 90.2784 209.489 90.2784C209.022 90.2784 208.633 90.3861 208.321 90.6016C208.013 90.8137 207.859 91.0838 207.859 91.4119C207.859 91.7036 207.965 91.9339 208.177 92.103C208.389 92.272 208.72 92.4129 209.171 92.5256L210.305 92.804C210.987 92.9697 211.496 93.2232 211.831 93.5646C212.166 93.9027 212.333 94.3385 212.333 94.8722C212.333 95.3097 212.207 95.7008 211.955 96.0455C211.707 96.3902 211.359 96.6619 210.911 96.8608C210.464 97.0597 209.943 97.1591 209.35 97.1591C208.571 97.1591 207.927 96.9901 207.416 96.652C206.906 96.3139 206.583 95.8201 206.447 95.1705L207.56 94.892C207.666 95.303 207.867 95.6113 208.162 95.8168C208.46 96.0223 208.85 96.125 209.33 96.125C209.877 96.125 210.311 96.009 210.633 95.777C210.958 95.5417 211.12 95.2599 211.12 94.9318C211.12 94.6667 211.027 94.4446 210.842 94.2656C210.656 94.0833 210.371 93.9474 209.987 93.858L208.714 93.5597C208.014 93.3939 207.501 93.1371 207.173 92.7891C206.848 92.4377 206.685 91.9986 206.685 91.4716C206.685 91.0407 206.806 90.6596 207.048 90.3281C207.294 89.9967 207.627 89.7365 208.048 89.5476C208.472 89.3587 208.952 89.2642 209.489 89.2642C210.245 89.2642 210.838 89.4299 211.269 89.7614C211.703 90.0928 212.012 90.5303 212.194 91.0739ZM219.508 91.0739L218.454 91.3722C218.388 91.1965 218.29 91.0258 218.161 90.8601C218.035 90.6911 217.863 90.5518 217.644 90.4425C217.425 90.3331 217.145 90.2784 216.804 90.2784C216.336 90.2784 215.947 90.3861 215.635 90.6016C215.327 90.8137 215.173 91.0838 215.173 91.4119C215.173 91.7036 215.279 91.9339 215.491 92.103C215.703 92.272 216.035 92.4129 216.486 92.5256L217.619 92.804C218.302 92.9697 218.811 93.2232 219.145 93.5646C219.48 93.9027 219.648 94.3385 219.648 94.8722C219.648 95.3097 219.522 95.7008 219.27 96.0455C219.021 96.3902 218.673 96.6619 218.226 96.8608C217.778 97.0597 217.258 97.1591 216.665 97.1591C215.886 97.1591 215.241 96.9901 214.731 96.652C214.22 96.3139 213.897 95.8201 213.761 95.1705L214.875 94.892C214.981 95.303 215.181 95.6113 215.476 95.8168C215.775 96.0223 216.164 96.125 216.645 96.125C217.192 96.125 217.626 96.009 217.947 95.777C218.272 95.5417 218.434 95.2599 218.434 94.9318C218.434 94.6667 218.342 94.4446 218.156 94.2656C217.97 94.0833 217.685 93.9474 217.301 93.858L216.028 93.5597C215.329 93.3939 214.815 93.1371 214.487 92.7891C214.162 92.4377 214 91.9986 214 91.4716C214 91.0407 214.121 90.6596 214.363 90.3281C214.608 89.9967 214.941 89.7365 215.362 89.5476C215.786 89.3587 216.267 89.2642 216.804 89.2642C217.559 89.2642 218.153 89.4299 218.584 89.7614C219.018 90.0928 219.326 90.5303 219.508 91.0739ZM221.414 97V89.3636H222.587V97H221.414ZM222.01 88.0909C221.782 88.0909 221.584 88.013 221.419 87.8572C221.256 87.7015 221.175 87.5142 221.175 87.2955C221.175 87.0767 221.256 86.8894 221.419 86.7337C221.584 86.5779 221.782 86.5 222.01 86.5C222.239 86.5 222.435 86.5779 222.597 86.7337C222.763 86.8894 222.846 87.0767 222.846 87.2955C222.846 87.5142 222.763 87.7015 222.597 87.8572C222.435 88.013 222.239 88.0909 222.01 88.0909ZM227.838 97.1591C227.149 97.1591 226.544 96.995 226.024 96.6669C225.507 96.3388 225.102 95.8797 224.811 95.2898C224.522 94.6998 224.378 94.0104 224.378 93.2216C224.378 92.4261 224.522 91.7318 224.811 91.1385C225.102 90.5452 225.507 90.0845 226.024 89.7564C226.544 89.4283 227.149 89.2642 227.838 89.2642C228.528 89.2642 229.131 89.4283 229.648 89.7564C230.168 90.0845 230.573 90.5452 230.861 91.1385C231.153 91.7318 231.298 92.4261 231.298 93.2216C231.298 94.0104 231.153 94.6998 230.861 95.2898C230.573 95.8797 230.168 96.3388 229.648 96.6669C229.131 96.995 228.528 97.1591 227.838 97.1591ZM227.838 96.1051C228.362 96.1051 228.793 95.9709 229.131 95.7024C229.469 95.4339 229.719 95.081 229.882 94.6435C230.044 94.206 230.125 93.732 230.125 93.2216C230.125 92.7112 230.044 92.2356 229.882 91.7947C229.719 91.3539 229.469 90.9976 229.131 90.7259C228.793 90.4541 228.362 90.3182 227.838 90.3182C227.315 90.3182 226.884 90.4541 226.546 90.7259C226.208 90.9976 225.957 91.3539 225.795 91.7947C225.633 92.2356 225.551 92.7112 225.551 93.2216C225.551 93.732 225.633 94.206 225.795 94.6435C225.957 95.081 226.208 95.4339 226.546 95.7024C226.884 95.9709 227.315 96.1051 227.838 96.1051ZM234.263 92.4062V97H233.089V89.3636H234.223V90.5568H234.322C234.501 90.169 234.773 89.8575 235.138 89.6222C235.502 89.3835 235.973 89.2642 236.55 89.2642C237.067 89.2642 237.519 89.3703 237.907 89.5824C238.295 89.7912 238.596 90.1094 238.812 90.5369C239.027 90.9612 239.135 91.4981 239.135 92.1477V97H237.962V92.2273C237.962 91.6274 237.806 91.16 237.494 90.8253C237.183 90.4872 236.755 90.3182 236.212 90.3182C235.837 90.3182 235.502 90.3994 235.207 90.5618C234.916 90.7242 234.685 90.9612 234.516 91.2727C234.347 91.5843 234.263 91.9621 234.263 92.4062ZM246.688 91.0739L245.634 91.3722C245.568 91.1965 245.47 91.0258 245.341 90.8601C245.215 90.6911 245.042 90.5518 244.824 90.4425C244.605 90.3331 244.325 90.2784 243.983 90.2784C243.516 90.2784 243.127 90.3861 242.815 90.6016C242.507 90.8137 242.353 91.0838 242.353 91.4119C242.353 91.7036 242.459 91.9339 242.671 92.103C242.883 92.272 243.215 92.4129 243.665 92.5256L244.799 92.804C245.482 92.9697 245.99 93.2232 246.325 93.5646C246.66 93.9027 246.827 94.3385 246.827 94.8722C246.827 95.3097 246.701 95.7008 246.449 96.0455C246.201 96.3902 245.853 96.6619 245.405 96.8608C244.958 97.0597 244.438 97.1591 243.844 97.1591C243.065 97.1591 242.421 96.9901 241.91 96.652C241.4 96.3139 241.077 95.8201 240.941 95.1705L242.055 94.892C242.161 95.303 242.361 95.6113 242.656 95.8168C242.954 96.0223 243.344 96.125 243.824 96.125C244.371 96.125 244.805 96.009 245.127 95.777C245.452 95.5417 245.614 95.2599 245.614 94.9318C245.614 94.6667 245.521 94.4446 245.336 94.2656C245.15 94.0833 244.865 93.9474 244.481 93.858L243.208 93.5597C242.509 93.3939 241.995 93.1371 241.667 92.7891C241.342 92.4377 241.18 91.9986 241.18 91.4716C241.18 91.0407 241.3 90.6596 241.542 90.3281C241.788 89.9967 242.121 89.7365 242.542 89.5476C242.966 89.3587 243.447 89.2642 243.983 89.2642C244.739 89.2642 245.332 89.4299 245.763 89.7614C246.198 90.0928 246.506 90.5303 246.688 91.0739ZM255.733 97.1591C254.997 97.1591 254.362 96.9967 253.828 96.6719C253.298 96.3438 252.889 95.8864 252.6 95.2997C252.315 94.7098 252.173 94.0237 252.173 93.2415C252.173 92.4593 252.315 91.7699 252.6 91.1733C252.889 90.5734 253.29 90.1061 253.804 89.7713C254.321 89.4332 254.924 89.2642 255.613 89.2642C256.011 89.2642 256.404 89.3305 256.792 89.4631C257.179 89.5956 257.532 89.8111 257.85 90.1094C258.169 90.4044 258.422 90.7955 258.611 91.2827C258.8 91.7699 258.895 92.3698 258.895 93.0824V93.5795H253.008V92.5653H257.701C257.701 92.1345 257.615 91.75 257.443 91.4119C257.274 91.0739 257.032 90.8071 256.717 90.6115C256.405 90.416 256.038 90.3182 255.613 90.3182C255.146 90.3182 254.742 90.4342 254.4 90.6662C254.062 90.8949 253.802 91.1932 253.62 91.5611C253.437 91.929 253.346 92.3234 253.346 92.7443V93.4205C253.346 93.9972 253.446 94.486 253.645 94.8871C253.847 95.2848 254.127 95.5881 254.485 95.7969C254.843 96.0024 255.259 96.1051 255.733 96.1051C256.041 96.1051 256.319 96.062 256.568 95.9759C256.82 95.8864 257.037 95.7538 257.219 95.5781C257.401 95.3991 257.542 95.1771 257.642 94.9119L258.775 95.2301C258.656 95.6146 258.455 95.9527 258.174 96.2443C257.892 96.5327 257.544 96.758 257.13 96.9205C256.715 97.0795 256.25 97.1591 255.733 97.1591ZM261.349 89.3636L263.179 92.4858L265.008 89.3636H266.361L263.895 93.1818L266.361 97H265.008L263.179 94.0369L261.349 97H259.997L262.423 93.1818L259.997 89.3636H261.349ZM268.035 99.8636V89.3636H269.168V90.5767H269.308C269.394 90.4441 269.513 90.2751 269.665 90.0696C269.821 89.8608 270.043 89.6752 270.332 89.5128C270.623 89.3471 271.018 89.2642 271.515 89.2642C272.158 89.2642 272.725 89.425 273.215 89.7464C273.706 90.0679 274.089 90.5237 274.364 91.1136C274.639 91.7036 274.776 92.3996 274.776 93.2017C274.776 94.0104 274.639 94.7114 274.364 95.3047C274.089 95.8946 273.707 96.352 273.22 96.6768C272.733 96.9983 272.171 97.1591 271.535 97.1591C271.044 97.1591 270.652 97.0779 270.357 96.9155C270.062 96.7498 269.835 96.5625 269.675 96.3537C269.516 96.1416 269.394 95.9659 269.308 95.8267H269.208V99.8636H268.035ZM269.188 93.1818C269.188 93.7585 269.273 94.2673 269.442 94.7081C269.611 95.1456 269.858 95.4886 270.183 95.7372C270.507 95.9825 270.905 96.1051 271.376 96.1051C271.866 96.1051 272.276 95.9759 272.604 95.7173C272.935 95.4555 273.184 95.1042 273.349 94.6634C273.518 94.2192 273.603 93.7254 273.603 93.1818C273.603 92.6449 273.52 92.161 273.354 91.7301C273.192 91.2959 272.945 90.9529 272.614 90.701C272.286 90.4458 271.873 90.3182 271.376 90.3182C270.898 90.3182 270.497 90.4392 270.173 90.6811C269.848 90.9197 269.603 91.2545 269.437 91.6854C269.271 92.1129 269.188 92.6117 269.188 93.1818ZM279.768 97.1591C279.032 97.1591 278.397 96.9967 277.864 96.6719C277.333 96.3438 276.924 95.8864 276.636 95.2997C276.351 94.7098 276.208 94.0237 276.208 93.2415C276.208 92.4593 276.351 91.7699 276.636 91.1733C276.924 90.5734 277.325 90.1061 277.839 89.7713C278.356 89.4332 278.959 89.2642 279.648 89.2642C280.046 89.2642 280.439 89.3305 280.827 89.4631C281.214 89.5956 281.567 89.8111 281.886 90.1094C282.204 90.4044 282.457 90.7955 282.646 91.2827C282.835 91.7699 282.93 92.3698 282.93 93.0824V93.5795H277.043V92.5653H281.737C281.737 92.1345 281.65 91.75 281.478 91.4119C281.309 91.0739 281.067 90.8071 280.752 90.6115C280.441 90.416 280.073 90.3182 279.648 90.3182C279.181 90.3182 278.777 90.4342 278.435 90.6662C278.097 90.8949 277.837 91.1932 277.655 91.5611C277.473 91.929 277.381 92.3234 277.381 92.7443V93.4205C277.381 93.9972 277.481 94.486 277.68 94.8871C277.882 95.2848 278.162 95.5881 278.52 95.7969C278.878 96.0024 279.294 96.1051 279.768 96.1051C280.076 96.1051 280.354 96.062 280.603 95.9759C280.855 95.8864 281.072 95.7538 281.254 95.5781C281.437 95.3991 281.577 95.1771 281.677 94.9119L282.81 95.2301C282.691 95.6146 282.491 95.9527 282.209 96.2443C281.927 96.5327 281.579 96.758 281.165 96.9205C280.75 97.0795 280.285 97.1591 279.768 97.1591ZM284.714 97V89.3636H285.848V90.517H285.928C286.067 90.1392 286.319 89.8326 286.683 89.5973C287.048 89.362 287.459 89.2443 287.916 89.2443C288.002 89.2443 288.11 89.246 288.239 89.2493C288.369 89.2526 288.466 89.2576 288.533 89.2642V90.4574C288.493 90.4474 288.402 90.4325 288.259 90.4126C288.12 90.3894 287.973 90.3778 287.817 90.3778C287.446 90.3778 287.114 90.4557 286.822 90.6115C286.534 90.764 286.305 90.9761 286.136 91.2479C285.971 91.5163 285.888 91.8229 285.888 92.1676V97H284.714ZM293.723 89.3636V90.358H289.766V89.3636H293.723ZM290.919 87.5341H292.092V94.8125C292.092 95.1439 292.14 95.3925 292.237 95.5582C292.336 95.7206 292.462 95.83 292.614 95.8864C292.77 95.9394 292.934 95.9659 293.107 95.9659C293.236 95.9659 293.342 95.9593 293.425 95.946C293.508 95.9295 293.574 95.9162 293.624 95.9062L293.862 96.9602C293.783 96.9901 293.672 97.0199 293.529 97.0497C293.387 97.0829 293.206 97.0994 292.987 97.0994C292.656 97.0994 292.331 97.0282 292.013 96.8857C291.698 96.7431 291.436 96.526 291.227 96.2344C291.022 95.9427 290.919 95.5748 290.919 95.1307V87.5341ZM300.76 91.0739L299.706 91.3722C299.64 91.1965 299.542 91.0258 299.413 90.8601C299.287 90.6911 299.115 90.5518 298.896 90.4425C298.677 90.3331 298.397 90.2784 298.056 90.2784C297.588 90.2784 297.199 90.3861 296.887 90.6016C296.579 90.8137 296.425 91.0838 296.425 91.4119C296.425 91.7036 296.531 91.9339 296.743 92.103C296.955 92.272 297.287 92.4129 297.738 92.5256L298.871 92.804C299.554 92.9697 300.063 93.2232 300.397 93.5646C300.732 93.9027 300.9 94.3385 300.9 94.8722C300.9 95.3097 300.774 95.7008 300.522 96.0455C300.273 96.3902 299.925 96.6619 299.478 96.8608C299.03 97.0597 298.51 97.1591 297.917 97.1591C297.138 97.1591 296.493 96.9901 295.983 96.652C295.472 96.3139 295.149 95.8201 295.013 95.1705L296.127 94.892C296.233 95.303 296.433 95.6113 296.728 95.8168C297.027 96.0223 297.416 96.125 297.897 96.125C298.444 96.125 298.878 96.009 299.199 95.777C299.524 95.5417 299.686 95.2599 299.686 94.9318C299.686 94.6667 299.594 94.4446 299.408 94.2656C299.222 94.0833 298.937 93.9474 298.553 93.858L297.28 93.5597C296.581 93.3939 296.067 93.1371 295.739 92.7891C295.414 92.4377 295.252 91.9986 295.252 91.4716C295.252 91.0407 295.373 90.6596 295.615 90.3281C295.86 89.9967 296.193 89.7365 296.614 89.5476C297.038 89.3587 297.519 89.2642 298.056 89.2642C298.811 89.2642 299.405 89.4299 299.836 89.7614C300.27 90.0928 300.578 90.5303 300.76 91.0739ZM309.705 97.1591C309.016 97.1591 308.411 96.995 307.891 96.6669C307.374 96.3388 306.969 95.8797 306.678 95.2898C306.389 94.6998 306.245 94.0104 306.245 93.2216C306.245 92.4261 306.389 91.7318 306.678 91.1385C306.969 90.5452 307.374 90.0845 307.891 89.7564C308.411 89.4283 309.016 89.2642 309.705 89.2642C310.395 89.2642 310.998 89.4283 311.515 89.7564C312.035 90.0845 312.44 90.5452 312.728 91.1385C313.02 91.7318 313.166 92.4261 313.166 93.2216C313.166 94.0104 313.02 94.6998 312.728 95.2898C312.44 95.8797 312.035 96.3388 311.515 96.6669C310.998 96.995 310.395 97.1591 309.705 97.1591ZM309.705 96.1051C310.229 96.1051 310.66 95.9709 310.998 95.7024C311.336 95.4339 311.586 95.081 311.749 94.6435C311.911 94.206 311.992 93.732 311.992 93.2216C311.992 92.7112 311.911 92.2356 311.749 91.7947C311.586 91.3539 311.336 90.9976 310.998 90.7259C310.66 90.4541 310.229 90.3182 309.705 90.3182C309.182 90.3182 308.751 90.4541 308.413 90.7259C308.075 90.9976 307.825 91.3539 307.662 91.7947C307.5 92.2356 307.419 92.7112 307.419 93.2216C307.419 93.732 307.5 94.206 307.662 94.6435C307.825 95.081 308.075 95.4339 308.413 95.7024C308.751 95.9709 309.182 96.1051 309.705 96.1051ZM316.13 92.4062V97H314.957V89.3636H316.09V90.5568H316.19C316.369 90.169 316.64 89.8575 317.005 89.6222C317.37 89.3835 317.84 89.2642 318.417 89.2642C318.934 89.2642 319.386 89.3703 319.774 89.5824C320.162 89.7912 320.464 90.1094 320.679 90.5369C320.894 90.9612 321.002 91.4981 321.002 92.1477V97H319.829V92.2273C319.829 91.6274 319.673 91.16 319.362 90.8253C319.05 90.4872 318.622 90.3182 318.079 90.3182C317.704 90.3182 317.37 90.3994 317.075 90.5618C316.783 90.7242 316.553 90.9612 316.384 91.2727C316.214 91.5843 316.13 91.9621 316.13 92.4062ZM330.405 89.3636V90.358H326.447V89.3636H330.405ZM327.601 87.5341H328.774V94.8125C328.774 95.1439 328.822 95.3925 328.918 95.5582C329.018 95.7206 329.144 95.83 329.296 95.8864C329.452 95.9394 329.616 95.9659 329.788 95.9659C329.917 95.9659 330.023 95.9593 330.106 95.946C330.189 95.9295 330.256 95.9162 330.305 95.9062L330.544 96.9602C330.464 96.9901 330.353 97.0199 330.211 97.0497C330.068 97.0829 329.888 97.0994 329.669 97.0994C329.337 97.0994 329.013 97.0282 328.694 96.8857C328.38 96.7431 328.118 96.526 327.909 96.2344C327.703 95.9427 327.601 95.5748 327.601 95.1307V87.5341ZM335.19 97.1591C334.5 97.1591 333.896 96.995 333.375 96.6669C332.858 96.3388 332.454 95.8797 332.162 95.2898C331.874 94.6998 331.73 94.0104 331.73 93.2216C331.73 92.4261 331.874 91.7318 332.162 91.1385C332.454 90.5452 332.858 90.0845 333.375 89.7564C333.896 89.4283 334.5 89.2642 335.19 89.2642C335.879 89.2642 336.482 89.4283 336.999 89.7564C337.52 90.0845 337.924 90.5452 338.213 91.1385C338.504 91.7318 338.65 92.4261 338.65 93.2216C338.65 94.0104 338.504 94.6998 338.213 95.2898C337.924 95.8797 337.52 96.3388 336.999 96.6669C336.482 96.995 335.879 97.1591 335.19 97.1591ZM335.19 96.1051C335.713 96.1051 336.144 95.9709 336.482 95.7024C336.82 95.4339 337.071 95.081 337.233 94.6435C337.396 94.206 337.477 93.732 337.477 93.2216C337.477 92.7112 337.396 92.2356 337.233 91.7947C337.071 91.3539 336.82 90.9976 336.482 90.7259C336.144 90.4541 335.713 90.3182 335.19 90.3182C334.666 90.3182 334.235 90.4541 333.897 90.7259C333.559 90.9976 333.309 91.3539 333.146 91.7947C332.984 92.2356 332.903 92.7112 332.903 93.2216C332.903 93.732 332.984 94.206 333.146 94.6435C333.309 95.081 333.559 95.4339 333.897 95.7024C334.235 95.9709 334.666 96.1051 335.19 96.1051ZM345.552 86.8182V97H344.379V86.8182H345.552ZM350.903 97.1591C350.167 97.1591 349.532 96.9967 348.998 96.6719C348.468 96.3438 348.059 95.8864 347.77 95.2997C347.485 94.7098 347.343 94.0237 347.343 93.2415C347.343 92.4593 347.485 91.7699 347.77 91.1733C348.059 90.5734 348.46 90.1061 348.974 89.7713C349.491 89.4332 350.094 89.2642 350.783 89.2642C351.181 89.2642 351.574 89.3305 351.961 89.4631C352.349 89.5956 352.702 89.8111 353.02 90.1094C353.339 90.4044 353.592 90.7955 353.781 91.2827C353.97 91.7699 354.064 92.3698 354.064 93.0824V93.5795H348.178V92.5653H352.871C352.871 92.1345 352.785 91.75 352.613 91.4119C352.444 91.0739 352.202 90.8071 351.887 90.6115C351.575 90.416 351.207 90.3182 350.783 90.3182C350.316 90.3182 349.912 90.4342 349.57 90.6662C349.232 90.8949 348.972 91.1932 348.79 91.5611C348.607 91.929 348.516 92.3234 348.516 92.7443V93.4205C348.516 93.9972 348.616 94.486 348.814 94.8871C349.017 95.2848 349.297 95.5881 349.655 95.7969C350.013 96.0024 350.429 96.1051 350.903 96.1051C351.211 96.1051 351.489 96.062 351.738 95.9759C351.99 95.8864 352.207 95.7538 352.389 95.5781C352.571 95.3991 352.712 95.1771 352.812 94.9119L353.945 95.2301C353.826 95.6146 353.625 95.9527 353.344 96.2443C353.062 96.5327 352.714 96.758 352.3 96.9205C351.885 97.0795 351.42 97.1591 350.903 97.1591ZM358.096 97.179C357.613 97.179 357.173 97.0878 356.779 96.9055C356.385 96.7199 356.071 96.4531 355.839 96.1051C355.607 95.7538 355.491 95.3295 355.491 94.8324C355.491 94.3949 355.577 94.0402 355.75 93.7685C355.922 93.4934 356.153 93.2779 356.441 93.1222C356.729 92.9664 357.047 92.8504 357.395 92.7741C357.747 92.6946 358.1 92.6316 358.454 92.5852C358.918 92.5256 359.295 92.4808 359.583 92.451C359.875 92.4179 360.087 92.3632 360.219 92.2869C360.355 92.2107 360.423 92.0781 360.423 91.8892V91.8494C360.423 91.3589 360.289 90.9777 360.02 90.706C359.755 90.4342 359.353 90.2983 358.812 90.2983C358.252 90.2983 357.813 90.4209 357.495 90.6662C357.177 90.9115 356.953 91.1733 356.824 91.4517L355.71 91.054C355.909 90.59 356.174 90.2287 356.506 89.9702C356.84 89.7083 357.205 89.526 357.599 89.4233C357.997 89.3172 358.388 89.2642 358.773 89.2642C359.018 89.2642 359.3 89.294 359.618 89.3537C359.939 89.41 360.249 89.5277 360.547 89.7067C360.849 89.8857 361.099 90.1558 361.298 90.517C361.497 90.8783 361.596 91.3622 361.596 91.9688V97H360.423V95.9659H360.363C360.284 96.1316 360.151 96.3089 359.966 96.4979C359.78 96.6868 359.533 96.8475 359.225 96.9801C358.917 97.1127 358.541 97.179 358.096 97.179ZM358.275 96.125C358.739 96.125 359.131 96.0339 359.449 95.8516C359.77 95.6693 360.012 95.4339 360.175 95.1456C360.34 94.8572 360.423 94.554 360.423 94.2358V93.1619C360.373 93.2216 360.264 93.2763 360.095 93.326C359.929 93.3724 359.737 93.4138 359.518 93.4503C359.303 93.4834 359.092 93.5133 358.887 93.5398C358.685 93.563 358.521 93.5829 358.395 93.5994C358.09 93.6392 357.805 93.7038 357.54 93.7933C357.278 93.8795 357.066 94.0104 356.903 94.1861C356.744 94.3584 356.665 94.5937 356.665 94.892C356.665 95.2997 356.815 95.608 357.117 95.8168C357.422 96.0223 357.808 96.125 358.275 96.125ZM363.738 97V89.3636H364.871V90.517H364.951C365.09 90.1392 365.342 89.8326 365.707 89.5973C366.071 89.362 366.482 89.2443 366.94 89.2443C367.026 89.2443 367.134 89.246 367.263 89.2493C367.392 89.2526 367.49 89.2576 367.556 89.2642V90.4574C367.516 90.4474 367.425 90.4325 367.283 90.4126C367.143 90.3894 366.996 90.3778 366.84 90.3778C366.469 90.3778 366.138 90.4557 365.846 90.6115C365.558 90.764 365.329 90.9761 365.16 91.2479C364.994 91.5163 364.911 91.8229 364.911 92.1676V97H363.738ZM370.12 92.4062V97H368.947V89.3636H370.08V90.5568H370.18C370.359 90.169 370.631 89.8575 370.995 89.6222C371.36 89.3835 371.83 89.2642 372.407 89.2642C372.924 89.2642 373.377 89.3703 373.764 89.5824C374.152 89.7912 374.454 90.1094 374.669 90.5369C374.885 90.9612 374.992 91.4981 374.992 92.1477V97H373.819V92.2273C373.819 91.6274 373.663 91.16 373.352 90.8253C373.04 90.4872 372.613 90.3182 372.069 90.3182C371.695 90.3182 371.36 90.3994 371.065 90.5618C370.773 90.7242 370.543 90.9612 370.374 91.2727C370.205 91.5843 370.12 91.9621 370.12 92.4062ZM382.247 92.4062V97H381.074V86.8182H382.247V90.5568H382.347C382.526 90.1624 382.794 89.8492 383.152 89.6172C383.513 89.3819 383.994 89.2642 384.594 89.2642C385.114 89.2642 385.57 89.3686 385.961 89.5774C386.352 89.7829 386.655 90.0994 386.871 90.527C387.089 90.9512 387.199 91.4915 387.199 92.1477V97H386.026V92.2273C386.026 91.6207 385.868 91.1518 385.553 90.8203C385.242 90.4856 384.809 90.3182 384.256 90.3182C383.871 90.3182 383.527 90.3994 383.222 90.5618C382.92 90.7242 382.681 90.9612 382.506 91.2727C382.333 91.5843 382.247 91.9621 382.247 92.4062ZM392.448 97.1591C391.758 97.1591 391.153 96.995 390.633 96.6669C390.116 96.3388 389.712 95.8797 389.42 95.2898C389.132 94.6998 388.987 94.0104 388.987 93.2216C388.987 92.4261 389.132 91.7318 389.42 91.1385C389.712 90.5452 390.116 90.0845 390.633 89.7564C391.153 89.4283 391.758 89.2642 392.448 89.2642C393.137 89.2642 393.74 89.4283 394.257 89.7564C394.778 90.0845 395.182 90.5452 395.47 91.1385C395.762 91.7318 395.908 92.4261 395.908 93.2216C395.908 94.0104 395.762 94.6998 395.47 95.2898C395.182 95.8797 394.778 96.3388 394.257 96.6669C393.74 96.995 393.137 97.1591 392.448 97.1591ZM392.448 96.1051C392.971 96.1051 393.402 95.9709 393.74 95.7024C394.078 95.4339 394.329 95.081 394.491 94.6435C394.653 94.206 394.735 93.732 394.735 93.2216C394.735 92.7112 394.653 92.2356 394.491 91.7947C394.329 91.3539 394.078 90.9976 393.74 90.7259C393.402 90.4541 392.971 90.3182 392.448 90.3182C391.924 90.3182 391.493 90.4541 391.155 90.7259C390.817 90.9976 390.567 91.3539 390.404 91.7947C390.242 92.2356 390.161 92.7112 390.161 93.2216C390.161 93.732 390.242 94.206 390.404 94.6435C390.567 95.081 390.817 95.4339 391.155 95.7024C391.493 95.9709 391.924 96.1051 392.448 96.1051ZM399.169 97L396.843 89.3636H398.075L399.726 95.2102H399.806L401.436 89.3636H402.689L404.3 95.1903H404.379L406.03 89.3636H407.263L404.936 97H403.783L402.112 91.1335H401.993L400.323 97H399.169ZM104.395 110.364V111.358H100.438V110.364H104.395ZM101.591 108.534H102.764V115.812C102.764 116.144 102.812 116.393 102.908 116.558C103.008 116.721 103.134 116.83 103.286 116.886C103.442 116.939 103.606 116.966 103.778 116.966C103.908 116.966 104.014 116.959 104.097 116.946C104.179 116.929 104.246 116.916 104.295 116.906L104.534 117.96C104.455 117.99 104.344 118.02 104.201 118.05C104.058 118.083 103.878 118.099 103.659 118.099C103.328 118.099 103.003 118.028 102.685 117.886C102.37 117.743 102.108 117.526 101.899 117.234C101.694 116.943 101.591 116.575 101.591 116.131V108.534ZM109.18 118.159C108.491 118.159 107.886 117.995 107.365 117.667C106.848 117.339 106.444 116.88 106.152 116.29C105.864 115.7 105.72 115.01 105.72 114.222C105.72 113.426 105.864 112.732 106.152 112.138C106.444 111.545 106.848 111.085 107.365 110.756C107.886 110.428 108.491 110.264 109.18 110.264C109.869 110.264 110.473 110.428 110.99 110.756C111.51 111.085 111.914 111.545 112.203 112.138C112.494 112.732 112.64 113.426 112.64 114.222C112.64 115.01 112.494 115.7 112.203 116.29C111.914 116.88 111.51 117.339 110.99 117.667C110.473 117.995 109.869 118.159 109.18 118.159ZM109.18 117.105C109.704 117.105 110.135 116.971 110.473 116.702C110.811 116.434 111.061 116.081 111.223 115.643C111.386 115.206 111.467 114.732 111.467 114.222C111.467 113.711 111.386 113.236 111.223 112.795C111.061 112.354 110.811 111.998 110.473 111.726C110.135 111.454 109.704 111.318 109.18 111.318C108.656 111.318 108.225 111.454 107.887 111.726C107.549 111.998 107.299 112.354 107.137 112.795C106.974 113.236 106.893 113.711 106.893 114.222C106.893 114.732 106.974 115.206 107.137 115.643C107.299 116.081 107.549 116.434 107.887 116.702C108.225 116.971 108.656 117.105 109.18 117.105ZM123.778 112.074L122.724 112.372C122.658 112.196 122.56 112.026 122.431 111.86C122.305 111.691 122.132 111.552 121.914 111.442C121.695 111.333 121.415 111.278 121.073 111.278C120.606 111.278 120.217 111.386 119.905 111.602C119.597 111.814 119.443 112.084 119.443 112.412C119.443 112.704 119.549 112.934 119.761 113.103C119.973 113.272 120.304 113.413 120.755 113.526L121.889 113.804C122.571 113.97 123.08 114.223 123.415 114.565C123.75 114.903 123.917 115.339 123.917 115.872C123.917 116.31 123.791 116.701 123.539 117.045C123.291 117.39 122.943 117.662 122.495 117.861C122.048 118.06 121.527 118.159 120.934 118.159C120.155 118.159 119.511 117.99 119 117.652C118.49 117.314 118.167 116.82 118.031 116.17L119.144 115.892C119.25 116.303 119.451 116.611 119.746 116.817C120.044 117.022 120.434 117.125 120.914 117.125C121.461 117.125 121.895 117.009 122.217 116.777C122.542 116.542 122.704 116.26 122.704 115.932C122.704 115.667 122.611 115.445 122.426 115.266C122.24 115.083 121.955 114.947 121.57 114.858L120.298 114.56C119.598 114.394 119.085 114.137 118.757 113.789C118.432 113.438 118.269 112.999 118.269 112.472C118.269 112.041 118.39 111.66 118.632 111.328C118.878 110.997 119.211 110.737 119.632 110.548C120.056 110.359 120.536 110.264 121.073 110.264C121.829 110.264 122.422 110.43 122.853 110.761C123.287 111.093 123.596 111.53 123.778 112.074ZM130.496 114.878V110.364H131.669V118H130.496V116.707H130.416C130.237 117.095 129.959 117.425 129.581 117.697C129.203 117.965 128.726 118.099 128.149 118.099C127.672 118.099 127.248 117.995 126.876 117.786C126.505 117.574 126.214 117.256 126.001 116.832C125.789 116.404 125.683 115.866 125.683 115.216V110.364H126.857V115.136C126.857 115.693 127.012 116.137 127.324 116.469C127.639 116.8 128.04 116.966 128.527 116.966C128.819 116.966 129.115 116.891 129.417 116.742C129.722 116.593 129.977 116.364 130.183 116.056C130.391 115.748 130.496 115.355 130.496 114.878ZM133.818 120.864V110.364H134.952V111.577H135.091C135.177 111.444 135.296 111.275 135.449 111.07C135.604 110.861 135.827 110.675 136.115 110.513C136.407 110.347 136.801 110.264 137.298 110.264C137.941 110.264 138.508 110.425 138.998 110.746C139.489 111.068 139.872 111.524 140.147 112.114C140.422 112.704 140.559 113.4 140.559 114.202C140.559 115.01 140.422 115.711 140.147 116.305C139.872 116.895 139.491 117.352 139.003 117.677C138.516 117.998 137.954 118.159 137.318 118.159C136.827 118.159 136.435 118.078 136.14 117.915C135.845 117.75 135.618 117.562 135.459 117.354C135.3 117.142 135.177 116.966 135.091 116.827H134.991V120.864H133.818ZM134.971 114.182C134.971 114.759 135.056 115.267 135.225 115.708C135.394 116.146 135.641 116.489 135.966 116.737C136.291 116.982 136.688 117.105 137.159 117.105C137.649 117.105 138.059 116.976 138.387 116.717C138.718 116.455 138.967 116.104 139.133 115.663C139.302 115.219 139.386 114.725 139.386 114.182C139.386 113.645 139.303 113.161 139.138 112.73C138.975 112.296 138.728 111.953 138.397 111.701C138.069 111.446 137.656 111.318 137.159 111.318C136.682 111.318 136.281 111.439 135.956 111.681C135.631 111.92 135.386 112.254 135.22 112.685C135.054 113.113 134.971 113.612 134.971 114.182ZM142.349 120.864V110.364H143.483V111.577H143.622C143.708 111.444 143.827 111.275 143.98 111.07C144.136 110.861 144.358 110.675 144.646 110.513C144.938 110.347 145.332 110.264 145.829 110.264C146.472 110.264 147.039 110.425 147.53 110.746C148.02 111.068 148.403 111.524 148.678 112.114C148.953 112.704 149.091 113.4 149.091 114.202C149.091 115.01 148.953 115.711 148.678 116.305C148.403 116.895 148.022 117.352 147.535 117.677C147.047 117.998 146.486 118.159 145.849 118.159C145.359 118.159 144.966 118.078 144.671 117.915C144.376 117.75 144.149 117.562 143.99 117.354C143.831 117.142 143.708 116.966 143.622 116.827H143.523V120.864H142.349ZM143.503 114.182C143.503 114.759 143.587 115.267 143.756 115.708C143.925 116.146 144.172 116.489 144.497 116.737C144.822 116.982 145.22 117.105 145.69 117.105C146.181 117.105 146.59 116.976 146.918 116.717C147.25 116.455 147.498 116.104 147.664 115.663C147.833 115.219 147.917 114.725 147.917 114.182C147.917 113.645 147.835 113.161 147.669 112.73C147.506 112.296 147.26 111.953 146.928 111.701C146.6 111.446 146.187 111.318 145.69 111.318C145.213 111.318 144.812 111.439 144.487 111.681C144.162 111.92 143.917 112.254 143.751 112.685C143.586 113.113 143.503 113.612 143.503 114.182ZM153.983 118.159C153.293 118.159 152.689 117.995 152.168 117.667C151.651 117.339 151.247 116.88 150.955 116.29C150.667 115.7 150.523 115.01 150.523 114.222C150.523 113.426 150.667 112.732 150.955 112.138C151.247 111.545 151.651 111.085 152.168 110.756C152.689 110.428 153.293 110.264 153.983 110.264C154.672 110.264 155.275 110.428 155.792 110.756C156.313 111.085 156.717 111.545 157.006 112.138C157.297 112.732 157.443 113.426 157.443 114.222C157.443 115.01 157.297 115.7 157.006 116.29C156.717 116.88 156.313 117.339 155.792 117.667C155.275 117.995 154.672 118.159 153.983 118.159ZM153.983 117.105C154.506 117.105 154.937 116.971 155.275 116.702C155.613 116.434 155.864 116.081 156.026 115.643C156.189 115.206 156.27 114.732 156.27 114.222C156.27 113.711 156.189 113.236 156.026 112.795C155.864 112.354 155.613 111.998 155.275 111.726C154.937 111.454 154.506 111.318 153.983 111.318C153.459 111.318 153.028 111.454 152.69 111.726C152.352 111.998 152.102 112.354 151.939 112.795C151.777 113.236 151.696 113.711 151.696 114.222C151.696 114.732 151.777 115.206 151.939 115.643C152.102 116.081 152.352 116.434 152.69 116.702C153.028 116.971 153.459 117.105 153.983 117.105ZM159.234 118V110.364H160.368V111.517H160.447C160.586 111.139 160.838 110.833 161.203 110.597C161.567 110.362 161.978 110.244 162.436 110.244C162.522 110.244 162.63 110.246 162.759 110.249C162.888 110.253 162.986 110.258 163.052 110.264V111.457C163.012 111.447 162.921 111.433 162.779 111.413C162.64 111.389 162.492 111.378 162.336 111.378C161.965 111.378 161.634 111.456 161.342 111.612C161.054 111.764 160.825 111.976 160.656 112.248C160.49 112.516 160.407 112.823 160.407 113.168V118H159.234ZM168.243 110.364V111.358H164.285V110.364H168.243ZM165.439 108.534H166.612V115.812C166.612 116.144 166.66 116.393 166.756 116.558C166.855 116.721 166.981 116.83 167.134 116.886C167.29 116.939 167.454 116.966 167.626 116.966C167.755 116.966 167.861 116.959 167.944 116.946C168.027 116.929 168.093 116.916 168.143 116.906L168.382 117.96C168.302 117.99 168.191 118.02 168.049 118.05C167.906 118.083 167.725 118.099 167.507 118.099C167.175 118.099 166.85 118.028 166.532 117.886C166.217 117.743 165.956 117.526 165.747 117.234C165.541 116.943 165.439 116.575 165.439 116.131V108.534ZM174.701 120.864C174.502 120.864 174.324 120.847 174.169 120.814C174.013 120.784 173.905 120.754 173.846 120.724L174.144 119.69C174.429 119.763 174.681 119.79 174.9 119.77C175.118 119.75 175.312 119.652 175.481 119.477C175.654 119.304 175.811 119.024 175.953 118.636L176.172 118.04L173.348 110.364H174.621L176.729 116.449H176.809L178.917 110.364H180.189L176.948 119.114C176.802 119.508 176.621 119.835 176.406 120.093C176.19 120.355 175.94 120.549 175.655 120.675C175.373 120.801 175.055 120.864 174.701 120.864ZM184.567 118.159C183.877 118.159 183.272 117.995 182.752 117.667C182.235 117.339 181.831 116.88 181.539 116.29C181.251 115.7 181.107 115.01 181.107 114.222C181.107 113.426 181.251 112.732 181.539 112.138C181.831 111.545 182.235 111.085 182.752 110.756C183.272 110.428 183.877 110.264 184.567 110.264C185.256 110.264 185.859 110.428 186.376 110.756C186.897 111.085 187.301 111.545 187.589 112.138C187.881 112.732 188.027 113.426 188.027 114.222C188.027 115.01 187.881 115.7 187.589 116.29C187.301 116.88 186.897 117.339 186.376 117.667C185.859 117.995 185.256 118.159 184.567 118.159ZM184.567 117.105C185.09 117.105 185.521 116.971 185.859 116.702C186.197 116.434 186.448 116.081 186.61 115.643C186.772 115.206 186.854 114.732 186.854 114.222C186.854 113.711 186.772 113.236 186.61 112.795C186.448 112.354 186.197 111.998 185.859 111.726C185.521 111.454 185.09 111.318 184.567 111.318C184.043 111.318 183.612 111.454 183.274 111.726C182.936 111.998 182.686 112.354 182.523 112.795C182.361 113.236 182.28 113.711 182.28 114.222C182.28 114.732 182.361 115.206 182.523 115.643C182.686 116.081 182.936 116.434 183.274 116.702C183.612 116.971 184.043 117.105 184.567 117.105ZM194.631 114.878V110.364H195.804V118H194.631V116.707H194.551C194.372 117.095 194.094 117.425 193.716 117.697C193.338 117.965 192.861 118.099 192.284 118.099C191.807 118.099 191.382 117.995 191.011 117.786C190.64 117.574 190.348 117.256 190.136 116.832C189.924 116.404 189.818 115.866 189.818 115.216V110.364H190.991V115.136C190.991 115.693 191.147 116.137 191.459 116.469C191.773 116.8 192.175 116.966 192.662 116.966C192.953 116.966 193.25 116.891 193.552 116.742C193.857 116.593 194.112 116.364 194.317 116.056C194.526 115.748 194.631 115.355 194.631 114.878ZM197.953 118V110.364H199.086V111.517H199.166C199.305 111.139 199.557 110.833 199.922 110.597C200.286 110.362 200.697 110.244 201.154 110.244C201.241 110.244 201.348 110.246 201.478 110.249C201.607 110.253 201.705 110.258 201.771 110.264V111.457C201.731 111.447 201.64 111.433 201.498 111.413C201.358 111.389 201.211 111.378 201.055 111.378C200.684 111.378 200.352 111.456 200.061 111.612C199.772 111.764 199.544 111.976 199.375 112.248C199.209 112.516 199.126 112.823 199.126 113.168V118H197.953ZM210.202 118.159C209.486 118.159 208.869 117.99 208.352 117.652C207.835 117.314 207.437 116.848 207.159 116.255C206.881 115.662 206.741 114.984 206.741 114.222C206.741 113.446 206.884 112.762 207.169 112.168C207.457 111.572 207.858 111.106 208.372 110.771C208.889 110.433 209.492 110.264 210.182 110.264C210.719 110.264 211.202 110.364 211.633 110.562C212.064 110.761 212.417 111.04 212.692 111.398C212.967 111.756 213.138 112.173 213.204 112.651H212.031C211.942 112.303 211.743 111.994 211.434 111.726C211.13 111.454 210.719 111.318 210.202 111.318C209.744 111.318 209.343 111.437 208.998 111.676C208.657 111.911 208.39 112.245 208.198 112.675C208.009 113.103 207.915 113.605 207.915 114.182C207.915 114.772 208.007 115.286 208.193 115.723C208.382 116.161 208.647 116.5 208.988 116.742C209.333 116.984 209.738 117.105 210.202 117.105C210.506 117.105 210.783 117.052 211.032 116.946C211.28 116.84 211.491 116.688 211.663 116.489C211.836 116.29 211.958 116.051 212.031 115.773H213.204C213.138 116.223 212.974 116.629 212.712 116.991C212.454 117.349 212.111 117.634 211.683 117.846C211.259 118.055 210.765 118.159 210.202 118.159ZM216.093 113.406V118H214.92V107.818H216.093V111.557H216.192C216.371 111.162 216.64 110.849 216.998 110.617C217.359 110.382 217.84 110.264 218.439 110.264C218.96 110.264 219.416 110.369 219.807 110.577C220.198 110.783 220.501 111.099 220.716 111.527C220.935 111.951 221.045 112.491 221.045 113.148V118H219.871V113.227C219.871 112.621 219.714 112.152 219.399 111.82C219.087 111.486 218.655 111.318 218.101 111.318C217.717 111.318 217.372 111.399 217.067 111.562C216.766 111.724 216.527 111.961 216.351 112.273C216.179 112.584 216.093 112.962 216.093 113.406ZM223.191 118V110.364H224.364V118H223.191ZM223.788 109.091C223.559 109.091 223.362 109.013 223.196 108.857C223.034 108.701 222.952 108.514 222.952 108.295C222.952 108.077 223.034 107.889 223.196 107.734C223.362 107.578 223.559 107.5 223.788 107.5C224.016 107.5 224.212 107.578 224.374 107.734C224.54 107.889 224.623 108.077 224.623 108.295C224.623 108.514 224.54 108.701 224.374 108.857C224.212 109.013 224.016 109.091 223.788 109.091ZM227.687 107.818V118H226.513V107.818H227.687ZM232.719 118.159C232.083 118.159 231.521 117.998 231.034 117.677C230.547 117.352 230.165 116.895 229.89 116.305C229.615 115.711 229.478 115.01 229.478 114.202C229.478 113.4 229.615 112.704 229.89 112.114C230.165 111.524 230.548 111.068 231.039 110.746C231.529 110.425 232.096 110.264 232.739 110.264C233.236 110.264 233.629 110.347 233.917 110.513C234.209 110.675 234.431 110.861 234.583 111.07C234.739 111.275 234.86 111.444 234.946 111.577H235.046V107.818H236.219V118H235.086V116.827H234.946C234.86 116.966 234.738 117.142 234.578 117.354C234.419 117.562 234.192 117.75 233.897 117.915C233.602 118.078 233.21 118.159 232.719 118.159ZM232.878 117.105C233.349 117.105 233.747 116.982 234.071 116.737C234.396 116.489 234.643 116.146 234.812 115.708C234.981 115.267 235.066 114.759 235.066 114.182C235.066 113.612 234.983 113.113 234.817 112.685C234.651 112.254 234.406 111.92 234.081 111.681C233.757 111.439 233.355 111.318 232.878 111.318C232.381 111.318 231.967 111.446 231.635 111.701C231.307 111.953 231.06 112.296 230.895 112.73C230.732 113.161 230.651 113.645 230.651 114.182C230.651 114.725 230.734 115.219 230.9 115.663C231.069 116.104 231.317 116.455 231.645 116.717C231.977 116.976 232.388 117.105 232.878 117.105ZM239.386 118.08C239.141 118.08 238.93 117.992 238.755 117.816C238.579 117.64 238.491 117.43 238.491 117.185C238.491 116.939 238.579 116.729 238.755 116.553C238.93 116.378 239.141 116.29 239.386 116.29C239.631 116.29 239.842 116.378 240.017 116.553C240.193 116.729 240.281 116.939 240.281 117.185C240.281 117.347 240.239 117.496 240.157 117.632C240.077 117.768 239.969 117.877 239.833 117.96C239.701 118.04 239.552 118.08 239.386 118.08ZM245.926 108.912V107.818H253.562V108.912H250.361V118H249.128V108.912H245.926ZM256.48 113.406V118H255.306V107.818H256.48V111.557H256.579C256.758 111.162 257.026 110.849 257.384 110.617C257.746 110.382 258.226 110.264 258.826 110.264C259.347 110.264 259.802 110.369 260.193 110.577C260.584 110.783 260.888 111.099 261.103 111.527C261.322 111.951 261.431 112.491 261.431 113.148V118H260.258V113.227C260.258 112.621 260.101 112.152 259.786 111.82C259.474 111.486 259.042 111.318 258.488 111.318C258.104 111.318 257.759 111.399 257.454 111.562C257.152 111.724 256.914 111.961 256.738 112.273C256.566 112.584 256.48 112.962 256.48 113.406ZM263.578 118V110.364H264.751V118H263.578ZM264.174 109.091C263.946 109.091 263.748 109.013 263.583 108.857C263.42 108.701 263.339 108.514 263.339 108.295C263.339 108.077 263.42 107.889 263.583 107.734C263.748 107.578 263.946 107.5 264.174 107.5C264.403 107.5 264.599 107.578 264.761 107.734C264.927 107.889 265.01 108.077 265.01 108.295C265.01 108.514 264.927 108.701 264.761 108.857C264.599 109.013 264.403 109.091 264.174 109.091ZM272.309 112.074L271.255 112.372C271.189 112.196 271.091 112.026 270.962 111.86C270.836 111.691 270.664 111.552 270.445 111.442C270.226 111.333 269.946 111.278 269.605 111.278C269.137 111.278 268.748 111.386 268.436 111.602C268.128 111.814 267.974 112.084 267.974 112.412C267.974 112.704 268.08 112.934 268.292 113.103C268.504 113.272 268.836 113.413 269.286 113.526L270.42 113.804C271.103 113.97 271.611 114.223 271.946 114.565C272.281 114.903 272.448 115.339 272.448 115.872C272.448 116.31 272.322 116.701 272.07 117.045C271.822 117.39 271.474 117.662 271.026 117.861C270.579 118.06 270.059 118.159 269.465 118.159C268.686 118.159 268.042 117.99 267.531 117.652C267.021 117.314 266.698 116.82 266.562 116.17L267.676 115.892C267.782 116.303 267.982 116.611 268.277 116.817C268.575 117.022 268.965 117.125 269.445 117.125C269.992 117.125 270.427 117.009 270.748 116.777C271.073 116.542 271.235 116.26 271.235 115.932C271.235 115.667 271.142 115.445 270.957 115.266C270.771 115.083 270.486 114.947 270.102 114.858L268.829 114.56C268.13 114.394 267.616 114.137 267.288 113.789C266.963 113.438 266.801 112.999 266.801 112.472C266.801 112.041 266.922 111.66 267.164 111.328C267.409 110.997 267.742 110.737 268.163 110.548C268.587 110.359 269.068 110.264 269.605 110.264C270.36 110.264 270.954 110.43 271.384 110.761C271.819 111.093 272.127 111.53 272.309 112.074ZM278.152 118V110.364H279.325V118H278.152ZM278.749 109.091C278.52 109.091 278.323 109.013 278.157 108.857C277.995 108.701 277.913 108.514 277.913 108.295C277.913 108.077 277.995 107.889 278.157 107.734C278.323 107.578 278.52 107.5 278.749 107.5C278.977 107.5 279.173 107.578 279.335 107.734C279.501 107.889 279.584 108.077 279.584 108.295C279.584 108.514 279.501 108.701 279.335 108.857C279.173 109.013 278.977 109.091 278.749 109.091ZM286.883 112.074L285.829 112.372C285.763 112.196 285.665 112.026 285.536 111.86C285.41 111.691 285.238 111.552 285.019 111.442C284.8 111.333 284.52 111.278 284.179 111.278C283.711 111.278 283.322 111.386 283.01 111.602C282.702 111.814 282.548 112.084 282.548 112.412C282.548 112.704 282.654 112.934 282.866 113.103C283.078 113.272 283.41 113.413 283.861 113.526L284.994 113.804C285.677 113.97 286.186 114.223 286.52 114.565C286.855 114.903 287.023 115.339 287.023 115.872C287.023 116.31 286.897 116.701 286.645 117.045C286.396 117.39 286.048 117.662 285.601 117.861C285.153 118.06 284.633 118.159 284.04 118.159C283.261 118.159 282.616 117.99 282.106 117.652C281.595 117.314 281.272 116.82 281.136 116.17L282.25 115.892C282.356 116.303 282.556 116.611 282.851 116.817C283.15 117.022 283.539 117.125 284.02 117.125C284.567 117.125 285.001 117.009 285.322 116.777C285.647 116.542 285.809 116.26 285.809 115.932C285.809 115.667 285.717 115.445 285.531 115.266C285.345 115.083 285.06 114.947 284.676 114.858L283.403 114.56C282.704 114.394 282.19 114.137 281.862 113.789C281.537 113.438 281.375 112.999 281.375 112.472C281.375 112.041 281.496 111.66 281.738 111.328C281.983 110.997 282.316 110.737 282.737 110.548C283.161 110.359 283.642 110.264 284.179 110.264C284.934 110.264 285.528 110.43 285.959 110.761C286.393 111.093 286.701 111.53 286.883 112.074ZM294.973 118.179C294.489 118.179 294.05 118.088 293.656 117.906C293.261 117.72 292.948 117.453 292.716 117.105C292.484 116.754 292.368 116.33 292.368 115.832C292.368 115.395 292.454 115.04 292.627 114.768C292.799 114.493 293.029 114.278 293.318 114.122C293.606 113.966 293.924 113.85 294.272 113.774C294.624 113.695 294.977 113.632 295.331 113.585C295.795 113.526 296.172 113.481 296.46 113.451C296.752 113.418 296.964 113.363 297.096 113.287C297.232 113.211 297.3 113.078 297.3 112.889V112.849C297.3 112.359 297.166 111.978 296.897 111.706C296.632 111.434 296.23 111.298 295.689 111.298C295.129 111.298 294.69 111.421 294.372 111.666C294.054 111.911 293.83 112.173 293.701 112.452L292.587 112.054C292.786 111.59 293.051 111.229 293.382 110.97C293.717 110.708 294.082 110.526 294.476 110.423C294.874 110.317 295.265 110.264 295.65 110.264C295.895 110.264 296.176 110.294 296.495 110.354C296.816 110.41 297.126 110.528 297.424 110.707C297.726 110.886 297.976 111.156 298.175 111.517C298.374 111.878 298.473 112.362 298.473 112.969V118H297.3V116.966H297.24C297.161 117.132 297.028 117.309 296.843 117.498C296.657 117.687 296.41 117.848 296.102 117.98C295.794 118.113 295.417 118.179 294.973 118.179ZM295.152 117.125C295.616 117.125 296.007 117.034 296.326 116.852C296.647 116.669 296.889 116.434 297.051 116.146C297.217 115.857 297.3 115.554 297.3 115.236V114.162C297.25 114.222 297.141 114.276 296.972 114.326C296.806 114.372 296.614 114.414 296.395 114.45C296.18 114.483 295.969 114.513 295.764 114.54C295.562 114.563 295.398 114.583 295.272 114.599C294.967 114.639 294.682 114.704 294.417 114.793C294.155 114.879 293.943 115.01 293.78 115.186C293.621 115.358 293.542 115.594 293.542 115.892C293.542 116.3 293.692 116.608 293.994 116.817C294.299 117.022 294.685 117.125 295.152 117.125ZM301.788 113.406V118H300.615V110.364H301.748V111.557H301.848C302.027 111.169 302.299 110.857 302.663 110.622C303.028 110.384 303.498 110.264 304.075 110.264C304.592 110.264 305.045 110.37 305.432 110.582C305.82 110.791 306.122 111.109 306.337 111.537C306.553 111.961 306.66 112.498 306.66 113.148V118H305.487V113.227C305.487 112.627 305.331 112.16 305.02 111.825C304.708 111.487 304.281 111.318 303.737 111.318C303.363 111.318 303.028 111.399 302.733 111.562C302.441 111.724 302.211 111.961 302.042 112.273C301.873 112.584 301.788 112.962 301.788 113.406ZM315.944 118.159C315.208 118.159 314.573 117.997 314.039 117.672C313.509 117.344 313.1 116.886 312.811 116.3C312.526 115.71 312.384 115.024 312.384 114.241C312.384 113.459 312.526 112.77 312.811 112.173C313.1 111.573 313.501 111.106 314.015 110.771C314.532 110.433 315.135 110.264 315.824 110.264C316.222 110.264 316.615 110.33 317.002 110.463C317.39 110.596 317.743 110.811 318.061 111.109C318.38 111.404 318.633 111.795 318.822 112.283C319.011 112.77 319.105 113.37 319.105 114.082V114.58H313.219V113.565H317.912C317.912 113.134 317.826 112.75 317.654 112.412C317.485 112.074 317.243 111.807 316.928 111.612C316.616 111.416 316.248 111.318 315.824 111.318C315.357 111.318 314.953 111.434 314.611 111.666C314.273 111.895 314.013 112.193 313.831 112.561C313.648 112.929 313.557 113.323 313.557 113.744V114.42C313.557 114.997 313.657 115.486 313.855 115.887C314.058 116.285 314.338 116.588 314.696 116.797C315.054 117.002 315.47 117.105 315.944 117.105C316.252 117.105 316.53 117.062 316.779 116.976C317.031 116.886 317.248 116.754 317.43 116.578C317.612 116.399 317.753 116.177 317.853 115.912L318.986 116.23C318.867 116.615 318.666 116.953 318.385 117.244C318.103 117.533 317.755 117.758 317.341 117.92C316.926 118.08 316.461 118.159 315.944 118.159ZM321.56 110.364L323.39 113.486L325.219 110.364H326.572L324.106 114.182L326.572 118H325.219L323.39 115.037L321.56 118H320.208L322.634 114.182L320.208 110.364H321.56ZM330.493 118.179C330.009 118.179 329.57 118.088 329.175 117.906C328.781 117.72 328.468 117.453 328.236 117.105C328.004 116.754 327.888 116.33 327.888 115.832C327.888 115.395 327.974 115.04 328.146 114.768C328.319 114.493 328.549 114.278 328.837 114.122C329.126 113.966 329.444 113.85 329.792 113.774C330.143 113.695 330.496 113.632 330.851 113.585C331.315 113.526 331.691 113.481 331.979 113.451C332.271 113.418 332.483 113.363 332.616 113.287C332.752 113.211 332.82 113.078 332.82 112.889V112.849C332.82 112.359 332.685 111.978 332.417 111.706C332.152 111.434 331.749 111.298 331.209 111.298C330.649 111.298 330.21 111.421 329.891 111.666C329.573 111.911 329.349 112.173 329.22 112.452L328.107 112.054C328.305 111.59 328.571 111.229 328.902 110.97C329.237 110.708 329.601 110.526 329.996 110.423C330.393 110.317 330.785 110.264 331.169 110.264C331.414 110.264 331.696 110.294 332.014 110.354C332.336 110.41 332.646 110.528 332.944 110.707C333.246 110.886 333.496 111.156 333.695 111.517C333.893 111.878 333.993 112.362 333.993 112.969V118H332.82V116.966H332.76C332.68 117.132 332.548 117.309 332.362 117.498C332.177 117.687 331.93 117.848 331.621 117.98C331.313 118.113 330.937 118.179 330.493 118.179ZM330.672 117.125C331.136 117.125 331.527 117.034 331.845 116.852C332.167 116.669 332.409 116.434 332.571 116.146C332.737 115.857 332.82 115.554 332.82 115.236V114.162C332.77 114.222 332.661 114.276 332.491 114.326C332.326 114.372 332.134 114.414 331.915 114.45C331.699 114.483 331.489 114.513 331.283 114.54C331.081 114.563 330.917 114.583 330.791 114.599C330.486 114.639 330.201 114.704 329.936 114.793C329.674 114.879 329.462 115.01 329.3 115.186C329.141 115.358 329.061 115.594 329.061 115.892C329.061 116.3 329.212 116.608 329.513 116.817C329.818 117.022 330.205 117.125 330.672 117.125ZM336.134 118V110.364H337.268V111.557H337.367C337.526 111.149 337.783 110.833 338.138 110.607C338.493 110.379 338.919 110.264 339.416 110.264C339.919 110.264 340.339 110.379 340.673 110.607C341.012 110.833 341.275 111.149 341.464 111.557H341.544C341.739 111.162 342.032 110.849 342.423 110.617C342.815 110.382 343.284 110.264 343.83 110.264C344.513 110.264 345.072 110.478 345.506 110.906C345.94 111.33 346.157 111.991 346.157 112.889V118H344.984V112.889C344.984 112.326 344.83 111.923 344.521 111.681C344.213 111.439 343.85 111.318 343.433 111.318C342.896 111.318 342.48 111.481 342.185 111.805C341.89 112.127 341.742 112.535 341.742 113.028V118H340.549V112.77C340.549 112.336 340.408 111.986 340.127 111.721C339.845 111.452 339.482 111.318 339.038 111.318C338.733 111.318 338.448 111.399 338.183 111.562C337.921 111.724 337.709 111.95 337.546 112.238C337.387 112.523 337.308 112.853 337.308 113.227V118H336.134ZM348.302 120.864V110.364H349.436V111.577H349.575C349.661 111.444 349.781 111.275 349.933 111.07C350.089 110.861 350.311 110.675 350.599 110.513C350.891 110.347 351.285 110.264 351.782 110.264C352.425 110.264 352.992 110.425 353.483 110.746C353.973 111.068 354.356 111.524 354.631 112.114C354.906 112.704 355.044 113.4 355.044 114.202C355.044 115.01 354.906 115.711 354.631 116.305C354.356 116.895 353.975 117.352 353.488 117.677C353.001 117.998 352.439 118.159 351.802 118.159C351.312 118.159 350.919 118.078 350.624 117.915C350.329 117.75 350.102 117.562 349.943 117.354C349.784 117.142 349.661 116.966 349.575 116.827H349.476V120.864H348.302ZM349.456 114.182C349.456 114.759 349.54 115.267 349.709 115.708C349.878 116.146 350.125 116.489 350.45 116.737C350.775 116.982 351.173 117.105 351.643 117.105C352.134 117.105 352.543 116.976 352.871 116.717C353.203 116.455 353.451 116.104 353.617 115.663C353.786 115.219 353.871 114.725 353.871 114.182C353.871 113.645 353.788 113.161 353.622 112.73C353.46 112.296 353.213 111.953 352.881 111.701C352.553 111.446 352.14 111.318 351.643 111.318C351.166 111.318 350.765 111.439 350.44 111.681C350.115 111.92 349.87 112.254 349.704 112.685C349.539 113.113 349.456 113.612 349.456 114.182ZM358.007 107.818V118H356.834V107.818H358.007ZM363.358 118.159C362.622 118.159 361.987 117.997 361.453 117.672C360.923 117.344 360.514 116.886 360.225 116.3C359.94 115.71 359.798 115.024 359.798 114.241C359.798 113.459 359.94 112.77 360.225 112.173C360.514 111.573 360.915 111.106 361.429 110.771C361.946 110.433 362.549 110.264 363.238 110.264C363.636 110.264 364.029 110.33 364.417 110.463C364.804 110.596 365.157 110.811 365.475 111.109C365.794 111.404 366.047 111.795 366.236 112.283C366.425 112.77 366.52 113.37 366.52 114.082V114.58H360.633V113.565H365.326C365.326 113.134 365.24 112.75 365.068 112.412C364.899 112.074 364.657 111.807 364.342 111.612C364.03 111.416 363.663 111.318 363.238 111.318C362.771 111.318 362.367 111.434 362.025 111.666C361.687 111.895 361.427 112.193 361.245 112.561C361.062 112.929 360.971 113.323 360.971 113.744V114.42C360.971 114.997 361.071 115.486 361.27 115.887C361.472 116.285 361.752 116.588 362.11 116.797C362.468 117.002 362.884 117.105 363.358 117.105C363.666 117.105 363.944 117.062 364.193 116.976C364.445 116.886 364.662 116.754 364.844 116.578C365.026 116.399 365.167 116.177 365.267 115.912L366.4 116.23C366.281 116.615 366.08 116.953 365.799 117.244C365.517 117.533 365.169 117.758 364.755 117.92C364.34 118.08 363.875 118.159 363.358 118.159ZM373.415 107.818V118H372.242V107.818H373.415ZM378.666 118.159C377.977 118.159 377.372 117.995 376.852 117.667C376.335 117.339 375.93 116.88 375.639 116.29C375.35 115.7 375.206 115.01 375.206 114.222C375.206 113.426 375.35 112.732 375.639 112.138C375.93 111.545 376.335 111.085 376.852 110.756C377.372 110.428 377.977 110.264 378.666 110.264C379.356 110.264 379.959 110.428 380.476 110.756C380.996 111.085 381.401 111.545 381.689 112.138C381.981 112.732 382.127 113.426 382.127 114.222C382.127 115.01 381.981 115.7 381.689 116.29C381.401 116.88 380.996 117.339 380.476 117.667C379.959 117.995 379.356 118.159 378.666 118.159ZM378.666 117.105C379.19 117.105 379.621 116.971 379.959 116.702C380.297 116.434 380.547 116.081 380.71 115.643C380.872 115.206 380.953 114.732 380.953 114.222C380.953 113.711 380.872 113.236 380.71 112.795C380.547 112.354 380.297 111.998 379.959 111.726C379.621 111.454 379.19 111.318 378.666 111.318C378.143 111.318 377.712 111.454 377.374 111.726C377.036 111.998 376.785 112.354 376.623 112.795C376.461 113.236 376.379 113.711 376.379 114.222C376.379 114.732 376.461 115.206 376.623 115.643C376.785 116.081 377.036 116.434 377.374 116.702C377.712 116.971 378.143 117.105 378.666 117.105ZM383.918 118V110.364H385.051V111.517H385.131C385.27 111.139 385.522 110.833 385.886 110.597C386.251 110.362 386.662 110.244 387.119 110.244C387.205 110.244 387.313 110.246 387.442 110.249C387.572 110.253 387.67 110.258 387.736 110.264V111.457C387.696 111.447 387.605 111.433 387.462 111.413C387.323 111.389 387.176 111.378 387.02 111.378C386.649 111.378 386.317 111.456 386.026 111.612C385.737 111.764 385.509 111.976 385.339 112.248C385.174 112.516 385.091 112.823 385.091 113.168V118H383.918ZM390.678 107.818L390.578 115.136H389.425L389.325 107.818H390.678ZM390.002 118.08C389.756 118.08 389.546 117.992 389.37 117.816C389.195 117.64 389.107 117.43 389.107 117.185C389.107 116.939 389.195 116.729 389.37 116.553C389.546 116.378 389.756 116.29 390.002 116.29C390.247 116.29 390.457 116.378 390.633 116.553C390.809 116.729 390.896 116.939 390.896 117.185C390.896 117.347 390.855 117.496 390.772 117.632C390.693 117.768 390.585 117.877 390.449 117.96C390.316 118.04 390.167 118.08 390.002 118.08Z" fill="#333333"/>
<rect x="100" y="142" width="158" height="32" rx="4" fill="#0F67F5"/>
<path d="M127.688 156.254H125.829C125.776 155.949 125.678 155.679 125.536 155.443C125.393 155.205 125.216 155.002 125.004 154.837C124.791 154.671 124.549 154.547 124.278 154.464C124.009 154.378 123.719 154.335 123.408 154.335C122.854 154.335 122.364 154.474 121.936 154.752C121.509 155.027 121.174 155.432 120.932 155.965C120.69 156.496 120.569 157.143 120.569 157.909C120.569 158.688 120.69 159.344 120.932 159.878C121.177 160.408 121.512 160.809 121.936 161.081C122.364 161.349 122.853 161.484 123.403 161.484C123.708 161.484 123.993 161.444 124.258 161.364C124.526 161.281 124.767 161.161 124.979 161.001C125.194 160.842 125.375 160.647 125.521 160.415C125.67 160.183 125.772 159.918 125.829 159.619L127.688 159.629C127.619 160.113 127.468 160.567 127.236 160.991C127.007 161.416 126.707 161.79 126.336 162.115C125.965 162.437 125.531 162.688 125.033 162.871C124.536 163.05 123.984 163.139 123.378 163.139C122.483 163.139 121.684 162.932 120.982 162.518C120.279 162.103 119.725 161.505 119.321 160.723C118.917 159.941 118.714 159.003 118.714 157.909C118.714 156.812 118.918 155.874 119.326 155.095C119.734 154.313 120.289 153.715 120.991 153.3C121.694 152.886 122.49 152.679 123.378 152.679C123.945 152.679 124.472 152.759 124.959 152.918C125.446 153.077 125.88 153.31 126.261 153.619C126.643 153.924 126.956 154.298 127.201 154.742C127.45 155.183 127.612 155.687 127.688 156.254ZM132.629 163.149C131.883 163.149 131.237 162.985 130.69 162.657C130.143 162.329 129.719 161.87 129.417 161.28C129.119 160.69 128.97 160 128.97 159.212C128.97 158.423 129.119 157.732 129.417 157.138C129.719 156.545 130.143 156.085 130.69 155.756C131.237 155.428 131.883 155.264 132.629 155.264C133.374 155.264 134.021 155.428 134.568 155.756C135.115 156.085 135.537 156.545 135.835 157.138C136.137 157.732 136.288 158.423 136.288 159.212C136.288 160 136.137 160.69 135.835 161.28C135.537 161.87 135.115 162.329 134.568 162.657C134.021 162.985 133.374 163.149 132.629 163.149ZM132.639 161.707C133.043 161.707 133.381 161.596 133.653 161.374C133.925 161.149 134.127 160.847 134.259 160.469C134.395 160.092 134.463 159.671 134.463 159.207C134.463 158.739 134.395 158.317 134.259 157.939C134.127 157.558 133.925 157.254 133.653 157.029C133.381 156.804 133.043 156.691 132.639 156.691C132.224 156.691 131.88 156.804 131.605 157.029C131.333 157.254 131.129 157.558 130.993 157.939C130.86 158.317 130.794 158.739 130.794 159.207C130.794 159.671 130.86 160.092 130.993 160.469C131.129 160.847 131.333 161.149 131.605 161.374C131.88 161.596 132.224 161.707 132.639 161.707ZM139.615 158.526V163H137.815V155.364H139.536V156.661H139.625C139.801 156.234 140.081 155.894 140.465 155.642C140.853 155.39 141.332 155.264 141.902 155.264C142.429 155.264 142.888 155.377 143.279 155.602C143.674 155.828 143.978 156.154 144.194 156.582C144.413 157.009 144.52 157.528 144.517 158.138V163H142.717V158.416C142.717 157.906 142.585 157.506 142.32 157.218C142.058 156.93 141.695 156.786 141.231 156.786C140.916 156.786 140.636 156.855 140.391 156.994C140.149 157.13 139.958 157.327 139.819 157.586C139.683 157.844 139.615 158.158 139.615 158.526ZM150.16 155.364V156.756H145.77V155.364H150.16ZM146.854 153.534H148.653V160.703C148.653 160.945 148.69 161.131 148.763 161.26C148.839 161.386 148.938 161.472 149.061 161.518C149.184 161.565 149.32 161.588 149.469 161.588C149.581 161.588 149.684 161.58 149.777 161.563C149.873 161.547 149.946 161.532 149.996 161.518L150.299 162.925C150.203 162.959 150.065 162.995 149.886 163.035C149.711 163.075 149.495 163.098 149.24 163.104C148.789 163.118 148.383 163.05 148.022 162.901C147.661 162.748 147.374 162.513 147.162 162.195C146.953 161.876 146.85 161.479 146.854 161.001V153.534ZM153.862 163.154C153.378 163.154 152.943 163.068 152.555 162.896C152.17 162.72 151.865 162.461 151.64 162.12C151.418 161.779 151.307 161.358 151.307 160.857C151.307 160.426 151.387 160.07 151.546 159.788C151.705 159.507 151.922 159.281 152.197 159.112C152.472 158.943 152.782 158.816 153.127 158.729C153.475 158.64 153.834 158.575 154.205 158.536C154.653 158.489 155.016 158.448 155.294 158.411C155.573 158.371 155.775 158.312 155.901 158.232C156.03 158.149 156.095 158.022 156.095 157.849V157.82C156.095 157.445 155.984 157.155 155.762 156.95C155.539 156.744 155.22 156.641 154.802 156.641C154.361 156.641 154.012 156.737 153.753 156.93C153.498 157.122 153.325 157.349 153.236 157.611L151.556 157.372C151.688 156.908 151.907 156.52 152.212 156.209C152.517 155.894 152.89 155.659 153.33 155.503C153.771 155.344 154.258 155.264 154.792 155.264C155.16 155.264 155.526 155.307 155.891 155.393C156.255 155.48 156.588 155.622 156.89 155.821C157.192 156.017 157.434 156.283 157.616 156.621C157.802 156.96 157.894 157.382 157.894 157.889V163H156.164V161.951H156.105C155.995 162.163 155.841 162.362 155.642 162.548C155.447 162.73 155.2 162.877 154.901 162.99C154.606 163.099 154.26 163.154 153.862 163.154ZM154.33 161.832C154.691 161.832 155.004 161.76 155.269 161.618C155.535 161.472 155.738 161.28 155.881 161.041C156.027 160.803 156.1 160.542 156.1 160.261V159.361C156.043 159.407 155.947 159.45 155.811 159.49C155.679 159.53 155.53 159.565 155.364 159.594C155.198 159.624 155.034 159.651 154.872 159.674C154.709 159.697 154.568 159.717 154.449 159.734C154.181 159.77 153.94 159.83 153.728 159.913C153.516 159.996 153.349 160.112 153.226 160.261C153.103 160.406 153.042 160.595 153.042 160.827C153.042 161.159 153.163 161.409 153.405 161.578C153.647 161.747 153.955 161.832 154.33 161.832ZM163.035 163.149C162.273 163.149 161.618 162.982 161.071 162.647C160.528 162.312 160.108 161.85 159.813 161.26C159.522 160.667 159.376 159.984 159.376 159.212C159.376 158.436 159.525 157.752 159.823 157.158C160.122 156.562 160.543 156.098 161.086 155.766C161.633 155.432 162.279 155.264 163.025 155.264C163.645 155.264 164.193 155.379 164.671 155.607C165.151 155.833 165.534 156.152 165.819 156.567C166.104 156.978 166.267 157.458 166.306 158.009H164.586C164.517 157.641 164.351 157.334 164.089 157.089C163.83 156.84 163.484 156.716 163.05 156.716C162.682 156.716 162.359 156.815 162.08 157.014C161.802 157.21 161.585 157.491 161.429 157.859C161.277 158.227 161.2 158.668 161.2 159.182C161.2 159.702 161.277 160.15 161.429 160.524C161.582 160.895 161.795 161.182 162.07 161.384C162.349 161.583 162.675 161.683 163.05 161.683C163.315 161.683 163.552 161.633 163.761 161.533C163.973 161.431 164.15 161.283 164.293 161.091C164.435 160.899 164.533 160.665 164.586 160.39H166.306C166.263 160.93 166.104 161.409 165.829 161.827C165.554 162.241 165.179 162.566 164.705 162.801C164.231 163.033 163.675 163.149 163.035 163.149ZM171.597 155.364V156.756H167.207V155.364H171.597ZM168.291 153.534H170.091V160.703C170.091 160.945 170.127 161.131 170.2 161.26C170.277 161.386 170.376 161.472 170.499 161.518C170.621 161.565 170.757 161.588 170.906 161.588C171.019 161.588 171.122 161.58 171.214 161.563C171.311 161.547 171.384 161.532 171.433 161.518L171.737 162.925C171.64 162.959 171.503 162.995 171.324 163.035C171.148 163.075 170.933 163.098 170.678 163.104C170.227 163.118 169.821 163.05 169.46 162.901C169.098 162.748 168.812 162.513 168.599 162.195C168.391 161.876 168.288 161.479 168.291 161.001V153.534ZM178.773 163.154C178.289 163.154 177.853 163.068 177.465 162.896C177.081 162.72 176.776 162.461 176.55 162.12C176.328 161.779 176.217 161.358 176.217 160.857C176.217 160.426 176.297 160.07 176.456 159.788C176.615 159.507 176.832 159.281 177.107 159.112C177.382 158.943 177.692 158.816 178.037 158.729C178.385 158.64 178.744 158.575 179.116 158.536C179.563 158.489 179.926 158.448 180.204 158.411C180.483 158.371 180.685 158.312 180.811 158.232C180.94 158.149 181.005 158.022 181.005 157.849V157.82C181.005 157.445 180.894 157.155 180.672 156.95C180.45 156.744 180.13 156.641 179.712 156.641C179.271 156.641 178.922 156.737 178.663 156.93C178.408 157.122 178.236 157.349 178.146 157.611L176.466 157.372C176.598 156.908 176.817 156.52 177.122 156.209C177.427 155.894 177.8 155.659 178.241 155.503C178.681 155.344 179.169 155.264 179.702 155.264C180.07 155.264 180.436 155.307 180.801 155.393C181.166 155.48 181.499 155.622 181.8 155.821C182.102 156.017 182.344 156.283 182.526 156.621C182.712 156.96 182.805 157.382 182.805 157.889V163H181.074V161.951H181.015C180.905 162.163 180.751 162.362 180.552 162.548C180.357 162.73 180.11 162.877 179.812 162.99C179.517 163.099 179.17 163.154 178.773 163.154ZM179.24 161.832C179.601 161.832 179.914 161.76 180.18 161.618C180.445 161.472 180.648 161.28 180.791 161.041C180.937 160.803 181.01 160.542 181.01 160.261V159.361C180.953 159.407 180.857 159.45 180.721 159.49C180.589 159.53 180.44 159.565 180.274 159.594C180.108 159.624 179.944 159.651 179.782 159.674C179.619 159.697 179.479 159.717 179.359 159.734C179.091 159.77 178.85 159.83 178.638 159.913C178.426 159.996 178.259 160.112 178.136 160.261C178.014 160.406 177.952 160.595 177.952 160.827C177.952 161.159 178.073 161.409 178.315 161.578C178.557 161.747 178.865 161.832 179.24 161.832ZM186.414 158.526V163H184.614V155.364H186.334V156.661H186.424C186.599 156.234 186.88 155.894 187.264 155.642C187.652 155.39 188.131 155.264 188.701 155.264C189.228 155.264 189.687 155.377 190.078 155.602C190.472 155.828 190.777 156.154 190.993 156.582C191.211 157.009 191.319 157.528 191.316 158.138V163H189.516V158.416C189.516 157.906 189.384 157.506 189.118 157.218C188.857 156.93 188.494 156.786 188.03 156.786C187.715 156.786 187.435 156.855 187.189 156.994C186.948 157.13 186.757 157.327 186.618 157.586C186.482 157.844 186.414 158.158 186.414 158.526ZM199.999 163.149C199.233 163.149 198.572 162.99 198.015 162.672C197.462 162.35 197.036 161.896 196.737 161.31C196.439 160.72 196.29 160.025 196.29 159.227C196.29 158.441 196.439 157.752 196.737 157.158C197.039 156.562 197.46 156.098 198 155.766C198.54 155.432 199.175 155.264 199.904 155.264C200.375 155.264 200.819 155.34 201.237 155.493C201.658 155.642 202.029 155.874 202.35 156.189C202.675 156.504 202.93 156.905 203.116 157.392C203.302 157.876 203.394 158.453 203.394 159.122V159.674H197.135V158.461H201.669C201.666 158.116 201.591 157.81 201.445 157.541C201.3 157.269 201.096 157.056 200.834 156.9C200.575 156.744 200.274 156.666 199.929 156.666C199.561 156.666 199.238 156.756 198.96 156.935C198.681 157.11 198.464 157.342 198.308 157.631C198.156 157.916 198.078 158.229 198.075 158.57V159.629C198.075 160.073 198.156 160.455 198.318 160.773C198.481 161.088 198.708 161.33 198.999 161.499C199.291 161.664 199.633 161.747 200.024 161.747C200.285 161.747 200.522 161.711 200.735 161.638C200.947 161.562 201.131 161.451 201.286 161.305C201.442 161.159 201.56 160.978 201.639 160.763L203.32 160.952C203.214 161.396 203.012 161.784 202.713 162.115C202.418 162.443 202.04 162.698 201.58 162.881C201.119 163.06 200.592 163.149 199.999 163.149ZM206.224 155.364L207.766 158.183L209.332 155.364H211.236L208.934 159.182L211.276 163H209.381L207.766 160.251L206.165 163H204.256L206.582 159.182L204.315 155.364H206.224ZM212.628 165.864V155.364H214.398V156.626H214.502C214.595 156.441 214.726 156.244 214.895 156.035C215.064 155.823 215.293 155.642 215.581 155.493C215.869 155.34 216.237 155.264 216.685 155.264C217.275 155.264 217.807 155.415 218.281 155.717C218.758 156.015 219.136 156.457 219.414 157.044C219.696 157.627 219.837 158.343 219.837 159.192C219.837 160.03 219.699 160.743 219.424 161.33C219.149 161.916 218.774 162.364 218.3 162.672C217.826 162.98 217.29 163.134 216.69 163.134C216.252 163.134 215.889 163.061 215.601 162.915C215.313 162.77 215.08 162.594 214.905 162.388C214.732 162.18 214.598 161.982 214.502 161.797H214.428V165.864H212.628ZM214.393 159.182C214.393 159.676 214.462 160.108 214.602 160.479C214.744 160.851 214.948 161.141 215.213 161.349C215.482 161.555 215.806 161.658 216.188 161.658C216.585 161.658 216.918 161.552 217.187 161.339C217.455 161.124 217.657 160.831 217.793 160.46C217.933 160.085 218.002 159.659 218.002 159.182C218.002 158.708 217.934 158.287 217.798 157.919C217.662 157.551 217.46 157.263 217.192 157.054C216.923 156.845 216.589 156.741 216.188 156.741C215.803 156.741 215.477 156.842 215.208 157.044C214.94 157.246 214.736 157.53 214.597 157.894C214.461 158.259 214.393 158.688 214.393 159.182ZM224.759 163.149C223.993 163.149 223.332 162.99 222.775 162.672C222.221 162.35 221.795 161.896 221.497 161.31C221.199 160.72 221.05 160.025 221.05 159.227C221.05 158.441 221.199 157.752 221.497 157.158C221.799 156.562 222.22 156.098 222.76 155.766C223.3 155.432 223.935 155.264 224.664 155.264C225.135 155.264 225.579 155.34 225.996 155.493C226.417 155.642 226.789 155.874 227.11 156.189C227.435 156.504 227.69 156.905 227.876 157.392C228.061 157.876 228.154 158.453 228.154 159.122V159.674H221.895V158.461H226.429C226.426 158.116 226.351 157.81 226.205 157.541C226.059 157.269 225.856 157.056 225.594 156.9C225.335 156.744 225.034 156.666 224.689 156.666C224.321 156.666 223.998 156.756 223.719 156.935C223.441 157.11 223.224 157.342 223.068 157.631C222.916 157.916 222.838 158.229 222.835 158.57V159.629C222.835 160.073 222.916 160.455 223.078 160.773C223.241 161.088 223.468 161.33 223.759 161.499C224.051 161.664 224.392 161.747 224.783 161.747C225.045 161.747 225.282 161.711 225.494 161.638C225.706 161.562 225.89 161.451 226.046 161.305C226.202 161.159 226.32 160.978 226.399 160.763L228.08 160.952C227.973 161.396 227.771 161.784 227.473 162.115C227.178 162.443 226.8 162.698 226.339 162.881C225.879 163.06 225.352 163.149 224.759 163.149ZM229.677 163V155.364H231.422V156.636H231.501C231.64 156.196 231.879 155.856 232.217 155.617C232.559 155.375 232.948 155.254 233.385 155.254C233.485 155.254 233.596 155.259 233.719 155.269C233.845 155.276 233.949 155.287 234.032 155.304V156.96C233.956 156.933 233.835 156.91 233.669 156.89C233.506 156.867 233.349 156.855 233.197 156.855C232.868 156.855 232.573 156.926 232.312 157.069C232.053 157.208 231.849 157.402 231.7 157.651C231.551 157.899 231.476 158.186 231.476 158.511V163H229.677ZM239.451 155.364V156.756H235.061V155.364H239.451ZM236.145 153.534H237.944V160.703C237.944 160.945 237.981 161.131 238.054 161.26C238.13 161.386 238.229 161.472 238.352 161.518C238.475 161.565 238.611 161.588 238.76 161.588C238.872 161.588 238.975 161.58 239.068 161.563C239.164 161.547 239.237 161.532 239.287 161.518L239.59 162.925C239.494 162.959 239.356 162.995 239.177 163.035C239.002 163.075 238.786 163.098 238.531 163.104C238.08 163.118 237.674 163.05 237.313 162.901C236.952 162.748 236.665 162.513 236.453 162.195C236.244 161.876 236.141 161.479 236.145 161.001V153.534Z" fill="white"/>
<rect x="552" y="44" width="32" height="32" rx="16" fill="white"/>
<path d="M568.122 60.3061L567.769 59.9525L567.415 60.3061L564.085 63.6361C564.065 63.6562 564.035 63.6696 563.999 63.6696C563.963 63.6696 563.933 63.6562 563.912 63.6361C563.892 63.616 563.879 63.586 563.879 63.5496C563.879 63.5133 563.892 63.4833 563.912 63.4632L567.242 60.1332L567.596 59.7796L567.242 59.4261L563.912 56.0961C563.892 56.076 563.879 56.046 563.879 56.0096C563.879 55.9733 563.892 55.9433 563.912 55.9232C563.933 55.9031 563.963 55.8896 563.999 55.8896C564.035 55.8896 564.065 55.9031 564.085 55.9232L567.415 59.2532L567.769 59.6068L568.122 59.2532L571.452 55.9232C571.473 55.9031 571.503 55.8896 571.539 55.8896C571.575 55.8896 571.605 55.9031 571.625 55.9232C571.645 55.9433 571.659 55.9733 571.659 56.0096C571.659 56.046 571.645 56.076 571.625 56.0961L568.295 59.4261L567.942 59.7796L568.295 60.1332L571.625 63.4632C571.645 63.4833 571.659 63.5133 571.659 63.5496C571.659 63.586 571.645 63.616 571.625 63.6361C571.605 63.6562 571.575 63.6696 571.539 63.6696C571.503 63.6696 571.473 63.6562 571.452 63.6361L568.122 60.3061Z" fill="#545454" stroke="#545454"/>
<path d="M513.59 99C513.59 101.209 511.799 103 509.59 103C507.381 103 505.59 101.209 505.59 99C505.59 96.7909 507.381 95 509.59 95C511.799 95 513.59 96.7909 513.59 99Z" fill="#96C0FD"/>
<path d="M548 135L526.925 99L511.516 125.324L502.59 110.077L488 135H548Z" fill="#96C0FD"/>
</svg>
