<svg width="406" height="66" fill="none" xmlns="http://www.w3.org/2000/svg"><path d="M0 3.27C0 1.47 1.46 0 3.27 0h399.46c1.8 0 3.27 1.46 3.27 3.27v58.81c0 1.8-1.46 3.27-3.27 3.27H3.27A3.27 3.27 0 0 1 0 62.08V3.27Z" fill="#fff"/><circle cx="39.21" cy="32.68" r="19.61" fill="#9E9E9E"/><path d="M37.77 26.63a1.3 1.3 0 1 1-2.61 0 1.3 1.3 0 0 1 2.61 0ZM49.01 38.4l-6.88-11.77-5.04 8.6-2.91-4.98-4.77 8.14H49Z" fill="#F6F6F6"/><path d="M72.82 28.07v-9.5h1.73v8.06h4.18v1.44h-5.9Zm7.33 0v-7.13h1.68v7.13h-1.68Zm.85-8.14a.98.98 0 0 1-.69-.27.85.85 0 0 1-.29-.64c0-.25.1-.47.3-.65a.93.93 0 0 1 .68-.27c.27 0 .5.1.68.27a.85.85 0 0 1 0 1.29.97.97 0 0 1-.68.27Zm4.24 3.96v4.18h-1.68v-7.13h1.6v1.21h.1c.15-.4.42-.71.78-.95.36-.23.8-.35 1.34-.35.49 0 .92.1 1.28.31.37.21.66.52.86.92.2.4.3.88.3 1.45v4.54h-1.68v-4.28c0-.48-.13-.85-.37-1.12a1.3 1.3 0 0 0-1.02-.4c-.3 0-.56.06-.78.2-.23.12-.4.3-.54.55a1.8 1.8 0 0 0-.19.87Zm7.82 1.94V23.8h.26l2.56-2.86h1.97l-3.15 3.51h-.35l-1.3 1.38Zm-1.53 2.24v-9.5h1.68v9.5h-1.68Zm4.47 0-2.32-3.24 1.13-1.19 3.2 4.43H96Zm7.25 2.67a3.4 3.4 0 0 1-1.1-.17l.4-1.31c.24.07.46.1.65.1a.8.8 0 0 0 .5-.18c.16-.11.28-.3.38-.58l.15-.38-2.59-7.28h1.79l1.64 5.39h.07l1.65-5.39h1.79l-2.86 8c-.13.37-.3.7-.53.96-.22.28-.48.48-.8.63-.32.14-.7.21-1.14.21Zm9.36-2.53a3.19 3.19 0 0 1-3.01-1.75 4.23 4.23 0 0 1-.4-1.93c0-.73.13-1.38.4-1.93.3-.56.69-.99 1.2-1.3.5-.3 1.11-.45 1.8-.45.7 0 1.3.15 1.82.46.5.3.9.73 1.18 1.29.28.55.42 1.2.42 1.93a4.2 4.2 0 0 1-.42 1.93c-.28.56-.67.98-1.18 1.29-.51.3-1.12.46-1.81.46Zm0-1.35c.38 0 .7-.1.95-.3.26-.22.45-.5.57-.85.13-.36.19-.75.19-1.18 0-.44-.06-.83-.19-1.18a1.87 1.87 0 0 0-.57-.85 1.44 1.44 0 0 0-.94-.32c-.39 0-.71.1-.97.32-.25.2-.44.49-.57.85a3.6 3.6 0 0 0 .01 2.36c.12.35.3.63.56.84.26.21.58.31.97.31Zm9.38-1.79v-4.13h1.68v7.13h-1.63V26.8h-.07c-.16.4-.42.73-.8.98a2.3 2.3 0 0 1-1.34.38c-.47 0-.88-.1-1.24-.3a2.16 2.16 0 0 1-.84-.92c-.2-.4-.3-.89-.3-1.46v-4.54h1.68v4.28c0 .45.12.81.37 1.08.25.26.57.4.98.4.24 0 .48-.06.72-.18.23-.13.42-.3.57-.54.15-.24.22-.55.22-.9Zm3.41 3v-7.13h1.63v1.19h.08a1.78 1.78 0 0 1 1.75-1.3 3.86 3.86 0 0 1 .6.06v1.54a3.14 3.14 0 0 0-.78-.1c-.3 0-.57.07-.82.2a1.46 1.46 0 0 0-.78 1.35v4.19h-1.68Zm8.5 0v-9.5h3.56c.73 0 1.35.13 1.84.4.5.28.88.65 1.13 1.13.26.47.39 1 .39 1.61 0 .61-.13 1.15-.39 1.63-.26.47-.64.84-1.14 1.11-.5.27-1.11.4-1.85.4h-2.36v-1.4h2.13c.43 0 .78-.08 1.05-.23.27-.15.47-.35.6-.61s.2-.56.2-.9c0-.34-.06-.63-.2-.89a1.35 1.35 0 0 0-.6-.6 2.22 2.22 0 0 0-1.06-.22h-1.58v8.07h-1.72Zm8.34 0v-7.13h1.63v1.19h.07a1.78 1.78 0 0 1 1.76-1.3 3.86 3.86 0 0 1 .6.06v1.54a3.14 3.14 0 0 0-.78-.1c-.3 0-.58.07-.82.2a1.46 1.46 0 0 0-.78 1.35v4.19h-1.68Zm5.18 0v-7.13h1.68v7.13h-1.68Zm.84-8.14a.98.98 0 0 1-.68-.27.85.85 0 0 1-.29-.64c0-.25.1-.47.29-.65a.96.96 0 0 1 .68-.27c.27 0 .5.1.7.27.18.18.28.4.28.65s-.1.47-.29.64a.97.97 0 0 1-.69.27Zm2.57 8.14v-7.13h1.6v1.21h.09c.15-.4.4-.72.73-.95.35-.24.76-.35 1.24-.35s.88.12 1.22.35c.33.23.57.55.7.95h.08c.15-.4.42-.7.8-.94.37-.24.82-.36 1.34-.36.65 0 1.19.2 1.6.62.42.41.62 1.02.62 1.81v4.79h-1.68v-4.53c0-.44-.12-.76-.35-.97-.24-.2-.53-.3-.87-.3-.4 0-.72.12-.95.37a1.4 1.4 0 0 0-.34.98v4.45h-1.65v-4.6c0-.36-.1-.66-.33-.88-.22-.22-.5-.33-.86-.33a1.29 1.29 0 0 0-1.13.7 1.6 1.6 0 0 0-.18.78v4.33h-1.68Zm14.88.14c-.71 0-1.33-.15-1.85-.45-.51-.3-.91-.72-1.19-1.27a4.25 4.25 0 0 1-.42-1.94c0-.74.14-1.38.42-1.93a3.16 3.16 0 0 1 2.96-1.77c.44 0 .85.07 1.24.21.4.14.74.36 1.04.65.3.3.54.67.72 1.12.17.46.25 1 .25 1.62v.52h-5.84v-1.14h4.23c0-.32-.07-.6-.2-.86a1.51 1.51 0 0 0-.58-.6 1.6 1.6 0 0 0-.84-.21c-.34 0-.65.08-.9.25-.27.16-.47.38-.61.65-.15.26-.22.56-.22.87v1c0 .4.07.76.23 1.06.15.3.36.52.63.68.27.15.6.23.96.23.24 0 .46-.03.66-.1s.37-.18.52-.31c.14-.14.25-.3.33-.5l1.56.17c-.1.41-.28.77-.56 1.08-.28.31-.63.55-1.06.72a4 4 0 0 1-1.48.25Zm9.89 0c-.45 0-.86-.08-1.22-.24-.36-.16-.64-.4-.85-.72a2.1 2.1 0 0 1-.32-1.18 2 2 0 0 1 .23-1c.15-.26.35-.47.6-.63.26-.16.55-.28.87-.36.33-.08.66-.14 1.01-.18l1.02-.11c.26-.04.44-.1.56-.17a.4.4 0 0 0 .18-.36v-.03c0-.35-.1-.62-.3-.8-.22-.2-.51-.3-.9-.3-.41 0-.74.1-.98.27-.24.18-.4.4-.49.64l-1.56-.22a2.5 2.5 0 0 1 1.65-1.75 4.44 4.44 0 0 1 2.39-.1c.34.08.66.21.94.4a2 2 0 0 1 .67.75c.18.31.26.7.26 1.18v4.77h-1.61v-.98h-.06a2.04 2.04 0 0 1-1.12.97c-.28.1-.6.15-.97.15Zm.44-1.23c.33 0 .63-.07.87-.2.25-.14.44-.32.57-.54.14-.22.2-.46.2-.73v-.84a.78.78 0 0 1-.26.12 13 13 0 0 1-1.27.23c-.25.03-.48.1-.68.17-.2.08-.35.18-.47.32a.8.8 0 0 0-.17.53c0 .31.12.55.34.7.23.16.52.24.87.24Zm6.7-3.09v4.18h-1.69v-7.13h1.6v1.21h.1c.16-.4.42-.71.78-.95.36-.23.8-.35 1.34-.35.5 0 .92.1 1.28.31.37.21.66.52.86.92.2.4.3.88.3 1.45v4.54h-1.68v-4.28c0-.48-.12-.85-.37-1.12a1.3 1.3 0 0 0-1.02-.4c-.3 0-.55.06-.78.2-.23.12-.4.3-.54.55-.12.24-.19.53-.19.87Zm8.92 4.3a2.7 2.7 0 0 1-2.55-1.68 4.67 4.67 0 0 1-.38-2c0-.79.13-1.46.39-2a2.74 2.74 0 0 1 3.58-1.45c.27.14.48.31.64.5.16.2.28.39.37.56h.07v-3.56h1.68v9.51h-1.65v-1.12h-.1c-.1.17-.22.35-.38.55a2.07 2.07 0 0 1-1.67.7Zm.47-1.37c.36 0 .66-.1.91-.3.25-.19.44-.46.57-.8.13-.35.2-.75.2-1.21 0-.47-.07-.87-.2-1.2a1.7 1.7 0 0 0-.56-.8 1.46 1.46 0 0 0-.92-.28c-.37 0-.68.1-.94.29-.25.2-.43.46-.56.8-.13.35-.2.74-.2 1.19 0 .44.07.84.2 1.19s.32.62.57.82c.25.2.56.3.93.3ZM80.63 37.56v9.51H79.1l-4.47-6.47h-.08v6.47h-1.73v-9.5h1.55l4.47 6.47h.08v-6.48h1.72Zm6.35 6.51v-4.13h1.68v7.13h-1.63V45.8h-.07c-.16.4-.43.73-.8.98a2.3 2.3 0 0 1-1.35.38c-.46 0-.88-.1-1.23-.3a2.16 2.16 0 0 1-.84-.92c-.2-.4-.3-.89-.3-1.46v-4.54h1.68v4.28c0 .45.12.81.37 1.08.25.26.57.4.97.4a1.54 1.54 0 0 0 1.3-.72c.15-.24.22-.55.22-.9Zm6.52 3.14a3.13 3.13 0 0 1-3-1.76c-.28-.56-.42-1.2-.42-1.92s.14-1.36.42-1.91c.28-.56.67-1 1.18-1.3a3.4 3.4 0 0 1 1.81-.47c.58 0 1.1.1 1.54.32a2.62 2.62 0 0 1 1.52 2.24h-1.6a1.54 1.54 0 0 0-.47-.86 1.34 1.34 0 0 0-.97-.35c-.34 0-.64.1-.9.28-.26.18-.46.45-.6.8-.15.33-.22.75-.22 1.23s.07.9.21 1.25c.14.35.34.61.6.8.26.19.56.28.91.28.25 0 .47-.05.67-.14.2-.1.36-.23.5-.41.13-.18.22-.4.27-.66h1.6a2.64 2.64 0 0 1-1.5 2.25 3.5 3.5 0 0 1-1.55.33Zm6.11-9.65v9.51h-1.68v-9.5h1.68Zm4.89 9.65c-.72 0-1.33-.15-1.85-.45a3 3 0 0 1-1.2-1.27 4.25 4.25 0 0 1-.42-1.94c0-.74.14-1.38.42-1.93a3.16 3.16 0 0 1 2.96-1.77c.44 0 .85.07 1.24.21.4.14.74.36 1.04.65.3.3.55.67.72 1.12.17.46.26 1 .26 1.62v.52h-5.85v-1.14h4.24c0-.32-.08-.6-.21-.86a1.52 1.52 0 0 0-.57-.6 1.6 1.6 0 0 0-.85-.21c-.34 0-.64.08-.9.25-.26.16-.47.38-.61.65-.14.26-.22.56-.22.87v1c0 .4.08.76.23 1.06.15.3.36.52.63.68a2 2 0 0 0 .96.23 2 2 0 0 0 .67-.1c.2-.07.37-.18.51-.31.14-.14.25-.3.33-.5l1.57.17c-.1.41-.29.77-.57 1.08a2.7 2.7 0 0 1-1.06.72c-.43.17-.92.25-1.47.25Zm9.13-3.14v-4.13h1.68v7.13h-1.63V45.8h-.07c-.16.4-.42.73-.8.98a2.3 2.3 0 0 1-1.34.38c-.47 0-.89-.1-1.24-.3a2.16 2.16 0 0 1-.84-.92c-.2-.4-.3-.89-.3-1.46v-4.54h1.68v4.28c0 .45.12.81.37 1.08.25.26.57.4.98.4a1.54 1.54 0 0 0 1.29-.72c.15-.24.22-.55.22-.9Zm9.05-2.24-1.54.16a1.23 1.23 0 0 0-.65-.76c-.18-.09-.4-.13-.66-.13-.35 0-.64.08-.88.23-.24.15-.35.35-.35.59 0 .2.07.37.23.5s.42.24.78.32l1.21.26a3 3 0 0 1 1.5.7c.34.31.5.72.5 1.24 0 .44-.13.84-.38 1.18-.26.34-.62.61-1.08.8-.45.2-.98.29-1.58.29a3.6 3.6 0 0 1-2.1-.55 2.2 2.2 0 0 1-.95-1.53l1.63-.16c.08.32.24.56.48.73.24.16.55.24.94.24.4 0 .72-.08.96-.24.25-.17.37-.37.37-.61 0-.2-.08-.37-.24-.5-.15-.14-.4-.24-.72-.31l-1.22-.26a2.9 2.9 0 0 1-1.52-.72 1.73 1.73 0 0 1-.48-1.29c0-.44.11-.82.35-1.14.25-.33.59-.58 1.02-.75.44-.18.94-.27 1.5-.27.84 0 1.5.18 1.98.53.48.36.78.84.9 1.45Zm6.83 5.38c-.45 0-.86-.08-1.22-.24-.36-.16-.65-.4-.86-.72-.2-.32-.3-.71-.3-1.18a2 2 0 0 1 .22-1c.14-.26.35-.47.6-.63.26-.16.55-.28.87-.36.33-.08.66-.14 1-.18l1.03-.11c.25-.04.44-.1.56-.17a.4.4 0 0 0 .18-.36v-.03c0-.35-.1-.62-.3-.8-.22-.2-.51-.3-.9-.3-.42 0-.74.1-.98.27-.24.18-.4.4-.49.64l-1.56-.22a2.51 2.51 0 0 1 1.65-1.75 4.44 4.44 0 0 1 2.39-.1c.34.08.65.21.94.4a2 2 0 0 1 .67.75c.18.31.26.7.26 1.18v4.77h-1.61v-.98h-.06a2.04 2.04 0 0 1-1.12.97c-.28.1-.6.15-.97.15Zm.44-1.23c.33 0 .62-.07.87-.2.25-.14.44-.32.57-.54.14-.22.2-.46.2-.73v-.84a.78.78 0 0 1-.26.12 13.39 13.39 0 0 1-1.27.23c-.25.03-.48.1-.68.17-.2.08-.35.18-.47.32a.8.8 0 0 0-.17.53c0 .31.12.55.34.7.23.16.51.24.86.24Zm8.12 1.23a3.13 3.13 0 0 1-3-1.76c-.28-.56-.41-1.2-.41-1.92s.13-1.36.41-1.91c.28-.56.68-1 1.18-1.3a3.4 3.4 0 0 1 1.81-.47c.58 0 1.1.1 1.54.32a2.62 2.62 0 0 1 1.53 2.24h-1.61a1.54 1.54 0 0 0-.46-.86 1.34 1.34 0 0 0-.97-.35c-.35 0-.65.1-.9.28-.27.18-.47.45-.62.8a3.2 3.2 0 0 0-.21 1.23c0 .48.07.9.21 1.25.15.35.34.61.6.8.26.19.57.28.92.28a1.41 1.41 0 0 0 1.16-.55c.13-.18.22-.4.27-.66h1.6a2.63 2.63 0 0 1-1.5 2.25c-.43.22-.95.33-1.55.33Zm7.55 0a3.13 3.13 0 0 1-3-1.76c-.28-.56-.42-1.2-.42-1.92s.14-1.36.42-1.91a3.12 3.12 0 0 1 2.99-1.77c.57 0 1.09.1 1.53.32a2.63 2.63 0 0 1 1.53 2.24h-1.6a1.54 1.54 0 0 0-.47-.86 1.34 1.34 0 0 0-.97-.35c-.34 0-.65.1-.9.28-.27.18-.47.45-.61.8-.15.33-.22.75-.22 1.23s.07.9.22 1.25c.14.35.34.61.6.8.25.19.56.28.9.28.26 0 .48-.05.67-.14.2-.1.37-.23.5-.41.13-.18.22-.4.27-.66h1.61a2.64 2.64 0 0 1-1.5 2.25 3.5 3.5 0 0 1-1.55.33Zm7.54 0c-.7 0-1.3-.15-1.81-.46a3.1 3.1 0 0 1-1.19-1.29 4.22 4.22 0 0 1-.42-1.93c0-.73.14-1.38.42-1.93a3.1 3.1 0 0 1 1.19-1.3c.51-.3 1.11-.45 1.8-.45.7 0 1.3.15 1.82.46.51.3.9.73 1.18 1.29.28.55.42 1.2.42 1.93a4.2 4.2 0 0 1-.42 1.93 3.1 3.1 0 0 1-1.18 1.29c-.51.3-1.12.46-1.81.46Zm0-1.35c.39 0 .7-.1.96-.3.25-.22.44-.5.56-.85a3.44 3.44 0 0 0 0-2.36 1.87 1.87 0 0 0-.56-.85 1.43 1.43 0 0 0-.95-.32c-.39 0-.71.1-.97.32-.25.2-.44.49-.57.85-.12.35-.18.74-.18 1.18 0 .43.06.82.18 1.18.13.35.32.63.57.84.26.21.58.31.97.31Zm9.38-1.79v-4.13h1.69v7.13h-1.63V45.8h-.08c-.16.4-.42.73-.8.98a2.3 2.3 0 0 1-1.34.38c-.47 0-.88-.1-1.24-.3a2.16 2.16 0 0 1-.84-.92c-.2-.4-.3-.89-.3-1.46v-4.54h1.68v4.28c0 .45.13.81.37 1.08.25.26.57.4.98.4a1.54 1.54 0 0 0 1.29-.72c.15-.24.22-.55.22-.9Zm5.1-1.18v4.18h-1.69v-7.13h1.6v1.21h.1c.16-.4.42-.71.78-.95.36-.23.8-.35 1.34-.35.5 0 .92.1 1.28.31.37.21.66.52.86.92.2.4.3.88.3 1.45v4.54h-1.68v-4.28c0-.48-.12-.85-.37-1.12a1.3 1.3 0 0 0-1.02-.4c-.3 0-.55.06-.78.2-.23.12-.4.3-.54.55-.12.24-.19.53-.19.87Zm9.84-2.95v1.3h-4.1v-1.3h4.1Zm-3.09-1.7h1.68v6.69c0 .22.04.4.1.52.08.11.17.2.28.24.12.04.24.06.38.06a1.65 1.65 0 0 0 .5-.06l.28 1.31a3.77 3.77 0 0 1-.99.17c-.42.01-.8-.05-1.14-.2a1.7 1.7 0 0 1-.8-.65c-.2-.3-.3-.67-.29-1.12v-6.97Zm10.03 3.59-1.54.16a1.23 1.23 0 0 0-.65-.76c-.18-.09-.4-.13-.66-.13-.35 0-.64.08-.88.23-.24.15-.35.35-.35.59 0 .2.07.37.23.5s.42.24.78.32l1.21.26a3 3 0 0 1 1.5.7c.34.31.5.72.5 1.24 0 .44-.13.84-.38 1.18-.26.34-.62.61-1.08.8-.45.2-.98.29-1.58.29a3.6 3.6 0 0 1-2.1-.55 2.2 2.2 0 0 1-.95-1.53l1.63-.16c.08.32.24.56.48.73.24.16.55.24.94.24.4 0 .72-.08.96-.24.25-.17.37-.37.37-.61 0-.2-.08-.37-.24-.5-.15-.14-.4-.24-.72-.31l-1.22-.26a2.9 2.9 0 0 1-1.52-.72 1.77 1.77 0 0 1-.49-1.29c0-.44.12-.82.36-1.14.25-.33.59-.58 1.02-.75.44-.18.94-.27 1.5-.27.84 0 1.5.18 1.98.53.48.36.78.84.9 1.45Zm2.57 5.34a1 1 0 0 1-.72-.3.96.96 0 0 1-.3-.72c0-.28.1-.52.3-.71a1 1 0 0 1 .72-.3c.27 0 .5.1.71.3a.98.98 0 0 1 .16 1.23 1.1 1.1 0 0 1-.37.37.97.97 0 0 1-.5.13Z" fill="#1F1F1F"/><path d="M233.04 19.6c0-1.8 1.47-3.26 3.27-3.26h107.6a3.26 3.26 0 0 1 3.27 3.27v26.14c0 1.8-1.46 3.26-3.26 3.26H236.3a3.27 3.27 0 0 1-3.27-3.26V19.6Z" fill="#0F67F5"/><path d="M247.07 37.68v-9.51h1.72v8.06h4.19v1.45h-5.9Zm7.33 0v-7.13h1.68v7.13h-1.68Zm.84-8.15a.98.98 0 0 1-.68-.26.85.85 0 0 1-.29-.65c0-.25.1-.46.29-.64a.97.97 0 0 1 .69-.27c.26 0 .5.09.68.27a.85.85 0 0 1 0 1.29.97.97 0 0 1-.69.26Zm4.25 3.97v4.18h-1.68v-7.13h1.6v1.2h.09c.16-.4.42-.7.78-.94.36-.24.81-.36 1.34-.36.5 0 .92.1 1.29.32.37.21.65.51.85.91.2.4.3.89.3 1.46v4.54h-1.68V33.4c0-.48-.12-.85-.37-1.12a1.3 1.3 0 0 0-1.01-.4 1.4 1.4 0 0 0-1.32.74c-.13.24-.2.54-.2.88Zm7.81 1.94V33.4h.27l2.56-2.86h1.97l-3.16 3.5h-.34l-1.3 1.39Zm-1.53 2.24v-9.51h1.68v9.5h-1.68Zm4.48 0-2.32-3.25 1.13-1.18 3.2 4.43h-2.01Zm8.26.14c-.45 0-.86-.08-1.22-.24a2 2 0 0 1-.86-.73c-.2-.31-.3-.7-.3-1.17a1.73 1.73 0 0 1 .83-1.63c.25-.16.54-.28.86-.36.33-.08.66-.15 1-.18l1.03-.12c.25-.04.44-.1.56-.17.12-.07.18-.2.18-.35v-.03c0-.35-.1-.62-.3-.81-.22-.2-.52-.3-.9-.3-.42 0-.74.1-.98.28-.24.18-.4.39-.49.63l-1.57-.22a2.5 2.5 0 0 1 1.66-1.74 4.46 4.46 0 0 1 2.4-.1c.33.07.64.2.93.4a2 2 0 0 1 .67.74c.18.32.26.71.26 1.18v4.78h-1.61v-.98h-.06a2.06 2.06 0 0 1-1.12.97c-.28.1-.6.15-.97.15Zm.43-1.23c.34 0 .63-.07.88-.2.25-.14.44-.32.57-.54.14-.23.2-.47.2-.73v-.84a.8.8 0 0 1-.26.12l-.42.1a12.82 12.82 0 0 1-.85.13c-.25.03-.48.09-.68.16-.2.08-.35.19-.47.33a.8.8 0 0 0-.17.53c0 .3.12.54.34.7.23.16.52.23.86.23Zm8.13 1.22a3.13 3.13 0 0 1-3-1.76 4.16 4.16 0 0 1-.42-1.91c0-.73.15-1.36.42-1.92a3.13 3.13 0 0 1 3-1.77c.57 0 1.08.11 1.53.32a2.63 2.63 0 0 1 1.53 2.25h-1.61a1.54 1.54 0 0 0-.46-.86 1.34 1.34 0 0 0-.98-.35c-.34 0-.64.1-.9.28-.26.18-.46.44-.6.79-.15.34-.22.75-.22 1.23 0 .49.07.9.21 1.25.14.35.34.62.6.8.26.2.57.29.91.29.25 0 .47-.05.67-.14.2-.1.36-.24.5-.42.13-.18.22-.4.27-.65h1.6a2.64 2.64 0 0 1-1.5 2.25 3.5 3.5 0 0 1-1.55.33Zm7.55 0a3.13 3.13 0 0 1-3-1.76 4.16 4.16 0 0 1-.42-1.91c0-.73.14-1.36.42-1.92a3.1 3.1 0 0 1 1.18-1.3 3.4 3.4 0 0 1 1.8-.47c.58 0 1.1.11 1.54.32a2.62 2.62 0 0 1 1.53 2.25h-1.6a1.53 1.53 0 0 0-.47-.86 1.34 1.34 0 0 0-.97-.35c-.34 0-.65.1-.9.28-.27.18-.47.44-.61.79-.15.34-.22.75-.22 1.23 0 .49.07.9.22 1.25.14.35.34.62.6.8.25.2.56.29.9.29a1.36 1.36 0 0 0 1.17-.56c.13-.18.22-.4.27-.65h1.6a2.64 2.64 0 0 1-1.5 2.25c-.43.22-.95.33-1.55.33Zm7.54 0a3.12 3.12 0 0 1-3-1.75 4.23 4.23 0 0 1-.42-1.92c0-.74.14-1.38.42-1.94a3.16 3.16 0 0 1 2.99-1.75 3.1 3.1 0 0 1 3 1.76c.28.55.43 1.2.43 1.93 0 .74-.15 1.38-.43 1.93s-.67.98-1.18 1.29c-.51.3-1.12.45-1.81.45Zm0-1.34c.38 0 .7-.1.95-.31.26-.21.45-.5.57-.85.13-.35.2-.74.2-1.18 0-.43-.07-.83-.2-1.18a1.87 1.87 0 0 0-.56-.85 1.44 1.44 0 0 0-.95-.31c-.39 0-.71.1-.97.31a2 2 0 0 0-.57.85c-.12.35-.18.75-.18 1.18 0 .44.06.83.18 1.18.13.36.32.64.57.85.26.2.58.3.97.3Zm9.38-1.8v-4.12h1.69v7.13h-1.63V36.4h-.08c-.16.4-.42.72-.8.98a2.3 2.3 0 0 1-1.34.38 2.16 2.16 0 0 1-2.07-1.23c-.2-.4-.3-.88-.3-1.45v-4.54h1.67v4.28c0 .45.13.8.37 1.07.25.27.57.4.98.4a1.54 1.54 0 0 0 1.29-.72c.15-.24.23-.54.23-.9Zm5.1-1.17v4.18h-1.69v-7.13h1.6v1.2h.1c.16-.4.42-.7.78-.94.36-.24.8-.36 1.34-.36.49 0 .92.1 1.28.32.37.21.66.51.86.91.2.4.3.89.3 1.46v4.54h-1.68V33.4c0-.48-.12-.85-.37-1.12a1.3 1.3 0 0 0-1.02-.4 1.43 1.43 0 0 0-1.32.74c-.12.24-.19.54-.19.88Zm9.84-2.95v1.3h-4.1v-1.3h4.1Zm-3.09-1.71h1.68v6.7c0 .22.04.4.1.51.07.12.17.2.28.24.12.05.24.07.38.07a1.63 1.63 0 0 0 .5-.07l.28 1.32a3.76 3.76 0 0 1-1 .16c-.41.02-.8-.05-1.13-.19-.34-.14-.6-.36-.8-.66-.2-.3-.3-.66-.29-1.11v-6.97Zm10.03 3.6-1.54.16a1.22 1.22 0 0 0-.65-.77c-.18-.08-.4-.12-.66-.12-.35 0-.64.07-.88.22-.24.16-.35.35-.35.6 0 .2.07.37.23.5s.42.24.78.32l1.21.26a3 3 0 0 1 1.5.7c.34.3.5.72.5 1.23 0 .45-.13.85-.39 1.19-.25.34-.61.6-1.07.8-.46.19-.98.28-1.58.28-.87 0-1.57-.18-2.1-.54a2.2 2.2 0 0 1-.96-1.54l1.64-.16c.08.33.24.57.48.73.24.17.55.25.94.25.4 0 .72-.08.96-.25.25-.16.37-.36.37-.6a.63.63 0 0 0-.24-.51 1.5 1.5 0 0 0-.72-.3l-1.22-.26a2.9 2.9 0 0 1-1.52-.72 1.77 1.77 0 0 1-.48-1.3c0-.43.11-.81.35-1.14.25-.32.59-.57 1.02-.75.44-.18.94-.27 1.5-.27.84 0 1.5.18 1.98.54.48.35.78.83.9 1.44Z" fill="#fff"/><path d="M380.93 37.73a.7.7 0 0 1-.5-.21l-4.13-4.12-4.11 4.12a.72.72 0 0 1-1.01 0 .72.72 0 0 1 0-1.01l4.11-4.12-4.1-4.1a.72.72 0 0 1 0-1.02.72.72 0 0 1 1 0l4.12 4.12 4.12-4.12a.72.72 0 0 1 1.01 0c.28.28.28.73 0 1.01l-4.11 4.12 4.11 4.12a.72.72 0 0 1-.5 1.22h-.01Z" fill="#333"/></svg>