<svg width="100" height="40" fill="none" xmlns="http://www.w3.org/2000/svg"><rect width="100" height="40" rx="4" fill="#0F67F5"/><path d="M25.25 26V14.36h4.45c.84 0 1.54.14 2.1.4a2.8 2.8 0 0 1 1.68 2.62 2.3 2.3 0 0 1-1 2.03c-.32.2-.66.36-1.04.45v.11a2.64 2.64 0 0 1 2.13 1.35c.24.41.36.92.36 1.5a3 3 0 0 1-.44 1.63 3 3 0 0 1-1.31 1.14 5.2 5.2 0 0 1-2.22.41h-4.71Zm2.1-1.76h2.27c.77 0 1.32-.15 1.66-.44.34-.3.5-.67.5-1.14a1.74 1.74 0 0 0-.97-1.59 2.42 2.42 0 0 0-1.13-.24h-2.32v3.4Zm0-4.93h2.1c.36 0 .68-.06.98-.2a1.53 1.53 0 0 0 .94-1.46c0-.45-.16-.82-.48-1.11-.31-.3-.78-.44-1.4-.44h-2.13v3.21Zm13.89 3.02v-5.06h2.05V26h-2v-1.55h-.08c-.2.49-.52.89-.97 1.2-.45.3-1 .46-1.66.46a2.65 2.65 0 0 1-2.54-1.5 3.95 3.95 0 0 1-.37-1.78v-5.56h2.06v5.24c0 .55.15 1 .46 1.32.3.33.7.49 1.19.49a1.89 1.89 0 0 0 1.58-.88c.18-.3.28-.67.28-1.11Zm8.53-5.06v1.6h-5.02v-1.6h5.02Zm-3.78-2.09h2.05v8.2c0 .27.05.48.13.63.09.15.2.24.34.3.14.05.3.08.47.08a2.01 2.01 0 0 0 .6-.08l.35 1.6a4.59 4.59 0 0 1-1.21.2c-.52.02-.98-.05-1.4-.22a2.17 2.17 0 0 1-.98-.81 2.4 2.4 0 0 1-.35-1.36v-8.54Zm9.85 2.1v1.58h-5.01v-1.59h5.01Zm-3.77-2.1h2.05v8.2c0 .27.04.48.13.63.09.15.2.24.34.3.14.05.3.08.46.08a2.02 2.02 0 0 0 .6-.08l.35 1.6a4.6 4.6 0 0 1-1.2.2 3.3 3.3 0 0 1-1.4-.22 2.17 2.17 0 0 1-.98-.81 2.4 2.4 0 0 1-.35-1.36v-8.54Zm9.2 11c-.84 0-1.58-.2-2.2-.57a3.82 3.82 0 0 1-1.46-1.58 5.17 5.17 0 0 1-.51-2.36c0-.9.17-1.7.5-2.37.35-.68.84-1.2 1.46-1.58a4.23 4.23 0 0 1 2.22-.56c.85 0 1.59.19 2.21.56.63.38 1.11.9 1.45 1.58.35.68.52 1.47.52 2.37 0 .9-.17 1.69-.52 2.36-.34.68-.82 1.2-1.45 1.58-.62.37-1.36.56-2.21.56Zm.02-1.66c.46 0 .85-.12 1.16-.38.3-.26.54-.6.7-1.03.15-.43.22-.91.22-1.45a4.1 4.1 0 0 0-.23-1.44 2.3 2.3 0 0 0-.7-1.04 1.7 1.7 0 0 0-1.15-.39c-.47 0-.87.13-1.18.39-.31.25-.55.6-.7 1.04-.15.43-.23.91-.23 1.44 0 .54.08 1.02.23 1.45.15.43.39.77.7 1.03.31.26.7.38 1.18.38Zm7.97-3.63V26h-2.05v-8.73h1.96v1.49h.1c.2-.5.52-.88.96-1.17.45-.29 1-.43 1.65-.43.6 0 1.12.13 1.57.39.45.25.8.63 1.05 1.11.25.5.37 1.09.36 1.78V26h-2.05v-5.24c0-.58-.15-1.04-.46-1.37a1.6 1.6 0 0 0-1.24-.5c-.36 0-.68.09-.96.25-.28.15-.5.38-.66.67-.15.3-.23.66-.23 1.08Z" fill="#fff"/></svg>