<svg width="376" height="234" fill="none" xmlns="http://www.w3.org/2000/svg"><path fill-rule="evenodd" clip-rule="evenodd" d="M26.35 101.64c.2.2.2.52 0 .71L20.71 108l5.64 5.64a.5.5 0 0 1-.7.71L19.29 108l6.36-6.36a.5.5 0 0 1 .7 0Z" fill="#0F67F5"/><path fill="#EEE" d="M90 0h200v200H90z"/><path fill-rule="evenodd" clip-rule="evenodd" d="M351.65 101.64a.5.5 0 0 1 .7 0l6.36 6.36-6.35 6.35a.5.5 0 0 1-.71-.7l5.64-5.65-5.64-5.65a.5.5 0 0 1 0-.7Z" fill="#0F67F5" stroke="#0F67F5" stroke-linecap="round"/><circle cx="118" cy="228" r="6" fill="#AFAFAF"/><circle cx="138" cy="228" r="6" fill="#AFAFAF"/><circle cx="158" cy="228" r="6" fill="#AFAFAF"/><circle cx="178" cy="228" r="6" fill="#AFAFAF"/><circle cx="198" cy="228" r="6" fill="#AFAFAF"/><circle cx="218" cy="228" r="6" fill="#AFAFAF"/><circle cx="238" cy="228" r="6" fill="#AFAFAF"/><circle cx="258" cy="228" r="6" fill="#AFAFAF"/></svg>