<svg width="238" height="220" viewBox="0 0 238 220" fill="none" xmlns="http://www.w3.org/2000/svg">
<g clip-path="url(#clip0_1445_5535)">
<rect x="40" y="4" width="24" height="24" rx="2" fill="#0F67F5"/>
<path d="M58 16H46" stroke="white" stroke-width="1.7" stroke-linecap="round"/>
</g>
<path d="M79.7727 13.2727C79.7045 12.697 79.428 12.25 78.9432 11.9318C78.4583 11.6136 77.8636 11.4545 77.1591 11.4545C76.6439 11.4545 76.1932 11.5379 75.8068 11.7045C75.4242 11.8712 75.125 12.1004 74.9091 12.392C74.697 12.6837 74.5909 13.0152 74.5909 13.3864C74.5909 13.697 74.6648 13.964 74.8125 14.1875C74.964 14.4072 75.1572 14.5909 75.392 14.7386C75.6269 14.8826 75.8731 15.0019 76.1307 15.0966C76.3883 15.1875 76.625 15.2614 76.8409 15.3182L78.0227 15.6364C78.3258 15.7159 78.6629 15.8258 79.0341 15.9659C79.4091 16.1061 79.767 16.2973 80.108 16.5398C80.4527 16.7784 80.7367 17.0852 80.9602 17.4602C81.1837 17.8352 81.2955 18.2955 81.2955 18.8409C81.2955 19.4697 81.1307 20.0379 80.8011 20.5455C80.4754 21.053 79.9981 21.4564 79.3693 21.7557C78.7443 22.0549 77.9848 22.2045 77.0909 22.2045C76.2576 22.2045 75.536 22.0701 74.9261 21.8011C74.3201 21.5322 73.8428 21.1572 73.4943 20.6761C73.1496 20.1951 72.9545 19.6364 72.9091 19H74.3636C74.4015 19.4394 74.5492 19.803 74.8068 20.0909C75.0682 20.375 75.3977 20.5871 75.7955 20.7273C76.197 20.8636 76.6288 20.9318 77.0909 20.9318C77.6288 20.9318 78.1117 20.8447 78.5398 20.6705C78.9678 20.4924 79.3068 20.2462 79.5568 19.9318C79.8068 19.6136 79.9318 19.2424 79.9318 18.8182C79.9318 18.4318 79.8239 18.1174 79.608 17.875C79.392 17.6326 79.108 17.4356 78.7557 17.2841C78.4034 17.1326 78.0227 17 77.6136 16.8864L76.1818 16.4773C75.2727 16.2159 74.553 15.8428 74.0227 15.358C73.4924 14.8731 73.2273 14.2386 73.2273 13.4545C73.2273 12.803 73.4034 12.2348 73.7557 11.75C74.1117 11.2614 74.589 10.8826 75.1875 10.6136C75.7898 10.3409 76.4621 10.2045 77.2045 10.2045C77.9545 10.2045 78.6212 10.339 79.2045 10.608C79.7879 10.8731 80.25 11.2367 80.5909 11.6989C80.9356 12.161 81.1174 12.6856 81.1364 13.2727H79.7727ZM83.4304 25.2727V13.2727H84.7259V14.6591H84.8849C84.9834 14.5076 85.1198 14.3144 85.294 14.0795C85.4721 13.8409 85.7259 13.6288 86.0554 13.4432C86.3887 13.2538 86.8395 13.1591 87.4077 13.1591C88.1425 13.1591 88.7902 13.3428 89.3509 13.7102C89.9115 14.0777 90.349 14.5985 90.6634 15.2727C90.9777 15.947 91.1349 16.7424 91.1349 17.6591C91.1349 18.5833 90.9777 19.3845 90.6634 20.0625C90.349 20.7367 89.9134 21.2595 89.3565 21.6307C88.7997 21.9981 88.1577 22.1818 87.4304 22.1818C86.8698 22.1818 86.4209 22.089 86.0838 21.9034C85.7467 21.714 85.4872 21.5 85.3054 21.2614C85.1236 21.0189 84.9834 20.8182 84.8849 20.6591H84.7713V25.2727H83.4304ZM84.7486 17.6364C84.7486 18.2955 84.8452 18.8769 85.0384 19.3807C85.2315 19.8807 85.5137 20.2727 85.8849 20.5568C86.2562 20.8371 86.7107 20.9773 87.2486 20.9773C87.8092 20.9773 88.277 20.8295 88.652 20.5341C89.0308 20.2348 89.3149 19.8333 89.5043 19.3295C89.6974 18.822 89.794 18.2576 89.794 17.6364C89.794 17.0227 89.6993 16.4697 89.5099 15.9773C89.3243 15.4811 89.0421 15.089 88.6634 14.8011C88.2884 14.5095 87.8168 14.3636 87.2486 14.3636C86.7031 14.3636 86.2448 14.5019 85.8736 14.7784C85.5024 15.0511 85.2221 15.4337 85.0327 15.9261C84.8433 16.4148 84.7486 16.9848 84.7486 17.6364ZM96.8395 22.1818C95.9986 22.1818 95.2732 21.9962 94.6634 21.625C94.0573 21.25 93.5895 20.7273 93.2599 20.0568C92.9342 19.3826 92.7713 18.5985 92.7713 17.7045C92.7713 16.8106 92.9342 16.0227 93.2599 15.3409C93.5895 14.6553 94.0478 14.1212 94.6349 13.7386C95.2259 13.3523 95.9152 13.1591 96.7031 13.1591C97.1577 13.1591 97.6065 13.2348 98.0497 13.3864C98.4929 13.5379 98.8963 13.7841 99.2599 14.125C99.6236 14.4621 99.9134 14.9091 100.129 15.4659C100.345 16.0227 100.453 16.7083 100.453 17.5227V18.0909H93.7259V16.9318H99.0895C99.0895 16.4394 98.991 16 98.794 15.6136C98.6009 15.2273 98.3243 14.9223 97.9645 14.6989C97.6084 14.4754 97.188 14.3636 96.7031 14.3636C96.169 14.3636 95.7069 14.4962 95.3168 14.7614C94.9304 15.0227 94.633 15.3636 94.4247 15.7841C94.2164 16.2045 94.1122 16.6553 94.1122 17.1364V17.9091C94.1122 18.5682 94.2259 19.1269 94.4531 19.5852C94.6842 20.0398 95.0043 20.3864 95.4134 20.625C95.8224 20.8598 96.2978 20.9773 96.8395 20.9773C97.1918 20.9773 97.5099 20.928 97.794 20.8295C98.0819 20.7273 98.33 20.5758 98.5384 20.375C98.7467 20.1705 98.9077 19.9167 99.0213 19.6136L100.317 19.9773C100.18 20.4167 99.9512 20.803 99.6293 21.1364C99.3073 21.4659 98.9096 21.7235 98.4361 21.9091C97.9626 22.0909 97.4304 22.1818 96.8395 22.1818ZM103.834 10.3636V22H102.493V10.3636H103.834ZM107.631 10.3636V22H106.29V10.3636H107.631ZM110.087 22V13.2727H111.428V22H110.087ZM110.768 11.8182C110.507 11.8182 110.282 11.7292 110.092 11.5511C109.907 11.3731 109.814 11.1591 109.814 10.9091C109.814 10.6591 109.907 10.4451 110.092 10.267C110.282 10.089 110.507 10 110.768 10C111.03 10 111.253 10.089 111.439 10.267C111.628 10.4451 111.723 10.6591 111.723 10.9091C111.723 11.1591 111.628 11.3731 111.439 11.5511C111.253 11.7292 111.03 11.8182 110.768 11.8182ZM115.224 16.75V22H113.884V13.2727H115.179V14.6364H115.293C115.497 14.1932 115.808 13.8371 116.224 13.5682C116.641 13.2955 117.179 13.1591 117.838 13.1591C118.429 13.1591 118.946 13.2803 119.389 13.5227C119.832 13.7614 120.177 14.125 120.423 14.6136C120.67 15.0985 120.793 15.7121 120.793 16.4545V22H119.452V16.5455C119.452 15.8598 119.274 15.3258 118.918 14.9432C118.562 14.5568 118.073 14.3636 117.452 14.3636C117.024 14.3636 116.641 14.4564 116.304 14.642C115.971 14.8277 115.707 15.0985 115.514 15.4545C115.321 15.8106 115.224 16.2424 115.224 16.75ZM126.766 25.4545C126.118 25.4545 125.561 25.3712 125.095 25.2045C124.629 25.0417 124.241 24.8258 123.93 24.5568C123.624 24.2917 123.379 24.0076 123.197 23.7045L124.266 22.9545C124.387 23.1136 124.54 23.2955 124.726 23.5C124.911 23.7083 125.165 23.8883 125.487 24.0398C125.813 24.1951 126.239 24.2727 126.766 24.2727C127.47 24.2727 128.052 24.1023 128.51 23.7614C128.968 23.4205 129.197 22.8864 129.197 22.1591V20.3864H129.084C128.985 20.5455 128.845 20.7424 128.663 20.9773C128.485 21.2083 128.228 21.4148 127.891 21.5966C127.557 21.7746 127.107 21.8636 126.538 21.8636C125.834 21.8636 125.201 21.697 124.641 21.3636C124.084 21.0303 123.643 20.5455 123.317 19.9091C122.995 19.2727 122.834 18.5 122.834 17.5909C122.834 16.697 122.991 15.9186 123.305 15.2557C123.62 14.589 124.057 14.0739 124.618 13.7102C125.179 13.3428 125.826 13.1591 126.561 13.1591C127.129 13.1591 127.58 13.2538 127.913 13.4432C128.25 13.6288 128.508 13.8409 128.686 14.0795C128.868 14.3144 129.008 14.5076 129.107 14.6591H129.243V13.2727H130.538V22.25C130.538 23 130.368 23.6098 130.027 24.0795C129.69 24.553 129.235 24.8996 128.663 25.1193C128.095 25.3428 127.463 25.4545 126.766 25.4545ZM126.72 20.6591C127.258 20.6591 127.713 20.536 128.084 20.2898C128.455 20.0436 128.737 19.6894 128.93 19.2273C129.124 18.7652 129.22 18.2121 129.22 17.5682C129.22 16.9394 129.125 16.3845 128.936 15.9034C128.747 15.4223 128.466 15.0455 128.095 14.7727C127.724 14.5 127.266 14.3636 126.72 14.3636C126.152 14.3636 125.679 14.5076 125.3 14.7955C124.925 15.0833 124.643 15.4697 124.453 15.9545C124.268 16.4394 124.175 16.9773 124.175 17.5682C124.175 18.1742 124.269 18.7102 124.459 19.1761C124.652 19.6383 124.936 20.0019 125.311 20.267C125.69 20.5284 126.16 20.6591 126.72 20.6591Z" fill="#333333"/>
<path d="M13.9999 20.6199C13.8399 20.6199 13.6799 20.5599 13.5599 20.4399C13.3199 20.1999 13.3199 19.7999 13.5599 19.5599L17.1199 15.9999L13.5599 12.4399C13.3199 12.1999 13.3199 11.7999 13.5599 11.5599C13.7999 11.3199 14.1999 11.3199 14.4399 11.5599L18.4399 15.5599C18.6799 15.7999 18.6799 16.1999 18.4399 16.4399L14.4399 20.4399C14.3199 20.5599 14.1599 20.6199 13.9999 20.6199Z" fill="#333333"/>
<path d="M31.9999 62.6199C31.8399 62.6199 31.6799 62.5599 31.5599 62.4399L27.5599 58.4399C27.3199 58.1999 27.3199 57.7999 27.5599 57.5599C27.7999 57.3199 28.1999 57.3199 28.4399 57.5599L31.9999 61.1199L35.5599 57.5599C35.7999 57.3199 36.1999 57.3199 36.4399 57.5599C36.6799 57.7999 36.6799 58.1999 36.4399 58.4399L32.4399 62.4399C32.3199 62.5599 32.1599 62.6199 31.9999 62.6199Z" fill="#333333"/>
<g clip-path="url(#clip1_1445_5535)">
<rect x="56" y="48" width="24" height="24" rx="2" fill="#0F67F5"/>
<path d="M74 60H62" stroke="white" stroke-width="1.7" stroke-linecap="round"/>
</g>
<path d="M89.4091 66V54.3636H93.4773C94.2879 54.3636 94.9564 54.5038 95.483 54.7841C96.0095 55.0606 96.4015 55.4337 96.6591 55.9034C96.9167 56.3693 97.0455 56.8864 97.0455 57.4545C97.0455 57.9545 96.9564 58.3674 96.7784 58.6932C96.6042 59.0189 96.3731 59.2765 96.0852 59.4659C95.8011 59.6553 95.4924 59.7955 95.1591 59.8864V60C95.5152 60.0227 95.8731 60.1477 96.233 60.375C96.5928 60.6023 96.8939 60.928 97.1364 61.3523C97.3788 61.7765 97.5 62.2955 97.5 62.9091C97.5 63.4924 97.3674 64.017 97.1023 64.483C96.8371 64.9489 96.4186 65.3182 95.8466 65.5909C95.2746 65.8636 94.5303 66 93.6136 66H89.4091ZM90.8182 64.75H93.6136C94.5341 64.75 95.1875 64.572 95.5739 64.2159C95.964 63.8561 96.1591 63.4205 96.1591 62.9091C96.1591 62.5152 96.0587 62.1515 95.858 61.8182C95.6572 61.4811 95.3712 61.2121 95 61.0114C94.6288 60.8068 94.1894 60.7045 93.6818 60.7045H90.8182V64.75ZM90.8182 59.4773H93.4318C93.8561 59.4773 94.2386 59.3939 94.5795 59.2273C94.9242 59.0606 95.197 58.8258 95.3977 58.5227C95.6023 58.2197 95.7045 57.8636 95.7045 57.4545C95.7045 56.9432 95.5265 56.5095 95.1705 56.1534C94.8144 55.7936 94.25 55.6136 93.4773 55.6136H90.8182V59.4773ZM105.134 62.4318V57.2727H106.474V66H105.134V64.5227H105.043C104.838 64.9659 104.52 65.3428 104.088 65.6534C103.656 65.9602 103.111 66.1136 102.452 66.1136C101.906 66.1136 101.421 65.9943 100.997 65.7557C100.573 65.5133 100.24 65.1496 99.9972 64.6648C99.7547 64.1761 99.6335 63.5606 99.6335 62.8182V57.2727H100.974V62.7273C100.974 63.3636 101.152 63.8712 101.509 64.25C101.868 64.6288 102.327 64.8182 102.884 64.8182C103.217 64.8182 103.556 64.733 103.901 64.5625C104.249 64.392 104.541 64.1307 104.776 63.7784C105.014 63.4261 105.134 62.9773 105.134 62.4318ZM108.93 66V57.2727H110.271V66H108.93ZM109.612 55.8182C109.351 55.8182 109.125 55.7292 108.936 55.5511C108.75 55.3731 108.658 55.1591 108.658 54.9091C108.658 54.6591 108.75 54.4451 108.936 54.267C109.125 54.089 109.351 54 109.612 54C109.874 54 110.097 54.089 110.283 54.267C110.472 54.4451 110.567 54.6591 110.567 54.9091C110.567 55.1591 110.472 55.3731 110.283 55.5511C110.097 55.7292 109.874 55.8182 109.612 55.8182ZM114.068 54.3636V66H112.727V54.3636H114.068ZM119.82 66.1818C119.092 66.1818 118.45 65.9981 117.893 65.6307C117.337 65.2595 116.901 64.7367 116.587 64.0625C116.272 63.3845 116.115 62.5833 116.115 61.6591C116.115 60.7424 116.272 59.947 116.587 59.2727C116.901 58.5985 117.339 58.0777 117.899 57.7102C118.46 57.3428 119.107 57.1591 119.842 57.1591C120.411 57.1591 120.859 57.2538 121.189 57.4432C121.522 57.6288 121.776 57.8409 121.95 58.0795C122.128 58.3144 122.267 58.5076 122.365 58.6591H122.479V54.3636H123.82V66H122.524V64.6591H122.365C122.267 64.8182 122.126 65.0189 121.945 65.2614C121.763 65.5 121.503 65.714 121.166 65.9034C120.829 66.089 120.38 66.1818 119.82 66.1818ZM120.001 64.9773C120.539 64.9773 120.994 64.8371 121.365 64.5568C121.736 64.2727 122.018 63.8807 122.212 63.3807C122.405 62.8769 122.501 62.2955 122.501 61.6364C122.501 60.9848 122.407 60.4148 122.217 59.9261C122.028 59.4337 121.748 59.0511 121.376 58.7784C121.005 58.5019 120.547 58.3636 120.001 58.3636C119.433 58.3636 118.96 58.5095 118.581 58.8011C118.206 59.089 117.924 59.4811 117.734 59.9773C117.549 60.4697 117.456 61.0227 117.456 61.6364C117.456 62.2576 117.551 62.822 117.74 63.3295C117.933 63.8333 118.217 64.2348 118.592 64.5341C118.971 64.8295 119.441 64.9773 120.001 64.9773ZM126.462 66V57.2727H127.803V66H126.462ZM127.143 55.8182C126.882 55.8182 126.657 55.7292 126.467 55.5511C126.282 55.3731 126.189 55.1591 126.189 54.9091C126.189 54.6591 126.282 54.4451 126.467 54.267C126.657 54.089 126.882 54 127.143 54C127.405 54 127.628 54.089 127.814 54.267C128.003 54.4451 128.098 54.6591 128.098 54.9091C128.098 55.1591 128.003 55.3731 127.814 55.5511C127.628 55.7292 127.405 55.8182 127.143 55.8182ZM131.599 60.75V66H130.259V57.2727H131.554V58.6364H131.668C131.872 58.1932 132.183 57.8371 132.599 57.5682C133.016 57.2955 133.554 57.1591 134.213 57.1591C134.804 57.1591 135.321 57.2803 135.764 57.5227C136.207 57.7614 136.552 58.125 136.798 58.6136C137.045 59.0985 137.168 59.7121 137.168 60.4545V66H135.827V60.5455C135.827 59.8598 135.649 59.3258 135.293 58.9432C134.937 58.5568 134.448 58.3636 133.827 58.3636C133.399 58.3636 133.016 58.4564 132.679 58.642C132.346 58.8277 132.082 59.0985 131.889 59.4545C131.696 59.8106 131.599 60.2424 131.599 60.75ZM143.141 69.4545C142.493 69.4545 141.936 69.3712 141.47 69.2045C141.004 69.0417 140.616 68.8258 140.305 68.5568C139.999 68.2917 139.754 68.0076 139.572 67.7045L140.641 66.9545C140.762 67.1136 140.915 67.2955 141.101 67.5C141.286 67.7083 141.54 67.8883 141.862 68.0398C142.188 68.1951 142.614 68.2727 143.141 68.2727C143.845 68.2727 144.427 68.1023 144.885 67.7614C145.343 67.4205 145.572 66.8864 145.572 66.1591V64.3864H145.459C145.36 64.5455 145.22 64.7424 145.038 64.9773C144.86 65.2083 144.603 65.4148 144.266 65.5966C143.932 65.7746 143.482 65.8636 142.913 65.8636C142.209 65.8636 141.576 65.697 141.016 65.3636C140.459 65.0303 140.018 64.5455 139.692 63.9091C139.37 63.2727 139.209 62.5 139.209 61.5909C139.209 60.697 139.366 59.9186 139.68 59.2557C139.995 58.589 140.432 58.0739 140.993 57.7102C141.554 57.3428 142.201 57.1591 142.936 57.1591C143.504 57.1591 143.955 57.2538 144.288 57.4432C144.625 57.6288 144.883 57.8409 145.061 58.0795C145.243 58.3144 145.383 58.5076 145.482 58.6591H145.618V57.2727H146.913V66.25C146.913 67 146.743 67.6098 146.402 68.0795C146.065 68.553 145.61 68.8996 145.038 69.1193C144.47 69.3428 143.838 69.4545 143.141 69.4545ZM143.095 64.6591C143.633 64.6591 144.088 64.536 144.459 64.2898C144.83 64.0436 145.112 63.6894 145.305 63.2273C145.499 62.7652 145.595 62.2121 145.595 61.5682C145.595 60.9394 145.5 60.3845 145.311 59.9034C145.122 59.4223 144.841 59.0455 144.47 58.7727C144.099 58.5 143.641 58.3636 143.095 58.3636C142.527 58.3636 142.054 58.5076 141.675 58.7955C141.3 59.0833 141.018 59.4697 140.828 59.9545C140.643 60.4394 140.55 60.9773 140.55 61.5682C140.55 62.1742 140.644 62.7102 140.834 63.1761C141.027 63.6383 141.311 64.0019 141.686 64.267C142.065 64.5284 142.535 64.6591 143.095 64.6591ZM155.845 66L153.186 57.2727H154.595L156.482 63.9545H156.572L158.436 57.2727H159.868L161.709 63.9318H161.8L163.686 57.2727H165.095L162.436 66H161.118L159.209 59.2955H159.072L157.163 66H155.845ZM170.116 66.1818C169.329 66.1818 168.637 65.9943 168.043 65.6193C167.452 65.2443 166.99 64.7197 166.656 64.0455C166.327 63.3712 166.162 62.5833 166.162 61.6818C166.162 60.7727 166.327 59.9792 166.656 59.3011C166.99 58.6231 167.452 58.0966 168.043 57.7216C168.637 57.3466 169.329 57.1591 170.116 57.1591C170.904 57.1591 171.594 57.3466 172.185 57.7216C172.779 58.0966 173.241 58.6231 173.571 59.3011C173.904 59.9792 174.071 60.7727 174.071 61.6818C174.071 62.5833 173.904 63.3712 173.571 64.0455C173.241 64.7197 172.779 65.2443 172.185 65.6193C171.594 65.9943 170.904 66.1818 170.116 66.1818ZM170.116 64.9773C170.715 64.9773 171.207 64.8239 171.594 64.517C171.98 64.2102 172.266 63.8068 172.452 63.3068C172.637 62.8068 172.73 62.2652 172.73 61.6818C172.73 61.0985 172.637 60.5549 172.452 60.0511C172.266 59.5473 171.98 59.1402 171.594 58.8295C171.207 58.5189 170.715 58.3636 170.116 58.3636C169.518 58.3636 169.026 58.5189 168.639 58.8295C168.253 59.1402 167.967 59.5473 167.781 60.0511C167.596 60.5549 167.503 61.0985 167.503 61.6818C167.503 62.2652 167.596 62.8068 167.781 63.3068C167.967 63.8068 168.253 64.2102 168.639 64.517C169.026 64.8239 169.518 64.9773 170.116 64.9773ZM176.118 66V57.2727H177.413V58.5909H177.504C177.663 58.1591 177.951 57.8087 178.368 57.5398C178.785 57.2708 179.254 57.1364 179.777 57.1364C179.875 57.1364 179.999 57.1383 180.146 57.142C180.294 57.1458 180.406 57.1515 180.482 57.1591V58.5227C180.436 58.5114 180.332 58.4943 180.169 58.4716C180.01 58.4451 179.841 58.4318 179.663 58.4318C179.239 58.4318 178.86 58.5208 178.527 58.6989C178.197 58.8731 177.936 59.1155 177.743 59.4261C177.554 59.733 177.459 60.0833 177.459 60.4773V66H176.118ZM185.101 66.1818C184.374 66.1818 183.732 65.9981 183.175 65.6307C182.618 65.2595 182.182 64.7367 181.868 64.0625C181.554 63.3845 181.396 62.5833 181.396 61.6591C181.396 60.7424 181.554 59.947 181.868 59.2727C182.182 58.5985 182.62 58.0777 183.18 57.7102C183.741 57.3428 184.389 57.1591 185.124 57.1591C185.692 57.1591 186.141 57.2538 186.47 57.4432C186.804 57.6288 187.057 57.8409 187.232 58.0795C187.41 58.3144 187.548 58.5076 187.646 58.6591H187.76V54.3636H189.101V66H187.805V64.6591H187.646C187.548 64.8182 187.408 65.0189 187.226 65.2614C187.044 65.5 186.785 65.714 186.447 65.9034C186.11 66.089 185.661 66.1818 185.101 66.1818ZM185.283 64.9773C185.821 64.9773 186.275 64.8371 186.646 64.5568C187.018 64.2727 187.3 63.8807 187.493 63.3807C187.686 62.8769 187.783 62.2955 187.783 61.6364C187.783 60.9848 187.688 60.4148 187.499 59.9261C187.309 59.4337 187.029 59.0511 186.658 58.7784C186.286 58.5019 185.828 58.3636 185.283 58.3636C184.714 58.3636 184.241 58.5095 183.862 58.8011C183.487 59.089 183.205 59.4811 183.016 59.9773C182.83 60.4697 182.737 61.0227 182.737 61.6364C182.737 62.2576 182.832 62.822 183.021 63.3295C183.214 63.8333 183.499 64.2348 183.874 64.5341C184.252 64.8295 184.722 64.9773 185.283 64.9773ZM197.925 59.2273L196.72 59.5682C196.644 59.3674 196.533 59.1723 196.385 58.983C196.241 58.7898 196.044 58.6307 195.794 58.5057C195.544 58.3807 195.224 58.3182 194.834 58.3182C194.3 58.3182 193.855 58.4413 193.499 58.6875C193.146 58.9299 192.97 59.2386 192.97 59.6136C192.97 59.947 193.091 60.2102 193.334 60.4034C193.576 60.5966 193.955 60.7576 194.47 60.8864L195.766 61.2045C196.546 61.3939 197.127 61.6837 197.51 62.0739C197.893 62.4602 198.084 62.9583 198.084 63.5682C198.084 64.0682 197.94 64.5152 197.652 64.9091C197.368 65.303 196.97 65.6136 196.459 65.8409C195.947 66.0682 195.353 66.1818 194.675 66.1818C193.785 66.1818 193.048 65.9886 192.464 65.6023C191.881 65.2159 191.512 64.6515 191.357 63.9091L192.629 63.5909C192.75 64.0606 192.98 64.4129 193.317 64.6477C193.658 64.8826 194.103 65 194.652 65C195.277 65 195.773 64.8674 196.141 64.6023C196.512 64.3333 196.697 64.0114 196.697 63.6364C196.697 63.3333 196.591 63.0795 196.379 62.875C196.167 62.6667 195.841 62.5114 195.402 62.4091L193.947 62.0682C193.148 61.8788 192.561 61.5852 192.186 61.1875C191.815 60.786 191.629 60.2841 191.629 59.6818C191.629 59.1894 191.768 58.7538 192.044 58.375C192.324 57.9962 192.705 57.6989 193.186 57.483C193.671 57.267 194.22 57.1591 194.834 57.1591C195.697 57.1591 196.375 57.3485 196.868 57.7273C197.364 58.1061 197.716 58.6061 197.925 59.2273Z" fill="#333333"/>
<g clip-path="url(#clip2_1445_5535)">
<rect x="72" y="96" width="24" height="24" rx="2" fill="#0F67F5"/>
<path d="M78 108.75L81.75 112.5L90 104.25" stroke="white" stroke-width="1.7" stroke-linecap="round" stroke-linejoin="round"/>
</g>
<path d="M105.409 114V102.364H109.341C110.254 102.364 111 102.528 111.58 102.858C112.163 103.184 112.595 103.625 112.875 104.182C113.155 104.739 113.295 105.36 113.295 106.045C113.295 106.731 113.155 107.354 112.875 107.915C112.598 108.475 112.17 108.922 111.591 109.256C111.011 109.585 110.269 109.75 109.364 109.75H106.545V108.5H109.318C109.943 108.5 110.445 108.392 110.824 108.176C111.203 107.96 111.477 107.669 111.648 107.301C111.822 106.93 111.909 106.511 111.909 106.045C111.909 105.58 111.822 105.163 111.648 104.795C111.477 104.428 111.201 104.14 110.818 103.932C110.436 103.72 109.928 103.614 109.295 103.614H106.818V114H105.409ZM116.724 102.364V114H115.384V102.364H116.724ZM124.68 110.432V105.273H126.021V114H124.68V112.523H124.589C124.385 112.966 124.067 113.343 123.635 113.653C123.203 113.96 122.658 114.114 121.999 114.114C121.453 114.114 120.968 113.994 120.544 113.756C120.12 113.513 119.786 113.15 119.544 112.665C119.302 112.176 119.18 111.561 119.18 110.818V105.273H120.521V110.727C120.521 111.364 120.699 111.871 121.055 112.25C121.415 112.629 121.874 112.818 122.43 112.818C122.764 112.818 123.103 112.733 123.447 112.562C123.796 112.392 124.088 112.131 124.322 111.778C124.561 111.426 124.68 110.977 124.68 110.432ZM128.477 114V105.273H129.773V106.591H129.864C130.023 106.159 130.311 105.809 130.727 105.54C131.144 105.271 131.614 105.136 132.136 105.136C132.235 105.136 132.358 105.138 132.506 105.142C132.653 105.146 132.765 105.152 132.841 105.159V106.523C132.795 106.511 132.691 106.494 132.528 106.472C132.369 106.445 132.201 106.432 132.023 106.432C131.598 106.432 131.22 106.521 130.886 106.699C130.557 106.873 130.295 107.116 130.102 107.426C129.913 107.733 129.818 108.083 129.818 108.477V114H128.477ZM136.999 114.205C136.446 114.205 135.944 114.1 135.493 113.892C135.042 113.68 134.684 113.375 134.419 112.977C134.154 112.576 134.021 112.091 134.021 111.523C134.021 111.023 134.12 110.617 134.317 110.307C134.514 109.992 134.777 109.746 135.107 109.568C135.436 109.39 135.8 109.258 136.197 109.17C136.599 109.08 137.002 109.008 137.408 108.955C137.938 108.886 138.368 108.835 138.697 108.801C139.031 108.763 139.273 108.701 139.425 108.614C139.58 108.527 139.658 108.375 139.658 108.159V108.114C139.658 107.553 139.504 107.117 139.197 106.807C138.894 106.496 138.434 106.341 137.817 106.341C137.177 106.341 136.675 106.481 136.311 106.761C135.947 107.042 135.692 107.341 135.544 107.659L134.271 107.205C134.499 106.674 134.802 106.261 135.18 105.966C135.563 105.667 135.98 105.458 136.43 105.341C136.885 105.22 137.332 105.159 137.771 105.159C138.052 105.159 138.374 105.193 138.737 105.261C139.105 105.326 139.459 105.46 139.8 105.665C140.144 105.869 140.43 106.178 140.658 106.591C140.885 107.004 140.999 107.557 140.999 108.25V114H139.658V112.818H139.589C139.499 113.008 139.347 113.21 139.135 113.426C138.923 113.642 138.641 113.826 138.288 113.977C137.936 114.129 137.506 114.205 136.999 114.205ZM137.203 113C137.733 113 138.18 112.896 138.544 112.688C138.911 112.479 139.188 112.21 139.374 111.881C139.563 111.551 139.658 111.205 139.658 110.841V109.614C139.601 109.682 139.476 109.744 139.283 109.801C139.093 109.854 138.874 109.902 138.624 109.943C138.377 109.981 138.137 110.015 137.902 110.045C137.671 110.072 137.483 110.095 137.339 110.114C136.991 110.159 136.665 110.233 136.362 110.335C136.063 110.434 135.821 110.583 135.635 110.784C135.453 110.981 135.362 111.25 135.362 111.591C135.362 112.057 135.535 112.409 135.879 112.648C136.228 112.883 136.669 113 137.203 113ZM144.787 102.364V114H143.446V102.364H144.787ZM153.425 107.227L152.22 107.568C152.144 107.367 152.033 107.172 151.885 106.983C151.741 106.79 151.544 106.631 151.294 106.506C151.044 106.381 150.724 106.318 150.334 106.318C149.8 106.318 149.355 106.441 148.999 106.688C148.646 106.93 148.47 107.239 148.47 107.614C148.47 107.947 148.591 108.21 148.834 108.403C149.076 108.597 149.455 108.758 149.97 108.886L151.266 109.205C152.046 109.394 152.627 109.684 153.01 110.074C153.393 110.46 153.584 110.958 153.584 111.568C153.584 112.068 153.44 112.515 153.152 112.909C152.868 113.303 152.47 113.614 151.959 113.841C151.447 114.068 150.853 114.182 150.175 114.182C149.285 114.182 148.548 113.989 147.964 113.602C147.381 113.216 147.012 112.652 146.857 111.909L148.129 111.591C148.25 112.061 148.48 112.413 148.817 112.648C149.158 112.883 149.603 113 150.152 113C150.777 113 151.273 112.867 151.641 112.602C152.012 112.333 152.197 112.011 152.197 111.636C152.197 111.333 152.091 111.08 151.879 110.875C151.667 110.667 151.341 110.511 150.902 110.409L149.447 110.068C148.648 109.879 148.061 109.585 147.686 109.188C147.315 108.786 147.129 108.284 147.129 107.682C147.129 107.189 147.268 106.754 147.544 106.375C147.824 105.996 148.205 105.699 148.686 105.483C149.171 105.267 149.72 105.159 150.334 105.159C151.197 105.159 151.875 105.348 152.368 105.727C152.864 106.106 153.216 106.606 153.425 107.227Z" fill="#333333"/>
<rect x="72.5" y="144.5" width="23" height="23" rx="1.5" fill="white" stroke="#545454"/>
<path d="M114.773 154H113.364C113.28 153.595 113.134 153.239 112.926 152.932C112.722 152.625 112.472 152.367 112.176 152.159C111.884 151.947 111.561 151.788 111.205 151.682C110.848 151.576 110.477 151.523 110.091 151.523C109.386 151.523 108.748 151.701 108.176 152.057C107.608 152.413 107.155 152.938 106.818 153.631C106.485 154.324 106.318 155.174 106.318 156.182C106.318 157.189 106.485 158.04 106.818 158.733C107.155 159.426 107.608 159.951 108.176 160.307C108.748 160.663 109.386 160.841 110.091 160.841C110.477 160.841 110.848 160.788 111.205 160.682C111.561 160.576 111.884 160.419 112.176 160.21C112.472 159.998 112.722 159.739 112.926 159.432C113.134 159.121 113.28 158.765 113.364 158.364H114.773C114.667 158.958 114.473 159.491 114.193 159.96C113.913 160.43 113.564 160.83 113.148 161.159C112.731 161.485 112.263 161.733 111.744 161.903C111.229 162.074 110.678 162.159 110.091 162.159C109.098 162.159 108.216 161.917 107.443 161.432C106.67 160.947 106.063 160.258 105.619 159.364C105.176 158.47 104.955 157.409 104.955 156.182C104.955 154.955 105.176 153.894 105.619 153C106.063 152.106 106.67 151.417 107.443 150.932C108.216 150.447 109.098 150.205 110.091 150.205C110.678 150.205 111.229 150.29 111.744 150.46C112.263 150.631 112.731 150.881 113.148 151.21C113.564 151.536 113.913 151.934 114.193 152.403C114.473 152.869 114.667 153.402 114.773 154ZM120.413 162.182C119.625 162.182 118.934 161.994 118.339 161.619C117.749 161.244 117.286 160.72 116.953 160.045C116.624 159.371 116.459 158.583 116.459 157.682C116.459 156.773 116.624 155.979 116.953 155.301C117.286 154.623 117.749 154.097 118.339 153.722C118.934 153.347 119.625 153.159 120.413 153.159C121.201 153.159 121.891 153.347 122.482 153.722C123.076 154.097 123.538 154.623 123.868 155.301C124.201 155.979 124.368 156.773 124.368 157.682C124.368 158.583 124.201 159.371 123.868 160.045C123.538 160.72 123.076 161.244 122.482 161.619C121.891 161.994 121.201 162.182 120.413 162.182ZM120.413 160.977C121.012 160.977 121.504 160.824 121.891 160.517C122.277 160.21 122.563 159.807 122.749 159.307C122.934 158.807 123.027 158.265 123.027 157.682C123.027 157.098 122.934 156.555 122.749 156.051C122.563 155.547 122.277 155.14 121.891 154.83C121.504 154.519 121.012 154.364 120.413 154.364C119.815 154.364 119.322 154.519 118.936 154.83C118.55 155.14 118.264 155.547 118.078 156.051C117.893 156.555 117.8 157.098 117.8 157.682C117.8 158.265 117.893 158.807 118.078 159.307C118.264 159.807 118.55 160.21 118.936 160.517C119.322 160.824 119.815 160.977 120.413 160.977ZM126.415 162V153.273H127.71V154.636H127.824C128.006 154.17 128.299 153.809 128.705 153.551C129.11 153.29 129.597 153.159 130.165 153.159C130.741 153.159 131.22 153.29 131.602 153.551C131.989 153.809 132.29 154.17 132.506 154.636H132.597C132.82 154.186 133.155 153.828 133.602 153.562C134.049 153.294 134.585 153.159 135.21 153.159C135.991 153.159 136.629 153.403 137.125 153.892C137.621 154.377 137.869 155.133 137.869 156.159V162H136.528V156.159C136.528 155.515 136.352 155.055 136 154.778C135.648 154.502 135.233 154.364 134.756 154.364C134.142 154.364 133.667 154.549 133.33 154.92C132.992 155.288 132.824 155.754 132.824 156.318V162H131.46V156.023C131.46 155.527 131.299 155.127 130.977 154.824C130.655 154.517 130.241 154.364 129.733 154.364C129.384 154.364 129.059 154.456 128.756 154.642C128.456 154.828 128.214 155.085 128.028 155.415C127.847 155.741 127.756 156.117 127.756 156.545V162H126.415ZM140.321 165.273V153.273H141.616V154.659H141.776C141.874 154.508 142.01 154.314 142.185 154.08C142.363 153.841 142.616 153.629 142.946 153.443C143.279 153.254 143.73 153.159 144.298 153.159C145.033 153.159 145.681 153.343 146.241 153.71C146.802 154.078 147.24 154.598 147.554 155.273C147.868 155.947 148.026 156.742 148.026 157.659C148.026 158.583 147.868 159.384 147.554 160.062C147.24 160.737 146.804 161.259 146.247 161.631C145.69 161.998 145.048 162.182 144.321 162.182C143.76 162.182 143.312 162.089 142.974 161.903C142.637 161.714 142.378 161.5 142.196 161.261C142.014 161.019 141.874 160.818 141.776 160.659H141.662V165.273H140.321ZM141.639 157.636C141.639 158.295 141.736 158.877 141.929 159.381C142.122 159.881 142.404 160.273 142.776 160.557C143.147 160.837 143.601 160.977 144.139 160.977C144.7 160.977 145.168 160.83 145.543 160.534C145.921 160.235 146.205 159.833 146.395 159.33C146.588 158.822 146.685 158.258 146.685 157.636C146.685 157.023 146.59 156.47 146.401 155.977C146.215 155.481 145.933 155.089 145.554 154.801C145.179 154.509 144.707 154.364 144.139 154.364C143.594 154.364 143.135 154.502 142.764 154.778C142.393 155.051 142.113 155.434 141.923 155.926C141.734 156.415 141.639 156.985 141.639 157.636ZM153.616 162.182C152.829 162.182 152.137 161.994 151.543 161.619C150.952 161.244 150.49 160.72 150.156 160.045C149.827 159.371 149.662 158.583 149.662 157.682C149.662 156.773 149.827 155.979 150.156 155.301C150.49 154.623 150.952 154.097 151.543 153.722C152.137 153.347 152.829 153.159 153.616 153.159C154.404 153.159 155.094 153.347 155.685 153.722C156.279 154.097 156.741 154.623 157.071 155.301C157.404 155.979 157.571 156.773 157.571 157.682C157.571 158.583 157.404 159.371 157.071 160.045C156.741 160.72 156.279 161.244 155.685 161.619C155.094 161.994 154.404 162.182 153.616 162.182ZM153.616 160.977C154.215 160.977 154.707 160.824 155.094 160.517C155.48 160.21 155.766 159.807 155.952 159.307C156.137 158.807 156.23 158.265 156.23 157.682C156.23 157.098 156.137 156.555 155.952 156.051C155.766 155.547 155.48 155.14 155.094 154.83C154.707 154.519 154.215 154.364 153.616 154.364C153.018 154.364 152.526 154.519 152.139 154.83C151.753 155.14 151.467 155.547 151.281 156.051C151.096 156.555 151.003 157.098 151.003 157.682C151.003 158.265 151.096 158.807 151.281 159.307C151.467 159.807 151.753 160.21 152.139 160.517C152.526 160.824 153.018 160.977 153.616 160.977ZM165.118 158.432V153.273H166.459V162H165.118V160.523H165.027C164.822 160.966 164.504 161.343 164.072 161.653C163.641 161.96 163.095 162.114 162.436 162.114C161.891 162.114 161.406 161.994 160.982 161.756C160.557 161.513 160.224 161.15 159.982 160.665C159.739 160.176 159.618 159.561 159.618 158.818V153.273H160.959V158.727C160.959 159.364 161.137 159.871 161.493 160.25C161.853 160.629 162.311 160.818 162.868 160.818C163.201 160.818 163.54 160.733 163.885 160.562C164.233 160.392 164.525 160.131 164.76 159.778C164.999 159.426 165.118 158.977 165.118 158.432ZM170.256 156.75V162H168.915V153.273H170.21V154.636H170.324C170.528 154.193 170.839 153.837 171.256 153.568C171.672 153.295 172.21 153.159 172.869 153.159C173.46 153.159 173.977 153.28 174.42 153.523C174.864 153.761 175.208 154.125 175.455 154.614C175.701 155.098 175.824 155.712 175.824 156.455V162H174.483V156.545C174.483 155.86 174.305 155.326 173.949 154.943C173.593 154.557 173.104 154.364 172.483 154.364C172.055 154.364 171.672 154.456 171.335 154.642C171.002 154.828 170.739 155.098 170.545 155.455C170.352 155.811 170.256 156.242 170.256 156.75ZM181.57 162.182C180.842 162.182 180.2 161.998 179.643 161.631C179.087 161.259 178.651 160.737 178.337 160.062C178.022 159.384 177.865 158.583 177.865 157.659C177.865 156.742 178.022 155.947 178.337 155.273C178.651 154.598 179.089 154.078 179.649 153.71C180.21 153.343 180.857 153.159 181.592 153.159C182.161 153.159 182.609 153.254 182.939 153.443C183.272 153.629 183.526 153.841 183.7 154.08C183.878 154.314 184.017 154.508 184.115 154.659H184.229V150.364H185.57V162H184.274V160.659H184.115C184.017 160.818 183.876 161.019 183.695 161.261C183.513 161.5 183.253 161.714 182.916 161.903C182.579 162.089 182.13 162.182 181.57 162.182ZM181.751 160.977C182.289 160.977 182.744 160.837 183.115 160.557C183.486 160.273 183.768 159.881 183.962 159.381C184.155 158.877 184.251 158.295 184.251 157.636C184.251 156.985 184.157 156.415 183.967 155.926C183.778 155.434 183.498 155.051 183.126 154.778C182.755 154.502 182.297 154.364 181.751 154.364C181.183 154.364 180.71 154.509 180.331 154.801C179.956 155.089 179.674 155.481 179.484 155.977C179.299 156.47 179.206 157.023 179.206 157.636C179.206 158.258 179.301 158.822 179.49 159.33C179.683 159.833 179.967 160.235 180.342 160.534C180.721 160.83 181.191 160.977 181.751 160.977ZM194.689 162L192.03 153.273H193.439L195.325 159.955H195.416L197.28 153.273H198.712L200.553 159.932H200.643L202.53 153.273H203.939L201.28 162H199.962L198.053 155.295H197.916L196.007 162H194.689ZM208.96 162.182C208.172 162.182 207.481 161.994 206.886 161.619C206.295 161.244 205.833 160.72 205.5 160.045C205.17 159.371 205.006 158.583 205.006 157.682C205.006 156.773 205.17 155.979 205.5 155.301C205.833 154.623 206.295 154.097 206.886 153.722C207.481 153.347 208.172 153.159 208.96 153.159C209.748 153.159 210.438 153.347 211.028 153.722C211.623 154.097 212.085 154.623 212.415 155.301C212.748 155.979 212.915 156.773 212.915 157.682C212.915 158.583 212.748 159.371 212.415 160.045C212.085 160.72 211.623 161.244 211.028 161.619C210.438 161.994 209.748 162.182 208.96 162.182ZM208.96 160.977C209.559 160.977 210.051 160.824 210.438 160.517C210.824 160.21 211.11 159.807 211.295 159.307C211.481 158.807 211.574 158.265 211.574 157.682C211.574 157.098 211.481 156.555 211.295 156.051C211.11 155.547 210.824 155.14 210.438 154.83C210.051 154.519 209.559 154.364 208.96 154.364C208.362 154.364 207.869 154.519 207.483 154.83C207.097 155.14 206.811 155.547 206.625 156.051C206.439 156.555 206.347 157.098 206.347 157.682C206.347 158.265 206.439 158.807 206.625 159.307C206.811 159.807 207.097 160.21 207.483 160.517C207.869 160.824 208.362 160.977 208.96 160.977ZM214.962 162V153.273H216.257V154.591H216.348C216.507 154.159 216.795 153.809 217.212 153.54C217.628 153.271 218.098 153.136 218.621 153.136C218.719 153.136 218.842 153.138 218.99 153.142C219.138 153.146 219.25 153.152 219.325 153.159V154.523C219.28 154.511 219.176 154.494 219.013 154.472C218.854 154.445 218.685 154.432 218.507 154.432C218.083 154.432 217.704 154.521 217.371 154.699C217.041 154.873 216.78 155.116 216.587 155.426C216.397 155.733 216.303 156.083 216.303 156.477V162H214.962ZM223.945 162.182C223.217 162.182 222.575 161.998 222.018 161.631C221.462 161.259 221.026 160.737 220.712 160.062C220.397 159.384 220.24 158.583 220.24 157.659C220.24 156.742 220.397 155.947 220.712 155.273C221.026 154.598 221.464 154.078 222.024 153.71C222.585 153.343 223.232 153.159 223.967 153.159C224.536 153.159 224.984 153.254 225.314 153.443C225.647 153.629 225.901 153.841 226.075 154.08C226.253 154.314 226.392 154.508 226.49 154.659H226.604V150.364H227.945V162H226.649V160.659H226.49C226.392 160.818 226.251 161.019 226.07 161.261C225.888 161.5 225.628 161.714 225.291 161.903C224.954 162.089 224.505 162.182 223.945 162.182ZM224.126 160.977C224.664 160.977 225.119 160.837 225.49 160.557C225.861 160.273 226.143 159.881 226.337 159.381C226.53 158.877 226.626 158.295 226.626 157.636C226.626 156.985 226.532 156.415 226.342 155.926C226.153 155.434 225.873 155.051 225.501 154.778C225.13 154.502 224.672 154.364 224.126 154.364C223.558 154.364 223.085 154.509 222.706 154.801C222.331 155.089 222.049 155.481 221.859 155.977C221.674 156.47 221.581 157.023 221.581 157.636C221.581 158.258 221.676 158.822 221.865 159.33C222.058 159.833 222.342 160.235 222.717 160.534C223.096 160.83 223.566 160.977 224.126 160.977ZM236.768 155.227L235.564 155.568C235.488 155.367 235.376 155.172 235.229 154.983C235.085 154.79 234.888 154.631 234.638 154.506C234.388 154.381 234.068 154.318 233.678 154.318C233.143 154.318 232.698 154.441 232.342 154.688C231.99 154.93 231.814 155.239 231.814 155.614C231.814 155.947 231.935 156.21 232.178 156.403C232.42 156.597 232.799 156.758 233.314 156.886L234.609 157.205C235.39 157.394 235.971 157.684 236.354 158.074C236.736 158.46 236.928 158.958 236.928 159.568C236.928 160.068 236.784 160.515 236.496 160.909C236.212 161.303 235.814 161.614 235.303 161.841C234.791 162.068 234.196 162.182 233.518 162.182C232.628 162.182 231.892 161.989 231.308 161.602C230.725 161.216 230.356 160.652 230.2 159.909L231.473 159.591C231.594 160.061 231.823 160.413 232.161 160.648C232.501 160.883 232.946 161 233.496 161C234.121 161 234.617 160.867 234.984 160.602C235.356 160.333 235.541 160.011 235.541 159.636C235.541 159.333 235.435 159.08 235.223 158.875C235.011 158.667 234.685 158.511 234.246 158.409L232.791 158.068C231.992 157.879 231.405 157.585 231.03 157.188C230.659 156.786 230.473 156.284 230.473 155.682C230.473 155.189 230.611 154.754 230.888 154.375C231.168 153.996 231.549 153.699 232.03 153.483C232.515 153.267 233.064 153.159 233.678 153.159C234.541 153.159 235.219 153.348 235.712 153.727C236.208 154.106 236.56 154.606 236.768 155.227Z" fill="#333333"/>
<rect x="72.5" y="192.5" width="23" height="23" rx="1.5" fill="white" stroke="#545454"/>
<path d="M111.773 201.273C111.705 200.697 111.428 200.25 110.943 199.932C110.458 199.614 109.864 199.455 109.159 199.455C108.644 199.455 108.193 199.538 107.807 199.705C107.424 199.871 107.125 200.1 106.909 200.392C106.697 200.684 106.591 201.015 106.591 201.386C106.591 201.697 106.665 201.964 106.812 202.188C106.964 202.407 107.157 202.591 107.392 202.739C107.627 202.883 107.873 203.002 108.131 203.097C108.388 203.187 108.625 203.261 108.841 203.318L110.023 203.636C110.326 203.716 110.663 203.826 111.034 203.966C111.409 204.106 111.767 204.297 112.108 204.54C112.453 204.778 112.737 205.085 112.96 205.46C113.184 205.835 113.295 206.295 113.295 206.841C113.295 207.47 113.131 208.038 112.801 208.545C112.475 209.053 111.998 209.456 111.369 209.756C110.744 210.055 109.985 210.205 109.091 210.205C108.258 210.205 107.536 210.07 106.926 209.801C106.32 209.532 105.843 209.157 105.494 208.676C105.15 208.195 104.955 207.636 104.909 207H106.364C106.402 207.439 106.549 207.803 106.807 208.091C107.068 208.375 107.398 208.587 107.795 208.727C108.197 208.864 108.629 208.932 109.091 208.932C109.629 208.932 110.112 208.845 110.54 208.67C110.968 208.492 111.307 208.246 111.557 207.932C111.807 207.614 111.932 207.242 111.932 206.818C111.932 206.432 111.824 206.117 111.608 205.875C111.392 205.633 111.108 205.436 110.756 205.284C110.403 205.133 110.023 205 109.614 204.886L108.182 204.477C107.273 204.216 106.553 203.843 106.023 203.358C105.492 202.873 105.227 202.239 105.227 201.455C105.227 200.803 105.403 200.235 105.756 199.75C106.112 199.261 106.589 198.883 107.188 198.614C107.79 198.341 108.462 198.205 109.205 198.205C109.955 198.205 110.621 198.339 111.205 198.608C111.788 198.873 112.25 199.237 112.591 199.699C112.936 200.161 113.117 200.686 113.136 201.273H111.773ZM120.93 206.432V201.273H122.271V210H120.93V208.523H120.839C120.635 208.966 120.317 209.343 119.885 209.653C119.453 209.96 118.908 210.114 118.249 210.114C117.703 210.114 117.218 209.994 116.794 209.756C116.37 209.513 116.036 209.15 115.794 208.665C115.552 208.176 115.43 207.561 115.43 206.818V201.273H116.771V206.727C116.771 207.364 116.949 207.871 117.305 208.25C117.665 208.629 118.124 208.818 118.68 208.818C119.014 208.818 119.353 208.733 119.697 208.562C120.046 208.392 120.338 208.131 120.572 207.778C120.811 207.426 120.93 206.977 120.93 206.432ZM128.614 201.273V202.409H123.909V201.273H128.614ZM125.318 210V200.068C125.318 199.568 125.436 199.152 125.67 198.818C125.905 198.485 126.21 198.235 126.585 198.068C126.96 197.902 127.356 197.818 127.773 197.818C128.102 197.818 128.371 197.845 128.58 197.898C128.788 197.951 128.943 198 129.045 198.045L128.659 199.205C128.591 199.182 128.496 199.153 128.375 199.119C128.258 199.085 128.102 199.068 127.909 199.068C127.466 199.068 127.146 199.18 126.949 199.403C126.756 199.627 126.659 199.955 126.659 200.386V210H125.318ZM134.379 201.273V202.409H129.675V201.273H134.379ZM131.084 210V200.068C131.084 199.568 131.201 199.152 131.436 198.818C131.671 198.485 131.976 198.235 132.351 198.068C132.726 197.902 133.122 197.818 133.538 197.818C133.868 197.818 134.137 197.845 134.345 197.898C134.554 197.951 134.709 198 134.811 198.045L134.425 199.205C134.357 199.182 134.262 199.153 134.141 199.119C134.023 199.085 133.868 199.068 133.675 199.068C133.232 199.068 132.911 199.18 132.714 199.403C132.521 199.627 132.425 199.955 132.425 200.386V210H131.084ZM136.259 210V201.273H137.599V210H136.259ZM136.94 199.818C136.679 199.818 136.454 199.729 136.264 199.551C136.079 199.373 135.986 199.159 135.986 198.909C135.986 198.659 136.079 198.445 136.264 198.267C136.454 198.089 136.679 198 136.94 198C137.202 198 137.425 198.089 137.611 198.267C137.8 198.445 137.895 198.659 137.895 198.909C137.895 199.159 137.8 199.373 137.611 199.551C137.425 199.729 137.202 199.818 136.94 199.818ZM141.055 201.273L143.146 204.841L145.237 201.273H146.783L143.964 205.636L146.783 210H145.237L143.146 206.614L141.055 210H139.51L142.283 205.636L139.51 201.273H141.055ZM151.996 210.182C151.155 210.182 150.429 209.996 149.82 209.625C149.214 209.25 148.746 208.727 148.416 208.057C148.09 207.383 147.928 206.598 147.928 205.705C147.928 204.811 148.09 204.023 148.416 203.341C148.746 202.655 149.204 202.121 149.791 201.739C150.382 201.352 151.071 201.159 151.859 201.159C152.314 201.159 152.763 201.235 153.206 201.386C153.649 201.538 154.053 201.784 154.416 202.125C154.78 202.462 155.07 202.909 155.286 203.466C155.501 204.023 155.609 204.708 155.609 205.523V206.091H148.882V204.932H154.246C154.246 204.439 154.147 204 153.95 203.614C153.757 203.227 153.481 202.922 153.121 202.699C152.765 202.475 152.344 202.364 151.859 202.364C151.325 202.364 150.863 202.496 150.473 202.761C150.087 203.023 149.789 203.364 149.581 203.784C149.373 204.205 149.268 204.655 149.268 205.136V205.909C149.268 206.568 149.382 207.127 149.609 207.585C149.84 208.04 150.161 208.386 150.57 208.625C150.979 208.86 151.454 208.977 151.996 208.977C152.348 208.977 152.666 208.928 152.95 208.83C153.238 208.727 153.486 208.576 153.695 208.375C153.903 208.17 154.064 207.917 154.178 207.614L155.473 207.977C155.337 208.417 155.107 208.803 154.786 209.136C154.464 209.466 154.066 209.723 153.592 209.909C153.119 210.091 152.587 210.182 151.996 210.182ZM163.831 203.227L162.626 203.568C162.551 203.367 162.439 203.172 162.291 202.983C162.147 202.79 161.95 202.631 161.7 202.506C161.45 202.381 161.13 202.318 160.74 202.318C160.206 202.318 159.761 202.441 159.405 202.688C159.053 202.93 158.876 203.239 158.876 203.614C158.876 203.947 158.998 204.21 159.24 204.403C159.482 204.597 159.861 204.758 160.376 204.886L161.672 205.205C162.452 205.394 163.034 205.684 163.416 206.074C163.799 206.46 163.99 206.958 163.99 207.568C163.99 208.068 163.846 208.515 163.558 208.909C163.274 209.303 162.876 209.614 162.365 209.841C161.854 210.068 161.259 210.182 160.581 210.182C159.691 210.182 158.954 209.989 158.371 209.602C157.787 209.216 157.418 208.652 157.263 207.909L158.536 207.591C158.657 208.061 158.886 208.413 159.223 208.648C159.564 208.883 160.009 209 160.558 209C161.183 209 161.679 208.867 162.047 208.602C162.418 208.333 162.604 208.011 162.604 207.636C162.604 207.333 162.498 207.08 162.286 206.875C162.073 206.667 161.748 206.511 161.308 206.409L159.854 206.068C159.054 205.879 158.467 205.585 158.092 205.188C157.721 204.786 157.536 204.284 157.536 203.682C157.536 203.189 157.674 202.754 157.95 202.375C158.231 201.996 158.611 201.699 159.092 201.483C159.577 201.267 160.126 201.159 160.74 201.159C161.604 201.159 162.282 201.348 162.774 201.727C163.27 202.106 163.623 202.606 163.831 203.227Z" fill="#333333"/>
<defs>
<clipPath id="clip0_1445_5535">
<rect width="24" height="24" fill="white" transform="translate(40 4)"/>
</clipPath>
<clipPath id="clip1_1445_5535">
<rect width="24" height="24" fill="white" transform="translate(56 48)"/>
</clipPath>
<clipPath id="clip2_1445_5535">
<rect width="24" height="24" fill="white" transform="translate(72 96)"/>
</clipPath>
</defs>
</svg>
