<svg width="100" height="18" fill="none" xmlns="http://www.w3.org/2000/svg"><rect x=".86" y="2" width="16" height="16" rx="3" fill="#1E71F6"/><path d="M12.34 5.34a.86.86 0 0 1 1.16-.2c.38.25.47.74.21 1.1l-6.1 8.42a.86.86 0 0 1-1.39-.01L4 11.49a.76.76 0 0 1 .23-1.1.86.86 0 0 1 1.16.22l1.54 2.2 5.41-7.47Z" fill="#fff"/><path d="m32.5 12.63-1.23-3.17h-4.01l-1.22 3.17h-1.18L28.77 2.6h1.05l3.88 10.03h-1.2Zm-1.58-4.2-1.17-3.15a63.12 63.12 0 0 0-.32-.99l-.16-.48a12.64 12.64 0 0 1-.43 1.47l-1.2 3.15h3.28ZM38.32 5a4.28 4.28 0 0 1 .91.1l-.14 1.05a3.15 3.15 0 0 0-.84-.1 2.03 2.03 0 0 0-1.55.7c-.2.22-.36.5-.47.81-.12.32-.17.67-.17 1.05v4.02h-1.14V5.14h.94l.12 1.38h.05c.16-.28.34-.53.56-.76.22-.23.47-.41.76-.55.3-.14.61-.2.97-.2Zm5.73 0a4.28 4.28 0 0 1 .9.1l-.14 1.05a3.15 3.15 0 0 0-.83-.1 2.03 2.03 0 0 0-1.55.7c-.2.22-.36.5-.47.81-.12.32-.17.67-.17 1.05v4.02h-1.15V5.14h.95l.12 1.38h.05c.15-.28.34-.53.56-.76A2.26 2.26 0 0 1 44.05 5Zm3.45.14v7.5h-1.13v-7.5h1.14Zm-.55-2.8c.2 0 .35.06.48.18.14.12.2.3.2.56 0 .25-.06.44-.2.56a.68.68 0 0 1-.48.19.7.7 0 0 1-.49-.19c-.13-.12-.19-.3-.19-.56 0-.25.06-.44.2-.56a.7.7 0 0 1 .48-.18Zm4.61 10.29-2.84-7.49h1.21l1.65 4.53a23.97 23.97 0 0 1 .6 1.93h.04a219.3 219.3 0 0 1 .62-1.93l1.65-4.53h1.22l-2.85 7.5h-1.3ZM59.8 5c.64 0 1.18.15 1.64.43.46.28.8.68 1.05 1.19.24.5.36 1.1.36 1.78v.7h-5.18c.02.88.24 1.55.66 2 .42.47 1.02.7 1.79.7a5.47 5.47 0 0 0 2.4-.51v1a5.53 5.53 0 0 1-2.45.48 3.9 3.9 0 0 1-1.88-.44c-.54-.3-.95-.73-1.25-1.3a4.5 4.5 0 0 1-.44-2.09 5 5 0 0 1 .4-2.09c.27-.6.66-1.05 1.15-1.37.5-.32 1.08-.48 1.75-.48Zm-.01.93c-.61 0-1.1.2-1.45.6-.36.4-.58.95-.65 1.66h3.97c0-.45-.08-.84-.21-1.18-.14-.34-.34-.6-.61-.79a1.8 1.8 0 0 0-1.05-.29ZM71.3 5c.63 0 1.18.15 1.64.43.45.28.8.68 1.04 1.19.24.5.37 1.1.37 1.78v.7h-5.18c.01.88.23 1.55.66 2 .42.47 1.02.7 1.79.7a5.47 5.47 0 0 0 2.4-.51v1a5.52 5.52 0 0 1-2.45.48 3.9 3.9 0 0 1-1.89-.44c-.53-.3-.94-.73-1.24-1.3A4.5 4.5 0 0 1 68 8.94a5 5 0 0 1 .4-2.09c.27-.6.65-1.05 1.15-1.37.5-.32 1.08-.48 1.75-.48Zm-.02.93c-.6 0-1.09.2-1.45.6-.36.4-.57.95-.64 1.66h3.97c0-.45-.08-.84-.22-1.18-.13-.34-.33-.6-.6-.79a1.8 1.8 0 0 0-1.06-.29Zm7.8-.91c.89 0 1.55.2 1.99.6.43.4.64 1.04.64 1.92v5.1h-.82l-.22-1.11h-.06c-.2.27-.42.5-.65.69-.23.18-.5.32-.8.41a3.77 3.77 0 0 1-2.3-.1 1.9 1.9 0 0 1-.84-.72 2.3 2.3 0 0 1-.3-1.23c0-.75.3-1.33.89-1.73.6-.4 1.5-.62 2.7-.65l1.3-.06v-.46c0-.64-.14-1.1-.42-1.36a1.66 1.66 0 0 0-1.18-.39c-.39 0-.76.06-1.12.17-.35.12-.69.25-1 .4l-.36-.85a5.17 5.17 0 0 1 2.55-.63Zm1.51 3.92L79.45 9c-.93.04-1.6.19-1.97.46a1.3 1.3 0 0 0-.58 1.14c0 .43.13.74.4.95.25.2.6.3 1.02.3a2.4 2.4 0 0 0 1.64-.55c.42-.37.63-.92.63-1.66v-.69ZM87.46 5a4.28 4.28 0 0 1 .9.1l-.14 1.05a3.15 3.15 0 0 0-.83-.1 2.03 2.03 0 0 0-1.55.7c-.2.22-.36.5-.47.81-.12.32-.18.67-.18 1.05v4.02h-1.14V5.14H85l.12 1.38h.05c.15-.28.34-.53.56-.76A2.26 2.26 0 0 1 87.46 5Zm3.46 7.63h-1.14V2h1.14v10.63Zm1.22-7.49h1.22L95 9.5a30.6 30.6 0 0 1 .49 1.4l.15.63h.04a26.15 26.15 0 0 1 .66-2.04l1.57-4.34h1.22l-3.26 8.6a5.7 5.7 0 0 1-.6 1.2c-.24.34-.52.6-.84.78-.33.19-.73.28-1.2.28a3.49 3.49 0 0 1-.98-.12v-.9a3.92 3.92 0 0 0 .8.08 1.53 1.53 0 0 0 1.28-.63c.15-.2.28-.45.4-.73l.4-1.05-3-7.5Z" fill="#000"/></svg>