<svg width="142" height="36" fill="none" xmlns="http://www.w3.org/2000/svg"><rect x="1.09" y="2.5" width="15" height="15" rx="2.5" fill="#fff" stroke="#545454"/><path d="M24.59 4.26h2.83a5.5 5.5 0 0 1 2.81.56c.63.37.95 1 .95 1.9 0 .4-.08.74-.23 1.05-.14.3-.36.56-.64.76-.28.2-.63.34-1.05.42V9c.44.07.83.2 1.17.38a2 2 0 0 1 .79.77c.19.32.29.74.29 1.25 0 .61-.15 1.13-.43 1.55-.29.43-.69.75-1.2.97-.53.21-1.14.32-1.85.32h-3.44v-10Zm1.16 4.28h1.91c.87 0 1.48-.14 1.8-.43.35-.29.51-.7.51-1.26 0-.57-.2-.98-.6-1.23a3.67 3.67 0 0 0-1.9-.37h-1.72v3.3Zm0 .98v3.74h2.08c.89 0 1.52-.17 1.88-.52.37-.35.56-.82.56-1.42 0-.37-.09-.7-.25-.97a1.54 1.54 0 0 0-.81-.61 4.13 4.13 0 0 0-1.48-.22h-1.98Zm8.85 4.73h-1.13V3.61h1.14v10.64Zm8.6-7.49v7.49h-.93l-.17-1.05h-.06c-.15.26-.36.48-.6.65a3.08 3.08 0 0 1-1.81.54c-.6 0-1.1-.1-1.5-.29-.4-.2-.7-.49-.9-.89-.2-.4-.3-.92-.3-1.54V6.76h1.15v4.82c0 .63.14 1.1.42 1.4.28.31.71.46 1.3.46.55 0 .99-.1 1.32-.31.33-.21.57-.52.72-.92.14-.41.21-.92.21-1.5V6.75h1.15Zm5.28-.14a2.74 2.74 0 0 1 2.69 1.61c.24.51.36 1.1.36 1.78v.7h-5.18c.02.89.24 1.56.66 2.02.42.46 1.02.69 1.8.69a5.47 5.47 0 0 0 2.38-.52v1a5.53 5.53 0 0 1-2.44.49 3.9 3.9 0 0 1-1.88-.44c-.54-.3-.95-.73-1.25-1.3a4.5 4.5 0 0 1-.44-2.1 5 5 0 0 1 .4-2.08c.27-.6.66-1.05 1.15-1.37.5-.32 1.08-.48 1.75-.48Zm-.01.93c-.61 0-1.1.2-1.45.6-.36.4-.58.95-.65 1.66h3.97c0-.45-.08-.84-.21-1.18-.14-.34-.34-.6-.61-.8a1.8 1.8 0 0 0-1.05-.28Z" fill="#000"/><g clip-path="url(#a)"><path d="M22.91 24.23v-.24a2.5 2.5 0 0 0-2.43-2.55c-.3 0-.6.06-.87.17a2.47 2.47 0 0 0-2.38-2.04c-.32 0-.63.07-.9.18a2.54 2.54 0 0 0-2.4-1.88c-.31 0-.6.07-.88.18v-3.06a2.5 2.5 0 0 0-2.43-2.55 2.5 2.5 0 0 0-2.44 2.55v7.5a4 4 0 0 0-1.54-1.32 2.27 2.27 0 0 0-2.02.1 2.66 2.66 0 0 0-1.11 3.46l3.03 6.4c.08.18 2.13 4.3 5.85 4.3h4.33c3.42 0 6.2-2.91 6.2-6.5v-4.7Zm-6.19 9.5H12.4c-2.68 0-4.34-3.25-4.4-3.37l-3.02-6.39a.9.9 0 0 1 .39-1.19.72.72 0 0 1 .67-.04c.9.38 1.77 2.24 2.12 3.31l.26.83 1.4-.52V14.99c0-.47.36-.85.8-.85.46 0 .82.38.82.85v9.8h1.63v-4.31c0-.48.4-.9.85-.9.46 0 .87.39.87.84v4.65h1.62v-2.95c0-.47.37-.85.82-.85.44 0 .8.38.8.85v3.74h1.63v-1.87c0-.47.37-.85.82-.85.44 0 .8.38.8.85v1.21h.01v3.73a4.7 4.7 0 0 1-4.57 4.8Z" fill="#000"/></g><rect x="76.03" y="2.5" width="15" height="15" rx="2.5" fill="#fff" stroke="#545454"/><path d="m103.44 9.27 2.66-5.01h1.26l-3.33 6.11v3.88h-1.17v-3.82l-3.33-6.17h1.27l2.64 5Zm8-2.65a2.75 2.75 0 0 1 2.69 1.61c.24.51.36 1.1.36 1.78v.7h-5.17c.01.89.23 1.56.65 2.02.43.46 1.02.69 1.8.69a5.46 5.46 0 0 0 2.39-.52v1a5.52 5.52 0 0 1-2.44.49 3.9 3.9 0 0 1-1.89-.44c-.53-.3-.95-.73-1.24-1.3a4.5 4.5 0 0 1-.45-2.1 5 5 0 0 1 .4-2.08c.28-.6.66-1.05 1.15-1.37.5-.32 1.08-.48 1.75-.48Zm-.01.93c-.6 0-1.09.2-1.45.6-.36.4-.57.95-.64 1.66h3.96c0-.45-.07-.84-.2-1.18-.14-.34-.34-.6-.62-.8a1.8 1.8 0 0 0-1.05-.28Zm6.13 6.7h-1.14V3.61h1.14v10.64Zm3.54 0h-1.14V3.61h1.14v10.64Zm8.86-3.76c0 .62-.08 1.16-.24 1.65-.16.48-.39.89-.69 1.22a3 3 0 0 1-1.1.77c-.42.17-.9.26-1.43.26a3.12 3.12 0 0 1-3.16-2.25 5.11 5.11 0 0 1-.26-1.65c0-.82.14-1.52.42-2.1a3 3 0 0 1 1.2-1.31 3.6 3.6 0 0 1 1.84-.46c.69 0 1.28.15 1.8.46.51.3.9.75 1.2 1.33.28.57.42 1.26.42 2.08Zm-5.7 0c0 .6.08 1.12.24 1.57.16.44.4.78.74 1.02.33.24.76.36 1.28.36s.95-.12 1.28-.36c.34-.24.59-.58.75-1.02.16-.45.24-.97.24-1.57 0-.6-.08-1.11-.24-1.54-.16-.44-.4-.78-.74-1.02a2.18 2.18 0 0 0-1.3-.35c-.77 0-1.34.26-1.7.77a3.69 3.69 0 0 0-.55 2.14Zm13.76 3.75-1.33-4.37a52.8 52.8 0 0 1-.17-.54l-.15-.52-.11-.47-.08-.37h-.05a8.53 8.53 0 0 1-.2.84 24.15 24.15 0 0 1-.3 1.09l-1.4 4.34h-1.27l-2.07-7.5h1.18l1.08 4.14a30.8 30.8 0 0 1 .48 2.17h.06l.09-.4a495.58 495.58 0 0 0 .26-1.05l.15-.51 1.38-4.35h1.22l1.33 4.34a18.95 18.95 0 0 1 .5 1.96h.06a55.88 55.88 0 0 1 .27-1.33l.21-.83 1.1-4.14h1.15l-2.07 7.5h-1.32Z" fill="#000"/><path d="M129.35 24.79v-.24a2.5 2.5 0 0 0-2.43-2.55c-.3 0-.6.06-.87.17a2.47 2.47 0 0 0-2.38-2.03c-.32 0-.63.06-.9.18a2.54 2.54 0 0 0-2.4-1.88c-.31 0-.6.06-.88.17v-3.06a2.5 2.5 0 0 0-2.43-2.55 2.5 2.5 0 0 0-2.44 2.55v7.5a4 4 0 0 0-1.54-1.32 2.27 2.27 0 0 0-2.02.1 2.66 2.66 0 0 0-1.11 3.46l3.03 6.4c.08.18 2.13 4.31 5.85 4.31h4.33c3.42 0 6.2-2.92 6.2-6.51v-4.7Zm-6.19 9.51h-4.33c-2.68 0-4.34-3.25-4.4-3.37l-3.02-6.4a.9.9 0 0 1 .39-1.19.71.71 0 0 1 .67-.04c.9.39 1.77 2.24 2.12 3.32l.26.82 1.4-.52V15.55c0-.47.36-.85.8-.85.45 0 .82.38.82.85v9.8h1.64v-4.3c0-.48.4-.91.85-.91.46 0 .87.4.87.84v4.65h1.62v-2.95c0-.46.37-.85.82-.85.44 0 .8.39.8.85v3.74h1.63v-1.87c0-.47.37-.85.82-.85.44 0 .8.38.8.85v1.22h.01v3.72a4.7 4.7 0 0 1-4.57 4.81Z" fill="#000"/><defs><clipPath id="a"><path fill="#fff" transform="translate(2.09 12.44)" d="M0 0h22v23H0z"/></clipPath></defs></svg>