<svg width="236" height="18" fill="none" xmlns="http://www.w3.org/2000/svg"><rect x=".15" y="2" width="16" height="16" rx="3" fill="#1E71F6"/><path d="M11.63 5.34a.86.86 0 0 1 1.16-.2c.38.25.48.74.22 1.1L6.9 14.66a.86.86 0 0 1-1.38-.01l-2.23-3.16a.76.76 0 0 1 .24-1.1.86.86 0 0 1 1.15.22l1.54 2.2 5.41-7.47Z" fill="#fff"/><path d="M24.15 4.26h2.83c1.25 0 2.2.18 2.82.56.63.37.94 1 .94 1.9 0 .4-.07.74-.22 1.05-.15.3-.36.56-.64.76-.29.2-.64.34-1.05.42V9c.44.07.82.2 1.16.38a2 2 0 0 1 .8.77c.19.32.28.74.28 1.25a2.58 2.58 0 0 1-1.63 2.52c-.52.21-1.14.32-1.85.32h-3.44v-10Zm1.17 4.28h1.91c.87 0 1.47-.14 1.8-.43.34-.29.51-.7.51-1.26 0-.57-.2-.98-.6-1.23a3.67 3.67 0 0 0-1.9-.37h-1.72v3.3Zm0 .98v3.74h2.07c.9 0 1.52-.17 1.9-.52.36-.35.55-.82.55-1.42 0-.37-.09-.7-.26-.97a1.54 1.54 0 0 0-.8-.61 4.13 4.13 0 0 0-1.49-.22h-1.97Zm8.86 4.73h-1.15V3.61h1.15v10.64Zm8.58-7.49v7.49h-.93l-.16-1.05h-.06a2.2 2.2 0 0 1-.6.65 3.1 3.1 0 0 1-1.82.54c-.59 0-1.09-.1-1.49-.29-.4-.2-.7-.49-.9-.89-.2-.4-.3-.92-.3-1.54V6.76h1.14v4.82c0 .63.14 1.1.43 1.4.28.31.7.46 1.29.46.55 0 1-.1 1.32-.31.34-.21.58-.52.72-.92.15-.41.22-.92.22-1.5V6.75h1.14Zm5.29-.14a2.74 2.74 0 0 1 2.69 1.61c.23.51.35 1.1.35 1.78v.7h-5.17c.01.89.23 1.56.66 2.02a2.3 2.3 0 0 0 1.79.69 5.47 5.47 0 0 0 2.39-.52v1a5.53 5.53 0 0 1-2.44.49 3.9 3.9 0 0 1-1.89-.44c-.53-.3-.95-.73-1.24-1.3a4.5 4.5 0 0 1-.45-2.1 5 5 0 0 1 .4-2.08c.28-.6.66-1.05 1.16-1.37.5-.32 1.08-.48 1.75-.48Zm-.02.93c-.6 0-1.09.2-1.45.6-.36.4-.57.95-.64 1.66h3.97c0-.45-.08-.84-.22-1.18-.13-.34-.33-.6-.6-.8a1.8 1.8 0 0 0-1.06-.28Z" fill="#000"/><rect x="75.09" y="2" width="16" height="16" rx="3" fill="#1E71F6"/><path d="M86.57 5.34a.86.86 0 0 1 1.16-.2c.38.25.48.74.22 1.1l-6.11 8.42a.86.86 0 0 1-1.38-.01l-2.23-3.16a.76.76 0 0 1 .24-1.1.86.86 0 0 1 1.15.22l1.54 2.2 5.41-7.47Z" fill="#fff"/><path d="m103.01 9.27 2.66-5.01h1.25l-3.33 6.11v3.88h-1.16v-3.82L99.1 4.26h1.28l2.64 5Zm8-2.65c.64 0 1.18.14 1.64.42.46.29.8.68 1.05 1.2.24.5.36 1.1.36 1.77v.7h-5.18c.02.89.24 1.56.66 2.02.42.46 1.02.69 1.8.69a5.48 5.48 0 0 0 2.38-.52v1a5.56 5.56 0 0 1-2.44.49 3.9 3.9 0 0 1-1.88-.44c-.54-.3-.95-.73-1.25-1.3a4.5 4.5 0 0 1-.44-2.1 5 5 0 0 1 .4-2.08c.28-.6.66-1.05 1.15-1.37.5-.32 1.08-.48 1.75-.48Zm-.01.93c-.61 0-1.1.2-1.45.6-.36.4-.58.95-.65 1.66h3.97c0-.45-.08-.84-.21-1.18-.13-.34-.34-.6-.61-.8a1.8 1.8 0 0 0-1.05-.28Zm6.13 6.7h-1.14V3.61h1.14v10.64Zm3.54 0h-1.14V3.61h1.14v10.64Zm8.86-3.76c0 .62-.08 1.16-.24 1.65-.16.48-.4.89-.7 1.22-.3.33-.66.59-1.09.77a3.81 3.81 0 0 1-2.82 0 3.11 3.11 0 0 1-1.08-.77c-.3-.33-.53-.74-.7-1.22a5.11 5.11 0 0 1-.25-1.65c0-.82.14-1.52.42-2.1.28-.57.67-1.01 1.19-1.31.52-.3 1.13-.46 1.85-.46.68 0 1.28.15 1.8.46.5.3.9.75 1.19 1.33.28.57.43 1.26.43 2.08Zm-5.7 0c0 .6.08 1.12.24 1.57.16.44.4.78.74 1.02.33.24.76.36 1.28.36s.94-.12 1.28-.36c.33-.24.58-.58.74-1.02.16-.45.24-.97.24-1.57 0-.6-.08-1.11-.24-1.54-.16-.44-.4-.78-.74-1.02a2.18 2.18 0 0 0-1.29-.35c-.78 0-1.35.26-1.71.77a3.69 3.69 0 0 0-.54 2.14Zm13.76 3.75-1.34-4.37a99.57 99.57 0 0 1-.31-1.06l-.12-.47-.08-.37h-.05a8.53 8.53 0 0 1-.19.84 24.15 24.15 0 0 1-.3 1.09l-1.4 4.34h-1.28l-2.06-7.5h1.17l1.08 4.14a30.76 30.76 0 0 1 .49 2.17h.05l.1-.4.1-.51a17.3 17.3 0 0 1 .3-1.05l1.38-4.35h1.23l1.33 4.34a17.09 17.09 0 0 1 .5 1.96h.05l.1-.57.18-.76.2-.83 1.1-4.14h1.16l-2.07 7.5h-1.32Z" fill="#000"/><rect x="164.98" y="2" width="16" height="16" rx="3" fill="#1E71F6"/><path d="M176.46 5.34a.86.86 0 0 1 1.16-.2c.38.25.47.74.21 1.1l-6.1 8.42a.86.86 0 0 1-1.39-.01l-2.22-3.16a.76.76 0 0 1 .23-1.1.86.86 0 0 1 1.16.22l1.53 2.2 5.42-7.47Z" fill="#fff"/><path d="M198.16 7.38c0 .77-.1 1.48-.3 2.1a4.6 4.6 0 0 1-.87 1.64c-.38.45-.86.8-1.43 1.04a4.9 4.9 0 0 1-1.98.37c-.78 0-1.45-.12-2.03-.37a3.8 3.8 0 0 1-1.44-1.05 4.6 4.6 0 0 1-.85-1.63 7.42 7.42 0 0 1-.28-2.11c0-1.02.17-1.92.5-2.69.34-.77.85-1.37 1.54-1.8a4.8 4.8 0 0 1 2.58-.64c.99 0 1.82.21 2.5.64a3.95 3.95 0 0 1 1.53 1.79c.35.77.53 1.67.53 2.71Zm-7.96 0c0 .85.12 1.58.36 2.2a3 3 0 0 0 1.11 1.44c.5.34 1.14.5 1.9.5.78 0 1.42-.16 1.9-.5a3 3 0 0 0 1.11-1.44c.24-.62.36-1.35.36-2.2 0-1.29-.28-2.3-.82-3.02-.54-.73-1.38-1.1-2.52-1.1a3.4 3.4 0 0 0-1.91.5c-.5.34-.88.81-1.13 1.43a5.98 5.98 0 0 0-.36 2.2Zm13.42-2.61a4.29 4.29 0 0 1 .91.08l-.14 1.06a3.16 3.16 0 0 0-.84-.1 2.03 2.03 0 0 0-1.55.7c-.2.22-.36.5-.47.81-.12.32-.17.67-.17 1.05v4.02h-1.14V4.9h.94l.12 1.38h.05c.16-.28.34-.53.56-.76a2.26 2.26 0 0 1 1.73-.76Zm5.13.01c.9 0 1.55.2 1.99.6.43.4.65 1.04.65 1.92v5.1h-.83l-.22-1.11h-.05c-.21.27-.43.5-.66.69-.23.18-.5.32-.8.41a3.76 3.76 0 0 1-2.3-.1 1.9 1.9 0 0 1-.84-.72 2.3 2.3 0 0 1-.3-1.23c0-.75.3-1.33.89-1.73.6-.4 1.5-.62 2.7-.65l1.3-.06v-.46c0-.64-.14-1.1-.42-1.36a1.66 1.66 0 0 0-1.17-.39c-.4 0-.77.06-1.13.18-.35.11-.69.24-1 .4l-.35-.86a5.22 5.22 0 0 1 2.54-.63Zm1.52 3.92-1.15.05c-.93.04-1.59.19-1.97.46-.38.27-.58.65-.58 1.14 0 .43.13.75.4.95.25.2.6.3 1.03.3a2.4 2.4 0 0 0 1.63-.55c.42-.36.64-.92.64-1.66V8.7Zm7-3.93c.9 0 1.56.21 2.02.65.46.43.68 1.13.68 2.1v4.87h-1.12V7.6c0-.63-.14-1.1-.43-1.4-.28-.31-.72-.47-1.3-.47-.83 0-1.42.24-1.75.7a3.5 3.5 0 0 0-.51 2.05v3.92h-1.14V4.9h.92l.17 1.08h.06c.16-.26.37-.48.61-.66a3.2 3.2 0 0 1 1.8-.55Zm7.13 10.99c-.98 0-1.74-.19-2.27-.56-.54-.36-.8-.87-.8-1.53 0-.47.14-.87.44-1.2.3-.34.72-.56 1.24-.67-.2-.1-.36-.23-.5-.41a1 1 0 0 1-.2-.63c0-.27.07-.51.22-.72.15-.2.39-.4.7-.6a2.1 2.1 0 0 1-.95-.8 2.45 2.45 0 0 1-.37-1.34c0-.54.12-1 .34-1.37.22-.39.55-.68.97-.88a3.57 3.57 0 0 1 1.93-.28 3.37 3.37 0 0 1 .72.12h2.57v.73l-1.38.17a2.4 2.4 0 0 1 .47 1.48c0 .74-.25 1.34-.76 1.78-.5.44-1.2.66-2.08.66-.21 0-.42-.02-.64-.06-.23.13-.4.26-.52.41a.84.84 0 0 0-.17.52c0 .15.05.26.13.35.1.09.22.15.4.2.16.03.36.05.6.05h1.32c.82 0 1.44.17 1.87.51.44.34.66.84.66 1.5 0 .83-.34 1.46-1.01 1.9a5.3 5.3 0 0 1-2.93.67Zm.04-.9c.62 0 1.13-.06 1.53-.18.41-.13.72-.3.92-.54.2-.24.3-.51.3-.84 0-.3-.06-.53-.2-.68a1.05 1.05 0 0 0-.6-.3 4.9 4.9 0 0 0-.97-.08h-1.3c-.34 0-.63.05-.88.15-.25.1-.44.26-.58.47-.13.2-.2.46-.2.76 0 .41.17.72.51.93.34.21.83.32 1.47.32Zm.29-5.98c.54 0 .95-.14 1.22-.41.28-.27.41-.67.41-1.2 0-.56-.14-.98-.41-1.25-.28-.29-.7-.43-1.23-.43-.52 0-.92.15-1.2.44-.28.29-.42.7-.42 1.26 0 .51.14.9.42 1.18.28.27.69.41 1.21.41Zm8.07-4.11a2.74 2.74 0 0 1 2.69 1.61c.23.5.36 1.1.36 1.78v.7h-5.18c.02.88.23 1.55.66 2.01a2.3 2.3 0 0 0 1.79.69 5.48 5.48 0 0 0 2.4-.51v1a5.54 5.54 0 0 1-2.45.48 3.9 3.9 0 0 1-1.89-.44c-.53-.3-.94-.73-1.24-1.3a4.5 4.5 0 0 1-.44-2.09 5 5 0 0 1 .4-2.09c.27-.6.66-1.05 1.15-1.37.5-.32 1.08-.47 1.75-.47Zm-.02.92c-.6 0-1.09.2-1.45.6-.36.4-.57.95-.64 1.66h3.97c0-.45-.08-.84-.22-1.18-.13-.34-.33-.6-.6-.79a1.8 1.8 0 0 0-1.06-.29Z" fill="#000"/></svg>