<svg width="175" height="112" viewBox="0 0 175 112" fill="none" xmlns="http://www.w3.org/2000/svg">
<rect y="2" width="16" height="16" rx="3" fill="#1E71F6"/>
<path d="M12 10H4" stroke="white" stroke-width="1.7" stroke-linecap="round"/>
<path d="M26.6113 4.25586C27.901 4.25586 28.8421 4.50879 29.4346 5.01465C30.0316 5.51595 30.3301 6.236 30.3301 7.1748C30.3301 7.59863 30.2594 8.00195 30.1182 8.38477C29.9814 8.76302 29.7581 9.09798 29.4482 9.38965C29.1383 9.67676 28.7305 9.90462 28.2246 10.0732C27.7233 10.2373 27.1081 10.3193 26.3789 10.3193H25.1621V14.25H24V4.25586H26.6113ZM26.502 5.24707H25.1621V9.32129H26.249C26.887 9.32129 27.418 9.25293 27.8418 9.11621C28.2702 8.97949 28.5915 8.75846 28.8057 8.45312C29.0199 8.14323 29.127 7.73307 29.127 7.22266C29.127 6.55729 28.915 6.06283 28.4912 5.73926C28.0674 5.41113 27.4043 5.24707 26.502 5.24707Z" fill="black"/>
<path d="M35.0537 6.63477C35.9469 6.63477 36.61 6.83529 37.043 7.23633C37.4759 7.63737 37.6924 8.27767 37.6924 9.15723V14.25H36.8652L36.6465 13.1426H36.5918C36.3822 13.416 36.1634 13.6462 35.9355 13.833C35.7077 14.0153 35.4434 14.1543 35.1426 14.25C34.8464 14.3411 34.4818 14.3867 34.0488 14.3867C33.5931 14.3867 33.1875 14.307 32.832 14.1475C32.4811 13.988 32.2031 13.7464 31.998 13.4229C31.7975 13.0993 31.6973 12.6891 31.6973 12.1924C31.6973 11.445 31.9935 10.8708 32.5859 10.4697C33.1784 10.0687 34.0807 9.84994 35.293 9.81348L36.585 9.75879V9.30078C36.585 8.65365 36.446 8.2002 36.168 7.94043C35.89 7.68066 35.498 7.55078 34.9922 7.55078C34.6003 7.55078 34.2266 7.60775 33.8711 7.72168C33.5156 7.83561 33.1784 7.97005 32.8594 8.125L32.5107 7.26367C32.848 7.09049 33.2354 6.94238 33.6729 6.81934C34.1104 6.69629 34.5706 6.63477 35.0537 6.63477ZM36.5713 10.5586L35.4297 10.6064C34.4954 10.6429 33.8369 10.7956 33.4541 11.0645C33.0713 11.3333 32.8799 11.7139 32.8799 12.2061C32.8799 12.6344 33.0098 12.9512 33.2695 13.1562C33.5293 13.3613 33.8734 13.4639 34.3018 13.4639C34.9671 13.4639 35.5117 13.2793 35.9355 12.9102C36.3594 12.541 36.5713 11.9873 36.5713 11.249V10.5586Z" fill="black"/>
<path d="M42.4502 13.457C42.637 13.457 42.8285 13.4411 43.0244 13.4092C43.2204 13.3773 43.3799 13.3385 43.5029 13.293V14.1748C43.3708 14.234 43.1862 14.2842 42.9492 14.3252C42.7168 14.3662 42.4889 14.3867 42.2656 14.3867C41.8691 14.3867 41.5091 14.3184 41.1855 14.1816C40.862 14.0404 40.6022 13.8034 40.4062 13.4707C40.2148 13.138 40.1191 12.6777 40.1191 12.0898V7.64648H39.0527V7.09277L40.126 6.64844L40.5771 5.02148H41.2607V6.75781H43.4551V7.64648H41.2607V12.0557C41.2607 12.5251 41.3678 12.876 41.582 13.1084C41.8008 13.3408 42.0902 13.457 42.4502 13.457Z" fill="black"/>
<path d="M47.4404 13.457C47.6273 13.457 47.8187 13.4411 48.0146 13.4092C48.2106 13.3773 48.3701 13.3385 48.4932 13.293V14.1748C48.361 14.234 48.1764 14.2842 47.9395 14.3252C47.707 14.3662 47.4792 14.3867 47.2559 14.3867C46.8594 14.3867 46.4993 14.3184 46.1758 14.1816C45.8522 14.0404 45.5924 13.8034 45.3965 13.4707C45.2051 13.138 45.1094 12.6777 45.1094 12.0898V7.64648H44.043V7.09277L45.1162 6.64844L45.5674 5.02148H46.251V6.75781H48.4453V7.64648H46.251V12.0557C46.251 12.5251 46.3581 12.876 46.5723 13.1084C46.791 13.3408 47.0804 13.457 47.4404 13.457Z" fill="black"/>
<path d="M52.8955 6.62109C53.5335 6.62109 54.0804 6.76237 54.5361 7.04492C54.9919 7.32747 55.3405 7.72396 55.582 8.23438C55.8236 8.74023 55.9443 9.33268 55.9443 10.0117V10.7158H50.7695C50.7832 11.5954 51.002 12.2653 51.4258 12.7256C51.8496 13.1859 52.4466 13.416 53.2168 13.416C53.6908 13.416 54.11 13.3727 54.4746 13.2861C54.8392 13.1995 55.2174 13.0719 55.6094 12.9033V13.9014C55.2311 14.07 54.8551 14.193 54.4814 14.2705C54.1123 14.348 53.6748 14.3867 53.1689 14.3867C52.4489 14.3867 51.82 14.2409 51.2822 13.9492C50.749 13.653 50.3343 13.2201 50.0381 12.6504C49.7419 12.0807 49.5938 11.3835 49.5938 10.5586C49.5938 9.75195 49.7282 9.05469 49.9971 8.4668C50.2705 7.87435 50.6533 7.41862 51.1455 7.09961C51.6423 6.7806 52.2256 6.62109 52.8955 6.62109ZM52.8818 7.55078C52.2757 7.55078 51.7926 7.74902 51.4326 8.14551C51.0726 8.54199 50.8584 9.0957 50.79 9.80664H54.7549C54.7503 9.36003 54.6797 8.9681 54.543 8.63086C54.4108 8.28906 54.208 8.02474 53.9346 7.83789C53.6611 7.64648 53.3102 7.55078 52.8818 7.55078Z" fill="black"/>
<path d="M61.2764 6.62109C61.4268 6.62109 61.584 6.63021 61.748 6.64844C61.9121 6.66211 62.0579 6.68262 62.1855 6.70996L62.042 7.7627C61.9189 7.73079 61.7822 7.70573 61.6318 7.6875C61.4814 7.66927 61.3402 7.66016 61.208 7.66016C60.9072 7.66016 60.6224 7.72168 60.3535 7.84473C60.0892 7.96322 59.8568 8.13639 59.6562 8.36426C59.4557 8.58756 59.2985 8.85872 59.1846 9.17773C59.0706 9.49219 59.0137 9.8431 59.0137 10.2305V14.25H57.8721V6.75781H58.8154L58.9385 8.13867H58.9863C59.1413 7.86068 59.3281 7.60775 59.5469 7.37988C59.7656 7.14746 60.0186 6.96289 60.3057 6.82617C60.5973 6.68945 60.9209 6.62109 61.2764 6.62109Z" fill="black"/>
<path d="M67.1484 6.62109C68.0371 6.62109 68.7093 6.83984 69.165 7.27734C69.6208 7.71029 69.8486 8.40755 69.8486 9.36914V14.25H68.7275V9.44434C68.7275 8.81999 68.584 8.35286 68.2969 8.04297C68.0143 7.73307 67.5791 7.57812 66.9912 7.57812C66.1618 7.57812 65.5784 7.81283 65.2412 8.28223C64.904 8.75163 64.7354 9.43294 64.7354 10.3262V14.25H63.6006V6.75781H64.5166L64.6875 7.83789H64.749C64.9085 7.57357 65.1113 7.35254 65.3574 7.1748C65.6035 6.99251 65.8792 6.85579 66.1846 6.76465C66.4899 6.66895 66.8112 6.62109 67.1484 6.62109Z" fill="black"/>
<path d="M77.0332 12.1992C77.0332 12.6777 76.9124 13.0811 76.6709 13.4092C76.4339 13.7327 76.0921 13.9766 75.6455 14.1406C75.2034 14.3047 74.6748 14.3867 74.0596 14.3867C73.5355 14.3867 73.082 14.3457 72.6992 14.2637C72.3164 14.1816 71.9814 14.0654 71.6943 13.915V12.8691C71.9997 13.0195 72.3643 13.1562 72.7881 13.2793C73.2119 13.4023 73.6449 13.4639 74.0869 13.4639C74.7341 13.4639 75.2034 13.359 75.4951 13.1494C75.7868 12.9398 75.9326 12.6549 75.9326 12.2949C75.9326 12.0898 75.8734 11.9098 75.7549 11.7549C75.6409 11.5954 75.4473 11.4427 75.1738 11.2969C74.9004 11.1465 74.5221 10.9824 74.0391 10.8047C73.5605 10.6224 73.1458 10.4424 72.7949 10.2646C72.4486 10.0824 72.1797 9.86133 71.9883 9.60156C71.8014 9.3418 71.708 9.00456 71.708 8.58984C71.708 7.95638 71.9632 7.47103 72.4736 7.13379C72.9886 6.79199 73.6631 6.62109 74.4971 6.62109C74.9482 6.62109 75.3698 6.66667 75.7617 6.75781C76.1582 6.8444 76.5273 6.96289 76.8691 7.11328L76.4863 8.02246C76.1764 7.8903 75.846 7.77865 75.4951 7.6875C75.1442 7.59635 74.7865 7.55078 74.4219 7.55078C73.8978 7.55078 73.4945 7.63737 73.2119 7.81055C72.9339 7.98372 72.7949 8.2207 72.7949 8.52148C72.7949 8.75391 72.8587 8.94531 72.9863 9.0957C73.1185 9.24609 73.3281 9.38737 73.6152 9.51953C73.9023 9.65169 74.2806 9.80664 74.75 9.98438C75.2194 10.1576 75.625 10.3376 75.9668 10.5244C76.3086 10.7067 76.5706 10.93 76.7529 11.1943C76.9398 11.4541 77.0332 11.7891 77.0332 12.1992Z" fill="black"/>
<path d="M85.2979 6.63477C86.1911 6.63477 86.8542 6.83529 87.2871 7.23633C87.7201 7.63737 87.9365 8.27767 87.9365 9.15723V14.25H87.1094L86.8906 13.1426H86.8359C86.6263 13.416 86.4076 13.6462 86.1797 13.833C85.9518 14.0153 85.6875 14.1543 85.3867 14.25C85.0905 14.3411 84.7259 14.3867 84.293 14.3867C83.8372 14.3867 83.4316 14.307 83.0762 14.1475C82.7253 13.988 82.4473 13.7464 82.2422 13.4229C82.0417 13.0993 81.9414 12.6891 81.9414 12.1924C81.9414 11.445 82.2376 10.8708 82.8301 10.4697C83.4225 10.0687 84.3249 9.84994 85.5371 9.81348L86.8291 9.75879V9.30078C86.8291 8.65365 86.6901 8.2002 86.4121 7.94043C86.1341 7.68066 85.7422 7.55078 85.2363 7.55078C84.8444 7.55078 84.4707 7.60775 84.1152 7.72168C83.7598 7.83561 83.4225 7.97005 83.1035 8.125L82.7549 7.26367C83.0921 7.09049 83.4795 6.94238 83.917 6.81934C84.3545 6.69629 84.8148 6.63477 85.2979 6.63477ZM86.8154 10.5586L85.6738 10.6064C84.7396 10.6429 84.0811 10.7956 83.6982 11.0645C83.3154 11.3333 83.124 11.7139 83.124 12.2061C83.124 12.6344 83.2539 12.9512 83.5137 13.1562C83.7734 13.3613 84.1175 13.4639 84.5459 13.4639C85.2113 13.4639 85.7559 13.2793 86.1797 12.9102C86.6035 12.541 86.8154 11.9873 86.8154 11.249V10.5586Z" fill="black"/>
<path d="M93.8223 6.62109C94.7109 6.62109 95.3831 6.83984 95.8389 7.27734C96.2946 7.71029 96.5225 8.40755 96.5225 9.36914V14.25H95.4014V9.44434C95.4014 8.81999 95.2578 8.35286 94.9707 8.04297C94.6881 7.73307 94.2529 7.57812 93.665 7.57812C92.8356 7.57812 92.2523 7.81283 91.915 8.28223C91.5778 8.75163 91.4092 9.43294 91.4092 10.3262V14.25H90.2744V6.75781H91.1904L91.3613 7.83789H91.4229C91.5824 7.57357 91.7852 7.35254 92.0312 7.1748C92.2773 6.99251 92.5531 6.85579 92.8584 6.76465C93.1637 6.66895 93.485 6.62109 93.8223 6.62109Z" fill="black"/>
<path d="M101.526 14.3867C100.578 14.3867 99.8265 14.0632 99.2705 13.416C98.7191 12.7689 98.4434 11.8073 98.4434 10.5312C98.4434 9.24154 98.7259 8.26855 99.291 7.6123C99.8561 6.9515 100.608 6.62109 101.547 6.62109C101.943 6.62109 102.29 6.6735 102.586 6.77832C102.882 6.88314 103.137 7.02441 103.352 7.20215C103.566 7.37533 103.746 7.57357 103.892 7.79688H103.974C103.955 7.6556 103.937 7.46191 103.919 7.21582C103.901 6.96973 103.892 6.76921 103.892 6.61426V3.61328H105.026V14.25H104.11L103.939 13.1836H103.892C103.75 13.4069 103.57 13.6097 103.352 13.792C103.137 13.9743 102.88 14.1201 102.579 14.2295C102.283 14.3343 101.932 14.3867 101.526 14.3867ZM101.704 13.4434C102.506 13.4434 103.074 13.2155 103.406 12.7598C103.739 12.304 103.905 11.6273 103.905 10.7295V10.5244C103.905 9.57194 103.746 8.84049 103.427 8.33008C103.112 7.81966 102.538 7.56445 101.704 7.56445C101.007 7.56445 100.485 7.83333 100.139 8.37109C99.7923 8.9043 99.6191 9.63346 99.6191 10.5586C99.6191 11.4792 99.79 12.1901 100.132 12.6914C100.478 13.1927 101.002 13.4434 101.704 13.4434Z" fill="black"/>
<path d="M112.402 14.25H111.24V4.25586H116.805V5.28125H112.402V8.94531H116.538V9.96387H112.402V14.25Z" fill="black"/>
<path d="M124.488 6.75781V14.25H123.559L123.395 13.1973H123.333C123.178 13.457 122.978 13.6758 122.731 13.8535C122.485 14.0312 122.207 14.1634 121.897 14.25C121.592 14.3411 121.266 14.3867 120.92 14.3867C120.327 14.3867 119.831 14.291 119.43 14.0996C119.029 13.9082 118.726 13.612 118.521 13.2109C118.32 12.8099 118.22 12.2949 118.22 11.666V6.75781H119.368V11.584C119.368 12.2083 119.509 12.6755 119.792 12.9854C120.075 13.2907 120.505 13.4434 121.084 13.4434C121.64 13.4434 122.082 13.3385 122.41 13.1289C122.743 12.9193 122.982 12.6117 123.128 12.2061C123.274 11.7959 123.347 11.2946 123.347 10.7021V6.75781H124.488Z" fill="black"/>
<path d="M130.436 6.62109C131.324 6.62109 131.996 6.83984 132.452 7.27734C132.908 7.71029 133.136 8.40755 133.136 9.36914V14.25H132.015V9.44434C132.015 8.81999 131.871 8.35286 131.584 8.04297C131.301 7.73307 130.866 7.57812 130.278 7.57812C129.449 7.57812 128.866 7.81283 128.528 8.28223C128.191 8.75163 128.022 9.43294 128.022 10.3262V14.25H126.888V6.75781H127.804L127.975 7.83789H128.036C128.196 7.57357 128.398 7.35254 128.645 7.1748C128.891 6.99251 129.166 6.85579 129.472 6.76465C129.777 6.66895 130.098 6.62109 130.436 6.62109Z" fill="black"/>
<path d="M138.475 14.3867C137.8 14.3867 137.205 14.2477 136.69 13.9697C136.175 13.6917 135.774 13.2679 135.487 12.6982C135.2 12.1286 135.057 11.4108 135.057 10.5449C135.057 9.63802 135.207 8.89746 135.508 8.32324C135.813 7.74447 136.232 7.31608 136.766 7.03809C137.299 6.76009 137.905 6.62109 138.584 6.62109C138.958 6.62109 139.318 6.65983 139.664 6.7373C140.015 6.81022 140.302 6.90365 140.525 7.01758L140.184 7.96777C139.956 7.87663 139.691 7.7946 139.391 7.72168C139.094 7.64876 138.816 7.6123 138.557 7.6123C138.037 7.6123 137.604 7.72396 137.258 7.94727C136.916 8.17057 136.659 8.4987 136.485 8.93164C136.317 9.36458 136.232 9.89779 136.232 10.5312C136.232 11.1374 136.314 11.6546 136.479 12.083C136.647 12.5114 136.896 12.8395 137.224 13.0674C137.556 13.2907 137.971 13.4023 138.468 13.4023C138.864 13.4023 139.222 13.3613 139.541 13.2793C139.86 13.1927 140.149 13.0924 140.409 12.9785V13.9902C140.159 14.1178 139.878 14.2158 139.568 14.2842C139.263 14.3525 138.898 14.3867 138.475 14.3867Z" fill="black"/>
<path d="M144.606 13.457C144.793 13.457 144.985 13.4411 145.181 13.4092C145.377 13.3773 145.536 13.3385 145.659 13.293V14.1748C145.527 14.234 145.342 14.2842 145.105 14.3252C144.873 14.3662 144.645 14.3867 144.422 14.3867C144.025 14.3867 143.665 14.3184 143.342 14.1816C143.018 14.0404 142.758 13.8034 142.562 13.4707C142.371 13.138 142.275 12.6777 142.275 12.0898V7.64648H141.209V7.09277L142.282 6.64844L142.733 5.02148H143.417V6.75781H145.611V7.64648H143.417V12.0557C143.417 12.5251 143.524 12.876 143.738 13.1084C143.957 13.3408 144.246 13.457 144.606 13.457Z" fill="black"/>
<path d="M148.312 6.75781V14.25H147.177V6.75781H148.312ZM147.758 3.95508C147.945 3.95508 148.104 4.0166 148.236 4.13965C148.373 4.25814 148.441 4.44499 148.441 4.7002C148.441 4.95085 148.373 5.1377 148.236 5.26074C148.104 5.38379 147.945 5.44531 147.758 5.44531C147.562 5.44531 147.398 5.38379 147.266 5.26074C147.138 5.1377 147.074 4.95085 147.074 4.7002C147.074 4.44499 147.138 4.25814 147.266 4.13965C147.398 4.0166 147.562 3.95508 147.758 3.95508Z" fill="black"/>
<path d="M157.178 10.4902C157.178 11.1055 157.098 11.6546 156.938 12.1377C156.779 12.6208 156.549 13.0286 156.248 13.3613C155.947 13.694 155.583 13.9492 155.154 14.127C154.73 14.3001 154.25 14.3867 153.712 14.3867C153.211 14.3867 152.75 14.3001 152.331 14.127C151.916 13.9492 151.556 13.694 151.251 13.3613C150.95 13.0286 150.715 12.6208 150.547 12.1377C150.383 11.6546 150.301 11.1055 150.301 10.4902C150.301 9.66992 150.44 8.97266 150.718 8.39844C150.996 7.81966 151.392 7.37988 151.907 7.0791C152.427 6.77376 153.044 6.62109 153.76 6.62109C154.443 6.62109 155.04 6.77376 155.551 7.0791C156.066 7.38444 156.465 7.8265 156.747 8.40527C157.034 8.97949 157.178 9.67448 157.178 10.4902ZM151.477 10.4902C151.477 11.0918 151.556 11.6136 151.716 12.0557C151.875 12.4977 152.121 12.8395 152.454 13.0811C152.787 13.3226 153.215 13.4434 153.739 13.4434C154.259 13.4434 154.685 13.3226 155.018 13.0811C155.355 12.8395 155.603 12.4977 155.763 12.0557C155.922 11.6136 156.002 11.0918 156.002 10.4902C156.002 9.89323 155.922 9.37826 155.763 8.94531C155.603 8.50781 155.357 8.17057 155.024 7.93359C154.692 7.69661 154.261 7.57812 153.732 7.57812C152.953 7.57812 152.381 7.83561 152.017 8.35059C151.657 8.86556 151.477 9.57878 151.477 10.4902Z" fill="black"/>
<path d="M162.688 6.62109C163.576 6.62109 164.248 6.83984 164.704 7.27734C165.16 7.71029 165.388 8.40755 165.388 9.36914V14.25H164.267V9.44434C164.267 8.81999 164.123 8.35286 163.836 8.04297C163.553 7.73307 163.118 7.57812 162.53 7.57812C161.701 7.57812 161.118 7.81283 160.78 8.28223C160.443 8.75163 160.274 9.43294 160.274 10.3262V14.25H159.14V6.75781H160.056L160.227 7.83789H160.288C160.448 7.57357 160.65 7.35254 160.896 7.1748C161.143 6.99251 161.418 6.85579 161.724 6.76465C162.029 6.66895 162.35 6.62109 162.688 6.62109Z" fill="black"/>
<path d="M172.572 12.1992C172.572 12.6777 172.451 13.0811 172.21 13.4092C171.973 13.7327 171.631 13.9766 171.185 14.1406C170.743 14.3047 170.214 14.3867 169.599 14.3867C169.075 14.3867 168.621 14.3457 168.238 14.2637C167.855 14.1816 167.521 14.0654 167.233 13.915V12.8691C167.539 13.0195 167.903 13.1562 168.327 13.2793C168.751 13.4023 169.184 13.4639 169.626 13.4639C170.273 13.4639 170.743 13.359 171.034 13.1494C171.326 12.9398 171.472 12.6549 171.472 12.2949C171.472 12.0898 171.412 11.9098 171.294 11.7549C171.18 11.5954 170.986 11.4427 170.713 11.2969C170.439 11.1465 170.061 10.9824 169.578 10.8047C169.1 10.6224 168.685 10.4424 168.334 10.2646C167.988 10.0824 167.719 9.86133 167.527 9.60156C167.34 9.3418 167.247 9.00456 167.247 8.58984C167.247 7.95638 167.502 7.47103 168.013 7.13379C168.528 6.79199 169.202 6.62109 170.036 6.62109C170.487 6.62109 170.909 6.66667 171.301 6.75781C171.697 6.8444 172.066 6.96289 172.408 7.11328L172.025 8.02246C171.715 7.8903 171.385 7.77865 171.034 7.6875C170.683 7.59635 170.326 7.55078 169.961 7.55078C169.437 7.55078 169.034 7.63737 168.751 7.81055C168.473 7.98372 168.334 8.2207 168.334 8.52148C168.334 8.75391 168.398 8.94531 168.525 9.0957C168.658 9.24609 168.867 9.38737 169.154 9.51953C169.441 9.65169 169.82 9.80664 170.289 9.98438C170.758 10.1576 171.164 10.3376 171.506 10.5244C171.848 10.7067 172.11 10.93 172.292 11.1943C172.479 11.4541 172.572 11.7891 172.572 12.1992Z" fill="black"/>
<rect x="24" y="38" width="16" height="16" rx="3" fill="#1E71F6"/>
<path d="M35.4799 41.3423C35.7406 40.983 36.2595 40.892 36.6387 41.139C37.018 41.386 37.114 41.8775 36.8533 42.2368L30.7423 50.6578C30.4083 51.118 29.6892 51.1132 29.3622 50.6484L27.14 47.4906C26.8848 47.1278 26.9882 46.6376 27.3712 46.3958C27.7541 46.1539 28.2715 46.252 28.5268 46.6147L30.0662 48.8024L35.4799 41.3423Z" fill="white"/>
<path d="M50.7002 38.6426C51.5205 38.6426 52.1973 38.7451 52.7305 38.9502C53.2682 39.1507 53.6693 39.4583 53.9336 39.873C54.1979 40.2878 54.3301 40.8164 54.3301 41.459C54.3301 41.9876 54.2344 42.4297 54.043 42.7852C53.8516 43.1361 53.6009 43.4209 53.291 43.6396C52.9811 43.8584 52.6507 44.027 52.2998 44.1455L55.041 48.6367H53.6875L51.2402 44.4668H49.1621V48.6367H48V38.6426H50.7002ZM50.6318 39.6475H49.1621V43.4824H50.748C51.5638 43.4824 52.1631 43.3161 52.5459 42.9834C52.9333 42.6507 53.127 42.1608 53.127 41.5137C53.127 40.8346 52.9219 40.3538 52.5117 40.0713C52.1061 39.7887 51.4795 39.6475 50.6318 39.6475Z" fill="black"/>
<path d="M59.3545 41.0078C59.9925 41.0078 60.5394 41.1491 60.9951 41.4316C61.4508 41.7142 61.7995 42.1107 62.041 42.6211C62.2826 43.127 62.4033 43.7194 62.4033 44.3984V45.1025H57.2285C57.2422 45.9821 57.4609 46.652 57.8848 47.1123C58.3086 47.5726 58.9056 47.8027 59.6758 47.8027C60.1497 47.8027 60.569 47.7594 60.9336 47.6729C61.2982 47.5863 61.6764 47.4587 62.0684 47.29V48.2881C61.6901 48.4567 61.3141 48.5798 60.9404 48.6572C60.5713 48.7347 60.1338 48.7734 59.6279 48.7734C58.9079 48.7734 58.279 48.6276 57.7412 48.3359C57.208 48.0397 56.7933 47.6068 56.4971 47.0371C56.2008 46.4674 56.0527 45.7702 56.0527 44.9453C56.0527 44.1387 56.1872 43.4414 56.4561 42.8535C56.7295 42.2611 57.1123 41.8053 57.6045 41.4863C58.1012 41.1673 58.6846 41.0078 59.3545 41.0078ZM59.3408 41.9375C58.7347 41.9375 58.2516 42.1357 57.8916 42.5322C57.5316 42.9287 57.3174 43.4824 57.249 44.1934H61.2139C61.2093 43.7467 61.1387 43.3548 61.002 43.0176C60.8698 42.6758 60.667 42.4115 60.3936 42.2246C60.1201 42.0332 59.7692 41.9375 59.3408 41.9375Z" fill="black"/>
<path d="M70.791 44.877C70.791 45.4922 70.7113 46.0413 70.5518 46.5244C70.3923 47.0075 70.1621 47.4154 69.8613 47.748C69.5605 48.0807 69.196 48.3359 68.7676 48.5137C68.3438 48.6868 67.863 48.7734 67.3252 48.7734C66.8239 48.7734 66.3636 48.6868 65.9443 48.5137C65.5296 48.3359 65.1696 48.0807 64.8643 47.748C64.5635 47.4154 64.3288 47.0075 64.1602 46.5244C63.9961 46.0413 63.9141 45.4922 63.9141 44.877C63.9141 44.0566 64.0531 43.3594 64.3311 42.7852C64.609 42.2064 65.0055 41.7666 65.5205 41.4658C66.04 41.1605 66.6576 41.0078 67.373 41.0078C68.0566 41.0078 68.6536 41.1605 69.1641 41.4658C69.679 41.7712 70.0778 42.2132 70.3604 42.792C70.6475 43.3662 70.791 44.0612 70.791 44.877ZM65.0898 44.877C65.0898 45.4785 65.1696 46.0003 65.3291 46.4424C65.4886 46.8844 65.7347 47.2262 66.0674 47.4678C66.4001 47.7093 66.8285 47.8301 67.3525 47.8301C67.8721 47.8301 68.2982 47.7093 68.6309 47.4678C68.9681 47.2262 69.2165 46.8844 69.376 46.4424C69.5355 46.0003 69.6152 45.4785 69.6152 44.877C69.6152 44.2799 69.5355 43.765 69.376 43.332C69.2165 42.8945 68.9704 42.5573 68.6377 42.3203C68.305 42.0833 67.8743 41.9648 67.3457 41.9648C66.5664 41.9648 65.9945 42.2223 65.6299 42.7373C65.2699 43.2523 65.0898 43.9655 65.0898 44.877Z" fill="black"/>
<path d="M76.1572 41.0078C76.3076 41.0078 76.4648 41.0169 76.6289 41.0352C76.793 41.0488 76.9388 41.0693 77.0664 41.0967L76.9229 42.1494C76.7998 42.1175 76.6631 42.0924 76.5127 42.0742C76.3623 42.056 76.221 42.0469 76.0889 42.0469C75.7881 42.0469 75.5033 42.1084 75.2344 42.2314C74.9701 42.3499 74.7376 42.5231 74.5371 42.751C74.3366 42.9743 74.1794 43.2454 74.0654 43.5645C73.9515 43.8789 73.8945 44.2298 73.8945 44.6172V48.6367H72.7529V41.1445H73.6963L73.8193 42.5254H73.8672C74.0221 42.2474 74.209 41.9945 74.4277 41.7666C74.6465 41.5342 74.8994 41.3496 75.1865 41.2129C75.4782 41.0762 75.8018 41.0078 76.1572 41.0078Z" fill="black"/>
<path d="M81.1475 48.7734C80.1995 48.7734 79.4476 48.4499 78.8916 47.8027C78.3402 47.1556 78.0645 46.194 78.0645 44.918C78.0645 43.6283 78.347 42.6553 78.9121 41.999C79.4772 41.3382 80.2292 41.0078 81.168 41.0078C81.5645 41.0078 81.9108 41.0602 82.207 41.165C82.5033 41.2699 82.7585 41.4111 82.9727 41.5889C83.1868 41.762 83.3669 41.9603 83.5127 42.1836H83.5947C83.5765 42.0423 83.5583 41.8486 83.54 41.6025C83.5218 41.3564 83.5127 41.1559 83.5127 41.001V38H84.6475V48.6367H83.7314L83.5605 47.5703H83.5127C83.3714 47.7936 83.1914 47.9964 82.9727 48.1787C82.7585 48.361 82.501 48.5068 82.2002 48.6162C81.904 48.721 81.5531 48.7734 81.1475 48.7734ZM81.3252 47.8301C82.1273 47.8301 82.6947 47.6022 83.0273 47.1465C83.36 46.6908 83.5264 46.014 83.5264 45.1162V44.9111C83.5264 43.9587 83.3669 43.2272 83.0479 42.7168C82.7334 42.2064 82.1592 41.9512 81.3252 41.9512C80.6279 41.9512 80.1061 42.2201 79.7598 42.7578C79.4134 43.291 79.2402 44.0202 79.2402 44.9453C79.2402 45.8659 79.4111 46.5768 79.7529 47.0781C80.0993 47.5794 80.6234 47.8301 81.3252 47.8301Z" fill="black"/>
<path d="M89.9385 41.0078C90.5765 41.0078 91.1234 41.1491 91.5791 41.4316C92.0348 41.7142 92.3835 42.1107 92.625 42.6211C92.8665 43.127 92.9873 43.7194 92.9873 44.3984V45.1025H87.8125C87.8262 45.9821 88.0449 46.652 88.4688 47.1123C88.8926 47.5726 89.4896 47.8027 90.2598 47.8027C90.7337 47.8027 91.153 47.7594 91.5176 47.6729C91.8822 47.5863 92.2604 47.4587 92.6523 47.29V48.2881C92.2741 48.4567 91.8981 48.5798 91.5244 48.6572C91.1553 48.7347 90.7178 48.7734 90.2119 48.7734C89.4919 48.7734 88.863 48.6276 88.3252 48.3359C87.792 48.0397 87.3773 47.6068 87.0811 47.0371C86.7848 46.4674 86.6367 45.7702 86.6367 44.9453C86.6367 44.1387 86.7712 43.4414 87.04 42.8535C87.3135 42.2611 87.6963 41.8053 88.1885 41.4863C88.6852 41.1673 89.2686 41.0078 89.9385 41.0078ZM89.9248 41.9375C89.3187 41.9375 88.8356 42.1357 88.4756 42.5322C88.1156 42.9287 87.9014 43.4824 87.833 44.1934H91.7979C91.7933 43.7467 91.7227 43.3548 91.5859 43.0176C91.4538 42.6758 91.251 42.4115 90.9775 42.2246C90.7041 42.0332 90.3532 41.9375 89.9248 41.9375Z" fill="black"/>
<path d="M98.3193 41.0078C98.4697 41.0078 98.627 41.0169 98.791 41.0352C98.9551 41.0488 99.1009 41.0693 99.2285 41.0967L99.085 42.1494C98.9619 42.1175 98.8252 42.0924 98.6748 42.0742C98.5244 42.056 98.3831 42.0469 98.251 42.0469C97.9502 42.0469 97.6654 42.1084 97.3965 42.2314C97.1322 42.3499 96.8997 42.5231 96.6992 42.751C96.4987 42.9743 96.3415 43.2454 96.2275 43.5645C96.1136 43.8789 96.0566 44.2298 96.0566 44.6172V48.6367H94.915V41.1445H95.8584L95.9814 42.5254H96.0293C96.1842 42.2474 96.3711 41.9945 96.5898 41.7666C96.8086 41.5342 97.0615 41.3496 97.3486 41.2129C97.6403 41.0762 97.9639 41.0078 98.3193 41.0078Z" fill="black"/>
<path d="M101.778 41.1445V48.6367H100.644V41.1445H101.778ZM101.225 38.3418C101.411 38.3418 101.571 38.4033 101.703 38.5264C101.84 38.6449 101.908 38.8317 101.908 39.0869C101.908 39.3376 101.84 39.5244 101.703 39.6475C101.571 39.7705 101.411 39.832 101.225 39.832C101.029 39.832 100.865 39.7705 100.732 39.6475C100.605 39.5244 100.541 39.3376 100.541 39.0869C100.541 38.8317 100.605 38.6449 100.732 38.5264C100.865 38.4033 101.029 38.3418 101.225 38.3418Z" fill="black"/>
<path d="M107.732 41.0078C108.621 41.0078 109.293 41.2266 109.749 41.6641C110.205 42.097 110.433 42.7943 110.433 43.7559V48.6367H109.312V43.8311C109.312 43.2067 109.168 42.7396 108.881 42.4297C108.598 42.1198 108.163 41.9648 107.575 41.9648C106.746 41.9648 106.162 42.1995 105.825 42.6689C105.488 43.1383 105.319 43.8197 105.319 44.7129V48.6367H104.185V41.1445H105.101L105.271 42.2246H105.333C105.493 41.9603 105.695 41.7393 105.941 41.5615C106.188 41.3792 106.463 41.2425 106.769 41.1514C107.074 41.0557 107.395 41.0078 107.732 41.0078Z" fill="black"/>
<path d="M114.862 52C113.878 52 113.119 51.8154 112.586 51.4463C112.053 51.0817 111.786 50.569 111.786 49.9082C111.786 49.4388 111.934 49.0378 112.23 48.7051C112.531 48.3724 112.946 48.1514 113.475 48.042C113.279 47.9508 113.11 47.8141 112.969 47.6318C112.832 47.4495 112.764 47.2399 112.764 47.0029C112.764 46.7295 112.839 46.4902 112.989 46.2852C113.144 46.0755 113.379 45.875 113.693 45.6836C113.301 45.5241 112.982 45.2552 112.736 44.877C112.495 44.4941 112.374 44.0498 112.374 43.5439C112.374 43.0062 112.486 42.5482 112.709 42.1699C112.932 41.7871 113.256 41.4954 113.68 41.2949C114.104 41.0944 114.616 40.9941 115.218 40.9941C115.35 40.9941 115.482 41.001 115.614 41.0146C115.751 41.0238 115.881 41.0397 116.004 41.0625C116.127 41.0807 116.234 41.1035 116.325 41.1309H118.896V41.8623L117.515 42.0332C117.651 42.2109 117.765 42.4251 117.856 42.6758C117.948 42.9264 117.993 43.2044 117.993 43.5098C117.993 44.2572 117.74 44.8519 117.234 45.2939C116.729 45.7314 116.034 45.9502 115.149 45.9502C114.94 45.9502 114.726 45.932 114.507 45.8955C114.284 46.0186 114.113 46.1553 113.994 46.3057C113.88 46.4561 113.823 46.6292 113.823 46.8252C113.823 46.971 113.867 47.0872 113.953 47.1738C114.044 47.2604 114.174 47.3242 114.343 47.3652C114.511 47.4017 114.714 47.4199 114.951 47.4199H116.271C117.086 47.4199 117.711 47.5908 118.144 47.9326C118.581 48.2744 118.8 48.7734 118.8 49.4297C118.8 50.2591 118.463 50.8949 117.788 51.3369C117.114 51.779 116.138 52 114.862 52ZM114.896 51.1113C115.516 51.1113 116.029 51.0475 116.435 50.9199C116.845 50.7969 117.15 50.6169 117.351 50.3799C117.556 50.1475 117.658 49.8695 117.658 49.5459C117.658 49.2451 117.59 49.0173 117.453 48.8623C117.316 48.7119 117.116 48.6117 116.852 48.5615C116.587 48.5068 116.264 48.4795 115.881 48.4795H114.582C114.245 48.4795 113.951 48.5319 113.7 48.6367C113.45 48.7415 113.256 48.8965 113.119 49.1016C112.987 49.3066 112.921 49.5618 112.921 49.8672C112.921 50.2728 113.092 50.5804 113.434 50.79C113.775 51.0042 114.263 51.1113 114.896 51.1113ZM115.19 45.123C115.733 45.123 116.141 44.9863 116.414 44.7129C116.688 44.4395 116.824 44.0407 116.824 43.5166C116.824 42.9561 116.685 42.5368 116.407 42.2588C116.129 41.9762 115.719 41.835 115.177 41.835C114.657 41.835 114.256 41.9808 113.974 42.2725C113.696 42.5596 113.557 42.9811 113.557 43.5371C113.557 44.0475 113.698 44.4395 113.98 44.7129C114.263 44.9863 114.666 45.123 115.19 45.123Z" fill="black"/>
<rect x="24.5" y="64.5" width="15" height="15" rx="2.5" fill="white" stroke="#545454"/>
<path d="M52.7852 67.1377C52.2337 67.1377 51.737 67.2334 51.2949 67.4248C50.8574 67.6117 50.4837 67.8851 50.1738 68.2451C49.8685 68.6006 49.6338 69.0312 49.4697 69.5371C49.3057 70.043 49.2236 70.6126 49.2236 71.2461C49.2236 72.0846 49.3535 72.8138 49.6133 73.4336C49.8776 74.0488 50.2695 74.5251 50.7891 74.8623C51.3132 75.1995 51.9671 75.3682 52.751 75.3682C53.1976 75.3682 53.6169 75.3317 54.0088 75.2588C54.4053 75.1813 54.7904 75.0856 55.1641 74.9717V75.9834C54.7995 76.1201 54.4167 76.2204 54.0156 76.2842C53.6146 76.3525 53.1383 76.3867 52.5869 76.3867C51.5706 76.3867 50.7207 76.1771 50.0371 75.7578C49.3581 75.334 48.8477 74.737 48.5059 73.9668C48.1686 73.1966 48 72.2874 48 71.2393C48 70.4827 48.1048 69.7923 48.3145 69.168C48.5286 68.5391 48.8385 67.9967 49.2441 67.541C49.6543 67.0853 50.1556 66.7344 50.748 66.4883C51.3451 66.2376 52.0286 66.1123 52.7988 66.1123C53.3047 66.1123 53.7923 66.1624 54.2617 66.2627C54.7311 66.363 55.1549 66.5065 55.5332 66.6934L55.0684 67.6777C54.7493 67.5319 54.3984 67.4066 54.0156 67.3018C53.6374 67.1924 53.2272 67.1377 52.7852 67.1377Z" fill="black"/>
<path d="M63.6201 72.4902C63.6201 73.1055 63.5404 73.6546 63.3809 74.1377C63.2214 74.6208 62.9912 75.0286 62.6904 75.3613C62.3896 75.694 62.0251 75.9492 61.5967 76.127C61.1729 76.3001 60.6921 76.3867 60.1543 76.3867C59.653 76.3867 59.1927 76.3001 58.7734 76.127C58.3587 75.9492 57.9987 75.694 57.6934 75.3613C57.3926 75.0286 57.1579 74.6208 56.9893 74.1377C56.8252 73.6546 56.7432 73.1055 56.7432 72.4902C56.7432 71.6699 56.8822 70.9727 57.1602 70.3984C57.4382 69.8197 57.8346 69.3799 58.3496 69.0791C58.8691 68.7738 59.4867 68.6211 60.2021 68.6211C60.8857 68.6211 61.4827 68.7738 61.9932 69.0791C62.5081 69.3844 62.9069 69.8265 63.1895 70.4053C63.4766 70.9795 63.6201 71.6745 63.6201 72.4902ZM57.9189 72.4902C57.9189 73.0918 57.9987 73.6136 58.1582 74.0557C58.3177 74.4977 58.5638 74.8395 58.8965 75.0811C59.2292 75.3226 59.6576 75.4434 60.1816 75.4434C60.7012 75.4434 61.1273 75.3226 61.46 75.0811C61.7972 74.8395 62.0456 74.4977 62.2051 74.0557C62.3646 73.6136 62.4443 73.0918 62.4443 72.4902C62.4443 71.8932 62.3646 71.3783 62.2051 70.9453C62.0456 70.5078 61.7995 70.1706 61.4668 69.9336C61.1341 69.6966 60.7035 69.5781 60.1748 69.5781C59.3955 69.5781 58.8236 69.8356 58.459 70.3506C58.099 70.8656 57.9189 71.5788 57.9189 72.4902Z" fill="black"/>
<path d="M68.248 76.3867C67.3001 76.3867 66.5482 76.0632 65.9922 75.416C65.4408 74.7689 65.165 73.8073 65.165 72.5312C65.165 71.2415 65.4476 70.2686 66.0127 69.6123C66.5778 68.9515 67.3298 68.6211 68.2686 68.6211C68.665 68.6211 69.0114 68.6735 69.3076 68.7783C69.6038 68.8831 69.859 69.0244 70.0732 69.2021C70.2874 69.3753 70.4674 69.5736 70.6133 69.7969H70.6953C70.6771 69.6556 70.6589 69.4619 70.6406 69.2158C70.6224 68.9697 70.6133 68.7692 70.6133 68.6143V65.6133H71.748V76.25H70.832L70.6611 75.1836H70.6133C70.472 75.4069 70.292 75.6097 70.0732 75.792C69.859 75.9743 69.6016 76.1201 69.3008 76.2295C69.0046 76.3343 68.6536 76.3867 68.248 76.3867ZM68.4258 75.4434C69.2279 75.4434 69.7952 75.2155 70.1279 74.7598C70.4606 74.304 70.627 73.6273 70.627 72.7295V72.5244C70.627 71.5719 70.4674 70.8405 70.1484 70.3301C69.834 69.8197 69.2598 69.5645 68.4258 69.5645C67.7285 69.5645 67.2067 69.8333 66.8604 70.3711C66.514 70.9043 66.3408 71.6335 66.3408 72.5586C66.3408 73.4792 66.5117 74.1901 66.8535 74.6914C67.1999 75.1927 67.724 75.4434 68.4258 75.4434Z" fill="black"/>
<path d="M77.0391 68.6211C77.6771 68.6211 78.224 68.7624 78.6797 69.0449C79.1354 69.3275 79.484 69.724 79.7256 70.2344C79.9671 70.7402 80.0879 71.3327 80.0879 72.0117V72.7158H74.9131C74.9268 73.5954 75.1455 74.2653 75.5693 74.7256C75.9932 75.1859 76.5902 75.416 77.3604 75.416C77.8343 75.416 78.2536 75.3727 78.6182 75.2861C78.9827 75.1995 79.361 75.0719 79.7529 74.9033V75.9014C79.3747 76.07 78.9987 76.193 78.625 76.2705C78.2559 76.348 77.8184 76.3867 77.3125 76.3867C76.5924 76.3867 75.9635 76.2409 75.4258 75.9492C74.8926 75.653 74.4779 75.2201 74.1816 74.6504C73.8854 74.0807 73.7373 73.3835 73.7373 72.5586C73.7373 71.752 73.8717 71.0547 74.1406 70.4668C74.4141 69.8743 74.7969 69.4186 75.2891 69.0996C75.7858 68.7806 76.3691 68.6211 77.0391 68.6211ZM77.0254 69.5508C76.4193 69.5508 75.9362 69.749 75.5762 70.1455C75.2161 70.542 75.002 71.0957 74.9336 71.8066H78.8984C78.8939 71.36 78.8232 70.9681 78.6865 70.6309C78.5544 70.2891 78.3516 70.0247 78.0781 69.8379C77.8047 69.6465 77.4538 69.5508 77.0254 69.5508Z" fill="black"/>
<path d="M86.8623 74.1992C86.8623 74.6777 86.7415 75.0811 86.5 75.4092C86.263 75.7327 85.9212 75.9766 85.4746 76.1406C85.0326 76.3047 84.5039 76.3867 83.8887 76.3867C83.3646 76.3867 82.9111 76.3457 82.5283 76.2637C82.1455 76.1816 81.8105 76.0654 81.5234 75.915V74.8691C81.8288 75.0195 82.1934 75.1562 82.6172 75.2793C83.041 75.4023 83.474 75.4639 83.916 75.4639C84.5632 75.4639 85.0326 75.359 85.3242 75.1494C85.6159 74.9398 85.7617 74.6549 85.7617 74.2949C85.7617 74.0898 85.7025 73.9098 85.584 73.7549C85.4701 73.5954 85.2764 73.4427 85.0029 73.2969C84.7295 73.1465 84.3512 72.9824 83.8682 72.8047C83.3896 72.6224 82.9749 72.4424 82.624 72.2646C82.2777 72.0824 82.0088 71.8613 81.8174 71.6016C81.6305 71.3418 81.5371 71.0046 81.5371 70.5898C81.5371 69.9564 81.7923 69.471 82.3027 69.1338C82.8177 68.792 83.4922 68.6211 84.3262 68.6211C84.7773 68.6211 85.1989 68.6667 85.5908 68.7578C85.9873 68.8444 86.3564 68.9629 86.6982 69.1133L86.3154 70.0225C86.0055 69.8903 85.6751 69.7786 85.3242 69.6875C84.9733 69.5964 84.6156 69.5508 84.251 69.5508C83.7269 69.5508 83.3236 69.6374 83.041 69.8105C82.763 69.9837 82.624 70.2207 82.624 70.5215C82.624 70.7539 82.6878 70.9453 82.8154 71.0957C82.9476 71.2461 83.1572 71.3874 83.4443 71.5195C83.7314 71.6517 84.1097 71.8066 84.5791 71.9844C85.0485 72.1576 85.4541 72.3376 85.7959 72.5244C86.1377 72.7067 86.3997 72.93 86.582 73.1943C86.7689 73.4541 86.8623 73.7891 86.8623 74.1992Z" fill="black"/>
<rect x="24" y="90" width="16" height="16" rx="3" fill="#1E71F6"/>
<path d="M35.4799 93.3423C35.7406 92.983 36.2595 92.892 36.6387 93.139C37.018 93.386 37.114 93.8775 36.8533 94.2368L30.7423 102.658C30.4083 103.118 29.6892 103.113 29.3622 102.648L27.14 99.4906C26.8848 99.1278 26.9882 98.6376 27.3712 98.3958C27.7541 98.1539 28.2715 98.252 28.5268 98.6147L30.0662 100.802L35.4799 93.3423Z" fill="white"/>
<path d="M54.2891 97.7349C54.2891 98.3273 54.141 98.8332 53.8447 99.2524C53.5531 99.6672 53.1429 99.9839 52.6143 100.203C52.0856 100.421 51.4635 100.531 50.748 100.531C50.3698 100.531 50.012 100.513 49.6748 100.476C49.3376 100.44 49.0277 100.387 48.7451 100.319C48.4626 100.25 48.2142 100.166 48 100.066V98.9517C48.3418 99.0929 48.7588 99.2251 49.251 99.3481C49.7432 99.4666 50.2581 99.5259 50.7959 99.5259C51.2972 99.5259 51.721 99.4598 52.0674 99.3276C52.4137 99.1909 52.6758 98.9972 52.8535 98.7466C53.0358 98.4914 53.127 98.186 53.127 97.8306C53.127 97.4888 53.0518 97.2039 52.9014 96.9761C52.751 96.7437 52.5003 96.534 52.1494 96.3472C51.8031 96.1558 51.3291 95.953 50.7275 95.7388C50.3037 95.5884 49.93 95.4243 49.6064 95.2466C49.2829 95.0643 49.0117 94.8592 48.793 94.6313C48.5742 94.4035 48.4079 94.1392 48.2939 93.8384C48.1846 93.5376 48.1299 93.1935 48.1299 92.8062C48.1299 92.2729 48.2643 91.8172 48.5332 91.439C48.8066 91.0562 49.1826 90.7645 49.6611 90.564C50.1442 90.3589 50.6979 90.2563 51.3223 90.2563C51.8555 90.2563 52.3477 90.3065 52.7988 90.4067C53.2546 90.507 53.6715 90.6414 54.0498 90.8101L53.6875 91.8081C53.3275 91.6577 52.9447 91.5324 52.5391 91.4321C52.138 91.3319 51.7233 91.2817 51.2949 91.2817C50.8665 91.2817 50.5042 91.3455 50.208 91.4731C49.9163 91.5962 49.693 91.7716 49.5381 91.9995C49.3831 92.2274 49.3057 92.4985 49.3057 92.813C49.3057 93.1639 49.3786 93.4556 49.5244 93.688C49.6748 93.9204 49.9118 94.1278 50.2354 94.3101C50.5635 94.4878 50.9964 94.6746 51.5342 94.8706C52.1221 95.0848 52.6211 95.3127 53.0312 95.5542C53.4414 95.7912 53.7536 96.0828 53.9678 96.4292C54.182 96.771 54.2891 97.2062 54.2891 97.7349Z" fill="black"/>
<path d="M59.0469 92.7651C59.6849 92.7651 60.2318 92.9064 60.6875 93.189C61.1432 93.4715 61.4919 93.868 61.7334 94.3784C61.9749 94.8843 62.0957 95.4767 62.0957 96.1558V96.8599H56.9209C56.9346 97.7394 57.1533 98.4093 57.5771 98.8696C58.001 99.3299 58.598 99.5601 59.3682 99.5601C59.8421 99.5601 60.2614 99.5168 60.626 99.4302C60.9906 99.3436 61.3688 99.216 61.7607 99.0474V100.045C61.3825 100.214 61.0065 100.337 60.6328 100.415C60.2637 100.492 59.8262 100.531 59.3203 100.531C58.6003 100.531 57.9714 100.385 57.4336 100.093C56.9004 99.797 56.4857 99.3641 56.1895 98.7944C55.8932 98.2248 55.7451 97.5275 55.7451 96.7026C55.7451 95.896 55.8796 95.1987 56.1484 94.6108C56.4219 94.0184 56.8047 93.5627 57.2969 93.2437C57.7936 92.9246 58.377 92.7651 59.0469 92.7651ZM59.0332 93.6948C58.4271 93.6948 57.944 93.8931 57.584 94.2896C57.224 94.686 57.0098 95.2397 56.9414 95.9507H60.9062C60.9017 95.5041 60.8311 95.1121 60.6943 94.7749C60.5622 94.4331 60.3594 94.1688 60.0859 93.9819C59.8125 93.7905 59.4616 93.6948 59.0332 93.6948Z" fill="black"/>
<path d="M69.0479 103.744V100.531C69.0479 100.353 69.0524 100.148 69.0615 99.9155C69.0706 99.6831 69.0866 99.4826 69.1094 99.314H69.0342C68.8245 99.6603 68.526 99.9497 68.1387 100.182C67.7513 100.415 67.2523 100.531 66.6416 100.531C65.7256 100.531 64.9896 100.207 64.4336 99.5601C63.8776 98.9129 63.5996 97.9468 63.5996 96.6616C63.5996 95.8185 63.7272 95.1076 63.9824 94.5288C64.2376 93.95 64.5977 93.5125 65.0625 93.2163C65.5319 92.9155 66.0788 92.7651 66.7031 92.7651C67.3001 92.7651 67.7878 92.8836 68.166 93.1206C68.5443 93.353 68.8405 93.6379 69.0547 93.9751H69.1094L69.2803 92.9019H70.1826V103.744H69.0479ZM66.8535 99.5874C67.3822 99.5874 67.806 99.4894 68.125 99.2935C68.444 99.0929 68.6764 98.7922 68.8223 98.3911C68.9727 97.9901 69.0524 97.491 69.0615 96.894V96.6548C69.0615 95.6886 68.8975 94.9572 68.5693 94.4604C68.2412 93.9591 67.6693 93.7085 66.8535 93.7085C66.1517 93.7085 65.6299 93.9774 65.2881 94.5151C64.9463 95.0483 64.7754 95.7729 64.7754 96.689C64.7754 97.605 64.9463 98.3182 65.2881 98.8286C65.6299 99.3345 66.1517 99.5874 66.8535 99.5874Z" fill="black"/>
<path d="M78.7822 92.9019V100.394H77.8525L77.6885 99.3413H77.627C77.472 99.6011 77.2715 99.8198 77.0254 99.9976C76.7793 100.175 76.5013 100.307 76.1914 100.394C75.8861 100.485 75.5602 100.531 75.2139 100.531C74.6214 100.531 74.1247 100.435 73.7236 100.244C73.3226 100.052 73.0195 99.756 72.8145 99.355C72.6139 98.9539 72.5137 98.439 72.5137 97.8101V92.9019H73.6621V97.728C73.6621 98.3524 73.8034 98.8195 74.0859 99.1294C74.3685 99.4347 74.7992 99.5874 75.3779 99.5874C75.9339 99.5874 76.376 99.4826 76.7041 99.2729C77.0368 99.0633 77.276 98.7557 77.4219 98.3501C77.5677 97.9399 77.6406 97.4386 77.6406 96.8462V92.9019H78.7822Z" fill="black"/>
<path d="M84.0664 92.7651C84.7044 92.7651 85.2513 92.9064 85.707 93.189C86.1628 93.4715 86.5114 93.868 86.7529 94.3784C86.9945 94.8843 87.1152 95.4767 87.1152 96.1558V96.8599H81.9404C81.9541 97.7394 82.1729 98.4093 82.5967 98.8696C83.0205 99.3299 83.6175 99.5601 84.3877 99.5601C84.8617 99.5601 85.2809 99.5168 85.6455 99.4302C86.0101 99.3436 86.3883 99.216 86.7803 99.0474V100.045C86.402 100.214 86.026 100.337 85.6523 100.415C85.2832 100.492 84.8457 100.531 84.3398 100.531C83.6198 100.531 82.9909 100.385 82.4531 100.093C81.9199 99.797 81.5052 99.3641 81.209 98.7944C80.9128 98.2248 80.7646 97.5275 80.7646 96.7026C80.7646 95.896 80.8991 95.1987 81.168 94.6108C81.4414 94.0184 81.8242 93.5627 82.3164 93.2437C82.8132 92.9246 83.3965 92.7651 84.0664 92.7651ZM84.0527 93.6948C83.4466 93.6948 82.9635 93.8931 82.6035 94.2896C82.2435 94.686 82.0293 95.2397 81.9609 95.9507H85.9258C85.9212 95.5041 85.8506 95.1121 85.7139 94.7749C85.5817 94.4331 85.3789 94.1688 85.1055 93.9819C84.832 93.7905 84.4811 93.6948 84.0527 93.6948Z" fill="black"/>
<path d="M92.5908 92.7651C93.4795 92.7651 94.1517 92.9839 94.6074 93.4214C95.0632 93.8543 95.291 94.5516 95.291 95.5132V100.394H94.1699V95.5884C94.1699 94.964 94.0264 94.4969 93.7393 94.187C93.4567 93.8771 93.0215 93.7222 92.4336 93.7222C91.6042 93.7222 91.0208 93.9569 90.6836 94.4263C90.3464 94.8957 90.1777 95.577 90.1777 96.4702V100.394H89.043V92.9019H89.959L90.1299 93.9819H90.1914C90.3509 93.7176 90.5537 93.4966 90.7998 93.3188C91.0459 93.1366 91.3216 92.9998 91.627 92.9087C91.9323 92.813 92.2536 92.7651 92.5908 92.7651Z" fill="black"/>
<path d="M100.63 100.531C99.9554 100.531 99.3607 100.392 98.8457 100.114C98.3307 99.8358 97.9297 99.4119 97.6426 98.8423C97.3555 98.2726 97.2119 97.5549 97.2119 96.689C97.2119 95.7821 97.3623 95.0415 97.6631 94.4673C97.9684 93.8885 98.3877 93.4601 98.9209 93.1821C99.4541 92.9041 100.06 92.7651 100.739 92.7651C101.113 92.7651 101.473 92.8039 101.819 92.8813C102.17 92.9543 102.457 93.0477 102.681 93.1616L102.339 94.1118C102.111 94.0207 101.847 93.9386 101.546 93.8657C101.25 93.7928 100.972 93.7563 100.712 93.7563C100.192 93.7563 99.7594 93.868 99.4131 94.0913C99.0713 94.3146 98.8138 94.6427 98.6406 95.0757C98.472 95.5086 98.3877 96.0418 98.3877 96.6753C98.3877 97.2814 98.4697 97.7987 98.6338 98.2271C98.8024 98.6554 99.0508 98.9836 99.3789 99.2114C99.7116 99.4347 100.126 99.5464 100.623 99.5464C101.02 99.5464 101.377 99.5054 101.696 99.4233C102.015 99.3368 102.305 99.2365 102.564 99.1226V100.134C102.314 100.262 102.034 100.36 101.724 100.428C101.418 100.497 101.054 100.531 100.63 100.531Z" fill="black"/>
<path d="M107.227 92.7651C107.865 92.7651 108.411 92.9064 108.867 93.189C109.323 93.4715 109.672 93.868 109.913 94.3784C110.155 94.8843 110.275 95.4767 110.275 96.1558V96.8599H105.101C105.114 97.7394 105.333 98.4093 105.757 98.8696C106.181 99.3299 106.778 99.5601 107.548 99.5601C108.022 99.5601 108.441 99.5168 108.806 99.4302C109.17 99.3436 109.549 99.216 109.94 99.0474V100.045C109.562 100.214 109.186 100.337 108.812 100.415C108.443 100.492 108.006 100.531 107.5 100.531C106.78 100.531 106.151 100.385 105.613 100.093C105.08 99.797 104.665 99.3641 104.369 98.7944C104.073 98.2248 103.925 97.5275 103.925 96.7026C103.925 95.896 104.059 95.1987 104.328 94.6108C104.602 94.0184 104.984 93.5627 105.477 93.2437C105.973 92.9246 106.557 92.7651 107.227 92.7651ZM107.213 93.6948C106.607 93.6948 106.124 93.8931 105.764 94.2896C105.404 94.686 105.189 95.2397 105.121 95.9507H109.086C109.081 95.5041 109.011 95.1121 108.874 94.7749C108.742 94.4331 108.539 94.1688 108.266 93.9819C107.992 93.7905 107.641 93.6948 107.213 93.6948Z" fill="black"/>
<path d="M117.05 98.3433C117.05 98.8218 116.929 99.2251 116.688 99.5532C116.451 99.8768 116.109 100.121 115.662 100.285C115.22 100.449 114.691 100.531 114.076 100.531C113.552 100.531 113.099 100.49 112.716 100.408C112.333 100.326 111.998 100.209 111.711 100.059V99.0132C112.016 99.1636 112.381 99.3003 112.805 99.4233C113.229 99.5464 113.661 99.6079 114.104 99.6079C114.751 99.6079 115.22 99.5031 115.512 99.2935C115.803 99.0838 115.949 98.799 115.949 98.439C115.949 98.2339 115.89 98.0539 115.771 97.8989C115.658 97.7394 115.464 97.5868 115.19 97.4409C114.917 97.2905 114.539 97.1265 114.056 96.9487C113.577 96.7664 113.162 96.5864 112.812 96.4087C112.465 96.2264 112.196 96.0054 112.005 95.7456C111.818 95.4858 111.725 95.1486 111.725 94.7339C111.725 94.1004 111.98 93.6151 112.49 93.2778C113.005 92.936 113.68 92.7651 114.514 92.7651C114.965 92.7651 115.386 92.8107 115.778 92.9019C116.175 92.9884 116.544 93.1069 116.886 93.2573L116.503 94.1665C116.193 94.0343 115.863 93.9227 115.512 93.8315C115.161 93.7404 114.803 93.6948 114.438 93.6948C113.914 93.6948 113.511 93.7814 113.229 93.9546C112.951 94.1278 112.812 94.3647 112.812 94.6655C112.812 94.8979 112.875 95.0894 113.003 95.2397C113.135 95.3901 113.345 95.5314 113.632 95.6636C113.919 95.7957 114.297 95.9507 114.767 96.1284C115.236 96.3016 115.642 96.4816 115.983 96.6685C116.325 96.8507 116.587 97.0741 116.77 97.3384C116.956 97.5981 117.05 97.9331 117.05 98.3433Z" fill="black"/>
</svg>
