<svg width="246" height="18" fill="none" xmlns="http://www.w3.org/2000/svg"><rect x=".69" y="2.5" width="15" height="15" rx="2.5" fill="#fff" stroke="#545454"/><path d="M32 14.25h-1.34l-5.45-8.4h-.05a321.76 321.76 0 0 0 .09 1.68l.02.98v5.74h-1.08v-10h1.33l5.43 8.37H31a72.04 72.04 0 0 1-.1-2.57v-5.8H32v10Zm9.02-3.76c0 .62-.08 1.16-.24 1.65-.16.48-.4.89-.7 1.22a3 3 0 0 1-1.09.77c-.42.17-.9.26-1.44.26a3.12 3.12 0 0 1-3.17-2.25 5.11 5.11 0 0 1-.24-1.65c0-.82.14-1.52.42-2.1.28-.57.67-1.01 1.19-1.31a3.6 3.6 0 0 1 1.85-.46c.68 0 1.28.15 1.79.46.52.3.91.75 1.2 1.33.28.57.43 1.26.43 2.08Zm-5.7 0c0 .6.08 1.12.24 1.57.15.44.4.78.73 1.02.34.24.76.36 1.29.36.52 0 .94-.12 1.28-.36.33-.24.58-.58.74-1.02.16-.45.24-.97.24-1.57 0-.6-.08-1.11-.24-1.54-.16-.44-.4-.78-.74-1.02a2.18 2.18 0 0 0-1.29-.35c-.78 0-1.35.26-1.71.77a3.69 3.69 0 0 0-.54 2.14Zm10.08 2.97a3.57 3.57 0 0 0 1.05-.17v.88a3.93 3.93 0 0 1-1.24.21c-.4 0-.75-.06-1.08-.2a1.67 1.67 0 0 1-.78-.7c-.19-.34-.28-.8-.28-1.39V7.65H42v-.56l1.07-.44.46-1.63h.68v1.74h2.2v.89h-2.2v4.4c0 .48.1.83.32 1.06.22.23.5.35.87.35Zm9-6.83c.9 0 1.57.2 2 .6.43.4.65 1.05.65 1.93v5.09h-.83l-.22-1.1h-.05c-.21.27-.43.5-.66.68-.23.19-.5.32-.8.42a3.77 3.77 0 0 1-2.3-.1 1.9 1.9 0 0 1-.84-.73 2.3 2.3 0 0 1-.3-1.23c0-.74.3-1.32.9-1.72.58-.4 1.49-.62 2.7-.66l1.29-.05V9.3c0-.65-.14-1.1-.42-1.36a1.66 1.66 0 0 0-1.17-.39c-.4 0-.77.06-1.12.17-.36.12-.7.25-1.02.4l-.34-.86a5.98 5.98 0 0 1 2.54-.63Zm1.53 3.93-1.15.05c-.93.03-1.59.19-1.97.45-.38.27-.58.65-.58 1.15 0 .42.13.74.4.95.25.2.6.3 1.03.3a2.4 2.4 0 0 0 1.63-.55c.42-.37.64-.92.64-1.66v-.7Zm6.86-3.94a4.27 4.27 0 0 1 .9.09l-.13 1.05a3.15 3.15 0 0 0-.84-.1 2.03 2.03 0 0 0-1.55.7 2.9 2.9 0 0 0-.64 1.87v4.02h-1.14v-7.5h.94l.12 1.39h.05c.15-.28.34-.53.56-.76a2.26 2.26 0 0 1 1.73-.76Zm5.73 0a4.27 4.27 0 0 1 .9.09l-.14 1.05a3.15 3.15 0 0 0-.83-.1 2.03 2.03 0 0 0-1.55.7 2.9 2.9 0 0 0-.64 1.87v4.02H65.1v-7.5h.95l.12 1.39h.05c.15-.28.34-.53.56-.76.22-.23.47-.42.76-.55.29-.14.61-.2.97-.2Zm3.46.14v7.49h-1.14v-7.5h1.14Zm-.56-2.8c.19 0 .35.06.48.18.14.12.2.3.2.56 0 .25-.06.44-.2.56a.68.68 0 0 1-.48.19.7.7 0 0 1-.49-.19c-.13-.12-.19-.3-.19-.56 0-.26.06-.44.2-.56a.7.7 0 0 1 .48-.18Zm4.61 10.29-2.84-7.5h1.21l1.65 4.54a24.12 24.12 0 0 1 .6 1.93h.04a211.25 211.25 0 0 1 .62-1.93l1.65-4.53h1.22l-2.85 7.49h-1.3Zm8.24-7.63a2.74 2.74 0 0 1 2.69 1.61c.24.51.36 1.1.36 1.78v.7h-5.18c.02.89.23 1.56.66 2.02a2.3 2.3 0 0 0 1.79.69 5.47 5.47 0 0 0 2.4-.52v1a5.52 5.52 0 0 1-2.45.49 3.9 3.9 0 0 1-1.89-.44c-.53-.3-.94-.73-1.24-1.3a4.5 4.5 0 0 1-.44-2.1 5 5 0 0 1 .4-2.08c.27-.6.66-1.05 1.15-1.37.5-.32 1.08-.48 1.75-.48Zm-.02.93c-.6 0-1.08.2-1.44.6-.36.4-.58.95-.65 1.66h3.97c0-.45-.08-.84-.21-1.18-.14-.34-.34-.6-.61-.8a1.8 1.8 0 0 0-1.06-.28Zm9.77 6.7h-1.14V3.61h1.14v10.64Zm5.21-7.62c.89 0 1.55.2 1.98.6.44.4.65 1.05.65 1.93v5.09h-.82l-.22-1.1h-.06c-.2.27-.43.5-.65.68-.23.19-.5.32-.8.42a3.77 3.77 0 0 1-2.3-.1 1.9 1.9 0 0 1-.84-.73 2.3 2.3 0 0 1-.3-1.23c0-.74.3-1.32.89-1.72a5.2 5.2 0 0 1 2.7-.66l1.3-.05V9.3c0-.65-.14-1.1-.42-1.36a1.66 1.66 0 0 0-1.18-.39c-.39 0-.76.06-1.12.17-.35.12-.69.25-1 .4l-.36-.86c.34-.17.73-.32 1.16-.44.44-.12.9-.19 1.39-.19Zm1.51 3.93-1.14.05c-.93.03-1.6.19-1.97.45a1.3 1.3 0 0 0-.58 1.15c0 .42.13.74.4.95.25.2.6.3 1.02.3a2.4 2.4 0 0 0 1.64-.55c.42-.37.63-.92.63-1.66v-.7Zm5.88 2.9a3.58 3.58 0 0 0 1.05-.17v.88a3.94 3.94 0 0 1-1.24.21c-.39 0-.75-.06-1.07-.2a1.67 1.67 0 0 1-.78-.7c-.2-.34-.29-.8-.29-1.39V7.65h-1.07v-.56l1.08-.44.45-1.63h.68v1.74h2.2v.89h-2.2v4.4c0 .48.1.83.32 1.06.22.23.51.35.87.35Zm5.46-6.84c.64 0 1.18.14 1.64.42.45.29.8.68 1.04 1.2.24.5.36 1.1.36 1.77v.7h-5.17c.01.89.23 1.56.66 2.02a2.3 2.3 0 0 0 1.79.69 5.48 5.48 0 0 0 2.4-.52v1a5.56 5.56 0 0 1-2.45.49 3.9 3.9 0 0 1-1.89-.44c-.53-.3-.94-.73-1.24-1.3a4.5 4.5 0 0 1-.44-2.1 5 5 0 0 1 .4-2.08c.27-.6.65-1.05 1.15-1.37.5-.32 1.08-.48 1.75-.48Zm-.02.93c-.6 0-1.09.2-1.45.6-.36.4-.57.95-.64 1.66h3.97c0-.45-.08-.84-.22-1.18-.13-.34-.33-.6-.6-.8a1.8 1.8 0 0 0-1.06-.28Z" fill="#000"/><rect x="139.13" y="2" width="16" height="16" rx="3" fill="#1E71F6"/><path d="M150.6 5.34a.86.86 0 0 1 1.16-.2c.38.25.48.74.22 1.1l-6.11 8.42a.86.86 0 0 1-1.38-.01l-2.22-3.16a.76.76 0 0 1 .23-1.1.86.86 0 0 1 1.15.22l1.54 2.2 5.41-7.47Z" fill="#fff"/><path d="m170.76 14.25-1.23-3.17h-4l-1.23 3.17h-1.18l3.92-10.04h1.04l3.88 10.04h-1.2Zm-1.58-4.2-1.17-3.16-.13-.4-.19-.58-.16-.49a12.93 12.93 0 0 1-.3 1.08l-.13.4-1.19 3.15h3.27Zm5.65 4.2-2.84-7.5h1.21l1.65 4.54a24.67 24.67 0 0 1 .6 1.93h.04l.27-.9.35-1.03 1.65-4.53h1.22l-2.85 7.49h-1.3Zm11.81-3.76c0 .62-.08 1.16-.24 1.65-.16.48-.39.89-.69 1.22a3 3 0 0 1-1.1.77c-.42.17-.9.26-1.44.26a3.13 3.13 0 0 1-3.17-2.25 5.11 5.11 0 0 1-.24-1.65c0-.82.14-1.52.42-2.1a3 3 0 0 1 1.2-1.31c.51-.3 1.13-.46 1.84-.46.69 0 1.28.15 1.8.46.5.3.9.75 1.19 1.33.29.57.43 1.26.43 2.08Zm-5.7 0c0 .6.08 1.12.24 1.57.16.44.4.78.74 1.02.33.24.76.36 1.28.36s.95-.12 1.28-.36c.34-.24.59-.58.75-1.02.16-.45.24-.97.24-1.57 0-.6-.08-1.11-.24-1.54a2.12 2.12 0 0 0-.74-1.02 2.18 2.18 0 0 0-1.3-.35c-.77 0-1.34.26-1.71.77a3.69 3.69 0 0 0-.54 2.14Zm8.8-3.73v7.49h-1.14v-7.5h1.14Zm-.56-2.8c.2 0 .35.06.48.18.14.12.2.3.2.56 0 .25-.06.44-.2.56a.68.68 0 0 1-.48.19.7.7 0 0 1-.49-.19c-.13-.12-.19-.3-.19-.56 0-.26.06-.44.2-.56a.7.7 0 0 1 .48-.18Zm5.63 10.43c-.95 0-1.7-.33-2.26-.97-.55-.65-.82-1.61-.82-2.89 0-1.29.28-2.26.84-2.92a2.83 2.83 0 0 1 2.26-.99 3 3 0 0 1 1.04.16 2.48 2.48 0 0 1 1.3 1.02h.09a11.5 11.5 0 0 1-.08-1.19v-3h1.13v10.64h-.92l-.17-1.07h-.04a2.6 2.6 0 0 1-2.37 1.2Zm.18-.95c.8 0 1.37-.22 1.7-.68.33-.46.5-1.13.5-2.03v-.2c0-.96-.16-1.69-.48-2.2-.31-.51-.89-.77-1.72-.77-.7 0-1.22.27-1.57.81a3.99 3.99 0 0 0-.52 2.19c0 .92.17 1.63.52 2.13.34.5.87.75 1.57.75Zm12.03.95c-.95 0-1.7-.33-2.26-.97-.55-.65-.82-1.61-.82-2.89 0-1.29.28-2.26.84-2.92a2.83 2.83 0 0 1 2.26-.99 3 3 0 0 1 1.04.16 2.48 2.48 0 0 1 1.3 1.02h.09a11.5 11.5 0 0 1-.09-1.19v-3h1.14v10.64h-.92l-.17-1.07h-.05a2.6 2.6 0 0 1-2.36 1.2Zm.18-.95c.8 0 1.37-.22 1.7-.68.33-.46.5-1.13.5-2.03v-.2c0-.96-.16-1.69-.48-2.2-.31-.51-.89-.77-1.72-.77-.7 0-1.22.27-1.57.81a3.99 3.99 0 0 0-.52 2.19c0 .92.17 1.63.51 2.13.35.5.88.75 1.58.75Zm6.86-6.68v7.49h-1.13v-7.5h1.13Zm-.55-2.8c.18 0 .34.06.48.18.13.12.2.3.2.56 0 .25-.07.44-.2.56a.68.68 0 0 1-.48.19.7.7 0 0 1-.5-.19c-.12-.12-.19-.3-.19-.56 0-.26.07-.44.2-.56a.7.7 0 0 1 .49-.18Zm6.5 2.66c.9 0 1.56.22 2.02.66.46.43.68 1.13.68 2.09v4.88h-1.12v-4.8c0-.63-.14-1.1-.43-1.4-.28-.32-.72-.47-1.3-.47-.83 0-1.42.23-1.75.7-.34.47-.5 1.15-.5 2.05v3.92h-1.14v-7.5h.91l.17 1.09h.06c.16-.27.37-.49.61-.67a3.2 3.2 0 0 1 1.8-.55Zm8.59 0c.89 0 1.56.22 2.02.66.45.43.68 1.13.68 2.09v4.88h-1.12v-4.8c0-.63-.14-1.1-.43-1.4-.28-.32-.72-.47-1.3-.47-.84 0-1.42.23-1.76.7-.33.47-.5 1.15-.5 2.05v3.92h-1.14v-7.5h.92l.17 1.09h.06c.16-.27.36-.49.6-.67a3.2 3.2 0 0 1 1.8-.55Zm7.92 0a2.74 2.74 0 0 1 2.69 1.61c.24.51.36 1.1.36 1.78v.7h-5.17c.01.89.23 1.56.65 2.02.43.46 1.02.69 1.8.69a5.48 5.48 0 0 0 2.39-.52v1a5.52 5.52 0 0 1-2.44.49 3.9 3.9 0 0 1-1.89-.44c-.53-.3-.95-.73-1.24-1.3a4.48 4.48 0 0 1-.45-2.1 5 5 0 0 1 .4-2.08c.28-.6.66-1.05 1.15-1.37.5-.32 1.08-.48 1.75-.48Zm-.01.93c-.6 0-1.09.2-1.45.6-.36.4-.57.95-.64 1.66h3.96c0-.45-.07-.84-.21-1.18-.13-.34-.33-.6-.6-.8a1.8 1.8 0 0 0-1.06-.28Zm8.39-.93a4.27 4.27 0 0 1 .91.09l-.14 1.05a3.13 3.13 0 0 0-.83-.1 2.03 2.03 0 0 0-1.56.7c-.2.23-.35.5-.47.82-.11.31-.17.66-.17 1.05v4.02h-1.14v-7.5h.94l.13 1.39h.04c.16-.28.35-.53.56-.76a2.26 2.26 0 0 1 1.73-.76Z" fill="#000"/></svg>