<svg width="672" height="264" viewBox="0 0 672 264" fill="none" xmlns="http://www.w3.org/2000/svg">
<rect width="672" height="264" fill="#F6F6F6"/>
<rect width="672" height="184" transform="translate(0 48)" fill="#F6F6F6"/>
<g clip-path="url(#clip0_13555_33323)">
<rect x="276.5" y="80" width="24" height="24" rx="2" fill="#0F67F5"/>
<path d="M294.5 92H282.5" stroke="white" stroke-width="1.7" stroke-linecap="round"/>
</g>
<path d="M316.273 89.2727C316.205 88.697 315.928 88.25 315.443 87.9318C314.958 87.6136 314.364 87.4545 313.659 87.4545C313.144 87.4545 312.693 87.5379 312.307 87.7045C311.924 87.8712 311.625 88.1004 311.409 88.392C311.197 88.6837 311.091 89.0152 311.091 89.3864C311.091 89.697 311.165 89.964 311.312 90.1875C311.464 90.4072 311.657 90.5909 311.892 90.7386C312.127 90.8826 312.373 91.0019 312.631 91.0966C312.888 91.1875 313.125 91.2614 313.341 91.3182L314.523 91.6364C314.826 91.7159 315.163 91.8258 315.534 91.9659C315.909 92.1061 316.267 92.2973 316.608 92.5398C316.953 92.7784 317.237 93.0852 317.46 93.4602C317.684 93.8352 317.795 94.2955 317.795 94.8409C317.795 95.4697 317.631 96.0379 317.301 96.5455C316.975 97.053 316.498 97.4564 315.869 97.7557C315.244 98.0549 314.485 98.2045 313.591 98.2045C312.758 98.2045 312.036 98.0701 311.426 97.8011C310.82 97.5322 310.343 97.1572 309.994 96.6761C309.65 96.1951 309.455 95.6364 309.409 95H310.864C310.902 95.4394 311.049 95.803 311.307 96.0909C311.568 96.375 311.898 96.5871 312.295 96.7273C312.697 96.8636 313.129 96.9318 313.591 96.9318C314.129 96.9318 314.612 96.8447 315.04 96.6705C315.468 96.4924 315.807 96.2462 316.057 95.9318C316.307 95.6136 316.432 95.2424 316.432 94.8182C316.432 94.4318 316.324 94.1174 316.108 93.875C315.892 93.6326 315.608 93.4356 315.256 93.2841C314.903 93.1326 314.523 93 314.114 92.8864L312.682 92.4773C311.773 92.2159 311.053 91.8428 310.523 91.358C309.992 90.8731 309.727 90.2386 309.727 89.4545C309.727 88.803 309.903 88.2348 310.256 87.75C310.612 87.2614 311.089 86.8826 311.688 86.6136C312.29 86.3409 312.962 86.2045 313.705 86.2045C314.455 86.2045 315.121 86.339 315.705 86.608C316.288 86.8731 316.75 87.2367 317.091 87.6989C317.436 88.161 317.617 88.6856 317.636 89.2727H316.273ZM319.93 101.273V89.2727H321.226V90.6591H321.385C321.483 90.5076 321.62 90.3144 321.794 90.0795C321.972 89.8409 322.226 89.6288 322.555 89.4432C322.889 89.2538 323.339 89.1591 323.908 89.1591C324.643 89.1591 325.29 89.3428 325.851 89.7102C326.411 90.0777 326.849 90.5985 327.163 91.2727C327.478 91.947 327.635 92.7424 327.635 93.6591C327.635 94.5833 327.478 95.3845 327.163 96.0625C326.849 96.7367 326.413 97.2595 325.857 97.6307C325.3 97.9981 324.658 98.1818 323.93 98.1818C323.37 98.1818 322.921 98.089 322.584 97.9034C322.247 97.714 321.987 97.5 321.805 97.2614C321.624 97.0189 321.483 96.8182 321.385 96.6591H321.271V101.273H319.93ZM321.249 93.6364C321.249 94.2955 321.345 94.8769 321.538 95.3807C321.732 95.8807 322.014 96.2727 322.385 96.5568C322.756 96.8371 323.211 96.9773 323.749 96.9773C324.309 96.9773 324.777 96.8295 325.152 96.5341C325.531 96.2348 325.815 95.8333 326.004 95.3295C326.197 94.822 326.294 94.2576 326.294 93.6364C326.294 93.0227 326.199 92.4697 326.01 91.9773C325.824 91.4811 325.542 91.089 325.163 90.8011C324.788 90.5095 324.317 90.3636 323.749 90.3636C323.203 90.3636 322.745 90.5019 322.374 90.7784C322.002 91.0511 321.722 91.4337 321.533 91.9261C321.343 92.4148 321.249 92.9848 321.249 93.6364ZM333.339 98.1818C332.499 98.1818 331.773 97.9962 331.163 97.625C330.557 97.25 330.089 96.7273 329.76 96.0568C329.434 95.3826 329.271 94.5985 329.271 93.7045C329.271 92.8106 329.434 92.0227 329.76 91.3409C330.089 90.6553 330.548 90.1212 331.135 89.7386C331.726 89.3523 332.415 89.1591 333.203 89.1591C333.658 89.1591 334.107 89.2348 334.55 89.3864C334.993 89.5379 335.396 89.7841 335.76 90.125C336.124 90.4621 336.413 90.9091 336.629 91.4659C336.845 92.0227 336.953 92.7083 336.953 93.5227V94.0909H330.226V92.9318H335.589C335.589 92.4394 335.491 92 335.294 91.6136C335.101 91.2273 334.824 90.9223 334.464 90.6989C334.108 90.4754 333.688 90.3636 333.203 90.3636C332.669 90.3636 332.207 90.4962 331.817 90.7614C331.43 91.0227 331.133 91.3636 330.925 91.7841C330.716 92.2045 330.612 92.6553 330.612 93.1364V93.9091C330.612 94.5682 330.726 95.1269 330.953 95.5852C331.184 96.0398 331.504 96.3864 331.913 96.625C332.322 96.8598 332.798 96.9773 333.339 96.9773C333.692 96.9773 334.01 96.928 334.294 96.8295C334.582 96.7273 334.83 96.5758 335.038 96.375C335.247 96.1705 335.408 95.9167 335.521 95.6136L336.817 95.9773C336.68 96.4167 336.451 96.803 336.129 97.1364C335.807 97.4659 335.41 97.7235 334.936 97.9091C334.463 98.0909 333.93 98.1818 333.339 98.1818ZM340.334 86.3636V98H338.993V86.3636H340.334ZM344.131 86.3636V98H342.79V86.3636H344.131ZM346.587 98V89.2727H347.928V98H346.587ZM347.268 87.8182C347.007 87.8182 346.782 87.7292 346.592 87.5511C346.407 87.3731 346.314 87.1591 346.314 86.9091C346.314 86.6591 346.407 86.4451 346.592 86.267C346.782 86.089 347.007 86 347.268 86C347.53 86 347.753 86.089 347.939 86.267C348.128 86.4451 348.223 86.6591 348.223 86.9091C348.223 87.1591 348.128 87.3731 347.939 87.5511C347.753 87.7292 347.53 87.8182 347.268 87.8182ZM351.724 92.75V98H350.384V89.2727H351.679V90.6364H351.793C351.997 90.1932 352.308 89.8371 352.724 89.5682C353.141 89.2955 353.679 89.1591 354.338 89.1591C354.929 89.1591 355.446 89.2803 355.889 89.5227C356.332 89.7614 356.677 90.125 356.923 90.6136C357.17 91.0985 357.293 91.7121 357.293 92.4545V98H355.952V92.5455C355.952 91.8598 355.774 91.3258 355.418 90.9432C355.062 90.5568 354.573 90.3636 353.952 90.3636C353.524 90.3636 353.141 90.4564 352.804 90.642C352.471 90.8277 352.207 91.0985 352.014 91.4545C351.821 91.8106 351.724 92.2424 351.724 92.75ZM363.266 101.455C362.618 101.455 362.061 101.371 361.595 101.205C361.129 101.042 360.741 100.826 360.43 100.557C360.124 100.292 359.879 100.008 359.697 99.7045L360.766 98.9545C360.887 99.1136 361.04 99.2955 361.226 99.5C361.411 99.7083 361.665 99.8883 361.987 100.04C362.313 100.195 362.739 100.273 363.266 100.273C363.97 100.273 364.552 100.102 365.01 99.7614C365.468 99.4205 365.697 98.8864 365.697 98.1591V96.3864H365.584C365.485 96.5455 365.345 96.7424 365.163 96.9773C364.985 97.2083 364.728 97.4148 364.391 97.5966C364.057 97.7746 363.607 97.8636 363.038 97.8636C362.334 97.8636 361.701 97.697 361.141 97.3636C360.584 97.0303 360.143 96.5455 359.817 95.9091C359.495 95.2727 359.334 94.5 359.334 93.5909C359.334 92.697 359.491 91.9186 359.805 91.2557C360.12 90.589 360.557 90.0739 361.118 89.7102C361.679 89.3428 362.326 89.1591 363.061 89.1591C363.629 89.1591 364.08 89.2538 364.413 89.4432C364.75 89.6288 365.008 89.8409 365.186 90.0795C365.368 90.3144 365.508 90.5076 365.607 90.6591H365.743V89.2727H367.038V98.25C367.038 99 366.868 99.6098 366.527 100.08C366.19 100.553 365.735 100.9 365.163 101.119C364.595 101.343 363.963 101.455 363.266 101.455ZM363.22 96.6591C363.758 96.6591 364.213 96.536 364.584 96.2898C364.955 96.0436 365.237 95.6894 365.43 95.2273C365.624 94.7652 365.72 94.2121 365.72 93.5682C365.72 92.9394 365.625 92.3845 365.436 91.9034C365.247 91.4223 364.966 91.0455 364.595 90.7727C364.224 90.5 363.766 90.3636 363.22 90.3636C362.652 90.3636 362.179 90.5076 361.8 90.7955C361.425 91.0833 361.143 91.4697 360.953 91.9545C360.768 92.4394 360.675 92.9773 360.675 93.5682C360.675 94.1742 360.769 94.7102 360.959 95.1761C361.152 95.6383 361.436 96.0019 361.811 96.267C362.19 96.5284 362.66 96.6591 363.22 96.6591Z" fill="#333333"/>
<path d="M250.5 96.6199C250.34 96.6199 250.18 96.5599 250.06 96.4399C249.82 96.1999 249.82 95.7999 250.06 95.5599L253.62 91.9999L250.06 88.4399C249.82 88.1999 249.82 87.7999 250.06 87.5599C250.3 87.3199 250.7 87.3199 250.94 87.5599L254.94 91.5599C255.18 91.7999 255.18 92.1999 254.94 92.4399L250.94 96.4399C250.82 96.5599 250.66 96.6199 250.5 96.6199Z" fill="#333333"/>
<path d="M268.5 138.62C268.34 138.62 268.18 138.56 268.06 138.44L264.06 134.44C263.82 134.2 263.82 133.8 264.06 133.56C264.3 133.32 264.7 133.32 264.94 133.56L268.5 137.12L272.06 133.56C272.3 133.32 272.7 133.32 272.94 133.56C273.18 133.8 273.18 134.2 272.94 134.44L268.94 138.44C268.82 138.56 268.66 138.62 268.5 138.62Z" fill="#333333"/>
<g clip-path="url(#clip1_13555_33323)">
<rect x="292.5" y="124" width="24" height="24" rx="2" fill="#0F67F5"/>
<path d="M298.5 136.75L302.25 140.5L310.5 132.25" stroke="white" stroke-width="1.7" stroke-linecap="round" stroke-linejoin="round"/>
</g>
<path d="M325.909 142V130.364H329.977C330.788 130.364 331.456 130.504 331.983 130.784C332.509 131.061 332.902 131.434 333.159 131.903C333.417 132.369 333.545 132.886 333.545 133.455C333.545 133.955 333.456 134.367 333.278 134.693C333.104 135.019 332.873 135.277 332.585 135.466C332.301 135.655 331.992 135.795 331.659 135.886V136C332.015 136.023 332.373 136.148 332.733 136.375C333.093 136.602 333.394 136.928 333.636 137.352C333.879 137.777 334 138.295 334 138.909C334 139.492 333.867 140.017 333.602 140.483C333.337 140.949 332.919 141.318 332.347 141.591C331.775 141.864 331.03 142 330.114 142H325.909ZM327.318 140.75H330.114C331.034 140.75 331.688 140.572 332.074 140.216C332.464 139.856 332.659 139.42 332.659 138.909C332.659 138.515 332.559 138.152 332.358 137.818C332.157 137.481 331.871 137.212 331.5 137.011C331.129 136.807 330.689 136.705 330.182 136.705H327.318V140.75ZM327.318 135.477H329.932C330.356 135.477 330.739 135.394 331.08 135.227C331.424 135.061 331.697 134.826 331.898 134.523C332.102 134.22 332.205 133.864 332.205 133.455C332.205 132.943 332.027 132.509 331.67 132.153C331.314 131.794 330.75 131.614 329.977 131.614H327.318V135.477ZM341.634 138.432V133.273H342.974V142H341.634V140.523H341.543C341.338 140.966 341.02 141.343 340.588 141.653C340.156 141.96 339.611 142.114 338.952 142.114C338.406 142.114 337.921 141.994 337.497 141.756C337.073 141.513 336.74 141.15 336.497 140.665C336.255 140.176 336.134 139.561 336.134 138.818V133.273H337.474V138.727C337.474 139.364 337.652 139.871 338.009 140.25C338.368 140.629 338.827 140.818 339.384 140.818C339.717 140.818 340.056 140.733 340.401 140.562C340.749 140.392 341.041 140.131 341.276 139.778C341.514 139.426 341.634 138.977 341.634 138.432ZM345.43 142V133.273H346.771V142H345.43ZM346.112 131.818C345.851 131.818 345.625 131.729 345.436 131.551C345.25 131.373 345.158 131.159 345.158 130.909C345.158 130.659 345.25 130.445 345.436 130.267C345.625 130.089 345.851 130 346.112 130C346.374 130 346.597 130.089 346.783 130.267C346.972 130.445 347.067 130.659 347.067 130.909C347.067 131.159 346.972 131.373 346.783 131.551C346.597 131.729 346.374 131.818 346.112 131.818ZM350.568 130.364V142H349.227V130.364H350.568ZM356.32 142.182C355.592 142.182 354.95 141.998 354.393 141.631C353.837 141.259 353.401 140.737 353.087 140.062C352.772 139.384 352.615 138.583 352.615 137.659C352.615 136.742 352.772 135.947 353.087 135.273C353.401 134.598 353.839 134.078 354.399 133.71C354.96 133.343 355.607 133.159 356.342 133.159C356.911 133.159 357.359 133.254 357.689 133.443C358.022 133.629 358.276 133.841 358.45 134.08C358.628 134.314 358.767 134.508 358.865 134.659H358.979V130.364H360.32V142H359.024V140.659H358.865C358.767 140.818 358.626 141.019 358.445 141.261C358.263 141.5 358.003 141.714 357.666 141.903C357.329 142.089 356.88 142.182 356.32 142.182ZM356.501 140.977C357.039 140.977 357.494 140.837 357.865 140.557C358.236 140.273 358.518 139.881 358.712 139.381C358.905 138.877 359.001 138.295 359.001 137.636C359.001 136.985 358.907 136.415 358.717 135.926C358.528 135.434 358.248 135.051 357.876 134.778C357.505 134.502 357.047 134.364 356.501 134.364C355.933 134.364 355.46 134.509 355.081 134.801C354.706 135.089 354.424 135.481 354.234 135.977C354.049 136.47 353.956 137.023 353.956 137.636C353.956 138.258 354.051 138.822 354.24 139.33C354.433 139.833 354.717 140.235 355.092 140.534C355.471 140.83 355.941 140.977 356.501 140.977ZM362.962 142V133.273H364.303V142H362.962ZM363.643 131.818C363.382 131.818 363.157 131.729 362.967 131.551C362.782 131.373 362.689 131.159 362.689 130.909C362.689 130.659 362.782 130.445 362.967 130.267C363.157 130.089 363.382 130 363.643 130C363.905 130 364.128 130.089 364.314 130.267C364.503 130.445 364.598 130.659 364.598 130.909C364.598 131.159 364.503 131.373 364.314 131.551C364.128 131.729 363.905 131.818 363.643 131.818ZM368.099 136.75V142H366.759V133.273H368.054V134.636H368.168C368.372 134.193 368.683 133.837 369.099 133.568C369.516 133.295 370.054 133.159 370.713 133.159C371.304 133.159 371.821 133.28 372.264 133.523C372.707 133.761 373.052 134.125 373.298 134.614C373.545 135.098 373.668 135.712 373.668 136.455V142H372.327V136.545C372.327 135.86 372.149 135.326 371.793 134.943C371.437 134.557 370.948 134.364 370.327 134.364C369.899 134.364 369.516 134.456 369.179 134.642C368.846 134.828 368.582 135.098 368.389 135.455C368.196 135.811 368.099 136.242 368.099 136.75ZM379.641 145.455C378.993 145.455 378.436 145.371 377.97 145.205C377.504 145.042 377.116 144.826 376.805 144.557C376.499 144.292 376.254 144.008 376.072 143.705L377.141 142.955C377.262 143.114 377.415 143.295 377.601 143.5C377.786 143.708 378.04 143.888 378.362 144.04C378.688 144.195 379.114 144.273 379.641 144.273C380.345 144.273 380.927 144.102 381.385 143.761C381.843 143.42 382.072 142.886 382.072 142.159V140.386H381.959C381.86 140.545 381.72 140.742 381.538 140.977C381.36 141.208 381.103 141.415 380.766 141.597C380.432 141.775 379.982 141.864 379.413 141.864C378.709 141.864 378.076 141.697 377.516 141.364C376.959 141.03 376.518 140.545 376.192 139.909C375.87 139.273 375.709 138.5 375.709 137.591C375.709 136.697 375.866 135.919 376.18 135.256C376.495 134.589 376.932 134.074 377.493 133.71C378.054 133.343 378.701 133.159 379.436 133.159C380.004 133.159 380.455 133.254 380.788 133.443C381.125 133.629 381.383 133.841 381.561 134.08C381.743 134.314 381.883 134.508 381.982 134.659H382.118V133.273H383.413V142.25C383.413 143 383.243 143.61 382.902 144.08C382.565 144.553 382.11 144.9 381.538 145.119C380.97 145.343 380.338 145.455 379.641 145.455ZM379.595 140.659C380.133 140.659 380.588 140.536 380.959 140.29C381.33 140.044 381.612 139.689 381.805 139.227C381.999 138.765 382.095 138.212 382.095 137.568C382.095 136.939 382 136.384 381.811 135.903C381.622 135.422 381.341 135.045 380.97 134.773C380.599 134.5 380.141 134.364 379.595 134.364C379.027 134.364 378.554 134.508 378.175 134.795C377.8 135.083 377.518 135.47 377.328 135.955C377.143 136.439 377.05 136.977 377.05 137.568C377.05 138.174 377.144 138.71 377.334 139.176C377.527 139.638 377.811 140.002 378.186 140.267C378.565 140.528 379.035 140.659 379.595 140.659ZM392.345 142L389.686 133.273H391.095L392.982 139.955H393.072L394.936 133.273H396.368L398.209 139.932H398.3L400.186 133.273H401.595L398.936 142H397.618L395.709 135.295H395.572L393.663 142H392.345ZM406.616 142.182C405.829 142.182 405.137 141.994 404.543 141.619C403.952 141.244 403.49 140.72 403.156 140.045C402.827 139.371 402.662 138.583 402.662 137.682C402.662 136.773 402.827 135.979 403.156 135.301C403.49 134.623 403.952 134.097 404.543 133.722C405.137 133.347 405.829 133.159 406.616 133.159C407.404 133.159 408.094 133.347 408.685 133.722C409.279 134.097 409.741 134.623 410.071 135.301C410.404 135.979 410.571 136.773 410.571 137.682C410.571 138.583 410.404 139.371 410.071 140.045C409.741 140.72 409.279 141.244 408.685 141.619C408.094 141.994 407.404 142.182 406.616 142.182ZM406.616 140.977C407.215 140.977 407.707 140.824 408.094 140.517C408.48 140.21 408.766 139.807 408.952 139.307C409.137 138.807 409.23 138.265 409.23 137.682C409.23 137.098 409.137 136.555 408.952 136.051C408.766 135.547 408.48 135.14 408.094 134.83C407.707 134.519 407.215 134.364 406.616 134.364C406.018 134.364 405.526 134.519 405.139 134.83C404.753 135.14 404.467 135.547 404.281 136.051C404.096 136.555 404.003 137.098 404.003 137.682C404.003 138.265 404.096 138.807 404.281 139.307C404.467 139.807 404.753 140.21 405.139 140.517C405.526 140.824 406.018 140.977 406.616 140.977ZM412.618 142V133.273H413.913V134.591H414.004C414.163 134.159 414.451 133.809 414.868 133.54C415.285 133.271 415.754 133.136 416.277 133.136C416.375 133.136 416.499 133.138 416.646 133.142C416.794 133.146 416.906 133.152 416.982 133.159V134.523C416.936 134.511 416.832 134.494 416.669 134.472C416.51 134.445 416.341 134.432 416.163 134.432C415.739 134.432 415.36 134.521 415.027 134.699C414.697 134.873 414.436 135.116 414.243 135.426C414.054 135.733 413.959 136.083 413.959 136.477V142H412.618ZM421.601 142.182C420.874 142.182 420.232 141.998 419.675 141.631C419.118 141.259 418.682 140.737 418.368 140.062C418.054 139.384 417.896 138.583 417.896 137.659C417.896 136.742 418.054 135.947 418.368 135.273C418.682 134.598 419.12 134.078 419.68 133.71C420.241 133.343 420.889 133.159 421.624 133.159C422.192 133.159 422.641 133.254 422.97 133.443C423.304 133.629 423.557 133.841 423.732 134.08C423.91 134.314 424.048 134.508 424.146 134.659H424.26V130.364H425.601V142H424.305V140.659H424.146C424.048 140.818 423.908 141.019 423.726 141.261C423.544 141.5 423.285 141.714 422.947 141.903C422.61 142.089 422.161 142.182 421.601 142.182ZM421.783 140.977C422.321 140.977 422.775 140.837 423.146 140.557C423.518 140.273 423.8 139.881 423.993 139.381C424.186 138.877 424.283 138.295 424.283 137.636C424.283 136.985 424.188 136.415 423.999 135.926C423.809 135.434 423.529 135.051 423.158 134.778C422.786 134.502 422.328 134.364 421.783 134.364C421.214 134.364 420.741 134.509 420.362 134.801C419.987 135.089 419.705 135.481 419.516 135.977C419.33 136.47 419.237 137.023 419.237 137.636C419.237 138.258 419.332 138.822 419.521 139.33C419.714 139.833 419.999 140.235 420.374 140.534C420.752 140.83 421.222 140.977 421.783 140.977ZM434.425 135.227L433.22 135.568C433.144 135.367 433.033 135.172 432.885 134.983C432.741 134.79 432.544 134.631 432.294 134.506C432.044 134.381 431.724 134.318 431.334 134.318C430.8 134.318 430.355 134.441 429.999 134.688C429.646 134.93 429.47 135.239 429.47 135.614C429.47 135.947 429.591 136.21 429.834 136.403C430.076 136.597 430.455 136.758 430.97 136.886L432.266 137.205C433.046 137.394 433.627 137.684 434.01 138.074C434.393 138.46 434.584 138.958 434.584 139.568C434.584 140.068 434.44 140.515 434.152 140.909C433.868 141.303 433.47 141.614 432.959 141.841C432.447 142.068 431.853 142.182 431.175 142.182C430.285 142.182 429.548 141.989 428.964 141.602C428.381 141.216 428.012 140.652 427.857 139.909L429.129 139.591C429.25 140.061 429.48 140.413 429.817 140.648C430.158 140.883 430.603 141 431.152 141C431.777 141 432.273 140.867 432.641 140.602C433.012 140.333 433.197 140.011 433.197 139.636C433.197 139.333 433.091 139.08 432.879 138.875C432.667 138.667 432.341 138.511 431.902 138.409L430.447 138.068C429.648 137.879 429.061 137.585 428.686 137.188C428.315 136.786 428.129 136.284 428.129 135.682C428.129 135.189 428.268 134.754 428.544 134.375C428.824 133.996 429.205 133.699 429.686 133.483C430.171 133.267 430.72 133.159 431.334 133.159C432.197 133.159 432.875 133.348 433.368 133.727C433.864 134.106 434.216 134.606 434.425 135.227Z" fill="#333333"/>
<path d="M268.5 186.62C268.34 186.62 268.18 186.56 268.06 186.44L264.06 182.44C263.82 182.2 263.82 181.8 264.06 181.56C264.3 181.32 264.7 181.32 264.94 181.56L268.5 185.12L272.06 181.56C272.3 181.32 272.7 181.32 272.94 181.56C273.18 181.8 273.18 182.2 272.94 182.44L268.94 186.44C268.82 186.56 268.66 186.62 268.5 186.62Z" fill="#333333"/>
<rect x="293" y="172.5" width="23" height="23" rx="1.5" fill="white" stroke="#545454"/>
<path d="M328.023 190L324.841 178.364H326.273L328.705 187.841H328.818L331.295 178.364H332.886L335.364 187.841H335.477L337.909 178.364H339.341L336.159 190H334.705L332.136 180.727H332.045L329.477 190H328.023ZM343.648 190.182C342.86 190.182 342.169 189.994 341.574 189.619C340.983 189.244 340.521 188.72 340.188 188.045C339.858 187.371 339.693 186.583 339.693 185.682C339.693 184.773 339.858 183.979 340.188 183.301C340.521 182.623 340.983 182.097 341.574 181.722C342.169 181.347 342.86 181.159 343.648 181.159C344.436 181.159 345.125 181.347 345.716 181.722C346.311 182.097 346.773 182.623 347.102 183.301C347.436 183.979 347.602 184.773 347.602 185.682C347.602 186.583 347.436 187.371 347.102 188.045C346.773 188.72 346.311 189.244 345.716 189.619C345.125 189.994 344.436 190.182 343.648 190.182ZM343.648 188.977C344.246 188.977 344.739 188.824 345.125 188.517C345.511 188.21 345.797 187.807 345.983 187.307C346.169 186.807 346.261 186.265 346.261 185.682C346.261 185.098 346.169 184.555 345.983 184.051C345.797 183.547 345.511 183.14 345.125 182.83C344.739 182.519 344.246 182.364 343.648 182.364C343.049 182.364 342.557 182.519 342.17 182.83C341.784 183.14 341.498 183.547 341.312 184.051C341.127 184.555 341.034 185.098 341.034 185.682C341.034 186.265 341.127 186.807 341.312 187.307C341.498 187.807 341.784 188.21 342.17 188.517C342.557 188.824 343.049 188.977 343.648 188.977ZM349.649 190V181.273H350.945V182.591H351.036C351.195 182.159 351.482 181.809 351.899 181.54C352.316 181.271 352.786 181.136 353.308 181.136C353.407 181.136 353.53 181.138 353.678 181.142C353.825 181.146 353.937 181.152 354.013 181.159V182.523C353.967 182.511 353.863 182.494 353.7 182.472C353.541 182.445 353.373 182.432 353.195 182.432C352.77 182.432 352.392 182.521 352.058 182.699C351.729 182.873 351.467 183.116 351.274 183.426C351.085 183.733 350.99 184.083 350.99 184.477V190H349.649ZM358.632 190.182C357.905 190.182 357.263 189.998 356.706 189.631C356.149 189.259 355.714 188.737 355.399 188.062C355.085 187.384 354.928 186.583 354.928 185.659C354.928 184.742 355.085 183.947 355.399 183.273C355.714 182.598 356.151 182.078 356.712 181.71C357.272 181.343 357.92 181.159 358.655 181.159C359.223 181.159 359.672 181.254 360.001 181.443C360.335 181.629 360.589 181.841 360.763 182.08C360.941 182.314 361.079 182.508 361.178 182.659H361.291V178.364H362.632V190H361.337V188.659H361.178C361.079 188.818 360.939 189.019 360.757 189.261C360.575 189.5 360.316 189.714 359.979 189.903C359.642 190.089 359.193 190.182 358.632 190.182ZM358.814 188.977C359.352 188.977 359.806 188.837 360.178 188.557C360.549 188.273 360.831 187.881 361.024 187.381C361.217 186.877 361.314 186.295 361.314 185.636C361.314 184.985 361.219 184.415 361.03 183.926C360.84 183.434 360.56 183.051 360.189 182.778C359.818 182.502 359.359 182.364 358.814 182.364C358.246 182.364 357.772 182.509 357.393 182.801C357.018 183.089 356.736 183.481 356.547 183.977C356.361 184.47 356.268 185.023 356.268 185.636C356.268 186.258 356.363 186.822 356.553 187.33C356.746 187.833 357.03 188.235 357.405 188.534C357.784 188.83 358.253 188.977 358.814 188.977ZM375.956 183.227L374.751 183.568C374.676 183.367 374.564 183.172 374.416 182.983C374.272 182.79 374.075 182.631 373.825 182.506C373.575 182.381 373.255 182.318 372.865 182.318C372.331 182.318 371.886 182.441 371.53 182.688C371.178 182.93 371.001 183.239 371.001 183.614C371.001 183.947 371.123 184.21 371.365 184.403C371.607 184.597 371.986 184.758 372.501 184.886L373.797 185.205C374.577 185.394 375.159 185.684 375.541 186.074C375.924 186.46 376.115 186.958 376.115 187.568C376.115 188.068 375.971 188.515 375.683 188.909C375.399 189.303 375.001 189.614 374.49 189.841C373.979 190.068 373.384 190.182 372.706 190.182C371.816 190.182 371.079 189.989 370.496 189.602C369.912 189.216 369.543 188.652 369.388 187.909L370.661 187.591C370.782 188.061 371.011 188.413 371.348 188.648C371.689 188.883 372.134 189 372.683 189C373.308 189 373.804 188.867 374.172 188.602C374.543 188.333 374.729 188.011 374.729 187.636C374.729 187.333 374.623 187.08 374.411 186.875C374.198 186.667 373.873 186.511 373.433 186.409L371.979 186.068C371.179 185.879 370.592 185.585 370.217 185.188C369.846 184.786 369.661 184.284 369.661 183.682C369.661 183.189 369.799 182.754 370.075 182.375C370.356 181.996 370.736 181.699 371.217 181.483C371.702 181.267 372.251 181.159 372.865 181.159C373.729 181.159 374.407 181.348 374.899 181.727C375.395 182.106 375.748 182.606 375.956 183.227ZM381.679 190.182C380.891 190.182 380.2 189.994 379.605 189.619C379.014 189.244 378.552 188.72 378.219 188.045C377.889 187.371 377.724 186.583 377.724 185.682C377.724 184.773 377.889 183.979 378.219 183.301C378.552 182.623 379.014 182.097 379.605 181.722C380.2 181.347 380.891 181.159 381.679 181.159C382.467 181.159 383.156 181.347 383.747 181.722C384.342 182.097 384.804 182.623 385.134 183.301C385.467 183.979 385.634 184.773 385.634 185.682C385.634 186.583 385.467 187.371 385.134 188.045C384.804 188.72 384.342 189.244 383.747 189.619C383.156 189.994 382.467 190.182 381.679 190.182ZM381.679 188.977C382.277 188.977 382.77 188.824 383.156 188.517C383.543 188.21 383.829 187.807 384.014 187.307C384.2 186.807 384.293 186.265 384.293 185.682C384.293 185.098 384.2 184.555 384.014 184.051C383.829 183.547 383.543 183.14 383.156 182.83C382.77 182.519 382.277 182.364 381.679 182.364C381.08 182.364 380.588 182.519 380.202 182.83C379.815 183.14 379.529 183.547 379.344 184.051C379.158 184.555 379.065 185.098 379.065 185.682C379.065 186.265 379.158 186.807 379.344 187.307C379.529 187.807 379.815 188.21 380.202 188.517C380.588 188.824 381.08 188.977 381.679 188.977ZM393.18 186.432V181.273H394.521V190H393.18V188.523H393.089C392.885 188.966 392.567 189.343 392.135 189.653C391.703 189.96 391.158 190.114 390.499 190.114C389.953 190.114 389.468 189.994 389.044 189.756C388.62 189.513 388.286 189.15 388.044 188.665C387.802 188.176 387.68 187.561 387.68 186.818V181.273H389.021V186.727C389.021 187.364 389.199 187.871 389.555 188.25C389.915 188.629 390.374 188.818 390.93 188.818C391.264 188.818 391.603 188.733 391.947 188.562C392.296 188.392 392.588 188.131 392.822 187.778C393.061 187.426 393.18 186.977 393.18 186.432ZM398.318 184.75V190H396.977V181.273H398.273V182.636H398.386C398.591 182.193 398.902 181.837 399.318 181.568C399.735 181.295 400.273 181.159 400.932 181.159C401.523 181.159 402.04 181.28 402.483 181.523C402.926 181.761 403.271 182.125 403.517 182.614C403.763 183.098 403.886 183.712 403.886 184.455V190H402.545V184.545C402.545 183.86 402.367 183.326 402.011 182.943C401.655 182.557 401.167 182.364 400.545 182.364C400.117 182.364 399.735 182.456 399.398 182.642C399.064 182.828 398.801 183.098 398.608 183.455C398.415 183.811 398.318 184.242 398.318 184.75ZM409.632 190.182C408.905 190.182 408.263 189.998 407.706 189.631C407.149 189.259 406.714 188.737 406.399 188.062C406.085 187.384 405.928 186.583 405.928 185.659C405.928 184.742 406.085 183.947 406.399 183.273C406.714 182.598 407.151 182.078 407.712 181.71C408.272 181.343 408.92 181.159 409.655 181.159C410.223 181.159 410.672 181.254 411.001 181.443C411.335 181.629 411.589 181.841 411.763 182.08C411.941 182.314 412.079 182.508 412.178 182.659H412.291V178.364H413.632V190H412.337V188.659H412.178C412.079 188.818 411.939 189.019 411.757 189.261C411.575 189.5 411.316 189.714 410.979 189.903C410.642 190.089 410.193 190.182 409.632 190.182ZM409.814 188.977C410.352 188.977 410.806 188.837 411.178 188.557C411.549 188.273 411.831 187.881 412.024 187.381C412.217 186.877 412.314 186.295 412.314 185.636C412.314 184.985 412.219 184.415 412.03 183.926C411.84 183.434 411.56 183.051 411.189 182.778C410.818 182.502 410.359 182.364 409.814 182.364C409.246 182.364 408.772 182.509 408.393 182.801C408.018 183.089 407.736 183.481 407.547 183.977C407.361 184.47 407.268 185.023 407.268 185.636C407.268 186.258 407.363 186.822 407.553 187.33C407.746 187.833 408.03 188.235 408.405 188.534C408.784 188.83 409.253 188.977 409.814 188.977ZM422.456 183.227L421.251 183.568C421.176 183.367 421.064 183.172 420.916 182.983C420.772 182.79 420.575 182.631 420.325 182.506C420.075 182.381 419.755 182.318 419.365 182.318C418.831 182.318 418.386 182.441 418.03 182.688C417.678 182.93 417.501 183.239 417.501 183.614C417.501 183.947 417.623 184.21 417.865 184.403C418.107 184.597 418.486 184.758 419.001 184.886L420.297 185.205C421.077 185.394 421.659 185.684 422.041 186.074C422.424 186.46 422.615 186.958 422.615 187.568C422.615 188.068 422.471 188.515 422.183 188.909C421.899 189.303 421.501 189.614 420.99 189.841C420.479 190.068 419.884 190.182 419.206 190.182C418.316 190.182 417.579 189.989 416.996 189.602C416.412 189.216 416.043 188.652 415.888 187.909L417.161 187.591C417.282 188.061 417.511 188.413 417.848 188.648C418.189 188.883 418.634 189 419.183 189C419.808 189 420.304 188.867 420.672 188.602C421.043 188.333 421.229 188.011 421.229 187.636C421.229 187.333 421.123 187.08 420.911 186.875C420.698 186.667 420.373 186.511 419.933 186.409L418.479 186.068C417.679 185.879 417.092 185.585 416.717 185.188C416.346 184.786 416.161 184.284 416.161 183.682C416.161 183.189 416.299 182.754 416.575 182.375C416.856 181.996 417.236 181.699 417.717 181.483C418.202 181.267 418.751 181.159 419.365 181.159C420.229 181.159 420.907 181.348 421.399 181.727C421.895 182.106 422.248 182.606 422.456 183.227Z" fill="#333333"/>
<defs>
<clipPath id="clip0_13555_33323">
<rect width="24" height="24" fill="white" transform="translate(276.5 80)"/>
</clipPath>
<clipPath id="clip1_13555_33323">
<rect width="24" height="24" fill="white" transform="translate(292.5 124)"/>
</clipPath>
</defs>
</svg>
