<svg width="248" height="18" fill="none" xmlns="http://www.w3.org/2000/svg"><rect x=".5" y="2" width="16" height="16" rx="3" fill="#1E71F6"/><path d="M11.98 5.34a.86.86 0 0 1 1.16-.2c.38.25.47.74.21 1.1l-6.11 8.42a.86.86 0 0 1-1.38-.01l-2.22-3.16a.76.76 0 0 1 .23-1.1.86.86 0 0 1 1.15.22l1.54 2.2 5.42-7.47Z" fill="#fff"/><path d="M27.1 3.93c1.3 0 2.24.26 2.83.76.6.5.9 1.22.9 2.16 0 .43-.07.83-.21 1.21-.14.38-.36.72-.67 1-.31.3-.72.52-1.23.7a6 6 0 0 1-1.84.24h-1.22v3.93H24.5v-10h2.6Zm-.1 1h-1.34V9h1.09a5.5 5.5 0 0 0 1.59-.2c.43-.14.75-.36.96-.67.22-.3.32-.72.32-1.23 0-.66-.2-1.16-.63-1.48-.43-.33-1.09-.5-1.99-.5Zm8.55 1.38c.9 0 1.56.2 2 .6.42.4.64 1.05.64 1.93v5.09h-.83l-.22-1.1h-.05c-.21.26-.43.5-.66.68-.22.18-.49.32-.79.42a3.76 3.76 0 0 1-2.31-.1 1.9 1.9 0 0 1-.83-.73 2.3 2.3 0 0 1-.3-1.23c0-.75.3-1.32.88-1.72.6-.4 1.5-.62 2.71-.66l1.3-.05v-.46c0-.65-.15-1.1-.42-1.36a1.66 1.66 0 0 0-1.18-.4c-.4 0-.77.07-1.12.18-.36.11-.7.25-1.01.4L33 6.94a6.24 6.24 0 0 1 2.54-.63Zm1.52 3.93-1.14.05c-.94.03-1.6.18-1.98.45-.38.27-.57.65-.57 1.14 0 .43.13.75.39.96.26.2.6.3 1.03.3a2.4 2.4 0 0 0 1.63-.55c.43-.37.64-.92.64-1.66v-.7Zm6.86-3.94a4.28 4.28 0 0 1 .91.09l-.14 1.05a3.15 3.15 0 0 0-.84-.1 2.03 2.03 0 0 0-1.55.7c-.2.23-.36.5-.47.82-.11.31-.17.66-.17 1.05v4.02h-1.14v-7.5h.94l.12 1.39h.05c.16-.28.34-.53.56-.76a2.26 2.26 0 0 1 1.73-.76Zm5.21 0a2.74 2.74 0 0 1 2.69 1.61c.24.5.36 1.1.36 1.78v.7h-5.17c0 .88.23 1.55.65 2.01.43.46 1.02.7 1.8.7a5.47 5.47 0 0 0 2.38-.52v1a5.53 5.53 0 0 1-2.44.49 3.9 3.9 0 0 1-1.88-.44c-.54-.3-.95-.73-1.25-1.3a4.5 4.5 0 0 1-.44-2.1 5 5 0 0 1 .4-2.08c.28-.6.66-1.05 1.15-1.37.5-.32 1.08-.48 1.75-.48Zm-.01.93c-.6 0-1.1.2-1.45.6-.36.4-.58.94-.64 1.66H51c0-.45-.07-.84-.21-1.18-.13-.34-.34-.6-.61-.8a1.8 1.8 0 0 0-1.05-.28Zm8.54-.93c.88 0 1.56.22 2.01.66.46.43.69 1.13.69 2.09v4.88h-1.13v-4.8c0-.63-.14-1.1-.43-1.4-.28-.32-.71-.47-1.3-.47-.83 0-1.41.23-1.75.7-.34.47-.5 1.15-.5 2.04v3.93h-1.14v-7.5h.91l.17 1.09h.07c.16-.27.36-.49.6-.67a3.2 3.2 0 0 1 1.8-.55Zm7.45 6.84a3.57 3.57 0 0 0 1.06-.17v.88a3.93 3.93 0 0 1-1.24.21c-.4 0-.76-.06-1.08-.2a1.67 1.67 0 0 1-.78-.71 2.7 2.7 0 0 1-.29-1.38V7.33h-1.06v-.56l1.07-.44.45-1.63h.68v1.74h2.2v.89h-2.2v4.4c0 .47.11.82.33 1.06.21.23.5.35.86.35Z" fill="#000"/><rect x="90.18" y="2" width="16" height="16" rx="3" fill="#1E71F6"/><path d="M101.66 5.34a.86.86 0 0 1 1.16-.2c.37.25.47.74.21 1.1l-6.11 8.42a.86.86 0 0 1-1.38-.01l-2.22-3.16a.76.76 0 0 1 .23-1.1.86.86 0 0 1 1.15.22l1.54 2.2 5.42-7.47Z" fill="#fff"/><path d="M120.47 11.6a2.5 2.5 0 0 1-.45 1.5c-.3.42-.7.74-1.23.96-.53.22-1.15.33-1.87.33a9.98 9.98 0 0 1-2-.22 3.97 3.97 0 0 1-.74-.25v-1.11a6.99 6.99 0 0 0 2.79.57c.5 0 .93-.06 1.27-.2.35-.13.61-.33.79-.58.18-.25.27-.56.27-.91s-.07-.63-.22-.86c-.15-.23-.4-.44-.75-.63s-.83-.4-1.43-.6a7.6 7.6 0 0 1-1.12-.5 3.5 3.5 0 0 1-.81-.61 2.3 2.3 0 0 1-.5-.8c-.1-.3-.16-.64-.16-1.03a2.3 2.3 0 0 1 1.53-2.24c.48-.2 1.03-.3 1.66-.3a6.8 6.8 0 0 1 2.73.55l-.37 1a7.87 7.87 0 0 0-1.14-.38 5.1 5.1 0 0 0-1.25-.15c-.43 0-.79.06-1.09.19-.29.12-.51.3-.67.53-.15.22-.23.5-.23.8 0 .36.08.65.22.88.15.24.39.44.71.63.33.17.76.36 1.3.56.59.21 1.09.44 1.5.68a2.34 2.34 0 0 1 1.26 2.18Zm4.29 1.86a3.58 3.58 0 0 0 1.05-.17v.88a3.92 3.92 0 0 1-1.24.21c-.4 0-.75-.06-1.08-.2a1.67 1.67 0 0 1-.78-.7c-.19-.34-.28-.8-.28-1.39V7.65h-1.07v-.56l1.07-.44.45-1.63h.69v1.74h2.2v.89h-2.2v4.4c0 .48.1.83.32 1.06.22.23.5.35.87.35Zm8.75-6.7v7.49h-.92l-.17-1.05h-.06a2.2 2.2 0 0 1-.6.65 3.08 3.08 0 0 1-1.81.54c-.6 0-1.1-.1-1.5-.29-.4-.2-.7-.49-.9-.89-.2-.4-.3-.92-.3-1.54V6.76h1.15v4.82c0 .63.14 1.1.42 1.4.28.31.71.46 1.3.46.55 0 .99-.1 1.32-.31.33-.21.57-.52.72-.92.14-.41.21-.92.21-1.5V6.75h1.14Zm5.07 7.63c-.95 0-1.7-.33-2.26-.97-.55-.65-.82-1.61-.82-2.89 0-1.29.28-2.26.84-2.92a2.83 2.83 0 0 1 2.26-.99 3 3 0 0 1 1.04.16 2.49 2.49 0 0 1 1.3 1.02h.09a11.3 11.3 0 0 1-.08-1.19v-3h1.13v10.64h-.92l-.17-1.07h-.04a2.6 2.6 0 0 1-2.37 1.2Zm.18-.95c.8 0 1.37-.22 1.7-.68.33-.46.5-1.13.5-2.03v-.2c0-.96-.16-1.69-.48-2.2-.31-.51-.89-.77-1.72-.77-.7 0-1.22.27-1.57.81a3.99 3.99 0 0 0-.52 2.19c0 .92.17 1.63.52 2.13.34.5.87.75 1.57.75Zm8.61-6.82c.64 0 1.19.14 1.64.42.46.29.8.68 1.05 1.2.24.5.36 1.1.36 1.77v.7h-5.17c0 .89.23 1.56.65 2.02.43.46 1.02.69 1.8.69a5.48 5.48 0 0 0 2.39-.52v1a5.53 5.53 0 0 1-2.44.49 3.9 3.9 0 0 1-1.9-.44c-.53-.3-.94-.73-1.24-1.3a4.5 4.5 0 0 1-.44-2.1 5 5 0 0 1 .4-2.08c.28-.6.66-1.05 1.15-1.37.5-.32 1.08-.48 1.75-.48Zm-.01.93c-.6 0-1.1.2-1.45.6-.36.4-.58.95-.64 1.66h3.96c0-.45-.07-.84-.21-1.18a1.8 1.8 0 0 0-.6-.8 1.8 1.8 0 0 0-1.06-.28Zm8.54-.93c.88 0 1.56.22 2.01.66.46.43.69 1.13.69 2.09v4.88h-1.13v-4.8c0-.63-.14-1.1-.43-1.4-.28-.32-.71-.47-1.3-.47-.83 0-1.41.23-1.75.7-.34.47-.5 1.15-.5 2.05v3.92h-1.14v-7.5h.91l.18 1.09h.06c.16-.27.36-.49.6-.67a3.2 3.2 0 0 1 1.8-.55Zm7.45 6.84a3.57 3.57 0 0 0 1.06-.17v.88a3.93 3.93 0 0 1-1.24.21c-.4 0-.76-.06-1.08-.2a1.67 1.67 0 0 1-.78-.7c-.2-.34-.29-.8-.29-1.39V7.65h-1.06v-.56l1.07-.44.45-1.63h.69v1.74h2.19v.89h-2.2v4.4c0 .48.11.83.33 1.06.22.23.5.35.86.35Z" fill="#000"/><rect x="188.41" y="2" width="16" height="16" rx="3" fill="#1E71F6"/><path d="M199.89 5.34a.86.86 0 0 1 1.16-.2c.38.25.47.74.21 1.1l-6.11 8.42a.86.86 0 0 1-1.38-.01l-2.22-3.16a.76.76 0 0 1 .23-1.1.86.86 0 0 1 1.15.22l1.54 2.2 5.42-7.47Z" fill="#fff"/><path d="M216.72 13.93h-1.17V4.96h-3.14V3.93h7.44v1.03h-3.13v8.97Zm10.66-7.49v7.49h-.93l-.17-1.05h-.06c-.15.26-.35.47-.6.65a2.6 2.6 0 0 1-.83.4c-.3.09-.63.14-.98.14-.6 0-1.09-.1-1.5-.3-.4-.18-.7-.48-.9-.88-.2-.4-.3-.92-.3-1.55v-4.9h1.15v4.82c0 .63.14 1.1.42 1.4.28.3.71.46 1.3.46.55 0 1-.1 1.32-.31.33-.21.57-.52.72-.93.14-.4.22-.9.22-1.5V6.44h1.14Zm4.82 6.7a3.57 3.57 0 0 0 1.05-.17v.88a3.93 3.93 0 0 1-1.24.21c-.4 0-.75-.06-1.08-.2a1.68 1.68 0 0 1-.78-.71c-.19-.33-.28-.8-.28-1.38V7.33h-1.07v-.56l1.07-.44.45-1.63h.69v1.74h2.2v.89H231v4.4c0 .47.1.82.32 1.06.22.23.5.35.87.35Zm9.03-2.97a5.3 5.3 0 0 1-.24 1.65c-.16.48-.4.89-.7 1.22a3 3 0 0 1-1.09.77c-.42.17-.9.26-1.44.26a3.13 3.13 0 0 1-3.16-2.25 5.11 5.11 0 0 1-.25-1.65c0-.82.14-1.52.42-2.1.27-.57.67-1.01 1.19-1.31.52-.3 1.13-.46 1.85-.46.68 0 1.28.15 1.79.46.52.3.91.75 1.2 1.32.28.58.43 1.27.43 2.09Zm-5.7 0c0 .6.08 1.12.23 1.56.17.45.41.79.74 1.03.34.24.76.36 1.29.36.52 0 .94-.12 1.28-.36.33-.24.58-.58.74-1.03.16-.44.24-.96.24-1.56 0-.6-.08-1.11-.24-1.55a2 2 0 0 0-.74-1 2.18 2.18 0 0 0-1.29-.36c-.78 0-1.35.25-1.71.77a3.69 3.69 0 0 0-.54 2.14ZM246.6 6.3a4.27 4.27 0 0 1 .9.09l-.14 1.05a3.16 3.16 0 0 0-.84-.1 2.03 2.03 0 0 0-1.55.7c-.2.23-.35.5-.47.82a3.1 3.1 0 0 0-.17 1.05v4.02h-1.14v-7.5h.94l.13 1.39h.04c.16-.28.34-.53.56-.76a2.26 2.26 0 0 1 1.73-.76Z" fill="#000"/></svg>