<svg width="148" height="18" fill="none" xmlns="http://www.w3.org/2000/svg"><rect x="1.09" y="2.5" width="15" height="15" rx="2.5" fill="#fff" stroke="#545454"/><path d="M25.76 14.25h-1.17v-10h5.57v1.03h-4.4v3.67h4.13v1.01h-4.13v4.29Zm8.78-7.63a2.74 2.74 0 0 1 2.69 1.61c.24.51.36 1.1.36 1.78v.7H32.4c.02.89.24 1.56.66 2.02.42.46 1.02.69 1.8.69a5.47 5.47 0 0 0 2.38-.52v1a5.52 5.52 0 0 1-2.44.49 3.9 3.9 0 0 1-1.88-.44c-.54-.3-.95-.73-1.25-1.3a4.5 4.5 0 0 1-.44-2.1 5 5 0 0 1 .4-2.08c.27-.6.66-1.05 1.15-1.37.5-.32 1.08-.48 1.75-.48Zm-.01.93c-.61 0-1.1.2-1.45.6-.36.4-.58.95-.65 1.66h3.97c0-.45-.08-.84-.21-1.18-.13-.34-.34-.6-.61-.8a1.8 1.8 0 0 0-1.05-.28Zm13.12-.93c.83 0 1.45.22 1.87.65.42.43.63 1.12.63 2.07v4.91h-1.12V9.4c0-.61-.14-1.06-.4-1.36-.26-.3-.65-.46-1.16-.46-.73 0-1.25.2-1.58.63-.33.42-.5 1.03-.5 1.85v4.19h-1.12V9.4c0-.4-.06-.75-.18-1.02a1.2 1.2 0 0 0-.52-.6c-.23-.13-.52-.2-.87-.2-.5 0-.9.1-1.2.3-.3.21-.51.52-.65.92-.13.4-.2.9-.2 1.49v3.96h-1.13v-7.5h.91l.17 1.07h.06A2.26 2.26 0 0 1 42 6.76c.28-.1.58-.14.9-.14.57 0 1.05.1 1.43.32.39.21.67.53.84.97h.06a2.3 2.3 0 0 1 1.01-.97c.43-.21.9-.32 1.41-.32Zm7.63.01c.9 0 1.56.2 1.99.6.43.4.65 1.05.65 1.93v5.09h-.83l-.22-1.1h-.05c-.21.27-.43.5-.66.68-.23.19-.49.32-.8.42a3.77 3.77 0 0 1-2.3-.1 1.9 1.9 0 0 1-.84-.73 2.3 2.3 0 0 1-.3-1.23c0-.74.3-1.32.9-1.72.58-.4 1.49-.62 2.7-.66l1.3-.05V9.3c0-.65-.15-1.1-.43-1.36a1.66 1.66 0 0 0-1.17-.39c-.4 0-.77.06-1.12.17-.36.12-.7.25-1.01.4l-.35-.86a5.98 5.98 0 0 1 2.54-.63Zm1.52 3.93-1.14.05c-.94.03-1.6.19-1.98.45-.38.27-.57.65-.57 1.15 0 .42.13.74.39.95.26.2.6.3 1.03.3a2.4 2.4 0 0 0 1.63-.55c.43-.37.64-.92.64-1.66v-.7Zm4.6 3.69h-1.14V3.61h1.14v10.64Zm5.28-7.63a2.74 2.74 0 0 1 2.69 1.61c.24.51.36 1.1.36 1.78v.7h-5.17c.01.89.23 1.56.65 2.02.43.46 1.02.69 1.8.69a5.47 5.47 0 0 0 2.39-.52v1a5.53 5.53 0 0 1-2.44.49 3.9 3.9 0 0 1-1.9-.44 3.1 3.1 0 0 1-1.23-1.3 4.5 4.5 0 0 1-.45-2.1 5 5 0 0 1 .4-2.08c.28-.6.66-1.05 1.15-1.37.5-.32 1.08-.48 1.75-.48Zm-.01.93c-.6 0-1.09.2-1.45.6-.36.4-.57.95-.64 1.66h3.96c0-.45-.07-.84-.21-1.18-.13-.34-.33-.6-.6-.8a1.8 1.8 0 0 0-1.06-.28Z" fill="#000"/><rect x="93.73" y="2" width="16" height="16" rx="3" fill="#1E71F6"/><path d="M105.21 5.34a.86.86 0 0 1 1.16-.2c.38.25.47.74.21 1.1l-6.1 8.42a.86.86 0 0 1-1.39-.01l-2.22-3.16a.76.76 0 0 1 .23-1.1.86.86 0 0 1 1.16.22l1.54 2.2 5.41-7.47Z" fill="#fff"/><path d="m122.13 14.25-3.36-8.85h-.05a15.95 15.95 0 0 1 .08 1.57l.01.96v6.32h-1.08v-10h1.72l3.17 8.32h.05l3.21-8.31h1.7v9.99h-1.14v-6.4a29.26 29.26 0 0 1 .09-2.43h-.06l-3.4 8.83h-.94Zm10.83-7.62c.89 0 1.55.2 1.98.6.44.4.65 1.05.65 1.93v5.09h-.82l-.22-1.1h-.06c-.2.27-.43.5-.65.68-.23.19-.5.32-.8.42a3.77 3.77 0 0 1-2.3-.1 1.9 1.9 0 0 1-.84-.73 2.3 2.3 0 0 1-.3-1.23c0-.74.3-1.32.89-1.72a5.2 5.2 0 0 1 2.7-.66l1.3-.05V9.3c0-.65-.14-1.1-.42-1.36a1.66 1.66 0 0 0-1.18-.39c-.39 0-.76.06-1.12.17-.35.12-.69.25-1 .4l-.36-.86c.34-.17.73-.32 1.16-.44.44-.12.9-.19 1.39-.19Zm1.51 3.93-1.14.05c-.93.03-1.6.19-1.98.45-.38.27-.57.65-.57 1.15 0 .42.13.74.4.95.25.2.6.3 1.02.3a2.4 2.4 0 0 0 1.64-.55c.42-.37.63-.92.63-1.66v-.7Zm4.6 3.69h-1.14V3.61h1.14v10.64Zm5.29-7.63a2.75 2.75 0 0 1 2.69 1.61c.23.51.36 1.1.36 1.78v.7h-5.18c.02.89.23 1.56.66 2.02a2.3 2.3 0 0 0 1.79.69 5.48 5.48 0 0 0 2.4-.52v1a5.52 5.52 0 0 1-2.45.49 3.9 3.9 0 0 1-1.89-.44c-.53-.3-.94-.73-1.24-1.3a4.5 4.5 0 0 1-.44-2.1 5 5 0 0 1 .4-2.08c.27-.6.66-1.05 1.15-1.37.5-.32 1.08-.48 1.75-.48Zm-.02.93c-.6 0-1.09.2-1.44.6-.37.4-.58.95-.65 1.66h3.97c0-.45-.08-.84-.22-1.18-.13-.34-.33-.6-.6-.8a1.8 1.8 0 0 0-1.06-.28Z" fill="#000"/></svg>