<svg width="246" height="18" viewBox="0 0 246 18" fill="none" xmlns="http://www.w3.org/2000/svg">
<rect x="0.687012" y="2.5" width="15" height="15" rx="2.5" fill="white" stroke="#545454"/>
<path d="M32.0005 14.25H30.6606L25.2124 5.85547H25.1577C25.1714 6.07878 25.1873 6.33398 25.2056 6.62109C25.2238 6.90365 25.2375 7.20671 25.2466 7.53027C25.2603 7.84928 25.2671 8.17513 25.2671 8.50781V14.25H24.187V4.25586H25.52L30.9478 12.623H30.9956C30.9865 12.4635 30.9751 12.238 30.9614 11.9463C30.9478 11.6501 30.9341 11.3333 30.9204 10.9961C30.9113 10.6543 30.9067 10.3376 30.9067 10.0459V4.25586H32.0005V14.25Z" fill="black"/>
<path d="M41.0171 10.4902C41.0171 11.1055 40.9373 11.6546 40.7778 12.1377C40.6183 12.6208 40.3882 13.0286 40.0874 13.3613C39.7866 13.694 39.422 13.9492 38.9937 14.127C38.5698 14.3001 38.089 14.3867 37.5513 14.3867C37.05 14.3867 36.5897 14.3001 36.1704 14.127C35.7557 13.9492 35.3957 13.694 35.0903 13.3613C34.7896 13.0286 34.5549 12.6208 34.3862 12.1377C34.2222 11.6546 34.1401 11.1055 34.1401 10.4902C34.1401 9.66992 34.2791 8.97266 34.5571 8.39844C34.8351 7.81966 35.2316 7.37988 35.7466 7.0791C36.2661 6.77376 36.8836 6.62109 37.5991 6.62109C38.2827 6.62109 38.8797 6.77376 39.3901 7.0791C39.9051 7.38444 40.3039 7.8265 40.5864 8.40527C40.8735 8.97949 41.0171 9.67448 41.0171 10.4902ZM35.3159 10.4902C35.3159 11.0918 35.3957 11.6136 35.5552 12.0557C35.7147 12.4977 35.9608 12.8395 36.2935 13.0811C36.6261 13.3226 37.0545 13.4434 37.5786 13.4434C38.0981 13.4434 38.5243 13.3226 38.8569 13.0811C39.1942 12.8395 39.4425 12.4977 39.6021 12.0557C39.7616 11.6136 39.8413 11.0918 39.8413 10.4902C39.8413 9.89323 39.7616 9.37826 39.6021 8.94531C39.4425 8.50781 39.1965 8.17057 38.8638 7.93359C38.5311 7.69661 38.1004 7.57812 37.5718 7.57812C36.7925 7.57812 36.2205 7.83561 35.856 8.35059C35.4959 8.86556 35.3159 9.57878 35.3159 10.4902Z" fill="black"/>
<path d="M45.3989 13.457C45.5858 13.457 45.7772 13.4411 45.9731 13.4092C46.1691 13.3773 46.3286 13.3385 46.4517 13.293V14.1748C46.3195 14.234 46.1349 14.2842 45.8979 14.3252C45.6655 14.3662 45.4377 14.3867 45.2144 14.3867C44.8179 14.3867 44.4578 14.3184 44.1343 14.1816C43.8107 14.0404 43.5509 13.8034 43.355 13.4707C43.1636 13.138 43.0679 12.6777 43.0679 12.0898V7.64648H42.0015V7.09277L43.0747 6.64844L43.5259 5.02148H44.2095V6.75781H46.4038V7.64648H44.2095V12.0557C44.2095 12.5251 44.3166 12.876 44.5308 13.1084C44.7495 13.3408 45.0389 13.457 45.3989 13.457Z" fill="black"/>
<path d="M54.4087 6.63477C55.3019 6.63477 55.965 6.83529 56.3979 7.23633C56.8309 7.63737 57.0474 8.27767 57.0474 9.15723V14.25H56.2202L56.0015 13.1426H55.9468C55.7371 13.416 55.5184 13.6462 55.2905 13.833C55.0627 14.0153 54.7983 14.1543 54.4976 14.25C54.2013 14.3411 53.8368 14.3867 53.4038 14.3867C52.9481 14.3867 52.5425 14.307 52.187 14.1475C51.8361 13.988 51.5581 13.7464 51.353 13.4229C51.1525 13.0993 51.0522 12.6891 51.0522 12.1924C51.0522 11.445 51.3485 10.8708 51.9409 10.4697C52.5334 10.0687 53.4357 9.84993 54.6479 9.81348L55.9399 9.75879V9.30078C55.9399 8.65365 55.8009 8.2002 55.5229 7.94043C55.245 7.68066 54.853 7.55078 54.3472 7.55078C53.9552 7.55078 53.5815 7.60775 53.2261 7.72168C52.8706 7.83561 52.5334 7.97005 52.2144 8.125L51.8657 7.26367C52.203 7.09049 52.5903 6.94238 53.0278 6.81934C53.4653 6.69629 53.9256 6.63477 54.4087 6.63477ZM55.9263 10.5586L54.7847 10.6064C53.8504 10.6429 53.1919 10.7956 52.8091 11.0645C52.4263 11.3333 52.2349 11.7139 52.2349 12.2061C52.2349 12.6344 52.3647 12.9512 52.6245 13.1562C52.8843 13.3613 53.2284 13.4639 53.6567 13.4639C54.3221 13.4639 54.8667 13.2793 55.2905 12.9102C55.7144 12.541 55.9263 11.9873 55.9263 11.249V10.5586Z" fill="black"/>
<path d="M62.7896 6.62109C62.9399 6.62109 63.0972 6.63021 63.2612 6.64844C63.4253 6.66211 63.5711 6.68262 63.6987 6.70996L63.5552 7.7627C63.4321 7.73079 63.2954 7.70573 63.145 7.6875C62.9946 7.66927 62.8534 7.66016 62.7212 7.66016C62.4204 7.66016 62.1356 7.72168 61.8667 7.84473C61.6024 7.96322 61.37 8.13639 61.1694 8.36426C60.9689 8.58757 60.8117 8.85872 60.6978 9.17773C60.5838 9.49219 60.5269 9.8431 60.5269 10.2305V14.25H59.3853V6.75781H60.3286L60.4517 8.13867H60.4995C60.6545 7.86068 60.8413 7.60775 61.0601 7.37988C61.2788 7.14746 61.5317 6.96289 61.8188 6.82617C62.1105 6.68945 62.4341 6.62109 62.7896 6.62109Z" fill="black"/>
<path d="M68.5181 6.62109C68.6685 6.62109 68.8257 6.63021 68.9897 6.64844C69.1538 6.66211 69.2996 6.68262 69.4272 6.70996L69.2837 7.7627C69.1606 7.73079 69.0239 7.70573 68.8735 7.6875C68.7231 7.66927 68.5819 7.66016 68.4497 7.66016C68.1489 7.66016 67.8641 7.72168 67.5952 7.84473C67.3309 7.96322 67.0985 8.13639 66.8979 8.36426C66.6974 8.58757 66.5402 8.85872 66.4263 9.17773C66.3123 9.49219 66.2554 9.8431 66.2554 10.2305V14.25H65.1138V6.75781H66.0571L66.1802 8.13867H66.228C66.383 7.86068 66.5698 7.60775 66.7886 7.37988C67.0073 7.14746 67.2603 6.96289 67.5474 6.82617C67.839 6.68945 68.1626 6.62109 68.5181 6.62109Z" fill="black"/>
<path d="M71.9771 6.75781V14.25H70.8423V6.75781H71.9771ZM71.4233 3.95508C71.6102 3.95508 71.7697 4.0166 71.9019 4.13965C72.0386 4.25814 72.1069 4.44499 72.1069 4.7002C72.1069 4.95085 72.0386 5.1377 71.9019 5.26074C71.7697 5.38379 71.6102 5.44531 71.4233 5.44531C71.2274 5.44531 71.0633 5.38379 70.9312 5.26074C70.8035 5.1377 70.7397 4.95085 70.7397 4.7002C70.7397 4.44499 70.8035 4.25814 70.9312 4.13965C71.0633 4.0166 71.2274 3.95508 71.4233 3.95508Z" fill="black"/>
<path d="M76.0308 14.25L73.187 6.75781H74.4038L76.0513 11.29C76.1652 11.5999 76.2814 11.9417 76.3999 12.3154C76.5184 12.6891 76.6004 12.9899 76.646 13.2178H76.6938C76.7485 12.9899 76.8397 12.6891 76.9673 12.3154C77.0949 11.9372 77.2111 11.5954 77.3159 11.29L78.9634 6.75781H80.1802L77.3296 14.25H76.0308Z" fill="black"/>
<path d="M84.2681 6.62109C84.9061 6.62109 85.453 6.76237 85.9087 7.04492C86.3644 7.32747 86.7131 7.72396 86.9546 8.23438C87.1961 8.74023 87.3169 9.33268 87.3169 10.0117V10.7158H82.1421C82.1558 11.5954 82.3745 12.2653 82.7983 12.7256C83.2222 13.1859 83.8192 13.416 84.5894 13.416C85.0633 13.416 85.4826 13.3727 85.8472 13.2861C86.2118 13.1995 86.59 13.0719 86.9819 12.9033V13.9014C86.6037 14.07 86.2277 14.193 85.854 14.2705C85.4849 14.348 85.0474 14.3867 84.5415 14.3867C83.8215 14.3867 83.1925 14.2409 82.6548 13.9492C82.1216 13.653 81.7069 13.2201 81.4106 12.6504C81.1144 12.0807 80.9663 11.3835 80.9663 10.5586C80.9663 9.75195 81.1007 9.05469 81.3696 8.4668C81.6431 7.87435 82.0259 7.41862 82.5181 7.09961C83.0148 6.7806 83.5981 6.62109 84.2681 6.62109ZM84.2544 7.55078C83.6483 7.55078 83.1652 7.74902 82.8052 8.14551C82.4451 8.54199 82.231 9.0957 82.1626 9.80664H86.1274C86.1229 9.36003 86.0522 8.9681 85.9155 8.63086C85.7834 8.28906 85.5806 8.02474 85.3071 7.83789C85.0337 7.64648 84.6828 7.55078 84.2544 7.55078Z" fill="black"/>
<path d="M94.0229 14.25H92.8813V3.61328H94.0229V14.25Z" fill="black"/>
<path d="M99.2251 6.63477C100.118 6.63477 100.781 6.83529 101.214 7.23633C101.647 7.63737 101.864 8.27767 101.864 9.15723V14.25H101.037L100.818 13.1426H100.763C100.554 13.416 100.335 13.6462 100.107 13.833C99.8791 14.0153 99.6147 14.1543 99.314 14.25C99.0177 14.3411 98.6532 14.3867 98.2202 14.3867C97.7645 14.3867 97.3589 14.307 97.0034 14.1475C96.6525 13.988 96.3745 13.7464 96.1694 13.4229C95.9689 13.0993 95.8687 12.6891 95.8687 12.1924C95.8687 11.445 96.1649 10.8708 96.7573 10.4697C97.3498 10.0687 98.2521 9.84993 99.4644 9.81348L100.756 9.75879V9.30078C100.756 8.65365 100.617 8.2002 100.339 7.94043C100.061 7.68066 99.6694 7.55078 99.1636 7.55078C98.7716 7.55078 98.3979 7.60775 98.0425 7.72168C97.687 7.83561 97.3498 7.97005 97.0308 8.125L96.6821 7.26367C97.0194 7.09049 97.4067 6.94238 97.8442 6.81934C98.2817 6.69629 98.742 6.63477 99.2251 6.63477ZM100.743 10.5586L99.6011 10.6064C98.6668 10.6429 98.0083 10.7956 97.6255 11.0645C97.2427 11.3333 97.0513 11.7139 97.0513 12.2061C97.0513 12.6344 97.1812 12.9512 97.4409 13.1562C97.7007 13.3613 98.0448 13.4639 98.4731 13.4639C99.1385 13.4639 99.6831 13.2793 100.107 12.9102C100.531 12.541 100.743 11.9873 100.743 11.249V10.5586Z" fill="black"/>
<path d="M106.622 13.457C106.808 13.457 107 13.4411 107.196 13.4092C107.392 13.3773 107.551 13.3385 107.674 13.293V14.1748C107.542 14.234 107.358 14.2842 107.121 14.3252C106.888 14.3662 106.66 14.3867 106.437 14.3867C106.041 14.3867 105.681 14.3184 105.357 14.1816C105.033 14.0404 104.774 13.8034 104.578 13.4707C104.386 13.138 104.291 12.6777 104.291 12.0898V7.64648H103.224V7.09277L104.297 6.64844L104.749 5.02148H105.432V6.75781H107.626V7.64648H105.432V12.0557C105.432 12.5251 105.539 12.876 105.753 13.1084C105.972 13.3408 106.262 13.457 106.622 13.457Z" fill="black"/>
<path d="M112.077 6.62109C112.715 6.62109 113.262 6.76237 113.717 7.04492C114.173 7.32747 114.522 7.72396 114.763 8.23438C115.005 8.74023 115.125 9.33268 115.125 10.0117V10.7158H109.951C109.964 11.5954 110.183 12.2653 110.607 12.7256C111.031 13.1859 111.628 13.416 112.398 13.416C112.872 13.416 113.291 13.3727 113.656 13.2861C114.02 13.1995 114.399 13.0719 114.791 12.9033V13.9014C114.412 14.07 114.036 14.193 113.663 14.2705C113.293 14.348 112.856 14.3867 112.35 14.3867C111.63 14.3867 111.001 14.2409 110.463 13.9492C109.93 13.653 109.515 13.2201 109.219 12.6504C108.923 12.0807 108.775 11.3835 108.775 10.5586C108.775 9.75195 108.909 9.05469 109.178 8.4668C109.452 7.87435 109.834 7.41862 110.327 7.09961C110.823 6.7806 111.407 6.62109 112.077 6.62109ZM112.063 7.55078C111.457 7.55078 110.974 7.74902 110.614 8.14551C110.254 8.54199 110.04 9.0957 109.971 9.80664H113.936C113.931 9.36003 113.861 8.9681 113.724 8.63086C113.592 8.28906 113.389 8.02474 113.116 7.83789C112.842 7.64648 112.491 7.55078 112.063 7.55078Z" fill="black"/>
<rect x="139.125" y="2" width="16" height="16" rx="3" fill="#1E71F6"/>
<path d="M150.605 5.34229C150.866 4.98299 151.385 4.89197 151.764 5.13899C152.143 5.386 152.24 5.87751 151.979 6.2368L145.868 14.6578C145.534 15.118 144.815 15.1132 144.488 14.6485L142.266 11.4906C142.01 11.1278 142.114 10.6376 142.497 10.3958C142.88 10.1539 143.397 10.252 143.652 10.6147L145.192 12.8024L150.605 5.34229Z" fill="white"/>
<path d="M170.761 14.25L169.531 11.0781H165.525L164.301 14.25H163.125L167.036 4.21484H168.082L171.964 14.25H170.761ZM169.182 10.0459L168.013 6.89453C167.986 6.8125 167.94 6.67806 167.876 6.49121C167.817 6.30436 167.756 6.11068 167.692 5.91016C167.628 5.70964 167.576 5.54785 167.535 5.4248C167.489 5.61165 167.439 5.7985 167.384 5.98535C167.334 6.16764 167.284 6.33854 167.234 6.49805C167.184 6.65299 167.14 6.78516 167.104 6.89453L165.915 10.0459H169.182Z" fill="black"/>
<path d="M174.829 14.25L171.985 6.75781H173.202L174.849 11.29C174.963 11.5999 175.079 11.9417 175.198 12.3154C175.316 12.6891 175.398 12.9899 175.444 13.2178H175.492C175.546 12.9899 175.638 12.6891 175.765 12.3154C175.893 11.9372 176.009 11.5954 176.114 11.29L177.761 6.75781H178.978L176.127 14.25H174.829Z" fill="black"/>
<path d="M186.641 10.4902C186.641 11.1055 186.561 11.6546 186.402 12.1377C186.242 12.6208 186.012 13.0286 185.711 13.3613C185.411 13.694 185.046 13.9492 184.618 14.127C184.194 14.3001 183.713 14.3867 183.175 14.3867C182.674 14.3867 182.214 14.3001 181.794 14.127C181.38 13.9492 181.02 13.694 180.714 13.3613C180.414 13.0286 180.179 12.6208 180.01 12.1377C179.846 11.6546 179.764 11.1055 179.764 10.4902C179.764 9.66992 179.903 8.97266 180.181 8.39844C180.459 7.81966 180.856 7.37988 181.371 7.0791C181.89 6.77376 182.508 6.62109 183.223 6.62109C183.907 6.62109 184.504 6.77376 185.014 7.0791C185.529 7.38444 185.928 7.8265 186.21 8.40527C186.498 8.97949 186.641 9.67448 186.641 10.4902ZM180.94 10.4902C180.94 11.0918 181.02 11.6136 181.179 12.0557C181.339 12.4977 181.585 12.8395 181.917 13.0811C182.25 13.3226 182.679 13.4434 183.203 13.4434C183.722 13.4434 184.148 13.3226 184.481 13.0811C184.818 12.8395 185.067 12.4977 185.226 12.0557C185.386 11.6136 185.465 11.0918 185.465 10.4902C185.465 9.89323 185.386 9.37826 185.226 8.94531C185.067 8.50781 184.82 8.17057 184.488 7.93359C184.155 7.69661 183.724 7.57812 183.196 7.57812C182.417 7.57812 181.845 7.83561 181.48 8.35059C181.12 8.86556 180.94 9.57878 180.94 10.4902Z" fill="black"/>
<path d="M189.738 6.75781V14.25H188.603V6.75781H189.738ZM189.184 3.95508C189.371 3.95508 189.53 4.0166 189.663 4.13965C189.799 4.25814 189.868 4.44499 189.868 4.7002C189.868 4.95085 189.799 5.1377 189.663 5.26074C189.53 5.38379 189.371 5.44531 189.184 5.44531C188.988 5.44531 188.824 5.38379 188.692 5.26074C188.564 5.1377 188.5 4.95085 188.5 4.7002C188.5 4.44499 188.564 4.25814 188.692 4.13965C188.824 4.0166 188.988 3.95508 189.184 3.95508Z" fill="black"/>
<path d="M194.81 14.3867C193.862 14.3867 193.11 14.0632 192.554 13.416C192.003 12.7689 191.727 11.8073 191.727 10.5312C191.727 9.24154 192.01 8.26855 192.575 7.6123C193.14 6.9515 193.892 6.62109 194.831 6.62109C195.227 6.62109 195.573 6.6735 195.87 6.77832C196.166 6.88314 196.421 7.02441 196.635 7.20215C196.849 7.37533 197.029 7.57357 197.175 7.79688H197.257C197.239 7.6556 197.221 7.46191 197.203 7.21582C197.184 6.96973 197.175 6.76921 197.175 6.61426V3.61328H198.31V14.25H197.394L197.223 13.1836H197.175C197.034 13.4069 196.854 13.6097 196.635 13.792C196.421 13.9743 196.164 14.1201 195.863 14.2295C195.567 14.3343 195.216 14.3867 194.81 14.3867ZM194.988 13.4434C195.79 13.4434 196.357 13.2155 196.69 12.7598C197.023 12.304 197.189 11.6273 197.189 10.7295V10.5244C197.189 9.57194 197.029 8.84049 196.71 8.33008C196.396 7.81966 195.822 7.56445 194.988 7.56445C194.291 7.56445 193.769 7.83333 193.422 8.37109C193.076 8.9043 192.903 9.63346 192.903 10.5586C192.903 11.4792 193.074 12.1901 193.416 12.6914C193.762 13.1927 194.286 13.4434 194.988 13.4434Z" fill="black"/>
<path d="M207.019 14.3867C206.071 14.3867 205.319 14.0632 204.763 13.416C204.212 12.7689 203.936 11.8073 203.936 10.5312C203.936 9.24154 204.219 8.26855 204.784 7.6123C205.349 6.9515 206.101 6.62109 207.04 6.62109C207.436 6.62109 207.782 6.6735 208.079 6.77832C208.375 6.88314 208.63 7.02441 208.844 7.20215C209.058 7.37533 209.238 7.57357 209.384 7.79688H209.466C209.448 7.6556 209.43 7.46191 209.412 7.21582C209.393 6.96973 209.384 6.76921 209.384 6.61426V3.61328H210.519V14.25H209.603L209.432 13.1836H209.384C209.243 13.4069 209.063 13.6097 208.844 13.792C208.63 13.9743 208.373 14.1201 208.072 14.2295C207.776 14.3343 207.425 14.3867 207.019 14.3867ZM207.197 13.4434C207.999 13.4434 208.566 13.2155 208.899 12.7598C209.232 12.304 209.398 11.6273 209.398 10.7295V10.5244C209.398 9.57194 209.238 8.84049 208.919 8.33008C208.605 7.81966 208.031 7.56445 207.197 7.56445C206.5 7.56445 205.978 7.83333 205.631 8.37109C205.285 8.9043 205.112 9.63346 205.112 10.5586C205.112 11.4792 205.283 12.1901 205.625 12.6914C205.971 13.1927 206.495 13.4434 207.197 13.4434Z" fill="black"/>
<path d="M214.06 6.75781V14.25H212.925V6.75781H214.06ZM213.506 3.95508C213.693 3.95508 213.853 4.0166 213.985 4.13965C214.122 4.25814 214.19 4.44499 214.19 4.7002C214.19 4.95085 214.122 5.1377 213.985 5.26074C213.853 5.38379 213.693 5.44531 213.506 5.44531C213.31 5.44531 213.146 5.38379 213.014 5.26074C212.887 5.1377 212.823 4.95085 212.823 4.7002C212.823 4.44499 212.887 4.25814 213.014 4.13965C213.146 4.0166 213.31 3.95508 213.506 3.95508Z" fill="black"/>
<path d="M220.014 6.62109C220.903 6.62109 221.575 6.83984 222.031 7.27734C222.486 7.71029 222.714 8.40755 222.714 9.36914V14.25H221.593V9.44434C221.593 8.81999 221.45 8.35286 221.163 8.04297C220.88 7.73307 220.445 7.57812 219.857 7.57812C219.028 7.57812 218.444 7.81283 218.107 8.28223C217.77 8.75163 217.601 9.43294 217.601 10.3262V14.25H216.466V6.75781H217.382L217.553 7.83789H217.615C217.774 7.57357 217.977 7.35254 218.223 7.1748C218.469 6.99251 218.745 6.85579 219.05 6.76465C219.356 6.66895 219.677 6.62109 220.014 6.62109Z" fill="black"/>
<path d="M228.6 6.62109C229.489 6.62109 230.161 6.83984 230.617 7.27734C231.072 7.71029 231.3 8.40755 231.3 9.36914V14.25H230.179V9.44434C230.179 8.81999 230.036 8.35286 229.749 8.04297C229.466 7.73307 229.031 7.57812 228.443 7.57812C227.613 7.57812 227.03 7.81283 226.693 8.28223C226.356 8.75163 226.187 9.43294 226.187 10.3262V14.25H225.052V6.75781H225.968L226.139 7.83789H226.201C226.36 7.57357 226.563 7.35254 226.809 7.1748C227.055 6.99251 227.331 6.85579 227.636 6.76465C227.942 6.66895 228.263 6.62109 228.6 6.62109Z" fill="black"/>
<path d="M236.523 6.62109C237.161 6.62109 237.708 6.76237 238.164 7.04492C238.619 7.32747 238.968 7.72396 239.209 8.23438C239.451 8.74023 239.572 9.33268 239.572 10.0117V10.7158H234.397C234.411 11.5954 234.629 12.2653 235.053 12.7256C235.477 13.1859 236.074 13.416 236.844 13.416C237.318 13.416 237.737 13.3727 238.102 13.2861C238.467 13.1995 238.845 13.0719 239.237 12.9033V13.9014C238.859 14.07 238.483 14.193 238.109 14.2705C237.74 14.348 237.302 14.3867 236.796 14.3867C236.076 14.3867 235.447 14.2409 234.91 13.9492C234.376 13.653 233.962 13.2201 233.666 12.6504C233.369 12.0807 233.221 11.3835 233.221 10.5586C233.221 9.75195 233.356 9.05469 233.625 8.4668C233.898 7.87435 234.281 7.41862 234.773 7.09961C235.27 6.7806 235.853 6.62109 236.523 6.62109ZM236.509 7.55078C235.903 7.55078 235.42 7.74902 235.06 8.14551C234.7 8.54199 234.486 9.0957 234.417 9.80664H238.382C238.378 9.36003 238.307 8.9681 238.17 8.63086C238.038 8.28906 237.835 8.02474 237.562 7.83789C237.289 7.64648 236.938 7.55078 236.509 7.55078Z" fill="black"/>
<path d="M244.904 6.62109C245.054 6.62109 245.211 6.63021 245.375 6.64844C245.54 6.66211 245.685 6.68262 245.813 6.70996L245.669 7.7627C245.546 7.73079 245.41 7.70573 245.259 7.6875C245.109 7.66927 244.968 7.66016 244.835 7.66016C244.535 7.66016 244.25 7.72168 243.981 7.84473C243.717 7.96322 243.484 8.13639 243.284 8.36426C243.083 8.58757 242.926 8.85872 242.812 9.17773C242.698 9.49219 242.641 9.8431 242.641 10.2305V14.25H241.5V6.75781H242.443L242.566 8.13867H242.614C242.769 7.86068 242.956 7.60775 243.174 7.37988C243.393 7.14746 243.646 6.96289 243.933 6.82617C244.225 6.68945 244.548 6.62109 244.904 6.62109Z" fill="black"/>
</svg>
