<svg width="222" height="33" viewBox="0 0 222 33" fill="none" xmlns="http://www.w3.org/2000/svg">
<rect x="1" y="1" width="84" height="31" rx="3.5" fill="#F6F6F6"/>
<path d="M20.6932 14C20.5838 13.6652 20.4396 13.3653 20.2607 13.1001C20.085 12.8317 19.8745 12.603 19.6293 12.4141C19.3873 12.2251 19.1122 12.081 18.804 11.9815C18.4957 11.8821 18.1577 11.8324 17.7898 11.8324C17.1866 11.8324 16.638 11.9882 16.1442 12.2997C15.6503 12.6113 15.2576 13.0703 14.9659 13.6768C14.6742 14.2834 14.5284 15.0275 14.5284 15.9091C14.5284 16.7907 14.6759 17.5348 14.9709 18.1413C15.2659 18.7479 15.6652 19.2069 16.169 19.5185C16.6728 19.83 17.2396 19.9858 17.8693 19.9858C18.4527 19.9858 18.9664 19.8615 19.4105 19.6129C19.858 19.361 20.206 19.0064 20.4545 18.549C20.7064 18.0883 20.8324 17.5464 20.8324 16.9233L21.2102 17.0028H18.1477V15.9091H22.0256V17.0028C22.0256 17.8414 21.8466 18.5705 21.4886 19.1903C21.134 19.8101 20.6435 20.2907 20.017 20.6321C19.3939 20.9702 18.678 21.1392 17.8693 21.1392C16.9678 21.1392 16.1757 20.9271 15.4929 20.5028C14.8134 20.0786 14.2831 19.4754 13.902 18.6932C13.5241 17.911 13.3352 16.983 13.3352 15.9091C13.3352 15.1037 13.4429 14.3795 13.6584 13.7365C13.8771 13.0902 14.1854 12.54 14.5831 12.0859C14.9808 11.6319 15.4515 11.2839 15.995 11.0419C16.5386 10.8 17.1368 10.679 17.7898 10.679C18.3267 10.679 18.8272 10.7602 19.2912 10.9226C19.7585 11.0817 20.1745 11.3087 20.5391 11.6037C20.907 11.8954 21.2135 12.245 21.4588 12.6527C21.7041 13.0571 21.8731 13.5062 21.9659 14H20.6932ZM23.9782 21V13.3636H25.1117V14.517H25.1912C25.3304 14.1392 25.5823 13.8326 25.9469 13.5973C26.3115 13.362 26.7225 13.2443 27.1799 13.2443C27.266 13.2443 27.3738 13.246 27.503 13.2493C27.6323 13.2526 27.7301 13.2576 27.7963 13.2642V14.4574C27.7566 14.4474 27.6654 14.4325 27.5229 14.4126C27.3837 14.3894 27.2362 14.3778 27.0804 14.3778C26.7092 14.3778 26.3778 14.4557 26.0861 14.6115C25.7978 14.764 25.5691 14.9761 25.4 15.2479C25.2343 15.5163 25.1515 15.8229 25.1515 16.1676V21H23.9782ZM31.4343 21.179C30.9504 21.179 30.5112 21.0878 30.1168 20.9055C29.7224 20.7199 29.4092 20.4531 29.1772 20.1051C28.9452 19.7538 28.8292 19.3295 28.8292 18.8324C28.8292 18.3949 28.9154 18.0402 29.0877 17.7685C29.2601 17.4934 29.4904 17.2779 29.7788 17.1222C30.0671 16.9664 30.3853 16.8504 30.7333 16.7741C31.0846 16.6946 31.4376 16.6316 31.7923 16.5852C32.2563 16.5256 32.6325 16.4808 32.9208 16.451C33.2125 16.4179 33.4246 16.3632 33.5572 16.2869C33.6931 16.2107 33.761 16.0781 33.761 15.8892V15.8494C33.761 15.3589 33.6268 14.9777 33.3583 14.706C33.0932 14.4342 32.6905 14.2983 32.1502 14.2983C31.5901 14.2983 31.1509 14.4209 30.8327 14.6662C30.5146 14.9115 30.2908 15.1733 30.1616 15.4517L29.0479 15.054C29.2468 14.59 29.512 14.2287 29.8434 13.9702C30.1781 13.7083 30.5427 13.526 30.9371 13.4233C31.3349 13.3172 31.726 13.2642 32.1104 13.2642C32.3557 13.2642 32.6374 13.294 32.9556 13.3537C33.2771 13.41 33.587 13.5277 33.8853 13.7067C34.1869 13.8857 34.4371 14.1558 34.636 14.517C34.8349 14.8783 34.9343 15.3622 34.9343 15.9688V21H33.761V19.9659H33.7013C33.6218 20.1316 33.4892 20.3089 33.3036 20.4979C33.118 20.6868 32.8711 20.8475 32.5629 20.9801C32.2546 21.1127 31.8784 21.179 31.4343 21.179ZM31.6133 20.125C32.0773 20.125 32.4684 20.0339 32.7866 19.8516C33.1081 19.6693 33.35 19.4339 33.5124 19.1456C33.6781 18.8572 33.761 18.554 33.761 18.2358V17.1619C33.7113 17.2216 33.6019 17.2763 33.4329 17.326C33.2672 17.3724 33.0749 17.4138 32.8562 17.4503C32.6407 17.4834 32.4303 17.5133 32.2248 17.5398C32.0226 17.563 31.8585 17.5829 31.7326 17.5994C31.4277 17.6392 31.1426 17.7038 30.8775 17.7933C30.6156 17.8795 30.4035 18.0104 30.2411 18.1861C30.082 18.3584 30.0025 18.5937 30.0025 18.892C30.0025 19.2997 30.1533 19.608 30.4549 19.8168C30.7598 20.0223 31.146 20.125 31.6133 20.125ZM37.0758 21V13.3636H38.2093V14.5568H38.3088C38.4679 14.1491 38.7247 13.8326 39.0794 13.6072C39.434 13.3786 39.8599 13.2642 40.3571 13.2642C40.8609 13.2642 41.2801 13.3786 41.6149 13.6072C41.9529 13.8326 42.2164 14.1491 42.4054 14.5568H42.4849C42.6805 14.1624 42.9738 13.8492 43.3649 13.6172C43.756 13.3819 44.225 13.2642 44.7718 13.2642C45.4546 13.2642 46.0131 13.478 46.4473 13.9055C46.8815 14.3298 47.0985 14.991 47.0985 15.8892V21H45.9252V15.8892C45.9252 15.3258 45.7711 14.9231 45.4629 14.6811C45.1547 14.4392 44.7917 14.3182 44.3741 14.3182C43.8372 14.3182 43.4212 14.4806 43.1262 14.8054C42.8313 15.1269 42.6838 15.5346 42.6838 16.0284V21H41.4906V15.7699C41.4906 15.3357 41.3497 14.986 41.068 14.7209C40.7863 14.4524 40.4234 14.3182 39.9792 14.3182C39.6743 14.3182 39.3893 14.3994 39.1241 14.5618C38.8623 14.7242 38.6502 14.9496 38.4877 15.2379C38.3287 15.523 38.2491 15.8527 38.2491 16.2273V21H37.0758ZM49.2438 21V13.3636H50.3773V14.5568H50.4767C50.6358 14.1491 50.8927 13.8326 51.2473 13.6072C51.602 13.3786 52.0279 13.2642 52.525 13.2642C53.0288 13.2642 53.4481 13.3786 53.7828 13.6072C54.1209 13.8326 54.3844 14.1491 54.5733 14.5568H54.6529C54.8484 14.1624 55.1417 13.8492 55.5328 13.6172C55.9239 13.3819 56.3929 13.2642 56.9398 13.2642C57.6226 13.2642 58.181 13.478 58.6152 13.9055C59.0494 14.3298 59.2665 14.991 59.2665 15.8892V21H58.0932V15.8892C58.0932 15.3258 57.9391 14.9231 57.6309 14.6811C57.3226 14.4392 56.9597 14.3182 56.5421 14.3182C56.0051 14.3182 55.5892 14.4806 55.2942 14.8054C54.9992 15.1269 54.8517 15.5346 54.8517 16.0284V21H53.6586V15.7699C53.6586 15.3357 53.5177 14.986 53.236 14.7209C52.9542 14.4524 52.5913 14.3182 52.1472 14.3182C51.8423 14.3182 51.5572 14.3994 51.2921 14.5618C51.0302 14.7242 50.8181 14.9496 50.6557 15.2379C50.4966 15.523 50.4171 15.8527 50.4171 16.2273V21H49.2438ZM63.6589 21.179C63.175 21.179 62.7359 21.0878 62.3414 20.9055C61.947 20.7199 61.6338 20.4531 61.4018 20.1051C61.1698 19.7538 61.0538 19.3295 61.0538 18.8324C61.0538 18.3949 61.14 18.0402 61.3123 17.7685C61.4847 17.4934 61.715 17.2779 62.0034 17.1222C62.2917 16.9664 62.6099 16.8504 62.9579 16.7741C63.3092 16.6946 63.6622 16.6316 64.0169 16.5852C64.4809 16.5256 64.8571 16.4808 65.1454 16.451C65.4371 16.4179 65.6492 16.3632 65.7818 16.2869C65.9177 16.2107 65.9856 16.0781 65.9856 15.8892V15.8494C65.9856 15.3589 65.8514 14.9777 65.5829 14.706C65.3178 14.4342 64.9151 14.2983 64.3748 14.2983C63.8147 14.2983 63.3755 14.4209 63.0574 14.6662C62.7392 14.9115 62.5154 15.1733 62.3862 15.4517L61.2725 15.054C61.4714 14.59 61.7366 14.2287 62.068 13.9702C62.4028 13.7083 62.7673 13.526 63.1618 13.4233C63.5595 13.3172 63.9506 13.2642 64.335 13.2642C64.5803 13.2642 64.862 13.294 65.1802 13.3537C65.5017 13.41 65.8116 13.5277 66.1099 13.7067C66.4115 13.8857 66.6618 14.1558 66.8606 14.517C67.0595 14.8783 67.1589 15.3622 67.1589 15.9688V21H65.9856V19.9659H65.926C65.8464 20.1316 65.7138 20.3089 65.5282 20.4979C65.3426 20.6868 65.0957 20.8475 64.7875 20.9801C64.4792 21.1127 64.103 21.179 63.6589 21.179ZM63.8379 20.125C64.3019 20.125 64.693 20.0339 65.0112 19.8516C65.3327 19.6693 65.5746 19.4339 65.737 19.1456C65.9028 18.8572 65.9856 18.554 65.9856 18.2358V17.1619C65.9359 17.2216 65.8265 17.2763 65.6575 17.326C65.4918 17.3724 65.2995 17.4138 65.0808 17.4503C64.8654 17.4834 64.6549 17.5133 64.4494 17.5398C64.2472 17.563 64.0832 17.5829 63.9572 17.5994C63.6523 17.6392 63.3672 17.7038 63.1021 17.7933C62.8403 17.8795 62.6281 18.0104 62.4657 18.1861C62.3066 18.3584 62.2271 18.5937 62.2271 18.892C62.2271 19.2997 62.3779 19.608 62.6795 19.8168C62.9844 20.0223 63.3706 20.125 63.8379 20.125ZM69.3004 21V13.3636H70.4339V14.517H70.5135C70.6527 14.1392 70.9046 13.8326 71.2692 13.5973C71.6338 13.362 72.0447 13.2443 72.5021 13.2443C72.5883 13.2443 72.696 13.246 72.8253 13.2493C72.9545 13.2526 73.0523 13.2576 73.1186 13.2642V14.4574C73.0788 14.4474 72.9877 14.4325 72.8452 14.4126C72.706 14.3894 72.5585 14.3778 72.4027 14.3778C72.0315 14.3778 71.7 14.4557 71.4084 14.6115C71.12 14.764 70.8913 14.9761 70.7223 15.2479C70.5566 15.5163 70.4737 15.8229 70.4737 16.1676V21H69.3004Z" fill="#545454"/>
<rect x="1" y="1" width="84" height="31" rx="3.5" stroke="#AFAFAF"/>
<rect x="94" y="1" width="42" height="31" rx="3.5" fill="#F6F6F6"/>
<path d="M107.151 10.8182L110.173 19.3892H110.293L113.315 10.8182H114.608L110.869 21H109.597L105.858 10.8182H107.151ZM116.194 21V10.8182H119.634C120.43 10.8182 121.083 10.9541 121.593 11.2259C122.103 11.4943 122.481 11.8639 122.727 12.3345C122.972 12.8052 123.094 13.3404 123.094 13.9403C123.094 14.5402 122.972 15.0722 122.727 15.5362C122.481 16.0002 122.105 16.3648 121.598 16.63C121.091 16.8918 120.443 17.0227 119.654 17.0227H116.87V15.9091H119.614C120.158 15.9091 120.595 15.8295 120.927 15.6705C121.262 15.5114 121.504 15.286 121.653 14.9943C121.805 14.6993 121.881 14.348 121.881 13.9403C121.881 13.5327 121.805 13.1764 121.653 12.8714C121.5 12.5665 121.257 12.3312 120.922 12.1655C120.587 11.9964 120.145 11.9119 119.594 11.9119H117.427V21H116.194ZM120.987 16.4261L123.492 21H122.06L119.594 16.4261H120.987Z" fill="#545454"/>
<rect x="94" y="1" width="42" height="31" rx="3.5" stroke="#AFAFAF"/>
<rect x="145" y="1" width="76" height="31" rx="3.5" fill="#F6F6F6"/>
<path d="M163.301 13.3636C163.241 12.8598 163 12.4688 162.575 12.1903C162.151 11.9119 161.631 11.7727 161.014 11.7727C160.563 11.7727 160.169 11.8456 159.831 11.9915C159.496 12.1373 159.234 12.3378 159.045 12.593C158.86 12.8482 158.767 13.1383 158.767 13.4631C158.767 13.7348 158.832 13.9685 158.961 14.1641C159.094 14.3563 159.263 14.517 159.468 14.6463C159.674 14.7723 159.889 14.8767 160.114 14.9595C160.34 15.0391 160.547 15.1037 160.736 15.1534L161.77 15.4318C162.035 15.5014 162.33 15.5975 162.655 15.7202C162.983 15.8428 163.296 16.0102 163.594 16.2223C163.896 16.4311 164.145 16.6996 164.34 17.0277C164.536 17.3558 164.634 17.7585 164.634 18.2358C164.634 18.786 164.489 19.2831 164.201 19.7273C163.916 20.1714 163.498 20.5244 162.948 20.7862C162.401 21.0481 161.737 21.179 160.955 21.179C160.225 21.179 159.594 21.0613 159.06 20.826C158.53 20.5907 158.112 20.2625 157.808 19.8416C157.506 19.4207 157.335 18.9318 157.295 18.375H158.568C158.601 18.7595 158.731 19.0777 158.956 19.3295C159.185 19.5781 159.473 19.7637 159.821 19.8864C160.172 20.0057 160.55 20.0653 160.955 20.0653C161.425 20.0653 161.848 19.9891 162.222 19.8366C162.597 19.6809 162.893 19.4654 163.112 19.1903C163.331 18.9119 163.44 18.5871 163.44 18.2159C163.44 17.8778 163.346 17.6027 163.157 17.3906C162.968 17.1785 162.719 17.0062 162.411 16.8736C162.103 16.741 161.77 16.625 161.412 16.5256L160.159 16.1676C159.364 15.9389 158.734 15.6125 158.27 15.1882C157.806 14.764 157.574 14.2088 157.574 13.5227C157.574 12.9527 157.728 12.4555 158.036 12.0312C158.348 11.6037 158.765 11.2723 159.289 11.0369C159.816 10.7983 160.404 10.679 161.054 10.679C161.71 10.679 162.294 10.7966 162.804 11.032C163.314 11.264 163.719 11.5821 164.017 11.9865C164.319 12.3909 164.478 12.8499 164.494 13.3636H163.301ZM169.604 21.1591C168.888 21.1591 168.271 20.9901 167.754 20.652C167.237 20.3139 166.84 19.8482 166.561 19.255C166.283 18.6617 166.144 17.9839 166.144 17.2216C166.144 16.446 166.286 15.7616 166.571 15.1683C166.86 14.5717 167.261 14.1061 167.774 13.7713C168.291 13.4332 168.895 13.2642 169.584 13.2642C170.121 13.2642 170.605 13.3636 171.036 13.5625C171.467 13.7614 171.82 14.0398 172.095 14.3977C172.37 14.7557 172.54 15.1733 172.607 15.6506H171.433C171.344 15.3026 171.145 14.9943 170.837 14.7259C170.532 14.4541 170.121 14.3182 169.604 14.3182C169.146 14.3182 168.745 14.4375 168.401 14.6761C168.059 14.9115 167.793 15.2446 167.6 15.6754C167.411 16.103 167.317 16.6051 167.317 17.1818C167.317 17.7718 167.41 18.2855 167.595 18.723C167.784 19.1605 168.049 19.5002 168.391 19.7422C168.735 19.9841 169.14 20.1051 169.604 20.1051C169.909 20.1051 170.186 20.0521 170.434 19.946C170.683 19.84 170.893 19.6875 171.066 19.4886C171.238 19.2898 171.36 19.0511 171.433 18.7727H172.607C172.54 19.2235 172.376 19.6295 172.115 19.9908C171.856 20.3487 171.513 20.6338 171.085 20.8459C170.661 21.0547 170.167 21.1591 169.604 21.1591ZM174.322 21V13.3636H175.495V21H174.322ZM174.919 12.0909C174.69 12.0909 174.493 12.013 174.327 11.8572C174.164 11.7015 174.083 11.5142 174.083 11.2955C174.083 11.0767 174.164 10.8894 174.327 10.7337C174.493 10.5779 174.69 10.5 174.919 10.5C175.147 10.5 175.343 10.5779 175.505 10.7337C175.671 10.8894 175.754 11.0767 175.754 11.2955C175.754 11.5142 175.671 11.7015 175.505 11.8572C175.343 12.013 175.147 12.0909 174.919 12.0909ZM180.846 21.1591C180.11 21.1591 179.475 20.9967 178.942 20.6719C178.411 20.3438 178.002 19.8864 177.714 19.2997C177.429 18.7098 177.286 18.0237 177.286 17.2415C177.286 16.4593 177.429 15.7699 177.714 15.1733C178.002 14.5734 178.403 14.1061 178.917 13.7713C179.434 13.4332 180.037 13.2642 180.727 13.2642C181.124 13.2642 181.517 13.3305 181.905 13.4631C182.293 13.5956 182.646 13.8111 182.964 14.1094C183.282 14.4044 183.536 14.7955 183.724 15.2827C183.913 15.7699 184.008 16.3698 184.008 17.0824V17.5795H178.121V16.5653H182.815C182.815 16.1345 182.728 15.75 182.556 15.4119C182.387 15.0739 182.145 14.8071 181.83 14.6115C181.519 14.416 181.151 14.3182 180.727 14.3182C180.259 14.3182 179.855 14.4342 179.513 14.6662C179.175 14.8949 178.915 15.1932 178.733 15.5611C178.551 15.929 178.46 16.3234 178.46 16.7443V17.4205C178.46 17.9972 178.559 18.486 178.758 18.8871C178.96 19.2848 179.24 19.5881 179.598 19.7969C179.956 20.0024 180.372 20.1051 180.846 20.1051C181.154 20.1051 181.433 20.062 181.681 19.9759C181.933 19.8864 182.15 19.7538 182.332 19.5781C182.515 19.3991 182.656 19.1771 182.755 18.9119L183.888 19.2301C183.769 19.6146 183.569 19.9527 183.287 20.2443C183.005 20.5327 182.657 20.758 182.243 20.9205C181.829 21.0795 181.363 21.1591 180.846 21.1591ZM186.966 16.4062V21H185.793V13.3636H186.926V14.5568H187.026C187.205 14.169 187.476 13.8575 187.841 13.6222C188.205 13.3835 188.676 13.2642 189.253 13.2642C189.77 13.2642 190.222 13.3703 190.61 13.5824C190.998 13.7912 191.299 14.1094 191.515 14.5369C191.73 14.9612 191.838 15.4981 191.838 16.1477V21H190.665V16.2273C190.665 15.6274 190.509 15.16 190.197 14.8253C189.886 14.4872 189.458 14.3182 188.915 14.3182C188.54 14.3182 188.205 14.3994 187.911 14.5618C187.619 14.7242 187.388 14.9612 187.219 15.2727C187.05 15.5843 186.966 15.9621 186.966 16.4062ZM197.084 21.1591C196.368 21.1591 195.752 20.9901 195.235 20.652C194.718 20.3139 194.32 19.8482 194.042 19.255C193.763 18.6617 193.624 17.9839 193.624 17.2216C193.624 16.446 193.767 15.7616 194.052 15.1683C194.34 14.5717 194.741 14.1061 195.255 13.7713C195.772 13.4332 196.375 13.2642 197.064 13.2642C197.601 13.2642 198.085 13.3636 198.516 13.5625C198.947 13.7614 199.3 14.0398 199.575 14.3977C199.85 14.7557 200.021 15.1733 200.087 15.6506H198.914C198.824 15.3026 198.626 14.9943 198.317 14.7259C198.012 14.4541 197.601 14.3182 197.084 14.3182C196.627 14.3182 196.226 14.4375 195.881 14.6761C195.54 14.9115 195.273 15.2446 195.081 15.6754C194.892 16.103 194.797 16.6051 194.797 17.1818C194.797 17.7718 194.89 18.2855 195.076 18.723C195.265 19.1605 195.53 19.5002 195.871 19.7422C196.216 19.9841 196.62 20.1051 197.084 20.1051C197.389 20.1051 197.666 20.0521 197.915 19.946C198.163 19.84 198.374 19.6875 198.546 19.4886C198.718 19.2898 198.841 19.0511 198.914 18.7727H200.087C200.021 19.2235 199.857 19.6295 199.595 19.9908C199.336 20.3487 198.993 20.6338 198.566 20.8459C198.142 21.0547 197.648 21.1591 197.084 21.1591ZM205.004 21.1591C204.268 21.1591 203.634 20.9967 203.1 20.6719C202.57 20.3438 202.16 19.8864 201.872 19.2997C201.587 18.7098 201.444 18.0237 201.444 17.2415C201.444 16.4593 201.587 15.7699 201.872 15.1733C202.16 14.5734 202.561 14.1061 203.075 13.7713C203.592 13.4332 204.195 13.2642 204.885 13.2642C205.282 13.2642 205.675 13.3305 206.063 13.4631C206.451 13.5956 206.804 13.8111 207.122 14.1094C207.44 14.4044 207.694 14.7955 207.883 15.2827C208.072 15.7699 208.166 16.3698 208.166 17.0824V17.5795H202.28V16.5653H206.973C206.973 16.1345 206.887 15.75 206.714 15.4119C206.545 15.0739 206.303 14.8071 205.988 14.6115C205.677 14.416 205.309 14.3182 204.885 14.3182C204.417 14.3182 204.013 14.4342 203.672 14.6662C203.334 14.8949 203.073 15.1932 202.891 15.5611C202.709 15.929 202.618 16.3234 202.618 16.7443V17.4205C202.618 17.9972 202.717 18.486 202.916 18.8871C203.118 19.2848 203.398 19.5881 203.756 19.7969C204.114 20.0024 204.53 20.1051 205.004 20.1051C205.312 20.1051 205.591 20.062 205.839 19.9759C206.091 19.8864 206.308 19.7538 206.491 19.5781C206.673 19.3991 206.814 19.1771 206.913 18.9119L208.047 19.2301C207.927 19.6146 207.727 19.9527 207.445 20.2443C207.163 20.5327 206.815 20.758 206.401 20.9205C205.987 21.0795 205.521 21.1591 205.004 21.1591Z" fill="#545454"/>
<rect x="145" y="1" width="76" height="31" rx="3.5" stroke="#AFAFAF"/>
</svg>
