<svg width="300" height="32" viewBox="0 0 300 32" fill="none" xmlns="http://www.w3.org/2000/svg">
<rect x="1" y="0.5" width="298" height="31" rx="3.5" fill="#F0F6FE"/>
<path d="M22.3239 15.9091C22.3239 16.983 22.13 17.911 21.7422 18.6932C21.3544 19.4754 20.8224 20.0786 20.1463 20.5028C19.4702 20.9271 18.6979 21.1392 17.8295 21.1392C16.9612 21.1392 16.1889 20.9271 15.5128 20.5028C14.8366 20.0786 14.3047 19.4754 13.9169 18.6932C13.5291 17.911 13.3352 16.983 13.3352 15.9091C13.3352 14.8352 13.5291 13.9072 13.9169 13.125C14.3047 12.3428 14.8366 11.7396 15.5128 11.3153C16.1889 10.8911 16.9612 10.679 17.8295 10.679C18.6979 10.679 19.4702 10.8911 20.1463 11.3153C20.8224 11.7396 21.3544 12.3428 21.7422 13.125C22.13 13.9072 22.3239 14.8352 22.3239 15.9091ZM21.1307 15.9091C21.1307 15.0275 20.9832 14.2834 20.6882 13.6768C20.3965 13.0703 20.0005 12.6113 19.5 12.2997C19.0028 11.9882 18.446 11.8324 17.8295 11.8324C17.2131 11.8324 16.6546 11.9882 16.1541 12.2997C15.657 12.6113 15.2609 13.0703 14.9659 13.6768C14.6742 14.2834 14.5284 15.0275 14.5284 15.9091C14.5284 16.7907 14.6742 17.5348 14.9659 18.1413C15.2609 18.7479 15.657 19.2069 16.1541 19.5185C16.6546 19.83 17.2131 19.9858 17.8295 19.9858C18.446 19.9858 19.0028 19.83 19.5 19.5185C20.0005 19.2069 20.3965 18.7479 20.6882 18.1413C20.9832 17.5348 21.1307 16.7907 21.1307 15.9091ZM24.2379 21V13.3636H25.3714V14.517H25.451C25.5902 14.1392 25.8421 13.8326 26.2067 13.5973C26.5713 13.362 26.9822 13.2443 27.4396 13.2443C27.5258 13.2443 27.6335 13.246 27.7628 13.2493C27.892 13.2526 27.9898 13.2576 28.0561 13.2642V14.4574C28.0163 14.4474 27.9252 14.4325 27.7827 14.4126C27.6435 14.3894 27.496 14.3778 27.3402 14.3778C26.969 14.3778 26.6375 14.4557 26.3459 14.6115C26.0575 14.764 25.8288 14.9761 25.6598 15.2479C25.4941 15.5163 25.4112 15.8229 25.4112 16.1676V21H24.2379ZM32.098 21.1591C31.4616 21.1591 30.8999 20.9983 30.4126 20.6768C29.9254 20.352 29.5443 19.8946 29.2692 19.3047C28.9941 18.7114 28.8565 18.0104 28.8565 17.2017C28.8565 16.3996 28.9941 15.7036 29.2692 15.1136C29.5443 14.5237 29.9271 14.0679 30.4176 13.7464C30.9081 13.425 31.4749 13.2642 32.1179 13.2642C32.6151 13.2642 33.0078 13.3471 33.2962 13.5128C33.5878 13.6752 33.8099 13.8608 33.9624 14.0696C34.1181 14.2751 34.2391 14.4441 34.3253 14.5767H34.4247V10.8182H35.598V21H34.4645V19.8267H34.3253C34.2391 19.9659 34.1165 20.1416 33.9574 20.3537C33.7983 20.5625 33.5713 20.7498 33.2763 20.9155C32.9813 21.0779 32.5885 21.1591 32.098 21.1591ZM32.2571 20.1051C32.7277 20.1051 33.1255 19.9825 33.4503 19.7372C33.7751 19.4886 34.022 19.1456 34.1911 18.7081C34.3601 18.2673 34.4446 17.7585 34.4446 17.1818C34.4446 16.6117 34.3617 16.1129 34.196 15.6854C34.0303 15.2545 33.785 14.9197 33.4602 14.6811C33.1354 14.4392 32.7344 14.3182 32.2571 14.3182C31.7599 14.3182 31.3456 14.4458 31.0142 14.701C30.6861 14.9529 30.4392 15.2959 30.2734 15.7301C30.111 16.161 30.0298 16.6449 30.0298 17.1818C30.0298 17.7254 30.1127 18.2192 30.2784 18.6634C30.4474 19.1042 30.696 19.4555 31.0241 19.7173C31.3556 19.9759 31.7666 20.1051 32.2571 20.1051ZM41.1115 21.1591C40.3757 21.1591 39.741 20.9967 39.2074 20.6719C38.6771 20.3438 38.2678 19.8864 37.9794 19.2997C37.6944 18.7098 37.5518 18.0237 37.5518 17.2415C37.5518 16.4593 37.6944 15.7699 37.9794 15.1733C38.2678 14.5734 38.6688 14.1061 39.1825 13.7713C39.6996 13.4332 40.3028 13.2642 40.9922 13.2642C41.3899 13.2642 41.7827 13.3305 42.1705 13.4631C42.5582 13.5956 42.9112 13.8111 43.2294 14.1094C43.5476 14.4044 43.8011 14.7955 43.9901 15.2827C44.179 15.7699 44.2734 16.3698 44.2734 17.0824V17.5795H38.3871V16.5653H43.0803C43.0803 16.1345 42.9941 15.75 42.8217 15.4119C42.6527 15.0739 42.4107 14.8071 42.0959 14.6115C41.7843 14.416 41.4164 14.3182 40.9922 14.3182C40.5249 14.3182 40.1205 14.4342 39.7791 14.6662C39.4411 14.8949 39.1809 15.1932 38.9986 15.5611C38.8163 15.929 38.7251 16.3234 38.7251 16.7443V17.4205C38.7251 17.9972 38.8246 18.486 39.0234 18.8871C39.2256 19.2848 39.5057 19.5881 39.8636 19.7969C40.2216 20.0024 40.6375 20.1051 41.1115 20.1051C41.4197 20.1051 41.6982 20.062 41.9467 19.9759C42.1986 19.8864 42.4157 19.7538 42.598 19.5781C42.7803 19.3991 42.9212 19.1771 43.0206 18.9119L44.1541 19.2301C44.0348 19.6146 43.8343 19.9527 43.5526 20.2443C43.2708 20.5327 42.9228 20.758 42.5085 20.9205C42.0942 21.0795 41.6286 21.1591 41.1115 21.1591ZM46.0582 21V13.3636H47.1918V14.517H47.2713C47.4105 14.1392 47.6624 13.8326 48.027 13.5973C48.3916 13.362 48.8026 13.2443 49.2599 13.2443C49.3461 13.2443 49.4538 13.246 49.5831 13.2493C49.7124 13.2526 49.8101 13.2576 49.8764 13.2642V14.4574C49.8366 14.4474 49.7455 14.4325 49.603 14.4126C49.4638 14.3894 49.3163 14.3778 49.1605 14.3778C48.7893 14.3778 48.4579 14.4557 48.1662 14.6115C47.8778 14.764 47.6491 14.9761 47.4801 15.2479C47.3144 15.5163 47.2315 15.8229 47.2315 16.1676V21H46.0582ZM57.4519 21.179C56.968 21.179 56.5288 21.0878 56.1344 20.9055C55.74 20.7199 55.4268 20.4531 55.1948 20.1051C54.9628 19.7538 54.8468 19.3295 54.8468 18.8324C54.8468 18.3949 54.9329 18.0402 55.1053 17.7685C55.2776 17.4934 55.508 17.2779 55.7963 17.1222C56.0847 16.9664 56.4029 16.8504 56.7509 16.7741C57.1022 16.6946 57.4552 16.6316 57.8098 16.5852C58.2739 16.5256 58.65 16.4808 58.9384 16.451C59.2301 16.4179 59.4422 16.3632 59.5748 16.2869C59.7106 16.2107 59.7786 16.0781 59.7786 15.8892V15.8494C59.7786 15.3589 59.6444 14.9777 59.3759 14.706C59.1107 14.4342 58.708 14.2983 58.1678 14.2983C57.6077 14.2983 57.1685 14.4209 56.8503 14.6662C56.5321 14.9115 56.3084 15.1733 56.1792 15.4517L55.0655 15.054C55.2644 14.59 55.5295 14.2287 55.861 13.9702C56.1957 13.7083 56.5603 13.526 56.9547 13.4233C57.3525 13.3172 57.7435 13.2642 58.128 13.2642C58.3733 13.2642 58.655 13.294 58.9732 13.3537C59.2947 13.41 59.6046 13.5277 59.9029 13.7067C60.2045 13.8857 60.4547 14.1558 60.6536 14.517C60.8525 14.8783 60.9519 15.3622 60.9519 15.9688V21H59.7786V19.9659H59.7189C59.6394 20.1316 59.5068 20.3089 59.3212 20.4979C59.1356 20.6868 58.8887 20.8475 58.5804 20.9801C58.2722 21.1127 57.896 21.179 57.4519 21.179ZM57.6309 20.125C58.0949 20.125 58.486 20.0339 58.8042 19.8516C59.1257 19.6693 59.3676 19.4339 59.53 19.1456C59.6957 18.8572 59.7786 18.554 59.7786 18.2358V17.1619C59.7289 17.2216 59.6195 17.2763 59.4505 17.326C59.2847 17.3724 59.0925 17.4138 58.8738 17.4503C58.6583 17.4834 58.4479 17.5133 58.2424 17.5398C58.0402 17.563 57.8761 17.5829 57.7502 17.5994C57.4453 17.6392 57.1602 17.7038 56.8951 17.7933C56.6332 17.8795 56.4211 18.0104 56.2587 18.1861C56.0996 18.3584 56.0201 18.5937 56.0201 18.892C56.0201 19.2997 56.1709 19.608 56.4725 19.8168C56.7774 20.0223 57.1635 20.125 57.6309 20.125ZM64.2667 16.4062V21H63.0934V13.3636H64.2269V14.5568H64.3263C64.5053 14.169 64.7771 13.8575 65.1417 13.6222C65.5063 13.3835 65.9769 13.2642 66.5536 13.2642C67.0707 13.2642 67.5231 13.3703 67.9109 13.5824C68.2987 13.7912 68.6003 14.1094 68.8157 14.5369C69.0311 14.9612 69.1388 15.4981 69.1388 16.1477V21H67.9656V16.2273C67.9656 15.6274 67.8098 15.16 67.4982 14.8253C67.1867 14.4872 66.7591 14.3182 66.2156 14.3182C65.841 14.3182 65.5063 14.3994 65.2113 14.5618C64.9196 14.7242 64.6893 14.9612 64.5202 15.2727C64.3512 15.5843 64.2667 15.9621 64.2667 16.4062ZM74.1664 21.1591C73.53 21.1591 72.9682 20.9983 72.481 20.6768C71.9938 20.352 71.6126 19.8946 71.3375 19.3047C71.0624 18.7114 70.9249 18.0104 70.9249 17.2017C70.9249 16.3996 71.0624 15.7036 71.3375 15.1136C71.6126 14.5237 71.9954 14.0679 72.486 13.7464C72.9765 13.425 73.5433 13.2642 74.1863 13.2642C74.6834 13.2642 75.0762 13.3471 75.3645 13.5128C75.6562 13.6752 75.8783 13.8608 76.0307 14.0696C76.1865 14.2751 76.3075 14.4441 76.3936 14.5767H76.4931V10.8182H77.6664V21H76.5328V19.8267H76.3936C76.3075 19.9659 76.1848 20.1416 76.0257 20.3537C75.8667 20.5625 75.6396 20.7498 75.3446 20.9155C75.0497 21.0779 74.6569 21.1591 74.1664 21.1591ZM74.3255 20.1051C74.7961 20.1051 75.1938 19.9825 75.5186 19.7372C75.8435 19.4886 76.0904 19.1456 76.2594 18.7081C76.4284 18.2673 76.513 17.7585 76.513 17.1818C76.513 16.6117 76.4301 16.1129 76.2644 15.6854C76.0987 15.2545 75.8534 14.9197 75.5286 14.6811C75.2038 14.4392 74.8027 14.3182 74.3255 14.3182C73.8283 14.3182 73.414 14.4458 73.0826 14.701C72.7544 14.9529 72.5075 15.2959 72.3418 15.7301C72.1794 16.161 72.0982 16.6449 72.0982 17.1818C72.0982 17.7254 72.181 18.2192 72.3468 18.6634C72.5158 19.1042 72.7644 19.4555 73.0925 19.7173C73.4239 19.9759 73.8349 20.1051 74.3255 20.1051ZM92.2679 14H91.035C90.9621 13.6454 90.8345 13.3338 90.6522 13.0653C90.4732 12.7969 90.2544 12.5715 89.9959 12.3892C89.7407 12.2036 89.4573 12.0644 89.1458 11.9716C88.8342 11.8788 88.5094 11.8324 88.1713 11.8324C87.5549 11.8324 86.9964 11.9882 86.4959 12.2997C85.9988 12.6113 85.6027 13.0703 85.3077 13.6768C85.016 14.2834 84.8702 15.0275 84.8702 15.9091C84.8702 16.7907 85.016 17.5348 85.3077 18.1413C85.6027 18.7479 85.9988 19.2069 86.4959 19.5185C86.9964 19.83 87.5549 19.9858 88.1713 19.9858C88.5094 19.9858 88.8342 19.9394 89.1458 19.8466C89.4573 19.7538 89.7407 19.6162 89.9959 19.4339C90.2544 19.2483 90.4732 19.0213 90.6522 18.7528C90.8345 18.4811 90.9621 18.1695 91.035 17.8182H92.2679C92.1751 18.3385 92.0061 18.8042 91.7608 19.2152C91.5156 19.6262 91.2106 19.9759 90.8461 20.2642C90.4815 20.5492 90.0721 20.7663 89.6181 20.9155C89.1673 21.0646 88.6851 21.1392 88.1713 21.1392C87.303 21.1392 86.5307 20.9271 85.8546 20.5028C85.1784 20.0786 84.6465 19.4754 84.2587 18.6932C83.8709 17.911 83.677 16.983 83.677 15.9091C83.677 14.8352 83.8709 13.9072 84.2587 13.125C84.6465 12.3428 85.1784 11.7396 85.8546 11.3153C86.5307 10.8911 87.303 10.679 88.1713 10.679C88.6851 10.679 89.1673 10.7536 89.6181 10.9027C90.0721 11.0518 90.4815 11.2706 90.8461 11.5589C91.2106 11.844 91.5156 12.192 91.7608 12.603C92.0061 13.0107 92.1751 13.4763 92.2679 14ZM97.2035 21.1591C96.5141 21.1591 95.9092 20.995 95.3888 20.6669C94.8718 20.3388 94.4674 19.8797 94.1758 19.2898C93.8874 18.6998 93.7433 18.0104 93.7433 17.2216C93.7433 16.4261 93.8874 15.7318 94.1758 15.1385C94.4674 14.5452 94.8718 14.0845 95.3888 13.7564C95.9092 13.4283 96.5141 13.2642 97.2035 13.2642C97.8929 13.2642 98.4961 13.4283 99.0131 13.7564C99.5335 14.0845 99.9379 14.5452 100.226 15.1385C100.518 15.7318 100.664 16.4261 100.664 17.2216C100.664 18.0104 100.518 18.6998 100.226 19.2898C99.9379 19.8797 99.5335 20.3388 99.0131 20.6669C98.4961 20.995 97.8929 21.1591 97.2035 21.1591ZM97.2035 20.1051C97.7272 20.1051 98.158 19.9709 98.4961 19.7024C98.8342 19.4339 99.0844 19.081 99.2468 18.6435C99.4092 18.206 99.4904 17.732 99.4904 17.2216C99.4904 16.7112 99.4092 16.2356 99.2468 15.7947C99.0844 15.3539 98.8342 14.9976 98.4961 14.7259C98.158 14.4541 97.7272 14.3182 97.2035 14.3182C96.6798 14.3182 96.2489 14.4541 95.9109 14.7259C95.5728 14.9976 95.3226 15.3539 95.1602 15.7947C94.9978 16.2356 94.9165 16.7112 94.9165 17.2216C94.9165 17.732 94.9978 18.206 95.1602 18.6435C95.3226 19.081 95.5728 19.4339 95.9109 19.7024C96.2489 19.9709 96.6798 20.1051 97.2035 20.1051ZM102.455 21V13.3636H103.588V14.5568H103.688C103.847 14.1491 104.104 13.8326 104.458 13.6072C104.813 13.3786 105.239 13.2642 105.736 13.2642C106.24 13.2642 106.659 13.3786 106.994 13.6072C107.332 13.8326 107.595 14.1491 107.784 14.5568H107.864C108.059 14.1624 108.353 13.8492 108.744 13.6172C109.135 13.3819 109.604 13.2642 110.151 13.2642C110.834 13.2642 111.392 13.478 111.826 13.9055C112.26 14.3298 112.477 14.991 112.477 15.8892V21H111.304V15.8892C111.304 15.3258 111.15 14.9231 110.842 14.6811C110.534 14.4392 110.171 14.3182 109.753 14.3182C109.216 14.3182 108.8 14.4806 108.505 14.8054C108.21 15.1269 108.063 15.5346 108.063 16.0284V21H106.869V15.7699C106.869 15.3357 106.729 14.986 106.447 14.7209C106.165 14.4524 105.802 14.3182 105.358 14.3182C105.053 14.3182 104.768 14.3994 104.503 14.5618C104.241 14.7242 104.029 14.9496 103.867 15.2379C103.708 15.523 103.628 15.8527 103.628 16.2273V21H102.455ZM114.623 23.8636V13.3636H115.756V14.5767H115.895C115.982 14.4441 116.101 14.2751 116.253 14.0696C116.409 13.8608 116.631 13.6752 116.92 13.5128C117.211 13.3471 117.606 13.2642 118.103 13.2642C118.746 13.2642 119.313 13.425 119.803 13.7464C120.294 14.0679 120.676 14.5237 120.952 15.1136C121.227 15.7036 121.364 16.3996 121.364 17.2017C121.364 18.0104 121.227 18.7114 120.952 19.3047C120.676 19.8946 120.295 20.352 119.808 20.6768C119.321 20.9983 118.759 21.1591 118.123 21.1591C117.632 21.1591 117.239 21.0779 116.944 20.9155C116.649 20.7498 116.422 20.5625 116.263 20.3537C116.104 20.1416 115.982 19.9659 115.895 19.8267H115.796V23.8636H114.623ZM115.776 17.1818C115.776 17.7585 115.861 18.2673 116.03 18.7081C116.199 19.1456 116.446 19.4886 116.77 19.7372C117.095 19.9825 117.493 20.1051 117.964 20.1051C118.454 20.1051 118.863 19.9759 119.192 19.7173C119.523 19.4555 119.772 19.1042 119.937 18.6634C120.106 18.2192 120.191 17.7254 120.191 17.1818C120.191 16.6449 120.108 16.161 119.942 15.7301C119.78 15.2959 119.533 14.9529 119.202 14.701C118.873 14.4458 118.461 14.3182 117.964 14.3182C117.486 14.3182 117.085 14.4392 116.76 14.6811C116.436 14.9197 116.19 15.2545 116.025 15.6854C115.859 16.1129 115.776 16.6117 115.776 17.1818ZM125.401 21.179C124.917 21.179 124.478 21.0878 124.084 20.9055C123.689 20.7199 123.376 20.4531 123.144 20.1051C122.912 19.7538 122.796 19.3295 122.796 18.8324C122.796 18.3949 122.882 18.0402 123.055 17.7685C123.227 17.4934 123.457 17.2779 123.746 17.1222C124.034 16.9664 124.352 16.8504 124.7 16.7741C125.051 16.6946 125.404 16.6316 125.759 16.5852C126.223 16.5256 126.599 16.4808 126.888 16.451C127.179 16.4179 127.391 16.3632 127.524 16.2869C127.66 16.2107 127.728 16.0781 127.728 15.8892V15.8494C127.728 15.3589 127.594 14.9777 127.325 14.706C127.06 14.4342 126.657 14.2983 126.117 14.2983C125.557 14.2983 125.118 14.4209 124.8 14.6662C124.481 14.9115 124.258 15.1733 124.128 15.4517L123.015 15.054C123.214 14.59 123.479 14.2287 123.81 13.9702C124.145 13.7083 124.51 13.526 124.904 13.4233C125.302 13.3172 125.693 13.2642 126.077 13.2642C126.323 13.2642 126.604 13.294 126.922 13.3537C127.244 13.41 127.554 13.5277 127.852 13.7067C128.154 13.8857 128.404 14.1558 128.603 14.517C128.802 14.8783 128.901 15.3622 128.901 15.9688V21H127.728V19.9659H127.668C127.589 20.1316 127.456 20.3089 127.27 20.4979C127.085 20.6868 126.838 20.8475 126.53 20.9801C126.221 21.1127 125.845 21.179 125.401 21.179ZM125.58 20.125C126.044 20.125 126.435 20.0339 126.753 19.8516C127.075 19.6693 127.317 19.4339 127.479 19.1456C127.645 18.8572 127.728 18.554 127.728 18.2358V17.1619C127.678 17.2216 127.569 17.2763 127.4 17.326C127.234 17.3724 127.042 17.4138 126.823 17.4503C126.608 17.4834 126.397 17.5133 126.192 17.5398C125.989 17.563 125.825 17.5829 125.699 17.5994C125.394 17.6392 125.109 17.7038 124.844 17.7933C124.582 17.8795 124.37 18.0104 124.208 18.1861C124.049 18.3584 123.969 18.5937 123.969 18.892C123.969 19.2997 124.12 19.608 124.422 19.8168C124.727 20.0223 125.113 20.125 125.58 20.125ZM131.043 21V13.3636H132.176V14.517H132.256C132.395 14.1392 132.647 13.8326 133.011 13.5973C133.376 13.362 133.787 13.2443 134.244 13.2443C134.33 13.2443 134.438 13.246 134.567 13.2493C134.697 13.2526 134.795 13.2576 134.861 13.2642V14.4574C134.821 14.4474 134.73 14.4325 134.587 14.4126C134.448 14.3894 134.301 14.3778 134.145 14.3778C133.774 14.3778 133.442 14.4557 133.151 14.6115C132.862 14.764 132.634 14.9761 132.464 15.2479C132.299 15.5163 132.216 15.8229 132.216 16.1676V21H131.043ZM139.221 21.1591C138.485 21.1591 137.85 20.9967 137.317 20.6719C136.786 20.3438 136.377 19.8864 136.089 19.2997C135.804 18.7098 135.661 18.0237 135.661 17.2415C135.661 16.4593 135.804 15.7699 136.089 15.1733C136.377 14.5734 136.778 14.1061 137.292 13.7713C137.809 13.4332 138.412 13.2642 139.102 13.2642C139.499 13.2642 139.892 13.3305 140.28 13.4631C140.668 13.5956 141.021 13.8111 141.339 14.1094C141.657 14.4044 141.911 14.7955 142.099 15.2827C142.288 15.7699 142.383 16.3698 142.383 17.0824V17.5795H136.496V16.5653H141.19C141.19 16.1345 141.103 15.75 140.931 15.4119C140.762 15.0739 140.52 14.8071 140.205 14.6115C139.894 14.416 139.526 14.3182 139.102 14.3182C138.634 14.3182 138.23 14.4342 137.888 14.6662C137.55 14.8949 137.29 15.1932 137.108 15.5611C136.926 15.929 136.835 16.3234 136.835 16.7443V17.4205C136.835 17.9972 136.934 18.486 137.133 18.8871C137.335 19.2848 137.615 19.5881 137.973 19.7969C138.331 20.0024 138.747 20.1051 139.221 20.1051C139.529 20.1051 139.808 20.062 140.056 19.9759C140.308 19.8864 140.525 19.7538 140.707 19.5781C140.89 19.3991 141.031 19.1771 141.13 18.9119L142.263 19.2301C142.144 19.6146 141.944 19.9527 141.662 20.2443C141.38 20.5327 141.032 20.758 140.618 20.9205C140.204 21.0795 139.738 21.1591 139.221 21.1591ZM148.264 21V10.8182H151.705C152.503 10.8182 153.156 10.9624 153.663 11.2507C154.174 11.5357 154.552 11.9219 154.797 12.4091C155.042 12.8963 155.165 13.4399 155.165 14.0398C155.165 14.6397 155.042 15.1849 154.797 15.6754C154.555 16.166 154.18 16.5571 153.673 16.8487C153.166 17.1371 152.517 17.2812 151.724 17.2812H149.259V16.1875H151.685C152.232 16.1875 152.671 16.093 153.002 15.9041C153.334 15.7152 153.574 15.46 153.723 15.1385C153.875 14.8137 153.952 14.4474 153.952 14.0398C153.952 13.6321 153.875 13.2675 153.723 12.946C153.574 12.6245 153.332 12.3726 152.997 12.1903C152.662 12.0047 152.218 11.9119 151.665 11.9119H149.497V21H148.264ZM160.112 21.1591C159.376 21.1591 158.741 20.9967 158.207 20.6719C157.677 20.3438 157.268 19.8864 156.979 19.2997C156.694 18.7098 156.552 18.0237 156.552 17.2415C156.552 16.4593 156.694 15.7699 156.979 15.1733C157.268 14.5734 157.669 14.1061 158.183 13.7713C158.7 13.4332 159.303 13.2642 159.992 13.2642C160.39 13.2642 160.783 13.3305 161.17 13.4631C161.558 13.5956 161.911 13.8111 162.229 14.1094C162.548 14.4044 162.801 14.7955 162.99 15.2827C163.179 15.7699 163.273 16.3698 163.273 17.0824V17.5795H157.387V16.5653H162.08C162.08 16.1345 161.994 15.75 161.822 15.4119C161.653 15.0739 161.411 14.8071 161.096 14.6115C160.784 14.416 160.416 14.3182 159.992 14.3182C159.525 14.3182 159.121 14.4342 158.779 14.6662C158.441 14.8949 158.181 15.1932 157.999 15.5611C157.816 15.929 157.725 16.3234 157.725 16.7443V17.4205C157.725 17.9972 157.825 18.486 158.023 18.8871C158.226 19.2848 158.506 19.5881 158.864 19.7969C159.222 20.0024 159.638 20.1051 160.112 20.1051C160.42 20.1051 160.698 20.062 160.947 19.9759C161.199 19.8864 161.416 19.7538 161.598 19.5781C161.78 19.3991 161.921 19.1771 162.021 18.9119L163.154 19.2301C163.035 19.6146 162.834 19.9527 162.553 20.2443C162.271 20.5327 161.923 20.758 161.509 20.9205C161.094 21.0795 160.629 21.1591 160.112 21.1591ZM165.058 21V13.3636H166.192V14.517H166.271C166.411 14.1392 166.662 13.8326 167.027 13.5973C167.392 13.362 167.803 13.2443 168.26 13.2443C168.346 13.2443 168.454 13.246 168.583 13.2493C168.712 13.2526 168.81 13.2576 168.876 13.2642V14.4574C168.837 14.4474 168.746 14.4325 168.603 14.4126C168.464 14.3894 168.316 14.3778 168.161 14.3778C167.789 14.3778 167.458 14.4557 167.166 14.6115C166.878 14.764 166.649 14.9761 166.48 15.2479C166.314 15.5163 166.232 15.8229 166.232 16.1676V21H165.058ZM173.137 21.1591C172.421 21.1591 171.805 20.9901 171.288 20.652C170.771 20.3139 170.373 19.8482 170.094 19.255C169.816 18.6617 169.677 17.9839 169.677 17.2216C169.677 16.446 169.819 15.7616 170.104 15.1683C170.393 14.5717 170.794 14.1061 171.308 13.7713C171.825 13.4332 172.428 13.2642 173.117 13.2642C173.654 13.2642 174.138 13.3636 174.569 13.5625C175 13.7614 175.353 14.0398 175.628 14.3977C175.903 14.7557 176.074 15.1733 176.14 15.6506H174.967C174.877 15.3026 174.678 14.9943 174.37 14.7259C174.065 14.4541 173.654 14.3182 173.137 14.3182C172.68 14.3182 172.279 14.4375 171.934 14.6761C171.593 14.9115 171.326 15.2446 171.134 15.6754C170.945 16.103 170.85 16.6051 170.85 17.1818C170.85 17.7718 170.943 18.2855 171.129 18.723C171.317 19.1605 171.583 19.5002 171.924 19.7422C172.269 19.9841 172.673 20.1051 173.137 20.1051C173.442 20.1051 173.719 20.0521 173.967 19.946C174.216 19.84 174.426 19.6875 174.599 19.4886C174.771 19.2898 174.894 19.0511 174.967 18.7727H176.14C176.074 19.2235 175.91 19.6295 175.648 19.9908C175.389 20.3487 175.046 20.6338 174.619 20.8459C174.194 21.0547 173.701 21.1591 173.137 21.1591ZM181.057 21.1591C180.321 21.1591 179.686 20.9967 179.153 20.6719C178.622 20.3438 178.213 19.8864 177.925 19.2997C177.64 18.7098 177.497 18.0237 177.497 17.2415C177.497 16.4593 177.64 15.7699 177.925 15.1733C178.213 14.5734 178.614 14.1061 179.128 13.7713C179.645 13.4332 180.248 13.2642 180.938 13.2642C181.335 13.2642 181.728 13.3305 182.116 13.4631C182.504 13.5956 182.857 13.8111 183.175 14.1094C183.493 14.4044 183.746 14.7955 183.935 15.2827C184.124 15.7699 184.219 16.3698 184.219 17.0824V17.5795H178.332V16.5653H183.026C183.026 16.1345 182.939 15.75 182.767 15.4119C182.598 15.0739 182.356 14.8071 182.041 14.6115C181.73 14.416 181.362 14.3182 180.938 14.3182C180.47 14.3182 180.066 14.4342 179.724 14.6662C179.386 14.8949 179.126 15.1932 178.944 15.5611C178.762 15.929 178.67 16.3234 178.67 16.7443V17.4205C178.67 17.9972 178.77 18.486 178.969 18.8871C179.171 19.2848 179.451 19.5881 179.809 19.7969C180.167 20.0024 180.583 20.1051 181.057 20.1051C181.365 20.1051 181.643 20.062 181.892 19.9759C182.144 19.8864 182.361 19.7538 182.543 19.5781C182.726 19.3991 182.866 19.1771 182.966 18.9119L184.099 19.2301C183.98 19.6146 183.78 19.9527 183.498 20.2443C183.216 20.5327 182.868 20.758 182.454 20.9205C182.04 21.0795 181.574 21.1591 181.057 21.1591ZM187.177 16.4062V21H186.004V13.3636H187.137V14.5568H187.237C187.415 14.169 187.687 13.8575 188.052 13.6222C188.416 13.3835 188.887 13.2642 189.464 13.2642C189.981 13.2642 190.433 13.3703 190.821 13.5824C191.209 13.7912 191.51 14.1094 191.726 14.5369C191.941 14.9612 192.049 15.4981 192.049 16.1477V21H190.876V16.2273C190.876 15.6274 190.72 15.16 190.408 14.8253C190.097 14.4872 189.669 14.3182 189.126 14.3182C188.751 14.3182 188.416 14.3994 188.121 14.5618C187.83 14.7242 187.599 14.9612 187.43 15.2727C187.261 15.5843 187.177 15.9621 187.177 16.4062ZM197.514 13.3636V14.358H193.557V13.3636H197.514ZM194.71 11.5341H195.883V18.8125C195.883 19.1439 195.931 19.3925 196.028 19.5582C196.127 19.7206 196.253 19.83 196.405 19.8864C196.561 19.9394 196.725 19.9659 196.898 19.9659C197.027 19.9659 197.133 19.9593 197.216 19.946C197.299 19.9295 197.365 19.9162 197.415 19.9062L197.653 20.9602C197.574 20.9901 197.463 21.0199 197.32 21.0497C197.178 21.0829 196.997 21.0994 196.778 21.0994C196.447 21.0994 196.122 21.0282 195.804 20.8857C195.489 20.7431 195.227 20.526 195.018 20.2344C194.813 19.9427 194.71 19.5748 194.71 19.1307V11.5341ZM201.526 21.179C201.042 21.179 200.603 21.0878 200.209 20.9055C199.814 20.7199 199.501 20.4531 199.269 20.1051C199.037 19.7538 198.921 19.3295 198.921 18.8324C198.921 18.3949 199.007 18.0402 199.18 17.7685C199.352 17.4934 199.582 17.2779 199.871 17.1222C200.159 16.9664 200.477 16.8504 200.825 16.7741C201.176 16.6946 201.529 16.6316 201.884 16.5852C202.348 16.5256 202.724 16.4808 203.013 16.451C203.304 16.4179 203.516 16.3632 203.649 16.2869C203.785 16.2107 203.853 16.0781 203.853 15.8892V15.8494C203.853 15.3589 203.719 14.9777 203.45 14.706C203.185 14.4342 202.782 14.2983 202.242 14.2983C201.682 14.2983 201.243 14.4209 200.925 14.6662C200.606 14.9115 200.383 15.1733 200.253 15.4517L199.14 15.054C199.339 14.59 199.604 14.2287 199.935 13.9702C200.27 13.7083 200.635 13.526 201.029 13.4233C201.427 13.3172 201.818 13.2642 202.202 13.2642C202.448 13.2642 202.729 13.294 203.047 13.3537C203.369 13.41 203.679 13.5277 203.977 13.7067C204.279 13.8857 204.529 14.1558 204.728 14.517C204.927 14.8783 205.026 15.3622 205.026 15.9688V21H203.853V19.9659H203.793C203.714 20.1316 203.581 20.3089 203.395 20.4979C203.21 20.6868 202.963 20.8475 202.655 20.9801C202.346 21.1127 201.97 21.179 201.526 21.179ZM201.705 20.125C202.169 20.125 202.56 20.0339 202.878 19.8516C203.2 19.6693 203.442 19.4339 203.604 19.1456C203.77 18.8572 203.853 18.554 203.853 18.2358V17.1619C203.803 17.2216 203.694 17.2763 203.525 17.326C203.359 17.3724 203.167 17.4138 202.948 17.4503C202.733 17.4834 202.522 17.5133 202.317 17.5398C202.114 17.563 201.95 17.5829 201.824 17.5994C201.519 17.6392 201.234 17.7038 200.969 17.7933C200.707 17.8795 200.495 18.0104 200.333 18.1861C200.174 18.3584 200.094 18.5937 200.094 18.892C200.094 19.2997 200.245 19.608 200.547 19.8168C200.852 20.0223 201.238 20.125 201.705 20.125ZM208.341 16.4062V21H207.168V13.3636H208.301V14.5568H208.401C208.58 14.169 208.851 13.8575 209.216 13.6222C209.58 13.3835 210.051 13.2642 210.628 13.2642C211.145 13.2642 211.597 13.3703 211.985 13.5824C212.373 13.7912 212.674 14.1094 212.89 14.5369C213.105 14.9612 213.213 15.4981 213.213 16.1477V21H212.04V16.2273C212.04 15.6274 211.884 15.16 211.572 14.8253C211.261 14.4872 210.833 14.3182 210.29 14.3182C209.915 14.3182 209.58 14.3994 209.286 14.5618C208.994 14.7242 208.763 14.9612 208.594 15.2727C208.425 15.5843 208.341 15.9621 208.341 16.4062ZM218.439 24.0227C217.873 24.0227 217.385 23.9498 216.978 23.804C216.57 23.6615 216.23 23.4725 215.959 23.2372C215.69 23.0052 215.476 22.7566 215.317 22.4915L216.252 21.8352C216.358 21.9744 216.492 22.1335 216.655 22.3125C216.817 22.4948 217.039 22.6522 217.321 22.7848C217.606 22.9207 217.979 22.9886 218.439 22.9886C219.056 22.9886 219.565 22.8395 219.966 22.5412C220.367 22.2429 220.567 21.7756 220.567 21.1392V19.5881H220.468C220.382 19.7273 220.259 19.8996 220.1 20.1051C219.944 20.3073 219.719 20.4879 219.424 20.647C219.132 20.8028 218.738 20.8807 218.241 20.8807C217.624 20.8807 217.071 20.7348 216.58 20.4432C216.093 20.1515 215.707 19.7273 215.422 19.1705C215.14 18.6136 214.999 17.9375 214.999 17.142C214.999 16.3598 215.137 15.6787 215.412 15.0987C215.687 14.5154 216.07 14.0646 216.56 13.7464C217.051 13.425 217.617 13.2642 218.26 13.2642C218.758 13.2642 219.152 13.3471 219.444 13.5128C219.739 13.6752 219.964 13.8608 220.12 14.0696C220.279 14.2751 220.402 14.4441 220.488 14.5767H220.607V13.3636H221.741V21.2188C221.741 21.875 221.591 22.4086 221.293 22.8196C220.998 23.2339 220.6 23.5372 220.1 23.7294C219.603 23.925 219.049 24.0227 218.439 24.0227ZM218.4 19.8267C218.87 19.8267 219.268 19.719 219.593 19.5036C219.918 19.2881 220.165 18.9782 220.334 18.5739C220.503 18.1695 220.587 17.6856 220.587 17.1222C220.587 16.572 220.504 16.0864 220.339 15.6655C220.173 15.2446 219.928 14.9148 219.603 14.6761C219.278 14.4375 218.877 14.3182 218.4 14.3182C217.903 14.3182 217.488 14.4441 217.157 14.696C216.829 14.9479 216.582 15.286 216.416 15.7102C216.254 16.1345 216.172 16.6051 216.172 17.1222C216.172 17.6525 216.255 18.1214 216.421 18.5291C216.59 18.9335 216.839 19.2517 217.167 19.4837C217.498 19.7124 217.909 19.8267 218.4 19.8267ZM227.09 21.1591C226.354 21.1591 225.72 20.9967 225.186 20.6719C224.656 20.3438 224.246 19.8864 223.958 19.2997C223.673 18.7098 223.53 18.0237 223.53 17.2415C223.53 16.4593 223.673 15.7699 223.958 15.1733C224.246 14.5734 224.647 14.1061 225.161 13.7713C225.678 13.4332 226.281 13.2642 226.971 13.2642C227.368 13.2642 227.761 13.3305 228.149 13.4631C228.537 13.5956 228.89 13.8111 229.208 14.1094C229.526 14.4044 229.78 14.7955 229.969 15.2827C230.157 15.7699 230.252 16.3698 230.252 17.0824V17.5795H224.366V16.5653H229.059C229.059 16.1345 228.973 15.75 228.8 15.4119C228.631 15.0739 228.389 14.8071 228.074 14.6115C227.763 14.416 227.395 14.3182 226.971 14.3182C226.503 14.3182 226.099 14.4342 225.758 14.6662C225.42 14.8949 225.159 15.1932 224.977 15.5611C224.795 15.929 224.704 16.3234 224.704 16.7443V17.4205C224.704 17.9972 224.803 18.486 225.002 18.8871C225.204 19.2848 225.484 19.5881 225.842 19.7969C226.2 20.0024 226.616 20.1051 227.09 20.1051C227.398 20.1051 227.677 20.062 227.925 19.9759C228.177 19.8864 228.394 19.7538 228.577 19.5781C228.759 19.3991 228.9 19.1771 228.999 18.9119L230.133 19.2301C230.013 19.6146 229.813 19.9527 229.531 20.2443C229.249 20.5327 228.901 20.758 228.487 20.9205C228.073 21.0795 227.607 21.1591 227.09 21.1591ZM237.446 15.0739L236.392 15.3722C236.326 15.1965 236.228 15.0258 236.099 14.8601C235.973 14.6911 235.8 14.5518 235.581 14.4425C235.363 14.3331 235.083 14.2784 234.741 14.2784C234.274 14.2784 233.885 14.3861 233.573 14.6016C233.265 14.8137 233.111 15.0838 233.111 15.4119C233.111 15.7036 233.217 15.9339 233.429 16.103C233.641 16.272 233.972 16.4129 234.423 16.5256L235.557 16.804C236.239 16.9697 236.748 17.2232 237.083 17.5646C237.418 17.9027 237.585 18.3385 237.585 18.8722C237.585 19.3097 237.459 19.7008 237.207 20.0455C236.959 20.3902 236.611 20.6619 236.163 20.8608C235.716 21.0597 235.195 21.1591 234.602 21.1591C233.823 21.1591 233.179 20.9901 232.668 20.652C232.158 20.3139 231.835 19.8201 231.699 19.1705L232.812 18.892C232.918 19.303 233.119 19.6113 233.414 19.8168C233.712 20.0223 234.102 20.125 234.582 20.125C235.129 20.125 235.563 20.009 235.885 19.777C236.21 19.5417 236.372 19.2599 236.372 18.9318C236.372 18.6667 236.279 18.4446 236.094 18.2656C235.908 18.0833 235.623 17.9474 235.238 17.858L233.966 17.5597C233.266 17.3939 232.753 17.1371 232.425 16.7891C232.1 16.4377 231.937 15.9986 231.937 15.4716C231.937 15.0407 232.058 14.6596 232.3 14.3281C232.546 13.9967 232.879 13.7365 233.3 13.5476C233.724 13.3587 234.204 13.2642 234.741 13.2642C235.497 13.2642 236.09 13.4299 236.521 13.7614C236.955 14.0928 237.264 14.5303 237.446 15.0739ZM243.706 15.9091C243.706 14.6562 243.869 13.5045 244.194 12.4538C244.522 11.3999 244.989 10.4304 245.596 9.54545H246.63C246.391 9.87358 246.167 10.2779 245.958 10.7585C245.753 11.2358 245.572 11.7611 245.417 12.3345C245.261 12.9046 245.138 13.4946 245.049 14.1044C244.962 14.7143 244.919 15.3158 244.919 15.9091C244.919 16.6979 244.996 17.4983 245.148 18.3104C245.301 19.1224 245.506 19.8764 245.765 20.5724C246.023 21.2685 246.311 21.8352 246.63 22.2727H245.596C244.989 21.3878 244.522 20.42 244.194 19.3693C243.869 18.3153 243.706 17.1619 243.706 15.9091ZM248.52 21V10.8182H254.625V11.9119H249.753V15.3523H254.168V16.446H249.753V21H248.52ZM256.954 21.0795C256.709 21.0795 256.499 20.9917 256.323 20.8161C256.147 20.6404 256.059 20.4299 256.059 20.1847C256.059 19.9394 256.147 19.7289 256.323 19.5533C256.499 19.3776 256.709 19.2898 256.954 19.2898C257.2 19.2898 257.41 19.3776 257.586 19.5533C257.761 19.7289 257.849 19.9394 257.849 20.1847C257.849 20.3471 257.808 20.4962 257.725 20.6321C257.645 20.768 257.538 20.8774 257.402 20.9602C257.269 21.0398 257.12 21.0795 256.954 21.0795ZM260.81 21.0795C260.565 21.0795 260.354 20.9917 260.178 20.8161C260.003 20.6404 259.915 20.4299 259.915 20.1847C259.915 19.9394 260.003 19.7289 260.178 19.5533C260.354 19.3776 260.565 19.2898 260.81 19.2898C261.055 19.2898 261.266 19.3776 261.441 19.5533C261.617 19.7289 261.705 19.9394 261.705 20.1847C261.705 20.3471 261.663 20.4962 261.58 20.6321C261.501 20.768 261.393 20.8774 261.257 20.9602C261.125 21.0398 260.976 21.0795 260.81 21.0795ZM264.665 21.0795C264.42 21.0795 264.21 20.9917 264.034 20.8161C263.858 20.6404 263.77 20.4299 263.77 20.1847C263.77 19.9394 263.858 19.7289 264.034 19.5533C264.21 19.3776 264.42 19.2898 264.665 19.2898C264.911 19.2898 265.121 19.3776 265.297 19.5533C265.472 19.7289 265.56 19.9394 265.56 20.1847C265.56 20.3471 265.519 20.4962 265.436 20.6321C265.356 20.768 265.249 20.8774 265.113 20.9602C264.98 21.0398 264.831 21.0795 264.665 21.0795Z" fill="#194DCC"/>
<path fill-rule="evenodd" clip-rule="evenodd" d="M279.493 11.9931C279.623 11.863 279.834 11.863 279.965 11.9931L283.5 15.5287L287.036 11.9931C287.166 11.863 287.377 11.863 287.507 11.9931C287.637 12.1233 287.637 12.3344 287.507 12.4645L283.971 16.0001L287.507 19.5356C287.637 19.6658 287.637 19.8768 287.507 20.007C287.377 20.1372 287.166 20.1372 287.036 20.007L283.5 16.4715L279.965 20.007C279.834 20.1372 279.623 20.1372 279.493 20.007C279.363 19.8768 279.363 19.6658 279.493 19.5356L283.029 16.0001L279.493 12.4645C279.363 12.3344 279.363 12.1233 279.493 11.9931Z" fill="#545454"/>
<rect x="1" y="0.5" width="298" height="31" rx="3.5" stroke="#0F67F5"/>
</svg>
