<svg width="114" height="33" fill="none" xmlns="http://www.w3.org/2000/svg"><rect x="1" y="1" width="112" height="31" rx="3.5" fill="#F0F6FE"/><path fill-rule="evenodd" clip-rule="evenodd" d="M22.07 12.43c.13.13.13.34 0 .47l-7.57 7.57-3.57-3.57a.33.33 0 1 1 .47-.47l3.1 3.1 7.1-7.1a.33.33 0 0 1 .47 0Z" fill="#194DCC" stroke="#194DCC" stroke-linecap="round"/><path d="M37.93 14h-1.24a2.56 2.56 0 0 0-1.04-1.61 2.79 2.79 0 0 0-.85-.42 3.4 3.4 0 0 0-2.65.33c-.5.31-.89.77-1.18 1.38-.3.6-.44 1.35-.44 2.23 0 .88.14 1.62.44 2.23.3.6.69 1.07 1.18 1.38a3.4 3.4 0 0 0 2.65.33c.32-.1.6-.23.85-.42a2.62 2.62 0 0 0 1.04-1.61h1.24a3.82 3.82 0 0 1-2.65 3.1 4.58 4.58 0 0 1-3.77-.42 4.37 4.37 0 0 1-1.6-1.8 6.2 6.2 0 0 1-.57-2.8c0-1.06.19-2 .58-2.78a4.27 4.27 0 0 1 3.91-2.45c.51 0 1 .08 1.45.23a3.95 3.95 0 0 1 2.14 1.7c.24.41.41.88.5 1.4Zm4.93 7.16a3.2 3.2 0 0 1-1.81-.5 3.34 3.34 0 0 1-1.22-1.37 4.66 4.66 0 0 1-.43-2.07c0-.8.15-1.49.43-2.08a3.3 3.3 0 0 1 3.03-1.88 3.3 3.3 0 0 1 3.02 1.87c.3.6.44 1.3.44 2.1a4.5 4.5 0 0 1-.44 2.06 3.3 3.3 0 0 1-1.2 1.38 3.3 3.3 0 0 1-1.82.49Zm0-1.05c.53 0 .96-.14 1.3-.4.33-.28.58-.63.75-1.07a4.25 4.25 0 0 0 0-2.85 2.4 2.4 0 0 0-.76-1.06 2 2 0 0 0-1.29-.41 2 2 0 0 0-1.3.4 2.4 2.4 0 0 0-.74 1.07 4.1 4.1 0 0 0-.25 1.43c0 .51.09.99.25 1.42.16.44.41.8.75 1.06.34.27.77.4 1.3.4Zm5.25.89v-7.64h1.14v1.2h.1c.16-.41.41-.73.77-.95a2.3 2.3 0 0 1 1.27-.35c.5 0 .93.12 1.26.35.34.22.6.54.8.95h.07c.2-.4.5-.71.88-.94.4-.24.86-.36 1.4-.36.7 0 1.25.22 1.68.65.44.42.66 1.08.66 1.98V21h-1.18v-5.11c0-.56-.15-.97-.46-1.2-.3-.25-.67-.37-1.09-.37-.54 0-.95.16-1.25.49-.3.32-.44.72-.44 1.22V21h-1.2v-5.23c0-.43-.13-.78-.41-1.05-.29-.27-.65-.4-1.1-.4-.3 0-.58.08-.85.24a1.9 1.9 0 0 0-.64.68 2 2 0 0 0-.23.99V21H48.1Zm12.17 2.86v-10.5h1.13v1.22h.14l.36-.51c.16-.2.38-.4.67-.56.29-.16.68-.25 1.18-.25a3.03 3.03 0 0 1 2.85 1.85c.27.6.41 1.29.41 2.1 0 .8-.14 1.5-.41 2.1a2.99 2.99 0 0 1-2.83 1.85 2.5 2.5 0 0 1-1.18-.24c-.3-.17-.52-.36-.68-.57a7.53 7.53 0 0 1-.37-.52h-.1v4.03h-1.17Zm1.15-6.68c0 .58.09 1.09.26 1.53.17.44.41.78.74 1.03.32.24.72.37 1.2.37s.9-.13 1.22-.4c.33-.25.58-.6.75-1.05a4.3 4.3 0 0 0 0-2.93c-.16-.43-.4-.78-.74-1.03a1.96 1.96 0 0 0-1.24-.38 1.96 1.96 0 0 0-1.94 1.37 4.2 4.2 0 0 0-.25 1.5ZM70 10.82V21h-1.2V10.82H70Zm5.35 10.34a3.27 3.27 0 0 1-3.13-1.86 4.68 4.68 0 0 1-.43-2.06c0-.78.14-1.47.42-2.07.3-.6.7-1.06 1.2-1.4a3.62 3.62 0 0 1 2.99-.3 2.92 2.92 0 0 1 1.82 1.81 5 5 0 0 1 .29 1.8v.5H72.6v-1.01h4.7c0-.44-.1-.82-.26-1.16a1.95 1.95 0 0 0-1.83-1.1 2.2 2.2 0 0 0-2 1.26c-.18.36-.27.75-.27 1.17v.68c0 .58.1 1.07.3 1.47.2.4.48.7.84.9.36.21.77.32 1.25.32.3 0 .58-.05.83-.13.25-.1.47-.23.65-.4.18-.18.33-.4.43-.67l1.13.32a2.73 2.73 0 0 1-1.65 1.69c-.41.16-.88.24-1.4.24Zm8.26-7.8v1h-3.95v-1h3.95Zm-2.8-1.83h1.17v7.28c0 .33.05.58.15.75.1.16.22.27.38.33.15.05.31.08.49.08a2.07 2.07 0 0 0 .51-.06l.24 1.05a2.38 2.38 0 0 1-.87.14c-.33 0-.66-.07-.98-.21a1.94 1.94 0 0 1-.78-.66 1.9 1.9 0 0 1-.31-1.1v-7.6Zm7.69 9.63a3.27 3.27 0 0 1-3.13-1.86 4.68 4.68 0 0 1-.43-2.06c0-.78.14-1.47.43-2.07a3.23 3.23 0 0 1 3.01-1.9c.4 0 .79.06 1.18.2a2.92 2.92 0 0 1 1.82 1.81 5 5 0 0 1 .28 1.8v.5h-5.89v-1.01h4.7c0-.44-.09-.82-.26-1.16a1.95 1.95 0 0 0-1.83-1.1c-.47 0-.87.12-1.21.36-.34.22-.6.52-.78.9-.19.36-.28.75-.28 1.17v.68c0 .58.1 1.07.3 1.47.2.4.48.7.84.9a2.68 2.68 0 0 0 2.08.19c.26-.1.47-.23.66-.4.18-.18.32-.4.42-.67l1.13.32c-.12.38-.32.72-.6 1.01-.28.3-.63.52-1.04.68-.42.16-.88.24-1.4.24Zm7.83 0a2.99 2.99 0 0 1-2.83-1.86 4.86 4.86 0 0 1-.41-2.1c0-.8.13-1.5.41-2.09a3.03 3.03 0 0 1 2.85-1.85c.5 0 .89.09 1.18.25.29.17.51.35.66.56l.37.5h.1v-3.75h1.17V21H98.7v-1.17h-.14l-.37.52c-.16.21-.39.4-.68.57-.3.16-.7.24-1.18.24Zm.16-1.05a2 2 0 0 0 1.2-.37c.32-.25.56-.6.73-1.03.17-.44.26-.95.26-1.53 0-.57-.09-1.07-.25-1.5a1.96 1.96 0 0 0-1.94-1.37c-.5 0-.91.14-1.25.4-.32.24-.57.59-.74 1.02a4.1 4.1 0 0 0-.24 1.45c0 .55.08 1.04.25 1.48.17.44.42.8.74 1.06.34.26.75.39 1.24.39Z" fill="#194DCC"/><rect x="1" y="1" width="112" height="31" rx="3.5" stroke="#0F67F5"/></svg>