<svg width="238" height="32" fill="none" xmlns="http://www.w3.org/2000/svg"><rect x=".5" y=".5" width="115" height="31" rx="3.5" fill="#F3F8FF"/><rect x="9" y="8" width="14" height="16" rx="2" fill="#F74E4E"/><path d="M16 15V8h4v7l-2-1.62L16 15Z" fill="#fff"/><path d="M29.23 21V10.82h6.15v1.1h-4.91v3.43h4.59v1.1h-4.6v3.46h5V21h-6.23Zm9.38-4.6V21h-1.17v-7.64h1.13v1.2h.1c.18-.4.45-.7.82-.94a2.5 2.5 0 0 1 1.41-.36c.52 0 .97.11 1.36.32.39.21.69.53.9.96.22.42.33.96.33 1.6V21H42.3v-4.77c0-.6-.15-1.07-.46-1.4a1.67 1.67 0 0 0-1.29-.51c-.37 0-.7.08-1 .24-.3.16-.52.4-.7.71-.16.31-.25.7-.25 1.14Zm10.1 7.62c-.56 0-1.05-.07-1.46-.22a3.1 3.1 0 0 1-1.66-1.3l.94-.66c.1.13.24.3.4.47a2 2 0 0 0 .66.47c.29.14.66.2 1.12.2.62 0 1.13-.14 1.53-.44.4-.3.6-.76.6-1.4v-1.55h-.1c-.08.14-.2.31-.37.52-.15.2-.38.38-.67.54-.3.15-.69.23-1.19.23a3.07 3.07 0 0 1-2.82-1.71 4.45 4.45 0 0 1-.42-2.03c0-.78.14-1.46.42-2.04a3.03 3.03 0 0 1 2.85-1.83c.5 0 .89.08 1.18.24.3.17.52.35.67.56l.37.5h.12v-1.2h1.13v7.85a2.7 2.7 0 0 1-.44 1.6c-.3.41-.7.72-1.2.9-.5.2-1.05.3-1.66.3Zm-.04-4.2c.47 0 .87-.1 1.2-.32.32-.21.57-.52.74-.93.17-.4.25-.88.25-1.45 0-.55-.08-1.03-.25-1.45a2.19 2.19 0 0 0-.73-1 1.98 1.98 0 0 0-1.2-.35 2 2 0 0 0-1.99 1.39c-.16.42-.24.9-.24 1.41 0 .53.08 1 .24 1.4.17.41.42.73.75.96.33.23.74.35 1.23.35Zm6.66-9V21h-1.17V10.82h1.18ZM57.48 21v-7.64h1.18V21h-1.18Zm.6-8.9a.83.83 0 0 1-.6-.24.75.75 0 0 1-.23-.56c0-.22.08-.41.24-.57a.83.83 0 0 1 .6-.23c.22 0 .41.08.58.23.16.16.25.35.25.57 0 .21-.09.4-.25.56a.82.82 0 0 1-.59.23Zm8.14 2.97-1.06.3a1.96 1.96 0 0 0-.3-.51 1.5 1.5 0 0 0-.5-.42c-.23-.1-.5-.16-.85-.16a2 2 0 0 0-1.17.32c-.3.21-.46.48-.46.81 0 .3.1.52.32.7.21.16.54.3 1 .42l1.13.27c.68.17 1.19.42 1.52.76.34.34.5.78.5 1.31 0 .44-.12.83-.37 1.18-.25.34-.6.61-1.05.81-.44.2-.97.3-1.56.3-.78 0-1.42-.17-1.93-.5a2.25 2.25 0 0 1-.97-1.49l1.11-.28c.1.41.3.72.6.93.3.2.7.3 1.17.3.55 0 .98-.11 1.3-.34.33-.24.5-.52.5-.85 0-.26-.1-.49-.29-.66a1.78 1.78 0 0 0-.85-.41l-1.27-.3a3.04 3.04 0 0 1-1.55-.77 1.9 1.9 0 0 1-.48-1.32c0-.43.12-.81.36-1.14.24-.33.58-.6 1-.78.42-.2.9-.29 1.44-.29.76 0 1.35.17 1.78.5.43.33.74.77.93 1.31Zm3.07 1.34V21h-1.17V10.82h1.17v3.74h.1c.18-.4.45-.71.8-.94a2.6 2.6 0 0 1 1.45-.36c.52 0 .98.1 1.37.32.39.2.7.52.9.95.23.42.34.96.34 1.62V21h-1.18v-4.77c0-.6-.15-1.08-.47-1.41a1.7 1.7 0 0 0-1.3-.5c-.38 0-.73.08-1.03.24-.3.16-.54.4-.72.71-.17.31-.26.7-.26 1.14Z" fill="#0F67F5"/><path d="m96.12 16.3-.35-.35-.35.36-3.33 3.33a.12.12 0 0 1-.1.03.12.12 0 0 1-.08-.03.12.12 0 0 1-.03-.09c0-.04.01-.07.03-.09l3.33-3.33.36-.35-.36-.35-3.33-3.33a.12.12 0 0 1-.03-.09c0-.04.01-.07.03-.09a.12.12 0 0 1 .09-.03c.04 0 .07.01.09.03l3.33 3.33.35.36.35-.36 3.33-3.33a.12.12 0 0 1 .09-.03c.04 0 .07.01.09.03.02.02.03.05.03.09 0 .04-.01.07-.03.09l-3.33 3.33-.36.35.36.35 3.33 3.33c.02.02.03.05.03.09 0 .04-.01.07-.03.09a.12.12 0 0 1-.1.03.12.12 0 0 1-.08-.03l-3.33-3.33Z" fill="#0F67F5" stroke="#757575"/><rect x=".5" y=".5" width="115" height="31" rx="3.5" stroke="#0F67F5"/><rect x="128.5" y=".5" width="109" height="31" rx="3.5" fill="#F3F8FF"/><rect x="136" y="8" width="16" height="16" rx="2" fill="#2986FF"/><path d="M139.25 17.25v-2.5h9.5v2.5h-9.5Z" fill="#fff" stroke="#2986FF" stroke-width=".5"/><circle cx="144" cy="11.8" r="1.35" fill="#fff" stroke="#2986FF" stroke-width=".5"/><circle cx="144" cy="20.2" r="1.35" fill="#fff" stroke="#2986FF" stroke-width=".5"/><path d="M157.23 10.82h1.48l3.45 8.45h.12l3.46-8.45h1.48V21h-1.16v-7.74h-.1L162.78 21h-1.11l-3.18-7.74h-.1V21h-1.16V10.82Zm14.55 10.36c-.49 0-.93-.1-1.32-.27-.4-.19-.7-.46-.94-.8a2.26 2.26 0 0 1-.35-1.28c0-.44.09-.79.26-1.06.17-.28.4-.5.7-.65.28-.15.6-.27.94-.35.36-.08.7-.14 1.06-.18l1.13-.14c.3-.03.5-.09.64-.16.13-.08.2-.21.2-.4v-.04c0-.5-.13-.87-.4-1.14-.26-.28-.67-.41-1.2-.41a2.07 2.07 0 0 0-2 1.15l-1.11-.4a2.68 2.68 0 0 1 1.89-1.63 4.54 4.54 0 0 1 2.02-.07c.32.06.63.18.93.36.3.18.55.45.75.8.2.37.3.85.3 1.46V21h-1.18v-1.03h-.06a2.29 2.29 0 0 1-1.14 1.01c-.3.13-.68.2-1.12.2Zm.18-1.05c.46 0 .85-.1 1.17-.28a1.86 1.86 0 0 0 .97-1.61v-1.08a.71.71 0 0 1-.32.17 5.55 5.55 0 0 1-1.21.21l-.5.06c-.3.04-.59.1-.85.2-.26.08-.47.21-.64.39a1 1 0 0 0-.24.7c0 .41.16.72.46.93.3.2.69.3 1.16.3Zm8.78-6.77v1h-3.96v-1h3.96Zm-2.8-1.83h1.17v7.28c0 .33.05.58.14.75.1.16.23.27.38.33.16.05.32.08.5.08l.31-.02.2-.04.24 1.05a2.41 2.41 0 0 1-.88.14c-.33 0-.65-.07-.97-.21a1.94 1.94 0 0 1-.79-.66 1.9 1.9 0 0 1-.3-1.1v-7.6Zm5.9 4.88V21h-1.17V10.82h1.17v3.74h.1c.18-.4.45-.71.8-.94a2.6 2.6 0 0 1 1.45-.36c.52 0 .97.1 1.37.32.39.2.69.52.9.95.22.42.33.96.33 1.62V21h-1.17v-4.77a2 2 0 0 0-.47-1.41c-.31-.33-.75-.5-1.3-.5-.38 0-.73.08-1.03.24-.3.16-.54.4-.72.71-.17.31-.26.7-.26 1.14Zm12.5-1.34-1.05.3a1.95 1.95 0 0 0-.29-.51c-.13-.17-.3-.3-.52-.42-.22-.1-.5-.16-.84-.16a2 2 0 0 0-1.16.32c-.31.21-.47.48-.47.81 0 .3.1.52.32.7.21.16.54.3 1 .42l1.13.27c.68.17 1.2.42 1.53.76.33.34.5.78.5 1.31 0 .44-.13.83-.38 1.18-.25.34-.6.61-1.04.81-.45.2-.97.3-1.57.3a3.5 3.5 0 0 1-1.93-.5 2.25 2.25 0 0 1-.97-1.49l1.12-.28c.1.41.3.72.6.93.3.2.68.3 1.17.3.54 0 .98-.11 1.3-.34.32-.24.48-.52.48-.85a.88.88 0 0 0-.27-.66 1.78 1.78 0 0 0-.86-.41l-1.27-.3a3.04 3.04 0 0 1-1.54-.77c-.33-.35-.49-.8-.49-1.32 0-.43.12-.81.36-1.14.25-.33.58-.6 1-.78.43-.2.9-.29 1.44-.29.76 0 1.35.17 1.78.5.44.33.75.77.93 1.31Z" fill="#0F67F5"/><path d="m218.12 16.3-.35-.35-.36.36-3.32 3.33a.12.12 0 0 1-.1.03.12.12 0 0 1-.08-.03.12.12 0 0 1-.03-.09c0-.04.01-.07.03-.09l3.33-3.33.36-.35-.36-.35-3.33-3.33a.12.12 0 0 1-.03-.09c0-.04.01-.07.03-.09a.12.12 0 0 1 .09-.03l.09.03 3.32 3.33.36.36.35-.36 3.33-3.33a.12.12 0 0 1 .09-.03l.09.03c.02.02.03.05.03.09 0 .04-.01.07-.03.09l-3.34 3.33-.35.35.35.35 3.34 3.33c.02.02.03.05.03.09 0 .04-.01.07-.03.09a.12.12 0 0 1-.1.03.12.12 0 0 1-.08-.03l-3.33-3.33Z" fill="#0F67F5" stroke="#757575"/><rect x="128.5" y=".5" width="109" height="31" rx="3.5" stroke="#0F67F5"/></svg>