<svg width="222" height="33" fill="none" xmlns="http://www.w3.org/2000/svg"><rect x="1" y="1" width="84" height="31" rx="3.5" fill="#F6F6F6"/><path d="M20.7 14a3.6 3.6 0 0 0-.44-.9 2.78 2.78 0 0 0-2.47-1.27 3.02 3.02 0 0 0-2.82 1.85c-.3.6-.44 1.35-.44 2.23 0 .88.15 1.62.44 2.23.3.6.7 1.07 1.2 1.38.5.31 1.07.47 1.7.47.58 0 1.1-.13 1.54-.38.45-.25.8-.6 1.04-1.06.26-.46.38-1 .38-1.63l.38.08h-3.06v-1.1h3.88V17a4.3 4.3 0 0 1-.54 2.19 3.7 3.7 0 0 1-1.47 1.44c-.63.34-1.34.5-2.15.5-.9 0-1.7-.2-2.38-.63a4.29 4.29 0 0 1-1.59-1.8 6.34 6.34 0 0 1-.56-2.8c0-.8.1-1.52.32-2.16.22-.65.53-1.2.92-1.65a4.05 4.05 0 0 1 3.21-1.41 4.51 4.51 0 0 1 2.75.92 3.88 3.88 0 0 1 1.43 2.4h-1.28Zm3.28 7v-7.64h1.13v1.16h.08c.14-.38.4-.69.76-.92.36-.24.77-.36 1.23-.36a13.09 13.09 0 0 1 .62.02v1.2a3.44 3.44 0 0 0-.72-.08c-.37 0-.7.08-1 .23a1.71 1.71 0 0 0-.93 1.56V21h-1.17Zm7.45.18c-.48 0-.92-.1-1.31-.27a2.3 2.3 0 0 1-.94-.8 2.26 2.26 0 0 1-.35-1.28c0-.44.09-.79.26-1.06.17-.28.4-.5.69-.65.29-.15.6-.27.95-.35.35-.08.7-.14 1.06-.18l1.13-.14c.3-.03.5-.09.64-.16.13-.08.2-.21.2-.4v-.04c0-.5-.13-.87-.4-1.14-.27-.28-.67-.41-1.21-.41a2.1 2.1 0 0 0-1.99 1.15l-1.11-.4a2.67 2.67 0 0 1 1.89-1.63 4.54 4.54 0 0 1 2.02-.07c.32.06.63.18.93.36.3.18.55.45.75.8.2.37.3.85.3 1.46V21h-1.18v-1.03h-.06a2.3 2.3 0 0 1-1.14 1.01c-.3.13-.68.2-1.13.2Zm.18-1.05c.47 0 .86-.1 1.18-.28a1.86 1.86 0 0 0 .97-1.61v-1.08c-.05.06-.16.12-.33.17a5.55 5.55 0 0 1-1.2.21l-.5.06c-.3.04-.59.1-.85.2-.26.08-.48.21-.64.39a1 1 0 0 0-.24.7c0 .41.15.72.45.93.31.2.7.3 1.16.3Zm5.47.87v-7.64h1.13v1.2h.1c.16-.41.41-.73.77-.95a2.3 2.3 0 0 1 1.28-.35 2.14 2.14 0 0 1 2.05 1.3h.07c.2-.4.5-.71.88-.94.4-.24.87-.36 1.41-.36.68 0 1.24.22 1.68.65.43.42.65 1.08.65 1.98V21h-1.17v-5.11c0-.56-.16-.97-.47-1.2-.3-.25-.67-.37-1.09-.37-.53 0-.95.16-1.24.49-.3.32-.45.72-.45 1.22V21H41.5v-5.23c0-.43-.14-.78-.42-1.05-.28-.27-.65-.4-1.1-.4-.3 0-.58.08-.85.24a1.8 1.8 0 0 0-.63.68 2 2 0 0 0-.24.99V21h-1.17Zm12.16 0v-7.64h1.14v1.2h.1c.16-.41.41-.73.77-.95a2.3 2.3 0 0 1 1.27-.35c.5 0 .93.12 1.26.35.34.22.6.54.8.95h.07c.2-.4.5-.71.88-.94.4-.24.86-.36 1.41-.36.68 0 1.24.22 1.68.65.43.42.65 1.08.65 1.98V21h-1.18v-5.11c0-.56-.15-.97-.46-1.2-.3-.25-.67-.37-1.09-.37-.53 0-.95.16-1.25.49-.3.32-.44.72-.44 1.22V21h-1.2v-5.23c0-.43-.13-.78-.41-1.05-.29-.27-.65-.4-1.1-.4-.3 0-.58.08-.85.24a1.8 1.8 0 0 0-.63.68 2 2 0 0 0-.24.99V21h-1.18Zm14.42.18c-.48 0-.92-.1-1.32-.27-.4-.19-.7-.46-.94-.8a2.26 2.26 0 0 1-.35-1.28c0-.44.09-.79.26-1.06.17-.28.4-.5.7-.65.28-.15.6-.27.95-.35.35-.08.7-.14 1.06-.18l1.13-.14c.29-.03.5-.09.63-.16.14-.08.2-.21.2-.4v-.04c0-.5-.13-.87-.4-1.14-.26-.28-.66-.41-1.2-.41a2.07 2.07 0 0 0-1.99 1.15l-1.12-.4a2.67 2.67 0 0 1 1.9-1.63 4.54 4.54 0 0 1 2.01-.07c.32.06.63.18.93.36.3.18.55.45.75.8.2.37.3.85.3 1.46V21h-1.17v-1.03h-.06a2.3 2.3 0 0 1-1.14 1.01c-.31.13-.69.2-1.13.2Zm.18-1.05c.46 0 .85-.1 1.17-.28a1.86 1.86 0 0 0 .98-1.61v-1.08c-.05.06-.16.12-.33.17a5.55 5.55 0 0 1-1.21.21l-.5.06c-.3.04-.58.1-.85.2-.26.08-.47.21-.63.39a1 1 0 0 0-.24.7c0 .41.15.72.45.93.3.2.7.3 1.16.3Zm5.46.87v-7.64h1.13v1.16h.08c.14-.38.4-.69.76-.92.36-.24.77-.36 1.23-.36a13.1 13.1 0 0 1 .62.02v1.2a3.45 3.45 0 0 0-.72-.08c-.37 0-.7.08-1 .23a1.71 1.71 0 0 0-.93 1.56V21H69.3Z" fill="#545454"/><rect x="1" y="1" width="84" height="31" rx="3.5" stroke="#AFAFAF"/><rect x="94" y="1" width="42" height="31" rx="3.5" fill="#F6F6F6"/><path d="m107.15 10.82 3.02 8.57h.12l3.02-8.57h1.3L110.87 21h-1.27l-3.74-10.18h1.3ZM116.2 21V10.82h3.44c.8 0 1.45.13 1.96.4s.9.64 1.14 1.11c.24.48.36 1.01.36 1.61 0 .6-.12 1.13-.36 1.6a2.6 2.6 0 0 1-1.13 1.09c-.5.26-1.16.4-1.95.4h-2.78V15.9h2.74c.55 0 .98-.08 1.32-.24.33-.16.57-.38.72-.68.16-.3.23-.64.23-1.05 0-.4-.07-.76-.23-1.07-.15-.3-.4-.54-.73-.7a2.96 2.96 0 0 0-1.33-.26h-2.16V21h-1.24Zm4.8-4.57 2.5 4.57h-1.43l-2.47-4.57h1.4Z" fill="#545454"/><rect x="94" y="1" width="42" height="31" rx="3.5" stroke="#AFAFAF"/><rect x="145" y="1" width="76" height="31" rx="3.5" fill="#F6F6F6"/><path d="M163.3 13.36c-.06-.5-.3-.9-.73-1.17a2.78 2.78 0 0 0-1.56-.42c-.45 0-.84.08-1.18.22-.33.15-.6.35-.79.6a1.45 1.45 0 0 0-.08 1.57c.13.2.3.36.5.49a5.58 5.58 0 0 0 1.28.5l1.03.28c.26.07.56.17.88.29.33.12.65.29.94.5a2.32 2.32 0 0 1 1.04 2.01c0 .56-.14 1.05-.43 1.5-.28.44-.7.8-1.25 1.06s-1.21.39-2 .39c-.72 0-1.36-.12-1.89-.35a2.8 2.8 0 0 1-1.77-2.45h1.28c.03.38.16.7.39.95.22.25.51.43.86.56a3.5 3.5 0 0 0 2.4-.05c.38-.16.67-.37.9-.65.21-.28.32-.6.32-.97 0-.34-.1-.62-.28-.83a2.08 2.08 0 0 0-.75-.52 7.8 7.8 0 0 0-1-.34l-1.25-.36a4.67 4.67 0 0 1-1.89-.98c-.46-.43-.7-.98-.7-1.67 0-.57.16-1.06.47-1.49.3-.43.72-.76 1.25-1a4.23 4.23 0 0 1 1.76-.35c.66 0 1.24.12 1.75.35.51.23.92.55 1.22.96.3.4.46.86.47 1.37h-1.19Zm6.3 7.8a3.3 3.3 0 0 1-1.85-.5 3.3 3.3 0 0 1-1.19-1.4 4.74 4.74 0 0 1-.42-2.04c0-.77.15-1.46.43-2.05a3.23 3.23 0 0 1 3.01-1.9c.54 0 1.02.1 1.46.3a2.61 2.61 0 0 1 1.57 2.09h-1.18a1.79 1.79 0 0 0-1.83-1.33 1.9 1.9 0 0 0-1.2.35c-.34.23-.6.56-.8 1a3.7 3.7 0 0 0-.28 1.5c0 .6.09 1.1.28 1.54.18.44.45.78.8 1.02a2.2 2.2 0 0 0 2.03.21 1.72 1.72 0 0 0 1-1.18h1.18a2.74 2.74 0 0 1-1.53 2.08c-.42.2-.91.3-1.48.3Zm4.72-.16v-7.64h1.18V21h-1.18Zm.6-8.9a.83.83 0 0 1-.6-.24.75.75 0 0 1-.24-.56c0-.22.08-.41.25-.57a.83.83 0 0 1 .59-.23c.23 0 .42.08.59.23a.78.78 0 0 1-.01 1.13.82.82 0 0 1-.58.23Zm5.93 9.06a3.26 3.26 0 0 1-3.13-1.86 4.68 4.68 0 0 1-.43-2.06c0-.78.14-1.47.42-2.07.3-.6.7-1.06 1.2-1.4a3.62 3.62 0 0 1 2.99-.3 2.92 2.92 0 0 1 1.82 1.81 5 5 0 0 1 .29 1.8v.5h-5.89v-1.01h4.7c0-.44-.1-.82-.26-1.16a1.95 1.95 0 0 0-1.83-1.1 2.2 2.2 0 0 0-2 1.26c-.18.36-.27.75-.27 1.17v.68c0 .58.1 1.07.3 1.47.2.4.48.7.84.9.36.21.77.32 1.25.32.3 0 .58-.05.83-.13a1.7 1.7 0 0 0 1.07-1.07l1.14.32a2.5 2.5 0 0 1-.6 1.01c-.28.3-.63.52-1.05.68-.41.16-.88.24-1.4.24Zm6.12-4.75V21h-1.18v-7.64h1.14v1.2h.1c.18-.4.45-.7.81-.94.37-.24.84-.36 1.41-.36.52 0 .97.11 1.36.32.39.21.69.53.9.96.22.42.33.96.33 1.6V21h-1.18v-4.77c0-.6-.15-1.07-.46-1.4a1.65 1.65 0 0 0-1.28-.51c-.38 0-.71.08-1 .24-.3.16-.53.4-.7.71-.17.31-.25.7-.25 1.14Zm10.11 4.75a3.3 3.3 0 0 1-1.84-.5 3.3 3.3 0 0 1-1.2-1.4 4.72 4.72 0 0 1-.42-2.04c0-.77.15-1.46.43-2.05a3.23 3.23 0 0 1 3.01-1.9c.54 0 1.03.1 1.46.3a2.6 2.6 0 0 1 1.57 2.09h-1.18a1.79 1.79 0 0 0-1.83-1.33c-.45-.01-.85.1-1.2.35-.34.23-.6.56-.8 1a3.7 3.7 0 0 0-.28 1.5c0 .6.09 1.1.28 1.54.18.44.45.78.8 1.02a2.2 2.2 0 0 0 2.03.21 1.71 1.71 0 0 0 1-1.18h1.18a2.71 2.71 0 0 1-1.52 2.08c-.43.2-.92.3-1.49.3Zm7.92 0a3.27 3.27 0 0 1-3.13-1.86 4.68 4.68 0 0 1-.43-2.06c0-.78.15-1.47.43-2.07a3.23 3.23 0 0 1 3.01-1.9c.4 0 .8.06 1.18.2a2.92 2.92 0 0 1 1.82 1.81 5 5 0 0 1 .29 1.8v.5h-5.89v-1.01h4.7c0-.44-.1-.82-.27-1.16a1.95 1.95 0 0 0-1.83-1.1 2 2 0 0 0-1.2.36c-.35.22-.6.52-.79.9-.18.36-.27.75-.27 1.17v.68c0 .58.1 1.07.3 1.47.2.4.48.7.84.9a2.7 2.7 0 0 0 2.08.19c.25-.1.47-.23.65-.4.18-.18.32-.4.42-.67l1.14.32c-.12.38-.32.72-.6 1.01-.29.3-.63.52-1.05.68-.41.16-.88.24-1.4.24Z" fill="#545454"/><rect x="145" y="1" width="76" height="31" rx="3.5" stroke="#AFAFAF"/></svg>