<svg width="300" height="32" fill="none" xmlns="http://www.w3.org/2000/svg"><rect x="1" y=".5" width="58" height="31" rx="3.5" fill="#F0F6FE"/><path fill-rule="evenodd" clip-rule="evenodd" d="M22.07 11.93c.13.13.13.34 0 .47l-7.57 7.57-3.57-3.57a.33.33 0 1 1 .47-.47l3.1 3.1 7.1-7.1a.33.33 0 0 1 .47 0Z" fill="#194DCC" stroke="#194DCC" stroke-linecap="round"/><path d="m30.15 10.32 3.02 8.57h.12l3.03-8.57h1.29L33.87 20.5H32.6l-3.74-10.18h1.3ZM39.2 20.5V10.32h3.44c.8 0 1.45.13 1.96.4s.9.64 1.14 1.11c.24.48.36 1.01.36 1.61 0 .6-.12 1.13-.36 1.6a2.6 2.6 0 0 1-1.13 1.09c-.5.26-1.16.4-1.95.4h-2.78V15.4h2.74c.55 0 .99-.08 1.32-.24.33-.16.57-.38.72-.68.16-.3.23-.64.23-1.05 0-.4-.07-.76-.23-1.07-.15-.3-.4-.54-.73-.7a2.96 2.96 0 0 0-1.33-.26h-2.16v9.09H39.2Zm4.8-4.57 2.5 4.57h-1.43l-2.47-4.57H44Z" fill="#194DCC"/><rect x="1" y=".5" width="58" height="31" rx="3.5" stroke="#0F67F5"/><rect x="68" y=".5" width="52" height="31" rx="3.5" fill="#F6F6F6"/><path d="M88.8 10.32V20.5h-1.19l-5.54-8h-.1v8h-1.24V10.32h1.2l5.56 8.01h.1v-8.01h1.22Zm2.9 0 3.01 8.57h.12l3.03-8.57h1.29L95.4 20.5h-1.27L90.4 10.32h1.3Zm9.03 10.18V10.32h3.44c.8 0 1.45.13 1.96.4s.9.64 1.14 1.11c.24.48.37 1.01.37 1.61 0 .6-.13 1.13-.37 1.6a2.6 2.6 0 0 1-1.13 1.09c-.5.26-1.16.4-1.95.4h-2.78V15.4h2.75c.54 0 .98-.08 1.3-.24.34-.16.59-.38.73-.68.16-.3.23-.64.23-1.05 0-.4-.07-.76-.23-1.07-.15-.3-.4-.54-.73-.7a2.96 2.96 0 0 0-1.32-.26h-2.17v9.09h-1.23Zm4.8-4.57 2.5 4.57h-1.43l-2.46-4.57h1.39Z" fill="#545454"/><rect x="68" y=".5" width="52" height="31" rx="3.5" stroke="#AFAFAF"/><rect x="129" y=".5" width="85" height="31" rx="3.5" fill="#F0F6FE"/><path d="M141.73 10.82h1.48l3.45 8.45h.12l3.46-8.45h1.48V21h-1.16v-7.74h-.1L147.28 21h-1.11l-3.18-7.74h-.1V21h-1.16V10.82Zm14.55 10.36c-.49 0-.93-.1-1.32-.27-.4-.19-.7-.46-.94-.8a2.26 2.26 0 0 1-.35-1.28c0-.44.09-.79.26-1.06.17-.28.4-.5.7-.65.28-.15.6-.27.94-.35.36-.08.7-.14 1.06-.18l1.13-.14c.3-.03.5-.09.64-.16.13-.08.2-.21.2-.4v-.04c0-.5-.13-.87-.4-1.14-.26-.28-.67-.41-1.2-.41a2.07 2.07 0 0 0-2 1.15l-1.11-.4a2.68 2.68 0 0 1 1.89-1.63 4.54 4.54 0 0 1 2.02-.07c.32.06.63.18.93.36.3.18.55.45.75.8.2.37.3.85.3 1.46V21h-1.18v-1.03h-.06a2.29 2.29 0 0 1-1.14 1.01c-.3.13-.68.2-1.12.2Zm.18-1.05c.46 0 .85-.1 1.17-.28a1.86 1.86 0 0 0 .97-1.61v-1.08a.71.71 0 0 1-.32.17 5.55 5.55 0 0 1-1.21.21l-.5.06c-.3.04-.59.1-.85.2-.26.08-.47.21-.64.39a1 1 0 0 0-.24.7c0 .41.16.72.46.93.3.2.69.3 1.16.3Zm8.78-6.77v1h-3.96v-1h3.96Zm-2.8-1.83h1.17v7.28c0 .33.05.58.14.75.1.16.23.27.38.33.16.05.32.08.5.08l.31-.02.2-.04.24 1.05a2.41 2.41 0 0 1-.88.14c-.33 0-.65-.07-.97-.21a1.94 1.94 0 0 1-.79-.66 1.9 1.9 0 0 1-.3-1.1v-7.6Zm5.9 4.88V21h-1.17V10.82h1.17v3.74h.1c.18-.4.45-.71.8-.94a2.6 2.6 0 0 1 1.45-.36c.52 0 .97.1 1.37.32.39.2.69.52.9.95.22.42.33.96.33 1.62V21h-1.17v-4.77a2 2 0 0 0-.47-1.41c-.31-.33-.75-.5-1.3-.5-.38 0-.73.08-1.03.24-.3.16-.54.4-.72.71-.17.31-.26.7-.26 1.14Zm12.5-1.34-1.05.3a1.95 1.95 0 0 0-.29-.51c-.13-.17-.3-.3-.52-.42-.22-.1-.5-.16-.84-.16a2 2 0 0 0-1.16.32c-.31.21-.47.48-.47.81 0 .3.1.52.32.7.21.16.54.3 1 .42l1.13.27c.68.17 1.2.42 1.53.76.33.34.5.78.5 1.31 0 .44-.13.83-.38 1.18-.25.34-.6.61-1.04.81-.45.2-.97.3-1.57.3a3.5 3.5 0 0 1-1.93-.5 2.25 2.25 0 0 1-.97-1.49l1.12-.28c.1.41.3.72.6.93.3.2.68.3 1.17.3.54 0 .98-.11 1.3-.34.32-.24.48-.52.48-.85a.88.88 0 0 0-.27-.66 1.78 1.78 0 0 0-.86-.41l-1.27-.3a3.04 3.04 0 0 1-1.54-.77c-.33-.35-.49-.8-.49-1.32 0-.43.12-.81.36-1.14.25-.33.58-.6 1-.78.43-.2.9-.29 1.44-.29.76 0 1.35.17 1.78.5.44.33.75.77.93 1.31Z" fill="#194DCC"/><path fill-rule="evenodd" clip-rule="evenodd" d="M194.5 12a.33.33 0 0 1 .47 0l3.53 3.53 3.54-3.54a.33.33 0 1 1 .47.47L198.97 16l3.54 3.54a.33.33 0 0 1-.47.47l-3.54-3.54-3.53 3.54a.33.33 0 0 1-.48-.47l3.54-3.54-3.54-3.54a.33.33 0 0 1 0-.47Z" fill="#545454"/><rect x="129" y=".5" width="85" height="31" rx="3.5" stroke="#0F67F5"/><rect x="223" y=".5" width="76" height="31" rx="3.5" fill="#F6F6F6"/><path d="M241.3 12.86c-.06-.5-.3-.9-.73-1.17a2.78 2.78 0 0 0-1.56-.42c-.45 0-.84.08-1.18.22-.33.15-.6.35-.79.6a1.45 1.45 0 0 0-.08 1.57c.13.2.3.36.5.49a5.58 5.58 0 0 0 1.28.5l1.03.28c.26.07.56.17.88.29.33.12.65.29.94.5a2.32 2.32 0 0 1 1.04 2.01c0 .56-.14 1.05-.43 1.5-.28.44-.7.8-1.25 1.06s-1.21.39-2 .39c-.72 0-1.36-.12-1.89-.35a2.8 2.8 0 0 1-1.77-2.45h1.28c.03.38.16.7.39.95.22.25.51.43.86.56a3.5 3.5 0 0 0 2.4-.05c.38-.16.67-.37.9-.65.21-.28.32-.6.32-.97 0-.34-.1-.62-.28-.83a2.08 2.08 0 0 0-.75-.52 7.8 7.8 0 0 0-1-.34l-1.25-.36a4.67 4.67 0 0 1-1.89-.98c-.46-.43-.7-.98-.7-1.67 0-.57.16-1.06.47-1.49.3-.43.72-.76 1.25-1a4.23 4.23 0 0 1 1.76-.35c.66 0 1.24.12 1.75.35.51.23.92.55 1.22.96.3.4.46.86.47 1.37h-1.19Zm6.3 7.8a3.3 3.3 0 0 1-1.85-.5 3.3 3.3 0 0 1-1.19-1.4 4.74 4.74 0 0 1-.42-2.04c0-.77.15-1.46.43-2.05a3.23 3.23 0 0 1 3.01-1.9c.54 0 1.02.1 1.46.3a2.61 2.61 0 0 1 1.57 2.09h-1.18a1.79 1.79 0 0 0-1.83-1.33 1.9 1.9 0 0 0-1.2.35c-.34.23-.6.56-.8 1a3.7 3.7 0 0 0-.28 1.5c0 .6.09 1.1.28 1.54.18.44.45.78.8 1.02a2.2 2.2 0 0 0 2.03.21 1.72 1.72 0 0 0 1-1.18h1.18a2.74 2.74 0 0 1-1.53 2.08c-.42.2-.91.3-1.48.3Zm4.72-.16v-7.64h1.18v7.64h-1.18Zm.6-8.9a.83.83 0 0 1-.6-.24.75.75 0 0 1-.24-.56c0-.22.08-.41.25-.57a.83.83 0 0 1 .59-.23c.23 0 .42.08.59.23a.78.78 0 0 1-.01 1.13.82.82 0 0 1-.58.23Zm5.93 9.06a3.26 3.26 0 0 1-3.13-1.86 4.68 4.68 0 0 1-.43-2.06c0-.78.14-1.47.42-2.07.3-.6.7-1.06 1.2-1.4a3.62 3.62 0 0 1 2.99-.3 2.92 2.92 0 0 1 1.82 1.81 5 5 0 0 1 .29 1.8v.5h-5.89v-1.01h4.7c0-.44-.1-.82-.26-1.16a1.95 1.95 0 0 0-1.83-1.1 2.2 2.2 0 0 0-2 1.26c-.18.36-.27.75-.27 1.17v.68c0 .58.1 1.07.3 1.47.2.4.48.7.84.9.36.21.77.32 1.25.32.3 0 .58-.05.83-.13a1.72 1.72 0 0 0 1.08-1.07l1.13.32a2.5 2.5 0 0 1-.6 1.01c-.29.3-.63.52-1.05.68-.41.16-.88.24-1.4.24Zm6.12-4.75v4.59h-1.18v-7.64h1.14v1.2h.1c.18-.4.45-.7.81-.94.37-.24.84-.36 1.41-.36.52 0 .97.11 1.36.32.39.21.69.53.9.96.22.42.33.96.33 1.6v4.86h-1.17v-4.77c0-.6-.16-1.07-.47-1.4a1.65 1.65 0 0 0-1.28-.51 2 2 0 0 0-1 .24c-.3.16-.53.4-.7.71-.17.31-.25.7-.25 1.14Zm10.11 4.75a3.3 3.3 0 0 1-1.84-.5 3.3 3.3 0 0 1-1.2-1.4 4.72 4.72 0 0 1-.42-2.04c0-.77.15-1.46.43-2.05a3.23 3.23 0 0 1 3.01-1.9c.54 0 1.02.1 1.46.3a2.6 2.6 0 0 1 1.57 2.09h-1.18a1.79 1.79 0 0 0-1.83-1.33c-.45-.01-.85.1-1.2.35-.34.23-.6.56-.8 1a3.7 3.7 0 0 0-.28 1.5c0 .6.09 1.1.28 1.54.19.44.45.78.8 1.02.34.24.74.37 1.2.37.3 0 .59-.06.84-.16a1.71 1.71 0 0 0 1-1.18h1.17a2.71 2.71 0 0 1-1.52 2.08c-.43.2-.92.3-1.49.3Zm7.92 0a3.27 3.27 0 0 1-3.13-1.86 4.68 4.68 0 0 1-.43-2.06c0-.78.15-1.47.43-2.07a3.23 3.23 0 0 1 3.01-1.9c.4 0 .8.06 1.18.2a2.92 2.92 0 0 1 1.82 1.81 5 5 0 0 1 .29 1.8v.5h-5.89v-1.01h4.7c0-.44-.1-.82-.27-1.16a1.95 1.95 0 0 0-1.82-1.1c-.47 0-.88.12-1.22.36-.34.22-.6.52-.78.9-.18.36-.27.75-.27 1.17v.68c0 .58.1 1.07.3 1.47.2.4.48.7.84.9a2.7 2.7 0 0 0 2.08.19c.25-.1.47-.23.65-.4.18-.18.32-.4.42-.67l1.14.32c-.12.38-.32.72-.6 1.01-.29.3-.63.52-1.05.68-.41.16-.88.24-1.4.24Z" fill="#545454"/><rect x="223" y=".5" width="76" height="31" rx="3.5" stroke="#AFAFAF"/></svg>