<svg width="300" height="32" fill="none" xmlns="http://www.w3.org/2000/svg"><rect x="1" y=".5" width="298" height="31" rx="3.5" fill="#F0F6FE"/><path d="M22.32 15.9c0 1.08-.19 2.01-.58 2.8a4.27 4.27 0 0 1-3.91 2.45 4.27 4.27 0 0 1-3.91-2.46 6.2 6.2 0 0 1-.58-2.78c0-1.07.19-2 .58-2.79a4.27 4.27 0 0 1 3.91-2.45 4.27 4.27 0 0 1 3.91 2.46c.39.78.58 1.7.58 2.78Zm-1.19 0a5.1 5.1 0 0 0-.44-2.22 3.08 3.08 0 0 0-2.86-1.84 3.1 3.1 0 0 0-1.68.46c-.5.31-.89.77-1.18 1.38-.3.6-.44 1.35-.44 2.23 0 .88.14 1.62.44 2.23.3.6.69 1.07 1.18 1.38.5.31 1.06.47 1.68.47a3.08 3.08 0 0 0 2.86-1.85c.3-.6.44-1.35.44-2.23Zm3.1 5.1v-7.64h1.14v1.16h.08c.14-.38.4-.69.76-.92.36-.24.77-.36 1.23-.36a13.1 13.1 0 0 1 .62.02v1.2a3.45 3.45 0 0 0-.72-.08c-.37 0-.7.08-1 .23a1.71 1.71 0 0 0-.93 1.56V21h-1.17Zm7.87.16a2.99 2.99 0 0 1-2.83-1.86 4.86 4.86 0 0 1-.41-2.1 5 5 0 0 1 .4-2.09 3.03 3.03 0 0 1 2.85-1.85c.5 0 .9.09 1.19.25.29.17.51.35.66.56l.37.5h.1v-3.75h1.17V21h-1.14v-1.17h-.13l-.37.52c-.16.21-.39.4-.68.57-.3.16-.7.24-1.18.24Zm.16-1.05c.47 0 .87-.13 1.19-.37.33-.25.57-.6.74-1.03.17-.44.25-.95.25-1.53a4.3 4.3 0 0 0-.24-1.5 1.96 1.96 0 0 0-1.94-1.37c-.5 0-.91.14-1.25.4-.32.24-.57.59-.74 1.02a4.1 4.1 0 0 0-.24 1.45c0 .55.08 1.04.25 1.48.17.44.42.8.74 1.06.34.26.75.39 1.24.39Zm8.85 1.05a3.27 3.27 0 0 1-3.13-1.86 4.68 4.68 0 0 1-.43-2.06c0-.78.14-1.47.43-2.07a3.23 3.23 0 0 1 3.01-1.9c.4 0 .8.06 1.18.2a2.92 2.92 0 0 1 1.82 1.81 5 5 0 0 1 .28 1.8v.5H38.4v-1.01h4.69c0-.44-.09-.82-.26-1.16a1.95 1.95 0 0 0-1.83-1.1c-.47 0-.87.12-1.21.36-.34.22-.6.52-.78.9-.18.36-.27.75-.27 1.17v.68c0 .58.1 1.07.3 1.47.2.4.48.7.83.9.36.21.78.32 1.25.32.31 0 .59-.05.84-.13.25-.1.47-.23.65-.4.18-.18.32-.4.42-.67l1.13.32c-.12.38-.32.72-.6 1.01-.28.3-.63.52-1.04.68-.42.16-.88.24-1.4.24Zm4.95-.16v-7.64h1.13v1.16h.08c.14-.38.4-.69.76-.92.36-.24.77-.36 1.23-.36a13.1 13.1 0 0 1 .62.02v1.2a3.45 3.45 0 0 0-.72-.08c-.37 0-.7.08-1 .23a1.71 1.71 0 0 0-.93 1.56V21h-1.17Zm11.4.18c-.5 0-.93-.1-1.33-.27-.39-.19-.7-.46-.94-.8a2.26 2.26 0 0 1-.34-1.28c0-.44.08-.79.26-1.06.17-.28.4-.5.69-.65.28-.15.6-.27.95-.35.35-.08.7-.14 1.06-.18a48 48 0 0 1 1.13-.14c.29-.03.5-.09.63-.16.14-.08.2-.21.2-.4v-.04c0-.5-.13-.87-.4-1.14-.26-.28-.66-.41-1.2-.41a2.1 2.1 0 0 0-1.99 1.15l-1.11-.4a2.67 2.67 0 0 1 1.88-1.63 4.54 4.54 0 0 1 2.02-.07c.32.06.63.18.93.36.3.18.55.45.75.8.2.37.3.85.3 1.46V21h-1.17v-1.03h-.06a2.3 2.3 0 0 1-1.14 1.01c-.3.13-.68.2-1.13.2Zm.17-1.05c.46 0 .86-.1 1.17-.28a1.86 1.86 0 0 0 .98-1.61v-1.08c-.05.06-.16.12-.33.17a5.55 5.55 0 0 1-1.2.21l-.5.06c-.3.04-.59.1-.85.2-.27.08-.48.21-.64.39a1 1 0 0 0-.24.7c0 .41.15.72.45.93.3.2.7.3 1.16.3Zm6.64-3.72V21h-1.18v-7.64h1.14v1.2h.1c.18-.4.45-.7.81-.94.37-.24.84-.36 1.41-.36.52 0 .97.11 1.36.32.39.21.69.53.9.96.22.42.33.96.33 1.6V21h-1.17v-4.77c0-.6-.16-1.07-.47-1.4a1.65 1.65 0 0 0-1.28-.51c-.38 0-.71.08-1 .24-.3.16-.53.4-.7.71-.17.31-.25.7-.25 1.14Zm9.9 4.75a2.99 2.99 0 0 1-2.83-1.86 4.86 4.86 0 0 1-.42-2.1c0-.8.14-1.5.42-2.09a3.03 3.03 0 0 1 2.85-1.85c.5 0 .89.09 1.17.25.3.17.52.35.67.56.16.2.28.37.36.5h.1v-3.75h1.18V21h-1.14v-1.17h-.14c-.08.14-.2.31-.36.52-.16.21-.39.4-.69.57-.29.16-.68.24-1.17.24Zm.16-1.05c.47 0 .86-.13 1.19-.37.32-.25.57-.6.74-1.03.17-.44.25-.95.25-1.53 0-.57-.08-1.07-.25-1.5a1.96 1.96 0 0 0-1.94-1.37c-.5 0-.9.14-1.24.4-.33.24-.57.59-.74 1.02a4.1 4.1 0 0 0-.24 1.45c0 .55.08 1.04.25 1.48.17.44.41.8.74 1.06s.74.39 1.24.39ZM92.27 14h-1.23A2.56 2.56 0 0 0 90 12.39a2.79 2.79 0 0 0-.85-.42 3.4 3.4 0 0 0-2.65.33c-.5.31-.9.77-1.2 1.38-.28.6-.43 1.35-.43 2.23 0 .88.15 1.62.44 2.23a3.1 3.1 0 0 0 2.86 1.85 2.93 2.93 0 0 0 1.83-.56 2.62 2.62 0 0 0 1.03-1.61h1.24a3.82 3.82 0 0 1-2.65 3.1 4.58 4.58 0 0 1-3.77-.42 4.37 4.37 0 0 1-1.6-1.8 6.2 6.2 0 0 1-.57-2.8c0-1.06.2-2 .58-2.78a4.27 4.27 0 0 1 3.91-2.45c.52 0 1 .08 1.45.23a3.95 3.95 0 0 1 2.14 1.7c.25.41.42.88.5 1.4Zm4.93 7.16a3.2 3.2 0 0 1-1.81-.5 3.34 3.34 0 0 1-1.21-1.37 4.66 4.66 0 0 1-.44-2.07c0-.8.15-1.49.44-2.08.29-.6.7-1.06 1.2-1.38.53-.33 1.13-.5 1.82-.5a3.29 3.29 0 0 1 3.02 1.87c.3.6.44 1.3.44 2.1a4.6 4.6 0 0 1-.43 2.06A3.3 3.3 0 0 1 99 20.67a3.3 3.3 0 0 1-1.8.49Zm0-1.05c.53 0 .96-.14 1.3-.4.33-.28.58-.63.75-1.07a4.25 4.25 0 0 0 0-2.85 2.4 2.4 0 0 0-.75-1.06 2 2 0 0 0-1.3-.41 2 2 0 0 0-1.29.4 2.4 2.4 0 0 0-.75 1.07 4.1 4.1 0 0 0-.24 1.43c0 .51.08.99.24 1.42.16.44.41.8.75 1.06.34.27.77.4 1.3.4Zm5.25.89v-7.64h1.14v1.2h.1c.16-.41.41-.73.77-.95.35-.23.78-.35 1.28-.35a2.14 2.14 0 0 1 2.05 1.3h.07c.2-.4.5-.71.88-.94.4-.24.86-.36 1.41-.36.68 0 1.24.22 1.68.65.43.42.65 1.08.65 1.98V21h-1.18v-5.11c0-.56-.15-.97-.46-1.2-.3-.25-.67-.37-1.09-.37-.53 0-.95.16-1.25.49-.29.32-.44.72-.44 1.22V21h-1.2v-5.23c0-.43-.13-.78-.41-1.05-.28-.27-.65-.4-1.1-.4-.3 0-.58.08-.85.24a1.8 1.8 0 0 0-.63.68 2 2 0 0 0-.24.99V21h-1.17Zm12.17 2.86v-10.5h1.14v1.22h.13l.36-.51c.16-.2.38-.4.67-.56.3-.16.69-.25 1.18-.25a3.03 3.03 0 0 1 2.85 1.85c.28.6.41 1.29.41 2.1 0 .8-.13 1.5-.4 2.1a2.99 2.99 0 0 1-2.83 1.85c-.5 0-.9-.08-1.19-.24-.3-.17-.52-.36-.68-.57a7.86 7.86 0 0 1-.37-.52h-.1v4.03h-1.17Zm1.16-6.68c0 .58.08 1.09.25 1.53.17.44.42.78.74 1.03.33.24.72.37 1.2.37s.9-.13 1.22-.4c.33-.25.58-.6.75-1.05.17-.44.25-.93.25-1.48a3.9 3.9 0 0 0-.25-1.45c-.16-.43-.4-.78-.74-1.03a1.96 1.96 0 0 0-1.24-.38 1.96 1.96 0 0 0-1.93 1.37 4 4 0 0 0-.25 1.5Zm9.62 4c-.48 0-.92-.1-1.32-.27-.4-.19-.7-.46-.94-.8a2.26 2.26 0 0 1-.34-1.28c0-.44.08-.79.26-1.06.17-.28.4-.5.69-.65.28-.15.6-.27.95-.35.35-.08.7-.14 1.06-.18l1.13-.14c.29-.03.5-.09.63-.16.14-.08.2-.21.2-.4v-.04c0-.5-.13-.87-.4-1.14-.26-.28-.66-.41-1.2-.41a2.1 2.1 0 0 0-1.99 1.15l-1.11-.4a2.68 2.68 0 0 1 1.88-1.63 4.54 4.54 0 0 1 2.02-.07c.32.06.63.18.93.36.3.18.55.45.75.8.2.37.3.85.3 1.46V21h-1.17v-1.03h-.06a2.29 2.29 0 0 1-1.14 1.01c-.3.13-.69.2-1.13.2Zm.18-1.05c.46 0 .86-.1 1.17-.28a1.86 1.86 0 0 0 .98-1.61v-1.08c-.05.06-.16.12-.33.17a5.55 5.55 0 0 1-1.2.21l-.5.06c-.3.04-.6.1-.86.2-.26.08-.47.21-.63.39a1 1 0 0 0-.24.7c0 .41.15.72.45.93.3.2.7.3 1.16.3Zm5.46.87v-7.64h1.14v1.16h.08c.14-.38.39-.69.75-.92.37-.24.78-.36 1.23-.36a13.07 13.07 0 0 1 .62.02v1.2a3.46 3.46 0 0 0-.72-.08c-.37 0-.7.08-.99.23a1.72 1.72 0 0 0-.94 1.56V21h-1.17Zm8.18.16a3.26 3.26 0 0 1-3.13-1.86 4.68 4.68 0 0 1-.43-2.06c0-.78.14-1.47.43-2.07a3.23 3.23 0 0 1 3.01-1.9c.4 0 .8.06 1.18.2a2.92 2.92 0 0 1 1.82 1.81 5 5 0 0 1 .28 1.8v.5h-5.88v-1.01h4.69c0-.44-.09-.82-.26-1.16a1.95 1.95 0 0 0-1.83-1.1c-.47 0-.87.12-1.21.36-.34.22-.6.52-.78.9-.18.36-.28.75-.28 1.17v.68c0 .58.1 1.07.3 1.47.2.4.49.7.84.9.36.21.78.32 1.25.32.3 0 .59-.05.84-.13.25-.1.47-.23.65-.4.18-.18.32-.4.42-.67l1.13.32a2.5 2.5 0 0 1-.6 1.01c-.28.3-.63.52-1.04.68-.42.16-.88.24-1.4.24Zm9.04-.16V10.82h3.45c.8 0 1.45.14 1.95.43.51.29.9.67 1.14 1.16.24.49.36 1.03.36 1.63 0 .6-.12 1.14-.36 1.64-.25.49-.62.88-1.13 1.17a3.9 3.9 0 0 1-1.95.43h-2.46v-1.1h2.43c.54 0 .98-.09 1.31-.28.33-.18.57-.44.72-.76.16-.33.23-.7.23-1.1 0-.4-.07-.77-.23-1.1a1.63 1.63 0 0 0-.72-.75 2.75 2.75 0 0 0-1.34-.28h-2.16V21h-1.24Zm11.85.16a3.6 3.6 0 0 1-1.9-.49 3.28 3.28 0 0 1-1.23-1.37 4.68 4.68 0 0 1-.43-2.06c0-.78.14-1.47.43-2.07a3.23 3.23 0 0 1 3.01-1.9c.4 0 .8.06 1.18.2a2.92 2.92 0 0 1 1.82 1.81 5 5 0 0 1 .28 1.8v.5h-5.88v-1.01h4.69c0-.44-.09-.82-.26-1.16a1.95 1.95 0 0 0-1.83-1.1c-.47 0-.87.12-1.21.36-.34.22-.6.52-.78.9-.18.36-.28.75-.28 1.17v.68c0 .58.1 1.07.3 1.47.2.4.49.7.84.9.36.21.78.32 1.25.32.31 0 .59-.05.84-.13.25-.1.47-.23.65-.4.18-.18.32-.4.42-.67l1.13.32c-.12.38-.32.72-.6 1.01-.28.3-.63.52-1.04.68-.42.16-.88.24-1.4.24Zm4.95-.16v-7.64h1.13v1.16h.08c.14-.38.4-.69.76-.92.36-.24.77-.36 1.23-.36a13.07 13.07 0 0 1 .62.02v1.2a3.32 3.32 0 0 0-.72-.08c-.37 0-.7.08-1 .23a1.71 1.71 0 0 0-.93 1.56V21h-1.17Zm8.08.16a3.3 3.3 0 0 1-1.85-.5 3.41 3.41 0 0 1-1.2-1.4 4.74 4.74 0 0 1-.41-2.04c0-.77.14-1.46.42-2.05.3-.6.7-1.06 1.2-1.4.52-.34 1.13-.5 1.82-.5.53 0 1.02.1 1.45.3a2.6 2.6 0 0 1 1.57 2.09h-1.17a1.79 1.79 0 0 0-1.83-1.33 1.9 1.9 0 0 0-1.2.35c-.35.23-.61.56-.8 1a3.7 3.7 0 0 0-.29 1.5c0 .6.1 1.1.28 1.54.19.44.45.78.8 1.02.34.24.74.37 1.2.37.31 0 .59-.06.84-.16a1.72 1.72 0 0 0 1-1.18h1.17a2.71 2.71 0 0 1-1.52 2.08c-.43.2-.92.3-1.48.3Zm7.92 0a3.26 3.26 0 0 1-3.13-1.86 4.68 4.68 0 0 1-.43-2.06c0-.78.14-1.47.43-2.07a3.23 3.23 0 0 1 3.01-1.9c.4 0 .79.06 1.18.2a2.92 2.92 0 0 1 1.81 1.81 5 5 0 0 1 .29 1.8v.5h-5.89v-1.01h4.7c0-.44-.1-.82-.26-1.16a1.95 1.95 0 0 0-1.83-1.1 2.2 2.2 0 0 0-2 1.26c-.18.36-.27.75-.27 1.17v.68c0 .58.1 1.07.3 1.47.2.4.48.7.84.9.36.21.77.32 1.25.32.3 0 .58-.05.83-.13a1.72 1.72 0 0 0 1.08-1.07l1.13.32a2.5 2.5 0 0 1-.6 1.01c-.28.3-.63.52-1.05.68-.41.16-.88.24-1.4.24Zm6.12-4.75V21H186v-7.64h1.14v1.2h.1c.17-.4.45-.7.81-.94.37-.24.84-.36 1.41-.36.52 0 .97.11 1.36.32.39.21.69.53.9.96.22.42.33.96.33 1.6V21h-1.17v-4.77c0-.6-.16-1.07-.47-1.4a1.65 1.65 0 0 0-1.28-.51c-.38 0-.71.08-1 .24-.3.16-.53.4-.7.71-.17.31-.25.7-.25 1.14Zm10.33-3.05v1h-3.95v-1h3.95Zm-2.8-1.83h1.17v7.28c0 .33.05.58.15.75.1.16.22.27.38.33.15.05.31.08.49.08l.32-.02.2-.04.23 1.05a2.33 2.33 0 0 1-.87.14c-.33 0-.66-.07-.98-.21a1.94 1.94 0 0 1-.78-.66 1.9 1.9 0 0 1-.31-1.1v-7.6Zm6.82 9.65c-.49 0-.93-.1-1.32-.27-.4-.19-.7-.46-.94-.8a2.26 2.26 0 0 1-.35-1.28c0-.44.09-.79.26-1.06.17-.28.4-.5.7-.65.28-.15.6-.27.94-.35.36-.08.7-.14 1.06-.18l1.13-.14c.3-.03.5-.09.64-.16.13-.08.2-.21.2-.4v-.04c0-.5-.13-.87-.4-1.14-.26-.28-.67-.41-1.2-.41a2.07 2.07 0 0 0-2 1.15l-1.11-.4a2.68 2.68 0 0 1 1.89-1.63 4.54 4.54 0 0 1 2.02-.07c.32.06.63.18.93.36.3.18.55.45.75.8.2.37.3.85.3 1.46V21h-1.18v-1.03h-.06a2.29 2.29 0 0 1-1.14 1.01c-.3.13-.68.2-1.12.2Zm.18-1.05c.46 0 .85-.1 1.17-.28a1.86 1.86 0 0 0 .97-1.61v-1.08a.71.71 0 0 1-.32.17 5.55 5.55 0 0 1-1.21.21l-.5.06c-.3.04-.59.1-.85.2-.26.08-.47.21-.64.39a1 1 0 0 0-.24.7c0 .41.16.72.46.93.3.2.69.3 1.16.3Zm6.63-3.72V21h-1.17v-7.64h1.13v1.2h.1c.18-.4.45-.7.82-.94.36-.24.83-.36 1.4-.36.53 0 .98.11 1.37.32.38.21.68.53.9.96.22.42.32.96.32 1.6V21h-1.17v-4.77c0-.6-.16-1.07-.47-1.4-.3-.34-.74-.51-1.28-.51-.38 0-.71.08-1 .24-.3.16-.53.4-.7.71-.16.31-.25.7-.25 1.14Zm10.1 7.61a4.2 4.2 0 0 1-1.46-.22 3.09 3.09 0 0 1-1.66-1.3l.93-.66c.1.13.24.3.4.47.17.18.39.34.67.47.29.14.66.2 1.12.2.62 0 1.13-.14 1.53-.44.4-.3.6-.76.6-1.4v-1.55h-.1l-.37.52c-.16.2-.38.38-.68.54-.29.15-.68.23-1.18.23a3.07 3.07 0 0 1-2.82-1.71 4.45 4.45 0 0 1-.42-2.03c0-.78.14-1.46.41-2.04a3.03 3.03 0 0 1 2.85-1.83c.5 0 .9.08 1.18.24.3.17.52.35.68.56l.37.5h.12v-1.2h1.13v7.85c0 .66-.15 1.19-.45 1.6-.3.41-.69.72-1.19.9-.5.2-1.05.3-1.66.3Zm-.04-4.2c.47 0 .87-.1 1.2-.32a2 2 0 0 0 .73-.93c.17-.4.26-.88.26-1.45 0-.55-.09-1.03-.25-1.45a2.19 2.19 0 0 0-.74-1 1.98 1.98 0 0 0-1.2-.35 2 2 0 0 0-1.98 1.39c-.17.42-.25.9-.25 1.41 0 .53.09 1 .25 1.4.17.41.42.73.75.96.33.23.74.35 1.23.35Zm8.69 1.34a3.27 3.27 0 0 1-3.13-1.86 4.68 4.68 0 0 1-.43-2.06c0-.78.14-1.47.43-2.07a3.23 3.23 0 0 1 3.01-1.9c.4 0 .8.06 1.18.2a2.92 2.92 0 0 1 1.82 1.81 5 5 0 0 1 .28 1.8v.5h-5.88v-1.01h4.69c0-.44-.09-.82-.26-1.16a1.95 1.95 0 0 0-1.83-1.1c-.47 0-.87.12-1.21.36-.34.22-.6.52-.78.9-.19.36-.28.75-.28 1.17v.68c0 .58.1 1.07.3 1.47.2.4.48.7.84.9.36.21.78.32 1.25.32.3 0 .59-.05.84-.13.25-.1.46-.23.65-.4.18-.18.32-.4.42-.67l1.13.32c-.12.38-.32.72-.6 1.01-.28.3-.63.52-1.04.68-.42.16-.88.24-1.4.24Zm10.36-6.09-1.06.3a1.95 1.95 0 0 0-.3-.51 1.5 1.5 0 0 0-.5-.42c-.23-.1-.5-.16-.85-.16a2 2 0 0 0-1.17.32c-.3.21-.46.48-.46.81 0 .3.1.52.32.7.21.16.54.3 1 .42l1.13.27c.68.17 1.19.42 1.52.76.34.34.5.78.5 1.31 0 .44-.12.83-.37 1.18-.25.34-.6.61-1.05.81-.44.2-.97.3-1.56.3-.78 0-1.42-.17-1.93-.5a2.25 2.25 0 0 1-.97-1.49l1.11-.28c.1.41.3.72.6.93.3.2.7.3 1.17.3.55 0 .98-.11 1.3-.34.33-.24.5-.52.5-.85 0-.26-.1-.49-.29-.66a1.78 1.78 0 0 0-.85-.41l-1.27-.3a3.03 3.03 0 0 1-1.54-.77c-.33-.35-.5-.8-.5-1.32 0-.43.13-.81.37-1.14.25-.33.58-.6 1-.78.42-.2.9-.29 1.44-.29.76 0 1.35.17 1.78.5.44.33.74.77.93 1.31Zm6.26.84a10.76 10.76 0 0 1 1.89-6.36h1.03a6.4 6.4 0 0 0-.67 1.2 14.8 14.8 0 0 0-1.04 5.15 13.81 13.81 0 0 0 .85 4.66c.25.7.54 1.28.86 1.71h-1.03a10.78 10.78 0 0 1-1.9-6.36Zm4.81 5.09V10.82h6.1v1.1h-4.87v3.43h4.42v1.1h-4.42V21h-1.23Zm8.43.08a.86.86 0 0 1-.63-.26.86.86 0 0 1-.26-.64.9.9 0 0 1 .26-.63.86.86 0 0 1 .63-.26.9.9 0 0 1 .9.89c0 .17-.04.32-.13.45a.93.93 0 0 1-.32.33.85.85 0 0 1-.45.12Zm3.86 0a.86.86 0 0 1-.63-.26.86.86 0 0 1-.26-.64c0-.24.08-.45.26-.63a.86.86 0 0 1 .63-.26c.25 0 .46.09.63.26.18.18.26.39.26.63a.92.92 0 0 1-.45.78.85.85 0 0 1-.44.12Zm3.86 0a.86.86 0 0 1-.64-.26.86.86 0 0 1-.26-.64.9.9 0 0 1 .26-.63.86.86 0 0 1 .64-.26.9.9 0 0 1 .77 1.34.93.93 0 0 1-.33.33.85.85 0 0 1-.44.12Z" fill="#194DCC"/><path fill-rule="evenodd" clip-rule="evenodd" d="M279.5 12a.33.33 0 0 1 .46 0l3.54 3.53 3.54-3.54a.33.33 0 1 1 .47.47L283.97 16l3.54 3.54a.33.33 0 0 1-.47.47l-3.54-3.54-3.54 3.54a.33.33 0 0 1-.47-.47l3.54-3.54-3.54-3.54a.33.33 0 0 1 0-.47Z" fill="#545454"/><rect x="1" y=".5" width="298" height="31" rx="3.5" stroke="#0F67F5"/></svg>