<svg width="173" height="32" fill="none" xmlns="http://www.w3.org/2000/svg"><rect x=".5" y=".5" width="172" height="31" rx="3.5" fill="#F0F6FE"/><path d="m21.75 21.8-.02-.01h-.06a.12.12 0 0 1-.12-.12c0-.57-.25-.99-.64-1.32-.36-.3-.87-.53-1.42-.78a6.32 6.32 0 0 1-1.9-1.14.57.57 0 0 1-.17-.27.32.32 0 0 1 .02-.17c.05-.16.18-.31.32-.46.2-.22.5-.54.74-1.06.23-.51.39-1.2.39-2.14 0-1.26-.28-2.1-.82-2.61-.53-.52-1.2-.6-1.72-.6s-1.19.08-1.72.6c-.54.5-.82 1.35-.82 2.61 0 .95.16 1.63.4 2.14.23.52.53.84.73 1.06.14.15.27.3.32.46.03.06.03.12.02.17a.57.57 0 0 1-.17.27c-.5.5-1.2.82-1.9 1.13a6.7 6.7 0 0 0-1.42.79c-.4.32-.64.74-.64 1.32 0 .07-.05.12-.12.12a.12.12 0 0 1-.12-.12c0-.66.27-1.1.66-1.45a6.3 6.3 0 0 1 1.56-.88 6.98 6.98 0 0 0 1.6-.9l.41-.34-.35-.39a3.94 3.94 0 0 1-.76-1.07 5.25 5.25 0 0 1-.45-2.3c0-1.62.48-2.45 1-2.89a2.76 2.76 0 0 1 1.79-.57c.56 0 1.24.12 1.79.57.52.44 1 1.27 1 2.89 0 1.07-.2 1.8-.45 2.3-.24.51-.53.83-.75 1.07l-.37.38.41.34c.47.4 1.08.67 1.6.9l.01.01a6.3 6.3 0 0 1 1.56.9c.4.34.66.78.66 1.44 0 .05-.03.1-.08.11Z" fill="#0F67F5" stroke="#0F67F5"/><path d="M29.65 21h-1.3l3.75-10.18h1.27L37.1 21h-1.3l-3.04-8.57h-.08L29.65 21Zm.48-3.98h5.2v1.1h-5.2v-1.1Zm11.25-3.66v1h-3.96v-1h3.96Zm-2.8-1.83h1.17v7.28c0 .33.04.58.14.75.1.16.23.27.38.33.15.05.32.08.5.08a2.07 2.07 0 0 0 .5-.06l.25 1.05a2.37 2.37 0 0 1-.88.14c-.33 0-.65-.07-.97-.21a1.94 1.94 0 0 1-.79-.66 1.9 1.9 0 0 1-.3-1.1v-7.6Zm7.58 9.63a3.2 3.2 0 0 1-1.81-.5 3.34 3.34 0 0 1-1.22-1.37 4.66 4.66 0 0 1-.43-2.07c0-.8.15-1.49.43-2.08a3.3 3.3 0 0 1 3.03-1.88 3.3 3.3 0 0 1 3.02 1.87c.3.6.44 1.3.44 2.1 0 .78-.14 1.47-.43 2.06a3.3 3.3 0 0 1-1.22 1.38 3.3 3.3 0 0 1-1.8.49Zm0-1.05c.53 0 .96-.14 1.3-.4.33-.28.58-.63.75-1.07a4.25 4.25 0 0 0 0-2.85 2.4 2.4 0 0 0-.75-1.06 2 2 0 0 0-1.3-.41 2 2 0 0 0-1.29.4 2.4 2.4 0 0 0-.75 1.07 4.1 4.1 0 0 0-.24 1.43c0 .51.08.99.24 1.42.16.44.41.8.75 1.06.34.27.77.4 1.3.4Zm12.51-6.75v1h-3.96v-1h3.96Zm-2.8-1.83h1.17v7.28c0 .33.05.58.15.75.1.16.22.27.37.33.16.05.32.08.5.08a2.07 2.07 0 0 0 .51-.06l.24 1.05a2.37 2.37 0 0 1-.87.14 2.4 2.4 0 0 1-.98-.21 1.94 1.94 0 0 1-.78-.66 1.9 1.9 0 0 1-.31-1.1v-7.6Zm5.9 4.88V21H60.6V10.82h1.17v3.74h.1c.18-.4.45-.71.8-.94a2.6 2.6 0 0 1 1.45-.36c.52 0 .98.1 1.37.32.39.2.7.52.9.95.23.42.34.96.34 1.62V21h-1.18v-4.77c0-.6-.15-1.08-.47-1.41a1.7 1.7 0 0 0-1.3-.5c-.38 0-.73.08-1.03.24-.3.16-.54.4-.72.71-.17.31-.26.7-.26 1.14Zm10.3 4.75a3.27 3.27 0 0 1-3.13-1.86 4.68 4.68 0 0 1-.43-2.06c0-.78.15-1.47.43-2.07.3-.6.7-1.06 1.2-1.4a3.62 3.62 0 0 1 2.99-.3 2.92 2.92 0 0 1 1.82 1.81 5 5 0 0 1 .29 1.8v.5h-5.89v-1.01h4.7c0-.44-.1-.82-.27-1.16a1.95 1.95 0 0 0-1.82-1.1c-.47 0-.88.12-1.22.36-.34.22-.6.52-.78.9-.18.36-.27.75-.27 1.17v.68c0 .58.1 1.07.3 1.47.2.4.48.7.84.9a2.7 2.7 0 0 0 2.08.19c.25-.1.47-.23.65-.4.18-.18.32-.4.42-.67l1.14.32c-.12.38-.32.72-.6 1.01-.29.3-.63.52-1.05.68-.41.16-.88.24-1.4.24Zm14.62-7.8c-.06-.5-.3-.9-.73-1.17a2.78 2.78 0 0 0-1.56-.42c-.45 0-.85.08-1.18.22-.34.15-.6.35-.79.6a1.44 1.44 0 0 0-.08 1.57c.13.2.3.36.5.49a4.9 4.9 0 0 0 1.27.5l1.03.28a9 9 0 0 1 .89.29c.33.12.64.29.94.5a2.32 2.32 0 0 1 1.04 2.01 2.77 2.77 0 0 1-1.69 2.56c-.54.26-1.2.39-2 .39a4.7 4.7 0 0 1-1.88-.35 2.8 2.8 0 0 1-1.76-2.45h1.26c.04.38.17.7.4.95.22.25.5.43.86.56.35.12.73.18 1.13.18.47 0 .9-.08 1.27-.23.37-.16.67-.37.89-.65.22-.28.33-.6.33-.97 0-.34-.1-.62-.29-.83a2.08 2.08 0 0 0-.74-.52 7.34 7.34 0 0 0-1-.34l-1.26-.36a4.66 4.66 0 0 1-1.89-.98c-.46-.43-.7-.98-.7-1.67 0-.57.16-1.06.47-1.49a3.1 3.1 0 0 1 1.25-1 4.23 4.23 0 0 1 1.77-.35c.66 0 1.24.12 1.75.35.5.23.91.55 1.21.96.3.4.46.86.48 1.37h-1.2Zm6.52 0v1h-3.96v-1h3.96Zm-2.8-1.83h1.17v7.28c0 .33.04.58.14.75.1.16.23.27.38.33.15.05.32.08.5.08l.3-.02.2-.04.25 1.05a2.38 2.38 0 0 1-.88.14c-.33 0-.65-.07-.97-.21a1.94 1.94 0 0 1-.79-.66 1.9 1.9 0 0 1-.3-1.1v-7.6Zm9.37 6.35v-4.52h1.18V21h-1.18v-1.3h-.07a2.5 2.5 0 0 1-.84 1c-.38.27-.86.4-1.43.4-.48 0-.9-.1-1.27-.31a2.2 2.2 0 0 1-.88-.96 3.63 3.63 0 0 1-.32-1.61v-4.86h1.18v4.78c0 .55.15 1 .46 1.33.32.33.72.5 1.2.5a2 2 0 0 0 1.97-2.1Zm6.21 3.28a2.99 2.99 0 0 1-2.83-1.86 5.01 5.01 0 0 1-.41-2.1 5 5 0 0 1 .41-2.09 3.03 3.03 0 0 1 2.85-1.85c.5 0 .89.09 1.18.25.29.17.51.35.67.56l.36.5h.1v-3.75h1.17V21h-1.13v-1.17h-.14l-.37.52c-.16.21-.39.4-.68.57-.3.16-.69.24-1.18.24Zm.16-1.05a2 2 0 0 0 1.2-.37c.32-.25.57-.6.73-1.03.17-.44.26-.95.26-1.53 0-.57-.09-1.07-.25-1.5a1.96 1.96 0 0 0-1.94-1.37c-.5 0-.91.14-1.24.4-.33.24-.58.59-.74 1.02a4.1 4.1 0 0 0-.25 1.45c0 .55.08 1.04.25 1.48.17.44.42.8.75 1.06s.74.39 1.23.39Zm8.85 1.05a3.27 3.27 0 0 1-3.13-1.86 4.68 4.68 0 0 1-.43-2.06c0-.78.15-1.47.43-2.07a3.23 3.23 0 0 1 3.01-1.9c.4 0 .8.06 1.18.2a2.92 2.92 0 0 1 1.82 1.81 5 5 0 0 1 .29 1.8v.5h-5.89v-1.01h4.7c0-.44-.1-.82-.27-1.16a1.95 1.95 0 0 0-1.82-1.1c-.47 0-.88.12-1.22.36-.34.22-.6.52-.78.9-.18.36-.27.75-.27 1.17v.68c0 .58.1 1.07.3 1.47.2.4.48.7.84.9a2.7 2.7 0 0 0 2.08.19c.25-.1.47-.23.65-.4.18-.18.32-.4.42-.67l1.14.32c-.12.38-.32.72-.6 1.01-.29.3-.64.52-1.05.68-.41.16-.88.24-1.4.24Zm6.12-4.75V21h-1.17v-7.64h1.13v1.2h.1c.18-.4.45-.7.82-.94a2.5 2.5 0 0 1 1.41-.36c.52 0 .97.11 1.36.32.39.21.69.53.9.96.22.42.33.96.33 1.6V21h-1.18v-4.77c0-.6-.15-1.07-.46-1.4a1.67 1.67 0 0 0-1.29-.51c-.37 0-.7.08-1 .24-.3.16-.52.4-.7.71-.16.31-.25.7-.25 1.14Zm10.34-3.05v1h-3.96v-1h3.96Zm-2.8-1.83h1.17v7.28c0 .33.05.58.14.75.1.16.23.27.38.33.16.05.32.08.5.08l.31-.02.2-.04.24 1.05a2.33 2.33 0 0 1-.88.14c-.33 0-.65-.07-.97-.21a1.93 1.93 0 0 1-.78-.66 1.83 1.83 0 0 1-.31-1.1v-7.6Z" fill="#0F67F5"/><path d="m153.12 16.3-.35-.35-.35.36-3.33 3.33a.12.12 0 0 1-.09.03.12.12 0 0 1-.09-.03.12.12 0 0 1-.03-.09c0-.04.01-.07.03-.09l3.33-3.33.36-.35-.36-.35-3.33-3.33a.12.12 0 0 1-.03-.09c0-.04.01-.07.03-.09a.12.12 0 0 1 .09-.03c.04 0 .07.01.09.03l3.33 3.33.35.36.35-.36 3.33-3.33a.12.12 0 0 1 .09-.03c.04 0 .07.01.09.03.02.02.03.05.03.09 0 .04-.01.07-.03.09l-3.33 3.33-.36.35.36.35 3.33 3.33c.02.02.03.05.03.09 0 .04-.01.07-.03.09a.12.12 0 0 1-.09.03.12.12 0 0 1-.09-.03l-3.33-3.33Z" fill="#0F67F5" stroke="#757575"/><rect x=".5" y=".5" width="172" height="31" rx="3.5" stroke="#0F67F5"/></svg>