<svg width="672" height="320" viewBox="0 0 672 320" fill="none" xmlns="http://www.w3.org/2000/svg">
<rect width="672" height="320" fill="#F6F6F6"/>
<rect x="238" y="113" width="78" height="55" fill="#0F67F5"/>
<rect x="356" y="113" width="78" height="55" fill="#757575"/>
<path d="M374.332 145L375.764 136.273H376.616L375.185 145H374.332ZM370.361 142.58L370.497 141.727H377.009L376.872 142.58H370.361ZM371.264 145L372.696 136.273H373.548L372.116 145H371.264ZM370.872 139.545L371.009 138.693H377.52L377.384 139.545H370.872ZM378.903 145L382.806 137.278V137.21H378.306V136.273H383.897V137.261L380.011 145H378.903ZM388.096 145.119C387.596 145.119 387.145 145.02 386.745 144.821C386.344 144.622 386.023 144.349 385.782 144.003C385.54 143.656 385.408 143.261 385.385 142.818H386.408C386.448 143.213 386.627 143.54 386.945 143.798C387.266 144.054 387.65 144.182 388.096 144.182C388.453 144.182 388.772 144.098 389.05 143.93C389.331 143.763 389.551 143.533 389.711 143.24C389.873 142.945 389.953 142.611 389.953 142.239C389.953 141.858 389.87 141.518 389.702 141.22C389.537 140.919 389.31 140.682 389.02 140.509C388.73 140.335 388.4 140.247 388.027 140.244C387.76 140.241 387.486 140.283 387.205 140.368C386.924 140.45 386.692 140.557 386.51 140.688L385.522 140.568L386.05 136.273H390.584V137.21H386.936L386.63 139.784H386.681C386.86 139.642 387.084 139.524 387.354 139.43C387.624 139.337 387.905 139.29 388.198 139.29C388.732 139.29 389.208 139.418 389.625 139.673C390.046 139.926 390.375 140.273 390.614 140.713C390.855 141.153 390.976 141.656 390.976 142.222C390.976 142.778 390.851 143.276 390.601 143.713C390.354 144.148 390.013 144.491 389.578 144.744C389.144 144.994 388.65 145.119 388.096 145.119ZM392.942 145L396.845 137.278V137.21H392.345V136.273H397.936V137.261L394.05 145H392.942ZM402.135 145.119C401.635 145.119 401.184 145.02 400.784 144.821C400.383 144.622 400.062 144.349 399.821 144.003C399.579 143.656 399.447 143.261 399.424 142.818H400.447C400.487 143.213 400.666 143.54 400.984 143.798C401.305 144.054 401.689 144.182 402.135 144.182C402.493 144.182 402.811 144.098 403.089 143.93C403.37 143.763 403.591 143.533 403.75 143.24C403.912 142.945 403.993 142.611 403.993 142.239C403.993 141.858 403.909 141.518 403.741 141.22C403.576 140.919 403.349 140.682 403.059 140.509C402.77 140.335 402.439 140.247 402.066 140.244C401.799 140.241 401.525 140.283 401.244 140.368C400.963 140.45 400.731 140.557 400.549 140.688L399.561 140.568L400.089 136.273H404.623V137.21H400.975L400.669 139.784H400.72C400.899 139.642 401.123 139.524 401.393 139.43C401.663 139.337 401.944 139.29 402.237 139.29C402.771 139.29 403.247 139.418 403.664 139.673C404.085 139.926 404.414 140.273 404.653 140.713C404.895 141.153 405.015 141.656 405.015 142.222C405.015 142.778 404.89 143.276 404.64 143.713C404.393 144.148 404.052 144.491 403.618 144.744C403.183 144.994 402.689 145.119 402.135 145.119ZM406.981 145L410.884 137.278V137.21H406.384V136.273H411.975V137.261L408.089 145H406.981ZM416.174 145.119C415.674 145.119 415.223 145.02 414.823 144.821C414.422 144.622 414.101 144.349 413.86 144.003C413.618 143.656 413.486 143.261 413.463 142.818H414.486C414.526 143.213 414.705 143.54 415.023 143.798C415.344 144.054 415.728 144.182 416.174 144.182C416.532 144.182 416.85 144.098 417.128 143.93C417.409 143.763 417.63 143.533 417.789 143.24C417.951 142.945 418.032 142.611 418.032 142.239C418.032 141.858 417.948 141.518 417.78 141.22C417.615 140.919 417.388 140.682 417.098 140.509C416.809 140.335 416.478 140.247 416.105 140.244C415.838 140.241 415.564 140.283 415.283 140.368C415.002 140.45 414.77 140.557 414.588 140.688L413.6 140.568L414.128 136.273H418.662V137.21H415.015L414.708 139.784H414.759C414.938 139.642 415.162 139.524 415.432 139.43C415.702 139.337 415.983 139.29 416.276 139.29C416.81 139.29 417.286 139.418 417.703 139.673C418.124 139.926 418.453 140.273 418.692 140.713C418.934 141.153 419.054 141.656 419.054 142.222C419.054 142.778 418.929 143.276 418.679 143.713C418.432 144.148 418.091 144.491 417.657 144.744C417.222 144.994 416.728 145.119 416.174 145.119Z" fill="white"/>
<path d="M256.276 145L257.708 136.273H258.56L257.128 145H256.276ZM252.304 142.58L252.441 141.727H258.952L258.816 142.58H252.304ZM253.208 145L254.639 136.273H255.492L254.06 145H253.208ZM252.816 139.545L252.952 138.693H259.463L259.327 139.545H252.816ZM263.42 145.119C262.778 145.119 262.231 144.945 261.779 144.595C261.328 144.243 260.982 143.733 260.744 143.065C260.505 142.395 260.386 141.585 260.386 140.636C260.386 139.693 260.505 138.888 260.744 138.22C260.985 137.55 261.332 137.038 261.784 136.686C262.238 136.331 262.784 136.153 263.42 136.153C264.056 136.153 264.6 136.331 265.052 136.686C265.507 137.038 265.853 137.55 266.092 138.22C266.333 138.888 266.454 139.693 266.454 140.636C266.454 141.585 266.335 142.395 266.096 143.065C265.857 143.733 265.512 144.243 265.061 144.595C264.609 144.945 264.062 145.119 263.42 145.119ZM263.42 144.182C264.056 144.182 264.551 143.875 264.903 143.261C265.255 142.648 265.431 141.773 265.431 140.636C265.431 139.881 265.35 139.237 265.188 138.706C265.029 138.175 264.799 137.77 264.498 137.491C264.2 137.213 263.84 137.074 263.42 137.074C262.789 137.074 262.296 137.385 261.941 138.007C261.586 138.626 261.409 139.503 261.409 140.636C261.409 141.392 261.488 142.034 261.647 142.562C261.806 143.091 262.035 143.493 262.333 143.768C262.634 144.044 262.997 144.182 263.42 144.182ZM268.227 145V136.273H273.46V137.21H269.284V140.159H273.068V141.097H269.284V145H268.227ZM278.014 145.119C277.656 145.114 277.298 145.045 276.94 144.915C276.582 144.784 276.256 144.564 275.96 144.254C275.665 143.942 275.427 143.52 275.248 142.989C275.069 142.455 274.98 141.784 274.98 140.977C274.98 140.205 275.052 139.52 275.197 138.923C275.342 138.324 275.552 137.82 275.828 137.411C276.104 136.999 276.436 136.686 276.825 136.473C277.217 136.26 277.659 136.153 278.15 136.153C278.639 136.153 279.074 136.251 279.454 136.447C279.838 136.641 280.15 136.911 280.392 137.257C280.633 137.604 280.79 138.003 280.861 138.455H279.821C279.724 138.062 279.537 137.737 279.258 137.479C278.98 137.22 278.611 137.091 278.15 137.091C277.474 137.091 276.942 137.385 276.552 137.973C276.166 138.561 275.971 139.386 275.969 140.449H276.037C276.196 140.207 276.385 140.001 276.604 139.831C276.825 139.658 277.069 139.524 277.336 139.43C277.604 139.337 277.886 139.29 278.184 139.29C278.684 139.29 279.142 139.415 279.557 139.665C279.971 139.912 280.304 140.254 280.554 140.692C280.804 141.126 280.929 141.625 280.929 142.188C280.929 142.727 280.808 143.222 280.567 143.67C280.325 144.116 279.986 144.472 279.548 144.736C279.113 144.997 278.602 145.125 278.014 145.119ZM278.014 144.182C278.372 144.182 278.693 144.092 278.977 143.913C279.264 143.734 279.49 143.494 279.655 143.193C279.822 142.892 279.906 142.557 279.906 142.188C279.906 141.827 279.825 141.499 279.663 141.203C279.504 140.905 279.284 140.668 279.003 140.491C278.724 140.315 278.406 140.227 278.048 140.227C277.778 140.227 277.527 140.281 277.294 140.389C277.061 140.494 276.856 140.639 276.68 140.824C276.507 141.009 276.371 141.22 276.271 141.459C276.172 141.695 276.122 141.943 276.122 142.205C276.122 142.551 276.203 142.875 276.365 143.176C276.53 143.477 276.754 143.72 277.038 143.905C277.325 144.089 277.65 144.182 278.014 144.182ZM282.877 145L286.781 137.278V137.21H282.281V136.273H287.872V137.261L283.985 145H282.877ZM289.613 145V136.273H294.846V137.21H290.67V140.159H294.454V141.097H290.67V145H289.613ZM299.23 145.119C298.73 145.119 298.28 145.02 297.879 144.821C297.479 144.622 297.158 144.349 296.916 144.003C296.675 143.656 296.543 143.261 296.52 142.818H297.543C297.583 143.213 297.762 143.54 298.08 143.798C298.401 144.054 298.784 144.182 299.23 144.182C299.588 144.182 299.906 144.098 300.185 143.93C300.466 143.763 300.686 143.533 300.845 143.24C301.007 142.945 301.088 142.611 301.088 142.239C301.088 141.858 301.004 141.518 300.837 141.22C300.672 140.919 300.445 140.682 300.155 140.509C299.865 140.335 299.534 140.247 299.162 140.244C298.895 140.241 298.621 140.283 298.34 140.368C298.058 140.45 297.827 140.557 297.645 140.688L296.656 140.568L297.185 136.273H301.719V137.21H298.071L297.764 139.784H297.816C297.994 139.642 298.219 139.524 298.489 139.43C298.759 139.337 299.04 139.29 299.333 139.29C299.867 139.29 300.343 139.418 300.76 139.673C301.181 139.926 301.51 140.273 301.749 140.713C301.99 141.153 302.111 141.656 302.111 142.222C302.111 142.778 301.986 143.276 301.736 143.713C301.489 144.148 301.148 144.491 300.713 144.744C300.279 144.994 299.784 145.119 299.23 145.119Z" fill="white"/>
<rect x="238" y="53" width="78" height="55" fill="#F3F8FF"/>
<rect x="356" y="53" width="78" height="55" fill="white"/>
<path d="M374.262 85L375.694 76.2727H376.546L375.114 85H374.262ZM370.29 82.5795L370.427 81.7273H376.938L376.802 82.5795H370.29ZM371.194 85L372.626 76.2727H373.478L372.046 85H371.194ZM370.802 79.5455L370.938 78.6932H377.45L377.313 79.5455H370.802ZM378.713 85V76.2727H383.946V77.2102H379.77V80.1591H383.554V81.0966H379.77V85H378.713ZM385.756 85V76.2727H390.989V77.2102H386.813V80.1591H390.597V81.0966H386.813V85H385.756ZM392.799 85V76.2727H398.032V77.2102H393.856V80.1591H397.64V81.0966H393.856V85H392.799ZM399.842 85V76.2727H405.075V77.2102H400.899V80.1591H404.683V81.0966H400.899V85H399.842ZM406.885 85V76.2727H412.118V77.2102H407.942V80.1591H411.726V81.0966H407.942V85H406.885ZM413.928 85V76.2727H419.161V77.2102H414.985V80.1591H418.769V81.0966H414.985V85H413.928Z" fill="#0F0F0F"/>
<path d="M256.287 85L257.719 76.2727H258.572L257.14 85H256.287ZM252.316 82.5795L252.452 81.7273H258.964L258.827 82.5795H252.316ZM253.219 85L254.651 76.2727H255.503L254.072 85H253.219ZM252.827 79.5455L252.964 78.6932H259.475L259.339 79.5455H252.827ZM260.738 85V76.2727H265.971V77.2102H261.795V80.1591H265.579V81.0966H261.795V85H260.738ZM270.577 85.1193C270.014 85.1193 269.513 85.0227 269.073 84.8295C268.635 84.6364 268.287 84.3679 268.029 84.0241C267.773 83.6776 267.634 83.2756 267.611 82.8182H268.685C268.708 83.0994 268.804 83.3423 268.975 83.5469C269.145 83.7486 269.368 83.9048 269.644 84.0156C269.919 84.1264 270.225 84.1818 270.56 84.1818C270.935 84.1818 271.267 84.1165 271.557 83.9858C271.847 83.8551 272.074 83.6733 272.239 83.4403C272.404 83.2074 272.486 82.9375 272.486 82.6307C272.486 82.3097 272.406 82.027 272.247 81.7827C272.088 81.5355 271.855 81.3423 271.548 81.2031C271.242 81.0639 270.867 80.9943 270.423 80.9943H269.725V80.0568H270.423C270.77 80.0568 271.074 79.9943 271.335 79.8693C271.6 79.7443 271.806 79.5682 271.953 79.3409C272.104 79.1136 272.179 78.8466 272.179 78.5398C272.179 78.2443 272.114 77.9872 271.983 77.7685C271.852 77.5497 271.668 77.3793 271.429 77.2571C271.193 77.1349 270.915 77.0739 270.594 77.0739C270.293 77.0739 270.009 77.1293 269.742 77.2401C269.477 77.348 269.262 77.5057 269.094 77.7131C268.926 77.9176 268.835 78.1648 268.821 78.4545H267.798C267.816 77.9972 267.953 77.5966 268.212 77.2528C268.47 76.9062 268.808 76.6364 269.226 76.4432C269.646 76.25 270.108 76.1534 270.611 76.1534C271.151 76.1534 271.614 76.2628 272 76.4815C272.387 76.6974 272.683 76.983 272.891 77.3381C273.098 77.6932 273.202 78.0767 273.202 78.4886C273.202 78.9801 273.073 79.3991 272.814 79.7457C272.558 80.0923 272.21 80.3324 271.77 80.4659V80.5341C272.321 80.625 272.752 80.8594 273.061 81.2372C273.371 81.6122 273.526 82.0767 273.526 82.6307C273.526 83.1051 273.396 83.5312 273.138 83.9091C272.882 84.2841 272.533 84.5795 272.09 84.7955C271.646 85.0114 271.142 85.1193 270.577 85.1193ZM275.422 85V76.2727H280.655V77.2102H276.479V80.1591H280.263V81.0966H276.479V85H275.422ZM285.107 85.1193C284.522 85.1193 284.005 85.0156 283.556 84.8082C283.11 84.598 282.762 84.3097 282.512 83.9432C282.262 83.5739 282.138 83.1534 282.141 82.6818C282.138 82.3125 282.211 81.9716 282.358 81.6591C282.506 81.3437 282.708 81.081 282.964 80.8707C283.222 80.6577 283.51 80.5227 283.829 80.4659V80.4148C283.411 80.3068 283.079 80.0724 282.831 79.7116C282.584 79.348 282.462 78.9347 282.465 78.4716C282.462 78.0284 282.574 77.6321 282.802 77.2827C283.029 76.9332 283.341 76.6577 283.739 76.456C284.14 76.2543 284.596 76.1534 285.107 76.1534C285.613 76.1534 286.064 76.2543 286.462 76.456C286.86 76.6577 287.172 76.9332 287.4 77.2827C287.63 77.6321 287.746 78.0284 287.749 78.4716C287.746 78.9347 287.62 79.348 287.37 79.7116C287.123 80.0724 286.795 80.3068 286.385 80.4148V80.4659C286.701 80.5227 286.985 80.6577 287.238 80.8707C287.491 81.081 287.692 81.3437 287.843 81.6591C287.993 81.9716 288.07 82.3125 288.073 82.6818C288.07 83.1534 287.942 83.5739 287.689 83.9432C287.439 84.3097 287.091 84.598 286.645 84.8082C286.202 85.0156 285.689 85.1193 285.107 85.1193ZM285.107 84.1818C285.502 84.1818 285.843 84.1179 286.13 83.9901C286.417 83.8622 286.638 83.6818 286.795 83.4489C286.951 83.2159 287.03 82.9432 287.033 82.6307C287.03 82.3011 286.945 82.0099 286.778 81.7571C286.61 81.5043 286.381 81.3054 286.091 81.1605C285.805 81.0156 285.476 80.9432 285.107 80.9432C284.735 80.9432 284.403 81.0156 284.11 81.1605C283.82 81.3054 283.591 81.5043 283.424 81.7571C283.259 82.0099 283.178 82.3011 283.181 82.6307C283.178 82.9432 283.253 83.2159 283.407 83.4489C283.563 83.6818 283.786 83.8622 284.076 83.9901C284.366 84.1179 284.709 84.1818 285.107 84.1818ZM285.107 80.0398C285.42 80.0398 285.697 79.9773 285.938 79.8523C286.182 79.7273 286.374 79.5526 286.513 79.3281C286.653 79.1037 286.724 78.8409 286.726 78.5398C286.724 78.2443 286.654 77.9872 286.518 77.7685C286.381 77.5469 286.192 77.3764 285.951 77.2571C285.709 77.1349 285.428 77.0739 285.107 77.0739C284.78 77.0739 284.495 77.1349 284.251 77.2571C284.006 77.3764 283.817 77.5469 283.684 77.7685C283.55 77.9872 283.485 78.2443 283.488 78.5398C283.485 78.8409 283.552 79.1037 283.688 79.3281C283.827 79.5526 284.019 79.7273 284.263 79.8523C284.508 79.9773 284.789 80.0398 285.107 80.0398ZM289.86 85V76.2727H295.093V77.2102H290.916V80.1591H294.7V81.0966H290.916V85H289.86ZM296.903 85V76.2727H302.135V77.2102H297.959V80.1591H301.743V81.0966H297.959V85H296.903Z" fill="#0F0F0F"/>
<rect x="238" y="173" width="78" height="55" fill="#184BC8"/>
<rect x="356" y="173" width="78" height="55" fill="#545454"/>
<path d="M373.391 205L374.823 196.273H375.675L374.243 205H373.391ZM369.419 202.58L369.556 201.727H376.067L375.931 202.58H369.419ZM370.323 205L371.755 196.273H372.607L371.175 205H370.323ZM369.931 199.545L370.067 198.693H376.578L376.442 199.545H369.931ZM380.416 205.119C379.916 205.119 379.466 205.02 379.065 204.821C378.664 204.622 378.343 204.349 378.102 204.003C377.86 203.656 377.728 203.261 377.706 202.818H378.728C378.768 203.213 378.947 203.54 379.265 203.798C379.586 204.054 379.97 204.182 380.416 204.182C380.774 204.182 381.092 204.098 381.37 203.93C381.652 203.763 381.872 203.533 382.031 203.24C382.193 202.945 382.274 202.611 382.274 202.239C382.274 201.858 382.19 201.518 382.022 201.22C381.858 200.919 381.63 200.682 381.341 200.509C381.051 200.335 380.72 200.247 380.348 200.244C380.081 200.241 379.806 200.283 379.525 200.368C379.244 200.45 379.012 200.557 378.831 200.688L377.842 200.568L378.37 196.273H382.904V197.21H379.257L378.95 199.784H379.001C379.18 199.642 379.404 199.524 379.674 199.43C379.944 199.337 380.225 199.29 380.518 199.29C381.052 199.29 381.528 199.418 381.946 199.673C382.366 199.926 382.696 200.273 382.934 200.713C383.176 201.153 383.297 201.656 383.297 202.222C383.297 202.778 383.172 203.276 382.922 203.713C382.674 204.148 382.333 204.491 381.899 204.744C381.464 204.994 380.97 205.119 380.416 205.119ZM384.785 203.21V202.341L388.62 196.273H389.251V197.619H388.825L385.927 202.205V202.273H391.092V203.21H384.785ZM388.893 205V202.946V202.541V196.273H389.898V205H388.893ZM395.416 205.119C394.916 205.119 394.466 205.02 394.065 204.821C393.664 204.622 393.343 204.349 393.102 204.003C392.86 203.656 392.728 203.261 392.706 202.818H393.728C393.768 203.213 393.947 203.54 394.265 203.798C394.586 204.054 394.97 204.182 395.416 204.182C395.774 204.182 396.092 204.098 396.37 203.93C396.652 203.763 396.872 203.533 397.031 203.24C397.193 202.945 397.274 202.611 397.274 202.239C397.274 201.858 397.19 201.518 397.022 201.22C396.858 200.919 396.63 200.682 396.341 200.509C396.051 200.335 395.72 200.247 395.348 200.244C395.081 200.241 394.806 200.283 394.525 200.368C394.244 200.45 394.012 200.557 393.831 200.688L392.842 200.568L393.37 196.273H397.904V197.21H394.257L393.95 199.784H394.001C394.18 199.642 394.404 199.524 394.674 199.43C394.944 199.337 395.225 199.29 395.518 199.29C396.052 199.29 396.528 199.418 396.946 199.673C397.366 199.926 397.696 200.273 397.934 200.713C398.176 201.153 398.297 201.656 398.297 202.222C398.297 202.778 398.172 203.276 397.922 203.713C397.674 204.148 397.333 204.491 396.899 204.744C396.464 204.994 395.97 205.119 395.416 205.119ZM399.785 203.21V202.341L403.62 196.273H404.251V197.619H403.825L400.927 202.205V202.273H406.092V203.21H399.785ZM403.893 205V202.946V202.541V196.273H404.898V205H403.893ZM410.416 205.119C409.916 205.119 409.466 205.02 409.065 204.821C408.664 204.622 408.343 204.349 408.102 204.003C407.86 203.656 407.728 203.261 407.706 202.818H408.728C408.768 203.213 408.947 203.54 409.265 203.798C409.586 204.054 409.97 204.182 410.416 204.182C410.774 204.182 411.092 204.098 411.37 203.93C411.652 203.763 411.872 203.533 412.031 203.24C412.193 202.945 412.274 202.611 412.274 202.239C412.274 201.858 412.19 201.518 412.022 201.22C411.858 200.919 411.63 200.682 411.341 200.509C411.051 200.335 410.72 200.247 410.348 200.244C410.081 200.241 409.806 200.283 409.525 200.368C409.244 200.45 409.012 200.557 408.831 200.688L407.842 200.568L408.37 196.273H412.904V197.21H409.257L408.95 199.784H409.001C409.18 199.642 409.404 199.524 409.674 199.43C409.944 199.337 410.225 199.29 410.518 199.29C411.052 199.29 411.528 199.418 411.946 199.673C412.366 199.926 412.696 200.273 412.934 200.713C413.176 201.153 413.297 201.656 413.297 202.222C413.297 202.778 413.172 203.276 412.922 203.713C412.674 204.148 412.333 204.491 411.899 204.744C411.464 204.994 410.97 205.119 410.416 205.119ZM414.785 203.21V202.341L418.62 196.273H419.251V197.619H418.825L415.927 202.205V202.273H421.092V203.21H414.785ZM418.893 205V202.946V202.541V196.273H419.898V205H418.893Z" fill="white"/>
<path d="M255.59 205L257.022 196.273H257.874L256.442 205H255.59ZM251.619 202.58L251.755 201.727H258.266L258.13 202.58H251.619ZM252.522 205L253.954 196.273H254.806L253.374 205H252.522ZM252.13 199.545L252.266 198.693H258.778L258.641 199.545H252.13ZM262.956 196.273V205H261.899V197.381H261.848L259.717 198.795V197.722L261.899 196.273H262.956ZM268.261 205.119C267.676 205.119 267.159 205.016 266.71 204.808C266.264 204.598 265.916 204.31 265.666 203.943C265.416 203.574 265.293 203.153 265.295 202.682C265.293 202.312 265.365 201.972 265.513 201.659C265.661 201.344 265.862 201.081 266.118 200.871C266.376 200.658 266.665 200.523 266.983 200.466V200.415C266.565 200.307 266.233 200.072 265.986 199.712C265.739 199.348 265.616 198.935 265.619 198.472C265.616 198.028 265.729 197.632 265.956 197.283C266.183 196.933 266.496 196.658 266.893 196.456C267.294 196.254 267.75 196.153 268.261 196.153C268.767 196.153 269.219 196.254 269.616 196.456C270.014 196.658 270.327 196.933 270.554 197.283C270.784 197.632 270.901 198.028 270.903 198.472C270.901 198.935 270.774 199.348 270.524 199.712C270.277 200.072 269.949 200.307 269.54 200.415V200.466C269.855 200.523 270.139 200.658 270.392 200.871C270.645 201.081 270.847 201.344 270.997 201.659C271.148 201.972 271.224 202.312 271.227 202.682C271.224 203.153 271.097 203.574 270.844 203.943C270.594 204.31 270.246 204.598 269.8 204.808C269.357 205.016 268.844 205.119 268.261 205.119ZM268.261 204.182C268.656 204.182 268.997 204.118 269.284 203.99C269.571 203.862 269.793 203.682 269.949 203.449C270.105 203.216 270.185 202.943 270.188 202.631C270.185 202.301 270.099 202.01 269.932 201.757C269.764 201.504 269.536 201.305 269.246 201.161C268.959 201.016 268.631 200.943 268.261 200.943C267.889 200.943 267.557 201.016 267.264 201.161C266.974 201.305 266.746 201.504 266.578 201.757C266.413 202.01 266.332 202.301 266.335 202.631C266.332 202.943 266.408 203.216 266.561 203.449C266.717 203.682 266.94 203.862 267.23 203.99C267.52 204.118 267.864 204.182 268.261 204.182ZM268.261 200.04C268.574 200.04 268.851 199.977 269.092 199.852C269.337 199.727 269.528 199.553 269.668 199.328C269.807 199.104 269.878 198.841 269.881 198.54C269.878 198.244 269.808 197.987 269.672 197.768C269.536 197.547 269.347 197.376 269.105 197.257C268.864 197.135 268.582 197.074 268.261 197.074C267.935 197.074 267.649 197.135 267.405 197.257C267.161 197.376 266.972 197.547 266.838 197.768C266.705 197.987 266.639 198.244 266.642 198.54C266.639 198.841 266.706 199.104 266.842 199.328C266.982 199.553 267.173 199.727 267.418 199.852C267.662 199.977 267.943 200.04 268.261 200.04ZM272.656 203.21V202.341L276.491 196.273H277.122V197.619H276.696L273.798 202.205V202.273H278.963V203.21H272.656ZM276.764 205V202.946V202.541V196.273H277.77V205H276.764ZM280.713 205V196.273H283.764C284.372 196.273 284.874 196.378 285.268 196.588C285.663 196.795 285.957 197.075 286.151 197.428C286.344 197.777 286.44 198.165 286.44 198.591C286.44 198.966 286.374 199.276 286.24 199.52C286.109 199.764 285.936 199.957 285.72 200.099C285.507 200.241 285.276 200.347 285.026 200.415V200.5C285.293 200.517 285.561 200.611 285.831 200.781C286.101 200.952 286.327 201.196 286.509 201.514C286.69 201.832 286.781 202.222 286.781 202.682C286.781 203.119 286.682 203.513 286.483 203.862C286.284 204.212 285.97 204.489 285.541 204.693C285.112 204.898 284.554 205 283.866 205H280.713ZM281.77 204.062H283.866C284.557 204.062 285.047 203.929 285.337 203.662C285.629 203.392 285.776 203.065 285.776 202.682C285.776 202.386 285.7 202.114 285.55 201.864C285.399 201.611 285.185 201.409 284.906 201.259C284.628 201.105 284.298 201.028 283.918 201.028H281.77V204.062ZM281.77 200.108H283.73C284.048 200.108 284.335 200.045 284.591 199.92C284.849 199.795 285.054 199.619 285.205 199.392C285.358 199.165 285.435 198.898 285.435 198.591C285.435 198.207 285.301 197.882 285.034 197.615C284.767 197.345 284.344 197.21 283.764 197.21H281.77V200.108ZM295.54 199H294.484C294.421 198.696 294.312 198.429 294.156 198.199C294.002 197.969 293.815 197.776 293.593 197.619C293.374 197.46 293.131 197.341 292.864 197.261C292.597 197.182 292.319 197.142 292.029 197.142C291.501 197.142 291.022 197.276 290.593 197.543C290.167 197.81 289.827 198.203 289.575 198.723C289.325 199.243 289.2 199.881 289.2 200.636C289.2 201.392 289.325 202.03 289.575 202.55C289.827 203.07 290.167 203.463 290.593 203.73C291.022 203.997 291.501 204.131 292.029 204.131C292.319 204.131 292.597 204.091 292.864 204.011C293.131 203.932 293.374 203.814 293.593 203.658C293.815 203.499 294.002 203.304 294.156 203.074C294.312 202.841 294.421 202.574 294.484 202.273H295.54C295.461 202.719 295.316 203.118 295.106 203.47C294.896 203.822 294.634 204.122 294.322 204.369C294.009 204.614 293.658 204.8 293.269 204.928C292.883 205.055 292.469 205.119 292.029 205.119C291.285 205.119 290.623 204.938 290.043 204.574C289.464 204.21 289.008 203.693 288.675 203.023C288.343 202.352 288.177 201.557 288.177 200.636C288.177 199.716 288.343 198.92 288.675 198.25C289.008 197.58 289.464 197.062 290.043 196.699C290.623 196.335 291.285 196.153 292.029 196.153C292.469 196.153 292.883 196.217 293.269 196.345C293.658 196.473 294.009 196.661 294.322 196.908C294.634 197.152 294.896 197.45 295.106 197.803C295.316 198.152 295.461 198.551 295.54 199ZM299.89 205.119C299.305 205.119 298.788 205.016 298.339 204.808C297.893 204.598 297.545 204.31 297.295 203.943C297.045 203.574 296.922 203.153 296.924 202.682C296.922 202.312 296.994 201.972 297.142 201.659C297.289 201.344 297.491 201.081 297.747 200.871C298.005 200.658 298.294 200.523 298.612 200.466V200.415C298.194 200.307 297.862 200.072 297.615 199.712C297.368 199.348 297.245 198.935 297.248 198.472C297.245 198.028 297.358 197.632 297.585 197.283C297.812 196.933 298.125 196.658 298.522 196.456C298.923 196.254 299.379 196.153 299.89 196.153C300.396 196.153 300.848 196.254 301.245 196.456C301.643 196.658 301.956 196.933 302.183 197.283C302.413 197.632 302.529 198.028 302.532 198.472C302.529 198.935 302.403 199.348 302.153 199.712C301.906 200.072 301.578 200.307 301.169 200.415V200.466C301.484 200.523 301.768 200.658 302.021 200.871C302.274 201.081 302.475 201.344 302.626 201.659C302.777 201.972 302.853 202.312 302.856 202.682C302.853 203.153 302.725 203.574 302.473 203.943C302.223 204.31 301.875 204.598 301.429 204.808C300.985 205.016 300.473 205.119 299.89 205.119ZM299.89 204.182C300.285 204.182 300.626 204.118 300.913 203.99C301.2 203.862 301.422 203.682 301.578 203.449C301.734 203.216 301.814 202.943 301.816 202.631C301.814 202.301 301.728 202.01 301.561 201.757C301.393 201.504 301.164 201.305 300.875 201.161C300.588 201.016 300.26 200.943 299.89 200.943C299.518 200.943 299.186 201.016 298.893 201.161C298.603 201.305 298.375 201.504 298.207 201.757C298.042 202.01 297.961 202.301 297.964 202.631C297.961 202.943 298.037 203.216 298.19 203.449C298.346 203.682 298.569 203.862 298.859 203.99C299.149 204.118 299.493 204.182 299.89 204.182ZM299.89 200.04C300.203 200.04 300.48 199.977 300.721 199.852C300.966 199.727 301.157 199.553 301.297 199.328C301.436 199.104 301.507 198.841 301.51 198.54C301.507 198.244 301.437 197.987 301.301 197.768C301.164 197.547 300.975 197.376 300.734 197.257C300.493 197.135 300.211 197.074 299.89 197.074C299.564 197.074 299.278 197.135 299.034 197.257C298.789 197.376 298.6 197.547 298.467 197.768C298.333 197.987 298.268 198.244 298.271 198.54C298.268 198.841 298.335 199.104 298.471 199.328C298.61 199.553 298.802 199.727 299.047 199.852C299.291 199.977 299.572 200.04 299.89 200.04Z" fill="white"/>
<rect x="238" y="233" width="78" height="55" fill="#102DA3"/>
<rect x="356" y="233" width="78" height="55" fill="#333333"/>
<path d="M372.469 265L373.901 256.273H374.753L373.321 265H372.469ZM368.498 262.58L368.634 261.727H375.145L375.009 262.58H368.498ZM369.401 265L370.833 256.273H371.685L370.253 265H369.401ZM369.009 259.545L369.145 258.693H375.657L375.52 259.545H369.009ZM379.716 265.119C379.153 265.119 378.652 265.023 378.211 264.83C377.774 264.636 377.426 264.368 377.167 264.024C376.912 263.678 376.772 263.276 376.75 262.818H377.824C377.846 263.099 377.943 263.342 378.113 263.547C378.284 263.749 378.507 263.905 378.782 264.016C379.058 264.126 379.363 264.182 379.699 264.182C380.074 264.182 380.406 264.116 380.696 263.986C380.985 263.855 381.213 263.673 381.377 263.44C381.542 263.207 381.625 262.938 381.625 262.631C381.625 262.31 381.545 262.027 381.386 261.783C381.227 261.536 380.994 261.342 380.687 261.203C380.38 261.064 380.005 260.994 379.562 260.994H378.863V260.057H379.562C379.909 260.057 380.213 259.994 380.474 259.869C380.738 259.744 380.944 259.568 381.092 259.341C381.243 259.114 381.318 258.847 381.318 258.54C381.318 258.244 381.252 257.987 381.122 257.768C380.991 257.55 380.806 257.379 380.568 257.257C380.332 257.135 380.054 257.074 379.733 257.074C379.431 257.074 379.147 257.129 378.88 257.24C378.616 257.348 378.4 257.506 378.233 257.713C378.065 257.918 377.974 258.165 377.96 258.455H376.937C376.954 257.997 377.092 257.597 377.35 257.253C377.609 256.906 377.947 256.636 378.365 256.443C378.785 256.25 379.247 256.153 379.75 256.153C380.289 256.153 380.752 256.263 381.139 256.482C381.525 256.697 381.822 256.983 382.029 257.338C382.237 257.693 382.341 258.077 382.341 258.489C382.341 258.98 382.211 259.399 381.953 259.746C381.697 260.092 381.349 260.332 380.909 260.466V260.534C381.46 260.625 381.89 260.859 382.2 261.237C382.51 261.612 382.664 262.077 382.664 262.631C382.664 263.105 382.535 263.531 382.277 263.909C382.021 264.284 381.672 264.58 381.228 264.795C380.785 265.011 380.281 265.119 379.716 265.119ZM387.356 265.119C386.794 265.119 386.292 265.023 385.852 264.83C385.414 264.636 385.066 264.368 384.808 264.024C384.552 263.678 384.413 263.276 384.39 262.818H385.464C385.487 263.099 385.583 263.342 385.754 263.547C385.924 263.749 386.147 263.905 386.423 264.016C386.699 264.126 387.004 264.182 387.339 264.182C387.714 264.182 388.047 264.116 388.336 263.986C388.626 263.855 388.853 263.673 389.018 263.44C389.183 263.207 389.265 262.938 389.265 262.631C389.265 262.31 389.186 262.027 389.027 261.783C388.868 261.536 388.635 261.342 388.328 261.203C388.021 261.064 387.646 260.994 387.203 260.994H386.504V260.057H387.203C387.549 260.057 387.853 259.994 388.115 259.869C388.379 259.744 388.585 259.568 388.733 259.341C388.883 259.114 388.958 258.847 388.958 258.54C388.958 258.244 388.893 257.987 388.762 257.768C388.632 257.55 388.447 257.379 388.208 257.257C387.973 257.135 387.694 257.074 387.373 257.074C387.072 257.074 386.788 257.129 386.521 257.24C386.257 257.348 386.041 257.506 385.873 257.713C385.706 257.918 385.615 258.165 385.6 258.455H384.578C384.595 257.997 384.733 257.597 384.991 257.253C385.25 256.906 385.588 256.636 386.005 256.443C386.426 256.25 386.887 256.153 387.39 256.153C387.93 256.153 388.393 256.263 388.779 256.482C389.166 256.697 389.463 256.983 389.67 257.338C389.877 257.693 389.981 258.077 389.981 258.489C389.981 258.98 389.852 259.399 389.593 259.746C389.338 260.092 388.99 260.332 388.549 260.466V260.534C389.1 260.625 389.531 260.859 389.841 261.237C390.15 261.612 390.305 262.077 390.305 262.631C390.305 263.105 390.176 263.531 389.917 263.909C389.662 264.284 389.312 264.58 388.869 264.795C388.426 265.011 387.922 265.119 387.356 265.119ZM394.997 265.119C394.434 265.119 393.933 265.023 393.493 264.83C393.055 264.636 392.707 264.368 392.449 264.024C392.193 263.678 392.054 263.276 392.031 262.818H393.105C393.127 263.099 393.224 263.342 393.395 263.547C393.565 263.749 393.788 263.905 394.064 264.016C394.339 264.126 394.645 264.182 394.98 264.182C395.355 264.182 395.687 264.116 395.977 263.986C396.267 263.855 396.494 263.673 396.659 263.44C396.824 263.207 396.906 262.938 396.906 262.631C396.906 262.31 396.826 262.027 396.667 261.783C396.508 261.536 396.275 261.342 395.968 261.203C395.662 261.064 395.287 260.994 394.843 260.994H394.145V260.057H394.843C395.19 260.057 395.494 259.994 395.755 259.869C396.02 259.744 396.225 259.568 396.373 259.341C396.524 259.114 396.599 258.847 396.599 258.54C396.599 258.244 396.534 257.987 396.403 257.768C396.272 257.55 396.088 257.379 395.849 257.257C395.613 257.135 395.335 257.074 395.014 257.074C394.713 257.074 394.429 257.129 394.162 257.24C393.897 257.348 393.681 257.506 393.514 257.713C393.346 257.918 393.255 258.165 393.241 258.455H392.218C392.235 257.997 392.373 257.597 392.632 257.253C392.89 256.906 393.228 256.636 393.646 256.443C394.066 256.25 394.528 256.153 395.031 256.153C395.571 256.153 396.034 256.263 396.42 256.482C396.806 256.697 397.103 256.983 397.311 257.338C397.518 257.693 397.622 258.077 397.622 258.489C397.622 258.98 397.493 259.399 397.234 259.746C396.978 260.092 396.63 260.332 396.19 260.466V260.534C396.741 260.625 397.172 260.859 397.481 261.237C397.791 261.612 397.946 262.077 397.946 262.631C397.946 263.105 397.816 263.531 397.558 263.909C397.302 264.284 396.953 264.58 396.51 264.795C396.066 265.011 395.562 265.119 394.997 265.119ZM402.637 265.119C402.075 265.119 401.574 265.023 401.133 264.83C400.696 264.636 400.348 264.368 400.089 264.024C399.833 263.678 399.694 263.276 399.672 262.818H400.745C400.768 263.099 400.865 263.342 401.035 263.547C401.206 263.749 401.429 263.905 401.704 264.016C401.98 264.126 402.285 264.182 402.62 264.182C402.995 264.182 403.328 264.116 403.618 263.986C403.907 263.855 404.135 263.673 404.299 263.44C404.464 263.207 404.547 262.938 404.547 262.631C404.547 262.31 404.467 262.027 404.308 261.783C404.149 261.536 403.916 261.342 403.609 261.203C403.302 261.064 402.927 260.994 402.484 260.994H401.785V260.057H402.484C402.831 260.057 403.135 259.994 403.396 259.869C403.66 259.744 403.866 259.568 404.014 259.341C404.164 259.114 404.24 258.847 404.24 258.54C404.24 258.244 404.174 257.987 404.044 257.768C403.913 257.55 403.728 257.379 403.49 257.257C403.254 257.135 402.975 257.074 402.654 257.074C402.353 257.074 402.069 257.129 401.802 257.24C401.538 257.348 401.322 257.506 401.154 257.713C400.987 257.918 400.896 258.165 400.882 258.455H399.859C399.876 257.997 400.014 257.597 400.272 257.253C400.531 256.906 400.869 256.636 401.287 256.443C401.707 256.25 402.169 256.153 402.672 256.153C403.211 256.153 403.674 256.263 404.061 256.482C404.447 256.697 404.744 256.983 404.951 257.338C405.159 257.693 405.262 258.077 405.262 258.489C405.262 258.98 405.133 259.399 404.875 259.746C404.619 260.092 404.271 260.332 403.831 260.466V260.534C404.382 260.625 404.812 260.859 405.122 261.237C405.431 261.612 405.586 262.077 405.586 262.631C405.586 263.105 405.457 263.531 405.199 263.909C404.943 264.284 404.593 264.58 404.15 264.795C403.707 265.011 403.203 265.119 402.637 265.119ZM410.278 265.119C409.716 265.119 409.214 265.023 408.774 264.83C408.336 264.636 407.988 264.368 407.73 264.024C407.474 263.678 407.335 263.276 407.312 262.818H408.386C408.409 263.099 408.505 263.342 408.676 263.547C408.846 263.749 409.069 263.905 409.345 264.016C409.62 264.126 409.926 264.182 410.261 264.182C410.636 264.182 410.968 264.116 411.258 263.986C411.548 263.855 411.775 263.673 411.94 263.44C412.105 263.207 412.187 262.938 412.187 262.631C412.187 262.31 412.108 262.027 411.949 261.783C411.789 261.536 411.556 261.342 411.25 261.203C410.943 261.064 410.568 260.994 410.125 260.994H409.426V260.057H410.125C410.471 260.057 410.775 259.994 411.037 259.869C411.301 259.744 411.507 259.568 411.654 259.341C411.805 259.114 411.88 258.847 411.88 258.54C411.88 258.244 411.815 257.987 411.684 257.768C411.554 257.55 411.369 257.379 411.13 257.257C410.895 257.135 410.616 257.074 410.295 257.074C409.994 257.074 409.71 257.129 409.443 257.24C409.179 257.348 408.963 257.506 408.795 257.713C408.627 257.918 408.537 258.165 408.522 258.455H407.5C407.517 257.997 407.654 257.597 407.913 257.253C408.172 256.906 408.51 256.636 408.927 256.443C409.348 256.25 409.809 256.153 410.312 256.153C410.852 256.153 411.315 256.263 411.701 256.482C412.088 256.697 412.385 256.983 412.592 257.338C412.799 257.693 412.903 258.077 412.903 258.489C412.903 258.98 412.774 259.399 412.515 259.746C412.26 260.092 411.912 260.332 411.471 260.466V260.534C412.022 260.625 412.453 260.859 412.762 261.237C413.072 261.612 413.227 262.077 413.227 262.631C413.227 263.105 413.098 263.531 412.839 263.909C412.583 264.284 412.234 264.58 411.791 264.795C411.348 265.011 410.843 265.119 410.278 265.119ZM417.919 265.119C417.356 265.119 416.855 265.023 416.414 264.83C415.977 264.636 415.629 264.368 415.37 264.024C415.115 263.678 414.975 263.276 414.953 262.818H416.027C416.049 263.099 416.146 263.342 416.316 263.547C416.487 263.749 416.71 263.905 416.985 264.016C417.261 264.126 417.566 264.182 417.902 264.182C418.277 264.182 418.609 264.116 418.899 263.986C419.189 263.855 419.416 263.673 419.581 263.44C419.745 263.207 419.828 262.938 419.828 262.631C419.828 262.31 419.748 262.027 419.589 261.783C419.43 261.536 419.197 261.342 418.89 261.203C418.583 261.064 418.208 260.994 417.765 260.994H417.066V260.057H417.765C418.112 260.057 418.416 259.994 418.677 259.869C418.941 259.744 419.147 259.568 419.295 259.341C419.446 259.114 419.521 258.847 419.521 258.54C419.521 258.244 419.456 257.987 419.325 257.768C419.194 257.55 419.01 257.379 418.771 257.257C418.535 257.135 418.257 257.074 417.936 257.074C417.635 257.074 417.35 257.129 417.083 257.24C416.819 257.348 416.603 257.506 416.436 257.713C416.268 257.918 416.177 258.165 416.163 258.455H415.14C415.157 257.997 415.295 257.597 415.554 257.253C415.812 256.906 416.15 256.636 416.568 256.443C416.988 256.25 417.45 256.153 417.953 256.153C418.493 256.153 418.956 256.263 419.342 256.482C419.728 256.697 420.025 256.983 420.233 257.338C420.44 257.693 420.544 258.077 420.544 258.489C420.544 258.98 420.414 259.399 420.156 259.746C419.9 260.092 419.552 260.332 419.112 260.466V260.534C419.663 260.625 420.093 260.859 420.403 261.237C420.713 261.612 420.868 262.077 420.868 262.631C420.868 263.105 420.738 263.531 420.48 263.909C420.224 264.284 419.875 264.58 419.431 264.795C418.988 265.011 418.484 265.119 417.919 265.119Z" fill="white"/>
<path d="M255.237 265L256.669 256.273H257.521L256.089 265H255.237ZM251.265 262.58L251.401 261.727H257.913L257.776 262.58H251.265ZM252.169 265L253.6 256.273H254.453L253.021 265H252.169ZM251.776 259.545L251.913 258.693H258.424L258.288 259.545H251.776ZM262.602 256.273V265H261.546V257.381H261.494L259.364 258.795V257.722L261.546 256.273H262.602ZM267.959 265.119C267.317 265.119 266.77 264.945 266.318 264.595C265.867 264.243 265.521 263.733 265.283 263.065C265.044 262.395 264.925 261.585 264.925 260.636C264.925 259.693 265.044 258.888 265.283 258.22C265.524 257.55 265.871 257.038 266.323 256.686C266.777 256.331 267.323 256.153 267.959 256.153C268.595 256.153 269.139 256.331 269.591 256.686C270.046 257.038 270.392 257.55 270.631 258.22C270.872 258.888 270.993 259.693 270.993 260.636C270.993 261.585 270.874 262.395 270.635 263.065C270.396 263.733 270.051 264.243 269.6 264.595C269.148 264.945 268.601 265.119 267.959 265.119ZM267.959 264.182C268.595 264.182 269.09 263.875 269.442 263.261C269.794 262.648 269.97 261.773 269.97 260.636C269.97 259.881 269.889 259.237 269.727 258.706C269.568 258.175 269.338 257.77 269.037 257.491C268.739 257.213 268.379 257.074 267.959 257.074C267.328 257.074 266.835 257.385 266.48 258.007C266.125 258.626 265.948 259.503 265.948 260.636C265.948 261.392 266.027 262.034 266.186 262.562C266.345 263.091 266.574 263.493 266.872 263.768C267.173 264.044 267.536 264.182 267.959 264.182ZM272.612 265V264.233L275.493 261.08C275.831 260.71 276.11 260.389 276.328 260.116C276.547 259.841 276.709 259.582 276.814 259.341C276.922 259.097 276.976 258.841 276.976 258.574C276.976 258.267 276.902 258.001 276.754 257.777C276.61 257.553 276.411 257.379 276.158 257.257C275.905 257.135 275.621 257.074 275.306 257.074C274.97 257.074 274.678 257.143 274.428 257.283C274.181 257.419 273.989 257.611 273.852 257.858C273.719 258.105 273.652 258.395 273.652 258.727H272.646C272.646 258.216 272.764 257.767 273 257.381C273.236 256.994 273.557 256.693 273.963 256.477C274.372 256.261 274.831 256.153 275.34 256.153C275.851 256.153 276.304 256.261 276.699 256.477C277.094 256.693 277.404 256.984 277.628 257.351C277.852 257.717 277.965 258.125 277.965 258.574C277.965 258.895 277.906 259.209 277.79 259.516C277.676 259.82 277.477 260.159 277.193 260.534C276.912 260.906 276.521 261.361 276.021 261.898L274.061 263.994V264.062H278.118V265H272.612ZM282.725 265H280.031V256.273H282.844C283.691 256.273 284.415 256.447 285.017 256.797C285.619 257.143 286.081 257.642 286.402 258.293C286.723 258.94 286.884 259.716 286.884 260.619C286.884 261.528 286.722 262.311 286.398 262.967C286.074 263.621 285.602 264.124 284.983 264.476C284.364 264.825 283.611 265 282.725 265ZM281.088 264.062H282.656C283.378 264.062 283.976 263.923 284.45 263.645C284.925 263.366 285.279 262.97 285.512 262.456C285.744 261.942 285.861 261.33 285.861 260.619C285.861 259.915 285.746 259.308 285.516 258.8C285.286 258.288 284.942 257.896 284.485 257.624C284.027 257.348 283.458 257.21 282.776 257.21H281.088V264.062ZM288.604 265H287.496L290.701 256.273H291.792L294.996 265H293.888L291.28 257.653H291.212L288.604 265ZM289.013 261.591H293.479V262.528H289.013V261.591ZM299.151 265.119C298.589 265.119 298.087 265.023 297.647 264.83C297.209 264.636 296.861 264.368 296.603 264.024C296.347 263.678 296.208 263.276 296.185 262.818H297.259C297.282 263.099 297.378 263.342 297.549 263.547C297.719 263.749 297.942 263.905 298.218 264.016C298.493 264.126 298.799 264.182 299.134 264.182C299.509 264.182 299.841 264.116 300.131 263.986C300.421 263.855 300.648 263.673 300.813 263.44C300.978 263.207 301.06 262.938 301.06 262.631C301.06 262.31 300.981 262.027 300.822 261.783C300.662 261.536 300.43 261.342 300.123 261.203C299.816 261.064 299.441 260.994 298.998 260.994H298.299V260.057H298.998C299.344 260.057 299.648 259.994 299.91 259.869C300.174 259.744 300.38 259.568 300.528 259.341C300.678 259.114 300.753 258.847 300.753 258.54C300.753 258.244 300.688 257.987 300.557 257.768C300.427 257.55 300.242 257.379 300.003 257.257C299.768 257.135 299.489 257.074 299.168 257.074C298.867 257.074 298.583 257.129 298.316 257.24C298.052 257.348 297.836 257.506 297.668 257.713C297.501 257.918 297.41 258.165 297.395 258.455H296.373C296.39 257.997 296.528 257.597 296.786 257.253C297.045 256.906 297.383 256.636 297.8 256.443C298.221 256.25 298.682 256.153 299.185 256.153C299.725 256.153 300.188 256.263 300.574 256.482C300.961 256.697 301.258 256.983 301.465 257.338C301.672 257.693 301.776 258.077 301.776 258.489C301.776 258.98 301.647 259.399 301.388 259.746C301.133 260.092 300.785 260.332 300.344 260.466V260.534C300.895 260.625 301.326 260.859 301.635 261.237C301.945 261.612 302.1 262.077 302.1 262.631C302.1 263.105 301.971 263.531 301.712 263.909C301.456 264.284 301.107 264.58 300.664 264.795C300.221 265.011 299.716 265.119 299.151 265.119Z" fill="white"/>
<path d="M242.332 44V35.2727H245.281C245.966 35.2727 246.525 35.3963 246.96 35.6435C247.398 35.8878 247.721 36.2188 247.932 36.6364C248.142 37.054 248.247 37.5199 248.247 38.0341C248.247 38.5483 248.142 39.0156 247.932 39.4361C247.724 39.8565 247.403 40.1918 246.969 40.4418C246.534 40.6889 245.977 40.8125 245.298 40.8125H243.184V39.875H245.264C245.733 39.875 246.109 39.794 246.393 39.6321C246.677 39.4702 246.883 39.2514 247.011 38.9759C247.142 38.6974 247.207 38.3835 247.207 38.0341C247.207 37.6847 247.142 37.3722 247.011 37.0966C246.883 36.821 246.676 36.6051 246.389 36.4489C246.102 36.2898 245.721 36.2102 245.247 36.2102H243.389V44H242.332ZM249.813 44V37.4545H250.785V38.4432H250.853C250.972 38.1193 251.188 37.8565 251.501 37.6548C251.813 37.4531 252.165 37.3523 252.557 37.3523C252.631 37.3523 252.724 37.3537 252.834 37.3565C252.945 37.3594 253.029 37.3636 253.086 37.3693V38.392C253.052 38.3835 252.974 38.3707 252.851 38.3537C252.732 38.3338 252.606 38.3239 252.472 38.3239C252.154 38.3239 251.87 38.3906 251.62 38.5241C251.373 38.6548 251.177 38.8366 251.032 39.0696C250.89 39.2997 250.819 39.5625 250.819 39.858V44H249.813ZM254.278 44V37.4545H255.284V44H254.278ZM254.789 36.3636C254.593 36.3636 254.424 36.2969 254.282 36.1634C254.143 36.0298 254.073 35.8693 254.073 35.6818C254.073 35.4943 254.143 35.3338 254.282 35.2003C254.424 35.0668 254.593 35 254.789 35C254.985 35 255.153 35.0668 255.292 35.2003C255.434 35.3338 255.505 35.4943 255.505 35.6818C255.505 35.8693 255.434 36.0298 255.292 36.1634C255.153 36.2969 254.985 36.3636 254.789 36.3636ZM257.126 44V37.4545H258.097V38.4773H258.182C258.319 38.1278 258.539 37.8565 258.843 37.6634C259.147 37.4673 259.512 37.3693 259.938 37.3693C260.37 37.3693 260.729 37.4673 261.016 37.6634C261.306 37.8565 261.532 38.1278 261.694 38.4773H261.762C261.93 38.1392 262.181 37.8707 262.516 37.6719C262.851 37.4702 263.253 37.3693 263.722 37.3693C264.307 37.3693 264.786 37.5526 265.158 37.919C265.53 38.2827 265.716 38.8494 265.716 39.6193V44H264.711V39.6193C264.711 39.1364 264.579 38.7912 264.314 38.5838C264.05 38.3764 263.739 38.2727 263.381 38.2727C262.921 38.2727 262.564 38.4119 262.312 38.6903C262.059 38.9659 261.932 39.3153 261.932 39.7386V44H260.91V39.517C260.91 39.1449 260.789 38.8452 260.547 38.6179C260.306 38.3878 259.995 38.2727 259.614 38.2727C259.353 38.2727 259.108 38.3423 258.881 38.4815C258.657 38.6207 258.475 38.8139 258.336 39.0611C258.199 39.3054 258.131 39.5881 258.131 39.9091V44H257.126ZM269.481 44.1534C269.067 44.1534 268.69 44.0753 268.352 43.919C268.014 43.7599 267.746 43.5312 267.547 43.233C267.348 42.9318 267.248 42.5682 267.248 42.142C267.248 41.767 267.322 41.4631 267.47 41.2301C267.618 40.9943 267.815 40.8097 268.062 40.6761C268.309 40.5426 268.582 40.4432 268.881 40.3778C269.182 40.3097 269.484 40.2557 269.788 40.2159C270.186 40.1648 270.508 40.1264 270.756 40.1009C271.006 40.0724 271.187 40.0256 271.301 39.9602C271.417 39.8949 271.476 39.7812 271.476 39.6193V39.5852C271.476 39.1648 271.361 38.8381 271.131 38.6051C270.903 38.3722 270.558 38.2557 270.095 38.2557C269.615 38.2557 269.238 38.3608 268.966 38.571C268.693 38.7812 268.501 39.0057 268.39 39.2443L267.436 38.9034C267.606 38.5057 267.834 38.196 268.118 37.9744C268.405 37.75 268.717 37.5937 269.055 37.5057C269.396 37.4148 269.731 37.3693 270.061 37.3693C270.271 37.3693 270.513 37.3949 270.785 37.446C271.061 37.4943 271.327 37.5952 271.582 37.7486C271.841 37.902 272.055 38.1335 272.226 38.4432C272.396 38.7528 272.481 39.1676 272.481 39.6875V44H271.476V43.1136H271.425C271.356 43.2557 271.243 43.4077 271.084 43.5696C270.925 43.7315 270.713 43.8693 270.449 43.983C270.184 44.0966 269.862 44.1534 269.481 44.1534ZM269.635 43.25C270.032 43.25 270.368 43.1719 270.64 43.0156C270.916 42.8594 271.123 42.6577 271.263 42.4105C271.405 42.1634 271.476 41.9034 271.476 41.6307V40.7102C271.433 40.7614 271.339 40.8082 271.194 40.8509C271.052 40.8906 270.888 40.9261 270.7 40.9574C270.515 40.9858 270.335 41.0114 270.159 41.0341C269.986 41.054 269.845 41.071 269.737 41.0852C269.476 41.1193 269.231 41.1747 269.004 41.2514C268.78 41.3253 268.598 41.4375 268.459 41.5881C268.322 41.7358 268.254 41.9375 268.254 42.1932C268.254 42.5426 268.383 42.8068 268.642 42.9858C268.903 43.1619 269.234 43.25 269.635 43.25ZM274.317 44V37.4545H275.289V38.4432H275.357C275.476 38.1193 275.692 37.8565 276.004 37.6548C276.317 37.4531 276.669 37.3523 277.061 37.3523C277.135 37.3523 277.227 37.3537 277.338 37.3565C277.449 37.3594 277.533 37.3636 277.59 37.3693V38.392C277.556 38.3835 277.477 38.3707 277.355 38.3537C277.236 38.3338 277.11 38.3239 276.976 38.3239C276.658 38.3239 276.374 38.3906 276.124 38.5241C275.877 38.6548 275.681 38.8366 275.536 39.0696C275.394 39.2997 275.323 39.5625 275.323 39.858V44H274.317ZM279.629 46.4545C279.458 46.4545 279.306 46.4403 279.173 46.4119C279.039 46.3864 278.947 46.3608 278.896 46.3352L279.151 45.4489C279.396 45.5114 279.612 45.5341 279.799 45.517C279.987 45.5 280.153 45.4162 280.298 45.2656C280.445 45.1179 280.58 44.8778 280.703 44.5455L280.89 44.0341L278.47 37.4545H279.561L281.367 42.6705H281.436L283.242 37.4545H284.333L281.555 44.9545C281.43 45.2926 281.275 45.5724 281.09 45.794C280.906 46.0185 280.691 46.1847 280.447 46.2926C280.205 46.4006 279.933 46.4545 279.629 46.4545ZM289.172 44V35.2727H292.223C292.831 35.2727 293.333 35.3778 293.727 35.5881C294.122 35.7955 294.416 36.0753 294.61 36.4276C294.803 36.777 294.899 37.1648 294.899 37.5909C294.899 37.9659 294.833 38.2756 294.699 38.5199C294.568 38.7642 294.395 38.9574 294.179 39.0994C293.966 39.2415 293.735 39.3466 293.485 39.4148V39.5C293.752 39.517 294.02 39.6108 294.29 39.7812C294.56 39.9517 294.786 40.196 294.968 40.5142C295.149 40.8324 295.24 41.2216 295.24 41.6818C295.24 42.1193 295.141 42.5128 294.942 42.8622C294.743 43.2116 294.429 43.4886 294 43.6932C293.571 43.8977 293.013 44 292.325 44H289.172ZM290.229 43.0625H292.325C293.016 43.0625 293.506 42.929 293.796 42.6619C294.088 42.392 294.235 42.0653 294.235 41.6818C294.235 41.3864 294.159 41.1136 294.009 40.8636C293.858 40.6108 293.644 40.4091 293.365 40.2585C293.087 40.1051 292.757 40.0284 292.377 40.0284H290.229V43.0625ZM290.229 39.108H292.189C292.507 39.108 292.794 39.0455 293.05 38.9205C293.308 38.7955 293.513 38.6193 293.664 38.392C293.817 38.1648 293.894 37.8977 293.894 37.5909C293.894 37.2074 293.76 36.8821 293.493 36.6151C293.226 36.3452 292.803 36.2102 292.223 36.2102H290.229V39.108ZM297.846 35.2727V44H296.84V35.2727H297.846ZM303.813 41.3239V37.4545H304.819V44H303.813V42.892H303.745C303.591 43.2244 303.353 43.5071 303.029 43.7401C302.705 43.9702 302.296 44.0852 301.802 44.0852C301.393 44.0852 301.029 43.9957 300.711 43.8168C300.393 43.6349 300.143 43.3622 299.961 42.9986C299.779 42.6321 299.688 42.1705 299.688 41.6136V37.4545H300.694V41.5455C300.694 42.0227 300.827 42.4034 301.094 42.6875C301.364 42.9716 301.708 43.1136 302.126 43.1136C302.376 43.1136 302.63 43.0497 302.888 42.9219C303.15 42.794 303.368 42.598 303.545 42.3338C303.724 42.0696 303.813 41.733 303.813 41.3239ZM309.405 44.1364C308.774 44.1364 308.23 43.9972 307.773 43.7188C307.318 43.4375 306.968 43.0455 306.72 42.5426C306.476 42.0369 306.354 41.4489 306.354 40.7784C306.354 40.108 306.476 39.517 306.72 39.0057C306.968 38.4915 307.311 38.0909 307.752 37.804C308.195 37.5142 308.712 37.3693 309.303 37.3693C309.644 37.3693 309.98 37.4261 310.313 37.5398C310.645 37.6534 310.948 37.8381 311.22 38.0938C311.493 38.3466 311.71 38.6818 311.872 39.0994C312.034 39.517 312.115 40.0312 312.115 40.642V41.0682H307.07V40.1989H311.093C311.093 39.8295 311.019 39.5 310.871 39.2102C310.726 38.9205 310.519 38.6918 310.249 38.5241C309.982 38.3565 309.666 38.2727 309.303 38.2727C308.902 38.2727 308.556 38.3722 308.263 38.571C307.973 38.767 307.75 39.0227 307.594 39.3381C307.438 39.6534 307.36 39.9915 307.36 40.3523V40.9318C307.36 41.4261 307.445 41.8452 307.615 42.1889C307.789 42.5298 308.029 42.7898 308.335 42.9688C308.642 43.1449 308.999 43.233 309.405 43.233C309.669 43.233 309.908 43.196 310.121 43.1222C310.337 43.0455 310.523 42.9318 310.679 42.7812C310.835 42.6278 310.956 42.4375 311.041 42.2102L312.013 42.483C311.911 42.8125 311.739 43.1023 311.497 43.3523C311.256 43.5994 310.958 43.7926 310.602 43.9318C310.247 44.0682 309.848 44.1364 309.405 44.1364Z" fill="black"/>
<path d="M389.199 38C389.105 37.7131 388.981 37.456 388.828 37.2287C388.677 36.9986 388.497 36.8026 388.287 36.6406C388.079 36.4787 387.843 36.3551 387.579 36.2699C387.315 36.1847 387.025 36.142 386.71 36.142C386.193 36.142 385.723 36.2756 385.299 36.5426C384.876 36.8097 384.539 37.2031 384.289 37.723C384.039 38.2429 383.914 38.8807 383.914 39.6364C383.914 40.392 384.041 41.0298 384.294 41.5497C384.547 42.0696 384.889 42.4631 385.321 42.7301C385.752 42.9972 386.238 43.1307 386.778 43.1307C387.278 43.1307 387.718 43.0241 388.099 42.8111C388.483 42.5952 388.781 42.2912 388.994 41.8991C389.21 41.5043 389.318 41.0398 389.318 40.5057L389.642 40.5739H387.017V39.6364H390.341V40.5739C390.341 41.2926 390.187 41.9176 389.88 42.4489C389.576 42.9801 389.156 43.392 388.619 43.6847C388.085 43.9744 387.471 44.1193 386.778 44.1193C386.005 44.1193 385.326 43.9375 384.741 43.5739C384.159 43.2102 383.704 42.6932 383.377 42.0227C383.054 41.3523 382.892 40.5568 382.892 39.6364C382.892 38.946 382.984 38.3253 383.169 37.7741C383.356 37.2202 383.62 36.7486 383.961 36.3594C384.302 35.9702 384.706 35.6719 385.172 35.4645C385.637 35.2571 386.15 35.1534 386.71 35.1534C387.17 35.1534 387.599 35.223 387.997 35.3622C388.397 35.4986 388.754 35.6932 389.066 35.946C389.382 36.196 389.645 36.4957 389.855 36.8452C390.065 37.1918 390.21 37.5767 390.289 38H389.199ZM392.014 44V37.4545H392.986V38.4432H393.054C393.173 38.1193 393.389 37.8565 393.702 37.6548C394.014 37.4531 394.366 37.3523 394.759 37.3523C394.832 37.3523 394.925 37.3537 395.036 37.3565C395.146 37.3594 395.23 37.3636 395.287 37.3693V38.392C395.253 38.3835 395.175 38.3707 395.053 38.3537C394.933 38.3338 394.807 38.3239 394.673 38.3239C394.355 38.3239 394.071 38.3906 393.821 38.5241C393.574 38.6548 393.378 38.8366 393.233 39.0696C393.091 39.2997 393.02 39.5625 393.02 39.858V44H392.014ZM399.024 44.1364C398.393 44.1364 397.849 43.9972 397.392 43.7188C396.938 43.4375 396.587 43.0455 396.339 42.5426C396.095 42.0369 395.973 41.4489 395.973 40.7784C395.973 40.108 396.095 39.517 396.339 39.0057C396.587 38.4915 396.93 38.0909 397.371 37.804C397.814 37.5142 398.331 37.3693 398.922 37.3693C399.263 37.3693 399.599 37.4261 399.932 37.5398C400.264 37.6534 400.567 37.8381 400.839 38.0938C401.112 38.3466 401.33 38.6818 401.491 39.0994C401.653 39.517 401.734 40.0312 401.734 40.642V41.0682H396.689V40.1989H400.712C400.712 39.8295 400.638 39.5 400.49 39.2102C400.345 38.9205 400.138 38.6918 399.868 38.5241C399.601 38.3565 399.286 38.2727 398.922 38.2727C398.521 38.2727 398.175 38.3722 397.882 38.571C397.592 38.767 397.369 39.0227 397.213 39.3381C397.057 39.6534 396.979 39.9915 396.979 40.3523V40.9318C396.979 41.4261 397.064 41.8452 397.234 42.1889C397.408 42.5298 397.648 42.7898 397.955 42.9688C398.261 43.1449 398.618 43.233 399.024 43.233C399.288 43.233 399.527 43.196 399.74 43.1222C399.956 43.0455 400.142 42.9318 400.298 42.7812C400.455 42.6278 400.575 42.4375 400.661 42.2102L401.632 42.483C401.53 42.8125 401.358 43.1023 401.116 43.3523C400.875 43.5994 400.577 43.7926 400.222 43.9318C399.866 44.0682 399.467 44.1364 399.024 44.1364ZM403.713 46.4545C403.542 46.4545 403.39 46.4403 403.257 46.4119C403.123 46.3864 403.031 46.3608 402.98 46.3352L403.235 45.4489C403.48 45.5114 403.696 45.5341 403.883 45.517C404.071 45.5 404.237 45.4162 404.382 45.2656C404.529 45.1179 404.664 44.8778 404.787 44.5455L404.974 44.0341L402.554 37.4545H403.645L405.451 42.6705H405.52L407.326 37.4545H408.417L405.639 44.9545C405.514 45.2926 405.359 45.5724 405.174 45.794C404.99 46.0185 404.775 46.1847 404.531 46.2926C404.289 46.4006 404.017 46.4545 403.713 46.4545Z" fill="black"/>
</svg>
