<svg width="303" height="111" viewBox="0 0 303 111" fill="none" xmlns="http://www.w3.org/2000/svg">
<rect x="0.5" y="23.5" width="302" height="39" rx="3.5" fill="white"/>
<path d="M15.1818 33.6136V52.75H14.0455V33.6136H15.1818Z" fill="#1F1F1F"/>
<path d="M280.587 48.7746C274.337 48.7746 271.662 43.5746 271.549 43.3496C271.437 43.1246 271.437 42.8746 271.549 42.6496C271.662 42.4246 274.337 37.2246 280.587 37.2246C286.837 37.2246 289.512 42.4371 289.624 42.6621C289.737 42.8871 289.737 43.1371 289.624 43.3621C289.512 43.5871 286.837 48.7996 280.587 48.7996V48.7746ZM273.149 42.9996C273.812 44.0746 276.137 47.2121 280.587 47.2121C285.037 47.2121 287.362 44.0746 288.024 42.9871C287.362 41.9121 285.037 38.7621 280.587 38.7621C276.137 38.7621 273.812 41.9371 273.149 42.9996Z" fill="#757575"/>
<path d="M280.587 46.2746C278.774 46.2746 277.312 44.7996 277.312 42.9996C277.312 41.1996 278.787 39.7246 280.587 39.7246C282.387 39.7246 283.862 41.1996 283.862 42.9996C283.862 44.7996 282.387 46.2746 280.587 46.2746ZM280.587 41.2746C279.637 41.2746 278.862 42.0496 278.862 42.9996C278.862 43.9496 279.637 44.7246 280.587 44.7246C281.537 44.7246 282.312 43.9496 282.312 42.9996C282.312 42.0496 281.537 41.2746 280.587 41.2746Z" fill="#757575"/>
<rect x="0.5" y="23.5" width="302" height="39" rx="3.5" stroke="#545454"/>
<path d="M9.71946 4.25355H7.86009C7.80706 3.94863 7.70928 3.6785 7.56676 3.44318C7.42424 3.20455 7.24692 3.00237 7.0348 2.83665C6.82268 2.67093 6.58073 2.54664 6.30895 2.46378C6.04048 2.3776 5.75047 2.33452 5.43892 2.33452C4.88542 2.33452 4.39489 2.47372 3.96733 2.75213C3.53977 3.02722 3.20502 3.43158 2.96307 3.9652C2.72112 4.4955 2.60014 5.14347 2.60014 5.90909C2.60014 6.68797 2.72112 7.34422 2.96307 7.87784C3.20833 8.40814 3.54309 8.80919 3.96733 9.08097C4.39489 9.34943 4.88376 9.48366 5.43395 9.48366C5.73887 9.48366 6.02391 9.44389 6.28906 9.36435C6.55753 9.28149 6.79782 9.16051 7.00994 9.00142C7.22538 8.84233 7.40601 8.64678 7.55185 8.41477C7.70099 8.18277 7.80374 7.91761 7.86009 7.61932L9.71946 7.62926C9.64986 8.11316 9.49905 8.56723 9.26705 8.99148C9.03835 9.41572 8.7384 9.79025 8.36719 10.1151C7.99598 10.4366 7.56179 10.6884 7.06463 10.8707C6.56747 11.0497 6.01563 11.1392 5.40909 11.1392C4.5142 11.1392 3.71544 10.9321 3.01278 10.5178C2.31013 10.1035 1.75663 9.50521 1.35227 8.72301C0.947917 7.94081 0.745739 7.00284 0.745739 5.90909C0.745739 4.81203 0.949574 3.87405 1.35724 3.09517C1.76491 2.31297 2.32008 1.71473 3.02273 1.30043C3.72538 0.886126 4.52083 0.678977 5.40909 0.678977C5.97585 0.678977 6.50284 0.758522 6.99006 0.917613C7.47727 1.0767 7.91146 1.31037 8.29261 1.61861C8.67377 1.92353 8.98698 2.29806 9.23224 2.74219C9.48082 3.183 9.64323 3.68679 9.71946 4.25355ZM11.329 11V3.36364H13.074V4.63636H13.1536C13.2928 4.19555 13.5314 3.85582 13.8695 3.61719C14.2109 3.37524 14.6003 3.25426 15.0378 3.25426C15.1373 3.25426 15.2483 3.25923 15.3709 3.26918C15.4969 3.2758 15.6013 3.2874 15.6841 3.30398V4.95952C15.6079 4.933 15.4869 4.9098 15.3212 4.88991C15.1588 4.86671 15.0014 4.85511 14.8489 4.85511C14.5208 4.85511 14.2258 4.92637 13.964 5.06889C13.7054 5.2081 13.5016 5.40199 13.3525 5.65057C13.2033 5.89915 13.1287 6.18584 13.1287 6.51065V11H11.329ZM19.946 11.1491C19.1804 11.1491 18.5192 10.9901 17.9624 10.6719C17.4089 10.3504 16.983 9.89631 16.6847 9.30966C16.3864 8.7197 16.2372 8.02533 16.2372 7.22656C16.2372 6.44105 16.3864 5.75166 16.6847 5.15838C16.9863 4.56179 17.4072 4.09777 17.9474 3.76633C18.4877 3.43158 19.1224 3.2642 19.8516 3.2642C20.3222 3.2642 20.7663 3.34044 21.1839 3.4929C21.6049 3.64205 21.9761 3.87405 22.2976 4.18892C22.6224 4.50379 22.8776 4.90483 23.0632 5.39205C23.2488 5.87595 23.3416 6.45265 23.3416 7.12216V7.67401H17.0824V6.46094H21.6165C21.6132 6.11624 21.5386 5.80966 21.3928 5.54119C21.2469 5.26941 21.0431 5.05563 20.7812 4.89986C20.5227 4.74408 20.2211 4.66619 19.8764 4.66619C19.5085 4.66619 19.1854 4.75568 18.907 4.93466C18.6286 5.11032 18.4115 5.34233 18.2557 5.63068C18.1032 5.91572 18.0253 6.22893 18.022 6.57031V7.62926C18.022 8.07339 18.1032 8.45455 18.2656 8.77273C18.428 9.08759 18.6551 9.32955 18.9467 9.49858C19.2384 9.6643 19.5798 9.74716 19.9709 9.74716C20.2327 9.74716 20.4697 9.7107 20.6818 9.63778C20.8939 9.56155 21.0779 9.45052 21.2337 9.30469C21.3894 9.15885 21.5071 8.97822 21.5866 8.76278L23.267 8.9517C23.161 9.39583 22.9588 9.78362 22.6605 10.1151C22.3655 10.4432 21.9877 10.6984 21.527 10.8807C21.0663 11.0597 20.5393 11.1491 19.946 11.1491ZM27.0616 11.1541C26.5777 11.1541 26.1419 11.0679 25.7541 10.8956C25.3696 10.7199 25.0647 10.4614 24.8393 10.12C24.6172 9.77865 24.5062 9.35772 24.5062 8.85724C24.5062 8.42637 24.5858 8.07008 24.7449 7.78835C24.9039 7.50663 25.121 7.28125 25.3961 7.11222C25.6712 6.94318 25.9811 6.81558 26.3258 6.7294C26.6738 6.63991 27.0334 6.57528 27.4047 6.53551C27.8521 6.48911 28.215 6.44768 28.4934 6.41122C28.7718 6.37145 28.974 6.31179 29.1 6.23224C29.2292 6.14938 29.2939 6.02178 29.2939 5.84943V5.8196C29.2939 5.44508 29.1828 5.15507 28.9608 4.94957C28.7387 4.74408 28.4189 4.64134 28.0012 4.64134C27.5604 4.64134 27.2108 4.73745 26.9522 4.92969C26.697 5.12192 26.5247 5.34896 26.4352 5.6108L24.7548 5.37216C24.8874 4.90814 25.1061 4.52036 25.411 4.20881C25.716 3.89394 26.0888 3.65862 26.5297 3.50284C26.9705 3.34375 27.4577 3.2642 27.9913 3.2642C28.3592 3.2642 28.7254 3.30729 29.09 3.39347C29.4546 3.47964 29.7877 3.62216 30.0893 3.82102C30.3909 4.01657 30.6329 4.28338 30.8152 4.62145C31.0008 4.95952 31.0936 5.3821 31.0936 5.8892V11H29.3635V9.95099H29.3038C29.1944 10.1631 29.0403 10.362 28.8414 10.5476C28.6459 10.7299 28.399 10.8774 28.1007 10.9901C27.8057 11.0994 27.4593 11.1541 27.0616 11.1541ZM27.5289 9.83168C27.8902 9.83168 28.2034 9.76042 28.4686 9.6179C28.7337 9.47206 28.9376 9.27983 29.0801 9.04119C29.2259 8.80256 29.2988 8.54238 29.2988 8.26065V7.3608C29.2425 7.4072 29.1464 7.45028 29.0105 7.49006C28.8779 7.52983 28.7288 7.56463 28.563 7.59446C28.3973 7.62429 28.2333 7.6508 28.0708 7.67401C27.9084 7.69721 27.7676 7.71709 27.6483 7.73366C27.3798 7.77012 27.1395 7.82978 26.9274 7.91264C26.7153 7.9955 26.5479 8.11151 26.4252 8.26065C26.3026 8.40649 26.2413 8.59541 26.2413 8.82741C26.2413 9.15885 26.3623 9.40909 26.6042 9.57812C26.8462 9.74716 27.1544 9.83168 27.5289 9.83168ZM36.7164 3.36364V4.75568H32.3265V3.36364H36.7164ZM33.4103 1.53409H35.21V8.70312C35.21 8.94508 35.2465 9.13068 35.3194 9.25994C35.3957 9.38589 35.4951 9.47206 35.6177 9.51847C35.7404 9.56487 35.8762 9.58807 36.0254 9.58807C36.1381 9.58807 36.2408 9.57978 36.3336 9.56321C36.4297 9.54664 36.5027 9.53172 36.5524 9.51847L36.8556 10.9254C36.7595 10.9586 36.622 10.995 36.443 11.0348C36.2673 11.0746 36.0519 11.0978 35.7967 11.1044C35.3459 11.1177 34.9399 11.0497 34.5787 10.9006C34.2174 10.7481 33.9307 10.5128 33.7186 10.1946C33.5098 9.87642 33.407 9.47869 33.4103 9.00142V1.53409ZM41.5202 11.1491C40.7546 11.1491 40.0934 10.9901 39.5366 10.6719C38.9831 10.3504 38.5572 9.89631 38.2589 9.30966C37.9606 8.7197 37.8114 8.02533 37.8114 7.22656C37.8114 6.44105 37.9606 5.75166 38.2589 5.15838C38.5605 4.56179 38.9814 4.09777 39.5217 3.76633C40.0619 3.43158 40.6966 3.2642 41.4258 3.2642C41.8964 3.2642 42.3406 3.34044 42.7582 3.4929C43.1791 3.64205 43.5503 3.87405 43.8718 4.18892C44.1966 4.50379 44.4518 4.90483 44.6374 5.39205C44.823 5.87595 44.9158 6.45265 44.9158 7.12216V7.67401H38.6566V6.46094H43.1907C43.1874 6.11624 43.1128 5.80966 42.967 5.54119C42.8211 5.26941 42.6173 5.05563 42.3555 4.89986C42.0969 4.74408 41.7953 4.66619 41.4506 4.66619C41.0827 4.66619 40.7596 4.75568 40.4812 4.93466C40.2028 5.11032 39.9857 5.34233 39.8299 5.63068C39.6774 5.91572 39.5996 6.22893 39.5962 6.57031V7.62926C39.5962 8.07339 39.6774 8.45455 39.8398 8.77273C40.0022 9.08759 40.2293 9.32955 40.521 9.49858C40.8126 9.6643 41.154 9.74716 41.5451 9.74716C41.8069 9.74716 42.0439 9.7107 42.256 9.63778C42.4682 9.56155 42.6521 9.45052 42.8079 9.30469C42.9637 9.15885 43.0813 8.97822 43.1609 8.76278L44.8413 8.9517C44.7352 9.39583 44.533 9.78362 44.2347 10.1151C43.9397 10.4432 43.5619 10.6984 43.1012 10.8807C42.6405 11.0597 42.1135 11.1491 41.5202 11.1491ZM49.9906 11V0.818182H53.8088C54.591 0.818182 55.2472 0.964015 55.7775 1.25568C56.3111 1.54735 56.7138 1.94839 56.9856 2.45881C57.2607 2.96591 57.3983 3.54261 57.3983 4.18892C57.3983 4.84186 57.2607 5.42187 56.9856 5.92898C56.7105 6.43608 56.3045 6.83546 55.7676 7.12713C55.2306 7.41548 54.5694 7.55966 53.7839 7.55966H51.2534V6.04332H53.5353C53.9927 6.04332 54.3672 5.96378 54.6589 5.80469C54.9506 5.6456 55.166 5.42685 55.3052 5.14844C55.4477 4.87003 55.519 4.55019 55.519 4.18892C55.519 3.82765 55.4477 3.50947 55.3052 3.23438C55.166 2.95928 54.9489 2.7455 54.6539 2.59304C54.3623 2.43726 53.9861 2.35938 53.5254 2.35938H51.835V11H49.9906ZM60.9815 11.1541C60.4976 11.1541 60.0618 11.0679 59.674 10.8956C59.2895 10.7199 58.9846 10.4614 58.7592 10.12C58.5372 9.77865 58.4261 9.35772 58.4261 8.85724C58.4261 8.42637 58.5057 8.07008 58.6648 7.78835C58.8239 7.50663 59.041 7.28125 59.3161 7.11222C59.5911 6.94318 59.901 6.81558 60.2457 6.7294C60.5938 6.63991 60.9534 6.57528 61.3246 6.53551C61.772 6.48911 62.1349 6.44768 62.4134 6.41122C62.6918 6.37145 62.8939 6.31179 63.0199 6.23224C63.1491 6.14938 63.2138 6.02178 63.2138 5.84943V5.8196C63.2138 5.44508 63.1027 5.15507 62.8807 4.94957C62.6586 4.74408 62.3388 4.64134 61.9212 4.64134C61.4804 4.64134 61.1307 4.73745 60.8722 4.92969C60.617 5.12192 60.4446 5.34896 60.3551 5.6108L58.6747 5.37216C58.8073 4.90814 59.026 4.52036 59.331 4.20881C59.6359 3.89394 60.0088 3.65862 60.4496 3.50284C60.8904 3.34375 61.3776 3.2642 61.9112 3.2642C62.2791 3.2642 62.6454 3.30729 63.0099 3.39347C63.3745 3.47964 63.7076 3.62216 64.0092 3.82102C64.3108 4.01657 64.5528 4.28338 64.7351 4.62145C64.9207 4.95952 65.0135 5.3821 65.0135 5.8892V11H63.2834V9.95099H63.2237C63.1143 10.1631 62.9602 10.362 62.7614 10.5476C62.5658 10.7299 62.3189 10.8774 62.0206 10.9901C61.7256 11.0994 61.3793 11.1541 60.9815 11.1541ZM61.4489 9.83168C61.8101 9.83168 62.1233 9.76042 62.3885 9.6179C62.6536 9.47206 62.8575 9.27983 63 9.04119C63.1458 8.80256 63.2188 8.54238 63.2188 8.26065V7.3608C63.1624 7.4072 63.0663 7.45028 62.9304 7.49006C62.7978 7.52983 62.6487 7.56463 62.483 7.59446C62.3172 7.62429 62.1532 7.6508 61.9908 7.67401C61.8284 7.69721 61.6875 7.71709 61.5682 7.73366C61.2997 7.77012 61.0594 7.82978 60.8473 7.91264C60.6352 7.9955 60.4678 8.11151 60.3452 8.26065C60.2225 8.40649 60.1612 8.59541 60.1612 8.82741C60.1612 9.15885 60.2822 9.40909 60.5241 9.57812C60.7661 9.74716 61.0743 9.83168 61.4489 9.83168ZM72.8587 5.3821L71.218 5.56108C71.1716 5.39536 71.0904 5.23958 70.9744 5.09375C70.8617 4.94792 70.7093 4.83026 70.517 4.74077C70.3248 4.65128 70.0895 4.60653 69.8111 4.60653C69.4366 4.60653 69.1217 4.68774 68.8665 4.85014C68.6146 5.01255 68.4903 5.22301 68.4936 5.48153C68.4903 5.7036 68.5715 5.88423 68.7372 6.02344C68.9063 6.16264 69.1847 6.27699 69.5724 6.36648L70.875 6.64489C71.5975 6.80066 72.1345 7.04759 72.4858 7.38565C72.8404 7.72372 73.0194 8.16619 73.0227 8.71307C73.0194 9.19366 72.8786 9.6179 72.6001 9.9858C72.325 10.3504 71.9422 10.6354 71.4517 10.8409C70.9612 11.0464 70.3977 11.1491 69.7614 11.1491C68.8267 11.1491 68.0743 10.9536 67.5043 10.5625C66.9342 10.1681 66.5945 9.61955 66.4851 8.9169L68.2401 8.74787C68.3196 9.09257 68.4886 9.35275 68.7472 9.52841C69.0057 9.70407 69.3421 9.7919 69.7564 9.7919C70.1839 9.7919 70.527 9.70407 70.7855 9.52841C71.0473 9.35275 71.1783 9.13565 71.1783 8.87713C71.1783 8.65838 71.0938 8.47775 70.9247 8.33523C70.759 8.19271 70.5005 8.08333 70.1491 8.0071L68.8466 7.73366C68.1141 7.5812 67.5722 7.32434 67.2209 6.96307C66.8696 6.59848 66.6955 6.13778 66.6989 5.58097C66.6955 5.11032 66.8232 4.70265 67.0817 4.35795C67.3435 4.00994 67.7064 3.74148 68.1705 3.55256C68.6378 3.36032 69.1764 3.2642 69.7862 3.2642C70.6811 3.2642 71.3854 3.45478 71.8991 3.83594C72.4162 4.21709 72.736 4.73248 72.8587 5.3821ZM80.5423 5.3821L78.9016 5.56108C78.8552 5.39536 78.774 5.23958 78.658 5.09375C78.5453 4.94792 78.3929 4.83026 78.2006 4.74077C78.0084 4.65128 77.7731 4.60653 77.4947 4.60653C77.1201 4.60653 76.8053 4.68774 76.5501 4.85014C76.2982 5.01255 76.1739 5.22301 76.1772 5.48153C76.1739 5.7036 76.2551 5.88423 76.4208 6.02344C76.5898 6.16264 76.8683 6.27699 77.256 6.36648L78.5586 6.64489C79.2811 6.80066 79.8181 7.04759 80.1694 7.38565C80.524 7.72372 80.703 8.16619 80.7063 8.71307C80.703 9.19366 80.5621 9.6179 80.2837 9.9858C80.0086 10.3504 79.6258 10.6354 79.1353 10.8409C78.6448 11.0464 78.0813 11.1491 77.445 11.1491C76.5103 11.1491 75.7579 10.9536 75.1879 10.5625C74.6178 10.1681 74.2781 9.61955 74.1687 8.9169L75.9237 8.74787C76.0032 9.09257 76.1722 9.35275 76.4308 9.52841C76.6893 9.70407 77.0257 9.7919 77.44 9.7919C77.8675 9.7919 78.2106 9.70407 78.4691 9.52841C78.7309 9.35275 78.8619 9.13565 78.8619 8.87713C78.8619 8.65838 78.7773 8.47775 78.6083 8.33523C78.4426 8.19271 78.1841 8.08333 77.8327 8.0071L76.5302 7.73366C75.7977 7.5812 75.2558 7.32434 74.9045 6.96307C74.5531 6.59848 74.3791 6.13778 74.3825 5.58097C74.3791 5.11032 74.5067 4.70265 74.7653 4.35795C75.0271 4.00994 75.39 3.74148 75.854 3.55256C76.3214 3.36032 76.86 3.2642 77.4698 3.2642C78.3647 3.2642 79.069 3.45478 79.5827 3.83594C80.0998 4.21709 80.4196 4.73248 80.5423 5.3821ZM83.7663 11L81.6087 3.36364H83.4432L84.7855 8.73295H84.8551L86.2273 3.36364H88.0419L89.4141 8.70312H89.4886L90.8111 3.36364H92.6506L90.4879 11H88.6136L87.1818 5.83949H87.0774L85.6456 11H83.7663ZM97.0194 11.1491C96.2736 11.1491 95.6273 10.9851 95.0804 10.657C94.5336 10.3288 94.1093 9.86979 93.8077 9.27983C93.5094 8.68987 93.3603 8.00047 93.3603 7.21165C93.3603 6.42282 93.5094 5.73177 93.8077 5.13849C94.1093 4.54522 94.5336 4.08452 95.0804 3.75639C95.6273 3.42827 96.2736 3.2642 97.0194 3.2642C97.7651 3.2642 98.4114 3.42827 98.9583 3.75639C99.5051 4.08452 99.9277 4.54522 100.226 5.13849C100.528 5.73177 100.678 6.42282 100.678 7.21165C100.678 8.00047 100.528 8.68987 100.226 9.27983C99.9277 9.86979 99.5051 10.3288 98.9583 10.657C98.4114 10.9851 97.7651 11.1491 97.0194 11.1491ZM97.0293 9.70739C97.4337 9.70739 97.7717 9.59635 98.0435 9.37429C98.3153 9.14891 98.5175 8.8473 98.65 8.46946C98.7859 8.09162 98.8539 7.67069 98.8539 7.20668C98.8539 6.73935 98.7859 6.31676 98.65 5.93892C98.5175 5.55777 98.3153 5.2545 98.0435 5.02912C97.7717 4.80374 97.4337 4.69105 97.0293 4.69105C96.615 4.69105 96.2703 4.80374 95.9952 5.02912C95.7234 5.2545 95.5196 5.55777 95.3837 5.93892C95.2511 6.31676 95.1848 6.73935 95.1848 7.20668C95.1848 7.67069 95.2511 8.09162 95.3837 8.46946C95.5196 8.8473 95.7234 9.14891 95.9952 9.37429C96.2703 9.59635 96.615 9.70739 97.0293 9.70739ZM102.206 11V3.36364H103.951V4.63636H104.031C104.17 4.19555 104.408 3.85582 104.746 3.61719C105.088 3.37524 105.477 3.25426 105.915 3.25426C106.014 3.25426 106.125 3.25923 106.248 3.26918C106.374 3.2758 106.478 3.2874 106.561 3.30398V4.95952C106.485 4.933 106.364 4.9098 106.198 4.88991C106.036 4.86671 105.878 4.85511 105.726 4.85511C105.398 4.85511 105.103 4.92637 104.841 5.06889C104.582 5.2081 104.379 5.40199 104.229 5.65057C104.08 5.89915 104.006 6.18584 104.006 6.51065V11H102.206ZM110.276 11.1342C109.676 11.1342 109.139 10.9801 108.665 10.6719C108.191 10.3636 107.817 9.91619 107.542 9.32955C107.267 8.7429 107.129 8.0303 107.129 7.19176C107.129 6.34328 107.268 5.62737 107.547 5.04403C107.828 4.45739 108.208 4.01491 108.685 3.71662C109.162 3.41501 109.694 3.2642 110.281 3.2642C110.729 3.2642 111.096 3.34044 111.385 3.4929C111.673 3.64205 111.902 3.82268 112.071 4.0348C112.24 4.24361 112.371 4.44081 112.464 4.62642H112.538V0.818182H114.343V11H112.573V9.79688H112.464C112.371 9.98248 112.237 10.1797 112.061 10.3885C111.885 10.594 111.653 10.7696 111.365 10.9155C111.077 11.0613 110.714 11.1342 110.276 11.1342ZM110.778 9.65767C111.159 9.65767 111.484 9.55492 111.753 9.34943C112.021 9.14062 112.225 8.85062 112.364 8.4794C112.503 8.10819 112.573 7.67566 112.573 7.18182C112.573 6.68797 112.503 6.25876 112.364 5.89418C112.228 5.52959 112.026 5.24621 111.758 5.04403C111.492 4.84186 111.166 4.74077 110.778 4.74077C110.377 4.74077 110.042 4.84517 109.774 5.05398C109.506 5.26278 109.303 5.55114 109.167 5.91903C109.032 6.28693 108.964 6.70786 108.964 7.18182C108.964 7.65909 109.032 8.08499 109.167 8.45952C109.307 8.83073 109.51 9.12405 109.779 9.33949C110.051 9.55161 110.384 9.65767 110.778 9.65767Z" fill="#333333"/>
<path d="M7.66988 81.2899C7.31988 81.2899 7.04988 81.0099 7.04988 80.6699V78.6699C7.04988 78.3199 7.32988 78.0499 7.66988 78.0499C8.00988 78.0499 8.28988 78.3299 8.28988 78.6699V80.6699C8.28988 81.0199 8.00988 81.2899 7.66988 81.2899Z" fill="#545454"/>
<path d="M7.66988 77.2899C7.57988 77.2899 7.49988 77.2699 7.42988 77.2399C7.34988 77.2099 7.27988 77.1699 7.21988 77.1099C7.16988 77.0499 7.11988 76.9799 7.08988 76.9099C7.05988 76.8299 7.03988 76.7499 7.03988 76.6699C7.03988 76.5899 7.05988 76.4999 7.08988 76.4299C7.11988 76.3499 7.16988 76.2799 7.21988 76.2299C7.27988 76.1699 7.34988 76.1199 7.42988 76.0899C7.57988 76.0299 7.74988 76.0299 7.90988 76.0899C7.97988 76.1199 8.04988 76.1699 8.10988 76.2299C8.16988 76.2799 8.20988 76.3499 8.23988 76.4299C8.27988 76.4999 8.28988 76.5899 8.28988 76.6699C8.28988 76.8299 8.22988 76.9899 8.10988 77.1099C7.98988 77.2199 7.82988 77.2899 7.66988 77.2899Z" fill="#545454"/>
<path d="M7.66988 85.9599C3.64988 85.9599 0.379883 82.6899 0.379883 78.6699C0.379883 74.6499 3.64988 71.3799 7.66988 71.3799C11.6899 71.3799 14.9599 74.6499 14.9599 78.6699C14.9599 82.6899 11.6899 85.9599 7.66988 85.9599ZM7.66988 72.6199C4.32988 72.6199 1.61988 75.3399 1.61988 78.6699C1.61988 81.9999 4.32988 84.7099 7.65988 84.7099C10.9899 84.7099 13.6999 81.9999 13.6999 78.6699C13.6999 75.3399 10.9999 72.6199 7.66988 72.6199Z" fill="#545454"/>
<path d="M27.4773 81.4659V75.8409H28.4318V81.4659H27.4773ZM25.142 79.1307V78.1761H30.767V79.1307H25.142ZM32.8168 83L36.7202 75.2784V75.2102H32.2202V74.2727H37.8111V75.2614L33.9247 83H32.8168ZM45.4506 83.1364C44.837 83.1364 44.3086 82.9915 43.8654 82.7017C43.4222 82.4119 43.0813 82.0128 42.8427 81.5043C42.604 80.9957 42.4847 80.4148 42.4847 79.7614C42.4847 79.0966 42.6069 78.5099 42.8512 78.0014C43.0984 77.4901 43.4421 77.0909 43.8825 76.804C44.3256 76.5142 44.8427 76.3693 45.4336 76.3693C45.8938 76.3693 46.3086 76.4545 46.6779 76.625C47.0472 76.7955 47.3498 77.0341 47.5856 77.3409C47.8214 77.6477 47.9677 78.0057 48.0245 78.4148H47.0188C46.9421 78.1165 46.7717 77.8523 46.5075 77.6222C46.2461 77.3892 45.8938 77.2727 45.4506 77.2727C45.0586 77.2727 44.7148 77.375 44.4194 77.5795C44.1268 77.7812 43.8981 78.0668 43.7333 78.4361C43.5714 78.8026 43.4904 79.233 43.4904 79.7273C43.4904 80.233 43.57 80.6733 43.729 81.0483C43.891 81.4233 44.1183 81.7145 44.4109 81.9219C44.7063 82.1293 45.0529 82.233 45.4506 82.233C45.712 82.233 45.9492 82.1875 46.1623 82.0966C46.3754 82.0057 46.5558 81.875 46.7035 81.7045C46.8512 81.5341 46.9563 81.3295 47.0188 81.0909H48.0245C47.9677 81.4773 47.8271 81.8253 47.6026 82.1349C47.381 82.4418 47.087 82.6861 46.7205 82.8679C46.3569 83.0469 45.9336 83.1364 45.4506 83.1364ZM50.5004 79.0625V83H49.4947V74.2727H50.5004V77.4773H50.5856C50.739 77.1392 50.9691 76.8707 51.2759 76.6719C51.5856 76.4702 51.9975 76.3693 52.5117 76.3693C52.9577 76.3693 53.3484 76.4588 53.6836 76.6378C54.0188 76.8139 54.2788 77.0852 54.4634 77.4517C54.6509 77.8153 54.7447 78.2784 54.7447 78.8409V83H53.739V78.9091C53.739 78.3892 53.604 77.9872 53.3342 77.7031C53.0671 77.4162 52.6964 77.2727 52.2219 77.2727C51.8924 77.2727 51.5969 77.3423 51.3356 77.4815C51.0771 77.6207 50.8725 77.8239 50.7219 78.0909C50.5742 78.358 50.5004 78.6818 50.5004 79.0625ZM58.5107 83.1534C58.0959 83.1534 57.7195 83.0753 57.3814 82.919C57.0433 82.7599 56.7749 82.5312 56.576 82.233C56.3771 81.9318 56.2777 81.5682 56.2777 81.142C56.2777 80.767 56.3516 80.4631 56.4993 80.2301C56.647 79.9943 56.8445 79.8097 57.0916 79.6761C57.3388 79.5426 57.6115 79.4432 57.9098 79.3778C58.2109 79.3097 58.5135 79.2557 58.8175 79.2159C59.2152 79.1648 59.5376 79.1264 59.7848 79.1009C60.0348 79.0724 60.2166 79.0256 60.3303 78.9602C60.4467 78.8949 60.505 78.7812 60.505 78.6193V78.5852C60.505 78.1648 60.3899 77.8381 60.1598 77.6051C59.9325 77.3722 59.5874 77.2557 59.1243 77.2557C58.6442 77.2557 58.2678 77.3608 57.995 77.571C57.7223 77.7812 57.5305 78.0057 57.4197 78.2443L56.4652 77.9034C56.6357 77.5057 56.8629 77.196 57.147 76.9744C57.4339 76.75 57.7464 76.5937 58.0845 76.5057C58.4254 76.4148 58.7607 76.3693 59.0902 76.3693C59.3004 76.3693 59.5419 76.3949 59.8146 76.446C60.0902 76.4943 60.3558 76.5952 60.6115 76.7486C60.87 76.902 61.0845 77.1335 61.255 77.4432C61.4254 77.7528 61.5107 78.1676 61.5107 78.6875V83H60.505V82.1136H60.4538C60.3857 82.2557 60.272 82.4077 60.1129 82.5696C59.9538 82.7315 59.7422 82.8693 59.478 82.983C59.2138 83.0966 58.8913 83.1534 58.5107 83.1534ZM58.6641 82.25C59.0618 82.25 59.397 82.1719 59.6697 82.0156C59.9453 81.8594 60.1527 81.6577 60.2919 81.4105C60.4339 81.1634 60.505 80.9034 60.505 80.6307V79.7102C60.4624 79.7614 60.3686 79.8082 60.2237 79.8509C60.0817 79.8906 59.9169 79.9261 59.7294 79.9574C59.5447 79.9858 59.3643 80.0114 59.1882 80.0341C59.0149 80.054 58.8743 80.071 58.7663 80.0852C58.505 80.1193 58.2607 80.1747 58.0334 80.2514C57.8089 80.3253 57.6271 80.4375 57.4879 80.5881C57.3516 80.7358 57.2834 80.9375 57.2834 81.1932C57.2834 81.5426 57.4126 81.8068 57.6712 81.9858C57.9325 82.1619 58.2635 82.25 58.6641 82.25ZM63.3462 83V76.4545H64.3178V77.4432H64.386C64.5053 77.1193 64.7212 76.8565 65.0337 76.6548C65.3462 76.4531 65.6985 76.3523 66.0906 76.3523C66.1644 76.3523 66.2567 76.3537 66.3675 76.3565C66.4783 76.3594 66.5621 76.3636 66.619 76.3693V77.392C66.5849 77.3835 66.5067 77.3707 66.3846 77.3537C66.2653 77.3338 66.1388 77.3239 66.0053 77.3239C65.6871 77.3239 65.4031 77.3906 65.1531 77.5241C64.9059 77.6548 64.7099 77.8366 64.565 78.0696C64.4229 78.2997 64.3519 78.5625 64.3519 78.858V83H63.3462ZM69.7372 83.1534C69.3224 83.1534 68.946 83.0753 68.608 82.919C68.2699 82.7599 68.0014 82.5312 67.8026 82.233C67.6037 81.9318 67.5043 81.5682 67.5043 81.142C67.5043 80.767 67.5781 80.4631 67.7259 80.2301C67.8736 79.9943 68.071 79.8097 68.3182 79.6761C68.5653 79.5426 68.8381 79.4432 69.1364 79.3778C69.4375 79.3097 69.7401 79.2557 70.044 79.2159C70.4418 79.1648 70.7642 79.1264 71.0114 79.1009C71.2614 79.0724 71.4432 79.0256 71.5568 78.9602C71.6733 78.8949 71.7315 78.7812 71.7315 78.6193V78.5852C71.7315 78.1648 71.6165 77.8381 71.3864 77.6051C71.1591 77.3722 70.8139 77.2557 70.3509 77.2557C69.8707 77.2557 69.4943 77.3608 69.2216 77.571C68.9489 77.7812 68.7571 78.0057 68.6463 78.2443L67.6918 77.9034C67.8622 77.5057 68.0895 77.196 68.3736 76.9744C68.6605 76.75 68.973 76.5937 69.3111 76.5057C69.652 76.4148 69.9872 76.3693 70.3168 76.3693C70.527 76.3693 70.7685 76.3949 71.0412 76.446C71.3168 76.4943 71.5824 76.5952 71.8381 76.7486C72.0966 76.902 72.3111 77.1335 72.4815 77.4432C72.652 77.7528 72.7372 78.1676 72.7372 78.6875V83H71.7315V82.1136H71.6804C71.6122 82.2557 71.4986 82.4077 71.3395 82.5696C71.1804 82.7315 70.9688 82.8693 70.7045 82.983C70.4403 83.0966 70.1179 83.1534 69.7372 83.1534ZM69.8906 82.25C70.2884 82.25 70.6236 82.1719 70.8963 82.0156C71.1719 81.8594 71.3793 81.6577 71.5185 81.4105C71.6605 81.1634 71.7315 80.9034 71.7315 80.6307V79.7102C71.6889 79.7614 71.5952 79.8082 71.4503 79.8509C71.3082 79.8906 71.1435 79.9261 70.956 79.9574C70.7713 79.9858 70.5909 80.0114 70.4148 80.0341C70.2415 80.054 70.1009 80.071 69.9929 80.0852C69.7315 80.1193 69.4872 80.1747 69.2599 80.2514C69.0355 80.3253 68.8537 80.4375 68.7145 80.5881C68.5781 80.7358 68.5099 80.9375 68.5099 81.1932C68.5099 81.5426 68.6392 81.8068 68.8977 81.9858C69.1591 82.1619 69.4901 82.25 69.8906 82.25ZM77.2319 83.1364C76.6183 83.1364 76.0898 82.9915 75.6467 82.7017C75.2035 82.4119 74.8626 82.0128 74.6239 81.5043C74.3853 80.9957 74.266 80.4148 74.266 79.7614C74.266 79.0966 74.3881 78.5099 74.6325 78.0014C74.8796 77.4901 75.2234 77.0909 75.6637 76.804C76.1069 76.5142 76.6239 76.3693 77.2148 76.3693C77.6751 76.3693 78.0898 76.4545 78.4592 76.625C78.8285 76.7955 79.131 77.0341 79.3668 77.3409C79.6026 77.6477 79.7489 78.0057 79.8058 78.4148H78.8001C78.7234 78.1165 78.5529 77.8523 78.2887 77.6222C78.0273 77.3892 77.6751 77.2727 77.2319 77.2727C76.8398 77.2727 76.4961 77.375 76.2006 77.5795C75.908 77.7812 75.6793 78.0668 75.5146 78.4361C75.3526 78.8026 75.2717 79.233 75.2717 79.7273C75.2717 80.233 75.3512 80.6733 75.5103 81.0483C75.6722 81.4233 75.8995 81.7145 76.1921 81.9219C76.4876 82.1293 76.8342 82.233 77.2319 82.233C77.4933 82.233 77.7305 82.1875 77.9435 82.0966C78.1566 82.0057 78.337 81.875 78.4847 81.7045C78.6325 81.5341 78.7376 81.3295 78.8001 81.0909H79.8058C79.7489 81.4773 79.6083 81.8253 79.3839 82.1349C79.1623 82.4418 78.8683 82.6861 78.5018 82.8679C78.1381 83.0469 77.7148 83.1364 77.2319 83.1364ZM84.1225 76.4545V77.3068H80.7305V76.4545H84.1225ZM81.7191 74.8864H82.7248V81.125C82.7248 81.4091 82.766 81.6222 82.8484 81.7642C82.9336 81.9034 83.0415 81.9972 83.1722 82.0455C83.3058 82.0909 83.4464 82.1136 83.5941 82.1136C83.7049 82.1136 83.7958 82.108 83.8668 82.0966C83.9379 82.0824 83.9947 82.071 84.0373 82.0625L84.2418 82.9659C84.1737 82.9915 84.0785 83.017 83.9563 83.0426C83.8342 83.071 83.6793 83.0852 83.4918 83.0852C83.2077 83.0852 82.9293 83.0241 82.6566 82.902C82.3867 82.7798 82.1623 82.5938 81.9833 82.3438C81.8072 82.0938 81.7191 81.7784 81.7191 81.3977V74.8864ZM88.3093 83.1364C87.6786 83.1364 87.1346 82.9972 86.6772 82.7188C86.2227 82.4375 85.8718 82.0455 85.6246 81.5426C85.3803 81.0369 85.2582 80.4489 85.2582 79.7784C85.2582 79.108 85.3803 78.517 85.6246 78.0057C85.8718 77.4915 86.2156 77.0909 86.6559 76.804C87.0991 76.5142 87.6161 76.3693 88.207 76.3693C88.5479 76.3693 88.8846 76.4261 89.217 76.5398C89.5494 76.6534 89.8519 76.8381 90.1246 77.0938C90.3974 77.3466 90.6147 77.6818 90.7766 78.0994C90.9386 78.517 91.0195 79.0312 91.0195 79.642V80.0682H85.9741V79.1989H89.9968C89.9968 78.8295 89.9229 78.5 89.7752 78.2102C89.6303 77.9205 89.4229 77.6918 89.1531 77.5241C88.886 77.3565 88.5707 77.2727 88.207 77.2727C87.8065 77.2727 87.4599 77.3722 87.1673 77.571C86.8775 77.767 86.6545 78.0227 86.4982 78.3381C86.342 78.6534 86.2638 78.9915 86.2638 79.3523V79.9318C86.2638 80.4261 86.3491 80.8452 86.5195 81.1889C86.6928 81.5298 86.9329 81.7898 87.2397 81.9688C87.5465 82.1449 87.9031 82.233 88.3093 82.233C88.5735 82.233 88.8121 82.196 89.0252 82.1222C89.2411 82.0455 89.4272 81.9318 89.5835 81.7812C89.7397 81.6278 89.8604 81.4375 89.9457 81.2102L90.9173 81.483C90.815 81.8125 90.6431 82.1023 90.4016 82.3523C90.1602 82.5994 89.8619 82.7926 89.5067 82.9318C89.1516 83.0682 88.7525 83.1364 88.3093 83.1364ZM92.5494 83V76.4545H93.521V77.4432H93.5891C93.7085 77.1193 93.9244 76.8565 94.2369 76.6548C94.5494 76.4531 94.9016 76.3523 95.2937 76.3523C95.3675 76.3523 95.4599 76.3537 95.5707 76.3565C95.6815 76.3594 95.7653 76.3636 95.8221 76.3693V77.392C95.788 77.3835 95.7099 77.3707 95.5877 77.3537C95.4684 77.3338 95.342 77.3239 95.2085 77.3239C94.8903 77.3239 94.6062 77.3906 94.3562 77.5241C94.109 77.6548 93.913 77.8366 93.7681 78.0696C93.6261 78.2997 93.555 78.5625 93.555 78.858V83H92.5494ZM101.651 77.9205L100.747 78.1761C100.69 78.0256 100.607 77.8793 100.496 77.7372C100.388 77.5923 100.24 77.473 100.053 77.3793C99.8651 77.2855 99.625 77.2386 99.3324 77.2386C98.9318 77.2386 98.598 77.331 98.331 77.5156C98.0668 77.6974 97.9347 77.929 97.9347 78.2102C97.9347 78.4602 98.0256 78.6577 98.2074 78.8026C98.3892 78.9474 98.6733 79.0682 99.0597 79.1648L100.031 79.4034C100.616 79.5455 101.053 79.7628 101.339 80.0554C101.626 80.3452 101.77 80.7187 101.77 81.1761C101.77 81.5511 101.662 81.8864 101.446 82.1818C101.233 82.4773 100.935 82.7102 100.551 82.8807C100.168 83.0511 99.7216 83.1364 99.2131 83.1364C98.5455 83.1364 97.9929 82.9915 97.5554 82.7017C97.1179 82.4119 96.8409 81.9886 96.7244 81.4318L97.679 81.1932C97.7699 81.5455 97.9418 81.8097 98.1946 81.9858C98.4503 82.1619 98.7841 82.25 99.196 82.25C99.6648 82.25 100.037 82.1506 100.312 81.9517C100.591 81.75 100.73 81.5085 100.73 81.2273C100.73 81 100.651 80.8097 100.491 80.6562C100.332 80.5 100.088 80.3835 99.7585 80.3068L98.6676 80.0511C98.0682 79.9091 97.6278 79.6889 97.3466 79.3906C97.0682 79.0895 96.929 78.7131 96.929 78.2614C96.929 77.892 97.0327 77.5653 97.2401 77.2812C97.4503 76.9972 97.7358 76.7741 98.0966 76.6122C98.4602 76.4503 98.8722 76.3693 99.3324 76.3693C99.9801 76.3693 100.489 76.5114 100.858 76.7955C101.23 77.0795 101.494 77.4545 101.651 77.9205Z" fill="#545454"/>
<path d="M7.66988 105.29C7.31988 105.29 7.04988 105.01 7.04988 104.67V102.67C7.04988 102.32 7.32988 102.05 7.66988 102.05C8.00988 102.05 8.28988 102.33 8.28988 102.67V104.67C8.28988 105.02 8.00988 105.29 7.66988 105.29Z" fill="#545454"/>
<path d="M7.66988 101.29C7.57988 101.29 7.49988 101.27 7.42988 101.24C7.34988 101.21 7.27988 101.17 7.21988 101.11C7.16988 101.05 7.11988 100.98 7.08988 100.91C7.05988 100.83 7.03988 100.75 7.03988 100.67C7.03988 100.59 7.05988 100.5 7.08988 100.43C7.11988 100.35 7.16988 100.28 7.21988 100.23C7.27988 100.17 7.34988 100.12 7.42988 100.09C7.57988 100.03 7.74988 100.03 7.90988 100.09C7.97988 100.12 8.04988 100.17 8.10988 100.23C8.16988 100.28 8.20988 100.35 8.23988 100.43C8.27988 100.5 8.28988 100.59 8.28988 100.67C8.28988 100.83 8.22988 100.99 8.10988 101.11C7.98988 101.22 7.82988 101.29 7.66988 101.29Z" fill="#545454"/>
<path d="M7.66988 109.96C3.64988 109.96 0.379883 106.69 0.379883 102.67C0.379883 98.6499 3.64988 95.3799 7.66988 95.3799C11.6899 95.3799 14.9599 98.6499 14.9599 102.67C14.9599 106.69 11.6899 109.96 7.66988 109.96ZM7.66988 96.6199C4.32988 96.6199 1.61988 99.3399 1.61988 102.67C1.61988 106 4.32988 108.71 7.65988 108.71C10.9899 108.71 13.6999 106 13.6999 102.67C13.6999 99.3399 10.9999 96.6199 7.66988 96.6199Z" fill="#545454"/>
<path d="M25.4148 107H24.3068L27.5114 98.2727H28.6023L31.8068 107H30.6989L28.0909 99.6534H28.0227L25.4148 107ZM25.8239 103.591H30.2898V104.528H25.8239V103.591ZM35.4663 100.455V101.307H32.0742V100.455H35.4663ZM33.0629 98.8864H34.0685V105.125C34.0685 105.409 34.1097 105.622 34.1921 105.764C34.2773 105.903 34.3853 105.997 34.516 106.045C34.6495 106.091 34.7901 106.114 34.9379 106.114C35.0487 106.114 35.1396 106.108 35.2106 106.097C35.2816 106.082 35.3384 106.071 35.381 106.062L35.5856 106.966C35.5174 106.991 35.4222 107.017 35.3001 107.043C35.1779 107.071 35.0231 107.085 34.8356 107.085C34.5515 107.085 34.2731 107.024 34.0004 106.902C33.7305 106.78 33.506 106.594 33.3271 106.344C33.1509 106.094 33.0629 105.778 33.0629 105.398V98.8864ZM41.3597 98.2727V107H40.354V98.2727H41.3597ZM45.946 107.136C45.3153 107.136 44.7713 106.997 44.3139 106.719C43.8594 106.438 43.5085 106.045 43.2614 105.543C43.017 105.037 42.8949 104.449 42.8949 103.778C42.8949 103.108 43.017 102.517 43.2614 102.006C43.5085 101.491 43.8523 101.091 44.2926 100.804C44.7358 100.514 45.2528 100.369 45.8438 100.369C46.1847 100.369 46.5213 100.426 46.8537 100.54C47.1861 100.653 47.4886 100.838 47.7614 101.094C48.0341 101.347 48.2514 101.682 48.4134 102.099C48.5753 102.517 48.6562 103.031 48.6562 103.642V104.068H43.6108V103.199H47.6335C47.6335 102.83 47.5597 102.5 47.4119 102.21C47.267 101.92 47.0597 101.692 46.7898 101.524C46.5227 101.357 46.2074 101.273 45.8438 101.273C45.4432 101.273 45.0966 101.372 44.804 101.571C44.5142 101.767 44.2912 102.023 44.1349 102.338C43.9787 102.653 43.9006 102.991 43.9006 103.352V103.932C43.9006 104.426 43.9858 104.845 44.1562 105.189C44.3295 105.53 44.5696 105.79 44.8764 105.969C45.1832 106.145 45.5398 106.233 45.946 106.233C46.2102 106.233 46.4489 106.196 46.6619 106.122C46.8778 106.045 47.0639 105.932 47.2202 105.781C47.3764 105.628 47.4972 105.437 47.5824 105.21L48.554 105.483C48.4517 105.812 48.2798 106.102 48.0384 106.352C47.7969 106.599 47.4986 106.793 47.1435 106.932C46.7884 107.068 46.3892 107.136 45.946 107.136ZM52.1122 107.153C51.6974 107.153 51.321 107.075 50.983 106.919C50.6449 106.76 50.3764 106.531 50.1776 106.233C49.9787 105.932 49.8793 105.568 49.8793 105.142C49.8793 104.767 49.9531 104.463 50.1009 104.23C50.2486 103.994 50.446 103.81 50.6932 103.676C50.9403 103.543 51.2131 103.443 51.5114 103.378C51.8125 103.31 52.1151 103.256 52.419 103.216C52.8168 103.165 53.1392 103.126 53.3864 103.101C53.6364 103.072 53.8182 103.026 53.9318 102.96C54.0483 102.895 54.1065 102.781 54.1065 102.619V102.585C54.1065 102.165 53.9915 101.838 53.7614 101.605C53.5341 101.372 53.1889 101.256 52.7259 101.256C52.2457 101.256 51.8693 101.361 51.5966 101.571C51.3239 101.781 51.1321 102.006 51.0213 102.244L50.0668 101.903C50.2372 101.506 50.4645 101.196 50.7486 100.974C51.0355 100.75 51.348 100.594 51.6861 100.506C52.027 100.415 52.3622 100.369 52.6918 100.369C52.902 100.369 53.1435 100.395 53.4162 100.446C53.6918 100.494 53.9574 100.595 54.2131 100.749C54.4716 100.902 54.6861 101.134 54.8565 101.443C55.027 101.753 55.1122 102.168 55.1122 102.688V107H54.1065V106.114H54.0554C53.9872 106.256 53.8736 106.408 53.7145 106.57C53.5554 106.732 53.3438 106.869 53.0795 106.983C52.8153 107.097 52.4929 107.153 52.1122 107.153ZM52.2656 106.25C52.6634 106.25 52.9986 106.172 53.2713 106.016C53.5469 105.859 53.7543 105.658 53.8935 105.411C54.0355 105.163 54.1065 104.903 54.1065 104.631V103.71C54.0639 103.761 53.9702 103.808 53.8253 103.851C53.6832 103.891 53.5185 103.926 53.331 103.957C53.1463 103.986 52.9659 104.011 52.7898 104.034C52.6165 104.054 52.4759 104.071 52.3679 104.085C52.1065 104.119 51.8622 104.175 51.6349 104.251C51.4105 104.325 51.2287 104.437 51.0895 104.588C50.9531 104.736 50.8849 104.937 50.8849 105.193C50.8849 105.543 51.0142 105.807 51.2727 105.986C51.5341 106.162 51.8651 106.25 52.2656 106.25ZM61.5842 101.92L60.6808 102.176C60.6239 102.026 60.5401 101.879 60.4293 101.737C60.3214 101.592 60.1737 101.473 59.9862 101.379C59.7987 101.286 59.5586 101.239 59.266 101.239C58.8654 101.239 58.5316 101.331 58.2646 101.516C58.0004 101.697 57.8683 101.929 57.8683 102.21C57.8683 102.46 57.9592 102.658 58.141 102.803C58.3228 102.947 58.6069 103.068 58.9933 103.165L59.9648 103.403C60.5501 103.545 60.9862 103.763 61.2731 104.055C61.56 104.345 61.7035 104.719 61.7035 105.176C61.7035 105.551 61.5955 105.886 61.3796 106.182C61.1665 106.477 60.8683 106.71 60.4847 106.881C60.1012 107.051 59.6552 107.136 59.1467 107.136C58.479 107.136 57.9265 106.991 57.489 106.702C57.0515 106.412 56.7745 105.989 56.658 105.432L57.6126 105.193C57.7035 105.545 57.8754 105.81 58.1282 105.986C58.3839 106.162 58.7177 106.25 59.1296 106.25C59.5984 106.25 59.9705 106.151 60.2461 105.952C60.5245 105.75 60.6637 105.509 60.6637 105.227C60.6637 105 60.5842 104.81 60.4251 104.656C60.266 104.5 60.0217 104.384 59.6921 104.307L58.6012 104.051C58.0018 103.909 57.5614 103.689 57.2802 103.391C57.0018 103.089 56.8626 102.713 56.8626 102.261C56.8626 101.892 56.9663 101.565 57.1737 101.281C57.3839 100.997 57.6694 100.774 58.0302 100.612C58.3938 100.45 58.8058 100.369 59.266 100.369C59.9137 100.369 60.4222 100.511 60.7915 100.795C61.1637 101.08 61.4279 101.455 61.5842 101.92ZM66.0639 100.455V101.307H62.6719V100.455H66.0639ZM63.6605 98.8864H64.6662V105.125C64.6662 105.409 64.7074 105.622 64.7898 105.764C64.875 105.903 64.983 105.997 65.1136 106.045C65.2472 106.091 65.3878 106.114 65.5355 106.114C65.6463 106.114 65.7372 106.108 65.8082 106.097C65.8793 106.082 65.9361 106.071 65.9787 106.062L66.1832 106.966C66.1151 106.991 66.0199 107.017 65.8977 107.043C65.7756 107.071 65.6207 107.085 65.4332 107.085C65.1491 107.085 64.8707 107.024 64.598 106.902C64.3281 106.78 64.1037 106.594 63.9247 106.344C63.7486 106.094 63.6605 105.778 63.6605 105.398V98.8864ZM73.6108 107.136C73.0199 107.136 72.5014 106.996 72.0554 106.714C71.6122 106.433 71.2656 106.04 71.0156 105.534C70.7685 105.028 70.6449 104.437 70.6449 103.761C70.6449 103.08 70.7685 102.484 71.0156 101.976C71.2656 101.467 71.6122 101.072 72.0554 100.791C72.5014 100.51 73.0199 100.369 73.6108 100.369C74.2017 100.369 74.7188 100.51 75.1619 100.791C75.608 101.072 75.9545 101.467 76.2017 101.976C76.4517 102.484 76.5767 103.08 76.5767 103.761C76.5767 104.437 76.4517 105.028 76.2017 105.534C75.9545 106.04 75.608 106.433 75.1619 106.714C74.7188 106.996 74.2017 107.136 73.6108 107.136ZM73.6108 106.233C74.0597 106.233 74.429 106.118 74.7188 105.888C75.0085 105.658 75.223 105.355 75.3622 104.98C75.5014 104.605 75.571 104.199 75.571 103.761C75.571 103.324 75.5014 102.916 75.3622 102.538C75.223 102.161 75.0085 101.855 74.7188 101.622C74.429 101.389 74.0597 101.273 73.6108 101.273C73.1619 101.273 72.7926 101.389 72.5028 101.622C72.2131 101.855 71.9986 102.161 71.8594 102.538C71.7202 102.916 71.6506 103.324 71.6506 103.761C71.6506 104.199 71.7202 104.605 71.8594 104.98C71.9986 105.355 72.2131 105.658 72.5028 105.888C72.7926 106.118 73.1619 106.233 73.6108 106.233ZM79.1175 103.062V107H78.1119V100.455H79.0835V101.477H79.1687C79.3221 101.145 79.555 100.878 79.8675 100.676C80.18 100.472 80.5835 100.369 81.0778 100.369C81.521 100.369 81.9087 100.46 82.2411 100.642C82.5735 100.821 82.832 101.094 83.0167 101.46C83.2013 101.824 83.2937 102.284 83.2937 102.841V107H82.288V102.909C82.288 102.395 82.1545 101.994 81.8874 101.707C81.6204 101.418 81.2539 101.273 80.788 101.273C80.467 101.273 80.18 101.342 79.9272 101.482C79.6772 101.621 79.4798 101.824 79.3349 102.091C79.19 102.358 79.1175 102.682 79.1175 103.062ZM87.8757 107.136C87.245 107.136 86.701 106.997 86.2436 106.719C85.7891 106.438 85.4382 106.045 85.1911 105.543C84.9467 105.037 84.8246 104.449 84.8246 103.778C84.8246 103.108 84.9467 102.517 85.1911 102.006C85.4382 101.491 85.782 101.091 86.2223 100.804C86.6655 100.514 87.1825 100.369 87.7734 100.369C88.1143 100.369 88.451 100.426 88.7834 100.54C89.1158 100.653 89.4183 100.838 89.6911 101.094C89.9638 101.347 90.1811 101.682 90.343 102.099C90.505 102.517 90.5859 103.031 90.5859 103.642V104.068H85.5405V103.199H89.5632C89.5632 102.83 89.4893 102.5 89.3416 102.21C89.1967 101.92 88.9893 101.692 88.7195 101.524C88.4524 101.357 88.1371 101.273 87.7734 101.273C87.3729 101.273 87.0263 101.372 86.7337 101.571C86.4439 101.767 86.2209 102.023 86.0646 102.338C85.9084 102.653 85.8303 102.991 85.8303 103.352V103.932C85.8303 104.426 85.9155 104.845 86.0859 105.189C86.2592 105.53 86.4993 105.79 86.8061 105.969C87.1129 106.145 87.4695 106.233 87.8757 106.233C88.1399 106.233 88.3786 106.196 88.5916 106.122C88.8075 106.045 88.9936 105.932 89.1499 105.781C89.3061 105.628 89.4268 105.437 89.5121 105.21L90.4837 105.483C90.3814 105.812 90.2095 106.102 89.968 106.352C89.7266 106.599 89.4283 106.793 89.0732 106.932C88.718 107.068 88.3189 107.136 87.8757 107.136ZM96.4964 103.062V107H95.4908V100.455H96.4624V101.477H96.5476C96.701 101.145 96.9339 100.878 97.2464 100.676C97.5589 100.472 97.9624 100.369 98.4567 100.369C98.8999 100.369 99.2876 100.46 99.62 100.642C99.9524 100.821 100.211 101.094 100.396 101.46C100.58 101.824 100.673 102.284 100.673 102.841V107H99.6669V102.909C99.6669 102.395 99.5334 101.994 99.2663 101.707C98.9993 101.418 98.6328 101.273 98.1669 101.273C97.8459 101.273 97.5589 101.342 97.3061 101.482C97.0561 101.621 96.8587 101.824 96.7138 102.091C96.5689 102.358 96.4964 102.682 96.4964 103.062ZM106.635 104.324V100.455H107.641V107H106.635V105.892H106.567C106.414 106.224 106.175 106.507 105.851 106.74C105.527 106.97 105.118 107.085 104.624 107.085C104.215 107.085 103.851 106.996 103.533 106.817C103.215 106.635 102.965 106.362 102.783 105.999C102.601 105.632 102.51 105.17 102.51 104.614V100.455H103.516V104.545C103.516 105.023 103.65 105.403 103.917 105.688C104.186 105.972 104.53 106.114 104.948 106.114C105.198 106.114 105.452 106.05 105.711 105.922C105.972 105.794 106.191 105.598 106.367 105.334C106.546 105.07 106.635 104.733 106.635 104.324ZM109.483 107V100.455H110.455V101.477H110.54C110.676 101.128 110.896 100.857 111.2 100.663C111.504 100.467 111.869 100.369 112.295 100.369C112.727 100.369 113.087 100.467 113.374 100.663C113.663 100.857 113.889 101.128 114.051 101.477H114.119C114.287 101.139 114.538 100.871 114.874 100.672C115.209 100.47 115.611 100.369 116.08 100.369C116.665 100.369 117.143 100.553 117.516 100.919C117.888 101.283 118.074 101.849 118.074 102.619V107H117.068V102.619C117.068 102.136 116.936 101.791 116.672 101.584C116.408 101.376 116.097 101.273 115.739 101.273C115.278 101.273 114.922 101.412 114.669 101.69C114.416 101.966 114.29 102.315 114.29 102.739V107H113.267V102.517C113.267 102.145 113.146 101.845 112.905 101.618C112.663 101.388 112.352 101.273 111.972 101.273C111.71 101.273 111.466 101.342 111.239 101.482C111.014 101.621 110.832 101.814 110.693 102.061C110.557 102.305 110.489 102.588 110.489 102.909V107H109.483ZM120.049 107V98.2727H121.055V101.494H121.14C121.214 101.381 121.316 101.236 121.447 101.06C121.58 100.881 121.771 100.722 122.018 100.582C122.268 100.44 122.606 100.369 123.032 100.369C123.583 100.369 124.069 100.507 124.489 100.783C124.91 101.058 125.238 101.449 125.474 101.955C125.71 102.46 125.827 103.057 125.827 103.744C125.827 104.438 125.71 105.038 125.474 105.547C125.238 106.053 124.911 106.445 124.494 106.723C124.076 106.999 123.594 107.136 123.049 107.136C122.629 107.136 122.292 107.067 122.039 106.928C121.786 106.786 121.592 106.625 121.455 106.446C121.319 106.264 121.214 106.114 121.14 105.994H121.021V107H120.049ZM121.038 103.727C121.038 104.222 121.11 104.658 121.255 105.036C121.4 105.411 121.612 105.705 121.89 105.918C122.168 106.128 122.509 106.233 122.913 106.233C123.333 106.233 123.684 106.122 123.965 105.901C124.249 105.676 124.462 105.375 124.604 104.997C124.749 104.616 124.822 104.193 124.822 103.727C124.822 103.267 124.751 102.852 124.609 102.483C124.469 102.111 124.258 101.817 123.974 101.601C123.692 101.382 123.339 101.273 122.913 101.273C122.504 101.273 122.16 101.376 121.881 101.584C121.603 101.788 121.393 102.075 121.251 102.445C121.109 102.811 121.038 103.239 121.038 103.727ZM130.11 107.136C129.479 107.136 128.935 106.997 128.478 106.719C128.023 106.438 127.673 106.045 127.425 105.543C127.181 105.037 127.059 104.449 127.059 103.778C127.059 103.108 127.181 102.517 127.425 102.006C127.673 101.491 128.016 101.091 128.457 100.804C128.9 100.514 129.417 100.369 130.008 100.369C130.349 100.369 130.685 100.426 131.018 100.54C131.35 100.653 131.653 100.838 131.925 101.094C132.198 101.347 132.415 101.682 132.577 102.099C132.739 102.517 132.82 103.031 132.82 103.642V104.068H127.775V103.199H131.798C131.798 102.83 131.724 102.5 131.576 102.21C131.431 101.92 131.224 101.692 130.954 101.524C130.687 101.357 130.371 101.273 130.008 101.273C129.607 101.273 129.261 101.372 128.968 101.571C128.678 101.767 128.455 102.023 128.299 102.338C128.143 102.653 128.065 102.991 128.065 103.352V103.932C128.065 104.426 128.15 104.845 128.32 105.189C128.494 105.53 128.734 105.79 129.04 105.969C129.347 106.145 129.704 106.233 130.11 106.233C130.374 106.233 130.613 106.196 130.826 106.122C131.042 106.045 131.228 105.932 131.384 105.781C131.54 105.628 131.661 105.437 131.746 105.21L132.718 105.483C132.616 105.812 132.444 106.102 132.202 106.352C131.961 106.599 131.663 106.793 131.308 106.932C130.952 107.068 130.553 107.136 130.11 107.136ZM134.35 107V100.455H135.322V101.443H135.39C135.509 101.119 135.725 100.857 136.038 100.655C136.35 100.453 136.702 100.352 137.094 100.352C137.168 100.352 137.261 100.354 137.371 100.357C137.482 100.359 137.566 100.364 137.623 100.369V101.392C137.589 101.384 137.511 101.371 137.388 101.354C137.269 101.334 137.143 101.324 137.009 101.324C136.691 101.324 136.407 101.391 136.157 101.524C135.91 101.655 135.714 101.837 135.569 102.07C135.427 102.3 135.356 102.562 135.356 102.858V107H134.35Z" fill="#545454"/>
</svg>
