<svg width="303" height="111" fill="none" xmlns="http://www.w3.org/2000/svg"><rect x=".5" y="23.5" width="302" height="39" rx="3.5" fill="#fff"/><path d="M15.18 33.61v19.14h-1.13V33.61h1.13Z" fill="#1F1F1F"/><path d="M280.59 48.77c-6.25 0-8.93-5.2-9.04-5.42a.77.77 0 0 1 0-.7c.11-.23 2.79-5.43 9.04-5.43 6.25 0 8.92 5.22 9.03 5.44.12.23.12.48 0 .7-.1.23-2.78 5.44-9.03 5.44v-.03ZM273.15 43a8.77 8.77 0 0 0 7.44 4.21 8.74 8.74 0 0 0 7.43-4.22 8.77 8.77 0 0 0-7.43-4.23c-4.45 0-6.78 3.18-7.44 4.24Z" fill="#757575"/><path d="M280.59 46.27a3.28 3.28 0 1 1 0-6.55 3.28 3.28 0 0 1 0 6.55Zm0-5a1.73 1.73 0 0 0 0 3.45 1.73 1.73 0 0 0 0-3.45Z" fill="#757575"/><rect x=".5" y="23.5" width="302" height="39" rx="3.5" stroke="#545454"/><path d="M9.72 4.25H7.86a2.31 2.31 0 0 0-.83-1.41 2.22 2.22 0 0 0-.72-.38 2.83 2.83 0 0 0-2.34.3c-.43.27-.76.67-1 1.2a4.67 4.67 0 0 0-.37 1.95c0 .78.12 1.43.36 1.97.25.53.58.93 1 1.2a2.96 2.96 0 0 0 2.32.28 2.34 2.34 0 0 0 1.27-.95c.15-.23.25-.5.31-.8l1.86.02a4 4 0 0 1-2.66 3.24 4.8 4.8 0 0 1-1.65.27 4.34 4.34 0 0 1-4.06-2.42 6.1 6.1 0 0 1-.6-2.81 6 6 0 0 1 .6-2.81A4.37 4.37 0 0 1 5.42.68c.57 0 1.1.08 1.58.24a3.98 3.98 0 0 1 2.24 1.82c.25.44.41.95.49 1.51Zm1.6 6.75V3.36h1.75v1.28h.08a1.9 1.9 0 0 1 1.89-1.39 4.15 4.15 0 0 1 .64.05v1.66a3.34 3.34 0 0 0-.84-.1 2 2 0 0 0-.88.2 1.56 1.56 0 0 0-.83 1.45V11h-1.8Zm8.63.15c-.77 0-1.43-.16-1.99-.48a3.23 3.23 0 0 1-1.28-1.36 4.56 4.56 0 0 1-.44-2.08c0-.79.15-1.48.44-2.07a3.38 3.38 0 0 1 3.17-1.9c.47 0 .92.08 1.33.23a3.17 3.17 0 0 1 1.88 1.9c.19.49.28 1.06.28 1.73v.55h-6.26v-1.2h4.54c0-.35-.08-.66-.23-.93a1.63 1.63 0 0 0-.6-.64 1.72 1.72 0 0 0-.91-.23 1.8 1.8 0 0 0-1.62.96 2 2 0 0 0-.24.94v1.06c0 .44.08.82.25 1.14.16.32.39.56.68.73a2.25 2.25 0 0 0 1.73.14 1.55 1.55 0 0 0 .91-.88l1.68.2c-.1.44-.31.82-.61 1.16-.3.32-.67.58-1.13.76-.46.18-1 .27-1.58.27Zm7.11 0c-.48 0-.92-.08-1.3-.25a2.13 2.13 0 0 1-.92-.78 2.27 2.27 0 0 1-.33-1.26c0-.43.08-.79.23-1.07.16-.28.38-.5.66-.68.27-.17.58-.3.93-.38.34-.09.7-.15 1.07-.2l1.1-.12c.27-.04.47-.1.6-.18.13-.08.2-.2.2-.38v-.03c0-.37-.12-.66-.34-.87-.22-.2-.54-.3-.96-.3-.44 0-.79.09-1.05.28-.25.2-.43.42-.51.68l-1.69-.24a2.68 2.68 0 0 1 1.78-1.87 4.76 4.76 0 0 1 2.56-.1c.36.08.7.22 1 .42.3.2.54.46.73.8.18.34.27.76.27 1.27V11h-1.73V9.95h-.06A2.2 2.2 0 0 1 28.1 11c-.3.1-.64.16-1.04.16Zm.47-1.32a2 2 0 0 0 .94-.21c.26-.15.47-.34.61-.58.15-.24.22-.5.22-.78v-.9a.85.85 0 0 1-.29.13 13.75 13.75 0 0 1-1.36.24c-.27.04-.51.1-.72.18-.21.09-.38.2-.5.35a.85.85 0 0 0-.19.57c0 .33.12.58.36.75.25.17.55.25.93.25Zm9.19-6.47v1.4h-4.4v-1.4h4.4ZM33.4 1.53h1.8V8.7c0 .25.04.43.1.56a.6.6 0 0 0 .3.26c.13.04.27.07.42.07a1.76 1.76 0 0 0 .52-.07l.3 1.4a4 4 0 0 1-1.05.18c-.45.02-.86-.05-1.22-.2a1.9 1.9 0 0 1-.86-.7A2.1 2.1 0 0 1 33.4 9V1.53Zm8.11 9.62c-.77 0-1.43-.16-1.98-.48a3.23 3.23 0 0 1-1.28-1.36 4.56 4.56 0 0 1-.45-2.08c0-.79.15-1.48.45-2.07a3.38 3.38 0 0 1 3.17-1.9c.47 0 .91.08 1.33.23a3.19 3.19 0 0 1 1.88 1.9c.18.49.28 1.06.28 1.73v.55h-6.26v-1.2h4.53a2 2 0 0 0-.22-.93 1.63 1.63 0 0 0-.61-.64 1.72 1.72 0 0 0-.9-.23c-.38 0-.7.09-.98.26-.28.18-.5.41-.65.7a2 2 0 0 0-.23.94v1.06c0 .44.08.82.24 1.14.16.32.39.56.68.73.3.16.63.25 1.03.25.26 0 .5-.04.7-.11.22-.08.4-.19.56-.34.15-.14.27-.32.35-.54l1.68.2c-.1.44-.3.82-.6 1.16-.3.32-.68.58-1.14.76-.46.18-.99.27-1.58.27Zm8.47-.15V.82h3.82c.78 0 1.44.14 1.97.44.53.29.93.69 1.2 1.2.28.5.42 1.08.42 1.73a3.6 3.6 0 0 1-.41 1.74c-.28.5-.69.9-1.22 1.2-.54.29-1.2.43-1.99.43h-2.53V6.04h2.29c.45 0 .83-.08 1.12-.24.3-.15.5-.37.65-.65.14-.28.2-.6.2-.96s-.06-.68-.2-.96a1.45 1.45 0 0 0-.66-.64 2.42 2.42 0 0 0-1.12-.23h-1.7V11H50Zm11 .15c-.5 0-.93-.08-1.32-.25a2.13 2.13 0 0 1-.91-.78 2.27 2.27 0 0 1-.33-1.26c0-.43.08-.79.23-1.07.16-.28.38-.5.66-.68.27-.17.58-.3.93-.38.34-.09.7-.15 1.07-.2l1.1-.12c.27-.04.47-.1.6-.18.13-.08.2-.2.2-.38v-.03c0-.37-.12-.66-.34-.87-.22-.2-.54-.3-.96-.3-.44 0-.79.09-1.05.28-.25.2-.43.42-.51.68l-1.69-.24a2.68 2.68 0 0 1 1.78-1.87A4.76 4.76 0 0 1 63 3.4c.36.08.7.22 1 .42.3.2.54.46.73.8.18.34.27.76.27 1.27V11h-1.73V9.95h-.06a2.2 2.2 0 0 1-1.2 1.04c-.3.1-.64.16-1.04.16Zm.46-1.32a2 2 0 0 0 .94-.21c.26-.15.47-.34.61-.58.15-.24.22-.5.22-.78v-.9a.85.85 0 0 1-.29.13 13.83 13.83 0 0 1-1.36.24c-.27.04-.51.1-.72.18-.21.09-.38.2-.5.35a.85.85 0 0 0-.19.57c0 .33.12.58.36.75.25.17.55.25.93.25Zm11.4-4.45-1.63.18a1.32 1.32 0 0 0-.7-.82c-.2-.09-.43-.13-.7-.13-.38 0-.7.08-.95.24-.26.16-.38.37-.38.63 0 .22.08.4.25.54.17.14.44.26.83.35l1.3.27c.73.16 1.26.4 1.62.75.35.33.53.78.53 1.32 0 .48-.14.9-.42 1.28-.27.36-.66.65-1.15.85-.49.2-1.05.3-1.69.3-.93 0-1.69-.19-2.26-.58-.57-.4-.9-.94-1.01-1.64l1.75-.17c.08.34.25.6.5.78.27.17.6.26 1.02.26.42 0 .77-.09 1.03-.26.26-.18.39-.4.39-.65 0-.22-.09-.4-.26-.54a1.77 1.77 0 0 0-.77-.33l-1.3-.28a3.1 3.1 0 0 1-1.63-.77 1.9 1.9 0 0 1-.52-1.38c0-.47.12-.88.38-1.22a2.5 2.5 0 0 1 1.1-.8 4 4 0 0 1 1.6-.3c.9 0 1.6.2 2.12.58.52.38.84.9.96 1.54Zm7.7 0-1.65.18a1.32 1.32 0 0 0-.7-.82c-.2-.09-.43-.13-.7-.13-.38 0-.7.08-.95.24-.25.16-.38.37-.37.63 0 .22.08.4.24.54.17.14.45.26.84.35l1.3.27c.72.16 1.26.4 1.6.75.36.33.54.78.55 1.32 0 .48-.15.9-.43 1.28-.27.36-.65.65-1.14.85-.5.2-1.06.3-1.7.3-.93 0-1.68-.19-2.25-.58-.57-.4-.91-.94-1.02-1.64l1.75-.17c.08.34.25.6.51.78.26.17.6.26 1.01.26.43 0 .77-.09 1.03-.26.26-.18.4-.4.4-.65a.7.7 0 0 0-.26-.54 1.77 1.77 0 0 0-.78-.33l-1.3-.28a3.1 3.1 0 0 1-1.63-.77 1.9 1.9 0 0 1-.52-1.38c0-.47.13-.88.39-1.22a2.5 2.5 0 0 1 1.08-.8 4.1 4.1 0 0 1 1.62-.3c.9 0 1.6.2 2.11.58.52.38.84.9.96 1.54ZM83.76 11 81.6 3.36h1.83l1.35 5.37h.07l1.37-5.37h1.81L89.4 8.7h.08l1.32-5.34h1.84L90.5 11h-1.9l-1.43-5.16h-.1L85.65 11h-1.88Zm13.25.15a3.7 3.7 0 0 1-1.94-.5 3.34 3.34 0 0 1-1.27-1.37 4.53 4.53 0 0 1-.45-2.07c0-.79.15-1.48.45-2.07.3-.6.72-1.06 1.27-1.38a3.7 3.7 0 0 1 1.94-.5c.75 0 1.4.17 1.94.5.55.32.97.79 1.27 1.38.3.6.45 1.28.45 2.07 0 .79-.15 1.48-.45 2.07-.3.59-.72 1.05-1.27 1.38a3.7 3.7 0 0 1-1.94.49Zm0-1.44c.41 0 .75-.11 1.02-.34a2 2 0 0 0 .61-.9c.14-.38.2-.8.2-1.26 0-.47-.06-.9-.2-1.27a2 2 0 0 0-.6-.91 1.54 1.54 0 0 0-1.02-.34c-.42 0-.76.11-1.03.34-.28.22-.48.53-.62.9a3.95 3.95 0 0 0 0 2.54c.14.38.34.68.62.9.27.23.61.34 1.03.34ZM102.2 11V3.36h1.74v1.28h.08a1.9 1.9 0 0 1 1.89-1.39 4.17 4.17 0 0 1 .64.05v1.66a3.34 3.34 0 0 0-.84-.1c-.32 0-.62.07-.88.2a1.57 1.57 0 0 0-.83 1.45V11h-1.8Zm8.07.13a2.89 2.89 0 0 1-2.74-1.8 5.01 5.01 0 0 1-.41-2.14c0-.85.14-1.56.42-2.15a2.92 2.92 0 0 1 3.84-1.55c.28.15.51.33.68.54.17.21.3.41.4.6h.07V.82h1.8V11h-1.77V9.8h-.1c-.1.18-.23.38-.4.59a2.22 2.22 0 0 1-1.8.74Zm.5-1.47c.38 0 .7-.1.97-.31.27-.2.47-.5.61-.87s.21-.8.21-1.3-.07-.92-.2-1.29a1.84 1.84 0 0 0-.61-.85c-.27-.2-.6-.3-.98-.3-.4 0-.74.1-1 .31-.27.21-.48.5-.61.87-.14.37-.2.79-.2 1.26 0 .48.06.9.2 1.28a2 2 0 0 0 .6.88c.28.21.61.32 1 .32Z" fill="#333"/><path d="M7.67 81.29a.62.62 0 0 1-.62-.62v-2c0-.35.28-.62.62-.62.34 0 .62.28.62.62v2c0 .35-.28.62-.62.62Zm0-4a.6.6 0 0 1-.24-.05.57.57 0 0 1-.21-.13.86.86 0 0 1-.13-.2.69.69 0 0 1-.05-.24.64.64 0 0 1 .39-.58.66.66 0 0 1 .48 0c.07.03.14.08.2.14.06.05.1.12.13.2a.5.5 0 0 1 .05.24c0 .16-.06.32-.18.44a.67.67 0 0 1-.44.18Z" fill="#545454"/><path d="M7.67 85.96a7.3 7.3 0 1 1 .02-14.6 7.3 7.3 0 0 1-.02 14.6Zm0-13.34a6.05 6.05 0 1 0 0 12.09 6.05 6.05 0 0 0 0-12.09Zm19.81 8.85v-5.63h.95v5.63h-.95Zm-2.34-2.34v-.95h5.63v.95h-5.63ZM32.82 83l3.9-7.72v-.07h-4.5v-.94h5.6v1L33.91 83h-1.1Zm12.63.14c-.61 0-1.14-.15-1.58-.44a2.83 2.83 0 0 1-1.03-1.2 4.06 4.06 0 0 1-.36-1.74c0-.66.13-1.25.37-1.76.25-.51.6-.9 1.03-1.2.45-.29.96-.43 1.55-.43.46 0 .88.08 1.25.25.37.18.67.41.9.72.24.3.39.67.44 1.07h-1a1.53 1.53 0 0 0-1.57-1.14c-.4 0-.74.1-1.03.3a2 2 0 0 0-.69.87c-.16.36-.24.8-.24 1.29 0 .5.08.94.24 1.32.16.37.39.66.68.87.3.2.64.31 1.04.31.26 0 .5-.04.71-.13a1.47 1.47 0 0 0 .86-1h1a2.33 2.33 0 0 1-1.3 1.77c-.36.18-.79.27-1.27.27Zm5.05-4.08V83h-1v-8.73h1v3.2h.09c.15-.33.38-.6.69-.8.3-.2.72-.3 1.23-.3.45 0 .84.09 1.17.27.34.17.6.45.78.81.2.37.28.83.28 1.4V83h-1v-4.1c0-.51-.14-.91-.4-1.2a1.44 1.44 0 0 0-1.12-.43c-.33 0-.62.07-.88.21-.26.14-.47.34-.62.61-.15.27-.22.6-.22.97Zm8.01 4.1c-.41 0-.8-.08-1.13-.24-.34-.16-.6-.39-.8-.69-.2-.3-.3-.66-.3-1.09 0-.37.07-.68.22-.91.15-.24.34-.42.6-.55.24-.14.51-.24.81-.3a15.63 15.63 0 0 1 1.87-.28c.25-.03.44-.07.55-.14.12-.07.18-.18.18-.34v-.03c0-.43-.12-.75-.35-.98-.23-.24-.57-.35-1.04-.35-.48 0-.85.1-1.13.31-.27.21-.46.44-.57.67l-.95-.34a2.3 2.3 0 0 1 1.61-1.4 3.9 3.9 0 0 1 1.73-.05c.28.04.55.15.8.3.26.15.47.38.65.7.17.3.25.72.25 1.24V83h-1v-.89h-.06c-.06.15-.18.3-.34.46-.16.16-.37.3-.63.41-.27.12-.59.17-.97.17Zm.15-.91a2 2 0 0 0 1.01-.23 1.6 1.6 0 0 0 .84-1.39v-.92a.64.64 0 0 1-.29.14 4.77 4.77 0 0 1-1.03.18l-.42.06c-.27.03-.5.08-.74.16-.22.08-.4.19-.54.34a.86.86 0 0 0-.2.6c0 .35.12.62.38.8.26.17.6.26 1 .26Zm4.69.75v-6.55h.97v1h.07c.12-.33.33-.6.64-.8.32-.2.67-.3 1.06-.3a11.3 11.3 0 0 1 .53.02v1.02a3 3 0 0 0-.61-.07c-.32 0-.6.07-.86.2a1.47 1.47 0 0 0-.8 1.33V83h-1Zm6.39.15c-.42 0-.8-.07-1.13-.23-.34-.16-.6-.39-.8-.69-.2-.3-.3-.66-.3-1.09 0-.37.07-.68.22-.91.14-.24.34-.42.59-.55.25-.14.52-.24.82-.3a14.76 14.76 0 0 1 1.87-.28c.25-.03.43-.07.55-.14.11-.07.17-.18.17-.34v-.03c0-.43-.11-.75-.34-.98-.23-.24-.58-.35-1.04-.35-.48 0-.86.1-1.13.31-.27.21-.46.44-.57.67l-.96-.34a2.3 2.3 0 0 1 1.62-1.4 3.9 3.9 0 0 1 1.73-.05c.28.04.54.15.8.3s.47.38.64.7c.17.3.26.72.26 1.24V83h-1v-.89h-.06a1.91 1.91 0 0 1-.98.87 2.3 2.3 0 0 1-.96.17Zm.15-.9a2 2 0 0 0 1-.23 1.6 1.6 0 0 0 .84-1.39v-.92c-.04.05-.13.1-.28.14a4.78 4.78 0 0 1-1.04.18l-.42.06c-.26.03-.5.08-.73.16-.22.08-.4.19-.55.34a.86.86 0 0 0-.2.6c0 .35.13.62.39.8.26.17.59.26 1 .26Zm7.34.89c-.61 0-1.14-.15-1.58-.44a2.83 2.83 0 0 1-1.03-1.2 4.06 4.06 0 0 1-.35-1.74c0-.66.12-1.25.36-1.76.25-.51.6-.9 1.03-1.2.45-.29.96-.43 1.55-.43.47 0 .88.08 1.25.25a2.38 2.38 0 0 1 1.35 1.79H78.8a1.53 1.53 0 0 0-1.57-1.14c-.39 0-.73.1-1.03.3a2 2 0 0 0-.69.87c-.16.36-.24.8-.24 1.29 0 .5.08.94.24 1.32.16.37.39.66.68.87.3.2.64.31 1.04.31.26 0 .5-.04.71-.13a1.47 1.47 0 0 0 .86-1h1a2.33 2.33 0 0 1-1.3 1.77c-.36.18-.79.27-1.27.27Zm6.9-6.69v.86h-3.4v-.86h3.4Zm-2.41-1.56h1v6.23c0 .29.05.5.13.64s.2.24.32.29a1.78 1.78 0 0 0 .7.05l.17-.04.2.9a2.04 2.04 0 0 1-.75.13c-.28 0-.56-.07-.83-.19a1.6 1.6 0 0 1-.68-.56 1.6 1.6 0 0 1-.26-.94v-6.51Zm6.59 8.25a2.8 2.8 0 0 1-2.68-1.6c-.25-.5-.37-1.1-.37-1.76 0-.67.12-1.26.36-1.77a2.77 2.77 0 0 1 2.58-1.64c.35 0 .68.06 1.02.17a2.5 2.5 0 0 1 1.56 1.56c.16.42.24.93.24 1.54v.43h-5.05v-.87H90c0-.37-.08-.7-.22-.99a1.67 1.67 0 0 0-1.57-.94 1.85 1.85 0 0 0-1.71 1.07c-.16.31-.24.65-.24 1.01v.58c0 .5.09.92.26 1.26.17.34.41.6.72.78.3.17.66.26 1.07.26.26 0 .5-.03.72-.1a1.55 1.55 0 0 0 .92-.91l.97.26c-.1.33-.28.62-.52.87s-.54.44-.9.58c-.35.14-.75.2-1.2.2Zm4.24-.14v-6.55h.97v1h.07c.12-.33.33-.6.65-.8.3-.2.66-.3 1.05-.3a11.31 11.31 0 0 1 .53.02v1.02a2.98 2.98 0 0 0-.61-.07c-.32 0-.6.07-.85.2s-.45.32-.6.55c-.13.23-.2.5-.2.79V83h-1.01Zm9.1-5.08-.9.26c-.06-.15-.14-.3-.25-.44a1.16 1.16 0 0 0-.45-.36c-.18-.1-.42-.14-.72-.14-.4 0-.73.1-1 .28-.26.18-.4.4-.4.69 0 .25.1.45.28.6.18.14.46.26.85.35l.97.24a2.6 2.6 0 0 1 1.3.66c.3.29.44.66.44 1.12 0 .37-.1.7-.32 1-.22.3-.52.53-.9.7-.38.17-.83.26-1.34.26-.66 0-1.22-.15-1.65-.44a1.93 1.93 0 0 1-.84-1.27l.96-.24c.09.36.26.62.51.8.26.17.6.26 1 .26.47 0 .85-.1 1.12-.3.28-.2.42-.44.42-.72a.76.76 0 0 0-.24-.57c-.16-.16-.4-.28-.73-.35l-1.1-.26a2.6 2.6 0 0 1-1.31-.66 1.6 1.6 0 0 1-.42-1.13c0-.37.1-.7.31-.98s.5-.5.86-.67a3 3 0 0 1 1.23-.24c.65 0 1.16.14 1.53.43.37.28.63.65.8 1.12ZM7.67 105.29a.62.62 0 0 1-.62-.62v-2c0-.35.28-.62.62-.62.34 0 .62.28.62.62v2c0 .35-.28.62-.62.62Zm0-4a.6.6 0 0 1-.24-.05.57.57 0 0 1-.21-.13.86.86 0 0 1-.13-.2.69.69 0 0 1-.05-.24.64.64 0 0 1 .39-.58.66.66 0 0 1 .48 0c.07.03.14.08.2.14.06.05.1.12.13.2a.5.5 0 0 1 .05.24c0 .16-.06.32-.18.44a.67.67 0 0 1-.44.18Z" fill="#545454"/><path d="M7.67 109.96a7.3 7.3 0 1 1 .02-14.6 7.3 7.3 0 0 1-.02 14.6Zm0-13.34a6.05 6.05 0 1 0 0 12.09 6.05 6.05 0 0 0 0-12.09ZM25.41 107h-1.1l3.2-8.73h1.1l3.2 8.73H30.7l-2.6-7.35h-.08l-2.6 7.35Zm.41-3.4h4.47v.93h-4.47v-.94Zm9.65-3.14v.85h-3.4v-.86h3.4Zm-2.4-1.57h1v6.23c0 .29.04.5.12.64.09.14.2.24.33.28.13.05.27.07.42.07l.27-.01.17-.04.2.9a2.2 2.2 0 0 1-1.58-.06c-.27-.12-.5-.3-.67-.56a1.6 1.6 0 0 1-.27-.94v-6.51Zm8.29-.62V107h-1v-8.73h1Zm4.59 8.87a2.8 2.8 0 0 1-2.68-1.6c-.25-.5-.38-1.1-.38-1.76 0-.67.13-1.26.37-1.77a2.77 2.77 0 0 1 2.58-1.64c.34 0 .68.06 1.01.17.34.11.64.3.91.55.27.26.5.6.65 1 .17.43.25.94.25 1.55v.43H43.6v-.87h4.02c0-.37-.07-.7-.22-.99a1.67 1.67 0 0 0-1.57-.94c-.4 0-.74.1-1.04.3a2.08 2.08 0 0 0-.9 1.78v.58c0 .5.09.91.26 1.26.17.34.41.6.72.78.3.17.66.26 1.07.26.26 0 .5-.03.71-.1a1.55 1.55 0 0 0 .92-.91l.97.26c-.1.33-.27.62-.51.87s-.54.44-.9.58c-.35.14-.75.2-1.2.2Zm6.16.01c-.41 0-.79-.08-1.13-.23-.34-.16-.6-.39-.8-.69-.2-.3-.3-.66-.3-1.09 0-.37.07-.68.22-.91.15-.24.35-.42.6-.55.24-.14.51-.24.81-.3.3-.07.6-.12.9-.16.4-.05.73-.1.98-.12.25-.03.43-.07.54-.14.12-.06.18-.18.18-.34v-.04c0-.41-.12-.74-.35-.97-.23-.24-.57-.35-1.03-.35-.48 0-.86.1-1.13.31-.28.21-.47.44-.58.67l-.95-.34a2.3 2.3 0 0 1 1.62-1.4 3.89 3.89 0 0 1 1.73-.05c.27.04.54.14.8.3.25.15.47.38.64.7.17.3.25.72.25 1.24V107h-1v-.89h-.05a1.97 1.97 0 0 1-.98.87c-.26.12-.59.17-.97.17Zm.16-.9a2 2 0 0 0 1-.23 1.6 1.6 0 0 0 .84-1.39v-.92a.65.65 0 0 1-.28.14 21.06 21.06 0 0 1-1.46.23c-.26.04-.5.1-.74.17-.22.08-.4.19-.54.34a.86.86 0 0 0-.2.6c0 .35.12.62.38.8.26.17.6.26 1 .26Zm9.31-4.33-.9.26c-.06-.15-.14-.3-.25-.44-.1-.15-.26-.27-.44-.36-.2-.1-.43-.14-.72-.14-.4 0-.74.1-1 .28-.27.18-.4.4-.4.69 0 .25.09.45.27.6.18.14.47.26.85.36l.97.23c.59.14 1.03.36 1.31.66.29.28.43.66.43 1.12 0 .37-.1.7-.32 1-.21.3-.51.53-.9.7-.38.17-.82.26-1.33.26-.67 0-1.22-.15-1.66-.44a1.93 1.93 0 0 1-.83-1.27l.95-.24c.1.36.27.62.52.8.25.17.59.26 1 .26.47 0 .84-.1 1.12-.3.27-.2.41-.44.41-.72a.76.76 0 0 0-.23-.57c-.16-.16-.4-.28-.74-.35l-1.09-.26a2.6 2.6 0 0 1-1.32-.66 1.6 1.6 0 0 1-.42-1.13c0-.37.1-.7.31-.98s.5-.5.86-.67a3 3 0 0 1 1.24-.24c.64 0 1.15.14 1.52.42.37.29.64.66.8 1.13Zm4.48-1.47v.86h-3.39v-.86h3.4Zm-2.4-1.56h1v6.23c0 .29.05.5.13.64s.2.24.32.28c.14.05.28.07.43.07l.27-.01.17-.04.2.9a2.18 2.18 0 0 1-1.58-.06 1.6 1.6 0 0 1-.68-.56 1.6 1.6 0 0 1-.26-.94v-6.51Zm9.95 8.25c-.59 0-1.1-.14-1.55-.43a2.86 2.86 0 0 1-1.04-1.18 4 4 0 0 1-.38-1.77c0-.68.13-1.28.38-1.78.25-.51.6-.9 1.04-1.19.44-.28.96-.42 1.55-.42a2.75 2.75 0 0 1 2.59 1.61 4 4 0 0 1 .38 1.78c0 .68-.13 1.27-.38 1.77a2.76 2.76 0 0 1-2.59 1.61Zm0-.9c.45 0 .82-.12 1.1-.35.3-.23.51-.53.65-.91s.21-.78.21-1.22c0-.44-.07-.84-.2-1.22a2.07 2.07 0 0 0-.65-.92 1.71 1.71 0 0 0-1.1-.35c-.46 0-.83.12-1.12.35-.29.23-.5.54-.64.92s-.2.78-.2 1.22c0 .44.06.84.2 1.22s.35.68.64.9c.3.24.66.35 1.11.35Zm5.5-3.18V107h-1v-6.55h.97v1.03h.09c.15-.34.39-.6.7-.8.31-.2.71-.31 1.2-.31.45 0 .84.09 1.17.27.33.18.6.45.78.82.18.36.27.82.27 1.38V107h-1v-4.1c0-.5-.14-.9-.4-1.2a1.42 1.42 0 0 0-1.1-.43c-.32 0-.61.07-.86.21a1.5 1.5 0 0 0-.6.61c-.14.27-.21.6-.21.97Zm8.77 4.08a2.8 2.8 0 0 1-2.68-1.6c-.25-.5-.38-1.1-.38-1.76 0-.67.13-1.26.37-1.77a2.77 2.77 0 0 1 2.58-1.64c.34 0 .68.06 1.01.17.34.11.64.3.91.55.27.26.5.6.65 1 .16.43.25.94.25 1.55v.43h-5.05v-.87h4.02c0-.37-.07-.7-.22-.99a1.67 1.67 0 0 0-1.57-.94c-.4 0-.74.1-1.04.3a2.08 2.08 0 0 0-.9 1.78v.58c0 .5.09.91.26 1.26.17.34.4.6.72.78.3.17.66.26 1.07.26.26 0 .5-.03.71-.1.22-.08.4-.2.56-.35.16-.15.28-.34.36-.57l.97.27c-.1.33-.27.62-.51.87s-.54.44-.9.58c-.35.14-.75.2-1.2.2Zm8.62-4.08V107h-1v-6.55h.96v1.03h.09c.15-.34.38-.6.7-.8.3-.2.71-.31 1.2-.31.45 0 .84.09 1.17.27.33.18.6.45.78.82.18.36.27.82.27 1.38V107h-1v-4.1c0-.5-.14-.9-.4-1.2a1.42 1.42 0 0 0-1.1-.43c-.32 0-.61.07-.86.21a1.5 1.5 0 0 0-.6.61c-.14.27-.21.6-.21.97Zm10.14 1.26v-3.86h1V107h-1v-1.1h-.07c-.16.32-.4.6-.72.84-.32.23-.73.34-1.23.34a1.88 1.88 0 0 1-1.84-1.09 3.1 3.1 0 0 1-.27-1.38v-4.16h1v4.1c0 .47.14.85.4 1.14.28.28.62.42 1.04.42a1.71 1.71 0 0 0 1.69-1.79Zm2.84 2.68v-6.55h.97v1.03h.09c.14-.35.36-.62.66-.82.3-.2.67-.3 1.1-.3a1.8 1.8 0 0 1 1.75 1.12h.07c.17-.34.42-.6.75-.8.34-.21.74-.31 1.21-.31.59 0 1.06.18 1.44.55.37.36.55.93.55 1.7V107h-1v-4.38c0-.48-.13-.83-.4-1.04-.26-.2-.57-.3-.93-.3-.46 0-.82.13-1.07.41a1.5 1.5 0 0 0-.38 1.05V107h-1.02v-4.48c0-.38-.12-.67-.36-.9a1.3 1.3 0 0 0-.94-.35c-.26 0-.5.07-.73.21-.23.14-.4.33-.55.58-.13.25-.2.53-.2.85V107h-1Zm10.57 0v-8.73h1v3.22h.09l.3-.43a1.8 1.8 0 0 1 1.6-.7 2.6 2.6 0 0 1 2.43 1.6c.24.5.36 1.1.36 1.78 0 .7-.12 1.3-.36 1.8a2.56 2.56 0 0 1-2.42 1.59 2.1 2.1 0 0 1-1.01-.2c-.25-.14-.45-.3-.59-.48a6.47 6.47 0 0 1-.31-.46h-.12V107h-.97Zm.99-3.27c0 .5.07.93.21 1.3.15.38.36.67.64.89.28.2.62.31 1.02.31.42 0 .77-.1 1.06-.33.28-.22.5-.53.63-.9.15-.38.22-.8.22-1.27 0-.46-.07-.88-.21-1.25a1.93 1.93 0 0 0-.64-.88 1.68 1.68 0 0 0-1.06-.33 1.68 1.68 0 0 0-1.66 1.17c-.14.37-.21.8-.21 1.29Zm9.07 3.4a2.74 2.74 0 0 1-2.68-1.59c-.25-.5-.37-1.1-.37-1.76 0-.67.12-1.26.36-1.77a2.77 2.77 0 0 1 2.58-1.64c.35 0 .69.06 1.02.17.33.11.63.3.9.55.28.26.5.6.66 1 .16.43.24.94.24 1.55v.43h-5.04v-.87h4.02c0-.37-.08-.7-.22-.99a1.67 1.67 0 0 0-1.57-.94c-.4 0-.75.1-1.04.3a2.18 2.18 0 0 0-.91 1.78v.58c0 .5.09.91.26 1.26a1.85 1.85 0 0 0 1.79 1.04c.26 0 .5-.03.72-.1a1.55 1.55 0 0 0 .92-.91l.97.26c-.1.33-.28.62-.52.87a2.5 2.5 0 0 1-.9.58c-.35.14-.75.2-1.19.2Zm4.24-.13v-6.55h.97v1h.07c.12-.33.34-.6.65-.8.31-.2.66-.3 1.05-.3a10.78 10.78 0 0 1 .53.02v1.02a3.27 3.27 0 0 0-.61-.07 1.67 1.67 0 0 0-1.45.75c-.13.23-.2.5-.2.79V107h-1.01Z" fill="#545454"/></svg>