<svg width="182" height="63" fill="none" xmlns="http://www.w3.org/2000/svg"><rect x=".5" y="23.5" width="181" height="39" rx="3.5" fill="#fff"/><path d="M17.3 37.36V49h-1.41V38.84h-.07l-2.84 1.89V39.3l2.9-1.94h1.42Zm7.27 11.8c-.75 0-1.41-.13-2-.39a3.44 3.44 0 0 1-1.4-1.07c-.33-.46-.52-1-.55-1.6h1.43c.03.37.16.69.39.96.22.27.52.48.89.63.37.15.77.22 1.22.22.5 0 .94-.09 1.33-.26.39-.18.69-.42.91-.73.22-.31.33-.67.33-1.08 0-.43-.1-.8-.32-1.13a2.1 2.1 0 0 0-.93-.77 3.56 3.56 0 0 0-1.5-.28h-.93V42.4h.93c.46 0 .87-.08 1.22-.25a1.89 1.89 0 0 0 1.13-1.77 2.1 2.1 0 0 0-.27-1.03c-.18-.3-.42-.52-.74-.68a2.4 2.4 0 0 0-1.11-.25c-.4 0-.78.08-1.14.22-.35.15-.64.36-.86.63-.23.28-.35.6-.37 1h-1.36c.02-.62.2-1.15.55-1.61.35-.46.8-.82 1.35-1.08a4.37 4.37 0 0 1 3.7.05 3.08 3.08 0 0 1 1.6 2.68 2.62 2.62 0 0 1-1.9 2.64v.09c.73.12 1.3.43 1.72.93.4.5.62 1.12.62 1.86 0 .63-.18 1.2-.52 1.7s-.8.9-1.4 1.19c-.59.29-1.26.43-2.02.43Zm10.4-12.34-3.75 13.93h-1.23l3.75-13.93h1.23Zm5.36 12.34c-.86 0-1.59-.23-2.19-.7a4.37 4.37 0 0 1-1.38-2.04 9.7 9.7 0 0 1-.48-3.24c0-1.26.16-2.33.48-3.22a4.4 4.4 0 0 1 1.39-2.05c.6-.47 1.33-.7 2.18-.7.85 0 1.57.23 2.17.7a4.46 4.46 0 0 1 1.4 2.05c.31.89.47 1.96.47 3.22a9.7 9.7 0 0 1-.47 3.24 4.37 4.37 0 0 1-1.38 2.04c-.6.47-1.34.7-2.2.7Zm0-1.25c.85 0 1.5-.41 1.98-1.23.47-.82.7-1.98.7-3.5 0-1-.1-1.86-.32-2.57a3.53 3.53 0 0 0-.92-1.62c-.4-.37-.88-.56-1.44-.56-.84 0-1.5.42-1.97 1.25a7.01 7.01 0 0 0-.71 3.5 9 9 0 0 0 .31 2.57c.22.7.52 1.24.92 1.6.4.38.88.56 1.45.56Zm9.93 1.25c-.78 0-1.47-.14-2.07-.42a3.39 3.39 0 0 1-1.39-1.15 2.9 2.9 0 0 1-.5-1.68 3.1 3.1 0 0 1 1.1-2.42c.35-.28.73-.46 1.16-.54v-.06c-.56-.15-1-.46-1.33-.94a2.84 2.84 0 0 1-.5-1.65c0-.6.15-1.12.46-1.59.3-.47.72-.83 1.25-1.1a4 4 0 0 1 1.82-.4c.67 0 1.28.13 1.8.4.54.27.95.63 1.26 1.1.3.47.46 1 .46 1.59a2.9 2.9 0 0 1-.5 1.65c-.33.48-.77.8-1.32.94v.06c.42.08.8.26 1.14.54a3.16 3.16 0 0 1 1.11 2.41 3 3 0 0 1-.5 1.7c-.34.48-.8.86-1.4 1.14a4.8 4.8 0 0 1-2.05.42Zm0-1.25c.53 0 .98-.09 1.36-.26.39-.17.68-.4.89-.72a2.1 2.1 0 0 0-.02-2.26c-.23-.33-.53-.6-.92-.79-.38-.2-.82-.29-1.31-.29-.5 0-.94.1-1.33.3-.39.18-.7.45-.91.79-.22.33-.33.72-.33 1.16 0 .42.1.78.3 1.1.21.3.5.54.9.71.38.17.84.26 1.37.26Zm0-5.52c.42 0 .79-.09 1.1-.25a1.9 1.9 0 0 0 1.06-1.75c0-.4-.1-.74-.28-1.03a1.8 1.8 0 0 0-.76-.68c-.32-.17-.7-.25-1.12-.25-.44 0-.82.08-1.14.25-.33.16-.58.38-.76.68-.18.29-.26.63-.26 1.03s.09.75.27 1.05c.18.3.44.53.76.7.33.16.7.25 1.13.25Zm10.27-5.57-3.75 13.93h-1.23l3.75-13.93h1.23ZM62.1 49v-1.02l3.84-4.2c.45-.5.82-.93 1.11-1.3.3-.36.5-.7.65-1.03.14-.32.21-.66.21-1.02a1.89 1.89 0 0 0-1.09-1.75 2.58 2.58 0 0 0-1.13-.25c-.45 0-.84.1-1.17.28a1.9 1.9 0 0 0-.77.77 2.4 2.4 0 0 0-.27 1.16h-1.34a3.28 3.28 0 0 1 1.76-3 3.87 3.87 0 0 1 1.83-.44c.68 0 1.29.15 1.81.44a3.15 3.15 0 0 1 1.69 2.79c0 .43-.08.85-.23 1.26-.15.4-.42.86-.8 1.36-.37.5-.9 1.1-1.56 1.81l-2.61 2.8v.09h5.4V49H62.1Zm13.48.16c-.86 0-1.59-.23-2.19-.7a4.37 4.37 0 0 1-1.38-2.04 9.7 9.7 0 0 1-.48-3.24c0-1.26.16-2.33.48-3.22a4.4 4.4 0 0 1 1.39-2.05c.6-.47 1.33-.7 2.18-.7.85 0 1.57.23 2.17.7a4.46 4.46 0 0 1 1.4 2.05c.31.89.47 1.96.47 3.22a9.7 9.7 0 0 1-.47 3.24 4.37 4.37 0 0 1-1.38 2.04c-.6.47-1.34.7-2.2.7Zm0-1.25c.85 0 1.5-.41 1.98-1.23.47-.82.7-1.98.7-3.5 0-1-.1-1.86-.32-2.57a3.53 3.53 0 0 0-.92-1.62c-.4-.37-.88-.56-1.44-.56-.84 0-1.5.42-1.97 1.25a7.01 7.01 0 0 0-.71 3.5 9 9 0 0 0 .31 2.57c.22.7.52 1.24.92 1.6.4.38.88.56 1.45.56Zm6.2 1.09v-1.02l3.84-4.2c.45-.5.83-.93 1.12-1.3.29-.36.5-.7.64-1.03.15-.32.22-.66.22-1.02a1.89 1.89 0 0 0-1.09-1.75 2.58 2.58 0 0 0-1.14-.25c-.44 0-.83.1-1.17.28-.33.18-.58.44-.76.77a2.4 2.4 0 0 0-.27 1.16h-1.34a3.28 3.28 0 0 1 1.76-3 3.87 3.87 0 0 1 1.83-.44c.68 0 1.28.15 1.81.44a3.15 3.15 0 0 1 1.69 2.79c0 .43-.08.85-.23 1.26-.16.4-.42.86-.8 1.36-.37.5-.9 1.1-1.56 1.81l-2.62 2.8v.09h5.41V49h-7.34Zm13.62.16c-.75 0-1.42-.13-2-.39A3.44 3.44 0 0 1 92 47.7c-.34-.46-.52-1-.55-1.6h1.43c.03.37.16.69.39.96.22.27.52.48.89.63.37.15.77.22 1.22.22.5 0 .94-.09 1.33-.26.39-.18.69-.42.9-.73.23-.31.34-.67.34-1.08 0-.43-.1-.8-.32-1.13a2.1 2.1 0 0 0-.93-.77 3.56 3.56 0 0 0-1.5-.28h-.93V42.4h.93c.46 0 .86-.08 1.21-.25a1.89 1.89 0 0 0 1.13-1.77 1.79 1.79 0 0 0-1-1.71 2.4 2.4 0 0 0-1.12-.25c-.4 0-.78.08-1.13.22-.35.15-.64.36-.87.63-.22.28-.34.6-.36 1H91.7c.02-.62.2-1.15.55-1.61.34-.46.8-.82 1.35-1.08a4.37 4.37 0 0 1 3.7.05 3.08 3.08 0 0 1 1.6 2.68 2.62 2.62 0 0 1-1.9 2.64v.09c.73.12 1.3.43 1.71.93.42.5.62 1.12.62 1.86 0 .63-.17 1.2-.51 1.7-.34.5-.81.9-1.4 1.19-.6.29-1.26.43-2.02.43Z" fill="#1F1F1F"/><path d="M167.5 51.27h-15a.77.77 0 0 1-.78-.77V37.16c0-.44.35-.77.78-.77h15c.44 0 .78.35.78.77V50.5c0 .44-.35.77-.78.77Zm-14.22-1.56h13.44V37.95h-13.44v11.77Z" fill="#757575"/><path d="M167.5 41.27h-15a.77.77 0 0 1-.78-.77c0-.43.35-.78.78-.78h15a.78.78 0 0 1 0 1.55Zm-11.66-3.32a.77.77 0 0 1-.78-.78v-1.66a.78.78 0 0 1 1.55 0v1.66c0 .44-.35.78-.77.78Zm8.32 0a.77.77 0 0 1-.77-.78v-1.66c0-.44.35-.77.77-.77.43 0 .78.35.78.77v1.66c0 .44-.35.78-.78.78Z" fill="#757575"/><rect x=".5" y="23.5" width="181" height="39" rx="3.5" stroke="#545454"/><path d="M4.45 11H1V.82h3.52c1.02 0 1.88.2 2.6.61.74.4 1.3.99 1.69 1.74.4.76.59 1.67.59 2.73s-.2 1.97-.6 2.73a4.02 4.02 0 0 1-1.7 1.76 5.4 5.4 0 0 1-2.65.61Zm-1.6-1.6h1.52c.7 0 1.3-.13 1.77-.38.47-.27.83-.65 1.07-1.17.24-.52.36-1.17.36-1.95a4.6 4.6 0 0 0-.36-1.94A2.5 2.5 0 0 0 6.15 2.8a3.52 3.52 0 0 0-1.73-.39H2.85v7Zm10.42 1.75c-.49 0-.92-.08-1.31-.25a2.13 2.13 0 0 1-.92-.78 2.27 2.27 0 0 1-.33-1.26c0-.43.08-.79.24-1.07.16-.28.38-.5.65-.68.28-.17.59-.3.93-.38.35-.09.7-.15 1.08-.2l1.09-.12c.28-.04.48-.1.6-.18.13-.08.2-.2.2-.38v-.03c0-.37-.11-.66-.33-.87-.23-.2-.55-.3-.96-.3-.44 0-.8.09-1.05.28-.26.2-.43.42-.52.68l-1.68-.24a2.68 2.68 0 0 1 1.77-1.87 4.76 4.76 0 0 1 2.56-.1c.37.08.7.22 1 .42.3.2.55.46.73.8.19.34.28.76.28 1.27V11h-1.73V9.95h-.06A2.2 2.2 0 0 1 14.3 11c-.3.1-.65.16-1.04.16Zm.46-1.32c.37 0 .68-.07.94-.21a1.52 1.52 0 0 0 .83-1.36v-.9a.85.85 0 0 1-.28.13l-.45.1a13.8 13.8 0 0 1-.92.14c-.27.04-.5.1-.72.18-.21.09-.38.2-.5.35a.85.85 0 0 0-.18.57c0 .33.12.58.36.75.24.17.55.25.92.25Zm9.2-6.47v1.4h-4.4v-1.4h4.4Zm-3.31-1.83h1.8V8.7c0 .25.03.43.1.56.08.13.18.21.3.26.13.04.26.07.41.07a1.76 1.76 0 0 0 .53-.07l.3 1.4a4 4 0 0 1-1.06.18c-.45.02-.86-.05-1.22-.2a1.9 1.9 0 0 1-.86-.7 2.1 2.1 0 0 1-.3-1.2V1.53Zm8.1 9.62c-.76 0-1.42-.16-1.98-.48a3.23 3.23 0 0 1-1.28-1.36 4.56 4.56 0 0 1-.44-2.08c0-.79.15-1.48.44-2.07a3.38 3.38 0 0 1 3.17-1.9c.47 0 .92.08 1.33.23a3.17 3.17 0 0 1 1.88 1.9c.19.49.28 1.06.28 1.73v.55h-6.26v-1.2h4.54c0-.35-.08-.66-.23-.93a1.63 1.63 0 0 0-.61-.64 1.72 1.72 0 0 0-.9-.23 1.8 1.8 0 0 0-1.63.96 2 2 0 0 0-.23.94v1.06c0 .44.08.82.24 1.14a1.8 1.8 0 0 0 1.71.98c.26 0 .5-.04.71-.11a1.55 1.55 0 0 0 .91-.88l1.68.2a2.7 2.7 0 0 1-1.74 1.92c-.46.18-1 .27-1.58.27Zm8.4-.15V3.36h1.8V11h-1.8Zm.9-8.72c-.28 0-.53-.1-.73-.28a.91.91 0 0 1-.31-.7c0-.27.1-.5.3-.69.21-.19.46-.28.74-.28.29 0 .53.1.74.28.2.2.3.42.3.7 0 .26-.1.5-.3.69-.2.19-.45.28-.74.28Zm4.55 4.25V11h-1.8V3.36h1.72v1.3h.09c.17-.43.45-.77.84-1.02.38-.25.86-.38 1.43-.38.53 0 .99.12 1.38.34.4.23.7.55.92.98.21.43.32.95.32 1.56V11h-1.8V6.42c0-.51-.13-.91-.4-1.2a1.4 1.4 0 0 0-1.09-.43c-.31 0-.6.07-.84.2a1.5 1.5 0 0 0-.57.6 2 2 0 0 0-.2.94Zm6.73 7.33V3.36h1.77v1.27h.1c.1-.19.23-.39.4-.6.16-.2.4-.39.68-.54a2.91 2.91 0 0 1 3.83 1.55c.29.59.43 1.3.43 2.15a5 5 0 0 1-.42 2.14 2.89 2.89 0 0 1-2.73 1.8c-.44 0-.8-.07-1.09-.21a2.21 2.21 0 0 1-.7-.53 3.3 3.3 0 0 1-.4-.6h-.07v4.07h-1.8Zm1.76-6.68c0 .5.07.93.21 1.3.14.37.35.66.61.87.27.2.6.3.98.3.4 0 .73-.1 1-.31.27-.22.47-.5.6-.88.14-.38.21-.8.21-1.28 0-.47-.07-.9-.2-1.26a1.9 1.9 0 0 0-.6-.87c-.28-.2-.61-.3-1.01-.3-.39 0-.71.1-.98.3-.27.2-.47.48-.61.84-.14.37-.2.8-.2 1.3Zm11.85.6V3.37h1.8V11h-1.74V9.64h-.08a2.3 2.3 0 0 1-.85 1.05c-.4.27-.87.4-1.45.4-.5 0-.94-.1-1.32-.32a2.31 2.31 0 0 1-.9-.98 3.46 3.46 0 0 1-.32-1.56V3.36h1.8v4.59c0 .48.13.87.4 1.15.26.29.6.43 1.04.43a1.65 1.65 0 0 0 1.38-.77c.16-.26.24-.58.24-.97Zm7.47-4.42v1.4h-4.4v-1.4h4.4Zm-3.3-1.83h1.8V8.7c0 .25.03.43.1.56a.6.6 0 0 0 .3.26c.12.04.26.07.4.07a1.76 1.76 0 0 0 .53-.07l.3 1.4a4.01 4.01 0 0 1-1.05.18c-.45.02-.86-.05-1.22-.2a1.9 1.9 0 0 1-.86-.7 2.1 2.1 0 0 1-.3-1.2V1.53Z" fill="#333"/></svg>