<svg width="232" height="196" fill="none" xmlns="http://www.w3.org/2000/svg"><g filter="url(#a)"><rect x="6" y="3" width="220" height="184" rx="4" fill="#fff"/><path d="M25.47 20.56c-.05-.5-.27-.88-.67-1.16-.39-.27-.9-.41-1.52-.41-.44 0-.82.06-1.13.2-.32.13-.56.31-.72.54a1.31 1.31 0 0 0-.1 1.4c.12.18.27.34.47.46.19.12.4.22.64.3.23.1.47.16.7.22l1.1.27a7 7 0 0 1 1.27.42c.4.17.77.39 1.1.65.32.27.58.59.77.96.18.38.28.82.28 1.32a3.15 3.15 0 0 1-2.04 3.01 5.9 5.9 0 0 1-2.38.44c-.9 0-1.69-.14-2.35-.42a3.51 3.51 0 0 1-1.56-1.23 3.64 3.64 0 0 1-.6-1.97h2.07c.03.4.16.74.38 1.01s.5.47.85.6c.36.14.76.2 1.2.2.46 0 .86-.06 1.2-.2.35-.14.62-.33.82-.58.2-.25.3-.54.3-.87 0-.3-.1-.56-.27-.75-.17-.2-.41-.37-.73-.5a7.05 7.05 0 0 0-1.09-.37l-1.32-.34a5.33 5.33 0 0 1-2.28-1.12 2.58 2.58 0 0 1-.83-2 3 3 0 0 1 .56-1.8c.38-.52.89-.92 1.53-1.2a5.3 5.3 0 0 1 2.19-.44c.82 0 1.55.15 2.17.44a3.6 3.6 0 0 1 1.47 1.18c.35.5.54 1.09.55 1.74h-2.03Zm9.54 4.77v-5.06h2.06V29h-2v-1.55h-.09c-.2.49-.52.89-.97 1.2-.45.3-1 .46-1.65.46a2.65 2.65 0 0 1-2.54-1.5 3.95 3.95 0 0 1-.37-1.78v-5.56h2.05v5.24c0 .55.16 1 .46 1.32.3.33.7.49 1.2.49a1.89 1.89 0 0 0 1.57-.88c.19-.3.28-.67.28-1.11ZM39.27 29V17.36h2.06v4.36h.08c.11-.22.26-.44.45-.68a2.5 2.5 0 0 1 2.05-.88 3.33 3.33 0 0 1 3.12 2.03c.32.67.48 1.49.48 2.46 0 .96-.16 1.77-.47 2.44a3.3 3.3 0 0 1-3.13 2.06 2.53 2.53 0 0 1-2.04-.85 3.9 3.9 0 0 1-.46-.67h-.11V29h-2.03Zm2.02-4.36c0 .56.08 1.06.24 1.48.16.42.4.75.7 1 .3.23.68.35 1.11.35.46 0 .84-.13 1.14-.37.31-.24.54-.58.7-1 .16-.43.23-.92.23-1.46 0-.55-.07-1.03-.23-1.45a2.17 2.17 0 0 0-.7-.99c-.3-.23-.68-.35-1.14-.35-.44 0-.81.11-1.12.34-.3.23-.54.56-.7.97-.15.42-.23.91-.23 1.48Zm7.97-4.37h2.06v9.23c0 .63-.12 1.15-.36 1.56-.24.4-.58.71-1.04.91a4.02 4.02 0 0 1-1.85.3h-.2v-1.68a2.32 2.32 0 0 0 .29 0c.4 0 .67-.09.84-.28.17-.2.26-.47.26-.84v-9.2Zm1.02-1.24c-.33 0-.6-.1-.84-.32a1.05 1.05 0 0 1-.35-.79c0-.31.11-.57.35-.79.23-.22.51-.33.84-.33.33 0 .6.11.84.33a1.06 1.06 0 0 1 0 1.58c-.23.22-.51.32-.84.32Zm7.02 10.14a4.5 4.5 0 0 1-2.27-.55 3.7 3.7 0 0 1-1.46-1.55 5.21 5.21 0 0 1-.51-2.38c0-.9.17-1.69.5-2.37a3.87 3.87 0 0 1 3.63-2.16c.54 0 1.04.09 1.52.26s.9.44 1.27.8c.37.36.67.81.88 1.37.21.55.32 1.21.32 1.98v.63h-7.16v-1.4h5.18a1.96 1.96 0 0 0-.95-1.78c-.3-.18-.64-.27-1.03-.27a2 2 0 0 0-1.11.3 2.13 2.13 0 0 0-1.01 1.88v1.2c0 .52.09.95.27 1.31.2.36.45.64.78.83.34.2.73.29 1.17.29.3 0 .57-.04.82-.13.24-.08.45-.21.63-.38.18-.16.3-.37.4-.62l1.92.22a3 3 0 0 1-.7 1.33c-.33.37-.76.67-1.29.87-.52.2-1.13.31-1.8.31Zm9.42 0a3.83 3.83 0 0 1-3.68-2.16 5.24 5.24 0 0 1-.5-2.34c0-.89.17-1.67.51-2.35.34-.68.82-1.2 1.45-1.59a4.16 4.16 0 0 1 2.21-.57c.71 0 1.34.13 1.88.4a3.21 3.21 0 0 1 1.87 2.74H68.5a1.88 1.88 0 0 0-.57-1.06c-.3-.28-.7-.42-1.19-.42-.42 0-.79.11-1.1.34a2.1 2.1 0 0 0-.75.96 3.9 3.9 0 0 0-.26 1.52c0 .6.08 1.1.26 1.53.17.42.42.75.73.98.32.23.7.34 1.12.34.3 0 .57-.05.81-.17.25-.11.45-.28.61-.5a2 2 0 0 0 .34-.8h1.96a3.23 3.23 0 0 1-1.83 2.76 4.3 4.3 0 0 1-1.9.39Zm9.79-8.9v1.6h-5.02v-1.6h5.02Zm-3.78-2.09h2.06v8.2c0 .27.04.48.12.63.09.15.2.24.34.3.14.05.3.08.47.08a2.01 2.01 0 0 0 .6-.08l.35 1.6a4.59 4.59 0 0 1-1.21.2c-.52.02-.98-.05-1.4-.22a2.17 2.17 0 0 1-.98-.81 2.4 2.4 0 0 1-.35-1.36v-8.54ZM85 22.58l-1.87.2a1.5 1.5 0 0 0-.8-.93 1.9 1.9 0 0 0-.81-.16c-.43 0-.79.1-1.08.28-.29.19-.43.43-.43.72 0 .26.1.46.28.62.2.16.51.3.96.4l1.48.31a3.8 3.8 0 0 1 1.85.85c.4.39.6.9.6 1.52 0 .55-.16 1.03-.47 1.45a3.1 3.1 0 0 1-1.32.98c-.56.23-1.2.35-1.93.35a4.48 4.48 0 0 1-2.58-.67 2.7 2.7 0 0 1-1.16-1.88l2-.2c.1.4.29.7.58.9.3.2.68.3 1.16.3.48 0 .88-.1 1.17-.3.3-.2.45-.45.45-.75a.8.8 0 0 0-.29-.62 2.02 2.02 0 0 0-.89-.37l-1.48-.31a3.54 3.54 0 0 1-1.86-.88 2.2 2.2 0 0 1-.6-1.58c0-.54.14-1 .44-1.4.3-.4.71-.7 1.24-.92a4.82 4.82 0 0 1 1.85-.33c1.02 0 1.83.22 2.41.65.6.44.96 1.03 1.1 1.77Z" fill="#333"/><path fill="#fff" d="M6 39h220v48H6z"/><path d="M19.4 69V57.36h7.03v1.25h-5.61v3.94h5.25v1.25h-5.25v3.95h5.7V69h-7.11Zm10.73-5.25V69H28.8v-8.73h1.3v1.37h.1c.21-.45.52-.8.94-1.07.42-.27.96-.41 1.61-.41.6 0 1.11.12 1.56.36.44.24.78.6 1.03 1.1.25.48.37 1.1.37 1.83V69h-1.34v-5.45c0-.69-.18-1.22-.54-1.6a1.9 1.9 0 0 0-1.46-.59c-.43 0-.81.1-1.15.28a2 2 0 0 0-.79.81c-.2.36-.29.8-.29 1.3Zm11.54 8.7A4.9 4.9 0 0 1 40 72.2a3.54 3.54 0 0 1-1.9-1.5l1.07-.75c.12.16.28.35.46.55a2.5 2.5 0 0 0 2.04.77c.7 0 1.29-.17 1.75-.5.45-.35.68-.88.68-1.61v-1.77H44c-.1.16-.24.35-.42.59-.18.23-.44.43-.77.62-.34.17-.79.26-1.36.26a3.5 3.5 0 0 1-3.22-1.95 5.09 5.09 0 0 1-.48-2.32c0-.9.16-1.67.47-2.33a3.46 3.46 0 0 1 3.26-2.1c.57 0 1.02.1 1.35.28.34.19.6.4.77.64.18.23.32.43.42.58h.14v-1.39h1.3v8.98c0 .75-.18 1.36-.52 1.83a2.9 2.9 0 0 1-1.36 1.04c-.57.22-1.2.33-1.9.33Zm-.04-4.8c.53 0 .99-.11 1.36-.36.37-.25.65-.6.85-1.06.19-.46.29-1.02.29-1.66 0-.63-.1-1.19-.29-1.67a2.5 2.5 0 0 0-.84-1.13c-.37-.27-.83-.4-1.37-.4a2.28 2.28 0 0 0-2.27 1.58 4.48 4.48 0 0 0-.28 1.62c0 .6.1 1.14.29 1.6.19.47.47.83.85 1.1.38.26.85.39 1.4.39Zm7.61-10.29V69H47.9V57.36h1.34ZM51.7 69v-8.73h1.34V69H51.7Zm.68-10.18a.95.95 0 0 1-.68-.27.86.86 0 0 1-.28-.64c0-.25.1-.46.28-.64a.95.95 0 0 1 .68-.27c.26 0 .48.09.67.27.19.18.28.39.28.64s-.1.46-.28.64a.93.93 0 0 1-.67.27Zm9.3 3.4-1.21.35c-.08-.2-.19-.4-.34-.59a1.56 1.56 0 0 0-.59-.47 2.15 2.15 0 0 0-.96-.2c-.53 0-.98.13-1.33.38-.35.24-.53.55-.53.92 0 .34.12.6.36.8.25.19.63.35 1.14.48l1.3.31c.78.2 1.36.48 1.74.87.38.39.57.89.57 1.5 0 .5-.14.95-.43 1.34-.28.4-.68.7-1.2.93-.5.23-1.1.34-1.78.34-.89 0-1.62-.2-2.2-.58a2.57 2.57 0 0 1-1.11-1.7l1.27-.3c.12.46.35.81.69 1.05.34.23.78.35 1.33.35a2.5 2.5 0 0 0 1.5-.4c.36-.27.55-.59.55-.96 0-.3-.1-.56-.32-.77-.21-.2-.54-.36-.98-.46l-1.45-.34a3.47 3.47 0 0 1-1.76-.88c-.38-.4-.56-.9-.56-1.5 0-.5.14-.94.41-1.31.28-.38.66-.68 1.15-.9a4 4 0 0 1 1.64-.32c.87 0 1.55.19 2.04.57.5.38.85.88 1.05 1.5Zm3.51 1.53V69h-1.34V57.36h1.34v4.28h.12c.2-.45.5-.81.92-1.08.41-.27.96-.4 1.64-.4.6 0 1.12.12 1.57.36.44.23.8.6 1.04 1.08.25.49.37 1.1.37 1.85V69h-1.34v-5.45c0-.7-.18-1.23-.54-1.61a1.93 1.93 0 0 0-1.48-.58c-.44 0-.83.1-1.18.28-.35.19-.62.46-.82.81-.2.36-.3.8-.3 1.3Z" fill="#333"/><path d="M204 67.62a.62.62 0 0 1-.44-.18.63.63 0 0 1 0-.88l3.56-3.56-3.56-3.56a.63.63 0 0 1 0-.88.63.63 0 0 1 .88 0l4 4c.24.24.24.64 0 .88l-4 4a.62.62 0 0 1-.44.18Z" fill="#545454"/><path fill="#fff" d="M6 87h220v48H6z"/><path d="M27.36 109a4.1 4.1 0 0 0-.5-1.03 3.15 3.15 0 0 0-2.81-1.45 3.45 3.45 0 0 0-3.23 2.11c-.34.7-.5 1.54-.5 2.55 0 1 .17 1.86.5 2.55.34.7.8 1.22 1.37 1.58a3.7 3.7 0 0 0 1.95.53 3.6 3.6 0 0 0 1.76-.42c.5-.3.9-.7 1.2-1.22.28-.53.42-1.15.42-1.86l.43.1h-3.5v-1.26h4.44v1.25c0 .96-.2 1.8-.62 2.5-.4.71-.96 1.26-1.68 1.65-.71.39-1.53.58-2.45.58a5.04 5.04 0 0 1-2.72-.73 4.9 4.9 0 0 1-1.82-2.07 7.25 7.25 0 0 1-.65-3.18c0-.92.13-1.75.37-2.48a5.5 5.5 0 0 1 1.06-1.89 4.64 4.64 0 0 1 3.67-1.6 5.15 5.15 0 0 1 3.14 1.05 4.44 4.44 0 0 1 1.63 2.74h-1.46Zm3.76 8v-8.73h1.3v1.32h.08c.16-.43.45-.78.87-1.05.41-.27.88-.4 1.4-.4a14.07 14.07 0 0 1 .71.02v1.36a3.4 3.4 0 0 0-.31-.05 3.02 3.02 0 0 0-.5-.04c-.43 0-.81.1-1.14.27a1.96 1.96 0 0 0-1.07 1.78V117h-1.34Zm8.52.2c-.55 0-1.06-.1-1.5-.3a2.64 2.64 0 0 1-1.08-.92c-.27-.4-.4-.89-.4-1.46 0-.5.1-.9.3-1.21.2-.32.46-.56.79-.74.33-.18.69-.31 1.09-.4.4-.09.8-.16 1.2-.22l1.3-.15a2 2 0 0 0 .73-.19c.15-.08.23-.23.23-.45v-.05c0-.56-.16-1-.46-1.3-.3-.31-.77-.47-1.38-.47-.64 0-1.14.14-1.5.42a2.5 2.5 0 0 0-.78.9l-1.27-.45c.23-.54.53-.95.91-1.24.38-.3.8-.51 1.25-.63a5.2 5.2 0 0 1 2.3-.08c.38.07.73.2 1.07.4.34.2.63.52.86.93.23.41.34.97.34 1.66V117H42.3v-1.18h-.07a2.61 2.61 0 0 1-1.3 1.16 3.3 3.3 0 0 1-1.3.22Zm.2-1.2c.53 0 .98-.1 1.34-.31a2.14 2.14 0 0 0 1.12-1.85v-1.23c-.06.07-.18.13-.38.2-.19.04-.4.1-.66.13a27.92 27.92 0 0 1-1.28.17c-.35.05-.67.12-.98.22-.3.1-.54.25-.72.45-.19.2-.28.47-.28.81 0 .47.18.82.52 1.06.35.23.79.35 1.32.35Zm6.25 1v-8.73h1.3v1.37h.1c.19-.47.48-.83.89-1.09.4-.26.89-.4 1.46-.4s1.05.14 1.43.4c.39.26.7.62.9 1.09h.1a2.6 2.6 0 0 1 1-1.08c.45-.27.99-.4 1.61-.4.78 0 1.42.24 1.92.73s.74 1.24.74 2.27V117H56.2v-5.84c0-.64-.18-1.1-.53-1.38a1.96 1.96 0 0 0-1.24-.42c-.62 0-1.1.19-1.43.56-.34.37-.5.83-.5 1.4V117h-1.37v-5.98c0-.5-.16-.9-.48-1.2a1.88 1.88 0 0 0-2.22-.18c-.3.19-.54.44-.73.78-.18.32-.27.7-.27 1.13V117h-1.34Zm13.9 0v-8.73h1.3v1.37h.11c.18-.47.48-.83.88-1.09.4-.26.9-.4 1.46-.4.58 0 1.06.14 1.44.4.39.26.69.62.9 1.09h.1c.22-.45.55-.81 1-1.08.45-.27.98-.4 1.6-.4.79 0 1.43.24 1.92.73.5.49.75 1.24.75 2.27V117H70.1v-5.84c0-.64-.18-1.1-.53-1.38a1.96 1.96 0 0 0-1.25-.42c-.61 0-1.09.19-1.42.56-.34.37-.5.83-.5 1.4V117h-1.37v-5.98c0-.5-.16-.9-.48-1.2a1.92 1.92 0 0 0-2.95.6c-.19.32-.28.7-.28 1.13V117H60Zm16.48.2c-.56 0-1.06-.1-1.5-.3a2.64 2.64 0 0 1-1.08-.92c-.27-.4-.4-.89-.4-1.46 0-.5.1-.9.3-1.21.2-.32.46-.56.79-.74.32-.18.69-.31 1.09-.4.4-.09.8-.16 1.2-.22l1.3-.15a2 2 0 0 0 .72-.19c.16-.08.24-.23.24-.45v-.05c0-.56-.16-1-.46-1.3-.3-.31-.77-.47-1.38-.47-.64 0-1.15.14-1.51.42a2.5 2.5 0 0 0-.77.9l-1.27-.45a3.05 3.05 0 0 1 2.16-1.87 5.2 5.2 0 0 1 2.3-.08c.37.07.73.2 1.07.4.34.2.63.52.86.93.22.41.34.97.34 1.66V117h-1.34v-1.18h-.07a2.61 2.61 0 0 1-1.3 1.16c-.36.15-.79.22-1.3.22Zm.2-1.2c.53 0 .98-.1 1.34-.31a2.14 2.14 0 0 0 1.12-1.85v-1.23a.99.99 0 0 1-.38.2c-.19.04-.4.1-.66.13a27.92 27.92 0 0 1-1.28.17 5.1 5.1 0 0 0-.98.22c-.3.1-.54.25-.73.45-.18.2-.27.47-.27.81 0 .47.17.82.52 1.06.35.23.79.35 1.32.35Zm6.24 1v-8.73h1.3v1.32h.1c.15-.43.44-.78.85-1.05.42-.27.9-.4 1.41-.4a14.07 14.07 0 0 1 .7.02v1.36a3.4 3.4 0 0 0-.3-.05 3.02 3.02 0 0 0-.51-.04c-.42 0-.8.1-1.14.27a1.96 1.96 0 0 0-1.07 1.78V117h-1.34Z" fill="#333"/><path d="M204 115.62a.62.62 0 0 1-.44-.18.63.63 0 0 1 0-.88l3.56-3.56-3.56-3.56a.63.63 0 0 1 0-.88.63.63 0 0 1 .88 0l4 4c.24.24.24.64 0 .88l-4 4a.62.62 0 0 1-.44.18Z" fill="#545454"/><path fill="#fff" d="M6 135h220v48H6z"/><path d="M25.77 156.27a1.78 1.78 0 0 0-.83-1.34 3.18 3.18 0 0 0-1.78-.47c-.52 0-.97.08-1.35.25a2.1 2.1 0 0 0-.9.68 1.65 1.65 0 0 0-.1 1.8c.15.22.35.4.58.55.24.14.48.26.74.36l.71.22 1.18.32c.3.08.64.19 1.01.33.38.14.74.33 1.08.57a2.65 2.65 0 0 1 1.19 2.3c0 .63-.17 1.2-.5 1.7-.32.51-.8.92-1.43 1.22-.63.3-1.39.45-2.28.45-.83 0-1.55-.14-2.16-.4a3.21 3.21 0 0 1-2.02-2.8h1.45c.04.43.19.8.45 1.08s.59.5.99.64c.4.13.83.2 1.3.2a3.8 3.8 0 0 0 1.44-.26c.43-.18.77-.42 1.02-.74s.37-.69.37-1.11c0-.39-.1-.7-.32-.94-.22-.25-.5-.44-.85-.6a9.1 9.1 0 0 0-1.15-.4l-1.43-.4a5.33 5.33 0 0 1-2.16-1.12 2.46 2.46 0 0 1-.8-1.9c0-.66.18-1.22.54-1.71a3.5 3.5 0 0 1 1.43-1.14c.6-.27 1.27-.4 2.01-.4.75 0 1.42.13 2 .4a3.5 3.5 0 0 1 1.4 1.09c.34.46.52.99.54 1.57h-1.37Zm7.2 8.91c-.81 0-1.52-.2-2.1-.58a3.77 3.77 0 0 1-1.37-1.6 5.41 5.41 0 0 1-.48-2.32c0-.89.16-1.67.49-2.34a3.69 3.69 0 0 1 3.44-2.18c.62 0 1.17.11 1.66.34a3.03 3.03 0 0 1 1.8 2.39h-1.34c-.1-.4-.33-.75-.69-1.06a2.04 2.04 0 0 0-1.4-.47c-.53 0-.99.14-1.38.41-.39.27-.7.65-.91 1.14a4.23 4.23 0 0 0-.33 1.73c0 .67.1 1.26.32 1.76s.52.89.91 1.16c.4.28.86.42 1.39.42.34 0 .66-.06.94-.19a1.96 1.96 0 0 0 1.15-1.33h1.34a3.1 3.1 0 0 1-1.74 2.36 3.8 3.8 0 0 1-1.7.36Zm5.4-.18v-8.73h1.34V165h-1.34Zm.68-10.18a.95.95 0 0 1-.68-.27.86.86 0 0 1-.27-.64c0-.25.09-.47.27-.64a.95.95 0 0 1 .68-.27c.26 0 .48.09.67.27.19.17.28.39.28.64s-.09.46-.28.64a.93.93 0 0 1-.67.27Zm6.77 10.36a3.74 3.74 0 0 1-3.58-2.13 5.35 5.35 0 0 1-.48-2.34c0-.9.16-1.69.48-2.37a3.69 3.69 0 0 1 3.44-2.18c.46 0 .91.08 1.35.23a3.34 3.34 0 0 1 2.08 2.08c.22.55.33 1.24.33 2.05v.57H42.7v-1.16h5.36c0-.5-.1-.93-.3-1.32a2.22 2.22 0 0 0-2.08-1.25c-.54 0-1 .14-1.39.4-.39.26-.68.6-.9 1.02a3 3 0 0 0-.3 1.36v.77c0 .66.11 1.22.34 1.68.23.45.55.8.96 1.03.4.24.88.36 1.42.36.36 0 .67-.05.96-.15a2.04 2.04 0 0 0 1.23-1.22l1.3.37a3.01 3.01 0 0 1-1.89 1.93c-.47.18-1 .27-1.6.27Zm7-5.43V165h-1.34v-8.73h1.3v1.37h.1c.21-.45.52-.8.94-1.07a2.8 2.8 0 0 1 1.61-.41c.6 0 1.11.12 1.55.36.45.24.8.6 1.04 1.1.24.48.37 1.1.37 1.84V165h-1.34v-5.46c0-.68-.18-1.21-.54-1.6a1.9 1.9 0 0 0-1.46-.58c-.43 0-.82.1-1.15.28-.34.19-.6.46-.8.82-.19.35-.28.78-.28 1.29Zm11.56 5.43a3.8 3.8 0 0 1-2.11-.58 3.77 3.77 0 0 1-1.37-1.6 5.41 5.41 0 0 1-.47-2.32c0-.89.16-1.67.49-2.34a3.69 3.69 0 0 1 3.44-2.18c.61 0 1.17.11 1.66.34.5.23.9.54 1.2.96.32.4.52.88.6 1.43h-1.35a2.04 2.04 0 0 0-2.1-1.52c-.51 0-.97.13-1.36.4-.4.27-.7.65-.92 1.14a4.23 4.23 0 0 0-.32 1.73c0 .67.1 1.26.32 1.76.21.5.52.89.9 1.16.4.28.86.42 1.4.42.34 0 .66-.06.94-.19a1.96 1.96 0 0 0 1.14-1.33h1.34a3.1 3.1 0 0 1-1.73 2.36 3.8 3.8 0 0 1-1.7.36Zm9.05 0a3.74 3.74 0 0 1-3.58-2.13 5.35 5.35 0 0 1-.48-2.34c0-.9.16-1.69.48-2.37a3.69 3.69 0 0 1 3.44-2.18c.46 0 .91.08 1.35.23a3.34 3.34 0 0 1 2.08 2.08c.22.55.33 1.24.33 2.05v.57h-6.73v-1.16h5.36c0-.5-.1-.93-.3-1.32a2.22 2.22 0 0 0-2.08-1.25c-.54 0-1 .14-1.39.4-.39.26-.68.6-.9 1.02a3 3 0 0 0-.3 1.36v.77c0 .66.11 1.22.34 1.68.23.45.55.8.96 1.03.4.24.88.36 1.42.36.36 0 .67-.05.96-.15a2.04 2.04 0 0 0 1.23-1.22l1.29.37c-.14.44-.36.82-.69 1.16a3.4 3.4 0 0 1-1.19.77c-.47.18-1 .27-1.6.27Z" fill="#333"/><path d="M204 163.62a.62.62 0 0 1-.44-.18.63.63 0 0 1 0-.88l3.56-3.56-3.56-3.56a.63.63 0 0 1 0-.88.63.63 0 0 1 .88 0l4 4c.24.24.24.64 0 .88l-4 4a.62.62 0 0 1-.44.18Z" fill="#545454"/></g><defs><filter id="a" x="0" y="0" width="232" height="196" filterUnits="userSpaceOnUse" color-interpolation-filters="sRGB"><feFlood flood-opacity="0" result="BackgroundImageFix"/><feColorMatrix in="SourceAlpha" values="0 0 0 0 0 0 0 0 0 0 0 0 0 0 0 0 0 0 127 0" result="hardAlpha"/><feOffset dy="3"/><feGaussianBlur stdDeviation="3"/><feColorMatrix values="0 0 0 0 0.2 0 0 0 0 0.2 0 0 0 0 0.2 0 0 0 0.1 0"/><feBlend in2="BackgroundImageFix" result="effect1_dropShadow_821_51775"/><feColorMatrix in="SourceAlpha" values="0 0 0 0 0 0 0 0 0 0 0 0 0 0 0 0 0 0 127 0" result="hardAlpha"/><feOffset dy="3"/><feGaussianBlur stdDeviation="3"/><feColorMatrix values="0 0 0 0 0.2 0 0 0 0 0.2 0 0 0 0 0.2 0 0 0 0.1 0"/><feBlend in2="effect1_dropShadow_821_51775" result="effect2_dropShadow_821_51775"/><feBlend in="SourceGraphic" in2="effect2_dropShadow_821_51775" result="shape"/></filter></defs></svg>