<svg width="245" height="116" fill="none" xmlns="http://www.w3.org/2000/svg"><path d="M150.5 0h-56v32h56V0Z" fill="#F6F6F6"/><path fill-rule="evenodd" clip-rule="evenodd" d="M94.5 0h56v32h-56V0Zm1 31h54V1h-54v30Z" fill="#AFAFAF"/><path d="M147.5 3h-50v26h50V3Z" fill="#fff"/><path fill-rule="evenodd" clip-rule="evenodd" d="M124.5 13h-6v-2h6v2Zm16 0h-6v-2h6v2Zm-16 8h-6v-2h6v2Zm-16 0h-2v-2h2v2Zm32 0h-6v-2h6v2Z" fill="#AFAFAF"/><path d="M109.3 9.75c0 .97-.8 1.75-1.8 1.75s-1.8-.78-1.8-1.75.8-1.75 1.8-1.75 1.8.78 1.8 1.75Zm1.2 4.52c0 .73 0 .73-3 .73s-3 0-3-.73c0-1.2 1.34-2.19 3-2.19s3 .98 3 2.2Z" fill="#AFAFAF"/><path d="M20.47 45.36V57h-1.88l-5.48-7.93h-.1V57h-2.1V45.36h1.88l5.48 7.94h.1v-7.94h2.1Zm6.01 11.81a4.3 4.3 0 0 1-2.22-.56 3.82 3.82 0 0 1-1.45-1.58 5.17 5.17 0 0 1-.51-2.36c0-.9.17-1.7.51-2.37.35-.68.83-1.2 1.45-1.58a4.23 4.23 0 0 1 2.22-.56c.85 0 1.6.19 2.22.56.62.38 1.1.9 1.45 1.58.34.68.51 1.47.51 2.37 0 .9-.17 1.69-.51 2.36-.35.68-.83 1.2-1.45 1.58a4.3 4.3 0 0 1-2.22.56Zm.01-1.65c.46 0 .85-.12 1.16-.38.31-.26.54-.6.7-1.03a4.37 4.37 0 0 0-.01-2.89 2.3 2.3 0 0 0-.69-1.04c-.3-.26-.7-.39-1.16-.39-.47 0-.87.13-1.18.39-.31.25-.54.6-.7 1.04-.15.43-.23.91-.23 1.44 0 .54.08 1.02.23 1.45.16.43.39.77.7 1.03.31.26.7.38 1.18.38Zm13.7 1.65a3.83 3.83 0 0 1-3.68-2.16 5.24 5.24 0 0 1-.5-2.34c0-.89.16-1.67.5-2.35.34-.68.83-1.2 1.45-1.59a4.16 4.16 0 0 1 2.21-.57c.71 0 1.34.13 1.88.4a3.21 3.21 0 0 1 1.87 2.74h-1.96a1.88 1.88 0 0 0-.57-1.06c-.3-.28-.7-.42-1.19-.42-.42 0-.79.11-1.1.34-.33.22-.57.54-.75.97a3.8 3.8 0 0 0-.26 1.5c0 .6.08 1.11.26 1.54.17.42.42.75.73.98.32.23.7.34 1.12.34.3 0 .57-.05.81-.17.25-.11.45-.28.61-.5a2 2 0 0 0 .34-.8h1.96a3.23 3.23 0 0 1-1.83 2.76 4.3 4.3 0 0 1-1.9.4Zm9.23 0c-.85 0-1.6-.19-2.22-.56a3.82 3.82 0 0 1-1.45-1.58 5.17 5.17 0 0 1-.51-2.36c0-.9.17-1.7.5-2.37.35-.68.84-1.2 1.46-1.58a4.23 4.23 0 0 1 2.22-.56c.85 0 1.59.19 2.21.56.63.38 1.11.9 1.45 1.58.35.68.52 1.47.52 2.37 0 .9-.17 1.69-.52 2.36-.34.68-.82 1.2-1.45 1.58-.62.37-1.36.56-2.21.56Zm.01-1.65c.46 0 .85-.12 1.16-.38.3-.26.54-.6.7-1.03.15-.43.22-.91.22-1.45a4.1 4.1 0 0 0-.23-1.44 2.3 2.3 0 0 0-.7-1.04 1.7 1.7 0 0 0-1.15-.39c-.47 0-.87.13-1.18.39-.31.25-.55.6-.7 1.04-.15.43-.23.91-.23 1.44 0 .54.08 1.02.23 1.45.15.43.39.77.7 1.03.31.26.7.38 1.18.38ZM55.35 57v-8.73h1.96v1.49h.1c.19-.5.49-.9.9-1.17.43-.29.93-.43 1.51-.43.6 0 1.1.14 1.5.43.4.28.7.67.86 1.17h.1c.19-.49.51-.88.97-1.16.46-.3 1-.44 1.64-.44.8 0 1.46.25 1.97.76.5.5.76 1.25.76 2.22V57h-2.06v-5.54c0-.54-.15-.94-.44-1.19a1.54 1.54 0 0 0-1.05-.38c-.5 0-.89.16-1.17.47-.27.3-.41.7-.41 1.2V57h-2.02v-5.63c0-.45-.14-.8-.4-1.07-.28-.27-.63-.4-1.06-.4-.3 0-.57.07-.81.22a1.6 1.6 0 0 0-.58.63 1.9 1.9 0 0 0-.22.94V57h-2.05Zm14.36 3.27v-12h2.02v1.45h.12c.1-.22.25-.44.45-.68.19-.24.45-.45.78-.62.33-.17.75-.26 1.26-.26a3.33 3.33 0 0 1 3.12 2.03c.32.67.48 1.49.48 2.46 0 .96-.15 1.77-.47 2.44a3.3 3.3 0 0 1-3.13 2.06 2.53 2.53 0 0 1-2.04-.85 3.9 3.9 0 0 1-.45-.67h-.09v4.64h-2.05Zm2.01-7.63c0 .56.08 1.06.24 1.48.16.42.4.76.7 1 .3.23.68.35 1.11.35.46 0 .84-.13 1.15-.37.3-.24.53-.58.69-1 .16-.43.24-.92.24-1.46 0-.55-.08-1.03-.24-1.45a2.17 2.17 0 0 0-.69-.99c-.3-.23-.69-.35-1.15-.35-.44 0-.8.11-1.12.34-.3.23-.54.56-.7.97-.15.42-.23.91-.23 1.48Zm10.04-7.28V57h-2.05V45.36h2.05Zm5.98 11.81a4.5 4.5 0 0 1-2.27-.55 3.7 3.7 0 0 1-1.46-1.55 5.21 5.21 0 0 1-.5-2.38c0-.9.16-1.69.5-2.37a3.87 3.87 0 0 1 3.62-2.16c.54 0 1.05.09 1.53.26s.9.44 1.27.8c.37.36.66.81.87 1.37.22.55.32 1.21.32 1.98v.63h-7.15v-1.4h5.18c0-.4-.09-.74-.26-1.05a1.89 1.89 0 0 0-1.73-1 2 2 0 0 0-1.1.3c-.32.2-.57.47-.75.8-.18.33-.26.69-.27 1.08v1.2c0 .52.1.95.28 1.31.19.36.45.64.78.83.33.2.72.29 1.17.29.3 0 .57-.04.81-.13.24-.08.45-.21.63-.38.18-.16.31-.37.4-.62l1.93.22a3 3 0 0 1-.7 1.33c-.33.37-.77.67-1.3.87-.52.2-1.12.31-1.8.31Zm9.98-8.9v1.6H92.7v-1.6h5.02Zm-3.78-2.09H96v8.2c0 .27.04.48.12.63.09.15.2.24.34.3.14.05.3.08.47.08a2.02 2.02 0 0 0 .6-.08l.35 1.6a4.6 4.6 0 0 1-1.21.2c-.52.02-.98-.05-1.4-.22a2.17 2.17 0 0 1-.98-.81 2.4 2.4 0 0 1-.35-1.36v-8.54Zm9.27 10.99a4.5 4.5 0 0 1-2.27-.55 3.7 3.7 0 0 1-1.46-1.55 5.21 5.21 0 0 1-.5-2.38c0-.9.16-1.69.5-2.37a3.87 3.87 0 0 1 3.62-2.16c.54 0 1.05.09 1.52.26a3.5 3.5 0 0 1 2.15 2.17c.21.55.32 1.21.32 1.98v.63h-7.15v-1.4h5.18c0-.4-.09-.74-.26-1.05a1.89 1.89 0 0 0-1.73-1 2 2 0 0 0-1.1.3 2.22 2.22 0 0 0-1.02 1.88v1.2c0 .52.1.95.28 1.31.18.36.44.64.78.83.33.2.72.29 1.17.29.3 0 .57-.04.81-.13.24-.08.45-.21.63-.38.18-.16.31-.37.4-.62l1.92.22a3.03 3.03 0 0 1-1.99 2.2c-.52.2-1.12.31-1.8.31Zm8.86-.02a3.3 3.3 0 0 1-3.13-2.06 5.71 5.71 0 0 1-.47-2.44c0-.97.16-1.79.48-2.46a3.34 3.34 0 0 1 4.39-1.77c.33.17.59.38.78.62.2.24.34.46.45.68h.08v-4.36h2.07V57h-2.03v-1.38h-.12c-.1.22-.26.44-.46.68a2.53 2.53 0 0 1-2.04.85Zm.57-1.68c.44 0 .81-.12 1.12-.36.3-.23.54-.57.7-1 .15-.41.23-.9.23-1.47s-.08-1.06-.23-1.48a2.09 2.09 0 0 0-.7-.97 1.8 1.8 0 0 0-1.12-.34c-.46 0-.84.12-1.14.35-.31.24-.54.57-.7 1-.15.41-.23.9-.23 1.44 0 .54.08 1.03.23 1.46.16.42.4.76.7 1 .31.24.7.37 1.14.37ZM124.68 57l-2.47-8.73h2.1l1.53 6.14h.08l1.57-6.14h2.08l1.56 6.1h.09l1.5-6.1h2.11L132.36 57h-2.14l-1.64-5.9h-.12l-1.63 5.9h-2.15Zm15.14.17c-.85 0-1.59-.19-2.21-.56a3.82 3.82 0 0 1-1.46-1.58 5.17 5.17 0 0 1-.5-2.36c0-.9.16-1.7.5-2.37.35-.68.83-1.2 1.46-1.58a4.22 4.22 0 0 1 2.21-.56 3.82 3.82 0 0 1 3.67 2.14c.34.68.52 1.47.52 2.37 0 .9-.18 1.69-.52 2.36a3.82 3.82 0 0 1-3.67 2.14Zm.02-1.65c.46 0 .84-.12 1.16-.38.3-.26.54-.6.69-1.03.15-.43.23-.91.23-1.45 0-.53-.08-1.01-.23-1.44a2.29 2.29 0 0 0-.7-1.04c-.3-.26-.7-.39-1.15-.39-.48 0-.87.13-1.19.39-.3.25-.54.6-.7 1.04-.15.43-.22.91-.22 1.44 0 .54.07 1.02.23 1.45.15.43.38.77.7 1.03.3.26.7.38 1.18.38Zm5.91 1.48v-8.73h2v1.46h.09a2.17 2.17 0 0 1 2.15-1.58 4.73 4.73 0 0 1 .74.05v1.9a3.83 3.83 0 0 0-.95-.12c-.38 0-.72.08-1.02.24a1.79 1.79 0 0 0-.95 1.65V57h-2.06Zm8.22-2.74v-2.48h.32l3.14-3.5h2.4l-3.85 4.29h-.43l-1.58 1.7ZM152.1 57V45.36h2.05V57h-2.05Zm5.47 0-2.84-3.97 1.39-1.45 3.91 5.42h-2.46Zm11.96-8.73v1.6h-5.02v-1.6h5.02Zm-3.78-2.09h2.06v8.2c0 .27.04.48.13.63.08.15.2.24.34.3.14.05.3.08.46.08a2 2 0 0 0 .6-.08l.35 1.6a4.59 4.59 0 0 1-1.2.2 3.3 3.3 0 0 1-1.4-.22 2.16 2.16 0 0 1-.98-.81 2.4 2.4 0 0 1-.36-1.36v-8.54Zm9.22 10.99c-.86 0-1.6-.19-2.22-.56a3.81 3.81 0 0 1-1.46-1.58 5.17 5.17 0 0 1-.5-2.36c0-.9.16-1.7.5-2.37a3.8 3.8 0 0 1 1.46-1.58 4.23 4.23 0 0 1 2.22-.56 3.82 3.82 0 0 1 3.66 2.14c.34.68.52 1.47.52 2.37 0 .9-.18 1.69-.52 2.36-.34.68-.82 1.2-1.45 1.58-.62.37-1.36.56-2.22.56Zm0-1.65c.47 0 .85-.12 1.17-.38.3-.26.54-.6.69-1.03.15-.43.23-.91.23-1.45 0-.53-.08-1.01-.23-1.44a2.3 2.3 0 0 0-.7-1.04c-.3-.26-.7-.39-1.15-.39-.48 0-.87.13-1.19.39-.3.25-.54.6-.7 1.04-.15.43-.22.91-.22 1.44 0 .54.07 1.02.23 1.45.15.43.38.77.7 1.03.3.26.7.38 1.18.38Zm9.9 1.48v-8.73h1.99v1.46h.09a2.18 2.18 0 0 1 2.15-1.58 4.73 4.73 0 0 1 .74.05v1.9a3.83 3.83 0 0 0-.96-.12c-.37 0-.7.08-1 .24a1.78 1.78 0 0 0-.96 1.65V57h-2.06Zm9.84.17a4.5 4.5 0 0 1-2.27-.55 3.7 3.7 0 0 1-1.46-1.55 5.21 5.21 0 0 1-.5-2.38c0-.9.16-1.69.5-2.37a3.87 3.87 0 0 1 3.62-2.16c.54 0 1.05.09 1.52.26a3.5 3.5 0 0 1 2.15 2.17c.21.55.32 1.21.32 1.98v.63h-7.15v-1.4h5.18c0-.4-.09-.74-.26-1.05a1.89 1.89 0 0 0-1.73-1 2 2 0 0 0-1.1.3 2.22 2.22 0 0 0-1.02 1.88v1.2c0 .52.1.95.28 1.31.19.36.44.64.78.83.33.2.72.29 1.17.29.3 0 .57-.04.81-.13.24-.08.45-.21.63-.38.18-.16.31-.37.4-.62l1.92.22a3.03 3.03 0 0 1-1.99 2.2c-.52.2-1.12.31-1.8.31Zm13.17-8.9L204.77 57h-2.28l-3.1-8.73h2.19l2 6.49h.1l2-6.49h2.2ZM209.3 57v-8.73h2.06V57h-2.06Zm1.03-9.97c-.32 0-.6-.1-.84-.32a1.04 1.04 0 0 1-.35-.79c0-.31.12-.57.35-.79.24-.22.52-.33.84-.33.33 0 .61.11.84.33a1.05 1.05 0 0 1 0 1.58c-.23.22-.5.32-.84.32Zm7 10.14a4.5 4.5 0 0 1-2.26-.55 3.7 3.7 0 0 1-1.46-1.55 5.21 5.21 0 0 1-.51-2.38c0-.9.17-1.69.5-2.37a3.87 3.87 0 0 1 3.63-2.16c.53 0 1.04.09 1.52.26s.9.44 1.27.8c.37.36.66.81.88 1.37.2.55.31 1.21.31 1.98v.63h-7.15v-1.4h5.18a1.96 1.96 0 0 0-.95-1.78c-.3-.18-.64-.27-1.03-.27a2 2 0 0 0-1.11.3 2.13 2.13 0 0 0-1.01 1.88v1.2c0 .52.09.95.27 1.31.19.36.45.64.78.83.34.2.73.29 1.17.29.3 0 .57-.04.81-.13a1.65 1.65 0 0 0 1.04-1l1.92.22c-.12.5-.35.95-.7 1.33-.33.37-.76.67-1.29.87-.52.2-1.13.31-1.8.31Zm7.38-.17-2.47-8.73h2.1l1.53 6.14h.08l1.57-6.14h2.08l1.56 6.1h.09l1.51-6.1h2.1L232.4 57h-2.14l-1.64-5.9h-.12l-1.63 5.9h-2.15ZM23.46 77h-1.29l3.74-10.18h1.27L30.92 77h-1.3l-3.03-8.57h-.08L23.46 77Zm.48-3.98h5.21v1.1h-5.2v-1.1Zm13.82-1.95-1.06.3a1.96 1.96 0 0 0-.29-.51c-.13-.17-.3-.3-.52-.42-.22-.1-.5-.16-.84-.16a2 2 0 0 0-1.17.32c-.3.21-.46.48-.46.81 0 .3.1.52.32.7.21.16.54.3 1 .42l1.13.27c.68.17 1.19.42 1.52.76.34.34.5.78.5 1.31 0 .44-.12.83-.37 1.18-.25.34-.6.61-1.05.81-.44.2-.96.3-1.56.3-.78 0-1.42-.17-1.93-.5a2.25 2.25 0 0 1-.97-1.49l1.11-.28c.11.41.31.72.6.93.3.2.7.3 1.17.3.55 0 .98-.11 1.3-.34.33-.24.5-.52.5-.85a.9.9 0 0 0-.28-.66 1.78 1.78 0 0 0-.86-.41l-1.27-.3a3.04 3.04 0 0 1-1.54-.77c-.33-.35-.5-.8-.5-1.32 0-.43.13-.81.37-1.14.25-.33.58-.6 1-.78.43-.2.9-.29 1.44-.29.76 0 1.35.17 1.78.5.44.33.75.77.93 1.31Zm7.31 0-1.05.3a1.95 1.95 0 0 0-.3-.51c-.12-.17-.3-.3-.51-.42-.22-.1-.5-.16-.84-.16a2 2 0 0 0-1.17.32c-.3.21-.46.48-.46.81 0 .3.1.52.31.7.22.16.55.3 1 .42l1.13.27c.69.17 1.2.42 1.53.76.33.34.5.78.5 1.31 0 .44-.12.83-.38 1.18-.25.34-.6.61-1.04.81-.45.2-.97.3-1.56.3-.78 0-1.43-.17-1.94-.5a2.25 2.25 0 0 1-.97-1.49l1.12-.28c.1.41.3.72.6.93.3.2.69.3 1.17.3.55 0 .98-.11 1.3-.34.33-.24.49-.52.49-.85a.9.9 0 0 0-.28-.66 1.78 1.78 0 0 0-.86-.41l-1.27-.3a3.04 3.04 0 0 1-1.54-.77 1.9 1.9 0 0 1-.49-1.32c0-.43.12-.81.37-1.14.24-.33.57-.6 1-.78.42-.2.9-.29 1.44-.29.75 0 1.35.17 1.78.5.43.33.74.77.92 1.31Zm1.9 5.93v-7.64h1.18V77h-1.17Zm.6-8.9a.83.83 0 0 1-.59-.24.75.75 0 0 1-.24-.56c0-.22.08-.41.24-.57a.83.83 0 0 1 .6-.23c.22 0 .42.08.58.23.17.16.25.35.25.57 0 .21-.08.4-.25.56a.82.82 0 0 1-.59.23Zm5.81 11.92c-.56 0-1.05-.07-1.46-.22a3.1 3.1 0 0 1-1.66-1.3l.93-.66c.11.13.24.3.4.47.17.18.4.34.67.47.29.14.66.2 1.12.2.62 0 1.13-.14 1.53-.44.4-.3.6-.76.6-1.4v-1.55h-.1c-.09.14-.2.31-.37.52-.15.2-.38.38-.67.54-.3.15-.69.23-1.19.23a3.07 3.07 0 0 1-2.82-1.71 4.45 4.45 0 0 1-.42-2.03c0-.78.14-1.46.41-2.04a3.03 3.03 0 0 1 2.85-1.83c.5 0 .9.08 1.19.24.3.17.52.35.67.56l.37.5h.12v-1.2h1.13v7.85a2.7 2.7 0 0 1-.44 1.6c-.3.41-.7.72-1.2.9-.5.2-1.05.3-1.66.3Zm-.04-4.2c.47 0 .87-.1 1.2-.32a2 2 0 0 0 .74-.93c.16-.4.25-.88.25-1.45 0-.55-.08-1.03-.25-1.45a2.19 2.19 0 0 0-.73-1 1.98 1.98 0 0 0-1.2-.35 2 2 0 0 0-2 1.39 4.21 4.21 0 0 0 .01 2.81c.17.41.42.73.75.96.33.23.74.35 1.23.35Zm6.66-3.4V77h-1.17v-7.64h1.13v1.2h.1c.18-.4.45-.7.82-.94a2.5 2.5 0 0 1 1.41-.36c.52 0 .97.11 1.36.32.39.21.69.53.9.96.22.42.33.96.33 1.6V77H63.7v-4.77c0-.6-.15-1.07-.46-1.4a1.67 1.67 0 0 0-1.29-.51c-.37 0-.7.08-1 .24-.3.16-.52.4-.7.71-.16.31-.25.7-.25 1.14ZM72.7 77l-2.33-7.64h1.23l1.65 5.85h.08l1.63-5.85h1.26l1.6 5.83h.09l1.65-5.83h1.23L78.45 77H77.3l-1.67-5.87h-.12L73.84 77H72.7Zm12.49.16c-.7 0-1.3-.16-1.82-.5a3.34 3.34 0 0 1-1.21-1.37 4.66 4.66 0 0 1-.44-2.07c0-.8.15-1.49.44-2.08a3.27 3.27 0 0 1 3.03-1.88 3.3 3.3 0 0 1 3.02 1.87c.29.6.44 1.3.44 2.1 0 .78-.15 1.47-.44 2.06a3.3 3.3 0 0 1-1.22 1.38 3.3 3.3 0 0 1-1.8.49Zm0-1.05c.52 0 .95-.14 1.29-.4.34-.28.59-.63.75-1.07a4.25 4.25 0 0 0 0-2.85 2.4 2.4 0 0 0-.75-1.06 2 2 0 0 0-1.3-.41 2 2 0 0 0-1.29.4 2.4 2.4 0 0 0-.75 1.07 4.1 4.1 0 0 0-.24 1.43c0 .51.08.99.24 1.42.16.44.41.8.75 1.06.34.27.77.4 1.3.4Zm5.25.89v-7.64h1.13v1.16h.08c.14-.38.4-.69.76-.92.36-.24.77-.36 1.23-.36a13.1 13.1 0 0 1 .61.02v1.2a3.45 3.45 0 0 0-.71-.08c-.37 0-.7.08-1 .23a1.71 1.71 0 0 0-.93 1.56V77h-1.17Zm6.3-2.78-.02-1.46h.24l3.34-3.4h1.45l-3.56 3.6h-.1l-1.35 1.26ZM95.63 77V66.82h1.18V77h-1.17Zm4.86 0-2.99-3.78.84-.81 3.64 4.59h-1.5Zm10.1-7.64v1h-4.12v-1h4.12ZM107.7 77v-8.69c0-.44.1-.8.31-1.1.2-.29.48-.5.8-.65a2.94 2.94 0 0 1 2.15-.02l-.33 1.01a5.4 5.4 0 0 0-.25-.07c-.1-.03-.24-.05-.4-.05-.4 0-.68.1-.85.3-.17.2-.25.48-.25.86V77h-1.17Zm7.32.16a3.2 3.2 0 0 1-1.81-.5 3.35 3.35 0 0 1-1.22-1.37 4.66 4.66 0 0 1-.43-2.07c0-.8.14-1.49.43-2.08a3.3 3.3 0 0 1 3.03-1.88 3.28 3.28 0 0 1 3.02 1.88c.3.6.44 1.29.44 2.08s-.15 1.48-.44 2.07a3.3 3.3 0 0 1-1.2 1.38 3.3 3.3 0 0 1-1.82.49Zm0-1.05c.53 0 .95-.14 1.3-.4.33-.28.58-.63.74-1.07a4.08 4.08 0 0 0 0-2.85 2.4 2.4 0 0 0-.75-1.06 2 2 0 0 0-1.29-.41 2 2 0 0 0-1.3.4 2.4 2.4 0 0 0-.74 1.07c-.17.45-.25.92-.25 1.43 0 .51.08.99.25 1.42.16.44.41.8.75 1.06.34.27.77.4 1.3.4Zm5.25.89v-7.64h1.14v1.16h.08c.13-.38.39-.69.75-.92.37-.24.78-.36 1.23-.36a13.07 13.07 0 0 1 .62.02v1.2a3.4 3.4 0 0 0-.72-.08c-.37 0-.7.08-.99.23a1.71 1.71 0 0 0-.94 1.56V77h-1.17Zm9.9 2.86a2.57 2.57 0 0 1-.85-.14l.3-1.03c.28.07.53.1.75.08a.9.9 0 0 0 .59-.3c.17-.17.32-.45.47-.83l.22-.6-2.83-7.68h1.28l2.1 6.09h.08l2.11-6.09h1.27l-3.24 8.75c-.14.4-.32.72-.54.98-.22.26-.47.46-.75.58-.28.13-.6.2-.96.2Zm9.87-2.7a3.2 3.2 0 0 1-1.81-.5A3.34 3.34 0 0 1 137 75.3a4.65 4.65 0 0 1-.43-2.07c0-.8.14-1.49.43-2.08a3.3 3.3 0 0 1 3.03-1.88 3.28 3.28 0 0 1 3.02 1.88c.3.6.44 1.29.44 2.08a4.6 4.6 0 0 1-.44 2.07 3.3 3.3 0 0 1-1.21 1.38 3.3 3.3 0 0 1-1.81.49Zm0-1.05c.52 0 .96-.14 1.3-.4.33-.28.58-.63.74-1.07a4.1 4.1 0 0 0 0-2.85c-.16-.44-.4-.8-.75-1.06a2 2 0 0 0-1.29-.41 2 2 0 0 0-1.3.4 2.4 2.4 0 0 0-.74 1.07 4.1 4.1 0 0 0-.25 1.43c0 .51.09.99.25 1.42.16.44.41.8.75 1.06a2 2 0 0 0 1.29.4Zm10.06-2.23v-4.52h1.18V77h-1.18v-1.3h-.07a2.4 2.4 0 0 1-2.27 1.4c-.48 0-.9-.1-1.27-.31a2.2 2.2 0 0 1-.88-.96 3.63 3.63 0 0 1-.32-1.61v-4.86h1.18v4.78c0 .55.15 1 .46 1.33.32.33.72.5 1.2.5a2 2 0 0 0 1.97-2.1Zm3.33 3.12v-7.64h1.13v1.16h.08c.14-.38.4-.69.76-.92.36-.24.77-.36 1.23-.36a13.07 13.07 0 0 1 .62.02v1.2a3.46 3.46 0 0 0-.72-.08c-.37 0-.7.08-1 .23a1.72 1.72 0 0 0-.93 1.56V77h-1.17Zm14.55-5.93-1.05.3a1.95 1.95 0 0 0-.3-.51c-.12-.17-.3-.3-.51-.42-.22-.1-.5-.16-.84-.16a2 2 0 0 0-1.17.32c-.3.21-.46.48-.46.81 0 .3.1.52.31.7.22.16.55.3 1 .42l1.13.27c.69.17 1.2.42 1.53.76.33.34.5.78.5 1.31 0 .44-.13.83-.38 1.18-.25.34-.6.61-1.04.81-.45.2-.97.3-1.56.3-.78 0-1.42-.17-1.94-.5a2.25 2.25 0 0 1-.96-1.49l1.1-.28c.12.41.31.72.61.93.3.2.69.3 1.17.3.54 0 .98-.11 1.3-.34.33-.24.49-.52.49-.85a.9.9 0 0 0-.28-.66 1.78 1.78 0 0 0-.85-.41l-1.28-.3a3.04 3.04 0 0 1-1.54-.77 1.9 1.9 0 0 1-.49-1.32c0-.43.12-.81.37-1.14.24-.33.57-.6 1-.78.42-.2.9-.29 1.44-.29.75 0 1.35.17 1.78.5.43.33.74.77.92 1.31Zm5.23-1.7v.99h-3.96v-1h3.96Zm-2.8-1.84h1.17v7.28c0 .33.05.58.14.75.1.16.23.27.38.33.16.05.32.08.5.08l.31-.02.2-.04.24 1.05a2.4 2.4 0 0 1-.88.14c-.33 0-.65-.07-.97-.21a1.93 1.93 0 0 1-.79-.66 1.9 1.9 0 0 1-.3-1.1v-7.6Zm9.38 6.35v-4.52h1.17V77h-1.17v-1.3h-.08a2.5 2.5 0 0 1-.84 1c-.38.27-.85.4-1.43.4-.48 0-.9-.1-1.27-.31a2.2 2.2 0 0 1-.88-.96 3.63 3.63 0 0 1-.32-1.61v-4.86h1.18v4.78c0 .55.15 1 .46 1.33.32.33.72.5 1.2.5a2 2 0 0 0 1.98-2.1Zm6.2 3.28a2.99 2.99 0 0 1-2.83-1.86 5.01 5.01 0 0 1-.41-2.1 5 5 0 0 1 .41-2.09 3.03 3.03 0 0 1 2.85-1.85 2.12 2.12 0 0 1 1.85.81l.36.5h.1v-3.75h1.17V77h-1.13v-1.17h-.14l-.37.52c-.16.21-.38.4-.68.57-.3.16-.69.24-1.18.24Zm.16-1.05a2 2 0 0 0 1.2-.37c.32-.25.57-.6.74-1.03.16-.44.25-.95.25-1.53 0-.57-.09-1.07-.25-1.5a1.96 1.96 0 0 0-1.94-1.37c-.5 0-.91.14-1.24.4-.33.24-.58.59-.74 1.02a4.1 4.1 0 0 0-.25 1.45c0 .55.09 1.04.25 1.48.17.44.42.8.75 1.06s.74.39 1.23.39Zm8.85 1.05a3.27 3.27 0 0 1-3.13-1.86 4.68 4.68 0 0 1-.43-2.06c0-.78.15-1.47.43-2.07.3-.6.7-1.06 1.2-1.4a3.62 3.62 0 0 1 2.99-.3 2.92 2.92 0 0 1 1.82 1.81 5 5 0 0 1 .29 1.8v.5h-5.89v-1.01h4.7c0-.44-.1-.82-.26-1.16a1.95 1.95 0 0 0-1.83-1.1 2.2 2.2 0 0 0-2 1.26c-.18.36-.27.75-.27 1.17v.68c0 .58.1 1.07.3 1.47.2.4.48.7.84.9.36.21.77.32 1.25.32.3 0 .58-.05.83-.13.25-.1.47-.23.65-.4.18-.18.32-.4.42-.67l1.14.32c-.12.38-.32.72-.6 1.01-.29.3-.63.52-1.05.68-.41.16-.88.24-1.4.24Zm6.13-4.75V77h-1.18v-7.64h1.14v1.2h.1c.17-.4.45-.7.81-.94.37-.24.84-.36 1.41-.36.52 0 .97.11 1.36.32.39.21.69.53.9.96.22.42.33.96.33 1.6V77h-1.18v-4.77c0-.6-.15-1.07-.46-1.4a1.67 1.67 0 0 0-1.29-.51c-.37 0-.7.08-1 .24-.3.16-.52.4-.7.71-.16.31-.25.7-.25 1.14Zm10.33-3.05v1h-3.96v-1h3.96Zm-2.8-1.83h1.17v7.28c0 .33.05.58.15.75.1.16.22.27.37.33.16.05.32.08.5.08l.31-.02.2-.04.24 1.05a2.33 2.33 0 0 1-.87.14c-.33 0-.66-.07-.98-.21a1.93 1.93 0 0 1-.78-.66 1.9 1.9 0 0 1-.31-1.1v-7.6Zm9.84 3.54-1.05.3a1.96 1.96 0 0 0-.3-.51c-.12-.17-.3-.3-.52-.42a2 2 0 0 0-.84-.16 2 2 0 0 0-1.16.32c-.31.21-.47.48-.47.81 0 .3.11.52.32.7.22.16.55.3 1 .42l1.13.27c.68.17 1.2.42 1.53.76.33.34.5.78.5 1.31 0 .44-.13.83-.38 1.18-.25.34-.6.61-1.04.81-.45.2-.97.3-1.56.3-.78 0-1.43-.17-1.94-.5a2.25 2.25 0 0 1-.97-1.49l1.12-.28c.1.41.3.72.6.93.3.2.69.3 1.17.3.54 0 .98-.11 1.3-.34.32-.24.49-.52.49-.85a.9.9 0 0 0-.28-.66 1.77 1.77 0 0 0-.86-.41l-1.27-.3a3.04 3.04 0 0 1-1.54-.77c-.33-.35-.49-.8-.49-1.32 0-.43.12-.81.36-1.14.25-.33.58-.6 1-.78.43-.2.9-.29 1.44-.29.76 0 1.35.17 1.78.5.44.33.75.77.93 1.31Zm2.76 6.01a.86.86 0 0 1-.63-.26.86.86 0 0 1-.26-.64c0-.24.08-.45.26-.63a.86.86 0 0 1 .63-.26c.25 0 .46.09.63.26.18.18.27.39.27.63a.93.93 0 0 1-.45.78.85.85 0 0 1-.45.12Z" fill="#545454"/><path d="M105 110V99.82h3.82c.79 0 1.44.13 1.97.4.53.28.94.66 1.2 1.15.28.49.42 1.05.42 1.7a3.3 3.3 0 0 1-.42 1.7c-.27.48-.68.85-1.21 1.11-.54.26-1.2.4-1.98.4h-2.72v-1.54h2.47c.46 0 .83-.06 1.12-.19.3-.13.51-.31.65-.56.14-.25.21-.55.21-.91 0-.37-.07-.67-.21-.93a1.36 1.36 0 0 0-.65-.59c-.3-.13-.67-.2-1.13-.2h-1.7V110H105Zm5.26-4.61 2.52 4.61h-2.05l-2.48-4.61h2.01Zm7.04 4.76c-.76 0-1.42-.16-1.98-.48a3.23 3.23 0 0 1-1.28-1.36 4.57 4.57 0 0 1-.45-2.08c0-.79.15-1.48.45-2.07a3.4 3.4 0 0 1 3.17-1.9c.47 0 .91.08 1.33.23a3 3 0 0 1 1.11.7c.33.31.58.72.77 1.2.18.49.28 1.06.28 1.73v.55h-6.26v-1.2h4.53a2 2 0 0 0-.22-.93 1.62 1.62 0 0 0-.61-.64 1.72 1.72 0 0 0-.9-.23c-.38 0-.7.09-.98.27a1.94 1.94 0 0 0-.88 1.63v1.06c0 .44.08.83.24 1.14.16.32.4.56.68.73.3.16.64.25 1.03.25.26 0 .5-.04.7-.11a1.37 1.37 0 0 0 .91-.88l1.68.2c-.1.44-.3.82-.6 1.16-.3.32-.68.58-1.14.76-.46.18-.98.27-1.58.27Zm8.73-7.79v1.4h-4.39v-1.4h4.4Zm-3.3-1.83h1.8v7.17c0 .24.03.43.1.56.08.13.18.21.3.26.13.05.26.07.41.07a1.72 1.72 0 0 0 .53-.07l.3 1.4a3.83 3.83 0 0 1-1.06.18c-.45.02-.85-.05-1.22-.2a1.9 1.9 0 0 1-.86-.7 2.1 2.1 0 0 1-.3-1.2v-7.47Zm4.8 9.47v-7.64h1.75v1.28h.08a1.9 1.9 0 0 1 1.89-1.39 4.15 4.15 0 0 1 .64.05v1.66a3.37 3.37 0 0 0-.84-.1c-.32 0-.62.07-.88.2a1.56 1.56 0 0 0-.83 1.45V110h-1.8Zm6.91 2.86a3.63 3.63 0 0 1-1.17-.19l.41-1.4c.27.08.5.12.7.11.21 0 .4-.07.55-.2.16-.11.29-.32.4-.6l.15-.42-2.76-7.8h1.9l1.76 5.77h.08l1.77-5.77h1.91l-3.05 8.56c-.15.4-.34.75-.57 1.04-.24.3-.53.52-.87.67-.34.16-.74.23-1.21.23Z" fill="#0F67F5"/></svg>