<svg width="240" height="158" fill="none" xmlns="http://www.w3.org/2000/svg"><path fill="#F0F6FE" d="M0 .91h240v156.18H0z"/><path fill="#102DA3" d="M0 .91h240V11.5H0z"/><rect x="9.71" y="20.32" width="68.82" height="41.47" rx="2" fill="#fff"/><rect x="9.71" y="70.62" width="220.59" height="53.82" rx="2" fill="#fff"/><rect x="108.53" y="97.09" width="22.94" height="1.76" rx=".88" fill="#545454"/><rect x="82.06" y="103.27" width="75.88" height="1.76" rx=".88" fill="#AFAFAF"/><rect x="95.29" y="109.44" width="49.41" height="6.18" rx="2" fill="#0F67F5"/><rect width="26.47" height=".88" rx=".44" transform="matrix(1 0 0 -1 106.77 112.97)" fill="#fff"/><path d="M9.7 131.74c0-1.1.9-2 2-2h216.6a2 2 0 0 1 2 2v25.35H9.7v-25.35Z" fill="#fff"/><rect x="85.59" y="20.32" width="68.82" height="41.47" rx="2" fill="#fff"/><rect x="161.47" y="20.32" width="68.82" height="41.47" rx="2" fill="#fff"/><rect x="170.29" y="44.15" width="49.41" height="6.18" rx="2" fill="#0F67F5"/><rect width="26.47" height=".88" rx=".44" transform="matrix(1 0 0 -1 181.76 47.68)" fill="#fff"/><rect x="32.65" y="28.26" width="22.94" height="1.76" rx=".88" fill="#545454"/><rect x="94.41" y="29.15" width="22.94" height="1.76" rx=".88" fill="#545454"/><rect x="170.29" y="29.15" width="22.94" height="1.76" rx=".88" fill="#545454"/><rect x="19.41" y="36.21" width="49.41" height="1.76" rx=".88" fill="#AFAFAF"/><rect x="94.41" y="37.09" width="49.41" height="1.76" rx=".88" fill="#AFAFAF"/><rect x="170.29" y="37.09" width="49.41" height="1.76" rx=".88" fill="#AFAFAF"/><rect x="94.41" y="49.44" width="49.41" height="1.76" rx=".88" fill="#AFAFAF"/><rect x="29.12" y="42.38" width="29.12" height="1.76" rx=".88" fill="#AFAFAF"/><rect x="94.41" y="43.26" width="29.12" height="1.76" rx=".88" fill="#AFAFAF"/><rect x="19.41" y="49.44" width="49.41" height="6.18" rx="2" fill="#0F67F5"/><rect width="26.47" height=".88" rx=".44" transform="matrix(1 0 0 -1 30.88 52.97)" fill="#fff"/><path d="M131.47 79.44h-22.94v13.24h22.94V79.44Z" fill="#F6F6F6"/><path fill-rule="evenodd" clip-rule="evenodd" d="M108.53 79.44h23.17v13.24h-23.17V79.44Zm.55 12.69h22.07V79.99h-22.07v12.14Z" fill="#AFAFAF"/><path d="M129.7 81.2h-19.4v9.71h19.4v-9.7Z" fill="#fff"/><path fill-rule="evenodd" clip-rule="evenodd" d="M115.76 83.31h-2.82v-1.22h2.82v1.22Zm5.65 0h-3.1v-1.22h3.1v1.22Zm5.65 0h-3.1v-1.22h3.1v1.22Zm-11.3 3.36h-2.82v-1.22h2.82v1.22Zm5.65 0h-3.1v-1.22h3.1v1.22Zm5.65 0h-3.1v-1.22h3.1v1.22Zm-11.3 3.36h-2.82V88.8h2.82v1.22Zm5.65 0h-3.1V88.8h3.1v1.22Zm5.65 0h-3.1V88.8h3.1v1.22Z" fill="#AFAFAF"/></svg>