<svg width="234" height="84" viewBox="0 0 234 84" fill="none" xmlns="http://www.w3.org/2000/svg">
<path d="M0.65332 50.5794V49.4857H5.50559V50.5794H0.65332ZM0.65332 59.6675V58.5737H5.50559V59.6675H0.65332ZM3.69593 49.4857V59.6675H2.46298V49.4857H3.69593Z" fill="#545454"/>
<path d="M8.43137 55.0737V59.6675H7.25808V52.0311H8.3916V53.2243H8.49103C8.67001 52.8365 8.94179 52.525 9.30637 52.2896C9.67096 52.051 10.1416 51.9317 10.7183 51.9317C11.2354 51.9317 11.6878 52.0377 12.0756 52.2499C12.4633 52.4587 12.7649 52.7769 12.9804 53.2044C13.1958 53.6287 13.3035 54.1656 13.3035 54.8152V59.6675H12.1302V54.8948C12.1302 54.2948 11.9745 53.8275 11.6629 53.4928C11.3514 53.1547 10.9238 52.9857 10.3802 52.9857C10.0057 52.9857 9.67096 53.0669 9.37598 53.2293C9.08431 53.3917 8.85396 53.6287 8.68493 53.9402C8.51589 54.2518 8.43137 54.6296 8.43137 55.0737Z" fill="#545454"/>
<path d="M21.4184 52.0311L18.5945 59.6675H17.4014L14.5775 52.0311H15.8502L17.9582 58.1163H18.0377L20.1457 52.0311H21.4184Z" fill="#545454"/>
<path d="M22.9671 59.6675V52.0311H24.1404V59.6675H22.9671ZM23.5637 50.7584C23.335 50.7584 23.1378 50.6805 22.972 50.5247C22.8096 50.3689 22.7284 50.1817 22.7284 49.9629C22.7284 49.7442 22.8096 49.5569 22.972 49.4011C23.1378 49.2454 23.335 49.1675 23.5637 49.1675C23.7923 49.1675 23.9879 49.2454 24.1503 49.4011C24.316 49.5569 24.3989 49.7442 24.3989 49.9629C24.3989 50.1817 24.316 50.3689 24.1503 50.5247C23.9879 50.6805 23.7923 50.7584 23.5637 50.7584Z" fill="#545454"/>
<path d="M29.6104 52.0311V53.0254H25.653V52.0311H29.6104ZM26.8064 50.2016H27.9797V57.48C27.9797 57.8114 28.0277 58.06 28.1238 58.2257C28.2233 58.3881 28.3492 58.4975 28.5017 58.5538C28.6575 58.6069 28.8215 58.6334 28.9939 58.6334C29.1231 58.6334 29.2292 58.6268 29.3121 58.6135C29.3949 58.5969 29.4612 58.5837 29.5109 58.5737L29.7496 59.6277C29.67 59.6575 29.559 59.6874 29.4165 59.7172C29.2739 59.7503 29.0933 59.7669 28.8746 59.7669C28.5431 59.7669 28.2183 59.6957 27.9001 59.5531C27.5853 59.4106 27.3234 59.1935 27.1146 58.9019C26.9091 58.6102 26.8064 58.2423 26.8064 57.7982V50.2016Z" fill="#545454"/>
<path d="M34.4949 59.8266C33.7591 59.8266 33.1244 59.6642 32.5908 59.3394C32.0605 59.0112 31.6512 58.5538 31.3628 57.9672C31.0778 57.3772 30.9353 56.6912 30.9353 55.909C30.9353 55.1268 31.0778 54.4374 31.3628 53.8408C31.6512 53.2409 32.0522 52.7735 32.566 52.4388C33.083 52.1007 33.6862 51.9317 34.3756 51.9317C34.7733 51.9317 35.1661 51.998 35.5539 52.1305C35.9417 52.2631 36.2947 52.4786 36.6128 52.7769C36.931 53.0718 37.1846 53.4629 37.3735 53.9502C37.5624 54.4374 37.6569 55.0373 37.6569 55.7499V56.247H31.7705V55.2328H36.4637C36.4637 54.802 36.3775 54.4175 36.2052 54.0794C36.0361 53.7413 35.7942 53.4745 35.4793 53.279C35.1678 53.0834 34.7999 52.9857 34.3756 52.9857C33.9083 52.9857 33.5039 53.1017 33.1626 53.3337C32.8245 53.5624 32.5643 53.8607 32.382 54.2286C32.1997 54.5965 32.1086 54.9909 32.1086 55.4118V56.0879C32.1086 56.6646 32.208 57.1535 32.4069 57.5546C32.609 57.9523 32.8891 58.2555 33.2471 58.4644C33.605 58.6698 34.021 58.7726 34.4949 58.7726C34.8032 58.7726 35.0816 58.7295 35.3302 58.6433C35.5821 58.5538 35.7992 58.4213 35.9814 58.2456C36.1637 58.0666 36.3046 57.8446 36.404 57.5794L37.5376 57.8976C37.4182 58.2821 37.2177 58.6201 36.936 58.9118C36.6543 59.2002 36.3063 59.4255 35.892 59.5879C35.4777 59.747 35.012 59.8266 34.4949 59.8266Z" fill="#545454"/>
<path d="M46.4814 59.8266C45.7921 59.8266 45.1872 59.6625 44.6668 59.3344C44.1498 59.0063 43.7454 58.5472 43.4537 57.9573C43.1654 57.3673 43.0212 56.6779 43.0212 55.8891C43.0212 55.0936 43.1654 54.3993 43.4537 53.806C43.7454 53.2127 44.1498 52.752 44.6668 52.4239C45.1872 52.0957 45.7921 51.9317 46.4814 51.9317C47.1708 51.9317 47.7741 52.0957 48.2911 52.4239C48.8115 52.752 49.2158 53.2127 49.5042 53.806C49.7958 54.3993 49.9417 55.0936 49.9417 55.8891C49.9417 56.6779 49.7958 57.3673 49.5042 57.9573C49.2158 58.5472 48.8115 59.0063 48.2911 59.3344C47.7741 59.6625 47.1708 59.8266 46.4814 59.8266ZM46.4814 58.7726C47.0051 58.7726 47.436 58.6384 47.7741 58.3699C48.1121 58.1014 48.3624 57.7484 48.5248 57.3109C48.6872 56.8734 48.7684 56.3995 48.7684 55.8891C48.7684 55.3787 48.6872 54.903 48.5248 54.4622C48.3624 54.0214 48.1121 53.6651 47.7741 53.3933C47.436 53.1216 47.0051 52.9857 46.4814 52.9857C45.9578 52.9857 45.5269 53.1216 45.1888 53.3933C44.8508 53.6651 44.6005 54.0214 44.4381 54.4622C44.2757 54.903 44.1945 55.3787 44.1945 55.8891C44.1945 56.3995 44.2757 56.8734 44.4381 57.3109C44.6005 57.7484 44.8508 58.1014 45.1888 58.3699C45.5269 58.6384 45.9578 58.7726 46.4814 58.7726Z" fill="#545454"/>
<path d="M55.0537 52.0311V53.0254H51.0963V52.0311H55.0537ZM52.2497 50.2016H53.423V57.48C53.423 57.8114 53.4711 58.06 53.5672 58.2257C53.6666 58.3881 53.7926 58.4975 53.945 58.5538C54.1008 58.6069 54.2649 58.6334 54.4372 58.6334C54.5665 58.6334 54.6726 58.6268 54.7554 58.6135C54.8383 58.5969 54.9046 58.5837 54.9543 58.5737L55.1929 59.6277C55.1134 59.6575 55.0023 59.6874 54.8598 59.7172C54.7173 59.7503 54.5367 59.7669 54.3179 59.7669C53.9865 59.7669 53.6617 59.6957 53.3435 59.5531C53.0286 59.4106 52.7668 59.1935 52.558 58.9019C52.3525 58.6102 52.2497 58.2423 52.2497 57.7982V50.2016Z" fill="#545454"/>
<path d="M58.156 55.0737V59.6675H56.9827V49.4857H58.156V53.2243H58.2554C58.4344 52.8299 58.7029 52.5167 59.0608 52.2847C59.4221 52.0493 59.9027 51.9317 60.5026 51.9317C61.0229 51.9317 61.4787 52.0361 61.8698 52.2449C62.2609 52.4504 62.5641 52.7669 62.7796 53.1945C62.9983 53.6187 63.1077 54.159 63.1077 54.8152V59.6675H61.9344V54.8948C61.9344 54.2882 61.777 53.8192 61.4621 53.4878C61.1505 53.153 60.718 52.9857 60.1645 52.9857C59.78 52.9857 59.4353 53.0669 59.1304 53.2293C58.8288 53.3917 58.5902 53.6287 58.4145 53.9402C58.2422 54.2518 58.156 54.6296 58.156 55.0737Z" fill="#545454"/>
<path d="M68.4559 59.8266C67.7201 59.8266 67.0854 59.6642 66.5518 59.3394C66.0215 59.0112 65.6121 58.5538 65.3238 57.9672C65.0387 57.3772 64.8962 56.6912 64.8962 55.909C64.8962 55.1268 65.0387 54.4374 65.3238 53.8408C65.6121 53.2409 66.0132 52.7735 66.5269 52.4388C67.0439 52.1007 67.6472 51.9317 68.3366 51.9317C68.7343 51.9317 69.127 51.998 69.5148 52.1305C69.9026 52.2631 70.2556 52.4786 70.5738 52.7769C70.892 53.0718 71.1455 53.4629 71.3344 53.9502C71.5233 54.4374 71.6178 55.0373 71.6178 55.7499V56.247H65.7314V55.2328H70.4246C70.4246 54.802 70.3384 54.4175 70.1661 54.0794C69.9971 53.7413 69.7551 53.4745 69.4402 53.279C69.1287 53.0834 68.7608 52.9857 68.3366 52.9857C67.8692 52.9857 67.4649 53.1017 67.1235 53.3337C66.7854 53.5624 66.5252 53.8607 66.3429 54.2286C66.1607 54.5965 66.0695 54.9909 66.0695 55.4118V56.0879C66.0695 56.6646 66.1689 57.1535 66.3678 57.5546C66.57 57.9523 66.8501 58.2555 67.208 58.4644C67.566 58.6698 67.9819 58.7726 68.4559 58.7726C68.7641 58.7726 69.0425 58.7295 69.2911 58.6433C69.543 58.5538 69.7601 58.4213 69.9424 58.2456C70.1247 58.0666 70.2655 57.8446 70.365 57.5794L71.4985 57.8976C71.3792 58.2821 71.1787 58.6201 70.8969 58.9118C70.6152 59.2002 70.2672 59.4255 69.8529 59.5879C69.4386 59.747 68.9729 59.8266 68.4559 59.8266Z" fill="#545454"/>
<path d="M73.4026 59.6675V52.0311H74.5361V53.1845H74.6157C74.7549 52.8067 75.0068 52.5001 75.3714 52.2648C75.7359 52.0295 76.1469 51.9118 76.6043 51.9118C76.6905 51.9118 76.7982 51.9135 76.9275 51.9168C77.0567 51.9201 77.1545 51.9251 77.2208 51.9317V53.1249C77.181 53.1149 77.0899 53.1 76.9473 53.0801C76.8081 53.0569 76.6607 53.0453 76.5049 53.0453C76.1337 53.0453 75.8022 53.1232 75.5106 53.279C75.2222 53.4314 74.9935 53.6436 74.8245 53.9153C74.6588 54.1838 74.5759 54.4904 74.5759 54.8351V59.6675H73.4026Z" fill="#545454"/>
<path d="M82.5491 62.5311V52.0311H83.6826V53.2442H83.8218C83.908 53.1116 84.0273 52.9426 84.1798 52.7371C84.3355 52.5283 84.5576 52.3427 84.846 52.1803C85.1376 52.0145 85.532 51.9317 86.0292 51.9317C86.6722 51.9317 87.239 52.0924 87.7295 52.4139C88.22 52.7354 88.6028 53.1912 88.8779 53.7811C89.153 54.3711 89.2906 55.0671 89.2906 55.8692C89.2906 56.6779 89.153 57.3789 88.8779 57.9722C88.6028 58.5621 88.2217 59.0195 87.7345 59.3443C87.2472 59.6658 86.6855 59.8266 86.0491 59.8266C85.5586 59.8266 85.1658 59.7454 84.8708 59.583C84.5758 59.4172 84.3488 59.23 84.1897 59.0212C84.0306 58.8091 83.908 58.6334 83.8218 58.4942H83.7224V62.5311H82.5491ZM83.7025 55.8493C83.7025 56.426 83.787 56.9348 83.9561 57.3756C84.1251 57.8131 84.372 58.1561 84.6968 58.4047C85.0216 58.65 85.4194 58.7726 85.89 58.7726C86.3805 58.7726 86.7899 58.6433 87.118 58.3848C87.4494 58.123 87.698 57.7716 87.8637 57.3308C88.0328 56.8867 88.1173 56.3929 88.1173 55.8493C88.1173 55.3124 88.0344 54.8285 87.8687 54.3976C87.7063 53.9634 87.4594 53.6204 87.1279 53.3685C86.7998 53.1133 86.3872 52.9857 85.89 52.9857C85.4127 52.9857 85.0117 53.1066 84.6869 53.3486C84.3621 53.5872 84.1168 53.922 83.9511 54.3528C83.7854 54.7804 83.7025 55.2792 83.7025 55.8493Z" fill="#545454"/>
<path d="M93.3275 59.8465C92.8436 59.8465 92.4044 59.7553 92.01 59.573C91.6156 59.3874 91.3024 59.1206 91.0704 58.7726C90.8384 58.4213 90.7224 57.997 90.7224 57.4999C90.7224 57.0624 90.8086 56.7077 90.9809 56.4359C91.1533 56.1609 91.3836 55.9454 91.672 55.7896C91.9603 55.6339 92.2785 55.5179 92.6265 55.4416C92.9778 55.3621 93.3308 55.2991 93.6855 55.2527C94.1495 55.193 94.5257 55.1483 94.814 55.1185C95.1057 55.0853 95.3178 55.0306 95.4504 54.9544C95.5863 54.8782 95.6542 54.7456 95.6542 54.5567V54.5169C95.6542 54.0264 95.52 53.6452 95.2515 53.3734C94.9864 53.1017 94.5837 52.9658 94.0434 52.9658C93.4833 52.9658 93.0441 53.0884 92.7259 53.3337C92.4078 53.5789 92.184 53.8408 92.0548 54.1192L90.9411 53.7215C91.14 53.2574 91.4051 52.8962 91.7366 52.6377C92.0713 52.3758 92.4359 52.1935 92.8303 52.0908C93.2281 51.9847 93.6192 51.9317 94.0036 51.9317C94.2489 51.9317 94.5306 51.9615 94.8488 52.0212C95.1703 52.0775 95.4802 52.1952 95.7785 52.3742C96.0801 52.5531 96.3303 52.8233 96.5292 53.1845C96.7281 53.5458 96.8275 54.0297 96.8275 54.6362V59.6675H95.6542V58.6334H95.5945C95.515 58.7991 95.3824 58.9764 95.1968 59.1653C95.0112 59.3543 94.7643 59.515 94.4561 59.6476C94.1478 59.7802 93.7716 59.8465 93.3275 59.8465ZM93.5065 58.7925C93.9705 58.7925 94.3616 58.7013 94.6798 58.519C95.0013 58.3368 95.2432 58.1014 95.4056 57.8131C95.5713 57.5247 95.6542 57.2215 95.6542 56.9033V55.8294C95.6045 55.8891 95.4951 55.9438 95.3261 55.9935C95.1604 56.0399 94.9681 56.0813 94.7494 56.1178C94.5339 56.1509 94.3235 56.1807 94.118 56.2073C93.9158 56.2305 93.7517 56.2503 93.6258 56.2669C93.3209 56.3067 93.0358 56.3713 92.7707 56.4608C92.5088 56.547 92.2967 56.6779 92.1343 56.8536C91.9752 57.0259 91.8957 57.2612 91.8957 57.5595C91.8957 57.9672 92.0465 58.2754 92.3481 58.4842C92.653 58.6897 93.0391 58.7925 93.5065 58.7925Z" fill="#545454"/>
<path d="M98.969 59.6675V52.0311H100.103V53.1845H100.182C100.321 52.8067 100.573 52.5001 100.938 52.2648C101.302 52.0295 101.713 51.9118 102.171 51.9118C102.257 51.9118 102.365 51.9135 102.494 51.9168C102.623 51.9201 102.721 51.9251 102.787 51.9317V53.1249C102.747 53.1149 102.656 53.1 102.514 53.0801C102.375 53.0569 102.227 53.0453 102.071 53.0453C101.7 53.0453 101.369 53.1232 101.077 53.279C100.789 53.4314 100.56 53.6436 100.391 53.9153C100.225 54.1838 100.142 54.4904 100.142 54.8351V59.6675H98.969Z" fill="#545454"/>
<path d="M107.147 59.8266C106.411 59.8266 105.777 59.6642 105.243 59.3394C104.713 59.0112 104.304 58.5538 104.015 57.9672C103.73 57.3772 103.588 56.6912 103.588 55.909C103.588 55.1268 103.73 54.4374 104.015 53.8408C104.304 53.2409 104.705 52.7735 105.218 52.4388C105.735 52.1007 106.339 51.9317 107.028 51.9317C107.426 51.9317 107.818 51.998 108.206 52.1305C108.594 52.2631 108.947 52.4786 109.265 52.7769C109.583 53.0718 109.837 53.4629 110.026 53.9502C110.215 54.4374 110.309 55.0373 110.309 55.7499V56.247H104.423V55.2328H109.116C109.116 54.802 109.03 54.4175 108.858 54.0794C108.688 53.7413 108.447 53.4745 108.132 53.279C107.82 53.0834 107.452 52.9857 107.028 52.9857C106.561 52.9857 106.156 53.1017 105.815 53.3337C105.477 53.5624 105.217 53.8607 105.034 54.2286C104.852 54.5965 104.761 54.9909 104.761 55.4118V56.0879C104.761 56.6646 104.86 57.1535 105.059 57.5546C105.261 57.9523 105.541 58.2555 105.899 58.4644C106.257 58.6698 106.673 58.7726 107.147 58.7726C107.456 58.7726 107.734 58.7295 107.983 58.6433C108.234 58.5538 108.451 58.4213 108.634 58.2456C108.816 58.0666 108.957 57.8446 109.056 57.5794L110.19 57.8976C110.071 58.2821 109.87 58.6201 109.588 58.9118C109.307 59.2002 108.959 59.4255 108.544 59.5879C108.13 59.747 107.664 59.8266 107.147 59.8266Z" fill="#545454"/>
<path d="M113.267 55.0737V59.6675H112.094V52.0311H113.228V53.2243H113.327C113.506 52.8365 113.778 52.525 114.142 52.2896C114.507 52.051 114.978 51.9317 115.554 51.9317C116.071 51.9317 116.524 52.0377 116.911 52.2499C117.299 52.4587 117.601 52.7769 117.816 53.2044C118.032 53.6287 118.139 54.1656 118.139 54.8152V59.6675H116.966V54.8948C116.966 54.2948 116.81 53.8275 116.499 53.4928C116.187 53.1547 115.76 52.9857 115.216 52.9857C114.842 52.9857 114.507 53.0669 114.212 53.2293C113.92 53.3917 113.69 53.6287 113.521 53.9402C113.352 54.2518 113.267 54.6296 113.267 55.0737Z" fill="#545454"/>
<path d="M123.604 52.0311V53.0254H119.647V52.0311H123.604ZM120.801 50.2016H121.974V57.48C121.974 57.8114 122.022 58.06 122.118 58.2257C122.217 58.3881 122.343 58.4975 122.496 58.5538C122.652 58.6069 122.816 58.6334 122.988 58.6334C123.117 58.6334 123.223 58.6268 123.306 58.6135C123.389 58.5969 123.455 58.5837 123.505 58.5737L123.744 59.6277C123.664 59.6575 123.553 59.6874 123.411 59.7172C123.268 59.7503 123.087 59.7669 122.869 59.7669C122.537 59.7669 122.212 59.6957 121.894 59.5531C121.579 59.4106 121.318 59.1935 121.109 58.9019C120.903 58.6102 120.801 58.2423 120.801 57.7982V50.2016Z" fill="#545454"/>
<path d="M130.642 53.7413L129.588 54.0396C129.522 53.864 129.424 53.6933 129.294 53.5276C129.169 53.3585 128.996 53.2193 128.777 53.11C128.559 53.0006 128.279 52.9459 127.937 52.9459C127.47 52.9459 127.08 53.0536 126.769 53.269C126.461 53.4812 126.307 53.7513 126.307 54.0794C126.307 54.3711 126.413 54.6014 126.625 54.7705C126.837 54.9395 127.168 55.0804 127.619 55.193L128.753 55.4715C129.435 55.6372 129.944 55.8907 130.279 56.2321C130.614 56.5702 130.781 57.006 130.781 57.5396C130.781 57.9771 130.655 58.3682 130.403 58.7129C130.155 59.0576 129.807 59.3294 129.359 59.5283C128.912 59.7271 128.391 59.8266 127.798 59.8266C127.019 59.8266 126.374 59.6575 125.864 59.3195C125.354 58.9814 125.031 58.4876 124.895 57.8379L126.008 57.5595C126.114 57.9705 126.315 58.2787 126.61 58.4842C126.908 58.6897 127.298 58.7925 127.778 58.7925C128.325 58.7925 128.759 58.6765 129.081 58.4445C129.406 58.2091 129.568 57.9274 129.568 57.5993C129.568 57.3341 129.475 57.1121 129.29 56.9331C129.104 56.7508 128.819 56.6149 128.434 56.5254L127.162 56.2271C126.462 56.0614 125.949 55.8046 125.62 55.4565C125.296 55.1052 125.133 54.6661 125.133 54.1391C125.133 53.7082 125.254 53.327 125.496 52.9956C125.741 52.6642 126.075 52.404 126.495 52.2151C126.92 52.0261 127.4 51.9317 127.937 51.9317C128.693 51.9317 129.286 52.0974 129.717 52.4288C130.151 52.7603 130.459 53.1978 130.642 53.7413Z" fill="#545454"/>
<path d="M139.587 59.8266C138.898 59.8266 138.293 59.6625 137.772 59.3344C137.255 59.0063 136.851 58.5472 136.559 57.9573C136.271 57.3673 136.127 56.6779 136.127 55.8891C136.127 55.0936 136.271 54.3993 136.559 53.806C136.851 53.2127 137.255 52.752 137.772 52.4239C138.293 52.0957 138.898 51.9317 139.587 51.9317C140.276 51.9317 140.88 52.0957 141.397 52.4239C141.917 52.752 142.321 53.2127 142.61 53.806C142.901 54.3993 143.047 55.0936 143.047 55.8891C143.047 56.6779 142.901 57.3673 142.61 57.9573C142.321 58.5472 141.917 59.0063 141.397 59.3344C140.88 59.6625 140.276 59.8266 139.587 59.8266ZM139.587 58.7726C140.111 58.7726 140.541 58.6384 140.88 58.3699C141.218 58.1014 141.468 57.7484 141.63 57.3109C141.793 56.8734 141.874 56.3995 141.874 55.8891C141.874 55.3787 141.793 54.903 141.63 54.4622C141.468 54.0214 141.218 53.6651 140.88 53.3933C140.541 53.1216 140.111 52.9857 139.587 52.9857C139.063 52.9857 138.632 53.1216 138.294 53.3933C137.956 53.6651 137.706 54.0214 137.544 54.4622C137.381 54.903 137.3 55.3787 137.3 55.8891C137.3 56.3995 137.381 56.8734 137.544 57.3109C137.706 57.7484 137.956 58.1014 138.294 58.3699C138.632 58.6384 139.063 58.7726 139.587 58.7726Z" fill="#545454"/>
<path d="M144.838 59.6675V52.0311H145.972V53.1845H146.051C146.19 52.8067 146.442 52.5001 146.807 52.2648C147.171 52.0295 147.582 51.9118 148.04 51.9118C148.126 51.9118 148.234 51.9135 148.363 51.9168C148.492 51.9201 148.59 51.9251 148.656 51.9317V53.1249C148.617 53.1149 148.525 53.1 148.383 53.0801C148.244 53.0569 148.096 53.0453 147.94 53.0453C147.569 53.0453 147.238 53.1232 146.946 53.279C146.658 53.4314 146.429 53.6436 146.26 53.9153C146.094 54.1838 146.011 54.4904 146.011 54.8351V59.6675H144.838Z" fill="#545454"/>
<path d="M157.087 59.8266C156.398 59.8266 155.793 59.6625 155.272 59.3344C154.755 59.0063 154.351 58.5472 154.059 57.9573C153.771 57.3673 153.627 56.6779 153.627 55.8891C153.627 55.0936 153.771 54.3993 154.059 53.806C154.351 53.2127 154.755 52.752 155.272 52.4239C155.793 52.0957 156.398 51.9317 157.087 51.9317C157.776 51.9317 158.38 52.0957 158.897 52.4239C159.417 52.752 159.821 53.2127 160.11 53.806C160.401 54.3993 160.547 55.0936 160.547 55.8891C160.547 56.6779 160.401 57.3673 160.11 57.9573C159.821 58.5472 159.417 59.0063 158.897 59.3344C158.38 59.6625 157.776 59.8266 157.087 59.8266ZM157.087 58.7726C157.611 58.7726 158.041 58.6384 158.38 58.3699C158.718 58.1014 158.968 57.7484 159.13 57.3109C159.293 56.8734 159.374 56.3995 159.374 55.8891C159.374 55.3787 159.293 54.903 159.13 54.4622C158.968 54.0214 158.718 53.6651 158.38 53.3933C158.041 53.1216 157.611 52.9857 157.087 52.9857C156.563 52.9857 156.132 53.1216 155.794 53.3933C155.456 53.6651 155.206 54.0214 155.044 54.4622C154.881 54.903 154.8 55.3787 154.8 55.8891C154.8 56.3995 154.881 56.8734 155.044 57.3109C155.206 57.7484 155.456 58.1014 155.794 58.3699C156.132 58.6384 156.563 58.7726 157.087 58.7726Z" fill="#545454"/>
<path d="M165.659 52.0311V53.0254H161.702V52.0311H165.659ZM162.855 50.2016H164.029V57.48C164.029 57.8114 164.077 58.06 164.173 58.2257C164.272 58.3881 164.398 58.4975 164.551 58.5538C164.706 58.6069 164.87 58.6334 165.043 58.6334C165.172 58.6334 165.278 58.6268 165.361 58.6135C165.444 58.5969 165.51 58.5837 165.56 58.5737L165.798 59.6277C165.719 59.6575 165.608 59.6874 165.465 59.7172C165.323 59.7503 165.142 59.7669 164.923 59.7669C164.592 59.7669 164.267 59.6957 163.949 59.5531C163.634 59.4106 163.372 59.1935 163.163 58.9019C162.958 58.6102 162.855 58.2423 162.855 57.7982V50.2016Z" fill="#545454"/>
<path d="M168.761 55.0737V59.6675H167.588V49.4857H168.761V53.2243H168.861C169.04 52.8299 169.308 52.5167 169.666 52.2847C170.028 52.0493 170.508 51.9317 171.108 51.9317C171.628 51.9317 172.084 52.0361 172.475 52.2449C172.866 52.4504 173.17 52.7669 173.385 53.1945C173.604 53.6187 173.713 54.159 173.713 54.8152V59.6675H172.54V54.8948C172.54 54.2882 172.382 53.8192 172.068 53.4878C171.756 53.153 171.323 52.9857 170.77 52.9857C170.386 52.9857 170.041 53.0669 169.736 53.2293C169.434 53.3917 169.196 53.6287 169.02 53.9402C168.848 54.2518 168.761 54.6296 168.761 55.0737Z" fill="#545454"/>
<path d="M179.061 59.8266C178.326 59.8266 177.691 59.6642 177.157 59.3394C176.627 59.0112 176.218 58.5538 175.929 57.9672C175.644 57.3772 175.502 56.6912 175.502 55.909C175.502 55.1268 175.644 54.4374 175.929 53.8408C176.218 53.2409 176.619 52.7735 177.132 52.4388C177.649 52.1007 178.253 51.9317 178.942 51.9317C179.34 51.9317 179.733 51.998 180.12 52.1305C180.508 52.2631 180.861 52.4786 181.179 52.7769C181.497 53.0718 181.751 53.4629 181.94 53.9502C182.129 54.4374 182.223 55.0373 182.223 55.7499V56.247H176.337V55.2328H181.03C181.03 54.802 180.944 54.4175 180.772 54.0794C180.603 53.7413 180.361 53.4745 180.046 53.279C179.734 53.0834 179.366 52.9857 178.942 52.9857C178.475 52.9857 178.07 53.1017 177.729 53.3337C177.391 53.5624 177.131 53.8607 176.948 54.2286C176.766 54.5965 176.675 54.9909 176.675 55.4118V56.0879C176.675 56.6646 176.774 57.1535 176.973 57.5546C177.175 57.9523 177.456 58.2555 177.813 58.4644C178.171 58.6698 178.587 58.7726 179.061 58.7726C179.37 58.7726 179.648 58.7295 179.897 58.6433C180.148 58.5538 180.366 58.4213 180.548 58.2456C180.73 58.0666 180.871 57.8446 180.97 57.5794L182.104 57.8976C181.985 58.2821 181.784 58.6201 181.502 58.9118C181.221 59.2002 180.873 59.4255 180.458 59.5879C180.044 59.747 179.578 59.8266 179.061 59.8266Z" fill="#545454"/>
<path d="M184.008 59.6675V52.0311H185.142V53.1845H185.221C185.36 52.8067 185.612 52.5001 185.977 52.2648C186.341 52.0295 186.752 51.9118 187.21 51.9118C187.296 51.9118 187.404 51.9135 187.533 51.9168C187.662 51.9201 187.76 51.9251 187.826 51.9317V53.1249C187.786 53.1149 187.695 53.1 187.553 53.0801C187.414 53.0569 187.266 53.0453 187.11 53.0453C186.739 53.0453 186.408 53.1232 186.116 53.279C185.828 53.4314 185.599 53.6436 185.43 53.9153C185.264 54.1838 185.181 54.4904 185.181 54.8351V59.6675H184.008Z" fill="#545454"/>
<path d="M192.757 50.5794V49.4857H200.393V50.5794H197.191V59.6675H195.959V50.5794H192.757Z" fill="#545454"/>
<path d="M205.91 56.5453V52.0311H207.084V59.6675H205.91V58.3749H205.831C205.652 58.7627 205.373 59.0924 204.996 59.3642C204.618 59.6327 204.141 59.7669 203.564 59.7669C203.087 59.7669 202.662 59.6625 202.291 59.4537C201.92 59.2416 201.628 58.9234 201.416 58.4992C201.204 58.0716 201.098 57.533 201.098 56.8834V52.0311H202.271V56.8038C202.271 57.3607 202.427 57.8048 202.739 58.1362C203.053 58.4677 203.454 58.6334 203.942 58.6334C204.233 58.6334 204.53 58.5588 204.832 58.4097C205.137 58.2605 205.392 58.0318 205.597 57.7236C205.806 57.4153 205.91 57.0226 205.91 56.5453Z" fill="#545454"/>
<path d="M212.554 52.0311V53.0254H208.596V52.0311H212.554ZM209.75 50.2016H210.923V57.48C210.923 57.8114 210.971 58.06 211.067 58.2257C211.167 58.3881 211.293 58.4975 211.445 58.5538C211.601 58.6069 211.765 58.6334 211.937 58.6334C212.067 58.6334 212.173 58.6268 212.255 58.6135C212.338 58.5969 212.405 58.5837 212.454 58.5737L212.693 59.6277C212.613 59.6575 212.502 59.6874 212.36 59.7172C212.217 59.7503 212.037 59.7669 211.818 59.7669C211.486 59.7669 211.162 59.6957 210.843 59.5531C210.529 59.4106 210.267 59.1935 210.058 58.9019C209.852 58.6102 209.75 58.2423 209.75 57.7982V50.2016Z" fill="#545454"/>
<path d="M217.339 59.8266C216.649 59.8266 216.045 59.6625 215.524 59.3344C215.007 59.0063 214.603 58.5472 214.311 57.9573C214.023 57.3673 213.879 56.6779 213.879 55.8891C213.879 55.0936 214.023 54.3993 214.311 53.806C214.603 53.2127 215.007 52.752 215.524 52.4239C216.045 52.0957 216.649 51.9317 217.339 51.9317C218.028 51.9317 218.631 52.0957 219.149 52.4239C219.669 52.752 220.073 53.2127 220.362 53.806C220.653 54.3993 220.799 55.0936 220.799 55.8891C220.799 56.6779 220.653 57.3673 220.362 57.9573C220.073 58.5472 219.669 59.0063 219.149 59.3344C218.631 59.6625 218.028 59.8266 217.339 59.8266ZM217.339 58.7726C217.863 58.7726 218.293 58.6384 218.631 58.3699C218.97 58.1014 219.22 57.7484 219.382 57.3109C219.545 56.8734 219.626 56.3995 219.626 55.8891C219.626 55.3787 219.545 54.903 219.382 54.4622C219.22 54.0214 218.97 53.6651 218.631 53.3933C218.293 53.1216 217.863 52.9857 217.339 52.9857C216.815 52.9857 216.384 53.1216 216.046 53.3933C215.708 53.6651 215.458 54.0214 215.296 54.4622C215.133 54.903 215.052 55.3787 215.052 55.8891C215.052 56.3995 215.133 56.8734 215.296 57.3109C215.458 57.7484 215.708 58.1014 216.046 58.3699C216.384 58.6384 216.815 58.7726 217.339 58.7726Z" fill="#545454"/>
<path d="M222.59 59.6675V52.0311H223.724V53.1845H223.803C223.942 52.8067 224.194 52.5001 224.559 52.2648C224.923 52.0295 225.334 51.9118 225.792 51.9118C225.878 51.9118 225.986 51.9135 226.115 51.9168C226.244 51.9201 226.342 51.9251 226.408 51.9317V53.1249C226.369 53.1149 226.277 53.1 226.135 53.0801C225.996 53.0569 225.848 53.0453 225.692 53.0453C225.321 53.0453 224.99 53.1232 224.698 53.279C224.41 53.4314 224.181 53.6436 224.012 53.9153C223.846 54.1838 223.763 54.4904 223.763 54.8351V59.6675H222.59Z" fill="#545454"/>
<path d="M233.208 53.7413L232.154 54.0396C232.088 53.864 231.99 53.6933 231.861 53.5276C231.735 53.3585 231.563 53.2193 231.344 53.11C231.125 53.0006 230.845 52.9459 230.504 52.9459C230.036 52.9459 229.647 53.0536 229.335 53.269C229.027 53.4812 228.873 53.7513 228.873 54.0794C228.873 54.3711 228.979 54.6014 229.191 54.7705C229.403 54.9395 229.735 55.0804 230.185 55.193L231.319 55.4715C232.002 55.6372 232.511 55.8907 232.845 56.2321C233.18 56.5702 233.347 57.006 233.347 57.5396C233.347 57.9771 233.221 58.3682 232.97 58.7129C232.721 59.0576 232.373 59.3294 231.926 59.5283C231.478 59.7271 230.958 59.8266 230.364 59.8266C229.586 59.8266 228.941 59.6575 228.43 59.3195C227.92 58.9814 227.597 58.4876 227.461 57.8379L228.575 57.5595C228.681 57.9705 228.881 58.2787 229.176 58.4842C229.475 58.6897 229.864 58.7925 230.345 58.7925C230.891 58.7925 231.326 58.6765 231.647 58.4445C231.972 58.2091 232.134 57.9274 232.134 57.5993C232.134 57.3341 232.042 57.1121 231.856 56.9331C231.67 56.7508 231.385 56.6149 231.001 56.5254L229.728 56.2271C229.029 56.0614 228.515 55.8046 228.187 55.4565C227.862 55.1052 227.7 54.6661 227.7 54.1391C227.7 53.7082 227.821 53.327 228.063 52.9956C228.308 52.6642 228.641 52.404 229.062 52.2151C229.486 52.0261 229.967 51.9317 230.504 51.9317C231.259 51.9317 231.853 52.0974 232.283 52.4288C232.718 52.7603 233.026 53.1978 233.208 53.7413Z" fill="#545454"/>
<path d="M51.1846 73.0311V74.0254H47.2272V73.0311H51.1846ZM48.3806 71.2016H49.5539V78.48C49.5539 78.8114 49.6019 79.06 49.6981 79.2257C49.7975 79.3881 49.9234 79.4975 50.0759 79.5538C50.2317 79.6069 50.3957 79.6334 50.5681 79.6334C50.6974 79.6334 50.8034 79.6268 50.8863 79.6135C50.9691 79.5969 51.0354 79.5837 51.0851 79.5737L51.3238 80.6277C51.2442 80.6575 51.1332 80.6874 50.9907 80.7172C50.8482 80.7503 50.6675 80.7669 50.4488 80.7669C50.1173 80.7669 49.7925 80.6957 49.4743 80.5531C49.1595 80.4106 48.8976 80.1935 48.6888 79.9019C48.4833 79.6102 48.3806 79.2423 48.3806 78.7982V71.2016Z" fill="#545454"/>
<path d="M55.9697 80.8266C55.2803 80.8266 54.6755 80.6625 54.1551 80.3344C53.6381 80.0063 53.2337 79.5472 52.942 78.9573C52.6537 78.3673 52.5095 77.6779 52.5095 76.8891C52.5095 76.0936 52.6537 75.3993 52.942 74.806C53.2337 74.2127 53.6381 73.752 54.1551 73.4239C54.6755 73.0957 55.2803 72.9317 55.9697 72.9317C56.6591 72.9317 57.2623 73.0957 57.7794 73.4239C58.2997 73.752 58.7041 74.2127 58.9925 74.806C59.2841 75.3993 59.43 76.0936 59.43 76.8891C59.43 77.6779 59.2841 78.3673 58.9925 78.9573C58.7041 79.5472 58.2997 80.0063 57.7794 80.3344C57.2623 80.6625 56.6591 80.8266 55.9697 80.8266ZM55.9697 79.7726C56.4934 79.7726 56.9243 79.6384 57.2623 79.3699C57.6004 79.1014 57.8506 78.7484 58.0131 78.3109C58.1755 77.8734 58.2567 77.3995 58.2567 76.8891C58.2567 76.3787 58.1755 75.903 58.0131 75.4622C57.8506 75.0214 57.6004 74.6651 57.2623 74.3933C56.9243 74.1216 56.4934 73.9857 55.9697 73.9857C55.4461 73.9857 55.0152 74.1216 54.6771 74.3933C54.339 74.6651 54.0888 75.0214 53.9264 75.4622C53.764 75.903 53.6828 76.3787 53.6828 76.8891C53.6828 77.3995 53.764 77.8734 53.9264 78.3109C54.0888 78.7484 54.339 79.1014 54.6771 79.3699C55.0152 79.6384 55.4461 79.7726 55.9697 79.7726Z" fill="#545454"/>
<path d="M65.1585 73.0311H66.3318V81.2243C66.3318 81.6949 66.2506 82.1026 66.0882 82.4473C65.9291 82.792 65.6871 83.0588 65.3623 83.2477C65.0408 83.4367 64.6348 83.5311 64.1443 83.5311C64.1045 83.5311 64.0647 83.5311 64.0249 83.5311C63.9852 83.5311 63.9454 83.5311 63.9056 83.5311V82.4374C63.9454 82.4374 63.9819 82.4374 64.015 82.4374C64.0481 82.4374 64.0846 82.4374 64.1244 82.4374C64.4823 82.4374 64.7442 82.3313 64.9099 82.1192C65.0756 81.9104 65.1585 81.6121 65.1585 81.2243V73.0311ZM65.7352 71.7584C65.5065 71.7584 65.3093 71.6805 65.1436 71.5247C64.9811 71.3689 64.8999 71.1817 64.8999 70.9629C64.8999 70.7442 64.9811 70.5569 65.1436 70.4011C65.3093 70.2454 65.5065 70.1675 65.7352 70.1675C65.9639 70.1675 66.1594 70.2454 66.3218 70.4011C66.4875 70.5569 66.5704 70.7442 66.5704 70.9629C66.5704 71.1817 66.4875 71.3689 66.3218 71.5247C66.1594 71.6805 65.9639 71.7584 65.7352 71.7584Z" fill="#545454"/>
<path d="M71.583 80.8266C70.8936 80.8266 70.2887 80.6625 69.7684 80.3344C69.2513 80.0063 68.847 79.5472 68.5553 78.9573C68.267 78.3673 68.1228 77.6779 68.1228 76.8891C68.1228 76.0936 68.267 75.3993 68.5553 74.806C68.847 74.2127 69.2513 73.752 69.7684 73.4239C70.2887 73.0957 70.8936 72.9317 71.583 72.9317C72.2724 72.9317 72.8756 73.0957 73.3927 73.4239C73.913 73.752 74.3174 74.2127 74.6057 74.806C74.8974 75.3993 75.0432 76.0936 75.0432 76.8891C75.0432 77.6779 74.8974 78.3673 74.6057 78.9573C74.3174 79.5472 73.913 80.0063 73.3927 80.3344C72.8756 80.6625 72.2724 80.8266 71.583 80.8266ZM71.583 79.7726C72.1067 79.7726 72.5375 79.6384 72.8756 79.3699C73.2137 79.1014 73.4639 78.7484 73.6263 78.3109C73.7887 77.8734 73.8699 77.3995 73.8699 76.8891C73.8699 76.3787 73.7887 75.903 73.6263 75.4622C73.4639 75.0214 73.2137 74.6651 72.8756 74.3933C72.5375 74.1216 72.1067 73.9857 71.583 73.9857C71.0593 73.9857 70.6285 74.1216 70.2904 74.3933C69.9523 74.6651 69.7021 75.0214 69.5397 75.4622C69.3773 75.903 69.2961 76.3787 69.2961 76.8891C69.2961 77.3995 69.3773 77.8734 69.5397 78.3109C69.7021 78.7484 69.9523 79.1014 70.2904 79.3699C70.6285 79.6384 71.0593 79.7726 71.583 79.7726Z" fill="#545454"/>
<path d="M76.8342 80.6675V73.0311H78.0075V80.6675H76.8342ZM77.4308 71.7584C77.2021 71.7584 77.0049 71.6805 76.8392 71.5247C76.6768 71.3689 76.5956 71.1817 76.5956 70.9629C76.5956 70.7442 76.6768 70.5569 76.8392 70.4011C77.0049 70.2454 77.2021 70.1675 77.4308 70.1675C77.6595 70.1675 77.8551 70.2454 78.0175 70.4011C78.1832 70.5569 78.2661 70.7442 78.2661 70.9629C78.2661 71.1817 78.1832 71.3689 78.0175 71.5247C77.8551 71.6805 77.6595 71.7584 77.4308 71.7584Z" fill="#545454"/>
<path d="M81.3298 76.0737V80.6675H80.1565V73.0311H81.29V74.2243H81.3895C81.5684 73.8365 81.8402 73.525 82.2048 73.2896C82.5694 73.051 83.04 72.9317 83.6167 72.9317C84.1338 72.9317 84.5862 73.0377 84.974 73.2499C85.3618 73.4587 85.6634 73.7769 85.8788 74.2044C86.0943 74.6287 86.202 75.1656 86.202 75.8152V80.6675H85.0287V75.8948C85.0287 75.2948 84.8729 74.8275 84.5613 74.4928C84.2498 74.1547 83.8222 73.9857 83.2787 73.9857C82.9041 73.9857 82.5694 74.0669 82.2744 74.2293C81.9827 74.3917 81.7524 74.6287 81.5834 74.9402C81.4143 75.2518 81.3298 75.6296 81.3298 76.0737Z" fill="#545454"/>
<path d="M92.8602 80.6675H91.5676L95.3062 70.4857H96.5789L100.318 80.6675H99.0249L95.9823 72.0965H95.9028L92.8602 80.6675ZM93.3374 76.6902H98.5477V77.784H93.3374V76.6902Z" fill="#545454"/>
<path d="M104.587 73.0311V74.0254H100.63V73.0311H104.587ZM101.783 71.2016H102.956V78.48C102.956 78.8114 103.004 79.06 103.1 79.2257C103.2 79.3881 103.326 79.4975 103.478 79.5538C103.634 79.6069 103.798 79.6334 103.97 79.6334C104.1 79.6334 104.206 79.6268 104.289 79.6135C104.371 79.5969 104.438 79.5837 104.487 79.5737L104.726 80.6277C104.647 80.6575 104.536 80.6874 104.393 80.7172C104.251 80.7503 104.07 80.7669 103.851 80.7669C103.52 80.7669 103.195 80.6957 102.877 80.5531C102.562 80.4106 102.3 80.1935 102.091 79.9019C101.886 79.6102 101.783 79.2423 101.783 78.7982V71.2016Z" fill="#545454"/>
<path d="M109.372 80.8266C108.683 80.8266 108.078 80.6625 107.557 80.3344C107.04 80.0063 106.636 79.5472 106.344 78.9573C106.056 78.3673 105.912 77.6779 105.912 76.8891C105.912 76.0936 106.056 75.3993 106.344 74.806C106.636 74.2127 107.04 73.752 107.557 73.4239C108.078 73.0957 108.683 72.9317 109.372 72.9317C110.061 72.9317 110.665 73.0957 111.182 73.4239C111.702 73.752 112.106 74.2127 112.395 74.806C112.686 75.3993 112.832 76.0936 112.832 76.8891C112.832 77.6779 112.686 78.3673 112.395 78.9573C112.106 79.5472 111.702 80.0063 111.182 80.3344C110.665 80.6625 110.061 80.8266 109.372 80.8266ZM109.372 79.7726C109.896 79.7726 110.327 79.6384 110.665 79.3699C111.003 79.1014 111.253 78.7484 111.415 78.3109C111.578 77.8734 111.659 77.3995 111.659 76.8891C111.659 76.3787 111.578 75.903 111.415 75.4622C111.253 75.0214 111.003 74.6651 110.665 74.3933C110.327 74.1216 109.896 73.9857 109.372 73.9857C108.848 73.9857 108.418 74.1216 108.079 74.3933C107.741 74.6651 107.491 75.0214 107.329 75.4622C107.166 75.903 107.085 76.3787 107.085 76.8891C107.085 77.3995 107.166 77.8734 107.329 78.3109C107.491 78.7484 107.741 79.1014 108.079 79.3699C108.418 79.6384 108.848 79.7726 109.372 79.7726Z" fill="#545454"/>
<path d="M114.623 80.6675V73.0311H115.757V74.2243H115.856C116.015 73.8166 116.272 73.5001 116.627 73.2747C116.982 73.046 117.407 72.9317 117.905 72.9317C118.408 72.9317 118.828 73.046 119.162 73.2747C119.5 73.5001 119.764 73.8166 119.953 74.2243H120.032C120.228 73.8299 120.521 73.5167 120.912 73.2847C121.303 73.0493 121.772 72.9317 122.319 72.9317C123.002 72.9317 123.561 73.1455 123.995 73.573C124.429 73.9973 124.646 74.6585 124.646 75.5567V80.6675H123.473V75.5567C123.473 74.9932 123.319 74.5905 123.01 74.3486C122.702 74.1066 122.339 73.9857 121.922 73.9857C121.385 73.9857 120.969 74.1481 120.674 74.4729C120.379 74.7944 120.231 75.202 120.231 75.6959V80.6675H119.038V75.4374C119.038 75.0032 118.897 74.6535 118.615 74.3884C118.334 74.1199 117.971 73.9857 117.527 73.9857C117.222 73.9857 116.937 74.0669 116.672 74.2293C116.41 74.3917 116.198 74.6171 116.035 74.9054C115.876 75.1904 115.797 75.5202 115.797 75.8948V80.6675H114.623Z" fill="#545454"/>
<path d="M138.962 70.4857V80.6675H137.769L132.22 72.6732H132.121V80.6675H130.888V70.4857H132.081L137.649 78.4999H137.749V70.4857H138.962Z" fill="#545454"/>
<path d="M146.082 77.5453V73.0311H147.256V80.6675H146.082V79.3749H146.003C145.824 79.7627 145.545 80.0924 145.168 80.3642C144.79 80.6327 144.312 80.7669 143.736 80.7669C143.258 80.7669 142.834 80.6625 142.463 80.4537C142.092 80.2416 141.8 79.9234 141.588 79.4992C141.376 79.0716 141.27 78.533 141.27 77.8834V73.0311H142.443V77.8038C142.443 78.3607 142.599 78.8048 142.91 79.1362C143.225 79.4677 143.626 79.6334 144.114 79.6334C144.405 79.6334 144.702 79.5588 145.003 79.4097C145.308 79.2605 145.564 79.0318 145.769 78.7236C145.978 78.4153 146.082 78.0226 146.082 77.5453Z" fill="#545454"/>
<path d="M152.507 80.8266C151.791 80.8266 151.174 80.6575 150.657 80.3195C150.14 79.9814 149.743 79.5157 149.464 78.9225C149.186 78.3292 149.047 77.6514 149.047 76.8891C149.047 76.1135 149.189 75.4291 149.474 74.8358C149.763 74.2392 150.164 73.7735 150.677 73.4388C151.194 73.1007 151.798 72.9317 152.487 72.9317C153.024 72.9317 153.508 73.0311 153.939 73.23C154.37 73.4288 154.723 73.7073 154.998 74.0652C155.273 74.4232 155.443 74.8408 155.51 75.318H154.336C154.247 74.97 154.048 74.6618 153.74 74.3933C153.435 74.1216 153.024 73.9857 152.507 73.9857C152.049 73.9857 151.648 74.105 151.304 74.3436C150.962 74.5789 150.696 74.912 150.503 75.3429C150.314 75.7705 150.22 76.2726 150.22 76.8493C150.22 77.4393 150.313 77.953 150.498 78.3905C150.687 78.828 150.952 79.1677 151.294 79.4097C151.638 79.6516 152.043 79.7726 152.507 79.7726C152.812 79.7726 153.089 79.7196 153.337 79.6135C153.586 79.5074 153.796 79.355 153.968 79.1561C154.141 78.9573 154.263 78.7186 154.336 78.4402H155.51C155.443 78.891 155.279 79.297 155.017 79.6582C154.759 80.0162 154.416 80.3012 153.988 80.5134C153.564 80.7222 153.07 80.8266 152.507 80.8266Z" fill="#545454"/>
<path d="M157.225 70.4857H158.398V78.6788C158.398 79.0501 158.44 79.3102 158.522 79.4594C158.605 79.6085 158.776 79.6798 159.035 79.6732C159.174 79.6665 159.276 79.6566 159.343 79.6433C159.412 79.6268 159.475 79.6102 159.532 79.5936L159.77 80.6078C159.668 80.6377 159.538 80.6642 159.383 80.6874C159.227 80.7139 159.064 80.7271 158.895 80.7271C158.339 80.7271 157.921 80.5747 157.642 80.2698C157.364 79.9648 157.225 79.5406 157.225 78.997V70.4857Z" fill="#545454"/>
<path d="M164.05 80.8266C163.314 80.8266 162.679 80.6642 162.146 80.3394C161.615 80.0112 161.206 79.5538 160.918 78.9672C160.632 78.3772 160.49 77.6912 160.49 76.909C160.49 76.1268 160.632 75.4374 160.918 74.8408C161.206 74.2409 161.607 73.7735 162.121 73.4388C162.638 73.1007 163.241 72.9317 163.93 72.9317C164.328 72.9317 164.721 72.998 165.109 73.1305C165.496 73.2631 165.849 73.4786 166.168 73.7769C166.486 74.0718 166.739 74.4629 166.928 74.9502C167.117 75.4374 167.212 76.0373 167.212 76.7499V77.247H161.325V76.2328H166.018C166.018 75.802 165.932 75.4175 165.76 75.0794C165.591 74.7413 165.349 74.4745 165.034 74.279C164.722 74.0834 164.355 73.9857 163.93 73.9857C163.463 73.9857 163.059 74.1017 162.717 74.3337C162.379 74.5624 162.119 74.8607 161.937 75.2286C161.754 75.5965 161.663 75.9909 161.663 76.4118V77.0879C161.663 77.6646 161.763 78.1535 161.962 78.5546C162.164 78.9523 162.444 79.2555 162.802 79.4644C163.16 79.6698 163.576 79.7726 164.05 79.7726C164.358 79.7726 164.636 79.7295 164.885 79.6433C165.137 79.5538 165.354 79.4213 165.536 79.2456C165.718 79.0666 165.859 78.8446 165.959 78.5794L167.092 78.8976C166.973 79.2821 166.772 79.6201 166.491 79.9118C166.209 80.2002 165.861 80.4255 165.447 80.5879C165.032 80.747 164.567 80.8266 164.05 80.8266Z" fill="#545454"/>
<path d="M173.809 77.5453V73.0311H174.982V80.6675H173.809V79.3749H173.729C173.55 79.7627 173.272 80.0924 172.894 80.3642C172.516 80.6327 172.039 80.7669 171.462 80.7669C170.985 80.7669 170.561 80.6625 170.19 80.4537C169.818 80.2416 169.527 79.9234 169.315 79.4992C169.102 79.0716 168.996 78.533 168.996 77.8834V73.0311H170.17V77.8038C170.17 78.3607 170.325 78.8048 170.637 79.1362C170.952 79.4677 171.353 79.6334 171.84 79.6334C172.132 79.6334 172.428 79.5588 172.73 79.4097C173.035 79.2605 173.29 79.0318 173.496 78.7236C173.704 78.4153 173.809 78.0226 173.809 77.5453Z" fill="#545454"/>
<path d="M182.54 74.7413L181.486 75.0396C181.42 74.864 181.322 74.6933 181.193 74.5276C181.067 74.3585 180.895 74.2193 180.676 74.11C180.457 74.0006 180.177 73.9459 179.836 73.9459C179.368 73.9459 178.979 74.0536 178.667 74.269C178.359 74.4812 178.205 74.7513 178.205 75.0794C178.205 75.3711 178.311 75.6014 178.523 75.7705C178.735 75.9395 179.067 76.0804 179.517 76.1931L180.651 76.4715C181.334 76.6372 181.843 76.8907 182.177 77.2321C182.512 77.5702 182.679 78.006 182.679 78.5396C182.679 78.9771 182.553 79.3682 182.302 79.7129C182.053 80.0576 181.705 80.3294 181.258 80.5283C180.81 80.7271 180.29 80.8266 179.696 80.8266C178.918 80.8266 178.273 80.6575 177.763 80.3195C177.252 79.9814 176.929 79.4876 176.793 78.8379L177.907 78.5595C178.013 78.9705 178.213 79.2787 178.508 79.4842C178.807 79.6897 179.196 79.7925 179.677 79.7925C180.223 79.7925 180.658 79.6765 180.979 79.4445C181.304 79.2091 181.466 78.9274 181.466 78.5993C181.466 78.3341 181.374 78.1121 181.188 77.9331C181.002 77.7508 180.717 77.6149 180.333 77.5254L179.06 77.2271C178.361 77.0614 177.847 76.8046 177.519 76.4565C177.194 76.1052 177.032 75.6661 177.032 75.1391C177.032 74.7082 177.153 74.327 177.395 73.9956C177.64 73.6642 177.973 73.404 178.394 73.2151C178.818 73.0261 179.299 72.9317 179.836 72.9317C180.591 72.9317 181.185 73.0974 181.616 73.4288C182.05 73.7603 182.358 74.1978 182.54 74.7413Z" fill="#545454"/>
<path d="M185.301 80.747C185.055 80.747 184.845 80.6592 184.669 80.4835C184.494 80.3079 184.406 80.0974 184.406 79.8521C184.406 79.6069 184.494 79.3964 184.669 79.2207C184.845 79.0451 185.055 78.9573 185.301 78.9573C185.546 78.9573 185.756 79.0451 185.932 79.2207C186.108 79.3964 186.196 79.6069 186.196 79.8521C186.196 80.0145 186.154 80.1637 186.071 80.2996C185.992 80.4355 185.884 80.5448 185.748 80.6277C185.616 80.7073 185.466 80.747 185.301 80.747Z" fill="#545454"/>
<path d="M4.92472 12.6676L1.64062 1.03125H3.90767L6.00426 9.58239H6.11222L8.35085 1.03125H10.4134L12.6577 9.58807H12.7599L14.8565 1.03125H17.1236L13.8395 12.6676H11.7599L9.4304 4.50284H9.33949L7.00426 12.6676H4.92472Z" fill="#545454"/>
<path d="M20.1151 12.8438C19.562 12.8438 19.0639 12.7453 18.6207 12.5483C18.1813 12.3475 17.8329 12.0521 17.5753 11.6619C17.3215 11.2718 17.1946 10.7907 17.1946 10.2188C17.1946 9.72633 17.2855 9.31913 17.4673 8.99716C17.6491 8.67519 17.8973 8.41761 18.2116 8.22443C18.526 8.03125 18.8802 7.88542 19.2741 7.78693C19.6719 7.68466 20.0829 7.6108 20.5071 7.56534C21.0185 7.51231 21.4332 7.46496 21.7514 7.4233C22.0696 7.37784 22.3007 7.30966 22.4446 7.21875C22.5923 7.12405 22.6662 6.97822 22.6662 6.78125V6.74716C22.6662 6.31913 22.5393 5.98769 22.2855 5.75284C22.0317 5.51799 21.6662 5.40057 21.1889 5.40057C20.6851 5.40057 20.2855 5.51042 19.9901 5.73011C19.6984 5.94981 19.5014 6.20928 19.3991 6.50852L17.4787 6.2358C17.6302 5.70549 17.8802 5.26231 18.2287 4.90625C18.5772 4.5464 19.0033 4.27746 19.5071 4.09943C20.0109 3.91761 20.5677 3.8267 21.1776 3.8267C21.598 3.8267 22.0166 3.87595 22.4332 3.97443C22.8499 4.07292 23.2306 4.2358 23.5753 4.46307C23.92 4.68655 24.1965 4.99148 24.4048 5.37784C24.617 5.7642 24.723 6.24716 24.723 6.8267V12.6676H22.7457V11.4688H22.6776C22.5526 11.7112 22.3764 11.9384 22.1491 12.1506C21.9257 12.3589 21.6435 12.5275 21.3026 12.6562C20.9654 12.7812 20.5696 12.8438 20.1151 12.8438ZM20.6491 11.3324C21.062 11.3324 21.42 11.2509 21.723 11.0881C22.026 10.9214 22.259 10.7017 22.4219 10.429C22.5885 10.1563 22.6719 9.8589 22.6719 9.53693V8.50852C22.6075 8.56155 22.4976 8.6108 22.3423 8.65625C22.1908 8.7017 22.0204 8.74148 21.831 8.77557C21.6416 8.80966 21.4541 8.83996 21.2685 8.86648C21.0829 8.89299 20.9219 8.91572 20.7855 8.93466C20.4787 8.97633 20.2041 9.04451 19.9616 9.1392C19.7192 9.2339 19.5279 9.36648 19.3878 9.53693C19.2476 9.7036 19.1776 9.91951 19.1776 10.1847C19.1776 10.5634 19.3158 10.8494 19.5923 11.0426C19.8688 11.2358 20.2211 11.3324 20.6491 11.3324Z" fill="#545454"/>
<path d="M26.7912 12.6676V3.94034H28.848V12.6676H26.7912ZM27.8253 2.7017C27.4995 2.7017 27.2192 2.59375 26.9844 2.37784C26.7495 2.15814 26.6321 1.89489 26.6321 1.58807C26.6321 1.27746 26.7495 1.0142 26.9844 0.798295C27.2192 0.578598 27.4995 0.46875 27.8253 0.46875C28.1548 0.46875 28.4351 0.578598 28.6662 0.798295C28.901 1.0142 29.0185 1.27746 29.0185 1.58807C29.0185 1.89489 28.901 2.15814 28.6662 2.37784C28.4351 2.59375 28.1548 2.7017 27.8253 2.7017Z" fill="#545454"/>
<path d="M35.321 3.94034V5.53125H30.304V3.94034H35.321ZM31.5426 1.84943H33.5994V10.0426C33.5994 10.3191 33.6411 10.5313 33.7244 10.679C33.8116 10.8229 33.9252 10.9214 34.0653 10.9744C34.2055 11.0275 34.3608 11.054 34.5312 11.054C34.66 11.054 34.7775 11.0445 34.8835 11.0256C34.9934 11.0066 35.0767 10.9896 35.1335 10.9744L35.4801 12.5824C35.3703 12.6203 35.2131 12.6619 35.0085 12.7074C34.8078 12.7528 34.5616 12.7794 34.2699 12.7869C33.7547 12.8021 33.2907 12.7244 32.8778 12.554C32.465 12.3797 32.1373 12.1108 31.8949 11.7472C31.6562 11.3835 31.5388 10.929 31.5426 10.3835V1.84943Z" fill="#545454"/>
<path d="M46.5724 8.99716V3.94034H48.6293V12.6676H46.6349V11.1165H46.544C46.3471 11.6051 46.0232 12.0047 45.5724 12.3153C45.1255 12.6259 44.5743 12.7812 43.919 12.7812C43.3471 12.7812 42.8414 12.6544 42.402 12.4006C41.9664 12.143 41.6255 11.7699 41.3793 11.2812C41.1331 10.7888 41.0099 10.1941 41.0099 9.49716V3.94034H43.0668V9.17898C43.0668 9.73201 43.2183 10.1714 43.5213 10.4972C43.8243 10.8229 44.2221 10.9858 44.7145 10.9858C45.0175 10.9858 45.3111 10.9119 45.5952 10.7642C45.8793 10.6165 46.1122 10.3968 46.294 10.1051C46.4796 9.80966 46.5724 9.44034 46.5724 8.99716Z" fill="#545454"/>
<path d="M52.8011 7.55398V12.6676H50.7443V3.94034H52.7102V5.4233H52.8125C53.0133 4.93466 53.3333 4.5464 53.7727 4.25852C54.2159 3.97064 54.7633 3.8267 55.4148 3.8267C56.017 3.8267 56.5417 3.95549 56.9886 4.21307C57.4394 4.47064 57.7879 4.84375 58.0341 5.33239C58.2841 5.82102 58.4072 6.41383 58.4034 7.1108V12.6676H56.3466V7.42898C56.3466 6.84564 56.1951 6.3892 55.892 6.05966C55.5928 5.73011 55.178 5.56534 54.6477 5.56534C54.2879 5.56534 53.9678 5.64489 53.6875 5.80398C53.411 5.95928 53.1932 6.18466 53.0341 6.48011C52.8788 6.77557 52.8011 7.13352 52.8011 7.55398Z" fill="#545454"/>
<path d="M64.8523 3.94034V5.53125H59.8352V3.94034H64.8523ZM61.0739 1.84943H63.1307V10.0426C63.1307 10.3191 63.1724 10.5313 63.2557 10.679C63.3428 10.8229 63.4564 10.9214 63.5966 10.9744C63.7367 11.0275 63.892 11.054 64.0625 11.054C64.1913 11.054 64.3087 11.0445 64.4148 11.0256C64.5246 11.0066 64.608 10.9896 64.6648 10.9744L65.0114 12.5824C64.9015 12.6203 64.7443 12.6619 64.5398 12.7074C64.339 12.7528 64.0928 12.7794 63.8011 12.7869C63.286 12.8021 62.822 12.7244 62.4091 12.554C61.9962 12.3797 61.6686 12.1108 61.4261 11.7472C61.1875 11.3835 61.0701 10.929 61.0739 10.3835V1.84943Z" fill="#545454"/>
<path d="M66.5724 12.6676V3.94034H68.6293V12.6676H66.5724ZM67.6065 2.7017C67.2808 2.7017 67.0005 2.59375 66.7656 2.37784C66.5308 2.15814 66.4134 1.89489 66.4134 1.58807C66.4134 1.27746 66.5308 1.0142 66.7656 0.798295C67.0005 0.578598 67.2808 0.46875 67.6065 0.46875C67.9361 0.46875 68.2164 0.578598 68.4474 0.798295C68.6823 1.0142 68.7997 1.27746 68.7997 1.58807C68.7997 1.89489 68.6823 2.15814 68.4474 2.37784C68.2164 2.59375 67.9361 2.7017 67.6065 2.7017Z" fill="#545454"/>
<path d="M70.7443 1.03125H72.8011V10.1676C72.8011 10.4934 72.8504 10.7263 72.9489 10.8665C73.0473 11.0066 73.2216 11.0729 73.4716 11.0653C73.608 11.0616 73.7102 11.054 73.7784 11.0426C73.8504 11.0275 73.9148 11.0123 73.9716 10.9972L74.3125 12.554C74.1913 12.5919 74.0398 12.6278 73.858 12.6619C73.6799 12.696 73.4602 12.7169 73.1989 12.7244C72.3655 12.7472 71.7481 12.5729 71.3466 12.2017C70.9451 11.8305 70.7443 11.2642 70.7443 10.5028V1.03125Z" fill="#545454"/>
<path d="M79.3068 15.9403V3.94034H81.3295V5.38352H81.4489C81.5549 5.1714 81.7045 4.94602 81.8977 4.70739C82.0909 4.46496 82.3523 4.25852 82.6818 4.08807C83.0114 3.91383 83.4318 3.8267 83.9432 3.8267C84.6174 3.8267 85.2254 3.99905 85.767 4.34375C86.3125 4.68466 86.7443 5.19034 87.0625 5.8608C87.3845 6.52746 87.5455 7.34564 87.5455 8.31534C87.5455 9.27367 87.3883 10.0881 87.0739 10.7585C86.7595 11.429 86.3314 11.9403 85.7898 12.2926C85.2481 12.6449 84.6345 12.821 83.9489 12.821C83.4489 12.821 83.0341 12.7377 82.7045 12.571C82.375 12.4044 82.1098 12.2036 81.9091 11.9688C81.7121 11.7301 81.5587 11.5047 81.4489 11.2926H81.3636V15.9403H79.3068ZM81.3239 8.30398C81.3239 8.86837 81.4034 9.36269 81.5625 9.78693C81.7254 10.2112 81.9583 10.5426 82.2614 10.7812C82.5682 11.0161 82.9394 11.1335 83.375 11.1335C83.8295 11.1335 84.2102 11.0123 84.517 10.7699C84.8239 10.5237 85.0549 10.1884 85.2102 9.7642C85.3693 9.33617 85.4489 8.84943 85.4489 8.30398C85.4489 7.76231 85.3712 7.28125 85.2159 6.8608C85.0606 6.44034 84.8295 6.1108 84.5227 5.87216C84.2159 5.63352 83.8333 5.5142 83.375 5.5142C82.9356 5.5142 82.5625 5.62974 82.2557 5.8608C81.9489 6.09186 81.7159 6.41572 81.5568 6.83239C81.4015 7.24905 81.3239 7.73958 81.3239 8.30398Z" fill="#545454"/>
<path d="M91.8182 12.8438C91.2652 12.8438 90.767 12.7453 90.3239 12.5483C89.8845 12.3475 89.536 12.0521 89.2784 11.6619C89.0246 11.2718 88.8977 10.7907 88.8977 10.2188C88.8977 9.72633 88.9886 9.31913 89.1705 8.99716C89.3523 8.67519 89.6004 8.41761 89.9148 8.22443C90.2292 8.03125 90.5833 7.88542 90.9773 7.78693C91.375 7.68466 91.786 7.6108 92.2102 7.56534C92.7216 7.51231 93.1364 7.46496 93.4545 7.4233C93.7727 7.37784 94.0038 7.30966 94.1477 7.21875C94.2955 7.12405 94.3693 6.97822 94.3693 6.78125V6.74716C94.3693 6.31913 94.2424 5.98769 93.9886 5.75284C93.7349 5.51799 93.3693 5.40057 92.892 5.40057C92.3883 5.40057 91.9886 5.51042 91.6932 5.73011C91.4015 5.94981 91.2045 6.20928 91.1023 6.50852L89.1818 6.2358C89.3333 5.70549 89.5833 5.26231 89.9318 4.90625C90.2803 4.5464 90.7064 4.27746 91.2102 4.09943C91.714 3.91761 92.2708 3.8267 92.8807 3.8267C93.3011 3.8267 93.7197 3.87595 94.1364 3.97443C94.553 4.07292 94.9337 4.2358 95.2784 4.46307C95.6231 4.68655 95.8996 4.99148 96.108 5.37784C96.3201 5.7642 96.4261 6.24716 96.4261 6.8267V12.6676H94.4489V11.4688H94.3807C94.2557 11.7112 94.0795 11.9384 93.8523 12.1506C93.6288 12.3589 93.3466 12.5275 93.0057 12.6562C92.6686 12.7812 92.2727 12.8438 91.8182 12.8438ZM92.3523 11.3324C92.7652 11.3324 93.1231 11.2509 93.4261 11.0881C93.7292 10.9214 93.9621 10.7017 94.125 10.429C94.2917 10.1563 94.375 9.8589 94.375 9.53693V8.50852C94.3106 8.56155 94.2008 8.6108 94.0455 8.65625C93.8939 8.7017 93.7235 8.74148 93.5341 8.77557C93.3447 8.80966 93.1572 8.83996 92.9716 8.86648C92.786 8.89299 92.625 8.91572 92.4886 8.93466C92.1818 8.97633 91.9072 9.04451 91.6648 9.1392C91.4223 9.2339 91.2311 9.36648 91.0909 9.53693C90.9508 9.7036 90.8807 9.91951 90.8807 10.1847C90.8807 10.5634 91.0189 10.8494 91.2955 11.0426C91.572 11.2358 91.9242 11.3324 92.3523 11.3324Z" fill="#545454"/>
<path d="M98.4943 12.6676V3.94034H100.489V5.39489H100.58C100.739 4.8911 101.011 4.50284 101.398 4.23011C101.788 3.9536 102.233 3.81534 102.733 3.81534C102.847 3.81534 102.973 3.82102 103.114 3.83239C103.258 3.83996 103.377 3.85322 103.472 3.87216V5.7642C103.384 5.7339 103.246 5.70739 103.057 5.68466C102.871 5.65814 102.691 5.64489 102.517 5.64489C102.142 5.64489 101.805 5.72633 101.506 5.8892C101.21 6.0483 100.977 6.26989 100.807 6.55398C100.636 6.83807 100.551 7.16572 100.551 7.53693V12.6676H98.4943Z" fill="#545454"/>
<path d="M108.342 12.8381C107.467 12.8381 106.712 12.6563 106.075 12.2926C105.443 11.9252 104.956 11.4063 104.615 10.7358C104.274 10.0616 104.104 9.26799 104.104 8.35511C104.104 7.45739 104.274 6.66951 104.615 5.99148C104.96 5.30966 105.441 4.77936 106.058 4.40057C106.676 4.01799 107.401 3.8267 108.234 3.8267C108.772 3.8267 109.28 3.91383 109.757 4.08807C110.238 4.25852 110.662 4.52367 111.03 4.88352C111.401 5.24337 111.693 5.7017 111.905 6.25852C112.117 6.81155 112.223 7.47064 112.223 8.2358V8.86648H105.07V7.48011H110.251C110.248 7.08617 110.162 6.7358 109.996 6.42898C109.829 6.11837 109.596 5.87405 109.297 5.69602C109.001 5.51799 108.657 5.42898 108.263 5.42898C107.842 5.42898 107.473 5.53125 107.155 5.7358C106.837 5.93655 106.589 6.2017 106.411 6.53125C106.236 6.85701 106.147 7.21496 106.143 7.60511V8.81534C106.143 9.32292 106.236 9.75852 106.422 10.1222C106.607 10.482 106.867 10.7585 107.2 10.9517C107.534 11.1411 107.924 11.2358 108.371 11.2358C108.67 11.2358 108.941 11.1941 109.183 11.1108C109.426 11.0237 109.636 10.8968 109.814 10.7301C109.992 10.5634 110.126 10.357 110.217 10.1108L112.138 10.3267C112.017 10.8343 111.786 11.2775 111.445 11.6562C111.107 12.0312 110.676 12.3229 110.149 12.5312C109.623 12.7358 109.02 12.8381 108.342 12.8381Z" fill="#545454"/>
<path d="M116.02 7.55398V12.6676H113.963V3.94034H115.929V5.4233H116.031C116.232 4.93466 116.552 4.5464 116.991 4.25852C117.435 3.97064 117.982 3.8267 118.634 3.8267C119.236 3.8267 119.76 3.95549 120.207 4.21307C120.658 4.47064 121.007 4.84375 121.253 5.33239C121.503 5.82102 121.626 6.41383 121.622 7.1108V12.6676H119.565V7.42898C119.565 6.84564 119.414 6.3892 119.111 6.05966C118.812 5.73011 118.397 5.56534 117.866 5.56534C117.507 5.56534 117.187 5.64489 116.906 5.80398C116.63 5.95928 116.412 6.18466 116.253 6.48011C116.098 6.77557 116.02 7.13352 116.02 7.55398Z" fill="#545454"/>
<path d="M128.071 3.94034V5.53125H123.054V3.94034H128.071ZM124.293 1.84943H126.349V10.0426C126.349 10.3191 126.391 10.5313 126.474 10.679C126.562 10.8229 126.675 10.9214 126.815 10.9744C126.955 11.0275 127.111 11.054 127.281 11.054C127.41 11.054 127.527 11.0445 127.634 11.0256C127.743 11.0066 127.827 10.9896 127.884 10.9744L128.23 12.5824C128.12 12.6203 127.963 12.6619 127.759 12.7074C127.558 12.7528 127.312 12.7794 127.02 12.7869C126.505 12.8021 126.041 12.7244 125.628 12.554C125.215 12.3797 124.887 12.1108 124.645 11.7472C124.406 11.3835 124.289 10.929 124.293 10.3835V1.84943Z" fill="#545454"/>
<path d="M134.501 1.03125V12.6676H132.393V3.08239H132.325L129.604 4.82102V2.8892L132.496 1.03125H134.501Z" fill="#545454"/>
<path d="M144.791 15.929C143.598 15.929 142.537 15.7661 141.609 15.4403C140.685 15.1184 139.905 14.643 139.268 14.0142C138.632 13.3892 138.149 12.6259 137.82 11.7244C137.49 10.8229 137.323 9.79261 137.32 8.63352C137.323 7.50095 137.492 6.48011 137.825 5.57102C138.159 4.65814 138.645 3.87784 139.286 3.23011C139.926 2.5786 140.708 2.0786 141.632 1.73011C142.556 1.38163 143.607 1.20739 144.786 1.20739C145.895 1.20739 146.878 1.37595 147.734 1.71307C148.594 2.05019 149.32 2.51989 149.911 3.12216C150.505 3.72064 150.954 4.4214 151.257 5.22443C151.564 6.02367 151.717 6.8911 151.717 7.8267C151.717 8.47443 151.668 9.08807 151.57 9.66761C151.471 10.2434 151.303 10.7547 151.064 11.2017C150.829 11.6487 150.509 12.0047 150.104 12.2699C149.698 12.5312 149.191 12.6733 148.581 12.696C148.198 12.715 147.863 12.679 147.575 12.5881C147.287 12.4972 147.054 12.3551 146.876 12.1619C146.702 11.965 146.592 11.7244 146.547 11.4403H146.479C146.392 11.6676 146.227 11.8759 145.984 12.0653C145.746 12.2509 145.45 12.3968 145.098 12.5028C144.746 12.6051 144.354 12.6468 143.922 12.6278C143.46 12.6051 143.032 12.4991 142.638 12.3097C142.248 12.1165 141.907 11.8475 141.615 11.5028C141.327 11.1544 141.104 10.7339 140.945 10.2415C140.786 9.74905 140.706 9.19034 140.706 8.56534C140.706 7.95549 140.793 7.41761 140.967 6.9517C141.142 6.4858 141.375 6.08807 141.666 5.75852C141.962 5.42898 142.295 5.1714 142.666 4.9858C143.037 4.7964 143.42 4.67519 143.814 4.62216C144.223 4.56534 144.607 4.57102 144.967 4.6392C145.327 4.70739 145.626 4.81155 145.865 4.9517C146.107 5.09186 146.259 5.24527 146.32 5.41193H146.399V4.77557H147.984V10.1847C147.988 10.4688 148.056 10.6979 148.189 10.8722C148.325 11.0464 148.515 11.1335 148.757 11.1335C149.06 11.1335 149.304 11.0142 149.49 10.7756C149.679 10.5331 149.816 10.1619 149.899 9.66193C149.986 9.15814 150.028 8.5142 150.024 7.73011C150.028 7.08617 149.943 6.50284 149.768 5.98011C149.598 5.4536 149.356 4.99148 149.041 4.59375C148.727 4.19602 148.35 3.86458 147.911 3.59943C147.475 3.33049 146.99 3.12784 146.456 2.99148C145.922 2.85511 145.352 2.78693 144.746 2.78693C143.818 2.78693 143.001 2.92898 142.297 3.21307C141.592 3.49337 141.001 3.89299 140.524 4.41193C140.051 4.93087 139.693 5.5464 139.45 6.25852C139.212 6.96686 139.092 7.75095 139.092 8.6108C139.092 9.53125 139.217 10.3475 139.467 11.0597C139.721 11.768 140.092 12.3646 140.581 12.8494C141.07 13.3343 141.674 13.7017 142.393 13.9517C143.117 14.2017 143.948 14.3267 144.888 14.3267C145.32 14.3267 145.742 14.2926 146.155 14.2244C146.568 14.1563 146.939 14.0767 147.268 13.9858C147.598 13.8949 147.852 13.8153 148.03 13.7472L148.513 15.1903C148.278 15.3116 147.96 15.429 147.558 15.5426C147.161 15.6563 146.721 15.7491 146.24 15.821C145.763 15.893 145.28 15.929 144.791 15.929ZM144.393 10.9972C144.875 10.9972 145.259 10.9044 145.547 10.7188C145.835 10.5294 146.041 10.2491 146.166 9.87784C146.291 9.50663 146.352 9.04451 146.348 8.49148C146.348 7.97633 146.284 7.55398 146.155 7.22443C146.026 6.89489 145.82 6.65057 145.536 6.49148C145.251 6.33239 144.875 6.25284 144.405 6.25284C143.981 6.25284 143.619 6.34943 143.32 6.54261C143.024 6.7358 142.797 7.00284 142.638 7.34375C142.482 7.68087 142.405 8.06534 142.405 8.49716C142.405 8.92898 142.467 9.33617 142.592 9.71875C142.721 10.0975 142.929 10.4063 143.217 10.6449C143.509 10.8797 143.901 10.9972 144.393 10.9972Z" fill="#545454"/>
<path d="M157.259 16.1222C156.52 16.1222 155.885 16.0218 155.355 15.821C154.825 15.6241 154.399 15.3589 154.077 15.0256C153.755 14.6922 153.531 14.3229 153.406 13.9176L155.259 13.4688C155.342 13.6392 155.463 13.8078 155.622 13.9744C155.781 14.1449 155.995 14.285 156.264 14.3949C156.537 14.5085 156.88 14.5653 157.293 14.5653C157.876 14.5653 158.359 14.4233 158.741 14.1392C159.124 13.8589 159.315 13.3968 159.315 12.7528V11.0994H159.213C159.107 11.3116 158.952 11.5294 158.747 11.7528C158.546 11.9763 158.279 12.1638 157.946 12.3153C157.616 12.4669 157.202 12.5426 156.702 12.5426C156.031 12.5426 155.423 12.3854 154.878 12.071C154.336 11.7528 153.904 11.2794 153.582 10.6506C153.264 10.018 153.105 9.22633 153.105 8.27557C153.105 7.31723 153.264 6.50852 153.582 5.84943C153.904 5.18655 154.338 4.68466 154.884 4.34375C155.429 3.99905 156.037 3.8267 156.707 3.8267C157.219 3.8267 157.639 3.91383 157.969 4.08807C158.302 4.25852 158.567 4.46496 158.764 4.70739C158.961 4.94602 159.111 5.1714 159.213 5.38352H159.327V3.94034H161.355V12.8097C161.355 13.5559 161.177 14.1733 160.821 14.6619C160.465 15.1506 159.978 15.5161 159.361 15.7585C158.743 16.0009 158.043 16.1222 157.259 16.1222ZM157.276 10.929C157.711 10.929 158.082 10.8229 158.389 10.6108C158.696 10.3987 158.929 10.0938 159.088 9.69602C159.247 9.2983 159.327 8.82102 159.327 8.2642C159.327 7.71496 159.247 7.2339 159.088 6.82102C158.933 6.40814 158.702 6.08807 158.395 5.8608C158.092 5.62974 157.719 5.5142 157.276 5.5142C156.817 5.5142 156.435 5.63352 156.128 5.87216C155.821 6.1108 155.59 6.43845 155.435 6.85511C155.279 7.26799 155.202 7.73769 155.202 8.2642C155.202 8.7983 155.279 9.2661 155.435 9.66761C155.594 10.0653 155.827 10.3759 156.134 10.5994C156.444 10.8191 156.825 10.929 157.276 10.929Z" fill="#545454"/>
<path d="M163.463 12.6676V3.94034H165.429V5.4233H165.531C165.713 4.9233 166.014 4.53314 166.435 4.25284C166.855 3.96875 167.357 3.8267 167.94 3.8267C168.531 3.8267 169.029 3.97064 169.435 4.25852C169.844 4.54261 170.132 4.93087 170.298 5.4233H170.389C170.582 4.93845 170.908 4.55208 171.366 4.2642C171.829 3.97254 172.376 3.8267 173.009 3.8267C173.812 3.8267 174.467 4.08049 174.974 4.58807C175.482 5.09564 175.736 5.83617 175.736 6.80966V12.6676H173.673V7.12784C173.673 6.58617 173.529 6.19034 173.241 5.94034C172.954 5.68655 172.601 5.55966 172.185 5.55966C171.688 5.55966 171.3 5.71496 171.02 6.02557C170.743 6.33239 170.605 6.73201 170.605 7.22443V12.6676H168.588V7.04261C168.588 6.59186 168.452 6.23201 168.179 5.96307C167.91 5.69413 167.558 5.55966 167.122 5.55966C166.827 5.55966 166.558 5.63542 166.315 5.78693C166.073 5.93466 165.88 6.14489 165.736 6.41761C165.592 6.68655 165.52 7.00095 165.52 7.3608V12.6676H163.463Z" fill="#545454"/>
<path d="M180.334 12.8438C179.781 12.8438 179.283 12.7453 178.839 12.5483C178.4 12.3475 178.052 12.0521 177.794 11.6619C177.54 11.2718 177.413 10.7907 177.413 10.2188C177.413 9.72633 177.504 9.31913 177.686 8.99716C177.868 8.67519 178.116 8.41761 178.43 8.22443C178.745 8.03125 179.099 7.88542 179.493 7.78693C179.891 7.68466 180.302 7.6108 180.726 7.56534C181.237 7.51231 181.652 7.46496 181.97 7.4233C182.288 7.37784 182.519 7.30966 182.663 7.21875C182.811 7.12405 182.885 6.97822 182.885 6.78125V6.74716C182.885 6.31913 182.758 5.98769 182.504 5.75284C182.25 5.51799 181.885 5.40057 181.408 5.40057C180.904 5.40057 180.504 5.51042 180.209 5.73011C179.917 5.94981 179.72 6.20928 179.618 6.50852L177.697 6.2358C177.849 5.70549 178.099 5.26231 178.447 4.90625C178.796 4.5464 179.222 4.27746 179.726 4.09943C180.23 3.91761 180.786 3.8267 181.396 3.8267C181.817 3.8267 182.235 3.87595 182.652 3.97443C183.069 4.07292 183.449 4.2358 183.794 4.46307C184.139 4.68655 184.415 4.99148 184.624 5.37784C184.836 5.7642 184.942 6.24716 184.942 6.8267V12.6676H182.964V11.4688H182.896C182.771 11.7112 182.595 11.9384 182.368 12.1506C182.144 12.3589 181.862 12.5275 181.521 12.6562C181.184 12.7812 180.788 12.8438 180.334 12.8438ZM180.868 11.3324C181.281 11.3324 181.639 11.2509 181.942 11.0881C182.245 10.9214 182.478 10.7017 182.641 10.429C182.807 10.1563 182.891 9.8589 182.891 9.53693V8.50852C182.826 8.56155 182.716 8.6108 182.561 8.65625C182.41 8.7017 182.239 8.74148 182.05 8.77557C181.86 8.80966 181.673 8.83996 181.487 8.86648C181.302 8.89299 181.141 8.91572 181.004 8.93466C180.697 8.97633 180.423 9.04451 180.18 9.1392C179.938 9.2339 179.747 9.36648 179.607 9.53693C179.466 9.7036 179.396 9.91951 179.396 10.1847C179.396 10.5634 179.535 10.8494 179.811 11.0426C180.088 11.2358 180.44 11.3324 180.868 11.3324Z" fill="#545454"/>
<path d="M187.01 12.6676V3.94034H189.067V12.6676H187.01ZM188.044 2.7017C187.718 2.7017 187.438 2.59375 187.203 2.37784C186.968 2.15814 186.851 1.89489 186.851 1.58807C186.851 1.27746 186.968 1.0142 187.203 0.798295C187.438 0.578598 187.718 0.46875 188.044 0.46875C188.374 0.46875 188.654 0.578598 188.885 0.798295C189.12 1.0142 189.237 1.27746 189.237 1.58807C189.237 1.89489 189.12 2.15814 188.885 2.37784C188.654 2.59375 188.374 2.7017 188.044 2.7017Z" fill="#545454"/>
<path d="M191.182 1.03125H193.239V10.1676C193.239 10.4934 193.288 10.7263 193.386 10.8665C193.485 11.0066 193.659 11.0729 193.909 11.0653C194.045 11.0616 194.148 11.054 194.216 11.0426C194.288 11.0275 194.352 11.0123 194.409 10.9972L194.75 12.554C194.629 12.5919 194.477 12.6278 194.295 12.6619C194.117 12.696 193.898 12.7169 193.636 12.7244C192.803 12.7472 192.186 12.5729 191.784 12.2017C191.383 11.8305 191.182 11.2642 191.182 10.5028V1.03125Z" fill="#545454"/>
<path d="M197.043 12.7926C196.698 12.7926 196.402 12.6714 196.156 12.429C195.91 12.1866 195.789 11.8911 195.793 11.5426C195.789 11.2017 195.91 10.91 196.156 10.6676C196.402 10.4252 196.698 10.304 197.043 10.304C197.376 10.304 197.666 10.4252 197.912 10.6676C198.162 10.91 198.289 11.2017 198.293 11.5426C198.289 11.7737 198.228 11.9839 198.111 12.1733C197.997 12.3627 197.846 12.5142 197.656 12.6278C197.471 12.7377 197.266 12.7926 197.043 12.7926Z" fill="#545454"/>
<path d="M204.223 12.8381C203.352 12.8381 202.604 12.6468 201.979 12.2642C201.357 11.8816 200.878 11.3532 200.541 10.679C200.208 10.0009 200.041 9.22064 200.041 8.33807C200.041 7.4517 200.212 6.66951 200.553 5.99148C200.893 5.30966 201.375 4.77936 201.996 4.40057C202.621 4.01799 203.359 3.8267 204.212 3.8267C204.92 3.8267 205.547 3.95739 206.092 4.21875C206.642 4.47633 207.079 4.84186 207.405 5.31534C207.731 5.78504 207.916 6.33428 207.962 6.96307H205.996C205.916 6.54261 205.727 6.19223 205.428 5.91193C205.132 5.62784 204.736 5.4858 204.24 5.4858C203.82 5.4858 203.45 5.59943 203.132 5.8267C202.814 6.05019 202.566 6.37216 202.388 6.79261C202.214 7.21307 202.126 7.71686 202.126 8.30398C202.126 8.89867 202.214 9.41004 202.388 9.83807C202.562 10.2623 202.806 10.59 203.121 10.821C203.439 11.0483 203.812 11.1619 204.24 11.1619C204.543 11.1619 204.814 11.1051 205.053 10.9915C205.295 10.8741 205.498 10.7055 205.661 10.4858C205.823 10.2661 205.935 9.99905 205.996 9.68466H207.962C207.912 10.3021 207.731 10.8494 207.416 11.3267C207.102 11.8002 206.674 12.1714 206.132 12.4403C205.59 12.7055 204.954 12.8381 204.223 12.8381Z" fill="#545454"/>
<path d="M213.457 12.8381C212.605 12.8381 211.866 12.6506 211.241 12.2756C210.616 11.9006 210.132 11.3759 209.787 10.7017C209.446 10.0275 209.276 9.23958 209.276 8.33807C209.276 7.43655 209.446 6.64678 209.787 5.96875C210.132 5.29072 210.616 4.7642 211.241 4.3892C211.866 4.0142 212.605 3.8267 213.457 3.8267C214.31 3.8267 215.048 4.0142 215.673 4.3892C216.298 4.7642 216.781 5.29072 217.122 5.96875C217.467 6.64678 217.639 7.43655 217.639 8.33807C217.639 9.23958 217.467 10.0275 217.122 10.7017C216.781 11.3759 216.298 11.9006 215.673 12.2756C215.048 12.6506 214.31 12.8381 213.457 12.8381ZM213.469 11.1903C213.931 11.1903 214.317 11.0634 214.628 10.8097C214.938 10.5521 215.17 10.2074 215.321 9.77557C215.476 9.34375 215.554 8.86269 215.554 8.33239C215.554 7.7983 215.476 7.31534 215.321 6.88352C215.17 6.44792 214.938 6.10133 214.628 5.84375C214.317 5.58617 213.931 5.45739 213.469 5.45739C212.995 5.45739 212.601 5.58617 212.287 5.84375C211.976 6.10133 211.743 6.44792 211.588 6.88352C211.437 7.31534 211.361 7.7983 211.361 8.33239C211.361 8.86269 211.437 9.34375 211.588 9.77557C211.743 10.2074 211.976 10.5521 212.287 10.8097C212.601 11.0634 212.995 11.1903 213.469 11.1903Z" fill="#545454"/>
<path d="M219.385 12.6676V3.94034H221.351V5.4233H221.453C221.635 4.9233 221.936 4.53314 222.357 4.25284C222.777 3.96875 223.279 3.8267 223.862 3.8267C224.453 3.8267 224.951 3.97064 225.357 4.25852C225.766 4.54261 226.054 4.93087 226.22 5.4233H226.311C226.504 4.93845 226.83 4.55208 227.288 4.2642C227.75 3.97254 228.298 3.8267 228.93 3.8267C229.733 3.8267 230.389 4.08049 230.896 4.58807C231.404 5.09564 231.658 5.83617 231.658 6.80966V12.6676H229.595V7.12784C229.595 6.58617 229.451 6.19034 229.163 5.94034C228.875 5.68655 228.523 5.55966 228.107 5.55966C227.61 5.55966 227.222 5.71496 226.942 6.02557C226.665 6.33239 226.527 6.73201 226.527 7.22443V12.6676H224.51V7.04261C224.51 6.59186 224.374 6.23201 224.101 5.96307C223.832 5.69413 223.48 5.55966 223.044 5.55966C222.749 5.55966 222.48 5.63542 222.237 5.78693C221.995 5.93466 221.802 6.14489 221.658 6.41761C221.514 6.68655 221.442 7.00095 221.442 7.3608V12.6676H219.385Z" fill="#545454"/>
<path d="M20.2543 36.8381C19.383 36.8381 18.6349 36.6468 18.0099 36.2642C17.3887 35.8816 16.9096 35.3532 16.5724 34.679C16.2391 34.0009 16.0724 33.2206 16.0724 32.3381C16.0724 31.4517 16.2429 30.6695 16.5838 29.9915C16.9247 29.3097 17.4058 28.7794 18.027 28.4006C18.652 28.018 19.3906 27.8267 20.2429 27.8267C20.9512 27.8267 21.5781 27.9574 22.1236 28.2188C22.6728 28.4763 23.1103 28.8419 23.4361 29.3153C23.7618 29.785 23.9474 30.3343 23.9929 30.9631H22.027C21.9474 30.5426 21.7581 30.1922 21.4588 29.9119C21.1634 29.6278 20.7675 29.4858 20.2713 29.4858C19.8509 29.4858 19.4815 29.5994 19.1634 29.8267C18.8452 30.0502 18.5971 30.3722 18.419 30.7926C18.2448 31.2131 18.1577 31.7169 18.1577 32.304C18.1577 32.8987 18.2448 33.41 18.419 33.8381C18.5933 34.2623 18.8376 34.59 19.152 34.821C19.4702 35.0483 19.8433 35.1619 20.2713 35.1619C20.5743 35.1619 20.8452 35.1051 21.0838 34.9915C21.3262 34.8741 21.5289 34.7055 21.6918 34.4858C21.8546 34.2661 21.9664 33.9991 22.027 33.6847H23.9929C23.9437 34.3021 23.7618 34.8494 23.4474 35.3267C23.133 35.8002 22.705 36.1714 22.1634 36.4403C21.6217 36.7055 20.9853 36.8381 20.2543 36.8381Z" fill="#545454"/>
<path d="M29.4886 36.8381C28.6364 36.8381 27.8977 36.6506 27.2727 36.2756C26.6477 35.9006 26.1629 35.3759 25.8182 34.7017C25.4773 34.0275 25.3068 33.2396 25.3068 32.3381C25.3068 31.4366 25.4773 30.6468 25.8182 29.9688C26.1629 29.2907 26.6477 28.7642 27.2727 28.3892C27.8977 28.0142 28.6364 27.8267 29.4886 27.8267C30.3409 27.8267 31.0795 28.0142 31.7045 28.3892C32.3295 28.7642 32.8125 29.2907 33.1534 29.9688C33.4981 30.6468 33.6705 31.4366 33.6705 32.3381C33.6705 33.2396 33.4981 34.0275 33.1534 34.7017C32.8125 35.3759 32.3295 35.9006 31.7045 36.2756C31.0795 36.6506 30.3409 36.8381 29.4886 36.8381ZM29.5 35.1903C29.9621 35.1903 30.3485 35.0634 30.6591 34.8097C30.9697 34.5521 31.2008 34.2074 31.3523 33.7756C31.5076 33.3438 31.5852 32.8627 31.5852 32.3324C31.5852 31.7983 31.5076 31.3153 31.3523 30.8835C31.2008 30.4479 30.9697 30.1013 30.6591 29.8438C30.3485 29.5862 29.9621 29.4574 29.5 29.4574C29.0265 29.4574 28.6326 29.5862 28.3182 29.8438C28.0076 30.1013 27.7746 30.4479 27.6193 30.8835C27.4678 31.3153 27.392 31.7983 27.392 32.3324C27.392 32.8627 27.4678 33.3438 27.6193 33.7756C27.7746 34.2074 28.0076 34.5521 28.3182 34.8097C28.6326 35.0634 29.0265 35.1903 29.5 35.1903Z" fill="#545454"/>
<path d="M35.4162 36.6676V27.9403H37.3821V29.4233H37.4844C37.6662 28.9233 37.9673 28.5331 38.3878 28.2528C38.8082 27.9688 39.3101 27.8267 39.8935 27.8267C40.4844 27.8267 40.9825 27.9706 41.3878 28.2585C41.7969 28.5426 42.0848 28.9309 42.2514 29.4233H42.3423C42.5355 28.9384 42.8613 28.5521 43.3196 28.2642C43.7817 27.9725 44.3291 27.8267 44.9616 27.8267C45.7647 27.8267 46.42 28.0805 46.9276 28.5881C47.4351 29.0956 47.6889 29.8362 47.6889 30.8097V36.6676H45.6264V31.1278C45.6264 30.5862 45.4825 30.1903 45.1946 29.9403C44.9067 29.6866 44.5545 29.5597 44.1378 29.5597C43.6416 29.5597 43.2533 29.715 42.973 30.0256C42.6965 30.3324 42.5582 30.732 42.5582 31.2244V36.6676H40.5412V31.0426C40.5412 30.5919 40.4048 30.232 40.1321 29.9631C39.8632 29.6941 39.5109 29.5597 39.0753 29.5597C38.7798 29.5597 38.5109 29.6354 38.2685 29.7869C38.026 29.9347 37.8329 30.1449 37.6889 30.4176C37.545 30.6866 37.473 31.0009 37.473 31.3608V36.6676H35.4162Z" fill="#545454"/>
<path d="M49.7756 39.9403V27.9403H51.7983V29.3835H51.9176C52.0237 29.1714 52.1733 28.946 52.3665 28.7074C52.5597 28.465 52.821 28.2585 53.1506 28.0881C53.4801 27.9138 53.9006 27.8267 54.4119 27.8267C55.0862 27.8267 55.6941 27.9991 56.2358 28.3438C56.7812 28.6847 57.2131 29.1903 57.5312 29.8608C57.8532 30.5275 58.0142 31.3456 58.0142 32.3153C58.0142 33.2737 57.857 34.0881 57.5426 34.7585C57.2282 35.429 56.8002 35.9403 56.2585 36.2926C55.7169 36.6449 55.1032 36.821 54.4176 36.821C53.9176 36.821 53.5028 36.7377 53.1733 36.571C52.8437 36.4044 52.5786 36.2036 52.3778 35.9688C52.1809 35.7301 52.0275 35.5047 51.9176 35.2926H51.8324V39.9403H49.7756ZM51.7926 32.304C51.7926 32.8684 51.8722 33.3627 52.0312 33.7869C52.1941 34.2112 52.4271 34.5426 52.7301 34.7812C53.0369 35.0161 53.4081 35.1335 53.8438 35.1335C54.2983 35.1335 54.679 35.0123 54.9858 34.7699C55.2926 34.5237 55.5237 34.1884 55.679 33.7642C55.8381 33.3362 55.9176 32.8494 55.9176 32.304C55.9176 31.7623 55.84 31.2812 55.6847 30.8608C55.5294 30.4403 55.2983 30.1108 54.9915 29.8722C54.6847 29.6335 54.3021 29.5142 53.8438 29.5142C53.4044 29.5142 53.0313 29.6297 52.7244 29.8608C52.4176 30.0919 52.1847 30.4157 52.0256 30.8324C51.8703 31.2491 51.7926 31.7396 51.7926 32.304Z" fill="#545454"/>
<path d="M59.7756 25.0312H61.8324V34.1676C61.8324 34.4934 61.8816 34.7263 61.9801 34.8665C62.0786 35.0066 62.2528 35.0729 62.5028 35.0653C62.6392 35.0616 62.7415 35.054 62.8097 35.0426C62.8816 35.0275 62.946 35.0123 63.0028 34.9972L63.3438 36.554C63.2225 36.5919 63.071 36.6278 62.8892 36.6619C62.7112 36.696 62.4915 36.7169 62.2301 36.7244C61.3968 36.7472 60.7794 36.5729 60.3778 36.2017C59.9763 35.8305 59.7756 35.2642 59.7756 34.5028V25.0312Z" fill="#545454"/>
<path d="M68.233 36.8381C67.358 36.8381 66.6023 36.6563 65.9659 36.2926C65.3333 35.9252 64.8466 35.4062 64.5057 34.7358C64.1648 34.0616 63.9943 33.268 63.9943 32.3551C63.9943 31.4574 64.1648 30.6695 64.5057 29.9915C64.8504 29.3097 65.3314 28.7794 65.9489 28.4006C66.5663 28.018 67.2917 27.8267 68.125 27.8267C68.6629 27.8267 69.1705 27.9138 69.6477 28.0881C70.1288 28.2585 70.553 28.5237 70.9205 28.8835C71.2917 29.2434 71.5833 29.7017 71.7955 30.2585C72.0076 30.8116 72.1136 31.4706 72.1136 32.2358V32.8665H64.9602V31.4801H70.142C70.1383 31.0862 70.053 30.7358 69.8864 30.429C69.7197 30.1184 69.4867 29.8741 69.1875 29.696C68.892 29.518 68.5474 29.429 68.1534 29.429C67.733 29.429 67.3636 29.5312 67.0455 29.7358C66.7273 29.9366 66.4792 30.2017 66.3011 30.5312C66.1269 30.857 66.0379 31.215 66.0341 31.6051V32.8153C66.0341 33.3229 66.1269 33.7585 66.3125 34.1222C66.4981 34.482 66.7576 34.7585 67.0909 34.9517C67.4242 35.1411 67.8144 35.2358 68.2614 35.2358C68.5606 35.2358 68.8314 35.1941 69.0739 35.1108C69.3163 35.0237 69.5265 34.8968 69.7045 34.7301C69.8826 34.5634 70.017 34.357 70.108 34.1108L72.0284 34.3267C71.9072 34.8343 71.6761 35.2775 71.3352 35.6562C70.9981 36.0312 70.5663 36.3229 70.0398 36.5312C69.5133 36.7358 68.911 36.8381 68.233 36.8381Z" fill="#545454"/>
<path d="M78.2116 27.9403V29.5312H73.1946V27.9403H78.2116ZM74.4332 25.8494H76.4901V34.0426C76.4901 34.3191 76.5317 34.5313 76.6151 34.679C76.7022 34.8229 76.8158 34.9214 76.956 34.9744C77.0961 35.0275 77.2514 35.054 77.4219 35.054C77.5507 35.054 77.6681 35.0445 77.7741 35.0256C77.884 35.0066 77.9673 34.9896 78.0241 34.9744L78.3707 36.5824C78.2609 36.6203 78.1037 36.6619 77.8991 36.7074C77.6984 36.7528 77.4522 36.7794 77.1605 36.7869C76.6454 36.8021 76.1813 36.7244 75.7685 36.554C75.3556 36.3797 75.0279 36.1108 74.7855 35.7472C74.5469 35.3835 74.4294 34.929 74.4332 34.3835V25.8494Z" fill="#545454"/>
<path d="M83.7017 36.8381C82.8267 36.8381 82.071 36.6563 81.4347 36.2926C80.8021 35.9252 80.3153 35.4062 79.9744 34.7358C79.6335 34.0616 79.4631 33.268 79.4631 32.3551C79.4631 31.4574 79.6335 30.6695 79.9744 29.9915C80.3191 29.3097 80.8002 28.7794 81.4176 28.4006C82.035 28.018 82.7604 27.8267 83.5938 27.8267C84.1316 27.8267 84.6392 27.9138 85.1165 28.0881C85.5975 28.2585 86.0218 28.5237 86.3892 28.8835C86.7604 29.2434 87.0521 29.7017 87.2642 30.2585C87.4763 30.8116 87.5824 31.4706 87.5824 32.2358V32.8665H80.429V31.4801H85.6108C85.607 31.0862 85.5218 30.7358 85.3551 30.429C85.1885 30.1184 84.9555 29.8741 84.6562 29.696C84.3608 29.518 84.0161 29.429 83.6222 29.429C83.2017 29.429 82.8324 29.5312 82.5142 29.7358C82.196 29.9366 81.9479 30.2017 81.7699 30.5312C81.5956 30.857 81.5066 31.215 81.5028 31.6051V32.8153C81.5028 33.3229 81.5956 33.7585 81.7812 34.1222C81.9669 34.482 82.2263 34.7585 82.5597 34.9517C82.893 35.1411 83.2831 35.2358 83.7301 35.2358C84.0294 35.2358 84.3002 35.1941 84.5426 35.1108C84.785 35.0237 84.9953 34.8968 85.1733 34.7301C85.3513 34.5634 85.4858 34.357 85.5767 34.1108L87.4972 34.3267C87.3759 34.8343 87.1449 35.2775 86.804 35.6562C86.4669 36.0312 86.035 36.3229 85.5085 36.5312C84.982 36.7358 84.3797 36.8381 83.7017 36.8381Z" fill="#545454"/>
<path d="M97.6491 27.9403V29.5312H92.6321V27.9403H97.6491ZM93.8707 25.8494H95.9276V34.0426C95.9276 34.3191 95.9692 34.5313 96.0526 34.679C96.1397 34.8229 96.2533 34.9214 96.3935 34.9744C96.5336 35.0275 96.6889 35.054 96.8594 35.054C96.9882 35.054 97.1056 35.0445 97.2116 35.0256C97.3215 35.0066 97.4048 34.9896 97.4616 34.9744L97.8082 36.5824C97.6984 36.6203 97.5412 36.6619 97.3366 36.7074C97.1359 36.7528 96.8897 36.7794 96.598 36.7869C96.0829 36.8021 95.6188 36.7244 95.206 36.554C94.7931 36.3797 94.4654 36.1108 94.223 35.7472C93.9844 35.3835 93.8669 34.929 93.8707 34.3835V25.8494Z" fill="#545454"/>
<path d="M101.614 31.554V36.6676H99.5568V25.0312H101.568V29.4233H101.67C101.875 28.9309 102.191 28.5426 102.619 28.2585C103.051 27.9706 103.6 27.8267 104.267 27.8267C104.873 27.8267 105.402 27.9536 105.852 28.2074C106.303 28.4612 106.652 28.8324 106.898 29.321C107.148 29.8097 107.273 30.4062 107.273 31.1108V36.6676H105.216V31.429C105.216 30.8419 105.064 30.3854 104.761 30.0597C104.462 29.7301 104.042 29.5653 103.5 29.5653C103.136 29.5653 102.811 29.6449 102.523 29.804C102.239 29.9593 102.015 30.1847 101.852 30.4801C101.693 30.7756 101.614 31.1335 101.614 31.554Z" fill="#545454"/>
<path d="M113.233 36.8381C112.358 36.8381 111.602 36.6563 110.966 36.2926C110.333 35.9252 109.847 35.4062 109.506 34.7358C109.165 34.0616 108.994 33.268 108.994 32.3551C108.994 31.4574 109.165 30.6695 109.506 29.9915C109.85 29.3097 110.331 28.7794 110.949 28.4006C111.566 28.018 112.292 27.8267 113.125 27.8267C113.663 27.8267 114.17 27.9138 114.648 28.0881C115.129 28.2585 115.553 28.5237 115.92 28.8835C116.292 29.2434 116.583 29.7017 116.795 30.2585C117.008 30.8116 117.114 31.4706 117.114 32.2358V32.8665H109.96V31.4801H115.142C115.138 31.0862 115.053 30.7358 114.886 30.429C114.72 30.1184 114.487 29.8741 114.188 29.696C113.892 29.518 113.547 29.429 113.153 29.429C112.733 29.429 112.364 29.5312 112.045 29.7358C111.727 29.9366 111.479 30.2017 111.301 30.5312C111.127 30.857 111.038 31.215 111.034 31.6051V32.8153C111.034 33.3229 111.127 33.7585 111.312 34.1222C111.498 34.482 111.758 34.7585 112.091 34.9517C112.424 35.1411 112.814 35.2358 113.261 35.2358C113.561 35.2358 113.831 35.1941 114.074 35.1108C114.316 35.0237 114.527 34.8968 114.705 34.7301C114.883 34.5634 115.017 34.357 115.108 34.1108L117.028 34.3267C116.907 34.8343 116.676 35.2775 116.335 35.6562C115.998 36.0312 115.566 36.3229 115.04 36.5312C114.513 36.7358 113.911 36.8381 113.233 36.8381Z" fill="#545454"/>
<path d="M129.72 30.2472L127.845 30.4517C127.792 30.2623 127.699 30.0843 127.567 29.9176C127.438 29.7509 127.264 29.6165 127.044 29.5142C126.824 29.4119 126.555 29.3608 126.237 29.3608C125.809 29.3608 125.449 29.4536 125.158 29.6392C124.87 29.8248 124.728 30.0653 124.732 30.3608C124.728 30.6146 124.821 30.821 125.01 30.9801C125.203 31.1392 125.521 31.2699 125.964 31.3722L127.453 31.6903C128.279 31.8684 128.893 32.1506 129.294 32.5369C129.699 32.9233 129.904 33.429 129.908 34.054C129.904 34.6032 129.743 35.0881 129.425 35.5085C129.11 35.9252 128.673 36.2509 128.112 36.4858C127.552 36.7206 126.908 36.8381 126.18 36.8381C125.112 36.8381 124.252 36.6146 123.601 36.1676C122.949 35.7169 122.561 35.09 122.436 34.2869L124.442 34.0938C124.533 34.4877 124.726 34.785 125.021 34.9858C125.317 35.1866 125.701 35.2869 126.175 35.2869C126.663 35.2869 127.055 35.1866 127.351 34.9858C127.65 34.785 127.8 34.5369 127.8 34.2415C127.8 33.9915 127.703 33.785 127.51 33.6222C127.321 33.4593 127.025 33.3343 126.624 33.2472L125.135 32.9347C124.298 32.7604 123.679 32.4669 123.277 32.054C122.875 31.6373 122.677 31.1108 122.68 30.4744C122.677 29.9366 122.822 29.4706 123.118 29.0767C123.417 28.679 123.832 28.3722 124.362 28.1562C124.896 27.9366 125.512 27.8267 126.209 27.8267C127.232 27.8267 128.036 28.0445 128.624 28.4801C129.214 28.9157 129.58 29.5047 129.72 30.2472Z" fill="#545454"/>
<path d="M137.166 32.9972V27.9403H139.223V36.6676H137.229V35.1165H137.138C136.941 35.6051 136.617 36.0047 136.166 36.3153C135.719 36.6259 135.168 36.7812 134.513 36.7812C133.941 36.7812 133.435 36.6544 132.996 36.4006C132.56 36.143 132.219 35.7699 131.973 35.2812C131.727 34.7888 131.604 34.1941 131.604 33.4972V27.9403H133.661V33.179C133.661 33.732 133.812 34.1714 134.115 34.4972C134.418 34.8229 134.816 34.9858 135.308 34.9858C135.611 34.9858 135.905 34.9119 136.189 34.7642C136.473 34.6165 136.706 34.3968 136.888 34.1051C137.073 33.8097 137.166 33.4403 137.166 32.9972Z" fill="#545454"/>
<path d="M141.429 36.6676V25.0312H143.486V29.3835H143.571C143.677 29.1714 143.827 28.946 144.02 28.7074C144.213 28.465 144.474 28.2585 144.804 28.0881C145.134 27.9138 145.554 27.8267 146.065 27.8267C146.74 27.8267 147.348 27.9991 147.889 28.3438C148.435 28.6847 148.866 29.1903 149.185 29.8608C149.507 30.5275 149.668 31.3456 149.668 32.3153C149.668 33.2737 149.51 34.0881 149.196 34.7585C148.882 35.429 148.454 35.9403 147.912 36.2926C147.37 36.6449 146.757 36.821 146.071 36.821C145.571 36.821 145.156 36.7377 144.827 36.571C144.497 36.4044 144.232 36.2036 144.031 35.9688C143.834 35.7301 143.681 35.5047 143.571 35.2926H143.452V36.6676H141.429ZM143.446 32.304C143.446 32.8684 143.526 33.3627 143.685 33.7869C143.848 34.2112 144.08 34.5426 144.384 34.7812C144.69 35.0161 145.062 35.1335 145.497 35.1335C145.952 35.1335 146.332 35.0123 146.639 34.7699C146.946 34.5237 147.177 34.1884 147.332 33.7642C147.491 33.3362 147.571 32.8494 147.571 32.304C147.571 31.7623 147.493 31.2812 147.338 30.8608C147.183 30.4403 146.952 30.1108 146.645 29.8722C146.338 29.6335 145.955 29.5142 145.497 29.5142C145.058 29.5142 144.685 29.6297 144.378 29.8608C144.071 30.0919 143.838 30.4157 143.679 30.8324C143.524 31.2491 143.446 31.7396 143.446 32.304Z" fill="#545454"/>
<path d="M158.314 30.2472L156.439 30.4517C156.386 30.2623 156.293 30.0843 156.161 29.9176C156.032 29.7509 155.857 29.6165 155.638 29.5142C155.418 29.4119 155.149 29.3608 154.831 29.3608C154.403 29.3608 154.043 29.4536 153.751 29.6392C153.464 29.8248 153.321 30.0653 153.325 30.3608C153.321 30.6146 153.414 30.821 153.604 30.9801C153.797 31.1392 154.115 31.2699 154.558 31.3722L156.047 31.6903C156.873 31.8684 157.486 32.1506 157.888 32.5369C158.293 32.9233 158.498 33.429 158.501 34.054C158.498 34.6032 158.337 35.0881 158.018 35.5085C157.704 35.9252 157.267 36.2509 156.706 36.4858C156.145 36.7206 155.501 36.8381 154.774 36.8381C153.706 36.8381 152.846 36.6146 152.195 36.1676C151.543 35.7169 151.155 35.09 151.03 34.2869L153.036 34.0938C153.126 34.4877 153.32 34.785 153.615 34.9858C153.911 35.1866 154.295 35.2869 154.768 35.2869C155.257 35.2869 155.649 35.1866 155.945 34.9858C156.244 34.785 156.393 34.5369 156.393 34.2415C156.393 33.9915 156.297 33.785 156.104 33.6222C155.914 33.4593 155.619 33.3343 155.217 33.2472L153.729 32.9347C152.892 32.7604 152.272 32.4669 151.871 32.054C151.469 31.6373 151.27 31.1108 151.274 30.4744C151.27 29.9366 151.416 29.4706 151.712 29.0767C152.011 28.679 152.426 28.3722 152.956 28.1562C153.49 27.9366 154.106 27.8267 154.803 27.8267C155.825 27.8267 156.63 28.0445 157.217 28.4801C157.808 28.9157 158.174 29.5047 158.314 30.2472Z" fill="#545454"/>
<path d="M164.004 36.8381C163.133 36.8381 162.385 36.6468 161.76 36.2642C161.139 35.8816 160.66 35.3532 160.322 34.679C159.989 34.0009 159.822 33.2206 159.822 32.3381C159.822 31.4517 159.993 30.6695 160.334 29.9915C160.675 29.3097 161.156 28.7794 161.777 28.4006C162.402 28.018 163.141 27.8267 163.993 27.8267C164.701 27.8267 165.328 27.9574 165.874 28.2188C166.423 28.4763 166.86 28.8419 167.186 29.3153C167.512 29.785 167.697 30.3343 167.743 30.9631H165.777C165.697 30.5426 165.508 30.1922 165.209 29.9119C164.913 29.6278 164.518 29.4858 164.021 29.4858C163.601 29.4858 163.232 29.5994 162.913 29.8267C162.595 30.0502 162.347 30.3722 162.169 30.7926C161.995 31.2131 161.908 31.7169 161.908 32.304C161.908 32.8987 161.995 33.41 162.169 33.8381C162.343 34.2623 162.588 34.59 162.902 34.821C163.22 35.0483 163.593 35.1619 164.021 35.1619C164.324 35.1619 164.595 35.1051 164.834 34.9915C165.076 34.8741 165.279 34.7055 165.442 34.4858C165.605 34.2661 165.716 33.9991 165.777 33.6847H167.743C167.694 34.3021 167.512 34.8494 167.197 35.3267C166.883 35.8002 166.455 36.1714 165.913 36.4403C165.372 36.7055 164.735 36.8381 164.004 36.8381Z" fill="#545454"/>
<path d="M169.432 36.6676V27.9403H171.426V29.3949H171.517C171.676 28.8911 171.949 28.5028 172.335 28.2301C172.725 27.9536 173.17 27.8153 173.67 27.8153C173.784 27.8153 173.911 27.821 174.051 27.8324C174.195 27.84 174.314 27.8532 174.409 27.8722V29.7642C174.322 29.7339 174.184 29.7074 173.994 29.6847C173.809 29.6581 173.629 29.6449 173.455 29.6449C173.08 29.6449 172.742 29.7263 172.443 29.8892C172.148 30.0483 171.915 30.2699 171.744 30.554C171.574 30.8381 171.489 31.1657 171.489 31.5369V36.6676H169.432Z" fill="#545454"/>
<path d="M175.776 36.6676V27.9403H177.832V36.6676H175.776ZM176.81 26.7017C176.484 26.7017 176.204 26.5938 175.969 26.3778C175.734 26.1581 175.616 25.8949 175.616 25.5881C175.616 25.2775 175.734 25.0142 175.969 24.7983C176.204 24.5786 176.484 24.4688 176.81 24.4688C177.139 24.4688 177.42 24.5786 177.651 24.7983C177.885 25.0142 178.003 25.2775 178.003 25.5881C178.003 25.8949 177.885 26.1581 177.651 26.3778C177.42 26.5938 177.139 26.7017 176.81 26.7017Z" fill="#545454"/>
<path d="M179.947 39.9403V27.9403H181.97V29.3835H182.089C182.196 29.1714 182.345 28.946 182.538 28.7074C182.732 28.465 182.993 28.2585 183.322 28.0881C183.652 27.9138 184.072 27.8267 184.584 27.8267C185.258 27.8267 185.866 27.9991 186.408 28.3438C186.953 28.6847 187.385 29.1903 187.703 29.8608C188.025 30.5275 188.186 31.3456 188.186 32.3153C188.186 33.2737 188.029 34.0881 187.714 34.7585C187.4 35.429 186.972 35.9403 186.43 36.2926C185.889 36.6449 185.275 36.821 184.589 36.821C184.089 36.821 183.675 36.7377 183.345 36.571C183.016 36.4044 182.75 36.2036 182.55 35.9688C182.353 35.7301 182.199 35.5047 182.089 35.2926H182.004V39.9403H179.947ZM181.964 32.304C181.964 32.8684 182.044 33.3627 182.203 33.7869C182.366 34.2112 182.599 34.5426 182.902 34.7812C183.209 35.0161 183.58 35.1335 184.016 35.1335C184.47 35.1335 184.851 35.0123 185.158 34.7699C185.464 34.5237 185.696 34.1884 185.851 33.7642C186.01 33.3362 186.089 32.8494 186.089 32.304C186.089 31.7623 186.012 31.2812 185.857 30.8608C185.701 30.4403 185.47 30.1108 185.163 29.8722C184.857 29.6335 184.474 29.5142 184.016 29.5142C183.576 29.5142 183.203 29.6297 182.896 29.8608C182.589 30.0919 182.357 30.4157 182.197 30.8324C182.042 31.2491 181.964 31.7396 181.964 32.304Z" fill="#545454"/>
<path d="M194.305 27.9403V29.5312H189.288V27.9403H194.305ZM190.527 25.8494H192.584V34.0426C192.584 34.3191 192.625 34.5313 192.709 34.679C192.796 34.8229 192.91 34.9214 193.05 34.9744C193.19 35.0275 193.345 35.054 193.516 35.054C193.644 35.054 193.762 35.0445 193.868 35.0256C193.978 35.0066 194.061 34.9896 194.118 34.9744L194.464 36.5824C194.355 36.6203 194.197 36.6619 193.993 36.7074C193.792 36.7528 193.546 36.7794 193.254 36.7869C192.739 36.8021 192.275 36.7244 191.862 36.554C191.449 36.3797 191.122 36.1108 190.879 35.7472C190.641 35.3835 190.523 34.929 190.527 34.3835V25.8494Z" fill="#545454"/>
<path d="M196.026 36.6676V27.9403H198.082V36.6676H196.026ZM197.06 26.7017C196.734 26.7017 196.454 26.5938 196.219 26.3778C195.984 26.1581 195.866 25.8949 195.866 25.5881C195.866 25.2775 195.984 25.0142 196.219 24.7983C196.454 24.5786 196.734 24.4688 197.06 24.4688C197.389 24.4688 197.67 24.5786 197.901 24.7983C198.135 25.0142 198.253 25.2775 198.253 25.5881C198.253 25.8949 198.135 26.1581 197.901 26.3778C197.67 26.5938 197.389 26.7017 197.06 26.7017Z" fill="#545454"/>
<path d="M204.004 36.8381C203.152 36.8381 202.413 36.6506 201.788 36.2756C201.163 35.9006 200.678 35.3759 200.334 34.7017C199.993 34.0275 199.822 33.2396 199.822 32.3381C199.822 31.4366 199.993 30.6468 200.334 29.9688C200.678 29.2907 201.163 28.7642 201.788 28.3892C202.413 28.0142 203.152 27.8267 204.004 27.8267C204.857 27.8267 205.595 28.0142 206.22 28.3892C206.845 28.7642 207.328 29.2907 207.669 29.9688C208.014 30.6468 208.186 31.4366 208.186 32.3381C208.186 33.2396 208.014 34.0275 207.669 34.7017C207.328 35.3759 206.845 35.9006 206.22 36.2756C205.595 36.6506 204.857 36.8381 204.004 36.8381ZM204.016 35.1903C204.478 35.1903 204.864 35.0634 205.175 34.8097C205.485 34.5521 205.716 34.2074 205.868 33.7756C206.023 33.3438 206.101 32.8627 206.101 32.3324C206.101 31.7983 206.023 31.3153 205.868 30.8835C205.716 30.4479 205.485 30.1013 205.175 29.8438C204.864 29.5862 204.478 29.4574 204.016 29.4574C203.542 29.4574 203.148 29.5862 202.834 29.8438C202.523 30.1013 202.29 30.4479 202.135 30.8835C201.983 31.3153 201.908 31.7983 201.908 32.3324C201.908 32.8627 201.983 33.3438 202.135 33.7756C202.29 34.2074 202.523 34.5521 202.834 34.8097C203.148 35.0634 203.542 35.1903 204.016 35.1903Z" fill="#545454"/>
<path d="M211.989 31.554V36.6676H209.932V27.9403H211.898V29.4233H212C212.201 28.9347 212.521 28.5464 212.96 28.2585C213.403 27.9706 213.951 27.8267 214.602 27.8267C215.205 27.8267 215.729 27.9555 216.176 28.2131C216.627 28.4706 216.975 28.8437 217.222 29.3324C217.472 29.821 217.595 30.4138 217.591 31.1108V36.6676H215.534V31.429C215.534 30.8456 215.383 30.3892 215.08 30.0597C214.78 29.7301 214.366 29.5653 213.835 29.5653C213.475 29.5653 213.155 29.6449 212.875 29.804C212.598 29.9593 212.381 30.1847 212.222 30.4801C212.066 30.7756 211.989 31.1335 211.989 31.554Z" fill="#545454"/>
</svg>
