<svg width="166" height="102" viewBox="0 0 166 102" fill="none" xmlns="http://www.w3.org/2000/svg">
<rect x="11.7051" y="67.4873" width="142.172" height="34.3294" rx="4" fill="#0F67F5"/>
<path d="M26.2129 89.1149H23.9629L28.0595 77.4785H30.6618L34.764 89.1149H32.514L29.4061 79.8649H29.3152L26.2129 89.1149ZM26.2868 84.5524H32.4231V86.2456H26.2868V84.5524Z" fill="white"/>
<path d="M39.1788 89.2683C38.4932 89.2683 37.8796 89.0922 37.3379 88.7399C36.7962 88.3876 36.3682 87.8762 36.0538 87.2058C35.7394 86.5353 35.5822 85.7209 35.5822 84.7626C35.5822 83.7929 35.7413 82.9747 36.0595 82.3081C36.3815 81.6376 36.8152 81.1319 37.3606 80.791C37.9061 80.4463 38.514 80.274 39.1845 80.274C39.6958 80.274 40.1163 80.3611 40.4458 80.5353C40.7754 80.7058 41.0368 80.9122 41.2299 81.1547C41.4231 81.3933 41.5727 81.6187 41.6788 81.8308H41.764V77.4785H43.8265V89.1149H41.8038V87.7399H41.6788C41.5727 87.952 41.4193 88.1774 41.2186 88.416C41.0178 88.6509 40.7527 88.8516 40.4231 89.0183C40.0936 89.185 39.6788 89.2683 39.1788 89.2683ZM39.7527 87.5808C40.1883 87.5808 40.5595 87.4634 40.8663 87.2285C41.1731 86.9899 41.4061 86.6584 41.5652 86.2342C41.7243 85.81 41.8038 85.3156 41.8038 84.7512C41.8038 84.1868 41.7243 83.6963 41.5652 83.2797C41.4099 82.863 41.1788 82.5391 40.872 82.3081C40.569 82.077 40.1958 81.9615 39.7527 81.9615C39.2943 81.9615 38.9118 82.0808 38.6049 82.3194C38.2981 82.5581 38.0671 82.8876 37.9118 83.3081C37.7565 83.7285 37.6788 84.2096 37.6788 84.7512C37.6788 85.2967 37.7565 85.7834 37.9118 86.2115C38.0708 86.6357 38.3038 86.9709 38.6106 87.2172C38.9212 87.4596 39.3019 87.5808 39.7527 87.5808Z" fill="white"/>
<path d="M49.2569 89.2683C48.5713 89.2683 47.9577 89.0922 47.416 88.7399C46.8743 88.3876 46.4463 87.8762 46.1319 87.2058C45.8175 86.5353 45.6603 85.7209 45.6603 84.7626C45.6603 83.7929 45.8194 82.9747 46.1376 82.3081C46.4596 81.6376 46.8933 81.1319 47.4387 80.791C47.9842 80.4463 48.5922 80.274 49.2626 80.274C49.774 80.274 50.1944 80.3611 50.524 80.5353C50.8535 80.7058 51.1149 80.9122 51.3081 81.1547C51.5012 81.3933 51.6509 81.6187 51.7569 81.8308H51.8422V77.4785H53.9047V89.1149H51.8819V87.7399H51.7569C51.6509 87.952 51.4975 88.1774 51.2967 88.416C51.0959 88.6509 50.8308 88.8516 50.5012 89.0183C50.1717 89.185 49.7569 89.2683 49.2569 89.2683ZM49.8308 87.5808C50.2664 87.5808 50.6376 87.4634 50.9444 87.2285C51.2512 86.9899 51.4842 86.6584 51.6433 86.2342C51.8024 85.81 51.8819 85.3156 51.8819 84.7512C51.8819 84.1868 51.8024 83.6963 51.6433 83.2797C51.488 82.863 51.2569 82.5391 50.9501 82.3081C50.6471 82.077 50.274 81.9615 49.8308 81.9615C49.3725 81.9615 48.9899 82.0808 48.6831 82.3194C48.3762 82.5581 48.1452 82.8876 47.9899 83.3081C47.8346 83.7285 47.7569 84.2096 47.7569 84.7512C47.7569 85.2967 47.8346 85.7834 47.9899 86.2115C48.149 86.6357 48.3819 86.9709 48.6887 87.2172C48.9993 87.4596 49.38 87.5808 49.8308 87.5808Z" fill="white"/>
<path d="M61.6504 89.1149H59.4004L63.497 77.4785H66.0993L70.2015 89.1149H67.9515L64.8436 79.8649H64.7527L61.6504 89.1149ZM61.7243 84.5524H67.8606V86.2456H61.7243V84.5524Z" fill="white"/>
<path d="M71.6433 92.3876V80.3876H73.666V81.8308H73.7853C73.8914 81.6187 74.041 81.3933 74.2342 81.1547C74.4274 80.9122 74.6887 80.7058 75.0183 80.5353C75.3478 80.3611 75.7683 80.274 76.2797 80.274C76.9539 80.274 77.5618 80.4463 78.1035 80.791C78.649 81.1319 79.0808 81.6376 79.399 82.3081C79.7209 82.9747 79.8819 83.7929 79.8819 84.7626C79.8819 85.7209 79.7247 86.5353 79.4103 87.2058C79.0959 87.8762 78.6679 88.3876 78.1262 88.7399C77.5846 89.0922 76.9709 89.2683 76.2853 89.2683C75.7853 89.2683 75.3706 89.185 75.041 89.0183C74.7115 88.8516 74.4463 88.6509 74.2456 88.416C74.0486 88.1774 73.8952 87.952 73.7853 87.7399H73.7001V92.3876H71.6433ZM73.6603 84.7512C73.6603 85.3156 73.7399 85.81 73.899 86.2342C74.0619 86.6584 74.2948 86.9899 74.5978 87.2285C74.9047 87.4634 75.2759 87.5808 75.7115 87.5808C76.166 87.5808 76.5467 87.4596 76.8535 87.2172C77.1603 86.9709 77.3914 86.6357 77.5467 86.2115C77.7058 85.7834 77.7853 85.2967 77.7853 84.7512C77.7853 84.2096 77.7077 83.7285 77.5524 83.3081C77.3971 82.8876 77.166 82.5581 76.8592 82.3194C76.5524 82.0808 76.1698 81.9615 75.7115 81.9615C75.2721 81.9615 74.899 82.077 74.5922 82.3081C74.2853 82.5391 74.0524 82.863 73.8933 83.2797C73.738 83.6963 73.6603 84.1868 73.6603 84.7512Z" fill="white"/>
<path d="M81.6433 92.3876V80.3876H83.666V81.8308H83.7853C83.8914 81.6187 84.041 81.3933 84.2342 81.1547C84.4274 80.9122 84.6887 80.7058 85.0183 80.5353C85.3478 80.3611 85.7683 80.274 86.2797 80.274C86.9539 80.274 87.5618 80.4463 88.1035 80.791C88.649 81.1319 89.0808 81.6376 89.399 82.3081C89.7209 82.9747 89.8819 83.7929 89.8819 84.7626C89.8819 85.7209 89.7247 86.5353 89.4103 87.2058C89.0959 87.8762 88.6679 88.3876 88.1262 88.7399C87.5846 89.0922 86.9709 89.2683 86.2853 89.2683C85.7853 89.2683 85.3706 89.185 85.041 89.0183C84.7115 88.8516 84.4463 88.6509 84.2456 88.416C84.0486 88.1774 83.8952 87.952 83.7853 87.7399H83.7001V92.3876H81.6433ZM83.6603 84.7512C83.6603 85.3156 83.7399 85.81 83.899 86.2342C84.0619 86.6584 84.2948 86.9899 84.5978 87.2285C84.9047 87.4634 85.2759 87.5808 85.7115 87.5808C86.166 87.5808 86.5467 87.4596 86.8535 87.2172C87.1603 86.9709 87.3914 86.6357 87.5467 86.2115C87.7058 85.7834 87.7853 85.2967 87.7853 84.7512C87.7853 84.2096 87.7077 83.7285 87.5524 83.3081C87.3971 82.8876 87.166 82.5581 86.8592 82.3194C86.5524 82.0808 86.1698 81.9615 85.7115 81.9615C85.2721 81.9615 84.899 82.077 84.5922 82.3081C84.2853 82.5391 84.0524 82.863 83.8933 83.2797C83.738 83.6963 83.6603 84.1868 83.6603 84.7512Z" fill="white"/>
<path d="M91.6433 77.4785H93.7001V86.6149C93.7001 86.9406 93.7493 87.1736 93.8478 87.3137C93.9463 87.4539 94.1206 87.5202 94.3706 87.5126C94.5069 87.5088 94.6092 87.5012 94.6774 87.4899C94.7494 87.4747 94.8137 87.4596 94.8706 87.4444L95.2115 89.0012C95.0903 89.0391 94.9387 89.0751 94.7569 89.1092C94.5789 89.1433 94.3592 89.1641 94.0978 89.1717C93.2645 89.1944 92.6471 89.0202 92.2456 88.649C91.844 88.2778 91.6433 87.7115 91.6433 86.9501V77.4785Z" fill="white"/>
<path d="M96.237 89.1149V80.3876H98.2939V89.1149H96.237ZM97.2711 79.149C96.9454 79.149 96.6651 79.041 96.4302 78.8251C96.1954 78.6054 96.0779 78.3422 96.0779 78.0353C96.0779 77.7247 96.1954 77.4615 96.4302 77.2456C96.6651 77.0259 96.9454 76.916 97.2711 76.916C97.6007 76.916 97.881 77.0259 98.112 77.2456C98.3469 77.4615 98.4643 77.7247 98.4643 78.0353C98.4643 78.3422 98.3469 78.6054 98.112 78.8251C97.881 79.041 97.6007 79.149 97.2711 79.149Z" fill="white"/>
<path d="M104.216 89.2853C103.345 89.2853 102.596 89.094 101.971 88.7115C101.35 88.3289 100.871 87.8005 100.534 87.1262C100.201 86.4482 100.034 85.6679 100.034 84.7853C100.034 83.899 100.204 83.1168 100.545 82.4387C100.886 81.7569 101.367 81.2266 101.988 80.8478C102.613 80.4653 103.352 80.274 104.204 80.274C104.913 80.274 105.54 80.4047 106.085 80.666C106.634 80.9236 107.072 81.2891 107.398 81.7626C107.723 82.2323 107.909 82.7815 107.954 83.4103H105.988C105.909 82.9899 105.72 82.6395 105.42 82.3592C105.125 82.0751 104.729 81.9331 104.233 81.9331C103.812 81.9331 103.443 82.0467 103.125 82.274C102.807 82.4975 102.559 82.8194 102.381 83.2399C102.206 83.6603 102.119 84.1641 102.119 84.7512C102.119 85.3459 102.206 85.8573 102.381 86.2853C102.555 86.7096 102.799 87.0372 103.113 87.2683C103.432 87.4956 103.805 87.6092 104.233 87.6092C104.536 87.6092 104.807 87.5524 105.045 87.4387C105.288 87.3213 105.49 87.1528 105.653 86.9331C105.816 86.7134 105.928 86.4463 105.988 86.1319H107.954C107.905 86.7493 107.723 87.2967 107.409 87.774C107.095 88.2475 106.666 88.6187 106.125 88.8876C105.583 89.1528 104.947 89.2853 104.216 89.2853Z" fill="white"/>
<path d="M112.155 89.291C111.602 89.291 111.104 89.1925 110.66 88.9956C110.221 88.7948 109.872 88.4993 109.615 88.1092C109.361 87.719 109.234 87.238 109.234 86.666C109.234 86.1736 109.325 85.7664 109.507 85.4444C109.689 85.1225 109.937 84.8649 110.251 84.6717C110.566 84.4785 110.92 84.3327 111.314 84.2342C111.711 84.1319 112.122 84.0581 112.547 84.0126C113.058 83.9596 113.473 83.9122 113.791 83.8706C114.109 83.8251 114.34 83.7569 114.484 83.666C114.632 83.5713 114.706 83.4255 114.706 83.2285V83.1944C114.706 82.7664 114.579 82.435 114.325 82.2001C114.071 81.9653 113.706 81.8478 113.229 81.8478C112.725 81.8478 112.325 81.9577 112.03 82.1774C111.738 82.3971 111.541 82.6565 111.439 82.9558L109.518 82.6831C109.67 82.1528 109.92 81.7096 110.268 81.3535C110.617 80.9937 111.043 80.7247 111.547 80.5467C112.05 80.3649 112.607 80.274 113.217 80.274C113.638 80.274 114.056 80.3232 114.473 80.4217C114.89 80.5202 115.27 80.6831 115.615 80.9103C115.96 81.1338 116.236 81.4387 116.444 81.8251C116.657 82.2115 116.763 82.6944 116.763 83.274V89.1149H114.785V87.916H114.717C114.592 88.1584 114.416 88.3857 114.189 88.5978C113.965 88.8062 113.683 88.9747 113.342 89.1035C113.005 89.2285 112.609 89.291 112.155 89.291ZM112.689 87.7797C113.102 87.7797 113.46 87.6982 113.763 87.5353C114.066 87.3687 114.299 87.149 114.461 86.8762C114.628 86.6035 114.711 86.3062 114.711 85.9842V84.9558C114.647 85.0088 114.537 85.0581 114.382 85.1035C114.23 85.149 114.06 85.1887 113.871 85.2228C113.681 85.2569 113.494 85.2872 113.308 85.3137C113.122 85.3403 112.961 85.363 112.825 85.3819C112.518 85.4236 112.244 85.4918 112.001 85.5865C111.759 85.6812 111.568 85.8137 111.427 85.9842C111.287 86.1509 111.217 86.3668 111.217 86.6319C111.217 87.0107 111.355 87.2967 111.632 87.4899C111.908 87.6831 112.261 87.7797 112.689 87.7797Z" fill="white"/>
<path d="M120.888 84.0012V89.1149H118.831V80.3876H120.797V81.8706H120.899C121.1 81.3819 121.42 80.9937 121.859 80.7058C122.302 80.4179 122.85 80.274 123.501 80.274C124.104 80.274 124.628 80.4028 125.075 80.6603C125.526 80.9179 125.874 81.291 126.121 81.7797C126.371 82.2683 126.494 82.8611 126.49 83.5581V89.1149H124.433V83.8762C124.433 83.2929 124.282 82.8365 123.979 82.5069C123.679 82.1774 123.265 82.0126 122.734 82.0126C122.374 82.0126 122.054 82.0922 121.774 82.2512C121.497 82.4065 121.28 82.6319 121.121 82.9274C120.965 83.2228 120.888 83.5808 120.888 84.0012Z" fill="white"/>
<path d="M132.939 80.3876V81.9785H127.922V80.3876H132.939ZM129.16 78.2967H131.217V86.4899C131.217 86.7664 131.259 86.9785 131.342 87.1262C131.429 87.2702 131.543 87.3687 131.683 87.4217C131.823 87.4747 131.979 87.5012 132.149 87.5012C132.278 87.5012 132.395 87.4918 132.501 87.4728C132.611 87.4539 132.694 87.4368 132.751 87.4217L133.098 89.0297C132.988 89.0675 132.831 89.1092 132.626 89.1547C132.425 89.2001 132.179 89.2266 131.888 89.2342C131.372 89.2493 130.908 89.1717 130.496 89.0012C130.083 88.827 129.755 88.5581 129.513 88.1944C129.274 87.8308 129.157 87.3762 129.16 86.8308V78.2967Z" fill="white"/>
<path d="M141.432 82.6944L139.557 82.899C139.504 82.7096 139.411 82.5315 139.278 82.3649C139.149 82.1982 138.975 82.0637 138.756 81.9615C138.536 81.8592 138.267 81.8081 137.949 81.8081C137.521 81.8081 137.161 81.9009 136.869 82.0865C136.581 82.2721 136.439 82.5126 136.443 82.8081C136.439 83.0618 136.532 83.2683 136.721 83.4274C136.915 83.5865 137.233 83.7172 137.676 83.8194L139.165 84.1376C139.99 84.3156 140.604 84.5978 141.006 84.9842C141.411 85.3706 141.615 85.8762 141.619 86.5012C141.615 87.0505 141.454 87.5353 141.136 87.9558C140.822 88.3725 140.384 88.6982 139.824 88.9331C139.263 89.1679 138.619 89.2853 137.892 89.2853C136.824 89.2853 135.964 89.0618 135.312 88.6149C134.661 88.1641 134.273 87.5372 134.148 86.7342L136.153 86.541C136.244 86.935 136.437 87.2323 136.733 87.4331C137.028 87.6338 137.413 87.7342 137.886 87.7342C138.375 87.7342 138.767 87.6338 139.062 87.4331C139.362 87.2323 139.511 86.9842 139.511 86.6887C139.511 86.4387 139.415 86.2323 139.221 86.0694C139.032 85.9065 138.737 85.7815 138.335 85.6944L136.846 85.3819C136.009 85.2077 135.39 84.9141 134.988 84.5012C134.587 84.0846 134.388 83.5581 134.392 82.9217C134.388 82.3838 134.534 81.9179 134.829 81.524C135.129 81.1262 135.543 80.8194 136.074 80.6035C136.608 80.3838 137.223 80.274 137.92 80.274C138.943 80.274 139.748 80.4918 140.335 80.9274C140.926 81.363 141.291 81.952 141.432 82.6944Z" fill="white"/>
<path d="M7.37301 29.725H6.31485C6.25227 29.4206 6.14276 29.1533 5.98631 28.9229C5.8327 28.6924 5.64496 28.499 5.42309 28.3426C5.20406 28.1833 4.96085 28.0638 4.69347 27.9842C4.42608 27.9045 4.14732 27.8647 3.85718 27.8647C3.3281 27.8647 2.84879 27.9984 2.41927 28.2658C1.99259 28.5332 1.65267 28.9271 1.39951 29.4477C1.14919 29.9682 1.02403 30.6068 1.02403 31.3635C1.02403 32.1201 1.14919 32.7587 1.39951 33.2792C1.65267 33.7998 1.99259 34.1938 2.41927 34.4611C2.84879 34.7285 3.3281 34.8622 3.85718 34.8622C4.14732 34.8622 4.42608 34.8224 4.69347 34.7428C4.96085 34.6631 5.20406 34.5451 5.42309 34.3886C5.64496 34.2293 5.8327 34.0345 5.98631 33.8041C6.14276 33.5708 6.25227 33.3034 6.31485 33.0019H7.37301C7.29337 33.4485 7.1483 33.8482 6.9378 34.2009C6.72731 34.5536 6.46561 34.8537 6.15271 35.1012C5.83981 35.3458 5.48851 35.5321 5.09881 35.6601C4.71196 35.7881 4.29808 35.8521 3.85718 35.8521C3.11191 35.8521 2.44914 35.6701 1.86885 35.306C1.28857 34.9419 0.832024 34.4242 0.499215 33.7529C0.166405 33.0816 0 32.2851 0 31.3635C0 30.4418 0.166405 29.6454 0.499215 28.9741C0.832024 28.3027 1.28857 27.785 1.86885 27.4209C2.44914 27.0568 3.11191 26.8748 3.85718 26.8748C4.29808 26.8748 4.71196 26.9388 5.09881 27.0668C5.48851 27.1948 5.83981 27.3825 6.15271 27.63C6.46561 27.8746 6.72731 28.1733 6.9378 28.526C7.1483 28.8759 7.29337 29.2756 7.37301 29.725Z" fill="#545454"/>
<path d="M8.94639 26.9943H9.95335V34.0259C9.95335 34.3445 9.98891 34.5678 10.06 34.6958C10.1311 34.8238 10.2776 34.885 10.4995 34.8793C10.619 34.8736 10.7072 34.8651 10.764 34.8537C10.8238 34.8395 10.8778 34.8252 10.9262 34.811L11.131 35.6815C11.0428 35.7071 10.9319 35.7298 10.7982 35.7497C10.6645 35.7725 10.5251 35.7839 10.38 35.7839C9.90215 35.7839 9.54374 35.653 9.3048 35.3913C9.06586 35.1296 8.94639 34.7655 8.94639 34.299V26.9943Z" fill="#545454"/>
<path d="M12.0558 35.7327V29.1789H13.0628V35.7327H12.0558ZM12.5678 28.0866C12.3716 28.0866 12.2023 28.0197 12.0601 27.886C11.9207 27.7523 11.851 27.5916 11.851 27.4039C11.851 27.2161 11.9207 27.0554 12.0601 26.9217C12.2023 26.788 12.3716 26.7212 12.5678 26.7212C12.7641 26.7212 12.9319 26.788 13.0713 26.9217C13.2135 27.0554 13.2847 27.2161 13.2847 27.4039C13.2847 27.5916 13.2135 27.7523 13.0713 27.886C12.9319 28.0197 12.7641 28.0866 12.5678 28.0866Z" fill="#545454"/>
<path d="M17.5696 35.8692C16.9552 35.8692 16.4261 35.7241 15.9823 35.434C15.5386 35.1438 15.1972 34.7442 14.9583 34.235C14.7194 33.7258 14.5999 33.1441 14.5999 32.4899C14.5999 31.8243 14.7222 31.2369 14.9668 30.7277C15.2143 30.2157 15.5585 29.816 15.9994 29.5287C16.4431 29.2386 16.9608 29.0935 17.5525 29.0935C18.0133 29.0935 18.4286 29.1789 18.7984 29.3495C19.1682 29.5202 19.4711 29.7591 19.7072 30.0664C19.9433 30.3736 20.0898 30.732 20.1467 31.1416H19.1398C19.063 30.8429 18.8923 30.5784 18.6277 30.348C18.366 30.1147 18.0133 29.9981 17.5696 29.9981C17.177 29.9981 16.8328 30.1005 16.537 30.3053C16.244 30.5073 16.015 30.7931 15.8501 31.1629C15.6879 31.5299 15.6069 31.9608 15.6069 32.4558C15.6069 32.9621 15.6865 33.403 15.8458 33.7785C16.0079 34.1539 16.2355 34.4455 16.5285 34.6532C16.8243 34.8608 17.1713 34.9646 17.5696 34.9646C17.8313 34.9646 18.0688 34.9191 18.2821 34.8281C18.4955 34.7371 18.6761 34.6062 18.824 34.4355C18.9719 34.2649 19.0772 34.0601 19.1398 33.8211H20.1467C20.0898 34.208 19.949 34.5564 19.7243 34.8665C19.5024 35.1737 19.208 35.4183 18.8411 35.6004C18.477 35.7796 18.0531 35.8692 17.5696 35.8692Z" fill="#545454"/>
<path d="M22.5575 33.3432L22.5404 32.0973H22.7452L25.6125 29.1789H26.8584L23.8034 32.268H23.718L22.5575 33.3432ZM21.6188 35.7327V26.9943H22.6257V35.7327H21.6188ZM25.7831 35.7327L23.2231 32.4899L23.9399 31.7901L27.0632 35.7327H25.7831Z" fill="#545454"/>
<path d="M31.6702 35.7327V26.9943H32.6772V30.22H32.7625C32.8365 30.1062 32.9389 29.9611 33.0698 29.7847C33.2034 29.6055 33.394 29.4462 33.6415 29.3069C33.8918 29.1646 34.2303 29.0935 34.657 29.0935C35.2088 29.0935 35.6953 29.2315 36.1162 29.5074C36.5372 29.7833 36.8658 30.1744 37.1019 30.6808C37.338 31.1871 37.456 31.7844 37.456 32.4728C37.456 33.1669 37.338 33.7685 37.1019 34.2777C36.8658 34.784 36.5387 35.1765 36.1205 35.4553C35.7024 35.7312 35.2202 35.8692 34.6741 35.8692C34.2531 35.8692 33.916 35.7995 33.6628 35.6601C33.4097 35.5179 33.2148 35.3572 33.0783 35.178C32.9418 34.9959 32.8365 34.8452 32.7625 34.7257H32.6431V35.7327H31.6702ZM32.6601 32.4558C32.6601 32.9507 32.7327 33.3873 32.8777 33.7657C33.0228 34.1411 33.2347 34.4355 33.5135 34.6489C33.7923 34.8594 34.1336 34.9646 34.5375 34.9646C34.9585 34.9646 35.3098 34.8537 35.5914 34.6318C35.8759 34.4071 36.0892 34.1056 36.2314 33.7273C36.3765 33.3461 36.4491 32.9223 36.4491 32.4558C36.4491 31.9949 36.3779 31.5796 36.2357 31.2099C36.0963 30.8372 35.8844 30.5428 35.6 30.3266C35.3184 30.1076 34.9642 29.9981 34.5375 29.9981C34.1279 29.9981 33.7837 30.1019 33.505 30.3096C33.2262 30.5144 33.0157 30.8017 32.8735 31.1715C32.7313 31.5384 32.6601 31.9665 32.6601 32.4558Z" fill="#545454"/>
<path d="M41.7441 35.8692C41.1127 35.8692 40.5679 35.7298 40.11 35.451C39.6548 35.1694 39.3035 34.7769 39.0561 34.2734C38.8114 33.7671 38.6891 33.1783 38.6891 32.507C38.6891 31.8356 38.8114 31.244 39.0561 30.732C39.3035 30.2171 39.6477 29.816 40.0886 29.5287C40.5324 29.2386 41.0501 29.0935 41.6417 29.0935C41.9831 29.0935 42.3202 29.1504 42.653 29.2642C42.9858 29.378 43.2887 29.5629 43.5618 29.8189C43.8349 30.072 44.0525 30.4077 44.2146 30.8258C44.3767 31.244 44.4578 31.7588 44.4578 32.3704V32.7971H39.4059V31.9267H43.4338C43.4338 31.5569 43.3598 31.2269 43.2119 30.9368C43.0668 30.6466 42.8592 30.4177 42.589 30.2498C42.3216 30.082 42.0058 29.9981 41.6417 29.9981C41.2407 29.9981 40.8936 30.0976 40.6006 30.2968C40.3105 30.493 40.0872 30.749 39.9308 31.0648C39.7743 31.3805 39.6961 31.719 39.6961 32.0803V32.6606C39.6961 33.1555 39.7814 33.5751 39.9521 33.9193C40.1256 34.2606 40.366 34.5209 40.6732 34.7001C40.9804 34.8764 41.3374 34.9646 41.7441 34.9646C42.0087 34.9646 42.2476 34.9277 42.461 34.8537C42.6771 34.7769 42.8635 34.6631 43.0199 34.5123C43.1764 34.3587 43.2972 34.1682 43.3826 33.9406L44.3554 34.2137C44.253 34.5436 44.0809 34.8338 43.8391 35.0841C43.5973 35.3316 43.2987 35.525 42.9431 35.6644C42.5875 35.8009 42.1879 35.8692 41.7441 35.8692Z" fill="#545454"/>
<path d="M45.9896 26.9943H46.9966V34.0259C46.9966 34.3445 47.0321 34.5678 47.1032 34.6958C47.1743 34.8238 47.3208 34.885 47.5427 34.8793C47.6622 34.8736 47.7504 34.8651 47.8072 34.8537C47.867 34.8395 47.921 34.8252 47.9694 34.811L48.1742 35.6815C48.086 35.7071 47.9751 35.7298 47.8414 35.7497C47.7077 35.7725 47.5683 35.7839 47.4232 35.7839C46.9454 35.7839 46.5869 35.653 46.348 35.3913C46.1091 35.1296 45.9896 34.7655 45.9896 34.299V26.9943Z" fill="#545454"/>
<path d="M51.7615 35.8692C51.1698 35.8692 50.6507 35.7284 50.2041 35.4468C49.7604 35.1652 49.4133 34.7712 49.163 34.2649C48.9155 33.7586 48.7918 33.1669 48.7918 32.4899C48.7918 31.8072 48.9155 31.2113 49.163 30.7021C49.4133 30.1929 49.7604 29.7975 50.2041 29.5159C50.6507 29.2343 51.1698 29.0935 51.7615 29.0935C52.3532 29.0935 52.8709 29.2343 53.3146 29.5159C53.7612 29.7975 54.1082 30.1929 54.3557 30.7021C54.606 31.2113 54.7312 31.8072 54.7312 32.4899C54.7312 33.1669 54.606 33.7586 54.3557 34.2649C54.1082 34.7712 53.7612 35.1652 53.3146 35.4468C52.8709 35.7284 52.3532 35.8692 51.7615 35.8692ZM51.7615 34.9646C52.2109 34.9646 52.5807 34.8494 52.8709 34.619C53.161 34.3886 53.3758 34.0857 53.5151 33.7102C53.6545 33.3347 53.7242 32.9279 53.7242 32.4899C53.7242 32.0518 53.6545 31.6436 53.5151 31.2653C53.3758 30.887 53.161 30.5812 52.8709 30.348C52.5807 30.1147 52.2109 29.9981 51.7615 29.9981C51.3121 29.9981 50.9423 30.1147 50.6521 30.348C50.362 30.5812 50.1472 30.887 50.0078 31.2653C49.8685 31.6436 49.7988 32.0518 49.7988 32.4899C49.7988 32.9279 49.8685 33.3347 50.0078 33.7102C50.1472 34.0857 50.362 34.3886 50.6521 34.619C50.9423 34.8494 51.3121 34.9646 51.7615 34.9646Z" fill="#545454"/>
<path d="M57.5302 35.7327L55.5333 29.1789H56.5915L58.0081 34.1966H58.0763L59.4758 29.1789H60.5511L61.9335 34.1795H62.0018L63.4184 29.1789H64.4765L62.4797 35.7327H61.4898L60.0561 30.6978H59.9537L58.5201 35.7327H57.5302Z" fill="#545454"/>
<path d="M72.0373 29.1789V30.0322H68.6409V29.1789H72.0373ZM69.6308 27.6087H70.6378V33.8553C70.6378 34.1397 70.679 34.3531 70.7615 34.4953C70.8468 34.6347 70.9549 34.7285 71.0858 34.7769C71.2195 34.8224 71.3603 34.8452 71.5082 34.8452C71.6191 34.8452 71.7102 34.8395 71.7813 34.8281C71.8524 34.8139 71.9093 34.8025 71.9519 34.794L72.1567 35.6985C72.0885 35.7241 71.9932 35.7497 71.8709 35.7753C71.7486 35.8038 71.5935 35.818 71.4058 35.818C71.1213 35.818 70.8426 35.7568 70.5695 35.6345C70.2993 35.5122 70.0746 35.3259 69.8953 35.0756C69.719 34.8252 69.6308 34.5095 69.6308 34.1283V27.6087Z" fill="#545454"/>
<path d="M76.1441 35.8692C75.5524 35.8692 75.0333 35.7284 74.5867 35.4468C74.1429 35.1652 73.7959 34.7712 73.5456 34.2649C73.2981 33.7586 73.1744 33.1669 73.1744 32.4899C73.1744 31.8072 73.2981 31.2113 73.5456 30.7021C73.7959 30.1929 74.1429 29.7975 74.5867 29.5159C75.0333 29.2343 75.5524 29.0935 76.1441 29.0935C76.7357 29.0935 77.2534 29.2343 77.6972 29.5159C78.1438 29.7975 78.4908 30.1929 78.7383 30.7021C78.9886 31.2113 79.1137 31.8072 79.1137 32.4899C79.1137 33.1669 78.9886 33.7586 78.7383 34.2649C78.4908 34.7712 78.1438 35.1652 77.6972 35.4468C77.2534 35.7284 76.7357 35.8692 76.1441 35.8692ZM76.1441 34.9646C76.5935 34.9646 76.9633 34.8494 77.2534 34.619C77.5436 34.3886 77.7583 34.0857 77.8977 33.7102C78.0371 33.3347 78.1068 32.9279 78.1068 32.4899C78.1068 32.0518 78.0371 31.6436 77.8977 31.2653C77.7583 30.887 77.5436 30.5812 77.2534 30.348C76.9633 30.1147 76.5935 29.9981 76.1441 29.9981C75.6946 29.9981 75.3248 30.1147 75.0347 30.348C74.7446 30.5812 74.5298 30.887 74.3904 31.2653C74.251 31.6436 74.1813 32.0518 74.1813 32.4899C74.1813 32.9279 74.251 33.3347 74.3904 33.7102C74.5298 34.0857 74.7446 34.3886 75.0347 34.619C75.3248 34.8494 75.6946 34.9646 76.1441 34.9646Z" fill="#545454"/>
<path d="M85.9587 35.8863C85.5434 35.8863 85.1665 35.808 84.828 35.6516C84.4895 35.4923 84.2207 35.2633 84.0216 34.9646C83.8225 34.6631 83.723 34.299 83.723 33.8723C83.723 33.4969 83.7969 33.1925 83.9448 32.9592C84.0927 32.7231 84.2904 32.5382 84.5379 32.4046C84.7854 32.2709 85.0585 32.1713 85.3571 32.1059C85.6586 32.0376 85.9616 31.9836 86.266 31.9437C86.6642 31.8925 86.987 31.8541 87.2345 31.8285C87.4848 31.8001 87.6669 31.7532 87.7807 31.6877C87.8973 31.6223 87.9556 31.5085 87.9556 31.3464V31.3123C87.9556 30.8913 87.8404 30.5641 87.61 30.3309C87.3824 30.0976 87.0368 29.981 86.5732 29.981C86.0924 29.981 85.7155 30.0863 85.4425 30.2968C85.1694 30.5073 84.9774 30.732 84.8664 30.9709L83.9107 30.6296C84.0814 30.2313 84.3089 29.9213 84.5934 29.6994C84.8807 29.4747 85.1936 29.3182 85.5321 29.2301C85.8734 29.139 86.2091 29.0935 86.539 29.0935C86.7495 29.0935 86.9913 29.1191 87.2644 29.1703C87.5403 29.2187 87.8063 29.3197 88.0623 29.4733C88.3211 29.6269 88.5359 29.8587 88.7066 30.1688C88.8772 30.4788 88.9626 30.8941 88.9626 31.4147V35.7327H87.9556V34.8452H87.9044C87.8361 34.9874 87.7224 35.1396 87.5631 35.3017C87.4038 35.4638 87.1919 35.6018 86.9273 35.7156C86.6628 35.8294 86.3399 35.8863 85.9587 35.8863ZM86.1124 34.9817C86.5106 34.9817 86.8462 34.9035 87.1193 34.747C87.3952 34.5906 87.6029 34.3886 87.7423 34.1411C87.8845 33.8937 87.9556 33.6334 87.9556 33.3603V32.4387C87.9129 32.4899 87.8191 32.5368 87.674 32.5795C87.5318 32.6193 87.3668 32.6549 87.179 32.6862C86.9942 32.7146 86.8135 32.7402 86.6372 32.763C86.4636 32.7829 86.3228 32.7999 86.2148 32.8142C85.9531 32.8483 85.7084 32.9038 85.4809 32.9806C85.2561 33.0545 85.0741 33.1669 84.9347 33.3176C84.7982 33.4656 84.7299 33.6675 84.7299 33.9235C84.7299 34.2734 84.8593 34.5379 85.1182 34.7172C85.3799 34.8935 85.7113 34.9817 86.1124 34.9817Z" fill="#545454"/>
<path d="M93.2752 35.8692C92.7291 35.8692 92.2469 35.7312 91.8288 35.4553C91.4106 35.1765 91.0835 34.784 90.8474 34.2777C90.6113 33.7685 90.4933 33.1669 90.4933 32.4728C90.4933 31.7844 90.6113 31.1871 90.8474 30.6808C91.0835 30.1744 91.4121 29.7833 91.833 29.5074C92.254 29.2315 92.7405 29.0935 93.2923 29.0935C93.719 29.0935 94.056 29.1646 94.3035 29.3069C94.5538 29.4462 94.7444 29.6055 94.8753 29.7847C95.009 29.9611 95.1128 30.1062 95.1867 30.22H95.2721V26.9943H96.279V35.7327H95.3062V34.7257H95.1867C95.1128 34.8452 95.0075 34.9959 94.871 35.178C94.7345 35.3572 94.5396 35.5179 94.2865 35.6601C94.0333 35.7995 93.6962 35.8692 93.2752 35.8692ZM93.4118 34.9646C93.8157 34.9646 94.157 34.8594 94.4358 34.6489C94.7146 34.4355 94.9265 34.1411 95.0715 33.7657C95.2166 33.3873 95.2891 32.9507 95.2891 32.4558C95.2891 31.9665 95.218 31.5384 95.0758 31.1715C94.9336 30.8017 94.7231 30.5144 94.4443 30.3096C94.1656 30.1019 93.8214 29.9981 93.4118 29.9981C92.9851 29.9981 92.6295 30.1076 92.3451 30.3266C92.0635 30.5428 91.8515 30.8372 91.7093 31.2099C91.5699 31.5796 91.5002 31.9949 91.5002 32.4558C91.5002 32.9223 91.5714 33.3461 91.7136 33.7273C91.8587 34.1056 92.072 34.4071 92.3536 34.6318C92.638 34.8537 92.9908 34.9646 93.4118 34.9646Z" fill="#545454"/>
<path d="M100.738 35.8692C100.192 35.8692 99.7095 35.7312 99.2914 35.4553C98.8733 35.1765 98.5461 34.784 98.31 34.2777C98.0739 33.7685 97.9559 33.1669 97.9559 32.4728C97.9559 31.7844 98.0739 31.1871 98.31 30.6808C98.5461 30.1744 98.8747 29.7833 99.2957 29.5074C99.7167 29.2315 100.203 29.0935 100.755 29.0935C101.182 29.0935 101.519 29.1646 101.766 29.3069C102.016 29.4462 102.207 29.6055 102.338 29.7847C102.472 29.9611 102.575 30.1062 102.649 30.22H102.735V26.9943H103.742V35.7327H102.769V34.7257H102.649C102.575 34.8452 102.47 34.9959 102.334 35.178C102.197 35.3572 102.002 35.5179 101.749 35.6601C101.496 35.7995 101.159 35.8692 100.738 35.8692ZM100.874 34.9646C101.278 34.9646 101.62 34.8594 101.898 34.6489C102.177 34.4355 102.389 34.1411 102.534 33.7657C102.679 33.3873 102.752 32.9507 102.752 32.4558C102.752 31.9665 102.681 31.5384 102.538 31.1715C102.396 30.8017 102.186 30.5144 101.907 30.3096C101.628 30.1019 101.284 29.9981 100.874 29.9981C100.448 29.9981 100.092 30.1076 99.8077 30.3266C99.5261 30.5428 99.3142 30.8372 99.1719 31.2099C99.0325 31.5796 98.9629 31.9949 98.9629 32.4558C98.9629 32.9223 99.034 33.3461 99.1762 33.7273C99.3213 34.1056 99.5346 34.4071 99.8162 34.6318C100.101 34.8537 100.453 34.9646 100.874 34.9646Z" fill="#545454"/>
<path d="M111.034 35.8863C110.618 35.8863 110.241 35.808 109.903 35.6516C109.564 35.4923 109.296 35.2633 109.096 34.9646C108.897 34.6631 108.798 34.299 108.798 33.8723C108.798 33.4969 108.872 33.1925 109.02 32.9592C109.168 32.7231 109.365 32.5382 109.613 32.4046C109.86 32.2709 110.133 32.1713 110.432 32.1059C110.734 32.0376 111.036 31.9836 111.341 31.9437C111.739 31.8925 112.062 31.8541 112.309 31.8285C112.56 31.8001 112.742 31.7532 112.856 31.6877C112.972 31.6223 113.03 31.5085 113.03 31.3464V31.3123C113.03 30.8913 112.915 30.5641 112.685 30.3309C112.457 30.0976 112.112 29.981 111.648 29.981C111.167 29.981 110.79 30.0863 110.517 30.2968C110.244 30.5073 110.052 30.732 109.941 30.9709L108.986 30.6296C109.156 30.2313 109.384 29.9213 109.668 29.6994C109.956 29.4747 110.268 29.3182 110.607 29.2301C110.948 29.139 111.284 29.0935 111.614 29.0935C111.824 29.0935 112.066 29.1191 112.339 29.1703C112.615 29.2187 112.881 29.3197 113.137 29.4733C113.396 29.6269 113.611 29.8587 113.781 30.1688C113.952 30.4788 114.037 30.8941 114.037 31.4147V35.7327H113.03V34.8452H112.979C112.911 34.9874 112.797 35.1396 112.638 35.3017C112.479 35.4638 112.267 35.6018 112.002 35.7156C111.738 35.8294 111.415 35.8863 111.034 35.8863ZM111.187 34.9817C111.585 34.9817 111.921 34.9035 112.194 34.747C112.47 34.5906 112.678 34.3886 112.817 34.1411C112.959 33.8937 113.03 33.6334 113.03 33.3603V32.4387C112.988 32.4899 112.894 32.5368 112.749 32.5795C112.607 32.6193 112.442 32.6549 112.254 32.6862C112.069 32.7146 111.888 32.7402 111.712 32.763C111.539 32.7829 111.398 32.7999 111.29 32.8142C111.028 32.8483 110.783 32.9038 110.556 32.9806C110.331 33.0545 110.149 33.1669 110.01 33.3176C109.873 33.4656 109.805 33.6675 109.805 33.9235C109.805 34.2734 109.934 34.5379 110.193 34.7172C110.455 34.8935 110.786 34.9817 111.187 34.9817Z" fill="#545454"/>
<path d="M115.875 38.1903V29.1789H116.848V30.22H116.968C117.042 30.1062 117.144 29.9611 117.275 29.7847C117.409 29.6055 117.599 29.4462 117.847 29.3069C118.097 29.1646 118.435 29.0935 118.862 29.0935C119.414 29.0935 119.9 29.2315 120.321 29.5074C120.742 29.7833 121.071 30.1744 121.307 30.6808C121.543 31.1871 121.661 31.7844 121.661 32.4728C121.661 33.1669 121.543 33.7685 121.307 34.2777C121.071 34.784 120.744 35.1765 120.326 35.4553C119.907 35.7312 119.425 35.8692 118.879 35.8692C118.458 35.8692 118.121 35.7995 117.868 35.6601C117.615 35.5179 117.42 35.3572 117.283 35.178C117.147 34.9959 117.042 34.8452 116.968 34.7257H116.882V38.1903H115.875ZM116.865 32.4558C116.865 32.9507 116.938 33.3873 117.083 33.7657C117.228 34.1411 117.44 34.4355 117.719 34.6489C117.997 34.8594 118.339 34.9646 118.743 34.9646C119.164 34.9646 119.515 34.8537 119.797 34.6318C120.081 34.4071 120.294 34.1056 120.437 33.7273C120.582 33.3461 120.654 32.9223 120.654 32.4558C120.654 31.9949 120.583 31.5796 120.441 31.2099C120.301 30.8372 120.09 30.5428 119.805 30.3266C119.523 30.1076 119.169 29.9981 118.743 29.9981C118.333 29.9981 117.989 30.1019 117.71 30.3096C117.431 30.5144 117.221 30.8017 117.079 31.1715C116.936 31.5384 116.865 31.9665 116.865 32.4558Z" fill="#545454"/>
<path d="M123.197 38.1903V29.1789H124.17V30.22H124.289C124.363 30.1062 124.466 29.9611 124.597 29.7847C124.73 29.6055 124.921 29.4462 125.168 29.3069C125.419 29.1646 125.757 29.0935 126.184 29.0935C126.736 29.0935 127.222 29.2315 127.643 29.5074C128.064 29.7833 128.393 30.1744 128.629 30.6808C128.865 31.1871 128.983 31.7844 128.983 32.4728C128.983 33.1669 128.865 33.7685 128.629 34.2777C128.393 34.784 128.066 35.1765 127.647 35.4553C127.229 35.7312 126.747 35.8692 126.201 35.8692C125.78 35.8692 125.443 35.7995 125.19 35.6601C124.937 35.5179 124.742 35.3572 124.605 35.178C124.469 34.9959 124.363 34.8452 124.289 34.7257H124.204V38.1903H123.197ZM124.187 32.4558C124.187 32.9507 124.26 33.3873 124.405 33.7657C124.55 34.1411 124.762 34.4355 125.04 34.6489C125.319 34.8594 125.661 34.9646 126.064 34.9646C126.485 34.9646 126.837 34.8537 127.118 34.6318C127.403 34.4071 127.616 34.1056 127.758 33.7273C127.903 33.3461 127.976 32.9223 127.976 32.4558C127.976 31.9949 127.905 31.5796 127.763 31.2099C127.623 30.8372 127.411 30.5428 127.127 30.3266C126.845 30.1076 126.491 29.9981 126.064 29.9981C125.655 29.9981 125.311 30.1019 125.032 30.3096C124.753 30.5144 124.543 30.8017 124.4 31.1715C124.258 31.5384 124.187 31.9665 124.187 32.4558Z" fill="#545454"/>
<path d="M130.519 26.9943H131.526V34.0259C131.526 34.3445 131.561 34.5678 131.633 34.6958C131.704 34.8238 131.85 34.885 132.072 34.8793C132.192 34.8736 132.28 34.8651 132.337 34.8537C132.396 34.8395 132.45 34.8252 132.499 34.811L132.704 35.6815C132.615 35.7071 132.504 35.7298 132.371 35.7497C132.237 35.7725 132.098 35.7839 131.953 35.7839C131.475 35.7839 131.116 35.653 130.877 35.3913C130.638 35.1296 130.519 34.7655 130.519 34.299V26.9943Z" fill="#545454"/>
<path d="M133.628 35.7327V29.1789H134.635V35.7327H133.628ZM134.14 28.0866C133.944 28.0866 133.775 28.0197 133.633 27.886C133.493 27.7523 133.424 27.5916 133.424 27.4039C133.424 27.2161 133.493 27.0554 133.633 26.9217C133.775 26.788 133.944 26.7212 134.14 26.7212C134.337 26.7212 134.505 26.788 134.644 26.9217C134.786 27.0554 134.857 27.2161 134.857 27.4039C134.857 27.5916 134.786 27.7523 134.644 27.886C134.505 28.0197 134.337 28.0866 134.14 28.0866Z" fill="#545454"/>
<path d="M139.142 35.8692C138.528 35.8692 137.999 35.7241 137.555 35.434C137.111 35.1438 136.77 34.7442 136.531 34.235C136.292 33.7258 136.172 33.1441 136.172 32.4899C136.172 31.8243 136.295 31.2369 136.539 30.7277C136.787 30.2157 137.131 29.816 137.572 29.5287C138.016 29.2386 138.533 29.0935 139.125 29.0935C139.586 29.0935 140.001 29.1789 140.371 29.3495C140.741 29.5202 141.044 29.7591 141.28 30.0664C141.516 30.3736 141.662 30.732 141.719 31.1416H140.712C140.636 30.8429 140.465 30.5784 140.2 30.348C139.939 30.1147 139.586 29.9981 139.142 29.9981C138.75 29.9981 138.405 30.1005 138.11 30.3053C137.817 30.5073 137.588 30.7931 137.423 31.1629C137.261 31.5299 137.179 31.9608 137.179 32.4558C137.179 32.9621 137.259 33.403 137.418 33.7785C137.581 34.1539 137.808 34.4455 138.101 34.6532C138.397 34.8608 138.744 34.9646 139.142 34.9646C139.404 34.9646 139.641 34.9191 139.855 34.8281C140.068 34.7371 140.249 34.6062 140.397 34.4355C140.545 34.2649 140.65 34.0601 140.712 33.8211H141.719C141.662 34.208 141.522 34.5564 141.297 34.8665C141.075 35.1737 140.781 35.4183 140.414 35.6004C140.05 35.7796 139.626 35.8692 139.142 35.8692Z" fill="#545454"/>
<path d="M145.12 35.8863C144.705 35.8863 144.328 35.808 143.989 35.6516C143.651 35.4923 143.382 35.2633 143.183 34.9646C142.984 34.6631 142.884 34.299 142.884 33.8723C142.884 33.4969 142.958 33.1925 143.106 32.9592C143.254 32.7231 143.452 32.5382 143.699 32.4046C143.947 32.2709 144.22 32.1713 144.518 32.1059C144.82 32.0376 145.123 31.9836 145.427 31.9437C145.825 31.8925 146.148 31.8541 146.396 31.8285C146.646 31.8001 146.828 31.7532 146.942 31.6877C147.058 31.6223 147.117 31.5085 147.117 31.3464V31.3123C147.117 30.8913 147.002 30.5641 146.771 30.3309C146.544 30.0976 146.198 29.981 145.734 29.981C145.254 29.981 144.877 30.0863 144.604 30.2968C144.331 30.5073 144.139 30.732 144.028 30.9709L143.072 30.6296C143.243 30.2313 143.47 29.9213 143.755 29.6994C144.042 29.4747 144.355 29.3182 144.693 29.2301C145.035 29.139 145.37 29.0935 145.7 29.0935C145.911 29.0935 146.152 29.1191 146.426 29.1703C146.701 29.2187 146.967 29.3197 147.223 29.4733C147.482 29.6269 147.697 29.8587 147.868 30.1688C148.038 30.4788 148.124 30.8941 148.124 31.4147V35.7327H147.117V34.8452H147.066C146.997 34.9874 146.884 35.1396 146.724 35.3017C146.565 35.4638 146.353 35.6018 146.088 35.7156C145.824 35.8294 145.501 35.8863 145.12 35.8863ZM145.274 34.9817C145.672 34.9817 146.007 34.9035 146.28 34.747C146.556 34.5906 146.764 34.3886 146.903 34.1411C147.046 33.8937 147.117 33.6334 147.117 33.3603V32.4387C147.074 32.4899 146.98 32.5368 146.835 32.5795C146.693 32.6193 146.528 32.6549 146.34 32.6862C146.155 32.7146 145.975 32.7402 145.798 32.763C145.625 32.7829 145.484 32.7999 145.376 32.8142C145.114 32.8483 144.87 32.9038 144.642 32.9806C144.417 33.0545 144.235 33.1669 144.096 33.3176C143.959 33.4656 143.891 33.6675 143.891 33.9235C143.891 34.2734 144.021 34.5379 144.279 34.7172C144.541 34.8935 144.872 34.9817 145.274 34.9817Z" fill="#545454"/>
<path d="M150.969 31.7901V35.7327H149.962V29.1789H150.934V30.2029H151.02C151.173 29.8701 151.407 29.6027 151.72 29.4007C152.032 29.1959 152.436 29.0935 152.931 29.0935C153.375 29.0935 153.763 29.1846 154.096 29.3666C154.429 29.5458 154.688 29.8189 154.873 30.1858C155.058 30.5499 155.15 31.0107 155.15 31.5683V35.7327H154.143V31.6365C154.143 31.1217 154.009 30.7206 153.742 30.4333C153.475 30.1432 153.108 29.9981 152.641 29.9981C152.32 29.9981 152.032 30.0678 151.779 30.2072C151.529 30.3465 151.331 30.5499 151.186 30.8173C151.041 31.0847 150.969 31.409 150.969 31.7901Z" fill="#545454"/>
<path d="M159.84 29.1789V30.0322H156.444V29.1789H159.84ZM157.434 27.6087H158.441V33.8553C158.441 34.1397 158.482 34.3531 158.565 34.4953C158.65 34.6347 158.758 34.7285 158.889 34.7769C159.023 34.8224 159.163 34.8452 159.311 34.8452C159.422 34.8452 159.513 34.8395 159.584 34.8281C159.655 34.8139 159.712 34.8025 159.755 34.794L159.96 35.6985C159.892 35.7241 159.796 35.7497 159.674 35.7753C159.552 35.8038 159.397 35.818 159.209 35.818C158.924 35.818 158.646 35.7568 158.373 35.6345C158.102 35.5122 157.878 35.3259 157.698 35.0756C157.522 34.8252 157.434 34.5095 157.434 34.1283V27.6087Z" fill="#545454"/>
<path d="M165.88 30.6466L164.975 30.9026C164.919 30.7519 164.835 30.6054 164.724 30.4632C164.616 30.3181 164.468 30.1986 164.28 30.1048C164.092 30.0109 163.852 29.964 163.559 29.964C163.158 29.964 162.824 30.0564 162.556 30.2413C162.292 30.4233 162.159 30.6552 162.159 30.9368C162.159 31.1871 162.25 31.3848 162.432 31.5299C162.614 31.6749 162.899 31.7958 163.286 31.8925L164.259 32.1315C164.845 32.2737 165.281 32.4913 165.569 32.7843C165.856 33.0744 165.999 33.4485 165.999 33.9065C165.999 34.2819 165.891 34.6176 165.675 34.9134C165.462 35.2093 165.163 35.4425 164.779 35.6132C164.395 35.7839 163.949 35.8692 163.439 35.8692C162.771 35.8692 162.218 35.7241 161.78 35.434C161.342 35.1438 161.064 34.72 160.948 34.1625L161.903 33.9235C161.994 34.2763 162.166 34.5408 162.42 34.7172C162.676 34.8935 163.01 34.9817 163.422 34.9817C163.892 34.9817 164.264 34.8821 164.54 34.683C164.819 34.4811 164.958 34.2393 164.958 33.9577C164.958 33.7301 164.879 33.5395 164.719 33.3859C164.56 33.2295 164.316 33.1128 163.986 33.036L162.893 32.78C162.293 32.6378 161.852 32.4174 161.571 32.1187C161.292 31.8172 161.152 31.4403 161.152 30.988C161.152 30.6182 161.256 30.2911 161.464 30.0066C161.674 29.7222 161.96 29.4989 162.321 29.3367C162.686 29.1746 163.098 29.0935 163.559 29.0935C164.207 29.0935 164.717 29.2358 165.086 29.5202C165.459 29.8047 165.724 30.1801 165.88 30.6466Z" fill="#545454"/>
<path d="M16.1146 47.2018V48.0551H12.7182V47.2018H16.1146ZM13.7081 45.6316H14.7151V51.8782C14.7151 52.1626 14.7563 52.376 14.8388 52.5182C14.9242 52.6576 15.0323 52.7515 15.1631 52.7998C15.2968 52.8453 15.4376 52.8681 15.5855 52.8681C15.6965 52.8681 15.7875 52.8624 15.8586 52.851C15.9297 52.8368 15.9866 52.8254 16.0293 52.8169L16.2341 53.7214C16.1658 53.747 16.0705 53.7726 15.9482 53.7982C15.8259 53.8267 15.6709 53.8409 15.4831 53.8409C15.1987 53.8409 14.9199 53.7798 14.6468 53.6574C14.3766 53.5351 14.1519 53.3488 13.9727 53.0985C13.7963 52.8482 13.7081 52.5324 13.7081 52.1513V45.6316Z" fill="#545454"/>
<path d="M20.2214 53.8921C19.6297 53.8921 19.1106 53.7513 18.664 53.4697C18.2203 53.1881 17.8732 52.7941 17.6229 52.2878C17.3754 51.7815 17.2517 51.1898 17.2517 50.5128C17.2517 49.8301 17.3754 49.2342 17.6229 48.725C17.8732 48.2159 18.2203 47.8205 18.664 47.5389C19.1106 47.2573 19.6297 47.1164 20.2214 47.1164C20.813 47.1164 21.3307 47.2573 21.7745 47.5389C22.2211 47.8205 22.5681 48.2159 22.8156 48.725C23.0659 49.2342 23.1911 49.8301 23.1911 50.5128C23.1911 51.1898 23.0659 51.7815 22.8156 52.2878C22.5681 52.7941 22.2211 53.1881 21.7745 53.4697C21.3307 53.7513 20.813 53.8921 20.2214 53.8921ZM20.2214 52.9875C20.6708 52.9875 21.0406 52.8723 21.3307 52.6419C21.6209 52.4115 21.8357 52.1086 21.975 51.7331C22.1144 51.3576 22.1841 50.9509 22.1841 50.5128C22.1841 50.0748 22.1144 49.6666 21.975 49.2882C21.8357 48.9099 21.6209 48.6041 21.3307 48.3709C21.0406 48.1376 20.6708 48.021 20.2214 48.021C19.7719 48.021 19.4022 48.1376 19.112 48.3709C18.8219 48.6041 18.6071 48.9099 18.4677 49.2882C18.3284 49.6666 18.2587 50.0748 18.2587 50.5128C18.2587 50.9509 18.3284 51.3576 18.4677 51.7331C18.6071 52.1086 18.8219 52.4115 19.112 52.6419C19.4022 52.8723 19.7719 52.9875 20.2214 52.9875Z" fill="#545454"/>
<path d="M30.9577 47.2018V48.0551H27.5613V47.2018H30.9577ZM28.5512 45.6316H29.5582V51.8782C29.5582 52.1626 29.5994 52.376 29.6819 52.5182C29.7673 52.6576 29.8753 52.7515 30.0062 52.7998C30.1399 52.8453 30.2807 52.8681 30.4286 52.8681C30.5395 52.8681 30.6306 52.8624 30.7017 52.851C30.7728 52.8368 30.8297 52.8254 30.8724 52.8169L31.0772 53.7214C31.0089 53.747 30.9136 53.7726 30.7913 53.7982C30.669 53.8267 30.5139 53.8409 30.3262 53.8409C30.0418 53.8409 29.763 53.7798 29.4899 53.6574C29.2197 53.5351 28.995 53.3488 28.8158 53.0985C28.6394 52.8482 28.5512 52.5324 28.5512 52.1513V45.6316Z" fill="#545454"/>
<path d="M33.6202 49.8131V53.7556H32.6132V45.0172H33.6202V48.2258H33.7055C33.8591 47.8873 34.0895 47.6185 34.3967 47.4194C34.7068 47.2174 35.1192 47.1164 35.6341 47.1164C36.0807 47.1164 36.4718 47.206 36.8075 47.3853C37.1431 47.5616 37.4034 47.8333 37.5883 48.2002C37.776 48.5643 37.8699 49.028 37.8699 49.5912V53.7556H36.8629V49.6595C36.8629 49.1389 36.7278 48.7364 36.4576 48.452C36.1902 48.1647 35.819 48.021 35.344 48.021C35.014 48.021 34.7182 48.0907 34.4565 48.2301C34.1976 48.3695 33.9928 48.5728 33.842 48.8402C33.6941 49.1076 33.6202 49.4319 33.6202 49.8131Z" fill="#545454"/>
<path d="M39.7121 53.7556V47.2018H40.719V53.7556H39.7121ZM40.2241 46.1095C40.0278 46.1095 39.8586 46.0426 39.7163 45.9089C39.577 45.7753 39.5073 45.6145 39.5073 45.4268C39.5073 45.2391 39.577 45.0783 39.7163 44.9446C39.8586 44.811 40.0278 44.7441 40.2241 44.7441C40.4204 44.7441 40.5882 44.811 40.7276 44.9446C40.8698 45.0783 40.9409 45.2391 40.9409 45.4268C40.9409 45.6145 40.8698 45.7753 40.7276 45.9089C40.5882 46.0426 40.4204 46.1095 40.2241 46.1095Z" fill="#545454"/>
<path d="M47.2056 48.6696L46.3011 48.9256C46.2442 48.7748 46.1603 48.6283 46.0493 48.4861C45.9412 48.341 45.7933 48.2215 45.6056 48.1277C45.4178 48.0338 45.1775 47.9869 44.8845 47.9869C44.4834 47.9869 44.1492 48.0793 43.8818 48.2642C43.6173 48.4463 43.485 48.6781 43.485 48.9597C43.485 49.21 43.576 49.4077 43.7581 49.5528C43.9401 49.6979 44.2246 49.8187 44.6114 49.9155L45.5842 50.1544C46.1702 50.2966 46.6069 50.5142 46.8942 50.8072C47.1814 51.0974 47.3251 51.4714 47.3251 51.9294C47.3251 52.3049 47.217 52.6405 47.0008 52.9363C46.7875 53.2322 46.4888 53.4654 46.1048 53.6361C45.7208 53.8068 45.2742 53.8921 44.765 53.8921C44.0966 53.8921 43.5433 53.747 43.1052 53.4569C42.6672 53.1668 42.3898 52.7429 42.2732 52.1854L43.229 51.9465C43.32 52.2992 43.4921 52.5637 43.7453 52.7401C44.0013 52.9164 44.3355 53.0046 44.748 53.0046C45.2173 53.0046 45.5899 52.9051 45.8659 52.7059C46.1446 52.504 46.284 52.2622 46.284 51.9806C46.284 51.753 46.2044 51.5624 46.0451 51.4088C45.8858 51.2524 45.6411 51.1358 45.3112 51.059L44.2189 50.803C43.6187 50.6607 43.1778 50.4403 42.8962 50.1416C42.6174 49.8401 42.478 49.4632 42.478 49.0109C42.478 48.6411 42.5818 48.314 42.7895 48.0295C43 47.7451 43.2859 47.5218 43.6471 47.3597C44.0112 47.1975 44.4237 47.1164 44.8845 47.1164C45.533 47.1164 46.0422 47.2587 46.412 47.5431C46.7846 47.8276 47.0492 48.2031 47.2056 48.6696Z" fill="#545454"/>
<path d="M54.1488 53.9092C53.7335 53.9092 53.3566 53.831 53.0181 53.6745C52.6796 53.5152 52.4108 53.2862 52.2116 52.9875C52.0125 52.686 51.913 52.3219 51.913 51.8953C51.913 51.5198 51.9869 51.2154 52.1348 50.9822C52.2828 50.7461 52.4804 50.5612 52.7279 50.4275C52.9754 50.2938 53.2485 50.1942 53.5471 50.1288C53.8487 50.0605 54.1516 50.0065 54.456 49.9667C54.8542 49.9155 55.1771 49.8771 55.4245 49.8515C55.6748 49.823 55.8569 49.7761 55.9707 49.7107C56.0873 49.6452 56.1456 49.5314 56.1456 49.3693V49.3352C56.1456 48.9142 56.0304 48.5871 55.8 48.3538C55.5724 48.1206 55.2268 48.0039 54.7632 48.0039C54.2825 48.0039 53.9056 48.1092 53.6325 48.3197C53.3594 48.5302 53.1674 48.7549 53.0565 48.9938L52.1007 48.6525C52.2714 48.2543 52.4989 47.9442 52.7834 47.7223C53.0707 47.4976 53.3836 47.3412 53.7221 47.253C54.0634 47.162 54.3991 47.1164 54.729 47.1164C54.9395 47.1164 55.1813 47.142 55.4544 47.1932C55.7303 47.2416 55.9963 47.3426 56.2523 47.4962C56.5111 47.6498 56.7259 47.8816 56.8966 48.1917C57.0672 48.5017 57.1526 48.917 57.1526 49.4376V53.7556H56.1456V52.8681H56.0944C56.0261 53.0103 55.9124 53.1625 55.7531 53.3246C55.5938 53.4868 55.3819 53.6247 55.1173 53.7385C54.8528 53.8523 54.5299 53.9092 54.1488 53.9092ZM54.3024 53.0046C54.7006 53.0046 55.0363 52.9264 55.3093 52.7699C55.5852 52.6135 55.7929 52.4115 55.9323 52.1641C56.0745 51.9166 56.1456 51.6563 56.1456 51.3832V50.4616C56.103 50.5128 56.0091 50.5597 55.864 50.6024C55.7218 50.6422 55.5568 50.6778 55.3691 50.7091C55.1842 50.7375 55.0035 50.7631 54.8272 50.7859C54.6537 50.8058 54.5129 50.8229 54.4048 50.8371C54.1431 50.8712 53.8984 50.9267 53.6709 51.0035C53.4462 51.0774 53.2641 51.1898 53.1247 51.3406C52.9882 51.4885 52.9199 51.6904 52.9199 51.9465C52.9199 52.2963 53.0494 52.5609 53.3082 52.7401C53.5699 52.9164 53.9013 53.0046 54.3024 53.0046Z" fill="#545454"/>
<path d="M63.6328 48.6696L62.7282 48.9256C62.6713 48.7748 62.5874 48.6283 62.4765 48.4861C62.3684 48.341 62.2205 48.2215 62.0327 48.1277C61.845 48.0338 61.6046 47.9869 61.3116 47.9869C60.9106 47.9869 60.5763 48.0793 60.3089 48.2642C60.0444 48.4463 59.9121 48.6781 59.9121 48.9597C59.9121 49.21 60.0032 49.4077 60.1852 49.5528C60.3673 49.6979 60.6517 49.8187 61.0386 49.9155L62.0114 50.1544C62.5974 50.2966 63.034 50.5142 63.3213 50.8072C63.6086 51.0974 63.7522 51.4714 63.7522 51.9294C63.7522 52.3049 63.6441 52.6405 63.428 52.9363C63.2146 53.2322 62.916 53.4654 62.5319 53.6361C62.1479 53.8068 61.7013 53.8921 61.1922 53.8921C60.5237 53.8921 59.9704 53.747 59.5324 53.4569C59.0943 53.1668 58.817 52.7429 58.7004 52.1854L59.6561 51.9465C59.7471 52.2992 59.9192 52.5637 60.1724 52.7401C60.4284 52.9164 60.7626 53.0046 61.1751 53.0046C61.6444 53.0046 62.0171 52.9051 62.293 52.7059C62.5718 52.504 62.7111 52.2622 62.7111 51.9806C62.7111 51.753 62.6315 51.5624 62.4722 51.4088C62.3129 51.2524 62.0683 51.1358 61.7383 51.059L60.646 50.803C60.0458 50.6607 59.6049 50.4403 59.3233 50.1416C59.0445 49.8401 58.9052 49.4632 58.9052 49.0109C58.9052 48.6411 59.009 48.314 59.2166 48.0295C59.4271 47.7451 59.713 47.5218 60.0743 47.3597C60.4384 47.1975 60.8508 47.1164 61.3116 47.1164C61.9602 47.1164 62.4694 47.2587 62.8391 47.5431C63.2118 47.8276 63.4763 48.2031 63.6328 48.6696Z" fill="#545454"/>
<path d="M69.9103 48.6696L69.0057 48.9256C68.9488 48.7748 68.8649 48.6283 68.754 48.4861C68.6459 48.341 68.498 48.2215 68.3102 48.1277C68.1225 48.0338 67.8821 47.9869 67.5892 47.9869C67.1881 47.9869 66.8538 48.0793 66.5865 48.2642C66.3219 48.4463 66.1896 48.6781 66.1896 48.9597C66.1896 49.21 66.2807 49.4077 66.4627 49.5528C66.6448 49.6979 66.9292 49.8187 67.3161 49.9155L68.2889 50.1544C68.8749 50.2966 69.3115 50.5142 69.5988 50.8072C69.8861 51.0974 70.0298 51.4714 70.0298 51.9294C70.0298 52.3049 69.9217 52.6405 69.7055 52.9363C69.4921 53.2322 69.1935 53.4654 68.8095 53.6361C68.4254 53.8068 67.9789 53.8921 67.4697 53.8921C66.8012 53.8921 66.248 53.747 65.8099 53.4569C65.3718 53.1668 65.0945 52.7429 64.9779 52.1854L65.9336 51.9465C66.0247 52.2992 66.1968 52.5637 66.4499 52.7401C66.7059 52.9164 67.0402 53.0046 67.4526 53.0046C67.922 53.0046 68.2946 52.9051 68.5705 52.7059C68.8493 52.504 68.9887 52.2622 68.9887 51.9806C68.9887 51.753 68.909 51.5624 68.7497 51.4088C68.5904 51.2524 68.3458 51.1358 68.0158 51.059L66.9235 50.803C66.3233 50.6607 65.8824 50.4403 65.6008 50.1416C65.3221 49.8401 65.1827 49.4632 65.1827 49.0109C65.1827 48.6411 65.2865 48.314 65.4942 48.0295C65.7046 47.7451 65.9905 47.5218 66.3518 47.3597C66.7159 47.1975 67.1283 47.1164 67.5892 47.1164C68.2377 47.1164 68.7469 47.2587 69.1167 47.5431C69.4893 47.8276 69.7538 48.2031 69.9103 48.6696Z" fill="#545454"/>
<path d="M74.2933 53.8921C73.6619 53.8921 73.1171 53.7527 72.6592 53.474C72.204 53.1924 71.8527 52.7998 71.6053 52.2963C71.3606 51.79 71.2383 51.2012 71.2383 50.5299C71.2383 49.8586 71.3606 49.2669 71.6053 48.7549C71.8527 48.24 72.1969 47.839 72.6378 47.5517C73.0816 47.2615 73.5993 47.1164 74.1909 47.1164C74.5323 47.1164 74.8694 47.1733 75.2022 47.2871C75.535 47.4009 75.8379 47.5858 76.111 47.8418C76.3841 48.095 76.6017 48.4306 76.7638 48.8488C76.926 49.2669 77.007 49.7818 77.007 50.3933V50.82H71.9551V49.9496H75.983C75.983 49.5798 75.909 49.2498 75.7611 48.9597C75.616 48.6696 75.4084 48.4406 75.1382 48.2727C74.8708 48.1049 74.555 48.021 74.1909 48.021C73.7899 48.021 73.4428 48.1206 73.1498 48.3197C72.8597 48.516 72.6364 48.772 72.48 49.0877C72.3235 49.4034 72.2453 49.7419 72.2453 50.1032V50.6835C72.2453 51.1784 72.3306 51.598 72.5013 51.9422C72.6748 52.2835 72.9152 52.5438 73.2224 52.723C73.5296 52.8994 73.8866 52.9875 74.2933 52.9875C74.5579 52.9875 74.7968 52.9506 75.0102 52.8766C75.2263 52.7998 75.4127 52.686 75.5691 52.5353C75.7256 52.3817 75.8465 52.1911 75.9318 51.9635L76.9046 52.2366C76.8022 52.5666 76.6301 52.8567 76.3883 53.107C76.1466 53.3545 75.8479 53.5479 75.4923 53.6873C75.1367 53.8238 74.7371 53.8921 74.2933 53.8921Z" fill="#545454"/>
<path d="M83.1811 48.6696L82.2765 48.9256C82.2196 48.7748 82.1357 48.6283 82.0248 48.4861C81.9167 48.341 81.7688 48.2215 81.581 48.1277C81.3933 48.0338 81.1529 47.9869 80.8599 47.9869C80.4589 47.9869 80.1246 48.0793 79.8572 48.2642C79.5927 48.4463 79.4604 48.6781 79.4604 48.9597C79.4604 49.21 79.5515 49.4077 79.7335 49.5528C79.9156 49.6979 80.2 49.8187 80.5869 49.9155L81.5597 50.1544C82.1457 50.2966 82.5823 50.5142 82.8696 50.8072C83.1569 51.0974 83.3005 51.4714 83.3005 51.9294C83.3005 52.3049 83.1924 52.6405 82.9763 52.9363C82.7629 53.2322 82.4642 53.4654 82.0802 53.6361C81.6962 53.8068 81.2496 53.8921 80.7405 53.8921C80.072 53.8921 79.5187 53.747 79.0807 53.4569C78.6426 53.1668 78.3653 52.7429 78.2487 52.1854L79.2044 51.9465C79.2954 52.2992 79.4675 52.5637 79.7207 52.7401C79.9767 52.9164 80.3109 53.0046 80.7234 53.0046C81.1927 53.0046 81.5654 52.9051 81.8413 52.7059C82.1201 52.504 82.2594 52.2622 82.2594 51.9806C82.2594 51.753 82.1798 51.5624 82.0205 51.4088C81.8612 51.2524 81.6166 51.1358 81.2866 51.059L80.1943 50.803C79.5941 50.6607 79.1532 50.4403 78.8716 50.1416C78.5928 49.8401 78.4535 49.4632 78.4535 49.0109C78.4535 48.6411 78.5573 48.314 78.7649 48.0295C78.9754 47.7451 79.2613 47.5218 79.6226 47.3597C79.9867 47.1975 80.3991 47.1164 80.8599 47.1164C81.5085 47.1164 82.0177 47.2587 82.3874 47.5431C82.7601 47.8276 83.0246 48.2031 83.1811 48.6696Z" fill="#545454"/>
<path d="M87.6665 47.2018V48.0551H84.2702V47.2018H87.6665ZM85.2601 45.6316H86.267V51.8782C86.267 52.1626 86.3083 52.376 86.3908 52.5182C86.4761 52.6576 86.5842 52.7515 86.715 52.7998C86.8487 52.8453 86.9895 52.8681 87.1374 52.8681C87.2484 52.8681 87.3394 52.8624 87.4105 52.851C87.4816 52.8368 87.5385 52.8254 87.5812 52.8169L87.786 53.7214C87.7177 53.747 87.6224 53.7726 87.5001 53.7982C87.3778 53.8267 87.2228 53.8409 87.035 53.8409C86.7506 53.8409 86.4718 53.7798 86.1988 53.6574C85.9285 53.5351 85.7038 53.3488 85.5246 53.0985C85.3482 52.8482 85.2601 52.5324 85.2601 52.1513V45.6316Z" fill="#545454"/>
<path d="M89.1812 53.7556V47.2018H90.1541V48.2258H90.2394C90.3759 47.8759 90.5964 47.6043 90.9008 47.4109C91.2051 47.2146 91.5706 47.1164 91.9973 47.1164C92.4297 47.1164 92.7895 47.2146 93.0768 47.4109C93.367 47.6043 93.5931 47.8759 93.7552 48.2258H93.8235C93.9913 47.8873 94.2431 47.6185 94.5787 47.4194C94.9144 47.2174 95.3169 47.1164 95.7862 47.1164C96.3722 47.1164 96.8515 47.2999 97.2241 47.6669C97.5968 48.031 97.7831 48.5984 97.7831 49.3693V53.7556H96.7761V49.3693C96.7761 48.8857 96.6439 48.5401 96.3793 48.3325C96.1148 48.1248 95.8033 48.021 95.4449 48.021C94.9841 48.021 94.6271 48.1604 94.3739 48.4392C94.1208 48.7151 93.9942 49.0649 93.9942 49.4888V53.7556H92.9702V49.2669C92.9702 48.8943 92.8493 48.5942 92.6075 48.3666C92.3657 48.1362 92.0542 48.021 91.673 48.021C91.4113 48.021 91.1667 48.0907 90.9392 48.2301C90.7144 48.3695 90.5324 48.5629 90.393 48.8104C90.2565 49.055 90.1882 49.338 90.1882 49.6595V53.7556H89.1812Z" fill="#545454"/>
<path d="M102.372 53.8921C101.741 53.8921 101.196 53.7527 100.738 53.474C100.283 53.1924 99.9314 52.7998 99.6839 52.2963C99.4393 51.79 99.317 51.2012 99.317 50.5299C99.317 49.8586 99.4393 49.2669 99.6839 48.7549C99.9314 48.24 100.276 47.839 100.717 47.5517C101.16 47.2615 101.678 47.1164 102.27 47.1164C102.611 47.1164 102.948 47.1733 103.281 47.2871C103.614 47.4009 103.917 47.5858 104.19 47.8418C104.463 48.095 104.68 48.4306 104.842 48.8488C105.005 49.2669 105.086 49.7818 105.086 50.3933V50.82H100.034V49.9496H104.062C104.062 49.5798 103.988 49.2498 103.84 48.9597C103.695 48.6696 103.487 48.4406 103.217 48.2727C102.949 48.1049 102.634 48.021 102.27 48.021C101.869 48.021 101.522 48.1206 101.229 48.3197C100.938 48.516 100.715 48.772 100.559 49.0877C100.402 49.4034 100.324 49.7419 100.324 50.1032V50.6835C100.324 51.1784 100.409 51.598 100.58 51.9422C100.753 52.2835 100.994 52.5438 101.301 52.723C101.608 52.8994 101.965 52.9875 102.372 52.9875C102.637 52.9875 102.875 52.9506 103.089 52.8766C103.305 52.7998 103.491 52.686 103.648 52.5353C103.804 52.3817 103.925 52.1911 104.01 51.9635L104.983 52.2366C104.881 52.5666 104.709 52.8567 104.467 53.107C104.225 53.3545 103.927 53.5479 103.571 53.6873C103.215 53.8238 102.816 53.8921 102.372 53.8921Z" fill="#545454"/>
<path d="M107.624 49.8131V53.7556H106.617V47.2018H107.59V48.2258H107.676C107.829 47.893 108.062 47.6256 108.375 47.4237C108.688 47.2189 109.092 47.1164 109.587 47.1164C110.031 47.1164 110.419 47.2075 110.752 47.3895C111.085 47.5687 111.344 47.8418 111.529 48.2087C111.713 48.5728 111.806 49.0337 111.806 49.5912V53.7556H110.799V49.6595C110.799 49.1446 110.665 48.7435 110.398 48.4562C110.13 48.1661 109.764 48.021 109.297 48.021C108.976 48.021 108.688 48.0907 108.435 48.2301C108.185 48.3695 107.987 48.5728 107.842 48.8402C107.697 49.1076 107.624 49.4319 107.624 49.8131Z" fill="#545454"/>
<path d="M116.496 47.2018V48.0551H113.1V47.2018H116.496ZM114.09 45.6316H115.097V51.8782C115.097 52.1626 115.138 52.376 115.22 52.5182C115.306 52.6576 115.414 52.7515 115.545 52.7998C115.678 52.8453 115.819 52.8681 115.967 52.8681C116.078 52.8681 116.169 52.8624 116.24 52.851C116.311 52.8368 116.368 52.8254 116.411 52.8169L116.616 53.7214C116.547 53.747 116.452 53.7726 116.33 53.7982C116.207 53.8267 116.052 53.8409 115.865 53.8409C115.58 53.8409 115.301 53.7798 115.028 53.6574C114.758 53.5351 114.533 53.3488 114.354 53.0985C114.178 52.8482 114.09 52.5324 114.09 52.1513V45.6316Z" fill="#545454"/>
<path d="M124.036 56.3498C123.549 56.3498 123.131 56.2872 122.781 56.162C122.431 56.0397 122.14 55.8776 121.906 55.6756C121.676 55.4765 121.493 55.2632 121.356 55.0356L122.158 54.4724C122.249 54.5919 122.364 54.7284 122.504 54.882C122.643 55.0385 122.834 55.1736 123.076 55.2873C123.32 55.404 123.64 55.4623 124.036 55.4623C124.565 55.4623 125.001 55.3343 125.345 55.0783C125.69 54.8223 125.862 54.4212 125.862 53.875V52.5438H125.776C125.702 52.6633 125.597 52.8112 125.461 52.9875C125.327 53.1611 125.134 53.3161 124.88 53.4526C124.63 53.5863 124.292 53.6532 123.865 53.6532C123.336 53.6532 122.861 53.528 122.44 53.2777C122.022 53.0274 121.69 52.6633 121.446 52.1854C121.204 51.7075 121.083 51.1272 121.083 50.4445C121.083 49.7732 121.201 49.1887 121.437 48.6909C121.673 48.1903 122.002 47.8034 122.423 47.5303C122.844 47.2544 123.33 47.1164 123.882 47.1164C124.309 47.1164 124.647 47.1876 124.897 47.3298C125.151 47.4692 125.344 47.6285 125.478 47.8077C125.614 47.984 125.72 48.1291 125.794 48.2429H125.896V47.2018H126.869V53.9433C126.869 54.5065 126.741 54.9645 126.485 55.3172C126.232 55.6728 125.89 55.9331 125.461 56.098C125.034 56.2659 124.559 56.3498 124.036 56.3498ZM124.001 52.7486C124.405 52.7486 124.747 52.6562 125.025 52.4713C125.304 52.2864 125.516 52.0204 125.661 51.6734C125.806 51.3263 125.879 50.911 125.879 50.4275C125.879 49.9553 125.808 49.5386 125.666 49.1773C125.523 48.8161 125.313 48.533 125.034 48.3282C124.755 48.1234 124.411 48.021 124.001 48.021C123.575 48.021 123.219 48.1291 122.935 48.3453C122.653 48.5615 122.441 48.8516 122.299 49.2157C122.16 49.5798 122.09 49.9837 122.09 50.4275C122.09 50.8826 122.161 51.2851 122.303 51.635C122.448 51.982 122.662 52.2551 122.943 52.4542C123.228 52.6505 123.58 52.7486 124.001 52.7486Z" fill="#545454"/>
<path d="M128.712 53.7556V47.2018H129.685V48.1917H129.753C129.873 47.8674 130.089 47.6043 130.402 47.4023C130.715 47.2004 131.067 47.0994 131.46 47.0994C131.534 47.0994 131.626 47.1008 131.737 47.1036C131.848 47.1065 131.932 47.1108 131.989 47.1164V48.1405C131.955 48.1319 131.877 48.1191 131.754 48.1021C131.635 48.0822 131.508 48.0722 131.374 48.0722C131.056 48.0722 130.771 48.1391 130.521 48.2727C130.274 48.4036 130.077 48.5856 129.932 48.8189C129.79 49.0493 129.719 49.3124 129.719 49.6083V53.7556H128.712Z" fill="#545454"/>
<path d="M135.646 53.8921C135.054 53.8921 134.535 53.7513 134.088 53.4697C133.644 53.1881 133.297 52.7941 133.047 52.2878C132.8 51.7815 132.676 51.1898 132.676 50.5128C132.676 49.8301 132.8 49.2342 133.047 48.725C133.297 48.2159 133.644 47.8205 134.088 47.5389C134.535 47.2573 135.054 47.1164 135.646 47.1164C136.237 47.1164 136.755 47.2573 137.199 47.5389C137.645 47.8205 137.992 48.2159 138.24 48.725C138.49 49.2342 138.615 49.8301 138.615 50.5128C138.615 51.1898 138.49 51.7815 138.24 52.2878C137.992 52.7941 137.645 53.1881 137.199 53.4697C136.755 53.7513 136.237 53.8921 135.646 53.8921ZM135.646 52.9875C136.095 52.9875 136.465 52.8723 136.755 52.6419C137.045 52.4115 137.26 52.1086 137.399 51.7331C137.539 51.3576 137.608 50.9509 137.608 50.5128C137.608 50.0748 137.539 49.6666 137.399 49.2882C137.26 48.9099 137.045 48.6041 136.755 48.3709C136.465 48.1376 136.095 48.021 135.646 48.021C135.196 48.021 134.826 48.1376 134.536 48.3709C134.246 48.6041 134.031 48.9099 133.892 49.2882C133.752 49.6666 133.683 50.0748 133.683 50.5128C133.683 50.9509 133.752 51.3576 133.892 51.7331C134.031 52.1086 134.246 52.4115 134.536 52.6419C134.826 52.8723 135.196 52.9875 135.646 52.9875Z" fill="#545454"/>
<path d="M144.283 51.076V47.2018H145.29V53.7556H144.283V52.6462H144.214C144.061 52.979 143.822 53.262 143.497 53.4953C143.173 53.7257 142.764 53.8409 142.269 53.8409C141.859 53.8409 141.495 53.7513 141.176 53.5721C140.858 53.39 140.607 53.117 140.425 52.7529C140.243 52.3859 140.152 51.9237 140.152 51.3662V47.2018H141.159V51.2979C141.159 51.7758 141.293 52.1569 141.56 52.4414C141.831 52.7259 142.175 52.8681 142.593 52.8681C142.843 52.8681 143.098 52.8041 143.357 52.6761C143.618 52.5481 143.837 52.3518 144.014 52.0873C144.193 51.8227 144.283 51.4856 144.283 51.076Z" fill="#545454"/>
<path d="M147.134 56.2132V47.2018H148.107V48.2429H148.226C148.3 48.1291 148.403 47.984 148.533 47.8077C148.667 47.6285 148.858 47.4692 149.105 47.3298C149.355 47.1876 149.694 47.1164 150.121 47.1164C150.672 47.1164 151.159 47.2544 151.58 47.5303C152.001 47.8062 152.329 48.1974 152.565 48.7037C152.802 49.21 152.92 49.8074 152.92 50.4957C152.92 51.1898 152.802 51.7914 152.565 52.3006C152.329 52.8069 152.002 53.1995 151.584 53.4782C151.166 53.7541 150.684 53.8921 150.138 53.8921C149.717 53.8921 149.38 53.8224 149.126 53.683C148.873 53.5408 148.678 53.3801 148.542 53.2009C148.405 53.0188 148.3 52.8681 148.226 52.7486H148.141V56.2132H147.134ZM148.124 50.4787C148.124 50.9736 148.196 51.4103 148.341 51.7886C148.486 52.1641 148.698 52.4585 148.977 52.6718C149.256 52.8823 149.597 52.9875 150.001 52.9875C150.422 52.9875 150.773 52.8766 151.055 52.6547C151.339 52.43 151.553 52.1285 151.695 51.7502C151.84 51.369 151.913 50.9452 151.913 50.4787C151.913 50.0179 151.842 49.6026 151.699 49.2328C151.56 48.8601 151.348 48.5657 151.064 48.3495C150.782 48.1305 150.428 48.021 150.001 48.021C149.592 48.021 149.247 48.1248 148.969 48.3325C148.69 48.5373 148.479 48.8246 148.337 49.1944C148.195 49.5613 148.124 49.9894 148.124 50.4787Z" fill="#545454"/>
<path d="M25.7979 12.3825H23.5479L27.6444 0.746094H30.2467L34.349 12.3825H32.099L28.991 3.13246H28.9001L25.7979 12.3825ZM25.8717 7.81996H32.0081V9.51314H25.8717V7.81996Z" fill="#545454"/>
<path d="M38.7638 12.5359C38.0782 12.5359 37.4645 12.3597 36.9229 12.0075C36.3812 11.6552 35.9532 11.1438 35.6388 10.4734C35.3244 9.80291 35.1672 8.98852 35.1672 8.03018C35.1672 7.06049 35.3263 6.24231 35.6444 5.57564C35.9664 4.90519 36.4001 4.3995 36.9456 4.05859C37.491 3.7139 38.099 3.54155 38.7694 3.54155C39.2808 3.54155 39.7013 3.62867 40.0308 3.80291C40.3604 3.97337 40.6217 4.17981 40.8149 4.42223C41.0081 4.66087 41.1577 4.88625 41.2638 5.09837H41.349V0.746094H43.4115V12.3825H41.3888V11.0075H41.2638C41.1577 11.2196 41.0043 11.445 40.8035 11.6836C40.6028 11.9184 40.3376 12.1192 40.0081 12.2859C39.6785 12.4525 39.2638 12.5359 38.7638 12.5359ZM39.3376 10.8484C39.7732 10.8484 40.1444 10.7309 40.4513 10.4961C40.7581 10.2575 40.991 9.92602 41.1501 9.50178C41.3092 9.07753 41.3888 8.58322 41.3888 8.01882C41.3888 7.45443 41.3092 6.9639 41.1501 6.54723C40.9948 6.13056 40.7638 5.8067 40.4569 5.57564C40.1539 5.34458 39.7808 5.22905 39.3376 5.22905C38.8793 5.22905 38.4967 5.34837 38.1899 5.587C37.8831 5.82564 37.652 6.15519 37.4967 6.57564C37.3414 6.99609 37.2638 7.47716 37.2638 8.01882C37.2638 8.56428 37.3414 9.05102 37.4967 9.47905C37.6558 9.90329 37.8888 10.2385 38.1956 10.4847C38.5062 10.7272 38.8869 10.8484 39.3376 10.8484Z" fill="#545454"/>
<path d="M48.8419 12.5359C48.1563 12.5359 47.5426 12.3597 47.001 12.0075C46.4593 11.6552 46.0313 11.1438 45.7169 10.4734C45.4025 9.80291 45.2453 8.98852 45.2453 8.03018C45.2453 7.06049 45.4044 6.24231 45.7226 5.57564C46.0445 4.90519 46.4782 4.3995 47.0237 4.05859C47.5692 3.7139 48.1771 3.54155 48.8476 3.54155C49.3589 3.54155 49.7794 3.62867 50.1089 3.80291C50.4385 3.97337 50.6998 4.17981 50.893 4.42223C51.0862 4.66087 51.2358 4.88625 51.3419 5.09837H51.4271V0.746094H53.4896V12.3825H51.4669V11.0075H51.3419C51.2358 11.2196 51.0824 11.445 50.8817 11.6836C50.6809 11.9184 50.4157 12.1192 50.0862 12.2859C49.7567 12.4525 49.3419 12.5359 48.8419 12.5359ZM49.4157 10.8484C49.8514 10.8484 50.2226 10.7309 50.5294 10.4961C50.8362 10.2575 51.0692 9.92602 51.2282 9.50178C51.3873 9.07753 51.4669 8.58322 51.4669 8.01882C51.4669 7.45443 51.3873 6.9639 51.2282 6.54723C51.0729 6.13056 50.8419 5.8067 50.5351 5.57564C50.232 5.34458 49.8589 5.22905 49.4157 5.22905C48.9574 5.22905 48.5748 5.34837 48.268 5.587C47.9612 5.82564 47.7301 6.15519 47.5748 6.57564C47.4195 6.99609 47.3419 7.47716 47.3419 8.01882C47.3419 8.56428 47.4195 9.05102 47.5748 9.47905C47.7339 9.90329 47.9669 10.2385 48.2737 10.4847C48.5843 10.7272 48.965 10.8484 49.4157 10.8484Z" fill="#545454"/>
<path d="M61.2354 12.3825H58.9854L63.0819 0.746094H65.6842L69.7865 12.3825H67.5365L64.4285 3.13246H64.3376L61.2354 12.3825ZM61.3092 7.81996H67.4456V9.51314H61.3092V7.81996Z" fill="#545454"/>
<path d="M71.2283 15.6552V3.65518H73.251V5.09837H73.3703C73.4764 4.88625 73.626 4.66087 73.8192 4.42223C74.0123 4.17981 74.2737 3.97337 74.6033 3.80291C74.9328 3.62867 75.3533 3.54155 75.8646 3.54155C76.5389 3.54155 77.1468 3.7139 77.6885 4.05859C78.2339 4.3995 78.6658 4.90519 78.9839 5.57564C79.3059 6.24231 79.4669 7.06049 79.4669 8.03018C79.4669 8.98852 79.3097 9.80291 78.9953 10.4734C78.6809 11.1438 78.2529 11.6552 77.7112 12.0075C77.1695 12.3597 76.5559 12.5359 75.8703 12.5359C75.3703 12.5359 74.9555 12.4525 74.626 12.2859C74.2964 12.1192 74.0313 11.9184 73.8305 11.6836C73.6336 11.445 73.4801 11.2196 73.3703 11.0075H73.2851V15.6552H71.2283ZM73.2453 8.01882C73.2453 8.58322 73.3248 9.07753 73.4839 9.50178C73.6468 9.92602 73.8798 10.2575 74.1828 10.4961C74.4896 10.7309 74.8608 10.8484 75.2964 10.8484C75.751 10.8484 76.1317 10.7272 76.4385 10.4847C76.7453 10.2385 76.9764 9.90329 77.1317 9.47905C77.2908 9.05102 77.3703 8.56428 77.3703 8.01882C77.3703 7.47716 77.2926 6.99609 77.1373 6.57564C76.982 6.15519 76.751 5.82564 76.4442 5.587C76.1373 5.34837 75.7548 5.22905 75.2964 5.22905C74.857 5.22905 74.4839 5.34458 74.1771 5.57564C73.8703 5.8067 73.6373 6.13056 73.4783 6.54723C73.3229 6.9639 73.2453 7.45443 73.2453 8.01882Z" fill="#545454"/>
<path d="M81.2283 15.6552V3.65518H83.251V5.09837H83.3703C83.4764 4.88625 83.626 4.66087 83.8192 4.42223C84.0123 4.17981 84.2737 3.97337 84.6033 3.80291C84.9328 3.62867 85.3533 3.54155 85.8646 3.54155C86.5389 3.54155 87.1468 3.7139 87.6885 4.05859C88.2339 4.3995 88.6658 4.90519 88.9839 5.57564C89.3059 6.24231 89.4669 7.06049 89.4669 8.03018C89.4669 8.98852 89.3097 9.80291 88.9953 10.4734C88.6809 11.1438 88.2529 11.6552 87.7112 12.0075C87.1695 12.3597 86.5559 12.5359 85.8703 12.5359C85.3703 12.5359 84.9555 12.4525 84.626 12.2859C84.2964 12.1192 84.0313 11.9184 83.8305 11.6836C83.6336 11.445 83.4801 11.2196 83.3703 11.0075H83.2851V15.6552H81.2283ZM83.2453 8.01882C83.2453 8.58322 83.3248 9.07753 83.4839 9.50178C83.6468 9.92602 83.8798 10.2575 84.1828 10.4961C84.4896 10.7309 84.8608 10.8484 85.2964 10.8484C85.751 10.8484 86.1317 10.7272 86.4385 10.4847C86.7453 10.2385 86.9764 9.90329 87.1317 9.47905C87.2908 9.05102 87.3703 8.56428 87.3703 8.01882C87.3703 7.47716 87.2926 6.99609 87.1373 6.57564C86.982 6.15519 86.751 5.82564 86.4442 5.587C86.1373 5.34837 85.7548 5.22905 85.2964 5.22905C84.857 5.22905 84.4839 5.34458 84.1771 5.57564C83.8703 5.8067 83.6373 6.13056 83.4783 6.54723C83.3229 6.9639 83.2453 7.45443 83.2453 8.01882Z" fill="#545454"/>
<path d="M91.2282 0.746094H93.2851V9.88246C93.2851 10.2082 93.3343 10.4412 93.4328 10.5813C93.5313 10.7215 93.7055 10.7878 93.9555 10.7802C94.0919 10.7764 94.1942 10.7688 94.2623 10.7575C94.3343 10.7423 94.3987 10.7272 94.4555 10.712L94.7964 12.2688C94.6752 12.3067 94.5237 12.3427 94.3419 12.3768C94.1639 12.4109 93.9442 12.4317 93.6828 12.4393C92.8495 12.462 92.232 12.2878 91.8305 11.9165C91.429 11.5453 91.2282 10.979 91.2282 10.2177V0.746094Z" fill="#545454"/>
<path d="M95.822 12.3825V3.65518H97.8788V12.3825H95.822ZM96.8561 2.41655C96.5303 2.41655 96.25 2.30859 96.0152 2.09268C95.7803 1.87299 95.6629 1.60973 95.6629 1.30291C95.6629 0.992306 95.7803 0.729048 96.0152 0.513139C96.25 0.293442 96.5303 0.183594 96.8561 0.183594C97.1856 0.183594 97.4659 0.293442 97.697 0.513139C97.9318 0.729048 98.0493 0.992306 98.0493 1.30291C98.0493 1.60973 97.9318 1.87299 97.697 2.09268C97.4659 2.30859 97.1856 2.41655 96.8561 2.41655Z" fill="#545454"/>
<path d="M103.801 12.5529C102.929 12.5529 102.181 12.3616 101.556 11.979C100.935 11.5965 100.456 11.0681 100.119 10.3938C99.7855 9.71579 99.6189 8.93549 99.6189 8.05291C99.6189 7.16655 99.7893 6.38435 100.13 5.70632C100.471 5.0245 100.952 4.4942 101.573 4.11541C102.198 3.73284 102.937 3.54155 103.789 3.54155C104.498 3.54155 105.125 3.67223 105.67 3.93359C106.219 4.19117 106.657 4.5567 106.983 5.03018C107.308 5.49988 107.494 6.04912 107.539 6.67791H105.573C105.494 6.25746 105.304 5.90708 105.005 5.62678C104.71 5.34268 104.314 5.20064 103.818 5.20064C103.397 5.20064 103.028 5.31428 102.71 5.54155C102.392 5.76503 102.143 6.087 101.965 6.50746C101.791 6.92791 101.704 7.4317 101.704 8.01882C101.704 8.61352 101.791 9.12488 101.965 9.55291C102.14 9.97715 102.384 10.3048 102.698 10.5359C103.017 10.7631 103.39 10.8768 103.818 10.8768C104.121 10.8768 104.392 10.82 104.63 10.7063C104.873 10.5889 105.075 10.4203 105.238 10.2006C105.401 9.98094 105.513 9.7139 105.573 9.3995H107.539C107.49 10.0169 107.308 10.5643 106.994 11.0415C106.679 11.515 106.251 11.8862 105.71 12.1552C105.168 12.4203 104.532 12.5529 103.801 12.5529Z" fill="#545454"/>
<path d="M111.74 12.5586C111.187 12.5586 110.688 12.4601 110.245 12.2631C109.806 12.0624 109.457 11.7669 109.2 11.3768C108.946 10.9866 108.819 10.5056 108.819 9.93359C108.819 9.44117 108.91 9.03397 109.092 8.712C109.274 8.39003 109.522 8.13246 109.836 7.93928C110.151 7.74609 110.505 7.60026 110.899 7.50178C111.296 7.3995 111.707 7.32564 112.132 7.28018C112.643 7.22715 113.058 7.17981 113.376 7.13814C113.694 7.09269 113.925 7.0245 114.069 6.93359C114.217 6.8389 114.291 6.69306 114.291 6.49609V6.462C114.291 6.03397 114.164 5.70253 113.91 5.46768C113.656 5.23284 113.291 5.11541 112.813 5.11541C112.31 5.11541 111.91 5.22526 111.615 5.44496C111.323 5.66465 111.126 5.92412 111.024 6.22337L109.103 5.95064C109.255 5.42034 109.505 4.97715 109.853 4.62109C110.202 4.26125 110.628 3.99231 111.132 3.81428C111.635 3.63246 112.192 3.54155 112.802 3.54155C113.223 3.54155 113.641 3.59079 114.058 3.68928C114.474 3.78776 114.855 3.95064 115.2 4.17791C115.545 4.4014 115.821 4.70632 116.029 5.09268C116.242 5.47905 116.348 5.962 116.348 6.54155V12.3825H114.37V11.1836H114.302C114.177 11.426 114.001 11.6533 113.774 11.8654C113.55 12.0737 113.268 12.2423 112.927 12.3711C112.59 12.4961 112.194 12.5586 111.74 12.5586ZM112.274 11.0472C112.687 11.0472 113.045 10.9658 113.348 10.8029C113.651 10.6362 113.884 10.4165 114.046 10.1438C114.213 9.87109 114.296 9.57375 114.296 9.25178V8.22337C114.232 8.2764 114.122 8.32564 113.967 8.37109C113.815 8.41655 113.645 8.45632 113.456 8.49041C113.266 8.5245 113.079 8.55481 112.893 8.58132C112.707 8.60784 112.546 8.63056 112.41 8.6495C112.103 8.69117 111.829 8.75935 111.586 8.85405C111.344 8.94875 111.152 9.08132 111.012 9.25178C110.872 9.41844 110.802 9.63435 110.802 9.8995C110.802 10.2783 110.94 10.5643 111.217 10.7575C111.493 10.9506 111.846 11.0472 112.274 11.0472Z" fill="#545454"/>
<path d="M120.473 7.26882V12.3825H118.416V3.65518H120.382V5.13814H120.484C120.685 4.6495 121.005 4.26125 121.444 3.97337C121.887 3.68549 122.435 3.54155 123.086 3.54155C123.688 3.54155 124.213 3.67034 124.66 3.92791C125.111 4.18549 125.459 4.55859 125.706 5.04723C125.956 5.53587 126.079 6.12867 126.075 6.82564V12.3825H124.018V7.14382C124.018 6.56049 123.867 6.10405 123.563 5.7745C123.264 5.44496 122.849 5.28018 122.319 5.28018C121.959 5.28018 121.639 5.35973 121.359 5.51882C121.082 5.67412 120.865 5.8995 120.706 6.19496C120.55 6.49041 120.473 6.84837 120.473 7.26882Z" fill="#545454"/>
<path d="M132.524 3.65518V5.24609H127.507V3.65518H132.524ZM128.745 1.56428H130.802V9.75746C130.802 10.034 130.844 10.2461 130.927 10.3938C131.014 10.5378 131.128 10.6362 131.268 10.6893C131.408 10.7423 131.563 10.7688 131.734 10.7688C131.863 10.7688 131.98 10.7594 132.086 10.7404C132.196 10.7215 132.279 10.7044 132.336 10.6893L132.683 12.2972C132.573 12.3351 132.416 12.3768 132.211 12.4222C132.01 12.4677 131.764 12.4942 131.473 12.5018C130.957 12.5169 130.493 12.4393 130.081 12.2688C129.668 12.0946 129.34 11.8256 129.098 11.462C128.859 11.0984 128.742 10.6438 128.745 10.0984V1.56428Z" fill="#545454"/>
<path d="M141.017 5.962L139.142 6.16655C139.089 5.97715 138.996 5.79912 138.863 5.63246C138.734 5.46579 138.56 5.33132 138.34 5.22905C138.121 5.12678 137.852 5.07564 137.534 5.07564C137.106 5.07564 136.746 5.16844 136.454 5.35405C136.166 5.53965 136.024 5.78019 136.028 6.07564C136.024 6.32943 136.117 6.53587 136.306 6.69496C136.5 6.85405 136.818 6.98473 137.261 7.087L138.75 7.40518C139.575 7.58322 140.189 7.86541 140.59 8.25178C140.996 8.63814 141.2 9.14382 141.204 9.76882C141.2 10.3181 141.039 10.8029 140.721 11.2234C140.407 11.64 139.969 11.9658 139.409 12.2006C138.848 12.4355 138.204 12.5529 137.477 12.5529C136.409 12.5529 135.549 12.3294 134.897 11.8825C134.246 11.4317 133.858 10.8048 133.733 10.0018L135.738 9.80859C135.829 10.2025 136.022 10.4999 136.318 10.7006C136.613 10.9014 136.998 11.0018 137.471 11.0018C137.96 11.0018 138.352 10.9014 138.647 10.7006C138.947 10.4999 139.096 10.2518 139.096 9.95632C139.096 9.70632 139 9.49988 138.806 9.337C138.617 9.17412 138.322 9.04912 137.92 8.962L136.431 8.6495C135.594 8.47526 134.975 8.1817 134.573 7.76882C134.172 7.35216 133.973 6.82564 133.977 6.18928C133.973 5.6514 134.119 5.18549 134.414 4.79155C134.714 4.39382 135.128 4.087 135.659 3.87109C136.193 3.6514 136.808 3.54155 137.505 3.54155C138.528 3.54155 139.333 3.75935 139.92 4.19496C140.511 4.63056 140.876 5.21958 141.017 5.962Z" fill="#545454"/>
</svg>
