<svg width="268" height="96" viewBox="0 0 268 96" fill="none" xmlns="http://www.w3.org/2000/svg">
<path d="M176.841 0.788086H90.2285V50.2812H176.841V0.788086Z" fill="#F6F6F6"/>
<path fill-rule="evenodd" clip-rule="evenodd" d="M90.2285 0.788086H176.841V50.2812H90.2285V0.788086ZM91.7752 48.7346H175.295V2.33475H91.7752V48.7346Z" fill="#AFAFAF"/>
<path d="M172.201 5.42822H94.8682V45.6414H172.201V5.42822Z" fill="white"/>
<path fill-rule="evenodd" clip-rule="evenodd" d="M138.068 19.8179H127.789V16.7246H138.068V19.8179Z" fill="#AFAFAF"/>
<path fill-rule="evenodd" clip-rule="evenodd" d="M117.005 19.8179H106.727V16.7246H117.005V19.8179Z" fill="#AFAFAF"/>
<path fill-rule="evenodd" clip-rule="evenodd" d="M160.171 19.8179H148.864V16.7246H160.171V19.8179Z" fill="#AFAFAF"/>
<path fill-rule="evenodd" clip-rule="evenodd" d="M138.068 34.2178H127.789V31.1245H138.068V34.2178Z" fill="#AFAFAF"/>
<path fill-rule="evenodd" clip-rule="evenodd" d="M117.005 34.2178H106.727V31.1245H117.005V34.2178Z" fill="#AFAFAF"/>
<path fill-rule="evenodd" clip-rule="evenodd" d="M160.171 34.2178H148.864V31.1245H160.171V34.2178Z" fill="#AFAFAF"/>
<path d="M46.9354 86.0258H45.8054C45.7385 85.7007 45.6216 85.4152 45.4545 85.1691C45.2905 84.923 45.09 84.7165 44.853 84.5494C44.6191 84.3793 44.3594 84.2517 44.0738 84.1666C43.7883 84.0816 43.4906 84.0391 43.1807 84.0391C42.6157 84.0391 42.1039 84.1818 41.6451 84.4674C41.1895 84.7529 40.8265 85.1737 40.5561 85.7296C40.2888 86.2855 40.1551 86.9675 40.1551 87.7755C40.1551 88.5836 40.2888 89.2655 40.5561 89.8215C40.8265 90.3774 41.1895 90.7981 41.6451 91.0837C42.1039 91.3692 42.6157 91.512 43.1807 91.512C43.4906 91.512 43.7883 91.4694 44.0738 91.3844C44.3594 91.2993 44.6191 91.1733 44.853 91.0062C45.09 90.8361 45.2905 90.628 45.4545 90.3819C45.6216 90.1328 45.7385 89.8473 45.8054 89.5253H46.9354C46.8504 90.0022 46.6954 90.429 46.4707 90.8057C46.2459 91.1824 45.9664 91.5029 45.6322 91.7671C45.2981 92.0284 44.9229 92.2274 44.5067 92.3641C44.0936 92.5008 43.6516 92.5691 43.1807 92.5691C42.3848 92.5691 41.677 92.3747 41.0573 91.9859C40.4376 91.597 39.9501 91.0442 39.5947 90.3272C39.2392 89.6103 39.0615 88.7598 39.0615 87.7755C39.0615 86.7913 39.2392 85.9407 39.5947 85.2238C39.9501 84.5069 40.4376 83.954 41.0573 83.5652C41.677 83.1763 42.3848 82.9819 43.1807 82.9819C43.6516 82.9819 44.0936 83.0503 44.5067 83.187C44.9229 83.3237 45.2981 83.5242 45.6322 83.7884C45.9664 84.0497 46.2459 84.3687 46.4707 84.7453C46.6954 85.119 46.8504 85.5458 46.9354 86.0258Z" fill="#545454"/>
<path d="M48.6157 83.1095H49.6911V90.6189C49.6911 90.9591 49.729 91.1976 49.805 91.3343C49.8809 91.471 50.0374 91.5363 50.2743 91.5302C50.4019 91.5241 50.4961 91.515 50.5568 91.5029C50.6206 91.4877 50.6783 91.4725 50.73 91.4573L50.9487 92.3869C50.8545 92.4142 50.7361 92.4385 50.5933 92.4598C50.4505 92.4841 50.3017 92.4962 50.1467 92.4962C49.6364 92.4962 49.2536 92.3565 48.9985 92.077C48.7433 91.7975 48.6157 91.4087 48.6157 90.9105V83.1095Z" fill="#545454"/>
<path d="M51.9364 92.4415V85.4425H53.0117V92.4415H51.9364ZM52.4832 84.276C52.2736 84.276 52.0928 84.2046 51.9409 84.0618C51.7921 83.9191 51.7176 83.7474 51.7176 83.5469C51.7176 83.3464 51.7921 83.1748 51.9409 83.032C52.0928 82.8893 52.2736 82.8179 52.4832 82.8179C52.6928 82.8179 52.872 82.8893 53.0208 83.032C53.1727 83.1748 53.2487 83.3464 53.2487 83.5469C53.2487 83.7474 53.1727 83.9191 53.0208 84.0618C52.872 84.2046 52.6928 84.276 52.4832 84.276Z" fill="#545454"/>
<path d="M57.8247 92.5873C57.1685 92.5873 56.6035 92.4324 56.1296 92.1226C55.6557 91.8127 55.2912 91.3859 55.036 90.8421C54.7809 90.2984 54.6533 89.6772 54.6533 88.9785C54.6533 88.2676 54.7839 87.6403 55.0451 87.0966C55.3094 86.5498 55.677 86.123 56.1479 85.8162C56.6217 85.5063 57.1746 85.3514 57.8065 85.3514C58.2986 85.3514 58.7421 85.4425 59.137 85.6248C59.5319 85.807 59.8555 86.0622 60.1076 86.3903C60.3597 86.7184 60.5162 87.1011 60.5769 87.5386H59.5016C59.4195 87.2196 59.2373 86.9371 58.9548 86.691C58.6753 86.4419 58.2986 86.3174 57.8247 86.3174C57.4055 86.3174 57.0379 86.4267 56.722 86.6455C56.4091 86.8611 56.1646 87.1664 55.9884 87.5614C55.8152 87.9532 55.7286 88.4134 55.7286 88.942C55.7286 89.4827 55.8137 89.9536 55.9838 90.3546C56.157 90.7556 56.4 91.0669 56.7129 91.2887C57.0288 91.5105 57.3994 91.6213 57.8247 91.6213C58.1042 91.6213 58.3578 91.5727 58.5857 91.4755C58.8135 91.3783 59.0064 91.2386 59.1644 91.0563C59.3223 90.874 59.4347 90.6553 59.5016 90.4002H60.5769C60.5162 90.8133 60.3658 91.1854 60.1258 91.5165C59.8889 91.8446 59.5745 92.1059 59.1826 92.3003C58.7938 92.4917 58.3411 92.5873 57.8247 92.5873Z" fill="#545454"/>
<path d="M63.1514 89.8898L63.1332 88.5593H63.3519L66.414 85.4425H67.7446L64.482 88.7415H64.3909L63.1514 89.8898ZM62.149 92.4415V83.1095H63.2243V92.4415H62.149ZM66.5963 92.4415L63.8623 88.9785L64.6278 88.2312L67.9633 92.4415H66.5963Z" fill="#545454"/>
<path d="M72.373 86.0258V85.2056C72.373 84.9565 72.417 84.6922 72.5051 84.4127C72.5963 84.1302 72.7269 83.8583 72.897 83.5971C73.0701 83.3328 73.2782 83.1034 73.5213 82.909L74.1045 83.3829C73.9131 83.6563 73.7461 83.9418 73.6033 84.2395C73.4635 84.5342 73.3937 84.8501 73.3937 85.1873V86.0258H72.373Z" fill="#545454"/>
<path d="M74.5818 92.4415H73.3971L76.8237 83.1095H77.9902L81.4168 92.4415H80.2321L77.4434 84.5859H77.3705L74.5818 92.4415ZM75.0193 88.7962H79.7946V89.7987H75.0193V88.7962Z" fill="#545454"/>
<path d="M85.3674 92.5873C84.7842 92.5873 84.2693 92.44 83.8227 92.1454C83.3762 91.8476 83.0268 91.4284 82.7747 90.8877C82.5226 90.344 82.3965 89.7015 82.3965 88.9602C82.3965 88.2251 82.5226 87.5872 82.7747 87.0465C83.0268 86.5057 83.3777 86.088 83.8273 85.7934C84.2769 85.4987 84.7963 85.3514 85.3857 85.3514C85.8413 85.3514 86.2013 85.4273 86.4656 85.5792C86.7329 85.7281 86.9364 85.8982 87.0762 86.0896C87.219 86.2779 87.3298 86.4328 87.4088 86.5543H87.4999V83.1095H88.5753V92.4415H87.5364V91.3662H87.4088C87.3298 91.4937 87.2174 91.6548 87.0716 91.8492C86.9258 92.0405 86.7177 92.2122 86.4474 92.3641C86.177 92.5129 85.817 92.5873 85.3674 92.5873ZM85.5132 91.6213C85.9446 91.6213 86.3091 91.5089 86.6068 91.2841C86.9045 91.0563 87.1309 90.7419 87.2858 90.3409C87.4407 89.9369 87.5182 89.4706 87.5182 88.942C87.5182 88.4195 87.4422 87.9623 87.2903 87.5705C87.1384 87.1756 86.9137 86.8687 86.616 86.65C86.3183 86.4283 85.9507 86.3174 85.5132 86.3174C85.0576 86.3174 84.6779 86.4343 84.3741 86.6682C84.0733 86.8991 83.847 87.2135 83.6951 87.6115C83.5463 88.0064 83.4719 88.4499 83.4719 88.942C83.4719 89.4402 83.5478 89.8928 83.6997 90.2999C83.8546 90.7039 84.0825 91.0259 84.3832 91.2659C84.687 91.5029 85.0637 91.6213 85.5132 91.6213Z" fill="#545454"/>
<path d="M93.337 92.5873C92.7538 92.5873 92.2389 92.44 91.7923 92.1454C91.3458 91.8476 90.9964 91.4284 90.7443 90.8877C90.4922 90.344 90.3661 89.7015 90.3661 88.9602C90.3661 88.2251 90.4922 87.5872 90.7443 87.0465C90.9964 86.5057 91.3473 86.088 91.7969 85.7934C92.2465 85.4987 92.7659 85.3514 93.3553 85.3514C93.8109 85.3514 94.1709 85.4273 94.4352 85.5792C94.7025 85.7281 94.906 85.8982 95.0458 86.0896C95.1885 86.2779 95.2994 86.4328 95.3784 86.5543H95.4695V83.1095H96.5449V92.4415H95.506V91.3662H95.3784C95.2994 91.4937 95.187 91.6548 95.0412 91.8492C94.8954 92.0405 94.6873 92.2122 94.417 92.3641C94.1466 92.5129 93.7866 92.5873 93.337 92.5873ZM93.4828 91.6213C93.9142 91.6213 94.2787 91.5089 94.5764 91.2841C94.8741 91.0563 95.1005 90.7419 95.2554 90.3409C95.4103 89.9369 95.4878 89.4706 95.4878 88.942C95.4878 88.4195 95.4118 87.9623 95.2599 87.5705C95.108 87.1756 94.8833 86.8687 94.5855 86.65C94.2878 86.4283 93.9203 86.3174 93.4828 86.3174C93.0272 86.3174 92.6475 86.4343 92.3437 86.6682C92.0429 86.8991 91.8166 87.2135 91.6647 87.6115C91.5159 88.0064 91.4415 88.4499 91.4415 88.942C91.4415 89.4402 91.5174 89.8928 91.6693 90.2999C91.8242 90.7039 92.052 91.0259 92.3528 91.2659C92.6566 91.5029 93.0332 91.6213 93.4828 91.6213Z" fill="#545454"/>
<path d="M102.418 92.4415V83.1095H105.572C106.304 83.1095 106.902 83.2416 107.367 83.5059C107.835 83.7672 108.181 84.1211 108.406 84.5676C108.631 85.0142 108.743 85.5124 108.743 86.0622C108.743 86.612 108.631 87.1118 108.406 87.5614C108.184 88.0109 107.841 88.3694 107.376 88.6367C106.911 88.901 106.316 89.0332 105.59 89.0332H103.33V88.0307H105.553C106.055 88.0307 106.457 87.9441 106.761 87.771C107.065 87.5978 107.285 87.3639 107.422 87.0692C107.561 86.7715 107.631 86.4359 107.631 86.0622C107.631 85.6886 107.561 85.3544 107.422 85.0597C107.285 84.7651 107.063 84.5342 106.756 84.3671C106.45 84.197 106.043 84.112 105.535 84.112H103.549V92.4415H102.418Z" fill="#545454"/>
<path d="M112.477 92.6056C112.034 92.6056 111.631 92.522 111.27 92.355C110.908 92.1848 110.621 91.9403 110.409 91.6213C110.196 91.2993 110.09 90.9105 110.09 90.4548C110.09 90.0538 110.169 89.7288 110.327 89.4797C110.484 89.2276 110.696 89.0301 110.96 88.8873C111.224 88.7446 111.516 88.6382 111.835 88.5684C112.157 88.4955 112.48 88.4378 112.805 88.3952C113.231 88.3405 113.575 88.2995 113.84 88.2722C114.107 88.2418 114.301 88.1917 114.423 88.1218C114.548 88.052 114.61 87.9304 114.61 87.7573V87.7208C114.61 87.2712 114.487 86.9219 114.241 86.6728C113.998 86.4237 113.629 86.2992 113.133 86.2992C112.62 86.2992 112.218 86.4116 111.926 86.6364C111.634 86.8611 111.429 87.1011 111.311 87.3563L110.29 86.9918C110.472 86.5665 110.715 86.2354 111.019 85.9984C111.326 85.7584 111.66 85.5914 112.022 85.4972C112.386 85.4 112.745 85.3514 113.097 85.3514C113.322 85.3514 113.58 85.3787 113.872 85.4334C114.166 85.485 114.45 85.5929 114.724 85.7569C115 85.921 115.229 86.1685 115.412 86.4997C115.594 86.8308 115.685 87.2743 115.685 87.8302V92.4415H114.61V91.4937H114.555C114.482 91.6456 114.361 91.8082 114.191 91.9813C114.02 92.1545 113.794 92.3018 113.512 92.4233C113.229 92.5448 112.884 92.6056 112.477 92.6056ZM112.641 91.6396C113.067 91.6396 113.425 91.556 113.717 91.3889C114.011 91.2219 114.233 91.0062 114.382 90.7419C114.534 90.4776 114.61 90.1997 114.61 89.908V88.9238C114.564 88.9785 114.464 89.0286 114.309 89.0742C114.157 89.1167 113.981 89.1547 113.78 89.1881C113.583 89.2185 113.39 89.2458 113.202 89.2701C113.016 89.2914 112.866 89.3096 112.751 89.3248C112.471 89.3612 112.21 89.4205 111.967 89.5025C111.727 89.5815 111.533 89.7015 111.384 89.8625C111.238 90.0204 111.165 90.2361 111.165 90.5095C111.165 90.8832 111.303 91.1657 111.58 91.357C111.859 91.5454 112.213 91.6396 112.641 91.6396Z" fill="#545454"/>
<path d="M117.648 95.0662V85.4425H118.687V86.5543H118.814C118.893 86.4328 119.003 86.2779 119.143 86.0896C119.285 85.8982 119.489 85.7281 119.753 85.5792C120.02 85.4273 120.382 85.3514 120.838 85.3514C121.427 85.3514 121.946 85.4987 122.396 85.7934C122.846 86.088 123.196 86.5057 123.449 87.0465C123.701 87.5872 123.827 88.2251 123.827 88.9602C123.827 89.7015 123.701 90.344 123.449 90.8877C123.196 91.4284 122.847 91.8476 122.401 92.1454C121.954 92.44 121.439 92.5873 120.856 92.5873C120.406 92.5873 120.046 92.5129 119.776 92.3641C119.506 92.2122 119.297 92.0405 119.152 91.8492C119.006 91.6548 118.893 91.4937 118.814 91.3662H118.723V95.0662H117.648ZM118.705 88.942C118.705 89.4706 118.783 89.9369 118.937 90.3409C119.092 90.7419 119.319 91.0563 119.616 91.2841C119.914 91.5089 120.279 91.6213 120.71 91.6213C121.16 91.6213 121.535 91.5029 121.836 91.2659C122.139 91.0259 122.367 90.7039 122.519 90.2999C122.674 89.8928 122.751 89.4402 122.751 88.942C122.751 88.4499 122.675 88.0064 122.524 87.6115C122.375 87.2135 122.148 86.8991 121.845 86.6682C121.544 86.4343 121.166 86.3174 120.71 86.3174C120.273 86.3174 119.905 86.4283 119.607 86.65C119.31 86.8687 119.085 87.1756 118.933 87.5705C118.781 87.9623 118.705 88.4195 118.705 88.942Z" fill="#545454"/>
<path d="M128.402 92.5873C127.727 92.5873 127.146 92.4385 126.656 92.1408C126.17 91.8401 125.795 91.4208 125.531 90.8832C125.27 90.3424 125.139 89.7136 125.139 88.9967C125.139 88.2798 125.27 87.6479 125.531 87.1011C125.795 86.5513 126.163 86.123 126.634 85.8162C127.108 85.5063 127.66 85.3514 128.292 85.3514C128.657 85.3514 129.017 85.4121 129.372 85.5336C129.728 85.6552 130.051 85.8526 130.343 86.126C130.634 86.3964 130.867 86.7548 131.04 87.2014C131.213 87.6479 131.3 88.1978 131.3 88.8509V89.3066H125.905V88.377H130.206C130.206 87.9821 130.127 87.6297 129.969 87.3198C129.814 87.01 129.592 86.7655 129.304 86.5862C129.018 86.407 128.681 86.3174 128.292 86.3174C127.864 86.3174 127.493 86.4237 127.18 86.6364C126.871 86.846 126.632 87.1194 126.465 87.4565C126.298 87.7937 126.214 88.1552 126.214 88.541V89.1607C126.214 89.6893 126.306 90.1374 126.488 90.505C126.673 90.8695 126.93 91.1474 127.258 91.3388C127.586 91.5272 127.967 91.6213 128.402 91.6213C128.684 91.6213 128.939 91.5818 129.167 91.5029C129.398 91.4208 129.597 91.2993 129.764 91.1383C129.931 90.9743 130.06 90.7708 130.151 90.5277L131.19 90.8194C131.081 91.1717 130.897 91.4816 130.639 91.7489C130.381 92.0132 130.062 92.2198 129.682 92.3686C129.302 92.5144 128.876 92.5873 128.402 92.5873Z" fill="#545454"/>
<path d="M132.936 92.4415V85.4425H133.974V86.4997H134.047C134.175 86.1533 134.406 85.8724 134.74 85.6567C135.074 85.441 135.451 85.3331 135.87 85.3331C135.949 85.3331 136.048 85.3347 136.166 85.3377C136.285 85.3407 136.374 85.3453 136.435 85.3514V86.445C136.399 86.4359 136.315 86.4222 136.184 86.404C136.057 86.3827 135.922 86.3721 135.779 86.3721C135.439 86.3721 135.135 86.4435 134.868 86.5862C134.603 86.726 134.394 86.9204 134.239 87.1695C134.087 87.4155 134.011 87.6965 134.011 88.0125V92.4415H132.936Z" fill="#545454"/>
<path d="M138.871 83.1095V83.9297C138.871 84.1788 138.825 84.4446 138.734 84.7271C138.646 85.0066 138.515 85.2785 138.342 85.5428C138.172 85.804 137.965 86.0318 137.722 86.2263L137.139 85.7524C137.33 85.479 137.496 85.1949 137.636 84.9003C137.778 84.6026 137.85 84.2851 137.85 83.9479V83.1095H138.871Z" fill="#545454"/>
<path d="M146.944 85.4425V86.3538H143.317V85.4425H146.944ZM144.374 83.7657H145.449V90.4366C145.449 90.7404 145.493 90.9682 145.581 91.1201C145.673 91.269 145.788 91.3692 145.928 91.4208C146.07 91.4694 146.221 91.4937 146.379 91.4937C146.497 91.4937 146.594 91.4877 146.67 91.4755C146.746 91.4603 146.807 91.4482 146.853 91.4391L147.071 92.4051C146.999 92.4324 146.897 92.4598 146.766 92.4871C146.636 92.5175 146.47 92.5327 146.269 92.5327C145.966 92.5327 145.668 92.4674 145.376 92.3367C145.088 92.2061 144.848 92.0071 144.656 91.7398C144.468 91.4725 144.374 91.1353 144.374 90.7282V83.7657Z" fill="#545454"/>
<path d="M151.33 92.5873C150.698 92.5873 150.143 92.437 149.666 92.1362C149.193 91.8355 148.822 91.4148 148.555 90.874C148.29 90.3333 148.158 89.7015 148.158 88.9785C148.158 88.2494 148.29 87.613 148.555 87.0692C148.822 86.5255 149.193 86.1032 149.666 85.8025C150.143 85.5017 150.698 85.3514 151.33 85.3514C151.961 85.3514 152.514 85.5017 152.988 85.8025C153.465 86.1032 153.836 86.5255 154.1 87.0692C154.367 87.613 154.501 88.2494 154.501 88.9785C154.501 89.7015 154.367 90.3333 154.1 90.874C153.836 91.4148 153.465 91.8355 152.988 92.1362C152.514 92.437 151.961 92.5873 151.33 92.5873ZM151.33 91.6213C151.81 91.6213 152.204 91.4983 152.514 91.2522C152.824 91.0062 153.054 90.6827 153.202 90.2817C153.351 89.8807 153.426 89.4463 153.426 88.9785C153.426 88.5107 153.351 88.0747 153.202 87.6707C153.054 87.2667 152.824 86.9401 152.514 86.691C152.204 86.4419 151.81 86.3174 151.33 86.3174C150.85 86.3174 150.455 86.4419 150.145 86.691C149.835 86.9401 149.606 87.2667 149.457 87.6707C149.308 88.0747 149.234 88.5107 149.234 88.9785C149.234 89.4463 149.308 89.8807 149.457 90.2817C149.606 90.6827 149.835 91.0062 150.145 91.2522C150.455 91.4983 150.85 91.6213 151.33 91.6213Z" fill="#545454"/>
<path d="M162.577 95.212C162.057 95.212 161.611 95.1452 161.237 95.0115C160.863 94.8809 160.552 94.7077 160.303 94.492C160.057 94.2794 159.861 94.0516 159.715 93.8085L160.572 93.2071C160.669 93.3346 160.792 93.4805 160.941 93.6445C161.09 93.8116 161.293 93.9559 161.551 94.0774C161.813 94.2019 162.154 94.2642 162.577 94.2642C163.142 94.2642 163.608 94.1275 163.975 93.8541C164.343 93.5807 164.527 93.1524 164.527 92.5691V91.1474H164.436C164.357 91.275 164.244 91.433 164.099 91.6213C163.956 91.8066 163.749 91.9722 163.479 92.118C163.211 92.2608 162.85 92.3322 162.394 92.3322C161.829 92.3322 161.322 92.1985 160.872 91.9312C160.426 91.6639 160.072 91.275 159.811 90.7647C159.552 90.2543 159.423 89.6346 159.423 88.9056C159.423 88.1887 159.549 87.5644 159.802 87.0328C160.054 86.4981 160.405 86.085 160.854 85.7934C161.304 85.4987 161.823 85.3514 162.413 85.3514C162.868 85.3514 163.23 85.4273 163.497 85.5792C163.767 85.7281 163.974 85.8982 164.117 86.0896C164.263 86.2779 164.375 86.4328 164.454 86.5543H164.563V85.4425H165.602V92.642C165.602 93.2435 165.466 93.7326 165.192 94.1093C164.922 94.489 164.557 94.7669 164.099 94.9431C163.643 95.1224 163.136 95.212 162.577 95.212ZM162.54 91.3662C162.972 91.3662 163.336 91.2674 163.634 91.07C163.931 90.8725 164.158 90.5885 164.313 90.2179C164.468 89.8473 164.545 89.4038 164.545 88.8873C164.545 88.3831 164.469 87.938 164.317 87.5522C164.165 87.1664 163.941 86.8642 163.643 86.6455C163.345 86.4267 162.978 86.3174 162.54 86.3174C162.084 86.3174 161.705 86.4328 161.401 86.6637C161.1 86.8946 160.874 87.2044 160.722 87.5932C160.573 87.9821 160.499 88.4134 160.499 88.8873C160.499 89.3734 160.575 89.8032 160.727 90.1769C160.882 90.5475 161.109 90.8391 161.41 91.0518C161.714 91.2614 162.091 91.3662 162.54 91.3662Z" fill="#545454"/>
<path d="M170.505 92.5873C169.831 92.5873 169.249 92.4385 168.76 92.1408C168.274 91.8401 167.899 91.4208 167.634 90.8832C167.373 90.3424 167.243 89.7136 167.243 88.9967C167.243 88.2798 167.373 87.6479 167.634 87.1011C167.899 86.5513 168.266 86.123 168.737 85.8162C169.211 85.5063 169.764 85.3514 170.396 85.3514C170.76 85.3514 171.12 85.4121 171.476 85.5336C171.831 85.6552 172.155 85.8526 172.446 86.126C172.738 86.3964 172.97 86.7548 173.143 87.2014C173.317 87.6479 173.403 88.1978 173.403 88.8509V89.3066H168.008V88.377H172.31C172.31 87.9821 172.231 87.6297 172.073 87.3198C171.918 87.01 171.696 86.7655 171.407 86.5862C171.122 86.407 170.785 86.3174 170.396 86.3174C169.968 86.3174 169.597 86.4237 169.284 86.6364C168.974 86.846 168.736 87.1194 168.569 87.4565C168.402 87.7937 168.318 88.1552 168.318 88.541V89.1607C168.318 89.6893 168.409 90.1374 168.591 90.505C168.777 90.8695 169.033 91.1474 169.361 91.3388C169.69 91.5272 170.071 91.6213 170.505 91.6213C170.788 91.6213 171.043 91.5818 171.271 91.5029C171.502 91.4208 171.701 91.2993 171.868 91.1383C172.035 90.9743 172.164 90.7708 172.255 90.5277L173.294 90.8194C173.184 91.1717 173.001 91.4816 172.743 91.7489C172.484 92.0132 172.165 92.2198 171.786 92.3686C171.406 92.5144 170.979 92.5873 170.505 92.5873Z" fill="#545454"/>
<path d="M178.083 85.4425V86.3538H174.456V85.4425H178.083ZM175.513 83.7657H176.588V90.4366C176.588 90.7404 176.632 90.9682 176.72 91.1201C176.812 91.269 176.927 91.3692 177.067 91.4208C177.21 91.4694 177.36 91.4937 177.518 91.4937C177.636 91.4937 177.734 91.4877 177.81 91.4755C177.885 91.4603 177.946 91.4482 177.992 91.4391L178.21 92.4051C178.138 92.4324 178.036 92.4598 177.905 92.4871C177.775 92.5175 177.609 92.5327 177.409 92.5327C177.105 92.5327 176.807 92.4674 176.515 92.3367C176.227 92.2061 175.987 92.0071 175.795 91.7398C175.607 91.4725 175.513 91.1353 175.513 90.7282V83.7657Z" fill="#545454"/>
<path d="M188.267 87.01L187.301 87.2834C187.24 87.1224 187.151 86.9659 187.032 86.8141C186.917 86.6591 186.759 86.5315 186.558 86.4313C186.358 86.3311 186.101 86.2809 185.788 86.2809C185.36 86.2809 185.003 86.3797 184.717 86.5771C184.435 86.7715 184.294 87.0191 184.294 87.3198C184.294 87.5872 184.391 87.7983 184.585 87.9532C184.78 88.1082 185.083 88.2373 185.497 88.3405L186.536 88.5957C187.161 88.7476 187.628 88.98 187.934 89.2929C188.241 89.6027 188.395 90.0022 188.395 90.4913C188.395 90.8923 188.279 91.2507 188.048 91.5667C187.82 91.8826 187.502 92.1317 187.091 92.3139C186.681 92.4962 186.204 92.5873 185.661 92.5873C184.947 92.5873 184.356 92.4324 183.888 92.1226C183.42 91.8127 183.124 91.3601 183 90.7647L184.02 90.5095C184.117 90.8862 184.301 91.1687 184.572 91.357C184.845 91.5454 185.202 91.6396 185.642 91.6396C186.144 91.6396 186.542 91.5332 186.836 91.3206C187.134 91.1049 187.283 90.8467 187.283 90.546C187.283 90.3029 187.198 90.0994 187.028 89.9354C186.858 89.7683 186.596 89.6437 186.244 89.5617L185.077 89.2883C184.436 89.1364 183.966 88.901 183.665 88.582C183.367 88.26 183.218 87.8575 183.218 87.3745C183.218 86.9796 183.329 86.6303 183.551 86.3265C183.776 86.0227 184.081 85.7843 184.467 85.6111C184.856 85.4379 185.296 85.3514 185.788 85.3514C186.481 85.3514 187.025 85.5033 187.42 85.807C187.817 86.1108 188.1 86.5118 188.267 87.01Z" fill="#545454"/>
<path d="M193.057 85.4425V86.3538H189.43V85.4425H193.057ZM190.487 83.7657H191.563V90.4366C191.563 90.7404 191.607 90.9682 191.695 91.1201C191.786 91.269 191.901 91.3692 192.041 91.4208C192.184 91.4694 192.334 91.4937 192.492 91.4937C192.611 91.4937 192.708 91.4877 192.784 91.4755C192.86 91.4603 192.921 91.4482 192.966 91.4391L193.185 92.4051C193.112 92.4324 193.01 92.4598 192.88 92.4871C192.749 92.5175 192.583 92.5327 192.383 92.5327C192.079 92.5327 191.781 92.4674 191.49 92.3367C191.201 92.2061 190.961 92.0071 190.77 91.7398C190.581 91.4725 190.487 91.1353 190.487 90.7282V83.7657Z" fill="#545454"/>
<path d="M196.734 92.6056C196.291 92.6056 195.888 92.522 195.527 92.355C195.165 92.1848 194.878 91.9403 194.666 91.6213C194.453 91.2993 194.347 90.9105 194.347 90.4548C194.347 90.0538 194.426 89.7288 194.584 89.4797C194.742 89.2276 194.953 89.0301 195.217 88.8873C195.481 88.7446 195.773 88.6382 196.092 88.5684C196.414 88.4955 196.737 88.4378 197.063 88.3952C197.488 88.3405 197.833 88.2995 198.097 88.2722C198.364 88.2418 198.559 88.1917 198.68 88.1218C198.805 88.052 198.867 87.9304 198.867 87.7573V87.7208C198.867 87.2712 198.744 86.9219 198.498 86.6728C198.255 86.4237 197.886 86.2992 197.391 86.2992C196.877 86.2992 196.475 86.4116 196.183 86.6364C195.891 86.8611 195.686 87.1011 195.568 87.3563L194.547 86.9918C194.73 86.5665 194.973 86.2354 195.276 85.9984C195.583 85.7584 195.917 85.5914 196.279 85.4972C196.643 85.4 197.002 85.3514 197.354 85.3514C197.579 85.3514 197.837 85.3787 198.129 85.4334C198.423 85.485 198.707 85.5929 198.981 85.7569C199.257 85.921 199.487 86.1685 199.669 86.4997C199.851 86.8308 199.942 87.2743 199.942 87.8302V92.4415H198.867V91.4937H198.812C198.739 91.6456 198.618 91.8082 198.448 91.9813C198.278 92.1545 198.051 92.3018 197.769 92.4233C197.486 92.5448 197.142 92.6056 196.734 92.6056ZM196.898 91.6396C197.324 91.6396 197.682 91.556 197.974 91.3889C198.269 91.2219 198.49 91.0062 198.639 90.7419C198.791 90.4776 198.867 90.1997 198.867 89.908V88.9238C198.821 88.9785 198.721 89.0286 198.566 89.0742C198.414 89.1167 198.238 89.1547 198.038 89.1881C197.84 89.2185 197.647 89.2458 197.459 89.2701C197.274 89.2914 197.123 89.3096 197.008 89.3248C196.728 89.3612 196.467 89.4205 196.224 89.5025C195.984 89.5815 195.79 89.7015 195.641 89.8625C195.495 90.0204 195.422 90.2361 195.422 90.5095C195.422 90.8832 195.56 91.1657 195.837 91.357C196.116 91.5454 196.47 91.6396 196.898 91.6396Z" fill="#545454"/>
<path d="M201.905 92.4415V85.4425H202.944V86.4997H203.017C203.145 86.1533 203.375 85.8724 203.71 85.6567C204.044 85.441 204.42 85.3331 204.84 85.3331C204.919 85.3331 205.017 85.3347 205.136 85.3377C205.254 85.3407 205.344 85.3453 205.405 85.3514V86.445C205.368 86.4359 205.285 86.4222 205.154 86.404C205.026 86.3827 204.891 86.3721 204.748 86.3721C204.408 86.3721 204.104 86.4435 203.837 86.5862C203.573 86.726 203.363 86.9204 203.208 87.1695C203.056 87.4155 202.98 87.6965 202.98 88.0125V92.4415H201.905Z" fill="#545454"/>
<path d="M210.162 85.4425V86.3538H206.535V85.4425H210.162ZM207.592 83.7657H208.667V90.4366C208.667 90.7404 208.711 90.9682 208.799 91.1201C208.89 91.269 209.006 91.3692 209.146 91.4208C209.288 91.4694 209.439 91.4937 209.597 91.4937C209.715 91.4937 209.812 91.4877 209.888 91.4755C209.964 91.4603 210.025 91.4482 210.071 91.4391L210.289 92.4051C210.216 92.4324 210.115 92.4598 209.984 92.4871C209.853 92.5175 209.688 92.5327 209.487 92.5327C209.184 92.5327 208.886 92.4674 208.594 92.3367C208.306 92.2061 208.066 92.0071 207.874 91.7398C207.686 91.4725 207.592 91.1353 207.592 90.7282V83.7657Z" fill="#545454"/>
<path d="M214.639 92.5873C213.964 92.5873 213.383 92.4385 212.894 92.1408C212.407 91.8401 212.032 91.4208 211.768 90.8832C211.507 90.3424 211.376 89.7136 211.376 88.9967C211.376 88.2798 211.507 87.6479 211.768 87.1011C212.032 86.5513 212.4 86.123 212.871 85.8162C213.345 85.5063 213.897 85.3514 214.529 85.3514C214.894 85.3514 215.254 85.4121 215.609 85.5336C215.965 85.6552 216.288 85.8526 216.58 86.126C216.871 86.3964 217.104 86.7548 217.277 87.2014C217.45 87.6479 217.537 88.1978 217.537 88.8509V89.3066H212.142V88.377H216.443C216.443 87.9821 216.364 87.6297 216.206 87.3198C216.051 87.01 215.83 86.7655 215.541 86.5862C215.255 86.407 214.918 86.3174 214.529 86.3174C214.101 86.3174 213.73 86.4237 213.418 86.6364C213.108 86.846 212.869 87.1194 212.702 87.4565C212.535 87.7937 212.452 88.1552 212.452 88.541V89.1607C212.452 89.6893 212.543 90.1374 212.725 90.505C212.91 90.8695 213.167 91.1474 213.495 91.3388C213.823 91.5272 214.204 91.6213 214.639 91.6213C214.921 91.6213 215.176 91.5818 215.404 91.5029C215.635 91.4208 215.834 91.2993 216.001 91.1383C216.168 90.9743 216.297 90.7708 216.388 90.5277L217.427 90.8194C217.318 91.1717 217.134 91.4816 216.876 91.7489C216.618 92.0132 216.299 92.2198 215.919 92.3686C215.539 92.5144 215.113 92.5873 214.639 92.5873Z" fill="#545454"/>
<path d="M221.815 92.5873C221.232 92.5873 220.717 92.44 220.271 92.1454C219.824 91.8476 219.475 91.4284 219.223 90.8877C218.971 90.344 218.845 89.7015 218.845 88.9602C218.845 88.2251 218.971 87.5872 219.223 87.0465C219.475 86.5057 219.826 86.088 220.275 85.7934C220.725 85.4987 221.244 85.3514 221.834 85.3514C222.289 85.3514 222.649 85.4273 222.914 85.5792C223.181 85.7281 223.384 85.8982 223.524 86.0896C223.667 86.2779 223.778 86.4328 223.857 86.5543H223.948V83.1095H225.023V92.4415H223.984V91.3662H223.857C223.778 91.4937 223.665 91.6548 223.52 91.8492C223.374 92.0405 223.166 92.2122 222.895 92.3641C222.625 92.5129 222.265 92.5873 221.815 92.5873ZM221.961 91.6213C222.393 91.6213 222.757 91.5089 223.055 91.2841C223.353 91.0563 223.579 90.7419 223.734 90.3409C223.889 89.9369 223.966 89.4706 223.966 88.942C223.966 88.4195 223.89 87.9623 223.738 87.5705C223.586 87.1756 223.362 86.8687 223.064 86.65C222.766 86.4283 222.399 86.3174 221.961 86.3174C221.506 86.3174 221.126 86.4343 220.822 86.6682C220.521 86.8991 220.295 87.2135 220.143 87.6115C219.994 88.0064 219.92 88.4499 219.92 88.942C219.92 89.4402 219.996 89.8928 220.148 90.2999C220.303 90.7039 220.53 91.0259 220.831 91.2659C221.135 91.5029 221.512 91.6213 221.961 91.6213Z" fill="#545454"/>
<path d="M227.926 92.5144C227.701 92.5144 227.508 92.4339 227.347 92.2729C227.186 92.1119 227.106 91.919 227.106 91.6942C227.106 91.4694 227.186 91.2765 227.347 91.1155C227.508 90.9545 227.701 90.874 227.926 90.874C228.151 90.874 228.344 90.9545 228.505 91.1155C228.666 91.2765 228.746 91.4694 228.746 91.6942C228.746 91.8431 228.708 91.9798 228.632 92.1043C228.559 92.2289 228.461 92.3291 228.336 92.4051C228.215 92.478 228.078 92.5144 227.926 92.5144Z" fill="#545454"/>
<path d="M0 72.278V61.6128H6.93654V63.2324H1.93202V66.1278H6.57721V67.7474H1.93202V70.6584H6.9782V72.278H0Z" fill="#545454"/>
<path d="M10.3657 64.2791L11.9801 67.2318L13.6205 64.2791H15.615L13.2039 68.2785L15.6567 72.278H13.6726L11.9801 69.3982L10.3033 72.278H8.30353L10.7407 68.2785L8.36603 64.2791H10.3657Z" fill="#545454"/>
<path d="M19.3463 72.4394C18.8394 72.4394 18.3829 72.3491 17.9767 72.1686C17.5739 71.9846 17.2545 71.7138 17.0185 71.3562C16.7859 70.9986 16.6696 70.5577 16.6696 70.0335C16.6696 69.5822 16.7529 69.209 16.9195 68.9139C17.0862 68.6188 17.3136 68.3827 17.6017 68.2056C17.8899 68.0286 18.2145 67.8949 18.5755 67.8046C18.9401 67.7109 19.3168 67.6432 19.7056 67.6015C20.1743 67.5529 20.5544 67.5095 20.8461 67.4714C21.1377 67.4297 21.3495 67.3672 21.4814 67.2839C21.6168 67.1971 21.6845 67.0634 21.6845 66.8829V66.8516C21.6845 66.4593 21.5682 66.1556 21.3356 65.9403C21.103 65.7251 20.7679 65.6174 20.3305 65.6174C19.8688 65.6174 19.5025 65.7181 19.2317 65.9195C18.9644 66.1208 18.7838 66.3587 18.6901 66.6329L16.9299 66.383C17.0688 65.8969 17.2979 65.4907 17.6173 65.1644C17.9367 64.8346 18.3273 64.5881 18.7891 64.4249C19.2508 64.2583 19.7611 64.1749 20.3201 64.1749C20.7055 64.1749 21.0891 64.2201 21.471 64.3103C21.8529 64.4006 22.2018 64.5499 22.5177 64.7582C22.8336 64.963 23.0871 65.2425 23.278 65.5966C23.4724 65.9507 23.5696 66.3934 23.5696 66.9246V72.278H21.7574V71.1792H21.6949C21.5803 71.4014 21.4189 71.6097 21.2106 71.8041C21.0058 71.995 20.7471 72.1495 20.4347 72.2676C20.1257 72.3821 19.7629 72.4394 19.3463 72.4394ZM19.8358 71.0542C20.2142 71.0542 20.5423 70.9795 20.82 70.8303C21.0978 70.6775 21.3113 70.4761 21.4606 70.2262C21.6133 69.9762 21.6897 69.7037 21.6897 69.4086V68.466C21.6307 68.5146 21.53 68.5597 21.3877 68.6014C21.2488 68.6431 21.0926 68.6795 20.919 68.7108C20.7454 68.742 20.5735 68.7698 20.4034 68.7941C20.2333 68.8184 20.0858 68.8392 19.9608 68.8566C19.6796 68.8948 19.4279 68.9573 19.2057 69.0441C18.9835 69.1308 18.8082 69.2524 18.6797 69.4086C18.5512 69.5613 18.487 69.7592 18.487 70.0023C18.487 70.3494 18.6137 70.6115 18.8672 70.7886C19.1206 70.9657 19.4435 71.0542 19.8358 71.0542Z" fill="#545454"/>
<path d="M25.4652 72.278V64.2791H27.267V65.6383H27.3608C27.5274 65.18 27.8034 64.8224 28.1888 64.5655C28.5742 64.3051 29.0342 64.1749 29.5688 64.1749C30.1104 64.1749 30.5669 64.3069 30.9384 64.5707C31.3134 64.8311 31.5772 65.1869 31.73 65.6383H31.8133C31.9903 65.1939 32.2889 64.8398 32.709 64.5759C33.1326 64.3086 33.6342 64.1749 34.214 64.1749C34.95 64.1749 35.5506 64.4075 36.0158 64.8728C36.481 65.338 36.7136 66.0167 36.7136 66.9089V72.278H34.8233V67.2006C34.8233 66.7041 34.6914 66.3413 34.4275 66.1122C34.1637 65.8796 33.8408 65.7633 33.4589 65.7633C33.0041 65.7633 32.6482 65.9056 32.3913 66.1903C32.1379 66.4715 32.0112 66.8378 32.0112 67.2891V72.278H30.1625V67.1224C30.1625 66.7093 30.0375 66.3795 29.7875 66.133C29.541 65.8865 29.2182 65.7633 28.8189 65.7633C28.5481 65.7633 28.3016 65.8327 28.0794 65.9716C27.8572 66.107 27.6802 66.2996 27.5483 66.5496C27.4163 66.7961 27.3504 67.0843 27.3504 67.4141V72.278H25.4652Z" fill="#545454"/>
<path d="M42.2637 75.2776V64.2791H44.1176V65.6018H44.2269C44.3241 65.4074 44.4613 65.2008 44.6383 64.9821C44.8154 64.7599 45.0549 64.5707 45.357 64.4145C45.659 64.2548 46.0444 64.1749 46.5131 64.1749C47.131 64.1749 47.6883 64.3329 48.1847 64.6488C48.6846 64.9613 49.0804 65.4248 49.372 66.0393C49.6671 66.6503 49.8147 67.4002 49.8147 68.2889C49.8147 69.1673 49.6706 69.9137 49.3825 70.5282C49.0943 71.1427 48.702 71.6114 48.2055 71.9343C47.7091 72.2571 47.1467 72.4186 46.5183 72.4186C46.06 72.4186 45.6799 72.3422 45.3778 72.1894C45.0758 72.0367 44.8327 71.8527 44.6487 71.6374C44.4682 71.4187 44.3276 71.2122 44.2269 71.0177H44.1488V75.2776H42.2637ZM44.1124 68.2785C44.1124 68.7958 44.1853 69.2489 44.3311 69.6377C44.4804 70.0266 44.6939 70.3303 44.9716 70.5491C45.2528 70.7643 45.5931 70.8719 45.9923 70.8719C46.4089 70.8719 46.7578 70.7608 47.039 70.5386C47.3203 70.313 47.532 70.0057 47.6744 69.6169C47.8202 69.2246 47.8931 68.7785 47.8931 68.2785C47.8931 67.7821 47.8219 67.3412 47.6796 66.9558C47.5372 66.5704 47.3255 66.2684 47.0442 66.0497C46.763 65.831 46.4124 65.7216 45.9923 65.7216C45.5896 65.7216 45.2476 65.8275 44.9664 66.0393C44.6852 66.251 44.4717 66.5479 44.3259 66.9298C44.1835 67.3117 44.1124 67.7612 44.1124 68.2785Z" fill="#545454"/>
<path d="M53.7308 72.4394C53.2239 72.4394 52.7674 72.3491 52.3612 72.1686C51.9585 71.9846 51.6391 71.7138 51.403 71.3562C51.1704 70.9986 51.0541 70.5577 51.0541 70.0335C51.0541 69.5822 51.1374 69.209 51.3041 68.9139C51.4707 68.6188 51.6981 68.3827 51.9863 68.2056C52.2744 68.0286 52.599 67.8949 52.9601 67.8046C53.3246 67.7109 53.7013 67.6432 54.0901 67.6015C54.5588 67.5529 54.939 67.5095 55.2306 67.4714C55.5222 67.4297 55.734 67.3672 55.8659 67.2839C56.0013 67.1971 56.069 67.0634 56.069 66.8829V66.8516C56.069 66.4593 55.9527 66.1556 55.7201 65.9403C55.4875 65.7251 55.1525 65.6174 54.7151 65.6174C54.2533 65.6174 53.887 65.7181 53.6163 65.9195C53.3489 66.1208 53.1684 66.3587 53.0747 66.6329L51.3145 66.383C51.4534 65.8969 51.6825 65.4907 52.0019 65.1644C52.3213 64.8346 52.7119 64.5881 53.1736 64.4249C53.6353 64.2583 54.1457 64.1749 54.7046 64.1749C55.09 64.1749 55.4736 64.2201 55.8555 64.3103C56.2374 64.4006 56.5863 64.5499 56.9023 64.7582C57.2182 64.963 57.4716 65.2425 57.6626 65.5966C57.857 65.9507 57.9542 66.3934 57.9542 66.9246V72.278H56.1419V71.1792H56.0795C55.9649 71.4014 55.8034 71.6097 55.5951 71.8041C55.3903 71.995 55.1317 72.1495 54.8192 72.2676C54.5102 72.3821 54.1474 72.4394 53.7308 72.4394ZM54.2203 71.0542C54.5988 71.0542 54.9268 70.9795 55.2046 70.8303C55.4823 70.6775 55.6958 70.4761 55.8451 70.2262C55.9979 69.9762 56.0742 69.7037 56.0742 69.4086V68.466C56.0152 68.5146 55.9145 68.5597 55.7722 68.6014C55.6333 68.6431 55.4771 68.6795 55.3035 68.7108C55.1299 68.742 54.9581 68.7698 54.788 68.7941C54.6178 68.8184 54.4703 68.8392 54.3453 68.8566C54.0641 68.8948 53.8124 68.9573 53.5902 69.0441C53.368 69.1308 53.1927 69.2524 53.0642 69.4086C52.9358 69.5613 52.8716 69.7592 52.8716 70.0023C52.8716 70.3494 52.9983 70.6115 53.2517 70.7886C53.5052 70.9657 53.828 71.0542 54.2203 71.0542Z" fill="#545454"/>
<path d="M59.8498 75.2776V64.2791H61.7037V65.6018H61.813C61.9102 65.4074 62.0474 65.2008 62.2244 64.9821C62.4015 64.7599 62.641 64.5707 62.9431 64.4145C63.2451 64.2548 63.6305 64.1749 64.0992 64.1749C64.7171 64.1749 65.2744 64.3329 65.7708 64.6488C66.2707 64.9613 66.6665 65.4248 66.9581 66.0393C67.2532 66.6503 67.4008 67.4002 67.4008 68.2889C67.4008 69.1673 67.2567 69.9137 66.9686 70.5282C66.6804 71.1427 66.2881 71.6114 65.7916 71.9343C65.2952 72.2571 64.7328 72.4186 64.1044 72.4186C63.6461 72.4186 63.266 72.3422 62.9639 72.1894C62.6619 72.0367 62.4188 71.8527 62.2348 71.6374C62.0543 71.4187 61.9137 71.2122 61.813 71.0177H61.7349V75.2776H59.8498ZM61.6985 68.2785C61.6985 68.7958 61.7714 69.2489 61.9172 69.6377C62.0665 70.0266 62.28 70.3303 62.5577 70.5491C62.8389 70.7643 63.1792 70.8719 63.5784 70.8719C63.995 70.8719 64.3439 70.7608 64.6251 70.5386C64.9063 70.313 65.1181 70.0057 65.2605 69.6169C65.4063 69.2246 65.4792 68.7785 65.4792 68.2785C65.4792 67.7821 65.408 67.3412 65.2657 66.9558C65.1233 66.5704 64.9116 66.2684 64.6303 66.0497C64.3491 65.831 63.9985 65.7216 63.5784 65.7216C63.1757 65.7216 62.8337 65.8275 62.5525 66.0393C62.2713 66.251 62.0578 66.5479 61.912 66.9298C61.7696 67.3117 61.6985 67.7612 61.6985 68.2785Z" fill="#545454"/>
<path d="M72.5563 72.4342C71.7544 72.4342 71.0617 72.2676 70.4785 71.9343C69.8987 71.5975 69.4526 71.1219 69.1401 70.5074C68.8277 69.8894 68.6714 69.1621 68.6714 68.3254C68.6714 67.5026 68.8277 66.7805 69.1401 66.159C69.4561 65.5341 69.897 65.0481 70.4629 64.7009C71.0288 64.3503 71.6936 64.1749 72.4574 64.1749C72.9504 64.1749 73.4156 64.2548 73.853 64.4145C74.2939 64.5707 74.6828 64.8137 75.0195 65.1436C75.3598 65.4734 75.6271 65.8934 75.8215 66.4038C76.0159 66.9107 76.1131 67.5148 76.1131 68.216V68.7941H69.5567V67.5234H74.3061C74.3026 67.1624 74.2245 66.8412 74.0717 66.56C73.919 66.2753 73.7055 66.0514 73.4312 65.8882C73.1604 65.7251 72.8445 65.6435 72.4834 65.6435C72.0981 65.6435 71.7596 65.7372 71.4679 65.9247C71.1763 66.1087 70.9489 66.3517 70.7857 66.6538C70.626 66.9523 70.5444 67.2804 70.541 67.638V68.7472C70.541 69.2124 70.626 69.6117 70.7962 69.945C70.9663 70.2748 71.2041 70.5282 71.5096 70.7053C71.8151 70.8789 72.1727 70.9657 72.5824 70.9657C72.8566 70.9657 73.1049 70.9275 73.3271 70.8511C73.5492 70.7712 73.7419 70.6549 73.9051 70.5022C74.0683 70.3494 74.1915 70.1602 74.2748 69.9346L76.035 70.1324C75.9239 70.5977 75.7121 71.0038 75.3997 71.351C75.0907 71.6947 74.6949 71.962 74.2123 72.153C73.7298 72.3405 73.1778 72.4342 72.5563 72.4342Z" fill="#545454"/>
<path d="M77.708 72.278V64.2791H79.5358V65.6122H79.6191C79.765 65.1505 80.0149 64.7946 80.369 64.5447C80.7266 64.2912 81.1346 64.1645 81.5928 64.1645C81.697 64.1645 81.8133 64.1697 81.9417 64.1801C82.0737 64.1871 82.183 64.1992 82.2698 64.2166V65.9507C82.19 65.923 82.0633 65.8987 81.8897 65.8778C81.7195 65.8535 81.5546 65.8414 81.3949 65.8414C81.0512 65.8414 80.7423 65.916 80.468 66.0653C80.1972 66.2111 79.9837 66.4142 79.8275 66.6746C79.6712 66.935 79.5931 67.2353 79.5931 67.5755V72.278H77.708Z" fill="#545454"/>
<path d="M89.8443 66.3934L88.1258 66.5809C88.0772 66.4073 87.9921 66.2441 87.8706 66.0913C87.7526 65.9386 87.5929 65.8153 87.3915 65.7216C87.1901 65.6279 86.9436 65.581 86.652 65.581C86.2597 65.581 85.9299 65.666 85.6626 65.8362C85.3987 66.0063 85.2685 66.2267 85.272 66.4975C85.2685 66.7301 85.3536 66.9193 85.5272 67.0652C85.7042 67.211 85.9959 67.3307 86.4021 67.4245L87.7665 67.7161C88.5233 67.8793 89.0857 68.1379 89.4537 68.492C89.8252 68.8462 90.0127 69.3096 90.0161 69.8825C90.0127 70.3859 89.8651 70.8303 89.5735 71.2156C89.2853 71.5975 88.8844 71.8961 88.3705 72.1113C87.8567 72.3266 87.2665 72.4342 86.6 72.4342C85.6209 72.4342 84.8328 72.2294 84.2357 71.8197C83.6386 71.4066 83.2827 70.832 83.1681 70.096L85.0064 69.9189C85.0897 70.28 85.2668 70.5525 85.5376 70.7365C85.8084 70.9205 86.1608 71.0125 86.5947 71.0125C87.0426 71.0125 87.4019 70.9205 87.6727 70.7365C87.947 70.5525 88.0841 70.3251 88.0841 70.0543C88.0841 69.8252 87.9956 69.636 87.8185 69.4867C87.6449 69.3374 87.3742 69.2228 87.0061 69.143L85.6417 68.8566C84.8745 68.6969 84.3069 68.4278 83.9389 68.0494C83.5709 67.6675 83.3886 67.1849 83.3921 66.6017C83.3886 66.1087 83.5222 65.6817 83.793 65.3206C84.0673 64.9561 84.4475 64.6749 84.9335 64.477C85.423 64.2756 85.9872 64.1749 86.626 64.1749C87.5634 64.1749 88.3011 64.3746 88.8392 64.7738C89.3808 65.1731 89.7158 65.7129 89.8443 66.3934Z" fill="#545454"/>
<path d="M97.0933 67.5911V72.278H95.2081V61.6128H97.0516V65.6383H97.1454C97.3328 65.1869 97.6227 64.8311 98.015 64.5707C98.4108 64.3069 98.9142 64.1749 99.5252 64.1749C100.081 64.1749 100.565 64.2912 100.978 64.5238C101.391 64.7565 101.711 65.0967 101.936 65.5445C102.165 65.9924 102.28 66.5392 102.28 67.1849V72.278H100.395V67.4766C100.395 66.9384 100.256 66.5201 99.9783 66.2215C99.704 65.9195 99.3187 65.7685 98.8222 65.7685C98.4889 65.7685 98.1904 65.8414 97.9265 65.9872C97.6661 66.1295 97.4613 66.3361 97.312 66.6069C97.1662 66.8777 97.0933 67.2058 97.0933 67.5911Z" fill="#545454"/>
<path d="M106.503 72.4394C105.997 72.4394 105.54 72.3491 105.134 72.1686C104.731 71.9846 104.412 71.7138 104.176 71.3562C103.943 70.9986 103.827 70.5577 103.827 70.0335C103.827 69.5822 103.91 69.209 104.077 68.9139C104.243 68.6188 104.471 68.3827 104.759 68.2056C105.047 68.0286 105.372 67.8949 105.733 67.8046C106.097 67.7109 106.474 67.6432 106.863 67.6015C107.331 67.5529 107.712 67.5095 108.003 67.4714C108.295 67.4297 108.507 67.3672 108.639 67.2839C108.774 67.1971 108.842 67.0634 108.842 66.8829V66.8516C108.842 66.4593 108.725 66.1556 108.493 65.9403C108.26 65.7251 107.925 65.6174 107.488 65.6174C107.026 65.6174 106.66 65.7181 106.389 65.9195C106.122 66.1208 105.941 66.3587 105.847 66.6329L104.087 66.383C104.226 65.8969 104.455 65.4907 104.775 65.1644C105.094 64.8346 105.484 64.5881 105.946 64.4249C106.408 64.2583 106.918 64.1749 107.477 64.1749C107.863 64.1749 108.246 64.2201 108.628 64.3103C109.01 64.4006 109.359 64.5499 109.675 64.7582C109.991 64.963 110.244 65.2425 110.435 65.5966C110.63 65.9507 110.727 66.3934 110.727 66.9246V72.278H108.915V71.1792H108.852C108.738 71.4014 108.576 71.6097 108.368 71.8041C108.163 71.995 107.904 72.1495 107.592 72.2676C107.283 72.3821 106.92 72.4394 106.503 72.4394ZM106.993 71.0542C107.371 71.0542 107.699 70.9795 107.977 70.8303C108.255 70.6775 108.468 70.4761 108.618 70.2262C108.77 69.9762 108.847 69.7037 108.847 69.4086V68.466C108.788 68.5146 108.687 68.5597 108.545 68.6014C108.406 68.6431 108.25 68.6795 108.076 68.7108C107.903 68.742 107.731 68.7698 107.561 68.7941C107.39 68.8184 107.243 68.8392 107.118 68.8566C106.837 68.8948 106.585 68.9573 106.363 69.0441C106.141 69.1308 105.965 69.2524 105.837 69.4086C105.708 69.5613 105.644 69.7592 105.644 70.0023C105.644 70.3494 105.771 70.6115 106.024 70.7886C106.278 70.9657 106.601 71.0542 106.993 71.0542Z" fill="#545454"/>
<path d="M119.481 64.2791L116.632 72.278H114.549L111.701 64.2791H113.711L115.549 70.221H115.632L117.476 64.2791H119.481Z" fill="#545454"/>
<path d="M124.054 72.4342C123.252 72.4342 122.56 72.2676 121.977 71.9343C121.397 71.5975 120.951 71.1219 120.638 70.5074C120.326 69.8894 120.17 69.1621 120.17 68.3254C120.17 67.5026 120.326 66.7805 120.638 66.159C120.954 65.5341 121.395 65.0481 121.961 64.7009C122.527 64.3503 123.192 64.1749 123.955 64.1749C124.448 64.1749 124.914 64.2548 125.351 64.4145C125.792 64.5707 126.181 64.8137 126.518 65.1436C126.858 65.4734 127.125 65.8934 127.32 66.4038C127.514 66.9107 127.611 67.5148 127.611 68.216V68.7941H121.055V67.5234H125.804C125.801 67.1624 125.723 66.8412 125.57 66.56C125.417 66.2753 125.204 66.0514 124.929 65.8882C124.658 65.7251 124.343 65.6435 123.981 65.6435C123.596 65.6435 123.258 65.7372 122.966 65.9247C122.674 66.1087 122.447 66.3517 122.284 66.6538C122.124 66.9523 122.043 67.2804 122.039 67.638V68.7472C122.039 69.2124 122.124 69.6117 122.294 69.945C122.464 70.2748 122.702 70.5282 123.008 70.7053C123.313 70.8789 123.671 70.9657 124.08 70.9657C124.355 70.9657 124.603 70.9275 124.825 70.8511C125.047 70.7712 125.24 70.6549 125.403 70.5022C125.566 70.3494 125.69 70.1602 125.773 69.9346L127.533 70.1324C127.422 70.5977 127.21 71.0038 126.898 71.351C126.589 71.6947 126.193 71.962 125.71 72.153C125.228 72.3405 124.676 72.4342 124.054 72.4342Z" fill="#545454"/>
<path d="M134.729 67.5911V72.278H132.844V64.2791H134.645V65.6383H134.739C134.923 65.1904 135.216 64.8346 135.619 64.5707C136.025 64.3069 136.527 64.1749 137.124 64.1749C137.676 64.1749 138.157 64.293 138.567 64.5291C138.98 64.7651 139.299 65.1071 139.525 65.555C139.754 66.0028 139.867 66.5461 139.863 67.1849V72.278H137.978V67.4766C137.978 66.9419 137.839 66.5236 137.562 66.2215C137.287 65.9195 136.907 65.7685 136.421 65.7685C136.091 65.7685 135.798 65.8414 135.541 65.9872C135.288 66.1295 135.088 66.3361 134.942 66.6069C134.8 66.8777 134.729 67.2058 134.729 67.5911Z" fill="#545454"/>
<path d="M145.269 72.4342C144.488 72.4342 143.811 72.2624 143.238 71.9187C142.665 71.575 142.221 71.0941 141.905 70.4761C141.592 69.8582 141.436 69.1361 141.436 68.3098C141.436 67.4835 141.592 66.7596 141.905 66.1382C142.221 65.5168 142.665 65.0342 143.238 64.6905C143.811 64.3468 144.488 64.1749 145.269 64.1749C146.05 64.1749 146.727 64.3468 147.3 64.6905C147.873 65.0342 148.315 65.5168 148.628 66.1382C148.944 66.7596 149.102 67.4835 149.102 68.3098C149.102 69.1361 148.944 69.8582 148.628 70.4761C148.315 71.0941 147.873 71.575 147.3 71.9187C146.727 72.2624 146.05 72.4342 145.269 72.4342ZM145.279 70.924C145.703 70.924 146.057 70.8077 146.342 70.5751C146.626 70.339 146.838 70.0231 146.977 69.6273C147.119 69.2315 147.19 68.7906 147.19 68.3046C147.19 67.8151 147.119 67.3724 146.977 66.9766C146.838 66.5774 146.626 66.2597 146.342 66.0236C146.057 65.7876 145.703 65.6695 145.279 65.6695C144.845 65.6695 144.484 65.7876 144.196 66.0236C143.911 66.2597 143.698 66.5774 143.556 66.9766C143.417 67.3724 143.347 67.8151 143.347 68.3046C143.347 68.7906 143.417 69.2315 143.556 69.6273C143.698 70.0231 143.911 70.339 144.196 70.5751C144.484 70.8077 144.845 70.924 145.279 70.924Z" fill="#545454"/>
<path d="M154.696 64.2791V65.7372H150.098V64.2791H154.696ZM151.233 62.3627H153.118V69.8721C153.118 70.1255 153.156 70.3199 153.233 70.4553C153.312 70.5872 153.417 70.6775 153.545 70.7261C153.674 70.7747 153.816 70.799 153.972 70.799C154.09 70.799 154.198 70.7903 154.295 70.773C154.396 70.7556 154.472 70.74 154.524 70.7261L154.842 72.1999C154.741 72.2346 154.597 72.2728 154.41 72.3144C154.226 72.3561 154 72.3804 153.733 72.3873C153.26 72.4012 152.835 72.3301 152.457 72.1738C152.078 72.0141 151.778 71.7676 151.556 71.4343C151.337 71.1011 151.229 70.6844 151.233 70.1845V62.3627Z" fill="#545454"/>
<path d="M161.082 75.2776C160.825 75.2776 160.587 75.2567 160.368 75.2151C160.153 75.1769 159.981 75.1317 159.853 75.0797L160.29 73.6111C160.565 73.691 160.809 73.7292 161.025 73.7257C161.24 73.7222 161.429 73.6545 161.592 73.5226C161.759 73.3941 161.899 73.1789 162.014 72.8769L162.175 72.4446L159.275 64.2791H161.274L163.118 70.3199H163.201L165.05 64.2791H167.055L163.852 73.2466C163.703 73.6701 163.505 74.0329 163.259 74.335C163.012 74.6405 162.71 74.8731 162.352 75.0328C161.998 75.196 161.575 75.2776 161.082 75.2776Z" fill="#545454"/>
<path d="M171.629 72.4342C170.827 72.4342 170.134 72.2676 169.551 71.9343C168.971 71.5975 168.525 71.1219 168.212 70.5074C167.9 69.8894 167.744 69.1621 167.744 68.3254C167.744 67.5026 167.9 66.7805 168.212 66.159C168.528 65.5341 168.969 65.0481 169.535 64.7009C170.101 64.3503 170.766 64.1749 171.53 64.1749C172.023 64.1749 172.488 64.2548 172.925 64.4145C173.366 64.5707 173.755 64.8137 174.092 65.1436C174.432 65.4734 174.699 65.8934 174.894 66.4038C175.088 66.9107 175.185 67.5148 175.185 68.216V68.7941H168.629V67.5234H173.378C173.375 67.1624 173.297 66.8412 173.144 66.56C172.991 66.2753 172.778 66.0514 172.503 65.8882C172.233 65.7251 171.917 65.6435 171.556 65.6435C171.17 65.6435 170.832 65.7372 170.54 65.9247C170.249 66.1087 170.021 66.3517 169.858 66.6538C169.698 66.9523 169.617 67.2804 169.613 67.638V68.7472C169.613 69.2124 169.698 69.6117 169.868 69.945C170.038 70.2748 170.276 70.5282 170.582 70.7053C170.887 70.8789 171.245 70.9657 171.655 70.9657C171.929 70.9657 172.177 70.9275 172.399 70.8511C172.621 70.7712 172.814 70.6549 172.977 70.5022C173.14 70.3494 173.264 70.1602 173.347 69.9346L175.107 70.1324C174.996 70.5977 174.784 71.0038 174.472 71.351C174.163 71.6947 173.767 71.962 173.285 72.153C172.802 72.3405 172.25 72.4342 171.629 72.4342Z" fill="#545454"/>
<path d="M180.774 64.2791V65.7372H176.176V64.2791H180.774ZM177.311 62.3627H179.196V69.8721C179.196 70.1255 179.235 70.3199 179.311 70.4553C179.391 70.5872 179.495 70.6775 179.623 70.7261C179.752 70.7747 179.894 70.799 180.051 70.799C180.169 70.799 180.276 70.7903 180.373 70.773C180.474 70.7556 180.55 70.74 180.603 70.7261L180.92 72.1999C180.82 72.2346 180.675 72.2728 180.488 72.3144C180.304 72.3561 180.078 72.3804 179.811 72.3873C179.339 72.4012 178.914 72.3301 178.535 72.1738C178.157 72.0141 177.856 71.7676 177.634 71.4343C177.415 71.1011 177.308 70.6844 177.311 70.1845V62.3627Z" fill="#545454"/>
<path d="M186.072 72.278V61.6128H187.957V65.6018H188.035C188.132 65.4074 188.269 65.2008 188.446 64.9821C188.624 64.7599 188.863 64.5707 189.165 64.4145C189.467 64.2548 189.853 64.1749 190.321 64.1749C190.939 64.1749 191.496 64.3329 191.993 64.6488C192.493 64.9613 192.889 65.4248 193.18 66.0393C193.475 66.6503 193.623 67.4002 193.623 68.2889C193.623 69.1673 193.479 69.9137 193.191 70.5282C192.902 71.1427 192.51 71.6114 192.014 71.9343C191.517 72.2571 190.955 72.4186 190.326 72.4186C189.868 72.4186 189.488 72.3422 189.186 72.1894C188.884 72.0367 188.641 71.8527 188.457 71.6374C188.276 71.4187 188.136 71.2122 188.035 71.0177H187.926V72.278H186.072ZM187.921 68.2785C187.921 68.7958 187.993 69.2489 188.139 69.6377C188.289 70.0266 188.502 70.3303 188.78 70.5491C189.061 70.7643 189.401 70.8719 189.8 70.8719C190.217 70.8719 190.566 70.7608 190.847 70.5386C191.128 70.313 191.34 70.0057 191.483 69.6169C191.628 69.2246 191.701 68.7785 191.701 68.2785C191.701 67.7821 191.63 67.3412 191.488 66.9558C191.345 66.5704 191.134 66.2684 190.852 66.0497C190.571 65.831 190.221 65.7216 189.8 65.7216C189.398 65.7216 189.056 65.8275 188.775 66.0393C188.493 66.251 188.28 66.5479 188.134 66.9298C187.992 67.3117 187.921 67.7612 187.921 68.2785Z" fill="#545454"/>
<path d="M198.767 72.4342C197.965 72.4342 197.272 72.2676 196.689 71.9343C196.109 71.5975 195.663 71.1219 195.35 70.5074C195.038 69.8894 194.882 69.1621 194.882 68.3254C194.882 67.5026 195.038 66.7805 195.35 66.159C195.666 65.5341 196.107 65.0481 196.673 64.7009C197.239 64.3503 197.904 64.1749 198.668 64.1749C199.161 64.1749 199.626 64.2548 200.063 64.4145C200.504 64.5707 200.893 64.8137 201.23 65.1436C201.57 65.4734 201.837 65.8934 202.032 66.4038C202.226 66.9107 202.323 67.5148 202.323 68.216V68.7941H195.767V67.5234H200.516C200.513 67.1624 200.435 66.8412 200.282 66.56C200.129 66.2753 199.916 66.0514 199.642 65.8882C199.371 65.7251 199.055 65.6435 198.694 65.6435C198.308 65.6435 197.97 65.7372 197.678 65.9247C197.387 66.1087 197.159 66.3517 196.996 66.6538C196.836 66.9523 196.755 67.2804 196.751 67.638V68.7472C196.751 69.2124 196.836 69.6117 197.007 69.945C197.177 70.2748 197.414 70.5282 197.72 70.7053C198.025 70.8789 198.383 70.9657 198.793 70.9657C199.067 70.9657 199.315 70.9275 199.537 70.8511C199.76 70.7712 199.952 70.6549 200.115 70.5022C200.279 70.3494 200.402 70.1602 200.485 69.9346L202.245 70.1324C202.134 70.5977 201.922 71.0038 201.61 71.351C201.301 71.6947 200.905 71.962 200.423 72.153C199.94 72.3405 199.388 72.4342 198.767 72.4342Z" fill="#545454"/>
<path d="M207.459 72.4342C206.658 72.4342 205.965 72.2676 205.382 71.9343C204.802 71.5975 204.356 71.1219 204.043 70.5074C203.731 69.8894 203.575 69.1621 203.575 68.3254C203.575 67.5026 203.731 66.7805 204.043 66.159C204.359 65.5341 204.8 65.0481 205.366 64.7009C205.932 64.3503 206.597 64.1749 207.361 64.1749C207.854 64.1749 208.319 64.2548 208.756 64.4145C209.197 64.5707 209.586 64.8137 209.923 65.1436C210.263 65.4734 210.53 65.8934 210.725 66.4038C210.919 66.9107 211.016 67.5148 211.016 68.216V68.7941H204.46V67.5234H209.209C209.206 67.1624 209.128 66.8412 208.975 66.56C208.822 66.2753 208.609 66.0514 208.334 65.8882C208.064 65.7251 207.748 65.6435 207.387 65.6435C207.001 65.6435 206.663 65.7372 206.371 65.9247C206.079 66.1087 205.852 66.3517 205.689 66.6538C205.529 66.9523 205.448 67.2804 205.444 67.638V68.7472C205.444 69.2124 205.529 69.6117 205.699 69.945C205.869 70.2748 206.107 70.5282 206.413 70.7053C206.718 70.8789 207.076 70.9657 207.486 70.9657C207.76 70.9657 208.008 70.9275 208.23 70.8511C208.452 70.7712 208.645 70.6549 208.808 70.5022C208.971 70.3494 209.095 70.1602 209.178 69.9346L210.938 70.1324C210.827 70.5977 210.615 71.0038 210.303 71.351C209.994 71.6947 209.598 71.962 209.115 72.153C208.633 72.3405 208.081 72.4342 207.459 72.4342Z" fill="#545454"/>
<path d="M214.496 67.5911V72.278H212.611V64.2791H214.413V65.6383H214.507C214.691 65.1904 214.984 64.8346 215.387 64.5707C215.793 64.3069 216.295 64.1749 216.892 64.1749C217.444 64.1749 217.925 64.293 218.334 64.5291C218.747 64.7651 219.067 65.1071 219.292 65.555C219.522 66.0028 219.634 66.5461 219.631 67.1849V72.278H217.746V67.4766C217.746 66.9419 217.607 66.5236 217.329 66.2215C217.055 65.9195 216.675 65.7685 216.189 65.7685C215.859 65.7685 215.566 65.8414 215.309 65.9872C215.055 66.1295 214.856 66.3361 214.71 66.6069C214.567 66.8777 214.496 67.2058 214.496 67.5911Z" fill="#545454"/>
<path d="M227.487 72.4394C226.98 72.4394 226.523 72.3491 226.117 72.1686C225.714 71.9846 225.395 71.7138 225.159 71.3562C224.926 70.9986 224.81 70.5577 224.81 70.0335C224.81 69.5822 224.893 69.209 225.06 68.9139C225.227 68.6188 225.454 68.3827 225.742 68.2056C226.03 68.0286 226.355 67.8949 226.716 67.8046C227.08 67.7109 227.457 67.6432 227.846 67.6015C228.315 67.5529 228.695 67.5095 228.986 67.4714C229.278 67.4297 229.49 67.3672 229.622 67.2839C229.757 67.1971 229.825 67.0634 229.825 66.8829V66.8516C229.825 66.4593 229.709 66.1556 229.476 65.9403C229.243 65.7251 228.908 65.6174 228.471 65.6174C228.009 65.6174 227.643 65.7181 227.372 65.9195C227.105 66.1208 226.924 66.3587 226.83 66.6329L225.07 66.383C225.209 65.8969 225.438 65.4907 225.758 65.1644C226.077 64.8346 226.468 64.5881 226.929 64.4249C227.391 64.2583 227.902 64.1749 228.46 64.1749C228.846 64.1749 229.229 64.2201 229.611 64.3103C229.993 64.4006 230.342 64.5499 230.658 64.7582C230.974 64.963 231.227 65.2425 231.418 65.5966C231.613 65.9507 231.71 66.3934 231.71 66.9246V72.278H229.898V71.1792H229.835C229.721 71.4014 229.559 71.6097 229.351 71.8041C229.146 71.995 228.887 72.1495 228.575 72.2676C228.266 72.3821 227.903 72.4394 227.487 72.4394ZM227.976 71.0542C228.355 71.0542 228.683 70.9795 228.96 70.8303C229.238 70.6775 229.452 70.4761 229.601 70.2262C229.754 69.9762 229.83 69.7037 229.83 69.4086V68.466C229.771 68.5146 229.67 68.5597 229.528 68.6014C229.389 68.6431 229.233 68.6795 229.059 68.7108C228.886 68.742 228.714 68.7698 228.544 68.7941C228.374 68.8184 228.226 68.8392 228.101 68.8566C227.82 68.8948 227.568 68.9573 227.346 69.0441C227.124 69.1308 226.949 69.2524 226.82 69.4086C226.692 69.5613 226.627 69.7592 226.627 70.0023C226.627 70.3494 226.754 70.6115 227.008 70.7886C227.261 70.9657 227.584 71.0542 227.976 71.0542Z" fill="#545454"/>
<path d="M236.574 72.4186C235.946 72.4186 235.383 72.2571 234.887 71.9343C234.39 71.6114 233.998 71.1427 233.71 70.5282C233.422 69.9137 233.278 69.1673 233.278 68.2889C233.278 67.4002 233.423 66.6503 233.715 66.0393C234.01 65.4248 234.408 64.9613 234.907 64.6488C235.407 64.3329 235.965 64.1749 236.579 64.1749C237.048 64.1749 237.433 64.2548 237.735 64.4145C238.037 64.5707 238.277 64.7599 238.454 64.9821C238.631 65.2008 238.768 65.4074 238.865 65.6018H238.943V61.6128H240.834V72.278H238.98V71.0177H238.865C238.768 71.2122 238.627 71.4187 238.443 71.6374C238.259 71.8527 238.016 72.0367 237.714 72.1894C237.412 72.3422 237.032 72.4186 236.574 72.4186ZM237.1 70.8719C237.499 70.8719 237.839 70.7643 238.121 70.5491C238.402 70.3303 238.615 70.0266 238.761 69.6377C238.907 69.2489 238.98 68.7958 238.98 68.2785C238.98 67.7612 238.907 67.3117 238.761 66.9298C238.619 66.5479 238.407 66.251 238.126 66.0393C237.848 65.8275 237.506 65.7216 237.1 65.7216C236.68 65.7216 236.329 65.831 236.048 66.0497C235.767 66.2684 235.555 66.5704 235.413 66.9558C235.27 67.3412 235.199 67.7821 235.199 68.2785C235.199 68.7785 235.27 69.2246 235.413 69.6169C235.558 70.0057 235.772 70.313 236.053 70.5386C236.338 70.7608 236.687 70.8719 237.1 70.8719Z" fill="#545454"/>
<path d="M245.811 72.4186C245.183 72.4186 244.62 72.2571 244.124 71.9343C243.627 71.6114 243.235 71.1427 242.947 70.5282C242.659 69.9137 242.514 69.1673 242.514 68.2889C242.514 67.4002 242.66 66.6503 242.952 66.0393C243.247 65.4248 243.645 64.9613 244.144 64.6488C244.644 64.3329 245.202 64.1749 245.816 64.1749C246.285 64.1749 246.67 64.2548 246.972 64.4145C247.274 64.5707 247.514 64.7599 247.691 64.9821C247.868 65.2008 248.005 65.4074 248.102 65.6018H248.18V61.6128H250.071V72.278H248.217V71.0177H248.102C248.005 71.2122 247.864 71.4187 247.68 71.6374C247.496 71.8527 247.253 72.0367 246.951 72.1894C246.649 72.3422 246.269 72.4186 245.811 72.4186ZM246.337 70.8719C246.736 70.8719 247.076 70.7643 247.358 70.5491C247.639 70.3303 247.852 70.0266 247.998 69.6377C248.144 69.2489 248.217 68.7958 248.217 68.2785C248.217 67.7612 248.144 67.3117 247.998 66.9298C247.856 66.5479 247.644 66.251 247.363 66.0393C247.085 65.8275 246.743 65.7216 246.337 65.7216C245.917 65.7216 245.566 65.831 245.285 66.0497C245.004 66.2684 244.792 66.5704 244.65 66.9558C244.507 67.3412 244.436 67.7821 244.436 68.2785C244.436 68.7785 244.507 69.2246 244.65 69.6169C244.795 70.0057 245.009 70.313 245.29 70.5386C245.575 70.7608 245.924 70.8719 246.337 70.8719Z" fill="#545454"/>
<path d="M255.621 72.4342C254.819 72.4342 254.126 72.2676 253.543 71.9343C252.963 71.5975 252.517 71.1219 252.205 70.5074C251.892 69.8894 251.736 69.1621 251.736 68.3254C251.736 67.5026 251.892 66.7805 252.205 66.159C252.52 65.5341 252.961 65.0481 253.527 64.7009C254.093 64.3503 254.758 64.1749 255.522 64.1749C256.015 64.1749 256.48 64.2548 256.917 64.4145C257.358 64.5707 257.747 64.8137 258.084 65.1436C258.424 65.4734 258.691 65.8934 258.886 66.4038C259.08 66.9107 259.178 67.5148 259.178 68.216V68.7941H252.621V67.5234H257.371C257.367 67.1624 257.289 66.8412 257.136 66.56C256.983 66.2753 256.77 66.0514 256.496 65.8882C256.225 65.7251 255.909 65.6435 255.548 65.6435C255.162 65.6435 254.824 65.7372 254.532 65.9247C254.241 66.1087 254.013 66.3517 253.85 66.6538C253.69 66.9523 253.609 67.2804 253.605 67.638V68.7472C253.605 69.2124 253.69 69.6117 253.861 69.945C254.031 70.2748 254.269 70.5282 254.574 70.7053C254.88 70.8789 255.237 70.9657 255.647 70.9657C255.921 70.9657 256.169 70.9275 256.391 70.8511C256.614 70.7712 256.806 70.6549 256.97 70.5022C257.133 70.3494 257.256 70.1602 257.339 69.9346L259.099 70.1324C258.988 70.5977 258.777 71.0038 258.464 71.351C258.155 71.6947 257.759 71.962 257.277 72.153C256.794 72.3405 256.242 72.4342 255.621 72.4342Z" fill="#545454"/>
<path d="M263.741 72.4186C263.112 72.4186 262.55 72.2571 262.053 71.9343C261.557 71.6114 261.165 71.1427 260.876 70.5282C260.588 69.9137 260.444 69.1673 260.444 68.2889C260.444 67.4002 260.59 66.6503 260.882 66.0393C261.177 65.4248 261.574 64.9613 262.074 64.6488C262.574 64.3329 263.131 64.1749 263.746 64.1749C264.215 64.1749 264.6 64.2548 264.902 64.4145C265.204 64.5707 265.444 64.7599 265.621 64.9821C265.798 65.2008 265.935 65.4074 266.032 65.6018H266.11V61.6128H268.001V72.278H266.147V71.0177H266.032C265.935 71.2122 265.794 71.4187 265.61 71.6374C265.426 71.8527 265.183 72.0367 264.881 72.1894C264.579 72.3422 264.199 72.4186 263.741 72.4186ZM264.267 70.8719C264.666 70.8719 265.006 70.7643 265.287 70.5491C265.569 70.3303 265.782 70.0266 265.928 69.6377C266.074 69.2489 266.147 68.7958 266.147 68.2785C266.147 67.7612 266.074 67.3117 265.928 66.9298C265.786 66.5479 265.574 66.251 265.293 66.0393C265.015 65.8275 264.673 65.7216 264.267 65.7216C263.847 65.7216 263.496 65.831 263.215 66.0497C262.934 66.2684 262.722 66.5704 262.579 66.9558C262.437 67.3412 262.366 67.7821 262.366 68.2785C262.366 68.7785 262.437 69.2246 262.579 69.6169C262.725 70.0057 262.939 70.313 263.22 70.5386C263.505 70.7608 263.854 70.8719 264.267 70.8719Z" fill="#545454"/>
</svg>
