<svg xmlns="http://www.w3.org/2000/svg" fill="none" viewBox="0 0 122 120"><path fill="#83B3FF" fill-rule="evenodd" d="M103 44H83v-3h24l-1 2c0 4-3 11-7 16-5 6-12 11-21 11v-3c8 0 14-4 18-9s6-10 7-14Zm-73 0h19v-3H26v2c1 4 4 11 8 16 5 6 12 11 21 11v-3c-8 0-14-4-19-9l-6-14Z" clip-rule="evenodd"/><path fill="#83B3FF" d="M43 41h47v23a23 23 0 0 1-47 0V41Z"/><path stroke="#83B3FF" stroke-width=".6" d="M43 41h46v23a23 23 0 0 1-46 0V41Z"/><path fill="#83B3FF" stroke="#83B3FF" stroke-width=".6" d="M64 80h5v29h-5zm-14 30h34v10H50z"/><path fill="#B1CEFF" d="M78 70a1 1 0 0 1-1 1H55a1 1 0 0 1 0-1l11-20a1 1 0 0 1 1 0l11 20Z"/><path stroke="#DCE9FF" stroke-linecap="round" stroke-linejoin="round" stroke-width="2.5" d="M26 19v9m16-2-7 6M17 50l-6 6m3-15H4m13-9-6-6"/><path fill="#B1CEFF" d="M24 73a3 3 0 0 1 6 0v12h-6V73Z"/><path fill="#B1CEFF" d="M27 83h13v22H27z"/><rect width="5.2" height="12.7" x="49.2" y="88.9" fill="#B1CEFF" rx="2.6" transform="rotate(90 49 89)"/><rect width="5.1" height="20.8" x="46.9" y="83.4" fill="#B1CEFF" rx="2.5" transform="rotate(90 47 83)"/><rect width="5.2" height="15" x="47.1" y="94.6" fill="#B1CEFF" rx="2.6" transform="rotate(90 47 95)"/><rect width="5.2" height="18.3" x="44.9" y="100.2" fill="#B1CEFF" rx="2.6" transform="rotate(90 45 100)"/><path stroke="#5294FF" stroke-linecap="round" stroke-width="1.1" d="M46 95h-9m9-6h-9m7 11H34"/><path fill="#B1CEFF" d="M14 93c0-5 3-10 7-11l3-2 6 8a12 12 0 0 1 2 8l-1 9h-5c-7 0-12-5-12-12Z"/><path stroke="#5294FF" stroke-linecap="round" stroke-width="1.1" d="M34 84h-5"/><path fill="#DCE9FF" d="M18 80v23h-8V80z"/><path fill="#83B3FF" d="M10 80v23H1V80z"/><circle cx="13.7" cy="99.5" r="1.4" fill="#5294FF" transform="rotate(90 14 99)"/><path fill="#5294FF" d="m94 0 6 6 8-2 2 8 8 2-3 8 7 6-7 5 3 8-8 2-2 9-8-3-6 6-6-6-8 3-2-9-8-2 3-8-7-5 7-6-3-8 8-2 2-8 8 2 6-6Z"/><circle cx="94.7" cy="27.7" r="16.3" fill="#B1CEFF"/><path stroke="#F3F8FF" stroke-linecap="round" stroke-linejoin="round" stroke-width="2.5" d="m87 27 5 5 10-9"/></svg>
