<svg width="166" height="102" fill="none" xmlns="http://www.w3.org/2000/svg"><rect x="11.71" y="67.49" width="142.17" height="34.33" rx="4" fill="#0F67F5"/><path d="M26.21 89.11h-2.25l4.1-11.63h2.6l4.1 11.63h-2.25l-3.1-9.25h-.1l-3.1 9.25Zm.08-4.56h6.13v1.7H26.3v-1.7Zm12.89 4.72a3.3 3.3 0 0 1-3.13-2.06 5.72 5.72 0 0 1-.47-2.45c0-.97.16-1.79.48-2.45a3.34 3.34 0 0 1 4.39-1.77c.33.17.59.37.78.61.2.24.34.47.45.68h.08v-4.35h2.07V89.1H41.8v-1.37h-.12c-.1.21-.26.44-.46.68a2.53 2.53 0 0 1-2.04.85Zm.57-1.69c.44 0 .8-.12 1.12-.35.3-.24.54-.57.7-1 .15-.42.23-.91.23-1.48 0-.56-.08-1.05-.23-1.47a2.1 2.1 0 0 0-.7-.97 1.8 1.8 0 0 0-1.12-.35c-.46 0-.84.12-1.15.36-.3.24-.53.57-.69.99-.15.42-.23.9-.23 1.44 0 .55.08 1.03.23 1.46.16.43.4.76.7 1 .31.25.7.37 1.14.37Zm9.51 1.69a3.3 3.3 0 0 1-3.13-2.06 5.72 5.72 0 0 1-.47-2.45c0-.97.16-1.79.48-2.45a3.34 3.34 0 0 1 4.39-1.77c.32.17.58.37.78.61.2.24.34.47.45.68h.08v-4.35h2.06V89.1h-2.02v-1.37h-.12c-.1.21-.26.44-.46.68a2.53 2.53 0 0 1-2.04.85Zm.57-1.69c.44 0 .8-.12 1.11-.35.31-.24.54-.57.7-1 .16-.42.24-.91.24-1.48 0-.56-.08-1.05-.24-1.47a2.1 2.1 0 0 0-.69-.97 1.8 1.8 0 0 0-1.12-.35c-.46 0-.84.12-1.15.36-.3.24-.53.57-.69.99-.16.42-.23.9-.23 1.44 0 .55.07 1.03.23 1.46.16.43.4.76.7 1 .3.25.69.37 1.14.37Zm11.82 1.53H59.4l4.1-11.63h2.6l4.1 11.63h-2.25l-3.1-9.25h-.1l-3.1 9.25Zm.07-4.56h6.14v1.7h-6.14v-1.7Zm9.92 7.84v-12h2.03v1.44h.12c.1-.21.25-.44.44-.68.2-.24.46-.44.79-.61a3.33 3.33 0 0 1 4.38 1.77c.32.66.48 1.48.48 2.45 0 .96-.16 1.78-.47 2.45a3.3 3.3 0 0 1-3.13 2.06 2.53 2.53 0 0 1-2.04-.85 3.9 3.9 0 0 1-.45-.68h-.09v4.65h-2.06Zm2.02-7.64c0 .57.08 1.06.24 1.48.16.43.4.76.7 1 .3.23.68.35 1.11.35.46 0 .84-.12 1.14-.36.31-.25.54-.58.7-1 .16-.44.24-.92.24-1.47 0-.54-.08-1.02-.24-1.44a2.17 2.17 0 0 0-.7-1c-.3-.23-.68-.35-1.14-.35-.44 0-.81.12-1.12.35-.3.23-.54.55-.7.97-.15.42-.23.9-.23 1.47Zm7.98 7.64v-12h2.03v1.44h.12c.1-.21.25-.44.44-.68.2-.24.46-.44.79-.61a3.33 3.33 0 0 1 4.38 1.77c.32.66.48 1.48.48 2.45 0 .96-.16 1.78-.47 2.45a3.3 3.3 0 0 1-3.13 2.06 2.53 2.53 0 0 1-2.04-.85 3.9 3.9 0 0 1-.45-.68h-.09v4.65h-2.06Zm2.02-7.64c0 .57.08 1.06.24 1.48.16.43.4.76.7 1 .3.23.68.35 1.11.35.46 0 .84-.12 1.14-.36.31-.25.54-.58.7-1 .16-.44.24-.92.24-1.47 0-.54-.08-1.02-.24-1.44a2.17 2.17 0 0 0-.7-1c-.3-.23-.68-.35-1.14-.35-.44 0-.81.12-1.12.35-.3.23-.54.55-.7.97-.15.42-.23.9-.23 1.47Zm7.98-7.27h2.06v9.13c0 .33.05.56.15.7.1.14.27.21.52.2a2.46 2.46 0 0 0 .5-.07l.34 1.56a4.08 4.08 0 0 1-1.11.17c-.84.02-1.45-.15-1.85-.52-.4-.37-.6-.94-.6-1.7v-9.47Zm4.6 11.63V80.4h2.05v8.72h-2.05Zm1.03-9.96c-.32 0-.6-.1-.84-.32a1.04 1.04 0 0 1-.35-.8c0-.3.12-.57.35-.78.24-.22.52-.33.84-.33.33 0 .61.1.84.33a1 1 0 0 1 .35.79c0 .3-.11.57-.35.79-.23.21-.5.32-.84.32Zm6.95 10.14c-.88 0-1.62-.2-2.25-.58a3.83 3.83 0 0 1-1.44-1.58 5.25 5.25 0 0 1-.5-2.34c0-.9.17-1.67.52-2.35.34-.68.82-1.21 1.44-1.6a4.16 4.16 0 0 1 2.21-.57c.71 0 1.34.13 1.88.4a3.22 3.22 0 0 1 1.87 2.74H106a1.87 1.87 0 0 0-.57-1.05c-.3-.28-.7-.43-1.19-.43-.42 0-.79.12-1.1.34-.32.23-.57.55-.75.97a4 4 0 0 0-.26 1.51c0 .6.09 1.1.26 1.54.18.42.42.75.73.98.32.23.7.34 1.12.34.3 0 .58-.06.81-.17.25-.12.45-.29.61-.5.17-.23.28-.5.34-.8h1.96a3.23 3.23 0 0 1-1.83 2.76 4.3 4.3 0 0 1-1.9.39Zm7.94.01c-.56 0-1.06-.1-1.5-.3-.44-.2-.79-.5-1.05-.9a2.6 2.6 0 0 1-.38-1.43c0-.5.1-.9.28-1.23.18-.32.43-.58.74-.77.32-.2.67-.34 1.06-.44.4-.1.81-.17 1.24-.22l1.24-.14c.32-.04.55-.11.7-.2a.5.5 0 0 0 .22-.44v-.04c0-.42-.13-.75-.38-.99a1.6 1.6 0 0 0-1.1-.35c-.5 0-.9.1-1.2.33-.3.22-.49.48-.6.78l-1.91-.28a3.08 3.08 0 0 1 2.03-2.13 5.44 5.44 0 0 1 2.93-.13c.41.1.79.26 1.13.49.35.22.63.53.83.92.22.38.32.86.32 1.44v5.84h-1.98v-1.2h-.06a2.51 2.51 0 0 1-1.38 1.2c-.34.12-.73.18-1.19.18Zm.53-1.52c.41 0 .77-.08 1.07-.24a1.8 1.8 0 0 0 .95-1.56v-1.02a.96.96 0 0 1-.33.14 15.8 15.8 0 0 1-1.56.28c-.3.04-.58.11-.82.2-.24.1-.43.23-.57.4a.97.97 0 0 0-.21.65c0 .38.14.67.41.86.28.2.63.29 1.06.29Zm8.2-3.78v5.11h-2.06V80.4h1.97v1.48h.1c.2-.49.52-.88.96-1.16.44-.3.99-.44 1.64-.44.6 0 1.13.13 1.58.39.45.26.8.63 1.04 1.12.25.49.37 1.08.37 1.78v5.55h-2.06v-5.23c0-.59-.15-1.04-.45-1.37a1.6 1.6 0 0 0-1.25-.5c-.36 0-.68.08-.96.24a1.7 1.7 0 0 0-.65.68c-.16.3-.23.65-.23 1.07Zm12.05-3.61v1.59h-5.02v-1.6h5.02Zm-3.78-2.1h2.06v8.2c0 .28.04.49.12.64.09.14.2.24.34.3a2 2 0 0 0 1.07 0l.35 1.6a4.61 4.61 0 0 1-1.21.2c-.52.02-.98-.06-1.4-.23a2.16 2.16 0 0 1-.98-.8 2.4 2.4 0 0 1-.35-1.37V78.3Zm12.27 4.41-1.87.2a1.5 1.5 0 0 0-.8-.94 1.9 1.9 0 0 0-.81-.15c-.43 0-.79.1-1.08.28-.29.18-.43.42-.43.72 0 .25.1.46.28.62.2.16.51.29.96.39l1.48.32c.83.18 1.44.46 1.85.84.4.4.6.9.6 1.52a2.4 2.4 0 0 1-.47 1.46 3.1 3.1 0 0 1-1.32.97c-.56.24-1.2.36-1.93.36a4.48 4.48 0 0 1-2.58-.68 2.7 2.7 0 0 1-1.16-1.88l2-.19c.1.4.29.7.58.9.3.2.68.3 1.16.3.49 0 .88-.1 1.17-.3.3-.2.45-.46.45-.75 0-.25-.1-.46-.29-.62a2.01 2.01 0 0 0-.88-.38l-1.5-.3a3.54 3.54 0 0 1-1.85-.89c-.4-.42-.6-.94-.6-1.58 0-.54.14-1 .44-1.4.3-.4.71-.7 1.24-.92a4.82 4.82 0 0 1 1.85-.33c1.02 0 1.83.22 2.42.66.59.43.95 1.02 1.1 1.76Z" fill="#fff"/><path d="M7.37 29.73H6.31a2.2 2.2 0 0 0-.89-1.39 2.39 2.39 0 0 0-.73-.36 2.91 2.91 0 0 0-2.27.29 2.7 2.7 0 0 0-1.02 1.18 4.4 4.4 0 0 0-.38 1.91c0 .76.13 1.4.38 1.92s.6.91 1.02 1.18a2.92 2.92 0 0 0 2.27.28A2.25 2.25 0 0 0 6.31 33h1.06a3.28 3.28 0 0 1-2.27 2.66 3.93 3.93 0 0 1-3.23-.35A3.75 3.75 0 0 1 .5 33.75a5.32 5.32 0 0 1-.5-2.39c0-.92.17-1.71.5-2.39a3.66 3.66 0 0 1 3.36-2.1c.44 0 .85.07 1.24.2a3.39 3.39 0 0 1 1.84 1.46c.2.35.35.75.43 1.2ZM8.95 27h1v7.03c0 .31.04.54.11.67.07.12.22.18.44.18a1.95 1.95 0 0 0 .43-.07l.2.87a2.6 2.6 0 0 1-.75.1c-.48 0-.84-.13-1.08-.39a1.56 1.56 0 0 1-.35-1.1V27Zm3.11 8.73v-6.55h1v6.55h-1Zm.5-7.64a.72.72 0 0 1-.5-.2.64.64 0 0 1-.2-.49c0-.18.06-.34.2-.48.14-.13.31-.2.5-.2.2 0 .37.07.51.2a.68.68 0 0 1 .01.97.7.7 0 0 1-.51.2Zm5.01 7.78c-.61 0-1.14-.15-1.59-.44a2.84 2.84 0 0 1-1.02-1.2 4 4 0 0 1-.36-1.74c0-.67.12-1.25.37-1.76a2.77 2.77 0 0 1 2.59-1.63c.45 0 .87.08 1.24.25.37.17.67.4.9.72.24.3.39.66.45 1.07h-1.01A1.53 1.53 0 0 0 17.57 30c-.4 0-.74.1-1.03.3a2 2 0 0 0-.69.86c-.16.37-.24.8-.24 1.3s.08.94.24 1.32a2 2 0 0 0 .68.87c.3.21.64.31 1.04.31.26 0 .5-.04.71-.13a1.47 1.47 0 0 0 .86-1h1a2.33 2.33 0 0 1-1.3 1.77c-.36.18-.79.27-1.27.27Zm4.99-2.53-.02-1.24h.2l2.87-2.92h1.25l-3.06 3.09h-.08l-1.16 1.07Zm-.94 2.4v-8.75h1v8.74h-1Zm4.16 0-2.56-3.25.72-.7 3.12 3.94h-1.28Zm5.89-.01V27h1v3.23h.1a9 9 0 0 1 .3-.44c.13-.17.32-.33.57-.47.25-.15.59-.22 1.02-.22a2.6 2.6 0 0 1 2.44 1.6c.24.5.36 1.1.36 1.78 0 .7-.12 1.3-.36 1.8a2.57 2.57 0 0 1-2.43 1.6 2.1 2.1 0 0 1-1-.21c-.26-.14-.46-.3-.6-.48a6.5 6.5 0 0 1-.3-.45h-.13v1h-.97Zm.99-3.27c0 .5.07.93.22 1.3.14.38.35.68.63.89.28.2.62.31 1.03.31.42 0 .77-.1 1.05-.33.29-.22.5-.52.64-.9.15-.38.22-.8.22-1.27s-.07-.88-.21-1.25a1.93 1.93 0 0 0-.64-.88 1.68 1.68 0 0 0-1.06-.33 1.68 1.68 0 0 0-1.67 1.17c-.14.37-.21.8-.21 1.29Zm9.08 3.41a2.8 2.8 0 0 1-2.69-1.6c-.24-.5-.36-1.1-.36-1.76 0-.67.12-1.27.37-1.78a2.77 2.77 0 0 1 2.59-1.64c.33 0 .67.06 1 .17a2.5 2.5 0 0 1 1.56 1.57c.17.41.25.93.25 1.54v.43H39.4v-.87h4.02c0-.37-.07-.7-.22-1a1.67 1.67 0 0 0-1.57-.93c-.4 0-.75.1-1.04.3a2.04 2.04 0 0 0-.9 1.78v.58c0 .5.08.92.25 1.26.18.34.42.6.72.78.31.18.67.26 1.07.26.27 0 .5-.03.72-.1.22-.08.4-.2.56-.35.16-.15.28-.34.36-.57l.98.27a2.33 2.33 0 0 1-1.42 1.45c-.35.14-.75.2-1.2.2ZM45.99 27h1v7.03c0 .31.04.54.11.67.07.12.22.18.44.18a1.95 1.95 0 0 0 .43-.07l.2.87a2.6 2.6 0 0 1-.75.1c-.47 0-.83-.13-1.07-.39a1.56 1.56 0 0 1-.36-1.1V27Zm5.77 8.87c-.59 0-1.1-.14-1.56-.42a2.88 2.88 0 0 1-1.04-1.19 4 4 0 0 1-.37-1.77c0-.68.13-1.28.37-1.79a2.81 2.81 0 0 1 2.6-1.61 2.83 2.83 0 0 1 2.6 1.6 4 4 0 0 1 .37 1.8c0 .68-.12 1.27-.37 1.77-.25.51-.6.9-1.05 1.19-.44.28-.96.42-1.55.42Zm0-.9c.45 0 .82-.12 1.11-.35.3-.23.5-.53.65-.91a3.72 3.72 0 0 0 0-2.44 2.06 2.06 0 0 0-.65-.92 1.71 1.71 0 0 0-1.1-.35c-.46 0-.83.11-1.12.35-.29.23-.5.54-.64.92a3.72 3.72 0 0 0-.01 2.44c.15.38.36.68.65.9.3.24.66.35 1.11.35Zm5.77.76-2-6.55h1.06l1.42 5.02h.07l1.4-5.02h1.07l1.38 5H62l1.42-5h1.06l-2 6.55h-.99l-1.43-5.03h-.1l-1.44 5.03h-.99Zm14.51-6.55v.85h-3.4v-.85h3.4Zm-2.4-1.57h1v6.25c0 .28.04.5.12.64.09.13.2.23.33.28.13.04.27.07.42.07l.27-.02.17-.04.2.9a2.05 2.05 0 0 1-.74.13 1.9 1.9 0 0 1-1.51-.74 1.6 1.6 0 0 1-.27-.95V27.6Zm6.5 8.26a2.75 2.75 0 0 1-2.59-1.61 4 4 0 0 1-.38-1.77c0-.68.13-1.28.38-1.79a2.76 2.76 0 0 1 2.59-1.61 2.83 2.83 0 0 1 2.6 1.6 4 4 0 0 1 .37 1.8c0 .68-.12 1.27-.37 1.77-.25.51-.6.9-1.04 1.19-.45.28-.96.42-1.56.42Zm0-.9c.45 0 .82-.12 1.11-.35.3-.23.5-.53.65-.91.14-.38.2-.78.2-1.22 0-.44-.06-.85-.2-1.22a2.06 2.06 0 0 0-.65-.92 1.71 1.71 0 0 0-1.1-.35c-.46 0-.83.11-1.12.35-.29.23-.5.54-.64.92-.14.37-.2.78-.2 1.22 0 .44.06.84.2 1.22s.35.68.64.9c.3.24.66.35 1.11.35Zm9.82.92c-.42 0-.8-.08-1.13-.24-.34-.16-.6-.39-.8-.69-.2-.3-.3-.66-.3-1.09 0-.37.07-.68.21-.91.15-.24.35-.42.6-.56.25-.13.52-.23.82-.3.3-.06.6-.12.9-.16l.97-.11c.25-.03.44-.08.55-.14.12-.07.18-.18.18-.34v-.04c0-.42-.12-.75-.35-.98-.23-.23-.57-.35-1.04-.35a1.77 1.77 0 0 0-1.7.99l-.96-.34a2.3 2.3 0 0 1 1.62-1.4 3.9 3.9 0 0 1 1.73-.06c.28.05.55.15.8.3.26.16.48.39.65.7.17.3.25.72.25 1.24v4.32h-1v-.88h-.06a1.97 1.97 0 0 1-.98.87c-.26.1-.58.17-.96.17Zm.15-.9a2 2 0 0 0 1-.24 1.6 1.6 0 0 0 .85-1.39v-.92a.64.64 0 0 1-.29.14 4.75 4.75 0 0 1-1.03.18l-.43.05c-.26.04-.5.1-.73.17-.22.07-.4.19-.55.34a.86.86 0 0 0-.2.6c0 .35.13.62.39.8.26.17.6.26 1 .26Zm7.17.88a2.57 2.57 0 0 1-2.43-1.6 4.26 4.26 0 0 1-.36-1.8c0-.69.12-1.28.36-1.79a2.6 2.6 0 0 1 2.44-1.59 1.92 1.92 0 0 1 1.59.69l.3.44h.1v-3.23h1v8.74h-.97v-1h-.12l-.32.45c-.14.18-.33.34-.58.48-.26.14-.6.2-1.01.2Zm.13-.9c.4 0 .75-.11 1.03-.32.27-.21.49-.5.63-.88.15-.38.22-.82.22-1.31 0-.5-.07-.92-.21-1.29A1.68 1.68 0 0 0 93.42 30c-.43 0-.8.1-1.07.33-.29.21-.5.5-.64.88-.14.37-.21.78-.21 1.25 0 .46.07.89.21 1.27.15.38.36.68.64.9.29.22.64.33 1.06.33Zm7.33.9a2.57 2.57 0 0 1-2.43-1.6 4.26 4.26 0 0 1-.35-1.8c0-.69.11-1.28.35-1.79a2.6 2.6 0 0 1 2.44-1.59c.43 0 .77.07 1.02.22.25.14.44.3.57.47l.3.44h.1v-3.23h1v8.74h-.97v-1h-.12l-.32.45c-.13.18-.33.34-.58.48-.25.14-.6.2-1.01.2Zm.13-.9a1.68 1.68 0 0 0 1.66-1.2c.15-.38.22-.82.22-1.31 0-.5-.07-.92-.21-1.29a1.68 1.68 0 0 0-1.66-1.17c-.43 0-.79.1-1.07.33-.28.21-.5.5-.64.88-.14.37-.2.78-.2 1.25 0 .46.06.89.2 1.27.15.38.36.68.65.9.28.22.63.33 1.05.33Zm10.16.92c-.41 0-.79-.08-1.13-.24-.34-.16-.6-.39-.8-.69-.2-.3-.3-.66-.3-1.09 0-.37.07-.68.22-.91.15-.24.34-.42.6-.56.24-.13.51-.23.81-.3.3-.06.6-.12.91-.16l.97-.11c.25-.03.43-.08.55-.14.11-.07.17-.18.17-.34v-.04c0-.42-.11-.75-.34-.98-.23-.23-.58-.35-1.04-.35-.48 0-.86.1-1.13.32-.28.2-.47.43-.58.67l-.95-.34a2.3 2.3 0 0 1 1.62-1.4 3.9 3.9 0 0 1 1.73-.06c.27.05.54.15.8.3.26.16.47.39.64.7.17.3.26.72.26 1.24v4.32h-1.01v-.88h-.05a1.96 1.96 0 0 1-.98.87c-.26.1-.58.17-.97.17Zm.16-.9a2 2 0 0 0 1-.24 1.6 1.6 0 0 0 .84-1.39v-.92c-.04.05-.14.1-.28.14a4.73 4.73 0 0 1-1.04.18l-.42.05c-.26.04-.5.1-.73.17-.23.07-.41.19-.55.34a.86.86 0 0 0-.2.6c0 .35.12.62.38.8.27.17.6.26 1 .26Zm4.69 3.2v-9.01h.97v1.04h.12l.3-.44a1.97 1.97 0 0 1 1.59-.69 2.6 2.6 0 0 1 2.45 1.6c.23.5.35 1.1.35 1.78 0 .7-.12 1.3-.35 1.8-.24.51-.57.9-.98 1.19-.42.27-.9.4-1.45.4a2.1 2.1 0 0 1-1.01-.2c-.26-.14-.45-.3-.59-.48a6.62 6.62 0 0 1-.31-.45h-.09v3.46h-1Zm.98-5.73c0 .5.08.93.22 1.3a2 2 0 0 0 .64.89c.28.2.62.31 1.02.31.42 0 .78-.1 1.06-.33.28-.22.5-.52.64-.9s.21-.8.21-1.27-.07-.88-.2-1.25a1.93 1.93 0 0 0-.64-.88 1.68 1.68 0 0 0-1.07-.33 1.68 1.68 0 0 0-1.66 1.17c-.14.37-.22.8-.22 1.29Zm6.34 5.73v-9.01h.97v1.04h.12l.3-.44a1.97 1.97 0 0 1 1.59-.69 2.6 2.6 0 0 1 2.45 1.6c.24.5.35 1.1.35 1.78 0 .7-.11 1.3-.35 1.8-.24.51-.56.9-.98 1.19-.42.27-.9.4-1.45.4a2.1 2.1 0 0 1-1.01-.2c-.25-.14-.45-.3-.58-.48a6.69 6.69 0 0 1-.32-.45h-.09v3.46h-1Zm.99-5.73c0 .5.07.93.22 1.3.14.38.35.68.63.89.28.2.62.31 1.02.31.42 0 .78-.1 1.06-.33a2 2 0 0 0 .64-.9 3.64 3.64 0 0 0 0-2.52 1.93 1.93 0 0 0-.63-.88 1.68 1.68 0 0 0-1.07-.33 1.68 1.68 0 0 0-1.66 1.17c-.14.37-.21.8-.21 1.29Zm6.33-5.46h1v7.03c0 .31.04.54.11.67.07.12.22.18.44.18a1.95 1.95 0 0 0 .43-.07l.2.87a2.65 2.65 0 0 1-.75.1c-.47 0-.83-.13-1.07-.39a1.56 1.56 0 0 1-.36-1.1V27Zm3.11 8.73v-6.55h1v6.55h-1Zm.51-7.64a.71.71 0 0 1-.5-.2.64.64 0 0 1-.22-.49c0-.18.07-.34.21-.48a.74.74 0 0 1 1.01 0 .64.64 0 0 1 0 .96.7.7 0 0 1-.5.2Zm5 7.78c-.61 0-1.14-.15-1.58-.44a2.84 2.84 0 0 1-1.03-1.2 4 4 0 0 1-.36-1.74c0-.67.13-1.25.37-1.76.25-.51.6-.91 1.03-1.2.45-.3.96-.44 1.56-.44.46 0 .87.09 1.24.26a2.3 2.3 0 0 1 1.35 1.79h-1a1.55 1.55 0 0 0-1.58-1.14c-.39 0-.73.1-1.03.3a2 2 0 0 0-.69.86c-.16.37-.24.8-.24 1.3s.08.94.24 1.32a2 2 0 0 0 .68.87c.3.21.64.31 1.04.31.26 0 .5-.04.72-.13a1.47 1.47 0 0 0 .85-1h1a2.33 2.33 0 0 1-1.3 1.77 2.8 2.8 0 0 1-1.27.27Zm5.98.02c-.41 0-.8-.08-1.13-.24-.34-.16-.6-.39-.8-.69-.2-.3-.3-.66-.3-1.09 0-.37.07-.68.22-.91.14-.24.34-.42.59-.56.25-.13.52-.23.82-.3.3-.06.6-.12.9-.16l.98-.11c.25-.03.43-.08.54-.14.12-.07.18-.18.18-.34v-.04c0-.42-.12-.75-.35-.98-.23-.23-.57-.35-1.04-.35a1.77 1.77 0 0 0-1.7.99l-.96-.34c.17-.4.4-.7.69-.93.28-.23.6-.38.93-.47a3.9 3.9 0 0 1 1.74-.06 1.9 1.9 0 0 1 1.44 1c.17.3.25.72.25 1.24v4.32h-1v-.88h-.05a1.96 1.96 0 0 1-.98.87c-.27.1-.59.17-.97.17Zm.15-.9a2 2 0 0 0 1.01-.24 1.6 1.6 0 0 0 .84-1.39v-.92a.65.65 0 0 1-.28.14 4.73 4.73 0 0 1-1.04.18l-.42.05c-.27.04-.51.1-.74.17-.22.07-.4.19-.54.34a.86.86 0 0 0-.2.6c0 .35.12.62.38.8.26.17.6.26 1 .26Zm5.7-3.2v3.94h-1v-6.55h.96v1.02h.09c.15-.33.39-.6.7-.8.31-.2.72-.3 1.21-.3.44 0 .83.08 1.17.27.33.18.59.45.77.82.19.36.28.82.28 1.38v4.16h-1v-4.1c0-.5-.14-.9-.4-1.2a1.42 1.42 0 0 0-1.1-.43c-.33 0-.62.07-.87.2a1.5 1.5 0 0 0-.6.62c-.14.26-.21.59-.21.97Zm8.87-2.61v.85h-3.4v-.85h3.4Zm-2.4-1.57h1v6.25c0 .28.04.5.13.64.08.13.19.23.32.28.13.04.27.07.42.07a1.78 1.78 0 0 0 .44-.06l.21.9a2.05 2.05 0 0 1-.75.13c-.29 0-.56-.06-.84-.19-.27-.12-.5-.3-.67-.55a1.6 1.6 0 0 1-.27-.95V27.6Zm8.44 3.04-.9.25a1.54 1.54 0 0 0-.7-.8 1.68 1.68 0 0 0-.72-.14c-.4 0-.74.1-1 .28a.81.81 0 0 0-.4.7c0 .25.09.44.27.59.18.14.47.27.86.36l.97.24a2.6 2.6 0 0 1 1.3.65c.3.3.44.67.44 1.13 0 .37-.1.7-.32 1-.22.3-.52.53-.9.7-.38.17-.83.26-1.34.26-.67 0-1.22-.15-1.66-.44a1.93 1.93 0 0 1-.83-1.27l.95-.24c.1.36.27.62.52.8.26.17.59.26 1 .26.47 0 .84-.1 1.12-.3.28-.2.42-.44.42-.72a.76.76 0 0 0-.24-.57c-.16-.16-.4-.28-.73-.35l-1.1-.26a2.6 2.6 0 0 1-1.32-.66 1.6 1.6 0 0 1-.42-1.13c0-.37.1-.7.31-.98.21-.29.5-.51.86-.67.37-.17.78-.25 1.24-.25.65 0 1.16.15 1.53.43.37.28.63.66.79 1.13ZM16.11 47.2v.86h-3.4v-.86h3.4Zm-2.4-1.57h1v6.25c0 .28.05.5.13.64s.2.23.32.28c.14.05.28.07.43.07.1 0 .2 0 .27-.02l.17-.03.2.9a2.05 2.05 0 0 1-.75.12c-.28 0-.56-.06-.83-.18-.27-.12-.5-.31-.68-.56a1.6 1.6 0 0 1-.26-.95v-6.52Zm6.51 8.27c-.59 0-1.1-.15-1.56-.43a2.92 2.92 0 0 1-1.04-1.18 4 4 0 0 1-.37-1.78c0-.68.13-1.28.37-1.78.25-.51.6-.9 1.04-1.2.45-.27.97-.41 1.56-.41a2.8 2.8 0 0 1 2.6 1.61 4 4 0 0 1 .37 1.78c0 .68-.12 1.27-.37 1.78a2.84 2.84 0 0 1-2.6 1.6Zm0-.91c.45 0 .82-.12 1.11-.35.3-.23.5-.53.65-.9a3.78 3.78 0 0 0 0-2.45 2.06 2.06 0 0 0-.65-.92 1.71 1.71 0 0 0-1.1-.35c-.46 0-.83.12-1.12.35-.29.23-.5.54-.64.92s-.21.78-.21 1.22c0 .44.07.85.2 1.22.15.38.36.68.65.91.3.23.66.35 1.11.35Zm10.74-5.79v.86h-3.4v-.86h3.4Zm-2.4-1.57h1v6.25c0 .28.04.5.12.64.09.14.2.23.33.28.13.05.27.07.42.07.11 0 .2 0 .27-.02l.17-.03.2.9a2.05 2.05 0 0 1-.74.12c-.29 0-.57-.06-.84-.18s-.5-.31-.67-.56a1.6 1.6 0 0 1-.27-.95v-6.52Zm5.06 4.18v3.95h-1v-8.74h1v3.2h.09c.15-.33.38-.6.69-.8.3-.2.72-.3 1.23-.3.45 0 .84.09 1.18.27.33.17.6.44.78.81a3 3 0 0 1 .28 1.4v4.16h-1v-4.1c0-.52-.14-.92-.41-1.2a1.45 1.45 0 0 0-1.12-.44c-.33 0-.62.07-.88.21-.26.14-.47.34-.62.61-.15.27-.22.6-.22.97Zm6.09 3.95V47.2h1v6.56h-1Zm.51-7.65a.72.72 0 0 1-.5-.2.64.64 0 0 1-.21-.48c0-.2.07-.35.2-.49.15-.13.32-.2.51-.2.2 0 .37.07.5.2.15.14.22.3.22.49 0 .18-.07.35-.21.48a.7.7 0 0 1-.5.2Zm6.98 2.56-.9.26c-.06-.16-.14-.3-.25-.44-.1-.15-.26-.27-.44-.36-.2-.1-.43-.14-.73-.14-.4 0-.73.09-1 .27-.26.19-.4.42-.4.7 0 .25.1.45.28.6.18.14.46.26.85.36l.97.23c.59.15 1.03.36 1.31.66.3.29.44.66.44 1.12 0 .37-.11.71-.33 1a2 2 0 0 1-.9.7c-.38.18-.83.26-1.34.26-.66 0-1.22-.14-1.65-.43a1.93 1.93 0 0 1-.84-1.27l.96-.24c.09.35.26.61.52.79.25.18.59.26 1 .26.47 0 .84-.1 1.12-.3.27-.2.41-.44.41-.72a.76.76 0 0 0-.23-.57 1.5 1.5 0 0 0-.74-.35l-1.1-.26a2.6 2.6 0 0 1-1.31-.66 1.6 1.6 0 0 1-.42-1.13c0-.37.1-.7.3-.98.22-.28.5-.5.87-.67a3 3 0 0 1 1.23-.24c.65 0 1.16.14 1.53.42.37.29.64.66.8 1.13Zm6.95 5.23c-.42 0-.8-.07-1.13-.23a1.83 1.83 0 0 1-1.1-1.78c0-.37.07-.67.21-.9.15-.24.35-.43.6-.56.25-.14.52-.24.82-.3.3-.07.6-.12.9-.16l.97-.12c.25-.03.44-.07.55-.14.12-.06.18-.18.18-.34v-.03c0-.43-.12-.75-.35-.99-.23-.23-.57-.35-1.04-.35a1.77 1.77 0 0 0-1.7.99l-.96-.34a2.3 2.3 0 0 1 1.62-1.4 3.9 3.9 0 0 1 1.73-.06c.28.05.55.15.8.3.26.16.48.4.65.7.17.31.25.73.25 1.25v4.32h-1v-.9h-.06a1.98 1.98 0 0 1-.97.88c-.27.11-.59.17-.97.17Zm.15-.9a2 2 0 0 0 1-.23 1.6 1.6 0 0 0 .85-1.39v-.92a.64.64 0 0 1-.29.14 4.76 4.76 0 0 1-1.03.19l-.43.05c-.26.03-.5.09-.73.16-.22.08-.4.19-.55.34a.86.86 0 0 0-.2.6c0 .36.13.62.39.8.26.18.6.26 1 .26Zm9.33-4.33-.9.26c-.06-.16-.14-.3-.25-.44a1.16 1.16 0 0 0-.45-.36c-.19-.1-.43-.14-.72-.14-.4 0-.73.09-1 .27-.27.19-.4.42-.4.7 0 .25.1.45.28.6.18.14.46.26.85.36l.97.23c.59.15 1.02.36 1.31.66.29.29.43.66.43 1.12 0 .37-.1.71-.32 1-.22.3-.51.54-.9.7-.38.18-.83.26-1.34.26-.67 0-1.22-.14-1.66-.43a1.93 1.93 0 0 1-.83-1.27l.96-.24c.09.35.26.61.51.79.26.18.6.26 1 .26.47 0 .85-.1 1.12-.3.28-.2.42-.44.42-.72a.76.76 0 0 0-.24-.57c-.16-.16-.4-.27-.73-.35l-1.1-.26a2.6 2.6 0 0 1-1.32-.66 1.6 1.6 0 0 1-.41-1.13c0-.37.1-.7.3-.98.22-.28.5-.5.86-.67.37-.16.78-.24 1.24-.24.65 0 1.16.14 1.53.42.37.29.64.66.8 1.13Zm6.28 0-.9.26c-.06-.16-.15-.3-.26-.44-.1-.15-.25-.27-.44-.36-.19-.1-.43-.14-.72-.14-.4 0-.74.09-1 .27-.27.19-.4.42-.4.7 0 .25.1.45.27.6.18.14.47.26.86.36l.97.23c.58.15 1.02.36 1.3.66.3.29.44.66.44 1.12 0 .37-.1.71-.32 1-.22.3-.52.54-.9.7-.38.18-.83.26-1.34.26-.67 0-1.22-.14-1.66-.43a1.93 1.93 0 0 1-.83-1.27l.95-.24c.1.35.27.61.52.79.26.18.59.26 1 .26.47 0 .84-.1 1.12-.3.28-.2.42-.44.42-.72a.76.76 0 0 0-.24-.57c-.16-.16-.4-.27-.73-.35l-1.1-.26a2.6 2.6 0 0 1-1.32-.66 1.6 1.6 0 0 1-.42-1.13c0-.37.1-.7.31-.98s.5-.5.86-.67c.37-.16.78-.24 1.24-.24.65 0 1.16.14 1.53.42.37.29.63.66.79 1.13Zm4.39 5.23a2.8 2.8 0 0 1-2.69-1.6 3.97 3.97 0 0 1-.37-1.77c0-.67.12-1.26.37-1.78a2.77 2.77 0 0 1 2.59-1.64c.33 0 .67.06 1 .18a2.5 2.5 0 0 1 1.56 1.56c.17.42.25.93.25 1.54v.43h-5.05v-.87h4.02c0-.37-.07-.7-.22-.99a1.67 1.67 0 0 0-1.57-.94c-.4 0-.75.1-1.04.3a2 2 0 0 0-.67.77c-.16.31-.23.65-.23 1.01v.58c0 .5.08.92.25 1.26a1.88 1.88 0 0 0 1.79 1.05 1.75 1.75 0 0 0 1.28-.45c.16-.16.28-.35.36-.58l.97.28c-.1.33-.27.62-.51.87-.24.24-.54.44-.9.58-.35.13-.75.2-1.2.2Zm8.88-5.23-.9.26c-.06-.16-.14-.3-.26-.44-.1-.15-.25-.27-.44-.36-.19-.1-.43-.14-.72-.14-.4 0-.74.09-1 .27-.27.19-.4.42-.4.7 0 .25.1.45.27.6.19.14.47.26.86.36l.97.23c.59.15 1.02.36 1.31.66.29.29.43.66.43 1.12 0 .37-.1.71-.32 1-.22.3-.52.54-.9.7-.38.18-.83.26-1.34.26-.67 0-1.22-.14-1.66-.43a1.93 1.93 0 0 1-.83-1.27l.95-.24c.1.35.27.61.52.79.26.18.6.26 1 .26.47 0 .85-.1 1.12-.3.28-.2.42-.44.42-.72a.76.76 0 0 0-.24-.57c-.16-.16-.4-.27-.73-.35l-1.1-.26a2.6 2.6 0 0 1-1.32-.66 1.6 1.6 0 0 1-.42-1.13c0-.37.1-.7.31-.98.22-.28.5-.5.86-.67.37-.16.78-.24 1.24-.24.65 0 1.16.14 1.53.42.37.29.63.66.8 1.13Zm4.49-1.47v.86h-3.4v-.86h3.4Zm-2.41-1.57h1v6.25c0 .28.05.5.13.64.09.14.2.23.33.28.13.05.27.07.42.07.1 0 .2 0 .27-.02l.17-.03.2.9a2.05 2.05 0 0 1-.75.12c-.28 0-.56-.06-.83-.18-.27-.12-.5-.31-.68-.56a1.6 1.6 0 0 1-.26-.95v-6.52Zm3.92 8.13V47.2h.97v1.03h.09c.14-.35.36-.63.66-.82.3-.2.67-.3 1.1-.3.43 0 .79.1 1.08.3.29.2.51.47.68.82h.06c.17-.34.42-.61.76-.81.33-.2.74-.3 1.2-.3.6 0 1.07.18 1.44.55.38.36.56.93.56 1.7v4.39h-1v-4.4c0-.47-.14-.82-.4-1.03-.27-.2-.58-.3-.94-.3-.46 0-.81.13-1.07.4A1.5 1.5 0 0 0 94 49.5v4.27h-1.02v-4.5c0-.37-.12-.67-.36-.9a1.3 1.3 0 0 0-.94-.34c-.26 0-.5.07-.73.21-.23.14-.4.33-.55.58-.13.24-.2.53-.2.85v4.1h-1Zm13.19.14a2.8 2.8 0 0 1-2.69-1.6 4.11 4.11 0 0 1-.36-1.77c0-.67.12-1.26.36-1.78a2.77 2.77 0 0 1 2.59-1.64c.34 0 .68.06 1.01.18a2.5 2.5 0 0 1 1.56 1.56c.16.42.25.93.25 1.54v.43h-5.06v-.87h4.03c0-.37-.07-.7-.22-.99a1.67 1.67 0 0 0-1.57-.94 1.85 1.85 0 0 0-1.71 1.07c-.16.31-.24.65-.24 1.01v.58c0 .5.09.92.26 1.26.17.34.41.6.72.78a2.31 2.31 0 0 0 1.79.16c.22-.08.4-.2.56-.34.15-.16.27-.35.36-.58l.97.28c-.1.33-.27.62-.51.87-.25.24-.54.44-.9.58-.35.13-.75.2-1.2.2Zm5.25-4.09v3.95h-1V47.2h.97v1.03h.09c.15-.34.38-.6.7-.8.3-.21.71-.31 1.2-.31.45 0 .84.09 1.17.27.33.18.6.45.78.82.18.36.28.82.28 1.38v4.17h-1.01v-4.1c0-.52-.13-.92-.4-1.2a1.42 1.42 0 0 0-1.1-.44c-.32 0-.61.07-.86.21a1.5 1.5 0 0 0-.6.61c-.14.27-.22.6-.22.97Zm8.88-2.61v.86h-3.4v-.86h3.4Zm-2.41-1.57h1v6.25c0 .28.05.5.13.64.09.14.2.23.33.28.13.05.27.07.42.07a1.78 1.78 0 0 0 .44-.05l.2.9a2.1 2.1 0 0 1-.75.12c-.28 0-.56-.06-.83-.18-.27-.12-.5-.31-.68-.56a1.6 1.6 0 0 1-.26-.95v-6.52Zm9.95 10.72c-.5 0-.9-.06-1.26-.19a2.67 2.67 0 0 1-1.42-1.12l.8-.57c.09.12.2.26.34.41.14.16.33.3.58.4.24.12.56.18.96.18.52 0 .96-.13 1.3-.38.35-.26.52-.66.52-1.2v-1.34h-.08l-.32.45c-.13.17-.33.33-.58.46-.25.14-.59.2-1.02.2-.52 0-1-.12-1.42-.37a2.63 2.63 0 0 1-1-1.1 3.82 3.82 0 0 1-.36-1.74 4 4 0 0 1 .36-1.75 2.6 2.6 0 0 1 2.45-1.57c.42 0 .76.07 1 .21.26.14.45.3.59.48l.31.43h.1V47.2h.98v6.74c0 .57-.13 1.02-.39 1.38-.25.35-.59.61-1.02.78-.43.17-.9.25-1.42.25Zm-.04-3.6c.4 0 .75-.1 1.03-.28.27-.18.49-.45.63-.8.15-.34.22-.76.22-1.24 0-.47-.07-.9-.21-1.25a1.88 1.88 0 0 0-.64-.85 1.7 1.7 0 0 0-1.03-.3 1.71 1.71 0 0 0-1.7 1.19c-.14.36-.21.76-.21 1.2 0 .46.07.87.21 1.21.15.35.36.63.64.82.29.2.64.3 1.06.3Zm4.71 1.01V47.2h.97v1h.07c.12-.33.34-.6.65-.8.31-.2.67-.3 1.06-.3a11.31 11.31 0 0 1 .53.02v1.02a2.87 2.87 0 0 0-.62-.07c-.31 0-.6.07-.85.2s-.44.32-.59.55c-.14.23-.21.5-.21.79v4.15h-1Zm6.94.14a2.78 2.78 0 0 1-2.6-1.61 4 4 0 0 1-.37-1.78c0-.68.12-1.28.37-1.78.25-.51.6-.9 1.04-1.2.44-.27.96-.41 1.56-.41a2.75 2.75 0 0 1 2.59 1.61c.25.5.38 1.1.38 1.78 0 .68-.13 1.27-.38 1.78-.25.5-.6.9-1.04 1.18-.44.28-.96.42-1.55.42Zm0-.91c.44 0 .81-.12 1.1-.35.3-.23.51-.53.65-.9.14-.38.2-.79.2-1.23 0-.44-.06-.84-.2-1.22a2.06 2.06 0 0 0-.65-.92 1.71 1.71 0 0 0-1.1-.35c-.45 0-.82.12-1.11.35-.3.23-.5.54-.65.92-.14.38-.2.78-.2 1.22 0 .44.06.85.2 1.22.14.38.36.68.65.91.29.23.66.35 1.1.35Zm8.63-1.91V47.2h1.01v6.56h-1v-1.11h-.08a2.2 2.2 0 0 1-.71.85 2.1 2.1 0 0 1-1.23.34 2.2 2.2 0 0 1-1.1-.27 1.88 1.88 0 0 1-.74-.82 3.11 3.11 0 0 1-.28-1.38V47.2h1v4.1c0 .48.14.86.41 1.14.27.29.62.43 1.03.43a1.72 1.72 0 0 0 1.7-1.8Zm2.85 5.13v-9h.98v1.03h.12l.3-.43a1.81 1.81 0 0 1 1.6-.7 2.6 2.6 0 0 1 2.44 1.6c.23.5.35 1.1.35 1.79s-.12 1.3-.35 1.8a2.56 2.56 0 0 1-2.43 1.6 2.1 2.1 0 0 1-1.01-.22c-.26-.14-.45-.3-.59-.48a6.34 6.34 0 0 1-.31-.45h-.09v3.46h-1Zm1-5.73c0 .5.07.93.21 1.3.15.38.36.68.64.9.28.2.62.3 1.02.3.42 0 .77-.1 1.06-.33.28-.22.5-.52.63-.9.15-.38.22-.8.22-1.27 0-.46-.07-.88-.21-1.25a1.92 1.92 0 0 0-.64-.88 1.68 1.68 0 0 0-1.06-.33 1.68 1.68 0 0 0-1.66 1.17c-.15.37-.22.8-.22 1.29ZM25.8 12.38h-2.25L27.65.75h2.6l4.1 11.63H32.1L29 3.13h-.1l-3.1 9.25Zm.07-4.56h6.14v1.7h-6.14v-1.7Zm12.89 4.72a3.3 3.3 0 0 1-3.12-2.07 5.72 5.72 0 0 1-.47-2.44c0-.97.16-1.79.47-2.45a3.34 3.34 0 0 1 4.39-1.77c.33.16.6.37.78.61.2.24.35.47.45.68h.09V.75h2.06v11.63H41.4v-1.37h-.13c-.1.21-.26.44-.46.67a2.53 2.53 0 0 1-2.04.86Zm.58-1.7c.43 0 .8-.1 1.11-.34.3-.24.54-.57.7-1 .16-.42.24-.92.24-1.48 0-.57-.08-1.06-.24-1.47a2.1 2.1 0 0 0-.7-.97 1.8 1.8 0 0 0-1.11-.35c-.46 0-.84.12-1.15.36-.3.24-.54.57-.7.99-.15.42-.23.9-.23 1.44 0 .54.08 1.03.24 1.46.16.42.39.76.7 1 .3.25.69.37 1.14.37Zm9.5 1.7a3.3 3.3 0 0 1-3.12-2.07 5.72 5.72 0 0 1-.47-2.44c0-.97.15-1.79.47-2.45a3.34 3.34 0 0 1 4.39-1.77c.33.16.59.37.78.61.2.24.35.47.45.68h.09V.75h2.06v11.63h-2.02v-1.37h-.13c-.1.21-.26.44-.46.67a2.53 2.53 0 0 1-2.04.86Zm.58-1.7c.43 0 .8-.1 1.1-.34.32-.24.55-.57.7-1 .17-.42.25-.92.25-1.48 0-.57-.08-1.06-.24-1.47a2.1 2.1 0 0 0-.7-.97 1.8 1.8 0 0 0-1.11-.35c-.46 0-.85.12-1.15.36-.3.24-.54.57-.7.99-.15.42-.23.9-.23 1.44 0 .54.08 1.03.23 1.46.16.42.4.76.7 1 .31.25.7.37 1.15.37Zm11.82 1.54h-2.25L63.09.75h2.6l4.1 11.63h-2.25l-3.11-9.25h-.1l-3.1 9.25Zm.07-4.56h6.14v1.7H61.3v-1.7Zm9.92 7.84v-12h2.02V5.1h.12c.1-.21.26-.44.45-.68a2.46 2.46 0 0 1 2.04-.88 3.33 3.33 0 0 1 3.12 2.04c.33.66.49 1.48.49 2.45 0 .96-.16 1.77-.47 2.44a3.3 3.3 0 0 1-3.13 2.06c-.5 0-.91-.08-1.24-.24-.33-.17-.6-.37-.8-.6a3.9 3.9 0 0 1-.46-.68h-.08v4.65h-2.06Zm2.02-7.64c0 .56.07 1.06.23 1.48.17.43.4.76.7 1 .31.23.68.35 1.12.35.45 0 .83-.12 1.14-.37.3-.24.54-.58.7-1 .15-.43.23-.92.23-1.46 0-.54-.08-1.02-.23-1.44a2.17 2.17 0 0 0-.7-1c-.3-.23-.69-.35-1.14-.35-.44 0-.82.11-1.12.35-.31.23-.54.55-.7.97-.16.41-.23.9-.23 1.47Zm7.98 7.64v-12h2.02V5.1h.12c.1-.21.26-.44.45-.68a2.46 2.46 0 0 1 2.04-.88 3.33 3.33 0 0 1 3.12 2.04c.33.66.49 1.48.49 2.45 0 .96-.16 1.77-.47 2.44a3.3 3.3 0 0 1-3.13 2.06c-.5 0-.91-.08-1.24-.24-.33-.17-.6-.37-.8-.6a3.9 3.9 0 0 1-.46-.68h-.08v4.65h-2.06Zm2.02-7.64c0 .56.07 1.06.23 1.48.17.43.4.76.7 1 .31.23.68.35 1.12.35.45 0 .83-.12 1.14-.37.3-.24.54-.58.7-1 .15-.43.23-.92.23-1.46 0-.54-.08-1.02-.23-1.44a2.17 2.17 0 0 0-.7-1c-.3-.23-.69-.35-1.14-.35-.44 0-.82.11-1.12.35-.31.23-.54.55-.7.97-.16.41-.23.9-.23 1.47ZM91.23.75h2.06v9.13c0 .33.04.56.14.7.1.14.28.2.53.2a2.45 2.45 0 0 0 .5-.07l.34 1.56a4.08 4.08 0 0 1-1.12.17c-.83.02-1.45-.15-1.85-.52-.4-.37-.6-.94-.6-1.7V.75Zm4.59 11.63V3.66h2.06v8.72h-2.06Zm1.04-9.96c-.33 0-.61-.11-.84-.33a1.04 1.04 0 0 1-.36-.79c0-.3.12-.57.36-.79.23-.22.51-.33.84-.33.33 0 .6.11.84.33a1.06 1.06 0 0 1 0 1.58c-.23.22-.51.33-.84.33Zm6.94 10.13a3.83 3.83 0 0 1-3.68-2.16 5.24 5.24 0 0 1-.5-2.34c0-.88.17-1.67.51-2.34a3.8 3.8 0 0 1 1.44-1.6 4.16 4.16 0 0 1 2.22-.57c.7 0 1.33.13 1.88.4a3.22 3.22 0 0 1 1.87 2.74h-1.97a1.88 1.88 0 0 0-.56-1.05c-.3-.29-.7-.43-1.2-.43-.41 0-.78.11-1.1.34-.32.23-.57.55-.74.97a3.8 3.8 0 0 0-.27 1.5c0 .6.1 1.11.27 1.54.17.43.41.75.73.99.32.22.69.34 1.12.34.3 0 .57-.06.81-.17.24-.12.45-.29.6-.5.17-.23.28-.5.34-.81h1.97a3.24 3.24 0 0 1-1.83 2.76 4.3 4.3 0 0 1-1.9.4Zm7.94.01c-.55 0-1.05-.1-1.5-.3-.43-.2-.78-.5-1.04-.88a2.6 2.6 0 0 1-.38-1.45 2.11 2.11 0 0 1 1.02-2c.31-.18.66-.33 1.06-.43.4-.1.8-.17 1.23-.22l1.25-.14c.31-.05.55-.12.69-.2a.5.5 0 0 0 .22-.44v-.04c0-.43-.13-.76-.38-1-.25-.23-.62-.34-1.1-.34-.5 0-.9.1-1.2.32a1.7 1.7 0 0 0-.59.78l-1.92-.27a3.08 3.08 0 0 1 2.03-2.14 5.44 5.44 0 0 1 2.93-.13c.41.1.8.27 1.14.5.34.22.62.53.83.91.21.39.32.87.32 1.45v5.84h-1.98v-1.2h-.07a2.51 2.51 0 0 1-1.37 1.2c-.34.12-.74.18-1.19.18Zm.53-1.51c.42 0 .78-.08 1.08-.25a1.78 1.78 0 0 0 .95-1.55V8.22a.96.96 0 0 1-.33.15 15.84 15.84 0 0 1-1.56.28c-.3.04-.58.1-.82.2-.25.1-.44.23-.58.4a.97.97 0 0 0-.2.65c0 .38.13.66.4.86.28.2.64.29 1.06.29Zm8.2-3.78v5.11h-2.05V3.66h1.96v1.48h.1c.2-.49.52-.88.96-1.17.45-.28 1-.43 1.65-.43.6 0 1.12.13 1.57.39.45.26.8.63 1.05 1.12.25.49.37 1.08.37 1.78v5.55h-2.06V7.14c0-.58-.15-1.04-.46-1.37a1.6 1.6 0 0 0-1.24-.49c-.36 0-.68.08-.96.24-.28.15-.5.38-.65.67-.16.3-.24.66-.24 1.08Zm12.05-3.61v1.59h-5.01v-1.6h5.01Zm-3.78-2.1h2.06v8.2c0 .27.04.49.13.63.08.15.2.25.34.3.14.05.3.08.46.08a2 2 0 0 0 .6-.08l.35 1.6a4.56 4.56 0 0 1-1.2.21 3.3 3.3 0 0 1-1.4-.23 2.16 2.16 0 0 1-.98-.8 2.4 2.4 0 0 1-.35-1.37V1.56Zm12.28 4.4-1.88.2a1.5 1.5 0 0 0-.8-.93 1.9 1.9 0 0 0-.8-.15c-.43 0-.8.09-1.09.27-.28.19-.43.43-.42.73 0 .25.09.46.28.61.19.16.5.3.95.4l1.49.32c.82.17 1.44.46 1.84.84.4.39.61.9.61 1.52 0 .55-.16 1.03-.48 1.45a3.1 3.1 0 0 1-1.31.98c-.56.24-1.2.35-1.93.35a4.48 4.48 0 0 1-2.58-.67 2.7 2.7 0 0 1-1.17-1.88l2-.2c.1.4.3.7.59.9.3.2.68.3 1.15.3.49 0 .88-.1 1.18-.3.3-.2.45-.45.45-.74 0-.25-.1-.46-.3-.62a2.01 2.01 0 0 0-.88-.38l-1.49-.31a3.54 3.54 0 0 1-1.86-.88c-.4-.42-.6-.94-.6-1.58 0-.54.15-1 .44-1.4.3-.4.72-.7 1.25-.92a4.82 4.82 0 0 1 1.84-.33c1.03 0 1.83.22 2.42.65.6.44.96 1.03 1.1 1.77Z" fill="#545454"/></svg>