<svg width="152" height="162" viewBox="0 0 152 162" fill="none" xmlns="http://www.w3.org/2000/svg">
<path d="M149.448 109.687C149.435 110.597 149.061 111.465 148.407 112.102C147.792 112.663 146.986 112.971 146.151 112.965H3.68729C2.82836 112.925 2.01886 112.554 1.43145 111.93C0.817916 111.335 0.447079 110.537 0.390296 109.687C0.216771 69.4932 34.9218 37.0622 74.8326 37.0622C114.743 37.0622 149.448 69.3207 149.448 109.515V109.687ZM136.434 30.1619C139.351 30.1619 142.203 29.302 144.628 27.6908C147.054 26.0796 148.945 23.7895 150.061 21.1102C151.177 18.4309 151.469 15.4827 150.9 12.6383C150.331 9.79399 148.926 7.18129 146.864 5.13064C144.801 3.07998 142.173 1.68346 139.311 1.11769C136.45 0.551915 133.485 0.842291 130.79 1.9521C128.094 3.0619 125.791 4.9413 124.17 7.35261C122.549 9.76393 121.684 12.5989 121.684 15.4989C121.684 19.3878 123.238 23.1174 126.004 25.8672C128.771 28.6171 132.522 30.1619 136.434 30.1619Z" fill="white"/>
<path d="M22.27 151.63H21.0782C21.0077 151.287 20.8844 150.986 20.7082 150.726C20.5352 150.467 20.3237 150.249 20.0738 150.073C19.8271 149.893 19.5532 149.759 19.2521 149.669C18.9509 149.579 18.6369 149.534 18.3102 149.534C17.7143 149.534 17.1744 149.685 16.6906 149.986C16.2101 150.287 15.8272 150.731 15.5421 151.317C15.2602 151.904 15.1192 152.623 15.1192 153.475C15.1192 154.327 15.2602 155.047 15.5421 155.633C15.8272 156.219 16.2101 156.663 16.6906 156.964C17.1744 157.265 17.7143 157.416 18.3102 157.416C18.6369 157.416 18.9509 157.371 19.2521 157.281C19.5532 157.192 19.8271 157.059 20.0738 156.882C20.3237 156.703 20.5352 156.483 20.7082 156.224C20.8844 155.961 21.0077 155.66 21.0782 155.321H22.27C22.1803 155.824 22.0169 156.274 21.7799 156.671C21.5428 157.068 21.248 157.406 20.8956 157.685C20.5432 157.96 20.1475 158.17 19.7086 158.314C19.2729 158.459 18.8067 158.531 18.3102 158.531C17.4708 158.531 16.7243 158.326 16.0707 157.916C15.4171 157.505 14.9029 156.922 14.5281 156.166C14.1532 155.41 13.9658 154.513 13.9658 153.475C13.9658 152.437 14.1532 151.54 14.5281 150.784C14.9029 150.028 15.4171 149.445 16.0707 149.035C16.7243 148.625 17.4708 148.42 18.3102 148.42C18.8067 148.42 19.2729 148.492 19.7086 148.636C20.1475 148.78 20.5432 148.991 20.8956 149.27C21.248 149.546 21.5428 149.882 21.7799 150.279C22.0169 150.673 22.1803 151.124 22.27 151.63Z" fill="#545454"/>
<path d="M26.2143 158.569C25.7465 158.569 25.322 158.481 24.9408 158.305C24.5595 158.125 24.2568 157.868 24.0325 157.531C23.8083 157.192 23.6961 156.781 23.6961 156.301C23.6961 155.878 23.7794 155.535 23.946 155.272C24.1126 155.007 24.3353 154.798 24.614 154.648C24.8927 154.497 25.2003 154.385 25.5367 154.311C25.8763 154.234 26.2175 154.174 26.5603 154.129C27.0088 154.071 27.3725 154.028 27.6512 153.999C27.9331 153.967 28.1382 153.914 28.2663 153.84C28.3977 153.767 28.4634 153.639 28.4634 153.456V153.417C28.4634 152.943 28.3336 152.575 28.0741 152.312C27.8178 152.049 27.4285 151.918 26.9063 151.918C26.3649 151.918 25.9404 152.037 25.6328 152.274C25.3252 152.511 25.109 152.764 24.984 153.033L23.9076 152.649C24.0998 152.2 24.3561 151.851 24.6765 151.601C25.0001 151.348 25.3525 151.172 25.7337 151.072C26.1182 150.97 26.4962 150.919 26.8679 150.919C27.105 150.919 27.3773 150.947 27.6848 151.005C27.9956 151.059 28.2952 151.173 28.5835 151.346C28.875 151.519 29.1169 151.78 29.3092 152.13C29.5014 152.479 29.5975 152.947 29.5975 153.533V158.396H28.4634V157.397H28.4057C28.3288 157.557 28.2006 157.728 28.0212 157.911C27.8418 158.093 27.6031 158.249 27.3052 158.377C27.0072 158.505 26.6436 158.569 26.2143 158.569ZM26.3873 157.55C26.8358 157.55 27.2139 157.462 27.5214 157.286C27.8322 157.11 28.0661 156.882 28.2231 156.604C28.3833 156.325 28.4634 156.032 28.4634 155.724V154.686C28.4153 154.744 28.3096 154.797 28.1462 154.845C27.986 154.89 27.8002 154.93 27.5887 154.965C27.3805 154.997 27.177 155.026 26.9784 155.051C26.783 155.074 26.6244 155.093 26.5026 155.109C26.2079 155.148 25.9324 155.21 25.6761 155.296C25.423 155.38 25.2179 155.506 25.0609 155.676C24.9072 155.843 24.8303 156.07 24.8303 156.359C24.8303 156.753 24.976 157.051 25.2676 157.252C25.5623 157.451 25.9356 157.55 26.3873 157.55Z" fill="#545454"/>
<path d="M34.8777 151.015V151.976H31.0524V151.015H34.8777ZM32.1673 149.246H33.3015V156.282C33.3015 156.602 33.3479 156.842 33.4408 157.003C33.537 157.159 33.6587 157.265 33.8061 157.32C33.9567 157.371 34.1152 157.397 34.2818 157.397C34.4068 157.397 34.5093 157.39 34.5894 157.377C34.6695 157.361 34.7336 157.349 34.7816 157.339L35.0123 158.358C34.9354 158.387 34.8281 158.415 34.6903 158.444C34.5526 158.476 34.3779 158.492 34.1665 158.492C33.8461 158.492 33.5321 158.423 33.2246 158.286C32.9202 158.148 32.6671 157.938 32.4653 157.656C32.2666 157.374 32.1673 157.019 32.1673 156.589V149.246Z" fill="#545454"/>
<path d="M38.7559 158.569C38.2882 158.569 37.8637 158.481 37.4824 158.305C37.1012 158.125 36.7984 157.868 36.5741 157.531C36.3499 157.192 36.2377 156.781 36.2377 156.301C36.2377 155.878 36.321 155.535 36.4876 155.272C36.6542 155.007 36.8769 154.798 37.1556 154.648C37.4344 154.497 37.7419 154.385 38.0783 154.311C38.4179 154.234 38.7591 154.174 39.1019 154.129C39.5505 154.071 39.9141 154.028 40.1928 153.999C40.4748 153.967 40.6798 153.914 40.8079 153.84C40.9393 153.767 41.005 153.639 41.005 153.456V153.417C41.005 152.943 40.8752 152.575 40.6157 152.312C40.3594 152.049 39.9702 151.918 39.4479 151.918C38.9065 151.918 38.482 152.037 38.1744 152.274C37.8669 152.511 37.6506 152.764 37.5257 153.033L36.4492 152.649C36.6414 152.2 36.8977 151.851 37.2181 151.601C37.5417 151.348 37.8941 151.172 38.2754 151.072C38.6598 150.97 39.0379 150.919 39.4095 150.919C39.6466 150.919 39.9189 150.947 40.2265 151.005C40.5372 151.059 40.8368 151.173 41.1251 151.346C41.4167 151.519 41.6586 151.78 41.8508 152.13C42.043 152.479 42.1391 152.947 42.1391 153.533V158.396H41.005V157.397H40.9473C40.8704 157.557 40.7423 157.728 40.5629 157.911C40.3834 158.093 40.1448 158.249 39.8468 158.377C39.5489 158.505 39.1852 158.569 38.7559 158.569ZM38.9289 157.55C39.3775 157.55 39.7555 157.462 40.0631 157.286C40.3738 157.11 40.6077 156.882 40.7647 156.604C40.9249 156.325 41.005 156.032 41.005 155.724V154.686C40.9569 154.744 40.8512 154.797 40.6878 154.845C40.5276 154.89 40.3418 154.93 40.1303 154.965C39.9221 154.997 39.7187 155.026 39.52 155.051C39.3246 155.074 39.166 155.093 39.0443 155.109C38.7495 155.148 38.474 155.21 38.2177 155.296C37.9646 155.38 37.7595 155.506 37.6026 155.676C37.4488 155.843 37.3719 156.07 37.3719 156.359C37.3719 156.753 37.5177 157.051 37.8092 157.252C38.104 157.451 38.4772 157.55 38.9289 157.55Z" fill="#545454"/>
<path d="M49.4377 152.668L48.4189 152.956C48.3549 152.786 48.2604 152.621 48.1354 152.461C48.0137 152.298 47.8471 152.163 47.6356 152.057C47.4242 151.952 47.1534 151.899 46.8235 151.899C46.3717 151.899 45.9953 152.003 45.6941 152.211C45.3962 152.416 45.2472 152.677 45.2472 152.995C45.2472 153.277 45.3497 153.499 45.5548 153.663C45.7598 153.826 46.0802 153.962 46.5159 154.071L47.6116 154.34C48.2716 154.5 48.7634 154.745 49.0869 155.075C49.4105 155.402 49.5723 155.824 49.5723 156.339C49.5723 156.762 49.4506 157.14 49.2071 157.473C48.9668 157.807 48.6304 158.069 48.1979 158.262C47.7654 158.454 47.2624 158.55 46.6889 158.55C45.936 158.55 45.3129 158.387 44.8195 158.06C44.3261 157.733 44.0137 157.256 43.8824 156.628L44.9589 156.359C45.0614 156.756 45.2552 157.054 45.5403 157.252C45.8287 157.451 46.2051 157.55 46.6697 157.55C47.1983 157.55 47.618 157.438 47.9288 157.214C48.2427 156.986 48.3997 156.714 48.3997 156.397C48.3997 156.141 48.31 155.926 48.1306 155.753C47.9512 155.577 47.6757 155.445 47.304 155.359L46.0738 155.071C45.3978 154.91 44.9012 154.662 44.584 154.326C44.27 153.986 44.1131 153.562 44.1131 153.052C44.1131 152.636 44.23 152.267 44.4639 151.947C44.7009 151.627 45.0229 151.375 45.4298 151.192C45.8399 151.01 46.3044 150.919 46.8235 150.919C47.5539 150.919 48.1274 151.079 48.5439 151.399C48.9636 151.719 49.2615 152.142 49.4377 152.668Z" fill="#545454"/>
<path d="M54.4897 151.015V151.976H50.6644V151.015H54.4897ZM51.7793 149.246H52.9135V156.282C52.9135 156.602 52.9599 156.842 53.0528 157.003C53.1489 157.159 53.2707 157.265 53.418 157.32C53.5686 157.371 53.7272 157.397 53.8938 157.397C54.0188 157.397 54.1213 157.39 54.2014 157.377C54.2815 157.361 54.3455 157.349 54.3936 157.339L54.6243 158.358C54.5474 158.387 54.4401 158.415 54.3023 158.444C54.1645 158.476 53.9899 158.492 53.7785 158.492C53.4581 158.492 53.1441 158.423 52.8366 158.286C52.5322 158.148 52.2791 157.938 52.0773 157.656C51.8786 157.374 51.7793 157.019 51.7793 156.589V149.246Z" fill="#545454"/>
<path d="M56.1957 158.396V151.015H57.2914V152.13H57.3683C57.5029 151.764 57.7464 151.468 58.0988 151.24C58.4512 151.013 58.8485 150.899 59.2906 150.899C59.3739 150.899 59.478 150.901 59.603 150.904C59.7279 150.907 59.8224 150.912 59.8865 150.919V152.072C59.8481 152.062 59.7599 152.048 59.6222 152.029C59.4876 152.006 59.3451 151.995 59.1945 151.995C58.8357 151.995 58.5153 152.07 58.2333 152.221C57.9546 152.368 57.7336 152.573 57.5702 152.836C57.41 153.095 57.3299 153.392 57.3299 153.725V158.396H56.1957Z" fill="#545454"/>
<path d="M64.005 158.55C63.3386 158.55 62.7539 158.391 62.2509 158.074C61.7511 157.757 61.3602 157.313 61.0783 156.743C60.7996 156.173 60.6602 155.506 60.6602 154.744C60.6602 153.975 60.7996 153.304 61.0783 152.73C61.3602 152.157 61.7511 151.711 62.2509 151.394C62.7539 151.077 63.3386 150.919 64.005 150.919C64.6714 150.919 65.2544 151.077 65.7542 151.394C66.2572 151.711 66.6481 152.157 66.9268 152.73C67.2088 153.304 67.3497 153.975 67.3497 154.744C67.3497 155.506 67.2088 156.173 66.9268 156.743C66.6481 157.313 66.2572 157.757 65.7542 158.074C65.2544 158.391 64.6714 158.55 64.005 158.55ZM64.005 157.531C64.5112 157.531 64.9277 157.401 65.2544 157.142C65.5812 156.882 65.8231 156.541 65.9801 156.118C66.1371 155.695 66.2156 155.237 66.2156 154.744C66.2156 154.25 66.1371 153.791 65.9801 153.365C65.8231 152.939 65.5812 152.594 65.2544 152.331C64.9277 152.069 64.5112 151.937 64.005 151.937C63.4988 151.937 63.0823 152.069 62.7555 152.331C62.4287 152.594 62.1868 152.939 62.0298 153.365C61.8728 153.791 61.7944 154.25 61.7944 154.744C61.7944 155.237 61.8728 155.695 62.0298 156.118C62.1868 156.541 62.4287 156.882 62.7555 157.142C63.0823 157.401 63.4988 157.531 64.005 157.531Z" fill="#545454"/>
<path d="M69.081 161.164V151.015H70.1767V152.187H70.3112C70.3945 152.059 70.5099 151.896 70.6572 151.697C70.8078 151.495 71.0225 151.316 71.3012 151.159C71.5831 150.999 71.9644 150.919 72.4449 150.919C73.0665 150.919 73.6143 151.074 74.0885 151.385C74.5626 151.695 74.9327 152.136 75.1986 152.706C75.4645 153.277 75.5975 153.949 75.5975 154.725C75.5975 155.506 75.4645 156.184 75.1986 156.757C74.9327 157.328 74.5642 157.77 74.0933 158.084C73.6223 158.395 73.0793 158.55 72.4642 158.55C71.99 158.55 71.6104 158.471 71.3252 158.314C71.0401 158.154 70.8206 157.973 70.6668 157.771C70.5131 157.566 70.3945 157.397 70.3112 157.262H70.2151V161.164H69.081ZM70.1959 154.705C70.1959 155.263 70.2776 155.755 70.441 156.181C70.6044 156.604 70.843 156.935 71.157 157.176C71.471 157.413 71.8554 157.531 72.3104 157.531C72.7845 157.531 73.1802 157.406 73.4974 157.156C73.8178 156.903 74.058 156.564 74.2182 156.137C74.3816 155.708 74.4633 155.231 74.4633 154.705C74.4633 154.186 74.3832 153.719 74.223 153.302C74.0661 152.882 73.8274 152.551 73.507 152.307C73.1898 152.061 72.791 151.937 72.3104 151.937C71.849 151.937 71.4614 152.054 71.1474 152.288C70.8334 152.519 70.5964 152.842 70.4362 153.259C70.276 153.672 70.1959 154.154 70.1959 154.705Z" fill="#545454"/>
<path d="M78.4617 153.956V158.396H77.3275V148.554H78.4617V152.168H78.5578C78.7308 151.787 78.9903 151.484 79.3363 151.26C79.6855 151.032 80.15 150.919 80.7299 150.919C81.2329 150.919 81.6735 151.019 82.0515 151.221C82.4295 151.42 82.7227 151.726 82.9309 152.139C83.1424 152.549 83.2481 153.071 83.2481 153.706V158.396H82.114V153.783C82.114 153.196 81.9618 152.743 81.6574 152.423C81.3563 152.099 80.9382 151.937 80.4032 151.937C80.0315 151.937 79.6983 152.016 79.4036 152.173C79.112 152.33 78.8813 152.559 78.7115 152.86C78.545 153.161 78.4617 153.526 78.4617 153.956Z" fill="#545454"/>
<path d="M85.323 158.396V151.015H86.4571V158.396H85.323ZM85.8996 149.784C85.6786 149.784 85.488 149.709 85.3278 149.559C85.1708 149.408 85.0923 149.227 85.0923 149.015C85.0923 148.804 85.1708 148.623 85.3278 148.472C85.488 148.322 85.6786 148.247 85.8996 148.247C86.1207 148.247 86.3097 148.322 86.4667 148.472C86.6269 148.623 86.707 148.804 86.707 149.015C86.707 149.227 86.6269 149.408 86.4667 149.559C86.3097 149.709 86.1207 149.784 85.8996 149.784Z" fill="#545454"/>
<path d="M91.5331 158.55C90.8411 158.55 90.2452 158.387 89.7454 158.06C89.2456 157.733 88.8611 157.283 88.592 156.709C88.3229 156.136 88.1884 155.481 88.1884 154.744C88.1884 153.994 88.3261 153.333 88.6016 152.759C88.8804 152.182 89.268 151.732 89.7646 151.409C90.2644 151.082 90.8475 150.919 91.5139 150.919C92.0329 150.919 92.5006 151.015 92.9171 151.207C93.3336 151.399 93.6748 151.668 93.9407 152.014C94.2067 152.36 94.3717 152.764 94.4357 153.225H93.3016C93.2151 152.889 93.0229 152.591 92.7249 152.331C92.4302 152.069 92.0329 151.937 91.5331 151.937C91.091 151.937 90.7033 152.053 90.3701 152.283C90.0401 152.511 89.7822 152.833 89.5964 153.249C89.4138 153.663 89.3225 154.148 89.3225 154.705C89.3225 155.276 89.4122 155.772 89.5916 156.195C89.7742 156.618 90.0305 156.946 90.3605 157.18C90.6937 157.414 91.0846 157.531 91.5331 157.531C91.8279 157.531 92.0954 157.48 92.3357 157.377C92.5759 157.275 92.7794 157.127 92.946 156.935C93.1126 156.743 93.2311 156.512 93.3016 156.243H94.4357C94.3717 156.679 94.2131 157.071 93.96 157.421C93.7101 157.767 93.3785 158.042 92.9652 158.247C92.5551 158.449 92.0777 158.55 91.5331 158.55Z" fill="#545454"/>
<path d="M103.187 151.015V151.976H99.2078V151.015H103.187ZM100.4 158.396V149.996C100.4 149.573 100.499 149.221 100.698 148.939C100.896 148.657 101.154 148.445 101.471 148.304C101.788 148.163 102.123 148.093 102.476 148.093C102.754 148.093 102.982 148.115 103.158 148.16C103.334 148.205 103.466 148.247 103.552 148.285L103.225 149.265C103.168 149.246 103.088 149.222 102.985 149.193C102.886 149.164 102.754 149.15 102.591 149.15C102.216 149.15 101.945 149.245 101.779 149.434C101.615 149.623 101.534 149.9 101.534 150.265V158.396H100.4Z" fill="#545454"/>
<path d="M106.737 158.569C106.269 158.569 105.845 158.481 105.464 158.305C105.082 158.125 104.78 157.868 104.555 157.531C104.331 157.192 104.219 156.781 104.219 156.301C104.219 155.878 104.302 155.535 104.469 155.272C104.635 155.007 104.858 154.798 105.137 154.648C105.416 154.497 105.723 154.385 106.059 154.311C106.399 154.234 106.74 154.174 107.083 154.129C107.532 154.071 107.895 154.028 108.174 153.999C108.456 153.967 108.661 153.914 108.789 153.84C108.92 153.767 108.986 153.639 108.986 153.456V153.417C108.986 152.943 108.856 152.575 108.597 152.312C108.341 152.049 107.951 151.918 107.429 151.918C106.888 151.918 106.463 152.037 106.156 152.274C105.848 152.511 105.632 152.764 105.507 153.033L104.43 152.649C104.623 152.2 104.879 151.851 105.199 151.601C105.523 151.348 105.875 151.172 106.257 151.072C106.641 150.97 107.019 150.919 107.391 150.919C107.628 150.919 107.9 150.947 108.208 151.005C108.518 151.059 108.818 151.173 109.106 151.346C109.398 151.519 109.64 151.78 109.832 152.13C110.024 152.479 110.12 152.947 110.12 153.533V158.396H108.986V157.397H108.928C108.852 157.557 108.723 157.728 108.544 157.911C108.365 158.093 108.126 158.249 107.828 158.377C107.53 158.505 107.166 158.569 106.737 158.569ZM106.91 157.55C107.359 157.55 107.737 157.462 108.044 157.286C108.355 157.11 108.589 156.882 108.746 156.604C108.906 156.325 108.986 156.032 108.986 155.724V154.686C108.938 154.744 108.832 154.797 108.669 154.845C108.509 154.89 108.323 154.93 108.111 154.965C107.903 154.997 107.7 155.026 107.501 155.051C107.306 155.074 107.147 155.093 107.025 155.109C106.731 155.148 106.455 155.21 106.199 155.296C105.946 155.38 105.741 155.506 105.584 155.676C105.43 155.843 105.353 156.07 105.353 156.359C105.353 156.753 105.499 157.051 105.79 157.252C106.085 157.451 106.458 157.55 106.91 157.55Z" fill="#545454"/>
<path d="M112.19 158.396V151.015H113.324V158.396H112.19ZM112.767 149.784C112.546 149.784 112.355 149.709 112.195 149.559C112.038 149.408 111.96 149.227 111.96 149.015C111.96 148.804 112.038 148.623 112.195 148.472C112.355 148.322 112.546 148.247 112.767 148.247C112.988 148.247 113.177 148.322 113.334 148.472C113.494 148.623 113.574 148.804 113.574 149.015C113.574 149.227 113.494 149.408 113.334 149.559C113.177 149.709 112.988 149.784 112.767 149.784Z" fill="#545454"/>
<path d="M115.402 148.554H116.536V156.474C116.536 156.833 116.576 157.084 116.656 157.228C116.736 157.373 116.901 157.441 117.151 157.435C117.286 157.429 117.385 157.419 117.449 157.406C117.516 157.39 117.577 157.374 117.632 157.358L117.862 158.338C117.763 158.367 117.638 158.393 117.487 158.415C117.337 158.441 117.18 158.454 117.016 158.454C116.478 158.454 116.075 158.306 115.805 158.012C115.536 157.717 115.402 157.307 115.402 156.781V148.554Z" fill="#545454"/>
<path d="M123.556 155.378V151.015H124.69V158.396H123.556V157.147H123.479C123.306 157.522 123.037 157.84 122.672 158.103C122.306 158.363 121.845 158.492 121.287 158.492C120.826 158.492 120.416 158.391 120.057 158.19C119.698 157.984 119.416 157.677 119.211 157.267C119.006 156.854 118.904 156.333 118.904 155.705V151.015H120.038V155.628C120.038 156.166 120.189 156.596 120.49 156.916C120.794 157.236 121.182 157.397 121.653 157.397C121.935 157.397 122.221 157.324 122.513 157.18C122.808 157.036 123.054 156.815 123.253 156.517C123.455 156.219 123.556 155.84 123.556 155.378Z" fill="#545454"/>
<path d="M126.767 158.396V151.015H127.863V152.13H127.94C128.074 151.764 128.318 151.468 128.67 151.24C129.023 151.013 129.42 150.899 129.862 150.899C129.945 150.899 130.049 150.901 130.174 150.904C130.299 150.907 130.394 150.912 130.458 150.919V152.072C130.419 152.062 130.331 152.048 130.194 152.029C130.059 152.006 129.916 151.995 129.766 151.995C129.407 151.995 129.087 152.07 128.805 152.221C128.526 152.368 128.305 152.573 128.142 152.836C127.981 153.095 127.901 153.392 127.901 153.725V158.396H126.767Z" fill="#545454"/>
<path d="M134.672 158.55C133.961 158.55 133.348 158.393 132.832 158.079C132.319 157.762 131.924 157.32 131.645 156.753C131.369 156.182 131.232 155.519 131.232 154.763C131.232 154.007 131.369 153.341 131.645 152.764C131.924 152.184 132.311 151.732 132.808 151.409C133.308 151.082 133.891 150.919 134.557 150.919C134.942 150.919 135.321 150.983 135.696 151.111C136.071 151.239 136.412 151.447 136.72 151.735C137.027 152.021 137.272 152.399 137.455 152.87C137.638 153.341 137.729 153.92 137.729 154.609V155.09H132.039V154.109H136.576C136.576 153.693 136.492 153.321 136.326 152.995C136.162 152.668 135.928 152.41 135.624 152.221C135.323 152.032 134.967 151.937 134.557 151.937C134.105 151.937 133.715 152.049 133.385 152.274C133.058 152.495 132.806 152.783 132.63 153.139C132.454 153.494 132.366 153.876 132.366 154.282V154.936C132.366 155.494 132.462 155.966 132.654 156.354C132.85 156.738 133.12 157.031 133.466 157.233C133.812 157.432 134.214 157.531 134.672 157.531C134.97 157.531 135.24 157.489 135.48 157.406C135.723 157.32 135.933 157.192 136.109 157.022C136.286 156.849 136.422 156.634 136.518 156.378L137.614 156.685C137.498 157.057 137.304 157.384 137.032 157.666C136.76 157.944 136.423 158.162 136.023 158.319C135.622 158.473 135.172 158.55 134.672 158.55Z" fill="#545454"/>
<path d="M140.926 158.514C140.701 158.514 140.508 158.434 140.347 158.273C140.186 158.112 140.105 157.919 140.105 157.694C140.105 157.469 140.186 157.277 140.347 157.116C140.508 156.955 140.701 156.874 140.926 156.874C141.15 156.874 141.343 156.955 141.504 157.116C141.665 157.277 141.746 157.469 141.746 157.694C141.746 157.843 141.708 157.98 141.632 158.104C141.559 158.229 141.46 158.329 141.336 158.405C141.214 158.478 141.078 158.514 140.926 158.514Z" fill="#545454"/>
<path d="M11.18 129.678H9.12595C9.06737 129.341 8.95935 129.042 8.80191 128.782C8.64446 128.519 8.44858 128.296 8.21424 128.112C7.97991 127.929 7.71262 127.792 7.41238 127.701C7.1158 127.605 6.79542 127.558 6.45124 127.558C5.83978 127.558 5.29788 127.712 4.82555 128.019C4.35322 128.323 3.98341 128.77 3.71613 129.359C3.44884 129.945 3.31519 130.661 3.31519 131.507C3.31519 132.367 3.44884 133.092 3.71613 133.682C3.98707 134.267 4.35688 134.71 4.82555 135.011C5.29788 135.307 5.83795 135.456 6.44575 135.456C6.78261 135.456 7.09749 135.412 7.39041 135.324C7.68699 135.232 7.95245 135.099 8.18678 134.923C8.42478 134.747 8.62433 134.531 8.78543 134.275C8.9502 134.018 9.0637 133.725 9.12595 133.396L11.18 133.407C11.1031 133.941 10.9365 134.443 10.6802 134.912C10.4276 135.38 10.0962 135.794 9.68615 136.153C9.27607 136.508 8.79642 136.786 8.2472 136.988C7.69797 137.186 7.08834 137.284 6.41829 137.284C5.42969 137.284 4.54728 137.056 3.77105 136.598C2.99482 136.14 2.38335 135.479 1.93665 134.615C1.48995 133.751 1.2666 132.715 1.2666 131.507C1.2666 130.295 1.49178 129.258 1.94214 128.398C2.3925 127.534 3.0058 126.873 3.78203 126.415C4.55826 125.958 5.43702 125.729 6.41829 125.729C7.0444 125.729 7.62658 125.817 8.16481 125.992C8.70305 126.168 9.1827 126.426 9.60377 126.767C10.0248 127.104 10.3708 127.517 10.6418 128.008C10.9164 128.495 11.0958 129.052 11.18 129.678Z" fill="#545454"/>
<path d="M15.3857 137.301C14.8511 137.301 14.3696 137.206 13.9412 137.015C13.5165 136.821 13.1797 136.536 12.9307 136.159C12.6854 135.781 12.5627 135.316 12.5627 134.763C12.5627 134.288 12.6506 133.894 12.8263 133.583C13.0021 133.271 13.2419 133.022 13.5458 132.836C13.8497 132.649 14.1921 132.508 14.5728 132.413C14.9573 132.314 15.3546 132.243 15.7647 132.199C16.259 132.147 16.6599 132.102 16.9674 132.061C17.275 132.017 17.4984 131.951 17.6375 131.864C17.7803 131.772 17.8517 131.631 17.8517 131.441V131.408C17.8517 130.994 17.729 130.674 17.4837 130.447C17.2384 130.22 16.8851 130.106 16.4237 130.106C15.9367 130.106 15.5505 130.212 15.2649 130.425C14.9829 130.637 14.7925 130.888 14.6937 131.177L12.8373 130.913C12.9838 130.401 13.2254 129.972 13.5623 129.628C13.8991 129.28 14.311 129.02 14.798 128.848C15.285 128.673 15.8232 128.585 16.4127 128.585C16.8192 128.585 17.2237 128.632 17.6265 128.728C18.0293 128.823 18.3973 128.98 18.7304 129.2C19.0636 129.416 19.3309 129.711 19.5323 130.084C19.7374 130.458 19.8399 130.924 19.8399 131.485V137.131H17.9286V135.972H17.8627C17.7418 136.206 17.5716 136.426 17.3519 136.631C17.1359 136.832 16.8631 136.995 16.5336 137.12C16.2077 137.24 15.8251 137.301 15.3857 137.301ZM15.902 135.84C16.3011 135.84 16.6471 135.761 16.94 135.604C17.2329 135.443 17.4581 135.23 17.6155 134.967C17.7766 134.703 17.8572 134.416 17.8572 134.104V133.11C17.7949 133.162 17.6888 133.209 17.5386 133.253C17.3922 133.297 17.2274 133.336 17.0443 133.368C16.8613 133.401 16.68 133.431 16.5006 133.456C16.3212 133.482 16.1656 133.504 16.0338 133.522C15.7372 133.563 15.4717 133.628 15.2374 133.72C15.0031 133.812 14.8182 133.94 14.6827 134.104C14.5472 134.266 14.4795 134.474 14.4795 134.731C14.4795 135.097 14.6131 135.373 14.8804 135.56C15.1477 135.747 15.4882 135.84 15.902 135.84Z" fill="#545454"/>
<path d="M23.8272 132.188V137.131H21.839V128.695H23.7393V130.128H23.8382C24.0323 129.656 24.3416 129.28 24.7664 129.002C25.1948 128.724 25.7239 128.585 26.3536 128.585C26.9358 128.585 27.4429 128.709 27.875 128.958C28.3107 129.207 28.6475 129.568 28.8855 130.04C29.1272 130.513 29.2462 131.086 29.2425 131.759V137.131H27.2543V132.067C27.2543 131.503 27.1079 131.062 26.815 130.743C26.5257 130.425 26.1248 130.265 25.6122 130.265C25.2643 130.265 24.9549 130.342 24.684 130.496C24.4167 130.646 24.2062 130.864 24.0524 131.15C23.9023 131.435 23.8272 131.781 23.8272 132.188Z" fill="#545454"/>
<path d="M32.9498 125.883V127.003C32.9498 127.325 32.8875 127.66 32.763 128.008C32.6422 128.352 32.4756 128.682 32.2632 128.997C32.0509 129.308 31.8092 129.575 31.5383 129.799L30.6156 129.2C30.817 128.896 30.9927 128.568 31.1428 128.217C31.2929 127.862 31.368 127.461 31.368 127.014V125.883H32.9498Z" fill="#545454"/>
<path d="M39.0557 128.695V130.232H34.2061V128.695H39.0557ZM35.4034 126.673H37.3916V134.593C37.3916 134.861 37.4319 135.066 37.5124 135.208C37.5966 135.347 37.7065 135.443 37.8419 135.494C37.9774 135.545 38.1275 135.571 38.2923 135.571C38.4168 135.571 38.5303 135.562 38.6328 135.543C38.739 135.525 38.8196 135.509 38.8745 135.494L39.2095 137.048C39.1033 137.085 38.9514 137.125 38.7537 137.169C38.5596 137.213 38.3216 137.239 38.0397 137.246C37.5417 137.261 37.0932 137.186 36.6941 137.021C36.295 136.852 35.9783 136.592 35.7439 136.241C35.5133 135.889 35.3997 135.45 35.4034 134.923V126.673Z" fill="#545454"/>
<path d="M48.8277 128.695V130.232H43.8408V128.695H48.8277ZM45.0875 137.131V127.898C45.0875 127.331 45.2047 126.858 45.439 126.481C45.677 126.104 45.9956 125.822 46.3947 125.635C46.7938 125.449 47.2368 125.355 47.7238 125.355C48.068 125.355 48.3737 125.383 48.641 125.438C48.9083 125.493 49.106 125.542 49.2342 125.586L48.8387 127.124C48.7545 127.098 48.6483 127.073 48.5202 127.047C48.392 127.018 48.2492 127.003 48.0918 127.003C47.722 127.003 47.4602 127.093 47.3064 127.272C47.1563 127.448 47.0812 127.701 47.0812 128.03V137.131H45.0875Z" fill="#545454"/>
<path d="M50.3848 137.131V128.695H52.373V137.131H50.3848ZM51.3844 127.497C51.0695 127.497 50.7985 127.393 50.5715 127.184C50.3445 126.972 50.231 126.717 50.231 126.421C50.231 126.121 50.3445 125.866 50.5715 125.657C50.7985 125.445 51.0695 125.339 51.3844 125.339C51.7029 125.339 51.9739 125.445 52.1972 125.657C52.4242 125.866 52.5377 126.121 52.5377 126.421C52.5377 126.717 52.4242 126.972 52.1972 127.184C51.9739 127.393 51.7029 127.497 51.3844 127.497Z" fill="#545454"/>
<path d="M56.4056 132.188V137.131H54.4174V128.695H56.3177V130.128H56.4166C56.6106 129.656 56.92 129.28 57.3448 129.002C57.7732 128.724 58.3022 128.585 58.932 128.585C59.5142 128.585 60.0213 128.709 60.4534 128.958C60.8891 129.207 61.2259 129.568 61.4639 130.04C61.7056 130.513 61.8246 131.086 61.8209 131.759V137.131H59.8327V132.067C59.8327 131.503 59.6863 131.062 59.3934 130.743C59.1041 130.425 58.7032 130.265 58.1906 130.265C57.8427 130.265 57.5333 130.342 57.2624 130.496C56.9951 130.646 56.7846 130.864 56.6308 131.15C56.4807 131.435 56.4056 131.781 56.4056 132.188Z" fill="#545454"/>
<path d="M66.9726 137.279C66.3099 137.279 65.7167 137.109 65.1931 136.768C64.6695 136.428 64.2558 135.933 63.9519 135.285C63.648 134.637 63.496 133.85 63.496 132.924C63.496 131.986 63.6498 131.195 63.9574 130.551C64.2686 129.903 64.6879 129.414 65.2151 129.085C65.7424 128.751 66.33 128.585 66.9781 128.585C67.4724 128.585 67.8788 128.669 68.1974 128.837C68.5159 129.002 68.7686 129.202 68.9553 129.436C69.142 129.667 69.2867 129.885 69.3892 130.09H69.4716V125.883H71.4652V137.131H69.51V135.802H69.3892C69.2867 136.007 69.1384 136.224 68.9443 136.455C68.7503 136.682 68.4939 136.876 68.1754 137.037C67.8569 137.198 67.4559 137.279 66.9726 137.279ZM67.5273 135.648C67.9484 135.648 68.3072 135.534 68.6038 135.307C68.9004 135.077 69.1256 134.756 69.2793 134.346C69.4331 133.936 69.51 133.458 69.51 132.913C69.51 132.367 69.4331 131.893 69.2793 131.49C69.1292 131.087 68.9059 130.774 68.6093 130.551C68.3164 130.328 67.9557 130.216 67.5273 130.216C67.0843 130.216 66.7145 130.331 66.4179 130.562C66.1213 130.793 65.898 131.111 65.7478 131.518C65.5977 131.924 65.5227 132.389 65.5227 132.913C65.5227 133.44 65.5977 133.91 65.7478 134.324C65.9016 134.734 66.1268 135.058 66.4234 135.296C66.7236 135.531 67.0916 135.648 67.5273 135.648Z" fill="#545454"/>
<path d="M81.6327 128.695V130.232H76.7831V128.695H81.6327ZM77.9804 126.673H79.9685V134.593C79.9685 134.861 80.0088 135.066 80.0894 135.208C80.1736 135.347 80.2834 135.443 80.4189 135.494C80.5544 135.545 80.7045 135.571 80.8693 135.571C80.9938 135.571 81.1073 135.562 81.2098 135.543C81.316 135.525 81.3965 135.509 81.4514 135.494L81.7865 137.048C81.6803 137.085 81.5283 137.125 81.3306 137.169C81.1365 137.213 80.8986 137.239 80.6166 137.246C80.1187 137.261 79.6701 137.186 79.271 137.021C78.8719 136.852 78.5552 136.592 78.3209 136.241C78.0902 135.889 77.9767 135.45 77.9804 134.923V126.673Z" fill="#545454"/>
<path d="M85.4649 132.188V137.131H83.4767V125.883H85.4209V130.128H85.5198C85.7175 129.652 86.0232 129.277 86.437 129.002C86.8544 128.724 87.3853 128.585 88.0297 128.585C88.6156 128.585 89.1263 128.707 89.5621 128.953C89.9978 129.198 90.3346 129.557 90.5726 130.029C90.8143 130.502 90.9351 131.078 90.9351 131.759V137.131H88.9469V132.067C88.9469 131.499 88.8005 131.058 88.5076 130.743C88.2183 130.425 87.8119 130.265 87.2883 130.265C86.9368 130.265 86.6219 130.342 86.3436 130.496C86.069 130.646 85.853 130.864 85.6955 131.15C85.5418 131.435 85.4649 131.781 85.4649 132.188Z" fill="#545454"/>
<path d="M96.6964 137.295C95.8506 137.295 95.1202 137.12 94.505 136.768C93.8936 136.413 93.4231 135.911 93.0935 135.263C92.764 134.612 92.5992 133.844 92.5992 132.962C92.5992 132.094 92.764 131.333 93.0935 130.677C93.4267 130.018 93.8917 129.506 94.4886 129.139C95.0854 128.77 95.7866 128.585 96.5921 128.585C97.112 128.585 97.6026 128.669 98.064 128.837C98.529 129.002 98.9391 129.258 99.2942 129.606C99.6531 129.954 99.935 130.397 100.14 130.935C100.345 131.47 100.448 132.107 100.448 132.847V133.456H93.5329V132.116H98.5418C98.5381 131.735 98.4558 131.397 98.2947 131.1C98.1336 130.8 97.9084 130.564 97.6191 130.392C97.3335 130.22 97.0003 130.134 96.6195 130.134C96.2131 130.134 95.8561 130.232 95.5486 130.43C95.241 130.624 95.0012 130.881 94.8291 131.199C94.6607 131.514 94.5746 131.86 94.5709 132.237V133.407C94.5709 133.898 94.6606 134.319 94.8401 134.67C95.0195 135.018 95.2703 135.285 95.5925 135.472C95.9147 135.655 96.2918 135.747 96.7239 135.747C97.0131 135.747 97.2749 135.706 97.5093 135.626C97.7436 135.542 97.9468 135.419 98.1189 135.258C98.291 135.097 98.421 134.897 98.5089 134.659L100.365 134.868C100.248 135.358 100.025 135.787 99.6952 136.153C99.3693 136.516 98.9519 136.797 98.4429 136.999C97.934 137.197 97.3518 137.295 96.6964 137.295Z" fill="#545454"/>
<path d="M109.646 137.295C108.822 137.295 108.108 137.114 107.504 136.752C106.9 136.389 106.431 135.882 106.098 135.23C105.768 134.579 105.603 133.817 105.603 132.946C105.603 132.074 105.768 131.311 106.098 130.655C106.431 130 106.9 129.491 107.504 129.128C108.108 128.766 108.822 128.585 109.646 128.585C110.47 128.585 111.183 128.766 111.788 129.128C112.392 129.491 112.859 130 113.188 130.655C113.521 131.311 113.688 132.074 113.688 132.946C113.688 133.817 113.521 134.579 113.188 135.23C112.859 135.882 112.392 136.389 111.788 136.752C111.183 137.114 110.47 137.295 109.646 137.295ZM109.657 135.703C110.103 135.703 110.477 135.58 110.777 135.335C111.077 135.086 111.301 134.753 111.447 134.335C111.597 133.918 111.672 133.453 111.672 132.94C111.672 132.424 111.597 131.957 111.447 131.54C111.301 131.118 111.077 130.783 110.777 130.534C110.477 130.286 110.103 130.161 109.657 130.161C109.199 130.161 108.818 130.286 108.514 130.534C108.214 130.783 107.989 131.118 107.839 131.54C107.692 131.957 107.619 132.424 107.619 132.94C107.619 133.453 107.692 133.918 107.839 134.335C107.989 134.753 108.214 135.086 108.514 135.335C108.818 135.58 109.199 135.703 109.657 135.703Z" fill="#545454"/>
<path d="M115.463 137.131V125.883H117.451V130.09H117.534C117.636 129.885 117.781 129.667 117.968 129.436C118.154 129.202 118.407 129.002 118.726 128.837C119.044 128.669 119.451 128.585 119.945 128.585C120.597 128.585 121.184 128.751 121.708 129.085C122.235 129.414 122.653 129.903 122.96 130.551C123.271 131.195 123.427 131.986 123.427 132.924C123.427 133.85 123.275 134.637 122.971 135.285C122.667 135.933 122.253 136.428 121.73 136.768C121.206 137.109 120.613 137.279 119.95 137.279C119.467 137.279 119.066 137.198 118.748 137.037C118.429 136.876 118.173 136.682 117.979 136.455C117.788 136.224 117.64 136.007 117.534 135.802H117.419V137.131H115.463ZM117.413 132.913C117.413 133.458 117.49 133.936 117.644 134.346C117.801 134.756 118.026 135.077 118.319 135.307C118.616 135.534 118.975 135.648 119.396 135.648C119.835 135.648 120.203 135.531 120.5 135.296C120.796 135.058 121.02 134.734 121.17 134.324C121.323 133.91 121.4 133.44 121.4 132.913C121.4 132.389 121.325 131.924 121.175 131.518C121.025 131.111 120.802 130.793 120.505 130.562C120.209 130.331 119.839 130.216 119.396 130.216C118.971 130.216 118.61 130.328 118.314 130.551C118.017 130.774 117.792 131.087 117.638 131.49C117.488 131.893 117.413 132.367 117.413 132.913Z" fill="#545454"/>
<path d="M125.117 128.695H127.105V137.614C127.105 138.222 126.99 138.723 126.759 139.119C126.529 139.514 126.196 139.809 125.76 140.003C125.324 140.197 124.795 140.294 124.173 140.294C124.099 140.294 124.032 140.292 123.969 140.289C123.907 140.289 123.839 140.287 123.766 140.283V138.663C123.821 138.667 123.87 138.668 123.914 138.668C123.958 138.672 124.004 138.674 124.052 138.674C124.433 138.674 124.705 138.581 124.87 138.394C125.035 138.211 125.117 137.942 125.117 137.586V128.695ZM126.106 127.497C125.787 127.497 125.514 127.393 125.287 127.184C125.064 126.972 124.952 126.717 124.952 126.421C124.952 126.121 125.064 125.866 125.287 125.657C125.514 125.445 125.787 125.339 126.106 125.339C126.421 125.339 126.69 125.445 126.913 125.657C127.14 125.866 127.254 126.121 127.254 126.421C127.254 126.717 127.14 126.972 126.913 127.184C126.69 127.393 126.421 127.497 126.106 127.497Z" fill="#545454"/>
<path d="M132.885 137.295C132.039 137.295 131.308 137.12 130.693 136.768C130.082 136.413 129.611 135.911 129.282 135.263C128.952 134.612 128.787 133.844 128.787 132.962C128.787 132.094 128.952 131.333 129.282 130.677C129.615 130.018 130.08 129.506 130.677 129.139C131.274 128.77 131.975 128.585 132.78 128.585C133.3 128.585 133.791 128.669 134.252 128.837C134.717 129.002 135.127 129.258 135.482 129.606C135.841 129.954 136.123 130.397 136.328 130.935C136.533 131.47 136.636 132.107 136.636 132.847V133.456H129.721V132.116H134.73C134.726 131.735 134.644 131.397 134.483 131.1C134.322 130.8 134.097 130.564 133.807 130.392C133.522 130.22 133.188 130.134 132.808 130.134C132.401 130.134 132.044 130.232 131.737 130.43C131.429 130.624 131.189 130.881 131.017 131.199C130.849 131.514 130.763 131.86 130.759 132.237V133.407C130.759 133.898 130.849 134.319 131.028 134.67C131.208 135.018 131.458 135.285 131.781 135.472C132.103 135.655 132.48 135.747 132.912 135.747C133.201 135.747 133.463 135.706 133.697 135.626C133.932 135.542 134.135 135.419 134.307 135.258C134.479 135.097 134.609 134.897 134.697 134.659L136.553 134.868C136.436 135.358 136.213 135.787 135.883 136.153C135.557 136.516 135.14 136.797 134.631 136.999C134.122 137.197 133.54 137.295 132.885 137.295Z" fill="#545454"/>
<path d="M141.998 137.295C141.155 137.295 140.432 137.11 139.828 136.741C139.228 136.371 138.764 135.86 138.439 135.208C138.116 134.553 137.955 133.799 137.955 132.946C137.955 132.089 138.12 131.333 138.45 130.677C138.779 130.018 139.244 129.506 139.845 129.139C140.449 128.77 141.163 128.585 141.987 128.585C142.671 128.585 143.277 128.711 143.804 128.964C144.335 129.213 144.758 129.566 145.073 130.024C145.388 130.478 145.567 131.009 145.611 131.616H143.711C143.634 131.21 143.451 130.871 143.162 130.6C142.876 130.326 142.494 130.188 142.014 130.188C141.608 130.188 141.251 130.298 140.943 130.518C140.635 130.734 140.396 131.045 140.224 131.452C140.055 131.858 139.971 132.345 139.971 132.913C139.971 133.487 140.055 133.982 140.224 134.396C140.392 134.806 140.628 135.122 140.932 135.346C141.24 135.565 141.6 135.675 142.014 135.675C142.307 135.675 142.569 135.62 142.799 135.51C143.034 135.397 143.23 135.234 143.387 135.022C143.544 134.809 143.652 134.551 143.711 134.247H145.611C145.564 134.844 145.388 135.373 145.084 135.834C144.78 136.292 144.366 136.651 143.843 136.911C143.319 137.167 142.704 137.295 141.998 137.295Z" fill="#545454"/>
<path d="M151.456 128.695V130.232H146.607V128.695H151.456ZM147.804 126.673H149.792V134.593C149.792 134.861 149.833 135.066 149.913 135.208C149.997 135.347 150.107 135.443 150.243 135.494C150.378 135.545 150.528 135.571 150.693 135.571C150.818 135.571 150.931 135.562 151.034 135.543C151.14 135.525 151.22 135.509 151.275 135.494L151.61 137.048C151.504 137.085 151.352 137.125 151.154 137.169C150.96 137.213 150.722 137.239 150.44 137.246C149.942 137.261 149.494 137.186 149.095 137.021C148.696 136.852 148.379 136.592 148.145 136.241C147.914 135.889 147.8 135.45 147.804 134.923V126.673Z" fill="#545454"/>
<path d="M73.8543 22.1016L115.711 94.5987H31.998L73.8543 22.1016Z" fill="white"/>
<path fill-rule="evenodd" clip-rule="evenodd" d="M73.8543 22.1016L31.998 94.5987H115.711L73.8543 22.1016ZM73.8543 24.0348L33.6723 93.6321H114.036L73.8543 24.0348Z" fill="#AFAFAF"/>
<path d="M73.8531 34.668L104.827 88.3158H42.8795L73.8531 34.668Z" fill="#F6F6F6"/>
<path fill-rule="evenodd" clip-rule="evenodd" d="M73.8539 52.0674C74.9216 52.0674 75.7871 52.9329 75.7871 54.0006L75.7871 72.3666C75.7871 73.4343 74.9216 74.2998 73.8539 74.2998C72.7861 74.2998 71.9206 73.4343 71.9206 72.3666L71.9206 54.0006C71.9206 52.9329 72.7861 52.0674 73.8539 52.0674Z" fill="#AFAFAF"/>
<path fill-rule="evenodd" clip-rule="evenodd" d="M73.8539 78.166C74.9216 78.166 75.7871 78.8585 75.7871 79.7126L75.7871 80.4859C75.7871 81.3401 74.9216 82.0325 73.8539 82.0325C72.7861 82.0325 71.9206 81.3401 71.9206 80.4859L71.9206 79.7126C71.9206 78.8585 72.7861 78.166 73.8539 78.166Z" fill="#AFAFAF"/>
</svg>
