<svg width="135" height="40" fill="none" xmlns="http://www.w3.org/2000/svg"><path d="m36.35 11.89-.25-.26a.4.4 0 0 1 .27.27l-.02-.01Zm-.72 0a.38.38 0 0 1 .27-.26l-.25.26h-.02Zm5.1 4.38-3.35-3.36V12l-.01-.16 3.9 3.9a.38.38 0 0 1-.27.64.39.39 0 0 1-.27-.11ZM34.62 12v.91l-3.35 3.36a.38.38 0 0 1-.54 0 .38.38 0 0 1 0-.54l3.9-3.9-.01.17Zm1.76 1.33V25c0 .2-.17.38-.38.38a.38.38 0 0 1-.38-.38V13.33l.38-.38.38.38ZM28 29.38a.38.38 0 0 1-.38-.38c0-.21.17-.38.38-.38h16c.2 0 .38.17.38.38s-.17.38-.38.38H28Z" fill="#0F67F5" stroke="#0F67F5"/><path d="M64.53 14.36h2.1v7.6c0 .84-.19 1.57-.58 2.2a4 4 0 0 1-1.65 1.49c-.7.35-1.54.53-2.48.53-.95 0-1.78-.18-2.5-.53a4 4 0 0 1-1.64-1.49 4.1 4.1 0 0 1-.59-2.2v-7.6h2.11v7.43c0 .48.1.92.32 1.3.22.37.52.67.91.89a3 3 0 0 0 1.39.32c.53 0 1-.11 1.38-.32.4-.22.7-.52.91-.9.21-.37.32-.8.32-1.29v-7.43Zm4.3 14.91v-12h2.03v1.45h.12c.1-.22.26-.44.45-.68a2.46 2.46 0 0 1 2.04-.88 3.33 3.33 0 0 1 3.12 2.03c.33.67.49 1.49.49 2.46 0 .96-.16 1.77-.47 2.44a3.3 3.3 0 0 1-3.13 2.06 2.53 2.53 0 0 1-2.04-.85 3.9 3.9 0 0 1-.46-.67h-.09v4.64h-2.05Zm2.03-7.63c0 .56.07 1.06.23 1.48.17.42.4.75.7 1 .3.23.68.35 1.12.35.45 0 .83-.13 1.14-.37.3-.24.54-.58.7-1 .15-.43.23-.92.23-1.46 0-.55-.08-1.03-.23-1.45a2.17 2.17 0 0 0-.7-.99c-.3-.23-.69-.35-1.14-.35-.44 0-.82.11-1.12.34-.31.23-.54.56-.7.97-.16.42-.23.91-.23 1.48Zm10.03-7.28V26h-2.05V14.36h2.05Zm5.93 11.81c-.86 0-1.6-.19-2.22-.56a3.82 3.82 0 0 1-1.45-1.58 5.17 5.17 0 0 1-.52-2.36c0-.9.18-1.7.52-2.37.34-.68.83-1.2 1.45-1.58a4.23 4.23 0 0 1 2.22-.56c.85 0 1.59.19 2.21.56.63.38 1.11.9 1.45 1.58.35.68.52 1.47.52 2.37 0 .9-.17 1.69-.52 2.36-.34.68-.82 1.2-1.45 1.58-.62.37-1.36.56-2.21.56Zm0-1.65c.47 0 .86-.12 1.17-.38.3-.26.54-.6.69-1.03.16-.43.23-.91.23-1.45a4.1 4.1 0 0 0-.23-1.44 2.3 2.3 0 0 0-.7-1.04 1.7 1.7 0 0 0-1.15-.39c-.48 0-.87.13-1.18.39-.31.25-.55.6-.7 1.04-.15.43-.23.91-.23 1.44 0 .54.08 1.02.23 1.45.15.43.39.77.7 1.03.31.26.7.38 1.18.38Zm8.44 1.66c-.56 0-1.06-.1-1.5-.3-.44-.2-.79-.5-1.04-.89a2.6 2.6 0 0 1-.38-1.44 2.11 2.11 0 0 1 1.02-2c.3-.19.66-.33 1.05-.43.4-.1.81-.18 1.24-.22l1.24-.14c.32-.05.55-.12.7-.2.14-.1.22-.25.22-.45v-.03c0-.43-.13-.76-.38-1a1.6 1.6 0 0 0-1.1-.35c-.5 0-.9.11-1.2.33-.3.22-.49.48-.59.78l-1.92-.27a3.07 3.07 0 0 1 2.03-2.14 5.44 5.44 0 0 1 2.93-.13c.41.1.8.27 1.14.5.34.22.62.52.83.91.2.39.31.87.31 1.45V26H97.9v-1.2h-.07a2.51 2.51 0 0 1-1.39 1.2c-.33.12-.73.19-1.18.19Zm.53-1.52c.41 0 .77-.08 1.07-.24.3-.17.54-.39.7-.66.17-.27.25-.57.25-.9v-1.02a.97.97 0 0 1-.33.15l-.5.12a16.16 16.16 0 0 1-1.05.16c-.31.04-.59.1-.83.2s-.43.23-.57.4a.97.97 0 0 0-.21.65 1 1 0 0 0 .41.86c.28.19.63.28 1.06.28Zm9.38 1.5a3.3 3.3 0 0 1-1.84-.54 3.6 3.6 0 0 1-1.28-1.53 5.73 5.73 0 0 1-.48-2.44c0-.97.16-1.79.48-2.46a3.35 3.35 0 0 1 4.39-1.77c.33.17.59.38.78.62.2.24.34.46.45.68h.09v-4.36h2.06V26h-2.02v-1.38h-.13c-.1.22-.26.44-.46.68a2.54 2.54 0 0 1-2.04.85Zm.57-1.7c.44 0 .81-.11 1.12-.35.3-.23.54-.57.7-1 .16-.41.23-.9.23-1.47s-.07-1.06-.23-1.48a2.1 2.1 0 0 0-.7-.97 1.8 1.8 0 0 0-1.12-.34c-.45 0-.84.12-1.14.35-.31.24-.54.57-.7 1-.15.41-.23.9-.23 1.44 0 .54.08 1.03.23 1.46.16.42.4.76.7 1 .31.24.7.37 1.14.37Z" fill="#0F67F5"/><rect x=".5" y=".5" width="134" height="39" rx="3.5" stroke="#0F67F5"/></svg>