<svg width="217" height="195" fill="none" xmlns="http://www.w3.org/2000/svg"><rect width="59" height="11" rx="5.5" fill="#545454"/><rect x=".37" y="20.26" width="216.26" height="34.81" rx="2.59" fill="#fff"/><rect x="8.89" y="32.11" width="65.17" height="11.11" rx="5.55" fill="#CECECE"/><rect x=".37" y="20.26" width="216.26" height="34.81" rx="2.59" stroke="#545454" stroke-width=".74"/><rect y="79.19" width="57.03" height="11.11" rx="5.55" fill="#545454"/><rect x=".37" y="99.56" width="216.26" height="34.81" rx="2.59" fill="#fff"/><rect x="8.89" y="111.41" width="65.17" height="11.11" rx="5.55" fill="#CECECE"/><rect x=".37" y="99.56" width="216.26" height="34.81" rx="2.59" stroke="#545454" stroke-width=".74"/><path d="M0 161.45a2.96 2.96 0 0 1 2.96-2.96h106.65a2.96 2.96 0 0 1 2.96 2.96v29.63a2.96 2.96 0 0 1-2.96 2.96H2.96A2.96 2.96 0 0 1 0 191.08v-29.63Z" fill="#545454"/><rect x="23.7" y="170.71" width="65.17" height="11.11" rx="5.55" fill="#fff"/></svg>