<svg width="108" height="26" fill="none" xmlns="http://www.w3.org/2000/svg"><path d="M.85 20V.4h3.7v8.1h7.27V.4h3.7V20h-3.7v-8.15H4.54V20H.84Zm24.81.4a7.5 7.5 0 0 1-3.66-.88 6.45 6.45 0 0 1-2.47-2.49 7.96 7.96 0 0 1-.87-3.8v-.34c0-1.46.3-2.72.87-3.78a6.03 6.03 0 0 1 2.44-2.5 7.2 7.2 0 0 1 3.64-.89c1.36 0 2.55.3 3.55.92 1.01.6 1.8 1.44 2.36 2.52a7.9 7.9 0 0 1 .83 3.73v1.2h-10.1c.03.95.39 1.73 1.06 2.33.67.6 1.5.9 2.46.9 1 0 1.72-.22 2.19-.65.47-.43.82-.9 1.06-1.43l2.89 1.51a9 9 0 0 1-1.15 1.6 6.25 6.25 0 0 1-1.96 1.45c-.82.4-1.87.6-3.14.6Zm-3.39-8.94h6.5c-.07-.8-.4-1.45-.98-1.93a3.26 3.26 0 0 0-2.21-.73c-.95 0-1.7.24-2.27.73-.56.48-.9 1.13-1.04 1.93Zm17.54 8.93a6.7 6.7 0 0 1-2.66-.5 4.56 4.56 0 0 1-1.88-1.51 4.3 4.3 0 0 1-.67-2.44 4 4 0 0 1 .67-2.38 4.15 4.15 0 0 1 1.9-1.46c.83-.33 1.76-.5 2.8-.5h3.81v-.78c0-.66-.2-1.19-.61-1.6-.41-.43-1.07-.64-1.96-.64-.88 0-1.53.2-1.96.61-.43.4-.71.9-.84 1.54l-3.25-1.09a5.29 5.29 0 0 1 3.05-3.36 7.49 7.49 0 0 1 3.05-.56c1.83 0 3.28.46 4.34 1.37 1.07.92 1.6 2.24 1.6 3.98v5.18c0 .56.26.84.78.84h1.12V20h-2.35c-.69 0-1.26-.17-1.7-.5a1.6 1.6 0 0 1-.68-1.35v-.03h-.53c-.08.23-.24.53-.5.9-.27.35-.68.67-1.24.95a5.2 5.2 0 0 1-2.3.42Zm.61-2.85c1 0 1.8-.27 2.41-.82.64-.56.95-1.3.95-2.2v-.29h-3.55a2.5 2.5 0 0 0-1.54.42c-.38.28-.56.67-.56 1.18 0 .5.2.91.59 1.23.39.32.96.48 1.7.48Zm16.59 2.85c-1.1 0-2.14-.27-3.1-.81a6.16 6.16 0 0 1-2.3-2.44 7.99 7.99 0 0 1-.87-3.86v-.45c0-1.51.29-2.8.87-3.86A6.02 6.02 0 0 1 57 5.72c.84 0 1.54.1 2.1.3.58.2 1.04.44 1.4.74.35.3.62.61.81.95h.5V.4h3.53V20h-3.47v-1.68h-.5c-.32.52-.81 1-1.49 1.43-.65.43-1.61.64-2.88.64Zm1.06-3.08a3.8 3.8 0 0 0 2.72-1.03c.73-.71 1.1-1.74 1.1-3.08v-.28c0-1.35-.37-2.37-1.1-3.06a3.68 3.68 0 0 0-2.72-1.06c-1.08 0-1.98.35-2.71 1.06-.73.7-1.1 1.71-1.1 3.06v.28c0 1.34.37 2.37 1.1 3.08a3.8 3.8 0 0 0 2.71 1.03ZM69.27 20V6.11h3.52V20h-3.53Zm1.76-15.51c-.64 0-1.18-.2-1.63-.62a2.14 2.14 0 0 1-.64-1.62A2.14 2.14 0 0 1 71.03 0a2.14 2.14 0 0 1 2.27 2.24 2.14 2.14 0 0 1-2.27 2.24ZM76.7 20V6.11h3.47v1.82h.5c.23-.48.65-.94 1.27-1.37a4.76 4.76 0 0 1 2.8-.67 5.2 5.2 0 0 1 4.73 2.8c.45.86.67 1.86.67 3.02V20h-3.53v-8c0-1.05-.26-1.84-.78-2.36-.5-.52-1.23-.78-2.18-.78-1.09 0-1.93.36-2.52 1.09-.6.7-.9 1.7-.9 3V20H76.7Zm16.58-6.89v-.45c0-1.45.3-2.7.87-3.72a6 6 0 0 1 2.3-2.38 6.22 6.22 0 0 1 3.16-.84 5.1 5.1 0 0 1 2.89.67c.65.45 1.13.92 1.42 1.4h.5V6.11h3.48v16.35c0 .96-.28 1.71-.84 2.27-.56.58-1.3.87-2.24.87h-9.3v-3.08h8.07c.52 0 .78-.28.78-.84v-3.61h-.5a4.16 4.16 0 0 1-2.13 1.68c-.56.2-1.27.3-2.13.3-1.14 0-2.2-.26-3.16-.8a6.26 6.26 0 0 1-2.3-2.39 7.63 7.63 0 0 1-.87-3.75Zm7.34 3.87a3.8 3.8 0 0 0 2.72-1.04 3.86 3.86 0 0 0 1.09-2.91v-.28c0-1.27-.37-2.24-1.1-2.91a3.73 3.73 0 0 0-2.71-1.04 3.8 3.8 0 0 0-2.72 1.04c-.72.67-1.09 1.64-1.09 2.9v.29c0 1.25.37 2.22 1.1 2.91a3.8 3.8 0 0 0 2.71 1.04Z" fill="#000"/></svg>