<svg width="168" height="16" viewBox="0 0 168 16" fill="none" xmlns="http://www.w3.org/2000/svg">
<path fill-rule="evenodd" clip-rule="evenodd" d="M8.50062 6.33291C8.68471 6.33291 8.83395 6.48215 8.83395 6.66625V8.66625C8.83395 8.85034 8.68471 8.99958 8.50062 8.99958C8.31653 8.99958 8.16729 8.85034 8.16729 8.66625V6.66625C8.16729 6.48215 8.31653 6.33291 8.50062 6.33291Z" fill="#F76808"/>
<path fill-rule="evenodd" clip-rule="evenodd" d="M8.50062 11.3329C8.86881 11.3329 9.16729 11.0344 9.16729 10.6662C9.16729 10.2981 8.86881 9.99958 8.50062 9.99958C8.13243 9.99958 7.83395 10.2981 7.83395 10.6662C7.83395 11.0344 8.13243 11.3329 8.50062 11.3329Z" fill="#F76808"/>
<path fill-rule="evenodd" clip-rule="evenodd" d="M7.63869 2.80743C8.02534 2.15013 8.9759 2.15013 9.36255 2.80743L14.8636 12.1592C15.2557 12.8259 14.7751 13.6662 14.0017 13.6662H2.99956C2.22615 13.6662 1.74549 12.8259 2.13763 12.1592L7.63869 2.80743ZM8.78793 3.14545C8.65905 2.92634 8.34219 2.92634 8.21331 3.14545L2.71225 12.4972C2.58154 12.7195 2.74176 12.9996 2.99956 12.9996H14.0017C14.2595 12.9996 14.4197 12.7195 14.289 12.4972L8.78793 3.14545Z" fill="#F76808"/>
<path d="M28.875 13H25.733V2.81818H29.0142C30.0019 2.81818 30.8471 3.02202 31.5497 3.42969C32.2524 3.83404 32.791 4.41572 33.1655 5.17472C33.54 5.9304 33.7273 6.83523 33.7273 7.8892C33.7273 8.94981 33.5384 9.86293 33.1605 10.6286C32.7827 11.3909 32.2325 11.9775 31.5099 12.3885C30.7874 12.7962 29.9091 13 28.875 13ZM26.9659 11.9062H28.7955C29.6373 11.9062 30.335 11.7438 30.8885 11.419C31.442 11.0942 31.8546 10.6319 32.1264 10.032C32.3982 9.43205 32.5341 8.7178 32.5341 7.8892C32.5341 7.06723 32.3999 6.35961 32.1314 5.76633C31.8629 5.16974 31.4619 4.71236 30.9283 4.39418C30.3946 4.07268 29.7301 3.91193 28.9347 3.91193H26.9659V11.9062ZM37.8835 13.179C37.3996 13.179 36.9605 13.0878 36.5661 12.9055C36.1716 12.7199 35.8584 12.4531 35.6264 12.1051C35.3944 11.7538 35.2784 11.3295 35.2784 10.8324C35.2784 10.3949 35.3646 10.0402 35.5369 9.76847C35.7093 9.49337 35.9396 9.27794 36.228 9.12216C36.5163 8.96638 36.8345 8.85038 37.1825 8.77415C37.5339 8.6946 37.8868 8.63163 38.2415 8.58523C38.7055 8.52557 39.0817 8.48082 39.37 8.45099C39.6617 8.41785 39.8738 8.36316 40.0064 8.28693C40.1423 8.2107 40.2102 8.07812 40.2102 7.8892V7.84943C40.2102 7.3589 40.076 6.97775 39.8075 6.70597C39.5424 6.43419 39.1397 6.2983 38.5994 6.2983C38.0393 6.2983 37.6001 6.42093 37.282 6.66619C36.9638 6.91146 36.7401 7.1733 36.6108 7.4517L35.4972 7.05398C35.696 6.58996 35.9612 6.22869 36.2926 5.97017C36.6274 5.70833 36.992 5.52604 37.3864 5.4233C37.7841 5.31723 38.1752 5.2642 38.5597 5.2642C38.8049 5.2642 39.0866 5.29403 39.4048 5.35369C39.7263 5.41004 40.0362 5.5277 40.3345 5.70668C40.6361 5.88565 40.8864 6.15578 41.0852 6.51705C41.2841 6.87831 41.3835 7.36222 41.3835 7.96875V13H40.2102V11.9659H40.1506C40.071 12.1316 39.9384 12.3089 39.7528 12.4979C39.5672 12.6868 39.3203 12.8475 39.0121 12.9801C38.7038 13.1127 38.3277 13.179 37.8835 13.179ZM38.0625 12.125C38.5265 12.125 38.9176 12.0339 39.2358 11.8516C39.5573 11.6693 39.7992 11.4339 39.9616 11.1456C40.1274 10.8572 40.2102 10.554 40.2102 10.2358V9.16193C40.1605 9.22159 40.0511 9.27628 39.8821 9.32599C39.7164 9.3724 39.5241 9.41383 39.3054 9.45028C39.09 9.48343 38.8795 9.51326 38.674 9.53977C38.4718 9.56297 38.3078 9.58286 38.1818 9.59943C37.8769 9.6392 37.5919 9.70384 37.3267 9.79332C37.0649 9.8795 36.8527 10.0104 36.6903 10.1861C36.5313 10.3584 36.4517 10.5937 36.4517 10.892C36.4517 11.2997 36.6025 11.608 36.9041 11.8168C37.209 12.0223 37.5952 12.125 38.0625 12.125ZM46.8461 5.36364V6.35795H42.8887V5.36364H46.8461ZM44.0421 3.53409H45.2154V10.8125C45.2154 11.1439 45.2634 11.3925 45.3596 11.5582C45.459 11.7206 45.5849 11.83 45.7374 11.8864C45.8932 11.9394 46.0572 11.9659 46.2296 11.9659C46.3588 11.9659 46.4649 11.9593 46.5478 11.946C46.6306 11.9295 46.6969 11.9162 46.7466 11.9062L46.9853 12.9602C46.9057 12.9901 46.7947 13.0199 46.6522 13.0497C46.5096 13.0829 46.329 13.0994 46.1103 13.0994C45.7788 13.0994 45.454 13.0282 45.1358 12.8857C44.821 12.7431 44.5591 12.526 44.3503 12.2344C44.1448 11.9427 44.0421 11.5748 44.0421 11.1307V3.53409ZM50.8581 13.179C50.3742 13.179 49.9351 13.0878 49.5407 12.9055C49.1462 12.7199 48.833 12.4531 48.601 12.1051C48.369 11.7538 48.253 11.3295 48.253 10.8324C48.253 10.3949 48.3392 10.0402 48.5115 9.76847C48.6839 9.49337 48.9142 9.27794 49.2026 9.12216C49.4909 8.96638 49.8091 8.85038 50.1571 8.77415C50.5085 8.6946 50.8614 8.63163 51.2161 8.58523C51.6801 8.52557 52.0563 8.48082 52.3446 8.45099C52.6363 8.41785 52.8484 8.36316 52.981 8.28693C53.1169 8.2107 53.1848 8.07812 53.1848 7.8892V7.84943C53.1848 7.3589 53.0506 6.97775 52.7821 6.70597C52.517 6.43419 52.1143 6.2983 51.574 6.2983C51.0139 6.2983 50.5748 6.42093 50.2566 6.66619C49.9384 6.91146 49.7147 7.1733 49.5854 7.4517L48.4718 7.05398C48.6706 6.58996 48.9358 6.22869 49.2672 5.97017C49.602 5.70833 49.9666 5.52604 50.361 5.4233C50.7587 5.31723 51.1498 5.2642 51.5343 5.2642C51.7795 5.2642 52.0613 5.29403 52.3794 5.35369C52.7009 5.41004 53.0108 5.5277 53.3091 5.70668C53.6107 5.88565 53.861 6.15578 54.0598 6.51705C54.2587 6.87831 54.3581 7.36222 54.3581 7.96875V13H53.1848V11.9659H53.1252C53.0456 12.1316 52.9131 12.3089 52.7275 12.4979C52.5418 12.6868 52.2949 12.8475 51.9867 12.9801C51.6784 13.1127 51.3023 13.179 50.8581 13.179ZM51.0371 12.125C51.5011 12.125 51.8922 12.0339 52.2104 11.8516C52.5319 11.6693 52.7739 11.4339 52.9363 11.1456C53.102 10.8572 53.1848 10.554 53.1848 10.2358V9.16193C53.1351 9.22159 53.0257 9.27628 52.8567 9.32599C52.691 9.3724 52.4988 9.41383 52.28 9.45028C52.0646 9.48343 51.8541 9.51326 51.6486 9.53977C51.4464 9.56297 51.2824 9.58286 51.1564 9.59943C50.8515 9.6392 50.5665 9.70384 50.3013 9.79332C50.0395 9.8795 49.8274 10.0104 49.665 10.1861C49.5059 10.3584 49.4263 10.5937 49.4263 10.892C49.4263 11.2997 49.5771 11.608 49.8787 11.8168C50.1837 12.0223 50.5698 12.125 51.0371 12.125ZM60.4371 13V5.36364H61.6104V13H60.4371ZM61.0337 4.09091C60.805 4.09091 60.6078 4.01302 60.4421 3.85724C60.2797 3.70147 60.1985 3.5142 60.1985 3.29545C60.1985 3.0767 60.2797 2.88944 60.4421 2.73366C60.6078 2.57789 60.805 2.5 61.0337 2.5C61.2624 2.5 61.458 2.57789 61.6204 2.73366C61.7861 2.88944 61.869 3.0767 61.869 3.29545C61.869 3.5142 61.7861 3.70147 61.6204 3.85724C61.458 4.01302 61.2624 4.09091 61.0337 4.09091ZM69.1685 7.07386L68.1145 7.37216C68.0482 7.1965 67.9505 7.0258 67.8212 6.86009C67.6953 6.69105 67.5229 6.55185 67.3042 6.44247C67.0854 6.3331 66.8053 6.27841 66.464 6.27841C65.9966 6.27841 65.6072 6.38613 65.2956 6.60156C64.9874 6.81368 64.8333 7.08381 64.8333 7.41193C64.8333 7.7036 64.9393 7.93395 65.1515 8.10298C65.3636 8.27202 65.695 8.41288 66.1458 8.52557L67.2793 8.80398C67.9621 8.9697 68.4708 9.22325 68.8056 9.56463C69.1403 9.9027 69.3077 10.3385 69.3077 10.8722C69.3077 11.3097 69.1818 11.7008 68.9299 12.0455C68.6813 12.3902 68.3333 12.6619 67.8858 12.8608C67.4384 13.0597 66.918 13.1591 66.3248 13.1591C65.5459 13.1591 64.9012 12.9901 64.3908 12.652C63.8804 12.3139 63.5572 11.8201 63.4213 11.1705L64.535 10.892C64.641 11.303 64.8416 11.6113 65.1365 11.8168C65.4348 12.0223 65.8243 12.125 66.3049 12.125C66.8517 12.125 67.2859 12.009 67.6074 11.777C67.9322 11.5417 68.0946 11.2599 68.0946 10.9318C68.0946 10.6667 68.0018 10.4446 67.8162 10.2656C67.6306 10.0833 67.3456 9.94744 66.9611 9.85795L65.6884 9.55966C64.9891 9.39394 64.4753 9.13707 64.1472 8.78906C63.8224 8.43774 63.66 7.99858 63.66 7.47159C63.66 7.04072 63.781 6.65956 64.0229 6.32812C64.2682 5.99669 64.6013 5.73651 65.0222 5.54758C65.4464 5.35866 65.927 5.2642 66.464 5.2642C67.2196 5.2642 67.8129 5.42992 68.2438 5.76136C68.678 6.0928 68.9862 6.5303 69.1685 7.07386ZM76.1847 8.40625V13H75.0114V5.36364H76.1449V6.55682H76.2443C76.4233 6.16903 76.6951 5.85748 77.0597 5.62216C77.4242 5.38352 77.8949 5.2642 78.4716 5.2642C78.9886 5.2642 79.4411 5.37027 79.8288 5.58239C80.2166 5.79119 80.5182 6.10938 80.7337 6.53693C80.9491 6.96117 81.0568 7.49811 81.0568 8.14773V13H79.8835V8.22727C79.8835 7.62737 79.7277 7.16004 79.4162 6.82528C79.1046 6.48722 78.6771 6.31818 78.1335 6.31818C77.759 6.31818 77.4242 6.39938 77.1293 6.56179C76.8376 6.72419 76.6072 6.96117 76.4382 7.27273C76.2692 7.58428 76.1847 7.96212 76.1847 8.40625ZM86.3031 13.1591C85.6137 13.1591 85.0088 12.995 84.4885 12.6669C83.9714 12.3388 83.5671 11.8797 83.2754 11.2898C82.987 10.6998 82.8429 10.0104 82.8429 9.22159C82.8429 8.42614 82.987 7.73177 83.2754 7.13849C83.5671 6.54522 83.9714 6.08452 84.4885 5.75639C85.0088 5.42827 85.6137 5.2642 86.3031 5.2642C86.9925 5.2642 87.5957 5.42827 88.1127 5.75639C88.6331 6.08452 89.0375 6.54522 89.3258 7.13849C89.6175 7.73177 89.7633 8.42614 89.7633 9.22159C89.7633 10.0104 89.6175 10.6998 89.3258 11.2898C89.0375 11.8797 88.6331 12.3388 88.1127 12.6669C87.5957 12.995 86.9925 13.1591 86.3031 13.1591ZM86.3031 12.1051C86.8268 12.1051 87.2576 11.9709 87.5957 11.7024C87.9338 11.4339 88.184 11.081 88.3464 10.6435C88.5088 10.206 88.59 9.73201 88.59 9.22159C88.59 8.71117 88.5088 8.23556 88.3464 7.79474C88.184 7.35393 87.9338 6.99763 87.5957 6.72585C87.2576 6.45407 86.8268 6.31818 86.3031 6.31818C85.7794 6.31818 85.3485 6.45407 85.0105 6.72585C84.6724 6.99763 84.4222 7.35393 84.2598 7.79474C84.0974 8.23556 84.0162 8.71117 84.0162 9.22159C84.0162 9.73201 84.0974 10.206 84.2598 10.6435C84.4222 11.081 84.6724 11.4339 85.0105 11.7024C85.3485 11.9709 85.7794 12.1051 86.3031 12.1051ZM94.8754 5.36364V6.35795H90.918V5.36364H94.8754ZM92.0714 3.53409H93.2447V10.8125C93.2447 11.1439 93.2927 11.3925 93.3888 11.5582C93.4883 11.7206 93.6142 11.83 93.7667 11.8864C93.9225 11.9394 94.0865 11.9659 94.2589 11.9659C94.3881 11.9659 94.4942 11.9593 94.5771 11.946C94.6599 11.9295 94.7262 11.9162 94.7759 11.9062L95.0146 12.9602C94.935 12.9901 94.824 13.0199 94.6815 13.0497C94.5389 13.0829 94.3583 13.0994 94.1396 13.0994C93.8081 13.0994 93.4833 13.0282 93.1651 12.8857C92.8503 12.7431 92.5884 12.526 92.3796 12.2344C92.1741 11.9427 92.0714 11.5748 92.0714 11.1307V3.53409ZM105.39 9.87784V5.36364H106.564V13H105.39V11.7074H105.311C105.132 12.0952 104.853 12.425 104.475 12.6967C104.098 12.9652 103.62 13.0994 103.044 13.0994C102.566 13.0994 102.142 12.995 101.771 12.7862C101.4 12.5741 101.108 12.2559 100.896 11.8317C100.684 11.4041 100.578 10.8655 100.578 10.2159V5.36364H101.751V10.1364C101.751 10.6932 101.907 11.1373 102.218 11.4688C102.533 11.8002 102.934 11.9659 103.422 11.9659C103.713 11.9659 104.01 11.8913 104.311 11.7422C104.616 11.593 104.872 11.3643 105.077 11.0561C105.286 10.7479 105.39 10.3551 105.39 9.87784ZM108.713 15.8636V5.36364H109.846V6.5767H109.985C110.071 6.44413 110.191 6.27509 110.343 6.0696C110.499 5.8608 110.721 5.67519 111.009 5.51278C111.301 5.34706 111.695 5.2642 112.193 5.2642C112.836 5.2642 113.402 5.42495 113.893 5.74645C114.383 6.06794 114.766 6.52367 115.041 7.11364C115.316 7.7036 115.454 8.39962 115.454 9.2017C115.454 10.0104 115.316 10.7114 115.041 11.3047C114.766 11.8946 114.385 12.352 113.898 12.6768C113.411 12.9983 112.849 13.1591 112.213 13.1591C111.722 13.1591 111.329 13.0779 111.034 12.9155C110.739 12.7498 110.512 12.5625 110.353 12.3537C110.194 12.1416 110.071 11.9659 109.985 11.8267H109.886V15.8636H108.713ZM109.866 9.18182C109.866 9.75852 109.95 10.2673 110.119 10.7081C110.289 11.1456 110.535 11.4886 110.86 11.7372C111.185 11.9825 111.583 12.1051 112.053 12.1051C112.544 12.1051 112.953 11.9759 113.281 11.7173C113.613 11.4555 113.861 11.1042 114.027 10.6634C114.196 10.2192 114.281 9.72538 114.281 9.18182C114.281 8.64489 114.198 8.16098 114.032 7.73011C113.87 7.29593 113.623 6.95289 113.291 6.70099C112.963 6.44579 112.551 6.31818 112.053 6.31818C111.576 6.31818 111.175 6.43916 110.85 6.68111C110.526 6.91974 110.28 7.2545 110.115 7.68537C109.949 8.11293 109.866 8.61174 109.866 9.18182ZM124.502 5.36364V6.35795H120.545V5.36364H124.502ZM121.698 3.53409H122.872V10.8125C122.872 11.1439 122.92 11.3925 123.016 11.5582C123.115 11.7206 123.241 11.83 123.394 11.8864C123.549 11.9394 123.713 11.9659 123.886 11.9659C124.015 11.9659 124.121 11.9593 124.204 11.946C124.287 11.9295 124.353 11.9162 124.403 11.9062L124.642 12.9602C124.562 12.9901 124.451 13.0199 124.308 13.0497C124.166 13.0829 123.985 13.0994 123.767 13.0994C123.435 13.0994 123.11 13.0282 122.792 12.8857C122.477 12.7431 122.215 12.526 122.007 12.2344C121.801 11.9427 121.698 11.5748 121.698 11.1307V3.53409ZM129.287 13.1591C128.598 13.1591 127.993 12.995 127.473 12.6669C126.956 12.3388 126.551 11.8797 126.26 11.2898C125.971 10.6998 125.827 10.0104 125.827 9.22159C125.827 8.42614 125.971 7.73177 126.26 7.13849C126.551 6.54522 126.956 6.08452 127.473 5.75639C127.993 5.42827 128.598 5.2642 129.287 5.2642C129.977 5.2642 130.58 5.42827 131.097 5.75639C131.617 6.08452 132.022 6.54522 132.31 7.13849C132.602 7.73177 132.748 8.42614 132.748 9.22159C132.748 10.0104 132.602 10.6998 132.31 11.2898C132.022 11.8797 131.617 12.3388 131.097 12.6669C130.58 12.995 129.977 13.1591 129.287 13.1591ZM129.287 12.1051C129.811 12.1051 130.242 11.9709 130.58 11.7024C130.918 11.4339 131.168 11.081 131.331 10.6435C131.493 10.206 131.574 9.73201 131.574 9.22159C131.574 8.71117 131.493 8.23556 131.331 7.79474C131.168 7.35393 130.918 6.99763 130.58 6.72585C130.242 6.45407 129.811 6.31818 129.287 6.31818C128.764 6.31818 128.333 6.45407 127.995 6.72585C127.657 6.99763 127.407 7.35393 127.244 7.79474C127.082 8.23556 127.001 8.71117 127.001 9.22159C127.001 9.73201 127.082 10.206 127.244 10.6435C127.407 11.081 127.657 11.4339 127.995 11.7024C128.333 11.9709 128.764 12.1051 129.287 12.1051ZM141.36 13.1591C140.723 13.1591 140.162 12.9983 139.674 12.6768C139.187 12.352 138.806 11.8946 138.531 11.3047C138.256 10.7114 138.118 10.0104 138.118 9.2017C138.118 8.39962 138.256 7.7036 138.531 7.11364C138.806 6.52367 139.189 6.06794 139.679 5.74645C140.17 5.42495 140.737 5.2642 141.38 5.2642C141.877 5.2642 142.27 5.34706 142.558 5.51278C142.85 5.67519 143.072 5.8608 143.224 6.0696C143.38 6.27509 143.501 6.44413 143.587 6.5767H143.686V2.81818H144.86V13H143.726V11.8267H143.587C143.501 11.9659 143.378 12.1416 143.219 12.3537C143.06 12.5625 142.833 12.7498 142.538 12.9155C142.243 13.0779 141.85 13.1591 141.36 13.1591ZM141.519 12.1051C141.989 12.1051 142.387 11.9825 142.712 11.7372C143.037 11.4886 143.284 11.1456 143.453 10.7081C143.622 10.2673 143.706 9.75852 143.706 9.18182C143.706 8.61174 143.623 8.11293 143.458 7.68537C143.292 7.2545 143.047 6.91974 142.722 6.68111C142.397 6.43916 141.996 6.31818 141.519 6.31818C141.022 6.31818 140.607 6.44579 140.276 6.70099C139.948 6.95289 139.701 7.29593 139.535 7.73011C139.373 8.16098 139.292 8.64489 139.292 9.18182C139.292 9.72538 139.374 10.2192 139.54 10.6634C139.709 11.1042 139.958 11.4555 140.286 11.7173C140.617 11.9759 141.028 12.1051 141.519 12.1051ZM149.419 13.179C148.935 13.179 148.496 13.0878 148.101 12.9055C147.707 12.7199 147.394 12.4531 147.162 12.1051C146.93 11.7538 146.814 11.3295 146.814 10.8324C146.814 10.3949 146.9 10.0402 147.072 9.76847C147.244 9.49337 147.475 9.27794 147.763 9.12216C148.051 8.96638 148.37 8.85038 148.718 8.77415C149.069 8.6946 149.422 8.63163 149.777 8.58523C150.241 8.52557 150.617 8.48082 150.905 8.45099C151.197 8.41785 151.409 8.36316 151.542 8.28693C151.677 8.2107 151.745 8.07812 151.745 7.8892V7.84943C151.745 7.3589 151.611 6.97775 151.343 6.70597C151.078 6.43419 150.675 6.2983 150.135 6.2983C149.574 6.2983 149.135 6.42093 148.817 6.66619C148.499 6.91146 148.275 7.1733 148.146 7.4517L147.032 7.05398C147.231 6.58996 147.496 6.22869 147.828 5.97017C148.163 5.70833 148.527 5.52604 148.922 5.4233C149.319 5.31723 149.71 5.2642 150.095 5.2642C150.34 5.2642 150.622 5.29403 150.94 5.35369C151.261 5.41004 151.571 5.5277 151.87 5.70668C152.171 5.88565 152.422 6.15578 152.62 6.51705C152.819 6.87831 152.919 7.36222 152.919 7.96875V13H151.745V11.9659H151.686C151.606 12.1316 151.474 12.3089 151.288 12.4979C151.102 12.6868 150.855 12.8475 150.547 12.9801C150.239 13.1127 149.863 13.179 149.419 13.179ZM149.598 12.125C150.062 12.125 150.453 12.0339 150.771 11.8516C151.092 11.6693 151.334 11.4339 151.497 11.1456C151.663 10.8572 151.745 10.554 151.745 10.2358V9.16193C151.696 9.22159 151.586 9.27628 151.417 9.32599C151.252 9.3724 151.059 9.41383 150.841 9.45028C150.625 9.48343 150.415 9.51326 150.209 9.53977C150.007 9.56297 149.843 9.58286 149.717 9.59943C149.412 9.6392 149.127 9.70384 148.862 9.79332C148.6 9.8795 148.388 10.0104 148.225 10.1861C148.066 10.3584 147.987 10.5937 147.987 10.892C147.987 11.2997 148.138 11.608 148.439 11.8168C148.744 12.0223 149.13 12.125 149.598 12.125ZM158.381 5.36364V6.35795H154.424V5.36364H158.381ZM155.577 3.53409H156.751V10.8125C156.751 11.1439 156.799 11.3925 156.895 11.5582C156.994 11.7206 157.12 11.83 157.273 11.8864C157.428 11.9394 157.592 11.9659 157.765 11.9659C157.894 11.9659 158 11.9593 158.083 11.946C158.166 11.9295 158.232 11.9162 158.282 11.9062L158.52 12.9602C158.441 12.9901 158.33 13.0199 158.187 13.0497C158.045 13.0829 157.864 13.0994 157.645 13.0994C157.314 13.0994 156.989 13.0282 156.671 12.8857C156.356 12.7431 156.094 12.526 155.885 12.2344C155.68 11.9427 155.577 11.5748 155.577 11.1307V3.53409ZM163.266 13.1591C162.53 13.1591 161.895 12.9967 161.362 12.6719C160.831 12.3438 160.422 11.8864 160.134 11.2997C159.849 10.7098 159.706 10.0237 159.706 9.24148C159.706 8.45928 159.849 7.76989 160.134 7.1733C160.422 6.57339 160.823 6.10606 161.337 5.77131C161.854 5.43324 162.457 5.2642 163.146 5.2642C163.544 5.2642 163.937 5.33049 164.325 5.46307C164.713 5.59564 165.066 5.81108 165.384 6.10938C165.702 6.40436 165.955 6.79545 166.144 7.28267C166.333 7.76989 166.428 8.36979 166.428 9.08239V9.57955H160.541V8.56534H165.235C165.235 8.13447 165.148 7.75 164.976 7.41193C164.807 7.07386 164.565 6.80705 164.25 6.61151C163.939 6.41596 163.571 6.31818 163.146 6.31818C162.679 6.31818 162.275 6.43419 161.933 6.66619C161.595 6.89489 161.335 7.19318 161.153 7.56108C160.971 7.92898 160.879 8.32339 160.879 8.74432V9.42045C160.879 9.99716 160.979 10.486 161.178 10.8871C161.38 11.2848 161.66 11.5881 162.018 11.7969C162.376 12.0024 162.792 12.1051 163.266 12.1051C163.574 12.1051 163.852 12.062 164.101 11.9759C164.353 11.8864 164.57 11.7538 164.752 11.5781C164.935 11.3991 165.075 11.1771 165.175 10.9119L166.308 11.2301C166.189 11.6146 165.989 11.9527 165.707 12.2443C165.425 12.5327 165.077 12.758 164.663 12.9205C164.249 13.0795 163.783 13.1591 163.266 13.1591Z" fill="#BD4B00"/>
</svg>
