<svg width="268" height="36" fill="none" xmlns="http://www.w3.org/2000/svg"><path fill-rule="evenodd" clip-rule="evenodd" d="M8.5 10.33c.18 0 .33.15.33.34v2a.33.33 0 1 1-.66 0v-2c0-.19.15-.34.33-.34Zm0 5a.67.67 0 1 0 0-1.33.67.67 0 0 0 0 1.33Z" fill="#F76808"/><path fill-rule="evenodd" clip-rule="evenodd" d="M7.64 6.8a1 1 0 0 1 1.72 0l5.5 9.36a1 1 0 0 1-.86 1.5H3a1 1 0 0 1-.86-1.5l5.5-9.35Zm1.15.35a.33.33 0 0 0-.58 0l-5.5 9.35c-.13.22.03.5.29.5h11c.26 0 .42-.28.29-.5l-5.5-9.35Z" fill="#F76808"/><path d="M26.15 11h-1.3L28.6.82h1.27L33.6 11h-1.3l-3.04-8.57h-.08L26.15 11Zm.48-3.98h5.2v1.1h-5.2v-1.1Zm8.4 3.98V3.36h1.14v1.16h.08c.14-.38.39-.69.75-.92.37-.24.78-.36 1.24-.36a12.98 12.98 0 0 1 .61.02v1.2a3.48 3.48 0 0 0-.71-.08c-.37 0-.7.08-1 .23a1.72 1.72 0 0 0-.93 1.56V11h-1.18Zm8.18.16a3.27 3.27 0 0 1-3.13-1.86 4.68 4.68 0 0 1-.43-2.06c0-.78.15-1.47.43-2.07a3.23 3.23 0 0 1 3.01-1.9c.4 0 .8.06 1.18.2a2.92 2.92 0 0 1 1.82 1.81 5 5 0 0 1 .28 1.8v.5H40.5V6.57h4.7c0-.44-.1-.82-.27-1.16a1.95 1.95 0 0 0-1.83-1.1 2 2 0 0 0-1.2.36c-.35.22-.6.52-.79.9-.18.36-.27.75-.27 1.17v.68c0 .58.1 1.07.3 1.47.2.4.48.7.84.9.35.21.77.32 1.24.32.31 0 .59-.05.84-.13.25-.1.47-.23.65-.4.18-.18.32-.4.42-.67l1.14.32c-.12.38-.32.72-.6 1.01-.29.3-.64.52-1.05.68-.41.16-.88.24-1.4.24Zm9.64 2.7a2.57 2.57 0 0 1-.85-.14l.3-1.03c.28.07.53.1.75.08a.9.9 0 0 0 .58-.3c.18-.17.33-.45.48-.83l.21-.6-2.82-7.68h1.27l2.11 6.09h.08l2.1-6.09h1.28l-3.24 8.75c-.15.4-.33.72-.54.98-.22.26-.47.46-.75.58-.28.13-.6.2-.96.2Zm9.87-2.7c-.69 0-1.3-.17-1.82-.5a3.34 3.34 0 0 1-1.2-1.37 4.66 4.66 0 0 1-.44-2.07c0-.8.14-1.49.43-2.08.3-.6.7-1.06 1.21-1.38.52-.33 1.13-.5 1.82-.5a3.3 3.3 0 0 1 3.02 1.87c.3.6.44 1.3.44 2.1 0 .78-.15 1.47-.44 2.06a3.3 3.3 0 0 1-1.21 1.38 3.3 3.3 0 0 1-1.81.49Zm0-1.05c.52 0 .95-.14 1.3-.4.33-.28.58-.63.74-1.07a4.1 4.1 0 0 0 0-2.85 2.4 2.4 0 0 0-.75-1.06 2 2 0 0 0-1.3-.41 2 2 0 0 0-1.28.4 2.4 2.4 0 0 0-.75 1.07 4.1 4.1 0 0 0-.25 1.43c0 .51.08.99.25 1.42.16.44.4.8.75 1.06.33.27.77.4 1.29.4Zm10.06-2.23V3.36h1.18V11h-1.18V9.7h-.08a2.5 2.5 0 0 1-.83 1c-.38.27-.86.4-1.43.4-.48 0-.9-.1-1.28-.31a2.2 2.2 0 0 1-.87-.96 3.63 3.63 0 0 1-.32-1.61V3.36h1.17v4.78c0 .55.16 1 .47 1.33.32.33.72.5 1.2.5a2 2 0 0 0 1.97-2.1Zm12.67-2.8-1.05.3a1.96 1.96 0 0 0-.3-.52c-.12-.17-.3-.3-.51-.42-.22-.1-.5-.16-.84-.16a2 2 0 0 0-1.17.32c-.3.21-.46.48-.46.81 0 .3.1.52.31.7.22.16.55.3 1 .42l1.13.27c.69.17 1.2.42 1.53.76.33.34.5.78.5 1.31 0 .44-.13.83-.38 1.18-.25.34-.6.61-1.04.81-.45.2-.97.3-1.56.3-.78 0-1.43-.17-1.94-.5a2.25 2.25 0 0 1-.97-1.49l1.12-.28c.1.41.3.72.6.93.3.2.69.3 1.17.3.54 0 .98-.11 1.3-.34.33-.24.49-.52.49-.85a.9.9 0 0 0-.28-.66 1.78 1.78 0 0 0-.86-.41l-1.27-.3a3.04 3.04 0 0 1-1.54-.77 1.87 1.87 0 0 1-.49-1.32c0-.43.12-.81.37-1.14.24-.33.57-.6 1-.78.42-.2.9-.29 1.44-.29.75 0 1.35.17 1.78.5.43.33.74.77.92 1.31Zm6.72 2.8V3.36h1.17V11h-1.17V9.7h-.08a2.5 2.5 0 0 1-.84 1c-.37.27-.85.4-1.43.4-.47 0-.9-.1-1.27-.31a2.2 2.2 0 0 1-.87-.96 3.63 3.63 0 0 1-.32-1.61V3.36h1.17v4.78c0 .55.16 1 .47 1.33.31.33.71.5 1.2.5a2 2 0 0 0 1.97-2.1ZM95.49 11V3.36h1.14v1.16h.07c.14-.38.4-.69.76-.92.37-.24.78-.36 1.23-.36a12.98 12.98 0 0 1 .62.02v1.2a3.48 3.48 0 0 0-.72-.08c-.37 0-.7.08-.99.23a1.72 1.72 0 0 0-.93 1.56V11h-1.18Zm8.18.16a3.27 3.27 0 0 1-3.13-1.86 4.68 4.68 0 0 1-.43-2.06c0-.78.14-1.47.43-2.07a3.23 3.23 0 0 1 3.01-1.9c.4 0 .8.06 1.18.2a2.92 2.92 0 0 1 1.82 1.81 5 5 0 0 1 .28 1.8v.5h-5.88V6.57h4.69c0-.44-.09-.82-.26-1.16a1.95 1.95 0 0 0-1.83-1.1c-.47 0-.87.12-1.21.36-.34.22-.6.52-.78.9-.19.36-.28.75-.28 1.17v.68c0 .58.1 1.07.3 1.47.2.4.48.7.84.9a2.68 2.68 0 0 0 2.08.19c.26-.1.47-.23.66-.4.18-.18.32-.4.42-.67l1.13.32c-.12.38-.32.72-.6 1.01-.28.3-.63.52-1.04.68-.42.16-.88.24-1.4.24Zm9.64 2.7a2.57 2.57 0 0 1-.86-.14l.3-1.03c.29.07.54.1.76.08a.9.9 0 0 0 .58-.3c.17-.17.33-.45.47-.83l.22-.6-2.82-7.68h1.27l2.1 6.09h.09l2.1-6.09h1.28l-3.24 8.75c-.15.4-.33.72-.55.98a1.9 1.9 0 0 1-.75.58c-.28.13-.6.2-.95.2Zm9.87-2.7c-.7 0-1.3-.17-1.82-.5a3.34 3.34 0 0 1-1.21-1.37 4.66 4.66 0 0 1-.43-2.07c0-.8.14-1.49.43-2.08a3.27 3.27 0 0 1 3.03-1.88 3.3 3.3 0 0 1 3.02 1.87c.3.6.44 1.3.44 2.1a4.6 4.6 0 0 1-.44 2.06 3.3 3.3 0 0 1-1.21 1.38 3.3 3.3 0 0 1-1.81.49Zm0-1.05c.52 0 .95-.14 1.29-.4.34-.28.59-.63.75-1.07a4.25 4.25 0 0 0 0-2.85 2.4 2.4 0 0 0-.75-1.06 2 2 0 0 0-1.3-.41 2 2 0 0 0-1.29.4 2.4 2.4 0 0 0-.75 1.07 4.2 4.2 0 0 0 0 2.85c.17.44.42.8.75 1.06.34.27.77.4 1.3.4Zm10.06-2.23V3.36h1.17V11h-1.17V9.7h-.08a2.5 2.5 0 0 1-.84 1c-.37.27-.85.4-1.43.4-.47 0-.9-.1-1.27-.31a2.19 2.19 0 0 1-.87-.96 3.61 3.61 0 0 1-.32-1.61V3.36h1.17v4.78c0 .55.16 1 .47 1.33.31.33.71.5 1.2.5a2 2 0 0 0 1.97-2.1Zm8.99 3.12-2.33-7.64h1.24l1.65 5.85h.08l1.63-5.85h1.25l1.61 5.83h.08l1.65-5.83h1.23L148 11h-1.16l-1.67-5.87h-.12L143.38 11h-1.15Zm11.9.18c-.5 0-.93-.1-1.33-.27-.39-.19-.7-.46-.94-.8a2.26 2.26 0 0 1-.34-1.28c0-.44.08-.79.25-1.06.18-.28.4-.5.7-.65.28-.15.6-.27.95-.35.35-.08.7-.14 1.06-.18l1.13-.14c.29-.03.5-.09.63-.16.14-.08.2-.21.2-.4v-.04c0-.5-.13-.87-.4-1.14-.26-.28-.66-.41-1.2-.41a2.1 2.1 0 0 0-1.99 1.15l-1.11-.4c.2-.46.46-.82.8-1.08.33-.26.69-.44 1.09-.55a4.53 4.53 0 0 1 2.01-.07c.33.06.64.18.93.36.3.18.56.45.75.8.2.37.3.85.3 1.46V11h-1.17V9.97h-.06a2.28 2.28 0 0 1-1.14 1.01c-.3.13-.68.2-1.13.2Zm.17-1.05c.46 0 .86-.1 1.17-.28a1.86 1.86 0 0 0 .98-1.61V7.16c-.05.06-.16.12-.33.17l-.58.12a26.25 26.25 0 0 1-1.12.15c-.3.04-.59.1-.85.2-.27.08-.48.21-.64.39a1 1 0 0 0-.24.7c0 .41.15.72.45.93.3.2.7.3 1.16.3Zm6.64-3.72V11h-1.18V3.36h1.14v1.2h.1c.18-.4.45-.7.81-.94.37-.24.84-.36 1.41-.36.52 0 .97.11 1.36.32.39.21.69.53.9.96.22.42.33.96.33 1.6V11h-1.18V6.23c0-.6-.15-1.07-.46-1.4a1.65 1.65 0 0 0-1.28-.51c-.38 0-.71.08-1 .24-.3.16-.53.4-.7.71-.17.31-.25.7-.25 1.14Zm10.33-3.05v1h-3.95v-1h3.95Zm-2.8-1.83h1.17v7.28c0 .33.05.58.15.75.1.16.22.27.38.33.15.05.32.08.49.08l.31-.02.2-.04.24 1.05a2.41 2.41 0 0 1-.87.14c-.33 0-.66-.07-.98-.21a1.94 1.94 0 0 1-.78-.66 1.9 1.9 0 0 1-.31-1.1v-7.6Zm11.83 1.83v1h-3.96v-1h3.96Zm-2.8-1.83h1.17v7.28c0 .33.05.58.14.75.1.16.23.27.38.33.15.05.32.08.5.08l.3-.02.2-.04.25 1.05a2.33 2.33 0 0 1-.88.14c-.33 0-.66-.07-.97-.21a1.94 1.94 0 0 1-.79-.66 1.9 1.9 0 0 1-.3-1.1v-7.6Zm7.58 9.63c-.69 0-1.3-.17-1.81-.5a3.34 3.34 0 0 1-1.22-1.37 4.65 4.65 0 0 1-.43-2.07c0-.8.15-1.49.44-2.08.29-.6.7-1.06 1.2-1.38.53-.33 1.13-.5 1.82-.5a3.3 3.3 0 0 1 3.02 1.87c.3.6.44 1.3.44 2.1a4.6 4.6 0 0 1-.44 2.06 3.3 3.3 0 0 1-1.2 1.38 3.3 3.3 0 0 1-1.82.49Zm0-1.05c.53 0 .96-.14 1.3-.4.33-.28.58-.63.75-1.07a4.25 4.25 0 0 0 0-2.85c-.17-.44-.42-.8-.75-1.06a2 2 0 0 0-1.3-.41 2 2 0 0 0-1.29.4 2.4 2.4 0 0 0-.75 1.07 4.1 4.1 0 0 0-.25 1.43c0 .51.09.99.25 1.42.16.44.41.8.75 1.06.34.27.77.4 1.3.4Zm12.07 1.05a2.99 2.99 0 0 1-2.82-1.86 4.86 4.86 0 0 1-.42-2.1c0-.8.14-1.5.42-2.09a3.03 3.03 0 0 1 2.85-1.85c.5 0 .88.09 1.17.25.3.17.52.35.67.56.16.2.28.37.36.5h.1V.83h1.18V11h-1.14V9.83h-.14c-.08.14-.2.31-.37.52-.16.21-.38.4-.68.57-.3.16-.69.24-1.18.24Zm.16-1.05a2 2 0 0 0 1.2-.37c.32-.25.57-.6.74-1.03.17-.44.25-.95.25-1.53 0-.57-.08-1.07-.25-1.5a1.96 1.96 0 0 0-1.94-1.37c-.5 0-.9.14-1.24.4-.33.24-.57.59-.74 1.02a4.1 4.1 0 0 0-.24 1.45c0 .55.08 1.04.25 1.48.16.44.41.8.74 1.06s.74.39 1.23.39Zm8.86 1.05a3.27 3.27 0 0 1-3.13-1.86 4.68 4.68 0 0 1-.43-2.06c0-.78.14-1.47.43-2.07a3.23 3.23 0 0 1 3.01-1.9c.4 0 .79.06 1.18.2a2.92 2.92 0 0 1 1.82 1.81 5 5 0 0 1 .28 1.8v.5h-5.89V6.57h4.7c0-.44-.09-.82-.26-1.16a1.95 1.95 0 0 0-1.83-1.1c-.47 0-.87.12-1.21.36-.34.22-.6.52-.78.9-.19.36-.28.75-.28 1.17v.68c0 .58.1 1.07.3 1.47.2.4.48.7.84.9a2.68 2.68 0 0 0 2.08.19c.25-.1.47-.23.66-.4.18-.18.32-.4.42-.67l1.13.32a2.73 2.73 0 0 1-1.65 1.69c-.4.16-.88.24-1.4.24ZM212.29.82V11h-1.17V.82h1.17Zm5.35 10.34a3.26 3.26 0 0 1-3.13-1.86 4.68 4.68 0 0 1-.43-2.06c0-.78.14-1.47.43-2.07a3.23 3.23 0 0 1 3.01-1.9c.4 0 .79.06 1.18.2a2.92 2.92 0 0 1 1.82 1.81 5 5 0 0 1 .28 1.8v.5h-5.89V6.57h4.7c0-.44-.09-.82-.26-1.16a1.95 1.95 0 0 0-1.83-1.1c-.47 0-.87.12-1.21.36-.34.22-.6.52-.78.9-.19.36-.28.75-.28 1.17v.68c0 .58.1 1.07.3 1.47.2.4.48.7.84.9a2.68 2.68 0 0 0 2.08.19c.26-.1.47-.23.66-.4.18-.18.32-.4.42-.67l1.13.32a2.5 2.5 0 0 1-.6 1.01c-.28.3-.63.52-1.04.68-.42.16-.88.24-1.4.24Zm8.27-7.8v1h-3.96v-1h3.96Zm-2.8-1.83h1.17v7.28c0 .33.04.58.14.75.1.16.23.27.38.33.15.05.32.08.49.08l.32-.02.2-.04.24 1.05a2.41 2.41 0 0 1-.88.14c-.33 0-.66-.07-.97-.21a1.94 1.94 0 0 1-.79-.66 1.9 1.9 0 0 1-.3-1.1v-7.6Zm7.68 9.63a3.27 3.27 0 0 1-3.13-1.86 4.68 4.68 0 0 1-.43-2.06c0-.78.14-1.47.43-2.07a3.23 3.23 0 0 1 3.01-1.9c.4 0 .8.06 1.18.2a2.92 2.92 0 0 1 1.82 1.81 5 5 0 0 1 .28 1.8v.5h-5.88V6.57h4.69c0-.44-.09-.82-.26-1.16a1.95 1.95 0 0 0-1.83-1.1c-.46 0-.87.12-1.21.36-.34.22-.6.52-.78.9-.18.36-.28.75-.28 1.17v.68c0 .58.1 1.07.3 1.47.2.4.49.7.84.9.36.21.78.32 1.25.32.3 0 .59-.05.84-.13.25-.1.47-.23.65-.4.18-.18.32-.4.42-.67l1.13.32c-.12.38-.32.72-.6 1.01-.28.3-.63.52-1.04.68-.42.16-.88.24-1.4.24Zm12.2-7.8v1h-3.95v-1H243Zm-2.8-1.83h1.18v7.28c0 .33.04.58.14.75.1.16.23.27.38.33.15.05.32.08.49.08l.32-.02.2-.04.24 1.05a2.41 2.41 0 0 1-.88.14c-.33 0-.66-.07-.97-.21a1.94 1.94 0 0 1-.79-.66 1.9 1.9 0 0 1-.3-1.1v-7.6Zm5.9 4.88V11h-1.16V.82h1.17v3.74h.1c.18-.4.45-.71.8-.94a2.6 2.6 0 0 1 1.44-.36c.53 0 .98.1 1.37.32.4.2.7.52.91.95.22.42.33.96.33 1.62V11h-1.17V6.23a2 2 0 0 0-.47-1.41c-.32-.33-.75-.5-1.3-.5-.39 0-.73.08-1.04.24-.3.16-.54.4-.71.71-.18.31-.26.7-.26 1.14Zm7.1 4.59V3.36h1.18V11h-1.17Zm.6-8.9a.84.84 0 0 1-.59-.24.75.75 0 0 1-.24-.56c0-.22.08-.41.24-.57a.84.84 0 0 1 .6-.23c.22 0 .42.08.58.23.17.16.25.35.25.57 0 .21-.08.4-.25.56a.82.82 0 0 1-.59.23Zm8.14 2.97-1.06.3a1.96 1.96 0 0 0-.29-.51c-.13-.17-.3-.3-.52-.42a2 2 0 0 0-.84-.16 2 2 0 0 0-1.17.32c-.3.21-.46.48-.46.81 0 .3.1.52.32.7.21.16.54.3 1 .42l1.13.27c.68.17 1.2.42 1.52.76.34.34.5.78.5 1.31 0 .44-.12.83-.37 1.18-.25.34-.6.61-1.04.81-.45.2-.97.3-1.56.3-.78 0-1.43-.17-1.94-.5a2.25 2.25 0 0 1-.97-1.49l1.12-.28c.1.41.3.72.6.93.3.2.68.3 1.17.3.54 0 .98-.11 1.3-.34.32-.24.48-.52.48-.85a.88.88 0 0 0-.27-.66 1.78 1.78 0 0 0-.86-.41l-1.27-.3a3.04 3.04 0 0 1-1.54-.77 1.87 1.87 0 0 1-.49-1.32c0-.43.12-.81.36-1.14.25-.33.58-.6 1-.78.43-.2.9-.29 1.44-.29.76 0 1.35.17 1.78.5.44.33.75.77.93 1.31ZM25.57 35.87v-10.5h1.14v1.2h.14l.35-.5c.16-.2.38-.4.67-.56.3-.16.69-.25 1.18-.25a3.03 3.03 0 0 1 2.85 1.85c.28.6.42 1.29.42 2.1 0 .8-.14 1.5-.42 2.1a2.99 2.99 0 0 1-2.83 1.85c-.49 0-.88-.08-1.17-.24-.3-.17-.53-.36-.69-.57a7.53 7.53 0 0 1-.36-.52h-.1v4.03h-1.18Zm1.16-6.69c0 .58.08 1.09.25 1.53.17.44.42.78.74 1.03.33.24.72.37 1.2.37.49 0 .9-.13 1.22-.4.33-.25.58-.6.75-1.05.17-.44.25-.93.25-1.48a3.9 3.9 0 0 0-.25-1.45c-.16-.43-.4-.78-.74-1.03a1.96 1.96 0 0 0-1.24-.38 1.96 1.96 0 0 0-1.93 1.37 4 4 0 0 0-.25 1.5ZM34.1 33v-7.64h1.13v1.16h.08c.14-.38.39-.69.75-.92.37-.24.78-.36 1.24-.36a13.1 13.1 0 0 1 .61.02v1.2a3.45 3.45 0 0 0-.71-.08c-.37 0-.7.08-1 .23a1.71 1.71 0 0 0-.93 1.56V33H34.1Zm8.07.16c-.69 0-1.29-.16-1.81-.5a3.34 3.34 0 0 1-1.21-1.37 4.66 4.66 0 0 1-.44-2.07c0-.8.15-1.49.44-2.08.29-.6.7-1.06 1.2-1.38.53-.33 1.13-.5 1.82-.5a3.3 3.3 0 0 1 3.02 1.87c.3.6.44 1.3.44 2.1 0 .78-.14 1.47-.43 2.06a3.3 3.3 0 0 1-1.22 1.38 3.3 3.3 0 0 1-1.8.49Zm0-1.05c.53 0 .96-.14 1.3-.4.33-.28.58-.63.75-1.07a4.25 4.25 0 0 0 0-2.85 2.4 2.4 0 0 0-.75-1.06 2 2 0 0 0-1.3-.41 2 2 0 0 0-1.29.4 2.4 2.4 0 0 0-.75 1.07 4.1 4.1 0 0 0-.24 1.43c0 .51.08.99.24 1.42.16.44.41.8.75 1.06.34.27.77.4 1.3.4Zm8.14 1.05a2.99 2.99 0 0 1-2.83-1.86 4.86 4.86 0 0 1-.41-2.1c0-.8.13-1.5.41-2.09a3.03 3.03 0 0 1 2.85-1.85c.5 0 .89.09 1.18.25.29.17.51.35.66.56l.37.5h.1v-3.75h1.17V33h-1.13v-1.17h-.14l-.37.52c-.16.21-.39.4-.68.57-.3.16-.7.24-1.18.24Zm.16-1.05a2 2 0 0 0 1.2-.37c.32-.25.56-.6.73-1.03.17-.44.26-.95.26-1.53 0-.57-.09-1.07-.25-1.5a1.96 1.96 0 0 0-1.94-1.37c-.5 0-.91.14-1.25.4-.32.24-.57.59-.74 1.02a4.1 4.1 0 0 0-.24 1.45c0 .55.08 1.04.25 1.48.17.44.42.8.74 1.06.34.26.75.39 1.24.39Zm10.46-2.23v-4.52h1.18V33h-1.18v-1.3h-.08a2.5 2.5 0 0 1-.83 1c-.38.27-.86.4-1.43.4-.48 0-.9-.1-1.28-.31a2.2 2.2 0 0 1-.87-.96 3.63 3.63 0 0 1-.32-1.61v-4.86h1.17v4.78c0 .55.16 1 .47 1.33.32.33.72.5 1.2.5a2 2 0 0 0 1.97-2.1Zm6.43 3.28a3.3 3.3 0 0 1-1.85-.5 3.3 3.3 0 0 1-1.2-1.4 4.73 4.73 0 0 1-.41-2.04c0-.77.14-1.46.42-2.05.3-.6.7-1.06 1.2-1.4.53-.34 1.13-.5 1.82-.5.53 0 1.02.1 1.45.3a2.6 2.6 0 0 1 1.57 2.09H69.2a1.79 1.79 0 0 0-1.83-1.33 1.9 1.9 0 0 0-1.2.35c-.35.23-.61.56-.8 1a3.7 3.7 0 0 0-.29 1.5c0 .6.1 1.1.28 1.54.19.44.45.78.8 1.02.34.24.74.37 1.2.37.31 0 .59-.06.84-.16a1.71 1.71 0 0 0 1-1.18h1.17a2.72 2.72 0 0 1-1.52 2.08c-.43.2-.92.3-1.48.3Zm8.04-7.8v1h-3.96v-1h3.96Zm-2.8-1.83h1.17v7.28c0 .33.04.58.14.75.1.16.23.27.38.33.15.05.32.08.49.08a2.07 2.07 0 0 0 .52-.06l.24 1.05a2.37 2.37 0 0 1-.88.14c-.33 0-.66-.07-.97-.21a1.94 1.94 0 0 1-.79-.66 1.9 1.9 0 0 1-.3-1.1v-7.6Zm6.1 6.6v-.05c0-.64.07-1.14.2-1.51.12-.38.3-.68.53-.91.23-.24.5-.45.83-.65.2-.12.38-.26.53-.42a1.88 1.88 0 0 0 .5-1.29c0-.32-.07-.6-.22-.84a1.54 1.54 0 0 0-.61-.55 1.9 1.9 0 0 0-1.64-.02c-.25.1-.46.28-.63.52a1.9 1.9 0 0 0-.3.95h-1.25a2.63 2.63 0 0 1 1.5-2.37 3.52 3.52 0 0 1 2.99.04c.43.23.77.55 1 .95a2.87 2.87 0 0 1 .19 2.38 3.01 3.01 0 0 1-1.22 1.4c-.3.18-.53.37-.7.58-.18.2-.3.43-.38.7a4 4 0 0 0-.13 1.04v.06h-1.2Zm.63 2.95a.86.86 0 0 1-.63-.26.86.86 0 0 1-.27-.64c0-.24.1-.45.27-.63a.86.86 0 0 1 .63-.26.9.9 0 0 1 .77 1.34.93.93 0 0 1-.32.33.85.85 0 0 1-.45.12Z" fill="#BD4B00"/></svg>