<svg width="672" height="159" fill="none" xmlns="http://www.w3.org/2000/svg"><path fill="#F6F6F6" d="M0 0h672v159H0z"/><rect x="190" y="60.5" width="292" height="39" rx="3.5" fill="#fff"/><path d="M202.9 86V74.36h7.03v1.25h-5.61v3.94h5.25v1.25h-5.25v3.95h5.7V86h-7.11Zm10.37.1a.99.99 0 0 1-.73-.31.99.99 0 0 1-.3-.72c0-.28.1-.52.3-.72a1 1 0 0 1 .73-.3c.28 0 .52.1.72.3.2.2.3.44.3.72a1.06 1.06 0 0 1-.51.89.97.97 0 0 1-.51.13Zm6.95 3.35a4.9 4.9 0 0 1-1.67-.25 3.53 3.53 0 0 1-1.9-1.5l1.07-.75c.12.16.27.35.46.55.19.2.44.39.76.54a3 3 0 0 0 1.28.23c.7 0 1.28-.17 1.74-.5.46-.35.7-.88.7-1.61v-1.77h-.12c-.1.16-.24.35-.42.59-.18.23-.44.43-.78.62-.33.17-.78.26-1.35.26a3.5 3.5 0 0 1-3.22-1.95 5.09 5.09 0 0 1-.48-2.32c0-.9.15-1.67.47-2.33a3.46 3.46 0 0 1 3.26-2.1c.56 0 1.01.1 1.35.28.33.19.6.4.77.64.18.23.32.43.42.58h.14v-1.39h1.3v8.98c0 .75-.18 1.36-.52 1.83s-.8.82-1.36 1.04c-.57.22-1.2.33-1.9.33Zm-.05-4.8c.54 0 1-.11 1.37-.36.37-.25.65-.6.84-1.06.2-.46.3-1.02.3-1.66 0-.63-.1-1.19-.3-1.67a2.49 2.49 0 0 0-.83-1.13c-.37-.27-.83-.4-1.38-.4a2.28 2.28 0 0 0-2.26 1.58 4.5 4.5 0 0 0-.28 1.62c0 .6.1 1.14.28 1.6.2.47.48.83.85 1.1.38.26.85.39 1.41.39Zm7.25 1.44a.98.98 0 0 1-.72-.3.98.98 0 0 1-.3-.72c0-.28.1-.52.3-.72a1.02 1.02 0 0 1 1.75.72c0 .18-.05.35-.15.51-.09.15-.21.28-.37.37a.98.98 0 0 1-.5.14ZM240 74.36h1.4v8.32c0 .74-.13 1.37-.4 1.9-.27.51-.66.9-1.16 1.18-.5.26-1.08.4-1.75.4a4 4 0 0 1-1.7-.35 2.8 2.8 0 0 1-1.17-1 2.74 2.74 0 0 1-.43-1.54h1.39a1.5 1.5 0 0 0 .93 1.43c.28.14.61.2.98.2.4 0 .75-.08 1.03-.25.29-.17.5-.42.65-.75.15-.33.23-.74.23-1.22v-8.32Zm9.55 8.07v-5.16h1.34V86h-1.34v-1.48h-.1a2.7 2.7 0 0 1-2.58 1.59c-.55 0-1.03-.12-1.46-.35a2.62 2.62 0 0 1-1-1.1 4.15 4.15 0 0 1-.36-1.84v-5.55h1.34v5.46c0 .63.18 1.14.53 1.52.37.38.82.57 1.38.57a2.28 2.28 0 0 0 2.25-2.39Zm5.14-8.07V86h-1.34V74.36h1.34Zm6.11 11.82a3.74 3.74 0 0 1-3.58-2.13 5.34 5.34 0 0 1-.49-2.35c0-.89.17-1.68.5-2.36a3.7 3.7 0 0 1 3.44-2.18c.45 0 .9.07 1.34.23a3.34 3.34 0 0 1 2.08 2.08c.22.55.33 1.24.33 2.05v.57h-6.73v-1.16h5.36c0-.5-.1-.93-.3-1.32a2.23 2.23 0 0 0-2.08-1.25c-.54 0-1 .14-1.39.4-.39.26-.68.6-.9 1.02a3 3 0 0 0-.3 1.36v.77c0 .66.1 1.22.34 1.68.23.45.55.8.96 1.03.4.24.88.36 1.42.36.35 0 .67-.05.96-.15a1.94 1.94 0 0 0 1.22-1.22l1.3.37a2.99 2.99 0 0 1-1.89 1.93c-.46.18-1 .27-1.59.27Zm11.84-6.95-1.2.34a2.2 2.2 0 0 0-.34-.59 1.6 1.6 0 0 0-.6-.47 2.15 2.15 0 0 0-.95-.2c-.54 0-.98.13-1.34.38-.35.24-.53.55-.53.92 0 .34.13.6.37.8.24.19.62.35 1.13.48l1.3.31c.78.2 1.36.48 1.74.87.39.39.58.89.58 1.5 0 .5-.15.95-.44 1.34-.28.4-.68.7-1.19.93-.5.23-1.1.34-1.78.34-.9 0-1.63-.2-2.21-.58a2.57 2.57 0 0 1-1.11-1.7l1.27-.3c.12.46.35.81.69 1.05.34.23.79.35 1.34.35a2.5 2.5 0 0 0 1.48-.4c.38-.27.56-.59.56-.96 0-.3-.1-.56-.32-.77-.21-.2-.53-.36-.97-.46l-1.46-.34a3.47 3.47 0 0 1-1.76-.88c-.37-.4-.56-.9-.56-1.5 0-.5.14-.94.42-1.31.28-.38.66-.68 1.14-.9a4 4 0 0 1 1.65-.32c.86 0 1.54.19 2.03.57.5.38.85.88 1.06 1.5Z" fill="#757575"/><rect x="190" y="60.5" width="292" height="39" rx="3.5" stroke="#545454"/><path d="M200.21 38.36V50h-1.88l-5.48-7.93h-.1V50h-2.1V38.36h1.88l5.48 7.94h.1v-7.94h2.1Zm4.72 11.82c-.56 0-1.05-.1-1.5-.3-.44-.2-.78-.5-1.04-.89a2.59 2.59 0 0 1-.38-1.44 2.11 2.11 0 0 1 1.02-2c.3-.19.66-.33 1.06-.43.4-.1.8-.18 1.23-.22l1.24-.14c.32-.05.55-.12.7-.2.15-.1.22-.25.22-.45v-.03c0-.43-.13-.76-.38-1a1.6 1.6 0 0 0-1.1-.35c-.5 0-.9.11-1.2.33-.29.22-.49.48-.59.78l-1.92-.27a3.08 3.08 0 0 1 2.03-2.14 5.44 5.44 0 0 1 2.93-.13c.41.1.8.27 1.14.5.34.22.62.52.83.91.2.39.32.87.32 1.45V50h-1.98v-1.2h-.07a2.52 2.52 0 0 1-1.38 1.19c-.33.12-.73.19-1.18.19Zm.53-1.52c.41 0 .77-.08 1.08-.24a1.73 1.73 0 0 0 .94-1.56v-1.02a.96.96 0 0 1-.32.15l-.52.12a15.83 15.83 0 0 1-1.04.16c-.3.04-.58.1-.83.2-.24.1-.43.23-.57.4a.97.97 0 0 0-.21.65c0 .38.14.66.41.85.28.2.63.3 1.06.3ZM211.6 50v-8.73h1.97v1.49h.1c.18-.5.49-.9.9-1.17.43-.29.93-.43 1.51-.43.6 0 1.09.14 1.5.43.4.28.7.67.86 1.17h.09c.2-.49.52-.88.98-1.16.46-.3 1-.44 1.64-.44.8 0 1.46.25 1.97.76.5.5.76 1.25.76 2.22V50h-2.07v-5.54c0-.54-.14-.94-.43-1.19a1.54 1.54 0 0 0-1.06-.38c-.5 0-.88.16-1.16.47-.28.3-.41.7-.41 1.2V50h-2.02v-5.63c0-.45-.14-.8-.41-1.07-.27-.27-.62-.4-1.06-.4a1.54 1.54 0 0 0-1.38.85 1.9 1.9 0 0 0-.22.94V50h-2.06Zm18.23.17a4.5 4.5 0 0 1-2.27-.55 3.7 3.7 0 0 1-1.46-1.55 5.23 5.23 0 0 1-.51-2.38c0-.9.17-1.69.5-2.37a3.87 3.87 0 0 1 3.63-2.16c.54 0 1.04.09 1.52.26s.9.44 1.27.8c.38.36.67.81.88 1.37.21.55.32 1.21.32 1.98v.63h-7.16v-1.4h5.19c0-.4-.1-.74-.26-1.05-.17-.3-.4-.55-.7-.73-.3-.18-.64-.27-1.03-.27a2 2 0 0 0-1.11.3c-.32.2-.57.47-.74.8a2.3 2.3 0 0 0-.27 1.08v1.2c0 .52.1.95.28 1.31.18.36.44.64.78.83.33.2.72.29 1.16.29.3 0 .58-.04.82-.13.24-.08.45-.21.63-.38.18-.16.31-.37.4-.62l1.92.22c-.12.5-.35.95-.7 1.33-.33.37-.76.67-1.29.87-.52.2-1.13.31-1.8.31Z" fill="#333"/><path d="m242.15 44.9.13-2.3-1.93 1.27-.7-1.2 2.07-1.03-2.06-1.04.7-1.2 1.92 1.26-.13-2.3h1.38l-.12 2.3 1.93-1.26.7 1.2-2.07 1.04 2.06 1.03-.69 1.2-1.93-1.26.12 2.3h-1.38Z" fill="#EE0505"/></svg>