<svg width="294" height="96" fill="none" xmlns="http://www.w3.org/2000/svg"><rect x="1" y="29" width="292" height="39" rx="3.5" fill="#fff"/><path d="m16.02 54.5-3.18-11.64h1.43l2.43 9.48h.12l2.48-9.48h1.59l2.47 9.48h.12l2.43-9.48h1.43L24.16 54.5H22.7l-2.56-9.27h-.1l-2.56 9.27h-1.46Zm12.35 0v-8.73h1.3v1.32h.08c.16-.43.45-.78.87-1.05.41-.27.88-.4 1.4-.4a15.24 15.24 0 0 1 .71.02v1.36a4 4 0 0 0-.82-.09c-.42 0-.8.1-1.13.27a1.96 1.96 0 0 0-1.07 1.78v5.52h-1.34Zm5.95 0v-8.73h1.34v8.73h-1.34ZM35 44.32a.95.95 0 0 1-.67-.27.86.86 0 0 1-.28-.64c0-.25.1-.46.28-.64a.95.95 0 0 1 .67-.27c.26 0 .49.09.67.27a.85.85 0 0 1 0 1.28.93.93 0 0 1-.67.27Zm6.91 1.45v1.14H37.4v-1.14h4.52Zm-3.2-2.09h1.34V52c0 .38.05.66.16.85.12.19.26.31.44.38.17.06.36.09.56.09.15 0 .27 0 .36-.02l.23-.05.27 1.2a2.73 2.73 0 0 1-1 .16 2.7 2.7 0 0 1-1.11-.24 2.21 2.21 0 0 1-.9-.74 2.14 2.14 0 0 1-.35-1.27v-8.68Zm8.79 11a3.74 3.74 0 0 1-3.58-2.13 5.35 5.35 0 0 1-.5-2.35c0-.89.17-1.68.5-2.36a3.7 3.7 0 0 1 3.44-2.18 4 4 0 0 1 1.35.23 3.34 3.34 0 0 1 2.08 2.08c.21.55.32 1.24.32 2.05v.57h-6.73v-1.16h5.37c0-.5-.1-.93-.3-1.32a2.23 2.23 0 0 0-2.1-1.25 2.46 2.46 0 0 0-2.27 1.42 3 3 0 0 0-.31 1.36v.77c0 .66.11 1.22.34 1.68.23.45.55.8.96 1.03.4.24.88.36 1.43.36.35 0 .67-.05.95-.15.29-.1.54-.25.74-.45.21-.21.37-.46.49-.77l1.3.37a2.9 2.9 0 0 1-.7 1.16c-.32.33-.71.58-1.19.77-.47.18-1 .27-1.6.27Zm11.49-5.43v5.25h-1.34V42.86h1.34v4.28h.11c.2-.45.52-.81.92-1.08.42-.27.97-.4 1.65-.4.6 0 1.12.12 1.56.36.45.23.8.6 1.04 1.08.25.49.38 1.1.38 1.85v5.55H63.3v-5.45c0-.7-.18-1.23-.54-1.61a1.93 1.93 0 0 0-1.48-.58c-.44 0-.84.1-1.19.28a2.1 2.1 0 0 0-.81.81c-.2.36-.3.8-.3 1.3Zm11.77 5.43a3.74 3.74 0 0 1-3.58-2.13 5.35 5.35 0 0 1-.49-2.35c0-.89.17-1.68.5-2.36a3.7 3.7 0 0 1 3.44-2.18c.45 0 .9.07 1.34.23a3.34 3.34 0 0 1 2.08 2.08c.22.55.33 1.24.33 2.05v.57h-6.73v-1.16H73c0-.5-.1-.93-.3-1.32a2.23 2.23 0 0 0-2.08-1.25c-.54 0-1 .14-1.4.4-.38.26-.68.6-.88 1.02a3 3 0 0 0-.32 1.36v.77c0 .66.12 1.22.34 1.68.24.45.56.8.97 1.03.4.24.88.36 1.42.36.35 0 .67-.05.96-.15.28-.1.53-.25.74-.45.2-.21.37-.46.48-.77l1.3.37a2.99 2.99 0 0 1-1.89 1.93c-.47.18-1 .27-1.59.27Zm5.65-.18v-8.73h1.3v1.32h.1c.15-.43.44-.78.85-1.05.42-.27.9-.4 1.41-.4a15.25 15.25 0 0 1 .7.02v1.36a4 4 0 0 0-.81-.09c-.42 0-.8.1-1.14.27a1.96 1.96 0 0 0-1.07 1.78v5.52h-1.34Zm9.35.18a3.74 3.74 0 0 1-3.58-2.13 5.35 5.35 0 0 1-.49-2.35c0-.89.17-1.68.5-2.36a3.7 3.7 0 0 1 3.44-2.18c.45 0 .9.07 1.34.23a3.34 3.34 0 0 1 2.08 2.08c.22.55.33 1.24.33 2.05v.57h-6.73v-1.16H88c0-.5-.1-.93-.3-1.32a2.23 2.23 0 0 0-2.08-1.25c-.54 0-1 .14-1.4.4-.38.26-.68.6-.88 1.02a3 3 0 0 0-.32 1.36v.77c0 .66.12 1.22.34 1.68.24.45.56.8.97 1.03.4.24.88.36 1.42.36.35 0 .67-.05.96-.15.28-.1.53-.25.74-.45.2-.21.37-.46.48-.77l1.3.37a2.99 2.99 0 0 1-1.89 1.93c-.47.18-1 .27-1.59.27Zm6.63-.09a.98.98 0 0 1-.72-.3.98.98 0 0 1-.3-.72c0-.28.1-.52.3-.72.2-.2.44-.3.72-.3.28 0 .52.1.72.3.2.2.3.44.3.72a1.06 1.06 0 0 1-.51.89.97.97 0 0 1-.5.13Zm4.4 0a.98.98 0 0 1-.71-.3.98.98 0 0 1-.3-.72c0-.28.1-.52.3-.72.2-.2.44-.3.72-.3.28 0 .52.1.72.3.2.2.3.44.3.72a1.06 1.06 0 0 1-.51.89.97.97 0 0 1-.51.13Zm4.41 0a.98.98 0 0 1-.72-.3.98.98 0 0 1-.3-.72c0-.28.1-.52.3-.72a1.02 1.02 0 0 1 1.75.72c0 .18-.05.35-.15.51a.97.97 0 0 1-.88.51Z" fill="#757575"/><rect x="1" y="29" width="292" height="39" rx="3.5" stroke="#545454"/></svg>