<svg width="672" height="159" fill="none" xmlns="http://www.w3.org/2000/svg"><path fill="#F6F6F6" d="M0 0h672v159H0z"/><rect x="190" y="60.5" width="292" height="39" rx="3.5" fill="#fff"/><path d="M209.27 77.27a1.78 1.78 0 0 0-.83-1.34 3.18 3.18 0 0 0-1.78-.48c-.52 0-.97.09-1.35.25-.39.17-.69.4-.9.7a1.65 1.65 0 0 0-.1 1.79c.15.22.35.4.58.55.24.14.48.26.74.36l.71.22 1.18.32c.3.08.64.19 1.01.33.38.14.74.33 1.08.57a2.65 2.65 0 0 1 1.19 2.3c0 .63-.17 1.2-.5 1.7-.33.51-.8.92-1.43 1.22-.63.3-1.38.44-2.28.44a5.3 5.3 0 0 1-2.16-.4 3.22 3.22 0 0 1-2.02-2.8h1.45c.04.44.19.8.45 1.1.26.28.59.49.98.63a4.21 4.21 0 0 0 2.75-.06c.43-.18.77-.42 1.02-.74s.37-.69.37-1.11c0-.39-.1-.7-.32-.94-.22-.25-.5-.44-.85-.6a9 9 0 0 0-1.15-.4l-1.43-.4a5.33 5.33 0 0 1-2.16-1.12 2.46 2.46 0 0 1-.8-1.9c0-.66.18-1.23.54-1.71a3.5 3.5 0 0 1 1.43-1.14c.6-.27 1.27-.4 2.02-.4s1.41.13 2 .4c.58.26 1.04.63 1.38 1.09.35.46.53.99.55 1.57h-1.37Zm6.23 8.93c-.55 0-1.06-.1-1.5-.3a2.64 2.64 0 0 1-1.08-.92c-.27-.4-.4-.89-.4-1.46 0-.5.1-.9.3-1.21.2-.32.46-.56.79-.74.33-.18.69-.31 1.09-.4.4-.1.8-.16 1.2-.22l1.3-.15c.33-.04.57-.1.73-.19.15-.08.23-.23.23-.45v-.05c0-.56-.16-1-.46-1.3-.3-.31-.77-.47-1.38-.47a2.39 2.39 0 0 0-2.28 1.32l-1.27-.46a3.07 3.07 0 0 1 2.16-1.86 5.2 5.2 0 0 1 2.3-.08c.38.07.73.2 1.07.4.34.2.63.52.86.93.22.41.34.97.34 1.66V86h-1.34v-1.18h-.07a2.62 2.62 0 0 1-1.3 1.16 3.3 3.3 0 0 1-1.3.22Zm.2-1.2c.53 0 .98-.1 1.34-.31a2.13 2.13 0 0 0 1.12-1.85v-1.23c-.06.07-.18.13-.38.2-.19.04-.4.1-.66.13a30.34 30.34 0 0 1-1.28.17c-.35.05-.68.12-.98.23-.3.1-.54.24-.73.44-.18.2-.27.47-.27.81 0 .47.17.82.52 1.06.35.23.79.35 1.32.35Zm6.25 1v-8.73h1.3v1.37h.1c.19-.47.48-.83.89-1.09.4-.26.89-.4 1.46-.4s1.05.14 1.43.4c.39.26.7.62.9 1.09h.1a2.6 2.6 0 0 1 1-1.08c.45-.27.99-.4 1.61-.4.78 0 1.42.24 1.92.73s.74 1.24.74 2.27V86h-1.34v-5.84c0-.64-.18-1.1-.53-1.38a1.96 1.96 0 0 0-1.24-.42c-.62 0-1.1.19-1.43.56-.34.37-.5.83-.5 1.4V86h-1.37v-5.98c0-.5-.16-.9-.48-1.2a1.88 1.88 0 0 0-2.22-.18c-.3.19-.54.45-.73.77-.18.33-.27.7-.27 1.14V86h-1.34Zm19.4-3.57v-5.16h1.34V86h-1.34v-1.48h-.09c-.2.45-.52.82-.95 1.13-.44.31-.98.46-1.64.46a3 3 0 0 1-1.45-.35 2.5 2.5 0 0 1-1-1.1 4.14 4.14 0 0 1-.37-1.84v-5.55h1.34v5.46c0 .63.18 1.14.54 1.52.36.38.81.57 1.37.57a2.28 2.28 0 0 0 1.9-1.04c.23-.35.35-.8.35-1.35Zm7.46 3.75a3.73 3.73 0 0 1-3.58-2.13 5.34 5.34 0 0 1-.49-2.35c0-.89.16-1.68.49-2.36a3.7 3.7 0 0 1 3.44-2.18c.46 0 .9.07 1.35.23a3.34 3.34 0 0 1 2.08 2.08c.21.55.32 1.24.32 2.05v.57h-6.72v-1.16h5.36c0-.5-.1-.93-.3-1.32a2.22 2.22 0 0 0-2.09-1.25 2.53 2.53 0 0 0-2.28 1.42 3 3 0 0 0-.3 1.36v.77c0 .66.1 1.22.33 1.68.23.45.55.8.96 1.03.41.24.89.36 1.43.36.35 0 .67-.05.95-.15.3-.1.54-.25.75-.45.2-.2.37-.46.48-.77l1.3.37a2.9 2.9 0 0 1-.7 1.16c-.31.33-.71.58-1.19.77-.47.18-1 .27-1.6.27Zm7-11.82V86h-1.35V74.36h1.34Z" fill="#1F1F1F"/><rect x="190" y="60.5" width="292" height="39" rx="3.5" stroke="#0F67F5"/><path d="M198.87 37.82V48h-1.64l-4.8-6.94h-.08V48h-1.85V37.82h1.66l4.79 6.94h.09v-6.94h1.83ZM203 48.15c-.49 0-.92-.08-1.3-.25a2.13 2.13 0 0 1-.92-.78 2.27 2.27 0 0 1-.34-1.26c0-.43.08-.79.24-1.07.16-.28.38-.5.65-.68.28-.17.59-.3.93-.38.35-.09.71-.15 1.08-.2l1.1-.12c.27-.04.47-.1.6-.18.13-.08.2-.2.2-.38v-.03c0-.37-.12-.66-.34-.87-.22-.2-.54-.3-.96-.3-.44 0-.8.09-1.05.28-.25.2-.43.42-.52.68l-1.68-.24a2.69 2.69 0 0 1 1.78-1.87 4.76 4.76 0 0 1 2.56-.1c.36.08.7.22 1 .42.3.2.54.46.72.8.19.34.28.76.28 1.27V48h-1.73v-1.05h-.06a2.19 2.19 0 0 1-1.2 1.04c-.3.1-.64.16-1.04.16Zm.47-1.32a2 2 0 0 0 .94-.21c.26-.15.47-.34.6-.58.15-.24.23-.5.23-.78v-.9a.84.84 0 0 1-.3.13 13.77 13.77 0 0 1-1.36.24c-.26.04-.5.1-.72.18-.2.09-.38.2-.5.35a.85.85 0 0 0-.18.57c0 .33.12.58.36.75.24.17.55.25.93.25Zm5.37 1.17v-7.64h1.72v1.3h.09c.16-.44.42-.78.8-1.02.36-.25.8-.38 1.3-.38.53 0 .96.13 1.32.38.35.25.6.59.75 1.02h.08c.17-.42.45-.76.86-1.01.4-.26.88-.39 1.43-.39.7 0 1.28.23 1.72.67.45.44.67 1.1.67 1.94V48h-1.8v-4.85c0-.47-.13-.82-.38-1.04a1.35 1.35 0 0 0-.93-.33c-.43 0-.77.14-1.02.4a1.5 1.5 0 0 0-.36 1.06V48h-1.77v-4.92c0-.4-.11-.71-.35-.95a1.25 1.25 0 0 0-.93-.35 1.36 1.36 0 0 0-1.21.75 1.7 1.7 0 0 0-.19.83V48h-1.8Zm15.95.15c-.77 0-1.43-.16-1.99-.48a3.23 3.23 0 0 1-1.28-1.36 4.55 4.55 0 0 1-.44-2.08c0-.79.15-1.48.44-2.07a3.38 3.38 0 0 1 3.17-1.9c.47 0 .92.08 1.33.23a3 3 0 0 1 1.12.7c.32.31.58.71.76 1.2.19.49.28 1.06.28 1.73v.55h-6.26v-1.2h4.54c0-.35-.08-.66-.23-.93a1.63 1.63 0 0 0-.6-.64 1.72 1.72 0 0 0-.91-.23 1.8 1.8 0 0 0-1.62.96 2 2 0 0 0-.24.94v1.06c0 .44.08.82.24 1.14a1.8 1.8 0 0 0 1.71.98c.26 0 .5-.04.71-.11a1.55 1.55 0 0 0 .91-.88l1.68.2c-.1.44-.31.82-.61 1.16-.3.32-.67.58-1.13.76-.46.18-1 .27-1.58.27Z" fill="#333"/></svg>