<svg width="294" height="96" fill="none" xmlns="http://www.w3.org/2000/svg"><rect x="1" y="29" width="292" height="39" rx="3.5" fill="#fff"/><path d="M13.9 54.5V42.86h7.03v1.25h-5.61v3.94h5.25v1.25h-5.25v3.95h5.7v1.25h-7.11Zm10.37.1a.98.98 0 0 1-.72-.31.98.98 0 0 1-.3-.72c0-.28.1-.52.3-.72.2-.2.44-.3.72-.3.28 0 .52.1.72.3.2.2.3.44.3.72a1.06 1.06 0 0 1-.51.89.97.97 0 0 1-.51.13Zm6.95 3.35a4.9 4.9 0 0 1-1.67-.25 3.54 3.54 0 0 1-1.9-1.5l1.07-.75c.12.16.27.35.46.55.18.2.44.39.76.54.33.16.75.23 1.28.23.7 0 1.28-.17 1.74-.5.46-.35.7-.88.7-1.61v-1.77h-.12c-.1.16-.24.35-.42.59-.18.23-.44.43-.78.62-.33.17-.78.26-1.35.26a3.5 3.5 0 0 1-3.22-1.95 5.09 5.09 0 0 1-.48-2.32c0-.9.15-1.67.47-2.33a3.46 3.46 0 0 1 3.26-2.1c.56 0 1.01.1 1.35.28.33.19.6.4.77.64.18.23.32.43.42.58h.14v-1.39H35v8.98c0 .75-.18 1.36-.52 1.83s-.8.82-1.36 1.04c-.57.22-1.2.33-1.9.33Zm-.05-4.8c.54 0 1-.11 1.37-.36.37-.25.65-.6.84-1.06.2-.46.3-1.02.3-1.66 0-.63-.1-1.19-.3-1.67a2.5 2.5 0 0 0-.83-1.13c-.37-.27-.83-.4-1.38-.4a2.28 2.28 0 0 0-2.26 1.58 4.48 4.48 0 0 0-.28 1.62c0 .6.1 1.14.28 1.6.2.47.48.83.85 1.1.38.26.85.39 1.41.39Zm7.25 1.44a.98.98 0 0 1-.72-.3.98.98 0 0 1-.3-.72c0-.28.1-.52.3-.72.2-.2.44-.3.72-.3.28 0 .52.1.72.3.2.2.3.44.3.72a1.06 1.06 0 0 1-.51.89.97.97 0 0 1-.5.13Zm8.11-.09V42.86h1.41v10.39h5.41v1.25h-6.82Zm12.37.18a3.8 3.8 0 0 1-2.08-.56 3.84 3.84 0 0 1-1.38-1.57 5.32 5.32 0 0 1-.5-2.37c0-.9.17-1.7.5-2.38.33-.68.8-1.2 1.38-1.58a3.8 3.8 0 0 1 2.08-.56c.79 0 1.48.19 2.07.56.6.38 1.05.9 1.38 1.58.34.68.5 1.47.5 2.38 0 .9-.16 1.7-.5 2.37-.33.67-.79 1.2-1.38 1.57-.6.37-1.28.56-2.07.56Zm0-1.2c.6 0 1.09-.16 1.48-.46.38-.31.67-.71.85-1.21a4.8 4.8 0 0 0 0-3.26c-.18-.5-.47-.91-.85-1.22a2.28 2.28 0 0 0-1.48-.47c-.6 0-1.1.16-1.48.47-.39.31-.67.72-.86 1.22a4.8 4.8 0 0 0 0 3.26c.19.5.47.9.86 1.2.39.31.88.47 1.48.47Zm7.34-4.23v5.25H64.9v-8.73h1.3v1.37h.1c.21-.45.52-.8.94-1.07.42-.27.95-.41 1.61-.41.6 0 1.11.12 1.55.36.45.24.8.6 1.04 1.1.25.48.37 1.1.37 1.83v5.55h-1.34v-5.45c0-.69-.18-1.22-.54-1.6a1.9 1.9 0 0 0-1.46-.59c-.43 0-.81.1-1.15.28a2 2 0 0 0-.79.81c-.2.36-.29.8-.29 1.3Zm11.31 5.43a3.42 3.42 0 0 1-3.23-2.12 5.67 5.67 0 0 1-.47-2.4c0-.92.16-1.71.47-2.39a3.46 3.46 0 0 1 3.26-2.11c.56 0 1.01.1 1.34.28.34.19.59.4.76.64.18.23.32.43.42.58h.11v-4.3h1.34V54.5h-1.3v-1.34h-.15l-.42.6a2.5 2.5 0 0 1-.78.64 2.8 2.8 0 0 1-1.35.28Zm.19-1.2c.53 0 .99-.14 1.36-.42.37-.29.65-.68.85-1.18.19-.5.29-1.08.29-1.74 0-.66-.1-1.23-.29-1.71a2.24 2.24 0 0 0-2.22-1.56c-.56 0-1.04.14-1.41.43a2.6 2.6 0 0 0-.85 1.18 5.03 5.03 0 0 0 0 3.35c.2.5.48.9.86 1.2.38.3.85.45 1.4.45Zm10 1.2a3.8 3.8 0 0 1-2.07-.56c-.6-.38-1.06-.9-1.39-1.57a5.32 5.32 0 0 1-.5-2.37c0-.9.17-1.7.5-2.38.33-.68.8-1.2 1.39-1.58a3.8 3.8 0 0 1 2.07-.56c.79 0 1.48.19 2.07.56.6.38 1.06.9 1.39 1.58.33.68.5 1.47.5 2.38 0 .9-.17 1.7-.5 2.37a3.8 3.8 0 0 1-1.39 1.57c-.6.37-1.28.56-2.07.56Zm0-1.2c.6 0 1.1-.16 1.48-.46.39-.31.67-.71.86-1.21a4.77 4.77 0 0 0 0-3.26c-.19-.5-.47-.91-.86-1.22a2.28 2.28 0 0 0-1.48-.47c-.6 0-1.09.16-1.48.47-.38.31-.67.72-.85 1.22a4.77 4.77 0 0 0 0 3.26c.18.5.47.9.85 1.2.4.31.88.47 1.48.47Zm7.34-4.23v5.25h-1.34v-8.73h1.3v1.37h.11c.2-.45.52-.8.93-1.07.42-.27.96-.41 1.62-.41.59 0 1.1.12 1.55.36.44.24.79.6 1.03 1.1.25.48.37 1.1.37 1.83v5.55h-1.34v-5.45c0-.69-.18-1.22-.53-1.6a1.9 1.9 0 0 0-1.47-.59c-.43 0-.8.1-1.15.28a2 2 0 0 0-.79.81c-.19.36-.29.8-.29 1.3Z" fill="#757575"/><rect x="1" y="29" width="292" height="39" rx="3.5" stroke="#545454"/><path d="M10.22 9.75H8.36a2.31 2.31 0 0 0-.83-1.41 2.22 2.22 0 0 0-.72-.38 2.83 2.83 0 0 0-2.34.3c-.43.27-.76.67-1 1.2a4.67 4.67 0 0 0-.37 1.95c0 .78.12 1.43.36 1.97.25.53.58.93 1 1.2a2.96 2.96 0 0 0 2.32.28 2.34 2.34 0 0 0 1.27-.95c.15-.23.25-.5.31-.8l1.86.02a4 4 0 0 1-2.66 3.24 4.8 4.8 0 0 1-1.65.27 4.34 4.34 0 0 1-4.06-2.42 6.1 6.1 0 0 1-.6-2.81 6 6 0 0 1 .6-2.81 4.37 4.37 0 0 1 4.06-2.42c.57 0 1.1.08 1.58.24a3.98 3.98 0 0 1 2.24 1.82c.25.44.41.95.49 1.51Zm1.6 6.75V8.86h1.8v7.64h-1.8Zm.91-8.72c-.28 0-.53-.1-.73-.28a.91.91 0 0 1-.31-.7c0-.27.1-.5.3-.69.21-.19.46-.28.74-.28.3 0 .54.1.74.28.2.2.3.42.3.7 0 .26-.1.5-.3.69-.2.19-.45.28-.74.28Zm6.56 1.08v1.4H14.9v-1.4h4.4ZM16 7.03h1.8v7.17c0 .25.03.43.1.56.08.13.18.21.3.26.13.04.26.07.41.07a1.76 1.76 0 0 0 .53-.07l.3 1.4a4 4 0 0 1-1.06.18c-.45.02-.85-.05-1.22-.2a1.9 1.9 0 0 1-.86-.7 2.1 2.1 0 0 1-.3-1.2V7.03Zm5.93 12.33a3.64 3.64 0 0 1-1.18-.19l.42-1.4c.26.08.5.12.7.11.2 0 .39-.07.54-.2.16-.11.3-.32.4-.6l.16-.42-2.77-7.8h1.91l1.76 5.77h.08l1.76-5.77h1.92l-3.06 8.56c-.14.4-.33.76-.57 1.04-.23.3-.52.52-.86.67-.34.16-.74.23-1.21.23Z" fill="#333"/></svg>