<svg width="294" height="96" fill="none" xmlns="http://www.w3.org/2000/svg"><rect x="1" y="29" width="292" height="39" rx="3.5" fill="#fff"/><path d="M13.9 54.5V42.86h7.03v1.25h-5.61v3.94h5.25v1.25h-5.25v3.95h5.7v1.25h-7.11Zm10.37.1a.98.98 0 0 1-.72-.31.98.98 0 0 1-.3-.72c0-.28.1-.52.3-.72.2-.2.44-.3.72-.3.28 0 .52.1.72.3.2.2.3.44.3.72a1.06 1.06 0 0 1-.51.89.97.97 0 0 1-.51.13Zm6.95 3.35a4.9 4.9 0 0 1-1.67-.25 3.54 3.54 0 0 1-1.9-1.5l1.07-.75c.12.16.27.35.46.55.18.2.44.39.76.54.33.16.75.23 1.28.23.7 0 1.28-.17 1.74-.5.46-.35.7-.88.7-1.61v-1.77h-.12c-.1.16-.24.35-.42.59-.18.23-.44.43-.78.62-.33.17-.78.26-1.35.26a3.5 3.5 0 0 1-3.22-1.95 5.09 5.09 0 0 1-.48-2.32c0-.9.15-1.67.47-2.33a3.46 3.46 0 0 1 3.26-2.1c.56 0 1.01.1 1.35.28.33.19.6.4.77.64.18.23.32.43.42.58h.14v-1.39H35v8.98c0 .75-.18 1.36-.52 1.83s-.8.82-1.36 1.04c-.57.22-1.2.33-1.9.33Zm-.05-4.8c.54 0 1-.11 1.37-.36.37-.25.65-.6.84-1.06.2-.46.3-1.02.3-1.66 0-.63-.1-1.19-.3-1.67a2.5 2.5 0 0 0-.83-1.13c-.37-.27-.83-.4-1.38-.4a2.28 2.28 0 0 0-2.26 1.58 4.48 4.48 0 0 0-.28 1.62c0 .6.1 1.14.28 1.6.2.47.48.83.85 1.1.38.26.85.39 1.41.39Zm7.25 1.44a.98.98 0 0 1-.72-.3.98.98 0 0 1-.3-.72c0-.28.1-.52.3-.72.2-.2.44-.3.72-.3.28 0 .52.1.72.3.2.2.3.44.3.72a1.06 1.06 0 0 1-.51.89.97.97 0 0 1-.5.13Zm7.91-.09v-1.02l3.84-4.2c.45-.5.82-.93 1.11-1.3.3-.36.51-.7.65-1.03.15-.32.22-.66.22-1.02a1.89 1.89 0 0 0-1.1-1.75 2.58 2.58 0 0 0-1.13-.25c-.45 0-.84.1-1.17.28a1.9 1.9 0 0 0-.77.77 2.4 2.4 0 0 0-.26 1.16h-1.34a3.28 3.28 0 0 1 1.76-3 3.87 3.87 0 0 1 1.83-.44c.68 0 1.28.15 1.8.44a3.06 3.06 0 0 1 1.69 2.8c0 .42-.07.84-.23 1.25-.15.4-.41.86-.8 1.36-.37.5-.89 1.1-1.55 1.81l-2.62 2.8v.09h5.41v1.25h-7.34Zm13.48.16c-.85 0-1.58-.23-2.19-.7a4.37 4.37 0 0 1-1.38-2.04 9.7 9.7 0 0 1-.47-3.24c0-1.26.16-2.33.47-3.22a4.4 4.4 0 0 1 1.4-2.05 3.4 3.4 0 0 1 2.17-.7c.85 0 1.58.23 2.18.7.6.47 1.07 1.16 1.38 2.05.33.89.49 1.96.49 3.22a9.7 9.7 0 0 1-.48 3.24A4.37 4.37 0 0 1 62 53.96c-.6.47-1.33.7-2.19.7Zm0-1.25c.85 0 1.51-.41 1.98-1.23.47-.82.7-1.98.7-3.5 0-1-.1-1.86-.32-2.57a3.53 3.53 0 0 0-.92-1.62c-.4-.37-.88-.56-1.44-.56-.84 0-1.5.42-1.97 1.25-.47.82-.7 1.99-.7 3.5a9 9 0 0 0 .3 2.57c.22.7.53 1.24.92 1.6.4.38.89.56 1.45.56Zm10.3-10.55V54.5H68.7V44.34h-.07l-2.84 1.89V44.8l2.9-1.94h1.42Zm3.7 11.64 5.21-10.3v-.09h-6v-1.25h7.46v1.32L75.3 54.5h-1.48Z" fill="#757575"/><rect x="1" y="29" width="292" height="39" rx="3.5" stroke="#545454"/><path d="M2.81 16.5H.84L4.43 6.32H6.7l3.6 10.18H8.32L5.6 8.4h-.08L2.8 16.5Zm.07-4h5.37V14H2.88v-1.5Zm11.76 7.02a4.7 4.7 0 0 1-1.66-.26c-.47-.17-.84-.4-1.12-.7a2.4 2.4 0 0 1-.59-.97l1.62-.39c.08.15.18.3.32.44.14.15.33.28.56.37.24.1.54.15.9.15.51 0 .94-.12 1.27-.37.34-.25.5-.65.5-1.22v-1.44h-.09a2.6 2.6 0 0 1-.4.57c-.18.2-.41.36-.7.5a3.14 3.14 0 0 1-2.68-.21c-.48-.29-.86-.7-1.14-1.25a4.6 4.6 0 0 1-.42-2.08c0-.84.14-1.55.42-2.13A2.93 2.93 0 0 1 15.27 9a2.29 2.29 0 0 1 1.08 1.14h.1V8.86h1.78v7.76c0 .66-.16 1.2-.47 1.63a2.8 2.8 0 0 1-1.28.95 5 5 0 0 1-1.84.32Zm.02-4.54c.38 0 .7-.1.97-.28.27-.19.48-.45.62-.8.13-.35.2-.77.2-1.25s-.07-.9-.2-1.27a1.8 1.8 0 0 0-.61-.84c-.27-.2-.6-.3-.98-.3-.4 0-.74.1-1 .31-.27.21-.48.5-.61.86-.14.37-.2.78-.2 1.24 0 .46.06.87.2 1.22s.34.62.61.82c.27.2.6.29 1 .29Zm8.8 1.67c-.77 0-1.43-.16-1.99-.48a3.23 3.23 0 0 1-1.28-1.36 4.56 4.56 0 0 1-.45-2.08c0-.79.15-1.48.45-2.07a3.38 3.38 0 0 1 3.17-1.9c.47 0 .91.08 1.33.23a3.17 3.17 0 0 1 1.88 1.9c.19.49.28 1.06.28 1.73v.55h-6.26v-1.2h4.53c0-.35-.07-.66-.22-.93a1.63 1.63 0 0 0-.61-.64 1.72 1.72 0 0 0-.9-.23c-.37 0-.7.09-.98.26-.27.18-.5.41-.65.7a2 2 0 0 0-.23.94v1.06c0 .44.08.82.24 1.14.17.32.4.56.68.73a2.25 2.25 0 0 0 1.74.14c.21-.08.4-.19.55-.34.16-.14.27-.32.35-.54l1.68.2c-.1.44-.3.82-.6 1.16a3 3 0 0 1-1.14.76c-.46.18-.98.27-1.58.27Zm11.72 0a3.7 3.7 0 0 1-1.94-.5 3.34 3.34 0 0 1-1.28-1.37 4.53 4.53 0 0 1-.44-2.07c0-.79.15-1.48.44-2.07.3-.6.73-1.06 1.28-1.38a3.7 3.7 0 0 1 1.94-.5c.74 0 1.39.17 1.93.5.55.32.97.79 1.27 1.38.3.6.45 1.28.45 2.07 0 .79-.15 1.48-.45 2.07-.3.59-.72 1.05-1.27 1.38-.54.33-1.19.49-1.93.49Zm0-1.44c.41 0 .75-.11 1.02-.34a2 2 0 0 0 .6-.9 3.85 3.85 0 0 0 .01-2.53 2 2 0 0 0-.61-.91 1.54 1.54 0 0 0-1.01-.34c-.42 0-.76.11-1.04.34-.27.22-.47.53-.61.9a3.95 3.95 0 0 0 0 2.54c.14.38.34.68.61.9.28.23.62.34 1.04.34Zm9.05-6.35v1.4h-4.51v-1.4h4.51Zm-3.39 7.64V8.14c0-.51.11-.94.32-1.28.22-.34.5-.6.87-.77a2.8 2.8 0 0 1 1.2-.25 4.15 4.15 0 0 1 1.37.21l-.36 1.4a3.12 3.12 0 0 0-.68-.12c-.33 0-.57.08-.7.25-.14.16-.21.38-.21.68v8.24h-1.8Zm8.35 0V6.32H51v3.8h.08c.09-.18.22-.38.39-.59.17-.2.4-.39.68-.54a2.91 2.91 0 0 1 3.83 1.55c.29.59.43 1.3.43 2.15a5 5 0 0 1-.41 2.14 2.89 2.89 0 0 1-2.73 1.8c-.44 0-.8-.07-1.1-.21a2.21 2.21 0 0 1-.7-.53 3.9 3.9 0 0 1-.4-.6h-.1v1.21H49.2Zm1.77-3.82c0 .5.07.93.2 1.3.15.37.35.66.62.87.27.2.59.3.97.3.4 0 .73-.1 1-.31.27-.22.47-.5.6-.88.15-.38.22-.8.22-1.28 0-.47-.07-.9-.2-1.26a1.9 1.9 0 0 0-.61-.87c-.27-.2-.6-.3-1-.3s-.72.1-.99.3c-.27.2-.47.48-.61.84-.14.37-.2.8-.2 1.3Zm6.97 3.82V8.86h1.8v7.64h-1.8Zm.9-8.72c-.28 0-.52-.1-.73-.28a.91.91 0 0 1-.3-.7c0-.27.1-.5.3-.69.2-.19.45-.28.74-.28.28 0 .53.1.73.28.2.2.3.42.3.7 0 .26-.1.5-.3.69-.2.19-.45.28-.73.28Zm2.75 8.72V8.86h1.75v1.28h.08a1.9 1.9 0 0 1 1.88-1.39 4.15 4.15 0 0 1 .65.05v1.66a3.34 3.34 0 0 0-.84-.1c-.33 0-.62.07-.88.2a1.56 1.56 0 0 0-.84 1.45v4.49h-1.8Zm9.78-7.64v1.4h-4.4v-1.4h4.4Zm-3.31-1.83h1.8v7.17c0 .25.04.43.1.56.08.13.18.21.3.26.13.04.26.07.41.07a1.76 1.76 0 0 0 .53-.07l.3 1.4a4 4 0 0 1-1.05.18 2.8 2.8 0 0 1-1.22-.2 1.9 1.9 0 0 1-.86-.7 2.1 2.1 0 0 1-.31-1.2V7.03Zm6.77 5v4.47h-1.8V6.32h1.76v3.84h.1c.17-.43.45-.77.82-1.02.38-.25.86-.38 1.45-.38.53 0 .99.12 1.38.34.4.22.7.54.92.97.22.43.33.95.33 1.57v4.86h-1.8v-4.58c0-.52-.14-.92-.4-1.2a1.42 1.42 0 0 0-1.1-.43c-.32 0-.6.07-.86.2-.25.14-.44.34-.59.6-.14.25-.2.57-.2.94Z" fill="#333"/></svg>