<svg width="33" height="24" fill="none" xmlns="http://www.w3.org/2000/svg"><path d="M1.15 18V6.36h2.1v9.87h5.13V18H1.15Zm8.97 0V9.27h2.06V18h-2.06Zm1.03-9.97c-.32 0-.6-.1-.84-.32a1.04 1.04 0 0 1-.35-.79c0-.31.12-.57.35-.79.24-.22.52-.33.84-.33.33 0 .61.11.84.33a1.05 1.05 0 0 1 0 1.58c-.23.22-.5.32-.84.32Zm5.2 4.86V18h-2.06V9.27h1.97v1.49h.1c.2-.5.52-.88.96-1.17.44-.29.99-.43 1.64-.43.6 0 1.13.13 1.58.39.45.25.8.63 1.04 1.11.25.5.37 1.09.37 1.78V18h-2.06v-5.24c0-.58-.15-1.04-.45-1.37a1.6 1.6 0 0 0-1.25-.5c-.36 0-.68.09-.96.25-.27.15-.49.38-.65.67-.15.3-.23.66-.23 1.08Zm9.57 2.37-.01-2.48h.33l3.14-3.5h2.4l-3.86 4.29h-.42l-1.58 1.7ZM24.04 18V6.36h2.06V18h-2.06Zm5.48 0-2.84-3.97 1.38-1.45L31.98 18h-2.46Z" fill="#0F67F5"/></svg>