<svg width="88" height="87" fill="none" xmlns="http://www.w3.org/2000/svg"><path d="M9.32 9.82V20H8.09v-8.89h-.06l-2.49 1.65v-1.25L8.1 9.8h1.23Zm5.09 10.26a.86.86 0 0 1-.63-.26.86.86 0 0 1-.27-.64c0-.24.09-.45.27-.63a.86.86 0 0 1 .63-.26.9.9 0 0 1 .77 1.34.93.93 0 0 1-.33.33.85.85 0 0 1-.44.12Zm7.82-.08V9.82h6.1v1.1h-4.86v3.43h4.41v1.1h-4.41V20h-1.24Zm8.06 0v-7.64h1.17V20H30.3Zm.6-8.9a.83.83 0 0 1-.6-.24.75.75 0 0 1-.24-.56c0-.22.08-.41.25-.57a.83.83 0 0 1 .59-.23c.23 0 .42.08.58.23.17.16.25.35.25.57 0 .21-.08.4-.25.56a.82.82 0 0 1-.58.23ZM33.6 20v-7.64h1.14v1.16h.08c.14-.38.39-.69.75-.92.37-.24.78-.36 1.23-.36a13.1 13.1 0 0 1 .62.02v1.2a3.45 3.45 0 0 0-.71-.08c-.38 0-.7.08-1 .23a1.71 1.71 0 0 0-.93 1.56V20H33.6Zm10.62-5.93-1.05.3a1.96 1.96 0 0 0-.3-.51c-.12-.17-.3-.3-.51-.42-.22-.1-.5-.16-.84-.16a2 2 0 0 0-1.17.32.94.94 0 0 0-.46.81c0 .3.1.52.31.7.22.16.55.3 1 .42l1.13.27c.68.17 1.2.42 1.53.76.33.34.5.78.5 1.31 0 .44-.13.83-.38 1.18-.25.34-.6.61-1.04.81-.45.2-.97.3-1.56.3-.78 0-1.43-.17-1.94-.5a2.25 2.25 0 0 1-.97-1.49l1.12-.28c.1.41.3.72.6.93.3.2.69.3 1.17.3.54 0 .98-.11 1.3-.34.32-.24.49-.52.49-.85a.9.9 0 0 0-.28-.66 1.78 1.78 0 0 0-.86-.41l-1.27-.3a3.04 3.04 0 0 1-1.54-.77 1.87 1.87 0 0 1-.49-1.32c0-.43.12-.81.37-1.14.24-.33.57-.6 1-.78.42-.2.9-.29 1.44-.29.75 0 1.35.17 1.78.5.43.33.74.77.92 1.31Zm5.23-1.7v.99H45.5v-1h3.96Zm-2.8-1.84h1.17v7.28c0 .33.04.58.14.75.1.16.23.27.38.33.15.05.32.08.5.08l.3-.02.2-.04.25 1.05a2.38 2.38 0 0 1-.88.14c-.33 0-.65-.07-.97-.21a1.94 1.94 0 0 1-.79-.66 1.9 1.9 0 0 1-.3-1.1v-7.6ZM4.75 49v-.9l3.37-3.67c.4-.43.72-.8.97-1.13.26-.32.45-.62.57-.9.12-.29.19-.59.19-.9a1.65 1.65 0 0 0-.96-1.53c-.3-.15-.62-.22-1-.22s-.72.08-1.02.25c-.28.16-.5.38-.67.67a2.1 2.1 0 0 0-.23 1.01H4.8c0-.6.13-1.12.4-1.57.28-.45.66-.8 1.13-1.05a3.39 3.39 0 0 1 1.6-.38c.6 0 1.13.12 1.6.38.45.25.82.59 1.08 1.02.26.42.39.9.39 1.42 0 .38-.07.74-.2 1.1-.14.36-.37.75-.7 1.19-.33.43-.78.96-1.37 1.6l-2.28 2.44v.08h4.73V49H4.77Zm9.65.08a.86.86 0 0 1-.63-.26.86.86 0 0 1-.27-.64c0-.24.09-.45.27-.63a.86.86 0 0 1 .63-.26.9.9 0 0 1 .77 1.34.93.93 0 0 1-.33.33.85.85 0 0 1-.44.12Zm13.4-7.72a1.6 1.6 0 0 0-.73-1.17 2.78 2.78 0 0 0-1.57-.42c-.45 0-.84.08-1.18.22-.33.15-.6.35-.78.6a1.44 1.44 0 0 0-.09 1.57c.13.2.3.36.5.49a5.58 5.58 0 0 0 1.28.5l1.03.28a9 9 0 0 1 .88.29c.33.12.65.29.94.5.3.21.55.48.75.8a2.68 2.68 0 0 1-.14 2.71c-.28.44-.7.8-1.25 1.06s-1.21.39-2 .39c-.72 0-1.36-.12-1.89-.35a2.8 2.8 0 0 1-1.76-2.45h1.27c.03.38.16.7.39.95.22.25.51.43.86.56.35.12.73.18 1.13.18.48 0 .9-.08 1.27-.23.38-.16.67-.37.9-.65.21-.28.32-.6.32-.97 0-.34-.1-.62-.28-.83a2.08 2.08 0 0 0-.75-.52 7.8 7.8 0 0 0-1-.34l-1.25-.36a4.66 4.66 0 0 1-1.89-.98c-.46-.43-.7-.98-.7-1.67 0-.57.16-1.06.47-1.49.3-.43.73-.76 1.25-1a4.23 4.23 0 0 1 1.76-.35c.66 0 1.24.12 1.75.35.51.23.92.55 1.22.96.3.4.46.86.47 1.37H27.8Zm6.4 7.8a3.27 3.27 0 0 1-3.13-1.86 4.68 4.68 0 0 1-.44-2.06c0-.78.15-1.47.43-2.07a3.23 3.23 0 0 1 3.01-1.9c.4 0 .8.06 1.18.2a2.92 2.92 0 0 1 1.82 1.81 5 5 0 0 1 .29 1.8v.5h-5.9v-1.01h4.7c0-.44-.08-.82-.26-1.16a1.95 1.95 0 0 0-1.83-1.1 2 2 0 0 0-1.2.36c-.35.22-.6.52-.79.9-.18.36-.27.75-.27 1.17v.68c0 .58.1 1.07.3 1.47.2.4.48.7.84.9.35.21.77.32 1.24.32.31 0 .59-.05.84-.13.25-.1.47-.23.65-.4.18-.18.32-.4.42-.67l1.14.32c-.12.38-.32.72-.6 1.01-.29.3-.64.52-1.05.68-.41.16-.88.24-1.4.24Zm8.04 0a3.3 3.3 0 0 1-1.85-.5 3.3 3.3 0 0 1-1.19-1.4 4.73 4.73 0 0 1-.42-2.04c0-.77.14-1.46.43-2.05a3.23 3.23 0 0 1 3.01-1.9c.54 0 1.02.1 1.45.3a2.6 2.6 0 0 1 1.57 2.09h-1.17a1.79 1.79 0 0 0-1.83-1.33 1.9 1.9 0 0 0-1.2.35c-.34.23-.6.56-.8 1a3.7 3.7 0 0 0-.28 1.5 4 4 0 0 0 .27 1.54c.2.44.46.78.8 1.02s.75.37 1.21.37c.3 0 .58-.06.83-.16a1.71 1.71 0 0 0 1-1.18h1.18a2.72 2.72 0 0 1-1.53 2.08c-.42.2-.91.3-1.48.3Zm7.82 0a3.2 3.2 0 0 1-1.81-.5 3.34 3.34 0 0 1-1.22-1.37 4.66 4.66 0 0 1-.43-2.07c0-.8.15-1.49.43-2.08a3.3 3.3 0 0 1 3.03-1.88 3.3 3.3 0 0 1 3.02 1.87c.3.6.44 1.3.44 2.1 0 .78-.14 1.47-.43 2.06a3.3 3.3 0 0 1-1.22 1.38 3.3 3.3 0 0 1-1.8.49Zm0-1.05c.53 0 .96-.14 1.3-.4.33-.28.58-.63.75-1.07a4.25 4.25 0 0 0 0-2.85 2.4 2.4 0 0 0-.75-1.06 2 2 0 0 0-1.3-.41 2 2 0 0 0-1.29.4 2.4 2.4 0 0 0-.75 1.07 4.1 4.1 0 0 0-.24 1.43c0 .51.08.99.24 1.42.16.44.41.8.75 1.06.34.27.77.4 1.3.4Zm6.43-3.7V49h-1.18v-7.64h1.14v1.2h.1c.18-.4.45-.7.81-.94.37-.24.84-.36 1.41-.36.52 0 .97.11 1.36.32.39.21.7.53.9.96.22.42.33.96.33 1.6V49H60.2v-4.77c0-.6-.16-1.07-.47-1.4a1.65 1.65 0 0 0-1.28-.51c-.38 0-.71.08-1 .24-.3.16-.53.4-.7.71-.17.31-.25.7-.25 1.14Zm9.9 4.75a2.99 2.99 0 0 1-2.83-1.86 4.86 4.86 0 0 1-.41-2.1 5 5 0 0 1 .4-2.09 3.03 3.03 0 0 1 2.85-1.85c.5 0 .9.09 1.19.25.29.17.5.35.66.56.16.2.28.37.36.5h.1v-3.75h1.18V49h-1.14v-1.17h-.14c-.08.14-.2.31-.36.52-.16.21-.39.4-.68.57-.3.16-.7.24-1.18.24Zm.16-1.05c.47 0 .86-.13 1.19-.37.32-.25.57-.6.74-1.03.17-.44.25-.95.25-1.53 0-.57-.08-1.07-.25-1.5a1.96 1.96 0 0 0-1.94-1.37c-.5 0-.9.14-1.24.4-.33.24-.57.59-.74 1.02a4.1 4.1 0 0 0-.24 1.45c0 .55.08 1.04.25 1.48.17.44.41.8.74 1.06s.75.39 1.24.39ZM7.99 78.14c-.66 0-1.24-.11-1.76-.34a3 3 0 0 1-1.22-.94c-.3-.4-.46-.87-.48-1.4h1.25c.03.32.14.6.34.84s.46.42.78.55c.32.13.68.2 1.07.2.43 0 .82-.08 1.16-.23.34-.16.6-.37.8-.64a1.87 1.87 0 0 0 .01-1.94 1.84 1.84 0 0 0-.82-.67c-.36-.16-.8-.24-1.31-.24h-.82v-1.1h.82c.4 0 .76-.07 1.06-.22a1.65 1.65 0 0 0 .98-1.55c0-.34-.07-.64-.22-.9a1.56 1.56 0 0 0-.65-.6 2.1 2.1 0 0 0-.97-.2c-.35 0-.69.06-1 .19-.3.12-.56.3-.75.55-.2.24-.3.53-.32.86h-1.2c.03-.53.19-1 .49-1.4.3-.4.7-.72 1.18-.94a3.82 3.82 0 0 1 3.24.04 2.7 2.7 0 0 1 1.4 2.34 2.3 2.3 0 0 1-1.67 2.3v.09c.64.1 1.14.38 1.5.82.37.44.55.98.55 1.63a2.6 2.6 0 0 1-.45 1.49c-.3.43-.71.78-1.23 1.03-.51.25-1.1.38-1.76.38Zm6.42-.06a.86.86 0 0 1-.63-.26.86.86 0 0 1-.27-.64c0-.24.09-.45.27-.63a.86.86 0 0 1 .63-.26.9.9 0 0 1 .77 1.34.93.93 0 0 1-.33.33.85.85 0 0 1-.44.12Zm7.27-9.17v-1.1h7.63v1.1h-3.2V78h-1.23v-9.09h-3.2Zm10.55 4.5V78h-1.17V67.82h1.17v3.74h.1c.18-.4.45-.71.8-.94a2.6 2.6 0 0 1 1.45-.36c.52 0 .97.1 1.36.32.4.2.7.52.91.95.22.42.33.96.33 1.62V78h-1.17v-4.77a2 2 0 0 0-.47-1.41c-.32-.33-.75-.5-1.3-.5-.39 0-.73.08-1.04.24-.3.16-.54.4-.71.71-.17.31-.26.7-.26 1.14Zm7.1 4.59v-7.64h1.17V78h-1.17Zm.6-8.9a.83.83 0 0 1-.6-.24.75.75 0 0 1-.24-.56c0-.22.08-.41.24-.57a.83.83 0 0 1 .6-.23c.22 0 .42.08.58.23.17.16.25.35.25.57 0 .21-.08.4-.25.56a.82.82 0 0 1-.59.23Zm2.72 8.9v-7.64h1.13v1.16h.08c.14-.38.4-.69.76-.92.36-.24.77-.36 1.23-.36a13.1 13.1 0 0 1 .62.02v1.2a3.45 3.45 0 0 0-.72-.08c-.37 0-.7.08-1 .23a1.71 1.71 0 0 0-.93 1.56V78h-1.17Zm7.86.16a2.99 2.99 0 0 1-2.83-1.86 5.01 5.01 0 0 1-.41-2.1 5 5 0 0 1 .41-2.09 3.03 3.03 0 0 1 2.85-1.85c.5 0 .89.09 1.18.25.29.17.51.35.66.56l.37.5h.1v-3.75H54V78h-1.13v-1.17h-.14l-.37.52c-.16.21-.39.4-.68.57-.3.16-.69.24-1.18.24Zm.16-1.05a2 2 0 0 0 1.2-.37c.32-.25.56-.6.73-1.03.17-.44.26-.95.26-1.53 0-.57-.09-1.07-.25-1.5a1.96 1.96 0 0 0-1.94-1.37c-.5 0-.91.14-1.24.4-.33.24-.58.59-.74 1.02a4.1 4.1 0 0 0-.25 1.45c0 .55.08 1.04.25 1.48.17.44.42.8.75 1.06s.74.39 1.23.39Z" fill="#000"/></svg>