<svg width="88" height="87" viewBox="0 0 88 87" fill="none" xmlns="http://www.w3.org/2000/svg">
<path d="M9.31971 9.81818V20H8.08675V11.1108H8.02709L5.5413 12.7614V11.5085L8.08675 9.81818H9.31971ZM14.4069 20.0795C14.1616 20.0795 13.9512 19.9917 13.7755 19.8161C13.5998 19.6404 13.512 19.4299 13.512 19.1847C13.512 18.9394 13.5998 18.7289 13.7755 18.5533C13.9512 18.3776 14.1616 18.2898 14.4069 18.2898C14.6522 18.2898 14.8626 18.3776 15.0383 18.5533C15.2139 18.7289 15.3018 18.9394 15.3018 19.1847C15.3018 19.3471 15.2603 19.4962 15.1775 19.6321C15.0979 19.768 14.9902 19.8774 14.8543 19.9602C14.7218 20.0398 14.5726 20.0795 14.4069 20.0795ZM22.233 20V9.81818H28.3381V10.9119H23.4659V14.3523H27.8807V15.446H23.4659V20H22.233ZM30.2907 20V12.3636H31.464V20H30.2907ZM30.8873 11.0909C30.6586 11.0909 30.4614 11.013 30.2956 10.8572C30.1332 10.7015 30.052 10.5142 30.052 10.2955C30.052 10.0767 30.1332 9.88944 30.2956 9.73366C30.4614 9.57789 30.6586 9.5 30.8873 9.5C31.1159 9.5 31.3115 9.57789 31.4739 9.73366C31.6396 9.88944 31.7225 10.0767 31.7225 10.2955C31.7225 10.5142 31.6396 10.7015 31.4739 10.8572C31.3115 11.013 31.1159 11.0909 30.8873 11.0909ZM33.6129 20V12.3636H34.7464V13.517H34.826C34.9652 13.1392 35.2171 12.8326 35.5817 12.5973C35.9463 12.362 36.3572 12.2443 36.8146 12.2443C36.9008 12.2443 37.0085 12.246 37.1378 12.2493C37.267 12.2526 37.3648 12.2576 37.4311 12.2642V13.4574C37.3913 13.4474 37.3002 13.4325 37.1577 13.4126C37.0185 13.3894 36.871 13.3778 36.7152 13.3778C36.344 13.3778 36.0125 13.4557 35.7209 13.6115C35.4325 13.764 35.2038 13.9761 35.0348 14.2479C34.8691 14.5163 34.7862 14.8229 34.7862 15.1676V20H33.6129ZM44.231 14.0739L43.177 14.3722C43.1107 14.1965 43.013 14.0258 42.8837 13.8601C42.7578 13.6911 42.5854 13.5518 42.3667 13.4425C42.1479 13.3331 41.8678 13.2784 41.5265 13.2784C41.0591 13.2784 40.6697 13.3861 40.3581 13.6016C40.0499 13.8137 39.8958 14.0838 39.8958 14.4119C39.8958 14.7036 40.0018 14.9339 40.214 15.103C40.4261 15.272 40.7575 15.4129 41.2083 15.5256L42.3418 15.804C43.0246 15.9697 43.5333 16.2232 43.8681 16.5646C44.2028 16.9027 44.3702 17.3385 44.3702 17.8722C44.3702 18.3097 44.2443 18.7008 43.9924 19.0455C43.7438 19.3902 43.3958 19.6619 42.9483 19.8608C42.5009 20.0597 41.9805 20.1591 41.3873 20.1591C40.6084 20.1591 39.9637 19.9901 39.4533 19.652C38.9429 19.3139 38.6197 18.8201 38.4838 18.1705L39.5975 17.892C39.7035 18.303 39.9041 18.6113 40.199 18.8168C40.4973 19.0223 40.8868 19.125 41.3674 19.125C41.9142 19.125 42.3484 19.009 42.6699 18.777C42.9947 18.5417 43.1571 18.2599 43.1571 17.9318C43.1571 17.6667 43.0643 17.4446 42.8787 17.2656C42.6931 17.0833 42.4081 16.9474 42.0236 16.858L40.7509 16.5597C40.0516 16.3939 39.5378 16.1371 39.2097 15.7891C38.8849 15.4377 38.7225 14.9986 38.7225 14.4716C38.7225 14.0407 38.8435 13.6596 39.0854 13.3281C39.3307 12.9967 39.6638 12.7365 40.0847 12.5476C40.5089 12.3587 40.9895 12.2642 41.5265 12.2642C42.2821 12.2642 42.8754 12.4299 43.3063 12.7614C43.7405 13.0928 44.0487 13.5303 44.231 14.0739ZM49.4574 12.3636V13.358H45.5V12.3636H49.4574ZM46.6534 10.5341H47.8267V17.8125C47.8267 18.1439 47.8748 18.3925 47.9709 18.5582C48.0703 18.7206 48.1963 18.83 48.3487 18.8864C48.5045 18.9394 48.6686 18.9659 48.8409 18.9659C48.9702 18.9659 49.0762 18.9593 49.1591 18.946C49.242 18.9295 49.3082 18.9162 49.358 18.9062L49.5966 19.9602C49.517 19.9901 49.406 20.0199 49.2635 20.0497C49.121 20.0829 48.9403 20.0994 48.7216 20.0994C48.3902 20.0994 48.0653 20.0282 47.7472 19.8857C47.4323 19.7431 47.1705 19.526 46.9616 19.2344C46.7562 18.9427 46.6534 18.5748 46.6534 18.1307V10.5341ZM4.76573 49V48.1051L8.12653 44.4261C8.52094 43.9953 8.84575 43.6207 9.10096 43.3026C9.35617 42.9811 9.54509 42.6795 9.66772 42.3977C9.79367 42.1127 9.85664 41.8144 9.85664 41.5028C9.85664 41.1449 9.77047 40.835 9.59812 40.5732C9.42908 40.3113 9.19708 40.1091 8.90209 39.9666C8.60711 39.8241 8.27567 39.7528 7.90778 39.7528C7.51668 39.7528 7.1753 39.834 6.88363 39.9964C6.59528 40.1555 6.37155 40.3793 6.21246 40.6676C6.05669 40.956 5.9788 41.294 5.9788 41.6818H4.8055C4.8055 41.0852 4.94305 40.5616 5.21815 40.1108C5.49324 39.66 5.86777 39.3087 6.34173 39.0568C6.819 38.8049 7.35427 38.679 7.94755 38.679C8.54414 38.679 9.07279 38.8049 9.53349 39.0568C9.99419 39.3087 10.3555 39.6484 10.6173 40.076C10.8791 40.5036 11.01 40.9792 11.01 41.5028C11.01 41.8774 10.9421 42.2436 10.8062 42.6016C10.6736 42.9562 10.4416 43.3523 10.1102 43.7898C9.78207 44.224 9.32634 44.7543 8.743 45.3807L6.45607 47.8267V47.9062H11.189V49H4.76573ZM14.4069 49.0795C14.1616 49.0795 13.9512 48.9917 13.7755 48.8161C13.5998 48.6404 13.512 48.4299 13.512 48.1847C13.512 47.9394 13.5998 47.7289 13.7755 47.5533C13.9512 47.3776 14.1616 47.2898 14.4069 47.2898C14.6522 47.2898 14.8626 47.3776 15.0383 47.5533C15.2139 47.7289 15.3018 47.9394 15.3018 48.1847C15.3018 48.3471 15.2603 48.4962 15.1775 48.6321C15.0979 48.768 14.9902 48.8774 14.8543 48.9602C14.7218 49.0398 14.5726 49.0795 14.4069 49.0795ZM27.8011 41.3636C27.7415 40.8598 27.4995 40.4688 27.0753 40.1903C26.651 39.9119 26.1307 39.7727 25.5142 39.7727C25.0634 39.7727 24.669 39.8456 24.331 39.9915C23.9962 40.1373 23.7344 40.3378 23.5455 40.593C23.3598 40.8482 23.267 41.1383 23.267 41.4631C23.267 41.7348 23.3317 41.9685 23.4609 42.1641C23.5935 42.3563 23.7625 42.517 23.968 42.6463C24.1735 42.7723 24.389 42.8767 24.6143 42.9595C24.8397 43.0391 25.0469 43.1037 25.2358 43.1534L26.2699 43.4318C26.535 43.5014 26.83 43.5975 27.1548 43.7202C27.483 43.8428 27.7962 44.0102 28.0945 44.2223C28.3961 44.4311 28.6446 44.6996 28.8402 45.0277C29.0357 45.3558 29.1335 45.7585 29.1335 46.2358C29.1335 46.786 28.9893 47.2831 28.701 47.7273C28.416 48.1714 27.9983 48.5244 27.4482 48.7862C26.9013 49.0481 26.2367 49.179 25.4545 49.179C24.7254 49.179 24.094 49.0613 23.5604 48.826C23.0301 48.5907 22.6125 48.2625 22.3075 47.8416C22.0059 47.4207 21.8352 46.9318 21.7955 46.375H23.0682C23.1013 46.7595 23.2306 47.0777 23.456 47.3295C23.6847 47.5781 23.973 47.7637 24.321 47.8864C24.6723 48.0057 25.0502 48.0653 25.4545 48.0653C25.9252 48.0653 26.3478 47.9891 26.7223 47.8366C27.0968 47.6809 27.3935 47.4654 27.6122 47.1903C27.831 46.9119 27.9403 46.5871 27.9403 46.2159C27.9403 45.8778 27.8459 45.6027 27.657 45.3906C27.468 45.1785 27.2195 45.0062 26.9112 44.8736C26.603 44.741 26.2699 44.625 25.9119 44.5256L24.6591 44.1676C23.8636 43.9389 23.2339 43.6125 22.7699 43.1882C22.3059 42.764 22.0739 42.2088 22.0739 41.5227C22.0739 40.9527 22.228 40.4555 22.5362 40.0312C22.8478 39.6037 23.2654 39.2723 23.7891 39.0369C24.3161 38.7983 24.9044 38.679 25.554 38.679C26.2102 38.679 26.7936 38.7966 27.304 39.032C27.8144 39.264 28.2188 39.5821 28.517 39.9865C28.8187 40.3909 28.9777 40.8499 28.9943 41.3636H27.8011ZM34.2033 49.1591C33.4675 49.1591 32.8328 48.9967 32.2992 48.6719C31.7689 48.3438 31.3596 47.8864 31.0712 47.2997C30.7862 46.7098 30.6436 46.0237 30.6436 45.2415C30.6436 44.4593 30.7862 43.7699 31.0712 43.1733C31.3596 42.5734 31.7606 42.1061 32.2743 41.7713C32.7914 41.4332 33.3946 41.2642 34.084 41.2642C34.4817 41.2642 34.8745 41.3305 35.2623 41.4631C35.65 41.5956 36.003 41.8111 36.3212 42.1094C36.6394 42.4044 36.8929 42.7955 37.0819 43.2827C37.2708 43.7699 37.3652 44.3698 37.3652 45.0824V45.5795H31.4789V44.5653H36.1721C36.1721 44.1345 36.0859 43.75 35.9135 43.4119C35.7445 43.0739 35.5025 42.8071 35.1877 42.6115C34.8761 42.416 34.5082 42.3182 34.084 42.3182C33.6167 42.3182 33.2123 42.4342 32.8709 42.6662C32.5328 42.8949 32.2727 43.1932 32.0904 43.5611C31.9081 43.929 31.8169 44.3234 31.8169 44.7443V45.4205C31.8169 45.9972 31.9164 46.486 32.1152 46.8871C32.3174 47.2848 32.5975 47.5881 32.9554 47.7969C33.3134 48.0024 33.7293 48.1051 34.2033 48.1051C34.5115 48.1051 34.79 48.062 35.0385 47.9759C35.2904 47.8864 35.5075 47.7538 35.6898 47.5781C35.8721 47.3991 36.013 47.1771 36.1124 46.9119L37.2459 47.2301C37.1266 47.6146 36.9261 47.9527 36.6444 48.2443C36.3626 48.5327 36.0146 48.758 35.6003 48.9205C35.186 49.0795 34.7203 49.1591 34.2033 49.1591ZM42.2523 49.1591C41.5364 49.1591 40.9199 48.9901 40.4029 48.652C39.8858 48.3139 39.4881 47.8482 39.2097 47.255C38.9313 46.6617 38.7921 45.9839 38.7921 45.2216C38.7921 44.446 38.9346 43.7616 39.2196 43.1683C39.508 42.5717 39.909 42.1061 40.4228 41.7713C40.9398 41.4332 41.543 41.2642 42.2324 41.2642C42.7694 41.2642 43.2533 41.3636 43.6841 41.5625C44.115 41.7614 44.468 42.0398 44.7431 42.3977C45.0182 42.7557 45.1889 43.1733 45.2551 43.6506H44.0819C43.9924 43.3026 43.7935 42.9943 43.4853 42.7259C43.1803 42.4541 42.7694 42.3182 42.2523 42.3182C41.7949 42.3182 41.3939 42.4375 41.0492 42.6761C40.7078 42.9115 40.441 43.2446 40.2488 43.6754C40.0598 44.103 39.9654 44.6051 39.9654 45.1818C39.9654 45.7718 40.0582 46.2855 40.2438 46.723C40.4327 47.1605 40.6979 47.5002 41.0392 47.7422C41.3839 47.9841 41.7883 48.1051 42.2523 48.1051C42.5572 48.1051 42.834 48.0521 43.0826 47.946C43.3311 47.84 43.5416 47.6875 43.714 47.4886C43.8863 47.2898 44.0089 47.0511 44.0819 46.7727H45.2551C45.1889 47.2235 45.0248 47.6295 44.763 47.9908C44.5044 48.3487 44.1614 48.6338 43.7338 48.8459C43.3096 49.0547 42.8158 49.1591 42.2523 49.1591ZM50.0726 49.1591C49.3832 49.1591 48.7784 48.995 48.258 48.6669C47.7409 48.3388 47.3366 47.8797 47.0449 47.2898C46.7566 46.6998 46.6124 46.0104 46.6124 45.2216C46.6124 44.4261 46.7566 43.7318 47.0449 43.1385C47.3366 42.5452 47.7409 42.0845 48.258 41.7564C48.7784 41.4283 49.3832 41.2642 50.0726 41.2642C50.762 41.2642 51.3652 41.4283 51.8823 41.7564C52.4026 42.0845 52.807 42.5452 53.0953 43.1385C53.387 43.7318 53.5328 44.4261 53.5328 45.2216C53.5328 46.0104 53.387 46.6998 53.0953 47.2898C52.807 47.8797 52.4026 48.3388 51.8823 48.6669C51.3652 48.995 50.762 49.1591 50.0726 49.1591ZM50.0726 48.1051C50.5963 48.1051 51.0272 47.9709 51.3652 47.7024C51.7033 47.4339 51.9535 47.081 52.1159 46.6435C52.2784 46.206 52.3596 45.732 52.3596 45.2216C52.3596 44.7112 52.2784 44.2356 52.1159 43.7947C51.9535 43.3539 51.7033 42.9976 51.3652 42.7259C51.0272 42.4541 50.5963 42.3182 50.0726 42.3182C49.5489 42.3182 49.1181 42.4541 48.78 42.7259C48.4419 42.9976 48.1917 43.3539 48.0293 43.7947C47.8669 44.2356 47.7857 44.7112 47.7857 45.2216C47.7857 45.732 47.8669 46.206 48.0293 46.6435C48.1917 47.081 48.4419 47.4339 48.78 47.7024C49.1181 47.9709 49.5489 48.1051 50.0726 48.1051ZM56.4972 44.4062V49H55.3239V41.3636H56.4574V42.5568H56.5568C56.7358 42.169 57.0076 41.8575 57.3722 41.6222C57.7367 41.3835 58.2074 41.2642 58.7841 41.2642C59.3011 41.2642 59.7536 41.3703 60.1413 41.5824C60.5291 41.7912 60.8307 42.1094 61.0462 42.5369C61.2616 42.9612 61.3693 43.4981 61.3693 44.1477V49H60.196V44.2273C60.196 43.6274 60.0402 43.16 59.7287 42.8253C59.4171 42.4872 58.9896 42.3182 58.446 42.3182C58.0715 42.3182 57.7367 42.3994 57.4418 42.5618C57.1501 42.7242 56.9197 42.9612 56.7507 43.2727C56.5817 43.5843 56.4972 43.9621 56.4972 44.4062ZM66.3968 49.1591C65.7605 49.1591 65.1987 48.9983 64.7115 48.6768C64.2243 48.352 63.8431 47.8946 63.568 47.3047C63.2929 46.7114 63.1554 46.0104 63.1554 45.2017C63.1554 44.3996 63.2929 43.7036 63.568 43.1136C63.8431 42.5237 64.2259 42.0679 64.7164 41.7464C65.207 41.425 65.7737 41.2642 66.4167 41.2642C66.9139 41.2642 67.3066 41.3471 67.595 41.5128C67.8867 41.6752 68.1087 41.8608 68.2612 42.0696C68.417 42.2751 68.5379 42.4441 68.6241 42.5767H68.7235V38.8182H69.8968V49H68.7633V47.8267H68.6241C68.5379 47.9659 68.4153 48.1416 68.2562 48.3537C68.0971 48.5625 67.8701 48.7498 67.5751 48.9155C67.2801 49.0779 66.8874 49.1591 66.3968 49.1591ZM66.5559 48.1051C67.0266 48.1051 67.4243 47.9825 67.7491 47.7372C68.0739 47.4886 68.3208 47.1456 68.4899 46.7081C68.6589 46.2673 68.7434 45.7585 68.7434 45.1818C68.7434 44.6117 68.6606 44.1129 68.4949 43.6854C68.3291 43.2545 68.0839 42.9197 67.7591 42.6811C67.4342 42.4392 67.0332 42.3182 66.5559 42.3182C66.0588 42.3182 65.6445 42.4458 65.313 42.701C64.9849 42.9529 64.738 43.2959 64.5723 43.7301C64.4099 44.161 64.3287 44.6449 64.3287 45.1818C64.3287 45.7254 64.4115 46.2192 64.5772 46.6634C64.7463 47.1042 64.9949 47.4555 65.323 47.7173C65.6544 47.9759 66.0654 48.1051 66.5559 48.1051ZM7.98732 78.1392C7.33107 78.1392 6.74608 78.0265 6.23235 77.8011C5.72193 77.5758 5.31592 77.2625 5.01431 76.8615C4.71601 76.4571 4.55361 75.9882 4.52709 75.4545H5.77994C5.80645 75.7827 5.91914 76.0661 6.118 76.3047C6.31687 76.54 6.57705 76.7223 6.89854 76.8516C7.22004 76.9808 7.57634 77.0455 7.96744 77.0455C8.40494 77.0455 8.79272 76.9692 9.13079 76.8168C9.46886 76.6643 9.73401 76.4522 9.92624 76.1804C10.1185 75.9086 10.2146 75.5938 10.2146 75.2358C10.2146 74.8613 10.1218 74.5315 9.93619 74.2464C9.75058 73.9581 9.4788 73.7327 9.12084 73.5703C8.76289 73.4079 8.32539 73.3267 7.80834 73.3267H6.993V72.233H7.80834C8.2127 72.233 8.56734 72.16 8.87227 72.0142C9.1805 71.8684 9.4208 71.6629 9.59315 71.3977C9.76881 71.1326 9.85664 70.821 9.85664 70.4631C9.85664 70.1184 9.78041 69.8184 9.62795 69.5632C9.47548 69.308 9.26005 69.1091 8.98164 68.9666C8.70655 68.8241 8.38173 68.7528 8.00721 68.7528C7.65588 68.7528 7.32444 68.8175 7.01289 68.9467C6.70465 69.0727 6.45276 69.2566 6.25721 69.4986C6.06166 69.7372 5.9556 70.0256 5.93903 70.3636H4.74584C4.76573 69.83 4.92648 69.3627 5.22809 68.9616C5.5297 68.5573 5.92411 68.2424 6.41133 68.017C6.90186 67.7917 7.44045 67.679 8.02709 67.679C8.65683 67.679 9.19708 67.8066 9.64783 68.0618C10.0986 68.3137 10.4449 68.6468 10.6869 69.0611C10.9288 69.4754 11.0498 69.9228 11.0498 70.4034C11.0498 70.9768 10.899 71.4657 10.5974 71.87C10.2991 72.2744 9.8931 72.5545 9.37937 72.7102V72.7898C10.0224 72.8958 10.5245 73.1693 10.8858 73.6101C11.247 74.0476 11.4277 74.5895 11.4277 75.2358C11.4277 75.7893 11.2769 76.2865 10.9752 76.7273C10.677 77.1648 10.2693 77.5095 9.75224 77.7614C9.23519 78.0133 8.64689 78.1392 7.98732 78.1392ZM14.4069 78.0795C14.1616 78.0795 13.9512 77.9917 13.7755 77.8161C13.5998 77.6404 13.512 77.4299 13.512 77.1847C13.512 76.9394 13.5998 76.7289 13.7755 76.5533C13.9512 76.3776 14.1616 76.2898 14.4069 76.2898C14.6522 76.2898 14.8626 76.3776 15.0383 76.5533C15.2139 76.7289 15.3018 76.9394 15.3018 77.1847C15.3018 77.3471 15.2603 77.4962 15.1775 77.6321C15.0979 77.768 14.9902 77.8774 14.8543 77.9602C14.7218 78.0398 14.5726 78.0795 14.4069 78.0795ZM21.6761 68.9119V67.8182H29.3125V68.9119H26.1108V78H24.8778V68.9119H21.6761ZM32.2296 73.4062V78H31.0563V67.8182H32.2296V71.5568H32.329C32.508 71.1624 32.7765 70.8492 33.1344 70.6172C33.4957 70.3819 33.9763 70.2642 34.5762 70.2642C35.0965 70.2642 35.5523 70.3686 35.9434 70.5774C36.3345 70.7829 36.6377 71.0994 36.8532 71.527C37.0719 71.9512 37.1813 72.4915 37.1813 73.1477V78H36.008V73.2273C36.008 72.6207 35.8506 72.1518 35.5357 71.8203C35.2241 71.4856 34.7916 71.3182 34.2381 71.3182C33.8536 71.3182 33.5089 71.3994 33.204 71.5618C32.9024 71.7242 32.6638 71.9612 32.4881 72.2727C32.3158 72.5843 32.2296 72.9621 32.2296 73.4062ZM39.3278 78V70.3636H40.5011V78H39.3278ZM39.9244 69.0909C39.6957 69.0909 39.4985 69.013 39.3327 68.8572C39.1703 68.7015 39.0891 68.5142 39.0891 68.2955C39.0891 68.0767 39.1703 67.8894 39.3327 67.7337C39.4985 67.5779 39.6957 67.5 39.9244 67.5C40.1531 67.5 40.3486 67.5779 40.511 67.7337C40.6767 67.8894 40.7596 68.0767 40.7596 68.2955C40.7596 68.5142 40.6767 68.7015 40.511 68.8572C40.3486 69.013 40.1531 69.0909 39.9244 69.0909ZM42.65 78V70.3636H43.7836V71.517H43.8631C44.0023 71.1392 44.2542 70.8326 44.6188 70.5973C44.9834 70.362 45.3944 70.2443 45.8517 70.2443C45.9379 70.2443 46.0456 70.246 46.1749 70.2493C46.3042 70.2526 46.4019 70.2576 46.4682 70.2642V71.4574C46.4284 71.4474 46.3373 71.4325 46.1948 71.4126C46.0556 71.3894 45.9081 71.3778 45.7523 71.3778C45.3811 71.3778 45.0497 71.4557 44.758 71.6115C44.4696 71.764 44.2409 71.9761 44.0719 72.2479C43.9062 72.5163 43.8233 72.8229 43.8233 73.1676V78H42.65ZM50.5101 78.1591C49.8738 78.1591 49.312 77.9983 48.8248 77.6768C48.3375 77.352 47.9564 76.8946 47.6813 76.3047C47.4062 75.7114 47.2686 75.0104 47.2686 74.2017C47.2686 73.3996 47.4062 72.7036 47.6813 72.1136C47.9564 71.5237 48.3392 71.0679 48.8297 70.7464C49.3203 70.425 49.887 70.2642 50.53 70.2642C51.0272 70.2642 51.4199 70.3471 51.7083 70.5128C51.9999 70.6752 52.222 70.8608 52.3745 71.0696C52.5302 71.2751 52.6512 71.4441 52.7374 71.5767H52.8368V67.8182H54.0101V78H52.8766V76.8267H52.7374C52.6512 76.9659 52.5286 77.1416 52.3695 77.3537C52.2104 77.5625 51.9834 77.7498 51.6884 77.9155C51.3934 78.0779 51.0007 78.1591 50.5101 78.1591ZM50.6692 77.1051C51.1399 77.1051 51.5376 76.9825 51.8624 76.7372C52.1872 76.4886 52.4341 76.1456 52.6032 75.7081C52.7722 75.2673 52.8567 74.7585 52.8567 74.1818C52.8567 73.6117 52.7739 73.1129 52.6081 72.6854C52.4424 72.2545 52.1971 71.9197 51.8723 71.6811C51.5475 71.4392 51.1465 71.3182 50.6692 71.3182C50.1721 71.3182 49.7578 71.4458 49.4263 71.701C49.0982 71.9529 48.8513 72.2959 48.6855 72.7301C48.5231 73.161 48.4419 73.6449 48.4419 74.1818C48.4419 74.7254 48.5248 75.2192 48.6905 75.6634C48.8596 76.1042 49.1081 76.4555 49.4363 76.7173C49.7677 76.9759 50.1787 77.1051 50.6692 77.1051Z" fill="black"/>
</svg>
