<svg width="314" height="184" fill="none" xmlns="http://www.w3.org/2000/svg"><g filter="url(#a)"><rect x="6" y="3" width="294" height="172" rx="8" fill="#fff"/><rect x="18" y="15" width="270" height="74" rx="4" fill="#F0F6FE"/><path d="M35.38 45.13v.5h13.25v-9.25h.75V46c0 .2-.17.38-.38.38H35a.38.38 0 0 1-.38-.38v-9.62h.76v8.75Zm14-9.75H34.62V35c0-.18.12-.33.3-.37h14.17c.16.04.29.19.29.37v.38Zm1-.38c0-.54-.3-1-.75-1.23v-2.39H34.38v2.39c-.45.23-.76.7-.76 1.23v-4c0-.2.17-.38.38-.38h16c.2 0 .38.17.38.38v4Z" fill="#0F67F5" stroke="#0F67F5"/><path d="M69.47 36.56c-.05-.5-.27-.88-.67-1.16-.39-.27-.9-.41-1.52-.41-.44 0-.82.06-1.13.2-.32.13-.56.31-.72.54a1.31 1.31 0 0 0-.1 1.4c.12.18.27.34.47.46.19.12.4.22.64.3.23.1.47.16.7.22l1.1.27a7 7 0 0 1 1.27.42c.4.17.77.39 1.1.65.32.27.58.59.77.96.18.38.28.82.28 1.32a3.15 3.15 0 0 1-2.03 3.01 5.9 5.9 0 0 1-2.39.44c-.9 0-1.69-.14-2.35-.42a3.51 3.51 0 0 1-1.56-1.23 3.64 3.64 0 0 1-.6-1.97h2.07c.03.4.16.74.38 1.01s.5.47.85.6c.36.14.76.2 1.2.2.46 0 .86-.06 1.2-.2.35-.14.62-.33.82-.58.2-.25.3-.54.3-.87 0-.3-.1-.56-.27-.75-.17-.2-.41-.37-.73-.5a7.05 7.05 0 0 0-1.09-.37l-1.32-.34a5.33 5.33 0 0 1-2.28-1.12 2.58 2.58 0 0 1-.83-2 3 3 0 0 1 .56-1.8c.38-.52.89-.92 1.53-1.2a5.3 5.3 0 0 1 2.19-.44c.82 0 1.55.15 2.17.44a3.6 3.6 0 0 1 1.47 1.18c.35.5.54 1.09.55 1.74h-2.03Zm7.84 8.61a4.5 4.5 0 0 1-2.27-.55 3.7 3.7 0 0 1-1.46-1.55 5.21 5.21 0 0 1-.5-2.38c0-.9.16-1.69.5-2.37a3.87 3.87 0 0 1 3.62-2.16c.54 0 1.05.09 1.53.26s.9.44 1.27.8c.37.36.66.81.87 1.37.22.55.32 1.21.32 1.98v.63h-7.15v-1.4h5.18c0-.4-.09-.74-.26-1.05a1.89 1.89 0 0 0-1.73-1 2 2 0 0 0-1.1.3c-.32.2-.57.47-.75.8-.17.33-.26.69-.27 1.08v1.2c0 .52.1.95.28 1.31.19.36.45.64.78.83.33.2.72.29 1.17.29.3 0 .57-.04.81-.13.24-.08.45-.21.63-.38.18-.16.32-.37.4-.62l1.93.22a3 3 0 0 1-.7 1.33c-.33.37-.77.67-1.3.87-.52.2-1.12.31-1.8.31Zm9.98-8.9v1.6h-5.02v-1.6h5.02Zm-3.78-2.09h2.06v8.2c0 .27.04.48.12.63.09.15.2.24.34.3.14.05.3.08.47.08a2.02 2.02 0 0 0 .6-.08l.35 1.6a4.6 4.6 0 0 1-1.21.2c-.52.02-.98-.05-1.4-.22a2.17 2.17 0 0 1-.98-.81 2.4 2.4 0 0 1-.35-1.36v-8.54Zm9.47 14.1v-12H95v1.44h.12c.1-.22.26-.44.45-.68a2.46 2.46 0 0 1 2.05-.88 3.33 3.33 0 0 1 3.11 2.03c.33.67.49 1.49.49 2.46 0 .96-.16 1.77-.47 2.44a3.3 3.3 0 0 1-3.13 2.06 2.53 2.53 0 0 1-2.04-.85 3.9 3.9 0 0 1-.46-.67h-.08v4.64h-2.06ZM95 40.63c0 .56.08 1.06.23 1.48.17.42.4.76.7 1 .31.23.68.35 1.12.35.45 0 .83-.13 1.14-.37.3-.24.54-.58.7-1 .15-.43.23-.92.23-1.46 0-.55-.08-1.03-.23-1.45a2.17 2.17 0 0 0-.7-.99c-.3-.23-.68-.35-1.14-.35-.44 0-.82.11-1.12.34-.3.23-.54.56-.7.97-.16.42-.23.91-.23 1.48Zm7.98 4.36v-8.73h2v1.46h.08a2.18 2.18 0 0 1 2.16-1.58 4.73 4.73 0 0 1 .74.05v1.9a3.8 3.8 0 0 0-.95-.12c-.38 0-.72.08-1.02.24a1.8 1.8 0 0 0-.95 1.65V45h-2.06Zm8.7.18c-.56 0-1.05-.1-1.5-.3-.44-.2-.79-.5-1.04-.89a2.59 2.59 0 0 1-.38-1.44 2.11 2.11 0 0 1 1.02-2c.3-.19.66-.33 1.06-.43.4-.1.8-.18 1.23-.22l1.24-.14c.32-.05.55-.12.7-.2.14-.1.22-.25.22-.45v-.03c0-.43-.13-.76-.38-1a1.6 1.6 0 0 0-1.1-.35c-.5 0-.9.11-1.2.33-.29.22-.49.48-.59.78l-1.92-.27a3.08 3.08 0 0 1 2.03-2.14 5.44 5.44 0 0 1 2.93-.13c.41.1.8.27 1.14.5.34.22.62.52.83.91.2.39.32.87.32 1.45V45h-1.98v-1.2h-.07a2.52 2.52 0 0 1-1.38 1.19c-.33.12-.73.19-1.18.19Zm.53-1.52c.42 0 .77-.08 1.08-.24a1.73 1.73 0 0 0 .94-1.56v-1.02a.96.96 0 0 1-.33.15l-.5.12a15.83 15.83 0 0 1-1.05.16c-.3.04-.58.1-.83.2-.24.1-.43.23-.57.4a.97.97 0 0 0-.21.65c0 .38.14.66.42.85.27.2.62.3 1.05.3Zm9.95 1.51a3.83 3.83 0 0 1-3.68-2.16 5.23 5.23 0 0 1-.5-2.34c0-.89.17-1.67.51-2.35.34-.68.82-1.2 1.44-1.59a4.16 4.16 0 0 1 2.22-.57c.7 0 1.33.13 1.88.4a3.2 3.2 0 0 1 1.87 2.74h-1.97a1.88 1.88 0 0 0-.57-1.06 1.64 1.64 0 0 0-1.18-.42c-.42 0-.8.11-1.11.34-.32.22-.57.54-.74.97a3.8 3.8 0 0 0-.27 1.5c0 .6.1 1.11.27 1.54.17.42.41.75.73.98.32.23.69.34 1.12.34.3 0 .57-.05.81-.17.24-.11.45-.28.6-.5.17-.22.28-.49.34-.8h1.97a3.24 3.24 0 0 1-1.83 2.76 4.3 4.3 0 0 1-1.9.4Zm9.79-8.9v1.6h-5.02v-1.6h5.02Zm-3.78-2.09h2.05v8.2c0 .27.05.48.13.63.09.15.2.24.34.3.14.05.3.08.47.08a2.03 2.03 0 0 0 .6-.08l.34 1.6a4.63 4.63 0 0 1-1.2.2c-.52.02-.98-.05-1.4-.22a2.16 2.16 0 0 1-.98-.81 2.4 2.4 0 0 1-.35-1.36v-8.54Zm5.5 10.82v-8.73h2.05V45h-2.05Zm1.03-9.97c-.32 0-.6-.1-.84-.32a1.05 1.05 0 0 1-.35-.79c0-.31.12-.57.35-.79.23-.22.51-.33.84-.33.33 0 .61.11.84.33.24.22.35.48.35.79 0 .3-.11.57-.35.79-.23.22-.51.32-.84.32Zm6.95 10.14a3.83 3.83 0 0 1-3.68-2.16 5.25 5.25 0 0 1-.5-2.34c0-.89.16-1.67.5-2.35.34-.68.83-1.2 1.45-1.59a4.16 4.16 0 0 1 2.21-.57c.71 0 1.34.13 1.88.4a3.22 3.22 0 0 1 1.87 2.74h-1.96a1.88 1.88 0 0 0-.57-1.06c-.3-.28-.7-.42-1.19-.42-.42 0-.79.11-1.1.34-.32.22-.57.54-.75.97a3.8 3.8 0 0 0-.26 1.5c0 .6.08 1.11.26 1.54.17.42.42.75.73.98.32.23.7.34 1.12.34.3 0 .58-.05.81-.17.25-.11.45-.28.61-.5a2 2 0 0 0 .34-.8h1.96a3.22 3.22 0 0 1-1.83 2.76 4.3 4.3 0 0 1-1.9.4Zm9.29 0a4.5 4.5 0 0 1-2.27-.55 3.7 3.7 0 0 1-1.46-1.55 5.21 5.21 0 0 1-.51-2.38c0-.9.17-1.69.5-2.37a3.87 3.87 0 0 1 3.63-2.16c.54 0 1.04.09 1.52.26s.9.44 1.27.8c.38.36.67.81.88 1.37.21.55.32 1.21.32 1.98v.63h-7.16V39.8h5.19c0-.4-.1-.74-.26-1.05-.17-.3-.4-.55-.7-.73-.3-.18-.64-.27-1.03-.27a2 2 0 0 0-1.11.3c-.32.2-.57.47-.75.8a2.3 2.3 0 0 0-.26 1.08v1.2c0 .52.09.95.28 1.31.18.36.44.64.77.83.34.2.73.29 1.17.29.3 0 .57-.04.82-.13.24-.08.45-.21.63-.38.18-.16.31-.37.4-.62l1.92.22a3 3 0 0 1-.7 1.33c-.33.37-.76.67-1.29.87-.52.2-1.13.31-1.8.31Zm12.52-6.59-1.88.2a1.5 1.5 0 0 0-.8-.93 1.9 1.9 0 0 0-.8-.16c-.44 0-.8.1-1.09.28-.29.19-.43.43-.42.72 0 .26.09.46.27.62.2.16.52.3.96.4l1.49.31c.82.18 1.44.46 1.84.85.4.39.6.9.61 1.52 0 .55-.16 1.03-.48 1.45a3.1 3.1 0 0 1-1.31.98c-.56.23-1.2.35-1.94.35a4.48 4.48 0 0 1-2.57-.67 2.7 2.7 0 0 1-1.17-1.88l2-.2c.1.4.29.7.59.9.3.2.68.3 1.15.3.49 0 .88-.1 1.18-.3.3-.2.44-.45.44-.75a.8.8 0 0 0-.29-.62 2.02 2.02 0 0 0-.88-.37l-1.5-.31a3.54 3.54 0 0 1-1.85-.88 2.2 2.2 0 0 1-.6-1.58c0-.54.15-1 .44-1.4.3-.4.72-.7 1.25-.92a4.82 4.82 0 0 1 1.84-.33c1.03 0 1.83.22 2.42.65.59.44.95 1.03 1.1 1.77Z" fill="#0F67F5"/><path d="M63.23 71V60.82h1.24v4.53h5.42v-4.53h1.24V71h-1.24v-4.55h-5.42V71h-1.24Zm13.4.16a3.27 3.27 0 0 1-3.13-1.86 4.68 4.68 0 0 1-.42-2.06c0-.78.14-1.47.43-2.07a3.23 3.23 0 0 1 3.01-1.9c.4 0 .79.06 1.18.2a2.92 2.92 0 0 1 1.82 1.81 5 5 0 0 1 .28 1.8v.5h-5.89v-1.01h4.7c0-.44-.09-.82-.26-1.16a1.95 1.95 0 0 0-1.83-1.1c-.47 0-.87.12-1.21.36-.34.22-.6.52-.78.9-.19.36-.28.75-.28 1.17v.68c0 .58.1 1.07.3 1.47.2.4.48.7.84.9a2.68 2.68 0 0 0 2.08.19c.26-.1.47-.23.66-.4.18-.18.32-.4.42-.67l1.13.32c-.12.38-.32.72-.6 1.01-.28.3-.63.52-1.04.68-.42.16-.88.24-1.4.24Zm6.13-10.34V71h-1.17V60.82h1.17Zm2.15 13.04v-10.5h1.13v1.22h.14l.36-.51c.15-.2.38-.4.66-.56.3-.16.7-.25 1.19-.25a3.03 3.03 0 0 1 2.85 1.85c.27.6.4 1.29.4 2.1 0 .8-.13 1.5-.4 2.1a2.99 2.99 0 0 1-2.83 1.85c-.5 0-.89-.08-1.18-.24-.3-.17-.52-.36-.68-.57a7.5 7.5 0 0 1-.37-.52h-.1v4.03h-1.17Zm1.15-6.68c0 .58.09 1.09.25 1.53.17.44.42.78.75 1.03.32.24.72.37 1.19.37.49 0 .9-.13 1.23-.4.33-.25.58-.6.74-1.05.17-.44.26-.93.26-1.48 0-.54-.09-1.02-.25-1.45a2.32 2.32 0 0 0-.74-1.03 1.96 1.96 0 0 0-1.24-.38 1.96 1.96 0 0 0-1.94 1.37 4 4 0 0 0-.25 1.5Zm12.07 6.68a2.57 2.57 0 0 1-.85-.14l.3-1.03c.28.07.53.1.75.08a.9.9 0 0 0 .58-.3c.18-.17.33-.45.48-.83l.21-.6-2.82-7.68h1.27l2.11 6.09h.08l2.1-6.09h1.28l-3.24 8.75c-.15.4-.33.72-.54.98-.22.26-.47.46-.75.58-.28.13-.6.2-.96.2Zm9.87-2.7c-.7 0-1.3-.16-1.82-.5a3.34 3.34 0 0 1-1.2-1.37 4.65 4.65 0 0 1-.44-2.07c0-.8.14-1.49.43-2.08.3-.6.7-1.06 1.21-1.38.52-.33 1.13-.5 1.82-.5a3.3 3.3 0 0 1 3.02 1.87c.3.6.44 1.3.44 2.1a4.6 4.6 0 0 1-.44 2.06 3.3 3.3 0 0 1-1.21 1.38 3.3 3.3 0 0 1-1.81.49Zm0-1.05c.52 0 .95-.14 1.3-.4.33-.28.58-.63.74-1.07a4.25 4.25 0 0 0 0-2.85c-.16-.44-.41-.8-.75-1.06a2 2 0 0 0-1.3-.41 2 2 0 0 0-1.28.4 2.4 2.4 0 0 0-.75 1.07 4.1 4.1 0 0 0-.25 1.43c0 .51.08.99.25 1.42.16.44.4.8.75 1.06.33.27.77.4 1.29.4Zm10.06-2.23v-4.52h1.17V71h-1.17v-1.3h-.08a2.4 2.4 0 0 1-2.27 1.4c-.47 0-.9-.1-1.27-.31a2.2 2.2 0 0 1-.87-.96 3.63 3.63 0 0 1-.32-1.61v-4.86h1.17v4.78c0 .55.16 1 .47 1.33.31.33.72.5 1.2.5a2 2 0 0 0 1.97-2.1Zm3.32 3.12v-7.64h1.14v1.16h.08c.14-.38.39-.69.75-.92.37-.24.78-.36 1.24-.36a13.07 13.07 0 0 1 .61.02v1.2a3.46 3.46 0 0 0-.71-.08c-.38 0-.7.08-1 .23a1.72 1.72 0 0 0-.93 1.56V71h-1.18Zm12.25.16a3.3 3.3 0 0 1-1.85-.5 3.3 3.3 0 0 1-1.19-1.4 4.72 4.72 0 0 1-.42-2.04c0-.77.15-1.46.43-2.05a3.23 3.23 0 0 1 3.01-1.9c.54 0 1.02.1 1.45.3a2.6 2.6 0 0 1 1.57 2.09h-1.17a1.79 1.79 0 0 0-1.83-1.33 1.9 1.9 0 0 0-1.2.35c-.34.23-.6.56-.8 1a3.7 3.7 0 0 0-.28 1.5c0 .6.09 1.1.28 1.54.18.44.45.78.79 1.02s.75.37 1.21.37c.3 0 .59-.06.83-.16a1.72 1.72 0 0 0 1-1.18h1.18a2.71 2.71 0 0 1-1.52 2.08c-.43.2-.92.3-1.49.3Zm5.9-4.75V71h-1.18V60.82h1.18v3.74h.1c.17-.4.44-.71.8-.94.36-.24.84-.36 1.44-.36.52 0 .98.1 1.37.32.39.2.7.52.9.95.23.42.34.96.34 1.62V71h-1.18v-4.77a2 2 0 0 0-.47-1.41 1.7 1.7 0 0 0-1.3-.5c-.38 0-.73.08-1.03.24-.3.16-.54.4-.72.71-.17.31-.25.7-.25 1.14Zm7.1 4.59v-7.64h1.17V71h-1.18Zm.59-8.9a.83.83 0 0 1-.6-.24.75.75 0 0 1-.24-.56.83.83 0 0 1 .84-.8c.23 0 .42.08.59.23.16.16.25.35.25.57 0 .21-.09.4-.25.56a.82.82 0 0 1-.6.23Zm3.9-1.28V71h-1.18V60.82h1.18Zm5.03 10.34a3 3 0 0 1-2.83-1.86 5.01 5.01 0 0 1-.41-2.1 5 5 0 0 1 .41-2.09 3.04 3.04 0 0 1 2.85-1.85c.5 0 .9.09 1.18.25.3.17.51.35.66.56l.37.5h.1v-3.75h1.17V71h-1.13v-1.17h-.14l-.37.52c-.16.21-.39.4-.68.57-.3.16-.69.24-1.18.24Zm.16-1.05a2 2 0 0 0 1.2-.37c.32-.25.56-.6.73-1.03.17-.44.26-.95.26-1.53 0-.57-.09-1.07-.25-1.5a1.96 1.96 0 0 0-1.94-1.37c-.5 0-.91.14-1.24.4-.33.24-.58.59-.74 1.02a4.1 4.1 0 0 0-.25 1.45c0 .55.08 1.04.25 1.48.17.44.42.8.75 1.06s.74.39 1.23.39Zm12.91-6.75v1h-3.96v-1h3.96Zm-2.8-1.83h1.17v7.28c0 .33.05.58.15.75.1.16.22.27.37.33.16.05.32.08.5.08l.31-.02.2-.04.24 1.05a2.33 2.33 0 0 1-.88.14c-.33 0-.65-.07-.97-.21a1.94 1.94 0 0 1-.78-.66 1.83 1.83 0 0 1-.31-1.1v-7.6Zm7.59 9.63c-.7 0-1.3-.16-1.82-.5a3.34 3.34 0 0 1-1.21-1.37 4.65 4.65 0 0 1-.43-2.07c0-.8.14-1.49.43-2.08a3.27 3.27 0 0 1 3.03-1.88 3.3 3.3 0 0 1 3.02 1.87c.3.6.44 1.3.44 2.1a4.6 4.6 0 0 1-.44 2.06 3.3 3.3 0 0 1-1.21 1.38 3.3 3.3 0 0 1-1.81.49Zm0-1.05c.52 0 .95-.14 1.29-.4.34-.28.59-.63.75-1.07a4.25 4.25 0 0 0 0-2.85c-.16-.44-.41-.8-.75-1.06a2 2 0 0 0-1.3-.41 2 2 0 0 0-1.29.4 2.4 2.4 0 0 0-.75 1.07 4.2 4.2 0 0 0 0 2.85c.16.44.42.8.75 1.06.34.27.77.4 1.3.4Zm9.19.89v-7.64h1.17V71h-1.18Zm.6-8.9a.83.83 0 0 1-.6-.24.75.75 0 0 1-.24-.56c0-.22.08-.41.24-.57a.83.83 0 0 1 .6-.23c.22 0 .42.08.58.23.16.16.25.35.25.57 0 .21-.09.4-.25.56a.82.82 0 0 1-.59.23Zm2.72 8.9v-7.64h1.13v1.2h.1c.16-.41.42-.73.77-.95a2.3 2.3 0 0 1 1.28-.35c.5 0 .92.12 1.26.35.33.22.6.54.79.95h.08c.2-.4.48-.71.88-.94.39-.24.86-.36 1.4-.36.69 0 1.24.22 1.68.65.43.42.65 1.08.65 1.98V71h-1.17v-5.11c0-.56-.16-.97-.47-1.2-.3-.25-.67-.37-1.08-.37-.54 0-.96.16-1.25.49-.3.32-.44.72-.44 1.22V71h-1.2v-5.23c0-.43-.14-.78-.42-1.05a1.5 1.5 0 0 0-1.09-.4c-.3 0-.59.08-.85.24-.27.16-.48.39-.64.68a2 2 0 0 0-.24.99V71h-1.17Zm12.16 2.86v-10.5h1.14v1.22h.14c.08-.14.2-.3.36-.51.15-.2.37-.4.66-.56.3-.16.69-.25 1.19-.25a3.04 3.04 0 0 1 2.84 1.85c.28.6.42 1.29.42 2.1 0 .8-.14 1.5-.42 2.1a3 3 0 0 1-2.83 1.85c-.49 0-.88-.08-1.17-.24-.3-.17-.52-.36-.68-.57a7.5 7.5 0 0 1-.37-.52h-.1v4.03h-1.18Zm1.16-6.68c0 .58.08 1.09.25 1.53.17.44.42.78.74 1.03.33.24.72.37 1.2.37.49 0 .9-.13 1.22-.4.34-.25.58-.6.75-1.05.17-.44.25-.93.25-1.48a3.9 3.9 0 0 0-.25-1.45 2.25 2.25 0 0 0-.74-1.03 1.96 1.96 0 0 0-1.23-.38 1.96 1.96 0 0 0-1.94 1.37 4 4 0 0 0-.25 1.5Zm7.38 3.82v-7.64h1.13v1.16h.08c.14-.38.4-.69.75-.92.37-.24.78-.36 1.24-.36a13.07 13.07 0 0 1 .62.02v1.2a3.46 3.46 0 0 0-.72-.08c-.37 0-.7.08-1 .23a1.72 1.72 0 0 0-.93 1.56V71h-1.17Zm8.07.16c-.68 0-1.29-.16-1.8-.5a3.34 3.34 0 0 1-1.22-1.37 4.65 4.65 0 0 1-.44-2.07c0-.8.15-1.49.44-2.08a3.27 3.27 0 0 1 3.02-1.88 3.3 3.3 0 0 1 3.02 1.87c.3.6.45 1.3.45 2.1a4.6 4.6 0 0 1-.44 2.06 3.3 3.3 0 0 1-1.22 1.38 3.3 3.3 0 0 1-1.8.49Zm0-1.05c.53 0 .96-.14 1.3-.4.34-.28.59-.63.75-1.07a4.25 4.25 0 0 0 0-2.85c-.16-.44-.41-.8-.75-1.06a2 2 0 0 0-1.3-.41 2 2 0 0 0-1.29.4 2.4 2.4 0 0 0-.75 1.07 4.1 4.1 0 0 0-.24 1.43c0 .51.08.99.24 1.42.16.44.41.8.75 1.06.34.27.77.4 1.3.4Zm11.23-6.75L223.69 71h-1.19l-2.82-7.64h1.27l2.1 6.09h.09l2.1-6.09h1.28Zm4.47 7.8a3.6 3.6 0 0 1-1.9-.49 3.28 3.28 0 0 1-1.23-1.37 4.68 4.68 0 0 1-.43-2.06c0-.78.15-1.47.43-2.07.3-.6.7-1.06 1.2-1.4a3.62 3.62 0 0 1 2.99-.3 2.92 2.92 0 0 1 1.82 1.81 5 5 0 0 1 .29 1.8v.5h-5.89v-1.01h4.7c0-.44-.1-.82-.26-1.16a1.95 1.95 0 0 0-1.84-1.1 2 2 0 0 0-1.2.36c-.35.22-.6.52-.79.9-.18.36-.27.75-.27 1.17v.68c0 .58.1 1.07.3 1.47.2.4.48.7.84.9a2.7 2.7 0 0 0 2.08.19c.25-.1.47-.23.65-.4.18-.18.32-.4.42-.67l1.14.32a2.5 2.5 0 0 1-.6 1.01c-.29.3-.63.52-1.05.68-.41.16-.88.24-1.4.24Zm14.3-6.09-1.06.3a1.96 1.96 0 0 0-.29-.51c-.13-.17-.3-.3-.52-.42a2 2 0 0 0-.84-.16 2 2 0 0 0-1.17.32c-.3.21-.46.48-.46.81 0 .3.1.52.32.7.21.16.54.3 1 .42l1.13.27c.68.17 1.19.42 1.53.76.33.34.5.78.5 1.31 0 .44-.13.83-.38 1.18-.25.34-.6.61-1.05.81-.44.2-.96.3-1.56.3-.78 0-1.42-.17-1.93-.5a2.25 2.25 0 0 1-.97-1.49l1.11-.28c.11.41.31.72.6.93.3.2.7.3 1.17.3.55 0 .99-.11 1.3-.34.33-.24.5-.52.5-.85a.9.9 0 0 0-.28-.66 1.77 1.77 0 0 0-.86-.41l-1.27-.3a3.04 3.04 0 0 1-1.54-.77c-.33-.35-.5-.8-.5-1.32 0-.43.13-.81.37-1.14.25-.33.58-.6 1-.78.43-.2.9-.29 1.44-.29.76 0 1.35.17 1.78.5.44.33.74.77.93 1.31Zm3 3.15-.02-1.46h.24l3.34-3.4h1.45l-3.56 3.6h-.1l-1.35 1.26Zm-1.1 2.78V60.82h1.18V71h-1.18Zm4.85 0-2.98-3.78.84-.81 3.64 4.59h-1.5Zm2.77 0v-7.64h1.17V71h-1.17Zm.6-8.9a.83.83 0 0 1-.6-.24.75.75 0 0 1-.24-.56c0-.22.08-.41.24-.57a.83.83 0 0 1 .6-.23c.22 0 .42.08.58.23.17.16.25.35.25.57 0 .21-.08.4-.25.56a.81.81 0 0 1-.59.23Zm3.9-1.28V71h-1.18V60.82h1.17Zm3.32 0V71h-1.18V60.82h1.18Zm7.55 4.25-1.05.3a1.95 1.95 0 0 0-.3-.51c-.12-.17-.3-.3-.51-.42-.22-.1-.5-.16-.84-.16a2 2 0 0 0-1.17.32c-.3.21-.46.48-.46.81 0 .3.1.52.32.7.2.16.54.3 1 .42l1.13.27c.68.17 1.19.42 1.52.76.34.34.5.78.5 1.31 0 .44-.12.83-.38 1.18-.24.34-.6.61-1.04.81-.45.2-.97.3-1.56.3-.78 0-1.42-.17-1.93-.5a2.25 2.25 0 0 1-.97-1.49l1.11-.28c.1.41.3.72.6.93.3.2.69.3 1.17.3.55 0 .98-.11 1.3-.34.33-.24.49-.52.49-.85a.9.9 0 0 0-.28-.66 1.78 1.78 0 0 0-.85-.41l-1.28-.3a3.04 3.04 0 0 1-1.54-.77 1.9 1.9 0 0 1-.48-1.32c0-.43.12-.81.36-1.14.24-.33.58-.6 1-.78.42-.2.9-.29 1.44-.29.75 0 1.35.17 1.78.5.43.33.74.77.92 1.31Z" fill="#333"/><rect x="18" y="89" width="270" height="74" rx="4" fill="#fff"/><path d="M43.38 120.32a4.6 4.6 0 0 1 2.62-.94c1.3 0 2.93.7 4.79 1.93m-7.41-.99 7.13 1.41m-7.13-1.41v-.9a5.06 5.06 0 0 1 2.62-.79c1.07 0 2.34.39 3.87 1.25l.75.41v-13.1l-.23-.14c-1.7-1.08-3.18-1.68-4.4-1.68a4.7 4.7 0 0 0-2.74 1.04 1.37 1.37 0 0 0-.5-.57 5.37 5.37 0 0 1 3.25-1.22c1.37 0 3.07.64 5.21 2.07.1.06.17.19.17.31v14c0 .14-.08.27-.2.33a.36.36 0 0 1-.17.04h-.1m-.12-.06-.28.42m.28-.42-.28.42m.28-.42.12.06m-.4.36c.15.1.32.15.49.15m-.09-.51h-.1l-.15.15h-.01l.35.36m-.09-.51.09.01v.5" fill="#0F67F5" stroke="#333"/><path d="M63.15 107.36h2.58l3.45 8.44h.14l3.45-8.44h2.58V119h-2.02v-8h-.1L70 118.98h-1.52L65.27 111h-.1v8h-2.03v-11.64Zm18.21 11.81c-.85 0-1.59-.19-2.21-.56a3.82 3.82 0 0 1-1.46-1.58 5.17 5.17 0 0 1-.5-2.36c0-.9.16-1.7.5-2.37.35-.68.83-1.2 1.46-1.58a4.23 4.23 0 0 1 2.21-.56c.86 0 1.6.19 2.22.56.62.38 1.1.9 1.45 1.58.34.68.52 1.47.52 2.37 0 .9-.18 1.69-.52 2.36a3.82 3.82 0 0 1-3.67 2.14Zm.02-1.65c.46 0 .84-.12 1.15-.38.31-.26.55-.6.7-1.03.15-.43.23-.92.23-1.44 0-.54-.08-1.02-.23-1.45a2.3 2.3 0 0 0-.7-1.04c-.3-.26-.7-.39-1.16-.39-.47 0-.86.13-1.18.39-.3.25-.54.6-.7 1.04-.15.43-.22.91-.22 1.45 0 .52.07 1 .22 1.44.16.43.4.77.7 1.03.32.26.71.38 1.19.38Zm9.72 1.65a3.83 3.83 0 0 1-3.68-2.16 5.24 5.24 0 0 1-.5-2.34c0-.89.17-1.67.5-2.35.35-.68.83-1.2 1.45-1.59a4.16 4.16 0 0 1 2.22-.57c.7 0 1.33.13 1.88.4a3.21 3.21 0 0 1 1.87 2.73h-1.97a1.88 1.88 0 0 0-.57-1.05c-.3-.28-.69-.42-1.18-.42-.43 0-.8.11-1.11.34-.32.22-.57.55-.75.97-.17.42-.26.92-.26 1.5 0 .6.09 1.11.26 1.54.18.42.42.75.74.98.31.23.69.34 1.12.34a1.71 1.71 0 0 0 1.75-1.47h1.97a3.23 3.23 0 0 1-1.83 2.76 4.3 4.3 0 0 1-1.91.39Zm7.3-2.9v-2.5h.32l3.14-3.5h2.4l-3.85 4.3h-.43l-1.58 1.7ZM96.53 119v-11.64h2.05V119h-2.05Zm5.47 0-2.84-3.97 1.39-1.45 3.91 5.42H102Zm11.96-8.73v1.6h-5.02v-1.6h5.02Zm-3.78-2.09h2.06v8.2c0 .27.04.48.13.63.08.14.2.24.34.3.14.05.3.08.46.08a2 2 0 0 0 .6-.08l.35 1.6a4.7 4.7 0 0 1-1.2.2c-.53.02-.99-.05-1.4-.22a2.17 2.17 0 0 1-.98-.81 2.4 2.4 0 0 1-.36-1.36v-8.54Zm9.27 10.99c-.87 0-1.63-.18-2.27-.55a3.69 3.69 0 0 1-1.46-1.55 5.22 5.22 0 0 1-.5-2.38c0-.9.16-1.69.5-2.37a3.87 3.87 0 0 1 3.62-2.16c.54 0 1.05.09 1.53.26s.9.44 1.27.8c.37.36.66.81.87 1.37.22.55.32 1.21.32 1.98v.63h-7.15v-1.39h5.18c0-.4-.09-.74-.25-1.05a1.87 1.87 0 0 0-1.74-1 2 2 0 0 0-1.1.3c-.32.2-.57.47-.75.8-.17.33-.26.69-.27 1.08v1.2c0 .52.1.95.28 1.31.19.36.45.64.78.83.33.2.72.29 1.17.29.3 0 .57-.04.81-.13.24-.08.45-.21.63-.38.18-.16.32-.37.4-.62l1.93.22a3 3 0 0 1-.7 1.33c-.33.37-.77.67-1.3.87-.52.2-1.12.31-1.8.31Zm12.52-6.59-1.88.2a1.52 1.52 0 0 0-.27-.53c-.13-.17-.3-.3-.53-.4a1.9 1.9 0 0 0-.8-.16c-.43 0-.8.1-1.08.28-.29.19-.43.43-.43.72 0 .26.1.46.28.62.2.16.51.3.95.4l1.5.31c.82.18 1.43.46 1.83.85.4.39.61.9.62 1.52 0 .55-.17 1.03-.48 1.45a3.1 3.1 0 0 1-1.32.98c-.56.23-1.2.35-1.93.35a4.48 4.48 0 0 1-2.58-.67 2.7 2.7 0 0 1-1.16-1.88l2-.2c.1.4.29.7.58.9.3.2.68.3 1.16.3.48 0 .88-.1 1.17-.3.3-.2.45-.45.45-.75 0-.25-.1-.45-.29-.61a2.02 2.02 0 0 0-.89-.38l-1.48-.31a3.54 3.54 0 0 1-1.86-.88 2.2 2.2 0 0 1-.6-1.58c0-.54.14-1 .44-1.4.3-.4.71-.7 1.24-.92a4.82 4.82 0 0 1 1.85-.33c1.02 0 1.83.22 2.41.65.6.44.96 1.03 1.1 1.77Zm6.24-2.3v1.58h-5.02v-1.59h5.02Zm-3.78-2.1h2.06v8.2c0 .27.04.48.13.63.08.14.2.24.34.3.14.05.3.08.46.08a2 2 0 0 0 .6-.08l.35 1.6a4.7 4.7 0 0 1-1.2.2 3.3 3.3 0 0 1-1.4-.22 2.17 2.17 0 0 1-.98-.81 2.4 2.4 0 0 1-.36-1.36v-8.54Zm12.28 4.4-1.88.2a1.5 1.5 0 0 0-.8-.93c-.22-.1-.49-.16-.8-.16-.44 0-.8.1-1.09.28-.29.19-.43.43-.42.72 0 .26.09.46.27.62.2.16.52.3.96.4l1.49.31c.82.18 1.44.46 1.84.85.4.39.6.9.61 1.52 0 .55-.16 1.03-.48 1.45a3.1 3.1 0 0 1-1.31.98c-.56.23-1.2.35-1.94.35a4.48 4.48 0 0 1-2.57-.67 2.7 2.7 0 0 1-1.17-1.88l2-.2c.1.4.29.7.59.9.3.2.68.3 1.15.3.49 0 .88-.1 1.18-.3.3-.2.44-.45.44-.75 0-.25-.1-.45-.29-.61a2.02 2.02 0 0 0-.88-.38l-1.5-.31a3.54 3.54 0 0 1-1.85-.88 2.2 2.2 0 0 1-.6-1.58c0-.54.15-1 .44-1.4.3-.4.72-.7 1.25-.92a4.81 4.81 0 0 1 1.84-.33c1.03 0 1.83.22 2.42.65.59.44.95 1.03 1.1 1.77Zm-84.03 23.33v-1.1h7.63v1.1h-3.2V145h-1.23v-9.09h-3.2Zm8.58 9.09v-7.64h1.14v1.16h.08c.14-.38.39-.69.75-.92.37-.24.78-.36 1.23-.36a14.78 14.78 0 0 1 .62.02v1.2a3.66 3.66 0 0 0-.71-.08c-.38 0-.7.08-1 .23a1.71 1.71 0 0 0-.93 1.56V145h-1.18Zm7.46.18c-.48 0-.92-.1-1.32-.27-.4-.19-.7-.46-.94-.8a2.26 2.26 0 0 1-.35-1.28c0-.44.1-.79.26-1.06.18-.28.4-.5.7-.65.28-.15.6-.27.95-.35.35-.08.7-.14 1.06-.19l1.13-.13c.29-.03.5-.09.63-.16.14-.08.2-.21.2-.4v-.04c0-.5-.13-.87-.4-1.14-.26-.28-.66-.41-1.2-.41a2.1 2.1 0 0 0-1.99 1.15l-1.12-.4a2.68 2.68 0 0 1 1.9-1.63 4.54 4.54 0 0 1 2.01-.07c.32.06.63.18.93.36.3.18.55.45.75.8.2.37.3.85.3 1.46V145h-1.17v-1.03h-.06a2.28 2.28 0 0 1-1.14 1.01c-.31.13-.69.2-1.13.2Zm.18-1.06c.46 0 .85-.09 1.17-.27a1.87 1.87 0 0 0 .98-1.61v-1.08c-.05.06-.16.12-.33.17l-.58.12a29.84 29.84 0 0 1-1.12.15c-.3.04-.6.1-.86.2-.26.08-.47.21-.63.39a1 1 0 0 0-.24.7c0 .41.15.72.45.93.3.2.7.3 1.16.3Zm5.46.88v-7.64h1.17V145h-1.17Zm.6-8.9a.83.83 0 0 1-.6-.24.75.75 0 0 1-.24-.57c0-.21.08-.4.25-.56a.83.83 0 0 1 .59-.23c.23 0 .42.08.58.23.17.16.25.35.25.56 0 .22-.08.41-.25.57a.82.82 0 0 1-.58.23Zm3.9 4.3v4.6h-1.18v-7.64h1.14v1.2h.1c.18-.4.45-.7.81-.94.37-.24.84-.36 1.41-.36.52 0 .97.11 1.36.32.39.21.69.53.9.96.22.42.33.96.33 1.6V145h-1.17v-4.77c0-.6-.16-1.07-.47-1.4a1.65 1.65 0 0 0-1.28-.51c-.38 0-.71.08-1 .24-.3.16-.53.4-.7.71-.17.31-.25.7-.25 1.14Zm11.7 7.46a2.58 2.58 0 0 1-.85-.14l.3-1.03c.28.07.54.1.75.08a.9.9 0 0 0 .59-.3c.17-.17.33-.45.47-.83l.22-.6-2.83-7.68h1.28l2.1 6.09h.08l2.11-6.09h1.28l-3.25 8.75c-.14.4-.32.72-.54.98a2.03 2.03 0 0 1-1.7.77Zm9.87-2.7a3.2 3.2 0 0 1-1.81-.5 3.34 3.34 0 0 1-1.22-1.37 4.66 4.66 0 0 1-.43-2.07c0-.8.15-1.49.43-2.08a3.3 3.3 0 0 1 3.03-1.88 3.25 3.25 0 0 1 3.03 1.88c.29.6.43 1.29.43 2.08s-.14 1.48-.44 2.07a3.3 3.3 0 0 1-1.2 1.38 3.3 3.3 0 0 1-1.82.49Zm0-1.06c.53 0 .96-.13 1.3-.4.33-.27.58-.62.74-1.06a4.08 4.08 0 0 0 0-2.85 2.4 2.4 0 0 0-.75-1.06 2 2 0 0 0-1.29-.41 2 2 0 0 0-1.3.4 2.4 2.4 0 0 0-.74 1.07 4.21 4.21 0 0 0 0 2.85c.16.44.41.8.75 1.06.34.27.77.4 1.3.4Zm10.07-2.22v-4.52h1.17V145h-1.17v-1.3h-.08a2.5 2.5 0 0 1-.84 1c-.38.27-.85.4-1.43.4-.48 0-.9-.1-1.27-.31a2.2 2.2 0 0 1-.88-.96 3.63 3.63 0 0 1-.32-1.61v-4.86h1.18v4.78c0 .55.15 1 .46 1.33.32.33.72.5 1.2.5a2 2 0 0 0 1.98-2.1Zm3.32 3.12v-7.64h1.13v1.16h.08c.14-.38.4-.69.76-.92.36-.24.77-.36 1.23-.36a14.75 14.75 0 0 1 .62.02v1.2a3.7 3.7 0 0 0-.72-.08c-.37 0-.7.08-1 .23a1.71 1.71 0 0 0-.94 1.56V145h-1.16Zm12.25.16a3.3 3.3 0 0 1-1.85-.5 3.41 3.41 0 0 1-1.2-1.4 4.74 4.74 0 0 1-.41-2.04c0-.77.14-1.46.42-2.05.3-.6.7-1.06 1.2-1.4.52-.34 1.13-.5 1.82-.5.53 0 1.02.1 1.45.3a2.61 2.61 0 0 1 1.57 2.09h-1.17a1.78 1.78 0 0 0-1.83-1.33 2.12 2.12 0 0 0-2 1.35 3.7 3.7 0 0 0-.29 1.5c0 .6.1 1.1.28 1.54.19.44.45.78.8 1.02.34.24.74.36 1.2.36.31 0 .59-.05.84-.15a1.7 1.7 0 0 0 1-1.18h1.17a2.73 2.73 0 0 1-1.52 2.08c-.43.2-.92.3-1.48.3Zm5.89-4.75V145h-1.18v-10.18h1.18v3.74h.1c.18-.4.44-.71.8-.94.36-.24.84-.36 1.44-.36.52 0 .98.1 1.37.32.4.2.7.52.91.95.22.42.33.96.33 1.62V145h-1.17v-4.77c0-.6-.16-1.08-.48-1.41-.3-.33-.74-.5-1.3-.5-.38 0-.72.08-1.03.24-.3.16-.54.4-.71.71a2.3 2.3 0 0 0-.26 1.14Zm7.1 4.59v-7.64h1.17V145h-1.17Zm.6-8.9a.83.83 0 0 1-.6-.24.75.75 0 0 1-.24-.57c0-.21.08-.4.24-.56a.83.83 0 0 1 .6-.23c.22 0 .42.08.58.23.16.16.25.35.25.56 0 .22-.09.41-.25.57a.82.82 0 0 1-.59.23Zm3.9-1.28V145h-1.18v-10.18h1.17Zm5.02 10.34a3 3 0 0 1-2.82-1.85c-.28-.6-.42-1.3-.42-2.1 0-.81.14-1.5.42-2.1a3.03 3.03 0 0 1 2.85-1.85c.5 0 .88.09 1.17.25.3.17.52.35.67.56.15.2.28.37.36.5h.1v-3.75h1.17V145h-1.13v-1.17h-.14c-.09.14-.2.31-.37.52-.16.21-.38.4-.68.56-.3.17-.69.25-1.18.25Zm.16-1.06c.47 0 .87-.12 1.2-.36.32-.25.57-.6.74-1.03.17-.44.25-.95.25-1.53 0-.57-.08-1.07-.25-1.5a1.96 1.96 0 0 0-1.94-1.37c-.5 0-.9.14-1.24.4-.33.24-.57.59-.74 1.02-.16.43-.24.92-.24 1.45 0 .54.08 1.04.24 1.48.17.44.42.8.75 1.06s.74.38 1.23.38Zm13-6.74v1h-4.12v-1h4.11Zm-2.89 7.64v-8.69c0-.44.1-.8.3-1.1.21-.29.48-.5.8-.65a2.9 2.9 0 0 1 2.15-.02l-.33 1.01a6 6 0 0 0-.25-.07c-.1-.03-.23-.04-.4-.04-.39 0-.67.1-.84.29-.17.2-.26.48-.26.86V145h-1.17Zm7.32.16c-.7 0-1.3-.16-1.82-.5a3.34 3.34 0 0 1-1.21-1.37 4.65 4.65 0 0 1-.43-2.07c0-.8.14-1.49.43-2.08.29-.6.7-1.05 1.21-1.38.52-.33 1.13-.5 1.82-.5a3.24 3.24 0 0 1 3.02 1.88c.3.6.44 1.29.44 2.08s-.15 1.48-.44 2.07a3.3 3.3 0 0 1-1.21 1.38 3.3 3.3 0 0 1-1.81.49Zm0-1.06a2 2 0 0 0 1.29-.4c.34-.27.59-.62.75-1.06a4.25 4.25 0 0 0 0-2.85c-.16-.44-.41-.8-.75-1.06a2 2 0 0 0-1.3-.41 2 2 0 0 0-1.29.4 2.4 2.4 0 0 0-.75 1.07 4.1 4.1 0 0 0 0 2.85c.16.44.42.8.75 1.06.34.27.77.4 1.3.4Zm5.25.9v-7.64h1.13v1.16h.08c.14-.38.4-.69.76-.92.36-.24.77-.36 1.23-.36a14.75 14.75 0 0 1 .62.02v1.2a3.67 3.67 0 0 0-.72-.08c-.37 0-.7.08-1 .23a1.72 1.72 0 0 0-.94 1.56V145h-1.16Zm12.47-7.64v1h-3.96v-1h3.95Zm-2.8-1.83h1.16v7.28c0 .33.05.58.15.75.1.16.22.27.38.33.15.05.32.08.49.08l.32-.02.2-.04.23 1.05a2.34 2.34 0 0 1-.87.14c-.33 0-.66-.07-.97-.21a1.94 1.94 0 0 1-.8-.66 1.9 1.9 0 0 1-.3-1.1v-7.6Zm5.9 4.88V145h-1.18v-10.18H197v3.74h.1c.18-.4.44-.71.8-.94.36-.24.84-.36 1.44-.36.52 0 .98.1 1.37.32.4.2.7.52.91.95.22.42.33.96.33 1.62V145h-1.17v-4.77c0-.6-.16-1.08-.48-1.41-.3-.33-.74-.5-1.3-.5-.38 0-.72.08-1.03.24-.3.16-.54.4-.71.71-.18.31-.26.7-.26 1.14Zm10.3 4.75a3.28 3.28 0 0 1-3.13-1.86 4.68 4.68 0 0 1-.43-2.06c0-.78.14-1.47.43-2.07a3.23 3.23 0 0 1 3.01-1.9c.4 0 .79.06 1.18.2a2.93 2.93 0 0 1 1.82 1.81 5 5 0 0 1 .28 1.8v.5h-5.89v-1.02h4.7c0-.43-.09-.81-.26-1.15a1.95 1.95 0 0 0-1.83-1.1c-.47 0-.87.12-1.21.36-.34.23-.6.52-.79.9-.18.36-.27.75-.27 1.17v.68c0 .58.1 1.07.3 1.47.2.4.48.7.84.9.36.21.77.31 1.25.31.3 0 .58-.04.83-.12a1.72 1.72 0 0 0 1.08-1.07l1.13.32a2.5 2.5 0 0 1-.6 1.01 2.9 2.9 0 0 1-1.05.68c-.41.16-.88.24-1.4.24Zm8.88-.16v-7.64h1.14v1.16h.07c.14-.38.4-.69.76-.92.37-.24.78-.36 1.23-.36a14.75 14.75 0 0 1 .62.02v1.2a3.67 3.67 0 0 0-.72-.08c-.37 0-.7.08-1 .23a1.72 1.72 0 0 0-.93 1.56V145h-1.17Zm8.18.16a3.27 3.27 0 0 1-3.13-1.86 4.68 4.68 0 0 1-.43-2.06c0-.78.14-1.47.43-2.07a3.23 3.23 0 0 1 3.01-1.9c.4 0 .8.06 1.18.2a2.93 2.93 0 0 1 1.82 1.81 5 5 0 0 1 .28 1.8v.5h-5.88v-1.02h4.69c0-.43-.09-.81-.26-1.15a1.94 1.94 0 0 0-1.83-1.1 2.2 2.2 0 0 0-1.99 1.26c-.19.36-.28.75-.28 1.17v.68c0 .58.1 1.07.3 1.47.2.4.48.7.84.9a2.8 2.8 0 0 0 2.09.19c.25-.1.46-.23.65-.4.18-.18.32-.4.42-.67l1.13.32a2.5 2.5 0 0 1-.6 1.01c-.28.3-.63.52-1.04.68-.42.16-.88.24-1.4.24Zm7.2.02c-.49 0-.93-.1-1.32-.27a2.3 2.3 0 0 1-.94-.8 2.26 2.26 0 0 1-.35-1.28c0-.44.09-.79.26-1.06.17-.28.4-.5.69-.65.29-.15.6-.27.95-.35.35-.08.7-.14 1.06-.19l1.13-.13c.3-.03.5-.09.64-.16.13-.08.2-.21.2-.4v-.04c0-.5-.13-.87-.4-1.14-.27-.28-.67-.41-1.21-.41a2.1 2.1 0 0 0-1.99 1.15l-1.11-.4a2.67 2.67 0 0 1 1.89-1.63 4.53 4.53 0 0 1 2.01-.07c.33.06.64.18.94.36.3.18.55.45.75.8.2.37.3.85.3 1.46V145h-1.18v-1.03h-.06a2.3 2.3 0 0 1-1.14 1.01c-.3.13-.68.2-1.13.2Zm.17-1.06c.47 0 .86-.09 1.18-.27a1.88 1.88 0 0 0 .97-1.61v-1.08c-.05.06-.16.12-.33.17l-.57.12a29.98 29.98 0 0 1-1.13.15c-.3.04-.59.1-.85.2-.27.08-.48.21-.64.39a1 1 0 0 0-.24.7c0 .41.15.72.45.93.3.2.7.3 1.16.3Zm6.64-9.3V145h-1.18v-10.18h1.18Zm9.29 10.34a3.27 3.27 0 0 1-3.13-1.86 4.68 4.68 0 0 1-.43-2.06c0-.78.14-1.47.42-2.07.3-.6.7-1.06 1.2-1.4a3.61 3.61 0 0 1 2.99-.3 2.94 2.94 0 0 1 1.83 1.81 5 5 0 0 1 .28 1.8v.5h-5.89v-1.02h4.7c0-.43-.1-.81-.26-1.15a1.94 1.94 0 0 0-1.83-1.1c-.47 0-.87.12-1.22.36-.33.23-.6.52-.78.9-.18.36-.27.75-.27 1.17v.68c0 .58.1 1.07.3 1.47.2.4.48.7.84.9.36.21.77.31 1.25.31.3 0 .58-.04.83-.12a1.72 1.72 0 0 0 1.08-1.07l1.13.32a2.5 2.5 0 0 1-.6 1.01c-.28.3-.63.52-1.05.68-.41.16-.88.24-1.4.24Zm5.61-7.8 1.83 3.13 1.83-3.13h1.35l-2.46 3.82 2.46 3.82h-1.35l-1.83-2.96-1.83 2.96h-1.35l2.43-3.82-2.43-3.82h1.35Zm8.94 7.82c-.49 0-.93-.1-1.32-.27-.4-.19-.7-.46-.94-.8a2.26 2.26 0 0 1-.35-1.28c0-.44.09-.79.26-1.06.17-.28.4-.5.69-.65.29-.15.6-.27.95-.35.36-.08.7-.14 1.06-.19a52 52 0 0 1 1.13-.13c.3-.03.5-.09.64-.16.13-.08.2-.21.2-.4v-.04c0-.5-.13-.87-.4-1.14-.26-.28-.67-.41-1.2-.41-.57 0-1 .12-1.33.37-.31.24-.54.5-.67.78l-1.11-.4a2.68 2.68 0 0 1 1.89-1.63 4.55 4.55 0 0 1 2.02-.07c.32.06.63.18.93.36.3.18.55.45.75.8.2.37.3.85.3 1.46V145h-1.18v-1.03h-.06a2.28 2.28 0 0 1-1.14 1.01c-.3.13-.68.2-1.12.2Zm.18-1.06c.46 0 .85-.09 1.17-.27a1.86 1.86 0 0 0 .97-1.61v-1.08a.71.71 0 0 1-.32.17l-.58.12a30.87 30.87 0 0 1-1.13.15c-.3.04-.59.1-.85.2-.26.08-.47.21-.64.39a1 1 0 0 0-.24.7c0 .41.16.72.46.93.3.2.69.3 1.15.3Zm5.46.88v-7.64h1.13v1.2h.1c.16-.41.42-.73.77-.95.36-.23.78-.35 1.28-.35s.92.12 1.26.35c.33.22.6.54.79.95h.08c.2-.4.49-.71.88-.94.39-.24.86-.36 1.4-.36.69 0 1.25.22 1.68.65.43.42.65 1.08.65 1.98V145h-1.17v-5.11c0-.56-.16-.97-.46-1.2a1.7 1.7 0 0 0-1.1-.37c-.53 0-.95.16-1.24.49-.3.32-.44.72-.44 1.22V145h-1.2v-5.23c0-.43-.14-.78-.42-1.05a1.5 1.5 0 0 0-1.09-.4c-.3 0-.59.08-.85.24-.27.16-.48.39-.64.68a2 2 0 0 0-.24.99V145h-1.17Z" fill="#333"/></g><defs><filter id="a" x="0" y="0" width="314" height="184" filterUnits="userSpaceOnUse" color-interpolation-filters="sRGB"><feFlood flood-opacity="0" result="BackgroundImageFix"/><feColorMatrix in="SourceAlpha" values="0 0 0 0 0 0 0 0 0 0 0 0 0 0 0 0 0 0 127 0" result="hardAlpha"/><feOffset dy="3"/><feGaussianBlur stdDeviation="3"/><feColorMatrix values="0 0 0 0 0.2 0 0 0 0 0.2 0 0 0 0 0.2 0 0 0 0.1 0"/><feBlend in2="BackgroundImageFix" result="effect1_dropShadow_821_55351"/><feColorMatrix in="SourceAlpha" values="0 0 0 0 0 0 0 0 0 0 0 0 0 0 0 0 0 0 127 0" result="hardAlpha"/><feOffset dy="3"/><feGaussianBlur stdDeviation="3"/><feColorMatrix values="0 0 0 0 0.2 0 0 0 0 0.2 0 0 0 0 0.2 0 0 0 0.1 0"/><feBlend in2="effect1_dropShadow_821_55351" result="effect2_dropShadow_821_55351"/><feBlend in="SourceGraphic" in2="effect2_dropShadow_821_55351" result="shape"/></filter></defs></svg>