<svg width="144" height="61" fill="none" xmlns="http://www.w3.org/2000/svg"><path d="M40.5 21.5h63v39h-63v-39Z" fill="#fff"/><path d="M61 47.16c-.86 0-1.59-.23-2.19-.7a4.37 4.37 0 0 1-1.38-2.04 9.7 9.7 0 0 1-.48-3.24c0-1.26.16-2.33.48-3.22a4.4 4.4 0 0 1 1.39-2.05c.6-.47 1.33-.7 2.18-.7.85 0 1.57.23 2.18.7.6.47 1.06 1.16 1.38 2.05.32.89.49 1.96.49 3.22a9.7 9.7 0 0 1-.48 3.24 4.37 4.37 0 0 1-1.38 2.04c-.6.47-1.33.7-2.19.7Zm0-1.25c.85 0 1.5-.41 1.98-1.23.47-.82.7-1.98.7-3.5 0-1-.1-1.86-.32-2.57a3.53 3.53 0 0 0-.92-1.62c-.4-.37-.88-.56-1.44-.56-.84 0-1.5.42-1.97 1.25a7.01 7.01 0 0 0-.71 3.5 9 9 0 0 0 .32 2.57c.2.7.51 1.24.91 1.6.4.38.89.56 1.45.56Z" fill="#757575"/><path d="M40.5 21.5h63v39h-63v-39Z" stroke="#545454"/><mask id="a" fill="#fff"><path d="M0 25a4 4 0 0 1 4-4h36v40H4a4 4 0 0 1-4-4V25Z"/></mask><path d="M0 25a4 4 0 0 1 4-4h36v40H4a4 4 0 0 1-4-4V25Z" fill="#fff"/><path d="M28 41.38H12a.38.38 0 0 1-.38-.38c0-.21.17-.38.38-.38h16c.2 0 .38.17.38.38s-.17.38-.38.38Z" fill="#0F67F5" stroke="#757575"/><path d="M-1 25a5 5 0 0 1 5-5h36v2H4a3 3 0 0 0-3 3h-2Zm41 37H4a5 5 0 0 1-5-5h2a3 3 0 0 0 3 3h36v2ZM4 62a5 5 0 0 1-5-5V25a5 5 0 0 1 5-5v2a3 3 0 0 0-3 3v32a3 3 0 0 0 3 3v2Zm36-41v40-40Z" fill="#545454" mask="url(#a)"/><mask id="b" fill="#fff"><path d="M104 21h36a4 4 0 0 1 4 4v32a4 4 0 0 1-4 4h-36V21Z"/></mask><path d="M104 21h36a4 4 0 0 1 4 4v32a4 4 0 0 1-4 4h-36V21Z" fill="#fff"/><path d="M123.62 41.88v-.5H116a.38.38 0 0 1-.38-.38c0-.21.17-.38.38-.38h7.62V33c0-.2.17-.38.38-.38s.38.17.38.38v7.62H132c.2 0 .38.17.38.38s-.17.38-.38.38h-7.62V49c0 .2-.17.38-.38.38a.38.38 0 0 1-.38-.38v-7.12Z" fill="#0F67F5" stroke="#757575"/><path d="M104 20h36a5 5 0 0 1 5 5h-2a3 3 0 0 0-3-3h-36v-2Zm41 37a5 5 0 0 1-5 5h-36v-2h36a3 3 0 0 0 3-3h2Zm-41 4V21v40Zm36-41a5 5 0 0 1 5 5v32a5 5 0 0 1-5 5v-2a3 3 0 0 0 3-3V25a3 3 0 0 0-3-3v-2Z" fill="#545454" mask="url(#b)"/><path d="M1 11V.82h1.85v8.63h4.48V11H1Zm10.05.15c-.48 0-.92-.08-1.3-.25a2.13 2.13 0 0 1-.92-.78 2.27 2.27 0 0 1-.33-1.26c0-.43.08-.79.24-1.07.15-.28.37-.5.65-.68.27-.17.58-.3.93-.38.34-.09.7-.15 1.07-.2l1.1-.12c.27-.04.47-.1.6-.18.13-.08.2-.2.2-.38v-.03c0-.37-.12-.66-.34-.87-.22-.2-.54-.3-.96-.3-.44 0-.79.09-1.05.28-.25.2-.43.42-.51.68l-1.68-.24a2.68 2.68 0 0 1 1.77-1.87 4.76 4.76 0 0 1 2.56-.1c.36.08.7.22 1 .42.3.2.54.46.73.8.18.34.27.76.27 1.27V11h-1.73V9.95h-.06A2.2 2.2 0 0 1 12.1 11c-.3.1-.64.16-1.04.16Zm.47-1.32a2 2 0 0 0 .94-.21c.26-.15.47-.34.61-.58.15-.24.22-.5.22-.78v-.9a.85.85 0 0 1-.29.13 13.83 13.83 0 0 1-1.36.24c-.27.04-.51.1-.72.18-.21.09-.38.2-.5.35a.85.85 0 0 0-.19.57c0 .33.12.58.36.75.25.17.55.25.93.25ZM16.97 11V.82h1.8v3.8h.08c.09-.18.22-.38.39-.59.17-.2.4-.39.69-.54a2.91 2.91 0 0 1 3.83 1.55c.28.59.42 1.3.42 2.15a5 5 0 0 1-.41 2.14 2.89 2.89 0 0 1-2.73 1.8c-.44 0-.8-.07-1.1-.21a2.22 2.22 0 0 1-.69-.53 3.3 3.3 0 0 1-.4-.6h-.1V11h-1.78Zm1.77-3.82c0 .5.07.93.2 1.3.15.37.35.66.62.87.27.2.6.3.97.3.4 0 .73-.1 1-.31.27-.22.47-.5.6-.88.15-.38.22-.8.22-1.28 0-.47-.07-.9-.2-1.26a1.9 1.9 0 0 0-.61-.87c-.27-.2-.6-.3-1-.3a1.6 1.6 0 0 0-1.59 1.14c-.14.37-.21.8-.21 1.3Zm10.35 3.97c-.76 0-1.42-.16-1.98-.48a3.23 3.23 0 0 1-1.28-1.36 4.56 4.56 0 0 1-.45-2.08c0-.79.15-1.48.45-2.07A3.38 3.38 0 0 1 29 3.26c.47 0 .91.08 1.33.23a3.19 3.19 0 0 1 1.88 1.9c.19.49.28 1.06.28 1.73v.55h-6.26v-1.2h4.53c0-.35-.07-.66-.22-.93a1.63 1.63 0 0 0-.61-.64 1.72 1.72 0 0 0-.9-.23c-.38 0-.7.09-.98.26-.28.18-.5.41-.65.7a2 2 0 0 0-.23.94v1.06c0 .44.08.82.24 1.14.16.32.4.56.68.73.3.16.64.25 1.03.25.26 0 .5-.04.7-.11.22-.08.4-.19.56-.34.16-.14.27-.32.35-.54l1.68.2c-.1.44-.3.82-.6 1.16-.3.32-.68.58-1.14.76-.46.18-.98.27-1.58.27ZM35.81.82V11h-1.8V.82h1.8Z" fill="#333"/></svg>