<svg width="146" height="97" viewBox="0 0 146 97" fill="none" xmlns="http://www.w3.org/2000/svg">
<path d="M41.75 32.5H104.75V71.5H41.75V32.5Z" fill="white"/>
<path d="M62.25 58.1591C61.3939 58.1591 60.6648 57.9261 60.0625 57.4602C59.4602 56.9905 59 56.3106 58.6818 55.4205C58.3636 54.5265 58.2045 53.447 58.2045 52.1818C58.2045 50.9242 58.3636 49.8504 58.6818 48.9602C59.0038 48.0663 59.4659 47.3845 60.0682 46.9148C60.6742 46.4413 61.4015 46.2045 62.25 46.2045C63.0985 46.2045 63.8239 46.4413 64.4261 46.9148C65.0322 47.3845 65.4943 48.0663 65.8125 48.9602C66.1345 49.8504 66.2955 50.9242 66.2955 52.1818C66.2955 53.447 66.1364 54.5265 65.8182 55.4205C65.5 56.3106 65.0398 56.9905 64.4375 57.4602C63.8352 57.9261 63.1061 58.1591 62.25 58.1591ZM62.25 56.9091C63.0985 56.9091 63.7576 56.5 64.2273 55.6818C64.697 54.8636 64.9318 53.697 64.9318 52.1818C64.9318 51.1742 64.8239 50.3163 64.608 49.608C64.3958 48.8996 64.089 48.3598 63.6875 47.9886C63.2898 47.6174 62.8106 47.4318 62.25 47.4318C61.4091 47.4318 60.7519 47.8466 60.2784 48.6761C59.8049 49.5019 59.5682 50.6705 59.5682 52.1818C59.5682 53.1894 59.6742 54.0455 59.8864 54.75C60.0985 55.4545 60.4034 55.9905 60.8011 56.358C61.2027 56.7254 61.6856 56.9091 62.25 56.9091Z" fill="#757575"/>
<path d="M41.75 32.5H104.75V71.5H41.75V32.5Z" stroke="#545454"/>
<path d="M8.22159 9.5625C8.16856 9.06629 7.94508 8.67992 7.55114 8.40341C7.16099 8.12689 6.65341 7.98864 6.02841 7.98864C5.58902 7.98864 5.21212 8.05492 4.89773 8.1875C4.58333 8.32008 4.3428 8.5 4.17614 8.72727C4.00947 8.95455 3.92424 9.21402 3.92045 9.50568C3.92045 9.74811 3.97538 9.95833 4.08523 10.1364C4.19886 10.3144 4.35227 10.4659 4.54545 10.5909C4.73864 10.7121 4.95265 10.8144 5.1875 10.8977C5.42235 10.9811 5.65909 11.0511 5.89773 11.108L6.98864 11.3807C7.42803 11.483 7.85038 11.6212 8.25568 11.7955C8.66477 11.9697 9.0303 12.1894 9.35227 12.4545C9.67803 12.7197 9.93561 13.0398 10.125 13.4148C10.3144 13.7898 10.4091 14.2292 10.4091 14.733C10.4091 15.4148 10.2348 16.0152 9.88636 16.5341C9.53788 17.0492 9.03409 17.4527 8.375 17.7443C7.7197 18.0322 6.92614 18.1761 5.99432 18.1761C5.08902 18.1761 4.30303 18.036 3.63636 17.7557C2.97348 17.4754 2.45455 17.0663 2.07955 16.5284C1.70833 15.9905 1.50758 15.3352 1.47727 14.5625H3.55114C3.58144 14.9678 3.70644 15.3049 3.92614 15.5739C4.14583 15.8428 4.43182 16.0436 4.78409 16.1761C5.14015 16.3087 5.53788 16.375 5.97727 16.375C6.43561 16.375 6.83712 16.3068 7.18182 16.1705C7.5303 16.0303 7.80303 15.8371 8 15.5909C8.19697 15.3409 8.29735 15.0492 8.30114 14.7159C8.29735 14.4129 8.20833 14.1629 8.03409 13.9659C7.85985 13.7652 7.61553 13.5985 7.30114 13.4659C6.99053 13.3295 6.62689 13.2083 6.21023 13.1023L4.88636 12.7614C3.92803 12.5152 3.17045 12.142 2.61364 11.642C2.06061 11.1383 1.78409 10.4697 1.78409 9.63636C1.78409 8.95076 1.9697 8.35038 2.34091 7.83523C2.71591 7.32008 3.22538 6.92045 3.86932 6.63636C4.51326 6.34848 5.24242 6.20455 6.05682 6.20455C6.88258 6.20455 7.60606 6.34848 8.22727 6.63636C8.85227 6.92045 9.3428 7.31629 9.69886 7.82386C10.0549 8.32765 10.2386 8.9072 10.25 9.5625H8.22159ZM16.5554 9.27273V10.8636H11.5384V9.27273H16.5554ZM12.777 7.18182H14.8338V15.375C14.8338 15.6515 14.8755 15.8636 14.9588 16.0114C15.0459 16.1553 15.1596 16.2538 15.2997 16.3068C15.4399 16.3598 15.5952 16.3864 15.7656 16.3864C15.8944 16.3864 16.0118 16.3769 16.1179 16.358C16.2277 16.339 16.3111 16.322 16.3679 16.3068L16.7145 17.9148C16.6046 17.9527 16.4474 17.9943 16.2429 18.0398C16.0421 18.0852 15.7959 18.1117 15.5043 18.1193C14.9891 18.1345 14.5251 18.0568 14.1122 17.8864C13.6993 17.7121 13.3717 17.4432 13.1293 17.0795C12.8906 16.7159 12.7732 16.2614 12.777 15.7159V7.18182ZM23.8381 14.3295V9.27273H25.8949V18H23.9006V16.4489H23.8097C23.6127 16.9375 23.2888 17.3371 22.8381 17.6477C22.3911 17.9583 21.84 18.1136 21.1847 18.1136C20.6127 18.1136 20.107 17.9867 19.6676 17.733C19.232 17.4754 18.8911 17.1023 18.6449 16.6136C18.3987 16.1212 18.2756 15.5265 18.2756 14.8295V9.27273H20.3324V14.5114C20.3324 15.0644 20.4839 15.5038 20.7869 15.8295C21.09 16.1553 21.4877 16.3182 21.9801 16.3182C22.2831 16.3182 22.5767 16.2443 22.8608 16.0966C23.1449 15.9489 23.3778 15.7292 23.5597 15.4375C23.7453 15.142 23.8381 14.7727 23.8381 14.3295ZM31.2486 18.1534C30.563 18.1534 29.9493 17.9773 29.4077 17.625C28.866 17.2727 28.438 16.7614 28.1236 16.0909C27.8092 15.4205 27.652 14.6061 27.652 13.6477C27.652 12.678 27.8111 11.8598 28.1293 11.1932C28.4512 10.5227 28.8849 10.017 29.4304 9.67614C29.9759 9.33144 30.5838 9.15909 31.2543 9.15909C31.7656 9.15909 32.1861 9.24621 32.5156 9.42045C32.8452 9.59091 33.1065 9.79735 33.2997 10.0398C33.4929 10.2784 33.6425 10.5038 33.7486 10.7159H33.8338V6.36364H35.8963V18H33.8736V16.625H33.7486C33.6425 16.8371 33.4891 17.0625 33.2884 17.3011C33.0876 17.536 32.8224 17.7367 32.4929 17.9034C32.1634 18.0701 31.7486 18.1534 31.2486 18.1534ZM31.8224 16.4659C32.258 16.4659 32.6293 16.3485 32.9361 16.1136C33.2429 15.875 33.4759 15.5436 33.6349 15.1193C33.794 14.6951 33.8736 14.2008 33.8736 13.6364C33.8736 13.072 33.794 12.5814 33.6349 12.1648C33.4796 11.7481 33.2486 11.4242 32.9418 11.1932C32.6387 10.9621 32.2656 10.8466 31.8224 10.8466C31.3641 10.8466 30.9815 10.9659 30.6747 11.2045C30.3679 11.4432 30.1368 11.7727 29.9815 12.1932C29.8262 12.6136 29.7486 13.0947 29.7486 13.6364C29.7486 14.1818 29.8262 14.6686 29.9815 15.0966C30.1406 15.5208 30.3736 15.8561 30.6804 16.1023C30.991 16.3447 31.3717 16.4659 31.8224 16.4659ZM41.9517 18.1705C41.0767 18.1705 40.321 17.9886 39.6847 17.625C39.0521 17.2576 38.5653 16.7386 38.2244 16.0682C37.8835 15.3939 37.7131 14.6004 37.7131 13.6875C37.7131 12.7898 37.8835 12.0019 38.2244 11.3239C38.5691 10.642 39.0502 10.1117 39.6676 9.73295C40.285 9.35038 41.0104 9.15909 41.8438 9.15909C42.3816 9.15909 42.8892 9.24621 43.3665 9.42045C43.8475 9.59091 44.2718 9.85606 44.6392 10.2159C45.0104 10.5758 45.3021 11.0341 45.5142 11.5909C45.7263 12.1439 45.8324 12.803 45.8324 13.5682V14.1989H38.679V12.8125H43.8608C43.857 12.4186 43.7718 12.0682 43.6051 11.7614C43.4384 11.4508 43.2055 11.2064 42.9062 11.0284C42.6108 10.8504 42.2661 10.7614 41.8722 10.7614C41.4517 10.7614 41.0824 10.8636 40.7642 11.0682C40.446 11.2689 40.1979 11.5341 40.0199 11.8636C39.8456 12.1894 39.7566 12.5473 39.7528 12.9375V14.1477C39.7528 14.6553 39.8456 15.0909 40.0312 15.4545C40.2169 15.8144 40.4763 16.0909 40.8097 16.2841C41.143 16.4735 41.5331 16.5682 41.9801 16.5682C42.2794 16.5682 42.5502 16.5265 42.7926 16.4432C43.035 16.3561 43.2453 16.2292 43.4233 16.0625C43.6013 15.8958 43.7358 15.6894 43.8267 15.4432L45.7472 15.6591C45.6259 16.1667 45.3949 16.6098 45.054 16.9886C44.7169 17.3636 44.285 17.6553 43.7585 17.8636C43.232 18.0682 42.6297 18.1705 41.9517 18.1705ZM49.6293 12.8864V18H47.5724V9.27273H49.5384V10.7557H49.6406C49.8414 10.267 50.1615 9.87879 50.6009 9.59091C51.044 9.30303 51.5914 9.15909 52.2429 9.15909C52.8452 9.15909 53.3698 9.28788 53.8168 9.54545C54.2675 9.80303 54.616 10.1761 54.8622 10.6648C55.1122 11.1534 55.2353 11.7462 55.2315 12.4432V18H53.1747V12.7614C53.1747 12.178 53.0232 11.7216 52.7202 11.392C52.4209 11.0625 52.0062 10.8977 51.4759 10.8977C51.116 10.8977 50.7959 10.9773 50.5156 11.1364C50.2391 11.2917 50.0213 11.517 49.8622 11.8125C49.7069 12.108 49.6293 12.4659 49.6293 12.8864ZM61.6804 9.27273V10.8636H56.6634V9.27273H61.6804ZM57.902 7.18182H59.9588V15.375C59.9588 15.6515 60.0005 15.8636 60.0838 16.0114C60.1709 16.1553 60.2846 16.2538 60.4247 16.3068C60.5649 16.3598 60.7202 16.3864 60.8906 16.3864C61.0194 16.3864 61.1368 16.3769 61.2429 16.358C61.3527 16.339 61.4361 16.322 61.4929 16.3068L61.8395 17.9148C61.7296 17.9527 61.5724 17.9943 61.3679 18.0398C61.1671 18.0852 60.9209 18.1117 60.6293 18.1193C60.1141 18.1345 59.6501 18.0568 59.2372 17.8864C58.8243 17.7121 58.4967 17.4432 58.2543 17.0795C58.0156 16.7159 57.8982 16.2614 57.902 15.7159V7.18182ZM70.1733 11.5795L68.2983 11.7841C68.2453 11.5947 68.1525 11.4167 68.0199 11.25C67.8911 11.0833 67.7169 10.9489 67.4972 10.8466C67.2775 10.7443 67.0085 10.6932 66.6903 10.6932C66.2623 10.6932 65.9025 10.786 65.6108 10.9716C65.3229 11.1572 65.1809 11.3977 65.1847 11.6932C65.1809 11.947 65.2737 12.1534 65.4631 12.3125C65.6563 12.4716 65.9744 12.6023 66.4176 12.7045L67.9062 13.0227C68.732 13.2008 69.3456 13.483 69.7472 13.8693C70.1525 14.2557 70.357 14.7614 70.3608 15.3864C70.357 15.9356 70.196 16.4205 69.8778 16.8409C69.5634 17.2576 69.1259 17.5833 68.5653 17.8182C68.0047 18.053 67.3608 18.1705 66.6335 18.1705C65.5653 18.1705 64.7055 17.947 64.054 17.5C63.4025 17.0492 63.0142 16.4223 62.8892 15.6193L64.8949 15.4261C64.9858 15.8201 65.179 16.1174 65.4744 16.3182C65.7699 16.5189 66.1544 16.6193 66.6278 16.6193C67.1165 16.6193 67.5085 16.5189 67.804 16.3182C68.1032 16.1174 68.2528 15.8693 68.2528 15.5739C68.2528 15.3239 68.1563 15.1174 67.9631 14.9545C67.7737 14.7917 67.4782 14.6667 67.0767 14.5795L65.5881 14.267C64.7509 14.0928 64.1316 13.7992 63.7301 13.3864C63.3286 12.9697 63.1297 12.4432 63.1335 11.8068C63.1297 11.2689 63.2756 10.803 63.571 10.4091C63.8703 10.0114 64.285 9.70455 64.8153 9.48864C65.3494 9.26894 65.965 9.15909 66.6619 9.15909C67.6847 9.15909 68.4896 9.37689 69.0767 9.8125C69.6676 10.2481 70.0331 10.8371 70.1733 11.5795Z" fill="#1F1F1F"/>
<path d="M2.41477 94H1.30682L4.51136 85.2727H5.60227L8.80682 94H7.69886L5.09091 86.6534H5.02273L2.41477 94ZM2.82386 90.5909H7.28977V91.5284H2.82386V90.5909ZM12.6719 96.5909C12.1861 96.5909 11.7685 96.5284 11.419 96.4034C11.0696 96.2812 10.7784 96.1193 10.5455 95.9176C10.3153 95.7188 10.1321 95.5057 9.99574 95.2784L10.7969 94.7159C10.8878 94.8352 11.0028 94.9716 11.142 95.125C11.2813 95.2812 11.4716 95.4162 11.7131 95.5298C11.9574 95.6463 12.277 95.7045 12.6719 95.7045C13.2003 95.7045 13.6364 95.5767 13.9801 95.321C14.3239 95.0653 14.4957 94.6648 14.4957 94.1193V92.7898H14.4105C14.3366 92.9091 14.2315 93.0568 14.0952 93.233C13.9616 93.4062 13.7685 93.5611 13.5156 93.6974C13.2656 93.831 12.9276 93.8977 12.5014 93.8977C11.973 93.8977 11.4986 93.7727 11.0781 93.5227C10.6605 93.2727 10.3295 92.9091 10.0852 92.4318C9.84375 91.9545 9.72301 91.375 9.72301 90.6932C9.72301 90.0227 9.84091 89.4389 10.0767 88.9418C10.3125 88.4418 10.6406 88.0554 11.0611 87.7827C11.4815 87.5071 11.9673 87.3693 12.5185 87.3693C12.9446 87.3693 13.2827 87.4403 13.5327 87.5824C13.7855 87.7216 13.9787 87.8807 14.1122 88.0597C14.2486 88.2358 14.3537 88.3807 14.4276 88.4943H14.5298V87.4545H15.5014V94.1875C15.5014 94.75 15.3736 95.2074 15.1179 95.5597C14.8651 95.9148 14.5241 96.1747 14.0952 96.3395C13.669 96.5071 13.1946 96.5909 12.6719 96.5909ZM12.6378 92.9943C13.0412 92.9943 13.3821 92.902 13.6605 92.7173C13.9389 92.5327 14.1506 92.267 14.2955 91.9205C14.4403 91.5739 14.5128 91.1591 14.5128 90.6761C14.5128 90.2045 14.4418 89.7884 14.2997 89.4276C14.1577 89.0668 13.9474 88.7841 13.669 88.5795C13.3906 88.375 13.0469 88.2727 12.6378 88.2727C12.2116 88.2727 11.8565 88.3807 11.5724 88.5966C11.2912 88.8125 11.0795 89.1023 10.9375 89.4659C10.7983 89.8295 10.7287 90.233 10.7287 90.6761C10.7287 91.1307 10.7997 91.5327 10.9418 91.8821C11.0866 92.2287 11.2997 92.5014 11.581 92.7003C11.8651 92.8963 12.2173 92.9943 12.6378 92.9943ZM20.0866 94.1364C19.456 94.1364 18.9119 93.9972 18.4545 93.7188C18 93.4375 17.6491 93.0455 17.402 92.5426C17.1577 92.0369 17.0355 91.4489 17.0355 90.7784C17.0355 90.108 17.1577 89.517 17.402 89.0057C17.6491 88.4915 17.9929 88.0909 18.4332 87.804C18.8764 87.5142 19.3935 87.3693 19.9844 87.3693C20.3253 87.3693 20.6619 87.4261 20.9943 87.5398C21.3267 87.6534 21.6293 87.8381 21.902 88.0938C22.1747 88.3466 22.392 88.6818 22.554 89.0994C22.7159 89.517 22.7969 90.0312 22.7969 90.642V91.0682H17.7514V90.1989H21.7741C21.7741 89.8295 21.7003 89.5 21.5526 89.2102C21.4077 88.9205 21.2003 88.6918 20.9304 88.5241C20.6634 88.3565 20.348 88.2727 19.9844 88.2727C19.5838 88.2727 19.2372 88.3722 18.9446 88.571C18.6548 88.767 18.4318 89.0227 18.2756 89.3381C18.1193 89.6534 18.0412 89.9915 18.0412 90.3523V90.9318C18.0412 91.4261 18.1264 91.8452 18.2969 92.1889C18.4702 92.5298 18.7102 92.7898 19.017 92.9688C19.3239 93.1449 19.6804 93.233 20.0866 93.233C20.3509 93.233 20.5895 93.196 20.8026 93.1222C21.0185 93.0455 21.2045 92.9318 21.3608 92.7812C21.517 92.6278 21.6378 92.4375 21.723 92.2102L22.6946 92.483C22.5923 92.8125 22.4205 93.1023 22.179 93.3523C21.9375 93.5994 21.6392 93.7926 21.2841 93.9318C20.929 94.0682 20.5298 94.1364 20.0866 94.1364ZM28.9631 88.9205L28.0597 89.1761C28.0028 89.0256 27.919 88.8793 27.8082 88.7372C27.7003 88.5923 27.5526 88.473 27.3651 88.3793C27.1776 88.2855 26.9375 88.2386 26.6449 88.2386C26.2443 88.2386 25.9105 88.331 25.6435 88.5156C25.3793 88.6974 25.2472 88.929 25.2472 89.2102C25.2472 89.4602 25.3381 89.6577 25.5199 89.8026C25.7017 89.9474 25.9858 90.0682 26.3722 90.1648L27.3438 90.4034C27.929 90.5455 28.3651 90.7628 28.652 91.0554C28.9389 91.3452 29.0824 91.7187 29.0824 92.1761C29.0824 92.5511 28.9744 92.8864 28.7585 93.1818C28.5455 93.4773 28.2472 93.7102 27.8636 93.8807C27.4801 94.0511 27.0341 94.1364 26.5256 94.1364C25.858 94.1364 25.3054 93.9915 24.8679 93.7017C24.4304 93.4119 24.1534 92.9886 24.0369 92.4318L24.9915 92.1932C25.0824 92.5455 25.2543 92.8097 25.5071 92.9858C25.7628 93.1619 26.0966 93.25 26.5085 93.25C26.9773 93.25 27.3494 93.1506 27.625 92.9517C27.9034 92.75 28.0426 92.5085 28.0426 92.2273C28.0426 92 27.9631 91.8097 27.804 91.6562C27.6449 91.5 27.4006 91.3835 27.071 91.3068L25.9801 91.0511C25.3807 90.9091 24.9403 90.6889 24.6591 90.3906C24.3807 90.0895 24.2415 89.7131 24.2415 89.2614C24.2415 88.892 24.3452 88.5653 24.5526 88.2812C24.7628 87.9972 25.0483 87.7741 25.4091 87.6122C25.7727 87.4503 26.1847 87.3693 26.6449 87.3693C27.2926 87.3693 27.8011 87.5114 28.1705 87.7955C28.5426 88.0795 28.8068 88.4545 28.9631 88.9205ZM34.2269 94L38.1303 86.2784V86.2102H33.6303V85.2727H39.2212V86.2614L35.3349 94H34.2269ZM44.5767 89.1676V90.1051H40.7585V89.1676H44.5767ZM49.3974 85.2727V94H48.3406V86.3807H48.2894L46.1587 87.7955V86.7216L48.3406 85.2727H49.3974ZM51.7028 92.2102V91.3409L55.538 85.2727H56.1687V86.6193H55.7425L52.8448 91.2045V91.2727H58.0096V92.2102H51.7028ZM55.8107 94V91.946V91.5412V85.2727H56.8164V94H55.8107Z" fill="#545454"/>
<g opacity="0.3">
<mask id="path-5-inside-1_11653_104345" fill="white">
<path d="M1.25 36C1.25 33.7909 3.04086 32 5.25 32H41.25V72H5.25C3.04086 72 1.25 70.2091 1.25 68V36Z"/>
</mask>
<path d="M1.25 36C1.25 33.7909 3.04086 32 5.25 32H41.25V72H5.25C3.04086 72 1.25 70.2091 1.25 68V36Z" fill="white"/>
<path d="M29.2501 52.38H13.2501C13.0426 52.38 12.8701 52.2102 12.8701 52C12.8701 51.7861 13.0363 51.62 13.2501 51.62H29.2501C29.4577 51.62 29.6301 51.7898 29.6301 52C29.6301 52.2139 29.464 52.38 29.2501 52.38Z" fill="#0F67F5" stroke="#757575"/>
<path d="M0.25 36C0.25 33.2386 2.48858 31 5.25 31H41.25V33H5.25C3.59315 33 2.25 34.3431 2.25 36H0.25ZM41.25 73H5.25C2.48858 73 0.25 70.7614 0.25 68H2.25C2.25 69.6569 3.59315 71 5.25 71H41.25V73ZM5.25 73C2.48858 73 0.25 70.7614 0.25 68V36C0.25 33.2386 2.48858 31 5.25 31V33C3.59315 33 2.25 34.3431 2.25 36V68C2.25 69.6569 3.59315 71 5.25 71V73ZM41.25 32V72V32Z" fill="#545454" mask="url(#path-5-inside-1_11653_104345)"/>
</g>
<mask id="path-8-inside-2_11653_104345" fill="white">
<path d="M105.25 32H141.25C143.459 32 145.25 33.7909 145.25 36V68C145.25 70.2091 143.459 72 141.25 72H105.25V32Z"/>
</mask>
<path d="M105.25 32H141.25C143.459 32 145.25 33.7909 145.25 36V68C145.25 70.2091 143.459 72 141.25 72H105.25V32Z" fill="white"/>
<path d="M124.87 52.88V52.38H124.37H117.25C117.043 52.38 116.87 52.2102 116.87 52C116.87 51.7861 117.036 51.62 117.25 51.62H124.37H124.87V51.12V44C124.87 43.7924 125.04 43.62 125.25 43.62C125.464 43.62 125.63 43.7861 125.63 44V51.12V51.62H126.13H133.25C133.458 51.62 133.63 51.7898 133.63 52C133.63 52.2139 133.464 52.38 133.25 52.38H126.13H125.63V52.88V60C125.63 60.2076 125.46 60.38 125.25 60.38C125.043 60.38 124.87 60.2102 124.87 60V52.88Z" fill="#0F67F5" stroke="#757575"/>
<path d="M105.25 31H141.25C144.011 31 146.25 33.2386 146.25 36H144.25C144.25 34.3431 142.907 33 141.25 33H105.25V31ZM146.25 68C146.25 70.7614 144.011 73 141.25 73H105.25V71H141.25C142.907 71 144.25 69.6569 144.25 68H146.25ZM105.25 72V32V72ZM141.25 31C144.011 31 146.25 33.2386 146.25 36V68C146.25 70.7614 144.011 73 141.25 73V71C142.907 71 144.25 69.6569 144.25 68V36C144.25 34.3431 142.907 33 141.25 33V31Z" fill="#545454" mask="url(#path-8-inside-2_11653_104345)"/>
</svg>
