<svg width="146" height="97" fill="none" xmlns="http://www.w3.org/2000/svg"><path d="M41.75 32.5h63v39h-63v-39Z" fill="#fff"/><path d="M62.25 58.16c-.86 0-1.59-.23-2.19-.7a4.37 4.37 0 0 1-1.38-2.04 9.7 9.7 0 0 1-.48-3.24c0-1.26.16-2.33.48-3.22a4.4 4.4 0 0 1 1.39-2.05c.6-.47 1.33-.7 2.18-.7.85 0 1.57.23 2.18.7.6.47 1.06 1.16 1.38 2.05.32.89.49 1.96.49 3.22a9.7 9.7 0 0 1-.48 3.24 4.37 4.37 0 0 1-1.38 2.04c-.6.47-1.33.7-2.19.7Zm0-1.25c.85 0 1.5-.41 1.98-1.23.47-.82.7-1.98.7-3.5 0-1-.1-1.86-.32-2.57a3.53 3.53 0 0 0-.92-1.62c-.4-.37-.88-.56-1.44-.56-.84 0-1.5.42-1.97 1.25a7.01 7.01 0 0 0-.71 3.5 9 9 0 0 0 .32 2.57c.2.7.51 1.24.91 1.6.4.38.89.56 1.45.56Z" fill="#757575"/><path d="M41.75 32.5h63v39h-63v-39Z" stroke="#545454"/><path d="M8.22 9.56c-.05-.5-.27-.88-.67-1.16-.39-.27-.9-.41-1.52-.41-.44 0-.82.06-1.13.2-.32.13-.56.31-.72.54a1.31 1.31 0 0 0-.1 1.4c.12.18.27.34.47.46.19.12.4.22.64.3.23.1.47.16.7.22l1.1.27a7 7 0 0 1 1.27.42c.4.17.77.39 1.1.65.32.27.58.59.77.96.18.38.28.82.28 1.32a3.15 3.15 0 0 1-2.04 3.01 5.9 5.9 0 0 1-2.38.44c-.9 0-1.69-.14-2.35-.42a3.51 3.51 0 0 1-1.56-1.23 3.64 3.64 0 0 1-.6-1.97h2.07c.03.4.16.74.38 1.01s.5.47.85.6c.36.14.76.2 1.2.2.46 0 .86-.06 1.2-.2.35-.14.62-.33.82-.58.2-.25.3-.54.3-.87 0-.3-.1-.56-.27-.75-.17-.2-.41-.37-.73-.5a7.05 7.05 0 0 0-1.09-.37l-1.32-.34a5.33 5.33 0 0 1-2.28-1.12 2.58 2.58 0 0 1-.83-2 3 3 0 0 1 .56-1.8c.38-.52.89-.92 1.53-1.2a5.3 5.3 0 0 1 2.19-.44c.82 0 1.55.15 2.17.44A3.6 3.6 0 0 1 9.7 7.82c.35.5.54 1.09.55 1.74H8.22Zm8.34-.29v1.6h-5.02v-1.6h5.02Zm-3.78-2.09h2.05v8.2c0 .27.05.48.13.63.09.15.2.24.34.3.14.05.3.08.47.08a2.02 2.02 0 0 0 .6-.08l.34 1.6a4.6 4.6 0 0 1-1.2.2c-.52.02-.98-.05-1.4-.22a2.17 2.17 0 0 1-.98-.81 2.4 2.4 0 0 1-.35-1.36V7.18Zm11.06 7.15V9.27h2.05V18H23.9v-1.55h-.09c-.2.49-.52.89-.97 1.2-.45.3-1 .46-1.66.46a2.65 2.65 0 0 1-2.54-1.5 3.95 3.95 0 0 1-.36-1.78V9.27h2.05v5.24c0 .55.15 1 .46 1.32.3.33.7.49 1.19.49a1.89 1.89 0 0 0 1.58-.88c.19-.3.28-.67.28-1.11Zm7.4 3.82a3.3 3.3 0 0 1-3.12-2.06 5.72 5.72 0 0 1-.47-2.44c0-.97.16-1.79.48-2.46a3.34 3.34 0 0 1 4.39-1.77c.33.17.59.38.78.62.2.24.34.46.45.68h.08V6.36h2.07V18h-2.03v-1.38h-.12c-.1.22-.26.44-.46.68a2.53 2.53 0 0 1-2.04.85Zm.58-1.68c.44 0 .8-.12 1.12-.36.3-.23.54-.57.7-1 .15-.41.23-.9.23-1.47s-.08-1.06-.24-1.48a2.1 2.1 0 0 0-.69-.97 1.8 1.8 0 0 0-1.12-.34c-.46 0-.84.12-1.15.35-.3.24-.53.57-.69 1-.15.41-.23.9-.23 1.44 0 .54.08 1.03.23 1.46.16.42.4.76.7 1 .31.24.7.37 1.14.37Zm10.13 1.7a4.5 4.5 0 0 1-2.27-.55 3.7 3.7 0 0 1-1.46-1.55 5.21 5.21 0 0 1-.5-2.38c0-.9.16-1.69.5-2.37a3.87 3.87 0 0 1 3.62-2.16c.54 0 1.05.09 1.53.26s.9.44 1.27.8c.37.36.66.81.87 1.37.22.55.32 1.21.32 1.98v.63h-7.15v-1.4h5.18a1.96 1.96 0 0 0-.95-1.78c-.3-.18-.64-.27-1.04-.27a2 2 0 0 0-1.1.3c-.32.2-.57.47-.75.8-.17.33-.26.69-.27 1.08v1.2c0 .52.1.95.28 1.31.19.36.45.64.78.83.33.2.72.29 1.17.29.3 0 .57-.04.81-.13.24-.08.46-.21.63-.38.18-.16.32-.37.4-.62l1.93.22a3 3 0 0 1-.7 1.33c-.33.37-.77.67-1.3.87-.52.2-1.12.31-1.8.31Zm7.68-5.28V18h-2.06V9.27h1.97v1.49h.1c.2-.5.52-.88.96-1.17.44-.29 1-.43 1.64-.43.6 0 1.13.13 1.58.39.45.25.8.63 1.04 1.11.25.5.38 1.09.37 1.78V18h-2.06v-5.24c0-.58-.15-1.04-.45-1.37a1.6 1.6 0 0 0-1.24-.5c-.36 0-.68.09-.96.25-.28.15-.5.38-.66.67-.15.3-.23.66-.23 1.08Zm12.05-3.62v1.6h-5.02v-1.6h5.02ZM57.9 7.18h2.06v8.2c0 .27.04.48.12.63.1.15.2.24.34.3.14.05.3.08.47.08a2.02 2.02 0 0 0 .6-.08l.35 1.6a4.6 4.6 0 0 1-1.21.2c-.52.02-.98-.05-1.4-.22a2.17 2.17 0 0 1-.98-.81 2.4 2.4 0 0 1-.35-1.36V7.18Zm12.27 4.4-1.87.2a1.5 1.5 0 0 0-.8-.93 1.9 1.9 0 0 0-.81-.16c-.43 0-.79.1-1.08.28-.29.19-.43.43-.43.72 0 .26.1.46.28.62.2.16.51.3.96.4l1.49.31c.82.18 1.44.46 1.84.85.4.39.6.9.61 1.52 0 .55-.16 1.03-.48 1.45a3.1 3.1 0 0 1-1.31.98c-.57.23-1.2.35-1.94.35a4.48 4.48 0 0 1-2.58-.67 2.7 2.7 0 0 1-1.16-1.88l2-.2c.1.4.29.7.58.9.3.2.68.3 1.16.3.49 0 .88-.1 1.17-.3.3-.2.45-.45.45-.75a.8.8 0 0 0-.29-.62 2.02 2.02 0 0 0-.88-.37l-1.5-.31a3.54 3.54 0 0 1-1.85-.88 2.2 2.2 0 0 1-.6-1.58c0-.54.15-1 .44-1.4.3-.4.71-.7 1.25-.92a4.82 4.82 0 0 1 1.84-.33c1.02 0 1.83.22 2.42.65.59.44.95 1.03 1.1 1.77Z" fill="#1F1F1F"/><path d="M2.41 94h-1.1l3.2-8.73h1.1L8.8 94H7.7l-2.6-7.35h-.08L2.42 94Zm.41-3.4H7.3v.93H2.82v-.94Zm9.85 6c-.48 0-.9-.07-1.25-.2A2.66 2.66 0 0 1 10 95.28l.8-.56.34.4c.14.16.33.3.57.41.25.12.57.17.96.17.53 0 .97-.12 1.31-.38.34-.25.52-.66.52-1.2v-1.33h-.09c-.07.12-.18.27-.31.44-.14.18-.33.33-.58.47-.25.13-.6.2-1.02.2a2.63 2.63 0 0 1-2.42-1.47 3.82 3.82 0 0 1-.36-1.74 4 4 0 0 1 .36-1.75 2.6 2.6 0 0 1 2.44-1.57c.42 0 .76.07 1.01.21.26.14.45.3.58.48l.32.43h.1v-1.04h.97v6.74c0 .56-.13 1.02-.38 1.37-.25.35-.6.61-1.02.78-.43.17-.9.25-1.43.25Zm-.03-3.6c.4 0 .74-.1 1.02-.28.28-.19.5-.45.64-.8.14-.35.21-.76.21-1.24s-.07-.9-.21-1.25a1.87 1.87 0 0 0-.63-.85 1.7 1.7 0 0 0-1.03-.3 1.71 1.71 0 0 0-1.7 1.19c-.14.36-.21.76-.21 1.2 0 .46.07.86.21 1.21.15.35.36.62.64.82.29.2.64.3 1.06.3Zm7.45 1.14a2.8 2.8 0 0 1-2.68-1.6c-.25-.5-.37-1.1-.37-1.76 0-.67.12-1.26.36-1.77a2.77 2.77 0 0 1 2.58-1.64c.35 0 .68.06 1.01.17a2.5 2.5 0 0 1 1.56 1.56c.17.42.25.93.25 1.54v.43h-5.05v-.87h4.02c0-.37-.07-.7-.22-.99a1.67 1.67 0 0 0-1.57-.94 1.82 1.82 0 0 0-1.7 1.07c-.16.31-.24.65-.24 1.01v.58c0 .5.09.92.26 1.26.17.34.41.6.72.78.3.17.66.26 1.07.26.26 0 .5-.03.71-.1.22-.08.4-.2.56-.35.16-.15.28-.34.36-.57l.97.27c-.1.33-.27.62-.51.87s-.54.44-.9.58c-.35.14-.75.2-1.2.2Zm8.87-5.22-.9.26c-.06-.15-.14-.3-.25-.44a1.2 1.2 0 0 0-.44-.36 1.6 1.6 0 0 0-.73-.14c-.4 0-.73.1-1 .28-.26.18-.4.4-.4.69 0 .25.1.45.28.6.18.14.47.26.85.35l.97.24c.59.15 1.03.36 1.31.66.29.29.43.66.43 1.12 0 .37-.1.7-.32 1-.21.3-.51.53-.9.7-.38.17-.83.26-1.33.26-.67 0-1.22-.15-1.66-.44a1.93 1.93 0 0 1-.83-1.27l.95-.24c.1.36.26.62.52.8.25.17.59.26 1 .26.47 0 .84-.1 1.11-.3.28-.2.42-.44.42-.72a.76.76 0 0 0-.24-.57c-.16-.16-.4-.28-.73-.35l-1.09-.26a2.6 2.6 0 0 1-1.32-.66 1.6 1.6 0 0 1-.42-1.13c0-.37.1-.7.31-.98s.5-.5.86-.67a3 3 0 0 1 1.23-.24c.65 0 1.16.14 1.53.43.37.28.64.65.8 1.12ZM34.23 94l3.9-7.72v-.07h-4.5v-.94h5.6v1L35.32 94h-1.1Zm10.35-4.83v.94h-3.82v-.94h3.82Zm4.82-3.9V94h-1.06v-7.62h-.05l-2.13 1.42v-1.08l2.18-1.45h1.06Zm2.3 6.94v-.87l3.84-6.07h.63v1.35h-.43l-2.9 4.58v.07h5.17v.94h-6.3ZM55.81 94v-8.73h1V94h-1Z" fill="#545454"/><g opacity=".3"><mask id="a" fill="#fff"><path d="M1.25 36a4 4 0 0 1 4-4h36v40h-36a4 4 0 0 1-4-4V36Z"/></mask><path d="M1.25 36a4 4 0 0 1 4-4h36v40h-36a4 4 0 0 1-4-4V36Z" fill="#fff"/><path d="M29.25 52.38h-16a.38.38 0 0 1-.38-.38c0-.21.17-.38.38-.38h16c.2 0 .38.17.38.38s-.17.38-.38.38Z" fill="#0F67F5" stroke="#757575"/><path d="M.25 36a5 5 0 0 1 5-5h36v2h-36a3 3 0 0 0-3 3h-2Zm41 37h-36a5 5 0 0 1-5-5h2a3 3 0 0 0 3 3h36v2Zm-36 0a5 5 0 0 1-5-5V36a5 5 0 0 1 5-5v2a3 3 0 0 0-3 3v32a3 3 0 0 0 3 3v2Zm36-41v40-40Z" fill="#545454" mask="url(#a)"/></g><mask id="b" fill="#fff"><path d="M105.25 32h36a4 4 0 0 1 4 4v32a4 4 0 0 1-4 4h-36V32Z"/></mask><path d="M105.25 32h36a4 4 0 0 1 4 4v32a4 4 0 0 1-4 4h-36V32Z" fill="#fff"/><path d="M124.87 52.88v-.5h-7.62a.38.38 0 0 1-.38-.38c0-.21.17-.38.38-.38h7.62V44c0-.2.17-.38.38-.38s.38.17.38.38v7.62h7.62c.2 0 .38.17.38.38s-.17.38-.38.38h-7.62V60c0 .2-.17.38-.38.38a.38.38 0 0 1-.38-.38v-7.12Z" fill="#0F67F5" stroke="#757575"/><path d="M105.25 31h36a5 5 0 0 1 5 5h-2a3 3 0 0 0-3-3h-36v-2Zm41 37a5 5 0 0 1-5 5h-36v-2h36a3 3 0 0 0 3-3h2Zm-41 4V32v40Zm36-41a5 5 0 0 1 5 5v32a5 5 0 0 1-5 5v-2a3 3 0 0 0 3-3V36a3 3 0 0 0-3-3v-2Z" fill="#545454" mask="url(#b)"/></svg>