<svg width="188" height="96" fill="none" xmlns="http://www.w3.org/2000/svg"><path d="M41 32.5h63v39H41v-39Z" fill="#fff"/><path d="M59.07 52.75V58h-1.34V46.36h1.34v4.28h.11c.2-.45.51-.81.92-1.08.42-.27.96-.4 1.65-.4.6 0 1.12.12 1.56.36.45.23.8.6 1.04 1.08.25.49.38 1.1.38 1.85V58h-1.34v-5.45c0-.7-.18-1.23-.54-1.61a1.93 1.93 0 0 0-1.49-.58c-.44 0-.83.1-1.18.28-.34.19-.62.46-.82.81-.2.36-.3.8-.3 1.3Z" fill="#333"/><path d="M41 32.5h63v39H41v-39Z" stroke="#EE0505"/><path d="M1.65 18V6.36h7.57v1.77H3.76v3.16h5.06v1.77H3.76v3.17h5.5V18H1.65Zm9.63 0V9.27h1.99v1.46h.1a2.18 2.18 0 0 1 2.14-1.58 4.75 4.75 0 0 1 .74.05v1.9a3.82 3.82 0 0 0-.95-.12c-.38 0-.71.08-1.01.24a1.79 1.79 0 0 0-.96 1.65V18h-2.05Zm6.34 0V9.27h2v1.46h.08a2.18 2.18 0 0 1 2.16-1.58 4.75 4.75 0 0 1 .74.05v1.9a3.82 3.82 0 0 0-.95-.12c-.38 0-.72.08-1.02.24a1.79 1.79 0 0 0-.95 1.65V18h-2.06Zm9.79.17a4.3 4.3 0 0 1-2.22-.56 3.82 3.82 0 0 1-1.45-1.58 5.17 5.17 0 0 1-.51-2.36c0-.9.17-1.7.51-2.37.34-.68.83-1.2 1.45-1.58a4.23 4.23 0 0 1 2.22-.56c.85 0 1.6.19 2.22.56.62.38 1.1.9 1.45 1.58.34.68.51 1.47.51 2.37 0 .9-.17 1.69-.51 2.36-.35.68-.83 1.2-1.45 1.58a4.3 4.3 0 0 1-2.22.56Zm.01-1.65c.46 0 .85-.12 1.16-.38.31-.26.54-.6.7-1.03a4.37 4.37 0 0 0-.01-2.89 2.3 2.3 0 0 0-.69-1.04c-.31-.26-.7-.39-1.16-.39-.47 0-.87.13-1.18.39-.31.25-.54.6-.7 1.04-.15.43-.23.91-.23 1.44 0 .54.08 1.02.23 1.45.16.43.39.77.7 1.03.31.26.7.38 1.18.38ZM33.34 18V9.27h2v1.46h.08a2.18 2.18 0 0 1 2.16-1.58 4.75 4.75 0 0 1 .74.05v1.9a3.82 3.82 0 0 0-.95-.12c-.38 0-.72.08-1.02.24a1.79 1.79 0 0 0-.96 1.65V18h-2.05Zm15.6-6.66v1.69H43.7v-1.7h5.24ZM55.16 18V6.36h2.11v9.87h5.13V18h-7.24Zm11.49.18c-.56 0-1.05-.1-1.5-.3-.44-.2-.79-.5-1.04-.89a2.6 2.6 0 0 1-.38-1.44 2.11 2.11 0 0 1 1.02-2c.3-.19.66-.33 1.06-.43.4-.1.8-.18 1.23-.22l1.24-.14c.32-.05.55-.12.7-.2.14-.1.22-.25.22-.45v-.03c0-.43-.13-.76-.38-1a1.6 1.6 0 0 0-1.1-.35c-.5 0-.9.11-1.2.33-.29.22-.49.48-.59.78l-1.92-.27a3.07 3.07 0 0 1 2.03-2.14 5.44 5.44 0 0 1 2.93-.13c.41.1.8.27 1.14.5.34.22.62.52.83.91.2.39.31.87.31 1.45V18h-1.97v-1.2h-.07a2.51 2.51 0 0 1-1.38 1.2c-.33.12-.73.19-1.18.19Zm.53-1.52c.41 0 .77-.08 1.07-.24.3-.17.54-.39.7-.66.17-.27.25-.57.25-.9v-1.02a.97.97 0 0 1-.33.15l-.5.12a16.16 16.16 0 0 1-1.05.16c-.31.04-.58.1-.83.2-.24.1-.43.23-.57.4a.97.97 0 0 0-.21.65 1 1 0 0 0 .41.86c.28.19.63.28 1.06.28ZM73.41 18V6.36h2.06v4.36h.09c.1-.22.25-.44.44-.68a2.5 2.5 0 0 1 2.05-.88 3.33 3.33 0 0 1 3.12 2.03c.32.67.48 1.49.48 2.46 0 .96-.16 1.77-.47 2.44a3.3 3.3 0 0 1-3.13 2.06 2.53 2.53 0 0 1-2.04-.85 3.9 3.9 0 0 1-.45-.67h-.12V18H73.4Zm2.02-4.36c0 .56.08 1.06.24 1.48.16.42.4.76.7 1 .3.23.68.35 1.11.35.46 0 .84-.13 1.14-.37.31-.24.54-.58.7-1 .16-.43.24-.92.24-1.46 0-.55-.08-1.03-.24-1.45a2.17 2.17 0 0 0-.7-.99c-.3-.23-.68-.35-1.14-.35-.44 0-.81.11-1.12.34-.3.23-.54.56-.7.97-.15.42-.23.91-.23 1.48Zm11.83 4.53a4.5 4.5 0 0 1-2.26-.55 3.7 3.7 0 0 1-1.46-1.55 5.21 5.21 0 0 1-.51-2.38c0-.9.17-1.69.5-2.37a3.87 3.87 0 0 1 3.63-2.16c.53 0 1.04.09 1.52.26s.9.44 1.27.8c.37.36.66.81.88 1.37.2.55.31 1.21.31 1.98v.63H84v-1.4h5.18a1.96 1.96 0 0 0-.95-1.78c-.3-.18-.64-.27-1.04-.27a2 2 0 0 0-1.1.3 2.13 2.13 0 0 0-1.01 1.88v1.2c0 .52.09.95.27 1.31.19.36.45.64.78.83.34.2.73.29 1.17.29.3 0 .57-.04.82-.13.24-.08.45-.21.63-.38.17-.16.3-.37.4-.62l1.92.22a3 3 0 0 1-.7 1.33c-.33.37-.76.67-1.29.87-.53.2-1.13.31-1.8.31Zm7.68-11.8V18h-2.06V6.36h2.06Z" fill="#1F1F1F"/><path d="m103.62 12.9.13-2.3-1.93 1.28-.7-1.21 2.07-1.03-2.06-1.04.7-1.2 1.92 1.26-.13-2.3H105l-.12 2.3 1.93-1.26.7 1.2-2.08 1.04 2.07 1.03-.69 1.2-1.93-1.26.12 2.3h-1.38Z" fill="#F74E4E"/><g clip-path="url(#a)"><path d="M8.5 85.33v3.34m0 6a6.67 6.67 0 1 0 0-13.34 6.67 6.67 0 0 0 0 13.34Z" stroke="#EE0505" stroke-width="1.7" stroke-linecap="round"/><circle cx="8.5" cy="91" r="1" transform="rotate(180 8.5 91)" fill="#EE0505"/></g><path d="M25.56 94v-8.73h2.95c.68 0 1.24.13 1.67.37.44.25.77.58.98 1 .2.41.31.88.31 1.4 0 .5-.1.98-.31 1.4-.21.42-.53.75-.97 1a3.3 3.3 0 0 1-1.67.37h-2.11v-.94h2.08c.47 0 .84-.08 1.13-.24.28-.16.49-.38.62-.65.13-.28.2-.6.2-.95s-.07-.66-.2-.93a1.4 1.4 0 0 0-.63-.65 2.35 2.35 0 0 0-1.14-.24h-1.86V94h-1.05Zm8.48-8.73V94h-1v-8.73h1Zm4.59 8.87a2.8 2.8 0 0 1-2.68-1.6c-.25-.5-.37-1.1-.37-1.76 0-.67.12-1.26.37-1.77a2.77 2.77 0 0 1 2.58-1.64c.34 0 .67.06 1 .17a2.5 2.5 0 0 1 1.57 1.56c.16.42.24.93.24 1.54v.43h-5.05v-.87h4.03c0-.37-.08-.7-.22-.99a1.67 1.67 0 0 0-1.57-.94 1.85 1.85 0 0 0-1.71 1.07c-.16.31-.24.65-.24 1.01v.58c0 .5.09.92.26 1.26.17.34.41.6.72.78.3.17.66.26 1.07.26.26 0 .5-.03.72-.1a1.55 1.55 0 0 0 .92-.91l.97.26c-.1.33-.28.62-.52.87s-.54.44-.9.58c-.35.14-.75.2-1.19.2Zm6.17.01c-.42 0-.8-.07-1.13-.23a1.86 1.86 0 0 1-1.1-1.78c0-.37.07-.68.21-.91.15-.24.35-.42.6-.55.24-.14.52-.24.81-.3a14.76 14.76 0 0 1 1.88-.28c.25-.03.43-.07.55-.14.11-.07.17-.18.17-.34v-.03c0-.43-.11-.75-.34-.98-.23-.24-.58-.35-1.04-.35-.48 0-.86.1-1.13.31-.27.21-.46.44-.58.67l-.95-.34a2.3 2.3 0 0 1 1.62-1.4 3.9 3.9 0 0 1 1.73-.05c.28.04.54.15.8.3s.47.38.64.7c.17.3.26.72.26 1.24V94h-1.01v-.89h-.05a1.91 1.91 0 0 1-.98.87 2.3 2.3 0 0 1-.96.17Zm.15-.9a2 2 0 0 0 1-.23 1.6 1.6 0 0 0 .84-1.39v-.92c-.04.05-.14.1-.28.14a4.78 4.78 0 0 1-1.04.18l-.42.06c-.26.03-.5.08-.73.16-.23.08-.4.19-.55.34a.86.86 0 0 0-.2.6c0 .35.13.62.39.8.26.17.59.26.99.26Zm9.32-4.33-.9.26c-.06-.15-.15-.3-.26-.44-.1-.15-.25-.27-.44-.36a1.6 1.6 0 0 0-.72-.14c-.4 0-.73.1-1 .28-.27.18-.4.4-.4.69 0 .25.1.45.27.6.19.14.47.26.86.35l.97.24c.58.15 1.02.36 1.3.66.3.29.44.66.44 1.12 0 .37-.11.7-.33 1-.21.3-.5.53-.9.7-.38.17-.82.26-1.33.26-.67 0-1.22-.15-1.66-.44a1.93 1.93 0 0 1-.83-1.27l.96-.24c.09.36.26.62.51.8.26.17.6.26 1 .26.47 0 .84-.1 1.12-.3.28-.2.42-.44.42-.72a.76.76 0 0 0-.24-.57c-.16-.16-.4-.28-.73-.35l-1.1-.26a2.6 2.6 0 0 1-1.32-.66 1.6 1.6 0 0 1-.41-1.13c0-.37.1-.7.3-.98.22-.28.5-.5.86-.67a3 3 0 0 1 1.24-.24c.65 0 1.16.14 1.53.43.37.28.63.65.79 1.12Zm4.38 5.22a2.8 2.8 0 0 1-2.68-1.6c-.25-.5-.38-1.1-.38-1.76 0-.67.13-1.26.37-1.77a2.77 2.77 0 0 1 2.58-1.64c.34 0 .68.06 1.01.17a2.5 2.5 0 0 1 1.56 1.56c.16.42.25.93.25 1.54v.43H56.3v-.87h4.02c0-.37-.07-.7-.22-.99a1.67 1.67 0 0 0-1.57-.94c-.4 0-.74.1-1.04.3a2 2 0 0 0-.67.77 2.3 2.3 0 0 0-.23 1.01v.58c0 .5.09.92.26 1.26.17.34.4.6.72.78.3.17.66.26 1.07.26.26 0 .5-.03.71-.1.22-.08.4-.2.56-.35.16-.15.28-.34.36-.57l.97.27c-.1.33-.27.62-.51.87s-.54.44-.9.58c-.35.14-.75.2-1.2.2Zm10.35 0a2.8 2.8 0 0 1-2.68-1.6c-.24-.5-.37-1.1-.37-1.76 0-.67.13-1.26.37-1.77a2.77 2.77 0 0 1 2.58-1.64c.34 0 .68.06 1.01.17a2.5 2.5 0 0 1 1.56 1.56c.16.42.24.93.24 1.54v.43h-5.04v-.87h4.02c0-.37-.07-.7-.22-.99a1.67 1.67 0 0 0-1.57-.94c-.4 0-.74.1-1.04.3a2 2 0 0 0-.67.77 2.3 2.3 0 0 0-.23 1.01v.58c0 .5.08.92.25 1.26.18.34.42.6.73.78.3.17.66.26 1.06.26.27 0 .5-.03.72-.1.22-.08.4-.2.56-.35.16-.15.28-.34.36-.57l.97.27c-.1.33-.27.62-.51.87s-.54.44-.9.58c-.35.14-.75.2-1.2.2Zm5.25-4.08V94h-1v-6.55h.97v1.03h.08c.15-.34.39-.6.7-.8.31-.2.72-.31 1.21-.31.44 0 .83.09 1.16.27.34.18.6.45.78.82.18.36.28.82.28 1.38V94h-1v-4.1c0-.5-.14-.9-.41-1.2a1.42 1.42 0 0 0-1.1-.43c-.32 0-.6.07-.86.21a1.5 1.5 0 0 0-.6.61c-.14.27-.21.6-.21.97Zm8.86-2.6v.85h-3.4v-.86h3.4Zm-2.4-1.57h1v6.23c0 .29.04.5.13.64.08.14.19.24.32.29a1.78 1.78 0 0 0 .7.05l.17-.04.2.9a2.05 2.05 0 0 1-.75.13c-.28 0-.56-.07-.84-.19-.27-.12-.49-.3-.67-.56a1.6 1.6 0 0 1-.26-.94v-6.51Zm6.59 8.25a2.8 2.8 0 0 1-2.68-1.6c-.25-.5-.37-1.1-.37-1.76 0-.67.12-1.26.36-1.77a2.77 2.77 0 0 1 2.58-1.64c.35 0 .68.06 1.02.17a2.5 2.5 0 0 1 1.55 1.56c.17.42.25.93.25 1.54v.43h-5.05v-.87H89c0-.37-.08-.7-.23-.99a1.67 1.67 0 0 0-1.56-.94 1.85 1.85 0 0 0-1.71 1.07c-.16.31-.24.65-.24 1.01v.58c0 .5.09.92.26 1.26.17.34.41.6.72.78.3.17.66.26 1.07.26.26 0 .5-.03.71-.1a1.55 1.55 0 0 0 .92-.91l.98.26c-.1.33-.28.62-.52.87s-.54.44-.9.58c-.35.14-.75.2-1.2.2Zm4.24-.14v-6.55h.97v1h.07c.12-.33.33-.6.65-.8.3-.2.66-.3 1.05-.3a11.3 11.3 0 0 1 .53.02v1.02a2.98 2.98 0 0 0-.61-.07c-.32 0-.6.07-.86.2a1.47 1.47 0 0 0-.8 1.33V94h-1Zm9.76.15c-.41 0-.79-.07-1.13-.23-.33-.16-.6-.39-.8-.69-.2-.3-.3-.66-.3-1.09 0-.37.07-.68.22-.91.15-.24.35-.42.6-.55.24-.14.51-.24.81-.3a14.76 14.76 0 0 1 1.88-.28c.25-.03.43-.07.54-.14.12-.07.18-.18.18-.34v-.03c0-.43-.12-.75-.35-.98-.23-.24-.57-.35-1.03-.35-.48 0-.86.1-1.13.31-.28.21-.47.44-.58.67l-.95-.34a2.3 2.3 0 0 1 1.62-1.4 3.9 3.9 0 0 1 1.73-.05c.27.04.54.15.8.3.25.15.47.38.64.7.17.3.25.72.25 1.24V94h-1v-.89h-.05a1.87 1.87 0 0 1-.98.87c-.26.12-.59.17-.97.17Zm.16-.9a2 2 0 0 0 1-.23 1.6 1.6 0 0 0 .84-1.39v-.92a.65.65 0 0 1-.28.14 4.76 4.76 0 0 1-1.04.18l-.42.06c-.26.03-.5.08-.73.16-.23.08-.41.19-.55.34a.86.86 0 0 0-.2.6c0 .35.13.62.38.8.27.17.6.26 1 .26Zm9.06-3.19V94h-1v-6.55h.97v1.03h.08c.15-.34.39-.6.7-.8.31-.2.72-.31 1.21-.31.44 0 .83.09 1.16.27.34.18.6.45.78.82.18.36.28.82.28 1.38V94h-1.01v-4.1c0-.5-.13-.9-.4-1.2a1.42 1.42 0 0 0-1.1-.43c-.32 0-.6.07-.86.21a1.5 1.5 0 0 0-.6.61c-.14.27-.21.6-.21.97Zm10.14 1.26v-3.87h1V94h-1v-1.1h-.07a2.07 2.07 0 0 1-1.94 1.2c-.41-.01-.78-.1-1.1-.28a1.88 1.88 0 0 1-.74-.82 3.12 3.12 0 0 1-.28-1.39v-4.16h1v4.1c0 .47.14.85.41 1.14.27.28.61.42 1.03.42a1.71 1.71 0 0 0 1.69-1.79ZM123.5 94v-6.55h.97v1.03h.08c.14-.35.36-.62.66-.82.3-.2.67-.3 1.1-.3.43 0 .79.1 1.08.3.29.2.51.47.67.82h.07c.17-.34.42-.6.76-.8.33-.21.73-.31 1.2-.31.59 0 1.07.18 1.44.55.37.36.56.93.56 1.7V94h-1v-4.38c0-.48-.14-.83-.4-1.04-.27-.2-.58-.3-.94-.3-.46 0-.81.13-1.07.41a1.5 1.5 0 0 0-.38 1.05V94h-1.02v-4.48c0-.38-.12-.67-.36-.9a1.3 1.3 0 0 0-.94-.35c-.26 0-.5.07-.73.21-.22.14-.4.33-.54.58-.14.25-.2.53-.2.85V94h-1.01Zm13.17.14a2.8 2.8 0 0 1-2.68-1.6 4 4 0 0 1-.37-1.76c0-.67.12-1.26.37-1.77a2.77 2.77 0 0 1 2.58-1.64c.34 0 .68.06 1 .17a2.5 2.5 0 0 1 1.57 1.56c.16.42.24.93.24 1.54v.43h-5.04v-.87h4.02c0-.37-.08-.7-.22-.99a1.67 1.67 0 0 0-1.57-.94c-.4 0-.75.1-1.04.3a2.18 2.18 0 0 0-.91 1.78v.58c0 .5.09.92.26 1.26.17.34.41.6.72.78.3.17.66.26 1.07.26.26 0 .5-.03.72-.1.21-.08.4-.2.56-.35.15-.15.27-.34.36-.57l.97.27c-.1.33-.28.62-.52.87s-.54.44-.9.58c-.35.14-.75.2-1.19.2Zm4.24-.14v-6.55h.97v1h.07c.12-.33.33-.6.65-.8.31-.2.66-.3 1.05-.3a11.31 11.31 0 0 1 .53.02v1.02a2.97 2.97 0 0 0-.61-.07c-.32 0-.6.07-.85.2s-.45.32-.6.55c-.13.23-.2.5-.2.79V94h-1.01Zm4.47 0v-6.55h1V94h-1Zm.5-7.64a.71.71 0 0 1-.5-.2.64.64 0 0 1-.2-.48c0-.19.06-.35.2-.48s.31-.2.5-.2c.2 0 .37.07.51.2s.21.3.21.48c0 .19-.07.35-.21.48a.7.7 0 0 1-.5.2Zm5 7.78c-.61 0-1.14-.15-1.58-.44a2.84 2.84 0 0 1-1.03-1.2 4.05 4.05 0 0 1-.35-1.74 4 4 0 0 1 .36-1.76c.25-.51.6-.9 1.03-1.2.45-.29.96-.43 1.56-.43.46 0 .87.08 1.24.25a2.38 2.38 0 0 1 1.35 1.79h-1.01a1.53 1.53 0 0 0-1.57-1.14c-.39 0-.73.1-1.03.3-.3.21-.52.5-.69.87-.16.36-.24.8-.24 1.29 0 .5.08.94.24 1.32.16.37.39.66.68.87.3.2.64.31 1.04.31.26 0 .5-.04.71-.13a1.47 1.47 0 0 0 .86-1h1a2.34 2.34 0 0 1-1.3 1.77 2.8 2.8 0 0 1-1.27.27Zm12.77-6.69L161.24 94h-1.02l-2.42-6.55h1.1l1.8 5.22h.07l1.8-5.22h1.1Zm3.06 6.7c-.42 0-.8-.07-1.13-.23-.34-.16-.6-.39-.8-.69-.2-.3-.3-.66-.3-1.09 0-.37.07-.68.22-.91.14-.24.34-.42.59-.55.25-.14.52-.24.82-.3a14.76 14.76 0 0 1 1.87-.28c.25-.03.43-.07.55-.14.11-.07.17-.18.17-.34v-.03c0-.43-.11-.75-.34-.98-.23-.24-.58-.35-1.04-.35-.48 0-.86.1-1.13.31-.27.21-.46.44-.57.67l-.96-.34a2.3 2.3 0 0 1 1.62-1.4 3.89 3.89 0 0 1 1.73-.05c.28.04.54.15.8.3s.47.38.64.7c.17.3.26.72.26 1.24V94h-1v-.89h-.06c-.07.15-.18.3-.34.46-.16.16-.37.3-.63.41-.27.12-.6.17-.97.17Zm.15-.9a2 2 0 0 0 1-.23 1.6 1.6 0 0 0 .84-1.39v-.92c-.04.05-.13.1-.28.14a4.76 4.76 0 0 1-1.03.18l-.43.06c-.26.03-.5.08-.73.16-.22.08-.4.19-.55.34a.86.86 0 0 0-.2.6c0 .35.13.62.39.8.26.17.6.26 1 .26Zm5.69-7.98V94h-1v-8.73h1Zm5.97 6.05v-3.87h1V94h-1v-1.1h-.07a2.06 2.06 0 0 1-1.95 1.19c-.4 0-.77-.1-1.09-.27a1.87 1.87 0 0 1-.75-.82 3.1 3.1 0 0 1-.27-1.39v-4.16h1v4.1c0 .47.14.85.4 1.14.28.28.62.42 1.04.42a1.71 1.71 0 0 0 1.69-1.79Zm5.59 2.82a2.8 2.8 0 0 1-2.69-1.6c-.24-.5-.36-1.1-.36-1.76 0-.67.12-1.26.36-1.77a2.77 2.77 0 0 1 2.58-1.64c.35 0 .68.06 1.02.17a2.5 2.5 0 0 1 1.56 1.56c.16.42.24.93.24 1.54v.43h-5.05v-.87h4.03c0-.37-.08-.7-.23-.99a1.67 1.67 0 0 0-1.56-.94 1.85 1.85 0 0 0-1.71 1.07c-.16.31-.24.65-.24 1.01v.58c0 .5.09.92.26 1.26.17.34.41.6.72.78.3.17.66.26 1.07.26.26 0 .5-.03.71-.1.22-.08.4-.2.56-.35.16-.15.28-.34.36-.57l.98.27c-.1.33-.28.62-.52.87s-.54.44-.9.58c-.35.14-.75.2-1.2.2Z" fill="#EE0505"/><mask id="b" fill="#fff"><path d="M.5 36a4 4 0 0 1 4-4h36v40h-36a4 4 0 0 1-4-4V36Z"/></mask><path d="M.5 36a4 4 0 0 1 4-4h36v40h-36a4 4 0 0 1-4-4V36Z" fill="#fff"/><path d="M28.5 52.38h-16a.38.38 0 0 1-.38-.38c0-.21.17-.38.38-.38h16c.2 0 .38.17.38.38s-.17.38-.38.38Z" fill="#0F67F5" stroke="#757575"/><path d="M-.5 36a5 5 0 0 1 5-5h36v2h-36a3 3 0 0 0-3 3h-2Zm41 37h-36a5 5 0 0 1-5-5h2a3 3 0 0 0 3 3h36v2Zm-36 0a5 5 0 0 1-5-5V36a5 5 0 0 1 5-5v2a3 3 0 0 0-3 3v32a3 3 0 0 0 3 3v2Zm36-41v40-40Z" fill="#545454" mask="url(#b)"/><mask id="c" fill="#fff"><path d="M104.5 32h36a4 4 0 0 1 4 4v32a4 4 0 0 1-4 4h-36V32Z"/></mask><path d="M104.5 32h36a4 4 0 0 1 4 4v32a4 4 0 0 1-4 4h-36V32Z" fill="#fff"/><path d="M124.12 52.88v-.5h-7.62a.38.38 0 0 1-.38-.38c0-.21.17-.38.38-.38h7.62V44c0-.2.17-.38.38-.38s.38.17.38.38v7.62h7.62c.2 0 .38.17.38.38s-.17.38-.38.38h-7.62V60c0 .2-.17.38-.38.38a.38.38 0 0 1-.38-.38v-7.12Z" fill="#0F67F5" stroke="#757575"/><path d="M104.5 31h36a5 5 0 0 1 5 5h-2a3 3 0 0 0-3-3h-36v-2Zm41 37a5 5 0 0 1-5 5h-36v-2h36a3 3 0 0 0 3-3h2Zm-41 4V32v40Zm36-41a5 5 0 0 1 5 5v32a5 5 0 0 1-5 5v-2a3 3 0 0 0 3-3V36a3 3 0 0 0-3-3v-2Z" fill="#545454" mask="url(#c)"/><defs><clipPath id="a"><path fill="#fff" transform="translate(.5 80)" d="M0 0h16v16H0z"/></clipPath></defs></svg>