<svg width="270" height="95" viewBox="0 0 270 95" fill="none" xmlns="http://www.w3.org/2000/svg">
<path d="M155.5 1H218.5V40H155.5V1Z" fill="white"/>
<path d="M176 26.6591C175.144 26.6591 174.415 26.4261 173.812 25.9602C173.21 25.4905 172.75 24.8106 172.432 23.9205C172.114 23.0265 171.955 21.947 171.955 20.6818C171.955 19.4242 172.114 18.3504 172.432 17.4602C172.754 16.5663 173.216 15.8845 173.818 15.4148C174.424 14.9413 175.152 14.7045 176 14.7045C176.848 14.7045 177.574 14.9413 178.176 15.4148C178.782 15.8845 179.244 16.5663 179.562 17.4602C179.884 18.3504 180.045 19.4242 180.045 20.6818C180.045 21.947 179.886 23.0265 179.568 23.9205C179.25 24.8106 178.79 25.4905 178.188 25.9602C177.585 26.4261 176.856 26.6591 176 26.6591ZM176 25.4091C176.848 25.4091 177.508 25 177.977 24.1818C178.447 23.3636 178.682 22.197 178.682 20.6818C178.682 19.6742 178.574 18.8163 178.358 18.108C178.146 17.3996 177.839 16.8598 177.438 16.4886C177.04 16.1174 176.561 15.9318 176 15.9318C175.159 15.9318 174.502 16.3466 174.028 17.1761C173.555 18.0019 173.318 19.1705 173.318 20.6818C173.318 21.6894 173.424 22.5455 173.636 23.25C173.848 23.9545 174.153 24.4905 174.551 24.858C174.953 25.2254 175.436 25.4091 176 25.4091Z" fill="#757575"/>
<path d="M155.5 1H218.5V40H155.5V1Z" stroke="#545454"/>
<g opacity="0.3">
<mask id="path-3-inside-1_11653_104311" fill="white">
<path d="M115 4.5C115 2.29086 116.791 0.5 119 0.5H155V40.5H119C116.791 40.5 115 38.7091 115 36.5V4.5Z"/>
</mask>
<path d="M115 4.5C115 2.29086 116.791 0.5 119 0.5H155V40.5H119C116.791 40.5 115 38.7091 115 36.5V4.5Z" fill="white"/>
<path d="M143 20.88H127C126.793 20.88 126.62 20.7102 126.62 20.5C126.62 20.2861 126.786 20.12 127 20.12H143C143.208 20.12 143.38 20.2898 143.38 20.5C143.38 20.7139 143.214 20.88 143 20.88Z" fill="#0F67F5" stroke="#757575"/>
<path d="M114 4.5C114 1.73858 116.239 -0.5 119 -0.5H155V1.5H119C117.343 1.5 116 2.84315 116 4.5H114ZM155 41.5H119C116.239 41.5 114 39.2614 114 36.5H116C116 38.1569 117.343 39.5 119 39.5H155V41.5ZM119 41.5C116.239 41.5 114 39.2614 114 36.5V4.5C114 1.73858 116.239 -0.5 119 -0.5V1.5C117.343 1.5 116 2.84315 116 4.5V36.5C116 38.1569 117.343 39.5 119 39.5V41.5ZM155 0.5V40.5V0.5Z" fill="#545454" mask="url(#path-3-inside-1_11653_104311)"/>
</g>
<mask id="path-6-inside-2_11653_104311" fill="white">
<path d="M219 0.5H255C257.209 0.5 259 2.29086 259 4.5V36.5C259 38.7091 257.209 40.5 255 40.5H219V0.5Z"/>
</mask>
<path d="M219 0.5H255C257.209 0.5 259 2.29086 259 4.5V36.5C259 38.7091 257.209 40.5 255 40.5H219V0.5Z" fill="white"/>
<path d="M238.62 21.38V20.88H238.12H231C230.793 20.88 230.62 20.7102 230.62 20.5C230.62 20.2861 230.786 20.12 231 20.12H238.12H238.62V19.62V12.5C238.62 12.2924 238.79 12.12 239 12.12C239.214 12.12 239.38 12.2861 239.38 12.5V19.62V20.12H239.88H247C247.208 20.12 247.38 20.2898 247.38 20.5C247.38 20.7139 247.214 20.88 247 20.88H239.88H239.38V21.38V28.5C239.38 28.7076 239.21 28.88 239 28.88C238.793 28.88 238.62 28.7102 238.62 28.5V21.38Z" fill="#0F67F5" stroke="#757575"/>
<path d="M219 -0.5H255C257.761 -0.5 260 1.73858 260 4.5H258C258 2.84315 256.657 1.5 255 1.5H219V-0.5ZM260 36.5C260 39.2614 257.761 41.5 255 41.5H219V39.5H255C256.657 39.5 258 38.1569 258 36.5H260ZM219 40.5V0.5V40.5ZM255 -0.5C257.761 -0.5 260 1.73858 260 4.5V36.5C260 39.2614 257.761 41.5 255 41.5V39.5C256.657 39.5 258 38.1569 258 36.5V4.5C258 2.84315 256.657 1.5 255 1.5V-0.5Z" fill="#545454" mask="url(#path-6-inside-2_11653_104311)"/>
<g filter="url(#filter0_dd_11653_104311)">
<path d="M135.091 44.5L140 49.5H130L135.091 44.5Z" fill="#333333"/>
<rect x="3" y="49.5" width="264" height="40" rx="4" fill="#333333"/>
<path d="M29.7727 67.5H28.3636C28.2803 67.0947 28.1345 66.7386 27.9261 66.4318C27.7216 66.125 27.4716 65.8674 27.1761 65.6591C26.8845 65.447 26.5606 65.2879 26.2045 65.1818C25.8485 65.0758 25.4773 65.0227 25.0909 65.0227C24.3864 65.0227 23.7481 65.2008 23.1761 65.5568C22.608 65.9129 22.1553 66.4375 21.8182 67.1307C21.4848 67.8239 21.3182 68.6742 21.3182 69.6818C21.3182 70.6894 21.4848 71.5398 21.8182 72.233C22.1553 72.9261 22.608 73.4508 23.1761 73.8068C23.7481 74.1629 24.3864 74.3409 25.0909 74.3409C25.4773 74.3409 25.8485 74.2879 26.2045 74.1818C26.5606 74.0758 26.8845 73.9186 27.1761 73.7102C27.4716 73.4981 27.7216 73.2386 27.9261 72.9318C28.1345 72.6212 28.2803 72.2652 28.3636 71.8636H29.7727C29.6667 72.4583 29.4735 72.9905 29.1932 73.4602C28.9129 73.9299 28.5644 74.3295 28.1477 74.6591C27.7311 74.9848 27.2633 75.233 26.7443 75.4034C26.2292 75.5739 25.678 75.6591 25.0909 75.6591C24.0985 75.6591 23.2159 75.4167 22.4432 74.9318C21.6705 74.447 21.0625 73.7576 20.6193 72.8636C20.1761 71.9697 19.9545 70.9091 19.9545 69.6818C19.9545 68.4545 20.1761 67.3939 20.6193 66.5C21.0625 65.6061 21.6705 64.9167 22.4432 64.4318C23.2159 63.947 24.0985 63.7045 25.0909 63.7045C25.678 63.7045 26.2292 63.7898 26.7443 63.9602C27.2633 64.1307 27.7311 64.3807 28.1477 64.7102C28.5644 65.036 28.9129 65.4337 29.1932 65.9034C29.4735 66.3693 29.6667 66.9015 29.7727 67.5ZM34.4361 75.7045C33.883 75.7045 33.3812 75.6004 32.9304 75.392C32.4796 75.1799 32.1217 74.875 31.8565 74.4773C31.5914 74.0758 31.4588 73.5909 31.4588 73.0227C31.4588 72.5227 31.5573 72.1174 31.7543 71.8068C31.9512 71.4924 32.2145 71.2462 32.544 71.0682C32.8736 70.8902 33.2372 70.7576 33.6349 70.6705C34.0365 70.5795 34.4399 70.5076 34.8452 70.4545C35.3755 70.3864 35.8054 70.3352 36.1349 70.3011C36.4683 70.2633 36.7107 70.2008 36.8622 70.1136C37.0175 70.0265 37.0952 69.875 37.0952 69.6591V69.6136C37.0952 69.053 36.9418 68.6174 36.6349 68.3068C36.3319 67.9962 35.8717 67.8409 35.2543 67.8409C34.6141 67.8409 34.1122 67.9811 33.7486 68.2614C33.3849 68.5417 33.1293 68.8409 32.9815 69.1591L31.7088 68.7045C31.9361 68.1742 32.2391 67.7614 32.6179 67.4659C33.0005 67.1667 33.4171 66.9583 33.8679 66.8409C34.3224 66.7197 34.7694 66.6591 35.2088 66.6591C35.4891 66.6591 35.8111 66.6932 36.1747 66.7614C36.5421 66.8258 36.8963 66.9602 37.2372 67.1648C37.5819 67.3693 37.8679 67.678 38.0952 68.0909C38.3224 68.5038 38.4361 69.0568 38.4361 69.75V75.5H37.0952V74.3182H37.027C36.9361 74.5076 36.7846 74.7102 36.5724 74.9261C36.3603 75.142 36.0781 75.3258 35.7259 75.4773C35.3736 75.6288 34.9437 75.7045 34.4361 75.7045ZM34.6406 74.5C35.1709 74.5 35.6179 74.3958 35.9815 74.1875C36.349 73.9792 36.6255 73.7102 36.8111 73.3807C37.0005 73.0511 37.0952 72.7045 37.0952 72.3409V71.1136C37.0384 71.1818 36.9134 71.2443 36.7202 71.3011C36.5308 71.3542 36.3111 71.4015 36.0611 71.4432C35.8149 71.4811 35.5743 71.5152 35.3395 71.5455C35.1084 71.572 34.9209 71.5947 34.777 71.6136C34.4285 71.6591 34.1027 71.733 33.7997 71.8352C33.5005 71.9337 33.258 72.0833 33.0724 72.2841C32.8906 72.4811 32.7997 72.75 32.7997 73.0909C32.7997 73.5568 32.9721 73.9091 33.3168 74.1477C33.6652 74.3826 34.1065 74.5 34.6406 74.5ZM42.2244 70.25V75.5H40.8835V66.7727H42.179V68.1364H42.2926C42.4972 67.6932 42.8078 67.3371 43.2244 67.0682C43.6411 66.7955 44.179 66.6591 44.8381 66.6591C45.429 66.6591 45.946 66.7803 46.3892 67.0227C46.8324 67.2614 47.1771 67.625 47.4233 68.1136C47.6695 68.5985 47.7926 69.2121 47.7926 69.9545V75.5H46.4517V70.0455C46.4517 69.3598 46.2737 68.8258 45.9176 68.4432C45.5616 68.0568 45.0729 67.8636 44.4517 67.8636C44.0237 67.8636 43.6411 67.9564 43.304 68.142C42.9706 68.3277 42.7074 68.5985 42.5142 68.9545C42.321 69.3106 42.2244 69.7424 42.2244 70.25ZM51.4247 63.8636V64.8864C51.4247 65.197 51.3679 65.5284 51.2543 65.8807C51.1444 66.2292 50.9815 66.5682 50.7656 66.8977C50.5535 67.2235 50.2959 67.5076 49.9929 67.75L49.2656 67.1591C49.5043 66.8182 49.7107 66.464 49.8849 66.0966C50.063 65.7254 50.152 65.3295 50.152 64.9091V63.8636H51.4247ZM57.2259 66.7727V67.9091H52.7031V66.7727H57.2259ZM54.0213 64.6818H55.3622V73C55.3622 73.3788 55.4171 73.6629 55.527 73.8523C55.6406 74.0379 55.7846 74.1629 55.9588 74.2273C56.1368 74.2879 56.3243 74.3182 56.5213 74.3182C56.669 74.3182 56.7902 74.3106 56.8849 74.2955C56.9796 74.2765 57.0554 74.2614 57.1122 74.25L57.3849 75.4545C57.294 75.4886 57.1671 75.5227 57.0043 75.5568C56.8414 75.5947 56.6349 75.6136 56.3849 75.6136C56.0062 75.6136 55.6349 75.5322 55.2713 75.3693C54.9115 75.2064 54.6122 74.9583 54.3736 74.625C54.1387 74.2917 54.0213 73.8712 54.0213 73.3636V64.6818ZM67.402 75.6818C66.5611 75.6818 65.8357 75.4962 65.2259 75.125C64.6198 74.75 64.152 74.2273 63.8224 73.5568C63.4967 72.8826 63.3338 72.0985 63.3338 71.2045C63.3338 70.3106 63.4967 69.5227 63.8224 68.8409C64.152 68.1553 64.6103 67.6212 65.1974 67.2386C65.7884 66.8523 66.4777 66.6591 67.2656 66.6591C67.7202 66.6591 68.169 66.7348 68.6122 66.8864C69.0554 67.0379 69.4588 67.2841 69.8224 67.625C70.1861 67.9621 70.4759 68.4091 70.6918 68.9659C70.9077 69.5227 71.0156 70.2083 71.0156 71.0227V71.5909H64.2884V70.4318H69.652C69.652 69.9394 69.5535 69.5 69.3565 69.1136C69.1634 68.7273 68.8868 68.4223 68.527 68.1989C68.1709 67.9754 67.7505 67.8636 67.2656 67.8636C66.7315 67.8636 66.2694 67.9962 65.8793 68.2614C65.4929 68.5227 65.1955 68.8636 64.9872 69.2841C64.7789 69.7045 64.6747 70.1553 64.6747 70.6364V71.4091C64.6747 72.0682 64.7884 72.6269 65.0156 73.0852C65.2467 73.5398 65.5668 73.8864 65.9759 74.125C66.3849 74.3598 66.8603 74.4773 67.402 74.4773C67.7543 74.4773 68.0724 74.428 68.3565 74.3295C68.6444 74.2273 68.8925 74.0758 69.1009 73.875C69.3092 73.6705 69.4702 73.4167 69.5838 73.1136L70.8793 73.4773C70.7429 73.9167 70.5137 74.303 70.1918 74.6364C69.8698 74.9659 69.4721 75.2235 68.9986 75.4091C68.5251 75.5909 67.9929 75.6818 67.402 75.6818ZM74.3963 70.25V75.5H73.0554V66.7727H74.3509V68.1364H74.4645C74.669 67.6932 74.9796 67.3371 75.3963 67.0682C75.813 66.7955 76.3509 66.6591 77.0099 66.6591C77.6009 66.6591 78.1179 66.7803 78.5611 67.0227C79.0043 67.2614 79.349 67.625 79.5952 68.1136C79.8414 68.5985 79.9645 69.2121 79.9645 69.9545V75.5H78.6236V70.0455C78.6236 69.3598 78.4455 68.8258 78.0895 68.4432C77.7334 68.0568 77.2448 67.8636 76.6236 67.8636C76.1955 67.8636 75.813 67.9564 75.4759 68.142C75.1425 68.3277 74.8793 68.5985 74.6861 68.9545C74.4929 69.3106 74.3963 69.7424 74.3963 70.25ZM86.2102 66.7727V67.9091H81.6875V66.7727H86.2102ZM83.0057 64.6818H84.3466V73C84.3466 73.3788 84.4015 73.6629 84.5114 73.8523C84.625 74.0379 84.7689 74.1629 84.9432 74.2273C85.1212 74.2879 85.3087 74.3182 85.5057 74.3182C85.6534 74.3182 85.7746 74.3106 85.8693 74.2955C85.964 74.2765 86.0398 74.2614 86.0966 74.25L86.3693 75.4545C86.2784 75.4886 86.1515 75.5227 85.9886 75.5568C85.8258 75.5947 85.6193 75.6136 85.3693 75.6136C84.9905 75.6136 84.6193 75.5322 84.2557 75.3693C83.8958 75.2064 83.5966 74.9583 83.358 74.625C83.1231 74.2917 83.0057 73.8712 83.0057 73.3636V64.6818ZM91.7926 75.6818C90.9517 75.6818 90.2263 75.4962 89.6165 75.125C89.0104 74.75 88.5426 74.2273 88.2131 73.5568C87.8873 72.8826 87.7244 72.0985 87.7244 71.2045C87.7244 70.3106 87.8873 69.5227 88.2131 68.8409C88.5426 68.1553 89.0009 67.6212 89.5881 67.2386C90.179 66.8523 90.8684 66.6591 91.6562 66.6591C92.1108 66.6591 92.5597 66.7348 93.0028 66.8864C93.446 67.0379 93.8494 67.2841 94.2131 67.625C94.5767 67.9621 94.8665 68.4091 95.0824 68.9659C95.2983 69.5227 95.4062 70.2083 95.4062 71.0227V71.5909H88.679V70.4318H94.0426C94.0426 69.9394 93.9441 69.5 93.7472 69.1136C93.554 68.7273 93.2775 68.4223 92.9176 68.1989C92.5616 67.9754 92.1411 67.8636 91.6562 67.8636C91.1222 67.8636 90.66 67.9962 90.2699 68.2614C89.8835 68.5227 89.5862 68.8636 89.3778 69.2841C89.1695 69.7045 89.0653 70.1553 89.0653 70.6364V71.4091C89.0653 72.0682 89.179 72.6269 89.4062 73.0852C89.6373 73.5398 89.9574 73.8864 90.3665 74.125C90.7756 74.3598 91.2509 74.4773 91.7926 74.4773C92.1449 74.4773 92.4631 74.428 92.7472 74.3295C93.035 74.2273 93.2831 74.0758 93.4915 73.875C93.6998 73.6705 93.8608 73.4167 93.9744 73.1136L95.2699 73.4773C95.1335 73.9167 94.9044 74.303 94.5824 74.6364C94.2604 74.9659 93.8627 75.2235 93.3892 75.4091C92.9157 75.5909 92.3835 75.6818 91.7926 75.6818ZM97.446 75.5V66.7727H98.7415V68.0909H98.8324C98.9915 67.6591 99.2794 67.3087 99.696 67.0398C100.113 66.7708 100.582 66.6364 101.105 66.6364C101.204 66.6364 101.327 66.6383 101.474 66.642C101.622 66.6458 101.734 66.6515 101.81 66.6591V68.0227C101.764 68.0114 101.66 67.9943 101.497 67.9716C101.338 67.9451 101.17 67.9318 100.991 67.9318C100.567 67.9318 100.188 68.0208 99.8551 68.1989C99.5256 68.3731 99.2642 68.6155 99.071 68.9261C98.8816 69.233 98.7869 69.5833 98.7869 69.9773V75.5H97.446ZM109.24 70.25V75.5H107.899V66.7727H109.195V68.1364H109.308C109.513 67.6932 109.823 67.3371 110.24 67.0682C110.657 66.7955 111.195 66.6591 111.854 66.6591C112.445 66.6591 112.962 66.7803 113.405 67.0227C113.848 67.2614 114.193 67.625 114.439 68.1136C114.685 68.5985 114.808 69.2121 114.808 69.9545V75.5H113.467V70.0455C113.467 69.3598 113.289 68.8258 112.933 68.4432C112.577 68.0568 112.089 67.8636 111.467 67.8636C111.039 67.8636 110.657 67.9564 110.32 68.142C109.986 68.3277 109.723 68.5985 109.53 68.9545C109.337 69.3106 109.24 69.7424 109.24 70.25ZM120.918 75.6818C120.077 75.6818 119.351 75.4962 118.741 75.125C118.135 74.75 117.668 74.2273 117.338 73.5568C117.012 72.8826 116.849 72.0985 116.849 71.2045C116.849 70.3106 117.012 69.5227 117.338 68.8409C117.668 68.1553 118.126 67.6212 118.713 67.2386C119.304 66.8523 119.993 66.6591 120.781 66.6591C121.236 66.6591 121.685 66.7348 122.128 66.8864C122.571 67.0379 122.974 67.2841 123.338 67.625C123.702 67.9621 123.991 68.4091 124.207 68.9659C124.423 69.5227 124.531 70.2083 124.531 71.0227V71.5909H117.804V70.4318H123.168C123.168 69.9394 123.069 69.5 122.872 69.1136C122.679 68.7273 122.402 68.4223 122.043 68.1989C121.687 67.9754 121.266 67.8636 120.781 67.8636C120.247 67.8636 119.785 67.9962 119.395 68.2614C119.009 68.5227 118.711 68.8636 118.503 69.2841C118.295 69.7045 118.19 70.1553 118.19 70.6364V71.4091C118.19 72.0682 118.304 72.6269 118.531 73.0852C118.762 73.5398 119.082 73.8864 119.491 74.125C119.901 74.3598 120.376 74.4773 120.918 74.4773C121.27 74.4773 121.588 74.428 121.872 74.3295C122.16 74.2273 122.408 74.0758 122.616 73.875C122.825 73.6705 122.986 73.4167 123.099 73.1136L124.395 73.4773C124.259 73.9167 124.029 74.303 123.707 74.6364C123.385 74.9659 122.988 75.2235 122.514 75.4091C122.041 75.5909 121.509 75.6818 120.918 75.6818ZM130.094 78.9545C129.446 78.9545 128.889 78.8712 128.423 78.7045C127.957 78.5417 127.569 78.3258 127.259 78.0568C126.952 77.7917 126.707 77.5076 126.526 77.2045L127.594 76.4545C127.715 76.6136 127.868 76.7955 128.054 77C128.24 77.2083 128.493 77.3883 128.815 77.5398C129.141 77.6951 129.567 77.7727 130.094 77.7727C130.798 77.7727 131.38 77.6023 131.838 77.2614C132.296 76.9205 132.526 76.3864 132.526 75.6591V73.8864H132.412C132.313 74.0455 132.173 74.2424 131.991 74.4773C131.813 74.7083 131.556 74.9148 131.219 75.0966C130.885 75.2746 130.435 75.3636 129.866 75.3636C129.162 75.3636 128.529 75.197 127.969 74.8636C127.412 74.5303 126.971 74.0455 126.645 73.4091C126.323 72.7727 126.162 72 126.162 71.0909C126.162 70.197 126.319 69.4186 126.634 68.7557C126.948 68.089 127.385 67.5739 127.946 67.2102C128.507 66.8428 129.154 66.6591 129.889 66.6591C130.457 66.6591 130.908 66.7538 131.241 66.9432C131.579 67.1288 131.836 67.3409 132.014 67.5795C132.196 67.8144 132.336 68.0076 132.435 68.1591H132.571V66.7727H133.866V75.75C133.866 76.5 133.696 77.1098 133.355 77.5795C133.018 78.053 132.563 78.3996 131.991 78.6193C131.423 78.8428 130.791 78.9545 130.094 78.9545ZM130.048 74.1591C130.586 74.1591 131.041 74.036 131.412 73.7898C131.783 73.5436 132.065 73.1894 132.259 72.7273C132.452 72.2652 132.548 71.7121 132.548 71.0682C132.548 70.4394 132.454 69.8845 132.264 69.4034C132.075 68.9223 131.795 68.5455 131.423 68.2727C131.052 68 130.594 67.8636 130.048 67.8636C129.48 67.8636 129.007 68.0076 128.628 68.2955C128.253 68.5833 127.971 68.9697 127.781 69.4545C127.596 69.9394 127.503 70.4773 127.503 71.0682C127.503 71.6742 127.598 72.2102 127.787 72.6761C127.98 73.1383 128.264 73.5019 128.639 73.767C129.018 74.0284 129.488 74.1591 130.048 74.1591ZM138.889 75.7045C138.336 75.7045 137.834 75.6004 137.384 75.392C136.933 75.1799 136.575 74.875 136.31 74.4773C136.045 74.0758 135.912 73.5909 135.912 73.0227C135.912 72.5227 136.01 72.1174 136.207 71.8068C136.404 71.4924 136.668 71.2462 136.997 71.0682C137.327 70.8902 137.69 70.7576 138.088 70.6705C138.49 70.5795 138.893 70.5076 139.298 70.4545C139.829 70.3864 140.259 70.3352 140.588 70.3011C140.921 70.2633 141.164 70.2008 141.315 70.1136C141.471 70.0265 141.548 69.875 141.548 69.6591V69.6136C141.548 69.053 141.395 68.6174 141.088 68.3068C140.785 67.9962 140.325 67.8409 139.707 67.8409C139.067 67.8409 138.565 67.9811 138.202 68.2614C137.838 68.5417 137.582 68.8409 137.435 69.1591L136.162 68.7045C136.389 68.1742 136.692 67.7614 137.071 67.4659C137.454 67.1667 137.87 66.9583 138.321 66.8409C138.776 66.7197 139.223 66.6591 139.662 66.6591C139.942 66.6591 140.264 66.6932 140.628 66.7614C140.995 66.8258 141.349 66.9602 141.69 67.1648C142.035 67.3693 142.321 67.678 142.548 68.0909C142.776 68.5038 142.889 69.0568 142.889 69.75V75.5H141.548V74.3182H141.48C141.389 74.5076 141.238 74.7102 141.026 74.9261C140.813 75.142 140.531 75.3258 140.179 75.4773C139.827 75.6288 139.397 75.7045 138.889 75.7045ZM139.094 74.5C139.624 74.5 140.071 74.3958 140.435 74.1875C140.802 73.9792 141.079 73.7102 141.264 73.3807C141.454 73.0511 141.548 72.7045 141.548 72.3409V71.1136C141.491 71.1818 141.366 71.2443 141.173 71.3011C140.984 71.3542 140.764 71.4015 140.514 71.4432C140.268 71.4811 140.027 71.5152 139.793 71.5455C139.562 71.572 139.374 71.5947 139.23 71.6136C138.882 71.6591 138.556 71.733 138.253 71.8352C137.954 71.9337 137.711 72.0833 137.526 72.2841C137.344 72.4811 137.253 72.75 137.253 73.0909C137.253 73.5568 137.425 73.9091 137.77 74.1477C138.118 74.3826 138.56 74.5 139.094 74.5ZM149.132 66.7727V67.9091H144.609V66.7727H149.132ZM145.928 64.6818H147.268V73C147.268 73.3788 147.323 73.6629 147.433 73.8523C147.547 74.0379 147.691 74.1629 147.865 74.2273C148.043 74.2879 148.231 74.3182 148.428 74.3182C148.575 74.3182 148.696 74.3106 148.791 74.2955C148.886 74.2765 148.962 74.2614 149.018 74.25L149.291 75.4545C149.2 75.4886 149.073 75.5227 148.911 75.5568C148.748 75.5947 148.541 75.6136 148.291 75.6136C147.912 75.6136 147.541 75.5322 147.178 75.3693C146.818 75.2064 146.518 74.9583 146.28 74.625C146.045 74.2917 145.928 73.8712 145.928 73.3636V64.6818ZM151.149 75.5V66.7727H152.49V75.5H151.149ZM151.831 65.3182C151.57 65.3182 151.344 65.2292 151.155 65.0511C150.969 64.8731 150.876 64.6591 150.876 64.4091C150.876 64.1591 150.969 63.9451 151.155 63.767C151.344 63.589 151.57 63.5 151.831 63.5C152.092 63.5 152.316 63.589 152.501 63.767C152.691 63.9451 152.786 64.1591 152.786 64.4091C152.786 64.6591 152.691 64.8731 152.501 65.0511C152.316 65.2292 152.092 65.3182 151.831 65.3182ZM162.082 66.7727L158.855 75.5H157.491L154.264 66.7727H155.719L158.128 73.7273H158.219L160.628 66.7727H162.082ZM167.199 75.6818C166.358 75.6818 165.633 75.4962 165.023 75.125C164.417 74.75 163.949 74.2273 163.619 73.5568C163.294 72.8826 163.131 72.0985 163.131 71.2045C163.131 70.3106 163.294 69.5227 163.619 68.8409C163.949 68.1553 164.407 67.6212 164.994 67.2386C165.585 66.8523 166.275 66.6591 167.062 66.6591C167.517 66.6591 167.966 66.7348 168.409 66.8864C168.852 67.0379 169.256 67.2841 169.619 67.625C169.983 67.9621 170.273 68.4091 170.489 68.9659C170.705 69.5227 170.812 70.2083 170.812 71.0227V71.5909H164.085V70.4318H169.449C169.449 69.9394 169.35 69.5 169.153 69.1136C168.96 68.7273 168.684 68.4223 168.324 68.1989C167.968 67.9754 167.547 67.8636 167.062 67.8636C166.528 67.8636 166.066 67.9962 165.676 68.2614C165.29 68.5227 164.992 68.8636 164.784 69.2841C164.576 69.7045 164.472 70.1553 164.472 70.6364V71.4091C164.472 72.0682 164.585 72.6269 164.812 73.0852C165.044 73.5398 165.364 73.8864 165.773 74.125C166.182 74.3598 166.657 74.4773 167.199 74.4773C167.551 74.4773 167.869 74.428 168.153 74.3295C168.441 74.2273 168.689 74.0758 168.898 73.875C169.106 73.6705 169.267 73.4167 169.381 73.1136L170.676 73.4773C170.54 73.9167 170.311 74.303 169.989 74.6364C169.667 74.9659 169.269 75.2235 168.795 75.4091C168.322 75.5909 167.79 75.6818 167.199 75.6818ZM183.307 78.7727V74.1591H183.193C183.095 74.3182 182.955 74.5189 182.773 74.7614C182.591 75 182.331 75.214 181.994 75.4034C181.657 75.589 181.208 75.6818 180.648 75.6818C179.92 75.6818 179.278 75.4981 178.722 75.1307C178.165 74.7595 177.729 74.2367 177.415 73.5625C177.1 72.8845 176.943 72.0833 176.943 71.1591C176.943 70.2424 177.1 69.447 177.415 68.7727C177.729 68.0985 178.167 67.5777 178.727 67.2102C179.288 66.8428 179.936 66.6591 180.67 66.6591C181.239 66.6591 181.688 66.7538 182.017 66.9432C182.35 67.1288 182.604 67.3409 182.778 67.5795C182.956 67.8144 183.095 68.0076 183.193 68.1591H183.352V66.7727H184.648V78.7727H183.307ZM180.83 74.4773C181.367 74.4773 181.822 74.3371 182.193 74.0568C182.564 73.7727 182.847 73.3807 183.04 72.8807C183.233 72.3769 183.33 71.7955 183.33 71.1364C183.33 70.4848 183.235 69.9148 183.045 69.4261C182.856 68.9337 182.576 68.5511 182.205 68.2784C181.833 68.0019 181.375 67.8636 180.83 67.8636C180.261 67.8636 179.788 68.0095 179.409 68.3011C179.034 68.589 178.752 68.9811 178.562 69.4773C178.377 69.9697 178.284 70.5227 178.284 71.1364C178.284 71.7576 178.379 72.322 178.568 72.8295C178.761 73.3333 179.045 73.7348 179.42 74.0341C179.799 74.3295 180.269 74.4773 180.83 74.4773ZM192.602 71.9318V66.7727H193.943V75.5H192.602V74.0227H192.511C192.307 74.4659 191.989 74.8428 191.557 75.1534C191.125 75.4602 190.58 75.6136 189.92 75.6136C189.375 75.6136 188.89 75.4943 188.466 75.2557C188.042 75.0133 187.708 74.6496 187.466 74.1648C187.223 73.6761 187.102 73.0606 187.102 72.3182V66.7727H188.443V72.2273C188.443 72.8636 188.621 73.3712 188.977 73.75C189.337 74.1288 189.795 74.3182 190.352 74.3182C190.686 74.3182 191.025 74.233 191.369 74.0625C191.718 73.892 192.009 73.6307 192.244 73.2784C192.483 72.9261 192.602 72.4773 192.602 71.9318ZM198.967 75.7045C198.414 75.7045 197.912 75.6004 197.462 75.392C197.011 75.1799 196.653 74.875 196.388 74.4773C196.123 74.0758 195.99 73.5909 195.99 73.0227C195.99 72.5227 196.089 72.1174 196.286 71.8068C196.482 71.4924 196.746 71.2462 197.075 71.0682C197.405 70.8902 197.768 70.7576 198.166 70.6705C198.568 70.5795 198.971 70.5076 199.376 70.4545C199.907 70.3864 200.337 70.3352 200.666 70.3011C201 70.2633 201.242 70.2008 201.393 70.1136C201.549 70.0265 201.626 69.875 201.626 69.6591V69.6136C201.626 69.053 201.473 68.6174 201.166 68.3068C200.863 67.9962 200.403 67.8409 199.786 67.8409C199.145 67.8409 198.643 67.9811 198.28 68.2614C197.916 68.5417 197.661 68.8409 197.513 69.1591L196.24 68.7045C196.467 68.1742 196.77 67.7614 197.149 67.4659C197.532 67.1667 197.948 66.9583 198.399 66.8409C198.854 66.7197 199.301 66.6591 199.74 66.6591C200.02 66.6591 200.342 66.6932 200.706 66.7614C201.073 66.8258 201.428 66.9602 201.768 67.1648C202.113 67.3693 202.399 67.678 202.626 68.0909C202.854 68.5038 202.967 69.0568 202.967 69.75V75.5H201.626V74.3182H201.558C201.467 74.5076 201.316 74.7102 201.104 74.9261C200.892 75.142 200.609 75.3258 200.257 75.4773C199.905 75.6288 199.475 75.7045 198.967 75.7045ZM199.172 74.5C199.702 74.5 200.149 74.3958 200.513 74.1875C200.88 73.9792 201.157 73.7102 201.342 73.3807C201.532 73.0511 201.626 72.7045 201.626 72.3409V71.1136C201.57 71.1818 201.445 71.2443 201.251 71.3011C201.062 71.3542 200.842 71.4015 200.592 71.4432C200.346 71.4811 200.106 71.5152 199.871 71.5455C199.64 71.572 199.452 71.5947 199.308 71.6136C198.96 71.6591 198.634 71.733 198.331 71.8352C198.032 71.9337 197.789 72.0833 197.604 72.2841C197.422 72.4811 197.331 72.75 197.331 73.0909C197.331 73.5568 197.503 73.9091 197.848 74.1477C198.196 74.3826 198.638 74.5 199.172 74.5ZM206.756 70.25V75.5H205.415V66.7727H206.71V68.1364H206.824C207.028 67.6932 207.339 67.3371 207.756 67.0682C208.172 66.7955 208.71 66.6591 209.369 66.6591C209.96 66.6591 210.477 66.7803 210.92 67.0227C211.364 67.2614 211.708 67.625 211.955 68.1136C212.201 68.5985 212.324 69.2121 212.324 69.9545V75.5H210.983V70.0455C210.983 69.3598 210.805 68.8258 210.449 68.4432C210.093 68.0568 209.604 67.8636 208.983 67.8636C208.555 67.8636 208.172 67.9564 207.835 68.142C207.502 68.3277 207.239 68.5985 207.045 68.9545C206.852 69.3106 206.756 69.7424 206.756 70.25ZM218.57 66.7727V67.9091H214.047V66.7727H218.57ZM215.365 64.6818H216.706V73C216.706 73.3788 216.761 73.6629 216.871 73.8523C216.984 74.0379 217.128 74.1629 217.303 74.2273C217.481 74.2879 217.668 74.3182 217.865 74.3182C218.013 74.3182 218.134 74.3106 218.229 74.2955C218.323 74.2765 218.399 74.2614 218.456 74.25L218.729 75.4545C218.638 75.4886 218.511 75.5227 218.348 75.5568C218.185 75.5947 217.979 75.6136 217.729 75.6136C217.35 75.6136 216.979 75.5322 216.615 75.3693C216.255 75.2064 215.956 74.9583 215.717 74.625C215.482 74.2917 215.365 73.8712 215.365 73.3636V64.6818ZM220.587 75.5V66.7727H221.928V75.5H220.587ZM221.268 65.3182C221.007 65.3182 220.782 65.2292 220.592 65.0511C220.407 64.8731 220.314 64.6591 220.314 64.4091C220.314 64.1591 220.407 63.9451 220.592 63.767C220.782 63.589 221.007 63.5 221.268 63.5C221.53 63.5 221.753 63.589 221.939 63.767C222.128 63.9451 222.223 64.1591 222.223 64.4091C222.223 64.6591 222.128 64.8731 221.939 65.0511C221.753 65.2292 221.53 65.3182 221.268 65.3182ZM228.179 66.7727V67.9091H223.656V66.7727H228.179ZM224.974 64.6818H226.315V73C226.315 73.3788 226.37 73.6629 226.48 73.8523C226.594 74.0379 226.738 74.1629 226.912 74.2273C227.09 74.2879 227.277 74.3182 227.474 74.3182C227.622 74.3182 227.743 74.3106 227.838 74.2955C227.933 74.2765 228.009 74.2614 228.065 74.25L228.338 75.4545C228.247 75.4886 228.12 75.5227 227.957 75.5568C227.795 75.5947 227.588 75.6136 227.338 75.6136C226.959 75.6136 226.588 75.5322 226.224 75.3693C225.865 75.2064 225.565 74.9583 225.327 74.625C225.092 74.2917 224.974 73.8712 224.974 73.3636V64.6818ZM230.196 75.5V66.7727H231.537V75.5H230.196ZM230.878 65.3182C230.616 65.3182 230.391 65.2292 230.202 65.0511C230.016 64.8731 229.923 64.6591 229.923 64.4091C229.923 64.1591 230.016 63.9451 230.202 63.767C230.391 63.589 230.616 63.5 230.878 63.5C231.139 63.5 231.363 63.589 231.548 63.767C231.738 63.9451 231.832 64.1591 231.832 64.4091C231.832 64.6591 231.738 64.8731 231.548 65.0511C231.363 65.2292 231.139 65.3182 230.878 65.3182ZM237.652 75.6818C236.811 75.6818 236.086 75.4962 235.476 75.125C234.87 74.75 234.402 74.2273 234.072 73.5568C233.747 72.8826 233.584 72.0985 233.584 71.2045C233.584 70.3106 233.747 69.5227 234.072 68.8409C234.402 68.1553 234.86 67.6212 235.447 67.2386C236.038 66.8523 236.728 66.6591 237.516 66.6591C237.97 66.6591 238.419 66.7348 238.862 66.8864C239.305 67.0379 239.709 67.2841 240.072 67.625C240.436 67.9621 240.726 68.4091 240.942 68.9659C241.158 69.5227 241.266 70.2083 241.266 71.0227V71.5909H234.538V70.4318H239.902C239.902 69.9394 239.804 69.5 239.607 69.1136C239.413 68.7273 239.137 68.4223 238.777 68.1989C238.421 67.9754 238 67.8636 237.516 67.8636C236.982 67.8636 236.519 67.9962 236.129 68.2614C235.743 68.5227 235.446 68.8636 235.237 69.2841C235.029 69.7045 234.925 70.1553 234.925 70.6364V71.4091C234.925 72.0682 235.038 72.6269 235.266 73.0852C235.497 73.5398 235.817 73.8864 236.226 74.125C236.635 74.3598 237.11 74.4773 237.652 74.4773C238.004 74.4773 238.322 74.428 238.607 74.3295C238.894 74.2273 239.143 74.0758 239.351 73.875C239.559 73.6705 239.72 73.4167 239.834 73.1136L241.129 73.4773C240.993 73.9167 240.764 74.303 240.442 74.6364C240.12 74.9659 239.722 75.2235 239.249 75.4091C238.775 75.5909 238.243 75.6818 237.652 75.6818ZM249.487 68.7273L248.283 69.0682C248.207 68.8674 248.095 68.6723 247.947 68.483C247.804 68.2898 247.607 68.1307 247.357 68.0057C247.107 67.8807 246.786 67.8182 246.396 67.8182C245.862 67.8182 245.417 67.9413 245.061 68.1875C244.709 68.4299 244.533 68.7386 244.533 69.1136C244.533 69.447 244.654 69.7102 244.896 69.9034C245.139 70.0966 245.518 70.2576 246.033 70.3864L247.328 70.7045C248.108 70.8939 248.69 71.1837 249.072 71.5739C249.455 71.9602 249.646 72.4583 249.646 73.0682C249.646 73.5682 249.502 74.0152 249.214 74.4091C248.93 74.803 248.533 75.1136 248.021 75.3409C247.51 75.5682 246.915 75.6818 246.237 75.6818C245.347 75.6818 244.61 75.4886 244.027 75.1023C243.444 74.7159 243.074 74.1515 242.919 73.4091L244.192 73.0909C244.313 73.5606 244.542 73.9129 244.879 74.1477C245.22 74.3826 245.665 74.5 246.214 74.5C246.839 74.5 247.336 74.3674 247.703 74.1023C248.074 73.8333 248.26 73.5114 248.26 73.1364C248.26 72.8333 248.154 72.5795 247.942 72.375C247.73 72.1667 247.404 72.0114 246.964 71.9091L245.51 71.5682C244.711 71.3788 244.124 71.0852 243.749 70.6875C243.377 70.286 243.192 69.7841 243.192 69.1818C243.192 68.6894 243.33 68.2538 243.607 67.875C243.887 67.4962 244.268 67.1989 244.749 66.983C245.233 66.767 245.783 66.6591 246.396 66.6591C247.26 66.6591 247.938 66.8485 248.43 67.2273C248.927 67.6061 249.279 68.1061 249.487 68.7273Z" fill="white"/>
</g>
<defs>
<filter id="filter0_dd_11653_104311" x="0" y="42.5" width="270" height="52" filterUnits="userSpaceOnUse" color-interpolation-filters="sRGB">
<feFlood flood-opacity="0" result="BackgroundImageFix"/>
<feColorMatrix in="SourceAlpha" type="matrix" values="0 0 0 0 0 0 0 0 0 0 0 0 0 0 0 0 0 0 127 0" result="hardAlpha"/>
<feOffset dy="2"/>
<feGaussianBlur stdDeviation="1.5"/>
<feColorMatrix type="matrix" values="0 0 0 0 0.2 0 0 0 0 0.2 0 0 0 0 0.2 0 0 0 0.15 0"/>
<feBlend mode="normal" in2="BackgroundImageFix" result="effect1_dropShadow_11653_104311"/>
<feColorMatrix in="SourceAlpha" type="matrix" values="0 0 0 0 0 0 0 0 0 0 0 0 0 0 0 0 0 0 127 0" result="hardAlpha"/>
<feOffset dy="1"/>
<feGaussianBlur stdDeviation="1.5"/>
<feColorMatrix type="matrix" values="0 0 0 0 0.2 0 0 0 0 0.2 0 0 0 0 0.2 0 0 0 0.1 0"/>
<feBlend mode="normal" in2="effect1_dropShadow_11653_104311" result="effect2_dropShadow_11653_104311"/>
<feBlend mode="normal" in="SourceGraphic" in2="effect2_dropShadow_11653_104311" result="shape"/>
</filter>
</defs>
</svg>
