<svg width="144" height="72" fill="none" xmlns="http://www.w3.org/2000/svg"><path d="M.35 6.36h2.38l2.85 5.15h.11l2.85-5.15h2.38l-4.23 7.3V18h-2.1v-4.34L.35 6.36Zm14.21 11.81a4.5 4.5 0 0 1-2.27-.55 3.7 3.7 0 0 1-1.46-1.55 5.21 5.21 0 0 1-.5-2.38c0-.9.16-1.69.5-2.37a3.87 3.87 0 0 1 3.62-2.16c.54 0 1.05.09 1.53.26s.9.44 1.27.8c.37.36.66.81.87 1.37.22.55.32 1.21.32 1.98v.63H11.3v-1.4h5.18c0-.4-.09-.74-.26-1.05a1.89 1.89 0 0 0-1.73-1 2 2 0 0 0-1.1.3c-.32.2-.57.47-.75.8-.18.33-.26.69-.27 1.08v1.2c0 .52.1.95.28 1.31.19.36.45.64.78.83.33.2.72.29 1.17.29.3 0 .57-.04.81-.13.24-.08.45-.21.63-.38.18-.16.32-.37.4-.62l1.93.22a3 3 0 0 1-.7 1.33c-.33.37-.77.67-1.3.87-.52.2-1.12.31-1.8.31Zm8.13 0c-.55 0-1.05-.1-1.5-.29a2.5 2.5 0 0 1-1.04-.89 2.6 2.6 0 0 1-.38-1.44c0-.5.1-.9.28-1.22.18-.32.43-.58.74-.77.31-.2.67-.34 1.06-.44.4-.1.81-.18 1.24-.22l1.24-.14c.32-.05.55-.12.7-.2.14-.1.21-.25.21-.45v-.03c0-.43-.12-.76-.38-1-.25-.23-.62-.35-1.1-.35-.5 0-.9.11-1.2.33-.28.22-.48.48-.58.78l-1.92-.27a3.07 3.07 0 0 1 2.03-2.14 5.44 5.44 0 0 1 2.93-.13c.4.1.79.27 1.13.5.35.22.62.52.83.91.22.39.32.87.32 1.45V18h-1.98v-1.2h-.06a2.51 2.51 0 0 1-1.38 1.2c-.34.12-.73.19-1.19.19Zm.54-1.5c.41 0 .77-.09 1.07-.25.3-.17.54-.39.7-.66.17-.27.25-.57.25-.9v-1.02a.97.97 0 0 1-.33.15l-.51.12a16.16 16.16 0 0 1-1.05.16c-.3.04-.58.1-.82.2s-.43.23-.57.4a.97.97 0 0 0-.21.65c0 .38.13.66.41.86.28.19.63.28 1.06.28ZM29.37 18V9.27h2v1.46h.08a2.18 2.18 0 0 1 2.16-1.58 4.75 4.75 0 0 1 .74.05v1.9a3.82 3.82 0 0 0-.95-.12c-.38 0-.72.08-1.02.24a1.79 1.79 0 0 0-.95 1.65V18h-2.06Z" fill="#1F1F1F"/><path d="M40.5 32.5h63v39h-63v-39Z" fill="#fff"/><path d="M61.3 46.36V58h-1.41V47.84h-.07l-2.84 1.89V48.3l2.9-1.94h1.42Zm7.05-.16c.47 0 .95.1 1.43.28.48.18.91.47 1.3.88.4.41.72.97.95 1.68a11.62 11.62 0 0 1 .06 5.42c-.19.8-.47 1.47-.83 2.02a3.6 3.6 0 0 1-3.1 1.68c-.65 0-1.23-.13-1.74-.39a3.42 3.42 0 0 1-1.87-2.7h1.39c.12.53.37.97.74 1.32.38.35.87.52 1.48.52.9 0 1.61-.4 2.13-1.18.52-.78.78-1.89.78-3.32h-.09a3.57 3.57 0 0 1-1.72 1.36 3.54 3.54 0 0 1-4.3-1.68 4 4 0 0 1-.5-2c0-.71.16-1.36.48-1.95a3.7 3.7 0 0 1 3.4-1.94Zm0 1.25c-.48 0-.91.12-1.3.36a2.7 2.7 0 0 0-1.23 2.28c0 .49.11.93.32 1.32a2.39 2.39 0 0 0 2.16 1.29 2.42 2.42 0 0 0 1.82-.8c.23-.24.42-.52.55-.84a2.6 2.6 0 0 0-.13-2.27 2.7 2.7 0 0 0-.9-.97 2.32 2.32 0 0 0-1.3-.37Zm9.98-1.25a4 4 0 0 1 1.43.28c.48.18.92.47 1.31.88.4.41.71.97.95 1.68a11.62 11.62 0 0 1 .06 5.42c-.2.8-.47 1.47-.84 2.02a3.6 3.6 0 0 1-3.1 1.68c-.64 0-1.22-.13-1.74-.39a3.42 3.42 0 0 1-1.86-2.7h1.38c.13.53.38.97.75 1.32.37.35.87.52 1.48.52.9 0 1.6-.4 2.12-1.18.53-.78.79-1.89.79-3.32h-.1a3.57 3.57 0 0 1-1.72 1.36 3.54 3.54 0 0 1-4.3-1.68 4 4 0 0 1-.5-2c0-.71.16-1.36.48-1.95a3.7 3.7 0 0 1 3.41-1.94Zm0 1.25c-.48 0-.9.12-1.29.36a2.7 2.7 0 0 0-1.23 2.28c0 .49.1.93.32 1.32a2.39 2.39 0 0 0 2.16 1.29 2.42 2.42 0 0 0 1.81-.8c.24-.24.42-.52.55-.84a2.6 2.6 0 0 0-.13-2.27c-.21-.4-.51-.72-.9-.97a2.32 2.32 0 0 0-1.29-.37Zm9.92 10.7a4 4 0 0 1-1.8-.39 3.35 3.35 0 0 1-1.29-1.09c-.32-.46-.5-.99-.53-1.58H86c.05.53.29.96.71 1.3.43.35.94.52 1.54.52a2.42 2.42 0 0 0 2.15-1.26c.22-.39.32-.84.32-1.33 0-.5-.1-.96-.33-1.36a2.46 2.46 0 0 0-2.23-1.3 3.63 3.63 0 0 0-2.03.59l-1.31-.16.7-5.73h6.05v1.25H86.7l-.4 3.44h.06a3.4 3.4 0 0 1 2.02-.66 3.57 3.57 0 0 1 3.23 1.9c.32.58.48 1.25.48 2s-.17 1.41-.5 2a3.66 3.66 0 0 1-3.34 1.87Z" fill="#333"/><path d="M40.5 32.5h63v39h-63v-39Z" stroke="#545454"/><mask id="a" fill="#fff"><path d="M0 36a4 4 0 0 1 4-4h36v40H4a4 4 0 0 1-4-4V36Z"/></mask><path d="M0 36a4 4 0 0 1 4-4h36v40H4a4 4 0 0 1-4-4V36Z" fill="#fff"/><path d="M28 52.38H12a.38.38 0 0 1-.38-.38c0-.21.17-.38.38-.38h16c.2 0 .38.17.38.38s-.17.38-.38.38Z" fill="#0F67F5" stroke="#757575"/><path d="M-1 36a5 5 0 0 1 5-5h36v2H4a3 3 0 0 0-3 3h-2Zm41 37H4a5 5 0 0 1-5-5h2a3 3 0 0 0 3 3h36v2ZM4 73a5 5 0 0 1-5-5V36a5 5 0 0 1 5-5v2a3 3 0 0 0-3 3v32a3 3 0 0 0 3 3v2Zm36-41v40-40Z" fill="#545454" mask="url(#a)"/><mask id="b" fill="#fff"><path d="M104 32h36a4 4 0 0 1 4 4v32a4 4 0 0 1-4 4h-36V32Z"/></mask><path d="M104 32h36a4 4 0 0 1 4 4v32a4 4 0 0 1-4 4h-36V32Z" fill="#fff"/><path d="M123.62 52.88v-.5H116a.38.38 0 0 1-.38-.38c0-.21.17-.38.38-.38h7.62V44c0-.2.17-.38.38-.38s.38.17.38.38v7.62H132c.2 0 .38.17.38.38s-.17.38-.38.38h-7.62V60c0 .2-.17.38-.38.38a.38.38 0 0 1-.38-.38v-7.12Z" fill="#0F67F5" stroke="#757575"/><path d="M104 31h36a5 5 0 0 1 5 5h-2a3 3 0 0 0-3-3h-36v-2Zm41 37a5 5 0 0 1-5 5h-36v-2h36a3 3 0 0 0 3-3h2Zm-41 4V32v40Zm36-41a5 5 0 0 1 5 5v32a5 5 0 0 1-5 5v-2a3 3 0 0 0 3-3V36a3 3 0 0 0-3-3v-2Z" fill="#545454" mask="url(#b)"/></svg>