<svg width="270" height="95" fill="none" xmlns="http://www.w3.org/2000/svg"><path d="M155.5 1h63v39h-63V1Z" fill="#fff"/><path d="M176 26.66c-.86 0-1.59-.23-2.19-.7a4.37 4.37 0 0 1-1.38-2.04 9.7 9.7 0 0 1-.47-3.24c0-1.26.15-2.33.47-3.22a4.4 4.4 0 0 1 1.39-2.05c.6-.47 1.33-.7 2.18-.7.85 0 1.57.23 2.18.7.6.47 1.06 1.16 1.38 2.05.32.89.48 1.96.48 3.22a9.7 9.7 0 0 1-.47 3.24 4.37 4.37 0 0 1-1.38 2.04c-.6.47-1.33.7-2.19.7Zm0-1.25c.85 0 1.5-.41 1.98-1.23.47-.82.7-1.98.7-3.5 0-1-.1-1.86-.32-2.57a3.53 3.53 0 0 0-.92-1.62c-.4-.37-.88-.56-1.44-.56-.84 0-1.5.42-1.97 1.25-.47.82-.71 2-.71 3.5a9 9 0 0 0 .32 2.57c.2.7.51 1.24.91 1.6.4.38.89.56 1.45.56Z" fill="#757575"/><path d="M155.5 1h63v39h-63V1Z" stroke="#545454"/><g opacity=".3"><mask id="a" fill="#fff"><path d="M115 4.5a4 4 0 0 1 4-4h36v40h-36a4 4 0 0 1-4-4v-32Z"/></mask><path d="M115 4.5a4 4 0 0 1 4-4h36v40h-36a4 4 0 0 1-4-4v-32Z" fill="#fff"/><path d="M143 20.88h-16a.38.38 0 0 1-.38-.38c0-.21.17-.38.38-.38h16c.2 0 .38.17.38.38s-.17.38-.38.38Z" fill="#0F67F5" stroke="#757575"/><path d="M114 4.5a5 5 0 0 1 5-5h36v2h-36a3 3 0 0 0-3 3h-2Zm41 37h-36a5 5 0 0 1-5-5h2a3 3 0 0 0 3 3h36v2Zm-36 0a5 5 0 0 1-5-5v-32a5 5 0 0 1 5-5v2a3 3 0 0 0-3 3v32a3 3 0 0 0 3 3v2Zm36-41v40-40Z" fill="#545454" mask="url(#a)"/></g><mask id="b" fill="#fff"><path d="M219 .5h36a4 4 0 0 1 4 4v32a4 4 0 0 1-4 4h-36V.5Z"/></mask><path d="M219 .5h36a4 4 0 0 1 4 4v32a4 4 0 0 1-4 4h-36V.5Z" fill="#fff"/><path d="M238.62 21.38v-.5H231a.38.38 0 0 1-.38-.38c0-.21.17-.38.38-.38h7.62V12.5c0-.2.17-.38.38-.38s.38.17.38.38v7.62H247c.2 0 .38.17.38.38s-.17.38-.38.38h-7.62v7.62c0 .2-.17.38-.38.38a.38.38 0 0 1-.38-.38v-7.12Z" fill="#0F67F5" stroke="#757575"/><path d="M219-.5h36a5 5 0 0 1 5 5h-2a3 3 0 0 0-3-3h-36v-2Zm41 37a5 5 0 0 1-5 5h-36v-2h36a3 3 0 0 0 3-3h2Zm-41 4V.5v40Zm36-41a5 5 0 0 1 5 5v32a5 5 0 0 1-5 5v-2a3 3 0 0 0 3-3v-32a3 3 0 0 0-3-3v-2Z" fill="#545454" mask="url(#b)"/><g filter="url(#c)"><path d="m135.1 44.5 4.9 5h-10l5.1-5Z" fill="#333"/><rect x="3" y="49.5" width="264" height="40" rx="4" fill="#333"/><path d="M29.77 67.5h-1.4a2.93 2.93 0 0 0-1.2-1.84c-.29-.21-.6-.37-.97-.48a3.88 3.88 0 0 0-3.02.38 3.7 3.7 0 0 0-1.36 1.57c-.34.7-.5 1.54-.5 2.55 0 1 .16 1.86.5 2.55.34.7.79 1.22 1.36 1.58a3.88 3.88 0 0 0 3.03.38c.35-.11.67-.27.97-.48a3 3 0 0 0 1.18-1.85h1.41a4.36 4.36 0 0 1-3.03 3.54 5.23 5.23 0 0 1-4.3-.47 4.99 4.99 0 0 1-1.82-2.07 7.09 7.09 0 0 1-.67-3.18c0-1.23.23-2.29.67-3.18a4.88 4.88 0 0 1 4.47-2.8c.59 0 1.14.09 1.65.26a4.51 4.51 0 0 1 2.45 1.94c.28.47.48 1 .58 1.6Zm4.67 8.2c-.56 0-1.06-.1-1.51-.3-.45-.22-.8-.53-1.07-.92-.27-.4-.4-.89-.4-1.46a2.05 2.05 0 0 1 1.08-1.95c.33-.18.7-.31 1.1-.4.4-.1.8-.16 1.2-.22l1.3-.15c.33-.04.57-.1.72-.19.16-.08.24-.23.24-.45v-.05c0-.56-.16-1-.47-1.3-.3-.31-.76-.47-1.38-.47a2.39 2.39 0 0 0-2.27 1.32l-1.27-.46a3.06 3.06 0 0 1 2.16-1.86 5.19 5.19 0 0 1 2.3-.08c.37.07.73.2 1.07.4.34.2.63.52.86.93.22.41.34.97.34 1.66v5.75H37.1v-1.18h-.07a2.62 2.62 0 0 1-1.3 1.16c-.36.15-.79.22-1.3.22Zm.2-1.2c.53 0 .98-.1 1.34-.31a2.13 2.13 0 0 0 1.12-1.85v-1.23a.99.99 0 0 1-.38.2c-.19.04-.4.1-.66.13a29.88 29.88 0 0 1-1.28.17c-.35.05-.68.12-.98.23-.3.1-.54.24-.73.44-.18.2-.27.47-.27.81 0 .47.17.82.52 1.06.35.23.79.35 1.32.35Zm7.58-4.25v5.25h-1.34v-8.73h1.3v1.37h.11c.2-.45.52-.8.93-1.07.42-.27.96-.41 1.62-.41.59 0 1.1.12 1.55.36.44.24.79.6 1.03 1.1.25.48.37 1.1.37 1.83v5.55h-1.34v-5.45c0-.69-.18-1.22-.53-1.6a1.9 1.9 0 0 0-1.47-.59c-.43 0-.8.1-1.15.28a2 2 0 0 0-.79.81c-.19.36-.29.8-.29 1.3Zm9.2-6.39v1.03A4.1 4.1 0 0 1 50 67.75l-.72-.6c.23-.33.44-.69.61-1.05.18-.37.27-.77.27-1.2v-1.04h1.27Zm5.8 2.91v1.14H52.7v-1.14h4.53Zm-3.2-2.09h1.34V73c0 .38.06.66.17.85.11.19.25.31.43.38.18.06.36.09.56.09.15 0 .27 0 .36-.02l.23-.05.27 1.2a2.73 2.73 0 0 1-1 .16 2.7 2.7 0 0 1-1.1-.24 2.21 2.21 0 0 1-.9-.75 2.14 2.14 0 0 1-.36-1.26v-8.68Zm13.38 11a3.74 3.74 0 0 1-3.58-2.13 5.35 5.35 0 0 1-.49-2.35c0-.89.17-1.68.5-2.36a3.7 3.7 0 0 1 3.44-2.18c.45 0 .9.07 1.34.23a3.34 3.34 0 0 1 2.08 2.08c.22.55.33 1.24.33 2.05v.57h-6.73v-1.16h5.36c0-.5-.1-.93-.3-1.32a2.23 2.23 0 0 0-2.08-1.25c-.54 0-1 .14-1.4.4-.38.26-.67.6-.88 1.02a3 3 0 0 0-.32 1.36v.77c0 .66.12 1.22.35 1.68.23.45.55.8.96 1.03.4.24.88.36 1.42.36.35 0 .67-.05.96-.15.28-.1.53-.25.74-.45.2-.2.37-.46.48-.77l1.3.37a2.99 2.99 0 0 1-1.89 1.93c-.46.18-1 .27-1.59.27Zm7-5.43v5.25h-1.34v-8.73h1.3v1.37h.1c.2-.45.52-.8.94-1.07.41-.27.95-.41 1.61-.41.6 0 1.1.12 1.55.36.44.24.79.6 1.04 1.1.24.48.36 1.1.36 1.83v5.55h-1.34v-5.45c0-.69-.17-1.22-.53-1.6a1.9 1.9 0 0 0-1.47-.59c-.42 0-.8.1-1.14.28a2 2 0 0 0-.8.81c-.19.36-.28.8-.28 1.3Zm11.81-3.48v1.14h-4.52v-1.14h4.52Zm-3.2-2.09h1.34V73c0 .38.05.66.16.85.11.19.26.31.43.38.18.06.37.09.57.09.14 0 .26 0 .36-.02l.23-.05.27 1.2a2.73 2.73 0 0 1-1 .16 2.7 2.7 0 0 1-1.11-.24 2.21 2.21 0 0 1-.9-.75 2.14 2.14 0 0 1-.35-1.26v-8.68Zm8.78 11a3.74 3.74 0 0 1-3.58-2.13 5.35 5.35 0 0 1-.49-2.35c0-.89.17-1.68.5-2.36a3.7 3.7 0 0 1 3.44-2.18c.45 0 .9.07 1.34.23a3.34 3.34 0 0 1 2.08 2.08c.22.55.33 1.24.33 2.05v.57h-6.73v-1.16h5.36c0-.5-.1-.93-.3-1.32a2.23 2.23 0 0 0-2.08-1.25c-.54 0-1 .14-1.39.4-.39.26-.68.6-.9 1.02a3 3 0 0 0-.3 1.36v.77c0 .66.1 1.22.34 1.68.23.45.55.8.96 1.03.4.24.88.36 1.42.36.35 0 .67-.05.96-.15a1.94 1.94 0 0 0 1.22-1.22l1.3.37a2.99 2.99 0 0 1-1.89 1.93c-.46.18-1 .27-1.59.27Zm5.66-.18v-8.73h1.3v1.32h.08c.16-.43.45-.78.87-1.05.41-.27.88-.4 1.4-.4a15.13 15.13 0 0 1 .71.02v1.36a4.07 4.07 0 0 0-.82-.09c-.42 0-.8.1-1.13.27a1.96 1.96 0 0 0-1.07 1.78v5.52h-1.34Zm11.79-5.25v5.25h-1.34v-8.73h1.3v1.37h.1c.21-.45.52-.8.94-1.07.42-.27.95-.41 1.61-.41.6 0 1.11.12 1.56.36.44.24.78.6 1.03 1.1.25.48.37 1.1.37 1.83v5.55h-1.34v-5.45c0-.69-.18-1.22-.54-1.6a1.9 1.9 0 0 0-1.46-.59c-.43 0-.81.1-1.15.28-.33.19-.6.46-.79.81-.2.36-.29.8-.29 1.3Zm11.68 5.43a3.74 3.74 0 0 1-3.58-2.13 5.34 5.34 0 0 1-.5-2.35c0-.89.17-1.68.5-2.36a3.7 3.7 0 0 1 3.44-2.18c.46 0 .9.07 1.35.23a3.34 3.34 0 0 1 2.08 2.08c.21.55.32 1.24.32 2.05v.57h-6.73v-1.16h5.37c0-.5-.1-.93-.3-1.32a2.23 2.23 0 0 0-2.09-1.25 2.47 2.47 0 0 0-2.28 1.42 3 3 0 0 0-.31 1.36v.77c0 .66.11 1.22.34 1.68.23.45.55.8.96 1.03.41.24.89.36 1.43.36.35 0 .67-.05.95-.15.29-.1.54-.25.75-.45.2-.2.37-.46.48-.77l1.3.37a2.9 2.9 0 0 1-.7 1.16c-.31.33-.71.58-1.19.77-.47.18-1 .27-1.6.27Zm9.17 3.27c-.64 0-1.2-.08-1.67-.25a3.53 3.53 0 0 1-1.9-1.5l1.07-.75.46.55c.19.2.44.39.76.54a3 3 0 0 0 1.28.23c.7 0 1.29-.17 1.75-.5.46-.35.69-.88.69-1.61v-1.77h-.12c-.1.16-.24.35-.42.59-.18.23-.43.43-.77.62a3 3 0 0 1-1.35.26 3.5 3.5 0 0 1-3.22-1.95 5.09 5.09 0 0 1-.49-2.32c0-.9.16-1.67.47-2.33a3.46 3.46 0 0 1 3.26-2.1c.57 0 1.02.1 1.35.28.34.19.6.4.77.64.19.23.33.43.43.58h.13v-1.39h1.3v8.98c0 .75-.17 1.36-.52 1.83a2.9 2.9 0 0 1-1.36 1.04c-.57.22-1.2.33-1.9.33Zm-.04-4.8c.54 0 1-.11 1.36-.36.37-.25.66-.6.85-1.06.2-.46.29-1.02.29-1.66 0-.63-.1-1.19-.29-1.67a2.49 2.49 0 0 0-.84-1.13c-.37-.27-.83-.4-1.37-.4a2.28 2.28 0 0 0-2.27 1.58 4.5 4.5 0 0 0-.28 1.62c0 .6.1 1.14.29 1.6.19.47.47.83.85 1.1.38.26.85.39 1.4.39Zm8.84 1.55c-.55 0-1.06-.1-1.5-.3a2.7 2.7 0 0 1-1.08-.92c-.27-.4-.4-.89-.4-1.46 0-.5.1-.9.3-1.21.2-.32.46-.56.79-.74.33-.18.69-.31 1.09-.4.4-.1.8-.16 1.2-.22l1.3-.15c.33-.04.57-.1.72-.19.16-.08.24-.23.24-.45v-.05c0-.56-.16-1-.46-1.3-.3-.31-.77-.47-1.38-.47a2.4 2.4 0 0 0-1.5.42c-.37.28-.63.58-.78.9l-1.27-.46a3 3 0 0 1 .91-1.23c.38-.3.8-.51 1.25-.63a5.2 5.2 0 0 1 2.3-.08c.38.07.73.2 1.07.4.34.2.63.52.86.93.23.41.34.97.34 1.66v5.75h-1.34v-1.18h-.07a2.64 2.64 0 0 1-1.3 1.16 3.3 3.3 0 0 1-1.3.22Zm.2-1.2c.53 0 .98-.1 1.34-.31a2.12 2.12 0 0 0 1.12-1.85v-1.23c-.06.07-.18.13-.38.2-.19.04-.4.1-.66.13a30.27 30.27 0 0 1-1.28.17c-.35.05-.67.12-.98.23-.3.1-.54.24-.72.44-.19.2-.28.47-.28.81 0 .47.18.82.52 1.06.35.23.79.35 1.32.35Zm10.04-7.73v1.14h-4.52v-1.14h4.52Zm-3.2-2.09h1.34V73c0 .38.05.66.16.85.12.19.26.31.44.38.17.06.36.09.56.09.14 0 .27 0 .36-.02l.23-.05.27 1.2a2.75 2.75 0 0 1-1 .16 2.7 2.7 0 0 1-1.11-.24 2.2 2.2 0 0 1-.9-.75 2.14 2.14 0 0 1-.35-1.26v-8.68Zm5.22 10.82v-8.73h1.34v8.73h-1.34Zm.68-10.18a.95.95 0 0 1-.68-.27.86.86 0 0 1-.27-.64c0-.25.09-.46.28-.64a.95.95 0 0 1 .67-.27c.26 0 .49.09.67.27a.85.85 0 0 1 0 1.28.93.93 0 0 1-.67.27Zm10.25 1.45-3.23 8.73h-1.36l-3.23-8.73h1.46l2.4 6.96h.1l2.4-6.96h1.46Zm5.12 8.91a3.74 3.74 0 0 1-3.58-2.13 5.36 5.36 0 0 1-.49-2.35c0-.89.16-1.68.49-2.36.33-.68.79-1.22 1.37-1.6a3.7 3.7 0 0 1 2.07-.58c.46 0 .9.07 1.35.23a3.33 3.33 0 0 1 2.08 2.08c.22.55.32 1.24.32 2.05v.57h-6.72v-1.16h5.36c0-.5-.1-.93-.3-1.32a2.22 2.22 0 0 0-2.09-1.25c-.53 0-1 .14-1.38.4-.39.26-.69.6-.9 1.02a3 3 0 0 0-.3 1.36v.77c0 .66.1 1.22.33 1.68.23.45.55.8.96 1.03.41.24.89.36 1.43.36.35 0 .67-.05.95-.15.3-.1.54-.25.75-.45.2-.2.37-.46.48-.77l1.3.37a2.9 2.9 0 0 1-.7 1.16c-.31.33-.71.58-1.19.77-.47.18-1 .27-1.6.27Zm16.1 3.1v-4.62h-.1c-.1.16-.24.36-.43.6a2.5 2.5 0 0 1-.78.64 2.8 2.8 0 0 1-1.34.28 3.41 3.41 0 0 1-3.24-2.12 5.66 5.66 0 0 1-.47-2.4c0-.92.16-1.71.47-2.39a3.47 3.47 0 0 1 3.25-2.11c.58 0 1.03.1 1.36.28.33.19.58.4.76.64.18.23.31.43.41.58h.16v-1.39h1.3v12h-1.34Zm-2.47-4.3c.54 0 1-.14 1.36-.42.37-.29.66-.68.85-1.18.2-.5.29-1.08.29-1.74 0-.66-.1-1.23-.29-1.71-.18-.5-.46-.88-.83-1.15a2.24 2.24 0 0 0-1.38-.42c-.57 0-1.04.15-1.42.44a2.6 2.6 0 0 0-.85 1.18 4.77 4.77 0 0 0-.28 1.66c0 .62.1 1.18.29 1.69.2.5.47.9.85 1.2.38.3.85.45 1.41.45Zm11.77-2.55v-5.16h1.34v8.73h-1.34v-1.48h-.09c-.2.45-.52.82-.95 1.13-.44.31-.98.46-1.64.46a3 3 0 0 1-1.45-.35 2.5 2.5 0 0 1-1-1.1 4.14 4.14 0 0 1-.37-1.84v-5.55h1.34v5.46c0 .63.18 1.14.54 1.52.36.38.81.57 1.37.57a2.28 2.28 0 0 0 1.9-1.04c.23-.35.35-.8.35-1.35Zm6.37 3.77c-.56 0-1.06-.1-1.5-.3a2.64 2.64 0 0 1-1.08-.92c-.27-.4-.4-.89-.4-1.46 0-.5.1-.9.3-1.21.2-.32.46-.56.78-.74.34-.18.7-.31 1.1-.4.4-.1.8-.16 1.2-.22l1.3-.15c.33-.04.57-.1.72-.19.16-.08.24-.23.24-.45v-.05c0-.56-.16-1-.46-1.3-.3-.31-.77-.47-1.38-.47-.64 0-1.15.14-1.51.42-.36.28-.62.58-.77.9l-1.27-.46a3.08 3.08 0 0 1 2.16-1.86 5.2 5.2 0 0 1 2.3-.08c.37.07.73.2 1.07.4.34.2.63.52.86.93.22.41.34.97.34 1.66v5.75h-1.34v-1.18h-.07a2.63 2.63 0 0 1-1.3 1.16 3.3 3.3 0 0 1-1.3.22Zm.2-1.2c.53 0 .98-.1 1.34-.31a2.12 2.12 0 0 0 1.12-1.85v-1.23a.99.99 0 0 1-.38.2c-.19.04-.4.1-.66.13a29.56 29.56 0 0 1-1.28.17c-.35.05-.68.12-.98.23-.3.1-.54.24-.73.44-.18.2-.27.47-.27.81 0 .47.17.82.52 1.06.35.23.79.35 1.32.35Zm7.59-4.25v5.25h-1.34v-8.73h1.29v1.37h.11c.2-.45.52-.8.94-1.07.41-.27.95-.41 1.6-.41.6 0 1.12.12 1.56.36.44.24.79.6 1.04 1.1.24.48.36 1.1.36 1.83v5.55h-1.34v-5.45c0-.69-.17-1.22-.53-1.6a1.9 1.9 0 0 0-1.47-.59c-.42 0-.8.1-1.14.28a2 2 0 0 0-.8.81c-.19.36-.28.8-.28 1.3Zm11.81-3.48v1.14h-4.52v-1.14h4.52Zm-3.2-2.09h1.34V73c0 .38.05.66.16.85.11.19.26.31.43.38.18.06.37.09.56.09.15 0 .27 0 .37-.02l.23-.05.27 1.2a2.73 2.73 0 0 1-1 .16 2.7 2.7 0 0 1-1.11-.24 2.21 2.21 0 0 1-.9-.75 2.14 2.14 0 0 1-.35-1.26v-8.68Zm5.22 10.82v-8.73h1.34v8.73h-1.34Zm.68-10.18a.95.95 0 0 1-.68-.27.86.86 0 0 1-.28-.64c0-.25.1-.46.28-.64a.95.95 0 0 1 .68-.27c.26 0 .48.09.67.27.19.18.28.39.28.64s-.1.46-.28.64a.93.93 0 0 1-.67.27Zm6.9 1.45v1.14h-4.51v-1.14h4.52Zm-3.2-2.09h1.34V73c0 .38.06.66.17.85.11.19.26.31.43.38.18.06.37.09.56.09.15 0 .27 0 .37-.02l.22-.05.28 1.2a2.73 2.73 0 0 1-1 .16 2.7 2.7 0 0 1-1.12-.24 2.21 2.21 0 0 1-.9-.75 2.14 2.14 0 0 1-.35-1.26v-8.68Zm5.23 10.82v-8.73h1.34v8.73h-1.34Zm.68-10.18a.95.95 0 0 1-.68-.27.86.86 0 0 1-.28-.64c0-.25.1-.46.28-.64a.95.95 0 0 1 .68-.27c.26 0 .48.09.67.27.19.18.28.39.28.64s-.1.46-.28.64a.93.93 0 0 1-.67.27Zm6.77 10.36a3.74 3.74 0 0 1-3.58-2.13 5.36 5.36 0 0 1-.49-2.35c0-.89.17-1.68.5-2.36a3.7 3.7 0 0 1 3.44-2.18c.45 0 .9.07 1.34.23a3.33 3.33 0 0 1 2.08 2.08c.22.55.33 1.24.33 2.05v.57h-6.73v-1.16h5.36c0-.5-.1-.93-.3-1.32a2.23 2.23 0 0 0-2.08-1.25c-.54 0-1 .14-1.4.4-.38.26-.67.6-.88 1.02a3 3 0 0 0-.31 1.36v.77c0 .66.1 1.22.34 1.68.23.45.55.8.96 1.03.4.24.88.36 1.42.36.35 0 .67-.05.96-.15.28-.1.53-.25.74-.45.2-.2.37-.46.48-.77l1.3.37a2.99 2.99 0 0 1-1.89 1.93c-.47.18-1 .27-1.59.27Zm11.84-6.95-1.2.34c-.08-.2-.2-.4-.34-.59a1.6 1.6 0 0 0-.6-.47 2.15 2.15 0 0 0-.95-.2c-.54 0-.98.13-1.34.38-.35.24-.53.55-.53.92 0 .34.12.6.37.8.24.19.62.35 1.13.48l1.3.31c.78.2 1.36.48 1.74.87.39.39.58.89.58 1.5 0 .5-.15.95-.44 1.34-.28.4-.68.7-1.19.93-.51.23-1.1.34-1.78.34-.9 0-1.63-.2-2.21-.58a2.57 2.57 0 0 1-1.11-1.7l1.27-.3c.12.46.35.81.69 1.05.34.23.78.35 1.33.35a2.5 2.5 0 0 0 1.5-.4c.36-.27.55-.59.55-.96 0-.3-.1-.56-.32-.77-.21-.2-.54-.36-.98-.46l-1.45-.34a3.47 3.47 0 0 1-1.76-.88c-.37-.4-.56-.9-.56-1.5 0-.5.14-.94.42-1.31.28-.38.66-.68 1.14-.9a4 4 0 0 1 1.65-.32c.86 0 1.54.19 2.03.57.5.38.85.88 1.06 1.5Z" fill="#fff"/></g><defs><filter id="c" x="0" y="42.5" width="270" height="52" filterUnits="userSpaceOnUse" color-interpolation-filters="sRGB"><feFlood flood-opacity="0" result="BackgroundImageFix"/><feColorMatrix in="SourceAlpha" values="0 0 0 0 0 0 0 0 0 0 0 0 0 0 0 0 0 0 127 0" result="hardAlpha"/><feOffset dy="2"/><feGaussianBlur stdDeviation="1.5"/><feColorMatrix values="0 0 0 0 0.2 0 0 0 0 0.2 0 0 0 0 0.2 0 0 0 0.15 0"/><feBlend in2="BackgroundImageFix" result="effect1_dropShadow_11653_104311"/><feColorMatrix in="SourceAlpha" values="0 0 0 0 0 0 0 0 0 0 0 0 0 0 0 0 0 0 127 0" result="hardAlpha"/><feOffset dy="1"/><feGaussianBlur stdDeviation="1.5"/><feColorMatrix values="0 0 0 0 0.2 0 0 0 0 0.2 0 0 0 0 0.2 0 0 0 0.1 0"/><feBlend in2="effect1_dropShadow_11653_104311" result="effect2_dropShadow_11653_104311"/><feBlend in="SourceGraphic" in2="effect2_dropShadow_11653_104311" result="shape"/></filter></defs></svg>