<svg width="188" height="96" viewBox="0 0 188 96" fill="none" xmlns="http://www.w3.org/2000/svg">
<path d="M41 32.5H104V71.5H41V32.5Z" fill="white"/>
<path d="M59.0682 52.75V58H57.7273V46.3636H59.0682V50.6364H59.1818C59.3864 50.1856 59.6932 49.8277 60.1023 49.5625C60.5152 49.2936 61.0644 49.1591 61.75 49.1591C62.3447 49.1591 62.8655 49.2784 63.3125 49.517C63.7595 49.7519 64.1061 50.1136 64.3523 50.6023C64.6023 51.0871 64.7273 51.7045 64.7273 52.4545V58H63.3864V52.5455C63.3864 51.8523 63.2064 51.3163 62.8466 50.9375C62.4905 50.5549 61.9962 50.3636 61.3636 50.3636C60.9242 50.3636 60.5303 50.4564 60.1818 50.642C59.8371 50.8277 59.5644 51.0985 59.3636 51.4545C59.1667 51.8106 59.0682 52.2424 59.0682 52.75Z" fill="#333333"/>
<path d="M41 32.5H104V71.5H41V32.5Z" stroke="#EE0505"/>
<path d="M1.64773 18V6.36364H9.21591V8.13068H3.75568V11.2898H8.82386V13.0568H3.75568V16.233H9.26136V18H1.64773ZM11.2756 18V9.27273H13.2699V10.7273H13.3608C13.5199 10.2235 13.7926 9.83523 14.179 9.5625C14.5691 9.28598 15.0142 9.14773 15.5142 9.14773C15.6278 9.14773 15.7547 9.15341 15.8949 9.16477C16.0388 9.17235 16.1581 9.18561 16.2528 9.20455V11.0966C16.1657 11.0663 16.0275 11.0398 15.8381 11.017C15.6525 10.9905 15.4725 10.9773 15.2983 10.9773C14.9233 10.9773 14.5862 11.0587 14.2869 11.2216C13.9915 11.3807 13.7585 11.6023 13.5881 11.8864C13.4176 12.1705 13.3324 12.4981 13.3324 12.8693V18H11.2756ZM17.6193 18V9.27273H19.6136V10.7273H19.7045C19.8636 10.2235 20.1364 9.83523 20.5227 9.5625C20.9129 9.28598 21.358 9.14773 21.858 9.14773C21.9716 9.14773 22.0985 9.15341 22.2386 9.16477C22.3826 9.17235 22.5019 9.18561 22.5966 9.20455V11.0966C22.5095 11.0663 22.3712 11.0398 22.1818 11.017C21.9962 10.9905 21.8163 10.9773 21.642 10.9773C21.267 10.9773 20.9299 11.0587 20.6307 11.2216C20.3352 11.3807 20.1023 11.6023 19.9318 11.8864C19.7614 12.1705 19.6761 12.4981 19.6761 12.8693V18H17.6193ZM27.4105 18.1705C26.5582 18.1705 25.8196 17.983 25.1946 17.608C24.5696 17.233 24.0848 16.7083 23.7401 16.0341C23.3991 15.3598 23.2287 14.572 23.2287 13.6705C23.2287 12.7689 23.3991 11.9792 23.7401 11.3011C24.0848 10.6231 24.5696 10.0966 25.1946 9.72159C25.8196 9.34659 26.5582 9.15909 27.4105 9.15909C28.2628 9.15909 29.0014 9.34659 29.6264 9.72159C30.2514 10.0966 30.7344 10.6231 31.0753 11.3011C31.42 11.9792 31.5923 12.7689 31.5923 13.6705C31.5923 14.572 31.42 15.3598 31.0753 16.0341C30.7344 16.7083 30.2514 17.233 29.6264 17.608C29.0014 17.983 28.2628 18.1705 27.4105 18.1705ZM27.4219 16.5227C27.884 16.5227 28.2704 16.3958 28.581 16.142C28.8916 15.8845 29.1226 15.5398 29.2741 15.108C29.4295 14.6761 29.5071 14.1951 29.5071 13.6648C29.5071 13.1307 29.4295 12.6477 29.2741 12.2159C29.1226 11.7803 28.8916 11.4337 28.581 11.1761C28.2704 10.9186 27.884 10.7898 27.4219 10.7898C26.9484 10.7898 26.5545 10.9186 26.2401 11.1761C25.9295 11.4337 25.6965 11.7803 25.5412 12.2159C25.3897 12.6477 25.3139 13.1307 25.3139 13.6648C25.3139 14.1951 25.3897 14.6761 25.5412 15.108C25.6965 15.5398 25.9295 15.8845 26.2401 16.142C26.5545 16.3958 26.9484 16.5227 27.4219 16.5227ZM33.3381 18V9.27273H35.3324V10.7273H35.4233C35.5824 10.2235 35.8551 9.83523 36.2415 9.5625C36.6316 9.28598 37.0767 9.14773 37.5767 9.14773C37.6903 9.14773 37.8172 9.15341 37.9574 9.16477C38.1013 9.17235 38.2206 9.18561 38.3153 9.20455V11.0966C38.2282 11.0663 38.09 11.0398 37.9006 11.017C37.715 10.9905 37.535 10.9773 37.3608 10.9773C36.9858 10.9773 36.6487 11.0587 36.3494 11.2216C36.054 11.3807 35.821 11.6023 35.6506 11.8864C35.4801 12.1705 35.3949 12.4981 35.3949 12.8693V18H33.3381ZM48.9403 11.3352V13.0284H43.7017V11.3352H48.9403ZM55.1634 18V6.36364H57.2713V16.233H62.3963V18H55.1634ZM66.6463 18.1761C66.0933 18.1761 65.5952 18.0777 65.152 17.8807C64.7126 17.6799 64.3641 17.3845 64.1065 16.9943C63.8527 16.6042 63.7259 16.1231 63.7259 15.5511C63.7259 15.0587 63.8168 14.6515 63.9986 14.3295C64.1804 14.0076 64.4285 13.75 64.7429 13.5568C65.0573 13.3636 65.4115 13.2178 65.8054 13.1193C66.2031 13.017 66.6141 12.9432 67.0384 12.8977C67.5497 12.8447 67.9645 12.7973 68.2827 12.7557C68.6009 12.7102 68.8319 12.642 68.9759 12.5511C69.1236 12.4564 69.1974 12.3106 69.1974 12.1136V12.0795C69.1974 11.6515 69.0705 11.3201 68.8168 11.0852C68.563 10.8504 68.1974 10.733 67.7202 10.733C67.2164 10.733 66.8168 10.8428 66.5213 11.0625C66.2296 11.2822 66.0327 11.5417 65.9304 11.8409L64.0099 11.5682C64.1615 11.0379 64.4115 10.5947 64.7599 10.2386C65.1084 9.87879 65.5346 9.60985 66.0384 9.43182C66.5421 9.25 67.099 9.15909 67.7088 9.15909C68.1293 9.15909 68.5478 9.20833 68.9645 9.30682C69.3812 9.4053 69.7618 9.56818 70.1065 9.79545C70.4512 10.0189 70.7277 10.3239 70.9361 10.7102C71.1482 11.0966 71.2543 11.5795 71.2543 12.1591V18H69.277V16.8011H69.2088C69.0838 17.0436 68.9077 17.2708 68.6804 17.483C68.4569 17.6913 68.1747 17.8598 67.8338 17.9886C67.4967 18.1136 67.1009 18.1761 66.6463 18.1761ZM67.1804 16.6648C67.5933 16.6648 67.9512 16.5833 68.2543 16.4205C68.5573 16.2538 68.7902 16.0341 68.9531 15.7614C69.1198 15.4886 69.2031 15.1913 69.2031 14.8693V13.8409C69.1387 13.8939 69.0289 13.9432 68.8736 13.9886C68.7221 14.0341 68.5516 14.0739 68.3622 14.108C68.1728 14.142 67.9853 14.1723 67.7997 14.1989C67.6141 14.2254 67.4531 14.2481 67.3168 14.267C67.0099 14.3087 66.7353 14.3769 66.4929 14.4716C66.2505 14.5663 66.0592 14.6989 65.919 14.8693C65.7789 15.036 65.7088 15.2519 65.7088 15.517C65.7088 15.8958 65.8471 16.1818 66.1236 16.375C66.4001 16.5682 66.7524 16.6648 67.1804 16.6648ZM73.4134 18V6.36364H75.4702V10.7159H75.5554C75.6615 10.5038 75.8111 10.2784 76.0043 10.0398C76.1974 9.79735 76.4588 9.59091 76.7884 9.42045C77.1179 9.24621 77.5384 9.15909 78.0497 9.15909C78.724 9.15909 79.3319 9.33144 79.8736 9.67614C80.419 10.017 80.8509 10.5227 81.169 11.1932C81.491 11.8598 81.652 12.678 81.652 13.6477C81.652 14.6061 81.4948 15.4205 81.1804 16.0909C80.866 16.7614 80.438 17.2727 79.8963 17.625C79.3546 17.9773 78.741 18.1534 78.0554 18.1534C77.5554 18.1534 77.1406 18.0701 76.8111 17.9034C76.4815 17.7367 76.2164 17.536 76.0156 17.3011C75.8187 17.0625 75.6652 16.8371 75.5554 16.625H75.4361V18H73.4134ZM75.4304 13.6364C75.4304 14.2008 75.5099 14.6951 75.669 15.1193C75.8319 15.5436 76.0649 15.875 76.3679 16.1136C76.6747 16.3485 77.0459 16.4659 77.4815 16.4659C77.9361 16.4659 78.3168 16.3447 78.6236 16.1023C78.9304 15.8561 79.1615 15.5208 79.3168 15.0966C79.4759 14.6686 79.5554 14.1818 79.5554 13.6364C79.5554 13.0947 79.4777 12.6136 79.3224 12.1932C79.1671 11.7727 78.9361 11.4432 78.6293 11.2045C78.3224 10.9659 77.9399 10.8466 77.4815 10.8466C77.0421 10.8466 76.669 10.9621 76.3622 11.1932C76.0554 11.4242 75.8224 11.7481 75.6634 12.1648C75.508 12.5814 75.4304 13.072 75.4304 13.6364ZM87.2642 18.1705C86.3892 18.1705 85.6335 17.9886 84.9972 17.625C84.3646 17.2576 83.8778 16.7386 83.5369 16.0682C83.196 15.3939 83.0256 14.6004 83.0256 13.6875C83.0256 12.7898 83.196 12.0019 83.5369 11.3239C83.8816 10.642 84.3627 10.1117 84.9801 9.73295C85.5975 9.35038 86.3229 9.15909 87.1562 9.15909C87.6941 9.15909 88.2017 9.24621 88.679 9.42045C89.16 9.59091 89.5843 9.85606 89.9517 10.2159C90.3229 10.5758 90.6146 11.0341 90.8267 11.5909C91.0388 12.1439 91.1449 12.803 91.1449 13.5682V14.1989H83.9915V12.8125H89.1733C89.1695 12.4186 89.0843 12.0682 88.9176 11.7614C88.7509 11.4508 88.518 11.2064 88.2188 11.0284C87.9233 10.8504 87.5786 10.7614 87.1847 10.7614C86.7642 10.7614 86.3949 10.8636 86.0767 11.0682C85.7585 11.2689 85.5104 11.5341 85.3324 11.8636C85.1581 12.1894 85.0691 12.5473 85.0653 12.9375V14.1477C85.0653 14.6553 85.1581 15.0909 85.3438 15.4545C85.5294 15.8144 85.7888 16.0909 86.1222 16.2841C86.4555 16.4735 86.8456 16.5682 87.2926 16.5682C87.5919 16.5682 87.8627 16.5265 88.1051 16.4432C88.3475 16.3561 88.5578 16.2292 88.7358 16.0625C88.9138 15.8958 89.0483 15.6894 89.1392 15.4432L91.0597 15.6591C90.9384 16.1667 90.7074 16.6098 90.3665 16.9886C90.0294 17.3636 89.5975 17.6553 89.071 17.8636C88.5445 18.0682 87.9422 18.1705 87.2642 18.1705ZM94.9418 6.36364V18H92.8849V6.36364H94.9418Z" fill="#1F1F1F"/>
<path d="M103.622 12.9091L103.753 10.608L101.821 11.875L101.128 10.6705L103.19 9.63636L101.128 8.60227L101.821 7.39773L103.753 8.66477L103.622 6.36364H105.003L104.878 8.66477L106.81 7.39773L107.503 8.60227L105.435 9.63636L107.503 10.6705L106.81 11.875L104.878 10.608L105.003 12.9091H103.622Z" fill="#F74E4E"/>
<g clip-path="url(#clip0_11653_104292)">
<path d="M8.5 85.3334V88.6668" stroke="#EE0505" stroke-width="1.7" stroke-linecap="round"/>
<path d="M8.50016 94.6668C12.1821 94.6668 15.1668 91.6821 15.1668 88.0002C15.1668 84.3183 12.1821 81.3335 8.50016 81.3335C4.81826 81.3335 1.8335 84.3183 1.8335 88.0002C1.8335 91.6821 4.81826 94.6668 8.50016 94.6668Z" stroke="#EE0505" stroke-width="1.7" stroke-linecap="round"/>
<circle cx="8.5" cy="91" r="1" transform="rotate(180 8.5 91)" fill="#EE0505"/>
</g>
<path d="M25.5568 94V85.2727H28.5057C29.1903 85.2727 29.75 85.3963 30.1847 85.6435C30.6222 85.8878 30.946 86.2188 31.1562 86.6364C31.3665 87.054 31.4716 87.5199 31.4716 88.0341C31.4716 88.5483 31.3665 89.0156 31.1562 89.4361C30.9489 89.8565 30.6278 90.1918 30.1932 90.4418C29.7585 90.6889 29.2017 90.8125 28.5227 90.8125H26.4091V89.875H28.4886C28.9574 89.875 29.3338 89.794 29.6179 89.6321C29.902 89.4702 30.108 89.2514 30.2358 88.9759C30.3665 88.6974 30.4318 88.3835 30.4318 88.0341C30.4318 87.6847 30.3665 87.3722 30.2358 87.0966C30.108 86.821 29.9006 86.6051 29.6136 86.4489C29.3267 86.2898 28.946 86.2102 28.4716 86.2102H26.6136V94H25.5568ZM34.0433 85.2727V94H33.0376V85.2727H34.0433ZM38.6296 94.1364C37.9989 94.1364 37.4549 93.9972 36.9975 93.7188C36.543 93.4375 36.1921 93.0455 35.945 92.5426C35.7006 92.0369 35.5785 91.4489 35.5785 90.7784C35.5785 90.108 35.7006 89.517 35.945 89.0057C36.1921 88.4915 36.5359 88.0909 36.9762 87.804C37.4194 87.5142 37.9364 87.3693 38.5273 87.3693C38.8683 87.3693 39.2049 87.4261 39.5373 87.5398C39.8697 87.6534 40.1722 87.8381 40.445 88.0938C40.7177 88.3466 40.935 88.6818 41.0969 89.0994C41.2589 89.517 41.3398 90.0312 41.3398 90.642V91.0682H36.2944V90.1989H40.3171C40.3171 89.8295 40.2433 89.5 40.0955 89.2102C39.9506 88.9205 39.7433 88.6918 39.4734 88.5241C39.2063 88.3565 38.891 88.2727 38.5273 88.2727C38.1268 88.2727 37.7802 88.3722 37.4876 88.571C37.1978 88.767 36.9748 89.0227 36.8185 89.3381C36.6623 89.6534 36.5842 89.9915 36.5842 90.3523V90.9318C36.5842 91.4261 36.6694 91.8452 36.8398 92.1889C37.0131 92.5298 37.2532 92.7898 37.56 92.9688C37.8668 93.1449 38.2234 93.233 38.6296 93.233C38.8938 93.233 39.1325 93.196 39.3455 93.1222C39.5614 93.0455 39.7475 92.9318 39.9038 92.7812C40.06 92.6278 40.1808 92.4375 40.266 92.2102L41.2376 92.483C41.1353 92.8125 40.9634 93.1023 40.7219 93.3523C40.4805 93.5994 40.1822 93.7926 39.8271 93.9318C39.4719 94.0682 39.0728 94.1364 38.6296 94.1364ZM44.7958 94.1534C44.381 94.1534 44.0046 94.0753 43.6665 93.919C43.3285 93.7599 43.06 93.5312 42.8612 93.233C42.6623 92.9318 42.5629 92.5682 42.5629 92.142C42.5629 91.767 42.6367 91.4631 42.7844 91.2301C42.9322 90.9943 43.1296 90.8097 43.3768 90.6761C43.6239 90.5426 43.8967 90.4432 44.195 90.3778C44.4961 90.3097 44.7987 90.2557 45.1026 90.2159C45.5004 90.1648 45.8228 90.1264 46.07 90.1009C46.32 90.0724 46.5018 90.0256 46.6154 89.9602C46.7319 89.8949 46.7901 89.7812 46.7901 89.6193V89.5852C46.7901 89.1648 46.6751 88.8381 46.445 88.6051C46.2177 88.3722 45.8725 88.2557 45.4094 88.2557C44.9293 88.2557 44.5529 88.3608 44.2802 88.571C44.0075 88.7812 43.8157 89.0057 43.7049 89.2443L42.7504 88.9034C42.9208 88.5057 43.1481 88.196 43.4322 87.9744C43.7191 87.75 44.0316 87.5937 44.3697 87.5057C44.7106 87.4148 45.0458 87.3693 45.3754 87.3693C45.5856 87.3693 45.8271 87.3949 46.0998 87.446C46.3754 87.4943 46.641 87.5952 46.8967 87.7486C47.1552 87.902 47.3697 88.1335 47.5401 88.4432C47.7106 88.7528 47.7958 89.1676 47.7958 89.6875V94H46.7901V93.1136H46.739C46.6708 93.2557 46.5572 93.4077 46.3981 93.5696C46.239 93.7315 46.0273 93.8693 45.7631 93.983C45.4989 94.0966 45.1765 94.1534 44.7958 94.1534ZM44.9492 93.25C45.3469 93.25 45.6822 93.1719 45.9549 93.0156C46.2305 92.8594 46.4379 92.6577 46.5771 92.4105C46.7191 92.1634 46.7901 91.9034 46.7901 91.6307V90.7102C46.7475 90.7614 46.6538 90.8082 46.5089 90.8509C46.3668 90.8906 46.2021 90.9261 46.0146 90.9574C45.8299 90.9858 45.6495 91.0114 45.4734 91.0341C45.3001 91.054 45.1594 91.071 45.0515 91.0852C44.7901 91.1193 44.5458 91.1747 44.3185 91.2514C44.0941 91.3253 43.9123 91.4375 43.7731 91.5881C43.6367 91.7358 43.5685 91.9375 43.5685 92.1932C43.5685 92.5426 43.6978 92.8068 43.9563 92.9858C44.2177 93.1619 44.5487 93.25 44.9492 93.25ZM54.2678 88.9205L53.3643 89.1761C53.3075 89.0256 53.2237 88.8793 53.1129 88.7372C53.005 88.5923 52.8572 88.473 52.6697 88.3793C52.4822 88.2855 52.2422 88.2386 51.9496 88.2386C51.549 88.2386 51.2152 88.331 50.9482 88.5156C50.6839 88.6974 50.5518 88.929 50.5518 89.2102C50.5518 89.4602 50.6428 89.6577 50.8246 89.8026C51.0064 89.9474 51.2905 90.0682 51.6768 90.1648L52.6484 90.4034C53.2337 90.5455 53.6697 90.7628 53.9567 91.0554C54.2436 91.3452 54.3871 91.7187 54.3871 92.1761C54.3871 92.5511 54.2791 92.8864 54.0632 93.1818C53.8501 93.4773 53.5518 93.7102 53.1683 93.8807C52.7848 94.0511 52.3388 94.1364 51.8303 94.1364C51.1626 94.1364 50.6101 93.9915 50.1726 93.7017C49.7351 93.4119 49.4581 92.9886 49.3416 92.4318L50.2962 92.1932C50.3871 92.5455 50.5589 92.8097 50.8118 92.9858C51.0675 93.1619 51.4013 93.25 51.8132 93.25C52.282 93.25 52.6541 93.1506 52.9297 92.9517C53.2081 92.75 53.3473 92.5085 53.3473 92.2273C53.3473 92 53.2678 91.8097 53.1087 91.6562C52.9496 91.5 52.7053 91.3835 52.3757 91.3068L51.2848 91.0511C50.6854 90.9091 50.245 90.6889 49.9638 90.3906C49.6854 90.0895 49.5462 89.7131 49.5462 89.2614C49.5462 88.892 49.6499 88.5653 49.8572 88.2812C50.0675 87.9972 50.353 87.7741 50.7138 87.6122C51.0774 87.4503 51.4893 87.3693 51.9496 87.3693C52.5973 87.3693 53.1058 87.5114 53.4751 87.7955C53.8473 88.0795 54.1115 88.4545 54.2678 88.9205ZM58.6452 94.1364C58.0146 94.1364 57.4705 93.9972 57.0131 93.7188C56.5586 93.4375 56.2077 93.0455 55.9606 92.5426C55.7163 92.0369 55.5941 91.4489 55.5941 90.7784C55.5941 90.108 55.7163 89.517 55.9606 89.0057C56.2077 88.4915 56.5515 88.0909 56.9918 87.804C57.435 87.5142 57.9521 87.3693 58.543 87.3693C58.8839 87.3693 59.2205 87.4261 59.5529 87.5398C59.8853 87.6534 60.1879 87.8381 60.4606 88.0938C60.7333 88.3466 60.9506 88.6818 61.1126 89.0994C61.2745 89.517 61.3555 90.0312 61.3555 90.642V91.0682H56.31V90.1989H60.3327C60.3327 89.8295 60.2589 89.5 60.1112 89.2102C59.9663 88.9205 59.7589 88.6918 59.489 88.5241C59.2219 88.3565 58.9066 88.2727 58.543 88.2727C58.1424 88.2727 57.7958 88.3722 57.5032 88.571C57.2134 88.767 56.9904 89.0227 56.8342 89.3381C56.6779 89.6534 56.5998 89.9915 56.5998 90.3523V90.9318C56.5998 91.4261 56.685 91.8452 56.8555 92.1889C57.0288 92.5298 57.2688 92.7898 57.5756 92.9688C57.8825 93.1449 58.239 93.233 58.6452 93.233C58.9094 93.233 59.1481 93.196 59.3612 93.1222C59.5771 93.0455 59.7631 92.9318 59.9194 92.7812C60.0756 92.6278 60.1964 92.4375 60.2816 92.2102L61.2532 92.483C61.1509 92.8125 60.979 93.1023 60.7376 93.3523C60.4961 93.5994 60.1978 93.7926 59.8427 93.9318C59.4876 94.0682 59.0884 94.1364 58.6452 94.1364ZM69.0046 94.1364C68.3739 94.1364 67.8299 93.9972 67.3725 93.7188C66.918 93.4375 66.5671 93.0455 66.32 92.5426C66.0756 92.0369 65.9535 91.4489 65.9535 90.7784C65.9535 90.108 66.0756 89.517 66.32 89.0057C66.5671 88.4915 66.9109 88.0909 67.3512 87.804C67.7944 87.5142 68.3114 87.3693 68.9023 87.3693C69.2433 87.3693 69.5799 87.4261 69.9123 87.5398C70.2447 87.6534 70.5472 87.8381 70.82 88.0938C71.0927 88.3466 71.31 88.6818 71.4719 89.0994C71.6339 89.517 71.7148 90.0312 71.7148 90.642V91.0682H66.6694V90.1989H70.6921C70.6921 89.8295 70.6183 89.5 70.4705 89.2102C70.3256 88.9205 70.1183 88.6918 69.8484 88.5241C69.5813 88.3565 69.266 88.2727 68.9023 88.2727C68.5018 88.2727 68.1552 88.3722 67.8626 88.571C67.5728 88.767 67.3498 89.0227 67.1935 89.3381C67.0373 89.6534 66.9592 89.9915 66.9592 90.3523V90.9318C66.9592 91.4261 67.0444 91.8452 67.2148 92.1889C67.3881 92.5298 67.6282 92.7898 67.935 92.9688C68.2418 93.1449 68.5984 93.233 69.0046 93.233C69.2688 93.233 69.5075 93.196 69.7205 93.1222C69.9364 93.0455 70.1225 92.9318 70.2788 92.7812C70.435 92.6278 70.5558 92.4375 70.641 92.2102L71.6126 92.483C71.5103 92.8125 71.3384 93.1023 71.0969 93.3523C70.8555 93.5994 70.5572 93.7926 70.2021 93.9318C69.8469 94.0682 69.4478 94.1364 69.0046 94.1364ZM74.2504 90.0625V94H73.2447V87.4545H74.2163V88.4773H74.3015C74.4549 88.1449 74.6879 87.8778 75.0004 87.6761C75.3129 87.4716 75.7163 87.3693 76.2106 87.3693C76.6538 87.3693 77.0415 87.4602 77.3739 87.642C77.7063 87.821 77.9648 88.0938 78.1495 88.4602C78.3342 88.8239 78.4265 89.2841 78.4265 89.8409V94H77.4208V89.9091C77.4208 89.3949 77.2873 88.9943 77.0202 88.7074C76.7532 88.4176 76.3867 88.2727 75.9208 88.2727C75.5998 88.2727 75.3129 88.3423 75.06 88.4815C74.81 88.6207 74.6126 88.8239 74.4677 89.0909C74.3228 89.358 74.2504 89.6818 74.2504 90.0625ZM83.1108 87.4545V88.3068H79.7188V87.4545H83.1108ZM80.7074 85.8864H81.7131V92.125C81.7131 92.4091 81.7543 92.6222 81.8366 92.7642C81.9219 92.9034 82.0298 92.9972 82.1605 93.0455C82.294 93.0909 82.4347 93.1136 82.5824 93.1136C82.6932 93.1136 82.7841 93.108 82.8551 93.0966C82.9261 93.0824 82.983 93.071 83.0256 93.0625L83.2301 93.9659C83.1619 93.9915 83.0668 94.017 82.9446 94.0426C82.8224 94.071 82.6676 94.0852 82.4801 94.0852C82.196 94.0852 81.9176 94.0241 81.6449 93.902C81.375 93.7798 81.1506 93.5938 80.9716 93.3438C80.7955 93.0938 80.7074 92.7784 80.7074 92.3977V85.8864ZM87.2976 94.1364C86.6669 94.1364 86.1229 93.9972 85.6655 93.7188C85.2109 93.4375 84.8601 93.0455 84.6129 92.5426C84.3686 92.0369 84.2464 91.4489 84.2464 90.7784C84.2464 90.108 84.3686 89.517 84.6129 89.0057C84.8601 88.4915 85.2038 88.0909 85.6442 87.804C86.0874 87.5142 86.6044 87.3693 87.1953 87.3693C87.5362 87.3693 87.8729 87.4261 88.2053 87.5398C88.5376 87.6534 88.8402 87.8381 89.1129 88.0938C89.3857 88.3466 89.603 88.6818 89.7649 89.0994C89.9268 89.517 90.0078 90.0312 90.0078 90.642V91.0682H84.9624V90.1989H88.9851C88.9851 89.8295 88.9112 89.5 88.7635 89.2102C88.6186 88.9205 88.4112 88.6918 88.1413 88.5241C87.8743 88.3565 87.5589 88.2727 87.1953 88.2727C86.7947 88.2727 86.4482 88.3722 86.1555 88.571C85.8658 88.767 85.6428 89.0227 85.4865 89.3381C85.3303 89.6534 85.2521 89.9915 85.2521 90.3523V90.9318C85.2521 91.4261 85.3374 91.8452 85.5078 92.1889C85.6811 92.5298 85.9212 92.7898 86.228 92.9688C86.5348 93.1449 86.8913 93.233 87.2976 93.233C87.5618 93.233 87.8004 93.196 88.0135 93.1222C88.2294 93.0455 88.4155 92.9318 88.5717 92.7812C88.728 92.6278 88.8487 92.4375 88.9339 92.2102L89.9055 92.483C89.8033 92.8125 89.6314 93.1023 89.3899 93.3523C89.1484 93.5994 88.8501 93.7926 88.495 93.9318C88.1399 94.0682 87.7408 94.1364 87.2976 94.1364ZM91.5376 94V87.4545H92.5092V88.4432H92.5774C92.6967 88.1193 92.9126 87.8565 93.2251 87.6548C93.5376 87.4531 93.8899 87.3523 94.282 87.3523C94.3558 87.3523 94.4482 87.3537 94.5589 87.3565C94.6697 87.3594 94.7536 87.3636 94.8104 87.3693V88.392C94.7763 88.3835 94.6982 88.3707 94.576 88.3537C94.4567 88.3338 94.3303 88.3239 94.1967 88.3239C93.8786 88.3239 93.5945 88.3906 93.3445 88.5241C93.0973 88.6548 92.9013 88.8366 92.7564 89.0696C92.6143 89.2997 92.5433 89.5625 92.5433 89.858V94H91.5376ZM101.304 94.1534C100.889 94.1534 100.512 94.0753 100.174 93.919C99.8363 93.7599 99.5678 93.5312 99.369 93.233C99.1701 92.9318 99.0707 92.5682 99.0707 92.142C99.0707 91.767 99.1445 91.4631 99.2923 91.2301C99.44 90.9943 99.6374 90.8097 99.8846 90.6761C100.132 90.5426 100.404 90.4432 100.703 90.3778C101.004 90.3097 101.306 90.2557 101.61 90.2159C102.008 90.1648 102.331 90.1264 102.578 90.1009C102.828 90.0724 103.01 90.0256 103.123 89.9602C103.24 89.8949 103.298 89.7812 103.298 89.6193V89.5852C103.298 89.1648 103.183 88.8381 102.953 88.6051C102.725 88.3722 102.38 88.2557 101.917 88.2557C101.437 88.2557 101.061 88.3608 100.788 88.571C100.515 88.7812 100.324 89.0057 100.213 89.2443L99.2582 88.9034C99.4286 88.5057 99.6559 88.196 99.94 87.9744C100.227 87.75 100.539 87.5937 100.877 87.5057C101.218 87.4148 101.554 87.3693 101.883 87.3693C102.093 87.3693 102.335 87.3949 102.608 87.446C102.883 87.4943 103.149 87.5952 103.404 87.7486C103.663 87.902 103.877 88.1335 104.048 88.4432C104.218 88.7528 104.304 89.1676 104.304 89.6875V94H103.298V93.1136H103.247C103.179 93.2557 103.065 93.4077 102.906 93.5696C102.747 93.7315 102.535 93.8693 102.271 93.983C102.007 94.0966 101.684 94.1534 101.304 94.1534ZM101.457 93.25C101.855 93.25 102.19 93.1719 102.463 93.0156C102.738 92.8594 102.946 92.6577 103.085 92.4105C103.227 92.1634 103.298 91.9034 103.298 91.6307V90.7102C103.255 90.7614 103.162 90.8082 103.017 90.8509C102.875 90.8906 102.71 90.9261 102.522 90.9574C102.338 90.9858 102.157 91.0114 101.981 91.0341C101.808 91.054 101.667 91.071 101.559 91.0852C101.298 91.1193 101.054 91.1747 100.826 91.2514C100.602 91.3253 100.42 91.4375 100.281 91.5881C100.145 91.7358 100.076 91.9375 100.076 92.1932C100.076 92.5426 100.206 92.8068 100.464 92.9858C100.725 93.1619 101.056 93.25 101.457 93.25ZM110.52 90.0625V94H109.514V87.4545H110.486V88.4773H110.571C110.724 88.1449 110.957 87.8778 111.27 87.6761C111.582 87.4716 111.986 87.3693 112.48 87.3693C112.923 87.3693 113.311 87.4602 113.643 87.642C113.976 87.821 114.234 88.0938 114.419 88.4602C114.604 88.8239 114.696 89.2841 114.696 89.8409V94H113.69V89.9091C113.69 89.3949 113.557 88.9943 113.29 88.7074C113.023 88.4176 112.656 88.2727 112.19 88.2727C111.869 88.2727 111.582 88.3423 111.33 88.4815C111.08 88.6207 110.882 88.8239 110.737 89.0909C110.592 89.358 110.52 89.6818 110.52 90.0625ZM120.659 91.3239V87.4545H121.664V94H120.659V92.892H120.591C120.437 93.2244 120.199 93.5071 119.875 93.7401C119.551 93.9702 119.142 94.0852 118.647 94.0852C118.238 94.0852 117.875 93.9957 117.556 93.8168C117.238 93.6349 116.988 93.3622 116.806 92.9986C116.625 92.6321 116.534 92.1705 116.534 91.6136V87.4545H117.539V91.5455C117.539 92.0227 117.673 92.4034 117.94 92.6875C118.21 92.9716 118.554 93.1136 118.971 93.1136C119.221 93.1136 119.475 93.0497 119.734 92.9219C119.995 92.794 120.214 92.598 120.39 92.3338C120.569 92.0696 120.659 91.733 120.659 91.3239ZM123.506 94V87.4545H124.478V88.4773H124.563C124.7 88.1278 124.92 87.8565 125.224 87.6634C125.528 87.4673 125.893 87.3693 126.319 87.3693C126.751 87.3693 127.11 87.4673 127.397 87.6634C127.687 87.8565 127.913 88.1278 128.075 88.4773H128.143C128.31 88.1392 128.562 87.8707 128.897 87.6719C129.232 87.4702 129.634 87.3693 130.103 87.3693C130.688 87.3693 131.167 87.5526 131.539 87.919C131.911 88.2827 132.097 88.8494 132.097 89.6193V94H131.092V89.6193C131.092 89.1364 130.96 88.7912 130.695 88.5838C130.431 88.3764 130.12 88.2727 129.762 88.2727C129.302 88.2727 128.945 88.4119 128.692 88.6903C128.44 88.9659 128.313 89.3153 128.313 89.7386V94H127.29V89.517C127.29 89.1449 127.17 88.8452 126.928 88.6179C126.687 88.3878 126.376 88.2727 125.995 88.2727C125.734 88.2727 125.489 88.3423 125.262 88.4815C125.038 88.6207 124.856 88.8139 124.717 89.0611C124.58 89.3054 124.512 89.5881 124.512 89.9091V94H123.506ZM136.68 94.1364C136.05 94.1364 135.506 93.9972 135.048 93.7188C134.594 93.4375 134.243 93.0455 133.996 92.5426C133.751 92.0369 133.629 91.4489 133.629 90.7784C133.629 90.108 133.751 89.517 133.996 89.0057C134.243 88.4915 134.587 88.0909 135.027 87.804C135.47 87.5142 135.987 87.3693 136.578 87.3693C136.919 87.3693 137.256 87.4261 137.588 87.5398C137.92 87.6534 138.223 87.8381 138.496 88.0938C138.768 88.3466 138.986 88.6818 139.148 89.0994C139.31 89.517 139.391 90.0312 139.391 90.642V91.0682H134.345V90.1989H138.368C138.368 89.8295 138.294 89.5 138.146 89.2102C138.001 88.9205 137.794 88.6918 137.524 88.5241C137.257 88.3565 136.942 88.2727 136.578 88.2727C136.178 88.2727 135.831 88.3722 135.538 88.571C135.249 88.767 135.026 89.0227 134.869 89.3381C134.713 89.6534 134.635 89.9915 134.635 90.3523V90.9318C134.635 91.4261 134.72 91.8452 134.891 92.1889C135.064 92.5298 135.304 92.7898 135.611 92.9688C135.918 93.1449 136.274 93.233 136.68 93.233C136.945 93.233 137.183 93.196 137.396 93.1222C137.612 93.0455 137.798 92.9318 137.955 92.7812C138.111 92.6278 138.232 92.4375 138.317 92.2102L139.288 92.483C139.186 92.8125 139.014 93.1023 138.773 93.3523C138.531 93.5994 138.233 93.7926 137.878 93.9318C137.523 94.0682 137.124 94.1364 136.68 94.1364ZM140.92 94V87.4545H141.892V88.4432H141.96C142.08 88.1193 142.295 87.8565 142.608 87.6548C142.92 87.4531 143.273 87.3523 143.665 87.3523C143.739 87.3523 143.831 87.3537 143.942 87.3565C144.053 87.3594 144.136 87.3636 144.193 87.3693V88.392C144.159 88.3835 144.081 88.3707 143.959 88.3537C143.839 88.3338 143.713 88.3239 143.58 88.3239C143.261 88.3239 142.977 88.3906 142.727 88.5241C142.48 88.6548 142.284 88.8366 142.139 89.0696C141.997 89.2997 141.926 89.5625 141.926 89.858V94H140.92ZM145.385 94V87.4545H146.391V94H145.385ZM145.897 86.3636C145.701 86.3636 145.532 86.2969 145.39 86.1634C145.25 86.0298 145.181 85.8693 145.181 85.6818C145.181 85.4943 145.25 85.3338 145.39 85.2003C145.532 85.0668 145.701 85 145.897 85C146.093 85 146.26 85.0668 146.4 85.2003C146.542 85.3338 146.613 85.4943 146.613 85.6818C146.613 85.8693 146.542 86.0298 146.4 86.1634C146.26 86.2969 146.093 86.3636 145.897 86.3636ZM150.892 94.1364C150.278 94.1364 149.75 93.9915 149.307 93.7017C148.864 93.4119 148.523 93.0128 148.284 92.5043C148.045 91.9957 147.926 91.4148 147.926 90.7614C147.926 90.0966 148.048 89.5099 148.293 89.0014C148.54 88.4901 148.884 88.0909 149.324 87.804C149.767 87.5142 150.284 87.3693 150.875 87.3693C151.335 87.3693 151.75 87.4545 152.119 87.625C152.489 87.7955 152.791 88.0341 153.027 88.3409C153.263 88.6477 153.409 89.0057 153.466 89.4148H152.46C152.384 89.1165 152.213 88.8523 151.949 88.6222C151.688 88.3892 151.335 88.2727 150.892 88.2727C150.5 88.2727 150.156 88.375 149.861 88.5795C149.568 88.7812 149.339 89.0668 149.175 89.4361C149.013 89.8026 148.932 90.233 148.932 90.7273C148.932 91.233 149.011 91.6733 149.17 92.0483C149.332 92.4233 149.56 92.7145 149.852 92.9219C150.148 93.1293 150.494 93.233 150.892 93.233C151.153 93.233 151.391 93.1875 151.604 93.0966C151.817 93.0057 151.997 92.875 152.145 92.7045C152.293 92.5341 152.398 92.3295 152.46 92.0909H153.466C153.409 92.4773 153.268 92.8253 153.044 93.1349C152.822 93.4418 152.528 93.6861 152.162 93.8679C151.798 94.0469 151.375 94.1364 150.892 94.1364ZM163.663 87.4545L161.243 94H160.22L157.8 87.4545H158.891L160.697 92.6705H160.766L162.572 87.4545H163.663ZM166.718 94.1534C166.303 94.1534 165.926 94.0753 165.588 93.919C165.25 93.7599 164.982 93.5312 164.783 93.233C164.584 92.9318 164.485 92.5682 164.485 92.142C164.485 91.767 164.559 91.4631 164.706 91.2301C164.854 90.9943 165.051 90.8097 165.299 90.6761C165.546 90.5426 165.819 90.4432 166.117 90.3778C166.418 90.3097 166.721 90.2557 167.025 90.2159C167.422 90.1648 167.745 90.1264 167.992 90.1009C168.242 90.0724 168.424 90.0256 168.537 89.9602C168.654 89.8949 168.712 89.7812 168.712 89.6193V89.5852C168.712 89.1648 168.597 88.8381 168.367 88.6051C168.14 88.3722 167.794 88.2557 167.331 88.2557C166.851 88.2557 166.475 88.3608 166.202 88.571C165.929 88.7812 165.738 89.0057 165.627 89.2443L164.672 88.9034C164.843 88.5057 165.07 88.196 165.354 87.9744C165.641 87.75 165.953 87.5937 166.292 87.5057C166.632 87.4148 166.968 87.3693 167.297 87.3693C167.507 87.3693 167.749 87.3949 168.022 87.446C168.297 87.4943 168.563 87.5952 168.819 87.7486C169.077 87.902 169.292 88.1335 169.462 88.4432C169.632 88.7528 169.718 89.1676 169.718 89.6875V94H168.712V93.1136H168.661C168.593 93.2557 168.479 93.4077 168.32 93.5696C168.161 93.7315 167.949 93.8693 167.685 93.983C167.421 94.0966 167.098 94.1534 166.718 94.1534ZM166.871 93.25C167.269 93.25 167.604 93.1719 167.877 93.0156C168.152 92.8594 168.36 92.6577 168.499 92.4105C168.641 92.1634 168.712 91.9034 168.712 91.6307V90.7102C168.669 90.7614 168.576 90.8082 168.431 90.8509C168.289 90.8906 168.124 90.9261 167.936 90.9574C167.752 90.9858 167.571 91.0114 167.395 91.0341C167.222 91.054 167.081 91.071 166.973 91.0852C166.712 91.1193 166.468 91.1747 166.24 91.2514C166.016 91.3253 165.834 91.4375 165.695 91.5881C165.559 91.7358 165.49 91.9375 165.49 92.1932C165.49 92.5426 165.62 92.8068 165.878 92.9858C166.14 93.1619 166.471 93.25 166.871 93.25ZM172.559 85.2727V94H171.553V85.2727H172.559ZM178.526 91.3239V87.4545H179.532V94H178.526V92.892H178.458C178.304 93.2244 178.066 93.5071 177.742 93.7401C177.418 93.9702 177.009 94.0852 176.515 94.0852C176.105 94.0852 175.742 93.9957 175.424 93.8168C175.105 93.6349 174.855 93.3622 174.674 92.9986C174.492 92.6321 174.401 92.1705 174.401 91.6136V87.4545H175.407V91.5455C175.407 92.0227 175.54 92.4034 175.807 92.6875C176.077 92.9716 176.421 93.1136 176.838 93.1136C177.088 93.1136 177.343 93.0497 177.601 92.9219C177.863 92.794 178.081 92.598 178.257 92.3338C178.436 92.0696 178.526 91.733 178.526 91.3239ZM184.118 94.1364C183.487 94.1364 182.943 93.9972 182.486 93.7188C182.031 93.4375 181.68 93.0455 181.433 92.5426C181.189 92.0369 181.067 91.4489 181.067 90.7784C181.067 90.108 181.189 89.517 181.433 89.0057C181.68 88.4915 182.024 88.0909 182.464 87.804C182.908 87.5142 183.425 87.3693 184.016 87.3693C184.357 87.3693 184.693 87.4261 185.026 87.5398C185.358 87.6534 185.661 87.8381 185.933 88.0938C186.206 88.3466 186.423 88.6818 186.585 89.0994C186.747 89.517 186.828 90.0312 186.828 90.642V91.0682H181.783V90.1989H185.805C185.805 89.8295 185.732 89.5 185.584 89.2102C185.439 88.9205 185.232 88.6918 184.962 88.5241C184.695 88.3565 184.379 88.2727 184.016 88.2727C183.615 88.2727 183.268 88.3722 182.976 88.571C182.686 88.767 182.463 89.0227 182.307 89.3381C182.151 89.6534 182.072 89.9915 182.072 90.3523V90.9318C182.072 91.4261 182.158 91.8452 182.328 92.1889C182.501 92.5298 182.741 92.7898 183.048 92.9688C183.355 93.1449 183.712 93.233 184.118 93.233C184.382 93.233 184.621 93.196 184.834 93.1222C185.05 93.0455 185.236 92.9318 185.392 92.7812C185.548 92.6278 185.669 92.4375 185.754 92.2102L186.726 92.483C186.624 92.8125 186.452 93.1023 186.21 93.3523C185.969 93.5994 185.67 93.7926 185.315 93.9318C184.96 94.0682 184.561 94.1364 184.118 94.1364Z" fill="#EE0505"/>
<mask id="path-8-inside-1_11653_104292" fill="white">
<path d="M0.5 36C0.5 33.7909 2.29086 32 4.5 32H40.5V72H4.5C2.29086 72 0.5 70.2091 0.5 68V36Z"/>
</mask>
<path d="M0.5 36C0.5 33.7909 2.29086 32 4.5 32H40.5V72H4.5C2.29086 72 0.5 70.2091 0.5 68V36Z" fill="white"/>
<path d="M28.5001 52.38H12.5001C12.2926 52.38 12.1201 52.2102 12.1201 52C12.1201 51.7861 12.2863 51.62 12.5001 51.62H28.5001C28.7077 51.62 28.8801 51.7898 28.8801 52C28.8801 52.2139 28.714 52.38 28.5001 52.38Z" fill="#0F67F5" stroke="#757575"/>
<path d="M-0.5 36C-0.5 33.2386 1.73858 31 4.5 31H40.5V33H4.5C2.84315 33 1.5 34.3431 1.5 36H-0.5ZM40.5 73H4.5C1.73858 73 -0.5 70.7614 -0.5 68H1.5C1.5 69.6569 2.84315 71 4.5 71H40.5V73ZM4.5 73C1.73858 73 -0.5 70.7614 -0.5 68V36C-0.5 33.2386 1.73858 31 4.5 31V33C2.84315 33 1.5 34.3431 1.5 36V68C1.5 69.6569 2.84315 71 4.5 71V73ZM40.5 32V72V32Z" fill="#545454" mask="url(#path-8-inside-1_11653_104292)"/>
<mask id="path-11-inside-2_11653_104292" fill="white">
<path d="M104.5 32H140.5C142.709 32 144.5 33.7909 144.5 36V68C144.5 70.2091 142.709 72 140.5 72H104.5V32Z"/>
</mask>
<path d="M104.5 32H140.5C142.709 32 144.5 33.7909 144.5 36V68C144.5 70.2091 142.709 72 140.5 72H104.5V32Z" fill="white"/>
<path d="M124.12 52.88V52.38H123.62H116.5C116.293 52.38 116.12 52.2102 116.12 52C116.12 51.7861 116.286 51.62 116.5 51.62H123.62H124.12V51.12V44C124.12 43.7924 124.29 43.62 124.5 43.62C124.714 43.62 124.88 43.7861 124.88 44V51.12V51.62H125.38H132.5C132.708 51.62 132.88 51.7898 132.88 52C132.88 52.2139 132.714 52.38 132.5 52.38H125.38H124.88V52.88V60C124.88 60.2076 124.71 60.38 124.5 60.38C124.293 60.38 124.12 60.2102 124.12 60V52.88Z" fill="#0F67F5" stroke="#757575"/>
<path d="M104.5 31H140.5C143.261 31 145.5 33.2386 145.5 36H143.5C143.5 34.3431 142.157 33 140.5 33H104.5V31ZM145.5 68C145.5 70.7614 143.261 73 140.5 73H104.5V71H140.5C142.157 71 143.5 69.6569 143.5 68H145.5ZM104.5 72V32V72ZM140.5 31C143.261 31 145.5 33.2386 145.5 36V68C145.5 70.7614 143.261 73 140.5 73V71C142.157 71 143.5 69.6569 143.5 68V36C143.5 34.3431 142.157 33 140.5 33V31Z" fill="#545454" mask="url(#path-11-inside-2_11653_104292)"/>
<defs>
<clipPath id="clip0_11653_104292">
<rect width="16" height="16" fill="white" transform="translate(0.5 80)"/>
</clipPath>
</defs>
</svg>
