<svg width="251" height="48" fill="none" xmlns="http://www.w3.org/2000/svg"><rect x=".5" y=".5" width="250" height="47" rx="3.5" fill="#fff"/><path d="M13.4 30V18.36h7.03v1.25h-5.61v3.94h5.25v1.25h-5.25v3.95h5.7V30h-7.11Zm10.73-5.25V30H22.8v-8.73h1.3v1.37h.1c.21-.45.52-.8.94-1.07.42-.27.96-.41 1.61-.41.6 0 1.11.12 1.56.36.44.24.78.6 1.03 1.1.25.48.37 1.1.37 1.83V30h-1.34v-5.45c0-.69-.18-1.22-.54-1.6a1.9 1.9 0 0 0-1.46-.59c-.43 0-.81.1-1.15.28a2 2 0 0 0-.79.81c-.2.36-.29.8-.29 1.3Zm11.81-3.48v1.14h-4.52v-1.14h4.52Zm-3.2-2.09h1.34v8.32c0 .38.06.66.17.85.1.19.25.31.43.38.18.06.36.09.56.09.15 0 .27 0 .36-.02l.23-.05.27 1.2a2.73 2.73 0 0 1-1 .16 2.7 2.7 0 0 1-1.11-.24 2.21 2.21 0 0 1-.9-.75 2.14 2.14 0 0 1-.35-1.26v-8.68Zm8.79 11a3.74 3.74 0 0 1-3.58-2.13 5.35 5.35 0 0 1-.5-2.35c0-.89.17-1.68.5-2.36a3.7 3.7 0 0 1 3.44-2.18c.46 0 .9.07 1.35.23a3.34 3.34 0 0 1 2.08 2.08c.21.55.32 1.24.32 2.05v.57h-6.73v-1.16h5.37c0-.5-.1-.93-.3-1.32a2.23 2.23 0 0 0-2.09-1.25 2.47 2.47 0 0 0-2.28 1.42 3 3 0 0 0-.31 1.36v.77c0 .66.11 1.22.34 1.68.23.45.55.8.96 1.04.41.23.89.35 1.43.35.35 0 .67-.05.95-.15.29-.1.54-.25.75-.45.2-.2.37-.46.48-.77l1.3.37a2.9 2.9 0 0 1-.7 1.16c-.32.33-.71.58-1.19.77-.47.18-1 .27-1.6.27Zm5.65-.18v-8.73h1.3v1.32h.09c.16-.43.44-.78.86-1.05s.89-.4 1.41-.4a15.24 15.24 0 0 1 .7.02v1.36a4 4 0 0 0-.81-.09c-.43 0-.8.1-1.14.27a1.96 1.96 0 0 0-1.07 1.78V30h-1.34Zm11.32 3.27a2.94 2.94 0 0 1-.98-.16l.34-1.18c.33.09.61.12.86.1.25-.03.48-.14.67-.34.2-.2.38-.52.54-.96l.25-.68-3.23-8.78h1.46l2.4 6.96h.1l2.4-6.96h1.46l-3.7 10c-.17.45-.38.83-.62 1.12-.25.3-.54.52-.86.67-.32.14-.69.21-1.1.21Zm11.27-3.09a3.8 3.8 0 0 1-2.07-.56c-.6-.38-1.05-.9-1.39-1.57a5.32 5.32 0 0 1-.5-2.37c0-.9.17-1.7.5-2.38.34-.68.8-1.2 1.39-1.58a3.8 3.8 0 0 1 2.07-.56c.8 0 1.48.19 2.07.56.6.38 1.06.9 1.39 1.58.33.68.5 1.47.5 2.38 0 .9-.17 1.7-.5 2.37a3.8 3.8 0 0 1-1.39 1.57c-.59.37-1.28.56-2.07.56Zm0-1.2c.6 0 1.1-.16 1.48-.46.39-.31.67-.71.86-1.21a4.77 4.77 0 0 0 0-3.26c-.19-.5-.47-.91-.86-1.22a2.28 2.28 0 0 0-1.48-.47c-.6 0-1.09.16-1.47.47-.4.31-.68.72-.86 1.22a4.77 4.77 0 0 0 0 3.26c.18.5.47.9.86 1.2.38.31.87.47 1.47.47Zm11.5-2.55v-5.16h1.35V30h-1.35v-1.48h-.09a2.74 2.74 0 0 1-2.59 1.59 3 3 0 0 1-1.45-.35 2.5 2.5 0 0 1-1-1.1 4.14 4.14 0 0 1-.37-1.84v-5.55h1.35v5.46c0 .63.17 1.14.53 1.52.36.38.82.57 1.37.57a2.28 2.28 0 0 0 2.25-2.39Zm3.8 3.57v-8.73h1.3v1.32h.09c.16-.43.44-.78.86-1.05s.89-.4 1.41-.4a15.24 15.24 0 0 1 .7.02v1.36a4.02 4.02 0 0 0-.81-.09c-.43 0-.8.1-1.14.27a1.96 1.96 0 0 0-1.07 1.78V30h-1.34Zm10.45 3.27v-12h1.3v1.39h.16l.4-.58c.19-.24.44-.45.77-.64s.78-.28 1.35-.28a3.47 3.47 0 0 1 3.26 2.11c.31.68.47 1.47.47 2.39 0 .92-.16 1.72-.47 2.4a3.42 3.42 0 0 1-3.23 2.12c-.57 0-1.02-.1-1.35-.28a2.5 2.5 0 0 1-.78-.64 8.62 8.62 0 0 1-.42-.6h-.11v4.61h-1.35Zm1.32-7.63c0 .66.1 1.24.3 1.74.19.5.47.9.84 1.18.37.28.82.42 1.36.42a2.2 2.2 0 0 0 1.4-.45c.39-.3.67-.7.86-1.2.2-.5.29-1.07.29-1.7 0-.6-.1-1.16-.29-1.65-.18-.5-.46-.9-.84-1.18a2.2 2.2 0 0 0-1.42-.44 2.24 2.24 0 0 0-2.21 1.57 4.72 4.72 0 0 0-.29 1.7Zm11 4.56c-.55 0-1.05-.1-1.5-.3a2.7 2.7 0 0 1-1.08-.92c-.26-.4-.4-.89-.4-1.46 0-.5.1-.9.3-1.21.2-.32.46-.56.79-.74.33-.18.7-.31 1.1-.4.4-.1.8-.16 1.2-.22l1.3-.15c.33-.04.57-.1.72-.19.15-.08.23-.23.23-.45v-.05c0-.56-.15-1-.46-1.3-.3-.31-.76-.47-1.38-.47a2.39 2.39 0 0 0-2.27 1.32l-1.28-.46a3 3 0 0 1 .91-1.23c.39-.3.8-.51 1.25-.63a5.2 5.2 0 0 1 2.31-.08c.37.07.72.2 1.06.4.35.2.63.52.86.93.23.41.34.97.34 1.66V30h-1.34v-1.18h-.07a2.63 2.63 0 0 1-1.3 1.16c-.35.15-.78.22-1.29.22Zm.2-1.2c.54 0 .98-.1 1.35-.31a2.12 2.12 0 0 0 1.11-1.85v-1.23a.93.93 0 0 1-.37.2c-.2.04-.41.1-.66.13a29.56 29.56 0 0 1-1.29.17c-.35.05-.67.12-.97.23-.3.1-.55.24-.73.44-.18.2-.27.47-.27.81 0 .47.17.82.51 1.06.35.23.8.35 1.33.35Zm12.43-5.77-1.2.34c-.08-.2-.19-.4-.34-.59a1.56 1.56 0 0 0-.59-.47 2.15 2.15 0 0 0-.96-.2c-.53 0-.98.13-1.33.38-.36.24-.53.55-.53.92 0 .34.12.6.36.8.24.19.62.35 1.14.48l1.3.31c.77.2 1.35.48 1.74.87.38.39.57.89.57 1.5 0 .5-.14.95-.43 1.34-.28.4-.68.7-1.2.93-.5.23-1.1.34-1.78.34a3.9 3.9 0 0 1-2.2-.58 2.57 2.57 0 0 1-1.12-1.7l1.28-.3c.12.46.35.81.68 1.05.34.23.79.35 1.34.35a2.5 2.5 0 0 0 1.49-.4c.37-.27.55-.59.55-.96 0-.3-.1-.56-.31-.77-.22-.2-.54-.36-.98-.46l-1.46-.34a3.47 3.47 0 0 1-1.76-.88c-.37-.4-.55-.9-.55-1.5 0-.5.13-.94.41-1.32.28-.37.66-.67 1.14-.89a4 4 0 0 1 1.65-.32c.86 0 1.54.19 2.04.57.5.38.84.88 1.05 1.5Zm8.36 0-1.2.34a2.2 2.2 0 0 0-.34-.59 1.56 1.56 0 0 0-.59-.47 2.15 2.15 0 0 0-.96-.2c-.53 0-.98.13-1.33.38-.36.24-.53.55-.53.92 0 .34.12.6.36.8.24.19.62.35 1.14.48l1.3.31c.77.2 1.35.48 1.74.87.38.39.57.89.57 1.5 0 .5-.14.95-.43 1.34-.29.4-.68.7-1.2.93-.5.23-1.1.34-1.78.34a3.9 3.9 0 0 1-2.2-.58 2.57 2.57 0 0 1-1.12-1.7l1.28-.3c.12.46.35.81.68 1.05.34.23.79.35 1.34.35a2.5 2.5 0 0 0 1.49-.4c.37-.27.55-.59.55-.96 0-.3-.1-.56-.31-.77-.22-.2-.54-.36-.98-.46l-1.46-.34a3.47 3.47 0 0 1-1.76-.88c-.37-.4-.55-.9-.55-1.5 0-.5.13-.94.41-1.32.28-.37.66-.67 1.14-.89a4 4 0 0 1 1.65-.32c.86 0 1.54.19 2.03.57.5.38.85.88 1.06 1.5ZM133 30l-2.66-8.73h1.4l1.9 6.68h.08l1.87-6.68H137l1.84 6.66h.09l1.89-6.66h1.4L139.59 30h-1.32l-1.91-6.7h-.14l-1.9 6.7H133Zm14.27.18a3.8 3.8 0 0 1-2.08-.56 3.84 3.84 0 0 1-1.38-1.57 5.32 5.32 0 0 1-.5-2.37c0-.9.17-1.7.5-2.38.33-.68.8-1.2 1.38-1.58a3.8 3.8 0 0 1 2.08-.56c.78 0 1.47.19 2.06.56.6.38 1.06.9 1.4 1.58.32.68.5 1.47.5 2.38 0 .9-.18 1.7-.5 2.37a3.78 3.78 0 0 1-3.45 2.14Zm0-1.2c.6 0 1.09-.16 1.47-.46.4-.31.68-.71.86-1.21a4.8 4.8 0 0 0 0-3.26 2.7 2.7 0 0 0-.86-1.22 2.28 2.28 0 0 0-1.47-.47c-.6 0-1.1.16-1.48.47-.39.31-.67.72-.86 1.22a4.8 4.8 0 0 0 0 3.26c.19.5.47.9.86 1.2.39.31.88.47 1.48.47Zm6 1.02v-8.73h1.3v1.32h.09c.15-.43.44-.78.86-1.05s.89-.4 1.4-.4a15.28 15.28 0 0 1 .71.02v1.36a3.93 3.93 0 0 0-.82-.09c-.42 0-.8.1-1.13.27a1.96 1.96 0 0 0-1.07 1.78V30h-1.34Zm8.98.18a3.42 3.42 0 0 1-3.23-2.12 5.66 5.66 0 0 1-.47-2.4c0-.92.15-1.71.47-2.39a3.46 3.46 0 0 1 3.26-2.11c.56 0 1.01.1 1.34.28.33.19.59.4.76.64.18.23.32.43.42.58h.11v-4.3h1.34V30h-1.3v-1.34h-.15l-.42.6c-.19.24-.44.45-.78.64a2.8 2.8 0 0 1-1.35.28Zm.18-1.2c.54 0 1-.14 1.37-.42.37-.29.65-.68.84-1.18.2-.5.3-1.08.3-1.74 0-.66-.1-1.23-.3-1.71-.18-.5-.46-.88-.83-1.15a2.24 2.24 0 0 0-1.38-.42c-.56 0-1.04.15-1.42.44-.37.29-.65.68-.84 1.18a5.03 5.03 0 0 0 0 3.35c.2.5.48.9.85 1.2.38.3.85.45 1.41.45Zm66.16.79c-6.25 0-8.93-5.2-9.04-5.42a.77.77 0 0 1 0-.7c.11-.23 2.79-5.43 9.04-5.43 6.25 0 8.92 5.22 9.03 5.44.12.23.12.48 0 .7-.1.23-2.78 5.44-9.03 5.44v-.03ZM221.15 24a8.77 8.77 0 0 0 7.44 4.21 8.74 8.74 0 0 0 7.43-4.22 8.77 8.77 0 0 0-7.43-4.23c-4.45 0-6.78 3.18-7.44 4.24Z" fill="#757575"/><path d="M228.59 27.27a3.28 3.28 0 1 1 0-6.55 3.28 3.28 0 0 1 0 6.55Zm0-5a1.73 1.73 0 0 0 0 3.45 1.73 1.73 0 0 0 0-3.45Z" fill="#757575"/><rect x=".5" y=".5" width="250" height="47" rx="3.5" stroke="#545454"/></svg>