<svg width="251" height="69" viewBox="0 0 251 69" fill="none" xmlns="http://www.w3.org/2000/svg">
<rect x="0.5" y="23.5" width="250" height="39" rx="3.5" fill="white"/>
<path d="M13.4091 49V37.3636H20.4318V38.6136H14.8182V42.5455H20.0682V43.7955H14.8182V47.75H20.5227V49H13.4091ZM24.1307 43.75V49H22.7898V40.2727H24.0852V41.6364H24.1989C24.4034 41.1932 24.714 40.8371 25.1307 40.5682C25.5473 40.2955 26.0852 40.1591 26.7443 40.1591C27.3352 40.1591 27.8523 40.2803 28.2955 40.5227C28.7386 40.7614 29.0833 41.125 29.3295 41.6136C29.5758 42.0985 29.6989 42.7121 29.6989 43.4545V49H28.358V43.5455C28.358 42.8598 28.1799 42.3258 27.8239 41.9432C27.4678 41.5568 26.9792 41.3636 26.358 41.3636C25.9299 41.3636 25.5473 41.4564 25.2102 41.642C24.8769 41.8277 24.6136 42.0985 24.4205 42.4545C24.2273 42.8106 24.1307 43.2424 24.1307 43.75ZM35.9446 40.2727V41.4091H31.4219V40.2727H35.9446ZM32.7401 38.1818H34.081V46.5C34.081 46.8788 34.1359 47.1629 34.2457 47.3523C34.3594 47.5379 34.5033 47.6629 34.6776 47.7273C34.8556 47.7879 35.0431 47.8182 35.2401 47.8182C35.3878 47.8182 35.509 47.8106 35.6037 47.7955C35.6984 47.7765 35.7741 47.7614 35.831 47.75L36.1037 48.9545C36.0128 48.9886 35.8859 49.0227 35.723 49.0568C35.5601 49.0947 35.3537 49.1136 35.1037 49.1136C34.7249 49.1136 34.3537 49.0322 33.9901 48.8693C33.6302 48.7064 33.331 48.4583 33.0923 48.125C32.8575 47.7917 32.7401 47.3712 32.7401 46.8636V38.1818ZM41.527 49.1818C40.6861 49.1818 39.9607 48.9962 39.3509 48.625C38.7448 48.25 38.277 47.7273 37.9474 47.0568C37.6217 46.3826 37.4588 45.5985 37.4588 44.7045C37.4588 43.8106 37.6217 43.0227 37.9474 42.3409C38.277 41.6553 38.7353 41.1212 39.3224 40.7386C39.9134 40.3523 40.6027 40.1591 41.3906 40.1591C41.8452 40.1591 42.294 40.2348 42.7372 40.3864C43.1804 40.5379 43.5838 40.7841 43.9474 41.125C44.3111 41.4621 44.6009 41.9091 44.8168 42.4659C45.0327 43.0227 45.1406 43.7083 45.1406 44.5227V45.0909H38.4134V43.9318H43.777C43.777 43.4394 43.6785 43 43.4815 42.6136C43.2884 42.2273 43.0118 41.9223 42.652 41.6989C42.2959 41.4754 41.8755 41.3636 41.3906 41.3636C40.8565 41.3636 40.3944 41.4962 40.0043 41.7614C39.6179 42.0227 39.3205 42.3636 39.1122 42.7841C38.9039 43.2045 38.7997 43.6553 38.7997 44.1364V44.9091C38.7997 45.5682 38.9134 46.1269 39.1406 46.5852C39.3717 47.0398 39.6918 47.3864 40.1009 47.625C40.5099 47.8598 40.9853 47.9773 41.527 47.9773C41.8793 47.9773 42.1974 47.928 42.4815 47.8295C42.7694 47.7273 43.0175 47.5758 43.2259 47.375C43.4342 47.1705 43.5952 46.9167 43.7088 46.6136L45.0043 46.9773C44.8679 47.4167 44.6387 47.803 44.3168 48.1364C43.9948 48.4659 43.5971 48.7235 43.1236 48.9091C42.6501 49.0909 42.1179 49.1818 41.527 49.1818ZM47.1804 49V40.2727H48.4759V41.5909H48.5668C48.7259 41.1591 49.0137 40.8087 49.4304 40.5398C49.8471 40.2708 50.3168 40.1364 50.8395 40.1364C50.938 40.1364 51.0611 40.1383 51.2088 40.142C51.3565 40.1458 51.4683 40.1515 51.544 40.1591V41.5227C51.4986 41.5114 51.3944 41.4943 51.2315 41.4716C51.0724 41.4451 50.9039 41.4318 50.7259 41.4318C50.3016 41.4318 49.9228 41.5208 49.5895 41.6989C49.2599 41.8731 48.9986 42.1155 48.8054 42.4261C48.616 42.733 48.5213 43.0833 48.5213 43.4773V49H47.1804ZM58.4972 52.2727C58.2699 52.2727 58.0672 52.2538 57.8892 52.2159C57.7112 52.1818 57.5881 52.1477 57.5199 52.1136L57.8608 50.9318C58.1866 51.0152 58.4744 51.0455 58.7244 51.0227C58.9744 51 59.196 50.8883 59.3892 50.6875C59.5862 50.4905 59.7661 50.1705 59.929 49.7273L60.179 49.0455L56.9517 40.2727H58.4062L60.8153 47.2273H60.9062L63.3153 40.2727H64.7699L61.0653 50.2727C60.8987 50.7235 60.6922 51.0966 60.446 51.392C60.1998 51.6913 59.9138 51.9129 59.5881 52.0568C59.2661 52.2008 58.9025 52.2727 58.4972 52.2727ZM69.7727 49.1818C68.9848 49.1818 68.2936 48.9943 67.6989 48.6193C67.108 48.2443 66.6458 47.7197 66.3125 47.0455C65.983 46.3712 65.8182 45.5833 65.8182 44.6818C65.8182 43.7727 65.983 42.9792 66.3125 42.3011C66.6458 41.6231 67.108 41.0966 67.6989 40.7216C68.2936 40.3466 68.9848 40.1591 69.7727 40.1591C70.5606 40.1591 71.25 40.3466 71.8409 40.7216C72.4356 41.0966 72.8977 41.6231 73.2273 42.3011C73.5606 42.9792 73.7273 43.7727 73.7273 44.6818C73.7273 45.5833 73.5606 46.3712 73.2273 47.0455C72.8977 47.7197 72.4356 48.2443 71.8409 48.6193C71.25 48.9943 70.5606 49.1818 69.7727 49.1818ZM69.7727 47.9773C70.3712 47.9773 70.8636 47.8239 71.25 47.517C71.6364 47.2102 71.9223 46.8068 72.108 46.3068C72.2936 45.8068 72.3864 45.2652 72.3864 44.6818C72.3864 44.0985 72.2936 43.5549 72.108 43.0511C71.9223 42.5473 71.6364 42.1402 71.25 41.8295C70.8636 41.5189 70.3712 41.3636 69.7727 41.3636C69.1742 41.3636 68.6818 41.5189 68.2955 41.8295C67.9091 42.1402 67.6231 42.5473 67.4375 43.0511C67.2519 43.5549 67.1591 44.0985 67.1591 44.6818C67.1591 45.2652 67.2519 45.8068 67.4375 46.3068C67.6231 46.8068 67.9091 47.2102 68.2955 47.517C68.6818 47.8239 69.1742 47.9773 69.7727 47.9773ZM81.2741 45.4318V40.2727H82.6151V49H81.2741V47.5227H81.1832C80.9787 47.9659 80.6605 48.3428 80.2287 48.6534C79.7969 48.9602 79.2514 49.1136 78.5923 49.1136C78.0469 49.1136 77.562 48.9943 77.1378 48.7557C76.7135 48.5133 76.3802 48.1496 76.1378 47.6648C75.8954 47.1761 75.7741 46.5606 75.7741 45.8182V40.2727H77.1151V45.7273C77.1151 46.3636 77.2931 46.8712 77.6491 47.25C78.009 47.6288 78.4673 47.8182 79.0241 47.8182C79.3575 47.8182 79.6965 47.733 80.0412 47.5625C80.3897 47.392 80.6813 47.1307 80.9162 46.7784C81.1548 46.4261 81.2741 45.9773 81.2741 45.4318ZM85.071 49V40.2727H86.3665V41.5909H86.4574C86.6165 41.1591 86.9044 40.8087 87.321 40.5398C87.7377 40.2708 88.2074 40.1364 88.7301 40.1364C88.8286 40.1364 88.9517 40.1383 89.0994 40.142C89.2472 40.1458 89.3589 40.1515 89.4347 40.1591V41.5227C89.3892 41.5114 89.285 41.4943 89.1222 41.4716C88.9631 41.4451 88.7945 41.4318 88.6165 41.4318C88.1922 41.4318 87.8134 41.5208 87.4801 41.6989C87.1506 41.8731 86.8892 42.1155 86.696 42.4261C86.5066 42.733 86.4119 43.0833 86.4119 43.4773V49H85.071ZM95.5241 52.2727V40.2727H96.8196V41.6591H96.9787C97.0772 41.5076 97.2135 41.3144 97.3878 41.0795C97.5658 40.8409 97.8196 40.6288 98.1491 40.4432C98.4825 40.2538 98.9332 40.1591 99.5014 40.1591C100.236 40.1591 100.884 40.3428 101.445 40.7102C102.005 41.0777 102.443 41.5985 102.757 42.2727C103.071 42.947 103.229 43.7424 103.229 44.6591C103.229 45.5833 103.071 46.3845 102.757 47.0625C102.443 47.7367 102.007 48.2595 101.45 48.6307C100.893 48.9981 100.251 49.1818 99.5241 49.1818C98.9635 49.1818 98.5147 49.089 98.1776 48.9034C97.8404 48.714 97.581 48.5 97.3991 48.2614C97.2173 48.0189 97.0772 47.8182 96.9787 47.6591H96.8651V52.2727H95.5241ZM96.8423 44.6364C96.8423 45.2955 96.9389 45.8769 97.1321 46.3807C97.3253 46.8807 97.6075 47.2727 97.9787 47.5568C98.3499 47.8371 98.8045 47.9773 99.3423 47.9773C99.9029 47.9773 100.371 47.8295 100.746 47.5341C101.125 47.2348 101.409 46.8333 101.598 46.3295C101.791 45.822 101.888 45.2576 101.888 44.6364C101.888 44.0227 101.793 43.4697 101.604 42.9773C101.418 42.4811 101.136 42.089 100.757 41.8011C100.382 41.5095 99.9105 41.3636 99.3423 41.3636C98.7969 41.3636 98.3385 41.5019 97.9673 41.7784C97.5961 42.0511 97.3158 42.4337 97.1264 42.9261C96.937 43.4148 96.8423 43.9848 96.8423 44.6364ZM107.842 49.2045C107.289 49.2045 106.787 49.1004 106.337 48.892C105.886 48.6799 105.528 48.375 105.263 47.9773C104.998 47.5758 104.865 47.0909 104.865 46.5227C104.865 46.0227 104.964 45.6174 105.161 45.3068C105.357 44.9924 105.621 44.7462 105.95 44.5682C106.28 44.3902 106.643 44.2576 107.041 44.1705C107.443 44.0795 107.846 44.0076 108.251 43.9545C108.782 43.8864 109.212 43.8352 109.541 43.8011C109.875 43.7633 110.117 43.7008 110.268 43.6136C110.424 43.5265 110.501 43.375 110.501 43.1591V43.1136C110.501 42.553 110.348 42.1174 110.041 41.8068C109.738 41.4962 109.278 41.3409 108.661 41.3409C108.02 41.3409 107.518 41.4811 107.155 41.7614C106.791 42.0417 106.536 42.3409 106.388 42.6591L105.115 42.2045C105.342 41.6742 105.645 41.2614 106.024 40.9659C106.407 40.6667 106.823 40.4583 107.274 40.3409C107.729 40.2197 108.176 40.1591 108.615 40.1591C108.895 40.1591 109.217 40.1932 109.581 40.2614C109.948 40.3258 110.303 40.4602 110.643 40.6648C110.988 40.8693 111.274 41.178 111.501 41.5909C111.729 42.0038 111.842 42.5568 111.842 43.25V49H110.501V47.8182H110.433C110.342 48.0076 110.191 48.2102 109.979 48.4261C109.767 48.642 109.484 48.8258 109.132 48.9773C108.78 49.1288 108.35 49.2045 107.842 49.2045ZM108.047 48C108.577 48 109.024 47.8958 109.388 47.6875C109.755 47.4792 110.032 47.2102 110.217 46.8807C110.407 46.5511 110.501 46.2045 110.501 45.8409V44.6136C110.445 44.6818 110.32 44.7443 110.126 44.8011C109.937 44.8542 109.717 44.9015 109.467 44.9432C109.221 44.9811 108.981 45.0152 108.746 45.0455C108.515 45.072 108.327 45.0947 108.183 45.1136C107.835 45.1591 107.509 45.233 107.206 45.3352C106.907 45.4337 106.664 45.5833 106.479 45.7841C106.297 45.9811 106.206 46.25 106.206 46.5909C106.206 47.0568 106.378 47.4091 106.723 47.6477C107.071 47.8826 107.513 48 108.047 48ZM120.472 42.2273L119.267 42.5682C119.191 42.3674 119.08 42.1723 118.932 41.983C118.788 41.7898 118.591 41.6307 118.341 41.5057C118.091 41.3807 117.771 41.3182 117.381 41.3182C116.847 41.3182 116.402 41.4413 116.045 41.6875C115.693 41.9299 115.517 42.2386 115.517 42.6136C115.517 42.947 115.638 43.2102 115.881 43.4034C116.123 43.5966 116.502 43.7576 117.017 43.8864L118.312 44.2045C119.093 44.3939 119.674 44.6837 120.057 45.0739C120.439 45.4602 120.631 45.9583 120.631 46.5682C120.631 47.0682 120.487 47.5152 120.199 47.9091C119.915 48.303 119.517 48.6136 119.006 48.8409C118.494 49.0682 117.9 49.1818 117.222 49.1818C116.331 49.1818 115.595 48.9886 115.011 48.6023C114.428 48.2159 114.059 47.6515 113.903 46.9091L115.176 46.5909C115.297 47.0606 115.527 47.4129 115.864 47.6477C116.205 47.8826 116.65 48 117.199 48C117.824 48 118.32 47.8674 118.688 47.6023C119.059 47.3333 119.244 47.0114 119.244 46.6364C119.244 46.3333 119.138 46.0795 118.926 45.875C118.714 45.6667 118.388 45.5114 117.949 45.4091L116.494 45.0682C115.695 44.8788 115.108 44.5852 114.733 44.1875C114.362 43.786 114.176 43.2841 114.176 42.6818C114.176 42.1894 114.314 41.7538 114.591 41.375C114.871 40.9962 115.252 40.6989 115.733 40.483C116.218 40.267 116.767 40.1591 117.381 40.1591C118.244 40.1591 118.922 40.3485 119.415 40.7273C119.911 41.1061 120.263 41.6061 120.472 42.2273ZM128.831 42.2273L127.626 42.5682C127.551 42.3674 127.439 42.1723 127.291 41.983C127.147 41.7898 126.95 41.6307 126.7 41.5057C126.45 41.3807 126.13 41.3182 125.74 41.3182C125.206 41.3182 124.761 41.4413 124.405 41.6875C124.053 41.9299 123.876 42.2386 123.876 42.6136C123.876 42.947 123.998 43.2102 124.24 43.4034C124.482 43.5966 124.861 43.7576 125.376 43.8864L126.672 44.2045C127.452 44.3939 128.034 44.6837 128.416 45.0739C128.799 45.4602 128.99 45.9583 128.99 46.5682C128.99 47.0682 128.846 47.5152 128.558 47.9091C128.274 48.303 127.876 48.6136 127.365 48.8409C126.854 49.0682 126.259 49.1818 125.581 49.1818C124.691 49.1818 123.954 48.9886 123.371 48.6023C122.787 48.2159 122.418 47.6515 122.263 46.9091L123.536 46.5909C123.657 47.0606 123.886 47.4129 124.223 47.6477C124.564 47.8826 125.009 48 125.558 48C126.183 48 126.679 47.8674 127.047 47.6023C127.418 47.3333 127.604 47.0114 127.604 46.6364C127.604 46.3333 127.498 46.0795 127.286 45.875C127.073 45.6667 126.748 45.5114 126.308 45.4091L124.854 45.0682C124.054 44.8788 123.467 44.5852 123.092 44.1875C122.721 43.786 122.536 43.2841 122.536 42.6818C122.536 42.1894 122.674 41.7538 122.95 41.375C123.231 40.9962 123.611 40.6989 124.092 40.483C124.577 40.267 125.126 40.1591 125.74 40.1591C126.604 40.1591 127.282 40.3485 127.774 40.7273C128.27 41.1061 128.623 41.6061 128.831 42.2273ZM132.986 49L130.327 40.2727H131.736L133.622 46.9545H133.713L135.577 40.2727H137.009L138.849 46.9318H138.94L140.827 40.2727H142.236L139.577 49H138.259L136.349 42.2955H136.213L134.304 49H132.986ZM147.257 49.1818C146.469 49.1818 145.778 48.9943 145.183 48.6193C144.592 48.2443 144.13 47.7197 143.797 47.0455C143.467 46.3712 143.303 45.5833 143.303 44.6818C143.303 43.7727 143.467 42.9792 143.797 42.3011C144.13 41.6231 144.592 41.0966 145.183 40.7216C145.778 40.3466 146.469 40.1591 147.257 40.1591C148.045 40.1591 148.734 40.3466 149.325 40.7216C149.92 41.0966 150.382 41.6231 150.712 42.3011C151.045 42.9792 151.212 43.7727 151.212 44.6818C151.212 45.5833 151.045 46.3712 150.712 47.0455C150.382 47.7197 149.92 48.2443 149.325 48.6193C148.734 48.9943 148.045 49.1818 147.257 49.1818ZM147.257 47.9773C147.856 47.9773 148.348 47.8239 148.734 47.517C149.121 47.2102 149.407 46.8068 149.592 46.3068C149.778 45.8068 149.871 45.2652 149.871 44.6818C149.871 44.0985 149.778 43.5549 149.592 43.0511C149.407 42.5473 149.121 42.1402 148.734 41.8295C148.348 41.5189 147.856 41.3636 147.257 41.3636C146.659 41.3636 146.166 41.5189 145.78 41.8295C145.393 42.1402 145.107 42.5473 144.922 43.0511C144.736 43.5549 144.643 44.0985 144.643 44.6818C144.643 45.2652 144.736 45.8068 144.922 46.3068C145.107 46.8068 145.393 47.2102 145.78 47.517C146.166 47.8239 146.659 47.9773 147.257 47.9773ZM153.259 49V40.2727H154.554V41.5909H154.645C154.804 41.1591 155.092 40.8087 155.509 40.5398C155.925 40.2708 156.395 40.1364 156.918 40.1364C157.016 40.1364 157.139 40.1383 157.287 40.142C157.435 40.1458 157.546 40.1515 157.622 40.1591V41.5227C157.577 41.5114 157.473 41.4943 157.31 41.4716C157.151 41.4451 156.982 41.4318 156.804 41.4318C156.38 41.4318 156.001 41.5208 155.668 41.6989C155.338 41.8731 155.077 42.1155 154.884 42.4261C154.694 42.733 154.599 43.0833 154.599 43.4773V49H153.259ZM162.241 49.1818C161.514 49.1818 160.872 48.9981 160.315 48.6307C159.759 48.2595 159.323 47.7367 159.009 47.0625C158.694 46.3845 158.537 45.5833 158.537 44.6591C158.537 43.7424 158.694 42.947 159.009 42.2727C159.323 41.5985 159.76 41.0777 160.321 40.7102C160.882 40.3428 161.529 40.1591 162.264 40.1591C162.832 40.1591 163.281 40.2538 163.611 40.4432C163.944 40.6288 164.198 40.8409 164.372 41.0795C164.55 41.3144 164.688 41.5076 164.787 41.6591H164.901V37.3636H166.241V49H164.946V47.6591H164.787C164.688 47.8182 164.548 48.0189 164.366 48.2614C164.185 48.5 163.925 48.714 163.588 48.9034C163.251 49.089 162.802 49.1818 162.241 49.1818ZM162.423 47.9773C162.961 47.9773 163.416 47.8371 163.787 47.5568C164.158 47.2727 164.44 46.8807 164.634 46.3807C164.827 45.8769 164.923 45.2955 164.923 44.6364C164.923 43.9848 164.829 43.4148 164.639 42.9261C164.45 42.4337 164.17 42.0511 163.798 41.7784C163.427 41.5019 162.969 41.3636 162.423 41.3636C161.855 41.3636 161.382 41.5095 161.003 41.8011C160.628 42.089 160.346 42.4811 160.156 42.9773C159.971 43.4697 159.878 44.0227 159.878 44.6364C159.878 45.2576 159.973 45.822 160.162 46.3295C160.355 46.8333 160.639 47.2348 161.014 47.5341C161.393 47.8295 161.863 47.9773 162.423 47.9773Z" fill="#757575"/>
<path d="M228.587 48.7746C222.337 48.7746 219.662 43.5746 219.549 43.3496C219.437 43.1246 219.437 42.8746 219.549 42.6496C219.662 42.4246 222.337 37.2246 228.587 37.2246C234.837 37.2246 237.512 42.4371 237.624 42.6621C237.737 42.8871 237.737 43.1371 237.624 43.3621C237.512 43.5871 234.837 48.7996 228.587 48.7996V48.7746ZM221.149 42.9996C221.812 44.0746 224.137 47.2121 228.587 47.2121C233.037 47.2121 235.362 44.0746 236.024 42.9871C235.362 41.9121 233.037 38.7621 228.587 38.7621C224.137 38.7621 221.812 41.9371 221.149 42.9996Z" fill="#757575"/>
<path d="M228.587 46.2746C226.774 46.2746 225.312 44.7996 225.312 42.9996C225.312 41.1996 226.787 39.7246 228.587 39.7246C230.387 39.7246 231.862 41.1996 231.862 42.9996C231.862 44.7996 230.387 46.2746 228.587 46.2746ZM228.587 41.2746C227.637 41.2746 226.862 42.0496 226.862 42.9996C226.862 43.9496 227.637 44.7246 228.587 44.7246C229.537 44.7246 230.312 43.9496 230.312 42.9996C230.312 42.0496 229.537 41.2746 228.587 41.2746Z" fill="#757575"/>
<rect x="0.5" y="23.5" width="250" height="39" rx="3.5" stroke="#545454"/>
<path d="M1.00426 11V0.818182H4.82244C5.60464 0.818182 6.26089 0.964015 6.79119 1.25568C7.32481 1.54735 7.72751 1.94839 7.99929 2.45881C8.27438 2.96591 8.41193 3.54261 8.41193 4.18892C8.41193 4.84186 8.27438 5.42187 7.99929 5.92898C7.7242 6.43608 7.31818 6.83546 6.78125 7.12713C6.24432 7.41548 5.5831 7.55966 4.79759 7.55966H2.26705V6.04332H4.54901C5.00639 6.04332 5.38092 5.96378 5.67259 5.80469C5.96425 5.6456 6.17969 5.42685 6.31889 5.14844C6.46141 4.87003 6.53267 4.55019 6.53267 4.18892C6.53267 3.82765 6.46141 3.50947 6.31889 3.23438C6.17969 2.95928 5.9626 2.7455 5.66761 2.59304C5.37595 2.43726 4.99976 2.35938 4.53906 2.35938H2.84872V11H1.00426ZM11.9952 11.1541C11.5113 11.1541 11.0755 11.0679 10.6877 10.8956C10.3032 10.7199 9.99828 10.4614 9.7729 10.12C9.55084 9.77865 9.43981 9.35772 9.43981 8.85724C9.43981 8.42637 9.51935 8.07008 9.67844 7.78835C9.83754 7.50663 10.0546 7.28125 10.3297 7.11222C10.6048 6.94318 10.9147 6.81558 11.2594 6.7294C11.6074 6.63991 11.967 6.57528 12.3382 6.53551C12.7857 6.48911 13.1486 6.44768 13.427 6.41122C13.7054 6.37145 13.9076 6.31179 14.0336 6.23224C14.1628 6.14938 14.2275 6.02178 14.2275 5.84943V5.8196C14.2275 5.44508 14.1164 5.15507 13.8944 4.94957C13.6723 4.74408 13.3525 4.64134 12.9348 4.64134C12.494 4.64134 12.1444 4.73745 11.8858 4.92969C11.6306 5.12192 11.4583 5.34896 11.3688 5.6108L9.68839 5.37216C9.82096 4.90814 10.0397 4.52036 10.3446 4.20881C10.6496 3.89394 11.0224 3.65862 11.4632 3.50284C11.9041 3.34375 12.3913 3.2642 12.9249 3.2642C13.2928 3.2642 13.659 3.30729 14.0236 3.39347C14.3882 3.47964 14.7213 3.62216 15.0229 3.82102C15.3245 4.01657 15.5665 4.28338 15.7488 4.62145C15.9344 4.95952 16.0272 5.3821 16.0272 5.8892V11H14.2971V9.95099H14.2374C14.128 10.1631 13.9739 10.362 13.775 10.5476C13.5795 10.7299 13.3326 10.8774 13.0343 10.9901C12.7393 11.0994 12.3929 11.1541 11.9952 11.1541ZM12.4625 9.83168C12.8238 9.83168 13.137 9.76042 13.4022 9.6179C13.6673 9.47206 13.8712 9.27983 14.0137 9.04119C14.1595 8.80256 14.2324 8.54238 14.2324 8.26065V7.3608C14.1761 7.4072 14.08 7.45028 13.9441 7.49006C13.8115 7.52983 13.6623 7.56463 13.4966 7.59446C13.3309 7.62429 13.1668 7.6508 13.0044 7.67401C12.842 7.69721 12.7012 7.71709 12.5819 7.73366C12.3134 7.77012 12.0731 7.82978 11.861 7.91264C11.6489 7.9955 11.4815 8.11151 11.3588 8.26065C11.2362 8.40649 11.1749 8.59541 11.1749 8.82741C11.1749 9.15885 11.2959 9.40909 11.5378 9.57812C11.7798 9.74716 12.088 9.83168 12.4625 9.83168ZM23.8723 5.3821L22.2317 5.56108C22.1853 5.39536 22.1041 5.23958 21.9881 5.09375C21.8754 4.94792 21.723 4.83026 21.5307 4.74077C21.3385 4.65128 21.1032 4.60653 20.8248 4.60653C20.4502 4.60653 20.1354 4.68774 19.8801 4.85014C19.6283 5.01255 19.504 5.22301 19.5073 5.48153C19.504 5.7036 19.5852 5.88423 19.7509 6.02344C19.9199 6.16264 20.1983 6.27699 20.5861 6.36648L21.8887 6.64489C22.6112 6.80066 23.1481 7.04759 23.4995 7.38565C23.8541 7.72372 24.0331 8.16619 24.0364 8.71307C24.0331 9.19366 23.8922 9.6179 23.6138 9.9858C23.3387 10.3504 22.9559 10.6354 22.4654 10.8409C21.9748 11.0464 21.4114 11.1491 20.775 11.1491C19.8404 11.1491 19.088 10.9536 18.5179 10.5625C17.9479 10.1681 17.6081 9.61955 17.4988 8.9169L19.2537 8.74787C19.3333 9.09257 19.5023 9.35275 19.7608 9.52841C20.0194 9.70407 20.3558 9.7919 20.7701 9.7919C21.1976 9.7919 21.5407 9.70407 21.7992 9.52841C22.061 9.35275 22.1919 9.13565 22.1919 8.87713C22.1919 8.65838 22.1074 8.47775 21.9384 8.33523C21.7727 8.19271 21.5141 8.08333 21.1628 8.0071L19.8603 7.73366C19.1278 7.5812 18.5859 7.32434 18.2346 6.96307C17.8832 6.59848 17.7092 6.13778 17.7125 5.58097C17.7092 5.11032 17.8368 4.70265 18.0953 4.35795C18.3572 4.00994 18.7201 3.74148 19.1841 3.55256C19.6515 3.36032 20.19 3.2642 20.7999 3.2642C21.6948 3.2642 22.3991 3.45478 22.9128 3.83594C23.4299 4.21709 23.7497 4.73248 23.8723 5.3821ZM31.5559 5.3821L29.9153 5.56108C29.8689 5.39536 29.7877 5.23958 29.6717 5.09375C29.559 4.94792 29.4065 4.83026 29.2143 4.74077C29.0221 4.65128 28.7868 4.60653 28.5083 4.60653C28.1338 4.60653 27.819 4.68774 27.5637 4.85014C27.3118 5.01255 27.1876 5.22301 27.1909 5.48153C27.1876 5.7036 27.2688 5.88423 27.4345 6.02344C27.6035 6.16264 27.8819 6.27699 28.2697 6.36648L29.5723 6.64489C30.2948 6.80066 30.8317 7.04759 31.1831 7.38565C31.5377 7.72372 31.7167 8.16619 31.72 8.71307C31.7167 9.19366 31.5758 9.6179 31.2974 9.9858C31.0223 10.3504 30.6395 10.6354 30.149 10.8409C29.6584 11.0464 29.095 11.1491 28.4586 11.1491C27.524 11.1491 26.7716 10.9536 26.2015 10.5625C25.6315 10.1681 25.2917 9.61955 25.1824 8.9169L26.9373 8.74787C27.0169 9.09257 27.1859 9.35275 27.4444 9.52841C27.7029 9.70407 28.0394 9.7919 28.4537 9.7919C28.8812 9.7919 29.2243 9.70407 29.4828 9.52841C29.7446 9.35275 29.8755 9.13565 29.8755 8.87713C29.8755 8.65838 29.791 8.47775 29.622 8.33523C29.4563 8.19271 29.1977 8.08333 28.8464 8.0071L27.5439 7.73366C26.8114 7.5812 26.2695 7.32434 25.9181 6.96307C25.5668 6.59848 25.3928 6.13778 25.3961 5.58097C25.3928 5.11032 25.5204 4.70265 25.7789 4.35795C26.0408 4.00994 26.4037 3.74148 26.8677 3.55256C27.335 3.36032 27.8736 3.2642 28.4835 3.2642C29.3784 3.2642 30.0827 3.45478 30.5964 3.83594C31.1135 4.21709 31.4333 4.73248 31.5559 5.3821ZM34.78 11L32.6223 3.36364H34.4569L35.7992 8.73295H35.8688L37.2409 3.36364H39.0556L40.4277 8.70312H40.5023L41.8248 3.36364H43.6642L41.5016 11H39.6273L38.1955 5.83949H38.0911L36.6593 11H34.78ZM48.033 11.1491C47.2873 11.1491 46.641 10.9851 46.0941 10.657C45.5472 10.3288 45.123 9.86979 44.8214 9.27983C44.5231 8.68987 44.3739 8.00047 44.3739 7.21165C44.3739 6.42282 44.5231 5.73177 44.8214 5.13849C45.123 4.54522 45.5472 4.08452 46.0941 3.75639C46.641 3.42827 47.2873 3.2642 48.033 3.2642C48.7788 3.2642 49.4251 3.42827 49.9719 3.75639C50.5188 4.08452 50.9414 4.54522 51.2397 5.13849C51.5413 5.73177 51.6921 6.42282 51.6921 7.21165C51.6921 8.00047 51.5413 8.68987 51.2397 9.27983C50.9414 9.86979 50.5188 10.3288 49.9719 10.657C49.4251 10.9851 48.7788 11.1491 48.033 11.1491ZM48.043 9.70739C48.4473 9.70739 48.7854 9.59635 49.0572 9.37429C49.329 9.14891 49.5311 8.8473 49.6637 8.46946C49.7996 8.09162 49.8675 7.67069 49.8675 7.20668C49.8675 6.73935 49.7996 6.31676 49.6637 5.93892C49.5311 5.55777 49.329 5.2545 49.0572 5.02912C48.7854 4.80374 48.4473 4.69105 48.043 4.69105C47.6287 4.69105 47.284 4.80374 47.0089 5.02912C46.7371 5.2545 46.5333 5.55777 46.3974 5.93892C46.2648 6.31676 46.1985 6.73935 46.1985 7.20668C46.1985 7.67069 46.2648 8.09162 46.3974 8.46946C46.5333 8.8473 46.7371 9.14891 47.0089 9.37429C47.284 9.59635 47.6287 9.70739 48.043 9.70739ZM53.2196 11V3.36364H54.9647V4.63636H55.0442C55.1834 4.19555 55.4221 3.85582 55.7601 3.61719C56.1015 3.37524 56.4909 3.25426 56.9284 3.25426C57.0279 3.25426 57.1389 3.25923 57.2615 3.26918C57.3875 3.2758 57.4919 3.2874 57.5748 3.30398V4.95952C57.4985 4.933 57.3775 4.9098 57.2118 4.88991C57.0494 4.86671 56.892 4.85511 56.7395 4.85511C56.4114 4.85511 56.1164 4.92637 55.8546 5.06889C55.5961 5.2081 55.3922 5.40199 55.2431 5.65057C55.0939 5.89915 55.0194 6.18584 55.0194 6.51065V11H53.2196ZM61.2898 11.1342C60.6899 11.1342 60.1529 10.9801 59.679 10.6719C59.205 10.3636 58.8305 9.91619 58.5554 9.32955C58.2803 8.7429 58.1428 8.0303 58.1428 7.19176C58.1428 6.34328 58.282 5.62737 58.5604 5.04403C58.8421 4.45739 59.2216 4.01491 59.6989 3.71662C60.1761 3.41501 60.7081 3.2642 61.2947 3.2642C61.7422 3.2642 62.1101 3.34044 62.3984 3.4929C62.6868 3.64205 62.9155 3.82268 63.0845 4.0348C63.2536 4.24361 63.3845 4.44081 63.4773 4.62642H63.5518V0.818182H65.3565V11H63.5866V9.79688H63.4773C63.3845 9.98248 63.2502 10.1797 63.0746 10.3885C62.8989 10.594 62.6669 10.7696 62.3786 10.9155C62.0902 11.0613 61.7273 11.1342 61.2898 11.1342ZM61.7919 9.65767C62.1731 9.65767 62.4979 9.55492 62.7663 9.34943C63.0348 9.14062 63.2386 8.85062 63.3778 8.4794C63.517 8.10819 63.5866 7.67566 63.5866 7.18182C63.5866 6.68797 63.517 6.25876 63.3778 5.89418C63.242 5.52959 63.0398 5.24621 62.7713 5.04403C62.5062 4.84186 62.1797 4.74077 61.7919 4.74077C61.3909 4.74077 61.0561 4.84517 60.7876 5.05398C60.5192 5.26278 60.317 5.55114 60.1811 5.91903C60.0452 6.28693 59.9773 6.70786 59.9773 7.18182C59.9773 7.65909 60.0452 8.08499 60.1811 8.45952C60.3203 8.83073 60.5241 9.12405 60.7926 9.33949C61.0644 9.55161 61.3975 9.65767 61.7919 9.65767Z" fill="#333333"/>
</svg>
