<svg width="440" height="153" fill="none" xmlns="http://www.w3.org/2000/svg"><g filter="url(#a)"><rect x="20" y="10.5" width="400" height="104" rx="8" fill="#fff"/><path d="M45.15 46.5V34.86h4.36c.9 0 1.65.17 2.25.5.61.34 1.07.8 1.38 1.38.32.58.47 1.24.47 1.98s-.15 1.4-.47 1.98a3.37 3.37 0 0 1-1.39 1.37c-.61.33-1.37.5-2.27.5H46.6v-1.73h2.6c.53 0 .96-.1 1.3-.28.33-.18.57-.43.73-.75.16-.32.25-.68.25-1.1 0-.4-.09-.77-.25-1.09-.16-.3-.4-.55-.74-.73a2.73 2.73 0 0 0-1.3-.27h-1.92v9.88h-2.11Zm13.89.17c-.86 0-1.6-.19-2.22-.56a3.82 3.82 0 0 1-1.45-1.58 5.17 5.17 0 0 1-.52-2.36c0-.9.17-1.7.52-2.37.34-.68.82-1.2 1.45-1.58a4.23 4.23 0 0 1 2.22-.56 3.82 3.82 0 0 1 3.66 2.14c.34.68.52 1.47.52 2.37 0 .9-.17 1.69-.52 2.36-.34.68-.82 1.2-1.45 1.58-.62.37-1.36.56-2.21.56Zm0-1.65c.47 0 .86-.12 1.17-.38.3-.26.54-.6.69-1.03.15-.43.23-.91.23-1.45 0-.53-.08-1.01-.23-1.44a2.3 2.3 0 0 0-.7-1.04c-.3-.26-.7-.39-1.15-.39-.48 0-.87.13-1.18.39-.32.25-.55.6-.7 1.04a4.1 4.1 0 0 0-.23 1.44c0 .54.07 1.02.23 1.45.15.43.38.77.7 1.03.3.26.7.38 1.18.38Zm5.92 4.75v-12H67v1.45h.12c.1-.22.25-.44.44-.68a2.5 2.5 0 0 1 2.05-.88 3.33 3.33 0 0 1 3.12 2.03c.32.67.48 1.49.48 2.46 0 .96-.16 1.77-.47 2.44a3.3 3.3 0 0 1-3.13 2.06 2.53 2.53 0 0 1-2.04-.85 3.9 3.9 0 0 1-.45-.67h-.09v4.64h-2.06Zm2.02-7.63c0 .56.08 1.06.24 1.48.16.42.4.76.7 1 .3.23.68.35 1.11.35.46 0 .84-.13 1.14-.37.31-.24.54-.58.7-1 .16-.43.24-.92.24-1.46 0-.55-.08-1.03-.24-1.45a2.17 2.17 0 0 0-.7-.99c-.3-.23-.68-.35-1.14-.35-.44 0-.81.11-1.12.34-.3.23-.54.56-.7.97-.15.42-.23.91-.23 1.48Zm11.79 4.53c-.85 0-1.6-.19-2.22-.56a3.82 3.82 0 0 1-1.45-1.58 5.17 5.17 0 0 1-.51-2.36c0-.9.17-1.7.5-2.37.35-.68.84-1.2 1.46-1.58a4.23 4.23 0 0 1 2.22-.56 3.8 3.8 0 0 1 3.66 2.14c.35.68.52 1.47.52 2.37 0 .9-.17 1.69-.52 2.36a3.8 3.8 0 0 1-3.66 2.14Zm.01-1.65c.46 0 .85-.12 1.16-.38.31-.26.54-.6.7-1.03a4.37 4.37 0 0 0-.01-2.89 2.3 2.3 0 0 0-.69-1.04c-.31-.26-.7-.39-1.16-.39-.47 0-.87.13-1.18.39-.31.25-.54.6-.7 1.04-.15.43-.23.91-.23 1.44 0 .54.08 1.02.23 1.45.16.43.39.77.7 1.03.31.26.7.38 1.18.38Zm13.42-7.25-3.11 8.73h-2.27l-3.11-8.73h2.2l2 6.49H88l2-6.49h2.2Zm4.99 8.9a4.5 4.5 0 0 1-2.27-.55 3.7 3.7 0 0 1-1.46-1.55 5.21 5.21 0 0 1-.51-2.38c0-.9.17-1.69.5-2.37a3.87 3.87 0 0 1 3.63-2.16c.54 0 1.04.09 1.52.26s.9.44 1.27.8c.38.36.67.81.88 1.37.21.55.32 1.21.32 1.98v.63H93.9v-1.4h5.19c0-.4-.1-.74-.26-1.05-.17-.3-.4-.55-.7-.73-.3-.18-.64-.27-1.03-.27a2 2 0 0 0-1.11.3 2.13 2.13 0 0 0-1.01 1.88v1.2c0 .52.09.95.28 1.31.18.36.44.64.77.83.34.2.73.29 1.17.29.3 0 .57-.04.82-.13.24-.08.45-.21.63-.38.18-.16.31-.37.4-.62l1.92.22a3 3 0 0 1-.7 1.33c-.33.37-.76.67-1.29.87-.52.2-1.13.31-1.8.31Zm5.62-.17v-8.73h2v1.46h.08a2.18 2.18 0 0 1 2.16-1.58 4.73 4.73 0 0 1 .73.05v1.9a3.8 3.8 0 0 0-.95-.12c-.38 0-.71.08-1.01.24a1.8 1.8 0 0 0-.96 1.65v5.13h-2.05ZM44.68 59.41v-1.1h7.63v1.1h-3.2v9.09h-1.23v-9.09h-3.2Zm10.55 4.5v4.59h-1.17V58.32h1.17v3.74h.1c.18-.4.45-.71.8-.94a2.6 2.6 0 0 1 1.45-.36c.52 0 .97.1 1.36.32.4.2.7.52.91.95.22.42.33.96.33 1.62v4.85h-1.17v-4.77a2 2 0 0 0-.47-1.41c-.32-.33-.75-.5-1.3-.5-.39 0-.73.08-1.04.24-.3.16-.54.4-.71.71-.17.31-.26.7-.26 1.14Zm10.3 4.75a3.27 3.27 0 0 1-3.13-1.86 4.68 4.68 0 0 1-.43-2.06c0-.78.14-1.47.43-2.07a3.23 3.23 0 0 1 3.01-1.9c.4 0 .8.06 1.18.2a2.92 2.92 0 0 1 1.82 1.81 5 5 0 0 1 .28 1.8v.5h-5.88v-1.01h4.69c0-.44-.09-.82-.26-1.16a1.95 1.95 0 0 0-1.83-1.1c-.47 0-.87.12-1.21.36-.34.22-.6.52-.78.9-.19.36-.28.75-.28 1.17v.68c0 .58.1 1.07.3 1.47.2.4.48.7.84.9a2.68 2.68 0 0 0 2.08.19c.26-.1.47-.23.66-.4.18-.18.32-.4.42-.67l1.13.32c-.12.38-.32.72-.6 1.01-.28.3-.63.52-1.04.68-.42.16-.88.24-1.4.24Zm11.55-8.83-1.55-2.3h1.37l1.21 2.3h-1.03Zm4.45 8.67V58.32h3.44c.8 0 1.45.14 1.96.43s.89.67 1.13 1.16c.25.49.37 1.03.37 1.63 0 .6-.12 1.14-.37 1.64-.24.49-.61.88-1.12 1.17a3.9 3.9 0 0 1-1.95.43h-2.46v-1.1h2.42c.55 0 .99-.09 1.32-.28.33-.18.57-.44.72-.76.15-.33.23-.7.23-1.1 0-.4-.08-.77-.23-1.1a1.6 1.6 0 0 0-.73-.75 2.74 2.74 0 0 0-1.33-.28h-2.17v9.09h-1.23Zm11.75.16a3.2 3.2 0 0 1-1.81-.5 3.34 3.34 0 0 1-1.22-1.37 4.66 4.66 0 0 1-.43-2.07c0-.8.14-1.49.43-2.08a3.3 3.3 0 0 1 3.03-1.88 3.22 3.22 0 0 1 3.02 1.88c.3.6.44 1.29.44 2.08s-.15 1.48-.44 2.07a3.3 3.3 0 0 1-1.21 1.38 3.3 3.3 0 0 1-1.81.49Zm0-1.05c.52 0 .95-.14 1.3-.4.33-.28.58-.63.74-1.07a4.1 4.1 0 0 0 0-2.85 2.4 2.4 0 0 0-.75-1.06 2 2 0 0 0-1.29-.41 2 2 0 0 0-1.3.4 2.4 2.4 0 0 0-.74 1.07 4.1 4.1 0 0 0-.25 1.43c0 .51.08.99.25 1.42.16.44.4.8.75 1.06a2 2 0 0 0 1.29.4Zm5.25 3.75v-10.5h1.13v1.22h.14l.36-.51c.16-.2.38-.4.67-.56.29-.16.68-.25 1.18-.25a3.03 3.03 0 0 1 2.85 1.85c.28.6.41 1.29.41 2.1 0 .8-.13 1.5-.41 2.1a2.99 2.99 0 0 1-2.83 1.85 2.5 2.5 0 0 1-1.18-.24c-.3-.17-.52-.36-.68-.57a7.26 7.26 0 0 1-.37-.52h-.1v4.03h-1.17Zm1.15-6.68c0 .58.09 1.09.26 1.53.17.44.41.78.74 1.03.32.24.72.37 1.2.37s.9-.13 1.22-.4c.33-.25.58-.6.75-1.05.17-.44.25-.93.25-1.48a3.9 3.9 0 0 0-.25-1.45c-.16-.43-.4-.78-.74-1.03a1.96 1.96 0 0 0-1.24-.38 1.96 1.96 0 0 0-1.94 1.37 4.2 4.2 0 0 0-.25 1.5Zm10.48 3.98c-.69 0-1.29-.16-1.81-.5a3.34 3.34 0 0 1-1.21-1.37 4.65 4.65 0 0 1-.44-2.07c0-.8.15-1.49.44-2.08a3.27 3.27 0 0 1 3.02-1.88 3.3 3.3 0 0 1 3.02 1.87c.3.6.45 1.3.45 2.1a4.6 4.6 0 0 1-.44 2.06 3.3 3.3 0 0 1-1.22 1.38 3.3 3.3 0 0 1-1.8.49Zm0-1.05c.53 0 .96-.14 1.3-.4.34-.28.59-.63.75-1.07a4.25 4.25 0 0 0 0-2.85c-.16-.44-.41-.8-.75-1.06a2 2 0 0 0-1.3-.41 2 2 0 0 0-1.29.4 2.4 2.4 0 0 0-.75 1.07 4.1 4.1 0 0 0-.24 1.43c0 .51.08.99.24 1.42.16.44.41.8.75 1.06.34.27.77.4 1.3.4Zm11.23-6.75-2.83 7.64h-1.2l-2.81-7.64h1.27l2.1 6.09h.09l2.1-6.09h1.28Zm4.47 7.8a3.6 3.6 0 0 1-1.9-.49 3.28 3.28 0 0 1-1.23-1.37 4.68 4.68 0 0 1-.43-2.06c0-.78.15-1.47.43-2.07.29-.6.7-1.06 1.2-1.4a3.61 3.61 0 0 1 2.99-.3 2.92 2.92 0 0 1 1.82 1.81 5 5 0 0 1 .28 1.8v.5h-5.88v-1.01h4.7c0-.44-.1-.82-.27-1.16a1.95 1.95 0 0 0-1.83-1.1 2 2 0 0 0-1.2.36c-.35.22-.6.52-.79.9-.18.36-.27.75-.27 1.17v.68c0 .58.1 1.07.3 1.47.2.4.48.7.84.9.35.21.77.32 1.24.32.31 0 .59-.05.84-.13.25-.1.47-.23.65-.4.18-.18.32-.4.42-.67l1.14.32c-.12.38-.32.72-.6 1.01-.29.3-.64.52-1.05.68-.41.16-.88.24-1.4.24Zm4.95-.16v-7.64h1.13v1.16h.08c.14-.38.4-.69.76-.92.36-.24.78-.36 1.23-.36a13.07 13.07 0 0 1 .62.02v1.2a3.4 3.4 0 0 0-.72-.08c-.37 0-.7.08-1 .23a1.71 1.71 0 0 0-.94 1.56v4.83h-1.16Zm7.87-8.67-1.55-2.3h1.38l1.2 2.3h-1.03Zm11.34 8.83a3.3 3.3 0 0 1-1.85-.5 3.3 3.3 0 0 1-1.2-1.4 4.74 4.74 0 0 1-.41-2.04c0-.77.14-1.46.43-2.05a3.23 3.23 0 0 1 3.01-1.9c.53 0 1.02.1 1.45.3a2.61 2.61 0 0 1 1.57 2.09h-1.17a1.79 1.79 0 0 0-1.83-1.33 1.9 1.9 0 0 0-1.2.35c-.35.23-.61.56-.8 1a3.7 3.7 0 0 0-.29 1.5c0 .6.1 1.1.28 1.54.19.44.45.78.8 1.02.34.24.74.37 1.2.37.31 0 .59-.06.84-.16a1.72 1.72 0 0 0 1-1.18h1.17a2.74 2.74 0 0 1-1.52 2.08c-.43.2-.92.3-1.48.3Zm6.96.02c-.48 0-.92-.1-1.31-.27a2.3 2.3 0 0 1-.94-.8 2.26 2.26 0 0 1-.35-1.28c0-.44.08-.79.26-1.06.17-.28.4-.5.69-.65.29-.15.6-.27.95-.35.35-.08.7-.14 1.06-.18l1.13-.14c.3-.03.5-.09.64-.16.13-.08.2-.21.2-.4v-.04c0-.5-.13-.87-.4-1.14-.27-.28-.67-.41-1.21-.41a2.1 2.1 0 0 0-1.99 1.15l-1.11-.4a2.68 2.68 0 0 1 1.89-1.63 4.54 4.54 0 0 1 2.01-.07c.33.06.64.18.93.36.3.18.56.45.75.8.2.37.3.85.3 1.46v5.03h-1.17v-1.03h-.06a2.29 2.29 0 0 1-1.14 1.01c-.3.13-.68.2-1.13.2Zm.18-1.06c.47 0 .86-.09 1.18-.27a1.86 1.86 0 0 0 .97-1.61v-1.08c-.05.06-.16.12-.33.17a5.55 5.55 0 0 1-1.2.21l-.5.06c-.3.04-.59.1-.85.2-.27.08-.48.21-.64.39a1 1 0 0 0-.24.7c0 .41.15.72.45.93.3.2.7.3 1.16.3Zm6.64-3.71v4.59h-1.18v-7.64h1.14v1.2h.1c.18-.4.45-.7.81-.94.37-.24.84-.36 1.42-.36.51 0 .96.11 1.35.32.39.21.7.53.9.96.22.42.33.96.33 1.6v4.86h-1.17v-4.77c0-.6-.16-1.07-.47-1.4a1.65 1.65 0 0 0-1.28-.51c-.38 0-.71.08-1 .24-.3.16-.53.4-.7.71-.17.31-.25.7-.25 1.14Zm13.83 4.75a2.99 2.99 0 0 1-2.82-1.86 4.86 4.86 0 0 1-.42-2.1c0-.8.14-1.5.42-2.09a3.03 3.03 0 0 1 2.85-1.85c.5 0 .88.09 1.17.25.3.17.52.35.67.56.16.2.28.37.36.5h.1v-3.75h1.17V68.5H180v-1.17h-.14c-.08.14-.2.31-.37.52-.16.21-.38.4-.68.57-.3.16-.68.24-1.18.24Zm.16-1.05a2 2 0 0 0 1.2-.37c.32-.25.57-.6.74-1.03.17-.44.25-.95.25-1.53 0-.57-.08-1.07-.25-1.5a1.96 1.96 0 0 0-1.94-1.37c-.5 0-.9.14-1.24.4-.33.24-.57.59-.74 1.02-.16.43-.24.91-.24 1.45 0 .55.08 1.04.25 1.48.17.44.41.8.74 1.06s.74.39 1.23.39Zm5.66.89v-7.64h1.17v7.64h-1.17Zm.6-8.9a.83.83 0 0 1-.6-.24.75.75 0 0 1-.24-.56c0-.22.08-.41.24-.57a.83.83 0 0 1 .6-.23c.22 0 .42.08.58.23.17.16.25.35.25.57 0 .21-.08.4-.25.56a.82.82 0 0 1-.59.23Zm8.13 2.97-1.06.3a1.95 1.95 0 0 0-.29-.51c-.13-.17-.3-.3-.52-.42-.22-.1-.5-.16-.84-.16a2 2 0 0 0-1.16.32c-.31.21-.47.48-.47.81 0 .3.1.52.32.7.21.16.55.3 1 .42l1.13.27c.68.17 1.2.42 1.53.76.33.34.5.78.5 1.31 0 .44-.13.83-.38 1.18-.25.34-.6.61-1.04.81-.45.2-.97.3-1.56.3-.78 0-1.43-.17-1.94-.5a2.25 2.25 0 0 1-.97-1.49l1.11-.28c.11.41.31.72.6.93.3.2.7.3 1.18.3.54 0 .98-.11 1.3-.34.32-.24.48-.52.48-.85a.88.88 0 0 0-.27-.66 1.78 1.78 0 0 0-.86-.41l-1.27-.3a3.04 3.04 0 0 1-1.54-.77c-.33-.35-.49-.8-.49-1.32 0-.43.12-.81.36-1.14.25-.33.58-.6 1-.78.43-.2.9-.29 1.44-.29.76 0 1.35.17 1.78.5.44.33.75.77.93 1.31Zm1.9 8.8v-10.5h1.14v1.2h.14l.35-.5c.16-.2.38-.4.67-.56.3-.16.69-.25 1.18-.25a3.03 3.03 0 0 1 2.85 1.85c.28.6.41 1.29.41 2.1 0 .8-.13 1.5-.4 2.1a2.99 2.99 0 0 1-2.83 1.85c-.5 0-.89-.08-1.19-.24a2.31 2.31 0 0 1-.68-.57 7.86 7.86 0 0 1-.36-.52h-.1v4.03h-1.18Zm1.16-6.69c0 .58.08 1.09.25 1.53.17.44.42.78.74 1.03.33.24.72.37 1.2.37s.9-.13 1.22-.4c.33-.25.58-.6.75-1.05.17-.44.25-.93.25-1.48a3.9 3.9 0 0 0-.25-1.45c-.16-.43-.4-.78-.74-1.03a1.95 1.95 0 0 0-1.23-.38 1.96 1.96 0 0 0-1.94 1.37 4 4 0 0 0-.25 1.5Zm8.55-6.36V68.5h-1.17V58.32h1.17Zm4.4 10.36c-.49 0-.93-.1-1.32-.27a2.3 2.3 0 0 1-.94-.8 2.26 2.26 0 0 1-.35-1.28c0-.44.08-.79.26-1.06.17-.28.4-.5.69-.65.29-.15.6-.27.95-.35.36-.08.7-.14 1.06-.18l1.13-.14c.3-.03.5-.09.64-.16.13-.08.2-.21.2-.4v-.04c0-.5-.13-.87-.4-1.14-.27-.28-.67-.41-1.21-.41a2.1 2.1 0 0 0-1.99 1.15l-1.11-.4a2.68 2.68 0 0 1 1.89-1.63 4.54 4.54 0 0 1 2.02-.07c.32.06.63.18.92.36.3.18.56.45.76.8.2.37.3.85.3 1.46v5.03h-1.18v-1.03h-.06a2.3 2.3 0 0 1-1.14 1.01c-.3.13-.68.2-1.13.2Zm.17-1.06c.47 0 .86-.09 1.18-.27a1.86 1.86 0 0 0 .97-1.61v-1.08c-.05.06-.16.12-.33.17a5.55 5.55 0 0 1-1.2.21l-.5.06c-.3.04-.59.1-.85.2-.26.08-.48.21-.64.39a1 1 0 0 0-.24.7c0 .41.15.72.46.93.3.2.69.3 1.15.3Zm5.95 3.74a2.57 2.57 0 0 1-.86-.14l.3-1.03c.29.07.54.1.76.08a.9.9 0 0 0 .58-.3c.17-.17.33-.45.47-.83l.22-.6-2.82-7.68h1.27l2.1 6.09h.09l2.1-6.09h1.28l-3.25 8.75c-.14.4-.32.72-.54.98a1.9 1.9 0 0 1-.75.58c-.28.13-.6.2-.95.2Zm13.22-2.68c-.48 0-.92-.1-1.32-.27-.4-.19-.7-.46-.94-.8a2.26 2.26 0 0 1-.34-1.28c0-.44.08-.79.25-1.06.18-.28.4-.5.7-.65.28-.15.6-.27.95-.35.35-.08.7-.14 1.06-.18l1.13-.14c.29-.03.5-.09.63-.16.14-.08.2-.21.2-.4v-.04c0-.5-.13-.87-.4-1.14-.26-.28-.66-.41-1.2-.41a2.1 2.1 0 0 0-1.99 1.15l-1.12-.4a2.68 2.68 0 0 1 1.9-1.63 4.54 4.54 0 0 1 2.01-.07c.32.06.63.18.93.36.3.18.55.45.75.8.2.37.3.85.3 1.46v5.03h-1.17v-1.03h-.06a2.29 2.29 0 0 1-1.14 1.01c-.31.13-.69.2-1.13.2Zm.18-1.06c.46 0 .85-.09 1.17-.27a1.86 1.86 0 0 0 .98-1.61v-1.08c-.05.06-.16.12-.33.17a5.55 5.55 0 0 1-1.21.21l-.5.06c-.3.04-.58.1-.85.2-.26.08-.47.21-.63.39a1 1 0 0 0-.24.7c0 .41.15.72.45.93.3.2.7.3 1.16.3Zm6.63-3.71v4.59h-1.17v-7.64h1.14v1.2h.1c.17-.4.44-.7.81-.94.36-.24.84-.36 1.41-.36.52 0 .97.11 1.36.32.39.21.69.53.9.96.22.42.33.96.33 1.6v4.86h-1.18v-4.77c0-.6-.15-1.07-.46-1.4a1.67 1.67 0 0 0-1.29-.51c-.37 0-.7.08-1 .24-.3.16-.52.4-.7.71-.16.31-.25.7-.25 1.14Zm7.5 7.45a2.57 2.57 0 0 1-.85-.14l.3-1.03c.28.07.53.1.75.08a.9.9 0 0 0 .58-.3c.18-.17.33-.45.48-.83l.22-.6-2.83-7.68h1.27l2.11 6.09h.08l2.1-6.09h1.28l-3.24 8.75c-.15.4-.33.72-.54.98-.22.26-.47.46-.75.58-.28.13-.6.2-.96.2Zm14.3-10.5v1h-3.96v-1h3.96Zm-2.8-1.83h1.17v7.28c0 .33.05.58.14.75.1.16.23.27.38.33.16.05.32.08.5.08l.31-.02.2-.04.24 1.05a2.33 2.33 0 0 1-.88.14c-.33 0-.65-.07-.97-.21a1.94 1.94 0 0 1-.79-.66 1.9 1.9 0 0 1-.3-1.1v-7.6Zm5.32 12.33a2.56 2.56 0 0 1-.86-.14l.3-1.03c.29.07.54.1.76.08a.9.9 0 0 0 .58-.3c.17-.17.33-.45.47-.83l.22-.6-2.82-7.68h1.27l2.1 6.09h.09l2.1-6.09h1.28l-3.24 8.75c-.15.4-.33.72-.55.98a1.9 1.9 0 0 1-.75.58c-.28.13-.6.2-.95.2Zm7.04 0v-10.5h1.13v1.22h.14l.36-.51c.15-.2.38-.4.66-.56.3-.16.69-.25 1.19-.25a3.03 3.03 0 0 1 2.85 1.85c.27.6.4 1.29.4 2.1 0 .8-.13 1.5-.4 2.1a2.99 2.99 0 0 1-2.83 1.85c-.5 0-.89-.08-1.18-.24-.3-.17-.52-.36-.68-.57a7.17 7.17 0 0 1-.37-.52h-.1v4.03h-1.17Zm1.15-6.68c0 .58.08 1.09.25 1.53.17.44.42.78.75 1.03.32.24.72.37 1.19.37.49 0 .9-.13 1.23-.4.33-.25.58-.6.74-1.05.17-.44.25-.93.25-1.48 0-.54-.08-1.02-.24-1.45a2.25 2.25 0 0 0-.74-1.03 1.96 1.96 0 0 0-1.24-.38 1.96 1.96 0 0 0-1.94 1.37 4 4 0 0 0-.25 1.5Zm10.58 3.98a3.26 3.26 0 0 1-3.13-1.86 4.68 4.68 0 0 1-.43-2.06c0-.78.14-1.47.43-2.07a3.23 3.23 0 0 1 3.01-1.9c.4 0 .8.06 1.18.2a2.92 2.92 0 0 1 1.82 1.81 5 5 0 0 1 .28 1.8v.5h-5.88v-1.01h4.69c0-.44-.09-.82-.26-1.16a1.95 1.95 0 0 0-1.83-1.1c-.47 0-.87.12-1.21.36-.34.22-.6.52-.78.9-.19.36-.28.75-.28 1.17v.68c0 .58.1 1.07.3 1.47.2.4.48.7.84.9a2.68 2.68 0 0 0 2.08.19c.26-.1.47-.23.66-.4.18-.18.32-.4.42-.67l1.13.32a2.5 2.5 0 0 1-.6 1.01c-.28.3-.63.52-1.04.68-.42.16-.88.24-1.4.24Zm11.99 0c-.7 0-1.3-.16-1.82-.5a3.34 3.34 0 0 1-1.21-1.37 4.65 4.65 0 0 1-.43-2.07c0-.8.14-1.49.43-2.08a3.27 3.27 0 0 1 3.03-1.88 3.3 3.3 0 0 1 3.02 1.87c.3.6.44 1.3.44 2.1a4.6 4.6 0 0 1-.44 2.06 3.3 3.3 0 0 1-1.21 1.38 3.3 3.3 0 0 1-1.81.49Zm0-1.05c.52 0 .95-.14 1.29-.4.34-.28.59-.63.75-1.07a4.25 4.25 0 0 0 0-2.85c-.16-.44-.41-.8-.75-1.06a2 2 0 0 0-1.3-.41 2 2 0 0 0-1.29.4 2.4 2.4 0 0 0-.75 1.07 4.1 4.1 0 0 0-.24 1.43c0 .51.08.99.24 1.42.17.44.42.8.75 1.06.34.27.77.4 1.3.4Zm8.65-6.75v1h-4.12v-1h4.12Zm-2.88 7.64v-8.69c0-.44.1-.8.3-1.1.2-.29.47-.5.8-.65a2.94 2.94 0 0 1 2.15-.02l-.33 1.01a5.95 5.95 0 0 0-.25-.07 1.5 1.5 0 0 0-.4-.05c-.4 0-.68.1-.85.3-.17.2-.25.48-.25.86v8.41h-1.18Zm11.66.16a3.26 3.26 0 0 1-3.13-1.86 4.68 4.68 0 0 1-.43-2.06c0-.78.14-1.47.43-2.07a3.23 3.23 0 0 1 3.01-1.9c.4 0 .8.06 1.18.2a2.93 2.93 0 0 1 1.82 1.81 5 5 0 0 1 .28 1.8v.5h-5.88v-1.01h4.69c0-.44-.09-.82-.26-1.16a1.95 1.95 0 0 0-1.83-1.1c-.47 0-.87.12-1.21.36-.34.22-.6.52-.78.9-.18.36-.28.75-.28 1.17v.68c0 .58.1 1.07.3 1.47.2.4.49.7.84.9.36.21.78.32 1.25.32.31 0 .59-.05.84-.13.25-.1.47-.23.65-.4.18-.18.32-.4.42-.67l1.13.32a2.5 2.5 0 0 1-.6 1.01c-.28.3-.63.52-1.04.68-.42.16-.88.24-1.4.24Zm6.12-10.34V68.5h-1.17V58.32h1.17Zm5.35 10.34a3.6 3.6 0 0 1-1.9-.49 3.28 3.28 0 0 1-1.23-1.37 4.68 4.68 0 0 1-.43-2.06c0-.78.14-1.47.43-2.07a3.24 3.24 0 0 1 3.01-1.9c.4 0 .8.06 1.18.2a2.92 2.92 0 0 1 1.82 1.81 5 5 0 0 1 .28 1.8v.5h-5.88v-1.01h4.7c0-.44-.1-.82-.27-1.16a1.95 1.95 0 0 0-1.83-1.1c-.46 0-.87.12-1.21.36-.34.22-.6.52-.78.9-.18.36-.27.75-.27 1.17v.68c0 .58.1 1.07.3 1.47.2.4.48.7.83.9.36.21.78.32 1.25.32.31 0 .59-.05.84-.13.25-.1.47-.23.65-.4.18-.18.32-.4.42-.67l1.13.32a2.5 2.5 0 0 1-.6 1.01c-.28.3-.63.52-1.04.68-.42.16-.88.24-1.4.24Zm4.95-.16v-7.64h1.13v1.2h.1c.16-.41.42-.73.77-.95a2.3 2.3 0 0 1 1.28-.35c.5 0 .92.12 1.26.35.34.22.6.54.79.95h.08c.2-.4.49-.71.88-.94.39-.24.86-.36 1.4-.36.69 0 1.25.22 1.68.65.44.42.65 1.08.65 1.98v5.11h-1.17v-5.11c0-.56-.16-.97-.46-1.2a1.7 1.7 0 0 0-1.1-.37c-.53 0-.94.16-1.24.49-.3.32-.44.72-.44 1.22v4.97h-1.2v-5.23c0-.43-.14-.78-.42-1.05a1.5 1.5 0 0 0-1.09-.4c-.3 0-.59.08-.85.24-.26.16-.48.39-.64.68a2 2 0 0 0-.24.99v4.77h-1.17Zm15.37.16a3.26 3.26 0 0 1-3.13-1.86 4.68 4.68 0 0 1-.43-2.06c0-.78.14-1.47.43-2.07a3.23 3.23 0 0 1 3.01-1.9c.4 0 .79.06 1.18.2a2.92 2.92 0 0 1 1.82 1.81 5 5 0 0 1 .28 1.8v.5h-5.89v-1.01h4.7c0-.44-.09-.82-.26-1.16a1.95 1.95 0 0 0-1.83-1.1c-.47 0-.87.12-1.21.36-.34.22-.6.52-.78.9-.19.36-.28.75-.28 1.17v.68c0 .58.1 1.07.3 1.47.2.4.48.7.84.9a2.68 2.68 0 0 0 2.08.19 1.72 1.72 0 0 0 1.08-1.07l1.13.32a2.5 2.5 0 0 1-.6 1.01c-.28.3-.63.52-1.04.68-.42.16-.88.24-1.4.24Zm6.12-4.75v4.59h-1.17v-7.64h1.13v1.2h.1c.18-.4.45-.7.81-.94.37-.24.84-.36 1.42-.36.51 0 .96.11 1.35.32.4.21.7.53.9.96.22.42.33.96.33 1.6v4.86h-1.17v-4.77c0-.6-.16-1.07-.47-1.4a1.65 1.65 0 0 0-1.28-.51c-.38 0-.71.08-1 .24-.3.16-.53.4-.7.71-.17.31-.25.7-.25 1.14Zm10.34-3.05v1h-3.96v-1h3.96Zm-2.8-1.83h1.16v7.28c0 .33.05.58.15.75.1.16.22.27.38.33.15.05.32.08.49.08l.32-.02.2-.04.24 1.05a2.33 2.33 0 0 1-.88.14c-.33 0-.66-.07-.97-.21a1.94 1.94 0 0 1-.79-.66 1.9 1.9 0 0 1-.3-1.1v-7.6Zm10.75 9.65c-.49 0-.93-.1-1.32-.27-.4-.19-.7-.46-.94-.8a2.26 2.26 0 0 1-.35-1.28c0-.44.09-.79.26-1.06.17-.28.4-.5.69-.65.29-.15.6-.27.96-.35.35-.08.7-.14 1.05-.18l1.13-.14c.3-.03.5-.09.64-.16.13-.08.2-.21.2-.4v-.04c0-.5-.13-.87-.4-1.14-.27-.28-.67-.41-1.2-.41-.57 0-1 .12-1.33.37-.31.24-.54.5-.67.78l-1.11-.4c.2-.46.46-.82.8-1.08.33-.26.7-.44 1.09-.55a4.54 4.54 0 0 1 2.02-.07c.32.06.63.18.93.36.3.18.55.45.75.8.2.37.3.85.3 1.46v5.03h-1.18v-1.03h-.06a2.3 2.3 0 0 1-1.14 1.01c-.3.13-.68.2-1.12.2Zm.18-1.06c.46 0 .85-.09 1.17-.27a1.87 1.87 0 0 0 .97-1.61v-1.08c-.05.06-.16.12-.33.17a5.59 5.59 0 0 1-1.2.21l-.5.06c-.3.04-.59.1-.85.2-.26.08-.48.21-.64.39a1 1 0 0 0-.24.7c0 .41.15.72.46.93.3.2.69.3 1.16.3Zm10.87-5.05-1.06.3a1.95 1.95 0 0 0-.3-.51 1.5 1.5 0 0 0-.5-.42c-.23-.1-.5-.16-.85-.16a2 2 0 0 0-1.17.32c-.3.21-.46.48-.46.81 0 .3.1.52.32.7.21.16.54.3 1 .42l1.13.27c.68.17 1.19.42 1.52.76.34.34.5.78.5 1.31 0 .44-.12.83-.37 1.18-.25.34-.6.61-1.05.81-.44.2-.96.3-1.56.3-.78 0-1.42-.17-1.93-.5a2.25 2.25 0 0 1-.97-1.49l1.11-.28c.1.41.3.72.6.93.3.2.7.3 1.17.3.55 0 .98-.11 1.3-.34.33-.24.5-.52.5-.85 0-.26-.1-.49-.29-.66a1.78 1.78 0 0 0-.85-.41l-1.27-.3a3.04 3.04 0 0 1-1.55-.77 1.9 1.9 0 0 1-.48-1.32c0-.43.12-.81.36-1.14.25-.33.58-.6 1-.78.42-.2.9-.29 1.44-.29.76 0 1.35.17 1.78.5.44.33.74.77.93 1.31ZM47.32 89.67c-.48 0-.92-.08-1.32-.26-.4-.19-.7-.46-.94-.8a2.26 2.26 0 0 1-.34-1.28c0-.44.08-.79.25-1.06.18-.28.4-.5.7-.65.28-.15.6-.27.95-.35.35-.08.7-.14 1.06-.18l1.13-.14c.29-.03.5-.09.63-.16.14-.08.2-.21.2-.4v-.04c0-.5-.13-.87-.4-1.14-.26-.28-.66-.41-1.2-.41a2.1 2.1 0 0 0-1.99 1.15l-1.12-.4a2.67 2.67 0 0 1 1.9-1.63 4.54 4.54 0 0 1 2.01-.07c.32.06.63.18.93.36.3.18.55.45.75.8.2.37.3.85.3 1.46v5.03h-1.17v-1.03h-.06a2.3 2.3 0 0 1-1.14 1.01c-.3.13-.68.2-1.13.2Zm.18-1.05c.46 0 .86-.09 1.17-.27a1.86 1.86 0 0 0 .98-1.61v-1.08c-.05.06-.16.12-.33.17a5.55 5.55 0 0 1-1.2.21l-.5.06c-.3.04-.6.1-.86.2-.26.08-.47.21-.63.39a1 1 0 0 0-.24.7c0 .41.15.72.45.93.3.2.7.3 1.16.3Zm12.72-6.76v1h-3.96v-1h3.96Zm-2.8-1.83h1.17v7.28c0 .33.05.58.14.75.1.16.23.27.38.33.16.05.32.08.5.08a2.08 2.08 0 0 0 .51-.06l.24 1.05a2.38 2.38 0 0 1-.87.14 2.4 2.4 0 0 1-.98-.21 1.94 1.94 0 0 1-.78-.66 1.83 1.83 0 0 1-.31-1.1v-7.6Zm4.57 9.47v-7.64h1.13v1.16h.08c.14-.38.39-.69.75-.92.37-.24.78-.36 1.24-.36a13.08 13.08 0 0 1 .61.02v1.2a3.46 3.46 0 0 0-.71-.08c-.37 0-.7.08-1 .23a1.71 1.71 0 0 0-.93 1.56v4.83h-1.17Zm5.2 0v-7.64h1.18v7.64h-1.18Zm.6-8.9a.83.83 0 0 1-.59-.24.75.75 0 0 1-.24-.56c0-.22.08-.41.24-.57a.83.83 0 0 1 .6-.23c.22 0 .42.08.58.23.16.16.25.35.25.57 0 .21-.09.4-.25.56a.82.82 0 0 1-.59.23Zm5.81 11.92c-.57 0-1.05-.07-1.46-.22a3.1 3.1 0 0 1-1.66-1.3l.93-.66c.1.13.24.3.4.47.17.18.39.34.67.47.29.14.66.2 1.12.2a2.5 2.5 0 0 0 1.53-.44c.4-.3.6-.76.6-1.4v-1.55h-.1l-.37.52c-.16.2-.38.38-.68.54-.29.15-.68.23-1.18.23a3.07 3.07 0 0 1-2.82-1.71 4.45 4.45 0 0 1-.42-2.03c0-.78.14-1.46.41-2.04a3.03 3.03 0 0 1 2.85-1.83c.5 0 .9.08 1.18.24.3.17.52.35.68.56l.37.5h.12v-1.2h1.13v7.85c0 .66-.15 1.19-.45 1.6-.3.41-.69.72-1.19.9-.5.2-1.05.3-1.66.3Zm-.04-4.2c.47 0 .87-.1 1.2-.32.32-.21.56-.52.73-.93.17-.4.26-.88.26-1.45 0-.55-.09-1.03-.25-1.45a2.19 2.19 0 0 0-.74-1 1.98 1.98 0 0 0-1.2-.35 2 2 0 0 0-1.98 1.39c-.17.42-.25.9-.25 1.41 0 .53.09 1 .25 1.4.17.41.42.73.75.96.33.23.74.35 1.23.35Zm8.57 4.2c-.57 0-1.05-.07-1.46-.22A3.1 3.1 0 0 1 79 91l.93-.66c.1.13.24.3.4.47.17.18.4.34.67.47.29.14.66.2 1.12.2.62 0 1.13-.14 1.53-.44.4-.3.6-.76.6-1.4v-1.55h-.1c-.09.14-.2.31-.37.52-.15.2-.38.38-.67.54-.3.15-.7.23-1.19.23a3.07 3.07 0 0 1-2.82-1.71 4.45 4.45 0 0 1-.42-2.03c0-.78.14-1.46.41-2.04a3.03 3.03 0 0 1 2.85-1.83c.5 0 .9.08 1.19.24.29.17.52.35.67.56a8 8 0 0 1 .37.5h.12v-1.2h1.13v7.85a2.45 2.45 0 0 1-1.64 2.5c-.5.2-1.05.3-1.66.3Zm-.04-4.2c.47 0 .87-.1 1.2-.32.32-.21.57-.52.73-.93.17-.4.26-.88.26-1.45 0-.55-.08-1.03-.25-1.45a2.19 2.19 0 0 0-.74-1 1.98 1.98 0 0 0-1.2-.35 2 2 0 0 0-1.98 1.39c-.17.42-.25.9-.25 1.41 0 .53.09 1 .25 1.4.17.41.42.73.75.96.33.23.74.35 1.23.35Zm8.7 1.34a3.27 3.27 0 0 1-3.13-1.86 4.68 4.68 0 0 1-.44-2.06c0-.78.14-1.47.43-2.07a3.23 3.23 0 0 1 3.01-1.9c.4 0 .8.06 1.18.2a2.92 2.92 0 0 1 1.82 1.81 5 5 0 0 1 .28 1.8v.5h-5.88v-1.01h4.69c0-.44-.09-.82-.26-1.16a1.95 1.95 0 0 0-1.83-1.1c-.47 0-.87.12-1.21.36-.34.22-.6.52-.78.9-.18.36-.27.75-.27 1.17v.68c0 .58.1 1.07.3 1.47.2.4.48.7.83.9.36.21.78.32 1.25.32.31 0 .59-.05.84-.13.25-.1.47-.23.65-.4.18-.18.32-.4.42-.67l1.13.32c-.12.38-.32.72-.6 1.01-.28.3-.63.52-1.04.68-.42.16-.88.24-1.4.24Zm4.94-.16v-7.64h1.13v1.16h.08c.14-.38.4-.69.76-.92.36-.24.77-.36 1.23-.36a13.09 13.09 0 0 1 .62.02v1.2a3.44 3.44 0 0 0-.72-.08c-.37 0-.7.08-1 .23a1.71 1.71 0 0 0-.93 1.56v4.83h-1.17Zm11.4.18c-.5 0-.93-.1-1.33-.27-.39-.19-.7-.46-.94-.8a2.26 2.26 0 0 1-.34-1.28c0-.44.08-.79.26-1.06.17-.28.4-.5.69-.65.28-.15.6-.27.95-.35.35-.08.7-.14 1.06-.18l1.13-.14c.29-.03.5-.09.64-.16.13-.08.2-.21.2-.4v-.04c0-.5-.14-.87-.4-1.14-.27-.28-.67-.41-1.21-.41a2.1 2.1 0 0 0-1.99 1.15l-1.11-.4c.2-.46.46-.82.8-1.08.33-.26.69-.44 1.08-.55a4.53 4.53 0 0 1 2.02-.07c.33.06.64.18.93.36.3.18.56.45.75.8.2.37.3.85.3 1.46v5.03h-1.17v-1.03h-.06a2.28 2.28 0 0 1-1.14 1.01c-.3.13-.68.2-1.13.2Zm.17-1.06c.47 0 .86-.09 1.17-.27a1.86 1.86 0 0 0 .98-1.61v-1.08c-.05.06-.16.12-.33.17a5.53 5.53 0 0 1-1.2.21l-.5.06a4 4 0 0 0-.86.2c-.26.08-.47.21-.63.39a1 1 0 0 0-.24.7c0 .41.15.72.45.93.3.2.7.3 1.16.3Zm6.64-3.71v4.59h-1.18v-7.64h1.14v1.2h.1c.17-.4.45-.7.81-.94.37-.24.84-.36 1.41-.36.52 0 .97.11 1.36.32.39.21.69.53.9.96.22.42.33.96.33 1.6v4.86h-1.17v-4.77c0-.6-.16-1.07-.47-1.4a1.65 1.65 0 0 0-1.28-.51c-.38 0-.71.08-1 .24-.3.16-.53.4-.7.71-.17.31-.25.7-.25 1.14Zm9.9 4.75A2.99 2.99 0 0 1 121 87.8a4.86 4.86 0 0 1-.42-2.1c0-.8.14-1.5.42-2.09a3.03 3.03 0 0 1 2.85-1.85c.5 0 .89.09 1.17.25.3.17.52.35.67.56.16.2.28.37.36.5h.1v-3.75h1.18V89.5h-1.14v-1.17h-.14c-.08.14-.2.31-.36.52-.16.21-.39.4-.69.57-.29.16-.68.24-1.17.24Zm.16-1.05c.47 0 .86-.13 1.19-.37.32-.25.57-.6.74-1.03.17-.44.25-.95.25-1.53 0-.57-.08-1.07-.25-1.5a1.96 1.96 0 0 0-1.94-1.37c-.5 0-.9.14-1.24.4-.33.24-.57.59-.74 1.02-.16.43-.24.91-.24 1.45 0 .55.08 1.04.25 1.48.17.44.41.8.74 1.06s.74.39 1.23.39Zm10.76-3.7v4.59h-1.17V79.32h1.17v3.74h.1c.18-.4.45-.71.8-.94a2.6 2.6 0 0 1 1.44-.36c.53 0 .98.1 1.37.32.4.2.7.52.91.95.22.42.33.96.33 1.62v4.85h-1.17v-4.77a2 2 0 0 0-.47-1.41c-.32-.33-.75-.5-1.3-.5-.39 0-.73.08-1.04.24-.3.16-.54.4-.71.71-.18.31-.26.7-.26 1.14Zm9.34 4.77c-.48 0-.92-.1-1.31-.27a2.3 2.3 0 0 1-.94-.8 2.26 2.26 0 0 1-.35-1.28c0-.44.09-.79.26-1.06.17-.28.4-.5.69-.65.29-.15.6-.27.95-.35.35-.08.7-.14 1.06-.18l1.13-.14c.3-.03.5-.09.64-.16.13-.08.2-.21.2-.4v-.04c0-.5-.13-.87-.4-1.14-.27-.28-.67-.41-1.21-.41a2.1 2.1 0 0 0-1.99 1.15l-1.11-.4a2.68 2.68 0 0 1 1.89-1.63 4.54 4.54 0 0 1 2.02-.07c.32.06.63.18.93.36.3.18.55.45.75.8.2.37.3.85.3 1.46v5.03h-1.18v-1.03h-.06a2.3 2.3 0 0 1-1.14 1.01c-.3.13-.68.2-1.13.2Zm.18-1.06c.47 0 .86-.09 1.18-.27a1.86 1.86 0 0 0 .97-1.61v-1.08c-.05.06-.16.12-.33.17a5.55 5.55 0 0 1-1.2.21l-.5.06c-.3.04-.59.1-.85.2-.26.08-.48.21-.64.39a1 1 0 0 0-.24.7c0 .41.15.72.46.93.3.2.69.3 1.15.3Zm10.88-5.05-1.06.3a1.95 1.95 0 0 0-.3-.51c-.12-.17-.3-.3-.51-.42-.22-.1-.5-.16-.84-.16a2 2 0 0 0-1.17.32c-.3.21-.46.48-.46.81 0 .3.1.52.32.7.21.16.54.3 1 .42l1.13.27c.68.17 1.19.42 1.52.76.34.34.5.78.5 1.31 0 .44-.12.83-.37 1.18-.25.34-.6.61-1.05.81-.44.2-.97.3-1.56.3-.78 0-1.42-.17-1.93-.5a2.25 2.25 0 0 1-.97-1.49l1.11-.28c.1.41.3.72.6.93.3.2.7.3 1.17.3.55 0 .98-.11 1.3-.34.33-.24.5-.52.5-.85 0-.26-.1-.49-.29-.66a1.78 1.78 0 0 0-.85-.41l-1.27-.3a3.03 3.03 0 0 1-1.55-.77 1.9 1.9 0 0 1-.48-1.32c0-.43.12-.81.36-1.14.24-.33.58-.6 1-.78.42-.2.9-.29 1.44-.29.76 0 1.35.17 1.78.5.43.33.74.77.93 1.31Zm9.16-1.7v.99h-3.96v-1h3.96Zm-2.8-1.84h1.17v7.28c0 .33.05.58.14.75.1.16.23.27.38.33.16.05.32.08.5.08l.31-.02.2-.04.24 1.05a2.41 2.41 0 0 1-.88.14c-.33 0-.65-.07-.97-.21a1.94 1.94 0 0 1-.79-.66 1.9 1.9 0 0 1-.3-1.1v-7.6Zm5.9 4.88v4.59h-1.17V79.32h1.17v3.74h.1c.18-.4.45-.71.8-.94a2.6 2.6 0 0 1 1.45-.36c.52 0 .97.1 1.36.32.4.2.7.52.91.95.22.42.33.96.33 1.62v4.85h-1.17v-4.77a2 2 0 0 0-.47-1.41c-.31-.33-.75-.5-1.3-.5-.39 0-.73.08-1.03.24-.3.16-.55.4-.72.71a2.3 2.3 0 0 0-.26 1.14Zm10.3 4.75a3.26 3.26 0 0 1-3.13-1.86 4.68 4.68 0 0 1-.43-2.06c0-.78.14-1.47.43-2.07a3.23 3.23 0 0 1 3.01-1.9c.4 0 .8.06 1.18.2a2.92 2.92 0 0 1 1.82 1.81 5 5 0 0 1 .28 1.8v.5H175v-1.01h4.69c0-.44-.09-.82-.26-1.16a1.95 1.95 0 0 0-1.83-1.1c-.47 0-.87.12-1.21.36-.34.22-.6.52-.78.9-.18.36-.28.75-.28 1.17v.68c0 .58.1 1.07.3 1.47.2.4.49.7.84.9.36.21.78.32 1.25.32.3 0 .59-.05.84-.13.25-.1.47-.23.65-.4.18-.18.32-.4.42-.67l1.13.32a2.5 2.5 0 0 1-.6 1.01c-.28.3-.63.52-1.04.68-.42.16-.88.24-1.4.24Zm11.99 0a3.3 3.3 0 0 1-1.85-.5 3.3 3.3 0 0 1-1.2-1.4 4.72 4.72 0 0 1-.41-2.04c0-.77.14-1.46.43-2.05a3.23 3.23 0 0 1 3.01-1.9c.53 0 1.02.1 1.45.3a2.6 2.6 0 0 1 1.57 2.09h-1.17a1.79 1.79 0 0 0-1.83-1.33 1.9 1.9 0 0 0-1.2.35c-.35.23-.61.56-.8 1a3.7 3.7 0 0 0-.29 1.5c0 .6.1 1.1.28 1.54.19.44.45.78.8 1.02.34.24.74.37 1.2.37.31 0 .59-.06.84-.16a1.71 1.71 0 0 0 1-1.18h1.17a2.71 2.71 0 0 1-1.52 2.08c-.43.2-.92.3-1.48.3Zm7.82 0c-.7 0-1.3-.16-1.82-.5a3.35 3.35 0 0 1-1.21-1.37 4.66 4.66 0 0 1-.43-2.07c0-.8.14-1.49.43-2.08.3-.6.7-1.06 1.21-1.38.52-.33 1.13-.5 1.82-.5a3.28 3.28 0 0 1 3.02 1.87c.3.6.44 1.3.44 2.1a4.6 4.6 0 0 1-.44 2.06 3.3 3.3 0 0 1-1.21 1.38 3.3 3.3 0 0 1-1.81.49Zm0-1.05c.52 0 .95-.14 1.29-.4.34-.28.59-.63.75-1.07a4.1 4.1 0 0 0 0-2.85 2.4 2.4 0 0 0-.75-1.06 2 2 0 0 0-1.3-.41 2 2 0 0 0-1.28.4c-.34.28-.6.63-.76 1.07a4.1 4.1 0 0 0-.24 1.43c0 .51.08.99.24 1.42.17.44.42.8.76 1.06.33.27.76.4 1.29.4Zm6.42-3.7v4.59h-1.17v-7.64h1.13v1.2h.1c.18-.4.45-.7.82-.94.36-.24.83-.36 1.4-.36.53 0 .98.11 1.37.32.38.21.69.53.9.96.22.42.32.96.32 1.6v4.86h-1.17v-4.77c0-.6-.16-1.07-.47-1.4-.3-.34-.74-.51-1.28-.51-.37 0-.7.08-1 .24-.3.16-.53.4-.7.71-.16.31-.25.7-.25 1.14Zm10.34-3.05v1h-3.96v-1h3.96Zm-2.8-1.83h1.17v7.28c0 .33.05.58.14.75.1.16.23.27.38.33.16.05.32.08.5.08l.31-.02.2-.04.24 1.05a2.41 2.41 0 0 1-.88.14c-.33 0-.65-.07-.97-.21a1.93 1.93 0 0 1-.79-.66 1.9 1.9 0 0 1-.3-1.1v-7.6Zm7.68 9.63a3.27 3.27 0 0 1-3.13-1.86 4.68 4.68 0 0 1-.43-2.06c0-.78.15-1.47.43-2.07a3.23 3.23 0 0 1 3.01-1.9c.4 0 .8.06 1.18.2a2.92 2.92 0 0 1 1.82 1.81c.2.49.29 1.09.29 1.8v.5h-5.89v-1.01h4.7c0-.44-.1-.82-.27-1.16a1.95 1.95 0 0 0-1.82-1.1c-.47 0-.88.12-1.22.36-.34.22-.6.52-.78.9-.18.36-.27.75-.27 1.17v.68c0 .58.1 1.07.3 1.47.2.4.48.7.84.9a2.7 2.7 0 0 0 2.08.19c.25-.1.47-.23.65-.4.18-.18.32-.4.42-.67l1.14.32c-.12.38-.32.72-.6 1.01-.29.3-.63.52-1.05.68-.41.16-.88.24-1.4.24Zm6.12-4.75v4.59h-1.17v-7.64h1.13v1.2h.1c.18-.4.45-.7.82-.94a2.5 2.5 0 0 1 1.41-.36c.52 0 .97.11 1.36.32.39.21.69.53.9.96.22.42.33.96.33 1.6v4.86h-1.18v-4.77c0-.6-.15-1.07-.46-1.4a1.67 1.67 0 0 0-1.29-.51c-.37 0-.7.08-1 .24-.3.16-.52.4-.7.71-.16.31-.25.7-.25 1.14Zm10.34-3.05v1h-3.96v-1h3.96Zm-2.8-1.83H234v7.28c0 .33.05.58.15.75.1.16.22.27.37.33.16.05.32.08.5.08l.31-.02.2-.04.24 1.05a2.33 2.33 0 0 1-.88.14c-.33 0-.65-.07-.97-.21a1.94 1.94 0 0 1-.78-.66 1.83 1.83 0 0 1-.31-1.1v-7.6Zm9.68 4.88v4.59h-1.18V79.32h1.18v3.74h.1c.17-.4.44-.71.8-.94a2.6 2.6 0 0 1 1.44-.36c.52 0 .98.1 1.37.32.4.2.7.52.91.95.22.42.33.96.33 1.62v4.85h-1.18v-4.77c0-.6-.15-1.08-.47-1.41-.3-.33-.74-.5-1.3-.5-.38 0-.72.08-1.03.24-.3.16-.54.4-.72.71-.17.31-.25.7-.25 1.14Zm7.1 4.59v-7.64h1.17v7.64h-1.18Zm.6-8.9a.83.83 0 0 1-.6-.24.75.75 0 0 1-.24-.56c0-.22.08-.41.24-.57a.83.83 0 0 1 .6-.23c.22 0 .42.08.58.23.16.16.25.35.25.57 0 .21-.09.4-.25.56a.82.82 0 0 1-.59.23Zm5.6 9.06a2.99 2.99 0 0 1-2.83-1.86 5.01 5.01 0 0 1-.41-2.1 5 5 0 0 1 .41-2.09 3.03 3.03 0 0 1 2.85-1.85 2.12 2.12 0 0 1 1.85.81l.36.5h.1v-3.75h1.17V89.5h-1.13v-1.17h-.14l-.37.52c-.16.21-.39.4-.68.57-.3.16-.69.24-1.18.24Zm.16-1.05a2 2 0 0 0 1.2-.37c.32-.25.56-.6.73-1.03.17-.44.26-.95.26-1.53 0-.57-.09-1.07-.25-1.5a1.96 1.96 0 0 0-1.94-1.37c-.5 0-.91.14-1.24.4-.33.24-.58.59-.74 1.02a4.1 4.1 0 0 0-.25 1.45c0 .55.09 1.04.25 1.48.17.44.42.8.75 1.06s.74.39 1.23.39Zm8.54 1.05a2.99 2.99 0 0 1-2.83-1.86 4.86 4.86 0 0 1-.42-2.1c0-.8.14-1.5.42-2.09a3.03 3.03 0 0 1 2.85-1.85c.5 0 .89.09 1.17.25.3.17.52.35.67.56.16.2.28.37.36.5h.1v-3.75h1.18V89.5h-1.14v-1.17h-.14c-.08.14-.2.31-.36.52-.16.21-.4.4-.69.57-.29.16-.68.24-1.17.24Zm.16-1.05c.47 0 .86-.13 1.19-.37.32-.25.57-.6.74-1.03.17-.44.25-.95.25-1.53 0-.57-.08-1.07-.25-1.5a1.95 1.95 0 0 0-1.94-1.37c-.5 0-.9.14-1.24.4-.33.24-.57.59-.74 1.02-.16.43-.24.91-.24 1.45 0 .55.08 1.04.25 1.48.17.44.41.8.74 1.06s.75.39 1.24.39Zm8.85 1.05a3.26 3.26 0 0 1-3.13-1.86 4.68 4.68 0 0 1-.43-2.06c0-.78.14-1.47.43-2.07a3.23 3.23 0 0 1 3.01-1.9c.4 0 .8.06 1.18.2a2.93 2.93 0 0 1 1.82 1.81 5 5 0 0 1 .28 1.8v.5h-5.88v-1.01h4.69c0-.44-.09-.82-.26-1.16a1.95 1.95 0 0 0-1.83-1.1c-.47 0-.87.12-1.21.36-.34.22-.6.52-.78.9-.19.36-.28.75-.28 1.17v.68c0 .58.1 1.07.3 1.47.2.4.48.7.84.9.36.21.78.32 1.25.32.3 0 .59-.05.84-.13.25-.1.46-.23.65-.4.18-.18.32-.4.42-.67l1.13.32c-.12.38-.32.72-.6 1.01-.28.3-.63.52-1.04.68-.42.16-.88.24-1.4.24Zm6.12-4.75v4.59h-1.17v-7.64h1.13v1.2h.1c.18-.4.45-.7.81-.94.37-.24.84-.36 1.42-.36.51 0 .97.11 1.35.32.4.21.7.53.9.96.22.42.33.96.33 1.6v4.86h-1.17v-4.77c0-.6-.16-1.07-.47-1.4a1.65 1.65 0 0 0-1.28-.51c-.38 0-.71.08-1 .24-.3.16-.53.4-.7.71-.17.31-.25.7-.25 1.14Zm11.11 4.59V79.32h1.18v3.76h.1c.08-.14.2-.3.35-.51.16-.2.38-.4.67-.56.3-.16.69-.25 1.18-.25a3.03 3.03 0 0 1 2.85 1.85c.28.6.41 1.29.41 2.1 0 .8-.13 1.5-.4 2.1a2.99 2.99 0 0 1-2.83 1.85c-.5 0-.9-.08-1.19-.24-.3-.17-.52-.36-.68-.57a7.5 7.5 0 0 1-.37-.52h-.13v1.17h-1.14Zm1.16-3.82c0 .58.08 1.09.25 1.53.17.44.41.78.74 1.03.33.24.72.37 1.2.37s.9-.13 1.22-.4c.33-.25.58-.6.75-1.05.17-.44.25-.93.25-1.48a3.9 3.9 0 0 0-.25-1.45c-.16-.43-.4-.78-.74-1.03a1.95 1.95 0 0 0-1.24-.38 1.96 1.96 0 0 0-1.94 1.37c-.16.42-.24.92-.24 1.5Zm7.86 6.68a2.57 2.57 0 0 1-.85-.14l.3-1.03c.28.07.53.1.75.08a.9.9 0 0 0 .58-.3c.17-.17.33-.45.47-.83l.22-.6-2.82-7.68h1.27l2.1 6.09h.09l2.1-6.09h1.28l-3.24 8.75c-.15.4-.33.72-.54.98-.22.26-.47.46-.75.58-.29.13-.6.2-.96.2Zm13.86-2.7a2.99 2.99 0 0 1-2.83-1.86 4.86 4.86 0 0 1-.41-2.1c0-.8.13-1.5.41-2.09a3.03 3.03 0 0 1 2.85-1.85c.5 0 .89.09 1.18.25.29.17.51.35.66.56l.37.5h.1v-3.75h1.17V89.5H316v-1.17h-.14l-.37.52c-.16.21-.39.4-.68.57-.3.16-.69.24-1.18.24Zm.16-1.05a2 2 0 0 0 1.2-.37c.32-.25.56-.6.73-1.03.17-.44.26-.95.26-1.53 0-.57-.09-1.07-.25-1.5a1.95 1.95 0 0 0-1.94-1.37c-.5 0-.91.14-1.25.4-.32.24-.57.59-.74 1.02-.16.43-.24.91-.24 1.45 0 .55.08 1.04.25 1.48.17.44.42.8.75 1.06s.74.39 1.23.39Zm8.85 1.05a3.26 3.26 0 0 1-3.13-1.86 4.68 4.68 0 0 1-.43-2.06c0-.78.15-1.47.43-2.07a3.23 3.23 0 0 1 3.01-1.9c.4 0 .8.06 1.18.2a2.93 2.93 0 0 1 1.82 1.81 5 5 0 0 1 .29 1.8v.5h-5.9v-1.01h4.7c0-.44-.09-.82-.26-1.16a1.95 1.95 0 0 0-1.83-1.1c-.46 0-.87.12-1.21.36-.34.22-.6.52-.78.9-.18.36-.27.75-.27 1.17v.68c0 .58.1 1.07.3 1.47.2.4.48.7.83.9.36.21.78.32 1.25.32.31 0 .59-.05.84-.13.25-.1.47-.23.65-.4.18-.18.32-.4.42-.67l1.13.32a2.5 2.5 0 0 1-.6 1.01c-.28.3-.63.52-1.04.68-.42.16-.88.24-1.4.24Zm8.35-7.8v1h-4.12v-1H331Zm-2.88 7.64v-8.69c0-.44.1-.8.3-1.1.21-.29.48-.5.8-.65a2.94 2.94 0 0 1 2.15-.02l-.33 1.01a5.95 5.95 0 0 0-.25-.07 1.5 1.5 0 0 0-.4-.05c-.4 0-.67.1-.85.3-.17.2-.25.48-.25.86v8.41h-1.17Zm6.55.18c-.48 0-.92-.1-1.31-.27a2.3 2.3 0 0 1-.94-.8 2.26 2.26 0 0 1-.35-1.28c0-.44.08-.79.26-1.06.17-.28.4-.5.69-.65.29-.15.6-.27.95-.35.35-.08.7-.14 1.06-.18l1.13-.14c.3-.03.5-.09.64-.16.13-.08.2-.21.2-.4v-.04c0-.5-.13-.87-.4-1.14-.27-.28-.67-.41-1.21-.41a2.1 2.1 0 0 0-1.99 1.15l-1.11-.4c.2-.46.46-.82.8-1.08.33-.26.7-.44 1.09-.55a4.53 4.53 0 0 1 2.01-.07c.33.06.64.18.93.36.3.18.56.45.75.8.2.37.3.85.3 1.46v5.03H337v-1.03h-.06a2.28 2.28 0 0 1-1.14 1.01c-.3.13-.68.2-1.13.2Zm.18-1.06c.47 0 .86-.09 1.18-.27a1.86 1.86 0 0 0 .97-1.61v-1.08c-.05.06-.16.12-.33.17a5.53 5.53 0 0 1-1.2.21l-.5.06c-.3.04-.59.1-.85.2-.27.08-.48.21-.64.39a1 1 0 0 0-.24.7c0 .41.15.72.45.93.3.2.7.3 1.16.3Zm10.28-2.24v-4.52h1.17v7.64h-1.17v-1.3h-.08a2.5 2.5 0 0 1-.84 1c-.38.27-.85.4-1.43.4-.48 0-.9-.1-1.27-.31a2.19 2.19 0 0 1-.88-.96 3.61 3.61 0 0 1-.32-1.61v-4.86h1.18v4.78c0 .55.15 1 .46 1.33.32.33.72.5 1.2.5a2 2 0 0 0 1.98-2.1Zm4.5-7.06V89.5h-1.18V79.32h1.17Zm5.46 2.54v1h-3.95v-1h3.95Zm-2.8-1.83h1.17v7.28c0 .33.05.58.15.75.1.16.22.27.37.33.16.05.32.08.5.08l.31-.02.2-.04.24 1.05a2.4 2.4 0 0 1-.87.14 2.4 2.4 0 0 1-.98-.21 1.93 1.93 0 0 1-.78-.66 1.9 1.9 0 0 1-.31-1.1v-7.6Z" fill="#1F1F1F"/></g><g filter="url(#b)"><path d="m219.3 122.2-6.71-7.08c-.38-.4-.89-.62-1.42-.62h17.66c-.53 0-1.04.22-1.42.62l-6.7 7.07a.96.96 0 0 1-1.42 0Z" fill="#fff"/></g><path d="M402.43 38.21c-.2 0-.4-.07-.56-.22l-4.16-4.17-4.16 4.17c-.3.3-.8.3-1.1 0-.3-.3-.3-.8 0-1.1l4.16-4.17-4.16-4.16c-.3-.3-.3-.8 0-1.1.3-.3.8-.3 1.1 0l4.16 4.16 4.17-4.16c.3-.3.8-.3 1.1 0 .3.3.3.8 0 1.1l-4.17 4.16 4.17 4.17c.3.3.3.8 0 1.1a.78.78 0 0 1-.56.22Z" fill="#757575"/><defs><filter id="a" x="0" y=".5" width="440" height="144" filterUnits="userSpaceOnUse" color-interpolation-filters="sRGB"><feFlood flood-opacity="0" result="BackgroundImageFix"/><feColorMatrix in="SourceAlpha" values="0 0 0 0 0 0 0 0 0 0 0 0 0 0 0 0 0 0 127 0" result="hardAlpha"/><feOffset dy="6"/><feGaussianBlur stdDeviation="3"/><feColorMatrix values="0 0 0 0 0.2 0 0 0 0 0.2 0 0 0 0 0.2 0 0 0 0.1 0"/><feBlend in2="BackgroundImageFix" result="effect1_dropShadow_821_54464"/><feColorMatrix in="SourceAlpha" values="0 0 0 0 0 0 0 0 0 0 0 0 0 0 0 0 0 0 127 0" result="hardAlpha"/><feOffset dy="10"/><feGaussianBlur stdDeviation="10"/><feColorMatrix values="0 0 0 0 0.2 0 0 0 0 0.2 0 0 0 0 0.2 0 0 0 0.05 0"/><feBlend in2="effect1_dropShadow_821_54464" result="effect2_dropShadow_821_54464"/><feBlend in="SourceGraphic" in2="effect2_dropShadow_821_54464" result="shape"/></filter><filter id="b" x="191.17" y="104.5" width="57.66" height="48" filterUnits="userSpaceOnUse" color-interpolation-filters="sRGB"><feFlood flood-opacity="0" result="BackgroundImageFix"/><feColorMatrix in="SourceAlpha" values="0 0 0 0 0 0 0 0 0 0 0 0 0 0 0 0 0 0 127 0" result="hardAlpha"/><feOffset dy="6"/><feGaussianBlur stdDeviation="3"/><feColorMatrix values="0 0 0 0 0.2 0 0 0 0 0.2 0 0 0 0 0.2 0 0 0 0.25 0"/><feBlend in2="BackgroundImageFix" result="effect1_dropShadow_821_54464"/><feColorMatrix in="SourceAlpha" values="0 0 0 0 0 0 0 0 0 0 0 0 0 0 0 0 0 0 127 0" result="hardAlpha"/><feOffset dy="10"/><feGaussianBlur stdDeviation="10"/><feColorMatrix values="0 0 0 0 0.2 0 0 0 0 0.2 0 0 0 0 0.2 0 0 0 0.2 0"/><feBlend in2="effect1_dropShadow_821_54464" result="effect2_dropShadow_821_54464"/><feBlend in="SourceGraphic" in2="effect2_dropShadow_821_54464" result="shape"/></filter></defs></svg>