<svg width="158" height="24" fill="none" xmlns="http://www.w3.org/2000/svg"><circle cx="8" cy="12" r="5.5" stroke="#0F67F5" stroke-width="5"/><path d="M25.4 18V6.36h3.94c.91 0 1.66.16 2.24.47.58.3 1.01.73 1.3 1.27.28.53.42 1.15.42 1.83 0 .69-.14 1.3-.42 1.83-.29.53-.72.94-1.3 1.25-.57.3-1.31.44-2.22.44h-3.18v-1.27h3.14c.62 0 1.12-.09 1.5-.27.38-.18.66-.44.83-.77.17-.34.26-.74.26-1.2 0-.47-.09-.88-.26-1.23a1.78 1.78 0 0 0-.84-.8c-.38-.2-.89-.3-1.51-.3h-2.48V18H25.4Zm5.49-5.23L33.75 18h-1.64l-2.81-5.23h1.59Zm7.14 5.43c-.55 0-1.06-.1-1.5-.3a2.63 2.63 0 0 1-1.08-.92c-.26-.4-.4-.89-.4-1.46 0-.5.1-.9.3-1.21.2-.32.46-.56.79-.74.33-.18.7-.31 1.09-.4.4-.1.8-.16 1.2-.22l1.3-.15c.33-.04.57-.1.73-.19.15-.08.23-.23.23-.45v-.05c0-.56-.15-1-.46-1.3-.3-.31-.76-.47-1.38-.47a2.39 2.39 0 0 0-2.27 1.32l-1.28-.46a3.06 3.06 0 0 1 2.16-1.86 5.2 5.2 0 0 1 2.3-.08c.38.07.73.2 1.07.4.35.2.63.52.86.93.23.41.34.97.34 1.66V18h-1.34v-1.18h-.07a2.62 2.62 0 0 1-1.3 1.16c-.35.15-.78.22-1.29.22Zm.2-1.2c.53 0 .98-.1 1.35-.31a2.13 2.13 0 0 0 1.1-1.85v-1.23c-.05.07-.17.13-.37.2-.19.04-.4.1-.66.13a29.81 29.81 0 0 1-1.28.17c-.35.05-.67.12-.98.23-.3.1-.54.24-.72.44-.19.2-.28.47-.28.81 0 .47.18.82.52 1.06.35.23.79.35 1.32.35Zm9.54 1.18a3.42 3.42 0 0 1-3.23-2.12 5.67 5.67 0 0 1-.47-2.4c0-.92.16-1.71.47-2.39a3.46 3.46 0 0 1 3.26-2.11c.56 0 1.01.1 1.34.28.34.19.59.4.76.64.18.23.32.43.42.58h.11v-4.3h1.34V18h-1.3v-1.34h-.15l-.42.6a2.5 2.5 0 0 1-.78.64 2.8 2.8 0 0 1-1.35.28Zm.18-1.2c.54 0 1-.14 1.37-.42.37-.29.65-.68.84-1.18.2-.5.3-1.08.3-1.74 0-.66-.1-1.23-.29-1.71a2.24 2.24 0 0 0-2.22-1.56c-.56 0-1.04.14-1.42.43-.37.29-.65.68-.84 1.18a5.03 5.03 0 0 0 0 3.35c.2.5.48.9.86 1.2.37.3.84.45 1.4.45ZM54.41 18V9.27h1.35V18H54.4Zm.69-10.18a.95.95 0 0 1-.68-.27.86.86 0 0 1-.28-.64c0-.25.1-.46.28-.64A.95.95 0 0 1 55.1 6c.26 0 .48.09.67.27.19.18.28.39.28.64s-.1.46-.28.64a.93.93 0 0 1-.67.27Zm6.66 10.36a3.8 3.8 0 0 1-2.08-.56 3.84 3.84 0 0 1-1.38-1.57 5.32 5.32 0 0 1-.5-2.37c0-.9.17-1.7.5-2.38.33-.68.8-1.2 1.38-1.58a3.8 3.8 0 0 1 2.08-.56c.79 0 1.47.19 2.07.56.59.38 1.05.9 1.38 1.58.34.68.5 1.47.5 2.38 0 .9-.16 1.7-.5 2.37-.33.67-.79 1.2-1.38 1.57-.6.37-1.28.56-2.07.56Zm0-1.2c.6 0 1.09-.16 1.47-.46.4-.31.68-.71.86-1.21a4.8 4.8 0 0 0 0-3.26 2.7 2.7 0 0 0-.86-1.22 2.28 2.28 0 0 0-1.47-.47c-.6 0-1.1.16-1.48.47-.39.31-.67.72-.86 1.22a4.8 4.8 0 0 0 0 3.26c.19.5.47.9.86 1.2.39.31.88.47 1.48.47ZM72.44 18V6.36h1.34v4.3h.11l.41-.58c.18-.24.44-.45.77-.64s.78-.28 1.35-.28a3.46 3.46 0 0 1 3.25 2.11c.32.68.47 1.47.47 2.39 0 .92-.15 1.72-.47 2.4a3.42 3.42 0 0 1-3.23 2.12c-.56 0-1-.1-1.35-.28a2.5 2.5 0 0 1-.77-.64 8.62 8.62 0 0 1-.43-.6h-.15V18h-1.3Zm1.32-4.36c0 .66.1 1.24.29 1.74.2.5.47.9.84 1.18.38.28.83.42 1.37.42a2.2 2.2 0 0 0 1.4-.45c.38-.3.66-.7.85-1.2.2-.5.3-1.07.3-1.7 0-.6-.1-1.16-.29-1.65-.19-.5-.47-.9-.85-1.18-.37-.3-.84-.44-1.41-.44a2.24 2.24 0 0 0-2.22 1.57 4.72 4.72 0 0 0-.28 1.7Zm13.94.8V9.26h1.34V18H87.7v-1.48h-.1a2.74 2.74 0 0 1-2.59 1.59 3 3 0 0 1-1.45-.35 2.5 2.5 0 0 1-1-1.1 4.14 4.14 0 0 1-.36-1.84V9.27h1.34v5.46c0 .63.17 1.14.53 1.52.36.38.82.57 1.38.57a2.28 2.28 0 0 0 2.25-2.39Zm7.59-5.17v1.14h-4.52V9.27h4.52Zm-3.2-2.09h1.33v8.32c0 .38.06.66.17.85.11.19.26.31.43.38.18.06.37.09.56.09.15 0 .27 0 .37-.02l.22-.05.28 1.2a2.73 2.73 0 0 1-1 .16 2.7 2.7 0 0 1-1.12-.24 2.21 2.21 0 0 1-.9-.75 2.14 2.14 0 0 1-.35-1.26V7.18Zm9.01 2.1v1.13h-4.52V9.27h4.52Zm-3.2-2.1h1.34v8.32c0 .38.05.66.16.85.12.19.26.31.43.38.18.06.37.09.57.09.14 0 .27 0 .36-.02l.23-.05.27 1.2a2.73 2.73 0 0 1-1 .16 2.7 2.7 0 0 1-1.11-.24 2.21 2.21 0 0 1-.9-.75 2.14 2.14 0 0 1-.35-1.26V7.18Zm8.67 11a3.8 3.8 0 0 1-2.07-.56c-.6-.38-1.06-.9-1.4-1.57a5.33 5.33 0 0 1-.48-2.37c0-.9.16-1.7.49-2.38.33-.68.8-1.2 1.39-1.58a3.8 3.8 0 0 1 2.07-.56c.79 0 1.48.19 2.07.56.6.38 1.05.9 1.38 1.58.34.68.5 1.47.5 2.38 0 .9-.16 1.7-.5 2.37-.33.67-.79 1.2-1.38 1.57-.6.37-1.28.56-2.07.56Zm0-1.2c.6 0 1.1-.16 1.48-.46.38-.31.67-.71.86-1.21a4.76 4.76 0 0 0-.01-3.26c-.18-.5-.47-.91-.85-1.22a2.28 2.28 0 0 0-1.48-.47c-.6 0-1.1.16-1.48.47-.38.31-.67.72-.86 1.22a4.7 4.7 0 0 0-.27 1.63c0 .59.09 1.13.27 1.63.19.5.48.9.86 1.2.39.31.88.47 1.48.47Zm7.34-4.23V18h-1.34V9.27h1.3v1.37h.11c.2-.45.52-.8.93-1.07.42-.27.96-.41 1.62-.41.59 0 1.1.12 1.55.36.44.24.78.6 1.03 1.1.25.48.37 1.1.37 1.83V18h-1.34v-5.45c0-.69-.18-1.22-.53-1.6a1.9 1.9 0 0 0-1.47-.59c-.43 0-.81.1-1.15.28a2 2 0 0 0-.79.81c-.2.36-.29.8-.29 1.3Zm16.4-3.48v1.14h-4.7V9.27h4.7ZM127.03 18V8.07c0-.5.12-.92.35-1.25.24-.34.54-.59.92-.75a3.37 3.37 0 0 1 2.46-.02l-.39 1.15a6.6 6.6 0 0 0-.28-.08 1.72 1.72 0 0 0-.47-.05c-.44 0-.76.11-.96.33-.2.23-.29.55-.29.99V18h-1.34Zm5.18 0V9.27h1.34V18h-1.34Zm.68-10.18a.95.95 0 0 1-.68-.27.86.86 0 0 1-.28-.64c0-.25.1-.46.28-.64a.95.95 0 0 1 .68-.27c.26 0 .48.09.67.27.19.18.28.39.28.64s-.1.46-.28.64a.93.93 0 0 1-.67.27Zm6.77 10.36a3.74 3.74 0 0 1-3.58-2.13 5.36 5.36 0 0 1-.49-2.35c0-.89.17-1.68.5-2.36a3.7 3.7 0 0 1 3.44-2.18c.45 0 .9.07 1.34.23a3.33 3.33 0 0 1 2.08 2.08c.22.55.33 1.24.33 2.05v.57h-6.73v-1.16h5.36c0-.5-.1-.93-.3-1.32a2.23 2.23 0 0 0-2.08-1.25c-.54 0-1 .14-1.4.4-.38.26-.67.6-.88 1.02a3 3 0 0 0-.31 1.36v.77c0 .66.1 1.22.34 1.68a2.48 2.48 0 0 0 2.38 1.39c.35 0 .67-.05.96-.15.28-.1.53-.25.74-.45.2-.2.37-.46.48-.77l1.3.37a2.99 2.99 0 0 1-1.89 1.93c-.47.18-1 .27-1.59.27Zm7-11.82V18h-1.34V6.36h1.34Zm5.75 11.82a3.41 3.41 0 0 1-3.24-2.12 5.66 5.66 0 0 1-.47-2.4c0-.92.16-1.71.47-2.39a3.47 3.47 0 0 1 3.25-2.11c.58 0 1.03.1 1.36.28.33.19.58.4.76.64.18.23.31.43.41.58h.12v-4.3h1.34V18h-1.3v-1.34h-.16c-.1.16-.23.36-.42.6a2.5 2.5 0 0 1-.78.64 2.8 2.8 0 0 1-1.34.28Zm.18-1.2c.54 0 1-.14 1.36-.42.37-.29.66-.68.85-1.18.2-.5.29-1.08.29-1.74 0-.66-.1-1.23-.29-1.71-.18-.5-.46-.88-.83-1.15a2.24 2.24 0 0 0-1.38-.42c-.57 0-1.04.15-1.42.44a2.6 2.6 0 0 0-.85 1.18 4.77 4.77 0 0 0-.28 1.66c0 .62.1 1.18.29 1.69.2.5.47.9.85 1.2.38.3.85.45 1.41.45Z" fill="#333"/></svg>