<svg width="337" height="50" fill="none" xmlns="http://www.w3.org/2000/svg"><path d="M39.66 30H32.9v-1.1h6.75V30Zm-2.15-3.96h-4.63v-1.13h4.63v1.13Zm-2.47-3.14.16 4.32c.02.41-.02.8-.11 1.15-.1.36-.28.63-.54.81l-1.24-.27c.2 0 .35-.1.46-.3.1-.2.18-.43.21-.7.04-.26.05-.5.05-.7l-.14-4.3a3.2 3.2 0 0 1 .4-1.8c.28-.49.66-.84 1.14-1.08a3.3 3.3 0 0 1 2.77-.1 2.73 2.73 0 0 1 1.54 1.67c.1.36.11.72.02 1.1l-1.16-.32c.05-.34 0-.63-.16-.87a1.4 1.4 0 0 0-.62-.55 1.95 1.95 0 0 0-1.77.04c-.3.15-.54.38-.72.7a2.3 2.3 0 0 0-.29 1.2Zm10.09-3.22c.42 0 .83.08 1.25.24.42.15.8.41 1.14.77.35.36.63.85.83 1.47a10.16 10.16 0 0 1 .05 4.74c-.16.7-.4 1.3-.73 1.77-.32.48-.7.85-1.16 1.1-.45.24-.97.37-1.54.37-.57 0-1.08-.11-1.53-.34a3 3 0 0 1-1.63-2.37H43c.12.47.34.86.66 1.16.33.3.76.46 1.3.46.78 0 1.4-.35 1.86-1.03.46-.69.68-1.66.68-2.91h-.08a3.12 3.12 0 0 1-1.5 1.19 3.1 3.1 0 0 1-3.76-1.47 3.5 3.5 0 0 1-.44-1.75c0-.62.14-1.2.41-1.71a3.23 3.23 0 0 1 2.99-1.7Zm0 1.1a2.15 2.15 0 0 0-1.93 1.14 2.52 2.52 0 0 0 0 2.32 2.09 2.09 0 0 0 1.89 1.13 2.11 2.11 0 0 0 1.59-.7c.2-.22.36-.47.48-.74a2.28 2.28 0 0 0-.11-1.99 2.29 2.29 0 0 0-.79-.84c-.33-.22-.7-.33-1.13-.33Zm8.73-1.1c.42 0 .84.08 1.26.24a3 3 0 0 1 1.14.77c.34.36.62.85.83 1.47a10.17 10.17 0 0 1 .05 4.74c-.16.7-.4 1.3-.73 1.77-.32.48-.7.85-1.16 1.1-.46.24-.97.37-1.55.37-.57 0-1.07-.11-1.52-.34a3 3 0 0 1-1.64-2.37h1.22c.1.47.32.86.65 1.16.33.3.76.46 1.3.46.78 0 1.4-.35 1.85-1.03.46-.69.69-1.66.69-2.91h-.08a3.12 3.12 0 0 1-1.51 1.19 3.1 3.1 0 0 1-3.76-1.47 3.5 3.5 0 0 1-.44-1.75c0-.62.14-1.2.42-1.71a3.23 3.23 0 0 1 2.98-1.7Zm0 1.1a2.13 2.13 0 0 0-1.92 1.14 2.4 2.4 0 0 0-.28 1.16 2.22 2.22 0 0 0 1.05 1.98c.32.2.7.3 1.11.3a2.11 2.11 0 0 0 1.6-.69c.2-.22.36-.47.48-.74a2.28 2.28 0 0 0-.11-1.99 2.29 2.29 0 0 0-.8-.84c-.32-.22-.7-.33-1.13-.33Zm29.62-1.42h2.11v7.6a4 4 0 0 1-2.24 3.68c-.7.36-1.53.54-2.48.54s-1.78-.18-2.49-.53a4 4 0 0 1-1.65-1.49 4.1 4.1 0 0 1-.58-2.2v-7.6h2.1v7.43c0 .48.11.92.32 1.3.22.37.52.67.91.89.4.2.86.32 1.39.32.53 0 1-.11 1.39-.32a2.47 2.47 0 0 0 1.22-2.19v-7.43Zm6.37 6.53V31h-2.06v-8.73h1.97v1.49h.1c.2-.5.52-.88.96-1.17.44-.29.99-.43 1.64-.43.6 0 1.13.13 1.58.39.45.25.8.63 1.04 1.11.25.5.37 1.09.37 1.78V31h-2.06v-5.24c0-.58-.15-1.04-.45-1.37a1.6 1.6 0 0 0-1.25-.5c-.36 0-.68.09-.96.25-.27.15-.49.38-.65.67-.15.3-.23.66-.23 1.08Zm9.75-6.53V31h-2.06V19.36h2.06ZM101.7 31v-8.73h2.06V31h-2.06Zm1.04-9.97c-.33 0-.6-.1-.84-.32a1.04 1.04 0 0 1-.36-.79c0-.31.12-.57.36-.79.23-.22.51-.33.84-.33.33 0 .6.11.84.33a1.06 1.06 0 0 1 0 1.58c-.23.22-.51.32-.84.32Zm3.14 9.97v-8.73h1.96v1.49h.1c.19-.5.49-.9.9-1.17.43-.29.93-.43 1.51-.43.6 0 1.1.14 1.5.43.4.29.7.67.86 1.17h.1c.18-.49.51-.88.97-1.16.46-.3 1-.44 1.64-.44.8 0 1.46.25 1.97.76.5.5.76 1.25.76 2.22V31h-2.06v-5.54c0-.54-.15-.94-.44-1.19a1.54 1.54 0 0 0-1.05-.38c-.5 0-.89.16-1.17.47-.27.3-.41.7-.41 1.2V31H111v-5.63c0-.45-.14-.8-.4-1.07-.28-.27-.63-.4-1.07-.4-.3 0-.56.07-.8.22s-.44.36-.58.63a1.9 1.9 0 0 0-.22.94V31h-2.05Zm14.35 0v-8.73h2.06V31h-2.06Zm1.04-9.97c-.33 0-.6-.1-.84-.32a1.04 1.04 0 0 1-.36-.79c0-.31.12-.57.36-.79.23-.22.51-.33.84-.33.33 0 .6.11.84.33a1.06 1.06 0 0 1 0 1.58c-.23.22-.51.32-.84.32Zm7.5 1.24v1.6h-5.02v-1.6h5.01ZM125 20.18h2.05v8.2c0 .27.04.48.13.63.08.15.2.24.34.3.14.05.3.08.46.08a2.02 2.02 0 0 0 .6-.08l.35 1.6a4.63 4.63 0 0 1-1.2.2 3.3 3.3 0 0 1-1.4-.22 2.16 2.16 0 0 1-.98-.81 2.4 2.4 0 0 1-.35-1.36v-8.54Zm9.26 11a4.5 4.5 0 0 1-2.26-.55 3.7 3.7 0 0 1-1.46-1.56 5.21 5.21 0 0 1-.51-2.38c0-.9.17-1.69.5-2.37a3.87 3.87 0 0 1 3.63-2.16c.53 0 1.04.09 1.52.26s.9.44 1.27.8c.37.36.67.81.88 1.37.2.55.31 1.21.31 1.98v.63H131v-1.4h5.18a1.96 1.96 0 0 0-.95-1.78c-.3-.18-.64-.27-1.03-.27a2 2 0 0 0-1.11.3c-.32.2-.57.47-.75.8a2.3 2.3 0 0 0-.27 1.08v1.2c0 .52.1.95.28 1.31.19.36.45.64.78.83.34.2.73.29 1.17.29.3 0 .57-.04.81-.13a1.65 1.65 0 0 0 1.04-1l1.92.22a3 3 0 0 1-.7 1.33c-.33.37-.76.67-1.29.87-.53.2-1.13.31-1.8.31Zm8.86-.03A3.3 3.3 0 0 1 140 29.1a5.71 5.71 0 0 1-.47-2.44c0-.97.16-1.79.47-2.46a3.35 3.35 0 0 1 4.39-1.77c.33.17.6.38.78.62.2.24.35.46.45.68h.09v-4.36h2.06V31h-2.02v-1.38h-.13c-.1.22-.26.44-.46.68a2.53 2.53 0 0 1-2.04.85Zm.58-1.68c.43 0 .8-.12 1.11-.36.3-.23.54-.57.7-1 .16-.41.24-.9.24-1.47s-.08-1.06-.24-1.48a2.09 2.09 0 0 0-.7-.97 1.8 1.8 0 0 0-1.11-.34c-.46 0-.84.12-1.15.35-.3.24-.54.57-.7 1-.15.41-.23.9-.23 1.44 0 .54.08 1.03.24 1.46.16.42.39.76.7 1 .3.24.69.37 1.14.37ZM153.93 31v-8.73h1.97v1.49h.1c.18-.5.48-.9.9-1.17a2.6 2.6 0 0 1 1.5-.43c.6 0 1.1.14 1.5.43.41.29.7.67.87 1.17h.09c.2-.49.52-.88.97-1.16.47-.3 1.01-.44 1.65-.44.8 0 1.46.25 1.96.76.51.5.77 1.25.77 2.22V31h-2.07v-5.54c0-.54-.14-.94-.43-1.19a1.54 1.54 0 0 0-1.06-.38c-.5 0-.88.16-1.16.47-.28.3-.42.7-.42 1.2V31h-2.01v-5.63c0-.45-.14-.8-.41-1.07-.27-.27-.62-.4-1.06-.4a1.54 1.54 0 0 0-1.38.85 1.9 1.9 0 0 0-.22.94V31h-2.06Zm18.17.17c-.85 0-1.6-.19-2.22-.56a3.81 3.81 0 0 1-1.45-1.58 5.17 5.17 0 0 1-.51-2.36c0-.9.17-1.7.5-2.37a3.8 3.8 0 0 1 1.46-1.58 4.23 4.23 0 0 1 2.22-.56c.85 0 1.59.19 2.21.56.63.38 1.11.9 1.45 1.58.35.68.52 1.47.52 2.37 0 .9-.17 1.69-.52 2.36-.34.68-.82 1.2-1.45 1.58-.62.37-1.36.56-2.21.56Zm0-1.65c.47 0 .86-.12 1.17-.38.3-.26.54-.6.7-1.03.15-.43.22-.91.22-1.45a4.1 4.1 0 0 0-.23-1.44 2.3 2.3 0 0 0-.7-1.04 1.7 1.7 0 0 0-1.15-.39c-.47 0-.87.13-1.18.39-.31.25-.55.6-.7 1.04-.15.43-.23.91-.23 1.44 0 .54.08 1.02.23 1.45.15.43.39.77.7 1.03.31.26.7.38 1.18.38Zm9.73 1.65a3.83 3.83 0 0 1-3.68-2.16 5.23 5.23 0 0 1-.5-2.34c0-.89.17-1.67.51-2.35.34-.68.82-1.2 1.44-1.59a4.16 4.16 0 0 1 2.22-.57c.7 0 1.34.13 1.88.4a3.21 3.21 0 0 1 1.87 2.74h-1.97a1.88 1.88 0 0 0-.56-1.06c-.3-.28-.7-.42-1.2-.42-.41 0-.78.11-1.1.34-.32.22-.56.54-.74.96a3.9 3.9 0 0 0-.26 1.52c0 .6.08 1.1.26 1.53.17.42.42.75.73.98.32.23.7.34 1.12.34.3 0 .57-.05.81-.17.24-.11.45-.28.61-.5.16-.22.27-.49.33-.8h1.97a3.23 3.23 0 0 1-1.83 2.76 4.3 4.3 0 0 1-1.9.39Zm7.3-2.9v-2.5h.33l3.13-3.5h2.4l-3.85 4.3h-.43l-1.58 1.7ZM187.26 31V19.36h2.06V31h-2.06Zm5.48 0-2.84-3.97 1.38-1.45L195.2 31h-2.46Zm11.96-8.73v1.6h-5.02v-1.6h5.02Zm-3.78-2.09h2.05v8.2c0 .27.05.48.13.63.09.15.2.24.34.3.14.05.3.08.47.08a2.03 2.03 0 0 0 .6-.08l.34 1.6a4.63 4.63 0 0 1-1.2.2c-.52.02-.98-.05-1.4-.22a2.16 2.16 0 0 1-.98-.81 2.4 2.4 0 0 1-.35-1.36v-8.54Zm9.27 11a4.5 4.5 0 0 1-2.27-.55 3.7 3.7 0 0 1-1.46-1.56 5.21 5.21 0 0 1-.51-2.38c0-.9.17-1.69.5-2.37a3.87 3.87 0 0 1 3.63-2.16c.54 0 1.04.09 1.52.26s.9.44 1.27.8c.38.36.67.81.88 1.37.21.55.32 1.21.32 1.98v.63h-7.16v-1.4h5.19c0-.4-.1-.74-.26-1.05-.17-.3-.4-.55-.7-.73-.3-.18-.64-.27-1.03-.27a2 2 0 0 0-1.11.3c-.32.2-.57.47-.75.8a2.3 2.3 0 0 0-.26 1.08v1.2c0 .52.09.95.28 1.31.18.36.44.64.77.83.34.2.73.29 1.17.29.3 0 .57-.04.82-.13.24-.08.45-.21.63-.38.18-.16.31-.37.4-.62l1.92.22a3 3 0 0 1-.7 1.33c-.33.37-.76.67-1.29.87-.52.2-1.13.31-1.8.31Zm12.52-6.6-1.88.2a1.5 1.5 0 0 0-.8-.93 1.9 1.9 0 0 0-.8-.16c-.44 0-.8.1-1.09.28-.29.19-.43.43-.42.72 0 .26.09.46.27.62.2.16.52.3.96.4l1.49.31c.82.18 1.44.46 1.84.85.4.39.6.9.61 1.52 0 .55-.16 1.03-.48 1.45a3.1 3.1 0 0 1-1.31.98c-.56.23-1.2.35-1.94.35a4.48 4.48 0 0 1-2.57-.67 2.7 2.7 0 0 1-1.17-1.88l2-.2c.1.4.29.7.59.9.3.2.68.3 1.15.3.49 0 .88-.1 1.18-.3.3-.2.44-.45.44-.75a.8.8 0 0 0-.29-.62 2.02 2.02 0 0 0-.88-.37l-1.5-.31a3.54 3.54 0 0 1-1.85-.88 2.2 2.2 0 0 1-.6-1.58c0-.54.15-1 .44-1.4.3-.4.72-.7 1.25-.92a4.82 4.82 0 0 1 1.84-.33c1.03 0 1.83.22 2.42.65.59.44.95 1.03 1.1 1.77Zm6.24-2.3v1.58h-5.02v-1.59h5.02Zm-3.78-2.1h2.05v8.2c0 .27.05.48.13.63.09.15.2.24.34.3.14.05.3.08.47.08a2.03 2.03 0 0 0 .6-.08l.34 1.6a4.63 4.63 0 0 1-1.2.2c-.52.02-.98-.05-1.4-.22a2.16 2.16 0 0 1-.98-.81 2.4 2.4 0 0 1-.35-1.36v-8.54Zm12.27 4.4-1.88.2a1.51 1.51 0 0 0-.27-.53 1.4 1.4 0 0 0-.53-.4 1.9 1.9 0 0 0-.8-.16c-.43 0-.8.1-1.08.28-.3.19-.43.43-.43.72 0 .26.09.46.28.62.2.16.51.3.95.4l1.5.31c.82.18 1.43.46 1.83.85.4.39.61.9.62 1.52 0 .55-.17 1.03-.49 1.45a3.1 3.1 0 0 1-1.3.98c-.57.23-1.21.35-1.94.35a4.48 4.48 0 0 1-2.58-.67 2.7 2.7 0 0 1-1.16-1.88l2-.2c.1.4.28.7.58.9.3.2.68.3 1.15.3.5 0 .88-.1 1.18-.3.3-.2.45-.45.45-.75 0-.25-.1-.45-.3-.62a2.03 2.03 0 0 0-.88-.37l-1.49-.31a3.54 3.54 0 0 1-1.85-.88 2.2 2.2 0 0 1-.6-1.58c0-.54.14-1 .44-1.4.3-.4.71-.7 1.24-.92a4.83 4.83 0 0 1 1.85-.33 4 4 0 0 1 2.41.65c.6.44.96 1.03 1.1 1.77Z" fill="#1F1F1F"/><circle cx="297" cy="25" r="7.5" stroke="#545454"/><rect x=".5" y=".5" width="336" height="49" rx="3.5" stroke="#AFAFAF"/></svg>