<svg width="199" height="63" viewBox="0 0 199 63" fill="none" xmlns="http://www.w3.org/2000/svg">
<rect x="0.5" y="23.5" width="198" height="39" rx="3.5" fill="white"/>
<path d="M29.0871 50.8626C28.8871 50.8626 28.6871 50.7876 28.5371 50.6376L23.8746 45.9751C23.5746 45.6751 23.5746 45.1751 23.8746 44.8751C24.1746 44.5751 24.6746 44.5751 24.9746 44.8751L29.6371 49.5376C29.9371 49.8376 29.9371 50.3376 29.6371 50.6376C29.4871 50.7876 29.2871 50.8626 29.0871 50.8626Z" fill="#757575"/>
<path d="M20.7496 47.5251C17.5621 47.5251 14.9746 44.9251 14.9746 41.7501C14.9746 38.5751 17.5621 35.9751 20.7496 35.9751C23.9371 35.9751 26.5246 38.5751 26.5246 41.7501C26.5246 44.9251 23.9246 47.5251 20.7496 47.5251ZM20.7496 37.5251C18.4246 37.5251 16.5246 39.4126 16.5246 41.7501C16.5246 44.0876 18.4121 45.9751 20.7496 45.9751C23.0871 45.9751 24.9746 44.0876 24.9746 41.7501C24.9746 39.4126 23.0871 37.5251 20.7496 37.5251Z" fill="#757575"/>
<path d="M47.7727 40.2727C47.7045 39.697 47.428 39.25 46.9432 38.9318C46.4583 38.6136 45.8636 38.4545 45.1591 38.4545C44.6439 38.4545 44.1932 38.5379 43.8068 38.7045C43.4242 38.8712 43.125 39.1004 42.9091 39.392C42.697 39.6837 42.5909 40.0152 42.5909 40.3864C42.5909 40.697 42.6648 40.964 42.8125 41.1875C42.964 41.4072 43.1572 41.5909 43.392 41.7386C43.6269 41.8826 43.8731 42.0019 44.1307 42.0966C44.3883 42.1875 44.625 42.2614 44.8409 42.3182L46.0227 42.6364C46.3258 42.7159 46.6629 42.8258 47.0341 42.9659C47.4091 43.1061 47.767 43.2973 48.108 43.5398C48.4527 43.7784 48.7367 44.0852 48.9602 44.4602C49.1837 44.8352 49.2955 45.2955 49.2955 45.8409C49.2955 46.4697 49.1307 47.0379 48.8011 47.5455C48.4754 48.053 47.9981 48.4564 47.3693 48.7557C46.7443 49.0549 45.9848 49.2045 45.0909 49.2045C44.2576 49.2045 43.536 49.0701 42.9261 48.8011C42.3201 48.5322 41.8428 48.1572 41.4943 47.6761C41.1496 47.1951 40.9545 46.6364 40.9091 46H42.3636C42.4015 46.4394 42.5492 46.803 42.8068 47.0909C43.0682 47.375 43.3977 47.5871 43.7955 47.7273C44.197 47.8636 44.6288 47.9318 45.0909 47.9318C45.6288 47.9318 46.1117 47.8447 46.5398 47.6705C46.9678 47.4924 47.3068 47.2462 47.5568 46.9318C47.8068 46.6136 47.9318 46.2424 47.9318 45.8182C47.9318 45.4318 47.8239 45.1174 47.608 44.875C47.392 44.6326 47.108 44.4356 46.7557 44.2841C46.4034 44.1326 46.0227 44 45.6136 43.8864L44.1818 43.4773C43.2727 43.2159 42.553 42.8428 42.0227 42.358C41.4924 41.8731 41.2273 41.2386 41.2273 40.4545C41.2273 39.803 41.4034 39.2348 41.7557 38.75C42.1117 38.2614 42.589 37.8826 43.1875 37.6136C43.7898 37.3409 44.4621 37.2045 45.2045 37.2045C45.9545 37.2045 46.6212 37.339 47.2045 37.608C47.7879 37.8731 48.25 38.2367 48.5909 38.6989C48.9356 39.161 49.1174 39.6856 49.1364 40.2727H47.7727ZM55.0895 49.1818C54.2486 49.1818 53.5232 48.9962 52.9134 48.625C52.3073 48.25 51.8395 47.7273 51.5099 47.0568C51.1842 46.3826 51.0213 45.5985 51.0213 44.7045C51.0213 43.8106 51.1842 43.0227 51.5099 42.3409C51.8395 41.6553 52.2978 41.1212 52.8849 40.7386C53.4759 40.3523 54.1652 40.1591 54.9531 40.1591C55.4077 40.1591 55.8565 40.2348 56.2997 40.3864C56.7429 40.5379 57.1463 40.7841 57.5099 41.125C57.8736 41.4621 58.1634 41.9091 58.3793 42.4659C58.5952 43.0227 58.7031 43.7083 58.7031 44.5227V45.0909H51.9759V43.9318H57.3395C57.3395 43.4394 57.241 43 57.044 42.6136C56.8509 42.2273 56.5743 41.9223 56.2145 41.6989C55.8584 41.4754 55.438 41.3636 54.9531 41.3636C54.419 41.3636 53.9569 41.4962 53.5668 41.7614C53.1804 42.0227 52.883 42.3636 52.6747 42.7841C52.4664 43.2045 52.3622 43.6553 52.3622 44.1364V44.9091C52.3622 45.5682 52.4759 46.1269 52.7031 46.5852C52.9342 47.0398 53.2543 47.3864 53.6634 47.625C54.0724 47.8598 54.5478 47.9773 55.0895 47.9773C55.4418 47.9773 55.7599 47.928 56.044 47.8295C56.3319 47.7273 56.58 47.5758 56.7884 47.375C56.9967 47.1705 57.1577 46.9167 57.2713 46.6136L58.5668 46.9773C58.4304 47.4167 58.2012 47.803 57.8793 48.1364C57.5573 48.4659 57.1596 48.7235 56.6861 48.9091C56.2126 49.0909 55.6804 49.1818 55.0895 49.1818ZM63.3111 49.2045C62.758 49.2045 62.2562 49.1004 61.8054 48.892C61.3546 48.6799 60.9967 48.375 60.7315 47.9773C60.4664 47.5758 60.3338 47.0909 60.3338 46.5227C60.3338 46.0227 60.4323 45.6174 60.6293 45.3068C60.8262 44.9924 61.0895 44.7462 61.419 44.5682C61.7486 44.3902 62.1122 44.2576 62.5099 44.1705C62.9115 44.0795 63.3149 44.0076 63.7202 43.9545C64.2505 43.8864 64.6804 43.8352 65.0099 43.8011C65.3433 43.7633 65.5857 43.7008 65.7372 43.6136C65.8925 43.5265 65.9702 43.375 65.9702 43.1591V43.1136C65.9702 42.553 65.8168 42.1174 65.5099 41.8068C65.2069 41.4962 64.7467 41.3409 64.1293 41.3409C63.4891 41.3409 62.9872 41.4811 62.6236 41.7614C62.2599 42.0417 62.0043 42.3409 61.8565 42.6591L60.5838 42.2045C60.8111 41.6742 61.1141 41.2614 61.4929 40.9659C61.8755 40.6667 62.2921 40.4583 62.7429 40.3409C63.1974 40.2197 63.6444 40.1591 64.0838 40.1591C64.3641 40.1591 64.6861 40.1932 65.0497 40.2614C65.4171 40.3258 65.7713 40.4602 66.1122 40.6648C66.4569 40.8693 66.7429 41.178 66.9702 41.5909C67.1974 42.0038 67.3111 42.5568 67.3111 43.25V49H65.9702V47.8182H65.902C65.8111 48.0076 65.6596 48.2102 65.4474 48.4261C65.2353 48.642 64.9531 48.8258 64.6009 48.9773C64.2486 49.1288 63.8187 49.2045 63.3111 49.2045ZM63.5156 48C64.0459 48 64.4929 47.8958 64.8565 47.6875C65.224 47.4792 65.5005 47.2102 65.6861 46.8807C65.8755 46.5511 65.9702 46.2045 65.9702 45.8409V44.6136C65.9134 44.6818 65.7884 44.7443 65.5952 44.8011C65.4058 44.8542 65.1861 44.9015 64.9361 44.9432C64.6899 44.9811 64.4493 45.0152 64.2145 45.0455C63.9834 45.072 63.7959 45.0947 63.652 45.1136C63.3035 45.1591 62.9777 45.233 62.6747 45.3352C62.3755 45.4337 62.133 45.5833 61.9474 45.7841C61.7656 45.9811 61.6747 46.25 61.6747 46.5909C61.6747 47.0568 61.8471 47.4091 62.1918 47.6477C62.5402 47.8826 62.9815 48 63.5156 48ZM69.7585 49V40.2727H71.054V41.5909H71.1449C71.304 41.1591 71.5919 40.8087 72.0085 40.5398C72.4252 40.2708 72.8949 40.1364 73.4176 40.1364C73.5161 40.1364 73.6392 40.1383 73.7869 40.142C73.9347 40.1458 74.0464 40.1515 74.1222 40.1591V41.5227C74.0767 41.5114 73.9725 41.4943 73.8097 41.4716C73.6506 41.4451 73.482 41.4318 73.304 41.4318C72.8797 41.4318 72.5009 41.5208 72.1676 41.6989C71.8381 41.8731 71.5767 42.1155 71.3835 42.4261C71.1941 42.733 71.0994 43.0833 71.0994 43.4773V49H69.7585ZM78.9915 49.1818C78.1733 49.1818 77.4688 48.9886 76.8778 48.6023C76.2869 48.2159 75.8324 47.6837 75.5142 47.0057C75.196 46.3277 75.0369 45.553 75.0369 44.6818C75.0369 43.7955 75.1998 43.0133 75.5256 42.3352C75.8551 41.6534 76.3134 41.1212 76.9006 40.7386C77.4915 40.3523 78.1809 40.1591 78.9688 40.1591C79.5824 40.1591 80.1354 40.2727 80.6278 40.5C81.1203 40.7273 81.5237 41.0455 81.8381 41.4545C82.1525 41.8636 82.3475 42.3409 82.4233 42.8864H81.0824C80.9801 42.4886 80.7528 42.1364 80.4006 41.8295C80.0521 41.5189 79.5824 41.3636 78.9915 41.3636C78.4688 41.3636 78.0104 41.5 77.6165 41.7727C77.2263 42.0417 76.9214 42.4223 76.7017 42.9148C76.4858 43.4034 76.3778 43.9773 76.3778 44.6364C76.3778 45.3106 76.4839 45.8977 76.696 46.3977C76.9119 46.8977 77.215 47.286 77.6051 47.5625C77.9991 47.839 78.4612 47.9773 78.9915 47.9773C79.34 47.9773 79.6562 47.9167 79.9403 47.7955C80.2244 47.6742 80.465 47.5 80.6619 47.2727C80.8589 47.0455 80.9991 46.7727 81.0824 46.4545H82.4233C82.3475 46.9697 82.16 47.4337 81.8608 47.8466C81.5653 48.2557 81.1733 48.5814 80.6847 48.8239C80.1998 49.0625 79.6354 49.1818 78.9915 49.1818ZM85.7244 43.75V49H84.3835V37.3636H85.7244V41.6364H85.8381C86.0426 41.1856 86.3494 40.8277 86.7585 40.5625C87.1714 40.2936 87.7206 40.1591 88.4062 40.1591C89.0009 40.1591 89.5218 40.2784 89.9688 40.517C90.4157 40.7519 90.7623 41.1136 91.0085 41.6023C91.2585 42.0871 91.3835 42.7045 91.3835 43.4545V49H90.0426V43.5455C90.0426 42.8523 89.8627 42.3163 89.5028 41.9375C89.1468 41.5549 88.6525 41.3636 88.0199 41.3636C87.5805 41.3636 87.1866 41.4564 86.8381 41.642C86.4934 41.8277 86.2206 42.0985 86.0199 42.4545C85.8229 42.8106 85.7244 43.2424 85.7244 43.75Z" fill="#1F1F1F"/>
<path d="M181.425 48.2121C181.225 48.2121 181.025 48.1371 180.875 47.9871L176.712 43.8246L172.55 47.9871C172.25 48.2871 171.75 48.2871 171.45 47.9871C171.15 47.6871 171.15 47.1871 171.45 46.8871L175.612 42.7246L171.45 38.5621C171.15 38.2621 171.15 37.7621 171.45 37.4621C171.75 37.1621 172.25 37.1621 172.55 37.4621L176.712 41.6246L180.875 37.4621C181.175 37.1621 181.675 37.1621 181.975 37.4621C182.275 37.7621 182.275 38.2621 181.975 38.5621L177.812 42.7246L181.975 46.8871C182.275 47.1871 182.275 47.6871 181.975 47.9871C181.825 48.1371 181.625 48.2121 181.425 48.2121Z" fill="#757575"/>
<rect x="0.5" y="23.5" width="198" height="39" rx="3.5" stroke="#545454"/>
<path d="M6.53764 3.61719C6.49124 3.183 6.29569 2.84493 5.95099 2.60298C5.60961 2.36103 5.16548 2.24006 4.61861 2.24006C4.23414 2.24006 3.90436 2.29806 3.62926 2.41406C3.35417 2.53007 3.1437 2.6875 2.99787 2.88636C2.85204 3.08523 2.77746 3.31226 2.77415 3.56747C2.77415 3.77959 2.82221 3.96354 2.91832 4.11932C3.01776 4.27509 3.15199 4.40767 3.32102 4.51705C3.49006 4.62311 3.67732 4.71259 3.88281 4.78551C4.08831 4.85843 4.29545 4.91974 4.50426 4.96946L5.45881 5.2081C5.84328 5.29758 6.21283 5.41856 6.56747 5.57102C6.92543 5.72348 7.24527 5.91572 7.52699 6.14773C7.81203 6.37973 8.03741 6.6598 8.20312 6.98793C8.36884 7.31605 8.4517 7.70052 8.4517 8.14134C8.4517 8.73793 8.29924 9.26326 7.99432 9.71733C7.68939 10.1681 7.24858 10.5211 6.67188 10.7763C6.09848 11.0282 5.40412 11.1541 4.58878 11.1541C3.79664 11.1541 3.1089 11.0315 2.52557 10.7862C1.94555 10.541 1.49148 10.183 1.16335 9.71236C0.838542 9.24171 0.662879 8.66832 0.636364 7.99219H2.45099C2.47751 8.34683 2.58688 8.64181 2.77912 8.87713C2.97135 9.11245 3.22159 9.28812 3.52983 9.40412C3.84138 9.52012 4.18939 9.57812 4.57386 9.57812C4.97491 9.57812 5.32623 9.51847 5.62784 9.39915C5.93277 9.27652 6.1714 9.10748 6.34375 8.89205C6.5161 8.6733 6.60393 8.41809 6.60724 8.12642C6.60393 7.86127 6.52604 7.64252 6.37358 7.47017C6.22112 7.29451 6.00734 7.14867 5.73224 7.03267C5.46046 6.91335 5.14228 6.80729 4.7777 6.71449L3.61932 6.41619C2.78078 6.20076 2.1179 5.87429 1.63068 5.43679C1.14678 4.99598 0.90483 4.41098 0.90483 3.68182C0.90483 3.08191 1.06723 2.55658 1.39205 2.10582C1.72017 1.65507 2.16596 1.3054 2.7294 1.05682C3.29285 0.804924 3.93087 0.678977 4.64347 0.678977C5.366 0.678977 5.99905 0.804924 6.54261 1.05682C7.08949 1.3054 7.5187 1.65175 7.83026 2.09588C8.14181 2.53669 8.30256 3.0438 8.3125 3.61719H6.53764ZM13.3972 11.1491C12.6316 11.1491 11.9703 10.9901 11.4135 10.6719C10.86 10.3504 10.4341 9.89631 10.1358 9.30966C9.83754 8.7197 9.68839 8.02533 9.68839 7.22656C9.68839 6.44105 9.83754 5.75166 10.1358 5.15838C10.4374 4.56179 10.8584 4.09777 11.3986 3.76633C11.9389 3.43158 12.5736 3.2642 13.3027 3.2642C13.7734 3.2642 14.2175 3.34044 14.6351 3.4929C15.056 3.64205 15.4273 3.87405 15.7488 4.18892C16.0736 4.50379 16.3288 4.90483 16.5144 5.39205C16.7 5.87595 16.7928 6.45265 16.7928 7.12216V7.67401H10.5336V6.46094H15.0676C15.0643 6.11624 14.9898 5.80966 14.8439 5.54119C14.6981 5.26941 14.4943 5.05563 14.2324 4.89986C13.9739 4.74408 13.6723 4.66619 13.3276 4.66619C12.9597 4.66619 12.6365 4.75568 12.3581 4.93466C12.0797 5.11032 11.8626 5.34233 11.7069 5.63068C11.5544 5.91572 11.4765 6.22893 11.4732 6.57031V7.62926C11.4732 8.07339 11.5544 8.45455 11.7168 8.77273C11.8792 9.08759 12.1062 9.32955 12.3979 9.49858C12.6896 9.6643 13.031 9.74716 13.4221 9.74716C13.6839 9.74716 13.9209 9.7107 14.133 9.63778C14.3451 9.56155 14.5291 9.45052 14.6848 9.30469C14.8406 9.15885 14.9583 8.97822 15.0378 8.76278L16.7182 8.9517C16.6122 9.39583 16.41 9.78362 16.1117 10.1151C15.8167 10.4432 15.4389 10.6984 14.9782 10.8807C14.5175 11.0597 13.9905 11.1491 13.3972 11.1491ZM20.5128 11.1541C20.0289 11.1541 19.593 11.0679 19.2053 10.8956C18.8208 10.7199 18.5159 10.4614 18.2905 10.12C18.0684 9.77865 17.9574 9.35772 17.9574 8.85724C17.9574 8.42637 18.0369 8.07008 18.196 7.78835C18.3551 7.50663 18.5722 7.28125 18.8473 7.11222C19.1224 6.94318 19.4323 6.81558 19.777 6.7294C20.125 6.63991 20.4846 6.57528 20.8558 6.53551C21.3033 6.48911 21.6662 6.44768 21.9446 6.41122C22.223 6.37145 22.4252 6.31179 22.5511 6.23224C22.6804 6.14938 22.745 6.02178 22.745 5.84943V5.8196C22.745 5.44508 22.634 5.15507 22.4119 4.94957C22.1899 4.74408 21.87 4.64134 21.4524 4.64134C21.0116 4.64134 20.6619 4.73745 20.4034 4.92969C20.1482 5.12192 19.9759 5.34896 19.8864 5.6108L18.206 5.37216C18.3385 4.90814 18.5573 4.52036 18.8622 4.20881C19.1671 3.89394 19.54 3.65862 19.9808 3.50284C20.4216 3.34375 20.9089 3.2642 21.4425 3.2642C21.8104 3.2642 22.1766 3.30729 22.5412 3.39347C22.9058 3.47964 23.2389 3.62216 23.5405 3.82102C23.8421 4.01657 24.084 4.28338 24.2663 4.62145C24.4519 4.95952 24.5447 5.3821 24.5447 5.8892V11H22.8146V9.95099H22.755C22.6456 10.1631 22.4915 10.362 22.2926 10.5476C22.0971 10.7299 21.8501 10.8774 21.5518 10.9901C21.2569 11.0994 20.9105 11.1541 20.5128 11.1541ZM20.9801 9.83168C21.3414 9.83168 21.6546 9.76042 21.9197 9.6179C22.1849 9.47206 22.3887 9.27983 22.5312 9.04119C22.6771 8.80256 22.75 8.54238 22.75 8.26065V7.3608C22.6937 7.4072 22.5975 7.45028 22.4616 7.49006C22.3291 7.52983 22.1799 7.56463 22.0142 7.59446C21.8485 7.62429 21.6844 7.6508 21.522 7.67401C21.3596 7.69721 21.2188 7.71709 21.0994 7.73366C20.831 7.77012 20.5907 7.82978 20.3786 7.91264C20.1664 7.9955 19.9991 8.11151 19.8764 8.26065C19.7538 8.40649 19.6925 8.59541 19.6925 8.82741C19.6925 9.15885 19.8134 9.40909 20.0554 9.57812C20.2973 9.74716 20.6056 9.83168 20.9801 9.83168ZM26.3544 11V3.36364H28.0994V4.63636H28.179C28.3182 4.19555 28.5568 3.85582 28.8949 3.61719C29.2363 3.37524 29.6257 3.25426 30.0632 3.25426C30.1626 3.25426 30.2737 3.25923 30.3963 3.26918C30.5223 3.2758 30.6267 3.2874 30.7095 3.30398V4.95952C30.6333 4.933 30.5123 4.9098 30.3466 4.88991C30.1842 4.86671 30.0268 4.85511 29.8743 4.85511C29.5462 4.85511 29.2512 4.92637 28.9893 5.06889C28.7308 5.2081 28.527 5.40199 28.3778 5.65057C28.2287 5.89915 28.1541 6.18584 28.1541 6.51065V11H26.3544ZM34.9217 11.1491C34.1594 11.1491 33.5048 10.9818 32.9579 10.647C32.4144 10.3123 31.9951 9.84991 31.7001 9.25994C31.4084 8.66667 31.2626 7.9839 31.2626 7.21165C31.2626 6.43608 31.4118 5.75166 31.71 5.15838C32.0083 4.56179 32.4293 4.09777 32.9728 3.76633C33.5197 3.43158 34.166 3.2642 34.9118 3.2642C35.5315 3.2642 36.0801 3.37855 36.5574 3.60724C37.0379 3.83262 37.4208 4.15246 37.7058 4.56676C37.9908 4.97775 38.1532 5.45833 38.193 6.00852H36.4728C36.4032 5.64062 36.2375 5.33404 35.9757 5.08878C35.7172 4.8402 35.3708 4.71591 34.9366 4.71591C34.5687 4.71591 34.2456 4.81534 33.9672 5.0142C33.6887 5.20975 33.4717 5.49148 33.3159 5.85938C33.1634 6.22727 33.0872 6.66809 33.0872 7.18182C33.0872 7.70218 33.1634 8.14962 33.3159 8.52415C33.4683 8.89536 33.6821 9.18205 33.9572 9.38423C34.2356 9.5831 34.5621 9.68253 34.9366 9.68253C35.2018 9.68253 35.4387 9.63281 35.6475 9.53338C35.8597 9.43063 36.037 9.28314 36.1795 9.09091C36.322 8.89867 36.4198 8.66501 36.4728 8.38991H38.193C38.1499 8.93016 37.9908 9.40909 37.7157 9.8267C37.4406 10.241 37.0661 10.5658 36.5922 10.8011C36.1182 11.0331 35.5614 11.1491 34.9217 11.1491ZM41.4705 6.52557V11H39.6708V0.818182H41.4308V4.66122H41.5202C41.6992 4.23035 41.976 3.89062 42.3505 3.64205C42.7283 3.39015 43.2089 3.2642 43.7923 3.2642C44.3226 3.2642 44.7849 3.37524 45.1793 3.5973C45.5737 3.81937 45.8787 4.14418 46.0941 4.57173C46.3129 4.99929 46.4222 5.52131 46.4222 6.13778V11H44.6225V6.41619C44.6225 5.90246 44.4899 5.50308 44.2248 5.21804C43.9629 4.92969 43.5951 4.78551 43.1211 4.78551C42.8029 4.78551 42.5179 4.85511 42.266 4.99432C42.0174 5.13021 41.8219 5.32741 41.6793 5.58594C41.5401 5.84446 41.4705 6.15767 41.4705 6.52557ZM55.5973 3.36364V4.75568H51.0831V3.36364H55.5973ZM52.2116 11V2.64276C52.2116 2.12902 52.3177 1.70147 52.5298 1.36008C52.7453 1.0187 53.0336 0.763494 53.3949 0.59446C53.7562 0.425426 54.1572 0.340908 54.598 0.340908C54.9096 0.340908 55.1863 0.365767 55.4283 0.415483C55.6702 0.465199 55.8492 0.509943 55.9652 0.549716L55.6072 1.94176C55.531 1.91856 55.4349 1.89536 55.3189 1.87216C55.2029 1.84564 55.0736 1.83239 54.9311 1.83239C54.5964 1.83239 54.3594 1.91359 54.2202 2.07599C54.0843 2.23508 54.0163 2.46378 54.0163 2.76207V11H52.2116ZM57.0067 11V3.36364H58.8065V11H57.0067ZM57.9116 2.27983C57.6265 2.27983 57.3813 2.18537 57.1758 1.99645C56.9703 1.80421 56.8675 1.57386 56.8675 1.3054C56.8675 1.03362 56.9703 0.803267 57.1758 0.614346C57.3813 0.422111 57.6265 0.325994 57.9116 0.325994C58.1999 0.325994 58.4452 0.422111 58.6474 0.614346C58.8529 0.803267 58.9556 1.03362 58.9556 1.3054C58.9556 1.57386 58.8529 1.80421 58.6474 1.99645C58.4452 2.18537 58.1999 2.27983 57.9116 2.27983ZM64.0378 11.1491C63.2722 11.1491 62.611 10.9901 62.0542 10.6719C61.5007 10.3504 61.0748 9.89631 60.7765 9.30966C60.4782 8.7197 60.329 8.02533 60.329 7.22656C60.329 6.44105 60.4782 5.75166 60.7765 5.15838C61.0781 4.56179 61.499 4.09777 62.0392 3.76633C62.5795 3.43158 63.2142 3.2642 63.9434 3.2642C64.414 3.2642 64.8581 3.34044 65.2757 3.4929C65.6967 3.64205 66.0679 3.87405 66.3894 4.18892C66.7142 4.50379 66.9694 4.90483 67.155 5.39205C67.3406 5.87595 67.4334 6.45265 67.4334 7.12216V7.67401H61.1742V6.46094H65.7083C65.705 6.11624 65.6304 5.80966 65.4846 5.54119C65.3387 5.26941 65.1349 5.05563 64.873 4.89986C64.6145 4.74408 64.3129 4.66619 63.9682 4.66619C63.6003 4.66619 63.2772 4.75568 62.9988 4.93466C62.7203 5.11032 62.5033 5.34233 62.3475 5.63068C62.195 5.91572 62.1171 6.22893 62.1138 6.57031V7.62926C62.1138 8.07339 62.195 8.45455 62.3574 8.77273C62.5198 9.08759 62.7469 9.32955 63.0385 9.49858C63.3302 9.6643 63.6716 9.74716 64.0627 9.74716C64.3245 9.74716 64.5615 9.7107 64.7736 9.63778C64.9857 9.56155 65.1697 9.45052 65.3255 9.30469C65.4812 9.15885 65.5989 8.97822 65.6784 8.76278L67.3588 8.9517C67.2528 9.39583 67.0506 9.78362 66.7523 10.1151C66.4573 10.4432 66.0795 10.6984 65.6188 10.8807C65.1581 11.0597 64.6311 11.1491 64.0378 11.1491ZM70.7557 0.818182V11H68.956V0.818182H70.7557ZM75.4402 11.1342C74.8403 11.1342 74.3033 10.9801 73.8294 10.6719C73.3554 10.3636 72.9809 9.91619 72.7058 9.32955C72.4307 8.7429 72.2931 8.0303 72.2931 7.19176C72.2931 6.34328 72.4324 5.62737 72.7108 5.04403C72.9925 4.45739 73.372 4.01491 73.8493 3.71662C74.3265 3.41501 74.8585 3.2642 75.4451 3.2642C75.8926 3.2642 76.2605 3.34044 76.5488 3.4929C76.8372 3.64205 77.0659 3.82268 77.2349 4.0348C77.4039 4.24361 77.5349 4.44081 77.6277 4.62642H77.7022V0.818182H79.5069V11H77.737V9.79688H77.6277C77.5349 9.98248 77.4006 10.1797 77.225 10.3885C77.0493 10.594 76.8173 10.7696 76.5289 10.9155C76.2406 11.0613 75.8777 11.1342 75.4402 11.1342ZM75.9423 9.65767C76.3234 9.65767 76.6483 9.55492 76.9167 9.34943C77.1852 9.14062 77.389 8.85062 77.5282 8.4794C77.6674 8.10819 77.737 7.67566 77.737 7.18182C77.737 6.68797 77.6674 6.25876 77.5282 5.89418C77.3923 5.52959 77.1902 5.24621 76.9217 5.04403C76.6565 4.84186 76.3301 4.74077 75.9423 4.74077C75.5413 4.74077 75.2065 4.84517 74.938 5.05398C74.6696 5.26278 74.4674 5.55114 74.3315 5.91903C74.1956 6.28693 74.1277 6.70786 74.1277 7.18182C74.1277 7.65909 74.1956 8.08499 74.3315 8.45952C74.4707 8.83073 74.6745 9.12405 74.943 9.33949C75.2148 9.55161 75.5479 9.65767 75.9423 9.65767Z" fill="#333333"/>
</svg>
