<svg width="199" height="40" fill="none" xmlns="http://www.w3.org/2000/svg"><rect x=".5" y=".5" width="198" height="39" rx="3.5" fill="#fff"/><path d="M19.77 17.27a1.78 1.78 0 0 0-.83-1.34 3.18 3.18 0 0 0-1.78-.48c-.52 0-.97.09-1.35.25-.39.17-.69.4-.9.7a1.65 1.65 0 0 0-.1 1.79c.15.22.35.4.58.55.24.14.48.26.74.36l.71.22 1.18.32c.3.08.64.19 1.01.33.38.14.74.33 1.08.57a2.65 2.65 0 0 1 1.19 2.3c0 .63-.17 1.2-.5 1.7-.32.51-.8.92-1.43 1.22-.63.3-1.39.44-2.28.44a5.3 5.3 0 0 1-2.16-.4A3.2 3.2 0 0 1 12.9 23h1.45c.04.44.19.8.45 1.1.26.27.59.49.99.63a4 4 0 0 0 1.3.2c.53 0 1.01-.09 1.44-.26.43-.18.77-.42 1.02-.74s.37-.69.37-1.11c0-.39-.1-.7-.32-.95-.22-.24-.5-.43-.85-.59a8.95 8.95 0 0 0-1.15-.4l-1.43-.4a5.33 5.33 0 0 1-2.16-1.12 2.46 2.46 0 0 1-.8-1.9c0-.66.18-1.23.54-1.71.35-.49.83-.87 1.43-1.14.6-.27 1.27-.4 2.01-.4.75 0 1.42.13 2 .4a3.5 3.5 0 0 1 1.4 1.09c.34.46.52.99.54 1.57h-1.37Zm7.32 8.91a3.74 3.74 0 0 1-3.58-2.13 5.35 5.35 0 0 1-.49-2.35c0-.89.16-1.68.49-2.36a3.7 3.7 0 0 1 3.44-2.18c.46 0 .9.07 1.35.23a3.34 3.34 0 0 1 2.08 2.08c.22.55.32 1.24.32 2.05v.57h-6.72v-1.16h5.36c0-.5-.1-.93-.3-1.32a2.23 2.23 0 0 0-2.09-1.25c-.53 0-1 .14-1.38.4-.39.26-.69.6-.9 1.02a3 3 0 0 0-.3 1.36v.77c0 .66.1 1.22.33 1.68.23.45.55.8.96 1.04.41.23.89.35 1.43.35.35 0 .67-.05.95-.15.3-.1.54-.25.75-.45.2-.2.37-.46.48-.77l1.3.37a2.9 2.9 0 0 1-.7 1.16c-.31.33-.71.58-1.18.77-.48.18-1.01.27-1.6.27Zm8.22.02c-.55 0-1.05-.1-1.5-.3a2.63 2.63 0 0 1-1.08-.92c-.26-.4-.4-.89-.4-1.46 0-.5.1-.9.3-1.21.2-.32.46-.56.79-.74.33-.18.7-.31 1.09-.4.4-.1.8-.16 1.21-.22l1.29-.15c.33-.04.58-.1.73-.19.15-.08.23-.23.23-.45v-.05c0-.56-.15-1-.46-1.3-.3-.31-.76-.47-1.38-.47a2.39 2.39 0 0 0-2.27 1.32l-1.28-.46a3.06 3.06 0 0 1 2.16-1.86 5.19 5.19 0 0 1 2.31-.08c.37.07.72.2 1.06.4.35.2.63.52.86.93.23.41.34.97.34 1.66V26h-1.34v-1.18h-.07a2.62 2.62 0 0 1-1.3 1.16c-.35.15-.78.22-1.29.22Zm.2-1.2c.54 0 .98-.1 1.35-.31a2.13 2.13 0 0 0 1.11-1.85v-1.23a.93.93 0 0 1-.37.2c-.2.04-.41.1-.66.13a29.88 29.88 0 0 1-1.29.17c-.35.05-.67.12-.98.23-.3.1-.54.24-.72.44-.18.2-.28.47-.28.81 0 .47.18.82.52 1.06.35.23.8.35 1.33.35Zm6.25 1v-8.73h1.3v1.32h.08c.16-.43.45-.78.87-1.05s.88-.4 1.4-.4a15.24 15.24 0 0 1 .71.02v1.36a4.02 4.02 0 0 0-.82-.09c-.42 0-.8.1-1.13.27a1.96 1.96 0 0 0-1.07 1.78V26h-1.34Zm9.23.18a3.8 3.8 0 0 1-2.11-.58A3.78 3.78 0 0 1 47.5 24a5.4 5.4 0 0 1-.47-2.32c0-.88.16-1.67.49-2.34a3.7 3.7 0 0 1 3.44-2.18c.61 0 1.17.11 1.66.34a2.98 2.98 0 0 1 1.8 2.39h-1.35a2.04 2.04 0 0 0-2.1-1.52c-.51 0-.97.13-1.36.4-.4.27-.7.65-.92 1.14a4.23 4.23 0 0 0-.32 1.73c0 .67.1 1.26.32 1.76.21.5.52.89.9 1.16.4.28.86.42 1.4.42.34 0 .66-.06.94-.18a1.96 1.96 0 0 0 1.14-1.35h1.34a3.1 3.1 0 0 1-1.74 2.37 3.8 3.8 0 0 1-1.69.36Zm6.73-5.43V26h-1.34V14.36h1.34v4.28h.12c.2-.45.5-.81.92-1.08.41-.27.96-.4 1.65-.4.6 0 1.11.12 1.56.36.45.23.8.6 1.04 1.08.25.49.37 1.1.37 1.85V26h-1.34v-5.45c0-.7-.18-1.23-.54-1.61a1.93 1.93 0 0 0-1.48-.58c-.44 0-.83.1-1.18.28-.35.19-.62.46-.82.81-.2.36-.3.8-.3 1.3Z" fill="#1F1F1F"/><path d="M184.09 27.86c-.2 0-.4-.07-.55-.22l-4.66-4.66c-.3-.3-.3-.8 0-1.1.3-.3.8-.3 1.1 0l4.66 4.66c.3.3.3.8 0 1.1a.78.78 0 0 1-.55.22Z" fill="#757575"/><path d="M175.75 24.53a5.79 5.79 0 0 1 0-11.55 5.79 5.79 0 0 1 0 11.55Zm0-10a4.23 4.23 0 1 0 0 8.45 4.23 4.23 0 0 0 0-8.45Z" fill="#757575"/><rect x=".5" y=".5" width="198" height="39" rx="3.5" stroke="#545454"/></svg>