<svg width="199" height="63" fill="none" xmlns="http://www.w3.org/2000/svg"><rect x=".5" y="23.5" width="198" height="39" rx="3.5" fill="#fff"/><path d="M29.09 50.86c-.2 0-.4-.07-.55-.22l-4.67-4.66c-.3-.3-.3-.8 0-1.1.3-.3.8-.3 1.1 0l4.67 4.66c.3.3.3.8 0 1.1a.78.78 0 0 1-.55.22Z" fill="#757575"/><path d="M20.75 47.53a5.79 5.79 0 0 1 0-11.55 5.79 5.79 0 0 1 0 11.55Zm0-10a4.23 4.23 0 1 0 0 8.45 4.23 4.23 0 0 0 0-8.45Z" fill="#757575"/><path d="M47.77 40.27a1.78 1.78 0 0 0-.83-1.34 3.18 3.18 0 0 0-1.78-.48c-.52 0-.97.09-1.35.25-.39.17-.69.4-.9.7a1.65 1.65 0 0 0-.1 1.79c.15.22.35.4.58.55.24.14.48.26.74.36l.71.22 1.18.32c.3.08.64.19 1.01.33.38.14.74.33 1.08.57a2.65 2.65 0 0 1 1.19 2.3c0 .63-.17 1.2-.5 1.7-.32.51-.8.92-1.43 1.22-.63.3-1.39.44-2.28.44a5.3 5.3 0 0 1-2.16-.4A3.2 3.2 0 0 1 40.9 46h1.45c.04.44.19.8.45 1.1.26.27.59.49.99.63a4 4 0 0 0 1.3.2c.53 0 1.01-.09 1.44-.26.43-.18.77-.42 1.02-.74s.37-.69.37-1.11c0-.39-.1-.7-.32-.95-.22-.24-.5-.43-.85-.59a8.95 8.95 0 0 0-1.15-.4l-1.43-.4a5.33 5.33 0 0 1-2.16-1.12 2.46 2.46 0 0 1-.8-1.9c0-.66.18-1.23.54-1.71.35-.49.83-.87 1.43-1.14.6-.27 1.27-.4 2.01-.4.75 0 1.42.13 2 .4a3.5 3.5 0 0 1 1.4 1.09c.34.46.52.99.54 1.57h-1.37Zm7.32 8.91a3.74 3.74 0 0 1-3.58-2.13 5.35 5.35 0 0 1-.49-2.35c0-.89.16-1.68.49-2.36a3.7 3.7 0 0 1 3.44-2.18c.46 0 .9.07 1.35.23a3.34 3.34 0 0 1 2.08 2.08c.22.55.32 1.24.32 2.05v.57h-6.72v-1.16h5.36c0-.5-.1-.93-.3-1.32a2.23 2.23 0 0 0-2.09-1.25c-.53 0-1 .14-1.38.4-.39.26-.69.6-.9 1.02a3 3 0 0 0-.3 1.36v.77c0 .66.1 1.22.33 1.68.23.45.55.8.96 1.03.41.24.89.36 1.43.36.35 0 .67-.05.95-.15.3-.1.54-.25.75-.45.2-.21.37-.46.48-.77l1.3.37a2.9 2.9 0 0 1-.7 1.16c-.31.33-.71.58-1.18.77-.48.18-1.01.27-1.6.27Zm8.22.02c-.55 0-1.05-.1-1.5-.3a2.63 2.63 0 0 1-1.08-.92c-.26-.4-.4-.89-.4-1.46 0-.5.1-.9.3-1.21.2-.32.46-.56.79-.74.33-.18.7-.31 1.09-.4.4-.09.8-.16 1.21-.22l1.29-.15c.33-.04.58-.1.73-.19.15-.08.23-.23.23-.45v-.05c0-.56-.15-1-.46-1.3-.3-.31-.76-.47-1.38-.47a2.39 2.39 0 0 0-2.27 1.32l-1.28-.46a3.06 3.06 0 0 1 2.16-1.86 5.19 5.19 0 0 1 2.31-.08c.37.07.72.2 1.06.4.35.2.63.52.86.93.23.41.34.97.34 1.66V49h-1.34v-1.18h-.07a2.62 2.62 0 0 1-1.3 1.16c-.35.15-.78.22-1.29.22Zm.2-1.2c.54 0 .98-.1 1.35-.31a2.13 2.13 0 0 0 1.11-1.85v-1.23a.93.93 0 0 1-.37.2c-.2.04-.41.1-.66.13a29.88 29.88 0 0 1-1.29.17c-.35.05-.67.12-.98.23-.3.1-.54.24-.72.44-.18.2-.28.47-.28.81 0 .47.18.82.52 1.06.35.23.8.35 1.33.35Zm6.25 1v-8.73h1.3v1.32h.08c.16-.43.45-.78.87-1.05s.88-.4 1.4-.4a15.24 15.24 0 0 1 .71.02v1.36a4.02 4.02 0 0 0-.82-.09c-.42 0-.8.1-1.13.27a1.96 1.96 0 0 0-1.07 1.78V49h-1.34Zm9.23.18a3.8 3.8 0 0 1-2.11-.58A3.78 3.78 0 0 1 75.5 47a5.4 5.4 0 0 1-.47-2.32c0-.88.16-1.67.49-2.34a3.7 3.7 0 0 1 3.44-2.18c.61 0 1.17.11 1.66.34a2.98 2.98 0 0 1 1.8 2.39h-1.35a2.04 2.04 0 0 0-2.1-1.52c-.51 0-.97.13-1.36.4-.4.27-.7.65-.92 1.14a4.23 4.23 0 0 0-.32 1.73c0 .67.1 1.26.32 1.76.21.5.52.89.9 1.16.4.28.86.42 1.4.42.34 0 .66-.06.94-.18a1.96 1.96 0 0 0 1.14-1.35h1.34a3.1 3.1 0 0 1-1.74 2.37 3.8 3.8 0 0 1-1.69.36Zm6.73-5.43V49h-1.34V37.36h1.34v4.28h.12c.2-.45.5-.81.92-1.08.41-.27.96-.4 1.65-.4.6 0 1.11.12 1.56.36.45.23.8.6 1.04 1.08.25.49.37 1.1.37 1.85V49h-1.34v-5.45c0-.7-.18-1.23-.54-1.61a1.93 1.93 0 0 0-1.48-.58c-.44 0-.83.1-1.18.28-.35.19-.62.46-.82.81-.2.36-.3.8-.3 1.3Z" fill="#1F1F1F"/><path d="M181.43 48.21c-.2 0-.4-.07-.56-.22l-4.16-4.17-4.16 4.17c-.3.3-.8.3-1.1 0-.3-.3-.3-.8 0-1.1l4.16-4.17-4.16-4.16c-.3-.3-.3-.8 0-1.1.3-.3.8-.3 1.1 0l4.16 4.16 4.16-4.16c.3-.3.8-.3 1.1 0 .3.3.3.8 0 1.1l-4.16 4.16 4.16 4.17c.3.3.3.8 0 1.1a.78.78 0 0 1-.54.22Z" fill="#757575"/><rect x=".5" y="23.5" width="198" height="39" rx="3.5" stroke="#545454"/><path d="M6.54 3.62a1.36 1.36 0 0 0-.59-1.02 2.25 2.25 0 0 0-1.33-.36c-.39 0-.72.06-1 .17-.27.12-.48.28-.62.48a1.15 1.15 0 0 0-.08 1.23c.1.16.23.29.4.4.17.1.36.2.56.27.2.07.42.13.62.18l.96.24c.38.09.75.2 1.1.36.37.15.69.35.97.58a2.53 2.53 0 0 1 .92 2 2.76 2.76 0 0 1-1.78 2.63 5.2 5.2 0 0 1-2.08.37 5.3 5.3 0 0 1-2.06-.36A3.07 3.07 0 0 1 1.16 9.7 3.18 3.18 0 0 1 .64 8h1.81c.03.36.14.65.33.89.2.23.44.4.75.52s.66.18 1.04.18c.4 0 .76-.06 1.06-.18.3-.12.54-.3.71-.5.18-.23.26-.48.27-.77a.97.97 0 0 0-.24-.66 1.71 1.71 0 0 0-.64-.44 6.18 6.18 0 0 0-.95-.32l-1.16-.3a4.66 4.66 0 0 1-1.99-.97A2.26 2.26 0 0 1 .9 3.68c0-.6.17-1.12.5-1.57.32-.45.77-.8 1.33-1.05A4.5 4.5 0 0 1 4.64.68c.73 0 1.36.12 1.9.38.55.25.98.6 1.29 1.04.31.44.47.94.48 1.52H6.54Zm6.86 7.53c-.77 0-1.43-.16-1.99-.48a3.23 3.23 0 0 1-1.27-1.36 4.56 4.56 0 0 1-.45-2.08c0-.79.15-1.48.45-2.07a3.38 3.38 0 0 1 3.16-1.9c.47 0 .92.08 1.34.23.42.15.79.38 1.1.7.33.31.59.71.77 1.2.19.49.28 1.06.28 1.73v.55h-6.26v-1.2h4.54c0-.35-.08-.66-.23-.93a1.63 1.63 0 0 0-.6-.64 1.72 1.72 0 0 0-.91-.23 1.8 1.8 0 0 0-1.62.96 2 2 0 0 0-.24.94v1.06c0 .44.08.82.25 1.14.16.32.39.56.68.73a2.25 2.25 0 0 0 1.73.14c.22-.08.4-.19.55-.34.16-.14.28-.32.36-.54l1.68.2a2.69 2.69 0 0 1-1.74 1.92c-.46.18-.99.27-1.58.27Zm7.11 0c-.48 0-.92-.08-1.3-.25a2.13 2.13 0 0 1-.92-.78 2.27 2.27 0 0 1-.33-1.26c0-.43.08-.79.24-1.07.16-.28.37-.5.65-.68.27-.17.58-.3.93-.38.34-.09.7-.15 1.08-.2l1.08-.12c.28-.04.49-.1.61-.18.13-.08.2-.2.2-.38v-.03c0-.37-.12-.66-.34-.87-.22-.2-.54-.3-.96-.3-.44 0-.79.09-1.05.28-.25.2-.42.42-.51.68l-1.68-.24a2.68 2.68 0 0 1 1.77-1.87 4.76 4.76 0 0 1 2.56-.1c.37.08.7.22 1 .42.3.2.54.46.73.8.18.34.27.76.27 1.27V11h-1.73V9.95h-.05a2.2 2.2 0 0 1-1.2 1.04c-.3.1-.65.16-1.05.16Zm.47-1.32a2 2 0 0 0 .94-.21c.26-.15.47-.34.61-.58.15-.24.22-.5.22-.78v-.9a.85.85 0 0 1-.29.13 13.8 13.8 0 0 1-1.36.24c-.27.04-.5.1-.72.18-.21.09-.38.2-.5.35a.85.85 0 0 0-.19.57c0 .33.12.58.37.75.24.17.55.25.92.25ZM26.35 11V3.36h1.75v1.28h.08a1.9 1.9 0 0 1 1.88-1.39 4.15 4.15 0 0 1 .65.05v1.66a3.34 3.34 0 0 0-.84-.1c-.32 0-.62.07-.88.2a1.56 1.56 0 0 0-.84 1.45V11h-1.8Zm8.57.15a3.35 3.35 0 0 1-3.22-1.89c-.3-.6-.44-1.28-.44-2.05 0-.77.15-1.46.45-2.05.3-.6.72-1.06 1.26-1.4a3.7 3.7 0 0 1 1.94-.5c.62 0 1.17.12 1.65.35A2.81 2.81 0 0 1 38.19 6h-1.72a1.64 1.64 0 0 0-.5-.92 1.4 1.4 0 0 0-1.03-.37c-.37 0-.7.1-.97.3-.28.19-.5.47-.65.84-.16.37-.23.8-.23 1.32s.07.97.23 1.34c.15.38.36.66.64.86.28.2.6.3.98.3.26 0 .5-.05.7-.15.22-.1.4-.25.54-.44.14-.2.24-.42.3-.7h1.71a2.83 2.83 0 0 1-1.6 2.41c-.47.23-1.03.35-1.67.35Zm6.55-4.62V11h-1.8V.82h1.76v3.84h.09c.18-.43.46-.77.83-1.02.38-.25.86-.38 1.44-.38.53 0 1 .12 1.39.34.4.22.7.54.91.97.22.43.33.95.33 1.57V11h-1.8V6.42c0-.52-.13-.92-.4-1.2a1.41 1.41 0 0 0-1.1-.43c-.32 0-.6.07-.85.2-.25.14-.45.34-.6.6-.13.25-.2.57-.2.94ZM55.6 3.36v1.4h-4.52v-1.4h4.52ZM52.2 11V2.64c0-.51.1-.94.32-1.28.22-.34.5-.6.86-.77a2.8 2.8 0 0 1 1.2-.25 4.15 4.15 0 0 1 1.38.21l-.36 1.4a3.11 3.11 0 0 0-.68-.12c-.33 0-.57.08-.71.25-.14.16-.2.38-.2.68V11h-1.8Zm4.8 0V3.36h1.8V11H57Zm.9-8.72c-.28 0-.53-.1-.73-.28a.91.91 0 0 1-.31-.7c0-.27.1-.5.3-.69.21-.19.46-.28.74-.28.29 0 .54.1.74.28.2.2.3.42.3.7 0 .26-.1.5-.3.69-.2.19-.45.28-.74.28Zm6.13 8.87c-.77 0-1.43-.16-1.99-.48a3.23 3.23 0 0 1-1.27-1.36 4.56 4.56 0 0 1-.45-2.08c0-.79.15-1.48.45-2.07a3.38 3.38 0 0 1 3.16-1.9c.47 0 .92.08 1.34.23a3.2 3.2 0 0 1 1.88 1.9c.18.49.27 1.06.27 1.73v.55h-6.26v-1.2h4.54c0-.35-.08-.66-.23-.93a1.63 1.63 0 0 0-.6-.64 1.72 1.72 0 0 0-.91-.23 1.8 1.8 0 0 0-1.62.96 2 2 0 0 0-.24.94v1.06c0 .44.09.82.25 1.14.16.32.39.56.68.73a2.25 2.25 0 0 0 1.73.14c.22-.08.4-.19.56-.34.15-.14.27-.32.35-.54l1.68.2c-.1.44-.3.82-.6 1.16-.3.32-.68.58-1.14.76-.46.18-.99.27-1.58.27ZM70.76.82V11h-1.8V.82h1.8Zm4.68 10.31a2.89 2.89 0 0 1-2.73-1.8 5 5 0 0 1-.42-2.14c0-.85.14-1.56.42-2.15a2.93 2.93 0 0 1 3.84-1.55c.29.15.52.33.68.54.17.21.3.41.4.6h.07V.82h1.8V11h-1.76V9.8h-.11c-.1.18-.23.38-.4.59a2.22 2.22 0 0 1-1.79.74Zm.5-1.47c.38 0 .7-.1.98-.31.27-.2.47-.5.6-.87.15-.37.22-.8.22-1.3s-.07-.92-.21-1.29a1.83 1.83 0 0 0-.6-.85c-.27-.2-.6-.3-.99-.3-.4 0-.73.1-1 .31s-.47.5-.6.87a3.9 3.9 0 0 0-.01 2.54 2 2 0 0 0 .61.88c.27.21.6.32 1 .32Z" fill="#333"/></svg>