<svg width="292" height="46" viewBox="0 0 292 46" fill="none" xmlns="http://www.w3.org/2000/svg">
<rect x="0.5" y="0.5" width="291" height="45" rx="3.5" fill="#FCE7E7"/>
<path d="M23.6699 25.9599C23.3199 25.9599 23.0499 25.6799 23.0499 25.3399V22.0099C23.0499 21.6699 23.3299 21.3899 23.6699 21.3899C24.0099 21.3899 24.2899 21.6699 24.2899 22.0099V25.3399C24.2899 25.6799 24.0099 25.9599 23.6699 25.9599Z" fill="#A90303"/>
<path d="M23.6699 27.9599C23.4999 27.9599 23.3399 27.8899 23.2299 27.7799C23.1699 27.7199 23.1199 27.6499 23.0899 27.5699C23.0599 27.4999 23.0399 27.4199 23.0399 27.3299C23.0399 27.1699 23.1099 27.0099 23.2299 26.8899C23.4599 26.6599 23.8699 26.6599 24.1099 26.8899C24.2299 27.0099 24.2899 27.1699 24.2899 27.3299C24.2899 27.4199 24.2799 27.4999 24.2499 27.5699C24.2099 27.6499 24.1699 27.7199 24.1099 27.7799C23.9899 27.8899 23.8299 27.9599 23.6699 27.9599Z" fill="#A90303"/>
<path d="M23.6699 31.9599C19.6499 31.9599 16.3799 28.6899 16.3799 24.6699C16.3799 20.6499 19.6499 17.3799 23.6699 17.3799C27.6899 17.3799 30.9599 20.6499 30.9599 24.6699C30.9599 28.6899 27.6899 31.9599 23.6699 31.9599ZM23.6699 18.6199C20.3399 18.6199 17.6199 21.3299 17.6199 24.6699C17.6199 28.0099 20.3299 30.7099 23.6599 30.7099C26.9899 30.7099 29.6999 27.9999 29.6999 24.6699C29.6999 21.3399 26.9999 18.6199 23.6699 18.6199Z" fill="#A90303"/>
<path d="M40.6761 18.9119V17.8182H48.3125V18.9119H45.1108V28H43.8778V18.9119H40.6761ZM51.2296 23.4062V28H50.0563V17.8182H51.2296V21.5568H51.329C51.508 21.1624 51.7765 20.8492 52.1344 20.6172C52.4957 20.3819 52.9763 20.2642 53.5762 20.2642C54.0965 20.2642 54.5523 20.3686 54.9434 20.5774C55.3345 20.7829 55.6377 21.0994 55.8532 21.527C56.0719 21.9512 56.1813 22.4915 56.1813 23.1477V28H55.008V23.2273C55.008 22.6207 54.8506 22.1518 54.5357 21.8203C54.2241 21.4856 53.7916 21.3182 53.2381 21.3182C52.8536 21.3182 52.5089 21.3994 52.204 21.5618C51.9024 21.7242 51.6638 21.9612 51.4881 22.2727C51.3158 22.5843 51.2296 22.9621 51.2296 23.4062ZM61.5295 28.1591C60.7937 28.1591 60.159 27.9967 59.6254 27.6719C59.0951 27.3438 58.6857 26.8864 58.3974 26.2997C58.1123 25.7098 57.9698 25.0237 57.9698 24.2415C57.9698 23.4593 58.1123 22.7699 58.3974 22.1733C58.6857 21.5734 59.0868 21.1061 59.6005 20.7713C60.1175 20.4332 60.7208 20.2642 61.4102 20.2642C61.8079 20.2642 62.2006 20.3305 62.5884 20.4631C62.9762 20.5956 63.3292 20.8111 63.6474 21.1094C63.9656 21.4044 64.2191 21.7955 64.408 22.2827C64.5969 22.7699 64.6914 23.3698 64.6914 24.0824V24.5795H58.805V23.5653H63.4982C63.4982 23.1345 63.4121 22.75 63.2397 22.4119C63.0707 22.0739 62.8287 21.8071 62.5138 21.6115C62.2023 21.416 61.8344 21.3182 61.4102 21.3182C60.9428 21.3182 60.5385 21.4342 60.1971 21.6662C59.859 21.8949 59.5988 22.1932 59.4165 22.5611C59.2343 22.929 59.1431 23.3234 59.1431 23.7443V24.4205C59.1431 24.9972 59.2425 25.486 59.4414 25.8871C59.6436 26.2848 59.9237 26.5881 60.2816 26.7969C60.6396 27.0024 61.0555 27.1051 61.5295 27.1051C61.8377 27.1051 62.1161 27.062 62.3647 26.9759C62.6166 26.8864 62.8337 26.7538 63.016 26.5781C63.1983 26.3991 63.3391 26.1771 63.4386 25.9119L64.5721 26.2301C64.4528 26.6146 64.2522 26.9527 63.9705 27.2443C63.6888 27.5327 63.3408 27.758 62.9265 27.9205C62.5122 28.0795 62.0465 28.1591 61.5295 28.1591ZM66.4762 28V20.3636H67.6097V21.517H67.6893C67.8285 21.1392 68.0804 20.8326 68.445 20.5973C68.8095 20.362 69.2205 20.2443 69.6779 20.2443C69.7641 20.2443 69.8718 20.246 70.0011 20.2493C70.1303 20.2526 70.2281 20.2576 70.2944 20.2642V21.4574C70.2546 21.4474 70.1635 21.4325 70.021 21.4126C69.8817 21.3894 69.7343 21.3778 69.5785 21.3778C69.2073 21.3778 68.8758 21.4557 68.5842 21.6115C68.2958 21.764 68.0671 21.9761 67.8981 22.2479C67.7324 22.5163 67.6495 22.8229 67.6495 23.1676V28H66.4762ZM74.6545 28.1591C73.9187 28.1591 73.284 27.9967 72.7504 27.6719C72.2201 27.3438 71.8107 26.8864 71.5224 26.2997C71.2373 25.7098 71.0948 25.0237 71.0948 24.2415C71.0948 23.4593 71.2373 22.7699 71.5224 22.1733C71.8107 21.5734 72.2118 21.1061 72.7255 20.7713C73.2425 20.4332 73.8458 20.2642 74.5352 20.2642C74.9329 20.2642 75.3256 20.3305 75.7134 20.4631C76.1012 20.5956 76.4542 20.8111 76.7724 21.1094C77.0906 21.4044 77.3441 21.7955 77.533 22.2827C77.7219 22.7699 77.8164 23.3698 77.8164 24.0824V24.5795H71.93V23.5653H76.6232C76.6232 23.1345 76.5371 22.75 76.3647 22.4119C76.1957 22.0739 75.9537 21.8071 75.6388 21.6115C75.3273 21.416 74.9594 21.3182 74.5352 21.3182C74.0678 21.3182 73.6635 21.4342 73.3221 21.6662C72.984 21.8949 72.7238 22.1932 72.5415 22.5611C72.3593 22.929 72.2681 23.3234 72.2681 23.7443V24.4205C72.2681 24.9972 72.3675 25.486 72.5664 25.8871C72.7686 26.2848 73.0487 26.5881 73.4066 26.7969C73.7646 27.0024 74.1805 27.1051 74.6545 27.1051C74.9627 27.1051 75.2411 27.062 75.4897 26.9759C75.7416 26.8864 75.9587 26.7538 76.141 26.5781C76.3233 26.3991 76.4641 26.1771 76.5636 25.9119L77.6971 26.2301C77.5778 26.6146 77.3772 26.9527 77.0955 27.2443C76.8138 27.5327 76.4658 27.758 76.0515 27.9205C75.6372 28.0795 75.1715 28.1591 74.6545 28.1591ZM80.6353 17.8182V18.7131C80.6353 18.9848 80.5856 19.2749 80.4862 19.5831C80.39 19.888 80.2475 20.1847 80.0586 20.473C79.873 20.758 79.6476 21.0066 79.3825 21.2188L78.7461 20.7017C78.9549 20.4034 79.1355 20.0935 79.288 19.772C79.4438 19.4472 79.5217 19.1009 79.5217 18.733V17.8182H80.6353ZM86.5142 22.0739L85.4602 22.3722C85.3939 22.1965 85.2962 22.0258 85.1669 21.8601C85.041 21.6911 84.8686 21.5518 84.6499 21.4425C84.4311 21.3331 84.151 21.2784 83.8097 21.2784C83.3423 21.2784 82.9529 21.3861 82.6413 21.6016C82.3331 21.8137 82.179 22.0838 82.179 22.4119C82.179 22.7036 82.285 22.9339 82.4972 23.103C82.7093 23.272 83.0407 23.4129 83.4915 23.5256L84.625 23.804C85.3078 23.9697 85.8165 24.2232 86.1513 24.5646C86.486 24.9027 86.6534 25.3385 86.6534 25.8722C86.6534 26.3097 86.5275 26.7008 86.2756 27.0455C86.027 27.3902 85.679 27.6619 85.2315 27.8608C84.7841 28.0597 84.2637 28.1591 83.6705 28.1591C82.8916 28.1591 82.2469 27.9901 81.7365 27.652C81.2261 27.3139 80.9029 26.8201 80.767 26.1705L81.8807 25.892C81.9867 26.303 82.1873 26.6113 82.4822 26.8168C82.7805 27.0223 83.17 27.125 83.6506 27.125C84.1974 27.125 84.6316 27.009 84.9531 26.777C85.2779 26.5417 85.4403 26.2599 85.4403 25.9318C85.4403 25.6667 85.3475 25.4446 85.1619 25.2656C84.9763 25.0833 84.6913 24.9474 84.3068 24.858L83.0341 24.5597C82.3348 24.3939 81.821 24.1371 81.4929 23.7891C81.1681 23.4377 81.0057 22.9986 81.0057 22.4716C81.0057 22.0407 81.1267 21.6596 81.3686 21.3281C81.6139 20.9967 81.947 20.7365 82.3679 20.5476C82.7921 20.3587 83.2727 20.2642 83.8097 20.2642C84.5653 20.2642 85.1586 20.4299 85.5895 20.7614C86.0237 21.0928 86.3319 21.5303 86.5142 22.0739ZM93.5304 23.4062V28H92.3571V20.3636H93.4906V21.5568H93.59C93.769 21.169 94.0408 20.8575 94.4054 20.6222C94.7699 20.3835 95.2406 20.2642 95.8173 20.2642C96.3343 20.2642 96.7868 20.3703 97.1745 20.5824C97.5623 20.7912 97.8639 21.1094 98.0794 21.5369C98.2948 21.9612 98.4025 22.4981 98.4025 23.1477V28H97.2292V23.2273C97.2292 22.6274 97.0734 22.16 96.7619 21.8253C96.4503 21.4872 96.0228 21.3182 95.4792 21.3182C95.1047 21.3182 94.7699 21.3994 94.475 21.5618C94.1833 21.7242 93.9529 21.9612 93.7839 22.2727C93.6149 22.5843 93.5304 22.9621 93.5304 23.4062ZM103.649 28.1591C102.959 28.1591 102.355 27.995 101.834 27.6669C101.317 27.3388 100.913 26.8797 100.621 26.2898C100.333 25.6998 100.189 25.0104 100.189 24.2216C100.189 23.4261 100.333 22.7318 100.621 22.1385C100.913 21.5452 101.317 21.0845 101.834 20.7564C102.355 20.4283 102.959 20.2642 103.649 20.2642C104.338 20.2642 104.941 20.4283 105.458 20.7564C105.979 21.0845 106.383 21.5452 106.672 22.1385C106.963 22.7318 107.109 23.4261 107.109 24.2216C107.109 25.0104 106.963 25.6998 106.672 26.2898C106.383 26.8797 105.979 27.3388 105.458 27.6669C104.941 27.995 104.338 28.1591 103.649 28.1591ZM103.649 27.1051C104.172 27.1051 104.603 26.9709 104.941 26.7024C105.279 26.4339 105.53 26.081 105.692 25.6435C105.855 25.206 105.936 24.732 105.936 24.2216C105.936 23.7112 105.855 23.2356 105.692 22.7947C105.53 22.3539 105.279 21.9976 104.941 21.7259C104.603 21.4541 104.172 21.3182 103.649 21.3182C103.125 21.3182 102.694 21.4541 102.356 21.7259C102.018 21.9976 101.768 22.3539 101.605 22.7947C101.443 23.2356 101.362 23.7112 101.362 24.2216C101.362 24.732 101.443 25.206 101.605 25.6435C101.768 26.081 102.018 26.4339 102.356 26.7024C102.694 26.9709 103.125 27.1051 103.649 27.1051ZM112.838 28V20.3636H114.011V28H112.838ZM113.434 19.0909C113.205 19.0909 113.008 19.013 112.843 18.8572C112.68 18.7015 112.599 18.5142 112.599 18.2955C112.599 18.0767 112.68 17.8894 112.843 17.7337C113.008 17.5779 113.205 17.5 113.434 17.5C113.663 17.5 113.858 17.5779 114.021 17.7337C114.186 17.8894 114.269 18.0767 114.269 18.2955C114.269 18.5142 114.186 18.7015 114.021 18.8572C113.858 19.013 113.663 19.0909 113.434 19.0909ZM117.333 23.4062V28H116.16V20.3636H117.293V21.5568H117.393C117.572 21.169 117.844 20.8575 118.208 20.6222C118.573 20.3835 119.043 20.2642 119.62 20.2642C120.137 20.2642 120.589 20.3703 120.977 20.5824C121.365 20.7912 121.667 21.1094 121.882 21.5369C122.098 21.9612 122.205 22.4981 122.205 23.1477V28H121.032V23.2273C121.032 22.6274 120.876 22.16 120.565 21.8253C120.253 21.4872 119.826 21.3182 119.282 21.3182C118.907 21.3182 118.573 21.3994 118.278 21.5618C117.986 21.7242 117.756 21.9612 117.587 22.2727C117.418 22.5843 117.333 22.9621 117.333 23.4062ZM127.67 20.3636V21.358H123.713V20.3636H127.67ZM124.866 18.5341H126.04V25.8125C126.04 26.1439 126.088 26.3925 126.184 26.5582C126.283 26.7206 126.409 26.83 126.562 26.8864C126.717 26.9394 126.881 26.9659 127.054 26.9659C127.183 26.9659 127.289 26.9593 127.372 26.946C127.455 26.9295 127.521 26.9162 127.571 26.9062L127.809 27.9602C127.73 27.9901 127.619 28.0199 127.476 28.0497C127.334 28.0829 127.153 28.0994 126.934 28.0994C126.603 28.0994 126.278 28.0282 125.96 27.8857C125.645 27.7431 125.383 27.526 125.175 27.2344C124.969 26.9427 124.866 26.5748 124.866 26.1307V18.5341ZM132.555 28.1591C131.819 28.1591 131.184 27.9967 130.651 27.6719C130.12 27.3438 129.711 26.8864 129.423 26.2997C129.138 25.7098 128.995 25.0237 128.995 24.2415C128.995 23.4593 129.138 22.7699 129.423 22.1733C129.711 21.5734 130.112 21.1061 130.626 20.7713C131.143 20.4332 131.746 20.2642 132.436 20.2642C132.833 20.2642 133.226 20.3305 133.614 20.4631C134.002 20.5956 134.355 20.8111 134.673 21.1094C134.991 21.4044 135.244 21.7955 135.433 22.2827C135.622 22.7699 135.717 23.3698 135.717 24.0824V24.5795H129.83V23.5653H134.524C134.524 23.1345 134.437 22.75 134.265 22.4119C134.096 22.0739 133.854 21.8071 133.539 21.6115C133.228 21.416 132.86 21.3182 132.436 21.3182C131.968 21.3182 131.564 21.4342 131.222 21.6662C130.884 21.8949 130.624 22.1932 130.442 22.5611C130.26 22.929 130.169 23.3234 130.169 23.7443V24.4205C130.169 24.9972 130.268 25.486 130.467 25.8871C130.669 26.2848 130.949 26.5881 131.307 26.7969C131.665 27.0024 132.081 27.1051 132.555 27.1051C132.863 27.1051 133.142 27.062 133.39 26.9759C133.642 26.8864 133.859 26.7538 134.041 26.5781C134.224 26.3991 134.365 26.1771 134.464 25.9119L135.597 26.2301C135.478 26.6146 135.278 26.9527 134.996 27.2443C134.714 27.5327 134.366 27.758 133.952 27.9205C133.538 28.0795 133.072 28.1591 132.555 28.1591ZM137.502 28V20.3636H138.635V21.517H138.715C138.854 21.1392 139.106 20.8326 139.47 20.5973C139.835 20.362 140.246 20.2443 140.703 20.2443C140.789 20.2443 140.897 20.246 141.026 20.2493C141.156 20.2526 141.253 20.2576 141.32 20.2642V21.4574C141.28 21.4474 141.189 21.4325 141.046 21.4126C140.907 21.3894 140.76 21.3778 140.604 21.3778C140.233 21.3778 139.901 21.4557 139.61 21.6115C139.321 21.764 139.093 21.9761 138.923 22.2479C138.758 22.5163 138.675 22.8229 138.675 23.1676V28H137.502ZM143.884 23.4062V28H142.711V20.3636H143.844V21.5568H143.944C144.123 21.169 144.394 20.8575 144.759 20.6222C145.123 20.3835 145.594 20.2642 146.171 20.2642C146.688 20.2642 147.14 20.3703 147.528 20.5824C147.916 20.7912 148.217 21.1094 148.433 21.5369C148.648 21.9612 148.756 22.4981 148.756 23.1477V28H147.583V23.2273C147.583 22.6274 147.427 22.16 147.115 21.8253C146.804 21.4872 146.376 21.3182 145.833 21.3182C145.458 21.3182 145.123 21.3994 144.828 21.5618C144.537 21.7242 144.306 21.9612 144.137 22.2727C143.968 22.5843 143.884 22.9621 143.884 23.4062ZM154.102 28.1591C153.366 28.1591 152.731 27.9967 152.198 27.6719C151.667 27.3438 151.258 26.8864 150.97 26.2997C150.685 25.7098 150.542 25.0237 150.542 24.2415C150.542 23.4593 150.685 22.7699 150.97 22.1733C151.258 21.5734 151.659 21.1061 152.173 20.7713C152.69 20.4332 153.293 20.2642 153.982 20.2642C154.38 20.2642 154.773 20.3305 155.161 20.4631C155.548 20.5956 155.901 20.8111 156.22 21.1094C156.538 21.4044 156.791 21.7955 156.98 22.2827C157.169 22.7699 157.264 23.3698 157.264 24.0824V24.5795H151.377V23.5653H156.07C156.07 23.1345 155.984 22.75 155.812 22.4119C155.643 22.0739 155.401 21.8071 155.086 21.6115C154.775 21.416 154.407 21.3182 153.982 21.3182C153.515 21.3182 153.111 21.4342 152.769 21.6662C152.431 21.8949 152.171 22.1932 151.989 22.5611C151.807 22.929 151.715 23.3234 151.715 23.7443V24.4205C151.715 24.9972 151.815 25.486 152.014 25.8871C152.216 26.2848 152.496 26.5881 152.854 26.7969C153.212 27.0024 153.628 27.1051 154.102 27.1051C154.41 27.1051 154.688 27.062 154.937 26.9759C155.189 26.8864 155.406 26.7538 155.588 26.5781C155.771 26.3991 155.911 26.1771 156.011 25.9119L157.144 26.2301C157.025 26.6146 156.825 26.9527 156.543 27.2443C156.261 27.5327 155.913 27.758 155.499 27.9205C155.084 28.0795 154.619 28.1591 154.102 28.1591ZM162.369 20.3636V21.358H158.412V20.3636H162.369ZM159.566 18.5341H160.739V25.8125C160.739 26.1439 160.787 26.3925 160.883 26.5582C160.982 26.7206 161.108 26.83 161.261 26.8864C161.417 26.9394 161.581 26.9659 161.753 26.9659C161.882 26.9659 161.988 26.9593 162.071 26.946C162.154 26.9295 162.22 26.9162 162.27 26.9062L162.509 27.9602C162.429 27.9901 162.318 28.0199 162.176 28.0497C162.033 28.0829 161.852 28.0994 161.634 28.0994C161.302 28.0994 160.977 28.0282 160.659 27.8857C160.344 27.7431 160.083 27.526 159.874 27.2344C159.668 26.9427 159.566 26.5748 159.566 26.1307V18.5341ZM171.174 28.1591C170.458 28.1591 169.842 27.9901 169.325 27.652C168.808 27.3139 168.41 26.8482 168.132 26.255C167.853 25.6617 167.714 24.9839 167.714 24.2216C167.714 23.446 167.856 22.7616 168.142 22.1683C168.43 21.5717 168.831 21.1061 169.345 20.7713C169.862 20.4332 170.465 20.2642 171.154 20.2642C171.691 20.2642 172.175 20.3636 172.606 20.5625C173.037 20.7614 173.39 21.0398 173.665 21.3977C173.94 21.7557 174.111 22.1733 174.177 22.6506H173.004C172.914 22.3026 172.715 21.9943 172.407 21.7259C172.102 21.4541 171.691 21.3182 171.174 21.3182C170.717 21.3182 170.316 21.4375 169.971 21.6761C169.63 21.9115 169.363 22.2446 169.171 22.6754C168.982 23.103 168.887 23.6051 168.887 24.1818C168.887 24.7718 168.98 25.2855 169.166 25.723C169.355 26.1605 169.62 26.5002 169.961 26.7422C170.306 26.9841 170.71 27.1051 171.174 27.1051C171.479 27.1051 171.756 27.0521 172.004 26.946C172.253 26.84 172.463 26.6875 172.636 26.4886C172.808 26.2898 172.931 26.0511 173.004 25.7727H174.177C174.111 26.2235 173.947 26.6295 173.685 26.9908C173.426 27.3487 173.083 27.6338 172.656 27.8459C172.231 28.0547 171.738 28.1591 171.174 28.1591ZM178.994 28.1591C178.305 28.1591 177.7 27.995 177.18 27.6669C176.663 27.3388 176.258 26.8797 175.967 26.2898C175.678 25.6998 175.534 25.0104 175.534 24.2216C175.534 23.4261 175.678 22.7318 175.967 22.1385C176.258 21.5452 176.663 21.0845 177.18 20.7564C177.7 20.4283 178.305 20.2642 178.994 20.2642C179.684 20.2642 180.287 20.4283 180.804 20.7564C181.325 21.0845 181.729 21.5452 182.017 22.1385C182.309 22.7318 182.455 23.4261 182.455 24.2216C182.455 25.0104 182.309 25.6998 182.017 26.2898C181.729 26.8797 181.325 27.3388 180.804 27.6669C180.287 27.995 179.684 28.1591 178.994 28.1591ZM178.994 27.1051C179.518 27.1051 179.949 26.9709 180.287 26.7024C180.625 26.4339 180.875 26.081 181.038 25.6435C181.2 25.206 181.281 24.732 181.281 24.2216C181.281 23.7112 181.2 23.2356 181.038 22.7947C180.875 22.3539 180.625 21.9976 180.287 21.7259C179.949 21.4541 179.518 21.3182 178.994 21.3182C178.471 21.3182 178.04 21.4541 177.702 21.7259C177.364 21.9976 177.114 22.3539 176.951 22.7947C176.789 23.2356 176.708 23.7112 176.708 24.2216C176.708 24.732 176.789 25.206 176.951 25.6435C177.114 26.081 177.364 26.4339 177.702 26.7024C178.04 26.9709 178.471 27.1051 178.994 27.1051ZM185.419 23.4062V28H184.246V20.3636H185.379V21.5568H185.479C185.658 21.169 185.929 20.8575 186.294 20.6222C186.659 20.3835 187.129 20.2642 187.706 20.2642C188.223 20.2642 188.675 20.3703 189.063 20.5824C189.451 20.7912 189.753 21.1094 189.968 21.5369C190.183 21.9612 190.291 22.4981 190.291 23.1477V28H189.118V23.2273C189.118 22.6274 188.962 22.16 188.651 21.8253C188.339 21.4872 187.911 21.3182 187.368 21.3182C186.993 21.3182 186.659 21.3994 186.364 21.5618C186.072 21.7242 185.842 21.9612 185.673 22.2727C185.504 22.5843 185.419 22.9621 185.419 23.4062ZM193.608 23.4062V28H192.435V20.3636H193.569V21.5568H193.668C193.847 21.169 194.119 20.8575 194.483 20.6222C194.848 20.3835 195.319 20.2642 195.895 20.2642C196.412 20.2642 196.865 20.3703 197.253 20.5824C197.64 20.7912 197.942 21.1094 198.157 21.5369C198.373 21.9612 198.481 22.4981 198.481 23.1477V28H197.307V23.2273C197.307 22.6274 197.152 22.16 196.84 21.8253C196.528 21.4872 196.101 21.3182 195.557 21.3182C195.183 21.3182 194.848 21.3994 194.553 21.5618C194.261 21.7242 194.031 21.9612 193.862 22.2727C193.693 22.5843 193.608 22.9621 193.608 23.4062ZM203.826 28.1591C203.091 28.1591 202.456 27.9967 201.922 27.6719C201.392 27.3438 200.983 26.8864 200.694 26.2997C200.409 25.7098 200.267 25.0237 200.267 24.2415C200.267 23.4593 200.409 22.7699 200.694 22.1733C200.983 21.5734 201.384 21.1061 201.897 20.7713C202.414 20.4332 203.018 20.2642 203.707 20.2642C204.105 20.2642 204.498 20.3305 204.885 20.4631C205.273 20.5956 205.626 20.8111 205.944 21.1094C206.262 21.4044 206.516 21.7955 206.705 22.2827C206.894 22.7699 206.988 23.3698 206.988 24.0824V24.5795H201.102V23.5653H205.795C205.795 23.1345 205.709 22.75 205.537 22.4119C205.368 22.0739 205.126 21.8071 204.811 21.6115C204.499 21.416 204.131 21.3182 203.707 21.3182C203.24 21.3182 202.835 21.4342 202.494 21.6662C202.156 21.8949 201.896 22.1932 201.713 22.5611C201.531 22.929 201.44 23.3234 201.44 23.7443V24.4205C201.44 24.9972 201.539 25.486 201.738 25.8871C201.94 26.2848 202.221 26.5881 202.578 26.7969C202.936 27.0024 203.352 27.1051 203.826 27.1051C204.135 27.1051 204.413 27.062 204.662 26.9759C204.913 26.8864 205.131 26.7538 205.313 26.5781C205.495 26.3991 205.636 26.1771 205.735 25.9119L206.869 26.2301C206.75 26.6146 206.549 26.9527 206.267 27.2443C205.986 27.5327 205.638 27.758 205.223 27.9205C204.809 28.0795 204.343 28.1591 203.826 28.1591ZM211.875 28.1591C211.159 28.1591 210.543 27.9901 210.026 27.652C209.509 27.3139 209.111 26.8482 208.833 26.255C208.554 25.6617 208.415 24.9839 208.415 24.2216C208.415 23.446 208.558 22.7616 208.843 22.1683C209.131 21.5717 209.532 21.1061 210.046 20.7713C210.563 20.4332 211.166 20.2642 211.855 20.2642C212.392 20.2642 212.876 20.3636 213.307 20.5625C213.738 20.7614 214.091 21.0398 214.366 21.3977C214.641 21.7557 214.812 22.1733 214.878 22.6506H213.705C213.615 22.3026 213.417 21.9943 213.108 21.7259C212.803 21.4541 212.392 21.3182 211.875 21.3182C211.418 21.3182 211.017 21.4375 210.672 21.6761C210.331 21.9115 210.064 22.2446 209.872 22.6754C209.683 23.103 209.588 23.6051 209.588 24.1818C209.588 24.7718 209.681 25.2855 209.867 25.723C210.056 26.1605 210.321 26.5002 210.662 26.7422C211.007 26.9841 211.411 27.1051 211.875 27.1051C212.18 27.1051 212.457 27.0521 212.706 26.946C212.954 26.84 213.165 26.6875 213.337 26.4886C213.509 26.2898 213.632 26.0511 213.705 25.7727H214.878C214.812 26.2235 214.648 26.6295 214.386 26.9908C214.127 27.3487 213.784 27.6338 213.357 27.8459C212.933 28.0547 212.439 28.1591 211.875 28.1591ZM219.914 20.3636V21.358H215.957V20.3636H219.914ZM217.11 18.5341H218.284V25.8125C218.284 26.1439 218.332 26.3925 218.428 26.5582C218.527 26.7206 218.653 26.83 218.806 26.8864C218.962 26.9394 219.126 26.9659 219.298 26.9659C219.427 26.9659 219.533 26.9593 219.616 26.946C219.699 26.9295 219.765 26.9162 219.815 26.9062L220.054 27.9602C219.974 27.9901 219.863 28.0199 219.721 28.0497C219.578 28.0829 219.397 28.0994 219.179 28.0994C218.847 28.0994 218.522 28.0282 218.204 27.8857C217.889 27.7431 217.627 27.526 217.419 27.2344C217.213 26.9427 217.11 26.5748 217.11 26.1307V18.5341ZM221.679 28V20.3636H222.853V28H221.679ZM222.276 19.0909C222.047 19.0909 221.85 19.013 221.684 18.8572C221.522 18.7015 221.441 18.5142 221.441 18.2955C221.441 18.0767 221.522 17.8894 221.684 17.7337C221.85 17.5779 222.047 17.5 222.276 17.5C222.505 17.5 222.7 17.5779 222.863 17.7337C223.028 17.8894 223.111 18.0767 223.111 18.2955C223.111 18.5142 223.028 18.7015 222.863 18.8572C222.7 19.013 222.505 19.0909 222.276 19.0909ZM228.104 28.1591C227.414 28.1591 226.81 27.995 226.289 27.6669C225.772 27.3388 225.368 26.8797 225.076 26.2898C224.788 25.6998 224.644 25.0104 224.644 24.2216C224.644 23.4261 224.788 22.7318 225.076 22.1385C225.368 21.5452 225.772 21.0845 226.289 20.7564C226.81 20.4283 227.414 20.2642 228.104 20.2642C228.793 20.2642 229.396 20.4283 229.914 20.7564C230.434 21.0845 230.838 21.5452 231.127 22.1385C231.418 22.7318 231.564 23.4261 231.564 24.2216C231.564 25.0104 231.418 25.6998 231.127 26.2898C230.838 26.8797 230.434 27.3388 229.914 27.6669C229.396 27.995 228.793 28.1591 228.104 28.1591ZM228.104 27.1051C228.628 27.1051 229.058 26.9709 229.396 26.7024C229.735 26.4339 229.985 26.081 230.147 25.6435C230.31 25.206 230.391 24.732 230.391 24.2216C230.391 23.7112 230.31 23.2356 230.147 22.7947C229.985 22.3539 229.735 21.9976 229.396 21.7259C229.058 21.4541 228.628 21.3182 228.104 21.3182C227.58 21.3182 227.149 21.4541 226.811 21.7259C226.473 21.9976 226.223 22.3539 226.061 22.7947C225.898 23.2356 225.817 23.7112 225.817 24.2216C225.817 24.732 225.898 25.206 226.061 25.6435C226.223 26.081 226.473 26.4339 226.811 26.7024C227.149 26.9709 227.58 27.1051 228.104 27.1051ZM234.528 23.4062V28H233.355V20.3636H234.489V21.5568H234.588C234.767 21.169 235.039 20.8575 235.403 20.6222C235.768 20.3835 236.239 20.2642 236.815 20.2642C237.332 20.2642 237.785 20.3703 238.173 20.5824C238.56 20.7912 238.862 21.1094 239.077 21.5369C239.293 21.9612 239.401 22.4981 239.401 23.1477V28H238.227V23.2273C238.227 22.6274 238.071 22.16 237.76 21.8253C237.448 21.4872 237.021 21.3182 236.477 21.3182C236.103 21.3182 235.768 21.3994 235.473 21.5618C235.181 21.7242 234.951 21.9612 234.782 22.2727C234.613 22.5843 234.528 22.9621 234.528 23.4062Z" fill="#333333"/>
<rect x="0.5" y="0.5" width="291" height="45" rx="3.5" stroke="white"/>
</svg>
