<svg width="282" height="142" fill="none" xmlns="http://www.w3.org/2000/svg"><rect x=".5" y="1" width="281" height="140" rx="3.5" fill="#F3F8FF"/><g clip-path="url(#a)" fill="#102DA3"><path d="M23.67 27.79a.62.62 0 0 1-.62-.62v-2c0-.35.28-.62.62-.62.34 0 .62.28.62.62v2c0 .35-.28.62-.62.62Zm0-4a.6.6 0 0 1-.24-.05.57.57 0 0 1-.21-.13.86.86 0 0 1-.13-.2.69.69 0 0 1-.05-.24.64.64 0 0 1 .39-.58.66.66 0 0 1 .48 0c.07.03.14.08.2.14.06.05.1.12.13.2a.5.5 0 0 1 .05.24c0 .16-.06.32-.18.44a.67.67 0 0 1-.44.18Z"/><path d="M23.67 32.46a7.3 7.3 0 1 1 .02-14.6 7.3 7.3 0 0 1-.02 14.6Zm0-13.34a6.05 6.05 0 1 0 0 12.09 6.05 6.05 0 0 0 0-12.09Z"/></g><path d="M41.65 22.5h-1.3l3.75-10.18h1.27L49.1 22.5h-1.3l-3.04-8.57h-.08l-3.04 8.57Zm.48-3.98h5.2v1.1h-5.2v-1.1Zm13.7-3.66L53 22.5h-1.2l-2.82-7.64h1.27l2.11 6.09h.08l2.1-6.09h1.28Zm4.37 7.8c-.69 0-1.3-.16-1.82-.5a3.34 3.34 0 0 1-1.2-1.37 4.66 4.66 0 0 1-.44-2.07c0-.8.14-1.49.43-2.08.3-.6.7-1.06 1.21-1.38.53-.33 1.13-.5 1.82-.5a3.3 3.3 0 0 1 3.02 1.87c.3.6.44 1.3.44 2.1 0 .78-.15 1.47-.44 2.06a3.3 3.3 0 0 1-1.21 1.38 3.3 3.3 0 0 1-1.81.49Zm0-1.05c.52 0 .95-.14 1.3-.4.33-.28.58-.63.74-1.07a4.1 4.1 0 0 0 0-2.85 2.4 2.4 0 0 0-.75-1.06 2 2 0 0 0-1.29-.41 2 2 0 0 0-1.3.4 2.4 2.4 0 0 0-.74 1.07 4.1 4.1 0 0 0-.25 1.43c0 .51.08.99.25 1.42.16.44.4.8.75 1.06a2 2 0 0 0 1.29.4Zm5.25.89v-7.64h1.17v7.64h-1.17Zm.6-8.9a.83.83 0 0 1-.6-.24.75.75 0 0 1-.24-.56c0-.22.08-.41.25-.57a.83.83 0 0 1 .59-.23c.23 0 .42.08.58.23.17.16.25.35.25.57 0 .21-.08.4-.25.56a.82.82 0 0 1-.58.23Zm5.6 9.06a2.99 2.99 0 0 1-2.82-1.86 4.86 4.86 0 0 1-.41-2.1 5 5 0 0 1 .4-2.09 3.03 3.03 0 0 1 2.85-1.85c.5 0 .9.09 1.18.25.3.17.52.35.67.56.16.2.28.37.36.5h.1v-3.75h1.18V22.5h-1.14v-1.17h-.14c-.08.14-.2.31-.36.52-.16.21-.39.4-.69.57-.29.16-.68.24-1.17.24Zm.17-1.05c.47 0 .86-.13 1.19-.37.32-.25.57-.6.74-1.03.17-.44.25-.95.25-1.53 0-.57-.08-1.07-.25-1.5a1.96 1.96 0 0 0-1.94-1.37c-.5 0-.9.14-1.24.4-.33.24-.57.59-.74 1.02a4.1 4.1 0 0 0-.24 1.45c0 .55.08 1.04.25 1.48.17.44.41.8.74 1.06s.75.39 1.24.39Zm9.59.89v-7.64h1.13v1.2h.1c.16-.41.41-.73.77-.95a2.3 2.3 0 0 1 1.28-.35 2.14 2.14 0 0 1 2.05 1.3h.08c.2-.4.48-.71.88-.94.39-.24.86-.36 1.4-.36.68 0 1.24.22 1.68.65.43.42.65 1.08.65 1.98v5.11h-1.17v-5.11c0-.56-.16-.97-.47-1.2-.3-.25-.67-.37-1.09-.37-.53 0-.95.16-1.24.49-.3.32-.45.72-.45 1.22v4.97h-1.19v-5.23c0-.43-.14-.78-.42-1.05-.28-.27-.65-.4-1.1-.4-.3 0-.58.08-.85.24a1.8 1.8 0 0 0-.63.68 2 2 0 0 0-.24.99v4.77H81.4Zm15.27.16c-.7 0-1.3-.16-1.82-.5a3.34 3.34 0 0 1-1.21-1.37 4.66 4.66 0 0 1-.43-2.07c0-.8.14-1.49.43-2.08a3.27 3.27 0 0 1 3.03-1.88 3.3 3.3 0 0 1 3.02 1.87c.29.6.44 1.3.44 2.1 0 .78-.15 1.47-.44 2.06a3.3 3.3 0 0 1-1.21 1.38 3.3 3.3 0 0 1-1.81.49Zm0-1.05c.52 0 .95-.14 1.29-.4.34-.28.59-.63.75-1.07a4.25 4.25 0 0 0 0-2.85 2.4 2.4 0 0 0-.75-1.06 2 2 0 0 0-1.3-.41 2 2 0 0 0-1.29.4 2.4 2.4 0 0 0-.75 1.07 4.1 4.1 0 0 0-.24 1.43c0 .51.08.99.24 1.42.17.44.42.8.75 1.06.34.27.77.4 1.3.4Zm5.25.89v-7.64h1.13v1.16h.08c.14-.38.4-.69.76-.92.36-.24.77-.36 1.23-.36a13.07 13.07 0 0 1 .62.02v1.2a3.46 3.46 0 0 0-.72-.08c-.37 0-.7.08-1 .23a1.72 1.72 0 0 0-.93 1.56v4.83h-1.17Zm8.18.16a3.26 3.26 0 0 1-3.13-1.86 4.68 4.68 0 0 1-.43-2.06c0-.78.14-1.47.42-2.07.3-.6.7-1.06 1.2-1.4a3.62 3.62 0 0 1 2.99-.3 2.93 2.93 0 0 1 1.82 1.81 5 5 0 0 1 .29 1.8v.5h-5.89v-1.01h4.7c0-.44-.1-.82-.26-1.16a1.95 1.95 0 0 0-1.83-1.1 2.2 2.2 0 0 0-2 1.26c-.18.36-.27.75-.27 1.17v.68c0 .58.1 1.07.3 1.47.2.4.48.7.84.9.36.21.77.32 1.25.32.3 0 .58-.05.83-.13a1.7 1.7 0 0 0 1.07-1.07l1.14.32a2.73 2.73 0 0 1-1.65 1.69c-.41.16-.88.24-1.4.24Zm12.2-7.8v1h-3.96v-1h3.96Zm-2.8-1.83h1.17v7.28c0 .33.05.58.14.75.1.16.23.27.38.33.16.05.32.08.5.08l.31-.02.2-.04.24 1.05a2.33 2.33 0 0 1-.88.14c-.33 0-.65-.07-.97-.21a1.94 1.94 0 0 1-.78-.66 1.83 1.83 0 0 1-.31-1.1v-7.6Zm5.9 4.88v4.59h-1.17V12.32h1.17v3.74h.1c.18-.4.45-.71.8-.94a2.6 2.6 0 0 1 1.45-.36c.52 0 .98.1 1.37.32.39.2.7.52.9.95.23.42.34.96.34 1.62v4.85h-1.18v-4.77a2 2 0 0 0-.47-1.41c-.31-.33-.75-.5-1.3-.5-.38 0-.73.08-1.03.24-.3.16-.54.4-.72.71a2.3 2.3 0 0 0-.26 1.14Zm9.35 4.77c-.48 0-.92-.1-1.32-.27-.4-.19-.7-.46-.94-.8a2.26 2.26 0 0 1-.35-1.28c0-.44.09-.79.26-1.06.17-.28.4-.5.7-.65.28-.15.6-.27.95-.35.35-.08.7-.14 1.06-.18l1.13-.14c.29-.03.5-.09.63-.16.14-.08.2-.21.2-.4v-.04c0-.5-.13-.87-.4-1.14-.26-.28-.67-.41-1.2-.41a2.07 2.07 0 0 0-1.99 1.15l-1.12-.4a2.73 2.73 0 0 1 1.9-1.63 4.54 4.54 0 0 1 2.01-.07c.32.06.63.18.93.36.3.18.55.45.75.8.2.37.3.85.3 1.46v5.03h-1.17v-1.03h-.06a2.3 2.3 0 0 1-1.14 1.01c-.31.13-.69.2-1.13.2Zm.18-1.05c.46 0 .85-.1 1.17-.28a1.87 1.87 0 0 0 .97-1.61v-1.08c-.04.06-.15.12-.32.17a5.55 5.55 0 0 1-1.21.21l-.5.06c-.3.04-.58.1-.85.2-.26.08-.47.21-.63.39a1 1 0 0 0-.24.7c0 .41.15.72.45.93.3.2.69.3 1.16.3Zm6.63-3.72v4.59h-1.17v-7.64h1.13v1.2h.1c.18-.4.45-.7.82-.94a2.5 2.5 0 0 1 1.41-.36c.52 0 .97.11 1.36.32.38.21.69.53.9.96.22.42.32.96.32 1.6v4.86h-1.17v-4.77c0-.6-.15-1.07-.47-1.4-.3-.34-.73-.51-1.28-.51-.37 0-.7.08-1 .24-.3.16-.52.4-.7.71-.16.31-.25.7-.25 1.14Zm10.94 4.59v-.9l3.36-3.67c.4-.43.72-.8.97-1.13.26-.32.45-.62.57-.9.13-.29.19-.59.19-.9a1.65 1.65 0 0 0-.96-1.53c-.3-.15-.62-.22-1-.22s-.72.08-1.01.25c-.3.16-.52.38-.68.67a2.1 2.1 0 0 0-.23 1.01h-1.17a2.86 2.86 0 0 1 1.54-2.63 3.39 3.39 0 0 1 1.6-.37c.6 0 1.12.12 1.59.38a2.8 2.8 0 0 1 1.27 3.54c-.14.36-.37.75-.7 1.19-.33.43-.78.96-1.37 1.6l-2.28 2.44v.08h4.73v1.09h-6.42Zm14.68.18c-.49 0-.93-.1-1.32-.27-.4-.19-.7-.46-.94-.8a2.26 2.26 0 0 1-.35-1.28c0-.44.09-.79.26-1.06.17-.28.4-.5.7-.65.28-.15.6-.27.95-.35.35-.08.7-.14 1.06-.18l1.13-.14c.29-.03.5-.09.63-.16.14-.08.2-.21.2-.4v-.04c0-.5-.13-.87-.4-1.14-.26-.28-.67-.41-1.2-.41a2.07 2.07 0 0 0-2 1.15l-1.1-.4a2.68 2.68 0 0 1 1.88-1.63 4.54 4.54 0 0 1 2.02-.07c.32.06.63.18.93.36.3.18.55.45.75.8.2.37.3.85.3 1.46v5.03h-1.18v-1.03h-.05a2.3 2.3 0 0 1-1.14 1.01c-.31.13-.69.2-1.13.2Zm.18-1.05c.46 0 .85-.1 1.17-.28a1.86 1.86 0 0 0 .97-1.61v-1.08c-.04.06-.15.12-.32.17a5.55 5.55 0 0 1-1.21.21l-.5.06c-.3.04-.58.1-.85.2-.26.08-.47.21-.63.39a1 1 0 0 0-.24.7c0 .41.15.72.45.93.3.2.69.3 1.16.3Zm8.56 1.03a3.3 3.3 0 0 1-1.85-.5 3.57 3.57 0 0 1-1.2-1.4 4.74 4.74 0 0 1-.4-2.04c0-.77.13-1.46.42-2.05a3.23 3.23 0 0 1 3.01-1.9c.54 0 1.02.1 1.45.3a2.6 2.6 0 0 1 1.57 2.09h-1.17a1.79 1.79 0 0 0-1.83-1.33 1.9 1.9 0 0 0-1.2.35c-.34.23-.6.56-.8 1-.19.42-.28.93-.28 1.5a4 4 0 0 0 .27 1.54c.2.44.46.78.8 1.02s.75.37 1.21.37c.3 0 .58-.06.83-.16a1.72 1.72 0 0 0 1-1.18h1.18a2.72 2.72 0 0 1-1.53 2.08c-.42.2-.91.3-1.48.3Zm8.04-7.8v1h-3.96v-1h3.96Zm-2.8-1.83h1.17v7.28c0 .33.05.58.15.75.1.16.22.27.37.33.16.05.32.08.5.08l.31-.02.2-.04.24 1.05a2.33 2.33 0 0 1-.88.14c-.33 0-.65-.07-.97-.21a1.94 1.94 0 0 1-.78-.66 1.83 1.83 0 0 1-.31-1.1v-7.6Zm4.57 9.47v-7.64h1.17v7.64h-1.17Zm.6-8.9a.83.83 0 0 1-.6-.24.75.75 0 0 1-.24-.56c0-.22.08-.41.24-.57a.83.83 0 0 1 .6-.23c.22 0 .42.08.58.23.17.16.25.35.25.57 0 .21-.08.4-.25.56a.82.82 0 0 1-.59.23Zm5.82 9.06a3.2 3.2 0 0 1-1.81-.5 3.34 3.34 0 0 1-1.22-1.37 4.65 4.65 0 0 1-.43-2.07c0-.8.14-1.49.43-2.08a3.3 3.3 0 0 1 3.03-1.88 3.28 3.28 0 0 1 3.02 1.88c.3.6.44 1.29.44 2.08a4.6 4.6 0 0 1-.44 2.07 3.3 3.3 0 0 1-1.21 1.38 3.3 3.3 0 0 1-1.8.49Zm0-1.05c.52 0 .96-.14 1.3-.4.33-.28.58-.63.74-1.07a4.1 4.1 0 0 0 0-2.85c-.16-.44-.4-.8-.75-1.06a2 2 0 0 0-1.29-.41 2 2 0 0 0-1.3.4c-.33.28-.58.63-.74 1.07a4.1 4.1 0 0 0-.25 1.43c0 .51.09.99.25 1.42.16.44.41.8.75 1.06.34.27.77.4 1.3.4Zm6.43-3.7v4.59h-1.18v-7.64h1.13v1.2h.1c.18-.4.46-.7.82-.94a2.5 2.5 0 0 1 1.41-.36c.52 0 .97.11 1.36.32.39.21.69.53.9.96.22.42.33.96.33 1.6v4.86h-1.18v-4.77c0-.6-.15-1.07-.46-1.4a1.66 1.66 0 0 0-1.29-.51c-.37 0-.7.08-1 .24-.3.16-.52.4-.7.71-.16.31-.25.7-.25 1.14ZM211 16.57l-1.05.3a1.95 1.95 0 0 0-.3-.51c-.12-.17-.3-.3-.51-.42-.22-.1-.5-.16-.84-.16a2 2 0 0 0-1.17.32.94.94 0 0 0-.46.81c0 .3.1.52.31.7.22.16.55.3 1 .42l1.13.27c.68.17 1.2.42 1.53.76.33.34.5.78.5 1.31 0 .44-.13.83-.38 1.18-.25.34-.6.61-1.04.81-.45.2-.97.3-1.56.3-.78 0-1.43-.17-1.94-.5a2.25 2.25 0 0 1-.97-1.49l1.12-.28c.1.41.3.72.6.93.3.2.69.3 1.17.3.54 0 .98-.11 1.3-.34.32-.24.49-.52.49-.85a.9.9 0 0 0-.28-.66 1.78 1.78 0 0 0-.86-.41l-1.27-.3a3.04 3.04 0 0 1-1.54-.77c-.33-.35-.49-.8-.49-1.32 0-.43.12-.81.37-1.14.24-.33.57-.6 1-.78.42-.2.9-.29 1.44-.29.75 0 1.34.17 1.78.5.43.33.74.77.92 1.31Z" fill="#333"/><rect x="40" y="35.5" width="92" height="32" rx="4" fill="#0F67F5"/><path d="M66.31 56.5h-1.97l3.59-10.18h2.28L73.8 56.5h-1.97l-2.72-8.1h-.08l-2.72 8.1Zm.07-4h5.37V54h-5.37v-1.5Zm11.78 4.15a3.35 3.35 0 0 1-3.22-1.89c-.3-.6-.44-1.28-.44-2.05 0-.77.15-1.46.44-2.05a3.38 3.38 0 0 1 3.21-1.9c.62 0 1.16.12 1.64.35a2.81 2.81 0 0 1 1.64 2.4H79.7a1.64 1.64 0 0 0-.5-.92c-.26-.25-.6-.37-1.04-.37-.37 0-.69.1-.97.3-.28.19-.5.47-.65.84-.15.37-.23.8-.23 1.32s.08.97.23 1.34c.15.38.37.66.64.86.28.2.6.3.98.3.27 0 .5-.05.71-.15.21-.1.4-.25.53-.44.15-.2.24-.43.3-.7h1.72a2.83 2.83 0 0 1-1.6 2.41 3.8 3.8 0 0 1-1.67.35Zm8.56-7.79v1.4h-4.4v-1.4h4.4Zm-3.3-1.83h1.8v7.17c0 .25.03.43.1.56.08.13.18.21.3.26.12.04.26.07.4.07a1.76 1.76 0 0 0 .53-.07l.3 1.4a4.01 4.01 0 0 1-1.05.18c-.45.02-.86-.05-1.22-.2a1.9 1.9 0 0 1-.86-.7 2.1 2.1 0 0 1-.3-1.2v-7.47Zm4.8 9.47v-7.64h1.8v7.64h-1.8Zm.9-8.72c-.28 0-.52-.1-.73-.28a.91.91 0 0 1-.3-.7c0-.27.1-.5.3-.69.2-.19.45-.28.74-.28s.53.1.73.28c.21.2.31.42.31.7 0 .26-.1.5-.3.69-.2.19-.45.28-.74.28Zm6.08 8.87a3.7 3.7 0 0 1-1.93-.5 3.34 3.34 0 0 1-1.28-1.37 4.53 4.53 0 0 1-.44-2.07c0-.79.14-1.48.44-2.07.3-.6.73-1.06 1.28-1.38a3.7 3.7 0 0 1 1.93-.5c.75 0 1.4.17 1.94.5.55.32.97.79 1.27 1.38.3.6.45 1.28.45 2.07 0 .8-.15 1.48-.45 2.07-.3.59-.72 1.05-1.27 1.38-.54.33-1.19.49-1.94.49Zm.01-1.44c.4 0 .75-.11 1.02-.34a2 2 0 0 0 .6-.9c.14-.38.2-.8.2-1.26 0-.47-.06-.9-.2-1.27a2 2 0 0 0-.6-.91 1.54 1.54 0 0 0-1.02-.34c-.4 0-.75.11-1.03.34-.27.22-.47.53-.61.9a3.95 3.95 0 0 0 0 2.54c.14.38.34.68.61.9.28.23.62.34 1.03.34Zm6.98-3.18v4.47h-1.8v-7.64h1.72v1.3h.1c.17-.43.45-.77.83-1.02.39-.25.87-.38 1.44-.38.52 0 .98.12 1.38.34.39.23.7.55.91.98.22.43.33.95.32 1.56v4.86h-1.8v-4.58c0-.51-.13-.91-.4-1.2a1.4 1.4 0 0 0-1.08-.43c-.32 0-.6.07-.84.2-.25.14-.44.34-.58.6a2 2 0 0 0-.2.94Z" fill="#fff"/><path d="M170.73 56.5h-1.97l3.59-10.18h2.27l3.6 10.18h-1.98l-2.72-8.1h-.08l-2.71 8.1Zm.06-4h5.37V54h-5.37v-1.5Zm11.78 4.15a3.36 3.36 0 0 1-3.22-1.89 4.6 4.6 0 0 1-.44-2.05c0-.77.15-1.46.45-2.05a3.35 3.35 0 0 1 3.2-1.9c.62 0 1.17.12 1.65.35a2.81 2.81 0 0 1 1.63 2.4h-1.72a1.64 1.64 0 0 0-.5-.92 1.4 1.4 0 0 0-1.03-.37c-.37 0-.7.1-.97.3-.28.19-.5.47-.65.84-.16.37-.23.8-.23 1.32s.07.97.23 1.34c.15.38.36.66.64.86.28.2.6.3.98.3.26 0 .5-.05.7-.15.22-.1.4-.25.54-.44.14-.2.24-.43.3-.7h1.71a2.82 2.82 0 0 1-1.6 2.41c-.47.23-1.03.35-1.67.35Zm8.56-7.79v1.4h-4.39v-1.4h4.4Zm-3.3-1.83h1.8v7.17c0 .25.03.43.1.56a.6.6 0 0 0 .3.26c.13.04.26.07.41.07a1.76 1.76 0 0 0 .53-.07l.3 1.4a4.08 4.08 0 0 1-1.06.18c-.45.02-.85-.05-1.21-.2a1.89 1.89 0 0 1-.86-.7 2.1 2.1 0 0 1-.31-1.2v-7.47Zm4.81 9.47v-7.64h1.8v7.64h-1.8Zm.9-8.72c-.28 0-.53-.1-.73-.28a.91.91 0 0 1-.31-.7c0-.27.1-.5.3-.69.21-.19.46-.28.74-.28.3 0 .54.1.74.28.2.2.3.42.3.7 0 .26-.1.5-.3.69-.2.19-.45.28-.74.28Zm6.08 8.87a3.7 3.7 0 0 1-1.94-.5 3.35 3.35 0 0 1-1.27-1.37 4.53 4.53 0 0 1-.45-2.07c0-.79.15-1.48.45-2.07.3-.6.72-1.06 1.27-1.38a3.7 3.7 0 0 1 1.94-.5c.75 0 1.4.17 1.94.5.55.32.97.79 1.27 1.38.3.6.45 1.28.45 2.07a4.5 4.5 0 0 1-.45 2.07c-.3.59-.72 1.05-1.27 1.38a3.7 3.7 0 0 1-1.94.49Zm.01-1.44c.4 0 .74-.11 1.02-.34.27-.22.47-.52.6-.9.14-.38.2-.8.2-1.26 0-.47-.06-.9-.2-1.27a2 2 0 0 0-.6-.91 1.54 1.54 0 0 0-1.02-.34c-.41 0-.76.11-1.03.34-.28.22-.48.53-.61.9-.14.39-.2.8-.2 1.28 0 .46.06.88.2 1.26.13.38.33.68.6.9.28.23.63.34 1.04.34Zm6.98-3.18v4.47h-1.8v-7.64h1.72v1.3h.09c.17-.43.45-.77.84-1.02.38-.25.86-.38 1.43-.38.53 0 .99.12 1.38.34.4.23.7.55.92.98.22.43.32.95.32 1.56v4.86h-1.8v-4.58c0-.51-.13-.91-.4-1.2a1.4 1.4 0 0 0-1.09-.43c-.31 0-.6.07-.84.2a1.5 1.5 0 0 0-.57.6 2 2 0 0 0-.2.94Zm10.18 4.47v-1.33l3.54-3.47c.33-.34.62-.64.84-.9.23-.27.4-.53.5-.78.12-.25.18-.51.18-.8a1.45 1.45 0 0 0-.82-1.36 1.94 1.94 0 0 0-.87-.18c-.34 0-.63.06-.88.2s-.45.33-.59.59c-.13.25-.2.55-.2.9h-1.76a2.99 2.99 0 0 1 1.66-2.8c.52-.26 1.12-.4 1.8-.4.68 0 1.28.14 1.8.4a2.73 2.73 0 0 1 1.64 2.57c-.01.37-.09.75-.23 1.12a5 5 0 0 1-.77 1.22c-.37.45-.88.99-1.54 1.62l-1.75 1.79v.07h4.43v1.54h-6.98Z" fill="#0F67F5"/><rect x="144.5" y="36" width="104" height="31" rx="3.5" stroke="#0F67F5"/><path d="M66.52 100.5h-1.97l3.58-10.18h2.28L74 100.5h-1.97l-2.72-8.1h-.08l-2.71 8.1Zm.06-4h5.37V98h-5.37v-1.5Zm11.78 4.15a3.35 3.35 0 0 1-3.22-1.89c-.3-.6-.44-1.28-.44-2.05 0-.77.15-1.46.45-2.05.3-.6.72-1.06 1.26-1.4a3.7 3.7 0 0 1 1.94-.5c.62 0 1.17.12 1.65.35a2.81 2.81 0 0 1 1.63 2.4h-1.72a1.64 1.64 0 0 0-.5-.92 1.4 1.4 0 0 0-1.03-.37c-.37 0-.7.1-.97.3-.28.19-.5.47-.66.84-.15.37-.22.8-.22 1.32s.07.97.22 1.34c.16.38.37.66.65.86.27.2.6.3.98.3.26 0 .5-.05.7-.15.22-.1.4-.25.54-.44.14-.2.24-.42.3-.7h1.71a2.82 2.82 0 0 1-1.6 2.41c-.47.23-1.03.35-1.67.35Zm8.56-7.79v1.4h-4.39v-1.4h4.4Zm-3.3-1.83h1.8v7.17c0 .25.03.43.1.56.08.13.18.21.3.26.13.04.26.07.41.07a1.76 1.76 0 0 0 .53-.07l.3 1.4a3.84 3.84 0 0 1-1.06.18c-.45.02-.85-.05-1.22-.2a1.9 1.9 0 0 1-.86-.7 2.1 2.1 0 0 1-.3-1.2v-7.47Zm4.8 9.47v-7.64h1.8v7.64h-1.8Zm.91-8.72c-.28 0-.53-.1-.73-.28a.91.91 0 0 1-.31-.7c0-.27.1-.5.3-.69.21-.19.46-.28.74-.28.3 0 .54.1.74.28.2.2.3.42.3.7 0 .26-.1.5-.3.69-.2.19-.45.28-.74.28Zm6.08 8.87a3.7 3.7 0 0 1-1.94-.5 3.34 3.34 0 0 1-1.27-1.37 4.53 4.53 0 0 1-.45-2.07c0-.79.15-1.48.45-2.07.3-.6.72-1.06 1.27-1.38a3.7 3.7 0 0 1 1.94-.5c.74 0 1.4.17 1.94.5.54.32.97.79 1.27 1.38.3.6.45 1.28.45 2.07 0 .8-.15 1.48-.45 2.07a3.39 3.39 0 0 1-3.21 1.87Zm0-1.44c.41 0 .75-.11 1.02-.34a2 2 0 0 0 .61-.9c.14-.38.2-.8.2-1.26 0-.47-.06-.9-.2-1.27a2 2 0 0 0-.6-.91 1.54 1.54 0 0 0-1.02-.34c-.42 0-.76.11-1.04.34-.27.22-.47.53-.6.9-.14.39-.2.8-.2 1.28 0 .46.06.88.2 1.26.13.38.33.68.6.9.28.23.62.34 1.04.34Zm6.98-3.18v4.47h-1.8v-7.64h1.73v1.3h.09c.17-.43.45-.77.84-1.02.38-.25.86-.38 1.43-.38.53 0 .99.12 1.38.34.4.23.7.55.91.98.22.43.33.95.33 1.56v4.86h-1.8v-4.58c0-.51-.14-.91-.4-1.2a1.4 1.4 0 0 0-1.09-.43c-.31 0-.6.07-.84.2a1.5 1.5 0 0 0-.57.6 2 2 0 0 0-.2.94Zm13.84 4.6c-.71 0-1.35-.11-1.9-.36a3.2 3.2 0 0 1-1.32-1.02 2.7 2.7 0 0 1-.51-1.52h1.87c.02.28.1.52.27.72.17.2.39.36.66.47.28.12.59.17.93.17.36 0 .69-.06.97-.19s.5-.3.66-.53c.16-.23.24-.5.23-.8 0-.3-.07-.57-.24-.8a1.6 1.6 0 0 0-.7-.56c-.3-.13-.67-.2-1.1-.2h-.9V94.6h.9c.35 0 .66-.06.92-.19.27-.12.48-.29.64-.51.15-.23.22-.49.22-.78 0-.3-.06-.54-.2-.75a1.31 1.31 0 0 0-.55-.5 2.19 2.19 0 0 0-1.7-.01c-.26.1-.47.27-.63.48-.17.2-.25.45-.26.73h-1.78a2.6 2.6 0 0 1 .5-1.5c.31-.43.74-.77 1.27-1.01a4.2 4.2 0 0 1 1.78-.37c.68 0 1.27.13 1.77.38s.9.6 1.17 1.02c.28.43.41.9.41 1.42a2.1 2.1 0 0 1-.5 1.44c-.34.39-.78.64-1.33.76v.08c.71.1 1.26.36 1.64.8.39.42.58.95.57 1.6 0 .56-.16 1.07-.48 1.52-.33.45-.77.8-1.34 1.06a4.7 4.7 0 0 1-1.94.38Z" fill="#0F67F5"/><rect x="40.5" y="80" width="104" height="31" rx="3.5" stroke="#0F67F5"/><rect x="157" y="79.5" width="105" height="32" rx="4" fill="#fff"/><path d="M183.41 100.5h-1.96l3.58-10.18h2.28l3.59 10.18h-1.97l-2.72-8.1h-.08l-2.72 8.1Zm.07-4h5.37V98h-5.37v-1.5Zm11.78 4.15a3.35 3.35 0 0 1-3.22-1.89c-.3-.6-.44-1.28-.44-2.05 0-.77.15-1.46.45-2.05a3.35 3.35 0 0 1 3.2-1.9c.62 0 1.17.12 1.64.35a2.81 2.81 0 0 1 1.64 2.4h-1.72a1.65 1.65 0 0 0-.5-.92c-.26-.25-.6-.37-1.04-.37-.37 0-.69.1-.97.3-.28.19-.5.47-.65.84-.15.37-.23.8-.23 1.32s.08.97.23 1.34c.15.38.37.66.64.86.28.2.6.3.98.3.27 0 .5-.05.71-.15.22-.1.4-.25.53-.44.15-.2.25-.42.3-.7h1.72a2.82 2.82 0 0 1-1.6 2.41 3.8 3.8 0 0 1-1.67.35Zm8.56-7.79v1.4h-4.39v-1.4h4.39Zm-3.3-1.83h1.8v7.17c0 .25.03.43.1.56a.6.6 0 0 0 .3.26c.12.04.26.07.4.07a1.75 1.75 0 0 0 .54-.07l.3 1.4a3.87 3.87 0 0 1-1.06.18c-.45.02-.86-.05-1.22-.2a1.9 1.9 0 0 1-.86-.7 2.1 2.1 0 0 1-.3-1.2v-7.47Zm4.8 9.47v-7.64h1.8v7.64h-1.8Zm.91-8.72c-.28 0-.53-.1-.74-.28a.91.91 0 0 1-.3-.7c0-.27.1-.5.3-.69.21-.19.45-.28.74-.28s.53.1.74.28c.2.2.3.42.3.7 0 .26-.1.5-.3.69-.2.19-.45.28-.74.28Zm6.08 8.87a3.7 3.7 0 0 1-1.94-.5 3.34 3.34 0 0 1-1.28-1.37 4.53 4.53 0 0 1-.44-2.07c0-.79.15-1.48.44-2.07.3-.6.73-1.06 1.28-1.38a3.7 3.7 0 0 1 1.94-.5c.74 0 1.39.17 1.94.5.54.32.97.79 1.26 1.38.3.6.46 1.28.46 2.07 0 .8-.16 1.48-.46 2.07a3.3 3.3 0 0 1-1.26 1.38 3.7 3.7 0 0 1-1.94.49Zm0-1.44c.41 0 .75-.11 1.02-.34a2 2 0 0 0 .6-.9 3.85 3.85 0 0 0 .01-2.53 2 2 0 0 0-.6-.91 1.54 1.54 0 0 0-1.02-.34c-.42 0-.76.11-1.04.34-.27.22-.47.53-.6.9-.14.39-.2.8-.2 1.28 0 .46.06.88.2 1.26.13.38.33.68.6.9.28.23.62.34 1.04.34Zm6.98-3.18v4.47h-1.8v-7.64h1.72v1.3h.1c.17-.43.45-.77.83-1.02.4-.25.87-.38 1.44-.38.53 0 .99.12 1.38.34.4.23.7.55.91.98.22.43.33.95.32 1.56v4.86h-1.8v-4.58c0-.51-.13-.91-.4-1.2a1.4 1.4 0 0 0-1.08-.43c-.32 0-.6.07-.84.2a1.5 1.5 0 0 0-.57.6 2 2 0 0 0-.2.94Zm10 2.58v-1.47l4.32-6.82h1.23v2.09h-.75l-2.9 4.6v.08h6.02v1.52h-7.92Zm4.86 1.89v-2.34l.02-.65v-7.2h1.74v10.19h-1.76Z" fill="#0F67F5"/><rect x="157" y="79.5" width="105" height="32" rx="4" stroke="#0F67F5"/><rect x=".5" y="1" width="281" height="140" rx="3.5" stroke="#fff"/><defs><clipPath id="a"><path fill="#fff" transform="translate(16 17.5)" d="M0 0h16v16H0z"/></clipPath></defs></svg>