<svg width="282" height="142" viewBox="0 0 282 142" fill="none" xmlns="http://www.w3.org/2000/svg">
<rect x="0.5" y="1" width="281" height="140" rx="3.5" fill="#F3F8FF"/>
<g clip-path="url(#clip0_11640_104007)">
<path d="M23.6699 27.7899C23.3199 27.7899 23.0499 27.5099 23.0499 27.1699V25.1699C23.0499 24.8199 23.3299 24.5499 23.6699 24.5499C24.0099 24.5499 24.2899 24.8299 24.2899 25.1699V27.1699C24.2899 27.5199 24.0099 27.7899 23.6699 27.7899Z" fill="#102DA3"/>
<path d="M23.6699 23.7899C23.5799 23.7899 23.4999 23.7699 23.4299 23.7399C23.3499 23.7099 23.2799 23.6699 23.2199 23.6099C23.1699 23.5499 23.1199 23.4799 23.0899 23.4099C23.0599 23.3299 23.0399 23.2499 23.0399 23.1699C23.0399 23.0899 23.0599 22.9999 23.0899 22.9299C23.1199 22.8499 23.1699 22.7799 23.2199 22.7299C23.2799 22.6699 23.3499 22.6199 23.4299 22.5899C23.5799 22.5299 23.7499 22.5299 23.9099 22.5899C23.9799 22.6199 24.0499 22.6699 24.1099 22.7299C24.1699 22.7799 24.2099 22.8499 24.2399 22.9299C24.2799 22.9999 24.2899 23.0899 24.2899 23.1699C24.2899 23.3299 24.2299 23.4899 24.1099 23.6099C23.9899 23.7199 23.8299 23.7899 23.6699 23.7899Z" fill="#102DA3"/>
<path d="M23.6699 32.4599C19.6499 32.4599 16.3799 29.1899 16.3799 25.1699C16.3799 21.1499 19.6499 17.8799 23.6699 17.8799C27.6899 17.8799 30.9599 21.1499 30.9599 25.1699C30.9599 29.1899 27.6899 32.4599 23.6699 32.4599ZM23.6699 19.1199C20.3299 19.1199 17.6199 21.8399 17.6199 25.1699C17.6199 28.4999 20.3299 31.2099 23.6599 31.2099C26.9899 31.2099 29.6999 28.4999 29.6999 25.1699C29.6999 21.8399 26.9999 19.1199 23.6699 19.1199Z" fill="#102DA3"/>
</g>
<path d="M41.6506 22.5H40.358L44.0966 12.3182H45.3693L49.108 22.5H47.8153L44.7727 13.929H44.6932L41.6506 22.5ZM42.1278 18.5227H47.3381V19.6165H42.1278V18.5227ZM55.8221 14.8636L52.9982 22.5H51.805L48.9812 14.8636H50.2539L52.3619 20.9489H52.4414L54.5494 14.8636H55.8221ZM60.1996 22.6591C59.5102 22.6591 58.9053 22.495 58.3849 22.1669C57.8679 21.8388 57.4635 21.3797 57.1719 20.7898C56.8835 20.1998 56.7393 19.5104 56.7393 18.7216C56.7393 17.9261 56.8835 17.2318 57.1719 16.6385C57.4635 16.0452 57.8679 15.5845 58.3849 15.2564C58.9053 14.9283 59.5102 14.7642 60.1996 14.7642C60.889 14.7642 61.4922 14.9283 62.0092 15.2564C62.5296 15.5845 62.9339 16.0452 63.2223 16.6385C63.514 17.2318 63.6598 17.9261 63.6598 18.7216C63.6598 19.5104 63.514 20.1998 63.2223 20.7898C62.9339 21.3797 62.5296 21.8388 62.0092 22.1669C61.4922 22.495 60.889 22.6591 60.1996 22.6591ZM60.1996 21.6051C60.7232 21.6051 61.1541 21.4709 61.4922 21.2024C61.8303 20.9339 62.0805 20.581 62.2429 20.1435C62.4053 19.706 62.4865 19.232 62.4865 18.7216C62.4865 18.2112 62.4053 17.7356 62.2429 17.2947C62.0805 16.8539 61.8303 16.4976 61.4922 16.2259C61.1541 15.9541 60.7232 15.8182 60.1996 15.8182C59.6759 15.8182 59.245 15.9541 58.907 16.2259C58.5689 16.4976 58.3187 16.8539 58.1562 17.2947C57.9938 17.7356 57.9126 18.2112 57.9126 18.7216C57.9126 19.232 57.9938 19.706 58.1562 20.1435C58.3187 20.581 58.5689 20.9339 58.907 21.2024C59.245 21.4709 59.6759 21.6051 60.1996 21.6051ZM65.4508 22.5V14.8636H66.6241V22.5H65.4508ZM66.0474 13.5909C65.8187 13.5909 65.6215 13.513 65.4558 13.3572C65.2934 13.2015 65.2122 13.0142 65.2122 12.7955C65.2122 12.5767 65.2934 12.3894 65.4558 12.2337C65.6215 12.0779 65.8187 12 66.0474 12C66.2761 12 66.4717 12.0779 66.6341 12.2337C66.7998 12.3894 66.8826 12.5767 66.8826 12.7955C66.8826 13.0142 66.7998 13.2015 66.6341 13.3572C66.4717 13.513 66.2761 13.5909 66.0474 13.5909ZM71.6566 22.6591C71.0202 22.6591 70.4585 22.4983 69.9712 22.1768C69.484 21.852 69.1029 21.3946 68.8278 20.8047C68.5527 20.2114 68.4151 19.5104 68.4151 18.7017C68.4151 17.8996 68.5527 17.2036 68.8278 16.6136C69.1029 16.0237 69.4857 15.5679 69.9762 15.2464C70.4667 14.925 71.0335 14.7642 71.6765 14.7642C72.1737 14.7642 72.5664 14.8471 72.8548 15.0128C73.1464 15.1752 73.3685 15.3608 73.521 15.5696C73.6767 15.7751 73.7977 15.9441 73.8839 16.0767H73.9833V12.3182H75.1566V22.5H74.0231V21.3267H73.8839C73.7977 21.4659 73.6751 21.6416 73.516 21.8537C73.3569 22.0625 73.1299 22.2498 72.8349 22.4155C72.5399 22.5779 72.1471 22.6591 71.6566 22.6591ZM71.8157 21.6051C72.2863 21.6051 72.6841 21.4825 73.0089 21.2372C73.3337 20.9886 73.5806 20.6456 73.7496 20.2081C73.9187 19.7673 74.0032 19.2585 74.0032 18.6818C74.0032 18.1117 73.9203 17.6129 73.7546 17.1854C73.5889 16.7545 73.3436 16.4197 73.0188 16.1811C72.694 15.9392 72.293 15.8182 71.8157 15.8182C71.3185 15.8182 70.9042 15.9458 70.5728 16.201C70.2447 16.4529 69.9978 16.7959 69.832 17.2301C69.6696 17.661 69.5884 18.1449 69.5884 18.6818C69.5884 19.2254 69.6713 19.7192 69.837 20.1634C70.006 20.6042 70.2546 20.9555 70.5827 21.2173C70.9142 21.4759 71.3252 21.6051 71.8157 21.6051ZM81.4059 22.5V14.8636H82.5394V16.0568H82.6388C82.7979 15.6491 83.0548 15.3326 83.4094 15.1072C83.7641 14.8786 84.19 14.7642 84.6871 14.7642C85.1909 14.7642 85.6102 14.8786 85.945 15.1072C86.283 15.3326 86.5465 15.6491 86.7354 16.0568H86.815C87.0105 15.6624 87.3039 15.3492 87.695 15.1172C88.0861 14.8819 88.555 14.7642 89.1019 14.7642C89.7847 14.7642 90.3432 14.978 90.7773 15.4055C91.2115 15.8298 91.4286 16.491 91.4286 17.3892V22.5H90.2553V17.3892C90.2553 16.8258 90.1012 16.4231 89.793 16.1811C89.4847 15.9392 89.1218 15.8182 88.7042 15.8182C88.1673 15.8182 87.7513 15.9806 87.4563 16.3054C87.1613 16.6269 87.0138 17.0346 87.0138 17.5284V22.5H85.8207V17.2699C85.8207 16.8357 85.6798 16.486 85.3981 16.2209C85.1164 15.9524 84.7534 15.8182 84.3093 15.8182C84.0044 15.8182 83.7193 15.8994 83.4542 16.0618C83.1924 16.2242 82.9802 16.4496 82.8178 16.7379C82.6587 17.023 82.5792 17.3527 82.5792 17.7273V22.5H81.4059ZM96.6761 22.6591C95.9867 22.6591 95.3819 22.495 94.8615 22.1669C94.3445 21.8388 93.9401 21.3797 93.6484 20.7898C93.3601 20.1998 93.2159 19.5104 93.2159 18.7216C93.2159 17.9261 93.3601 17.2318 93.6484 16.6385C93.9401 16.0452 94.3445 15.5845 94.8615 15.2564C95.3819 14.9283 95.9867 14.7642 96.6761 14.7642C97.3655 14.7642 97.9688 14.9283 98.4858 15.2564C99.0062 15.5845 99.4105 16.0452 99.6989 16.6385C99.9905 17.2318 100.136 17.9261 100.136 18.7216C100.136 19.5104 99.9905 20.1998 99.6989 20.7898C99.4105 21.3797 99.0062 21.8388 98.4858 22.1669C97.9688 22.495 97.3655 22.6591 96.6761 22.6591ZM96.6761 21.6051C97.1998 21.6051 97.6307 21.4709 97.9688 21.2024C98.3068 20.9339 98.5571 20.581 98.7195 20.1435C98.8819 19.706 98.9631 19.232 98.9631 18.7216C98.9631 18.2112 98.8819 17.7356 98.7195 17.2947C98.5571 16.8539 98.3068 16.4976 97.9688 16.2259C97.6307 15.9541 97.1998 15.8182 96.6761 15.8182C96.1525 15.8182 95.7216 15.9541 95.3835 16.2259C95.0455 16.4976 94.7952 16.8539 94.6328 17.2947C94.4704 17.7356 94.3892 18.2112 94.3892 18.7216C94.3892 19.232 94.4704 19.706 94.6328 20.1435C94.7952 20.581 95.0455 20.9339 95.3835 21.2024C95.7216 21.4709 96.1525 21.6051 96.6761 21.6051ZM101.927 22.5V14.8636H103.061V16.017H103.14C103.28 15.6392 103.532 15.3326 103.896 15.0973C104.261 14.862 104.672 14.7443 105.129 14.7443C105.215 14.7443 105.323 14.746 105.452 14.7493C105.581 14.7526 105.679 14.7576 105.746 14.7642V15.9574C105.706 15.9474 105.615 15.9325 105.472 15.9126C105.333 15.8894 105.185 15.8778 105.03 15.8778C104.658 15.8778 104.327 15.9557 104.035 16.1115C103.747 16.264 103.518 16.4761 103.349 16.7479C103.184 17.0163 103.101 17.3229 103.101 17.6676V22.5H101.927ZM110.106 22.6591C109.37 22.6591 108.735 22.4967 108.202 22.1719C107.671 21.8438 107.262 21.3864 106.974 20.7997C106.689 20.2098 106.546 19.5237 106.546 18.7415C106.546 17.9593 106.689 17.2699 106.974 16.6733C107.262 16.0734 107.663 15.6061 108.177 15.2713C108.694 14.9332 109.297 14.7642 109.986 14.7642C110.384 14.7642 110.777 14.8305 111.165 14.9631C111.552 15.0956 111.905 15.3111 112.224 15.6094C112.542 15.9044 112.795 16.2955 112.984 16.7827C113.173 17.2699 113.268 17.8698 113.268 18.5824V19.0795H107.381V18.0653H112.074C112.074 17.6345 111.988 17.25 111.816 16.9119C111.647 16.5739 111.405 16.3071 111.09 16.1115C110.778 15.916 110.411 15.8182 109.986 15.8182C109.519 15.8182 109.115 15.9342 108.773 16.1662C108.435 16.3949 108.175 16.6932 107.993 17.0611C107.81 17.429 107.719 17.8234 107.719 18.2443V18.9205C107.719 19.4972 107.819 19.986 108.018 20.3871C108.22 20.7848 108.5 21.0881 108.858 21.2969C109.216 21.5024 109.632 21.6051 110.106 21.6051C110.414 21.6051 110.692 21.562 110.941 21.4759C111.193 21.3864 111.41 21.2538 111.592 21.0781C111.774 20.8991 111.915 20.6771 112.015 20.4119L113.148 20.7301C113.029 21.1146 112.828 21.4527 112.547 21.7443C112.265 22.0327 111.917 22.258 111.503 22.4205C111.088 22.5795 110.623 22.6591 110.106 22.6591ZM122.311 14.8636V15.858H118.354V14.8636H122.311ZM119.507 13.0341H120.68V20.3125C120.68 20.6439 120.728 20.8925 120.824 21.0582C120.924 21.2206 121.05 21.33 121.202 21.3864C121.358 21.4394 121.522 21.4659 121.694 21.4659C121.824 21.4659 121.93 21.4593 122.013 21.446C122.095 21.4295 122.162 21.4162 122.211 21.4062L122.45 22.4602C122.371 22.4901 122.26 22.5199 122.117 22.5497C121.974 22.5829 121.794 22.5994 121.575 22.5994C121.244 22.5994 120.919 22.5282 120.601 22.3857C120.286 22.2431 120.024 22.026 119.815 21.7344C119.61 21.4427 119.507 21.0748 119.507 20.6307V13.0341ZM125.413 17.9062V22.5H124.24V12.3182H125.413V16.0568H125.513C125.692 15.6624 125.96 15.3492 126.318 15.1172C126.679 14.8819 127.16 14.7642 127.76 14.7642C128.28 14.7642 128.736 14.8686 129.127 15.0774C129.518 15.2829 129.821 15.5994 130.037 16.027C130.256 16.4512 130.365 16.9915 130.365 17.6477V22.5H129.192V17.7273C129.192 17.1207 129.034 16.6518 128.719 16.3203C128.408 15.9856 127.975 15.8182 127.422 15.8182C127.037 15.8182 126.693 15.8994 126.388 16.0618C126.086 16.2242 125.847 16.4612 125.672 16.7727C125.499 17.0843 125.413 17.4621 125.413 17.9062ZM134.759 22.679C134.275 22.679 133.835 22.5878 133.441 22.4055C133.047 22.2199 132.733 21.9531 132.501 21.6051C132.269 21.2538 132.153 20.8295 132.153 20.3324C132.153 19.8949 132.24 19.5402 132.412 19.2685C132.584 18.9934 132.815 18.7779 133.103 18.6222C133.391 18.4664 133.71 18.3504 134.058 18.2741C134.409 18.1946 134.762 18.1316 135.116 18.0852C135.58 18.0256 135.957 17.9808 136.245 17.951C136.537 17.9179 136.749 17.8632 136.881 17.7869C137.017 17.7107 137.085 17.5781 137.085 17.3892V17.3494C137.085 16.8589 136.951 16.4777 136.683 16.206C136.417 15.9342 136.015 15.7983 135.474 15.7983C134.914 15.7983 134.475 15.9209 134.157 16.1662C133.839 16.4115 133.615 16.6733 133.486 16.9517L132.372 16.554C132.571 16.09 132.836 15.7287 133.168 15.4702C133.502 15.2083 133.867 15.026 134.261 14.9233C134.659 14.8172 135.05 14.7642 135.435 14.7642C135.68 14.7642 135.962 14.794 136.28 14.8537C136.601 14.91 136.911 15.0277 137.21 15.2067C137.511 15.3857 137.761 15.6558 137.96 16.017C138.159 16.3783 138.259 16.8622 138.259 17.4688V22.5H137.085V21.4659H137.026C136.946 21.6316 136.813 21.8089 136.628 21.9979C136.442 22.1868 136.195 22.3475 135.887 22.4801C135.579 22.6127 135.203 22.679 134.759 22.679ZM134.938 21.625C135.402 21.625 135.793 21.5339 136.111 21.3516C136.432 21.1693 136.674 20.9339 136.837 20.6456C137.002 20.3572 137.085 20.054 137.085 19.7358V18.6619C137.036 18.7216 136.926 18.7763 136.757 18.826C136.591 18.8724 136.399 18.9138 136.18 18.9503C135.965 18.9834 135.754 19.0133 135.549 19.0398C135.347 19.063 135.183 19.0829 135.057 19.0994C134.752 19.1392 134.467 19.2038 134.202 19.2933C133.94 19.3795 133.728 19.5104 133.565 19.6861C133.406 19.8584 133.327 20.0937 133.327 20.392C133.327 20.7997 133.478 21.108 133.779 21.3168C134.084 21.5223 134.47 21.625 134.938 21.625ZM141.573 17.9062V22.5H140.4V14.8636H141.534V16.0568H141.633C141.812 15.669 142.084 15.3575 142.448 15.1222C142.813 14.8835 143.284 14.7642 143.86 14.7642C144.377 14.7642 144.83 14.8703 145.218 15.0824C145.605 15.2912 145.907 15.6094 146.122 16.0369C146.338 16.4612 146.445 16.9981 146.445 17.6477V22.5H145.272V17.7273C145.272 17.1274 145.116 16.66 144.805 16.3253C144.493 15.9872 144.066 15.8182 143.522 15.8182C143.148 15.8182 142.813 15.8994 142.518 16.0618C142.226 16.2242 141.996 16.4612 141.827 16.7727C141.658 17.0843 141.573 17.4621 141.573 17.9062ZM152.507 22.5V21.6051L155.868 17.9261C156.262 17.4953 156.587 17.1207 156.842 16.8026C157.098 16.4811 157.286 16.1795 157.409 15.8977C157.535 15.6127 157.598 15.3144 157.598 15.0028C157.598 14.6449 157.512 14.335 157.339 14.0732C157.17 13.8113 156.938 13.6091 156.643 13.4666C156.348 13.3241 156.017 13.2528 155.649 13.2528C155.258 13.2528 154.917 13.334 154.625 13.4964C154.337 13.6555 154.113 13.8793 153.954 14.1676C153.798 14.456 153.72 14.794 153.72 15.1818H152.547C152.547 14.5852 152.684 14.0616 152.96 13.6108C153.235 13.16 153.609 12.8087 154.083 12.5568C154.56 12.3049 155.096 12.179 155.689 12.179C156.286 12.179 156.814 12.3049 157.275 12.5568C157.736 12.8087 158.097 13.1484 158.359 13.576C158.621 14.0036 158.751 14.4792 158.751 15.0028C158.751 15.3774 158.683 15.7436 158.548 16.1016C158.415 16.4562 158.183 16.8523 157.852 17.2898C157.523 17.724 157.068 18.2543 156.484 18.8807L154.197 21.3267V21.4062H158.93V22.5H152.507ZM167.188 22.679C166.704 22.679 166.265 22.5878 165.871 22.4055C165.476 22.2199 165.163 21.9531 164.931 21.6051C164.699 21.2538 164.583 20.8295 164.583 20.3324C164.583 19.8949 164.669 19.5402 164.842 19.2685C165.014 18.9934 165.244 18.7779 165.533 18.6222C165.821 18.4664 166.139 18.3504 166.487 18.2741C166.839 18.1946 167.192 18.1316 167.546 18.0852C168.01 18.0256 168.386 17.9808 168.675 17.951C168.966 17.9179 169.179 17.8632 169.311 17.7869C169.447 17.7107 169.515 17.5781 169.515 17.3892V17.3494C169.515 16.8589 169.381 16.4777 169.112 16.206C168.847 15.9342 168.444 15.7983 167.904 15.7983C167.344 15.7983 166.905 15.9209 166.587 16.1662C166.268 16.4115 166.045 16.6733 165.915 16.9517L164.802 16.554C165.001 16.09 165.266 15.7287 165.597 15.4702C165.932 15.2083 166.297 15.026 166.691 14.9233C167.089 14.8172 167.48 14.7642 167.864 14.7642C168.11 14.7642 168.391 14.794 168.71 14.8537C169.031 14.91 169.341 15.0277 169.639 15.2067C169.941 15.3857 170.191 15.6558 170.39 16.017C170.589 16.3783 170.688 16.8622 170.688 17.4688V22.5H169.515V21.4659H169.455C169.376 21.6316 169.243 21.8089 169.058 21.9979C168.872 22.1868 168.625 22.3475 168.317 22.4801C168.009 22.6127 167.632 22.679 167.188 22.679ZM167.367 21.625C167.831 21.625 168.222 21.5339 168.54 21.3516C168.862 21.1693 169.104 20.9339 169.266 20.6456C169.432 20.3572 169.515 20.054 169.515 19.7358V18.6619C169.465 18.7216 169.356 18.7763 169.187 18.826C169.021 18.8724 168.829 18.9138 168.61 18.9503C168.395 18.9834 168.184 19.0133 167.979 19.0398C167.777 19.063 167.612 19.0829 167.487 19.0994C167.182 19.1392 166.897 19.2038 166.631 19.2933C166.37 19.3795 166.157 19.5104 165.995 19.6861C165.836 19.8584 165.756 20.0937 165.756 20.392C165.756 20.7997 165.907 21.108 166.209 21.3168C166.514 21.5223 166.9 21.625 167.367 21.625ZM175.932 22.6591C175.216 22.6591 174.6 22.4901 174.083 22.152C173.566 21.8139 173.168 21.3482 172.889 20.755C172.611 20.1617 172.472 19.4839 172.472 18.7216C172.472 17.946 172.614 17.2616 172.899 16.6683C173.188 16.0717 173.589 15.6061 174.102 15.2713C174.619 14.9332 175.223 14.7642 175.912 14.7642C176.449 14.7642 176.933 14.8636 177.364 15.0625C177.795 15.2614 178.148 15.5398 178.423 15.8977C178.698 16.2557 178.869 16.6733 178.935 17.1506H177.762C177.672 16.8026 177.473 16.4943 177.165 16.2259C176.86 15.9541 176.449 15.8182 175.932 15.8182C175.475 15.8182 175.074 15.9375 174.729 16.1761C174.387 16.4115 174.121 16.7446 173.928 17.1754C173.74 17.603 173.645 18.1051 173.645 18.6818C173.645 19.2718 173.738 19.7855 173.923 20.223C174.112 20.6605 174.378 21.0002 174.719 21.2422C175.064 21.4841 175.468 21.6051 175.932 21.6051C176.237 21.6051 176.514 21.5521 176.762 21.446C177.011 21.34 177.221 21.1875 177.394 20.9886C177.566 20.7898 177.689 20.5511 177.762 20.2727H178.935C178.869 20.7235 178.704 21.1295 178.443 21.4908C178.184 21.8487 177.841 22.1338 177.414 22.3459C176.989 22.5547 176.495 22.6591 175.932 22.6591ZM183.971 14.8636V15.858H180.014V14.8636H183.971ZM181.167 13.0341H182.34V20.3125C182.34 20.6439 182.388 20.8925 182.485 21.0582C182.584 21.2206 182.71 21.33 182.862 21.3864C183.018 21.4394 183.182 21.4659 183.355 21.4659C183.484 21.4659 183.59 21.4593 183.673 21.446C183.756 21.4295 183.822 21.4162 183.872 21.4062L184.11 22.4602C184.031 22.4901 183.92 22.5199 183.777 22.5497C183.635 22.5829 183.454 22.5994 183.235 22.5994C182.904 22.5994 182.579 22.5282 182.261 22.3857C181.946 22.2431 181.684 22.026 181.475 21.7344C181.27 21.4427 181.167 21.0748 181.167 20.6307V13.0341ZM185.736 22.5V14.8636H186.909V22.5H185.736ZM186.333 13.5909C186.104 13.5909 185.907 13.513 185.741 13.3572C185.579 13.2015 185.497 13.0142 185.497 12.7955C185.497 12.5767 185.579 12.3894 185.741 12.2337C185.907 12.0779 186.104 12 186.333 12C186.561 12 186.757 12.0779 186.919 12.2337C187.085 12.3894 187.168 12.5767 187.168 12.7955C187.168 13.0142 187.085 13.2015 186.919 13.3572C186.757 13.513 186.561 13.5909 186.333 13.5909ZM192.161 22.6591C191.471 22.6591 190.866 22.495 190.346 22.1669C189.829 21.8388 189.424 21.3797 189.133 20.7898C188.844 20.1998 188.7 19.5104 188.7 18.7216C188.7 17.9261 188.844 17.2318 189.133 16.6385C189.424 16.0452 189.829 15.5845 190.346 15.2564C190.866 14.9283 191.471 14.7642 192.161 14.7642C192.85 14.7642 193.453 14.9283 193.97 15.2564C194.491 15.5845 194.895 16.0452 195.183 16.6385C195.475 17.2318 195.621 17.9261 195.621 18.7216C195.621 19.5104 195.475 20.1998 195.183 20.7898C194.895 21.3797 194.491 21.8388 193.97 22.1669C193.453 22.495 192.85 22.6591 192.161 22.6591ZM192.161 21.6051C192.684 21.6051 193.115 21.4709 193.453 21.2024C193.791 20.9339 194.041 20.581 194.204 20.1435C194.366 19.706 194.447 19.232 194.447 18.7216C194.447 18.2112 194.366 17.7356 194.204 17.2947C194.041 16.8539 193.791 16.4976 193.453 16.2259C193.115 15.9541 192.684 15.8182 192.161 15.8182C191.637 15.8182 191.206 15.9541 190.868 16.2259C190.53 16.4976 190.28 16.8539 190.117 17.2947C189.955 17.7356 189.874 18.2112 189.874 18.7216C189.874 19.232 189.955 19.706 190.117 20.1435C190.28 20.581 190.53 20.9339 190.868 21.2024C191.206 21.4709 191.637 21.6051 192.161 21.6051ZM198.585 17.9062V22.5H197.412V14.8636H198.545V16.0568H198.645C198.824 15.669 199.095 15.3575 199.46 15.1222C199.825 14.8835 200.295 14.7642 200.872 14.7642C201.389 14.7642 201.841 14.8703 202.229 15.0824C202.617 15.2912 202.919 15.6094 203.134 16.0369C203.349 16.4612 203.457 16.9981 203.457 17.6477V22.5H202.284V17.7273C202.284 17.1274 202.128 16.66 201.817 16.3253C201.505 15.9872 201.077 15.8182 200.534 15.8182C200.159 15.8182 199.825 15.8994 199.53 16.0618C199.238 16.2242 199.008 16.4612 198.839 16.7727C198.67 17.0843 198.585 17.4621 198.585 17.9062ZM211.01 16.5739L209.956 16.8722C209.89 16.6965 209.792 16.5258 209.663 16.3601C209.537 16.1911 209.365 16.0518 209.146 15.9425C208.927 15.8331 208.647 15.7784 208.306 15.7784C207.838 15.7784 207.449 15.8861 207.137 16.1016C206.829 16.3137 206.675 16.5838 206.675 16.9119C206.675 17.2036 206.781 17.4339 206.993 17.603C207.205 17.772 207.537 17.9129 207.988 18.0256L209.121 18.304C209.804 18.4697 210.313 18.7232 210.647 19.0646C210.982 19.4027 211.15 19.8385 211.15 20.3722C211.15 20.8097 211.024 21.2008 210.772 21.5455C210.523 21.8902 210.175 22.1619 209.728 22.3608C209.28 22.5597 208.76 22.6591 208.167 22.6591C207.388 22.6591 206.743 22.4901 206.233 22.152C205.722 21.8139 205.399 21.3201 205.263 20.6705L206.377 20.392C206.483 20.803 206.683 21.1113 206.978 21.3168C207.277 21.5223 207.666 21.625 208.147 21.625C208.694 21.625 209.128 21.509 209.449 21.277C209.774 21.0417 209.936 20.7599 209.936 20.4318C209.936 20.1667 209.844 19.9446 209.658 19.7656C209.472 19.5833 209.187 19.4474 208.803 19.358L207.53 19.0597C206.831 18.8939 206.317 18.6371 205.989 18.2891C205.664 17.9377 205.502 17.4986 205.502 16.9716C205.502 16.5407 205.623 16.1596 205.865 15.8281C206.11 15.4967 206.443 15.2365 206.864 15.0476C207.288 14.8587 207.769 14.7642 208.306 14.7642C209.061 14.7642 209.655 14.9299 210.086 15.2614C210.52 15.5928 210.828 16.0303 211.01 16.5739Z" fill="#333333"/>
<rect x="40" y="35.5" width="92" height="32" rx="4" fill="#0F67F5"/>
<path d="M66.3137 56.5H64.345L67.9295 46.3182H70.2065L73.796 56.5H71.8272L69.1078 48.4062H69.0282L66.3137 56.5ZM66.3784 52.5078H71.7477V53.9893H66.3784V52.5078ZM78.1561 56.6491C77.3938 56.6491 76.7392 56.4818 76.1923 56.147C75.6487 55.8123 75.2295 55.3499 74.9345 54.7599C74.6428 54.1667 74.497 53.4839 74.497 52.7116C74.497 51.9361 74.6461 51.2517 74.9444 50.6584C75.2427 50.0618 75.6636 49.5978 76.2072 49.2663C76.7541 48.9316 77.4004 48.7642 78.1461 48.7642C78.7659 48.7642 79.3145 48.8786 79.7917 49.1072C80.2723 49.3326 80.6551 49.6525 80.9402 50.0668C81.2252 50.4777 81.3876 50.9583 81.4274 51.5085H79.7072C79.6376 51.1406 79.4719 50.834 79.21 50.5888C78.9515 50.3402 78.6052 50.2159 78.171 50.2159C77.8031 50.2159 77.4799 50.3153 77.2015 50.5142C76.9231 50.7098 76.706 50.9915 76.5502 51.3594C76.3978 51.7273 76.3216 52.1681 76.3216 52.6818C76.3216 53.2022 76.3978 53.6496 76.5502 54.0241C76.7027 54.3954 76.9165 54.6821 77.1916 54.8842C77.47 55.0831 77.7965 55.1825 78.171 55.1825C78.4361 55.1825 78.6731 55.1328 78.8819 55.0334C79.094 54.9306 79.2714 54.7831 79.4139 54.5909C79.5564 54.3987 79.6542 54.165 79.7072 53.8899H81.4274C81.3843 54.4302 81.2252 54.9091 80.9501 55.3267C80.675 55.741 80.3005 56.0658 79.8265 56.3011C79.3526 56.5331 78.7958 56.6491 78.1561 56.6491ZM86.7184 48.8636V50.2557H82.3285V48.8636H86.7184ZM83.4123 47.0341H85.212V54.2031C85.212 54.4451 85.2485 54.6307 85.3214 54.7599C85.3976 54.8859 85.497 54.9721 85.6197 55.0185C85.7423 55.0649 85.8782 55.0881 86.0273 55.0881C86.14 55.0881 86.2428 55.0798 86.3356 55.0632C86.4317 55.0466 86.5046 55.0317 86.5543 55.0185L86.8576 56.4254C86.7615 56.4586 86.6239 56.495 86.445 56.5348C86.2693 56.5746 86.0539 56.5978 85.7987 56.6044C85.3479 56.6177 84.9419 56.5497 84.5806 56.4006C84.2193 56.2481 83.9326 56.0128 83.7205 55.6946C83.5117 55.3764 83.409 54.9787 83.4123 54.5014V47.0341ZM88.2235 56.5V48.8636H90.0233V56.5H88.2235ZM89.1284 47.7798C88.8433 47.7798 88.5981 47.6854 88.3926 47.4964C88.1871 47.3042 88.0843 47.0739 88.0843 46.8054C88.0843 46.5336 88.1871 46.3033 88.3926 46.1143C88.5981 45.9221 88.8433 45.826 89.1284 45.826C89.4167 45.826 89.662 45.9221 89.8642 46.1143C90.0697 46.3033 90.1724 46.5336 90.1724 46.8054C90.1724 47.0739 90.0697 47.3042 89.8642 47.4964C89.662 47.6854 89.4167 47.7798 89.1284 47.7798ZM95.2049 56.6491C94.4592 56.6491 93.8129 56.4851 93.266 56.157C92.7191 55.8288 92.2949 55.3698 91.9933 54.7798C91.695 54.1899 91.5458 53.5005 91.5458 52.7116C91.5458 51.9228 91.695 51.2318 91.9933 50.6385C92.2949 50.0452 92.7191 49.5845 93.266 49.2564C93.8129 48.9283 94.4592 48.7642 95.2049 48.7642C95.9506 48.7642 96.5969 48.9283 97.1438 49.2564C97.6907 49.5845 98.1133 50.0452 98.4116 50.6385C98.7132 51.2318 98.864 51.9228 98.864 52.7116C98.864 53.5005 98.7132 54.1899 98.4116 54.7798C98.1133 55.3698 97.6907 55.8288 97.1438 56.157C96.5969 56.4851 95.9506 56.6491 95.2049 56.6491ZM95.2148 55.2074C95.6192 55.2074 95.9573 55.0964 96.229 54.8743C96.5008 54.6489 96.703 54.3473 96.8356 53.9695C96.9715 53.5916 97.0394 53.1707 97.0394 52.7067C97.0394 52.2393 96.9715 51.8168 96.8356 51.4389C96.703 51.0578 96.5008 50.7545 96.229 50.5291C95.9573 50.3037 95.6192 50.1911 95.2148 50.1911C94.8005 50.1911 94.4558 50.3037 94.1808 50.5291C93.909 50.7545 93.7051 51.0578 93.5692 51.4389C93.4367 51.8168 93.3704 52.2393 93.3704 52.7067C93.3704 53.1707 93.4367 53.5916 93.5692 53.9695C93.7051 54.3473 93.909 54.6489 94.1808 54.8743C94.4558 55.0964 94.8005 55.2074 95.2148 55.2074ZM102.191 52.0256V56.5H100.392V48.8636H102.112V50.1612H102.201C102.377 49.7337 102.657 49.3939 103.041 49.142C103.429 48.8902 103.908 48.7642 104.478 48.7642C105.005 48.7642 105.464 48.8769 105.855 49.1023C106.25 49.3277 106.555 49.6541 106.77 50.0817C106.989 50.5092 107.097 51.0279 107.093 51.6378V56.5H105.294V51.9162C105.294 51.4058 105.161 51.0064 104.896 50.718C104.634 50.4297 104.271 50.2855 103.807 50.2855C103.492 50.2855 103.212 50.3551 102.967 50.4943C102.725 50.6302 102.534 50.8274 102.395 51.0859C102.259 51.3445 102.191 51.6577 102.191 52.0256Z" fill="white"/>
<path d="M170.73 56.5H168.761L172.346 46.3182H174.623L178.212 56.5H176.243L173.524 48.4062H173.444L170.73 56.5ZM170.794 52.5078H176.164V53.9893H170.794V52.5078ZM182.572 56.6491C181.81 56.6491 181.155 56.4818 180.608 56.147C180.065 55.8123 179.645 55.3499 179.35 54.7599C179.059 54.1667 178.913 53.4839 178.913 52.7116C178.913 51.9361 179.062 51.2517 179.36 50.6584C179.659 50.0618 180.08 49.5978 180.623 49.2663C181.17 48.9316 181.816 48.7642 182.562 48.7642C183.182 48.7642 183.73 48.8786 184.208 49.1072C184.688 49.3326 185.071 49.6525 185.356 50.0668C185.641 50.4777 185.804 50.9583 185.843 51.5085H184.123C184.054 51.1406 183.888 50.834 183.626 50.5888C183.368 50.3402 183.021 50.2159 182.587 50.2159C182.219 50.2159 181.896 50.3153 181.618 50.5142C181.339 50.7098 181.122 50.9915 180.966 51.3594C180.814 51.7273 180.738 52.1681 180.738 52.6818C180.738 53.2022 180.814 53.6496 180.966 54.0241C181.119 54.3954 181.333 54.6821 181.608 54.8842C181.886 55.0831 182.212 55.1825 182.587 55.1825C182.852 55.1825 183.089 55.1328 183.298 55.0334C183.51 54.9306 183.687 54.7831 183.83 54.5909C183.972 54.3987 184.07 54.165 184.123 53.8899H185.843C185.8 54.4302 185.641 54.9091 185.366 55.3267C185.091 55.741 184.717 56.0658 184.243 56.3011C183.769 56.5331 183.212 56.6491 182.572 56.6491ZM191.134 48.8636V50.2557H186.744V48.8636H191.134ZM187.828 47.0341H189.628V54.2031C189.628 54.4451 189.664 54.6307 189.737 54.7599C189.814 54.8859 189.913 54.9721 190.036 55.0185C190.158 55.0649 190.294 55.0881 190.443 55.0881C190.556 55.0881 190.659 55.0798 190.752 55.0632C190.848 55.0466 190.921 55.0317 190.97 55.0185L191.274 56.4254C191.177 56.4586 191.04 56.495 190.861 56.5348C190.685 56.5746 190.47 56.5978 190.215 56.6044C189.764 56.6177 189.358 56.5497 188.997 56.4006C188.635 56.2481 188.349 56.0128 188.137 55.6946C187.928 55.3764 187.825 54.9787 187.828 54.5014V47.0341ZM192.64 56.5V48.8636H194.439V56.5H192.64ZM193.544 47.7798C193.259 47.7798 193.014 47.6854 192.809 47.4964C192.603 47.3042 192.5 47.0739 192.5 46.8054C192.5 46.5336 192.603 46.3033 192.809 46.1143C193.014 45.9221 193.259 45.826 193.544 45.826C193.833 45.826 194.078 45.9221 194.28 46.1143C194.486 46.3033 194.588 46.5336 194.588 46.8054C194.588 47.0739 194.486 47.3042 194.28 47.4964C194.078 47.6854 193.833 47.7798 193.544 47.7798ZM199.621 56.6491C198.875 56.6491 198.229 56.4851 197.682 56.157C197.135 55.8288 196.711 55.3698 196.409 54.7798C196.111 54.1899 195.962 53.5005 195.962 52.7116C195.962 51.9228 196.111 51.2318 196.409 50.6385C196.711 50.0452 197.135 49.5845 197.682 49.2564C198.229 48.9283 198.875 48.7642 199.621 48.7642C200.367 48.7642 201.013 48.9283 201.56 49.2564C202.107 49.5845 202.529 50.0452 202.828 50.6385C203.129 51.2318 203.28 51.9228 203.28 52.7116C203.28 53.5005 203.129 54.1899 202.828 54.7798C202.529 55.3698 202.107 55.8288 201.56 56.157C201.013 56.4851 200.367 56.6491 199.621 56.6491ZM199.631 55.2074C200.035 55.2074 200.373 55.0964 200.645 54.8743C200.917 54.6489 201.119 54.3473 201.252 53.9695C201.387 53.5916 201.455 53.1707 201.455 52.7067C201.455 52.2393 201.387 51.8168 201.252 51.4389C201.119 51.0578 200.917 50.7545 200.645 50.5291C200.373 50.3037 200.035 50.1911 199.631 50.1911C199.217 50.1911 198.872 50.3037 198.597 50.5291C198.325 50.7545 198.121 51.0578 197.985 51.4389C197.853 51.8168 197.786 52.2393 197.786 52.7067C197.786 53.1707 197.853 53.5916 197.985 53.9695C198.121 54.3473 198.325 54.6489 198.597 54.8743C198.872 55.0964 199.217 55.2074 199.631 55.2074ZM206.607 52.0256V56.5H204.808V48.8636H206.528V50.1612H206.617C206.793 49.7337 207.073 49.3939 207.457 49.142C207.845 48.8902 208.324 48.7642 208.894 48.7642C209.421 48.7642 209.88 48.8769 210.271 49.1023C210.666 49.3277 210.971 49.6541 211.186 50.0817C211.405 50.5092 211.513 51.0279 211.509 51.6378V56.5H209.71V51.9162C209.71 51.4058 209.577 51.0064 209.312 50.718C209.05 50.4297 208.687 50.2855 208.223 50.2855C207.908 50.2855 207.628 50.3551 207.383 50.4943C207.141 50.6302 206.95 50.8274 206.811 51.0859C206.675 51.3445 206.607 51.6577 206.607 52.0256ZM216.792 56.5V55.1676L220.326 51.7024C220.664 51.361 220.946 51.0578 221.172 50.7926C221.397 50.5275 221.566 50.2706 221.679 50.022C221.791 49.7734 221.848 49.5083 221.848 49.2266C221.848 48.9051 221.775 48.63 221.629 48.4013C221.483 48.1693 221.283 47.9903 221.027 47.8643C220.772 47.7384 220.482 47.6754 220.157 47.6754C219.823 47.6754 219.529 47.745 219.277 47.8842C219.025 48.0201 218.83 48.214 218.691 48.4659C218.555 48.7178 218.487 49.0178 218.487 49.3658H216.732C216.732 48.7195 216.879 48.1577 217.174 47.6804C217.469 47.2031 217.875 46.8336 218.392 46.5717C218.913 46.3099 219.509 46.179 220.182 46.179C220.865 46.179 221.465 46.3066 221.982 46.5618C222.499 46.817 222.9 47.1667 223.185 47.6108C223.473 48.0549 223.618 48.562 223.618 49.1321C223.618 49.5133 223.545 49.8878 223.399 50.2557C223.253 50.6236 222.996 51.0312 222.628 51.4787C222.264 51.9261 221.752 52.468 221.092 53.1044L219.337 54.8892V54.9588H223.772V56.5H216.792Z" fill="#0F67F5"/>
<rect x="144.5" y="36" width="104" height="31" rx="3.5" stroke="#0F67F5"/>
<path d="M66.5178 100.5H64.5491L68.1336 90.3182H70.4106L74.0001 100.5H72.0313L69.3119 92.4062H69.2323L66.5178 100.5ZM66.5825 96.5078H71.9518V97.9893H66.5825V96.5078ZM78.3602 100.649C77.5979 100.649 76.9433 100.482 76.3964 100.147C75.8528 99.8123 75.4336 99.3499 75.1386 98.7599C74.8469 98.1667 74.7011 97.4839 74.7011 96.7116C74.7011 95.9361 74.8502 95.2517 75.1485 94.6584C75.4468 94.0618 75.8677 93.5978 76.4113 93.2663C76.9582 92.9316 77.6045 92.7642 78.3502 92.7642C78.97 92.7642 79.5186 92.8786 79.9958 93.1072C80.4764 93.3326 80.8592 93.6525 81.1443 94.0668C81.4293 94.4777 81.5917 94.9583 81.6315 95.5085H79.9113C79.8417 95.1406 79.676 94.834 79.4142 94.5888C79.1556 94.3402 78.8093 94.2159 78.3751 94.2159C78.0072 94.2159 77.684 94.3153 77.4056 94.5142C77.1272 94.7098 76.9101 94.9915 76.7544 95.3594C76.6019 95.7273 76.5257 96.1681 76.5257 96.6818C76.5257 97.2022 76.6019 97.6496 76.7544 98.0241C76.9068 98.3954 77.1206 98.6821 77.3957 98.8842C77.6741 99.0831 78.0006 99.1825 78.3751 99.1825C78.6402 99.1825 78.8772 99.1328 79.086 99.0334C79.2981 98.9306 79.4755 98.7831 79.618 98.5909C79.7605 98.3987 79.8583 98.165 79.9113 97.8899H81.6315C81.5884 98.4302 81.4293 98.9091 81.1542 99.3267C80.8791 99.741 80.5046 100.066 80.0306 100.301C79.5567 100.533 78.9999 100.649 78.3602 100.649ZM86.9225 92.8636V94.2557H82.5326V92.8636H86.9225ZM83.6164 91.0341H85.4161V98.2031C85.4161 98.4451 85.4526 98.6307 85.5255 98.7599C85.6017 98.8859 85.7011 98.9721 85.8238 99.0185C85.9464 99.0649 86.0823 99.0881 86.2314 99.0881C86.3441 99.0881 86.4469 99.0798 86.5397 99.0632C86.6358 99.0466 86.7087 99.0317 86.7584 99.0185L87.0617 100.425C86.9656 100.459 86.828 100.495 86.6491 100.535C86.4734 100.575 86.258 100.598 86.0028 100.604C85.552 100.618 85.146 100.55 84.7847 100.401C84.4234 100.248 84.1367 100.013 83.9246 99.6946C83.7158 99.3764 83.6131 98.9787 83.6164 98.5014V91.0341ZM88.4276 100.5V92.8636H90.2274V100.5H88.4276ZM89.3325 91.7798C89.0474 91.7798 88.8022 91.6854 88.5967 91.4964C88.3912 91.3042 88.2884 91.0739 88.2884 90.8054C88.2884 90.5336 88.3912 90.3033 88.5967 90.1143C88.8022 89.9221 89.0474 89.826 89.3325 89.826C89.6208 89.826 89.8661 89.9221 90.0683 90.1143C90.2738 90.3033 90.3765 90.5336 90.3765 90.8054C90.3765 91.0739 90.2738 91.3042 90.0683 91.4964C89.8661 91.6854 89.6208 91.7798 89.3325 91.7798ZM95.409 100.649C94.6633 100.649 94.017 100.485 93.4701 100.157C92.9232 99.8288 92.499 99.3698 92.1974 98.7798C91.8991 98.1899 91.7499 97.5005 91.7499 96.7116C91.7499 95.9228 91.8991 95.2318 92.1974 94.6385C92.499 94.0452 92.9232 93.5845 93.4701 93.2564C94.017 92.9283 94.6633 92.7642 95.409 92.7642C96.1547 92.7642 96.801 92.9283 97.3479 93.2564C97.8948 93.5845 98.3174 94.0452 98.6157 94.6385C98.9173 95.2318 99.0681 95.9228 99.0681 96.7116C99.0681 97.5005 98.9173 98.1899 98.6157 98.7798C98.3174 99.3698 97.8948 99.8288 97.3479 100.157C96.801 100.485 96.1547 100.649 95.409 100.649ZM95.4189 99.2074C95.8233 99.2074 96.1614 99.0964 96.4331 98.8743C96.7049 98.6489 96.9071 98.3473 97.0397 97.9695C97.1756 97.5916 97.2435 97.1707 97.2435 96.7067C97.2435 96.2393 97.1756 95.8168 97.0397 95.4389C96.9071 95.0578 96.7049 94.7545 96.4331 94.5291C96.1614 94.3037 95.8233 94.1911 95.4189 94.1911C95.0046 94.1911 94.6599 94.3037 94.3849 94.5291C94.1131 94.7545 93.9092 95.0578 93.7733 95.4389C93.6408 95.8168 93.5745 96.2393 93.5745 96.7067C93.5745 97.1707 93.6408 97.5916 93.7733 97.9695C93.9092 98.3473 94.1131 98.6489 94.3849 98.8743C94.6599 99.0964 95.0046 99.2074 95.4189 99.2074ZM102.395 96.0256V100.5H100.596V92.8636H102.316V94.1612H102.405C102.581 93.7337 102.861 93.3939 103.245 93.142C103.633 92.8902 104.112 92.7642 104.682 92.7642C105.209 92.7642 105.668 92.8769 106.059 93.1023C106.454 93.3277 106.759 93.6541 106.974 94.0817C107.193 94.5092 107.301 95.0279 107.297 95.6378V100.5H105.498V95.9162C105.498 95.4058 105.365 95.0064 105.1 94.718C104.838 94.4297 104.475 94.2855 104.011 94.2855C103.696 94.2855 103.416 94.3551 103.171 94.4943C102.929 94.6302 102.738 94.8274 102.599 95.0859C102.463 95.3445 102.395 95.6577 102.395 96.0256ZM116.234 100.639C115.518 100.639 114.881 100.517 114.325 100.271C113.771 100.026 113.334 99.6847 113.012 99.2472C112.691 98.8097 112.52 98.3042 112.5 97.7308H114.369C114.386 98.0059 114.477 98.2462 114.643 98.4517C114.809 98.6539 115.029 98.8113 115.304 98.924C115.579 99.0367 115.887 99.093 116.229 99.093C116.593 99.093 116.917 99.0301 117.198 98.9041C117.48 98.7749 117.7 98.5959 117.859 98.3672C118.019 98.1385 118.096 97.875 118.093 97.5767C118.096 97.2685 118.017 96.9967 117.854 96.7614C117.692 96.526 117.457 96.3421 117.149 96.2095C116.844 96.0769 116.476 96.0107 116.045 96.0107H115.145V94.5888H116.045C116.399 94.5888 116.709 94.5275 116.975 94.4048C117.243 94.2822 117.453 94.1098 117.606 93.8878C117.758 93.6624 117.833 93.4022 117.83 93.1072C117.833 92.8189 117.768 92.5687 117.636 92.3565C117.506 92.1411 117.323 91.9737 117.084 91.8544C116.849 91.7351 116.572 91.6754 116.254 91.6754C115.942 91.6754 115.654 91.7318 115.389 91.8445C115.123 91.9571 114.91 92.1179 114.747 92.3267C114.585 92.5322 114.499 92.7775 114.489 93.0625H112.714C112.727 92.4924 112.891 91.992 113.206 91.5611C113.524 91.1269 113.948 90.7888 114.479 90.5469C115.009 90.3016 115.604 90.179 116.264 90.179C116.943 90.179 117.533 90.3066 118.033 90.5618C118.537 90.8137 118.927 91.1534 119.202 91.581C119.477 92.0085 119.614 92.4808 119.614 92.9979C119.618 93.5713 119.449 94.0518 119.107 94.4396C118.769 94.8274 118.325 95.081 117.775 95.2003V95.2798C118.491 95.3793 119.039 95.6444 119.421 96.0753C119.805 96.5028 119.996 97.0348 119.992 97.6712C119.992 98.2412 119.83 98.7517 119.505 99.2024C119.184 99.6499 118.739 100.001 118.173 100.256C117.609 100.512 116.963 100.639 116.234 100.639Z" fill="#0F67F5"/>
<rect x="40.5" y="80" width="104" height="31" rx="3.5" stroke="#0F67F5"/>
<rect x="157" y="79.5" width="105" height="32" rx="4" fill="white"/>
<path d="M183.415 100.5H181.447L185.031 90.3182H187.308L190.898 100.5H188.929L186.209 92.4062H186.13L183.415 100.5ZM183.48 96.5078H188.849V97.9893H183.48V96.5078ZM195.258 100.649C194.495 100.649 193.841 100.482 193.294 100.147C192.75 99.8123 192.331 99.3499 192.036 98.7599C191.744 98.1667 191.599 97.4839 191.599 96.7116C191.599 95.9361 191.748 95.2517 192.046 94.6584C192.344 94.0618 192.765 93.5978 193.309 93.2663C193.856 92.9316 194.502 92.7642 195.248 92.7642C195.867 92.7642 196.416 92.8786 196.893 93.1072C197.374 93.3326 197.757 93.6525 198.042 94.0668C198.327 94.4777 198.489 94.9583 198.529 95.5085H196.809C196.739 95.1406 196.573 94.834 196.312 94.5888C196.053 94.3402 195.707 94.2159 195.273 94.2159C194.905 94.2159 194.581 94.3153 194.303 94.5142C194.025 94.7098 193.808 94.9915 193.652 95.3594C193.499 95.7273 193.423 96.1681 193.423 96.6818C193.423 97.2022 193.499 97.6496 193.652 98.0241C193.804 98.3954 194.018 98.6821 194.293 98.8842C194.572 99.0831 194.898 99.1825 195.273 99.1825C195.538 99.1825 195.775 99.1328 195.983 99.0334C196.196 98.9306 196.373 98.7831 196.515 98.5909C196.658 98.3987 196.756 98.165 196.809 97.8899H198.529C198.486 98.4302 198.327 98.9091 198.052 99.3267C197.777 99.741 197.402 100.066 196.928 100.301C196.454 100.533 195.897 100.649 195.258 100.649ZM203.82 92.8636V94.2557H199.43V92.8636H203.82ZM200.514 91.0341H202.314V98.2031C202.314 98.4451 202.35 98.6307 202.423 98.7599C202.499 98.8859 202.599 98.9721 202.721 99.0185C202.844 99.0649 202.98 99.0881 203.129 99.0881C203.242 99.0881 203.344 99.0798 203.437 99.0632C203.533 99.0466 203.606 99.0317 203.656 99.0185L203.959 100.425C203.863 100.459 203.725 100.495 203.547 100.535C203.371 100.575 203.155 100.598 202.9 100.604C202.449 100.618 202.043 100.55 201.682 100.401C201.321 100.248 201.034 100.013 200.822 99.6946C200.613 99.3764 200.511 98.9787 200.514 98.5014V91.0341ZM205.325 100.5V92.8636H207.125V100.5H205.325ZM206.23 91.7798C205.945 91.7798 205.7 91.6854 205.494 91.4964C205.289 91.3042 205.186 91.0739 205.186 90.8054C205.186 90.5336 205.289 90.3033 205.494 90.1143C205.7 89.9221 205.945 89.826 206.23 89.826C206.518 89.826 206.764 89.9221 206.966 90.1143C207.171 90.3033 207.274 90.5336 207.274 90.8054C207.274 91.0739 207.171 91.3042 206.966 91.4964C206.764 91.6854 206.518 91.7798 206.23 91.7798ZM212.306 100.649C211.561 100.649 210.914 100.485 210.368 100.157C209.821 99.8288 209.396 99.3698 209.095 98.7798C208.797 98.1899 208.647 97.5005 208.647 96.7116C208.647 95.9228 208.797 95.2318 209.095 94.6385C209.396 94.0452 209.821 93.5845 210.368 93.2564C210.914 92.9283 211.561 92.7642 212.306 92.7642C213.052 92.7642 213.699 92.9283 214.245 93.2564C214.792 93.5845 215.215 94.0452 215.513 94.6385C215.815 95.2318 215.966 95.9228 215.966 96.7116C215.966 97.5005 215.815 98.1899 215.513 98.7798C215.215 99.3698 214.792 99.8288 214.245 100.157C213.699 100.485 213.052 100.649 212.306 100.649ZM212.316 99.2074C212.721 99.2074 213.059 99.0964 213.331 98.8743C213.602 98.6489 213.805 98.3473 213.937 97.9695C214.073 97.5916 214.141 97.1707 214.141 96.7067C214.141 96.2393 214.073 95.8168 213.937 95.4389C213.805 95.0578 213.602 94.7545 213.331 94.5291C213.059 94.3037 212.721 94.1911 212.316 94.1911C211.902 94.1911 211.557 94.3037 211.282 94.5291C211.011 94.7545 210.807 95.0578 210.671 95.4389C210.538 95.8168 210.472 96.2393 210.472 96.7067C210.472 97.1707 210.538 97.5916 210.671 97.9695C210.807 98.3473 211.011 98.6489 211.282 98.8743C211.557 99.0964 211.902 99.2074 212.316 99.2074ZM219.293 96.0256V100.5H217.493V92.8636H219.213V94.1612H219.303C219.478 93.7337 219.758 93.3939 220.143 93.142C220.531 92.8902 221.01 92.7642 221.58 92.7642C222.107 92.7642 222.566 92.8769 222.957 93.1023C223.351 93.3277 223.656 93.6541 223.872 94.0817C224.09 94.5092 224.198 95.0279 224.195 95.6378V100.5H222.395V95.9162C222.395 95.4058 222.262 95.0064 221.997 94.718C221.735 94.4297 221.373 94.2855 220.909 94.2855C220.594 94.2855 220.314 94.3551 220.068 94.4943C219.826 94.6302 219.636 94.8274 219.497 95.0859C219.361 95.3445 219.293 95.6577 219.293 96.0256ZM229.293 98.6108V97.1442L233.613 90.3182H234.836V92.4062H234.091L231.182 97.0149V97.0945H237.213V98.6108H229.293ZM234.15 100.5V98.1634L234.17 97.5071V90.3182H235.91V100.5H234.15Z" fill="#0F67F5"/>
<rect x="157" y="79.5" width="105" height="32" rx="4" stroke="#0F67F5"/>
<rect x="0.5" y="1" width="281" height="140" rx="3.5" stroke="white"/>
<defs>
<clipPath id="clip0_11640_104007">
<rect width="16" height="16" fill="white" transform="translate(16 17.5)"/>
</clipPath>
</defs>
</svg>
