<svg width="294" height="105" fill="none" xmlns="http://www.w3.org/2000/svg"><rect x="1" y="23.5" width="292" height="31" rx="3.5" fill="#fff"/><path d="m18.98 37.57-1.05.3a1.96 1.96 0 0 0-.3-.51c-.12-.17-.3-.3-.51-.42-.22-.1-.5-.16-.84-.16a2 2 0 0 0-1.17.32c-.3.21-.46.48-.46.81 0 .3.1.52.32.7.2.16.54.3.99.42l1.13.27c.69.17 1.2.42 1.53.76.33.34.5.78.5 1.31 0 .44-.12.83-.38 1.18-.24.34-.6.61-1.04.81-.45.2-.97.3-1.56.3-.78 0-1.42-.17-1.93-.5a2.25 2.25 0 0 1-.97-1.49l1.1-.28c.12.41.32.72.61.93.3.2.69.3 1.17.3.55 0 .98-.11 1.3-.34.33-.24.49-.52.49-.85a.9.9 0 0 0-.28-.66 1.78 1.78 0 0 0-.85-.41l-1.28-.3a3.04 3.04 0 0 1-1.54-.77 1.87 1.87 0 0 1-.49-1.32c0-.43.13-.81.37-1.14.24-.33.58-.6 1-.78.42-.2.9-.29 1.44-.29.75 0 1.35.17 1.78.5.43.33.74.77.92 1.31Zm1.9 5.93v-7.64h1.18v7.64H20.9Zm.6-8.9a.83.83 0 0 1-.59-.24.75.75 0 0 1-.24-.56c0-.22.08-.41.24-.57a.83.83 0 0 1 .6-.23c.22 0 .42.08.58.23.17.16.25.35.25.57 0 .21-.08.4-.25.56a.82.82 0 0 1-.59.23Zm3.9 4.3v4.6h-1.17v-7.64h1.13v1.2h.1c.18-.4.45-.7.82-.94a2.5 2.5 0 0 1 1.41-.36c.52 0 .97.11 1.36.32.39.21.69.53.9.96.22.42.33.96.33 1.6v4.86h-1.18v-4.77c0-.6-.15-1.07-.46-1.4a1.67 1.67 0 0 0-1.29-.51c-.37 0-.7.08-1 .24-.3.16-.52.4-.7.71-.16.31-.25.7-.25 1.14Zm9.27 4.78c-.49 0-.93-.1-1.32-.27-.4-.19-.7-.46-.94-.8a2.26 2.26 0 0 1-.35-1.28c0-.44.09-.79.26-1.06.17-.28.4-.5.7-.65.28-.15.6-.27.95-.35.35-.08.7-.14 1.06-.18a48 48 0 0 1 1.12-.14c.3-.03.5-.09.64-.16.14-.08.2-.21.2-.4v-.04c0-.5-.13-.87-.4-1.14-.26-.28-.67-.41-1.2-.41a2.07 2.07 0 0 0-2 1.15l-1.1-.4a2.67 2.67 0 0 1 1.88-1.63 4.54 4.54 0 0 1 2.02-.07c.32.06.63.18.93.36.3.18.55.45.75.8.2.37.3.85.3 1.46v5.03h-1.18v-1.03h-.06a2.3 2.3 0 0 1-1.14 1.01c-.3.13-.68.2-1.12.2Zm.18-1.05c.46 0 .85-.1 1.17-.28a1.86 1.86 0 0 0 .97-1.61v-1.08a.71.71 0 0 1-.32.17 5.55 5.55 0 0 1-1.21.21l-.5.06c-.3.04-.58.1-.85.2-.26.08-.47.21-.64.39a1 1 0 0 0-.23.7c0 .41.15.72.45.93.3.2.69.3 1.16.3Zm5.46.87v-7.64h1.13v1.16h.08c.14-.38.4-.69.76-.92.36-.24.77-.36 1.23-.36a13.1 13.1 0 0 1 .62.02v1.2a3.45 3.45 0 0 0-.72-.08c-.37 0-.7.08-1 .23a1.71 1.71 0 0 0-.93 1.56v4.83H40.3Zm5.2 0v-7.64h1.14v1.16h.08c.14-.38.4-.69.76-.92.36-.24.77-.36 1.23-.36a13.08 13.08 0 0 1 .62.02v1.2a3.45 3.45 0 0 0-.72-.08c-.37 0-.7.08-1 .23a1.71 1.71 0 0 0-.93 1.56v4.83H45.5Zm8.09.16c-.7 0-1.3-.16-1.82-.5a3.34 3.34 0 0 1-1.21-1.37 4.66 4.66 0 0 1-.43-2.07c0-.8.14-1.49.43-2.08.3-.6.7-1.06 1.21-1.38.52-.33 1.13-.5 1.82-.5a3.3 3.3 0 0 1 3.02 1.87c.3.6.44 1.3.44 2.1 0 .78-.15 1.47-.44 2.06a3.3 3.3 0 0 1-1.21 1.38 3.3 3.3 0 0 1-1.81.49Zm0-1.05c.52 0 .95-.14 1.29-.4.34-.28.59-.63.75-1.07a4.25 4.25 0 0 0 0-2.85 2.4 2.4 0 0 0-.75-1.06 2 2 0 0 0-1.3-.41 2 2 0 0 0-1.29.4 2.4 2.4 0 0 0-.75 1.07 4.1 4.1 0 0 0-.24 1.43c0 .51.08.99.24 1.42.17.44.42.8.75 1.06.34.27.77.4 1.3.4Zm5.4.89V33.32h1.18v3.76h.1l.36-.51c.15-.2.38-.4.66-.56.3-.16.69-.25 1.19-.25a3.03 3.03 0 0 1 2.85 1.85c.27.6.4 1.29.4 2.1 0 .8-.13 1.5-.4 2.1a2.99 2.99 0 0 1-2.83 1.85c-.5 0-.89-.08-1.18-.24-.3-.17-.52-.36-.68-.57a7.53 7.53 0 0 1-.37-.52h-.14v1.17h-1.13Zm1.16-3.82c0 .58.08 1.09.25 1.53.17.44.42.78.74 1.03a2 2 0 0 0 1.2.37c.49 0 .9-.13 1.23-.4.33-.25.58-.6.74-1.05.17-.44.26-.93.26-1.48 0-.54-.09-1.02-.25-1.45a2.32 2.32 0 0 0-.74-1.03 1.96 1.96 0 0 0-1.24-.38 1.96 1.96 0 0 0-1.94 1.37 4 4 0 0 0-.25 1.5Zm9.63 4c-.48 0-.92-.1-1.32-.27-.4-.19-.7-.46-.94-.8a2.26 2.26 0 0 1-.34-1.28c0-.44.08-.79.25-1.06.18-.28.4-.5.7-.65.28-.15.6-.27.95-.35.35-.08.7-.14 1.06-.18l1.13-.14c.29-.03.5-.09.63-.16.14-.08.2-.21.2-.4v-.04c0-.5-.13-.87-.4-1.14-.26-.28-.66-.41-1.2-.41a2.1 2.1 0 0 0-1.99 1.15l-1.12-.4a2.67 2.67 0 0 1 1.9-1.63 4.54 4.54 0 0 1 2.01-.07c.32.06.63.18.93.36.3.18.55.45.75.8.2.37.3.85.3 1.46v5.03H72.1v-1.03h-.06a2.3 2.3 0 0 1-1.14 1.01c-.3.13-.69.2-1.13.2Zm.18-1.05c.46 0 .85-.1 1.17-.28a1.86 1.86 0 0 0 .98-1.61v-1.08c-.05.06-.16.12-.33.17l-.58.12a26.34 26.34 0 0 1-1.12.15c-.3.04-.6.1-.86.2-.26.08-.47.21-.63.39a1 1 0 0 0-.24.7c0 .41.15.72.45.93.3.2.7.3 1.16.3Z" fill="#EE0505"/><rect x="1" y="23.5" width="292" height="31" rx="3.5" stroke="#EE0505"/><path d="M1.5 11V.82h6.63v1.54H3.35v2.77h4.43v1.54H3.35v2.78h4.82V11H1.5Zm8.43 0V3.36h1.72v1.3h.09c.16-.44.42-.78.79-1.02.37-.25.8-.38 1.32-.38.51 0 .95.13 1.3.38a2 2 0 0 1 .76 1.02h.08c.17-.42.45-.76.85-1.01.4-.26.89-.39 1.44-.39.7 0 1.28.23 1.72.67.45.44.67 1.1.67 1.94V11h-1.8V6.15c0-.47-.13-.82-.39-1.04a1.35 1.35 0 0 0-.92-.33c-.43 0-.77.14-1.02.4a1.5 1.5 0 0 0-.36 1.06V11H14.4V6.08c0-.4-.12-.71-.36-.95a1.25 1.25 0 0 0-.92-.35c-.26 0-.5.07-.7.2a1.3 1.3 0 0 0-.51.55c-.13.24-.2.51-.2.83V11h-1.8Zm14.76.15c-.48 0-.92-.08-1.3-.25a2.13 2.13 0 0 1-.92-.78 2.27 2.27 0 0 1-.33-1.26c0-.43.07-.79.23-1.07s.38-.5.65-.68c.28-.17.59-.3.93-.38.35-.09.71-.15 1.08-.2l1.1-.12c.27-.04.47-.1.6-.18.13-.08.2-.2.2-.38v-.03c0-.37-.12-.66-.34-.87-.22-.2-.54-.3-.96-.3-.44 0-.79.09-1.05.28-.25.2-.43.42-.52.68l-1.68-.24a2.68 2.68 0 0 1 1.78-1.87 4.76 4.76 0 0 1 2.56-.1c.36.08.7.22 1 .42.3.2.54.46.72.8.19.34.28.76.28 1.27V11H27V9.95h-.06a2.2 2.2 0 0 1-1.2 1.04c-.3.1-.64.16-1.04.16Zm.47-1.32a2 2 0 0 0 .94-.21c.26-.15.47-.34.6-.58.15-.24.23-.5.23-.78v-.9a.85.85 0 0 1-.3.13 13.79 13.79 0 0 1-1.36.24c-.26.04-.5.1-.71.18-.22.09-.38.2-.5.35a.85.85 0 0 0-.19.57c0 .33.12.58.36.75.25.17.55.25.93.25ZM30.53 11V3.36h1.8V11h-1.8Zm.9-8.72c-.28 0-.52-.1-.73-.28a.91.91 0 0 1-.3-.7c0-.27.1-.5.3-.69.2-.19.45-.28.74-.28s.53.1.73.28A.95.95 0 0 1 32.18 2c-.2.19-.45.28-.74.28ZM35.99.82V11h-1.8V.82h1.8Zm4.12 5.73.12-2.02-1.7 1.11-.6-1.05 1.8-.9-1.8-.91.6-1.06 1.7 1.11L40.1.82h1.21l-.1 2.01 1.68-1.1.61 1.05-1.8.9 1.8.9-.6 1.06-1.7-1.1.11 2h-1.2Z" fill="#333"/><rect x="1" y="59.5" width="291" height="45" rx="3.5" fill="#FCE7E7"/><g clip-path="url(#a)" fill="#A90303"><path d="M24.17 84.96a.62.62 0 0 1-.62-.62v-3.33c0-.34.28-.62.62-.62.34 0 .62.28.62.62v3.33c0 .34-.28.62-.62.62Zm0 2a.63.63 0 0 1-.63-.63c0-.16.07-.32.19-.44a.65.65 0 0 1 .88 0c.12.12.18.28.18.44a.6.6 0 0 1-.04.24.77.77 0 0 1-.14.21.67.67 0 0 1-.44.18Z"/><path d="M24.17 90.96a7.3 7.3 0 1 1 .02-14.6 7.3 7.3 0 0 1-.02 14.6Zm0-13.34a6.04 6.04 0 1 0-.02 12.1 6.04 6.04 0 0 0 .02-12.1Z"/></g><path d="M41.18 77.91v-1.1h7.63v1.1h-3.2V87h-1.23v-9.09h-3.2Zm10.55 4.5V87h-1.17V76.82h1.17v3.74h.1c.18-.4.45-.71.8-.94a2.6 2.6 0 0 1 1.45-.36c.52 0 .97.1 1.36.32.4.2.7.52.91.95.22.42.33.96.33 1.62V87h-1.17v-4.77a2 2 0 0 0-.47-1.41c-.32-.33-.75-.5-1.3-.5-.39 0-.73.08-1.04.24-.3.16-.54.4-.71.71-.17.31-.26.7-.26 1.14Zm7.1 4.59v-7.64H60V87h-1.17Zm.6-8.9a.83.83 0 0 1-.6-.24.75.75 0 0 1-.24-.56c0-.22.08-.41.24-.57a.83.83 0 0 1 .6-.23c.22 0 .42.08.58.23.17.16.25.35.25.57 0 .21-.08.4-.25.56a.82.82 0 0 1-.59.23Zm8.13 2.97-1.05.3a1.95 1.95 0 0 0-.3-.51c-.12-.17-.3-.3-.52-.42a2 2 0 0 0-.84-.16 2 2 0 0 0-1.16.32c-.31.21-.47.48-.47.81 0 .3.11.52.32.7.21.16.55.3 1 .42l1.13.27c.68.17 1.2.42 1.53.76.33.34.5.78.5 1.31 0 .44-.13.83-.38 1.18-.25.34-.6.61-1.04.81-.45.2-.97.3-1.56.3-.78 0-1.43-.17-1.94-.5a2.25 2.25 0 0 1-.97-1.49l1.12-.28c.1.41.3.72.6.93.3.2.68.3 1.17.3.54 0 .98-.11 1.3-.34.32-.24.49-.52.49-.85a.9.9 0 0 0-.28-.66 1.78 1.78 0 0 0-.86-.41l-1.27-.3a3.04 3.04 0 0 1-1.54-.77c-.33-.35-.49-.8-.49-1.32 0-.43.12-.81.36-1.14.25-.33.58-.6 1-.78.43-.2.9-.29 1.44-.29.76 0 1.35.17 1.78.5.44.33.75.77.93 1.31Zm9.24-1.7v.99h-4.1v-1h4.11ZM73.92 87v-8.69c0-.44.1-.8.3-1.1.21-.29.48-.5.8-.65a2.94 2.94 0 0 1 2.15-.02l-.33 1.01a5.7 5.7 0 0 0-.25-.07 1.5 1.5 0 0 0-.4-.05c-.4 0-.67.1-.84.3-.17.2-.26.48-.26.86V87h-1.17Zm4.53 0v-7.64h1.17V87h-1.17Zm.6-8.9a.83.83 0 0 1-.6-.24.75.75 0 0 1-.24-.56c0-.22.08-.41.24-.57a.83.83 0 0 1 .6-.23c.22 0 .42.08.58.23.17.16.25.35.25.57 0 .21-.08.4-.25.56a.82.82 0 0 1-.59.23Zm5.92 9.06a3.27 3.27 0 0 1-3.13-1.86 4.68 4.68 0 0 1-.43-2.06c0-.78.14-1.47.43-2.07a3.23 3.23 0 0 1 3.01-1.9c.4 0 .8.06 1.18.2a2.92 2.92 0 0 1 1.82 1.81 5 5 0 0 1 .28 1.8v.5h-5.88v-1.01h4.69c0-.44-.09-.82-.26-1.16a1.95 1.95 0 0 0-1.83-1.1c-.47 0-.87.12-1.21.36-.34.22-.6.52-.78.9-.18.36-.28.75-.28 1.17v.68c0 .58.1 1.07.3 1.47.2.4.49.7.84.9.36.21.78.32 1.25.32.3 0 .59-.05.84-.13.25-.1.47-.23.65-.4.18-.18.32-.4.42-.67l1.13.32c-.12.38-.32.72-.6 1.01-.28.3-.63.52-1.04.68-.42.16-.88.24-1.4.24Zm6.12-10.34V87h-1.17V76.82h1.17Zm5.03 10.34a2.99 2.99 0 0 1-2.83-1.86 5.01 5.01 0 0 1-.4-2.1 5 5 0 0 1 .4-2.09 3.03 3.03 0 0 1 2.85-1.85c.5 0 .9.09 1.18.25.3.17.52.35.67.56l.36.5h.1v-3.75h1.17V87H98.5v-1.17h-.14c-.09.14-.2.31-.37.52-.16.21-.38.4-.68.57-.3.16-.69.24-1.18.24Zm.16-1.05a2 2 0 0 0 1.2-.37c.32-.25.57-.6.74-1.03.17-.44.25-.95.25-1.53 0-.57-.08-1.07-.25-1.5a1.96 1.96 0 0 0-1.94-1.37c-.5 0-.9.14-1.24.4-.33.24-.58.59-.74 1.02a4.1 4.1 0 0 0-.24 1.45c0 .55.08 1.04.24 1.48.17.44.42.8.75 1.06s.74.39 1.23.39Zm9.6.89v-7.64h1.17V87h-1.18Zm.59-8.9a.83.83 0 0 1-.6-.24.75.75 0 0 1-.24-.56.83.83 0 0 1 .83-.8c.24 0 .43.08.6.23.16.16.25.35.25.57 0 .21-.09.4-.25.56a.82.82 0 0 1-.6.23Zm8.13 2.97-1.05.3a1.95 1.95 0 0 0-.3-.51c-.12-.17-.3-.3-.51-.42-.22-.1-.5-.16-.84-.16a2 2 0 0 0-1.17.32c-.3.21-.46.48-.46.81 0 .3.1.52.32.7.2.16.54.3 1 .42l1.13.27c.68.17 1.19.42 1.52.76.34.34.5.78.5 1.31 0 .44-.12.83-.38 1.18-.24.34-.6.61-1.04.81-.45.2-.97.3-1.56.3-.78 0-1.42-.17-1.93-.5a2.25 2.25 0 0 1-.97-1.49l1.11-.28c.1.41.3.72.6.93.3.2.69.3 1.17.3.55 0 .98-.11 1.3-.34.33-.24.49-.52.49-.85a.9.9 0 0 0-.28-.66 1.78 1.78 0 0 0-.85-.41l-1.28-.3a3.04 3.04 0 0 1-1.54-.77 1.9 1.9 0 0 1-.48-1.32c0-.43.12-.81.36-1.14.24-.33.58-.6 1-.78.42-.2.9-.29 1.44-.29.75 0 1.35.17 1.78.5.43.33.74.77.92 1.31Zm5.85 5.93v-7.64h1.13v1.16h.08c.14-.38.4-.69.76-.92.36-.24.77-.36 1.23-.36a13.07 13.07 0 0 1 .61.02v1.2a3.5 3.5 0 0 0-.71-.08c-.37 0-.7.08-1 .23a1.71 1.71 0 0 0-.94 1.56V87h-1.16Zm8.17.16a3.27 3.27 0 0 1-3.13-1.86 4.68 4.68 0 0 1-.42-2.06c0-.78.14-1.47.42-2.07.3-.6.7-1.06 1.2-1.4a3.62 3.62 0 0 1 2.99-.3 2.92 2.92 0 0 1 1.82 1.81 5 5 0 0 1 .29 1.8v.5h-5.89v-1.01h4.7c0-.44-.1-.82-.26-1.16a1.95 1.95 0 0 0-1.83-1.1c-.47 0-.88.12-1.22.36-.34.22-.6.52-.78.9-.18.36-.27.75-.27 1.17v.68c0 .58.1 1.07.3 1.47.2.4.48.7.84.9.36.21.77.32 1.25.32.3 0 .58-.05.83-.13.25-.1.47-.23.65-.4.18-.18.32-.4.42-.67l1.14.32a2.73 2.73 0 0 1-1.65 1.69c-.41.16-.88.24-1.4.24Zm10.16 2.7v-4.03h-.1c-.08.14-.2.31-.37.52-.15.21-.38.4-.68.57-.3.16-.68.24-1.17.24a2.99 2.99 0 0 1-2.83-1.86 4.86 4.86 0 0 1-.42-2.1c0-.8.14-1.5.42-2.09a3.03 3.03 0 0 1 2.85-1.85c.5 0 .89.09 1.17.25.3.17.52.35.67.56.16.2.28.37.36.5h.14v-1.2h1.14v10.5h-1.18Zm-2.16-3.75c.47 0 .86-.13 1.19-.37.32-.25.57-.6.74-1.03.17-.44.25-.95.25-1.53 0-.57-.08-1.07-.25-1.5a1.96 1.96 0 0 0-1.94-1.37c-.5 0-.9.14-1.24.4-.33.24-.57.59-.74 1.02-.16.43-.24.91-.24 1.45 0 .55.08 1.04.25 1.48.17.44.41.8.74 1.06s.74.39 1.24.39Zm10.3-2.23v-4.52h1.17V87h-1.17v-1.3h-.08a2.5 2.5 0 0 1-.84 1c-.38.27-.85.4-1.43.4-.48 0-.9-.1-1.27-.31a2.2 2.2 0 0 1-.88-.96 3.63 3.63 0 0 1-.32-1.61v-4.86h1.18v4.78c0 .55.15 1 .46 1.33.32.33.72.5 1.2.5a2 2 0 0 0 1.98-2.1Zm3.32 3.12v-7.64h1.17V87h-1.17Zm.6-8.9a.83.83 0 0 1-.6-.24.75.75 0 0 1-.24-.56c0-.22.08-.41.24-.57a.83.83 0 0 1 .6-.23c.22 0 .42.08.58.23.17.16.25.35.25.57 0 .21-.08.4-.25.56a.82.82 0 0 1-.58.23Zm2.72 8.9v-7.64h1.13v1.16h.08c.14-.38.4-.69.76-.92.36-.24.78-.36 1.23-.36a13.07 13.07 0 0 1 .62.02v1.2a3.4 3.4 0 0 0-.72-.08c-.37 0-.7.08-1 .23a1.71 1.71 0 0 0-.94 1.56V87h-1.16Zm8.18.16a3.6 3.6 0 0 1-1.9-.49 3.28 3.28 0 0 1-1.23-1.37 4.68 4.68 0 0 1-.43-2.06c0-.78.14-1.47.43-2.07a3.24 3.24 0 0 1 3.01-1.9c.4 0 .79.06 1.18.2a2.92 2.92 0 0 1 1.82 1.81 5 5 0 0 1 .28 1.8v.5h-5.89v-1.01h4.7c0-.44-.09-.82-.26-1.16a1.95 1.95 0 0 0-1.83-1.1c-.47 0-.87.12-1.21.36-.34.22-.6.52-.78.9-.19.36-.28.75-.28 1.17v.68c0 .58.1 1.07.3 1.47.2.4.48.7.84.9.36.21.77.32 1.25.32a2.08 2.08 0 0 0 1.49-.53c.18-.18.32-.4.42-.67l1.13.32a2.73 2.73 0 0 1-1.65 1.69c-.4.16-.87.24-1.4.24Zm7.83 0a3 3 0 0 1-2.83-1.86 4.86 4.86 0 0 1-.41-2.1c0-.8.13-1.5.41-2.09a3.04 3.04 0 0 1 2.85-1.85c.5 0 .89.09 1.18.25.29.17.51.35.66.56l.37.5h.1v-3.75h1.17V87h-1.13v-1.17h-.14l-.37.52c-.16.21-.39.4-.68.57-.3.16-.7.24-1.18.24Zm.16-1.05a2 2 0 0 0 1.2-.37c.32-.25.56-.6.73-1.03.17-.44.25-.95.25-1.53a4.3 4.3 0 0 0-.24-1.5 1.96 1.96 0 0 0-1.94-1.37c-.5 0-.91.14-1.25.4-.32.24-.57.59-.74 1.02a4.1 4.1 0 0 0-.24 1.45c0 .55.08 1.04.25 1.48.17.44.42.8.75 1.06s.74.39 1.23.39Z" fill="#333"/><rect x="1" y="59.5" width="291" height="45" rx="3.5" stroke="#fff"/><defs><clipPath id="a"><path fill="#fff" transform="translate(16.5 76)" d="M0 0h16v16H0z"/></clipPath></defs></svg>