<svg width="280" height="46" viewBox="0 0 280 46" fill="none" xmlns="http://www.w3.org/2000/svg">
<rect x="0.5" y="0.5" width="279" height="45" rx="3.5" fill="#E9F8E9"/>
<path d="M22.3299 27.9599C22.1699 27.9599 22.0099 27.8999 21.8899 27.7799L19.8899 25.7799C19.6499 25.5399 19.6499 25.1399 19.8899 24.8999C20.1299 24.6599 20.5299 24.6599 20.7699 24.8999L22.3299 26.4599L26.5599 22.2399C26.7999 21.9999 27.1999 21.9899 27.4399 22.2399C27.6799 22.4799 27.6799 22.8799 27.4399 23.1199L22.7699 27.7899C22.6499 27.9099 22.4899 27.9699 22.3299 27.9699V27.9599Z" fill="#005509"/>
<path d="M23.6699 31.9599C19.6499 31.9599 16.3799 28.6899 16.3799 24.6699C16.3799 20.6499 19.6499 17.3799 23.6699 17.3799C27.6899 17.3799 30.9599 20.6499 30.9599 24.6699C30.9599 28.6899 27.6899 31.9599 23.6699 31.9599ZM23.6699 18.6199C20.3299 18.6199 17.6199 21.3299 17.6199 24.6699C17.6199 28.0099 20.3299 30.7099 23.6599 30.7099C26.9899 30.7099 29.6999 27.9999 29.6999 24.6699C29.6999 21.3399 26.9999 18.6199 23.6699 18.6199Z" fill="#005509"/>
<path d="M44.9318 24.8182H46.2841L47.4176 26.3097L47.7159 26.7074L49.4062 28.9545H48.054L46.9403 27.4631L46.6619 27.0852L44.9318 24.8182ZM49.8239 22.9091C49.8239 23.983 49.63 24.911 49.2422 25.6932C48.8544 26.4754 48.3224 27.0786 47.6463 27.5028C46.9702 27.9271 46.1979 28.1392 45.3295 28.1392C44.4612 28.1392 43.6889 27.9271 43.0128 27.5028C42.3366 27.0786 41.8047 26.4754 41.4169 25.6932C41.0291 24.911 40.8352 23.983 40.8352 22.9091C40.8352 21.8352 41.0291 20.9072 41.4169 20.125C41.8047 19.3428 42.3366 18.7396 43.0128 18.3153C43.6889 17.8911 44.4612 17.679 45.3295 17.679C46.1979 17.679 46.9702 17.8911 47.6463 18.3153C48.3224 18.7396 48.8544 19.3428 49.2422 20.125C49.63 20.9072 49.8239 21.8352 49.8239 22.9091ZM48.6307 22.9091C48.6307 22.0275 48.4832 21.2834 48.1882 20.6768C47.8965 20.0703 47.5005 19.6113 47 19.2997C46.5028 18.9882 45.946 18.8324 45.3295 18.8324C44.7131 18.8324 44.1546 18.9882 43.6541 19.2997C43.157 19.6113 42.7609 20.0703 42.4659 20.6768C42.1742 21.2834 42.0284 22.0275 42.0284 22.9091C42.0284 23.7907 42.1742 24.5348 42.4659 25.1413C42.7609 25.7479 43.157 26.2069 43.6541 26.5185C44.1546 26.83 44.7131 26.9858 45.3295 26.9858C45.946 26.9858 46.5028 26.83 47 26.5185C47.5005 26.2069 47.8965 25.7479 48.1882 25.1413C48.4832 24.5348 48.6307 23.7907 48.6307 22.9091ZM56.5504 24.8778V20.3636H57.7237V28H56.5504V26.7074H56.4709C56.2919 27.0952 56.0135 27.425 55.6357 27.6967C55.2578 27.9652 54.7805 28.0994 54.2038 28.0994C53.7266 28.0994 53.3023 27.995 52.9311 27.7862C52.5599 27.5741 52.2682 27.2559 52.0561 26.8317C51.844 26.4041 51.7379 25.8655 51.7379 25.2159V20.3636H52.9112V25.1364C52.9112 25.6932 53.067 26.1373 53.3786 26.4688C53.6934 26.8002 54.0945 26.9659 54.5817 26.9659C54.8733 26.9659 55.17 26.8913 55.4716 26.7422C55.7765 26.593 56.0317 26.3643 56.2372 26.0561C56.446 25.7479 56.5504 25.3551 56.5504 24.8778ZM63.0744 28.1591C62.3386 28.1591 61.7039 27.9967 61.1703 27.6719C60.64 27.3438 60.2306 26.8864 59.9423 26.2997C59.6573 25.7098 59.5147 25.0237 59.5147 24.2415C59.5147 23.4593 59.6573 22.7699 59.9423 22.1733C60.2306 21.5734 60.6317 21.1061 61.1454 20.7713C61.6625 20.4332 62.2657 20.2642 62.9551 20.2642C63.3528 20.2642 63.7456 20.3305 64.1333 20.4631C64.5211 20.5956 64.8741 20.8111 65.1923 21.1094C65.5105 21.4044 65.764 21.7955 65.9529 22.2827C66.1419 22.7699 66.2363 23.3698 66.2363 24.0824V24.5795H60.35V23.5653H65.0431C65.0431 23.1345 64.957 22.75 64.7846 22.4119C64.6156 22.0739 64.3736 21.8071 64.0588 21.6115C63.7472 21.416 63.3793 21.3182 62.9551 21.3182C62.4877 21.3182 62.0834 21.4342 61.742 21.6662C61.4039 21.8949 61.1438 22.1932 60.9615 22.5611C60.7792 22.929 60.688 23.3234 60.688 23.7443V24.4205C60.688 24.9972 60.7875 25.486 60.9863 25.8871C61.1885 26.2848 61.4686 26.5881 61.8265 26.7969C62.1845 27.0024 62.6004 27.1051 63.0744 27.1051C63.3826 27.1051 63.661 27.062 63.9096 26.9759C64.1615 26.8864 64.3786 26.7538 64.5609 26.5781C64.7432 26.3991 64.8841 26.1771 64.9835 25.9119L66.117 26.2301C65.9977 26.6146 65.7972 26.9527 65.5154 27.2443C65.2337 27.5327 64.8857 27.758 64.4714 27.9205C64.0571 28.0795 63.5914 28.1591 63.0744 28.1591ZM73.4302 22.0739L72.3762 22.3722C72.31 22.1965 72.2122 22.0258 72.0829 21.8601C71.957 21.6911 71.7846 21.5518 71.5659 21.4425C71.3471 21.3331 71.0671 21.2784 70.7257 21.2784C70.2583 21.2784 69.8689 21.3861 69.5574 21.6016C69.2491 21.8137 69.095 22.0838 69.095 22.4119C69.095 22.7036 69.2011 22.9339 69.4132 23.103C69.6253 23.272 69.9567 23.4129 70.4075 23.5256L71.541 23.804C72.2238 23.9697 72.7325 24.2232 73.0673 24.5646C73.402 24.9027 73.5694 25.3385 73.5694 25.8722C73.5694 26.3097 73.4435 26.7008 73.1916 27.0455C72.943 27.3902 72.595 27.6619 72.1475 27.8608C71.7001 28.0597 71.1797 28.1591 70.5865 28.1591C69.8076 28.1591 69.1629 27.9901 68.6525 27.652C68.1421 27.3139 67.819 26.8201 67.6831 26.1705L68.7967 25.892C68.9028 26.303 69.1033 26.6113 69.3983 26.8168C69.6966 27.0223 70.086 27.125 70.5666 27.125C71.1135 27.125 71.5476 27.009 71.8691 26.777C72.194 26.5417 72.3564 26.2599 72.3564 25.9318C72.3564 25.6667 72.2636 25.4446 72.0779 25.2656C71.8923 25.0833 71.6073 24.9474 71.2228 24.858L69.9501 24.5597C69.2508 24.3939 68.737 24.1371 68.4089 23.7891C68.0841 23.4377 67.9217 22.9986 67.9217 22.4716C67.9217 22.0407 68.0427 21.6596 68.2846 21.3281C68.5299 20.9967 68.863 20.7365 69.2839 20.5476C69.7082 20.3587 70.1887 20.2642 70.7257 20.2642C71.4814 20.2642 72.0746 20.4299 72.5055 20.7614C72.9397 21.0928 73.2479 21.5303 73.4302 22.0739ZM78.6566 20.3636V21.358H74.6992V20.3636H78.6566ZM75.8526 18.5341H77.0259V25.8125C77.0259 26.1439 77.074 26.3925 77.1701 26.5582C77.2695 26.7206 77.3955 26.83 77.5479 26.8864C77.7037 26.9394 77.8678 26.9659 78.0401 26.9659C78.1694 26.9659 78.2755 26.9593 78.3583 26.946C78.4412 26.9295 78.5075 26.9162 78.5572 26.9062L78.7958 27.9602C78.7163 27.9901 78.6052 28.0199 78.4627 28.0497C78.3202 28.0829 78.1396 28.0994 77.9208 28.0994C77.5894 28.0994 77.2646 28.0282 76.9464 27.8857C76.6315 27.7431 76.3697 27.526 76.1609 27.2344C75.9554 26.9427 75.8526 26.5748 75.8526 26.1307V18.5341ZM80.4215 28V20.3636H81.5948V28H80.4215ZM81.0181 19.0909C80.7894 19.0909 80.5922 19.013 80.4265 18.8572C80.2641 18.7015 80.1829 18.5142 80.1829 18.2955C80.1829 18.0767 80.2641 17.8894 80.4265 17.7337C80.5922 17.5779 80.7894 17.5 81.0181 17.5C81.2468 17.5 81.4424 17.5779 81.6048 17.7337C81.7705 17.8894 81.8533 18.0767 81.8533 18.2955C81.8533 18.5142 81.7705 18.7015 81.6048 18.8572C81.4424 19.013 81.2468 19.0909 81.0181 19.0909ZM86.8461 28.1591C86.1567 28.1591 85.5518 27.995 85.0314 27.6669C84.5144 27.3388 84.11 26.8797 83.8184 26.2898C83.53 25.6998 83.3858 25.0104 83.3858 24.2216C83.3858 23.4261 83.53 22.7318 83.8184 22.1385C84.11 21.5452 84.5144 21.0845 85.0314 20.7564C85.5518 20.4283 86.1567 20.2642 86.8461 20.2642C87.5355 20.2642 88.1387 20.4283 88.6557 20.7564C89.1761 21.0845 89.5804 21.5452 89.8688 22.1385C90.1605 22.7318 90.3063 23.4261 90.3063 24.2216C90.3063 25.0104 90.1605 25.6998 89.8688 26.2898C89.5804 26.8797 89.1761 27.3388 88.6557 27.6669C88.1387 27.995 87.5355 28.1591 86.8461 28.1591ZM86.8461 27.1051C87.3697 27.1051 87.8006 26.9709 88.1387 26.7024C88.4767 26.4339 88.727 26.081 88.8894 25.6435C89.0518 25.206 89.133 24.732 89.133 24.2216C89.133 23.7112 89.0518 23.2356 88.8894 22.7947C88.727 22.3539 88.4767 21.9976 88.1387 21.7259C87.8006 21.4541 87.3697 21.3182 86.8461 21.3182C86.3224 21.3182 85.8915 21.4541 85.5534 21.7259C85.2154 21.9976 84.9651 22.3539 84.8027 22.7947C84.6403 23.2356 84.5591 23.7112 84.5591 24.2216C84.5591 24.732 84.6403 25.206 84.8027 25.6435C84.9651 26.081 85.2154 26.4339 85.5534 26.7024C85.8915 26.9709 86.3224 27.1051 86.8461 27.1051ZM93.2706 23.4062V28H92.0973V20.3636H93.2308V21.5568H93.3303C93.5092 21.169 93.781 20.8575 94.1456 20.6222C94.5102 20.3835 94.9808 20.2642 95.5575 20.2642C96.0746 20.2642 96.527 20.3703 96.9148 20.5824C97.3026 20.7912 97.6042 21.1094 97.8196 21.5369C98.035 21.9612 98.1428 22.4981 98.1428 23.1477V28H96.9695V23.2273C96.9695 22.6274 96.8137 22.16 96.5021 21.8253C96.1906 21.4872 95.763 21.3182 95.2195 21.3182C94.8449 21.3182 94.5102 21.3994 94.2152 21.5618C93.9235 21.7242 93.6932 21.9612 93.5241 22.2727C93.3551 22.5843 93.2706 22.9621 93.2706 23.4062ZM109.633 22.0739L108.579 22.3722C108.513 22.1965 108.415 22.0258 108.286 21.8601C108.16 21.6911 107.988 21.5518 107.769 21.4425C107.55 21.3331 107.27 21.2784 106.929 21.2784C106.461 21.2784 106.072 21.3861 105.76 21.6016C105.452 21.8137 105.298 22.0838 105.298 22.4119C105.298 22.7036 105.404 22.9339 105.616 23.103C105.828 23.272 106.16 23.4129 106.611 23.5256L107.744 23.804C108.427 23.9697 108.936 24.2232 109.27 24.5646C109.605 24.9027 109.773 25.3385 109.773 25.8722C109.773 26.3097 109.647 26.7008 109.395 27.0455C109.146 27.3902 108.798 27.6619 108.351 27.8608C107.903 28.0597 107.383 28.1591 106.79 28.1591C106.011 28.1591 105.366 27.9901 104.856 27.652C104.345 27.3139 104.022 26.8201 103.886 26.1705L105 25.892C105.106 26.303 105.306 26.6113 105.601 26.8168C105.9 27.0223 106.289 27.125 106.77 27.125C107.317 27.125 107.751 27.009 108.072 26.777C108.397 26.5417 108.559 26.2599 108.559 25.9318C108.559 25.6667 108.467 25.4446 108.281 25.2656C108.095 25.0833 107.81 24.9474 107.426 24.858L106.153 24.5597C105.454 24.3939 104.94 24.1371 104.612 23.7891C104.287 23.4377 104.125 22.9986 104.125 22.4716C104.125 22.0407 104.246 21.6596 104.488 21.3281C104.733 20.9967 105.066 20.7365 105.487 20.5476C105.911 20.3587 106.392 20.2642 106.929 20.2642C107.684 20.2642 108.278 20.4299 108.709 20.7614C109.143 21.0928 109.451 21.5303 109.633 22.0739ZM116.351 24.8778V20.3636H117.525V28H116.351V26.7074H116.272C116.093 27.0952 115.814 27.425 115.436 27.6967C115.059 27.9652 114.581 28.0994 114.005 28.0994C113.527 28.0994 113.103 27.995 112.732 27.7862C112.361 27.5741 112.069 27.2559 111.857 26.8317C111.645 26.4041 111.539 25.8655 111.539 25.2159V20.3636H112.712V25.1364C112.712 25.6932 112.868 26.1373 113.179 26.4688C113.494 26.8002 113.895 26.9659 114.382 26.9659C114.674 26.9659 114.971 26.8913 115.272 26.7422C115.577 26.593 115.833 26.3643 116.038 26.0561C116.247 25.7479 116.351 25.3551 116.351 24.8778ZM122.776 28.1591C122.06 28.1591 121.443 27.9901 120.926 27.652C120.409 27.3139 120.012 26.8482 119.733 26.255C119.455 25.6617 119.316 24.9839 119.316 24.2216C119.316 23.446 119.458 22.7616 119.743 22.1683C120.031 21.5717 120.432 21.1061 120.946 20.7713C121.463 20.4332 122.066 20.2642 122.756 20.2642C123.293 20.2642 123.777 20.3636 124.208 20.5625C124.638 20.7614 124.991 21.0398 125.267 21.3977C125.542 21.7557 125.712 22.1733 125.779 22.6506H124.605C124.516 22.3026 124.317 21.9943 124.009 21.7259C123.704 21.4541 123.293 21.3182 122.776 21.3182C122.318 21.3182 121.917 21.4375 121.573 21.6761C121.231 21.9115 120.964 22.2446 120.772 22.6754C120.583 23.103 120.489 23.6051 120.489 24.1818C120.489 24.7718 120.582 25.2855 120.767 25.723C120.956 26.1605 121.221 26.5002 121.563 26.7422C121.907 26.9841 122.312 27.1051 122.776 27.1051C123.081 27.1051 123.357 27.0521 123.606 26.946C123.855 26.84 124.065 26.6875 124.237 26.4886C124.41 26.2898 124.532 26.0511 124.605 25.7727H125.779C125.712 26.2235 125.548 26.6295 125.286 26.9908C125.028 27.3487 124.685 27.6338 124.257 27.8459C123.833 28.0547 123.339 28.1591 122.776 28.1591ZM130.596 28.1591C129.88 28.1591 129.264 27.9901 128.747 27.652C128.23 27.3139 127.832 26.8482 127.553 26.255C127.275 25.6617 127.136 24.9839 127.136 24.2216C127.136 23.446 127.278 22.7616 127.563 22.1683C127.852 21.5717 128.253 21.1061 128.767 20.7713C129.284 20.4332 129.887 20.2642 130.576 20.2642C131.113 20.2642 131.597 20.3636 132.028 20.5625C132.459 20.7614 132.812 21.0398 133.087 21.3977C133.362 21.7557 133.533 22.1733 133.599 22.6506H132.426C132.336 22.3026 132.137 21.9943 131.829 21.7259C131.524 21.4541 131.113 21.3182 130.596 21.3182C130.139 21.3182 129.738 21.4375 129.393 21.6761C129.052 21.9115 128.785 22.2446 128.593 22.6754C128.404 23.103 128.309 23.6051 128.309 24.1818C128.309 24.7718 128.402 25.2855 128.588 25.723C128.776 26.1605 129.042 26.5002 129.383 26.7422C129.728 26.9841 130.132 27.1051 130.596 27.1051C130.901 27.1051 131.178 27.0521 131.426 26.946C131.675 26.84 131.885 26.6875 132.058 26.4886C132.23 26.2898 132.353 26.0511 132.426 25.7727H133.599C133.533 26.2235 133.369 26.6295 133.107 26.9908C132.848 27.3487 132.505 27.6338 132.078 27.8459C131.653 28.0547 131.16 28.1591 130.596 28.1591ZM138.516 28.1591C137.78 28.1591 137.145 27.9967 136.612 27.6719C136.081 27.3438 135.672 26.8864 135.384 26.2997C135.099 25.7098 134.956 25.0237 134.956 24.2415C134.956 23.4593 135.099 22.7699 135.384 22.1733C135.672 21.5734 136.073 21.1061 136.587 20.7713C137.104 20.4332 137.707 20.2642 138.396 20.2642C138.794 20.2642 139.187 20.3305 139.575 20.4631C139.963 20.5956 140.316 20.8111 140.634 21.1094C140.952 21.4044 141.205 21.7955 141.394 22.2827C141.583 22.7699 141.678 23.3698 141.678 24.0824V24.5795H135.791V23.5653H140.485C140.485 23.1345 140.398 22.75 140.226 22.4119C140.057 22.0739 139.815 21.8071 139.5 21.6115C139.189 21.416 138.821 21.3182 138.396 21.3182C137.929 21.3182 137.525 21.4342 137.183 21.6662C136.845 21.8949 136.585 22.1932 136.403 22.5611C136.221 22.929 136.129 23.3234 136.129 23.7443V24.4205C136.129 24.9972 136.229 25.486 136.428 25.8871C136.63 26.2848 136.91 26.5881 137.268 26.7969C137.626 27.0024 138.042 27.1051 138.516 27.1051C138.824 27.1051 139.102 27.062 139.351 26.9759C139.603 26.8864 139.82 26.7538 140.002 26.5781C140.185 26.3991 140.325 26.1771 140.425 25.9119L141.558 26.2301C141.439 26.6146 141.239 26.9527 140.957 27.2443C140.675 27.5327 140.327 27.758 139.913 27.9205C139.499 28.0795 139.033 28.1591 138.516 28.1591ZM148.872 22.0739L147.818 22.3722C147.751 22.1965 147.654 22.0258 147.524 21.8601C147.398 21.6911 147.226 21.5518 147.007 21.4425C146.789 21.3331 146.508 21.2784 146.167 21.2784C145.7 21.2784 145.31 21.3861 144.999 21.6016C144.691 21.8137 144.536 22.0838 144.536 22.4119C144.536 22.7036 144.642 22.9339 144.855 23.103C145.067 23.272 145.398 23.4129 145.849 23.5256L146.982 23.804C147.665 23.9697 148.174 24.2232 148.509 24.5646C148.843 24.9027 149.011 25.3385 149.011 25.8722C149.011 26.3097 148.885 26.7008 148.633 27.0455C148.384 27.3902 148.036 27.6619 147.589 27.8608C147.142 28.0597 146.621 28.1591 146.028 28.1591C145.249 28.1591 144.604 27.9901 144.094 27.652C143.584 27.3139 143.26 26.8201 143.124 26.1705L144.238 25.892C144.344 26.303 144.545 26.6113 144.84 26.8168C145.138 27.0223 145.527 27.125 146.008 27.125C146.555 27.125 146.989 27.009 147.311 26.777C147.635 26.5417 147.798 26.2599 147.798 25.9318C147.798 25.6667 147.705 25.4446 147.519 25.2656C147.334 25.0833 147.049 24.9474 146.664 24.858L145.392 24.5597C144.692 24.3939 144.178 24.1371 143.85 23.7891C143.526 23.4377 143.363 22.9986 143.363 22.4716C143.363 22.0407 143.484 21.6596 143.726 21.3281C143.971 20.9967 144.304 20.7365 144.725 20.5476C145.15 20.3587 145.63 20.2642 146.167 20.2642C146.923 20.2642 147.516 20.4299 147.947 20.7614C148.381 21.0928 148.689 21.5303 148.872 22.0739ZM156.186 22.0739L155.132 22.3722C155.066 22.1965 154.968 22.0258 154.839 21.8601C154.713 21.6911 154.54 21.5518 154.322 21.4425C154.103 21.3331 153.823 21.2784 153.482 21.2784C153.014 21.2784 152.625 21.3861 152.313 21.6016C152.005 21.8137 151.851 22.0838 151.851 22.4119C151.851 22.7036 151.957 22.9339 152.169 23.103C152.381 23.272 152.713 23.4129 153.163 23.5256L154.297 23.804C154.98 23.9697 155.488 24.2232 155.823 24.5646C156.158 24.9027 156.325 25.3385 156.325 25.8722C156.325 26.3097 156.199 26.7008 155.947 27.0455C155.699 27.3902 155.351 27.6619 154.903 27.8608C154.456 28.0597 153.936 28.1591 153.342 28.1591C152.563 28.1591 151.919 27.9901 151.408 27.652C150.898 27.3139 150.575 26.8201 150.439 26.1705L151.553 25.892C151.659 26.303 151.859 26.6113 152.154 26.8168C152.452 27.0223 152.842 27.125 153.322 27.125C153.869 27.125 154.304 27.009 154.625 26.777C154.95 26.5417 155.112 26.2599 155.112 25.9318C155.112 25.6667 155.019 25.4446 154.834 25.2656C154.648 25.0833 154.363 24.9474 153.979 24.858L152.706 24.5597C152.007 24.3939 151.493 24.1371 151.165 23.7891C150.84 23.4377 150.678 22.9986 150.678 22.4716C150.678 22.0407 150.799 21.6596 151.04 21.3281C151.286 20.9967 151.619 20.7365 152.04 20.5476C152.464 20.3587 152.945 20.2642 153.482 20.2642C154.237 20.2642 154.83 20.4299 155.261 20.7614C155.696 21.0928 156.004 21.5303 156.186 22.0739ZM161.492 20.3636V21.358H157.376V20.3636H161.492ZM158.608 28V19.3097C158.608 18.8722 158.711 18.5076 158.917 18.2159C159.122 17.9242 159.389 17.7055 159.717 17.5597C160.045 17.4138 160.392 17.3409 160.756 17.3409C161.045 17.3409 161.28 17.3641 161.462 17.4105C161.644 17.4569 161.78 17.5 161.87 17.5398L161.532 18.554C161.472 18.5341 161.389 18.5092 161.283 18.4794C161.18 18.4496 161.045 18.4347 160.876 18.4347C160.488 18.4347 160.208 18.5324 160.035 18.728C159.866 18.9235 159.782 19.2102 159.782 19.5881V28H158.608ZM167.949 24.8778V20.3636H169.122V28H167.949V26.7074H167.869C167.69 27.0952 167.412 27.425 167.034 27.6967C166.656 27.9652 166.179 28.0994 165.602 28.0994C165.125 28.0994 164.701 27.995 164.33 27.7862C163.958 27.5741 163.667 27.2559 163.455 26.8317C163.242 26.4041 163.136 25.8655 163.136 25.2159V20.3636H164.31V25.1364C164.31 25.6932 164.465 26.1373 164.777 26.4688C165.092 26.8002 165.493 26.9659 165.98 26.9659C166.272 26.9659 166.568 26.8913 166.87 26.7422C167.175 26.593 167.43 26.3643 167.636 26.0561C167.844 25.7479 167.949 25.3551 167.949 24.8778ZM172.444 17.8182V28H171.271V17.8182H172.444ZM175.767 17.8182V28H174.593V17.8182H175.767ZM178.671 30.8636C178.472 30.8636 178.295 30.8471 178.139 30.8139C177.984 30.7841 177.876 30.7543 177.816 30.7244L178.115 29.6903C178.4 29.7633 178.651 29.7898 178.87 29.7699C179.089 29.75 179.283 29.6522 179.452 29.4766C179.624 29.3042 179.782 29.0241 179.924 28.6364L180.143 28.0398L177.319 20.3636H178.592L180.7 26.4489H180.779L182.887 20.3636H184.16L180.919 29.1136C180.773 29.508 180.592 29.8345 180.377 30.093C180.161 30.3549 179.911 30.5488 179.626 30.6747C179.344 30.8007 179.026 30.8636 178.671 30.8636ZM192.53 28.1591C191.893 28.1591 191.331 27.9983 190.844 27.6768C190.357 27.352 189.976 26.8946 189.701 26.3047C189.426 25.7114 189.288 25.0104 189.288 24.2017C189.288 23.3996 189.426 22.7036 189.701 22.1136C189.976 21.5237 190.359 21.0679 190.849 20.7464C191.34 20.425 191.907 20.2642 192.55 20.2642C193.047 20.2642 193.439 20.3471 193.728 20.5128C194.019 20.6752 194.242 20.8608 194.394 21.0696C194.55 21.2751 194.671 21.4441 194.757 21.5767H194.856V17.8182H196.03V28H194.896V26.8267H194.757C194.671 26.9659 194.548 27.1416 194.389 27.3537C194.23 27.5625 194.003 27.7498 193.708 27.9155C193.413 28.0779 193.02 28.1591 192.53 28.1591ZM192.689 27.1051C193.159 27.1051 193.557 26.9825 193.882 26.7372C194.207 26.4886 194.454 26.1456 194.623 25.7081C194.792 25.2673 194.876 24.7585 194.876 24.1818C194.876 23.6117 194.793 23.1129 194.628 22.6854C194.462 22.2545 194.217 21.9197 193.892 21.6811C193.567 21.4392 193.166 21.3182 192.689 21.3182C192.192 21.3182 191.777 21.4458 191.446 21.701C191.118 21.9529 190.871 22.2959 190.705 22.7301C190.543 23.161 190.461 23.6449 190.461 24.1818C190.461 24.7254 190.544 25.2192 190.71 25.6634C190.879 26.1042 191.128 26.4555 191.456 26.7173C191.787 26.9759 192.198 27.1051 192.689 27.1051ZM201.543 28.1591C200.807 28.1591 200.173 27.9967 199.639 27.6719C199.109 27.3438 198.699 26.8864 198.411 26.2997C198.126 25.7098 197.983 25.0237 197.983 24.2415C197.983 23.4593 198.126 22.7699 198.411 22.1733C198.699 21.5734 199.1 21.1061 199.614 20.7713C200.131 20.4332 200.734 20.2642 201.424 20.2642C201.822 20.2642 202.214 20.3305 202.602 20.4631C202.99 20.5956 203.343 20.8111 203.661 21.1094C203.979 21.4044 204.233 21.7955 204.422 22.2827C204.611 22.7699 204.705 23.3698 204.705 24.0824V24.5795H198.819V23.5653H203.512C203.512 23.1345 203.426 22.75 203.253 22.4119C203.084 22.0739 202.842 21.8071 202.528 21.6115C202.216 21.416 201.848 21.3182 201.424 21.3182C200.956 21.3182 200.552 21.4342 200.211 21.6662C199.873 21.8949 199.613 22.1932 199.43 22.5611C199.248 22.929 199.157 23.3234 199.157 23.7443V24.4205C199.157 24.9972 199.256 25.486 199.455 25.8871C199.657 26.2848 199.937 26.5881 200.295 26.7969C200.653 27.0024 201.069 27.1051 201.543 27.1051C201.851 27.1051 202.13 27.062 202.378 26.9759C202.63 26.8864 202.847 26.7538 203.03 26.5781C203.212 26.3991 203.353 26.1771 203.452 25.9119L204.586 26.2301C204.466 26.6146 204.266 26.9527 203.984 27.2443C203.702 27.5327 203.354 27.758 202.94 27.9205C202.526 28.0795 202.06 28.1591 201.543 28.1591ZM207.663 17.8182V28H206.49V17.8182H207.663ZM213.014 28.1591C212.278 28.1591 211.643 27.9967 211.11 27.6719C210.579 27.3438 210.17 26.8864 209.882 26.2997C209.597 25.7098 209.454 25.0237 209.454 24.2415C209.454 23.4593 209.597 22.7699 209.882 22.1733C210.17 21.5734 210.571 21.1061 211.085 20.7713C211.602 20.4332 212.205 20.2642 212.895 20.2642C213.292 20.2642 213.685 20.3305 214.073 20.4631C214.461 20.5956 214.814 20.8111 215.132 21.1094C215.45 21.4044 215.703 21.7955 215.892 22.2827C216.081 22.7699 216.176 23.3698 216.176 24.0824V24.5795H210.289V23.5653H214.983C214.983 23.1345 214.896 22.75 214.724 22.4119C214.555 22.0739 214.313 21.8071 213.998 21.6115C213.687 21.416 213.319 21.3182 212.895 21.3182C212.427 21.3182 212.023 21.4342 211.681 21.6662C211.343 21.8949 211.083 22.1932 210.901 22.5611C210.719 22.929 210.627 23.3234 210.627 23.7443V24.4205C210.627 24.9972 210.727 25.486 210.926 25.8871C211.128 26.2848 211.408 26.5881 211.766 26.7969C212.124 27.0024 212.54 27.1051 213.014 27.1051C213.322 27.1051 213.6 27.062 213.849 26.9759C214.101 26.8864 214.318 26.7538 214.5 26.5781C214.683 26.3991 214.824 26.1771 214.923 25.9119L216.056 26.2301C215.937 26.6146 215.737 26.9527 215.455 27.2443C215.173 27.5327 214.825 27.758 214.411 27.9205C213.997 28.0795 213.531 28.1591 213.014 28.1591ZM221.282 20.3636V21.358H217.324V20.3636H221.282ZM218.478 18.5341H219.651V25.8125C219.651 26.1439 219.699 26.3925 219.795 26.5582C219.895 26.7206 220.02 26.83 220.173 26.8864C220.329 26.9394 220.493 26.9659 220.665 26.9659C220.794 26.9659 220.9 26.9593 220.983 26.946C221.066 26.9295 221.132 26.9162 221.182 26.9062L221.421 27.9602C221.341 27.9901 221.23 28.0199 221.088 28.0497C220.945 28.0829 220.765 28.0994 220.546 28.0994C220.214 28.0994 219.89 28.0282 219.571 27.8857C219.257 27.7431 218.995 27.526 218.786 27.2344C218.58 26.9427 218.478 26.5748 218.478 26.1307V18.5341ZM226.166 28.1591C225.43 28.1591 224.796 27.9967 224.262 27.6719C223.732 27.3438 223.322 26.8864 223.034 26.2997C222.749 25.7098 222.607 25.0237 222.607 24.2415C222.607 23.4593 222.749 22.7699 223.034 22.1733C223.322 21.5734 223.723 21.1061 224.237 20.7713C224.754 20.4332 225.357 20.2642 226.047 20.2642C226.445 20.2642 226.837 20.3305 227.225 20.4631C227.613 20.5956 227.966 20.8111 228.284 21.1094C228.602 21.4044 228.856 21.7955 229.045 22.2827C229.234 22.7699 229.328 23.3698 229.328 24.0824V24.5795H223.442V23.5653H228.135C228.135 23.1345 228.049 22.75 227.876 22.4119C227.707 22.0739 227.465 21.8071 227.151 21.6115C226.839 21.416 226.471 21.3182 226.047 21.3182C225.58 21.3182 225.175 21.4342 224.834 21.6662C224.496 21.8949 224.236 22.1932 224.053 22.5611C223.871 22.929 223.78 23.3234 223.78 23.7443V24.4205C223.78 24.9972 223.879 25.486 224.078 25.8871C224.28 26.2848 224.56 26.5881 224.918 26.7969C225.276 27.0024 225.692 27.1051 226.166 27.1051C226.474 27.1051 226.753 27.062 227.001 26.9759C227.253 26.8864 227.47 26.7538 227.653 26.5781C227.835 26.3991 227.976 26.1771 228.075 25.9119L229.209 26.2301C229.089 26.6146 228.889 26.9527 228.607 27.2443C228.326 27.5327 227.978 27.758 227.563 27.9205C227.149 28.0795 226.683 28.1591 226.166 28.1591ZM233.996 28.1591C233.36 28.1591 232.798 27.9983 232.311 27.6768C231.824 27.352 231.443 26.8946 231.168 26.3047C230.893 25.7114 230.755 25.0104 230.755 24.2017C230.755 23.3996 230.893 22.7036 231.168 22.1136C231.443 21.5237 231.826 21.0679 232.316 20.7464C232.807 20.425 233.373 20.2642 234.016 20.2642C234.513 20.2642 234.906 20.3471 235.195 20.5128C235.486 20.6752 235.708 20.8608 235.861 21.0696C236.017 21.2751 236.138 21.4441 236.224 21.5767H236.323V17.8182H237.496V28H236.363V26.8267H236.224C236.138 26.9659 236.015 27.1416 235.856 27.3537C235.697 27.5625 235.47 27.7498 235.175 27.9155C234.88 28.0779 234.487 28.1591 233.996 28.1591ZM234.156 27.1051C234.626 27.1051 235.024 26.9825 235.349 26.7372C235.674 26.4886 235.92 26.1456 236.089 25.7081C236.259 25.2673 236.343 24.7585 236.343 24.1818C236.343 23.6117 236.26 23.1129 236.094 22.6854C235.929 22.2545 235.683 21.9197 235.359 21.6811C235.034 21.4392 234.633 21.3182 234.156 21.3182C233.658 21.3182 233.244 21.4458 232.913 21.701C232.585 21.9529 232.338 22.2959 232.172 22.7301C232.009 23.161 231.928 23.6449 231.928 24.1818C231.928 24.7254 232.011 25.2192 232.177 25.6634C232.346 26.1042 232.594 26.4555 232.923 26.7173C233.254 26.9759 233.665 27.1051 234.156 27.1051Z" fill="#333333"/>
<rect x="0.5" y="0.5" width="279" height="45" rx="3.5" stroke="white"/>
</svg>
