<svg width="282" height="92" fill="none" xmlns="http://www.w3.org/2000/svg"><rect x=".5" y="1" width="281" height="90" rx="3.5" fill="#F3F8FF"/><g clip-path="url(#a)" fill="#102DA3"><path d="M23.67 27.79a.62.62 0 0 1-.62-.62v-2c0-.35.28-.62.62-.62.34 0 .62.28.62.62v2c0 .35-.28.62-.62.62Zm0-4a.6.6 0 0 1-.24-.05.57.57 0 0 1-.21-.13.86.86 0 0 1-.13-.2.69.69 0 0 1-.05-.24.64.64 0 0 1 .39-.58.66.66 0 0 1 .48 0c.07.03.14.08.2.14.06.05.1.12.13.2a.5.5 0 0 1 .05.24c0 .16-.06.32-.18.44a.67.67 0 0 1-.44.18Z"/><path d="M23.67 32.46a7.3 7.3 0 1 1 .02-14.6 7.3 7.3 0 0 1-.02 14.6Zm0-13.34a6.05 6.05 0 1 0 0 12.09 6.05 6.05 0 0 0 0-12.09Z"/></g><path d="M46.8 20.86c-.06-.5-.3-.9-.72-1.17a2.78 2.78 0 0 0-1.57-.42c-.45 0-.84.08-1.18.22-.33.15-.6.35-.78.6a1.44 1.44 0 0 0-.09 1.57c.13.2.3.36.5.49a5.58 5.58 0 0 0 1.28.5l1.03.28a9 9 0 0 1 .88.29c.33.12.65.29.94.5.3.21.55.48.75.8a2.68 2.68 0 0 1-.14 2.71c-.28.44-.7.8-1.25 1.06s-1.21.39-2 .39c-.72 0-1.36-.12-1.89-.35a2.8 2.8 0 0 1-1.76-2.45h1.27c.03.38.16.7.39.95.22.25.51.43.86.56.35.12.73.18 1.13.18.48 0 .9-.08 1.27-.23.38-.16.67-.37.9-.65.21-.28.32-.6.32-.97 0-.34-.1-.62-.28-.83a2.08 2.08 0 0 0-.75-.52 6.5 6.5 0 0 0-1-.34l-1.25-.36a4.66 4.66 0 0 1-1.89-.98c-.46-.43-.7-.98-.7-1.67 0-.57.16-1.06.47-1.49.3-.43.73-.76 1.25-1a4.23 4.23 0 0 1 1.76-.35c.66 0 1.24.12 1.75.35.51.23.92.55 1.22.96.3.4.46.86.47 1.37H46.8Zm6.52 0v1h-3.95v-1h3.95Zm-2.8-1.83h1.17v7.28c0 .33.05.58.15.75.1.16.22.27.37.33.16.05.32.08.5.08a2.07 2.07 0 0 0 .51-.06l.24 1.05a2.37 2.37 0 0 1-.87.14c-.33 0-.66-.07-.98-.21a1.94 1.94 0 0 1-.78-.66 1.9 1.9 0 0 1-.31-1.1v-7.6Zm6.81 9.65c-.48 0-.92-.1-1.31-.27a2.3 2.3 0 0 1-.94-.8 2.26 2.26 0 0 1-.35-1.28c0-.44.09-.79.26-1.06.17-.28.4-.5.69-.65.29-.15.6-.27.95-.35.35-.08.7-.14 1.06-.18a48 48 0 0 1 1.13-.14c.3-.03.5-.09.64-.16.13-.08.2-.21.2-.4v-.04c0-.5-.13-.87-.4-1.14-.27-.28-.67-.41-1.2-.41-.57 0-1 .12-1.33.37-.31.24-.54.5-.67.78l-1.11-.4a2.67 2.67 0 0 1 1.89-1.63 4.54 4.54 0 0 1 2.02-.07c.32.06.63.18.93.36.3.18.55.45.75.8.2.37.3.85.3 1.46v5.03h-1.18v-1.03h-.06a2.3 2.3 0 0 1-1.14 1.01c-.3.13-.68.2-1.13.2Zm.18-1.05c.47 0 .86-.1 1.18-.28a1.86 1.86 0 0 0 .97-1.61v-1.08c-.05.06-.16.12-.33.17a5.55 5.55 0 0 1-1.2.21l-.5.06c-.3.04-.59.1-.85.2-.26.08-.48.21-.64.39a1 1 0 0 0-.24.7c0 .41.15.72.46.93.3.2.69.3 1.15.3Zm5.47.87v-7.64h1.13v1.16h.08c.14-.38.39-.69.75-.92.37-.24.78-.36 1.24-.36a13.1 13.1 0 0 1 .61.02v1.2a3.45 3.45 0 0 0-.71-.08c-.37 0-.7.08-1 .23a1.71 1.71 0 0 0-.93 1.56v4.83h-1.17Zm9-7.64v1h-3.95v-1h3.95Zm-2.8-1.83h1.17v7.28c0 .33.05.58.15.75.1.16.22.27.38.33.15.05.32.08.49.08a2.07 2.07 0 0 0 .52-.06l.23 1.05a2.37 2.37 0 0 1-.87.14c-.33 0-.66-.07-.98-.21a1.94 1.94 0 0 1-.78-.66 1.9 1.9 0 0 1-.3-1.1v-7.6Zm10.75 9.65c-.48 0-.92-.1-1.31-.27a2.3 2.3 0 0 1-.94-.8 2.26 2.26 0 0 1-.35-1.28c0-.44.09-.79.26-1.06.17-.28.4-.5.69-.65.29-.15.6-.27.95-.35.35-.08.7-.14 1.06-.18l1.13-.14c.3-.03.5-.09.64-.16.13-.08.2-.21.2-.4v-.04c0-.5-.13-.87-.4-1.14-.27-.28-.67-.41-1.21-.41a2.1 2.1 0 0 0-1.99 1.15l-1.11-.4a2.67 2.67 0 0 1 1.89-1.63 4.54 4.54 0 0 1 2.02-.07c.32.06.63.18.93.36.3.18.55.45.75.8.2.37.3.85.3 1.46v5.03h-1.18v-1.03h-.06a2.3 2.3 0 0 1-1.14 1.01c-.3.13-.68.2-1.13.2Zm.18-1.05c.47 0 .86-.1 1.18-.28a1.86 1.86 0 0 0 .97-1.61v-1.08c-.05.06-.16.12-.33.17a5.55 5.55 0 0 1-1.2.21l-.5.06c-.3.04-.59.1-.85.2-.26.08-.48.21-.64.39a1 1 0 0 0-.24.7c0 .41.15.72.45.93.31.2.7.3 1.16.3Zm9.4.87v-7.64h1.14v1.2h.1c.16-.41.41-.73.77-.95a2.3 2.3 0 0 1 1.27-.35c.5 0 .93.12 1.26.35.34.22.6.54.8.95h.07c.2-.4.5-.71.88-.94.4-.24.86-.36 1.4-.36.7 0 1.25.22 1.68.65.44.42.66 1.08.66 1.98v5.11h-1.18v-5.11c0-.56-.15-.97-.46-1.2-.3-.25-.67-.37-1.09-.37-.54 0-.95.16-1.25.49-.3.32-.44.72-.44 1.22v4.97h-1.2v-5.23c0-.43-.13-.78-.41-1.05-.29-.27-.65-.4-1.1-.4-.3 0-.58.08-.85.24a1.8 1.8 0 0 0-.63.68 2 2 0 0 0-.24.99v4.77H89.5Zm15.27.16a3.2 3.2 0 0 1-1.81-.5 3.35 3.35 0 0 1-1.21-1.37 4.66 4.66 0 0 1-.44-2.07c0-.8.15-1.49.44-2.08.29-.6.7-1.06 1.2-1.38.53-.33 1.13-.5 1.82-.5a3.28 3.28 0 0 1 3.02 1.87c.3.6.44 1.3.44 2.1a4.6 4.6 0 0 1-.43 2.06 3.3 3.3 0 0 1-1.22 1.38 3.3 3.3 0 0 1-1.8.49Zm0-1.05c.53 0 .96-.14 1.3-.4.33-.28.58-.63.75-1.07a4.25 4.25 0 0 0 0-2.85c-.17-.44-.42-.8-.75-1.06a2 2 0 0 0-1.3-.41 2 2 0 0 0-1.29.4c-.34.28-.59.63-.75 1.07a4.1 4.1 0 0 0-.24 1.43c0 .51.08.99.24 1.42.16.44.41.8.75 1.06.34.27.77.4 1.3.4Zm8.36 1.05a3.3 3.3 0 0 1-1.85-.5 3.41 3.41 0 0 1-1.2-1.4 4.74 4.74 0 0 1-.41-2.04c0-.77.14-1.46.42-2.05.3-.6.7-1.06 1.2-1.4.53-.34 1.13-.5 1.82-.5.53 0 1.02.1 1.45.3a2.6 2.6 0 0 1 1.57 2.09h-1.17a1.79 1.79 0 0 0-1.83-1.33 1.9 1.9 0 0 0-1.2.35c-.35.23-.61.56-.8 1a3.7 3.7 0 0 0-.29 1.5c0 .6.1 1.1.28 1.54.19.44.45.78.8 1.02.34.24.74.37 1.2.37.31 0 .59-.06.84-.16a1.72 1.72 0 0 0 1-1.18h1.17a2.71 2.71 0 0 1-1.52 2.08c-.43.2-.92.3-1.48.3Zm5.8-2.94-.01-1.46h.24l3.34-3.4h1.45l-3.56 3.6h-.1l-1.35 1.26Zm-1.08 2.78V18.32h1.17V28.5h-1.17Zm4.85 0-2.99-3.78.84-.81 3.64 4.59h-1.5Zm10.02-7.64v1h-3.96v-1h3.96Zm-2.8-1.83h1.17v7.28c0 .33.05.58.14.75.1.16.23.27.38.33.16.05.32.08.5.08l.31-.02.2-.04.24 1.05a2.37 2.37 0 0 1-.88.14c-.33 0-.65-.07-.97-.21a1.94 1.94 0 0 1-.79-.66 1.9 1.9 0 0 1-.3-1.1v-7.6Zm7.68 9.63a3.6 3.6 0 0 1-1.9-.49 3.28 3.28 0 0 1-1.23-1.37 4.68 4.68 0 0 1-.43-2.06c0-.78.15-1.47.43-2.07.29-.6.7-1.06 1.2-1.4a3.61 3.61 0 0 1 2.99-.3 2.92 2.92 0 0 1 1.82 1.81 5 5 0 0 1 .28 1.8v.5h-5.88v-1.01h4.7c0-.44-.1-.82-.27-1.16a1.95 1.95 0 0 0-1.83-1.1 2 2 0 0 0-1.2.36c-.35.22-.6.52-.79.9-.18.36-.27.75-.27 1.17v.68c0 .58.1 1.07.3 1.47.2.4.48.7.84.9.35.21.77.32 1.24.32.31 0 .59-.05.84-.13.25-.1.47-.23.65-.4.18-.18.32-.4.42-.67l1.14.32c-.12.38-.32.72-.6 1.01-.29.3-.63.52-1.05.68-.41.16-.88.24-1.4.24Zm10.36-6.09-1.06.3a1.95 1.95 0 0 0-.29-.51c-.12-.17-.3-.3-.52-.42a2 2 0 0 0-.84-.16 2 2 0 0 0-1.16.32c-.31.21-.47.48-.47.81 0 .3.11.52.32.7.21.16.55.3 1 .42l1.13.27c.68.17 1.2.42 1.53.76.33.34.5.78.5 1.31 0 .44-.13.83-.38 1.18-.25.34-.6.61-1.04.81-.45.2-.97.3-1.56.3-.78 0-1.43-.17-1.94-.5a2.25 2.25 0 0 1-.97-1.49l1.12-.28c.1.41.3.72.6.93.3.2.69.3 1.17.3.54 0 .98-.11 1.3-.34.32-.24.49-.52.49-.85a.9.9 0 0 0-.28-.66 1.78 1.78 0 0 0-.86-.41l-1.27-.3a3.04 3.04 0 0 1-1.54-.77c-.33-.35-.49-.8-.49-1.32 0-.43.12-.81.36-1.14.25-.33.58-.6 1-.78.43-.2.9-.29 1.44-.29.76 0 1.35.17 1.78.5.44.33.75.77.93 1.31Zm5.23-1.7v.99h-3.96v-1h3.96Zm-2.8-1.84h1.16v7.28c0 .33.05.58.15.75.1.16.22.27.38.33.15.05.32.08.49.08l.32-.02.2-.04.24 1.05a2.41 2.41 0 0 1-.88.14c-.33 0-.66-.07-.97-.21a1.94 1.94 0 0 1-.79-.66 1.9 1.9 0 0 1-.3-1.1v-7.6Z" fill="#333"/><rect x="40" y="47.5" width="156" height="32" rx="4" fill="#0F67F5"/><path d="M65.16 68V57.82H67v8.63h4.49V68h-6.33Zm11.18.15a3.7 3.7 0 0 1-1.94-.5 3.34 3.34 0 0 1-1.27-1.37 4.53 4.53 0 0 1-.45-2.07c0-.79.15-1.48.45-2.07.3-.6.72-1.06 1.27-1.38a3.7 3.7 0 0 1 1.94-.5c.74 0 1.4.17 1.94.5.54.32.97.79 1.27 1.38.3.6.45 1.28.45 2.07 0 .8-.15 1.48-.45 2.07a3.39 3.39 0 0 1-3.21 1.87Zm0-1.44c.41 0 .75-.11 1.02-.34a2 2 0 0 0 .6-.9c.15-.38.21-.8.21-1.26 0-.47-.06-.9-.2-1.27a2 2 0 0 0-.6-.91 1.54 1.54 0 0 0-1.02-.34c-.42 0-.76.11-1.04.34-.27.22-.47.53-.6.9-.14.39-.2.8-.2 1.28 0 .46.06.88.2 1.26.13.38.33.68.6.9.28.23.62.34 1.04.34Zm8.5 4.31a4.7 4.7 0 0 1-1.66-.26c-.46-.17-.84-.4-1.12-.7a2.27 2.27 0 0 1-.58-.97l1.62-.39a1.56 1.56 0 0 0 .88.81c.23.1.53.15.9.15.5 0 .93-.12 1.26-.37.34-.25.5-.65.5-1.22v-1.44h-.08c-.1.18-.23.37-.41.57-.18.2-.41.36-.7.5a3.14 3.14 0 0 1-2.68-.21c-.48-.29-.86-.7-1.14-1.25a4.6 4.6 0 0 1-.42-2.08c0-.84.14-1.55.42-2.13a2.93 2.93 0 0 1 3.84-1.54 2.29 2.29 0 0 1 1.09 1.14h.1v-1.27h1.77v7.76c0 .66-.15 1.2-.47 1.63a2.8 2.8 0 0 1-1.27.95 5 5 0 0 1-1.84.32Zm.02-4.54c.38 0 .7-.1.98-.28.26-.19.47-.45.6-.8.15-.35.22-.77.22-1.25s-.07-.9-.21-1.27a1.8 1.8 0 0 0-.6-.84c-.27-.2-.6-.3-.99-.3-.4 0-.73.1-1 .31s-.47.5-.61.86c-.14.37-.2.78-.2 1.24 0 .46.06.87.2 1.22s.34.62.61.82c.27.2.6.29 1 .29ZM93.75 68v-7.64h1.8V68h-1.8Zm.9-8.72c-.28 0-.53-.1-.73-.28a.91.91 0 0 1-.31-.7c0-.27.1-.5.3-.69.21-.19.46-.28.74-.28.3 0 .54.1.74.28.2.2.3.42.3.7 0 .26-.1.5-.3.69-.2.19-.45.28-.74.28Zm4.55 4.25V68h-1.8v-7.64h1.72v1.3h.09c.17-.43.45-.77.84-1.02.39-.25.87-.38 1.44-.38.52 0 .98.12 1.37.34.4.23.7.55.92.98.22.43.32.95.32 1.56V68h-1.8v-4.58c0-.51-.13-.91-.4-1.2a1.4 1.4 0 0 0-1.09-.43c-.31 0-.6.07-.84.2a1.5 1.5 0 0 0-.57.6 2 2 0 0 0-.2.94Zm12.4 4.62c-.48 0-.92-.08-1.3-.25a2.14 2.14 0 0 1-.92-.78 2.27 2.27 0 0 1-.34-1.26c0-.43.08-.79.24-1.07.16-.28.38-.5.65-.68.28-.17.59-.3.93-.38.35-.09.71-.15 1.08-.2l1.1-.12c.27-.04.47-.1.6-.18.13-.08.2-.2.2-.38v-.03c0-.37-.12-.66-.34-.87-.22-.2-.54-.3-.96-.3-.44 0-.8.09-1.05.28-.25.2-.43.42-.52.68l-1.68-.24a2.68 2.68 0 0 1 1.78-1.87 4.76 4.76 0 0 1 2.56-.1c.36.08.7.22 1 .42.3.2.54.46.72.8.19.34.28.76.28 1.27V68h-1.73v-1.05h-.06a2.2 2.2 0 0 1-1.2 1.04c-.3.1-.64.16-1.04.16Zm.47-1.32a2 2 0 0 0 .94-.21c.26-.15.47-.34.6-.58.15-.24.23-.5.23-.78v-.9a.85.85 0 0 1-.3.13 14.09 14.09 0 0 1-1.36.24c-.26.04-.5.1-.71.18-.22.09-.38.2-.5.35a.85.85 0 0 0-.2.57c0 .33.13.58.37.75.24.17.55.25.93.25Zm11.4-4.45-1.63.18a1.31 1.31 0 0 0-.7-.82 1.7 1.7 0 0 0-.71-.13c-.38 0-.69.08-.95.24-.25.16-.37.37-.37.63 0 .22.08.4.25.54.16.14.44.26.83.35l1.3.27c.73.16 1.26.4 1.61.75.36.33.54.78.54 1.32 0 .48-.14.9-.42 1.28-.28.36-.66.65-1.15.85-.5.2-1.05.3-1.69.3-.94 0-1.69-.19-2.26-.58a2.4 2.4 0 0 1-1.02-1.64l1.76-.17c.08.34.25.6.5.78.26.17.6.26 1.02.26.42 0 .77-.09 1.02-.26.27-.18.4-.4.4-.65 0-.22-.09-.4-.26-.54a1.77 1.77 0 0 0-.77-.33l-1.3-.28a3.1 3.1 0 0 1-1.63-.77 1.9 1.9 0 0 1-.52-1.38c0-.47.12-.88.38-1.22a2.5 2.5 0 0 1 1.09-.8c.47-.2 1-.3 1.61-.3.9 0 1.6.2 2.12.58.51.38.83.9.96 1.54Zm5.13 8.48v-10.5h1.77v1.27h.1c.1-.19.23-.39.4-.6.16-.2.4-.39.68-.54a2.91 2.91 0 0 1 3.83 1.55c.29.59.43 1.3.43 2.15 0 .84-.14 1.55-.42 2.14a2.89 2.89 0 0 1-2.74 1.8c-.43 0-.8-.07-1.08-.21a2.2 2.2 0 0 1-.7-.53 3.3 3.3 0 0 1-.4-.6h-.07v4.07h-1.8Zm1.76-6.68c0 .5.07.93.21 1.3.14.37.35.66.61.87.27.2.6.3.98.3.4 0 .73-.1 1-.31.27-.22.47-.5.6-.88.14-.38.21-.8.21-1.28 0-.47-.07-.9-.2-1.26a1.9 1.9 0 0 0-.6-.87c-.28-.2-.61-.3-1.01-.3-.39 0-.71.1-.98.3-.27.2-.47.48-.61.84-.14.37-.2.8-.2 1.3Zm9.18 3.97a3.2 3.2 0 0 1-1.3-.25 2.13 2.13 0 0 1-.92-.78 2.27 2.27 0 0 1-.33-1.26c0-.43.08-.79.24-1.07.16-.28.37-.5.65-.68.28-.17.59-.3.93-.38.35-.09.7-.15 1.08-.2l1.09-.12c.28-.04.48-.1.6-.18.13-.08.2-.2.2-.38v-.03c0-.37-.11-.66-.34-.87-.22-.2-.54-.3-.95-.3-.45 0-.8.09-1.05.28-.26.2-.43.42-.52.68l-1.68-.24A2.7 2.7 0 0 1 139 60.5a4.75 4.75 0 0 1 2.56-.1c.37.08.7.22 1 .42.3.2.55.46.73.8.18.34.28.76.28 1.27V68h-1.73v-1.05h-.06a2.19 2.19 0 0 1-1.2 1.04c-.3.1-.65.16-1.05.16Zm.47-1.32c.36 0 .68-.07.94-.21a1.55 1.55 0 0 0 .83-1.36v-.9a.84.84 0 0 1-.29.13 13.36 13.36 0 0 1-1.36.24c-.27.04-.5.1-.72.18-.21.09-.38.2-.5.35a.85.85 0 0 0-.19.57c0 .33.13.58.37.75.24.17.55.25.92.25ZM145.4 68v-7.64h1.74v1.28h.08a1.9 1.9 0 0 1 1.88-1.39 4.15 4.15 0 0 1 .65.05v1.66a3.35 3.35 0 0 0-.83-.1c-.33 0-.63.07-.89.2a1.56 1.56 0 0 0-.83 1.45V68h-1.8Zm8.61.15c-.76 0-1.42-.16-1.98-.48a3.23 3.23 0 0 1-1.28-1.36 4.57 4.57 0 0 1-.45-2.08c0-.79.15-1.48.45-2.07a3.39 3.39 0 0 1 3.17-1.9c.47 0 .91.08 1.33.23.42.15.8.38 1.11.7.33.31.59.71.77 1.2.19.49.28 1.06.28 1.73v.55h-6.26v-1.2h4.53c0-.35-.07-.66-.22-.93a1.62 1.62 0 0 0-.61-.64 1.72 1.72 0 0 0-.9-.23 1.8 1.8 0 0 0-1.63.96 2 2 0 0 0-.23.94v1.06c0 .44.08.82.24 1.14.17.32.4.56.68.73.3.16.64.25 1.03.25.26 0 .5-.04.7-.11.22-.08.4-.19.56-.34.16-.14.28-.32.35-.54l1.69.2a2.7 2.7 0 0 1-1.74 1.92c-.47.18-1 .27-1.59.27Zm6.72-4.62V68h-1.8v-7.64h1.72v1.3h.1c.17-.43.45-.77.83-1.02.39-.25.87-.38 1.44-.38.53 0 .98.12 1.38.34.39.23.7.55.91.98.22.43.33.95.32 1.56V68h-1.8v-4.58c0-.51-.13-.91-.4-1.2a1.4 1.4 0 0 0-1.08-.43c-.32 0-.6.07-.84.2-.25.14-.44.34-.57.6a2 2 0 0 0-.2.94Zm10.55-3.17v1.4h-4.4v-1.4h4.4Zm-3.31-1.83h1.8v7.17c0 .25.04.43.1.56.08.13.18.21.3.26.13.04.27.07.41.07a1.74 1.74 0 0 0 .53-.07l.3 1.4a3.98 3.98 0 0 1-1.05.18c-.45.02-.86-.05-1.22-.2a1.9 1.9 0 0 1-.86-.7 2.14 2.14 0 0 1-.31-1.2v-7.47Z" fill="#fff"/><rect x=".5" y="1" width="281" height="90" rx="3.5" stroke="#fff"/><defs><clipPath id="a"><path fill="#fff" transform="translate(16 17.5)" d="M0 0h16v16H0z"/></clipPath></defs></svg>