<svg width="274" height="90" viewBox="0 0 274 90" fill="none" xmlns="http://www.w3.org/2000/svg">
<rect x="0.5" y="1" width="273" height="88" rx="3.5" fill="#F3F8FF"/>
<g clip-path="url(#clip0_11640_104028)">
<path d="M23.6699 27.7899C23.3199 27.7899 23.0499 27.5099 23.0499 27.1699V25.1699C23.0499 24.8199 23.3299 24.5499 23.6699 24.5499C24.0099 24.5499 24.2899 24.8299 24.2899 25.1699V27.1699C24.2899 27.5199 24.0099 27.7899 23.6699 27.7899Z" fill="#102DA3"/>
<path d="M23.6699 23.7899C23.5799 23.7899 23.4999 23.7699 23.4299 23.7399C23.3499 23.7099 23.2799 23.6699 23.2199 23.6099C23.1699 23.5499 23.1199 23.4799 23.0899 23.4099C23.0599 23.3299 23.0399 23.2499 23.0399 23.1699C23.0399 23.0899 23.0599 22.9999 23.0899 22.9299C23.1199 22.8499 23.1699 22.7799 23.2199 22.7299C23.2799 22.6699 23.3499 22.6199 23.4299 22.5899C23.5799 22.5299 23.7499 22.5299 23.9099 22.5899C23.9799 22.6199 24.0499 22.6699 24.1099 22.7299C24.1699 22.7799 24.2099 22.8499 24.2399 22.9299C24.2799 22.9999 24.2899 23.0899 24.2899 23.1699C24.2899 23.3299 24.2299 23.4899 24.1099 23.6099C23.9899 23.7199 23.8299 23.7899 23.6699 23.7899Z" fill="#102DA3"/>
<path d="M23.6699 32.4599C19.6499 32.4599 16.3799 29.1899 16.3799 25.1699C16.3799 21.1499 19.6499 17.8799 23.6699 17.8799C27.6899 17.8799 30.9599 21.1499 30.9599 25.1699C30.9599 29.1899 27.6899 32.4599 23.6699 32.4599ZM23.6699 19.1199C20.3299 19.1199 17.6199 21.8399 17.6199 25.1699C17.6199 28.4999 20.3299 31.2099 23.6599 31.2099C26.9899 31.2099 29.6999 28.4999 29.6999 25.1699C29.6999 21.8399 26.9999 19.1199 23.6699 19.1199Z" fill="#102DA3"/>
</g>
<path d="M43.0824 28.5L40.2983 18.3182H41.5511L43.679 26.6108H43.7784L45.946 18.3182H47.3381L49.5057 26.6108H49.6051L51.733 18.3182H52.9858L50.2017 28.5H48.929L46.6818 20.3864H46.6023L44.3551 28.5H43.0824ZM56.8537 28.6591C56.1179 28.6591 55.4832 28.4967 54.9496 28.1719C54.4193 27.8438 54.0099 27.3864 53.7216 26.7997C53.4366 26.2098 53.294 25.5237 53.294 24.7415C53.294 23.9593 53.4366 23.2699 53.7216 22.6733C54.0099 22.0734 54.411 21.6061 54.9247 21.2713C55.4418 20.9332 56.045 20.7642 56.7344 20.7642C57.1321 20.7642 57.5249 20.8305 57.9126 20.9631C58.3004 21.0956 58.6534 21.3111 58.9716 21.6094C59.2898 21.9044 59.5433 22.2955 59.7322 22.7827C59.9212 23.2699 60.0156 23.8698 60.0156 24.5824V25.0795H54.1293V24.0653H58.8224C58.8224 23.6345 58.7363 23.25 58.5639 22.9119C58.3949 22.5739 58.1529 22.3071 57.8381 22.1115C57.5265 21.916 57.1586 21.8182 56.7344 21.8182C56.267 21.8182 55.8627 21.9342 55.5213 22.1662C55.1832 22.3949 54.9231 22.6932 54.7408 23.0611C54.5585 23.429 54.4673 23.8234 54.4673 24.2443V24.9205C54.4673 25.4972 54.5668 25.986 54.7656 26.3871C54.9678 26.7848 55.2479 27.0881 55.6058 27.2969C55.9638 27.5024 56.3797 27.6051 56.8537 27.6051C57.1619 27.6051 57.4403 27.562 57.6889 27.4759C57.9408 27.3864 58.1579 27.2538 58.3402 27.0781C58.5225 26.8991 58.6634 26.6771 58.7628 26.4119L59.8963 26.7301C59.777 27.1146 59.5765 27.4527 59.2947 27.7443C59.013 28.0327 58.665 28.258 58.2507 28.4205C57.8364 28.5795 57.3707 28.6591 56.8537 28.6591ZM65.7379 28.5V20.8636H66.8714V22.017H66.951C67.0902 21.6392 67.3421 21.3326 67.7067 21.0973C68.0713 20.862 68.4822 20.7443 68.9396 20.7443C69.0258 20.7443 69.1335 20.746 69.2628 20.7493C69.392 20.7526 69.4898 20.7576 69.5561 20.7642V21.9574C69.5163 21.9474 69.4252 21.9325 69.2827 21.9126C69.1435 21.8894 68.996 21.8778 68.8402 21.8778C68.469 21.8778 68.1375 21.9557 67.8459 22.1115C67.5575 22.264 67.3288 22.4761 67.1598 22.7479C66.9941 23.0163 66.9112 23.3229 66.9112 23.6676V28.5H65.7379ZM73.9162 28.6591C73.1804 28.6591 72.5457 28.4967 72.0121 28.1719C71.4818 27.8438 71.0724 27.3864 70.7841 26.7997C70.4991 26.2098 70.3565 25.5237 70.3565 24.7415C70.3565 23.9593 70.4991 23.2699 70.7841 22.6733C71.0724 22.0734 71.4735 21.6061 71.9872 21.2713C72.5043 20.9332 73.1075 20.7642 73.7969 20.7642C74.1946 20.7642 74.5874 20.8305 74.9751 20.9631C75.3629 21.0956 75.7159 21.3111 76.0341 21.6094C76.3523 21.9044 76.6058 22.2955 76.7947 22.7827C76.9837 23.2699 77.0781 23.8698 77.0781 24.5824V25.0795H71.1918V24.0653H75.8849C75.8849 23.6345 75.7988 23.25 75.6264 22.9119C75.4574 22.5739 75.2154 22.3071 74.9006 22.1115C74.589 21.916 74.2211 21.8182 73.7969 21.8182C73.3295 21.8182 72.9252 21.9342 72.5838 22.1662C72.2457 22.3949 71.9856 22.6932 71.8033 23.0611C71.621 23.429 71.5298 23.8234 71.5298 24.2443V24.9205C71.5298 25.4972 71.6293 25.986 71.8281 26.3871C72.0303 26.7848 72.3104 27.0881 72.6683 27.2969C73.0263 27.5024 73.4422 27.6051 73.9162 27.6051C74.2244 27.6051 74.5028 27.562 74.7514 27.4759C75.0033 27.3864 75.2204 27.2538 75.4027 27.0781C75.585 26.8991 75.7259 26.6771 75.8253 26.4119L76.9588 26.7301C76.8395 27.1146 76.639 27.4527 76.3572 27.7443C76.0755 28.0327 75.7275 28.258 75.3132 28.4205C74.8989 28.5795 74.4332 28.6591 73.9162 28.6591ZM81.9652 28.6591C81.2493 28.6591 80.6328 28.4901 80.1158 28.152C79.5987 27.8139 79.201 27.3482 78.9226 26.755C78.6442 26.1617 78.505 25.4839 78.505 24.7216C78.505 23.946 78.6475 23.2616 78.9325 22.6683C79.2209 22.0717 79.6219 21.6061 80.1357 21.2713C80.6527 20.9332 81.2559 20.7642 81.9453 20.7642C82.4822 20.7642 82.9661 20.8636 83.397 21.0625C83.8279 21.2614 84.1809 21.5398 84.456 21.8977C84.7311 22.2557 84.9018 22.6733 84.968 23.1506H83.7947C83.7053 22.8026 83.5064 22.4943 83.1982 22.2259C82.8932 21.9541 82.4822 21.8182 81.9652 21.8182C81.5078 21.8182 81.1068 21.9375 80.7621 22.1761C80.4207 22.4115 80.1539 22.7446 79.9616 23.1754C79.7727 23.603 79.6783 24.1051 79.6783 24.6818C79.6783 25.2718 79.7711 25.7855 79.9567 26.223C80.1456 26.6605 80.4107 27.0002 80.7521 27.2422C81.0968 27.4841 81.5012 27.6051 81.9652 27.6051C82.2701 27.6051 82.5469 27.5521 82.7955 27.446C83.044 27.34 83.2545 27.1875 83.4268 26.9886C83.5992 26.7898 83.7218 26.5511 83.7947 26.2727H84.968C84.9018 26.7235 84.7377 27.1295 84.4759 27.4908C84.2173 27.8487 83.8743 28.1338 83.4467 28.3459C83.0225 28.5547 82.5286 28.6591 81.9652 28.6591ZM89.7855 28.6591C89.0961 28.6591 88.4912 28.495 87.9709 28.1669C87.4538 27.8388 87.0495 27.3797 86.7578 26.7898C86.4695 26.1998 86.3253 25.5104 86.3253 24.7216C86.3253 23.9261 86.4695 23.2318 86.7578 22.6385C87.0495 22.0452 87.4538 21.5845 87.9709 21.2564C88.4912 20.9283 89.0961 20.7642 89.7855 20.7642C90.4749 20.7642 91.0781 20.9283 91.5952 21.2564C92.1155 21.5845 92.5199 22.0452 92.8082 22.6385C93.0999 23.2318 93.2457 23.9261 93.2457 24.7216C93.2457 25.5104 93.0999 26.1998 92.8082 26.7898C92.5199 27.3797 92.1155 27.8388 91.5952 28.1669C91.0781 28.495 90.4749 28.6591 89.7855 28.6591ZM89.7855 27.6051C90.3092 27.6051 90.7401 27.4709 91.0781 27.2024C91.4162 26.9339 91.6664 26.581 91.8288 26.1435C91.9912 25.706 92.0724 25.232 92.0724 24.7216C92.0724 24.2112 91.9912 23.7356 91.8288 23.2947C91.6664 22.8539 91.4162 22.4976 91.0781 22.2259C90.7401 21.9541 90.3092 21.8182 89.7855 21.8182C89.2618 21.8182 88.831 21.9541 88.4929 22.2259C88.1548 22.4976 87.9046 22.8539 87.7422 23.2947C87.5798 23.7356 87.4986 24.2112 87.4986 24.7216C87.4986 25.232 87.5798 25.706 87.7422 26.1435C87.9046 26.581 88.1548 26.9339 88.4929 27.2024C88.831 27.4709 89.2618 27.6051 89.7855 27.6051ZM95.0368 28.5V20.8636H96.1703V22.0568H96.2697C96.4288 21.6491 96.6857 21.3326 97.0403 21.1072C97.3949 20.8786 97.8208 20.7642 98.318 20.7642C98.8218 20.7642 99.2411 20.8786 99.5758 21.1072C99.9139 21.3326 100.177 21.6491 100.366 22.0568H100.446C100.641 21.6624 100.935 21.3492 101.326 21.1172C101.717 20.8819 102.186 20.7642 102.733 20.7642C103.416 20.7642 103.974 20.978 104.408 21.4055C104.842 21.8298 105.059 22.491 105.059 23.3892V28.5H103.886V23.3892C103.886 22.8258 103.732 22.4231 103.424 22.1811C103.116 21.9392 102.753 21.8182 102.335 21.8182C101.798 21.8182 101.382 21.9806 101.087 22.3054C100.792 22.6269 100.645 23.0346 100.645 23.5284V28.5H99.4515V23.2699C99.4515 22.8357 99.3107 22.486 99.0289 22.2209C98.7472 21.9524 98.3843 21.8182 97.9402 21.8182C97.6352 21.8182 97.3502 21.8994 97.085 22.0618C96.8232 22.2242 96.6111 22.4496 96.4487 22.7379C96.2896 23.023 96.21 23.3527 96.21 23.7273V28.5H95.0368ZM107.205 28.5V20.8636H108.338V22.0568H108.438C108.597 21.6491 108.854 21.3326 109.208 21.1072C109.563 20.8786 109.989 20.7642 110.486 20.7642C110.99 20.7642 111.409 20.8786 111.744 21.1072C112.082 21.3326 112.345 21.6491 112.534 22.0568H112.614C112.809 21.6624 113.103 21.3492 113.494 21.1172C113.885 20.8819 114.354 20.7642 114.901 20.7642C115.584 20.7642 116.142 20.978 116.576 21.4055C117.01 21.8298 117.227 22.491 117.227 23.3892V28.5H116.054V23.3892C116.054 22.8258 115.9 22.4231 115.592 22.1811C115.284 21.9392 114.921 21.8182 114.503 21.8182C113.966 21.8182 113.55 21.9806 113.255 22.3054C112.96 22.6269 112.813 23.0346 112.813 23.5284V28.5H111.619V23.2699C111.619 22.8357 111.479 22.486 111.197 22.2209C110.915 21.9524 110.552 21.8182 110.108 21.8182C109.803 21.8182 109.518 21.8994 109.253 22.0618C108.991 22.2242 108.779 22.4496 108.617 22.7379C108.458 23.023 108.378 23.3527 108.378 23.7273V28.5H107.205ZM122.574 28.6591C121.839 28.6591 121.204 28.4967 120.67 28.1719C120.14 27.8438 119.731 27.3864 119.442 26.7997C119.157 26.2098 119.015 25.5237 119.015 24.7415C119.015 23.9593 119.157 23.2699 119.442 22.6733C119.731 22.0734 120.132 21.6061 120.645 21.2713C121.162 20.9332 121.766 20.7642 122.455 20.7642C122.853 20.7642 123.246 20.8305 123.633 20.9631C124.021 21.0956 124.374 21.3111 124.692 21.6094C125.01 21.9044 125.264 22.2955 125.453 22.7827C125.642 23.2699 125.736 23.8698 125.736 24.5824V25.0795H119.85V24.0653H124.543C124.543 23.6345 124.457 23.25 124.285 22.9119C124.116 22.5739 123.874 22.3071 123.559 22.1115C123.247 21.916 122.879 21.8182 122.455 21.8182C121.988 21.8182 121.583 21.9342 121.242 22.1662C120.904 22.3949 120.644 22.6932 120.461 23.0611C120.279 23.429 120.188 23.8234 120.188 24.2443V24.9205C120.188 25.4972 120.287 25.986 120.486 26.3871C120.689 26.7848 120.969 27.0881 121.327 27.2969C121.684 27.5024 122.1 27.6051 122.574 27.6051C122.883 27.6051 123.161 27.562 123.41 27.4759C123.662 27.3864 123.879 27.2538 124.061 27.0781C124.243 26.8991 124.384 26.6771 124.483 26.4119L125.617 26.7301C125.498 27.1146 125.297 27.4527 125.015 27.7443C124.734 28.0327 124.386 28.258 123.971 28.4205C123.557 28.5795 123.091 28.6591 122.574 28.6591ZM128.694 23.9062V28.5H127.521V20.8636H128.655V22.0568H128.754C128.933 21.669 129.205 21.3575 129.569 21.1222C129.934 20.8835 130.405 20.7642 130.981 20.7642C131.498 20.7642 131.951 20.8703 132.339 21.0824C132.726 21.2912 133.028 21.6094 133.243 22.0369C133.459 22.4612 133.567 22.9981 133.567 23.6477V28.5H132.393V23.7273C132.393 23.1274 132.238 22.66 131.926 22.3253C131.614 21.9872 131.187 21.8182 130.643 21.8182C130.269 21.8182 129.934 21.8994 129.639 22.0618C129.347 22.2242 129.117 22.4612 128.948 22.7727C128.779 23.0843 128.694 23.4621 128.694 23.9062ZM138.594 28.6591C137.958 28.6591 137.396 28.4983 136.909 28.1768C136.422 27.852 136.04 27.3946 135.765 26.8047C135.49 26.2114 135.353 25.5104 135.353 24.7017C135.353 23.8996 135.49 23.2036 135.765 22.6136C136.04 22.0237 136.423 21.5679 136.914 21.2464C137.404 20.925 137.971 20.7642 138.614 20.7642C139.111 20.7642 139.504 20.8471 139.792 21.0128C140.084 21.1752 140.306 21.3608 140.458 21.5696C140.614 21.7751 140.735 21.9441 140.821 22.0767H140.921V18.3182H142.094V28.5H140.961V27.3267H140.821C140.735 27.4659 140.613 27.6416 140.453 27.8537C140.294 28.0625 140.067 28.2498 139.772 28.4155C139.477 28.5779 139.085 28.6591 138.594 28.6591ZM138.753 27.6051C139.224 27.6051 139.622 27.4825 139.946 27.2372C140.271 26.9886 140.518 26.6456 140.687 26.2081C140.856 25.7673 140.941 25.2585 140.941 24.6818C140.941 24.1117 140.858 23.6129 140.692 23.1854C140.526 22.7545 140.281 22.4197 139.956 22.1811C139.632 21.9392 139.23 21.8182 138.753 21.8182C138.256 21.8182 137.842 21.9458 137.51 22.201C137.182 22.4529 136.935 22.7959 136.77 23.2301C136.607 23.661 136.526 24.1449 136.526 24.6818C136.526 25.2254 136.609 25.7192 136.775 26.1634C136.944 26.6042 137.192 26.9555 137.52 27.2173C137.852 27.4759 138.263 27.6051 138.753 27.6051ZM151.744 20.8636V21.858H147.627V20.8636H151.744ZM148.86 28.5V19.8097C148.86 19.3722 148.963 19.0076 149.169 18.7159C149.374 18.4242 149.641 18.2055 149.969 18.0597C150.297 17.9138 150.644 17.8409 151.008 17.8409C151.297 17.8409 151.532 17.8641 151.714 17.9105C151.896 17.9569 152.032 18 152.122 18.0398L151.784 19.054C151.724 19.0341 151.641 19.0092 151.535 18.9794C151.432 18.9496 151.297 18.9347 151.127 18.9347C150.74 18.9347 150.46 19.0324 150.287 19.228C150.118 19.4235 150.034 19.7102 150.034 20.0881V28.5H148.86ZM156.176 28.6591C155.487 28.6591 154.882 28.495 154.362 28.1669C153.844 27.8388 153.44 27.3797 153.148 26.7898C152.86 26.1998 152.716 25.5104 152.716 24.7216C152.716 23.9261 152.86 23.2318 153.148 22.6385C153.44 22.0452 153.844 21.5845 154.362 21.2564C154.882 20.9283 155.487 20.7642 156.176 20.7642C156.866 20.7642 157.469 20.9283 157.986 21.2564C158.506 21.5845 158.911 22.0452 159.199 22.6385C159.491 23.2318 159.636 23.9261 159.636 24.7216C159.636 25.5104 159.491 26.1998 159.199 26.7898C158.911 27.3797 158.506 27.8388 157.986 28.1669C157.469 28.495 156.866 28.6591 156.176 28.6591ZM156.176 27.6051C156.7 27.6051 157.131 27.4709 157.469 27.2024C157.807 26.9339 158.057 26.581 158.219 26.1435C158.382 25.706 158.463 25.232 158.463 24.7216C158.463 24.2112 158.382 23.7356 158.219 23.2947C158.057 22.8539 157.807 22.4976 157.469 22.2259C157.131 21.9541 156.7 21.8182 156.176 21.8182C155.652 21.8182 155.222 21.9541 154.884 22.2259C154.545 22.4976 154.295 22.8539 154.133 23.2947C153.97 23.7356 153.889 24.2112 153.889 24.7216C153.889 25.232 153.97 25.706 154.133 26.1435C154.295 26.581 154.545 26.9339 154.884 27.2024C155.222 27.4709 155.652 27.6051 156.176 27.6051ZM162.601 18.3182V28.5H161.427V18.3182H162.601ZM165.923 18.3182V28.5H164.75V18.3182H165.923ZM171.174 28.6591C170.485 28.6591 169.88 28.495 169.36 28.1669C168.843 27.8388 168.438 27.3797 168.146 26.7898C167.858 26.1998 167.714 25.5104 167.714 24.7216C167.714 23.9261 167.858 23.2318 168.146 22.6385C168.438 22.0452 168.843 21.5845 169.36 21.2564C169.88 20.9283 170.485 20.7642 171.174 20.7642C171.864 20.7642 172.467 20.9283 172.984 21.2564C173.504 21.5845 173.909 22.0452 174.197 22.6385C174.489 23.2318 174.634 23.9261 174.634 24.7216C174.634 25.5104 174.489 26.1998 174.197 26.7898C173.909 27.3797 173.504 27.8388 172.984 28.1669C172.467 28.495 171.864 28.6591 171.174 28.6591ZM171.174 27.6051C171.698 27.6051 172.129 27.4709 172.467 27.2024C172.805 26.9339 173.055 26.581 173.218 26.1435C173.38 25.706 173.461 25.232 173.461 24.7216C173.461 24.2112 173.38 23.7356 173.218 23.2947C173.055 22.8539 172.805 22.4976 172.467 22.2259C172.129 21.9541 171.698 21.8182 171.174 21.8182C170.651 21.8182 170.22 21.9541 169.882 22.2259C169.544 22.4976 169.293 22.8539 169.131 23.2947C168.968 23.7356 168.887 24.2112 168.887 24.7216C168.887 25.232 168.968 25.706 169.131 26.1435C169.293 26.581 169.544 26.9339 169.882 27.2024C170.22 27.4709 170.651 27.6051 171.174 27.6051ZM177.896 28.5L175.569 20.8636H176.802L178.453 26.7102H178.532L180.163 20.8636H181.416L183.026 26.6903H183.106L184.757 20.8636H185.99L183.663 28.5H182.509L180.839 22.6335H180.72L179.049 28.5H177.896ZM187.541 28.5V20.8636H188.714V28.5H187.541ZM188.137 19.5909C187.909 19.5909 187.711 19.513 187.546 19.3572C187.383 19.2015 187.302 19.0142 187.302 18.7955C187.302 18.5767 187.383 18.3894 187.546 18.2337C187.711 18.0779 187.909 18 188.137 18C188.366 18 188.561 18.0779 188.724 18.2337C188.89 18.3894 188.972 18.5767 188.972 18.7955C188.972 19.0142 188.89 19.2015 188.724 19.3572C188.561 19.513 188.366 19.5909 188.137 19.5909ZM192.036 23.9062V28.5H190.863V20.8636H191.996V22.0568H192.096C192.275 21.669 192.547 21.3575 192.911 21.1222C193.276 20.8835 193.746 20.7642 194.323 20.7642C194.84 20.7642 195.293 20.8703 195.68 21.0824C196.068 21.2912 196.37 21.6094 196.585 22.0369C196.801 22.4612 196.908 22.9981 196.908 23.6477V28.5H195.735V23.7273C195.735 23.1274 195.579 22.66 195.268 22.3253C194.956 21.9872 194.529 21.8182 193.985 21.8182C193.611 21.8182 193.276 21.8994 192.981 22.0618C192.689 22.2242 192.459 22.4612 192.29 22.7727C192.121 23.0843 192.036 23.4621 192.036 23.9062ZM202.135 31.5227C201.568 31.5227 201.081 31.4498 200.673 31.304C200.265 31.1615 199.926 30.9725 199.654 30.7372C199.385 30.5052 199.172 30.2566 199.013 29.9915L199.947 29.3352C200.053 29.4744 200.188 29.6335 200.35 29.8125C200.512 29.9948 200.734 30.1522 201.016 30.2848C201.301 30.4207 201.674 30.4886 202.135 30.4886C202.751 30.4886 203.26 30.3395 203.661 30.0412C204.062 29.7429 204.263 29.2756 204.263 28.6392V27.0881H204.163C204.077 27.2273 203.954 27.3996 203.795 27.6051C203.64 27.8073 203.414 27.9879 203.119 28.147C202.827 28.3028 202.433 28.3807 201.936 28.3807C201.319 28.3807 200.766 28.2348 200.275 27.9432C199.788 27.6515 199.402 27.2273 199.117 26.6705C198.835 26.1136 198.694 25.4375 198.694 24.642C198.694 23.8598 198.832 23.1787 199.107 22.5987C199.382 22.0154 199.765 21.5646 200.256 21.2464C200.746 20.925 201.313 20.7642 201.956 20.7642C202.453 20.7642 202.847 20.8471 203.139 21.0128C203.434 21.1752 203.659 21.3608 203.815 21.5696C203.974 21.7751 204.097 21.9441 204.183 22.0767H204.302V20.8636H205.436V28.7188C205.436 29.375 205.287 29.9086 204.988 30.3196C204.693 30.7339 204.296 31.0372 203.795 31.2294C203.298 31.425 202.745 31.5227 202.135 31.5227ZM202.095 27.3267C202.566 27.3267 202.963 27.219 203.288 27.0036C203.613 26.7881 203.86 26.4782 204.029 26.0739C204.198 25.6695 204.282 25.1856 204.282 24.6222C204.282 24.072 204.2 23.5864 204.034 23.1655C203.868 22.7446 203.623 22.4148 203.298 22.1761C202.973 21.9375 202.572 21.8182 202.095 21.8182C201.598 21.8182 201.184 21.9441 200.852 22.196C200.524 22.4479 200.277 22.786 200.111 23.2102C199.949 23.6345 199.868 24.1051 199.868 24.6222C199.868 25.1525 199.951 25.6214 200.116 26.0291C200.285 26.4335 200.534 26.7517 200.862 26.9837C201.193 27.2124 201.604 27.3267 202.095 27.3267ZM214.842 20.8636V21.858H210.885V20.8636H214.842ZM212.038 19.0341H213.211V26.3125C213.211 26.6439 213.26 26.8925 213.356 27.0582C213.455 27.2206 213.581 27.33 213.733 27.3864C213.889 27.4394 214.053 27.4659 214.226 27.4659C214.355 27.4659 214.461 27.4593 214.544 27.446C214.627 27.4295 214.693 27.4162 214.743 27.4062L214.981 28.4602C214.902 28.4901 214.791 28.5199 214.648 28.5497C214.506 28.5829 214.325 28.5994 214.106 28.5994C213.775 28.5994 213.45 28.5282 213.132 28.3857C212.817 28.2431 212.555 28.026 212.346 27.7344C212.141 27.4427 212.038 27.0748 212.038 26.6307V19.0341ZM217.944 23.9062V28.5H216.771V18.3182H217.944V22.0568H218.044C218.223 21.6624 218.491 21.3492 218.849 21.1172C219.211 20.8819 219.691 20.7642 220.291 20.7642C220.811 20.7642 221.267 20.8686 221.658 21.0774C222.049 21.2829 222.353 21.5994 222.568 22.027C222.787 22.4512 222.896 22.9915 222.896 23.6477V28.5H221.723V23.7273C221.723 23.1207 221.565 22.6518 221.251 22.3203C220.939 21.9856 220.506 21.8182 219.953 21.8182C219.568 21.8182 219.224 21.8994 218.919 22.0618C218.617 22.2242 218.379 22.4612 218.203 22.7727C218.031 23.0843 217.944 23.4621 217.944 23.9062ZM228.244 28.6591C227.509 28.6591 226.874 28.4967 226.34 28.1719C225.81 27.8438 225.401 27.3864 225.112 26.7997C224.827 26.2098 224.685 25.5237 224.685 24.7415C224.685 23.9593 224.827 23.2699 225.112 22.6733C225.401 22.0734 225.802 21.6061 226.315 21.2713C226.832 20.9332 227.436 20.7642 228.125 20.7642C228.523 20.7642 228.915 20.8305 229.303 20.9631C229.691 21.0956 230.044 21.3111 230.362 21.6094C230.68 21.9044 230.934 22.2955 231.123 22.7827C231.312 23.2699 231.406 23.8698 231.406 24.5824V25.0795H225.52V24.0653H230.213C230.213 23.6345 230.127 23.25 229.955 22.9119C229.786 22.5739 229.544 22.3071 229.229 22.1115C228.917 21.916 228.549 21.8182 228.125 21.8182C227.658 21.8182 227.253 21.9342 226.912 22.1662C226.574 22.3949 226.314 22.6932 226.131 23.0611C225.949 23.429 225.858 23.8234 225.858 24.2443V24.9205C225.858 25.4972 225.957 25.986 226.156 26.3871C226.358 26.7848 226.638 27.0881 226.996 27.2969C227.354 27.5024 227.77 27.6051 228.244 27.6051C228.553 27.6051 228.831 27.562 229.08 27.4759C229.331 27.3864 229.549 27.2538 229.731 27.0781C229.913 26.8991 230.054 26.6771 230.153 26.4119L231.287 26.7301C231.168 27.1146 230.967 27.4527 230.685 27.7443C230.404 28.0327 230.056 28.258 229.641 28.4205C229.227 28.5795 228.761 28.6591 228.244 28.6591ZM44.1761 49.6591C43.4602 49.6591 42.8438 49.4901 42.3267 49.152C41.8097 48.8139 41.4119 48.3482 41.1335 47.755C40.8551 47.1617 40.7159 46.4839 40.7159 45.7216C40.7159 44.946 40.8584 44.2616 41.1435 43.6683C41.4318 43.0717 41.8329 42.6061 42.3466 42.2713C42.8636 41.9332 43.4669 41.7642 44.1562 41.7642C44.6932 41.7642 45.1771 41.8636 45.608 42.0625C46.0388 42.2614 46.3918 42.5398 46.6669 42.8977C46.942 43.2557 47.1127 43.6733 47.179 44.1506H46.0057C45.9162 43.8026 45.7173 43.4943 45.4091 43.2259C45.1042 42.9541 44.6932 42.8182 44.1761 42.8182C43.7188 42.8182 43.3177 42.9375 42.973 43.1761C42.6316 43.4115 42.3648 43.7446 42.1726 44.1754C41.9837 44.603 41.8892 45.1051 41.8892 45.6818C41.8892 46.2718 41.982 46.7855 42.1676 47.223C42.3565 47.6605 42.6217 48.0002 42.9631 48.2422C43.3078 48.4841 43.7121 48.6051 44.1761 48.6051C44.4811 48.6051 44.7578 48.5521 45.0064 48.446C45.255 48.34 45.4654 48.1875 45.6378 47.9886C45.8101 47.7898 45.9328 47.5511 46.0057 47.2727H47.179C47.1127 47.7235 46.9486 48.1295 46.6868 48.4908C46.4283 48.8487 46.0852 49.1338 45.6577 49.3459C45.2334 49.5547 44.7396 49.6591 44.1761 49.6591ZM51.9964 49.6591C51.3071 49.6591 50.7022 49.495 50.1818 49.1669C49.6648 48.8388 49.2604 48.3797 48.9688 47.7898C48.6804 47.1998 48.5362 46.5104 48.5362 45.7216C48.5362 44.9261 48.6804 44.2318 48.9688 43.6385C49.2604 43.0452 49.6648 42.5845 50.1818 42.2564C50.7022 41.9283 51.3071 41.7642 51.9964 41.7642C52.6858 41.7642 53.2891 41.9283 53.8061 42.2564C54.3265 42.5845 54.7308 43.0452 55.0192 43.6385C55.3108 44.2318 55.4567 44.9261 55.4567 45.7216C55.4567 46.5104 55.3108 47.1998 55.0192 47.7898C54.7308 48.3797 54.3265 48.8388 53.8061 49.1669C53.2891 49.495 52.6858 49.6591 51.9964 49.6591ZM51.9964 48.6051C52.5201 48.6051 52.951 48.4709 53.2891 48.2024C53.6271 47.9339 53.8774 47.581 54.0398 47.1435C54.2022 46.706 54.2834 46.232 54.2834 45.7216C54.2834 45.2112 54.2022 44.7356 54.0398 44.2947C53.8774 43.8539 53.6271 43.4976 53.2891 43.2259C52.951 42.9541 52.5201 42.8182 51.9964 42.8182C51.4728 42.8182 51.0419 42.9541 50.7038 43.2259C50.3658 43.4976 50.1155 43.8539 49.9531 44.2947C49.7907 44.7356 49.7095 45.2112 49.7095 45.7216C49.7095 46.232 49.7907 46.706 49.9531 47.1435C50.1155 47.581 50.3658 47.9339 50.7038 48.2024C51.0419 48.4709 51.4728 48.6051 51.9964 48.6051ZM57.2477 49.5V41.8636H58.3812V43.017H58.4608C58.6 42.6392 58.8519 42.3326 59.2164 42.0973C59.581 41.862 59.992 41.7443 60.4494 41.7443C60.5356 41.7443 60.6433 41.746 60.7725 41.7493C60.9018 41.7526 60.9996 41.7576 61.0659 41.7642V42.9574C61.0261 42.9474 60.935 42.9325 60.7924 42.9126C60.6532 42.8894 60.5057 42.8778 60.35 42.8778C59.9788 42.8778 59.6473 42.9557 59.3556 43.1115C59.0673 43.264 58.8386 43.4761 58.6696 43.7479C58.5038 44.0163 58.421 44.3229 58.421 44.6676V49.5H57.2477ZM62.4567 49.5V41.8636H63.5902V43.017H63.6697C63.8089 42.6392 64.0608 42.3326 64.4254 42.0973C64.79 41.862 65.201 41.7443 65.6584 41.7443C65.7446 41.7443 65.8523 41.746 65.9815 41.7493C66.1108 41.7526 66.2086 41.7576 66.2749 41.7642V42.9574C66.2351 42.9474 66.1439 42.9325 66.0014 42.9126C65.8622 42.8894 65.7147 42.8778 65.5589 42.8778C65.1877 42.8778 64.8563 42.9557 64.5646 43.1115C64.2763 43.264 64.0476 43.4761 63.8786 43.7479C63.7128 44.0163 63.63 44.3229 63.63 44.6676V49.5H62.4567ZM70.6349 49.6591C69.8991 49.6591 69.2644 49.4967 68.7308 49.1719C68.2005 48.8438 67.7912 48.3864 67.5028 47.7997C67.2178 47.2098 67.0753 46.5237 67.0753 45.7415C67.0753 44.9593 67.2178 44.2699 67.5028 43.6733C67.7912 43.0734 68.1922 42.6061 68.706 42.2713C69.223 41.9332 69.8262 41.7642 70.5156 41.7642C70.9134 41.7642 71.3061 41.8305 71.6939 41.9631C72.0817 42.0956 72.4347 42.3111 72.7528 42.6094C73.071 42.9044 73.3246 43.2955 73.5135 43.7827C73.7024 44.2699 73.7969 44.8698 73.7969 45.5824V46.0795H67.9105V45.0653H72.6037C72.6037 44.6345 72.5175 44.25 72.3452 43.9119C72.1761 43.5739 71.9342 43.3071 71.6193 43.1115C71.3078 42.916 70.9399 42.8182 70.5156 42.8182C70.0483 42.8182 69.6439 42.9342 69.3026 43.1662C68.9645 43.3949 68.7043 43.6932 68.522 44.0611C68.3397 44.429 68.2486 44.8234 68.2486 45.2443V45.9205C68.2486 46.4972 68.348 46.986 68.5469 47.3871C68.7491 47.7848 69.0291 48.0881 69.3871 48.2969C69.745 48.5024 70.161 48.6051 70.6349 48.6051C70.9432 48.6051 71.2216 48.562 71.4702 48.4759C71.7221 48.3864 71.9392 48.2538 72.1214 48.0781C72.3037 47.8991 72.4446 47.6771 72.544 47.4119L73.6776 47.7301C73.5582 48.1146 73.3577 48.4527 73.076 48.7443C72.7943 49.0327 72.4463 49.258 72.032 49.4205C71.6177 49.5795 71.152 49.6591 70.6349 49.6591ZM78.6839 49.6591C77.968 49.6591 77.3516 49.4901 76.8345 49.152C76.3175 48.8139 75.9197 48.3482 75.6413 47.755C75.3629 47.1617 75.2237 46.4839 75.2237 45.7216C75.2237 44.946 75.3662 44.2616 75.6513 43.6683C75.9396 43.0717 76.3407 42.6061 76.8544 42.2713C77.3714 41.9332 77.9747 41.7642 78.6641 41.7642C79.201 41.7642 79.6849 41.8636 80.1158 42.0625C80.5466 42.2614 80.8996 42.5398 81.1747 42.8977C81.4498 43.2557 81.6205 43.6733 81.6868 44.1506H80.5135C80.424 43.8026 80.2251 43.4943 79.9169 43.2259C79.612 42.9541 79.201 42.8182 78.6839 42.8182C78.2266 42.8182 77.8255 42.9375 77.4808 43.1761C77.1394 43.4115 76.8726 43.7446 76.6804 44.1754C76.4915 44.603 76.397 45.1051 76.397 45.6818C76.397 46.2718 76.4898 46.7855 76.6754 47.223C76.8643 47.6605 77.1295 48.0002 77.4709 48.2422C77.8156 48.4841 78.2199 48.6051 78.6839 48.6051C78.9889 48.6051 79.2656 48.5521 79.5142 48.446C79.7628 48.34 79.9732 48.1875 80.1456 47.9886C80.3179 47.7898 80.4406 47.5511 80.5135 47.2727H81.6868C81.6205 47.7235 81.4564 48.1295 81.1946 48.4908C80.9361 48.8487 80.593 49.1338 80.1655 49.3459C79.7412 49.5547 79.2474 49.6591 78.6839 49.6591ZM86.723 41.8636V42.858H82.7656V41.8636H86.723ZM83.919 40.0341H85.0923V47.3125C85.0923 47.6439 85.1404 47.8925 85.2365 48.0582C85.3359 48.2206 85.4619 48.33 85.6143 48.3864C85.7701 48.4394 85.9342 48.4659 86.1065 48.4659C86.2358 48.4659 86.3419 48.4593 86.4247 48.446C86.5076 48.4295 86.5739 48.4162 86.6236 48.4062L86.8622 49.4602C86.7827 49.4901 86.6716 49.5199 86.5291 49.5497C86.3866 49.5829 86.206 49.5994 85.9872 49.5994C85.6558 49.5994 85.331 49.5282 85.0128 49.3857C84.6979 49.2431 84.4361 49.026 84.2273 48.7344C84.0218 48.4427 83.919 48.0748 83.919 47.6307V40.0341ZM97.6357 52.3636V48.3267H97.5362C97.45 48.4659 97.3274 48.6416 97.1683 48.8537C97.0092 49.0625 96.7822 49.2498 96.4872 49.4155C96.1922 49.5779 95.7995 49.6591 95.3089 49.6591C94.6726 49.6591 94.1108 49.4983 93.6236 49.1768C93.1364 48.852 92.7552 48.3946 92.4801 47.8047C92.205 47.2114 92.0675 46.5104 92.0675 45.7017C92.0675 44.8996 92.205 44.2036 92.4801 43.6136C92.7552 43.0237 93.138 42.5679 93.6286 42.2464C94.1191 41.925 94.6858 41.7642 95.3288 41.7642C95.826 41.7642 96.2188 41.8471 96.5071 42.0128C96.7988 42.1752 97.0208 42.3608 97.1733 42.5696C97.3291 42.7751 97.45 42.9441 97.5362 43.0767H97.6754V41.8636H98.8089V52.3636H97.6357ZM95.468 48.6051C95.9387 48.6051 96.3364 48.4825 96.6612 48.2372C96.986 47.9886 97.233 47.6456 97.402 47.2081C97.571 46.7673 97.6555 46.2585 97.6555 45.6818C97.6555 45.1117 97.5727 44.6129 97.407 44.1854C97.2412 43.7545 96.996 43.4197 96.6712 43.1811C96.3464 42.9392 95.9453 42.8182 95.468 42.8182C94.9709 42.8182 94.5566 42.9458 94.2251 43.201C93.897 43.4529 93.6501 43.7959 93.4844 44.2301C93.322 44.661 93.2408 45.1449 93.2408 45.6818C93.2408 46.2254 93.3236 46.7192 93.4893 47.1634C93.6584 47.6042 93.907 47.9555 94.2351 48.2173C94.5665 48.4759 94.9775 48.6051 95.468 48.6051ZM105.769 46.3778V41.8636H106.942V49.5H105.769V48.2074H105.69C105.511 48.5952 105.232 48.925 104.854 49.1967C104.477 49.4652 103.999 49.5994 103.423 49.5994C102.945 49.5994 102.521 49.495 102.15 49.2862C101.779 49.0741 101.487 48.7559 101.275 48.3317C101.063 47.9041 100.957 47.3655 100.957 46.7159V41.8636H102.13V46.6364C102.13 47.1932 102.286 47.6373 102.597 47.9688C102.912 48.3002 103.313 48.4659 103.8 48.4659C104.092 48.4659 104.389 48.3913 104.69 48.2422C104.995 48.093 105.25 47.8643 105.456 47.5561C105.665 47.2479 105.769 46.8551 105.769 46.3778ZM112.293 49.6591C111.557 49.6591 110.923 49.4967 110.389 49.1719C109.859 48.8438 109.449 48.3864 109.161 47.7997C108.876 47.2098 108.733 46.5237 108.733 45.7415C108.733 44.9593 108.876 44.2699 109.161 43.6733C109.449 43.0734 109.85 42.6061 110.364 42.2713C110.881 41.9332 111.484 41.7642 112.174 41.7642C112.572 41.7642 112.964 41.8305 113.352 41.9631C113.74 42.0956 114.093 42.3111 114.411 42.6094C114.729 42.9044 114.983 43.2955 115.172 43.7827C115.361 44.2699 115.455 44.8698 115.455 45.5824V46.0795H109.569V45.0653H114.262C114.262 44.6345 114.176 44.25 114.003 43.9119C113.834 43.5739 113.592 43.3071 113.278 43.1115C112.966 42.916 112.598 42.8182 112.174 42.8182C111.706 42.8182 111.302 42.9342 110.961 43.1662C110.623 43.3949 110.363 43.6932 110.18 44.0611C109.998 44.429 109.907 44.8234 109.907 45.2443V45.9205C109.907 46.4972 110.006 46.986 110.205 47.3871C110.407 47.7848 110.687 48.0881 111.045 48.2969C111.403 48.5024 111.819 48.6051 112.293 48.6051C112.601 48.6051 112.88 48.562 113.128 48.4759C113.38 48.3864 113.597 48.2538 113.78 48.0781C113.962 47.8991 114.103 47.6771 114.202 47.4119L115.336 47.7301C115.216 48.1146 115.016 48.4527 114.734 48.7443C114.452 49.0327 114.104 49.258 113.69 49.4205C113.276 49.5795 112.81 49.6591 112.293 49.6591ZM122.649 43.5739L121.595 43.8722C121.529 43.6965 121.431 43.5258 121.302 43.3601C121.176 43.1911 121.003 43.0518 120.785 42.9425C120.566 42.8331 120.286 42.7784 119.944 42.7784C119.477 42.7784 119.088 42.8861 118.776 43.1016C118.468 43.3137 118.314 43.5838 118.314 43.9119C118.314 44.2036 118.42 44.4339 118.632 44.603C118.844 44.772 119.175 44.9129 119.626 45.0256L120.76 45.304C121.443 45.4697 121.951 45.7232 122.286 46.0646C122.621 46.4027 122.788 46.8385 122.788 47.3722C122.788 47.8097 122.662 48.2008 122.41 48.5455C122.162 48.8902 121.814 49.1619 121.366 49.3608C120.919 49.5597 120.398 49.6591 119.805 49.6591C119.026 49.6591 118.382 49.4901 117.871 49.152C117.361 48.8139 117.038 48.3201 116.902 47.6705L118.015 47.392C118.122 47.803 118.322 48.1113 118.617 48.3168C118.915 48.5223 119.305 48.625 119.785 48.625C120.332 48.625 120.766 48.509 121.088 48.277C121.413 48.0417 121.575 47.7599 121.575 47.4318C121.575 47.1667 121.482 46.9446 121.297 46.7656C121.111 46.5833 120.826 46.4474 120.442 46.358L119.169 46.0597C118.47 45.8939 117.956 45.6371 117.628 45.2891C117.303 44.9377 117.14 44.4986 117.14 43.9716C117.14 43.5407 117.261 43.1596 117.503 42.8281C117.749 42.4967 118.082 42.2365 118.503 42.0476C118.927 41.8587 119.407 41.7642 119.944 41.7642C120.7 41.7642 121.293 41.9299 121.724 42.2614C122.158 42.5928 122.467 43.0303 122.649 43.5739ZM127.875 41.8636V42.858H123.918V41.8636H127.875ZM125.071 40.0341H126.245V47.3125C126.245 47.6439 126.293 47.8925 126.389 48.0582C126.488 48.2206 126.614 48.33 126.767 48.3864C126.922 48.4394 127.087 48.4659 127.259 48.4659C127.388 48.4659 127.494 48.4593 127.577 48.446C127.66 48.4295 127.726 48.4162 127.776 48.4062L128.015 49.4602C127.935 49.4901 127.824 49.5199 127.681 49.5497C127.539 49.5829 127.358 49.5994 127.14 49.5994C126.808 49.5994 126.483 49.5282 126.165 49.3857C125.85 49.2431 125.588 49.026 125.38 48.7344C125.174 48.4427 125.071 48.0748 125.071 47.6307V40.0341ZM129.64 49.5V41.8636H130.814V49.5H129.64ZM130.237 40.5909C130.008 40.5909 129.811 40.513 129.645 40.3572C129.483 40.2015 129.402 40.0142 129.402 39.7955C129.402 39.5767 129.483 39.3894 129.645 39.2337C129.811 39.0779 130.008 39 130.237 39C130.466 39 130.661 39.0779 130.824 39.2337C130.989 39.3894 131.072 39.5767 131.072 39.7955C131.072 40.0142 130.989 40.2015 130.824 40.3572C130.661 40.513 130.466 40.5909 130.237 40.5909ZM136.065 49.6591C135.375 49.6591 134.771 49.495 134.25 49.1669C133.733 48.8388 133.329 48.3797 133.037 47.7898C132.749 47.1998 132.605 46.5104 132.605 45.7216C132.605 44.9261 132.749 44.2318 133.037 43.6385C133.329 43.0452 133.733 42.5845 134.25 42.2564C134.771 41.9283 135.375 41.7642 136.065 41.7642C136.754 41.7642 137.357 41.9283 137.874 42.2564C138.395 42.5845 138.799 43.0452 139.088 43.6385C139.379 44.2318 139.525 44.9261 139.525 45.7216C139.525 46.5104 139.379 47.1998 139.088 47.7898C138.799 48.3797 138.395 48.8388 137.874 49.1669C137.357 49.495 136.754 49.6591 136.065 49.6591ZM136.065 48.6051C136.588 48.6051 137.019 48.4709 137.357 48.2024C137.695 47.9339 137.946 47.581 138.108 47.1435C138.271 46.706 138.352 46.232 138.352 45.7216C138.352 45.2112 138.271 44.7356 138.108 44.2947C137.946 43.8539 137.695 43.4976 137.357 43.2259C137.019 42.9541 136.588 42.8182 136.065 42.8182C135.541 42.8182 135.11 42.9541 134.772 43.2259C134.434 43.4976 134.184 43.8539 134.021 44.2947C133.859 44.7356 133.778 45.2112 133.778 45.7216C133.778 46.232 133.859 46.706 134.021 47.1435C134.184 47.581 134.434 47.9339 134.772 48.2024C135.11 48.4709 135.541 48.6051 136.065 48.6051ZM142.489 44.9062V49.5H141.316V41.8636H142.45V43.0568H142.549C142.728 42.669 143 42.3575 143.364 42.1222C143.729 41.8835 144.2 41.7642 144.776 41.7642C145.293 41.7642 145.746 41.8703 146.134 42.0824C146.521 42.2912 146.823 42.6094 147.038 43.0369C147.254 43.4612 147.362 43.9981 147.362 44.6477V49.5H146.188V44.7273C146.188 44.1274 146.032 43.66 145.721 43.3253C145.409 42.9872 144.982 42.8182 144.438 42.8182C144.064 42.8182 143.729 42.8994 143.434 43.0618C143.142 43.2242 142.912 43.4612 142.743 43.7727C142.574 44.0843 142.489 44.4621 142.489 44.9062ZM154.915 43.5739L153.861 43.8722C153.794 43.6965 153.697 43.5258 153.567 43.3601C153.441 43.1911 153.269 43.0518 153.05 42.9425C152.831 42.8331 152.551 42.7784 152.21 42.7784C151.743 42.7784 151.353 42.8861 151.042 43.1016C150.733 43.3137 150.579 43.5838 150.579 43.9119C150.579 44.2036 150.685 44.4339 150.898 44.603C151.11 44.772 151.441 44.9129 151.892 45.0256L153.025 45.304C153.708 45.4697 154.217 45.7232 154.552 46.0646C154.886 46.4027 155.054 46.8385 155.054 47.3722C155.054 47.8097 154.928 48.2008 154.676 48.5455C154.427 48.8902 154.079 49.1619 153.632 49.3608C153.184 49.5597 152.664 49.6591 152.071 49.6591C151.292 49.6591 150.647 49.4901 150.137 49.152C149.626 48.8139 149.303 48.3201 149.167 47.6705L150.281 47.392C150.387 47.803 150.588 48.1113 150.883 48.3168C151.181 48.5223 151.57 48.625 152.051 48.625C152.598 48.625 153.032 48.509 153.354 48.277C153.678 48.0417 153.841 47.7599 153.841 47.4318C153.841 47.1667 153.748 46.9446 153.562 46.7656C153.377 46.5833 153.092 46.4474 152.707 46.358L151.434 46.0597C150.735 45.8939 150.221 45.6371 149.893 45.2891C149.568 44.9377 149.406 44.4986 149.406 43.9716C149.406 43.5407 149.527 43.1596 149.769 42.8281C150.014 42.4967 150.347 42.2365 150.768 42.0476C151.193 41.8587 151.673 41.7642 152.21 41.7642C152.966 41.7642 153.559 41.9299 153.99 42.2614C154.424 42.5928 154.732 43.0303 154.915 43.5739ZM164.078 41.8636V42.858H160.121V41.8636H164.078ZM161.275 40.0341H162.448V47.3125C162.448 47.6439 162.496 47.8925 162.592 48.0582C162.691 48.2206 162.817 48.33 162.97 48.3864C163.126 48.4394 163.29 48.4659 163.462 48.4659C163.591 48.4659 163.697 48.4593 163.78 48.446C163.863 48.4295 163.929 48.4162 163.979 48.4062L164.218 49.4602C164.138 49.4901 164.027 49.5199 163.885 49.5497C163.742 49.5829 163.561 49.5994 163.343 49.5994C163.011 49.5994 162.686 49.5282 162.368 49.3857C162.053 49.2431 161.792 49.026 161.583 48.7344C161.377 48.4427 161.275 48.0748 161.275 47.6307V40.0341ZM168.091 49.679C167.607 49.679 167.167 49.5878 166.773 49.4055C166.379 49.2199 166.065 48.9531 165.833 48.6051C165.601 48.2538 165.485 47.8295 165.485 47.3324C165.485 46.8949 165.572 46.5402 165.744 46.2685C165.916 45.9934 166.147 45.7779 166.435 45.6222C166.723 45.4664 167.042 45.3504 167.39 45.2741C167.741 45.1946 168.094 45.1316 168.449 45.0852C168.913 45.0256 169.289 44.9808 169.577 44.951C169.869 44.9179 170.081 44.8632 170.213 44.7869C170.349 44.7107 170.417 44.5781 170.417 44.3892V44.3494C170.417 43.8589 170.283 43.4777 170.015 43.206C169.749 42.9342 169.347 42.7983 168.806 42.7983C168.246 42.7983 167.807 42.9209 167.489 43.1662C167.171 43.4115 166.947 43.6733 166.818 43.9517L165.704 43.554C165.903 43.09 166.168 42.7287 166.5 42.4702C166.834 42.2083 167.199 42.026 167.593 41.9233C167.991 41.8172 168.382 41.7642 168.767 41.7642C169.012 41.7642 169.294 41.794 169.612 41.8537C169.933 41.91 170.243 42.0277 170.542 42.2067C170.843 42.3857 171.093 42.6558 171.292 43.017C171.491 43.3783 171.591 43.8622 171.591 44.4688V49.5H170.417V48.4659H170.358C170.278 48.6316 170.145 48.8089 169.96 48.9979C169.774 49.1868 169.527 49.3475 169.219 49.4801C168.911 49.6127 168.535 49.679 168.091 49.679ZM168.27 48.625C168.734 48.625 169.125 48.5339 169.443 48.3516C169.764 48.1693 170.006 47.9339 170.169 47.6456C170.334 47.3572 170.417 47.054 170.417 46.7358V45.6619C170.368 45.7216 170.258 45.7763 170.089 45.826C169.923 45.8724 169.731 45.9138 169.512 45.9503C169.297 45.9834 169.087 46.0133 168.881 46.0398C168.679 46.063 168.515 46.0829 168.389 46.0994C168.084 46.1392 167.799 46.2038 167.534 46.2933C167.272 46.3795 167.06 46.5104 166.897 46.6861C166.738 46.8584 166.659 47.0937 166.659 47.392C166.659 47.7997 166.81 48.108 167.111 48.3168C167.416 48.5223 167.802 48.625 168.27 48.625ZM173.732 49.5V41.8636H174.866V43.017H174.945C175.084 42.6392 175.336 42.3326 175.701 42.0973C176.065 41.862 176.476 41.7443 176.934 41.7443C177.02 41.7443 177.128 41.746 177.257 41.7493C177.386 41.7526 177.484 41.7576 177.55 41.7642V42.9574C177.51 42.9474 177.419 42.9325 177.277 42.9126C177.138 42.8894 176.99 42.8778 176.834 42.8778C176.463 42.8778 176.132 42.9557 175.84 43.1115C175.552 43.264 175.323 43.4761 175.154 43.7479C174.988 44.0163 174.905 44.3229 174.905 44.6676V49.5H173.732ZM181.791 52.5227C181.224 52.5227 180.737 52.4498 180.329 52.304C179.922 52.1615 179.582 51.9725 179.31 51.7372C179.042 51.5052 178.828 51.2566 178.669 50.9915L179.604 50.3352C179.71 50.4744 179.844 50.6335 180.006 50.8125C180.169 50.9948 180.391 51.1522 180.672 51.2848C180.957 51.4207 181.33 51.4886 181.791 51.4886C182.407 51.4886 182.916 51.3395 183.317 51.0412C183.718 50.7429 183.919 50.2756 183.919 49.6392V48.0881H183.819C183.733 48.2273 183.611 48.3996 183.452 48.6051C183.296 48.8073 183.07 48.9879 182.775 49.147C182.484 49.3028 182.089 49.3807 181.592 49.3807C180.976 49.3807 180.422 49.2348 179.932 48.9432C179.444 48.6515 179.058 48.2273 178.773 47.6705C178.492 47.1136 178.351 46.4375 178.351 45.642C178.351 44.8598 178.488 44.1787 178.763 43.5987C179.038 43.0154 179.421 42.5646 179.912 42.2464C180.402 41.925 180.969 41.7642 181.612 41.7642C182.109 41.7642 182.504 41.8471 182.795 42.0128C183.09 42.1752 183.316 42.3608 183.471 42.5696C183.631 42.7751 183.753 42.9441 183.839 43.0767H183.959V41.8636H185.092V49.7188C185.092 50.375 184.943 50.9086 184.645 51.3196C184.35 51.7339 183.952 52.0372 183.452 52.2294C182.954 52.425 182.401 52.5227 181.791 52.5227ZM181.751 48.3267C182.222 48.3267 182.62 48.219 182.944 48.0036C183.269 47.7881 183.516 47.4782 183.685 47.0739C183.854 46.6695 183.939 46.1856 183.939 45.6222C183.939 45.072 183.856 44.5864 183.69 44.1655C183.524 43.7446 183.279 43.4148 182.954 43.1761C182.63 42.9375 182.229 42.8182 181.751 42.8182C181.254 42.8182 180.84 42.9441 180.508 43.196C180.18 43.4479 179.933 43.786 179.768 44.2102C179.605 44.6345 179.524 45.1051 179.524 45.6222C179.524 46.1525 179.607 46.6214 179.773 47.0291C179.942 47.4335 180.19 47.7517 180.518 47.9837C180.85 48.2124 181.261 48.3267 181.751 48.3267ZM190.442 49.6591C189.706 49.6591 189.071 49.4967 188.537 49.1719C188.007 48.8438 187.598 48.3864 187.309 47.7997C187.024 47.2098 186.882 46.5237 186.882 45.7415C186.882 44.9593 187.024 44.2699 187.309 43.6733C187.598 43.0734 187.999 42.6061 188.513 42.2713C189.03 41.9332 189.633 41.7642 190.322 41.7642C190.72 41.7642 191.113 41.8305 191.501 41.9631C191.888 42.0956 192.241 42.3111 192.559 42.6094C192.878 42.9044 193.131 43.2955 193.32 43.7827C193.509 44.2699 193.604 44.8698 193.604 45.5824V46.0795H187.717V45.0653H192.41C192.41 44.6345 192.324 44.25 192.152 43.9119C191.983 43.5739 191.741 43.3071 191.426 43.1115C191.114 42.916 190.747 42.8182 190.322 42.8182C189.855 42.8182 189.451 42.9342 189.109 43.1662C188.771 43.3949 188.511 43.6932 188.329 44.0611C188.146 44.429 188.055 44.8234 188.055 45.2443V45.9205C188.055 46.4972 188.155 46.986 188.354 47.3871C188.556 47.7848 188.836 48.0881 189.194 48.2969C189.552 48.5024 189.968 48.6051 190.442 48.6051C190.75 48.6051 191.028 48.562 191.277 48.4759C191.529 48.3864 191.746 48.2538 191.928 48.0781C192.11 47.8991 192.251 47.6771 192.351 47.4119L193.484 47.7301C193.365 48.1146 193.164 48.4527 192.883 48.7443C192.601 49.0327 192.253 49.258 191.839 49.4205C191.424 49.5795 190.959 49.6591 190.442 49.6591ZM198.709 41.8636V42.858H194.752V41.8636H198.709ZM195.905 40.0341H197.079V47.3125C197.079 47.6439 197.127 47.8925 197.223 48.0582C197.322 48.2206 197.448 48.33 197.601 48.3864C197.756 48.4394 197.921 48.4659 198.093 48.4659C198.222 48.4659 198.328 48.4593 198.411 48.446C198.494 48.4295 198.56 48.4162 198.61 48.4062L198.849 49.4602C198.769 49.4901 198.658 49.5199 198.515 49.5497C198.373 49.5829 198.192 49.5994 197.974 49.5994C197.642 49.5994 197.317 49.5282 196.999 49.3857C196.684 49.2431 196.422 49.026 196.214 48.7344C196.008 48.4427 195.905 48.0748 195.905 47.6307V40.0341ZM205.747 43.5739L204.693 43.8722C204.626 43.6965 204.529 43.5258 204.399 43.3601C204.273 43.1911 204.101 43.0518 203.882 42.9425C203.664 42.8331 203.383 42.7784 203.042 42.7784C202.575 42.7784 202.185 42.8861 201.874 43.1016C201.566 43.3137 201.411 43.5838 201.411 43.9119C201.411 44.2036 201.517 44.4339 201.73 44.603C201.942 44.772 202.273 44.9129 202.724 45.0256L203.857 45.304C204.54 45.4697 205.049 45.7232 205.384 46.0646C205.718 46.4027 205.886 46.8385 205.886 47.3722C205.886 47.8097 205.76 48.2008 205.508 48.5455C205.259 48.8902 204.911 49.1619 204.464 49.3608C204.017 49.5597 203.496 49.6591 202.903 49.6591C202.124 49.6591 201.479 49.4901 200.969 49.152C200.459 48.8139 200.135 48.3201 199.999 47.6705L201.113 47.392C201.219 47.803 201.42 48.1113 201.715 48.3168C202.013 48.5223 202.402 48.625 202.883 48.625C203.43 48.625 203.864 48.509 204.186 48.277C204.51 48.0417 204.673 47.7599 204.673 47.4318C204.673 47.1667 204.58 46.9446 204.394 46.7656C204.209 46.5833 203.924 46.4474 203.539 46.358L202.267 46.0597C201.567 45.8939 201.053 45.6371 200.725 45.2891C200.401 44.9377 200.238 44.4986 200.238 43.9716C200.238 43.5407 200.359 43.1596 200.601 42.8281C200.846 42.4967 201.179 42.2365 201.6 42.0476C202.025 41.8587 202.505 41.7642 203.042 41.7642C203.798 41.7642 204.391 41.9299 204.822 42.2614C205.256 42.5928 205.564 43.0303 205.747 43.5739ZM216.999 43.5739L215.945 43.8722C215.878 43.6965 215.781 43.5258 215.651 43.3601C215.525 43.1911 215.353 43.0518 215.134 42.9425C214.915 42.8331 214.635 42.7784 214.294 42.7784C213.827 42.7784 213.437 42.8861 213.126 43.1016C212.817 43.3137 212.663 43.5838 212.663 43.9119C212.663 44.2036 212.769 44.4339 212.982 44.603C213.194 44.772 213.525 44.9129 213.976 45.0256L215.109 45.304C215.792 45.4697 216.301 45.7232 216.636 46.0646C216.97 46.4027 217.138 46.8385 217.138 47.3722C217.138 47.8097 217.012 48.2008 216.76 48.5455C216.511 48.8902 216.163 49.1619 215.716 49.3608C215.268 49.5597 214.748 49.6591 214.155 49.6591C213.376 49.6591 212.731 49.4901 212.221 49.152C211.71 48.8139 211.387 48.3201 211.251 47.6705L212.365 47.392C212.471 47.803 212.672 48.1113 212.967 48.3168C213.265 48.5223 213.654 48.625 214.135 48.625C214.682 48.625 215.116 48.509 215.438 48.277C215.762 48.0417 215.925 47.7599 215.925 47.4318C215.925 47.1667 215.832 46.9446 215.646 46.7656C215.461 46.5833 215.176 46.4474 214.791 46.358L213.518 46.0597C212.819 45.8939 212.305 45.6371 211.977 45.2891C211.652 44.9377 211.49 44.4986 211.49 43.9716C211.49 43.5407 211.611 43.1596 211.853 42.8281C212.098 42.4967 212.431 42.2365 212.852 42.0476C213.277 41.8587 213.757 41.7642 214.294 41.7642C215.05 41.7642 215.643 41.9299 216.074 42.2614C216.508 42.5928 216.816 43.0303 216.999 43.5739ZM222.106 49.6591C221.37 49.6591 220.735 49.4967 220.202 49.1719C219.671 48.8438 219.262 48.3864 218.974 47.7997C218.689 47.2098 218.546 46.5237 218.546 45.7415C218.546 44.9593 218.689 44.2699 218.974 43.6733C219.262 43.0734 219.663 42.6061 220.177 42.2713C220.694 41.9332 221.297 41.7642 221.986 41.7642C222.384 41.7642 222.777 41.8305 223.165 41.9631C223.552 42.0956 223.905 42.3111 224.224 42.6094C224.542 42.9044 224.795 43.2955 224.984 43.7827C225.173 44.2699 225.268 44.8698 225.268 45.5824V46.0795H219.381V45.0653H224.074C224.074 44.6345 223.988 44.25 223.816 43.9119C223.647 43.5739 223.405 43.3071 223.09 43.1115C222.778 42.916 222.411 42.8182 221.986 42.8182C221.519 42.8182 221.115 42.9342 220.773 43.1662C220.435 43.3949 220.175 43.6932 219.993 44.0611C219.81 44.429 219.719 44.8234 219.719 45.2443V45.9205C219.719 46.4972 219.819 46.986 220.018 47.3871C220.22 47.7848 220.5 48.0881 220.858 48.2969C221.216 48.5024 221.632 48.6051 222.106 48.6051C222.414 48.6051 222.692 48.562 222.941 48.4759C223.193 48.3864 223.41 48.2538 223.592 48.0781C223.774 47.8991 223.915 47.6771 224.015 47.4119L225.148 47.7301C225.029 48.1146 224.828 48.4527 224.547 48.7443C224.265 49.0327 223.917 49.258 223.503 49.4205C223.088 49.5795 222.623 49.6591 222.106 49.6591ZM230.373 41.8636V42.858H226.416V41.8636H230.373ZM227.569 40.0341H228.743V47.3125C228.743 47.6439 228.791 47.8925 228.887 48.0582C228.986 48.2206 229.112 48.33 229.265 48.3864C229.421 48.4394 229.585 48.4659 229.757 48.4659C229.886 48.4659 229.992 48.4593 230.075 48.446C230.158 48.4295 230.224 48.4162 230.274 48.4062L230.513 49.4602C230.433 49.4901 230.322 49.5199 230.18 49.5497C230.037 49.5829 229.856 49.5994 229.638 49.5994C229.306 49.5994 228.981 49.5282 228.663 49.3857C228.348 49.2431 228.086 49.026 227.878 48.7344C227.672 48.4427 227.569 48.0748 227.569 47.6307V40.0341ZM236.235 49.5V39.3182H237.408V43.0767H237.508C237.594 42.9441 237.713 42.7751 237.866 42.5696C238.021 42.3608 238.243 42.1752 238.532 42.0128C238.823 41.8471 239.218 41.7642 239.715 41.7642C240.358 41.7642 240.925 41.925 241.415 42.2464C241.906 42.5679 242.289 43.0237 242.564 43.6136C242.839 44.2036 242.976 44.8996 242.976 45.7017C242.976 46.5104 242.839 47.2114 242.564 47.8047C242.289 48.3946 241.907 48.852 241.42 49.1768C240.933 49.4983 240.371 49.6591 239.735 49.6591C239.244 49.6591 238.852 49.5779 238.557 49.4155C238.262 49.2498 238.035 49.0625 237.876 48.8537C237.716 48.6416 237.594 48.4659 237.508 48.3267H237.368V49.5H236.235ZM237.388 45.6818C237.388 46.2585 237.473 46.7673 237.642 47.2081C237.811 47.6456 238.058 47.9886 238.383 48.2372C238.707 48.4825 239.105 48.6051 239.576 48.6051C240.066 48.6051 240.476 48.4759 240.804 48.2173C241.135 47.9555 241.384 47.6042 241.55 47.1634C241.719 46.7192 241.803 46.2254 241.803 45.6818C241.803 45.1449 241.72 44.661 241.555 44.2301C241.392 43.7959 241.145 43.4529 240.814 43.201C240.486 42.9458 240.073 42.8182 239.576 42.8182C239.099 42.8182 238.698 42.9392 238.373 43.1811C238.048 43.4197 237.803 43.7545 237.637 44.1854C237.471 44.6129 237.388 45.1117 237.388 45.6818ZM245.253 52.3636C245.055 52.3636 244.877 52.3471 244.721 52.3139C244.566 52.2841 244.458 52.2543 244.398 52.2244L244.697 51.1903C244.982 51.2633 245.233 51.2898 245.452 51.2699C245.671 51.25 245.865 51.1522 246.034 50.9766C246.206 50.8042 246.364 50.5241 246.506 50.1364L246.725 49.5398L243.901 41.8636H245.174L247.282 47.9489H247.361L249.469 41.8636H250.742L247.501 50.6136C247.355 51.008 247.174 51.3345 246.959 51.593C246.743 51.8549 246.493 52.0488 246.208 52.1747C245.926 52.3007 245.608 52.3636 245.253 52.3636ZM41.6506 71.5H40.358L44.0966 61.3182H45.3693L49.108 71.5H47.8153L44.7727 62.929H44.6932L41.6506 71.5ZM42.1278 67.5227H47.3381V68.6165H42.1278V67.5227ZM53.3773 63.8636V64.858H49.4199V63.8636H53.3773ZM50.5733 62.0341H51.7466V69.3125C51.7466 69.6439 51.7947 69.8925 51.8908 70.0582C51.9902 70.2206 52.1162 70.33 52.2686 70.3864C52.4244 70.4394 52.5885 70.4659 52.7608 70.4659C52.8901 70.4659 52.9962 70.4593 53.079 70.446C53.1619 70.4295 53.2282 70.4162 53.2779 70.4062L53.5165 71.4602C53.437 71.4901 53.3259 71.5199 53.1834 71.5497C53.0409 71.5829 52.8603 71.5994 52.6415 71.5994C52.3101 71.5994 51.9853 71.5282 51.6671 71.3857C51.3522 71.2431 51.0904 71.026 50.8816 70.7344C50.6761 70.4427 50.5733 70.0748 50.5733 69.6307V62.0341ZM58.1625 71.6591C57.4731 71.6591 56.8682 71.495 56.3478 71.1669C55.8308 70.8388 55.4264 70.3797 55.1348 69.7898C54.8464 69.1998 54.7022 68.5104 54.7022 67.7216C54.7022 66.9261 54.8464 66.2318 55.1348 65.6385C55.4264 65.0452 55.8308 64.5845 56.3478 64.2564C56.8682 63.9283 57.4731 63.7642 58.1625 63.7642C58.8519 63.7642 59.4551 63.9283 59.9721 64.2564C60.4925 64.5845 60.8968 65.0452 61.1852 65.6385C61.4769 66.2318 61.6227 66.9261 61.6227 67.7216C61.6227 68.5104 61.4769 69.1998 61.1852 69.7898C60.8968 70.3797 60.4925 70.8388 59.9721 71.1669C59.4551 71.495 58.8519 71.6591 58.1625 71.6591ZM58.1625 70.6051C58.6861 70.6051 59.117 70.4709 59.4551 70.2024C59.7931 69.9339 60.0434 69.581 60.2058 69.1435C60.3682 68.706 60.4494 68.232 60.4494 67.7216C60.4494 67.2112 60.3682 66.7356 60.2058 66.2947C60.0434 65.8539 59.7931 65.4976 59.4551 65.2259C59.117 64.9541 58.6861 64.8182 58.1625 64.8182C57.6388 64.8182 57.2079 64.9541 56.8699 65.2259C56.5318 65.4976 56.2815 65.8539 56.1191 66.2947C55.9567 66.7356 55.8755 67.2112 55.8755 67.7216C55.8755 68.232 55.9567 68.706 56.1191 69.1435C56.2815 69.581 56.5318 69.9339 56.8699 70.2024C57.2079 70.4709 57.6388 70.6051 58.1625 70.6051ZM63.4137 71.5V63.8636H64.5472V65.0568H64.6467C64.8058 64.6491 65.0626 64.3326 65.4173 64.1072C65.7719 63.8786 66.1978 63.7642 66.695 63.7642C67.1987 63.7642 67.618 63.8786 67.9528 64.1072C68.2908 64.3326 68.5543 64.6491 68.7433 65.0568H68.8228C69.0183 64.6624 69.3117 64.3492 69.7028 64.1172C70.0939 63.8819 70.5629 63.7642 71.1097 63.7642C71.7925 63.7642 72.351 63.978 72.7852 64.4055C73.2193 64.8298 73.4364 65.491 73.4364 66.3892V71.5H72.2631V66.3892C72.2631 65.8258 72.109 65.4231 71.8008 65.1811C71.4925 64.9392 71.1296 64.8182 70.712 64.8182C70.1751 64.8182 69.7591 64.9806 69.4641 65.3054C69.1692 65.6269 69.0217 66.0346 69.0217 66.5284V71.5H67.8285V66.2699C67.8285 65.8357 67.6876 65.486 67.4059 65.2209C67.1242 64.9524 66.7612 64.8182 66.3171 64.8182C66.0122 64.8182 65.7272 64.8994 65.462 65.0618C65.2002 65.2242 64.988 65.4496 64.8256 65.7379C64.6665 66.023 64.587 66.3527 64.587 66.7273V71.5H63.4137ZM76.6158 61.3182V62.2131C76.6158 62.4848 76.5661 62.7749 76.4666 63.0831C76.3705 63.388 76.228 63.6847 76.0391 63.973C75.8535 64.258 75.6281 64.5066 75.3629 64.7188L74.7266 64.2017C74.9354 63.9034 75.116 63.5935 75.2685 63.272C75.4242 62.9472 75.5021 62.6009 75.5021 62.233V61.3182H76.6158ZM82.4947 65.5739L81.4407 65.8722C81.3744 65.6965 81.2766 65.5258 81.1474 65.3601C81.0214 65.1911 80.8491 65.0518 80.6303 64.9425C80.4116 64.8331 80.1315 64.7784 79.7901 64.7784C79.3228 64.7784 78.9334 64.8861 78.6218 65.1016C78.3136 65.3137 78.1594 65.5838 78.1594 65.9119C78.1594 66.2036 78.2655 66.4339 78.4776 66.603C78.6897 66.772 79.0212 66.9129 79.4719 67.0256L80.6055 67.304C81.2882 67.4697 81.797 67.7232 82.1317 68.0646C82.4665 68.4027 82.6339 68.8385 82.6339 69.3722C82.6339 69.8097 82.5079 70.2008 82.256 70.5455C82.0075 70.8902 81.6594 71.1619 81.212 71.3608C80.7646 71.5597 80.2442 71.6591 79.6509 71.6591C78.872 71.6591 78.2274 71.4901 77.717 71.152C77.2066 70.8139 76.8834 70.3201 76.7475 69.6705L77.8612 69.392C77.9672 69.803 78.1677 70.1113 78.4627 70.3168C78.761 70.5223 79.1504 70.625 79.631 70.625C80.1779 70.625 80.6121 70.509 80.9336 70.277C81.2584 70.0417 81.4208 69.7599 81.4208 69.4318C81.4208 69.1667 81.328 68.9446 81.1424 68.7656C80.9568 68.5833 80.6718 68.4474 80.2873 68.358L79.0146 68.0597C78.3152 67.8939 77.8015 67.6371 77.4734 67.2891C77.1486 66.9377 76.9862 66.4986 76.9862 65.9716C76.9862 65.5407 77.1071 65.1596 77.3491 64.8281C77.5943 64.4967 77.9274 64.2365 78.3484 64.0476C78.7726 63.8587 79.2532 63.7642 79.7901 63.7642C80.5458 63.7642 81.1391 63.9299 81.57 64.2614C82.0041 64.5928 82.3124 65.0303 82.4947 65.5739ZM90.5847 71.679C90.1008 71.679 89.6616 71.5878 89.2672 71.4055C88.8728 71.2199 88.5596 70.9531 88.3276 70.6051C88.0956 70.2538 87.9796 69.8295 87.9796 69.3324C87.9796 68.8949 88.0658 68.5402 88.2381 68.2685C88.4105 67.9934 88.6408 67.7779 88.9292 67.6222C89.2175 67.4664 89.5357 67.3504 89.8837 67.2741C90.235 67.1946 90.588 67.1316 90.9426 67.0852C91.4067 67.0256 91.7828 66.9808 92.0712 66.951C92.3629 66.9179 92.575 66.8632 92.7076 66.7869C92.8435 66.7107 92.9114 66.5781 92.9114 66.3892V66.3494C92.9114 65.8589 92.7772 65.4777 92.5087 65.206C92.2435 64.9342 91.8409 64.7983 91.3006 64.7983C90.7405 64.7983 90.3013 64.9209 89.9831 65.1662C89.665 65.4115 89.4412 65.6733 89.312 65.9517L88.1983 65.554C88.3972 65.09 88.6623 64.7287 88.9938 64.4702C89.3285 64.2083 89.6931 64.026 90.0875 63.9233C90.4853 63.8172 90.8764 63.7642 91.2608 63.7642C91.5061 63.7642 91.7878 63.794 92.106 63.8537C92.4275 63.91 92.7374 64.0277 93.0357 64.2067C93.3373 64.3857 93.5875 64.6558 93.7864 65.017C93.9853 65.3783 94.0847 65.8622 94.0847 66.4688V71.5H92.9114V70.4659H92.8517C92.7722 70.6316 92.6396 70.8089 92.454 70.9979C92.2684 71.1868 92.0215 71.3475 91.7132 71.4801C91.405 71.6127 91.0288 71.679 90.5847 71.679ZM90.7637 70.625C91.2277 70.625 91.6188 70.5339 91.937 70.3516C92.2585 70.1693 92.5004 69.9339 92.6628 69.6456C92.8285 69.3572 92.9114 69.054 92.9114 68.7358V67.6619C92.8617 67.7216 92.7523 67.7763 92.5833 67.826C92.4176 67.8724 92.2253 67.9138 92.0066 67.9503C91.7911 67.9834 91.5807 68.0133 91.3752 68.0398C91.173 68.063 91.0089 68.0829 90.883 68.0994C90.5781 68.1392 90.293 68.2038 90.0279 68.2933C89.766 68.3795 89.5539 68.5104 89.3915 68.6861C89.2324 68.8584 89.1529 69.0937 89.1529 69.392C89.1529 69.7997 89.3037 70.108 89.6053 70.3168C89.9102 70.5223 90.2963 70.625 90.7637 70.625ZM97.3995 61.3182V71.5H96.2262V61.3182H97.3995ZM102.631 74.5227C102.064 74.5227 101.577 74.4498 101.169 74.304C100.762 74.1615 100.422 73.9725 100.15 73.7372C99.8816 73.5052 99.6678 73.2566 99.5087 72.9915L100.443 72.3352C100.549 72.4744 100.684 72.6335 100.846 72.8125C101.008 72.9948 101.231 73.1522 101.512 73.2848C101.797 73.4207 102.17 73.4886 102.631 73.4886C103.247 73.4886 103.756 73.3395 104.157 73.0412C104.558 72.7429 104.759 72.2756 104.759 71.6392V70.0881H104.659C104.573 70.2273 104.45 70.3996 104.291 70.6051C104.136 70.8073 103.91 70.9879 103.615 71.147C103.324 71.3028 102.929 71.3807 102.432 71.3807C101.816 71.3807 101.262 71.2348 100.771 70.9432C100.284 70.6515 99.8981 70.2273 99.6131 69.6705C99.3314 69.1136 99.1905 68.4375 99.1905 67.642C99.1905 66.8598 99.3281 66.1787 99.6032 65.5987C99.8783 65.0154 100.261 64.5646 100.752 64.2464C101.242 63.925 101.809 63.7642 102.452 63.7642C102.949 63.7642 103.343 63.8471 103.635 64.0128C103.93 64.1752 104.155 64.3608 104.311 64.5696C104.47 64.7751 104.593 64.9441 104.679 65.0767H104.798V63.8636H105.932V71.7188C105.932 72.375 105.783 72.9086 105.485 73.3196C105.19 73.7339 104.792 74.0372 104.291 74.2294C103.794 74.425 103.241 74.5227 102.631 74.5227ZM102.591 70.3267C103.062 70.3267 103.459 70.219 103.784 70.0036C104.109 69.7881 104.356 69.4782 104.525 69.0739C104.694 68.6695 104.779 68.1856 104.779 67.6222C104.779 67.072 104.696 66.5864 104.53 66.1655C104.364 65.7446 104.119 65.4148 103.794 65.1761C103.469 64.9375 103.068 64.8182 102.591 64.8182C102.094 64.8182 101.68 64.9441 101.348 65.196C101.02 65.4479 100.773 65.786 100.607 66.2102C100.445 66.6345 100.364 67.1051 100.364 67.6222C100.364 68.1525 100.447 68.6214 100.612 69.0291C100.781 69.4335 101.03 69.7517 101.358 69.9837C101.69 70.2124 102.101 70.3267 102.591 70.3267ZM111.182 71.6591C110.493 71.6591 109.888 71.495 109.367 71.1669C108.85 70.8388 108.446 70.3797 108.154 69.7898C107.866 69.1998 107.722 68.5104 107.722 67.7216C107.722 66.9261 107.866 66.2318 108.154 65.6385C108.446 65.0452 108.85 64.5845 109.367 64.2564C109.888 63.9283 110.493 63.7642 111.182 63.7642C111.871 63.7642 112.475 63.9283 112.992 64.2564C113.512 64.5845 113.916 65.0452 114.205 65.6385C114.496 66.2318 114.642 66.9261 114.642 67.7216C114.642 68.5104 114.496 69.1998 114.205 69.7898C113.916 70.3797 113.512 70.8388 112.992 71.1669C112.475 71.495 111.871 71.6591 111.182 71.6591ZM111.182 70.6051C111.706 70.6051 112.137 70.4709 112.475 70.2024C112.813 69.9339 113.063 69.581 113.225 69.1435C113.388 68.706 113.469 68.232 113.469 67.7216C113.469 67.2112 113.388 66.7356 113.225 66.2947C113.063 65.8539 112.813 65.4976 112.475 65.2259C112.137 64.9541 111.706 64.8182 111.182 64.8182C110.658 64.8182 110.227 64.9541 109.889 65.2259C109.551 65.4976 109.301 65.8539 109.139 66.2947C108.976 66.7356 108.895 67.2112 108.895 67.7216C108.895 68.232 108.976 68.706 109.139 69.1435C109.301 69.581 109.551 69.9339 109.889 70.2024C110.227 70.4709 110.658 70.6051 111.182 70.6051ZM116.433 71.5V63.8636H117.567V65.017H117.646C117.786 64.6392 118.037 64.3326 118.402 64.0973C118.767 63.862 119.178 63.7443 119.635 63.7443C119.721 63.7443 119.829 63.746 119.958 63.7493C120.087 63.7526 120.185 63.7576 120.251 63.7642V64.9574C120.212 64.9474 120.121 64.9325 119.978 64.9126C119.839 64.8894 119.691 64.8778 119.536 64.8778C119.164 64.8778 118.833 64.9557 118.541 65.1115C118.253 65.264 118.024 65.4761 117.855 65.7479C117.689 66.0163 117.607 66.3229 117.607 66.6676V71.5H116.433ZM121.642 71.5V63.8636H122.816V71.5H121.642ZM122.239 62.5909C122.01 62.5909 121.813 62.513 121.647 62.3572C121.485 62.2015 121.404 62.0142 121.404 61.7955C121.404 61.5767 121.485 61.3894 121.647 61.2337C121.813 61.0779 122.01 61 122.239 61C122.468 61 122.663 61.0779 122.825 61.2337C122.991 61.3894 123.074 61.5767 123.074 61.7955C123.074 62.0142 122.991 62.2015 122.825 62.3572C122.663 62.513 122.468 62.5909 122.239 62.5909ZM128.286 63.8636V64.858H124.328V63.8636H128.286ZM125.482 62.0341H126.655V69.3125C126.655 69.6439 126.703 69.8925 126.799 70.0582C126.898 70.2206 127.024 70.33 127.177 70.3864C127.333 70.4394 127.497 70.4659 127.669 70.4659C127.798 70.4659 127.904 70.4593 127.987 70.446C128.07 70.4295 128.136 70.4162 128.186 70.4062L128.425 71.4602C128.345 71.4901 128.234 71.5199 128.092 71.5497C127.949 71.5829 127.768 71.5994 127.55 71.5994C127.218 71.5994 126.893 71.5282 126.575 71.3857C126.26 71.2431 125.999 71.026 125.79 70.7344C125.584 70.4427 125.482 70.0748 125.482 69.6307V62.0341ZM131.388 66.9062V71.5H130.214V61.3182H131.388V65.0568H131.487C131.666 64.6624 131.935 64.3492 132.293 64.1172C132.654 63.8819 133.134 63.7642 133.734 63.7642C134.255 63.7642 134.71 63.8686 135.102 64.0774C135.493 64.2829 135.796 64.5994 136.011 65.027C136.23 65.4512 136.339 65.9915 136.339 66.6477V71.5H135.166V66.7273C135.166 66.1207 135.009 65.6518 134.694 65.3203C134.382 64.9856 133.95 64.8182 133.396 64.8182C133.012 64.8182 132.667 64.8994 132.362 65.0618C132.061 65.2242 131.822 65.4612 131.646 65.7727C131.474 66.0843 131.388 66.4621 131.388 66.9062ZM138.486 71.5V63.8636H139.619V65.0568H139.719C139.878 64.6491 140.135 64.3326 140.49 64.1072C140.844 63.8786 141.27 63.7642 141.767 63.7642C142.271 63.7642 142.69 63.8786 143.025 64.1072C143.363 64.3326 143.627 64.6491 143.816 65.0568H143.895C144.091 64.6624 144.384 64.3492 144.775 64.1172C145.166 63.8819 145.635 63.7642 146.182 63.7642C146.865 63.7642 147.423 63.978 147.857 64.4055C148.292 64.8298 148.509 65.491 148.509 66.3892V71.5H147.335V66.3892C147.335 65.8258 147.181 65.4231 146.873 65.1811C146.565 64.9392 146.202 64.8182 145.784 64.8182C145.247 64.8182 144.831 64.9806 144.536 65.3054C144.241 65.6269 144.094 66.0346 144.094 66.5284V71.5H142.901V66.2699C142.901 65.8357 142.76 65.486 142.478 65.2209C142.196 64.9524 141.834 64.8182 141.389 64.8182C141.084 64.8182 140.799 64.8994 140.534 65.0618C140.272 65.2242 140.06 65.4496 139.898 65.7379C139.739 66.023 139.659 66.3527 139.659 66.7273V71.5H138.486ZM151.509 71.5795C151.264 71.5795 151.053 71.4917 150.878 71.3161C150.702 71.1404 150.614 70.9299 150.614 70.6847C150.614 70.4394 150.702 70.2289 150.878 70.0533C151.053 69.8776 151.264 69.7898 151.509 69.7898C151.754 69.7898 151.965 69.8776 152.14 70.0533C152.316 70.2289 152.404 70.4394 152.404 70.6847C152.404 70.8471 152.363 70.9962 152.28 71.1321C152.2 71.268 152.092 71.3774 151.956 71.4602C151.824 71.5398 151.675 71.5795 151.509 71.5795Z" fill="#333333"/>
<rect x="0.5" y="1" width="273" height="88" rx="3.5" stroke="white"/>
<defs>
<clipPath id="clip0_11640_104028">
<rect width="16" height="16" fill="white" transform="translate(16 17.5)"/>
</clipPath>
</defs>
</svg>
