<svg width="293" height="71" viewBox="0 0 293 71" fill="none" xmlns="http://www.w3.org/2000/svg">
<path d="M6.53764 3.61719C6.49124 3.183 6.29569 2.84493 5.95099 2.60298C5.60961 2.36103 5.16548 2.24006 4.61861 2.24006C4.23414 2.24006 3.90436 2.29806 3.62926 2.41406C3.35417 2.53007 3.1437 2.6875 2.99787 2.88636C2.85204 3.08523 2.77746 3.31226 2.77415 3.56747C2.77415 3.77959 2.82221 3.96354 2.91832 4.11932C3.01776 4.27509 3.15199 4.40767 3.32102 4.51705C3.49006 4.62311 3.67732 4.71259 3.88281 4.78551C4.08831 4.85843 4.29545 4.91974 4.50426 4.96946L5.45881 5.2081C5.84328 5.29758 6.21283 5.41856 6.56747 5.57102C6.92543 5.72348 7.24527 5.91572 7.52699 6.14773C7.81203 6.37973 8.03741 6.6598 8.20312 6.98793C8.36884 7.31605 8.4517 7.70052 8.4517 8.14134C8.4517 8.73793 8.29924 9.26326 7.99432 9.71733C7.68939 10.1681 7.24858 10.5211 6.67188 10.7763C6.09848 11.0282 5.40412 11.1541 4.58878 11.1541C3.79664 11.1541 3.1089 11.0315 2.52557 10.7862C1.94555 10.541 1.49148 10.183 1.16335 9.71236C0.838542 9.24171 0.662879 8.66832 0.636364 7.99219H2.45099C2.47751 8.34683 2.58688 8.64181 2.77912 8.87713C2.97135 9.11245 3.22159 9.28812 3.52983 9.40412C3.84138 9.52012 4.18939 9.57812 4.57386 9.57812C4.97491 9.57812 5.32623 9.51847 5.62784 9.39915C5.93277 9.27652 6.1714 9.10748 6.34375 8.89205C6.5161 8.6733 6.60393 8.41809 6.60724 8.12642C6.60393 7.86127 6.52604 7.64252 6.37358 7.47017C6.22112 7.29451 6.00734 7.14867 5.73224 7.03267C5.46046 6.91335 5.14228 6.80729 4.7777 6.71449L3.61932 6.41619C2.78078 6.20076 2.1179 5.87429 1.63068 5.43679C1.14678 4.99598 0.90483 4.41098 0.90483 3.68182C0.90483 3.08191 1.06723 2.55658 1.39205 2.10582C1.72017 1.65507 2.16596 1.3054 2.7294 1.05682C3.29285 0.804924 3.93087 0.678977 4.64347 0.678977C5.366 0.678977 5.99905 0.804924 6.54261 1.05682C7.08949 1.3054 7.5187 1.65175 7.83026 2.09588C8.14181 2.53669 8.30256 3.0438 8.3125 3.61719H6.53764ZM13.3972 11.1491C12.6316 11.1491 11.9703 10.9901 11.4135 10.6719C10.86 10.3504 10.4341 9.89631 10.1358 9.30966C9.83754 8.7197 9.68839 8.02533 9.68839 7.22656C9.68839 6.44105 9.83754 5.75166 10.1358 5.15838C10.4374 4.56179 10.8584 4.09777 11.3986 3.76633C11.9389 3.43158 12.5736 3.2642 13.3027 3.2642C13.7734 3.2642 14.2175 3.34044 14.6351 3.4929C15.056 3.64205 15.4273 3.87405 15.7488 4.18892C16.0736 4.50379 16.3288 4.90483 16.5144 5.39205C16.7 5.87595 16.7928 6.45265 16.7928 7.12216V7.67401H10.5336V6.46094H15.0676C15.0643 6.11624 14.9898 5.80966 14.8439 5.54119C14.6981 5.26941 14.4943 5.05563 14.2324 4.89986C13.9739 4.74408 13.6723 4.66619 13.3276 4.66619C12.9597 4.66619 12.6365 4.75568 12.3581 4.93466C12.0797 5.11032 11.8626 5.34233 11.7069 5.63068C11.5544 5.91572 11.4765 6.22893 11.4732 6.57031V7.62926C11.4732 8.07339 11.5544 8.45455 11.7168 8.77273C11.8792 9.08759 12.1062 9.32955 12.3979 9.49858C12.6896 9.6643 13.031 9.74716 13.4221 9.74716C13.6839 9.74716 13.9209 9.7107 14.133 9.63778C14.3451 9.56155 14.5291 9.45052 14.6848 9.30469C14.8406 9.15885 14.9583 8.97822 15.0378 8.76278L16.7182 8.9517C16.6122 9.39583 16.41 9.78362 16.1117 10.1151C15.8167 10.4432 15.4389 10.6984 14.9782 10.8807C14.5175 11.0597 13.9905 11.1491 13.3972 11.1491ZM20.1151 0.818182V11H18.3153V0.818182H20.1151ZM25.3464 11.1491C24.5808 11.1491 23.9196 10.9901 23.3627 10.6719C22.8092 10.3504 22.3833 9.89631 22.085 9.30966C21.7868 8.7197 21.6376 8.02533 21.6376 7.22656C21.6376 6.44105 21.7868 5.75166 22.085 5.15838C22.3867 4.56179 22.8076 4.09777 23.3478 3.76633C23.8881 3.43158 24.5228 3.2642 25.252 3.2642C25.7226 3.2642 26.1667 3.34044 26.5843 3.4929C27.0053 3.64205 27.3765 3.87405 27.698 4.18892C28.0228 4.50379 28.278 4.90483 28.4636 5.39205C28.6492 5.87595 28.742 6.45265 28.742 7.12216V7.67401H22.4828V6.46094H27.0169C27.0136 6.11624 26.939 5.80966 26.7931 5.54119C26.6473 5.26941 26.4435 5.05563 26.1816 4.89986C25.9231 4.74408 25.6215 4.66619 25.2768 4.66619C24.9089 4.66619 24.5858 4.75568 24.3074 4.93466C24.0289 5.11032 23.8118 5.34233 23.6561 5.63068C23.5036 5.91572 23.4257 6.22893 23.4224 6.57031V7.62926C23.4224 8.07339 23.5036 8.45455 23.666 8.77273C23.8284 9.08759 24.0555 9.32955 24.3471 9.49858C24.6388 9.6643 24.9802 9.74716 25.3713 9.74716C25.6331 9.74716 25.8701 9.7107 26.0822 9.63778C26.2943 9.56155 26.4783 9.45052 26.6341 9.30469C26.7898 9.15885 26.9075 8.97822 26.987 8.76278L28.6674 8.9517C28.5614 9.39583 28.3592 9.78362 28.0609 10.1151C27.7659 10.4432 27.3881 10.6984 26.9274 10.8807C26.4667 11.0597 25.9397 11.1491 25.3464 11.1491ZM33.5955 11.1491C32.8332 11.1491 32.1786 10.9818 31.6317 10.647C31.0882 10.3123 30.6689 9.84991 30.3739 9.25994C30.0823 8.66667 29.9364 7.9839 29.9364 7.21165C29.9364 6.43608 30.0856 5.75166 30.3839 5.15838C30.6822 4.56179 31.1031 4.09777 31.6467 3.76633C32.1935 3.43158 32.8398 3.2642 33.5856 3.2642C34.2054 3.2642 34.7539 3.37855 35.2312 3.60724C35.7118 3.83262 36.0946 4.15246 36.3796 4.56676C36.6647 4.97775 36.8271 5.45833 36.8668 6.00852H35.1467C35.0771 5.64062 34.9113 5.33404 34.6495 5.08878C34.391 4.8402 34.0446 4.71591 33.6104 4.71591C33.2425 4.71591 32.9194 4.81534 32.641 5.0142C32.3626 5.20975 32.1455 5.49148 31.9897 5.85938C31.8372 6.22727 31.761 6.66809 31.761 7.18182C31.761 7.70218 31.8372 8.14962 31.9897 8.52415C32.1422 8.89536 32.3559 9.18205 32.631 9.38423C32.9094 9.5831 33.2359 9.68253 33.6104 9.68253C33.8756 9.68253 34.1126 9.63281 34.3214 9.53338C34.5335 9.43063 34.7108 9.28314 34.8533 9.09091C34.9959 8.89867 35.0936 8.66501 35.1467 8.38991H36.8668C36.8237 8.93016 36.6647 9.40909 36.3896 9.8267C36.1145 10.241 35.7399 10.5658 35.266 10.8011C34.792 11.0331 34.2352 11.1491 33.5955 11.1491ZM42.1578 3.36364V4.75568H37.7679V3.36364H42.1578ZM38.8517 1.53409H40.6515V8.70312C40.6515 8.94508 40.6879 9.13068 40.7608 9.25994C40.8371 9.38589 40.9365 9.47206 41.0591 9.51847C41.1818 9.56487 41.3176 9.58807 41.4668 9.58807C41.5795 9.58807 41.6822 9.57978 41.775 9.56321C41.8712 9.54664 41.9441 9.53172 41.9938 9.51847L42.2971 10.9254C42.2009 10.9586 42.0634 10.995 41.8844 11.0348C41.7087 11.0746 41.4933 11.0978 41.2381 11.1044C40.7873 11.1177 40.3813 11.0497 40.0201 10.9006C39.6588 10.7481 39.3721 10.5128 39.16 10.1946C38.9512 9.87642 38.8484 9.47869 38.8517 9.00142V1.53409ZM51.0036 3.36364V4.75568H46.4893V3.36364H51.0036ZM47.6179 11V2.64276C47.6179 2.12902 47.724 1.70147 47.9361 1.36008C48.1515 1.0187 48.4399 0.763494 48.8011 0.59446C49.1624 0.425426 49.5634 0.340908 50.0043 0.340908C50.3158 0.340908 50.5926 0.365767 50.8345 0.415483C51.0765 0.465199 51.2554 0.509943 51.3714 0.549716L51.0135 1.94176C50.9373 1.91856 50.8411 1.89536 50.7251 1.87216C50.6091 1.84564 50.4799 1.83239 50.3374 1.83239C50.0026 1.83239 49.7656 1.91359 49.6264 2.07599C49.4905 2.23508 49.4226 2.46378 49.4226 2.76207V11H47.6179ZM52.413 11V3.36364H54.2127V11H52.413ZM53.3178 2.27983C53.0328 2.27983 52.7875 2.18537 52.582 1.99645C52.3765 1.80421 52.2738 1.57386 52.2738 1.3054C52.2738 1.03362 52.3765 0.803267 52.582 0.614346C52.7875 0.422111 53.0328 0.325994 53.3178 0.325994C53.6062 0.325994 53.8514 0.422111 54.0536 0.614346C54.2591 0.803267 54.3619 1.03362 54.3619 1.3054C54.3619 1.57386 54.2591 1.80421 54.0536 1.99645C53.8514 2.18537 53.6062 2.27983 53.3178 2.27983ZM59.4441 11.1491C58.6784 11.1491 58.0172 10.9901 57.4604 10.6719C56.9069 10.3504 56.481 9.89631 56.1827 9.30966C55.8844 8.7197 55.7353 8.02533 55.7353 7.22656C55.7353 6.44105 55.8844 5.75166 56.1827 5.15838C56.4843 4.56179 56.9052 4.09777 57.4455 3.76633C57.9857 3.43158 58.6204 3.2642 59.3496 3.2642C59.8203 3.2642 60.2644 3.34044 60.682 3.4929C61.1029 3.64205 61.4741 3.87405 61.7956 4.18892C62.1204 4.50379 62.3757 4.90483 62.5613 5.39205C62.7469 5.87595 62.8397 6.45265 62.8397 7.12216V7.67401H56.5804V6.46094H61.1145C61.1112 6.11624 61.0366 5.80966 60.8908 5.54119C60.745 5.26941 60.5411 5.05563 60.2793 4.89986C60.0208 4.74408 59.7192 4.66619 59.3745 4.66619C59.0066 4.66619 58.6834 4.75568 58.405 4.93466C58.1266 5.11032 57.9095 5.34233 57.7537 5.63068C57.6013 5.91572 57.5234 6.22893 57.5201 6.57031V7.62926C57.5201 8.07339 57.6013 8.45455 57.7637 8.77273C57.9261 9.08759 58.1531 9.32955 58.4448 9.49858C58.7364 9.6643 59.0778 9.74716 59.4689 9.74716C59.7308 9.74716 59.9677 9.7107 60.1799 9.63778C60.392 9.56155 60.5759 9.45052 60.7317 9.30469C60.8875 9.15885 61.0051 8.97822 61.0847 8.76278L62.7651 8.9517C62.659 9.39583 62.4569 9.78362 62.1586 10.1151C61.8636 10.4432 61.4857 10.6984 61.025 10.8807C60.5643 11.0597 60.0373 11.1491 59.4441 11.1491ZM66.1619 0.818182V11H64.3622V0.818182H66.1619ZM70.8464 11.1342C70.2465 11.1342 69.7096 10.9801 69.2356 10.6719C68.7617 10.3636 68.3871 9.91619 68.112 9.32955C67.8369 8.7429 67.6994 8.0303 67.6994 7.19176C67.6994 6.34328 67.8386 5.62737 68.117 5.04403C68.3987 4.45739 68.7782 4.01491 69.2555 3.71662C69.7328 3.41501 70.2647 3.2642 70.8514 3.2642C71.2988 3.2642 71.6667 3.34044 71.9551 3.4929C72.2434 3.64205 72.4721 3.82268 72.6412 4.0348C72.8102 4.24361 72.9411 4.44081 73.0339 4.62642H73.1085V0.818182H74.9132V11H73.1433V9.79688H73.0339C72.9411 9.98248 72.8069 10.1797 72.6312 10.3885C72.4556 10.594 72.2235 10.7696 71.9352 10.9155C71.6468 11.0613 71.2839 11.1342 70.8464 11.1342ZM71.3485 9.65767C71.7297 9.65767 72.0545 9.55492 72.323 9.34943C72.5914 9.14062 72.7953 8.85062 72.9345 8.4794C73.0737 8.10819 73.1433 7.67566 73.1433 7.18182C73.1433 6.68797 73.0737 6.25876 72.9345 5.89418C72.7986 5.52959 72.5964 5.24621 72.3279 5.04403C72.0628 4.84186 71.7363 4.74077 71.3485 4.74077C70.9475 4.74077 70.6127 4.84517 70.3443 5.05398C70.0758 5.26278 69.8736 5.55114 69.7377 5.91903C69.6019 6.28693 69.5339 6.70786 69.5339 7.18182C69.5339 7.65909 69.6019 8.08499 69.7377 8.45952C69.877 8.83073 70.0808 9.12405 70.3493 9.33949C70.621 9.55161 70.9541 9.65767 71.3485 9.65767Z" fill="#333333"/>
<rect x="0.5" y="23.5" width="292" height="47" rx="3.5" fill="white"/>
<path d="M19.7727 44.2727C19.7045 43.697 19.428 43.25 18.9432 42.9318C18.4583 42.6136 17.8636 42.4545 17.1591 42.4545C16.6439 42.4545 16.1932 42.5379 15.8068 42.7045C15.4242 42.8712 15.125 43.1004 14.9091 43.392C14.697 43.6837 14.5909 44.0152 14.5909 44.3864C14.5909 44.697 14.6648 44.964 14.8125 45.1875C14.964 45.4072 15.1572 45.5909 15.392 45.7386C15.6269 45.8826 15.8731 46.0019 16.1307 46.0966C16.3883 46.1875 16.625 46.2614 16.8409 46.3182L18.0227 46.6364C18.3258 46.7159 18.6629 46.8258 19.0341 46.9659C19.4091 47.1061 19.767 47.2973 20.108 47.5398C20.4527 47.7784 20.7367 48.0852 20.9602 48.4602C21.1837 48.8352 21.2955 49.2955 21.2955 49.8409C21.2955 50.4697 21.1307 51.0379 20.8011 51.5455C20.4754 52.053 19.9981 52.4564 19.3693 52.7557C18.7443 53.0549 17.9848 53.2045 17.0909 53.2045C16.2576 53.2045 15.536 53.0701 14.9261 52.8011C14.3201 52.5322 13.8428 52.1572 13.4943 51.6761C13.1496 51.1951 12.9545 50.6364 12.9091 50H14.3636C14.4015 50.4394 14.5492 50.803 14.8068 51.0909C15.0682 51.375 15.3977 51.5871 15.7955 51.7273C16.197 51.8636 16.6288 51.9318 17.0909 51.9318C17.6288 51.9318 18.1117 51.8447 18.5398 51.6705C18.9678 51.4924 19.3068 51.2462 19.5568 50.9318C19.8068 50.6136 19.9318 50.2424 19.9318 49.8182C19.9318 49.4318 19.8239 49.1174 19.608 48.875C19.392 48.6326 19.108 48.4356 18.7557 48.2841C18.4034 48.1326 18.0227 48 17.6136 47.8864L16.1818 47.4773C15.2727 47.2159 14.553 46.8428 14.0227 46.358C13.4924 45.8731 13.2273 45.2386 13.2273 44.4545C13.2273 43.803 13.4034 43.2348 13.7557 42.75C14.1117 42.2614 14.589 41.8826 15.1875 41.6136C15.7898 41.3409 16.4621 41.2045 17.2045 41.2045C17.9545 41.2045 18.6212 41.339 19.2045 41.608C19.7879 41.8731 20.25 42.2367 20.5909 42.6989C20.9356 43.161 21.1174 43.6856 21.1364 44.2727H19.7727ZM27.0895 53.1818C26.2486 53.1818 25.5232 52.9962 24.9134 52.625C24.3073 52.25 23.8395 51.7273 23.5099 51.0568C23.1842 50.3826 23.0213 49.5985 23.0213 48.7045C23.0213 47.8106 23.1842 47.0227 23.5099 46.3409C23.8395 45.6553 24.2978 45.1212 24.8849 44.7386C25.4759 44.3523 26.1652 44.1591 26.9531 44.1591C27.4077 44.1591 27.8565 44.2348 28.2997 44.3864C28.7429 44.5379 29.1463 44.7841 29.5099 45.125C29.8736 45.4621 30.1634 45.9091 30.3793 46.4659C30.5952 47.0227 30.7031 47.7083 30.7031 48.5227V49.0909H23.9759V47.9318H29.3395C29.3395 47.4394 29.241 47 29.044 46.6136C28.8509 46.2273 28.5743 45.9223 28.2145 45.6989C27.8584 45.4754 27.438 45.3636 26.9531 45.3636C26.419 45.3636 25.9569 45.4962 25.5668 45.7614C25.1804 46.0227 24.883 46.3636 24.6747 46.7841C24.4664 47.2045 24.3622 47.6553 24.3622 48.1364V48.9091C24.3622 49.5682 24.4759 50.1269 24.7031 50.5852C24.9342 51.0398 25.2543 51.3864 25.6634 51.625C26.0724 51.8598 26.5478 51.9773 27.0895 51.9773C27.4418 51.9773 27.7599 51.928 28.044 51.8295C28.3319 51.7273 28.58 51.5758 28.7884 51.375C28.9967 51.1705 29.1577 50.9167 29.2713 50.6136L30.5668 50.9773C30.4304 51.4167 30.2012 51.803 29.8793 52.1364C29.5573 52.4659 29.1596 52.7235 28.6861 52.9091C28.2126 53.0909 27.6804 53.1818 27.0895 53.1818ZM34.0838 41.3636V53H32.7429V41.3636H34.0838ZM40.1989 53.1818C39.358 53.1818 38.6326 52.9962 38.0227 52.625C37.4167 52.25 36.9489 51.7273 36.6193 51.0568C36.2936 50.3826 36.1307 49.5985 36.1307 48.7045C36.1307 47.8106 36.2936 47.0227 36.6193 46.3409C36.9489 45.6553 37.4072 45.1212 37.9943 44.7386C38.5852 44.3523 39.2746 44.1591 40.0625 44.1591C40.517 44.1591 40.9659 44.2348 41.4091 44.3864C41.8523 44.5379 42.2557 44.7841 42.6193 45.125C42.983 45.4621 43.2727 45.9091 43.4886 46.4659C43.7045 47.0227 43.8125 47.7083 43.8125 48.5227V49.0909H37.0852V47.9318H42.4489C42.4489 47.4394 42.3504 47 42.1534 46.6136C41.9602 46.2273 41.6837 45.9223 41.3239 45.6989C40.9678 45.4754 40.5473 45.3636 40.0625 45.3636C39.5284 45.3636 39.0663 45.4962 38.6761 45.7614C38.2898 46.0227 37.9924 46.3636 37.7841 46.7841C37.5758 47.2045 37.4716 47.6553 37.4716 48.1364V48.9091C37.4716 49.5682 37.5852 50.1269 37.8125 50.5852C38.0436 51.0398 38.3636 51.3864 38.7727 51.625C39.1818 51.8598 39.6572 51.9773 40.1989 51.9773C40.5511 51.9773 40.8693 51.928 41.1534 51.8295C41.4413 51.7273 41.6894 51.5758 41.8977 51.375C42.1061 51.1705 42.267 50.9167 42.3807 50.6136L43.6761 50.9773C43.5398 51.4167 43.3106 51.803 42.9886 52.1364C42.6667 52.4659 42.2689 52.7235 41.7955 52.9091C41.322 53.0909 40.7898 53.1818 40.1989 53.1818ZM49.3977 53.1818C48.5795 53.1818 47.875 52.9886 47.2841 52.6023C46.6932 52.2159 46.2386 51.6837 45.9205 51.0057C45.6023 50.3277 45.4432 49.553 45.4432 48.6818C45.4432 47.7955 45.6061 47.0133 45.9318 46.3352C46.2614 45.6534 46.7197 45.1212 47.3068 44.7386C47.8977 44.3523 48.5871 44.1591 49.375 44.1591C49.9886 44.1591 50.5417 44.2727 51.0341 44.5C51.5265 44.7273 51.9299 45.0455 52.2443 45.4545C52.5587 45.8636 52.7538 46.3409 52.8295 46.8864H51.4886C51.3864 46.4886 51.1591 46.1364 50.8068 45.8295C50.4583 45.5189 49.9886 45.3636 49.3977 45.3636C48.875 45.3636 48.4167 45.5 48.0227 45.7727C47.6326 46.0417 47.3277 46.4223 47.108 46.9148C46.892 47.4034 46.7841 47.9773 46.7841 48.6364C46.7841 49.3106 46.8902 49.8977 47.1023 50.3977C47.3182 50.8977 47.6212 51.286 48.0114 51.5625C48.4053 51.839 48.8674 51.9773 49.3977 51.9773C49.7462 51.9773 50.0625 51.9167 50.3466 51.7955C50.6307 51.6742 50.8712 51.5 51.0682 51.2727C51.2652 51.0455 51.4053 50.7727 51.4886 50.4545H52.8295C52.7538 50.9697 52.5663 51.4337 52.267 51.8466C51.9716 52.2557 51.5795 52.5814 51.0909 52.8239C50.6061 53.0625 50.0417 53.1818 49.3977 53.1818ZM58.5852 44.2727V45.4091H54.0625V44.2727H58.5852ZM55.3807 42.1818H56.7216V50.5C56.7216 50.8788 56.7765 51.1629 56.8864 51.3523C57 51.5379 57.1439 51.6629 57.3182 51.7273C57.4962 51.7879 57.6837 51.8182 57.8807 51.8182C58.0284 51.8182 58.1496 51.8106 58.2443 51.7955C58.339 51.7765 58.4148 51.7614 58.4716 51.75L58.7443 52.9545C58.6534 52.9886 58.5265 53.0227 58.3636 53.0568C58.2008 53.0947 57.9943 53.1136 57.7443 53.1136C57.3655 53.1136 56.9943 53.0322 56.6307 52.8693C56.2708 52.7064 55.9716 52.4583 55.733 52.125C55.4981 51.7917 55.3807 51.3712 55.3807 50.8636V42.1818Z" fill="#1F1F1F"/>
<path d="M271 50.2751C270.8 50.2751 270.6 50.2001 270.45 50.0501L265.45 45.0501C265.15 44.7501 265.15 44.2501 265.45 43.9501C265.75 43.6501 266.25 43.6501 266.55 43.9501L271 48.4001L275.45 43.9501C275.75 43.6501 276.25 43.6501 276.55 43.9501C276.85 44.2501 276.85 44.7501 276.55 45.0501L271.55 50.0501C271.4 50.2001 271.2 50.2751 271 50.2751Z" fill="#757575"/>
<rect x="0.5" y="23.5" width="292" height="47" rx="3.5" stroke="#545454"/>
</svg>
