<svg width="232" height="196" fill="none" xmlns="http://www.w3.org/2000/svg"><g filter="url(#a)"><rect x="6" y="3" width="220" height="184" rx="4" fill="#fff"/><rect x="18.5" y="15.5" width="195" height="39" rx="3.5" fill="#fff"/><path d="M37.77 32.27a1.78 1.78 0 0 0-.83-1.34 3.18 3.18 0 0 0-1.78-.48c-.52 0-.97.09-1.35.25-.39.17-.69.4-.9.7a1.65 1.65 0 0 0-.1 1.79c.15.22.35.4.58.55.24.14.48.26.74.36l.71.22 1.18.32c.3.08.64.19 1.01.33.38.14.74.33 1.08.57a2.65 2.65 0 0 1 1.19 2.3c0 .63-.17 1.2-.5 1.7-.32.51-.8.92-1.43 1.22-.63.3-1.39.44-2.28.44a5.3 5.3 0 0 1-2.16-.4A3.2 3.2 0 0 1 30.9 38h1.45c.04.44.19.8.45 1.1.26.27.59.49.99.63a4 4 0 0 0 1.3.2c.53 0 1.01-.09 1.44-.26.43-.18.77-.42 1.02-.74s.37-.69.37-1.11c0-.39-.1-.7-.32-.95-.22-.24-.5-.43-.85-.59a8.95 8.95 0 0 0-1.15-.4l-1.43-.4a5.33 5.33 0 0 1-2.16-1.12 2.46 2.46 0 0 1-.8-1.9c0-.66.18-1.23.54-1.71.35-.49.83-.87 1.43-1.14.6-.27 1.27-.4 2.01-.4.75 0 1.42.13 2 .4a3.5 3.5 0 0 1 1.4 1.09c.34.46.52.99.54 1.57h-1.37Zm7.32 8.91a3.74 3.74 0 0 1-3.58-2.13 5.35 5.35 0 0 1-.49-2.35c0-.89.16-1.68.49-2.36a3.7 3.7 0 0 1 3.44-2.18c.46 0 .9.07 1.35.23a3.34 3.34 0 0 1 2.08 2.08c.22.55.32 1.24.32 2.05v.57h-6.72v-1.16h5.36c0-.5-.1-.93-.3-1.32a2.23 2.23 0 0 0-2.09-1.25c-.53 0-1 .14-1.38.4-.39.26-.69.6-.9 1.02a3 3 0 0 0-.3 1.36v.77c0 .66.1 1.22.33 1.68.23.45.55.8.96 1.03.41.24.89.36 1.43.36.35 0 .67-.05.95-.15.3-.1.54-.25.75-.45.2-.21.37-.46.48-.77l1.3.37a2.9 2.9 0 0 1-.7 1.16c-.31.33-.71.58-1.18.77-.48.18-1.01.27-1.6.27Zm8.22.02c-.55 0-1.05-.1-1.5-.3a2.63 2.63 0 0 1-1.08-.92c-.26-.4-.4-.89-.4-1.46 0-.5.1-.9.3-1.21.2-.32.46-.56.79-.74.33-.18.7-.31 1.09-.4.4-.09.8-.16 1.21-.22l1.29-.15c.33-.04.58-.1.73-.19.15-.08.23-.23.23-.45v-.05c0-.56-.15-1-.46-1.3-.3-.31-.76-.47-1.38-.47a2.39 2.39 0 0 0-2.27 1.32l-1.28-.46a3.06 3.06 0 0 1 2.16-1.86 5.19 5.19 0 0 1 2.31-.08c.37.07.72.2 1.06.4.35.2.63.52.86.93.23.41.34.97.34 1.66V41h-1.34v-1.18h-.07a2.62 2.62 0 0 1-1.3 1.16c-.35.15-.78.22-1.29.22Zm.2-1.2c.54 0 .98-.1 1.35-.31a2.13 2.13 0 0 0 1.11-1.85v-1.23a.93.93 0 0 1-.37.2c-.2.04-.41.1-.66.13a29.88 29.88 0 0 1-1.29.17c-.35.05-.67.12-.98.23-.3.1-.54.24-.72.44-.18.2-.28.47-.28.81 0 .47.18.82.52 1.06.35.23.8.35 1.33.35Zm6.25 1v-8.73h1.3v1.32h.08c.16-.43.45-.78.87-1.05s.88-.4 1.4-.4a15.24 15.24 0 0 1 .71.02v1.36a4.02 4.02 0 0 0-.82-.09c-.42 0-.8.1-1.13.27a1.96 1.96 0 0 0-1.07 1.78V41h-1.34Zm9.23.18a3.8 3.8 0 0 1-2.11-.58A3.78 3.78 0 0 1 65.5 39a5.4 5.4 0 0 1-.47-2.32c0-.88.16-1.67.49-2.34a3.7 3.7 0 0 1 3.44-2.18c.61 0 1.17.11 1.66.34a2.98 2.98 0 0 1 1.8 2.39h-1.35a2.04 2.04 0 0 0-2.1-1.52c-.51 0-.97.13-1.36.4-.4.27-.7.65-.92 1.14a4.23 4.23 0 0 0-.32 1.73c0 .67.1 1.26.32 1.76.21.5.52.89.9 1.16.4.28.86.42 1.4.42.34 0 .66-.06.94-.18a1.96 1.96 0 0 0 1.14-1.35h1.34a3.1 3.1 0 0 1-1.74 2.37 3.8 3.8 0 0 1-1.69.36Zm6.73-5.43V41h-1.34V29.36h1.34v4.28h.12c.2-.45.5-.81.92-1.08.41-.27.96-.4 1.65-.4.6 0 1.11.12 1.56.36.45.23.8.6 1.04 1.08.25.49.37 1.1.37 1.85V41h-1.34v-5.45c0-.7-.18-1.23-.54-1.61a1.93 1.93 0 0 0-1.48-.58c-.44 0-.83.1-1.18.28-.35.19-.62.46-.82.81-.2.36-.3.8-.3 1.3Zm18.8-1.52-1.2.34c-.08-.2-.2-.4-.34-.59a1.6 1.6 0 0 0-.6-.47 2.15 2.15 0 0 0-.95-.2c-.54 0-.98.13-1.34.38-.35.24-.53.55-.53.92 0 .34.13.6.37.8.24.19.62.35 1.13.48l1.3.31c.78.2 1.36.48 1.74.87.39.39.58.89.58 1.5 0 .5-.15.95-.43 1.34-.29.4-.69.7-1.2.93-.5.23-1.1.34-1.78.34-.9 0-1.63-.2-2.21-.58a2.57 2.57 0 0 1-1.11-1.7l1.27-.3c.12.46.35.81.7 1.05.33.23.78.35 1.33.35a2.5 2.5 0 0 0 1.48-.4c.38-.27.56-.59.56-.96 0-.3-.1-.56-.32-.77a2 2 0 0 0-.97-.46l-1.46-.34a3.47 3.47 0 0 1-1.76-.88c-.37-.4-.56-.9-.56-1.5 0-.5.14-.94.42-1.31.28-.38.66-.68 1.14-.9a4 4 0 0 1 1.65-.32c.86 0 1.54.19 2.03.57.5.38.85.88 1.06 1.5Zm7.68 3.2v-5.16h1.34V41h-1.34v-1.48h-.1a2.74 2.74 0 0 1-2.59 1.59 3 3 0 0 1-1.45-.35 2.5 2.5 0 0 1-1-1.1 4.14 4.14 0 0 1-.36-1.84v-5.55h1.34v5.46c0 .63.17 1.14.53 1.52.36.38.82.57 1.38.57a2.28 2.28 0 0 0 2.25-2.39Zm3.97 3.57V29.36h1.35v4.3h.1c.1-.15.24-.35.42-.58.18-.24.43-.45.76-.64s.78-.28 1.35-.28a3.46 3.46 0 0 1 3.26 2.11c.31.68.47 1.47.47 2.39 0 .92-.16 1.72-.47 2.4a3.42 3.42 0 0 1-3.23 2.12 2.8 2.8 0 0 1-1.35-.28 2.5 2.5 0 0 1-.78-.64 8.77 8.77 0 0 1-.42-.6h-.16V41h-1.3Zm1.32-4.36c0 .66.1 1.24.3 1.74.19.5.47.9.84 1.18.37.28.83.42 1.36.42a2.2 2.2 0 0 0 1.4-.45c.39-.3.67-.7.86-1.2.2-.5.29-1.07.29-1.7 0-.6-.1-1.16-.29-1.65a2.27 2.27 0 0 0-2.26-1.62 2.24 2.24 0 0 0-2.21 1.57 4.73 4.73 0 0 0-.29 1.7Zm8.44-4.37h1.34v9.37c0 .53-.1 1-.28 1.4a2 2 0 0 1-.83.9c-.36.22-.83.33-1.39.33h-.27v-1.25h.25c.4 0 .7-.12.9-.36.19-.24.28-.58.28-1.02v-9.37Zm.66-1.45a.95.95 0 0 1-.68-.27.86.86 0 0 1-.27-.64c0-.25.09-.46.27-.64a.95.95 0 0 1 .68-.27c.26 0 .48.09.67.27.19.18.28.39.28.64s-.1.46-.28.64a.93.93 0 0 1-.67.27Zm6.8 10.36a3.73 3.73 0 0 1-3.58-2.13 5.34 5.34 0 0 1-.5-2.35c0-.89.17-1.68.5-2.36a3.7 3.7 0 0 1 3.44-2.18 4 4 0 0 1 1.35.23 3.34 3.34 0 0 1 2.08 2.08c.21.55.32 1.24.32 2.05v.57h-6.73v-1.16h5.37c0-.5-.1-.93-.3-1.32a2.22 2.22 0 0 0-2.09-1.25 2.47 2.47 0 0 0-2.28 1.42 3 3 0 0 0-.31 1.36v.77c0 .66.11 1.22.34 1.68.23.45.55.8.96 1.03.4.24.89.36 1.43.36.35 0 .67-.05.95-.15.29-.1.54-.25.74-.45.21-.21.38-.46.49-.77l1.3.37a2.9 2.9 0 0 1-.7 1.16c-.32.33-.71.58-1.19.77-.47.18-1 .27-1.6.27Zm9.2 0c-.82 0-1.53-.2-2.12-.58a3.78 3.78 0 0 1-1.36-1.6 5.41 5.41 0 0 1-.48-2.32c0-.88.16-1.67.49-2.34a3.7 3.7 0 0 1 3.44-2.18c.62 0 1.17.11 1.66.34a2.98 2.98 0 0 1 1.8 2.39h-1.34a2.07 2.07 0 0 0-2.1-1.53c-.52 0-.98.14-1.37.41-.39.27-.7.65-.92 1.14a4.25 4.25 0 0 0-.32 1.73c0 .67.1 1.26.32 1.76s.52.89.9 1.16c.4.28.87.42 1.4.42.34 0 .66-.06.94-.18a1.96 1.96 0 0 0 1.15-1.35h1.34a3.11 3.11 0 0 1-1.74 2.37 3.8 3.8 0 0 1-1.7.36Zm9.18-8.9v1.13h-4.52v-1.14h4.52Zm-3.2-2.1h1.34v8.32c0 .38.05.66.16.85.12.19.26.31.44.38.17.06.36.09.56.09.15 0 .27 0 .36-.02l.23-.05.27 1.2a2.73 2.73 0 0 1-1 .16 2.7 2.7 0 0 1-1.11-.24 2.21 2.21 0 0 1-.9-.74 2.14 2.14 0 0 1-.35-1.27v-8.68Z" fill="#1F1F1F"/><path d="M199.09 42.86c-.2 0-.4-.07-.55-.22l-4.66-4.66c-.3-.3-.3-.8 0-1.1.3-.3.8-.3 1.1 0l4.66 4.66c.3.3.3.8 0 1.1a.78.78 0 0 1-.55.22Z" fill="#757575"/><path d="M190.75 39.53a5.79 5.79 0 0 1 0-11.55 5.79 5.79 0 0 1 0 11.55Zm0-10a4.23 4.23 0 1 0 0 8.45 4.23 4.23 0 0 0 0-8.45Z" fill="#757575"/><rect x="18.5" y="15.5" width="195" height="39" rx="3.5" stroke="#545454"/><path fill="#fff" d="M6 63h220v40H6z"/><path d="M19.4 89V77.36h7.03v1.25h-5.61v3.94h5.25v1.25h-5.25v3.95h5.7V89h-7.11Zm10.73-5.25V89H28.8v-8.73h1.3v1.37h.1c.21-.45.52-.8.94-1.07.42-.27.96-.41 1.61-.41.6 0 1.11.12 1.56.36.44.24.78.6 1.03 1.1.25.48.37 1.1.37 1.83V89h-1.34v-5.45c0-.69-.18-1.22-.54-1.6a1.9 1.9 0 0 0-1.46-.59c-.43 0-.81.1-1.15.28a2 2 0 0 0-.79.81c-.2.36-.29.8-.29 1.3Zm11.54 8.7A4.9 4.9 0 0 1 40 92.2a3.54 3.54 0 0 1-1.9-1.5l1.07-.75c.12.16.28.35.46.55a2.5 2.5 0 0 0 2.04.77c.7 0 1.29-.17 1.75-.5.45-.35.68-.88.68-1.61v-1.77H44c-.1.16-.24.35-.42.59-.18.23-.44.43-.77.62-.34.17-.79.26-1.36.26a3.5 3.5 0 0 1-3.22-1.95 5.09 5.09 0 0 1-.48-2.32c0-.9.16-1.67.47-2.33a3.46 3.46 0 0 1 3.26-2.1c.57 0 1.02.1 1.35.28.34.19.6.4.77.64.18.23.32.43.42.58h.14v-1.39h1.3v8.98c0 .75-.18 1.36-.52 1.83a2.9 2.9 0 0 1-1.36 1.04c-.57.22-1.2.33-1.9.33Zm-.04-4.8c.53 0 .99-.11 1.36-.36.37-.25.65-.6.85-1.06.19-.46.29-1.02.29-1.66 0-.63-.1-1.19-.29-1.67a2.5 2.5 0 0 0-.84-1.13c-.37-.27-.83-.4-1.37-.4a2.28 2.28 0 0 0-2.27 1.58 4.48 4.48 0 0 0-.28 1.62c0 .6.1 1.14.29 1.6.19.47.47.83.85 1.1.38.26.85.39 1.4.39Zm7.61-10.29V89H47.9V77.36h1.34ZM51.7 89v-8.73h1.34V89H51.7Zm.68-10.18a.95.95 0 0 1-.68-.27.86.86 0 0 1-.28-.64c0-.25.1-.46.28-.64a.95.95 0 0 1 .68-.27c.26 0 .48.09.67.27.19.18.28.39.28.64s-.1.46-.28.64a.93.93 0 0 1-.67.27Zm9.3 3.4-1.21.35c-.08-.2-.19-.4-.34-.59a1.56 1.56 0 0 0-.59-.47 2.15 2.15 0 0 0-.96-.2c-.53 0-.98.13-1.33.38-.35.24-.53.55-.53.92 0 .34.12.6.36.8.25.19.63.35 1.14.48l1.3.31c.78.2 1.36.48 1.74.87.38.39.57.89.57 1.5 0 .5-.14.95-.43 1.34-.28.4-.68.7-1.2.93-.5.23-1.1.34-1.78.34-.89 0-1.62-.2-2.2-.58a2.57 2.57 0 0 1-1.11-1.7l1.27-.3c.12.46.35.81.69 1.05.34.23.78.35 1.33.35a2.5 2.5 0 0 0 1.5-.4c.36-.27.55-.59.55-.96 0-.3-.1-.56-.32-.77-.21-.2-.54-.36-.98-.46l-1.45-.34a3.47 3.47 0 0 1-1.76-.88c-.38-.4-.56-.9-.56-1.5 0-.5.14-.94.41-1.31.28-.38.66-.68 1.15-.9a4 4 0 0 1 1.64-.32c.87 0 1.55.19 2.04.57.5.38.85.88 1.05 1.5Zm3.51 1.53V89h-1.34V77.36h1.34v4.28h.12c.2-.45.5-.81.92-1.08.41-.27.96-.4 1.64-.4.6 0 1.12.12 1.57.36.44.23.8.6 1.04 1.08.25.49.37 1.1.37 1.85V89h-1.34v-5.45c0-.7-.18-1.23-.54-1.61a1.93 1.93 0 0 0-1.48-.58c-.44 0-.83.1-1.18.28-.35.19-.62.46-.82.81-.2.36-.3.8-.3 1.3Z" fill="#333"/><path fill="#F0F6FE" d="M6 103h220v40H6z"/><path d="M19.4 117.36h1.7l3.95 9.66h.13l3.96-9.66h1.68V129H29.5v-8.84h-.11L25.75 129h-1.27l-3.64-8.84h-.11V129H19.4v-11.64Zm16.63 11.85c-.55 0-1.06-.11-1.5-.32a2.53 2.53 0 0 1-1.08-.91c-.26-.4-.4-.89-.4-1.46 0-.5.1-.9.3-1.21.2-.32.46-.56.79-.74.33-.18.7-.31 1.09-.4.4-.09.8-.16 1.2-.22l1.3-.15a2 2 0 0 0 .73-.19c.15-.08.23-.23.23-.45v-.05c0-.56-.15-1-.46-1.3-.3-.31-.76-.47-1.38-.47-.64 0-1.14.14-1.5.42a2.5 2.5 0 0 0-.77.9l-1.28-.45c.23-.54.53-.95.91-1.24.38-.3.8-.51 1.25-.63a5.2 5.2 0 0 1 2.3-.08c.38.07.73.2 1.07.4.35.2.63.52.86.93.23.41.34.97.34 1.66V129h-1.34v-1.18h-.07a2.61 2.61 0 0 1-1.3 1.16c-.35.15-.78.23-1.29.23Zm.2-1.21c.53 0 .98-.1 1.35-.31a2.14 2.14 0 0 0 1.1-1.85v-1.23c-.05.07-.17.13-.37.2-.19.04-.4.1-.66.13a27.92 27.92 0 0 1-1.28.17 5.1 5.1 0 0 0-.98.22c-.3.1-.54.25-.72.45-.19.2-.28.47-.28.81 0 .47.18.82.52 1.06.35.23.79.35 1.32.35Zm10.04-7.73v1.14h-4.52v-1.14h4.52Zm-3.2-2.09h1.34v8.32c0 .38.05.66.16.85.12.19.26.31.44.38a2.27 2.27 0 0 0 .93.07l.22-.05.27 1.2a2.73 2.73 0 0 1-1 .16 2.7 2.7 0 0 1-1.11-.24 2.21 2.21 0 0 1-.9-.75 2.14 2.14 0 0 1-.35-1.26v-8.68Zm6.75 5.57V129h-1.34v-11.64h1.34v4.28h.11c.2-.45.51-.81.92-1.08.42-.27.96-.4 1.65-.4.6 0 1.12.12 1.56.36.45.23.8.6 1.04 1.08.25.49.38 1.1.38 1.86V129h-1.34v-5.45c0-.7-.18-1.23-.54-1.61a1.92 1.92 0 0 0-1.49-.58c-.44 0-.83.1-1.18.28-.34.19-.62.46-.82.81-.2.36-.3.8-.3 1.3Zm14.3-1.52-1.21.34c-.08-.2-.19-.4-.34-.59a1.56 1.56 0 0 0-.59-.47 2.15 2.15 0 0 0-.96-.2c-.53 0-.98.13-1.33.38-.36.24-.53.55-.53.92 0 .34.12.6.36.8.24.19.62.35 1.14.48l1.3.31c.77.2 1.35.48 1.74.87.38.39.57.89.57 1.5 0 .5-.14.95-.43 1.34-.28.4-.68.7-1.2.93-.5.23-1.1.34-1.78.34-.89 0-1.62-.2-2.2-.58a2.57 2.57 0 0 1-1.12-1.7l1.28-.3c.12.46.35.81.68 1.05.35.23.79.35 1.34.35a2.5 2.5 0 0 0 1.49-.4c.37-.27.55-.59.55-.96 0-.3-.1-.56-.31-.77-.22-.2-.54-.36-.98-.46l-1.46-.34a3.47 3.47 0 0 1-1.76-.88c-.37-.4-.55-.9-.55-1.5 0-.5.13-.94.41-1.31.28-.38.66-.68 1.14-.9a4 4 0 0 1 1.65-.32c.86 0 1.54.19 2.04.57.5.38.84.88 1.05 1.5Zm140.21 4.73a.62.62 0 0 1-.44-.18l-3.33-3.33a.63.63 0 0 1 0-.88.63.63 0 0 1 .88 0l2.9 2.89 6.88-6.9a.63.63 0 0 1 .88 0c.24.24.24.64 0 .88l-7.33 7.33a.62.62 0 0 1-.44.18v.01Z" fill="#0F67F5"/><path fill="#fff" d="M6 143h220v40H6z"/><path d="M25.77 160.27a1.78 1.78 0 0 0-.83-1.34 3.18 3.18 0 0 0-1.78-.47c-.52 0-.97.08-1.35.25a2.1 2.1 0 0 0-.9.68 1.65 1.65 0 0 0-.1 1.8c.15.22.35.4.58.55.24.14.48.26.74.36l.71.22 1.18.32c.3.08.64.19 1.01.33.38.14.74.33 1.08.57a2.65 2.65 0 0 1 1.19 2.3c0 .63-.17 1.2-.5 1.7-.32.51-.8.92-1.43 1.22-.63.3-1.39.45-2.28.45-.83 0-1.55-.14-2.16-.4a3.21 3.21 0 0 1-2.02-2.8h1.45c.04.43.19.8.45 1.08s.59.5.99.64c.4.13.83.2 1.3.2a3.8 3.8 0 0 0 1.44-.26c.43-.18.77-.42 1.02-.74s.37-.69.37-1.11c0-.39-.1-.7-.32-.94-.22-.25-.5-.44-.85-.6a9.1 9.1 0 0 0-1.15-.4l-1.43-.4a5.33 5.33 0 0 1-2.16-1.12 2.46 2.46 0 0 1-.8-1.9c0-.66.18-1.22.54-1.71a3.5 3.5 0 0 1 1.43-1.14c.6-.27 1.27-.4 2.01-.4.75 0 1.42.13 2 .4a3.5 3.5 0 0 1 1.4 1.09c.34.46.52.99.54 1.57h-1.37Zm7.2 8.91c-.81 0-1.52-.2-2.1-.58a3.77 3.77 0 0 1-1.37-1.6 5.41 5.41 0 0 1-.48-2.32c0-.89.16-1.67.49-2.34a3.69 3.69 0 0 1 3.44-2.18c.62 0 1.17.11 1.66.34a3.03 3.03 0 0 1 1.8 2.39h-1.34c-.1-.4-.33-.75-.69-1.06a2.04 2.04 0 0 0-1.4-.47c-.53 0-.99.14-1.38.41-.39.27-.7.65-.91 1.14a4.23 4.23 0 0 0-.33 1.73c0 .67.1 1.26.32 1.76s.52.89.91 1.16c.4.28.86.42 1.39.42.34 0 .66-.06.94-.19a1.96 1.96 0 0 0 1.15-1.33h1.34a3.1 3.1 0 0 1-1.74 2.36 3.8 3.8 0 0 1-1.7.36Zm5.4-.18v-8.73h1.34V169h-1.34Zm.68-10.18a.95.95 0 0 1-.68-.27.86.86 0 0 1-.27-.64c0-.25.09-.47.27-.64a.95.95 0 0 1 .68-.27c.26 0 .48.09.67.27.19.17.28.39.28.64s-.09.46-.28.64a.93.93 0 0 1-.67.27Zm6.77 10.36a3.74 3.74 0 0 1-3.58-2.13 5.35 5.35 0 0 1-.48-2.34c0-.9.16-1.69.48-2.37a3.69 3.69 0 0 1 3.44-2.18c.46 0 .91.08 1.35.23a3.34 3.34 0 0 1 2.08 2.08c.22.55.33 1.24.33 2.05v.57H42.7v-1.16h5.36c0-.5-.1-.93-.3-1.32a2.22 2.22 0 0 0-2.08-1.25c-.54 0-1 .14-1.39.4-.39.26-.68.6-.9 1.02a3 3 0 0 0-.3 1.36v.77c0 .66.11 1.22.34 1.68.23.45.55.8.96 1.03.4.24.88.36 1.42.36.36 0 .67-.05.96-.15a2.04 2.04 0 0 0 1.23-1.22l1.3.37a3.01 3.01 0 0 1-1.89 1.93c-.47.18-1 .27-1.6.27Zm7-5.43V169h-1.34v-8.73h1.3v1.37h.1c.21-.45.52-.8.94-1.07a2.8 2.8 0 0 1 1.61-.41c.6 0 1.11.12 1.55.36.45.24.8.6 1.04 1.1.24.48.37 1.1.37 1.84V169h-1.34v-5.46c0-.68-.18-1.21-.54-1.6a1.9 1.9 0 0 0-1.46-.58c-.43 0-.82.1-1.15.28-.34.19-.6.46-.8.82-.19.35-.28.78-.28 1.29Zm11.56 5.43a3.8 3.8 0 0 1-2.11-.58 3.77 3.77 0 0 1-1.37-1.6 5.41 5.41 0 0 1-.47-2.32c0-.89.16-1.67.49-2.34a3.69 3.69 0 0 1 3.44-2.18c.61 0 1.17.11 1.66.34.5.23.9.54 1.2.96.32.4.52.88.6 1.43h-1.35a2.04 2.04 0 0 0-2.1-1.52c-.51 0-.97.13-1.36.4-.4.27-.7.65-.92 1.14a4.23 4.23 0 0 0-.32 1.73c0 .67.1 1.26.32 1.76.21.5.52.89.9 1.16.4.28.86.42 1.4.42.34 0 .66-.06.94-.19a1.96 1.96 0 0 0 1.14-1.33h1.34a3.1 3.1 0 0 1-1.73 2.36 3.8 3.8 0 0 1-1.7.36Zm9.05 0a3.74 3.74 0 0 1-3.58-2.13 5.35 5.35 0 0 1-.48-2.34c0-.9.16-1.69.48-2.37a3.69 3.69 0 0 1 3.44-2.18c.46 0 .91.08 1.35.23a3.34 3.34 0 0 1 2.08 2.08c.22.55.33 1.24.33 2.05v.57h-6.73v-1.16h5.36c0-.5-.1-.93-.3-1.32a2.22 2.22 0 0 0-2.08-1.25c-.54 0-1 .14-1.39.4-.39.26-.68.6-.9 1.02a3 3 0 0 0-.3 1.36v.77c0 .66.11 1.22.34 1.68.23.45.55.8.96 1.03.4.24.88.36 1.42.36.36 0 .67-.05.96-.15a2.04 2.04 0 0 0 1.23-1.22l1.29.37c-.14.44-.36.82-.69 1.16a3.4 3.4 0 0 1-1.19.77c-.47.18-1 .27-1.6.27Z" fill="#333"/></g><defs><filter id="a" x="0" y="0" width="232" height="196" filterUnits="userSpaceOnUse" color-interpolation-filters="sRGB"><feFlood flood-opacity="0" result="BackgroundImageFix"/><feColorMatrix in="SourceAlpha" values="0 0 0 0 0 0 0 0 0 0 0 0 0 0 0 0 0 0 127 0" result="hardAlpha"/><feOffset dy="3"/><feGaussianBlur stdDeviation="3"/><feColorMatrix values="0 0 0 0 0.2 0 0 0 0 0.2 0 0 0 0 0.2 0 0 0 0.1 0"/><feBlend in2="BackgroundImageFix" result="effect1_dropShadow_821_54345"/><feColorMatrix in="SourceAlpha" values="0 0 0 0 0 0 0 0 0 0 0 0 0 0 0 0 0 0 127 0" result="hardAlpha"/><feOffset dy="3"/><feGaussianBlur stdDeviation="3"/><feColorMatrix values="0 0 0 0 0.2 0 0 0 0 0.2 0 0 0 0 0.2 0 0 0 0.1 0"/><feBlend in2="effect1_dropShadow_821_54345" result="effect2_dropShadow_821_54345"/><feBlend in="SourceGraphic" in2="effect2_dropShadow_821_54345" result="shape"/></filter></defs></svg>