<svg width="293" height="71" fill="none" xmlns="http://www.w3.org/2000/svg"><path d="M6.54 3.62a1.36 1.36 0 0 0-.59-1.02 2.25 2.25 0 0 0-1.33-.36c-.39 0-.72.06-1 .17-.27.12-.48.28-.62.48a1.15 1.15 0 0 0-.08 1.23c.1.16.23.29.4.4.17.1.36.2.56.27.2.07.42.13.62.18l.96.24c.38.09.75.2 1.1.36.37.15.69.35.97.58a2.53 2.53 0 0 1 .92 2 2.76 2.76 0 0 1-1.78 2.63 5.2 5.2 0 0 1-2.08.37 5.3 5.3 0 0 1-2.06-.36A3.07 3.07 0 0 1 1.16 9.7 3.18 3.18 0 0 1 .64 8h1.81c.03.36.14.65.33.89.2.23.44.4.75.52s.66.18 1.04.18c.4 0 .76-.06 1.06-.18.3-.12.54-.3.71-.5.18-.23.26-.48.27-.77a.97.97 0 0 0-.24-.66 1.71 1.71 0 0 0-.64-.44 6.18 6.18 0 0 0-.95-.32l-1.16-.3a4.66 4.66 0 0 1-1.99-.97A2.26 2.26 0 0 1 .9 3.68c0-.6.17-1.12.5-1.57.32-.45.77-.8 1.33-1.05A4.5 4.5 0 0 1 4.64.68c.73 0 1.36.12 1.9.38.55.25.98.6 1.29 1.04.31.44.47.94.48 1.52H6.54Zm6.86 7.53c-.77 0-1.43-.16-1.99-.48a3.23 3.23 0 0 1-1.27-1.36 4.56 4.56 0 0 1-.45-2.08c0-.79.15-1.48.45-2.07a3.38 3.38 0 0 1 3.16-1.9c.47 0 .92.08 1.34.23.42.15.79.38 1.1.7.33.31.59.71.77 1.2.19.49.28 1.06.28 1.73v.55h-6.26v-1.2h4.54c0-.35-.08-.66-.23-.93a1.63 1.63 0 0 0-.6-.64 1.72 1.72 0 0 0-.91-.23 1.8 1.8 0 0 0-1.62.96 2 2 0 0 0-.24.94v1.06c0 .44.08.82.25 1.14.16.32.39.56.68.73a2.25 2.25 0 0 0 1.73.14c.22-.08.4-.19.55-.34.16-.14.28-.32.36-.54l1.68.2a2.69 2.69 0 0 1-1.74 1.92c-.46.18-.99.27-1.58.27ZM20.12.82V11h-1.8V.82h1.8Zm5.23 10.33c-.77 0-1.43-.16-1.99-.48a3.23 3.23 0 0 1-1.27-1.36 4.56 4.56 0 0 1-.45-2.08c0-.79.15-1.48.45-2.07a3.38 3.38 0 0 1 3.16-1.9c.47 0 .92.08 1.33.23a3.17 3.17 0 0 1 1.88 1.9c.19.49.28 1.06.28 1.73v.55h-6.26v-1.2h4.54c0-.35-.08-.66-.23-.93a1.63 1.63 0 0 0-.6-.64 1.72 1.72 0 0 0-.91-.23 1.8 1.8 0 0 0-1.62.96 2 2 0 0 0-.24.94v1.06c0 .44.08.82.25 1.14.16.32.39.56.68.73a2.25 2.25 0 0 0 1.73.14 1.55 1.55 0 0 0 .91-.88l1.68.2a2.69 2.69 0 0 1-1.74 1.92c-.46.18-.99.27-1.58.27Zm8.25 0a3.35 3.35 0 0 1-3.22-1.89c-.3-.6-.44-1.28-.44-2.05 0-.77.15-1.46.44-2.05a3.38 3.38 0 0 1 3.21-1.9c.62 0 1.16.12 1.64.35A2.81 2.81 0 0 1 36.87 6h-1.72a1.64 1.64 0 0 0-.5-.92c-.26-.25-.6-.37-1.04-.37-.37 0-.7.1-.97.3-.28.19-.5.47-.65.84-.15.37-.23.8-.23 1.32s.08.97.23 1.34c.15.38.37.66.64.86.28.2.6.3.98.3.27 0 .5-.05.71-.15.21-.1.4-.25.53-.44.15-.2.24-.42.3-.7h1.72a2.83 2.83 0 0 1-1.6 2.41 3.8 3.8 0 0 1-1.67.35Zm8.56-7.79v1.4h-4.4v-1.4h4.4Zm-3.3-1.83h1.8V8.7c0 .25.03.43.1.56a.6.6 0 0 0 .3.26c.12.04.26.07.4.07a1.76 1.76 0 0 0 .53-.07l.3 1.4a4.01 4.01 0 0 1-1.05.18c-.45.02-.86-.05-1.22-.2a1.9 1.9 0 0 1-.86-.7 2.1 2.1 0 0 1-.3-1.2V1.53ZM51 3.36v1.4h-4.5v-1.4H51ZM47.62 11V2.64c0-.51.1-.94.32-1.28a2 2 0 0 1 .86-.77A2.8 2.8 0 0 1 50 .34a4.15 4.15 0 0 1 1.37.21l-.36 1.4a3.11 3.11 0 0 0-.67-.12c-.34 0-.57.08-.71.25-.14.16-.2.38-.2.68V11h-1.81Zm4.8 0V3.36h1.8V11h-1.8Zm.9-8.72c-.29 0-.53-.1-.74-.28a.91.91 0 0 1-.3-.7c0-.27.1-.5.3-.69.2-.19.45-.28.74-.28s.53.1.73.28A.95.95 0 0 1 54.06 2c-.2.19-.45.28-.74.28Zm6.12 8.87c-.76 0-1.42-.16-1.98-.48a3.23 3.23 0 0 1-1.28-1.36 4.56 4.56 0 0 1-.44-2.08c0-.79.14-1.48.44-2.07a3.38 3.38 0 0 1 3.17-1.9c.47 0 .91.08 1.33.23a3.17 3.17 0 0 1 1.88 1.9c.19.49.28 1.06.28 1.73v.55h-6.26v-1.2h4.53c0-.35-.07-.66-.22-.93a1.63 1.63 0 0 0-.61-.64 1.72 1.72 0 0 0-.9-.23c-.37 0-.7.09-.98.26-.27.18-.49.41-.65.7a2 2 0 0 0-.23.94v1.06c0 .44.08.82.24 1.14.17.32.4.56.68.73a2.25 2.25 0 0 0 1.74.14c.21-.08.4-.19.55-.34.16-.14.28-.32.35-.54l1.69.2a2.7 2.7 0 0 1-1.74 1.92c-.47.18-1 .27-1.59.27ZM66.16.82V11h-1.8V.82h1.8Zm4.69 10.31a2.89 2.89 0 0 1-2.74-1.8 5 5 0 0 1-.41-2.14c0-.85.14-1.56.42-2.15a2.93 2.93 0 0 1 3.84-1.55c.28.15.51.33.68.54.17.21.3.41.4.6h.07V.82h1.8V11h-1.77V9.8h-.1c-.1.18-.23.38-.4.59a2.22 2.22 0 0 1-1.8.74Zm.5-1.47c.38 0 .7-.1.97-.31.27-.2.48-.5.61-.87.14-.37.21-.8.21-1.3s-.07-.92-.2-1.29a1.83 1.83 0 0 0-.61-.85c-.27-.2-.6-.3-.98-.3-.4 0-.74.1-1 .31-.27.21-.48.5-.61.87-.14.37-.2.79-.2 1.26 0 .48.06.9.2 1.28a2 2 0 0 0 .6.88c.28.21.61.32 1 .32Z" fill="#333"/><rect x=".5" y="23.5" width="292" height="47" rx="3.5" fill="#fff"/><path d="M19.77 44.27a1.78 1.78 0 0 0-.83-1.34 3.18 3.18 0 0 0-1.78-.48c-.52 0-.97.09-1.35.25-.39.17-.69.4-.9.7a1.65 1.65 0 0 0-.1 1.79c.15.22.35.4.58.55.24.14.48.26.74.36l.71.22 1.18.32c.3.08.64.19 1.01.33.38.14.74.33 1.08.57a2.65 2.65 0 0 1 1.19 2.3c0 .63-.17 1.2-.5 1.7-.32.51-.8.92-1.43 1.22-.63.3-1.39.44-2.28.44a5.3 5.3 0 0 1-2.16-.4A3.2 3.2 0 0 1 12.9 50h1.45c.04.44.19.8.45 1.1.26.27.59.49.99.63a4 4 0 0 0 1.3.2c.53 0 1.01-.09 1.44-.26.43-.18.77-.42 1.02-.74s.37-.69.37-1.11c0-.39-.1-.7-.32-.95-.22-.24-.5-.43-.85-.59a8.95 8.95 0 0 0-1.15-.4l-1.43-.4a5.33 5.33 0 0 1-2.16-1.12 2.46 2.46 0 0 1-.8-1.9c0-.66.18-1.23.54-1.71.35-.49.83-.87 1.43-1.14.6-.27 1.27-.4 2.01-.4.75 0 1.42.13 2 .4a3.5 3.5 0 0 1 1.4 1.09c.34.46.52.99.54 1.57h-1.37Zm7.32 8.91a3.74 3.74 0 0 1-3.58-2.13 5.35 5.35 0 0 1-.49-2.35c0-.89.16-1.68.49-2.36a3.7 3.7 0 0 1 3.44-2.18c.46 0 .9.07 1.35.23a3.34 3.34 0 0 1 2.08 2.08c.22.55.32 1.24.32 2.05v.57h-6.72v-1.16h5.36c0-.5-.1-.93-.3-1.32a2.23 2.23 0 0 0-2.09-1.25c-.53 0-1 .14-1.38.4-.39.26-.69.6-.9 1.02a3 3 0 0 0-.3 1.36v.77c0 .66.1 1.22.33 1.68.23.45.55.8.96 1.03.41.24.89.36 1.43.36.35 0 .67-.05.95-.15.3-.1.54-.25.75-.45.2-.21.37-.46.48-.77l1.3.37a2.9 2.9 0 0 1-.7 1.16c-.31.33-.71.58-1.18.77-.48.18-1.01.27-1.6.27Zm7-11.82V53h-1.35V41.36h1.34Zm6.1 11.82a3.74 3.74 0 0 1-3.58-2.13 5.35 5.35 0 0 1-.48-2.35c0-.89.16-1.68.49-2.36a3.7 3.7 0 0 1 3.44-2.18c.46 0 .9.07 1.35.23a3.34 3.34 0 0 1 2.08 2.08c.21.55.32 1.24.32 2.05v.57H37.1v-1.16h5.36c0-.5-.1-.93-.3-1.32a2.23 2.23 0 0 0-2.09-1.25c-.53 0-1 .14-1.38.4-.39.26-.69.6-.9 1.02a3 3 0 0 0-.3 1.36v.77c0 .66.1 1.22.33 1.68.23.45.55.8.96 1.03.41.24.89.36 1.43.36.35 0 .67-.05.95-.15.3-.1.54-.25.75-.45.2-.21.37-.46.48-.77l1.3.37a2.9 2.9 0 0 1-.7 1.16c-.31.33-.71.58-1.18.77-.48.18-1.01.27-1.6.27Zm9.2 0c-.81 0-1.52-.2-2.1-.58a3.78 3.78 0 0 1-1.37-1.6 5.4 5.4 0 0 1-.48-2.32c0-.88.17-1.67.5-2.34a3.7 3.7 0 0 1 3.44-2.18c.6 0 1.16.11 1.65.34a2.98 2.98 0 0 1 1.8 2.39h-1.34a2.04 2.04 0 0 0-2.1-1.52 2.37 2.37 0 0 0-2.28 1.54 4.23 4.23 0 0 0-.33 1.73c0 .67.11 1.26.32 1.76.22.5.52.89.91 1.16.4.28.86.42 1.39.42.35 0 .66-.06.95-.18a1.96 1.96 0 0 0 1.14-1.35h1.34a3.1 3.1 0 0 1-1.74 2.37c-.48.24-1.05.36-1.7.36Zm9.2-8.9v1.13h-4.53v-1.14h4.53Zm-3.2-2.1h1.33v8.32c0 .38.06.66.17.85.11.19.25.31.43.38.18.06.36.09.56.09.15 0 .27 0 .36-.02l.23-.05.27 1.2a2.73 2.73 0 0 1-1 .16 2.7 2.7 0 0 1-1.1-.24 2.21 2.21 0 0 1-.9-.74 2.14 2.14 0 0 1-.36-1.27v-8.68Z" fill="#1F1F1F"/><path d="M271 50.28c-.2 0-.4-.08-.55-.23l-5-5c-.3-.3-.3-.8 0-1.1.3-.3.8-.3 1.1 0L271 48.4l4.45-4.45c.3-.3.8-.3 1.1 0 .3.3.3.8 0 1.1l-5 5a.78.78 0 0 1-.55.23Z" fill="#757575"/><rect x=".5" y="23.5" width="292" height="47" rx="3.5" stroke="#545454"/></svg>