<svg width="677" height="326" viewBox="0 0 677 326" fill="none" xmlns="http://www.w3.org/2000/svg">
<rect width="676.275" height="326" fill="#F6F6F6"/>
<g clip-path="url(#clip0_14049_25798)">
<rect width="576" height="262" transform="translate(50.1377 32)" fill="#F3F8FF"/>
<mask id="path-1-outside-1_14049_25798" maskUnits="userSpaceOnUse" x="49.9277" y="32.0566" width="194" height="262" fill="black">
<rect fill="white" x="49.9277" y="32.0566" width="194" height="262"/>
<path d="M49.9277 32.0566H242.638V294.001H49.9277V32.0566Z"/>
</mask>
<path d="M49.9277 32.0566H242.638V294.001H49.9277V32.0566Z" fill="white"/>
<path d="M241.918 32.0566V294.001H243.358V32.0566H241.918Z" fill="#EBEBEB" mask="url(#path-1-outside-1_14049_25798)"/>
<rect x="59.9277" y="46.4492" width="172.71" height="34.5421" rx="2.8785" fill="white"/>
<path d="M73.2377 60.4382H71.8021C71.4243 60.4382 71.1328 60.136 71.1328 59.769V58.3333C71.1328 57.9663 71.4351 57.6641 71.8021 57.6641H73.2377C73.6155 57.6641 73.907 57.9663 73.907 58.3333V59.769C73.907 60.136 73.6047 60.4382 73.2377 60.4382ZM72.4713 59.0889H72.5577V59.0026H72.4713V59.0889Z" fill="#333333"/>
<path d="M77.5555 60.4382H76.1198C75.742 60.4382 75.4506 60.136 75.4506 59.769V58.3333C75.4506 57.9663 75.7528 57.6641 76.1198 57.6641H77.5555C77.9333 57.6641 78.2247 57.9663 78.2247 58.3333V59.769C78.2247 60.136 77.9225 60.4382 77.5555 60.4382ZM76.7891 59.0889H76.8754V59.0026H76.7891V59.0889Z" fill="#333333"/>
<path d="M81.8732 60.4382H80.4376C80.0598 60.4382 79.7683 60.136 79.7683 59.769V58.3333C79.7683 57.9663 80.0706 57.6641 80.4376 57.6641H81.8732C82.251 57.6641 82.5425 57.9663 82.5425 58.3333V59.769C82.5425 60.136 82.2402 60.4382 81.8732 60.4382ZM81.1068 59.0889H81.1932V59.0026H81.1068V59.0889Z" fill="#333333"/>
<path d="M73.2377 64.756H71.8021C71.4243 64.756 71.1328 64.4537 71.1328 64.0867V62.6511C71.1328 62.2841 71.4351 61.9818 71.8021 61.9818H73.2377C73.6155 61.9818 73.907 62.2841 73.907 62.6511V64.0867C73.907 64.4537 73.6047 64.756 73.2377 64.756ZM72.4713 63.4067H72.5577V63.3203H72.4713V63.4067Z" fill="#333333"/>
<path d="M77.5555 64.756H76.1198C75.742 64.756 75.4506 64.4537 75.4506 64.0867V62.6511C75.4506 62.2841 75.7528 61.9818 76.1198 61.9818H77.5555C77.9333 61.9818 78.2247 62.2841 78.2247 62.6511V64.0867C78.2247 64.4537 77.9225 64.756 77.5555 64.756ZM76.7891 63.4067H76.8754V63.3203H76.7891V63.4067Z" fill="#333333"/>
<path d="M81.8732 64.756H80.4376C80.0598 64.756 79.7683 64.4537 79.7683 64.0867V62.6511C79.7683 62.2841 80.0706 61.9818 80.4376 61.9818H81.8732C82.251 61.9818 82.5425 62.2841 82.5425 62.6511V64.0867C82.5425 64.4537 82.2402 64.756 81.8732 64.756ZM81.1068 63.4067H81.1932V63.3203H81.1068V63.4067Z" fill="#333333"/>
<path d="M73.2377 69.0737H71.8021C71.4243 69.0737 71.1328 68.7715 71.1328 68.4045V66.9688C71.1328 66.6018 71.4351 66.2996 71.8021 66.2996H73.2377C73.6155 66.2996 73.907 66.6018 73.907 66.9688V68.4045C73.907 68.7715 73.6047 69.0737 73.2377 69.0737ZM72.4713 67.7244H72.5577V67.6381H72.4713V67.7244Z" fill="#333333"/>
<path d="M77.5555 69.0737H76.1198C75.742 69.0737 75.4506 68.7715 75.4506 68.4045V66.9688C75.4506 66.6018 75.7528 66.2996 76.1198 66.2996H77.5555C77.9333 66.2996 78.2247 66.6018 78.2247 66.9688V68.4045C78.2247 68.7715 77.9225 69.0737 77.5555 69.0737ZM76.7891 67.7244H76.8754V67.6381H76.7891V67.7244Z" fill="#333333"/>
<path d="M81.8732 69.0737H80.4376C80.0598 69.0737 79.7683 68.7715 79.7683 68.4045V66.9688C79.7683 66.6018 80.0706 66.2996 80.4376 66.2996H81.8732C82.251 66.2996 82.5425 66.6018 82.5425 66.9688V68.4045C82.5425 68.7715 82.2402 69.0737 81.8732 69.0737ZM81.1068 67.7244H81.1932V67.6381H81.1068V67.7244Z" fill="#333333"/>
<path d="M98.0679 67.7207H95.4837V59.3469H98.1823C98.9946 59.3469 99.6897 59.5145 100.268 59.8498C100.846 60.1823 101.288 60.6607 101.596 61.285C101.905 61.9065 102.059 62.6506 102.059 63.5174C102.059 64.3897 101.903 65.1407 101.592 65.7704C101.282 66.3973 100.829 66.8798 100.235 67.2178C99.6407 67.5531 98.9183 67.7207 98.0679 67.7207ZM96.4978 66.8212H98.0024C98.6948 66.8212 99.2686 66.6876 99.7238 66.4205C100.179 66.1533 100.518 65.7731 100.742 65.2797C100.965 64.7863 101.077 64.1989 101.077 63.5174C101.077 62.8414 100.967 62.2594 100.746 61.7715C100.525 61.2809 100.195 60.9047 99.7565 60.643C99.3177 60.3786 98.7711 60.2464 98.1169 60.2464H96.4978V66.8212ZM105.477 67.8679C105.079 67.8679 104.718 67.7929 104.393 67.643C104.069 67.4904 103.811 67.2709 103.62 66.9847C103.43 66.6958 103.334 66.3469 103.334 65.938C103.334 65.5782 103.405 65.2865 103.547 65.063C103.689 64.8367 103.878 64.6596 104.115 64.5315C104.352 64.4033 104.614 64.3079 104.9 64.2452C105.189 64.1798 105.479 64.128 105.771 64.0899C106.153 64.0408 106.462 64.004 106.699 63.9795C106.939 63.9522 107.114 63.9072 107.223 63.8445C107.334 63.7818 107.39 63.6728 107.39 63.5174V63.4847C107.39 63.0813 107.28 62.7678 107.059 62.5443C106.841 62.3208 106.51 62.209 106.066 62.209C105.605 62.209 105.244 62.3099 104.982 62.5116C104.72 62.7133 104.536 62.9286 104.43 63.1576L103.514 62.8305C103.678 62.4489 103.896 62.1518 104.168 61.9392C104.444 61.7238 104.743 61.5739 105.068 61.4894C105.395 61.4022 105.717 61.3586 106.033 61.3586C106.235 61.3586 106.466 61.3831 106.728 61.4322C106.992 61.4785 107.247 61.5753 107.493 61.7225C107.741 61.8697 107.946 62.0918 108.11 62.3889C108.273 62.686 108.355 63.084 108.355 63.5829V67.7207H107.39V66.8702H107.341C107.276 67.0065 107.167 67.1524 107.014 67.3077C106.861 67.4631 106.658 67.5953 106.405 67.7043C106.151 67.8134 105.842 67.8679 105.477 67.8679ZM105.624 67.0011C106.006 67.0011 106.327 66.9261 106.589 66.7762C106.853 66.6263 107.052 66.4327 107.186 66.1956C107.322 65.9584 107.39 65.709 107.39 65.4473V64.5642C107.349 64.6132 107.259 64.6582 107.12 64.6991C106.984 64.7373 106.826 64.7713 106.646 64.8013C106.469 64.8286 106.296 64.8531 106.127 64.8749C105.961 64.894 105.826 64.9103 105.722 64.924C105.471 64.9567 105.237 65.0098 105.019 65.0834C104.803 65.1543 104.629 65.262 104.495 65.4065C104.365 65.5482 104.299 65.7417 104.299 65.9871C104.299 66.3223 104.423 66.5758 104.671 66.7476C104.922 66.9166 105.24 67.0011 105.624 67.0011ZM114.565 62.8469L113.698 63.0922C113.644 62.9477 113.563 62.8073 113.457 62.6711C113.353 62.532 113.212 62.4175 113.032 62.3276C112.852 62.2376 112.622 62.1927 112.341 62.1927C111.956 62.1927 111.636 62.2813 111.38 62.4584C111.126 62.6329 111 62.855 111 63.1249C111 63.3648 111.087 63.5542 111.261 63.6932C111.436 63.8323 111.708 63.9481 112.079 64.0408L113.011 64.2698C113.573 64.4061 113.991 64.6146 114.267 64.8954C114.542 65.1734 114.68 65.5318 114.68 65.9707C114.68 66.3305 114.576 66.6522 114.369 66.9357C114.164 67.2191 113.878 67.4427 113.51 67.6062C113.142 67.7698 112.714 67.8515 112.226 67.8515C111.586 67.8515 111.056 67.7125 110.636 67.4345C110.216 67.1565 109.95 66.7503 109.838 66.216L110.754 65.9871C110.842 66.3251 111.006 66.5786 111.249 66.7476C111.494 66.9166 111.815 67.0011 112.21 67.0011C112.66 67.0011 113.017 66.9057 113.281 66.7149C113.548 66.5213 113.682 66.2896 113.682 66.0198C113.682 65.8017 113.606 65.6191 113.453 65.4719C113.3 65.3219 113.066 65.2102 112.75 65.1366L111.703 64.8913C111.128 64.755 110.705 64.5437 110.435 64.2575C110.168 63.9686 110.035 63.6074 110.035 63.174C110.035 62.8196 110.134 62.5061 110.333 62.2336C110.535 61.961 110.809 61.747 111.155 61.5916C111.504 61.4362 111.899 61.3586 112.341 61.3586C112.962 61.3586 113.45 61.4948 113.805 61.7674C114.162 62.04 114.415 62.3998 114.565 62.8469ZM117.097 63.9427V67.7207H116.132V59.3469H117.097V62.4216H117.179C117.326 62.0973 117.547 61.8397 117.841 61.6489C118.138 61.4553 118.534 61.3586 119.027 61.3586C119.455 61.3586 119.83 61.4444 120.151 61.6161C120.473 61.7851 120.722 62.0455 120.9 62.3971C121.08 62.746 121.169 63.1903 121.169 63.73V67.7207H120.205V63.7955C120.205 63.2966 120.075 62.9109 119.816 62.6383C119.56 62.363 119.204 62.2254 118.749 62.2254C118.433 62.2254 118.149 62.2922 117.898 62.4257C117.65 62.5593 117.454 62.7542 117.31 63.0104C117.168 63.2667 117.097 63.5774 117.097 63.9427ZM123.066 67.7207V59.3469H124.031V62.438H124.112C124.183 62.329 124.281 62.1899 124.407 62.0209C124.535 61.8492 124.718 61.6966 124.955 61.563C125.195 61.4267 125.519 61.3586 125.928 61.3586C126.457 61.3586 126.923 61.4908 127.326 61.7552C127.73 62.0196 128.044 62.3944 128.271 62.8796C128.497 63.3648 128.61 63.9372 128.61 64.5969C128.61 65.262 128.497 65.8385 128.271 66.3264C128.044 66.8116 127.731 67.1878 127.33 67.4549C126.93 67.7193 126.468 67.8515 125.944 67.8515C125.541 67.8515 125.218 67.7848 124.975 67.6512C124.733 67.5149 124.546 67.3609 124.415 67.1892C124.284 67.0147 124.183 66.8702 124.112 66.7557H123.998V67.7207H123.066ZM124.014 64.5805C124.014 65.0548 124.084 65.4732 124.223 65.8358C124.362 66.1956 124.565 66.4777 124.832 66.6822C125.099 66.8839 125.426 66.9847 125.813 66.9847C126.217 66.9847 126.553 66.8784 126.823 66.6658C127.096 66.4505 127.3 66.1615 127.437 65.799C127.576 65.4337 127.645 65.0276 127.645 64.5805C127.645 64.1389 127.577 63.741 127.441 63.3866C127.307 63.0295 127.104 62.7474 126.831 62.5402C126.562 62.3303 126.222 62.2254 125.813 62.2254C125.421 62.2254 125.091 62.3249 124.824 62.5239C124.557 62.7201 124.355 62.9954 124.219 63.3498C124.082 63.7014 124.014 64.1117 124.014 64.5805ZM132.638 67.8515C132.071 67.8515 131.573 67.7166 131.145 67.4468C130.72 67.1769 130.387 66.7994 130.147 66.3142C129.91 65.829 129.792 65.262 129.792 64.6132C129.792 63.959 129.91 63.388 130.147 62.9C130.387 62.4121 130.72 62.0332 131.145 61.7633C131.573 61.4935 132.071 61.3586 132.638 61.3586C133.204 61.3586 133.701 61.4935 134.126 61.7633C134.554 62.0332 134.886 62.4121 135.123 62.9C135.363 63.388 135.483 63.959 135.483 64.6132C135.483 65.262 135.363 65.829 135.123 66.3142C134.886 66.7994 134.554 67.1769 134.126 67.4468C133.701 67.7166 133.204 67.8515 132.638 67.8515ZM132.638 66.9847C133.068 66.9847 133.423 66.8743 133.701 66.6535C133.979 66.4327 134.184 66.1424 134.318 65.7826C134.452 65.4228 134.518 65.033 134.518 64.6132C134.518 64.1934 134.452 63.8023 134.318 63.4397C134.184 63.0772 133.979 62.7842 133.701 62.5607C133.423 62.3371 133.068 62.2254 132.638 62.2254C132.207 62.2254 131.852 62.3371 131.574 62.5607C131.296 62.7842 131.091 63.0772 130.957 63.4397C130.823 63.8023 130.757 64.1934 130.757 64.6132C130.757 65.033 130.823 65.4228 130.957 65.7826C131.091 66.1424 131.296 66.4327 131.574 66.6535C131.852 66.8743 132.207 66.9847 132.638 66.9847ZM138.804 67.8679C138.406 67.8679 138.045 67.7929 137.721 67.643C137.397 67.4904 137.139 67.2709 136.948 66.9847C136.757 66.6958 136.662 66.3469 136.662 65.938C136.662 65.5782 136.733 65.2865 136.875 65.063C137.016 64.8367 137.206 64.6596 137.443 64.5315C137.68 64.4033 137.942 64.3079 138.228 64.2452C138.517 64.1798 138.807 64.128 139.099 64.0899C139.48 64.0408 139.79 64.004 140.027 63.9795C140.267 63.9522 140.441 63.9072 140.55 63.8445C140.662 63.7818 140.718 63.6728 140.718 63.5174V63.4847C140.718 63.0813 140.608 62.7678 140.387 62.5443C140.169 62.3208 139.838 62.209 139.393 62.209C138.933 62.209 138.571 62.3099 138.31 62.5116C138.048 62.7133 137.864 62.9286 137.758 63.1576L136.842 62.8305C137.005 62.4489 137.223 62.1518 137.496 61.9392C137.771 61.7238 138.071 61.5739 138.396 61.4894C138.723 61.4022 139.044 61.3586 139.36 61.3586C139.562 61.3586 139.794 61.3831 140.056 61.4322C140.32 61.4785 140.575 61.5753 140.82 61.7225C141.068 61.8697 141.274 62.0918 141.438 62.3889C141.601 62.686 141.683 63.084 141.683 63.5829V67.7207H140.718V66.8702H140.669C140.603 67.0065 140.494 67.1524 140.342 67.3077C140.189 67.4631 139.986 67.5953 139.733 67.7043C139.479 67.8134 139.17 67.8679 138.804 67.8679ZM138.952 67.0011C139.333 67.0011 139.655 66.9261 139.917 66.7762C140.181 66.6263 140.38 66.4327 140.514 66.1956C140.65 65.9584 140.718 65.709 140.718 65.4473V64.5642C140.677 64.6132 140.587 64.6582 140.448 64.6991C140.312 64.7373 140.154 64.7713 139.974 64.8013C139.797 64.8286 139.624 64.8531 139.455 64.8749C139.288 64.894 139.153 64.9103 139.05 64.924C138.799 64.9567 138.565 65.0098 138.346 65.0834C138.131 65.1543 137.957 65.262 137.823 65.4065C137.692 65.5482 137.627 65.7417 137.627 65.9871C137.627 66.3223 137.751 66.5758 137.999 66.7476C138.25 66.9166 138.567 67.0011 138.952 67.0011ZM143.444 67.7207V61.4403H144.376V62.3889H144.442C144.556 62.0782 144.763 61.826 145.063 61.6325C145.363 61.439 145.701 61.3422 146.077 61.3422C146.148 61.3422 146.237 61.3436 146.343 61.3463C146.449 61.349 146.53 61.3531 146.584 61.3586V62.3399C146.552 62.3317 146.477 62.3194 146.359 62.3031C146.245 62.284 146.124 62.2744 145.996 62.2744C145.69 62.2744 145.418 62.3385 145.178 62.4666C144.941 62.592 144.753 62.7665 144.614 62.99C144.477 63.2108 144.409 63.4629 144.409 63.7464V67.7207H143.444ZM149.909 67.8515C149.385 67.8515 148.923 67.7193 148.522 67.4549C148.122 67.1878 147.808 66.8116 147.582 66.3264C147.356 65.8385 147.243 65.262 147.243 64.5969C147.243 63.9372 147.356 63.3648 147.582 62.8796C147.808 62.3944 148.123 62.0196 148.527 61.7552C148.93 61.4908 149.396 61.3586 149.925 61.3586C150.334 61.3586 150.657 61.4267 150.894 61.563C151.134 61.6966 151.316 61.8492 151.442 62.0209C151.57 62.1899 151.669 62.329 151.74 62.438H151.822V59.3469H152.787V67.7207H151.855V66.7557H151.74C151.669 66.8702 151.569 67.0147 151.438 67.1892C151.307 67.3609 151.12 67.5149 150.878 67.6512C150.635 67.7848 150.312 67.8515 149.909 67.8515ZM150.039 66.9847C150.426 66.9847 150.754 66.8839 151.021 66.6822C151.288 66.4777 151.491 66.1956 151.63 65.8358C151.769 65.4732 151.838 65.0548 151.838 64.5805C151.838 64.1117 151.77 63.7014 151.634 63.3498C151.498 62.9954 151.296 62.7201 151.029 62.5239C150.762 62.3249 150.432 62.2254 150.039 62.2254C149.631 62.2254 149.29 62.3303 149.017 62.5402C148.747 62.7474 148.544 63.0295 148.408 63.3866C148.274 63.741 148.208 64.1389 148.208 64.5805C148.208 65.0276 148.276 65.4337 148.412 65.799C148.551 66.1615 148.756 66.4505 149.025 66.6658C149.298 66.8784 149.636 66.9847 150.039 66.9847Z" fill="#333333"/>
<rect x="59.9277" y="80.9912" width="172.71" height="34.5421" rx="2.8785" fill="white"/>
<path d="M79.3588 96.06H75.7642C75.3972 96.06 75.095 95.7578 75.095 95.3908C75.095 95.0238 75.3972 94.7215 75.7642 94.7215H79.3588C79.7258 94.7215 80.028 95.0238 80.028 95.3908C80.028 95.7578 79.7258 96.06 79.3588 96.06Z" fill="#333333"/>
<path d="M82.2409 105.408H73.6054C72.839 105.408 72.2129 104.782 72.2129 104.016V92.5087C72.2129 91.7423 72.839 91.1162 73.6054 91.1162H82.2409C82.6079 91.1162 82.9101 91.4185 82.9101 91.7855V104.739C82.9101 105.117 82.6079 105.408 82.2409 105.408ZM73.6054 92.4547L73.5622 104.016L81.5716 104.059V92.4547H73.6054Z" fill="#333333"/>
<path d="M72.8821 103.972C72.5151 103.972 72.2129 103.67 72.2129 103.303V102.58C72.2129 101.813 72.839 101.187 73.6054 101.187H82.2409C82.6079 101.187 82.9101 101.49 82.9101 101.857C82.9101 102.224 82.6079 102.526 82.2409 102.526H73.6054L73.5622 103.292C73.5622 103.67 73.2599 103.962 72.8929 103.962L72.8821 103.972Z" fill="#333333"/>
<path d="M95.4837 102.263V93.8889H96.4978V97.6178H100.963V93.8889H101.977V102.263H100.963V98.5174H96.4978V102.263H95.4837ZM106.427 102.394C105.86 102.394 105.363 102.259 104.935 101.989C104.51 101.719 104.177 101.341 103.937 100.856C103.7 100.371 103.582 99.804 103.582 99.1552C103.582 98.501 103.7 97.9299 103.937 97.442C104.177 96.9541 104.51 96.5752 104.935 96.3053C105.363 96.0355 105.86 95.9005 106.427 95.9005C106.994 95.9005 107.49 96.0355 107.916 96.3053C108.344 96.5752 108.676 96.9541 108.913 97.442C109.153 97.9299 109.273 98.501 109.273 99.1552C109.273 99.804 109.153 100.371 108.913 100.856C108.676 101.341 108.344 101.719 107.916 101.989C107.49 102.259 106.994 102.394 106.427 102.394ZM106.427 101.527C106.858 101.527 107.212 101.416 107.49 101.196C107.768 100.975 107.974 100.684 108.108 100.325C108.241 99.9648 108.308 99.575 108.308 99.1552C108.308 98.7354 108.241 98.3443 108.108 97.9817C107.974 97.6192 107.768 97.3262 107.49 97.1026C107.212 96.8791 106.858 96.7674 106.427 96.7674C105.997 96.7674 105.642 96.8791 105.364 97.1026C105.086 97.3262 104.88 97.6192 104.747 97.9817C104.613 98.3443 104.547 98.7354 104.547 99.1552C104.547 99.575 104.613 99.9648 104.747 100.325C104.88 100.684 105.086 100.975 105.364 101.196C105.642 101.416 105.997 101.527 106.427 101.527ZM110.746 102.263V95.9823H111.678V96.9636H111.76C111.891 96.6283 112.102 96.368 112.394 96.1827C112.686 95.9946 113.036 95.9005 113.445 95.9005C113.859 95.9005 114.204 95.9946 114.479 96.1827C114.757 96.368 114.974 96.6283 115.129 96.9636H115.195C115.356 96.6393 115.597 96.3817 115.918 96.1908C116.24 95.9973 116.626 95.9005 117.076 95.9005C117.637 95.9005 118.096 96.0764 118.454 96.428C118.811 96.7769 118.989 97.3207 118.989 98.0594V102.263H118.024V98.0594C118.024 97.596 117.897 97.2648 117.644 97.0658C117.39 96.8669 117.092 96.7674 116.748 96.7674C116.307 96.7674 115.965 96.9009 115.722 97.1681C115.48 97.4325 115.358 97.7678 115.358 98.1739V102.263H114.377V97.9613C114.377 97.6042 114.261 97.3166 114.029 97.0986C113.798 96.8778 113.499 96.7674 113.134 96.7674C112.883 96.7674 112.649 96.8342 112.431 96.9677C112.215 97.1013 112.041 97.2866 111.907 97.5238C111.777 97.7582 111.711 98.0294 111.711 98.3375V102.263H110.746ZM123.387 102.394C122.781 102.394 122.259 102.26 121.821 101.993C121.384 101.723 121.048 101.347 120.811 100.864C120.576 100.379 120.459 99.8149 120.459 99.1716C120.459 98.5283 120.576 97.9613 120.811 97.4706C121.048 96.9773 121.378 96.5929 121.8 96.3176C122.225 96.0396 122.722 95.9005 123.289 95.9005C123.616 95.9005 123.939 95.9551 124.258 96.0641C124.576 96.1731 124.867 96.3503 125.128 96.5956C125.39 96.8382 125.599 97.1599 125.754 97.5606C125.909 97.9613 125.987 98.4547 125.987 99.0407V99.4496H121.146V98.6155H125.006C125.006 98.2611 124.935 97.9449 124.793 97.6669C124.654 97.3889 124.455 97.1694 124.196 97.0086C123.94 96.8478 123.637 96.7674 123.289 96.7674C122.904 96.7674 122.572 96.8628 122.291 97.0536C122.013 97.2417 121.799 97.487 121.649 97.7896C121.499 98.0921 121.424 98.4165 121.424 98.7627V99.3188C121.424 99.7931 121.506 100.195 121.669 100.525C121.836 100.852 122.066 101.101 122.36 101.273C122.655 101.442 122.997 101.527 123.387 101.527C123.64 101.527 123.869 101.491 124.074 101.42C124.281 101.347 124.459 101.238 124.609 101.093C124.759 100.946 124.875 100.763 124.957 100.545L125.889 100.807C125.791 101.123 125.626 101.401 125.394 101.641C125.163 101.878 124.876 102.064 124.536 102.197C124.195 102.328 123.812 102.394 123.387 102.394ZM128.878 102.263L126.964 95.9823H127.978L129.336 100.791H129.401L130.742 95.9823H131.773L133.098 100.774H133.163L134.52 95.9823H135.534L133.621 102.263H132.672L131.298 97.4379H131.2L129.826 102.263H128.878ZM139.148 102.394C138.581 102.394 138.083 102.259 137.655 101.989C137.23 101.719 136.898 101.341 136.658 100.856C136.421 100.371 136.302 99.804 136.302 99.1552C136.302 98.501 136.421 97.9299 136.658 97.442C136.898 96.9541 137.23 96.5752 137.655 96.3053C138.083 96.0355 138.581 95.9005 139.148 95.9005C139.715 95.9005 140.211 96.0355 140.636 96.3053C141.064 96.5752 141.397 96.9541 141.634 97.442C141.874 97.9299 141.994 98.501 141.994 99.1552C141.994 99.804 141.874 100.371 141.634 100.856C141.397 101.341 141.064 101.719 140.636 101.989C140.211 102.259 139.715 102.394 139.148 102.394ZM139.148 101.527C139.579 101.527 139.933 101.416 140.211 101.196C140.489 100.975 140.695 100.684 140.828 100.325C140.962 99.9648 141.029 99.575 141.029 99.1552C141.029 98.7354 140.962 98.3443 140.828 97.9817C140.695 97.6192 140.489 97.3262 140.211 97.1026C139.933 96.8791 139.579 96.7674 139.148 96.7674C138.717 96.7674 138.363 96.8791 138.085 97.1026C137.807 97.3262 137.601 97.6192 137.467 97.9817C137.334 98.3443 137.267 98.7354 137.267 99.1552C137.267 99.575 137.334 99.9648 137.467 100.325C137.601 100.684 137.807 100.975 138.085 101.196C138.363 101.416 138.717 101.527 139.148 101.527ZM143.467 102.263V95.9823H144.399V96.9309H144.464C144.579 96.6202 144.786 96.368 145.086 96.1745C145.386 95.981 145.724 95.8842 146.1 95.8842C146.171 95.8842 146.259 95.8856 146.366 95.8883C146.472 95.891 146.552 95.8951 146.607 95.9005V96.8819C146.574 96.8737 146.499 96.8614 146.382 96.8451C146.267 96.826 146.146 96.8164 146.018 96.8164C145.713 96.8164 145.44 96.8805 145.2 97.0086C144.963 97.134 144.775 97.3085 144.636 97.532C144.5 97.7528 144.432 98.0049 144.432 98.2884V102.263H143.467ZM148.65 99.973L148.634 98.7791H148.83L151.578 95.9823H152.772L149.844 98.9426H149.762L148.65 99.973ZM147.751 102.263V93.8889H148.716V102.263H147.751ZM151.741 102.263L149.288 99.1552L149.975 98.4847L152.968 102.263H151.741Z" fill="#333333"/>
<rect x="59.9277" y="115.533" width="172.71" height="34.5421" rx="2.8785" fill="white"/>
<path d="M82.2406 140.349H70.723C70.356 140.349 70.0537 140.047 70.0537 139.68V126.715C70.0537 126.338 70.356 126.046 70.723 126.046H77.9228C78.2898 126.046 78.5921 126.348 78.5921 126.715C78.5921 127.082 78.2898 127.385 77.9228 127.385H71.3922V139H81.5605V133.915C81.5605 133.538 81.8628 133.246 82.2298 133.246C82.5968 133.246 82.899 133.548 82.899 133.915V139.669C82.899 140.047 82.5968 140.338 82.2298 140.338L82.2406 140.349Z" fill="#333333"/>
<path d="M73.9613 137.11C73.5943 137.11 73.292 136.808 73.292 136.441V134.52C73.292 133.959 73.5079 133.43 73.9073 133.03L80.6538 126.273C81.4526 125.474 82.8451 125.474 83.6439 126.273L84.1296 126.759C84.95 127.579 84.95 128.928 84.1296 129.749L77.3831 136.495C76.9837 136.895 76.4548 137.11 75.8935 137.11H73.9613ZM74.6305 135.761H75.8827C76.0878 135.761 76.2821 135.686 76.4224 135.535L83.1689 128.788C83.3092 128.648 83.3956 128.453 83.3956 128.248C83.3956 128.043 83.32 127.849 83.1689 127.709L82.6832 127.223C82.3917 126.931 81.8952 126.931 81.6037 127.223L74.8572 133.969C74.7169 134.11 74.6305 134.304 74.6305 134.509V135.761Z" fill="#333333"/>
<path d="M82.7803 130.817C82.6076 130.817 82.4349 130.753 82.3053 130.623L79.7903 128.108C79.5312 127.849 79.5312 127.417 79.7903 127.158C80.0493 126.899 80.4811 126.899 80.7402 127.158L83.2553 129.673C83.5143 129.932 83.5143 130.364 83.2553 130.623C83.1257 130.753 82.953 130.817 82.7803 130.817Z" fill="#333333"/>
<path d="M95.4837 128.431H96.694L99.5398 135.382H99.638L102.484 128.431H103.694V136.805H102.745V130.443H102.664L100.047 136.805H99.1309L96.5141 130.443H96.4323V136.805H95.4837V128.431ZM108.148 136.936C107.581 136.936 107.083 136.801 106.655 136.531C106.23 136.261 105.898 135.883 105.658 135.398C105.421 134.913 105.302 134.346 105.302 133.697C105.302 133.043 105.421 132.472 105.658 131.984C105.898 131.496 106.23 131.117 106.655 130.847C107.083 130.577 107.581 130.443 108.148 130.443C108.715 130.443 109.211 130.577 109.636 130.847C110.064 131.117 110.397 131.496 110.634 131.984C110.874 132.472 110.994 133.043 110.994 133.697C110.994 134.346 110.874 134.913 110.634 135.398C110.397 135.883 110.064 136.261 109.636 136.531C109.211 136.801 108.715 136.936 108.148 136.936ZM108.148 136.069C108.578 136.069 108.933 135.958 109.211 135.738C109.489 135.517 109.695 135.226 109.828 134.867C109.962 134.507 110.029 134.117 110.029 133.697C110.029 133.277 109.962 132.886 109.828 132.524C109.695 132.161 109.489 131.868 109.211 131.645C108.933 131.421 108.578 131.309 108.148 131.309C107.717 131.309 107.363 131.421 107.085 131.645C106.807 131.868 106.601 132.161 106.467 132.524C106.334 132.886 106.267 133.277 106.267 133.697C106.267 134.117 106.334 134.507 106.467 134.867C106.601 135.226 106.807 135.517 107.085 135.738C107.363 135.958 107.717 136.069 108.148 136.069ZM115.018 136.936C114.429 136.936 113.922 136.797 113.497 136.518C113.072 136.24 112.745 135.857 112.516 135.37C112.287 134.882 112.172 134.324 112.172 133.697C112.172 133.059 112.289 132.496 112.524 132.009C112.761 131.518 113.091 131.135 113.513 130.86C113.938 130.582 114.435 130.443 115.002 130.443C115.443 130.443 115.841 130.524 116.195 130.688C116.55 130.851 116.84 131.08 117.066 131.375C117.293 131.669 117.433 132.013 117.488 132.405H116.523C116.449 132.119 116.285 131.865 116.032 131.645C115.781 131.421 115.443 131.309 115.018 131.309C114.642 131.309 114.312 131.407 114.028 131.604C113.748 131.797 113.528 132.071 113.37 132.426C113.215 132.777 113.137 133.19 113.137 133.665C113.137 134.15 113.213 134.572 113.366 134.932C113.521 135.292 113.739 135.571 114.02 135.77C114.304 135.969 114.636 136.069 115.018 136.069C115.269 136.069 115.496 136.025 115.701 135.938C115.905 135.851 116.078 135.725 116.22 135.562C116.362 135.398 116.463 135.202 116.523 134.973H117.488C117.433 135.344 117.298 135.678 117.083 135.975C116.87 136.269 116.588 136.503 116.236 136.678C115.887 136.85 115.481 136.936 115.018 136.936ZM119.798 134.515L119.781 133.321H119.978L122.725 130.524H123.919L120.992 133.485H120.91L119.798 134.515ZM118.898 136.805V128.431H119.863V136.805H118.898ZM122.889 136.805L120.436 133.697L121.122 133.027L124.115 136.805H122.889ZM131.131 130.524V131.342H127.876V130.524H131.131ZM128.825 129.02H129.79V135.006C129.79 135.278 129.829 135.483 129.908 135.619C129.99 135.753 130.094 135.842 130.219 135.889C130.347 135.932 130.482 135.954 130.624 135.954C130.73 135.954 130.817 135.949 130.885 135.938C130.954 135.924 131.008 135.913 131.049 135.905L131.245 136.772C131.18 136.797 131.089 136.821 130.971 136.846C130.854 136.873 130.706 136.886 130.526 136.886C130.253 136.886 129.986 136.828 129.724 136.711C129.465 136.593 129.25 136.415 129.078 136.175C128.909 135.935 128.825 135.633 128.825 135.267V129.02ZM135.148 136.936C134.543 136.936 134.021 136.802 133.582 136.535C133.146 136.265 132.809 135.889 132.572 135.406C132.338 134.921 132.22 134.357 132.22 133.714C132.22 133.07 132.338 132.503 132.572 132.013C132.809 131.519 133.139 131.135 133.562 130.86C133.987 130.582 134.483 130.443 135.05 130.443C135.377 130.443 135.7 130.497 136.019 130.606C136.338 130.715 136.628 130.892 136.89 131.138C137.152 131.38 137.36 131.702 137.515 132.103C137.671 132.503 137.748 132.997 137.748 133.583V133.992H132.907V133.157H136.767C136.767 132.803 136.696 132.487 136.555 132.209C136.416 131.931 136.217 131.711 135.958 131.551C135.701 131.39 135.399 131.309 135.05 131.309C134.666 131.309 134.333 131.405 134.052 131.596C133.774 131.784 133.56 132.029 133.41 132.332C133.26 132.634 133.185 132.959 133.185 133.305V133.861C133.185 134.335 133.267 134.737 133.431 135.067C133.597 135.394 133.827 135.643 134.122 135.815C134.416 135.984 134.758 136.069 135.148 136.069C135.402 136.069 135.631 136.033 135.835 135.962C136.042 135.889 136.221 135.78 136.371 135.635C136.52 135.488 136.636 135.305 136.718 135.087L137.65 135.349C137.552 135.665 137.387 135.943 137.156 136.183C136.924 136.42 136.638 136.606 136.297 136.739C135.956 136.87 135.573 136.936 135.148 136.936ZM143.665 131.931L142.798 132.176C142.744 132.032 142.663 131.891 142.557 131.755C142.453 131.616 142.312 131.502 142.132 131.412C141.952 131.322 141.721 131.277 141.441 131.277C141.056 131.277 140.736 131.365 140.48 131.542C140.226 131.717 140.1 131.939 140.1 132.209C140.1 132.449 140.187 132.638 140.361 132.777C140.536 132.916 140.808 133.032 141.179 133.125L142.111 133.354C142.673 133.49 143.091 133.699 143.366 133.979C143.642 134.257 143.779 134.616 143.779 135.055C143.779 135.415 143.676 135.736 143.469 136.02C143.264 136.303 142.978 136.527 142.61 136.69C142.242 136.854 141.814 136.936 141.326 136.936C140.686 136.936 140.155 136.797 139.736 136.518C139.316 136.24 139.05 135.834 138.938 135.3L139.854 135.071C139.941 135.409 140.106 135.663 140.349 135.832C140.594 136.001 140.915 136.085 141.31 136.085C141.76 136.085 142.117 135.99 142.381 135.799C142.648 135.605 142.782 135.374 142.782 135.104C142.782 134.886 142.705 134.703 142.553 134.556C142.4 134.406 142.166 134.294 141.85 134.221L140.803 133.975C140.228 133.839 139.805 133.628 139.535 133.341C139.268 133.053 139.135 132.691 139.135 132.258C139.135 131.904 139.234 131.59 139.433 131.318C139.635 131.045 139.909 130.831 140.255 130.676C140.604 130.52 140.999 130.443 141.441 130.443C142.062 130.443 142.55 130.579 142.904 130.851C143.262 131.124 143.515 131.484 143.665 131.931ZM147.963 130.524V131.342H144.709V130.524H147.963ZM145.657 129.02H146.622V135.006C146.622 135.278 146.662 135.483 146.741 135.619C146.823 135.753 146.926 135.842 147.052 135.889C147.18 135.932 147.315 135.954 147.456 135.954C147.563 135.954 147.65 135.949 147.718 135.938C147.786 135.924 147.841 135.913 147.882 135.905L148.078 136.772C148.012 136.797 147.921 136.821 147.804 136.846C147.687 136.873 147.538 136.886 147.358 136.886C147.086 136.886 146.818 136.828 146.557 136.711C146.298 136.593 146.082 136.415 145.911 136.175C145.742 135.935 145.657 135.633 145.657 135.267V129.02Z" fill="#333333"/>
<path d="M59.9277 162.075C59.9277 155.448 65.3003 150.075 71.9277 150.075H220.638C227.265 150.075 232.638 155.448 232.638 162.075V172.617C232.638 179.245 227.265 184.617 220.638 184.617H71.9277C65.3003 184.617 59.9277 179.245 59.9277 172.617V162.075Z" fill="#F0F6FE"/>
<g clip-path="url(#clip1_14049_25798)">
<path d="M78.7565 169.915C78.7535 169.917 78.7504 169.918 78.7473 169.92C78.7389 169.847 78.7225 169.775 78.6978 169.704C78.6604 169.596 78.607 169.5 78.5412 169.417C78.7499 169.313 79.0181 169.178 79.2524 169L79.5673 168.762L79.3 168.47C79.1124 168.266 78.8838 167.99 78.6991 167.567C78.514 167.143 78.3657 166.554 78.3657 165.72C78.3657 164.349 78.7768 163.633 79.24 163.25C79.7163 162.856 80.3169 162.755 80.798 162.755C81.2791 162.755 81.8798 162.856 82.3561 163.25C82.8193 163.633 83.2304 164.349 83.2304 165.72C83.2304 166.554 83.0821 167.143 82.897 167.567C82.7123 167.99 82.4837 168.266 82.2961 168.47L82.0222 168.769L82.3507 169.006C82.6919 169.252 83.1185 169.445 83.4897 169.613L83.4991 169.617C83.4991 169.617 83.4992 169.617 83.4992 169.617C83.9769 169.834 84.45 170.051 84.8107 170.37C85.1537 170.674 85.3893 171.066 85.3893 171.657C85.3893 171.806 85.267 171.931 85.1158 171.931H85.0537C84.9335 171.902 84.8423 171.794 84.8423 171.664C84.8423 171.482 84.8089 171.309 84.7285 171.145C84.6487 170.983 84.5324 170.85 84.3942 170.736C84.1313 170.517 83.7453 170.329 83.2724 170.114C83.2721 170.114 83.2718 170.114 83.2715 170.113L83.2478 170.103C82.6823 169.842 82.1147 169.58 81.6848 169.156C81.5657 169.037 81.5204 168.938 81.5038 168.864C81.487 168.789 81.4937 168.713 81.5201 168.633C81.5779 168.459 81.7132 168.307 81.8101 168.203L81.8109 168.202C81.9696 168.032 82.1978 167.788 82.3786 167.391C82.5594 166.994 82.6835 166.466 82.6835 165.727C82.6835 164.779 82.485 164.145 82.1002 163.756C81.7103 163.361 81.2062 163.295 80.798 163.295C80.3915 163.295 79.8867 163.358 79.4963 163.752C79.1109 164.141 78.9126 164.776 78.9126 165.727C78.9126 166.466 79.0367 166.992 79.2177 167.389C79.3939 167.775 79.6154 168.017 79.7711 168.187C79.7755 168.192 79.7799 168.196 79.7842 168.201L79.7842 168.201L79.786 168.203C79.8829 168.307 80.0181 168.459 80.076 168.633C80.1024 168.713 80.1091 168.789 80.0922 168.864C80.0756 168.938 80.0301 169.038 79.9103 169.157C79.5666 169.501 79.1301 169.739 78.7591 169.914L78.7591 169.914L78.7565 169.915ZM77.0617 170L77.356 170.172L77.541 169.876C77.5582 169.848 77.5816 169.823 77.6135 169.802C77.6362 169.794 77.6571 169.786 77.6762 169.778C77.8252 169.73 77.9715 169.806 78.0181 169.94C78.0706 170.091 77.994 170.241 77.8583 170.288L77.8568 170.289C77.7961 170.31 77.7343 170.331 77.6604 170.356C77.5625 170.39 77.4434 170.431 77.2775 170.489C77.2654 170.493 77.2539 170.496 77.2433 170.498H77.1993C77.0805 170.498 76.979 170.425 76.9438 170.321C76.9033 170.195 76.9537 170.065 77.0617 170ZM77.6389 171.664C77.6389 171.488 77.6077 171.321 77.533 171.162C77.6658 171.115 77.7979 171.07 77.9054 171.033C77.9644 171.013 78.016 170.995 78.0563 170.981C78.1379 171.173 78.1858 171.397 78.1858 171.664C78.1858 171.814 78.0636 171.938 77.9123 171.938C77.7584 171.938 77.6389 171.818 77.6389 171.664ZM76.3885 169.666C76.2838 169.816 76.2218 169.994 76.2116 170.179C76.165 170.158 76.1174 170.136 76.0689 170.114C76.0686 170.114 76.0683 170.114 76.0681 170.113L76.0444 170.103C75.4789 169.842 74.9113 169.58 74.4814 169.157C74.3623 169.037 74.317 168.938 74.3004 168.864C74.2836 168.789 74.2902 168.713 74.3167 168.633C74.3745 168.459 74.5097 168.307 74.6067 168.203L74.6074 168.202C74.7661 168.032 74.9943 167.788 75.1751 167.391C75.356 166.994 75.48 166.466 75.48 165.727C75.48 164.779 75.2815 164.145 74.8967 163.756C74.5068 163.361 74.0027 163.295 73.5946 163.295C73.188 163.295 72.6833 163.358 72.2928 163.752C71.9074 164.141 71.7092 164.776 71.7092 165.727C71.7092 166.466 71.8332 166.992 72.0142 167.389C72.1904 167.775 72.412 168.017 72.5676 168.187C72.572 168.192 72.5764 168.196 72.5807 168.201L72.5807 168.201L72.5825 168.203C72.6795 168.307 72.8147 168.459 72.8725 168.633C72.899 168.713 72.9056 168.789 72.8888 168.864C72.8721 168.938 72.8267 169.038 72.7069 169.157C72.2718 169.593 71.6937 169.857 71.1229 170.113L71.122 170.113C70.6459 170.328 70.2586 170.514 69.9958 170.733C69.8574 170.848 69.7414 170.981 69.6623 171.144C69.5827 171.308 69.5503 171.482 69.5503 171.664C69.5503 171.814 69.4281 171.938 69.2768 171.938C69.1229 171.938 69.0034 171.818 69.0034 171.664C69.0034 171.073 69.2389 170.681 69.5819 170.377C69.9427 170.058 70.4159 169.841 70.8936 169.624L70.9029 169.62C71.2741 169.452 71.7007 169.259 72.0419 169.013L72.3705 168.776L72.0966 168.478C71.909 168.273 71.6804 167.997 71.4956 167.574C71.3106 167.15 71.1622 166.561 71.1622 165.727C71.1622 164.356 71.5734 163.641 72.0366 163.257C72.5128 162.863 73.1135 162.763 73.5946 162.763C74.0757 162.763 74.6763 162.863 75.1526 163.257C75.6158 163.641 76.0269 164.356 76.0269 165.727C76.0269 166.561 75.8786 167.15 75.6935 167.574C75.5088 167.997 75.2802 168.273 75.0926 168.478L74.8187 168.776L75.1472 169.013C75.4885 169.259 75.9151 169.452 76.2862 169.62L76.2959 169.624L76.2959 169.625L76.2982 169.626C76.3283 169.639 76.3585 169.652 76.3885 169.666Z" fill="#0F67F5" stroke="#0F67F5" stroke-width="0.719626"/>
</g>
<path d="M99.8465 165.275C99.8083 164.918 99.6475 164.64 99.364 164.441C99.0832 164.242 98.718 164.142 98.2682 164.142C97.952 164.142 97.6808 164.19 97.4545 164.285C97.2283 164.381 97.0552 164.51 96.9353 164.674C96.8153 164.837 96.754 165.024 96.7513 165.234C96.7513 165.408 96.7908 165.56 96.8698 165.688C96.9516 165.816 97.062 165.925 97.201 166.015C97.3401 166.102 97.4941 166.176 97.6631 166.236C97.8321 166.296 98.0024 166.346 98.1742 166.387L98.9592 166.583C99.2754 166.657 99.5793 166.756 99.871 166.882C100.165 167.007 100.428 167.165 100.66 167.356C100.895 167.547 101.08 167.777 101.216 168.047C101.353 168.317 101.421 168.633 101.421 168.996C101.421 169.486 101.295 169.918 101.044 170.292C100.794 170.662 100.431 170.953 99.9569 171.163C99.4853 171.37 98.9142 171.473 98.2437 171.473C97.5922 171.473 97.0266 171.373 96.5468 171.171C96.0698 170.969 95.6964 170.675 95.4265 170.288C95.1594 169.901 95.0149 169.429 94.9931 168.873H96.4855C96.5073 169.165 96.5973 169.407 96.7554 169.601C96.9135 169.794 97.1193 169.939 97.3728 170.034C97.629 170.13 97.9152 170.177 98.2314 170.177C98.5612 170.177 98.8502 170.128 99.0982 170.03C99.349 169.929 99.5453 169.79 99.687 169.613C99.8288 169.433 99.901 169.223 99.9037 168.983C99.901 168.765 99.8369 168.585 99.7115 168.444C99.5862 168.299 99.4103 168.179 99.1841 168.084C98.9606 167.986 98.6989 167.898 98.399 167.822L97.4464 167.577C96.7567 167.4 96.2115 167.131 95.8108 166.771C95.4129 166.409 95.2139 165.928 95.2139 165.328C95.2139 164.835 95.3475 164.403 95.6146 164.032C95.8844 163.661 96.2511 163.374 96.7145 163.169C97.1779 162.962 97.7026 162.858 98.2887 162.858C98.8829 162.858 99.4035 162.962 99.8506 163.169C100.3 163.374 100.653 163.658 100.91 164.024C101.166 164.386 101.298 164.803 101.306 165.275H99.8465ZM105.844 165.066V166.211H102.233V165.066H105.844ZM103.125 163.562H104.605V169.458C104.605 169.657 104.635 169.809 104.695 169.916C104.757 170.019 104.839 170.09 104.94 170.128C105.041 170.166 105.153 170.185 105.275 170.185C105.368 170.185 105.453 170.179 105.529 170.165C105.608 170.151 105.668 170.139 105.709 170.128L105.958 171.285C105.879 171.313 105.766 171.343 105.619 171.375C105.474 171.408 105.297 171.427 105.087 171.433C104.717 171.443 104.383 171.388 104.086 171.265C103.788 171.14 103.553 170.946 103.378 170.684C103.206 170.423 103.122 170.096 103.125 169.703V163.562ZM111.085 168.705V165.066H112.565V171.347H111.129V170.23H111.064C110.922 170.582 110.689 170.87 110.365 171.093C110.043 171.317 109.647 171.428 109.175 171.428C108.763 171.428 108.4 171.337 108.083 171.155C107.77 170.969 107.525 170.701 107.347 170.349C107.17 169.995 107.082 169.567 107.082 169.065V165.066H108.562V168.836C108.562 169.234 108.671 169.55 108.889 169.785C109.107 170.019 109.393 170.136 109.747 170.136C109.966 170.136 110.177 170.083 110.381 169.977C110.586 169.871 110.753 169.713 110.884 169.503C111.018 169.29 111.085 169.024 111.085 168.705ZM116.417 171.457C115.924 171.457 115.482 171.33 115.093 171.077C114.703 170.823 114.395 170.455 114.168 169.973C113.942 169.49 113.829 168.904 113.829 168.215C113.829 167.517 113.944 166.928 114.173 166.448C114.404 165.966 114.716 165.602 115.109 165.357C115.501 165.109 115.939 164.985 116.421 164.985C116.789 164.985 117.092 165.047 117.329 165.173C117.566 165.295 117.754 165.444 117.893 165.618C118.032 165.79 118.14 165.952 118.216 166.105H118.278V162.973H119.762V171.347H118.306V170.357H118.216C118.14 170.51 118.03 170.672 117.885 170.844C117.741 171.013 117.55 171.157 117.313 171.277C117.076 171.397 116.777 171.457 116.417 171.457ZM116.83 170.243C117.144 170.243 117.411 170.158 117.632 169.989C117.852 169.817 118.02 169.579 118.135 169.274C118.249 168.968 118.306 168.613 118.306 168.206C118.306 167.8 118.249 167.447 118.135 167.147C118.023 166.848 117.857 166.615 117.636 166.448C117.418 166.282 117.149 166.199 116.83 166.199C116.5 166.199 116.225 166.285 116.004 166.456C115.784 166.628 115.617 166.865 115.506 167.168C115.394 167.471 115.338 167.817 115.338 168.206C115.338 168.599 115.394 168.949 115.506 169.257C115.62 169.563 115.788 169.804 116.008 169.981C116.232 170.155 116.506 170.243 116.83 170.243ZM124.12 171.469C123.49 171.469 122.946 171.339 122.488 171.077C122.033 170.812 121.683 170.439 121.437 169.956C121.192 169.471 121.069 168.9 121.069 168.243C121.069 167.597 121.192 167.03 121.437 166.542C121.685 166.052 122.032 165.67 122.476 165.397C122.92 165.122 123.442 164.985 124.042 164.985C124.429 164.985 124.794 165.047 125.138 165.173C125.484 165.295 125.789 165.486 126.054 165.745C126.321 166.004 126.531 166.334 126.683 166.735C126.836 167.133 126.912 167.607 126.912 168.157V168.611H121.764V167.614H125.493C125.491 167.33 125.429 167.078 125.309 166.857C125.189 166.634 125.022 166.458 124.806 166.33C124.594 166.202 124.346 166.138 124.062 166.138C123.76 166.138 123.494 166.211 123.265 166.358C123.036 166.503 122.857 166.694 122.729 166.931C122.604 167.165 122.54 167.423 122.537 167.704V168.574C122.537 168.94 122.604 169.253 122.738 169.515C122.871 169.774 123.058 169.973 123.298 170.112C123.538 170.248 123.818 170.316 124.14 170.316C124.355 170.316 124.55 170.286 124.725 170.226C124.899 170.164 125.05 170.072 125.179 169.952C125.307 169.832 125.403 169.684 125.469 169.507L126.851 169.662C126.764 170.027 126.597 170.346 126.352 170.619C126.109 170.889 125.799 171.099 125.42 171.249C125.041 171.396 124.607 171.469 124.12 171.469ZM129.645 167.667V171.347H128.164V165.066H129.579V166.133H129.653C129.797 165.782 130.028 165.502 130.344 165.295C130.663 165.088 131.057 164.985 131.525 164.985C131.959 164.985 132.336 165.077 132.658 165.263C132.982 165.448 133.233 165.716 133.41 166.068C133.59 166.42 133.679 166.846 133.676 167.348V171.347H132.196V167.577C132.196 167.157 132.087 166.829 131.869 166.591C131.653 166.354 131.355 166.236 130.973 166.236C130.714 166.236 130.484 166.293 130.282 166.407C130.083 166.519 129.927 166.681 129.812 166.894C129.7 167.107 129.645 167.364 129.645 167.667ZM138.317 165.066V166.211H134.706V165.066H138.317ZM135.598 163.562H137.078V169.458C137.078 169.657 137.108 169.809 137.168 169.916C137.231 170.019 137.312 170.09 137.413 170.128C137.514 170.166 137.626 170.185 137.748 170.185C137.841 170.185 137.926 170.179 138.002 170.165C138.081 170.151 138.141 170.139 138.182 170.128L138.431 171.285C138.352 171.313 138.239 171.343 138.092 171.375C137.947 171.408 137.77 171.427 137.56 171.433C137.19 171.443 136.856 171.388 136.559 171.265C136.262 171.14 136.026 170.946 135.851 170.684C135.68 170.423 135.595 170.096 135.598 169.703V163.562ZM144.429 166.726L143.079 166.874C143.041 166.737 142.974 166.609 142.879 166.489C142.786 166.369 142.661 166.272 142.503 166.199C142.345 166.125 142.151 166.089 141.922 166.089C141.614 166.089 141.355 166.155 141.145 166.289C140.938 166.422 140.836 166.596 140.839 166.808C140.836 166.991 140.903 167.139 141.039 167.254C141.178 167.368 141.407 167.462 141.726 167.536L142.797 167.765C143.391 167.893 143.833 168.096 144.122 168.374C144.414 168.652 144.561 169.016 144.563 169.466C144.561 169.861 144.445 170.21 144.216 170.513C143.99 170.812 143.675 171.047 143.271 171.216C142.868 171.385 142.405 171.469 141.881 171.469C141.113 171.469 140.494 171.309 140.025 170.987C139.556 170.662 139.277 170.211 139.187 169.633L140.63 169.494C140.695 169.778 140.835 169.992 141.047 170.136C141.26 170.281 141.536 170.353 141.877 170.353C142.229 170.353 142.511 170.281 142.724 170.136C142.939 169.992 143.047 169.813 143.047 169.601C143.047 169.421 142.977 169.272 142.838 169.155C142.702 169.038 142.489 168.948 142.2 168.885L141.129 168.66C140.526 168.535 140.081 168.324 139.792 168.027C139.503 167.727 139.36 167.348 139.363 166.89C139.36 166.503 139.465 166.168 139.677 165.884C139.893 165.598 140.191 165.377 140.573 165.222C140.957 165.064 141.4 164.985 141.902 164.985C142.638 164.985 143.217 165.141 143.639 165.455C144.065 165.768 144.328 166.192 144.429 166.726Z" fill="#0F67F5"/>
<rect x="59.9277" y="184.617" width="172.71" height="34.5421" rx="2.8785" fill="white"/>
<path d="M83.6753 208.677C83.5458 208.677 83.4162 208.634 83.2975 208.57C81.9806 207.695 80.8904 207.242 80.07 207.242C79.3036 207.242 78.494 207.663 77.6736 208.483C77.4146 208.742 76.9828 208.742 76.7237 208.483C76.3783 208.138 75.2665 207.242 74.3166 207.242C73.3019 207.242 71.6504 208.203 71.089 208.57C70.884 208.71 70.6141 208.721 70.3982 208.602C70.1823 208.483 70.042 208.256 70.042 208.008V197.926C70.042 197.7 70.1499 197.494 70.3442 197.365C70.5817 197.203 72.719 195.811 74.3166 195.811C75.4824 195.811 76.5726 196.523 77.1879 197.02C79.1956 195.314 81.0954 195.4 84.0531 197.365C84.2366 197.494 84.3554 197.7 84.3554 197.926V208.008C84.3554 208.256 84.215 208.483 83.9991 208.602C83.902 208.656 83.794 208.677 83.6861 208.677H83.6753ZM74.3166 205.893C75.4824 205.893 76.5726 206.605 77.1879 207.101C78.127 206.303 79.0985 205.893 80.0808 205.893C80.9335 205.893 81.8942 206.195 83.0061 206.799V198.293C81.8187 197.538 80.8364 197.16 80.0808 197.16C79.3252 197.16 78.5048 197.581 77.6844 198.401C77.4254 198.66 76.9936 198.66 76.7345 198.401C76.3891 198.056 75.2773 197.16 74.3274 197.16C73.4638 197.16 72.1145 197.861 71.4021 198.293V206.821C72.2225 206.389 73.3667 205.893 74.3274 205.893H74.3166Z" fill="#333333"/>
<path d="M77.1987 208.677C76.8209 208.677 76.5294 208.375 76.5294 208.008V197.926C76.5294 197.548 76.8317 197.257 77.1987 197.257C77.5657 197.257 77.8679 197.559 77.8679 197.926V208.008C77.8679 208.386 77.5657 208.677 77.1987 208.677Z" fill="#333333"/>
<path d="M95.4837 205.889V197.515H98.3132C98.9674 197.515 99.5044 197.627 99.9242 197.85C100.344 198.071 100.655 198.375 100.856 198.762C101.058 199.149 101.159 199.589 101.159 200.083C101.159 200.576 101.058 201.013 100.856 201.395C100.655 201.777 100.345 202.077 99.9283 202.295C99.5112 202.51 98.9783 202.618 98.3295 202.618H96.0398V201.702H98.2968C98.7439 201.702 99.1037 201.636 99.3763 201.505C99.6516 201.375 99.8506 201.189 99.9732 200.949C100.099 200.707 100.161 200.418 100.161 200.083C100.161 199.747 100.099 199.454 99.9732 199.204C99.8478 198.953 99.6475 198.759 99.3722 198.623C99.0969 198.484 98.733 198.414 98.2805 198.414H96.4978V205.889H95.4837ZM99.4253 202.127L101.486 205.889H100.309L98.2805 202.127H99.4253ZM105.284 206.02C104.678 206.02 104.156 205.886 103.718 205.619C103.281 205.349 102.945 204.973 102.708 204.49C102.473 204.005 102.356 203.441 102.356 202.798C102.356 202.154 102.473 201.587 102.708 201.097C102.945 200.603 103.275 200.219 103.697 199.944C104.122 199.666 104.618 199.527 105.185 199.527C105.513 199.527 105.836 199.581 106.154 199.69C106.473 199.799 106.764 199.976 107.025 200.222C107.287 200.464 107.496 200.786 107.651 201.187C107.806 201.587 107.884 202.081 107.884 202.667V203.076H103.043V202.241H106.903C106.903 201.887 106.832 201.571 106.69 201.293C106.551 201.015 106.352 200.795 106.093 200.635C105.837 200.474 105.534 200.393 105.185 200.393C104.801 200.393 104.469 200.489 104.188 200.68C103.91 200.868 103.696 201.113 103.546 201.416C103.396 201.718 103.321 202.042 103.321 202.389V202.945C103.321 203.419 103.403 203.821 103.566 204.151C103.733 204.478 103.963 204.727 104.257 204.899C104.552 205.068 104.894 205.153 105.284 205.153C105.537 205.153 105.766 205.117 105.97 205.046C106.178 204.973 106.356 204.864 106.506 204.719C106.656 204.572 106.772 204.389 106.854 204.171L107.786 204.433C107.688 204.749 107.523 205.027 107.291 205.267C107.059 205.504 106.773 205.69 106.432 205.823C106.092 205.954 105.709 206.02 105.284 206.02ZM113.8 201.015L112.934 201.26C112.879 201.116 112.799 200.975 112.692 200.839C112.589 200.7 112.447 200.586 112.267 200.496C112.087 200.406 111.857 200.361 111.576 200.361C111.192 200.361 110.872 200.449 110.615 200.626C110.362 200.801 110.235 201.023 110.235 201.293C110.235 201.533 110.322 201.722 110.497 201.861C110.671 202 110.944 202.116 111.314 202.209L112.247 202.438C112.808 202.574 113.227 202.783 113.502 203.063C113.777 203.341 113.915 203.7 113.915 204.139C113.915 204.498 113.811 204.82 113.604 205.104C113.4 205.387 113.114 205.611 112.746 205.774C112.378 205.938 111.95 206.02 111.462 206.02C110.821 206.02 110.291 205.88 109.871 205.602C109.451 205.324 109.186 204.918 109.074 204.384L109.99 204.155C110.077 204.493 110.242 204.747 110.484 204.916C110.73 205.085 111.05 205.169 111.445 205.169C111.895 205.169 112.252 205.074 112.517 204.883C112.784 204.689 112.917 204.458 112.917 204.188C112.917 203.97 112.841 203.787 112.688 203.64C112.536 203.49 112.301 203.378 111.985 203.305L110.938 203.059C110.363 202.923 109.941 202.712 109.671 202.425C109.404 202.137 109.27 201.775 109.27 201.342C109.27 200.988 109.37 200.674 109.569 200.402C109.77 200.129 110.044 199.915 110.39 199.76C110.739 199.604 111.135 199.527 111.576 199.527C112.198 199.527 112.686 199.663 113.04 199.935C113.397 200.208 113.651 200.568 113.8 201.015ZM117.919 206.02C117.352 206.02 116.854 205.885 116.427 205.615C116.001 205.345 115.669 204.967 115.429 204.482C115.192 203.997 115.073 203.43 115.073 202.781C115.073 202.127 115.192 201.556 115.429 201.068C115.669 200.58 116.001 200.201 116.427 199.931C116.854 199.661 117.352 199.527 117.919 199.527C118.486 199.527 118.982 199.661 119.407 199.931C119.835 200.201 120.168 200.58 120.405 201.068C120.645 201.556 120.765 202.127 120.765 202.781C120.765 203.43 120.645 203.997 120.405 204.482C120.168 204.967 119.835 205.345 119.407 205.615C118.982 205.885 118.486 206.02 117.919 206.02ZM117.919 205.153C118.35 205.153 118.704 205.042 118.982 204.821C119.26 204.601 119.466 204.31 119.599 203.951C119.733 203.591 119.8 203.201 119.8 202.781C119.8 202.361 119.733 201.97 119.599 201.608C119.466 201.245 119.26 200.952 118.982 200.729C118.704 200.505 118.35 200.393 117.919 200.393C117.488 200.393 117.134 200.505 116.856 200.729C116.578 200.952 116.372 201.245 116.238 201.608C116.105 201.97 116.038 202.361 116.038 202.781C116.038 203.201 116.105 203.591 116.238 203.951C116.372 204.31 116.578 204.601 116.856 204.821C117.134 205.042 117.488 205.153 117.919 205.153ZM126.196 203.321V199.608H127.161V205.889H126.196V204.826H126.13C125.983 205.145 125.754 205.416 125.443 205.639C125.133 205.86 124.74 205.97 124.266 205.97C123.873 205.97 123.524 205.885 123.219 205.713C122.914 205.538 122.674 205.277 122.499 204.928C122.325 204.576 122.238 204.133 122.238 203.599V199.608H123.203V203.534C123.203 203.991 123.331 204.357 123.587 204.629C123.846 204.902 124.176 205.038 124.576 205.038C124.816 205.038 125.06 204.977 125.308 204.854C125.559 204.732 125.769 204.543 125.938 204.29C126.11 204.036 126.196 203.713 126.196 203.321ZM128.928 205.889V199.608H129.86V200.557H129.926C130.04 200.246 130.247 199.994 130.547 199.8C130.847 199.607 131.185 199.51 131.561 199.51C131.632 199.51 131.721 199.512 131.827 199.514C131.933 199.517 132.014 199.521 132.068 199.527V200.508C132.035 200.5 131.96 200.487 131.843 200.471C131.729 200.452 131.607 200.442 131.479 200.442C131.174 200.442 130.901 200.506 130.662 200.635C130.424 200.76 130.236 200.934 130.097 201.158C129.961 201.379 129.893 201.631 129.893 201.914V205.889H128.928ZM135.572 206.02C134.983 206.02 134.476 205.88 134.051 205.602C133.626 205.324 133.299 204.941 133.07 204.454C132.841 203.966 132.726 203.408 132.726 202.781C132.726 202.143 132.844 201.58 133.078 201.093C133.315 200.602 133.645 200.219 134.068 199.944C134.493 199.666 134.989 199.527 135.556 199.527C135.997 199.527 136.395 199.608 136.75 199.772C137.104 199.935 137.394 200.164 137.621 200.459C137.847 200.753 137.987 201.097 138.042 201.489H137.077C137.003 201.203 136.84 200.949 136.586 200.729C136.335 200.505 135.997 200.393 135.572 200.393C135.196 200.393 134.866 200.491 134.583 200.688C134.302 200.881 134.083 201.155 133.924 201.51C133.769 201.861 133.691 202.274 133.691 202.748C133.691 203.234 133.768 203.656 133.92 204.016C134.076 204.376 134.294 204.655 134.575 204.854C134.858 205.053 135.191 205.153 135.572 205.153C135.823 205.153 136.051 205.109 136.255 205.022C136.46 204.935 136.633 204.809 136.774 204.646C136.916 204.482 137.017 204.286 137.077 204.057H138.042C137.987 204.428 137.852 204.762 137.637 205.059C137.424 205.353 137.142 205.587 136.791 205.762C136.442 205.934 136.036 206.02 135.572 206.02ZM142.086 206.02C141.481 206.02 140.959 205.886 140.52 205.619C140.084 205.349 139.747 204.973 139.51 204.49C139.275 204.005 139.158 203.441 139.158 202.798C139.158 202.154 139.275 201.587 139.51 201.097C139.747 200.603 140.077 200.219 140.499 199.944C140.924 199.666 141.421 199.527 141.988 199.527C142.315 199.527 142.638 199.581 142.957 199.69C143.276 199.799 143.566 199.976 143.827 200.222C144.089 200.464 144.298 200.786 144.453 201.187C144.608 201.587 144.686 202.081 144.686 202.667V203.076H139.845V202.241H143.705C143.705 201.887 143.634 201.571 143.492 201.293C143.353 201.015 143.154 200.795 142.895 200.635C142.639 200.474 142.336 200.393 141.988 200.393C141.603 200.393 141.271 200.489 140.99 200.68C140.712 200.868 140.498 201.113 140.348 201.416C140.198 201.718 140.123 202.042 140.123 202.389V202.945C140.123 203.419 140.205 203.821 140.368 204.151C140.535 204.478 140.765 204.727 141.059 204.899C141.354 205.068 141.696 205.153 142.086 205.153C142.339 205.153 142.568 205.117 142.773 205.046C142.98 204.973 143.158 204.864 143.308 204.719C143.458 204.572 143.574 204.389 143.656 204.171L144.588 204.433C144.49 204.749 144.325 205.027 144.093 205.267C143.862 205.504 143.575 205.69 143.235 205.823C142.894 205.954 142.511 206.02 142.086 206.02ZM150.603 201.015L149.736 201.26C149.681 201.116 149.601 200.975 149.495 200.839C149.391 200.7 149.249 200.586 149.069 200.496C148.889 200.406 148.659 200.361 148.378 200.361C147.994 200.361 147.674 200.449 147.417 200.626C147.164 200.801 147.037 201.023 147.037 201.293C147.037 201.533 147.124 201.722 147.299 201.861C147.473 202 147.746 202.116 148.117 202.209L149.049 202.438C149.61 202.574 150.029 202.783 150.304 203.063C150.579 203.341 150.717 203.7 150.717 204.139C150.717 204.498 150.614 204.82 150.406 205.104C150.202 205.387 149.916 205.611 149.548 205.774C149.18 205.938 148.752 206.02 148.264 206.02C147.623 206.02 147.093 205.88 146.673 205.602C146.254 205.324 145.988 204.918 145.876 204.384L146.792 204.155C146.879 204.493 147.044 204.747 147.287 204.916C147.532 205.085 147.852 205.169 148.247 205.169C148.697 205.169 149.054 205.074 149.319 204.883C149.586 204.689 149.719 204.458 149.719 204.188C149.719 203.97 149.643 203.787 149.49 203.64C149.338 203.49 149.103 203.378 148.787 203.305L147.74 203.059C147.165 202.923 146.743 202.712 146.473 202.425C146.206 202.137 146.072 201.775 146.072 201.342C146.072 200.988 146.172 200.674 146.371 200.402C146.572 200.129 146.846 199.915 147.193 199.76C147.541 199.604 147.937 199.527 148.378 199.527C149 199.527 149.488 199.663 149.842 199.935C150.199 200.208 150.453 200.568 150.603 201.015Z" fill="#333333"/>
<rect x="59.9277" y="219.159" width="172.71" height="34.5421" rx="2.8785" fill="white"/>
<g clip-path="url(#clip2_14049_25798)">
<path d="M78.2794 241.417C77.9124 241.417 77.6101 241.115 77.6101 240.748C77.6101 240.23 77.2215 240.003 76.2716 239.572C75.6995 239.312 75.0626 239.021 74.5661 238.524C73.8969 237.855 74.4905 237.218 74.6848 237.002C74.9871 236.679 75.4512 236.182 75.4512 234.8C75.4512 233.019 74.6956 232.771 73.9616 232.771C73.2276 232.771 72.472 233.009 72.472 234.8C72.472 236.171 72.9362 236.668 73.2384 237.002C73.4327 237.208 74.0264 237.844 73.3571 238.524C72.8606 239.021 72.2237 239.312 71.6516 239.572C70.7017 240.003 70.3131 240.23 70.3131 240.748C70.3131 241.126 70.0109 241.417 69.6439 241.417C69.2769 241.417 68.9746 241.115 68.9746 240.748C68.9746 239.302 70.1512 238.773 71.1011 238.341C71.4681 238.179 71.8351 238.006 72.1374 237.801C71.7272 237.348 71.1335 236.538 71.1335 234.811C71.1335 231.875 72.9038 231.443 73.9616 231.443C75.0195 231.443 76.7897 231.886 76.7897 234.811C76.7897 236.538 76.1853 237.348 75.7859 237.801C76.0881 238.006 76.4551 238.179 76.8221 238.341C77.772 238.773 78.9486 239.302 78.9486 240.748C78.9486 241.126 78.6464 241.417 78.2794 241.417Z" fill="#333333"/>
<path d="M84.756 236.387H79.0026C78.6356 236.387 78.3333 236.085 78.3333 235.718C78.3333 235.351 78.6356 235.049 79.0026 235.049H84.756C85.123 235.049 85.4253 235.351 85.4253 235.718C85.4253 236.085 85.123 236.387 84.756 236.387Z" fill="#333333"/>
<path d="M81.8739 239.258C81.5069 239.258 81.2047 238.956 81.2047 238.589V232.836C81.2047 232.458 81.5069 232.167 81.8739 232.167C82.2409 232.167 82.5432 232.469 82.5432 232.836V238.589C82.5432 238.967 82.2409 239.258 81.8739 239.258Z" fill="#333333"/>
</g>
<path d="M95.4837 240.431V232.057H98.3132C98.9674 232.057 99.5044 232.169 99.9242 232.392C100.344 232.613 100.655 232.917 100.856 233.304C101.058 233.691 101.159 234.131 101.159 234.625C101.159 235.118 101.058 235.555 100.856 235.937C100.655 236.319 100.345 236.619 99.9283 236.837C99.5112 237.052 98.9783 237.16 98.3295 237.16H96.0398V236.244H98.2968C98.7439 236.244 99.1037 236.178 99.3763 236.047C99.6516 235.917 99.8506 235.731 99.9732 235.491C100.099 235.249 100.161 234.96 100.161 234.625C100.161 234.289 100.099 233.996 99.9732 233.746C99.8478 233.495 99.6475 233.301 99.3722 233.165C99.0969 233.026 98.733 232.956 98.2805 232.956H96.4978V240.431H95.4837ZM99.4253 236.669L101.486 240.431H100.309L98.2805 236.669H99.4253ZM105.284 240.562C104.678 240.562 104.156 240.428 103.718 240.161C103.281 239.891 102.945 239.515 102.708 239.032C102.473 238.547 102.356 237.983 102.356 237.34C102.356 236.696 102.473 236.129 102.708 235.639C102.945 235.145 103.275 234.761 103.697 234.486C104.122 234.208 104.618 234.069 105.185 234.069C105.513 234.069 105.836 234.123 106.154 234.232C106.473 234.341 106.764 234.518 107.025 234.764C107.287 235.006 107.496 235.328 107.651 235.729C107.806 236.129 107.884 236.623 107.884 237.209V237.618H103.043V236.783H106.903C106.903 236.429 106.832 236.113 106.69 235.835C106.551 235.557 106.352 235.337 106.093 235.177C105.837 235.016 105.534 234.935 105.185 234.935C104.801 234.935 104.469 235.031 104.188 235.222C103.91 235.41 103.696 235.655 103.546 235.958C103.396 236.26 103.321 236.584 103.321 236.931V237.487C103.321 237.961 103.403 238.363 103.566 238.693C103.733 239.02 103.963 239.269 104.257 239.441C104.552 239.61 104.894 239.695 105.284 239.695C105.537 239.695 105.766 239.659 105.97 239.588C106.178 239.515 106.356 239.406 106.506 239.261C106.656 239.114 106.772 238.931 106.854 238.713L107.786 238.975C107.688 239.291 107.523 239.569 107.291 239.809C107.059 240.046 106.773 240.232 106.432 240.365C106.092 240.496 105.709 240.562 105.284 240.562ZM112.149 234.15V234.968H108.763V234.15H112.149ZM109.777 240.431V233.283C109.777 232.924 109.862 232.624 110.031 232.384C110.2 232.144 110.419 231.964 110.689 231.844C110.959 231.724 111.244 231.664 111.543 231.664C111.781 231.664 111.974 231.683 112.124 231.722C112.274 231.76 112.386 231.795 112.459 231.828L112.181 232.662C112.132 232.646 112.064 232.625 111.977 232.601C111.892 232.576 111.781 232.564 111.642 232.564C111.323 232.564 111.092 232.644 110.951 232.805C110.812 232.966 110.742 233.202 110.742 233.512V240.431H109.777ZM115.876 240.562C115.27 240.562 114.748 240.428 114.31 240.161C113.873 239.891 113.537 239.515 113.3 239.032C113.065 238.547 112.948 237.983 112.948 237.34C112.948 236.696 113.065 236.129 113.3 235.639C113.537 235.145 113.867 234.761 114.289 234.486C114.714 234.208 115.21 234.069 115.777 234.069C116.105 234.069 116.428 234.123 116.746 234.232C117.065 234.341 117.356 234.518 117.617 234.764C117.879 235.006 118.088 235.328 118.243 235.729C118.398 236.129 118.476 236.623 118.476 237.209V237.618H113.635V236.783H117.495C117.495 236.429 117.424 236.113 117.282 235.835C117.143 235.557 116.944 235.337 116.685 235.177C116.429 235.016 116.126 234.935 115.777 234.935C115.393 234.935 115.061 235.031 114.78 235.222C114.502 235.41 114.288 235.655 114.138 235.958C113.988 236.26 113.913 236.584 113.913 236.931V237.487C113.913 237.961 113.995 238.363 114.158 238.693C114.325 239.02 114.555 239.269 114.849 239.441C115.144 239.61 115.486 239.695 115.876 239.695C116.129 239.695 116.358 239.659 116.562 239.588C116.77 239.515 116.948 239.406 117.098 239.261C117.248 239.114 117.364 238.931 117.446 238.713L118.378 238.975C118.28 239.291 118.115 239.569 117.883 239.809C117.651 240.046 117.365 240.232 117.024 240.365C116.684 240.496 116.301 240.562 115.876 240.562ZM119.944 240.431V234.15H120.876V235.099H120.942C121.056 234.788 121.263 234.536 121.563 234.342C121.863 234.149 122.201 234.052 122.577 234.052C122.648 234.052 122.737 234.054 122.843 234.056C122.949 234.059 123.03 234.063 123.084 234.069V235.05C123.051 235.042 122.976 235.029 122.859 235.013C122.745 234.994 122.623 234.984 122.495 234.984C122.19 234.984 121.917 235.048 121.678 235.177C121.44 235.302 121.252 235.476 121.113 235.7C120.977 235.921 120.909 236.173 120.909 236.456V240.431H119.944ZM124.228 240.431V234.15H125.16V235.099H125.226C125.34 234.788 125.547 234.536 125.847 234.342C126.147 234.149 126.485 234.052 126.861 234.052C126.932 234.052 127.021 234.054 127.127 234.056C127.233 234.059 127.314 234.063 127.368 234.069V235.05C127.335 235.042 127.26 235.029 127.143 235.013C127.029 234.994 126.907 234.984 126.779 234.984C126.474 234.984 126.201 235.048 125.962 235.177C125.724 235.302 125.536 235.476 125.397 235.7C125.261 235.921 125.193 236.173 125.193 236.456V240.431H124.228ZM130.36 240.578C129.962 240.578 129.601 240.503 129.277 240.353C128.952 240.2 128.695 239.981 128.504 239.695C128.313 239.406 128.218 239.057 128.218 238.648C128.218 238.288 128.288 237.996 128.43 237.773C128.572 237.547 128.761 237.37 128.998 237.241C129.236 237.113 129.497 237.018 129.784 236.955C130.072 236.89 130.363 236.838 130.654 236.8C131.036 236.751 131.345 236.714 131.583 236.689C131.822 236.662 131.997 236.617 132.106 236.554C132.218 236.492 132.274 236.383 132.274 236.227V236.195C132.274 235.791 132.163 235.478 131.942 235.254C131.724 235.031 131.393 234.919 130.949 234.919C130.488 234.919 130.127 235.02 129.865 235.222C129.604 235.423 129.42 235.639 129.313 235.868L128.397 235.54C128.561 235.159 128.779 234.862 129.052 234.649C129.327 234.434 129.627 234.284 129.951 234.199C130.278 234.112 130.6 234.069 130.916 234.069C131.118 234.069 131.35 234.093 131.611 234.142C131.876 234.188 132.131 234.285 132.376 234.432C132.624 234.58 132.83 234.802 132.993 235.099C133.157 235.396 133.239 235.794 133.239 236.293V240.431H132.274V239.58H132.225C132.159 239.716 132.05 239.862 131.897 240.018C131.745 240.173 131.542 240.305 131.288 240.414C131.035 240.523 130.725 240.578 130.36 240.578ZM130.507 239.711C130.889 239.711 131.211 239.636 131.472 239.486C131.737 239.336 131.936 239.143 132.069 238.906C132.205 238.668 132.274 238.419 132.274 238.157V237.274C132.233 237.323 132.143 237.368 132.004 237.409C131.867 237.447 131.709 237.481 131.529 237.511C131.352 237.539 131.179 237.563 131.01 237.585C130.844 237.604 130.709 237.62 130.605 237.634C130.355 237.667 130.12 237.72 129.902 237.793C129.687 237.864 129.512 237.972 129.379 238.116C129.248 238.258 129.182 238.452 129.182 238.697C129.182 239.032 129.307 239.286 129.555 239.458C129.805 239.627 130.123 239.711 130.507 239.711ZM135.965 232.057V240.431H135V232.057H135.965ZM142.181 235.557L141.314 235.802C141.259 235.658 141.179 235.517 141.073 235.381C140.969 235.242 140.827 235.128 140.647 235.038C140.468 234.948 140.237 234.903 139.956 234.903C139.572 234.903 139.252 234.991 138.996 235.168C138.742 235.343 138.615 235.565 138.615 235.835C138.615 236.075 138.703 236.264 138.877 236.403C139.051 236.542 139.324 236.658 139.695 236.751L140.627 236.98C141.189 237.116 141.607 237.325 141.882 237.605C142.158 237.883 142.295 238.242 142.295 238.681C142.295 239.04 142.192 239.362 141.984 239.646C141.78 239.929 141.494 240.153 141.126 240.316C140.758 240.48 140.33 240.562 139.842 240.562C139.201 240.562 138.671 240.422 138.251 240.144C137.832 239.866 137.566 239.46 137.454 238.926L138.37 238.697C138.457 239.035 138.622 239.289 138.865 239.458C139.11 239.627 139.43 239.711 139.826 239.711C140.275 239.711 140.632 239.616 140.897 239.425C141.164 239.231 141.298 239 141.298 238.73C141.298 238.512 141.221 238.329 141.069 238.182C140.916 238.032 140.682 237.92 140.365 237.847L139.319 237.601C138.743 237.465 138.321 237.254 138.051 236.967C137.784 236.679 137.65 236.317 137.65 235.884C137.65 235.53 137.75 235.216 137.949 234.944C138.151 234.671 138.425 234.457 138.771 234.302C139.12 234.146 139.515 234.069 139.956 234.069C140.578 234.069 141.066 234.205 141.42 234.477C141.777 234.75 142.031 235.11 142.181 235.557Z" fill="#333333"/>
</g>
<defs>
<clipPath id="clip0_14049_25798">
<rect width="576" height="262" fill="white" transform="translate(50.1377 32)"/>
</clipPath>
<clipPath id="clip1_14049_25798">
<rect width="17.271" height="17.271" fill="white" transform="translate(68.5635 158.711)"/>
</clipPath>
<clipPath id="clip2_14049_25798">
<rect width="17.271" height="17.271" fill="white" transform="translate(68.5635 227.795)"/>
</clipPath>
</defs>
</svg>
