<svg width="677" height="326" fill="none" xmlns="http://www.w3.org/2000/svg"><path fill="#F6F6F6" d="M0 0h676.27v326H0z"/><g clip-path="url(#a)"><path fill="#F3F8FF" d="M50.14 32h576v262h-576z"/><mask id="b" maskUnits="userSpaceOnUse" x="49.93" y="32.06" width="194" height="262" fill="#000"><path fill="#fff" d="M49.93 32.06h194v262h-194z"/><path d="M49.93 32.06h192.7V294H49.94V32.06Z"/></mask><path d="M49.93 32.06h192.7V294H49.94V32.06Z" fill="#fff"/><path d="M241.92 32.06V294h1.44V32.06h-1.44Z" fill="#EBEBEB" mask="url(#b)"/><rect x="59.93" y="46.45" width="172.71" height="34.54" rx="2.88" fill="#fff"/><path d="M73.24 60.44H71.8a.67.67 0 0 1-.67-.67v-1.44c0-.36.3-.67.67-.67h1.44c.38 0 .67.3.67.67v1.44c0 .37-.3.67-.67.67Zm-.77-1.35h.09V59h-.09v.09Zm5.09 1.35h-1.44a.67.67 0 0 1-.67-.67v-1.44c0-.36.3-.67.67-.67h1.44c.37 0 .66.3.66.67v1.44c0 .37-.3.67-.66.67Zm-.77-1.35h.09V59h-.1v.09Zm5.08 1.35h-1.43a.67.67 0 0 1-.67-.67v-1.44c0-.36.3-.67.67-.67h1.43c.38 0 .67.3.67.67v1.44c0 .37-.3.67-.67.67Zm-.76-1.35h.08V59h-.08v.09Zm-7.87 5.67H71.8a.67.67 0 0 1-.67-.67v-1.44c0-.37.3-.67.67-.67h1.44c.38 0 .67.3.67.67v1.44c0 .36-.3.67-.67.67Zm-.77-1.35h.09v-.09h-.09v.09Zm5.09 1.35h-1.44a.67.67 0 0 1-.67-.67v-1.44c0-.37.3-.67.67-.67h1.44c.37 0 .66.3.66.67v1.44c0 .36-.3.67-.66.67Zm-.77-1.35h.09v-.09h-.1v.09Zm5.08 1.35h-1.43a.67.67 0 0 1-.67-.67v-1.44c0-.37.3-.67.67-.67h1.43c.38 0 .67.3.67.67v1.44c0 .36-.3.67-.67.67Zm-.76-1.35h.08v-.09h-.08v.09Zm-7.87 5.66H71.8a.67.67 0 0 1-.67-.67v-1.43c0-.37.3-.67.67-.67h1.44c.38 0 .67.3.67.67v1.43c0 .37-.3.67-.67.67Zm-.77-1.35h.09v-.08h-.09v.08Zm5.09 1.35h-1.44a.67.67 0 0 1-.67-.67v-1.43c0-.37.3-.67.67-.67h1.44c.37 0 .66.3.66.67v1.43c0 .37-.3.67-.66.67Zm-.77-1.35h.09v-.08h-.1v.08Zm5.08 1.35h-1.43a.67.67 0 0 1-.67-.67v-1.43c0-.37.3-.67.67-.67h1.43c.38 0 .67.3.67.67v1.43c0 .37-.3.67-.67.67Zm-.76-1.35h.08v-.08h-.08v.08Zm16.96 0h-2.59v-8.37h2.7c.81 0 1.51.16 2.09.5.58.33 1.02.81 1.33 1.43.3.63.46 1.37.46 2.24 0 .87-.16 1.62-.47 2.25-.3.63-.76 1.11-1.36 1.45-.59.33-1.31.5-2.16.5Zm-1.57-.9H98c.7 0 1.27-.13 1.72-.4.46-.27.8-.65 1.02-1.14.23-.5.34-1.08.34-1.76a4.2 4.2 0 0 0-.33-1.75 2.45 2.45 0 0 0-1-1.13c-.43-.26-.98-.4-1.63-.4H96.5v6.58Zm8.98 1.05c-.4 0-.76-.08-1.09-.23a1.86 1.86 0 0 1-.77-.66 1.86 1.86 0 0 1-.29-1.04c0-.36.08-.65.22-.88.14-.22.33-.4.56-.53.24-.13.5-.22.79-.28.29-.07.58-.12.87-.16l.93-.11c.24-.03.41-.07.52-.14.11-.06.17-.17.17-.32v-.04c0-.4-.11-.71-.33-.94-.22-.22-.55-.33-1-.33-.45 0-.82.1-1.08.3-.26.2-.44.42-.55.65l-.92-.33a2.2 2.2 0 0 1 1.56-1.34 3.74 3.74 0 0 1 1.66-.06c.26.05.52.15.76.3.25.14.46.36.62.66.16.3.25.7.25 1.2v4.13h-.97v-.85h-.05a1.9 1.9 0 0 1-.94.83c-.25.11-.56.17-.92.17Zm.14-.87c.39 0 .7-.07.97-.22a1.54 1.54 0 0 0 .8-1.33v-.89c-.04.05-.13.1-.27.14a4.52 4.52 0 0 1-1 .17l-.4.05c-.25.04-.48.09-.7.16-.22.07-.4.18-.52.33a.83.83 0 0 0-.2.58c0 .33.12.59.37.76.25.17.57.25.95.25Zm8.94-4.15-.86.24a1.6 1.6 0 0 0-.24-.42c-.1-.14-.25-.25-.43-.34a1.54 1.54 0 0 0-.69-.14c-.38 0-.7.1-.96.27a.79.79 0 0 0-.38.66c0 .24.09.43.26.57.18.14.45.26.82.35l.93.23c.56.14.98.34 1.26.63.27.27.41.63.41 1.07 0 .36-.1.68-.31.97-.2.28-.5.5-.86.67-.37.16-.8.24-1.28.24-.64 0-1.17-.14-1.6-.42a1.85 1.85 0 0 1-.8-1.21l.92-.23c.1.34.26.59.5.76.24.17.56.25.96.25.45 0 .8-.1 1.07-.29.27-.19.4-.42.4-.69 0-.22-.07-.4-.23-.55a1.46 1.46 0 0 0-.7-.33l-1.05-.25a2.5 2.5 0 0 1-1.27-.63 1.6 1.6 0 0 1-.4-1.09c0-.35.1-.66.3-.94.2-.27.48-.48.83-.64.34-.15.74-.23 1.18-.23.62 0 1.11.13 1.47.4.35.28.6.64.75 1.09Zm2.54 1.1v3.77h-.97v-8.37h.97v3.07h.08c.15-.32.37-.58.66-.77.3-.2.7-.3 1.19-.3.42 0 .8.1 1.12.27.32.17.57.43.75.78.18.35.27.79.27 1.33v4h-.97V63.8c0-.5-.13-.89-.38-1.16a1.39 1.39 0 0 0-1.07-.41c-.32 0-.6.06-.85.2-.25.13-.45.32-.59.58a1.9 1.9 0 0 0-.21.93Zm5.97 3.77v-8.37h.96v3.09h.08l.3-.42a1.72 1.72 0 0 1 1.52-.66 2.49 2.49 0 0 1 2.34 1.52c.23.48.34 1.06.34 1.72 0 .66-.11 1.24-.34 1.73a2.46 2.46 0 0 1-2.33 1.53c-.4 0-.72-.08-.97-.2a1.8 1.8 0 0 1-.55-.47 6.21 6.21 0 0 1-.3-.43H124v.96h-.93Zm.94-3.14c0 .47.07.9.21 1.26a1.6 1.6 0 0 0 1.59 1.14c.4 0 .74-.1 1.01-.31.28-.22.48-.5.62-.87s.2-.77.2-1.22c0-.44-.06-.84-.2-1.2a1.85 1.85 0 0 0-.6-.84 1.6 1.6 0 0 0-1.03-.31 1.6 1.6 0 0 0-1.6 1.12c-.13.35-.2.76-.2 1.23Zm8.63 3.27c-.57 0-1.07-.13-1.5-.4a2.75 2.75 0 0 1-1-1.14 3.83 3.83 0 0 1-.35-1.7c0-.65.12-1.22.36-1.71s.57-.87 1-1.14c.42-.27.92-.4 1.49-.4.56 0 1.06.13 1.49.4.42.27.76.65 1 1.14.23.49.35 1.06.35 1.71a3.8 3.8 0 0 1-.36 1.7 2.65 2.65 0 0 1-2.48 1.54Zm0-.87c.43 0 .78-.1 1.06-.33.28-.22.48-.5.62-.87a3.42 3.42 0 0 0 0-2.34 1.98 1.98 0 0 0-.62-.88 1.64 1.64 0 0 0-1.06-.33c-.43 0-.79.1-1.07.33a2 2 0 0 0-.61.88c-.14.36-.2.75-.2 1.17 0 .42.06.81.2 1.17.13.36.34.65.61.87.28.22.64.33 1.07.33Zm6.16.89c-.4 0-.76-.08-1.08-.23a1.86 1.86 0 0 1-.77-.66c-.2-.28-.29-.63-.29-1.04 0-.36.07-.65.22-.88.14-.22.33-.4.56-.53.24-.13.5-.22.79-.28.29-.07.58-.12.87-.16l.93-.11c.24-.03.41-.07.52-.14.11-.06.17-.17.17-.32v-.04c0-.4-.11-.71-.33-.94-.22-.22-.55-.33-1-.33-.46 0-.82.1-1.08.3-.26.2-.45.42-.55.65l-.92-.33a2.2 2.2 0 0 1 1.56-1.34 3.73 3.73 0 0 1 1.66-.06c.26.05.51.15.76.3.25.14.45.36.62.66.16.3.24.7.24 1.2v4.13h-.96v-.85h-.05a1.9 1.9 0 0 1-.94.83 2.3 2.3 0 0 1-.93.17Zm.15-.87c.38 0 .7-.07.97-.22a1.54 1.54 0 0 0 .8-1.33v-.89c-.04.05-.13.1-.27.14a4.52 4.52 0 0 1-1 .17l-.4.05a3.7 3.7 0 0 0-.7.16c-.22.07-.4.18-.53.33a.82.82 0 0 0-.2.58c0 .33.13.59.38.76.25.17.57.25.95.25Zm4.5.72v-6.28h.93v.95h.06c.12-.31.32-.56.62-.76.3-.2.64-.29 1.02-.29a10.81 10.81 0 0 1 .5.02v.98a2.7 2.7 0 0 0-.58-.07c-.31 0-.58.07-.82.2a1.4 1.4 0 0 0-.77 1.28v3.97h-.97Zm6.46.13a2.46 2.46 0 0 1-2.33-1.52 4.08 4.08 0 0 1-.34-1.73c0-.66.12-1.24.34-1.72a2.49 2.49 0 0 1 2.34-1.52 1.72 1.72 0 0 1 1.52.66c.13.17.23.3.3.42h.08v-3.1h.97v8.38h-.94v-.96h-.11l-.3.43a1.8 1.8 0 0 1-.56.46c-.25.13-.57.2-.97.2Zm.13-.87c.39 0 .71-.1.98-.3.27-.2.47-.48.61-.84.14-.37.2-.79.2-1.26s-.06-.88-.2-1.23a1.61 1.61 0 0 0-1.6-1.12c-.4 0-.74.1-1.01.31-.27.2-.48.49-.61.85-.14.35-.2.75-.2 1.2 0 .44.07.84.2 1.2a2 2 0 0 0 .62.88c.27.2.6.31 1 .31Z" fill="#333"/><rect x="59.93" y="80.99" width="172.71" height="34.54" rx="2.88" fill="#fff"/><path d="M79.36 96.06h-3.6a.67.67 0 0 1-.67-.67c0-.37.3-.67.67-.67h3.6a.67.67 0 0 1 0 1.34Z" fill="#333"/><path d="M82.24 105.4h-8.63a1.4 1.4 0 0 1-1.4-1.38V92.5c0-.77.63-1.4 1.4-1.4h8.63c.37 0 .67.3.67.68v12.95c0 .38-.3.67-.67.67Zm-8.63-12.95-.05 11.57 8.01.04v-11.6h-7.96Z" fill="#333"/><path d="M72.88 103.97a.67.67 0 0 1-.67-.67v-.72c0-.77.63-1.4 1.4-1.4h8.63a.68.68 0 0 1 0 1.35h-8.63l-.05.76c0 .38-.3.67-.67.67v.01Zm22.6-1.71V93.9h1.02v3.73h4.46V93.9h1.02v8.37h-1.02v-3.74H96.5v3.74h-1.02Zm10.95.13c-.57 0-1.07-.13-1.5-.4a2.76 2.76 0 0 1-1-1.13 3.83 3.83 0 0 1-.35-1.7c0-.66.12-1.23.36-1.72a2.69 2.69 0 0 1 2.49-1.54c.56 0 1.06.14 1.49.4.42.28.76.65 1 1.14a4 4 0 0 1 .35 1.72 3.8 3.8 0 0 1-.36 1.7 2.68 2.68 0 0 1-2.48 1.53Zm0-.86c.43 0 .78-.11 1.06-.33.28-.23.48-.52.62-.88a3.38 3.38 0 0 0 0-2.34 1.98 1.98 0 0 0-.62-.88 1.64 1.64 0 0 0-1.06-.33c-.43 0-.79.1-1.07.33-.27.23-.48.52-.61.88-.14.36-.2.76-.2 1.18 0 .42.06.8.2 1.17.13.35.34.64.61.87.28.22.64.33 1.07.33Zm4.32.73v-6.28h.93v.98h.08c.13-.33.34-.6.63-.78.3-.19.65-.28 1.05-.28.42 0 .76.1 1.04.28.28.19.5.45.65.78h.06c.17-.32.4-.58.73-.77.32-.2.7-.29 1.16-.29.56 0 1.02.18 1.37.53.36.35.54.9.54 1.63v4.2h-.97v-4.2c0-.46-.12-.8-.38-1a1.4 1.4 0 0 0-.9-.3c-.43 0-.77.14-1.02.4-.24.27-.36.6-.36 1.01v4.1h-.98v-4.3c0-.37-.12-.65-.35-.87a1.24 1.24 0 0 0-.9-.33c-.25 0-.48.06-.7.2-.22.13-.39.32-.52.55-.13.24-.2.5-.2.82v3.92h-.96Zm12.64.13a2.68 2.68 0 0 1-2.58-1.53 3.84 3.84 0 0 1-.35-1.69 4 4 0 0 1 .35-1.7 2.66 2.66 0 0 1 2.48-1.57c.33 0 .65.06.97.16a2.4 2.4 0 0 1 1.5 1.5c.15.4.23.9.23 1.48v.41h-4.84v-.83H125c0-.36-.08-.68-.22-.95a1.6 1.6 0 0 0-1.5-.9c-.39 0-.72.1-1 .28-.28.2-.5.44-.64.74-.15.3-.23.63-.23.97v.56c0 .47.09.88.25 1.2a1.8 1.8 0 0 0 1.72 1.01c.25 0 .48-.04.68-.11a1.4 1.4 0 0 0 .89-.88l.93.27c-.1.31-.26.6-.5.83a2.4 2.4 0 0 1-.85.56c-.35.13-.73.2-1.15.2Zm5.49-.13-1.92-6.28h1.02l1.36 4.81h.06l1.34-4.8h1.03l1.33 4.78h.06l1.36-4.79h1.01l-1.9 6.28h-.96l-1.37-4.82h-.1l-1.37 4.82h-.95Zm10.27.13c-.57 0-1.07-.13-1.5-.4a2.75 2.75 0 0 1-1-1.13 3.83 3.83 0 0 1-.35-1.7c0-.66.12-1.23.36-1.72a2.69 2.69 0 0 1 2.49-1.54c.56 0 1.06.14 1.49.4.42.28.76.65 1 1.14a4 4 0 0 1 .35 1.72 3.8 3.8 0 0 1-.36 1.7 2.68 2.68 0 0 1-2.48 1.53Zm0-.86c.43 0 .78-.11 1.06-.33.28-.23.48-.52.62-.88a3.36 3.36 0 0 0 0-2.34 1.97 1.97 0 0 0-.62-.88 1.64 1.64 0 0 0-1.06-.33c-.43 0-.79.1-1.06.33a2 2 0 0 0-.62.88c-.14.36-.2.76-.2 1.18 0 .42.06.8.2 1.17.13.35.34.64.62.87.27.22.63.33 1.06.33Zm4.32.73v-6.28h.93v.95h.06c.12-.31.33-.56.63-.76.3-.19.63-.29 1.01-.29a10.89 10.89 0 0 1 .5.02v.98a2.88 2.88 0 0 0-.58-.06c-.3 0-.58.06-.82.19a1.41 1.41 0 0 0-.77 1.28v3.97h-.96Zm5.18-2.29-.02-1.2h.2l2.75-2.79h1.2l-2.94 2.96h-.08l-1.11 1.03Zm-.9 2.3v-8.38h.97v8.37h-.97Zm4 0-2.46-3.11.69-.68 2.99 3.78h-1.23Z" fill="#333"/><rect x="59.93" y="115.53" width="172.71" height="34.54" rx="2.88" fill="#fff"/><path d="M82.24 140.35H70.72a.67.67 0 0 1-.67-.67v-12.97c0-.37.3-.66.67-.66h7.2a.67.67 0 0 1 0 1.34H71.4V139h10.17v-5.09c0-.37.3-.66.67-.66.37 0 .67.3.67.66v5.76c0 .38-.3.67-.67.67h.01Z" fill="#333"/><path d="M73.96 137.11a.67.67 0 0 1-.67-.67v-1.92c0-.56.22-1.09.62-1.49l6.74-6.76c.8-.8 2.2-.8 3 0l.48.49c.82.82.82 2.17 0 2.99l-6.75 6.75c-.4.4-.93.61-1.49.61h-1.93Zm.67-1.35h1.25c.2 0 .4-.07.54-.22l6.75-6.75a.77.77 0 0 0 .23-.54c0-.2-.08-.4-.23-.54l-.49-.49a.77.77 0 0 0-1.08 0l-6.74 6.75a.77.77 0 0 0-.23.54v1.25Z" fill="#333"/><path d="M82.78 130.82a.67.67 0 0 1-.47-.2l-2.52-2.51a.68.68 0 0 1 0-.95c.26-.26.7-.26.95 0l2.52 2.51a.7.7 0 0 1 0 .95c-.13.13-.3.2-.48.2Zm12.7-2.39h1.21l2.85 6.95h.1l2.84-6.95h1.21v8.38h-.94v-6.37h-.09l-2.61 6.37h-.92l-2.62-6.37h-.08v6.37h-.95v-8.38Zm12.67 8.5c-.57 0-1.07-.13-1.5-.4a2.75 2.75 0 0 1-1-1.13 3.83 3.83 0 0 1-.35-1.7c0-.66.12-1.23.36-1.72.24-.48.57-.86 1-1.13.42-.27.92-.4 1.49-.4.56 0 1.06.13 1.49.4.42.27.76.65 1 1.13.23.5.35 1.06.35 1.72a3.8 3.8 0 0 1-.36 1.7 2.68 2.68 0 0 1-2.48 1.53Zm0-.86c.43 0 .78-.11 1.06-.33.28-.22.48-.51.62-.87a3.42 3.42 0 0 0 0-2.35 1.97 1.97 0 0 0-.62-.88 1.64 1.64 0 0 0-1.06-.33c-.43 0-.79.11-1.07.34-.27.22-.48.51-.61.87-.14.37-.2.76-.2 1.18 0 .42.06.8.2 1.17.13.36.34.65.61.87.28.22.64.33 1.07.33Zm6.87.87a2.7 2.7 0 0 1-1.52-.42 2.72 2.72 0 0 1-.98-1.15 3.9 3.9 0 0 1-.35-1.67 4 4 0 0 1 .35-1.7 2.66 2.66 0 0 1 2.48-1.57c.44.01.84.1 1.2.26a2.2 2.2 0 0 1 1.29 1.72h-.97a1.5 1.5 0 0 0-.49-.76 1.47 1.47 0 0 0-1.01-.34 1.73 1.73 0 0 0-1.65 1.12c-.16.35-.23.76-.23 1.23 0 .49.07.91.23 1.27.15.36.37.64.65.84.28.2.62.3 1 .3.25 0 .48-.04.68-.13a1.42 1.42 0 0 0 .82-.97h.97a2.24 2.24 0 0 1-1.25 1.7c-.35.18-.76.27-1.22.27Zm4.78-2.43-.02-1.19h.2l2.74-2.8h1.2l-2.93 2.97h-.08l-1.11 1.02Zm-.9 2.3v-8.38h.96v8.38h-.96Zm3.99 0-2.45-3.11.68-.67 3 3.78h-1.23Zm8.24-6.29v.82h-3.25v-.82h3.25Zm-2.3-1.5h.96v5.99c0 .27.04.47.12.6.08.14.18.23.3.28a1.7 1.7 0 0 0 .67.05l.17-.03.2.86a1.91 1.91 0 0 1-.72.12c-.28 0-.54-.06-.8-.18a1.6 1.6 0 0 1-.65-.53 1.54 1.54 0 0 1-.26-.91v-6.25Zm6.32 7.92c-.6 0-1.13-.14-1.57-.4a2.69 2.69 0 0 1-1-1.13 3.85 3.85 0 0 1-.36-1.7 4 4 0 0 1 .35-1.7 2.66 2.66 0 0 1 2.48-1.57c.33 0 .65.06.97.17a2.4 2.4 0 0 1 1.5 1.5c.15.4.23.89.23 1.47v.41h-4.84v-.83h3.86c0-.36-.07-.67-.22-.95a1.6 1.6 0 0 0-1.5-.9 1.8 1.8 0 0 0-1.64 1.02c-.15.3-.22.63-.22.97v.56c0 .47.08.88.24 1.2.17.33.4.58.7.75.29.17.63.26 1.02.26.25 0 .48-.04.69-.1a1.5 1.5 0 0 0 .88-.88l.93.26c-.1.31-.26.6-.5.83a2.4 2.4 0 0 1-.85.56c-.34.13-.73.2-1.15.2Zm8.51-5-.86.24a1.6 1.6 0 0 0-.24-.43c-.1-.13-.25-.25-.43-.34a1.55 1.55 0 0 0-.69-.13c-.38 0-.7.09-.96.26-.25.18-.38.4-.38.67 0 .24.09.43.26.57.18.14.45.25.82.34l.93.23c.56.14.98.35 1.26.63.27.28.4.64.4 1.08 0 .35-.1.68-.3.96-.2.28-.5.5-.86.67-.37.16-.8.25-1.28.25-.64 0-1.18-.14-1.6-.42a1.85 1.85 0 0 1-.8-1.22l.92-.23c.1.34.26.6.5.76.24.17.56.25.96.25.45 0 .8-.09 1.07-.28.27-.2.4-.43.4-.7 0-.21-.07-.4-.23-.54a1.46 1.46 0 0 0-.7-.34l-1.05-.25a2.5 2.5 0 0 1-1.27-.63c-.26-.29-.4-.65-.4-1.08 0-.36.1-.67.3-.94.2-.28.48-.49.82-.64.35-.16.75-.24 1.2-.24.61 0 1.1.14 1.45.41.36.27.61.63.76 1.08Zm4.3-1.42v.82h-3.25v-.82h3.25Zm-2.3-1.5h.96v5.99c0 .27.04.47.12.6.08.14.19.23.31.28a1.7 1.7 0 0 0 .83.02l.2.86a1.99 1.99 0 0 1-.72.12 1.9 1.9 0 0 1-.8-.18 1.6 1.6 0 0 1-.65-.53 1.54 1.54 0 0 1-.25-.91v-6.25Z" fill="#333"/><path d="M59.93 162.07a12 12 0 0 1 12-12h148.7a12 12 0 0 1 12 12v10.55a12 12 0 0 1-12 12H71.94a12 12 0 0 1-12-12v-10.55Z" fill="#F0F6FE"/><g clip-path="url(#c)"><path d="m78.76 169.91-.01.01a1 1 0 0 0-.2-.5c.2-.1.47-.24.7-.42l.32-.24-.27-.29c-.19-.2-.42-.48-.6-.9a4.55 4.55 0 0 1-.33-1.85c0-1.37.4-2.09.87-2.47.48-.4 1.08-.5 1.56-.5s1.08.1 1.56.5c.46.38.87 1.1.87 2.47a4.7 4.7 0 0 1-.33 1.85c-.19.42-.42.7-.6.9l-.28.3.33.24c.34.24.77.44 1.14.6.49.22.96.44 1.32.76.34.3.58.7.58 1.29 0 .15-.12.27-.27.27h-.07a.28.28 0 0 1-.2-.27 1.16 1.16 0 0 0-.46-.92 5.06 5.06 0 0 0-1.12-.63h-.02a5.35 5.35 0 0 1-1.57-.95.6.6 0 0 1-.18-.3.43.43 0 0 1 .02-.23c.06-.17.2-.32.29-.43.16-.17.39-.41.57-.8.18-.4.3-.93.3-1.67 0-.95-.2-1.58-.58-1.97-.39-.4-.9-.47-1.3-.47s-.91.07-1.3.46c-.39.4-.59 1.03-.59 1.98 0 .74.13 1.26.3 1.66.18.39.4.63.56.8l.01.01c.1.1.24.26.3.43.02.08.03.16.01.23a.6.6 0 0 1-.18.3c-.34.34-.78.58-1.15.75Zm-1.7.09.3.17.18-.3a.23.23 0 0 1 .07-.07l.07-.02c.15-.05.3.03.34.16.05.15-.03.3-.16.35l-.2.07-.38.13h-.08a.27.27 0 0 1-.26-.17.27.27 0 0 1 .12-.32Zm.58 1.66c0-.17-.03-.34-.1-.5l.37-.13.15-.05c.08.2.13.42.13.68 0 .15-.13.28-.28.28a.27.27 0 0 1-.27-.28Zm-1.25-2a1 1 0 0 0-.18.52l-.14-.07h-.03a5.37 5.37 0 0 1-1.56-.95.61.61 0 0 1-.18-.3.43.43 0 0 1 .02-.23c.05-.17.19-.32.29-.43.16-.17.38-.41.57-.8.18-.4.3-.93.3-1.67 0-.95-.2-1.58-.58-1.97-.4-.4-.9-.47-1.3-.47-.41 0-.92.07-1.3.46-.4.4-.6 1.03-.6 1.98 0 .74.13 1.26.31 1.66.18.39.4.63.56.8l.01.01c.1.1.23.26.3.43.02.08.03.16 0 .23a.6.6 0 0 1-.17.3c-.44.43-1.02.7-1.59.95-.47.22-.86.4-1.12.62-.14.12-.26.25-.34.41-.08.17-.11.34-.11.52 0 .15-.12.28-.27.28a.27.27 0 0 1-.28-.28c0-.59.24-.98.58-1.28.36-.32.84-.54 1.31-.76h.01c.37-.17.8-.36 1.14-.6l.33-.24-.27-.3a2.8 2.8 0 0 1-.6-.9 4.56 4.56 0 0 1-.34-1.85c0-1.37.41-2.09.88-2.47.47-.4 1.07-.5 1.55-.5.49 0 1.09.1 1.56.5.47.38.88 1.1.88 2.47 0 .83-.15 1.42-.34 1.84-.18.43-.41.7-.6.9l-.27.3.33.24c.34.25.77.44 1.14.61l.1.05Z" fill="#0F67F5" stroke="#0F67F5" stroke-width=".72"/></g><path d="M99.85 165.28c-.04-.36-.2-.64-.49-.84-.28-.2-.64-.3-1.1-.3-.3 0-.58.05-.8.15-.23.1-.4.22-.52.38a.94.94 0 0 0-.07 1.02 1 1 0 0 0 .33.32c.14.1.3.17.46.23l.51.15.79.2a4.62 4.62 0 0 1 1.7.77c.23.19.42.42.56.69.13.27.2.58.2.95a2.27 2.27 0 0 1-1.46 2.16c-.47.21-1.05.31-1.72.31-.65 0-1.21-.1-1.7-.3-.47-.2-.84-.5-1.11-.88a2.62 2.62 0 0 1-.44-1.42h1.5a1.27 1.27 0 0 0 .88 1.16c.26.1.55.15.86.15.33 0 .62-.05.87-.15.25-.1.45-.24.59-.42a1 1 0 0 0 .21-.63.8.8 0 0 0-.19-.54 1.4 1.4 0 0 0-.53-.36c-.22-.1-.48-.18-.78-.26l-.95-.24a3.83 3.83 0 0 1-1.64-.8c-.4-.37-.6-.85-.6-1.45 0-.5.14-.93.4-1.3.27-.37.64-.66 1.1-.86.47-.2 1-.31 1.58-.31.6 0 1.11.1 1.56.3.45.21.8.5 1.06.86.26.37.39.78.4 1.25h-1.46Zm6-.21v1.14h-3.62v-1.14h3.61Zm-2.72-1.5h1.48v5.89c0 .2.03.35.08.46.07.1.15.17.25.2.1.05.21.06.34.06a1.41 1.41 0 0 0 .43-.05l.25 1.16a2.96 2.96 0 0 1-1.87-.03c-.3-.12-.54-.31-.71-.58a1.72 1.72 0 0 1-.25-.98v-6.14Zm7.95 5.14v-3.64h1.48v6.28h-1.43v-1.12h-.07a1.97 1.97 0 0 1-1.89 1.2 1.92 1.92 0 0 1-1.83-1.08 2.85 2.85 0 0 1-.26-1.28v-4h1.48v3.77c0 .4.11.71.33.94.22.24.5.36.86.36a1.36 1.36 0 0 0 1.13-.64c.14-.21.2-.48.2-.8Zm5.34 2.75a2.38 2.38 0 0 1-2.25-1.49 4.13 4.13 0 0 1-.34-1.75c0-.7.11-1.3.34-1.77a2.4 2.4 0 0 1 3.16-1.28c.24.13.42.27.56.45.14.17.25.33.33.48h.06v-3.13h1.48v8.38h-1.45v-1h-.1a1.82 1.82 0 0 1-1.8 1.1Zm.41-1.22c.31 0 .58-.08.8-.25.22-.17.39-.41.5-.72.12-.3.18-.66.18-1.06 0-.41-.06-.76-.17-1.06a1.6 1.6 0 0 0-.5-.7 1.3 1.3 0 0 0-.81-.25c-.33 0-.6.09-.83.26-.22.17-.38.4-.5.7a3.4 3.4 0 0 0 .01 2.1c.11.3.28.54.5.72.22.18.5.26.82.26Zm7.29 1.23c-.63 0-1.17-.13-1.63-.4-.46-.26-.8-.63-1.05-1.11a3.75 3.75 0 0 1-.37-1.72c0-.64.12-1.21.37-1.7a2.8 2.8 0 0 1 2.6-1.55c.39 0 .75.06 1.1.18a2.57 2.57 0 0 1 1.54 1.57c.16.4.23.87.23 1.42v.45h-5.15v-1h3.73c0-.28-.06-.53-.18-.75-.12-.23-.29-.4-.5-.53-.22-.13-.46-.2-.75-.2a1.53 1.53 0 0 0-1.33.8c-.13.23-.19.5-.2.77v.87c0 .37.07.68.2.94.14.26.33.46.57.6.24.14.52.2.84.2.22 0 .41-.02.58-.08a1.2 1.2 0 0 0 .75-.72l1.38.15c-.09.37-.25.69-.5.96a2.4 2.4 0 0 1-.93.63 3.5 3.5 0 0 1-1.3.22Zm5.53-3.8v3.68h-1.49v-6.28h1.42v1.06h.07c.15-.35.38-.63.7-.84.31-.2.7-.3 1.18-.3.43 0 .8.09 1.13.27a2 2 0 0 1 .75.8c.18.36.27.79.27 1.29v4h-1.48v-3.77c0-.42-.11-.75-.33-.99a1.15 1.15 0 0 0-.9-.35c-.26 0-.49.05-.69.17-.2.1-.35.27-.47.48a1.7 1.7 0 0 0-.16.78Zm8.67-2.6v1.14h-3.61v-1.14h3.6Zm-2.72-1.5h1.48v5.89c0 .2.03.35.09.46.06.1.14.17.24.2.1.05.22.06.34.06a1.41 1.41 0 0 0 .43-.05l.25 1.16a2.96 2.96 0 0 1-1.87-.03c-.3-.12-.53-.31-.7-.58a1.73 1.73 0 0 1-.26-.98v-6.14Zm8.83 3.16-1.35.14c-.04-.13-.1-.26-.2-.38a.99.99 0 0 0-.38-.3 1.37 1.37 0 0 0-.58-.1c-.3 0-.56.06-.77.2-.21.13-.31.3-.31.52 0 .18.06.33.2.44.14.12.37.21.69.29l1.07.22c.6.13 1.03.34 1.32.61.3.28.44.65.44 1.1 0 .4-.12.74-.34 1.04-.23.3-.54.54-.95.7-.4.17-.87.26-1.39.26a3.2 3.2 0 0 1-1.85-.48 1.94 1.94 0 0 1-.84-1.36l1.44-.14c.06.29.2.5.42.65.21.14.49.21.83.21.35 0 .63-.07.84-.21.22-.15.33-.33.33-.54a.56.56 0 0 0-.21-.44 1.53 1.53 0 0 0-.64-.28l-1.07-.22a2.54 2.54 0 0 1-1.34-.63c-.29-.3-.43-.68-.43-1.14 0-.39.1-.72.32-1 .21-.3.51-.51.9-.67.38-.16.82-.23 1.32-.23.74 0 1.32.15 1.74.47.43.3.69.73.79 1.27Z" fill="#0F67F5"/><rect x="59.93" y="184.62" width="172.71" height="34.54" rx="2.88" fill="#fff"/><path d="M83.68 208.68a.8.8 0 0 1-.38-.11c-1.32-.88-2.41-1.33-3.23-1.33-.77 0-1.58.42-2.4 1.24a.68.68 0 0 1-.95 0c-.34-.34-1.45-1.24-2.4-1.24-1.02 0-2.67.96-3.23 1.33a.66.66 0 0 1-.7.03.68.68 0 0 1-.35-.6v-10.07c0-.23.11-.44.3-.56.24-.17 2.38-1.56 3.98-1.56 1.16 0 2.25.71 2.87 1.21 2-1.7 3.9-1.62 6.86.34.19.13.3.34.3.57V208c0 .25-.13.47-.35.6-.1.05-.2.07-.31.07h-.01Zm-9.36-2.79c1.16 0 2.25.72 2.87 1.21.94-.8 1.9-1.2 2.9-1.2.84 0 1.8.3 2.92.9v-8.5c-1.2-.76-2.17-1.14-2.93-1.14-.75 0-1.58.42-2.4 1.24a.68.68 0 0 1-.95 0c-.34-.34-1.45-1.24-2.4-1.24-.87 0-2.22.7-2.93 1.13v8.53a7 7 0 0 1 2.93-.93h-.01Z" fill="#333"/><path d="M77.2 208.68a.67.67 0 0 1-.67-.67v-10.08a.67.67 0 0 1 1.34 0V208c0 .38-.3.67-.67.67Zm18.28-2.79v-8.38h2.83c.66 0 1.2.12 1.61.34.42.22.73.53.94.91.2.39.3.83.3 1.32 0 .5-.1.93-.3 1.31-.2.39-.52.69-.93.9-.42.22-.95.33-1.6.33h-2.29v-.92h2.26c.44 0 .8-.06 1.08-.2.27-.13.47-.31.6-.55.12-.24.18-.53.18-.87 0-.33-.06-.63-.19-.88a1.28 1.28 0 0 0-.6-.58c-.27-.14-.64-.2-1.09-.2H96.5v7.47h-1.02Zm3.95-3.76 2.06 3.76h-1.18l-2.03-3.76h1.15Zm5.85 3.89a2.68 2.68 0 0 1-2.58-1.53 3.84 3.84 0 0 1-.34-1.7c0-.64.11-1.2.35-1.7a2.66 2.66 0 0 1 2.48-1.57c.32 0 .65.06.96.17a2.44 2.44 0 0 1 1.5 1.5c.16.4.23.9.23 1.48v.4h-4.84v-.83h3.86c0-.35-.07-.67-.21-.95a1.6 1.6 0 0 0-1.5-.9 1.76 1.76 0 0 0-1.64 1.03c-.15.3-.23.62-.23.97v.56c0 .47.08.87.25 1.2.16.33.4.58.69.75a2 2 0 0 0 1.02.25c.26 0 .49-.03.69-.1.2-.08.39-.19.54-.33.15-.15.26-.33.34-.55l.94.26c-.1.32-.27.6-.5.84a2.4 2.4 0 0 1-.86.55c-.34.13-.72.2-1.15.2Zm8.52-5-.87.24a1.61 1.61 0 0 0-.24-.42 1.1 1.1 0 0 0-.42-.34 1.54 1.54 0 0 0-.7-.14c-.38 0-.7.09-.95.27-.26.17-.39.4-.39.66 0 .24.1.43.27.57.17.14.44.26.81.35l.94.23c.56.13.98.34 1.25.62.28.28.42.64.42 1.08 0 .36-.1.68-.32.96-.2.29-.49.51-.85.67-.37.17-.8.25-1.29.25a2.8 2.8 0 0 1-1.59-.42 1.85 1.85 0 0 1-.8-1.22l.92-.22c.09.33.25.59.5.76.24.17.56.25.95.25.45 0 .81-.1 1.08-.29.26-.2.4-.42.4-.7 0-.21-.08-.4-.23-.54a1.45 1.45 0 0 0-.7-.33l-1.05-.25c-.58-.14-1-.35-1.27-.63-.27-.3-.4-.66-.4-1.09 0-.35.1-.67.3-.94.2-.27.47-.49.82-.64.35-.16.75-.23 1.19-.23.62 0 1.1.13 1.46.4.36.28.61.64.76 1.08Zm4.12 5c-.57 0-1.07-.14-1.5-.4a2.75 2.75 0 0 1-1-1.14 3.83 3.83 0 0 1-.35-1.7c0-.65.12-1.22.36-1.71s.57-.87 1-1.14c.42-.27.92-.4 1.49-.4s1.06.13 1.49.4c.42.27.76.65 1 1.14.23.49.36 1.06.36 1.71a3.8 3.8 0 0 1-.36 1.7c-.24.49-.58.87-1 1.14-.43.26-.92.4-1.5.4Zm0-.87c.43 0 .78-.1 1.06-.33.28-.22.49-.51.62-.87a3.42 3.42 0 0 0 0-2.34 1.97 1.97 0 0 0-.62-.88 1.64 1.64 0 0 0-1.06-.34c-.43 0-.79.12-1.06.34-.28.22-.49.52-.62.88a3.42 3.42 0 0 0 0 2.34c.13.36.34.65.62.87.27.22.63.33 1.06.33Zm8.28-1.83v-3.71h.96v6.28h-.96v-1.06h-.07a1.98 1.98 0 0 1-1.86 1.14c-.4 0-.75-.09-1.05-.26-.3-.17-.55-.43-.72-.78a3 3 0 0 1-.26-1.33v-4h.96v3.93c0 .46.13.83.39 1.1.26.27.59.4.99.4a1.64 1.64 0 0 0 1.36-.74c.17-.25.26-.58.26-.97Zm2.73 2.57v-6.28h.93v.95h.07c.11-.31.32-.57.62-.76.3-.2.63-.29 1.01-.29h.27l.24.02v.98a2.8 2.8 0 0 0-.6-.07c-.3 0-.57.07-.8.2a1.37 1.37 0 0 0-.77 1.27v3.98h-.97Zm6.64.13c-.59 0-1.1-.14-1.52-.42a2.72 2.72 0 0 1-.98-1.15 3.9 3.9 0 0 1-.34-1.67c0-.64.11-1.2.35-1.69a2.66 2.66 0 0 1 2.48-1.57c.44 0 .84.09 1.19.25s.64.4.87.69c.23.3.37.64.42 1.03h-.96a1.5 1.5 0 0 0-1.5-1.1c-.38 0-.71.1-1 .3a2 2 0 0 0-.66.82c-.15.35-.23.76-.23 1.24s.08.9.23 1.27c.16.36.37.63.66.83.28.2.61.3 1 .3.24 0 .47-.04.67-.13a1.4 1.4 0 0 0 .83-.96h.96a2.24 2.24 0 0 1-1.25 1.7c-.35.17-.75.26-1.22.26Zm6.52 0c-.6 0-1.13-.13-1.57-.4a2.69 2.69 0 0 1-1.01-1.13 3.84 3.84 0 0 1-.35-1.7 4 4 0 0 1 .35-1.7 2.66 2.66 0 0 1 2.48-1.57 3 3 0 0 1 .97.17 2.4 2.4 0 0 1 1.49 1.5c.16.4.24.9.24 1.48v.4h-4.84v-.83h3.86c0-.35-.08-.67-.22-.95a1.6 1.6 0 0 0-1.5-.9 1.76 1.76 0 0 0-1.64 1.03c-.15.3-.23.62-.23.97v.56c0 .47.09.87.25 1.2.16.33.4.58.69.75.3.17.64.25 1.03.25a1.63 1.63 0 0 0 1.22-.43c.15-.15.26-.33.35-.55l.93.26c-.1.32-.27.6-.5.84a2.4 2.4 0 0 1-.85.55c-.35.13-.73.2-1.15.2Zm8.51-5-.86.24a1.63 1.63 0 0 0-.25-.42 1.1 1.1 0 0 0-.42-.34 1.54 1.54 0 0 0-.7-.14c-.38 0-.7.09-.95.27a.76.76 0 0 0-.38.66c0 .24.08.43.26.57.17.14.45.26.82.35l.93.23c.56.13.98.34 1.25.62.28.28.42.64.42 1.08 0 .36-.1.68-.31.96a2 2 0 0 1-.86.67c-.37.17-.8.25-1.29.25a2.8 2.8 0 0 1-1.59-.42 1.85 1.85 0 0 1-.8-1.22l.92-.22c.09.33.25.59.5.76.24.17.56.25.96.25.45 0 .8-.1 1.07-.29.27-.2.4-.42.4-.7 0-.21-.08-.4-.23-.54a1.45 1.45 0 0 0-.7-.33l-1.05-.25c-.58-.14-1-.35-1.27-.63a1.6 1.6 0 0 1-.4-1.09c0-.35.1-.67.3-.94.2-.27.48-.49.82-.64.35-.16.75-.23 1.19-.23.62 0 1.1.13 1.46.4.36.28.61.64.76 1.08Z" fill="#333"/><rect x="59.93" y="219.16" width="172.71" height="34.54" rx="2.88" fill="#fff"/><g clip-path="url(#d)" fill="#333"><path d="M78.28 241.42a.67.67 0 0 1-.67-.67c0-.52-.39-.75-1.34-1.18a5.57 5.57 0 0 1-1.7-1.05c-.67-.67-.08-1.3.11-1.52.3-.32.77-.82.77-2.2 0-1.78-.75-2.03-1.49-2.03-.73 0-1.49.24-1.49 2.03 0 1.37.47 1.87.77 2.2.2.2.79.84.12 1.52-.5.5-1.14.8-1.7 1.05-.96.43-1.35.66-1.35 1.18 0 .38-.3.67-.67.67a.67.67 0 0 1-.67-.67c0-1.45 1.18-1.98 2.13-2.4a6.7 6.7 0 0 0 1.04-.55c-.41-.45-1-1.26-1-2.99 0-2.94 1.76-3.37 2.82-3.37 1.06 0 2.83.45 2.83 3.37 0 1.73-.6 2.54-1 3 .3.2.67.37 1.03.53.95.43 2.13.96 2.13 2.4 0 .39-.3.68-.67.68Zm6.48-5.03H79a.67.67 0 0 1-.67-.67c0-.37.3-.67.67-.67h5.76a.67.67 0 0 1 0 1.34Z"/><path d="M81.87 239.26a.67.67 0 0 1-.67-.67v-5.75a.67.67 0 0 1 1.34 0v5.75c0 .38-.3.67-.67.67Z"/></g><path d="M95.48 240.43v-8.37h2.83c.66 0 1.2.1 1.61.33.42.22.73.53.94.91.2.4.3.83.3 1.32 0 .5-.1.94-.3 1.32-.2.38-.52.68-.93.9-.42.21-.95.32-1.6.32h-2.29v-.92h2.26c.44 0 .8-.06 1.08-.2.27-.12.47-.3.6-.55.12-.24.18-.53.18-.87 0-.33-.06-.62-.19-.87a1.28 1.28 0 0 0-.6-.59c-.27-.13-.64-.2-1.09-.2H96.5v7.47h-1.02Zm3.95-3.76 2.06 3.76h-1.18l-2.03-3.76h1.15Zm5.85 3.9a2.68 2.68 0 0 1-2.58-1.53 3.84 3.84 0 0 1-.34-1.7c0-.64.11-1.21.35-1.7a2.66 2.66 0 0 1 2.48-1.57 2.59 2.59 0 0 1 1.84.69c.26.25.47.57.62.97.16.4.23.9.23 1.48v.4h-4.84v-.83h3.86c0-.35-.07-.67-.21-.94a1.6 1.6 0 0 0-1.5-.9c-.39 0-.72.1-1 .28-.28.19-.5.44-.64.74-.15.3-.23.62-.23.97v.56c0 .47.08.87.25 1.2.16.33.4.58.69.75a2 2 0 0 0 1.02.25c.26 0 .49-.03.69-.1.2-.08.39-.18.54-.33.15-.15.26-.33.34-.55l.94.26c-.1.32-.27.6-.5.84a2.4 2.4 0 0 1-.86.56c-.34.13-.72.2-1.15.2Zm6.87-6.42v.82h-3.39v-.82h3.39Zm-2.37 6.28v-7.15c0-.36.08-.66.25-.9.17-.24.39-.42.66-.54a2.37 2.37 0 0 1 1.77-.02l-.28.84a4.6 4.6 0 0 0-.2-.06 1.5 1.5 0 0 0-.34-.04c-.32 0-.55.08-.69.25-.14.16-.2.4-.2.7v6.92h-.97Zm6.1.13a2.68 2.68 0 0 1-2.58-1.53 3.84 3.84 0 0 1-.35-1.69c0-.64.11-1.21.35-1.7a2.66 2.66 0 0 1 2.48-1.57 2.65 2.65 0 0 1 1.84.69c.26.25.47.57.62.97.16.4.24.9.24 1.48v.4h-4.84v-.83h3.86c0-.35-.08-.67-.22-.94a1.6 1.6 0 0 0-1.5-.9c-.39 0-.72.1-1 .28-.28.19-.5.44-.64.74-.15.3-.23.62-.23.97v.56c0 .47.09.87.25 1.2.17.33.4.58.69.75.3.17.64.25 1.03.25.25 0 .48-.03.68-.1.21-.08.39-.18.54-.33.15-.15.26-.33.35-.55l.93.26c-.1.32-.27.6-.5.84a2.4 2.4 0 0 1-.86.56c-.34.13-.72.2-1.14.2Zm4.06-.13v-6.28h.94v.95h.06c.12-.31.32-.56.62-.76.3-.2.64-.29 1.02-.29h.26l.24.02v.98a2.8 2.8 0 0 0-.58-.07c-.31 0-.58.07-.82.2-.24.12-.43.3-.57.52-.13.22-.2.47-.2.76v3.97h-.97Zm4.29 0v-6.28h.93v.95h.07c.11-.31.32-.56.62-.76.3-.2.64-.29 1.01-.29h.27l.24.02v.98a2.8 2.8 0 0 0-.6-.07c-.3 0-.57.07-.8.2a1.37 1.37 0 0 0-.77 1.28v3.97h-.97Zm6.13.15c-.4 0-.76-.08-1.08-.23a1.86 1.86 0 0 1-.78-.66 1.82 1.82 0 0 1-.28-1.04c0-.36.07-.65.21-.88.14-.22.33-.4.57-.53a3 3 0 0 1 .78-.28c.3-.07.58-.12.87-.16l.93-.11c.24-.03.42-.07.53-.14.1-.06.16-.17.16-.32v-.03c0-.4-.1-.72-.33-.95-.22-.22-.55-.33-1-.33a1.72 1.72 0 0 0-1.63.95l-.91-.33a2.2 2.2 0 0 1 1.55-1.34 3.74 3.74 0 0 1 1.66-.06c.27.05.52.15.77.3.24.14.45.36.61.66.17.3.25.7.25 1.2v4.13h-.97v-.85h-.05c-.06.14-.17.28-.32.44-.16.15-.36.28-.61.4-.25.1-.56.16-.93.16Zm.15-.87c.38 0 .7-.07.96-.22a1.52 1.52 0 0 0 .8-1.33v-.89c-.04.05-.13.1-.27.14a4.65 4.65 0 0 1-.99.18l-.4.04c-.26.04-.49.09-.7.16-.22.07-.4.18-.53.33a.82.82 0 0 0-.2.58c0 .33.13.59.38.76.25.17.56.25.95.25Zm5.46-7.65v8.37H135v-8.37h.97Zm6.21 3.5-.87.24a1.63 1.63 0 0 0-.24-.42 1.1 1.1 0 0 0-.42-.34 1.54 1.54 0 0 0-.7-.14c-.38 0-.7.1-.95.27a.77.77 0 0 0-.38.67c0 .23.08.42.26.56.17.14.44.26.81.35l.94.23c.56.14.98.34 1.25.63.28.27.41.63.41 1.07 0 .36-.1.68-.3.97-.21.28-.5.5-.86.67-.37.16-.8.24-1.29.24a2.8 2.8 0 0 1-1.59-.42 1.85 1.85 0 0 1-.8-1.21l.92-.23c.09.34.25.59.5.76.24.17.56.25.96.25.44 0 .8-.1 1.07-.28.26-.2.4-.43.4-.7 0-.22-.08-.4-.23-.55a1.46 1.46 0 0 0-.7-.33l-1.05-.25c-.58-.13-1-.35-1.27-.63-.27-.3-.4-.65-.4-1.09 0-.35.1-.66.3-.94.2-.27.48-.48.82-.64.35-.15.74-.23 1.19-.23.62 0 1.1.14 1.46.4.36.28.61.64.76 1.09Z" fill="#333"/></g><defs><clipPath id="a"><path fill="#fff" transform="translate(50.14 32)" d="M0 0h576v262H0z"/></clipPath><clipPath id="c"><path fill="#fff" transform="translate(68.56 158.71)" d="M0 0h17.27v17.27H0z"/></clipPath><clipPath id="d"><path fill="#fff" transform="translate(68.56 227.8)" d="M0 0h17.27v17.27H0z"/></clipPath></defs></svg>