<svg width="333" height="192" fill="none" xmlns="http://www.w3.org/2000/svg"><g clip-path="url(#a)"><path fill="#F3F8FF" d="M0 0h333v191.8H0z"/><g clip-path="url(#b)"><path fill="#fff" d="M0 0h49.8v192H0z"/><mask id="e" fill="#fff"><path d="M0 0h49.8v369.56H0V0Z"/></mask><path d="M0 0h49.8v369.56H0V0Z" fill="#fff"/><path d="M9.05 15.85a6.8 6.8 0 0 1 6.8-6.8h18.1a6.8 6.8 0 0 1 6.8 6.8v13.58a6.8 6.8 0 0 1-6.8 6.8h-18.1a6.8 6.8 0 0 1-6.8-6.8V15.85Z" fill="#F3F8FF"/><path d="M22.07 20.3h-1.13a.5.5 0 0 1-.5-.5v-1.12c0-.28.22-.5.5-.5h1.13c.27 0 .5.22.5.5v1.13a.5.5 0 0 1-.5.5Zm-.63-.98h.14v-.15h-.14v.15Zm4.03.98h-1.13a.5.5 0 0 1-.5-.5v-1.12c0-.28.22-.5.5-.5h1.13c.27 0 .5.22.5.5v1.13a.5.5 0 0 1-.5.5Zm-.64-.98h.14v-.15h-.14v.15Zm4.03.98h-1.13a.5.5 0 0 1-.5-.5v-1.12c0-.28.22-.5.5-.5h1.13c.27 0 .5.22.5.5v1.13a.5.5 0 0 1-.5.5Zm-.63-.98h.14v-.15h-.14v.15Zm-6.16 4.38h-1.13a.5.5 0 0 1-.5-.5v-1.13c0-.27.22-.5.5-.5h1.13c.27 0 .5.22.5.5v1.13a.5.5 0 0 1-.5.5Zm-.63-.99h.14v-.14h-.14v.14Zm4.03.99h-1.13a.5.5 0 0 1-.5-.5v-1.13c0-.27.22-.5.5-.5h1.13c.27 0 .5.22.5.5v1.13a.5.5 0 0 1-.5.5Zm-.64-.99h.14v-.14h-.14v.14Zm4.03.99h-1.13a.5.5 0 0 1-.5-.5v-1.13c0-.27.22-.5.5-.5h1.13c.27 0 .5.22.5.5v1.13a.5.5 0 0 1-.5.5Zm-.63-.99h.14v-.14h-.14v.14Zm-6.16 4.39h-1.13a.5.5 0 0 1-.5-.5v-1.13c0-.27.22-.5.5-.5h1.13c.27 0 .5.22.5.5v1.13a.5.5 0 0 1-.5.5Zm-.63-1h.14v-.13h-.14v.14Zm4.03 1h-1.13a.5.5 0 0 1-.5-.5v-1.13c0-.27.22-.5.5-.5h1.13c.27 0 .5.22.5.5v1.13a.5.5 0 0 1-.5.5Zm-.64-1h.14v-.13h-.14v.14Zm4.03 1h-1.13a.5.5 0 0 1-.5-.5v-1.13c0-.27.22-.5.5-.5h1.13c.27 0 .5.22.5.5v1.13a.5.5 0 0 1-.5.5Zm-.63-1h.14v-.13h-.14v.14Z" fill="#0F67F5"/><path d="M9.05 44.14a6.8 6.8 0 0 1 6.8-6.79h18.1a6.8 6.8 0 0 1 6.8 6.8v13.58a6.8 6.8 0 0 1-6.8 6.79h-18.1a6.8 6.8 0 0 1-6.8-6.8V44.15Z" fill="#fff"/><path d="M28.86 56.53h-6.22a2.2 2.2 0 0 1-2.2-2.2v-6.79c0-1.21.99-2.2 2.2-2.2h6.22c.27 0 .5.22.5.5v10.19a.5.5 0 0 1-.5.5Zm-6.22-10.19c-.66 0-1.2.54-1.2 1.2v6.8c0 .65.54 1.2 1.2 1.2h5.72v-9.2h-5.72Z" fill="#333"/><path d="M20.94 54.83a.5.5 0 0 1-.5-.5c0-1.21.99-2.2 2.2-2.2h6.22a.5.5 0 0 1 0 1h-6.22c-.66 0-1.2.54-1.2 1.2a.5.5 0 0 1-.5.5Z" fill="#333"/><path d="M9.05 72.44a6.8 6.8 0 0 1 6.8-6.79h18.1a6.8 6.8 0 0 1 6.8 6.8v13.57a6.8 6.8 0 0 1-6.8 6.8h-18.1a6.8 6.8 0 0 1-6.8-6.8V72.44Z" fill="#fff"/><path d="M28.86 85.13h-9.05a.5.5 0 0 1-.5-.5V74.45c0-.27.22-.5.5-.5h5.66a.5.5 0 0 1 0 1H20.3v9.19h8.06V80.1a.5.5 0 0 1 1 0v4.53a.5.5 0 0 1-.5.5v-.01Z" fill="#333"/><path d="M23.87 82.58h-1.52a.5.5 0 0 1-.5-.5v-1.5c0-.44.18-.85.48-1.16l5.31-5.3a1.63 1.63 0 0 1 2.3 0l.38.38c.64.63.64 1.67 0 2.3l-5.3 5.31c-.31.3-.72.48-1.15.48Zm-1.02-.99h1.02c.17 0 .32-.07.44-.18l5.31-5.3a.64.64 0 0 0 0-.9l-.38-.39a.64.64 0 0 0-.9 0l-5.3 5.3a.64.64 0 0 0-.19.46v1.02Z" fill="#333"/><path d="M29.29 77.63a.5.5 0 0 1-.35-.15l-1.98-1.98a.5.5 0 0 1 0-.7c.19-.2.5-.2.7 0l1.98 1.98a.5.5 0 0 1-.35.85Z" fill="#333"/><path d="M9.05 100.74a6.8 6.8 0 0 1 6.8-6.8h18.1a6.8 6.8 0 0 1 6.8 6.8v13.58a6.8 6.8 0 0 1-6.8 6.8h-18.1a6.8 6.8 0 0 1-6.8-6.8v-13.58Z" fill="#fff"/><g clip-path="url(#c)" fill="#333"><path d="M31.13 111.42a.5.5 0 0 1-.5-.5c0-.42-.31-.61-1.07-.96-.44-.2-.95-.43-1.33-.8-.5-.5-.06-1 .09-1.15.24-.26.61-.66.61-1.75 0-1.44-.6-1.63-1.2-1.63s-1.2.19-1.2 1.63c0 1.1.37 1.48.61 1.75.15.16.6.64.1 1.14-.31.31-.7.51-1 .66l-.54.23c.16.23.26.52.26.89a.5.5 0 0 1-1 0c0-.43-.3-.62-1.07-.97-.44-.2-.94-.43-1.33-.8-.5-.5-.05-1 .1-1.15.24-.26.6-.66.6-1.75 0-1.44-.6-1.63-1.2-1.63-.59 0-1.2.19-1.2 1.63 0 1.1.37 1.48.62 1.75.14.16.6.64.09 1.14-.39.39-.9.61-1.33.81-.77.35-1.07.53-1.07.97a.5.5 0 0 1-1 0c0-1.12.92-1.53 1.65-1.87.3-.13.62-.27.86-.45-.32-.34-.81-.97-.81-2.35 0-2.28 1.38-2.62 2.2-2.62.82 0 2.2.34 2.2 2.62 0 1.38-.5 2-.82 2.35.25.18.56.32.86.45.2.1.42.19.62.3a.49.49 0 0 1 .25-.19c.26-.1.47-.18.64-.26.17-.08.36-.18.52-.3-.31-.35-.8-.98-.8-2.36 0-2.27 1.37-2.61 2.2-2.61.81 0 2.19.34 2.19 2.61 0 1.38-.5 2.01-.81 2.36.24.17.55.31.85.45.74.33 1.65.75 1.65 1.86a.5.5 0 0 1-.5.5Z"/><path d="M24.9 110.3a.5.5 0 0 1-.16-.97l.44-.15a.5.5 0 0 1 .63.3.5.5 0 0 1-.3.63l-.46.16a.52.52 0 0 1-.16.03h.01Z"/></g><path d="M30 140.85a.5.5 0 0 1-.28-.08c-1.04-.7-1.9-1.05-2.56-1.05-.61 0-1.25.34-1.9.99a.51.51 0 0 1-.71 0c-.28-.28-1.16-.99-1.91-.99-.8 0-2.12.76-2.56 1.05a.5.5 0 0 1-.77-.41v-7.93a.5.5 0 0 1 .22-.41c.19-.13 1.86-1.22 3.1-1.22.92 0 1.79.58 2.26.96.74-.63 1.5-.96 2.27-.96.87 0 1.88.4 3.11 1.22a.5.5 0 0 1 .22.41v7.92a.5.5 0 0 1-.26.44.48.48 0 0 1-.23.06Zm-7.36-2.12c.9 0 1.78.58 2.25.96.74-.64 1.5-.96 2.27-.96a5 5 0 0 1 2.34.74v-6.77c-.95-.6-1.74-.9-2.34-.9-.6 0-1.25.33-1.9.98a.51.51 0 0 1-.71 0c-.28-.28-1.16-.99-1.91-.99-.7 0-1.77.57-2.33.91v6.78a5.56 5.56 0 0 1 2.33-.75Z" fill="#333"/><path d="M24.9 140.85a.5.5 0 0 1-.5-.5v-7.92a.5.5 0 0 1 1 0v7.92a.5.5 0 0 1-.5.5Z" fill="#333"/><path d="M9.05 157.33a6.8 6.8 0 0 1 6.8-6.79h18.1a6.8 6.8 0 0 1 6.8 6.8v13.58a6.8 6.8 0 0 1-6.8 6.79h-18.1a6.8 6.8 0 0 1-6.8-6.8v-13.58Z" fill="#fff"/><g clip-path="url(#d)" fill="#333"><path d="M26.03 168.02a.5.5 0 0 1-.5-.5c0-.43-.3-.62-1.07-.96-.44-.2-.94-.43-1.33-.82-.5-.5-.05-.98.1-1.14.24-.26.6-.66.6-1.75 0-1.44-.6-1.63-1.2-1.63-.59 0-1.2.19-1.2 1.63 0 1.1.37 1.48.62 1.75.15.16.6.64.09 1.14-.39.39-.89.61-1.33.82-.77.34-1.07.53-1.07.96a.5.5 0 0 1-1 0c0-1.11.92-1.53 1.66-1.86.3-.14.6-.28.85-.45-.32-.35-.8-.98-.8-2.36 0-2.27 1.37-2.61 2.19-2.61.82 0 2.2.34 2.2 2.61 0 1.38-.5 2.01-.82 2.36.25.17.56.31.86.45.73.33 1.65.75 1.65 1.86a.5.5 0 0 1-.5.5Zm5.1-3.96H26.6a.5.5 0 0 1 0-1h4.53a.5.5 0 0 1 0 1Z"/><path d="M28.86 166.32a.5.5 0 0 1-.5-.5v-4.53a.5.5 0 0 1 1 0v4.53a.5.5 0 0 1-.5.5Z"/></g><path fill="#D9D9D9" fill-opacity=".01" d="M9.05 178.84h31.69v41.31H9.05z"/><path d="M49.24 0v369.56h1.13V0h-1.13Z" fill="#EBEBEB" mask="url(#e)"/></g></g><defs><clipPath id="a"><path fill="#fff" d="M0 0h333v191.8H0z"/></clipPath><clipPath id="b"><path fill="#fff" d="M0 0h49.8v192H0z"/></clipPath><clipPath id="c"><path fill="#fff" transform="translate(18.1 100.74)" d="M0 0h13.58v13.58H0z"/></clipPath><clipPath id="d"><path fill="#fff" transform="translate(18.1 157.33)" d="M0 0h13.58v13.58H0z"/></clipPath></defs></svg>