<svg width="256" height="44" fill="none" xmlns="http://www.w3.org/2000/svg"><rect y="6" width="256" height="4" rx="2" fill="#B0B0B0"/><rect y="6" width="215" height="4" rx="2" fill="#1E71F6"/><circle cx="215" cy="8" r="8" fill="#194CCC"/><path d="M204.9 31.2c.49 0 .96.1 1.44.28.48.18.91.47 1.3.88.4.41.72.97.96 1.68a11.61 11.61 0 0 1 .06 5.42c-.2.8-.47 1.47-.84 2.02a3.6 3.6 0 0 1-3.1 1.68 3.8 3.8 0 0 1-1.74-.39 3.42 3.42 0 0 1-1.87-2.7h1.39c.13.53.37.97.74 1.32.38.35.87.52 1.49.52.9 0 1.6-.4 2.12-1.18.53-.78.79-1.89.79-3.32h-.1a3.58 3.58 0 0 1-1.72 1.36 3.53 3.53 0 0 1-4.3-1.68 4 4 0 0 1-.5-2c0-.71.16-1.36.48-1.95a3.7 3.7 0 0 1 1.35-1.42 3.8 3.8 0 0 1 2.06-.52Zm0 1.25c-.47 0-.9.12-1.28.36s-.68.56-.9.96c-.22.4-.33.84-.33 1.32 0 .49.1.93.32 1.32a2.39 2.39 0 0 0 2.16 1.29 2.41 2.41 0 0 0 1.81-.8c.24-.24.42-.52.55-.84a2.6 2.6 0 0 0-.13-2.27c-.21-.4-.51-.72-.9-.97a2.33 2.33 0 0 0-1.3-.37Zm9.92 10.7a4 4 0 0 1-1.8-.39 3.35 3.35 0 0 1-1.28-1.09c-.32-.46-.5-.99-.53-1.58h1.36c.06.53.3.96.72 1.3.43.35.94.52 1.53.52a2.42 2.42 0 0 0 2.16-1.26c.22-.39.32-.84.32-1.33 0-.5-.1-.96-.33-1.36a2.45 2.45 0 0 0-2.24-1.3 3.63 3.63 0 0 0-2.02.59l-1.32-.16.7-5.73h6.05v1.25h-4.86l-.4 3.44h.06a3.4 3.4 0 0 1 2.02-.66 3.57 3.57 0 0 1 3.22 1.9c.32.58.49 1.25.49 2s-.17 1.41-.5 2a3.65 3.65 0 0 1-3.34 1.87Zm6.1-.15v-1.02l3.84-4.2c.46-.5.83-.93 1.12-1.3.29-.36.5-.7.65-1.03.14-.32.21-.66.21-1.02a1.89 1.89 0 0 0-1.09-1.75 2.58 2.58 0 0 0-1.14-.25c-.44 0-.83.1-1.17.28-.33.18-.58.44-.76.77a2.4 2.4 0 0 0-.27 1.16h-1.34a3.28 3.28 0 0 1 1.75-3 3.88 3.88 0 0 1 1.84-.44c.68 0 1.29.15 1.81.44a3.15 3.15 0 0 1 1.69 2.79c0 .43-.08.85-.23 1.26-.16.4-.42.86-.8 1.36-.37.5-.9 1.1-1.56 1.81l-2.62 2.8v.09h5.41V43h-7.34Z" fill="#757575"/></svg>