<svg width="672" height="122" fill="none" xmlns="http://www.w3.org/2000/svg"><path fill="#F6F6F6" d="M0 0h672v122H0z"/><rect x="208" y="45" width="256" height="4" rx="2" fill="#B0B0B0"/><rect x="208" y="45" width="128" height="4" rx="2" fill="#1E71F6"/><circle cx="334" cy="47" r="8" fill="#194CCC"/><path d="M209.23 83v-8.73h1.3v1.37h.1c.19-.47.48-.83.89-1.09.4-.26.89-.4 1.46-.4s1.05.14 1.44.4c.38.26.68.62.9 1.09h.09a2.6 2.6 0 0 1 1-1.08c.45-.27.99-.4 1.61-.4.78 0 1.42.24 1.92.73s.74 1.24.74 2.27V83h-1.34v-5.84c0-.64-.18-1.1-.53-1.38a1.96 1.96 0 0 0-1.24-.42c-.61 0-1.1.19-1.43.56-.33.37-.5.83-.5 1.4V83h-1.37v-5.98c0-.5-.16-.9-.48-1.2a1.88 1.88 0 0 0-2.22-.18c-.3.19-.54.45-.73.77-.18.33-.27.7-.27 1.14V83h-1.34Zm13.9 0v-8.73h1.34V83h-1.34Zm.69-10.18a.95.95 0 0 1-.68-.27.86.86 0 0 1-.28-.64c0-.25.1-.46.28-.64a.95.95 0 0 1 .68-.27c.26 0 .48.09.67.27.19.18.28.39.28.64s-.1.46-.28.64a.93.93 0 0 1-.68.27Zm4.45 4.93V83h-1.34v-8.73h1.3v1.37h.1c.21-.45.52-.8.94-1.07.42-.27.96-.41 1.61-.41.6 0 1.11.12 1.56.36.44.24.78.6 1.03 1.1.25.48.37 1.1.37 1.83V83h-1.34v-5.45c0-.69-.18-1.22-.54-1.6a1.9 1.9 0 0 0-1.46-.59c-.43 0-.81.1-1.15.28a2 2 0 0 0-.79.81c-.2.36-.29.8-.29 1.3ZM321.23 83v-8.73h1.3v1.37h.1c.19-.47.48-.83.89-1.09.4-.26.89-.4 1.46-.4s1.05.14 1.44.4c.38.26.68.62.9 1.09h.09a2.6 2.6 0 0 1 1-1.08c.45-.27.99-.4 1.61-.4.78 0 1.42.24 1.92.73s.74 1.24.74 2.27V83h-1.34v-5.84c0-.64-.17-1.1-.53-1.38a1.96 1.96 0 0 0-1.24-.42c-.62 0-1.1.19-1.43.56-.33.37-.5.83-.5 1.4V83h-1.37v-5.98c0-.5-.16-.9-.48-1.2a1.88 1.88 0 0 0-2.22-.18c-.3.19-.54.45-.73.77-.18.33-.27.7-.27 1.14V83h-1.34Zm13.9 0v-8.73h1.34V83h-1.34Zm.69-10.18a.95.95 0 0 1-.68-.27.86.86 0 0 1-.28-.64c0-.25.1-.46.28-.64a.95.95 0 0 1 .68-.27c.26 0 .48.09.67.27.19.18.28.39.28.64s-.1.46-.28.64a.93.93 0 0 1-.68.27Zm6.4 10.36a3.42 3.42 0 0 1-3.23-2.12 5.67 5.67 0 0 1-.47-2.4c0-.92.16-1.71.47-2.39a3.47 3.47 0 0 1 3.26-2.11c.57 0 1.02.1 1.35.28.33.19.58.4.76.64.18.23.31.43.41.58h.12v-4.3h1.34V83h-1.3v-1.34h-.16l-.42.6a2.5 2.5 0 0 1-.78.64 2.8 2.8 0 0 1-1.34.28Zm.19-1.2c.54 0 .99-.14 1.36-.42.37-.29.66-.68.85-1.18.2-.5.29-1.08.29-1.74 0-.66-.1-1.23-.29-1.71a2.24 2.24 0 0 0-2.22-1.56c-.56 0-1.03.14-1.41.43a2.6 2.6 0 0 0-.85 1.18 4.55 4.55 0 0 0-.28 1.66c0 .62.1 1.18.29 1.69.19.5.47.9.85 1.2.38.3.85.45 1.4.45ZM433.23 83v-8.73h1.3v1.37h.1c.19-.47.48-.83.89-1.09.4-.26.89-.4 1.46-.4s1.05.14 1.44.4c.38.26.68.62.9 1.09h.09a2.6 2.6 0 0 1 1-1.08c.45-.27.99-.4 1.61-.4.78 0 1.42.24 1.92.73s.74 1.24.74 2.27V83h-1.34v-5.84c0-.64-.17-1.1-.53-1.38a1.96 1.96 0 0 0-1.24-.42c-.62 0-1.1.19-1.43.56-.33.37-.5.83-.5 1.4V83h-1.37v-5.98c0-.5-.16-.9-.48-1.2a1.88 1.88 0 0 0-2.22-.18c-.3.19-.54.45-.73.77-.18.33-.27.7-.27 1.14V83h-1.34Zm16.47.2c-.55 0-1.05-.1-1.5-.3a2.77 2.77 0 0 1-1.08-.92c-.26-.4-.4-.89-.4-1.46 0-.5.1-.9.3-1.21.2-.32.46-.56.79-.74.33-.18.7-.31 1.1-.4.4-.1.8-.16 1.2-.22l1.3-.15c.32-.04.57-.1.72-.19.15-.08.23-.23.23-.45v-.05c0-.56-.15-1-.46-1.3-.3-.31-.76-.47-1.38-.47-.64 0-1.14.14-1.5.42a2.5 2.5 0 0 0-.77.9l-1.28-.46a3.06 3.06 0 0 1 2.16-1.86 5.18 5.18 0 0 1 2.31-.08c.37.07.72.2 1.06.4.35.2.63.52.86.93.23.41.34.97.34 1.66V83h-1.34v-1.18h-.07a2.62 2.62 0 0 1-1.3 1.16c-.35.15-.78.22-1.29.22Zm.2-1.2c.54 0 .98-.1 1.35-.31a2.13 2.13 0 0 0 1.11-1.85v-1.23a.93.93 0 0 1-.37.2c-.2.04-.41.1-.66.13a30.34 30.34 0 0 1-1.29.17c-.35.05-.67.12-.98.23-.3.1-.54.24-.72.44-.18.2-.27.47-.27.81 0 .47.17.82.51 1.06.35.23.8.35 1.33.35Zm7.25-7.73 2.09 3.57 2.1-3.57h1.54l-2.82 4.37 2.82 4.36h-1.55l-2.09-3.39-2.1 3.39h-1.54l2.78-4.36-2.78-4.37h1.55Z" fill="#757575"/></svg>