<svg width="672" height="122" fill="none" xmlns="http://www.w3.org/2000/svg"><path fill="#F6F6F6" d="M0 0h672v122H0z"/><rect x="208" y="59" width="256" height="4" rx="2" fill="#B0B0B0"/><rect x="267" y="59" width="84" height="4" rx="2" fill="#1E71F6"/><circle cx="275" cy="61" r="8" fill="#194CCC"/><circle cx="343" cy="61" r="8" fill="#194CCC"/><path d="M218.77 89h-1.4a2.95 2.95 0 0 0-1.2-1.84 3.2 3.2 0 0 0-.96-.48 3.9 3.9 0 0 0-1.12-.16 3.51 3.51 0 0 0-3.27 2.11c-.33.7-.5 1.54-.5 2.55 0 1 .17 1.86.5 2.55.34.7.79 1.22 1.36 1.58a3.89 3.89 0 0 0 3.03.38c.35-.11.67-.27.97-.48a2.98 2.98 0 0 0 1.18-1.85h1.41a4.37 4.37 0 0 1-3.03 3.54 5.23 5.23 0 0 1-4.3-.47 5 5 0 0 1-1.82-2.07 7.1 7.1 0 0 1-.66-3.18c0-1.23.22-2.29.66-3.18a4.88 4.88 0 0 1 4.47-2.8c.59 0 1.14.09 1.65.26a4.52 4.52 0 0 1 2.45 1.94c.28.47.48 1 .58 1.6Zm7.6 4.43v-5.16h1.34V97h-1.34v-1.48h-.1a2.7 2.7 0 0 1-2.58 1.59c-.55 0-1.03-.12-1.46-.35a2.5 2.5 0 0 1-1-1.1 4.14 4.14 0 0 1-.36-1.84v-5.55h1.34v5.46c0 .63.18 1.14.53 1.52.36.38.82.57 1.38.57a2.28 2.28 0 0 0 2.25-2.39Zm3.8 3.57v-8.73h1.29v1.32h.1c.15-.43.44-.78.85-1.05.42-.27.9-.4 1.41-.4a15.28 15.28 0 0 1 .7.02v1.36a3.93 3.93 0 0 0-.81-.09c-.42 0-.8.1-1.14.27a1.95 1.95 0 0 0-1.07 1.78V97h-1.34Zm5.95 0v-8.73h1.3v1.32h.08c.16-.43.45-.78.87-1.05.41-.27.88-.4 1.4-.4a15.2 15.2 0 0 1 .71.02v1.36a4.07 4.07 0 0 0-.82-.09c-.42 0-.8.1-1.13.27a1.96 1.96 0 0 0-1.07 1.78V97h-1.34Zm9.34.18a3.73 3.73 0 0 1-3.58-2.13 5.34 5.34 0 0 1-.48-2.35c0-.89.16-1.68.48-2.36a3.7 3.7 0 0 1 3.44-2.18 4 4 0 0 1 1.36.23 3.34 3.34 0 0 1 2.07 2.08c.22.55.33 1.24.33 2.05v.57h-6.73v-1.16h5.36c0-.5-.1-.93-.3-1.32a2.22 2.22 0 0 0-2.08-1.25 2.45 2.45 0 0 0-2.28 1.42 3 3 0 0 0-.31 1.36v.77c0 .66.11 1.22.34 1.68.23.45.55.8.96 1.03.4.24.88.36 1.42.36.36 0 .67-.05.96-.15.29-.1.54-.25.74-.45.21-.2.37-.46.49-.77l1.3.37a2.9 2.9 0 0 1-.7 1.16 3.4 3.4 0 0 1-1.19.77c-.47.18-1 .27-1.6.27Zm7-5.43V97h-1.34v-8.73h1.3v1.37h.1c.21-.45.52-.8.94-1.07.41-.27.95-.41 1.61-.41.6 0 1.11.12 1.55.36.45.24.8.6 1.04 1.1.24.48.37 1.1.37 1.83V97h-1.34v-5.45c0-.69-.18-1.22-.54-1.6a1.9 1.9 0 0 0-1.46-.59c-.43 0-.81.1-1.15.28a2 2 0 0 0-.8.81c-.19.36-.28.8-.28 1.3Zm11.81-3.48v1.14h-4.52v-1.14h4.52Zm-3.2-2.09h1.34v8.32c0 .38.05.66.16.85.12.19.26.31.44.38.17.06.36.09.56.09.15 0 .27 0 .36-.02l.23-.05.27 1.2a2.73 2.73 0 0 1-1 .16 2.7 2.7 0 0 1-1.11-.24 2.21 2.21 0 0 1-.9-.75 2.14 2.14 0 0 1-.35-1.26v-8.68ZM270.79 97v-8.73h1.3v1.32h.09c.15-.43.44-.78.86-1.05s.89-.4 1.4-.4a15.28 15.28 0 0 1 .71.02v1.36a3.93 3.93 0 0 0-.81-.09c-.43 0-.8.1-1.14.27a1.95 1.95 0 0 0-1.07 1.78V97h-1.34Zm8.52.2c-.55 0-1.05-.1-1.5-.3a2.77 2.77 0 0 1-1.08-.92c-.26-.4-.4-.89-.4-1.46 0-.5.1-.9.3-1.21.2-.32.46-.56.79-.74.33-.18.7-.31 1.09-.4.4-.1.8-.16 1.21-.22l1.29-.15c.33-.04.58-.1.73-.19.15-.08.23-.23.23-.45v-.05c0-.56-.15-1-.46-1.3-.3-.31-.76-.47-1.38-.47a2.4 2.4 0 0 0-1.5.42c-.37.28-.63.58-.77.9l-1.28-.46a3 3 0 0 1 .91-1.23c.38-.3.8-.51 1.25-.63a5.18 5.18 0 0 1 2.31-.08c.37.07.72.2 1.06.4.35.2.63.52.86.93.23.41.34.97.34 1.66V97h-1.34v-1.18h-.07a2.62 2.62 0 0 1-1.3 1.16c-.35.15-.78.22-1.29.22Zm.2-1.2c.54 0 .98-.1 1.35-.31a2.13 2.13 0 0 0 1.11-1.85v-1.23c-.06.07-.18.13-.38.2-.18.04-.4.1-.65.13a29.63 29.63 0 0 1-1.29.17c-.35.05-.67.12-.97.23-.3.1-.55.24-.73.44-.18.2-.27.47-.27.81 0 .47.17.82.51 1.06.35.23.8.35 1.33.35Zm7.59-4.25V97h-1.34v-8.73h1.3v1.37h.1c.21-.45.52-.8.94-1.07.42-.27.95-.41 1.61-.41.6 0 1.11.12 1.55.36.45.24.8.6 1.04 1.1.25.48.37 1.1.37 1.83V97h-1.34v-5.45c0-.69-.18-1.22-.54-1.6a1.9 1.9 0 0 0-1.46-.59c-.43 0-.81.1-1.15.28a2 2 0 0 0-.8.81c-.18.36-.28.8-.28 1.3Zm11.54 8.7a5 5 0 0 1-1.67-.25 3.55 3.55 0 0 1-1.9-1.5l1.07-.75c.12.16.28.35.46.55.19.2.44.39.76.54a3 3 0 0 0 1.28.23c.7 0 1.29-.17 1.75-.5.45-.35.68-.88.68-1.61v-1.77h-.11c-.1.16-.24.35-.42.59-.18.23-.44.43-.77.62-.34.17-.79.26-1.36.26a3.5 3.5 0 0 1-3.22-1.95 5.09 5.09 0 0 1-.48-2.32c0-.9.16-1.67.47-2.33a3.46 3.46 0 0 1 3.26-2.1c.56 0 1.01.1 1.35.28.33.19.6.4.77.64.18.23.32.43.42.58h.14v-1.39h1.3v8.98c0 .75-.18 1.36-.52 1.83a2.9 2.9 0 0 1-1.36 1.04c-.57.22-1.2.33-1.9.33Zm-.04-4.8c.53 0 .99-.11 1.36-.36.37-.25.65-.6.85-1.06.19-.46.29-1.02.29-1.66 0-.63-.1-1.19-.29-1.67a2.5 2.5 0 0 0-.84-1.13c-.37-.27-.83-.4-1.38-.4a2.28 2.28 0 0 0-2.26 1.58 4.5 4.5 0 0 0-.28 1.62c0 .6.1 1.14.28 1.6.2.47.48.83.86 1.1.38.26.85.39 1.4.39Zm9.93 1.53a3.74 3.74 0 0 1-3.58-2.13 5.36 5.36 0 0 1-.5-2.35c0-.89.17-1.68.5-2.36.33-.68.79-1.22 1.37-1.6a3.7 3.7 0 0 1 2.07-.58c.46 0 .9.07 1.35.23a3.33 3.33 0 0 1 2.08 2.08c.21.55.32 1.24.32 2.05v.57h-6.73v-1.16h5.37c0-.5-.1-.93-.3-1.32a2.23 2.23 0 0 0-2.09-1.25 2.47 2.47 0 0 0-2.28 1.42 3 3 0 0 0-.31 1.36v.77c0 .66.11 1.22.34 1.68.23.45.55.8.96 1.03.41.24.88.36 1.43.36.35 0 .67-.05.95-.15.29-.1.54-.25.75-.45.2-.2.37-.46.48-.77l1.3.37a2.9 2.9 0 0 1-.7 1.16c-.31.33-.71.58-1.19.77-.47.18-1 .27-1.6.27Zm10.15-.18v-8.73h1.34V97h-1.34Zm.68-10.18a.95.95 0 0 1-.67-.27.86.86 0 0 1-.28-.64c0-.25.09-.46.28-.64a.95.95 0 0 1 .67-.27c.26 0 .49.09.67.27a.85.85 0 0 1 0 1.28.93.93 0 0 1-.67.27Zm9.3 3.4-1.2.35c-.08-.2-.2-.4-.34-.59a1.52 1.52 0 0 0-.6-.47 2.15 2.15 0 0 0-.95-.2c-.54 0-.98.13-1.34.38-.35.24-.53.55-.53.92 0 .34.13.6.37.8.24.19.62.35 1.13.48l1.3.31c.78.2 1.36.48 1.74.87.39.39.58.89.58 1.5 0 .5-.15.95-.43 1.34-.29.4-.69.7-1.2.93-.5.23-1.1.34-1.78.34-.9 0-1.63-.2-2.21-.58a2.57 2.57 0 0 1-1.1-1.7l1.26-.3c.13.46.35.81.7 1.05.33.23.78.35 1.33.35a2.5 2.5 0 0 0 1.49-.4c.37-.27.55-.59.55-.96 0-.3-.1-.56-.32-.77a2 2 0 0 0-.97-.46l-1.46-.34a3.47 3.47 0 0 1-1.76-.88c-.37-.4-.56-.9-.56-1.5 0-.5.14-.94.42-1.31.28-.38.66-.68 1.14-.9a4.01 4.01 0 0 1 1.65-.32c.86 0 1.54.19 2.03.57.5.38.85.88 1.06 1.5ZM335.3 97v-1.02l3.84-4.2c.46-.5.83-.93 1.12-1.3.29-.36.5-.7.65-1.03.14-.32.21-.66.21-1.02a1.89 1.89 0 0 0-1.09-1.75 2.58 2.58 0 0 0-1.14-.25c-.44 0-.83.1-1.17.28-.33.18-.58.44-.76.77a2.4 2.4 0 0 0-.27 1.16h-1.34a3.27 3.27 0 0 1 1.76-3 3.87 3.87 0 0 1 1.83-.44c.68 0 1.29.15 1.81.44a3.15 3.15 0 0 1 1.69 2.79c0 .43-.08.85-.23 1.26-.15.4-.42.86-.8 1.36-.37.5-.9 1.1-1.56 1.81l-2.61 2.8v.09h5.4V97h-7.34Zm13.49.16c-.86 0-1.59-.23-2.2-.7a4.37 4.37 0 0 1-1.37-2.04 9.7 9.7 0 0 1-.48-3.24c0-1.26.16-2.33.48-3.22a4.4 4.4 0 0 1 1.38-2.05c.61-.47 1.34-.7 2.19-.7.84 0 1.57.23 2.17.7.6.47 1.07 1.16 1.39 2.05.32.89.48 1.96.48 3.22a9.7 9.7 0 0 1-.47 3.24 4.36 4.36 0 0 1-1.39 2.04c-.6.47-1.33.7-2.18.7Zm0-1.25c.84 0 1.5-.41 1.97-1.23.47-.82.7-1.98.7-3.5 0-1-.1-1.86-.32-2.57a3.53 3.53 0 0 0-.92-1.62c-.4-.37-.87-.56-1.43-.56-.84 0-1.5.42-1.98 1.25-.47.82-.7 1.99-.7 3.5a9 9 0 0 0 .31 2.57c.21.7.52 1.24.92 1.6.4.38.88.56 1.45.56Zm11.22-5.35v1.25h-5.09v-1.25h5.1Zm2.07 4.05v-1.16l5.11-8.09h.84v1.8h-.57l-3.86 6.11v.1h6.89v1.24h-8.41Zm5.48 2.39V85.36h1.34V97h-1.35Zm8.85.16c-.85 0-1.58-.23-2.19-.7a4.37 4.37 0 0 1-1.38-2.04 9.7 9.7 0 0 1-.47-3.24c0-1.26.16-2.33.47-3.22a4.4 4.4 0 0 1 1.39-2.05c.6-.47 1.33-.7 2.18-.7.85 0 1.58.23 2.18.7.6.47 1.07 1.16 1.38 2.05.33.89.49 1.96.49 3.22a9.7 9.7 0 0 1-.48 3.24 4.36 4.36 0 0 1-1.38 2.04c-.6.47-1.33.7-2.19.7Zm0-1.25c.85 0 1.5-.41 1.98-1.23.47-.82.7-1.98.7-3.5 0-1-.1-1.86-.32-2.57a3.53 3.53 0 0 0-.92-1.62c-.4-.37-.88-.56-1.44-.56-.84 0-1.5.42-1.97 1.25a7.12 7.12 0 0 0-.71 3.5 9 9 0 0 0 .32 2.57c.21.7.51 1.24.91 1.6.4.38.89.56 1.45.56Z" fill="#757575"/><path d="M215.47 28.56c-.05-.5-.28-.88-.67-1.16-.39-.27-.9-.41-1.52-.41-.44 0-.82.06-1.13.2-.32.13-.56.31-.72.54a1.31 1.31 0 0 0-.1 1.4c.12.18.27.34.46.46.2.12.41.22.65.3.23.1.47.16.7.22l1.1.27a7 7 0 0 1 1.27.42c.4.17.77.39 1.1.65a2.9 2.9 0 0 1 1.06 2.28 3.15 3.15 0 0 1-2.05 3.01 5.9 5.9 0 0 1-2.38.44c-.9 0-1.69-.14-2.35-.42a3.5 3.5 0 0 1-1.56-1.23 3.64 3.64 0 0 1-.6-1.97h2.07c.03.4.16.74.38 1.01s.5.47.85.6c.36.14.76.2 1.2.2.46 0 .86-.06 1.2-.2.35-.14.62-.33.82-.58.2-.25.3-.54.3-.87 0-.3-.1-.56-.27-.75-.17-.2-.41-.37-.73-.5a7.02 7.02 0 0 0-1.09-.37l-1.32-.34a5.32 5.32 0 0 1-2.28-1.12 2.58 2.58 0 0 1-.83-2 3 3 0 0 1 .56-1.8c.38-.52.88-.92 1.53-1.2a5.3 5.3 0 0 1 2.19-.44c.82 0 1.55.15 2.17.44a3.6 3.6 0 0 1 1.47 1.18 3 3 0 0 1 .55 1.74h-2.03Zm7.84 8.61a4.5 4.5 0 0 1-2.27-.55 3.7 3.7 0 0 1-1.46-1.55 5.21 5.21 0 0 1-.5-2.38c0-.9.16-1.69.5-2.37a3.87 3.87 0 0 1 3.62-2.16c.54 0 1.05.09 1.53.26s.9.44 1.27.8c.37.36.66.81.87 1.37.22.55.32 1.21.32 1.98v.63h-7.15v-1.4h5.18c0-.4-.09-.74-.26-1.05a1.89 1.89 0 0 0-1.73-1 2 2 0 0 0-1.1.3c-.32.2-.57.47-.75.8a2.3 2.3 0 0 0-.27 1.08v1.2c0 .52.1.95.28 1.31.19.36.45.64.78.83.33.2.72.29 1.17.29.3 0 .57-.04.81-.13.24-.08.45-.21.63-.38.18-.16.31-.37.4-.62l1.93.22a3 3 0 0 1-.7 1.33c-.33.37-.77.67-1.3.87-.52.2-1.12.31-1.8.31Zm5.62-11.8H231v9.13c0 .33.05.56.15.7.1.14.27.2.52.2a2.44 2.44 0 0 0 .5-.07l.34 1.56a4.1 4.1 0 0 1-1.11.17c-.84.02-1.45-.15-1.86-.53-.4-.37-.6-.93-.6-1.7v-9.47Zm8.46 11.8a4.5 4.5 0 0 1-2.27-.55 3.7 3.7 0 0 1-1.46-1.55 5.21 5.21 0 0 1-.5-2.38c0-.9.16-1.69.5-2.37a3.87 3.87 0 0 1 3.62-2.16c.54 0 1.05.09 1.52.26a3.59 3.59 0 0 1 2.15 2.17c.21.55.32 1.21.32 1.98v.63h-7.15v-1.4h5.18c0-.4-.1-.74-.26-1.05a1.89 1.89 0 0 0-1.73-1 2 2 0 0 0-1.1.3c-.33.2-.58.47-.75.8a2.3 2.3 0 0 0-.27 1.08v1.2c0 .52.1.95.28 1.31.18.36.44.64.78.83.33.2.72.29 1.17.29.3 0 .57-.04.81-.13.24-.08.45-.21.63-.38.18-.16.31-.37.4-.62l1.93.22a3 3 0 0 1-.7 1.33c-.34.37-.77.67-1.3.87-.52.2-1.12.31-1.8.31Zm9.43 0a3.83 3.83 0 0 1-3.68-2.16 5.25 5.25 0 0 1-.5-2.34c0-.89.17-1.67.5-2.35.35-.68.83-1.2 1.45-1.59a4.16 4.16 0 0 1 2.22-.57c.7 0 1.33.13 1.88.4a3.22 3.22 0 0 1 1.87 2.74h-1.97a1.87 1.87 0 0 0-.57-1.06c-.3-.28-.69-.42-1.19-.42-.42 0-.79.11-1.1.34-.32.22-.57.54-.75.96a4.1 4.1 0 0 0-.26 1.52c0 .6.09 1.1.26 1.53.18.42.42.75.73.98.32.23.7.34 1.12.34.3 0 .58-.05.82-.17.24-.11.44-.28.6-.5.17-.22.28-.49.34-.8h1.97a3.22 3.22 0 0 1-1.83 2.76 4.3 4.3 0 0 1-1.91.4Zm9.78-8.9v1.6h-5.02v-1.6h5.02Zm-3.78-2.09h2.06v8.2c0 .27.04.48.13.63.08.15.2.24.34.3.14.05.3.08.46.08a2.02 2.02 0 0 0 .6-.08l.35 1.6a4.56 4.56 0 0 1-1.2.2 3.3 3.3 0 0 1-1.4-.22 2.17 2.17 0 0 1-.98-.81 2.4 2.4 0 0 1-.36-1.36v-8.54Zm11.98 11c-.55 0-1.05-.1-1.5-.3a2.5 2.5 0 0 1-1.04-.89 2.59 2.59 0 0 1-.38-1.44c0-.5.1-.9.27-1.22.19-.32.44-.58.75-.77.31-.2.67-.34 1.06-.44.4-.1.81-.18 1.24-.22l1.24-.14c.32-.05.55-.12.7-.2.14-.1.21-.25.21-.45v-.03c0-.43-.12-.76-.38-1-.25-.23-.62-.35-1.1-.35-.5 0-.9.11-1.2.33-.28.22-.48.48-.58.78l-1.92-.27a3.08 3.08 0 0 1 2.02-2.14 5.44 5.44 0 0 1 2.93-.13c.42.1.8.27 1.14.5.35.22.62.52.83.91.21.39.32.87.32 1.45V37h-1.98v-1.2h-.06a2.52 2.52 0 0 1-1.38 1.19c-.34.12-.73.19-1.19.19Zm.54-1.52c.41 0 .77-.08 1.07-.24.3-.17.54-.39.7-.66.17-.27.25-.57.25-.9v-1.02a.96.96 0 0 1-.33.15l-.51.12a15.83 15.83 0 0 1-1.05.16c-.3.04-.58.1-.82.2s-.44.23-.57.4a.97.97 0 0 0-.21.65c0 .38.13.66.41.85.28.2.63.3 1.06.3Zm17.9-7.39-3.1 8.73h-2.28l-3.1-8.73h2.19l2 6.49h.1l2-6.49h2.2Zm3.69 8.9c-.56 0-1.05-.1-1.5-.29-.44-.2-.79-.5-1.04-.89a2.59 2.59 0 0 1-.38-1.44 2.11 2.11 0 0 1 1.02-2c.3-.19.66-.33 1.06-.43.4-.1.8-.18 1.23-.22l1.24-.14c.32-.05.55-.12.7-.2.14-.1.22-.25.22-.45v-.03c0-.43-.13-.76-.38-1a1.6 1.6 0 0 0-1.1-.35c-.5 0-.9.11-1.2.33-.29.22-.49.48-.59.78l-1.92-.27a3.08 3.08 0 0 1 2.03-2.14 5.44 5.44 0 0 1 2.93-.13c.41.1.8.27 1.14.5.34.22.62.52.83.91.2.39.32.87.32 1.45V37h-1.98v-1.2h-.07a2.52 2.52 0 0 1-1.38 1.19c-.33.12-.73.19-1.18.19Zm.53-1.5c.42 0 .77-.09 1.08-.25a1.73 1.73 0 0 0 .94-1.56v-1.02a.96.96 0 0 1-.33.15l-.5.12a15.83 15.83 0 0 1-1.05.16c-.3.04-.58.1-.83.2-.24.1-.43.23-.57.4a.97.97 0 0 0-.21.65c0 .38.14.66.41.85.28.2.63.3 1.06.3Zm6.14-10.3h2.06v9.13c0 .33.05.56.15.7.1.14.27.2.52.2a2.44 2.44 0 0 0 .5-.07l.34 1.56a4.1 4.1 0 0 1-1.11.17c-.83.02-1.45-.15-1.85-.53-.4-.37-.6-.93-.6-1.7v-9.47Zm10.16 7.96v-5.06h2.06V37h-2v-1.55h-.09c-.2.49-.52.89-.97 1.2-.45.3-1 .46-1.65.46a2.65 2.65 0 0 1-2.54-1.5 3.96 3.96 0 0 1-.37-1.78v-5.56h2.05v5.24c0 .55.16 1 .46 1.32.3.33.7.49 1.2.49a1.89 1.89 0 0 0 1.57-.88c.19-.3.28-.67.28-1.11Zm8.04 3.84a4.5 4.5 0 0 1-2.27-.55 3.7 3.7 0 0 1-1.46-1.55 5.21 5.21 0 0 1-.51-2.38c0-.9.17-1.69.5-2.37a3.87 3.87 0 0 1 3.63-2.16c.54 0 1.04.09 1.52.26s.9.44 1.27.8c.37.36.67.81.88 1.37.21.55.32 1.21.32 1.98v.63h-7.16v-1.4h5.19c0-.4-.1-.74-.26-1.05-.17-.3-.4-.55-.7-.73-.3-.18-.64-.27-1.03-.27a2 2 0 0 0-1.11.3 2.13 2.13 0 0 0-1.01 1.88v1.2c0 .52.09.95.27 1.31.2.36.45.64.78.83.34.2.73.29 1.17.29.3 0 .57-.04.82-.13.24-.08.45-.21.63-.38.18-.16.31-.37.4-.62l1.92.22c-.12.5-.35.95-.7 1.33-.33.37-.76.67-1.29.87-.52.2-1.13.31-1.8.31Zm9.68-.17V25.36h2.1v9.87h5.13V37h-7.23Zm11.48.18c-.55 0-1.05-.1-1.5-.3-.44-.2-.78-.5-1.04-.89a2.59 2.59 0 0 1-.38-1.44 2.11 2.11 0 0 1 1.02-2c.31-.19.66-.33 1.06-.43.4-.1.8-.18 1.23-.22l1.25-.14c.31-.05.54-.12.69-.2.15-.1.22-.25.22-.45v-.03c0-.43-.13-.76-.38-1-.25-.23-.62-.35-1.1-.35-.5 0-.9.11-1.2.33a1.7 1.7 0 0 0-.59.78l-1.92-.27a3.08 3.08 0 0 1 2.03-2.14 5.44 5.44 0 0 1 2.93-.13c.41.1.8.27 1.14.5.34.22.62.52.83.91.21.39.32.87.32 1.45V37h-1.98v-1.2h-.07a2.52 2.52 0 0 1-1.37 1.19 3.6 3.6 0 0 1-1.2.19Zm.53-1.52c.42 0 .77-.08 1.08-.24a1.74 1.74 0 0 0 .95-1.56v-1.02a.98.98 0 0 1-.33.15l-.51.12a16.26 16.26 0 0 1-1.05.16c-.3.04-.58.1-.82.2-.25.1-.44.23-.58.4a.97.97 0 0 0-.2.65c0 .38.13.66.4.85.28.2.63.3 1.06.3Zm6.24 1.34V25.36h2.05v4.36h.09c.1-.22.25-.44.45-.68.19-.24.45-.45.78-.62.33-.17.75-.26 1.26-.26a3.33 3.33 0 0 1 3.12 2.03c.32.67.48 1.49.48 2.46 0 .96-.15 1.77-.47 2.44a3.3 3.3 0 0 1-3.13 2.06 2.53 2.53 0 0 1-2.04-.85 3.9 3.9 0 0 1-.45-.67h-.12V37h-2.02Zm2.01-4.36c0 .56.08 1.06.24 1.48.16.42.4.76.7 1 .3.23.68.35 1.11.35.46 0 .84-.13 1.15-.37.3-.24.53-.58.69-1 .16-.43.24-.92.24-1.46 0-.55-.08-1.03-.24-1.45a2.16 2.16 0 0 0-.69-.99c-.3-.23-.69-.35-1.15-.35-.44 0-.8.11-1.12.34-.3.23-.54.56-.7.97-.15.42-.23.91-.23 1.48Zm11.84 4.53a4.5 4.5 0 0 1-2.27-.55 3.7 3.7 0 0 1-1.46-1.55 5.23 5.23 0 0 1-.51-2.38c0-.9.17-1.69.5-2.37a3.87 3.87 0 0 1 3.63-2.16c.54 0 1.04.09 1.52.26s.9.44 1.27.8c.38.36.67.81.88 1.37.21.55.32 1.21.32 1.98v.63h-7.16v-1.4h5.19c0-.4-.1-.74-.26-1.05-.17-.3-.4-.55-.7-.73-.3-.18-.64-.27-1.03-.27a2 2 0 0 0-1.11.3c-.32.2-.57.47-.75.8a2.3 2.3 0 0 0-.26 1.08v1.2c0 .52.1.95.28 1.31.18.36.44.64.77.83.34.2.73.29 1.18.29.3 0 .56-.04.8-.13a1.65 1.65 0 0 0 1.04-1l1.92.22c-.12.5-.35.95-.7 1.33-.33.37-.76.67-1.29.87-.52.2-1.13.31-1.8.31Zm5.62-11.8h2.05v9.13c0 .33.05.56.15.7.1.14.28.2.53.2a2.46 2.46 0 0 0 .5-.07l.34 1.56a4.15 4.15 0 0 1-1.12.17c-.83.02-1.45-.15-1.85-.53-.4-.37-.6-.93-.6-1.7v-9.47Z" fill="#333"/></svg>