<svg width="672" height="143" fill="none" xmlns="http://www.w3.org/2000/svg"><path fill="#F6F6F6" d="M0 0h672v143H0z"/><rect x="208" y="67" width="256" height="4" rx="2" fill="#B0B0B0"/><rect x="208" y="67" width="84" height="4" rx="2" fill="#1E71F6"/><circle cx="284" cy="69" r="8" fill="#194CCC"/><path d="M213.3 93.36V105h-1.41V94.84h-.07l-2.84 1.89V95.3l2.9-1.94h1.41Zm6.98 11.8a3.9 3.9 0 0 1-1.8-.4 3.34 3.34 0 0 1-1.29-1.09c-.32-.46-.5-.99-.53-1.58h1.37c.05.53.29.96.71 1.3.43.35.94.52 1.54.52a2.42 2.42 0 0 0 2.15-1.26c.22-.4.33-.84.33-1.33 0-.5-.12-.96-.34-1.36a2.45 2.45 0 0 0-2.23-1.3 3.63 3.63 0 0 0-2.03.59l-1.31-.16.7-5.73h6.05v1.25h-4.87l-.4 3.44h.06a3.4 3.4 0 0 1 2.02-.66 3.57 3.57 0 0 1 3.23 1.9c.32.58.48 1.25.48 2s-.17 1.41-.5 2a3.65 3.65 0 0 1-1.36 1.37 3.9 3.9 0 0 1-1.98.5Z" fill="#757575"/><path d="M218.71 33.36V45h-1.88l-5.48-7.93h-.1V45h-2.1V33.36h1.88l5.48 7.94h.1v-7.94h2.1Zm7.77 7.97v-5.06h2.06V45h-2v-1.55h-.09c-.2.49-.52.89-.97 1.2-.45.3-1 .46-1.66.46a2.65 2.65 0 0 1-2.54-1.5 3.94 3.94 0 0 1-.36-1.78v-5.56h2.05v5.24c0 .55.16 1 .46 1.32.3.33.7.49 1.2.49a1.88 1.88 0 0 0 1.57-.88c.19-.3.28-.67.28-1.11Zm4.17 3.67v-8.73h1.97v1.49h.1c.18-.5.48-.9.9-1.17.42-.29.92-.43 1.5-.43.6 0 1.1.14 1.5.43.41.28.7.67.87 1.17h.09c.19-.49.52-.88.97-1.16.47-.3 1.01-.44 1.65-.44.8 0 1.45.25 1.96.76.51.5.76 1.25.76 2.22V45h-2.06v-5.54c0-.54-.14-.94-.43-1.19a1.54 1.54 0 0 0-1.06-.38c-.5 0-.88.16-1.16.47-.28.3-.42.7-.42 1.2V45h-2.01v-5.63c0-.45-.14-.8-.41-1.07-.27-.27-.63-.4-1.06-.4-.3 0-.56.07-.8.22-.25.15-.44.36-.59.63a2 2 0 0 0-.21.94V45h-2.06Zm14.45 0V33.36h2.06v4.36h.08c.1-.22.26-.44.45-.68a2.5 2.5 0 0 1 2.05-.88 3.33 3.33 0 0 1 3.12 2.03c.32.67.48 1.49.48 2.46 0 .96-.16 1.77-.47 2.44a3.3 3.3 0 0 1-3.13 2.06 2.53 2.53 0 0 1-2.04-.85 3.9 3.9 0 0 1-.46-.67h-.12V45h-2.02Zm2.02-4.36c0 .56.08 1.06.24 1.48.16.42.4.76.7 1 .3.23.67.35 1.1.35.46 0 .84-.13 1.15-.37.3-.24.54-.58.7-1 .15-.43.23-.92.23-1.46 0-.55-.08-1.03-.23-1.45a2.16 2.16 0 0 0-.7-.99c-.3-.23-.68-.35-1.14-.35-.44 0-.81.11-1.12.34-.3.23-.54.56-.7.97-.15.42-.23.91-.23 1.48Zm11.83 4.53a4.5 4.5 0 0 1-2.26-.55 3.7 3.7 0 0 1-1.47-1.55 5.23 5.23 0 0 1-.5-2.38c0-.9.16-1.69.5-2.37a3.87 3.87 0 0 1 3.62-2.16c.54 0 1.05.09 1.53.26s.9.44 1.27.8c.37.36.66.81.87 1.37.22.55.32 1.21.32 1.98v.63h-7.15v-1.4h5.18a1.96 1.96 0 0 0-.95-1.78c-.3-.18-.64-.27-1.04-.27a2 2 0 0 0-1.1.3c-.32.2-.57.47-.75.8a2.3 2.3 0 0 0-.27 1.08v1.2c0 .52.1.95.28 1.31.19.36.45.64.78.83.33.2.72.29 1.17.29.3 0 .57-.04.81-.13.25-.08.45-.21.63-.38.18-.16.32-.37.4-.62l1.93.22c-.12.5-.36.95-.7 1.33a3.2 3.2 0 0 1-1.3.87c-.52.2-1.12.31-1.8.31Zm5.62-.17v-8.73h2v1.46h.09a2.17 2.17 0 0 1 2.15-1.58 4.73 4.73 0 0 1 .74.05v1.9a3.83 3.83 0 0 0-.95-.12c-.38 0-.72.08-1.02.24a1.78 1.78 0 0 0-.95 1.65V45h-2.06Zm14.12.17c-.85 0-1.59-.19-2.21-.56a3.82 3.82 0 0 1-1.46-1.58 5.17 5.17 0 0 1-.51-2.36c0-.9.17-1.7.51-2.37.35-.68.83-1.2 1.46-1.58a4.22 4.22 0 0 1 2.21-.56c.85 0 1.6.19 2.22.56.62.38 1.1.9 1.45 1.58.34.68.51 1.47.51 2.37 0 .9-.17 1.69-.51 2.36a3.82 3.82 0 0 1-3.67 2.14Zm.01-1.65c.47 0 .85-.12 1.16-.38.31-.26.54-.6.7-1.03a4.37 4.37 0 0 0-.01-2.89 2.29 2.29 0 0 0-.69-1.04c-.3-.26-.7-.39-1.16-.39-.47 0-.86.13-1.18.39-.3.25-.54.6-.7 1.04-.15.43-.22.91-.22 1.44 0 .54.07 1.02.22 1.45.16.43.4.77.7 1.03.32.26.71.38 1.18.38Zm10.34-7.25v1.6h-5.16v-1.6h5.16ZM285.17 45v-9.55c0-.59.12-1.08.36-1.47.25-.39.58-.68 1-.87.4-.2.86-.3 1.37-.3a4.75 4.75 0 0 1 1.56.25l-.4 1.59a3.58 3.58 0 0 0-.78-.13c-.38 0-.65.1-.81.28-.16.18-.24.44-.24.79V45h-2.06Zm15.27 3.27v-4.65h-.08c-.1.22-.26.44-.46.68a2.53 2.53 0 0 1-2.04.85 3.3 3.3 0 0 1-3.13-2.06 5.73 5.73 0 0 1-.47-2.44c0-.97.16-1.79.48-2.46a3.34 3.34 0 0 1 4.39-1.77c.32.17.59.38.78.62.2.24.34.46.45.68h.12v-1.45h2.03v12h-2.07Zm-2-4.8c.43 0 .8-.12 1.1-.36.31-.23.54-.57.7-1 .16-.41.24-.9.24-1.47s-.08-1.06-.24-1.48a2.09 2.09 0 0 0-.69-.97 1.8 1.8 0 0 0-1.12-.34c-.46 0-.84.12-1.15.35-.3.24-.53.57-.69 1-.15.41-.23.9-.23 1.44 0 .54.08 1.03.23 1.46.16.42.4.76.7 1 .31.24.7.37 1.14.37Zm11.74-2.14v-5.06h2.06V45h-2v-1.55h-.09c-.2.49-.52.89-.97 1.2-.44.3-1 .46-1.65.46a2.65 2.65 0 0 1-2.54-1.5 3.94 3.94 0 0 1-.37-1.78v-5.56h2.06v5.24c0 .55.15 1 .45 1.32.3.33.7.49 1.2.49a2 2 0 0 0 .88-.22c.28-.15.51-.37.7-.66.18-.3.27-.67.27-1.11Zm8.04 3.84a4.5 4.5 0 0 1-2.27-.55 3.7 3.7 0 0 1-1.46-1.55 5.21 5.21 0 0 1-.51-2.38c0-.9.17-1.69.51-2.37a3.87 3.87 0 0 1 3.62-2.16c.54 0 1.04.09 1.52.26s.9.44 1.27.8c.38.36.67.81.88 1.37.21.55.32 1.21.32 1.98v.63h-7.16v-1.4h5.19c0-.4-.1-.74-.26-1.05-.17-.3-.4-.55-.7-.73-.3-.18-.64-.27-1.03-.27a2 2 0 0 0-1.11.3 2.22 2.22 0 0 0-1.01 1.88v1.2c0 .52.1.95.28 1.31.18.36.44.64.77.83.34.2.73.29 1.18.29.3 0 .57-.04.8-.13a1.65 1.65 0 0 0 1.04-1l1.92.22a3.03 3.03 0 0 1-1.99 2.2c-.52.2-1.13.31-1.8.31Zm12.52-6.59-1.88.2a1.5 1.5 0 0 0-.8-.93 1.9 1.9 0 0 0-.8-.16c-.44 0-.8.1-1.09.28-.29.19-.43.43-.42.72 0 .26.09.46.28.62.19.16.5.3.95.4l1.49.31c.82.18 1.44.46 1.84.85.4.39.61.9.61 1.52 0 .55-.16 1.03-.48 1.45a3.1 3.1 0 0 1-1.31.98c-.56.23-1.2.35-1.93.35a4.48 4.48 0 0 1-2.58-.67 2.7 2.7 0 0 1-1.17-1.88l2-.2c.1.4.3.7.59.9.3.2.68.3 1.15.3.49 0 .88-.1 1.18-.3.3-.2.44-.45.44-.75 0-.25-.1-.45-.28-.62a2.03 2.03 0 0 0-.9-.37l-1.48-.31a3.54 3.54 0 0 1-1.86-.88 2.2 2.2 0 0 1-.6-1.58c0-.54.15-1 .44-1.4.3-.4.72-.7 1.25-.92a4.82 4.82 0 0 1 1.84-.33c1.03 0 1.83.22 2.42.65.59.44.96 1.03 1.1 1.77Zm6.24-2.3v1.58h-5.02v-1.59h5.02Zm-3.78-2.1h2.06v8.2c0 .27.04.48.12.63.09.15.2.24.34.3.14.05.3.08.47.08a2.02 2.02 0 0 0 .6-.08l.35 1.6a4.56 4.56 0 0 1-1.21.2c-.52.02-.98-.05-1.4-.22a2.17 2.17 0 0 1-.98-.81 2.4 2.4 0 0 1-.35-1.36v-8.54ZM338.7 45v-8.73h2.05V45h-2.05Zm1.03-9.97c-.32 0-.6-.1-.84-.32a1.04 1.04 0 0 1-.35-.79c0-.31.12-.57.35-.79.24-.22.52-.33.84-.33.33 0 .61.11.84.33a1.05 1.05 0 0 1 0 1.58c-.23.22-.5.32-.84.32Zm6.95 10.14c-.86 0-1.6-.19-2.22-.56a3.81 3.81 0 0 1-1.45-1.58 5.17 5.17 0 0 1-.52-2.36c0-.9.18-1.7.52-2.37a3.8 3.8 0 0 1 1.45-1.58 4.23 4.23 0 0 1 2.22-.56c.85 0 1.59.19 2.21.56.63.38 1.11.9 1.45 1.58.35.68.52 1.47.52 2.37 0 .9-.17 1.69-.52 2.36-.34.68-.82 1.2-1.45 1.58-.62.37-1.36.56-2.21.56Zm0-1.65c.47 0 .86-.12 1.17-.38.3-.26.54-.6.69-1.03.15-.43.23-.91.23-1.45a4.1 4.1 0 0 0-.23-1.44 2.3 2.3 0 0 0-.7-1.04 1.7 1.7 0 0 0-1.15-.39c-.48 0-.87.13-1.18.39-.31.25-.55.6-.7 1.04a4.1 4.1 0 0 0-.23 1.44c0 .54.07 1.02.23 1.45.15.43.38.77.7 1.03.31.26.7.38 1.18.38Zm7.98-3.63V45h-2.06v-8.73h1.97v1.49h.1c.2-.5.52-.88.96-1.17.44-.29 1-.43 1.64-.43.6 0 1.13.13 1.58.39.45.25.8.63 1.04 1.11.25.5.38 1.09.37 1.78V45h-2.05v-5.24c0-.58-.16-1.04-.46-1.37a1.6 1.6 0 0 0-1.24-.5c-.36 0-.68.09-.96.25-.28.15-.5.38-.66.67-.15.3-.23.66-.23 1.08Zm14.6-1.31-1.88.2a1.5 1.5 0 0 0-.8-.93 1.9 1.9 0 0 0-.81-.16c-.43 0-.79.1-1.08.28-.29.19-.43.43-.43.72 0 .26.1.46.28.62.2.16.51.3.96.4l1.48.31c.83.18 1.44.46 1.84.85.41.39.62.9.62 1.52 0 .55-.17 1.03-.48 1.45a3.1 3.1 0 0 1-1.32.98c-.56.23-1.2.35-1.93.35a4.48 4.48 0 0 1-2.58-.67 2.7 2.7 0 0 1-1.16-1.88l2-.2c.1.4.29.7.58.9.3.2.68.3 1.16.3.49 0 .88-.1 1.17-.3.3-.2.45-.45.45-.75a.8.8 0 0 0-.29-.62 2.02 2.02 0 0 0-.89-.37l-1.48-.31a3.54 3.54 0 0 1-1.86-.88 2.2 2.2 0 0 1-.6-1.58c0-.54.14-1 .44-1.4.3-.4.71-.7 1.24-.92a4.83 4.83 0 0 1 1.85-.33c1.02 0 1.83.22 2.41.65.6.44.96 1.03 1.1 1.77Z" fill="#333"/><circle cx="369" cy="41.5" r="1" transform="rotate(180 369 41.5)" fill="#E8178A"/><path d="M398 41.5h-30" stroke="#E8178A"/><path d="M402.88 45v-7.27h.88v6.49h3.38V45h-4.26Zm7.12.13a2.2 2.2 0 0 1-.94-.2c-.29-.13-.5-.32-.68-.57a1.61 1.61 0 0 1-.24-.9c0-.32.06-.57.18-.77.12-.2.29-.35.5-.46.2-.11.43-.2.68-.25a33.94 33.94 0 0 1 1.56-.23c.2-.02.36-.06.45-.12.1-.05.15-.15.15-.28v-.03c0-.35-.1-.62-.29-.82-.19-.19-.48-.29-.86-.29-.4 0-.71.1-.94.27-.23.17-.39.36-.48.56l-.8-.29c.14-.33.33-.59.57-.77.24-.19.5-.32.78-.4a3.24 3.24 0 0 1 1.44-.04c.23.04.46.12.67.25.21.13.4.32.53.58.15.26.22.6.22 1.04V45h-.84v-.74h-.04a1.63 1.63 0 0 1-.81.72c-.23.1-.5.15-.81.15Zm.13-.76c.33 0 .6-.06.83-.19a1.33 1.33 0 0 0 .7-1.15v-.77a.65.65 0 0 1-.24.12 4 4 0 0 1-.86.15l-.35.04c-.22.03-.42.08-.61.14-.19.06-.34.15-.46.28a.71.71 0 0 0-.17.5c0 .3.11.52.33.66.21.15.5.23.82.23Zm4.01.63v-7.27h.84v2.68h.07l.25-.36c.12-.15.27-.28.48-.4.2-.12.5-.18.85-.18a2.17 2.17 0 0 1 2.03 1.33c.2.42.3.91.3 1.49 0 .57-.1 1.08-.3 1.5a2.14 2.14 0 0 1-2.02 1.32 1.7 1.7 0 0 1-.84-.17 1.56 1.56 0 0 1-.49-.4l-.26-.38h-.1V45h-.81Zm.82-2.73c0 .41.06.78.19 1.1.12.3.3.55.53.73.23.17.51.26.85.26.35 0 .64-.1.87-.28.24-.18.42-.43.54-.75.12-.32.18-.67.18-1.06 0-.38-.06-.73-.18-1.03a1.6 1.6 0 0 0-.53-.74 1.4 1.4 0 0 0-.88-.27 1.4 1.4 0 0 0-1.39.97c-.12.3-.18.67-.18 1.07Zm7.56 2.84c-.52 0-.97-.11-1.35-.34a2.34 2.34 0 0 1-.88-.98c-.2-.43-.3-.92-.3-1.47 0-.56.1-1.06.3-1.48a2.3 2.3 0 0 1 2.15-1.36c.28 0 .56.04.84.14a2.08 2.08 0 0 1 1.3 1.3c.14.34.2.77.2 1.28v.36h-4.2v-.73h3.35c0-.3-.06-.58-.18-.82a1.38 1.38 0 0 0-1.31-.78c-.33 0-.62.08-.87.25-.24.16-.42.37-.56.64-.13.26-.19.54-.19.84v.48c0 .42.07.76.21 1.05.15.28.35.5.6.65.26.15.56.22.9.22.22 0 .41-.03.6-.1a1.21 1.21 0 0 0 .76-.75l.8.23c-.08.27-.22.51-.42.72-.2.2-.45.37-.75.48-.3.12-.63.17-1 .17Zm4.38-7.38V45h-.84v-7.27h.84Z" fill="#E8178A"/><path d="M384.5 86V70" stroke="#E8178A"/><circle cx="384.5" cy="70" r="1" transform="rotate(-90 384.5 70)" fill="#E8178A"/><path d="M371.48 94.5v-.77h5.46v.78h-2.29V101h-.88v-6.5h-2.29Zm6.14 6.5v-5.45h.8v.82h.06c.1-.27.28-.49.54-.66.26-.17.56-.25.88-.25a9.12 9.12 0 0 1 .44.01v.86a2.5 2.5 0 0 0-.5-.06c-.27 0-.5.06-.72.17a1.23 1.23 0 0 0-.67 1.11V101h-.83Zm5.32.13c-.34 0-.66-.07-.94-.2-.28-.13-.5-.32-.67-.57a1.62 1.62 0 0 1-.25-.9c0-.32.06-.57.19-.77.12-.2.28-.35.49-.46.2-.11.43-.2.68-.25a34.57 34.57 0 0 1 1.56-.23c.21-.02.36-.06.46-.12.1-.05.14-.15.14-.28v-.03c0-.35-.1-.62-.28-.82-.2-.19-.48-.29-.87-.29-.4 0-.71.1-.94.27-.22.17-.38.36-.48.56l-.8-.29c.15-.33.34-.59.58-.77.24-.19.5-.32.78-.4a3.24 3.24 0 0 1 1.44-.04c.23.04.45.12.66.25.22.13.4.32.54.58.14.26.21.6.21 1.04V101h-.84v-.74h-.04a1.63 1.63 0 0 1-.81.73c-.22.09-.49.14-.8.14Zm.13-.75c.33 0 .61-.07.84-.2a1.33 1.33 0 0 0 .7-1.15v-.77a.65.65 0 0 1-.24.12 3.95 3.95 0 0 1-.86.15l-.35.04a3.2 3.2 0 0 0-.62.14c-.18.06-.33.15-.45.28a.72.72 0 0 0-.17.5c0 .3.1.52.32.67.22.14.5.22.83.22Zm6.12.73c-.51 0-.95-.12-1.32-.36a2.36 2.36 0 0 1-.86-1c-.2-.42-.3-.9-.3-1.45 0-.55.1-1.04.31-1.47a2.31 2.31 0 0 1 2.15-1.36c.39 0 .73.08 1.04.22.3.14.56.34.76.6.2.25.32.55.36.89h-.83a1.28 1.28 0 0 0-1.3-.95c-.34 0-.63.08-.87.25-.25.17-.44.4-.57.72-.14.3-.2.66-.2 1.07 0 .42.06.8.2 1.1a1.47 1.47 0 0 0 1.44.99c.2 0 .4-.04.58-.11a1.23 1.23 0 0 0 .72-.84h.83a1.94 1.94 0 0 1-1.08 1.48c-.3.15-.66.22-1.06.22Zm4.15-2.1-.01-1.04h.17l2.38-2.42h1.04l-2.54 2.57h-.07l-.97.9Zm-.78 1.99v-7.27h.84V101h-.84Zm3.46 0-2.13-2.7.6-.58 2.6 3.28h-1.07Z" fill="#E8178A"/><path d="M284 86V70" stroke="#E8178A"/><circle cx="284" cy="70" r="1" transform="rotate(-90 284 70)" fill="#E8178A"/><path d="M267.88 101v-7.27h.88v3.24h3.88v-3.24h.88V101h-.88v-3.25h-3.88V101h-.88Zm8.9.13c-.35 0-.66-.07-.95-.2-.28-.13-.5-.32-.67-.57a1.62 1.62 0 0 1-.25-.9c0-.32.06-.57.19-.77.12-.2.29-.35.5-.46.2-.11.42-.2.67-.25a34.57 34.57 0 0 1 1.56-.23c.22-.02.37-.06.46-.12.1-.05.15-.15.15-.28v-.03c0-.35-.1-.62-.3-.82-.18-.19-.47-.29-.85-.29a1.52 1.52 0 0 0-1.43.83l-.79-.29c.14-.33.33-.59.57-.77.24-.19.5-.32.78-.4a3.24 3.24 0 0 1 1.44-.04c.23.04.45.12.66.25.22.13.4.32.54.58.14.26.21.6.21 1.04V101h-.83v-.74h-.05c-.05.12-.15.25-.28.38-.13.14-.3.25-.53.35-.22.09-.49.14-.8.14Zm.12-.75c.33 0 .61-.07.84-.2a1.33 1.33 0 0 0 .7-1.15v-.77a.65.65 0 0 1-.24.12 3.95 3.95 0 0 1-.86.15l-.35.04a3.2 3.2 0 0 0-.61.14c-.19.06-.34.15-.46.28a.72.72 0 0 0-.17.5c0 .3.1.52.32.67.22.14.5.22.83.22Zm4.74-2.66V101h-.84v-5.45h.81v.85h.07c.13-.28.33-.5.59-.67.26-.17.6-.26 1-.26.38 0 .7.08.98.23.27.15.49.38.64.68.16.3.23.69.23 1.15V101h-.84v-3.4c0-.44-.1-.77-.33-1.01a1.18 1.18 0 0 0-.92-.36c-.26 0-.5.06-.71.17-.21.12-.38.29-.5.5-.12.23-.18.5-.18.82Zm7.07 3.4a2.13 2.13 0 0 1-2.02-1.33 3.5 3.5 0 0 1-.3-1.5c0-.58.1-1.07.3-1.5a2.17 2.17 0 0 1 2.04-1.32c.35 0 .63.06.84.18.2.12.37.25.48.4.1.15.2.27.25.36h.07v-2.68h.84V101h-.8v-.84h-.1l-.27.38c-.11.15-.27.28-.49.4-.2.12-.49.17-.84.17Zm.12-.76c.33 0 .62-.09.85-.26.23-.18.4-.42.53-.74.12-.31.18-.68.18-1.09 0-.4-.06-.76-.18-1.07-.12-.3-.3-.54-.52-.71a1.4 1.4 0 0 0-.86-.26c-.36 0-.65.09-.9.27-.23.18-.4.43-.52.74-.12.3-.17.65-.17 1.03a3 3 0 0 0 .17 1.06c.12.32.3.57.54.75.23.19.53.28.88.28Zm4.87-6.63V101h-.83v-7.27h.83Zm3.82 7.38c-.52 0-.97-.11-1.35-.34a2.34 2.34 0 0 1-.88-.98c-.2-.43-.3-.92-.3-1.47 0-.56.1-1.06.3-1.48a2.3 2.3 0 0 1 2.15-1.36c.28 0 .56.04.84.14a2.08 2.08 0 0 1 1.3 1.3c.14.34.2.77.2 1.28v.36h-4.2v-.73h3.35c0-.3-.06-.58-.18-.82a1.38 1.38 0 0 0-1.31-.78c-.33 0-.62.08-.87.25-.24.16-.42.37-.56.64-.13.26-.19.54-.19.84v.48c0 .42.07.76.21 1.05a1.55 1.55 0 0 0 1.5.87c.22 0 .41-.03.6-.1a1.21 1.21 0 0 0 .76-.75l.8.23c-.08.27-.22.51-.42.72-.2.2-.45.37-.75.48-.3.12-.63.17-1 .17ZM165.88 72v-7.27h4.36v.78h-3.48v2.46h3.16v.78h-3.16V72h-.88Zm5.76 0v-5.45h.83V72h-.83Zm.42-6.36a.6.6 0 0 1-.42-.17.54.54 0 0 1-.17-.4c0-.16.05-.3.17-.4a.6.6 0 0 1 .42-.17c.17 0 .3.06.42.17.12.1.18.24.18.4 0 .15-.06.29-.18.4a.58.58 0 0 1-.42.17Zm2.79-.91V72H174v-7.27h.84Zm2.37 0V72h-.84v-7.27h.84Z" fill="#E8178A"/><path d="M182 68.5h30" stroke="#E8178A"/><circle cx="211" cy="68.5" r="1" fill="#E8178A"/><path d="m154.18 94.73 2.16 6.12h.08l2.16-6.12h.93l-2.67 7.27h-.91l-2.67-7.27h.92Zm7.44 7.4c-.34 0-.66-.07-.94-.2-.28-.13-.5-.32-.67-.57a1.61 1.61 0 0 1-.25-.9c0-.32.06-.57.19-.77.12-.2.28-.35.49-.46.2-.11.43-.2.68-.25a33.94 33.94 0 0 1 1.56-.23c.21-.02.36-.06.46-.12.1-.05.14-.15.14-.28v-.03c0-.35-.1-.62-.28-.82-.2-.19-.48-.29-.87-.29-.4 0-.71.1-.94.27-.22.17-.38.36-.48.56l-.8-.29c.15-.33.34-.59.58-.77.23-.19.5-.32.78-.4a3.24 3.24 0 0 1 1.44-.04c.23.04.45.12.66.25.22.13.4.32.54.58.14.26.21.6.21 1.04V102h-.84v-.74h-.04c-.06.12-.15.25-.28.38a1.75 1.75 0 0 1-1.33.49Zm.13-.75c.33 0 .61-.07.84-.2a1.34 1.34 0 0 0 .7-1.15v-.77a.65.65 0 0 1-.24.12 4 4 0 0 1-.86.15l-.35.04c-.22.03-.43.08-.62.14-.18.06-.33.15-.45.28a.71.71 0 0 0-.17.5c0 .3.1.52.32.67.22.14.5.22.83.22Zm4.74-6.65V102h-.84v-7.27h.84Zm4.97 5.04v-3.22h.84V102h-.84v-.92h-.05a1.72 1.72 0 0 1-1.62 1 1.8 1.8 0 0 1-.91-.23 1.56 1.56 0 0 1-.63-.68 2.6 2.6 0 0 1-.22-1.16v-3.46h.83v3.4c0 .4.11.72.34.96.22.23.5.35.86.35a1.44 1.44 0 0 0 1.18-.65c.15-.22.22-.5.22-.84Zm4.66 2.34a2.6 2.6 0 0 1-1.36-.34 2.34 2.34 0 0 1-.88-.98c-.2-.43-.3-.92-.3-1.47 0-.56.1-1.06.3-1.48a2.31 2.31 0 0 1 2.15-1.36c.3 0 .57.04.85.14a2.08 2.08 0 0 1 1.3 1.3c.13.34.2.77.2 1.28v.36h-4.2v-.73h3.35c0-.3-.06-.58-.19-.82a1.4 1.4 0 0 0-1.3-.78c-.34 0-.63.08-.87.25-.24.16-.43.37-.56.64-.13.26-.2.54-.2.84v.48c0 .42.08.76.22 1.05.15.29.34.5.6.65.26.15.55.22.9.22.21 0 .41-.03.59-.1a1.25 1.25 0 0 0 .77-.75l.8.23a1.8 1.8 0 0 1-.42.72c-.2.2-.45.37-.75.48-.3.12-.63.17-1 .17Z" fill="#E8178A"/><path d="M183 98.5h30" stroke="#E8178A"/><circle cx="212" cy="98.5" r="1" fill="#E8178A"/></svg>