<svg width="672" height="137" viewBox="0 0 672 137" fill="none" xmlns="http://www.w3.org/2000/svg">
<rect width="672" height="137" fill="#F6F6F6"/>
<rect x="68" y="66.5" width="256" height="4" rx="2" fill="#B0B0B0"/>
<rect x="68" y="66.5" width="84" height="4" rx="2" fill="#AFAFAF"/>
<circle cx="76" cy="68.5" r="8" fill="#194CCC"/>
<path d="M78.6364 92.8636V104.5H77.2727L70.9318 95.3636H70.8182V104.5H69.4091V92.8636H70.7727L77.1364 102.023H77.25V92.8636H78.6364ZM84.8196 104.682C84.0317 104.682 83.3404 104.494 82.7457 104.119C82.1548 103.744 81.6927 103.22 81.3594 102.545C81.0298 101.871 80.8651 101.083 80.8651 100.182C80.8651 99.2727 81.0298 98.4792 81.3594 97.8011C81.6927 97.1231 82.1548 96.5966 82.7457 96.2216C83.3404 95.8466 84.0317 95.6591 84.8196 95.6591C85.6075 95.6591 86.2969 95.8466 86.8878 96.2216C87.4825 96.5966 87.9446 97.1231 88.2741 97.8011C88.6075 98.4792 88.7741 99.2727 88.7741 100.182C88.7741 101.083 88.6075 101.871 88.2741 102.545C87.9446 103.22 87.4825 103.744 86.8878 104.119C86.2969 104.494 85.6075 104.682 84.8196 104.682ZM84.8196 103.477C85.4181 103.477 85.9105 103.324 86.2969 103.017C86.6832 102.71 86.9692 102.307 87.1548 101.807C87.3404 101.307 87.4332 100.765 87.4332 100.182C87.4332 99.5985 87.3404 99.0549 87.1548 98.5511C86.9692 98.0473 86.6832 97.6402 86.2969 97.3295C85.9105 97.0189 85.4181 96.8636 84.8196 96.8636C84.2211 96.8636 83.7287 97.0189 83.3423 97.3295C82.956 97.6402 82.67 98.0473 82.4844 98.5511C82.2988 99.0549 82.206 99.5985 82.206 100.182C82.206 100.765 82.2988 101.307 82.4844 101.807C82.67 102.307 82.956 102.71 83.3423 103.017C83.7287 103.324 84.2211 103.477 84.8196 103.477ZM99.1165 95.7727V96.9091H94.5938V95.7727H99.1165ZM95.9119 93.6818H97.2528V102C97.2528 102.379 97.3078 102.663 97.4176 102.852C97.5313 103.038 97.6752 103.163 97.8494 103.227C98.0275 103.288 98.215 103.318 98.4119 103.318C98.5597 103.318 98.6809 103.311 98.7756 103.295C98.8703 103.277 98.946 103.261 99.0028 103.25L99.2756 104.455C99.1847 104.489 99.0578 104.523 98.8949 104.557C98.732 104.595 98.5256 104.614 98.2756 104.614C97.8968 104.614 97.5256 104.532 97.1619 104.369C96.8021 104.206 96.5028 103.958 96.2642 103.625C96.0294 103.292 95.9119 102.871 95.9119 102.364V93.6818ZM101.134 104.5V95.7727H102.474V104.5H101.134ZM101.815 94.3182C101.554 94.3182 101.329 94.2292 101.139 94.0511C100.954 93.8731 100.861 93.6591 100.861 93.4091C100.861 93.1591 100.954 92.9451 101.139 92.767C101.329 92.589 101.554 92.5 101.815 92.5C102.077 92.5 102.3 92.589 102.486 92.767C102.675 92.9451 102.77 93.1591 102.77 93.4091C102.77 93.6591 102.675 93.8731 102.486 94.0511C102.3 94.2292 102.077 94.3182 101.815 94.3182ZM104.93 104.5V95.7727H106.226V97.1364H106.339C106.521 96.6705 106.815 96.3087 107.22 96.0511C107.625 95.7898 108.112 95.6591 108.68 95.6591C109.256 95.6591 109.735 95.7898 110.118 96.0511C110.504 96.3087 110.805 96.6705 111.021 97.1364H111.112C111.336 96.6856 111.671 96.3277 112.118 96.0625C112.565 95.7936 113.101 95.6591 113.726 95.6591C114.506 95.6591 115.144 95.9034 115.641 96.392C116.137 96.8769 116.385 97.6326 116.385 98.6591V104.5H115.044V98.6591C115.044 98.0152 114.868 97.5549 114.516 97.2784C114.163 97.0019 113.749 96.8636 113.271 96.8636C112.658 96.8636 112.182 97.0492 111.845 97.4205C111.508 97.7879 111.339 98.2538 111.339 98.8182V104.5H109.976V98.5227C109.976 98.0265 109.815 97.6269 109.493 97.3239C109.171 97.017 108.756 96.8636 108.249 96.8636C107.9 96.8636 107.574 96.9564 107.271 97.142C106.972 97.3277 106.73 97.5852 106.544 97.9148C106.362 98.2405 106.271 98.6174 106.271 99.0455V104.5H104.93ZM122.496 104.682C121.655 104.682 120.929 104.496 120.32 104.125C119.714 103.75 119.246 103.227 118.916 102.557C118.59 101.883 118.428 101.098 118.428 100.205C118.428 99.3106 118.59 98.5227 118.916 97.8409C119.246 97.1553 119.704 96.6212 120.291 96.2386C120.882 95.8523 121.571 95.6591 122.359 95.6591C122.814 95.6591 123.263 95.7348 123.706 95.8864C124.149 96.0379 124.553 96.2841 124.916 96.625C125.28 96.9621 125.57 97.4091 125.786 97.9659C126.001 98.5227 126.109 99.2083 126.109 100.023V100.591H119.382V99.4318H124.746C124.746 98.9394 124.647 98.5 124.45 98.1136C124.257 97.7273 123.981 97.4223 123.621 97.1989C123.265 96.9754 122.844 96.8636 122.359 96.8636C121.825 96.8636 121.363 96.9962 120.973 97.2614C120.587 97.5227 120.289 97.8636 120.081 98.2841C119.873 98.7045 119.768 99.1553 119.768 99.6364V100.409C119.768 101.068 119.882 101.627 120.109 102.085C120.34 102.54 120.661 102.886 121.07 103.125C121.479 103.36 121.954 103.477 122.496 103.477C122.848 103.477 123.166 103.428 123.45 103.33C123.738 103.227 123.986 103.076 124.195 102.875C124.403 102.67 124.564 102.417 124.678 102.114L125.973 102.477C125.837 102.917 125.607 103.303 125.286 103.636C124.964 103.966 124.566 104.223 124.092 104.409C123.619 104.591 123.087 104.682 122.496 104.682ZM133.99 92.8636V104.5H132.649V92.8636H133.99ZM136.446 104.5V95.7727H137.787V104.5H136.446ZM137.128 94.3182C136.866 94.3182 136.641 94.2292 136.452 94.0511C136.266 93.8731 136.173 93.6591 136.173 93.4091C136.173 93.1591 136.266 92.9451 136.452 92.767C136.641 92.589 136.866 92.5 137.128 92.5C137.389 92.5 137.613 92.589 137.798 92.767C137.988 92.9451 138.082 93.1591 138.082 93.4091C138.082 93.6591 137.988 93.8731 137.798 94.0511C137.613 94.2292 137.389 94.3182 137.128 94.3182ZM140.243 104.5V95.7727H141.538V97.1364H141.652C141.834 96.6705 142.127 96.3087 142.533 96.0511C142.938 95.7898 143.425 95.6591 143.993 95.6591C144.569 95.6591 145.048 95.7898 145.43 96.0511C145.817 96.3087 146.118 96.6705 146.334 97.1364H146.425C146.648 96.6856 146.983 96.3277 147.43 96.0625C147.877 95.7936 148.413 95.6591 149.038 95.6591C149.819 95.6591 150.457 95.9034 150.953 96.392C151.449 96.8769 151.697 97.6326 151.697 98.6591V104.5H150.357V98.6591C150.357 98.0152 150.18 97.5549 149.828 97.2784C149.476 97.0019 149.061 96.8636 148.584 96.8636C147.97 96.8636 147.495 97.0492 147.158 97.4205C146.821 97.7879 146.652 98.2538 146.652 98.8182V104.5H145.288V98.5227C145.288 98.0265 145.127 97.6269 144.805 97.3239C144.483 97.017 144.069 96.8636 143.561 96.8636C143.213 96.8636 142.887 96.9564 142.584 97.142C142.285 97.3277 142.042 97.5852 141.857 97.9148C141.675 98.2405 141.584 98.6174 141.584 99.0455V104.5H140.243ZM154.149 104.5V95.7727H155.49V104.5H154.149ZM154.831 94.3182C154.57 94.3182 154.344 94.2292 154.155 94.0511C153.969 93.8731 153.876 93.6591 153.876 93.4091C153.876 93.1591 153.969 92.9451 154.155 92.767C154.344 92.589 154.57 92.5 154.831 92.5C155.092 92.5 155.316 92.589 155.501 92.767C155.691 92.9451 155.786 93.1591 155.786 93.4091C155.786 93.6591 155.691 93.8731 155.501 94.0511C155.316 94.2292 155.092 94.3182 154.831 94.3182ZM161.741 95.7727V96.9091H157.219V95.7727H161.741ZM158.537 93.6818H159.878V102C159.878 102.379 159.933 102.663 160.043 102.852C160.156 103.038 160.3 103.163 160.474 103.227C160.652 103.288 160.84 103.318 161.037 103.318C161.185 103.318 161.306 103.311 161.401 103.295C161.495 103.277 161.571 103.261 161.628 103.25L161.901 104.455C161.81 104.489 161.683 104.523 161.52 104.557C161.357 104.595 161.151 104.614 160.901 104.614C160.522 104.614 160.151 104.532 159.787 104.369C159.427 104.206 159.128 103.958 158.889 103.625C158.654 103.292 158.537 102.871 158.537 102.364V93.6818Z" fill="#757575"/>
<path d="M68.6364 34.6307V32.8636H77.9205V34.6307H74.3239V44.5H72.233V34.6307H68.6364ZM79.6193 44.5V35.7727H81.6761V44.5H79.6193ZM80.6534 34.5341C80.3277 34.5341 80.0473 34.4261 79.8125 34.2102C79.5777 33.9905 79.4602 33.7273 79.4602 33.4205C79.4602 33.1098 79.5777 32.8466 79.8125 32.6307C80.0473 32.411 80.3277 32.3011 80.6534 32.3011C80.983 32.3011 81.2633 32.411 81.4943 32.6307C81.7292 32.8466 81.8466 33.1098 81.8466 33.4205C81.8466 33.7273 81.7292 33.9905 81.4943 34.2102C81.2633 34.4261 80.983 34.5341 80.6534 34.5341ZM83.7912 44.5V35.7727H85.7571V37.2557H85.8594C86.0412 36.7557 86.3423 36.3655 86.7628 36.0852C87.1832 35.8011 87.6851 35.6591 88.2685 35.6591C88.8594 35.6591 89.3575 35.803 89.7628 36.0909C90.1719 36.375 90.4598 36.7633 90.6264 37.2557H90.7173C90.9105 36.7708 91.2363 36.3845 91.6946 36.0966C92.1567 35.8049 92.7041 35.6591 93.3366 35.6591C94.1397 35.6591 94.795 35.9129 95.3026 36.4205C95.8101 36.928 96.0639 37.6686 96.0639 38.642V44.5H94.0014V38.9602C94.0014 38.4186 93.8575 38.0227 93.5696 37.7727C93.2817 37.5189 92.9295 37.392 92.5128 37.392C92.0166 37.392 91.6283 37.5473 91.348 37.858C91.0715 38.1648 90.9332 38.5644 90.9332 39.0568V44.5H88.9162V38.875C88.9162 38.4242 88.7798 38.0644 88.5071 37.7955C88.2382 37.5265 87.8859 37.392 87.4503 37.392C87.1548 37.392 86.8859 37.4678 86.6435 37.6193C86.401 37.767 86.2079 37.9773 86.0639 38.25C85.92 38.5189 85.848 38.8333 85.848 39.1932V44.5H83.7912ZM102.014 44.6705C101.139 44.6705 100.384 44.4886 99.7472 44.125C99.1146 43.7576 98.6278 43.2386 98.2869 42.5682C97.946 41.8939 97.7756 41.1004 97.7756 40.1875C97.7756 39.2898 97.946 38.5019 98.2869 37.8239C98.6316 37.142 99.1127 36.6117 99.7301 36.233C100.348 35.8504 101.073 35.6591 101.906 35.6591C102.444 35.6591 102.952 35.7462 103.429 35.9205C103.91 36.0909 104.334 36.3561 104.702 36.7159C105.073 37.0758 105.365 37.5341 105.577 38.0909C105.789 38.6439 105.895 39.303 105.895 40.0682V40.6989H98.7415V39.3125H103.923C103.92 38.9186 103.834 38.5682 103.668 38.2614C103.501 37.9508 103.268 37.7064 102.969 37.5284C102.673 37.3504 102.329 37.2614 101.935 37.2614C101.514 37.2614 101.145 37.3636 100.827 37.5682C100.509 37.7689 100.26 38.0341 100.082 38.3636C99.9081 38.6894 99.8191 39.0473 99.8153 39.4375V40.6477C99.8153 41.1553 99.9081 41.5909 100.094 41.9545C100.279 42.3144 100.539 42.5909 100.872 42.7841C101.205 42.9735 101.596 43.0682 102.043 43.0682C102.342 43.0682 102.613 43.0265 102.855 42.9432C103.098 42.8561 103.308 42.7292 103.486 42.5625C103.664 42.3958 103.798 42.1894 103.889 41.9432L105.81 42.1591C105.688 42.6667 105.457 43.1098 105.116 43.4886C104.779 43.8636 104.348 44.1553 103.821 44.3636C103.295 44.5682 102.692 44.6705 102.014 44.6705ZM111.604 32.8636H113.661V42C113.661 42.3258 113.71 42.5587 113.808 42.6989C113.907 42.839 114.081 42.9053 114.331 42.8977C114.467 42.8939 114.57 42.8864 114.638 42.875C114.71 42.8598 114.774 42.8447 114.831 42.8295L115.172 44.3864C115.051 44.4242 114.899 44.4602 114.717 44.4943C114.539 44.5284 114.32 44.5492 114.058 44.5568C113.225 44.5795 112.607 44.4053 112.206 44.0341C111.804 43.6629 111.604 43.0966 111.604 42.3352V32.8636ZM116.197 44.5V35.7727H118.254V44.5H116.197ZM117.232 34.5341C116.906 34.5341 116.625 34.4261 116.391 34.2102C116.156 33.9905 116.038 33.7273 116.038 33.4205C116.038 33.1098 116.156 32.8466 116.391 32.6307C116.625 32.411 116.906 32.3011 117.232 32.3011C117.561 32.3011 117.841 32.411 118.072 32.6307C118.307 32.8466 118.425 33.1098 118.425 33.4205C118.425 33.7273 118.307 33.9905 118.072 34.2102C117.841 34.4261 117.561 34.5341 117.232 34.5341ZM120.369 44.5V35.7727H122.335V37.2557H122.438C122.619 36.7557 122.92 36.3655 123.341 36.0852C123.761 35.8011 124.263 35.6591 124.847 35.6591C125.438 35.6591 125.936 35.803 126.341 36.0909C126.75 36.375 127.038 36.7633 127.205 37.2557H127.295C127.489 36.7708 127.814 36.3845 128.273 36.0966C128.735 35.8049 129.282 35.6591 129.915 35.6591C130.718 35.6591 131.373 35.9129 131.881 36.4205C132.388 36.928 132.642 37.6686 132.642 38.642V44.5H130.58V38.9602C130.58 38.4186 130.436 38.0227 130.148 37.7727C129.86 37.5189 129.508 37.392 129.091 37.392C128.595 37.392 128.206 37.5473 127.926 37.858C127.65 38.1648 127.511 38.5644 127.511 39.0568V44.5H125.494V38.875C125.494 38.4242 125.358 38.0644 125.085 37.7955C124.816 37.5265 124.464 37.392 124.028 37.392C123.733 37.392 123.464 37.4678 123.222 37.6193C122.979 37.767 122.786 37.9773 122.642 38.25C122.498 38.5189 122.426 38.8333 122.426 39.1932V44.5H120.369ZM134.729 44.5V35.7727H136.786V44.5H134.729ZM135.763 34.5341C135.437 34.5341 135.157 34.4261 134.922 34.2102C134.687 33.9905 134.57 33.7273 134.57 33.4205C134.57 33.1098 134.687 32.8466 134.922 32.6307C135.157 32.411 135.437 32.3011 135.763 32.3011C136.092 32.3011 136.373 32.411 136.604 32.6307C136.839 32.8466 136.956 33.1098 136.956 33.4205C136.956 33.7273 136.839 33.9905 136.604 34.2102C136.373 34.4261 136.092 34.5341 135.763 34.5341ZM143.259 35.7727V37.3636H138.241V35.7727H143.259ZM139.48 33.6818H141.537V41.875C141.537 42.1515 141.579 42.3636 141.662 42.5114C141.749 42.6553 141.863 42.7538 142.003 42.8068C142.143 42.8598 142.298 42.8864 142.469 42.8864C142.598 42.8864 142.715 42.8769 142.821 42.858C142.931 42.839 143.014 42.822 143.071 42.8068L143.418 44.4148C143.308 44.4527 143.151 44.4943 142.946 44.5398C142.745 44.5852 142.499 44.6117 142.207 44.6193C141.692 44.6345 141.228 44.5568 140.815 44.3864C140.402 44.2121 140.075 43.9432 139.832 43.5795C139.594 43.2159 139.476 42.7614 139.48 42.2159V33.6818Z" fill="#333333"/>
<rect x="348" y="66.5" width="256" height="4" rx="2" fill="#B0B0B0"/>
<rect x="348" y="66.5" width="84" height="4" rx="2" fill="#1E71F6"/>
<circle cx="424" cy="68.5" r="8" fill="#194CCC"/>
<path d="M353.295 92.8636V104.5H351.886V94.3409H351.818L348.977 96.2273V94.7955L351.886 92.8636H353.295ZM360.278 104.659C359.612 104.659 359.011 104.527 358.477 104.261C357.943 103.996 357.515 103.633 357.193 103.17C356.871 102.708 356.695 102.182 356.665 101.591H358.028C358.081 102.117 358.32 102.553 358.744 102.898C359.172 103.239 359.684 103.409 360.278 103.409C360.756 103.409 361.18 103.297 361.551 103.074C361.926 102.85 362.22 102.544 362.432 102.153C362.648 101.759 362.756 101.314 362.756 100.818C362.756 100.311 362.644 99.858 362.42 99.4602C362.201 99.0587 361.898 98.7424 361.511 98.5114C361.125 98.2803 360.684 98.1629 360.188 98.1591C359.831 98.1553 359.466 98.2102 359.091 98.3239C358.716 98.4337 358.407 98.5758 358.165 98.75L356.847 98.5909L357.551 92.8636H363.597V94.1136H358.733L358.324 97.5455H358.392C358.631 97.3561 358.93 97.1989 359.29 97.0739C359.65 96.9489 360.025 96.8864 360.415 96.8864C361.127 96.8864 361.761 97.0568 362.318 97.3977C362.879 97.7348 363.318 98.197 363.636 98.7841C363.958 99.3712 364.119 100.042 364.119 100.795C364.119 101.538 363.953 102.201 363.619 102.784C363.29 103.364 362.835 103.822 362.256 104.159C361.676 104.492 361.017 104.659 360.278 104.659ZM376.854 107.773V103.159H376.74C376.642 103.318 376.501 103.519 376.32 103.761C376.138 104 375.878 104.214 375.541 104.403C375.204 104.589 374.755 104.682 374.195 104.682C373.467 104.682 372.825 104.498 372.268 104.131C371.712 103.759 371.276 103.237 370.962 102.562C370.647 101.884 370.49 101.083 370.49 100.159C370.49 99.2424 370.647 98.447 370.962 97.7727C371.276 97.0985 371.714 96.5777 372.274 96.2102C372.835 95.8428 373.482 95.6591 374.217 95.6591C374.786 95.6591 375.234 95.7538 375.564 95.9432C375.897 96.1288 376.151 96.3409 376.325 96.5795C376.503 96.8144 376.642 97.0076 376.74 97.1591H376.899V95.7727H378.195V107.773H376.854ZM374.376 103.477C374.914 103.477 375.369 103.337 375.74 103.057C376.111 102.773 376.393 102.381 376.587 101.881C376.78 101.377 376.876 100.795 376.876 100.136C376.876 99.4848 376.782 98.9148 376.592 98.4261C376.403 97.9337 376.123 97.5511 375.751 97.2784C375.38 97.0019 374.922 96.8636 374.376 96.8636C373.808 96.8636 373.335 97.0095 372.956 97.3011C372.581 97.589 372.299 97.9811 372.109 98.4773C371.924 98.9697 371.831 99.5227 371.831 100.136C371.831 100.758 371.926 101.322 372.115 101.83C372.308 102.333 372.592 102.735 372.967 103.034C373.346 103.33 373.816 103.477 374.376 103.477ZM386.149 100.932V95.7727H387.49V104.5H386.149V103.023H386.058C385.854 103.466 385.536 103.843 385.104 104.153C384.672 104.46 384.126 104.614 383.467 104.614C382.922 104.614 382.437 104.494 382.013 104.256C381.589 104.013 381.255 103.65 381.013 103.165C380.77 102.676 380.649 102.061 380.649 101.318V95.7727H381.99V101.227C381.99 101.864 382.168 102.371 382.524 102.75C382.884 103.129 383.342 103.318 383.899 103.318C384.232 103.318 384.571 103.233 384.916 103.062C385.265 102.892 385.556 102.631 385.791 102.278C386.03 101.926 386.149 101.477 386.149 100.932ZM393.605 104.682C392.764 104.682 392.039 104.496 391.429 104.125C390.823 103.75 390.355 103.227 390.026 102.557C389.7 101.883 389.537 101.098 389.537 100.205C389.537 99.3106 389.7 98.5227 390.026 97.8409C390.355 97.1553 390.813 96.6212 391.401 96.2386C391.991 95.8523 392.681 95.6591 393.469 95.6591C393.923 95.6591 394.372 95.7348 394.815 95.8864C395.259 96.0379 395.662 96.2841 396.026 96.625C396.389 96.9621 396.679 97.4091 396.895 97.9659C397.111 98.5227 397.219 99.2083 397.219 100.023V100.591H390.491V99.4318H395.855C395.855 98.9394 395.757 98.5 395.56 98.1136C395.366 97.7273 395.09 97.4223 394.73 97.1989C394.374 96.9754 393.954 96.8636 393.469 96.8636C392.935 96.8636 392.473 96.9962 392.082 97.2614C391.696 97.5227 391.399 97.8636 391.19 98.2841C390.982 98.7045 390.878 99.1553 390.878 99.6364V100.409C390.878 101.068 390.991 101.627 391.219 102.085C391.45 102.54 391.77 102.886 392.179 103.125C392.588 103.36 393.063 103.477 393.605 103.477C393.957 103.477 394.276 103.428 394.56 103.33C394.848 103.227 395.096 103.076 395.304 102.875C395.512 102.67 395.673 102.417 395.787 102.114L397.082 102.477C396.946 102.917 396.717 103.303 396.395 103.636C396.073 103.966 395.675 104.223 395.202 104.409C394.728 104.591 394.196 104.682 393.605 104.682ZM405.44 97.7273L404.236 98.0682C404.16 97.8674 404.048 97.6723 403.901 97.483C403.757 97.2898 403.56 97.1307 403.31 97.0057C403.06 96.8807 402.74 96.8182 402.349 96.8182C401.815 96.8182 401.37 96.9413 401.014 97.1875C400.662 97.4299 400.486 97.7386 400.486 98.1136C400.486 98.447 400.607 98.7102 400.849 98.9034C401.092 99.0966 401.471 99.2576 401.986 99.3864L403.281 99.7045C404.062 99.8939 404.643 100.184 405.026 100.574C405.408 100.96 405.599 101.458 405.599 102.068C405.599 102.568 405.455 103.015 405.168 103.409C404.884 103.803 404.486 104.114 403.974 104.341C403.463 104.568 402.868 104.682 402.19 104.682C401.3 104.682 400.563 104.489 399.98 104.102C399.397 103.716 399.027 103.152 398.872 102.409L400.145 102.091C400.266 102.561 400.495 102.913 400.832 103.148C401.173 103.383 401.618 103.5 402.168 103.5C402.793 103.5 403.289 103.367 403.656 103.102C404.027 102.833 404.213 102.511 404.213 102.136C404.213 101.833 404.107 101.58 403.895 101.375C403.683 101.167 403.357 101.011 402.918 100.909L401.463 100.568C400.664 100.379 400.077 100.085 399.702 99.6875C399.33 99.286 399.145 98.7841 399.145 98.1818C399.145 97.6894 399.283 97.2538 399.56 96.875C399.84 96.4962 400.221 96.1989 400.702 95.983C401.187 95.767 401.736 95.6591 402.349 95.6591C403.213 95.6591 403.891 95.8485 404.384 96.2273C404.88 96.6061 405.232 97.1061 405.44 97.7273ZM411.413 95.7727V96.9091H406.891V95.7727H411.413ZM408.209 93.6818H409.55V102C409.55 102.379 409.605 102.663 409.714 102.852C409.828 103.038 409.972 103.163 410.146 103.227C410.324 103.288 410.512 103.318 410.709 103.318C410.857 103.318 410.978 103.311 411.072 103.295C411.167 103.277 411.243 103.261 411.3 103.25L411.572 104.455C411.482 104.489 411.355 104.523 411.192 104.557C411.029 104.595 410.822 104.614 410.572 104.614C410.194 104.614 409.822 104.532 409.459 104.369C409.099 104.206 408.8 103.958 408.561 103.625C408.326 103.292 408.209 102.871 408.209 102.364V93.6818ZM413.43 104.5V95.7727H414.771V104.5H413.43ZM414.112 94.3182C413.851 94.3182 413.625 94.2292 413.436 94.0511C413.25 93.8731 413.158 93.6591 413.158 93.4091C413.158 93.1591 413.25 92.9451 413.436 92.767C413.625 92.589 413.851 92.5 414.112 92.5C414.374 92.5 414.597 92.589 414.783 92.767C414.972 92.9451 415.067 93.1591 415.067 93.4091C415.067 93.6591 414.972 93.8731 414.783 94.0511C414.597 94.2292 414.374 94.3182 414.112 94.3182ZM420.773 104.682C419.985 104.682 419.294 104.494 418.699 104.119C418.108 103.744 417.646 103.22 417.312 102.545C416.983 101.871 416.818 101.083 416.818 100.182C416.818 99.2727 416.983 98.4792 417.312 97.8011C417.646 97.1231 418.108 96.5966 418.699 96.2216C419.294 95.8466 419.985 95.6591 420.773 95.6591C421.561 95.6591 422.25 95.8466 422.841 96.2216C423.436 96.5966 423.898 97.1231 424.227 97.8011C424.561 98.4792 424.727 99.2727 424.727 100.182C424.727 101.083 424.561 101.871 424.227 102.545C423.898 103.22 423.436 103.744 422.841 104.119C422.25 104.494 421.561 104.682 420.773 104.682ZM420.773 103.477C421.371 103.477 421.864 103.324 422.25 103.017C422.636 102.71 422.922 102.307 423.108 101.807C423.294 101.307 423.386 100.765 423.386 100.182C423.386 99.5985 423.294 99.0549 423.108 98.5511C422.922 98.0473 422.636 97.6402 422.25 97.3295C421.864 97.0189 421.371 96.8636 420.773 96.8636C420.174 96.8636 419.682 97.0189 419.295 97.3295C418.909 97.6402 418.623 98.0473 418.438 98.5511C418.252 99.0549 418.159 99.5985 418.159 100.182C418.159 100.765 418.252 101.307 418.438 101.807C418.623 102.307 418.909 102.71 419.295 103.017C419.682 103.324 420.174 103.477 420.773 103.477ZM428.115 99.25V104.5H426.774V95.7727H428.07V97.1364H428.183C428.388 96.6932 428.698 96.3371 429.115 96.0682C429.532 95.7955 430.07 95.6591 430.729 95.6591C431.32 95.6591 431.837 95.7803 432.28 96.0227C432.723 96.2614 433.068 96.625 433.314 97.1136C433.56 97.5985 433.683 98.2121 433.683 98.9545V104.5H432.342V99.0455C432.342 98.3598 432.164 97.8258 431.808 97.4432C431.452 97.0568 430.964 96.8636 430.342 96.8636C429.914 96.8636 429.532 96.9564 429.195 97.142C428.861 97.3277 428.598 97.5985 428.405 97.9545C428.212 98.3106 428.115 98.7424 428.115 99.25ZM442.315 97.7273L441.111 98.0682C441.035 97.8674 440.923 97.6723 440.776 97.483C440.632 97.2898 440.435 97.1307 440.185 97.0057C439.935 96.8807 439.615 96.8182 439.224 96.8182C438.69 96.8182 438.245 96.9413 437.889 97.1875C437.537 97.4299 437.361 97.7386 437.361 98.1136C437.361 98.447 437.482 98.7102 437.724 98.9034C437.967 99.0966 438.346 99.2576 438.861 99.3864L440.156 99.7045C440.937 99.8939 441.518 100.184 441.901 100.574C442.283 100.96 442.474 101.458 442.474 102.068C442.474 102.568 442.33 103.015 442.043 103.409C441.759 103.803 441.361 104.114 440.849 104.341C440.338 104.568 439.743 104.682 439.065 104.682C438.175 104.682 437.438 104.489 436.855 104.102C436.272 103.716 435.902 103.152 435.747 102.409L437.02 102.091C437.141 102.561 437.37 102.913 437.707 103.148C438.048 103.383 438.493 103.5 439.043 103.5C439.668 103.5 440.164 103.367 440.531 103.102C440.902 102.833 441.088 102.511 441.088 102.136C441.088 101.833 440.982 101.58 440.77 101.375C440.558 101.167 440.232 101.011 439.793 100.909L438.338 100.568C437.539 100.379 436.952 100.085 436.577 99.6875C436.205 99.286 436.02 98.7841 436.02 98.1818C436.02 97.6894 436.158 97.2538 436.435 96.875C436.715 96.4962 437.096 96.1989 437.577 95.983C438.062 95.767 438.611 95.6591 439.224 95.6591C440.088 95.6591 440.766 95.8485 441.259 96.2273C441.755 96.6061 442.107 97.1061 442.315 97.7273Z" fill="#757575"/>
<path d="M358.71 32.8636V44.5H356.835L351.352 36.5739H351.256V44.5H349.148V32.8636H351.034L356.511 40.7955H356.614V32.8636H358.71ZM366.479 40.8295V35.7727H368.536V44.5H366.541V42.9489H366.45C366.253 43.4375 365.929 43.8371 365.479 44.1477C365.032 44.4583 364.481 44.6136 363.825 44.6136C363.253 44.6136 362.748 44.4867 362.308 44.233C361.873 43.9754 361.532 43.6023 361.286 43.1136C361.039 42.6212 360.916 42.0265 360.916 41.3295V35.7727H362.973V41.0114C362.973 41.5644 363.125 42.0038 363.428 42.3295C363.731 42.6553 364.128 42.8182 364.621 42.8182C364.924 42.8182 365.217 42.7443 365.501 42.5966C365.786 42.4489 366.018 42.2292 366.2 41.9375C366.386 41.642 366.479 41.2727 366.479 40.8295ZM370.651 44.5V35.7727H372.616V37.2557H372.719C372.901 36.7557 373.202 36.3655 373.622 36.0852C374.043 35.8011 374.545 35.6591 375.128 35.6591C375.719 35.6591 376.217 35.803 376.622 36.0909C377.031 36.375 377.319 36.7633 377.486 37.2557H377.577C377.77 36.7708 378.096 36.3845 378.554 36.0966C379.016 35.8049 379.563 35.6591 380.196 35.6591C380.999 35.6591 381.654 35.9129 382.162 36.4205C382.67 36.928 382.923 37.6686 382.923 38.642V44.5H380.861V38.9602C380.861 38.4186 380.717 38.0227 380.429 37.7727C380.141 37.5189 379.789 37.392 379.372 37.392C378.876 37.392 378.488 37.5473 378.207 37.858C377.931 38.1648 377.793 38.5644 377.793 39.0568V44.5H375.776V38.875C375.776 38.4242 375.639 38.0644 375.366 37.7955C375.098 37.5265 374.745 37.392 374.31 37.392C374.014 37.392 373.745 37.4678 373.503 37.6193C373.26 37.767 373.067 37.9773 372.923 38.25C372.779 38.5189 372.707 38.8333 372.707 39.1932V44.5H370.651ZM385.101 44.5V32.8636H387.158V37.2159H387.243C387.349 37.0038 387.499 36.7784 387.692 36.5398C387.885 36.2973 388.146 36.0909 388.476 35.9205C388.805 35.7462 389.226 35.6591 389.737 35.6591C390.411 35.6591 391.019 35.8314 391.561 36.1761C392.107 36.517 392.538 37.0227 392.857 37.6932C393.179 38.3598 393.339 39.178 393.339 40.1477C393.339 41.1061 393.182 41.9205 392.868 42.5909C392.554 43.2614 392.125 43.7727 391.584 44.125C391.042 44.4773 390.429 44.6534 389.743 44.6534C389.243 44.6534 388.828 44.5701 388.499 44.4034C388.169 44.2367 387.904 44.036 387.703 43.8011C387.506 43.5625 387.353 43.3371 387.243 43.125H387.124V44.5H385.101ZM387.118 40.1364C387.118 40.7008 387.197 41.1951 387.357 41.6193C387.519 42.0436 387.752 42.375 388.055 42.6136C388.362 42.8485 388.733 42.9659 389.169 42.9659C389.624 42.9659 390.004 42.8447 390.311 42.6023C390.618 42.3561 390.849 42.0208 391.004 41.5966C391.163 41.1686 391.243 40.6818 391.243 40.1364C391.243 39.5947 391.165 39.1136 391.01 38.6932C390.855 38.2727 390.624 37.9432 390.317 37.7045C390.01 37.4659 389.627 37.3466 389.169 37.3466C388.73 37.3466 388.357 37.4621 388.05 37.6932C387.743 37.9242 387.51 38.2481 387.351 38.6648C387.196 39.0814 387.118 39.572 387.118 40.1364ZM398.952 44.6705C398.077 44.6705 397.321 44.4886 396.685 44.125C396.052 43.7576 395.565 43.2386 395.224 42.5682C394.884 41.8939 394.713 41.1004 394.713 40.1875C394.713 39.2898 394.884 38.5019 395.224 37.8239C395.569 37.142 396.05 36.6117 396.668 36.233C397.285 35.8504 398.01 35.6591 398.844 35.6591C399.382 35.6591 399.889 35.7462 400.366 35.9205C400.848 36.0909 401.272 36.3561 401.639 36.7159C402.01 37.0758 402.302 37.5341 402.514 38.0909C402.726 38.6439 402.832 39.303 402.832 40.0682V40.6989H395.679V39.3125H400.861C400.857 38.9186 400.772 38.5682 400.605 38.2614C400.438 37.9508 400.205 37.7064 399.906 37.5284C399.611 37.3504 399.266 37.2614 398.872 37.2614C398.452 37.2614 398.082 37.3636 397.764 37.5682C397.446 37.7689 397.198 38.0341 397.02 38.3636C396.846 38.6894 396.757 39.0473 396.753 39.4375V40.6477C396.753 41.1553 396.846 41.5909 397.031 41.9545C397.217 42.3144 397.476 42.5909 397.81 42.7841C398.143 42.9735 398.533 43.0682 398.98 43.0682C399.279 43.0682 399.55 43.0265 399.793 42.9432C400.035 42.8561 400.245 42.7292 400.423 42.5625C400.601 42.3958 400.736 42.1894 400.827 41.9432L402.747 42.1591C402.626 42.6667 402.395 43.1098 402.054 43.4886C401.717 43.8636 401.285 44.1553 400.759 44.3636C400.232 44.5682 399.63 44.6705 398.952 44.6705ZM404.572 44.5V35.7727H406.567V37.2273H406.658C406.817 36.7235 407.089 36.3352 407.476 36.0625C407.866 35.786 408.311 35.6477 408.811 35.6477C408.925 35.6477 409.052 35.6534 409.192 35.6648C409.336 35.6723 409.455 35.6856 409.55 35.7045V37.5966C409.463 37.5663 409.324 37.5398 409.135 37.517C408.949 37.4905 408.769 37.4773 408.595 37.4773C408.22 37.4773 407.883 37.5587 407.584 37.7216C407.288 37.8807 407.055 38.1023 406.885 38.3864C406.714 38.6705 406.629 38.9981 406.629 39.3693V44.5H404.572ZM418.692 44.6705C417.839 44.6705 417.101 44.483 416.476 44.108C415.851 43.733 415.366 43.2083 415.021 42.5341C414.68 41.8598 414.51 41.072 414.51 40.1705C414.51 39.2689 414.68 38.4792 415.021 37.8011C415.366 37.1231 415.851 36.5966 416.476 36.2216C417.101 35.8466 417.839 35.6591 418.692 35.6591C419.544 35.6591 420.283 35.8466 420.908 36.2216C421.533 36.5966 422.016 37.1231 422.357 37.8011C422.701 38.4792 422.874 39.2689 422.874 40.1705C422.874 41.072 422.701 41.8598 422.357 42.5341C422.016 43.2083 421.533 43.733 420.908 44.108C420.283 44.483 419.544 44.6705 418.692 44.6705ZM418.703 43.0227C419.165 43.0227 419.552 42.8958 419.862 42.642C420.173 42.3845 420.404 42.0398 420.555 41.608C420.711 41.1761 420.788 40.6951 420.788 40.1648C420.788 39.6307 420.711 39.1477 420.555 38.7159C420.404 38.2803 420.173 37.9337 419.862 37.6761C419.552 37.4186 419.165 37.2898 418.703 37.2898C418.23 37.2898 417.836 37.4186 417.521 37.6761C417.211 37.9337 416.978 38.2803 416.822 38.7159C416.671 39.1477 416.595 39.6307 416.595 40.1648C416.595 40.6951 416.671 41.1761 416.822 41.608C416.978 42.0398 417.211 42.3845 417.521 42.642C417.836 42.8958 418.23 43.0227 418.703 43.0227ZM429.04 35.7727V37.3636H423.881V35.7727H429.04ZM425.17 44.5V34.9489C425.17 34.3617 425.292 33.8731 425.534 33.483C425.78 33.0928 426.11 32.8011 426.523 32.608C426.936 32.4148 427.394 32.3182 427.898 32.3182C428.254 32.3182 428.57 32.3466 428.847 32.4034C429.123 32.4602 429.328 32.5114 429.46 32.5568L429.051 34.1477C428.964 34.1212 428.854 34.0947 428.722 34.0682C428.589 34.0379 428.441 34.0227 428.278 34.0227C427.896 34.0227 427.625 34.1155 427.466 34.3011C427.311 34.483 427.233 34.7443 427.233 35.0852V44.5H425.17ZM440.443 47.7727V43.125H440.358C440.252 43.3371 440.098 43.5625 439.898 43.8011C439.697 44.036 439.432 44.2367 439.102 44.4034C438.773 44.5701 438.358 44.6534 437.858 44.6534C437.172 44.6534 436.559 44.4773 436.017 44.125C435.475 43.7727 435.047 43.2614 434.733 42.5909C434.419 41.9205 434.261 41.1061 434.261 40.1477C434.261 39.178 434.42 38.3598 434.739 37.6932C435.061 37.0227 435.494 36.517 436.04 36.1761C436.585 35.8314 437.193 35.6591 437.864 35.6591C438.375 35.6591 438.795 35.7462 439.125 35.9205C439.455 36.0909 439.716 36.2973 439.909 36.5398C440.102 36.7784 440.252 37.0038 440.358 37.2159H440.483V35.7727H442.506V47.7727H440.443ZM438.432 42.9659C438.867 42.9659 439.239 42.8485 439.545 42.6136C439.852 42.375 440.085 42.0436 440.244 41.6193C440.403 41.1951 440.483 40.7008 440.483 40.1364C440.483 39.572 440.403 39.0814 440.244 38.6648C440.089 38.2481 439.858 37.9242 439.551 37.6932C439.248 37.4621 438.875 37.3466 438.432 37.3466C437.973 37.3466 437.591 37.4659 437.284 37.7045C436.977 37.9432 436.746 38.2727 436.591 38.6932C436.436 39.1136 436.358 39.5947 436.358 40.1364C436.358 40.6818 436.436 41.1686 436.591 41.5966C436.75 42.0208 436.983 42.3561 437.29 42.6023C437.6 42.8447 437.981 42.9659 438.432 42.9659ZM450.182 40.8295V35.7727H452.239V44.5H450.244V42.9489H450.153C449.956 43.4375 449.633 43.8371 449.182 44.1477C448.735 44.4583 448.184 44.6136 447.528 44.6136C446.956 44.6136 446.451 44.4867 446.011 44.233C445.576 43.9754 445.235 43.6023 444.989 43.1136C444.742 42.6212 444.619 42.0265 444.619 41.3295V35.7727H446.676V41.0114C446.676 41.5644 446.828 42.0038 447.131 42.3295C447.434 42.6553 447.831 42.8182 448.324 42.8182C448.627 42.8182 448.92 42.7443 449.205 42.5966C449.489 42.4489 449.722 42.2292 449.903 41.9375C450.089 41.642 450.182 41.2727 450.182 40.8295ZM458.217 44.6705C457.342 44.6705 456.587 44.4886 455.95 44.125C455.318 43.7576 454.831 43.2386 454.49 42.5682C454.149 41.8939 453.979 41.1004 453.979 40.1875C453.979 39.2898 454.149 38.5019 454.49 37.8239C454.835 37.142 455.316 36.6117 455.933 36.233C456.551 35.8504 457.276 35.6591 458.109 35.6591C458.647 35.6591 459.155 35.7462 459.632 35.9205C460.113 36.0909 460.537 36.3561 460.905 36.7159C461.276 37.0758 461.568 37.5341 461.78 38.0909C461.992 38.6439 462.098 39.303 462.098 40.0682V40.6989H454.945V39.3125H460.126C460.123 38.9186 460.037 38.5682 459.871 38.2614C459.704 37.9508 459.471 37.7064 459.172 37.5284C458.876 37.3504 458.532 37.2614 458.138 37.2614C457.717 37.2614 457.348 37.3636 457.03 37.5682C456.712 37.7689 456.464 38.0341 456.286 38.3636C456.111 38.6894 456.022 39.0473 456.018 39.4375V40.6477C456.018 41.1553 456.111 41.5909 456.297 41.9545C456.482 42.3144 456.742 42.5909 457.075 42.7841C457.409 42.9735 457.799 43.0682 458.246 43.0682C458.545 43.0682 458.816 43.0265 459.058 42.9432C459.301 42.8561 459.511 42.7292 459.689 42.5625C459.867 42.3958 460.001 42.1894 460.092 41.9432L462.013 42.1591C461.892 42.6667 461.661 43.1098 461.32 43.4886C460.982 43.8636 460.551 44.1553 460.024 44.3636C459.498 44.5682 458.895 44.6705 458.217 44.6705ZM470.736 38.0795L468.861 38.2841C468.808 38.0947 468.715 37.9167 468.582 37.75C468.454 37.5833 468.279 37.4489 468.06 37.3466C467.84 37.2443 467.571 37.1932 467.253 37.1932C466.825 37.1932 466.465 37.286 466.173 37.4716C465.885 37.6572 465.743 37.8977 465.747 38.1932C465.743 38.447 465.836 38.6534 466.026 38.8125C466.219 38.9716 466.537 39.1023 466.98 39.2045L468.469 39.5227C469.295 39.7008 469.908 39.983 470.31 40.3693C470.715 40.7557 470.92 41.2614 470.923 41.8864C470.92 42.4356 470.759 42.9205 470.44 43.3409C470.126 43.7576 469.688 44.0833 469.128 44.3182C468.567 44.553 467.923 44.6705 467.196 44.6705C466.128 44.6705 465.268 44.447 464.616 44C463.965 43.5492 463.577 42.9223 463.452 42.1193L465.457 41.9261C465.548 42.3201 465.741 42.6174 466.037 42.8182C466.332 43.0189 466.717 43.1193 467.19 43.1193C467.679 43.1193 468.071 43.0189 468.366 42.8182C468.666 42.6174 468.815 42.3693 468.815 42.0739C468.815 41.8239 468.719 41.6174 468.526 41.4545C468.336 41.2917 468.041 41.1667 467.639 41.0795L466.151 40.767C465.313 40.5928 464.694 40.2992 464.293 39.8864C463.891 39.4697 463.692 38.9432 463.696 38.3068C463.692 37.7689 463.838 37.303 464.134 36.9091C464.433 36.5114 464.848 36.2045 465.378 35.9886C465.912 35.7689 466.527 35.6591 467.224 35.6591C468.247 35.6591 469.052 35.8769 469.639 36.3125C470.23 36.7481 470.596 37.3371 470.736 38.0795ZM476.977 35.7727V37.3636H471.96V35.7727H476.977ZM473.199 33.6818H475.256V41.875C475.256 42.1515 475.297 42.3636 475.381 42.5114C475.468 42.6553 475.581 42.7538 475.722 42.8068C475.862 42.8598 476.017 42.8864 476.188 42.8864C476.316 42.8864 476.434 42.8769 476.54 42.858C476.65 42.839 476.733 42.822 476.79 42.8068L477.136 44.4148C477.027 44.4527 476.869 44.4943 476.665 44.5398C476.464 44.5852 476.218 44.6117 475.926 44.6193C475.411 44.6345 474.947 44.5568 474.534 44.3864C474.121 44.2121 473.794 43.9432 473.551 43.5795C473.313 43.2159 473.195 42.7614 473.199 42.2159V33.6818ZM478.697 44.5V35.7727H480.754V44.5H478.697ZM479.732 34.5341C479.406 34.5341 479.125 34.4261 478.891 34.2102C478.656 33.9905 478.538 33.7273 478.538 33.4205C478.538 33.1098 478.656 32.8466 478.891 32.6307C479.125 32.411 479.406 32.3011 479.732 32.3011C480.061 32.3011 480.341 32.411 480.572 32.6307C480.807 32.8466 480.925 33.1098 480.925 33.4205C480.925 33.7273 480.807 33.9905 480.572 34.2102C480.341 34.4261 480.061 34.5341 479.732 34.5341ZM486.676 44.6705C485.824 44.6705 485.085 44.483 484.46 44.108C483.835 43.733 483.35 43.2083 483.006 42.5341C482.665 41.8598 482.494 41.072 482.494 40.1705C482.494 39.2689 482.665 38.4792 483.006 37.8011C483.35 37.1231 483.835 36.5966 484.46 36.2216C485.085 35.8466 485.824 35.6591 486.676 35.6591C487.528 35.6591 488.267 35.8466 488.892 36.2216C489.517 36.5966 490 37.1231 490.341 37.8011C490.686 38.4792 490.858 39.2689 490.858 40.1705C490.858 41.072 490.686 41.8598 490.341 42.5341C490 43.2083 489.517 43.733 488.892 44.108C488.267 44.483 487.528 44.6705 486.676 44.6705ZM486.688 43.0227C487.15 43.0227 487.536 42.8958 487.847 42.642C488.157 42.3845 488.388 42.0398 488.54 41.608C488.695 41.1761 488.773 40.6951 488.773 40.1648C488.773 39.6307 488.695 39.1477 488.54 38.7159C488.388 38.2803 488.157 37.9337 487.847 37.6761C487.536 37.4186 487.15 37.2898 486.688 37.2898C486.214 37.2898 485.82 37.4186 485.506 37.6761C485.195 37.9337 484.962 38.2803 484.807 38.7159C484.655 39.1477 484.58 39.6307 484.58 40.1648C484.58 40.6951 484.655 41.1761 484.807 41.608C484.962 42.0398 485.195 42.3845 485.506 42.642C485.82 42.8958 486.214 43.0227 486.688 43.0227ZM494.661 39.3864V44.5H492.604V35.7727H494.57V37.2557H494.672C494.873 36.767 495.193 36.3788 495.632 36.0909C496.075 35.803 496.623 35.6591 497.274 35.6591C497.876 35.6591 498.401 35.7879 498.848 36.0455C499.299 36.303 499.647 36.6761 499.893 37.1648C500.143 37.6534 500.267 38.2462 500.263 38.9432V44.5H498.206V39.2614C498.206 38.678 498.054 38.2216 497.751 37.892C497.452 37.5625 497.037 37.3977 496.507 37.3977C496.147 37.3977 495.827 37.4773 495.547 37.6364C495.27 37.7917 495.053 38.017 494.893 38.3125C494.738 38.608 494.661 38.9659 494.661 39.3864ZM509.251 38.0795L507.376 38.2841C507.323 38.0947 507.231 37.9167 507.098 37.75C506.969 37.5833 506.795 37.4489 506.575 37.3466C506.356 37.2443 506.087 37.1932 505.768 37.1932C505.34 37.1932 504.981 37.286 504.689 37.4716C504.401 37.6572 504.259 37.8977 504.263 38.1932C504.259 38.447 504.352 38.6534 504.541 38.8125C504.734 38.9716 505.053 39.1023 505.496 39.2045L506.984 39.5227C507.81 39.7008 508.424 39.983 508.825 40.3693C509.231 40.7557 509.435 41.2614 509.439 41.8864C509.435 42.4356 509.274 42.9205 508.956 43.3409C508.642 43.7576 508.204 44.0833 507.643 44.3182C507.083 44.553 506.439 44.6705 505.712 44.6705C504.643 44.6705 503.784 44.447 503.132 44C502.481 43.5492 502.092 42.9223 501.967 42.1193L503.973 41.9261C504.064 42.3201 504.257 42.6174 504.553 42.8182C504.848 43.0189 505.232 43.1193 505.706 43.1193C506.195 43.1193 506.587 43.0189 506.882 42.8182C507.181 42.6174 507.331 42.3693 507.331 42.0739C507.331 41.8239 507.234 41.6174 507.041 41.4545C506.852 41.2917 506.556 41.1667 506.155 41.0795L504.666 40.767C503.829 40.5928 503.21 40.2992 502.808 39.8864C502.407 39.4697 502.208 38.9432 502.212 38.3068C502.208 37.7689 502.354 37.303 502.649 36.9091C502.948 36.5114 503.363 36.2045 503.893 35.9886C504.428 35.7689 505.043 35.6591 505.74 35.6591C506.763 35.6591 507.568 35.8769 508.155 36.3125C508.746 36.7481 509.111 37.3371 509.251 38.0795Z" fill="#333333"/>
</svg>
