<svg width="256" height="43" fill="none" xmlns="http://www.w3.org/2000/svg"><rect y="6" width="256" height="4" rx="2" fill="#B0B0B0"/><rect y="6" width="128" height="4" rx="2" fill="#1E71F6"/><circle cx="132" cy="8" r="8" fill="#194CCC"/><path d="M128.2 43v-1.02l3.84-4.2c.46-.5.83-.93 1.12-1.3.3-.36.5-.7.65-1.03.14-.32.21-.66.21-1.02a1.89 1.89 0 0 0-1.09-1.75 2.58 2.58 0 0 0-1.14-.25c-.44 0-.83.1-1.16.28-.34.18-.59.44-.77.77a2.4 2.4 0 0 0-.27 1.16h-1.34a3.27 3.27 0 0 1 1.76-3 3.87 3.87 0 0 1 1.83-.44c.68 0 1.29.15 1.81.44a3.15 3.15 0 0 1 1.69 2.79c0 .43-.08.85-.23 1.26-.15.4-.42.86-.8 1.36-.37.5-.9 1.1-1.56 1.81l-2.61 2.8v.09h5.4V43h-7.33Z" fill="#757575"/></svg>