<svg width="672" height="137" fill="none" xmlns="http://www.w3.org/2000/svg"><path fill="#F6F6F6" d="M0 0h672v137H0z"/><rect x="208" y="66.5" width="256" height="4" rx="2" fill="#B0B0B0"/><rect x="267" y="66.5" width="84" height="4" rx="2" fill="#1E71F6"/><circle cx="275" cy="68.5" r="8" fill="#194CCC"/><circle cx="343" cy="68.5" r="8" fill="#194CCC"/><path d="M209.4 104.5V92.86h4.08c.8 0 1.48.14 2 .42.53.28.92.65 1.18 1.12.26.47.38.99.38 1.55 0 .5-.08.92-.26 1.24-.18.33-.4.59-.7.78-.28.19-.59.33-.92.42v.11c.35.02.71.15 1.07.38.36.22.66.55.9.97.25.43.37.95.37 1.56 0 .58-.13 1.1-.4 1.57-.26.47-.68.84-1.25 1.11-.57.27-1.32.41-2.24.41h-4.2Zm1.42-1.25h2.8c.91 0 1.57-.18 1.95-.53.4-.36.59-.8.59-1.31a2.12 2.12 0 0 0-1.16-1.9c-.37-.2-.81-.3-1.32-.3h-2.86v4.04Zm0-5.27h2.61c.43 0 .8-.09 1.15-.25.34-.17.62-.4.82-.7.2-.31.3-.67.3-1.08 0-.5-.17-.94-.53-1.3-.36-.36-.92-.54-1.7-.54h-2.65v3.87Zm12.47 6.7a3.74 3.74 0 0 1-3.58-2.13 5.35 5.35 0 0 1-.49-2.35c0-.89.17-1.68.5-2.36a3.7 3.7 0 0 1 3.44-2.18c.45 0 .9.07 1.34.23a3.34 3.34 0 0 1 2.08 2.08c.22.55.33 1.24.33 2.05v.57h-6.73v-1.16h5.36c0-.5-.1-.93-.3-1.32a2.23 2.23 0 0 0-2.08-1.25c-.54 0-1 .14-1.39.4-.39.26-.68.6-.9 1.02a3 3 0 0 0-.3 1.36v.77c0 .66.1 1.22.34 1.67.23.46.55.8.96 1.05.4.23.88.35 1.42.35.36 0 .67-.05.96-.15.28-.1.53-.25.74-.45.21-.21.37-.46.48-.77l1.3.37a2.99 2.99 0 0 1-1.89 1.93c-.46.18-1 .27-1.59.27Zm9.45-8.9v1.13h-4.52v-1.14h4.52Zm-3.2-2.1h1.34V102c0 .38.05.66.16.85.12.19.26.31.43.38a2.27 2.27 0 0 0 .93.07l.23-.05.27 1.2a2.74 2.74 0 0 1-1 .16 2.7 2.7 0 0 1-1.11-.24 2.22 2.22 0 0 1-.9-.75 2.14 2.14 0 0 1-.35-1.26v-8.68Zm7.2 10.82-2.66-8.73h1.4l1.9 6.69h.08l1.87-6.69h1.43l1.84 6.66h.09l1.89-6.66h1.4l-2.65 8.73H242l-1.91-6.7h-.14l-1.9 6.7h-1.32Zm14.38.18a3.74 3.74 0 0 1-3.58-2.13 5.35 5.35 0 0 1-.49-2.35c0-.89.16-1.68.5-2.36a3.7 3.7 0 0 1 3.44-2.18c.45 0 .9.07 1.34.23a3.33 3.33 0 0 1 2.08 2.08c.22.55.32 1.24.32 2.05v.57h-6.72v-1.16h5.36c0-.5-.1-.93-.3-1.32a2.22 2.22 0 0 0-2.09-1.25c-.53 0-1 .14-1.38.4-.39.26-.69.6-.9 1.02a3 3 0 0 0-.3 1.36v.77c0 .66.1 1.22.33 1.67.24.46.56.8.97 1.05.4.23.88.35 1.42.35.35 0 .67-.05.95-.15.3-.1.54-.25.75-.45.2-.21.37-.46.48-.77l1.3.37a2.99 2.99 0 0 1-1.89 1.93c-.47.18-1 .27-1.59.27Zm9.31 0a3.74 3.74 0 0 1-3.58-2.13 5.35 5.35 0 0 1-.48-2.35c0-.89.16-1.68.48-2.36a3.7 3.7 0 0 1 3.44-2.18c.46 0 .91.07 1.35.23a3.34 3.34 0 0 1 2.08 2.08c.22.55.33 1.24.33 2.05v.57h-6.73v-1.16h5.36c0-.5-.1-.93-.3-1.32a2.22 2.22 0 0 0-2.08-1.25c-.54 0-1 .14-1.39.4-.39.26-.68.6-.9 1.02a3 3 0 0 0-.3 1.36v.77c0 .66.11 1.22.34 1.67.23.46.55.8.96 1.05.4.23.88.35 1.42.35.36 0 .67-.05.96-.15a2 2 0 0 0 1.23-1.22l1.3.37c-.15.44-.38.82-.7 1.16a3.4 3.4 0 0 1-1.19.77c-.47.18-1 .27-1.6.27Zm7-5.43v5.25h-1.34v-8.73h1.3v1.37h.1c.21-.45.52-.8.94-1.07.41-.27.95-.41 1.61-.41.6 0 1.1.12 1.55.36.45.24.79.6 1.04 1.1.24.48.37 1.1.37 1.83v5.55h-1.35v-5.45c0-.69-.17-1.22-.53-1.6a1.9 1.9 0 0 0-1.47-.59c-.42 0-.8.1-1.14.28a2 2 0 0 0-.8.81c-.19.36-.28.8-.28 1.3Zm11.7-6.39h1.61l3.23 5.44h.13l3.23-5.44h1.62l-4.2 6.84v4.8h-1.42v-4.8l-4.2-6.84ZM293 104.68a3.74 3.74 0 0 1-3.58-2.13 5.35 5.35 0 0 1-.49-2.35c0-.89.17-1.68.5-2.36a3.7 3.7 0 0 1 3.44-2.18c.45 0 .9.07 1.34.23a3.34 3.34 0 0 1 2.08 2.08c.22.55.32 1.24.32 2.05v.57h-6.72v-1.16h5.36c0-.5-.1-.93-.3-1.32a2.22 2.22 0 0 0-2.08-1.25c-.54 0-1 .14-1.4.4-.38.26-.68.6-.88 1.02a3 3 0 0 0-.32 1.36v.77c0 .66.12 1.22.35 1.67.23.46.55.8.95 1.05.41.23.89.35 1.43.35.35 0 .67-.05.96-.15.28-.1.53-.25.74-.45.2-.21.37-.46.48-.77l1.3.37a2.99 2.99 0 0 1-1.89 1.93c-.47.18-1 .27-1.59.27Zm8.22.02c-.55 0-1.05-.1-1.5-.3a2.6 2.6 0 0 1-1.08-.92c-.26-.4-.4-.89-.4-1.46 0-.5.1-.9.3-1.21.2-.32.46-.56.8-.74.32-.18.68-.31 1.08-.4.4-.1.8-.16 1.21-.22l1.3-.15c.32-.04.57-.1.72-.19.15-.08.23-.23.23-.45v-.05c0-.56-.15-1-.46-1.3-.3-.31-.76-.47-1.38-.47-.64 0-1.14.14-1.5.42a2.5 2.5 0 0 0-.77.9l-1.27-.46c.22-.53.53-.94.9-1.23.39-.3.8-.51 1.25-.63a5.18 5.18 0 0 1 2.31-.08c.37.07.72.2 1.06.4.35.2.64.52.86.93.23.41.34.97.34 1.66v5.75h-1.34v-1.18h-.07a2.61 2.61 0 0 1-1.3 1.16c-.35.15-.78.22-1.29.22Zm.2-1.2c.54 0 .99-.1 1.35-.31a2.14 2.14 0 0 0 1.11-1.85v-1.23a.93.93 0 0 1-.37.2c-.2.04-.41.1-.66.13a27.76 27.76 0 0 1-1.29.17 5.1 5.1 0 0 0-.97.22c-.3.1-.55.25-.73.45-.18.2-.27.47-.27.81 0 .47.17.82.51 1.06.35.23.8.35 1.33.35Zm6.25 1v-8.73h1.3v1.32h.09c.16-.43.44-.78.86-1.05s.89-.4 1.4-.4a15.28 15.28 0 0 1 .71.02v1.36a4.01 4.01 0 0 0-.81-.09c-.43 0-.8.1-1.14.27a1.96 1.96 0 0 0-1.07 1.78v5.52h-1.34Zm14.36.16c-.75 0-1.42-.13-2-.39a3.45 3.45 0 0 1-1.4-1.07c-.34-.46-.52-1-.55-1.6h1.43c.03.37.16.69.39.96.22.27.52.48.89.63.37.14.77.22 1.22.22.5 0 .94-.09 1.33-.26.39-.18.69-.42.9-.73.23-.31.34-.67.34-1.08 0-.43-.1-.8-.32-1.13a2.1 2.1 0 0 0-.93-.77 3.56 3.56 0 0 0-1.5-.28h-.93V97.9h.93c.46 0 .87-.08 1.21-.25a1.89 1.89 0 0 0 1.13-1.77 1.8 1.8 0 0 0-1-1.71 2.4 2.4 0 0 0-1.12-.25c-.4 0-.77.08-1.13.22-.35.15-.64.36-.87.63-.22.28-.34.6-.36 1h-1.36c.02-.62.2-1.15.55-1.6.34-.47.8-.83 1.35-1.09a4.37 4.37 0 0 1 3.7.05 3.09 3.09 0 0 1 1.6 2.68 2.62 2.62 0 0 1-1.9 2.64v.09c.73.12 1.3.43 1.72.93.4.5.61 1.12.61 1.86 0 .63-.17 1.2-.51 1.7-.34.5-.8.9-1.4 1.19-.6.28-1.26.43-2.02.43Zm15.78-6.6v1.25h-5.09v-1.25h5.1Zm6.04-5.2h1.62l3.22 5.44h.14l3.23-5.44h1.61l-4.2 6.84v4.8h-1.41v-4.8l-4.2-6.84Zm13.89 11.82a3.74 3.74 0 0 1-3.58-2.13 5.35 5.35 0 0 1-.5-2.35c0-.89.17-1.68.5-2.36a3.7 3.7 0 0 1 3.44-2.18 4 4 0 0 1 1.35.23 3.33 3.33 0 0 1 2.08 2.08c.21.55.32 1.24.32 2.05v.57h-6.73v-1.16H360c0-.5-.1-.93-.3-1.32a2.22 2.22 0 0 0-2.1-1.25c-.53 0-.99.14-1.38.4-.38.26-.68.6-.89 1.02a3 3 0 0 0-.31 1.36v.77c0 .66.11 1.22.34 1.67.23.46.55.8.96 1.05.4.23.88.35 1.43.35.35 0 .67-.05.95-.15.29-.1.54-.25.75-.45.2-.21.36-.46.48-.77l1.3.37a2.9 2.9 0 0 1-.7 1.16c-.32.33-.71.58-1.19.77-.47.18-1 .27-1.6.27Zm8.22.02c-.56 0-1.06-.1-1.5-.3a2.64 2.64 0 0 1-1.08-.92c-.27-.4-.4-.89-.4-1.46 0-.5.1-.9.3-1.21.2-.32.46-.56.78-.74.33-.18.7-.31 1.1-.4.4-.1.8-.16 1.2-.22l1.3-.15c.33-.04.57-.1.72-.19.16-.08.24-.23.24-.45v-.05c0-.56-.16-1-.46-1.3-.3-.31-.77-.47-1.38-.47a2.4 2.4 0 0 0-2.28 1.32l-1.27-.46a3.08 3.08 0 0 1 2.16-1.86 5.2 5.2 0 0 1 2.3-.08c.37.07.73.2 1.07.4.34.2.63.52.86.93.22.41.34.97.34 1.66v5.75h-1.34v-1.18h-.07a2.62 2.62 0 0 1-1.3 1.16c-.36.15-.79.22-1.3.22Zm.2-1.2c.53 0 .98-.1 1.34-.31a2.13 2.13 0 0 0 1.12-1.85v-1.23a.99.99 0 0 1-.38.2c-.19.04-.4.1-.66.13a27.7 27.7 0 0 1-1.28.17c-.35.05-.68.12-.98.22-.3.1-.54.25-.73.45-.18.2-.27.47-.27.81 0 .47.17.82.52 1.06.35.23.79.35 1.32.35Zm6.25 1v-8.73h1.29v1.32h.1c.15-.43.44-.78.86-1.05.41-.27.88-.4 1.4-.4a15.28 15.28 0 0 1 .7.02v1.36a3.93 3.93 0 0 0-.81-.09c-.42 0-.8.1-1.14.27a1.95 1.95 0 0 0-1.07 1.78v5.52h-1.33Zm10.15-2.39v-1.16l5.12-8.09h.84v1.8h-.57l-3.86 6.11v.1h6.88v1.24h-8.4Zm5.48 2.39V92.86h1.34v11.64h-1.34Z" fill="#757575"/><path d="M213.1 44.5h-3.95V32.86h4.02c1.16 0 2.15.24 2.98.7a4.67 4.67 0 0 1 1.92 2c.44.86.67 1.9.67 3.11s-.23 2.25-.68 3.13a4.66 4.66 0 0 1-1.94 2c-.84.47-1.85.7-3.03.7Zm-1.84-1.82h1.73a4.2 4.2 0 0 0 2.03-.45c.54-.3.95-.74 1.22-1.33.27-.6.4-1.34.4-2.23 0-.89-.13-1.63-.4-2.22a2.79 2.79 0 0 0-1.21-1.32 4.01 4.01 0 0 0-1.98-.44h-1.8v7.99Zm9.4 1.82v-8.73h2.05v8.73h-2.06Zm1.03-9.97c-.33 0-.61-.1-.85-.32a1.04 1.04 0 0 1-.35-.79c0-.31.12-.57.35-.79.24-.22.52-.33.84-.33.33 0 .61.11.85.33a1.07 1.07 0 0 1 0 1.58 1.2 1.2 0 0 1-.84.32Zm7.55 1.24v1.6h-5.16v-1.6h5.16Zm-3.87 8.73v-9.55c0-.59.13-1.08.37-1.47.24-.39.57-.68.99-.87.4-.2.87-.3 1.37-.3a4.75 4.75 0 0 1 1.56.25l-.4 1.59a3.58 3.58 0 0 0-.78-.13c-.38 0-.65.1-.81.28-.16.18-.23.44-.23.79v9.41h-2.07Zm9.9-8.73v1.6h-5.16v-1.6h5.16Zm-3.87 8.73v-9.55c0-.59.13-1.08.37-1.47.24-.39.57-.68.99-.87.41-.2.87-.3 1.37-.3a4.75 4.75 0 0 1 1.56.25l-.4 1.59a3.61 3.61 0 0 0-.78-.13c-.38 0-.65.1-.81.28-.16.18-.23.44-.23.79v9.41h-2.06Zm5.48 0v-8.73h2.06v8.73h-2.06Zm1.04-9.97c-.33 0-.6-.1-.84-.32a1.04 1.04 0 0 1-.35-.79c0-.31.11-.57.35-.79.23-.22.51-.33.84-.33.33 0 .6.11.84.33a1.07 1.07 0 0 1 0 1.58c-.23.22-.51.32-.84.32Zm6.94 10.14a3.83 3.83 0 0 1-3.68-2.16 5.23 5.23 0 0 1-.5-2.34c0-.89.17-1.67.51-2.35.34-.68.82-1.2 1.45-1.59a4.16 4.16 0 0 1 2.21-.57c.71 0 1.34.13 1.88.4a3.2 3.2 0 0 1 1.87 2.74h-1.96a1.88 1.88 0 0 0-.57-1.06c-.3-.28-.7-.42-1.19-.42-.42 0-.79.11-1.1.34-.32.22-.57.54-.75.97a3.8 3.8 0 0 0-.26 1.5c0 .6.08 1.11.26 1.54.17.42.42.75.73.98.32.23.7.34 1.12.34.3 0 .58-.05.81-.17.25-.11.45-.28.61-.5a2 2 0 0 0 .34-.8h1.96a3.24 3.24 0 0 1-1.83 2.76 4.3 4.3 0 0 1-1.9.4Zm11-3.84v-5.06h2.05v8.73h-2v-1.55h-.09c-.2.49-.52.89-.97 1.2-.44.3-1 .46-1.65.46a2.65 2.65 0 0 1-2.54-1.5 3.94 3.94 0 0 1-.37-1.78v-5.56h2.06v5.24c0 .55.15 1 .45 1.32.3.33.7.49 1.2.49a1.88 1.88 0 0 0 1.57-.88c.2-.3.28-.67.28-1.11Zm4.17-7.97h2.05V42c0 .33.05.56.15.7.1.14.27.2.52.2a2.46 2.46 0 0 0 .5-.07l.34 1.56a4.1 4.1 0 0 1-1.11.17c-.83.02-1.45-.15-1.85-.53-.4-.37-.6-.93-.6-1.7v-9.47Zm8.95 2.91v1.6h-5.02v-1.6h5.02Zm-3.78-2.09h2.06v8.2c0 .27.04.48.12.63.09.15.2.24.34.3.14.05.3.08.47.08a2.02 2.02 0 0 0 .6-.08l.35 1.6a4.56 4.56 0 0 1-1.21.2c-.52.02-.98-.05-1.4-.22a2.17 2.17 0 0 1-.98-.81 2.4 2.4 0 0 1-.35-1.36v-8.54Zm6.78 14.1a4.17 4.17 0 0 1-1.35-.22l.48-1.6c.3.08.57.12.8.12.24 0 .44-.08.62-.22s.34-.38.46-.7l.18-.48-3.17-8.9h2.19l2 6.58h.1l2.01-6.59h2.2l-3.5 9.79c-.16.46-.38.85-.65 1.18-.27.34-.6.6-.99.77a3.4 3.4 0 0 1-1.38.26Z" fill="#333"/></svg>