<svg width="260" height="68" fill="none" xmlns="http://www.w3.org/2000/svg"><rect y="6" width="256" height="4" rx="2" fill="#B0B0B0"/><rect y="6" width="84" height="4" rx="2" fill="#1E71F6"/><circle cx="76" cy="8" r="8" fill="#194CCC"/><path d="M1.4 28.36h1.7l3.95 9.66h.13l3.96-9.66h1.68V40H11.5v-8.84h-.11L7.75 40H6.48l-3.64-8.84h-.11V40H1.4V28.36ZM15.47 40v-8.73h1.34V40h-1.34Zm.68-10.18a.95.95 0 0 1-.67-.27.86.86 0 0 1-.28-.64c0-.25.1-.46.28-.64a.95.95 0 0 1 .67-.27c.26 0 .49.09.67.27a.85.85 0 0 1 0 1.28.93.93 0 0 1-.67.27Zm4.46 4.93V40h-1.34v-8.73h1.3v1.37h.1c.21-.45.52-.8.94-1.07.42-.27.95-.41 1.61-.41.6 0 1.11.12 1.55.36.45.24.8.6 1.04 1.1.24.48.37 1.1.37 1.83V40h-1.34v-5.45c0-.69-.18-1.22-.54-1.6a1.9 1.9 0 0 0-1.46-.59c-.43 0-.81.1-1.15.28a2 2 0 0 0-.8.81c-.18.36-.28.8-.28 1.3ZM28.62 40v-8.73h1.34V40h-1.34Zm.68-10.18a.95.95 0 0 1-.68-.27.86.86 0 0 1-.27-.64c0-.25.09-.46.27-.64a.95.95 0 0 1 .68-.27c.26 0 .48.09.67.27.19.18.28.39.28.64s-.09.46-.28.64a.93.93 0 0 1-.67.27ZM32.41 40v-8.73h1.3v1.37h.11c.19-.47.48-.83.88-1.09.41-.26.9-.4 1.46-.4.58 0 1.06.14 1.44.4.39.26.69.62.9 1.09h.1a2.6 2.6 0 0 1 1-1.08c.45-.27.99-.4 1.61-.4.78 0 1.42.24 1.91.73.5.49.75 1.24.75 2.27V40h-1.34v-5.84c0-.64-.18-1.1-.53-1.38a1.96 1.96 0 0 0-1.24-.42c-.62 0-1.1.19-1.43.56-.34.37-.5.83-.5 1.4V40h-1.37v-5.98c0-.5-.16-.9-.48-1.2-.32-.3-.74-.46-1.25-.46-.35 0-.67.1-.97.28a2.16 2.16 0 0 0-1 1.91V40H32.4Zm19.41-3.57v-5.16h1.34V40h-1.34v-1.48h-.09c-.2.45-.52.82-.95 1.13-.44.31-.98.46-1.64.46-.55 0-1.03-.12-1.46-.35a2.5 2.5 0 0 1-1-1.1 4.14 4.14 0 0 1-.36-1.84v-5.55h1.34v5.46c0 .63.18 1.14.54 1.52.36.38.81.57 1.37.57a2.28 2.28 0 0 0 2.25-2.39Zm3.8 3.57v-8.73h1.3v1.37h.1c.19-.47.48-.83.89-1.09.4-.26.89-.4 1.46-.4s1.05.14 1.44.4c.38.26.68.62.9 1.09h.09a2.6 2.6 0 0 1 1-1.08c.45-.27.99-.4 1.61-.4.78 0 1.42.24 1.92.73s.74 1.24.74 2.27V40h-1.34v-5.84c0-.64-.17-1.1-.53-1.38a1.96 1.96 0 0 0-1.24-.42c-.61 0-1.09.19-1.43.56-.33.37-.5.83-.5 1.4V40h-1.37v-5.98c0-.5-.16-.9-.48-1.2a1.89 1.89 0 0 0-2.22-.18c-.3.19-.54.45-.73.77-.18.33-.27.7-.27 1.14V40h-1.34Zm21.95.18a3.8 3.8 0 0 1-2.11-.58 3.78 3.78 0 0 1-1.37-1.6 5.4 5.4 0 0 1-.47-2.32c0-.88.16-1.67.48-2.34a3.7 3.7 0 0 1 3.44-2.18c.62 0 1.17.11 1.67.34a2.98 2.98 0 0 1 1.8 2.39h-1.35a2.04 2.04 0 0 0-2.1-1.52 2.4 2.4 0 0 0-2.28 1.54 4.23 4.23 0 0 0-.32 1.73c0 .67.1 1.26.31 1.76.22.5.52.89.91 1.16.4.28.86.42 1.39.42.35 0 .66-.06.95-.18a1.96 1.96 0 0 0 1.14-1.35H81a3.1 3.1 0 0 1-1.74 2.37 3.8 3.8 0 0 1-1.69.36Zm8.94 0a3.8 3.8 0 0 1-2.08-.56 3.84 3.84 0 0 1-1.38-1.57 5.32 5.32 0 0 1-.5-2.37c0-.9.17-1.7.5-2.38.33-.68.8-1.2 1.38-1.58a3.8 3.8 0 0 1 2.08-.56c.78 0 1.47.19 2.07.56.59.38 1.05.9 1.38 1.58.34.68.5 1.47.5 2.38 0 .9-.16 1.7-.5 2.37-.33.67-.79 1.2-1.38 1.57-.6.37-1.28.56-2.07.56Zm0-1.2c.6 0 1.09-.16 1.47-.46.4-.31.68-.71.86-1.21a4.8 4.8 0 0 0 0-3.26 2.7 2.7 0 0 0-.86-1.22 2.28 2.28 0 0 0-1.47-.47c-.6 0-1.1.16-1.48.47-.39.31-.67.72-.86 1.22a4.8 4.8 0 0 0 0 3.26c.19.5.47.9.86 1.2.39.31.88.47 1.48.47Zm6 1.02v-8.73h1.3v1.37h.1c.19-.47.48-.83.89-1.09.4-.26.89-.4 1.46-.4s1.05.14 1.44.4c.38.26.68.62.9 1.09h.09a2.6 2.6 0 0 1 1-1.08c.45-.27.99-.4 1.61-.4.78 0 1.42.24 1.92.73s.74 1.24.74 2.27V40h-1.34v-5.84c0-.64-.17-1.1-.53-1.38a1.96 1.96 0 0 0-1.24-.42c-.61 0-1.09.19-1.43.56-.33.37-.5.83-.5 1.4V40h-1.37v-5.98c0-.5-.16-.9-.48-1.2a1.89 1.89 0 0 0-2.22-.18c-.3.19-.54.45-.73.77-.18.33-.27.7-.27 1.14V40H92.5Zm13.9 3.27v-12h1.3v1.39h.16l.4-.58c.19-.24.44-.45.77-.64s.78-.28 1.35-.28a3.46 3.46 0 0 1 3.26 2.11c.31.68.47 1.47.47 2.39 0 .92-.16 1.72-.47 2.4a3.42 3.42 0 0 1-3.23 2.12 2.8 2.8 0 0 1-1.35-.28 2.5 2.5 0 0 1-.78-.64 8.77 8.77 0 0 1-.42-.6h-.11v4.61h-1.34Zm1.32-7.63c0 .66.1 1.24.3 1.74.19.5.47.9.84 1.18.37.28.82.42 1.36.42a2.2 2.2 0 0 0 1.4-.45c.39-.3.67-.7.86-1.2.2-.5.29-1.07.29-1.7 0-.6-.1-1.16-.29-1.65a2.27 2.27 0 0 0-2.26-1.62 2.24 2.24 0 0 0-2.21 1.57 4.73 4.73 0 0 0-.29 1.7Zm9.78-7.28V40h-1.34V28.36h1.34Zm6.11 11.82a3.74 3.74 0 0 1-3.58-2.13 5.34 5.34 0 0 1-.49-2.35c0-.89.17-1.68.5-2.36a3.7 3.7 0 0 1 3.44-2.18c.45 0 .9.07 1.34.23a3.33 3.33 0 0 1 2.08 2.08c.22.55.32 1.24.32 2.05v.57h-6.72v-1.16h5.36c0-.5-.1-.93-.3-1.32a2.22 2.22 0 0 0-2.09-1.25c-.53 0-1 .14-1.38.4-.39.26-.69.6-.9 1.02a3 3 0 0 0-.3 1.36v.77c0 .66.1 1.22.33 1.68.23.45.56.8.96 1.03.41.24.89.36 1.43.36.35 0 .67-.05.95-.15.3-.1.54-.25.75-.45.2-.21.37-.46.48-.77l1.3.37a2.99 2.99 0 0 1-1.89 1.93c-.47.18-1 .27-1.59.27Zm9.45-8.9v1.13h-4.52v-1.14h4.52Zm-3.2-2.1h1.34v8.32c0 .38.05.66.16.85.11.19.26.31.43.38.18.06.37.09.56.09.15 0 .27 0 .37-.02l.23-.05.27 1.2a2.73 2.73 0 0 1-1 .16 2.7 2.7 0 0 1-1.11-.24 2.21 2.21 0 0 1-.9-.74 2.14 2.14 0 0 1-.35-1.27v-8.68ZM135.09 40v-8.73h1.34V40h-1.34Zm.68-10.18a.95.95 0 0 1-.68-.27.86.86 0 0 1-.28-.64c0-.25.1-.46.28-.64a.95.95 0 0 1 .68-.27c.26 0 .48.09.67.27.19.18.28.39.28.64s-.1.46-.28.64a.93.93 0 0 1-.67.27Zm6.66 10.36a3.8 3.8 0 0 1-2.08-.56 3.84 3.84 0 0 1-1.38-1.57 5.32 5.32 0 0 1-.5-2.37c0-.9.17-1.7.5-2.38.33-.68.8-1.2 1.38-1.58a3.8 3.8 0 0 1 2.08-.56c.79 0 1.48.19 2.07.56.6.38 1.05.9 1.38 1.58.34.68.5 1.47.5 2.38 0 .9-.16 1.7-.5 2.37-.33.67-.79 1.2-1.38 1.57-.6.37-1.28.56-2.07.56Zm0-1.2c.6 0 1.09-.16 1.48-.46.38-.31.67-.71.85-1.21.19-.5.28-1.04.28-1.63 0-.58-.09-1.13-.28-1.63-.18-.5-.47-.91-.85-1.22a2.28 2.28 0 0 0-1.48-.47c-.6 0-1.1.16-1.48.47-.38.31-.67.72-.86 1.22a4.8 4.8 0 0 0 0 3.26c.19.5.47.9.86 1.2.39.31.88.47 1.48.47Zm7.34-4.23V40h-1.34v-8.73h1.3v1.37h.1c.21-.45.52-.8.94-1.07.42-.27.96-.41 1.61-.41.6 0 1.11.12 1.56.36.44.24.78.6 1.03 1.1.25.48.37 1.1.37 1.83V40H154v-5.45c0-.69-.18-1.22-.54-1.6a1.9 1.9 0 0 0-1.46-.59c-.43 0-.81.1-1.15.28a2 2 0 0 0-.79.81c-.2.36-.29.8-.29 1.3Zm16.06 5.43a3.8 3.8 0 0 1-2.07-.56 3.84 3.84 0 0 1-1.38-1.57 5.32 5.32 0 0 1-.5-2.37c0-.9.16-1.7.5-2.38a3.8 3.8 0 0 1 1.38-1.58 3.8 3.8 0 0 1 2.08-.56c.78 0 1.47.19 2.06.56.6.38 1.06.9 1.39 1.58.33.68.5 1.47.5 2.38 0 .9-.17 1.7-.5 2.37a3.8 3.8 0 0 1-1.39 1.57 3.8 3.8 0 0 1-2.06.56Zm0-1.2c.6 0 1.1-.16 1.48-.46.39-.31.68-.71.86-1.21a4.8 4.8 0 0 0 0-3.26 2.7 2.7 0 0 0-.86-1.22 2.28 2.28 0 0 0-1.47-.47c-.6 0-1.1.16-1.48.47-.39.31-.67.72-.86 1.22a4.77 4.77 0 0 0 0 3.26c.19.5.47.9.86 1.2.38.31.88.47 1.47.47Zm9.9-7.7v1.13h-4.71v-1.14h4.7Zm-3.3 8.72v-9.93a2.07 2.07 0 0 1 1.26-2 3.36 3.36 0 0 1 2.46-.02l-.38 1.15a6.25 6.25 0 0 0-.29-.08 1.72 1.72 0 0 0-.46-.05c-.45 0-.77.11-.96.33-.2.23-.3.55-.3.99V40h-1.33Zm11.01-5.25V40h-1.34V28.36h1.34v4.28h.12c.2-.45.5-.81.92-1.08.41-.27.96-.4 1.65-.4.59 0 1.11.12 1.56.36.44.23.8.6 1.04 1.08.25.49.37 1.1.37 1.85V40h-1.34v-5.45c0-.7-.18-1.23-.54-1.61a1.93 1.93 0 0 0-1.48-.58c-.44 0-.84.1-1.18.28-.35.19-.62.46-.82.81-.2.36-.3.8-.3 1.3Zm11.66 5.43a3.8 3.8 0 0 1-2.07-.56c-.6-.38-1.06-.9-1.39-1.57a5.32 5.32 0 0 1-.5-2.37c0-.9.17-1.7.5-2.38.33-.68.8-1.2 1.39-1.58a3.8 3.8 0 0 1 2.07-.56c.79 0 1.48.19 2.07.56.6.38 1.06.9 1.39 1.58.33.68.5 1.47.5 2.38 0 .9-.17 1.7-.5 2.37a3.78 3.78 0 0 1-3.45 2.14Zm0-1.2c.6 0 1.1-.16 1.48-.46.38-.31.67-.71.86-1.21.18-.5.27-1.04.27-1.63a4.8 4.8 0 0 0-.27-1.63c-.19-.5-.48-.91-.86-1.22a2.28 2.28 0 0 0-1.48-.47c-.6 0-1.09.16-1.48.47-.38.31-.67.72-.85 1.22-.19.5-.28 1.05-.28 1.63 0 .59.09 1.13.28 1.63.18.5.47.9.85 1.2.39.31.88.47 1.48.47Zm6 1.02v-8.73h1.3v1.37h.11c.18-.47.48-.83.88-1.09.4-.26.9-.4 1.46-.4.58 0 1.06.14 1.44.4.39.26.69.62.9 1.09h.1c.22-.45.55-.81 1-1.08.45-.27.98-.4 1.6-.4.79 0 1.43.24 1.92.73.5.49.75 1.24.75 2.27V40h-1.34v-5.84c0-.64-.18-1.1-.53-1.38a1.96 1.96 0 0 0-1.25-.42c-.61 0-1.09.19-1.42.56-.34.37-.5.83-.5 1.4V40h-1.37v-5.98c0-.5-.16-.9-.49-1.2-.32-.3-.73-.46-1.24-.46a1.92 1.92 0 0 0-1.7 1.05c-.19.33-.28.7-.28 1.14V40h-1.34Zm17.57.18a3.74 3.74 0 0 1-3.58-2.13 5.34 5.34 0 0 1-.5-2.35c0-.89.17-1.68.5-2.36a3.7 3.7 0 0 1 3.44-2.18c.46 0 .9.07 1.35.23a3.34 3.34 0 0 1 2.08 2.08c.21.55.32 1.24.32 2.05v.57h-6.73v-1.16h5.37c0-.5-.1-.93-.3-1.32a2.23 2.23 0 0 0-2.09-1.25 2.53 2.53 0 0 0-2.28 1.42 3 3 0 0 0-.31 1.36v.77c0 .66.11 1.22.34 1.68.23.45.55.8.96 1.03.41.24.89.36 1.43.36.35 0 .67-.05.95-.15.29-.1.54-.25.75-.45.2-.21.37-.46.48-.77l1.3.37a2.9 2.9 0 0 1-.7 1.16c-.31.33-.71.58-1.19.77-.47.18-1 .27-1.6.27Zm7.63-.18-2.66-8.73h1.4l1.9 6.68h.09l1.86-6.68h1.43l1.84 6.66h.1l1.88-6.66h1.4L232.9 40h-1.32l-1.9-6.7h-.14l-1.91 6.7h-1.32Zm14.27.18a3.8 3.8 0 0 1-2.07-.56c-.6-.38-1.06-.9-1.4-1.57a5.33 5.33 0 0 1-.48-2.37c0-.9.16-1.7.49-2.38.33-.68.8-1.2 1.39-1.58a3.8 3.8 0 0 1 2.07-.56 3.67 3.67 0 0 1 3.45 2.14c.34.68.5 1.47.5 2.38 0 .9-.16 1.7-.5 2.37-.33.67-.79 1.2-1.38 1.57-.6.37-1.28.56-2.07.56Zm0-1.2c.6 0 1.1-.16 1.48-.46.38-.31.67-.71.85-1.21.19-.5.28-1.04.28-1.63 0-.58-.09-1.13-.28-1.63-.18-.5-.47-.91-.85-1.22a2.28 2.28 0 0 0-1.48-.47c-.6 0-1.1.16-1.48.47-.38.31-.67.72-.86 1.22a4.7 4.7 0 0 0-.27 1.63c0 .59.09 1.13.27 1.63.19.5.48.9.86 1.2.39.31.88.47 1.48.47Zm6 1.02v-8.73h1.3v1.32h.09c.16-.43.44-.78.86-1.05s.89-.4 1.41-.4a15.13 15.13 0 0 1 .7.02v1.36a4.07 4.07 0 0 0-.81-.09c-.43 0-.8.1-1.14.27a1.96 1.96 0 0 0-1.07 1.78V40h-1.34Zm7.2-3.18-.02-1.66h.27l3.82-3.89h1.66l-4.07 4.12h-.11l-1.55 1.43ZM252.52 40V28.36h1.34V40h-1.34Zm5.55 0-3.4-4.32.95-.93 4.15 5.25h-1.7ZM1.41 64V52.36h1.34v4.3h.11l.41-.58c.18-.24.43-.45.76-.64.34-.19.79-.28 1.36-.28a3.46 3.46 0 0 1 3.25 2.11c.32.68.47 1.47.47 2.39 0 .92-.15 1.72-.47 2.4a3.42 3.42 0 0 1-3.23 2.12c-.56 0-1.01-.1-1.35-.28a2.5 2.5 0 0 1-.78-.64 8.61 8.61 0 0 1-.42-.6H2.7V64H1.4Zm1.32-4.36c0 .66.1 1.24.29 1.74.19.5.47.9.84 1.18.37.28.83.42 1.37.42a2.2 2.2 0 0 0 1.4-.45c.38-.3.66-.7.85-1.2.2-.5.3-1.07.3-1.7 0-.6-.1-1.16-.3-1.65-.18-.5-.46-.9-.84-1.18a2.22 2.22 0 0 0-1.41-.44A2.24 2.24 0 0 0 3 57.93a4.72 4.72 0 0 0-.28 1.7Zm8.99 7.63a2.93 2.93 0 0 1-.98-.16l.34-1.18c.33.09.61.12.86.1.25-.03.47-.14.67-.34.2-.2.37-.52.54-.96l.25-.68-3.23-8.78h1.46l2.4 6.96h.1l2.4-6.96H18l-3.7 10c-.17.45-.38.83-.63 1.12-.24.3-.53.52-.85.67-.33.14-.69.21-1.1.21Zm16.33-12v1.14h-4.52v-1.14h4.52Zm-3.2-2.09h1.34v8.32c0 .38.06.66.17.85.1.19.25.31.43.38.18.06.36.09.56.09.15 0 .27 0 .36-.02l.23-.05.27 1.2a2.73 2.73 0 0 1-1 .16 2.7 2.7 0 0 1-1.11-.24 2.21 2.21 0 0 1-.9-.74 2.14 2.14 0 0 1-.35-1.27v-8.68Zm6.75 5.57V64h-1.34V52.36h1.34v4.28h.11c.2-.45.51-.81.92-1.08.42-.27.97-.4 1.65-.4.6 0 1.12.12 1.56.36.45.23.8.6 1.04 1.08.25.49.38 1.1.38 1.85V64h-1.34v-5.45c0-.7-.18-1.23-.54-1.61a1.93 1.93 0 0 0-1.49-.58c-.43 0-.83.1-1.18.28a2.2 2.2 0 0 0-.82.81c-.2.36-.3.8-.3 1.3Zm11.77 5.43a3.74 3.74 0 0 1-3.58-2.12 5.35 5.35 0 0 1-.49-2.36c0-.89.17-1.68.5-2.36a3.7 3.7 0 0 1 3.44-2.18c.45 0 .9.07 1.34.23a3.34 3.34 0 0 1 2.08 2.08c.22.55.32 1.24.32 2.05v.57h-6.72v-1.16h5.36c0-.5-.1-.93-.3-1.32a2.23 2.23 0 0 0-2.09-1.25c-.53 0-1 .14-1.38.4-.39.26-.69.6-.9 1.02a3 3 0 0 0-.3 1.36v.77c0 .66.1 1.22.33 1.68a2.52 2.52 0 0 0 2.39 1.39c.35 0 .67-.05.96-.15.28-.1.53-.25.74-.45.2-.21.37-.46.48-.77l1.3.37a2.99 2.99 0 0 1-1.89 1.93c-.47.18-1 .27-1.59.27Zm16.34-6.95-1.2.34c-.08-.2-.2-.4-.34-.59a1.6 1.6 0 0 0-.6-.47 2.15 2.15 0 0 0-.95-.2c-.54 0-.98.13-1.34.38-.35.24-.53.55-.53.92 0 .34.12.6.37.8.24.19.62.35 1.13.48l1.3.31c.78.2 1.36.48 1.74.87.38.39.58.89.58 1.5 0 .5-.15.95-.44 1.34-.28.4-.68.7-1.19.93-.51.23-1.1.34-1.78.34-.9 0-1.63-.2-2.21-.58a2.57 2.57 0 0 1-1.11-1.7l1.27-.3c.12.46.35.81.69 1.05.34.23.78.35 1.33.35a2.5 2.5 0 0 0 1.5-.4c.36-.27.55-.59.55-.96 0-.3-.1-.56-.32-.77-.21-.2-.54-.36-.98-.46l-1.45-.34a3.47 3.47 0 0 1-1.76-.88c-.37-.4-.56-.9-.56-1.5 0-.5.14-.94.42-1.31.28-.38.66-.68 1.14-.9a4 4 0 0 1 1.65-.32c.86 0 1.54.19 2.03.57.5.38.85.88 1.06 1.5Zm5.97-1.96v1.14h-4.52v-1.14h4.52Zm-3.2-2.09h1.34v8.32c0 .38.05.66.16.85.11.19.26.31.43.38.18.06.37.09.56.09.15 0 .27 0 .37-.02l.23-.05.27 1.2a2.73 2.73 0 0 1-1 .16 2.7 2.7 0 0 1-1.12-.24 2.21 2.21 0 0 1-.9-.74 2.14 2.14 0 0 1-.35-1.27v-8.68Zm10.72 7.25v-5.16h1.34V64H73.2v-1.48h-.1a2.74 2.74 0 0 1-2.59 1.59 3 3 0 0 1-1.45-.35 2.5 2.5 0 0 1-1-1.1 4.14 4.14 0 0 1-.36-1.84v-5.55h1.34v5.46c0 .63.17 1.14.53 1.52.36.38.82.57 1.38.57a2.28 2.28 0 0 0 2.25-2.39Zm7.09 3.75a3.42 3.42 0 0 1-3.23-2.12 5.67 5.67 0 0 1-.48-2.4c0-.92.16-1.71.48-2.39.31-.67.75-1.2 1.3-1.56a3.5 3.5 0 0 1 1.95-.55c.57 0 1.02.1 1.35.28.33.19.58.4.76.64.18.23.32.43.41.58h.12v-4.3h1.34V64h-1.3v-1.34h-.16c-.1.16-.23.36-.42.6a2.5 2.5 0 0 1-.78.64 2.8 2.8 0 0 1-1.34.28Zm.18-1.2c.54 0 1-.14 1.36-.42.38-.29.66-.68.85-1.18.2-.5.29-1.08.29-1.74 0-.66-.1-1.23-.28-1.71-.2-.5-.47-.88-.84-1.15a2.24 2.24 0 0 0-1.38-.42c-.57 0-1.04.15-1.42.44a2.6 2.6 0 0 0-.85 1.18 4.77 4.77 0 0 0-.28 1.66c0 .62.1 1.18.29 1.69.2.5.48.9.85 1.2.38.3.85.45 1.41.45Zm10.12 1.2a3.74 3.74 0 0 1-3.58-2.12 5.35 5.35 0 0 1-.49-2.36c0-.89.16-1.68.49-2.36a3.7 3.7 0 0 1 3.44-2.18c.46 0 .9.07 1.35.23a3.34 3.34 0 0 1 2.08 2.08c.22.55.32 1.24.32 2.05v.57h-6.72v-1.16h5.36c0-.5-.1-.93-.3-1.32a2.23 2.23 0 0 0-2.09-1.25c-.53 0-1 .14-1.38.4-.39.26-.69.6-.9 1.02a3 3 0 0 0-.3 1.36v.77c0 .66.1 1.22.33 1.68.23.45.55.8.96 1.03.41.24.89.36 1.43.36.35 0 .67-.05.95-.15.3-.1.54-.25.75-.45.2-.21.37-.46.48-.77l1.3.37a2.9 2.9 0 0 1-.7 1.16c-.31.33-.71.58-1.18.77-.48.18-1.01.27-1.6.27Zm7-5.43V64h-1.35v-8.73h1.3v1.37h.11c.2-.45.52-.8.93-1.07.42-.27.96-.41 1.62-.41.59 0 1.1.12 1.55.36.44.24.79.6 1.03 1.1.25.48.37 1.1.37 1.83V64h-1.34v-5.45c0-.69-.18-1.22-.53-1.6a1.9 1.9 0 0 0-1.47-.59c-.43 0-.8.1-1.15.28a2 2 0 0 0-.79.81c-.19.36-.29.8-.29 1.3Zm11.8-3.48v1.14h-4.52v-1.14h4.53Zm-3.2-2.09h1.34v8.32c0 .38.06.66.17.85.11.19.26.31.43.38.18.06.37.09.56.09.15 0 .27 0 .37-.02l.22-.05.28 1.2a2.73 2.73 0 0 1-1 .16 2.7 2.7 0 0 1-1.12-.24 2.21 2.21 0 0 1-.9-.74 2.14 2.14 0 0 1-.35-1.27v-8.68Zm6.2 10.91a.99.99 0 0 1-.72-.3.99.99 0 0 1-.3-.72c0-.28.1-.52.3-.72.2-.2.44-.3.72-.3.28 0 .52.1.72.3.2.2.3.44.3.72a1.06 1.06 0 0 1-.51.89.97.97 0 0 1-.5.13Zm0-6.48a.99.99 0 0 1-.72-.3.99.99 0 0 1-.3-.72c0-.28.1-.52.3-.72.2-.2.44-.3.72-.3.28 0 .52.1.72.3.2.2.3.44.3.72a1.06 1.06 0 0 1-.51.89.97.97 0 0 1-.5.13Zm11.84 6.55c-.75 0-1.42-.13-2-.39a3.44 3.44 0 0 1-1.4-1.07c-.34-.46-.52-1-.55-1.6h1.43c.03.37.16.69.38.96.23.27.53.48.9.63.36.15.77.22 1.22.22.5 0 .94-.09 1.33-.26.38-.18.69-.42.9-.73.23-.31.34-.67.34-1.08a2.02 2.02 0 0 0-1.25-1.9 3.63 3.63 0 0 0-1.5-.28h-.94V57.4h.94c.46 0 .86-.08 1.21-.25.35-.17.63-.4.83-.7.2-.3.3-.66.3-1.07a2 2 0 0 0-.27-1.03c-.17-.3-.41-.52-.73-.68a2.39 2.39 0 0 0-1.12-.25c-.4 0-.78.08-1.13.22-.36.15-.64.36-.87.63-.22.28-.34.6-.36 1h-1.36c.02-.62.2-1.15.55-1.61.34-.46.8-.82 1.35-1.08a4.37 4.37 0 0 1 3.7.05 3.08 3.08 0 0 1 1.6 2.68 2.62 2.62 0 0 1-1.9 2.64v.09c.73.12 1.3.43 1.71.93.41.5.62 1.12.62 1.86 0 .63-.17 1.2-.52 1.7-.34.5-.8.9-1.4 1.19-.58.29-1.26.43-2.01.43Zm10.05 0c-.85 0-1.58-.23-2.19-.7a4.36 4.36 0 0 1-1.38-2.04 9.7 9.7 0 0 1-.47-3.24c0-1.26.16-2.33.47-3.22a4.4 4.4 0 0 1 1.39-2.05c.6-.47 1.33-.7 2.18-.7.85 0 1.57.23 2.18.7.6.47 1.07 1.16 1.38 2.05.33.89.49 1.96.49 3.22 0 1.27-.16 2.35-.48 3.24a4.37 4.37 0 0 1-1.38 2.04c-.6.47-1.33.7-2.19.7Zm0-1.25c.85 0 1.5-.41 1.98-1.23.47-.82.7-1.98.7-3.5 0-1-.1-1.86-.32-2.57a3.53 3.53 0 0 0-.92-1.62c-.4-.37-.88-.56-1.44-.56-.84 0-1.5.42-1.97 1.25a7.12 7.12 0 0 0-.71 3.5c0 1 .1 1.87.32 2.57.21.7.52 1.24.91 1.6.4.38.89.56 1.45.56Zm12.14-1.1v-.6c0-.43.09-.82.26-1.17.18-.36.44-.64.77-.85.34-.22.76-.33 1.24-.33.5 0 .9.11 1.24.33.33.21.58.5.75.85.17.35.26.74.26 1.16v.62c0 .42-.09.81-.26 1.17a2.06 2.06 0 0 1-1.99 1.17 2.1 2.1 0 0 1-2.01-1.17 2.63 2.63 0 0 1-.26-1.17Zm1.16-.6v.6c0 .36.08.68.25.96.16.27.45.41.86.41.4 0 .68-.14.84-.41.17-.28.25-.6.25-.95v-.62c0-.35-.08-.66-.24-.94-.16-.28-.44-.42-.85-.42-.4 0-.68.14-.86.42-.17.28-.25.6-.25.94Zm-6.96-6.05v-.61c0-.43.09-.82.26-1.17.18-.36.44-.64.78-.85.34-.22.75-.33 1.24-.33s.9.11 1.23.33c.34.21.59.5.76.85.17.35.26.74.26 1.17v.6c0 .43-.1.82-.27 1.18a2.07 2.07 0 0 1-1.98 1.17 2.1 2.1 0 0 1-2.01-1.17 2.62 2.62 0 0 1-.27-1.17Zm1.16-.61v.6c0 .36.09.68.25.96.17.27.46.41.87.41.4 0 .67-.14.84-.41.16-.28.25-.6.25-.95v-.61c0-.36-.08-.67-.24-.95-.16-.28-.45-.42-.85-.42-.4 0-.69.14-.86.42-.17.28-.26.6-.26.95Zm-.73 9.45 8-11.64h1.3l-8 11.64h-1.3Z" fill="#757575"/></svg>