<svg width="80" height="32" fill="none" xmlns="http://www.w3.org/2000/svg"><path d="M23.33 21.67h-8a1 1 0 0 1-1-1 1 1 0 0 1 1-1h8a1 1 0 0 1 1 1 1 1 0 0 1-1 1ZM26 27H15.33a1 1 0 0 1-1-1 1 1 0 0 1 1-1H26a1 1 0 0 1 1 1 1 1 0 0 1-1 1Zm-5.33-10.67h-5.33a1 1 0 0 1-1-1 1 1 0 0 1 1-1h5.33a1 1 0 0 1 1 1 1 1 0 0 1-1 1ZM14 11c-.26 0-.51-.1-.71-.29L10 7.42l-3.29 3.29A1 1 0 1 1 5.3 9.3l4-4a1 1 0 0 1 1.41 0l4 4A1 1 0 0 1 14 11Z" fill="#0F67F5"/><path d="M10 27a1 1 0 0 1-1-1V7.33a1 1 0 0 1 1-1 1 1 0 0 1 1 1V26a1 1 0 0 1-1 1Zm61.33-14.67h-8a1 1 0 0 1-1-1 1 1 0 0 1 1-1h8a1 1 0 0 1 1 1 1 1 0 0 1-1 1ZM74 7H63.33a1 1 0 0 1-1-1 1 1 0 0 1 1-1H74a1 1 0 0 1 1 1 1 1 0 0 1-1 1Zm-5.33 10.67h-5.33a1 1 0 0 1-1-1 1 1 0 0 1 1-1h5.33a1 1 0 0 1 1 1 1 1 0 0 1-1 1ZM58 27c-.26 0-.51-.1-.71-.29l-4-4a1 1 0 1 1 1.41-1.41l3.29 3.29 3.29-3.29a1 1 0 1 1 1.41 1.41l-4 4c-.2.2-.45.29-.71.29H58Z" fill="#0F67F5"/><path d="M58 25.67a1 1 0 0 1-1-1V6a1 1 0 0 1 1-1 1 1 0 0 1 1 1v18.67a1 1 0 0 1-1 1Z" fill="#0F67F5"/></svg>