<svg width="163" height="32" fill="none" xmlns="http://www.w3.org/2000/svg"><circle cx="16" cy="16" r="16" fill="#0F67F5"/><path d="M17.92 10.36V22h-2.1v-9.59h-.07l-2.72 1.74v-1.93l2.89-1.86h2Z" fill="#fff"/><path fill="#0F67F5" d="M32 14h33.5v4H32z"/><circle cx="81.5" cy="16" r="15" fill="#fff" stroke="#194DCC" stroke-width="2"/><path d="M77.57 22v-1.52l4.04-3.96c.38-.4.7-.74.96-1.04.26-.3.45-.6.58-.88.13-.29.2-.6.2-.91a1.66 1.66 0 0 0-.94-1.56 2.33 2.33 0 0 0-2 .02c-.3.16-.52.38-.67.67a2.1 2.1 0 0 0-.24 1.03h-2a3.41 3.41 0 0 1 1.9-3.2 4.5 4.5 0 0 1 2.04-.45c.78 0 1.47.15 2.06.44.59.3 1.05.7 1.37 1.2.33.5.5 1.09.5 1.74 0 .44-.09.86-.25 1.28-.17.42-.46.89-.88 1.4-.42.51-1 1.13-1.76 1.86l-2 2.04v.08h5.06V22h-7.97Z" fill="#194DCC"/><path fill="#EEE" d="M97.5 14H131v4H97.5z"/><circle cx="147" cy="16" r="16" fill="#EEE"/><path d="M147 22.16c-.82 0-1.55-.14-2.18-.42a3.66 3.66 0 0 1-1.5-1.17 3.04 3.04 0 0 1-.59-1.73h2.14c.02.31.12.58.31.82.2.23.44.41.76.54.31.13.66.2 1.05.2.42 0 .79-.08 1.11-.22.32-.15.58-.36.76-.62.18-.26.27-.56.26-.9 0-.35-.08-.66-.27-.93a1.83 1.83 0 0 0-.8-.63 3.16 3.16 0 0 0-1.27-.23h-1.03v-1.63h1.03c.4 0 .76-.07 1.07-.2.3-.15.54-.34.72-.6.17-.25.26-.55.25-.89a1.5 1.5 0 0 0-.85-1.43 2.5 2.5 0 0 0-1.94-.01c-.3.13-.54.31-.73.55a1.4 1.4 0 0 0-.3.84h-2.02c.01-.65.2-1.22.56-1.72.36-.5.85-.88 1.45-1.15a4.8 4.8 0 0 1 2.04-.43c.78 0 1.45.15 2.03.44a3.3 3.3 0 0 1 1.33 1.17c.32.49.47 1.03.47 1.62 0 .65-.19 1.2-.58 1.64-.38.45-.9.74-1.52.87v.1c.82.1 1.45.41 1.88.9.44.5.66 1.1.66 1.83 0 .65-.2 1.23-.56 1.75-.37.5-.88.91-1.53 1.2-.64.3-1.38.44-2.21.44Z" fill="#757575"/></svg>