<svg width="308" height="21" fill="none" xmlns="http://www.w3.org/2000/svg"><rect x=".57" y=".26" width="40" height="20" rx="10" fill="#0F67F5"/><circle cx="30.57" cy="10.26" fill="#fff" r="8"/><path d="M50.99 6.8v-.9h6.27v.9h-2.63v7.46h-1.01V6.79h-2.63Zm10.8 4.9V7.97h.97v6.28h-.96V13.2h-.07a1.98 1.98 0 0 1-1.86 1.14c-.4 0-.74-.08-1.05-.26a1.8 1.8 0 0 1-.72-.78c-.17-.35-.26-.8-.26-1.33V7.98h.97v3.93c0 .45.12.82.38 1.1.26.26.59.4.99.4a1.64 1.64 0 0 0 1.62-1.72Zm2.74 2.56V7.98h.93v.95h.06c.12-.3.32-.56.62-.75.3-.2.64-.3 1.02-.3a10.7 10.7 0 0 1 .5.02v.98a2.87 2.87 0 0 0-.58-.06c-.31 0-.58.06-.82.19s-.43.3-.57.52c-.13.22-.2.48-.2.76v3.97h-.96Zm5.24-3.78v3.78h-.96V7.98h.93v.99h.08c.15-.32.37-.58.67-.77.3-.2.69-.3 1.16-.3.42 0 .8.09 1.12.26.31.18.56.44.74.79.18.35.26.79.26 1.32v3.99h-.96v-3.92c0-.5-.13-.88-.38-1.15a1.37 1.37 0 0 0-1.06-.42c-.3 0-.58.07-.82.2s-.43.33-.57.58c-.14.26-.2.57-.2.93Zm11.55 3.91c-.57 0-1.06-.13-1.49-.4a2.75 2.75 0 0 1-1-1.14 3.83 3.83 0 0 1-.35-1.7c0-.65.12-1.22.35-1.7a2.66 2.66 0 0 1 2.5-1.54c.56 0 1.05.13 1.48.4.43.27.76.65 1 1.13.23.5.35 1.06.35 1.71a3.8 3.8 0 0 1-.36 1.7 2.67 2.67 0 0 1-2.48 1.54Zm0-.87c.43 0 .79-.1 1.06-.33.28-.22.49-.5.62-.87a3.42 3.42 0 0 0 0-2.34 1.98 1.98 0 0 0-.62-.88 1.64 1.64 0 0 0-1.06-.33c-.43 0-.78.11-1.06.33-.28.23-.48.52-.62.88a3.46 3.46 0 0 0 0 2.34c.14.36.34.65.62.87.28.22.63.33 1.06.33Zm5.28-3.04v3.78h-.96V7.98h.93v.99h.08c.15-.32.37-.58.67-.77.3-.2.69-.3 1.16-.3.42 0 .8.09 1.11.26.32.18.57.44.75.79.18.35.26.79.26 1.32v3.99h-.96v-3.92c0-.5-.13-.88-.38-1.15a1.37 1.37 0 0 0-1.06-.42c-.3 0-.58.07-.82.2s-.43.33-.57.58c-.14.26-.21.57-.21.93Zm10.85 3.93c-.4 0-.76-.08-1.08-.23a1.86 1.86 0 0 1-.78-.66 1.82 1.82 0 0 1-.28-1.04c0-.36.07-.65.21-.88.14-.22.33-.4.57-.53.23-.12.5-.22.78-.28.3-.07.58-.12.87-.16l.93-.1c.24-.04.41-.08.52-.14.11-.07.17-.17.17-.33v-.03c0-.4-.11-.72-.33-.94-.22-.23-.55-.34-1-.34-.45 0-.81.1-1.08.3-.26.2-.44.42-.55.65l-.91-.33a2.2 2.2 0 0 1 1.55-1.34 3.73 3.73 0 0 1 1.66-.05c.26.04.52.14.76.29.25.14.46.37.62.66.16.3.24.7.24 1.2v4.13h-.96v-.85h-.05a1.88 1.88 0 0 1-.94.83c-.25.11-.56.17-.92.17Zm.14-.87c.39 0 .7-.07.97-.22a1.53 1.53 0 0 0 .8-1.33v-.88a.66.66 0 0 1-.27.13 4.54 4.54 0 0 1-1 .18l-.4.05c-.25.03-.48.08-.7.15-.21.08-.39.18-.52.33a.82.82 0 0 0-.2.58c0 .33.13.59.37.76.25.17.57.25.95.25Zm8.45-1.85V8h.96v6.27h-.96V13.2h-.07c-.14.32-.37.59-.68.81-.31.22-.7.33-1.18.33-.4 0-.74-.08-1.05-.26a1.8 1.8 0 0 1-.72-.78c-.17-.35-.26-.8-.26-1.33V7.98h.97v3.93c0 .45.13.82.38 1.1.26.26.59.4 1 .4a1.64 1.64 0 0 0 1.6-1.72ZM111.5 8v.81h-3.25v-.82h3.25Zm-2.3-1.5h.96v5.97c0 .27.04.48.12.61.08.14.18.23.3.27.13.05.27.07.41.07.1 0 .2 0 .26-.02l.17-.03.2.87a2 2 0 0 1-.73.11c-.27 0-.54-.06-.8-.17a1.54 1.54 0 0 1-.9-1.44V6.47Zm6.23 7.9c-.57 0-1.06-.13-1.5-.4a2.75 2.75 0 0 1-.99-1.14 3.83 3.83 0 0 1-.35-1.7c0-.65.11-1.22.35-1.7a2.66 2.66 0 0 1 2.49-1.54c.57 0 1.06.13 1.49.4.42.27.76.65 1 1.13.23.5.35 1.06.35 1.71 0 .65-.12 1.22-.36 1.7a2.7 2.7 0 0 1-1 1.14c-.42.27-.91.4-1.48.4Zm0-.87c.43 0 .78-.1 1.06-.33.28-.22.48-.5.62-.87a3.42 3.42 0 0 0 0-2.34 1.98 1.98 0 0 0-.62-.88 1.64 1.64 0 0 0-1.06-.33c-.43 0-.79.11-1.06.33a2 2 0 0 0-.62.88 3.46 3.46 0 0 0 0 2.34c.13.36.34.65.62.87.27.22.63.33 1.06.33Zm4.31.74V7.98h.94v.99h.08c.13-.34.34-.6.63-.79.3-.18.64-.28 1.05-.28.42 0 .76.1 1.03.28.28.19.5.45.65.79h.07c.16-.33.4-.59.72-.78.32-.19.7-.29 1.16-.29.56 0 1.02.18 1.38.53.35.35.53.9.53 1.63v4.2h-.96v-4.2c0-.46-.13-.8-.38-1a1.4 1.4 0 0 0-.9-.3c-.44 0-.78.14-1.02.4-.25.27-.37.6-.37 1.01v4.09h-.98v-4.3c0-.35-.11-.64-.34-.86a1.24 1.24 0 0 0-.9-.33c-.25 0-.48.07-.7.2a1.5 1.5 0 0 0-.53.55c-.13.24-.2.51-.2.82v3.92h-.95Zm11.85.15c-.4 0-.76-.08-1.08-.23a1.86 1.86 0 0 1-.77-.66 1.86 1.86 0 0 1-.3-1.04c0-.36.08-.65.22-.88.14-.22.33-.4.57-.53.24-.12.5-.22.78-.28.3-.07.58-.12.87-.16l.93-.1c.24-.04.42-.08.53-.14.1-.07.16-.17.16-.33v-.03c0-.4-.1-.72-.33-.94-.22-.23-.55-.34-1-.34a1.72 1.72 0 0 0-1.63.95l-.91-.33a2.2 2.2 0 0 1 1.55-1.34 3.73 3.73 0 0 1 1.66-.05c.26.04.52.14.76.29.25.14.46.37.62.66.16.3.25.7.25 1.2v4.13h-.97v-.85h-.05c-.06.14-.17.28-.32.44-.16.15-.36.28-.61.4-.26.1-.56.16-.93.16Zm.15-.87c.38 0 .7-.07.96-.22a1.53 1.53 0 0 0 .8-1.33v-.88a.66.66 0 0 1-.27.13 4.63 4.63 0 0 1-.99.18l-.4.05a3.7 3.7 0 0 0-.7.15 1.2 1.2 0 0 0-.53.33.82.82 0 0 0-.2.58c0 .33.13.59.38.76.25.17.56.25.95.25Zm7.22-5.56v.82h-3.26v-.82h3.26Zm-2.3-1.5h.96v5.98c0 .27.03.48.11.61a.6.6 0 0 0 .31.27c.13.05.27.07.4.07.12 0 .2 0 .27-.02l.16-.03.2.87a1.94 1.94 0 0 1-.72.11c-.27 0-.54-.06-.8-.17a1.6 1.6 0 0 1-.65-.54 1.54 1.54 0 0 1-.25-.9V6.47Zm3.75 7.78V7.98h.96v6.28h-.97Zm.49-7.32a.69.69 0 0 1-.5-.2.62.62 0 0 1-.2-.45.7.7 0 0 1 .2-.47c.15-.12.3-.19.5-.19a.7.7 0 0 1 .48.2c.13.12.2.28.2.46a.67.67 0 0 1-.69.65Zm4.78 7.45c-.58 0-1.09-.14-1.52-.42a2.72 2.72 0 0 1-.98-1.14 3.9 3.9 0 0 1-.34-1.68c0-.63.12-1.2.35-1.68a2.66 2.66 0 0 1 2.47-1.56c.45 0 .85.07 1.2.24a2.14 2.14 0 0 1 1.3 1.72h-.97a1.47 1.47 0 0 0-1.5-1.1c-.38 0-.71.1-1 .3-.28.19-.5.46-.65.81-.16.36-.23.77-.23 1.24 0 .49.07.9.22 1.27a2 2 0 0 0 .66.84c.28.2.61.3 1 .3.25 0 .47-.05.68-.14a1.41 1.41 0 0 0 .82-.96h.96a2.23 2.23 0 0 1-1.25 1.7c-.35.17-.75.26-1.22.26Zm11.07-2.7V8h.97v6.27h-.97V13.2h-.06a1.98 1.98 0 0 1-1.86 1.14 2 2 0 0 1-1.05-.26 1.8 1.8 0 0 1-.72-.78c-.18-.35-.26-.8-.26-1.33V7.98h.96v3.93c0 .45.13.82.39 1.1.25.26.58.4.98.4a1.64 1.64 0 0 0 1.36-.75c.18-.25.26-.57.26-.97Zm2.73 4.92V7.98h.93v1h.12l.3-.42c.12-.17.3-.32.54-.45.24-.14.56-.2.97-.2a2.5 2.5 0 0 1 2.34 1.51 4 4 0 0 1 .34 1.72c0 .66-.11 1.24-.34 1.73a2.46 2.46 0 0 1-2.32 1.52 2 2 0 0 1-.97-.2 1.8 1.8 0 0 1-.56-.46 6.13 6.13 0 0 1-.3-.43h-.08v3.31h-.97Zm.95-5.49c0 .48.07.9.2 1.26.15.36.35.64.62.84.26.2.6.3.98.3.4 0 .74-.1 1-.31.28-.22.48-.5.62-.87s.2-.77.2-1.22c0-.44-.06-.84-.2-1.2a1.84 1.84 0 0 0-.6-.84 1.6 1.6 0 0 0-1.02-.31 1.6 1.6 0 0 0-1.6 1.12c-.13.35-.2.76-.2 1.23Zm8.43 3.27a2.46 2.46 0 0 1-2.32-1.52 4.08 4.08 0 0 1-.34-1.73 4 4 0 0 1 .34-1.72 2.5 2.5 0 0 1 2.34-1.52c.4 0 .73.07.97.2.24.14.42.3.54.46l.3.42h.08V5.9h.97v8.37h-.93v-.96h-.12l-.3.43a1.8 1.8 0 0 1-.56.46 2 2 0 0 1-.97.2Zm.13-.87c.39 0 .72-.1.98-.3.27-.2.47-.48.61-.84.14-.37.21-.78.21-1.26 0-.47-.07-.88-.2-1.23a1.6 1.6 0 0 0-1.6-1.12c-.4 0-.75.1-1.02.31s-.47.5-.6.85c-.14.35-.2.75-.2 1.2 0 .44.06.84.2 1.21a2 2 0 0 0 .6.87c.28.2.62.31 1.02.31Zm6.5.89c-.4 0-.76-.08-1.09-.23a1.86 1.86 0 0 1-.77-.66 1.86 1.86 0 0 1-.29-1.04c0-.36.07-.65.22-.88.14-.22.33-.4.56-.53.24-.12.5-.22.79-.28.29-.07.58-.12.87-.16l.93-.1c.23-.04.41-.08.52-.14.11-.07.17-.17.17-.33v-.03c0-.4-.11-.72-.34-.94-.21-.23-.54-.34-.99-.34-.46 0-.82.1-1.08.3-.26.2-.45.42-.55.65l-.92-.33a2.2 2.2 0 0 1 1.56-1.34 3.73 3.73 0 0 1 1.65-.05c.27.04.52.14.77.29.25.14.45.37.62.66.16.3.24.7.24 1.2v4.13h-.96v-.85h-.05a1.88 1.88 0 0 1-.94.83 2.3 2.3 0 0 1-.93.17Zm.14-.87c.38 0 .7-.07.97-.22a1.53 1.53 0 0 0 .8-1.33v-.88a.84.84 0 0 1-.27.13 4.63 4.63 0 0 1-1 .18l-.4.05a3.7 3.7 0 0 0-.7.15 1.2 1.2 0 0 0-.53.33.82.82 0 0 0-.2.58c0 .33.13.59.38.76.25.17.57.25.95.25Zm7.22-5.56v.82h-3.25v-.82h3.25Zm-2.3-1.5h.96v5.98c0 .27.04.48.12.61.08.14.18.23.3.27.14.05.27.07.41.07.1 0 .2 0 .26-.02l.17-.03.2.87a1.94 1.94 0 0 1-.73.11 2.1 2.1 0 0 1-.8-.17 1.6 1.6 0 0 1-.64-.54 1.54 1.54 0 0 1-.26-.9V6.47Zm6.31 7.91a2.69 2.69 0 0 1-2.57-1.53 3.85 3.85 0 0 1-.35-1.69 4 4 0 0 1 .35-1.7 2.65 2.65 0 0 1 2.48-1.57c.32 0 .64.06.96.17a2.4 2.4 0 0 1 1.5 1.5c.15.4.23.88.23 1.47v.4h-4.84v-.82h3.86c0-.36-.07-.67-.21-.95a1.6 1.6 0 0 0-1.5-.9c-.39 0-.72.1-1 .29-.28.18-.5.43-.64.73-.15.3-.23.63-.23.97v.56c0 .47.08.87.25 1.2.16.33.4.58.69.75a2 2 0 0 0 1.02.25c.26 0 .48-.03.69-.1.2-.08.38-.18.53-.33.15-.15.27-.33.35-.55l.93.27c-.1.31-.26.59-.5.83-.22.24-.5.42-.85.55-.34.14-.72.2-1.15.2Zm8.51-5-.86.25a1.63 1.63 0 0 0-.24-.43c-.1-.13-.25-.25-.43-.34a1.54 1.54 0 0 0-.69-.13c-.38 0-.7.08-.96.26-.25.18-.38.4-.38.67 0 .24.09.43.26.57.18.13.45.25.82.34l.93.23c.56.14.98.35 1.25.63.28.27.42.63.42 1.07 0 .36-.1.68-.31.97-.2.28-.5.5-.86.67-.37.16-.8.24-1.28.24-.64 0-1.17-.14-1.6-.42a1.85 1.85 0 0 1-.79-1.21l.91-.23c.1.34.26.59.5.76.25.17.56.25.96.25.45 0 .8-.1 1.07-.29.27-.19.4-.42.4-.69 0-.22-.08-.4-.23-.55a1.46 1.46 0 0 0-.7-.33l-1.05-.25c-.57-.13-1-.34-1.26-.63-.27-.29-.4-.65-.4-1.08 0-.36.1-.67.3-.94.2-.28.47-.49.82-.64.34-.16.74-.24 1.18-.24.62 0 1.1.14 1.46.41.36.27.61.63.76 1.08ZM202.9 8v.81h-3.25v-.82h3.25Zm-2.3-1.5h.96v5.97c0 .27.04.48.12.61.08.14.19.23.31.27.13.05.26.07.4.07.11 0 .2 0 .27-.02l.16-.03.2.87a1.94 1.94 0 0 1-.72.11c-.27 0-.54-.06-.8-.17a1.6 1.6 0 0 1-.65-.54 1.54 1.54 0 0 1-.25-.9V6.47Zm6.24 7.9c-.57 0-1.07-.13-1.5-.4a2.75 2.75 0 0 1-1-1.14 3.83 3.83 0 0 1-.35-1.7c0-.65.12-1.22.36-1.7a2.66 2.66 0 0 1 2.49-1.54c.56 0 1.06.13 1.48.4.43.27.76.65 1 1.13.24.5.36 1.06.36 1.71 0 .65-.12 1.22-.36 1.7a2.7 2.7 0 0 1-1 1.14c-.42.27-.92.4-1.48.4Zm0-.87c.43 0 .78-.1 1.06-.33.28-.22.48-.5.61-.87.14-.36.2-.75.2-1.17 0-.41-.06-.8-.2-1.17a1.97 1.97 0 0 0-.61-.88 1.64 1.64 0 0 0-1.06-.33c-.44 0-.79.11-1.07.33-.28.23-.48.52-.61.88-.14.36-.2.76-.2 1.17 0 .42.06.81.2 1.17.13.36.34.65.61.87.28.22.63.33 1.06.33Zm8.44-1.55-.01-1.2h.2l2.74-2.79h1.2l-2.93 2.96h-.08l-1.12 1.03Zm-.9 2.29V5.89h.97v8.37h-.96Zm4 0-2.46-3.1.69-.68 2.99 3.78h-1.23Zm3.23-3.78v3.78h-.97V7.98h.94v.99h.08c.14-.32.37-.58.67-.77.3-.2.68-.3 1.16-.3.42 0 .8.09 1.11.26.32.18.57.44.75.79.17.35.26.79.26 1.32v3.99h-.96v-3.92c0-.5-.13-.88-.39-1.15-.25-.28-.6-.42-1.05-.42-.3 0-.58.07-.83.2-.24.13-.42.33-.56.58-.14.26-.21.57-.21.93Zm8.31 3.91c-.56 0-1.06-.13-1.49-.4a2.75 2.75 0 0 1-1-1.14 3.83 3.83 0 0 1-.35-1.7c0-.65.12-1.22.35-1.7.24-.5.58-.87 1-1.14.43-.27.93-.4 1.5-.4.56 0 1.06.13 1.48.4.43.27.76.65 1 1.13.24.5.36 1.06.36 1.71 0 .65-.12 1.22-.36 1.7-.24.49-.57.87-1 1.14-.42.27-.92.4-1.49.4Zm0-.87c.43 0 .79-.1 1.07-.33.27-.22.48-.5.61-.87.14-.36.2-.75.2-1.17 0-.41-.06-.8-.2-1.17a1.98 1.98 0 0 0-.61-.88 1.64 1.64 0 0 0-1.07-.33c-.43 0-.78.11-1.06.33-.28.23-.48.52-.62.88a3.46 3.46 0 0 0 0 2.34c.14.36.34.65.62.87.28.22.63.33 1.06.33Zm5.53.74-1.92-6.28h1.02l1.35 4.8h.07l1.34-4.8h1.03l1.32 4.8h.07l1.35-4.8h1.02l-1.91 6.28h-.95l-1.38-4.82h-.1l-1.37 4.82h-.94Zm13.79.13c-.6 0-1.13-.13-1.57-.4a2.7 2.7 0 0 1-1-1.13 3.85 3.85 0 0 1-.36-1.69 4 4 0 0 1 .35-1.7 2.66 2.66 0 0 1 2.48-1.57c.33 0 .65.06.97.17a2.4 2.4 0 0 1 1.5 1.5c.15.4.23.88.23 1.47v.4H247v-.82h3.86c0-.36-.08-.67-.22-.95a1.6 1.6 0 0 0-1.5-.9c-.38 0-.72.1-1 .29-.27.18-.49.43-.64.73-.15.3-.22.63-.22.97v.56c0 .47.08.87.24 1.2.17.33.4.58.7.75.29.17.63.25 1.02.25.25 0 .48-.03.68-.1.21-.08.39-.18.54-.33.15-.15.26-.33.35-.55l.93.27a2.15 2.15 0 0 1-1.35 1.38c-.34.14-.73.2-1.15.2Zm9-6.4-2.32 6.27h-.98l-2.32-6.28h1.05l1.73 5h.06l1.74-5h1.04Zm3.68 6.4c-.6 0-1.12-.13-1.56-.4a2.7 2.7 0 0 1-1.01-1.13 3.85 3.85 0 0 1-.35-1.69c0-.64.11-1.2.35-1.7a2.66 2.66 0 0 1 2.48-1.57c.32 0 .64.06.96.17a2.4 2.4 0 0 1 1.5 1.5c.15.4.23.88.23 1.47v.4h-4.84v-.82h3.86c0-.36-.07-.67-.21-.95a1.6 1.6 0 0 0-1.5-.9c-.39 0-.72.1-1 .29-.28.18-.5.43-.64.73-.15.3-.23.63-.23.97v.56c0 .47.08.87.25 1.2.16.33.4.58.69.75a2 2 0 0 0 1.02.25c.25 0 .48-.03.69-.1.2-.08.38-.18.53-.33.15-.15.27-.33.35-.55l.93.27c-.1.31-.26.59-.5.83-.22.24-.5.42-.85.55-.34.14-.72.2-1.15.2Zm4.07-.13V7.98h.93v.95h.06c.12-.3.32-.56.63-.75.3-.2.63-.3 1-.3a10.77 10.77 0 0 1 .51.02v.98a2.92 2.92 0 0 0-.58-.06c-.3 0-.58.06-.82.19s-.43.3-.57.52c-.13.22-.2.48-.2.76v3.97H266Zm5.09 2.35a2.12 2.12 0 0 1-.7-.11l.24-.85c.24.06.44.08.62.06.18-.01.34-.1.48-.24.14-.14.27-.37.39-.69l.18-.49-2.32-6.3H271l1.74 5h.06l1.73-5h1.05l-2.66 7.18c-.12.33-.27.6-.45.81a1.8 1.8 0 0 1-.62.48c-.23.1-.49.15-.78.15Zm8.51-8.63v.82h-3.25v-.82h3.25Zm-2.3-1.5h.96v5.98c0 .27.04.48.12.61.08.14.19.23.31.27.13.05.26.07.4.07.11 0 .2 0 .27-.02l.16-.03.2.87a2 2 0 0 1-.72.11c-.28 0-.54-.06-.8-.17a1.6 1.6 0 0 1-.65-.54 1.54 1.54 0 0 1-.25-.9V6.47Zm4.85 4v3.78h-.96V5.89h.96v3.08h.08c.15-.33.37-.59.66-.78.3-.19.7-.29 1.19-.29.43 0 .8.09 1.12.26.32.17.57.43.75.78.18.35.27.8.27 1.33v3.99h-.96v-3.92c0-.5-.13-.89-.4-1.16a1.38 1.38 0 0 0-1.06-.41c-.31 0-.6.07-.85.2s-.44.33-.59.58a1.9 1.9 0 0 0-.21.93Zm5.83 3.78V7.98h.97v6.28h-.97Zm.5-7.32a.69.69 0 0 1-.5-.2.62.62 0 0 1-.2-.45c0-.18.07-.34.2-.47.14-.12.3-.19.5-.19a.7.7 0 0 1 .48.2c.13.12.2.28.2.46a.67.67 0 0 1-.69.65Zm3.2 3.54v3.78h-.97V7.98h.94v.99h.08c.14-.32.37-.58.67-.77.3-.2.68-.3 1.16-.3.42 0 .8.09 1.11.26.32.18.57.44.75.79.17.35.26.79.26 1.32v3.99h-.96v-3.92c0-.5-.13-.88-.39-1.15-.25-.28-.6-.42-1.05-.42-.3 0-.58.07-.83.2-.24.13-.43.33-.56.58-.14.26-.21.57-.21.93Zm8.3 6.26c-.47 0-.87-.06-1.2-.18a2.56 2.56 0 0 1-1.37-1.07l.77-.54.33.39c.13.15.31.28.55.39.23.1.54.16.92.16.5 0 .92-.12 1.25-.36.33-.25.5-.63.5-1.16V13.1h-.09c-.07.11-.17.26-.3.42-.13.17-.31.32-.56.45a2 2 0 0 1-.97.2 2.52 2.52 0 0 1-2.32-1.4 3.67 3.67 0 0 1-.34-1.68c0-.64.11-1.2.34-1.68a2.49 2.49 0 0 1 2.34-1.5c.4 0 .73.06.97.2.24.13.43.28.56.45l.3.42h.1v-1h.93v6.46c0 .54-.12.98-.37 1.32a2.1 2.1 0 0 1-.98.74c-.4.16-.86.24-1.36.24Zm-.04-3.44c.39 0 .72-.1.98-.27.27-.18.47-.43.61-.76.14-.34.21-.73.21-1.2 0-.45-.07-.85-.2-1.2a1.8 1.8 0 0 0-.6-.8c-.28-.2-.6-.3-1-.3a1.64 1.64 0 0 0-1.63 1.14c-.13.35-.2.74-.2 1.16 0 .44.07.82.2 1.16.15.33.35.6.62.78.27.2.61.29 1.01.29Zm5.79-7.4-.08 6h-.95l-.08-6h1.1Zm-.56 8.43a.7.7 0 0 1-.52-.22.7.7 0 0 1-.21-.52c0-.2.07-.37.21-.52a.7.7 0 0 1 .52-.22c.2 0 .38.08.52.22a.7.7 0 0 1 .22.52.77.77 0 0 1-.37.64.7.7 0 0 1-.37.1Z" fill="#1F1F1F"/></svg>