<svg width="184" height="21" fill="none" xmlns="http://www.w3.org/2000/svg"><rect x=".57" y=".26" width="40" height="20" rx="10" fill="#0F67F5"/><circle cx="30.57" cy="10.26" fill="#fff" r="8"/><path d="M51.79 14.26h-1.06l3.07-8.37h1.04l3.08 8.37h-1.07l-2.5-7.04h-.06l-2.5 7.04Zm.39-3.27h4.28v.9h-4.28v-.9Zm9.44 5.75a3.6 3.6 0 0 1-1.2-.18 2.55 2.55 0 0 1-1.36-1.07l.76-.54.33.39c.14.15.32.28.55.39.24.1.54.16.92.16.5 0 .93-.12 1.26-.36.33-.25.49-.63.49-1.16V13.1h-.08c-.07.11-.17.26-.3.42-.13.17-.32.32-.56.45-.24.13-.56.2-.97.2a2.52 2.52 0 0 1-2.32-1.4 3.66 3.66 0 0 1-.35-1.68 4 4 0 0 1 .34-1.68 2.49 2.49 0 0 1 2.34-1.5c.41 0 .74.06.98.2.24.13.42.28.55.45l.3.42h.1v-1h.93v6.46c0 .54-.12.98-.36 1.32a2.1 2.1 0 0 1-.98.74c-.41.16-.87.24-1.37.24Zm-.03-3.44a1.58 1.58 0 0 0 1.58-1.03c.15-.34.22-.73.22-1.2 0-.45-.07-.85-.2-1.2a1.8 1.8 0 0 0-.61-.8c-.27-.2-.6-.3-1-.3a1.64 1.64 0 0 0-1.62 1.14c-.13.35-.2.74-.2 1.16 0 .44.07.82.2 1.16.14.33.35.6.62.78.27.2.6.29 1 .29Zm4.5.96V7.98h.94v.95h.07a1.76 1.76 0 0 1 1.63-1.05 10.7 10.7 0 0 1 .5.02v.98a2.87 2.87 0 0 0-.58-.06c-.3 0-.58.06-.82.19s-.42.3-.56.52c-.14.22-.2.48-.2.76v3.97h-.97Zm6.73.13a2.69 2.69 0 0 1-2.57-1.53 3.85 3.85 0 0 1-.36-1.69c0-.64.12-1.2.36-1.7a2.66 2.66 0 0 1 2.48-1.57c.32 0 .64.06.96.17a2.4 2.4 0 0 1 1.5 1.5c.15.4.23.88.23 1.47v.4h-4.84v-.82h3.86c0-.36-.07-.67-.22-.95a1.6 1.6 0 0 0-1.5-.9c-.38 0-.72.1-1 .29-.27.18-.49.43-.64.73-.15.3-.22.63-.22.97v.56c0 .47.08.87.24 1.2.17.33.4.58.7.75.29.17.63.25 1.02.25.25 0 .48-.03.69-.1.2-.08.38-.18.53-.33.15-.15.27-.33.35-.55l.93.27c-.1.31-.26.59-.5.83-.23.24-.51.42-.85.55-.34.14-.73.2-1.15.2Zm6.7 0a2.69 2.69 0 0 1-2.57-1.53 3.85 3.85 0 0 1-.36-1.69 4 4 0 0 1 .35-1.7 2.66 2.66 0 0 1 2.48-1.57 3 3 0 0 1 .97.17 2.4 2.4 0 0 1 1.5 1.5c.15.4.22.88.22 1.47v.4h-4.83v-.82h3.85c0-.36-.07-.67-.2-.95a1.6 1.6 0 0 0-1.51-.9c-.39 0-.72.1-1 .29-.28.18-.5.43-.64.73-.15.3-.23.63-.23.97v.56c0 .47.09.87.25 1.2.17.33.4.58.69.75.3.17.64.25 1.03.25.25 0 .48-.03.68-.1.2-.08.39-.18.54-.33.15-.15.26-.33.34-.55l.94.27a2.15 2.15 0 0 1-1.36 1.38c-.34.14-.72.2-1.14.2Zm10.02-6.4v.81H86.3v-.82h3.25Zm-2.3-1.5h.96v5.97c0 .27.04.48.12.61a.6.6 0 0 0 .31.27c.13.05.27.07.4.07a1.71 1.71 0 0 0 .43-.05l.2.87a1.96 1.96 0 0 1-.72.11c-.27 0-.54-.06-.8-.17a1.6 1.6 0 0 1-.65-.54 1.54 1.54 0 0 1-.25-.9V6.47Zm6.24 7.9c-.57 0-1.07-.13-1.5-.4a2.75 2.75 0 0 1-1-1.14 3.83 3.83 0 0 1-.35-1.7c0-.65.12-1.22.36-1.7a2.66 2.66 0 0 1 2.49-1.54c.56 0 1.06.13 1.48.4.43.27.76.65 1 1.13.24.5.36 1.06.36 1.71a3.8 3.8 0 0 1-.36 1.7 2.7 2.7 0 0 1-1 1.14c-.42.27-.92.4-1.48.4Zm0-.87c.43 0 .78-.1 1.06-.33.28-.22.48-.5.62-.87a3.42 3.42 0 0 0 0-2.34 1.98 1.98 0 0 0-.62-.88 1.64 1.64 0 0 0-1.06-.33c-.43 0-.79.11-1.07.33-.27.23-.48.52-.61.88-.14.36-.2.76-.2 1.17 0 .42.06.81.2 1.17.13.36.34.65.61.87.28.22.64.33 1.07.33Zm10.1.87c-.6 0-1.1-.14-1.52-.42a2.7 2.7 0 0 1-.98-1.14 3.89 3.89 0 0 1-.35-1.68c0-.63.12-1.2.35-1.68a2.65 2.65 0 0 1 2.48-1.56c.44 0 .84.07 1.2.24a2.14 2.14 0 0 1 1.29 1.72h-.97a1.47 1.47 0 0 0-1.5-1.1 1.73 1.73 0 0 0-1.65 1.11c-.16.36-.23.77-.23 1.24 0 .49.07.9.23 1.27.15.36.37.64.65.84.28.2.62.3 1 .3.25 0 .48-.05.68-.14a1.41 1.41 0 0 0 .82-.96h.96a2.23 2.23 0 0 1-1.25 1.7 2.7 2.7 0 0 1-1.21.26Zm6.42 0c-.56 0-1.06-.13-1.49-.4a2.75 2.75 0 0 1-1-1.14 3.83 3.83 0 0 1-.35-1.7c0-.65.12-1.22.36-1.7.23-.5.57-.87 1-1.14.42-.27.92-.4 1.48-.4.57 0 1.06.13 1.49.4.43.27.76.65 1 1.13.24.5.36 1.06.36 1.71 0 .65-.12 1.22-.36 1.7a2.7 2.7 0 0 1-1 1.14c-.42.27-.92.4-1.49.4Zm0-.87c.43 0 .79-.1 1.06-.33.28-.22.49-.5.62-.87.14-.36.2-.75.2-1.17 0-.41-.06-.8-.2-1.17a1.97 1.97 0 0 0-.62-.88 1.64 1.64 0 0 0-1.06-.33c-.43 0-.78.11-1.06.33-.28.23-.48.52-.62.88a3.46 3.46 0 0 0 0 2.34c.14.36.34.65.62.87.28.22.63.33 1.06.33Zm6.87.87c-.57 0-1.07-.13-1.5-.4a2.75 2.75 0 0 1-.99-1.14 3.83 3.83 0 0 1-.36-1.7c0-.65.12-1.22.36-1.7a2.66 2.66 0 0 1 2.49-1.54 2.69 2.69 0 0 1 2.48 1.53c.24.5.36 1.06.36 1.71a3.8 3.8 0 0 1-.36 1.7 2.65 2.65 0 0 1-2.48 1.54Zm0-.87c.43 0 .78-.1 1.06-.33.28-.22.48-.5.62-.87a3.42 3.42 0 0 0 0-2.34 1.98 1.98 0 0 0-.62-.88 1.64 1.64 0 0 0-1.06-.33c-.43 0-.79.11-1.06.33a2 2 0 0 0-.62.88 3.46 3.46 0 0 0 0 2.34c.13.36.34.65.62.87.27.22.63.33 1.06.33Zm5.21-1.55-.02-1.2h.2l2.75-2.79h1.19l-2.93 2.96h-.08l-1.1 1.03Zm-.9 2.29V5.89h.97v8.37h-.97Zm3.99 0-2.45-3.1.69-.68 2.99 3.78h-1.23Zm2.27 0V7.98h.97v6.28h-.97Zm.5-7.32a.68.68 0 0 1-.5-.2.62.62 0 0 1-.2-.45c0-.18.07-.34.2-.47.14-.12.3-.19.5-.19.18 0 .34.07.47.2.14.12.2.28.2.46a.6.6 0 0 1-.2.46.7.7 0 0 1-.48.19Zm4.86 7.45a2.69 2.69 0 0 1-2.57-1.53 3.85 3.85 0 0 1-.35-1.69c0-.64.11-1.2.35-1.7a2.66 2.66 0 0 1 2.47-1.57c.33 0 .65.06.97.17a2.4 2.4 0 0 1 1.5 1.5c.15.4.23.88.23 1.47v.4h-4.84v-.82h3.86c0-.36-.07-.67-.21-.95a1.6 1.6 0 0 0-1.5-.9 1.83 1.83 0 0 0-1.65 1.02c-.15.3-.22.63-.22.97v.56c0 .47.08.87.25 1.2.16.33.4.58.69.75.29.17.63.25 1.02.25.25 0 .48-.03.69-.1.2-.08.38-.18.53-.33.15-.15.27-.33.35-.55l.93.27c-.1.31-.26.59-.5.83a2.4 2.4 0 0 1-.85.55c-.34.14-.72.2-1.15.2Zm11.75-5-.87.25a1.63 1.63 0 0 0-.24-.43c-.1-.13-.25-.25-.43-.34a1.54 1.54 0 0 0-.69-.13c-.38 0-.7.08-.96.26-.25.18-.38.4-.38.67 0 .24.1.43.27.57.17.13.44.25.81.34l.93.23c.57.14.98.35 1.26.63.27.27.41.63.41 1.07 0 .36-.1.68-.3.97-.21.28-.5.5-.87.67-.37.16-.8.24-1.28.24a2.8 2.8 0 0 1-1.59-.42 1.85 1.85 0 0 1-.8-1.21l.92-.23c.09.34.25.59.5.76.24.17.56.25.95.25.45 0 .81-.1 1.07-.29.27-.19.4-.42.4-.69 0-.22-.07-.4-.22-.55a1.46 1.46 0 0 0-.7-.33l-1.05-.25c-.58-.13-1-.34-1.27-.63s-.4-.65-.4-1.08c0-.36.1-.67.3-.94.2-.28.47-.49.82-.64a2.8 2.8 0 0 1 1.18-.24c.63 0 1.11.14 1.47.41.35.27.6.63.76 1.08Zm4.2 5a2.69 2.69 0 0 1-2.57-1.53 3.85 3.85 0 0 1-.36-1.69 4 4 0 0 1 .35-1.7 2.66 2.66 0 0 1 2.48-1.57c.32 0 .64.06.96.17a2.4 2.4 0 0 1 1.5 1.5c.15.4.23.88.23 1.47v.4h-4.84v-.82h3.86c0-.36-.07-.67-.21-.95a1.6 1.6 0 0 0-1.5-.9c-.39 0-.72.1-1 .29-.28.18-.5.43-.64.73-.15.3-.23.63-.23.97v.56c0 .47.08.87.25 1.2.16.33.4.58.69.75a2 2 0 0 0 1.02.25c.26 0 .49-.03.69-.1.2-.08.38-.18.53-.33.16-.15.27-.33.35-.55l.93.27c-.1.31-.26.59-.5.83a2.4 2.4 0 0 1-.85.55c-.34.14-.72.2-1.15.2Zm6.79-6.4v.81h-3.25v-.82h3.25Zm-2.3-1.5h.96v5.97c0 .27.04.48.12.61.08.14.18.23.3.27.13.05.27.07.41.07.1 0 .2 0 .26-.02l.17-.03.2.87a1.96 1.96 0 0 1-.73.11c-.27 0-.54-.06-.8-.17a1.54 1.54 0 0 1-.9-1.44V6.47Zm6.48 1.5v.81h-3.25v-.82h3.25Zm-2.3-1.5h.96v5.97c0 .27.04.48.12.61.08.14.18.23.3.27.13.05.27.07.41.07.1 0 .2 0 .26-.02l.16-.03.2.87a1.92 1.92 0 0 1-.72.11c-.27 0-.54-.06-.8-.17a1.6 1.6 0 0 1-.64-.54 1.54 1.54 0 0 1-.26-.9V6.47Zm3.75 7.77V7.98h.96v6.28h-.96Zm.49-7.32a.68.68 0 0 1-.49-.2.62.62 0 0 1-.2-.45c0-.18.07-.34.2-.47.14-.12.3-.19.49-.19s.35.07.48.2c.14.12.2.28.2.46a.6.6 0 0 1-.2.46.7.7 0 0 1-.48.19Zm3.2 3.54v3.78h-.96V7.98h.93v.99h.08c.15-.32.37-.58.67-.77.3-.2.69-.3 1.16-.3.42 0 .8.09 1.12.26.31.18.56.44.74.79.18.35.27.79.27 1.32v3.99h-.97v-3.92c0-.5-.13-.88-.38-1.15a1.37 1.37 0 0 0-1.06-.42c-.3 0-.58.07-.82.2s-.43.33-.57.58c-.14.26-.2.57-.2.93Zm8.3 6.26c-.47 0-.87-.06-1.2-.18a2.55 2.55 0 0 1-1.37-1.07l.77-.54.33.39c.14.15.32.28.55.39.23.1.54.16.92.16.5 0 .92-.12 1.25-.36.33-.25.5-.63.5-1.16V13.1h-.08l-.3.42c-.13.17-.32.32-.56.45-.24.13-.56.2-.97.2a2.52 2.52 0 0 1-2.32-1.4 3.65 3.65 0 0 1-.35-1.68 4 4 0 0 1 .34-1.68 2.5 2.5 0 0 1 2.34-1.5c.41 0 .74.06.98.2.24.13.42.28.55.45l.3.42h.1v-1h.93v6.46c0 .54-.12.98-.37 1.32a2.1 2.1 0 0 1-.98.74c-.4.16-.86.24-1.36.24Zm-.03-3.44c.38 0 .71-.1.98-.27.26-.18.47-.43.6-.76.14-.34.22-.73.22-1.2 0-.45-.07-.85-.21-1.2a1.8 1.8 0 0 0-.6-.8c-.27-.2-.6-.3-1-.3s-.74.1-1.01.31c-.27.2-.48.48-.61.83-.14.35-.2.74-.2 1.16a3 3 0 0 0 .2 1.16c.14.33.34.6.61.78.28.2.61.29 1.02.29Zm8.95-3.91-.86.25a1.6 1.6 0 0 0-.25-.43 1.2 1.2 0 0 0-.42-.34 1.54 1.54 0 0 0-.69-.13c-.38 0-.7.08-.96.26-.25.18-.38.4-.38.67 0 .24.09.43.26.57.18.13.45.25.82.34l.93.23c.56.14.98.35 1.25.63.28.27.42.63.42 1.07 0 .36-.1.68-.31.97-.2.28-.5.5-.86.67-.37.16-.8.24-1.28.24-.65 0-1.18-.14-1.6-.42a1.85 1.85 0 0 1-.8-1.21l.93-.23c.08.34.25.59.49.76.24.17.56.25.96.25.45 0 .8-.1 1.07-.29.27-.19.4-.42.4-.69 0-.22-.08-.4-.23-.55a1.46 1.46 0 0 0-.7-.33l-1.05-.25a2.5 2.5 0 0 1-1.26-.63c-.27-.29-.4-.65-.4-1.08 0-.36.1-.67.3-.94.2-.28.47-.49.81-.64.35-.16.75-.24 1.19-.24.62 0 1.1.14 1.46.41.36.27.61.63.76 1.08Z" fill="#1F1F1F"/></svg>