<svg width="154" height="21" fill="none" xmlns="http://www.w3.org/2000/svg"><rect x=".57" y=".26" width="40" height="20" rx="10" fill="#B5B5B5"/><circle cx="10.57" cy="10.26" r="8" fill="#fff"/><path d="M51.79 14.26h-1.06l3.07-8.37h1.04l3.08 8.37h-1.07l-2.5-7.04h-.06l-2.5 7.04Zm.39-3.27h4.28v.9h-4.28v-.9Zm10.86.7V8h.97v6.27h-.97V13.2h-.06a1.98 1.98 0 0 1-1.86 1.14 2 2 0 0 1-1.05-.26 1.8 1.8 0 0 1-.72-.78c-.17-.35-.26-.8-.26-1.33V7.98h.96v3.93c0 .45.13.82.39 1.1.26.26.59.4.99.4a1.64 1.64 0 0 0 1.61-1.72ZM68.5 8v.81h-3.25v-.82h3.25Zm-2.3-1.5h.96v5.97c0 .27.04.48.12.61.08.14.19.23.31.27.13.05.26.07.4.07a1.7 1.7 0 0 0 .43-.05l.2.87a1.96 1.96 0 0 1-.72.11c-.27 0-.54-.06-.8-.17a1.6 1.6 0 0 1-.65-.54 1.54 1.54 0 0 1-.25-.9V6.47Zm6.23 7.9c-.56 0-1.06-.13-1.49-.4a2.75 2.75 0 0 1-1-1.14 3.83 3.83 0 0 1-.35-1.7c0-.65.12-1.22.36-1.7a2.66 2.66 0 0 1 2.48-1.54c.57 0 1.07.13 1.5.4.42.27.75.65.99 1.13.24.5.36 1.06.36 1.71a3.8 3.8 0 0 1-.36 1.7 2.7 2.7 0 0 1-1 1.14c-.42.27-.92.4-1.49.4Zm0-.87c.43 0 .79-.1 1.07-.33.27-.22.48-.5.61-.87.14-.36.2-.75.2-1.17 0-.41-.06-.8-.2-1.17a1.98 1.98 0 0 0-.61-.88 1.64 1.64 0 0 0-1.07-.33c-.43 0-.78.11-1.06.33-.28.23-.48.52-.61.88-.14.36-.2.76-.2 1.17 0 .42.06.81.2 1.17.13.36.33.65.61.87.28.22.63.33 1.06.33Zm4.32.74V7.98h.93v.99h.08c.13-.34.34-.6.64-.79.29-.18.64-.28 1.05-.28.41 0 .75.1 1.03.28.28.19.5.45.65.79h.06c.17-.33.4-.59.73-.78.32-.19.7-.29 1.15-.29.56 0 1.02.18 1.38.53.36.35.54.9.54 1.63v4.2h-.97v-4.2c0-.46-.13-.8-.38-1a1.4 1.4 0 0 0-.9-.3c-.43 0-.78.14-1.02.4-.24.27-.36.6-.36 1.01v4.09h-.98v-4.3c0-.35-.12-.64-.35-.86a1.24 1.24 0 0 0-.9-.33c-.25 0-.48.07-.7.2-.21.13-.39.32-.52.55-.13.24-.2.51-.2.82v3.92h-.96Zm11.84.15c-.4 0-.75-.08-1.08-.23a1.86 1.86 0 0 1-.77-.66c-.2-.28-.29-.63-.29-1.04 0-.36.08-.65.22-.88.14-.22.33-.4.56-.53.24-.12.5-.22.79-.28.29-.07.58-.12.87-.16l.93-.1c.24-.04.41-.08.52-.14.11-.07.17-.17.17-.33v-.03c0-.4-.11-.72-.33-.94-.22-.23-.55-.34-1-.34-.46 0-.82.1-1.08.3-.26.2-.44.42-.55.65l-.92-.33a2.2 2.2 0 0 1 1.56-1.34 3.73 3.73 0 0 1 1.66-.05c.26.04.51.14.76.29.25.14.45.37.62.66.16.3.24.7.24 1.2v4.13h-.96v-.85h-.05a1.88 1.88 0 0 1-.94.83 2.3 2.3 0 0 1-.93.17Zm.15-.87c.38 0 .7-.07.97-.22a1.53 1.53 0 0 0 .8-1.33v-.88a.66.66 0 0 1-.27.13 4.55 4.55 0 0 1-1 .18l-.4.05c-.25.03-.48.08-.7.15-.22.08-.4.18-.53.33a.82.82 0 0 0-.2.58c0 .33.13.59.38.76.25.17.57.25.95.25Zm7.22-5.56v.82h-3.25v-.82h3.25Zm-2.3-1.5h.96v5.98c0 .27.04.48.12.61.08.14.18.23.3.27.14.05.27.07.41.07a1.71 1.71 0 0 0 .43-.05l.2.87a1.96 1.96 0 0 1-.72.11c-.28 0-.54-.06-.8-.17-.26-.12-.48-.3-.65-.54a1.54 1.54 0 0 1-.25-.9V6.47Zm3.75 7.78V7.98h.96v6.28h-.96Zm.49-7.32a.69.69 0 0 1-.49-.2.62.62 0 0 1-.2-.45c0-.18.07-.34.2-.47.14-.12.3-.19.49-.19s.35.07.48.2c.14.12.2.28.2.46a.6.6 0 0 1-.2.46.7.7 0 0 1-.48.19Zm4.79 7.45c-.59 0-1.1-.14-1.52-.42a2.72 2.72 0 0 1-.98-1.14 3.9 3.9 0 0 1-.34-1.68c0-.63.11-1.2.35-1.68a2.66 2.66 0 0 1 2.48-1.56c.43 0 .83.07 1.19.24a2.15 2.15 0 0 1 1.3 1.72h-.98a1.47 1.47 0 0 0-1.5-1.1c-.38 0-.7.1-.99.3-.28.19-.5.46-.66.81-.15.36-.23.77-.23 1.24 0 .49.08.9.23 1.27a1.71 1.71 0 0 0 1.65 1.14c.25 0 .48-.05.68-.14a1.4 1.4 0 0 0 .82-.96h.97a2.24 2.24 0 0 1-1.25 1.7c-.35.17-.76.26-1.22.26Zm11.07-2.7V8h.96v6.27h-.96V13.2h-.07a1.98 1.98 0 0 1-1.86 1.14c-.4 0-.74-.08-1.05-.26a1.8 1.8 0 0 1-.72-.78c-.17-.35-.26-.8-.26-1.33V7.98h.97v3.93c0 .45.12.82.38 1.1.26.26.59.4.99.4a1.64 1.64 0 0 0 1.62-1.72Zm2.73 4.92V7.98h.93v1h.11l.3-.42c.13-.17.3-.32.54-.45.24-.14.57-.2.98-.2a2.5 2.5 0 0 1 2.34 1.51c.22.49.34 1.06.34 1.72a4.2 4.2 0 0 1-.34 1.73 2.46 2.46 0 0 1-2.32 1.52 2 2 0 0 1-.98-.2 1.8 1.8 0 0 1-.56-.46 5.81 5.81 0 0 1-.3-.43h-.08v3.31h-.96Zm.94-5.49c0 .48.07.9.21 1.26a1.6 1.6 0 0 0 1.59 1.14c.4 0 .74-.1 1.01-.31.27-.22.48-.5.61-.87.14-.37.21-.77.21-1.22 0-.44-.07-.84-.2-1.2a1.84 1.84 0 0 0-.61-.84 1.6 1.6 0 0 0-1.02-.31 1.61 1.61 0 0 0-1.6 1.12c-.13.35-.2.76-.2 1.23Zm8.44 3.27a2.46 2.46 0 0 1-2.33-1.52 4.08 4.08 0 0 1-.34-1.73c0-.66.12-1.23.34-1.72a2.5 2.5 0 0 1 2.34-1.52c.41 0 .73.07.97.2a2 2 0 0 1 .55.46l.3.42h.08V5.9h.96v8.37h-.93v-.96h-.11l-.3.43a1.8 1.8 0 0 1-.57.46 2 2 0 0 1-.96.2Zm.13-.87c.38 0 .71-.1.98-.3.27-.2.47-.48.6-.84.14-.37.22-.78.22-1.26 0-.47-.07-.88-.2-1.23a1.6 1.6 0 0 0-1.6-1.12c-.41 0-.75.1-1.02.31s-.48.5-.61.85c-.14.35-.2.75-.2 1.2 0 .44.06.84.2 1.21a2 2 0 0 0 .61.87c.28.2.61.31 1.02.31Zm6.49.89c-.4 0-.76-.08-1.08-.23a1.86 1.86 0 0 1-.78-.66 1.86 1.86 0 0 1-.28-1.04c0-.36.07-.65.21-.88.14-.22.33-.4.57-.53.24-.12.5-.22.78-.28.3-.07.58-.12.87-.16l.93-.1c.24-.04.41-.08.52-.14.12-.07.17-.17.17-.33v-.03c0-.4-.1-.72-.33-.94-.22-.23-.55-.34-1-.34a1.72 1.72 0 0 0-1.63.95l-.91-.33a2.24 2.24 0 0 1 1.55-1.34 3.74 3.74 0 0 1 1.66-.05c.26.04.52.14.76.29.25.14.46.37.62.66.16.3.25.7.25 1.2v4.13h-.97v-.85h-.05c-.06.14-.17.28-.32.44-.16.15-.36.28-.61.4-.26.1-.57.16-.93.16Zm.15-.87c.38 0 .7-.07.96-.22a1.54 1.54 0 0 0 .8-1.33v-.88a.66.66 0 0 1-.27.13 4.52 4.52 0 0 1-1 .18l-.4.05a3.7 3.7 0 0 0-.7.15c-.21.08-.39.18-.52.33a.83.83 0 0 0-.2.58c0 .33.13.59.37.76.25.17.57.25.96.25Zm7.21-5.56v.82h-3.25v-.82h3.25Zm-2.3-1.5h.96v5.98c0 .27.04.48.12.61.08.14.19.23.31.27.13.05.27.07.4.07.11 0 .2 0 .27-.02l.16-.03.2.87a1.94 1.94 0 0 1-.72.11c-.27 0-.54-.06-.8-.17a1.6 1.6 0 0 1-.65-.54 1.54 1.54 0 0 1-.25-.9V6.47Zm6.32 7.91a2.69 2.69 0 0 1-2.57-1.53 3.85 3.85 0 0 1-.36-1.69 4 4 0 0 1 .35-1.7 2.65 2.65 0 0 1 2.48-1.57c.33 0 .65.06.97.17a2.4 2.4 0 0 1 1.5 1.5c.15.4.23.88.23 1.47v.4h-4.84v-.82h3.86c0-.36-.08-.67-.22-.95a1.6 1.6 0 0 0-1.5-.9 1.8 1.8 0 0 0-1.64 1.02c-.15.3-.22.63-.22.97v.56c0 .47.08.87.24 1.2.17.33.4.58.7.75.29.17.63.25 1.02.25.25 0 .48-.03.68-.1.21-.08.39-.18.54-.33.15-.15.26-.33.35-.55l.93.27a2.15 2.15 0 0 1-1.35 1.38c-.34.14-.73.2-1.15.2Zm8.5-5-.86.25a1.57 1.57 0 0 0-.24-.43c-.1-.13-.25-.25-.43-.34-.17-.09-.4-.13-.69-.13-.38 0-.7.08-.96.26-.25.18-.38.4-.38.67 0 .24.1.43.27.57.17.13.44.25.81.34l.94.23c.56.14.97.35 1.25.63.27.27.41.63.41 1.07 0 .36-.1.68-.3.97-.21.28-.5.5-.87.67-.36.16-.8.24-1.28.24a2.8 2.8 0 0 1-1.59-.42 1.85 1.85 0 0 1-.8-1.21l.92-.23c.09.34.25.59.5.76.24.17.56.25.95.25.45 0 .81-.1 1.07-.29.27-.19.4-.42.4-.69 0-.22-.07-.4-.22-.55a1.46 1.46 0 0 0-.7-.33l-1.05-.25a2.5 2.5 0 0 1-1.27-.63c-.27-.29-.4-.65-.4-1.08 0-.36.1-.67.3-.94.2-.28.47-.49.82-.64.35-.16.74-.24 1.19-.24.62 0 1.1.14 1.46.41.35.27.6.63.76 1.08Z" fill="#1F1F1F"/></svg>