<svg width="92" height="21" fill="none" xmlns="http://www.w3.org/2000/svg"><rect x=".07" y=".26" width="40" height="20" rx="10" fill="#0F67F5"/><circle cx="30.07" cy="10.26" fill="#fff" r="8"/><path d="M50.49 6.8v-.9h6.27v.9h-2.63v7.46h-1.01V6.79h-2.63Zm10.8 4.9V7.97h.97v6.28h-.96V13.2h-.07a1.98 1.98 0 0 1-1.86 1.14c-.4 0-.74-.08-1.05-.26a1.8 1.8 0 0 1-.72-.78c-.17-.35-.26-.8-.26-1.33V7.98h.97v3.93c0 .45.12.82.38 1.1.26.26.59.4.99.4a1.64 1.64 0 0 0 1.62-1.72Zm2.74 2.56V7.98h.93v.95h.06c.12-.3.32-.56.62-.75.3-.2.64-.3 1.02-.3a10.7 10.7 0 0 1 .5.02v.98a2.87 2.87 0 0 0-.58-.06c-.31 0-.58.06-.82.19s-.43.3-.57.52c-.13.22-.2.48-.2.76v3.97h-.96Zm5.24-3.78v3.78h-.96V7.98h.93v.99h.08c.15-.32.37-.58.67-.77.3-.2.69-.3 1.16-.3.42 0 .8.09 1.12.26.31.18.56.44.74.79.18.35.26.79.26 1.32v3.99h-.96v-3.92c0-.5-.13-.88-.38-1.15a1.37 1.37 0 0 0-1.06-.42c-.3 0-.58.07-.82.2s-.43.33-.57.58c-.14.26-.2.57-.2.93Zm11.55 3.91c-.57 0-1.06-.13-1.49-.4a2.75 2.75 0 0 1-1-1.14 3.83 3.83 0 0 1-.35-1.7c0-.65.12-1.22.35-1.7a2.66 2.66 0 0 1 2.5-1.54c.56 0 1.05.13 1.48.4.43.27.76.65 1 1.13.23.5.35 1.06.35 1.71a3.8 3.8 0 0 1-.36 1.7 2.67 2.67 0 0 1-2.48 1.54Zm0-.87c.43 0 .79-.1 1.06-.33.28-.22.49-.5.62-.87a3.42 3.42 0 0 0 0-2.34 1.98 1.98 0 0 0-.62-.88 1.64 1.64 0 0 0-1.06-.33c-.43 0-.78.11-1.06.33-.28.23-.48.52-.62.88a3.46 3.46 0 0 0 0 2.34c.14.36.34.65.62.87.28.22.63.33 1.06.33Zm5.28-3.04v3.78h-.96V7.98h.93v.99h.08c.15-.32.37-.58.67-.77.3-.2.69-.3 1.16-.3.42 0 .8.09 1.11.26.32.18.57.44.75.79.18.35.26.79.26 1.32v3.99h-.96v-3.92c0-.5-.13-.88-.38-1.15a1.37 1.37 0 0 0-1.06-.42c-.3 0-.58.07-.82.2s-.43.33-.57.58c-.14.26-.21.57-.21.93Z" fill="#1F1F1F"/></svg>