<svg width="108" height="21" fill="none" xmlns="http://www.w3.org/2000/svg"><rect x=".57" y=".26" width="40" height="20" rx="10" fill="#0F67F5"/><circle cx="30.57" cy="10.26" fill="#fff" r="8"/><path d="M56.02 7.98a1.28 1.28 0 0 0-.6-.96 2.29 2.29 0 0 0-1.28-.34c-.37 0-.7.06-.97.18-.28.12-.5.28-.65.5a1.18 1.18 0 0 0-.07 1.28c.11.16.25.3.42.4.17.1.35.19.53.26l.51.16.85.22c.22.06.46.14.73.24.27.1.53.24.77.41a1.9 1.9 0 0 1 .85 1.65c0 .46-.11.87-.35 1.23-.23.37-.58.66-1.03.87-.45.22-1 .33-1.64.33-.6 0-1.12-.1-1.55-.3a2.45 2.45 0 0 1-1.03-.8 2.3 2.3 0 0 1-.42-1.2h1.04c.03.3.13.57.32.78.19.2.42.35.71.45.29.1.6.15.93.15.39 0 .74-.06 1.04-.19.31-.12.56-.3.74-.53.17-.23.26-.5.26-.8 0-.28-.07-.5-.23-.68a1.7 1.7 0 0 0-.61-.42c-.25-.11-.53-.2-.82-.29l-1.03-.3a3.83 3.83 0 0 1-1.55-.8c-.39-.34-.58-.8-.58-1.36 0-.47.13-.88.38-1.23.26-.35.6-.62 1.03-.82.44-.2.92-.3 1.45-.3.54 0 1.02.1 1.44.3.42.19.75.45 1 .78.25.34.38.71.4 1.13h-.99Zm2.76 6.28V5.89h5.05v.9H59.8v2.83h3.78v.9H59.8v2.84h4.1v.9h-5.1ZM72.3 5.89v8.37h-.98l-4.56-6.57h-.08v6.57h-1.01V5.89h.98l4.57 6.59h.08V5.89h1Zm5.26 8.37V5.89h.97V9h.08c.07-.12.17-.26.3-.43.12-.17.3-.32.54-.45.24-.14.57-.2.97-.2a2.5 2.5 0 0 1 2.34 1.51 4 4 0 0 1 .34 1.72c0 .66-.1 1.24-.34 1.73a2.46 2.46 0 0 1-2.32 1.52 2 2 0 0 1-.97-.2 1.8 1.8 0 0 1-.56-.46 6.16 6.16 0 0 1-.3-.43h-.11v.96h-.94Zm.95-3.14c0 .48.07.9.21 1.26.14.36.34.64.6.84.28.2.6.3.99.3.4 0 .74-.1 1-.31.28-.22.49-.5.62-.87.14-.37.21-.77.21-1.22 0-.44-.07-.84-.2-1.2a1.84 1.84 0 0 0-.61-.84 1.6 1.6 0 0 0-1.02-.31 1.6 1.6 0 0 0-1.6 1.12c-.13.35-.2.76-.2 1.23Zm6.07 3.14V7.98h.93v.95h.07a1.76 1.76 0 0 1 1.63-1.05 10.7 10.7 0 0 1 .5.02v.98a2.87 2.87 0 0 0-.58-.06c-.3 0-.58.06-.82.19s-.42.3-.56.52c-.14.22-.2.48-.2.76v3.97h-.97Zm6.72.13a2.69 2.69 0 0 1-2.57-1.53 3.84 3.84 0 0 1-.36-1.69c0-.64.12-1.2.36-1.7A2.66 2.66 0 0 1 91.2 7.9c.32 0 .64.06.96.17a2.4 2.4 0 0 1 1.5 1.5c.15.4.23.88.23 1.47v.4h-4.84v-.82h3.86c0-.36-.07-.67-.22-.95a1.6 1.6 0 0 0-1.5-.9c-.38 0-.72.1-1 .29-.27.18-.49.43-.64.73-.15.3-.22.63-.22.97v.56c0 .47.08.87.24 1.2.17.33.4.58.7.75.29.17.63.25 1.02.25.25 0 .48-.03.69-.1.2-.08.38-.18.53-.33.15-.15.27-.33.35-.55l.93.27c-.1.31-.26.59-.5.83-.23.24-.51.42-.85.55-.34.14-.73.2-1.15.2Zm5.91.02c-.4 0-.76-.08-1.08-.23a1.86 1.86 0 0 1-.77-.66c-.2-.28-.29-.63-.29-1.04 0-.36.07-.65.21-.88.14-.22.33-.4.57-.53.24-.12.5-.22.78-.28.3-.07.58-.12.87-.16l.93-.1c.24-.04.42-.08.53-.14.1-.07.16-.17.16-.33v-.03c0-.4-.1-.72-.33-.94-.22-.23-.55-.34-1-.34a1.72 1.72 0 0 0-1.63.95l-.91-.33a2.2 2.2 0 0 1 1.55-1.34 3.73 3.73 0 0 1 1.66-.05 1.96 1.96 0 0 1 1.38.95c.17.3.25.7.25 1.2v4.13h-.97v-.85h-.05a1.88 1.88 0 0 1-.94.83c-.25.11-.55.17-.92.17Zm.15-.87c.38 0 .7-.07.96-.22a1.53 1.53 0 0 0 .8-1.33v-.88a.66.66 0 0 1-.27.13 4.53 4.53 0 0 1-.99.18l-.4.05a3.6 3.6 0 0 0-.7.15c-.22.08-.4.18-.53.33a.82.82 0 0 0-.2.58c0 .33.13.59.38.76.25.17.56.25.95.25Zm5.39-1.57-.02-1.2h.2l2.74-2.79h1.2l-2.93 2.96h-.08l-1.11 1.03Zm-.9 2.29V5.89h.96v8.37h-.96Zm3.98 0-2.45-3.1.69-.68 2.99 3.78h-1.23Z" fill="#1F1F1F"/></svg>