<svg width="672" height="307" fill="none" xmlns="http://www.w3.org/2000/svg"><path fill="#F6F6F6" d="M0 0h672v307H0z"/><rect x="18" y="33" width="636" height="241" rx="8" fill="#fff"/><g clip-path="url(#a)"><path d="M34 53a4 4 0 0 1 4-4h596a4 4 0 0 1 4 4v44H34V53Z" fill="#F0F6FE"/><path d="M50.9 78v-1.33l3.54-3.47c.34-.34.62-.64.84-.9.23-.27.4-.53.51-.78.11-.25.17-.51.17-.8a1.46 1.46 0 0 0-.82-1.36 1.94 1.94 0 0 0-.87-.18c-.33 0-.63.06-.88.2s-.45.33-.59.59c-.13.25-.2.55-.2.9h-1.75a2.99 2.99 0 0 1 1.66-2.8c.52-.26 1.11-.4 1.79-.4.68 0 1.28.14 1.8.4a2.73 2.73 0 0 1 1.64 2.57 3 3 0 0 1-.23 1.12c-.14.36-.4.77-.77 1.22-.36.45-.88.99-1.53 1.62l-1.76 1.79v.07h4.43V78H50.9Zm12.2 0v-7.64h1.8V78h-1.8Zm.9-8.72c-.29 0-.53-.1-.74-.28a.91.91 0 0 1-.3-.7c0-.27.1-.5.3-.69.2-.19.45-.28.74-.28s.53.1.73.28a.95.95 0 0 1 .01 1.39c-.2.19-.45.28-.74.28Zm6.56 1.08v1.4h-4.4v-1.4h4.4Zm-3.31-1.83h1.8v7.17c0 .25.04.43.1.56.09.13.18.21.3.26.13.04.27.07.42.07a1.76 1.76 0 0 0 .52-.07l.3 1.4a4 4 0 0 1-1.05.18c-.45.02-.86-.05-1.22-.2a1.9 1.9 0 0 1-.86-.7 2.1 2.1 0 0 1-.31-1.2v-7.47Zm8.11 9.62c-.77 0-1.43-.16-1.98-.48a3.23 3.23 0 0 1-1.28-1.36 4.56 4.56 0 0 1-.45-2.08c0-.79.15-1.48.45-2.07a3.38 3.38 0 0 1 3.17-1.9c.47 0 .91.08 1.33.23a3.19 3.19 0 0 1 1.88 1.9c.18.49.28 1.06.28 1.73v.55H72.5v-1.2h4.53a2 2 0 0 0-.22-.93 1.63 1.63 0 0 0-.61-.64 1.72 1.72 0 0 0-.91-.23 1.8 1.8 0 0 0-1.62.96 2 2 0 0 0-.23.94v1.06c0 .44.08.82.24 1.14.16.32.39.56.68.73a2.31 2.31 0 0 0 1.74.14c.2-.08.4-.19.55-.34.15-.14.27-.32.35-.54l1.68.2c-.1.44-.3.82-.6 1.16-.3.32-.68.58-1.14.76-.46.18-.99.27-1.58.27Zm4.92-.15v-7.64H82v1.3h.09c.16-.44.42-.78.79-1.02.37-.25.8-.38 1.32-.38.51 0 .95.13 1.3.38a2 2 0 0 1 .76 1.02h.08c.17-.42.45-.76.85-1.01.4-.26.89-.39 1.44-.39.7 0 1.28.23 1.72.67.44.44.67 1.1.67 1.94V78h-1.8v-4.85c0-.47-.13-.82-.39-1.04a1.35 1.35 0 0 0-.92-.33c-.43 0-.77.14-1.02.4a1.5 1.5 0 0 0-.36 1.06V78h-1.77v-4.92c0-.4-.12-.71-.36-.95a1.25 1.25 0 0 0-.92-.35c-.26 0-.5.07-.7.2a1.3 1.3 0 0 0-.51.55c-.13.24-.2.51-.2.83V78h-1.8Zm18.6-5.62-1.64.18a1.32 1.32 0 0 0-.7-.82c-.2-.09-.43-.13-.7-.13-.38 0-.7.08-.95.24-.26.16-.38.37-.38.63 0 .22.08.4.25.54.17.14.44.26.83.35l1.3.27c.73.16 1.26.4 1.62.75.35.33.53.78.53 1.32 0 .48-.14.9-.42 1.28-.28.36-.66.65-1.15.85-.49.2-1.05.3-1.69.3-.93 0-1.69-.19-2.26-.58a2.4 2.4 0 0 1-1.02-1.64l1.76-.17c.08.34.25.6.5.78.27.17.6.26 1.02.26.42 0 .77-.09 1.03-.26.26-.18.39-.4.39-.65 0-.22-.09-.4-.26-.54a1.77 1.77 0 0 0-.77-.33l-1.3-.28a3.1 3.1 0 0 1-1.63-.77 1.9 1.9 0 0 1-.52-1.38c0-.47.12-.88.38-1.22a2.5 2.5 0 0 1 1.09-.8c.47-.2 1-.3 1.62-.3.9 0 1.6.2 2.1.58.53.38.85.9.97 1.54Zm11.15 0-1.64.18a1.33 1.33 0 0 0-.24-.47 1.2 1.2 0 0 0-.46-.35 1.62 1.62 0 0 0-.7-.13c-.38 0-.7.08-.95.24-.25.16-.37.37-.37.63 0 .22.08.4.24.54.17.14.45.26.84.35l1.3.27c.72.16 1.26.4 1.61.75.36.33.53.78.54 1.32 0 .48-.15.9-.42 1.28a2.7 2.7 0 0 1-1.15.85c-.5.2-1.06.3-1.7.3-.93 0-1.68-.19-2.25-.58-.57-.4-.91-.94-1.02-1.64l1.76-.17c.08.34.24.6.5.78.26.17.6.26 1.01.26.43 0 .77-.09 1.03-.26.26-.18.4-.4.4-.65 0-.22-.09-.4-.26-.54a1.76 1.76 0 0 0-.77-.33l-1.3-.28a3.1 3.1 0 0 1-1.63-.77 1.89 1.89 0 0 1-.53-1.38c0-.47.13-.88.39-1.22a2.5 2.5 0 0 1 1.09-.8c.46-.2 1-.3 1.61-.3.9 0 1.6.2 2.12.58.51.38.83.9.95 1.54Zm5.03 5.77c-.76 0-1.42-.16-1.98-.48a3.23 3.23 0 0 1-1.28-1.36 4.57 4.57 0 0 1-.45-2.08c0-.79.15-1.48.45-2.07a3.38 3.38 0 0 1 3.17-1.9c.47 0 .91.08 1.33.23a3.17 3.17 0 0 1 1.88 1.9c.19.49.28 1.06.28 1.73v.55h-6.26v-1.2h4.53c0-.35-.07-.66-.22-.93a1.63 1.63 0 0 0-.61-.64 1.72 1.72 0 0 0-.9-.23c-.37 0-.7.09-.98.26-.27.18-.5.41-.65.7a2 2 0 0 0-.23.94v1.06c0 .44.08.82.24 1.14.17.32.4.56.68.73.3.16.64.25 1.03.25.26 0 .5-.04.7-.11.22-.08.4-.19.56-.34.16-.14.27-.32.35-.54l1.68.2c-.1.44-.3.82-.6 1.16a3 3 0 0 1-1.14.76c-.46.18-.98.27-1.58.27Zm6.72-10.33V78h-1.8V67.82h1.8Zm5.23 10.33c-.76 0-1.42-.16-1.98-.48a3.23 3.23 0 0 1-1.28-1.36 4.57 4.57 0 0 1-.45-2.08c0-.79.15-1.48.45-2.07a3.39 3.39 0 0 1 3.17-1.9c.47 0 .91.08 1.33.23a3.19 3.19 0 0 1 1.88 1.9c.19.49.28 1.06.28 1.73v.55h-6.26v-1.2h4.53a2 2 0 0 0-.22-.93 1.63 1.63 0 0 0-1.52-.87c-.36 0-.69.09-.97.26-.28.18-.5.41-.65.7-.15.29-.23.6-.23.94v1.06c0 .44.08.82.24 1.14.16.32.4.56.68.73.3.16.64.25 1.03.25.26 0 .5-.04.7-.11.22-.08.4-.19.56-.34.16-.14.27-.32.35-.54l1.68.2c-.1.44-.3.82-.6 1.16-.3.32-.68.58-1.14.76-.46.18-.98.27-1.58.27Zm8.25 0a3.35 3.35 0 0 1-3.22-1.89c-.3-.6-.44-1.28-.44-2.05 0-.77.15-1.46.45-2.05.3-.6.72-1.06 1.26-1.4a3.7 3.7 0 0 1 1.94-.5c.62 0 1.17.12 1.65.35a2.81 2.81 0 0 1 1.63 2.4h-1.72a1.65 1.65 0 0 0-.5-.92 1.4 1.4 0 0 0-1.03-.37c-.37 0-.7.1-.97.3-.28.19-.5.47-.65.84-.16.37-.23.8-.23 1.32s.07.97.23 1.34c.15.38.36.66.64.86.27.2.6.3.98.3.26 0 .5-.05.7-.15.22-.1.4-.25.54-.44.14-.2.24-.42.3-.7h1.71a2.83 2.83 0 0 1-1.6 2.41c-.47.23-1.03.35-1.67.35Zm8.56-7.79v1.4h-4.39v-1.4h4.4Zm-3.3-1.83h1.8v7.17c0 .25.03.43.1.56a.6.6 0 0 0 .3.26c.13.04.26.07.41.07a1.75 1.75 0 0 0 .53-.07l.3 1.4a4 4 0 0 1-1.06.18c-.45.02-.85-.05-1.21-.2a1.9 1.9 0 0 1-.86-.7 2.1 2.1 0 0 1-.31-1.2v-7.47Zm8.1 9.62c-.76 0-1.42-.16-1.98-.48a3.23 3.23 0 0 1-1.27-1.36 4.57 4.57 0 0 1-.45-2.08c0-.79.15-1.48.45-2.07a3.39 3.39 0 0 1 3.16-1.9c.47 0 .92.08 1.34.23a3 3 0 0 1 1.1.7c.33.31.59.71.78 1.2.18.49.27 1.06.27 1.73v.55h-6.26v-1.2h4.54c0-.35-.08-.66-.23-.93a1.62 1.62 0 0 0-.6-.64 1.72 1.72 0 0 0-.91-.23 1.8 1.8 0 0 0-1.62.96 2 2 0 0 0-.24.94v1.06c0 .44.09.82.25 1.14.16.32.39.56.68.73a2.25 2.25 0 0 0 1.73.14c.22-.08.4-.19.55-.34.16-.14.28-.32.36-.54l1.68.2a2.69 2.69 0 0 1-1.74 1.92c-.46.18-.99.27-1.58.27Zm7.76-.02a2.89 2.89 0 0 1-2.73-1.8 5.01 5.01 0 0 1-.42-2.14c0-.85.14-1.56.42-2.15a2.92 2.92 0 0 1 3.84-1.55c.29.15.52.33.68.54.17.21.3.41.4.6h.07v-3.81h1.8V78h-1.76v-1.2h-.11c-.1.18-.23.38-.4.59a2.2 2.2 0 0 1-1.79.74Zm.5-1.47c.38 0 .7-.1.98-.31.26-.2.47-.5.6-.87.15-.37.22-.8.22-1.3s-.07-.92-.21-1.29a1.83 1.83 0 0 0-.6-.85c-.27-.2-.6-.3-.99-.3-.4 0-.73.1-1 .31s-.47.5-.6.87c-.15.37-.21.79-.21 1.26 0 .48.06.9.2 1.28a2 2 0 0 0 .61.88c.27.21.6.32 1 .32Z" fill="#333"/><rect x="262" y="57" width="124" height="32" rx="4" fill="#fff"/><path d="M289.79 77.37v.5h9.09v-6.08h.24V78c0 .06-.06.12-.12.12h-9.33a.12.12 0 0 1-.12-.12v-6.21h.24v5.58Zm-.91-7.5V68c0-.06.06-.12.12-.12h10.67c.07 0 .12.05.12.12v1.87a1.13 1.13 0 0 0-.25-.18v-1.57h-10.42v1.58a.84.84 0 0 0-.24.18Zm.67.92v-.12c0-.06.06-.12.12-.12H299c.07 0 .12.05.12.12v.12h-9.57Zm2.9 3.25v.5h3.75v-1.75h-3.75v1.25Zm3.88.75h-4a.12.12 0 0 1-.12-.12v-2c0-.06.06-.12.12-.12h4c.07 0 .12.05.12.12v2c0 .06-.06.12-.12.12Z" fill="#0F67F5" stroke="#0F67F5"/><path d="M312.42 78h-1.97l3.58-10.18h2.28L319.9 78h-1.97l-2.72-8.1h-.08l-2.71 8.1Zm.06-4h5.37v1.49h-5.37V74Zm8.68 4v-7.64h1.75v1.28h.08a1.9 1.9 0 0 1 1.88-1.39 4.14 4.14 0 0 1 .65.05v1.66a3.34 3.34 0 0 0-.84-.1c-.33 0-.62.07-.88.2a1.57 1.57 0 0 0-.84 1.45V78h-1.8Zm8.57.15a3.35 3.35 0 0 1-3.22-1.89c-.3-.6-.44-1.28-.44-2.05 0-.77.15-1.46.45-2.05a3.34 3.34 0 0 1 3.2-1.9c.62 0 1.17.12 1.64.35A2.8 2.8 0 0 1 333 73h-1.72a1.64 1.64 0 0 0-.5-.92c-.26-.25-.6-.37-1.04-.37-.37 0-.69.1-.97.3-.27.19-.5.47-.65.84-.15.37-.23.8-.23 1.32s.08.97.23 1.34c.15.38.37.66.64.86.28.2.6.3.98.3.27 0 .5-.05.71-.15.22-.1.4-.25.54-.44.14-.2.24-.42.29-.7H333a2.82 2.82 0 0 1-1.6 2.41c-.47.23-1.03.35-1.67.35Zm6.55-4.62V78h-1.8V67.82h1.76v3.84h.09c.18-.43.45-.77.83-1.02.38-.25.86-.38 1.44-.38.53 0 1 .12 1.39.34.39.22.7.54.91.97.22.43.33.95.33 1.57V78h-1.8v-4.58c0-.52-.13-.92-.4-1.2a1.41 1.41 0 0 0-1.1-.43c-.32 0-.6.07-.86.2-.25.14-.44.34-.58.6-.14.25-.21.57-.21.94Zm6.78 4.47v-7.64h1.8V78h-1.8Zm.9-8.72c-.28 0-.52-.1-.73-.28a.91.91 0 0 1-.3-.7c0-.27.1-.5.3-.69.2-.19.45-.28.74-.28s.53.1.73.28c.21.2.31.42.31.7 0 .26-.1.5-.3.69-.2.19-.45.28-.74.28Zm9.58 1.08L350.8 78h-1.98l-2.72-7.64h1.92l1.75 5.68h.08l1.76-5.68h1.92Zm4.36 7.79a3.9 3.9 0 0 1-1.98-.48 3.23 3.23 0 0 1-1.28-1.36 4.55 4.55 0 0 1-.45-2.08c0-.79.15-1.48.45-2.07a3.38 3.38 0 0 1 3.17-1.9c.47 0 .91.08 1.33.23a3.19 3.19 0 0 1 1.88 1.9c.18.49.28 1.06.28 1.73v.55h-6.26v-1.2h4.53a2 2 0 0 0-.22-.93 1.63 1.63 0 0 0-.61-.64 1.72 1.72 0 0 0-.9-.23c-.38 0-.7.09-.98.26-.28.18-.5.41-.65.7a2 2 0 0 0-.23.94v1.06c0 .44.08.82.24 1.14.16.32.39.56.68.73.3.16.64.25 1.03.25.26 0 .5-.04.7-.11.22-.08.4-.19.56-.34.16-.14.27-.32.35-.54l1.68.2c-.1.44-.3.82-.6 1.16-.3.32-.68.58-1.14.76-.46.18-.99.27-1.58.27Z" fill="#0F67F5"/><rect x="262" y="57" width="124" height="32" rx="4" stroke="#0F67F5"/><rect x="394" y="57" width="116" height="32" rx="4" fill="#fff"/><path d="M421.78 78v.5h.5l6.7.04h.5l.01-.5.04-6.7v-.01c0-.07.05-.12.12-.12.06 0 .12.06.12.12V78a.8.8 0 0 1-.2.58.8.8 0 0 1-.59.21h-6.65a.8.8 0 0 1-.58-.2.8.8 0 0 1-.21-.59v-6.67c0-.07.05-.12.12-.12.06 0 .12.06.12.12V78Zm1.93-9.45h.5v-.54c0-.07.05-.12.12-.12H427c.07 0 .12.05.12.12v.54h3.21c.07 0 .12.05.12.12 0 .06-.06.12-.12.12H421a.12.12 0 0 1-.12-.12c0-.06.06-.12.12-.12h2.71Z" fill="#0F67F5" stroke="#0F67F5"/><path d="M446.5 78h-3.46V67.82h3.52c1.01 0 1.88.2 2.6.61.73.4 1.3.99 1.69 1.74.39.76.58 1.67.58 2.73s-.2 1.97-.59 2.73a4.02 4.02 0 0 1-1.7 1.76 5.4 5.4 0 0 1-2.65.61Zm-1.62-1.6h1.52c.71 0 1.3-.13 1.78-.38.47-.27.83-.65 1.06-1.17.24-.52.36-1.17.36-1.95a4.6 4.6 0 0 0-.36-1.94c-.23-.52-.59-.9-1.05-1.16a3.52 3.52 0 0 0-1.73-.39h-1.57v7Zm11.6 1.75c-.76 0-1.42-.16-1.98-.48a3.23 3.23 0 0 1-1.27-1.36 4.55 4.55 0 0 1-.45-2.08c0-.79.15-1.48.45-2.07a3.38 3.38 0 0 1 3.16-1.9c.47 0 .92.08 1.33.23a3.17 3.17 0 0 1 1.88 1.9c.19.49.28 1.06.28 1.73v.55h-6.26v-1.2h4.54c0-.35-.08-.66-.23-.93a1.63 1.63 0 0 0-.6-.64 1.72 1.72 0 0 0-.91-.23 1.8 1.8 0 0 0-1.62.96 2 2 0 0 0-.24.94v1.06c0 .44.08.82.25 1.14.16.32.38.56.68.73a2.25 2.25 0 0 0 1.73.14 1.55 1.55 0 0 0 .91-.88l1.68.2a2.69 2.69 0 0 1-1.74 1.92c-.46.18-1 .27-1.58.27Zm6.72-10.33V78h-1.8V67.82h1.8Zm5.24 10.33c-.77 0-1.43-.16-1.99-.48a3.23 3.23 0 0 1-1.28-1.36 4.57 4.57 0 0 1-.44-2.08c0-.79.15-1.48.44-2.07a3.38 3.38 0 0 1 3.17-1.9c.47 0 .92.08 1.33.23a3.17 3.17 0 0 1 1.88 1.9c.19.49.28 1.06.28 1.73v.55h-6.26v-1.2h4.54c0-.35-.08-.66-.23-.93a1.63 1.63 0 0 0-1.51-.87 1.8 1.8 0 0 0-1.62.96 2 2 0 0 0-.24.94v1.06c0 .44.08.82.25 1.14.16.32.38.56.68.73a2.25 2.25 0 0 0 1.73.14 1.55 1.55 0 0 0 .91-.88l1.68.2a2.7 2.7 0 0 1-1.74 1.92c-.46.18-1 .27-1.58.27Zm8.73-7.79v1.4h-4.4v-1.4h4.4Zm-3.3-1.83h1.79v7.17c0 .25.04.43.11.56.08.13.18.21.3.26.12.04.26.07.4.07a1.76 1.76 0 0 0 .53-.07l.3 1.4a4 4 0 0 1-1.05.18c-.45.02-.86-.05-1.22-.2a1.9 1.9 0 0 1-.86-.7 2.1 2.1 0 0 1-.3-1.2v-7.47Zm8.1 9.62c-.77 0-1.43-.16-1.98-.48a3.23 3.23 0 0 1-1.28-1.36 4.57 4.57 0 0 1-.45-2.08c0-.79.15-1.48.45-2.07a3.39 3.39 0 0 1 3.17-1.9c.47 0 .91.08 1.33.23a3 3 0 0 1 1.11.7c.33.31.58.71.77 1.2.18.49.28 1.06.28 1.73v.55h-6.26v-1.2h4.53a2 2 0 0 0-.22-.93 1.62 1.62 0 0 0-.61-.64 1.72 1.72 0 0 0-.9-.23c-.38 0-.7.09-.98.26-.28.18-.5.41-.65.7-.15.29-.23.6-.23.94v1.06c0 .44.08.82.24 1.14.16.32.39.56.68.73a2.31 2.31 0 0 0 1.74.14c.2-.08.4-.19.55-.34.15-.14.27-.32.35-.54l1.68.2c-.1.44-.3.82-.6 1.16-.3.32-.68.58-1.14.76-.46.18-.99.27-1.58.27Z" fill="#0F67F5"/><rect x="394" y="57" width="116" height="32" rx="4" stroke="#0F67F5"/><path stroke="#333" d="M518.5 66.83v12.34"/><rect x="526" y="57" width="96" height="32" rx="4" fill="#fff"/><path d="M560.22 71.25h-1.86a2.32 2.32 0 0 0-.83-1.41 2.21 2.21 0 0 0-.72-.38 2.83 2.83 0 0 0-.87-.13c-.56 0-1.05.14-1.48.42-.42.28-.76.68-1 1.22a4.67 4.67 0 0 0-.36 1.94c0 .78.12 1.43.36 1.97.25.53.58.93 1 1.2a2.96 2.96 0 0 0 2.32.28 2.33 2.33 0 0 0 1.27-.95c.15-.23.25-.5.3-.8l1.87.02a4.01 4.01 0 0 1-2.66 3.24c-.5.18-1.05.27-1.65.27a4.34 4.34 0 0 1-4.06-2.42 6.1 6.1 0 0 1-.6-2.81 6 6 0 0 1 .6-2.81 4.37 4.37 0 0 1 4.06-2.42c.56 0 1.1.08 1.58.24a3.98 3.98 0 0 1 2.24 1.82c.25.44.41.95.49 1.51Zm3.8 6.9a3.2 3.2 0 0 1-1.3-.25 2.14 2.14 0 0 1-.92-.78 2.27 2.27 0 0 1-.33-1.26c0-.43.08-.79.24-1.07.16-.28.37-.5.65-.68.27-.17.58-.3.93-.38.35-.09.7-.15 1.08-.2l1.09-.12c.27-.04.48-.1.6-.18.13-.08.2-.2.2-.38v-.03c0-.37-.11-.66-.34-.87-.22-.2-.54-.3-.96-.3-.44 0-.79.09-1.05.28-.25.2-.42.42-.51.68l-1.68-.24a2.68 2.68 0 0 1 1.77-1.87 4.76 4.76 0 0 1 2.56-.1c.37.08.7.22 1 .42.3.2.55.46.73.8.18.34.28.76.28 1.27V78h-1.73v-1.05h-.06a2.21 2.21 0 0 1-1.2 1.04c-.3.1-.65.16-1.05.16Zm.47-1.32c.36 0 .68-.07.94-.21a1.55 1.55 0 0 0 .83-1.36v-.9a.86.86 0 0 1-.29.13 14.09 14.09 0 0 1-1.36.24c-.27.04-.5.1-.72.18-.21.09-.38.2-.5.35a.85.85 0 0 0-.19.57c0 .33.13.58.37.75.24.17.55.25.92.25Zm7.18-3.3V78h-1.8v-7.64h1.72v1.3h.09c.17-.43.45-.77.84-1.02.38-.25.86-.38 1.43-.38.53 0 .99.12 1.38.34.4.23.7.55.91.98.22.43.33.95.33 1.56V78h-1.8v-4.58c0-.51-.13-.91-.4-1.2a1.4 1.4 0 0 0-1.09-.43c-.31 0-.6.07-.84.2a1.5 1.5 0 0 0-.57.6 2 2 0 0 0-.2.94Zm10.06 4.62a3.35 3.35 0 0 1-3.22-1.89c-.3-.6-.44-1.28-.44-2.05 0-.77.15-1.46.45-2.05a3.34 3.34 0 0 1 3.2-1.9c.62 0 1.17.12 1.64.35A2.8 2.8 0 0 1 585 73h-1.72a1.64 1.64 0 0 0-.5-.92c-.26-.25-.6-.37-1.04-.37-.37 0-.69.1-.97.3-.27.19-.5.47-.65.84-.15.37-.23.8-.23 1.32s.08.97.23 1.34c.15.38.37.66.64.86.28.2.6.3.98.3.27 0 .5-.05.71-.15.22-.1.4-.25.54-.44.14-.2.24-.42.29-.7H585a2.82 2.82 0 0 1-1.6 2.41 3.8 3.8 0 0 1-1.67.35Zm8.13 0c-.77 0-1.43-.16-1.99-.48a3.23 3.23 0 0 1-1.27-1.36 4.55 4.55 0 0 1-.45-2.08c0-.79.15-1.48.45-2.07a3.38 3.38 0 0 1 3.16-1.9c.47 0 .92.08 1.34.23a3.17 3.17 0 0 1 1.87 1.9c.2.49.28 1.06.28 1.73v.55H587v-1.2h4.54c0-.35-.08-.66-.23-.93a1.63 1.63 0 0 0-.6-.64 1.72 1.72 0 0 0-.91-.23 1.8 1.8 0 0 0-1.62.96 2 2 0 0 0-.24.94v1.06c0 .44.09.82.25 1.14.16.32.39.56.68.73a2.25 2.25 0 0 0 1.73.14c.22-.08.4-.19.56-.34.15-.14.27-.32.35-.54l1.68.2c-.1.44-.3.82-.6 1.16-.3.32-.68.58-1.14.76-.46.18-.99.27-1.58.27Zm6.72-10.33V78h-1.8V67.82h1.8Z" fill="#0F67F5"/><rect x="526" y="57" width="96" height="32" rx="4" stroke="#0F67F5"/><mask id="c" fill="#fff"><path d="M34 97.5h40v40H34v-40Z"/></mask><path d="M34 97.5h40v40H34v-40Z" fill="#F6F6F6"/><path d="M34 101.5a4 4 0 0 1 4-4h36v40H34v-36Z" fill="#F6F6F6"/><g clip-path="url(#b)"><rect x="46" y="109" width="16" height="16" rx="2" fill="#0F67F5"/><path d="M58 117h-8" stroke="#fff" stroke-width="1.7" stroke-linecap="round"/></g><path d="M34 97.5h40-40Zm40 41H34v-2h40v2Zm-40-1v-40 40Zm40-40v40-40Z" fill="#F6F6F6" mask="url(#c)"/><mask id="d" fill="#fff"><path d="M74 97h122v41H74V97Z"/></mask><path d="M74 97h122v41H74V97Z" fill="#F6F6F6"/><path d="M80.54 114.62a1.36 1.36 0 0 0-.59-1.02 2.25 2.25 0 0 0-1.33-.36c-.39 0-.72.06-1 .17-.27.12-.48.28-.62.48a1.15 1.15 0 0 0-.08 1.23c.1.16.23.29.4.4.17.1.36.2.56.27.2.07.42.13.62.18l.96.24c.38.09.75.2 1.1.36.37.15.69.35.97.58a2.53 2.53 0 0 1 .92 2 2.76 2.76 0 0 1-1.78 2.63 5.2 5.2 0 0 1-2.08.37 5.3 5.3 0 0 1-2.06-.36 3.07 3.07 0 0 1-1.37-1.08 3.18 3.18 0 0 1-.52-1.72h1.81c.03.36.14.65.33.89.2.23.44.4.75.52s.66.18 1.04.18c.4 0 .76-.06 1.06-.18.3-.12.54-.3.71-.5.18-.23.26-.48.27-.77a.97.97 0 0 0-.24-.66 1.72 1.72 0 0 0-.64-.44 6.12 6.12 0 0 0-.95-.32l-1.16-.3a4.66 4.66 0 0 1-1.99-.97 2.26 2.26 0 0 1-.73-1.76c0-.6.17-1.12.5-1.57.32-.45.77-.8 1.33-1.05s1.2-.38 1.91-.38c.73 0 1.36.13 1.9.38.55.25.98.6 1.29 1.04.31.44.47.94.48 1.52h-1.77Zm6.86 7.53c-.77 0-1.43-.16-1.99-.48a3.24 3.24 0 0 1-1.27-1.36 4.56 4.56 0 0 1-.45-2.08c0-.79.15-1.48.45-2.07a3.4 3.4 0 0 1 3.16-1.9c.47 0 .92.08 1.34.23a3 3 0 0 1 1.1.7c.33.31.59.72.77 1.2.19.49.28 1.06.28 1.73v.55h-6.26v-1.2h4.54c0-.35-.08-.66-.23-.93a1.63 1.63 0 0 0-.6-.64 1.72 1.72 0 0 0-.91-.23 1.84 1.84 0 0 0-1.62.97 2 2 0 0 0-.24.93v1.06c0 .44.08.83.25 1.14.16.32.39.56.68.73a2.25 2.25 0 0 0 1.73.14c.22-.08.4-.19.55-.33.16-.15.28-.33.36-.55l1.68.2a2.69 2.69 0 0 1-1.74 1.92c-.46.18-.99.27-1.58.27Zm10.95-5.77-1.64.18a1.32 1.32 0 0 0-.7-.82c-.2-.09-.43-.13-.7-.13-.38 0-.7.08-.95.24-.25.16-.38.37-.37.63 0 .22.07.4.24.54.17.14.45.26.83.35l1.3.27c.73.16 1.27.4 1.62.75.35.33.53.78.53 1.32 0 .48-.14.9-.42 1.28-.27.36-.66.65-1.15.85-.49.2-1.05.3-1.69.3-.93 0-1.68-.19-2.25-.58-.57-.4-.91-.94-1.02-1.64l1.75-.17c.08.34.25.6.5.78.27.17.6.26 1.02.26.43 0 .77-.09 1.03-.26.26-.18.4-.4.4-.65a.78.78 0 0 0-.26-.55 1.77 1.77 0 0 0-.78-.32l-1.3-.28a3.1 3.1 0 0 1-1.63-.77 1.9 1.9 0 0 1-.52-1.38c0-.47.13-.88.38-1.22a2.5 2.5 0 0 1 1.1-.8 4 4 0 0 1 1.6-.3c.9 0 1.6.2 2.12.58.52.38.84.9.96 1.54Zm7.68 0-1.64.18a1.33 1.33 0 0 0-.24-.47 1.2 1.2 0 0 0-.46-.35 1.62 1.62 0 0 0-.7-.13c-.38 0-.7.08-.95.24-.25.16-.37.37-.37.63 0 .22.08.4.24.54.17.14.45.26.84.35l1.3.27c.72.16 1.26.4 1.61.75.36.33.53.78.54 1.32 0 .48-.15.9-.42 1.28-.28.36-.66.65-1.15.85-.5.2-1.06.3-1.7.3-.93 0-1.68-.19-2.25-.58-.57-.4-.91-.94-1.02-1.64l1.76-.17c.08.34.24.6.5.78.26.17.6.26 1.01.26.43 0 .77-.09 1.03-.26.26-.18.4-.4.4-.65a.7.7 0 0 0-.26-.55 1.77 1.77 0 0 0-.77-.32l-1.3-.28a3.1 3.1 0 0 1-1.63-.77 1.9 1.9 0 0 1-.53-1.38c0-.47.13-.88.39-1.22a2.5 2.5 0 0 1 1.09-.8c.46-.2 1-.3 1.61-.3.9 0 1.6.2 2.12.58.51.38.83.9.95 1.54Zm1.65 5.62v-7.64h1.8V122h-1.8Zm.9-8.72c-.28 0-.52-.1-.73-.28a.91.91 0 0 1-.3-.7c0-.27.1-.5.3-.69.2-.19.45-.28.74-.28s.53.1.73.28a.95.95 0 0 1 .01 1.39c-.2.19-.45.28-.74.28Zm6.08 8.87a3.7 3.7 0 0 1-1.94-.5 3.34 3.34 0 0 1-1.27-1.37 4.53 4.53 0 0 1-.45-2.07c0-.79.15-1.48.45-2.07.3-.6.73-1.06 1.27-1.38a3.7 3.7 0 0 1 1.94-.5c.75 0 1.4.17 1.94.5.55.32.97.78 1.27 1.38.3.6.45 1.28.45 2.07a4.5 4.5 0 0 1-.45 2.07c-.3.59-.72 1.05-1.27 1.38-.54.33-1.19.49-1.94.49Zm.01-1.44c.4 0 .75-.11 1.02-.34a2 2 0 0 0 .6-.9c.14-.38.2-.8.2-1.26 0-.47-.06-.9-.2-1.27a2 2 0 0 0-.6-.91 1.54 1.54 0 0 0-1.02-.34c-.41 0-.75.11-1.03.34a2 2 0 0 0-.61.9 3.95 3.95 0 0 0 0 2.54c.13.38.34.68.61.9.28.23.62.34 1.03.34Zm6.98-3.18V122h-1.8v-7.64h1.72v1.3h.09c.18-.43.46-.77.84-1.02.39-.25.87-.38 1.44-.38.52 0 .98.12 1.37.34.4.23.7.55.92.98.22.43.33.95.32 1.56V122h-1.8v-4.58c0-.51-.13-.91-.4-1.2a1.4 1.4 0 0 0-1.08-.43c-.32 0-.6.06-.84.2-.25.14-.44.34-.58.6a2 2 0 0 0-.2.94Zm18.65-5.71V122h-1.64l-4.8-6.94h-.08V122h-1.85v-10.18h1.66l4.79 6.94h.09v-6.94h1.83Zm4.13 10.33a3.2 3.2 0 0 1-1.3-.25 2.15 2.15 0 0 1-.92-.78 2.27 2.27 0 0 1-.34-1.26c0-.43.08-.79.24-1.07.16-.28.38-.5.65-.68.28-.17.59-.3.93-.38.35-.09.71-.16 1.08-.2l1.1-.12c.27-.04.47-.1.6-.18.13-.08.2-.2.2-.38v-.03c0-.38-.12-.66-.34-.87-.22-.2-.54-.3-.96-.3-.44 0-.8.09-1.05.28-.26.2-.43.42-.52.68l-1.68-.24a2.68 2.68 0 0 1 1.78-1.87 4.77 4.77 0 0 1 2.56-.11c.36.09.7.23 1 .43.3.2.54.46.72.8.19.34.28.76.28 1.27V122h-1.73v-1.05h-.06a2.21 2.21 0 0 1-1.2 1.04 3 3 0 0 1-1.04.16Zm.47-1.32a2 2 0 0 0 .94-.21c.26-.15.47-.34.6-.58.15-.24.23-.5.23-.78v-.9a.85.85 0 0 1-.3.13 12.89 12.89 0 0 1-1.36.24c-.26.04-.5.1-.72.18-.2.09-.38.2-.5.35a.85.85 0 0 0-.18.57c0 .33.12.58.36.75.24.17.55.25.93.25Zm5.37 1.17v-7.64h1.72v1.3h.09c.16-.44.42-.78.8-1.02.36-.25.8-.38 1.3-.38.53 0 .96.13 1.32.38.35.25.6.59.75 1.02h.08c.17-.42.45-.76.86-1.01.4-.26.88-.39 1.43-.39.7 0 1.28.23 1.72.67.45.44.67 1.1.67 1.94V122h-1.8v-4.85c0-.47-.13-.82-.38-1.04a1.35 1.35 0 0 0-.93-.33c-.43 0-.77.14-1.02.4a1.5 1.5 0 0 0-.36 1.06V122h-1.77v-4.92c0-.4-.12-.71-.35-.95a1.25 1.25 0 0 0-.93-.35c-.26 0-.5.07-.7.2a1.4 1.4 0 0 0-.51.55 1.7 1.7 0 0 0-.19.83V122h-1.8Zm15.95.15c-.77 0-1.43-.16-1.99-.48a3.23 3.23 0 0 1-1.28-1.36 4.57 4.57 0 0 1-.44-2.08c0-.79.15-1.48.44-2.07a3.4 3.4 0 0 1 3.17-1.9c.47 0 .92.08 1.33.23a3 3 0 0 1 1.12.7c.32.31.58.72.76 1.2.19.49.28 1.06.28 1.73v.55h-6.26v-1.2h4.54c0-.35-.08-.66-.23-.93a1.62 1.62 0 0 0-.6-.64 1.72 1.72 0 0 0-.91-.23c-.37 0-.7.09-.97.27-.28.17-.5.4-.66.7a2 2 0 0 0-.23.93v1.06c0 .44.08.83.25 1.14.16.32.39.56.68.73a2.25 2.25 0 0 0 1.73.14c.21-.08.4-.19.55-.33.16-.15.28-.33.36-.55l1.68.2c-.1.44-.31.82-.61 1.16-.3.32-.67.58-1.13.76-.46.18-1 .27-1.58.27Z" fill="#1F1F1F"/><path d="M74 97h122H74Zm122 42H74v-2h122v2Zm-122-1V97v41Zm122-41v41-41Z" fill="#F6F6F6" mask="url(#d)"/><mask id="e" fill="#fff"><path d="M196 97h158v41H196V97Z"/></mask><path d="M196 97h158v41H196V97Z" fill="#F6F6F6"/><path d="M212.46 122H209v-10.18h3.52c1.01 0 1.88.2 2.6.61.74.4 1.3.99 1.69 1.74.4.76.59 1.67.59 2.73a5.9 5.9 0 0 1-.6 2.73 4.02 4.02 0 0 1-1.7 1.76 5.4 5.4 0 0 1-2.64.61Zm-1.61-1.6h1.52c.7 0 1.3-.13 1.77-.38.47-.27.83-.66 1.07-1.17.24-.52.36-1.17.36-1.95s-.12-1.43-.36-1.94a2.5 2.5 0 0 0-1.06-1.16 3.51 3.51 0 0 0-1.73-.39h-1.57v7Zm10.42 1.75a3.2 3.2 0 0 1-1.31-.25 2.15 2.15 0 0 1-.92-.78 2.27 2.27 0 0 1-.33-1.26c0-.43.08-.79.24-1.07.16-.28.38-.5.65-.68.28-.17.59-.3.93-.38.35-.09.7-.16 1.08-.2l1.09-.12c.28-.04.48-.1.6-.18.13-.08.2-.2.2-.38v-.03c0-.38-.11-.66-.33-.87-.23-.2-.55-.3-.96-.3-.44 0-.8.09-1.05.28-.26.2-.43.42-.52.68l-1.68-.24a2.67 2.67 0 0 1 1.78-1.87 4.77 4.77 0 0 1 2.56-.11c.36.09.7.23 1 .43.3.2.54.46.72.8.19.34.28.76.28 1.27V122h-1.73v-1.05h-.06a2.21 2.21 0 0 1-1.2 1.04 3 3 0 0 1-1.04.16Zm.46-1.32c.37 0 .68-.07.94-.21a1.52 1.52 0 0 0 .83-1.36v-.9a.86.86 0 0 1-.28.13 13.22 13.22 0 0 1-1.36.24c-.28.04-.52.1-.73.18-.21.09-.38.2-.5.35a.85.85 0 0 0-.18.57c0 .33.12.58.36.75.24.17.55.25.92.25Zm9.2-6.47v1.4h-4.4v-1.4h4.4Zm-3.31-1.83h1.8v7.17c0 .24.03.43.1.56.08.13.18.21.3.26.13.05.26.07.41.07a1.73 1.73 0 0 0 .53-.07l.3 1.4a3.83 3.83 0 0 1-1.06.18c-.45.02-.85-.05-1.22-.2a1.9 1.9 0 0 1-.86-.7 2.1 2.1 0 0 1-.3-1.2v-7.47Zm7 9.62c-.48 0-.92-.08-1.3-.25a2.14 2.14 0 0 1-.92-.78 2.27 2.27 0 0 1-.33-1.26c0-.43.08-.79.24-1.07.16-.28.37-.5.65-.68.27-.17.58-.3.93-.38.35-.09.7-.16 1.08-.2l1.09-.12c.27-.04.48-.1.6-.18.13-.08.2-.2.2-.38v-.03c0-.38-.12-.66-.34-.87-.22-.2-.54-.3-.96-.3-.44 0-.79.09-1.05.28-.25.2-.42.42-.51.68l-1.68-.24a2.68 2.68 0 0 1 1.77-1.87 4.77 4.77 0 0 1 2.56-.11c.37.09.7.23 1 .43.3.2.54.46.73.8.18.34.28.76.28 1.27V122h-1.73v-1.05h-.06a2.2 2.2 0 0 1-1.2 1.04 3 3 0 0 1-1.05.16Zm.47-1.32c.36 0 .68-.07.94-.21a1.55 1.55 0 0 0 .83-1.36v-.9a.85.85 0 0 1-.29.13 12.93 12.93 0 0 1-.94.18l-.42.06c-.27.04-.5.1-.72.18-.21.09-.38.2-.5.35a.85.85 0 0 0-.19.57c0 .33.13.58.37.75.24.17.55.25.92.25Zm14.88-4.45-1.64.18a1.3 1.3 0 0 0-.7-.82 1.62 1.62 0 0 0-.7-.13c-.38 0-.7.08-.95.24-.25.16-.37.37-.37.63 0 .22.08.4.24.54.17.14.45.26.84.35l1.3.27c.72.16 1.26.4 1.61.75.36.33.53.78.54 1.32 0 .48-.15.9-.42 1.28-.28.36-.66.65-1.15.85-.5.2-1.06.3-1.7.3-.93 0-1.68-.19-2.25-.58-.57-.4-.91-.94-1.02-1.64l1.75-.17c.09.34.25.6.51.78.26.17.6.26 1.01.26.43 0 .77-.09 1.03-.26.26-.18.4-.4.4-.65 0-.22-.1-.4-.26-.55a1.77 1.77 0 0 0-.78-.32l-1.3-.28a3.1 3.1 0 0 1-1.62-.77 1.9 1.9 0 0 1-.53-1.38c0-.47.13-.88.39-1.22a2.5 2.5 0 0 1 1.09-.8c.46-.2 1-.3 1.61-.3.9 0 1.6.2 2.11.58.52.38.84.9.96 1.54Zm4.98 5.77a3.36 3.36 0 0 1-3.22-1.89 4.6 4.6 0 0 1-.44-2.05c0-.77.15-1.46.45-2.05a3.36 3.36 0 0 1 3.2-1.9c.62 0 1.17.12 1.65.35a2.81 2.81 0 0 1 1.63 2.4h-1.72a1.65 1.65 0 0 0-.5-.92 1.4 1.4 0 0 0-1.03-.37c-.37 0-.7.1-.97.3-.28.19-.5.47-.65.84-.16.37-.23.8-.23 1.32s.07.97.23 1.34c.15.38.36.66.64.86.28.2.6.3.98.3.26 0 .5-.05.7-.15.22-.1.4-.25.54-.44.14-.2.24-.42.3-.7h1.71a2.83 2.83 0 0 1-1.6 2.41c-.47.23-1.03.35-1.67.35Zm6.55-4.62V122h-1.8v-10.18h1.76v3.84h.1c.17-.43.45-.77.82-1.02.38-.25.86-.38 1.44-.38.53 0 1 .11 1.4.34.38.22.69.54.9.97.22.43.33.95.33 1.57V122h-1.8v-4.58c0-.52-.13-.92-.4-1.2a1.42 1.42 0 0 0-1.1-.43c-.32 0-.6.06-.85.2s-.45.34-.59.6c-.14.25-.2.57-.2.94Zm10.17 4.62c-.77 0-1.43-.16-1.99-.48a3.25 3.25 0 0 1-1.27-1.36 4.57 4.57 0 0 1-.45-2.08c0-.79.15-1.48.45-2.07a3.4 3.4 0 0 1 3.16-1.9c.48 0 .92.08 1.34.23a3 3 0 0 1 1.11.7c.33.31.58.72.77 1.2.18.49.27 1.06.27 1.73v.55h-6.25v-1.2h4.53a2 2 0 0 0-.22-.93 1.62 1.62 0 0 0-.62-.64 1.72 1.72 0 0 0-.9-.23 1.84 1.84 0 0 0-1.62.97 2 2 0 0 0-.24.93v1.06c0 .44.09.83.25 1.14.16.32.39.56.68.73a2.25 2.25 0 0 0 1.73.14c.22-.08.4-.19.56-.33.15-.15.27-.33.35-.55l1.68.2c-.1.44-.3.82-.6 1.16-.3.32-.68.58-1.14.76-.46.18-.99.27-1.58.27Zm7.75-.02a2.9 2.9 0 0 1-2.73-1.8 5.01 5.01 0 0 1-.42-2.14c0-.85.14-1.56.42-2.15.28-.58.66-1.03 1.14-1.32a2.92 2.92 0 0 1 2.7-.23c.29.15.52.33.69.55.16.2.3.4.39.59h.07v-3.81h1.8V122h-1.76v-1.2h-.11c-.1.18-.23.38-.4.59a2.18 2.18 0 0 1-1.79.74Zm.5-1.47c.38 0 .7-.1.98-.31.27-.2.47-.5.6-.87.15-.37.22-.8.22-1.3s-.07-.92-.21-1.29a1.83 1.83 0 0 0-.6-.85c-.27-.2-.6-.3-.99-.3-.4 0-.73.1-1 .31s-.47.5-.6.87a3.9 3.9 0 0 0-.01 2.54 2 2 0 0 0 .61.88c.27.21.6.32 1 .32Zm10.35-1.87v-4.43h1.8V122h-1.74v-1.36h-.08a2.3 2.3 0 0 1-.85 1.05c-.4.27-.88.4-1.45.4-.5 0-.94-.1-1.33-.32a2.32 2.32 0 0 1-.9-.98 3.47 3.47 0 0 1-.32-1.56v-4.87h1.8v4.59c0 .48.14.87.4 1.15.27.29.62.43 1.05.43a1.65 1.65 0 0 0 1.38-.77c.16-.26.24-.58.24-.97Zm5.45-6.97V122h-1.8v-10.18h1.8Zm5.23 10.33c-.76 0-1.42-.16-1.98-.48a3.25 3.25 0 0 1-1.28-1.36 4.57 4.57 0 0 1-.44-2.08c0-.79.14-1.48.44-2.07a3.4 3.4 0 0 1 3.17-1.9c.47 0 .91.08 1.33.23a3 3 0 0 1 1.12.7c.32.31.57.72.76 1.2.19.49.28 1.06.28 1.73v.55h-6.26v-1.2h4.53c0-.35-.07-.66-.22-.93a1.63 1.63 0 0 0-.61-.64 1.72 1.72 0 0 0-.9-.23 1.84 1.84 0 0 0-1.62.97 2 2 0 0 0-.24.93v1.06c0 .44.08.83.24 1.14a1.8 1.8 0 0 0 1.71.98c.26 0 .5-.04.71-.11.21-.08.4-.19.55-.33.16-.15.27-.33.35-.55l1.69.2a2.7 2.7 0 0 1-1.74 1.92c-.47.18-1 .27-1.59.27Zm7.76-.02a2.9 2.9 0 0 1-2.74-1.8 5.01 5.01 0 0 1-.41-2.14c0-.85.14-1.56.42-2.15a2.92 2.92 0 0 1 3.84-1.55c.28.15.51.33.68.55.17.2.3.4.4.59h.07v-3.81h1.8V122H311v-1.2h-.1c-.1.18-.23.38-.4.59a2.2 2.2 0 0 1-1.8.74Zm.5-1.47c.38 0 .7-.1.97-.31.27-.2.47-.5.61-.87s.21-.8.21-1.3-.07-.92-.2-1.29a1.83 1.83 0 0 0-.61-.85c-.27-.2-.6-.3-.98-.3-.4 0-.74.1-1 .31-.27.21-.48.5-.61.87-.14.37-.2.79-.2 1.26 0 .48.06.9.2 1.28.14.37.34.66.6.88.28.21.61.32 1 .32Z" fill="#1F1F1F"/><path d="M354 137H196v2h158v-2Z" fill="#F6F6F6" mask="url(#e)"/><mask id="f" fill="#fff"><path d="M354 97h125v41H354V97Z"/></mask><path d="M354 97h125v41H354V97Z" fill="#F6F6F6"/><path d="M372.54 114.62a1.36 1.36 0 0 0-.59-1.02 2.25 2.25 0 0 0-1.33-.36c-.39 0-.72.06-1 .17-.27.12-.48.28-.62.48a1.15 1.15 0 0 0-.08 1.23c.1.16.23.29.4.4.17.1.36.2.56.27.2.07.42.13.62.18l.96.24c.38.09.75.2 1.1.36.37.15.69.35.97.58a2.52 2.52 0 0 1 .93 2 2.76 2.76 0 0 1-1.79 2.63 5.2 5.2 0 0 1-2.08.37 5.3 5.3 0 0 1-2.06-.36 3.07 3.07 0 0 1-1.37-1.08 3.2 3.2 0 0 1-.52-1.72h1.81a1.55 1.55 0 0 0 1.08 1.41c.31.12.66.18 1.04.18.4 0 .76-.06 1.06-.18.3-.12.54-.3.71-.5.18-.23.26-.48.27-.77a.97.97 0 0 0-.24-.66 1.73 1.73 0 0 0-.64-.44 6.15 6.15 0 0 0-.95-.32l-1.16-.3a4.66 4.66 0 0 1-1.99-.97 2.26 2.26 0 0 1-.73-1.76c0-.6.17-1.12.5-1.57.32-.45.77-.8 1.33-1.05s1.2-.38 1.91-.38c.73 0 1.36.13 1.9.38.55.25.98.6 1.29 1.04.31.44.47.94.48 1.52h-1.77Zm7.29-.26v1.4h-4.39v-1.4h4.39Zm-3.3-1.83h1.8v7.17c0 .24.03.43.1.56.08.13.18.21.3.26.12.05.26.07.4.07a1.72 1.72 0 0 0 .54-.07l.3 1.4a3.83 3.83 0 0 1-1.06.18c-.45.02-.86-.05-1.22-.2a1.9 1.9 0 0 1-.86-.7 2.1 2.1 0 0 1-.3-1.2v-7.47Zm7 9.62c-.48 0-.92-.08-1.3-.25a2.14 2.14 0 0 1-.92-.78 2.27 2.27 0 0 1-.33-1.26c0-.43.08-.79.24-1.07.15-.28.37-.5.65-.68.27-.17.58-.3.93-.38.34-.09.7-.16 1.07-.2l1.1-.12c.27-.04.47-.1.6-.18.13-.08.2-.2.2-.38v-.03c0-.38-.12-.66-.34-.87-.22-.2-.54-.3-.96-.3-.44 0-.79.09-1.05.28-.25.2-.43.42-.51.68l-1.69-.24a2.68 2.68 0 0 1 1.78-1.87 4.77 4.77 0 0 1 2.56-.11c.37.09.7.23 1 .43.3.2.54.46.73.8.18.34.27.76.27 1.27V122h-1.73v-1.05h-.06a2.22 2.22 0 0 1-1.2 1.04 3 3 0 0 1-1.04.16Zm.47-1.32a2 2 0 0 0 .94-.21c.26-.15.47-.34.61-.58.15-.24.22-.5.22-.78v-.9a.87.87 0 0 1-.29.13 13.22 13.22 0 0 1-1.36.24c-.27.04-.51.1-.72.18-.21.09-.38.2-.5.35a.85.85 0 0 0-.19.57c0 .33.12.58.37.75.24.17.55.25.92.25Zm9.19-6.47v1.4h-4.4v-1.4h4.4Zm-3.3-1.83h1.8v7.17c0 .24.03.43.1.56.08.13.18.21.3.26.12.05.26.07.4.07a1.7 1.7 0 0 0 .53-.07l.3 1.4a3.8 3.8 0 0 1-1.05.18c-.45.02-.86-.05-1.22-.2a1.9 1.9 0 0 1-.86-.7 2.1 2.1 0 0 1-.3-1.2v-7.47Zm8.1 9.62a3.9 3.9 0 0 1-1.98-.48 3.24 3.24 0 0 1-1.28-1.36 4.56 4.56 0 0 1-.45-2.08c0-.79.15-1.48.45-2.07a3.39 3.39 0 0 1 3.17-1.9c.47 0 .91.08 1.33.23.42.15.8.38 1.11.7.33.31.58.72.77 1.2.18.49.28 1.06.28 1.73v.55h-6.26v-1.2h4.53a2 2 0 0 0-.22-.93 1.63 1.63 0 0 0-.61-.64 1.72 1.72 0 0 0-.9-.23 1.83 1.83 0 0 0-1.62.97 2 2 0 0 0-.24.93v1.06c0 .44.08.83.24 1.14.16.32.39.56.68.73.3.16.63.25 1.03.25.26 0 .5-.04.7-.11a1.4 1.4 0 0 0 .9-.88l1.7.2a2.73 2.73 0 0 1-1.75 1.92c-.46.18-.99.27-1.58.27Z" fill="#1F1F1F"/><path d="M479 137H354v2h125v-2Z" fill="#F6F6F6" mask="url(#f)"/><mask id="g" fill="#fff"><path d="M479 97h159v41H479V97Z"/></mask><path d="M479 97h159v41H479V97Z" fill="#F6F6F6"/><path d="M489.31 122h-1.97l3.59-10.18h2.27l3.6 10.18h-1.98l-2.71-8.1h-.08l-2.72 8.1Zm.07-4h5.37v1.49h-5.37V118Zm11.77 4.15a3.36 3.36 0 0 1-3.22-1.89 4.64 4.64 0 0 1-.44-2.05c0-.77.15-1.46.45-2.05a3.36 3.36 0 0 1 3.2-1.9c.62 0 1.17.12 1.65.35a2.81 2.81 0 0 1 1.63 2.4h-1.72a1.64 1.64 0 0 0-.5-.92 1.4 1.4 0 0 0-1.03-.37c-.37 0-.7.1-.97.3-.28.19-.5.47-.65.84-.15.37-.23.8-.23 1.32s.08.97.23 1.34c.15.38.37.66.64.86.28.2.6.3.98.3.26 0 .5-.05.71-.15.21-.1.39-.25.53-.44.14-.2.24-.42.3-.7h1.72a2.82 2.82 0 0 1-1.6 2.41c-.48.23-1.04.35-1.68.35Zm8.57-7.79v1.4h-4.4v-1.4h4.4Zm-3.31-1.83h1.8v7.17c0 .24.04.43.1.56.09.13.19.21.3.26.13.05.27.07.41.07a1.73 1.73 0 0 0 .53-.07l.3 1.4a3.83 3.83 0 0 1-1.05.18c-.45.02-.86-.05-1.22-.2a1.9 1.9 0 0 1-.86-.7 2.1 2.1 0 0 1-.31-1.2v-7.47Zm4.81 9.47v-7.64h1.8V122h-1.8Zm.9-8.72c-.28 0-.52-.1-.73-.28a.91.91 0 0 1-.3-.7c0-.27.1-.5.3-.69.2-.19.45-.28.74-.28.28 0 .53.1.73.28a.95.95 0 0 1 .01 1.39c-.21.19-.46.28-.74.28Zm6.08 8.87a3.7 3.7 0 0 1-1.94-.5 3.34 3.34 0 0 1-1.27-1.37 4.53 4.53 0 0 1-.45-2.07c0-.79.15-1.48.45-2.07.3-.6.73-1.06 1.27-1.38a3.7 3.7 0 0 1 1.94-.5c.75 0 1.4.17 1.94.5.55.32.97.78 1.27 1.38.3.6.45 1.28.45 2.07a4.5 4.5 0 0 1-.45 2.07c-.3.59-.72 1.05-1.27 1.38-.54.33-1.2.49-1.94.49Zm.01-1.44c.4 0 .75-.11 1.02-.34a2 2 0 0 0 .6-.9c.14-.38.2-.8.2-1.26 0-.47-.06-.9-.2-1.27a2 2 0 0 0-.6-.91 1.54 1.54 0 0 0-1.02-.34c-.41 0-.76.11-1.03.34a2 2 0 0 0-.61.9c-.14.39-.2.8-.2 1.28 0 .46.06.88.2 1.26.13.38.34.68.6.9.28.23.63.34 1.04.34Zm6.98-3.18V122h-1.8v-7.64h1.72v1.3h.09c.17-.43.45-.77.84-1.02.39-.25.87-.38 1.44-.38.52 0 .98.12 1.37.34.4.23.7.55.92.98.22.43.33.95.32 1.56V122h-1.8v-4.58c0-.51-.13-.91-.4-1.2a1.4 1.4 0 0 0-1.09-.43c-.31 0-.59.06-.83.2-.25.14-.44.34-.58.6a2 2 0 0 0-.2.94Zm12.77-1.15-1.64.18a1.33 1.33 0 0 0-.25-.47 1.2 1.2 0 0 0-.46-.35 1.62 1.62 0 0 0-.7-.13c-.38 0-.7.08-.95.24-.25.16-.37.37-.37.63 0 .22.08.4.25.54.16.14.44.26.83.35l1.3.27c.73.16 1.26.4 1.61.75.36.33.54.78.54 1.32 0 .48-.14.9-.42 1.28-.28.36-.66.65-1.15.85-.5.2-1.05.3-1.7.3-.93 0-1.68-.19-2.25-.58a2.4 2.4 0 0 1-1.02-1.64l1.76-.17c.08.34.25.6.5.78.26.17.6.26 1.01.26.43 0 .77-.09 1.03-.26.26-.18.4-.4.4-.65a.7.7 0 0 0-.26-.55 1.77 1.77 0 0 0-.77-.32l-1.3-.28a3.1 3.1 0 0 1-1.63-.77 1.89 1.89 0 0 1-.52-1.38c0-.47.12-.88.38-1.22a2.5 2.5 0 0 1 1.09-.8c.47-.2 1-.3 1.61-.3.9 0 1.6.2 2.12.58.51.38.83.9.96 1.54Z" fill="#1F1F1F"/><path d="M479 97h159-159Zm159 42H479v-2h159v2Zm-159-1V97v41Zm159-41v41-41Z" fill="#F6F6F6" mask="url(#g)"/><path fill="#F0F6FE" d="M34 138h604v40H34z"/><g filter="url(#h)"><path fill="#F3F8FF" d="M34 138h40v40H34z"/><g clip-path="url(#i)"><rect x="46" y="149.5" width="16" height="16" rx="2" fill="#0F67F5"/><path d="m50 158 2.5 2.5L58 155" stroke="#fff" stroke-width="1.7" stroke-linecap="round" stroke-linejoin="round"/></g></g><g filter="url(#j)"><path fill="#F3F8FF" d="M74 138h122v40H74z"/><path d="M75.23 162.5v-10.18h3.44c.8 0 1.45.14 1.96.43s.89.67 1.14 1.16c.24.49.36 1.03.36 1.63 0 .6-.12 1.15-.36 1.64-.25.49-.62.88-1.13 1.17-.5.29-1.15.43-1.95.43h-2.46v-1.1h2.42c.55 0 .99-.09 1.32-.28.33-.19.57-.44.72-.76.15-.33.23-.7.23-1.1 0-.4-.08-.77-.23-1.1a1.68 1.68 0 0 0-.72-.75 2.75 2.75 0 0 0-1.34-.28h-2.16v9.09h-1.24Zm8.89-10.18h1.47l3.46 8.45h.12l3.46-8.45h1.47v10.18h-1.15v-7.74h-.1l-3.18 7.74h-1.12l-3.18-7.74h-.1v7.74h-1.15v-10.18Zm20.65 3.18h-1.23a2.57 2.57 0 0 0-1.04-1.61 2.78 2.78 0 0 0-.85-.42 3.4 3.4 0 0 0-.98-.14 3.1 3.1 0 0 0-2.86 1.85c-.3.6-.44 1.35-.44 2.23 0 .88.15 1.63.44 2.23.3.6.69 1.07 1.19 1.38.5.31 1.06.47 1.67.47a2.93 2.93 0 0 0 1.83-.56 2.64 2.64 0 0 0 1.03-1.61h1.24a3.8 3.8 0 0 1-2.65 3.1 4.55 4.55 0 0 1-3.77-.42 4.37 4.37 0 0 1-1.6-1.8 6.2 6.2 0 0 1-.57-2.8c0-1.06.2-2 .58-2.78a4.27 4.27 0 0 1 3.91-2.45c.52 0 1 .08 1.45.23a3.96 3.96 0 0 1 2.14 1.7c.25.41.41.88.5 1.4Zm9.33-3.18v10.18h-1.23v-8.89h-.06l-2.49 1.65v-1.25l2.55-1.7h1.23Zm6.37 10.32c-.66 0-1.24-.11-1.76-.34a3 3 0 0 1-1.22-.94c-.3-.4-.46-.87-.48-1.4h1.25c.03.32.14.6.34.84s.46.42.78.55c.32.13.68.2 1.07.2.44 0 .82-.08 1.16-.23.34-.16.6-.37.8-.64a1.87 1.87 0 0 0 .01-1.94 1.85 1.85 0 0 0-.82-.67c-.36-.16-.8-.24-1.31-.24h-.82v-1.1h.82c.4 0 .76-.07 1.06-.22a1.66 1.66 0 0 0 .98-1.55c0-.34-.07-.64-.22-.9a1.56 1.56 0 0 0-.65-.6 2.55 2.55 0 0 0-1.97-.02c-.3.13-.56.32-.75.56-.2.24-.3.53-.32.86h-1.2c.03-.53.19-1 .49-1.4.3-.4.7-.72 1.18-.94a3.83 3.83 0 0 1 3.24.04 2.62 2.62 0 0 1 1.4 2.34 2.3 2.3 0 0 1-1.67 2.3v.09c.64.1 1.14.38 1.5.82.37.44.55.98.55 1.63a2.6 2.6 0 0 1-.45 1.49c-.3.44-.71.78-1.23 1.03s-1.1.38-1.76.38Zm8.47-1.93v-6.56h1.12v6.56h-1.12Zm-2.72-2.72v-1.12h6.56V158h-6.56Z" fill="#333"/></g><g filter="url(#k)"><path fill="#F3F8FF" d="M196 138h158v40H196z"/><path d="m211.08 162.5-2.78-10.18h1.25l2.13 8.3h.1l2.17-8.3h1.39l2.17 8.3h.1l2.12-8.3H221l-2.79 10.18h-1.27l-2.25-8.11h-.08l-2.25 8.11h-1.27Zm13.77.16a3.27 3.27 0 0 1-3.13-1.86 4.68 4.68 0 0 1-.43-2.06c0-.78.15-1.47.43-2.07a3.23 3.23 0 0 1 3.01-1.9c.4 0 .8.06 1.18.2a2.94 2.94 0 0 1 1.82 1.81 5 5 0 0 1 .29 1.8v.5h-5.9v-1.02h4.7c0-.43-.08-.81-.26-1.15a1.94 1.94 0 0 0-1.83-1.1 2.22 2.22 0 0 0-1.99 1.26c-.18.36-.27.75-.27 1.17v.68c0 .58.1 1.07.3 1.47.2.4.48.7.84.9.35.21.77.31 1.24.31.31 0 .59-.04.84-.12.25-.1.47-.23.65-.4.18-.18.32-.4.42-.67l1.14.32a2.5 2.5 0 0 1-.6 1.01c-.29.3-.64.52-1.05.68-.41.16-.88.24-1.4.24Zm7.83 0a3 3 0 0 1-2.83-1.85c-.27-.6-.4-1.3-.4-2.1 0-.81.13-1.5.4-2.1a3.03 3.03 0 0 1 2.85-1.85c.5 0 .9.09 1.18.25.3.17.52.35.67.56l.36.5h.1v-3.75h1.17v10.18h-1.13v-1.17h-.14c-.09.14-.2.31-.37.52-.16.21-.38.4-.68.56-.3.17-.69.25-1.18.25Zm.16-1.06c.47 0 .87-.12 1.2-.36.32-.25.57-.6.74-1.03.17-.44.25-.95.25-1.53 0-.57-.08-1.07-.25-1.5a1.96 1.96 0 0 0-1.94-1.37c-.5 0-.9.14-1.24.4-.33.24-.57.59-.74 1.02a4.1 4.1 0 0 0-.24 1.45c0 .54.08 1.04.24 1.48.17.44.42.8.75 1.06s.74.38 1.23.38Zm13.15-9.28v10.18h-1.23v-8.89h-.06l-2.49 1.65v-1.25l2.55-1.7h1.23Zm6.37 10.32a4.2 4.2 0 0 1-1.75-.34 3 3 0 0 1-1.22-.94c-.3-.4-.46-.87-.49-1.4h1.25c.03.32.14.6.34.84s.46.42.78.55c.32.13.68.2 1.07.2.44 0 .83-.08 1.16-.23.34-.16.6-.37.8-.64.2-.27.29-.59.29-.94 0-.38-.1-.7-.28-1a1.84 1.84 0 0 0-.81-.67c-.36-.16-.8-.24-1.32-.24h-.81v-1.1h.81c.4 0 .76-.07 1.07-.22a1.65 1.65 0 0 0 .98-1.55c0-.34-.07-.64-.23-.9a1.56 1.56 0 0 0-.64-.6 2.56 2.56 0 0 0-1.97-.02c-.31.13-.56.32-.76.56-.2.24-.3.53-.32.86h-1.19c.02-.53.18-1 .48-1.4a3 3 0 0 1 1.19-.94 3.83 3.83 0 0 1 3.23.04 2.7 2.7 0 0 1 1.4 2.34 2.3 2.3 0 0 1-1.67 2.3v.09a2.33 2.33 0 0 1 2.05 2.45 2.6 2.6 0 0 1-.45 1.49c-.3.44-.7.78-1.22 1.03s-1.1.38-1.77.38Zm13.49-10.32h1.23v7.28c0 .65-.12 1.2-.36 1.65-.23.46-.57.8-1 1.04-.44.23-.95.35-1.54.35-.56 0-1.05-.1-1.49-.3a2.5 2.5 0 0 1-1.02-.88 2.4 2.4 0 0 1-.38-1.35h1.22c0 .3.07.54.21.76.15.21.35.38.6.5s.54.17.86.17c.35 0 .65-.07.9-.22s.44-.37.57-.66c.13-.29.2-.64.2-1.06v-7.28Zm8.36 7.06v-4.52h1.17v7.64h-1.17v-1.3h-.08a2.5 2.5 0 0 1-.84 1c-.38.27-.85.4-1.43.4-.48 0-.9-.1-1.27-.31a2.2 2.2 0 0 1-.88-.96 3.63 3.63 0 0 1-.32-1.61v-4.86h1.18v4.78c0 .55.15 1 .47 1.33.31.33.71.5 1.2.5a2 2 0 0 0 1.97-2.1Zm4.5-7.06v10.18h-1.18v-10.18h1.17Zm6.06 10.18v-.9l3.36-3.67c.4-.44.72-.8.97-1.13.26-.32.45-.62.57-.9.13-.29.19-.59.19-.9a1.65 1.65 0 0 0-.96-1.53 2.12 2.12 0 0 0-.99-.22c-.39 0-.73.08-1.02.25-.3.16-.51.38-.67.67a2.1 2.1 0 0 0-.24 1.01h-1.17a2.87 2.87 0 0 1 1.54-2.63 3.38 3.38 0 0 1 1.6-.37c.6 0 1.13.13 1.59.38a2.8 2.8 0 0 1 1.27 3.54 4.8 4.8 0 0 1-.7 1.19c-.32.43-.78.96-1.36 1.6l-2.3 2.44v.08h4.74v1.09h-6.42Zm11.8.14c-.75 0-1.4-.2-1.92-.61s-.93-1-1.2-1.79a8.5 8.5 0 0 1-.42-2.83c0-1.1.14-2.04.41-2.82a3.9 3.9 0 0 1 1.22-1.79 3.01 3.01 0 0 1 1.9-.62c.75 0 1.38.2 1.91.62.53.41.93 1 1.21 1.79.28.78.43 1.72.43 2.82a8.5 8.5 0 0 1-.42 2.83 3.83 3.83 0 0 1-1.21 1.79c-.53.4-1.17.6-1.91.6Zm0-1.1c.74 0 1.32-.35 1.73-1.07.4-.71.61-1.73.61-3.06 0-.88-.1-1.63-.28-2.25a3.09 3.09 0 0 0-.8-1.42 1.78 1.78 0 0 0-1.26-.49c-.74 0-1.31.37-1.73 1.1a6.23 6.23 0 0 0-.62 3.06c0 .88.1 1.63.28 2.25.18.61.45 1.08.8 1.4.35.32.77.48 1.27.48Zm5.43.96v-.9l3.36-3.67c.4-.44.71-.8.97-1.13.26-.32.44-.62.57-.9.12-.29.19-.59.19-.9a1.66 1.66 0 0 0-.96-1.53 2.2 2.2 0 0 0-1-.22 2 2 0 0 0-1.02.25c-.29.16-.5.38-.67.67a2.1 2.1 0 0 0-.23 1.01h-1.17c0-.6.13-1.12.4-1.57.28-.45.66-.8 1.13-1.05a3.39 3.39 0 0 1 1.6-.38c.6 0 1.13.13 1.6.38.45.25.81.59 1.08 1.02.26.42.39.9.39 1.42 0 .38-.07.74-.2 1.1a4.9 4.9 0 0 1-.7 1.19c-.33.43-.78.96-1.37 1.6l-2.28 2.44v.08h4.73v1.09h-6.43Zm8.47 0v-.9l3.36-3.67c.4-.44.72-.8.98-1.13.25-.32.44-.62.56-.9.13-.29.2-.59.2-.9a1.65 1.65 0 0 0-.96-1.53 2.2 2.2 0 0 0-1-.22c-.39 0-.73.08-1.02.25-.29.16-.51.38-.67.67a2.1 2.1 0 0 0-.24 1.01h-1.17a2.87 2.87 0 0 1 1.54-2.63 3.38 3.38 0 0 1 1.6-.37c.6 0 1.13.13 1.59.38a2.8 2.8 0 0 1 1.28 3.54c-.14.36-.37.75-.7 1.19-.33.43-.79.96-1.37 1.6l-2.29 2.44v.08h4.73v1.09h-6.42Z" fill="#333"/></g><g filter="url(#l)"><path fill="#F3F8FF" d="M354 138h125v40H354z"/><rect x="365.5" y="145" width="65" height="25" rx="4.5" fill="#E9F8E9"/><path d="M371.5 162.5v-10.18h6.1v1.1h-4.87v3.43h4.41v1.1h-4.41v4.55h-1.24Zm8.05 0v-7.64h1.17v7.64h-1.17Zm.6-8.9a.83.83 0 0 1-.6-.24.75.75 0 0 1-.24-.57c0-.21.08-.4.25-.56a.83.83 0 0 1 .59-.23c.23 0 .42.08.58.23.17.16.25.35.25.56 0 .22-.08.41-.25.57a.82.82 0 0 1-.58.23Zm3.9 4.3v4.6h-1.18v-7.64h1.14v1.2h.1c.18-.4.45-.7.81-.94.37-.24.84-.36 1.41-.36.52 0 .97.11 1.36.32.39.21.69.53.9.96.22.42.33.96.33 1.6v4.86h-1.18v-4.77c0-.6-.15-1.07-.46-1.4a1.65 1.65 0 0 0-1.28-.51c-.38 0-.71.08-1 .24-.3.16-.53.4-.7.71-.17.31-.25.7-.25 1.14Zm7.01 4.6v-7.64h1.18v7.64h-1.18Zm.6-8.9a.83.83 0 0 1-.6-.24.75.75 0 0 1-.24-.57c0-.21.08-.4.25-.56a.83.83 0 0 1 .59-.23c.23 0 .42.08.58.23.17.16.25.35.25.56 0 .22-.08.41-.25.57a.82.82 0 0 1-.58.23Zm8.13 2.97-1.05.3a1.99 1.99 0 0 0-.3-.51c-.12-.17-.3-.3-.51-.42-.22-.1-.5-.16-.84-.16a2 2 0 0 0-1.17.32c-.3.21-.46.48-.46.81 0 .3.1.52.32.7.2.16.54.3 1 .42l1.12.27c.69.17 1.2.42 1.53.76.33.34.5.78.5 1.31 0 .44-.12.83-.38 1.17-.24.35-.6.62-1.04.82-.45.2-.97.3-1.56.3-.78 0-1.42-.17-1.93-.5a2.25 2.25 0 0 1-.97-1.49l1.11-.28c.1.41.3.72.6.93.3.2.69.3 1.17.3.55 0 .98-.11 1.3-.34.33-.24.49-.52.49-.85a.9.9 0 0 0-.28-.66 1.76 1.76 0 0 0-.85-.41l-1.28-.3a3.04 3.04 0 0 1-1.54-.77 1.86 1.86 0 0 1-.48-1.32c0-.43.12-.81.36-1.14.24-.33.58-.6 1-.78.42-.2.9-.29 1.44-.29.76 0 1.35.17 1.78.5.43.33.74.77.92 1.31Zm3.08 1.34v4.59h-1.17v-10.18h1.17v3.74h.1c.18-.4.45-.71.8-.94.37-.24.85-.36 1.45-.36.52 0 .97.1 1.37.32.39.2.69.52.9.95.22.42.33.96.33 1.62v4.85h-1.17v-4.77a2 2 0 0 0-.47-1.41c-.31-.33-.75-.5-1.3-.5-.38 0-.73.08-1.03.24-.3.16-.54.4-.72.71a2.3 2.3 0 0 0-.26 1.14Zm10.3 4.75a3.27 3.27 0 0 1-3.13-1.86 4.68 4.68 0 0 1-.43-2.06c0-.78.14-1.47.43-2.07a3.23 3.23 0 0 1 3.01-1.9c.4 0 .8.06 1.18.2a2.93 2.93 0 0 1 1.82 1.81 5 5 0 0 1 .28 1.8v.5h-5.88v-1.02h4.7c0-.43-.1-.81-.27-1.15a1.94 1.94 0 0 0-1.83-1.1 2.2 2.2 0 0 0-1.99 1.26c-.18.36-.27.75-.27 1.17v.68c0 .58.1 1.07.3 1.47.2.4.48.7.83.9.36.21.78.31 1.25.31.31 0 .59-.04.84-.12.25-.1.47-.23.65-.4.18-.18.32-.4.42-.67l1.13.32c-.11.39-.31.72-.6 1.01-.28.3-.63.52-1.04.68-.42.16-.88.24-1.4.24Zm7.83 0a3 3 0 0 1-2.83-1.85c-.27-.6-.4-1.3-.4-2.1 0-.81.13-1.5.4-2.1a3.03 3.03 0 0 1 2.85-1.85 2.12 2.12 0 0 1 1.85.81l.36.5h.1v-3.75h1.17v10.18h-1.13v-1.17h-.14c-.09.14-.2.31-.37.52-.16.21-.38.4-.68.56-.3.17-.69.25-1.18.25Zm.16-1.06c.47 0 .87-.12 1.2-.36.32-.25.57-.6.74-1.03.16-.44.25-.95.25-1.53 0-.57-.08-1.07-.25-1.5a1.96 1.96 0 0 0-1.94-1.37c-.5 0-.91.14-1.24.4-.33.24-.58.59-.74 1.02a4.33 4.33 0 0 0 0 2.93c.17.44.42.8.75 1.06s.74.38 1.23.38Z" fill="#005509"/><rect x="365.5" y="145" width="65" height="25" rx="4.5" stroke="#fff"/></g><g filter="url(#m)"><path fill="#F3F8FF" d="M479 138h159v40H479z"/><path fill-rule="evenodd" clip-rule="evenodd" d="m482.71 157.5.28.44c.25.35.63.84 1.15 1.31a7.01 7.01 0 0 0 4.86 1.92c2.23 0 3.82-.96 4.86-1.91a8.15 8.15 0 0 0 1.42-1.76l-.27-.44a8.1 8.1 0 0 0-1.15-1.31 7.01 7.01 0 0 0-4.86-1.92c-2.23 0-3.82.96-4.86 1.91a8.1 8.1 0 0 0-1.42 1.76Zm12.96 0 .3-.15-.01-.01-.02-.04-.08-.14a8.75 8.75 0 0 0-1.55-1.9 7.68 7.68 0 0 0-5.31-2.1 7.68 7.68 0 0 0-5.3 2.1 8.77 8.77 0 0 0-1.66 2.08v.01l.3.15-.3-.15-.08.15.08.15.3-.15-.3.15v.01l.02.04.08.14.3.47c.28.4.69.91 1.25 1.44a7.68 7.68 0 0 0 5.31 2.08 7.68 7.68 0 0 0 5.31-2.09 8.8 8.8 0 0 0 1.55-1.9l.08-.14.02-.03v-.02l-.3-.15Zm0 0 .3.15.07-.15-.08-.15-.3.15Zm-6.67-1.67a1.67 1.67 0 1 0 0 3.34 1.67 1.67 0 0 0 0-3.34Zm-2.33 1.67a2.33 2.33 0 1 1 4.66 0 2.33 2.33 0 0 1-4.66 0Z" fill="#0F67F5"/><path d="m495.67 157.5.3-.15m-.3.15.3.15h0l-.01.01-.02.04-.08.14-.3.47a8.8 8.8 0 0 1-1.25 1.44 7.68 7.68 0 0 1-5.31 2.08 7.68 7.68 0 0 1-5.3-2.09 8.8 8.8 0 0 1-1.66-2.08h0v-.01h0m13.63-.15.3.15.07-.15-.08-.15m-.3.15.3-.15m0 0h0v-.01l-.02-.04-.08-.14a8.75 8.75 0 0 0-1.55-1.9 7.68 7.68 0 0 0-5.31-2.1 7.68 7.68 0 0 0-5.3 2.1 8.77 8.77 0 0 0-1.66 2.08h0v.01l.3.15m0 0-.3-.15-.08.15.08.15m.3-.15-.3.15m.3-.15-.3.15m.68-.15s0 0 0 0 0 0 0 0l.27-.44a8.1 8.1 0 0 1 1.15-1.31 7.01 7.01 0 0 1 4.86-1.92c2.23 0 3.82.96 4.86 1.91a8.1 8.1 0 0 1 1.42 1.76s0 0 0 0 0 0 0 0a7.22 7.22 0 0 1-1.42 1.75 7.01 7.01 0 0 1-4.86 1.92 7.01 7.01 0 0 1-4.86-1.91 8.15 8.15 0 0 1-1.42-1.76Zm4.61 0a1.67 1.67 0 1 1 3.34 0 1.67 1.67 0 0 1-3.34 0Zm1.67-2.33a2.33 2.33 0 1 0 0 4.66 2.33 2.33 0 0 0 0-4.66Z" stroke="#0F67F5" stroke-linecap="round"/><path d="m506.65 152.32 3.02 8.57h.12l3.03-8.57h1.29l-3.74 10.18h-1.27l-3.74-10.18h1.3Zm8.88 10.18v-7.64h1.18v7.64h-1.18Zm.6-8.9a.83.83 0 0 1-.59-.24.75.75 0 0 1-.24-.57c0-.21.08-.4.24-.56a.83.83 0 0 1 .6-.23c.22 0 .42.08.58.23.16.16.25.35.25.56 0 .22-.09.41-.25.57a.82.82 0 0 1-.59.23Zm5.93 9.06a3.27 3.27 0 0 1-3.13-1.86 4.68 4.68 0 0 1-.43-2.06c0-.78.14-1.47.43-2.07a3.23 3.23 0 0 1 3.01-1.9c.4 0 .79.06 1.18.2a2.93 2.93 0 0 1 1.82 1.81 5 5 0 0 1 .28 1.8v.5h-5.89v-1.02h4.7c0-.43-.09-.81-.26-1.15a1.94 1.94 0 0 0-1.83-1.1 2.2 2.2 0 0 0-1.99 1.26c-.19.36-.28.75-.28 1.17v.68c0 .58.1 1.07.3 1.47.2.4.48.7.84.9.36.21.78.31 1.25.31a1.93 1.93 0 0 0 1.48-.52c.19-.18.33-.4.43-.67l1.13.32a2.5 2.5 0 0 1-.6 1.01c-.28.3-.63.52-1.04.68-.42.16-.88.24-1.4.24Zm6.68-.16-2.33-7.64h1.23l1.65 5.85h.08l1.63-5.85h1.26l1.6 5.83h.09l1.65-5.83h1.23l-2.33 7.64h-1.15l-1.67-5.87h-.12l-1.67 5.87h-1.15Zm13.58 0v-7.64h1.13v1.16h.08c.14-.38.4-.69.76-.92.36-.24.77-.36 1.23-.36a14.75 14.75 0 0 1 .62.02v1.2a3.7 3.7 0 0 0-.72-.08c-.37 0-.7.08-1 .23a1.71 1.71 0 0 0-.94 1.56v4.83h-1.16Zm8.18.16a3.28 3.28 0 0 1-3.13-1.86 4.68 4.68 0 0 1-.43-2.06c0-.78.14-1.47.42-2.07.3-.6.7-1.06 1.2-1.4a3.6 3.6 0 0 1 2.99-.3 2.93 2.93 0 0 1 1.83 1.81 5 5 0 0 1 .28 1.8v.5h-5.89v-1.02h4.7c0-.43-.1-.81-.26-1.15a1.94 1.94 0 0 0-1.83-1.1c-.47 0-.88.12-1.22.36-.33.23-.6.52-.78.9-.18.36-.27.75-.27 1.17v.68c0 .58.1 1.07.3 1.47.2.4.48.7.84.9.36.21.77.31 1.25.31.3 0 .58-.04.83-.12a1.7 1.7 0 0 0 1.07-1.07l1.14.32a2.5 2.5 0 0 1-.6 1.01 2.9 2.9 0 0 1-1.05.68c-.41.16-.88.24-1.4.24Zm10.35-6.09-1.05.3a1.95 1.95 0 0 0-.3-.51c-.12-.17-.3-.3-.51-.42-.22-.1-.5-.16-.84-.16a2 2 0 0 0-1.17.32c-.3.21-.46.48-.46.81 0 .3.1.52.32.7.2.16.54.3.99.42l1.13.27c.69.17 1.2.42 1.53.76.33.34.5.78.5 1.31 0 .44-.13.83-.38 1.17-.25.35-.6.62-1.04.82-.45.2-.97.3-1.56.3-.78 0-1.42-.17-1.94-.5a2.25 2.25 0 0 1-.97-1.49l1.12-.28c.1.41.3.72.6.93.3.2.69.3 1.17.3.54 0 .98-.11 1.3-.34.33-.24.49-.52.49-.85a.9.9 0 0 0-.28-.66 1.77 1.77 0 0 0-.86-.41l-1.27-.3a3.04 3.04 0 0 1-1.54-.77 1.86 1.86 0 0 1-.49-1.32c0-.43.13-.81.37-1.14.24-.33.57-.6 1-.78.42-.2.9-.29 1.44-.29.75 0 1.35.17 1.78.5.43.33.74.77.92 1.31Zm6.72 2.8v-4.5h1.17v7.63h-1.17v-1.3h-.08a2.5 2.5 0 0 1-.84 1c-.37.27-.85.4-1.43.4-.47 0-.9-.1-1.27-.31a2.19 2.19 0 0 1-.87-.96 3.63 3.63 0 0 1-.32-1.61v-4.86h1.17v4.78c0 .55.16 1 .47 1.33.31.33.71.5 1.2.5a2 2 0 0 0 1.97-2.1Zm4.5-7.05v10.18h-1.18v-10.18h1.18Zm5.47 2.54v1h-3.96v-1h3.96Zm-2.8-1.83h1.16v7.28c0 .33.05.58.15.75.1.16.22.27.38.33.15.05.32.08.49.08l.32-.02.2-.04.23 1.05a2.41 2.41 0 0 1-.87.14c-.33 0-.66-.07-.97-.21a1.94 1.94 0 0 1-.79-.66 1.9 1.9 0 0 1-.3-1.1v-7.6Zm9.83 3.54-1.05.3a1.93 1.93 0 0 0-.3-.51c-.12-.17-.3-.3-.51-.42-.22-.1-.5-.16-.84-.16a2 2 0 0 0-1.17.32c-.3.21-.46.48-.46.81 0 .3.1.52.32.7.2.16.54.3.99.42l1.13.27c.69.17 1.2.42 1.53.76.33.34.5.78.5 1.31 0 .44-.12.83-.38 1.17-.24.35-.6.62-1.04.82-.45.2-.97.3-1.56.3-.78 0-1.42-.17-1.94-.5a2.25 2.25 0 0 1-.96-1.49l1.1-.28c.12.41.32.72.61.93.3.2.69.3 1.17.3.55 0 .98-.11 1.3-.34.33-.24.49-.52.49-.85a.9.9 0 0 0-.28-.66 1.77 1.77 0 0 0-.86-.41l-1.27-.3a3.04 3.04 0 0 1-1.54-.77 1.87 1.87 0 0 1-.49-1.32c0-.43.13-.81.37-1.14.24-.33.58-.6 1-.78.42-.2.9-.29 1.44-.29.75 0 1.35.17 1.78.5.43.33.74.77.92 1.31Z" fill="#0F67F5"/><path fill-rule="evenodd" clip-rule="evenodd" d="M609 157.5a1 1 0 1 1 2 0 1 1 0 0 1-2 0Zm1-.33a.33.33 0 1 0 0 .66.33.33 0 0 0 0-.66Zm3 .33a1 1 0 1 1 2 0 1 1 0 0 1-2 0Zm1-.33a.33.33 0 1 0 0 .66.33.33 0 0 0 0-.66Zm3 .33a1 1 0 1 1 2 0 1 1 0 0 1-2 0Zm1-.33a.33.33 0 1 0 0 .66.33.33 0 0 0 0-.66Z" fill="#0F67F5" stroke="#0F67F5"/><rect x="602.5" y="146" width="23" height="23" rx="3.5" stroke="#fff"/></g><path fill="#F0F6FE" d="M34 178h604v40H34z"/><g filter="url(#n)"><path fill="#F3F8FF" d="M34 178h40v40H34z"/><g clip-path="url(#o)"><rect x="46" y="189.5" width="16" height="16" rx="2" fill="#0F67F5"/><path d="m50 198 2.5 2.5L58 195" stroke="#fff" stroke-width="1.7" stroke-linecap="round" stroke-linejoin="round"/></g></g><g filter="url(#p)"><path fill="#F3F8FF" d="M74 178h122v40H74z"/><path d="M75.23 202.5v-10.18h3.44c.8 0 1.45.14 1.96.43s.89.67 1.14 1.16c.24.49.36 1.03.36 1.63 0 .6-.12 1.15-.36 1.64-.25.49-.62.88-1.13 1.17-.5.29-1.15.43-1.95.43h-2.46v-1.1h2.42c.55 0 .99-.09 1.32-.28.33-.19.57-.44.72-.76.15-.33.23-.7.23-1.1 0-.4-.08-.77-.23-1.1a1.68 1.68 0 0 0-.72-.75 2.75 2.75 0 0 0-1.34-.28h-2.16v9.09h-1.24Zm8.89-10.18h1.47l3.46 8.45h.12l3.46-8.45h1.47v10.18h-1.15v-7.74h-.1l-3.18 7.74h-1.12l-3.18-7.74h-.1v7.74h-1.15v-10.18Zm20.65 3.18h-1.23a2.57 2.57 0 0 0-1.04-1.61 2.78 2.78 0 0 0-.85-.42 3.4 3.4 0 0 0-.98-.14 3.1 3.1 0 0 0-2.86 1.85c-.3.6-.44 1.35-.44 2.23 0 .88.15 1.63.44 2.23.3.6.69 1.07 1.19 1.38.5.31 1.06.47 1.67.47a2.93 2.93 0 0 0 1.83-.56 2.64 2.64 0 0 0 1.03-1.61h1.24a3.8 3.8 0 0 1-2.65 3.1 4.55 4.55 0 0 1-3.77-.42 4.37 4.37 0 0 1-1.6-1.8 6.2 6.2 0 0 1-.57-2.8c0-1.06.2-2 .58-2.78a4.27 4.27 0 0 1 3.91-2.45c.52 0 1 .08 1.45.23a3.96 3.96 0 0 1 2.14 1.7c.25.41.41.88.5 1.4Zm9.33-3.18v10.18h-1.23v-8.89h-.06l-2.49 1.65v-1.25l2.55-1.7h1.23Zm6.37 10.32c-.66 0-1.24-.11-1.76-.34a3 3 0 0 1-1.22-.94c-.3-.4-.46-.87-.48-1.4h1.25c.03.32.14.6.34.84s.46.42.78.55c.32.13.68.2 1.07.2.44 0 .82-.08 1.16-.23.34-.16.6-.37.8-.64a1.87 1.87 0 0 0 .01-1.94 1.85 1.85 0 0 0-.82-.67c-.36-.16-.8-.24-1.31-.24h-.82v-1.1h.82c.4 0 .76-.07 1.06-.22a1.66 1.66 0 0 0 .98-1.55c0-.34-.07-.64-.22-.9a1.56 1.56 0 0 0-.65-.6 2.55 2.55 0 0 0-1.97-.02c-.3.13-.56.32-.75.56-.2.24-.3.53-.32.86h-1.2c.03-.53.19-1 .49-1.4.3-.4.7-.72 1.18-.94a3.83 3.83 0 0 1 3.24.04 2.62 2.62 0 0 1 1.4 2.34 2.3 2.3 0 0 1-1.67 2.3v.09c.64.1 1.14.38 1.5.82.37.44.55.98.55 1.63a2.6 2.6 0 0 1-.45 1.49c-.3.44-.71.78-1.23 1.03s-1.1.38-1.76.38Zm8.47-1.93v-6.56h1.12v6.56h-1.12Zm-2.72-2.72v-1.12h6.56V198h-6.56Z" fill="#333"/></g><g filter="url(#q)"><path fill="#F3F8FF" d="M196 178h158v40H196z"/><path d="m211.08 202.5-2.78-10.18h1.25l2.13 8.3h.1l2.17-8.3h1.39l2.17 8.3h.1l2.12-8.3H221l-2.79 10.18h-1.27l-2.25-8.11h-.08l-2.25 8.11h-1.27Zm13.77.16a3.27 3.27 0 0 1-3.13-1.86 4.68 4.68 0 0 1-.43-2.06c0-.78.15-1.47.43-2.07a3.23 3.23 0 0 1 3.01-1.9c.4 0 .8.06 1.18.2a2.94 2.94 0 0 1 1.82 1.81 5 5 0 0 1 .29 1.8v.5h-5.9v-1.02h4.7c0-.43-.08-.81-.26-1.15a1.94 1.94 0 0 0-1.83-1.1 2.22 2.22 0 0 0-1.99 1.26c-.18.36-.27.75-.27 1.17v.68c0 .58.1 1.07.3 1.47.2.4.48.7.84.9.35.21.77.31 1.24.31.31 0 .59-.04.84-.12.25-.1.47-.23.65-.4.18-.18.32-.4.42-.67l1.14.32a2.5 2.5 0 0 1-.6 1.01c-.29.3-.64.52-1.05.68-.41.16-.88.24-1.4.24Zm7.83 0a3 3 0 0 1-2.83-1.85c-.27-.6-.4-1.3-.4-2.1 0-.81.13-1.5.4-2.1a3.03 3.03 0 0 1 2.85-1.85c.5 0 .9.09 1.18.25.3.17.52.35.67.56l.36.5h.1v-3.75h1.17v10.18h-1.13v-1.17h-.14c-.09.14-.2.31-.37.52-.16.21-.38.4-.68.56-.3.17-.69.25-1.18.25Zm.16-1.06c.47 0 .87-.12 1.2-.36.32-.25.57-.6.74-1.03.17-.44.25-.95.25-1.53 0-.57-.08-1.07-.25-1.5a1.96 1.96 0 0 0-1.94-1.37c-.5 0-.9.14-1.24.4-.33.24-.57.59-.74 1.02a4.1 4.1 0 0 0-.24 1.45c0 .54.08 1.04.24 1.48.17.44.42.8.75 1.06s.74.38 1.23.38Zm13.15-9.28v10.18h-1.23v-8.89h-.06l-2.49 1.65v-1.25l2.55-1.7h1.23Zm6.37 10.32a4.2 4.2 0 0 1-1.75-.34 3 3 0 0 1-1.22-.94c-.3-.4-.46-.87-.49-1.4h1.25c.03.32.14.6.34.84s.46.42.78.55c.32.13.68.2 1.07.2.44 0 .83-.08 1.16-.23.34-.16.6-.37.8-.64.2-.27.29-.59.29-.94 0-.38-.1-.7-.28-1a1.84 1.84 0 0 0-.81-.67c-.36-.16-.8-.24-1.32-.24h-.81v-1.1h.81c.4 0 .76-.07 1.07-.22a1.65 1.65 0 0 0 .98-1.55c0-.34-.07-.64-.23-.9a1.56 1.56 0 0 0-.64-.6 2.56 2.56 0 0 0-1.97-.02c-.31.13-.56.32-.76.56-.2.24-.3.53-.32.86h-1.19c.02-.53.18-1 .48-1.4a3 3 0 0 1 1.19-.94 3.83 3.83 0 0 1 3.23.04 2.7 2.7 0 0 1 1.4 2.34 2.3 2.3 0 0 1-1.67 2.3v.09a2.33 2.33 0 0 1 2.05 2.45 2.6 2.6 0 0 1-.45 1.49c-.3.44-.7.78-1.22 1.03s-1.1.38-1.77.38Zm13.49-10.32h1.23v7.28c0 .65-.12 1.2-.36 1.65-.23.46-.57.8-1 1.04-.44.23-.95.35-1.54.35-.56 0-1.05-.1-1.49-.3a2.5 2.5 0 0 1-1.02-.88 2.4 2.4 0 0 1-.38-1.35h1.22c0 .3.07.54.21.76.15.21.35.38.6.5s.54.17.86.17c.35 0 .65-.07.9-.22s.44-.37.57-.66c.13-.29.2-.64.2-1.06v-7.28Zm8.36 7.06v-4.52h1.17v7.64h-1.17v-1.3h-.08a2.5 2.5 0 0 1-.84 1c-.38.27-.85.4-1.43.4-.48 0-.9-.1-1.27-.31a2.2 2.2 0 0 1-.88-.96 3.63 3.63 0 0 1-.32-1.61v-4.86h1.18v4.78c0 .55.15 1 .47 1.33.31.33.71.5 1.2.5a2 2 0 0 0 1.97-2.1Zm4.5-7.06v10.18h-1.18v-10.18h1.17Zm6.06 10.18v-.9l3.36-3.67c.4-.44.72-.8.97-1.13.26-.32.45-.62.57-.9.13-.29.19-.59.19-.9a1.65 1.65 0 0 0-.96-1.53 2.12 2.12 0 0 0-.99-.22c-.39 0-.73.08-1.02.25-.3.16-.51.38-.67.67a2.1 2.1 0 0 0-.24 1.01h-1.17a2.87 2.87 0 0 1 1.54-2.63 3.38 3.38 0 0 1 1.6-.37c.6 0 1.13.13 1.59.38a2.8 2.8 0 0 1 1.27 3.54 4.8 4.8 0 0 1-.7 1.19c-.32.43-.78.96-1.36 1.6l-2.3 2.44v.08h4.74v1.09h-6.42Zm11.8.14c-.75 0-1.4-.2-1.92-.61s-.93-1-1.2-1.79a8.5 8.5 0 0 1-.42-2.83c0-1.1.14-2.04.41-2.82a3.9 3.9 0 0 1 1.22-1.79 3.01 3.01 0 0 1 1.9-.62c.75 0 1.38.2 1.91.62.53.41.93 1 1.21 1.79.28.78.43 1.72.43 2.82a8.5 8.5 0 0 1-.42 2.83 3.83 3.83 0 0 1-1.21 1.79c-.53.4-1.17.6-1.91.6Zm0-1.1c.74 0 1.32-.35 1.73-1.07.4-.71.61-1.73.61-3.06 0-.88-.1-1.63-.28-2.25a3.09 3.09 0 0 0-.8-1.42 1.78 1.78 0 0 0-1.26-.49c-.74 0-1.31.37-1.73 1.1a6.23 6.23 0 0 0-.62 3.06c0 .88.1 1.63.28 2.25.18.61.45 1.08.8 1.4.35.32.77.48 1.27.48Zm5.43.96v-.9l3.36-3.67c.4-.44.71-.8.97-1.13.26-.32.44-.62.57-.9.12-.29.19-.59.19-.9a1.66 1.66 0 0 0-.96-1.53 2.2 2.2 0 0 0-1-.22 2 2 0 0 0-1.02.25c-.29.16-.5.38-.67.67a2.1 2.1 0 0 0-.23 1.01h-1.17c0-.6.13-1.12.4-1.57.28-.45.66-.8 1.13-1.05a3.39 3.39 0 0 1 1.6-.38c.6 0 1.13.13 1.6.38.45.25.81.59 1.08 1.02.26.42.39.9.39 1.42 0 .38-.07.74-.2 1.1a4.9 4.9 0 0 1-.7 1.19c-.33.43-.78.96-1.37 1.6l-2.28 2.44v.08h4.73v1.09h-6.43Zm8.47 0v-.9l3.36-3.67c.4-.44.72-.8.98-1.13.25-.32.44-.62.56-.9.13-.29.2-.59.2-.9a1.65 1.65 0 0 0-.96-1.53 2.2 2.2 0 0 0-1-.22c-.39 0-.73.08-1.02.25-.29.16-.51.38-.67.67a2.1 2.1 0 0 0-.24 1.01h-1.17a2.87 2.87 0 0 1 1.54-2.63 3.38 3.38 0 0 1 1.6-.37c.6 0 1.13.13 1.59.38a2.8 2.8 0 0 1 1.28 3.54c-.14.36-.37.75-.7 1.19-.33.43-.79.96-1.37 1.6l-2.29 2.44v.08h4.73v1.09h-6.42Z" fill="#333"/></g><g filter="url(#r)"><path fill="#F3F8FF" d="M354 178h125v40H354z"/><rect x="365.5" y="185" width="65" height="25" rx="4.5" fill="#E9F8E9"/><path d="M371.5 202.5v-10.18h6.1v1.1h-4.87v3.43h4.41v1.1h-4.41v4.55h-1.24Zm8.05 0v-7.64h1.17v7.64h-1.17Zm.6-8.9a.83.83 0 0 1-.6-.24.75.75 0 0 1-.24-.57c0-.21.08-.4.25-.56a.83.83 0 0 1 .59-.23c.23 0 .42.08.58.23.17.16.25.35.25.56 0 .22-.08.41-.25.57a.82.82 0 0 1-.58.23Zm3.9 4.3v4.6h-1.18v-7.64h1.14v1.2h.1c.18-.4.45-.7.81-.94.37-.24.84-.36 1.41-.36.52 0 .97.11 1.36.32.39.21.69.53.9.96.22.42.33.96.33 1.6v4.86h-1.18v-4.77c0-.6-.15-1.07-.46-1.4a1.65 1.65 0 0 0-1.28-.51c-.38 0-.71.08-1 .24-.3.16-.53.4-.7.71-.17.31-.25.7-.25 1.14Zm7.01 4.6v-7.64h1.18v7.64h-1.18Zm.6-8.9a.83.83 0 0 1-.6-.24.75.75 0 0 1-.24-.57c0-.21.08-.4.25-.56a.83.83 0 0 1 .59-.23c.23 0 .42.08.58.23.17.16.25.35.25.56 0 .22-.08.41-.25.57a.82.82 0 0 1-.58.23Zm8.13 2.97-1.05.3a1.99 1.99 0 0 0-.3-.51c-.12-.17-.3-.3-.51-.42-.22-.1-.5-.16-.84-.16a2 2 0 0 0-1.17.32c-.3.21-.46.48-.46.81 0 .3.1.52.32.7.2.16.54.3 1 .42l1.12.27c.69.17 1.2.42 1.53.76.33.34.5.78.5 1.31 0 .44-.12.83-.38 1.17-.24.35-.6.62-1.04.82-.45.2-.97.3-1.56.3-.78 0-1.42-.17-1.93-.5a2.25 2.25 0 0 1-.97-1.49l1.11-.28c.1.41.3.72.6.93.3.2.69.3 1.17.3.55 0 .98-.11 1.3-.34.33-.24.49-.52.49-.85a.9.9 0 0 0-.28-.66 1.76 1.76 0 0 0-.85-.41l-1.28-.3a3.04 3.04 0 0 1-1.54-.77 1.86 1.86 0 0 1-.48-1.32c0-.43.12-.81.36-1.14.24-.33.58-.6 1-.78.42-.2.9-.29 1.44-.29.76 0 1.35.17 1.78.5.43.33.74.77.92 1.31Zm3.08 1.34v4.59h-1.17v-10.18h1.17v3.74h.1c.18-.4.45-.71.8-.94.37-.24.85-.36 1.45-.36.52 0 .97.1 1.37.32.39.2.69.52.9.95.22.42.33.96.33 1.62v4.85h-1.17v-4.77a2 2 0 0 0-.47-1.41c-.31-.33-.75-.5-1.3-.5-.38 0-.73.08-1.03.24-.3.16-.54.4-.72.71a2.3 2.3 0 0 0-.26 1.14Zm10.3 4.75a3.27 3.27 0 0 1-3.13-1.86 4.68 4.68 0 0 1-.43-2.06c0-.78.14-1.47.43-2.07a3.23 3.23 0 0 1 3.01-1.9c.4 0 .8.06 1.18.2a2.93 2.93 0 0 1 1.82 1.81 5 5 0 0 1 .28 1.8v.5h-5.88v-1.02h4.7c0-.43-.1-.81-.27-1.15a1.94 1.94 0 0 0-1.83-1.1 2.2 2.2 0 0 0-1.99 1.26c-.18.36-.27.75-.27 1.17v.68c0 .58.1 1.07.3 1.47.2.4.48.7.83.9.36.21.78.31 1.25.31.31 0 .59-.04.84-.12.25-.1.47-.23.65-.4.18-.18.32-.4.42-.67l1.13.32c-.11.39-.31.72-.6 1.01-.28.3-.63.52-1.04.68-.42.16-.88.24-1.4.24Zm7.83 0a3 3 0 0 1-2.83-1.85c-.27-.6-.4-1.3-.4-2.1 0-.81.13-1.5.4-2.1a3.03 3.03 0 0 1 2.85-1.85 2.12 2.12 0 0 1 1.85.81l.36.5h.1v-3.75h1.17v10.18h-1.13v-1.17h-.14c-.09.14-.2.31-.37.52-.16.21-.38.4-.68.56-.3.17-.69.25-1.18.25Zm.16-1.06c.47 0 .87-.12 1.2-.36.32-.25.57-.6.74-1.03.16-.44.25-.95.25-1.53 0-.57-.08-1.07-.25-1.5a1.96 1.96 0 0 0-1.94-1.37c-.5 0-.91.14-1.24.4-.33.24-.58.59-.74 1.02a4.33 4.33 0 0 0 0 2.93c.17.44.42.8.75 1.06s.74.38 1.23.38Z" fill="#005509"/><rect x="365.5" y="185" width="65" height="25" rx="4.5" stroke="#fff"/></g><g filter="url(#s)"><path fill="#F3F8FF" d="M479 178h159v40H479z"/><path fill-rule="evenodd" clip-rule="evenodd" d="m482.71 197.5.28.44c.25.35.63.84 1.15 1.31a7.01 7.01 0 0 0 4.86 1.92c2.23 0 3.82-.96 4.86-1.91a8.15 8.15 0 0 0 1.42-1.76l-.27-.44a8.1 8.1 0 0 0-1.15-1.31 7.01 7.01 0 0 0-4.86-1.92c-2.23 0-3.82.96-4.86 1.91a8.1 8.1 0 0 0-1.42 1.76Zm12.96 0 .3-.15-.01-.01-.02-.04-.08-.14a8.75 8.75 0 0 0-1.55-1.9 7.68 7.68 0 0 0-5.31-2.1 7.68 7.68 0 0 0-5.3 2.1 8.77 8.77 0 0 0-1.66 2.08v.01l.3.15-.3-.15-.08.15.08.15.3-.15-.3.15v.01l.02.04.08.14.3.47c.28.4.69.91 1.25 1.44a7.68 7.68 0 0 0 5.31 2.08 7.68 7.68 0 0 0 5.31-2.09 8.8 8.8 0 0 0 1.55-1.9l.08-.14.02-.03v-.02l-.3-.15Zm0 0 .3.15.07-.15-.08-.15-.3.15Zm-6.67-1.67a1.67 1.67 0 1 0 0 3.34 1.67 1.67 0 0 0 0-3.34Zm-2.33 1.67a2.33 2.33 0 1 1 4.66 0 2.33 2.33 0 0 1-4.66 0Z" fill="#0F67F5"/><path d="m495.67 197.5.3-.15m-.3.15.3.15h0l-.01.01-.02.04-.08.14-.3.47a8.8 8.8 0 0 1-1.25 1.44 7.68 7.68 0 0 1-5.31 2.08 7.68 7.68 0 0 1-5.3-2.09 8.8 8.8 0 0 1-1.66-2.08h0v-.01h0m13.63-.15.3.15.07-.15-.08-.15m-.3.15.3-.15m0 0h0v-.01l-.02-.04-.08-.14a8.75 8.75 0 0 0-1.55-1.9 7.68 7.68 0 0 0-5.31-2.1 7.68 7.68 0 0 0-5.3 2.1 8.77 8.77 0 0 0-1.66 2.08h0v.01l.3.15m0 0-.3-.15-.08.15.08.15m.3-.15-.3.15m.3-.15-.3.15m.68-.15s0 0 0 0 0 0 0 0l.27-.44a8.1 8.1 0 0 1 1.15-1.31 7.01 7.01 0 0 1 4.86-1.92c2.23 0 3.82.96 4.86 1.91a8.1 8.1 0 0 1 1.42 1.76s0 0 0 0 0 0 0 0a7.22 7.22 0 0 1-1.42 1.75 7.01 7.01 0 0 1-4.86 1.92 7.01 7.01 0 0 1-4.86-1.91 8.15 8.15 0 0 1-1.42-1.76Zm4.61 0a1.67 1.67 0 1 1 3.34 0 1.67 1.67 0 0 1-3.34 0Zm1.67-2.33a2.33 2.33 0 1 0 0 4.66 2.33 2.33 0 0 0 0-4.66Z" stroke="#0F67F5" stroke-linecap="round"/><path d="m506.65 192.32 3.02 8.57h.12l3.03-8.57h1.29l-3.74 10.18h-1.27l-3.74-10.18h1.3Zm8.88 10.18v-7.64h1.18v7.64h-1.18Zm.6-8.9a.83.83 0 0 1-.59-.24.75.75 0 0 1-.24-.57c0-.21.08-.4.24-.56a.83.83 0 0 1 .6-.23c.22 0 .42.08.58.23.16.16.25.35.25.56 0 .22-.09.41-.25.57a.82.82 0 0 1-.59.23Zm5.93 9.06a3.27 3.27 0 0 1-3.13-1.86 4.68 4.68 0 0 1-.43-2.06c0-.78.14-1.47.43-2.07a3.23 3.23 0 0 1 3.01-1.9c.4 0 .79.06 1.18.2a2.93 2.93 0 0 1 1.82 1.81 5 5 0 0 1 .28 1.8v.5h-5.89v-1.02h4.7c0-.43-.09-.81-.26-1.15a1.94 1.94 0 0 0-1.83-1.1 2.2 2.2 0 0 0-1.99 1.26c-.19.36-.28.75-.28 1.17v.68c0 .58.1 1.07.3 1.47.2.4.48.7.84.9.36.21.78.31 1.25.31a1.93 1.93 0 0 0 1.48-.52c.19-.18.33-.4.43-.67l1.13.32a2.5 2.5 0 0 1-.6 1.01c-.28.3-.63.52-1.04.68-.42.16-.88.24-1.4.24Zm6.68-.16-2.33-7.64h1.23l1.65 5.85h.08l1.63-5.85h1.26l1.6 5.83h.09l1.65-5.83h1.23l-2.33 7.64h-1.15l-1.67-5.87h-.12l-1.67 5.87h-1.15Zm13.58 0v-7.64h1.13v1.16h.08c.14-.38.4-.69.76-.92.36-.24.77-.36 1.23-.36a14.75 14.75 0 0 1 .62.02v1.2a3.7 3.7 0 0 0-.72-.08c-.37 0-.7.08-1 .23a1.71 1.71 0 0 0-.94 1.56v4.83h-1.16Zm8.18.16a3.28 3.28 0 0 1-3.13-1.86 4.68 4.68 0 0 1-.43-2.06c0-.78.14-1.47.42-2.07.3-.6.7-1.06 1.2-1.4a3.6 3.6 0 0 1 2.99-.3 2.93 2.93 0 0 1 1.83 1.81 5 5 0 0 1 .28 1.8v.5h-5.89v-1.02h4.7c0-.43-.1-.81-.26-1.15a1.94 1.94 0 0 0-1.83-1.1c-.47 0-.88.12-1.22.36-.33.23-.6.52-.78.9-.18.36-.27.75-.27 1.17v.68c0 .58.1 1.07.3 1.47.2.4.48.7.84.9.36.21.77.31 1.25.31.3 0 .58-.04.83-.12a1.7 1.7 0 0 0 1.07-1.07l1.14.32a2.5 2.5 0 0 1-.6 1.01 2.9 2.9 0 0 1-1.05.68c-.41.16-.88.24-1.4.24Zm10.35-6.09-1.05.3a1.95 1.95 0 0 0-.3-.51c-.12-.17-.3-.3-.51-.42-.22-.1-.5-.16-.84-.16a2 2 0 0 0-1.17.32c-.3.21-.46.48-.46.81 0 .3.1.52.32.7.2.16.54.3.99.42l1.13.27c.69.17 1.2.42 1.53.76.33.34.5.78.5 1.31 0 .44-.13.83-.38 1.17-.25.35-.6.62-1.04.82-.45.2-.97.3-1.56.3-.78 0-1.42-.17-1.94-.5a2.25 2.25 0 0 1-.97-1.49l1.12-.28c.1.41.3.72.6.93.3.2.69.3 1.17.3.54 0 .98-.11 1.3-.34.33-.24.49-.52.49-.85a.9.9 0 0 0-.28-.66 1.77 1.77 0 0 0-.86-.41l-1.27-.3a3.04 3.04 0 0 1-1.54-.77 1.86 1.86 0 0 1-.49-1.32c0-.43.13-.81.37-1.14.24-.33.57-.6 1-.78.42-.2.9-.29 1.44-.29.75 0 1.35.17 1.78.5.43.33.74.77.92 1.31Zm6.72 2.8v-4.5h1.17v7.63h-1.17v-1.3h-.08a2.5 2.5 0 0 1-.84 1c-.37.27-.85.4-1.43.4-.47 0-.9-.1-1.27-.31a2.19 2.19 0 0 1-.87-.96 3.63 3.63 0 0 1-.32-1.61v-4.86h1.17v4.78c0 .55.16 1 .47 1.33.31.33.71.5 1.2.5a2 2 0 0 0 1.97-2.1Zm4.5-7.05v10.18h-1.18v-10.18h1.18Zm5.47 2.54v1h-3.96v-1h3.96Zm-2.8-1.83h1.16v7.28c0 .33.05.58.15.75.1.16.22.27.38.33.15.05.32.08.49.08l.32-.02.2-.04.23 1.05a2.41 2.41 0 0 1-.87.14c-.33 0-.66-.07-.97-.21a1.94 1.94 0 0 1-.79-.66 1.9 1.9 0 0 1-.3-1.1v-7.6Zm9.83 3.54-1.05.3a1.93 1.93 0 0 0-.3-.51c-.12-.17-.3-.3-.51-.42-.22-.1-.5-.16-.84-.16a2 2 0 0 0-1.17.32c-.3.21-.46.48-.46.81 0 .3.1.52.32.7.2.16.54.3.99.42l1.13.27c.69.17 1.2.42 1.53.76.33.34.5.78.5 1.31 0 .44-.12.83-.38 1.17-.24.35-.6.62-1.04.82-.45.2-.97.3-1.56.3-.78 0-1.42-.17-1.94-.5a2.25 2.25 0 0 1-.96-1.49l1.1-.28c.12.41.32.72.61.93.3.2.69.3 1.17.3.55 0 .98-.11 1.3-.34.33-.24.49-.52.49-.85a.9.9 0 0 0-.28-.66 1.77 1.77 0 0 0-.86-.41l-1.27-.3a3.04 3.04 0 0 1-1.54-.77 1.87 1.87 0 0 1-.49-1.32c0-.43.13-.81.37-1.14.24-.33.58-.6 1-.78.42-.2.9-.29 1.44-.29.75 0 1.35.17 1.78.5.43.33.74.77.92 1.31Z" fill="#0F67F5"/><path fill-rule="evenodd" clip-rule="evenodd" d="M609 197.5a1 1 0 1 1 2 0 1 1 0 0 1-2 0Zm1-.33a.33.33 0 1 0 0 .66.33.33 0 0 0 0-.66Zm3 .33a1 1 0 1 1 2 0 1 1 0 0 1-2 0Zm1-.33a.33.33 0 1 0 0 .66.33.33 0 0 0 0-.66Zm3 .33a1 1 0 1 1 2 0 1 1 0 0 1-2 0Zm1-.33a.33.33 0 1 0 0 .66.33.33 0 0 0 0-.66Z" fill="#0F67F5" stroke="#0F67F5"/><rect x="602.5" y="186" width="23" height="23" rx="3.5" stroke="#fff"/></g><path fill="#fff" d="M34 218h604v40H34z"/><g filter="url(#t)" fill="#fff"><path d="M34 218h40v40H34z"/><rect x="46.5" y="230" width="15" height="15" rx="1.5" stroke="#545454"/></g><g filter="url(#u)"><path fill="#fff" d="M74 218h122v40H74z"/><path d="M75.23 242.5v-10.18h3.44c.8 0 1.45.14 1.96.43s.89.67 1.14 1.16c.24.49.36 1.03.36 1.63 0 .6-.12 1.15-.36 1.64-.25.49-.62.88-1.13 1.17-.5.29-1.15.43-1.95.43h-2.46v-1.1h2.42c.55 0 .99-.09 1.32-.28.33-.19.57-.44.72-.76.15-.33.23-.7.23-1.1 0-.4-.08-.77-.23-1.1a1.68 1.68 0 0 0-.72-.75 2.75 2.75 0 0 0-1.34-.28h-2.16v9.09h-1.24Zm8.89-10.18h1.47l3.46 8.45h.12l3.46-8.45h1.47v10.18h-1.15v-7.74h-.1l-3.18 7.74h-1.12l-3.18-7.74h-.1v7.74h-1.15v-10.18Zm20.65 3.18h-1.23a2.57 2.57 0 0 0-1.04-1.61 2.78 2.78 0 0 0-.85-.42 3.4 3.4 0 0 0-.98-.14 3.1 3.1 0 0 0-2.86 1.85c-.3.6-.44 1.35-.44 2.23 0 .88.15 1.63.44 2.23.3.6.69 1.07 1.19 1.38.5.31 1.06.47 1.67.47a2.93 2.93 0 0 0 1.83-.56 2.64 2.64 0 0 0 1.03-1.61h1.24a3.8 3.8 0 0 1-2.65 3.1 4.55 4.55 0 0 1-3.77-.42 4.37 4.37 0 0 1-1.6-1.8 6.2 6.2 0 0 1-.57-2.8c0-1.06.2-2 .58-2.78a4.27 4.27 0 0 1 3.91-2.45c.52 0 1 .08 1.45.23a3.96 3.96 0 0 1 2.14 1.7c.25.41.41.88.5 1.4Zm9.33-3.18v10.18h-1.23v-8.89h-.06l-2.49 1.65v-1.25l2.55-1.7h1.23Zm6.37 10.32c-.66 0-1.24-.11-1.76-.34a3 3 0 0 1-1.22-.94c-.3-.4-.46-.87-.48-1.4h1.25c.03.32.14.6.34.84s.46.42.78.55c.32.13.68.2 1.07.2.44 0 .82-.08 1.16-.23.34-.16.6-.37.8-.64a1.87 1.87 0 0 0 .01-1.94 1.85 1.85 0 0 0-.82-.67c-.36-.16-.8-.24-1.31-.24h-.82v-1.1h.82c.4 0 .76-.07 1.06-.22a1.66 1.66 0 0 0 .98-1.55c0-.34-.07-.64-.22-.9a1.56 1.56 0 0 0-.65-.6 2.55 2.55 0 0 0-1.97-.02c-.3.13-.56.32-.75.56-.2.24-.3.53-.32.86h-1.2c.03-.53.19-1 .49-1.4.3-.4.7-.72 1.18-.94a3.83 3.83 0 0 1 3.24.04 2.62 2.62 0 0 1 1.4 2.34 2.3 2.3 0 0 1-1.67 2.3v.09c.64.1 1.14.38 1.5.82.37.44.55.98.55 1.63a2.6 2.6 0 0 1-.45 1.49c-.3.44-.71.78-1.23 1.03s-1.1.38-1.76.38Zm8.47-1.93v-6.56h1.12v6.56h-1.12Zm-2.72-2.72v-1.12h6.56V238h-6.56Z" fill="#333"/></g><g filter="url(#v)"><path fill="#fff" d="M196 218h158v40H196z"/><path d="m211.08 242.5-2.78-10.18h1.25l2.13 8.3h.1l2.17-8.3h1.39l2.17 8.3h.1l2.12-8.3H221l-2.79 10.18h-1.27l-2.25-8.11h-.08l-2.25 8.11h-1.27Zm13.77.16a3.27 3.27 0 0 1-3.13-1.86 4.68 4.68 0 0 1-.43-2.06c0-.78.15-1.47.43-2.07a3.23 3.23 0 0 1 3.01-1.9c.4 0 .8.06 1.18.2a2.94 2.94 0 0 1 1.82 1.81 5 5 0 0 1 .29 1.8v.5h-5.9v-1.02h4.7c0-.43-.08-.81-.26-1.15a1.94 1.94 0 0 0-1.83-1.1 2.22 2.22 0 0 0-1.99 1.26c-.18.36-.27.75-.27 1.17v.68c0 .58.1 1.07.3 1.47.2.4.48.7.84.9.35.21.77.31 1.24.31.31 0 .59-.04.84-.12.25-.1.47-.23.65-.4.18-.18.32-.4.42-.67l1.14.32a2.5 2.5 0 0 1-.6 1.01c-.29.3-.64.52-1.05.68-.41.16-.88.24-1.4.24Zm7.83 0a3 3 0 0 1-2.83-1.85c-.27-.6-.4-1.3-.4-2.1 0-.81.13-1.5.4-2.1a3.03 3.03 0 0 1 2.85-1.85c.5 0 .9.09 1.18.25.3.17.52.35.67.56l.36.5h.1v-3.75h1.17v10.18h-1.13v-1.17h-.14c-.09.14-.2.31-.37.52-.16.21-.38.4-.68.56-.3.17-.69.25-1.18.25Zm.16-1.06c.47 0 .87-.12 1.2-.36.32-.25.57-.6.74-1.03.17-.44.25-.95.25-1.53 0-.57-.08-1.07-.25-1.5a1.96 1.96 0 0 0-1.94-1.37c-.5 0-.9.14-1.24.4-.33.24-.57.59-.74 1.02a4.1 4.1 0 0 0-.24 1.45c0 .54.08 1.04.24 1.48.17.44.42.8.75 1.06s.74.38 1.23.38Zm13.15-9.28v10.18h-1.23v-8.89h-.06l-2.49 1.65v-1.25l2.55-1.7h1.23Zm6.37 10.32a4.2 4.2 0 0 1-1.75-.34 3 3 0 0 1-1.22-.94c-.3-.4-.46-.87-.49-1.4h1.25c.03.32.14.6.34.84s.46.42.78.55c.32.13.68.2 1.07.2.44 0 .83-.08 1.16-.23.34-.16.6-.37.8-.64.2-.27.29-.59.29-.94 0-.38-.1-.7-.28-1a1.84 1.84 0 0 0-.81-.67c-.36-.16-.8-.24-1.32-.24h-.81v-1.1h.81c.4 0 .76-.07 1.07-.22a1.65 1.65 0 0 0 .98-1.55c0-.34-.07-.64-.23-.9a1.56 1.56 0 0 0-.64-.6 2.56 2.56 0 0 0-1.97-.02c-.31.13-.56.32-.76.56-.2.24-.3.53-.32.86h-1.19c.02-.53.18-1 .48-1.4a3 3 0 0 1 1.19-.94 3.83 3.83 0 0 1 3.23.04 2.7 2.7 0 0 1 1.4 2.34 2.3 2.3 0 0 1-1.67 2.3v.09a2.33 2.33 0 0 1 2.05 2.45 2.6 2.6 0 0 1-.45 1.49c-.3.44-.7.78-1.22 1.03s-1.1.38-1.77.38Zm13.49-10.32h1.23v7.28c0 .65-.12 1.2-.36 1.65-.23.46-.57.8-1 1.04-.44.23-.95.35-1.54.35-.56 0-1.05-.1-1.49-.3a2.5 2.5 0 0 1-1.02-.88 2.4 2.4 0 0 1-.38-1.35h1.22c0 .3.07.54.21.76.15.21.35.38.6.5s.54.17.86.17c.35 0 .65-.07.9-.22s.44-.37.57-.66c.13-.29.2-.64.2-1.06v-7.28Zm8.36 7.06v-4.52h1.17v7.64h-1.17v-1.3h-.08a2.5 2.5 0 0 1-.84 1c-.38.27-.85.4-1.43.4-.48 0-.9-.1-1.27-.31a2.2 2.2 0 0 1-.88-.96 3.63 3.63 0 0 1-.32-1.61v-4.86h1.18v4.78c0 .55.15 1 .47 1.33.31.33.71.5 1.2.5a2 2 0 0 0 1.97-2.1Zm4.5-7.06v10.18h-1.18v-10.18h1.17Zm6.06 10.18v-.9l3.36-3.67c.4-.44.72-.8.97-1.13.26-.32.45-.62.57-.9.13-.29.19-.59.19-.9a1.65 1.65 0 0 0-.96-1.53 2.12 2.12 0 0 0-.99-.22c-.39 0-.73.08-1.02.25-.3.16-.51.38-.67.67a2.1 2.1 0 0 0-.24 1.01h-1.17a2.87 2.87 0 0 1 1.54-2.63 3.38 3.38 0 0 1 1.6-.37c.6 0 1.13.13 1.59.38a2.8 2.8 0 0 1 1.27 3.54 4.8 4.8 0 0 1-.7 1.19c-.32.43-.78.96-1.36 1.6l-2.3 2.44v.08h4.74v1.09h-6.42Zm11.8.14c-.75 0-1.4-.2-1.92-.61s-.93-1-1.2-1.79a8.5 8.5 0 0 1-.42-2.83c0-1.1.14-2.04.41-2.82a3.9 3.9 0 0 1 1.22-1.79 3.01 3.01 0 0 1 1.9-.62c.75 0 1.38.2 1.91.62.53.41.93 1 1.21 1.79.28.78.43 1.72.43 2.82a8.5 8.5 0 0 1-.42 2.83 3.83 3.83 0 0 1-1.21 1.79c-.53.4-1.17.6-1.91.6Zm0-1.1c.74 0 1.32-.35 1.73-1.07.4-.71.61-1.73.61-3.06 0-.88-.1-1.63-.28-2.25a3.09 3.09 0 0 0-.8-1.42 1.78 1.78 0 0 0-1.26-.49c-.74 0-1.31.37-1.73 1.1a6.23 6.23 0 0 0-.62 3.06c0 .88.1 1.63.28 2.25.18.61.45 1.08.8 1.4.35.32.77.48 1.27.48Zm5.43.96v-.9l3.36-3.67c.4-.44.71-.8.97-1.13.26-.32.44-.62.57-.9.12-.29.19-.59.19-.9a1.66 1.66 0 0 0-.96-1.53 2.2 2.2 0 0 0-1-.22 2 2 0 0 0-1.02.25c-.29.16-.5.38-.67.67a2.1 2.1 0 0 0-.23 1.01h-1.17c0-.6.13-1.12.4-1.57.28-.45.66-.8 1.13-1.05a3.39 3.39 0 0 1 1.6-.38c.6 0 1.13.13 1.6.38.45.25.81.59 1.08 1.02.26.42.39.9.39 1.42 0 .38-.07.74-.2 1.1a4.9 4.9 0 0 1-.7 1.19c-.33.43-.78.96-1.37 1.6l-2.28 2.44v.08h4.73v1.09h-6.43Zm8.47 0v-.9l3.36-3.67c.4-.44.72-.8.98-1.13.25-.32.44-.62.56-.9.13-.29.2-.59.2-.9a1.65 1.65 0 0 0-.96-1.53 2.2 2.2 0 0 0-1-.22c-.39 0-.73.08-1.02.25-.29.16-.51.38-.67.67a2.1 2.1 0 0 0-.24 1.01h-1.17a2.87 2.87 0 0 1 1.54-2.63 3.38 3.38 0 0 1 1.6-.37c.6 0 1.13.13 1.59.38a2.8 2.8 0 0 1 1.28 3.54c-.14.36-.37.75-.7 1.19-.33.43-.79.96-1.37 1.6l-2.29 2.44v.08h4.73v1.09h-6.42Z" fill="#333"/></g><g filter="url(#w)"><path fill="#fff" d="M354 218h125v40H354z"/><rect x="365.5" y="225" width="65" height="25" rx="4.5" fill="#E9F8E9"/><path d="M371.5 242.5v-10.18h6.1v1.1h-4.87v3.43h4.41v1.1h-4.41v4.55h-1.24Zm8.05 0v-7.64h1.17v7.64h-1.17Zm.6-8.9a.83.83 0 0 1-.6-.24.75.75 0 0 1-.24-.57c0-.21.08-.4.25-.56a.83.83 0 0 1 .59-.23c.23 0 .42.08.58.23.17.16.25.35.25.56 0 .22-.08.41-.25.57a.82.82 0 0 1-.58.23Zm3.9 4.3v4.6h-1.18v-7.64h1.14v1.2h.1c.18-.4.45-.7.81-.94.37-.24.84-.36 1.41-.36.52 0 .97.11 1.36.32.39.21.69.53.9.96.22.42.33.96.33 1.6v4.86h-1.18v-4.77c0-.6-.15-1.07-.46-1.4a1.65 1.65 0 0 0-1.28-.51c-.38 0-.71.08-1 .24-.3.16-.53.4-.7.71-.17.31-.25.7-.25 1.14Zm7.01 4.6v-7.64h1.18v7.64h-1.18Zm.6-8.9a.83.83 0 0 1-.6-.24.75.75 0 0 1-.24-.57c0-.21.08-.4.25-.56a.83.83 0 0 1 .59-.23c.23 0 .42.08.58.23.17.16.25.35.25.56 0 .22-.08.41-.25.57a.82.82 0 0 1-.58.23Zm8.13 2.97-1.05.3a1.99 1.99 0 0 0-.3-.51c-.12-.17-.3-.3-.51-.42-.22-.1-.5-.16-.84-.16a2 2 0 0 0-1.17.32c-.3.21-.46.48-.46.81 0 .3.1.52.32.7.2.16.54.3 1 .42l1.12.27c.69.17 1.2.42 1.53.76.33.34.5.78.5 1.31 0 .44-.12.83-.38 1.17-.24.35-.6.62-1.04.82-.45.2-.97.3-1.56.3-.78 0-1.42-.17-1.93-.5a2.25 2.25 0 0 1-.97-1.49l1.11-.28c.1.41.3.72.6.93.3.2.69.3 1.17.3.55 0 .98-.11 1.3-.34.33-.24.49-.52.49-.85a.9.9 0 0 0-.28-.66 1.76 1.76 0 0 0-.85-.41l-1.28-.3a3.04 3.04 0 0 1-1.54-.77 1.86 1.86 0 0 1-.48-1.32c0-.43.12-.81.36-1.14.24-.33.58-.6 1-.78.42-.2.9-.29 1.44-.29.76 0 1.35.17 1.78.5.43.33.74.77.92 1.31Zm3.08 1.34v4.59h-1.17v-10.18h1.17v3.74h.1c.18-.4.45-.71.8-.94.37-.24.85-.36 1.45-.36.52 0 .97.1 1.37.32.39.2.69.52.9.95.22.42.33.96.33 1.62v4.85h-1.17v-4.77a2 2 0 0 0-.47-1.41c-.31-.33-.75-.5-1.3-.5-.38 0-.73.08-1.03.24-.3.16-.54.4-.72.71a2.3 2.3 0 0 0-.26 1.14Zm10.3 4.75a3.27 3.27 0 0 1-3.13-1.86 4.68 4.68 0 0 1-.43-2.06c0-.78.14-1.47.43-2.07a3.23 3.23 0 0 1 3.01-1.9c.4 0 .8.06 1.18.2a2.93 2.93 0 0 1 1.82 1.81 5 5 0 0 1 .28 1.8v.5h-5.88v-1.02h4.7c0-.43-.1-.81-.27-1.15a1.94 1.94 0 0 0-1.83-1.1 2.2 2.2 0 0 0-1.99 1.26c-.18.36-.27.75-.27 1.17v.68c0 .58.1 1.07.3 1.47.2.4.48.7.83.9.36.21.78.31 1.25.31.31 0 .59-.04.84-.12.25-.1.47-.23.65-.4.18-.18.32-.4.42-.67l1.13.32c-.11.39-.31.72-.6 1.01-.28.3-.63.52-1.04.68-.42.16-.88.24-1.4.24Zm7.83 0a3 3 0 0 1-2.83-1.85c-.27-.6-.4-1.3-.4-2.1 0-.81.13-1.5.4-2.1a3.03 3.03 0 0 1 2.85-1.85 2.12 2.12 0 0 1 1.85.81l.36.5h.1v-3.75h1.17v10.18h-1.13v-1.17h-.14c-.09.14-.2.31-.37.52-.16.21-.38.4-.68.56-.3.17-.69.25-1.18.25Zm.16-1.06c.47 0 .87-.12 1.2-.36.32-.25.57-.6.74-1.03.16-.44.25-.95.25-1.53 0-.57-.08-1.07-.25-1.5a1.96 1.96 0 0 0-1.94-1.37c-.5 0-.91.14-1.24.4-.33.24-.58.59-.74 1.02a4.33 4.33 0 0 0 0 2.93c.17.44.42.8.75 1.06s.74.38 1.23.38Z" fill="#005509"/><rect x="365.5" y="225" width="65" height="25" rx="4.5" stroke="#fff"/></g><g filter="url(#x)"><path fill="#fff" d="M479 218h159v40H479z"/><path fill-rule="evenodd" clip-rule="evenodd" d="m482.71 237.5.28.44c.25.35.63.84 1.15 1.31a7.01 7.01 0 0 0 4.86 1.92c2.23 0 3.82-.96 4.86-1.91a8.15 8.15 0 0 0 1.42-1.76l-.27-.44a8.1 8.1 0 0 0-1.15-1.31 7.01 7.01 0 0 0-4.86-1.92c-2.23 0-3.82.96-4.86 1.91a8.1 8.1 0 0 0-1.42 1.76Zm12.96 0 .3-.15-.01-.01-.02-.04-.08-.14a8.75 8.75 0 0 0-1.55-1.9 7.68 7.68 0 0 0-5.31-2.1 7.68 7.68 0 0 0-5.3 2.1 8.77 8.77 0 0 0-1.66 2.08v.01l.3.15-.3-.15-.08.15.08.15.3-.15-.3.15v.01l.02.04.08.14.3.47c.28.4.69.91 1.25 1.44a7.68 7.68 0 0 0 5.31 2.08 7.68 7.68 0 0 0 5.31-2.09 8.8 8.8 0 0 0 1.55-1.9l.08-.14.02-.03v-.02l-.3-.15Zm0 0 .3.15.07-.15-.08-.15-.3.15Zm-6.67-1.67a1.67 1.67 0 1 0 0 3.34 1.67 1.67 0 0 0 0-3.34Zm-2.33 1.67a2.33 2.33 0 1 1 4.66 0 2.33 2.33 0 0 1-4.66 0Z" fill="#0F67F5"/><path d="m495.67 237.5.3-.15m-.3.15.3.15h0l-.01.01-.02.04-.08.14-.3.47a8.8 8.8 0 0 1-1.25 1.44 7.68 7.68 0 0 1-5.31 2.08 7.68 7.68 0 0 1-5.3-2.09 8.8 8.8 0 0 1-1.66-2.08h0v-.01h0m13.63-.15.3.15.07-.15-.08-.15m-.3.15.3-.15m0 0h0v-.01l-.02-.04-.08-.14a8.75 8.75 0 0 0-1.55-1.9 7.68 7.68 0 0 0-5.31-2.1 7.68 7.68 0 0 0-5.3 2.1 8.77 8.77 0 0 0-1.66 2.08h0v.01l.3.15m0 0-.3-.15-.08.15.08.15m.3-.15-.3.15m.3-.15-.3.15m.68-.15s0 0 0 0 0 0 0 0l.27-.44a8.1 8.1 0 0 1 1.15-1.31 7.01 7.01 0 0 1 4.86-1.92c2.23 0 3.82.96 4.86 1.91a8.1 8.1 0 0 1 1.42 1.76s0 0 0 0 0 0 0 0a7.22 7.22 0 0 1-1.42 1.75 7.01 7.01 0 0 1-4.86 1.92 7.01 7.01 0 0 1-4.86-1.91 8.15 8.15 0 0 1-1.42-1.76Zm4.61 0a1.67 1.67 0 1 1 3.34 0 1.67 1.67 0 0 1-3.34 0Zm1.67-2.33a2.33 2.33 0 1 0 0 4.66 2.33 2.33 0 0 0 0-4.66Z" stroke="#0F67F5" stroke-linecap="round"/><path d="m506.65 232.32 3.02 8.57h.12l3.03-8.57h1.29l-3.74 10.18h-1.27l-3.74-10.18h1.3Zm8.88 10.18v-7.64h1.18v7.64h-1.18Zm.6-8.9a.83.83 0 0 1-.59-.24.75.75 0 0 1-.24-.57c0-.21.08-.4.24-.56a.83.83 0 0 1 .6-.23c.22 0 .42.08.58.23.16.16.25.35.25.56 0 .22-.09.41-.25.57a.82.82 0 0 1-.59.23Zm5.93 9.06a3.27 3.27 0 0 1-3.13-1.86 4.68 4.68 0 0 1-.43-2.06c0-.78.14-1.47.43-2.07a3.23 3.23 0 0 1 3.01-1.9c.4 0 .79.06 1.18.2a2.93 2.93 0 0 1 1.82 1.81 5 5 0 0 1 .28 1.8v.5h-5.89v-1.02h4.7c0-.43-.09-.81-.26-1.15a1.94 1.94 0 0 0-1.83-1.1 2.2 2.2 0 0 0-1.99 1.26c-.19.36-.28.75-.28 1.17v.68c0 .58.1 1.07.3 1.47.2.4.48.7.84.9.36.21.78.31 1.25.31a1.93 1.93 0 0 0 1.48-.52c.19-.18.33-.4.43-.67l1.13.32a2.5 2.5 0 0 1-.6 1.01c-.28.3-.63.52-1.04.68-.42.16-.88.24-1.4.24Zm6.68-.16-2.33-7.64h1.23l1.65 5.85h.08l1.63-5.85h1.26l1.6 5.83h.09l1.65-5.83h1.23l-2.33 7.64h-1.15l-1.67-5.87h-.12l-1.67 5.87h-1.15Zm13.58 0v-7.64h1.13v1.16h.08c.14-.38.4-.69.76-.92.36-.24.77-.36 1.23-.36a14.75 14.75 0 0 1 .62.02v1.2a3.7 3.7 0 0 0-.72-.08c-.37 0-.7.08-1 .23a1.71 1.71 0 0 0-.94 1.56v4.83h-1.16Zm8.18.16a3.28 3.28 0 0 1-3.13-1.86 4.68 4.68 0 0 1-.43-2.06c0-.78.14-1.47.42-2.07.3-.6.7-1.06 1.2-1.4a3.6 3.6 0 0 1 2.99-.3 2.93 2.93 0 0 1 1.83 1.81 5 5 0 0 1 .28 1.8v.5h-5.89v-1.02h4.7c0-.43-.1-.81-.26-1.15a1.94 1.94 0 0 0-1.83-1.1c-.47 0-.88.12-1.22.36-.33.23-.6.52-.78.9-.18.36-.27.75-.27 1.17v.68c0 .58.1 1.07.3 1.47.2.4.48.7.84.9.36.21.77.31 1.25.31.3 0 .58-.04.83-.12a1.7 1.7 0 0 0 1.07-1.07l1.14.32a2.5 2.5 0 0 1-.6 1.01 2.9 2.9 0 0 1-1.05.68c-.41.16-.88.24-1.4.24Zm10.35-6.09-1.05.3a1.95 1.95 0 0 0-.3-.51c-.12-.17-.3-.3-.51-.42-.22-.1-.5-.16-.84-.16a2 2 0 0 0-1.17.32c-.3.21-.46.48-.46.81 0 .3.1.52.32.7.2.16.54.3.99.42l1.13.27c.69.17 1.2.42 1.53.76.33.34.5.78.5 1.31 0 .44-.13.83-.38 1.17-.25.35-.6.62-1.04.82-.45.2-.97.3-1.56.3-.78 0-1.42-.17-1.94-.5a2.25 2.25 0 0 1-.97-1.49l1.12-.28c.1.41.3.72.6.93.3.2.69.3 1.17.3.54 0 .98-.11 1.3-.34.33-.24.49-.52.49-.85a.9.9 0 0 0-.28-.66 1.77 1.77 0 0 0-.86-.41l-1.27-.3a3.04 3.04 0 0 1-1.54-.77 1.86 1.86 0 0 1-.49-1.32c0-.43.13-.81.37-1.14.24-.33.57-.6 1-.78.42-.2.9-.29 1.44-.29.75 0 1.35.17 1.78.5.43.33.74.77.92 1.31Zm6.72 2.8v-4.5h1.17v7.63h-1.17v-1.3h-.08a2.5 2.5 0 0 1-.84 1c-.37.27-.85.4-1.43.4-.47 0-.9-.1-1.27-.31a2.19 2.19 0 0 1-.87-.96 3.63 3.63 0 0 1-.32-1.61v-4.86h1.17v4.78c0 .55.16 1 .47 1.33.31.33.71.5 1.2.5a2 2 0 0 0 1.97-2.1Zm4.5-7.05v10.18h-1.18v-10.18h1.18Zm5.47 2.54v1h-3.96v-1h3.96Zm-2.8-1.83h1.16v7.28c0 .33.05.58.15.75.1.16.22.27.38.33.15.05.32.08.49.08l.32-.02.2-.04.23 1.05a2.41 2.41 0 0 1-.87.14c-.33 0-.66-.07-.97-.21a1.94 1.94 0 0 1-.79-.66 1.9 1.9 0 0 1-.3-1.1v-7.6Zm9.83 3.54-1.05.3a1.93 1.93 0 0 0-.3-.51c-.12-.17-.3-.3-.51-.42-.22-.1-.5-.16-.84-.16a2 2 0 0 0-1.17.32c-.3.21-.46.48-.46.81 0 .3.1.52.32.7.2.16.54.3.99.42l1.13.27c.69.17 1.2.42 1.53.76.33.34.5.78.5 1.31 0 .44-.12.83-.38 1.17-.24.35-.6.62-1.04.82-.45.2-.97.3-1.56.3-.78 0-1.42-.17-1.94-.5a2.25 2.25 0 0 1-.96-1.49l1.1-.28c.12.41.32.72.61.93.3.2.69.3 1.17.3.55 0 .98-.11 1.3-.34.33-.24.49-.52.49-.85a.9.9 0 0 0-.28-.66 1.77 1.77 0 0 0-.86-.41l-1.27-.3a3.04 3.04 0 0 1-1.54-.77 1.87 1.87 0 0 1-.49-1.32c0-.43.13-.81.37-1.14.24-.33.58-.6 1-.78.42-.2.9-.29 1.44-.29.75 0 1.35.17 1.78.5.43.33.74.77.92 1.31Z" fill="#0F67F5"/><path fill-rule="evenodd" clip-rule="evenodd" d="M609 237.5a1 1 0 1 1 2 0 1 1 0 0 1-2 0Zm1-.33a.33.33 0 1 0 0 .66.33.33 0 0 0 0-.66Zm3 .33a1 1 0 1 1 2 0 1 1 0 0 1-2 0Zm1-.33a.33.33 0 1 0 0 .66.33.33 0 0 0 0-.66Zm3 .33a1 1 0 1 1 2 0 1 1 0 0 1-2 0Zm1-.33a.33.33 0 1 0 0 .66.33.33 0 0 0 0-.66Z" fill="#0F67F5" stroke="#0F67F5"/><rect x="602.5" y="226" width="23" height="23" rx="3.5" stroke="#fff"/></g></g><defs><filter id="h" x="34" y="138" width="40" height="40" filterUnits="userSpaceOnUse" color-interpolation-filters="sRGB"><feFlood flood-opacity="0" result="BackgroundImageFix"/><feBlend in="SourceGraphic" in2="BackgroundImageFix" result="shape"/><feColorMatrix in="SourceAlpha" values="0 0 0 0 0 0 0 0 0 0 0 0 0 0 0 0 0 0 127 0" result="hardAlpha"/><feOffset dy="-1"/><feComposite in2="hardAlpha" operator="arithmetic" k2="-1" k3="1"/><feColorMatrix values="0 0 0 0 0.933333 0 0 0 0 0.933333 0 0 0 0 0.933333 0 0 0 1 0"/><feBlend in2="shape" result="effect1_innerShadow_10819_106792"/></filter><filter id="j" x="74" y="138" width="122" height="40" filterUnits="userSpaceOnUse" color-interpolation-filters="sRGB"><feFlood flood-opacity="0" result="BackgroundImageFix"/><feBlend in="SourceGraphic" in2="BackgroundImageFix" result="shape"/><feColorMatrix in="SourceAlpha" values="0 0 0 0 0 0 0 0 0 0 0 0 0 0 0 0 0 0 127 0" result="hardAlpha"/><feOffset dy="-1"/><feComposite in2="hardAlpha" operator="arithmetic" k2="-1" k3="1"/><feColorMatrix values="0 0 0 0 0.933333 0 0 0 0 0.933333 0 0 0 0 0.933333 0 0 0 1 0"/><feBlend in2="shape" result="effect1_innerShadow_10819_106792"/></filter><filter id="k" x="196" y="138" width="158" height="40" filterUnits="userSpaceOnUse" color-interpolation-filters="sRGB"><feFlood flood-opacity="0" result="BackgroundImageFix"/><feBlend in="SourceGraphic" in2="BackgroundImageFix" result="shape"/><feColorMatrix in="SourceAlpha" values="0 0 0 0 0 0 0 0 0 0 0 0 0 0 0 0 0 0 127 0" result="hardAlpha"/><feOffset dy="-1"/><feComposite in2="hardAlpha" operator="arithmetic" k2="-1" k3="1"/><feColorMatrix values="0 0 0 0 0.933333 0 0 0 0 0.933333 0 0 0 0 0.933333 0 0 0 1 0"/><feBlend in2="shape" result="effect1_innerShadow_10819_106792"/></filter><filter id="l" x="354" y="138" width="125" height="40" filterUnits="userSpaceOnUse" color-interpolation-filters="sRGB"><feFlood flood-opacity="0" result="BackgroundImageFix"/><feBlend in="SourceGraphic" in2="BackgroundImageFix" result="shape"/><feColorMatrix in="SourceAlpha" values="0 0 0 0 0 0 0 0 0 0 0 0 0 0 0 0 0 0 127 0" result="hardAlpha"/><feOffset dy="-1"/><feComposite in2="hardAlpha" operator="arithmetic" k2="-1" k3="1"/><feColorMatrix values="0 0 0 0 0.933333 0 0 0 0 0.933333 0 0 0 0 0.933333 0 0 0 1 0"/><feBlend in2="shape" result="effect1_innerShadow_10819_106792"/></filter><filter id="m" x="479" y="138" width="159" height="40" filterUnits="userSpaceOnUse" color-interpolation-filters="sRGB"><feFlood flood-opacity="0" result="BackgroundImageFix"/><feBlend in="SourceGraphic" in2="BackgroundImageFix" result="shape"/><feColorMatrix in="SourceAlpha" values="0 0 0 0 0 0 0 0 0 0 0 0 0 0 0 0 0 0 127 0" result="hardAlpha"/><feOffset dy="-1"/><feComposite in2="hardAlpha" operator="arithmetic" k2="-1" k3="1"/><feColorMatrix values="0 0 0 0 0.933333 0 0 0 0 0.933333 0 0 0 0 0.933333 0 0 0 1 0"/><feBlend in2="shape" result="effect1_innerShadow_10819_106792"/></filter><filter id="n" x="34" y="178" width="40" height="40" filterUnits="userSpaceOnUse" color-interpolation-filters="sRGB"><feFlood flood-opacity="0" result="BackgroundImageFix"/><feBlend in="SourceGraphic" in2="BackgroundImageFix" result="shape"/><feColorMatrix in="SourceAlpha" values="0 0 0 0 0 0 0 0 0 0 0 0 0 0 0 0 0 0 127 0" result="hardAlpha"/><feOffset dy="-1"/><feComposite in2="hardAlpha" operator="arithmetic" k2="-1" k3="1"/><feColorMatrix values="0 0 0 0 0.933333 0 0 0 0 0.933333 0 0 0 0 0.933333 0 0 0 1 0"/><feBlend in2="shape" result="effect1_innerShadow_10819_106792"/></filter><filter id="p" x="74" y="178" width="122" height="40" filterUnits="userSpaceOnUse" color-interpolation-filters="sRGB"><feFlood flood-opacity="0" result="BackgroundImageFix"/><feBlend in="SourceGraphic" in2="BackgroundImageFix" result="shape"/><feColorMatrix in="SourceAlpha" values="0 0 0 0 0 0 0 0 0 0 0 0 0 0 0 0 0 0 127 0" result="hardAlpha"/><feOffset dy="-1"/><feComposite in2="hardAlpha" operator="arithmetic" k2="-1" k3="1"/><feColorMatrix values="0 0 0 0 0.933333 0 0 0 0 0.933333 0 0 0 0 0.933333 0 0 0 1 0"/><feBlend in2="shape" result="effect1_innerShadow_10819_106792"/></filter><filter id="q" x="196" y="178" width="158" height="40" filterUnits="userSpaceOnUse" color-interpolation-filters="sRGB"><feFlood flood-opacity="0" result="BackgroundImageFix"/><feBlend in="SourceGraphic" in2="BackgroundImageFix" result="shape"/><feColorMatrix in="SourceAlpha" values="0 0 0 0 0 0 0 0 0 0 0 0 0 0 0 0 0 0 127 0" result="hardAlpha"/><feOffset dy="-1"/><feComposite in2="hardAlpha" operator="arithmetic" k2="-1" k3="1"/><feColorMatrix values="0 0 0 0 0.933333 0 0 0 0 0.933333 0 0 0 0 0.933333 0 0 0 1 0"/><feBlend in2="shape" result="effect1_innerShadow_10819_106792"/></filter><filter id="r" x="354" y="178" width="125" height="40" filterUnits="userSpaceOnUse" color-interpolation-filters="sRGB"><feFlood flood-opacity="0" result="BackgroundImageFix"/><feBlend in="SourceGraphic" in2="BackgroundImageFix" result="shape"/><feColorMatrix in="SourceAlpha" values="0 0 0 0 0 0 0 0 0 0 0 0 0 0 0 0 0 0 127 0" result="hardAlpha"/><feOffset dy="-1"/><feComposite in2="hardAlpha" operator="arithmetic" k2="-1" k3="1"/><feColorMatrix values="0 0 0 0 0.933333 0 0 0 0 0.933333 0 0 0 0 0.933333 0 0 0 1 0"/><feBlend in2="shape" result="effect1_innerShadow_10819_106792"/></filter><filter id="s" x="479" y="178" width="159" height="40" filterUnits="userSpaceOnUse" color-interpolation-filters="sRGB"><feFlood flood-opacity="0" result="BackgroundImageFix"/><feBlend in="SourceGraphic" in2="BackgroundImageFix" result="shape"/><feColorMatrix in="SourceAlpha" values="0 0 0 0 0 0 0 0 0 0 0 0 0 0 0 0 0 0 127 0" result="hardAlpha"/><feOffset dy="-1"/><feComposite in2="hardAlpha" operator="arithmetic" k2="-1" k3="1"/><feColorMatrix values="0 0 0 0 0.933333 0 0 0 0 0.933333 0 0 0 0 0.933333 0 0 0 1 0"/><feBlend in2="shape" result="effect1_innerShadow_10819_106792"/></filter><filter id="t" x="34" y="218" width="40" height="40" filterUnits="userSpaceOnUse" color-interpolation-filters="sRGB"><feFlood flood-opacity="0" result="BackgroundImageFix"/><feBlend in="SourceGraphic" in2="BackgroundImageFix" result="shape"/><feColorMatrix in="SourceAlpha" values="0 0 0 0 0 0 0 0 0 0 0 0 0 0 0 0 0 0 127 0" result="hardAlpha"/><feOffset dy="-1"/><feComposite in2="hardAlpha" operator="arithmetic" k2="-1" k3="1"/><feColorMatrix values="0 0 0 0 0.933333 0 0 0 0 0.933333 0 0 0 0 0.933333 0 0 0 1 0"/><feBlend in2="shape" result="effect1_innerShadow_10819_106792"/></filter><filter id="u" x="74" y="218" width="122" height="40" filterUnits="userSpaceOnUse" color-interpolation-filters="sRGB"><feFlood flood-opacity="0" result="BackgroundImageFix"/><feBlend in="SourceGraphic" in2="BackgroundImageFix" result="shape"/><feColorMatrix in="SourceAlpha" values="0 0 0 0 0 0 0 0 0 0 0 0 0 0 0 0 0 0 127 0" result="hardAlpha"/><feOffset dy="-1"/><feComposite in2="hardAlpha" operator="arithmetic" k2="-1" k3="1"/><feColorMatrix values="0 0 0 0 0.933333 0 0 0 0 0.933333 0 0 0 0 0.933333 0 0 0 1 0"/><feBlend in2="shape" result="effect1_innerShadow_10819_106792"/></filter><filter id="v" x="196" y="218" width="158" height="40" filterUnits="userSpaceOnUse" color-interpolation-filters="sRGB"><feFlood flood-opacity="0" result="BackgroundImageFix"/><feBlend in="SourceGraphic" in2="BackgroundImageFix" result="shape"/><feColorMatrix in="SourceAlpha" values="0 0 0 0 0 0 0 0 0 0 0 0 0 0 0 0 0 0 127 0" result="hardAlpha"/><feOffset dy="-1"/><feComposite in2="hardAlpha" operator="arithmetic" k2="-1" k3="1"/><feColorMatrix values="0 0 0 0 0.933333 0 0 0 0 0.933333 0 0 0 0 0.933333 0 0 0 1 0"/><feBlend in2="shape" result="effect1_innerShadow_10819_106792"/></filter><filter id="w" x="354" y="218" width="125" height="40" filterUnits="userSpaceOnUse" color-interpolation-filters="sRGB"><feFlood flood-opacity="0" result="BackgroundImageFix"/><feBlend in="SourceGraphic" in2="BackgroundImageFix" result="shape"/><feColorMatrix in="SourceAlpha" values="0 0 0 0 0 0 0 0 0 0 0 0 0 0 0 0 0 0 127 0" result="hardAlpha"/><feOffset dy="-1"/><feComposite in2="hardAlpha" operator="arithmetic" k2="-1" k3="1"/><feColorMatrix values="0 0 0 0 0.933333 0 0 0 0 0.933333 0 0 0 0 0.933333 0 0 0 1 0"/><feBlend in2="shape" result="effect1_innerShadow_10819_106792"/></filter><filter id="x" x="479" y="218" width="159" height="40" filterUnits="userSpaceOnUse" color-interpolation-filters="sRGB"><feFlood flood-opacity="0" result="BackgroundImageFix"/><feBlend in="SourceGraphic" in2="BackgroundImageFix" result="shape"/><feColorMatrix in="SourceAlpha" values="0 0 0 0 0 0 0 0 0 0 0 0 0 0 0 0 0 0 127 0" result="hardAlpha"/><feOffset dy="-1"/><feComposite in2="hardAlpha" operator="arithmetic" k2="-1" k3="1"/><feColorMatrix values="0 0 0 0 0.933333 0 0 0 0 0.933333 0 0 0 0 0.933333 0 0 0 1 0"/><feBlend in2="shape" result="effect1_innerShadow_10819_106792"/></filter><clipPath id="a"><path fill="#fff" transform="translate(34 49)" d="M0 0h604v209H0z"/></clipPath><clipPath id="b"><path fill="#fff" transform="translate(46 109)" d="M0 0h16v16H0z"/></clipPath><clipPath id="i"><path fill="#fff" transform="translate(46 149.5)" d="M0 0h16v16H0z"/></clipPath><clipPath id="o"><path fill="#fff" transform="translate(46 189.5)" d="M0 0h16v16H0z"/></clipPath></defs></svg>