<svg width="300" height="142" fill="none" xmlns="http://www.w3.org/2000/svg"><rect x=".5" y=".5" width="299" height="141" rx="8" fill="#fff"/><g clip-path="url(#a)"><mask id="b" fill="#fff"><path d="M16.5 16.5H150v29H16.5v-29Z"/></mask><path d="M16.5 16.5H150v29H16.5v-29Z" fill="#F6F6F6"/><path d="M29.06 26.86v-1.54h8.12v1.54h-3.15v8.64H32.2v-8.64h-3.14Zm11.88 8.79c-.77 0-1.43-.16-1.98-.48a3.23 3.23 0 0 1-1.28-1.36 4.56 4.56 0 0 1-.45-2.08c0-.79.15-1.48.45-2.07a3.38 3.38 0 0 1 3.17-1.9c.47 0 .91.08 1.33.23a3.19 3.19 0 0 1 1.88 1.9c.18.49.28 1.06.28 1.73v.55h-6.26v-1.2h4.53a2 2 0 0 0-.22-.93 1.63 1.63 0 0 0-.61-.64 1.72 1.72 0 0 0-.9-.23c-.38 0-.7.09-.98.26-.28.18-.5.41-.65.7a2 2 0 0 0-.23.94v1.06c0 .44.08.82.24 1.14.16.32.39.56.68.73.3.16.63.25 1.03.25.26 0 .5-.04.7-.11.22-.08.4-.19.56-.34.15-.14.27-.32.35-.54l1.68.2c-.1.44-.3.82-.6 1.16-.3.32-.68.58-1.14.76-.46.18-.99.27-1.58.27Zm7.12 0c-.49 0-.92-.08-1.31-.25a2.13 2.13 0 0 1-.92-.78 2.27 2.27 0 0 1-.33-1.26c0-.43.08-.79.24-1.07.16-.28.38-.5.65-.68.28-.17.59-.3.93-.38.35-.09.7-.15 1.08-.2l1.09-.12c.28-.04.48-.1.6-.18.13-.08.2-.2.2-.38v-.03c0-.37-.11-.66-.34-.87-.22-.2-.54-.3-.95-.3-.45 0-.8.09-1.05.28-.26.2-.43.42-.52.68l-1.68-.24A2.68 2.68 0 0 1 47.52 28a4.76 4.76 0 0 1 2.56-.1c.37.08.7.22 1 .42.3.2.55.46.73.8.18.34.28.76.28 1.27v5.11h-1.73v-1.05h-.06a2.2 2.2 0 0 1-1.2 1.04c-.3.1-.65.16-1.04.16Zm.46-1.32c.36 0 .68-.07.94-.21a1.55 1.55 0 0 0 .83-1.36v-.9A.85.85 0 0 1 50 32a13.84 13.84 0 0 1-1.36.24c-.27.04-.5.1-.72.18-.21.09-.38.2-.5.35a.85.85 0 0 0-.18.57c0 .33.12.58.36.75.24.17.55.25.92.25Zm8.7 1.32A3.35 3.35 0 0 1 54 33.76a4.78 4.78 0 0 1-.43-2.05c0-.77.15-1.46.45-2.05.3-.6.72-1.06 1.26-1.4a3.7 3.7 0 0 1 1.94-.5c.62 0 1.17.12 1.64.35a2.81 2.81 0 0 1 1.64 2.4h-1.72a1.64 1.64 0 0 0-.5-.92c-.26-.25-.6-.37-1.04-.37-.36 0-.69.1-.97.3-.27.19-.5.47-.65.84-.15.37-.23.8-.23 1.32s.08.97.23 1.34c.16.38.37.66.64.86.28.2.6.3.98.3.27 0 .5-.05.71-.15.22-.1.4-.25.54-.44.14-.2.24-.43.29-.7h1.72a2.83 2.83 0 0 1-1.6 2.41 3.8 3.8 0 0 1-1.67.35Zm6.56-4.62v4.47h-1.8V25.32h1.76v3.84h.09c.18-.43.45-.77.83-1.02.38-.25.86-.38 1.44-.38.53 0 1 .12 1.39.34.39.22.7.54.91.97.22.43.33.95.33 1.57v4.86h-1.8v-4.58c0-.52-.13-.92-.4-1.2a1.42 1.42 0 0 0-1.1-.43c-.32 0-.6.07-.86.2-.25.14-.44.34-.58.6-.14.25-.21.57-.21.94Zm10.16 4.62c-.76 0-1.42-.16-1.98-.48a3.23 3.23 0 0 1-1.28-1.36 4.56 4.56 0 0 1-.44-2.08c0-.79.14-1.48.44-2.07a3.38 3.38 0 0 1 3.17-1.9c.47 0 .91.08 1.33.23a3.17 3.17 0 0 1 1.88 1.9c.19.49.28 1.06.28 1.73v.55h-6.26v-1.2h4.53c0-.35-.07-.66-.22-.93a1.63 1.63 0 0 0-.61-.64 1.72 1.72 0 0 0-.9-.23 1.8 1.8 0 0 0-1.63.96 2 2 0 0 0-.23.94v1.06c0 .44.08.82.24 1.14.17.32.4.56.68.73a2.25 2.25 0 0 0 1.74.14c.21-.08.4-.19.55-.34.16-.14.28-.32.35-.54l1.69.2a2.7 2.7 0 0 1-1.74 1.92c-.47.18-1 .27-1.59.27Zm4.92-.15v-7.64h1.75v1.28h.08a1.9 1.9 0 0 1 1.88-1.39 4.13 4.13 0 0 1 .65.05v1.66a3.34 3.34 0 0 0-.84-.1c-.33 0-.62.07-.88.2a1.56 1.56 0 0 0-.84 1.45v4.49h-1.8Z" fill="#1F1F1F"/><path d="M150 44.5H16.5v2H150v-2Z" fill="#F6F6F6" mask="url(#b)"/><mask id="c" fill="#fff"><path d="M150 16.5h133.5v29H150v-29Z"/></mask><path d="M150 16.5h133.5v29H150v-29Z" fill="#F6F6F6"/><path d="M166.46 35.5H163V25.32h3.52c1.01 0 1.88.2 2.6.61.74.4 1.3.99 1.69 1.74.4.76.59 1.67.59 2.73s-.2 1.97-.6 2.73a4.1 4.1 0 0 1-1.7 1.76 5.4 5.4 0 0 1-2.64.61Zm-1.61-1.6h1.52c.7 0 1.3-.13 1.77-.38.47-.27.83-.65 1.07-1.17.24-.52.36-1.17.36-1.95s-.12-1.43-.36-1.94a2.5 2.5 0 0 0-1.06-1.16 3.52 3.52 0 0 0-1.73-.39h-1.57v7Zm10.42 1.75c-.49 0-.92-.08-1.31-.25a2.14 2.14 0 0 1-.92-.78 2.27 2.27 0 0 1-.33-1.26c0-.43.08-.79.24-1.07.16-.28.38-.5.65-.68.28-.17.59-.3.93-.38.35-.09.7-.15 1.08-.2l1.09-.12c.28-.04.48-.1.6-.18.13-.08.2-.2.2-.38v-.03c0-.37-.11-.66-.33-.87-.23-.2-.55-.3-.96-.3-.44 0-.8.09-1.05.28-.26.2-.43.42-.52.68l-1.68-.24a2.68 2.68 0 0 1 1.78-1.87 4.76 4.76 0 0 1 2.56-.1c.36.08.7.22 1 .42.3.2.54.46.72.8.19.34.28.76.28 1.27v5.11h-1.73v-1.05h-.06a2.2 2.2 0 0 1-1.2 1.04c-.3.1-.65.16-1.04.16Zm.46-1.32c.37 0 .68-.07.94-.21a1.52 1.52 0 0 0 .83-1.36v-.9a.85.85 0 0 1-.28.13l-.45.1a14.09 14.09 0 0 1-.92.14c-.26.04-.5.1-.72.18-.21.09-.38.2-.5.35a.85.85 0 0 0-.18.57c0 .33.12.58.36.75.24.17.55.25.92.25Zm9.2-6.47v1.4h-4.4v-1.4h4.4Zm-3.31-1.83h1.8v7.17c0 .25.03.43.1.56.08.13.18.21.3.26.13.04.26.07.41.07a1.76 1.76 0 0 0 .53-.07l.3 1.4a4 4 0 0 1-1.06.18c-.45.02-.85-.05-1.22-.2a1.89 1.89 0 0 1-.86-.7 2.1 2.1 0 0 1-.3-1.2v-7.47Zm7 9.62c-.48 0-.92-.08-1.3-.25a2.13 2.13 0 0 1-.92-.78 2.27 2.27 0 0 1-.33-1.26c0-.43.08-.79.24-1.07.16-.28.37-.5.65-.68.27-.17.58-.3.93-.38.35-.09.7-.15 1.08-.2l1.09-.12c.27-.04.48-.1.6-.18.13-.08.2-.2.2-.38v-.03c0-.37-.12-.66-.34-.87-.22-.2-.54-.3-.96-.3-.44 0-.79.09-1.05.28-.25.2-.42.42-.51.68l-1.68-.24a2.69 2.69 0 0 1 1.77-1.87 4.76 4.76 0 0 1 2.56-.1c.37.08.7.22 1 .42.3.2.54.46.73.8.18.34.28.76.28 1.27v5.11h-1.73v-1.05h-.06a2.19 2.19 0 0 1-1.2 1.04c-.3.1-.65.16-1.05.16Zm.47-1.32c.36 0 .68-.07.94-.21a1.55 1.55 0 0 0 .83-1.36v-.9a.84.84 0 0 1-.29.13 13.77 13.77 0 0 1-1.36.24c-.27.04-.5.1-.72.18-.21.09-.38.2-.5.35a.85.85 0 0 0-.19.57c0 .33.13.58.37.75.24.17.55.25.92.25Zm14.88-4.45-1.64.18a1.31 1.31 0 0 0-.7-.82 1.62 1.62 0 0 0-.7-.13c-.38 0-.7.08-.95.24-.25.16-.37.37-.37.63 0 .22.08.4.24.54.17.14.45.26.84.35l1.3.27c.72.16 1.26.4 1.61.75.36.33.53.78.54 1.32 0 .48-.15.9-.42 1.28-.28.36-.66.65-1.15.85-.5.2-1.06.3-1.7.3-.93 0-1.68-.19-2.25-.58-.57-.4-.91-.94-1.02-1.64l1.75-.17c.09.34.25.6.51.78.26.17.6.26 1.01.26.43 0 .77-.09 1.03-.26.26-.18.4-.4.4-.65a.7.7 0 0 0-.26-.54 1.77 1.77 0 0 0-.78-.33l-1.3-.28a3.1 3.1 0 0 1-1.62-.77 1.9 1.9 0 0 1-.53-1.38c0-.47.13-.88.39-1.22a2.5 2.5 0 0 1 1.09-.8c.46-.2 1-.3 1.61-.3.9 0 1.6.2 2.11.58.52.38.84.9.96 1.54Zm4.98 5.77a3.36 3.36 0 0 1-3.22-1.89 4.6 4.6 0 0 1-.44-2.05c0-.77.15-1.46.45-2.05a3.35 3.35 0 0 1 3.2-1.9c.62 0 1.17.12 1.65.35a2.81 2.81 0 0 1 1.63 2.4h-1.72a1.65 1.65 0 0 0-.5-.92 1.4 1.4 0 0 0-1.03-.37c-.37 0-.7.1-.97.3-.28.19-.5.47-.65.84-.16.37-.23.8-.23 1.32s.07.97.23 1.34c.15.38.36.66.64.86.28.2.6.3.98.3.26 0 .5-.05.7-.15.22-.1.4-.25.54-.44.14-.2.24-.43.3-.7h1.71a2.83 2.83 0 0 1-1.6 2.41c-.47.23-1.03.35-1.67.35Zm6.55-4.62v4.47h-1.8V25.32h1.76v3.84h.1c.17-.43.45-.77.82-1.02.38-.25.86-.38 1.44-.38.53 0 1 .12 1.4.34.38.22.69.54.9.97.22.43.33.95.33 1.57v4.86h-1.8v-4.58c0-.52-.13-.92-.4-1.2a1.42 1.42 0 0 0-1.1-.43c-.32 0-.6.07-.85.2-.25.14-.45.34-.59.6-.14.25-.2.57-.2.94Zm10.17 4.62c-.77 0-1.43-.16-1.98-.48a3.24 3.24 0 0 1-1.28-1.36 4.57 4.57 0 0 1-.45-2.08c0-.79.15-1.48.45-2.07a3.39 3.39 0 0 1 3.16-1.9c.47 0 .92.08 1.34.23a3 3 0 0 1 1.11.7c.32.31.58.71.77 1.2.18.49.27 1.06.27 1.73v.55h-6.25v-1.2h4.53a2 2 0 0 0-.22-.93 1.62 1.62 0 0 0-.62-.64 1.72 1.72 0 0 0-.9-.23 1.8 1.8 0 0 0-1.62.96 2 2 0 0 0-.23.94v1.06c0 .44.08.82.24 1.14.16.32.39.56.68.73a2.2 2.2 0 0 0 1.73.14c.22-.08.4-.19.56-.34.15-.14.27-.32.35-.54l1.68.2c-.1.44-.3.82-.6 1.16-.3.32-.68.58-1.14.76-.46.18-.99.27-1.58.27Zm7.75-.02a2.89 2.89 0 0 1-2.73-1.8 5.01 5.01 0 0 1-.42-2.14c0-.85.14-1.56.42-2.15a2.92 2.92 0 0 1 3.84-1.55c.29.15.52.33.69.54.16.21.3.41.39.6h.07v-3.81h1.8V35.5h-1.76v-1.2h-.11c-.1.18-.23.38-.4.59a2.2 2.2 0 0 1-1.79.74Zm.5-1.47c.38 0 .7-.1.98-.31.27-.2.47-.5.6-.87.15-.37.22-.8.22-1.3s-.07-.92-.21-1.29a1.83 1.83 0 0 0-.6-.85c-.27-.2-.6-.3-.99-.3-.4 0-.73.1-1 .31s-.47.5-.6.87a3.9 3.9 0 0 0-.01 2.54 2 2 0 0 0 .61.88c.28.21.6.32 1 .32Zm10.35-1.87v-4.43h1.8v7.64h-1.74v-1.36h-.08a2.3 2.3 0 0 1-.85 1.05c-.4.27-.88.4-1.45.4-.5 0-.94-.1-1.33-.32a2.32 2.32 0 0 1-.9-.98 3.47 3.47 0 0 1-.31-1.56v-4.87h1.8v4.59c0 .48.13.87.4 1.15.26.29.6.43 1.04.43a1.65 1.65 0 0 0 1.38-.77c.16-.26.24-.58.24-.97Zm5.45-6.97V35.5h-1.8V25.32h1.8Zm5.23 10.33c-.76 0-1.42-.16-1.98-.48a3.24 3.24 0 0 1-1.28-1.36 4.57 4.57 0 0 1-.44-2.08c0-.79.14-1.48.44-2.07a3.39 3.39 0 0 1 3.17-1.9c.47 0 .91.08 1.33.23a3 3 0 0 1 1.12.7c.32.31.57.71.76 1.2.19.49.28 1.06.28 1.73v.55h-6.26v-1.2h4.53c0-.35-.07-.66-.22-.93a1.63 1.63 0 0 0-.61-.64 1.72 1.72 0 0 0-.9-.23 1.8 1.8 0 0 0-1.63.96 2 2 0 0 0-.23.94v1.06c0 .44.08.82.24 1.14a1.8 1.8 0 0 0 1.71.98c.26 0 .5-.04.71-.11.21-.08.4-.19.55-.34.16-.14.27-.32.35-.54l1.69.2a2.7 2.7 0 0 1-1.74 1.92c-.47.18-1 .27-1.59.27Zm7.76-.02a2.89 2.89 0 0 1-2.74-1.8 5.01 5.01 0 0 1-.41-2.14c0-.85.14-1.56.42-2.15a2.92 2.92 0 0 1 3.84-1.55c.28.15.51.33.68.54.17.21.3.41.4.6h.07v-3.81h1.8V35.5H265v-1.2h-.1c-.1.18-.23.38-.4.59a2.22 2.22 0 0 1-1.8.74Zm.5-1.47c.38 0 .7-.1.97-.31.27-.2.47-.5.61-.87s.21-.8.21-1.3-.07-.92-.2-1.29a1.83 1.83 0 0 0-.61-.85c-.27-.2-.6-.3-.98-.3-.4 0-.74.1-1 .31-.27.21-.48.5-.61.87-.14.37-.2.79-.2 1.26 0 .48.06.9.2 1.28a2 2 0 0 0 .6.88c.28.21.61.32 1 .32Z" fill="#1F1F1F"/><path d="M283.5 44.5H150v2h133.5v-2Z" fill="#F6F6F6" mask="url(#c)"/><path fill="#fff" d="M16.5 45.5h267v40h-267z"/><g filter="url(#d)"><path fill="#fff" d="M16.5 45.5H150v40H16.5z"/><path d="M33.13 59.82V70H31.9v-8.89h-.06l-2.48 1.65v-1.25l2.54-1.7h1.23ZM36.06 70v-.9l3.36-3.67c.4-.43.72-.8.98-1.13.25-.32.44-.62.56-.9.13-.29.2-.59.2-.9a1.65 1.65 0 0 0-.96-1.53 2.2 2.2 0 0 0-1-.22c-.39 0-.73.08-1.02.25-.29.16-.51.38-.67.67a2.1 2.1 0 0 0-.24 1.01H36.1a2.87 2.87 0 0 1 1.54-2.63 3.39 3.39 0 0 1 1.6-.37c.6 0 1.13.12 1.59.38a2.8 2.8 0 0 1 1.28 3.54c-.14.36-.37.75-.7 1.19-.33.43-.79.96-1.37 1.6l-2.29 2.44v.08h4.74V70h-6.43Zm12.1-10.66-3.28 12.2H43.8l3.28-12.2h1.08Zm4.69 10.8a3 3 0 0 1-1.91-.61c-.53-.41-.93-1-1.21-1.79a8.49 8.49 0 0 1-.42-2.83c0-1.1.14-2.04.42-2.82.28-.78.68-1.38 1.21-1.79a3 3 0 0 1 1.91-.62c.74 0 1.38.2 1.9.62.53.41.94 1 1.22 1.79.28.78.42 1.72.42 2.82 0 1.1-.14 2.05-.42 2.83a3.82 3.82 0 0 1-1.2 1.79c-.53.4-1.17.6-1.92.6Zm0-1.1c.74 0 1.32-.35 1.73-1.07.41-.71.62-1.74.62-3.06 0-.88-.1-1.63-.29-2.25a3.09 3.09 0 0 0-.8-1.42 1.78 1.78 0 0 0-1.26-.49c-.74 0-1.31.37-1.73 1.1a6.23 6.23 0 0 0-.62 3.06c0 .88.1 1.63.28 2.25.19.61.45 1.08.8 1.4.35.32.78.49 1.27.49Zm5.43.96v-.9l3.36-3.67c.4-.43.72-.8.97-1.13.26-.32.45-.62.57-.9.13-.29.19-.59.19-.9a1.65 1.65 0 0 0-.95-1.53 2.2 2.2 0 0 0-1-.22c-.4 0-.73.08-1.02.25-.3.16-.52.38-.67.67a2.1 2.1 0 0 0-.24 1.01h-1.17a2.87 2.87 0 0 1 1.54-2.63 3.39 3.39 0 0 1 1.6-.37c.6 0 1.13.12 1.59.38a2.8 2.8 0 0 1 1.27 3.54 4.8 4.8 0 0 1-.7 1.19c-.33.43-.78.96-1.36 1.6l-2.3 2.44v.08h4.74V70h-6.42Zm12.1-10.66-3.29 12.2h-1.07l3.28-12.2h1.07ZM71.74 70v-.9l3.36-3.67c.4-.43.72-.8.97-1.13.26-.32.44-.62.57-.9.12-.29.19-.59.19-.9a1.65 1.65 0 0 0-.96-1.53c-.3-.15-.62-.22-1-.22s-.73.08-1.02.25c-.29.16-.5.38-.67.67a2.1 2.1 0 0 0-.23 1.01h-1.17c0-.6.13-1.12.4-1.57.28-.45.66-.8 1.13-1.05a3.39 3.39 0 0 1 1.6-.38c.6 0 1.13.12 1.6.38.45.25.82.59 1.08 1.02.26.42.39.9.39 1.42 0 .38-.07.74-.2 1.1-.14.36-.37.75-.7 1.19-.33.43-.78.96-1.37 1.6l-2.28 2.44v.08h4.73V70h-6.42Zm11.8.14a3 3 0 0 1-1.92-.61c-.53-.41-.93-1-1.2-1.79a8.49 8.49 0 0 1-.43-2.83c0-1.1.14-2.04.42-2.82a3.9 3.9 0 0 1 1.21-1.79 3 3 0 0 1 1.91-.62c.75 0 1.38.2 1.9.62.54.41.94 1 1.22 1.79.28.78.42 1.72.42 2.82 0 1.1-.14 2.05-.41 2.83a3.82 3.82 0 0 1-1.21 1.79c-.53.4-1.17.6-1.92.6Zm0-1.1c.74 0 1.31-.35 1.72-1.07.41-.71.62-1.74.62-3.06 0-.88-.1-1.63-.28-2.25a3.09 3.09 0 0 0-.8-1.42 1.78 1.78 0 0 0-1.27-.49c-.73 0-1.3.37-1.72 1.1a6.23 6.23 0 0 0-.62 3.06c0 .88.09 1.63.27 2.25.19.61.46 1.08.8 1.4.36.32.78.49 1.27.49Zm5.42.96v-.9l3.36-3.67c.4-.43.72-.8.98-1.13.25-.32.44-.62.56-.9.13-.29.2-.59.2-.9a1.65 1.65 0 0 0-.96-1.53 2.2 2.2 0 0 0-1-.22c-.39 0-.73.08-1.02.25-.29.16-.51.38-.67.67a2.1 2.1 0 0 0-.23 1.01H89a2.87 2.87 0 0 1 1.54-2.63 3.39 3.39 0 0 1 1.6-.37c.6 0 1.13.12 1.59.38a2.8 2.8 0 0 1 1.28 3.54c-.14.36-.37.75-.7 1.19-.33.43-.79.96-1.37 1.6l-2.29 2.44v.08h4.74V70h-6.43Zm11.92.14c-.66 0-1.24-.11-1.76-.34a3 3 0 0 1-1.21-.94 2.6 2.6 0 0 1-.5-1.4h1.26c.03.32.14.6.34.84s.46.42.78.55c.32.13.68.2 1.07.2.44 0 .82-.08 1.16-.23.34-.16.6-.37.8-.64a1.78 1.78 0 0 0 .01-1.93 1.85 1.85 0 0 0-.82-.68c-.36-.16-.8-.24-1.31-.24h-.82v-1.1h.82c.4 0 .76-.07 1.06-.22.31-.14.55-.35.73-.61.17-.27.26-.58.26-.94 0-.34-.08-.64-.23-.9a1.56 1.56 0 0 0-.65-.6 2.1 2.1 0 0 0-.97-.2c-.35 0-.68.06-1 .19-.3.12-.56.3-.75.55-.2.24-.3.53-.32.86h-1.2c.03-.53.19-1 .49-1.4.3-.4.7-.72 1.18-.94a3.82 3.82 0 0 1 3.24.04 2.7 2.7 0 0 1 1.4 2.34 2.29 2.29 0 0 1-1.67 2.3v.09c.64.1 1.15.38 1.5.82.37.44.55.98.55 1.63a2.6 2.6 0 0 1-.45 1.49c-.3.43-.7.78-1.23 1.03-.51.25-1.1.38-1.76.38Z" fill="#333"/></g><g filter="url(#e)"><path fill="#fff" d="M150 45.5h133.5v40H150z"/><rect x="161.5" y="52.5" width="65" height="25" rx="4.5" fill="#E9F8E9"/><path d="M167.5 70V59.82h6.1v1.1h-4.87v3.43h4.41v1.1h-4.41V70h-1.24Zm8.05 0v-7.64h1.17V70h-1.17Zm.6-8.9a.83.83 0 0 1-.6-.24.75.75 0 0 1-.24-.56c0-.22.08-.41.25-.57a.83.83 0 0 1 .59-.23c.23 0 .42.08.58.23.17.16.25.35.25.57 0 .21-.08.4-.25.56a.82.82 0 0 1-.58.23Zm3.9 4.3V70h-1.18v-7.64h1.14v1.2h.1c.17-.4.45-.7.81-.94.37-.24.84-.36 1.41-.36.52 0 .97.11 1.36.32.39.21.69.53.9.96.22.42.33.96.33 1.6V70h-1.17v-4.77c0-.6-.16-1.07-.47-1.4a1.65 1.65 0 0 0-1.28-.51c-.38 0-.71.08-1 .24-.3.16-.53.4-.7.71-.17.31-.25.7-.25 1.14Zm7.01 4.6v-7.64h1.18V70h-1.18Zm.6-8.9a.83.83 0 0 1-.6-.24.75.75 0 0 1-.24-.56c0-.22.09-.41.25-.57a.83.83 0 0 1 .59-.23c.23 0 .42.08.59.23a.78.78 0 0 1-.01 1.13.82.82 0 0 1-.58.23Zm8.13 2.97-1.05.3a1.99 1.99 0 0 0-.3-.51c-.12-.17-.3-.3-.51-.42-.22-.1-.5-.16-.84-.16a2 2 0 0 0-1.17.32c-.3.21-.46.48-.46.81 0 .3.1.52.32.7.2.16.54.3 1 .42l1.12.27c.69.17 1.2.42 1.53.76.33.34.5.78.5 1.31 0 .44-.12.83-.38 1.18-.24.34-.6.61-1.04.81-.45.2-.97.3-1.56.3-.78 0-1.42-.17-1.93-.5a2.25 2.25 0 0 1-.97-1.49l1.11-.28c.1.41.3.72.6.93.3.2.69.3 1.17.3.55 0 .98-.11 1.3-.34.33-.24.49-.52.49-.85a.9.9 0 0 0-.28-.66 1.77 1.77 0 0 0-.85-.41l-1.28-.3a3.04 3.04 0 0 1-1.54-.77 1.9 1.9 0 0 1-.49-1.32c0-.43.13-.81.37-1.14.24-.33.58-.6 1-.78.42-.2.9-.29 1.44-.29.75 0 1.35.17 1.78.5.43.33.74.77.92 1.31Zm3.08 1.34V70h-1.17V59.82h1.17v3.74h.1c.18-.4.45-.71.8-.94a2.6 2.6 0 0 1 1.45-.36c.52 0 .97.1 1.37.32.39.2.69.52.9.95.22.42.33.96.33 1.62V70h-1.17v-4.77a2 2 0 0 0-.47-1.41c-.31-.33-.75-.5-1.3-.5-.38 0-.73.08-1.03.24-.3.16-.54.4-.72.71a2.3 2.3 0 0 0-.26 1.14Zm10.3 4.75a3.27 3.27 0 0 1-3.13-1.86 4.68 4.68 0 0 1-.43-2.06c0-.78.14-1.47.43-2.07a3.23 3.23 0 0 1 3.01-1.9c.4 0 .8.06 1.18.2a2.92 2.92 0 0 1 1.82 1.81 5 5 0 0 1 .28 1.8v.5h-5.88v-1.01h4.7c0-.44-.1-.82-.27-1.16a1.95 1.95 0 0 0-1.83-1.1c-.47 0-.87.12-1.21.36-.34.22-.6.52-.78.9-.18.36-.27.75-.27 1.17v.68c0 .58.1 1.07.3 1.47.2.4.48.7.83.9.36.21.78.32 1.25.32.31 0 .59-.05.84-.13.25-.1.47-.23.65-.4.18-.18.32-.4.42-.67l1.13.32c-.12.38-.31.72-.6 1.01-.28.3-.63.52-1.04.68-.41.16-.88.24-1.4.24Zm7.83 0a2.99 2.99 0 0 1-2.83-1.86 5.01 5.01 0 0 1-.4-2.1 5 5 0 0 1 .4-2.09 3.03 3.03 0 0 1 2.85-1.85 2.12 2.12 0 0 1 1.85.81l.36.5h.1v-3.75h1.17V70h-1.13v-1.17h-.14c-.09.14-.2.31-.37.52-.16.21-.38.4-.68.57-.3.16-.69.24-1.18.24Zm.16-1.05a2 2 0 0 0 1.2-.37c.32-.25.57-.6.73-1.03.17-.44.26-.95.26-1.53 0-.57-.08-1.07-.25-1.5a1.96 1.96 0 0 0-1.94-1.37c-.5 0-.91.14-1.24.4-.33.24-.58.59-.74 1.02a4.3 4.3 0 0 0 0 2.93c.17.44.42.8.75 1.06s.74.39 1.23.39Z" fill="#005509"/><rect x="161.5" y="52.5" width="65" height="25" rx="4.5" stroke="#fff"/></g><path fill="#fff" d="M16.5 85.5h267v40h-267z"/><g filter="url(#f)"><path fill="#fff" d="M16.5 85.5H150v40H16.5z"/><path d="M33.13 99.82V110H31.9v-8.89h-.06l-2.48 1.65v-1.25l2.54-1.7h1.23ZM36.06 110v-.9l3.36-3.67c.4-.44.72-.8.98-1.13.25-.32.44-.62.56-.9.13-.29.2-.59.2-.9a1.65 1.65 0 0 0-.96-1.53 2.2 2.2 0 0 0-1-.22c-.39 0-.73.08-1.02.25-.29.16-.51.38-.67.67a2.1 2.1 0 0 0-.24 1.01H36.1a2.87 2.87 0 0 1 1.54-2.63 3.38 3.38 0 0 1 1.6-.37c.6 0 1.13.12 1.59.38a2.8 2.8 0 0 1 1.28 3.54c-.14.36-.37.75-.7 1.19-.33.43-.79.96-1.37 1.6l-2.29 2.44v.08h4.74V110h-6.43Zm12.1-10.66-3.28 12.2H43.8l3.28-12.2h1.08Zm4.69 10.8a3 3 0 0 1-1.91-.61c-.53-.41-.93-1-1.21-1.79a8.49 8.49 0 0 1-.42-2.83c0-1.1.14-2.04.42-2.82.28-.78.68-1.38 1.21-1.79a3.01 3.01 0 0 1 1.91-.62c.74 0 1.38.2 1.9.62.53.41.94 1 1.22 1.79.28.78.42 1.72.42 2.82 0 1.1-.14 2.05-.42 2.83a3.82 3.82 0 0 1-1.2 1.79c-.53.4-1.17.6-1.92.6Zm0-1.1c.74 0 1.32-.35 1.73-1.07a6.2 6.2 0 0 0 .62-3.06c0-.88-.1-1.63-.29-2.25a3.1 3.1 0 0 0-.8-1.42 1.78 1.78 0 0 0-1.26-.49c-.74 0-1.31.37-1.73 1.1a6.23 6.23 0 0 0-.62 3.06c0 .88.1 1.63.28 2.25.19.61.45 1.08.8 1.4.35.33.78.48 1.27.48Zm5.43.96v-.9l3.36-3.67c.4-.44.72-.8.97-1.13.26-.32.45-.62.57-.9.13-.29.19-.59.19-.9a1.65 1.65 0 0 0-.95-1.53 2.2 2.2 0 0 0-1-.22c-.4 0-.73.08-1.02.25-.3.16-.52.38-.67.67a2.1 2.1 0 0 0-.24 1.01h-1.17a2.87 2.87 0 0 1 1.54-2.63 3.38 3.38 0 0 1 1.6-.37c.6 0 1.13.12 1.59.38a2.8 2.8 0 0 1 1.27 3.54 4.8 4.8 0 0 1-.7 1.19c-.33.43-.78.96-1.36 1.6l-2.3 2.44v.08h4.74V110h-6.42Zm12.1-10.66-3.29 12.2h-1.07l3.28-12.2h1.07ZM71.74 110v-.9l3.36-3.67c.4-.44.72-.8.97-1.13.26-.32.44-.62.57-.9.12-.29.19-.59.19-.9a1.65 1.65 0 0 0-.96-1.53c-.3-.15-.62-.22-1-.22s-.73.08-1.02.25c-.29.16-.5.38-.67.67a2.1 2.1 0 0 0-.23 1.01h-1.17c0-.6.13-1.12.4-1.57.28-.45.66-.8 1.13-1.05a3.38 3.38 0 0 1 1.6-.38c.6 0 1.13.12 1.6.38.45.25.82.59 1.08 1.02.26.42.39.9.39 1.42 0 .38-.07.74-.2 1.1-.14.36-.37.75-.7 1.19-.33.43-.78.96-1.37 1.6l-2.28 2.44v.08h4.73V110h-6.42Zm11.8.14a3 3 0 0 1-1.92-.61c-.53-.41-.93-1-1.2-1.79a8.49 8.49 0 0 1-.43-2.83c0-1.1.14-2.04.42-2.82a3.9 3.9 0 0 1 1.21-1.79 3 3 0 0 1 1.91-.62c.75 0 1.38.2 1.9.62.54.41.94 1 1.22 1.79.28.78.42 1.72.42 2.82 0 1.1-.14 2.05-.41 2.83a3.82 3.82 0 0 1-1.21 1.79c-.53.4-1.17.6-1.92.6Zm0-1.1c.74 0 1.31-.35 1.72-1.07a6.2 6.2 0 0 0 .62-3.06c0-.88-.1-1.63-.28-2.25a3.1 3.1 0 0 0-.8-1.42 1.78 1.78 0 0 0-1.27-.49c-.73 0-1.3.37-1.72 1.1a6.23 6.23 0 0 0-.62 3.06c0 .88.09 1.63.27 2.25.19.61.46 1.08.8 1.4.36.33.78.48 1.27.48Zm5.42.96v-.9l3.36-3.67c.4-.44.72-.8.98-1.13.25-.32.44-.62.56-.9.13-.29.2-.59.2-.9a1.65 1.65 0 0 0-.96-1.53 2.2 2.2 0 0 0-1-.22c-.39 0-.73.08-1.02.25-.29.16-.51.38-.67.67a2.1 2.1 0 0 0-.23 1.01H89a2.87 2.87 0 0 1 1.54-2.63 3.38 3.38 0 0 1 1.6-.37c.6 0 1.13.12 1.59.38a2.8 2.8 0 0 1 1.28 3.54c-.14.36-.37.75-.7 1.19-.33.43-.79.96-1.37 1.6l-2.29 2.44v.08h4.74V110h-6.43Zm11.92.14c-.66 0-1.24-.11-1.76-.34a3 3 0 0 1-1.21-.94 2.6 2.6 0 0 1-.5-1.4h1.26c.03.32.14.6.34.85.2.23.46.41.78.54.32.13.68.2 1.07.2.44 0 .82-.08 1.16-.23.34-.16.6-.37.8-.64a1.78 1.78 0 0 0 .01-1.93 1.85 1.85 0 0 0-.82-.68c-.36-.16-.8-.24-1.31-.24h-.82v-1.1h.82c.4 0 .76-.07 1.06-.22.31-.14.55-.35.73-.61.17-.27.26-.58.26-.94 0-.34-.08-.64-.23-.9a1.55 1.55 0 0 0-.65-.6 2.55 2.55 0 0 0-1.97-.02c-.3.13-.56.32-.75.56-.2.24-.3.53-.32.86h-1.2c.03-.53.19-1 .49-1.4.3-.4.7-.72 1.18-.94a3.82 3.82 0 0 1 3.24.04 2.7 2.7 0 0 1 1.4 2.34 2.3 2.3 0 0 1-1.67 2.3v.09c.64.1 1.15.38 1.5.82.37.44.55.98.55 1.63a2.6 2.6 0 0 1-.45 1.49c-.3.44-.7.78-1.23 1.03-.51.25-1.1.38-1.76.38Z" fill="#333"/></g><g filter="url(#g)"><path fill="#fff" d="M150 85.5h133.5v40H150z"/><rect x="161.5" y="92.5" width="65" height="25" rx="4.5" fill="#E9F8E9"/><path d="M167.5 110V99.82h6.1v1.1h-4.87v3.43h4.41v1.1h-4.41V110h-1.24Zm8.05 0v-7.64h1.17V110h-1.17Zm.6-8.9a.83.83 0 0 1-.6-.24.75.75 0 0 1-.24-.56c0-.22.08-.41.25-.57a.83.83 0 0 1 .59-.23c.23 0 .42.08.58.23.17.16.25.35.25.56 0 .22-.08.41-.25.57a.82.82 0 0 1-.58.23Zm3.9 4.3v4.6h-1.18v-7.64h1.14v1.2h.1c.17-.4.45-.7.81-.94.37-.24.84-.36 1.41-.36.52 0 .97.11 1.36.32.39.21.69.53.9.96.22.42.33.96.33 1.6V110h-1.17v-4.77c0-.6-.16-1.07-.47-1.4a1.65 1.65 0 0 0-1.28-.51c-.38 0-.71.08-1 .24-.3.16-.53.4-.7.71-.17.31-.25.7-.25 1.14Zm7.01 4.6v-7.64h1.18V110h-1.18Zm.6-8.9a.83.83 0 0 1-.6-.24.75.75 0 0 1-.24-.56c0-.22.09-.41.25-.57a.83.83 0 0 1 .59-.23c.23 0 .42.08.59.23a.77.77 0 0 1-.01 1.13.82.82 0 0 1-.58.23Zm8.13 2.97-1.05.3a1.99 1.99 0 0 0-.3-.51c-.12-.17-.3-.3-.51-.42-.22-.1-.5-.16-.84-.16a2 2 0 0 0-1.17.32c-.3.21-.46.48-.46.81 0 .3.1.52.32.7.2.16.54.3 1 .42l1.12.27c.69.17 1.2.42 1.53.77.33.33.5.77.5 1.3 0 .44-.12.83-.38 1.17-.24.35-.6.62-1.04.82-.45.2-.97.3-1.56.3-.78 0-1.42-.17-1.93-.5a2.25 2.25 0 0 1-.97-1.49l1.11-.28c.1.41.3.72.6.93.3.2.69.3 1.17.3.55 0 .98-.11 1.3-.34.33-.24.49-.52.49-.85a.9.9 0 0 0-.28-.66 1.76 1.76 0 0 0-.85-.41l-1.28-.3a3.04 3.04 0 0 1-1.54-.77 1.86 1.86 0 0 1-.49-1.32c0-.43.13-.81.37-1.14.24-.33.58-.6 1-.78.42-.2.9-.29 1.44-.29.75 0 1.35.17 1.78.5.43.33.74.77.92 1.31Zm3.08 1.34V110h-1.17V99.82h1.17v3.74h.1c.18-.4.45-.71.8-.94.37-.24.85-.36 1.45-.36.52 0 .97.1 1.37.32.39.2.69.52.9.95.22.42.33.96.33 1.62V110h-1.17v-4.77a2 2 0 0 0-.47-1.41c-.31-.33-.75-.5-1.3-.5-.38 0-.73.08-1.03.24-.3.16-.54.4-.72.71a2.3 2.3 0 0 0-.26 1.14Zm10.3 4.75a3.27 3.27 0 0 1-3.13-1.86 4.68 4.68 0 0 1-.43-2.06c0-.78.14-1.47.43-2.07a3.23 3.23 0 0 1 3.01-1.9c.4 0 .8.06 1.18.2a2.93 2.93 0 0 1 1.82 1.81 5 5 0 0 1 .28 1.8v.5h-5.88v-1.02h4.7c0-.43-.1-.81-.27-1.15a1.94 1.94 0 0 0-1.83-1.1c-.47 0-.87.12-1.21.36-.34.22-.6.52-.78.9-.18.36-.27.75-.27 1.17v.68c0 .58.1 1.07.3 1.47.2.4.48.7.83.9.36.21.78.31 1.25.31.31 0 .59-.04.84-.12.25-.1.47-.23.65-.4.18-.18.32-.4.42-.67l1.13.32c-.12.38-.31.72-.6 1.01-.28.3-.63.52-1.04.68-.41.16-.88.24-1.4.24Zm7.83 0a3 3 0 0 1-2.83-1.85c-.27-.6-.4-1.3-.4-2.1 0-.81.13-1.5.4-2.1a3.03 3.03 0 0 1 2.85-1.85c.5 0 .9.09 1.18.25a2 2 0 0 1 .67.56l.36.5h.1v-3.75h1.17V110h-1.13v-1.17h-.14c-.09.14-.2.31-.37.52-.16.21-.38.4-.68.57-.3.16-.69.24-1.18.24Zm.16-1.05a2 2 0 0 0 1.2-.37c.32-.25.57-.6.73-1.03.17-.44.26-.95.26-1.53 0-.57-.08-1.07-.25-1.5a1.96 1.96 0 0 0-1.94-1.37c-.5 0-.91.14-1.24.4-.33.24-.58.59-.74 1.02a4.33 4.33 0 0 0 0 2.93c.17.44.42.8.75 1.06s.74.39 1.23.39Z" fill="#005509"/><rect x="161.5" y="92.5" width="65" height="25" rx="4.5" stroke="#fff"/></g></g><defs><filter id="d" x="16.5" y="45.5" width="133.5" height="40" filterUnits="userSpaceOnUse" color-interpolation-filters="sRGB"><feFlood flood-opacity="0" result="BackgroundImageFix"/><feBlend in="SourceGraphic" in2="BackgroundImageFix" result="shape"/><feColorMatrix in="SourceAlpha" values="0 0 0 0 0 0 0 0 0 0 0 0 0 0 0 0 0 0 127 0" result="hardAlpha"/><feOffset dy="-1"/><feComposite in2="hardAlpha" operator="arithmetic" k2="-1" k3="1"/><feColorMatrix values="0 0 0 0 0.933333 0 0 0 0 0.933333 0 0 0 0 0.933333 0 0 0 1 0"/><feBlend in2="shape" result="effect1_innerShadow_11695_104326"/></filter><filter id="e" x="150" y="45.5" width="133.5" height="40" filterUnits="userSpaceOnUse" color-interpolation-filters="sRGB"><feFlood flood-opacity="0" result="BackgroundImageFix"/><feBlend in="SourceGraphic" in2="BackgroundImageFix" result="shape"/><feColorMatrix in="SourceAlpha" values="0 0 0 0 0 0 0 0 0 0 0 0 0 0 0 0 0 0 127 0" result="hardAlpha"/><feOffset dy="-1"/><feComposite in2="hardAlpha" operator="arithmetic" k2="-1" k3="1"/><feColorMatrix values="0 0 0 0 0.933333 0 0 0 0 0.933333 0 0 0 0 0.933333 0 0 0 1 0"/><feBlend in2="shape" result="effect1_innerShadow_11695_104326"/></filter><filter id="f" x="16.5" y="85.5" width="133.5" height="40" filterUnits="userSpaceOnUse" color-interpolation-filters="sRGB"><feFlood flood-opacity="0" result="BackgroundImageFix"/><feBlend in="SourceGraphic" in2="BackgroundImageFix" result="shape"/><feColorMatrix in="SourceAlpha" values="0 0 0 0 0 0 0 0 0 0 0 0 0 0 0 0 0 0 127 0" result="hardAlpha"/><feOffset dy="-1"/><feComposite in2="hardAlpha" operator="arithmetic" k2="-1" k3="1"/><feColorMatrix values="0 0 0 0 0.933333 0 0 0 0 0.933333 0 0 0 0 0.933333 0 0 0 1 0"/><feBlend in2="shape" result="effect1_innerShadow_11695_104326"/></filter><filter id="g" x="150" y="85.5" width="133.5" height="40" filterUnits="userSpaceOnUse" color-interpolation-filters="sRGB"><feFlood flood-opacity="0" result="BackgroundImageFix"/><feBlend in="SourceGraphic" in2="BackgroundImageFix" result="shape"/><feColorMatrix in="SourceAlpha" values="0 0 0 0 0 0 0 0 0 0 0 0 0 0 0 0 0 0 127 0" result="hardAlpha"/><feOffset dy="-1"/><feComposite in2="hardAlpha" operator="arithmetic" k2="-1" k3="1"/><feColorMatrix values="0 0 0 0 0.933333 0 0 0 0 0.933333 0 0 0 0 0.933333 0 0 0 1 0"/><feBlend in2="shape" result="effect1_innerShadow_11695_104326"/></filter><clipPath id="a"><path fill="#fff" transform="translate(16.5 16.5)" d="M0 0h267v109H0z"/></clipPath></defs></svg>