<svg width="300" height="132" viewBox="0 0 300 132" fill="none" xmlns="http://www.w3.org/2000/svg">
<rect x="0.5" y="0.5" width="299" height="131" rx="8" fill="white"/>
<g clip-path="url(#clip0_11695_104482)">
<mask id="path-2-inside-1_11695_104482" fill="white">
<path d="M8.5 8.5H107.5V43.5H8.5V8.5Z"/>
</mask>
<path d="M8.5 8.5H107.5V43.5H8.5V8.5Z" fill="#F6F6F6"/>
<path d="M27.0376 23.1172C26.9912 22.683 26.7957 22.3449 26.451 22.103C26.1096 21.861 25.6655 21.7401 25.1186 21.7401C24.7341 21.7401 24.4044 21.7981 24.1293 21.9141C23.8542 22.0301 23.6437 22.1875 23.4979 22.3864C23.352 22.5852 23.2775 22.8123 23.2741 23.0675C23.2741 23.2796 23.3222 23.4635 23.4183 23.6193C23.5178 23.7751 23.652 23.9077 23.821 24.017C23.9901 24.1231 24.1773 24.2126 24.3828 24.2855C24.5883 24.3584 24.7955 24.4197 25.0043 24.4695L25.9588 24.7081C26.3433 24.7976 26.7128 24.9186 27.0675 25.071C27.4254 25.2235 27.7453 25.4157 28.027 25.6477C28.312 25.8797 28.5374 26.1598 28.7031 26.4879C28.8688 26.8161 28.9517 27.2005 28.9517 27.6413C28.9517 28.2379 28.7992 28.7633 28.4943 29.2173C28.1894 29.6681 27.7486 30.0211 27.1719 30.2763C26.5985 30.5282 25.9041 30.6541 25.0888 30.6541C24.2966 30.6541 23.6089 30.5315 23.0256 30.2862C22.4455 30.041 21.9915 29.683 21.6634 29.2124C21.3385 28.7417 21.1629 28.1683 21.1364 27.4922H22.951C22.9775 27.8468 23.0869 28.1418 23.2791 28.3771C23.4714 28.6125 23.7216 28.7881 24.0298 28.9041C24.3414 29.0201 24.6894 29.0781 25.0739 29.0781C25.4749 29.0781 25.8262 29.0185 26.1278 28.8991C26.4328 28.7765 26.6714 28.6075 26.8438 28.392C27.0161 28.1733 27.1039 27.9181 27.1072 27.6264C27.1039 27.3613 27.026 27.1425 26.8736 26.9702C26.7211 26.7945 26.5073 26.6487 26.2322 26.5327C25.9605 26.4134 25.6423 26.3073 25.2777 26.2145L24.1193 25.9162C23.2808 25.7008 22.6179 25.3743 22.1307 24.9368C21.6468 24.496 21.4048 23.911 21.4048 23.1818C21.4048 22.5819 21.5672 22.0566 21.892 21.6058C22.2202 21.1551 22.666 20.8054 23.2294 20.5568C23.7929 20.3049 24.4309 20.179 25.1435 20.179C25.866 20.179 26.4991 20.3049 27.0426 20.5568C27.5895 20.8054 28.0187 21.1518 28.3303 21.5959C28.6418 22.0367 28.8026 22.5438 28.8125 23.1172H27.0376ZM35.3837 27.2884V22.8636H37.1834V30.5H35.4384V29.1428H35.3588C35.1865 29.5703 34.9031 29.92 34.5087 30.1918C34.1176 30.4635 33.6354 30.5994 33.062 30.5994C32.5615 30.5994 32.119 30.4884 31.7346 30.2663C31.3534 30.041 31.0551 29.7145 30.8397 29.2869C30.6242 28.8561 30.5165 28.3357 30.5165 27.7259V22.8636H32.3162V27.4474C32.3162 27.9313 32.4488 28.3158 32.714 28.6009C32.9791 28.8859 33.3271 29.0284 33.758 29.0284C34.0231 29.0284 34.28 28.9638 34.5286 28.8345C34.7772 28.7053 34.981 28.513 35.1401 28.2578C35.3025 27.9993 35.3837 27.6761 35.3837 27.2884ZM39.0341 30.5V22.8636H40.7791V24.1364H40.8587C40.9979 23.6955 41.2365 23.3558 41.5746 23.1172C41.916 22.8752 42.3054 22.7543 42.7429 22.7543C42.8423 22.7543 42.9534 22.7592 43.076 22.7692C43.2019 22.7758 43.3063 22.7874 43.3892 22.804V24.4595C43.313 24.433 43.192 24.4098 43.0263 24.3899C42.8639 24.3667 42.7064 24.3551 42.554 24.3551C42.2259 24.3551 41.9309 24.4264 41.669 24.5689C41.4105 24.7081 41.2067 24.902 41.0575 25.1506C40.9084 25.3991 40.8338 25.6858 40.8338 26.0107V30.5H39.0341ZM46.3846 26.0256V30.5H44.5849V22.8636H46.305V24.1612H46.3945C46.5702 23.7337 46.8503 23.3939 47.2347 23.142C47.6225 22.8902 48.1014 22.7642 48.6715 22.7642C49.1985 22.7642 49.6576 22.8769 50.0487 23.1023C50.4431 23.3277 50.748 23.6541 50.9634 24.0817C51.1822 24.5092 51.2899 25.0279 51.2866 25.6378V30.5H49.4869V25.9162C49.4869 25.4058 49.3543 25.0064 49.0891 24.718C48.8273 24.4297 48.4644 24.2855 48.0004 24.2855C47.6855 24.2855 47.4054 24.3551 47.1602 24.4943C46.9182 24.6302 46.7276 24.8274 46.5884 25.0859C46.4525 25.3445 46.3846 25.6577 46.3846 26.0256ZM55.3136 30.6541C54.8297 30.6541 54.3938 30.5679 54.006 30.3956C53.6216 30.2199 53.3166 29.9614 53.0913 29.62C52.8692 29.2786 52.7582 28.8577 52.7582 28.3572C52.7582 27.9264 52.8377 27.5701 52.9968 27.2884C53.1559 27.0066 53.373 26.7812 53.6481 26.6122C53.9232 26.4432 54.2331 26.3156 54.5778 26.2294C54.9258 26.1399 55.2854 26.0753 55.6566 26.0355C56.104 25.9891 56.467 25.9477 56.7454 25.9112C57.0238 25.8714 57.226 25.8118 57.3519 25.7322C57.4812 25.6494 57.5458 25.5218 57.5458 25.3494V25.3196C57.5458 24.9451 57.4348 24.6551 57.2127 24.4496C56.9906 24.2441 56.6708 24.1413 56.2532 24.1413C55.8124 24.1413 55.4627 24.2375 55.2042 24.4297C54.949 24.6219 54.7766 24.849 54.6871 25.1108L53.0067 24.8722C53.1393 24.4081 53.3581 24.0204 53.663 23.7088C53.9679 23.3939 54.3408 23.1586 54.7816 23.0028C55.2224 22.8438 55.7096 22.7642 56.2433 22.7642C56.6112 22.7642 56.9774 22.8073 57.342 22.8935C57.7066 22.9796 58.0397 23.1222 58.3413 23.321C58.6429 23.5166 58.8848 23.7834 59.0671 24.1214C59.2527 24.4595 59.3455 24.8821 59.3455 25.3892V30.5H57.6154V29.451H57.5558C57.4464 29.6631 57.2923 29.862 57.0934 30.0476C56.8978 30.2299 56.6509 30.3774 56.3526 30.4901C56.0576 30.5994 55.7113 30.6541 55.3136 30.6541ZM55.7809 29.3317C56.1422 29.3317 56.4554 29.2604 56.7205 29.1179C56.9857 28.9721 57.1895 28.7798 57.332 28.5412C57.4779 28.3026 57.5508 28.0424 57.5508 27.7607V26.8608C57.4944 26.9072 57.3983 26.9503 57.2624 26.9901C57.1299 27.0298 56.9807 27.0646 56.815 27.0945C56.6493 27.1243 56.4852 27.1508 56.3228 27.174C56.1604 27.1972 56.0195 27.2171 55.9002 27.2337C55.6317 27.2701 55.3915 27.3298 55.1793 27.4126C54.9672 27.4955 54.7998 27.6115 54.6772 27.7607C54.5546 27.9065 54.4933 28.0954 54.4933 28.3274C54.4933 28.6589 54.6142 28.9091 54.8562 29.0781C55.0981 29.2472 55.4064 29.3317 55.7809 29.3317ZM61.1552 30.5V22.8636H62.8754V24.1612H62.9648C63.1239 23.7237 63.3874 23.3823 63.7553 23.1371C64.1232 22.8885 64.5624 22.7642 65.0728 22.7642C65.5898 22.7642 66.0257 22.8902 66.3803 23.142C66.7383 23.3906 66.9902 23.7304 67.136 24.1612H67.2156C67.3846 23.737 67.6696 23.3989 68.0707 23.147C68.475 22.8918 68.954 22.7642 69.5075 22.7642C70.2101 22.7642 70.7835 22.9863 71.2276 23.4304C71.6718 23.8745 71.8938 24.5225 71.8938 25.3743V30.5H70.0891V25.6527C70.0891 25.1787 69.9632 24.8324 69.7113 24.6136C69.4594 24.3916 69.1512 24.2805 68.7866 24.2805C68.3524 24.2805 68.0127 24.4164 67.7674 24.6882C67.5255 24.9567 67.4045 25.3063 67.4045 25.7372V30.5H65.6396V25.5781C65.6396 25.1837 65.5202 24.8688 65.2816 24.6335C65.0463 24.3982 64.738 24.2805 64.3569 24.2805C64.0984 24.2805 63.863 24.3468 63.6509 24.4794C63.4388 24.6087 63.2698 24.7926 63.1438 25.0312C63.0179 25.2666 62.9549 25.5417 62.9549 25.8565V30.5H61.1552ZM77.1003 30.6491C76.3347 30.6491 75.6735 30.4901 75.1167 30.1719C74.5632 29.8504 74.1373 29.3963 73.839 28.8097C73.5407 28.2197 73.3915 27.5253 73.3915 26.7266C73.3915 25.9411 73.5407 25.2517 73.839 24.6584C74.1406 24.0618 74.5615 23.5978 75.1017 23.2663C75.642 22.9316 76.2767 22.7642 77.0059 22.7642C77.4765 22.7642 77.9206 22.8404 78.3382 22.9929C78.7592 23.142 79.1304 23.3741 79.4519 23.6889C79.7767 24.0038 80.0319 24.4048 80.2175 24.892C80.4031 25.3759 80.4959 25.9527 80.4959 26.6222V27.174H74.2367V25.9609H78.7708C78.7675 25.6162 78.6929 25.3097 78.5471 25.0412C78.4012 24.7694 78.1974 24.5556 77.9355 24.3999C77.677 24.2441 77.3754 24.1662 77.0307 24.1662C76.6628 24.1662 76.3397 24.2557 76.0613 24.4347C75.7828 24.6103 75.5658 24.8423 75.41 25.1307C75.2575 25.4157 75.1796 25.7289 75.1763 26.0703V27.1293C75.1763 27.5734 75.2575 27.9545 75.4199 28.2727C75.5823 28.5876 75.8094 28.8295 76.101 28.9986C76.3927 29.1643 76.7341 29.2472 77.1252 29.2472C77.387 29.2472 77.624 29.2107 77.8361 29.1378C78.0482 29.0616 78.2322 28.9505 78.388 28.8047C78.5437 28.6589 78.6614 28.4782 78.7409 28.2628L80.4213 28.4517C80.3153 28.8958 80.1131 29.2836 79.8148 29.6151C79.5198 29.9432 79.142 30.1984 78.6813 30.3807C78.2206 30.5597 77.6936 30.6491 77.1003 30.6491Z" fill="#1F1F1F"/>
<path d="M97.1699 23.79H93.1699C92.8299 23.79 92.5499 23.51 92.5499 23.17C92.5499 22.83 92.8299 22.55 93.1699 22.55H97.1699C97.5099 22.55 97.7899 22.83 97.7899 23.17C97.7899 23.51 97.5099 23.79 97.1699 23.79Z" fill="#545454"/>
<path d="M98.4999 21.12H93.1699C92.8299 21.12 92.5499 20.84 92.5499 20.5C92.5499 20.16 92.8299 19.88 93.1699 19.88H98.4999C98.8399 19.88 99.1199 20.16 99.1199 20.5C99.1199 20.84 98.8399 21.12 98.4999 21.12Z" fill="#545454"/>
<path d="M95.8299 26.46H93.1599C92.8199 26.46 92.5399 26.18 92.5399 25.84C92.5399 25.5 92.8199 25.22 93.1599 25.22H95.8299C96.1699 25.22 96.4499 25.5 96.4499 25.84C96.4499 26.18 96.1699 26.46 95.8299 26.46Z" fill="#545454"/>
<path d="M90.4999 31.12C90.3399 31.12 90.1799 31.06 90.0599 30.94L88.0599 28.94C87.8199 28.7 87.8199 28.3 88.0599 28.06C88.2999 27.82 88.6999 27.82 88.9399 28.06L90.4999 29.62L92.0599 28.06C92.2999 27.82 92.6999 27.82 92.9399 28.06C93.1799 28.3 93.1799 28.7 92.9399 28.94L90.9399 30.94C90.8199 31.06 90.6599 31.12 90.4999 31.12Z" fill="#545454"/>
<path d="M90.4999 30.46C90.1599 30.46 89.8799 30.18 89.8799 29.84V20.5C89.8799 20.16 90.1599 19.88 90.4999 19.88C90.8399 19.88 91.1199 20.16 91.1199 20.5V29.83C91.1199 30.17 90.8399 30.45 90.4999 30.45V30.46Z" fill="#545454"/>
<path d="M107.5 42.5H8.5V44.5H107.5V42.5Z" fill="#F6F6F6" mask="url(#path-2-inside-1_11695_104482)"/>
<mask id="path-6-inside-2_11695_104482" fill="white">
<path d="M107.5 8.5H178.5V43.5H107.5V8.5Z"/>
</mask>
<path d="M107.5 8.5H178.5V43.5H107.5V8.5Z" fill="#F6F6F6"/>
<path d="M126.038 23.1172C125.991 22.683 125.796 22.3449 125.451 22.103C125.11 21.861 124.665 21.7401 124.119 21.7401C123.734 21.7401 123.404 21.7981 123.129 21.9141C122.854 22.0301 122.644 22.1875 122.498 22.3864C122.352 22.5852 122.277 22.8123 122.274 23.0675C122.274 23.2796 122.322 23.4635 122.418 23.6193C122.518 23.7751 122.652 23.9077 122.821 24.017C122.99 24.1231 123.177 24.2126 123.383 24.2855C123.588 24.3584 123.795 24.4197 124.004 24.4695L124.959 24.7081C125.343 24.7976 125.713 24.9186 126.067 25.071C126.425 25.2235 126.745 25.4157 127.027 25.6477C127.312 25.8797 127.537 26.1598 127.703 26.4879C127.869 26.8161 127.952 27.2005 127.952 27.6413C127.952 28.2379 127.799 28.7633 127.494 29.2173C127.189 29.6681 126.749 30.0211 126.172 30.2763C125.598 30.5282 124.904 30.6541 124.089 30.6541C123.297 30.6541 122.609 30.5315 122.026 30.2862C121.446 30.041 120.991 29.683 120.663 29.2124C120.339 28.7417 120.163 28.1683 120.136 27.4922H121.951C121.978 27.8468 122.087 28.1418 122.279 28.3771C122.471 28.6125 122.722 28.7881 123.03 28.9041C123.341 29.0201 123.689 29.0781 124.074 29.0781C124.475 29.0781 124.826 29.0185 125.128 28.8991C125.433 28.7765 125.671 28.6075 125.844 28.392C126.016 28.1733 126.104 27.9181 126.107 27.6264C126.104 27.3613 126.026 27.1425 125.874 26.9702C125.721 26.7945 125.507 26.6487 125.232 26.5327C124.96 26.4134 124.642 26.3073 124.278 26.2145L123.119 25.9162C122.281 25.7008 121.618 25.3743 121.131 24.9368C120.647 24.496 120.405 23.911 120.405 23.1818C120.405 22.5819 120.567 22.0566 120.892 21.6058C121.22 21.1551 121.666 20.8054 122.229 20.5568C122.793 20.3049 123.431 20.179 124.143 20.179C124.866 20.179 125.499 20.3049 126.043 20.5568C126.589 20.8054 127.019 21.1518 127.33 21.5959C127.642 22.0367 127.803 22.5438 127.812 23.1172H126.038ZM132.847 30.6491C132.085 30.6491 131.431 30.4818 130.884 30.147C130.34 29.8123 129.921 29.3499 129.626 28.7599C129.334 28.1667 129.188 27.4839 129.188 26.7116C129.188 25.9361 129.338 25.2517 129.636 24.6584C129.934 24.0618 130.355 23.5978 130.899 23.2663C131.445 22.9316 132.092 22.7642 132.838 22.7642C133.457 22.7642 134.006 22.8786 134.483 23.1072C134.964 23.3326 135.347 23.6525 135.632 24.0668C135.917 24.4777 136.079 24.9583 136.119 25.5085H134.399C134.329 25.1406 134.163 24.834 133.901 24.5888C133.643 24.3402 133.297 24.2159 132.862 24.2159C132.494 24.2159 132.171 24.3153 131.893 24.5142C131.615 24.7098 131.397 24.9915 131.242 25.3594C131.089 25.7273 131.013 26.1681 131.013 26.6818C131.013 27.2022 131.089 27.6496 131.242 28.0241C131.394 28.3954 131.608 28.6821 131.883 28.8842C132.161 29.0831 132.488 29.1825 132.862 29.1825C133.128 29.1825 133.365 29.1328 133.573 29.0334C133.785 28.9306 133.963 28.7831 134.105 28.5909C134.248 28.3987 134.346 28.165 134.399 27.8899H136.119C136.076 28.4302 135.917 28.9091 135.642 29.3267C135.366 29.741 134.992 30.0658 134.518 30.3011C134.044 30.5331 133.487 30.6491 132.847 30.6491ZM140.928 30.6491C140.182 30.6491 139.536 30.4851 138.989 30.157C138.442 29.8288 138.018 29.3698 137.716 28.7798C137.418 28.1899 137.268 27.5005 137.268 26.7116C137.268 25.9228 137.418 25.2318 137.716 24.6385C138.018 24.0452 138.442 23.5845 138.989 23.2564C139.536 22.9283 140.182 22.7642 140.928 22.7642C141.673 22.7642 142.32 22.9283 142.866 23.2564C143.413 23.5845 143.836 24.0452 144.134 24.6385C144.436 25.2318 144.587 25.9228 144.587 26.7116C144.587 27.5005 144.436 28.1899 144.134 28.7798C143.836 29.3698 143.413 29.8288 142.866 30.157C142.32 30.4851 141.673 30.6491 140.928 30.6491ZM140.938 29.2074C141.342 29.2074 141.68 29.0964 141.952 28.8743C142.223 28.6489 142.426 28.3473 142.558 27.9695C142.694 27.5916 142.762 27.1707 142.762 26.7067C142.762 26.2393 142.694 25.8168 142.558 25.4389C142.426 25.0578 142.223 24.7545 141.952 24.5291C141.68 24.3037 141.342 24.1911 140.938 24.1911C140.523 24.1911 140.179 24.3037 139.903 24.5291C139.632 24.7545 139.428 25.0578 139.292 25.4389C139.159 25.8168 139.093 26.2393 139.093 26.7067C139.093 27.1707 139.159 27.5916 139.292 27.9695C139.428 28.3473 139.632 28.6489 139.903 28.8743C140.179 29.0964 140.523 29.2074 140.938 29.2074ZM146.114 30.5V22.8636H147.859V24.1364H147.939C148.078 23.6955 148.317 23.3558 148.655 23.1172C148.996 22.8752 149.385 22.7543 149.823 22.7543C149.922 22.7543 150.033 22.7592 150.156 22.7692C150.282 22.7758 150.386 22.7874 150.469 22.804V24.4595C150.393 24.433 150.272 24.4098 150.106 24.3899C149.944 24.3667 149.787 24.3551 149.634 24.3551C149.306 24.3551 149.011 24.4264 148.749 24.5689C148.491 24.7081 148.287 24.902 148.138 25.1506C147.988 25.3991 147.914 25.6858 147.914 26.0107V30.5H146.114ZM151.665 30.5V22.8636H153.465V30.5H151.665ZM152.57 21.7798C152.285 21.7798 152.039 21.6854 151.834 21.4964C151.628 21.3042 151.526 21.0739 151.526 20.8054C151.526 20.5336 151.628 20.3033 151.834 20.1143C152.039 19.9221 152.285 19.826 152.57 19.826C152.858 19.826 153.103 19.9221 153.306 20.1143C153.511 20.3033 153.614 20.5336 153.614 20.8054C153.614 21.0739 153.511 21.3042 153.306 21.4964C153.103 21.6854 152.858 21.7798 152.57 21.7798ZM157.115 26.0256V30.5H155.315V22.8636H157.036V24.1612H157.125C157.301 23.7337 157.581 23.3939 157.965 23.142C158.353 22.8902 158.832 22.7642 159.402 22.7642C159.929 22.7642 160.388 22.8769 160.779 23.1023C161.174 23.3277 161.478 23.6541 161.694 24.0817C161.913 24.5092 162.02 25.0279 162.017 25.6378V30.5H160.217V25.9162C160.217 25.4058 160.085 25.0064 159.82 24.718C159.558 24.4297 159.195 24.2855 158.731 24.2855C158.416 24.2855 158.136 24.3551 157.891 24.4943C157.649 24.6302 157.458 24.8274 157.319 25.0859C157.183 25.3445 157.115 25.6577 157.115 26.0256ZM167.168 33.5227C166.521 33.5227 165.966 33.4349 165.502 33.2592C165.038 33.0869 164.665 32.8549 164.384 32.5632C164.102 32.2715 163.906 31.9484 163.797 31.5938L165.418 31.201C165.491 31.3501 165.597 31.4976 165.736 31.6435C165.875 31.7926 166.062 31.9152 166.298 32.0114C166.536 32.1108 166.836 32.1605 167.197 32.1605C167.708 32.1605 168.13 32.0362 168.465 31.7876C168.8 31.5424 168.967 31.138 168.967 30.5746V29.1278H168.878C168.785 29.3134 168.649 29.504 168.47 29.6996C168.295 29.8951 168.061 30.0592 167.769 30.1918C167.481 30.3243 167.118 30.3906 166.68 30.3906C166.094 30.3906 165.562 30.2531 165.085 29.978C164.611 29.6996 164.233 29.2853 163.951 28.7351C163.673 28.1816 163.533 27.4889 163.533 26.657C163.533 25.8184 163.673 25.1108 163.951 24.5341C164.233 23.9541 164.612 23.5149 165.089 23.2166C165.567 22.915 166.099 22.7642 166.685 22.7642C167.133 22.7642 167.501 22.8404 167.789 22.9929C168.081 23.142 168.313 23.3227 168.485 23.5348C168.657 23.7436 168.788 23.9408 168.878 24.1264H168.977V22.8636H170.752V30.6243C170.752 31.2772 170.596 31.8175 170.285 32.245C169.973 32.6726 169.547 32.9924 169.007 33.2045C168.467 33.4167 167.854 33.5227 167.168 33.5227ZM167.183 28.9787C167.564 28.9787 167.888 28.8859 168.157 28.7003C168.425 28.5147 168.629 28.2479 168.768 27.8999C168.908 27.5518 168.977 27.1342 168.977 26.647C168.977 26.1664 168.908 25.7455 168.768 25.3842C168.633 25.023 168.43 24.7429 168.162 24.544C167.897 24.3419 167.57 24.2408 167.183 24.2408C166.781 24.2408 166.447 24.3452 166.178 24.554C165.91 24.7628 165.708 25.0495 165.572 25.4141C165.436 25.7753 165.368 26.1863 165.368 26.647C165.368 27.1143 165.436 27.5237 165.572 27.875C165.711 28.223 165.915 28.4948 166.183 28.6903C166.455 28.8826 166.788 28.9787 167.183 28.9787Z" fill="#1F1F1F"/>
<path d="M178.5 42.5H107.5V44.5H178.5V42.5Z" fill="#F6F6F6" mask="url(#path-6-inside-2_11695_104482)"/>
<mask id="path-9-inside-3_11695_104482" fill="white">
<path d="M178.5 8.5H291.5V43.5H178.5V8.5Z"/>
</mask>
<path d="M178.5 8.5H291.5V43.5H178.5V8.5Z" fill="#F6F6F6"/>
<path d="M191.504 30.5V20.3182H198.027V21.8643H193.349V24.6286H197.58V26.1747H193.349V30.5H191.504ZM199.628 30.5V22.8636H201.428V30.5H199.628ZM200.533 21.7798C200.248 21.7798 200.002 21.6854 199.797 21.4964C199.591 21.3042 199.489 21.0739 199.489 20.8054C199.489 20.5336 199.591 20.3033 199.797 20.1143C200.002 19.9221 200.248 19.826 200.533 19.826C200.821 19.826 201.066 19.9221 201.268 20.1143C201.474 20.3033 201.577 20.5336 201.577 20.8054C201.577 21.0739 201.474 21.3042 201.268 21.4964C201.066 21.6854 200.821 21.7798 200.533 21.7798ZM203.278 30.5V22.8636H205.023V24.1364H205.103C205.242 23.6955 205.481 23.3558 205.819 23.1172C206.16 22.8752 206.55 22.7543 206.987 22.7543C207.086 22.7543 207.198 22.7592 207.32 22.7692C207.446 22.7758 207.55 22.7874 207.633 22.804V24.4595C207.557 24.433 207.436 24.4098 207.27 24.3899C207.108 24.3667 206.951 24.3551 206.798 24.3551C206.47 24.3551 206.175 24.4264 205.913 24.5689C205.655 24.7081 205.451 24.902 205.302 25.1506C205.153 25.3991 205.078 25.6858 205.078 26.0107V30.5H203.278ZM214.865 24.8821L213.224 25.0611C213.177 24.8954 213.096 24.7396 212.98 24.5938C212.868 24.4479 212.715 24.3303 212.523 24.2408C212.331 24.1513 212.095 24.1065 211.817 24.1065C211.442 24.1065 211.128 24.1877 210.872 24.3501C210.62 24.5125 210.496 24.723 210.499 24.9815C210.496 25.2036 210.577 25.3842 210.743 25.5234C210.912 25.6626 211.191 25.777 211.578 25.8665L212.881 26.1449C213.603 26.3007 214.14 26.5476 214.492 26.8857C214.846 27.2237 215.025 27.6662 215.029 28.2131C215.025 28.6937 214.884 29.1179 214.606 29.4858C214.331 29.8504 213.948 30.1354 213.458 30.3409C212.967 30.5464 212.404 30.6491 211.767 30.6491C210.833 30.6491 210.08 30.4536 209.51 30.0625C208.94 29.6681 208.6 29.1196 208.491 28.4169L210.246 28.2479C210.325 28.5926 210.494 28.8527 210.753 29.0284C211.012 29.2041 211.348 29.2919 211.762 29.2919C212.19 29.2919 212.533 29.2041 212.791 29.0284C213.053 28.8527 213.184 28.6357 213.184 28.3771C213.184 28.1584 213.1 27.9777 212.931 27.8352C212.765 27.6927 212.506 27.5833 212.155 27.5071L210.852 27.2337C210.12 27.0812 209.578 26.8243 209.227 26.4631C208.875 26.0985 208.701 25.6378 208.705 25.081C208.701 24.6103 208.829 24.2027 209.088 23.858C209.349 23.5099 209.712 23.2415 210.176 23.0526C210.644 22.8603 211.182 22.7642 211.792 22.7642C212.687 22.7642 213.391 22.9548 213.905 23.3359C214.422 23.7171 214.742 24.2325 214.865 24.8821ZM220.326 22.8636V24.2557H215.936V22.8636H220.326ZM217.02 21.0341H218.819V28.2031C218.819 28.4451 218.856 28.6307 218.929 28.7599C219.005 28.8859 219.104 28.9721 219.227 29.0185C219.35 29.0649 219.486 29.0881 219.635 29.0881C219.747 29.0881 219.85 29.0798 219.943 29.0632C220.039 29.0466 220.112 29.0317 220.162 29.0185L220.465 30.4254C220.369 30.4586 220.231 30.495 220.052 30.5348C219.877 30.5746 219.661 30.5978 219.406 30.6044C218.955 30.6177 218.549 30.5497 218.188 30.4006C217.827 30.2481 217.54 30.0128 217.328 29.6946C217.119 29.3764 217.016 28.9787 217.02 28.5014V21.0341ZM227.103 26.0256V30.5H225.304V22.8636H227.024V24.1612H227.113C227.289 23.7337 227.569 23.3939 227.953 23.142C228.341 22.8902 228.82 22.7642 229.39 22.7642C229.917 22.7642 230.376 22.8769 230.767 23.1023C231.162 23.3277 231.467 23.6541 231.682 24.0817C231.901 24.5092 232.009 25.0279 232.005 25.6378V30.5H230.206V25.9162C230.206 25.4058 230.073 25.0064 229.808 24.718C229.546 24.4297 229.183 24.2855 228.719 24.2855C228.404 24.2855 228.124 24.3551 227.879 24.4943C227.637 24.6302 227.446 24.8274 227.307 25.0859C227.171 25.3445 227.103 25.6577 227.103 26.0256ZM236.032 30.6541C235.548 30.6541 235.113 30.5679 234.725 30.3956C234.34 30.2199 234.035 29.9614 233.81 29.62C233.588 29.2786 233.477 28.8577 233.477 28.3572C233.477 27.9264 233.556 27.5701 233.716 27.2884C233.875 27.0066 234.092 26.7812 234.367 26.6122C234.642 26.4432 234.952 26.3156 235.297 26.2294C235.645 26.1399 236.004 26.0753 236.375 26.0355C236.823 25.9891 237.186 25.9477 237.464 25.9112C237.743 25.8714 237.945 25.8118 238.071 25.7322C238.2 25.6494 238.265 25.5218 238.265 25.3494V25.3196C238.265 24.9451 238.154 24.6551 237.931 24.4496C237.709 24.2441 237.39 24.1413 236.972 24.1413C236.531 24.1413 236.181 24.2375 235.923 24.4297C235.668 24.6219 235.495 24.849 235.406 25.1108L233.725 24.8722C233.858 24.4081 234.077 24.0204 234.382 23.7088C234.687 23.3939 235.06 23.1586 235.5 23.0028C235.941 22.8438 236.428 22.7642 236.962 22.7642C237.33 22.7642 237.696 22.8073 238.061 22.8935C238.425 22.9796 238.758 23.1222 239.06 23.321C239.362 23.5166 239.604 23.7834 239.786 24.1214C239.971 24.4595 240.064 24.8821 240.064 25.3892V30.5H238.334V29.451H238.275C238.165 29.6631 238.011 29.862 237.812 30.0476C237.617 30.2299 237.37 30.3774 237.071 30.4901C236.776 30.5994 236.43 30.6541 236.032 30.6541ZM236.5 29.3317C236.861 29.3317 237.174 29.2604 237.439 29.1179C237.704 28.9721 237.908 28.7798 238.051 28.5412C238.197 28.3026 238.27 28.0424 238.27 27.7607V26.8608C238.213 26.9072 238.117 26.9503 237.981 26.9901C237.849 27.0298 237.699 27.0646 237.534 27.0945C237.368 27.1243 237.204 27.1508 237.042 27.174C236.879 27.1972 236.738 27.2171 236.619 27.2337C236.35 27.2701 236.11 27.3298 235.898 27.4126C235.686 27.4955 235.519 27.6115 235.396 27.7607C235.273 27.9065 235.212 28.0954 235.212 28.3274C235.212 28.6589 235.333 28.9091 235.575 29.0781C235.817 29.2472 236.125 29.3317 236.5 29.3317ZM241.874 30.5V22.8636H243.594V24.1612H243.684C243.843 23.7237 244.106 23.3823 244.474 23.1371C244.842 22.8885 245.281 22.7642 245.792 22.7642C246.309 22.7642 246.744 22.8902 247.099 23.142C247.457 23.3906 247.709 23.7304 247.855 24.1612H247.934C248.103 23.737 248.388 23.3989 248.789 23.147C249.194 22.8918 249.673 22.7642 250.226 22.7642C250.929 22.7642 251.502 22.9863 251.946 23.4304C252.391 23.8745 252.613 24.5225 252.613 25.3743V30.5H250.808V25.6527C250.808 25.1787 250.682 24.8324 250.43 24.6136C250.178 24.3916 249.87 24.2805 249.505 24.2805C249.071 24.2805 248.731 24.4164 248.486 24.6882C248.244 24.9567 248.123 25.3063 248.123 25.7372V30.5H246.358V25.5781C246.358 25.1837 246.239 24.8688 246 24.6335C245.765 24.3982 245.457 24.2805 245.076 24.2805C244.817 24.2805 244.582 24.3468 244.37 24.4794C244.158 24.6087 243.989 24.7926 243.863 25.0312C243.737 25.2666 243.674 25.5417 243.674 25.8565V30.5H241.874ZM257.819 30.6491C257.053 30.6491 256.392 30.4901 255.835 30.1719C255.282 29.8504 254.856 29.3963 254.558 28.8097C254.259 28.2197 254.11 27.5253 254.11 26.7266C254.11 25.9411 254.259 25.2517 254.558 24.6584C254.859 24.0618 255.28 23.5978 255.82 23.2663C256.361 22.9316 256.995 22.7642 257.725 22.7642C258.195 22.7642 258.639 22.8404 259.057 22.9929C259.478 23.142 259.849 23.3741 260.171 23.6889C260.495 24.0038 260.751 24.4048 260.936 24.892C261.122 25.3759 261.215 25.9527 261.215 26.6222V27.174H254.955V25.9609H259.49C259.486 25.6162 259.412 25.3097 259.266 25.0412C259.12 24.7694 258.916 24.5556 258.654 24.3999C258.396 24.2441 258.094 24.1662 257.749 24.1662C257.382 24.1662 257.058 24.2557 256.78 24.4347C256.502 24.6103 256.285 24.8423 256.129 25.1307C255.976 25.4157 255.898 25.7289 255.895 26.0703V27.1293C255.895 27.5734 255.976 27.9545 256.139 28.2727C256.301 28.5876 256.528 28.8295 256.82 28.9986C257.111 29.1643 257.453 29.2472 257.844 29.2472C258.106 29.2472 258.343 29.2107 258.555 29.1378C258.767 29.0616 258.951 28.9505 259.107 28.8047C259.262 28.6589 259.38 28.4782 259.46 28.2628L261.14 28.4517C261.034 28.8958 260.832 29.2836 260.534 29.6151C260.239 29.9432 259.861 30.1984 259.4 30.3807C258.939 30.5597 258.412 30.6491 257.819 30.6491Z" fill="#1F1F1F"/>
<path d="M291.5 42.5H178.5V44.5H291.5V42.5Z" fill="#F6F6F6" mask="url(#path-9-inside-3_11695_104482)"/>
<rect width="283" height="40" transform="translate(8.5 43.5)" fill="white"/>
<g filter="url(#filter0_i_11695_104482)">
<rect width="99" height="40" transform="translate(8.5 43.5)" fill="white"/>
<path d="M21.733 68V57.8182H25.2926C26.0019 57.8182 26.5869 57.9408 27.0476 58.1861C27.5083 58.428 27.8513 58.7545 28.0767 59.1655C28.3021 59.5732 28.4148 60.0256 28.4148 60.5227C28.4148 60.9602 28.3369 61.3215 28.1811 61.6065C28.0286 61.8916 27.8265 62.117 27.5746 62.2827C27.326 62.4484 27.0559 62.571 26.7642 62.6506V62.75C27.0758 62.7699 27.389 62.8793 27.7038 63.0781C28.0187 63.277 28.2822 63.562 28.4943 63.9332C28.7064 64.3045 28.8125 64.7585 28.8125 65.2955C28.8125 65.8059 28.6965 66.2649 28.4645 66.6726C28.2325 67.0803 27.8662 67.4034 27.3658 67.642C26.8653 67.8807 26.214 68 25.4119 68H21.733ZM22.9659 66.9062H25.4119C26.2173 66.9062 26.7891 66.7505 27.1271 66.4389C27.4685 66.1241 27.6392 65.7429 27.6392 65.2955C27.6392 64.9508 27.5514 64.6326 27.3757 64.3409C27.2 64.0459 26.9498 63.8106 26.625 63.6349C26.3002 63.456 25.9157 63.3665 25.4716 63.3665H22.9659V66.9062ZM22.9659 62.2926H25.2528C25.6241 62.2926 25.9588 62.2197 26.2571 62.0739C26.5587 61.928 26.7973 61.7225 26.973 61.4574C27.152 61.1922 27.2415 60.8807 27.2415 60.5227C27.2415 60.0753 27.0857 59.6958 26.7741 59.3842C26.4626 59.0694 25.9688 58.9119 25.2926 58.9119H22.9659V62.2926ZM30.6793 68V60.3636H31.8129V61.517H31.8924C32.0316 61.1392 32.2835 60.8326 32.6481 60.5973C33.0127 60.362 33.4237 60.2443 33.881 60.2443C33.9672 60.2443 34.0749 60.246 34.2042 60.2493C34.3335 60.2526 34.4312 60.2576 34.4975 60.2642V61.4574C34.4577 61.4474 34.3666 61.4325 34.2241 61.4126C34.0849 61.3894 33.9374 61.3778 33.7816 61.3778C33.4104 61.3778 33.079 61.4557 32.7873 61.6115C32.4989 61.764 32.2702 61.9761 32.1012 62.2479C31.9355 62.5163 31.8526 62.8229 31.8526 63.1676V68H30.6793ZM38.7582 68.1591C38.0688 68.1591 37.4639 67.995 36.9435 67.6669C36.4265 67.3388 36.0221 66.8797 35.7305 66.2898C35.4421 65.6998 35.2979 65.0104 35.2979 64.2216C35.2979 63.4261 35.4421 62.7318 35.7305 62.1385C36.0221 61.5452 36.4265 61.0845 36.9435 60.7564C37.4639 60.4283 38.0688 60.2642 38.7582 60.2642C39.4476 60.2642 40.0508 60.4283 40.5678 60.7564C41.0882 61.0845 41.4925 61.5452 41.7809 62.1385C42.0726 62.7318 42.2184 63.4261 42.2184 64.2216C42.2184 65.0104 42.0726 65.6998 41.7809 66.2898C41.4925 66.8797 41.0882 67.3388 40.5678 67.6669C40.0508 67.995 39.4476 68.1591 38.7582 68.1591ZM38.7582 67.1051C39.2818 67.1051 39.7127 66.9709 40.0508 66.7024C40.3888 66.4339 40.6391 66.081 40.8015 65.6435C40.9639 65.206 41.0451 64.732 41.0451 64.2216C41.0451 63.7112 40.9639 63.2356 40.8015 62.7947C40.6391 62.3539 40.3888 61.9976 40.0508 61.7259C39.7127 61.4541 39.2818 61.3182 38.7582 61.3182C38.2345 61.3182 37.8036 61.4541 37.4656 61.7259C37.1275 61.9976 36.8772 62.3539 36.7148 62.7947C36.5524 63.2356 36.4712 63.7112 36.4712 64.2216C36.4712 64.732 36.5524 65.206 36.7148 65.6435C36.8772 66.081 37.1275 66.4339 37.4656 66.7024C37.8036 66.9709 38.2345 67.1051 38.7582 67.1051ZM45.4798 68L43.1531 60.3636H44.386L46.0366 66.2102H46.1161L47.7468 60.3636H48.9996L50.6104 66.1903H50.69L52.3406 60.3636H53.5735L51.2468 68H50.0934L48.4229 62.1335H48.3036L46.6332 68H45.4798ZM56.2979 63.4062V68H55.1246V60.3636H56.2582V61.5568H56.3576C56.5366 61.169 56.8084 60.8575 57.1729 60.6222C57.5375 60.3835 58.0082 60.2642 58.5849 60.2642C59.1019 60.2642 59.5543 60.3703 59.9421 60.5824C60.3299 60.7912 60.6315 61.1094 60.8469 61.5369C61.0624 61.9612 61.1701 62.4981 61.1701 63.1477V68H59.9968V63.2273C59.9968 62.6274 59.841 62.16 59.5295 61.8253C59.2179 61.4872 58.7904 61.3182 58.2468 61.3182C57.8723 61.3182 57.5375 61.3994 57.2425 61.5618C56.9509 61.7242 56.7205 61.9612 56.5515 62.2727C56.3825 62.5843 56.2979 62.9621 56.2979 63.4062Z" fill="#333333"/>
</g>
<g filter="url(#filter1_i_11695_104482)">
<rect width="71" height="40" transform="translate(107.5 43.5)" fill="white"/>
<path d="M123.736 68.1392C123.152 68.1392 122.627 68.0232 122.16 67.7912C121.692 67.5592 121.318 67.241 121.036 66.8366C120.754 66.4323 120.6 65.9716 120.574 65.4545H121.767C121.813 65.9152 122.022 66.2964 122.393 66.598C122.768 66.8963 123.215 67.0455 123.736 67.0455C124.153 67.0455 124.525 66.9477 124.849 66.7521C125.178 66.5566 125.434 66.2881 125.62 65.9467C125.809 65.602 125.903 65.2126 125.903 64.7784C125.903 64.3343 125.806 63.9382 125.61 63.5902C125.418 63.2389 125.153 62.9621 124.815 62.7599C124.477 62.5578 124.09 62.455 123.656 62.4517C123.345 62.4484 123.025 62.4964 122.697 62.5959C122.369 62.692 122.098 62.8163 121.886 62.9688L120.733 62.8295L121.349 57.8182H126.639V58.9119H122.384L122.026 61.9148H122.085C122.294 61.7491 122.556 61.6115 122.871 61.5021C123.186 61.3928 123.514 61.3381 123.855 61.3381C124.478 61.3381 125.033 61.4872 125.521 61.7855C126.011 62.0805 126.396 62.4848 126.674 62.9986C126.956 63.5123 127.097 64.099 127.097 64.7585C127.097 65.4081 126.951 65.9882 126.659 66.4986C126.371 67.0057 125.973 67.4067 125.466 67.7017C124.959 67.9934 124.382 68.1392 123.736 68.1392ZM132.512 68.1392C131.856 68.1392 131.271 68.0265 130.757 67.8011C130.247 67.5758 129.84 67.2625 129.539 66.8615C129.241 66.4571 129.078 65.9882 129.052 65.4545H130.305C130.331 65.7827 130.444 66.0661 130.643 66.3047C130.841 66.54 131.102 66.7223 131.423 66.8516C131.745 66.9808 132.101 67.0455 132.492 67.0455C132.93 67.0455 133.317 66.9692 133.655 66.8168C133.993 66.6643 134.259 66.4522 134.451 66.1804C134.643 65.9086 134.739 65.5938 134.739 65.2358C134.739 64.8613 134.646 64.5315 134.461 64.2464C134.275 63.9581 134.003 63.7327 133.645 63.5703C133.287 63.4079 132.85 63.3267 132.333 63.3267H131.518V62.233H132.333C132.737 62.233 133.092 62.16 133.397 62.0142C133.705 61.8684 133.945 61.6629 134.118 61.3977C134.293 61.1326 134.381 60.821 134.381 60.4631C134.381 60.1184 134.305 59.8184 134.153 59.5632C134 59.308 133.785 59.1091 133.506 58.9666C133.231 58.8241 132.906 58.7528 132.532 58.7528C132.18 58.7528 131.849 58.8175 131.537 58.9467C131.229 59.0727 130.977 59.2566 130.782 59.4986C130.586 59.7372 130.48 60.0256 130.464 60.3636H129.27C129.29 59.83 129.451 59.3627 129.753 58.9616C130.054 58.5573 130.449 58.2424 130.936 58.017C131.426 57.7917 131.965 57.679 132.552 57.679C133.181 57.679 133.722 57.8066 134.172 58.0618C134.623 58.3137 134.97 58.6468 135.211 59.0611C135.453 59.4754 135.574 59.9228 135.574 60.4034C135.574 60.9768 135.424 61.4657 135.122 61.87C134.824 62.2744 134.418 62.5545 133.904 62.7102V62.7898C134.547 62.8958 135.049 63.1693 135.41 63.6101C135.772 64.0476 135.952 64.5895 135.952 65.2358C135.952 65.7893 135.801 66.2865 135.5 66.7273C135.202 67.1648 134.794 67.5095 134.277 67.7614C133.76 68.0133 133.171 68.1392 132.512 68.1392ZM138.546 68.0795C138.301 68.0795 138.09 67.9917 137.915 67.8161C137.739 67.6404 137.651 67.4299 137.651 67.1847C137.651 66.9394 137.739 66.7289 137.915 66.5533C138.09 66.3776 138.301 66.2898 138.546 66.2898C138.791 66.2898 139.002 66.3776 139.178 66.5533C139.353 66.7289 139.441 66.9394 139.441 67.1847C139.441 67.3471 139.4 67.4962 139.317 67.6321C139.237 67.768 139.129 67.8774 138.994 67.9602C138.861 68.0398 138.712 68.0795 138.546 68.0795ZM143.889 57.8182V68H142.656V59.1108H142.597L140.111 60.7614V59.5085L142.656 57.8182H143.889ZM146.818 68V67.1051L150.178 63.4261C150.573 62.9953 150.898 62.6207 151.153 62.3026C151.408 61.9811 151.597 61.6795 151.72 61.3977C151.846 61.1127 151.909 60.8144 151.909 60.5028C151.909 60.1449 151.822 59.835 151.65 59.5732C151.481 59.3113 151.249 59.1091 150.954 58.9666C150.659 58.8241 150.328 58.7528 149.96 58.7528C149.569 58.7528 149.227 58.834 148.936 58.9964C148.647 59.1555 148.423 59.3793 148.264 59.6676C148.109 59.956 148.031 60.294 148.031 60.6818H146.857C146.857 60.0852 146.995 59.5616 147.27 59.1108C147.545 58.66 147.92 58.3087 148.394 58.0568C148.871 57.8049 149.406 57.679 149.999 57.679C150.596 57.679 151.125 57.8049 151.585 58.0568C152.046 58.3087 152.407 58.6484 152.669 59.076C152.931 59.5036 153.062 59.9792 153.062 60.5028C153.062 60.8774 152.994 61.2436 152.858 61.6016C152.726 61.9562 152.494 62.3523 152.162 62.7898C151.834 63.224 151.378 63.7543 150.795 64.3807L148.508 66.8267V66.9062H153.241V68H146.818Z" fill="#333333"/>
</g>
<g filter="url(#filter2_i_11695_104482)">
<rect width="113" height="40" transform="translate(178.5 43.5)" fill="white"/>
<path d="M191.733 57.8182H193.205L196.665 66.2699H196.784L200.244 57.8182H201.716V68H200.562V60.2642H200.463L197.281 68H196.168L192.986 60.2642H192.886V68H191.733V57.8182ZM207.131 68.1591C206.442 68.1591 205.837 67.995 205.317 67.6669C204.8 67.3388 204.395 66.8797 204.104 66.2898C203.815 65.6998 203.671 65.0104 203.671 64.2216C203.671 63.4261 203.815 62.7318 204.104 62.1385C204.395 61.5452 204.8 61.0845 205.317 60.7564C205.837 60.4283 206.442 60.2642 207.131 60.2642C207.821 60.2642 208.424 60.4283 208.941 60.7564C209.461 61.0845 209.866 61.5452 210.154 62.1385C210.446 62.7318 210.591 63.4261 210.591 64.2216C210.591 65.0104 210.446 65.6998 210.154 66.2898C209.866 66.8797 209.461 67.3388 208.941 67.6669C208.424 67.995 207.821 68.1591 207.131 68.1591ZM207.131 67.1051C207.655 67.1051 208.086 66.9709 208.424 66.7024C208.762 66.4339 209.012 66.081 209.175 65.6435C209.337 65.206 209.418 64.732 209.418 64.2216C209.418 63.7112 209.337 63.2356 209.175 62.7947C209.012 62.3539 208.762 61.9976 208.424 61.7259C208.086 61.4541 207.655 61.3182 207.131 61.3182C206.608 61.3182 206.177 61.4541 205.839 61.7259C205.501 61.9976 205.25 62.3539 205.088 62.7947C204.925 63.2356 204.844 63.7112 204.844 64.2216C204.844 64.732 204.925 65.206 205.088 65.6435C205.25 66.081 205.501 66.4339 205.839 66.7024C206.177 66.9709 206.608 67.1051 207.131 67.1051ZM213.556 63.4062V68H212.382V60.3636H213.516V61.5568H213.615C213.794 61.169 214.066 60.8575 214.431 60.6222C214.795 60.3835 215.266 60.2642 215.843 60.2642C216.36 60.2642 216.812 60.3703 217.2 60.5824C217.588 60.7912 217.889 61.1094 218.105 61.5369C218.32 61.9612 218.428 62.4981 218.428 63.1477V68H217.255V63.2273C217.255 62.6274 217.099 62.16 216.787 61.8253C216.476 61.4872 216.048 61.3182 215.505 61.3182C215.13 61.3182 214.795 61.3994 214.5 61.5618C214.209 61.7242 213.978 61.9612 213.809 62.2727C213.64 62.5843 213.556 62.9621 213.556 63.4062ZM220.572 68V60.3636H221.745V68H220.572ZM221.169 59.0909C220.94 59.0909 220.743 59.013 220.577 58.8572C220.414 58.7015 220.333 58.5142 220.333 58.2955C220.333 58.0767 220.414 57.8894 220.577 57.7337C220.743 57.5779 220.94 57.5 221.169 57.5C221.397 57.5 221.593 57.5779 221.755 57.7337C221.921 57.8894 222.004 58.0767 222.004 58.2955C222.004 58.5142 221.921 58.7015 221.755 58.8572C221.593 59.013 221.397 59.0909 221.169 59.0909ZM226.996 68.1591C226.281 68.1591 225.664 67.9901 225.147 67.652C224.63 67.3139 224.232 66.8482 223.954 66.255C223.675 65.6617 223.536 64.9839 223.536 64.2216C223.536 63.446 223.679 62.7616 223.964 62.1683C224.252 61.5717 224.653 61.1061 225.167 60.7713C225.684 60.4332 226.287 60.2642 226.977 60.2642C227.513 60.2642 227.997 60.3636 228.428 60.5625C228.859 60.7614 229.212 61.0398 229.487 61.3977C229.762 61.7557 229.933 62.1733 229.999 62.6506H228.826C228.737 62.3026 228.538 61.9943 228.229 61.7259C227.924 61.4541 227.513 61.3182 226.996 61.3182C226.539 61.3182 226.138 61.4375 225.793 61.6761C225.452 61.9115 225.185 62.2446 224.993 62.6754C224.804 63.103 224.71 63.6051 224.71 64.1818C224.71 64.7718 224.802 65.2855 224.988 65.723C225.177 66.1605 225.442 66.5002 225.783 66.7422C226.128 66.9841 226.532 67.1051 226.996 67.1051C227.301 67.1051 227.578 67.0521 227.827 66.946C228.075 66.84 228.286 66.6875 228.458 66.4886C228.63 66.2898 228.753 66.0511 228.826 65.7727H229.999C229.933 66.2235 229.769 66.6295 229.507 66.9908C229.249 67.3487 228.906 67.6338 228.478 67.8459C228.054 68.0547 227.56 68.1591 226.996 68.1591ZM233.962 68.179C233.478 68.179 233.039 68.0878 232.644 67.9055C232.25 67.7199 231.937 67.4531 231.705 67.1051C231.473 66.7538 231.357 66.3295 231.357 65.8324C231.357 65.3949 231.443 65.0402 231.615 64.7685C231.787 64.4934 232.018 64.2779 232.306 64.1222C232.594 63.9664 232.913 63.8504 233.261 63.7741C233.612 63.6946 233.965 63.6316 234.32 63.5852C234.784 63.5256 235.16 63.4808 235.448 63.451C235.74 63.4179 235.952 63.3632 236.085 63.2869C236.22 63.2107 236.288 63.0781 236.288 62.8892V62.8494C236.288 62.3589 236.154 61.9777 235.886 61.706C235.621 61.4342 235.218 61.2983 234.678 61.2983C234.117 61.2983 233.678 61.4209 233.36 61.6662C233.042 61.9115 232.818 62.1733 232.689 62.4517L231.575 62.054C231.774 61.59 232.039 61.2287 232.371 60.9702C232.705 60.7083 233.07 60.526 233.464 60.4233C233.862 60.3172 234.253 60.2642 234.638 60.2642C234.883 60.2642 235.165 60.294 235.483 60.3537C235.804 60.41 236.114 60.5277 236.413 60.7067C236.714 60.8857 236.964 61.1558 237.163 61.517C237.362 61.8783 237.462 62.3622 237.462 62.9688V68H236.288V66.9659H236.229C236.149 67.1316 236.017 67.3089 235.831 67.4979C235.645 67.6868 235.398 67.8475 235.09 67.9801C234.782 68.1127 234.406 68.179 233.962 68.179ZM234.141 67.125C234.605 67.125 234.996 67.0339 235.314 66.8516C235.635 66.6693 235.877 66.4339 236.04 66.1456C236.205 65.8572 236.288 65.554 236.288 65.2358V64.1619C236.239 64.2216 236.129 64.2763 235.96 64.326C235.795 64.3724 235.602 64.4138 235.384 64.4503C235.168 64.4834 234.958 64.5133 234.752 64.5398C234.55 64.563 234.386 64.5829 234.26 64.5994C233.955 64.6392 233.67 64.7038 233.405 64.7933C233.143 64.8795 232.931 65.0104 232.768 65.1861C232.609 65.3584 232.53 65.5937 232.53 65.892C232.53 66.2997 232.681 66.608 232.982 66.8168C233.287 67.0223 233.673 67.125 234.141 67.125Z" fill="#333333"/>
</g>
<rect width="283" height="40" transform="translate(8.5 83.5)" fill="white"/>
<g filter="url(#filter3_i_11695_104482)">
<rect width="99" height="40" transform="translate(8.5 83.5)" fill="white"/>
<path d="M23.5824 108L20.7983 97.8182H22.0511L24.179 106.111H24.2784L26.446 97.8182H27.8381L30.0057 106.111H30.1051L32.233 97.8182H33.4858L30.7017 108H29.429L27.1818 99.8864H27.1023L24.8551 108H23.5824ZM34.8629 108V100.364H36.0362V108H34.8629ZM35.4595 99.0909C35.2308 99.0909 35.0336 99.013 34.8679 98.8572C34.7055 98.7015 34.6243 98.5142 34.6243 98.2955C34.6243 98.0767 34.7055 97.8894 34.8679 97.7337C35.0336 97.5779 35.2308 97.5 35.4595 97.5C35.6882 97.5 35.8838 97.5779 36.0462 97.7337C36.2119 97.8894 36.2947 98.0767 36.2947 98.2955C36.2947 98.5142 36.2119 98.7015 36.0462 98.8572C35.8838 99.013 35.6882 99.0909 35.4595 99.0909ZM39.3585 97.8182V108H38.1852V97.8182H39.3585ZM42.6808 97.8182V108H41.5075V97.8182H42.6808ZM44.8297 108V100.364H46.003V108H44.8297ZM45.4263 99.0909C45.1976 99.0909 45.0004 99.013 44.8347 98.8572C44.6723 98.7015 44.5911 98.5142 44.5911 98.2955C44.5911 98.0767 44.6723 97.8894 44.8347 97.7337C45.0004 97.5779 45.1976 97.5 45.4263 97.5C45.655 97.5 45.8506 97.5779 46.013 97.7337C46.1787 97.8894 46.2615 98.0767 46.2615 98.2955C46.2615 98.5142 46.1787 98.7015 46.013 98.8572C45.8506 99.013 45.655 99.0909 45.4263 99.0909ZM50.3991 108.179C49.9152 108.179 49.4761 108.088 49.0817 107.906C48.6873 107.72 48.3741 107.453 48.142 107.105C47.91 106.754 47.794 106.33 47.794 105.832C47.794 105.395 47.8802 105.04 48.0526 104.768C48.2249 104.493 48.4553 104.278 48.7436 104.122C49.032 103.966 49.3501 103.85 49.6982 103.774C50.0495 103.695 50.4025 103.632 50.7571 103.585C51.2211 103.526 51.5973 103.481 51.8857 103.451C52.1773 103.418 52.3894 103.363 52.522 103.287C52.6579 103.211 52.7259 103.078 52.7259 102.889V102.849C52.7259 102.359 52.5916 101.978 52.3232 101.706C52.058 101.434 51.6553 101.298 51.1151 101.298C50.5549 101.298 50.1158 101.421 49.7976 101.666C49.4794 101.911 49.2557 102.173 49.1264 102.452L48.0128 102.054C48.2116 101.59 48.4768 101.229 48.8082 100.97C49.143 100.708 49.5076 100.526 49.902 100.423C50.2997 100.317 50.6908 100.264 51.0753 100.264C51.3205 100.264 51.6023 100.294 51.9205 100.354C52.242 100.41 52.5518 100.528 52.8501 100.707C53.1518 100.886 53.402 101.156 53.6009 101.517C53.7997 101.878 53.8991 102.362 53.8991 102.969V108H52.7259V106.966H52.6662C52.5866 107.132 52.4541 107.309 52.2685 107.498C52.0829 107.687 51.8359 107.848 51.5277 107.98C51.2195 108.113 50.8433 108.179 50.3991 108.179ZM50.5781 107.125C51.0421 107.125 51.4332 107.034 51.7514 106.852C52.0729 106.669 52.3149 106.434 52.4773 106.146C52.643 105.857 52.7259 105.554 52.7259 105.236V104.162C52.6761 104.222 52.5668 104.276 52.3977 104.326C52.232 104.372 52.0398 104.414 51.821 104.45C51.6056 104.483 51.3951 104.513 51.1896 104.54C50.9875 104.563 50.8234 104.583 50.6974 104.599C50.3925 104.639 50.1075 104.704 49.8423 104.793C49.5805 104.879 49.3684 105.01 49.206 105.186C49.0469 105.358 48.9673 105.594 48.9673 105.892C48.9673 106.3 49.1181 106.608 49.4197 106.817C49.7247 107.022 50.1108 107.125 50.5781 107.125ZM56.0407 108V100.364H57.1742V101.557H57.2736C57.4327 101.149 57.6896 100.833 58.0442 100.607C58.3989 100.379 58.8248 100.264 59.3219 100.264C59.8257 100.264 60.245 100.379 60.5797 100.607C60.9178 100.833 61.1813 101.149 61.3702 101.557H61.4498C61.6453 101.162 61.9386 100.849 62.3297 100.617C62.7208 100.382 63.1898 100.264 63.7367 100.264C64.4194 100.264 64.9779 100.478 65.4121 100.906C65.8463 101.33 66.0634 101.991 66.0634 102.889V108H64.8901V102.889C64.8901 102.326 64.736 101.923 64.4277 101.681C64.1195 101.439 63.7566 101.318 63.339 101.318C62.802 101.318 62.3861 101.481 62.0911 101.805C61.7961 102.127 61.6486 102.535 61.6486 103.028V108H60.4554V102.77C60.4554 102.336 60.3146 101.986 60.0328 101.721C59.7511 101.452 59.3882 101.318 58.9441 101.318C58.6391 101.318 58.3541 101.399 58.089 101.562C57.8271 101.724 57.615 101.95 57.4526 102.238C57.2935 102.523 57.214 102.853 57.214 103.227V108H56.0407ZM73.6177 102.074L72.5637 102.372C72.4975 102.196 72.3997 102.026 72.2704 101.86C72.1445 101.691 71.9721 101.552 71.7534 101.442C71.5346 101.333 71.2546 101.278 70.9132 101.278C70.4458 101.278 70.0564 101.386 69.7449 101.602C69.4366 101.814 69.2825 102.084 69.2825 102.412C69.2825 102.704 69.3886 102.934 69.6007 103.103C69.8128 103.272 70.1442 103.413 70.595 103.526L71.7285 103.804C72.4113 103.97 72.92 104.223 73.2548 104.565C73.5895 104.903 73.7569 105.339 73.7569 105.872C73.7569 106.31 73.631 106.701 73.3791 107.045C73.1305 107.39 72.7825 107.662 72.335 107.861C71.8876 108.06 71.3672 108.159 70.774 108.159C69.9951 108.159 69.3504 107.99 68.84 107.652C68.3296 107.314 68.0065 106.82 67.8706 106.17L68.9842 105.892C69.0903 106.303 69.2908 106.611 69.5858 106.817C69.8841 107.022 70.2735 107.125 70.7541 107.125C71.301 107.125 71.7351 107.009 72.0566 106.777C72.3815 106.542 72.5439 106.26 72.5439 105.932C72.5439 105.667 72.4511 105.445 72.2654 105.266C72.0798 105.083 71.7948 104.947 71.4103 104.858L70.1376 104.56C69.4383 104.394 68.9245 104.137 68.5964 103.789C68.2716 103.438 68.1092 102.999 68.1092 102.472C68.1092 102.041 68.2302 101.66 68.4721 101.328C68.7174 100.997 69.0505 100.737 69.4714 100.548C69.8957 100.359 70.3762 100.264 70.9132 100.264C71.6689 100.264 72.2621 100.43 72.693 100.761C73.1272 101.093 73.4354 101.53 73.6177 102.074Z" fill="#333333"/>
</g>
<g filter="url(#filter4_i_11695_104482)">
<rect width="71" height="40" transform="translate(107.5 83.5)" fill="white"/>
<path d="M120.554 108V107.105L123.915 103.426C124.309 102.995 124.634 102.621 124.889 102.303C125.144 101.981 125.333 101.679 125.456 101.398C125.582 101.113 125.645 100.814 125.645 100.503C125.645 100.145 125.559 99.835 125.386 99.5732C125.217 99.3113 124.985 99.1091 124.69 98.9666C124.395 98.8241 124.064 98.7528 123.696 98.7528C123.305 98.7528 122.964 98.834 122.672 98.9964C122.384 99.1555 122.16 99.3793 122.001 99.6676C121.845 99.956 121.767 100.294 121.767 100.682H120.594C120.594 100.085 120.731 99.5616 121.006 99.1108C121.281 98.66 121.656 98.3087 122.13 98.0568C122.607 97.8049 123.143 97.679 123.736 97.679C124.332 97.679 124.861 97.8049 125.322 98.0568C125.782 98.3087 126.144 98.6484 126.406 99.076C126.667 99.5036 126.798 99.9792 126.798 100.503C126.798 100.877 126.73 101.244 126.594 101.602C126.462 101.956 126.23 102.352 125.898 102.79C125.57 103.224 125.115 103.754 124.531 104.381L122.244 106.827V106.906H126.977V108H120.554ZM132.471 108.139C131.815 108.139 131.23 108.027 130.716 107.801C130.205 107.576 129.799 107.263 129.498 106.862C129.2 106.457 129.037 105.988 129.011 105.455H130.263C130.29 105.783 130.403 106.066 130.602 106.305C130.8 106.54 131.061 106.722 131.382 106.852C131.704 106.981 132.06 107.045 132.451 107.045C132.888 107.045 133.276 106.969 133.614 106.817C133.952 106.664 134.218 106.452 134.41 106.18C134.602 105.909 134.698 105.594 134.698 105.236C134.698 104.861 134.605 104.531 134.42 104.246C134.234 103.958 133.962 103.733 133.604 103.57C133.246 103.408 132.809 103.327 132.292 103.327H131.477V102.233H132.292C132.696 102.233 133.051 102.16 133.356 102.014C133.664 101.868 133.904 101.663 134.077 101.398C134.252 101.133 134.34 100.821 134.34 100.463C134.34 100.118 134.264 99.8184 134.112 99.5632C133.959 99.308 133.744 99.1091 133.465 98.9666C133.19 98.8241 132.865 98.7528 132.491 98.7528C132.139 98.7528 131.808 98.8175 131.496 98.9467C131.188 99.0727 130.936 99.2566 130.741 99.4986C130.545 99.7372 130.439 100.026 130.423 100.364H129.229C129.249 99.83 129.41 99.3627 129.712 98.9616C130.013 98.5573 130.408 98.2424 130.895 98.017C131.385 97.7917 131.924 97.679 132.511 97.679C133.14 97.679 133.681 97.8066 134.131 98.0618C134.582 98.3137 134.929 98.6468 135.17 99.0611C135.412 99.4754 135.533 99.9228 135.533 100.403C135.533 100.977 135.383 101.466 135.081 101.87C134.783 102.274 134.377 102.554 133.863 102.71V102.79C134.506 102.896 135.008 103.169 135.369 103.61C135.731 104.048 135.911 104.589 135.911 105.236C135.911 105.789 135.76 106.286 135.459 106.727C135.161 107.165 134.753 107.509 134.236 107.761C133.719 108.013 133.13 108.139 132.471 108.139ZM138.505 108.08C138.26 108.08 138.049 107.992 137.874 107.816C137.698 107.64 137.61 107.43 137.61 107.185C137.61 106.939 137.698 106.729 137.874 106.553C138.049 106.378 138.26 106.29 138.505 106.29C138.75 106.29 138.961 106.378 139.137 106.553C139.312 106.729 139.4 106.939 139.4 107.185C139.4 107.347 139.359 107.496 139.276 107.632C139.196 107.768 139.088 107.877 138.953 107.96C138.82 108.04 138.671 108.08 138.505 108.08ZM141.247 105.912V104.898L145.721 97.8182H146.457V99.3892H145.96L142.579 104.739V104.818H148.605V105.912H141.247ZM146.04 108V105.604V105.131V97.8182H147.213V108H146.04ZM150.468 108V107.105L153.829 103.426C154.223 102.995 154.548 102.621 154.803 102.303C155.058 101.981 155.247 101.679 155.37 101.398C155.496 101.113 155.559 100.814 155.559 100.503C155.559 100.145 155.473 99.835 155.3 99.5732C155.131 99.3113 154.899 99.1091 154.604 98.9666C154.309 98.8241 153.978 98.7528 153.61 98.7528C153.219 98.7528 152.878 98.834 152.586 98.9964C152.298 99.1555 152.074 99.3793 151.915 99.6676C151.759 99.956 151.681 100.294 151.681 100.682H150.508C150.508 100.085 150.645 99.5616 150.92 99.1108C151.196 98.66 151.57 98.3087 152.044 98.0568C152.521 97.8049 153.057 97.679 153.65 97.679C154.246 97.679 154.775 97.8049 155.236 98.0568C155.696 98.3087 156.058 98.6484 156.32 99.076C156.581 99.5036 156.712 99.9792 156.712 100.503C156.712 100.877 156.644 101.244 156.509 101.602C156.376 101.956 156.144 102.352 155.812 102.79C155.484 103.224 155.029 103.754 154.445 104.381L152.158 106.827V106.906H156.891V108H150.468Z" fill="#333333"/>
</g>
<g filter="url(#filter5_i_11695_104482)">
<rect width="113" height="40" transform="translate(178.5 83.5)" fill="white"/>
<path d="M192.151 108H190.858L194.597 97.8182H195.869L199.608 108H198.315L195.273 99.429H195.193L192.151 108ZM192.628 104.023H197.838V105.116H192.628V104.023ZM202.208 97.8182V108H201.035V97.8182H202.208ZM207.559 108.159C206.823 108.159 206.188 107.997 205.655 107.672C205.124 107.344 204.715 106.886 204.427 106.3C204.142 105.71 203.999 105.024 203.999 104.241C203.999 103.459 204.142 102.77 204.427 102.173C204.715 101.573 205.116 101.106 205.63 100.771C206.147 100.433 206.75 100.264 207.439 100.264C207.837 100.264 208.23 100.33 208.618 100.463C209.006 100.596 209.358 100.811 209.677 101.109C209.995 101.404 210.248 101.795 210.437 102.283C210.626 102.77 210.721 103.37 210.721 104.082V104.58H204.834V103.565H209.528C209.528 103.134 209.441 102.75 209.269 102.412C209.1 102.074 208.858 101.807 208.543 101.612C208.232 101.416 207.864 101.318 207.439 101.318C206.972 101.318 206.568 101.434 206.226 101.666C205.888 101.895 205.628 102.193 205.446 102.561C205.264 102.929 205.172 103.323 205.172 103.744V104.42C205.172 104.997 205.272 105.486 205.471 105.887C205.673 106.285 205.953 106.588 206.311 106.797C206.669 107.002 207.085 107.105 207.559 107.105C207.867 107.105 208.145 107.062 208.394 106.976C208.646 106.886 208.863 106.754 209.045 106.578C209.228 106.399 209.368 106.177 209.468 105.912L210.601 106.23C210.482 106.615 210.282 106.953 210 107.244C209.718 107.533 209.37 107.758 208.956 107.92C208.541 108.08 208.076 108.159 207.559 108.159ZM213.175 100.364L215.005 103.486L216.835 100.364H218.187L215.721 104.182L218.187 108H216.835L215.005 105.037L213.175 108H211.823L214.249 104.182L211.823 100.364H213.175Z" fill="#333333"/>
</g>
</g>
<defs>
<filter id="filter0_i_11695_104482" x="8.5" y="43.5" width="99" height="40" filterUnits="userSpaceOnUse" color-interpolation-filters="sRGB">
<feFlood flood-opacity="0" result="BackgroundImageFix"/>
<feBlend mode="normal" in="SourceGraphic" in2="BackgroundImageFix" result="shape"/>
<feColorMatrix in="SourceAlpha" type="matrix" values="0 0 0 0 0 0 0 0 0 0 0 0 0 0 0 0 0 0 127 0" result="hardAlpha"/>
<feOffset dy="-1"/>
<feComposite in2="hardAlpha" operator="arithmetic" k2="-1" k3="1"/>
<feColorMatrix type="matrix" values="0 0 0 0 0.933333 0 0 0 0 0.933333 0 0 0 0 0.933333 0 0 0 1 0"/>
<feBlend mode="normal" in2="shape" result="effect1_innerShadow_11695_104482"/>
</filter>
<filter id="filter1_i_11695_104482" x="107.5" y="43.5" width="71" height="40" filterUnits="userSpaceOnUse" color-interpolation-filters="sRGB">
<feFlood flood-opacity="0" result="BackgroundImageFix"/>
<feBlend mode="normal" in="SourceGraphic" in2="BackgroundImageFix" result="shape"/>
<feColorMatrix in="SourceAlpha" type="matrix" values="0 0 0 0 0 0 0 0 0 0 0 0 0 0 0 0 0 0 127 0" result="hardAlpha"/>
<feOffset dy="-1"/>
<feComposite in2="hardAlpha" operator="arithmetic" k2="-1" k3="1"/>
<feColorMatrix type="matrix" values="0 0 0 0 0.933333 0 0 0 0 0.933333 0 0 0 0 0.933333 0 0 0 1 0"/>
<feBlend mode="normal" in2="shape" result="effect1_innerShadow_11695_104482"/>
</filter>
<filter id="filter2_i_11695_104482" x="178.5" y="43.5" width="113" height="40" filterUnits="userSpaceOnUse" color-interpolation-filters="sRGB">
<feFlood flood-opacity="0" result="BackgroundImageFix"/>
<feBlend mode="normal" in="SourceGraphic" in2="BackgroundImageFix" result="shape"/>
<feColorMatrix in="SourceAlpha" type="matrix" values="0 0 0 0 0 0 0 0 0 0 0 0 0 0 0 0 0 0 127 0" result="hardAlpha"/>
<feOffset dy="-1"/>
<feComposite in2="hardAlpha" operator="arithmetic" k2="-1" k3="1"/>
<feColorMatrix type="matrix" values="0 0 0 0 0.933333 0 0 0 0 0.933333 0 0 0 0 0.933333 0 0 0 1 0"/>
<feBlend mode="normal" in2="shape" result="effect1_innerShadow_11695_104482"/>
</filter>
<filter id="filter3_i_11695_104482" x="8.5" y="83.5" width="99" height="40" filterUnits="userSpaceOnUse" color-interpolation-filters="sRGB">
<feFlood flood-opacity="0" result="BackgroundImageFix"/>
<feBlend mode="normal" in="SourceGraphic" in2="BackgroundImageFix" result="shape"/>
<feColorMatrix in="SourceAlpha" type="matrix" values="0 0 0 0 0 0 0 0 0 0 0 0 0 0 0 0 0 0 127 0" result="hardAlpha"/>
<feOffset dy="-1"/>
<feComposite in2="hardAlpha" operator="arithmetic" k2="-1" k3="1"/>
<feColorMatrix type="matrix" values="0 0 0 0 0.933333 0 0 0 0 0.933333 0 0 0 0 0.933333 0 0 0 1 0"/>
<feBlend mode="normal" in2="shape" result="effect1_innerShadow_11695_104482"/>
</filter>
<filter id="filter4_i_11695_104482" x="107.5" y="83.5" width="71" height="40" filterUnits="userSpaceOnUse" color-interpolation-filters="sRGB">
<feFlood flood-opacity="0" result="BackgroundImageFix"/>
<feBlend mode="normal" in="SourceGraphic" in2="BackgroundImageFix" result="shape"/>
<feColorMatrix in="SourceAlpha" type="matrix" values="0 0 0 0 0 0 0 0 0 0 0 0 0 0 0 0 0 0 127 0" result="hardAlpha"/>
<feOffset dy="-1"/>
<feComposite in2="hardAlpha" operator="arithmetic" k2="-1" k3="1"/>
<feColorMatrix type="matrix" values="0 0 0 0 0.933333 0 0 0 0 0.933333 0 0 0 0 0.933333 0 0 0 1 0"/>
<feBlend mode="normal" in2="shape" result="effect1_innerShadow_11695_104482"/>
</filter>
<filter id="filter5_i_11695_104482" x="178.5" y="83.5" width="113" height="40" filterUnits="userSpaceOnUse" color-interpolation-filters="sRGB">
<feFlood flood-opacity="0" result="BackgroundImageFix"/>
<feBlend mode="normal" in="SourceGraphic" in2="BackgroundImageFix" result="shape"/>
<feColorMatrix in="SourceAlpha" type="matrix" values="0 0 0 0 0 0 0 0 0 0 0 0 0 0 0 0 0 0 127 0" result="hardAlpha"/>
<feOffset dy="-1"/>
<feComposite in2="hardAlpha" operator="arithmetic" k2="-1" k3="1"/>
<feColorMatrix type="matrix" values="0 0 0 0 0.933333 0 0 0 0 0.933333 0 0 0 0 0.933333 0 0 0 1 0"/>
<feBlend mode="normal" in2="shape" result="effect1_innerShadow_11695_104482"/>
</filter>
<clipPath id="clip0_11695_104482">
<rect width="283" height="115" fill="white" transform="translate(8.5 8.5)"/>
</clipPath>
</defs>
</svg>
