<svg width="672" height="247" fill="none" xmlns="http://www.w3.org/2000/svg"><path fill="#F6F6F6" d="M0 0h672v247H0z"/><rect x="135" y="32" width="402" height="107" rx="8" fill="#fff"/><g clip-path="url(#a)"><mask id="b" fill="#fff"><path d="M151 48h111v35H151V48Z"/></mask><path d="M151 48h111v35H151V48Z" fill="#F6F6F6"/><path d="M169.54 62.62a1.36 1.36 0 0 0-.59-1.02 2.25 2.25 0 0 0-1.33-.36c-.39 0-.72.06-1 .17-.27.12-.48.28-.62.48a1.15 1.15 0 0 0-.08 1.23c.1.16.23.29.4.4.17.1.36.2.56.27.2.07.41.13.62.18l.96.24c.38.09.75.2 1.1.36.37.15.69.35.97.58a2.52 2.52 0 0 1 .93 2 2.76 2.76 0 0 1-1.79 2.63 5.2 5.2 0 0 1-2.08.37 5.3 5.3 0 0 1-2.06-.36 3.07 3.07 0 0 1-1.37-1.08 3.2 3.2 0 0 1-.52-1.72h1.81a1.55 1.55 0 0 0 1.08 1.41c.31.12.66.18 1.04.18.4 0 .76-.06 1.06-.18.3-.12.54-.3.71-.5.18-.23.26-.48.27-.77a.97.97 0 0 0-.24-.66 1.72 1.72 0 0 0-.64-.44 6.2 6.2 0 0 0-.95-.32l-1.16-.3a4.66 4.66 0 0 1-1.99-.97 2.26 2.26 0 0 1-.72-1.76c0-.6.16-1.12.48-1.57.33-.45.78-.8 1.34-1.05a4.5 4.5 0 0 1 1.91-.38c.73 0 1.36.12 1.9.38.55.25.98.6 1.29 1.04.31.44.47.94.48 1.52h-1.77Zm7.29-.26v1.4h-4.39v-1.4h4.39Zm-3.3-1.83h1.8v7.17c0 .25.03.43.1.56.08.13.18.21.3.26.12.04.26.07.4.07a1.76 1.76 0 0 0 .54-.07l.3 1.4a4 4 0 0 1-1.06.18c-.45.02-.86-.05-1.22-.2a1.9 1.9 0 0 1-.86-.7 2.1 2.1 0 0 1-.3-1.2v-7.47Zm7 9.62c-.48 0-.92-.08-1.3-.25a2.13 2.13 0 0 1-.92-.78 2.27 2.27 0 0 1-.33-1.26c0-.43.08-.79.24-1.07.16-.28.37-.5.65-.68.27-.17.58-.3.93-.38.34-.09.7-.15 1.07-.2l1.1-.12c.27-.04.47-.1.6-.18.13-.08.2-.2.2-.38v-.03c0-.37-.12-.66-.34-.87-.22-.2-.54-.3-.96-.3-.44 0-.79.09-1.05.28-.25.2-.42.42-.51.68l-1.69-.24A2.69 2.69 0 0 1 180 62.5a4.76 4.76 0 0 1 2.56-.1c.37.08.7.22 1 .42.3.2.54.46.73.8.18.34.27.76.27 1.27V70h-1.73v-1.05h-.06a2.21 2.21 0 0 1-1.2 1.04c-.3.1-.64.16-1.04.16Zm.47-1.32a2 2 0 0 0 .94-.21c.26-.15.47-.34.61-.58.15-.24.22-.5.22-.78v-.9a.86.86 0 0 1-.29.13 14.09 14.09 0 0 1-1.36.24c-.27.04-.51.1-.72.18-.21.09-.38.2-.5.35a.85.85 0 0 0-.19.57c0 .33.12.58.36.75.25.17.56.25.93.25Zm5.37 1.17v-7.64h1.75v1.28h.08a1.9 1.9 0 0 1 1.88-1.39 4.14 4.14 0 0 1 .65.05v1.66a3.34 3.34 0 0 0-.84-.1c-.32 0-.62.07-.88.2a1.57 1.57 0 0 0-.84 1.45V70h-1.8Zm9.78-7.64v1.4h-4.4v-1.4h4.4Zm-3.3-1.83h1.8v7.17c0 .25.03.43.1.56a.6.6 0 0 0 .3.26c.12.04.26.07.4.07a1.75 1.75 0 0 0 .53-.07l.3 1.4a3.98 3.98 0 0 1-1.05.18c-.45.02-.86-.05-1.22-.2a1.9 1.9 0 0 1-.86-.7 2.1 2.1 0 0 1-.3-1.2v-7.47Zm11.11 9.6a2.89 2.89 0 0 1-2.74-1.8 5.01 5.01 0 0 1-.4-2.14c0-.85.13-1.56.41-2.15a2.92 2.92 0 0 1 3.84-1.55c.29.15.52.33.68.54.17.21.3.41.4.6h.07v-3.81h1.8V70h-1.76v-1.2h-.11c-.1.18-.23.38-.4.59a2.2 2.2 0 0 1-1.79.74Zm.5-1.47c.38 0 .7-.1.98-.31.27-.2.47-.5.6-.87.15-.37.22-.8.22-1.3s-.07-.92-.21-1.29a1.83 1.83 0 0 0-.6-.85c-.27-.2-.6-.3-.99-.3-.4 0-.73.1-1 .31s-.47.5-.6.87c-.15.37-.21.79-.21 1.26 0 .48.06.9.2 1.28a2 2 0 0 0 .61.88c.27.21.6.32 1 .32Zm7.68 1.5c-.48 0-.92-.1-1.3-.26a2.14 2.14 0 0 1-.92-.78 2.27 2.27 0 0 1-.33-1.26c0-.43.08-.79.23-1.07.16-.28.38-.5.66-.68.27-.17.58-.3.93-.38.34-.09.7-.15 1.08-.2l1.08-.12c.28-.04.48-.1.61-.18.13-.08.2-.2.2-.38v-.03c0-.37-.12-.66-.34-.87-.22-.2-.54-.3-.96-.3-.44 0-.79.09-1.05.28-.25.2-.43.42-.52.68l-1.67-.24a2.68 2.68 0 0 1 1.77-1.87 4.76 4.76 0 0 1 2.56-.1c.37.08.7.22 1 .42.3.2.54.46.73.8.18.34.27.76.27 1.27V70h-1.73v-1.05h-.06a2.2 2.2 0 0 1-1.2 1.04c-.3.1-.64.16-1.04.16Zm.47-1.33a2 2 0 0 0 .94-.21c.26-.15.47-.34.61-.58.15-.24.22-.5.22-.78v-.9a.85.85 0 0 1-.29.13 14.09 14.09 0 0 1-1.36.24c-.27.04-.51.1-.72.18-.22.09-.38.2-.5.35a.85.85 0 0 0-.19.57c0 .33.12.58.36.75.25.17.55.25.93.25Zm9.19-6.47v1.4h-4.4v-1.4h4.4Zm-3.31-1.83h1.8v7.17c0 .25.04.43.11.56.08.13.17.21.3.26.12.04.26.07.4.07a1.76 1.76 0 0 0 .53-.07l.3 1.4a4 4 0 0 1-1.05.18c-.45.02-.86-.05-1.22-.2a1.89 1.89 0 0 1-.86-.7 2.1 2.1 0 0 1-.31-1.2v-7.47Zm8.11 9.62a3.9 3.9 0 0 1-1.98-.48 3.23 3.23 0 0 1-1.28-1.36 4.57 4.57 0 0 1-.45-2.08c0-.79.15-1.48.45-2.07a3.38 3.38 0 0 1 3.17-1.9c.47 0 .91.08 1.33.23a3.19 3.19 0 0 1 1.88 1.9c.18.49.28 1.06.28 1.73v.55h-6.26v-1.2h4.53a2 2 0 0 0-.22-.93 1.63 1.63 0 0 0-1.52-.87c-.37 0-.69.09-.97.26-.28.18-.5.41-.65.7-.15.29-.23.6-.23.94v1.06c0 .44.08.82.24 1.14.16.32.39.56.68.73.3.16.63.25 1.03.25.26 0 .5-.04.7-.11.22-.08.4-.19.56-.34.15-.14.27-.32.35-.54l1.68.2c-.1.44-.3.82-.6 1.16-.3.32-.68.58-1.14.76-.46.18-.99.27-1.58.27Z" fill="#1F1F1F"/><path d="M246.67 63.29h-4a.62.62 0 0 1-.62-.62c0-.34.28-.62.62-.62h4c.34 0 .62.28.62.62 0 .34-.28.62-.62.62Zm1.33-2.67h-5.33a.62.62 0 0 1-.62-.62c0-.34.28-.62.62-.62H248c.34 0 .62.28.62.62 0 .34-.28.62-.62.62Zm-2.67 5.34h-2.67a.62.62 0 0 1-.62-.62c0-.34.28-.62.62-.62h2.67c.34 0 .62.28.62.62 0 .34-.28.62-.62.62ZM240 70.62a.62.62 0 0 1-.44-.18l-2-2a.63.63 0 0 1 0-.88.63.63 0 0 1 .88 0l1.56 1.56 1.56-1.56a.63.63 0 0 1 .88 0c.24.24.24.64 0 .88l-2 2a.62.62 0 0 1-.44.18Z" fill="#545454"/><path d="M240 69.96a.62.62 0 0 1-.62-.62V60c0-.34.28-.62.62-.62.34 0 .62.28.62.62v9.33c0 .34-.28.62-.62.62v.01Z" fill="#545454"/><path d="M262 82H151v2h111v-2Z" fill="#F6F6F6" mask="url(#b)"/><mask id="c" fill="#fff"><path d="M262 48h164v35H262V48Z"/></mask><path d="M262 48h164v35H262V48Z" fill="#F6F6F6"/><path d="M275 59.82h2.26l3.02 7.38h.12l3.03-7.38h2.25V70h-1.77v-7h-.1l-2.8 6.97h-1.33l-2.81-6.98h-.1V70H275V59.82Zm15.94 10.33a3.7 3.7 0 0 1-1.94-.5 3.34 3.34 0 0 1-1.27-1.37 4.52 4.52 0 0 1-.45-2.07c0-.79.15-1.48.45-2.07.3-.6.73-1.06 1.27-1.38a3.7 3.7 0 0 1 1.94-.5c.75 0 1.4.17 1.94.5.55.32.97.79 1.27 1.38.3.6.45 1.28.45 2.07a4.5 4.5 0 0 1-.45 2.07 3.3 3.3 0 0 1-1.27 1.38 3.7 3.7 0 0 1-1.94.49Zm.01-1.44c.4 0 .75-.11 1.02-.34.27-.22.47-.52.6-.9.14-.38.2-.8.2-1.26 0-.47-.06-.9-.2-1.27a2 2 0 0 0-.6-.91 1.53 1.53 0 0 0-1.02-.34c-.41 0-.76.11-1.03.34a2 2 0 0 0-.61.9 3.95 3.95 0 0 0 0 2.54c.13.38.34.68.6.9.28.23.63.34 1.04.34Zm8.51 1.44a3.35 3.35 0 0 1-3.22-1.89 4.6 4.6 0 0 1-.44-2.05c0-.77.15-1.46.45-2.05.3-.6.72-1.06 1.26-1.4a3.7 3.7 0 0 1 1.94-.5c.62 0 1.17.12 1.65.35a2.81 2.81 0 0 1 1.63 2.4h-1.72a1.65 1.65 0 0 0-.5-.92 1.4 1.4 0 0 0-1.03-.37c-.37 0-.7.1-.97.3-.28.19-.5.47-.65.84-.16.37-.23.8-.23 1.32s.07.97.23 1.34c.15.38.36.66.64.86.27.2.6.3.98.3.26 0 .5-.05.7-.15.22-.1.4-.25.54-.44.14-.2.24-.42.3-.7h1.71a2.83 2.83 0 0 1-1.6 2.41c-.47.23-1.03.35-1.67.35Zm6.39-2.55v-2.17h.28l2.75-3.07h2.1l-3.38 3.76h-.37l-1.38 1.48Zm-1.64 2.4V59.82h1.8V70h-1.8Zm4.8 0-2.5-3.48 1.22-1.26 3.42 4.74H309Zm12.68-5.62-1.64.18a1.31 1.31 0 0 0-.7-.82c-.2-.09-.43-.13-.7-.13-.38 0-.7.08-.95.24-.25.16-.38.37-.38.63 0 .22.08.4.25.54.17.14.44.26.83.35l1.3.27c.73.16 1.26.4 1.62.75.35.33.53.78.53 1.32 0 .48-.14.9-.42 1.28-.28.36-.66.65-1.15.85-.49.2-1.05.3-1.69.3-.93 0-1.69-.19-2.26-.58-.57-.4-.9-.94-1.01-1.64l1.75-.17c.08.34.25.6.5.78.27.17.6.26 1.02.26.42 0 .77-.09 1.03-.26.26-.18.39-.4.39-.65a.7.7 0 0 0-.25-.54 1.77 1.77 0 0 0-.78-.33l-1.3-.28a3.1 3.1 0 0 1-1.63-.77 1.9 1.9 0 0 1-.52-1.38c0-.47.12-.88.38-1.22a2.5 2.5 0 0 1 1.1-.8 4 4 0 0 1 1.6-.3c.9 0 1.6.2 2.12.58.52.38.84.9.96 1.54Zm5.03 5.77c-.77 0-1.43-.16-1.99-.48a3.23 3.23 0 0 1-1.27-1.36 4.57 4.57 0 0 1-.45-2.08c0-.79.15-1.48.45-2.07a3.39 3.39 0 0 1 3.16-1.9c.47 0 .92.08 1.33.23a3 3 0 0 1 1.12.7c.32.31.58.71.76 1.2.19.49.28 1.06.28 1.73v.55h-6.26v-1.2h4.54c0-.35-.08-.66-.23-.93a1.62 1.62 0 0 0-.6-.64 1.72 1.72 0 0 0-.91-.23 1.8 1.8 0 0 0-1.62.96 2 2 0 0 0-.24.94v1.06c0 .44.08.82.25 1.14.16.32.39.56.68.73a2.25 2.25 0 0 0 1.73.14c.22-.08.4-.19.56-.34.15-.14.27-.32.35-.54l1.68.2a2.69 2.69 0 0 1-1.74 1.92c-.46.18-.99.27-1.58.27Zm10.95-5.77-1.64.18a1.33 1.33 0 0 0-.24-.47 1.21 1.21 0 0 0-.46-.35c-.2-.09-.43-.13-.7-.13-.38 0-.7.08-.95.24-.25.16-.38.37-.37.63 0 .22.07.4.24.54.17.14.45.26.83.35l1.3.27c.73.16 1.27.4 1.62.75.35.33.53.78.53 1.32 0 .48-.14.9-.42 1.28a2.7 2.7 0 0 1-1.15.85c-.49.2-1.05.3-1.69.3-.93 0-1.68-.19-2.25-.58-.57-.4-.91-.94-1.02-1.64l1.75-.17c.08.34.25.6.51.78.26.17.6.26 1 .26.44 0 .78-.09 1.04-.26.26-.18.4-.4.4-.65a.7.7 0 0 0-.26-.54 1.77 1.77 0 0 0-.78-.33l-1.3-.28a3.1 3.1 0 0 1-1.63-.77 1.9 1.9 0 0 1-.52-1.38c0-.47.13-.88.38-1.22a2.5 2.5 0 0 1 1.1-.8 4 4 0 0 1 1.6-.3c.9 0 1.6.2 2.12.58.52.38.84.9.96 1.54Zm7.69 0-1.65.18a1.31 1.31 0 0 0-.7-.82 1.62 1.62 0 0 0-.7-.13c-.38 0-.7.08-.95.24-.25.16-.37.37-.37.63 0 .22.08.4.24.54.17.14.45.26.84.35l1.3.27c.72.16 1.26.4 1.61.75.36.33.54.78.54 1.32 0 .48-.14.9-.42 1.28-.28.36-.66.65-1.15.85-.5.2-1.06.3-1.7.3-.93 0-1.68-.19-2.25-.58a2.4 2.4 0 0 1-1.02-1.64l1.76-.17c.08.34.25.6.5.78.26.17.6.26 1.01.26.43 0 .77-.09 1.03-.26.26-.18.4-.4.4-.65 0-.22-.09-.4-.26-.54a1.77 1.77 0 0 0-.78-.33l-1.3-.28a3.1 3.1 0 0 1-1.62-.77 1.9 1.9 0 0 1-.53-1.38c0-.47.13-.88.39-1.22a2.5 2.5 0 0 1 1.09-.8c.46-.2 1-.3 1.61-.3.9 0 1.6.2 2.12.58.51.38.83.9.96 1.54ZM347 70v-7.64h1.8V70H347Zm.9-8.72c-.28 0-.52-.1-.73-.28a.91.91 0 0 1-.3-.7c0-.27.1-.5.3-.69.2-.19.45-.28.74-.28s.53.1.73.28a.95.95 0 0 1 .01 1.39c-.2.19-.45.28-.74.28Zm6.08 8.87a3.7 3.7 0 0 1-1.94-.5 3.34 3.34 0 0 1-1.27-1.37 4.52 4.52 0 0 1-.44-2.07c0-.79.14-1.48.44-2.07.3-.6.73-1.06 1.28-1.38a3.7 3.7 0 0 1 1.93-.5c.75 0 1.4.17 1.94.5.55.32.97.79 1.27 1.38.3.6.45 1.28.45 2.07a4.5 4.5 0 0 1-.45 2.07 3.3 3.3 0 0 1-1.27 1.38c-.54.33-1.19.49-1.94.49Zm.01-1.44c.4 0 .75-.11 1.02-.34.27-.22.47-.52.6-.9.14-.38.2-.8.2-1.26 0-.47-.06-.9-.2-1.27a2 2 0 0 0-.6-.91 1.53 1.53 0 0 0-1.02-.34c-.41 0-.75.11-1.03.34a2 2 0 0 0-.61.9 3.95 3.95 0 0 0 0 2.54c.13.38.34.68.61.9.28.23.62.34 1.03.34Zm6.98-3.18V70h-1.8v-7.64h1.72v1.3h.09c.18-.43.46-.77.84-1.02.39-.25.87-.38 1.44-.38.52 0 .98.12 1.38.34.39.23.7.55.9.98.23.43.34.95.33 1.56V70h-1.8v-4.58c0-.51-.13-.91-.4-1.2a1.4 1.4 0 0 0-1.08-.43c-.32 0-.6.07-.84.2-.25.14-.44.34-.58.6a2 2 0 0 0-.2.94Zm12 0V70h-1.8v-7.64h1.72v1.3h.1c.17-.43.45-.77.83-1.02.4-.25.87-.38 1.44-.38.53 0 .99.12 1.38.34.4.23.7.55.91.98.22.43.33.95.33 1.56V70h-1.8v-4.58c0-.51-.14-.91-.4-1.2a1.4 1.4 0 0 0-1.09-.43c-.31 0-.6.07-.84.2a1.5 1.5 0 0 0-.57.6 2 2 0 0 0-.2.94Zm8.93 4.62c-.48 0-.92-.08-1.3-.25a2.13 2.13 0 0 1-.92-.78 2.27 2.27 0 0 1-.33-1.26c0-.43.08-.79.24-1.07.16-.28.37-.5.65-.68.27-.17.58-.3.93-.38.35-.09.7-.15 1.08-.2l1.08-.12c.28-.04.49-.1.61-.18.13-.08.2-.2.2-.38v-.03c0-.37-.12-.66-.34-.87-.22-.2-.54-.3-.96-.3-.44 0-.79.09-1.05.28-.25.2-.42.42-.51.68l-1.68-.24a2.68 2.68 0 0 1 1.77-1.87 4.76 4.76 0 0 1 2.56-.1c.37.08.7.22 1 .42.3.2.55.46.73.8.18.34.27.76.27 1.27V70h-1.73v-1.05h-.05a2.21 2.21 0 0 1-1.2 1.04c-.3.1-.65.16-1.05.16Zm.47-1.32c.36 0 .68-.07.94-.21a1.55 1.55 0 0 0 .83-1.36v-.9a.86.86 0 0 1-.29.13 14.09 14.09 0 0 1-1.36.24c-.27.04-.5.1-.72.18-.21.09-.38.2-.5.35a.85.85 0 0 0-.19.57c0 .33.12.58.37.75.24.17.55.25.92.25Zm5.38 1.17v-7.64h1.71v1.3h.1c.15-.44.42-.78.79-1.02.36-.25.8-.38 1.31-.38.52 0 .96.13 1.31.38a2 2 0 0 1 .76 1.02h.07c.17-.42.46-.76.86-1.01.4-.26.88-.39 1.44-.39.7 0 1.27.23 1.72.67.44.44.66 1.1.66 1.94V70h-1.8v-4.85c0-.47-.13-.82-.38-1.04a1.35 1.35 0 0 0-.92-.33c-.44 0-.78.14-1.02.4a1.5 1.5 0 0 0-.37 1.06V70h-1.76v-4.92c0-.4-.12-.71-.36-.95a1.25 1.25 0 0 0-.92-.35c-.26 0-.5.07-.7.2-.22.13-.39.31-.52.55-.12.24-.19.51-.19.83V70h-1.8Zm15.94.15a3.9 3.9 0 0 1-1.98-.48 3.23 3.23 0 0 1-1.28-1.36 4.57 4.57 0 0 1-.45-2.08c0-.79.15-1.48.45-2.07a3.38 3.38 0 0 1 3.17-1.9c.47 0 .91.08 1.33.23a3.19 3.19 0 0 1 1.88 1.9c.18.49.28 1.06.28 1.73v.55h-6.26v-1.2h4.53a2 2 0 0 0-.22-.93 1.63 1.63 0 0 0-.62-.64 1.72 1.72 0 0 0-.9-.23c-.37 0-.69.09-.97.26-.28.18-.5.41-.65.7a2 2 0 0 0-.23.94v1.06c0 .44.08.82.24 1.14.16.32.39.56.68.73a2.31 2.31 0 0 0 1.74.14c.2-.08.4-.19.55-.34.15-.14.27-.32.35-.54l1.68.2c-.1.44-.3.82-.6 1.16-.3.32-.68.58-1.14.76-.46.18-.99.27-1.58.27Z" fill="#1F1F1F"/><path d="M426 82H262v2h164v-2Z" fill="#F6F6F6" mask="url(#c)"/><mask id="d" fill="#fff"><path d="M426 48h95v35h-95V48Z"/></mask><path d="M426 48h95v35h-95V48Z" fill="#F6F6F6"/><path d="M444.54 62.62a1.36 1.36 0 0 0-.59-1.02 2.25 2.25 0 0 0-1.33-.36c-.39 0-.72.06-1 .17-.27.12-.48.28-.62.48a1.15 1.15 0 0 0-.08 1.23c.1.16.23.29.4.4.17.1.36.2.56.27.2.07.42.13.62.18l.96.24c.38.09.75.2 1.1.36.37.15.69.35.97.58a2.52 2.52 0 0 1 .93 2 2.76 2.76 0 0 1-1.79 2.63 5.2 5.2 0 0 1-2.08.37 5.3 5.3 0 0 1-2.06-.36 3.07 3.07 0 0 1-1.37-1.08 3.2 3.2 0 0 1-.52-1.72h1.81a1.55 1.55 0 0 0 1.08 1.41c.31.12.66.18 1.04.18.4 0 .76-.06 1.06-.18.3-.12.54-.3.71-.5.18-.23.26-.48.27-.77a.97.97 0 0 0-.24-.66 1.72 1.72 0 0 0-.64-.44 6.2 6.2 0 0 0-.95-.32l-1.16-.3a4.66 4.66 0 0 1-1.99-.97 2.26 2.26 0 0 1-.73-1.76c0-.6.17-1.12.5-1.57.32-.45.77-.8 1.33-1.05a4.5 4.5 0 0 1 1.91-.38c.73 0 1.36.12 1.9.38.55.25.98.6 1.29 1.04.31.44.47.94.48 1.52h-1.77Zm8.34 4.17v-4.43h1.8V70h-1.74v-1.36h-.08a2.3 2.3 0 0 1-.85 1.05c-.4.27-.88.4-1.45.4-.5 0-.94-.1-1.32-.32a2.3 2.3 0 0 1-.9-.98 3.45 3.45 0 0 1-.32-1.56v-4.87h1.8v4.59c0 .48.13.87.4 1.15.26.29.6.43 1.04.43a1.67 1.67 0 0 0 1.38-.77c.16-.26.24-.58.24-.97Zm3.73 3.21V59.82h1.8v3.8h.08c.1-.18.22-.38.4-.59.16-.2.39-.39.68-.54a2.91 2.91 0 0 1 3.83 1.55c.28.59.42 1.3.42 2.15 0 .84-.13 1.55-.41 2.14a2.89 2.89 0 0 1-2.74 1.8c-.43 0-.8-.07-1.08-.21a2.2 2.2 0 0 1-.7-.53 3.3 3.3 0 0 1-.4-.6h-.1V70h-1.78Zm1.77-3.82c0 .5.07.93.2 1.3.15.37.35.66.62.87.27.2.6.3.97.3.4 0 .73-.1 1-.31.27-.22.47-.5.6-.88.15-.38.22-.8.22-1.28 0-.47-.07-.9-.2-1.26a1.9 1.9 0 0 0-.61-.87c-.27-.2-.6-.3-1-.3s-.72.1-.99.3c-.26.2-.47.48-.6.84-.14.37-.21.8-.21 1.3Zm6.97-3.82h1.8v8.08c0 .55-.1 1-.31 1.36-.21.36-.51.62-.9.8a3.52 3.52 0 0 1-1.63.26h-.18v-1.47a2.07 2.07 0 0 0 .26 0c.34 0 .59-.08.74-.25.15-.16.22-.4.22-.73v-8.05Zm.9-1.08c-.3 0-.54-.1-.74-.28a.92.92 0 0 1-.3-.7c0-.27.1-.5.3-.69.2-.19.45-.28.74-.28.28 0 .53.1.73.28.2.2.3.42.3.7 0 .26-.1.5-.3.69-.2.19-.45.28-.73.28Zm6.13 8.87c-.76 0-1.42-.16-1.98-.48a3.23 3.23 0 0 1-1.28-1.36 4.57 4.57 0 0 1-.44-2.08c0-.79.14-1.48.44-2.07a3.39 3.39 0 0 1 3.17-1.9c.47 0 .91.08 1.33.23a3 3 0 0 1 1.12.7c.32.31.57.71.76 1.2.19.49.28 1.06.28 1.73v.55h-6.26v-1.2h4.53c0-.35-.07-.66-.22-.93a1.62 1.62 0 0 0-.61-.64 1.72 1.72 0 0 0-.9-.23c-.37 0-.7.09-.98.26-.27.18-.5.41-.65.7a2 2 0 0 0-.23.94v1.06c0 .44.08.82.24 1.14.17.32.4.56.68.73.3.16.64.25 1.03.25.26 0 .5-.04.7-.11.22-.08.4-.19.56-.34.16-.14.27-.32.35-.54l1.69.2a2.7 2.7 0 0 1-1.75 1.92c-.46.18-.98.27-1.58.27Zm8.25 0a3.35 3.35 0 0 1-3.22-1.89c-.3-.6-.44-1.28-.44-2.05 0-.77.15-1.46.45-2.05.3-.6.72-1.06 1.26-1.4a3.7 3.7 0 0 1 1.94-.5c.62 0 1.17.12 1.65.35a2.81 2.81 0 0 1 1.63 2.4h-1.72a1.65 1.65 0 0 0-.5-.92 1.4 1.4 0 0 0-1.03-.37c-.37 0-.7.1-.97.3-.28.19-.5.47-.65.84-.16.37-.23.8-.23 1.32s.07.97.23 1.34c.15.38.36.66.64.86.28.2.6.3.98.3.26 0 .5-.05.7-.15.22-.1.4-.25.54-.44.14-.2.24-.42.3-.7h1.71a2.83 2.83 0 0 1-1.6 2.41c-.47.23-1.03.35-1.67.35Zm8.56-7.79v1.4h-4.38v-1.4h4.38Zm-3.3-1.83h1.8v7.17c0 .25.04.43.1.56a.6.6 0 0 0 .3.26c.13.04.27.07.41.07a1.75 1.75 0 0 0 .53-.07l.3 1.4a4.05 4.05 0 0 1-1.06.18c-.45.02-.85-.05-1.21-.2a1.9 1.9 0 0 1-.86-.7 2.1 2.1 0 0 1-.31-1.2v-7.47Z" fill="#1F1F1F"/><path d="M521 82h-95v2h95v-2Z" fill="#F6F6F6" mask="url(#d)"/><path fill="#fff" d="M151 83h370v40H151z"/><g filter="url(#e)"><path fill="#fff" d="M151 83h111v40H151z"/><path d="M167.63 97.32v10.18h-1.23v-8.89h-.06l-2.49 1.65v-1.25l2.55-1.7h1.23Zm2.93 10.18v-.9l3.36-3.67c.4-.44.72-.8.98-1.13.25-.32.44-.62.56-.9.13-.29.2-.59.2-.9a1.65 1.65 0 0 0-.96-1.53 2.2 2.2 0 0 0-1-.22c-.39 0-.73.08-1.02.25-.29.16-.51.38-.67.67a2.1 2.1 0 0 0-.23 1.01h-1.18a2.87 2.87 0 0 1 1.54-2.63 3.38 3.38 0 0 1 1.6-.37c.6 0 1.13.12 1.59.38a2.8 2.8 0 0 1 1.28 3.54c-.14.36-.37.75-.7 1.19-.33.43-.79.96-1.37 1.6l-2.29 2.44v.08H177v1.09h-6.43Zm12.1-10.66-3.28 12.2h-1.08l3.28-12.2h1.08Zm4.69 10.8a3 3 0 0 1-1.91-.61c-.53-.41-.93-1-1.21-1.79a8.5 8.5 0 0 1-.42-2.83c0-1.1.14-2.04.42-2.82.28-.78.68-1.38 1.21-1.79a3 3 0 0 1 1.91-.62c.74 0 1.38.2 1.9.62.53.41.94 1 1.22 1.79.28.78.42 1.72.42 2.82a8.5 8.5 0 0 1-.42 2.83 3.83 3.83 0 0 1-1.2 1.79c-.53.4-1.17.6-1.92.6Zm0-1.1c.74 0 1.32-.35 1.73-1.07a6.2 6.2 0 0 0 .62-3.06c0-.88-.1-1.63-.29-2.25a3.09 3.09 0 0 0-.8-1.42 1.78 1.78 0 0 0-1.26-.49c-.74 0-1.31.37-1.73 1.1a6.23 6.23 0 0 0-.62 3.06c0 .88.1 1.63.28 2.25.19.61.45 1.08.8 1.4.35.33.78.48 1.27.48Zm5.43.96v-.9l3.36-3.67c.4-.44.72-.8.97-1.13.26-.32.45-.62.57-.9.13-.29.19-.59.19-.9a1.65 1.65 0 0 0-.96-1.53 2.12 2.12 0 0 0-.99-.22c-.39 0-.73.08-1.02.25-.3.16-.52.38-.68.67-.15.29-.23.62-.23 1.01h-1.17a2.87 2.87 0 0 1 1.54-2.63 3.38 3.38 0 0 1 1.6-.37c.6 0 1.13.12 1.59.38a2.8 2.8 0 0 1 1.27 3.54 4.9 4.9 0 0 1-.7 1.19c-.33.43-.78.96-1.36 1.6l-2.3 2.44v.08h4.74v1.09h-6.42Zm12.1-10.66-3.29 12.2h-1.07l3.28-12.2h1.07Zm1.37 10.66v-.9l3.36-3.67c.4-.44.71-.8.97-1.13.26-.32.44-.62.57-.9.12-.29.19-.59.19-.9a1.65 1.65 0 0 0-.96-1.53 2.2 2.2 0 0 0-1-.22c-.38 0-.72.08-1.02.25-.29.16-.5.38-.67.67a2.1 2.1 0 0 0-.23 1.01h-1.18a2.86 2.86 0 0 1 1.54-2.63 3.39 3.39 0 0 1 1.6-.37c.6 0 1.13.12 1.6.38.45.25.81.59 1.08 1.02.26.42.39.9.39 1.42 0 .38-.07.74-.2 1.1a4.9 4.9 0 0 1-.7 1.19c-.33.43-.78.96-1.37 1.6l-2.28 2.44v.08h4.73v1.09h-6.42Zm11.8.14a3 3 0 0 1-1.92-.61c-.53-.41-.93-1-1.2-1.79a8.47 8.47 0 0 1-.43-2.83c0-1.1.14-2.04.42-2.82a3.9 3.9 0 0 1 1.21-1.79 3 3 0 0 1 1.91-.62c.75 0 1.38.2 1.9.62.54.41.94 1 1.22 1.79.28.78.42 1.72.42 2.82 0 1.1-.14 2.05-.42 2.83a3.82 3.82 0 0 1-1.2 1.79c-.53.4-1.17.6-1.92.6Zm0-1.1c.73 0 1.31-.35 1.72-1.07a6.2 6.2 0 0 0 .62-3.06c0-.88-.1-1.63-.28-2.25a3.09 3.09 0 0 0-.8-1.42 1.78 1.78 0 0 0-1.27-.49c-.73 0-1.3.37-1.72 1.1a6.23 6.23 0 0 0-.62 3.06c0 .88.09 1.63.28 2.25.18.61.45 1.08.8 1.4.35.33.77.48 1.26.48Zm5.42.96v-.9l3.36-3.67c.4-.44.72-.8.98-1.13.25-.32.44-.62.56-.9.13-.29.2-.59.2-.9a1.65 1.65 0 0 0-.96-1.53 2.2 2.2 0 0 0-1-.22c-.39 0-.73.08-1.02.25-.29.16-.51.38-.67.67a2.1 2.1 0 0 0-.23 1.01h-1.18a2.87 2.87 0 0 1 1.54-2.63 3.38 3.38 0 0 1 1.6-.37c.6 0 1.13.12 1.59.38a2.8 2.8 0 0 1 1.28 3.54c-.14.36-.37.75-.7 1.19-.33.43-.79.96-1.37 1.6l-2.29 2.44v.08h4.74v1.09h-6.43Zm11.92.14c-.66 0-1.24-.11-1.76-.34a3 3 0 0 1-1.21-.94 2.6 2.6 0 0 1-.5-1.4h1.26c.03.32.14.6.34.85.2.23.46.41.78.54.32.13.68.2 1.07.2.44 0 .82-.08 1.16-.23.34-.16.6-.37.8-.64a1.78 1.78 0 0 0 .01-1.93 1.85 1.85 0 0 0-.82-.68c-.36-.16-.8-.24-1.31-.24h-.81v-1.1h.81c.4 0 .76-.07 1.06-.22a1.66 1.66 0 0 0 .98-1.55 1.56 1.56 0 0 0-.88-1.5 2.1 2.1 0 0 0-.96-.2c-.35 0-.68.06-1 .19-.3.12-.56.3-.75.55-.2.24-.3.53-.32.86h-1.2c.03-.53.19-1 .49-1.4.3-.4.7-.72 1.18-.94a3.82 3.82 0 0 1 3.24.04 2.7 2.7 0 0 1 1.4 2.34 2.3 2.3 0 0 1-1.67 2.3v.09c.64.1 1.15.38 1.5.82.37.44.55.98.55 1.63a2.6 2.6 0 0 1-.45 1.49c-.3.44-.7.78-1.23 1.03-.51.25-1.1.38-1.76.38Z" fill="#333"/></g><g filter="url(#f)"><path fill="#fff" d="M262 83h164v40H262z"/><path d="M276.47 97.32v10.18h-1.24V97.32h1.24Zm8.04 2.54c-.06-.5-.3-.9-.73-1.17a2.78 2.78 0 0 0-1.56-.42c-.45 0-.85.08-1.18.22-.34.15-.6.35-.79.6a1.44 1.44 0 0 0-.08 1.57c.13.2.3.36.5.49.2.12.42.23.65.31l.62.2 1.04.27c.26.07.56.17.88.29.33.12.64.29.94.5.3.21.55.48.75.8a2.76 2.76 0 0 1-1.4 3.77c-.54.26-1.2.39-1.99.39a4.8 4.8 0 0 1-1.9-.35 2.8 2.8 0 0 1-1.76-2.45h1.27c.04.38.17.7.4.95.22.25.5.43.86.56.35.12.73.17 1.13.17.47 0 .9-.07 1.27-.22.37-.16.67-.38.89-.65.22-.28.32-.6.32-.97 0-.34-.09-.62-.28-.83a2.07 2.07 0 0 0-.74-.52 6.9 6.9 0 0 0-1-.34l-1.26-.36a4.68 4.68 0 0 1-1.88-.98c-.47-.43-.7-.98-.7-1.67 0-.57.15-1.06.46-1.49a3.1 3.1 0 0 1 1.25-1 4.23 4.23 0 0 1 1.77-.35c.66 0 1.24.12 1.75.35.5.23.91.55 1.21.96.3.4.46.86.48 1.37h-1.2Zm3.36 7.64V97.32H294v1.1h-4.91v3.43h4.6v1.1h-4.6v3.46h4.99v1.09h-6.22Zm8.36 0V97.32h3.56c.71 0 1.3.12 1.76.37.46.24.8.56 1.03.98a2.79 2.79 0 0 1 .1 2.44c-.15.28-.35.5-.6.67a2.8 2.8 0 0 1-.82.37v.1a2 2 0 0 1 .94.33c.32.2.58.48.8.85.2.37.31.83.31 1.36 0 .52-.11.97-.35 1.38-.23.41-.6.73-1.1.97-.5.24-1.15.36-1.95.36h-3.68Zm1.24-1.1h2.44c.8 0 1.38-.15 1.72-.46.34-.32.5-.7.5-1.14 0-.35-.08-.67-.25-.96-.18-.3-.43-.53-.75-.7a2.37 2.37 0 0 0-1.16-.27h-2.5v3.54Zm0-4.6h2.28c.37 0 .7-.08 1-.23a1.63 1.63 0 0 0 .98-1.55 1.5 1.5 0 0 0-.46-1.14c-.3-.31-.8-.47-1.48-.47h-2.32v3.38Zm8.56 4.4a.86.86 0 0 1-.63-.27.86.86 0 0 1-.26-.63.9.9 0 0 1 .26-.63.86.86 0 0 1 .63-.26.9.9 0 0 1 .9.89c0 .17-.04.31-.13.45a.93.93 0 0 1-.32.33.85.85 0 0 1-.45.12Zm0-5.15a.86.86 0 0 1-.63-.27.86.86 0 0 1-.26-.63.9.9 0 0 1 .26-.63.86.86 0 0 1 .63-.26.9.9 0 0 1 .9.89c0 .16-.04.31-.13.45a.86.86 0 0 1-.77.45Zm7.1 6.45V97.32h6.15v1.1h-4.92v3.43h4.6v1.1h-4.6v3.46h5v1.09h-6.23Zm9.38-4.6v4.6h-1.17v-7.64h1.13v1.2h.1c.18-.4.45-.7.82-.94a2.5 2.5 0 0 1 1.41-.36c.52 0 .97.11 1.36.32.38.21.69.53.9.96.22.42.32.96.32 1.6v4.86h-1.17v-4.77c0-.6-.15-1.07-.47-1.4-.3-.34-.74-.51-1.28-.51-.37 0-.7.08-1 .24-.3.16-.52.4-.7.71-.16.31-.25.7-.25 1.14Zm10.1 7.62c-.56 0-1.05-.07-1.46-.22a3.09 3.09 0 0 1-1.66-1.3l.93-.67.4.48c.17.19.4.34.67.47.29.14.66.2 1.12.2a2.5 2.5 0 0 0 1.53-.44c.4-.3.6-.76.6-1.4v-1.55h-.1c-.09.14-.2.31-.37.52-.15.2-.38.38-.67.54-.3.15-.69.23-1.19.23a3.07 3.07 0 0 1-2.82-1.71 4.45 4.45 0 0 1-.42-2.03c0-.78.14-1.46.41-2.04a3.03 3.03 0 0 1 2.85-1.83c.5 0 .9.08 1.19.24.3.16.52.35.67.56l.37.5h.12v-1.2h1.13v7.85a2.45 2.45 0 0 1-1.64 2.5c-.5.2-1.05.3-1.66.3Zm-.04-4.2c.47 0 .87-.1 1.2-.32.32-.21.57-.52.74-.93.17-.4.25-.88.25-1.45 0-.55-.08-1.03-.25-1.45a2.2 2.2 0 0 0-.74-1 1.97 1.97 0 0 0-1.2-.35 2 2 0 0 0-1.24.38 2.3 2.3 0 0 0-.74 1.01 3.97 3.97 0 0 0 0 2.81c.17.41.42.73.75.96.33.23.74.35 1.23.35Zm6.66-9v10.18h-1.17V97.32h1.17Zm2.15 10.18v-7.64h1.18v7.64h-1.18Zm.6-8.9a.83.83 0 0 1-.6-.24.75.75 0 0 1-.24-.56c0-.22.09-.41.25-.57a.83.83 0 0 1 .59-.23c.23 0 .42.08.59.23a.78.78 0 0 1 0 1.13.82.82 0 0 1-.6.23Zm8.13 2.97-1.05.3a1.95 1.95 0 0 0-.3-.51c-.12-.17-.3-.3-.51-.42-.22-.1-.5-.16-.84-.16a2 2 0 0 0-1.17.32c-.3.21-.46.48-.46.81 0 .3.1.52.32.7.2.16.54.3 1 .42l1.13.27c.68.17 1.19.42 1.52.77.34.33.5.77.5 1.3 0 .44-.12.83-.38 1.17-.24.35-.6.62-1.04.82-.45.2-.97.3-1.56.3-.78 0-1.42-.17-1.93-.5a2.25 2.25 0 0 1-.97-1.49l1.11-.28c.1.41.3.72.6.93.3.2.69.3 1.17.3.55 0 .98-.11 1.3-.34.33-.24.49-.52.49-.85a.9.9 0 0 0-.28-.66 1.77 1.77 0 0 0-.85-.41l-1.28-.3a3.03 3.03 0 0 1-1.54-.77 1.86 1.86 0 0 1-.48-1.32c0-.43.12-.81.36-1.14.24-.33.58-.6 1-.78.42-.2.9-.29 1.44-.29.75 0 1.35.17 1.78.5.43.33.74.77.92 1.31Zm3.08 1.34v4.59h-1.17V97.32h1.17v3.74h.1c.18-.4.45-.71.8-.94.37-.24.85-.36 1.45-.36.52 0 .97.1 1.37.32.39.2.7.52.9.95.23.42.33.96.33 1.62v4.85h-1.17v-4.77a2 2 0 0 0-.47-1.41c-.31-.33-.75-.5-1.3-.5-.38 0-.73.08-1.03.24-.3.16-.54.4-.72.71-.17.31-.26.7-.26 1.14Z" fill="#333"/></g><g filter="url(#g)"><path fill="#fff" d="M426 83h95v40h-95z"/><path d="M439.23 107.5V97.32h6.15v1.1h-4.91v3.43h4.59v1.1h-4.6v3.46h5v1.09h-6.23Zm9.38-4.6v4.6h-1.17v-7.64h1.13v1.2h.1c.18-.4.45-.7.82-.94a2.5 2.5 0 0 1 1.41-.36c.52 0 .97.11 1.36.32.39.21.69.53.9.96.22.42.33.96.33 1.6v4.86h-1.18v-4.77c0-.6-.15-1.07-.46-1.4a1.67 1.67 0 0 0-1.29-.51c-.37 0-.7.08-1 .24-.3.16-.52.4-.7.71-.16.31-.25.7-.25 1.14Zm10.1 7.62c-.56 0-1.05-.07-1.46-.22a3.1 3.1 0 0 1-1.66-1.3l.94-.67c.1.14.24.3.4.48.16.19.38.34.66.47.29.14.66.2 1.12.2a2.5 2.5 0 0 0 1.53-.44c.4-.3.6-.76.6-1.4v-1.55h-.1c-.09.14-.2.31-.37.52-.15.2-.38.38-.67.54-.3.15-.69.23-1.19.23a3.06 3.06 0 0 1-2.82-1.71 4.45 4.45 0 0 1-.42-2.03c0-.78.14-1.46.42-2.04a3.03 3.03 0 0 1 2.85-1.83c.5 0 .89.08 1.18.24.3.16.52.35.67.56.16.2.29.37.37.5h.12v-1.2h1.13v7.85c0 .66-.14 1.19-.44 1.6-.3.41-.7.72-1.2.9-.5.2-1.05.3-1.66.3Zm-.04-4.2c.47 0 .87-.1 1.2-.32.32-.21.57-.52.74-.93.17-.4.25-.88.25-1.45 0-.55-.08-1.03-.25-1.45a2.2 2.2 0 0 0-.73-1 1.97 1.97 0 0 0-1.2-.35 2 2 0 0 0-2 1.39 4.21 4.21 0 0 0 .01 2.81c.17.41.42.73.75.96.33.23.74.35 1.23.35Zm6.66-9v10.18h-1.17V97.32h1.17Zm2.15 10.18v-7.64h1.18v7.64h-1.18Zm.6-8.9a.83.83 0 0 1-.6-.24.75.75 0 0 1-.24-.56c0-.22.09-.41.25-.57a.83.83 0 0 1 .6-.23c.22 0 .42.08.58.23.16.16.25.35.25.57 0 .21-.09.4-.25.56a.82.82 0 0 1-.59.23Zm8.13 2.97-1.05.3a1.95 1.95 0 0 0-.3-.51 1.5 1.5 0 0 0-.5-.42c-.23-.1-.5-.16-.85-.16a2 2 0 0 0-1.17.32c-.3.21-.46.48-.46.81 0 .3.1.52.32.7.21.16.54.3 1 .42l1.13.27c.68.17 1.19.42 1.52.77.34.33.5.77.5 1.3 0 .44-.12.83-.37 1.17-.25.35-.6.62-1.05.82-.44.2-.97.3-1.56.3-.78 0-1.42-.17-1.93-.5a2.25 2.25 0 0 1-.97-1.49l1.11-.28c.1.41.3.72.6.93.3.2.7.3 1.17.3.55 0 .98-.11 1.3-.34.33-.24.5-.52.5-.85 0-.26-.1-.49-.29-.66a1.77 1.77 0 0 0-.85-.41l-1.27-.3a3.04 3.04 0 0 1-1.55-.77 1.86 1.86 0 0 1-.48-1.32c0-.43.12-.81.36-1.14.25-.33.58-.6 1-.78.42-.2.9-.29 1.44-.29.76 0 1.35.17 1.78.5.44.33.74.77.92 1.31Zm3.08 1.34v4.59h-1.17V97.32h1.17v3.74h.1c.18-.4.45-.71.8-.94.37-.24.85-.36 1.45-.36.52 0 .98.1 1.37.32.39.2.7.52.9.95.23.42.34.96.34 1.62v4.85h-1.18v-4.77c0-.6-.15-1.08-.47-1.41a1.7 1.7 0 0 0-1.3-.5c-.38 0-.73.08-1.03.24-.3.16-.54.4-.72.71a2.3 2.3 0 0 0-.26 1.14Z" fill="#333"/></g></g><path d="M153.8 149.36c-.06-.5-.3-.9-.73-1.17a2.79 2.79 0 0 0-1.56-.42c-.45 0-.84.08-1.18.22-.33.15-.6.35-.79.6a1.44 1.44 0 0 0-.08 1.57c.13.2.3.36.5.49.21.12.43.23.65.31l.63.2 1.03.27c.26.07.56.17.88.29.33.12.65.29.94.5a2.32 2.32 0 0 1 1.04 2.01c0 .56-.14 1.05-.43 1.5-.28.44-.7.8-1.25 1.06s-1.21.39-2 .39c-.72 0-1.36-.12-1.89-.35a2.8 2.8 0 0 1-1.77-2.45h1.28c.03.38.16.7.39.95.22.25.51.43.86.56a3.5 3.5 0 0 0 2.4-.05c.38-.16.67-.38.9-.65.21-.28.32-.6.32-.97 0-.34-.1-.62-.28-.83a2.08 2.08 0 0 0-.75-.52 6.5 6.5 0 0 0-1-.34l-1.25-.36a4.68 4.68 0 0 1-1.89-.98c-.46-.43-.7-.98-.7-1.67 0-.57.16-1.06.47-1.49.3-.43.72-.76 1.25-1a4.22 4.22 0 0 1 1.76-.35c.66 0 1.24.12 1.75.35.51.23.92.55 1.22.96.3.4.46.86.47 1.37h-1.19Zm4.38 3.05V157H157v-10.18h1.18v3.74h.1c.17-.4.44-.71.8-.94a2.6 2.6 0 0 1 1.44-.36c.52 0 .98.1 1.37.32.39.2.7.52.9.95.23.42.34.96.34 1.62V157h-1.18v-4.77c0-.6-.15-1.08-.47-1.41a1.7 1.7 0 0 0-1.3-.5c-.38 0-.73.08-1.03.24-.3.16-.54.4-.72.71-.17.31-.25.7-.25 1.14Zm10.2 4.75c-.7 0-1.3-.16-1.82-.5a3.34 3.34 0 0 1-1.21-1.37 4.65 4.65 0 0 1-.44-2.07c0-.8.15-1.49.44-2.08.29-.6.7-1.05 1.21-1.38.52-.33 1.13-.5 1.81-.5a3.25 3.25 0 0 1 3.03 1.88c.29.6.44 1.29.44 2.08s-.15 1.48-.44 2.07a3.3 3.3 0 0 1-1.22 1.38 3.3 3.3 0 0 1-1.8.49Zm0-1.06a2 2 0 0 0 1.29-.4c.34-.27.59-.62.75-1.06a4.25 4.25 0 0 0 0-2.85c-.16-.44-.41-.8-.75-1.06a2 2 0 0 0-1.3-.41 2 2 0 0 0-1.29.4 2.4 2.4 0 0 0-.75 1.07 4.1 4.1 0 0 0 0 2.85c.16.44.41.8.75 1.06.34.27.77.4 1.3.4Zm6.72.9-2.33-7.64H174l1.65 5.85h.08l1.63-5.85h1.26l1.6 5.83h.09l1.65-5.83h1.23l-2.33 7.64h-1.15l-1.67-5.87h-.12l-1.67 5.87h-1.15Zm9.64 0v-7.64h1.17V157h-1.17Zm.6-8.9a.83.83 0 0 1-.6-.24.75.75 0 0 1-.24-.57c0-.21.08-.4.25-.56a.83.83 0 0 1 .59-.23c.23 0 .42.08.59.23.16.16.24.35.24.56a.82.82 0 0 1-.84.8Zm3.9 4.3v4.6h-1.18v-7.64h1.14v1.2h.1c.18-.4.45-.7.81-.94.37-.24.84-.36 1.41-.36.52 0 .97.11 1.36.32.39.21.7.53.9.96.22.42.33.96.33 1.6V157h-1.17v-4.77c0-.6-.16-1.07-.47-1.4a1.65 1.65 0 0 0-1.28-.51c-.38 0-.71.08-1 .24-.3.16-.53.4-.7.71-.17.31-.25.7-.25 1.14Zm10.1 7.62a4.3 4.3 0 0 1-1.47-.22 3.1 3.1 0 0 1-1.66-1.3l.94-.66c.1.13.24.3.4.47.16.19.39.34.67.47.28.14.66.2 1.12.2a2.5 2.5 0 0 0 1.52-.44c.4-.3.6-.76.6-1.4v-1.55h-.1c-.08.14-.2.31-.36.51-.16.2-.38.39-.68.55-.3.15-.69.23-1.18.23a3.06 3.06 0 0 1-2.82-1.71 4.45 4.45 0 0 1-.42-2.03c0-.78.13-1.46.4-2.04a3.03 3.03 0 0 1 2.85-1.83c.5 0 .9.08 1.19.24.3.17.52.35.68.56.16.2.28.37.36.5h.12v-1.2h1.14v7.85c0 .66-.15 1.19-.45 1.6-.3.41-.7.72-1.2.9-.5.2-1.04.3-1.65.3Zm-.04-4.2c.47 0 .86-.1 1.19-.32.32-.21.57-.52.74-.93.17-.4.25-.88.25-1.45 0-.55-.08-1.03-.24-1.46a2.2 2.2 0 0 0-.74-.98 1.97 1.97 0 0 0-1.2-.36 2 2 0 0 0-1.99 1.39c-.16.42-.24.9-.24 1.41 0 .53.08 1 .25 1.4.17.41.42.73.74.96.34.23.75.35 1.24.35Zm12.98-9V157h-1.23v-8.89h-.06l-2.49 1.65v-1.25l2.55-1.7h1.23Zm11.26 4.54v1.1h-4.45v-1.1h4.45Zm5.75 3.55v-1.01l4.47-7.08h.74v1.57h-.5l-3.38 5.35v.08h6.02v1.1h-7.35Zm4.79 2.09v-10.18h1.17V157h-1.17Zm11.49.16c-.7 0-1.3-.16-1.82-.5a3.34 3.34 0 0 1-1.21-1.37 4.66 4.66 0 0 1-.43-2.07c0-.8.14-1.49.43-2.08.3-.6.7-1.05 1.21-1.38.52-.33 1.13-.5 1.82-.5a3.3 3.3 0 0 1 3.02 1.87c.3.6.44 1.3.44 2.1 0 .78-.15 1.47-.44 2.06a3.4 3.4 0 0 1-1.21 1.38 3.3 3.3 0 0 1-1.81.49Zm0-1.06a2 2 0 0 0 1.29-.4c.34-.27.59-.62.75-1.06a4.25 4.25 0 0 0 0-2.85 2.4 2.4 0 0 0-.75-1.06 2 2 0 0 0-1.3-.41 2 2 0 0 0-1.29.4 2.6 2.6 0 0 0-.75 1.07 4.1 4.1 0 0 0-.24 1.43c0 .51.08.99.24 1.42.17.44.42.8.75 1.06.34.27.77.4 1.3.4Zm8.65-6.74v1h-4.12v-1h4.12Zm-2.88 7.64v-8.69c0-.44.1-.8.3-1.1.2-.29.48-.5.8-.65a2.91 2.91 0 0 1 2.15-.02l-.33 1.01a5.44 5.44 0 0 0-.25-.07 1.5 1.5 0 0 0-.4-.04c-.4 0-.68.1-.85.29-.17.2-.25.48-.25.86V157h-1.17Zm11.88.14a4.2 4.2 0 0 1-1.75-.34 3 3 0 0 1-1.22-.94c-.3-.4-.46-.87-.49-1.4h1.25c.03.32.14.6.34.84s.46.42.78.55c.32.13.68.2 1.07.2.44 0 .83-.08 1.16-.23.34-.16.6-.37.8-.64.2-.27.29-.59.29-.94 0-.38-.1-.7-.28-1a1.85 1.85 0 0 0-.82-.67c-.35-.16-.8-.24-1.3-.24h-.82v-1.1h.81c.4 0 .76-.07 1.07-.22.3-.14.54-.35.72-.61.17-.27.26-.58.26-.94 0-.34-.08-.64-.23-.9a1.56 1.56 0 0 0-.65-.6 2.56 2.56 0 0 0-1.97-.02 2 2 0 0 0-.75.56c-.2.24-.3.53-.32.86h-1.2c.03-.53.19-1 .5-1.4.3-.4.69-.72 1.17-.94a3.83 3.83 0 0 1 3.24.04 2.69 2.69 0 0 1 1.4 2.34 2.3 2.3 0 0 1-1.67 2.3v.09c.65.1 1.15.38 1.5.82.37.44.55.98.55 1.63a2.6 2.6 0 0 1-.45 1.49c-.3.44-.7.78-1.22 1.03s-1.11.38-1.77.38Zm5.24-2.23v-1.01l4.47-7.08h.74v1.57h-.5l-3.38 5.35v.08h6.02v1.1h-7.35Zm4.79 2.09v-10.18h1.17V157h-1.17Zm8.38 0v-7.64h1.18V157h-1.18Zm.6-8.9a.83.83 0 0 1-.6-.24.75.75 0 0 1-.23-.57c0-.21.08-.4.24-.56a.83.83 0 0 1 .6-.23c.22 0 .41.08.58.23.16.16.25.35.25.56 0 .22-.09.41-.25.57a.82.82 0 0 1-.59.23Zm6.05 1.26v1h-3.96v-1h3.96Zm-2.8-1.83h1.17v7.28c0 .33.05.58.14.75.1.16.23.27.38.33.15.05.32.08.5.08l.3-.02.2-.04.25 1.05a2.41 2.41 0 0 1-.88.14c-.33 0-.65-.07-.97-.21a1.94 1.94 0 0 1-.79-.66 1.9 1.9 0 0 1-.3-1.1v-7.6Zm7.68 9.63a3.28 3.28 0 0 1-3.13-1.86 4.68 4.68 0 0 1-.43-2.06c0-.78.14-1.47.43-2.07a3.23 3.23 0 0 1 3.01-1.9c.4 0 .8.06 1.18.2a2.93 2.93 0 0 1 1.82 1.81 5 5 0 0 1 .28 1.8v.5h-5.88v-1.02h4.7c0-.43-.1-.81-.27-1.15a1.95 1.95 0 0 0-1.83-1.1 2.2 2.2 0 0 0-1.99 1.26c-.18.36-.27.75-.27 1.17v.68c0 .58.1 1.07.3 1.47.2.4.48.7.83.9.36.21.78.31 1.25.31.31 0 .59-.04.84-.12.25-.1.47-.23.65-.4.18-.18.32-.4.42-.67l1.13.32a2.5 2.5 0 0 1-.6 1.01 2.9 2.9 0 0 1-1.04.68c-.42.16-.88.24-1.4.24Zm4.95-.16v-7.64h1.13v1.2h.1c.16-.41.42-.73.77-.95a2.3 2.3 0 0 1 1.28-.35c.5 0 .92.12 1.26.35.34.22.6.54.79.95h.08c.2-.4.49-.71.88-.94.39-.24.86-.36 1.4-.36.69 0 1.25.22 1.68.65.44.42.65 1.08.65 1.98V157h-1.17v-5.11c0-.56-.16-.97-.46-1.2a1.7 1.7 0 0 0-1.1-.37c-.53 0-.95.16-1.24.49-.3.32-.44.72-.44 1.22V157h-1.2v-5.23c0-.43-.14-.78-.42-1.05a1.5 1.5 0 0 0-1.09-.4c-.3 0-.59.08-.85.24-.27.16-.48.39-.64.68a2 2 0 0 0-.24.99V157h-1.17Zm17.58-5.93-1.06.3a1.95 1.95 0 0 0-.3-.51 1.5 1.5 0 0 0-.5-.42c-.23-.1-.5-.16-.85-.16a2 2 0 0 0-1.17.32c-.3.21-.46.48-.46.81 0 .3.1.52.32.7.21.16.54.3 1 .42l1.13.27c.68.17 1.19.42 1.52.76.34.34.5.78.5 1.31 0 .44-.12.83-.37 1.17-.25.35-.6.62-1.05.82-.44.2-.96.3-1.56.3-.78 0-1.42-.17-1.93-.5a2.25 2.25 0 0 1-.97-1.49l1.11-.28c.1.41.3.72.6.93.3.2.7.3 1.17.3.55 0 .98-.11 1.3-.34.33-.24.5-.52.5-.85 0-.26-.1-.49-.29-.66a1.77 1.77 0 0 0-.85-.41l-1.27-.3a3.04 3.04 0 0 1-1.54-.77 1.86 1.86 0 0 1-.5-1.32c0-.43.13-.81.37-1.14.25-.33.58-.6 1-.78.42-.2.9-.29 1.44-.29.76 0 1.35.17 1.78.5.44.33.74.77.93 1.31Z" fill="#000"/><rect x="147.5" y="175.5" width="60" height="31" rx="3.5" fill="#fff"/><path d="M163.63 185.82V196h-1.23v-8.89h-.06l-2.49 1.65v-1.25l2.55-1.7h1.23Z" fill="#1F1F1F"/><path d="M190 194.28c-.2 0-.4-.08-.55-.23l-5-5c-.3-.3-.3-.8 0-1.1.3-.3.8-.3 1.1 0l4.45 4.45 4.45-4.45c.3-.3.8-.3 1.1 0 .3.3.3.8 0 1.1l-5 5a.78.78 0 0 1-.55.22Z" fill="#757575"/><rect x="147.5" y="175.5" width="60" height="31" rx="3.5" stroke="#545454"/><path d="M224.18 196.16c-.7 0-1.3-.16-1.82-.5a3.34 3.34 0 0 1-1.21-1.37 4.66 4.66 0 0 1-.43-2.07c0-.8.14-1.49.43-2.08.29-.6.7-1.05 1.21-1.38.52-.33 1.13-.5 1.82-.5a3.24 3.24 0 0 1 3.02 1.88c.3.6.44 1.29.44 2.08s-.15 1.48-.44 2.07a3.3 3.3 0 0 1-1.21 1.38 3.3 3.3 0 0 1-1.81.49Zm0-1.06a2 2 0 0 0 1.29-.4c.34-.27.59-.62.75-1.06a4.25 4.25 0 0 0 0-2.85 2.4 2.4 0 0 0-.75-1.06 2 2 0 0 0-1.3-.41 2 2 0 0 0-1.29.4 2.4 2.4 0 0 0-.75 1.07 4.2 4.2 0 0 0 0 2.85c.16.44.41.8.75 1.06a2 2 0 0 0 1.3.4Zm8.65-6.74v1h-4.12v-1h4.12Zm-2.89 7.64v-8.69c0-.44.1-.8.31-1.1.2-.29.47-.5.8-.65a2.9 2.9 0 0 1 2.15-.02l-.33 1.01a6 6 0 0 0-.25-.07 1.5 1.5 0 0 0-.4-.04c-.4 0-.68.1-.85.29-.17.2-.25.48-.25.86V196h-1.18Zm12.03-10.18V196h-1.23v-8.89h-.06l-2.49 1.65v-1.25l2.55-1.7h1.23ZM244.9 196v-.9l3.36-3.67c.4-.44.72-.8.97-1.13.26-.32.45-.62.57-.9.13-.29.19-.59.19-.9a1.66 1.66 0 0 0-.96-1.53c-.3-.15-.62-.22-.99-.22-.4 0-.73.08-1.02.25-.3.16-.52.38-.68.67a2.1 2.1 0 0 0-.23 1.01h-1.17a2.87 2.87 0 0 1 1.54-2.63 3.38 3.38 0 0 1 1.6-.37c.6 0 1.13.13 1.58.38a2.75 2.75 0 0 1 1.49 2.44c0 .38-.08.74-.21 1.1a4.8 4.8 0 0 1-.7 1.19c-.33.43-.78.96-1.37 1.6l-2.28 2.44v.08h4.73V196h-6.42Zm12.43 2.86v-10.5h1.13v1.22h.14l.36-.51c.16-.2.38-.4.67-.56.29-.16.69-.25 1.18-.25a3.03 3.03 0 0 1 2.85 1.85c.28.6.41 1.29.41 2.1 0 .8-.13 1.5-.4 2.1a3 3 0 0 1-2.83 1.85 2.18 2.18 0 0 1-1.86-.8 7.88 7.88 0 0 1-.38-.53h-.1v4.03h-1.17Zm1.16-6.68c0 .58.08 1.09.25 1.53.17.44.41.78.74 1.03.32.24.72.36 1.2.36s.9-.12 1.22-.38c.33-.26.58-.62.75-1.06.17-.44.25-.94.25-1.48 0-.53-.08-1.02-.25-1.45-.16-.43-.4-.78-.74-1.03a1.96 1.96 0 0 0-1.24-.38 1.96 1.96 0 0 0-1.94 1.37 4.2 4.2 0 0 0-.25 1.5Zm9.62 4c-.48 0-.92-.1-1.32-.27-.4-.19-.7-.46-.94-.8a2.26 2.26 0 0 1-.35-1.28c0-.44.1-.79.26-1.06.18-.28.4-.5.7-.65.28-.15.6-.27.95-.35.35-.08.7-.14 1.06-.19a52 52 0 0 1 1.13-.13c.29-.03.5-.09.63-.16.14-.08.2-.21.2-.4v-.04c0-.5-.13-.87-.4-1.14-.26-.28-.66-.41-1.2-.41a2.1 2.1 0 0 0-1.99 1.15l-1.12-.4a2.68 2.68 0 0 1 1.9-1.63 4.55 4.55 0 0 1 2.01-.07c.32.06.63.18.93.36.3.18.55.45.75.8.2.37.3.85.3 1.46V196h-1.17v-1.03h-.06a2.28 2.28 0 0 1-1.14 1.01c-.31.13-.69.2-1.13.2Zm.18-1.06c.46 0 .85-.09 1.17-.27a1.86 1.86 0 0 0 .98-1.61v-1.08c-.05.06-.16.12-.33.17l-.58.12a29.9 29.9 0 0 1-1.12.15c-.3.04-.6.1-.86.2-.26.08-.47.21-.63.39a1 1 0 0 0-.24.7c0 .41.15.72.45.93.3.2.7.3 1.16.3Zm8.54 3.9c-.56 0-1.05-.07-1.46-.22a3.1 3.1 0 0 1-1.66-1.3l.94-.66c.1.13.24.3.4.47.16.19.38.34.66.47.29.14.66.2 1.12.2a2.5 2.5 0 0 0 1.53-.44c.4-.3.6-.76.6-1.4v-1.55h-.1c-.08.14-.2.31-.37.51-.15.2-.38.39-.67.55-.3.15-.69.23-1.19.23a3.06 3.06 0 0 1-2.82-1.71 4.46 4.46 0 0 1-.42-2.03c0-.78.14-1.46.42-2.04a3.03 3.03 0 0 1 2.85-1.83c.5 0 .89.08 1.18.24.3.17.52.35.67.56.16.2.29.37.37.5h.12v-1.2h1.13v7.85c0 .66-.14 1.19-.44 1.6-.3.41-.7.72-1.2.9-.5.2-1.05.3-1.66.3Zm-.04-4.2c.47 0 .87-.1 1.2-.32.32-.21.57-.52.74-.93.17-.4.25-.88.25-1.45 0-.55-.08-1.03-.25-1.46a2.2 2.2 0 0 0-.73-.98 1.97 1.97 0 0 0-1.2-.36 2 2 0 0 0-1.99 1.39c-.16.42-.24.9-.24 1.41 0 .53.08 1 .25 1.4.17.41.41.73.74.96.33.23.74.35 1.23.35Zm8.7 1.34a3.6 3.6 0 0 1-1.91-.49 3.28 3.28 0 0 1-1.23-1.37 4.68 4.68 0 0 1-.43-2.06c0-.78.15-1.47.43-2.07.3-.6.7-1.06 1.2-1.4a3.61 3.61 0 0 1 2.99-.3 2.93 2.93 0 0 1 1.82 1.81 5 5 0 0 1 .29 1.8v.5h-5.89v-1.02h4.7c0-.43-.1-.81-.26-1.15a1.94 1.94 0 0 0-1.83-1.1 2.2 2.2 0 0 0-2 1.26c-.18.36-.27.75-.27 1.17v.68c0 .58.1 1.07.3 1.47.2.4.48.7.84.9.36.21.77.31 1.25.31.3 0 .58-.04.83-.12.25-.1.47-.23.65-.4.18-.18.32-.4.42-.67l1.14.32a2.5 2.5 0 0 1-.6 1.01c-.29.3-.63.52-1.05.68-.41.16-.88.24-1.4.24Zm10.35-6.09-1.05.3a1.95 1.95 0 0 0-.3-.51c-.12-.17-.3-.3-.51-.42-.22-.1-.5-.16-.84-.16a2 2 0 0 0-1.17.32c-.31.21-.47.48-.47.81 0 .3.11.52.32.7.22.16.55.3 1 .42l1.13.27c.68.17 1.2.42 1.53.76.33.34.5.78.5 1.31 0 .44-.13.83-.38 1.17-.25.35-.6.62-1.04.82-.45.2-.97.3-1.56.3-.78 0-1.43-.17-1.94-.5a2.25 2.25 0 0 1-.97-1.49l1.12-.28c.1.41.3.72.6.93.3.2.69.3 1.17.3.54 0 .98-.11 1.3-.34.32-.24.49-.52.49-.85a.9.9 0 0 0-.28-.66 1.77 1.77 0 0 0-.86-.41l-1.27-.3a3.04 3.04 0 0 1-1.54-.77 1.86 1.86 0 0 1-.49-1.32c0-.43.12-.81.37-1.14.24-.33.57-.6 1-.78.42-.2.9-.29 1.44-.29.75 0 1.35.17 1.78.5.43.33.74.77.92 1.31Z" fill="#000"/><path d="m432.53 190.65-.36.35.36.35 3.56 3.56c.02.02.03.05.03.09 0 .04-.01.07-.03.09a.12.12 0 0 1-.09.03.12.12 0 0 1-.09-.03l-4-4-.34.34.34-.34a.12.12 0 0 1-.03-.09c0-.04.01-.07.03-.09l-.35-.35.35.35 4-4-.35-.35.35.35a.12.12 0 0 1 .09-.03c.04 0 .07.01.09.03.02.02.03.05.03.09 0 .04-.01.07-.03.09l-3.56 3.56Z" fill="#0F67F5" stroke="#545454"/><rect x="418.5" y="175.5" width="31" height="31" rx="15.5" stroke="#545454"/><path d="m483.47 191.35.36-.35-.36-.35-3.56-3.56a.12.12 0 0 1-.03-.09c0-.04.01-.07.03-.09a.12.12 0 0 1 .09-.03c.04 0 .07.01.09.03l4 4c.02.02.03.05.03.09 0 .04-.01.07-.03.09l-4 4a.12.12 0 0 1-.09.03.12.12 0 0 1-.09-.03.12.12 0 0 1-.03-.09c0-.04.01-.07.03-.09l3.56-3.56Z" fill="#0F67F5" stroke="#545454"/><rect x="466.5" y="175.5" width="31" height="31" rx="15.5" stroke="#545454"/><defs><filter id="e" x="151" y="83" width="111" height="40" filterUnits="userSpaceOnUse" color-interpolation-filters="sRGB"><feFlood flood-opacity="0" result="BackgroundImageFix"/><feBlend in="SourceGraphic" in2="BackgroundImageFix" result="shape"/><feColorMatrix in="SourceAlpha" values="0 0 0 0 0 0 0 0 0 0 0 0 0 0 0 0 0 0 127 0" result="hardAlpha"/><feOffset dy="-1"/><feComposite in2="hardAlpha" operator="arithmetic" k2="-1" k3="1"/><feColorMatrix values="0 0 0 0 0.933333 0 0 0 0 0.933333 0 0 0 0 0.933333 0 0 0 1 0"/><feBlend in2="shape" result="effect1_innerShadow_11668_104994"/></filter><filter id="f" x="262" y="83" width="164" height="40" filterUnits="userSpaceOnUse" color-interpolation-filters="sRGB"><feFlood flood-opacity="0" result="BackgroundImageFix"/><feBlend in="SourceGraphic" in2="BackgroundImageFix" result="shape"/><feColorMatrix in="SourceAlpha" values="0 0 0 0 0 0 0 0 0 0 0 0 0 0 0 0 0 0 127 0" result="hardAlpha"/><feOffset dy="-1"/><feComposite in2="hardAlpha" operator="arithmetic" k2="-1" k3="1"/><feColorMatrix values="0 0 0 0 0.933333 0 0 0 0 0.933333 0 0 0 0 0.933333 0 0 0 1 0"/><feBlend in2="shape" result="effect1_innerShadow_11668_104994"/></filter><filter id="g" x="426" y="83" width="95" height="40" filterUnits="userSpaceOnUse" color-interpolation-filters="sRGB"><feFlood flood-opacity="0" result="BackgroundImageFix"/><feBlend in="SourceGraphic" in2="BackgroundImageFix" result="shape"/><feColorMatrix in="SourceAlpha" values="0 0 0 0 0 0 0 0 0 0 0 0 0 0 0 0 0 0 127 0" result="hardAlpha"/><feOffset dy="-1"/><feComposite in2="hardAlpha" operator="arithmetic" k2="-1" k3="1"/><feColorMatrix values="0 0 0 0 0.933333 0 0 0 0 0.933333 0 0 0 0 0.933333 0 0 0 1 0"/><feBlend in2="shape" result="effect1_innerShadow_11668_104994"/></filter><clipPath id="a"><path fill="#fff" transform="translate(151 48)" d="M0 0h370v75H0z"/></clipPath></defs></svg>