<svg width="300" height="170" fill="none" xmlns="http://www.w3.org/2000/svg"><rect x="1" y="1" width="298" height="168" rx="7.5" fill="#fff"/><g clip-path="url(#a)"><mask id="b" fill="#fff"><path d="M8.5 8.5h97v33h-97v-33Z"/></mask><path d="M8.5 8.5h97v33h-97v-33Z" fill="#F6F6F6"/><path d="M21.5 29.5V19.32h1.85v8.63h4.48v1.55H21.5Zm11.24.15c-.77 0-1.43-.16-1.99-.48a3.23 3.23 0 0 1-1.28-1.36 4.56 4.56 0 0 1-.44-2.08c0-.79.15-1.48.44-2.07a3.38 3.38 0 0 1 3.17-1.9c.47 0 .92.08 1.33.23a3.17 3.17 0 0 1 1.88 1.9c.19.49.28 1.06.28 1.73v.55h-6.26v-1.2h4.54c0-.35-.08-.66-.23-.93a1.63 1.63 0 0 0-.61-.64 1.72 1.72 0 0 0-.9-.23 1.8 1.8 0 0 0-1.63.96 2 2 0 0 0-.23.94v1.06c0 .44.08.82.24 1.14a1.8 1.8 0 0 0 1.71.98c.26 0 .5-.04.71-.11a1.55 1.55 0 0 0 .91-.88l1.68.2a2.7 2.7 0 0 1-1.74 1.92c-.46.18-1 .27-1.58.27Zm10.95-5.77-1.64.18a1.32 1.32 0 0 0-.7-.82c-.2-.09-.43-.13-.7-.13-.38 0-.7.08-.95.24-.26.16-.38.37-.38.63 0 .22.08.4.25.54.17.14.44.26.83.35l1.3.27c.73.16 1.26.4 1.62.75.35.33.53.78.53 1.32 0 .48-.14.9-.42 1.28-.27.36-.66.65-1.15.85-.49.2-1.05.3-1.69.3-.93 0-1.69-.19-2.26-.58-.57-.4-.9-.94-1.01-1.64l1.75-.17c.08.34.25.6.5.78.27.17.6.26 1.02.26.42 0 .77-.09 1.03-.26.26-.18.39-.4.39-.65 0-.22-.09-.4-.26-.54a1.77 1.77 0 0 0-.77-.33l-1.3-.28a3.1 3.1 0 0 1-1.63-.77 1.9 1.9 0 0 1-.52-1.38c0-.47.12-.88.38-1.22a2.5 2.5 0 0 1 1.1-.8 4 4 0 0 1 1.6-.3c.9 0 1.6.2 2.12.58.52.38.84.9.96 1.54Zm7.68 0-1.64.18a1.32 1.32 0 0 0-.7-.82c-.2-.09-.43-.13-.7-.13-.38 0-.7.08-.95.24-.25.16-.38.37-.37.63 0 .22.08.4.24.54.17.14.45.26.84.35l1.3.27c.72.16 1.26.4 1.6.75.36.33.54.78.55 1.32 0 .48-.15.9-.43 1.28-.27.36-.65.65-1.14.85-.5.2-1.06.3-1.7.3-.93 0-1.68-.19-2.25-.58-.57-.4-.91-.94-1.02-1.64l1.75-.17c.08.34.25.6.51.78.26.17.6.26 1.01.26.43 0 .77-.09 1.03-.26.26-.18.4-.4.4-.65a.7.7 0 0 0-.26-.54 1.77 1.77 0 0 0-.78-.33l-1.3-.28a3.1 3.1 0 0 1-1.63-.77 1.9 1.9 0 0 1-.52-1.38c0-.47.13-.88.39-1.22a2.5 2.5 0 0 1 1.08-.8 4.1 4.1 0 0 1 1.62-.3c.9 0 1.6.2 2.11.58.52.38.84.9.96 1.54Zm4.98 5.77a3.7 3.7 0 0 1-1.94-.5 3.34 3.34 0 0 1-1.27-1.37 4.53 4.53 0 0 1-.45-2.07c0-.79.15-1.48.45-2.07.3-.6.73-1.06 1.27-1.38a3.7 3.7 0 0 1 1.94-.5c.75 0 1.4.17 1.94.5.55.32.97.79 1.27 1.38.3.6.45 1.28.45 2.07 0 .79-.15 1.48-.45 2.07-.3.59-.72 1.05-1.27 1.38a3.7 3.7 0 0 1-1.94.49Zm.01-1.44c.4 0 .74-.11 1.02-.34a2 2 0 0 0 .6-.9c.14-.38.2-.8.2-1.26 0-.47-.06-.9-.2-1.27a2 2 0 0 0-.6-.91 1.54 1.54 0 0 0-1.02-.34c-.41 0-.76.11-1.03.34a2 2 0 0 0-.61.9c-.14.39-.2.8-.2 1.28 0 .46.06.88.2 1.26.13.38.34.68.6.9.28.23.63.34 1.04.34Zm6.98-3.18v4.47h-1.8v-7.64h1.72v1.3h.09c.17-.43.45-.77.84-1.02.39-.25.86-.38 1.43-.38.53 0 1 .12 1.38.34.4.23.7.55.92.98.22.43.32.95.32 1.56v4.86h-1.8v-4.58c0-.51-.13-.91-.4-1.2a1.4 1.4 0 0 0-1.09-.43c-.31 0-.6.07-.84.2a1.5 1.5 0 0 0-.57.6 2 2 0 0 0-.2.94Zm12 0v4.47h-1.8v-7.64h1.72v1.3h.1c.17-.43.45-.77.83-1.02.39-.25.87-.38 1.44-.38.53 0 .98.12 1.38.34.39.23.7.55.91.98.22.43.33.95.32 1.56v4.86h-1.8v-4.58c0-.51-.13-.91-.4-1.2a1.4 1.4 0 0 0-1.08-.43c-.32 0-.6.07-.84.2-.24.14-.44.34-.57.6a2 2 0 0 0-.2.94Zm8.93 4.62c-.48 0-.92-.08-1.3-.25a2.13 2.13 0 0 1-.92-.78 2.27 2.27 0 0 1-.33-1.26c0-.43.07-.79.23-1.07s.38-.5.66-.68c.27-.17.58-.3.92-.38.35-.09.71-.15 1.08-.2l1.1-.12c.27-.04.47-.1.6-.18.13-.08.2-.2.2-.38v-.03c0-.37-.12-.66-.34-.87-.22-.2-.54-.3-.96-.3-.44 0-.79.09-1.05.28-.25.2-.43.42-.52.68l-1.68-.24A2.68 2.68 0 0 1 83.74 22a4.76 4.76 0 0 1 2.56-.1c.36.08.7.22 1 .42.3.2.54.46.72.8.19.34.28.76.28 1.27v5.11h-1.73v-1.05h-.06a2.2 2.2 0 0 1-1.2 1.04c-.3.1-.64.16-1.04.16Zm.47-1.32a2 2 0 0 0 .94-.21c.26-.15.47-.34.6-.58.15-.24.23-.5.23-.78v-.9a.85.85 0 0 1-.3.13 13.84 13.84 0 0 1-1.36.24c-.26.04-.5.1-.71.18-.22.09-.38.2-.5.35a.85.85 0 0 0-.19.57c0 .33.12.58.36.75.25.17.55.25.93.25Zm5.37 1.17v-7.64h1.72v1.3h.1c.15-.44.41-.78.78-1.02.37-.25.8-.38 1.32-.38s.95.13 1.3.38c.37.25.62.59.76 1.02h.08c.17-.42.46-.76.86-1.01.4-.26.88-.39 1.43-.39.7 0 1.28.23 1.73.67.44.44.66 1.1.66 1.94v5.13h-1.8v-4.85c0-.47-.13-.82-.38-1.04a1.35 1.35 0 0 0-.93-.33c-.43 0-.77.14-1.02.4a1.5 1.5 0 0 0-.36 1.06v4.76H94.6v-4.92c0-.4-.12-.71-.36-.95a1.25 1.25 0 0 0-.93-.35 1.32 1.32 0 0 0-1.2.75c-.14.24-.2.51-.2.83v4.64h-1.8Zm15.95.15c-.77 0-1.43-.16-1.99-.48a3.23 3.23 0 0 1-1.27-1.36 4.57 4.57 0 0 1-.45-2.08c0-.79.15-1.48.45-2.07a3.39 3.39 0 0 1 3.16-1.9c.47 0 .92.08 1.34.23.42.15.79.38 1.1.7.33.31.59.71.77 1.2.19.49.28 1.06.28 1.73v.55h-6.26v-1.2h4.54c0-.35-.08-.66-.23-.93a1.63 1.63 0 0 0-1.51-.87 1.8 1.8 0 0 0-1.62.96c-.16.29-.23.6-.24.94v1.06c0 .44.09.82.25 1.14.16.32.39.56.68.73a2.25 2.25 0 0 0 1.73.14 1.55 1.55 0 0 0 .91-.88l1.68.2a2.69 2.69 0 0 1-1.74 1.92c-.46.18-.99.27-1.58.27Z" fill="#333"/><path d="M8.5 8.5h97-97Zm97 34h-97v-2h97v2Zm-97-1v-33 33Zm97-33v33-33Z" fill="#F6F6F6" mask="url(#b)"/><mask id="d" fill="#fff"><path d="M105.5 8.5h104v33h-104v-33Z"/></mask><path d="M105.5 8.5h104v33h-104v-33Z" fill="#F6F6F6"/><path d="M124.04 22.12a1.36 1.36 0 0 0-.59-1.02 2.25 2.25 0 0 0-1.33-.36c-.39 0-.72.06-1 .17-.27.12-.48.28-.62.48a1.15 1.15 0 0 0-.08 1.23c.1.16.23.29.4.4.17.1.36.2.56.27.2.07.42.13.62.18l.96.24c.38.09.75.2 1.1.36.36.15.69.35.97.58a2.52 2.52 0 0 1 .92 2 2.76 2.76 0 0 1-1.78 2.63 5.2 5.2 0 0 1-2.08.37 5.3 5.3 0 0 1-2.06-.36 3.07 3.07 0 0 1-1.37-1.08 3.2 3.2 0 0 1-.52-1.72h1.81a1.55 1.55 0 0 0 1.08 1.41c.31.12.66.18 1.04.18.4 0 .76-.06 1.06-.18.3-.12.54-.3.71-.5.18-.23.26-.48.27-.77a.97.97 0 0 0-.24-.66 1.72 1.72 0 0 0-.64-.44 6.2 6.2 0 0 0-.95-.32l-1.16-.3a4.66 4.66 0 0 1-1.99-.97 2.26 2.26 0 0 1-.72-1.76c0-.6.16-1.12.48-1.57.33-.45.78-.8 1.34-1.05a4.5 4.5 0 0 1 1.91-.38c.73 0 1.36.12 1.9.38.55.25.98.6 1.29 1.04.31.44.47.94.48 1.52h-1.77Zm8.34 4.17v-4.43h1.8v7.64h-1.74v-1.36h-.08a2.3 2.3 0 0 1-.85 1.05c-.4.27-.88.4-1.45.4-.5 0-.94-.1-1.32-.32a2.3 2.3 0 0 1-.9-.98 3.45 3.45 0 0 1-.32-1.56v-4.87h1.8v4.59c0 .48.13.87.4 1.15.26.29.6.43 1.04.43a1.67 1.67 0 0 0 1.38-.77c.16-.26.24-.58.24-.97Zm3.73 3.21V19.32h1.8v3.8h.08c.1-.18.22-.38.4-.59.16-.2.39-.39.68-.54a2.91 2.91 0 0 1 3.83 1.55c.28.59.42 1.3.42 2.15 0 .84-.13 1.55-.41 2.14a2.89 2.89 0 0 1-2.73 1.8c-.44 0-.8-.07-1.1-.21a2.2 2.2 0 0 1-.69-.53 3.3 3.3 0 0 1-.4-.6h-.1v1.21h-1.78Zm1.77-3.82c0 .5.07.93.2 1.3.15.37.35.66.62.87.27.2.6.3.97.3.4 0 .73-.1 1-.31.27-.22.47-.5.6-.88.15-.38.22-.8.22-1.28 0-.47-.07-.9-.2-1.26a1.9 1.9 0 0 0-.61-.87c-.27-.2-.6-.3-1-.3s-.72.1-.99.3c-.26.2-.47.48-.6.84-.14.37-.21.8-.21 1.3Zm6.97-3.82h1.8v8.08c0 .55-.1 1-.31 1.36-.21.36-.51.62-.9.8a3.52 3.52 0 0 1-1.63.26h-.18v-1.47a2.07 2.07 0 0 0 .26 0c.34 0 .59-.08.74-.25.15-.16.22-.4.22-.73v-8.05Zm.9-1.08c-.3 0-.54-.1-.74-.28a.92.92 0 0 1-.3-.7c0-.27.1-.5.3-.69.2-.19.45-.28.74-.28.28 0 .53.1.73.28.2.2.3.42.3.7 0 .26-.1.5-.3.69-.2.19-.45.28-.73.28Zm6.13 8.87c-.76 0-1.42-.16-1.98-.48a3.23 3.23 0 0 1-1.28-1.36 4.57 4.57 0 0 1-.44-2.08c0-.79.14-1.48.44-2.07a3.39 3.39 0 0 1 3.17-1.9c.47 0 .91.08 1.33.23a3 3 0 0 1 1.12.7c.32.31.57.71.76 1.2.19.49.28 1.06.28 1.73v.55h-6.26v-1.2h4.53c0-.35-.07-.66-.22-.93a1.62 1.62 0 0 0-.61-.64 1.72 1.72 0 0 0-.9-.23c-.37 0-.7.09-.98.26-.27.18-.5.41-.65.7a2 2 0 0 0-.23.94v1.06c0 .44.08.82.24 1.14.17.32.4.56.68.73.3.16.64.25 1.03.25.26 0 .5-.04.7-.11.22-.08.4-.19.56-.34.16-.14.28-.32.35-.54l1.69.2a2.7 2.7 0 0 1-1.75 1.92c-.46.18-.98.27-1.58.27Zm8.25 0a3.35 3.35 0 0 1-3.22-1.89c-.3-.6-.44-1.28-.44-2.05 0-.77.15-1.46.45-2.05.3-.6.72-1.06 1.26-1.4a3.7 3.7 0 0 1 1.94-.5c.62 0 1.17.12 1.65.35a2.81 2.81 0 0 1 1.63 2.4h-1.72a1.65 1.65 0 0 0-.5-.92 1.4 1.4 0 0 0-1.03-.37c-.37 0-.7.1-.97.3-.28.19-.5.47-.65.84-.16.37-.23.8-.23 1.32s.07.97.23 1.34c.15.38.36.66.64.86.28.2.6.3.98.3.26 0 .5-.05.7-.15.22-.1.4-.25.54-.44.14-.2.24-.43.3-.7h1.71a2.83 2.83 0 0 1-1.6 2.41c-.47.23-1.03.35-1.67.35Zm8.56-7.79v1.4h-4.38v-1.4h4.38Zm-3.3-1.83h1.8v7.17c0 .25.03.43.1.56a.6.6 0 0 0 .3.26c.13.04.26.07.41.07a1.75 1.75 0 0 0 .53-.07l.3 1.4a4.05 4.05 0 0 1-1.06.18c-.45.02-.85-.05-1.21-.2a1.9 1.9 0 0 1-.86-.7 2.1 2.1 0 0 1-.31-1.2v-7.47Z" fill="#333"/><g clip-path="url(#c)" fill="#F6F6F6"><path d="m177.5 25 4-4 4 4h-8Zm0 2 4 4 4-4h-8Z"/></g><path d="M209.5 40.5h-104v2h104v-2Z" fill="#F6F6F6" mask="url(#d)"/><mask id="e" fill="#fff"><path d="M209.5 8.5h164v33h-164v-33Z"/></mask><path d="M209.5 8.5h164v33h-164v-33Z" fill="#F6F6F6"/><path d="M228.04 22.12a1.36 1.36 0 0 0-.59-1.02 2.25 2.25 0 0 0-1.33-.36c-.39 0-.72.06-1 .17-.27.12-.48.28-.62.48a1.15 1.15 0 0 0-.08 1.23c.1.16.23.29.4.4.17.1.36.2.56.27.2.07.41.13.62.18l.96.24c.38.09.75.2 1.1.36.37.15.69.35.97.58a2.52 2.52 0 0 1 .93 2 2.76 2.76 0 0 1-1.79 2.63 5.2 5.2 0 0 1-2.08.37 5.3 5.3 0 0 1-2.06-.36 3.07 3.07 0 0 1-1.37-1.08 3.2 3.2 0 0 1-.52-1.72h1.81a1.55 1.55 0 0 0 1.08 1.41c.31.12.66.18 1.04.18.4 0 .76-.06 1.06-.18.3-.12.54-.3.71-.5.18-.23.26-.48.27-.77a.97.97 0 0 0-.24-.66 1.72 1.72 0 0 0-.64-.44 6.2 6.2 0 0 0-.95-.32l-1.16-.3a4.66 4.66 0 0 1-1.99-.97 2.26 2.26 0 0 1-.72-1.76c0-.6.16-1.12.48-1.57.33-.45.78-.8 1.34-1.05a4.5 4.5 0 0 1 1.91-.38c.73 0 1.36.12 1.9.38.55.25.98.6 1.29 1.04.31.44.47.94.48 1.52h-1.77Zm8.34 4.17v-4.43h1.8v7.64h-1.74v-1.36h-.08a2.3 2.3 0 0 1-.85 1.05c-.4.27-.88.4-1.45.4-.5 0-.94-.1-1.32-.32a2.3 2.3 0 0 1-.9-.98 3.45 3.45 0 0 1-.32-1.56v-4.87h1.8v4.59c0 .48.13.87.4 1.15.26.29.6.43 1.04.43a1.67 1.67 0 0 0 1.38-.77c.16-.26.24-.58.24-.97Zm3.73 3.21V19.32h1.8v3.8h.08c.1-.18.22-.38.4-.59.16-.2.39-.39.68-.54a2.91 2.91 0 0 1 3.83 1.55c.28.59.42 1.3.42 2.15 0 .84-.13 1.55-.41 2.14a2.89 2.89 0 0 1-2.73 1.8c-.44 0-.8-.07-1.1-.21a2.2 2.2 0 0 1-.69-.53 3.3 3.3 0 0 1-.4-.6h-.1v1.21h-1.78Zm1.77-3.82c0 .5.07.93.2 1.3.15.37.35.66.62.87.27.2.6.3.97.3.4 0 .73-.1 1-.31.27-.22.47-.5.6-.88.15-.38.22-.8.22-1.28 0-.47-.07-.9-.2-1.26a1.9 1.9 0 0 0-.61-.87c-.27-.2-.6-.3-1-.3s-.72.1-.99.3c-.26.2-.47.48-.6.84-.14.37-.21.8-.21 1.3Zm10.79-3.82v1.4h-4.4v-1.4h4.4Zm-3.31-1.83h1.8v7.17c0 .25.04.43.1.56.09.13.18.21.3.26.13.04.26.07.41.07a1.76 1.76 0 0 0 .53-.07l.3 1.4a4 4 0 0 1-1.05.18 2.8 2.8 0 0 1-1.22-.2 1.9 1.9 0 0 1-.86-.7 2.1 2.1 0 0 1-.31-1.2v-7.47Zm8.06 9.62a3.7 3.7 0 0 1-1.94-.5 3.35 3.35 0 0 1-1.27-1.37 4.53 4.53 0 0 1-.45-2.07c0-.79.15-1.48.45-2.07.3-.6.72-1.06 1.27-1.38a3.7 3.7 0 0 1 1.94-.5c.75 0 1.4.17 1.94.5.55.32.97.79 1.27 1.38.3.6.45 1.28.45 2.07 0 .79-.15 1.48-.45 2.07a3.3 3.3 0 0 1-1.27 1.38 3.7 3.7 0 0 1-1.94.49Zm.01-1.44c.4 0 .74-.11 1.01-.34a2 2 0 0 0 .61-.9c.14-.38.2-.8.2-1.26 0-.47-.06-.9-.2-1.27a2 2 0 0 0-.6-.91 1.54 1.54 0 0 0-1.02-.34c-.42 0-.76.11-1.03.34-.28.22-.48.53-.62.9a3.95 3.95 0 0 0 0 2.54c.14.38.34.68.62.9.27.23.62.34 1.03.34Zm5.18 4.15v-10.5h1.77v1.27h.1c.1-.19.22-.39.4-.6.16-.2.4-.39.68-.54a2.91 2.91 0 0 1 3.83 1.55c.28.59.42 1.3.42 2.15 0 .84-.13 1.55-.4 2.14a2.89 2.89 0 0 1-2.74 1.8c-.44 0-.8-.07-1.1-.21a2.22 2.22 0 0 1-.69-.53 3.3 3.3 0 0 1-.4-.6h-.07v4.07h-1.8Zm1.76-6.68c0 .5.07.93.21 1.3.14.37.35.66.61.87.27.2.6.3.98.3.4 0 .73-.1 1-.31.26-.22.47-.5.6-.88.14-.38.21-.8.21-1.28 0-.47-.07-.9-.2-1.26a1.9 1.9 0 0 0-.61-.87c-.27-.2-.6-.3-1-.3-.39 0-.72.1-.98.3-.27.2-.48.48-.62.84-.13.37-.2.8-.2 1.3Zm6.99 3.82v-7.64h1.8v7.64h-1.8Zm.9-8.72c-.28 0-.53-.1-.74-.28a.91.91 0 0 1-.3-.7c0-.27.1-.5.3-.69.21-.19.46-.28.74-.28.29 0 .54.1.74.28.2.2.3.42.3.7 0 .26-.1.5-.3.69-.2.19-.45.28-.74.28Zm6.08 8.87a3.35 3.35 0 0 1-3.22-1.89c-.3-.6-.44-1.28-.44-2.05 0-.77.15-1.46.45-2.05.3-.6.72-1.06 1.26-1.4a3.7 3.7 0 0 1 1.94-.5c.62 0 1.17.12 1.64.35a2.81 2.81 0 0 1 1.64 2.4h-1.72a1.65 1.65 0 0 0-.5-.92c-.26-.25-.6-.37-1.04-.37-.37 0-.69.1-.97.3-.27.19-.5.47-.65.84-.15.37-.23.8-.23 1.32s.08.97.23 1.34c.15.38.37.66.64.86.28.2.6.3.98.3.27 0 .5-.05.71-.15.22-.1.4-.25.54-.44.14-.2.24-.43.29-.7h1.72a2.83 2.83 0 0 1-1.6 2.41 3.8 3.8 0 0 1-1.67.35Zm10.78-5.77-1.64.18a1.33 1.33 0 0 0-.24-.47 1.21 1.21 0 0 0-.46-.35c-.2-.09-.43-.13-.7-.13-.38 0-.7.08-.95.24-.25.16-.38.37-.37.63 0 .22.07.4.24.54.17.14.45.26.84.35l1.3.27c.72.16 1.26.4 1.6.75.36.33.54.78.55 1.32 0 .48-.15.9-.43 1.28a2.7 2.7 0 0 1-1.15.85c-.48.2-1.05.3-1.69.3-.93 0-1.68-.19-2.25-.58-.57-.4-.91-.94-1.02-1.64l1.75-.17c.08.34.25.6.51.78.26.17.6.26 1.01.26.43 0 .77-.09 1.03-.26.26-.18.4-.4.4-.65a.7.7 0 0 0-.26-.54 1.76 1.76 0 0 0-.78-.33l-1.3-.28a3.1 3.1 0 0 1-1.63-.77 1.89 1.89 0 0 1-.52-1.38c0-.47.13-.88.39-1.22a2.5 2.5 0 0 1 1.08-.8 4.1 4.1 0 0 1 1.62-.3c.9 0 1.6.2 2.11.58.52.38.84.9.96 1.54Z" fill="#333"/><path d="M373.5 40.5h-164v2h164v-2Z" fill="#F6F6F6" mask="url(#e)"/><path fill="#fff" d="M8.5 41.5h283v40H8.5z"/><g filter="url(#f)"><path fill="#fff" d="M8.5 41.5h97v40h-97z"/><path d="M21.73 55.82h1.47l3.46 8.45h.12l3.46-8.45h1.48V66h-1.16v-7.74h-.1L27.28 66h-1.11l-3.18-7.74h-.1V66h-1.16V55.82Zm14.55 10.36c-.49 0-.93-.1-1.32-.27-.4-.19-.7-.46-.94-.8a2.26 2.26 0 0 1-.35-1.28c0-.44.09-.79.26-1.06.17-.28.4-.5.7-.65.28-.15.6-.27.95-.35.35-.08.7-.14 1.05-.18l1.13-.14c.3-.03.5-.09.64-.16.13-.08.2-.21.2-.4v-.04c0-.5-.13-.87-.4-1.14-.27-.28-.67-.41-1.2-.41-.57 0-1 .12-1.33.37-.31.24-.54.5-.67.78l-1.11-.4a2.67 2.67 0 0 1 1.89-1.63 4.54 4.54 0 0 1 2.02-.07c.32.06.63.18.93.36.3.18.55.45.75.8.2.37.3.85.3 1.46V66H38.6v-1.03h-.06a2.3 2.3 0 0 1-1.14 1.01c-.3.13-.68.2-1.12.2Zm.18-1.06c.46 0 .85-.09 1.17-.27a1.86 1.86 0 0 0 .97-1.61v-1.08c-.05.06-.16.12-.33.17a5.55 5.55 0 0 1-1.2.21l-.5.06c-.3.04-.59.1-.85.2-.26.08-.47.21-.64.39a1 1 0 0 0-.24.7c0 .41.16.72.46.93.3.2.69.3 1.16.3Zm8.78-6.76v1h-3.96v-1h3.96Zm-2.8-1.83h1.17v7.28c0 .33.05.58.14.75.1.16.23.27.38.33.16.05.32.08.5.08a2.07 2.07 0 0 0 .5-.06l.25 1.05a2.37 2.37 0 0 1-.88.14c-.33 0-.65-.07-.97-.21a1.94 1.94 0 0 1-.79-.66 1.9 1.9 0 0 1-.3-1.1v-7.6Zm5.9 4.88V66h-1.17V55.82h1.17v3.74h.1c.18-.4.45-.71.8-.94a2.6 2.6 0 0 1 1.45-.36c.52 0 .97.1 1.36.32.4.2.7.52.91.95.22.42.33.96.33 1.62V66h-1.17v-4.77a2 2 0 0 0-.47-1.41c-.31-.33-.75-.5-1.3-.5-.38 0-.73.08-1.03.24-.3.16-.54.4-.72.71-.17.31-.26.7-.26 1.14Zm12.21-5.6V66h-1.17V55.82h1.17Zm5.35 10.35a3.27 3.27 0 0 1-3.13-1.86 4.68 4.68 0 0 1-.43-2.06c0-.78.14-1.47.43-2.07a3.23 3.23 0 0 1 3.01-1.9c.4 0 .8.06 1.18.2a2.92 2.92 0 0 1 1.82 1.81 5 5 0 0 1 .28 1.8v.5h-5.88v-1.01h4.69c0-.44-.09-.82-.26-1.16a1.95 1.95 0 0 0-1.83-1.1c-.47 0-.87.12-1.21.36-.34.22-.6.52-.78.9-.18.36-.28.75-.28 1.17v.68c0 .58.1 1.07.3 1.47.2.4.48.7.84.9.36.21.78.32 1.25.32.3 0 .59-.05.84-.13.25-.1.46-.23.65-.4.18-.18.32-.4.42-.67l1.13.32c-.12.38-.32.72-.6 1.01-.28.3-.63.52-1.04.68-.42.16-.88.24-1.4.24Zm10.36-6.09-1.06.3a1.96 1.96 0 0 0-.3-.51 1.5 1.5 0 0 0-.5-.42c-.23-.1-.5-.16-.85-.16a2 2 0 0 0-1.17.32c-.3.21-.46.48-.46.81 0 .3.1.52.32.7.21.16.54.3 1 .42l1.13.27c.68.17 1.19.42 1.52.76.34.34.5.78.5 1.31 0 .44-.12.83-.37 1.18-.25.34-.6.61-1.05.81-.44.2-.96.3-1.56.3-.78 0-1.42-.17-1.93-.5a2.25 2.25 0 0 1-.97-1.49l1.11-.28c.1.41.3.72.6.93.3.2.7.3 1.17.3.55 0 .98-.11 1.3-.34.33-.24.5-.52.5-.85 0-.26-.1-.49-.29-.66a1.78 1.78 0 0 0-.85-.41l-1.27-.3a3.04 3.04 0 0 1-1.54-.77 1.87 1.87 0 0 1-.5-1.32c0-.43.13-.81.37-1.14.25-.33.58-.6 1-.78.42-.2.9-.29 1.44-.29.76 0 1.35.17 1.78.5.44.33.74.77.93 1.31Zm7.31 0-1.05.3a1.96 1.96 0 0 0-.3-.51c-.12-.17-.3-.3-.51-.42-.22-.1-.5-.16-.84-.16a2 2 0 0 0-1.17.32.94.94 0 0 0-.46.81c0 .3.1.52.31.7.22.16.55.3 1 .42l1.13.27c.68.17 1.2.42 1.53.76.33.34.5.78.5 1.31 0 .44-.13.83-.38 1.18-.25.34-.6.61-1.04.81-.45.2-.97.3-1.56.3-.78 0-1.43-.17-1.94-.5a2.25 2.25 0 0 1-.97-1.49l1.12-.28c.1.41.3.72.6.93.3.2.69.3 1.17.3.54 0 .98-.11 1.3-.34.32-.24.49-.52.49-.85a.9.9 0 0 0-.28-.66 1.78 1.78 0 0 0-.86-.41l-1.27-.3a3.04 3.04 0 0 1-1.54-.77 1.87 1.87 0 0 1-.49-1.32c0-.43.12-.81.37-1.14.24-.33.57-.6 1-.78.42-.2.9-.29 1.44-.29.75 0 1.35.17 1.78.5.43.33.74.77.92 1.31Zm5 6.09c-.68 0-1.29-.16-1.8-.5a3.34 3.34 0 0 1-1.22-1.37 4.66 4.66 0 0 1-.43-2.07c0-.8.14-1.49.43-2.08.3-.6.7-1.06 1.21-1.38.52-.33 1.13-.5 1.82-.5a3.3 3.3 0 0 1 3.02 1.87c.3.6.44 1.3.44 2.1 0 .78-.15 1.47-.44 2.06a3.3 3.3 0 0 1-1.21 1.38 3.3 3.3 0 0 1-1.81.49Zm0-1.05c.53 0 .96-.14 1.3-.4.34-.28.59-.63.75-1.07a4.1 4.1 0 0 0 0-2.85 2.4 2.4 0 0 0-.75-1.06 2 2 0 0 0-1.3-.41 2 2 0 0 0-1.28.4 2.4 2.4 0 0 0-.75 1.07 4.1 4.1 0 0 0-.25 1.43c0 .51.08.99.25 1.42.16.44.4.8.75 1.06.33.27.76.4 1.29.4ZM95 61.4V66h-1.17v-7.64h1.13v1.2h.1c.18-.4.45-.7.82-.94a2.5 2.5 0 0 1 1.41-.36c.52 0 .97.11 1.36.32.38.21.69.53.9.96.22.42.33.96.33 1.6V66H98.7v-4.77c0-.6-.15-1.07-.47-1.4-.3-.34-.73-.51-1.28-.51-.37 0-.7.08-1 .24-.3.16-.52.4-.7.71-.16.31-.25.7-.25 1.14Z" fill="#333"/></g><g filter="url(#g)"><path fill="#fff" d="M105.5 41.5h104v40h-104z"/><path d="M118.73 55.82h1.47l3.47 8.45h.11l3.46-8.45h1.48V66h-1.16v-7.74h-.1L124.28 66h-1.11l-3.18-7.74h-.1V66h-1.16V55.82Zm14.55 10.36c-.49 0-.93-.1-1.32-.27-.4-.19-.7-.46-.94-.8a2.26 2.26 0 0 1-.35-1.28c0-.44.09-.79.26-1.06.17-.28.4-.5.7-.65.28-.15.6-.27.94-.35.36-.08.7-.14 1.06-.18l1.13-.14c.3-.03.5-.09.64-.16.13-.08.2-.21.2-.4v-.04c0-.5-.13-.87-.4-1.14-.26-.28-.67-.41-1.2-.41a2.07 2.07 0 0 0-2 1.15l-1.11-.4a2.68 2.68 0 0 1 1.89-1.63 4.54 4.54 0 0 1 2.02-.07c.32.06.63.18.93.36.3.18.55.45.75.8.2.37.3.85.3 1.46V66h-1.18v-1.03h-.06a2.29 2.29 0 0 1-1.14 1.01c-.3.13-.68.2-1.12.2Zm.18-1.06c.46 0 .85-.09 1.17-.27a1.86 1.86 0 0 0 .97-1.61v-1.08a.71.71 0 0 1-.32.17 5.55 5.55 0 0 1-1.21.21l-.5.06c-.3.04-.59.1-.85.2-.26.08-.47.21-.64.39a1 1 0 0 0-.24.7c0 .41.16.72.46.93.3.2.69.3 1.16.3Zm8.78-6.76v1h-3.96v-1h3.96Zm-2.8-1.83h1.17v7.28c0 .33.05.58.14.75.1.16.23.27.38.33.16.05.32.08.5.08l.31-.02.2-.04.24 1.05a2.41 2.41 0 0 1-.88.14c-.33 0-.65-.07-.97-.21a1.94 1.94 0 0 1-.79-.66 1.9 1.9 0 0 1-.3-1.1v-7.6Zm5.9 4.88V66h-1.17V55.82h1.17v3.74h.1c.18-.4.45-.71.8-.94a2.6 2.6 0 0 1 1.45-.36c.52 0 .97.1 1.37.32.39.2.69.52.9.95.22.42.33.96.33 1.62V66h-1.17v-4.77a2 2 0 0 0-.47-1.41c-.31-.33-.75-.5-1.3-.5-.38 0-.73.08-1.03.24-.3.16-.54.4-.72.71-.17.31-.26.7-.26 1.14Z" fill="#333"/></g><g filter="url(#h)"><path fill="#fff" d="M209.5 41.5h164v40h-164z"/><path d="M230.93 59h-1.24a2.55 2.55 0 0 0-1.04-1.61 2.78 2.78 0 0 0-.85-.42 3.4 3.4 0 0 0-2.65.33c-.5.31-.89.77-1.18 1.38-.3.6-.44 1.35-.44 2.23 0 .88.14 1.62.44 2.23.3.6.69 1.07 1.18 1.38a3.4 3.4 0 0 0 2.65.33c.32-.1.6-.23.85-.42a2.61 2.61 0 0 0 1.04-1.61h1.24a3.8 3.8 0 0 1-2.65 3.1 4.57 4.57 0 0 1-3.77-.42 4.37 4.37 0 0 1-1.6-1.8 6.2 6.2 0 0 1-.57-2.8c0-1.06.19-2 .58-2.77a4.27 4.27 0 0 1 3.91-2.45c.51 0 1 .07 1.45.22a3.94 3.94 0 0 1 2.14 1.7c.24.41.41.88.5 1.4Zm4.93 7.16a3.2 3.2 0 0 1-1.81-.5 3.35 3.35 0 0 1-1.22-1.37 4.66 4.66 0 0 1-.43-2.07c0-.8.15-1.49.43-2.08a3.3 3.3 0 0 1 3.03-1.88 3.28 3.28 0 0 1 3.02 1.87c.3.6.44 1.3.44 2.1a4.6 4.6 0 0 1-.44 2.06 3.3 3.3 0 0 1-1.2 1.38 3.3 3.3 0 0 1-1.82.49Zm0-1.05c.52 0 .96-.14 1.3-.4.33-.28.58-.63.75-1.07.16-.43.24-.9.24-1.42 0-.5-.08-.98-.25-1.43a2.4 2.4 0 0 0-.75-1.06 2 2 0 0 0-1.29-.41 2 2 0 0 0-1.3.4c-.33.28-.58.63-.74 1.07a4.1 4.1 0 0 0-.25 1.43c0 .51.09.99.25 1.42.16.44.41.8.75 1.06.34.27.77.4 1.3.4Zm6.43-3.7V66h-1.18v-7.64h1.14v1.2h.1c.18-.4.45-.7.81-.94.37-.24.84-.36 1.41-.36.52 0 .97.11 1.36.32.39.21.69.53.9.96.22.42.33.96.33 1.6V66h-1.17v-4.77c0-.6-.16-1.07-.47-1.4a1.65 1.65 0 0 0-1.28-.51c-.38 0-.71.08-1 .24-.3.16-.53.4-.7.71-.17.31-.25.7-.25 1.14Zm10.21 4.75a3.27 3.27 0 0 1-3.13-1.86 4.68 4.68 0 0 1-.43-2.06c0-.78.15-1.47.43-2.07a3.23 3.23 0 0 1 3.01-1.9c.4 0 .8.06 1.18.2a2.92 2.92 0 0 1 1.82 1.81 5 5 0 0 1 .29 1.8v.5h-5.89v-1.01h4.7c0-.44-.1-.82-.27-1.16a1.95 1.95 0 0 0-1.83-1.1 2 2 0 0 0-1.2.36c-.35.22-.6.52-.79.9-.18.36-.27.75-.27 1.17v.68c0 .58.1 1.07.3 1.47.2.4.48.7.84.9a2.7 2.7 0 0 0 2.08.19c.25-.1.47-.23.65-.4.18-.18.32-.4.42-.67l1.14.32c-.12.38-.32.72-.6 1.01-.29.3-.63.52-1.05.68-.41.16-.88.24-1.4.24Zm10.36-6.09-1.05.3a1.95 1.95 0 0 0-.3-.51c-.12-.17-.3-.3-.51-.42-.22-.1-.5-.16-.85-.16a2 2 0 0 0-1.16.32c-.31.21-.47.48-.47.81 0 .3.11.52.32.7.22.16.55.3 1 .42l1.13.27c.68.17 1.2.42 1.53.76.33.34.5.78.5 1.31 0 .44-.13.83-.38 1.18-.25.34-.6.61-1.04.81-.45.2-.97.3-1.56.3-.78 0-1.43-.17-1.94-.5a2.25 2.25 0 0 1-.97-1.49l1.12-.28c.1.41.3.72.6.93.3.2.69.3 1.17.3.54 0 .98-.11 1.3-.34.32-.24.49-.52.49-.85a.9.9 0 0 0-.28-.66 1.78 1.78 0 0 0-.86-.41l-1.27-.3a3.03 3.03 0 0 1-1.54-.77 1.87 1.87 0 0 1-.49-1.32c0-.43.12-.81.36-1.14.25-.33.58-.6 1-.78.43-.2.9-.29 1.44-.29.76 0 1.35.17 1.79.5.43.33.74.77.92 1.31Z" fill="#333"/></g><path fill="#fff" d="M8.5 81.5h283v40H8.5z"/><g filter="url(#i)"><path fill="#fff" d="M8.5 81.5h97v40h-97z"/><path d="M21.73 106V95.82h6.15v1.1h-4.91v3.43h4.59v1.1h-4.6v3.46h5V106h-6.23Zm9.38-4.6v4.6h-1.17v-7.64h1.13v1.2h.1c.18-.4.45-.7.82-.94a2.5 2.5 0 0 1 1.41-.36c.52 0 .97.11 1.36.32.39.21.69.53.9.96.22.42.33.96.33 1.6V106H34.8v-4.77c0-.6-.15-1.07-.46-1.4a1.67 1.67 0 0 0-1.29-.51c-.37 0-.7.08-1 .24-.3.16-.52.4-.7.71-.16.31-.25.7-.25 1.14Zm10.1 7.62c-.56 0-1.05-.07-1.46-.22a3.1 3.1 0 0 1-1.66-1.3l.94-.67c.1.14.24.3.4.48.16.19.38.34.66.47.29.14.66.2 1.12.2a2.5 2.5 0 0 0 1.53-.44c.4-.3.6-.76.6-1.4v-1.55h-.1c-.08.14-.2.31-.37.52-.15.2-.38.38-.67.54-.3.15-.69.23-1.19.23a3.07 3.07 0 0 1-2.82-1.71 4.45 4.45 0 0 1-.42-2.03c0-.78.14-1.46.42-2.04a3.03 3.03 0 0 1 2.85-1.83c.5 0 .89.08 1.18.24.3.17.52.35.67.56l.37.5h.12v-1.2h1.13v7.85a2.7 2.7 0 0 1-.44 1.6c-.3.41-.7.72-1.2.9-.5.2-1.05.3-1.66.3Zm-.04-4.2c.47 0 .87-.1 1.2-.32.32-.21.57-.52.74-.93.17-.4.25-.88.25-1.45 0-.55-.08-1.03-.25-1.45a2.19 2.19 0 0 0-.73-1 1.98 1.98 0 0 0-1.2-.35 2 2 0 0 0-1.99 1.39c-.16.42-.24.9-.24 1.41 0 .53.08 1 .24 1.4.17.41.42.73.75.96.33.23.74.35 1.23.35Zm6.66-9V106h-1.17V95.82h1.18ZM49.98 106v-7.64h1.18V106h-1.18Zm.6-8.9a.83.83 0 0 1-.6-.24.75.75 0 0 1-.23-.56c0-.22.08-.41.24-.57a.83.83 0 0 1 .6-.23c.22 0 .41.08.58.23.16.16.25.35.25.57 0 .21-.09.4-.25.56a.82.82 0 0 1-.59.23Zm8.14 2.97-1.06.3a1.96 1.96 0 0 0-.3-.51 1.5 1.5 0 0 0-.5-.42c-.23-.1-.5-.16-.85-.16a2 2 0 0 0-1.17.32c-.3.21-.46.48-.46.81 0 .3.1.52.32.7.21.16.54.3 1 .42l1.13.27c.68.17 1.19.42 1.52.77.34.33.5.77.5 1.3 0 .44-.12.83-.37 1.17-.25.35-.6.62-1.05.82-.44.2-.97.3-1.56.3-.78 0-1.42-.17-1.93-.5a2.25 2.25 0 0 1-.97-1.49l1.11-.28c.1.41.3.72.6.93.3.2.7.3 1.17.3.55 0 .98-.11 1.3-.34.33-.24.5-.52.5-.85 0-.26-.1-.49-.29-.66a1.77 1.77 0 0 0-.85-.41l-1.27-.3a3.04 3.04 0 0 1-1.55-.77 1.86 1.86 0 0 1-.48-1.32c0-.43.12-.81.36-1.14.24-.33.58-.6 1-.78.42-.2.9-.29 1.44-.29.76 0 1.35.17 1.78.5.43.33.74.77.93 1.31Zm3.07 1.34V106h-1.17V95.82h1.17v3.74h.1c.18-.4.45-.71.8-.94a2.6 2.6 0 0 1 1.45-.36c.52 0 .98.1 1.37.32.39.2.7.52.9.95.23.42.34.96.34 1.62V106h-1.18v-4.77c0-.6-.15-1.08-.47-1.41a1.7 1.7 0 0 0-1.3-.5c-.38 0-.73.08-1.03.24-.3.16-.54.4-.72.71a2.3 2.3 0 0 0-.26 1.14ZM74 95.8V106h-1.17V95.82H74Zm5.35 10.35a3.27 3.27 0 0 1-3.13-1.86 4.68 4.68 0 0 1-.43-2.06c0-.78.15-1.47.43-2.07a3.23 3.23 0 0 1 3.01-1.9c.4 0 .8.06 1.18.2a2.92 2.92 0 0 1 1.82 1.81 5 5 0 0 1 .29 1.8v.5h-5.9v-1.02h4.7c0-.43-.08-.81-.26-1.15a1.95 1.95 0 0 0-1.83-1.1 2 2 0 0 0-1.2.36c-.35.22-.6.52-.79.9-.18.36-.27.75-.27 1.17v.68c0 .58.1 1.07.3 1.47.2.4.48.7.84.9.35.21.77.31 1.24.31.31 0 .59-.04.84-.12.25-.1.47-.23.65-.4.18-.18.32-.4.42-.67l1.14.32a2.5 2.5 0 0 1-.6 1.01c-.29.3-.63.52-1.05.68-.41.16-.88.24-1.4.24Zm10.36-6.09-1.05.3a1.95 1.95 0 0 0-.3-.51c-.12-.17-.3-.3-.51-.42-.22-.1-.5-.16-.84-.16a2 2 0 0 0-1.17.32c-.31.21-.47.48-.47.81 0 .3.11.52.32.7.21.16.55.3 1 .42l1.13.27c.68.17 1.2.42 1.53.77.33.33.5.77.5 1.3 0 .44-.13.83-.38 1.17-.25.35-.6.62-1.04.82-.45.2-.97.3-1.56.3-.78 0-1.43-.17-1.94-.5a2.25 2.25 0 0 1-.97-1.49l1.12-.28c.1.41.3.72.6.93.3.2.69.3 1.17.3.54 0 .98-.11 1.3-.34.32-.24.49-.52.49-.85a.9.9 0 0 0-.28-.66 1.77 1.77 0 0 0-.86-.41l-1.27-.3a3.04 3.04 0 0 1-1.54-.77 1.86 1.86 0 0 1-.49-1.32c0-.43.12-.81.36-1.14.25-.33.58-.6 1-.78.43-.2.9-.29 1.44-.29.76 0 1.35.17 1.78.5.44.33.75.77.93 1.31Zm7.31 0-1.05.3a1.96 1.96 0 0 0-.3-.51c-.12-.17-.3-.3-.51-.42-.22-.1-.5-.16-.84-.16a2 2 0 0 0-1.17.32c-.3.21-.46.48-.46.81 0 .3.1.52.32.7.2.16.54.3 1 .42l1.12.27c.69.17 1.2.42 1.53.77.34.33.5.77.5 1.3 0 .44-.12.83-.37 1.17-.25.35-.6.62-1.05.82-.45.2-.97.3-1.56.3-.78 0-1.42-.17-1.93-.5a2.25 2.25 0 0 1-.97-1.49l1.11-.28c.1.41.3.72.6.93.3.2.69.3 1.17.3.55 0 .98-.11 1.3-.34.33-.24.49-.52.49-.85a.9.9 0 0 0-.28-.66 1.77 1.77 0 0 0-.85-.41l-1.28-.3a3.04 3.04 0 0 1-1.54-.77 1.86 1.86 0 0 1-.48-1.32c0-.43.12-.81.36-1.14.24-.33.58-.6 1-.78.42-.2.9-.29 1.44-.29.76 0 1.35.17 1.78.5.43.33.74.77.92 1.31Zm5.01 6.09a3.2 3.2 0 0 1-1.81-.5A3.34 3.34 0 0 1 99 104.3a4.66 4.66 0 0 1-.43-2.07c0-.8.15-1.49.43-2.08a3.3 3.3 0 0 1 3.03-1.88 3.29 3.29 0 0 1 3.02 1.87c.3.6.44 1.3.44 2.1a4.5 4.5 0 0 1-.44 2.06 3.3 3.3 0 0 1-1.2 1.38 3.3 3.3 0 0 1-1.82.49Zm0-1.05c.53 0 .96-.14 1.3-.4.33-.28.58-.63.75-1.07a4.15 4.15 0 0 0 0-2.84 2.4 2.4 0 0 0-.76-1.07 2 2 0 0 0-1.29-.41 2 2 0 0 0-1.3.4 2.4 2.4 0 0 0-.74 1.08 4.1 4.1 0 0 0-.25 1.42c0 .51.09.99.25 1.42.16.44.41.8.75 1.06.34.27.77.4 1.3.4Zm6.43-3.7v4.6h-1.18v-7.64h1.14v1.2h.1c.17-.4.45-.7.81-.94.37-.24.84-.36 1.41-.36.52 0 .97.11 1.36.32.39.21.69.53.9.96.22.42.33.96.33 1.6V106h-1.17v-4.77c0-.6-.16-1.07-.47-1.4a1.65 1.65 0 0 0-1.28-.51c-.38 0-.71.08-1 .24-.3.16-.53.4-.7.71-.17.31-.25.7-.25 1.14Z" fill="#333"/></g><g filter="url(#j)"><path fill="#fff" d="M105.5 81.5h104v40h-104z"/><path d="M118.73 106V95.82h6.15v1.1h-4.91v3.43h4.59v1.1h-4.6v3.46h5V106h-6.23Zm9.38-4.6v4.6h-1.17v-7.64h1.13v1.2h.1c.18-.4.46-.7.82-.94a2.5 2.5 0 0 1 1.41-.36c.52 0 .97.11 1.36.32.39.21.69.53.9.96.22.42.33.96.33 1.6V106h-1.18v-4.77c0-.6-.15-1.07-.46-1.4a1.67 1.67 0 0 0-1.29-.51c-.37 0-.7.08-1 .24-.3.16-.52.4-.7.71-.16.31-.25.7-.25 1.14Zm10.1 7.62c-.56 0-1.05-.07-1.46-.22a3.1 3.1 0 0 1-1.66-1.3l.94-.67c.1.14.24.3.4.48.16.19.38.34.66.47.29.14.66.2 1.12.2a2.5 2.5 0 0 0 1.53-.44c.4-.3.6-.76.6-1.4v-1.55h-.1c-.09.14-.2.31-.37.52-.15.2-.38.38-.67.54-.3.15-.69.23-1.19.23a3.06 3.06 0 0 1-2.82-1.71 4.45 4.45 0 0 1-.42-2.03c0-.78.14-1.46.41-2.04a3.03 3.03 0 0 1 2.85-1.83c.5 0 .9.08 1.19.24.3.17.52.35.67.56.16.2.29.37.37.5h.12v-1.2h1.13v7.85c0 .66-.14 1.19-.44 1.6-.3.41-.7.72-1.2.9-.5.2-1.05.3-1.66.3Zm-.04-4.2c.47 0 .87-.1 1.2-.32.32-.21.57-.52.74-.93.17-.4.25-.88.25-1.45 0-.55-.08-1.03-.25-1.45a2.19 2.19 0 0 0-.73-1 1.98 1.98 0 0 0-1.2-.35 2 2 0 0 0-1.25.38 2.3 2.3 0 0 0-.74 1.01c-.16.42-.24.9-.24 1.41 0 .53.08 1 .24 1.4.17.41.42.73.75.96.33.23.74.35 1.23.35Zm6.67-9V106h-1.18V95.82h1.18Zm2.14 10.18v-7.64h1.18V106h-1.18Zm.6-8.9a.83.83 0 0 1-.6-.24.75.75 0 0 1-.23-.56c0-.22.08-.41.24-.57a.83.83 0 0 1 .6-.23c.22 0 .41.08.58.23.16.16.25.35.25.57 0 .21-.09.4-.25.56a.82.82 0 0 1-.59.23Zm8.13 2.97-1.05.3a1.95 1.95 0 0 0-.3-.51 1.5 1.5 0 0 0-.5-.42c-.23-.1-.5-.16-.85-.16a2 2 0 0 0-1.17.32c-.3.21-.46.48-.46.81 0 .3.1.52.32.7.21.16.54.3 1 .42l1.13.27c.68.17 1.19.42 1.52.77.34.33.5.77.5 1.3 0 .44-.12.83-.37 1.17-.25.35-.6.62-1.05.82-.44.2-.97.3-1.56.3-.78 0-1.42-.17-1.93-.5a2.25 2.25 0 0 1-.97-1.49l1.11-.28c.1.41.3.72.6.93.3.2.7.3 1.17.3.55 0 .98-.11 1.3-.34.33-.24.5-.52.5-.85 0-.26-.1-.49-.29-.66a1.77 1.77 0 0 0-.85-.41l-1.27-.3a3.04 3.04 0 0 1-1.55-.77 1.86 1.86 0 0 1-.48-1.32c0-.43.12-.81.36-1.14.25-.33.58-.6 1-.78.42-.2.9-.29 1.44-.29.76 0 1.35.17 1.78.5.44.33.74.77.93 1.31Zm3.08 1.34V106h-1.17V95.82h1.17v3.74h.1c.18-.4.45-.71.8-.94a2.6 2.6 0 0 1 1.45-.36c.52 0 .98.1 1.37.32.39.2.7.52.9.95.23.42.34.96.34 1.62V106h-1.18v-4.77a2 2 0 0 0-.47-1.41 1.7 1.7 0 0 0-1.3-.5c-.38 0-.73.08-1.03.24-.3.16-.54.4-.72.71a2.3 2.3 0 0 0-.26 1.14Z" fill="#333"/></g><g filter="url(#k)"><path fill="#fff" d="M209.5 81.5h164v40h-164z"/><path d="m224.58 106-2.78-10.18h1.25l2.13 8.3h.1l2.17-8.3h1.39l2.17 8.3h.1l2.12-8.3h1.26L231.7 106h-1.27l-2.25-8.11h-.08l-2.25 8.11h-1.27Zm13.67.16c-.69 0-1.29-.16-1.81-.5a3.34 3.34 0 0 1-1.21-1.37 4.65 4.65 0 0 1-.44-2.07c0-.8.15-1.49.44-2.08a3.27 3.27 0 0 1 3.02-1.88 3.3 3.3 0 0 1 3.02 1.87c.3.6.44 1.3.44 2.1 0 .78-.14 1.47-.43 2.06a3.3 3.3 0 0 1-1.22 1.38 3.3 3.3 0 0 1-1.8.49Zm0-1.05c.53 0 .96-.14 1.3-.4.33-.28.58-.63.75-1.07a4.15 4.15 0 0 0 0-2.84c-.17-.45-.42-.8-.75-1.07a2 2 0 0 0-1.3-.41 2 2 0 0 0-1.29.4 2.4 2.4 0 0 0-.75 1.08 4.1 4.1 0 0 0 0 2.84c.16.44.41.8.75 1.06.34.27.77.4 1.3.4Zm5.26.89v-7.64h1.13v1.16h.08c.14-.38.39-.69.75-.92.37-.24.78-.36 1.24-.36a13.07 13.07 0 0 1 .61.02v1.2a3.46 3.46 0 0 0-.71-.08c-.37 0-.7.08-1 .23a1.72 1.72 0 0 0-.93 1.56V106h-1.17Zm7.86.16a3 3 0 0 1-2.83-1.85c-.28-.6-.42-1.3-.42-2.1 0-.81.14-1.5.42-2.1a3.03 3.03 0 0 1 2.85-1.85c.5 0 .89.09 1.17.25.3.17.52.35.67.56.16.2.28.37.36.5h.1v-3.75h1.18V106h-1.14v-1.17h-.14c-.08.14-.2.31-.37.52-.15.21-.38.4-.68.57-.3.16-.68.24-1.17.24Zm.16-1.05c.47 0 .86-.13 1.19-.37.32-.25.57-.6.74-1.03.17-.44.25-.95.25-1.53 0-.57-.08-1.07-.25-1.5a1.96 1.96 0 0 0-1.94-1.37c-.5 0-.9.14-1.24.4-.33.24-.57.59-.74 1.02a4.1 4.1 0 0 0-.24 1.45c0 .54.08 1.04.25 1.48.16.44.41.8.74 1.06s.74.39 1.24.39Zm9.74.89V95.82h1.18v3.76h.1c.08-.14.2-.3.35-.51.16-.2.38-.4.67-.56.3-.16.69-.25 1.18-.25a3.03 3.03 0 0 1 2.85 1.85c.28.6.41 1.29.41 2.1 0 .8-.13 1.5-.4 2.1a3 3 0 0 1-2.83 1.85 2.18 2.18 0 0 1-1.86-.8 7.52 7.52 0 0 1-.37-.53h-.14V106h-1.14Zm1.16-3.82c0 .58.08 1.09.25 1.53.17.44.42.78.74 1.03.33.24.72.37 1.2.37.49 0 .9-.13 1.22-.4.33-.25.58-.6.75-1.05.17-.44.25-.94.25-1.48s-.08-1.02-.25-1.45a2.25 2.25 0 0 0-.74-1.03 1.96 1.96 0 0 0-1.24-.38 1.96 1.96 0 0 0-1.93 1.37 4 4 0 0 0-.25 1.5Zm12.2.7v-4.52h1.17V106h-1.18v-1.3h-.08a2.5 2.5 0 0 1-.83 1c-.38.27-.86.4-1.43.4-.48 0-.9-.1-1.28-.31a2.2 2.2 0 0 1-.87-.96 3.63 3.63 0 0 1-.32-1.61v-4.86h1.17v4.78c0 .55.16 1 .47 1.33.32.33.72.5 1.2.5a2 2 0 0 0 1.97-2.1Zm3.31 3.12v-7.64h1.18V106h-1.18Zm.6-8.9a.83.83 0 0 1-.59-.24.75.75 0 0 1-.24-.56c0-.22.08-.41.24-.57a.83.83 0 0 1 .6-.23c.22 0 .42.08.58.23.16.16.25.35.25.57 0 .21-.09.4-.25.56a.82.82 0 0 1-.59.23Zm3.9-1.28V106h-1.17V95.82h1.17Zm5.03 10.34a3 3 0 0 1-2.83-1.85c-.27-.6-.4-1.3-.4-2.1 0-.81.13-1.5.4-2.1a3.03 3.03 0 0 1 2.85-1.85 2.12 2.12 0 0 1 1.85.81l.36.5h.1v-3.75h1.17V106h-1.13v-1.17h-.14c-.09.14-.2.31-.37.52-.16.21-.38.4-.68.57-.3.16-.69.24-1.18.24Zm.16-1.05a2 2 0 0 0 1.2-.37c.32-.25.57-.6.74-1.03.17-.44.25-.95.25-1.53 0-.57-.08-1.07-.25-1.5a1.96 1.96 0 0 0-1.94-1.37c-.5 0-.9.14-1.24.4-.33.24-.58.59-.74 1.02a4.1 4.1 0 0 0-.25 1.45c0 .54.09 1.04.25 1.48.17.44.42.8.75 1.06s.74.39 1.23.39Zm5.66.89v-7.64h1.17V106h-1.17Zm.6-8.9a.83.83 0 0 1-.6-.24.75.75 0 0 1-.24-.56c0-.22.08-.41.24-.57a.83.83 0 0 1 .6-.23c.22 0 .42.08.58.23.16.16.25.35.25.57 0 .21-.09.4-.25.56a.82.82 0 0 1-.59.23Zm3.89 4.3v4.6h-1.17v-7.64h1.13v1.2h.1c.18-.4.45-.7.81-.94.37-.24.84-.36 1.42-.36.51 0 .97.11 1.36.32.38.21.68.53.9.96.22.42.32.96.32 1.6V106h-1.17v-4.77c0-.6-.16-1.07-.47-1.4a1.65 1.65 0 0 0-1.28-.51c-.38 0-.71.08-1 .24-.3.16-.53.4-.7.71-.16.31-.25.7-.25 1.14Zm10.1 7.62a4.2 4.2 0 0 1-1.46-.22 3.1 3.1 0 0 1-1.66-1.3l.93-.67c.1.14.24.3.4.48a2 2 0 0 0 .67.47c.29.14.66.2 1.12.2a2.5 2.5 0 0 0 1.52-.44c.4-.3.6-.76.6-1.4v-1.55h-.1c-.08.14-.2.31-.36.52-.16.2-.38.38-.68.54-.29.15-.68.23-1.18.23a3.06 3.06 0 0 1-2.82-1.71 4.45 4.45 0 0 1-.42-2.03c0-.78.14-1.46.41-2.04a3.03 3.03 0 0 1 2.85-1.83c.5 0 .9.08 1.18.24.3.17.52.35.68.56l.37.5h.12v-1.2h1.13v7.85c0 .66-.15 1.19-.45 1.6-.3.41-.69.72-1.2.9-.49.2-1.04.3-1.65.3Zm-.04-4.2c.47 0 .87-.1 1.2-.32.32-.21.56-.52.73-.93.17-.4.26-.88.26-1.45 0-.55-.09-1.03-.25-1.45a2.19 2.19 0 0 0-.74-1 1.98 1.98 0 0 0-1.2-.35 2 2 0 0 0-1.24.38 2.3 2.3 0 0 0-.75 1.01c-.16.42-.24.9-.24 1.41 0 .53.08 1 .25 1.4.17.41.42.73.75.96.33.23.74.35 1.23.35Z" fill="#333"/></g><path fill="#fff" d="M8.5 121.5h283v40H8.5z"/><g filter="url(#l)"><path fill="#fff" d="M8.5 121.5h97v40h-97z"/><path d="M27.3 138.36c-.06-.5-.3-.9-.72-1.17a2.79 2.79 0 0 0-1.57-.42c-.45 0-.84.08-1.18.22-.33.15-.6.35-.78.6a1.44 1.44 0 0 0-.09 1.57c.13.2.3.36.5.49.21.12.43.23.65.31l.63.2 1.03.27c.27.07.56.17.88.29.33.12.65.29.94.5.3.21.55.48.75.8a2.68 2.68 0 0 1-.14 2.71c-.28.44-.7.8-1.25 1.06s-1.21.39-2 .39c-.72 0-1.36-.12-1.89-.35a2.8 2.8 0 0 1-1.76-2.45h1.27c.03.38.16.7.39.95.22.25.51.43.86.56.35.12.73.18 1.13.18.48 0 .9-.08 1.27-.23.38-.16.67-.38.9-.65.21-.28.32-.6.32-.97 0-.34-.1-.62-.28-.83a2.07 2.07 0 0 0-.75-.52 7.7 7.7 0 0 0-1-.34l-1.25-.36a4.67 4.67 0 0 1-1.89-.98c-.46-.43-.7-.98-.7-1.67 0-.57.16-1.06.47-1.49.3-.43.73-.76 1.25-1a4.22 4.22 0 0 1 1.76-.35c.66 0 1.24.12 1.75.35.51.23.92.55 1.22.96.3.4.46.86.47 1.37H27.3Zm6.3 7.8a3.3 3.3 0 0 1-1.85-.5 3.3 3.3 0 0 1-1.19-1.4 4.73 4.73 0 0 1-.42-2.04c0-.77.15-1.46.43-2.05a3.23 3.23 0 0 1 3.01-1.9c.54 0 1.02.1 1.46.3a2.6 2.6 0 0 1 1.57 2.09h-1.18a1.78 1.78 0 0 0-1.83-1.33c-.45-.01-.85.1-1.2.35-.34.23-.6.56-.8 1a3.7 3.7 0 0 0-.28 1.5c0 .6.09 1.1.28 1.54.18.44.45.78.8 1.02.34.24.74.36 1.2.36.3 0 .59-.05.83-.15a1.7 1.7 0 0 0 1-1.18h1.18a2.72 2.72 0 0 1-1.52 2.08c-.43.2-.92.3-1.49.3Zm4.72-.16v-7.64h1.18V146h-1.18Zm.6-8.9a.83.83 0 0 1-.6-.24.75.75 0 0 1-.24-.57c0-.21.08-.4.25-.56a.83.83 0 0 1 .59-.23c.23 0 .42.08.59.23.16.16.24.35.24.56a.82.82 0 0 1-.84.8Zm5.93 9.06a3.27 3.27 0 0 1-3.13-1.86 4.68 4.68 0 0 1-.43-2.06c0-.78.14-1.47.42-2.07.3-.6.7-1.06 1.2-1.4a3.6 3.6 0 0 1 2.99-.3 2.93 2.93 0 0 1 1.82 1.81 5 5 0 0 1 .29 1.8v.5h-5.89v-1.02h4.7c0-.43-.1-.81-.26-1.15a1.94 1.94 0 0 0-1.83-1.1c-.47 0-.88.12-1.22.36-.33.23-.6.52-.78.9-.18.36-.27.75-.27 1.17v.68c0 .58.1 1.07.3 1.47.2.4.48.7.84.9.36.21.77.31 1.25.31.3 0 .58-.04.83-.12.25-.1.47-.23.65-.4.18-.18.33-.4.43-.67l1.13.32a2.5 2.5 0 0 1-.6 1.01c-.28.3-.63.52-1.05.68-.41.16-.88.24-1.4.24Zm6.12-4.75V146h-1.18v-7.64h1.14v1.2h.1c.17-.4.45-.7.81-.94.37-.24.84-.36 1.41-.36.52 0 .97.11 1.36.32.39.21.69.53.9.96.22.42.33.96.33 1.6V146h-1.18v-4.77c0-.6-.15-1.07-.46-1.4a1.66 1.66 0 0 0-1.29-.51c-.37 0-.7.08-1 .24-.3.16-.52.4-.7.71-.16.31-.24.7-.24 1.14Zm10.11 4.75a3.3 3.3 0 0 1-1.85-.5 3.3 3.3 0 0 1-1.19-1.4 4.73 4.73 0 0 1-.42-2.04c0-.77.15-1.46.43-2.05a3.23 3.23 0 0 1 3.01-1.9c.54 0 1.03.1 1.46.3a2.6 2.6 0 0 1 1.57 2.09H62.9a1.78 1.78 0 0 0-1.83-1.33c-.45-.01-.85.1-1.2.35-.34.23-.6.56-.8 1a3.7 3.7 0 0 0-.28 1.5c0 .6.09 1.1.28 1.54.18.44.45.78.8 1.02.34.24.74.36 1.2.36.3 0 .59-.05.83-.15a1.71 1.71 0 0 0 1-1.18h1.18a2.73 2.73 0 0 1-1.52 2.08c-.43.2-.92.3-1.49.3Zm7.92 0a3.27 3.27 0 0 1-3.13-1.86 4.68 4.68 0 0 1-.43-2.06c0-.78.15-1.47.43-2.07a3.23 3.23 0 0 1 3.01-1.9c.4 0 .8.06 1.18.2a2.93 2.93 0 0 1 1.82 1.81 5 5 0 0 1 .29 1.8v.5h-5.89v-1.02h4.7c0-.43-.1-.81-.27-1.15a1.94 1.94 0 0 0-1.83-1.1 2.22 2.22 0 0 0-1.99 1.26c-.18.36-.27.75-.27 1.17v.68c0 .58.1 1.07.3 1.47.2.4.48.7.84.9.35.21.77.31 1.24.31.31 0 .6-.04.84-.12.25-.1.47-.23.65-.4.18-.18.32-.4.42-.67l1.14.32a2.5 2.5 0 0 1-.6 1.01c-.29.3-.63.52-1.05.68-.41.16-.88.24-1.4.24Zm10.06-10.34V146H77.9v-10.18h1.17Zm5.35 10.34a3.27 3.27 0 0 1-3.13-1.86 4.68 4.68 0 0 1-.43-2.06c0-.78.15-1.47.43-2.07a3.23 3.23 0 0 1 3.01-1.9c.4 0 .8.06 1.18.2a2.93 2.93 0 0 1 1.82 1.81 5 5 0 0 1 .28 1.8v.5H81.7v-1.02h4.7c0-.43-.1-.81-.27-1.15a1.94 1.94 0 0 0-1.83-1.1 2.2 2.2 0 0 0-1.99 1.26c-.18.36-.27.75-.27 1.17v.68c0 .58.1 1.07.3 1.47.2.4.48.7.83.9.36.21.78.31 1.25.31.31 0 .59-.04.84-.12.25-.1.47-.23.65-.4.18-.18.32-.4.42-.67l1.13.32a2.5 2.5 0 0 1-.6 1.01c-.28.3-.63.52-1.04.68-.42.16-.88.24-1.4.24Zm10.36-6.09-1.06.3a1.96 1.96 0 0 0-.29-.51c-.13-.17-.3-.3-.52-.42-.22-.1-.5-.16-.84-.16a2 2 0 0 0-1.16.32c-.31.21-.47.48-.47.81 0 .3.1.52.32.7.21.16.54.3 1 .42l1.13.27c.68.17 1.19.42 1.53.76.33.34.5.78.5 1.31 0 .44-.13.83-.38 1.17-.25.35-.6.62-1.04.82-.45.2-.97.3-1.57.3a3.5 3.5 0 0 1-1.93-.5 2.25 2.25 0 0 1-.97-1.49l1.11-.28c.11.41.31.72.6.93.3.2.7.3 1.17.3.55 0 .99-.11 1.3-.34.33-.24.5-.52.5-.85a.9.9 0 0 0-.28-.66 1.77 1.77 0 0 0-.86-.41l-1.27-.3a3.04 3.04 0 0 1-1.54-.77 1.86 1.86 0 0 1-.49-1.32c0-.43.12-.81.36-1.14.25-.33.58-.6 1-.78.43-.2.9-.29 1.44-.29.76 0 1.35.17 1.78.5.44.33.75.77.93 1.31Zm7.31 0-1.05.3a1.96 1.96 0 0 0-.3-.51c-.12-.17-.3-.3-.51-.42-.22-.1-.5-.16-.84-.16a2 2 0 0 0-1.17.32c-.3.21-.46.48-.46.81 0 .3.1.52.32.7.2.16.54.3.99.42l1.13.27c.69.17 1.2.42 1.53.76.33.34.5.78.5 1.31 0 .44-.12.83-.38 1.17-.25.35-.6.62-1.04.82-.45.2-.97.3-1.56.3-.78 0-1.42-.17-1.94-.5a2.25 2.25 0 0 1-.96-1.49l1.1-.28c.12.41.32.72.61.93.3.2.69.3 1.17.3.55 0 .98-.11 1.3-.34.33-.24.49-.52.49-.85a.9.9 0 0 0-.28-.66 1.76 1.76 0 0 0-.85-.41l-1.28-.3a3.04 3.04 0 0 1-1.54-.77 1.86 1.86 0 0 1-.49-1.32c0-.43.13-.81.37-1.14.24-.33.58-.6 1-.78.42-.2.9-.29 1.44-.29.75 0 1.35.17 1.78.5.43.33.74.77.92 1.31Zm5.01 6.09a3.2 3.2 0 0 1-1.81-.5 3.35 3.35 0 0 1-1.22-1.37 4.66 4.66 0 0 1-.43-2.07c0-.8.14-1.49.43-2.08a3.3 3.3 0 0 1 3.03-1.88 3.28 3.28 0 0 1 3.02 1.88c.3.6.44 1.29.44 2.08s-.14 1.48-.44 2.07a3.3 3.3 0 0 1-1.21 1.38 3.3 3.3 0 0 1-1.81.49Zm0-1.06c.52 0 .95-.13 1.3-.4.33-.27.58-.62.74-1.06a4.1 4.1 0 0 0 0-2.85c-.16-.44-.4-.8-.75-1.06a2 2 0 0 0-1.29-.41 2 2 0 0 0-1.3.4 2.4 2.4 0 0 0-.74 1.07c-.17.45-.25.92-.25 1.43 0 .51.08.99.25 1.42.16.44.41.8.75 1.06a2 2 0 0 0 1.29.4Zm6.42-3.7v4.6h-1.17v-7.64h1.13v1.2h.1c.18-.4.46-.7.82-.94a2.5 2.5 0 0 1 1.41-.36c.52 0 .97.11 1.36.32.39.21.69.53.9.96.22.42.33.96.33 1.6V146h-1.18v-4.77c0-.6-.15-1.07-.46-1.4a1.66 1.66 0 0 0-1.29-.51c-.37 0-.7.08-1 .24-.3.16-.52.4-.7.71-.16.31-.25.7-.25 1.14Z" fill="#333"/></g><g filter="url(#m)"><path fill="#fff" d="M105.5 121.5h104v40h-104z"/><path d="M124.3 138.36c-.06-.5-.3-.9-.72-1.17a2.79 2.79 0 0 0-1.57-.42c-.45 0-.84.08-1.18.22-.33.15-.6.35-.78.6a1.44 1.44 0 0 0-.09 1.57c.13.2.3.36.5.49.21.12.43.23.65.31l.63.2 1.03.27c.27.07.56.17.89.29a4 4 0 0 1 .93.5c.3.21.55.48.75.8a2.68 2.68 0 0 1-.14 2.71c-.28.44-.7.8-1.25 1.06s-1.21.39-2 .39c-.73 0-1.36-.12-1.89-.35a2.8 2.8 0 0 1-1.77-2.45h1.28c.03.38.16.7.39.95s.51.43.86.56a3.5 3.5 0 0 0 2.4-.05c.38-.16.67-.38.9-.65.21-.28.32-.6.32-.97 0-.34-.1-.62-.28-.83a2.08 2.08 0 0 0-.75-.52 6.5 6.5 0 0 0-1-.34l-1.25-.36a4.68 4.68 0 0 1-1.89-.98c-.46-.43-.7-.98-.7-1.67 0-.57.16-1.06.47-1.49.3-.43.72-.76 1.25-1a4.22 4.22 0 0 1 1.76-.35c.66 0 1.24.12 1.75.35.51.23.92.55 1.22.96.3.4.46.86.47 1.37h-1.19Zm6.3 7.8a3.3 3.3 0 0 1-1.85-.5 3.46 3.46 0 0 1-1.19-1.4 4.74 4.74 0 0 1-.42-2.04c0-.77.15-1.46.43-2.05a3.23 3.23 0 0 1 3.01-1.9c.54 0 1.02.1 1.46.3a2.61 2.61 0 0 1 1.57 2.09h-1.18a1.78 1.78 0 0 0-1.83-1.33 1.9 1.9 0 0 0-1.2.35c-.34.23-.6.56-.8 1a3.7 3.7 0 0 0-.28 1.5c0 .6.09 1.1.28 1.54.18.44.45.78.8 1.02.34.24.74.36 1.2.36.3 0 .59-.05.83-.15a1.71 1.71 0 0 0 1-1.18h1.18a2.74 2.74 0 0 1-1.53 2.08c-.42.2-.91.3-1.48.3Zm4.72-.16v-7.64h1.18V146h-1.18Zm.6-8.9a.83.83 0 0 1-.6-.24.75.75 0 0 1-.24-.57c0-.21.08-.4.25-.56a.83.83 0 0 1 .59-.23c.23 0 .42.08.59.23a.77.77 0 0 1-.01 1.13.82.82 0 0 1-.58.23Zm5.93 9.06a3.27 3.27 0 0 1-3.13-1.86 4.68 4.68 0 0 1-.43-2.06c0-.78.14-1.47.42-2.07.3-.6.7-1.06 1.2-1.4a3.61 3.61 0 0 1 2.99-.3 2.93 2.93 0 0 1 1.82 1.81 5 5 0 0 1 .29 1.8v.5h-5.89v-1.02h4.7c0-.43-.1-.81-.26-1.15a1.94 1.94 0 0 0-1.83-1.1c-.47 0-.88.12-1.22.36-.33.23-.6.52-.78.9-.18.36-.27.75-.27 1.17v.68c0 .58.1 1.07.3 1.47.2.4.48.7.84.9.36.21.77.31 1.25.31.3 0 .58-.04.83-.12a1.7 1.7 0 0 0 1.07-1.07l1.14.32a2.5 2.5 0 0 1-.6 1.01c-.28.3-.63.52-1.05.68-.41.16-.88.24-1.4.24Zm6.12-4.75V146h-1.18v-7.64h1.14v1.2h.1c.18-.4.45-.7.81-.94.37-.24.84-.36 1.41-.36.52 0 .97.11 1.36.32.39.21.69.53.9.96.22.42.33.96.33 1.6V146h-1.18v-4.77c0-.6-.15-1.07-.46-1.4a1.65 1.65 0 0 0-1.28-.51c-.38 0-.71.08-1 .24-.3.16-.53.4-.7.71-.17.31-.25.7-.25 1.14Zm10.11 4.75a3.3 3.3 0 0 1-1.84-.5 3.3 3.3 0 0 1-1.2-1.4 4.72 4.72 0 0 1-.42-2.04c0-.77.15-1.46.43-2.05a3.23 3.23 0 0 1 3.01-1.9c.54 0 1.03.1 1.46.3a2.6 2.6 0 0 1 1.57 2.09h-1.18a1.78 1.78 0 0 0-1.83-1.33c-.45-.01-.85.1-1.2.35-.34.23-.6.56-.8 1a3.7 3.7 0 0 0-.28 1.5c0 .6.09 1.1.28 1.54.18.44.45.78.8 1.02.34.24.74.36 1.2.36.3 0 .59-.05.83-.15a1.71 1.71 0 0 0 1-1.18h1.18a2.72 2.72 0 0 1-1.52 2.08c-.43.2-.92.3-1.49.3Zm7.92 0a3.27 3.27 0 0 1-3.13-1.86 4.68 4.68 0 0 1-.43-2.06c0-.78.15-1.47.43-2.07a3.23 3.23 0 0 1 3.01-1.9c.4 0 .8.06 1.18.2a2.93 2.93 0 0 1 1.82 1.81 5 5 0 0 1 .29 1.8v.5h-5.89v-1.02h4.7c0-.43-.1-.81-.27-1.15a1.94 1.94 0 0 0-1.83-1.1 2.22 2.22 0 0 0-1.99 1.26c-.18.36-.27.75-.27 1.17v.68c0 .58.1 1.07.3 1.47.2.4.48.7.84.9.35.21.77.31 1.24.31.31 0 .6-.04.84-.12.25-.1.47-.23.65-.4.18-.18.32-.4.42-.67l1.14.32c-.12.39-.32.72-.6 1.01-.29.3-.63.52-1.05.68-.41.16-.88.24-1.4.24Z" fill="#333"/></g><g filter="url(#n)"><path fill="#fff" d="M209.5 121.5h164v40h-164z"/><path d="M230.93 139h-1.24a2.56 2.56 0 0 0-1.04-1.61 2.77 2.77 0 0 0-.85-.42 3.39 3.39 0 0 0-2.65.33c-.5.31-.89.77-1.18 1.38-.3.6-.44 1.35-.44 2.23 0 .88.14 1.63.44 2.23.3.6.69 1.07 1.18 1.38.5.31 1.06.47 1.68.47.34 0 .66-.05.97-.14.32-.1.6-.23.85-.42a2.62 2.62 0 0 0 1.04-1.61h1.24c-.1.52-.27.98-.51 1.4a3.8 3.8 0 0 1-2.14 1.7c-.45.15-.94.22-1.45.22-.87 0-1.64-.21-2.32-.64a4.37 4.37 0 0 1-1.6-1.8 6.2 6.2 0 0 1-.57-2.8c0-1.06.19-2 .58-2.78a4.27 4.27 0 0 1 3.91-2.45c.51 0 1 .08 1.45.23a3.95 3.95 0 0 1 2.14 1.7c.24.41.41.88.5 1.4Zm3 2.4v4.6h-1.17v-10.18h1.17v3.74h.1c.18-.4.45-.71.8-.94a2.6 2.6 0 0 1 1.45-.36c.52 0 .97.1 1.37.32.39.2.7.52.9.95.22.42.33.96.33 1.62V146h-1.17v-4.77a2 2 0 0 0-.47-1.41c-.31-.33-.75-.5-1.3-.5-.38 0-.73.08-1.03.24-.3.16-.54.4-.72.71-.17.31-.26.7-.26 1.14Zm10.3 4.76a3.6 3.6 0 0 1-1.9-.49 3.28 3.28 0 0 1-1.23-1.37 4.68 4.68 0 0 1-.43-2.06c0-.78.15-1.47.43-2.07a3.23 3.23 0 0 1 3.01-1.9c.4 0 .8.06 1.18.2a2.93 2.93 0 0 1 1.82 1.81 5 5 0 0 1 .28 1.8v.5h-5.88v-1.02h4.7c0-.43-.1-.81-.27-1.15a1.94 1.94 0 0 0-1.83-1.1 2.2 2.2 0 0 0-1.99 1.26c-.18.36-.27.75-.27 1.17v.68c0 .58.1 1.07.3 1.47.2.4.48.7.84.9.35.21.77.31 1.24.31.31 0 .59-.04.84-.12.25-.1.47-.23.65-.4.18-.18.32-.4.42-.67l1.14.32a2.5 2.5 0 0 1-.6 1.01c-.29.3-.64.52-1.05.68-.41.16-.88.24-1.4.24Zm4.95-.16v-7.64h1.13v1.2h.1c.16-.41.42-.73.77-.95.36-.23.78-.35 1.28-.35s.92.12 1.26.35c.34.22.6.54.79.95h.08c.2-.4.49-.71.88-.94.39-.24.86-.36 1.4-.36.69 0 1.25.22 1.68.65.44.42.65 1.08.65 1.98V146h-1.17v-5.11c0-.56-.15-.97-.46-1.2a1.7 1.7 0 0 0-1.1-.37c-.53 0-.95.16-1.24.49-.3.32-.44.72-.44 1.22V146h-1.2v-5.23c0-.43-.14-.78-.42-1.05a1.5 1.5 0 0 0-1.09-.4c-.3 0-.59.08-.85.24-.26.16-.48.39-.64.68a2 2 0 0 0-.24.99V146h-1.17Zm12.17 0v-7.64h1.17V146h-1.17Zm.6-8.9a.83.83 0 0 1-.6-.24.75.75 0 0 1-.24-.57c0-.21.08-.4.24-.56a.83.83 0 0 1 .6-.23c.22 0 .42.08.58.23.17.16.25.35.25.56 0 .22-.08.41-.25.57a.82.82 0 0 1-.59.23Zm5.82 9.06a3.3 3.3 0 0 1-1.85-.5 3.49 3.49 0 0 1-1.2-1.4 4.74 4.74 0 0 1-.4-2.04c0-.77.13-1.46.42-2.05a3.23 3.23 0 0 1 3.01-1.9c.54 0 1.02.1 1.45.3a2.61 2.61 0 0 1 1.57 2.09h-1.17a1.78 1.78 0 0 0-1.83-1.33 1.9 1.9 0 0 0-1.2.35c-.34.23-.6.56-.8 1a3.7 3.7 0 0 0-.28 1.5 4 4 0 0 0 .27 1.54c.2.44.46.78.8 1.02s.75.36 1.21.36c.3 0 .58-.05.83-.15a1.7 1.7 0 0 0 1-1.18h1.17a2.73 2.73 0 0 1-1.52 2.08c-.42.2-.92.3-1.48.3Zm6.97.02c-.49 0-.93-.1-1.32-.27-.4-.19-.7-.46-.94-.8a2.26 2.26 0 0 1-.35-1.28c0-.44.09-.79.26-1.06.17-.28.4-.5.7-.65.28-.15.6-.27.95-.35.35-.08.7-.14 1.06-.19a52 52 0 0 1 1.12-.13c.3-.03.5-.09.64-.16.14-.08.2-.21.2-.4v-.04c0-.5-.13-.87-.4-1.14-.26-.28-.67-.41-1.2-.41a2.07 2.07 0 0 0-2 1.15l-1.1-.4a2.68 2.68 0 0 1 1.88-1.63 4.55 4.55 0 0 1 2.02-.07c.32.06.63.18.93.36.3.18.55.45.75.8.2.37.3.85.3 1.46V146h-1.18v-1.03H277a2.28 2.28 0 0 1-1.14 1.01c-.3.13-.68.2-1.12.2Zm.18-1.06c.46 0 .85-.09 1.17-.27a1.86 1.86 0 0 0 .97-1.61v-1.08a.71.71 0 0 1-.32.17l-.58.12a30.87 30.87 0 0 1-1.13.15c-.3.04-.58.1-.85.2-.26.08-.47.21-.64.39a1 1 0 0 0-.24.7c0 .41.16.72.46.93.3.2.69.3 1.16.3Zm6.63-9.3V146h-1.17v-10.18h1.17Zm9.2 10.34a3.3 3.3 0 0 1-1.86-.5 3.3 3.3 0 0 1-1.2-1.4 4.74 4.74 0 0 1-.41-2.04c0-.77.14-1.46.43-2.05a3.23 3.23 0 0 1 3.01-1.9c.54 0 1.02.1 1.45.3a2.6 2.6 0 0 1 1.57 2.09h-1.17a1.78 1.78 0 0 0-1.83-1.33 1.9 1.9 0 0 0-1.2.35c-.34.23-.61.56-.8 1a3.7 3.7 0 0 0-.29 1.5c0 .6.1 1.1.28 1.54.2.44.46.78.8 1.02s.75.36 1.21.36c.3 0 .58-.05.83-.15a1.71 1.71 0 0 0 1-1.18h1.17a2.72 2.72 0 0 1-1.52 2.08c-.42.2-.92.3-1.48.3Zm7.81 0a3.2 3.2 0 0 1-1.81-.5 3.34 3.34 0 0 1-1.22-1.37 4.66 4.66 0 0 1-.43-2.07c0-.8.14-1.49.43-2.08a3.3 3.3 0 0 1 3.03-1.88 3.28 3.28 0 0 1 3.02 1.88c.3.6.44 1.29.44 2.08s-.14 1.48-.44 2.07a3.3 3.3 0 0 1-1.2 1.38 3.3 3.3 0 0 1-1.82.49Zm0-1.06c.52 0 .95-.13 1.3-.4.33-.27.58-.62.74-1.06a4.08 4.08 0 0 0 0-2.85 2.4 2.4 0 0 0-.75-1.06 2 2 0 0 0-1.29-.41 2 2 0 0 0-1.3.4 2.4 2.4 0 0 0-.74 1.07 4.21 4.21 0 0 0 0 2.85c.16.44.41.8.75 1.06.34.27.77.4 1.3.4Zm5.25.9v-7.64h1.14v1.2h.1c.15-.41.41-.73.77-.95a2.3 2.3 0 0 1 1.27-.35c.5 0 .93.12 1.26.35.34.22.6.54.8.95h.07c.2-.4.49-.71.88-.94.4-.24.86-.36 1.4-.36.7 0 1.25.22 1.68.65.44.42.65 1.08.65 1.98V146h-1.17v-5.11c0-.56-.15-.97-.46-1.2-.3-.25-.67-.37-1.09-.37-.54 0-.95.16-1.25.49-.3.32-.44.72-.44 1.22V146h-1.2v-5.23c0-.43-.13-.78-.42-1.05a1.5 1.5 0 0 0-1.08-.4c-.3 0-.6.08-.86.24a1.9 1.9 0 0 0-.64.68 2 2 0 0 0-.24.99V146h-1.17Zm12.17 2.86v-10.5h1.13v1.22h.14l.36-.51c.16-.2.38-.4.67-.56.29-.16.68-.25 1.18-.25a3.04 3.04 0 0 1 2.85 1.85c.27.6.41 1.29.41 2.1 0 .8-.14 1.5-.41 2.1a3 3 0 0 1-2.83 1.85 2.18 2.18 0 0 1-1.86-.8 7.52 7.52 0 0 1-.37-.53h-.1v4.03h-1.17Zm1.15-6.68c0 .58.09 1.09.26 1.53.17.44.41.78.74 1.03.32.24.72.36 1.2.36s.9-.12 1.22-.38c.33-.26.58-.62.75-1.06a4.33 4.33 0 0 0 0-2.93 2.25 2.25 0 0 0-.74-1.03 1.96 1.96 0 0 0-1.24-.38 1.96 1.96 0 0 0-1.94 1.37 4.2 4.2 0 0 0-.25 1.5Zm10.48 3.98a3.2 3.2 0 0 1-1.81-.5 3.34 3.34 0 0 1-1.21-1.37 4.66 4.66 0 0 1-.44-2.07c0-.8.15-1.49.44-2.08.29-.6.7-1.05 1.2-1.38.53-.33 1.13-.5 1.82-.5a3.3 3.3 0 0 1 3.02 1.87c.3.6.44 1.3.44 2.1 0 .78-.14 1.47-.43 2.06-.3.59-.7 1.05-1.22 1.38a3.3 3.3 0 0 1-1.8.49Zm0-1.06c.53 0 .96-.13 1.3-.4.33-.27.58-.62.75-1.06a4.25 4.25 0 0 0 0-2.85 2.4 2.4 0 0 0-.75-1.06 2 2 0 0 0-1.3-.41 2 2 0 0 0-1.29.4c-.34.28-.59.63-.75 1.07a4.1 4.1 0 0 0-.24 1.43c0 .51.08.99.24 1.42.16.44.41.8.75 1.06.34.27.77.4 1.3.4Zm10.07-2.22v-4.52h1.17V146h-1.17v-1.3h-.08a2.4 2.4 0 0 1-2.27 1.4c-.48 0-.9-.1-1.27-.31a2.2 2.2 0 0 1-.88-.96 3.63 3.63 0 0 1-.31-1.61v-4.86h1.17v4.78c0 .55.15 1 .47 1.33.31.33.71.5 1.2.5a2 2 0 0 0 1.97-2.1Zm4.5-1.47V146H341v-7.64h1.13v1.2h.1c.18-.4.45-.7.82-.94a2.5 2.5 0 0 1 1.41-.36c.52 0 .97.11 1.36.32.38.21.69.53.9.96.22.42.32.96.32 1.6V146h-1.17v-4.77c0-.6-.15-1.07-.47-1.4-.3-.34-.73-.51-1.28-.51-.37 0-.7.08-1 .24-.3.16-.52.4-.7.71-.16.31-.25.7-.25 1.14Zm9.9 4.75a3 3 0 0 1-2.84-1.85c-.27-.6-.4-1.3-.4-2.1 0-.81.13-1.5.4-2.1a3.04 3.04 0 0 1 2.85-1.85c.5 0 .9.09 1.18.25.3.17.52.35.67.56l.36.5h.1v-3.75h1.17V146h-1.13v-1.17h-.14c-.09.14-.2.31-.37.52-.16.21-.38.4-.68.56-.3.17-.69.25-1.18.25Zm.15-1.06c.47 0 .87-.12 1.2-.36.32-.25.57-.6.74-1.03.16-.44.25-.95.25-1.53 0-.57-.08-1.07-.25-1.5a1.96 1.96 0 0 0-1.94-1.37c-.5 0-.91.14-1.24.4-.33.24-.58.59-.74 1.02a4.1 4.1 0 0 0-.25 1.45c0 .54.09 1.04.25 1.48.17.44.42.8.75 1.06s.74.38 1.23.38Zm11.06-5.03-1.05.3a1.99 1.99 0 0 0-.3-.51c-.12-.17-.3-.3-.51-.42-.22-.1-.5-.16-.84-.16a2 2 0 0 0-1.17.32c-.3.21-.46.48-.46.81 0 .3.1.52.32.7.2.16.54.3 1 .42l1.12.27c.69.17 1.2.42 1.53.76.33.34.5.78.5 1.31 0 .44-.12.83-.38 1.17-.24.35-.6.62-1.04.82-.45.2-.97.3-1.56.3-.78 0-1.42-.17-1.93-.5a2.25 2.25 0 0 1-.97-1.49l1.11-.28c.1.41.3.72.6.93.3.2.69.3 1.17.3.55 0 .98-.11 1.3-.34.33-.24.49-.52.49-.85a.9.9 0 0 0-.28-.66 1.76 1.76 0 0 0-.85-.41l-1.28-.3a3.04 3.04 0 0 1-1.54-.77 1.86 1.86 0 0 1-.48-1.32c0-.43.12-.81.36-1.14.24-.33.58-.6 1-.78.42-.2.9-.29 1.44-.29.76 0 1.35.17 1.78.5.43.33.74.77.92 1.31Z" fill="#333"/></g><g filter="url(#o)"><mask id="p" fill="#fff"><path d="M8.5 6.5h117v35H8.5v-35Z"/></mask><path d="M8.5 6.5h117v35H8.5v-35Z" fill="#F6F6F6"/><path d="M24.95 28.5H21.5V18.32h3.52c1.02 0 1.88.2 2.6.61.74.4 1.3.99 1.69 1.74.4.76.59 1.67.59 2.73s-.2 1.97-.6 2.73a4.02 4.02 0 0 1-1.7 1.76 5.4 5.4 0 0 1-2.65.61Zm-1.6-1.6h1.52c.7 0 1.3-.13 1.77-.38.47-.27.83-.65 1.07-1.17.24-.52.36-1.17.36-1.95a4.6 4.6 0 0 0-.36-1.94 2.5 2.5 0 0 0-1.06-1.16 3.52 3.52 0 0 0-1.73-.39h-1.57v7Zm10.42 1.75c-.49 0-.92-.08-1.31-.25a2.13 2.13 0 0 1-.92-.78 2.27 2.27 0 0 1-.33-1.26c0-.43.08-.79.24-1.07.16-.28.38-.5.65-.68.28-.17.59-.3.93-.38.35-.09.7-.15 1.08-.2l1.09-.12c.28-.04.48-.1.6-.18.13-.08.2-.2.2-.38v-.03c0-.37-.11-.66-.33-.87-.23-.2-.55-.3-.96-.3-.44 0-.8.09-1.05.28-.26.2-.43.42-.52.68l-1.68-.24A2.68 2.68 0 0 1 33.23 21a4.76 4.76 0 0 1 2.56-.1c.37.08.7.22 1 .42.3.2.55.46.73.8.19.34.28.76.28 1.27v5.11h-1.73v-1.05H36a2.2 2.2 0 0 1-1.2 1.04c-.3.1-.65.16-1.04.16Zm.46-1.32c.37 0 .68-.07.94-.21a1.52 1.52 0 0 0 .83-1.36v-.9a.85.85 0 0 1-.28.13l-.45.1a13.84 13.84 0 0 1-.92.14c-.27.04-.5.1-.72.18-.21.09-.38.2-.5.35a.85.85 0 0 0-.18.57c0 .33.12.58.36.75.24.17.55.25.92.25Zm9.2-6.47v1.4h-4.4v-1.4h4.4Zm-3.31-1.83h1.8v7.17c0 .25.03.43.1.56.08.13.18.21.3.26.13.04.26.07.41.07a1.76 1.76 0 0 0 .53-.07l.3 1.4a4 4 0 0 1-1.06.18c-.45.02-.85-.05-1.22-.2a1.9 1.9 0 0 1-.86-.7 2.1 2.1 0 0 1-.3-1.2v-7.47Zm8.1 9.62c-.76 0-1.42-.16-1.98-.48a3.23 3.23 0 0 1-1.28-1.36 4.56 4.56 0 0 1-.44-2.08c0-.79.15-1.48.44-2.07a3.38 3.38 0 0 1 3.17-1.9c.47 0 .92.08 1.33.23a3.17 3.17 0 0 1 1.88 1.9c.19.49.28 1.06.28 1.73v.55h-6.26v-1.2h4.54c0-.35-.08-.66-.23-.93a1.63 1.63 0 0 0-.61-.64 1.72 1.72 0 0 0-.9-.23 1.8 1.8 0 0 0-1.63.96 2 2 0 0 0-.23.94v1.06c0 .44.08.82.24 1.14a1.8 1.8 0 0 0 1.71.98c.26 0 .5-.04.71-.11a1.55 1.55 0 0 0 .91-.88l1.68.2a2.7 2.7 0 0 1-1.74 1.92c-.46.18-1 .27-1.58.27Z" fill="#333"/><path d="M72.17 21.79h-4a.62.62 0 0 1-.62-.62c0-.34.28-.62.62-.62h4c.34 0 .62.28.62.62 0 .34-.28.62-.62.62Zm1.33-2.67h-5.33a.62.62 0 0 1-.62-.62c0-.34.28-.62.62-.62h5.33c.34 0 .62.28.62.62 0 .34-.28.62-.62.62Zm-2.67 5.34h-2.67a.62.62 0 0 1-.62-.62c0-.34.28-.62.62-.62h2.67c.34 0 .62.28.62.62 0 .34-.28.62-.62.62Zm-5.33 4.66a.62.62 0 0 1-.44-.18l-2-2a.63.63 0 0 1 0-.88.63.63 0 0 1 .88 0l1.56 1.56 1.56-1.56a.63.63 0 0 1 .88 0c.24.24.24.64 0 .88l-2 2a.62.62 0 0 1-.44.18Z" fill="#545454"/><path d="M65.5 28.46a.62.62 0 0 1-.62-.62V18.5c0-.34.28-.62.62-.62.34 0 .62.28.62.62v9.33c0 .34-.28.62-.62.62v.01Z" fill="#545454"/><path d="M125.5 40.5H8.5v2h117v-2Z" fill="#F6F6F6" mask="url(#p)"/><mask id="q" fill="#fff"><path d="M8.5 41.5h117v40H8.5v-40Z"/></mask><path d="M8.5 41.5h117v40H8.5v-40Z" fill="#fff"/><path d="M25.13 55.82V66H23.9v-8.89h-.06l-2.48 1.65v-1.25l2.54-1.7h1.23Zm6.2 10.32c-.69 0-1.3-.12-1.82-.36a2.96 2.96 0 0 1-1.21-1.01 2.5 2.5 0 0 1-.44-1.47 2.7 2.7 0 0 1 .96-2.12c.3-.25.64-.4 1.01-.47v-.06c-.49-.13-.87-.4-1.16-.82-.29-.42-.43-.9-.43-1.45 0-.51.13-.98.4-1.38.26-.41.62-.73 1.09-.97.46-.23 1-.35 1.6-.35.58 0 1.11.12 1.57.35.47.24.83.56 1.1.97.27.4.4.87.4 1.38a2.5 2.5 0 0 1-.44 1.45c-.29.42-.67.7-1.15.82v.06c.37.07.7.22 1 .47a2.76 2.76 0 0 1 .97 2.11c0 .56-.15 1.05-.44 1.48-.3.42-.7.76-1.22 1a4.2 4.2 0 0 1-1.8.37Zm0-1.1c.45 0 .85-.07 1.19-.22.33-.15.59-.36.77-.63a1.83 1.83 0 0 0-.02-1.97c-.2-.3-.46-.53-.8-.7a2.51 2.51 0 0 0-1.15-.25c-.43 0-.82.08-1.16.25-.34.17-.6.4-.8.7-.2.3-.29.63-.28 1.02 0 .36.08.68.26.95.18.27.44.48.78.63.34.15.74.23 1.2.23Zm0-4.83a2 2 0 0 0 .96-.22 1.66 1.66 0 0 0 .92-1.53 1.58 1.58 0 0 0-.9-1.5 2.15 2.15 0 0 0-.99-.2c-.38 0-.71.06-1 .2-.28.15-.5.34-.66.6-.15.26-.23.56-.23.9 0 .35.08.66.24.92.16.26.38.47.67.61.28.15.61.22.98.22Zm8.98-4.87-3.28 12.2h-1.08l3.28-12.2h1.08Zm4.95.48V66h-1.23v-8.89h-.06l-2.49 1.65v-1.25l2.55-1.7h1.23Zm6.5 0V66h-1.23v-8.89h-.06L48 58.76v-1.25l2.54-1.7h1.24Zm6.55-.48-3.28 12.2h-1.07l3.28-12.2h1.07ZM59.68 66v-.9l3.37-3.67c.39-.43.71-.8.97-1.13.26-.32.44-.62.57-.9.12-.29.19-.59.19-.9a1.65 1.65 0 0 0-.96-1.53 2.2 2.2 0 0 0-1-.22 2 2 0 0 0-1.02.25c-.29.16-.5.38-.67.67a2.1 2.1 0 0 0-.23 1.01h-1.18a2.87 2.87 0 0 1 1.54-2.63 3.39 3.39 0 0 1 1.6-.37c.6 0 1.13.12 1.6.38.45.25.81.59 1.08 1.02.26.42.39.9.39 1.42 0 .38-.07.74-.2 1.1-.14.36-.37.75-.7 1.19-.33.43-.78.96-1.37 1.6l-2.28 2.44v.08h4.73V66h-6.43Zm11.8.14c-.75 0-1.38-.2-1.91-.61s-.93-1-1.21-1.79a8.49 8.49 0 0 1-.42-2.83c0-1.1.14-2.04.42-2.82a3.9 3.9 0 0 1 1.21-1.79 3 3 0 0 1 1.91-.62c.74 0 1.38.2 1.9.62.54.41.94 1 1.22 1.79.28.78.42 1.72.42 2.82 0 1.1-.14 2.05-.42 2.83a3.82 3.82 0 0 1-1.2 1.79c-.53.4-1.17.6-1.92.6Zm0-1.1c.74 0 1.32-.35 1.73-1.07.41-.71.62-1.74.62-3.06 0-.88-.1-1.63-.28-2.25a3.09 3.09 0 0 0-.81-1.42 1.78 1.78 0 0 0-1.26-.49c-.73 0-1.3.37-1.72 1.1a6.23 6.23 0 0 0-.62 3.06c0 .88.09 1.63.27 2.25.19.61.46 1.08.8 1.4.36.32.78.49 1.27.49Zm5.43.96v-.9l3.36-3.67c.4-.43.72-.8.98-1.13.25-.32.44-.62.56-.9.13-.29.2-.59.2-.9a1.65 1.65 0 0 0-.96-1.53 2.2 2.2 0 0 0-1-.22c-.39 0-.73.08-1.02.25-.29.16-.51.38-.67.67a2.1 2.1 0 0 0-.24 1.01h-1.17a2.87 2.87 0 0 1 1.54-2.63 3.39 3.39 0 0 1 1.6-.37c.6 0 1.13.12 1.59.38a2.8 2.8 0 0 1 1.28 3.54c-.14.36-.37.75-.7 1.19-.33.43-.79.96-1.37 1.6l-2.29 2.44v.08h4.73V66h-6.42Zm8.48 0v-.9l3.36-3.67c.4-.43.72-.8.97-1.13.26-.32.45-.62.57-.9.13-.29.19-.59.19-.9a1.65 1.65 0 0 0-.96-1.53c-.3-.15-.62-.22-.99-.22-.4 0-.73.08-1.02.25-.3.16-.52.38-.68.67a2.1 2.1 0 0 0-.23 1.01h-1.17a2.87 2.87 0 0 1 1.54-2.63 3.39 3.39 0 0 1 1.6-.37c.6 0 1.13.12 1.59.38a2.8 2.8 0 0 1 1.27 3.54 4.8 4.8 0 0 1-.7 1.19c-.33.43-.78.96-1.36 1.6l-2.3 2.44v.08h4.74V66H85.4Z" fill="#333"/><path d="M125.5 80.5H8.5v2h117v-2Z" fill="#F6F6F6" mask="url(#q)"/><mask id="r" fill="#fff"><path d="M8.5 81.5h117v40H8.5v-40Z"/></mask><path d="M8.5 81.5h117v40H8.5v-40Z" fill="#fff"/><path d="M25.13 95.82V106H23.9v-8.89h-.06l-2.48 1.65v-1.25l2.54-1.7h1.23Zm6.2 10.32c-.69 0-1.3-.12-1.82-.36a2.96 2.96 0 0 1-1.21-1.01 2.5 2.5 0 0 1-.44-1.47 2.7 2.7 0 0 1 .96-2.12c.3-.25.64-.4 1.01-.47v-.06c-.49-.13-.87-.4-1.16-.82-.29-.42-.43-.9-.43-1.45 0-.51.13-.98.4-1.38.26-.41.62-.73 1.09-.97.46-.23 1-.35 1.6-.35.58 0 1.11.12 1.57.35.47.24.83.56 1.1.97.27.4.4.87.4 1.38a2.5 2.5 0 0 1-.44 1.45c-.29.42-.67.7-1.15.82v.06c.37.07.7.22 1 .47a2.77 2.77 0 0 1 .97 2.11c0 .56-.15 1.05-.44 1.48-.3.42-.7.76-1.22 1a4.2 4.2 0 0 1-1.8.37Zm0-1.1c.45 0 .85-.07 1.19-.22.33-.15.59-.36.77-.63a1.83 1.83 0 0 0-.02-1.97c-.2-.3-.46-.53-.8-.7a2.51 2.51 0 0 0-1.15-.25c-.43 0-.82.08-1.16.25-.34.17-.6.4-.8.7-.2.3-.29.63-.28 1.02 0 .36.08.68.26.95.18.27.44.48.78.63.34.15.74.23 1.2.23Zm0-4.83a2 2 0 0 0 .96-.22 1.66 1.66 0 0 0 .92-1.53 1.58 1.58 0 0 0-.9-1.5 2.15 2.15 0 0 0-.99-.2c-.38 0-.71.06-1 .2-.28.15-.5.34-.66.6-.15.26-.23.56-.23.9 0 .35.08.66.24.92.16.26.38.47.67.61.28.15.61.22.98.22Zm8.98-4.87-3.28 12.2h-1.08l3.28-12.2h1.08Zm4.95.48V106h-1.23v-8.89h-.06l-2.49 1.65v-1.25l2.55-1.7h1.23Zm6.5 0V106h-1.23v-8.89h-.06L48 98.76v-1.25l2.54-1.7h1.24Zm6.55-.48-3.28 12.2h-1.07l3.28-12.2h1.07ZM59.68 106v-.9l3.37-3.67c.39-.44.71-.8.97-1.13.26-.32.44-.62.57-.9.12-.29.19-.59.19-.9a1.65 1.65 0 0 0-.96-1.53 2.2 2.2 0 0 0-1-.22 2 2 0 0 0-1.02.25c-.29.16-.5.38-.67.67a2.1 2.1 0 0 0-.23 1.01h-1.18a2.87 2.87 0 0 1 1.54-2.63 3.39 3.39 0 0 1 1.6-.37c.6 0 1.13.12 1.6.38.45.25.81.59 1.08 1.02.26.42.39.9.39 1.42 0 .38-.07.74-.2 1.1-.14.36-.37.75-.7 1.19-.33.43-.78.96-1.37 1.6l-2.28 2.44v.08h4.73V106h-6.43Zm11.8.14c-.75 0-1.38-.2-1.91-.61s-.93-1-1.21-1.79a8.49 8.49 0 0 1-.42-2.83c0-1.1.14-2.04.42-2.82a3.9 3.9 0 0 1 1.21-1.79 3 3 0 0 1 1.91-.62c.74 0 1.38.2 1.9.62.54.41.94 1 1.22 1.79.28.78.42 1.72.42 2.82 0 1.1-.14 2.05-.42 2.83a3.82 3.82 0 0 1-1.2 1.79c-.53.4-1.17.6-1.92.6Zm0-1.1c.74 0 1.32-.35 1.73-1.07a6.2 6.2 0 0 0 .62-3.06c0-.88-.1-1.63-.28-2.25a3.09 3.09 0 0 0-.81-1.42 1.78 1.78 0 0 0-1.26-.49c-.73 0-1.3.37-1.72 1.1a6.23 6.23 0 0 0-.62 3.06c0 .88.09 1.63.27 2.25.19.61.46 1.08.8 1.4.36.33.78.48 1.27.48Zm5.43.96v-.9l3.36-3.67c.4-.44.72-.8.98-1.13.25-.32.44-.62.56-.9.13-.29.2-.59.2-.9a1.65 1.65 0 0 0-.96-1.53 2.2 2.2 0 0 0-1-.22c-.39 0-.73.08-1.02.25-.29.16-.51.38-.67.67a2.1 2.1 0 0 0-.24 1.01h-1.17a2.87 2.87 0 0 1 1.54-2.63 3.39 3.39 0 0 1 1.6-.37c.6 0 1.13.12 1.59.38a2.8 2.8 0 0 1 1.28 3.54c-.14.36-.37.75-.7 1.19-.33.43-.79.96-1.37 1.6l-2.29 2.44v.08h4.73V106h-6.42Zm8.48 0v-.9l3.36-3.67c.4-.44.72-.8.97-1.13.26-.32.45-.62.57-.9.13-.29.19-.59.19-.9a1.65 1.65 0 0 0-.96-1.53c-.3-.15-.62-.22-.99-.22-.4 0-.73.08-1.02.25-.3.16-.52.38-.68.67a2.1 2.1 0 0 0-.23 1.01h-1.17a2.87 2.87 0 0 1 1.54-2.63 3.39 3.39 0 0 1 1.6-.37c.6 0 1.13.12 1.59.38a2.8 2.8 0 0 1 1.27 3.54 4.8 4.8 0 0 1-.7 1.19c-.33.43-.78.96-1.36 1.6l-2.3 2.44v.08h4.74V106H85.4Z" fill="#333"/><path d="M125.5 120.5H8.5v2h117v-2Z" fill="#EEE" mask="url(#r)"/><mask id="s" fill="#fff"><path d="M8.5 121.5h117v40H8.5v-40Z"/></mask><path d="M8.5 121.5h117v40H8.5v-40Z" fill="#fff"/><path d="M25.13 135.82V146H23.9v-8.89h-.06l-2.48 1.65v-1.25l2.54-1.7h1.23Zm6.2 10.32c-.69 0-1.3-.12-1.82-.36a2.96 2.96 0 0 1-1.21-1.01 2.5 2.5 0 0 1-.44-1.48 2.7 2.7 0 0 1 .96-2.1c.3-.26.64-.41 1.01-.48v-.06c-.49-.13-.87-.4-1.16-.82-.29-.42-.43-.9-.43-1.45 0-.51.13-.98.4-1.38.26-.41.62-.73 1.09-.97.46-.23 1-.35 1.6-.35.58 0 1.11.12 1.57.35.47.24.83.56 1.1.97.27.4.4.87.4 1.38a2.5 2.5 0 0 1-.44 1.45c-.29.42-.67.7-1.15.82v.06c.37.07.7.22 1 .47a2.77 2.77 0 0 1 .97 2.11c0 .56-.15 1.05-.44 1.48-.3.42-.7.76-1.22 1a4.2 4.2 0 0 1-1.8.37Zm0-1.1c.45 0 .85-.07 1.19-.22.33-.15.59-.36.77-.63a1.83 1.83 0 0 0-.02-1.97c-.2-.3-.46-.53-.8-.7a2.51 2.51 0 0 0-1.15-.25c-.43 0-.82.08-1.16.25-.34.17-.6.4-.8.7-.2.3-.29.63-.28 1.02 0 .36.08.68.26.95.18.27.44.48.78.63.34.15.74.22 1.2.22Zm0-4.83a2 2 0 0 0 .96-.22 1.66 1.66 0 0 0 .92-1.53 1.58 1.58 0 0 0-.9-1.5 2.15 2.15 0 0 0-.99-.2c-.38 0-.71.06-1 .2-.28.15-.5.34-.66.6-.15.26-.23.56-.23.9 0 .35.08.66.24.92.16.27.38.47.67.61.28.15.61.22.98.22Zm8.98-4.87-3.28 12.2h-1.08l3.28-12.2h1.08Zm4.95.48V146h-1.23v-8.89h-.06l-2.49 1.65v-1.25l2.55-1.7h1.23Zm6.5 0V146h-1.23v-8.89h-.06L48 138.76v-1.25l2.54-1.7h1.24Zm6.55-.48-3.28 12.2h-1.07l3.28-12.2h1.07ZM59.68 146v-.9l3.37-3.67c.39-.44.71-.8.97-1.13.26-.32.44-.62.57-.9.12-.29.19-.59.19-.9a1.65 1.65 0 0 0-.96-1.53 2.2 2.2 0 0 0-1-.22 2 2 0 0 0-1.02.25c-.29.16-.5.38-.67.67a2.1 2.1 0 0 0-.23 1.01h-1.18a2.87 2.87 0 0 1 1.54-2.63 3.39 3.39 0 0 1 1.6-.37c.6 0 1.13.13 1.6.38.45.25.81.59 1.08 1.02.26.42.39.9.39 1.42 0 .38-.07.74-.2 1.1-.14.36-.37.75-.7 1.19-.33.43-.78.96-1.37 1.6l-2.28 2.44v.08h4.73V146h-6.43Zm11.8.14c-.75 0-1.38-.2-1.91-.61s-.93-1-1.21-1.79a8.49 8.49 0 0 1-.42-2.83c0-1.1.14-2.04.42-2.82a3.9 3.9 0 0 1 1.21-1.79 3 3 0 0 1 1.91-.62c.74 0 1.38.2 1.9.62.54.41.94 1 1.22 1.79.28.78.42 1.72.42 2.82 0 1.1-.14 2.05-.42 2.83a3.82 3.82 0 0 1-1.2 1.79c-.53.4-1.17.6-1.92.6Zm0-1.1c.74 0 1.32-.35 1.73-1.07a6.2 6.2 0 0 0 .62-3.06c0-.88-.1-1.63-.28-2.25a3.09 3.09 0 0 0-.81-1.42 1.78 1.78 0 0 0-1.26-.49c-.73 0-1.3.37-1.72 1.1a6.23 6.23 0 0 0-.62 3.06c0 .88.09 1.63.27 2.25.19.61.46 1.08.8 1.4.36.32.78.48 1.27.48Zm5.43.96v-.9l3.36-3.67c.4-.44.72-.8.98-1.13.25-.32.44-.62.56-.9.13-.29.2-.59.2-.9a1.65 1.65 0 0 0-.96-1.53 2.2 2.2 0 0 0-1-.22c-.39 0-.73.08-1.02.25-.29.16-.51.38-.67.67a2.1 2.1 0 0 0-.24 1.01h-1.17a2.87 2.87 0 0 1 1.54-2.63 3.39 3.39 0 0 1 1.6-.37c.6 0 1.13.13 1.59.38a2.8 2.8 0 0 1 1.28 3.54c-.14.36-.37.75-.7 1.19-.33.43-.79.96-1.37 1.6l-2.29 2.44v.08h4.73V146h-6.42Zm8.48 0v-.9l3.36-3.67c.4-.44.72-.8.97-1.13.26-.32.45-.62.57-.9.13-.29.19-.59.19-.9a1.65 1.65 0 0 0-.96-1.53c-.3-.15-.62-.22-.99-.22-.4 0-.73.08-1.02.25-.3.16-.52.38-.68.67a2.1 2.1 0 0 0-.23 1.01h-1.17a2.87 2.87 0 0 1 1.54-2.63 3.39 3.39 0 0 1 1.6-.37c.6 0 1.13.13 1.59.38a2.8 2.8 0 0 1 1.27 3.54 4.8 4.8 0 0 1-.7 1.19c-.33.43-.78.96-1.36 1.6l-2.3 2.44v.08h4.74V146H85.4Z" fill="#333"/><path fill="#EEE" d="M8.5 151.5h283v10H8.5z"/><rect x="48.5" y="153.5" width="133" height="6" rx="3" fill="#AFAFAF"/><path d="M125.5 160.5H8.5v2h117v-2Z" fill="#F6F6F6" mask="url(#s)"/></g></g><rect x="1" y="1" width="298" height="168" rx="7.5" stroke="#F6F6F6"/><defs><filter id="f" x="8.5" y="41.5" width="97" height="40" filterUnits="userSpaceOnUse" color-interpolation-filters="sRGB"><feFlood flood-opacity="0" result="BackgroundImageFix"/><feBlend in="SourceGraphic" in2="BackgroundImageFix" result="shape"/><feColorMatrix in="SourceAlpha" values="0 0 0 0 0 0 0 0 0 0 0 0 0 0 0 0 0 0 127 0" result="hardAlpha"/><feOffset dy="-1"/><feComposite in2="hardAlpha" operator="arithmetic" k2="-1" k3="1"/><feColorMatrix values="0 0 0 0 0.933333 0 0 0 0 0.933333 0 0 0 0 0.933333 0 0 0 1 0"/><feBlend in2="shape" result="effect1_innerShadow_11695_104722"/></filter><filter id="g" x="105.5" y="41.5" width="104" height="40" filterUnits="userSpaceOnUse" color-interpolation-filters="sRGB"><feFlood flood-opacity="0" result="BackgroundImageFix"/><feBlend in="SourceGraphic" in2="BackgroundImageFix" result="shape"/><feColorMatrix in="SourceAlpha" values="0 0 0 0 0 0 0 0 0 0 0 0 0 0 0 0 0 0 127 0" result="hardAlpha"/><feOffset dy="-1"/><feComposite in2="hardAlpha" operator="arithmetic" k2="-1" k3="1"/><feColorMatrix values="0 0 0 0 0.933333 0 0 0 0 0.933333 0 0 0 0 0.933333 0 0 0 1 0"/><feBlend in2="shape" result="effect1_innerShadow_11695_104722"/></filter><filter id="h" x="209.5" y="41.5" width="164" height="40" filterUnits="userSpaceOnUse" color-interpolation-filters="sRGB"><feFlood flood-opacity="0" result="BackgroundImageFix"/><feBlend in="SourceGraphic" in2="BackgroundImageFix" result="shape"/><feColorMatrix in="SourceAlpha" values="0 0 0 0 0 0 0 0 0 0 0 0 0 0 0 0 0 0 127 0" result="hardAlpha"/><feOffset dy="-1"/><feComposite in2="hardAlpha" operator="arithmetic" k2="-1" k3="1"/><feColorMatrix values="0 0 0 0 0.933333 0 0 0 0 0.933333 0 0 0 0 0.933333 0 0 0 1 0"/><feBlend in2="shape" result="effect1_innerShadow_11695_104722"/></filter><filter id="i" x="8.5" y="81.5" width="104.83" height="40" filterUnits="userSpaceOnUse" color-interpolation-filters="sRGB"><feFlood flood-opacity="0" result="BackgroundImageFix"/><feBlend in="SourceGraphic" in2="BackgroundImageFix" result="shape"/><feColorMatrix in="SourceAlpha" values="0 0 0 0 0 0 0 0 0 0 0 0 0 0 0 0 0 0 127 0" result="hardAlpha"/><feOffset dy="-1"/><feComposite in2="hardAlpha" operator="arithmetic" k2="-1" k3="1"/><feColorMatrix values="0 0 0 0 0.933333 0 0 0 0 0.933333 0 0 0 0 0.933333 0 0 0 1 0"/><feBlend in2="shape" result="effect1_innerShadow_11695_104722"/></filter><filter id="j" x="105.5" y="81.5" width="104" height="40" filterUnits="userSpaceOnUse" color-interpolation-filters="sRGB"><feFlood flood-opacity="0" result="BackgroundImageFix"/><feBlend in="SourceGraphic" in2="BackgroundImageFix" result="shape"/><feColorMatrix in="SourceAlpha" values="0 0 0 0 0 0 0 0 0 0 0 0 0 0 0 0 0 0 127 0" result="hardAlpha"/><feOffset dy="-1"/><feComposite in2="hardAlpha" operator="arithmetic" k2="-1" k3="1"/><feColorMatrix values="0 0 0 0 0.933333 0 0 0 0 0.933333 0 0 0 0 0.933333 0 0 0 1 0"/><feBlend in2="shape" result="effect1_innerShadow_11695_104722"/></filter><filter id="k" x="209.5" y="81.5" width="164" height="40" filterUnits="userSpaceOnUse" color-interpolation-filters="sRGB"><feFlood flood-opacity="0" result="BackgroundImageFix"/><feBlend in="SourceGraphic" in2="BackgroundImageFix" result="shape"/><feColorMatrix in="SourceAlpha" values="0 0 0 0 0 0 0 0 0 0 0 0 0 0 0 0 0 0 127 0" result="hardAlpha"/><feOffset dy="-1"/><feComposite in2="hardAlpha" operator="arithmetic" k2="-1" k3="1"/><feColorMatrix values="0 0 0 0 0.933333 0 0 0 0 0.933333 0 0 0 0 0.933333 0 0 0 1 0"/><feBlend in2="shape" result="effect1_innerShadow_11695_104722"/></filter><filter id="l" x="8.5" y="121.5" width="109.89" height="40" filterUnits="userSpaceOnUse" color-interpolation-filters="sRGB"><feFlood flood-opacity="0" result="BackgroundImageFix"/><feBlend in="SourceGraphic" in2="BackgroundImageFix" result="shape"/><feColorMatrix in="SourceAlpha" values="0 0 0 0 0 0 0 0 0 0 0 0 0 0 0 0 0 0 127 0" result="hardAlpha"/><feOffset dy="-1"/><feComposite in2="hardAlpha" operator="arithmetic" k2="-1" k3="1"/><feColorMatrix values="0 0 0 0 0.933333 0 0 0 0 0.933333 0 0 0 0 0.933333 0 0 0 1 0"/><feBlend in2="shape" result="effect1_innerShadow_11695_104722"/></filter><filter id="m" x="105.5" y="121.5" width="104" height="40" filterUnits="userSpaceOnUse" color-interpolation-filters="sRGB"><feFlood flood-opacity="0" result="BackgroundImageFix"/><feBlend in="SourceGraphic" in2="BackgroundImageFix" result="shape"/><feColorMatrix in="SourceAlpha" values="0 0 0 0 0 0 0 0 0 0 0 0 0 0 0 0 0 0 127 0" result="hardAlpha"/><feOffset dy="-1"/><feComposite in2="hardAlpha" operator="arithmetic" k2="-1" k3="1"/><feColorMatrix values="0 0 0 0 0.933333 0 0 0 0 0.933333 0 0 0 0 0.933333 0 0 0 1 0"/><feBlend in2="shape" result="effect1_innerShadow_11695_104722"/></filter><filter id="n" x="209.5" y="121.5" width="164" height="40" filterUnits="userSpaceOnUse" color-interpolation-filters="sRGB"><feFlood flood-opacity="0" result="BackgroundImageFix"/><feBlend in="SourceGraphic" in2="BackgroundImageFix" result="shape"/><feColorMatrix in="SourceAlpha" values="0 0 0 0 0 0 0 0 0 0 0 0 0 0 0 0 0 0 127 0" result="hardAlpha"/><feOffset dy="-1"/><feComposite in2="hardAlpha" operator="arithmetic" k2="-1" k3="1"/><feColorMatrix values="0 0 0 0 0.933333 0 0 0 0 0.933333 0 0 0 0 0.933333 0 0 0 1 0"/><feBlend in2="shape" result="effect1_innerShadow_11695_104722"/></filter><filter id="o" x=".5" y="-2.5" width="303" height="175" filterUnits="userSpaceOnUse" color-interpolation-filters="sRGB"><feFlood flood-opacity="0" result="BackgroundImageFix"/><feColorMatrix in="SourceAlpha" values="0 0 0 0 0 0 0 0 0 0 0 0 0 0 0 0 0 0 127 0" result="hardAlpha"/><feOffset dx="2" dy="1"/><feGaussianBlur stdDeviation="5"/><feComposite in2="hardAlpha" operator="out"/><feColorMatrix values="0 0 0 0 0.329412 0 0 0 0 0.329412 0 0 0 0 0.329412 0 0 0 0.2 0"/><feBlend in2="BackgroundImageFix" result="effect1_dropShadow_11695_104722"/><feBlend in="SourceGraphic" in2="effect1_dropShadow_11695_104722" result="shape"/></filter><clipPath id="a"><path fill="#fff" transform="translate(8.5 8.5)" d="M0 0h283v153H0z"/></clipPath><clipPath id="c"><path fill="#fff" transform="translate(177.5 17.5)" d="M0 0h8v14H0z"/></clipPath></defs></svg>