<svg width="672" height="261" fill="none" xmlns="http://www.w3.org/2000/svg"><path fill="#F6F6F6" d="M0 0h672v257H0z"/><rect x="18" y="32" width="636" height="193" rx="8" fill="#fff"/><g clip-path="url(#a)"><mask id="b" fill="#fff"><path d="M34 48.5h40v40H34v-40Z"/></mask><path d="M34 48.5h40v40H34v-40Z" fill="#F6F6F6"/><path d="M34 52.5a4 4 0 0 1 4-4h36v40H34v-36Z" fill="#F6F6F6"/><rect x="46.5" y="60.5" width="15" height="15" rx="1.5" fill="#fff" stroke="#545454"/><path d="M34 48.5h40-40Zm40 41H34v-2h40v2Zm-40-1v-40 40Zm40-40v40-40Z" fill="#F6F6F6" mask="url(#b)"/><mask id="c" fill="#fff"><path d="M74 48h122v41H74V48Z"/></mask><path d="M74 48h122v41H74V48Z" fill="#F6F6F6"/><path d="M80.54 65.62a1.36 1.36 0 0 0-.59-1.02 2.25 2.25 0 0 0-1.33-.36c-.39 0-.72.06-1 .17-.27.12-.48.28-.62.48a1.15 1.15 0 0 0-.08 1.23c.1.16.23.29.4.4.17.1.36.2.56.27.2.07.42.13.62.18l.96.24c.38.09.75.2 1.1.36.37.15.69.35.97.58a2.53 2.53 0 0 1 .92 2 2.76 2.76 0 0 1-1.78 2.63 5.2 5.2 0 0 1-2.08.37 5.3 5.3 0 0 1-2.06-.36 3.07 3.07 0 0 1-1.37-1.08 3.18 3.18 0 0 1-.52-1.72h1.81c.03.36.14.65.33.89.2.23.44.4.75.52s.66.18 1.04.18c.4 0 .76-.06 1.06-.18.3-.12.54-.3.71-.5.18-.23.26-.48.27-.77a.97.97 0 0 0-.24-.66 1.71 1.71 0 0 0-.64-.44 6.18 6.18 0 0 0-.95-.32l-1.16-.3a4.66 4.66 0 0 1-1.99-.97 2.26 2.26 0 0 1-.73-1.76c0-.6.17-1.12.5-1.57.32-.45.77-.8 1.33-1.05a4.5 4.5 0 0 1 1.91-.38c.73 0 1.36.12 1.9.38.55.25.98.6 1.29 1.04.31.44.47.94.48 1.52h-1.77Zm6.86 7.53c-.77 0-1.43-.16-1.99-.48a3.23 3.23 0 0 1-1.27-1.36 4.56 4.56 0 0 1-.45-2.08c0-.79.15-1.48.45-2.07a3.38 3.38 0 0 1 3.16-1.9c.47 0 .92.08 1.34.23.42.15.79.38 1.1.7.33.31.59.71.77 1.2.19.49.28 1.06.28 1.73v.55h-6.26v-1.2h4.54c0-.35-.08-.66-.23-.93a1.63 1.63 0 0 0-.6-.64 1.72 1.72 0 0 0-.91-.23 1.8 1.8 0 0 0-1.62.96 2 2 0 0 0-.24.94v1.06c0 .44.08.82.25 1.14.16.32.39.56.68.73a2.25 2.25 0 0 0 1.73.14c.22-.08.4-.19.55-.34.16-.14.28-.32.36-.54l1.68.2a2.69 2.69 0 0 1-1.74 1.92c-.46.18-.99.27-1.58.27Zm10.95-5.77-1.64.18a1.32 1.32 0 0 0-.7-.82c-.2-.09-.43-.13-.7-.13-.38 0-.7.08-.95.24-.25.16-.38.37-.37.63 0 .22.07.4.24.54.17.14.45.26.83.35l1.3.27c.73.16 1.27.4 1.62.75.35.33.53.78.53 1.32 0 .48-.14.9-.42 1.28-.27.36-.66.65-1.15.85-.49.2-1.05.3-1.69.3-.93 0-1.68-.19-2.25-.58-.57-.4-.91-.94-1.02-1.64l1.75-.17c.08.34.25.6.5.78.27.17.6.26 1.02.26.43 0 .77-.09 1.03-.26.26-.18.4-.4.4-.65a.74.74 0 0 0-.26-.54 1.77 1.77 0 0 0-.78-.33l-1.3-.28a3.1 3.1 0 0 1-1.63-.77 1.9 1.9 0 0 1-.52-1.38c0-.47.13-.88.38-1.22a2.5 2.5 0 0 1 1.1-.8 4 4 0 0 1 1.6-.3c.9 0 1.6.2 2.12.58.52.38.84.9.96 1.54Zm7.68 0-1.64.18a1.33 1.33 0 0 0-.24-.47 1.2 1.2 0 0 0-.46-.35 1.62 1.62 0 0 0-.7-.13c-.38 0-.7.08-.95.24-.25.16-.37.37-.37.63 0 .22.08.4.24.54.17.14.45.26.84.35l1.3.27c.72.16 1.26.4 1.61.75.36.33.53.78.54 1.32 0 .48-.15.9-.42 1.28a2.7 2.7 0 0 1-1.15.85c-.5.2-1.06.3-1.7.3-.93 0-1.68-.19-2.25-.58-.57-.4-.91-.94-1.02-1.64l1.76-.17c.08.34.24.6.5.78.26.17.6.26 1.01.26.43 0 .77-.09 1.03-.26.26-.18.4-.4.4-.65 0-.22-.09-.4-.26-.54a1.76 1.76 0 0 0-.77-.33l-1.3-.28a3.1 3.1 0 0 1-1.63-.77 1.9 1.9 0 0 1-.53-1.38c0-.47.13-.88.39-1.22a2.5 2.5 0 0 1 1.09-.8c.46-.2 1-.3 1.61-.3.9 0 1.6.2 2.12.58.51.38.83.9.95 1.54Zm1.65 5.62v-7.64h1.8V73h-1.8Zm.9-8.72c-.28 0-.52-.1-.73-.28a.91.91 0 0 1-.3-.7c0-.27.1-.5.3-.69.2-.19.45-.28.74-.28s.53.1.73.28a.95.95 0 0 1 .01 1.39c-.2.19-.45.28-.74.28Zm6.08 8.87a3.7 3.7 0 0 1-1.94-.5 3.35 3.35 0 0 1-1.27-1.37 4.53 4.53 0 0 1-.45-2.07c0-.79.15-1.48.45-2.07.3-.6.73-1.06 1.27-1.38a3.7 3.7 0 0 1 1.94-.5c.75 0 1.4.17 1.94.5.55.32.97.79 1.27 1.38.3.6.45 1.28.45 2.07a4.5 4.5 0 0 1-.45 2.07c-.3.59-.72 1.05-1.27 1.38-.54.33-1.19.49-1.94.49Zm.01-1.44c.4 0 .75-.11 1.02-.34.27-.22.47-.52.6-.9.14-.38.2-.8.2-1.26 0-.47-.06-.9-.2-1.27a2 2 0 0 0-.6-.91 1.54 1.54 0 0 0-1.02-.34c-.41 0-.75.11-1.03.34a2 2 0 0 0-.61.9 3.95 3.95 0 0 0 0 2.54c.13.38.34.68.61.9.28.23.62.34 1.03.34Zm6.98-3.18V73h-1.8v-7.64h1.72v1.3h.09c.18-.43.46-.77.84-1.02.39-.25.87-.38 1.44-.38.52 0 .98.12 1.37.34.4.23.7.55.92.98.22.43.33.95.32 1.56V73h-1.8v-4.58c0-.51-.13-.91-.4-1.2a1.4 1.4 0 0 0-1.08-.43c-.32 0-.6.07-.84.2-.25.14-.44.34-.58.6a2 2 0 0 0-.2.94Zm18.65-5.71V73h-1.64l-4.8-6.94h-.08V73h-1.85V62.82h1.66l4.79 6.94h.09v-6.94h1.83Zm4.13 10.33c-.49 0-.92-.08-1.3-.25a2.14 2.14 0 0 1-.92-.78 2.27 2.27 0 0 1-.34-1.26c0-.43.08-.79.24-1.07.16-.28.38-.5.65-.68.28-.17.59-.3.93-.38.35-.09.71-.15 1.08-.2l1.1-.12c.27-.04.47-.1.6-.18.13-.08.2-.2.2-.38v-.03c0-.37-.12-.66-.34-.87-.22-.2-.54-.3-.96-.3-.44 0-.8.09-1.05.28-.26.2-.43.42-.52.68l-1.68-.24a2.69 2.69 0 0 1 1.78-1.87 4.76 4.76 0 0 1 2.56-.1c.36.08.7.22 1 .42.3.2.54.46.72.8.19.34.28.76.28 1.27V73h-1.73v-1.05h-.06a2.2 2.2 0 0 1-1.2 1.04c-.3.1-.64.16-1.04.16Zm.47-1.32a2 2 0 0 0 .94-.21c.26-.15.47-.34.6-.58.15-.24.23-.5.23-.78v-.9a.84.84 0 0 1-.3.13 13.72 13.72 0 0 1-1.36.24c-.26.04-.5.1-.72.18-.2.09-.38.2-.5.35a.85.85 0 0 0-.18.57c0 .33.12.58.36.75.24.17.55.25.93.25Zm5.37 1.17v-7.64h1.72v1.3h.09c.16-.44.42-.78.8-1.02.36-.25.8-.38 1.3-.38.53 0 .96.13 1.32.38.35.25.6.59.75 1.02h.08c.17-.42.45-.76.86-1.01.4-.26.88-.39 1.43-.39.7 0 1.28.23 1.72.67.45.44.67 1.1.67 1.94V73h-1.8v-4.85c0-.47-.13-.82-.38-1.04a1.35 1.35 0 0 0-.93-.33c-.43 0-.77.14-1.02.4a1.5 1.5 0 0 0-.36 1.06V73h-1.77v-4.92c0-.4-.12-.71-.35-.95a1.25 1.25 0 0 0-.93-.35c-.26 0-.5.07-.7.2a1.3 1.3 0 0 0-.51.55 1.7 1.7 0 0 0-.19.83V73h-1.8Zm15.95.15c-.77 0-1.43-.16-1.99-.48a3.23 3.23 0 0 1-1.28-1.36 4.57 4.57 0 0 1-.44-2.08c0-.79.15-1.48.44-2.07a3.39 3.39 0 0 1 3.17-1.9c.47 0 .92.08 1.33.23a3 3 0 0 1 1.12.7c.32.31.58.71.76 1.2.19.49.28 1.06.28 1.73v.55h-6.26v-1.2h4.54c0-.35-.08-.66-.23-.93a1.62 1.62 0 0 0-.6-.64 1.72 1.72 0 0 0-.91-.23 1.8 1.8 0 0 0-1.63.96 2 2 0 0 0-.23.94v1.06c0 .44.08.82.25 1.14.16.32.39.56.68.73a2.25 2.25 0 0 0 1.73.14 1.55 1.55 0 0 0 .91-.88l1.68.2c-.1.44-.31.82-.61 1.16-.3.32-.67.58-1.13.76-.46.18-1 .27-1.58.27Z" fill="#1F1F1F"/><path d="M74 48h122H74Zm122 42H74v-2h122v2ZM74 89V48v41Zm122-41v41-41Z" fill="#F6F6F6" mask="url(#c)"/><mask id="d" fill="#fff"><path d="M196 48h158v41H196V48Z"/></mask><path d="M196 48h158v41H196V48Z" fill="#F6F6F6"/><path d="M212.46 73H209V62.82h3.52c1.01 0 1.88.2 2.6.61.74.4 1.3.99 1.69 1.74.4.76.59 1.67.59 2.73s-.2 1.97-.6 2.73a4.1 4.1 0 0 1-1.7 1.76 5.4 5.4 0 0 1-2.64.61Zm-1.61-1.6h1.52c.7 0 1.3-.13 1.77-.38.47-.27.83-.65 1.07-1.17.24-.52.36-1.17.36-1.95s-.12-1.43-.36-1.94a2.5 2.5 0 0 0-1.06-1.16 3.52 3.52 0 0 0-1.73-.39h-1.57v7Zm10.42 1.75c-.49 0-.92-.08-1.31-.25a2.14 2.14 0 0 1-.92-.78 2.27 2.27 0 0 1-.33-1.26c0-.43.08-.79.24-1.07.16-.28.38-.5.65-.68.28-.17.59-.3.93-.38.35-.09.7-.15 1.08-.2l1.09-.12c.28-.04.48-.1.6-.18.13-.08.2-.2.2-.38v-.03c0-.37-.11-.66-.33-.87-.23-.2-.55-.3-.96-.3-.44 0-.8.09-1.05.28-.26.2-.43.42-.52.68l-1.68-.24a2.68 2.68 0 0 1 1.78-1.87 4.76 4.76 0 0 1 2.56-.1c.36.08.7.22 1 .42.3.2.54.46.72.8.19.34.28.76.28 1.27V73h-1.73v-1.05h-.06a2.2 2.2 0 0 1-1.2 1.04c-.3.1-.65.16-1.04.16Zm.46-1.32c.37 0 .68-.07.94-.21a1.52 1.52 0 0 0 .83-1.36v-.9a.85.85 0 0 1-.28.13l-.45.1a14.09 14.09 0 0 1-.92.14c-.26.04-.5.1-.72.18-.21.09-.38.2-.5.35a.85.85 0 0 0-.18.57c0 .33.12.58.36.75.24.17.55.25.92.25Zm9.2-6.47v1.4h-4.4v-1.4h4.4Zm-3.31-1.83h1.8v7.17c0 .25.03.43.1.56.08.13.18.21.3.26.13.04.26.07.41.07a1.76 1.76 0 0 0 .53-.07l.3 1.4a4 4 0 0 1-1.06.18c-.45.02-.85-.05-1.22-.2a1.89 1.89 0 0 1-.86-.7 2.1 2.1 0 0 1-.3-1.2v-7.47Zm7 9.62c-.48 0-.92-.08-1.3-.25a2.13 2.13 0 0 1-.92-.78 2.27 2.27 0 0 1-.33-1.26c0-.43.08-.79.24-1.07.16-.28.37-.5.65-.68.27-.17.58-.3.93-.38.35-.09.7-.15 1.08-.2l1.09-.12c.27-.04.48-.1.6-.18.13-.08.2-.2.2-.38v-.03c0-.37-.12-.66-.34-.87-.22-.2-.54-.3-.96-.3-.44 0-.79.09-1.05.28-.25.2-.42.42-.51.68l-1.68-.24a2.69 2.69 0 0 1 1.77-1.87 4.76 4.76 0 0 1 2.56-.1c.37.08.7.22 1 .42.3.2.54.46.73.8.18.34.28.76.28 1.27V73h-1.73v-1.05h-.06a2.19 2.19 0 0 1-1.2 1.04c-.3.1-.65.16-1.05.16Zm.47-1.32c.36 0 .68-.07.94-.21a1.55 1.55 0 0 0 .83-1.36v-.9a.84.84 0 0 1-.29.13 13.77 13.77 0 0 1-1.36.24c-.27.04-.5.1-.72.18-.21.09-.38.2-.5.35a.85.85 0 0 0-.19.57c0 .33.13.58.37.75.24.17.55.25.92.25Zm14.88-4.45-1.64.18a1.31 1.31 0 0 0-.7-.82 1.62 1.62 0 0 0-.7-.13c-.38 0-.7.08-.95.24-.25.16-.37.37-.37.63 0 .22.08.4.24.54.17.14.45.26.84.35l1.3.27c.72.16 1.26.4 1.61.75.36.33.53.78.54 1.32 0 .48-.15.9-.42 1.28-.28.36-.66.65-1.15.85-.5.2-1.06.3-1.7.3-.93 0-1.68-.19-2.25-.58-.57-.4-.91-.94-1.02-1.64l1.75-.17c.09.34.25.6.51.78.26.17.6.26 1.01.26.43 0 .77-.09 1.03-.26.26-.18.4-.4.4-.65a.7.7 0 0 0-.26-.54 1.77 1.77 0 0 0-.78-.33l-1.3-.28a3.1 3.1 0 0 1-1.62-.77 1.9 1.9 0 0 1-.53-1.38c0-.47.13-.88.39-1.22a2.5 2.5 0 0 1 1.09-.8c.46-.2 1-.3 1.61-.3.9 0 1.6.2 2.11.58.52.38.84.9.96 1.54Zm4.98 5.77a3.36 3.36 0 0 1-3.22-1.89 4.6 4.6 0 0 1-.44-2.05c0-.77.15-1.46.45-2.05a3.35 3.35 0 0 1 3.2-1.9c.62 0 1.17.12 1.65.35a2.81 2.81 0 0 1 1.63 2.4h-1.72a1.65 1.65 0 0 0-.5-.92 1.4 1.4 0 0 0-1.03-.37c-.37 0-.7.1-.97.3-.28.19-.5.47-.65.84-.16.37-.23.8-.23 1.32s.07.97.23 1.34c.15.38.36.66.64.86.28.2.6.3.98.3.26 0 .5-.05.7-.15.22-.1.4-.25.54-.44.14-.2.24-.42.3-.7h1.71a2.83 2.83 0 0 1-1.6 2.41c-.47.23-1.03.35-1.67.35Zm6.55-4.62V73h-1.8V62.82h1.76v3.84h.1c.17-.43.45-.77.82-1.02.38-.25.86-.38 1.44-.38.53 0 1 .12 1.4.34.38.22.69.54.9.97.22.43.33.95.33 1.57V73h-1.8v-4.58c0-.52-.13-.92-.4-1.2a1.42 1.42 0 0 0-1.1-.43c-.32 0-.6.07-.85.2-.25.14-.45.34-.59.6-.14.25-.2.57-.2.94Zm10.17 4.62c-.77 0-1.43-.16-1.99-.48a3.24 3.24 0 0 1-1.27-1.36 4.57 4.57 0 0 1-.45-2.08c0-.79.15-1.48.45-2.07a3.39 3.39 0 0 1 3.16-1.9c.48 0 .92.08 1.34.23a3 3 0 0 1 1.11.7c.33.31.58.71.77 1.2.18.49.27 1.06.27 1.73v.55h-6.25v-1.2h4.53a2 2 0 0 0-.22-.93 1.62 1.62 0 0 0-.62-.64 1.72 1.72 0 0 0-.9-.23 1.8 1.8 0 0 0-1.62.96 2 2 0 0 0-.24.94v1.06c0 .44.09.82.25 1.14.16.32.39.56.68.73a2.25 2.25 0 0 0 1.73.14c.22-.08.4-.19.56-.34.15-.14.27-.32.35-.54l1.68.2c-.1.44-.3.82-.6 1.16-.3.32-.68.58-1.14.76-.46.18-.99.27-1.58.27Zm7.75-.02a2.89 2.89 0 0 1-2.73-1.8 5.01 5.01 0 0 1-.42-2.14c0-.85.14-1.56.42-2.15a2.92 2.92 0 0 1 3.84-1.55c.29.15.52.33.69.54.16.21.3.41.39.6h.07v-3.81h1.8V73h-1.76v-1.2h-.11c-.1.18-.23.38-.4.59a2.2 2.2 0 0 1-1.79.74Zm.5-1.47c.38 0 .7-.1.98-.31.27-.2.47-.5.6-.87.15-.37.22-.8.22-1.3s-.07-.92-.21-1.29a1.83 1.83 0 0 0-.6-.85c-.27-.2-.6-.3-.99-.3-.4 0-.73.1-1 .31s-.47.5-.6.87a3.9 3.9 0 0 0-.01 2.54 2 2 0 0 0 .61.88c.27.21.6.32 1 .32Zm10.35-1.87v-4.43h1.8V73h-1.74v-1.36h-.08a2.3 2.3 0 0 1-.85 1.05c-.4.27-.88.4-1.45.4-.5 0-.94-.1-1.33-.32a2.32 2.32 0 0 1-.9-.98 3.47 3.47 0 0 1-.32-1.56v-4.87h1.8v4.59c0 .48.14.87.4 1.15.27.29.62.43 1.05.43a1.65 1.65 0 0 0 1.38-.77c.16-.26.24-.58.24-.97Zm5.45-6.97V73h-1.8V62.82h1.8Zm5.23 10.33c-.76 0-1.42-.16-1.98-.48a3.24 3.24 0 0 1-1.28-1.36 4.57 4.57 0 0 1-.44-2.08c0-.79.14-1.48.44-2.07a3.39 3.39 0 0 1 3.17-1.9c.47 0 .91.08 1.33.23a3 3 0 0 1 1.12.7c.32.31.57.71.76 1.2.19.49.28 1.06.28 1.73v.55h-6.26v-1.2h4.53c0-.35-.07-.66-.22-.93a1.63 1.63 0 0 0-.61-.64 1.72 1.72 0 0 0-.9-.23 1.8 1.8 0 0 0-1.63.96 2 2 0 0 0-.23.94v1.06c0 .44.08.82.24 1.14a1.8 1.8 0 0 0 1.71.98c.26 0 .5-.04.71-.11.21-.08.4-.19.55-.34.16-.14.27-.32.35-.54l1.69.2a2.7 2.7 0 0 1-1.74 1.92c-.47.18-1 .27-1.59.27Zm7.76-.02a2.89 2.89 0 0 1-2.74-1.8 5.01 5.01 0 0 1-.41-2.14c0-.85.14-1.56.42-2.15a2.92 2.92 0 0 1 3.84-1.55c.28.15.51.33.68.54.17.21.3.41.4.6h.07v-3.81h1.8V73H311v-1.2h-.1c-.1.18-.23.38-.4.59a2.22 2.22 0 0 1-1.8.74Zm.5-1.47c.38 0 .7-.1.97-.31.27-.2.47-.5.61-.87s.21-.8.21-1.3-.07-.92-.2-1.29a1.83 1.83 0 0 0-.61-.85c-.27-.2-.6-.3-.98-.3-.4 0-.74.1-1 .31-.27.21-.48.5-.61.87-.14.37-.2.79-.2 1.26 0 .48.06.9.2 1.28a2 2 0 0 0 .6.88c.28.21.61.32 1 .32Z" fill="#1F1F1F"/><path d="M354 88H196v2h158v-2Z" fill="#F6F6F6" mask="url(#d)"/><mask id="e" fill="#fff"><path d="M354 48h125v41H354V48Z"/></mask><path d="M354 48h125v41H354V48Z" fill="#F6F6F6"/><path d="M372.54 65.62a1.36 1.36 0 0 0-.59-1.02 2.25 2.25 0 0 0-1.33-.36c-.39 0-.72.06-1 .17-.27.12-.48.28-.62.48a1.15 1.15 0 0 0-.08 1.23c.1.16.23.29.4.4.17.1.36.2.56.27.2.07.42.13.62.18l.96.24c.38.09.75.2 1.1.36.37.15.69.35.97.58a2.52 2.52 0 0 1 .93 2 2.76 2.76 0 0 1-1.79 2.63 5.2 5.2 0 0 1-2.08.37 5.3 5.3 0 0 1-2.06-.36 3.07 3.07 0 0 1-1.37-1.08 3.2 3.2 0 0 1-.52-1.72h1.81a1.55 1.55 0 0 0 1.08 1.41c.31.12.66.18 1.04.18.4 0 .76-.06 1.06-.18.3-.12.54-.3.71-.5.18-.23.26-.48.27-.77a.97.97 0 0 0-.24-.66 1.72 1.72 0 0 0-.64-.44 6.2 6.2 0 0 0-.95-.32l-1.16-.3a4.66 4.66 0 0 1-1.99-.97 2.26 2.26 0 0 1-.73-1.76c0-.6.17-1.12.5-1.57.32-.45.77-.8 1.33-1.05a4.5 4.5 0 0 1 1.91-.38c.73 0 1.36.12 1.9.38.55.25.98.6 1.29 1.04.31.44.47.94.48 1.52h-1.77Zm7.29-.26v1.4h-4.39v-1.4h4.39Zm-3.3-1.83h1.8v7.17c0 .25.03.43.1.56.08.13.18.21.3.26.12.04.26.07.4.07a1.76 1.76 0 0 0 .54-.07l.3 1.4a4 4 0 0 1-1.06.18c-.45.02-.86-.05-1.22-.2a1.9 1.9 0 0 1-.86-.7 2.1 2.1 0 0 1-.3-1.2v-7.47Zm7 9.62c-.48 0-.92-.08-1.3-.25a2.13 2.13 0 0 1-.92-.78 2.27 2.27 0 0 1-.33-1.26c0-.43.08-.79.24-1.07.15-.28.37-.5.65-.68.27-.17.58-.3.93-.38.34-.09.7-.15 1.07-.2l1.1-.12c.27-.04.47-.1.6-.18.13-.08.2-.2.2-.38v-.03c0-.37-.12-.66-.34-.87-.22-.2-.54-.3-.96-.3-.44 0-.79.09-1.05.28-.25.2-.43.42-.51.68l-1.69-.24A2.69 2.69 0 0 1 383 65.5a4.76 4.76 0 0 1 2.56-.1c.37.08.7.22 1 .42.3.2.54.46.73.8.18.34.27.76.27 1.27V73h-1.73v-1.05h-.06a2.21 2.21 0 0 1-1.2 1.04c-.3.1-.64.16-1.04.16Zm.47-1.32a2 2 0 0 0 .94-.21c.26-.15.47-.34.61-.58.15-.24.22-.5.22-.78v-.9a.86.86 0 0 1-.29.13 14.09 14.09 0 0 1-1.36.24c-.27.04-.51.1-.72.18-.21.09-.38.2-.5.35a.85.85 0 0 0-.19.57c0 .33.12.58.37.75.24.17.55.25.92.25Zm9.19-6.47v1.4h-4.4v-1.4h4.4Zm-3.3-1.83h1.8v7.17c0 .25.03.43.1.56a.6.6 0 0 0 .3.26c.12.04.26.07.4.07a1.74 1.74 0 0 0 .53-.07l.3 1.4a3.98 3.98 0 0 1-1.05.18c-.45.02-.86-.05-1.22-.2a1.9 1.9 0 0 1-.86-.7 2.1 2.1 0 0 1-.3-1.2v-7.47Zm8.1 9.62a3.9 3.9 0 0 1-1.98-.48 3.23 3.23 0 0 1-1.28-1.36 4.55 4.55 0 0 1-.45-2.08c0-.79.15-1.48.45-2.07a3.38 3.38 0 0 1 3.17-1.9c.47 0 .91.08 1.33.23a3.19 3.19 0 0 1 1.88 1.9c.18.49.28 1.06.28 1.73v.55h-6.26v-1.2h4.53a2 2 0 0 0-.22-.93 1.63 1.63 0 0 0-.61-.64 1.72 1.72 0 0 0-.9-.23c-.38 0-.7.09-.98.26-.28.18-.5.41-.65.7a2 2 0 0 0-.23.94v1.06c0 .44.08.82.24 1.14.16.32.39.56.68.73.3.16.63.25 1.03.25.26 0 .5-.04.7-.11.22-.08.4-.19.56-.34.15-.14.27-.32.35-.54l1.68.2c-.1.44-.3.82-.6 1.16-.3.32-.68.58-1.14.76-.46.18-.99.27-1.58.27Z" fill="#1F1F1F"/><path d="M479 88H354v2h125v-2Z" fill="#F6F6F6" mask="url(#e)"/><mask id="f" fill="#fff"><path d="M479 48h159v41H479V48Z"/></mask><path d="M479 48h159v41H479V48Z" fill="#F6F6F6"/><path d="M489.31 73h-1.97l3.59-10.18h2.27L496.8 73h-1.98l-2.71-8.1h-.08L489.3 73Zm.07-4h5.37v1.49h-5.37V69Zm11.77 4.15a3.35 3.35 0 0 1-3.22-1.89 4.64 4.64 0 0 1-.44-2.05c0-.77.15-1.46.45-2.05a3.35 3.35 0 0 1 3.2-1.9c.62 0 1.17.12 1.65.35a2.81 2.81 0 0 1 1.63 2.4h-1.72a1.64 1.64 0 0 0-.5-.92 1.4 1.4 0 0 0-1.03-.37c-.37 0-.7.1-.97.3-.28.19-.5.47-.65.84-.15.37-.23.8-.23 1.32s.08.97.23 1.34c.15.38.37.66.64.86.28.2.6.3.98.3.26 0 .5-.05.71-.15.21-.1.39-.25.53-.44.14-.2.24-.42.3-.7h1.72a2.82 2.82 0 0 1-1.6 2.41c-.48.23-1.04.35-1.68.35Zm8.57-7.79v1.4h-4.4v-1.4h4.4Zm-3.31-1.83h1.8v7.17c0 .25.04.43.1.56a.6.6 0 0 0 .3.26c.13.04.27.07.41.07a1.76 1.76 0 0 0 .53-.07l.3 1.4a4 4 0 0 1-1.05.18c-.45.02-.86-.05-1.22-.2a1.89 1.89 0 0 1-.86-.7 2.1 2.1 0 0 1-.31-1.2v-7.47Zm4.81 9.47v-7.64h1.8V73h-1.8Zm.9-8.72c-.28 0-.52-.1-.73-.28a.91.91 0 0 1-.3-.7c0-.27.1-.5.3-.69.2-.19.45-.28.74-.28.28 0 .53.1.73.28a.95.95 0 0 1 .01 1.39c-.21.19-.46.28-.74.28Zm6.08 8.87a3.7 3.7 0 0 1-1.94-.5 3.35 3.35 0 0 1-1.27-1.37 4.53 4.53 0 0 1-.45-2.07c0-.79.15-1.48.45-2.07.3-.6.73-1.06 1.27-1.38a3.7 3.7 0 0 1 1.94-.5c.75 0 1.4.17 1.94.5.55.32.97.79 1.27 1.38.3.6.45 1.28.45 2.07a4.5 4.5 0 0 1-.45 2.07c-.3.59-.72 1.05-1.27 1.38-.54.33-1.2.49-1.94.49Zm.01-1.44c.4 0 .75-.11 1.02-.34.27-.22.47-.52.6-.9.14-.38.2-.8.2-1.26 0-.47-.06-.9-.2-1.27a2 2 0 0 0-.6-.91 1.54 1.54 0 0 0-1.02-.34c-.41 0-.76.11-1.03.34a2 2 0 0 0-.61.9c-.14.39-.2.8-.2 1.28 0 .46.06.88.2 1.26.13.38.34.68.6.9.28.23.63.34 1.04.34Zm6.98-3.18V73h-1.8v-7.64h1.72v1.3h.09c.17-.43.45-.77.84-1.02.39-.25.87-.38 1.44-.38.52 0 .98.12 1.37.34.4.23.7.55.92.98.22.43.33.95.32 1.56V73h-1.8v-4.58c0-.51-.13-.91-.4-1.2a1.4 1.4 0 0 0-1.09-.43c-.31 0-.59.07-.83.2-.25.14-.44.34-.58.6a2 2 0 0 0-.2.94Zm12.77-1.15-1.64.18a1.33 1.33 0 0 0-.25-.47 1.21 1.21 0 0 0-.46-.35 1.62 1.62 0 0 0-.7-.13c-.38 0-.7.08-.95.24-.25.16-.37.37-.37.63 0 .22.08.4.25.54.16.14.44.26.83.35l1.3.27c.73.16 1.26.4 1.61.75.36.33.54.78.54 1.32 0 .48-.14.9-.42 1.28a2.7 2.7 0 0 1-1.15.85c-.5.2-1.05.3-1.7.3-.93 0-1.68-.19-2.25-.58a2.4 2.4 0 0 1-1.02-1.64l1.76-.17c.08.34.25.6.5.78.26.17.6.26 1.01.26.43 0 .77-.09 1.03-.26.26-.18.4-.4.4-.65 0-.22-.09-.4-.26-.54a1.76 1.76 0 0 0-.77-.33l-1.3-.28a3.1 3.1 0 0 1-1.63-.77 1.89 1.89 0 0 1-.52-1.38c0-.47.12-.88.38-1.22a2.5 2.5 0 0 1 1.09-.8c.47-.2 1-.3 1.61-.3.9 0 1.6.2 2.12.58.51.38.83.9.96 1.54Z" fill="#1F1F1F"/><path d="M479 48h159-159Zm159 42H479v-2h159v2Zm-159-1V48v41Zm159-41v41-41Z" fill="#F6F6F6" mask="url(#f)"/><path fill="#fff" d="M34 89h604v40H34z"/><g filter="url(#g)" fill="#fff"><path d="M34 89h40v40H34z"/><rect x="46.5" y="101" width="15" height="15" rx="1.5" stroke="#545454"/></g><g filter="url(#h)"><path fill="#fff" d="M74 89h122v40H74z"/><path d="M75.23 113.5v-10.18h3.44c.8 0 1.45.14 1.96.43s.89.67 1.14 1.16c.24.49.36 1.03.36 1.63 0 .6-.12 1.14-.36 1.63-.25.5-.62.89-1.13 1.18-.5.29-1.15.43-1.95.43h-2.46v-1.1h2.42c.55 0 .99-.09 1.32-.28.33-.19.57-.44.72-.76.15-.33.23-.7.23-1.1 0-.4-.08-.77-.23-1.1a1.68 1.68 0 0 0-.72-.75 2.75 2.75 0 0 0-1.34-.28h-2.16v9.09h-1.24Zm8.89-10.18h1.47l3.46 8.45h.12l3.46-8.45h1.47v10.18h-1.15v-7.74h-.1l-3.18 7.74h-1.12l-3.18-7.74h-.1v7.74h-1.15v-10.18Zm20.65 3.18h-1.23a2.57 2.57 0 0 0-1.04-1.61 2.78 2.78 0 0 0-.85-.42 3.4 3.4 0 0 0-.98-.14 3.1 3.1 0 0 0-2.86 1.85c-.3.6-.44 1.35-.44 2.23 0 .88.15 1.63.44 2.23.3.6.69 1.07 1.19 1.38.5.31 1.06.47 1.67.47a2.93 2.93 0 0 0 1.83-.56 2.64 2.64 0 0 0 1.03-1.61h1.24a3.8 3.8 0 0 1-2.65 3.1 4.55 4.55 0 0 1-3.77-.42 4.37 4.37 0 0 1-1.6-1.8 6.2 6.2 0 0 1-.57-2.8c0-1.07.2-2 .58-2.78a4.27 4.27 0 0 1 3.91-2.45c.52 0 1 .08 1.45.23a3.96 3.96 0 0 1 2.14 1.7c.25.41.41.88.5 1.4Zm9.33-3.18v10.18h-1.23v-8.89h-.06l-2.49 1.65v-1.25l2.55-1.7h1.23Zm6.37 10.32c-.66 0-1.24-.11-1.76-.34a3 3 0 0 1-1.22-.94c-.3-.4-.46-.87-.48-1.4h1.25c.03.32.14.6.34.85.2.23.46.41.78.54.32.13.68.2 1.07.2.44 0 .82-.08 1.16-.23.34-.16.6-.37.8-.64a1.87 1.87 0 0 0 .01-1.94 1.85 1.85 0 0 0-.82-.67c-.36-.16-.8-.24-1.31-.24h-.82v-1.1h.82c.4 0 .76-.07 1.06-.22a1.66 1.66 0 0 0 .98-1.55c0-.34-.07-.64-.22-.9a1.56 1.56 0 0 0-.65-.6 2.55 2.55 0 0 0-1.97-.02c-.3.13-.56.32-.75.56-.2.24-.3.53-.32.86h-1.2c.03-.53.19-1 .49-1.4.3-.4.7-.72 1.18-.94a3.83 3.83 0 0 1 3.24.04 2.62 2.62 0 0 1 1.4 2.34 2.3 2.3 0 0 1-1.67 2.3v.09c.64.1 1.14.38 1.5.82.37.44.55.98.55 1.63a2.6 2.6 0 0 1-.45 1.49c-.3.44-.71.78-1.23 1.03s-1.1.38-1.76.38Zm8.47-1.93v-6.56h1.12v6.56h-1.12Zm-2.72-2.72v-1.12h6.56V109h-6.56Z" fill="#333"/></g><g filter="url(#i)"><path fill="#fff" d="M196 89h158v40H196z"/><path d="M212.63 103.32v10.18h-1.23v-8.89h-.06l-2.49 1.65v-1.25l2.55-1.7h1.23Zm2.93 10.18v-.9l3.36-3.67c.4-.44.72-.8.98-1.13.25-.32.44-.62.56-.9.13-.29.2-.59.2-.9a1.65 1.65 0 0 0-.96-1.53 2.2 2.2 0 0 0-1-.22c-.39 0-.73.08-1.02.25-.29.16-.51.38-.67.67a2.1 2.1 0 0 0-.23 1.01h-1.18a2.87 2.87 0 0 1 1.54-2.63 3.38 3.38 0 0 1 1.6-.37c.6 0 1.13.13 1.59.38a2.8 2.8 0 0 1 1.28 3.54c-.14.36-.37.75-.7 1.19-.33.43-.79.96-1.37 1.6l-2.29 2.44v.08H222v1.09h-6.43Zm12.1-10.66-3.28 12.2h-1.08l3.28-12.2h1.08Zm4.69 10.8a3 3 0 0 1-1.91-.61c-.53-.41-.93-1-1.21-1.79a8.5 8.5 0 0 1-.42-2.83c0-1.1.14-2.04.42-2.82.28-.78.68-1.38 1.21-1.79a3 3 0 0 1 1.91-.62c.74 0 1.38.2 1.9.62.53.41.94 1 1.22 1.79.28.78.42 1.72.42 2.82a8.5 8.5 0 0 1-.42 2.83 3.83 3.83 0 0 1-1.2 1.79c-.53.4-1.17.6-1.92.6Zm0-1.1c.74 0 1.32-.35 1.73-1.07a6.2 6.2 0 0 0 .62-3.06c0-.88-.1-1.63-.29-2.25a3.09 3.09 0 0 0-.8-1.42 1.78 1.78 0 0 0-1.26-.49c-.74 0-1.31.37-1.73 1.1a6.23 6.23 0 0 0-.62 3.06c0 .88.1 1.63.28 2.25.19.61.45 1.08.8 1.4.35.33.78.48 1.27.48Zm5.43.96v-.9l3.36-3.67c.4-.44.72-.8.97-1.13.26-.32.45-.62.57-.9.13-.29.19-.59.19-.9a1.66 1.66 0 0 0-.96-1.53 2.12 2.12 0 0 0-.99-.22c-.39 0-.73.08-1.02.25-.3.16-.52.38-.68.67a2.1 2.1 0 0 0-.23 1.01h-1.17a2.87 2.87 0 0 1 1.54-2.63 3.38 3.38 0 0 1 1.6-.37c.6 0 1.13.13 1.59.38a2.8 2.8 0 0 1 1.27 3.54 4.9 4.9 0 0 1-.7 1.19c-.33.43-.78.96-1.36 1.6l-2.3 2.44v.08h4.74v1.09h-6.42Zm12.1-10.66-3.29 12.2h-1.07l3.28-12.2h1.07Zm1.37 10.66v-.9l3.36-3.67c.4-.44.71-.8.97-1.13.26-.32.44-.62.57-.9.12-.29.19-.59.19-.9a1.66 1.66 0 0 0-.96-1.53 2.2 2.2 0 0 0-1-.22c-.38 0-.72.08-1.02.25-.29.16-.5.38-.67.67a2.1 2.1 0 0 0-.23 1.01h-1.18a2.86 2.86 0 0 1 1.54-2.63 3.39 3.39 0 0 1 1.6-.37c.6 0 1.13.13 1.6.38.45.25.81.59 1.08 1.02.26.42.39.9.39 1.42 0 .38-.07.74-.2 1.1a4.9 4.9 0 0 1-.7 1.19c-.33.43-.78.96-1.37 1.6l-2.28 2.44v.08h4.73v1.09h-6.43Zm11.8.14a3 3 0 0 1-1.92-.61c-.53-.41-.93-1-1.2-1.79a8.47 8.47 0 0 1-.43-2.83c0-1.1.14-2.04.42-2.82a3.9 3.9 0 0 1 1.21-1.79 3 3 0 0 1 1.91-.62c.75 0 1.38.2 1.9.62.54.41.94 1 1.22 1.79.28.78.42 1.72.42 2.82 0 1.1-.14 2.05-.41 2.83a3.82 3.82 0 0 1-1.21 1.79c-.53.4-1.17.6-1.92.6Zm0-1.1c.74 0 1.31-.35 1.72-1.07a6.2 6.2 0 0 0 .62-3.06c0-.88-.1-1.63-.28-2.25a3.09 3.09 0 0 0-.8-1.42 1.78 1.78 0 0 0-1.27-.49c-.73 0-1.3.37-1.72 1.1a6.23 6.23 0 0 0-.62 3.06c0 .88.09 1.63.28 2.25.18.61.45 1.08.8 1.4.35.33.77.48 1.26.48Zm5.42.96v-.9l3.36-3.67c.4-.44.72-.8.98-1.13.25-.32.44-.62.56-.9.13-.29.2-.59.2-.9a1.65 1.65 0 0 0-.96-1.53 2.2 2.2 0 0 0-1-.22c-.39 0-.73.08-1.02.25-.29.16-.51.38-.67.67a2.1 2.1 0 0 0-.24 1.01h-1.17a2.87 2.87 0 0 1 1.54-2.63 3.38 3.38 0 0 1 1.6-.37c.6 0 1.13.13 1.59.38a2.8 2.8 0 0 1 1.28 3.54c-.14.36-.37.75-.7 1.19-.33.43-.79.96-1.37 1.6l-2.29 2.44v.08h4.73v1.09h-6.42Zm11.92.14c-.66 0-1.24-.11-1.76-.34a3 3 0 0 1-1.21-.94c-.3-.4-.47-.87-.5-1.4h1.26c.03.32.14.6.34.85.2.23.46.41.78.54.32.13.68.2 1.07.2.44 0 .82-.08 1.16-.23.34-.16.6-.37.8-.64a1.78 1.78 0 0 0 .01-1.93 1.85 1.85 0 0 0-.82-.68c-.36-.16-.8-.24-1.31-.24h-.81v-1.1h.81c.4 0 .76-.07 1.06-.22.31-.14.55-.35.73-.61.17-.27.26-.58.26-.94 0-.34-.08-.64-.23-.9a1.55 1.55 0 0 0-.65-.6 2.56 2.56 0 0 0-1.97-.02c-.3.13-.56.32-.75.56-.2.24-.3.53-.32.86h-1.2c.03-.53.19-1 .49-1.4.3-.4.7-.72 1.18-.94a3.83 3.83 0 0 1 3.24.04 2.7 2.7 0 0 1 1.4 2.34 2.3 2.3 0 0 1-1.67 2.3v.09c.64.1 1.15.38 1.5.82.37.44.55.98.55 1.63a2.6 2.6 0 0 1-.45 1.49c-.3.44-.7.78-1.23 1.03-.51.25-1.1.38-1.76.38Z" fill="#333"/></g><g filter="url(#j)"><path fill="#fff" d="M354 89h125v40H354z"/><rect x="365.5" y="96" width="65" height="25" rx="4.5" fill="#E9F8E9"/><path d="M371.5 113.5v-10.18h6.1v1.1h-4.87v3.43h4.41v1.1h-4.41v4.55h-1.24Zm8.05 0v-7.64h1.17v7.64h-1.17Zm.6-8.9a.83.83 0 0 1-.6-.24.75.75 0 0 1-.24-.56c0-.22.08-.41.25-.57a.83.83 0 0 1 .59-.23c.23 0 .42.08.58.23.17.16.25.35.25.56 0 .22-.08.41-.25.57a.82.82 0 0 1-.58.23Zm3.9 4.3v4.6h-1.18v-7.64h1.14v1.2h.1c.18-.4.45-.7.81-.94.37-.24.84-.36 1.41-.36.52 0 .97.11 1.36.32.39.21.69.53.9.96.22.42.33.96.33 1.6v4.86h-1.18v-4.77c0-.6-.15-1.07-.46-1.4a1.65 1.65 0 0 0-1.28-.51c-.38 0-.71.08-1 .24-.3.16-.53.4-.7.71-.17.31-.25.7-.25 1.14Zm7.01 4.6v-7.64h1.18v7.64h-1.18Zm.6-8.9a.83.83 0 0 1-.6-.24.75.75 0 0 1-.24-.56c0-.22.08-.41.25-.57a.83.83 0 0 1 .59-.23c.23 0 .42.08.58.23.17.16.25.35.25.56 0 .22-.08.41-.25.57a.82.82 0 0 1-.58.23Zm8.13 2.97-1.05.3a1.99 1.99 0 0 0-.3-.51c-.12-.17-.3-.3-.51-.42-.22-.1-.5-.16-.84-.16a2 2 0 0 0-1.17.32c-.3.21-.46.48-.46.81 0 .3.1.52.32.7.2.16.54.3 1 .42l1.12.27c.69.17 1.2.42 1.53.77.33.33.5.77.5 1.3 0 .44-.12.83-.38 1.17-.24.35-.6.62-1.04.82-.45.2-.97.3-1.56.3-.78 0-1.42-.17-1.93-.5a2.25 2.25 0 0 1-.97-1.49l1.11-.28c.1.41.3.72.6.93.3.2.69.3 1.17.3.55 0 .98-.11 1.3-.34.33-.24.49-.52.49-.85a.9.9 0 0 0-.28-.66 1.76 1.76 0 0 0-.85-.41l-1.28-.3a3.04 3.04 0 0 1-1.54-.77 1.86 1.86 0 0 1-.48-1.32c0-.43.12-.81.36-1.14.24-.33.58-.6 1-.78.42-.2.9-.29 1.44-.29.76 0 1.35.17 1.78.5.43.33.74.77.92 1.31Zm3.08 1.34v4.59h-1.17v-10.18h1.17v3.74h.1c.18-.4.45-.71.8-.94.37-.24.85-.36 1.45-.36.52 0 .97.1 1.37.32.39.2.69.52.9.95.22.42.33.96.33 1.62v4.85h-1.17v-4.77a2 2 0 0 0-.47-1.41c-.31-.33-.75-.5-1.3-.5-.38 0-.73.08-1.03.24-.3.16-.54.4-.72.71a2.3 2.3 0 0 0-.26 1.14Zm10.3 4.75a3.27 3.27 0 0 1-3.13-1.86 4.68 4.68 0 0 1-.43-2.06c0-.78.14-1.47.43-2.07a3.23 3.23 0 0 1 3.01-1.9c.4 0 .8.06 1.18.2a2.93 2.93 0 0 1 1.82 1.81 5 5 0 0 1 .28 1.8v.5h-5.88v-1.02h4.7c0-.43-.1-.81-.27-1.15a1.94 1.94 0 0 0-1.83-1.1c-.47 0-.87.12-1.21.36-.34.22-.6.52-.78.9-.18.36-.27.75-.27 1.17v.68c0 .58.1 1.07.3 1.47.2.4.48.7.83.9.36.21.78.31 1.25.31.31 0 .59-.04.84-.12.25-.1.47-.23.65-.4.18-.18.32-.4.42-.67l1.13.32c-.11.38-.31.72-.6 1.01-.28.3-.63.52-1.04.68-.42.16-.88.24-1.4.24Zm7.83 0a3 3 0 0 1-2.83-1.85c-.27-.6-.4-1.3-.4-2.1 0-.81.13-1.5.4-2.1a3.03 3.03 0 0 1 2.85-1.85c.5 0 .9.09 1.18.25a2 2 0 0 1 .67.56l.36.5h.1v-3.75h1.17v10.18h-1.13v-1.17h-.14c-.09.14-.2.31-.37.52-.16.21-.38.4-.68.57-.3.16-.69.24-1.18.24Zm.16-1.05a2 2 0 0 0 1.2-.37c.32-.25.57-.6.74-1.03.16-.44.25-.95.25-1.53 0-.57-.08-1.07-.25-1.5a1.96 1.96 0 0 0-1.94-1.37c-.5 0-.91.14-1.24.4-.33.24-.58.59-.74 1.02a4.33 4.33 0 0 0 0 2.93c.17.44.42.8.75 1.06s.74.39 1.23.39Z" fill="#005509"/><rect x="365.5" y="96" width="65" height="25" rx="4.5" stroke="#fff"/></g><g filter="url(#k)"><path fill="#fff" d="M479 89h159v40H479z"/><path fill-rule="evenodd" clip-rule="evenodd" d="m482.71 108.5.28.44c.25.35.63.84 1.15 1.31a7.01 7.01 0 0 0 4.86 1.92c2.23 0 3.82-.96 4.86-1.92a8.15 8.15 0 0 0 1.42-1.75l-.27-.44a8.1 8.1 0 0 0-1.15-1.31 7.01 7.01 0 0 0-4.86-1.92c-2.23 0-3.82.96-4.86 1.92a8.1 8.1 0 0 0-1.42 1.75Zm12.96 0 .3-.15-.01-.02-.02-.03-.08-.14a8.75 8.75 0 0 0-1.55-1.9 7.68 7.68 0 0 0-5.31-2.1 7.68 7.68 0 0 0-5.3 2.1 8.77 8.77 0 0 0-1.66 2.07v.02l.3.15-.3-.15-.08.15.08.15.3-.15-.3.15v.02l.02.03.08.14.3.47c.28.4.69.91 1.25 1.44a7.68 7.68 0 0 0 5.31 2.08 7.68 7.68 0 0 0 5.31-2.08 8.8 8.8 0 0 0 1.55-1.91l.08-.14.02-.03v-.02l-.3-.15Zm0 0 .3.15.07-.15-.08-.15-.3.15Zm-6.67-1.67a1.67 1.67 0 1 0 0 3.34 1.67 1.67 0 0 0 0-3.34Zm-2.33 1.67a2.33 2.33 0 1 1 4.66 0 2.33 2.33 0 0 1-4.66 0Z" fill="#0F67F5"/><path d="m495.67 108.5.3-.15m-.3.15.3.15h0l-.01.02-.02.03-.08.14-.3.47a8.8 8.8 0 0 1-1.25 1.44 7.68 7.68 0 0 1-5.31 2.08 7.68 7.68 0 0 1-5.3-2.08 8.8 8.8 0 0 1-1.66-2.08v-.02h0m13.63-.15.3.15.07-.15-.08-.15m-.3.15.3-.15m0 0h0v-.02l-.02-.03-.08-.14a8.75 8.75 0 0 0-1.55-1.9 7.68 7.68 0 0 0-5.31-2.1 7.68 7.68 0 0 0-5.3 2.1 8.77 8.77 0 0 0-1.66 2.07v.02h0l.3.15m0 0-.3-.15-.08.15.08.15m.3-.15-.3.15m.3-.15-.3.15m.68-.15s0 0 0 0 0 0 0 0l.27-.44a8.1 8.1 0 0 1 1.15-1.31 7.01 7.01 0 0 1 4.86-1.92c2.23 0 3.82.96 4.86 1.92a8.1 8.1 0 0 1 1.42 1.75s0 0 0 0 0 0 0 0a7.22 7.22 0 0 1-1.42 1.75 7.01 7.01 0 0 1-4.86 1.92 7.01 7.01 0 0 1-4.86-1.92 8.15 8.15 0 0 1-1.42-1.75Zm4.61 0a1.67 1.67 0 1 1 3.34 0 1.67 1.67 0 0 1-3.34 0Zm1.67-2.33a2.33 2.33 0 1 0 0 4.66 2.33 2.33 0 0 0 0-4.66Z" stroke="#0F67F5" stroke-linecap="round"/><path d="m506.65 103.32 3.02 8.57h.12l3.03-8.57h1.29l-3.74 10.18h-1.27l-3.74-10.18h1.3Zm8.88 10.18v-7.64h1.18v7.64h-1.18Zm.6-8.9a.83.83 0 0 1-.59-.24.75.75 0 0 1-.24-.56c0-.22.08-.41.24-.57a.83.83 0 0 1 .6-.23c.22 0 .42.08.58.23.16.16.25.35.25.56 0 .22-.09.41-.25.57a.82.82 0 0 1-.59.23Zm5.93 9.06a3.27 3.27 0 0 1-3.13-1.86 4.68 4.68 0 0 1-.43-2.06c0-.78.14-1.47.43-2.07a3.23 3.23 0 0 1 3.01-1.9c.4 0 .79.06 1.18.2a2.93 2.93 0 0 1 1.82 1.81 5 5 0 0 1 .28 1.8v.5h-5.89v-1.02h4.7c0-.43-.09-.81-.26-1.15a1.94 1.94 0 0 0-1.83-1.1c-.47 0-.87.12-1.21.36-.34.22-.6.52-.78.9-.19.36-.28.75-.28 1.17v.68c0 .58.1 1.07.3 1.47.2.4.48.7.84.9.36.21.78.31 1.25.31a1.93 1.93 0 0 0 1.48-.52c.19-.18.33-.4.43-.67l1.13.32a2.5 2.5 0 0 1-.6 1.01c-.28.3-.63.52-1.04.68-.42.16-.88.24-1.4.24Zm6.68-.16-2.33-7.64h1.23l1.65 5.85h.08l1.63-5.85h1.26l1.6 5.83h.09l1.65-5.83h1.23l-2.33 7.64h-1.15l-1.67-5.87h-.12l-1.67 5.87h-1.15Zm13.58 0v-7.64h1.13v1.16h.08c.14-.38.4-.69.76-.92.36-.24.77-.36 1.23-.36a14.75 14.75 0 0 1 .62.02v1.2a3.7 3.7 0 0 0-.72-.08c-.37 0-.7.08-1 .23a1.71 1.71 0 0 0-.94 1.56v4.83h-1.16Zm8.18.16a3.28 3.28 0 0 1-3.13-1.86 4.68 4.68 0 0 1-.43-2.06c0-.78.14-1.47.42-2.07.3-.6.7-1.06 1.2-1.4a3.6 3.6 0 0 1 2.99-.3 2.93 2.93 0 0 1 1.83 1.81 5 5 0 0 1 .28 1.8v.5h-5.89v-1.02h4.7c0-.43-.1-.81-.26-1.15a1.94 1.94 0 0 0-1.83-1.1 2.2 2.2 0 0 0-2 1.26c-.18.36-.27.75-.27 1.17v.68c0 .58.1 1.07.3 1.47.2.4.48.7.84.9.36.21.77.31 1.25.31.3 0 .58-.04.83-.12a1.7 1.7 0 0 0 1.07-1.07l1.14.32a2.5 2.5 0 0 1-.6 1.01 2.9 2.9 0 0 1-1.05.68c-.41.16-.88.24-1.4.24Zm10.35-6.09-1.05.3a1.95 1.95 0 0 0-.3-.51c-.12-.17-.3-.3-.51-.42-.22-.1-.5-.16-.84-.16a2 2 0 0 0-1.17.32c-.3.21-.46.48-.46.81 0 .3.1.52.32.7.2.16.54.3.99.42l1.13.27c.69.17 1.2.42 1.53.77.33.33.5.77.5 1.3 0 .44-.13.83-.38 1.17-.25.35-.6.62-1.04.82-.45.2-.97.3-1.56.3-.78 0-1.42-.17-1.94-.5a2.25 2.25 0 0 1-.97-1.49l1.12-.28c.1.41.3.72.6.93.3.2.69.3 1.17.3.54 0 .98-.11 1.3-.34.33-.24.49-.52.49-.85a.9.9 0 0 0-.28-.66 1.77 1.77 0 0 0-.86-.41l-1.27-.3a3.04 3.04 0 0 1-1.54-.77 1.86 1.86 0 0 1-.49-1.32c0-.43.13-.81.37-1.14.24-.33.57-.6 1-.78.42-.2.9-.29 1.44-.29.75 0 1.35.17 1.78.5.43.33.74.77.92 1.31Zm6.72 2.8v-4.5h1.17v7.63h-1.17v-1.3h-.08a2.5 2.5 0 0 1-.84 1c-.37.27-.85.4-1.43.4-.47 0-.9-.1-1.27-.31a2.19 2.19 0 0 1-.87-.96 3.63 3.63 0 0 1-.32-1.61v-4.86h1.17v4.78c0 .55.16 1 .47 1.33.31.33.71.5 1.2.5a2 2 0 0 0 1.97-2.1Zm4.5-7.05v10.18h-1.18v-10.18h1.18Zm5.47 2.54v1h-3.96v-1h3.96Zm-2.8-1.83h1.16v7.28c0 .33.05.58.15.75.1.16.22.27.38.33.15.05.32.08.49.08l.32-.02.2-.04.23 1.05a2.41 2.41 0 0 1-.87.14c-.33 0-.66-.07-.97-.21a1.94 1.94 0 0 1-.79-.66 1.9 1.9 0 0 1-.3-1.1v-7.6Zm9.83 3.54-1.05.3a1.93 1.93 0 0 0-.3-.51c-.12-.17-.3-.3-.51-.42-.22-.1-.5-.16-.84-.16a2 2 0 0 0-1.17.32c-.3.21-.46.48-.46.81 0 .3.1.52.32.7.2.16.54.3.99.42l1.13.27c.69.17 1.2.42 1.53.77.33.33.5.77.5 1.3 0 .44-.12.83-.38 1.17-.24.35-.6.62-1.04.82-.45.2-.97.3-1.56.3-.78 0-1.42-.17-1.94-.5a2.25 2.25 0 0 1-.96-1.49l1.1-.28c.12.41.32.72.61.93.3.2.69.3 1.17.3.55 0 .98-.11 1.3-.34.33-.24.49-.52.49-.85a.9.9 0 0 0-.28-.66 1.77 1.77 0 0 0-.86-.41l-1.27-.3a3.04 3.04 0 0 1-1.54-.77 1.87 1.87 0 0 1-.49-1.32c0-.43.13-.81.37-1.14.24-.33.58-.6 1-.78.42-.2.9-.29 1.44-.29.75 0 1.35.17 1.78.5.43.33.74.77.92 1.31Z" fill="#0F67F5"/><path fill-rule="evenodd" clip-rule="evenodd" d="M609 108.5a1 1 0 1 1 2 0 1 1 0 0 1-2 0Zm1-.33a.33.33 0 1 0 0 .66.33.33 0 0 0 0-.66Zm3 .33a1 1 0 1 1 2 0 1 1 0 0 1-2 0Zm1-.33a.33.33 0 1 0 0 .66.33.33 0 0 0 0-.66Zm3 .33a1 1 0 1 1 2 0 1 1 0 0 1-2 0Zm1-.33a.33.33 0 1 0 0 .66.33.33 0 0 0 0-.66Z" fill="#0F67F5" stroke="#0F67F5"/><rect x="602.5" y="97" width="23" height="23" rx="3.5" stroke="#fff"/></g><path fill="#fff" d="M34 129h604v40H34z"/><g filter="url(#l)" fill="#fff"><path d="M34 129h40v40H34z"/><rect x="46.5" y="141" width="15" height="15" rx="1.5" stroke="#545454"/></g><g filter="url(#m)"><path fill="#fff" d="M74 129h122v40H74z"/><path d="M75.23 153.5v-10.18h3.44c.8 0 1.45.14 1.96.43s.89.67 1.14 1.16c.24.49.36 1.03.36 1.63 0 .6-.12 1.15-.36 1.64-.25.49-.62.88-1.13 1.17-.5.29-1.15.43-1.95.43h-2.46v-1.1h2.42c.55 0 .99-.09 1.32-.28.33-.19.57-.44.72-.76.15-.33.23-.7.23-1.1 0-.4-.08-.77-.23-1.1a1.68 1.68 0 0 0-.72-.75 2.75 2.75 0 0 0-1.34-.28h-2.16v9.09h-1.24Zm8.89-10.18h1.47l3.46 8.45h.12l3.46-8.45h1.47v10.18h-1.15v-7.74h-.1l-3.18 7.74h-1.12l-3.18-7.74h-.1v7.74h-1.15v-10.18Zm20.65 3.18h-1.23a2.57 2.57 0 0 0-1.04-1.61 2.78 2.78 0 0 0-.85-.42 3.4 3.4 0 0 0-.98-.14 3.1 3.1 0 0 0-2.86 1.85c-.3.6-.44 1.35-.44 2.23 0 .88.15 1.63.44 2.23.3.6.69 1.07 1.19 1.38.5.31 1.06.47 1.67.47a2.93 2.93 0 0 0 1.83-.56 2.64 2.64 0 0 0 1.03-1.61h1.24a3.8 3.8 0 0 1-2.65 3.1 4.55 4.55 0 0 1-3.77-.42 4.37 4.37 0 0 1-1.6-1.8 6.2 6.2 0 0 1-.57-2.8c0-1.06.2-2 .58-2.78a4.27 4.27 0 0 1 3.91-2.45c.52 0 1 .08 1.45.23a3.96 3.96 0 0 1 2.14 1.7c.25.41.41.88.5 1.4Zm9.33-3.18v10.18h-1.23v-8.89h-.06l-2.49 1.65v-1.25l2.55-1.7h1.23Zm6.37 10.32c-.66 0-1.24-.11-1.76-.34a3 3 0 0 1-1.22-.94c-.3-.4-.46-.87-.48-1.4h1.25c.03.32.14.6.34.84s.46.42.78.55c.32.13.68.2 1.07.2.44 0 .82-.08 1.16-.23.34-.16.6-.37.8-.64a1.87 1.87 0 0 0 .01-1.94 1.85 1.85 0 0 0-.82-.67c-.36-.16-.8-.24-1.31-.24h-.82v-1.1h.82c.4 0 .76-.07 1.06-.22a1.66 1.66 0 0 0 .98-1.55c0-.34-.07-.64-.22-.9a1.56 1.56 0 0 0-.65-.6 2.55 2.55 0 0 0-1.97-.02c-.3.13-.56.32-.75.56-.2.24-.3.53-.32.86h-1.2c.03-.53.19-1 .49-1.4.3-.4.7-.72 1.18-.94a3.83 3.83 0 0 1 3.24.04 2.62 2.62 0 0 1 1.4 2.34 2.3 2.3 0 0 1-1.67 2.3v.09c.64.1 1.14.38 1.5.82.37.44.55.98.55 1.63a2.6 2.6 0 0 1-.45 1.49c-.3.44-.71.78-1.23 1.03s-1.1.38-1.76.38Zm8.47-1.93v-6.56h1.12v6.56h-1.12Zm-2.72-2.72v-1.12h6.56V149h-6.56Z" fill="#333"/></g><g filter="url(#n)"><path fill="#fff" d="M196 129h158v40H196z"/><path d="M212.63 143.32v10.18h-1.23v-8.89h-.06l-2.49 1.65v-1.25l2.55-1.7h1.23Zm2.93 10.18v-.9l3.36-3.67c.4-.44.72-.8.98-1.13.25-.32.44-.62.56-.9.13-.29.2-.59.2-.9a1.65 1.65 0 0 0-.96-1.53 2.2 2.2 0 0 0-1-.22c-.39 0-.73.08-1.02.25-.29.16-.51.38-.67.67a2.1 2.1 0 0 0-.23 1.01h-1.18a2.87 2.87 0 0 1 1.54-2.63 3.38 3.38 0 0 1 1.6-.37c.6 0 1.13.13 1.59.38a2.8 2.8 0 0 1 1.28 3.54c-.14.36-.37.75-.7 1.19-.33.43-.79.96-1.37 1.6l-2.29 2.44v.08H222v1.09h-6.43Zm12.1-10.66-3.28 12.2h-1.08l3.28-12.2h1.08Zm4.69 10.8a3 3 0 0 1-1.91-.61c-.53-.41-.93-1-1.21-1.79a8.5 8.5 0 0 1-.42-2.83c0-1.1.14-2.04.42-2.82.28-.78.68-1.38 1.21-1.79a3 3 0 0 1 1.91-.62c.74 0 1.38.2 1.9.62.53.41.94 1 1.22 1.79.28.78.42 1.72.42 2.82a8.5 8.5 0 0 1-.42 2.83 3.83 3.83 0 0 1-1.2 1.79c-.53.4-1.17.6-1.92.6Zm0-1.1c.74 0 1.32-.35 1.73-1.07a6.2 6.2 0 0 0 .62-3.06c0-.88-.1-1.63-.29-2.25a3.09 3.09 0 0 0-.8-1.42 1.78 1.78 0 0 0-1.26-.49c-.74 0-1.31.37-1.73 1.1a6.23 6.23 0 0 0-.62 3.06c0 .88.1 1.63.28 2.25.19.61.45 1.08.8 1.4.35.32.78.48 1.27.48Zm5.43.96v-.9l3.36-3.67c.4-.44.72-.8.97-1.13.26-.32.45-.62.57-.9.13-.29.19-.59.19-.9a1.66 1.66 0 0 0-.96-1.53 2.12 2.12 0 0 0-.99-.22c-.39 0-.73.08-1.02.25-.3.16-.52.38-.68.67a2.1 2.1 0 0 0-.23 1.01h-1.17a2.87 2.87 0 0 1 1.54-2.63 3.38 3.38 0 0 1 1.6-.37c.6 0 1.13.13 1.59.38a2.8 2.8 0 0 1 1.27 3.54 4.9 4.9 0 0 1-.7 1.19c-.33.43-.78.96-1.36 1.6l-2.3 2.44v.08h4.74v1.09h-6.42Zm12.1-10.66-3.29 12.2h-1.07l3.28-12.2h1.07Zm1.37 10.66v-.9l3.36-3.67c.4-.44.71-.8.97-1.13.26-.32.44-.62.57-.9.12-.29.19-.59.19-.9a1.66 1.66 0 0 0-.96-1.53 2.2 2.2 0 0 0-1-.22c-.38 0-.72.08-1.02.25-.29.16-.5.38-.67.67a2.1 2.1 0 0 0-.23 1.01h-1.18a2.86 2.86 0 0 1 1.54-2.63 3.39 3.39 0 0 1 1.6-.37c.6 0 1.13.13 1.6.38.45.25.81.59 1.08 1.02.26.42.39.9.39 1.42 0 .38-.07.74-.2 1.1a4.9 4.9 0 0 1-.7 1.19c-.33.43-.78.96-1.37 1.6l-2.28 2.44v.08h4.73v1.09h-6.43Zm11.8.14a3 3 0 0 1-1.92-.61c-.53-.41-.93-1-1.2-1.79a8.47 8.47 0 0 1-.43-2.83c0-1.1.14-2.04.42-2.82a3.9 3.9 0 0 1 1.21-1.79 3 3 0 0 1 1.91-.62c.75 0 1.38.2 1.9.62.54.41.94 1 1.22 1.79.28.78.42 1.72.42 2.82 0 1.1-.14 2.05-.41 2.83a3.82 3.82 0 0 1-1.21 1.79c-.53.4-1.17.6-1.92.6Zm0-1.1c.74 0 1.31-.35 1.72-1.07a6.2 6.2 0 0 0 .62-3.06c0-.88-.1-1.63-.28-2.25a3.09 3.09 0 0 0-.8-1.42 1.78 1.78 0 0 0-1.27-.49c-.73 0-1.3.37-1.72 1.1a6.23 6.23 0 0 0-.62 3.06c0 .88.09 1.63.28 2.25.18.61.45 1.08.8 1.4.35.32.77.48 1.26.48Zm5.42.96v-.9l3.36-3.67c.4-.44.72-.8.98-1.13.25-.32.44-.62.56-.9.13-.29.2-.59.2-.9a1.65 1.65 0 0 0-.96-1.53 2.2 2.2 0 0 0-1-.22c-.39 0-.73.08-1.02.25-.29.16-.51.38-.67.67a2.1 2.1 0 0 0-.24 1.01h-1.17a2.87 2.87 0 0 1 1.54-2.63 3.38 3.38 0 0 1 1.6-.37c.6 0 1.13.13 1.59.38a2.8 2.8 0 0 1 1.28 3.54c-.14.36-.37.75-.7 1.19-.33.43-.79.96-1.37 1.6l-2.29 2.44v.08h4.73v1.09h-6.42Zm11.92.14c-.66 0-1.24-.11-1.76-.34a3 3 0 0 1-1.21-.94c-.3-.4-.47-.87-.5-1.4h1.26c.03.32.14.6.34.84s.46.42.78.55c.32.13.68.2 1.07.2.44 0 .82-.08 1.16-.23.34-.16.6-.37.8-.64a1.78 1.78 0 0 0 .01-1.93 1.85 1.85 0 0 0-.82-.68c-.36-.16-.8-.24-1.31-.24h-.81v-1.1h.81c.4 0 .76-.07 1.06-.22.31-.14.55-.35.73-.61.17-.27.26-.58.26-.94 0-.34-.08-.64-.23-.9a1.55 1.55 0 0 0-.65-.6 2.56 2.56 0 0 0-1.97-.02c-.3.13-.56.32-.75.56-.2.24-.3.53-.32.86h-1.2c.03-.53.19-1 .49-1.4.3-.4.7-.72 1.18-.94a3.83 3.83 0 0 1 3.24.04 2.7 2.7 0 0 1 1.4 2.34 2.3 2.3 0 0 1-1.67 2.3v.09c.64.1 1.15.38 1.5.82.37.44.55.98.55 1.63a2.6 2.6 0 0 1-.45 1.49c-.3.44-.7.78-1.23 1.03-.51.25-1.1.38-1.76.38Z" fill="#333"/></g><g filter="url(#o)"><path fill="#fff" d="M354 129h125v40H354z"/><rect x="365.5" y="136" width="65" height="25" rx="4.5" fill="#E9F8E9"/><path d="M371.5 153.5v-10.18h6.1v1.1h-4.87v3.43h4.41v1.1h-4.41v4.55h-1.24Zm8.05 0v-7.64h1.17v7.64h-1.17Zm.6-8.9a.83.83 0 0 1-.6-.24.75.75 0 0 1-.24-.57c0-.21.08-.4.25-.56a.83.83 0 0 1 .59-.23c.23 0 .42.08.58.23.17.16.25.35.25.56 0 .22-.08.41-.25.57a.82.82 0 0 1-.58.23Zm3.9 4.3v4.6h-1.18v-7.64h1.14v1.2h.1c.18-.4.45-.7.81-.94.37-.24.84-.36 1.41-.36.52 0 .97.11 1.36.32.39.21.69.53.9.96.22.42.33.96.33 1.6v4.86h-1.18v-4.77c0-.6-.15-1.07-.46-1.4a1.65 1.65 0 0 0-1.28-.51c-.38 0-.71.08-1 .24-.3.16-.53.4-.7.71-.17.31-.25.7-.25 1.14Zm7.01 4.6v-7.64h1.18v7.64h-1.18Zm.6-8.9a.83.83 0 0 1-.6-.24.75.75 0 0 1-.24-.57c0-.21.08-.4.25-.56a.83.83 0 0 1 .59-.23c.23 0 .42.08.58.23.17.16.25.35.25.56 0 .22-.08.41-.25.57a.82.82 0 0 1-.58.23Zm8.13 2.97-1.05.3a1.99 1.99 0 0 0-.3-.51c-.12-.17-.3-.3-.51-.42-.22-.1-.5-.16-.84-.16a2 2 0 0 0-1.17.32c-.3.21-.46.48-.46.81 0 .3.1.52.32.7.2.16.54.3 1 .42l1.12.27c.69.17 1.2.42 1.53.76.33.34.5.78.5 1.31 0 .44-.12.83-.38 1.17-.24.35-.6.62-1.04.82-.45.2-.97.3-1.56.3-.78 0-1.42-.17-1.93-.5a2.25 2.25 0 0 1-.97-1.49l1.11-.28c.1.41.3.72.6.93.3.2.69.3 1.17.3.55 0 .98-.11 1.3-.34.33-.24.49-.52.49-.85a.9.9 0 0 0-.28-.66 1.76 1.76 0 0 0-.85-.41l-1.28-.3a3.04 3.04 0 0 1-1.54-.77 1.86 1.86 0 0 1-.48-1.32c0-.43.12-.81.36-1.14.24-.33.58-.6 1-.78.42-.2.9-.29 1.44-.29.76 0 1.35.17 1.78.5.43.33.74.77.92 1.31Zm3.08 1.34v4.59h-1.17v-10.18h1.17v3.74h.1c.18-.4.45-.71.8-.94.37-.24.85-.36 1.45-.36.52 0 .97.1 1.37.32.39.2.69.52.9.95.22.42.33.96.33 1.62v4.85h-1.17v-4.77a2 2 0 0 0-.47-1.41c-.31-.33-.75-.5-1.3-.5-.38 0-.73.08-1.03.24-.3.16-.54.4-.72.71a2.3 2.3 0 0 0-.26 1.14Zm10.3 4.75a3.27 3.27 0 0 1-3.13-1.86 4.68 4.68 0 0 1-.43-2.06c0-.78.14-1.47.43-2.07a3.23 3.23 0 0 1 3.01-1.9c.4 0 .8.06 1.18.2a2.93 2.93 0 0 1 1.82 1.81 5 5 0 0 1 .28 1.8v.5h-5.88v-1.02h4.7c0-.43-.1-.81-.27-1.15a1.94 1.94 0 0 0-1.83-1.1 2.2 2.2 0 0 0-1.99 1.26c-.18.36-.27.75-.27 1.17v.68c0 .58.1 1.07.3 1.47.2.4.48.7.83.9.36.21.78.31 1.25.31.31 0 .59-.04.84-.12.25-.1.47-.23.65-.4.18-.18.32-.4.42-.67l1.13.32c-.11.39-.31.72-.6 1.01-.28.3-.63.52-1.04.68-.42.16-.88.24-1.4.24Zm7.83 0a3 3 0 0 1-2.83-1.85c-.27-.6-.4-1.3-.4-2.1 0-.81.13-1.5.4-2.1a3.03 3.03 0 0 1 2.85-1.85 2.12 2.12 0 0 1 1.85.81l.36.5h.1v-3.75h1.17v10.18h-1.13v-1.17h-.14c-.09.14-.2.31-.37.52-.16.21-.38.4-.68.56-.3.17-.69.25-1.18.25Zm.16-1.06c.47 0 .87-.12 1.2-.36.32-.25.57-.6.74-1.03.16-.44.25-.95.25-1.53 0-.57-.08-1.07-.25-1.5a1.96 1.96 0 0 0-1.94-1.37c-.5 0-.91.14-1.24.4-.33.24-.58.59-.74 1.02a4.33 4.33 0 0 0 0 2.93c.17.44.42.8.75 1.06s.74.38 1.23.38Z" fill="#005509"/><rect x="365.5" y="136" width="65" height="25" rx="4.5" stroke="#fff"/></g><g filter="url(#p)"><path fill="#fff" d="M479 129h159v40H479z"/><path fill-rule="evenodd" clip-rule="evenodd" d="m482.71 148.5.28.44c.25.35.63.84 1.15 1.31a7.01 7.01 0 0 0 4.86 1.92c2.23 0 3.82-.96 4.86-1.91a8.15 8.15 0 0 0 1.42-1.76l-.27-.44a8.1 8.1 0 0 0-1.15-1.31 7.01 7.01 0 0 0-4.86-1.92c-2.23 0-3.82.96-4.86 1.91a8.1 8.1 0 0 0-1.42 1.76Zm12.96 0 .3-.15-.01-.01-.02-.04-.08-.14a8.75 8.75 0 0 0-1.55-1.9 7.68 7.68 0 0 0-5.31-2.1 7.68 7.68 0 0 0-5.3 2.1 8.77 8.77 0 0 0-1.66 2.08v.01l.3.15-.3-.15-.08.15.08.15.3-.15-.3.15v.01l.02.04.08.14.3.47c.28.4.69.91 1.25 1.44a7.68 7.68 0 0 0 5.31 2.08 7.68 7.68 0 0 0 5.31-2.09 8.8 8.8 0 0 0 1.55-1.9l.08-.14.02-.03v-.02l-.3-.15Zm0 0 .3.15.07-.15-.08-.15-.3.15Zm-6.67-1.67a1.67 1.67 0 1 0 0 3.34 1.67 1.67 0 0 0 0-3.34Zm-2.33 1.67a2.33 2.33 0 1 1 4.66 0 2.33 2.33 0 0 1-4.66 0Z" fill="#0F67F5"/><path d="m495.67 148.5.3-.15m-.3.15.3.15h0l-.01.01-.02.04-.08.14-.3.47a8.8 8.8 0 0 1-1.25 1.44 7.68 7.68 0 0 1-5.31 2.08 7.68 7.68 0 0 1-5.3-2.09 8.8 8.8 0 0 1-1.66-2.08h0v-.01h0m13.63-.15.3.15.07-.15-.08-.15m-.3.15.3-.15m0 0h0v-.01l-.02-.04-.08-.14a8.75 8.75 0 0 0-1.55-1.9 7.68 7.68 0 0 0-5.31-2.1 7.68 7.68 0 0 0-5.3 2.1 8.77 8.77 0 0 0-1.66 2.08h0v.01l.3.15m0 0-.3-.15-.08.15.08.15m.3-.15-.3.15m.3-.15-.3.15m.68-.15s0 0 0 0 0 0 0 0l.27-.44a8.1 8.1 0 0 1 1.15-1.31 7.01 7.01 0 0 1 4.86-1.92c2.23 0 3.82.96 4.86 1.91a8.1 8.1 0 0 1 1.42 1.76s0 0 0 0 0 0 0 0a7.22 7.22 0 0 1-1.42 1.75 7.01 7.01 0 0 1-4.86 1.92 7.01 7.01 0 0 1-4.86-1.91 8.15 8.15 0 0 1-1.42-1.76Zm4.61 0a1.67 1.67 0 1 1 3.34 0 1.67 1.67 0 0 1-3.34 0Zm1.67-2.33a2.33 2.33 0 1 0 0 4.66 2.33 2.33 0 0 0 0-4.66Z" stroke="#0F67F5" stroke-linecap="round"/><path d="m506.65 143.32 3.02 8.57h.12l3.03-8.57h1.29l-3.74 10.18h-1.27l-3.74-10.18h1.3Zm8.88 10.18v-7.64h1.18v7.64h-1.18Zm.6-8.9a.83.83 0 0 1-.59-.24.75.75 0 0 1-.24-.57c0-.21.08-.4.24-.56a.83.83 0 0 1 .6-.23c.22 0 .42.08.58.23.16.16.25.35.25.56 0 .22-.09.41-.25.57a.82.82 0 0 1-.59.23Zm5.93 9.06a3.27 3.27 0 0 1-3.13-1.86 4.68 4.68 0 0 1-.43-2.06c0-.78.14-1.47.43-2.07a3.23 3.23 0 0 1 3.01-1.9c.4 0 .79.06 1.18.2a2.93 2.93 0 0 1 1.82 1.81 5 5 0 0 1 .28 1.8v.5h-5.89v-1.02h4.7c0-.43-.09-.81-.26-1.15a1.94 1.94 0 0 0-1.83-1.1 2.2 2.2 0 0 0-1.99 1.26c-.19.36-.28.75-.28 1.17v.68c0 .58.1 1.07.3 1.47.2.4.48.7.84.9.36.21.78.31 1.25.31a1.93 1.93 0 0 0 1.48-.52c.19-.18.33-.4.43-.67l1.13.32a2.5 2.5 0 0 1-.6 1.01c-.28.3-.63.52-1.04.68-.42.16-.88.24-1.4.24Zm6.68-.16-2.33-7.64h1.23l1.65 5.85h.08l1.63-5.85h1.26l1.6 5.83h.09l1.65-5.83h1.23l-2.33 7.64h-1.15l-1.67-5.87h-.12l-1.67 5.87h-1.15Zm13.58 0v-7.64h1.13v1.16h.08c.14-.38.4-.69.76-.92.36-.24.77-.36 1.23-.36a14.75 14.75 0 0 1 .62.02v1.2a3.7 3.7 0 0 0-.72-.08c-.37 0-.7.08-1 .23a1.71 1.71 0 0 0-.94 1.56v4.83h-1.16Zm8.18.16a3.28 3.28 0 0 1-3.13-1.86 4.68 4.68 0 0 1-.43-2.06c0-.78.14-1.47.42-2.07.3-.6.7-1.06 1.2-1.4a3.6 3.6 0 0 1 2.99-.3 2.93 2.93 0 0 1 1.83 1.81 5 5 0 0 1 .28 1.8v.5h-5.89v-1.02h4.7c0-.43-.1-.81-.26-1.15a1.94 1.94 0 0 0-1.83-1.1c-.47 0-.88.12-1.22.36-.33.23-.6.52-.78.9-.18.36-.27.75-.27 1.17v.68c0 .58.1 1.07.3 1.47.2.4.48.7.84.9.36.21.77.31 1.25.31.3 0 .58-.04.83-.12a1.7 1.7 0 0 0 1.07-1.07l1.14.32a2.5 2.5 0 0 1-.6 1.01 2.9 2.9 0 0 1-1.05.68c-.41.16-.88.24-1.4.24Zm10.35-6.09-1.05.3a1.95 1.95 0 0 0-.3-.51c-.12-.17-.3-.3-.51-.42-.22-.1-.5-.16-.84-.16a2 2 0 0 0-1.17.32c-.3.21-.46.48-.46.81 0 .3.1.52.32.7.2.16.54.3.99.42l1.13.27c.69.17 1.2.42 1.53.76.33.34.5.78.5 1.31 0 .44-.13.83-.38 1.17-.25.35-.6.62-1.04.82-.45.2-.97.3-1.56.3-.78 0-1.42-.17-1.94-.5a2.25 2.25 0 0 1-.97-1.49l1.12-.28c.1.41.3.72.6.93.3.2.69.3 1.17.3.54 0 .98-.11 1.3-.34.33-.24.49-.52.49-.85a.9.9 0 0 0-.28-.66 1.77 1.77 0 0 0-.86-.41l-1.27-.3a3.04 3.04 0 0 1-1.54-.77 1.86 1.86 0 0 1-.49-1.32c0-.43.13-.81.37-1.14.24-.33.57-.6 1-.78.42-.2.9-.29 1.44-.29.75 0 1.35.17 1.78.5.43.33.74.77.92 1.31Zm6.72 2.8v-4.5h1.17v7.63h-1.17v-1.3h-.08a2.5 2.5 0 0 1-.84 1c-.37.27-.85.4-1.43.4-.47 0-.9-.1-1.27-.31a2.19 2.19 0 0 1-.87-.96 3.63 3.63 0 0 1-.32-1.61v-4.86h1.17v4.78c0 .55.16 1 .47 1.33.31.33.71.5 1.2.5a2 2 0 0 0 1.97-2.1Zm4.5-7.05v10.18h-1.18v-10.18h1.18Zm5.47 2.54v1h-3.96v-1h3.96Zm-2.8-1.83h1.16v7.28c0 .33.05.58.15.75.1.16.22.27.38.33.15.05.32.08.49.08l.32-.02.2-.04.23 1.05a2.41 2.41 0 0 1-.87.14c-.33 0-.66-.07-.97-.21a1.94 1.94 0 0 1-.79-.66 1.9 1.9 0 0 1-.3-1.1v-7.6Zm9.83 3.54-1.05.3a1.93 1.93 0 0 0-.3-.51c-.12-.17-.3-.3-.51-.42-.22-.1-.5-.16-.84-.16a2 2 0 0 0-1.17.32c-.3.21-.46.48-.46.81 0 .3.1.52.32.7.2.16.54.3.99.42l1.13.27c.69.17 1.2.42 1.53.76.33.34.5.78.5 1.31 0 .44-.12.83-.38 1.17-.24.35-.6.62-1.04.82-.45.2-.97.3-1.56.3-.78 0-1.42-.17-1.94-.5a2.25 2.25 0 0 1-.96-1.49l1.1-.28c.12.41.32.72.61.93.3.2.69.3 1.17.3.55 0 .98-.11 1.3-.34.33-.24.49-.52.49-.85a.9.9 0 0 0-.28-.66 1.77 1.77 0 0 0-.86-.41l-1.27-.3a3.04 3.04 0 0 1-1.54-.77 1.87 1.87 0 0 1-.49-1.32c0-.43.13-.81.37-1.14.24-.33.58-.6 1-.78.42-.2.9-.29 1.44-.29.75 0 1.35.17 1.78.5.43.33.74.77.92 1.31Z" fill="#0F67F5"/><path fill-rule="evenodd" clip-rule="evenodd" d="M609 148.5a1 1 0 1 1 2 0 1 1 0 0 1-2 0Zm1-.33a.33.33 0 1 0 0 .66.33.33 0 0 0 0-.66Zm3 .33a1 1 0 1 1 2 0 1 1 0 0 1-2 0Zm1-.33a.33.33 0 1 0 0 .66.33.33 0 0 0 0-.66Zm3 .33a1 1 0 1 1 2 0 1 1 0 0 1-2 0Zm1-.33a.33.33 0 1 0 0 .66.33.33 0 0 0 0-.66Z" fill="#0F67F5" stroke="#0F67F5"/><rect x="602.5" y="137" width="23" height="23" rx="3.5" stroke="#fff"/></g><path fill="#fff" d="M34 169h604v40H34z"/><g filter="url(#q)" fill="#fff"><path d="M34 169h40v40H34z"/><rect x="46.5" y="181" width="15" height="15" rx="1.5" stroke="#545454"/></g><g filter="url(#r)"><path fill="#fff" d="M74 169h122v40H74z"/><path d="M75.23 193.5v-10.18h3.44c.8 0 1.45.14 1.96.43s.89.67 1.14 1.16c.24.49.36 1.03.36 1.63 0 .6-.12 1.15-.36 1.64-.25.49-.62.88-1.13 1.17-.5.29-1.15.43-1.95.43h-2.46v-1.1h2.42c.55 0 .99-.09 1.32-.28.33-.19.57-.44.72-.76.15-.33.23-.7.23-1.1 0-.4-.08-.77-.23-1.1a1.68 1.68 0 0 0-.72-.75 2.75 2.75 0 0 0-1.34-.28h-2.16v9.09h-1.24Zm8.89-10.18h1.47l3.46 8.45h.12l3.46-8.45h1.47v10.18h-1.15v-7.74h-.1l-3.18 7.74h-1.12l-3.18-7.74h-.1v7.74h-1.15v-10.18Zm20.65 3.18h-1.23a2.57 2.57 0 0 0-1.04-1.61 2.78 2.78 0 0 0-.85-.42 3.4 3.4 0 0 0-.98-.14 3.1 3.1 0 0 0-2.86 1.85c-.3.6-.44 1.35-.44 2.23 0 .88.15 1.63.44 2.23.3.6.69 1.07 1.19 1.38.5.31 1.06.47 1.67.47a2.93 2.93 0 0 0 1.83-.56 2.64 2.64 0 0 0 1.03-1.61h1.24a3.8 3.8 0 0 1-2.65 3.1 4.55 4.55 0 0 1-3.77-.42 4.37 4.37 0 0 1-1.6-1.8 6.2 6.2 0 0 1-.57-2.8c0-1.06.2-2 .58-2.78a4.27 4.27 0 0 1 3.91-2.45c.52 0 1 .08 1.45.23a3.96 3.96 0 0 1 2.14 1.7c.25.41.41.88.5 1.4Zm9.33-3.18v10.18h-1.23v-8.89h-.06l-2.49 1.65v-1.25l2.55-1.7h1.23Zm6.37 10.32c-.66 0-1.24-.11-1.76-.34a3 3 0 0 1-1.22-.94c-.3-.4-.46-.87-.48-1.4h1.25c.03.32.14.6.34.84s.46.42.78.55c.32.13.68.2 1.07.2.44 0 .82-.08 1.16-.23.34-.16.6-.37.8-.64a1.87 1.87 0 0 0 .01-1.94 1.85 1.85 0 0 0-.82-.67c-.36-.16-.8-.24-1.31-.24h-.82v-1.1h.82c.4 0 .76-.07 1.06-.22a1.66 1.66 0 0 0 .98-1.55c0-.34-.07-.64-.22-.9a1.56 1.56 0 0 0-.65-.6 2.55 2.55 0 0 0-1.97-.02c-.3.13-.56.32-.75.56-.2.24-.3.53-.32.86h-1.2c.03-.53.19-1 .49-1.4.3-.4.7-.72 1.18-.94a3.83 3.83 0 0 1 3.24.04 2.62 2.62 0 0 1 1.4 2.34 2.3 2.3 0 0 1-1.67 2.3v.09c.64.1 1.14.38 1.5.82.37.44.55.98.55 1.63a2.6 2.6 0 0 1-.45 1.49c-.3.44-.71.78-1.23 1.03s-1.1.38-1.76.38Zm8.47-1.93v-6.56h1.12v6.56h-1.12Zm-2.72-2.72v-1.12h6.56V189h-6.56Z" fill="#333"/></g><g filter="url(#s)"><path fill="#fff" d="M196 169h158v40H196z"/><path d="M212.63 183.32v10.18h-1.23v-8.89h-.06l-2.49 1.65v-1.25l2.55-1.7h1.23Zm2.93 10.18v-.9l3.36-3.67c.4-.44.72-.8.98-1.13.25-.32.44-.62.56-.9.13-.29.2-.59.2-.9a1.65 1.65 0 0 0-.96-1.53 2.2 2.2 0 0 0-1-.22c-.39 0-.73.08-1.02.25-.29.16-.51.38-.67.67a2.1 2.1 0 0 0-.23 1.01h-1.18a2.87 2.87 0 0 1 1.54-2.63 3.38 3.38 0 0 1 1.6-.37c.6 0 1.13.13 1.59.38a2.8 2.8 0 0 1 1.28 3.54c-.14.36-.37.75-.7 1.19-.33.43-.79.96-1.37 1.6l-2.29 2.44v.08H222v1.09h-6.43Zm12.1-10.66-3.28 12.2h-1.08l3.28-12.2h1.08Zm4.69 10.8a3 3 0 0 1-1.91-.61c-.53-.41-.93-1-1.21-1.79a8.5 8.5 0 0 1-.42-2.83c0-1.1.14-2.04.42-2.82.28-.78.68-1.38 1.21-1.79a3 3 0 0 1 1.91-.62c.74 0 1.38.2 1.9.62.53.41.94 1 1.22 1.79.28.78.42 1.72.42 2.82a8.5 8.5 0 0 1-.42 2.83 3.83 3.83 0 0 1-1.2 1.79c-.53.4-1.17.6-1.92.6Zm0-1.1c.74 0 1.32-.35 1.73-1.07a6.2 6.2 0 0 0 .62-3.06c0-.88-.1-1.63-.29-2.25a3.09 3.09 0 0 0-.8-1.42 1.78 1.78 0 0 0-1.26-.49c-.74 0-1.31.37-1.73 1.1a6.23 6.23 0 0 0-.62 3.06c0 .88.1 1.63.28 2.25.19.61.45 1.08.8 1.4.35.32.78.48 1.27.48Zm5.43.96v-.9l3.36-3.67c.4-.44.72-.8.97-1.13.26-.32.45-.62.57-.9.13-.29.19-.59.19-.9a1.66 1.66 0 0 0-.96-1.53 2.12 2.12 0 0 0-.99-.22c-.39 0-.73.08-1.02.25-.3.16-.52.38-.68.67a2.1 2.1 0 0 0-.23 1.01h-1.17a2.87 2.87 0 0 1 1.54-2.63 3.38 3.38 0 0 1 1.6-.37c.6 0 1.13.13 1.59.38a2.8 2.8 0 0 1 1.27 3.54 4.9 4.9 0 0 1-.7 1.19c-.33.43-.78.96-1.36 1.6l-2.3 2.44v.08h4.74v1.09h-6.42Zm12.1-10.66-3.29 12.2h-1.07l3.28-12.2h1.07Zm1.37 10.66v-.9l3.36-3.67c.4-.44.71-.8.97-1.13.26-.32.44-.62.57-.9.12-.29.19-.59.19-.9a1.66 1.66 0 0 0-.96-1.53 2.2 2.2 0 0 0-1-.22c-.38 0-.72.08-1.02.25-.29.16-.5.38-.67.67a2.1 2.1 0 0 0-.23 1.01h-1.18a2.86 2.86 0 0 1 1.54-2.63 3.39 3.39 0 0 1 1.6-.37c.6 0 1.13.13 1.6.38.45.25.81.59 1.08 1.02.26.42.39.9.39 1.42 0 .38-.07.74-.2 1.1a4.9 4.9 0 0 1-.7 1.19c-.33.43-.78.96-1.37 1.6l-2.28 2.44v.08h4.73v1.09h-6.43Zm11.8.14a3 3 0 0 1-1.92-.61c-.53-.41-.93-1-1.2-1.79a8.47 8.47 0 0 1-.43-2.83c0-1.1.14-2.04.42-2.82a3.9 3.9 0 0 1 1.21-1.79 3 3 0 0 1 1.91-.62c.75 0 1.38.2 1.9.62.54.41.94 1 1.22 1.79.28.78.42 1.72.42 2.82 0 1.1-.14 2.05-.41 2.83a3.82 3.82 0 0 1-1.21 1.79c-.53.4-1.17.6-1.92.6Zm0-1.1c.74 0 1.31-.35 1.72-1.07a6.2 6.2 0 0 0 .62-3.06c0-.88-.1-1.63-.28-2.25a3.09 3.09 0 0 0-.8-1.42 1.78 1.78 0 0 0-1.27-.49c-.73 0-1.3.37-1.72 1.1a6.23 6.23 0 0 0-.62 3.06c0 .88.09 1.63.28 2.25.18.61.45 1.08.8 1.4.35.32.77.48 1.26.48Zm5.42.96v-.9l3.36-3.67c.4-.44.72-.8.98-1.13.25-.32.44-.62.56-.9.13-.29.2-.59.2-.9a1.65 1.65 0 0 0-.96-1.53 2.2 2.2 0 0 0-1-.22c-.39 0-.73.08-1.02.25-.29.16-.51.38-.67.67a2.1 2.1 0 0 0-.24 1.01h-1.17a2.87 2.87 0 0 1 1.54-2.63 3.38 3.38 0 0 1 1.6-.37c.6 0 1.13.13 1.59.38a2.8 2.8 0 0 1 1.28 3.54c-.14.36-.37.75-.7 1.19-.33.43-.79.96-1.37 1.6l-2.29 2.44v.08h4.73v1.09h-6.42Zm11.92.14c-.66 0-1.24-.11-1.76-.34a3 3 0 0 1-1.21-.94c-.3-.4-.47-.87-.5-1.4h1.26c.03.32.14.6.34.84s.46.42.78.55c.32.13.68.2 1.07.2.44 0 .82-.08 1.16-.23.34-.16.6-.37.8-.64a1.78 1.78 0 0 0 .01-1.93 1.85 1.85 0 0 0-.82-.68c-.36-.16-.8-.24-1.31-.24h-.81v-1.1h.81c.4 0 .76-.07 1.06-.22.31-.14.55-.35.73-.61.17-.27.26-.58.26-.94 0-.34-.08-.64-.23-.9a1.55 1.55 0 0 0-.65-.6 2.56 2.56 0 0 0-1.97-.02c-.3.13-.56.32-.75.56-.2.24-.3.53-.32.86h-1.2c.03-.53.19-1 .49-1.4.3-.4.7-.72 1.18-.94a3.83 3.83 0 0 1 3.24.04 2.7 2.7 0 0 1 1.4 2.34 2.3 2.3 0 0 1-1.67 2.3v.09c.64.1 1.15.38 1.5.82.37.44.55.98.55 1.63a2.6 2.6 0 0 1-.45 1.49c-.3.44-.7.78-1.23 1.03-.51.25-1.1.38-1.76.38Z" fill="#333"/></g><g filter="url(#t)"><path fill="#fff" d="M354 169h125v40H354z"/><rect x="365.5" y="176" width="65" height="25" rx="4.5" fill="#E9F8E9"/><path d="M371.5 193.5v-10.18h6.1v1.1h-4.87v3.43h4.41v1.1h-4.41v4.55h-1.24Zm8.05 0v-7.64h1.17v7.64h-1.17Zm.6-8.9a.83.83 0 0 1-.6-.24.75.75 0 0 1-.24-.57c0-.21.08-.4.25-.56a.83.83 0 0 1 .59-.23c.23 0 .42.08.58.23.17.16.25.35.25.56 0 .22-.08.41-.25.57a.82.82 0 0 1-.58.23Zm3.9 4.3v4.6h-1.18v-7.64h1.14v1.2h.1c.18-.4.45-.7.81-.94.37-.24.84-.36 1.41-.36.52 0 .97.11 1.36.32.39.21.69.53.9.96.22.42.33.96.33 1.6v4.86h-1.18v-4.77c0-.6-.15-1.07-.46-1.4a1.65 1.65 0 0 0-1.28-.51c-.38 0-.71.08-1 .24-.3.16-.53.4-.7.71-.17.31-.25.7-.25 1.14Zm7.01 4.6v-7.64h1.18v7.64h-1.18Zm.6-8.9a.83.83 0 0 1-.6-.24.75.75 0 0 1-.24-.57c0-.21.08-.4.25-.56a.83.83 0 0 1 .59-.23c.23 0 .42.08.58.23.17.16.25.35.25.56 0 .22-.08.41-.25.57a.82.82 0 0 1-.58.23Zm8.13 2.97-1.05.3a1.99 1.99 0 0 0-.3-.51c-.12-.17-.3-.3-.51-.42-.22-.1-.5-.16-.84-.16a2 2 0 0 0-1.17.32c-.3.21-.46.48-.46.81 0 .3.1.52.32.7.2.16.54.3 1 .42l1.12.27c.69.17 1.2.42 1.53.76.33.34.5.78.5 1.31 0 .44-.12.83-.38 1.17-.24.35-.6.62-1.04.82-.45.2-.97.3-1.56.3-.78 0-1.42-.17-1.93-.5a2.25 2.25 0 0 1-.97-1.49l1.11-.28c.1.41.3.72.6.93.3.2.69.3 1.17.3.55 0 .98-.11 1.3-.34.33-.24.49-.52.49-.85a.9.9 0 0 0-.28-.66 1.76 1.76 0 0 0-.85-.41l-1.28-.3a3.04 3.04 0 0 1-1.54-.77 1.86 1.86 0 0 1-.48-1.32c0-.43.12-.81.36-1.14.24-.33.58-.6 1-.78.42-.2.9-.29 1.44-.29.76 0 1.35.17 1.78.5.43.33.74.77.92 1.31Zm3.08 1.34v4.59h-1.17v-10.18h1.17v3.74h.1c.18-.4.45-.71.8-.94.37-.24.85-.36 1.45-.36.52 0 .97.1 1.37.32.39.2.69.52.9.95.22.42.33.96.33 1.62v4.85h-1.17v-4.77a2 2 0 0 0-.47-1.41c-.31-.33-.75-.5-1.3-.5-.38 0-.73.08-1.03.24-.3.16-.54.4-.72.71a2.3 2.3 0 0 0-.26 1.14Zm10.3 4.75a3.27 3.27 0 0 1-3.13-1.86 4.68 4.68 0 0 1-.43-2.06c0-.78.14-1.47.43-2.07a3.23 3.23 0 0 1 3.01-1.9c.4 0 .8.06 1.18.2a2.93 2.93 0 0 1 1.82 1.81 5 5 0 0 1 .28 1.8v.5h-5.88v-1.02h4.7c0-.43-.1-.81-.27-1.15a1.94 1.94 0 0 0-1.83-1.1 2.2 2.2 0 0 0-1.99 1.26c-.18.36-.27.75-.27 1.17v.68c0 .58.1 1.07.3 1.47.2.4.48.7.83.9.36.21.78.31 1.25.31.31 0 .59-.04.84-.12.25-.1.47-.23.65-.4.18-.18.32-.4.42-.67l1.13.32c-.11.39-.31.72-.6 1.01-.28.3-.63.52-1.04.68-.42.16-.88.24-1.4.24Zm7.83 0a3 3 0 0 1-2.83-1.85c-.27-.6-.4-1.3-.4-2.1 0-.81.13-1.5.4-2.1a3.03 3.03 0 0 1 2.85-1.85 2.12 2.12 0 0 1 1.85.81l.36.5h.1v-3.75h1.17v10.18h-1.13v-1.17h-.14c-.09.14-.2.31-.37.52-.16.21-.38.4-.68.56-.3.17-.69.25-1.18.25Zm.16-1.06c.47 0 .87-.12 1.2-.36.32-.25.57-.6.74-1.03.16-.44.25-.95.25-1.53 0-.57-.08-1.07-.25-1.5a1.96 1.96 0 0 0-1.94-1.37c-.5 0-.91.14-1.24.4-.33.24-.58.59-.74 1.02a4.33 4.33 0 0 0 0 2.93c.17.44.42.8.75 1.06s.74.38 1.23.38Z" fill="#005509"/><rect x="365.5" y="176" width="65" height="25" rx="4.5" stroke="#fff"/></g><g filter="url(#u)"><path fill="#fff" d="M479 169h159v40H479z"/><path fill-rule="evenodd" clip-rule="evenodd" d="m482.71 188.5.28.44c.25.35.63.84 1.15 1.31a7.01 7.01 0 0 0 4.86 1.92c2.23 0 3.82-.96 4.86-1.91a8.15 8.15 0 0 0 1.42-1.76l-.27-.44a8.1 8.1 0 0 0-1.15-1.31 7.01 7.01 0 0 0-4.86-1.92c-2.23 0-3.82.96-4.86 1.91a8.1 8.1 0 0 0-1.42 1.76Zm12.96 0 .3-.15-.01-.01-.02-.04-.08-.14a8.75 8.75 0 0 0-1.55-1.9 7.68 7.68 0 0 0-5.31-2.1 7.68 7.68 0 0 0-5.3 2.1 8.77 8.77 0 0 0-1.66 2.08v.01l.3.15-.3-.15-.08.15.08.15.3-.15-.3.15v.01l.02.04.08.14.3.47c.28.4.69.91 1.25 1.44a7.68 7.68 0 0 0 5.31 2.08 7.68 7.68 0 0 0 5.31-2.09 8.8 8.8 0 0 0 1.55-1.9l.08-.14.02-.03v-.02l-.3-.15Zm0 0 .3.15.07-.15-.08-.15-.3.15Zm-6.67-1.67a1.67 1.67 0 1 0 0 3.34 1.67 1.67 0 0 0 0-3.34Zm-2.33 1.67a2.33 2.33 0 1 1 4.66 0 2.33 2.33 0 0 1-4.66 0Z" fill="#0F67F5"/><path d="m495.67 188.5.3-.15m-.3.15.3.15h0l-.01.01-.02.04-.08.14-.3.47a8.8 8.8 0 0 1-1.25 1.44 7.68 7.68 0 0 1-5.31 2.08 7.68 7.68 0 0 1-5.3-2.09 8.8 8.8 0 0 1-1.66-2.08h0v-.01h0m13.63-.15.3.15.07-.15-.08-.15m-.3.15.3-.15m0 0h0v-.01l-.02-.04-.08-.14a8.75 8.75 0 0 0-1.55-1.9 7.68 7.68 0 0 0-5.31-2.1 7.68 7.68 0 0 0-5.3 2.1 8.77 8.77 0 0 0-1.66 2.08h0v.01l.3.15m0 0-.3-.15-.08.15.08.15m.3-.15-.3.15m.3-.15-.3.15m.68-.15s0 0 0 0 0 0 0 0l.27-.44a8.1 8.1 0 0 1 1.15-1.31 7.01 7.01 0 0 1 4.86-1.92c2.23 0 3.82.96 4.86 1.91a8.1 8.1 0 0 1 1.42 1.76s0 0 0 0 0 0 0 0a7.22 7.22 0 0 1-1.42 1.75 7.01 7.01 0 0 1-4.86 1.92 7.01 7.01 0 0 1-4.86-1.91 8.15 8.15 0 0 1-1.42-1.76Zm4.61 0a1.67 1.67 0 1 1 3.34 0 1.67 1.67 0 0 1-3.34 0Zm1.67-2.33a2.33 2.33 0 1 0 0 4.66 2.33 2.33 0 0 0 0-4.66Z" stroke="#0F67F5" stroke-linecap="round"/><path d="m506.65 183.32 3.02 8.57h.12l3.03-8.57h1.29l-3.74 10.18h-1.27l-3.74-10.18h1.3Zm8.88 10.18v-7.64h1.18v7.64h-1.18Zm.6-8.9a.83.83 0 0 1-.59-.24.75.75 0 0 1-.24-.57c0-.21.08-.4.24-.56a.83.83 0 0 1 .6-.23c.22 0 .42.08.58.23.16.16.25.35.25.56 0 .22-.09.41-.25.57a.82.82 0 0 1-.59.23Zm5.93 9.06a3.27 3.27 0 0 1-3.13-1.86 4.68 4.68 0 0 1-.43-2.06c0-.78.14-1.47.43-2.07a3.23 3.23 0 0 1 3.01-1.9c.4 0 .79.06 1.18.2a2.93 2.93 0 0 1 1.82 1.81 5 5 0 0 1 .28 1.8v.5h-5.89v-1.02h4.7c0-.43-.09-.81-.26-1.15a1.94 1.94 0 0 0-1.83-1.1 2.2 2.2 0 0 0-1.99 1.26c-.19.36-.28.75-.28 1.17v.68c0 .58.1 1.07.3 1.47.2.4.48.7.84.9.36.21.78.31 1.25.31a1.93 1.93 0 0 0 1.48-.52c.19-.18.33-.4.43-.67l1.13.32a2.5 2.5 0 0 1-.6 1.01c-.28.3-.63.52-1.04.68-.42.16-.88.24-1.4.24Zm6.68-.16-2.33-7.64h1.23l1.65 5.85h.08l1.63-5.85h1.26l1.6 5.83h.09l1.65-5.83h1.23l-2.33 7.64h-1.15l-1.67-5.87h-.12l-1.67 5.87h-1.15Zm13.58 0v-7.64h1.13v1.16h.08c.14-.38.4-.69.76-.92.36-.24.77-.36 1.23-.36a14.75 14.75 0 0 1 .62.02v1.2a3.7 3.7 0 0 0-.72-.08c-.37 0-.7.08-1 .23a1.71 1.71 0 0 0-.94 1.56v4.83h-1.16Zm8.18.16a3.28 3.28 0 0 1-3.13-1.86 4.68 4.68 0 0 1-.43-2.06c0-.78.14-1.47.42-2.07.3-.6.7-1.06 1.2-1.4a3.6 3.6 0 0 1 2.99-.3 2.93 2.93 0 0 1 1.83 1.81 5 5 0 0 1 .28 1.8v.5h-5.89v-1.02h4.7c0-.43-.1-.81-.26-1.15a1.94 1.94 0 0 0-1.83-1.1c-.47 0-.88.12-1.22.36-.33.23-.6.52-.78.9-.18.36-.27.75-.27 1.17v.68c0 .58.1 1.07.3 1.47.2.4.48.7.84.9.36.21.77.31 1.25.31.3 0 .58-.04.83-.12a1.7 1.7 0 0 0 1.07-1.07l1.14.32a2.5 2.5 0 0 1-.6 1.01 2.9 2.9 0 0 1-1.05.68c-.41.16-.88.24-1.4.24Zm10.35-6.09-1.05.3a1.95 1.95 0 0 0-.3-.51c-.12-.17-.3-.3-.51-.42-.22-.1-.5-.16-.84-.16a2 2 0 0 0-1.17.32c-.3.21-.46.48-.46.81 0 .3.1.52.32.7.2.16.54.3.99.42l1.13.27c.69.17 1.2.42 1.53.76.33.34.5.78.5 1.31 0 .44-.13.83-.38 1.17-.25.35-.6.62-1.04.82-.45.2-.97.3-1.56.3-.78 0-1.42-.17-1.94-.5a2.25 2.25 0 0 1-.97-1.49l1.12-.28c.1.41.3.72.6.93.3.2.69.3 1.17.3.54 0 .98-.11 1.3-.34.33-.24.49-.52.49-.85a.9.9 0 0 0-.28-.66 1.77 1.77 0 0 0-.86-.41l-1.27-.3a3.04 3.04 0 0 1-1.54-.77 1.86 1.86 0 0 1-.49-1.32c0-.43.13-.81.37-1.14.24-.33.57-.6 1-.78.42-.2.9-.29 1.44-.29.75 0 1.35.17 1.78.5.43.33.74.77.92 1.31Zm6.72 2.8v-4.5h1.17v7.63h-1.17v-1.3h-.08a2.5 2.5 0 0 1-.84 1c-.37.27-.85.4-1.43.4-.47 0-.9-.1-1.27-.31a2.19 2.19 0 0 1-.87-.96 3.63 3.63 0 0 1-.32-1.61v-4.86h1.17v4.78c0 .55.16 1 .47 1.33.31.33.71.5 1.2.5a2 2 0 0 0 1.97-2.1Zm4.5-7.05v10.18h-1.18v-10.18h1.18Zm5.47 2.54v1h-3.96v-1h3.96Zm-2.8-1.83h1.16v7.28c0 .33.05.58.15.75.1.16.22.27.38.33.15.05.32.08.49.08l.32-.02.2-.04.23 1.05a2.41 2.41 0 0 1-.87.14c-.33 0-.66-.07-.97-.21a1.94 1.94 0 0 1-.79-.66 1.9 1.9 0 0 1-.3-1.1v-7.6Zm9.83 3.54-1.05.3a1.93 1.93 0 0 0-.3-.51c-.12-.17-.3-.3-.51-.42-.22-.1-.5-.16-.84-.16a2 2 0 0 0-1.17.32c-.3.21-.46.48-.46.81 0 .3.1.52.32.7.2.16.54.3.99.42l1.13.27c.69.17 1.2.42 1.53.76.33.34.5.78.5 1.31 0 .44-.12.83-.38 1.17-.24.35-.6.62-1.04.82-.45.2-.97.3-1.56.3-.78 0-1.42-.17-1.94-.5a2.25 2.25 0 0 1-.96-1.49l1.1-.28c.12.41.32.72.61.93.3.2.69.3 1.17.3.55 0 .98-.11 1.3-.34.33-.24.49-.52.49-.85a.9.9 0 0 0-.28-.66 1.77 1.77 0 0 0-.86-.41l-1.27-.3a3.04 3.04 0 0 1-1.54-.77 1.87 1.87 0 0 1-.49-1.32c0-.43.13-.81.37-1.14.24-.33.58-.6 1-.78.42-.2.9-.29 1.44-.29.75 0 1.35.17 1.78.5.43.33.74.77.92 1.31Z" fill="#0F67F5"/><path fill-rule="evenodd" clip-rule="evenodd" d="M609 188.5a1 1 0 1 1 2 0 1 1 0 0 1-2 0Zm1-.33a.33.33 0 1 0 0 .66.33.33 0 0 0 0-.66Zm3 .33a1 1 0 1 1 2 0 1 1 0 0 1-2 0Zm1-.33a.33.33 0 1 0 0 .66.33.33 0 0 0 0-.66Zm3 .33a1 1 0 1 1 2 0 1 1 0 0 1-2 0Zm1-.33a.33.33 0 1 0 0 .66.33.33 0 0 0 0-.66Z" fill="#0F67F5" stroke="#0F67F5"/><rect x="603" y="177.5" width="22" height="22" rx="3" stroke="#0F67F5" stroke-width="2"/></g></g><g filter="url(#v)"><rect x="408" y="204" width="220" height="48" rx="4" fill="#fff"/><path d="M433 233.62h-9.33a.62.62 0 0 1-.62-.62v-7.33c0-.34.28-.62.62-.62H433c.35 0 .62.28.62.62V233c0 .34-.28.62-.62.62Zm-8.71-1.25h8.09v-6.08h-8.09v6.08Z" fill="#545454"/><path d="M433.67 226.29H423a.62.62 0 0 1-.62-.62V223c0-.34.28-.62.62-.62h10.67c.35 0 .62.28.62.62v2.67c0 .34-.28.62-.62.62Zm-10.05-1.25h9.42v-1.42h-9.42v1.42Zm6.71 5.25h-4a.62.62 0 0 1-.62-.62v-2c0-.34.28-.62.62-.62h4c.35 0 .62.28.62.62v2c0 .34-.28.62-.62.62Zm-3.38-1.25h2.75v-.75h-2.75v.75Z" fill="#545454"/><path d="M445.89 234h-1.48l4.27-11.64h1.46L454.4 234h-1.48l-3.48-9.8h-.09l-3.47 9.8Zm.54-4.54h5.96v1.25h-5.96v-1.25Zm9.61 4.54v-8.73h1.3v1.32h.09c.15-.43.44-.78.86-1.05s.89-.4 1.4-.4a14.1 14.1 0 0 1 .71.02v1.36a3.35 3.35 0 0 0-.3-.05 3.03 3.03 0 0 0-.52-.04c-.42 0-.8.1-1.13.27a1.95 1.95 0 0 0-1.07 1.78V234h-1.34Zm9.23.18c-.81 0-1.52-.2-2.11-.58a3.78 3.78 0 0 1-1.37-1.6 5.41 5.41 0 0 1-.47-2.32c0-.89.16-1.67.49-2.34a3.69 3.69 0 0 1 3.44-2.18c.61 0 1.17.11 1.66.34.5.23.9.54 1.2.96.32.4.52.88.6 1.43h-1.35a2.04 2.04 0 0 0-2.1-1.52c-.51 0-.97.13-1.36.4-.4.27-.7.65-.92 1.14a4.22 4.22 0 0 0-.32 1.73c0 .67.1 1.26.32 1.76.21.5.52.89.9 1.16.4.28.86.42 1.4.42.34 0 .66-.06.94-.19a1.96 1.96 0 0 0 1.14-1.33h1.34a3.11 3.11 0 0 1-1.73 2.36 3.8 3.8 0 0 1-1.7.36Zm6.74-5.43V234h-1.34v-11.64H472v4.28h.1c.21-.45.52-.81.93-1.08.41-.27.96-.4 1.65-.4.6 0 1.11.12 1.56.36.45.23.8.6 1.04 1.08.25.49.38 1.1.38 1.86V234h-1.35v-5.46c0-.69-.18-1.22-.54-1.6a1.92 1.92 0 0 0-1.48-.58c-.44 0-.83.1-1.18.28-.35.19-.62.46-.82.82-.2.35-.3.78-.3 1.29Zm8.1 5.25v-8.73h1.35V234h-1.34Zm.69-10.18a.95.95 0 0 1-.68-.27.86.86 0 0 1-.27-.64c0-.25.09-.47.27-.64a.95.95 0 0 1 .68-.27c.26 0 .49.09.67.27.19.17.28.39.28.64s-.09.46-.28.64a.93.93 0 0 1-.67.27Zm10.25 1.45-3.23 8.73h-1.36l-3.23-8.73h1.46l2.4 6.96h.1l2.4-6.96h1.46Zm5.12 8.91a3.74 3.74 0 0 1-3.58-2.13 5.35 5.35 0 0 1-.5-2.34c0-.9.17-1.69.5-2.37a3.69 3.69 0 0 1 3.44-2.18c.46 0 .9.08 1.35.23a3.35 3.35 0 0 1 2.08 2.08c.21.55.32 1.24.32 2.05v.57h-6.73v-1.16h5.37c0-.5-.1-.93-.3-1.32a2.22 2.22 0 0 0-2.09-1.25 2.53 2.53 0 0 0-2.28 1.42c-.2.43-.31.88-.31 1.36v.77c0 .66.11 1.22.34 1.68.23.45.55.8.96 1.03.41.24.89.36 1.43.36.35 0 .67-.05.95-.15a1.93 1.93 0 0 0 1.23-1.22l1.3.37a2.9 2.9 0 0 1-.7 1.16c-.31.33-.71.58-1.19.77-.47.18-1 .27-1.6.27Z" fill="#333"/><path d="M606 232.62a.62.62 0 0 1-.44-.18.63.63 0 0 1 0-.88l3.56-3.56-3.56-3.56a.63.63 0 0 1 0-.88.63.63 0 0 1 .88 0l4 4c.24.24.24.64 0 .88l-4 4a.62.62 0 0 1-.44.18Z" fill="#545454"/></g><defs><filter id="g" x="34" y="89" width="40" height="40" filterUnits="userSpaceOnUse" color-interpolation-filters="sRGB"><feFlood flood-opacity="0" result="BackgroundImageFix"/><feBlend in="SourceGraphic" in2="BackgroundImageFix" result="shape"/><feColorMatrix in="SourceAlpha" values="0 0 0 0 0 0 0 0 0 0 0 0 0 0 0 0 0 0 127 0" result="hardAlpha"/><feOffset dy="-1"/><feComposite in2="hardAlpha" operator="arithmetic" k2="-1" k3="1"/><feColorMatrix values="0 0 0 0 0.933333 0 0 0 0 0.933333 0 0 0 0 0.933333 0 0 0 1 0"/><feBlend in2="shape" result="effect1_innerShadow_10819_108031"/></filter><filter id="h" x="74" y="89" width="122" height="40" filterUnits="userSpaceOnUse" color-interpolation-filters="sRGB"><feFlood flood-opacity="0" result="BackgroundImageFix"/><feBlend in="SourceGraphic" in2="BackgroundImageFix" result="shape"/><feColorMatrix in="SourceAlpha" values="0 0 0 0 0 0 0 0 0 0 0 0 0 0 0 0 0 0 127 0" result="hardAlpha"/><feOffset dy="-1"/><feComposite in2="hardAlpha" operator="arithmetic" k2="-1" k3="1"/><feColorMatrix values="0 0 0 0 0.933333 0 0 0 0 0.933333 0 0 0 0 0.933333 0 0 0 1 0"/><feBlend in2="shape" result="effect1_innerShadow_10819_108031"/></filter><filter id="i" x="196" y="89" width="158" height="40" filterUnits="userSpaceOnUse" color-interpolation-filters="sRGB"><feFlood flood-opacity="0" result="BackgroundImageFix"/><feBlend in="SourceGraphic" in2="BackgroundImageFix" result="shape"/><feColorMatrix in="SourceAlpha" values="0 0 0 0 0 0 0 0 0 0 0 0 0 0 0 0 0 0 127 0" result="hardAlpha"/><feOffset dy="-1"/><feComposite in2="hardAlpha" operator="arithmetic" k2="-1" k3="1"/><feColorMatrix values="0 0 0 0 0.933333 0 0 0 0 0.933333 0 0 0 0 0.933333 0 0 0 1 0"/><feBlend in2="shape" result="effect1_innerShadow_10819_108031"/></filter><filter id="j" x="354" y="89" width="125" height="40" filterUnits="userSpaceOnUse" color-interpolation-filters="sRGB"><feFlood flood-opacity="0" result="BackgroundImageFix"/><feBlend in="SourceGraphic" in2="BackgroundImageFix" result="shape"/><feColorMatrix in="SourceAlpha" values="0 0 0 0 0 0 0 0 0 0 0 0 0 0 0 0 0 0 127 0" result="hardAlpha"/><feOffset dy="-1"/><feComposite in2="hardAlpha" operator="arithmetic" k2="-1" k3="1"/><feColorMatrix values="0 0 0 0 0.933333 0 0 0 0 0.933333 0 0 0 0 0.933333 0 0 0 1 0"/><feBlend in2="shape" result="effect1_innerShadow_10819_108031"/></filter><filter id="k" x="479" y="89" width="159" height="40" filterUnits="userSpaceOnUse" color-interpolation-filters="sRGB"><feFlood flood-opacity="0" result="BackgroundImageFix"/><feBlend in="SourceGraphic" in2="BackgroundImageFix" result="shape"/><feColorMatrix in="SourceAlpha" values="0 0 0 0 0 0 0 0 0 0 0 0 0 0 0 0 0 0 127 0" result="hardAlpha"/><feOffset dy="-1"/><feComposite in2="hardAlpha" operator="arithmetic" k2="-1" k3="1"/><feColorMatrix values="0 0 0 0 0.933333 0 0 0 0 0.933333 0 0 0 0 0.933333 0 0 0 1 0"/><feBlend in2="shape" result="effect1_innerShadow_10819_108031"/></filter><filter id="l" x="34" y="129" width="40" height="40" filterUnits="userSpaceOnUse" color-interpolation-filters="sRGB"><feFlood flood-opacity="0" result="BackgroundImageFix"/><feBlend in="SourceGraphic" in2="BackgroundImageFix" result="shape"/><feColorMatrix in="SourceAlpha" values="0 0 0 0 0 0 0 0 0 0 0 0 0 0 0 0 0 0 127 0" result="hardAlpha"/><feOffset dy="-1"/><feComposite in2="hardAlpha" operator="arithmetic" k2="-1" k3="1"/><feColorMatrix values="0 0 0 0 0.933333 0 0 0 0 0.933333 0 0 0 0 0.933333 0 0 0 1 0"/><feBlend in2="shape" result="effect1_innerShadow_10819_108031"/></filter><filter id="m" x="74" y="129" width="122" height="40" filterUnits="userSpaceOnUse" color-interpolation-filters="sRGB"><feFlood flood-opacity="0" result="BackgroundImageFix"/><feBlend in="SourceGraphic" in2="BackgroundImageFix" result="shape"/><feColorMatrix in="SourceAlpha" values="0 0 0 0 0 0 0 0 0 0 0 0 0 0 0 0 0 0 127 0" result="hardAlpha"/><feOffset dy="-1"/><feComposite in2="hardAlpha" operator="arithmetic" k2="-1" k3="1"/><feColorMatrix values="0 0 0 0 0.933333 0 0 0 0 0.933333 0 0 0 0 0.933333 0 0 0 1 0"/><feBlend in2="shape" result="effect1_innerShadow_10819_108031"/></filter><filter id="n" x="196" y="129" width="158" height="40" filterUnits="userSpaceOnUse" color-interpolation-filters="sRGB"><feFlood flood-opacity="0" result="BackgroundImageFix"/><feBlend in="SourceGraphic" in2="BackgroundImageFix" result="shape"/><feColorMatrix in="SourceAlpha" values="0 0 0 0 0 0 0 0 0 0 0 0 0 0 0 0 0 0 127 0" result="hardAlpha"/><feOffset dy="-1"/><feComposite in2="hardAlpha" operator="arithmetic" k2="-1" k3="1"/><feColorMatrix values="0 0 0 0 0.933333 0 0 0 0 0.933333 0 0 0 0 0.933333 0 0 0 1 0"/><feBlend in2="shape" result="effect1_innerShadow_10819_108031"/></filter><filter id="o" x="354" y="129" width="125" height="40" filterUnits="userSpaceOnUse" color-interpolation-filters="sRGB"><feFlood flood-opacity="0" result="BackgroundImageFix"/><feBlend in="SourceGraphic" in2="BackgroundImageFix" result="shape"/><feColorMatrix in="SourceAlpha" values="0 0 0 0 0 0 0 0 0 0 0 0 0 0 0 0 0 0 127 0" result="hardAlpha"/><feOffset dy="-1"/><feComposite in2="hardAlpha" operator="arithmetic" k2="-1" k3="1"/><feColorMatrix values="0 0 0 0 0.933333 0 0 0 0 0.933333 0 0 0 0 0.933333 0 0 0 1 0"/><feBlend in2="shape" result="effect1_innerShadow_10819_108031"/></filter><filter id="p" x="479" y="129" width="159" height="40" filterUnits="userSpaceOnUse" color-interpolation-filters="sRGB"><feFlood flood-opacity="0" result="BackgroundImageFix"/><feBlend in="SourceGraphic" in2="BackgroundImageFix" result="shape"/><feColorMatrix in="SourceAlpha" values="0 0 0 0 0 0 0 0 0 0 0 0 0 0 0 0 0 0 127 0" result="hardAlpha"/><feOffset dy="-1"/><feComposite in2="hardAlpha" operator="arithmetic" k2="-1" k3="1"/><feColorMatrix values="0 0 0 0 0.933333 0 0 0 0 0.933333 0 0 0 0 0.933333 0 0 0 1 0"/><feBlend in2="shape" result="effect1_innerShadow_10819_108031"/></filter><filter id="q" x="34" y="169" width="40" height="40" filterUnits="userSpaceOnUse" color-interpolation-filters="sRGB"><feFlood flood-opacity="0" result="BackgroundImageFix"/><feBlend in="SourceGraphic" in2="BackgroundImageFix" result="shape"/><feColorMatrix in="SourceAlpha" values="0 0 0 0 0 0 0 0 0 0 0 0 0 0 0 0 0 0 127 0" result="hardAlpha"/><feOffset dy="-1"/><feComposite in2="hardAlpha" operator="arithmetic" k2="-1" k3="1"/><feColorMatrix values="0 0 0 0 0.933333 0 0 0 0 0.933333 0 0 0 0 0.933333 0 0 0 1 0"/><feBlend in2="shape" result="effect1_innerShadow_10819_108031"/></filter><filter id="r" x="74" y="169" width="122" height="40" filterUnits="userSpaceOnUse" color-interpolation-filters="sRGB"><feFlood flood-opacity="0" result="BackgroundImageFix"/><feBlend in="SourceGraphic" in2="BackgroundImageFix" result="shape"/><feColorMatrix in="SourceAlpha" values="0 0 0 0 0 0 0 0 0 0 0 0 0 0 0 0 0 0 127 0" result="hardAlpha"/><feOffset dy="-1"/><feComposite in2="hardAlpha" operator="arithmetic" k2="-1" k3="1"/><feColorMatrix values="0 0 0 0 0.933333 0 0 0 0 0.933333 0 0 0 0 0.933333 0 0 0 1 0"/><feBlend in2="shape" result="effect1_innerShadow_10819_108031"/></filter><filter id="s" x="196" y="169" width="158" height="40" filterUnits="userSpaceOnUse" color-interpolation-filters="sRGB"><feFlood flood-opacity="0" result="BackgroundImageFix"/><feBlend in="SourceGraphic" in2="BackgroundImageFix" result="shape"/><feColorMatrix in="SourceAlpha" values="0 0 0 0 0 0 0 0 0 0 0 0 0 0 0 0 0 0 127 0" result="hardAlpha"/><feOffset dy="-1"/><feComposite in2="hardAlpha" operator="arithmetic" k2="-1" k3="1"/><feColorMatrix values="0 0 0 0 0.933333 0 0 0 0 0.933333 0 0 0 0 0.933333 0 0 0 1 0"/><feBlend in2="shape" result="effect1_innerShadow_10819_108031"/></filter><filter id="t" x="354" y="169" width="125" height="40" filterUnits="userSpaceOnUse" color-interpolation-filters="sRGB"><feFlood flood-opacity="0" result="BackgroundImageFix"/><feBlend in="SourceGraphic" in2="BackgroundImageFix" result="shape"/><feColorMatrix in="SourceAlpha" values="0 0 0 0 0 0 0 0 0 0 0 0 0 0 0 0 0 0 127 0" result="hardAlpha"/><feOffset dy="-1"/><feComposite in2="hardAlpha" operator="arithmetic" k2="-1" k3="1"/><feColorMatrix values="0 0 0 0 0.933333 0 0 0 0 0.933333 0 0 0 0 0.933333 0 0 0 1 0"/><feBlend in2="shape" result="effect1_innerShadow_10819_108031"/></filter><filter id="u" x="479" y="169" width="159" height="40" filterUnits="userSpaceOnUse" color-interpolation-filters="sRGB"><feFlood flood-opacity="0" result="BackgroundImageFix"/><feBlend in="SourceGraphic" in2="BackgroundImageFix" result="shape"/><feColorMatrix in="SourceAlpha" values="0 0 0 0 0 0 0 0 0 0 0 0 0 0 0 0 0 0 127 0" result="hardAlpha"/><feOffset dy="-1"/><feComposite in2="hardAlpha" operator="arithmetic" k2="-1" k3="1"/><feColorMatrix values="0 0 0 0 0.933333 0 0 0 0 0.933333 0 0 0 0 0.933333 0 0 0 1 0"/><feBlend in2="shape" result="effect1_innerShadow_10819_108031"/></filter><filter id="v" x="402" y="201" width="232" height="60" filterUnits="userSpaceOnUse" color-interpolation-filters="sRGB"><feFlood flood-opacity="0" result="BackgroundImageFix"/><feColorMatrix in="SourceAlpha" values="0 0 0 0 0 0 0 0 0 0 0 0 0 0 0 0 0 0 127 0" result="hardAlpha"/><feOffset dy="3"/><feGaussianBlur stdDeviation="3"/><feColorMatrix values="0 0 0 0 0.2 0 0 0 0 0.2 0 0 0 0 0.2 0 0 0 0.2 0"/><feBlend in2="BackgroundImageFix" result="effect1_dropShadow_10819_108031"/><feColorMatrix in="SourceAlpha" values="0 0 0 0 0 0 0 0 0 0 0 0 0 0 0 0 0 0 127 0" result="hardAlpha"/><feOffset dy="3"/><feGaussianBlur stdDeviation="3"/><feColorMatrix values="0 0 0 0 0.2 0 0 0 0 0.2 0 0 0 0 0.2 0 0 0 0.15 0"/><feBlend in2="effect1_dropShadow_10819_108031" result="effect2_dropShadow_10819_108031"/><feBlend in="SourceGraphic" in2="effect2_dropShadow_10819_108031" result="shape"/></filter><clipPath id="a"><path fill="#fff" transform="translate(34 48)" d="M0 0h604v161H0z"/></clipPath></defs></svg>