<svg width="300" height="132" fill="none" xmlns="http://www.w3.org/2000/svg"><rect x=".5" y=".5" width="299" height="131" rx="8" fill="#fff"/><g clip-path="url(#a)"><mask id="b" fill="#fff"><path d="M8.5 8.5h123v35H8.5v-35Z"/></mask><path d="M8.5 8.5h123v35H8.5v-35Z" fill="#F6F6F6"/><path d="M24.95 30.5H21.5V20.32h3.52c1.02 0 1.88.2 2.6.61.74.4 1.3.99 1.69 1.74.4.76.59 1.67.59 2.73s-.2 1.97-.6 2.73a4.02 4.02 0 0 1-1.7 1.76 5.4 5.4 0 0 1-2.65.61Zm-1.6-1.6h1.52c.7 0 1.3-.13 1.77-.38.47-.27.83-.65 1.07-1.17.24-.52.36-1.17.36-1.95a4.6 4.6 0 0 0-.36-1.94 2.5 2.5 0 0 0-1.06-1.16 3.52 3.52 0 0 0-1.73-.39h-1.57v7Zm10.42 1.75c-.49 0-.92-.08-1.31-.25a2.13 2.13 0 0 1-.92-.78 2.27 2.27 0 0 1-.33-1.26c0-.43.08-.79.24-1.07.16-.28.38-.5.65-.68.28-.17.59-.3.93-.38.35-.09.7-.15 1.08-.2l1.09-.12c.28-.04.48-.1.6-.18.13-.08.2-.2.2-.38v-.03c0-.37-.11-.66-.33-.87-.23-.2-.55-.3-.96-.3-.44 0-.8.09-1.05.28-.26.2-.43.42-.52.68l-1.68-.24A2.68 2.68 0 0 1 33.23 23a4.76 4.76 0 0 1 2.56-.1c.37.08.7.22 1 .42.3.2.55.46.73.8.19.34.28.76.28 1.27v5.11h-1.73v-1.05H36a2.2 2.2 0 0 1-1.2 1.04c-.3.1-.65.16-1.04.16Zm.46-1.32c.37 0 .68-.07.94-.21a1.52 1.52 0 0 0 .83-1.36v-.9a.85.85 0 0 1-.28.13l-.45.1a13.84 13.84 0 0 1-.92.14c-.27.04-.5.1-.72.18-.21.09-.38.2-.5.35a.85.85 0 0 0-.18.57c0 .33.12.58.36.75.24.17.55.25.92.25Zm9.2-6.47v1.4h-4.4v-1.4h4.4Zm-3.31-1.83h1.8v7.17c0 .25.03.43.1.56.08.13.18.21.3.26.13.04.26.07.41.07a1.76 1.76 0 0 0 .53-.07l.3 1.4a4 4 0 0 1-1.06.18c-.45.02-.85-.05-1.22-.2a1.9 1.9 0 0 1-.86-.7 2.1 2.1 0 0 1-.3-1.2v-7.47Zm8.1 9.62c-.76 0-1.42-.16-1.98-.48a3.23 3.23 0 0 1-1.28-1.36 4.56 4.56 0 0 1-.44-2.08c0-.79.15-1.48.44-2.07a3.38 3.38 0 0 1 3.17-1.9c.47 0 .92.08 1.33.23a3.17 3.17 0 0 1 1.88 1.9c.19.49.28 1.06.28 1.73v.55h-6.26v-1.2h4.54c0-.35-.08-.66-.23-.93a1.63 1.63 0 0 0-.61-.64 1.72 1.72 0 0 0-.9-.23 1.8 1.8 0 0 0-1.63.96 2 2 0 0 0-.23.94v1.06c0 .44.08.82.24 1.14a1.8 1.8 0 0 0 1.71.98c.26 0 .5-.04.71-.11a1.55 1.55 0 0 0 .91-.88l1.68.2a2.7 2.7 0 0 1-1.74 1.92c-.46.18-1 .27-1.58.27Zm14.43-5.77-1.64.18a1.32 1.32 0 0 0-.7-.82c-.2-.09-.43-.13-.7-.13-.38 0-.7.08-.95.24-.25.16-.38.37-.37.63 0 .22.07.4.24.54.17.14.45.26.84.35l1.3.27c.72.16 1.26.4 1.6.75.36.33.54.78.55 1.32 0 .48-.15.9-.43 1.28-.27.36-.65.65-1.15.85-.49.2-1.05.3-1.69.3-.93 0-1.68-.19-2.25-.58-.57-.4-.91-.94-1.02-1.64l1.75-.17c.08.34.25.6.51.78.26.17.6.26 1 .26.44 0 .78-.09 1.04-.26.26-.18.4-.4.4-.65a.7.7 0 0 0-.26-.54 1.77 1.77 0 0 0-.78-.33l-1.3-.28a3.1 3.1 0 0 1-1.63-.77 1.9 1.9 0 0 1-.52-1.38c0-.47.13-.88.38-1.22a2.5 2.5 0 0 1 1.1-.8 4 4 0 0 1 1.6-.3c.9 0 1.6.2 2.12.58.52.38.84.9.96 1.54Zm5.46-2.02v1.4h-4.39v-1.4h4.4Zm-3.3-1.83h1.8v7.17c0 .25.03.43.1.56.08.13.18.21.3.26.13.04.26.07.41.07a1.76 1.76 0 0 0 .53-.07l.3 1.4a4 4 0 0 1-1.06.18c-.45.02-.85-.05-1.21-.2a1.9 1.9 0 0 1-.86-.7 2.1 2.1 0 0 1-.31-1.2v-7.47Zm7 9.62a3.2 3.2 0 0 1-1.3-.25 2.13 2.13 0 0 1-.92-.78 2.27 2.27 0 0 1-.33-1.26c0-.43.08-.79.24-1.07.16-.28.37-.5.65-.68.28-.17.58-.3.93-.38.35-.09.7-.15 1.08-.2l1.09-.12c.28-.04.48-.1.6-.18.13-.08.2-.2.2-.38v-.03c0-.37-.11-.66-.34-.87-.22-.2-.54-.3-.95-.3-.45 0-.8.09-1.05.28-.26.2-.43.42-.52.68l-1.68-.24A2.68 2.68 0 0 1 71.28 23a4.76 4.76 0 0 1 2.56-.1c.37.08.7.22 1 .42.3.2.55.46.73.8.18.34.28.76.28 1.27v5.11h-1.73v-1.05h-.06a2.2 2.2 0 0 1-1.2 1.04c-.3.1-.65.16-1.04.16Zm.47-1.32c.36 0 .68-.07.94-.21a1.55 1.55 0 0 0 .83-1.36v-.9a.85.85 0 0 1-.29.13 13.83 13.83 0 0 1-1.36.24c-.27.04-.5.1-.72.18-.21.09-.38.2-.5.35a.85.85 0 0 0-.18.57c0 .33.12.58.36.75.24.17.55.25.92.25Zm5.38 1.17v-7.64h1.74v1.28h.08a1.9 1.9 0 0 1 1.89-1.39 4.13 4.13 0 0 1 .64.05v1.66a3.34 3.34 0 0 0-.84-.1c-.32 0-.62.07-.88.2a1.56 1.56 0 0 0-.83 1.45v4.49h-1.8Zm9.77-7.64v1.4h-4.39v-1.4h4.4Zm-3.3-1.83h1.8v7.17c0 .25.03.43.1.56.08.13.18.21.3.26.13.04.26.07.41.07a1.76 1.76 0 0 0 .53-.07l.3 1.4a4 4 0 0 1-1.06.18c-.45.02-.86-.05-1.22-.2a1.9 1.9 0 0 1-.86-.7 2.1 2.1 0 0 1-.3-1.2v-7.47Zm8.1 9.62c-.76 0-1.42-.16-1.98-.48a3.23 3.23 0 0 1-1.28-1.36 4.56 4.56 0 0 1-.44-2.08c0-.79.15-1.48.44-2.07a3.38 3.38 0 0 1 3.17-1.9c.47 0 .92.08 1.33.23a3.17 3.17 0 0 1 1.88 1.9c.19.49.28 1.06.28 1.73v.55h-6.26v-1.2h4.54c0-.35-.08-.66-.23-.93a1.63 1.63 0 0 0-.61-.64 1.72 1.72 0 0 0-.9-.23 1.8 1.8 0 0 0-1.63.96 2 2 0 0 0-.23.94v1.06c0 .44.08.82.24 1.14a1.8 1.8 0 0 0 1.71.98c.26 0 .5-.04.71-.11a1.55 1.55 0 0 0 .91-.88l1.68.2a2.7 2.7 0 0 1-1.74 1.92c-.46.18-1 .27-1.58.27Zm7.76-.02a2.89 2.89 0 0 1-2.74-1.8 5 5 0 0 1-.41-2.14c0-.85.14-1.56.42-2.15A2.93 2.93 0 0 1 101.1 23c.28.15.51.33.68.54.17.21.3.41.4.6h.07v-3.81h1.8V30.5h-1.77v-1.2h-.1c-.1.18-.23.38-.4.59a2.22 2.22 0 0 1-1.8.74Zm.5-1.47c.38 0 .7-.1.97-.31.27-.2.48-.5.62-.87.13-.37.2-.8.2-1.3s-.07-.92-.2-1.29a1.84 1.84 0 0 0-.61-.85c-.27-.2-.6-.3-.98-.3-.4 0-.74.1-1 .31-.27.21-.48.5-.61.87-.14.37-.2.79-.2 1.26 0 .48.06.9.2 1.28a2 2 0 0 0 .61.88c.27.21.6.32 1 .32Z" fill="#1F1F1F"/><path d="M121.17 23.79h-4a.62.62 0 0 1-.62-.62c0-.34.28-.62.62-.62h4c.34 0 .62.28.62.62 0 .34-.28.62-.62.62Zm1.33-2.67h-5.33a.62.62 0 0 1-.62-.62c0-.34.28-.62.62-.62h5.33c.34 0 .62.28.62.62 0 .34-.28.62-.62.62Zm-2.67 5.34h-2.67a.62.62 0 0 1-.62-.62c0-.34.28-.62.62-.62h2.67c.34 0 .62.28.62.62 0 .34-.28.62-.62.62Zm-5.33 4.66a.62.62 0 0 1-.44-.18l-2-2a.63.63 0 0 1 0-.88.63.63 0 0 1 .88 0l1.56 1.56 1.56-1.56a.63.63 0 0 1 .88 0c.24.24.24.64 0 .88l-2 2a.62.62 0 0 1-.44.18Z" fill="#545454"/><path d="M114.5 30.46a.62.62 0 0 1-.62-.62V20.5c0-.34.28-.62.62-.62.34 0 .62.28.62.62v9.33c0 .34-.28.62-.62.62v.01Z" fill="#545454"/><path d="M131.5 42.5H8.5v2h123v-2Z" fill="#F6F6F6" mask="url(#b)"/><mask id="c" fill="#fff"><path d="M131.5 8.5h160v35h-160v-35Z"/></mask><path d="M131.5 8.5h160v35h-160v-35Z" fill="#F6F6F6"/><path d="M147.96 30.5h-3.46V20.32h3.52c1.01 0 1.88.2 2.6.61.74.4 1.3.99 1.69 1.74.4.76.59 1.67.59 2.73s-.2 1.97-.6 2.73a4.1 4.1 0 0 1-1.7 1.76 5.4 5.4 0 0 1-2.64.61Zm-1.61-1.6h1.52c.7 0 1.3-.13 1.77-.38.47-.27.83-.65 1.07-1.17.24-.52.36-1.17.36-1.95s-.12-1.43-.36-1.94a2.5 2.5 0 0 0-1.06-1.16 3.52 3.52 0 0 0-1.73-.39h-1.57v7Zm13.09-1.61v-4.43h1.8v7.64h-1.75v-1.36h-.08a2.3 2.3 0 0 1-.85 1.05c-.39.27-.87.4-1.44.4-.5 0-.95-.1-1.33-.32a2.32 2.32 0 0 1-.9-.98 3.47 3.47 0 0 1-.32-1.56v-4.87h1.8v4.59c0 .48.13.87.4 1.15.26.29.61.43 1.04.43a1.65 1.65 0 0 0 1.38-.77c.16-.26.25-.58.25-.97Zm7.03 3.36c-.77 0-1.43-.16-1.99-.48a3.23 3.23 0 0 1-1.27-1.36 4.57 4.57 0 0 1-.45-2.08c0-.79.15-1.48.45-2.07a3.39 3.39 0 0 1 3.16-1.9c.47 0 .92.08 1.34.23a3 3 0 0 1 1.1.7c.33.31.59.71.78 1.2.18.49.27 1.06.27 1.73v.55h-6.26v-1.2h4.54c0-.35-.08-.66-.23-.93a1.62 1.62 0 0 0-.6-.64 1.72 1.72 0 0 0-.91-.23 1.8 1.8 0 0 0-1.62.96 2 2 0 0 0-.24.94v1.06c0 .44.09.82.25 1.14.16.32.39.56.68.73a2.25 2.25 0 0 0 1.73.14c.22-.08.4-.19.56-.34.15-.14.27-.32.35-.54l1.68.2a2.69 2.69 0 0 1-1.74 1.92c-.46.18-.99.27-1.58.27Zm11.22-.02a2.89 2.89 0 0 1-2.73-1.8 5.01 5.01 0 0 1-.42-2.14c0-.85.14-1.56.42-2.15A2.92 2.92 0 0 1 178.8 23c.29.15.52.33.69.54.17.21.3.41.39.6h.07v-3.81h1.8V30.5H180v-1.2h-.11c-.1.18-.23.38-.4.59a2.22 2.22 0 0 1-1.79.74Zm.5-1.47c.38 0 .71-.1.98-.31.27-.2.47-.5.61-.87s.2-.8.2-1.3-.06-.92-.2-1.29a1.84 1.84 0 0 0-.6-.85c-.27-.2-.6-.3-.99-.3-.4 0-.73.1-1 .31s-.47.5-.6.87a3.9 3.9 0 0 0-.01 2.54 2 2 0 0 0 .61.88c.28.21.61.32 1 .32Zm7.68 1.5c-.48 0-.92-.1-1.3-.26a2.13 2.13 0 0 1-.92-.78 2.27 2.27 0 0 1-.33-1.26c0-.43.08-.79.24-1.07.16-.28.37-.5.65-.68.27-.17.58-.3.93-.38.35-.09.7-.15 1.08-.2l1.09-.12c.27-.04.48-.1.6-.18.13-.08.2-.2.2-.38v-.03c0-.37-.12-.66-.34-.87-.22-.2-.54-.3-.96-.3-.44 0-.79.09-1.05.28-.25.2-.42.42-.51.68l-1.68-.24a2.69 2.69 0 0 1 1.77-1.87 4.76 4.76 0 0 1 2.56-.1c.37.08.7.22 1 .42.3.2.54.46.73.8.18.34.28.76.28 1.27v5.11h-1.73v-1.05h-.06a2.19 2.19 0 0 1-1.2 1.04c-.3.1-.65.16-1.05.16Zm.47-1.33c.36 0 .68-.07.94-.21a1.55 1.55 0 0 0 .83-1.36v-.9a.84.84 0 0 1-.29.13 13.77 13.77 0 0 1-1.36.24c-.27.04-.5.1-.72.18-.21.09-.38.2-.5.35a.85.85 0 0 0-.19.57c0 .33.13.58.37.75.24.17.55.25.92.25Zm9.19-6.47v1.4h-4.4v-1.4h4.4Zm-3.3-1.83h1.8v7.17c0 .25.03.43.1.56a.6.6 0 0 0 .3.26c.12.04.26.07.4.07a1.75 1.75 0 0 0 .53-.07l.3 1.4a4.05 4.05 0 0 1-1.05.18c-.45.02-.86-.05-1.22-.2a1.9 1.9 0 0 1-.86-.7 2.1 2.1 0 0 1-.3-1.2v-7.47Zm8.1 9.62c-.76 0-1.42-.16-1.98-.48a3.24 3.24 0 0 1-1.28-1.36 4.57 4.57 0 0 1-.45-2.08c0-.79.15-1.48.45-2.07a3.39 3.39 0 0 1 3.17-1.9c.47 0 .91.08 1.33.23a3 3 0 0 1 1.11.7c.33.31.58.71.77 1.2.19.49.28 1.06.28 1.73v.55h-6.26v-1.2H202c0-.35-.07-.66-.22-.93a1.62 1.62 0 0 0-.61-.64 1.72 1.72 0 0 0-.9-.23c-.38 0-.7.09-.98.26-.28.18-.5.41-.65.7a2 2 0 0 0-.23.94v1.06c0 .44.08.82.24 1.14.16.32.4.56.68.73.3.16.64.25 1.03.25.26 0 .5-.04.7-.11.22-.08.4-.19.56-.34.16-.14.27-.32.35-.54l1.68.2c-.1.44-.3.82-.6 1.16-.3.32-.68.58-1.14.76-.46.18-.98.27-1.58.27Z" fill="#1F1F1F"/><path d="M291.5 42.5h-160v2h160v-2Z" fill="#F6F6F6" mask="url(#c)"/><path fill="#fff" d="M8.5 43.5h283v40H8.5z"/><g filter="url(#d)"><path fill="#fff" d="M8.5 43.5h123v40H8.5z"/><path d="M25.13 57.82V68H23.9v-8.89h-.06l-2.48 1.65v-1.25l2.54-1.7h1.23ZM28.06 68v-.9l3.36-3.67c.4-.43.72-.8.98-1.13.25-.32.44-.62.56-.9.13-.29.2-.59.2-.9a1.65 1.65 0 0 0-.96-1.53 2.2 2.2 0 0 0-1-.22c-.39 0-.73.08-1.02.25-.29.16-.51.38-.67.67a2.1 2.1 0 0 0-.24 1.01H28.1a2.87 2.87 0 0 1 1.54-2.63 3.39 3.39 0 0 1 1.6-.37c.6 0 1.13.12 1.59.38a2.8 2.8 0 0 1 1.28 3.54c-.14.36-.37.75-.7 1.19-.33.43-.79.96-1.37 1.6l-2.29 2.44v.08h4.74V68h-6.43Zm12.1-10.66-3.28 12.2H35.8l3.28-12.2h1.08Zm4.69 10.8a3 3 0 0 1-1.91-.61c-.53-.41-.93-1-1.21-1.79a8.49 8.49 0 0 1-.42-2.83c0-1.1.14-2.04.42-2.82.28-.78.68-1.38 1.21-1.79a3 3 0 0 1 1.91-.62c.74 0 1.38.2 1.9.62.53.41.94 1 1.22 1.79.28.78.42 1.72.42 2.82 0 1.1-.14 2.05-.42 2.83a3.82 3.82 0 0 1-1.2 1.79c-.53.4-1.17.6-1.92.6Zm0-1.1c.74 0 1.32-.35 1.73-1.07.41-.71.62-1.74.62-3.06 0-.88-.1-1.63-.29-2.25a3.09 3.09 0 0 0-.8-1.42 1.78 1.78 0 0 0-1.26-.49c-.74 0-1.31.37-1.73 1.1a6.23 6.23 0 0 0-.62 3.06c0 .88.1 1.63.28 2.25.19.61.45 1.08.8 1.4.35.32.78.49 1.27.49Zm5.19-1.13V64.9l4.47-7.08h.74v1.57h-.5l-3.38 5.35v.08h6.03v1.1h-7.36Zm4.8 2.09V57.82H56V68h-1.18Zm8.04-10.66-3.28 12.2h-1.07l3.28-12.2h1.07ZM64.25 68v-.9l3.36-3.67c.4-.43.72-.8.98-1.13.25-.32.44-.62.56-.9.13-.29.2-.59.2-.9a1.65 1.65 0 0 0-.96-1.53 2.2 2.2 0 0 0-1-.22c-.39 0-.73.08-1.02.25-.29.16-.51.38-.67.67a2.1 2.1 0 0 0-.24 1.01H64.3a2.87 2.87 0 0 1 1.54-2.63 3.39 3.39 0 0 1 1.6-.37c.6 0 1.13.12 1.59.38a2.8 2.8 0 0 1 1.28 3.54c-.14.36-.37.75-.7 1.19-.33.43-.79.96-1.37 1.6l-2.29 2.44v.08h4.73V68h-6.42Zm11.8.14c-.75 0-1.39-.2-1.92-.61-.52-.41-.92-1-1.2-1.79a8.49 8.49 0 0 1-.42-2.83c0-1.1.14-2.04.42-2.82.28-.78.68-1.38 1.21-1.79a3 3 0 0 1 1.9-.62c.75 0 1.39.2 1.91.62.53.41.94 1 1.22 1.79.28.78.42 1.72.42 2.82 0 1.1-.14 2.05-.42 2.83a3.82 3.82 0 0 1-1.2 1.79c-.53.4-1.17.6-1.92.6Zm0-1.1c.74 0 1.32-.35 1.73-1.07.41-.71.62-1.74.62-3.06 0-.88-.1-1.63-.29-2.25a3.09 3.09 0 0 0-.8-1.42 1.78 1.78 0 0 0-1.26-.49c-.74 0-1.31.37-1.73 1.1a6.23 6.23 0 0 0-.62 3.06c0 .88.1 1.63.28 2.25.19.61.45 1.08.8 1.4.35.32.78.49 1.27.49Zm5.43.96v-.9l3.36-3.67c.4-.43.72-.8.97-1.13.26-.32.45-.62.57-.9.13-.29.19-.59.19-.9a1.65 1.65 0 0 0-.96-1.53c-.3-.15-.62-.22-.99-.22-.4 0-.73.08-1.02.25-.3.16-.52.38-.68.67a2.1 2.1 0 0 0-.23 1.01h-1.17a2.87 2.87 0 0 1 1.54-2.63 3.39 3.39 0 0 1 1.6-.37c.6 0 1.12.12 1.59.38a2.8 2.8 0 0 1 1.27 3.54 4.8 4.8 0 0 1-.7 1.19c-.33.43-.78.96-1.36 1.6l-2.3 2.44v.08h4.74V68h-6.42Zm11.91.14c-.65 0-1.24-.11-1.75-.34a3 3 0 0 1-1.22-.94c-.3-.4-.46-.87-.49-1.4h1.26c.02.32.14.6.34.84s.45.42.78.55c.32.13.67.2 1.06.2.44 0 .83-.08 1.17-.23.34-.16.6-.37.8-.64.19-.27.28-.59.28-.94 0-.38-.1-.7-.28-1a1.84 1.84 0 0 0-.81-.67c-.36-.16-.8-.24-1.31-.24h-.82v-1.1h.82c.4 0 .75-.07 1.06-.22a1.65 1.65 0 0 0 .98-1.55c0-.34-.07-.64-.22-.9a1.56 1.56 0 0 0-.65-.6 2.1 2.1 0 0 0-.98-.2c-.35 0-.68.06-.99.19-.3.12-.56.3-.76.55-.2.24-.3.53-.31.86h-1.2c.02-.53.18-1 .49-1.4.3-.4.7-.72 1.18-.94a3.82 3.82 0 0 1 3.24.04 2.7 2.7 0 0 1 1.4 2.34 2.3 2.3 0 0 1-1.67 2.3v.09a2.33 2.33 0 0 1 2.04 2.45 2.6 2.6 0 0 1-.45 1.49c-.3.43-.7.78-1.22 1.03s-1.1.38-1.77.38Z" fill="#333"/></g><g filter="url(#e)"><path fill="#fff" d="M131.5 43.5h160v40h-160z"/><path d="M144.73 57.82h1.48l3.45 8.45h.12l3.46-8.45h1.48V68h-1.16v-7.74h-.1L150.28 68h-1.11l-3.18-7.74h-.1V68h-1.16V57.82Zm15.4 10.34a3.2 3.2 0 0 1-1.81-.5 3.34 3.34 0 0 1-1.22-1.37 4.65 4.65 0 0 1-.43-2.07c0-.8.15-1.49.43-2.08a3.3 3.3 0 0 1 3.03-1.88 3.3 3.3 0 0 1 3.02 1.87c.3.6.44 1.3.44 2.1a4.6 4.6 0 0 1-.44 2.06 3.3 3.3 0 0 1-1.2 1.38 3.3 3.3 0 0 1-1.82.49Zm0-1.05c.53 0 .96-.14 1.3-.4.33-.28.58-.63.75-1.07a4.25 4.25 0 0 0 0-2.85c-.17-.44-.42-.8-.76-1.06a2 2 0 0 0-1.29-.41 2 2 0 0 0-1.3.4 2.4 2.4 0 0 0-.74 1.07 4.21 4.21 0 0 0 0 2.85c.16.44.41.8.75 1.06.34.27.77.4 1.3.4Zm6.43-3.7V68h-1.18v-7.64h1.14v1.2h.1c.17-.4.45-.7.81-.94.36-.24.84-.36 1.41-.36.52 0 .97.11 1.36.32.39.21.69.53.9.96.22.42.33.96.33 1.6V68h-1.18v-4.77c0-.6-.15-1.07-.46-1.4a1.65 1.65 0 0 0-1.28-.51c-.38 0-.72.08-1.01.24-.3.16-.52.4-.7.71-.16.31-.24.7-.24 1.14Zm9.9 4.75a2.99 2.99 0 0 1-2.83-1.86 4.86 4.86 0 0 1-.42-2.1c0-.8.14-1.5.42-2.09a3.03 3.03 0 0 1 2.85-1.85c.5 0 .89.09 1.17.25.3.17.52.35.67.56.16.2.28.37.36.5h.1v-3.75h1.18V68h-1.14v-1.17h-.14c-.08.14-.2.31-.37.52-.15.21-.38.4-.68.57-.3.16-.68.24-1.17.24Zm.16-1.05c.47 0 .86-.13 1.19-.37.32-.25.57-.6.74-1.03.17-.44.25-.95.25-1.53 0-.57-.08-1.07-.25-1.5a1.96 1.96 0 0 0-1.94-1.37c-.5 0-.9.14-1.24.4-.33.24-.57.59-.74 1.02-.16.43-.24.91-.24 1.45 0 .55.08 1.04.25 1.48.17.44.41.8.74 1.06s.74.39 1.24.39Zm7.9 1.07c-.49 0-.93-.1-1.32-.27a2.3 2.3 0 0 1-.94-.8 2.26 2.26 0 0 1-.35-1.28c0-.44.09-.79.26-1.06.17-.28.4-.5.69-.65.29-.15.6-.27.95-.35.35-.08.7-.14 1.06-.18l1.13-.14c.3-.03.5-.09.64-.16.13-.08.2-.21.2-.4v-.04c0-.5-.13-.87-.4-1.14-.27-.28-.67-.41-1.21-.41a2.1 2.1 0 0 0-1.99 1.15l-1.11-.4a2.68 2.68 0 0 1 1.89-1.63 4.54 4.54 0 0 1 2.02-.07c.32.06.63.18.93.36.3.18.55.45.75.8.2.37.3.85.3 1.46V68h-1.18v-1.03h-.06a2.3 2.3 0 0 1-1.14 1.01c-.3.13-.68.2-1.13.2Zm.17-1.06c.47 0 .86-.09 1.18-.27a1.87 1.87 0 0 0 .97-1.61v-1.08c-.05.06-.16.12-.33.17a5.55 5.55 0 0 1-1.2.21l-.5.06c-.3.04-.59.1-.85.2-.26.08-.48.21-.64.39a1 1 0 0 0-.24.7c0 .41.15.72.45.93.31.2.7.3 1.16.3Zm5.95 3.74a2.57 2.57 0 0 1-.86-.14l.3-1.03c.29.07.54.1.76.08a.9.9 0 0 0 .58-.3c.17-.17.33-.45.47-.83l.22-.6-2.82-7.68h1.27l2.1 6.09h.09l2.1-6.09h1.28l-3.25 8.75c-.14.4-.32.72-.54.98a1.9 1.9 0 0 1-.75.58c-.28.13-.6.2-.95.2ZM202.19 68h-1.3l3.75-10.18h1.27L209.65 68h-1.3l-3.04-8.57h-.08L202.2 68Zm.48-3.98h5.2v1.1h-5.2v-1.1Zm8.4 6.84v-10.5h1.14v1.22h.14c.08-.14.2-.3.36-.51.15-.2.37-.4.66-.56.3-.16.69-.25 1.18-.25a3.03 3.03 0 0 1 2.85 1.85c.28.6.41 1.29.41 2.1 0 .8-.13 1.5-.4 2.1a2.99 2.99 0 0 1-2.83 1.85c-.5 0-.89-.08-1.18-.24a2.2 2.2 0 0 1-.69-.57 7.43 7.43 0 0 1-.36-.52h-.1v4.03h-1.18Zm1.16-6.68c0 .58.08 1.09.25 1.53.17.44.42.78.74 1.03.33.24.72.37 1.2.37.49 0 .9-.13 1.22-.4.33-.25.58-.6.75-1.05.17-.44.25-.93.25-1.48a3.9 3.9 0 0 0-.25-1.45c-.16-.43-.4-.78-.74-1.03a1.96 1.96 0 0 0-1.24-.38 1.96 1.96 0 0 0-1.93 1.37 4 4 0 0 0-.25 1.5ZM219.6 68v-7.64h1.13v1.16h.08c.14-.38.39-.69.75-.92.37-.24.78-.36 1.24-.36a13.07 13.07 0 0 1 .61.02v1.2a3.4 3.4 0 0 0-.71-.08c-.37 0-.7.08-1 .23a1.71 1.71 0 0 0-.94 1.56V68h-1.17Zm5.2 0v-7.64h1.2V68h-1.18Zm.6-8.9a.83.83 0 0 1-.6-.24.75.75 0 0 1-.24-.56c0-.22.09-.41.25-.57a.83.83 0 0 1 .6-.23c.22 0 .42.08.58.23.16.16.25.35.25.57 0 .21-.09.4-.25.56a.82.82 0 0 1-.59.23Zm3.9-1.28V68h-1.17V57.82h1.17Zm9.65 0V68h-1.24v-8.89h-.06l-2.48 1.65v-1.25l2.54-1.7h1.24Zm6.36 10.32c-.65 0-1.24-.11-1.75-.34a3.01 3.01 0 0 1-1.22-.94c-.3-.4-.46-.87-.49-1.4h1.26c.02.32.14.6.34.84s.45.42.78.55c.32.13.67.2 1.06.2.44 0 .83-.08 1.17-.23.34-.16.6-.37.8-.64.19-.27.28-.59.28-.94a1.77 1.77 0 0 0-1.1-1.67 3.14 3.14 0 0 0-1.3-.24h-.82v-1.1h.81c.41 0 .76-.07 1.07-.22a1.65 1.65 0 0 0 .98-1.55c0-.34-.07-.64-.22-.9a1.56 1.56 0 0 0-.65-.6 2.1 2.1 0 0 0-.98-.2c-.35 0-.68.06-.99.19-.3.12-.56.3-.76.55-.2.24-.3.53-.31.86h-1.2c.02-.53.18-1 .48-1.4a3 3 0 0 1 1.19-.94 3.83 3.83 0 0 1 3.24.04 2.7 2.7 0 0 1 1.4 2.34 2.32 2.32 0 0 1-1.67 2.31v.08a2.33 2.33 0 0 1 2.04 2.45 2.6 2.6 0 0 1-.45 1.49c-.3.43-.7.78-1.22 1.03s-1.1.38-1.77.38Zm8.82-7.78v1h-3.96v-1h3.96Zm-2.8-1.83h1.17v7.28c0 .33.05.58.14.75.1.16.23.27.38.33.16.05.32.08.5.08l.31-.02.2-.04.24 1.05a2.33 2.33 0 0 1-.88.14c-.33 0-.65-.07-.97-.21a1.94 1.94 0 0 1-.79-.66 1.9 1.9 0 0 1-.3-1.1v-7.6Zm5.9 4.88V68h-1.17V57.82h1.17v3.74h.1c.18-.4.45-.71.8-.94a2.6 2.6 0 0 1 1.45-.36c.52 0 .97.1 1.37.32.39.2.69.52.9.95.22.42.33.96.33 1.62V68h-1.17v-4.77a2 2 0 0 0-.47-1.41c-.31-.33-.75-.5-1.3-.5-.38 0-.73.08-1.03.24-.3.16-.55.4-.72.71a2.3 2.3 0 0 0-.26 1.14Zm11.9 4.67a.86.86 0 0 1-.64-.26.86.86 0 0 1-.26-.64c0-.24.08-.45.26-.63a.86.86 0 0 1 .63-.26c.25 0 .46.09.63.26a.86.86 0 0 1 .14 1.08.94.94 0 0 1-.32.33.85.85 0 0 1-.45.12Zm3.85 0a.86.86 0 0 1-.63-.26.86.86 0 0 1-.27-.64c0-.24.1-.45.27-.63a.86.86 0 0 1 .63-.26.9.9 0 0 1 .89.89.92.92 0 0 1-.45.78.85.85 0 0 1-.44.12Zm3.85 0a.86.86 0 0 1-.63-.26.86.86 0 0 1-.26-.64.9.9 0 0 1 .26-.63.86.86 0 0 1 .63-.26c.25 0 .46.09.63.26a.86.86 0 0 1 .14 1.08.93.93 0 0 1-.32.33.85.85 0 0 1-.45.12Z" fill="#333"/></g><path fill="#fff" d="M8.5 83.5h283v40H8.5z"/><g filter="url(#f)"><path fill="#fff" d="M8.5 83.5h123v40H8.5z"/><path d="M21.55 108v-.9l3.36-3.67c.4-.44.72-.8.98-1.13.25-.32.44-.62.57-.9.12-.29.18-.59.18-.9a1.65 1.65 0 0 0-.95-1.53 2.2 2.2 0 0 0-1-.22c-.39 0-.73.08-1.02.25-.29.16-.51.38-.67.67a2.1 2.1 0 0 0-.23 1.01h-1.18a2.87 2.87 0 0 1 1.54-2.63 3.39 3.39 0 0 1 1.6-.37c.6 0 1.13.12 1.6.38.45.25.81.59 1.08 1.02.26.42.39.9.39 1.42 0 .38-.07.74-.2 1.1-.14.36-.37.75-.7 1.19-.33.43-.79.96-1.37 1.6l-2.29 2.44v.08h4.74V108h-6.43Zm11.86.14a3.8 3.8 0 0 1-1.25-.24c-.42-.15-.8-.4-1.15-.77a3.96 3.96 0 0 1-.83-1.48 10.2 10.2 0 0 1-.06-4.74c.17-.7.42-1.29.74-1.76.32-.48.71-.85 1.16-1.1a3.2 3.2 0 0 1 1.55-.37c.57 0 1.08.11 1.52.34.45.23.81.54 1.1.95.28.4.46.87.54 1.4h-1.21a2.25 2.25 0 0 0-.66-1.14c-.32-.3-.75-.46-1.29-.46-.79 0-1.41.35-1.86 1.03a5.26 5.26 0 0 0-.69 2.89h.08a3 3 0 0 1 4.11-.91 3.31 3.31 0 0 1 1.6 2.94c0 .63-.14 1.2-.42 1.73a3.22 3.22 0 0 1-2.98 1.69Zm0-1.1c.42 0 .8-.1 1.12-.3a2.37 2.37 0 0 0 1.08-2.01 2.35 2.35 0 0 0-1.05-1.99c-.32-.2-.7-.3-1.1-.3-.32 0-.62.06-.89.18a2.25 2.25 0 0 0-1.2 1.25 2.36 2.36 0 0 0 .9 2.85c.34.22.72.33 1.14.33Zm8.98-9.7-3.29 12.2h-1.07l3.28-12.2h1.08Zm4.69 10.8c-.75 0-1.39-.2-1.92-.61-.52-.41-.93-1-1.2-1.79a8.49 8.49 0 0 1-.42-2.83c0-1.1.14-2.04.42-2.82.28-.78.68-1.38 1.2-1.79a3 3 0 0 1 1.92-.62c.74 0 1.38.2 1.9.62.53.41.94 1 1.22 1.79.28.78.42 1.72.42 2.82 0 1.1-.14 2.05-.42 2.83a3.82 3.82 0 0 1-1.2 1.79c-.53.4-1.17.6-1.92.6Zm0-1.1c.74 0 1.32-.35 1.73-1.07.4-.71.61-1.73.61-3.06 0-.88-.09-1.63-.28-2.25a3.09 3.09 0 0 0-.8-1.42 1.78 1.78 0 0 0-1.26-.49c-.74 0-1.31.37-1.73 1.1a6.23 6.23 0 0 0-.62 3.06c0 .88.1 1.63.28 2.25.19.61.45 1.08.8 1.4.35.33.77.48 1.27.48Zm5.43.96v-.9l3.36-3.67c.4-.44.72-.8.97-1.13.26-.32.45-.62.57-.9.13-.29.19-.59.19-.9a1.65 1.65 0 0 0-.96-1.53c-.3-.15-.62-.22-1-.22s-.72.08-1.02.25c-.28.16-.5.38-.67.67a2.1 2.1 0 0 0-.23 1.01h-1.17a2.87 2.87 0 0 1 1.54-2.63 3.39 3.39 0 0 1 1.6-.37c.6 0 1.12.12 1.58.38a2.75 2.75 0 0 1 1.49 2.44c0 .38-.08.74-.21 1.1a4.8 4.8 0 0 1-.7 1.19c-.33.43-.78.96-1.37 1.6l-2.28 2.44v.08h4.73V108h-6.42Zm12.1-10.66-3.29 12.2h-1.07l3.28-12.2h1.07ZM65.96 108v-.9l3.36-3.67c.4-.44.72-.8.98-1.13.25-.32.44-.62.57-.9.12-.29.18-.59.18-.9a1.65 1.65 0 0 0-.95-1.53 2.2 2.2 0 0 0-1-.22c-.39 0-.73.08-1.02.25-.29.16-.51.38-.67.67a2.1 2.1 0 0 0-.23 1.01H66a2.87 2.87 0 0 1 1.54-2.63 3.39 3.39 0 0 1 1.6-.37c.6 0 1.13.12 1.6.38.45.25.81.59 1.08 1.02.26.42.39.9.39 1.42 0 .38-.07.74-.2 1.1-.14.36-.37.75-.7 1.19-.33.43-.79.96-1.37 1.6l-2.29 2.44v.08h4.74V108h-6.43Zm11.8.14a3 3 0 0 1-1.91-.61c-.53-.41-.93-1-1.21-1.79a8.49 8.49 0 0 1-.42-2.83c0-1.1.14-2.04.42-2.82a3.9 3.9 0 0 1 1.21-1.79 3 3 0 0 1 1.91-.62c.74 0 1.38.2 1.9.62.54.41.94 1 1.22 1.79.28.78.42 1.72.42 2.82 0 1.1-.14 2.05-.42 2.83a3.82 3.82 0 0 1-1.2 1.79c-.53.4-1.17.6-1.92.6Zm0-1.1c.74 0 1.32-.35 1.73-1.07a6.2 6.2 0 0 0 .62-3.06c0-.88-.1-1.63-.29-2.25a3.09 3.09 0 0 0-.8-1.42 1.78 1.78 0 0 0-1.26-.49c-.73 0-1.3.37-1.72 1.1a6.23 6.23 0 0 0-.63 3.06c0 .88.1 1.63.28 2.25.19.61.46 1.08.8 1.4.36.33.78.48 1.27.48Zm5.43.96v-.9l3.36-3.67c.4-.44.72-.8.98-1.13.25-.32.44-.62.56-.9.13-.29.2-.59.2-.9a1.65 1.65 0 0 0-.96-1.53 2.2 2.2 0 0 0-1-.22c-.39 0-.73.08-1.02.25-.29.16-.51.38-.67.67a2.1 2.1 0 0 0-.24 1.01h-1.17a2.87 2.87 0 0 1 1.54-2.63 3.39 3.39 0 0 1 1.6-.37c.6 0 1.13.12 1.59.38a2.8 2.8 0 0 1 1.28 3.54c-.14.36-.37.75-.7 1.19-.33.43-.79.96-1.37 1.6l-2.29 2.44v.08h4.73V108H83.2Zm11.92.14c-.66 0-1.24-.11-1.76-.34a3 3 0 0 1-1.22-.94c-.3-.4-.46-.87-.48-1.4h1.25c.03.32.14.6.34.85.2.23.46.41.78.54.32.13.68.2 1.07.2.44 0 .82-.08 1.16-.23.34-.16.6-.37.8-.64a1.87 1.87 0 0 0 .01-1.94 1.85 1.85 0 0 0-.82-.67c-.36-.16-.8-.24-1.31-.24h-.82v-1.1h.82c.4 0 .76-.07 1.06-.22a1.65 1.65 0 0 0 .98-1.55c0-.34-.07-.64-.22-.9a1.56 1.56 0 0 0-.65-.6 2.1 2.1 0 0 0-.97-.2c-.35 0-.69.06-1 .19-.3.12-.56.3-.75.55-.2.24-.3.53-.32.86h-1.2c.03-.53.19-1 .49-1.4.3-.4.7-.72 1.18-.94a3.82 3.82 0 0 1 3.24.04 2.7 2.7 0 0 1 1.4 2.34 2.3 2.3 0 0 1-1.67 2.3v.09c.64.1 1.14.38 1.5.82.37.44.55.98.55 1.63a2.6 2.6 0 0 1-.45 1.49c-.3.44-.71.78-1.23 1.03-.51.25-1.1.38-1.76.38Z" fill="#333"/></g><g filter="url(#g)"><path fill="#fff" d="M131.5 83.5h160v40h-160z"/><path d="M144.73 108V97.82h6.1v1.1h-4.86v3.43h4.41v1.1h-4.41V108h-1.24Zm7.98 0v-7.64h1.13v1.16h.08c.14-.38.4-.69.76-.92.36-.24.77-.36 1.23-.36a14.66 14.66 0 0 1 .62.02v1.2a3.67 3.67 0 0 0-.72-.08c-.37 0-.7.08-1 .23a1.71 1.71 0 0 0-.94 1.56V108h-1.16Zm5.2 0v-7.64h1.18V108h-1.17Zm.6-8.9a.83.83 0 0 1-.59-.24.75.75 0 0 1-.24-.56c0-.22.08-.41.24-.57a.83.83 0 0 1 .6-.23c.22 0 .42.08.58.23.17.16.25.35.25.57 0 .21-.08.4-.25.56a.82.82 0 0 1-.59.23Zm5.61 9.06a3 3 0 0 1-2.83-1.85c-.27-.6-.4-1.3-.4-2.1 0-.81.13-1.5.4-2.1a3.04 3.04 0 0 1 2.85-1.85c.5 0 .9.09 1.18.25.3.16.52.35.67.56l.36.5h.1v-3.75h1.17V108h-1.13v-1.17h-.14c-.09.14-.2.31-.37.52-.16.21-.38.4-.68.57-.3.16-.69.24-1.18.24Zm.16-1.05a2 2 0 0 0 1.2-.37c.32-.25.57-.6.74-1.03.16-.44.25-.95.25-1.53 0-.57-.08-1.07-.25-1.5a1.96 1.96 0 0 0-1.94-1.37c-.5 0-.9.14-1.24.4-.33.24-.57.59-.74 1.02a4.33 4.33 0 0 0 0 2.93c.17.44.42.8.75 1.06s.74.39 1.23.39Zm7.9 1.07c-.48 0-.92-.1-1.31-.27a2.3 2.3 0 0 1-.94-.8 2.26 2.26 0 0 1-.35-1.28c0-.44.08-.79.26-1.06.17-.28.4-.5.69-.65.28-.15.6-.27.95-.35.35-.08.7-.14 1.06-.19l1.13-.13c.3-.03.5-.09.64-.16.13-.08.2-.21.2-.4v-.04c0-.5-.13-.87-.4-1.14-.27-.28-.67-.41-1.21-.41a2.1 2.1 0 0 0-1.99 1.15l-1.11-.4a2.68 2.68 0 0 1 1.88-1.63 4.55 4.55 0 0 1 2.02-.07c.33.06.64.18.93.36.3.18.56.45.75.8.2.37.3.85.3 1.46V108h-1.17v-1.03h-.06a2.3 2.3 0 0 1-1.14 1.01c-.3.13-.68.2-1.13.2Zm.18-1.06c.46 0 .86-.09 1.17-.27a1.87 1.87 0 0 0 .98-1.61v-1.08c-.05.06-.16.12-.33.17l-.58.12a29.9 29.9 0 0 1-1.12.15c-.3.04-.59.1-.85.2-.27.08-.48.21-.64.39a1 1 0 0 0-.24.7c0 .41.15.72.45.93.3.2.7.3 1.16.3Zm5.95 3.74a2.58 2.58 0 0 1-.86-.14l.3-1.03c.28.07.54.1.75.08a.9.9 0 0 0 .59-.3c.17-.17.33-.45.47-.83l.22-.6-2.83-7.68h1.28l2.1 6.09h.08l2.11-6.09h1.27l-3.24 8.75c-.14.4-.32.72-.54.98-.21.27-.46.46-.75.58-.28.13-.6.2-.95.2Zm11.13-13.04h1.47l3.46 8.45h.12l3.46-8.45h1.47V108h-1.15v-7.74h-.1l-3.18 7.74h-1.12l-3.18-7.74h-.1V108h-1.15V97.82Zm14.54 10.36c-.48 0-.92-.1-1.31-.27a2.3 2.3 0 0 1-.94-.8 2.26 2.26 0 0 1-.35-1.28c0-.44.08-.79.26-1.06.17-.28.4-.5.69-.65.29-.15.6-.27.95-.35.35-.08.7-.14 1.06-.19a52 52 0 0 1 1.13-.13c.3-.03.5-.09.64-.16.13-.08.2-.21.2-.4v-.04c0-.5-.13-.87-.4-1.14-.27-.28-.67-.41-1.21-.41a2.1 2.1 0 0 0-1.99 1.15l-1.11-.4a2.68 2.68 0 0 1 1.89-1.63 4.55 4.55 0 0 1 2.01-.07c.33.06.64.18.93.36.3.18.56.45.75.8.2.37.3.85.3 1.46V108h-1.17v-1.03h-.06a2.28 2.28 0 0 1-1.14 1.01c-.3.13-.68.2-1.13.2Zm.18-1.06c.47 0 .86-.09 1.18-.27a1.86 1.86 0 0 0 .97-1.61v-1.08c-.05.06-.16.12-.33.17l-.57.12a29.9 29.9 0 0 1-1.13.15c-.3.04-.59.1-.85.2-.27.08-.48.21-.64.39a1 1 0 0 0-.24.7c0 .41.15.72.45.93.3.2.7.3 1.16.3Zm5.47.88v-7.64h1.13v1.16h.08c.14-.38.39-.69.75-.92.37-.24.78-.36 1.24-.36a14.83 14.83 0 0 1 .61.02v1.2a3.67 3.67 0 0 0-.71-.08c-.37 0-.7.08-1 .23a1.71 1.71 0 0 0-.94 1.56V108h-1.16Zm8.07.16a3.3 3.3 0 0 1-1.85-.5 3.3 3.3 0 0 1-1.19-1.4 4.72 4.72 0 0 1-.42-2.04c0-.77.15-1.46.43-2.05a3.23 3.23 0 0 1 3.01-1.9c.54 0 1.02.1 1.45.3a2.6 2.6 0 0 1 1.57 2.09h-1.17a1.81 1.81 0 0 0-1.83-1.34c-.45 0-.85.12-1.2.36-.34.23-.6.56-.8 1a3.7 3.7 0 0 0-.28 1.5c0 .6.09 1.1.28 1.54.18.44.45.78.79 1.02s.75.37 1.21.37c.3 0 .59-.06.83-.16a1.71 1.71 0 0 0 1-1.18h1.18a2.72 2.72 0 0 1-1.53 2.08c-.42.2-.91.3-1.48.3Zm5.9-4.75V108h-1.18V97.82h1.18v3.74h.1c.17-.4.44-.71.8-.94a2.6 2.6 0 0 1 1.44-.36c.52 0 .98.1 1.37.32.39.2.7.52.9.95.23.42.34.96.34 1.62V108h-1.18v-4.77c0-.6-.15-1.08-.47-1.41a1.7 1.7 0 0 0-1.3-.5c-.38 0-.73.08-1.03.24-.3.16-.54.4-.72.71-.17.31-.25.7-.25 1.14Zm10.77 2.5v-1.01l4.48-7.08h.73v1.57h-.5l-3.38 5.35v.08h6.03v1.1h-7.36Zm4.8 2.09V97.82h1.17V108h-1.18Zm7.76-7.64v1h-3.95v-1h3.95Zm-2.8-1.83h1.17v7.28c0 .33.05.58.15.75.1.16.22.27.38.33.15.05.31.08.49.08l.32-.02.2-.04.23 1.05a2.34 2.34 0 0 1-.87.14c-.33 0-.66-.07-.98-.21a1.94 1.94 0 0 1-.78-.66 1.9 1.9 0 0 1-.31-1.1v-7.6Zm5.9 4.88V108h-1.17V97.82h1.18v3.74h.1c.18-.4.44-.71.8-.94.36-.24.84-.36 1.44-.36.52 0 .98.1 1.37.32.4.2.7.52.91.95.22.42.33.96.33 1.62V108h-1.18v-4.77c0-.6-.15-1.08-.47-1.41-.3-.33-.74-.5-1.3-.5-.38 0-.72.08-1.03.24-.3.16-.54.4-.72.71a2.3 2.3 0 0 0-.25 1.14Zm11.02 4.59v-.9l3.36-3.67c.4-.44.72-.8.98-1.13.25-.32.44-.62.56-.9.13-.29.2-.59.2-.9a1.65 1.65 0 0 0-.96-1.53 2.2 2.2 0 0 0-1-.22c-.39 0-.73.08-1.02.25-.29.16-.51.38-.67.67a2.1 2.1 0 0 0-.24 1.01h-1.17a2.87 2.87 0 0 1 1.54-2.63 3.39 3.39 0 0 1 1.6-.37c.6 0 1.13.12 1.59.38a2.8 2.8 0 0 1 1.28 3.54c-.14.36-.37.75-.7 1.19-.33.43-.79.96-1.37 1.6l-2.29 2.44v.08h4.74V108h-6.43Zm9.35.08a.86.86 0 0 1-.63-.26.86.86 0 0 1-.26-.63.9.9 0 0 1 .26-.64.86.86 0 0 1 .63-.26.9.9 0 0 1 .64.26.9.9 0 0 1 .26.64c0 .16-.04.3-.13.44a.92.92 0 0 1-.32.33.85.85 0 0 1-.45.12Zm3.86 0a.86.86 0 0 1-.63-.26.86.86 0 0 1-.27-.63c0-.25.1-.46.27-.64a.86.86 0 0 1 .63-.26.9.9 0 0 1 .77 1.34.93.93 0 0 1-.32.33.85.85 0 0 1-.45.12Zm3.86 0a.86.86 0 0 1-.64-.26.86.86 0 0 1-.26-.63.9.9 0 0 1 .26-.64.86.86 0 0 1 .63-.26.9.9 0 0 1 .64.26.9.9 0 0 1 .26.64c0 .16-.04.3-.13.44a.92.92 0 0 1-.32.33.85.85 0 0 1-.44.12Z" fill="#333"/></g></g><defs><filter id="d" x="8.5" y="43.5" width="123" height="40" filterUnits="userSpaceOnUse" color-interpolation-filters="sRGB"><feFlood flood-opacity="0" result="BackgroundImageFix"/><feBlend in="SourceGraphic" in2="BackgroundImageFix" result="shape"/><feColorMatrix in="SourceAlpha" values="0 0 0 0 0 0 0 0 0 0 0 0 0 0 0 0 0 0 127 0" result="hardAlpha"/><feOffset dy="-1"/><feComposite in2="hardAlpha" operator="arithmetic" k2="-1" k3="1"/><feColorMatrix values="0 0 0 0 0.933333 0 0 0 0 0.933333 0 0 0 0 0.933333 0 0 0 1 0"/><feBlend in2="shape" result="effect1_innerShadow_11695_104646"/></filter><filter id="e" x="131.5" y="43.5" width="160" height="40" filterUnits="userSpaceOnUse" color-interpolation-filters="sRGB"><feFlood flood-opacity="0" result="BackgroundImageFix"/><feBlend in="SourceGraphic" in2="BackgroundImageFix" result="shape"/><feColorMatrix in="SourceAlpha" values="0 0 0 0 0 0 0 0 0 0 0 0 0 0 0 0 0 0 127 0" result="hardAlpha"/><feOffset dy="-1"/><feComposite in2="hardAlpha" operator="arithmetic" k2="-1" k3="1"/><feColorMatrix values="0 0 0 0 0.933333 0 0 0 0 0.933333 0 0 0 0 0.933333 0 0 0 1 0"/><feBlend in2="shape" result="effect1_innerShadow_11695_104646"/></filter><filter id="f" x="8.5" y="83.5" width="123" height="40" filterUnits="userSpaceOnUse" color-interpolation-filters="sRGB"><feFlood flood-opacity="0" result="BackgroundImageFix"/><feBlend in="SourceGraphic" in2="BackgroundImageFix" result="shape"/><feColorMatrix in="SourceAlpha" values="0 0 0 0 0 0 0 0 0 0 0 0 0 0 0 0 0 0 127 0" result="hardAlpha"/><feOffset dy="-1"/><feComposite in2="hardAlpha" operator="arithmetic" k2="-1" k3="1"/><feColorMatrix values="0 0 0 0 0.933333 0 0 0 0 0.933333 0 0 0 0 0.933333 0 0 0 1 0"/><feBlend in2="shape" result="effect1_innerShadow_11695_104646"/></filter><filter id="g" x="131.5" y="83.5" width="160" height="40" filterUnits="userSpaceOnUse" color-interpolation-filters="sRGB"><feFlood flood-opacity="0" result="BackgroundImageFix"/><feBlend in="SourceGraphic" in2="BackgroundImageFix" result="shape"/><feColorMatrix in="SourceAlpha" values="0 0 0 0 0 0 0 0 0 0 0 0 0 0 0 0 0 0 127 0" result="hardAlpha"/><feOffset dy="-1"/><feComposite in2="hardAlpha" operator="arithmetic" k2="-1" k3="1"/><feColorMatrix values="0 0 0 0 0.933333 0 0 0 0 0.933333 0 0 0 0 0.933333 0 0 0 1 0"/><feBlend in2="shape" result="effect1_innerShadow_11695_104646"/></filter><clipPath id="a"><path fill="#fff" transform="translate(8.5 8.5)" d="M0 0h283v115H0z"/></clipPath></defs></svg>