<svg width="672" height="307" fill="none" xmlns="http://www.w3.org/2000/svg"><path fill="#F6F6F6" d="M0 0h672v307H0z"/><rect x="56" y="63.5" width="516" height="180" rx="7.5" fill="#fff"/><path d="M72.4 89v-1.33l3.54-3.47c.34-.34.62-.64.84-.9.23-.27.4-.53.51-.78.11-.25.17-.51.17-.8a1.46 1.46 0 0 0-.82-1.36 1.94 1.94 0 0 0-.87-.18c-.33 0-.63.06-.88.2s-.45.33-.59.59c-.13.25-.2.55-.2.9h-1.75a2.99 2.99 0 0 1 1.66-2.8c.52-.26 1.11-.4 1.79-.4.68 0 1.28.14 1.8.4a2.73 2.73 0 0 1 1.64 2.57 3 3 0 0 1-.23 1.12c-.14.36-.4.77-.77 1.22-.36.45-.88.99-1.53 1.62l-1.76 1.79v.07h4.43V89H72.4Zm12.2 0v-7.64h1.8V89h-1.8Zm.9-8.72c-.29 0-.53-.1-.74-.28a.91.91 0 0 1-.3-.7c0-.27.1-.5.3-.69.2-.19.45-.28.74-.28s.53.1.73.28a.95.95 0 0 1 .01 1.39c-.2.19-.45.28-.74.28Zm6.56 1.08v1.4h-4.4v-1.4h4.4Zm-3.31-1.83h1.8v7.17c0 .25.04.43.1.56.09.13.18.21.3.26.13.04.27.07.42.07a1.76 1.76 0 0 0 .52-.07l.3 1.4a4 4 0 0 1-1.05.18c-.45.02-.86-.05-1.22-.2a1.9 1.9 0 0 1-.86-.7 2.1 2.1 0 0 1-.31-1.2v-7.47Zm8.11 9.62c-.77 0-1.43-.16-1.98-.48a3.23 3.23 0 0 1-1.28-1.36 4.56 4.56 0 0 1-.45-2.08c0-.79.15-1.48.45-2.07a3.38 3.38 0 0 1 3.17-1.9c.47 0 .91.08 1.33.23a3.19 3.19 0 0 1 1.88 1.9c.18.49.28 1.06.28 1.73v.55H94v-1.2h4.53a2 2 0 0 0-.22-.93 1.63 1.63 0 0 0-.61-.64 1.72 1.72 0 0 0-.91-.23 1.8 1.8 0 0 0-1.62.96 2 2 0 0 0-.23.94v1.06c0 .44.08.82.24 1.14.16.32.39.56.68.73a2.31 2.31 0 0 0 1.74.14c.2-.08.4-.19.55-.34.15-.14.27-.32.35-.54l1.68.2c-.1.44-.3.82-.6 1.16-.3.32-.68.58-1.14.76-.46.18-.99.27-1.58.27Zm4.92-.15v-7.64h1.72v1.3h.09c.16-.44.42-.78.79-1.02.37-.25.8-.38 1.32-.38.51 0 .95.13 1.3.38a2 2 0 0 1 .76 1.02h.08c.17-.42.45-.76.85-1.01.4-.26.89-.39 1.44-.39.7 0 1.28.23 1.72.67.45.44.67 1.1.67 1.94V89h-1.8v-4.85c0-.47-.13-.82-.39-1.04a1.35 1.35 0 0 0-.92-.33c-.44 0-.77.14-1.02.4a1.5 1.5 0 0 0-.36 1.06V89h-1.77v-4.92c0-.4-.12-.71-.36-.95a1.25 1.25 0 0 0-.92-.35c-.26 0-.5.07-.7.2a1.3 1.3 0 0 0-.51.55c-.13.24-.2.51-.2.83V89h-1.8Zm18.6-5.62-1.64.18a1.33 1.33 0 0 0-.25-.47 1.21 1.21 0 0 0-.45-.35c-.2-.09-.43-.13-.7-.13-.38 0-.7.08-.95.24-.26.16-.38.37-.38.63 0 .22.08.4.25.54.17.14.44.26.83.35l1.3.27c.73.16 1.26.4 1.61.75.36.33.54.78.54 1.32 0 .48-.14.9-.42 1.28a2.7 2.7 0 0 1-1.15.85c-.49.2-1.05.3-1.69.3-.93 0-1.69-.19-2.26-.58a2.4 2.4 0 0 1-1.02-1.64l1.76-.17c.08.34.25.6.5.78.27.17.6.26 1.02.26.42 0 .77-.09 1.03-.26.26-.18.39-.4.39-.65 0-.22-.09-.4-.26-.54a1.76 1.76 0 0 0-.77-.33l-1.3-.28a3.1 3.1 0 0 1-1.63-.77 1.9 1.9 0 0 1-.52-1.38c0-.47.12-.88.38-1.22a2.5 2.5 0 0 1 1.09-.8c.47-.2 1-.3 1.62-.3.9 0 1.6.2 2.1.58.53.38.85.9.97 1.54Zm9.75-.21v1.48h-4.59v-1.48h4.59Zm10.98-1.55a1.36 1.36 0 0 0-.6-1.02 2.25 2.25 0 0 0-1.32-.36c-.39 0-.72.06-1 .17-.27.12-.48.28-.62.48a1.14 1.14 0 0 0-.08 1.23c.1.16.23.29.4.4.17.1.36.2.56.27.2.07.41.13.62.18l.96.24c.38.09.75.2 1.1.36.36.15.68.35.97.58a2.52 2.52 0 0 1 .93 2 2.76 2.76 0 0 1-1.79 2.63 5.2 5.2 0 0 1-2.08.37 5.3 5.3 0 0 1-2.07-.36 3.07 3.07 0 0 1-1.36-1.08 3.18 3.18 0 0 1-.52-1.72h1.8a1.55 1.55 0 0 0 1.09 1.41c.31.12.66.18 1.04.18.4 0 .76-.06 1.06-.18.3-.12.54-.3.71-.5.17-.23.26-.48.27-.77a.98.98 0 0 0-.24-.66 1.72 1.72 0 0 0-.64-.44 6.18 6.18 0 0 0-.95-.32l-1.16-.3a4.66 4.66 0 0 1-2-.97 2.26 2.26 0 0 1-.72-1.76c0-.6.17-1.12.49-1.57.33-.45.77-.8 1.34-1.05a4.5 4.5 0 0 1 1.91-.38c.72 0 1.36.12 1.9.38.55.25.98.6 1.29 1.04.31.44.47.94.48 1.52h-1.77Zm6.8 7.53a3.7 3.7 0 0 1-1.93-.5 3.35 3.35 0 0 1-1.28-1.37 4.53 4.53 0 0 1-.44-2.07c0-.79.15-1.48.44-2.07.3-.6.73-1.06 1.28-1.38a3.7 3.7 0 0 1 1.94-.5c.74 0 1.39.17 1.94.5.54.32.96.79 1.26 1.38.3.6.45 1.28.45 2.07a4.5 4.5 0 0 1-.45 2.07c-.3.59-.72 1.05-1.27 1.38-.54.33-1.19.49-1.93.49Zm.02-1.44c.4 0 .74-.11 1.01-.34.27-.22.47-.52.6-.9a3.85 3.85 0 0 0 .01-2.53 2 2 0 0 0-.61-.91 1.54 1.54 0 0 0-1.01-.34c-.42 0-.76.11-1.04.34-.27.22-.47.53-.61.9a3.95 3.95 0 0 0 0 2.54c.14.38.34.68.61.9.28.23.62.34 1.04.34ZM153.1 89v-7.64h1.75v1.28h.08a1.9 1.9 0 0 1 1.88-1.39 4.1 4.1 0 0 1 .65.05v1.66a3.35 3.35 0 0 0-.84-.1c-.33 0-.62.07-.88.2a1.57 1.57 0 0 0-.84 1.45V89h-1.8Zm9.78-7.64v1.4h-4.4v-1.4h4.4Zm-3.31-1.83h1.8v7.17c0 .25.04.43.11.56.08.13.18.21.3.26.12.04.26.07.4.07a1.76 1.76 0 0 0 .53-.07l.3 1.4a4 4 0 0 1-1.05.18c-.45.02-.86-.05-1.22-.2a1.9 1.9 0 0 1-.86-.7 2.1 2.1 0 0 1-.31-1.2v-7.47Zm8.11 9.62c-.77 0-1.43-.16-1.98-.48a3.23 3.23 0 0 1-1.28-1.36 4.57 4.57 0 0 1-.45-2.08c0-.79.15-1.48.45-2.07a3.39 3.39 0 0 1 3.17-1.9c.47 0 .91.08 1.33.23a3.19 3.19 0 0 1 1.88 1.9c.18.49.28 1.06.28 1.73v.55h-6.26v-1.2h4.53a2 2 0 0 0-.22-.93 1.63 1.63 0 0 0-1.52-.87c-.37 0-.69.09-.97.26-.28.18-.5.41-.65.7-.15.29-.23.6-.23.94v1.06c0 .44.08.82.24 1.14.16.32.39.56.68.73.3.16.63.25 1.03.25.26 0 .5-.04.7-.11.22-.08.4-.19.56-.34.15-.14.27-.32.35-.54l1.68.2c-.1.44-.3.82-.6 1.16-.3.32-.68.58-1.14.76-.46.18-.99.27-1.58.27Zm7.75-.02a2.89 2.89 0 0 1-2.73-1.8 5.01 5.01 0 0 1-.41-2.14c0-.85.14-1.56.41-2.15a2.93 2.93 0 0 1 3.84-1.55c.29.15.52.33.69.54.17.21.3.41.39.6h.07v-3.81h1.8V89h-1.76v-1.2h-.11c-.1.18-.23.38-.4.59a2.22 2.22 0 0 1-1.79.74Zm.5-1.47c.39 0 .71-.1.98-.31.27-.2.47-.5.61-.87s.2-.8.2-1.3-.06-.92-.2-1.29a1.83 1.83 0 0 0-.6-.85c-.27-.2-.6-.3-.99-.3-.4 0-.73.1-1 .31s-.47.5-.6.87a3.9 3.9 0 0 0-.01 2.54 2 2 0 0 0 .62.88c.27.21.6.32 1 .32Zm9.04 1.34V78.82h1.8v3.8h.07c.1-.18.23-.38.4-.59.16-.2.4-.39.68-.54a2.91 2.91 0 0 1 3.83 1.55c.29.59.43 1.3.43 2.15 0 .84-.14 1.55-.42 2.14a2.89 2.89 0 0 1-2.73 1.8c-.44 0-.8-.07-1.09-.21a2.22 2.22 0 0 1-.7-.53 3.3 3.3 0 0 1-.4-.6h-.1V89h-1.77Zm1.76-3.82c0 .5.07.93.21 1.3.15.37.35.66.61.87.27.2.6.3.98.3.4 0 .73-.1 1-.31.27-.22.47-.5.6-.88.14-.38.21-.8.21-1.28 0-.47-.06-.9-.2-1.26a1.9 1.9 0 0 0-.6-.87c-.28-.2-.61-.3-1.01-.3-.39 0-.71.1-.98.3-.27.2-.47.48-.61.84-.14.37-.2.8-.2 1.3Zm7.84 6.68a3.63 3.63 0 0 1-1.18-.19l.42-1.4c.26.08.5.12.7.11.2 0 .39-.07.54-.2.16-.11.3-.32.4-.6l.16-.42-2.77-7.8h1.91l1.76 5.77h.08l1.76-5.77h1.92l-3.06 8.56c-.14.4-.33.76-.56 1.04-.24.3-.53.52-.87.67-.34.16-.74.23-1.21.23Zm19.21-9.6h-1.86a2.3 2.3 0 0 0-.82-1.42 2.21 2.21 0 0 0-.73-.38 2.83 2.83 0 0 0-.87-.13 2.63 2.63 0 0 0-2.47 1.64 4.67 4.67 0 0 0-.37 1.94c0 .78.12 1.43.37 1.97.24.53.58.93 1 1.2a2.97 2.97 0 0 0 2.32.28 2.34 2.34 0 0 0 1.26-.95c.15-.23.26-.5.31-.8l1.86.02a4.01 4.01 0 0 1-2.65 3.24c-.5.18-1.05.27-1.66.27a4.34 4.34 0 0 1-4.06-2.42 6.1 6.1 0 0 1-.6-2.81 6 6 0 0 1 .61-2.81 4.37 4.37 0 0 1 4.05-2.42c.57 0 1.1.08 1.58.24a3.98 3.98 0 0 1 2.74 3.33Zm3.41-3.44V89h-1.8V78.82h1.8Zm4.05 10.33c-.49 0-.92-.08-1.3-.25a2.13 2.13 0 0 1-.92-.78 2.27 2.27 0 0 1-.34-1.26c0-.43.08-.79.24-1.07.16-.28.38-.5.65-.68.28-.17.59-.3.93-.38.35-.09.71-.15 1.08-.2l1.1-.12c.27-.04.47-.1.6-.18.13-.08.2-.2.2-.38v-.03c0-.37-.12-.66-.34-.87-.22-.2-.54-.3-.96-.3-.44 0-.8.09-1.05.28-.25.2-.43.42-.52.68l-1.68-.24a2.68 2.68 0 0 1 1.78-1.87 4.76 4.76 0 0 1 2.56-.1c.36.08.7.22 1 .42.3.2.54.46.72.8.19.34.28.76.28 1.27V89h-1.73v-1.05h-.06a2.21 2.21 0 0 1-1.2 1.04c-.3.1-.64.16-1.04.16Zm.47-1.32a2 2 0 0 0 .94-.21c.26-.15.47-.34.6-.58.15-.24.23-.5.23-.78v-.9a.86.86 0 0 1-.3.13 14.09 14.09 0 0 1-1.36.24c-.26.04-.5.1-.72.18-.2.09-.37.2-.5.35a.85.85 0 0 0-.18.57c0 .33.12.58.36.75.24.17.55.25.93.25Zm11.4-4.45-1.63.18a1.33 1.33 0 0 0-.25-.47 1.2 1.2 0 0 0-.45-.35 1.7 1.7 0 0 0-.71-.13c-.38 0-.7.08-.95.24-.25.16-.37.37-.37.63 0 .22.08.4.25.54.16.14.44.26.83.35l1.3.27c.72.16 1.26.4 1.61.75.36.33.54.78.54 1.32 0 .48-.14.9-.42 1.28-.28.36-.66.65-1.15.85-.5.2-1.05.3-1.7.3-.92 0-1.68-.19-2.25-.58a2.4 2.4 0 0 1-1.02-1.64l1.76-.17c.08.34.25.6.5.78.26.17.6.26 1.01.26.43 0 .78-.09 1.03-.26.27-.18.4-.4.4-.65 0-.22-.09-.4-.26-.54a1.77 1.77 0 0 0-.77-.33l-1.3-.28a3.1 3.1 0 0 1-1.63-.77 1.89 1.89 0 0 1-.52-1.38c0-.47.12-.88.38-1.22a2.5 2.5 0 0 1 1.09-.8c.47-.2 1-.3 1.61-.3.9 0 1.6.2 2.12.58.51.38.83.9.96 1.54Zm7.69 0-1.64.18a1.31 1.31 0 0 0-.7-.82c-.2-.09-.43-.13-.7-.13-.38 0-.7.08-.95.24-.25.16-.38.37-.38.63 0 .22.08.4.25.54.17.14.45.26.83.35l1.3.27c.73.16 1.27.4 1.62.75.35.33.53.78.53 1.32 0 .48-.14.9-.42 1.28-.27.36-.66.65-1.15.85-.49.2-1.05.3-1.69.3-.93 0-1.68-.19-2.25-.58-.57-.4-.91-.94-1.02-1.64l1.75-.17c.08.34.25.6.5.78.27.17.6.26 1.02.26.43 0 .77-.09 1.03-.26.26-.18.39-.4.39-.65a.7.7 0 0 0-.25-.54 1.77 1.77 0 0 0-.78-.33l-1.3-.28a3.1 3.1 0 0 1-1.63-.77 1.9 1.9 0 0 1-.52-1.38c0-.47.13-.88.38-1.22a2.5 2.5 0 0 1 1.1-.8 4 4 0 0 1 1.6-.3c.9 0 1.6.2 2.12.58.52.38.84.9.96 1.54Z" fill="#333"/><path d="M277 85.5h-30" stroke="#E8178A"/><circle cx="248" cy="85.5" r="1" transform="rotate(180 248 85.5)" fill="#E8178A"/><path d="M282.18 89h-.92l2.67-7.27h.9l2.68 7.27h-.93l-2.17-6.12h-.06L282.18 89Zm.34-2.84h3.72v.78h-3.72v-.78Zm8.06 2.95a2.14 2.14 0 0 1-2.02-1.32 3.5 3.5 0 0 1-.3-1.5c0-.58.1-1.07.3-1.5a2.17 2.17 0 0 1 2.03-1.32c.36 0 .64.06.85.18.2.12.37.25.48.4.1.15.2.27.25.36h.08v-2.68h.83V89h-.8v-.84h-.1c-.07.1-.15.23-.27.38a1.5 1.5 0 0 1-.48.4c-.22.12-.5.17-.85.17Zm.12-.75c.33 0 .62-.09.85-.26.23-.18.4-.42.53-.74.12-.31.18-.68.18-1.09 0-.4-.06-.76-.18-1.07-.12-.3-.29-.54-.52-.71a1.4 1.4 0 0 0-.86-.26c-.36 0-.65.09-.89.27a1.7 1.7 0 0 0-.53.74 3 3 0 0 0-.17 1.03 3 3 0 0 0 .18 1.06c.12.32.3.57.53.75.23.19.53.28.88.28Zm6.1.75a2.13 2.13 0 0 1-2.03-1.32 3.5 3.5 0 0 1-.29-1.5c0-.58.1-1.07.3-1.5a2.17 2.17 0 0 1 2.04-1.32c.34 0 .62.06.83.18.21.12.37.25.48.4l.26.36h.07v-2.68h.84V89h-.81v-.84h-.1c-.06.1-.15.23-.27.38a1.5 1.5 0 0 1-.48.4c-.21.12-.5.17-.84.17Zm.1-.75c.35 0 .63-.09.86-.26.23-.18.41-.42.53-.74.12-.31.18-.68.18-1.09 0-.4-.06-.76-.18-1.07a1.4 1.4 0 0 0-1.38-.98c-.36 0-.65.1-.89.28-.23.18-.4.43-.53.74a3 3 0 0 0-.17 1.03 3 3 0 0 0 .18 1.06c.12.32.3.57.53.75.24.19.53.28.88.28Zm4.05.64v-5.45h.84V89h-.84Zm.42-6.36a.6.6 0 0 1-.42-.17.54.54 0 0 1-.17-.4c0-.16.05-.3.17-.4a.6.6 0 0 1 .42-.17c.17 0 .3.06.42.17.12.1.18.24.18.4 0 .15-.06.29-.18.4a.58.58 0 0 1-.42.17Zm4.32.9v.72h-2.82v-.71h2.82Zm-2-1.3h.84v5.2c0 .23.03.41.1.53.07.12.16.2.27.23.11.04.23.06.35.06a1.5 1.5 0 0 0 .37-.04l.17.75a1.67 1.67 0 0 1-.62.1 1.7 1.7 0 0 1-.7-.15 1.3 1.3 0 0 1-.78-1.26v-5.42Zm3.26 6.76v-5.45h.84V89h-.84Zm.43-6.36a.6.6 0 0 1-.42-.17.54.54 0 0 1-.18-.4c0-.16.06-.3.18-.4a.6.6 0 0 1 .42-.17c.16 0 .3.06.42.17.12.1.18.24.18.4 0 .15-.06.29-.18.4a.58.58 0 0 1-.42.17Zm4.16 6.47c-.5 0-.92-.11-1.3-.35a2.39 2.39 0 0 1-.86-.98c-.2-.42-.31-.92-.31-1.48 0-.57.1-1.06.3-1.49a2.38 2.38 0 0 1 2.16-1.34 2.35 2.35 0 0 1 2.16 1.34c.22.43.32.92.32 1.5 0 .55-.1 1.05-.3 1.47a2.36 2.36 0 0 1-2.16 1.34Zm0-.75c.38 0 .68-.1.92-.29.25-.19.43-.44.54-.75a2.93 2.93 0 0 0 0-2.03c-.12-.32-.3-.58-.54-.77-.24-.2-.54-.3-.92-.3-.37 0-.68.1-.92.3-.24.2-.42.45-.54.76a3.12 3.12 0 0 0 0 2.04c.12.3.3.56.54.75.24.2.55.3.92.3Zm4.6-2.64V89h-.85v-5.45h.81v.85h.07c.13-.28.32-.5.59-.67.26-.17.6-.26 1-.26.37 0 .7.08.97.23.28.15.5.38.65.68.15.3.23.69.23 1.15V89h-.84v-3.4c0-.44-.1-.77-.33-1.01a1.18 1.18 0 0 0-.92-.36c-.26 0-.5.06-.71.17-.21.12-.38.29-.5.5-.12.23-.18.5-.18.82Zm6.6 3.4c-.34 0-.65-.06-.93-.19-.29-.13-.5-.32-.68-.57a1.61 1.61 0 0 1-.24-.9c0-.32.06-.57.18-.77.12-.2.29-.35.5-.46.2-.11.43-.2.68-.25a33.94 33.94 0 0 1 1.56-.23c.2-.02.36-.06.45-.12.1-.05.15-.15.15-.28v-.03c0-.35-.1-.62-.29-.82-.19-.19-.48-.29-.86-.29-.4 0-.71.1-.94.27-.23.17-.39.36-.48.56l-.8-.29c.14-.33.33-.59.57-.77.24-.19.5-.32.78-.4a3.24 3.24 0 0 1 1.44-.04c.23.04.46.12.67.25.21.13.4.32.53.58.15.26.22.6.22 1.04V89h-.84v-.74h-.04a1.63 1.63 0 0 1-.81.72c-.23.1-.5.15-.81.15Zm.13-.75c.34 0 .62-.06.84-.19a1.33 1.33 0 0 0 .7-1.15v-.77a.65.65 0 0 1-.24.12 4 4 0 0 1-.86.15l-.35.04c-.22.03-.42.08-.61.14-.19.06-.34.15-.46.28a.71.71 0 0 0-.17.5c0 .3.11.52.33.66.21.15.5.22.82.22Zm4.75-6.64V89h-.84v-7.27h.84Zm6.4 7.38A2.14 2.14 0 0 1 332 87.8a3.5 3.5 0 0 1-.3-1.5c0-.58.1-1.07.3-1.5a2.16 2.16 0 0 1 2.04-1.32c.35 0 .63.06.84.18.2.12.37.25.47.4l.26.36h.07v-2.68h.84V89h-.8v-.84h-.1l-.27.38c-.11.15-.28.28-.49.4-.2.12-.49.17-.84.17Zm.12-.75c.33 0 .62-.09.85-.26.23-.18.4-.42.53-.74.12-.31.18-.68.18-1.09 0-.4-.06-.76-.18-1.07-.12-.3-.3-.54-.52-.71a1.4 1.4 0 0 0-.86-.26c-.36 0-.65.09-.9.27-.23.18-.4.43-.52.74-.12.3-.18.65-.18 1.03 0 .4.06.74.18 1.06.12.32.3.57.53.75.24.19.54.28.89.28Zm6.32.75a2.6 2.6 0 0 1-1.36-.34 2.33 2.33 0 0 1-.88-.98c-.2-.43-.3-.92-.3-1.47 0-.56.1-1.06.3-1.48a2.31 2.31 0 0 1 2.15-1.36c.29 0 .57.04.85.14a2.08 2.08 0 0 1 1.3 1.3c.13.34.2.77.2 1.28v.36h-4.2v-.73h3.35c0-.3-.06-.58-.19-.82a1.4 1.4 0 0 0-1.3-.78c-.34 0-.63.08-.87.25-.24.16-.43.37-.56.64-.13.26-.2.54-.2.84v.48c0 .42.08.76.22 1.05.14.28.34.5.6.65.25.15.55.22.89.22.22 0 .42-.03.6-.1a1.19 1.19 0 0 0 .76-.75l.81.23a1.8 1.8 0 0 1-.43.72c-.2.2-.45.37-.74.48-.3.12-.63.17-1 .17Zm7.4-4.34-.76.21a1.4 1.4 0 0 0-.2-.37 1.02 1.02 0 0 0-.37-.3 1.35 1.35 0 0 0-.6-.11c-.34 0-.62.08-.84.23-.22.15-.33.34-.33.58 0 .2.08.37.23.5.15.11.39.21.7.3l.82.2c.49.11.85.3 1.09.54.24.24.36.55.36.93 0 .31-.1.6-.27.84a1.8 1.8 0 0 1-.75.58c-.32.14-.69.21-1.11.21-.56 0-1.02-.12-1.38-.36a1.6 1.6 0 0 1-.7-1.06l.8-.2c.07.3.22.52.43.66.21.15.49.22.83.22.4 0 .7-.08.93-.24.23-.17.35-.37.35-.6a.63.63 0 0 0-.2-.48 1.27 1.27 0 0 0-.6-.3l-.92-.2c-.5-.13-.87-.3-1.1-.56a1.33 1.33 0 0 1-.35-.94c0-.3.09-.58.26-.82.18-.23.42-.42.72-.55.3-.14.64-.2 1.03-.2.53 0 .96.11 1.27.35a2 2 0 0 1 .66.94Zm3.57 4.34c-.5 0-.95-.12-1.32-.36a2.36 2.36 0 0 1-.85-1c-.2-.42-.3-.9-.3-1.45 0-.55.1-1.04.3-1.47a2.31 2.31 0 0 1 2.15-1.36c.4 0 .74.08 1.05.22a1.92 1.92 0 0 1 1.12 1.49h-.84a1.28 1.28 0 0 0-1.3-.95c-.33 0-.62.08-.87.25-.24.17-.43.4-.57.72-.13.3-.2.66-.2 1.07 0 .42.07.8.2 1.1.13.32.32.56.57.73.24.17.53.26.86.26.22 0 .42-.04.6-.11a1.22 1.22 0 0 0 .71-.84h.84a1.94 1.94 0 0 1-1.09 1.48c-.3.15-.65.22-1.06.22Zm3.37-.11v-5.45h.81v.82h.06c.1-.27.28-.49.54-.66.26-.17.55-.25.88-.25a9.12 9.12 0 0 1 .44.01v.86a2.4 2.4 0 0 0-.51-.06c-.26 0-.5.06-.71.17a1.22 1.22 0 0 0-.67 1.11V89h-.84Zm3.72 0v-5.45h.84V89h-.84Zm.43-6.36a.6.6 0 0 1-.42-.17.54.54 0 0 1-.18-.4c0-.16.06-.3.18-.4a.6.6 0 0 1 .42-.17c.16 0 .3.06.42.17.12.1.18.24.18.4 0 .15-.06.29-.18.4a.58.58 0 0 1-.42.17Zm1.95 8.4v-7.5h.8v.87h.1l.26-.36c.11-.15.27-.28.48-.4.2-.12.49-.18.84-.18a2.16 2.16 0 0 1 2.04 1.33c.2.42.3.91.3 1.49 0 .57-.1 1.08-.3 1.5a2.14 2.14 0 0 1-2.02 1.32 1.7 1.7 0 0 1-.84-.17 1.56 1.56 0 0 1-.49-.4l-.26-.38h-.07v2.89h-.84Zm.82-4.77c0 .41.06.78.18 1.1.12.3.3.55.53.73.23.17.52.26.85.26.36 0 .65-.1.88-.28.24-.18.42-.43.53-.75.13-.32.19-.67.19-1.06 0-.38-.06-.73-.18-1.03a1.6 1.6 0 0 0-.53-.74 1.4 1.4 0 0 0-.89-.27 1.4 1.4 0 0 0-1.38.97c-.12.3-.18.67-.18 1.07Zm7.64-2.72v.7h-2.82v-.7h2.82Zm-2-1.31h.84v5.2c0 .23.03.41.1.53.07.12.16.2.27.23.11.04.23.06.35.06a1.5 1.5 0 0 0 .37-.04l.17.75a1.7 1.7 0 0 1-.62.1c-.24 0-.47-.05-.7-.15a1.3 1.3 0 0 1-.78-1.26v-5.42Zm3.26 6.76v-5.45h.84V89h-.84Zm.43-6.36a.6.6 0 0 1-.42-.17.54.54 0 0 1-.18-.4c0-.16.06-.3.18-.4a.6.6 0 0 1 .42-.17c.16 0 .3.06.42.17.12.1.18.24.18.4 0 .15-.06.29-.18.4a.58.58 0 0 1-.42.17Zm4.16 6.47c-.49 0-.92-.11-1.3-.35a2.39 2.39 0 0 1-.86-.98c-.2-.42-.3-.92-.3-1.48 0-.57.1-1.06.3-1.49a2.33 2.33 0 0 1 2.17-1.34 2.35 2.35 0 0 1 2.16 1.34c.2.43.3.92.3 1.5 0 .55-.1 1.05-.3 1.47a2.32 2.32 0 0 1-2.17 1.33Zm0-.75c.38 0 .69-.1.93-.29.24-.19.42-.44.53-.75a2.93 2.93 0 0 0 0-2.03c-.11-.32-.3-.58-.53-.77-.25-.2-.55-.3-.93-.3-.37 0-.68.1-.92.3-.24.2-.42.45-.54.76a3.12 3.12 0 0 0 0 2.04c.12.3.3.56.54.75.24.2.55.3.92.3Zm4.6-2.64V89h-.85v-5.45h.81v.85h.08c.12-.28.32-.5.58-.67.26-.17.6-.26 1-.26.38 0 .7.08.97.23.28.15.5.38.65.68.16.3.23.69.23 1.15V89h-.84v-3.4c0-.44-.1-.77-.33-1.01a1.19 1.19 0 0 0-.92-.36c-.26 0-.5.06-.71.17-.21.12-.38.29-.5.5-.12.23-.18.5-.18.82Z" fill="#E8178A"/><g clip-path="url(#a)"><mask id="b" fill="#fff"><path d="M71.5 116h147v32h-147v-32Z"/></mask><path d="M71.5 116h147v32h-147v-32Z" fill="#F6F6F6"/><path d="M93.22 130.25h-1.86a2.32 2.32 0 0 0-.83-1.41 2.21 2.21 0 0 0-.72-.38 2.84 2.84 0 0 0-2.34.3 2.6 2.6 0 0 0-1 1.2 4.67 4.67 0 0 0-.37 1.95c0 .78.12 1.43.36 1.97.25.53.58.93 1 1.2a2.95 2.95 0 0 0 2.32.28 2.32 2.32 0 0 0 1.27-.94c.15-.24.25-.5.31-.8h1.86a4 4 0 0 1-1.35 2.5c-.37.32-.8.57-1.3.75-.5.18-1.05.27-1.66.27a4.34 4.34 0 0 1-4.06-2.42 6.1 6.1 0 0 1-.6-2.81 6 6 0 0 1 .6-2.81 4.38 4.38 0 0 1 4.06-2.42c.57 0 1.1.08 1.58.24a4.03 4.03 0 0 1 2.24 1.82c.25.44.41.95.49 1.51Zm3.4-3.43V137h-1.8v-10.18h1.8Zm4.06 10.33a3.2 3.2 0 0 1-1.31-.25 2.14 2.14 0 0 1-.92-.78 2.27 2.27 0 0 1-.33-1.26c0-.43.08-.79.24-1.07.16-.28.38-.5.65-.68.28-.17.59-.3.93-.38.35-.09.7-.16 1.08-.2l1.09-.12c.28-.04.48-.1.6-.18.13-.08.2-.2.2-.38v-.03c0-.38-.11-.66-.33-.87-.23-.2-.55-.3-.96-.3-.44 0-.8.09-1.05.28-.26.2-.43.42-.52.68l-1.68-.24a2.68 2.68 0 0 1 1.77-1.87 4.77 4.77 0 0 1 2.56-.11c.37.09.7.23 1 .43.3.2.55.46.73.8.19.34.28.76.28 1.27V137h-1.73v-1.05h-.06a2.2 2.2 0 0 1-1.2 1.04 3 3 0 0 1-1.04.16Zm.46-1.32c.36 0 .68-.07.94-.21a1.55 1.55 0 0 0 .83-1.36v-.9a.85.85 0 0 1-.28.13l-.45.1a12.89 12.89 0 0 1-.92.14c-.27.04-.5.1-.72.18-.21.09-.38.2-.5.35a.85.85 0 0 0-.18.57c0 .33.12.58.36.75.24.17.55.25.92.25Zm11.41-4.45-1.64.18a1.3 1.3 0 0 0-.7-.82 1.62 1.62 0 0 0-.7-.13c-.38 0-.7.08-.95.24-.25.16-.37.37-.37.63 0 .22.08.4.24.54.17.14.45.26.84.35l1.3.28c.72.15 1.26.4 1.61.74.36.33.53.78.54 1.32 0 .48-.15.9-.42 1.28-.28.36-.66.64-1.15.85-.5.2-1.06.3-1.7.3-.93 0-1.68-.19-2.25-.58-.57-.4-.91-.94-1.02-1.64l1.75-.17c.08.34.25.6.51.78.26.17.6.26 1.01.26.43 0 .77-.09 1.03-.26.26-.18.4-.4.4-.65a.7.7 0 0 0-.26-.54 1.77 1.77 0 0 0-.78-.33l-1.3-.28a3.1 3.1 0 0 1-1.62-.77 1.9 1.9 0 0 1-.53-1.38c0-.47.13-.88.39-1.22a2.5 2.5 0 0 1 1.09-.8c.46-.2 1-.3 1.61-.3.9 0 1.6.2 2.11.58.52.38.84.9.96 1.54Zm7.69 0-1.64.18a1.31 1.31 0 0 0-.7-.82 1.7 1.7 0 0 0-.71-.13c-.38 0-.69.08-.94.24-.26.16-.38.37-.38.63 0 .22.08.4.25.54.16.14.44.26.83.35l1.3.28c.73.15 1.26.4 1.61.74.36.33.54.78.54 1.32 0 .48-.14.9-.42 1.28-.28.36-.66.64-1.15.85-.49.2-1.05.3-1.69.3-.93 0-1.69-.19-2.26-.58a2.4 2.4 0 0 1-1.02-1.64l1.76-.17c.08.34.25.6.5.78.27.17.6.26 1.02.26.42 0 .77-.09 1.02-.26.27-.18.4-.4.4-.65 0-.22-.09-.4-.26-.54a1.78 1.78 0 0 0-.77-.33l-1.3-.28a3.1 3.1 0 0 1-1.63-.77 1.89 1.89 0 0 1-.52-1.38c0-.47.12-.88.38-1.22a2.5 2.5 0 0 1 1.09-.8c.47-.2 1-.3 1.62-.3.89 0 1.6.2 2.1.58.53.38.84.9.97 1.54Z" fill="#333"/><path d="M133.17 130.29h-4a.62.62 0 0 1-.62-.62c0-.34.28-.62.62-.62h4c.34 0 .62.28.62.62 0 .34-.28.62-.62.62Zm1.33-2.67h-5.33a.62.62 0 0 1-.62-.62c0-.34.28-.62.62-.62h5.33c.34 0 .62.28.62.62 0 .34-.28.62-.62.62Zm-2.67 5.34h-2.67a.62.62 0 0 1-.62-.62c0-.34.28-.62.62-.62h2.67c.34 0 .62.28.62.62 0 .34-.28.62-.62.62Zm-5.33 4.66a.62.62 0 0 1-.44-.18l-2-2a.63.63 0 0 1 0-.88.63.63 0 0 1 .88 0l1.56 1.56 1.56-1.56a.63.63 0 0 1 .88 0c.24.24.24.64 0 .88l-2 2a.62.62 0 0 1-.44.18Z" fill="#545454"/><path d="M126.5 136.96a.62.62 0 0 1-.62-.62V127c0-.34.28-.62.62-.62.34 0 .62.28.62.62v9.33c0 .34-.28.62-.62.62v.01Z" fill="#545454"/><path d="M186 135h-30" stroke="#E8178A"/><circle cx="157" cy="135" r="1" transform="rotate(180 157 135)" fill="#E8178A"/><path d="M194.86 127.05a1.12 1.12 0 0 0-.52-.84 2 2 0 0 0-1.12-.3 2 2 0 0 0-.84.16c-.24.1-.43.24-.56.43a1.03 1.03 0 0 0-.06 1.12c.1.13.21.25.36.34.15.1.3.17.46.23.16.05.31.1.45.13l.73.2c.2.05.4.12.64.2.23.1.45.22.67.37a1.65 1.65 0 0 1 .74 1.44c0 .39-.1.74-.3 1.06-.21.32-.51.57-.9.76-.4.18-.87.28-1.43.28-.52 0-.97-.09-1.35-.25a2.2 2.2 0 0 1-.9-.7 2.1 2.1 0 0 1-.36-1.06h.9c.03.28.12.5.28.69.17.17.37.3.62.4a2.64 2.64 0 0 0 1.71-.04c.27-.11.49-.27.64-.46.16-.2.24-.43.24-.7a.85.85 0 0 0-.2-.59 1.47 1.47 0 0 0-.54-.37c-.22-.1-.46-.18-.71-.25l-.9-.25a3.33 3.33 0 0 1-1.35-.7c-.33-.3-.5-.7-.5-1.2 0-.4.12-.75.34-1.06.22-.3.52-.54.9-.7.37-.18.79-.26 1.25-.26.47 0 .89.08 1.25.25.37.17.66.4.87.68.22.3.33.62.34.98h-.85Zm4.5 5.56c-.5 0-.93-.11-1.3-.35a2.38 2.38 0 0 1-.86-.98c-.2-.42-.31-.91-.31-1.48s.1-1.06.3-1.49a2.35 2.35 0 0 1 2.17-1.34c.5 0 .92.12 1.3.36.36.23.65.56.86.98.2.43.31.92.31 1.5 0 .56-.1 1.05-.31 1.47a2.3 2.3 0 0 1-2.16 1.33Zm0-.75c.37 0 .68-.1.92-.29.25-.19.42-.44.54-.75a3.12 3.12 0 0 0 0-2.04c-.12-.31-.3-.57-.54-.76-.24-.2-.55-.3-.92-.3s-.68.1-.92.3c-.25.2-.42.45-.54.76-.12.32-.17.66-.17 1.02 0 .37.05.7.17 1.02.12.3.3.56.54.75.24.2.55.3.92.3Zm3.75.64v-5.45h.81v.82h.06c.1-.27.28-.49.54-.66.26-.17.55-.25.88-.25a7.2 7.2 0 0 1 .44.01v.86a2.36 2.36 0 0 0-.51-.06c-.27 0-.5.06-.71.17-.2.1-.37.26-.5.45-.11.2-.17.41-.17.66v3.45h-.84Zm6.43-5.45v.7h-2.82v-.7h2.82Zm-2-1.31h.84v5.2c0 .23.03.41.1.53.08.12.17.2.27.24a1.42 1.42 0 0 0 .58.04l.14-.03.18.75a1.86 1.86 0 0 1-1.33-.05c-.22-.1-.4-.26-.56-.47-.14-.2-.22-.47-.22-.78v-5.43Zm-16.66 18.76v-7.27h.84v2.68h.07l.25-.36a1.5 1.5 0 0 1 1.33-.58 2.16 2.16 0 0 1 2.03 1.32c.2.43.3.92.3 1.5s-.1 1.08-.3 1.5c-.2.42-.47.75-.81.98-.35.23-.75.34-1.2.34-.36 0-.64-.05-.85-.17a1.56 1.56 0 0 1-.49-.4l-.26-.38h-.1v.84h-.8Zm.83-2.73c0 .41.05.78.18 1.1.12.3.3.55.53.73.23.17.51.26.85.26.35 0 .64-.1.87-.28.24-.18.42-.43.54-.75.12-.32.18-.67.18-1.06 0-.38-.06-.73-.18-1.03a1.6 1.6 0 0 0-.53-.74 1.4 1.4 0 0 0-.88-.27 1.4 1.4 0 0 0-1.39.97c-.12.3-.17.67-.17 1.07Zm8.7.5v-3.23h.84v5.46h-.84v-.92h-.05a1.72 1.72 0 0 1-1.62 1c-.34 0-.64-.08-.91-.23a1.56 1.56 0 0 1-.63-.69 2.6 2.6 0 0 1-.22-1.15v-3.47h.84v3.42c0 .4.1.71.33.95.22.23.51.35.86.35a1.43 1.43 0 0 0 1.18-.65c.15-.22.22-.5.22-.84Zm4.75-3.23v.72h-2.83v-.72h2.83Zm-2-1.3h.84v5.2c0 .23.03.41.1.53.07.12.16.2.27.24a1.43 1.43 0 0 0 .58.04l.14-.03.17.75a1.86 1.86 0 0 1-1.32-.05c-.23-.1-.41-.26-.56-.47-.15-.2-.22-.47-.22-.78v-5.43Zm5.63 1.3v.72h-2.82v-.72h2.82Zm-2-1.3h.84v5.2c0 .23.03.41.1.53.07.12.16.2.27.24a1.42 1.42 0 0 0 .58.04l.14-.03.17.75a1.86 1.86 0 0 1-1.32-.05 1.4 1.4 0 0 1-.56-.47c-.15-.2-.22-.47-.22-.78v-5.43Zm5.42 6.87c-.5 0-.92-.11-1.3-.35a2.38 2.38 0 0 1-.86-.98c-.2-.42-.31-.91-.31-1.48s.1-1.06.3-1.49a2.38 2.38 0 0 1 2.16-1.34 2.35 2.35 0 0 1 2.16 1.34c.22.43.32.92.32 1.5 0 .56-.1 1.05-.3 1.47a2.36 2.36 0 0 1-2.16 1.34Zm0-.75c.38 0 .68-.1.92-.29.25-.19.43-.44.54-.75a2.93 2.93 0 0 0 0-2.03c-.11-.32-.3-.58-.53-.77-.25-.2-.55-.3-.93-.3-.37 0-.68.1-.92.3-.24.2-.42.45-.54.76a3.12 3.12 0 0 0 0 2.04c.12.3.3.56.54.75.24.2.55.3.92.3Zm4.59-2.64v3.28h-.84v-5.46h.81v.86h.07c.13-.28.32-.5.59-.67.26-.17.6-.26 1-.26.37 0 .7.08.97.23.28.15.5.38.65.68.15.3.23.69.23 1.15v3.47h-.84v-3.4c0-.44-.1-.77-.33-1.01a1.19 1.19 0 0 0-.92-.36c-.26 0-.5.06-.72.17-.2.12-.37.29-.49.5-.12.23-.18.5-.18.82Z" fill="#E8178A"/><path d="M71.5 116h147-147Zm147 33h-147v-2h147v2Zm-147-1v-32 32Zm147-32v32-32Z" fill="#EBEBEB" mask="url(#b)"/><mask id="c" fill="#fff"><path d="M218.5 116h189v32h-189v-32Z"/></mask><path d="M218.5 116h189v32h-189v-32Z" fill="#F6F6F6"/><path d="M232.81 137h-1.97l3.59-10.18h2.28l3.58 10.18h-1.97l-2.71-8.1h-.08l-2.72 8.1Zm.07-4h5.37v1.49h-5.37V133Zm13.54.79v-4.43h1.8V137h-1.74v-1.36h-.08a2.3 2.3 0 0 1-.85 1.05c-.4.27-.88.4-1.45.4-.5 0-.94-.1-1.33-.32a2.3 2.3 0 0 1-.9-.98 3.45 3.45 0 0 1-.31-1.56v-4.87h1.8v4.59c0 .48.13.87.4 1.15.26.29.6.43 1.04.43.26 0 .52-.07.77-.2s.45-.32.6-.57c.17-.26.25-.58.25-.97Zm7.47-4.43v1.4h-4.4v-1.4h4.4Zm-3.31-1.83h1.8v7.17c0 .25.04.43.1.56.09.13.19.21.3.26.13.04.27.07.41.07a1.73 1.73 0 0 0 .53-.07l.3 1.4a3.9 3.9 0 0 1-1.05.18c-.45.02-.86-.05-1.22-.2a1.9 1.9 0 0 1-.86-.7 2.14 2.14 0 0 1-.31-1.2v-7.47Zm8.06 9.62a3.7 3.7 0 0 1-1.94-.5 3.34 3.34 0 0 1-1.27-1.37 4.53 4.53 0 0 1-.45-2.07c0-.79.15-1.48.45-2.07.3-.6.72-1.05 1.27-1.38a3.7 3.7 0 0 1 1.94-.5c.75 0 1.4.17 1.94.5.55.33.97.78 1.27 1.38.3.6.45 1.28.45 2.07 0 .79-.15 1.48-.45 2.07a3.3 3.3 0 0 1-1.27 1.38 3.7 3.7 0 0 1-1.94.49Zm.01-1.44c.4 0 .74-.11 1.02-.34a2 2 0 0 0 .6-.9c.14-.38.2-.8.2-1.26 0-.47-.06-.9-.2-1.27a2 2 0 0 0-.6-.91 1.54 1.54 0 0 0-1.02-.34c-.41 0-.76.11-1.03.34a2.1 2.1 0 0 0-.62.9 3.95 3.95 0 0 0 0 2.54c.14.38.35.68.62.9.27.23.62.34 1.03.34Zm5.18 1.29v-7.64h1.72v1.3h.09c.16-.44.42-.78.79-1.02.37-.25.8-.38 1.31-.38.52 0 .96.13 1.31.38a2 2 0 0 1 .76 1.02h.08c.17-.42.45-.76.85-1.01.4-.26.89-.39 1.44-.39.7 0 1.27.23 1.72.67.44.44.67 1.1.67 1.94V137h-1.8v-4.85c0-.47-.13-.82-.39-1.04a1.35 1.35 0 0 0-.92-.33c-.44 0-.77.14-1.02.4a1.5 1.5 0 0 0-.36 1.06V137h-1.77v-4.92c0-.4-.12-.71-.36-.95a1.25 1.25 0 0 0-.92-.35c-.26 0-.5.07-.7.2a1.4 1.4 0 0 0-.51.55c-.13.24-.2.51-.2.83V137h-1.8Zm14.76.15a3.2 3.2 0 0 1-1.3-.25 2.14 2.14 0 0 1-.92-.78 2.27 2.27 0 0 1-.34-1.26c0-.43.08-.79.24-1.07.16-.28.38-.5.65-.68.28-.17.59-.3.93-.38.35-.09.71-.16 1.08-.2l1.1-.12c.27-.04.47-.1.6-.18.13-.08.2-.2.2-.38v-.03c0-.38-.12-.66-.34-.87-.22-.2-.54-.3-.96-.3-.44 0-.8.09-1.05.28-.26.2-.43.42-.52.68l-1.68-.24a2.68 2.68 0 0 1 1.78-1.87 4.76 4.76 0 0 1 2.56-.11c.36.09.7.23 1 .43.3.2.54.46.72.8.19.34.28.76.28 1.27V137h-1.73v-1.05h-.06a2.2 2.2 0 0 1-1.2 1.04 3 3 0 0 1-1.04.16Zm.47-1.32a2 2 0 0 0 .94-.21c.26-.15.46-.34.6-.58.15-.24.23-.5.23-.78v-.9a.85.85 0 0 1-.3.13 12.57 12.57 0 0 1-.94.18l-.41.06c-.27.04-.51.1-.73.18-.2.09-.38.2-.5.35a.85.85 0 0 0-.18.57c0 .33.12.58.36.75.24.17.55.25.93.25Zm9.18-6.47v1.4h-4.39v-1.4h4.4Zm-3.3-1.83h1.8v7.17c0 .25.03.43.1.56.08.13.18.21.3.26.13.04.26.07.41.07a1.72 1.72 0 0 0 .53-.07l.3 1.4a3.83 3.83 0 0 1-1.06.18c-.45.02-.85-.05-1.21-.2a1.9 1.9 0 0 1-.86-.7 2.1 2.1 0 0 1-.31-1.2v-7.47Zm4.8 9.47v-7.64h1.8V137h-1.8Zm.91-8.72c-.28 0-.53-.1-.73-.28a.91.91 0 0 1-.31-.7c0-.27.1-.5.3-.69.21-.19.46-.28.74-.28.3 0 .54.1.74.28.2.2.3.42.3.7 0 .26-.1.5-.3.69-.2.19-.45.28-.74.28Zm6.08 8.87a3.35 3.35 0 0 1-3.22-1.89c-.3-.6-.44-1.28-.44-2.05 0-.77.15-1.46.45-2.05a3.35 3.35 0 0 1 3.2-1.9c.62 0 1.17.12 1.65.35A2.8 2.8 0 0 1 300 132h-1.72a1.64 1.64 0 0 0-.5-.92 1.4 1.4 0 0 0-1.03-.37c-.37 0-.7.1-.97.3-.28.19-.5.47-.66.84-.15.37-.22.8-.22 1.32s.07.97.22 1.34c.16.38.37.66.65.86.27.2.6.3.98.3.26 0 .5-.05.7-.15.22-.1.4-.25.54-.44.14-.2.24-.43.3-.7H300a2.82 2.82 0 0 1-1.6 2.41c-.47.23-1.03.35-1.67.35Zm13.09-3.36v-4.43h1.8V137h-1.75v-1.36h-.08a2.3 2.3 0 0 1-.85 1.05c-.39.27-.87.4-1.44.4-.5 0-.94-.1-1.33-.32a2.32 2.32 0 0 1-.9-.98 3.47 3.47 0 0 1-.32-1.56v-4.87h1.8v4.59c0 .48.13.87.4 1.15.27.29.61.43 1.04.43a1.65 1.65 0 0 0 1.39-.77c.16-.26.24-.58.24-.97Zm3.65 6.07v-10.5h1.77v1.27h.1c.1-.19.23-.39.4-.6.17-.2.4-.39.68-.54a2.9 2.9 0 0 1 3.83 1.55c.29.59.43 1.3.43 2.15a5.1 5.1 0 0 1-.41 2.14 2.9 2.9 0 0 1-2.74 1.8c-.44 0-.8-.07-1.09-.22a2.18 2.18 0 0 1-.7-.52 3.3 3.3 0 0 1-.4-.6h-.07v4.07h-1.8Zm1.76-6.68c0 .5.07.93.21 1.3.15.37.35.66.62.87.26.2.59.3.97.3.4 0 .73-.1 1-.31.27-.22.47-.5.6-.88.14-.38.21-.8.21-1.28 0-.47-.06-.9-.2-1.26a1.9 1.9 0 0 0-.6-.87c-.28-.2-.61-.3-1.01-.3a1.6 1.6 0 0 0-1.59 1.14c-.14.37-.2.8-.2 1.3Zm9.82 3.95a2.9 2.9 0 0 1-2.73-1.8 5.01 5.01 0 0 1-.41-2.14c0-.85.14-1.56.41-2.15.29-.58.67-1.03 1.14-1.32a2.92 2.92 0 0 1 2.7-.23c.29.15.52.33.69.54.17.21.3.41.4.6h.07v-3.81h1.8V137h-1.77v-1.2h-.1c-.1.18-.24.38-.41.59a2.18 2.18 0 0 1-1.79.74Zm.5-1.47c.39 0 .71-.1.98-.31.27-.2.47-.5.61-.87s.21-.8.21-1.3-.07-.92-.2-1.29a1.84 1.84 0 0 0-.61-.85c-.27-.2-.6-.3-.98-.3-.4 0-.74.1-1 .31-.28.21-.48.5-.62.87-.13.37-.2.79-.2 1.26 0 .48.07.9.2 1.28a2 2 0 0 0 .62.88c.27.21.6.32 1 .32Zm7.69 1.5a3.2 3.2 0 0 1-1.31-.26 2.14 2.14 0 0 1-.92-.78 2.27 2.27 0 0 1-.33-1.26c0-.43.08-.79.24-1.07.16-.28.38-.5.65-.68.28-.17.58-.3.93-.38.35-.09.7-.16 1.08-.2l1.09-.12c.28-.04.48-.1.6-.18.13-.08.2-.2.2-.38v-.03c0-.38-.11-.66-.34-.87-.22-.2-.54-.3-.95-.3-.45 0-.8.09-1.05.28-.26.2-.43.42-.52.68l-1.68-.24a2.67 2.67 0 0 1 1.77-1.87 4.77 4.77 0 0 1 2.56-.11c.37.09.7.23 1 .43.3.2.55.46.73.8.19.34.28.76.28 1.27V137h-1.73v-1.05h-.06a2.22 2.22 0 0 1-1.2 1.04 3 3 0 0 1-1.04.16Zm.46-1.33c.36 0 .68-.07.94-.21a1.55 1.55 0 0 0 .83-1.36v-.9a.87.87 0 0 1-.29.13 13.22 13.22 0 0 1-1.36.24c-.27.04-.5.1-.72.18-.21.09-.38.2-.5.35a.85.85 0 0 0-.19.57c0 .33.13.58.37.75.24.17.55.25.92.25Zm9.19-6.47v1.4h-4.39v-1.4h4.39Zm-3.3-1.83h1.8v7.17c0 .25.03.43.1.56.08.13.18.21.3.26.12.04.26.07.4.07a1.7 1.7 0 0 0 .54-.07l.3 1.4a3.8 3.8 0 0 1-1.06.18c-.45.02-.86-.05-1.22-.2a1.9 1.9 0 0 1-.86-.7c-.2-.32-.3-.72-.3-1.2v-7.47Zm8.1 9.62c-.76 0-1.42-.16-1.98-.48a3.24 3.24 0 0 1-1.28-1.36 4.56 4.56 0 0 1-.44-2.08c0-.79.14-1.48.44-2.07a3.39 3.39 0 0 1 3.17-1.9c.47 0 .91.08 1.33.23.42.15.8.38 1.12.7.32.31.58.72.76 1.2.19.49.28 1.06.28 1.73v.55h-6.26v-1.2h4.54c0-.35-.08-.66-.23-.93a1.63 1.63 0 0 0-.61-.64 1.72 1.72 0 0 0-.9-.23 1.78 1.78 0 0 0-1.63.97 2 2 0 0 0-.23.93v1.06c0 .44.08.83.24 1.14a1.8 1.8 0 0 0 1.71.98c.26 0 .5-.04.71-.11a1.4 1.4 0 0 0 .9-.88l1.68.2c-.1.44-.3.82-.6 1.16a3 3 0 0 1-1.14.76c-.46.18-.98.27-1.58.27Zm10.96-5.77-1.64.18a1.31 1.31 0 0 0-.7-.82 1.7 1.7 0 0 0-.71-.13c-.37 0-.69.08-.94.24-.26.16-.38.37-.38.63 0 .22.08.4.25.54.17.14.44.26.83.35l1.3.28c.73.15 1.26.4 1.61.74.36.33.54.78.54 1.32 0 .48-.14.9-.42 1.28-.28.36-.66.64-1.15.85-.49.2-1.05.3-1.69.3-.93 0-1.69-.19-2.26-.58a2.4 2.4 0 0 1-1.02-1.64l1.76-.17c.08.34.25.6.5.78.27.17.6.26 1.02.26.42 0 .77-.09 1.02-.26.27-.18.4-.4.4-.65 0-.22-.09-.4-.26-.54a1.77 1.77 0 0 0-.77-.33l-1.3-.28a3.1 3.1 0 0 1-1.63-.77 1.9 1.9 0 0 1-.52-1.38c0-.47.12-.88.38-1.22a2.5 2.5 0 0 1 1.09-.8c.47-.2 1-.3 1.62-.3.89 0 1.6.2 2.1.58.52.38.84.9.97 1.54Z" fill="#333"/><path d="M218.5 116h189-189Zm189 33h-189v-2h189v2Zm-189-1v-32 32Zm189-32v32-32Z" fill="#EBEBEB" mask="url(#c)"/><mask id="d" fill="#fff"><path d="M407.5 116h149v32h-149v-32Z"/></mask><path d="M407.5 116h149v32h-149v-32Z" fill="#F6F6F6"/><path d="M421.81 137h-1.97l3.59-10.18h2.27l3.6 10.18h-1.98l-2.71-8.1h-.08l-2.72 8.1Zm.07-4h5.37v1.49h-5.37V133Zm11.77 4.15a3.36 3.36 0 0 1-3.22-1.89 4.64 4.64 0 0 1-.44-2.05c0-.77.15-1.46.45-2.05a3.36 3.36 0 0 1 3.2-1.9c.62 0 1.17.12 1.65.35a2.81 2.81 0 0 1 1.63 2.4h-1.72a1.64 1.64 0 0 0-.5-.92 1.4 1.4 0 0 0-1.03-.37c-.37 0-.7.1-.97.3-.28.19-.5.47-.65.84-.15.37-.23.8-.23 1.32s.08.97.23 1.34c.15.38.37.66.64.86.28.2.6.3.98.3.26 0 .5-.05.71-.15.21-.1.39-.25.53-.44.14-.2.24-.43.3-.7h1.72a2.82 2.82 0 0 1-1.6 2.41c-.48.23-1.04.35-1.68.35Zm8.57-7.79v1.4h-4.4v-1.4h4.4Zm-3.31-1.83h1.8v7.17c0 .25.04.43.1.56.09.13.19.21.3.26.13.04.27.07.41.07a1.73 1.73 0 0 0 .53-.07l.3 1.4a3.83 3.83 0 0 1-1.05.18c-.45.02-.86-.05-1.22-.2a1.9 1.9 0 0 1-.86-.7 2.1 2.1 0 0 1-.31-1.2v-7.47Zm4.81 9.47v-7.64h1.8V137h-1.8Zm.9-8.72c-.28 0-.52-.1-.73-.28a.91.91 0 0 1-.3-.7c0-.27.1-.5.3-.69.2-.19.45-.28.74-.28s.53.1.73.28a.95.95 0 0 1 .01 1.39c-.21.19-.45.28-.74.28Zm6.08 8.87a3.7 3.7 0 0 1-1.94-.5 3.34 3.34 0 0 1-1.27-1.37 4.53 4.53 0 0 1-.45-2.07c0-.79.15-1.48.45-2.07.3-.6.73-1.05 1.27-1.38a3.7 3.7 0 0 1 1.94-.5c.75 0 1.4.17 1.94.5.55.33.97.78 1.27 1.38.3.6.45 1.28.45 2.07a4.5 4.5 0 0 1-.45 2.07c-.3.59-.72 1.05-1.27 1.38-.54.33-1.2.49-1.94.49Zm.01-1.44c.4 0 .75-.11 1.02-.34a2 2 0 0 0 .6-.9c.14-.38.2-.8.2-1.26 0-.47-.06-.9-.2-1.27a2 2 0 0 0-.6-.91 1.54 1.54 0 0 0-1.02-.34c-.41 0-.76.11-1.03.34a2 2 0 0 0-.61.9 3.95 3.95 0 0 0 0 2.54c.13.38.34.68.6.9.28.23.63.34 1.04.34Zm6.98-3.18V137h-1.8v-7.64h1.72v1.3h.09c.18-.43.45-.77.84-1.02.39-.25.87-.38 1.44-.38.52 0 .98.12 1.37.34.4.23.7.55.92.98.22.43.33.95.32 1.56V137h-1.8v-4.58c0-.51-.13-.91-.4-1.2a1.4 1.4 0 0 0-1.08-.43c-.32 0-.6.06-.85.2a1.5 1.5 0 0 0-.57.6 2 2 0 0 0-.2.94Zm12.77-1.15-1.64.18a1.33 1.33 0 0 0-.25-.47 1.2 1.2 0 0 0-.45-.35 1.7 1.7 0 0 0-.71-.13c-.38 0-.7.08-.95.24-.25.16-.37.37-.37.63 0 .22.08.4.25.54.16.14.44.26.83.35l1.3.28c.72.15 1.26.4 1.61.74.36.33.54.78.54 1.32 0 .48-.14.9-.42 1.28-.28.36-.66.64-1.15.85-.5.2-1.06.3-1.7.3-.93 0-1.68-.19-2.25-.58a2.4 2.4 0 0 1-1.02-1.64l1.76-.17c.08.34.25.6.5.78.26.17.6.26 1.01.26.43 0 .77-.09 1.03-.26.26-.18.4-.4.4-.65 0-.22-.09-.4-.26-.54a1.77 1.77 0 0 0-.77-.33l-1.3-.28a3.1 3.1 0 0 1-1.63-.77 1.89 1.89 0 0 1-.52-1.38c0-.47.12-.88.38-1.22a2.5 2.5 0 0 1 1.09-.8c.47-.2 1-.3 1.61-.3.9 0 1.6.2 2.12.58.51.38.83.9.96 1.54Z" fill="#333"/><path d="M407.5 116h149-149Zm149 33h-149v-2h149v2Zm-149-1v-32 32Zm149-32v32-32Z" fill="#EBEBEB" mask="url(#d)"/><path fill="#fff" d="M71.5 148h485v40h-485z"/><g filter="url(#e)"><path fill="#fff" d="M71.5 148h147v40h-147z"/><path d="M88 173.14c-.66 0-1.25-.11-1.76-.34a3 3 0 0 1-1.22-.94c-.3-.4-.46-.87-.49-1.4h1.26c.02.32.14.6.33.84.2.24.46.42.79.55.32.13.67.2 1.06.2.44 0 .83-.08 1.17-.23.34-.16.6-.37.8-.64.19-.27.28-.59.28-.94 0-.38-.1-.7-.28-1a1.85 1.85 0 0 0-.81-.67c-.36-.16-.8-.24-1.31-.24H87v-1.1h.82c.4 0 .75-.07 1.06-.22a1.65 1.65 0 0 0 .98-1.55c0-.34-.07-.64-.23-.9a1.56 1.56 0 0 0-.64-.6 2.56 2.56 0 0 0-1.97-.02c-.3.13-.56.32-.76.56-.2.24-.3.53-.31.86h-1.2c.02-.53.18-1 .49-1.4.3-.4.7-.72 1.18-.94a3.83 3.83 0 0 1 3.23.04 2.7 2.7 0 0 1 1.4 2.34 2.3 2.3 0 0 1-1.67 2.3v.09a2.33 2.33 0 0 1 2.05 2.45 2.6 2.6 0 0 1-.45 1.49c-.3.44-.7.78-1.22 1.03s-1.1.38-1.77.38Zm6.06-.14h-1.29l3.74-10.18h1.27l3.74 10.18h-1.3l-3.03-8.57h-.08L94.06 173Zm.48-3.98h5.21v1.1h-5.2v-1.1Z" fill="#333"/></g><g filter="url(#f)"><path fill="#fff" d="M218.5 148h189v40h-189z"/><rect x="230.5" y="158" width="40" height="20" rx="10" fill="#0F67F5"/><circle cx="260.5" cy="168" r="8" fill="#fff"/></g><g filter="url(#g)"><path fill="#fff" d="M407.5 148h149v40h-149z"/><mask id="h" fill="#fff"><path d="M436.5 176.88h-10c-1.16 0-1.88-.72-1.88-1.88v-10a.88.88 0 0 1 1.76 0v10.12h10.24V165a.88.88 0 0 1 1.76 0v10c0 1.16-.72 1.88-1.88 1.88Zm-12-15a.88.88 0 0 1 0-1.76h4.13V160c0-.48.39-.88.88-.88h4c.48 0 .88.39.88.88v.12h4.13a.88.88 0 0 1 0 1.76H424.5Z"/></mask><path d="M436.5 176.88h-10c-1.16 0-1.88-.72-1.88-1.88v-10a.88.88 0 0 1 1.76 0v10.12h10.24V165a.88.88 0 0 1 1.76 0v10c0 1.16-.72 1.88-1.88 1.88Zm-12-15a.88.88 0 0 1 0-1.76h4.13V160c0-.48.39-.88.88-.88h4c.48 0 .88.39.88.88v.12h4.13a.88.88 0 0 1 0 1.76H424.5Z" fill="#0F67F5"/><path d="M426.38 175.12h-1v1h1v-1Zm10.24 0v1h1v-1h-1Zm-7.99-15v1h1v-1h-1Zm5.76 0h-1v1h1v-1Zm2.11 15.76h-10v2h10v-2Zm-10 0c-.37 0-.57-.11-.67-.21-.1-.1-.21-.3-.21-.67h-2c0 .79.25 1.53.8 2.08s1.3.8 2.08.8v-2Zm-.88-.88v-10h-2v10h2Zm0-10c0 .06-.05.12-.12.12v-2c-1.05 0-1.88.85-1.88 1.88h2Zm-.12.12a.12.12 0 0 1-.08-.04.12.12 0 0 1-.04-.08h2c0-1.04-.84-1.88-1.88-1.88v2Zm-.12-.12v10h2v-10h-2Zm0 10v.13h2V175h-2Zm1 1.12h.12v-2h-.13v2Zm.12 0h10v-2h-10v2Zm10 0h.13v-2h-.13v2Zm1.12-1V175h-2v.13h2Zm0-.12v-10h-2v10h2Zm0-10c0 .06-.05.12-.12.12v-2c-1.05 0-1.88.85-1.88 1.88h2Zm-.12.12a.12.12 0 0 1-.08-.04.12.12 0 0 1-.04-.08h2c0-1.04-.84-1.88-1.88-1.88v2Zm-.12-.12v10h2v-10h-2Zm0 10c0 .37-.11.57-.21.67-.1.1-.3.21-.67.21v2c.79 0 1.53-.25 2.08-.8s.8-1.3.8-2.08h-2Zm-12.88-14.12c.06 0 .12.05.12.12h-2c0 1.05.86 1.88 1.88 1.88v-2Zm.12.12a.1.1 0 0 1-.04.08.12.12 0 0 1-.08.04v-2c-1.04 0-1.88.84-1.88 1.88h2Zm-.12.12h4.13v-2h-4.13v2Zm4.13-1h1V160h-2v.13h1Zm1-.12c0 .06-.05.12-.12.12v-2c-1.05 0-1.88.85-1.88 1.88h2Zm-.12.12h4v-2h-4v2Zm4 0a.12.12 0 0 1-.12-.12h2c0-1.05-.85-1.88-1.88-1.88v2Zm-.12-.12v.13h2V160h-2Zm1 1.12h4.13v-2h-4.13v2Zm4.13 0a.12.12 0 0 1-.12-.12h2c0-1.05-.85-1.88-1.88-1.88v2Zm-.12-.12a.1.1 0 0 1 .04-.08.12.12 0 0 1 .08-.04v2c1.04 0 1.88-.84 1.88-1.88h-2Zm.12-.12H424.5v2h14.02v-2Z" fill="#0F67F5" mask="url(#h)"/><path d="M456.5 174h-3.6v-11.64h3.76c1.13 0 2.1.24 2.9.7.8.47 1.42 1.13 1.84 2 .43.86.65 1.9.65 3.1a7 7 0 0 1-.65 3.13 4.62 4.62 0 0 1-1.89 2.01c-.82.47-1.83.7-3.01.7Zm-2.18-1.25h2.09c.96 0 1.76-.19 2.4-.56.62-.37 1.1-.9 1.4-1.58.32-.69.47-1.5.47-2.45 0-.94-.15-1.75-.46-2.43a3.4 3.4 0 0 0-1.37-1.56 4.34 4.34 0 0 0-2.28-.56h-2.25v9.14Zm13.57 1.43a3.74 3.74 0 0 1-3.58-2.13 5.35 5.35 0 0 1-.5-2.34c0-.9.17-1.69.5-2.37a3.69 3.69 0 0 1 3.44-2.18c.45 0 .9.08 1.35.23a3.35 3.35 0 0 1 2.08 2.08c.21.55.32 1.24.32 2.05v.57h-6.73v-1.16h5.37c0-.5-.1-.93-.3-1.32a2.22 2.22 0 0 0-2.09-1.25 2.47 2.47 0 0 0-2.28 1.42 3 3 0 0 0-.31 1.36v.77c0 .66.11 1.22.34 1.68.23.45.55.8.96 1.03.4.24.89.36 1.43.36.35 0 .67-.05.95-.15a1.93 1.93 0 0 0 1.23-1.22l1.3.37a2.9 2.9 0 0 1-.7 1.16c-.32.33-.71.58-1.19.77-.47.18-1 .27-1.6.27Zm7-11.82V174h-1.35v-11.64h1.34Zm6.1 11.82a3.74 3.74 0 0 1-3.58-2.13 5.35 5.35 0 0 1-.48-2.34c0-.9.16-1.69.49-2.37a3.69 3.69 0 0 1 3.44-2.18c.45 0 .9.08 1.35.23a3.34 3.34 0 0 1 2.08 2.08c.21.55.32 1.24.32 2.05v.57h-6.73v-1.16h5.37c0-.5-.1-.93-.3-1.32a2.22 2.22 0 0 0-2.1-1.25c-.53 0-.99.14-1.38.4-.38.26-.68.6-.89 1.02-.2.43-.31.88-.31 1.36v.77c0 .66.11 1.22.34 1.68.23.45.55.8.96 1.03.4.24.88.36 1.43.36.35 0 .67-.05.95-.15a1.93 1.93 0 0 0 1.23-1.22l1.3.37a2.9 2.9 0 0 1-.7 1.16c-.32.33-.71.58-1.19.77-.47.18-1 .27-1.6.27Zm9.45-8.9v1.13h-4.52v-1.14h4.52Zm-3.2-2.1h1.34v8.32c0 .38.06.66.17.85.1.19.25.31.43.38a2.27 2.27 0 0 0 .93.07l.22-.05.27 1.2a2.74 2.74 0 0 1-1 .16 2.7 2.7 0 0 1-1.11-.24 2.22 2.22 0 0 1-.9-.75 2.14 2.14 0 0 1-.35-1.26v-8.68Zm8.79 11a3.74 3.74 0 0 1-3.58-2.13 5.36 5.36 0 0 1-.5-2.34c0-.9.17-1.69.5-2.37a3.7 3.7 0 0 1 3.44-2.18c.46 0 .9.08 1.35.23a3.34 3.34 0 0 1 2.08 2.08c.21.55.32 1.24.32 2.05v.57h-6.73v-1.16h5.37c0-.5-.1-.93-.3-1.32a2.23 2.23 0 0 0-2.09-1.25 2.47 2.47 0 0 0-2.28 1.42 3 3 0 0 0-.31 1.36v.77c0 .66.11 1.22.34 1.68.23.45.55.8.96 1.03.41.24.88.36 1.43.36.35 0 .67-.05.95-.15a1.93 1.93 0 0 0 1.23-1.22l1.3.37a2.9 2.9 0 0 1-.7 1.16c-.31.33-.71.58-1.19.77-.47.18-1 .27-1.6.27Z" fill="#0F67F5"/></g><path fill="#fff" d="M71.5 188h485v40h-485z"/><g filter="url(#i)"><path fill="#fff" d="M71.5 188h147v40h-147z"/><path d="M88 213.14c-.66 0-1.25-.11-1.76-.34a3 3 0 0 1-1.22-.94c-.3-.4-.46-.87-.49-1.4h1.26c.02.32.14.6.33.84.2.24.46.42.79.55.32.13.67.2 1.06.2.44 0 .83-.08 1.17-.23.34-.16.6-.37.8-.64.19-.27.28-.59.28-.94 0-.38-.1-.7-.28-1a1.85 1.85 0 0 0-.81-.67c-.36-.16-.8-.24-1.31-.24H87v-1.1h.82c.4 0 .75-.07 1.06-.22a1.65 1.65 0 0 0 .98-1.55c0-.34-.07-.64-.23-.9a1.56 1.56 0 0 0-.64-.6 2.56 2.56 0 0 0-1.97-.02c-.3.13-.56.32-.76.56-.2.24-.3.53-.31.86h-1.2c.02-.53.18-1 .49-1.4.3-.4.7-.72 1.18-.94a3.83 3.83 0 0 1 3.23.04 2.7 2.7 0 0 1 1.4 2.34 2.3 2.3 0 0 1-1.67 2.3v.09a2.33 2.33 0 0 1 2.05 2.45 2.6 2.6 0 0 1-.45 1.49c-.3.44-.7.78-1.22 1.03s-1.1.38-1.77.38Zm5.65-.14v-10.18h3.56c.7 0 1.3.12 1.75.37.46.24.8.56 1.03.97.23.41.34.87.34 1.36 0 .44-.08.8-.23 1.09-.16.28-.36.5-.61.67a2.8 2.8 0 0 1-.81.37v.1a2 2 0 0 1 .94.33c.31.2.58.48.79.85.21.37.32.83.32 1.36 0 .52-.12.97-.35 1.38-.23.41-.6.73-1.1.97-.5.24-1.15.36-1.95.36h-3.68Zm1.23-1.1h2.45c.8 0 1.37-.15 1.71-.46.34-.32.51-.7.51-1.15 0-.34-.08-.66-.26-.95a1.9 1.9 0 0 0-.75-.7 2.35 2.35 0 0 0-1.15-.27h-2.51v3.54Zm0-4.6h2.29c.37 0 .7-.08 1-.23a1.65 1.65 0 0 0 .99-1.55c0-.45-.16-.82-.47-1.14-.31-.31-.8-.47-1.48-.47h-2.33v3.38Z" fill="#333"/></g><g filter="url(#j)"><path fill="#fff" d="M218.5 188h189v40h-189z"/><rect x="230.5" y="198" width="40" height="20" rx="10" fill="#0F67F5"/><circle cx="260.5" cy="208" r="8" fill="#fff"/></g><g filter="url(#k)"><path fill="#fff" d="M407.5 188h149v40h-149z"/><mask id="l" fill="#fff"><path d="M436.5 216.88h-10c-1.16 0-1.88-.72-1.88-1.88v-10a.88.88 0 0 1 1.76 0v10.12h10.24V205a.88.88 0 0 1 1.76 0v10c0 1.16-.72 1.88-1.88 1.88Zm-12-15a.88.88 0 0 1 0-1.76h4.13V200c0-.48.39-.88.88-.88h4c.48 0 .88.39.88.88v.12h4.13a.88.88 0 0 1 0 1.76H424.5Z"/></mask><path d="M436.5 216.88h-10c-1.16 0-1.88-.72-1.88-1.88v-10a.88.88 0 0 1 1.76 0v10.12h10.24V205a.88.88 0 0 1 1.76 0v10c0 1.16-.72 1.88-1.88 1.88Zm-12-15a.88.88 0 0 1 0-1.76h4.13V200c0-.48.39-.88.88-.88h4c.48 0 .88.39.88.88v.12h4.13a.88.88 0 0 1 0 1.76H424.5Z" fill="#0F67F5"/><path d="M426.38 215.12h-1v1h1v-1Zm10.24 0v1h1v-1h-1Zm-7.99-15v1h1v-1h-1Zm5.76 0h-1v1h1v-1Zm2.11 15.76h-10v2h10v-2Zm-10 0c-.37 0-.57-.11-.67-.21-.1-.1-.21-.3-.21-.67h-2c0 .79.25 1.53.8 2.08s1.3.8 2.08.8v-2Zm-.88-.88v-10h-2v10h2Zm0-10c0 .06-.05.12-.12.12v-2c-1.05 0-1.88.85-1.88 1.88h2Zm-.12.12a.12.12 0 0 1-.08-.04.12.12 0 0 1-.04-.08h2c0-1.04-.84-1.88-1.88-1.88v2Zm-.12-.12v10h2v-10h-2Zm0 10v.13h2V215h-2Zm1 1.12h.12v-2h-.13v2Zm.12 0h10v-2h-10v2Zm10 0h.13v-2h-.13v2Zm1.12-1V215h-2v.13h2Zm0-.12v-10h-2v10h2Zm0-10c0 .06-.05.12-.12.12v-2c-1.05 0-1.88.85-1.88 1.88h2Zm-.12.12a.12.12 0 0 1-.08-.04.12.12 0 0 1-.04-.08h2c0-1.04-.84-1.88-1.88-1.88v2Zm-.12-.12v10h2v-10h-2Zm0 10c0 .37-.11.57-.21.67-.1.1-.3.21-.67.21v2c.79 0 1.53-.25 2.08-.8s.8-1.3.8-2.08h-2Zm-12.88-14.12c.06 0 .12.05.12.12h-2c0 1.05.86 1.88 1.88 1.88v-2Zm.12.12a.1.1 0 0 1-.04.08.12.12 0 0 1-.08.04v-2c-1.04 0-1.88.84-1.88 1.88h2Zm-.12.12h4.13v-2h-4.13v2Zm4.13-1h1V200h-2v.13h1Zm1-.12c0 .06-.05.12-.12.12v-2c-1.05 0-1.88.85-1.88 1.88h2Zm-.12.12h4v-2h-4v2Zm4 0a.12.12 0 0 1-.12-.12h2c0-1.05-.85-1.88-1.88-1.88v2Zm-.12-.12v.13h2V200h-2Zm1 1.12h4.13v-2h-4.13v2Zm4.13 0a.12.12 0 0 1-.12-.12h2c0-1.05-.85-1.88-1.88-1.88v2Zm-.12-.12a.1.1 0 0 1 .04-.08.12.12 0 0 1 .08-.04v2c1.04 0 1.88-.84 1.88-1.88h-2Zm.12-.12H424.5v2h14.02v-2Z" fill="#0F67F5" mask="url(#l)"/><path d="M456.5 214h-3.6v-11.64h3.76c1.13 0 2.1.24 2.9.7.8.47 1.42 1.13 1.84 2 .43.86.65 1.9.65 3.1a7 7 0 0 1-.65 3.13 4.62 4.62 0 0 1-1.89 2.01c-.82.47-1.83.7-3.01.7Zm-2.18-1.25h2.09c.96 0 1.76-.19 2.4-.56.62-.37 1.1-.9 1.4-1.58.32-.69.47-1.5.47-2.45 0-.94-.15-1.75-.46-2.43a3.4 3.4 0 0 0-1.37-1.56 4.34 4.34 0 0 0-2.28-.56h-2.25v9.14Zm13.57 1.43a3.74 3.74 0 0 1-3.58-2.13 5.35 5.35 0 0 1-.5-2.34c0-.9.17-1.69.5-2.37a3.69 3.69 0 0 1 3.44-2.18c.45 0 .9.08 1.35.23a3.35 3.35 0 0 1 2.08 2.08c.21.55.32 1.24.32 2.05v.57h-6.73v-1.16h5.37c0-.5-.1-.93-.3-1.32a2.22 2.22 0 0 0-2.09-1.25 2.47 2.47 0 0 0-2.28 1.42 3 3 0 0 0-.31 1.36v.77c0 .66.11 1.22.34 1.68.23.45.55.8.96 1.03.4.24.89.36 1.43.36.35 0 .67-.05.95-.15a1.93 1.93 0 0 0 1.23-1.22l1.3.37a2.9 2.9 0 0 1-.7 1.16c-.32.33-.71.58-1.19.77-.47.18-1 .27-1.6.27Zm7-11.82V214h-1.35v-11.64h1.34Zm6.1 11.82a3.74 3.74 0 0 1-3.58-2.13 5.35 5.35 0 0 1-.48-2.34c0-.9.16-1.69.49-2.37a3.69 3.69 0 0 1 3.44-2.18c.45 0 .9.08 1.35.23a3.34 3.34 0 0 1 2.08 2.08c.21.55.32 1.24.32 2.05v.57h-6.73v-1.16h5.37c0-.5-.1-.93-.3-1.32a2.22 2.22 0 0 0-2.1-1.25c-.53 0-.99.14-1.38.4-.38.26-.68.6-.89 1.02-.2.43-.31.88-.31 1.36v.77c0 .66.11 1.22.34 1.68.23.45.55.8.96 1.03.4.24.88.36 1.43.36.35 0 .67-.05.95-.15a1.93 1.93 0 0 0 1.23-1.22l1.3.37a2.9 2.9 0 0 1-.7 1.16c-.32.33-.71.58-1.19.77-.47.18-1 .27-1.6.27Zm9.45-8.9v1.13h-4.52v-1.14h4.52Zm-3.2-2.1h1.34v8.32c0 .38.06.66.17.85.1.19.25.31.43.38a2.27 2.27 0 0 0 .93.07l.22-.05.27 1.2a2.74 2.74 0 0 1-1 .16 2.7 2.7 0 0 1-1.11-.24 2.22 2.22 0 0 1-.9-.75 2.14 2.14 0 0 1-.35-1.26v-8.68Zm8.79 11a3.74 3.74 0 0 1-3.58-2.13 5.36 5.36 0 0 1-.5-2.34c0-.9.17-1.69.5-2.37a3.7 3.7 0 0 1 3.44-2.18c.46 0 .9.08 1.35.23a3.34 3.34 0 0 1 2.08 2.08c.21.55.32 1.24.32 2.05v.57h-6.73v-1.16h5.37c0-.5-.1-.93-.3-1.32a2.23 2.23 0 0 0-2.09-1.25 2.47 2.47 0 0 0-2.28 1.42 3 3 0 0 0-.31 1.36v.77c0 .66.11 1.22.34 1.68.23.45.55.8.96 1.03.41.24.88.36 1.43.36.35 0 .67-.05.95-.15a1.93 1.93 0 0 0 1.23-1.22l1.3.37a2.9 2.9 0 0 1-.7 1.16c-.31.33-.71.58-1.19.77-.47.18-1 .27-1.6.27Z" fill="#0F67F5"/></g></g><rect x="56" y="63.5" width="516" height="180" rx="7.5" stroke="#F6F6F6"/><path d="M9.88 129v-7.27h.88v3.24h3.88v-3.24h.88V129h-.88v-3.25h-3.88V129h-.88Zm9.58.11c-.53 0-.98-.11-1.36-.34a2.34 2.34 0 0 1-.88-.98c-.2-.43-.3-.92-.3-1.48 0-.55.1-1.05.3-1.47a2.3 2.3 0 0 1 2.15-1.36c.29 0 .57.04.84.14a2.1 2.1 0 0 1 1.3 1.3c.14.34.2.77.2 1.28v.36h-4.2v-.73h3.35c0-.3-.06-.58-.18-.82a1.38 1.38 0 0 0-1.3-.78 1.52 1.52 0 0 0-1.43.88c-.13.27-.2.55-.2.85v.48c0 .42.07.76.21 1.05.15.29.35.5.6.65.26.15.56.22.9.22.22 0 .42-.03.6-.1.17-.05.33-.15.46-.28.13-.12.23-.28.3-.47l.81.23a1.8 1.8 0 0 1-.43.72c-.2.2-.45.37-.75.48-.3.12-.62.17-1 .17Zm5.13.02c-.34 0-.65-.07-.94-.2-.28-.13-.5-.32-.67-.57a1.61 1.61 0 0 1-.25-.9c0-.32.07-.57.19-.77.12-.2.29-.35.5-.46.2-.11.43-.2.67-.25a30.88 30.88 0 0 1 1.56-.23c.21-.02.37-.06.46-.12.1-.05.15-.15.15-.28v-.03c0-.35-.1-.62-.3-.82-.18-.19-.47-.29-.85-.29-.4 0-.72.1-.94.27-.23.17-.4.36-.48.56l-.8-.29c.14-.33.33-.59.57-.77.24-.19.5-.32.78-.4a3.23 3.23 0 0 1 1.44-.04c.23.04.45.12.67.25.21.13.39.32.53.58.14.26.21.6.21 1.04V129h-.83v-.74h-.05c-.05.12-.15.25-.28.38-.13.14-.3.25-.53.35-.22.09-.49.14-.8.14Zm.13-.75c.33 0 .61-.07.84-.2a1.34 1.34 0 0 0 .7-1.15v-.77a.65.65 0 0 1-.24.12 4 4 0 0 1-.86.15l-.35.04c-.22.03-.42.08-.61.14-.19.06-.34.16-.46.28a.71.71 0 0 0-.17.5c0 .3.11.52.33.67.21.14.49.22.82.22Zm5.96.73a2.13 2.13 0 0 1-2.02-1.32c-.2-.43-.3-.93-.3-1.5 0-.58.1-1.07.3-1.5a2.16 2.16 0 0 1 2.03-1.32c.36 0 .64.06.85.18.2.12.37.25.48.4.1.15.2.27.25.36h.08v-2.68h.83V129h-.8v-.84h-.1c-.07.1-.15.23-.27.38a1.5 1.5 0 0 1-.48.4c-.21.12-.5.17-.85.17Zm.12-.75c.33 0 .62-.09.85-.26.23-.18.4-.42.53-.74a3 3 0 0 0 .18-1.09c0-.4-.06-.76-.18-1.07-.12-.3-.3-.54-.52-.71a1.4 1.4 0 0 0-.86-.26c-.36 0-.65.09-.89.27a1.7 1.7 0 0 0-.53.74c-.12.3-.17.65-.17 1.03a3 3 0 0 0 .17 1.06c.13.32.3.57.54.75.23.19.53.28.88.28Zm6.32.75a2.6 2.6 0 0 1-1.36-.34 2.34 2.34 0 0 1-.87-.98c-.2-.43-.31-.92-.31-1.48 0-.55.1-1.05.3-1.47a2.3 2.3 0 0 1 2.15-1.36c.3 0 .57.04.85.14a2.1 2.1 0 0 1 1.3 1.3c.13.34.2.77.2 1.28v.36h-4.2v-.73h3.35c0-.3-.06-.58-.19-.82a1.38 1.38 0 0 0-1.3-.78c-.34 0-.63.08-.87.25-.24.16-.43.37-.56.63-.13.27-.2.55-.2.85v.48c0 .42.08.76.22 1.05.15.29.35.5.6.65.26.15.55.22.9.22.21 0 .41-.03.59-.1.18-.05.33-.15.46-.28.13-.12.23-.28.3-.47l.82.23a1.8 1.8 0 0 1-.43.72c-.2.2-.45.37-.75.48-.3.12-.63.17-1 .17Zm3.54-.11v-5.45h.8v.82h.06c.1-.27.28-.49.54-.66.26-.17.56-.25.88-.25a7.14 7.14 0 0 1 .44.01v.86a2.43 2.43 0 0 0-.5-.06c-.27 0-.51.06-.72.17a1.23 1.23 0 0 0-.67 1.11V129h-.83Zm-30.9 12v-5.46h.82v.83h.05c.1-.27.28-.49.54-.66.26-.17.56-.25.88-.25a7.13 7.13 0 0 1 .44.01v.86a2.43 2.43 0 0 0-.5-.06c-.27 0-.5.06-.72.17a1.23 1.23 0 0 0-.67 1.11V141h-.83Zm5.78.11c-.5 0-.93-.11-1.3-.35a2.38 2.38 0 0 1-.87-.98c-.2-.42-.3-.91-.3-1.48s.1-1.06.3-1.49a2.37 2.37 0 0 1 2.17-1.34 2.35 2.35 0 0 1 2.16 1.34c.2.43.3.92.3 1.5 0 .56-.1 1.05-.3 1.47a2.3 2.3 0 0 1-2.17 1.33Zm0-.75c.37 0 .68-.1.92-.29.24-.19.42-.44.54-.75a3.07 3.07 0 0 0 0-2.04c-.12-.31-.3-.57-.54-.76a1.4 1.4 0 0 0-.92-.3c-.38 0-.68.1-.93.3-.24.2-.42.45-.53.76a2.9 2.9 0 0 0 0 2.03c.11.32.3.57.53.76.25.2.55.3.93.3Zm4.8.64-1.66-5.46h.88l1.18 4.18h.05l1.17-4.18h.9l1.14 4.17h.06l1.18-4.17h.88L24.46 141h-.83l-1.19-4.19h-.08l-1.2 4.19h-.82Z" fill="#E8178A"/><path d="M48 131.5h30" stroke="#E8178A"/><circle cx="77" cy="131.5" r="1" fill="#E8178A"/><g clip-path="url(#m)" stroke="#E8178A"><path d="M584 250V59m-7-.5h7m-7 190h7"/></g><path d="M9.88 173v-7.27h2.46c.57 0 1.03.1 1.4.29.36.19.63.45.8.79.18.34.27.72.27 1.15 0 .43-.09.8-.26 1.14-.18.33-.45.59-.8.78-.37.19-.83.28-1.4.28h-1.99v-.8h1.96c.4 0 .7-.05.94-.17.24-.11.41-.27.52-.48.1-.21.16-.46.16-.75 0-.3-.05-.55-.16-.77a1.1 1.1 0 0 0-.52-.5 2.11 2.11 0 0 0-.95-.18h-1.55V173h-.88Zm3.42-3.27 1.8 3.27h-1.03l-1.76-3.27h1Zm5.02 3.38c-.5 0-.92-.11-1.3-.35a2.38 2.38 0 0 1-.86-.98c-.2-.42-.31-.91-.31-1.48s.1-1.06.3-1.49a2.35 2.35 0 0 1 2.17-1.34 2.35 2.35 0 0 1 2.16 1.34c.2.43.31.92.31 1.5 0 .56-.1 1.05-.31 1.47a2.3 2.3 0 0 1-2.16 1.33Zm0-.75c.37 0 .68-.1.92-.29.25-.19.42-.44.54-.75.12-.32.17-.65.17-1.02 0-.36-.05-.7-.17-1.02-.12-.31-.3-.57-.54-.76-.24-.2-.55-.3-.92-.3s-.68.1-.92.3c-.24.2-.42.45-.54.76a3.12 3.12 0 0 0 0 2.04c.12.3.3.56.54.75.24.2.55.3.92.3Zm4.8.64-1.66-5.46h.88l1.18 4.18h.06l1.16-4.18h.9l1.15 4.17h.05l1.18-4.17h.88L27.24 173h-.82l-1.2-4.19h-.08l-1.2 4.19h-.82Z" fill="#E8178A"/><path d="M34 169.5h30" stroke="#E8178A"/><circle cx="63" cy="169.5" r="1" fill="#E8178A"/><path d="M590 187.5h-30" stroke="#E8178A"/><circle cx="561" cy="187.5" r="1" transform="rotate(180 561 187.5)" fill="#E8178A"/><path d="M594.88 185v-7.27h2.46c.57 0 1.03.1 1.4.29.36.19.63.45.8.79.18.34.27.72.27 1.15 0 .43-.09.8-.26 1.14-.18.33-.45.59-.8.78-.37.19-.83.28-1.4.28h-1.99v-.8h1.96c.4 0 .7-.05.94-.17.24-.11.41-.27.52-.48.1-.21.16-.46.16-.75 0-.3-.05-.55-.16-.77a1.1 1.1 0 0 0-.52-.5 2.1 2.1 0 0 0-.95-.18h-1.55V185h-.88Zm3.42-3.27 1.8 3.27h-1.03l-1.76-3.27h1Zm5.02 3.38c-.5 0-.92-.11-1.3-.35a2.38 2.38 0 0 1-.86-.98c-.2-.42-.31-.91-.31-1.48s.1-1.06.3-1.49a2.38 2.38 0 0 1 2.16-1.34 2.35 2.35 0 0 1 2.16 1.34c.22.43.32.92.32 1.5 0 .56-.1 1.05-.31 1.47a2.3 2.3 0 0 1-2.16 1.33Zm0-.75c.38 0 .68-.1.92-.29.25-.19.42-.44.54-.75.12-.32.17-.65.17-1.02 0-.36-.05-.7-.17-1.02-.12-.31-.3-.57-.54-.76-.24-.2-.54-.3-.92-.3-.37 0-.68.1-.92.3-.24.2-.42.45-.54.76-.12.32-.17.66-.17 1.02 0 .37.05.7.17 1.02.12.3.3.56.54.75.24.2.55.3.92.3Zm4.8.64-1.66-5.46h.88l1.18 4.18h.06l1.16-4.18h.9l1.15 4.17h.05l1.18-4.17h.88l-1.66 5.46h-.82l-1.2-4.19h-.08l-1.2 4.19h-.82Zm-11.3 12.11a2.13 2.13 0 0 1-2.01-1.32c-.2-.42-.3-.92-.3-1.5s.1-1.07.3-1.5a2.17 2.17 0 0 1 2.03-1.32c.36 0 .64.06.84.18.21.12.37.25.48.4l.26.36h.07v-2.68h.84V197h-.81v-.84h-.1l-.26.38a1.63 1.63 0 0 1-1.33.57Zm.12-.75c.34 0 .62-.09.85-.26.24-.18.41-.42.53-.74.12-.31.18-.68.18-1.09 0-.4-.06-.76-.17-1.07a1.6 1.6 0 0 0-.53-.71 1.4 1.4 0 0 0-.86-.26c-.36 0-.65.09-.89.27-.23.18-.4.43-.53.74a3 3 0 0 0-.17 1.03c0 .4.06.74.18 1.06.12.32.3.57.53.75.24.19.53.28.88.28Zm4.04.64v-5.46h.84V197h-.84Zm.42-6.36a.6.6 0 0 1-.42-.17.54.54 0 0 1-.17-.4c0-.16.06-.3.17-.4a.6.6 0 0 1 .42-.17c.17 0 .3.06.42.17.12.1.18.24.18.4 0 .15-.06.29-.18.4a.58.58 0 0 1-.42.17Zm6.41.9L605.8 197h-.85l-2.02-5.46h.91l1.51 4.35h.06l1.5-4.34h.91Zm1.1 5.46v-5.46h.85V197h-.84Zm.43-6.36a.6.6 0 0 1-.42-.17.54.54 0 0 1-.17-.4c0-.16.05-.3.17-.4a.6.6 0 0 1 .42-.17c.17 0 .3.06.42.17.12.1.18.24.18.4 0 .15-.06.29-.18.4a.58.58 0 0 1-.42.17Zm4.01 6.47a2.13 2.13 0 0 1-2.02-1.32c-.2-.42-.3-.92-.3-1.5s.1-1.07.3-1.5a2.16 2.16 0 0 1 2.03-1.32c.36 0 .64.06.85.18.2.12.36.25.47.4l.26.36h.07v-2.68h.84V197h-.81v-.84h-.1l-.26.38c-.11.15-.28.28-.49.4-.2.12-.49.17-.84.17Zm.11-.75c.34 0 .62-.09.86-.26.23-.18.4-.42.52-.74.13-.31.19-.68.19-1.09 0-.4-.06-.76-.18-1.07a1.6 1.6 0 0 0-.53-.71 1.4 1.4 0 0 0-.86-.26c-.35 0-.65.09-.88.27-.24.18-.42.43-.53.74-.12.3-.18.65-.18 1.03 0 .4.06.74.18 1.06.12.32.3.57.53.75.24.19.53.28.88.28Zm6.33.75c-.53 0-.98-.11-1.36-.34a2.34 2.34 0 0 1-.88-.98c-.2-.43-.3-.92-.3-1.47 0-.56.1-1.06.3-1.48a2.3 2.3 0 0 1 2.15-1.36c.29 0 .57.04.85.14a2.09 2.09 0 0 1 1.3 1.3c.13.34.2.77.2 1.28v.36h-4.2v-.73h3.35c0-.3-.07-.58-.19-.82a1.39 1.39 0 0 0-1.3-.78c-.34 0-.63.08-.87.25-.25.16-.43.37-.56.64-.13.26-.2.54-.2.84v.48c0 .41.07.76.22 1.05.14.28.34.5.6.65.25.15.55.22.89.22.22 0 .42-.03.6-.1a1.25 1.25 0 0 0 .76-.75l.81.23a1.8 1.8 0 0 1-.43.72c-.2.2-.45.37-.74.48-.3.12-.63.17-1 .17Zm3.53-.11v-5.46h.81v.83h.06c.1-.27.28-.49.54-.66.26-.17.55-.25.88-.25a7.1 7.1 0 0 1 .44.01v.86a2.45 2.45 0 0 0-.51-.06c-.27 0-.5.06-.71.17-.2.1-.37.26-.5.45-.11.2-.17.41-.17.66V197h-.84Z" fill="#E8178A"/><defs><filter id="e" x="71.5" y="148" width="147" height="40" filterUnits="userSpaceOnUse" color-interpolation-filters="sRGB"><feFlood flood-opacity="0" result="BackgroundImageFix"/><feBlend in="SourceGraphic" in2="BackgroundImageFix" result="shape"/><feColorMatrix in="SourceAlpha" values="0 0 0 0 0 0 0 0 0 0 0 0 0 0 0 0 0 0 127 0" result="hardAlpha"/><feOffset dy="-1"/><feComposite in2="hardAlpha" operator="arithmetic" k2="-1" k3="1"/><feColorMatrix values="0 0 0 0 0.933333 0 0 0 0 0.933333 0 0 0 0 0.933333 0 0 0 1 0"/><feBlend in2="shape" result="effect1_innerShadow_10819_106797"/></filter><filter id="f" x="218.5" y="148" width="189" height="40" filterUnits="userSpaceOnUse" color-interpolation-filters="sRGB"><feFlood flood-opacity="0" result="BackgroundImageFix"/><feBlend in="SourceGraphic" in2="BackgroundImageFix" result="shape"/><feColorMatrix in="SourceAlpha" values="0 0 0 0 0 0 0 0 0 0 0 0 0 0 0 0 0 0 127 0" result="hardAlpha"/><feOffset dy="-1"/><feComposite in2="hardAlpha" operator="arithmetic" k2="-1" k3="1"/><feColorMatrix values="0 0 0 0 0.933333 0 0 0 0 0.933333 0 0 0 0 0.933333 0 0 0 1 0"/><feBlend in2="shape" result="effect1_innerShadow_10819_106797"/></filter><filter id="g" x="407.5" y="148" width="149" height="40" filterUnits="userSpaceOnUse" color-interpolation-filters="sRGB"><feFlood flood-opacity="0" result="BackgroundImageFix"/><feBlend in="SourceGraphic" in2="BackgroundImageFix" result="shape"/><feColorMatrix in="SourceAlpha" values="0 0 0 0 0 0 0 0 0 0 0 0 0 0 0 0 0 0 127 0" result="hardAlpha"/><feOffset dy="-1"/><feComposite in2="hardAlpha" operator="arithmetic" k2="-1" k3="1"/><feColorMatrix values="0 0 0 0 0.933333 0 0 0 0 0.933333 0 0 0 0 0.933333 0 0 0 1 0"/><feBlend in2="shape" result="effect1_innerShadow_10819_106797"/></filter><filter id="i" x="71.5" y="188" width="147" height="40" filterUnits="userSpaceOnUse" color-interpolation-filters="sRGB"><feFlood flood-opacity="0" result="BackgroundImageFix"/><feBlend in="SourceGraphic" in2="BackgroundImageFix" result="shape"/><feColorMatrix in="SourceAlpha" values="0 0 0 0 0 0 0 0 0 0 0 0 0 0 0 0 0 0 127 0" result="hardAlpha"/><feOffset dy="-1"/><feComposite in2="hardAlpha" operator="arithmetic" k2="-1" k3="1"/><feColorMatrix values="0 0 0 0 0.933333 0 0 0 0 0.933333 0 0 0 0 0.933333 0 0 0 1 0"/><feBlend in2="shape" result="effect1_innerShadow_10819_106797"/></filter><filter id="j" x="218.5" y="188" width="189" height="40" filterUnits="userSpaceOnUse" color-interpolation-filters="sRGB"><feFlood flood-opacity="0" result="BackgroundImageFix"/><feBlend in="SourceGraphic" in2="BackgroundImageFix" result="shape"/><feColorMatrix in="SourceAlpha" values="0 0 0 0 0 0 0 0 0 0 0 0 0 0 0 0 0 0 127 0" result="hardAlpha"/><feOffset dy="-1"/><feComposite in2="hardAlpha" operator="arithmetic" k2="-1" k3="1"/><feColorMatrix values="0 0 0 0 0.933333 0 0 0 0 0.933333 0 0 0 0 0.933333 0 0 0 1 0"/><feBlend in2="shape" result="effect1_innerShadow_10819_106797"/></filter><filter id="k" x="407.5" y="188" width="149" height="40" filterUnits="userSpaceOnUse" color-interpolation-filters="sRGB"><feFlood flood-opacity="0" result="BackgroundImageFix"/><feBlend in="SourceGraphic" in2="BackgroundImageFix" result="shape"/><feColorMatrix in="SourceAlpha" values="0 0 0 0 0 0 0 0 0 0 0 0 0 0 0 0 0 0 127 0" result="hardAlpha"/><feOffset dy="-1"/><feComposite in2="hardAlpha" operator="arithmetic" k2="-1" k3="1"/><feColorMatrix values="0 0 0 0 0.933333 0 0 0 0 0.933333 0 0 0 0 0.933333 0 0 0 1 0"/><feBlend in2="shape" result="effect1_innerShadow_10819_106797"/></filter><clipPath id="a"><path fill="#fff" transform="translate(71.5 116)" d="M0 0h485v112H0z"/></clipPath><clipPath id="m"><path fill="#fff" transform="translate(576.5 58)" d="M0 0h15v191H0z"/></clipPath></defs></svg>