<svg width="300" height="132" viewBox="0 0 300 132" fill="none" xmlns="http://www.w3.org/2000/svg">
<rect x="0.5" y="0.5" width="299" height="131" rx="8" fill="white"/>
<g clip-path="url(#clip0_11695_104646)">
<mask id="path-2-inside-1_11695_104646" fill="white">
<path d="M8.5 8.5H131.5V43.5H8.5V8.5Z"/>
</mask>
<path d="M8.5 8.5H131.5V43.5H8.5V8.5Z" fill="#F6F6F6"/>
<path d="M24.9545 30.5H21.5043V20.3182H25.0241C26.035 20.3182 26.9034 20.522 27.6293 20.9297C28.3584 21.334 28.9186 21.9157 29.3097 22.6747C29.7008 23.4337 29.8963 24.3419 29.8963 25.3991C29.8963 26.4598 29.6991 27.3712 29.3047 28.1335C28.9136 28.8958 28.3485 29.4808 27.6094 29.8885C26.8736 30.2962 25.9886 30.5 24.9545 30.5ZM23.3487 28.9041H24.8651C25.5743 28.9041 26.166 28.7749 26.6399 28.5163C27.1139 28.2545 27.4702 27.8651 27.7088 27.348C27.9474 26.8277 28.0668 26.178 28.0668 25.3991C28.0668 24.6203 27.9474 23.974 27.7088 23.4602C27.4702 22.9432 27.1172 22.5571 26.6499 22.3018C26.1858 22.0433 25.6091 21.9141 24.9197 21.9141H23.3487V28.9041ZM33.7667 30.6541C33.2828 30.6541 32.8469 30.5679 32.4592 30.3956C32.0747 30.2199 31.7698 29.9614 31.5444 29.62C31.3223 29.2786 31.2113 28.8577 31.2113 28.3572C31.2113 27.9264 31.2908 27.5701 31.4499 27.2884C31.609 27.0066 31.8261 26.7812 32.1012 26.6122C32.3763 26.4432 32.6862 26.3156 33.0309 26.2294C33.3789 26.1399 33.7385 26.0753 34.1097 26.0355C34.5572 25.9891 34.9201 25.9477 35.1985 25.9112C35.4769 25.8714 35.6791 25.8118 35.805 25.7322C35.9343 25.6494 35.9989 25.5218 35.9989 25.3494V25.3196C35.9989 24.9451 35.8879 24.6551 35.6658 24.4496C35.4438 24.2441 35.1239 24.1413 34.7063 24.1413C34.2655 24.1413 33.9158 24.2375 33.6573 24.4297C33.4021 24.6219 33.2298 24.849 33.1403 25.1108L31.4599 24.8722C31.5924 24.4081 31.8112 24.0204 32.1161 23.7088C32.421 23.3939 32.7939 23.1586 33.2347 23.0028C33.6755 22.8438 34.1628 22.7642 34.6964 22.7642C35.0643 22.7642 35.4305 22.8073 35.7951 22.8935C36.1597 22.9796 36.4928 23.1222 36.7944 23.321C37.096 23.5166 37.338 23.7834 37.5202 24.1214C37.7058 24.4595 37.7987 24.8821 37.7987 25.3892V30.5H36.0685V29.451H36.0089C35.8995 29.6631 35.7454 29.862 35.5465 30.0476C35.351 30.2299 35.104 30.3774 34.8058 30.4901C34.5108 30.5994 34.1644 30.6541 33.7667 30.6541ZM34.234 29.3317C34.5953 29.3317 34.9085 29.2604 35.1737 29.1179C35.4388 28.9721 35.6426 28.7798 35.7852 28.5412C35.931 28.3026 36.0039 28.0424 36.0039 27.7607V26.8608C35.9476 26.9072 35.8514 26.9503 35.7156 26.9901C35.583 27.0298 35.4338 27.0646 35.2681 27.0945C35.1024 27.1243 34.9383 27.1508 34.7759 27.174C34.6135 27.1972 34.4727 27.2171 34.3533 27.2337C34.0849 27.2701 33.8446 27.3298 33.6325 27.4126C33.4203 27.4955 33.253 27.6115 33.1303 27.7607C33.0077 27.9065 32.9464 28.0954 32.9464 28.3274C32.9464 28.6589 33.0674 28.9091 33.3093 29.0781C33.5513 29.2472 33.8595 29.3317 34.234 29.3317ZM43.4215 22.8636V24.2557H39.0316V22.8636H43.4215ZM40.1154 21.0341H41.9151V28.2031C41.9151 28.4451 41.9516 28.6307 42.0245 28.7599C42.1007 28.8859 42.2002 28.9721 42.3228 29.0185C42.4454 29.0649 42.5813 29.0881 42.7305 29.0881C42.8432 29.0881 42.9459 29.0798 43.0387 29.0632C43.1348 29.0466 43.2077 29.0317 43.2575 29.0185L43.5607 30.4254C43.4646 30.4586 43.3271 30.495 43.1481 30.5348C42.9724 30.5746 42.757 30.5978 42.5018 30.6044C42.051 30.6177 41.645 30.5497 41.2837 30.4006C40.9225 30.2481 40.6358 30.0128 40.4237 29.6946C40.2148 29.3764 40.1121 28.9787 40.1154 28.5014V21.0341ZM48.2253 30.6491C47.4597 30.6491 46.7985 30.4901 46.2417 30.1719C45.6882 29.8504 45.2623 29.3963 44.964 28.8097C44.6657 28.2197 44.5165 27.5253 44.5165 26.7266C44.5165 25.9411 44.6657 25.2517 44.964 24.6584C45.2656 24.0618 45.6865 23.5978 46.2267 23.2663C46.767 22.9316 47.4017 22.7642 48.1309 22.7642C48.6015 22.7642 49.0456 22.8404 49.4632 22.9929C49.8842 23.142 50.2554 23.3741 50.5769 23.6889C50.9017 24.0038 51.1569 24.4048 51.3425 24.892C51.5281 25.3759 51.6209 25.9527 51.6209 26.6222V27.174H45.3617V25.9609H49.8958C49.8925 25.6162 49.8179 25.3097 49.6721 25.0412C49.5262 24.7694 49.3224 24.5556 49.0605 24.3999C48.802 24.2441 48.5004 24.1662 48.1557 24.1662C47.7878 24.1662 47.4647 24.2557 47.1863 24.4347C46.9078 24.6103 46.6908 24.8423 46.535 25.1307C46.3825 25.4157 46.3046 25.7289 46.3013 26.0703V27.1293C46.3013 27.5734 46.3825 27.9545 46.5449 28.2727C46.7073 28.5876 46.9344 28.8295 47.226 28.9986C47.5177 29.1643 47.8591 29.2472 48.2502 29.2472C48.512 29.2472 48.749 29.2107 48.9611 29.1378C49.1732 29.0616 49.3572 28.9505 49.513 28.8047C49.6687 28.6589 49.7864 28.4782 49.8659 28.2628L51.5463 28.4517C51.4403 28.8958 51.2381 29.2836 50.9398 29.6151C50.6448 29.9432 50.267 30.1984 49.8063 30.3807C49.3456 30.5597 48.8186 30.6491 48.2253 30.6491ZM62.6516 24.8821L61.011 25.0611C60.9646 24.8954 60.8834 24.7396 60.7674 24.5938C60.6547 24.4479 60.5022 24.3303 60.31 24.2408C60.1178 24.1513 59.8825 24.1065 59.604 24.1065C59.2295 24.1065 58.9147 24.1877 58.6594 24.3501C58.4076 24.5125 58.2833 24.723 58.2866 24.9815C58.2833 25.2036 58.3645 25.3842 58.5302 25.5234C58.6992 25.6626 58.9776 25.777 59.3654 25.8665L60.668 26.1449C61.3905 26.3007 61.9274 26.5476 62.2788 26.8857C62.6334 27.2237 62.8124 27.6662 62.8157 28.2131C62.8124 28.6937 62.6715 29.1179 62.3931 29.4858C62.118 29.8504 61.7352 30.1354 61.2447 30.3409C60.7541 30.5464 60.1907 30.6491 59.5543 30.6491C58.6197 30.6491 57.8673 30.4536 57.2972 30.0625C56.7272 29.6681 56.3874 29.1196 56.2781 28.4169L58.033 28.2479C58.1126 28.5926 58.2816 28.8527 58.5401 29.0284C58.7987 29.2041 59.1351 29.2919 59.5494 29.2919C59.9769 29.2919 60.32 29.2041 60.5785 29.0284C60.8403 28.8527 60.9712 28.6357 60.9712 28.3771C60.9712 28.1584 60.8867 27.9777 60.7177 27.8352C60.552 27.6927 60.2934 27.5833 59.9421 27.5071L58.6396 27.2337C57.9071 27.0812 57.3652 26.8243 57.0138 26.4631C56.6625 26.0985 56.4885 25.6378 56.4918 25.081C56.4885 24.6103 56.6161 24.2027 56.8746 23.858C57.1365 23.5099 57.4994 23.2415 57.9634 23.0526C58.4308 22.8603 58.9693 22.7642 59.5792 22.7642C60.4741 22.7642 61.1784 22.9548 61.6921 23.3359C62.2092 23.7171 62.529 24.2325 62.6516 24.8821ZM68.1129 22.8636V24.2557H63.723V22.8636H68.1129ZM64.8068 21.0341H66.6065V28.2031C66.6065 28.4451 66.643 28.6307 66.7159 28.7599C66.7921 28.8859 66.8916 28.9721 67.0142 29.0185C67.1368 29.0649 67.2727 29.0881 67.4219 29.0881C67.5346 29.0881 67.6373 29.0798 67.7301 29.0632C67.8262 29.0466 67.8991 29.0317 67.9489 29.0185L68.2521 30.4254C68.156 30.4586 68.0185 30.495 67.8395 30.5348C67.6638 30.5746 67.4484 30.5978 67.1932 30.6044C66.7424 30.6177 66.3364 30.5497 65.9751 30.4006C65.6139 30.2481 65.3272 30.0128 65.1151 29.6946C64.9063 29.3764 64.8035 28.9787 64.8068 28.5014V21.0341ZM71.8155 30.6541C71.3316 30.6541 70.8958 30.5679 70.508 30.3956C70.1235 30.2199 69.8186 29.9614 69.5932 29.62C69.3712 29.2786 69.2601 28.8577 69.2601 28.3572C69.2601 27.9264 69.3397 27.5701 69.4988 27.2884C69.6578 27.0066 69.8749 26.7812 70.15 26.6122C70.4251 26.4432 70.735 26.3156 71.0797 26.2294C71.4277 26.1399 71.7873 26.0753 72.1586 26.0355C72.606 25.9891 72.9689 25.9477 73.2473 25.9112C73.5257 25.8714 73.7279 25.8118 73.8539 25.7322C73.9831 25.6494 74.0478 25.5218 74.0478 25.3494V25.3196C74.0478 24.9451 73.9367 24.6551 73.7147 24.4496C73.4926 24.2441 73.1728 24.1413 72.7551 24.1413C72.3143 24.1413 71.9647 24.2375 71.7061 24.4297C71.4509 24.6219 71.2786 24.849 71.1891 25.1108L69.5087 24.8722C69.6413 24.4081 69.86 24.0204 70.165 23.7088C70.4699 23.3939 70.8427 23.1586 71.2836 23.0028C71.7244 22.8438 72.2116 22.7642 72.7452 22.7642C73.1131 22.7642 73.4793 22.8073 73.8439 22.8935C74.2085 22.9796 74.5416 23.1222 74.8432 23.321C75.1448 23.5166 75.3868 23.7834 75.5691 24.1214C75.7547 24.4595 75.8475 24.8821 75.8475 25.3892V30.5H74.1174V29.451H74.0577C73.9483 29.6631 73.7942 29.862 73.5953 30.0476C73.3998 30.2299 73.1529 30.3774 72.8546 30.4901C72.5596 30.5994 72.2132 30.6541 71.8155 30.6541ZM72.2828 29.3317C72.6441 29.3317 72.9573 29.2604 73.2225 29.1179C73.4876 28.9721 73.6915 28.7798 73.834 28.5412C73.9798 28.3026 74.0527 28.0424 74.0527 27.7607V26.8608C73.9964 26.9072 73.9003 26.9503 73.7644 26.9901C73.6318 27.0298 73.4827 27.0646 73.3169 27.0945C73.1512 27.1243 72.9872 27.1508 72.8248 27.174C72.6623 27.1972 72.5215 27.2171 72.4022 27.2337C72.1337 27.2701 71.8934 27.3298 71.6813 27.4126C71.4692 27.4955 71.3018 27.6115 71.1792 27.7607C71.0565 27.9065 70.9952 28.0954 70.9952 28.3274C70.9952 28.6589 71.1162 28.9091 71.3581 29.0781C71.6001 29.2472 71.9083 29.3317 72.2828 29.3317ZM77.6571 30.5V22.8636H79.4022V24.1364H79.4817C79.6209 23.6955 79.8596 23.3558 80.1976 23.1172C80.539 22.8752 80.9284 22.7543 81.3659 22.7543C81.4654 22.7543 81.5764 22.7592 81.699 22.7692C81.825 22.7758 81.9294 22.7874 82.0123 22.804V24.4595C81.936 24.433 81.815 24.4098 81.6493 24.3899C81.4869 24.3667 81.3295 24.3551 81.177 24.3551C80.8489 24.3551 80.5539 24.4264 80.2921 24.5689C80.0336 24.7081 79.8297 24.902 79.6806 25.1506C79.5314 25.3991 79.4569 25.6858 79.4569 26.0107V30.5H77.6571ZM87.4313 22.8636V24.2557H83.0414V22.8636H87.4313ZM84.1252 21.0341H85.9249V28.2031C85.9249 28.4451 85.9614 28.6307 86.0343 28.7599C86.1105 28.8859 86.2099 28.9721 86.3326 29.0185C86.4552 29.0649 86.5911 29.0881 86.7402 29.0881C86.8529 29.0881 86.9557 29.0798 87.0485 29.0632C87.1446 29.0466 87.2175 29.0317 87.2672 29.0185L87.5705 30.4254C87.4744 30.4586 87.3368 30.495 87.1578 30.5348C86.9822 30.5746 86.7667 30.5978 86.5115 30.6044C86.0608 30.6177 85.6548 30.5497 85.2935 30.4006C84.9322 30.2481 84.6455 30.0128 84.4334 29.6946C84.2246 29.3764 84.1219 28.9787 84.1252 28.5014V21.0341ZM92.2351 30.6491C91.4695 30.6491 90.8082 30.4901 90.2514 30.1719C89.6979 29.8504 89.272 29.3963 88.9737 28.8097C88.6754 28.2197 88.5263 27.5253 88.5263 26.7266C88.5263 25.9411 88.6754 25.2517 88.9737 24.6584C89.2753 24.0618 89.6963 23.5978 90.2365 23.2663C90.7768 22.9316 91.4115 22.7642 92.1406 22.7642C92.6113 22.7642 93.0554 22.8404 93.473 22.9929C93.8939 23.142 94.2652 23.3741 94.5866 23.6889C94.9115 24.0038 95.1667 24.4048 95.3523 24.892C95.5379 25.3759 95.6307 25.9527 95.6307 26.6222V27.174H89.3714V25.9609H93.9055C93.9022 25.6162 93.8277 25.3097 93.6818 25.0412C93.536 24.7694 93.3321 24.5556 93.0703 24.3999C92.8118 24.2441 92.5102 24.1662 92.1655 24.1662C91.7976 24.1662 91.4744 24.2557 91.196 24.4347C90.9176 24.6103 90.7005 24.8423 90.5447 25.1307C90.3923 25.4157 90.3144 25.7289 90.3111 26.0703V27.1293C90.3111 27.5734 90.3923 27.9545 90.5547 28.2727C90.7171 28.5876 90.9441 28.8295 91.2358 28.9986C91.5275 29.1643 91.8688 29.2472 92.2599 29.2472C92.5218 29.2472 92.7588 29.2107 92.9709 29.1378C93.183 29.0616 93.367 28.9505 93.5227 28.8047C93.6785 28.6589 93.7962 28.4782 93.8757 28.2628L95.5561 28.4517C95.45 28.8958 95.2479 29.2836 94.9496 29.6151C94.6546 29.9432 94.2768 30.1984 93.8161 30.3807C93.3554 30.5597 92.8284 30.6491 92.2351 30.6491ZM99.987 30.6342C99.3871 30.6342 98.8502 30.4801 98.3762 30.1719C97.9023 29.8636 97.5278 29.4162 97.2527 28.8295C96.9776 28.2429 96.84 27.5303 96.84 26.6918C96.84 25.8433 96.9792 25.1274 97.2576 24.544C97.5394 23.9574 97.9189 23.5149 98.3961 23.2166C98.8734 22.915 99.4054 22.7642 99.992 22.7642C100.439 22.7642 100.807 22.8404 101.096 22.9929C101.384 23.142 101.613 23.3227 101.782 23.5348C101.951 23.7436 102.082 23.9408 102.175 24.1264H102.249V20.3182H104.054V30.5H102.284V29.2969H102.175C102.082 29.4825 101.948 29.6797 101.772 29.8885C101.596 30.094 101.364 30.2696 101.076 30.4155C100.787 30.5613 100.425 30.6342 99.987 30.6342ZM100.489 29.1577C100.87 29.1577 101.195 29.0549 101.464 28.8494C101.732 28.6406 101.936 28.3506 102.075 27.9794C102.214 27.6082 102.284 27.1757 102.284 26.6818C102.284 26.188 102.214 25.7588 102.075 25.3942C101.939 25.0296 101.737 24.7462 101.469 24.544C101.203 24.3419 100.877 24.2408 100.489 24.2408C100.088 24.2408 99.7534 24.3452 99.4849 24.554C99.2164 24.7628 99.0143 25.0511 98.8784 25.419C98.7425 25.7869 98.6745 26.2079 98.6745 26.6818C98.6745 27.1591 98.7425 27.585 98.8784 27.9595C99.0176 28.3307 99.2214 28.6241 99.4899 28.8395C99.7617 29.0516 100.095 29.1577 100.489 29.1577Z" fill="#1F1F1F"/>
<path d="M121.17 23.79H117.17C116.83 23.79 116.55 23.51 116.55 23.17C116.55 22.83 116.83 22.55 117.17 22.55H121.17C121.51 22.55 121.79 22.83 121.79 23.17C121.79 23.51 121.51 23.79 121.17 23.79Z" fill="#545454"/>
<path d="M122.5 21.12H117.17C116.83 21.12 116.55 20.84 116.55 20.5C116.55 20.16 116.83 19.88 117.17 19.88H122.5C122.84 19.88 123.12 20.16 123.12 20.5C123.12 20.84 122.84 21.12 122.5 21.12Z" fill="#545454"/>
<path d="M119.83 26.46H117.16C116.82 26.46 116.54 26.18 116.54 25.84C116.54 25.5 116.82 25.22 117.16 25.22H119.83C120.17 25.22 120.45 25.5 120.45 25.84C120.45 26.18 120.17 26.46 119.83 26.46Z" fill="#545454"/>
<path d="M114.5 31.12C114.34 31.12 114.18 31.06 114.06 30.94L112.06 28.94C111.82 28.7 111.82 28.3 112.06 28.06C112.3 27.82 112.7 27.82 112.94 28.06L114.5 29.62L116.06 28.06C116.3 27.82 116.7 27.82 116.94 28.06C117.18 28.3 117.18 28.7 116.94 28.94L114.94 30.94C114.82 31.06 114.66 31.12 114.5 31.12Z" fill="#545454"/>
<path d="M114.5 30.46C114.16 30.46 113.88 30.18 113.88 29.84V20.5C113.88 20.16 114.16 19.88 114.5 19.88C114.84 19.88 115.12 20.16 115.12 20.5V29.83C115.12 30.17 114.84 30.45 114.5 30.45V30.46Z" fill="#545454"/>
<path d="M131.5 42.5H8.5V44.5H131.5V42.5Z" fill="#F6F6F6" mask="url(#path-2-inside-1_11695_104646)"/>
<mask id="path-6-inside-2_11695_104646" fill="white">
<path d="M131.5 8.5H291.5V43.5H131.5V8.5Z"/>
</mask>
<path d="M131.5 8.5H291.5V43.5H131.5V8.5Z" fill="#F6F6F6"/>
<path d="M147.955 30.5H144.504V20.3182H148.024C149.035 20.3182 149.903 20.522 150.629 20.9297C151.358 21.334 151.919 21.9157 152.31 22.6747C152.701 23.4337 152.896 24.3419 152.896 25.3991C152.896 26.4598 152.699 27.3712 152.305 28.1335C151.914 28.8958 151.348 29.4808 150.609 29.8885C149.874 30.2962 148.989 30.5 147.955 30.5ZM146.349 28.9041H147.865C148.574 28.9041 149.166 28.7749 149.64 28.5163C150.114 28.2545 150.47 27.8651 150.709 27.348C150.947 26.8277 151.067 26.178 151.067 25.3991C151.067 24.6203 150.947 23.974 150.709 23.4602C150.47 22.9432 150.117 22.5571 149.65 22.3018C149.186 22.0433 148.609 21.9141 147.92 21.9141H146.349V28.9041ZM159.436 27.2884V22.8636H161.236V30.5H159.491V29.1428H159.412C159.239 29.5703 158.956 29.92 158.561 30.1918C158.17 30.4635 157.688 30.5994 157.115 30.5994C156.614 30.5994 156.172 30.4884 155.787 30.2663C155.406 30.041 155.108 29.7145 154.892 29.2869C154.677 28.8561 154.569 28.3357 154.569 27.7259V22.8636H156.369V27.4474C156.369 27.9313 156.502 28.3158 156.767 28.6009C157.032 28.8859 157.38 29.0284 157.811 29.0284C158.076 29.0284 158.333 28.9638 158.581 28.8345C158.83 28.7053 159.034 28.513 159.193 28.2578C159.355 27.9993 159.436 27.6761 159.436 27.2884ZM166.468 30.6491C165.702 30.6491 165.041 30.4901 164.484 30.1719C163.93 29.8504 163.504 29.3963 163.206 28.8097C162.908 28.2197 162.759 27.5253 162.759 26.7266C162.759 25.9411 162.908 25.2517 163.206 24.6584C163.508 24.0618 163.929 23.5978 164.469 23.2663C165.009 22.9316 165.644 22.7642 166.373 22.7642C166.844 22.7642 167.288 22.8404 167.705 22.9929C168.126 23.142 168.498 23.3741 168.819 23.6889C169.144 24.0038 169.399 24.4048 169.585 24.892C169.77 25.3759 169.863 25.9527 169.863 26.6222V27.174H163.604V25.9609H168.138C168.135 25.6162 168.06 25.3097 167.914 25.0412C167.768 24.7694 167.565 24.5556 167.303 24.3999C167.044 24.2441 166.743 24.1662 166.398 24.1662C166.03 24.1662 165.707 24.2557 165.428 24.4347C165.15 24.6103 164.933 24.8423 164.777 25.1307C164.625 25.4157 164.547 25.7289 164.544 26.0703V27.1293C164.544 27.5734 164.625 27.9545 164.787 28.2727C164.95 28.5876 165.177 28.8295 165.468 28.9986C165.76 29.1643 166.101 29.2472 166.492 29.2472C166.754 29.2472 166.991 29.2107 167.203 29.1378C167.415 29.0616 167.599 28.9505 167.755 28.8047C167.911 28.6589 168.029 28.4782 168.108 28.2628L169.789 28.4517C169.682 28.8958 169.48 29.2836 169.182 29.6151C168.887 29.9432 168.509 30.1984 168.048 30.3807C167.588 30.5597 167.061 30.6491 166.468 30.6491ZM177.692 30.6342C177.092 30.6342 176.555 30.4801 176.081 30.1719C175.607 29.8636 175.233 29.4162 174.958 28.8295C174.683 28.2429 174.545 27.5303 174.545 26.6918C174.545 25.8433 174.684 25.1274 174.963 24.544C175.244 23.9574 175.624 23.5149 176.101 23.2166C176.578 22.915 177.11 22.7642 177.697 22.7642C178.145 22.7642 178.512 22.8404 178.801 22.9929C179.089 23.142 179.318 23.3227 179.487 23.5348C179.656 23.7436 179.787 23.9408 179.88 24.1264H179.954V20.3182H181.759V30.5H179.989V29.2969H179.88C179.787 29.4825 179.653 29.6797 179.477 29.8885C179.301 30.094 179.069 30.2696 178.781 30.4155C178.493 30.5613 178.13 30.6342 177.692 30.6342ZM178.194 29.1577C178.575 29.1577 178.9 29.0549 179.169 28.8494C179.437 28.6406 179.641 28.3506 179.78 27.9794C179.919 27.6082 179.989 27.1757 179.989 26.6818C179.989 26.188 179.919 25.7588 179.78 25.3942C179.644 25.0296 179.442 24.7462 179.174 24.544C178.908 24.3419 178.582 24.2408 178.194 24.2408C177.793 24.2408 177.458 24.3452 177.19 24.554C176.922 24.7628 176.719 25.0511 176.583 25.419C176.448 25.7869 176.38 26.2079 176.38 26.6818C176.38 27.1591 176.448 27.585 176.583 27.9595C176.723 28.3307 176.926 28.6241 177.195 28.8395C177.467 29.0516 177.8 29.1577 178.194 29.1577ZM185.874 30.6541C185.39 30.6541 184.954 30.5679 184.567 30.3956C184.182 30.2199 183.877 29.9614 183.652 29.62C183.43 29.2786 183.319 28.8577 183.319 28.3572C183.319 27.9264 183.398 27.5701 183.557 27.2884C183.716 27.0066 183.934 26.7812 184.209 26.6122C184.484 26.4432 184.794 26.3156 185.138 26.2294C185.486 26.1399 185.846 26.0753 186.217 26.0355C186.665 25.9891 187.028 25.9477 187.306 25.9112C187.584 25.8714 187.787 25.8118 187.912 25.7322C188.042 25.6494 188.106 25.5218 188.106 25.3494V25.3196C188.106 24.9451 187.995 24.6551 187.773 24.4496C187.551 24.2441 187.231 24.1413 186.814 24.1413C186.373 24.1413 186.023 24.2375 185.765 24.4297C185.51 24.6219 185.337 24.849 185.248 25.1108L183.567 24.8722C183.7 24.4081 183.919 24.0204 184.224 23.7088C184.528 23.3939 184.901 23.1586 185.342 23.0028C185.783 22.8438 186.27 22.7642 186.804 22.7642C187.172 22.7642 187.538 22.8073 187.903 22.8935C188.267 22.9796 188.6 23.1222 188.902 23.321C189.203 23.5166 189.445 23.7834 189.628 24.1214C189.813 24.4595 189.906 24.8821 189.906 25.3892V30.5H188.176V29.451H188.116C188.007 29.6631 187.853 29.862 187.654 30.0476C187.458 30.2299 187.211 30.3774 186.913 30.4901C186.618 30.5994 186.272 30.6541 185.874 30.6541ZM186.341 29.3317C186.703 29.3317 187.016 29.2604 187.281 29.1179C187.546 28.9721 187.75 28.7798 187.893 28.5412C188.038 28.3026 188.111 28.0424 188.111 27.7607V26.8608C188.055 26.9072 187.959 26.9503 187.823 26.9901C187.69 27.0298 187.541 27.0646 187.376 27.0945C187.21 27.1243 187.046 27.1508 186.883 27.174C186.721 27.1972 186.58 27.2171 186.461 27.2337C186.192 27.2701 185.952 27.3298 185.74 27.4126C185.528 27.4955 185.36 27.6115 185.238 27.7607C185.115 27.9065 185.054 28.0954 185.054 28.3274C185.054 28.6589 185.175 28.9091 185.417 29.0781C185.659 29.2472 185.967 29.3317 186.341 29.3317ZM195.529 22.8636V24.2557H191.139V22.8636H195.529ZM192.223 21.0341H194.023V28.2031C194.023 28.4451 194.059 28.6307 194.132 28.7599C194.208 28.8859 194.308 28.9721 194.43 29.0185C194.553 29.0649 194.689 29.0881 194.838 29.0881C194.951 29.0881 195.053 29.0798 195.146 29.0632C195.242 29.0466 195.315 29.0317 195.365 29.0185L195.668 30.4254C195.572 30.4586 195.434 30.495 195.256 30.5348C195.08 30.5746 194.864 30.5978 194.609 30.6044C194.158 30.6177 193.752 30.5497 193.391 30.4006C193.03 30.2481 192.743 30.0128 192.531 29.6946C192.322 29.3764 192.22 28.9787 192.223 28.5014V21.0341ZM200.333 30.6491C199.567 30.6491 198.906 30.4901 198.349 30.1719C197.796 29.8504 197.37 29.3963 197.071 28.8097C196.773 28.2197 196.624 27.5253 196.624 26.7266C196.624 25.9411 196.773 25.2517 197.071 24.6584C197.373 24.0618 197.794 23.5978 198.334 23.2663C198.874 22.9316 199.509 22.7642 200.238 22.7642C200.709 22.7642 201.153 22.8404 201.571 22.9929C201.992 23.142 202.363 23.3741 202.684 23.6889C203.009 24.0038 203.264 24.4048 203.45 24.892C203.636 25.3759 203.728 25.9527 203.728 26.6222V27.174H197.469V25.9609H202.003C202 25.6162 201.925 25.3097 201.779 25.0412C201.634 24.7694 201.43 24.5556 201.168 24.3999C200.909 24.2441 200.608 24.1662 200.263 24.1662C199.895 24.1662 199.572 24.2557 199.294 24.4347C199.015 24.6103 198.798 24.8423 198.642 25.1307C198.49 25.4157 198.412 25.7289 198.409 26.0703V27.1293C198.409 27.5734 198.49 27.9545 198.652 28.2727C198.815 28.5876 199.042 28.8295 199.333 28.9986C199.625 29.1643 199.967 29.2472 200.358 29.2472C200.619 29.2472 200.856 29.2107 201.069 29.1378C201.281 29.0616 201.465 28.9505 201.62 28.8047C201.776 28.6589 201.894 28.4782 201.973 28.2628L203.654 28.4517C203.548 28.8958 203.346 29.2836 203.047 29.6151C202.752 29.9432 202.374 30.1984 201.914 30.3807C201.453 30.5597 200.926 30.6491 200.333 30.6491Z" fill="#1F1F1F"/>
<path d="M291.5 42.5H131.5V44.5H291.5V42.5Z" fill="#F6F6F6" mask="url(#path-6-inside-2_11695_104646)"/>
<rect width="283" height="40" transform="translate(8.5 43.5)" fill="white"/>
<g filter="url(#filter0_i_11695_104646)">
<rect width="123" height="40" transform="translate(8.5 43.5)" fill="white"/>
<path d="M25.1335 57.8182V68H23.9006V59.1108H23.8409L21.3551 60.7614V59.5085L23.9006 57.8182H25.1335ZM28.0618 68V67.1051L31.4226 63.4261C31.817 62.9953 32.1418 62.6207 32.397 62.3026C32.6522 61.9811 32.8411 61.6795 32.9638 61.3977C33.0897 61.1127 33.1527 60.8144 33.1527 60.5028C33.1527 60.1449 33.0665 59.835 32.8942 59.5732C32.7251 59.3113 32.4931 59.1091 32.1982 58.9666C31.9032 58.8241 31.5717 58.7528 31.2038 58.7528C30.8127 58.7528 30.4714 58.834 30.1797 58.9964C29.8913 59.1555 29.6676 59.3793 29.5085 59.6676C29.3527 59.956 29.2749 60.294 29.2749 60.6818H28.1016C28.1016 60.0852 28.2391 59.5616 28.5142 59.1108C28.7893 58.66 29.1638 58.3087 29.6378 58.0568C30.1151 57.8049 30.6503 57.679 31.2436 57.679C31.8402 57.679 32.3688 57.8049 32.8295 58.0568C33.2902 58.3087 33.6515 58.6484 33.9134 59.076C34.1752 59.5036 34.3061 59.9792 34.3061 60.5028C34.3061 60.8774 34.2382 61.2436 34.1023 61.6016C33.9697 61.9562 33.7377 62.3523 33.4062 62.7898C33.0781 63.224 32.6224 63.7543 32.0391 64.3807L29.7521 66.8267V66.9062H34.4851V68H28.0618ZM40.1577 57.3409L36.8764 69.5312H35.8026L39.0838 57.3409H40.1577ZM44.8496 68.1392C44.1006 68.1392 43.4625 67.9354 42.9355 67.5277C42.4086 67.1167 42.0059 66.5218 41.7275 65.7429C41.449 64.9607 41.3098 64.0161 41.3098 62.9091C41.3098 61.8087 41.449 60.8691 41.7275 60.0902C42.0092 59.308 42.4135 58.7114 42.9405 58.3004C43.4708 57.8861 44.1072 57.679 44.8496 57.679C45.592 57.679 46.2267 57.8861 46.7537 58.3004C47.284 58.7114 47.6884 59.308 47.9668 60.0902C48.2485 60.8691 48.3894 61.8087 48.3894 62.9091C48.3894 64.0161 48.2502 64.9607 47.9718 65.7429C47.6934 66.5218 47.2907 67.1167 46.7637 67.5277C46.2367 67.9354 45.5987 68.1392 44.8496 68.1392ZM44.8496 67.0455C45.592 67.0455 46.1687 66.6875 46.5797 65.9716C46.9907 65.2557 47.1962 64.2348 47.1962 62.9091C47.1962 62.0275 47.1017 61.2768 46.9128 60.657C46.7272 60.0372 46.4587 59.5649 46.1074 59.2401C45.7594 58.9152 45.3401 58.7528 44.8496 58.7528C44.1138 58.7528 43.5388 59.1158 43.1245 59.8416C42.7102 60.5642 42.503 61.5866 42.503 62.9091C42.503 63.7907 42.5958 64.5398 42.7814 65.1562C42.967 65.7727 43.2338 66.2417 43.5819 66.5632C43.9332 66.8847 44.3558 67.0455 44.8496 67.0455ZM50.04 65.9119V64.8977L54.5144 57.8182H55.2502V59.3892H54.753L51.3723 64.7386V64.8182H57.3979V65.9119H50.04ZM54.8326 68V65.6037V65.1314V57.8182H56.0059V68H54.8326ZM62.8803 57.3409L59.5991 69.5312H58.5252L61.8065 57.3409H62.8803ZM64.2512 68V67.1051L67.612 63.4261C68.0065 62.9953 68.3313 62.6207 68.5865 62.3026C68.8417 61.9811 69.0306 61.6795 69.1532 61.3977C69.2792 61.1127 69.3422 60.8144 69.3422 60.5028C69.3422 60.1449 69.256 59.835 69.0836 59.5732C68.9146 59.3113 68.6826 59.1091 68.3876 58.9666C68.0926 58.8241 67.7612 58.7528 67.3933 58.7528C67.0022 58.7528 66.6608 58.834 66.3691 58.9964C66.0808 59.1555 65.8571 59.3793 65.698 59.6676C65.5422 59.956 65.4643 60.294 65.4643 60.6818H64.291C64.291 60.0852 64.4286 59.5616 64.7037 59.1108C64.9788 58.66 65.3533 58.3087 65.8272 58.0568C66.3045 57.8049 66.8398 57.679 67.4331 57.679C68.0297 57.679 68.5583 57.8049 69.019 58.0568C69.4797 58.3087 69.841 58.6484 70.1028 59.076C70.3646 59.5036 70.4956 59.9792 70.4956 60.5028C70.4956 60.8774 70.4276 61.2436 70.2917 61.6016C70.1592 61.9562 69.9271 62.3523 69.5957 62.7898C69.2676 63.224 68.8118 63.7543 68.2285 64.3807L65.9416 66.8267V66.9062H70.6745V68H64.2512ZM76.0488 68.1392C75.2998 68.1392 74.6618 67.9354 74.1348 67.5277C73.6078 67.1167 73.2051 66.5218 72.9267 65.7429C72.6483 64.9607 72.5091 64.0161 72.5091 62.9091C72.5091 61.8087 72.6483 60.8691 72.9267 60.0902C73.2084 59.308 73.6127 58.7114 74.1397 58.3004C74.67 57.8861 75.3064 57.679 76.0488 57.679C76.7913 57.679 77.426 57.8861 77.9529 58.3004C78.4833 58.7114 78.8876 59.308 79.166 60.0902C79.4477 60.8691 79.5886 61.8087 79.5886 62.9091C79.5886 64.0161 79.4494 64.9607 79.171 65.7429C78.8926 66.5218 78.4899 67.1167 77.9629 67.5277C77.4359 67.9354 76.7979 68.1392 76.0488 68.1392ZM76.0488 67.0455C76.7913 67.0455 77.368 66.6875 77.7789 65.9716C78.1899 65.2557 78.3954 64.2348 78.3954 62.9091C78.3954 62.0275 78.301 61.2768 78.112 60.657C77.9264 60.0372 77.658 59.5649 77.3066 59.2401C76.9586 58.9152 76.5394 58.7528 76.0488 58.7528C75.313 58.7528 74.738 59.1158 74.3237 59.8416C73.9094 60.5642 73.7022 61.5866 73.7022 62.9091C73.7022 63.7907 73.795 64.5398 73.9806 65.1562C74.1663 65.7727 74.4331 66.2417 74.7811 66.5632C75.1324 66.8847 75.555 67.0455 76.0488 67.0455ZM81.4778 68V67.1051L84.8386 63.4261C85.233 62.9953 85.5578 62.6207 85.813 62.3026C86.0682 61.9811 86.2572 61.6795 86.3798 61.3977C86.5057 61.1127 86.5687 60.8144 86.5687 60.5028C86.5687 60.1449 86.4825 59.835 86.3102 59.5732C86.1412 59.3113 85.9092 59.1091 85.6142 58.9666C85.3192 58.8241 84.9877 58.7528 84.6199 58.7528C84.2288 58.7528 83.8874 58.834 83.5957 58.9964C83.3074 59.1555 83.0836 59.3793 82.9245 59.6676C82.7688 59.956 82.6909 60.294 82.6909 60.6818H81.5176C81.5176 60.0852 81.6551 59.5616 81.9302 59.1108C82.2053 58.66 82.5798 58.3087 83.0538 58.0568C83.5311 57.8049 84.0663 57.679 84.6596 57.679C85.2562 57.679 85.7849 57.8049 86.2456 58.0568C86.7063 58.3087 87.0675 58.6484 87.3294 59.076C87.5912 59.5036 87.7221 59.9792 87.7221 60.5028C87.7221 60.8774 87.6542 61.2436 87.5183 61.6016C87.3857 61.9562 87.1537 62.3523 86.8223 62.7898C86.4941 63.224 86.0384 63.7543 85.4551 64.3807L83.1681 66.8267V66.9062H87.9011V68H81.4778ZM93.3947 68.1392C92.7385 68.1392 92.1535 68.0265 91.6397 67.8011C91.1293 67.5758 90.7233 67.2625 90.4217 66.8615C90.1234 66.4571 89.961 65.9882 89.9345 65.4545H91.1873C91.2138 65.7827 91.3265 66.0661 91.5254 66.3047C91.7243 66.54 91.9844 66.7223 92.3059 66.8516C92.6274 66.9808 92.9837 67.0455 93.3748 67.0455C93.8123 67.0455 94.2001 66.9692 94.5382 66.8168C94.8762 66.6643 95.1414 66.4522 95.3336 66.1804C95.5259 65.9086 95.622 65.5938 95.622 65.2358C95.622 64.8613 95.5292 64.5315 95.3436 64.2464C95.158 63.9581 94.8862 63.7327 94.5282 63.5703C94.1703 63.4079 93.7328 63.3267 93.2157 63.3267H92.4004V62.233H93.2157C93.6201 62.233 93.9747 62.16 94.2797 62.0142C94.5879 61.8684 94.8282 61.6629 95.0005 61.3977C95.1762 61.1326 95.264 60.821 95.264 60.4631C95.264 60.1184 95.1878 59.8184 95.0353 59.5632C94.8829 59.308 94.6674 59.1091 94.389 58.9666C94.1139 58.8241 93.7891 58.7528 93.4146 58.7528C93.0633 58.7528 92.7318 58.8175 92.4203 58.9467C92.112 59.0727 91.8601 59.2566 91.6646 59.4986C91.469 59.7372 91.363 60.0256 91.3464 60.3636H90.1532C90.1731 59.83 90.3339 59.3627 90.6355 58.9616C90.9371 58.5573 91.3315 58.2424 91.8187 58.017C92.3092 57.7917 92.8478 57.679 93.4345 57.679C94.0642 57.679 94.6045 57.8066 95.0552 58.0618C95.506 58.3137 95.8523 58.6468 96.0943 59.0611C96.3362 59.4754 96.4572 59.9228 96.4572 60.4034C96.4572 60.9768 96.3064 61.4657 96.0048 61.87C95.7065 62.2744 95.3005 62.5545 94.7868 62.7102V62.7898C95.4297 62.8958 95.9319 63.1693 96.2931 63.6101C96.6544 64.0476 96.835 64.5895 96.835 65.2358C96.835 65.7893 96.6842 66.2865 96.3826 66.7273C96.0843 67.1648 95.6767 67.5095 95.1596 67.7614C94.6426 68.0133 94.0543 68.1392 93.3947 68.1392Z" fill="#333333"/>
</g>
<g filter="url(#filter1_i_11695_104646)">
<rect width="160" height="40" transform="translate(131.5 43.5)" fill="white"/>
<path d="M144.733 57.8182H146.205L149.665 66.2699H149.784L153.244 57.8182H154.716V68H153.562V60.2642H153.463L150.281 68H149.168L145.986 60.2642H145.886V68H144.733V57.8182ZM160.131 68.1591C159.442 68.1591 158.837 67.995 158.317 67.6669C157.8 67.3388 157.395 66.8797 157.104 66.2898C156.815 65.6998 156.671 65.0104 156.671 64.2216C156.671 63.4261 156.815 62.7318 157.104 62.1385C157.395 61.5452 157.8 61.0845 158.317 60.7564C158.837 60.4283 159.442 60.2642 160.131 60.2642C160.821 60.2642 161.424 60.4283 161.941 60.7564C162.461 61.0845 162.866 61.5452 163.154 62.1385C163.446 62.7318 163.591 63.4261 163.591 64.2216C163.591 65.0104 163.446 65.6998 163.154 66.2898C162.866 66.8797 162.461 67.3388 161.941 67.6669C161.424 67.995 160.821 68.1591 160.131 68.1591ZM160.131 67.1051C160.655 67.1051 161.086 66.9709 161.424 66.7024C161.762 66.4339 162.012 66.081 162.175 65.6435C162.337 65.206 162.418 64.732 162.418 64.2216C162.418 63.7112 162.337 63.2356 162.175 62.7947C162.012 62.3539 161.762 61.9976 161.424 61.7259C161.086 61.4541 160.655 61.3182 160.131 61.3182C159.608 61.3182 159.177 61.4541 158.839 61.7259C158.501 61.9976 158.25 62.3539 158.088 62.7947C157.925 63.2356 157.844 63.7112 157.844 64.2216C157.844 64.732 157.925 65.206 158.088 65.6435C158.25 66.081 158.501 66.4339 158.839 66.7024C159.177 66.9709 159.608 67.1051 160.131 67.1051ZM166.556 63.4062V68H165.382V60.3636H166.516V61.5568H166.615C166.794 61.169 167.066 60.8575 167.431 60.6222C167.795 60.3835 168.266 60.2642 168.843 60.2642C169.36 60.2642 169.812 60.3703 170.2 60.5824C170.588 60.7912 170.889 61.1094 171.105 61.5369C171.32 61.9612 171.428 62.4981 171.428 63.1477V68H170.255V63.2273C170.255 62.6274 170.099 62.16 169.787 61.8253C169.476 61.4872 169.048 61.3182 168.505 61.3182C168.13 61.3182 167.795 61.3994 167.5 61.5618C167.209 61.7242 166.978 61.9612 166.809 62.2727C166.64 62.5843 166.556 62.9621 166.556 63.4062ZM176.455 68.1591C175.819 68.1591 175.257 67.9983 174.77 67.6768C174.283 67.352 173.902 66.8946 173.627 66.3047C173.352 65.7114 173.214 65.0104 173.214 64.2017C173.214 63.3996 173.352 62.7036 173.627 62.1136C173.902 61.5237 174.285 61.0679 174.775 60.7464C175.266 60.425 175.832 60.2642 176.475 60.2642C176.972 60.2642 177.365 60.3471 177.654 60.5128C177.945 60.6752 178.167 60.8608 178.32 61.0696C178.476 61.2751 178.597 61.4441 178.683 61.5767H178.782V57.8182H179.955V68H178.822V66.8267H178.683C178.597 66.9659 178.474 67.1416 178.315 67.3537C178.156 67.5625 177.929 67.7498 177.634 67.9155C177.339 68.0779 176.946 68.1591 176.455 68.1591ZM176.615 67.1051C177.085 67.1051 177.483 66.9825 177.808 66.7372C178.133 66.4886 178.379 66.1456 178.548 65.7081C178.718 65.2673 178.802 64.7585 178.802 64.1818C178.802 63.6117 178.719 63.1129 178.553 62.6854C178.388 62.2545 178.142 61.9197 177.818 61.6811C177.493 61.4392 177.092 61.3182 176.615 61.3182C176.117 61.3182 175.703 61.4458 175.372 61.701C175.044 61.9529 174.797 62.2959 174.631 62.7301C174.468 63.161 174.387 63.6449 174.387 64.1818C174.387 64.7254 174.47 65.2192 174.636 65.6634C174.805 66.1042 175.053 66.4555 175.382 66.7173C175.713 66.9759 176.124 67.1051 176.615 67.1051ZM184.514 68.179C184.03 68.179 183.591 68.0878 183.197 67.9055C182.802 67.7199 182.489 67.4531 182.257 67.1051C182.025 66.7538 181.909 66.3295 181.909 65.8324C181.909 65.3949 181.995 65.0402 182.168 64.7685C182.34 64.4934 182.57 64.2779 182.859 64.1222C183.147 63.9664 183.465 63.8504 183.813 63.7741C184.165 63.6946 184.518 63.6316 184.872 63.5852C185.336 63.5256 185.713 63.4808 186.001 63.451C186.293 63.4179 186.505 63.3632 186.637 63.2869C186.773 63.2107 186.841 63.0781 186.841 62.8892V62.8494C186.841 62.3589 186.707 61.9777 186.438 61.706C186.173 61.4342 185.771 61.2983 185.23 61.2983C184.67 61.2983 184.231 61.4209 183.913 61.6662C183.595 61.9115 183.371 62.1733 183.242 62.4517L182.128 62.054C182.327 61.59 182.592 61.2287 182.923 60.9702C183.258 60.7083 183.623 60.526 184.017 60.4233C184.415 60.3172 184.806 60.2642 185.191 60.2642C185.436 60.2642 185.718 60.294 186.036 60.3537C186.357 60.41 186.667 60.5277 186.965 60.7067C187.267 60.8857 187.517 61.1558 187.716 61.517C187.915 61.8783 188.014 62.3622 188.014 62.9688V68H186.841V66.9659H186.781C186.702 67.1316 186.569 67.3089 186.384 67.4979C186.198 67.6868 185.951 67.8475 185.643 67.9801C185.335 68.1127 184.959 68.179 184.514 68.179ZM184.693 67.125C185.157 67.125 185.548 67.0339 185.867 66.8516C186.188 66.6693 186.43 66.4339 186.593 66.1456C186.758 65.8572 186.841 65.554 186.841 65.2358V64.1619C186.791 64.2216 186.682 64.2763 186.513 64.326C186.347 64.3724 186.155 64.4138 185.936 64.4503C185.721 64.4834 185.51 64.5133 185.305 64.5398C185.103 64.563 184.939 64.5829 184.813 64.5994C184.508 64.6392 184.223 64.7038 183.958 64.7933C183.696 64.8795 183.484 65.0104 183.321 65.1861C183.162 65.3584 183.083 65.5937 183.083 65.892C183.083 66.2997 183.233 66.608 183.535 66.8168C183.84 67.0223 184.226 67.125 184.693 67.125ZM190.638 70.8636C190.439 70.8636 190.262 70.8471 190.106 70.8139C189.95 70.7841 189.843 70.7543 189.783 70.7244L190.081 69.6903C190.366 69.7633 190.618 69.7898 190.837 69.7699C191.056 69.75 191.25 69.6522 191.419 69.4766C191.591 69.3042 191.748 69.0241 191.891 68.6364L192.11 68.0398L189.286 60.3636H190.559L192.667 66.4489H192.746L194.854 60.3636H196.127L192.885 69.1136C192.739 69.508 192.559 69.8345 192.343 70.093C192.128 70.3549 191.878 70.5488 191.593 70.6747C191.311 70.8007 190.993 70.8636 190.638 70.8636ZM202.19 68H200.897L204.636 57.8182H205.908L209.647 68H208.354L205.312 59.429H205.232L202.19 68ZM202.667 64.0227H207.877V65.1165H202.667V64.0227ZM211.074 70.8636V60.3636H212.207V61.5767H212.347C212.433 61.4441 212.552 61.2751 212.705 61.0696C212.86 60.8608 213.082 60.6752 213.371 60.5128C213.662 60.3471 214.057 60.2642 214.554 60.2642C215.197 60.2642 215.764 60.425 216.254 60.7464C216.745 61.0679 217.128 61.5237 217.403 62.1136C217.678 62.7036 217.815 63.3996 217.815 64.2017C217.815 65.0104 217.678 65.7114 217.403 66.3047C217.128 66.8946 216.746 67.352 216.259 67.6768C215.772 67.9983 215.21 68.1591 214.574 68.1591C214.083 68.1591 213.691 68.0779 213.396 67.9155C213.101 67.7498 212.874 67.5625 212.714 67.3537C212.555 67.1416 212.433 66.9659 212.347 66.8267H212.247V70.8636H211.074ZM212.227 64.1818C212.227 64.7585 212.312 65.2673 212.481 65.7081C212.65 66.1456 212.897 66.4886 213.222 66.7372C213.546 66.9825 213.944 67.1051 214.415 67.1051C214.905 67.1051 215.315 66.9759 215.643 66.7173C215.974 66.4555 216.223 66.1042 216.388 65.6634C216.558 65.2192 216.642 64.7254 216.642 64.1818C216.642 63.6449 216.559 63.161 216.393 62.7301C216.231 62.2959 215.984 61.9529 215.653 61.701C215.325 61.4458 214.912 61.3182 214.415 61.3182C213.938 61.3182 213.536 61.4392 213.212 61.6811C212.887 61.9197 212.642 62.2545 212.476 62.6854C212.31 63.1129 212.227 63.6117 212.227 64.1818ZM219.605 68V60.3636H220.739V61.517H220.818C220.957 61.1392 221.209 60.8326 221.574 60.5973C221.938 60.362 222.349 60.2443 222.807 60.2443C222.893 60.2443 223.001 60.246 223.13 60.2493C223.259 60.2526 223.357 60.2576 223.423 60.2642V61.4574C223.384 61.4474 223.292 61.4325 223.15 61.4126C223.011 61.3894 222.863 61.3778 222.707 61.3778C222.336 61.3778 222.005 61.4557 221.713 61.6115C221.425 61.764 221.196 61.9761 221.027 62.2479C220.861 62.5163 220.778 62.8229 220.778 63.1676V68H219.605ZM224.814 68V60.3636H225.987V68H224.814ZM225.411 59.0909C225.182 59.0909 224.985 59.013 224.819 58.8572C224.657 58.7015 224.575 58.5142 224.575 58.2955C224.575 58.0767 224.657 57.8894 224.819 57.7337C224.985 57.5779 225.182 57.5 225.411 57.5C225.639 57.5 225.835 57.5779 225.997 57.7337C226.163 57.8894 226.246 58.0767 226.246 58.2955C226.246 58.5142 226.163 58.7015 225.997 58.8572C225.835 59.013 225.639 59.0909 225.411 59.0909ZM229.31 57.8182V68H228.136V57.8182H229.31ZM238.956 57.8182V68H237.723V59.1108H237.663L235.177 60.7614V59.5085L237.723 57.8182H238.956ZM245.324 68.1392C244.668 68.1392 244.083 68.0265 243.569 67.8011C243.059 67.5758 242.653 67.2625 242.351 66.8615C242.053 66.4571 241.891 65.9882 241.864 65.4545H243.117C243.144 65.7827 243.256 66.0661 243.455 66.3047C243.654 66.54 243.914 66.7223 244.236 66.8516C244.557 66.9808 244.913 67.0455 245.305 67.0455C245.742 67.0455 246.13 66.9692 246.468 66.8168C246.806 66.6643 247.071 66.4522 247.263 66.1804C247.456 65.9086 247.552 65.5938 247.552 65.2358C247.552 64.8613 247.459 64.5315 247.273 64.2464C247.088 63.9581 246.816 63.7327 246.458 63.5703C246.1 63.4079 245.662 63.3267 245.145 63.3267H244.33V62.233H245.145C245.55 62.233 245.904 62.16 246.209 62.0142C246.518 61.8684 246.758 61.6629 246.93 61.3977C247.106 61.1326 247.194 60.821 247.194 60.4631C247.194 60.1184 247.117 59.8184 246.965 59.5632C246.813 59.308 246.597 59.1091 246.319 58.9666C246.044 58.8241 245.719 58.7528 245.344 58.7528C244.993 58.7528 244.662 58.8175 244.35 58.9467C244.042 59.0727 243.79 59.2566 243.594 59.4986C243.399 59.7372 243.293 60.0256 243.276 60.3636H242.083C242.103 59.83 242.264 59.3627 242.565 58.9616C242.867 58.5573 243.261 58.2424 243.748 58.017C244.239 57.7917 244.778 57.679 245.364 57.679C245.994 57.679 246.534 57.8066 246.985 58.0618C247.436 58.3137 247.782 58.6468 248.024 59.0611C248.266 59.4754 248.387 59.9228 248.387 60.4034C248.387 60.9768 248.236 61.4657 247.934 61.87C247.636 62.2744 247.23 62.5545 246.716 62.7102V62.7898C247.359 62.8958 247.862 63.1693 248.223 63.6101C248.584 64.0476 248.765 64.5895 248.765 65.2358C248.765 65.7893 248.614 66.2865 248.312 66.7273C248.014 67.1648 247.606 67.5095 247.089 67.7614C246.572 68.0133 245.984 68.1392 245.324 68.1392ZM254.139 60.3636V61.358H250.182V60.3636H254.139ZM251.335 58.5341H252.508V65.8125C252.508 66.1439 252.556 66.3925 252.653 66.5582C252.752 66.7206 252.878 66.83 253.03 66.8864C253.186 66.9394 253.35 66.9659 253.523 66.9659C253.652 66.9659 253.758 66.9593 253.841 66.946C253.924 66.9295 253.99 66.9162 254.04 66.9062L254.278 67.9602C254.199 67.9901 254.088 68.0199 253.945 68.0497C253.803 68.0829 253.622 68.0994 253.403 68.0994C253.072 68.0994 252.747 68.0282 252.429 67.8857C252.114 67.7431 251.852 67.526 251.643 67.2344C251.438 66.9427 251.335 66.5748 251.335 66.1307V58.5341ZM257.241 63.4062V68H256.068V57.8182H257.241V61.5568H257.341C257.52 61.1624 257.788 60.8492 258.146 60.6172C258.507 60.3819 258.988 60.2642 259.588 60.2642C260.108 60.2642 260.564 60.3686 260.955 60.5774C261.346 60.7829 261.649 61.0994 261.865 61.527C262.084 61.9512 262.193 62.4915 262.193 63.1477V68H261.02V63.2273C261.02 62.6207 260.862 62.1518 260.547 61.8203C260.236 61.4856 259.803 61.3182 259.25 61.3182C258.865 61.3182 258.521 61.3994 258.216 61.5618C257.914 61.7242 257.675 61.9612 257.5 62.2727C257.327 62.5843 257.241 62.9621 257.241 63.4062ZM269.132 68.0795C268.887 68.0795 268.676 67.9917 268.501 67.8161C268.325 67.6404 268.237 67.4299 268.237 67.1847C268.237 66.9394 268.325 66.7289 268.501 66.5533C268.676 66.3776 268.887 66.2898 269.132 66.2898C269.377 66.2898 269.588 66.3776 269.763 66.5533C269.939 66.7289 270.027 66.9394 270.027 67.1847C270.027 67.3471 269.986 67.4962 269.903 67.6321C269.823 67.768 269.715 67.8774 269.58 67.9602C269.447 68.0398 269.298 68.0795 269.132 68.0795ZM272.988 68.0795C272.742 68.0795 272.532 67.9917 272.356 67.8161C272.181 67.6404 272.093 67.4299 272.093 67.1847C272.093 66.9394 272.181 66.7289 272.356 66.5533C272.532 66.3776 272.742 66.2898 272.988 66.2898C273.233 66.2898 273.443 66.3776 273.619 66.5533C273.795 66.7289 273.882 66.9394 273.882 67.1847C273.882 67.3471 273.841 67.4962 273.758 67.6321C273.679 67.768 273.571 67.8774 273.435 67.9602C273.302 68.0398 273.153 68.0795 272.988 68.0795ZM276.843 68.0795C276.598 68.0795 276.387 67.9917 276.212 67.8161C276.036 67.6404 275.948 67.4299 275.948 67.1847C275.948 66.9394 276.036 66.7289 276.212 66.5533C276.387 66.3776 276.598 66.2898 276.843 66.2898C277.088 66.2898 277.299 66.3776 277.474 66.5533C277.65 66.7289 277.738 66.9394 277.738 67.1847C277.738 67.3471 277.696 67.4962 277.614 67.6321C277.534 67.768 277.426 67.8774 277.29 67.9602C277.158 68.0398 277.009 68.0795 276.843 68.0795Z" fill="#333333"/>
</g>
<rect width="283" height="40" transform="translate(8.5 83.5)" fill="white"/>
<g filter="url(#filter2_i_11695_104646)">
<rect width="123" height="40" transform="translate(8.5 83.5)" fill="white"/>
<path d="M21.554 108V107.105L24.9148 103.426C25.3092 102.995 25.634 102.621 25.8892 102.303C26.1444 101.981 26.3333 101.679 26.456 101.398C26.5819 101.113 26.6449 100.814 26.6449 100.503C26.6449 100.145 26.5587 99.835 26.3864 99.5732C26.2173 99.3113 25.9853 99.1091 25.6903 98.9666C25.3954 98.8241 25.0639 98.7528 24.696 98.7528C24.3049 98.7528 23.9635 98.834 23.6719 98.9964C23.3835 99.1555 23.1598 99.3793 23.0007 99.6676C22.8449 99.956 22.767 100.294 22.767 100.682H21.5938C21.5938 100.085 21.7313 99.5616 22.0064 99.1108C22.2815 98.66 22.656 98.3087 23.13 98.0568C23.6072 97.8049 24.1425 97.679 24.7358 97.679C25.3324 97.679 25.861 97.8049 26.3217 98.0568C26.7824 98.3087 27.1437 98.6484 27.4055 99.076C27.6674 99.5036 27.7983 99.9792 27.7983 100.503C27.7983 100.877 27.7304 101.244 27.5945 101.602C27.4619 101.956 27.2299 102.352 26.8984 102.79C26.5703 103.224 26.1146 103.754 25.5312 104.381L23.2443 106.827V106.906H27.9773V108H21.554ZM33.4112 108.139C32.9936 108.133 32.576 108.053 32.1584 107.901C31.7408 107.748 31.3596 107.491 31.0149 107.13C30.6702 106.765 30.3935 106.273 30.1847 105.653C29.9759 105.03 29.8714 104.248 29.8714 103.307C29.8714 102.405 29.956 101.607 30.125 100.911C30.294 100.211 30.5393 99.6229 30.8608 99.1456C31.1823 98.665 31.5701 98.3004 32.0241 98.0518C32.4815 97.8033 32.9969 97.679 33.5703 97.679C34.1404 97.679 34.6475 97.7933 35.0916 98.022C35.5391 98.2474 35.9036 98.5623 36.1854 98.9666C36.4671 99.371 36.6494 99.8366 36.7322 100.364H35.5192C35.4065 99.9062 35.1877 99.5268 34.8629 99.2251C34.5381 98.9235 34.1072 98.7727 33.5703 98.7727C32.7815 98.7727 32.16 99.1158 31.706 99.8018C31.2552 100.488 31.0282 101.451 31.0249 102.69H31.1044C31.29 102.409 31.5104 102.168 31.7656 101.969C32.0241 101.767 32.3092 101.612 32.6207 101.502C32.9323 101.393 33.2621 101.338 33.6101 101.338C34.1934 101.338 34.727 101.484 35.2109 101.776C35.6948 102.064 36.0826 102.463 36.3743 102.974C36.666 103.481 36.8118 104.062 36.8118 104.719C36.8118 105.348 36.6709 105.925 36.3892 106.449C36.1075 106.969 35.7114 107.384 35.201 107.692C34.6939 107.997 34.0973 108.146 33.4112 108.139ZM33.4112 107.045C33.8288 107.045 34.2034 106.941 34.5348 106.732C34.8696 106.523 35.133 106.243 35.3253 105.892C35.5208 105.541 35.6186 105.15 35.6186 104.719C35.6186 104.298 35.5241 103.915 35.3352 103.57C35.1496 103.222 34.8928 102.946 34.5646 102.74C34.2398 102.535 33.8686 102.432 33.451 102.432C33.1361 102.432 32.8428 102.495 32.571 102.621C32.2992 102.743 32.0606 102.912 31.8551 103.128C31.6529 103.343 31.4938 103.59 31.3778 103.869C31.2618 104.144 31.2038 104.434 31.2038 104.739C31.2038 105.143 31.2983 105.521 31.4872 105.872C31.6795 106.223 31.9413 106.507 32.2727 106.722C32.6075 106.938 32.987 107.045 33.4112 107.045ZM42.3862 97.3409L39.1049 109.531H38.0311L41.3123 97.3409H42.3862ZM47.0781 108.139C46.3291 108.139 45.6911 107.935 45.1641 107.528C44.6371 107.117 44.2344 106.522 43.956 105.743C43.6776 104.961 43.5384 104.016 43.5384 102.909C43.5384 101.809 43.6776 100.869 43.956 100.09C44.2377 99.308 44.642 98.7114 45.169 98.3004C45.6993 97.8861 46.3357 97.679 47.0781 97.679C47.8205 97.679 48.4553 97.8861 48.9822 98.3004C49.5125 98.7114 49.9169 99.308 50.1953 100.09C50.477 100.869 50.6179 101.809 50.6179 102.909C50.6179 104.016 50.4787 104.961 50.2003 105.743C49.9219 106.522 49.5192 107.117 48.9922 107.528C48.4652 107.935 47.8272 108.139 47.0781 108.139ZM47.0781 107.045C47.8205 107.045 48.3973 106.687 48.8082 105.972C49.2192 105.256 49.4247 104.235 49.4247 102.909C49.4247 102.027 49.3303 101.277 49.1413 100.657C48.9557 100.037 48.6873 99.5649 48.3359 99.2401C47.9879 98.9152 47.5687 98.7528 47.0781 98.7528C46.3423 98.7528 45.7673 99.1158 45.353 99.8416C44.9387 100.564 44.7315 101.587 44.7315 102.909C44.7315 103.791 44.8243 104.54 45.0099 105.156C45.1955 105.773 45.4624 106.242 45.8104 106.563C46.1617 106.885 46.5843 107.045 47.0781 107.045ZM52.5071 108V107.105L55.8679 103.426C56.2623 102.995 56.5871 102.621 56.8423 102.303C57.0975 101.981 57.2865 101.679 57.4091 101.398C57.535 101.113 57.598 100.814 57.598 100.503C57.598 100.145 57.5118 99.835 57.3395 99.5732C57.1705 99.3113 56.9384 99.1091 56.6435 98.9666C56.3485 98.8241 56.017 98.7528 55.6491 98.7528C55.258 98.7528 54.9167 98.834 54.625 98.9964C54.3366 99.1555 54.1129 99.3793 53.9538 99.6676C53.7981 99.956 53.7202 100.294 53.7202 100.682H52.5469C52.5469 100.085 52.6844 99.5616 52.9595 99.1108C53.2346 98.66 53.6091 98.3087 54.0831 98.0568C54.5604 97.8049 55.0956 97.679 55.6889 97.679C56.2855 97.679 56.8142 97.8049 57.2749 98.0568C57.7356 98.3087 58.0968 98.6484 58.3587 99.076C58.6205 99.5036 58.7514 99.9792 58.7514 100.503C58.7514 100.877 58.6835 101.244 58.5476 101.602C58.415 101.956 58.183 102.352 57.8516 102.79C57.5234 103.224 57.0677 103.754 56.4844 104.381L54.1974 106.827V106.906H58.9304V108H52.5071ZM64.603 97.3409L61.3217 109.531H60.2479L63.5291 97.3409H64.603ZM65.9739 108V107.105L69.3347 103.426C69.7291 102.995 70.0539 102.621 70.3091 102.303C70.5643 101.981 70.7533 101.679 70.8759 101.398C71.0018 101.113 71.0648 100.814 71.0648 100.503C71.0648 100.145 70.9786 99.835 70.8063 99.5732C70.6373 99.3113 70.4052 99.1091 70.1103 98.9666C69.8153 98.8241 69.4838 98.7528 69.1159 98.7528C68.7248 98.7528 68.3835 98.834 68.0918 98.9964C67.8034 99.1555 67.5797 99.3793 67.4206 99.6676C67.2649 99.956 67.187 100.294 67.187 100.682H66.0137C66.0137 100.085 66.1512 99.5616 66.4263 99.1108C66.7014 98.66 67.0759 98.3087 67.5499 98.0568C68.0272 97.8049 68.5624 97.679 69.1557 97.679C69.7523 97.679 70.281 97.8049 70.7417 98.0568C71.2024 98.3087 71.5636 98.6484 71.8255 99.076C72.0873 99.5036 72.2182 99.9792 72.2182 100.503C72.2182 100.877 72.1503 101.244 72.0144 101.602C71.8818 101.956 71.6498 102.352 71.3184 102.79C70.9902 103.224 70.5345 103.754 69.9512 104.381L67.6642 106.827V106.906H72.3972V108H65.9739ZM77.7715 108.139C77.0224 108.139 76.3844 107.935 75.8574 107.528C75.3304 107.117 74.9277 106.522 74.6493 105.743C74.3709 104.961 74.2317 104.016 74.2317 102.909C74.2317 101.809 74.3709 100.869 74.6493 100.09C74.931 99.308 75.3354 98.7114 75.8624 98.3004C76.3927 97.8861 77.0291 97.679 77.7715 97.679C78.5139 97.679 79.1486 97.8861 79.6756 98.3004C80.2059 98.7114 80.6103 99.308 80.8887 100.09C81.1704 100.869 81.3113 101.809 81.3113 102.909C81.3113 104.016 81.1721 104.961 80.8936 105.743C80.6152 106.522 80.2125 107.117 79.6855 107.528C79.1586 107.935 78.5205 108.139 77.7715 108.139ZM77.7715 107.045C78.5139 107.045 79.0906 106.687 79.5016 105.972C79.9126 105.256 80.1181 104.235 80.1181 102.909C80.1181 102.027 80.0236 101.277 79.8347 100.657C79.6491 100.037 79.3806 99.5649 79.0293 99.2401C78.6813 98.9152 78.262 98.7528 77.7715 98.7528C77.0357 98.7528 76.4606 99.1158 76.0463 99.8416C75.632 100.564 75.4249 101.587 75.4249 102.909C75.4249 103.791 75.5177 104.54 75.7033 105.156C75.8889 105.773 76.1557 106.242 76.5037 106.563C76.8551 106.885 77.2776 107.045 77.7715 107.045ZM83.2005 108V107.105L86.5613 103.426C86.9557 102.995 87.2805 102.621 87.5357 102.303C87.7909 101.981 87.9798 101.679 88.1025 101.398C88.2284 101.113 88.2914 100.814 88.2914 100.503C88.2914 100.145 88.2052 99.835 88.0328 99.5732C87.8638 99.3113 87.6318 99.1091 87.3368 98.9666C87.0418 98.8241 86.7104 98.7528 86.3425 98.7528C85.9514 98.7528 85.61 98.834 85.3184 98.9964C85.03 99.1555 84.8063 99.3793 84.6472 99.6676C84.4914 99.956 84.4135 100.294 84.4135 100.682H83.2402C83.2402 100.085 83.3778 99.5616 83.6529 99.1108C83.928 98.66 84.3025 98.3087 84.7765 98.0568C85.2537 97.8049 85.789 97.679 86.3823 97.679C86.9789 97.679 87.5075 97.8049 87.9682 98.0568C88.4289 98.3087 88.7902 98.6484 89.052 99.076C89.3139 99.5036 89.4448 99.9792 89.4448 100.503C89.4448 100.877 89.3768 101.244 89.2409 101.602C89.1084 101.956 88.8764 102.352 88.5449 102.79C88.2168 103.224 87.7611 103.754 87.1777 104.381L84.8908 106.827V106.906H89.6238V108H83.2005ZM95.1174 108.139C94.4611 108.139 93.8761 108.027 93.3624 107.801C92.852 107.576 92.446 107.263 92.1444 106.862C91.8461 106.457 91.6837 105.988 91.6571 105.455H92.91C92.9365 105.783 93.0492 106.066 93.248 106.305C93.4469 106.54 93.7071 106.722 94.0286 106.852C94.3501 106.981 94.7064 107.045 95.0975 107.045C95.535 107.045 95.9228 106.969 96.2608 106.817C96.5989 106.664 96.8641 106.452 97.0563 106.18C97.2485 105.909 97.3446 105.594 97.3446 105.236C97.3446 104.861 97.2518 104.531 97.0662 104.246C96.8806 103.958 96.6088 103.733 96.2509 103.57C95.8929 103.408 95.4554 103.327 94.9384 103.327H94.123V102.233H94.9384C95.3427 102.233 95.6974 102.16 96.0023 102.014C96.3105 101.868 96.5508 101.663 96.7232 101.398C96.8989 101.133 96.9867 100.821 96.9867 100.463C96.9867 100.118 96.9105 99.8184 96.758 99.5632C96.6055 99.308 96.3901 99.1091 96.1117 98.9666C95.8366 98.8241 95.5118 98.7528 95.1373 98.7528C94.7859 98.7528 94.4545 98.8175 94.1429 98.9467C93.8347 99.0727 93.5828 99.2566 93.3873 99.4986C93.1917 99.7372 93.0856 100.026 93.0691 100.364H91.8759C91.8958 99.83 92.0565 99.3627 92.3581 98.9616C92.6597 98.5573 93.0542 98.2424 93.5414 98.017C94.0319 97.7917 94.5705 97.679 95.1571 97.679C95.7869 97.679 96.3271 97.8066 96.7779 98.0618C97.2286 98.3137 97.575 98.6468 97.8169 99.0611C98.0589 99.4754 98.1799 99.9228 98.1799 100.403C98.1799 100.977 98.0291 101.466 97.7275 101.87C97.4292 102.274 97.0231 102.554 96.5094 102.71V102.79C97.1524 102.896 97.6545 103.169 98.0158 103.61C98.3771 104.048 98.5577 104.589 98.5577 105.236C98.5577 105.789 98.4069 106.286 98.1053 106.727C97.807 107.165 97.3993 107.509 96.8823 107.761C96.3652 108.013 95.7769 108.139 95.1174 108.139Z" fill="#333333"/>
</g>
<g filter="url(#filter3_i_11695_104646)">
<rect width="160" height="40" transform="translate(131.5 83.5)" fill="white"/>
<path d="M144.733 108V97.8182H150.838V98.9119H145.966V102.352H150.381V103.446H145.966V108H144.733ZM152.709 108V100.364H153.842V101.517H153.922C154.061 101.139 154.313 100.833 154.677 100.597C155.042 100.362 155.453 100.244 155.91 100.244C155.997 100.244 156.104 100.246 156.233 100.249C156.363 100.253 156.461 100.258 156.527 100.264V101.457C156.487 101.447 156.396 101.433 156.253 101.413C156.114 101.389 155.967 101.378 155.811 101.378C155.44 101.378 155.108 101.456 154.817 101.612C154.528 101.764 154.3 101.976 154.131 102.248C153.965 102.516 153.882 102.823 153.882 103.168V108H152.709ZM157.918 108V100.364H159.091V108H157.918ZM158.514 99.0909C158.286 99.0909 158.088 99.013 157.923 98.8572C157.76 98.7015 157.679 98.5142 157.679 98.2955C157.679 98.0767 157.76 97.8894 157.923 97.7337C158.088 97.5779 158.286 97.5 158.514 97.5C158.743 97.5 158.938 97.5779 159.101 97.7337C159.267 97.8894 159.349 98.0767 159.349 98.2955C159.349 98.5142 159.267 98.7015 159.101 98.8572C158.938 99.013 158.743 99.0909 158.514 99.0909ZM164.123 108.159C163.487 108.159 162.925 107.998 162.438 107.677C161.951 107.352 161.57 106.895 161.295 106.305C161.019 105.711 160.882 105.01 160.882 104.202C160.882 103.4 161.019 102.704 161.295 102.114C161.57 101.524 161.952 101.068 162.443 100.746C162.934 100.425 163.5 100.264 164.143 100.264C164.64 100.264 165.033 100.347 165.322 100.513C165.613 100.675 165.835 100.861 165.988 101.07C166.144 101.275 166.265 101.444 166.351 101.577H166.45V97.8182H167.623V108H166.49V106.827H166.351C166.265 106.966 166.142 107.142 165.983 107.354C165.824 107.562 165.597 107.75 165.302 107.915C165.007 108.078 164.614 108.159 164.123 108.159ZM164.282 107.105C164.753 107.105 165.151 106.982 165.476 106.737C165.8 106.489 166.047 106.146 166.216 105.708C166.385 105.267 166.47 104.759 166.47 104.182C166.47 103.612 166.387 103.113 166.221 102.685C166.056 102.254 165.81 101.92 165.486 101.681C165.161 101.439 164.76 101.318 164.282 101.318C163.785 101.318 163.371 101.446 163.04 101.701C162.711 101.953 162.465 102.296 162.299 102.73C162.136 103.161 162.055 103.645 162.055 104.182C162.055 104.725 162.138 105.219 162.304 105.663C162.473 106.104 162.721 106.455 163.05 106.717C163.381 106.976 163.792 107.105 164.282 107.105ZM172.182 108.179C171.698 108.179 171.259 108.088 170.865 107.906C170.47 107.72 170.157 107.453 169.925 107.105C169.693 106.754 169.577 106.33 169.577 105.832C169.577 105.395 169.663 105.04 169.836 104.768C170.008 104.493 170.238 104.278 170.527 104.122C170.815 103.966 171.133 103.85 171.481 103.774C171.833 103.695 172.186 103.632 172.54 103.585C173.004 103.526 173.381 103.481 173.669 103.451C173.961 103.418 174.173 103.363 174.305 103.287C174.441 103.211 174.509 103.078 174.509 102.889V102.849C174.509 102.359 174.375 101.978 174.106 101.706C173.841 101.434 173.439 101.298 172.898 101.298C172.338 101.298 171.899 101.421 171.581 101.666C171.263 101.911 171.039 102.173 170.91 102.452L169.796 102.054C169.995 101.59 170.26 101.229 170.591 100.97C170.926 100.708 171.291 100.526 171.685 100.423C172.083 100.317 172.474 100.264 172.858 100.264C173.104 100.264 173.385 100.294 173.704 100.354C174.025 100.41 174.335 100.528 174.633 100.707C174.935 100.886 175.185 101.156 175.384 101.517C175.583 101.878 175.682 102.362 175.682 102.969V108H174.509V106.966H174.449C174.37 107.132 174.237 107.309 174.052 107.498C173.866 107.687 173.619 107.848 173.311 107.98C173.003 108.113 172.626 108.179 172.182 108.179ZM172.361 107.125C172.825 107.125 173.216 107.034 173.535 106.852C173.856 106.669 174.098 106.434 174.26 106.146C174.426 105.857 174.509 105.554 174.509 105.236V104.162C174.459 104.222 174.35 104.276 174.181 104.326C174.015 104.372 173.823 104.414 173.604 104.45C173.389 104.483 173.178 104.513 172.973 104.54C172.771 104.563 172.607 104.583 172.481 104.599C172.176 104.639 171.891 104.704 171.626 104.793C171.364 104.879 171.152 105.01 170.989 105.186C170.83 105.358 170.751 105.594 170.751 105.892C170.751 106.3 170.901 106.608 171.203 106.817C171.508 107.022 171.894 107.125 172.361 107.125ZM178.306 110.864C178.107 110.864 177.93 110.847 177.774 110.814C177.618 110.784 177.511 110.754 177.451 110.724L177.749 109.69C178.034 109.763 178.286 109.79 178.505 109.77C178.724 109.75 178.918 109.652 179.087 109.477C179.259 109.304 179.416 109.024 179.559 108.636L179.778 108.04L176.954 100.364H178.227L180.335 106.449H180.414L182.522 100.364H183.795L180.553 109.114C180.407 109.508 180.227 109.835 180.011 110.093C179.796 110.355 179.546 110.549 179.261 110.675C178.979 110.801 178.661 110.864 178.306 110.864ZM189.44 97.8182H190.912L194.372 106.27H194.491L197.951 97.8182H199.423V108H198.27V100.264H198.17L194.988 108H193.875L190.693 100.264H190.593V108H189.44V97.8182ZM203.983 108.179C203.499 108.179 203.06 108.088 202.666 107.906C202.271 107.72 201.958 107.453 201.726 107.105C201.494 106.754 201.378 106.33 201.378 105.832C201.378 105.395 201.464 105.04 201.637 104.768C201.809 104.493 202.039 104.278 202.328 104.122C202.616 103.966 202.934 103.85 203.282 103.774C203.633 103.695 203.986 103.632 204.341 103.585C204.805 103.526 205.181 103.481 205.47 103.451C205.761 103.418 205.973 103.363 206.106 103.287C206.242 103.211 206.31 103.078 206.31 102.889V102.849C206.31 102.359 206.176 101.978 205.907 101.706C205.642 101.434 205.239 101.298 204.699 101.298C204.139 101.298 203.7 101.421 203.382 101.666C203.063 101.911 202.84 102.173 202.71 102.452L201.597 102.054C201.796 101.59 202.061 101.229 202.392 100.97C202.727 100.708 203.092 100.526 203.486 100.423C203.884 100.317 204.275 100.264 204.659 100.264C204.905 100.264 205.186 100.294 205.504 100.354C205.826 100.41 206.136 100.528 206.434 100.707C206.736 100.886 206.986 101.156 207.185 101.517C207.384 101.878 207.483 102.362 207.483 102.969V108H206.31V106.966H206.25C206.171 107.132 206.038 107.309 205.852 107.498C205.667 107.687 205.42 107.848 205.112 107.98C204.803 108.113 204.427 108.179 203.983 108.179ZM204.162 107.125C204.626 107.125 205.017 107.034 205.335 106.852C205.657 106.669 205.899 106.434 206.061 106.146C206.227 105.857 206.31 105.554 206.31 105.236V104.162C206.26 104.222 206.151 104.276 205.982 104.326C205.816 104.372 205.624 104.414 205.405 104.45C205.19 104.483 204.979 104.513 204.774 104.54C204.571 104.563 204.407 104.583 204.281 104.599C203.977 104.639 203.691 104.704 203.426 104.793C203.164 104.879 202.952 105.01 202.79 105.186C202.631 105.358 202.551 105.594 202.551 105.892C202.551 106.3 202.702 106.608 203.004 106.817C203.309 107.022 203.695 107.125 204.162 107.125ZM209.625 108V100.364H210.758V101.517H210.838C210.977 101.139 211.229 100.833 211.593 100.597C211.958 100.362 212.369 100.244 212.826 100.244C212.913 100.244 213.02 100.246 213.15 100.249C213.279 100.253 213.377 100.258 213.443 100.264V101.457C213.403 101.447 213.312 101.433 213.169 101.413C213.03 101.389 212.883 101.378 212.727 101.378C212.356 101.378 212.024 101.456 211.733 101.612C211.444 101.764 211.216 101.976 211.047 102.248C210.881 102.516 210.798 102.823 210.798 103.168V108H209.625ZM217.703 108.159C216.988 108.159 216.371 107.99 215.854 107.652C215.337 107.314 214.939 106.848 214.661 106.255C214.382 105.662 214.243 104.984 214.243 104.222C214.243 103.446 214.386 102.762 214.671 102.168C214.959 101.572 215.36 101.106 215.874 100.771C216.391 100.433 216.994 100.264 217.684 100.264C218.221 100.264 218.704 100.364 219.135 100.562C219.566 100.761 219.919 101.04 220.194 101.398C220.469 101.756 220.64 102.173 220.706 102.651H219.533C219.444 102.303 219.245 101.994 218.936 101.726C218.632 101.454 218.221 101.318 217.703 101.318C217.246 101.318 216.845 101.437 216.5 101.676C216.159 101.911 215.892 102.245 215.7 102.675C215.511 103.103 215.417 103.605 215.417 104.182C215.417 104.772 215.509 105.286 215.695 105.723C215.884 106.161 216.149 106.5 216.49 106.742C216.835 106.984 217.239 107.105 217.703 107.105C218.008 107.105 218.285 107.052 218.534 106.946C218.782 106.84 218.993 106.688 219.165 106.489C219.337 106.29 219.46 106.051 219.533 105.773H220.706C220.64 106.223 220.476 106.629 220.214 106.991C219.956 107.349 219.613 107.634 219.185 107.846C218.761 108.055 218.267 108.159 217.703 108.159ZM223.595 103.406V108H222.422V97.8182H223.595V101.557H223.694C223.873 101.162 224.142 100.849 224.5 100.617C224.861 100.382 225.342 100.264 225.941 100.264C226.462 100.264 226.917 100.369 227.309 100.577C227.7 100.783 228.003 101.099 228.218 101.527C228.437 101.951 228.547 102.491 228.547 103.148V108H227.373V103.227C227.373 102.621 227.216 102.152 226.901 101.82C226.589 101.486 226.157 101.318 225.603 101.318C225.219 101.318 224.874 101.399 224.569 101.562C224.268 101.724 224.029 101.961 223.853 102.273C223.681 102.584 223.595 102.962 223.595 103.406ZM234.372 105.912V104.898L238.846 97.8182H239.582V99.3892H239.085L235.704 104.739V104.818H241.73V105.912H234.372ZM239.165 108V105.604V105.131V97.8182H240.338V108H239.165ZM246.934 100.364V101.358H242.977V100.364H246.934ZM244.13 98.5341H245.303V105.812C245.303 106.144 245.351 106.393 245.447 106.558C245.547 106.721 245.673 106.83 245.825 106.886C245.981 106.939 246.145 106.966 246.317 106.966C246.447 106.966 246.553 106.959 246.636 106.946C246.719 106.929 246.785 106.916 246.835 106.906L247.073 107.96C246.994 107.99 246.883 108.02 246.74 108.05C246.598 108.083 246.417 108.099 246.198 108.099C245.867 108.099 245.542 108.028 245.224 107.886C244.909 107.743 244.647 107.526 244.438 107.234C244.233 106.943 244.13 106.575 244.13 106.131V98.5341ZM250.036 103.406V108H248.863V97.8182H250.036V101.557H250.136C250.315 101.162 250.583 100.849 250.941 100.617C251.302 100.382 251.783 100.264 252.383 100.264C252.903 100.264 253.359 100.369 253.75 100.577C254.141 100.783 254.444 101.099 254.66 101.527C254.879 101.951 254.988 102.491 254.988 103.148V108H253.815V103.227C253.815 102.621 253.657 102.152 253.342 101.82C253.031 101.486 252.598 101.318 252.045 101.318C251.66 101.318 251.316 101.399 251.011 101.562C250.709 101.724 250.47 101.961 250.295 102.273C250.122 102.584 250.036 102.962 250.036 103.406ZM261.052 108V107.105L264.413 103.426C264.807 102.995 265.132 102.621 265.387 102.303C265.642 101.981 265.831 101.679 265.954 101.398C266.08 101.113 266.143 100.814 266.143 100.503C266.143 100.145 266.057 99.835 265.884 99.5732C265.715 99.3113 265.483 99.1091 265.188 98.9666C264.893 98.8241 264.562 98.7528 264.194 98.7528C263.803 98.7528 263.462 98.834 263.17 98.9964C262.882 99.1555 262.658 99.3793 262.499 99.6676C262.343 99.956 262.265 100.294 262.265 100.682H261.092C261.092 100.085 261.229 99.5616 261.504 99.1108C261.78 98.66 262.154 98.3087 262.628 98.0568C263.105 97.8049 263.641 97.679 264.234 97.679C264.83 97.679 265.359 97.8049 265.82 98.0568C266.28 98.3087 266.642 98.6484 266.904 99.076C267.165 99.5036 267.296 99.9792 267.296 100.503C267.296 100.877 267.228 101.244 267.093 101.602C266.96 101.956 266.728 102.352 266.396 102.79C266.068 103.224 265.613 103.754 265.029 104.381L262.742 106.827V106.906H267.475V108H261.052ZM270.404 108.08C270.158 108.08 269.948 107.992 269.772 107.816C269.597 107.64 269.509 107.43 269.509 107.185C269.509 106.939 269.597 106.729 269.772 106.553C269.948 106.378 270.158 106.29 270.404 106.29C270.649 106.29 270.859 106.378 271.035 106.553C271.211 106.729 271.298 106.939 271.298 107.185C271.298 107.347 271.257 107.496 271.174 107.632C271.095 107.768 270.987 107.877 270.851 107.96C270.718 108.04 270.569 108.08 270.404 108.08ZM274.259 108.08C274.014 108.08 273.803 107.992 273.628 107.816C273.452 107.64 273.364 107.43 273.364 107.185C273.364 106.939 273.452 106.729 273.628 106.553C273.803 106.378 274.014 106.29 274.259 106.29C274.504 106.29 274.715 106.378 274.89 106.553C275.066 106.729 275.154 106.939 275.154 107.185C275.154 107.347 275.113 107.496 275.03 107.632C274.95 107.768 274.842 107.877 274.706 107.96C274.574 108.04 274.425 108.08 274.259 108.08ZM278.115 108.08C277.869 108.08 277.659 107.992 277.483 107.816C277.307 107.64 277.22 107.43 277.22 107.185C277.22 106.939 277.307 106.729 277.483 106.553C277.659 106.378 277.869 106.29 278.115 106.29C278.36 106.29 278.57 106.378 278.746 106.553C278.922 106.729 279.009 106.939 279.009 107.185C279.009 107.347 278.968 107.496 278.885 107.632C278.806 107.768 278.698 107.877 278.562 107.96C278.429 108.04 278.28 108.08 278.115 108.08Z" fill="#333333"/>
</g>
</g>
<defs>
<filter id="filter0_i_11695_104646" x="8.5" y="43.5" width="123" height="40" filterUnits="userSpaceOnUse" color-interpolation-filters="sRGB">
<feFlood flood-opacity="0" result="BackgroundImageFix"/>
<feBlend mode="normal" in="SourceGraphic" in2="BackgroundImageFix" result="shape"/>
<feColorMatrix in="SourceAlpha" type="matrix" values="0 0 0 0 0 0 0 0 0 0 0 0 0 0 0 0 0 0 127 0" result="hardAlpha"/>
<feOffset dy="-1"/>
<feComposite in2="hardAlpha" operator="arithmetic" k2="-1" k3="1"/>
<feColorMatrix type="matrix" values="0 0 0 0 0.933333 0 0 0 0 0.933333 0 0 0 0 0.933333 0 0 0 1 0"/>
<feBlend mode="normal" in2="shape" result="effect1_innerShadow_11695_104646"/>
</filter>
<filter id="filter1_i_11695_104646" x="131.5" y="43.5" width="160" height="40" filterUnits="userSpaceOnUse" color-interpolation-filters="sRGB">
<feFlood flood-opacity="0" result="BackgroundImageFix"/>
<feBlend mode="normal" in="SourceGraphic" in2="BackgroundImageFix" result="shape"/>
<feColorMatrix in="SourceAlpha" type="matrix" values="0 0 0 0 0 0 0 0 0 0 0 0 0 0 0 0 0 0 127 0" result="hardAlpha"/>
<feOffset dy="-1"/>
<feComposite in2="hardAlpha" operator="arithmetic" k2="-1" k3="1"/>
<feColorMatrix type="matrix" values="0 0 0 0 0.933333 0 0 0 0 0.933333 0 0 0 0 0.933333 0 0 0 1 0"/>
<feBlend mode="normal" in2="shape" result="effect1_innerShadow_11695_104646"/>
</filter>
<filter id="filter2_i_11695_104646" x="8.5" y="83.5" width="123" height="40" filterUnits="userSpaceOnUse" color-interpolation-filters="sRGB">
<feFlood flood-opacity="0" result="BackgroundImageFix"/>
<feBlend mode="normal" in="SourceGraphic" in2="BackgroundImageFix" result="shape"/>
<feColorMatrix in="SourceAlpha" type="matrix" values="0 0 0 0 0 0 0 0 0 0 0 0 0 0 0 0 0 0 127 0" result="hardAlpha"/>
<feOffset dy="-1"/>
<feComposite in2="hardAlpha" operator="arithmetic" k2="-1" k3="1"/>
<feColorMatrix type="matrix" values="0 0 0 0 0.933333 0 0 0 0 0.933333 0 0 0 0 0.933333 0 0 0 1 0"/>
<feBlend mode="normal" in2="shape" result="effect1_innerShadow_11695_104646"/>
</filter>
<filter id="filter3_i_11695_104646" x="131.5" y="83.5" width="160" height="40" filterUnits="userSpaceOnUse" color-interpolation-filters="sRGB">
<feFlood flood-opacity="0" result="BackgroundImageFix"/>
<feBlend mode="normal" in="SourceGraphic" in2="BackgroundImageFix" result="shape"/>
<feColorMatrix in="SourceAlpha" type="matrix" values="0 0 0 0 0 0 0 0 0 0 0 0 0 0 0 0 0 0 127 0" result="hardAlpha"/>
<feOffset dy="-1"/>
<feComposite in2="hardAlpha" operator="arithmetic" k2="-1" k3="1"/>
<feColorMatrix type="matrix" values="0 0 0 0 0.933333 0 0 0 0 0.933333 0 0 0 0 0.933333 0 0 0 1 0"/>
<feBlend mode="normal" in2="shape" result="effect1_innerShadow_11695_104646"/>
</filter>
<clipPath id="clip0_11695_104646">
<rect width="283" height="115" fill="white" transform="translate(8.5 8.5)"/>
</clipPath>
</defs>
</svg>
