<svg width="672" height="210" viewBox="0 0 672 210" fill="none" xmlns="http://www.w3.org/2000/svg">
<rect width="672" height="210" fill="#F6F6F6"/>
<path d="M192.004 42V31.8182H193.849V40.4538H198.333V42H192.004ZM202.052 42.1541C201.568 42.1541 201.132 42.0679 200.744 41.8956C200.36 41.7199 200.055 41.4614 199.83 41.12C199.607 40.7786 199.496 40.3577 199.496 39.8572C199.496 39.4264 199.576 39.0701 199.735 38.7884C199.894 38.5066 200.111 38.2812 200.386 38.1122C200.661 37.9432 200.971 37.8156 201.316 37.7294C201.664 37.6399 202.024 37.5753 202.395 37.5355C202.842 37.4891 203.205 37.4477 203.484 37.4112C203.762 37.3714 203.964 37.3118 204.09 37.2322C204.219 37.1494 204.284 37.0218 204.284 36.8494V36.8196C204.284 36.4451 204.173 36.1551 203.951 35.9496C203.729 35.7441 203.409 35.6413 202.991 35.6413C202.551 35.6413 202.201 35.7375 201.942 35.9297C201.687 36.1219 201.515 36.349 201.425 36.6108L199.745 36.3722C199.878 35.9081 200.096 35.5204 200.401 35.2088C200.706 34.8939 201.079 34.6586 201.52 34.5028C201.961 34.3438 202.448 34.2642 202.982 34.2642C203.349 34.2642 203.716 34.3073 204.08 34.3935C204.445 34.4796 204.778 34.6222 205.08 34.821C205.381 35.0166 205.623 35.2834 205.805 35.6214C205.991 35.9595 206.084 36.3821 206.084 36.8892V42H204.354V40.951H204.294C204.185 41.1631 204.031 41.362 203.832 41.5476C203.636 41.7299 203.389 41.8774 203.091 41.9901C202.796 42.0994 202.45 42.1541 202.052 42.1541ZM202.519 40.8317C202.88 40.8317 203.194 40.7604 203.459 40.6179C203.724 40.4721 203.928 40.2798 204.07 40.0412C204.216 39.8026 204.289 39.5424 204.289 39.2607V38.3608C204.233 38.4072 204.137 38.4503 204.001 38.4901C203.868 38.5298 203.719 38.5646 203.553 38.5945C203.388 38.6243 203.223 38.6508 203.061 38.674C202.899 38.6972 202.758 38.7171 202.638 38.7337C202.37 38.7701 202.13 38.8298 201.918 38.9126C201.705 38.9955 201.538 39.1115 201.415 39.2607C201.293 39.4065 201.232 39.5954 201.232 39.8274C201.232 40.1589 201.353 40.4091 201.594 40.5781C201.836 40.7472 202.145 40.8317 202.519 40.8317ZM207.973 42V31.8182H209.773V35.6264H209.847C209.94 35.4408 210.071 35.2436 210.24 35.0348C210.409 34.8227 210.638 34.642 210.926 34.4929C211.214 34.3404 211.582 34.2642 212.03 34.2642C212.62 34.2642 213.152 34.415 213.626 34.7166C214.103 35.0149 214.481 35.4574 214.759 36.044C215.041 36.6274 215.182 37.3433 215.182 38.1918C215.182 39.0303 215.044 39.7429 214.769 40.3295C214.494 40.9162 214.12 41.3636 213.646 41.6719C213.172 41.9801 212.635 42.1342 212.035 42.1342C211.597 42.1342 211.234 42.0613 210.946 41.9155C210.658 41.7696 210.426 41.594 210.25 41.3885C210.078 41.1797 209.943 40.9825 209.847 40.7969H209.743V42H207.973ZM209.738 38.1818C209.738 38.6757 209.808 39.1082 209.947 39.4794C210.089 39.8506 210.293 40.1406 210.558 40.3494C210.827 40.5549 211.152 40.6577 211.533 40.6577C211.93 40.6577 212.263 40.5516 212.532 40.3395C212.8 40.1241 213.003 39.8307 213.138 39.4595C213.278 39.085 213.347 38.6591 213.347 38.1818C213.347 37.7079 213.279 37.2869 213.143 36.919C213.008 36.5511 212.805 36.2628 212.537 36.054C212.268 35.8452 211.934 35.7408 211.533 35.7408C211.148 35.7408 210.822 35.8419 210.553 36.044C210.285 36.2462 210.081 36.5296 209.942 36.8942C209.806 37.2588 209.738 37.688 209.738 38.1818ZM220.093 42.1491C219.327 42.1491 218.666 41.9901 218.109 41.6719C217.555 41.3504 217.129 40.8963 216.831 40.3097C216.533 39.7197 216.384 39.0253 216.384 38.2266C216.384 37.4411 216.533 36.7517 216.831 36.1584C217.133 35.5618 217.554 35.0978 218.094 34.7663C218.634 34.4316 219.269 34.2642 219.998 34.2642C220.469 34.2642 220.913 34.3404 221.33 34.4929C221.751 34.642 222.123 34.8741 222.444 35.1889C222.769 35.5038 223.024 35.9048 223.21 36.392C223.395 36.8759 223.488 37.4527 223.488 38.1222V38.674H217.229V37.4609H221.763C221.76 37.1162 221.685 36.8097 221.539 36.5412C221.393 36.2694 221.19 36.0556 220.928 35.8999C220.669 35.7441 220.368 35.6662 220.023 35.6662C219.655 35.6662 219.332 35.7557 219.053 35.9347C218.775 36.1103 218.558 36.3423 218.402 36.6307C218.25 36.9157 218.172 37.2289 218.169 37.5703V38.6293C218.169 39.0734 218.25 39.4545 218.412 39.7727C218.575 40.0876 218.802 40.3295 219.093 40.4986C219.385 40.6643 219.726 40.7472 220.117 40.7472C220.379 40.7472 220.616 40.7107 220.828 40.6378C221.04 40.5616 221.224 40.4505 221.38 40.3047C221.536 40.1589 221.654 39.9782 221.733 39.7628L223.414 39.9517C223.307 40.3958 223.105 40.7836 222.807 41.1151C222.512 41.4432 222.134 41.6984 221.673 41.8807C221.213 42.0597 220.686 42.1491 220.093 42.1491ZM226.81 31.8182V42H225.011V31.8182H226.81ZM232.134 42V34.3636H233.879V35.6364H233.958C234.097 35.1955 234.336 34.8558 234.674 34.6172C235.016 34.3752 235.405 34.2543 235.843 34.2543C235.942 34.2543 236.053 34.2592 236.176 34.2692C236.302 34.2758 236.406 34.2874 236.489 34.304V35.9595C236.413 35.933 236.292 35.9098 236.126 35.8899C235.963 35.8667 235.806 35.8551 235.654 35.8551C235.325 35.8551 235.03 35.9264 234.769 36.0689C234.51 36.2081 234.306 36.402 234.157 36.6506C234.008 36.8991 233.933 37.1858 233.933 37.5107V42H232.134ZM240.751 42.1491C239.985 42.1491 239.324 41.9901 238.767 41.6719C238.214 41.3504 237.788 40.8963 237.489 40.3097C237.191 39.7197 237.042 39.0253 237.042 38.2266C237.042 37.4411 237.191 36.7517 237.489 36.1584C237.791 35.5618 238.212 35.0978 238.752 34.7663C239.292 34.4316 239.927 34.2642 240.656 34.2642C241.127 34.2642 241.571 34.3404 241.989 34.4929C242.41 34.642 242.781 34.8741 243.102 35.1889C243.427 35.5038 243.682 35.9048 243.868 36.392C244.054 36.8759 244.146 37.4527 244.146 38.1222V38.674H237.887V37.4609H242.421C242.418 37.1162 242.343 36.8097 242.197 36.5412C242.052 36.2694 241.848 36.0556 241.586 35.8999C241.327 35.7441 241.026 35.6662 240.681 35.6662C240.313 35.6662 239.99 35.7557 239.712 35.9347C239.433 36.1103 239.216 36.3423 239.06 36.6307C238.908 36.9157 238.83 37.2289 238.827 37.5703V38.6293C238.827 39.0734 238.908 39.4545 239.07 39.7727C239.233 40.0876 239.46 40.3295 239.751 40.4986C240.043 40.6643 240.384 40.7472 240.776 40.7472C241.037 40.7472 241.274 40.7107 241.487 40.6378C241.699 40.5616 241.883 40.4505 242.038 40.3047C242.194 40.1589 242.312 39.9782 242.391 39.7628L244.072 39.9517C243.966 40.3958 243.763 40.7836 243.465 41.1151C243.17 41.4432 242.792 41.6984 242.332 41.8807C241.871 42.0597 241.344 42.1491 240.751 42.1491ZM250.765 44.8636V40.7969H250.69C250.597 40.9825 250.463 41.1797 250.287 41.3885C250.112 41.594 249.88 41.7696 249.591 41.9155C249.303 42.0613 248.94 42.1342 248.503 42.1342C247.903 42.1342 247.366 41.9801 246.892 41.6719C246.418 41.3636 246.043 40.9162 245.768 40.3295C245.493 39.7429 245.356 39.0303 245.356 38.1918C245.356 37.3433 245.495 36.6274 245.773 36.044C246.055 35.4574 246.434 35.0149 246.912 34.7166C247.389 34.415 247.921 34.2642 248.508 34.2642C248.955 34.2642 249.323 34.3404 249.611 34.4929C249.9 34.642 250.128 34.8227 250.297 35.0348C250.466 35.2436 250.597 35.4408 250.69 35.6264H250.8V34.3636H252.569V44.8636H250.765ZM249.005 40.6577C249.386 40.6577 249.711 40.5549 249.979 40.3494C250.248 40.1406 250.452 39.8506 250.591 39.4794C250.73 39.1082 250.8 38.6757 250.8 38.1818C250.8 37.688 250.73 37.2588 250.591 36.8942C250.455 36.5296 250.253 36.2462 249.984 36.044C249.719 35.8419 249.393 35.7408 249.005 35.7408C248.604 35.7408 248.269 35.8452 248.001 36.054C247.732 36.2628 247.53 36.5511 247.394 36.919C247.258 37.2869 247.19 37.7079 247.19 38.1818C247.19 38.6591 247.258 39.085 247.394 39.4595C247.533 39.8307 247.737 40.1241 248.006 40.3395C248.277 40.5516 248.61 40.6577 249.005 40.6577ZM259.286 38.7884V34.3636H261.086V42H259.341V40.6428H259.261C259.089 41.0703 258.805 41.42 258.411 41.6918C258.02 41.9635 257.538 42.0994 256.964 42.0994C256.464 42.0994 256.021 41.9884 255.637 41.7663C255.256 41.541 254.957 41.2145 254.742 40.7869C254.527 40.3561 254.419 39.8357 254.419 39.2259V34.3636H256.219V38.9474C256.219 39.4313 256.351 39.8158 256.616 40.1009C256.881 40.3859 257.229 40.5284 257.66 40.5284C257.925 40.5284 258.182 40.4638 258.431 40.3345C258.68 40.2053 258.883 40.013 259.042 39.7578C259.205 39.4993 259.286 39.1761 259.286 38.7884ZM262.936 42V34.3636H264.736V42H262.936ZM263.841 33.2798C263.556 33.2798 263.311 33.1854 263.105 32.9964C262.9 32.8042 262.797 32.5739 262.797 32.3054C262.797 32.0336 262.9 31.8033 263.105 31.6143C263.311 31.4221 263.556 31.326 263.841 31.326C264.13 31.326 264.375 31.4221 264.577 31.6143C264.783 31.8033 264.885 32.0336 264.885 32.3054C264.885 32.5739 264.783 32.8042 264.577 32.9964C264.375 33.1854 264.13 33.2798 263.841 33.2798ZM266.587 42V34.3636H268.332V35.6364H268.411C268.551 35.1955 268.789 34.8558 269.127 34.6172C269.469 34.3752 269.858 34.2543 270.296 34.2543C270.395 34.2543 270.506 34.2592 270.629 34.2692C270.755 34.2758 270.859 34.2874 270.942 34.304V35.9595C270.866 35.933 270.745 35.9098 270.579 35.8899C270.417 35.8667 270.259 35.8551 270.107 35.8551C269.779 35.8551 269.484 35.9264 269.222 36.0689C268.963 36.2081 268.759 36.402 268.61 36.6506C268.461 36.8991 268.387 37.1858 268.387 37.5107V42H266.587ZM275.204 42.1491C274.438 42.1491 273.777 41.9901 273.22 41.6719C272.667 41.3504 272.241 40.8963 271.942 40.3097C271.644 39.7197 271.495 39.0253 271.495 38.2266C271.495 37.4411 271.644 36.7517 271.942 36.1584C272.244 35.5618 272.665 35.0978 273.205 34.7663C273.746 34.4316 274.38 34.2642 275.109 34.2642C275.58 34.2642 276.024 34.3404 276.442 34.4929C276.863 34.642 277.234 34.8741 277.555 35.1889C277.88 35.5038 278.135 35.9048 278.321 36.392C278.507 36.8759 278.599 37.4527 278.599 38.1222V38.674H272.34V37.4609H276.874C276.871 37.1162 276.796 36.8097 276.651 36.5412C276.505 36.2694 276.301 36.0556 276.039 35.8999C275.781 35.7441 275.479 35.6662 275.134 35.6662C274.766 35.6662 274.443 35.7557 274.165 35.9347C273.886 36.1103 273.669 36.3423 273.513 36.6307C273.361 36.9157 273.283 37.2289 273.28 37.5703V38.6293C273.28 39.0734 273.361 39.4545 273.523 39.7727C273.686 40.0876 273.913 40.3295 274.205 40.4986C274.496 40.6643 274.838 40.7472 275.229 40.7472C275.491 40.7472 275.728 40.7107 275.94 40.6378C276.152 40.5616 276.336 40.4505 276.491 40.3047C276.647 40.1589 276.765 39.9782 276.844 39.7628L278.525 39.9517C278.419 40.3958 278.217 40.7836 277.918 41.1151C277.623 41.4432 277.246 41.6984 276.785 41.8807C276.324 42.0597 275.797 42.1491 275.204 42.1491ZM282.956 42.1342C282.356 42.1342 281.819 41.9801 281.345 41.6719C280.871 41.3636 280.497 40.9162 280.221 40.3295C279.946 39.7429 279.809 39.0303 279.809 38.1918C279.809 37.3433 279.948 36.6274 280.226 36.044C280.508 35.4574 280.888 35.0149 281.365 34.7166C281.842 34.415 282.374 34.2642 282.961 34.2642C283.408 34.2642 283.776 34.3404 284.064 34.4929C284.353 34.642 284.581 34.8227 284.751 35.0348C284.92 35.2436 285.05 35.4408 285.143 35.6264H285.218V31.8182H287.023V42H285.253V40.7969H285.143C285.05 40.9825 284.916 41.1797 284.741 41.3885C284.565 41.594 284.333 41.7696 284.045 41.9155C283.756 42.0613 283.393 42.1342 282.956 42.1342ZM283.458 40.6577C283.839 40.6577 284.164 40.5549 284.432 40.3494C284.701 40.1406 284.905 39.8506 285.044 39.4794C285.183 39.1082 285.253 38.6757 285.253 38.1818C285.253 37.688 285.183 37.2588 285.044 36.8942C284.908 36.5296 284.706 36.2462 284.437 36.044C284.172 35.8419 283.846 35.7408 283.458 35.7408C283.057 35.7408 282.722 35.8452 282.454 36.054C282.185 36.2628 281.983 36.5511 281.847 36.919C281.711 37.2869 281.643 37.7079 281.643 38.1818C281.643 38.6591 281.711 39.085 281.847 39.4595C281.986 39.8307 282.19 40.1241 282.459 40.3395C282.73 40.5516 283.064 40.6577 283.458 40.6577ZM298.449 36.3821L296.808 36.5611C296.761 36.3954 296.68 36.2396 296.564 36.0938C296.452 35.9479 296.299 35.8303 296.107 35.7408C295.915 35.6513 295.679 35.6065 295.401 35.6065C295.026 35.6065 294.712 35.6877 294.456 35.8501C294.204 36.0125 294.08 36.223 294.083 36.4815C294.08 36.7036 294.161 36.8842 294.327 37.0234C294.496 37.1626 294.775 37.277 295.162 37.3665L296.465 37.6449C297.187 37.8007 297.724 38.0476 298.076 38.3857C298.43 38.7237 298.609 39.1662 298.613 39.7131C298.609 40.1937 298.468 40.6179 298.19 40.9858C297.915 41.3504 297.532 41.6354 297.042 41.8409C296.551 42.0464 295.988 42.1491 295.351 42.1491C294.417 42.1491 293.664 41.9536 293.094 41.5625C292.524 41.1681 292.184 40.6196 292.075 39.9169L293.83 39.7479C293.909 40.0926 294.078 40.3527 294.337 40.5284C294.596 40.7041 294.932 40.7919 295.346 40.7919C295.774 40.7919 296.117 40.7041 296.375 40.5284C296.637 40.3527 296.768 40.1357 296.768 39.8771C296.768 39.6584 296.684 39.4777 296.515 39.3352C296.349 39.1927 296.09 39.0833 295.739 39.0071L294.436 38.7337C293.704 38.5812 293.162 38.3243 292.811 37.9631C292.459 37.5985 292.285 37.1378 292.289 36.581C292.285 36.1103 292.413 35.7027 292.672 35.358C292.933 35.0099 293.296 34.7415 293.76 34.5526C294.228 34.3603 294.766 34.2642 295.376 34.2642C296.271 34.2642 296.975 34.4548 297.489 34.8359C298.006 35.2171 298.326 35.7325 298.449 36.3821ZM300.097 42V34.3636H301.817V35.6612H301.906C302.065 35.2237 302.329 34.8823 302.697 34.6371C303.065 34.3885 303.504 34.2642 304.014 34.2642C304.531 34.2642 304.967 34.3902 305.322 34.642C305.68 34.8906 305.932 35.2304 306.077 35.6612H306.157C306.326 35.237 306.611 34.8989 307.012 34.647C307.416 34.3918 307.895 34.2642 308.449 34.2642C309.152 34.2642 309.725 34.4863 310.169 34.9304C310.613 35.3745 310.835 36.0225 310.835 36.8743V42H309.031V37.1527C309.031 36.6787 308.905 36.3324 308.653 36.1136C308.401 35.8916 308.093 35.7805 307.728 35.7805C307.294 35.7805 306.954 35.9164 306.709 36.1882C306.467 36.4567 306.346 36.8063 306.346 37.2372V42H304.581V37.0781C304.581 36.6837 304.462 36.3688 304.223 36.1335C303.988 35.8982 303.679 35.7805 303.298 35.7805C303.04 35.7805 302.804 35.8468 302.592 35.9794C302.38 36.1087 302.211 36.2926 302.085 36.5312C301.959 36.7666 301.896 37.0417 301.896 37.3565V42H300.097Z" fill="#333333"/>
<path d="M319.197 37.5455L319.311 35.532L317.621 36.6406L317.014 35.5866L318.819 34.6818L317.014 33.777L317.621 32.723L319.311 33.8317L319.197 31.8182H320.405L320.295 33.8317L321.986 32.723L322.592 33.777L320.783 34.6818L322.592 35.5866L321.986 36.6406L320.295 35.532L320.405 37.5455H319.197Z" fill="#EE0505"/>
<path d="M195.375 64H192.233V53.8182H195.514C196.502 53.8182 197.347 54.022 198.05 54.4297C198.752 54.834 199.291 55.4157 199.665 56.1747C200.04 56.9304 200.227 57.8352 200.227 58.8892C200.227 59.9498 200.038 60.8629 199.661 61.6286C199.283 62.3909 198.732 62.9775 198.01 63.3885C197.287 63.7962 196.409 64 195.375 64ZM193.466 62.9062H195.295C196.137 62.9062 196.835 62.7438 197.388 62.419C197.942 62.0942 198.355 61.6319 198.626 61.032C198.898 60.4321 199.034 59.7178 199.034 58.8892C199.034 58.0672 198.9 57.3596 198.631 56.7663C198.363 56.1697 197.962 55.7124 197.428 55.3942C196.895 55.0727 196.23 54.9119 195.435 54.9119H193.466V62.9062ZM205.338 64.1591C204.602 64.1591 203.968 63.9967 203.434 63.6719C202.904 63.3438 202.494 62.8864 202.206 62.2997C201.921 61.7098 201.778 61.0237 201.778 60.2415C201.778 59.4593 201.921 58.7699 202.206 58.1733C202.494 57.5734 202.895 57.1061 203.409 56.7713C203.926 56.4332 204.529 56.2642 205.219 56.2642C205.616 56.2642 206.009 56.3305 206.397 56.4631C206.785 56.5956 207.138 56.8111 207.456 57.1094C207.774 57.4044 208.028 57.7955 208.217 58.2827C208.406 58.7699 208.5 59.3698 208.5 60.0824V60.5795H202.614V59.5653H207.307C207.307 59.1345 207.221 58.75 207.048 58.4119C206.879 58.0739 206.637 57.8071 206.322 57.6115C206.011 57.416 205.643 57.3182 205.219 57.3182C204.751 57.3182 204.347 57.4342 204.006 57.6662C203.668 57.8949 203.407 58.1932 203.225 58.5611C203.043 58.929 202.952 59.3234 202.952 59.7443V60.4205C202.952 60.9972 203.051 61.486 203.25 61.8871C203.452 62.2848 203.732 62.5881 204.09 62.7969C204.448 63.0024 204.864 63.1051 205.338 63.1051C205.646 63.1051 205.925 63.062 206.173 62.9759C206.425 62.8864 206.642 62.7538 206.825 62.5781C207.007 62.3991 207.148 62.1771 207.247 61.9119L208.381 62.2301C208.261 62.6146 208.061 62.9527 207.779 63.2443C207.497 63.5327 207.149 63.758 206.735 63.9205C206.321 64.0795 205.855 64.1591 205.338 64.1591ZM215.694 58.0739L214.64 58.3722C214.574 58.1965 214.476 58.0258 214.347 57.8601C214.221 57.6911 214.048 57.5518 213.83 57.4425C213.611 57.3331 213.331 57.2784 212.989 57.2784C212.522 57.2784 212.133 57.3861 211.821 57.6016C211.513 57.8137 211.359 58.0838 211.359 58.4119C211.359 58.7036 211.465 58.9339 211.677 59.103C211.889 59.272 212.22 59.4129 212.671 59.5256L213.805 59.804C214.487 59.9697 214.996 60.2232 215.331 60.5646C215.666 60.9027 215.833 61.3385 215.833 61.8722C215.833 62.3097 215.707 62.7008 215.455 63.0455C215.207 63.3902 214.859 63.6619 214.411 63.8608C213.964 64.0597 213.443 64.1591 212.85 64.1591C212.071 64.1591 211.427 63.9901 210.916 63.652C210.406 63.3139 210.083 62.8201 209.947 62.1705L211.06 61.892C211.166 62.303 211.367 62.6113 211.662 62.8168C211.96 63.0223 212.35 63.125 212.83 63.125C213.377 63.125 213.811 63.009 214.133 62.777C214.458 62.5417 214.62 62.2599 214.62 61.9318C214.62 61.6667 214.527 61.4446 214.342 61.2656C214.156 61.0833 213.871 60.9474 213.487 60.858L212.214 60.5597C211.514 60.3939 211.001 60.1371 210.673 59.7891C210.348 59.4377 210.185 58.9986 210.185 58.4716C210.185 58.0407 210.306 57.6596 210.548 57.3281C210.794 56.9967 211.127 56.7365 211.548 56.5476C211.972 56.3587 212.452 56.2642 212.989 56.2642C213.745 56.2642 214.338 56.4299 214.769 56.7614C215.203 57.0928 215.512 57.5303 215.694 58.0739ZM220.702 64.1591C219.986 64.1591 219.369 63.9901 218.852 63.652C218.335 63.3139 217.937 62.8482 217.659 62.255C217.381 61.6617 217.241 60.9839 217.241 60.2216C217.241 59.446 217.384 58.7616 217.669 58.1683C217.957 57.5717 218.358 57.1061 218.872 56.7713C219.389 56.4332 219.992 56.2642 220.682 56.2642C221.219 56.2642 221.702 56.3636 222.133 56.5625C222.564 56.7614 222.917 57.0398 223.192 57.3977C223.467 57.7557 223.638 58.1733 223.704 58.6506H222.531C222.442 58.3026 222.243 57.9943 221.934 57.7259C221.63 57.4541 221.219 57.3182 220.702 57.3182C220.244 57.3182 219.843 57.4375 219.498 57.6761C219.157 57.9115 218.89 58.2446 218.698 58.6754C218.509 59.103 218.415 59.6051 218.415 60.1818C218.415 60.7718 218.507 61.2855 218.693 61.723C218.882 62.1605 219.147 62.5002 219.488 62.7422C219.833 62.9841 220.238 63.1051 220.702 63.1051C221.006 63.1051 221.283 63.0521 221.532 62.946C221.78 62.84 221.991 62.6875 222.163 62.4886C222.336 62.2898 222.458 62.0511 222.531 61.7727H223.704C223.638 62.2235 223.474 62.6295 223.212 62.9908C222.954 63.3487 222.611 63.6338 222.183 63.8459C221.759 64.0547 221.265 64.1591 220.702 64.1591ZM225.42 64V56.3636H226.553V57.517H226.633C226.772 57.1392 227.024 56.8326 227.388 56.5973C227.753 56.362 228.164 56.2443 228.621 56.2443C228.707 56.2443 228.815 56.246 228.944 56.2493C229.074 56.2526 229.171 56.2576 229.238 56.2642V57.4574C229.198 57.4474 229.107 57.4325 228.964 57.4126C228.825 57.3894 228.678 57.3778 228.522 57.3778C228.151 57.3778 227.819 57.4557 227.528 57.6115C227.239 57.764 227.01 57.9761 226.841 58.2479C226.676 58.5163 226.593 58.8229 226.593 59.1676V64H225.42ZM230.629 64V56.3636H231.802V64H230.629ZM231.225 55.0909C230.996 55.0909 230.799 55.013 230.634 54.8572C230.471 54.7015 230.39 54.5142 230.39 54.2955C230.39 54.0767 230.471 53.8894 230.634 53.7337C230.799 53.5779 230.996 53.5 231.225 53.5C231.454 53.5 231.649 53.5779 231.812 53.7337C231.978 53.8894 232.06 54.0767 232.06 54.2955C232.06 54.5142 231.978 54.7015 231.812 54.8572C231.649 55.013 231.454 55.0909 231.225 55.0909ZM233.951 66.8636V56.3636H235.084V57.5767H235.224C235.31 57.4441 235.429 57.2751 235.581 57.0696C235.737 56.8608 235.959 56.6752 236.248 56.5128C236.539 56.3471 236.934 56.2642 237.431 56.2642C238.074 56.2642 238.641 56.425 239.131 56.7464C239.622 57.0679 240.005 57.5237 240.28 58.1136C240.555 58.7036 240.692 59.3996 240.692 60.2017C240.692 61.0104 240.555 61.7114 240.28 62.3047C240.005 62.8946 239.623 63.352 239.136 63.6768C238.649 63.9983 238.087 64.1591 237.451 64.1591C236.96 64.1591 236.568 64.0779 236.273 63.9155C235.978 63.7498 235.751 63.5625 235.591 63.3537C235.432 63.1416 235.31 62.9659 235.224 62.8267H235.124V66.8636H233.951ZM235.104 60.1818C235.104 60.7585 235.189 61.2673 235.358 61.7081C235.527 62.1456 235.774 62.4886 236.099 62.7372C236.423 62.9825 236.821 63.1051 237.292 63.1051C237.782 63.1051 238.192 62.9759 238.52 62.7173C238.851 62.4555 239.1 62.1042 239.265 61.6634C239.434 61.2192 239.519 60.7254 239.519 60.1818C239.519 59.6449 239.436 59.161 239.27 58.7301C239.108 58.2959 238.861 57.9529 238.53 57.701C238.202 57.4458 237.789 57.3182 237.292 57.3182C236.814 57.3182 236.413 57.4392 236.089 57.6811C235.764 57.9197 235.519 58.2545 235.353 58.6854C235.187 59.1129 235.104 59.6117 235.104 60.1818ZM245.803 56.3636V57.358H241.846V56.3636H245.803ZM242.999 54.5341H244.172V61.8125C244.172 62.1439 244.22 62.3925 244.317 62.5582C244.416 62.7206 244.542 62.83 244.694 62.8864C244.85 62.9394 245.014 62.9659 245.187 62.9659C245.316 62.9659 245.422 62.9593 245.505 62.946C245.588 62.9295 245.654 62.9162 245.704 62.9062L245.942 63.9602C245.863 63.9901 245.752 64.0199 245.609 64.0497C245.467 64.0829 245.286 64.0994 245.067 64.0994C244.736 64.0994 244.411 64.0282 244.093 63.8857C243.778 63.7431 243.516 63.526 243.307 63.2344C243.102 62.9427 242.999 62.5748 242.999 62.1307V54.5341ZM247.568 64V56.3636H248.741V64H247.568ZM248.165 55.0909C247.936 55.0909 247.739 55.013 247.573 54.8572C247.411 54.7015 247.329 54.5142 247.329 54.2955C247.329 54.0767 247.411 53.8894 247.573 53.7337C247.739 53.5779 247.936 53.5 248.165 53.5C248.393 53.5 248.589 53.5779 248.751 53.7337C248.917 53.8894 249 54.0767 249 54.2955C249 54.5142 248.917 54.7015 248.751 54.8572C248.589 55.013 248.393 55.0909 248.165 55.0909ZM253.993 64.1591C253.303 64.1591 252.698 63.995 252.178 63.6669C251.661 63.3388 251.257 62.8797 250.965 62.2898C250.676 61.6998 250.532 61.0104 250.532 60.2216C250.532 59.4261 250.676 58.7318 250.965 58.1385C251.257 57.5452 251.661 57.0845 252.178 56.7564C252.698 56.4283 253.303 56.2642 253.993 56.2642C254.682 56.2642 255.285 56.4283 255.802 56.7564C256.323 57.0845 256.727 57.5452 257.015 58.1385C257.307 58.7318 257.453 59.4261 257.453 60.2216C257.453 61.0104 257.307 61.6998 257.015 62.2898C256.727 62.8797 256.323 63.3388 255.802 63.6669C255.285 63.995 254.682 64.1591 253.993 64.1591ZM253.993 63.1051C254.516 63.1051 254.947 62.9709 255.285 62.7024C255.623 62.4339 255.873 62.081 256.036 61.6435C256.198 61.206 256.279 60.732 256.279 60.2216C256.279 59.7112 256.198 59.2356 256.036 58.7947C255.873 58.3539 255.623 57.9976 255.285 57.7259C254.947 57.4541 254.516 57.3182 253.993 57.3182C253.469 57.3182 253.038 57.4541 252.7 57.7259C252.362 57.9976 252.112 58.3539 251.949 58.7947C251.787 59.2356 251.706 59.7112 251.706 60.2216C251.706 60.732 251.787 61.206 251.949 61.6435C252.112 62.081 252.362 62.4339 252.7 62.7024C253.038 62.9709 253.469 63.1051 253.993 63.1051ZM260.417 59.4062V64H259.244V56.3636H260.377V57.5568H260.477C260.656 57.169 260.927 56.8575 261.292 56.6222C261.657 56.3835 262.127 56.2642 262.704 56.2642C263.221 56.2642 263.673 56.3703 264.061 56.5824C264.449 56.7912 264.751 57.1094 264.966 57.5369C265.182 57.9612 265.289 58.4981 265.289 59.1477V64H264.116V59.2273C264.116 58.6274 263.96 58.16 263.649 57.8253C263.337 57.4872 262.91 57.3182 262.366 57.3182C261.991 57.3182 261.657 57.3994 261.362 57.5618C261.07 57.7242 260.84 57.9612 260.671 58.2727C260.502 58.5843 260.417 58.9621 260.417 59.4062Z" fill="#757575"/>
<rect x="191.5" y="76.5" width="289" height="101" rx="3.5" fill="white"/>
<path d="M206.523 96L203.341 84.3636H204.773L207.205 93.8409H207.318L209.795 84.3636H211.386L213.864 93.8409H213.977L216.409 84.3636H217.841L214.659 96H213.205L210.636 86.7273H210.545L207.977 96H206.523ZM218.868 96V87.2727H220.163V88.5909H220.254C220.413 88.1591 220.701 87.8087 221.118 87.5398C221.535 87.2708 222.004 87.1364 222.527 87.1364C222.625 87.1364 222.749 87.1383 222.896 87.142C223.044 87.1458 223.156 87.1515 223.232 87.1591V88.5227C223.186 88.5114 223.082 88.4943 222.919 88.4716C222.76 88.4451 222.591 88.4318 222.413 88.4318C221.989 88.4318 221.61 88.5208 221.277 88.6989C220.947 88.8731 220.686 89.1155 220.493 89.4261C220.304 89.733 220.209 90.0833 220.209 90.4773V96H218.868ZM224.821 96V87.2727H226.162V96H224.821ZM225.503 85.8182C225.241 85.8182 225.016 85.7292 224.827 85.5511C224.641 85.3731 224.548 85.1591 224.548 84.9091C224.548 84.6591 224.641 84.4451 224.827 84.267C225.016 84.089 225.241 84 225.503 84C225.764 84 225.988 84.089 226.173 84.267C226.363 84.4451 226.457 84.6591 226.457 84.9091C226.457 85.1591 226.363 85.3731 226.173 85.5511C225.988 85.7292 225.764 85.8182 225.503 85.8182ZM232.413 87.2727V88.4091H227.891V87.2727H232.413ZM229.209 85.1818H230.55V93.5C230.55 93.8788 230.605 94.1629 230.714 94.3523C230.828 94.5379 230.972 94.6629 231.146 94.7273C231.324 94.7879 231.512 94.8182 231.709 94.8182C231.857 94.8182 231.978 94.8106 232.072 94.7955C232.167 94.7765 232.243 94.7614 232.3 94.75L232.572 95.9545C232.482 95.9886 232.355 96.0227 232.192 96.0568C232.029 96.0947 231.822 96.1136 231.572 96.1136C231.194 96.1136 230.822 96.0322 230.459 95.8693C230.099 95.7064 229.8 95.4583 229.561 95.125C229.326 94.7917 229.209 94.3712 229.209 93.8636V85.1818ZM237.996 96.1818C237.155 96.1818 236.429 95.9962 235.82 95.625C235.214 95.25 234.746 94.7273 234.416 94.0568C234.09 93.3826 233.928 92.5985 233.928 91.7045C233.928 90.8106 234.09 90.0227 234.416 89.3409C234.746 88.6553 235.204 88.1212 235.791 87.7386C236.382 87.3523 237.071 87.1591 237.859 87.1591C238.314 87.1591 238.763 87.2348 239.206 87.3864C239.649 87.5379 240.053 87.7841 240.416 88.125C240.78 88.4621 241.07 88.9091 241.286 89.4659C241.501 90.0227 241.609 90.7083 241.609 91.5227V92.0909H234.882V90.9318H240.246C240.246 90.4394 240.147 90 239.95 89.6136C239.757 89.2273 239.481 88.9223 239.121 88.6989C238.765 88.4754 238.344 88.3636 237.859 88.3636C237.325 88.3636 236.863 88.4962 236.473 88.7614C236.087 89.0227 235.789 89.3636 235.581 89.7841C235.373 90.2045 235.268 90.6553 235.268 91.1364V91.9091C235.268 92.5682 235.382 93.1269 235.609 93.5852C235.84 94.0398 236.161 94.3864 236.57 94.625C236.979 94.8598 237.454 94.9773 237.996 94.9773C238.348 94.9773 238.666 94.928 238.95 94.8295C239.238 94.7273 239.486 94.5758 239.695 94.375C239.903 94.1705 240.064 93.9167 240.178 93.6136L241.473 93.9773C241.337 94.4167 241.107 94.803 240.786 95.1364C240.464 95.4659 240.066 95.7235 239.592 95.9091C239.119 96.0909 238.587 96.1818 237.996 96.1818ZM249.49 90.75V96H248.149V84.3636H249.49V88.6364H249.604C249.808 88.1856 250.115 87.8277 250.524 87.5625C250.937 87.2936 251.486 87.1591 252.172 87.1591C252.767 87.1591 253.287 87.2784 253.734 87.517C254.181 87.7519 254.528 88.1136 254.774 88.6023C255.024 89.0871 255.149 89.7045 255.149 90.4545V96H253.808V90.5455C253.808 89.8523 253.628 89.3163 253.268 88.9375C252.912 88.5549 252.418 88.3636 251.786 88.3636C251.346 88.3636 250.952 88.4564 250.604 88.642C250.259 88.8277 249.986 89.0985 249.786 89.4545C249.589 89.8106 249.49 90.2424 249.49 90.75ZM261.261 96.1818C260.42 96.1818 259.695 95.9962 259.085 95.625C258.479 95.25 258.011 94.7273 257.682 94.0568C257.356 93.3826 257.193 92.5985 257.193 91.7045C257.193 90.8106 257.356 90.0227 257.682 89.3409C258.011 88.6553 258.47 88.1212 259.057 87.7386C259.648 87.3523 260.337 87.1591 261.125 87.1591C261.58 87.1591 262.028 87.2348 262.472 87.3864C262.915 87.5379 263.318 87.7841 263.682 88.125C264.045 88.4621 264.335 88.9091 264.551 89.4659C264.767 90.0227 264.875 90.7083 264.875 91.5227V92.0909H258.148V90.9318H263.511C263.511 90.4394 263.413 90 263.216 89.6136C263.023 89.2273 262.746 88.9223 262.386 88.6989C262.03 88.4754 261.61 88.3636 261.125 88.3636C260.591 88.3636 260.129 88.4962 259.739 88.7614C259.352 89.0227 259.055 89.3636 258.847 89.7841C258.638 90.2045 258.534 90.6553 258.534 91.1364V91.9091C258.534 92.5682 258.648 93.1269 258.875 93.5852C259.106 94.0398 259.426 94.3864 259.835 94.625C260.244 94.8598 260.72 94.9773 261.261 94.9773C261.614 94.9773 261.932 94.928 262.216 94.8295C262.504 94.7273 262.752 94.5758 262.96 94.375C263.169 94.1705 263.33 93.9167 263.443 93.6136L264.739 93.9773C264.602 94.4167 264.373 94.803 264.051 95.1364C263.729 95.4659 263.331 95.7235 262.858 95.9091C262.384 96.0909 261.852 96.1818 261.261 96.1818ZM266.915 96V87.2727H268.21V88.5909H268.301C268.46 88.1591 268.748 87.8087 269.165 87.5398C269.581 87.2708 270.051 87.1364 270.574 87.1364C270.672 87.1364 270.795 87.1383 270.943 87.142C271.091 87.1458 271.203 87.1515 271.278 87.1591V88.5227C271.233 88.5114 271.129 88.4943 270.966 88.4716C270.807 88.4451 270.638 88.4318 270.46 88.4318C270.036 88.4318 269.657 88.5208 269.324 88.6989C268.994 88.8731 268.733 89.1155 268.54 89.4261C268.35 89.733 268.256 90.0833 268.256 90.4773V96H266.915ZM276.261 96.1818C275.42 96.1818 274.695 95.9962 274.085 95.625C273.479 95.25 273.011 94.7273 272.682 94.0568C272.356 93.3826 272.193 92.5985 272.193 91.7045C272.193 90.8106 272.356 90.0227 272.682 89.3409C273.011 88.6553 273.47 88.1212 274.057 87.7386C274.648 87.3523 275.337 87.1591 276.125 87.1591C276.58 87.1591 277.028 87.2348 277.472 87.3864C277.915 87.5379 278.318 87.7841 278.682 88.125C279.045 88.4621 279.335 88.9091 279.551 89.4659C279.767 90.0227 279.875 90.7083 279.875 91.5227V92.0909H273.148V90.9318H278.511C278.511 90.4394 278.413 90 278.216 89.6136C278.023 89.2273 277.746 88.9223 277.386 88.6989C277.03 88.4754 276.61 88.3636 276.125 88.3636C275.591 88.3636 275.129 88.4962 274.739 88.7614C274.352 89.0227 274.055 89.3636 273.847 89.7841C273.638 90.2045 273.534 90.6553 273.534 91.1364V91.9091C273.534 92.5682 273.648 93.1269 273.875 93.5852C274.106 94.0398 274.426 94.3864 274.835 94.625C275.244 94.8598 275.72 94.9773 276.261 94.9773C276.614 94.9773 276.932 94.928 277.216 94.8295C277.504 94.7273 277.752 94.5758 277.96 94.375C278.169 94.1705 278.33 93.9167 278.443 93.6136L279.739 93.9773C279.602 94.4167 279.373 94.803 279.051 95.1364C278.729 95.4659 278.331 95.7235 277.858 95.9091C277.384 96.0909 276.852 96.1818 276.261 96.1818Z" fill="#757575"/>
<rect x="191.5" y="76.5" width="289" height="101" rx="3.5" stroke="#545454"/>
</svg>
