<svg width="293" height="117" fill="none" xmlns="http://www.w3.org/2000/svg"><path d="M.56 2.36V.82h8.12v1.54H5.53V11H3.7V2.36H.56Zm11.88 8.79c-.77 0-1.43-.16-1.98-.48a3.23 3.23 0 0 1-1.28-1.36 4.56 4.56 0 0 1-.45-2.08c0-.79.15-1.48.45-2.07a3.38 3.38 0 0 1 3.17-1.9c.47 0 .91.08 1.33.23a3.19 3.19 0 0 1 1.88 1.9c.18.49.28 1.06.28 1.73v.55H9.58v-1.2h4.53a2 2 0 0 0-.22-.93 1.63 1.63 0 0 0-.61-.64 1.72 1.72 0 0 0-.9-.23c-.38 0-.7.09-.98.26-.28.18-.5.41-.65.7a2 2 0 0 0-.23.94v1.06c0 .44.08.82.24 1.14.16.32.39.56.68.73.3.16.63.25 1.03.25.26 0 .5-.04.7-.11.22-.08.4-.19.56-.34.15-.14.27-.32.35-.54l1.68.2c-.1.44-.3.82-.6 1.16-.3.32-.68.58-1.14.76-.46.18-.99.27-1.58.27Zm6.23-7.79 1.54 2.82 1.56-2.82h1.9l-2.3 3.82L23.73 11h-1.9l-1.61-2.75L18.6 11h-1.9l2.32-3.82-2.26-3.82h1.9Zm10.21 0v1.4H24.5v-1.4h4.4Zm-3.3-1.83h1.8V8.7c0 .25.03.43.1.56a.6.6 0 0 0 .3.26c.13.04.26.07.41.07a1.76 1.76 0 0 0 .53-.07l.3 1.4a4.01 4.01 0 0 1-1.06.18c-.45.02-.85-.05-1.22-.2a1.9 1.9 0 0 1-.86-.7 2.1 2.1 0 0 1-.3-1.2V1.53Zm10.48 9.62c-.49 0-.92-.08-1.31-.25a2.13 2.13 0 0 1-.91-.78 2.27 2.27 0 0 1-.34-1.26c0-.43.08-.79.24-1.07.16-.28.38-.5.65-.68.28-.17.59-.3.93-.38.35-.09.7-.15 1.08-.2l1.09-.12c.28-.04.48-.1.6-.18.14-.08.2-.2.2-.38v-.03c0-.37-.11-.66-.33-.87-.23-.2-.55-.3-.96-.3-.44 0-.8.09-1.05.28-.26.2-.43.42-.52.68l-1.68-.24a2.68 2.68 0 0 1 1.78-1.87 4.76 4.76 0 0 1 2.56-.1c.36.08.7.22 1 .42.3.2.54.46.72.8.19.34.28.76.28 1.27V11h-1.73V9.95h-.06A2.2 2.2 0 0 1 37.1 11c-.3.1-.64.16-1.04.16Zm.46-1.32c.37 0 .68-.07.94-.21a1.52 1.52 0 0 0 .83-1.36v-.9a.85.85 0 0 1-.28.13l-.45.1a13.8 13.8 0 0 1-.92.14c-.26.04-.5.1-.72.18-.2.09-.38.2-.5.35a.85.85 0 0 0-.18.57c0 .33.12.58.36.75.24.17.55.25.92.25ZM41.9 11V3.36h1.74v1.28h.08a1.9 1.9 0 0 1 1.89-1.39 4.15 4.15 0 0 1 .64.05v1.66a3.34 3.34 0 0 0-.84-.1 2 2 0 0 0-.88.2 1.56 1.56 0 0 0-.83 1.45V11h-1.8Zm8.62.15c-.77 0-1.43-.16-1.99-.48a3.23 3.23 0 0 1-1.27-1.36 4.56 4.56 0 0 1-.45-2.08c0-.79.15-1.48.45-2.07a3.38 3.38 0 0 1 3.16-1.9c.47 0 .92.08 1.33.23a3.17 3.17 0 0 1 1.88 1.9c.19.49.28 1.06.28 1.73v.55h-6.26v-1.2h4.54c0-.35-.08-.66-.23-.93a1.63 1.63 0 0 0-.6-.64 1.72 1.72 0 0 0-.91-.23 1.8 1.8 0 0 0-1.62.96 2 2 0 0 0-.24.94v1.06c0 .44.08.82.25 1.14.16.32.39.56.68.73a2.25 2.25 0 0 0 1.73.14 1.55 1.55 0 0 0 .91-.88l1.68.2a2.69 2.69 0 0 1-1.74 1.92c-.46.18-.99.27-1.58.27Zm7.11 0c-.48 0-.92-.08-1.3-.25a2.13 2.13 0 0 1-.92-.78 2.27 2.27 0 0 1-.33-1.26c0-.43.08-.79.24-1.07.15-.28.37-.5.65-.68.27-.17.58-.3.93-.38.34-.09.7-.15 1.08-.2l1.08-.12c.28-.04.48-.1.61-.18.13-.08.2-.2.2-.38v-.03c0-.37-.12-.66-.34-.87-.22-.2-.54-.3-.96-.3-.44 0-.79.09-1.05.28-.25.2-.43.42-.51.68l-1.68-.24A2.68 2.68 0 0 1 57.1 3.5a4.76 4.76 0 0 1 2.56-.1c.36.08.7.22 1 .42.3.2.54.46.73.8.18.34.27.76.27 1.27V11h-1.73V9.95h-.06a2.2 2.2 0 0 1-1.2 1.04c-.3.1-.64.16-1.04.16Zm.47-1.32a2 2 0 0 0 .94-.21c.26-.15.47-.34.61-.58.15-.24.22-.5.22-.78v-.9a.85.85 0 0 1-.29.13 13.79 13.79 0 0 1-1.36.24c-.27.04-.51.1-.72.18-.21.09-.38.2-.5.35a.85.85 0 0 0-.19.57c0 .33.12.58.36.75.25.17.55.25.93.25Zm12.7-6.47v1.4h-4.5v-1.4h4.51ZM67.43 11V2.64c0-.51.1-.94.32-1.28a2 2 0 0 1 .86-.77 2.8 2.8 0 0 1 1.2-.25 4.15 4.15 0 0 1 1.37.21l-.36 1.4a3.11 3.11 0 0 0-.67-.12c-.34 0-.57.08-.71.25-.14.16-.2.38-.2.68V11h-1.81Zm4.8 0V3.36h1.8V11h-1.8Zm.9-8.72c-.29 0-.53-.1-.74-.28a.91.91 0 0 1-.3-.7c0-.27.1-.5.3-.69.2-.19.45-.28.74-.28s.53.1.73.28c.21.2.31.42.31.7 0 .26-.1.5-.3.69-.2.19-.45.28-.74.28Zm6.12 8.87c-.76 0-1.42-.16-1.98-.48A3.23 3.23 0 0 1 76 9.31a4.56 4.56 0 0 1-.44-2.08c0-.79.14-1.48.44-2.07a3.38 3.38 0 0 1 3.17-1.9c.47 0 .91.08 1.33.23a3.17 3.17 0 0 1 1.88 1.9c.19.49.28 1.06.28 1.73v.55H76.4v-1.2h4.54c0-.35-.08-.66-.23-.93a1.63 1.63 0 0 0-.61-.64 1.72 1.72 0 0 0-.9-.23 1.8 1.8 0 0 0-1.63.96 2 2 0 0 0-.23.94v1.06c0 .44.08.82.24 1.14a1.8 1.8 0 0 0 1.71.98c.26 0 .5-.04.71-.11a1.55 1.55 0 0 0 .91-.88l1.68.2a2.7 2.7 0 0 1-1.74 1.92c-.47.18-1 .27-1.59.27ZM85.97.82V11h-1.8V.82h1.8Zm4.69 10.31a2.89 2.89 0 0 1-2.74-1.8 5 5 0 0 1-.41-2.14c0-.85.14-1.56.42-2.15a2.93 2.93 0 0 1 3.84-1.55c.28.15.51.33.68.54.17.21.3.41.4.6h.07V.82h1.8V11h-1.77V9.8h-.1c-.1.18-.23.38-.4.59a2.22 2.22 0 0 1-1.8.74Zm.5-1.47c.38 0 .7-.1.97-.31.27-.2.48-.5.62-.87.13-.37.2-.8.2-1.3s-.07-.92-.2-1.29a1.83 1.83 0 0 0-.61-.85c-.27-.2-.6-.3-.98-.3-.4 0-.74.1-1 .31-.27.21-.48.5-.61.87-.14.37-.2.79-.2 1.26 0 .48.06.9.2 1.28a2 2 0 0 0 .61.88c.27.21.6.32 1 .32Z" fill="#333"/><path d="M4.38 33H1.23V22.82h3.28c1 0 1.84.2 2.54.61a4 4 0 0 1 1.62 1.74c.37.76.56 1.67.56 2.72 0 1.06-.2 1.97-.57 2.74a4.04 4.04 0 0 1-1.65 1.76c-.72.4-1.6.61-2.63.61Zm-1.91-1.1H4.3c.84 0 1.53-.16 2.09-.48a3 3 0 0 0 1.24-1.39c.27-.6.4-1.31.4-2.14 0-.82-.13-1.53-.4-2.12a2.97 2.97 0 0 0-1.2-1.38 3.8 3.8 0 0 0-2-.48H2.47v8Zm11.87 1.26a3.27 3.27 0 0 1-3.13-1.86 4.68 4.68 0 0 1-.43-2.06c0-.78.14-1.47.43-2.07a3.23 3.23 0 0 1 3.01-1.9c.4 0 .79.06 1.18.2a2.92 2.92 0 0 1 1.82 1.81 5 5 0 0 1 .28 1.8v.5h-5.89v-1.01h4.7c0-.44-.09-.82-.26-1.16a1.95 1.95 0 0 0-1.83-1.1c-.47 0-.87.12-1.21.36-.34.22-.6.52-.78.9-.19.36-.28.75-.28 1.17v.68c0 .58.1 1.07.3 1.47.2.4.48.7.84.9.36.21.77.32 1.25.32.3 0 .58-.05.83-.13a1.72 1.72 0 0 0 1.08-1.07l1.13.32c-.12.38-.32.72-.6 1.01-.28.3-.63.52-1.04.68-.42.16-.88.24-1.4.24Zm10.35-6.09-1.05.3a1.96 1.96 0 0 0-.3-.51c-.12-.17-.3-.3-.51-.42-.22-.1-.5-.16-.84-.16a2 2 0 0 0-1.17.32c-.3.21-.46.48-.46.81 0 .3.1.52.32.7.2.16.54.3 1 .42l1.12.27c.69.17 1.2.42 1.53.76.34.34.5.78.5 1.31 0 .44-.12.83-.37 1.18-.25.34-.6.61-1.05.81-.45.2-.97.3-1.56.3-.78 0-1.42-.17-1.93-.5a2.25 2.25 0 0 1-.97-1.49l1.11-.28c.1.41.3.72.6.93.3.2.69.3 1.17.3.55 0 .98-.11 1.3-.34.33-.24.49-.52.49-.85a.9.9 0 0 0-.28-.66 1.78 1.78 0 0 0-.85-.41l-1.28-.3a3.04 3.04 0 0 1-1.54-.77 1.9 1.9 0 0 1-.48-1.32c0-.43.12-.81.36-1.14.24-.33.58-.6 1-.78.42-.2.9-.29 1.44-.29.76 0 1.35.17 1.78.5.43.33.74.77.92 1.31Zm5.01 6.09a3.3 3.3 0 0 1-1.85-.5 3.3 3.3 0 0 1-1.2-1.4 4.73 4.73 0 0 1-.4-2.04c0-.77.13-1.46.42-2.05a3.23 3.23 0 0 1 3.01-1.9c.54 0 1.02.1 1.45.3a2.6 2.6 0 0 1 1.57 2.09h-1.17a1.79 1.79 0 0 0-1.83-1.33 1.9 1.9 0 0 0-1.2.35c-.34.23-.61.56-.8 1a3.7 3.7 0 0 0-.29 1.5c0 .6.1 1.1.28 1.54.2.44.46.78.8 1.02s.75.37 1.21.37c.3 0 .58-.06.83-.16a1.71 1.71 0 0 0 1-1.18h1.17a2.72 2.72 0 0 1-1.52 2.08c-.42.2-.91.3-1.48.3Zm4.72-.16v-7.64h1.13v1.16h.08c.14-.38.4-.69.76-.92.36-.24.77-.36 1.23-.36a13.09 13.09 0 0 1 .62.02v1.2a3.44 3.44 0 0 0-.72-.08c-.37 0-.7.08-1 .23a1.71 1.71 0 0 0-.93 1.56V33h-1.17Zm5.2 0v-7.64h1.18V33h-1.17Zm.6-8.9a.83.83 0 0 1-.59-.24.75.75 0 0 1-.24-.56c0-.22.08-.41.24-.57a.83.83 0 0 1 .6-.23c.22 0 .42.08.58.23.17.16.25.35.25.57 0 .21-.08.4-.25.56a.82.82 0 0 1-.58.23Zm2.73 11.76v-10.5h1.13v1.22h.14l.36-.51c.16-.2.38-.4.67-.56.29-.16.68-.25 1.18-.25a3.03 3.03 0 0 1 2.85 1.85c.27.6.41 1.29.41 2.1 0 .8-.14 1.5-.41 2.1a2.99 2.99 0 0 1-2.83 1.85 2.5 2.5 0 0 1-1.18-.24c-.3-.17-.52-.36-.68-.57a7.56 7.56 0 0 1-.37-.52h-.1v4.03h-1.17Zm1.15-6.68c0 .58.09 1.09.26 1.53.17.44.41.78.74 1.03.32.24.72.37 1.2.37s.9-.13 1.22-.4c.33-.25.58-.6.75-1.05a4.3 4.3 0 0 0 0-2.93c-.16-.43-.4-.78-.74-1.03a1.96 1.96 0 0 0-1.24-.38 1.96 1.96 0 0 0-1.94 1.37 4.2 4.2 0 0 0-.25 1.5Zm10.7-3.82v1h-3.95v-1h3.95ZM52 23.53h1.17v7.28c0 .33.05.58.15.75.1.16.22.27.37.33.16.05.32.08.5.08l.31-.02.2-.04.24 1.05a2.38 2.38 0 0 1-.87.14c-.33 0-.66-.07-.98-.21a1.94 1.94 0 0 1-.78-.66 1.9 1.9 0 0 1-.31-1.1v-7.6ZM56.57 33v-7.64h1.17V33h-1.17Zm.6-8.9a.83.83 0 0 1-.6-.24.75.75 0 0 1-.24-.56c0-.22.08-.41.24-.57a.83.83 0 0 1 .6-.23c.22 0 .42.08.58.23.17.16.25.35.25.57 0 .21-.08.4-.25.56a.82.82 0 0 1-.59.23Zm5.82 9.06a3.2 3.2 0 0 1-1.81-.5 3.34 3.34 0 0 1-1.22-1.37 4.66 4.66 0 0 1-.43-2.07c0-.8.15-1.49.43-2.08a3.3 3.3 0 0 1 3.03-1.88 3.3 3.3 0 0 1 3.02 1.87c.3.6.44 1.3.44 2.1 0 .78-.14 1.47-.43 2.06a3.3 3.3 0 0 1-1.22 1.38 3.3 3.3 0 0 1-1.8.49Zm0-1.05c.53 0 .96-.14 1.3-.4.33-.28.58-.63.75-1.07a4.25 4.25 0 0 0 0-2.85 2.4 2.4 0 0 0-.75-1.06 2 2 0 0 0-1.3-.41 2 2 0 0 0-1.29.4 2.4 2.4 0 0 0-.75 1.07 4.1 4.1 0 0 0-.24 1.43c0 .51.08.99.24 1.42.16.44.41.8.75 1.06.34.27.77.4 1.3.4Zm6.43-3.7V33h-1.18v-7.64h1.14v1.2h.1c.18-.4.45-.7.81-.94.37-.24.84-.36 1.41-.36.52 0 .97.11 1.36.32.39.21.7.53.9.96.22.42.33.96.33 1.6V33h-1.17v-4.77c0-.6-.16-1.07-.47-1.4a1.65 1.65 0 0 0-1.28-.51c-.38 0-.71.08-1 .24-.3.16-.53.4-.7.71-.17.31-.25.7-.25 1.14Z" fill="#757575"/><rect x=".5" y="45.5" width="292" height="71" rx="3.5" fill="#fff"/><path d="M12.77 54.61v-1.25h8.73v1.25h-3.66V65h-1.4V54.61h-3.67ZM25.9 65.18a3.74 3.74 0 0 1-3.58-2.12 5.35 5.35 0 0 1-.5-2.36c0-.89.17-1.68.5-2.36a3.7 3.7 0 0 1 3.44-2.18 4 4 0 0 1 1.35.23 3.34 3.34 0 0 1 2.08 2.08c.21.55.32 1.24.32 2.05v.57h-6.73v-1.16h5.37c0-.5-.1-.93-.3-1.32a2.23 2.23 0 0 0-2.09-1.25 2.47 2.47 0 0 0-2.28 1.42 3 3 0 0 0-.31 1.36v.77c0 .66.11 1.22.34 1.68.23.45.55.8.96 1.03.4.24.88.36 1.43.36.35 0 .67-.05.95-.15.29-.1.54-.25.75-.45.2-.21.36-.46.48-.77l1.3.37a2.9 2.9 0 0 1-.7 1.16c-.32.33-.71.58-1.19.77-.47.18-1 .27-1.6.27Zm6.42-8.9 2.09 3.56 2.09-3.57h1.54l-2.82 4.37L38.03 65H36.5l-2.1-3.39L32.32 65h-1.55l2.77-4.36-2.77-4.37h1.55Zm11.43 0v1.13h-4.52v-1.14h4.52Zm-3.2-2.1h1.34v8.32c0 .38.05.66.16.85.12.19.26.31.43.38.18.06.37.09.57.09.14 0 .27 0 .36-.02l.23-.05.27 1.2a2.73 2.73 0 0 1-1 .16 2.7 2.7 0 0 1-1.11-.24 2.21 2.21 0 0 1-.9-.75 2.14 2.14 0 0 1-.35-1.26v-8.68Z" fill="#1F1F1F"/><rect x=".5" y="45.5" width="292" height="71" rx="3.5" stroke="#545454"/></svg>