<svg width="294" height="64" viewBox="0 0 294 64" fill="none" xmlns="http://www.w3.org/2000/svg">
<path d="M1.50426 11.1382V0.956365H3.34872V9.59202H7.8331V11.1382H1.50426ZM11.5518 11.2923C11.0679 11.2923 10.6321 11.2061 10.2443 11.0338C9.85985 10.8581 9.55492 10.5996 9.32955 10.2582C9.10748 9.91683 8.99645 9.4959 8.99645 8.99543C8.99645 8.56456 9.07599 8.20826 9.23509 7.92654C9.39418 7.64481 9.61127 7.41943 9.88636 7.2504C10.1615 7.08137 10.4714 6.95376 10.8161 6.86759C11.1641 6.7781 11.5237 6.71347 11.8949 6.67369C12.3423 6.62729 12.7053 6.58586 12.9837 6.5494C13.2621 6.50963 13.4643 6.44997 13.5902 6.37043C13.7195 6.28757 13.7841 6.15996 13.7841 5.98762V5.95779C13.7841 5.58326 13.6731 5.29325 13.451 5.08776C13.2289 4.88226 12.9091 4.77952 12.4915 4.77952C12.0507 4.77952 11.701 4.87564 11.4425 5.06787C11.1873 5.26011 11.0149 5.48714 10.9254 5.74898L9.24503 5.51034C9.3776 5.04633 9.59635 4.65854 9.90128 4.34699C10.2062 4.03212 10.5791 3.7968 11.0199 3.64102C11.4607 3.48193 11.9479 3.40239 12.4815 3.40239C12.8494 3.40239 13.2157 3.44548 13.5803 3.53165C13.9448 3.61782 14.2779 3.76034 14.5795 3.95921C14.8812 4.15476 15.1231 4.42156 15.3054 4.75963C15.491 5.0977 15.5838 5.52029 15.5838 6.02739V11.1382H13.8537V10.0892H13.794C13.6847 10.3013 13.5305 10.5002 13.3317 10.6858C13.1361 10.8681 12.8892 11.0156 12.5909 11.1282C12.2959 11.2376 11.9496 11.2923 11.5518 11.2923ZM12.0192 9.96986C12.3804 9.96986 12.6937 9.8986 12.9588 9.75608C13.224 9.61025 13.4278 9.41801 13.5703 9.17938C13.7161 8.94074 13.7891 8.68056 13.7891 8.39884V7.49898C13.7327 7.54538 13.6366 7.58847 13.5007 7.62824C13.3681 7.66801 13.219 7.70281 13.0533 7.73264C12.8875 7.76247 12.7235 7.78899 12.5611 7.81219C12.3987 7.83539 12.2578 7.85528 12.1385 7.87185C11.87 7.90831 11.6297 7.96797 11.4176 8.05083C11.2055 8.13369 11.0381 8.24969 10.9155 8.39884C10.7929 8.54467 10.7315 8.73359 10.7315 8.9656C10.7315 9.29704 10.8525 9.54727 11.0945 9.71631C11.3364 9.88534 11.6446 9.96986 12.0192 9.96986ZM17.473 11.1382V0.956365H19.2727V4.7646H19.3473C19.4401 4.579 19.571 4.38179 19.7401 4.17298C19.9091 3.96086 20.1378 3.78023 20.4261 3.63108C20.7145 3.47862 21.0824 3.40239 21.5298 3.40239C22.1198 3.40239 22.6518 3.55319 23.1257 3.8548C23.603 4.1531 23.9808 4.59557 24.2592 5.18222C24.541 5.76555 24.6818 6.48146 24.6818 7.32994C24.6818 8.16849 24.5443 8.88108 24.2692 9.46773C23.9941 10.0544 23.6196 10.5018 23.1456 10.8101C22.6716 11.1183 22.1347 11.2724 21.5348 11.2724C21.0973 11.2724 20.7344 11.1995 20.446 11.0537C20.1577 10.9078 19.9257 10.7322 19.75 10.5267C19.5777 10.3179 19.4434 10.1207 19.3473 9.93506H19.2429V11.1382H17.473ZM19.2379 7.32C19.2379 7.81385 19.3075 8.24637 19.4467 8.61759C19.5893 8.9888 19.7931 9.27881 20.0582 9.48762C20.3267 9.69311 20.6515 9.79585 21.0327 9.79585C21.4304 9.79585 21.7635 9.68979 22.032 9.47767C22.3004 9.26224 22.5026 8.96891 22.6385 8.5977C22.7777 8.22317 22.8473 7.79727 22.8473 7.32C22.8473 6.84604 22.7794 6.42512 22.6435 6.05722C22.5076 5.68932 22.3054 5.40097 22.0369 5.19216C21.7685 4.98335 21.4337 4.87895 21.0327 4.87895C20.6482 4.87895 20.3217 4.98004 20.0533 5.18222C19.7848 5.3844 19.581 5.66778 19.4418 6.03236C19.3059 6.39694 19.2379 6.82616 19.2379 7.32ZM29.5925 11.2873C28.8269 11.2873 28.1657 11.1282 27.6088 10.8101C27.0553 10.4886 26.6294 10.0345 26.3311 9.44784C26.0328 8.85788 25.8837 8.16351 25.8837 7.36475C25.8837 6.57923 26.0328 5.88984 26.3311 5.29656C26.6328 4.69997 27.0537 4.23596 27.5939 3.90452C28.1342 3.56976 28.7689 3.40239 29.498 3.40239C29.9687 3.40239 30.4128 3.47862 30.8304 3.63108C31.2514 3.78023 31.6226 4.01224 31.9441 4.3271C32.2689 4.64197 32.5241 5.04301 32.7097 5.53023C32.8953 6.01413 32.9881 6.59083 32.9881 7.26034V7.81219H26.7289V6.59912H31.263C31.2596 6.25442 31.1851 5.94784 31.0392 5.67938C30.8934 5.4076 30.6896 5.19382 30.4277 5.03804C30.1692 4.88226 29.8676 4.80438 29.5229 4.80438C29.155 4.80438 28.8319 4.89387 28.5534 5.07284C28.275 5.24851 28.0579 5.48051 27.9022 5.76887C27.7497 6.0539 27.6718 6.36711 27.6685 6.7085V7.76744C27.6685 8.21157 27.7497 8.59273 27.9121 8.91091C28.0745 9.22578 28.3016 9.46773 28.5932 9.63676C28.8849 9.80248 29.2263 9.88534 29.6174 9.88534C29.8792 9.88534 30.1162 9.84888 30.3283 9.77597C30.5404 9.69974 30.7244 9.5887 30.8801 9.44287C31.0359 9.29704 31.1536 9.1164 31.2331 8.90097L32.9135 9.08989C32.8075 9.53402 32.6053 9.9218 32.307 10.2532C32.012 10.5814 31.6342 10.8366 31.1735 11.0189C30.7128 11.1978 30.1858 11.2873 29.5925 11.2873ZM36.3104 0.956365V11.1382H34.5107V0.956365H36.3104ZM47.6692 5.52029L46.0286 5.69926C45.9822 5.53354 45.901 5.37777 45.785 5.23193C45.6723 5.0861 45.5198 4.96844 45.3276 4.87895C45.1354 4.78946 44.9 4.74472 44.6216 4.74472C44.2471 4.74472 43.9322 4.82592 43.677 4.98833C43.4251 5.15073 43.3008 5.36119 43.3042 5.61972C43.3008 5.84178 43.382 6.02242 43.5478 6.16162C43.7168 6.30083 43.9952 6.41517 44.383 6.50466L45.6855 6.78307C46.4081 6.93885 46.945 7.18577 47.2963 7.52384C47.651 7.86191 47.83 8.30438 47.8333 8.85125C47.83 9.33184 47.6891 9.75608 47.4107 10.124C47.1356 10.4886 46.7528 10.7736 46.2623 10.9791C45.7717 11.1846 45.2083 11.2873 44.5719 11.2873C43.6373 11.2873 42.8849 11.0918 42.3148 10.7007C41.7447 10.3063 41.405 9.75774 41.2956 9.05509L43.0506 8.88605C43.1301 9.23075 43.2992 9.49093 43.5577 9.66659C43.8162 9.84226 44.1526 9.93009 44.5669 9.93009C44.9945 9.93009 45.3375 9.84226 45.5961 9.66659C45.8579 9.49093 45.9888 9.27384 45.9888 9.01531C45.9888 8.79656 45.9043 8.61593 45.7353 8.47341C45.5695 8.33089 45.311 8.22152 44.9597 8.14529L43.6571 7.87185C42.9247 7.71939 42.3828 7.46252 42.0314 7.10125C41.6801 6.73667 41.5061 6.27597 41.5094 5.71915C41.5061 5.24851 41.6337 4.84083 41.8922 4.49614C42.1541 4.14813 42.517 3.87966 42.981 3.69074C43.4483 3.49851 43.9869 3.40239 44.5968 3.40239C45.4917 3.40239 46.196 3.59297 46.7097 3.97412C47.2267 4.35528 47.5466 4.87066 47.6692 5.52029ZM49.3173 11.1382V3.50182H51.0375V4.7994H51.127C51.286 4.3619 51.5495 4.02052 51.9174 3.77526C52.2853 3.52668 52.7245 3.40239 53.2349 3.40239C53.752 3.40239 54.1878 3.52834 54.5424 3.78023C54.9004 4.02881 55.1523 4.36853 55.2981 4.7994H55.3777C55.5467 4.37516 55.8317 4.03709 56.2328 3.7852C56.6371 3.52999 57.1161 3.40239 57.6696 3.40239C58.3722 3.40239 58.9456 3.62445 59.3897 4.06858C59.8339 4.51271 60.0559 5.16067 60.0559 6.01247V11.1382H58.2512V6.29088C58.2512 5.81692 58.1253 5.47057 57.8734 5.25182C57.6215 5.02976 57.3133 4.91872 56.9487 4.91872C56.5145 4.91872 56.1748 5.05461 55.9295 5.32639C55.6876 5.59486 55.5666 5.94453 55.5666 6.3754V11.1382H53.8017V6.21631C53.8017 5.8219 53.6824 5.50703 53.4437 5.27171C53.2084 5.03638 52.9002 4.91872 52.519 4.91872C52.2605 4.91872 52.0252 4.98501 51.813 5.11759C51.6009 5.24685 51.4319 5.4308 51.3059 5.66943C51.18 5.90476 51.117 6.17985 51.117 6.49472V11.1382H49.3173Z" fill="#333333"/>
<rect x="1" y="23.6382" width="292" height="39" rx="3.5" fill="white"/>
<path d="M16.0227 43.1382L12.8409 31.5018H14.2727L16.7045 40.9791H16.8182L19.2955 31.5018H20.8864L23.3636 40.9791H23.4773L25.9091 31.5018H27.3409L24.1591 43.1382H22.7045L20.1364 33.8655H20.0455L17.4773 43.1382H16.0227ZM28.3679 43.1382V34.4109H29.6634V35.7291H29.7543C29.9134 35.2973 30.2012 34.9469 30.6179 34.678C31.0346 34.409 31.5043 34.2745 32.027 34.2745C32.1255 34.2745 32.2486 34.2764 32.3963 34.2802C32.544 34.284 32.6558 34.2897 32.7315 34.2973V35.6609C32.6861 35.6495 32.5819 35.6325 32.419 35.6098C32.2599 35.5833 32.0914 35.57 31.9134 35.57C31.4891 35.57 31.1103 35.659 30.777 35.837C30.4474 36.0113 30.1861 36.2537 29.9929 36.5643C29.8035 36.8711 29.7088 37.2215 29.7088 37.6155V43.1382H28.3679ZM34.321 43.1382V34.4109H35.6619V43.1382H34.321ZM35.0028 32.9564C34.7415 32.9564 34.5161 32.8674 34.3267 32.6893C34.1411 32.5113 34.0483 32.2973 34.0483 32.0473C34.0483 31.7973 34.1411 31.5833 34.3267 31.4052C34.5161 31.2272 34.7415 31.1382 35.0028 31.1382C35.2642 31.1382 35.4877 31.2272 35.6733 31.4052C35.8627 31.5833 35.9574 31.7973 35.9574 32.0473C35.9574 32.2973 35.8627 32.5113 35.6733 32.6893C35.4877 32.8674 35.2642 32.9564 35.0028 32.9564ZM41.9134 34.4109V35.5473H37.3906V34.4109H41.9134ZM38.7088 32.32H40.0497V40.6382C40.0497 41.017 40.1046 41.3011 40.2145 41.4905C40.3281 41.6761 40.4721 41.8011 40.6463 41.8655C40.8243 41.9261 41.0118 41.9564 41.2088 41.9564C41.3565 41.9564 41.4777 41.9488 41.5724 41.9336C41.6671 41.9147 41.7429 41.8995 41.7997 41.8882L42.0724 43.0927C41.9815 43.1268 41.8546 43.1609 41.6918 43.195C41.5289 43.2329 41.3224 43.2518 41.0724 43.2518C40.6937 43.2518 40.3224 43.1704 39.9588 43.0075C39.599 42.8446 39.2997 42.5965 39.0611 42.2632C38.8262 41.9299 38.7088 41.5094 38.7088 41.0018V32.32ZM47.4957 43.32C46.6548 43.32 45.9295 43.1344 45.3196 42.7632C44.7135 42.3882 44.2457 41.8655 43.9162 41.195C43.5904 40.5208 43.4276 39.7367 43.4276 38.8427C43.4276 37.9488 43.5904 37.1609 43.9162 36.4791C44.2457 35.7935 44.7041 35.2594 45.2912 34.8768C45.8821 34.4905 46.5715 34.2973 47.3594 34.2973C47.8139 34.2973 48.2628 34.373 48.706 34.5245C49.1491 34.6761 49.5526 34.9223 49.9162 35.2632C50.2798 35.6003 50.5696 36.0473 50.7855 36.6041C51.0014 37.1609 51.1094 37.8465 51.1094 38.6609V39.2291H44.3821V38.07H49.7457C49.7457 37.5776 49.6473 37.1382 49.4503 36.7518C49.2571 36.3655 48.9806 36.0605 48.6207 35.837C48.2647 35.6136 47.8442 35.5018 47.3594 35.5018C46.8253 35.5018 46.3632 35.6344 45.973 35.8995C45.5866 36.1609 45.2893 36.5018 45.081 36.9223C44.8726 37.3427 44.7685 37.7935 44.7685 38.2745V39.0473C44.7685 39.7064 44.8821 40.2651 45.1094 40.7234C45.3404 41.178 45.6605 41.5245 46.0696 41.7632C46.4787 41.998 46.9541 42.1155 47.4957 42.1155C47.848 42.1155 48.1662 42.0662 48.4503 41.9677C48.7382 41.8655 48.9863 41.7139 49.1946 41.5132C49.4029 41.3086 49.5639 41.0549 49.6776 40.7518L50.973 41.1155C50.8366 41.5549 50.6075 41.9412 50.2855 42.2745C49.9635 42.6041 49.5658 42.8617 49.0923 43.0473C48.6188 43.2291 48.0866 43.32 47.4957 43.32ZM58.9901 37.8882V43.1382H57.6491V31.5018H58.9901V35.7745H59.1037C59.3082 35.3238 59.6151 34.9658 60.0241 34.7007C60.437 34.4317 60.9863 34.2973 61.6719 34.2973C62.2666 34.2973 62.7874 34.4166 63.2344 34.6552C63.6813 34.8901 64.0279 35.2518 64.2741 35.7405C64.5241 36.2253 64.6491 36.8427 64.6491 37.5927V43.1382H63.3082V37.6836C63.3082 36.9905 63.1283 36.4545 62.7685 36.0757C62.4124 35.6931 61.9181 35.5018 61.2855 35.5018C60.8461 35.5018 60.4522 35.5946 60.1037 35.7802C59.759 35.9658 59.4863 36.2367 59.2855 36.5927C59.0885 36.9488 58.9901 37.3806 58.9901 37.8882ZM70.7614 43.32C69.9205 43.32 69.1951 43.1344 68.5852 42.7632C67.9792 42.3882 67.5114 41.8655 67.1818 41.195C66.8561 40.5208 66.6932 39.7367 66.6932 38.8427C66.6932 37.9488 66.8561 37.1609 67.1818 36.4791C67.5114 35.7935 67.9697 35.2594 68.5568 34.8768C69.1477 34.4905 69.8371 34.2973 70.625 34.2973C71.0795 34.2973 71.5284 34.373 71.9716 34.5245C72.4148 34.6761 72.8182 34.9223 73.1818 35.2632C73.5455 35.6003 73.8352 36.0473 74.0511 36.6041C74.267 37.1609 74.375 37.8465 74.375 38.6609V39.2291H67.6477V38.07H73.0114C73.0114 37.5776 72.9129 37.1382 72.7159 36.7518C72.5227 36.3655 72.2462 36.0605 71.8864 35.837C71.5303 35.6136 71.1098 35.5018 70.625 35.5018C70.0909 35.5018 69.6288 35.6344 69.2386 35.8995C68.8523 36.1609 68.5549 36.5018 68.3466 36.9223C68.1383 37.3427 68.0341 37.7935 68.0341 38.2745V39.0473C68.0341 39.7064 68.1477 40.2651 68.375 40.7234C68.6061 41.178 68.9261 41.5245 69.3352 41.7632C69.7443 41.998 70.2197 42.1155 70.7614 42.1155C71.1136 42.1155 71.4318 42.0662 71.7159 41.9677C72.0038 41.8655 72.2519 41.7139 72.4602 41.5132C72.6686 41.3086 72.8295 41.0549 72.9432 40.7518L74.2386 41.1155C74.1023 41.5549 73.8731 41.9412 73.5511 42.2745C73.2292 42.6041 72.8314 42.8617 72.358 43.0473C71.8845 43.2291 71.3523 43.32 70.7614 43.32ZM76.4148 43.1382V34.4109H77.7102V35.7291H77.8011C77.9602 35.2973 78.2481 34.9469 78.6648 34.678C79.0814 34.409 79.5511 34.2745 80.0739 34.2745C80.1723 34.2745 80.2955 34.2764 80.4432 34.2802C80.5909 34.284 80.7027 34.2897 80.7784 34.2973V35.6609C80.733 35.6495 80.6288 35.6325 80.4659 35.6098C80.3068 35.5833 80.1383 35.57 79.9602 35.57C79.536 35.57 79.1572 35.659 78.8239 35.837C78.4943 36.0113 78.233 36.2537 78.0398 36.5643C77.8504 36.8711 77.7557 37.2215 77.7557 37.6155V43.1382H76.4148ZM85.7614 43.32C84.9205 43.32 84.1951 43.1344 83.5852 42.7632C82.9792 42.3882 82.5114 41.8655 82.1818 41.195C81.8561 40.5208 81.6932 39.7367 81.6932 38.8427C81.6932 37.9488 81.8561 37.1609 82.1818 36.4791C82.5114 35.7935 82.9697 35.2594 83.5568 34.8768C84.1477 34.4905 84.8371 34.2973 85.625 34.2973C86.0795 34.2973 86.5284 34.373 86.9716 34.5245C87.4148 34.6761 87.8182 34.9223 88.1818 35.2632C88.5455 35.6003 88.8352 36.0473 89.0511 36.6041C89.267 37.1609 89.375 37.8465 89.375 38.6609V39.2291H82.6477V38.07H88.0114C88.0114 37.5776 87.9129 37.1382 87.7159 36.7518C87.5227 36.3655 87.2462 36.0605 86.8864 35.837C86.5303 35.6136 86.1098 35.5018 85.625 35.5018C85.0909 35.5018 84.6288 35.6344 84.2386 35.8995C83.8523 36.1609 83.5549 36.5018 83.3466 36.9223C83.1383 37.3427 83.0341 37.7935 83.0341 38.2745V39.0473C83.0341 39.7064 83.1477 40.2651 83.375 40.7234C83.6061 41.178 83.9261 41.5245 84.3352 41.7632C84.7443 41.998 85.2197 42.1155 85.7614 42.1155C86.1136 42.1155 86.4318 42.0662 86.7159 41.9677C87.0038 41.8655 87.2519 41.7139 87.4602 41.5132C87.6686 41.3086 87.8295 41.0549 87.9432 40.7518L89.2386 41.1155C89.1023 41.5549 88.8731 41.9412 88.5511 42.2745C88.2292 42.6041 87.8314 42.8617 87.358 43.0473C86.8845 43.2291 86.3523 43.32 85.7614 43.32Z" fill="#757575"/>
<rect x="1" y="23.6382" width="292" height="39" rx="3.5" stroke="#545454"/>
</svg>
