<svg width="32" height="13" fill="none" xmlns="http://www.w3.org/2000/svg"><path d="M.77 1.61V.36H9.5v1.25H5.84V12h-1.4V1.61H.76ZM13.9 12.18a3.74 3.74 0 0 1-3.58-2.13 5.35 5.35 0 0 1-.5-2.35c0-.89.17-1.68.5-2.36a3.7 3.7 0 0 1 3.44-2.18 4 4 0 0 1 1.35.23 3.34 3.34 0 0 1 2.08 2.08c.21.55.32 1.24.32 2.05v.57h-6.73V6.93h5.37c0-.5-.1-.93-.3-1.32a2.23 2.23 0 0 0-2.09-1.25 2.47 2.47 0 0 0-2.28 1.42 3 3 0 0 0-.31 1.36v.77c0 .66.11 1.22.34 1.68a2.48 2.48 0 0 0 2.39 1.39c.35 0 .67-.05.95-.15a1.93 1.93 0 0 0 1.23-1.22l1.3.37a2.9 2.9 0 0 1-.7 1.16c-.32.33-.71.58-1.19.77-.47.18-1 .27-1.6.27Zm6.42-8.9 2.09 3.56 2.09-3.57h1.54l-2.82 4.37L26.03 12H24.5l-2.1-3.39L20.32 12h-1.55l2.77-4.36-2.77-4.37h1.55Zm11.43 0V4.4h-4.52V3.27h4.52Zm-3.2-2.1h1.34V9.5c0 .38.05.66.16.85.12.19.26.31.43.38.18.06.37.09.57.09.14 0 .27 0 .36-.02l.23-.05.27 1.2a2.73 2.73 0 0 1-1 .16 2.7 2.7 0 0 1-1.11-.24 2.21 2.21 0 0 1-.9-.74 2.14 2.14 0 0 1-.35-1.27V1.18Z" fill="#000"/></svg>