<svg width="294" height="103" viewBox="0 0 294 103" fill="none" xmlns="http://www.w3.org/2000/svg">
<rect x="1" y="0.638184" width="292" height="101" rx="3.5" fill="white"/>
<path d="M16.0227 20.1382L12.8409 8.50182H14.2727L16.7045 17.9791H16.8182L19.2955 8.50182H20.8864L23.3636 17.9791H23.4773L25.9091 8.50182H27.3409L24.1591 20.1382H22.7045L20.1364 10.8655H20.0455L17.4773 20.1382H16.0227ZM28.3679 20.1382V11.4109H29.6634V12.7291H29.7543C29.9134 12.2973 30.2012 11.9469 30.6179 11.678C31.0346 11.409 31.5043 11.2745 32.027 11.2745C32.1255 11.2745 32.2486 11.2764 32.3963 11.2802C32.544 11.284 32.6558 11.2897 32.7315 11.2973V12.6609C32.6861 12.6495 32.5819 12.6325 32.419 12.6098C32.2599 12.5833 32.0914 12.57 31.9134 12.57C31.4891 12.57 31.1103 12.659 30.777 12.837C30.4474 13.0113 30.1861 13.2537 29.9929 13.5643C29.8035 13.8711 29.7088 14.2215 29.7088 14.6155V20.1382H28.3679ZM34.321 20.1382V11.4109H35.6619V20.1382H34.321ZM35.0028 9.95637C34.7415 9.95637 34.5161 9.86735 34.3267 9.68932C34.1411 9.51129 34.0483 9.29727 34.0483 9.04727C34.0483 8.79727 34.1411 8.58326 34.3267 8.40523C34.5161 8.2272 34.7415 8.13818 35.0028 8.13818C35.2642 8.13818 35.4877 8.2272 35.6733 8.40523C35.8627 8.58326 35.9574 8.79727 35.9574 9.04727C35.9574 9.29727 35.8627 9.51129 35.6733 9.68932C35.4877 9.86735 35.2642 9.95637 35.0028 9.95637ZM41.9134 11.4109V12.5473H37.3906V11.4109H41.9134ZM38.7088 9.32H40.0497V17.6382C40.0497 18.017 40.1046 18.3011 40.2145 18.4905C40.3281 18.6761 40.4721 18.8011 40.6463 18.8655C40.8243 18.9261 41.0118 18.9564 41.2088 18.9564C41.3565 18.9564 41.4777 18.9488 41.5724 18.9336C41.6671 18.9147 41.7429 18.8995 41.7997 18.8882L42.0724 20.0927C41.9815 20.1268 41.8546 20.1609 41.6918 20.195C41.5289 20.2329 41.3224 20.2518 41.0724 20.2518C40.6937 20.2518 40.3224 20.1704 39.9588 20.0075C39.599 19.8446 39.2997 19.5965 39.0611 19.2632C38.8262 18.9299 38.7088 18.5094 38.7088 18.0018V9.32ZM47.4957 20.32C46.6548 20.32 45.9295 20.1344 45.3196 19.7632C44.7135 19.3882 44.2457 18.8655 43.9162 18.195C43.5904 17.5208 43.4276 16.7367 43.4276 15.8427C43.4276 14.9488 43.5904 14.1609 43.9162 13.4791C44.2457 12.7935 44.7041 12.2594 45.2912 11.8768C45.8821 11.4905 46.5715 11.2973 47.3594 11.2973C47.8139 11.2973 48.2628 11.373 48.706 11.5245C49.1491 11.6761 49.5526 11.9223 49.9162 12.2632C50.2798 12.6003 50.5696 13.0473 50.7855 13.6041C51.0014 14.1609 51.1094 14.8465 51.1094 15.6609V16.2291H44.3821V15.07H49.7457C49.7457 14.5776 49.6473 14.1382 49.4503 13.7518C49.2571 13.3655 48.9806 13.0605 48.6207 12.837C48.2647 12.6136 47.8442 12.5018 47.3594 12.5018C46.8253 12.5018 46.3632 12.6344 45.973 12.8995C45.5866 13.1609 45.2893 13.5018 45.081 13.9223C44.8726 14.3427 44.7685 14.7935 44.7685 15.2745V16.0473C44.7685 16.7064 44.8821 17.2651 45.1094 17.7234C45.3404 18.178 45.6605 18.5245 46.0696 18.7632C46.4787 18.998 46.9541 19.1155 47.4957 19.1155C47.848 19.1155 48.1662 19.0662 48.4503 18.9677C48.7382 18.8655 48.9863 18.7139 49.1946 18.5132C49.4029 18.3086 49.5639 18.0549 49.6776 17.7518L50.973 18.1155C50.8366 18.5549 50.6075 18.9412 50.2855 19.2745C49.9635 19.6041 49.5658 19.8617 49.0923 20.0473C48.6188 20.2291 48.0866 20.32 47.4957 20.32ZM58.9901 14.8882V20.1382H57.6491V8.50182H58.9901V12.7745H59.1037C59.3082 12.3238 59.6151 11.9658 60.0241 11.7007C60.437 11.4317 60.9863 11.2973 61.6719 11.2973C62.2666 11.2973 62.7874 11.4166 63.2344 11.6552C63.6813 11.8901 64.0279 12.2518 64.2741 12.7405C64.5241 13.2253 64.6491 13.8427 64.6491 14.5927V20.1382H63.3082V14.6836C63.3082 13.9905 63.1283 13.4545 62.7685 13.0757C62.4124 12.6931 61.9181 12.5018 61.2855 12.5018C60.8461 12.5018 60.4522 12.5946 60.1037 12.7802C59.759 12.9658 59.4863 13.2367 59.2855 13.5927C59.0885 13.9488 58.9901 14.3806 58.9901 14.8882ZM70.7614 20.32C69.9205 20.32 69.1951 20.1344 68.5852 19.7632C67.9792 19.3882 67.5114 18.8655 67.1818 18.195C66.8561 17.5208 66.6932 16.7367 66.6932 15.8427C66.6932 14.9488 66.8561 14.1609 67.1818 13.4791C67.5114 12.7935 67.9697 12.2594 68.5568 11.8768C69.1477 11.4905 69.8371 11.2973 70.625 11.2973C71.0795 11.2973 71.5284 11.373 71.9716 11.5245C72.4148 11.6761 72.8182 11.9223 73.1818 12.2632C73.5455 12.6003 73.8352 13.0473 74.0511 13.6041C74.267 14.1609 74.375 14.8465 74.375 15.6609V16.2291H67.6477V15.07H73.0114C73.0114 14.5776 72.9129 14.1382 72.7159 13.7518C72.5227 13.3655 72.2462 13.0605 71.8864 12.837C71.5303 12.6136 71.1098 12.5018 70.625 12.5018C70.0909 12.5018 69.6288 12.6344 69.2386 12.8995C68.8523 13.1609 68.5549 13.5018 68.3466 13.9223C68.1383 14.3427 68.0341 14.7935 68.0341 15.2745V16.0473C68.0341 16.7064 68.1477 17.2651 68.375 17.7234C68.6061 18.178 68.9261 18.5245 69.3352 18.7632C69.7443 18.998 70.2197 19.1155 70.7614 19.1155C71.1136 19.1155 71.4318 19.0662 71.7159 18.9677C72.0038 18.8655 72.2519 18.7139 72.4602 18.5132C72.6686 18.3086 72.8295 18.0549 72.9432 17.7518L74.2386 18.1155C74.1023 18.5549 73.8731 18.9412 73.5511 19.2745C73.2292 19.6041 72.8314 19.8617 72.358 20.0473C71.8845 20.2291 71.3523 20.32 70.7614 20.32ZM76.4148 20.1382V11.4109H77.7102V12.7291H77.8011C77.9602 12.2973 78.2481 11.9469 78.6648 11.678C79.0814 11.409 79.5511 11.2745 80.0739 11.2745C80.1723 11.2745 80.2955 11.2764 80.4432 11.2802C80.5909 11.284 80.7027 11.2897 80.7784 11.2973V12.6609C80.733 12.6495 80.6288 12.6325 80.4659 12.6098C80.3068 12.5833 80.1383 12.57 79.9602 12.57C79.536 12.57 79.1572 12.659 78.8239 12.837C78.4943 13.0113 78.233 13.2537 78.0398 13.5643C77.8504 13.8711 77.7557 14.2215 77.7557 14.6155V20.1382H76.4148ZM85.7614 20.32C84.9205 20.32 84.1951 20.1344 83.5852 19.7632C82.9792 19.3882 82.5114 18.8655 82.1818 18.195C81.8561 17.5208 81.6932 16.7367 81.6932 15.8427C81.6932 14.9488 81.8561 14.1609 82.1818 13.4791C82.5114 12.7935 82.9697 12.2594 83.5568 11.8768C84.1477 11.4905 84.8371 11.2973 85.625 11.2973C86.0795 11.2973 86.5284 11.373 86.9716 11.5245C87.4148 11.6761 87.8182 11.9223 88.1818 12.2632C88.5455 12.6003 88.8352 13.0473 89.0511 13.6041C89.267 14.1609 89.375 14.8465 89.375 15.6609V16.2291H82.6477V15.07H88.0114C88.0114 14.5776 87.9129 14.1382 87.7159 13.7518C87.5227 13.3655 87.2462 13.0605 86.8864 12.837C86.5303 12.6136 86.1098 12.5018 85.625 12.5018C85.0909 12.5018 84.6288 12.6344 84.2386 12.8995C83.8523 13.1609 83.5549 13.5018 83.3466 13.9223C83.1383 14.3427 83.0341 14.7935 83.0341 15.2745V16.0473C83.0341 16.7064 83.1477 17.2651 83.375 17.7234C83.6061 18.178 83.9261 18.5245 84.3352 18.7632C84.7443 18.998 85.2197 19.1155 85.7614 19.1155C86.1136 19.1155 86.4318 19.0662 86.7159 18.9677C87.0038 18.8655 87.2519 18.7139 87.4602 18.5132C87.6686 18.3086 87.8295 18.0549 87.9432 17.7518L89.2386 18.1155C89.1023 18.5549 88.8731 18.9412 88.5511 19.2745C88.2292 19.6041 87.8314 19.8617 87.358 20.0473C86.8845 20.2291 86.3523 20.32 85.7614 20.32Z" fill="#757575"/>
<rect x="1" y="0.638184" width="292" height="101" rx="3.5" stroke="#545454"/>
</svg>
