<svg width="260" height="113" fill="none" xmlns="http://www.w3.org/2000/svg"><path d="M4 10.53H.9V1.41h3.16c.9 0 1.68.18 2.33.54.66.37 1.16.89 1.5 1.57.36.68.53 1.5.53 2.44 0 .95-.17 1.77-.53 2.45a3.63 3.63 0 0 1-1.52 1.58 4.9 4.9 0 0 1-2.38.54ZM2.54 9.1H3.9a3.3 3.3 0 0 0 1.6-.34c.42-.24.74-.59.95-1.05a4.2 4.2 0 0 0 .32-1.75c0-.7-.1-1.28-.32-1.74a2.19 2.19 0 0 0-.95-1.04 3.15 3.15 0 0 0-1.55-.34h-1.4V9.1Zm10.4 1.57c-.68 0-1.27-.14-1.77-.43a2.9 2.9 0 0 1-1.15-1.22 4.1 4.1 0 0 1-.4-1.87c0-.7.13-1.32.4-1.85a3.03 3.03 0 0 1 2.84-1.7 3.02 3.02 0 0 1 2.2.83c.28.28.51.64.68 1.08.17.43.25.95.25 1.55v.5h-5.61v-1.1h4.06c0-.3-.07-.58-.2-.82a1.46 1.46 0 0 0-.55-.57c-.23-.14-.5-.21-.8-.21a1.59 1.59 0 0 0-1.46.86c-.14.26-.2.54-.21.84v.95c0 .4.07.74.22 1.03.14.28.35.5.6.65.27.15.58.22.93.22.23 0 .44-.03.63-.1a1.35 1.35 0 0 0 .82-.78l1.5.17c-.1.4-.27.74-.54 1.04-.27.3-.6.52-1.02.69a3.9 3.9 0 0 1-1.41.24Zm7.83-6.98v1.25h-3.93V3.69h3.93Zm-2.96-1.64h1.61v6.43c0 .21.04.38.1.5.07.1.16.18.27.23a1 1 0 0 0 .36.06 1.58 1.58 0 0 0 .48-.06l.27 1.26a3.59 3.59 0 0 1-.95.16 2.8 2.8 0 0 1-1.1-.18 1.7 1.7 0 0 1-.76-.64 1.89 1.89 0 0 1-.28-1.07v-6.7Zm6.28 8.62c-.43 0-.82-.07-1.17-.23a1.91 1.91 0 0 1-.82-.7 2 2 0 0 1-.3-1.13c0-.38.07-.7.22-.95.14-.26.33-.46.58-.61.25-.15.52-.27.83-.34.32-.08.64-.14.97-.18l.98-.1c.25-.05.43-.1.54-.17.12-.07.17-.19.17-.34v-.03c0-.34-.1-.6-.3-.78-.2-.18-.48-.28-.85-.28-.4 0-.71.09-.95.26-.22.17-.38.38-.46.61l-1.5-.21a2.4 2.4 0 0 1 1.59-1.68 4.27 4.27 0 0 1 2.3-.1c.32.08.62.21.89.39.27.17.48.41.65.72.16.3.25.68.25 1.13v4.58h-1.55V9.6h-.06a1.97 1.97 0 0 1-1.08.94c-.26.1-.57.14-.93.14Zm.42-1.18c.33 0 .6-.07.84-.2s.42-.3.55-.51c.13-.22.2-.45.2-.7v-.8a.76.76 0 0 1-.26.1l-.4.1a12.37 12.37 0 0 1-.82.13c-.24.03-.46.08-.65.16-.19.07-.34.18-.45.3a.76.76 0 0 0-.16.52c0 .3.1.52.32.67.22.15.5.23.83.23Zm4.82 1.04V3.7h1.61v6.84h-1.61Zm.81-7.81a.94.94 0 0 1-.66-.26.82.82 0 0 1-.27-.62c0-.24.09-.45.27-.62a.97.97 0 0 1 1.32 0c.19.17.28.38.28.62s-.1.45-.28.62a.93.93 0 0 1-.66.26Zm4.08-1.31v9.12H32.6V1.41h1.62ZM41.3 5.5l-1.47.16a1.18 1.18 0 0 0-.63-.74 1.5 1.5 0 0 0-.64-.12c-.33 0-.61.08-.84.22-.23.15-.34.34-.34.57 0 .2.07.36.22.48.15.13.4.23.75.31l1.17.25c.65.14 1.13.36 1.44.66.32.3.48.7.48 1.2 0 .43-.13.8-.38 1.14-.24.32-.58.58-1.02.76a3.9 3.9 0 0 1-1.52.28 3.5 3.5 0 0 1-2.02-.53 2.11 2.11 0 0 1-.92-1.47l1.58-.15c.07.3.22.54.45.7.23.15.53.23.9.23.39 0 .7-.08.93-.23.23-.16.35-.36.35-.59a.6.6 0 0 0-.23-.48 1.59 1.59 0 0 0-.7-.3l-1.16-.24a2.78 2.78 0 0 1-1.46-.7 1.7 1.7 0 0 1-.47-1.23c0-.43.12-.8.35-1.1.23-.31.56-.55.97-.72.42-.17.9-.26 1.45-.26.8 0 1.44.17 1.9.51.46.34.75.8.86 1.39Z" fill="#333"/><rect x=".45" y="21.74" width="259.1" height="90.55" rx="3.14" fill="#fff"/><path d="m13.92 38.47-2.86-10.44h1.29l2.18 8.5h.1l2.22-8.5h1.43l2.22 8.5h.1l2.18-8.5h1.28l-2.85 10.44h-1.3l-2.3-8.32h-.09l-2.3 8.32h-1.3Zm11.07 0v-7.83h1.16v1.18h.08c.14-.38.4-.7.77-.94.38-.24.8-.36 1.27-.36a13.32 13.32 0 0 1 .63.02v1.22a3.56 3.56 0 0 0-.74-.08c-.38 0-.72.08-1.01.24a1.76 1.76 0 0 0-.96 1.6v4.95h-1.2Zm5.33 0v-7.83h1.2v7.83h-1.2Zm.61-9.13a.85.85 0 0 1-.6-.24.77.77 0 0 1-.25-.58c0-.22.08-.41.25-.57a.85.85 0 0 1 .6-.24c.24 0 .44.08.6.24a.76.76 0 0 1 0 1.15.84.84 0 0 1-.6.24Zm6.2 1.3v1.02h-4.06v-1.02h4.06Zm-2.87-1.87h1.2v7.45c0 .34.05.6.15.77.1.16.23.28.38.33.16.06.33.09.5.09l.33-.02.2-.05.25 1.08a2.46 2.46 0 0 1-.9.15c-.33 0-.67-.08-1-.22a2.06 2.06 0 0 1-.8-.67c-.2-.3-.31-.67-.31-1.13v-7.78Zm7.87 9.86a3.35 3.35 0 0 1-3.2-1.9 4.8 4.8 0 0 1-.44-2.12c0-.8.14-1.5.43-2.11a3.31 3.31 0 0 1 3.09-1.96c.41 0 .81.07 1.2.2a2.99 2.99 0 0 1 1.87 1.87c.2.5.3 1.11.3 1.84v.51h-6.04v-1.04h4.81c0-.44-.09-.83-.26-1.18A2 2 0 0 0 42 31.62c-.48 0-.9.12-1.24.36-.35.23-.61.54-.8.91a2.7 2.7 0 0 0-.28 1.22v.69c0 .59.1 1.09.3 1.5.21.4.5.72.87.93.36.21.79.32 1.27.32.32 0 .6-.05.86-.13.26-.1.48-.23.67-.41.18-.18.33-.41.43-.68l1.16.32c-.12.4-.33.74-.61 1.04a3 3 0 0 1-1.07.7c-.43.16-.9.24-1.44.24Zm10.3-4.87v4.7h-1.2V28.04h1.21v3.83h.1c.18-.4.46-.72.83-.96.37-.24.86-.36 1.47-.36.54 0 1 .1 1.4.32.4.21.72.54.94.97.22.44.33 1 .33 1.66v4.98h-1.2v-4.9c0-.62-.16-1.1-.48-1.44a1.73 1.73 0 0 0-1.33-.51c-.4 0-.75.08-1.06.25-.31.17-.56.4-.74.73-.17.32-.26.7-.26 1.16ZM63 38.63a3.35 3.35 0 0 1-3.2-1.9 4.8 4.8 0 0 1-.44-2.12c0-.8.14-1.5.43-2.11a3.31 3.31 0 0 1 3.09-1.96c.4 0 .81.07 1.2.2a2.99 2.99 0 0 1 1.87 1.87c.2.5.3 1.11.3 1.84v.51H60.2v-1.04h4.81c0-.44-.09-.83-.26-1.18a2 2 0 0 0-1.88-1.12 2.26 2.26 0 0 0-2.04 1.27 2.7 2.7 0 0 0-.28 1.22v.69c0 .59.1 1.09.3 1.5.21.4.5.72.86.93.37.21.8.32 1.28.32.32 0 .6-.05.86-.13.26-.1.48-.23.67-.41.18-.18.33-.41.43-.68l1.16.32c-.12.4-.33.74-.62 1.04a3 3 0 0 1-1.07.7 4 4 0 0 1-1.43.24Zm5.07-.16v-7.83h1.16v1.18h.08c.15-.38.4-.7.78-.94.37-.24.8-.36 1.26-.36a13.3 13.3 0 0 1 .63.02v1.22a3.56 3.56 0 0 0-.73-.08c-.38 0-.72.08-1.02.24a1.76 1.76 0 0 0-.96 1.6v4.95h-1.2Zm8.38.16a3.35 3.35 0 0 1-3.2-1.9 4.8 4.8 0 0 1-.45-2.12c0-.8.15-1.5.44-2.11a3.31 3.31 0 0 1 3.09-1.96c.4 0 .8.07 1.2.2a2.99 2.99 0 0 1 1.87 1.87c.2.5.3 1.11.3 1.84v.51h-6.04v-1.04h4.8c0-.44-.08-.83-.26-1.18a2 2 0 0 0-1.87-1.12 2.26 2.26 0 0 0-2.04 1.27 2.7 2.7 0 0 0-.28 1.22v.69c0 .59.1 1.09.3 1.5.2.4.5.72.86.93.37.21.8.32 1.28.32.32 0 .6-.05.86-.13a1.85 1.85 0 0 0 1.1-1.09l1.16.32c-.12.4-.33.74-.62 1.04a3 3 0 0 1-1.07.7 4 4 0 0 1-1.43.24Zm9.88 2.77a2.64 2.64 0 0 1-.88-.14l.3-1.06c.3.07.56.1.78.08a.93.93 0 0 0 .6-.3c.18-.18.34-.46.48-.86l.23-.61-2.9-7.87h1.3l2.17 6.24h.08l2.16-6.24h1.3l-3.32 8.97c-.15.4-.33.74-.55 1a2.1 2.1 0 0 1-1.75.79Zm10.1-2.77c-.7 0-1.32-.17-1.85-.5a3.37 3.37 0 0 1-1.24-1.42c-.3-.6-.45-1.3-.45-2.12 0-.81.15-1.52.45-2.13.3-.6.7-1.08 1.24-1.42.53-.33 1.15-.5 1.86-.5.7 0 1.32.17 1.85.5.54.34.95.81 1.25 1.42.3.6.44 1.32.44 2.13 0 .81-.15 1.52-.44 2.12a3.35 3.35 0 0 1-3.1 1.91Zm0-1.08c.54 0 .99-.14 1.33-.41.35-.28.6-.64.77-1.09.17-.45.25-.93.25-1.46a4.2 4.2 0 0 0-.25-1.46 2.46 2.46 0 0 0-.77-1.1 2.05 2.05 0 0 0-1.32-.41c-.54 0-.98.14-1.33.42-.34.28-.6.64-.77 1.1a4.2 4.2 0 0 0-.25 1.45c0 .53.09 1.01.25 1.46.17.45.43.81.77 1.09.35.27.8.4 1.33.4Zm10.32-2.28v-4.63h1.2v7.83h-1.2v-1.33h-.08c-.19.4-.47.74-.86 1.02-.38.27-.87.4-1.47.4-.48 0-.92-.1-1.3-.31a2.25 2.25 0 0 1-.9-.98 3.72 3.72 0 0 1-.32-1.66v-4.97h1.2v4.9c0 .56.16 1.02.48 1.36.32.34.73.5 1.23.5a2.05 2.05 0 0 0 2.02-2.13Zm3.4 3.2v-7.83h1.17v1.18h.08c.14-.38.4-.7.77-.94s.8-.36 1.26-.36a13.29 13.29 0 0 1 .64.02v1.22a3.58 3.58 0 0 0-.74-.08c-.38 0-.72.08-1.02.24a1.76 1.76 0 0 0-.96 1.6v4.95h-1.2ZM123 30.64v1.02h-4.22v-1.02H123Zm-2.95 7.83v-8.9c0-.46.1-.83.31-1.13.21-.3.48-.52.82-.67a3.02 3.02 0 0 1 2.2-.02l-.34 1.04a6.27 6.27 0 0 0-.25-.08 1.6 1.6 0 0 0-.42-.05c-.4 0-.69.1-.86.3-.18.2-.26.5-.26.89v8.62h-1.2Zm7.6.16a3.35 3.35 0 0 1-3.2-1.9 4.8 4.8 0 0 1-.45-2.12c0-.8.14-1.5.43-2.11a3.31 3.31 0 0 1 3.09-1.96c.4 0 .81.07 1.2.2a3 3 0 0 1 1.87 1.87c.2.5.3 1.11.3 1.84v.51h-6.04v-1.04h4.81c0-.44-.09-.83-.26-1.18a2 2 0 0 0-1.88-1.12c-.48 0-.9.12-1.24.36-.35.23-.61.54-.8.91a2.7 2.7 0 0 0-.28 1.22v.69c0 .59.1 1.09.3 1.5.21.4.5.72.86.93.37.21.8.32 1.28.32.32 0 .6-.05.86-.13.26-.1.48-.23.67-.41.18-.18.33-.41.43-.68l1.16.32c-.12.4-.33.74-.62 1.04a3 3 0 0 1-1.07.7 4 4 0 0 1-1.43.24Zm8.34 0a3.35 3.35 0 0 1-3.2-1.9 4.8 4.8 0 0 1-.44-2.12c0-.8.14-1.5.43-2.11a3.3 3.3 0 0 1 3.09-1.96c.4 0 .81.07 1.2.2a3 3 0 0 1 1.87 1.87c.2.5.3 1.11.3 1.84v.51h-6.04v-1.04h4.8c0-.44-.08-.83-.26-1.18a2 2 0 0 0-1.87-1.12 2.26 2.26 0 0 0-2.04 1.27 2.7 2.7 0 0 0-.28 1.22v.69c0 .59.1 1.09.3 1.5.21.4.5.72.86.93.37.21.8.32 1.28.32.32 0 .6-.05.86-.13a1.85 1.85 0 0 0 1.1-1.09l1.16.32c-.12.4-.33.74-.62 1.04a3 3 0 0 1-1.07.7 4 4 0 0 1-1.43.24Zm8.02 0a3.06 3.06 0 0 1-2.9-1.9 5.08 5.08 0 0 1-.42-2.16c0-.82.15-1.53.43-2.14a3.1 3.1 0 0 1 2.92-1.9 2.24 2.24 0 0 1 1.89.83l.37.52h.1v-3.85h1.2v10.44h-1.16v-1.2h-.14l-.38.53c-.16.22-.4.4-.7.58-.3.17-.7.25-1.2.25Zm.17-1.08c.48 0 .89-.13 1.22-.38.33-.25.59-.6.76-1.05.17-.45.26-.98.26-1.57 0-.58-.08-1.1-.25-1.53a2 2 0 0 0-1.99-1.4 2 2 0 0 0-1.28.4c-.33.25-.59.6-.75 1.05-.17.44-.25.93-.25 1.48 0 .56.08 1.07.25 1.52.17.45.43.81.76 1.08a2 2 0 0 0 1.27.4Zm5.95.92V28.03h1.2v3.85h.1l.37-.52c.16-.2.4-.4.69-.57.3-.17.7-.25 1.2-.25a3.1 3.1 0 0 1 2.93 1.9 5 5 0 0 1 .42 2.13c0 .83-.14 1.55-.42 2.16a3.06 3.06 0 0 1-2.9 1.9c-.5 0-.9-.08-1.2-.25a2.07 2.07 0 0 1-.7-.58 4.3 4.3 0 0 1-.38-.54h-.15v1.2h-1.16Zm1.19-3.92c0 .6.08 1.12.25 1.57.18.45.43.8.76 1.05a2 2 0 0 0 1.23.38c.5 0 .92-.13 1.25-.4.34-.27.6-.63.77-1.08a4.29 4.29 0 0 0 0-3 2.3 2.3 0 0 0-.76-1.06 2 2 0 0 0-1.26-.4 2 2 0 0 0-1.99 1.41c-.17.44-.25.95-.25 1.53Zm9.86 4.1c-.5 0-.94-.1-1.35-.28a2.4 2.4 0 0 1-.96-.82 2.3 2.3 0 0 1-.36-1.3 2 2 0 0 1 .27-1.1c.17-.28.41-.5.7-.66.3-.16.63-.28.98-.35.36-.09.72-.15 1.09-.2l1.16-.14c.3-.03.51-.09.65-.16.14-.08.2-.22.2-.41v-.04c0-.5-.13-.9-.4-1.17-.28-.28-.7-.42-1.24-.42-.58 0-1.03.12-1.35.38-.33.25-.56.52-.7.8l-1.13-.4a2.73 2.73 0 0 1 1.93-1.68 4.65 4.65 0 0 1 2.07-.07c.33.06.65.18.95.36.31.19.57.46.77.83.2.37.3.87.3 1.5v5.15h-1.2V37.4h-.06c-.08.17-.21.35-.4.54a2.51 2.51 0 0 1-1.92.7Zm.19-1.08c.47 0 .87-.1 1.2-.28a1.9 1.9 0 0 0 1-1.66v-1.1a.81.81 0 0 1-.34.17c-.17.05-.37.1-.6.13a27.21 27.21 0 0 1-1.14.15c-.31.04-.6.1-.88.2a1.5 1.5 0 0 0-.65.4c-.16.18-.25.42-.25.73 0 .41.16.73.47.94.31.21.7.32 1.19.32Zm8.77 1.06a3.4 3.4 0 0 1-1.9-.52 3.38 3.38 0 0 1-1.22-1.43 4.94 4.94 0 0 1-.42-2.09c0-.79.14-1.5.43-2.1a3.3 3.3 0 0 1 3.09-1.95c.55 0 1.05.1 1.49.3a2.75 2.75 0 0 1 1.61 2.14h-1.2a1.9 1.9 0 0 0-.62-.94 1.83 1.83 0 0 0-1.26-.42c-.47 0-.88.12-1.23.37a2.4 2.4 0 0 0-.82 1.02c-.2.44-.3.95-.3 1.54 0 .6.1 1.13.3 1.58.19.45.46.8.8 1.05a2.3 2.3 0 0 0 2.1.21 1.76 1.76 0 0 0 1.03-1.2h1.2a2.79 2.79 0 0 1-1.56 2.12 3.4 3.4 0 0 1-1.52.32Zm5.96-3.02-.02-1.48h.24l3.42-3.49h1.5l-3.66 3.69h-.1l-1.38 1.28Zm-1.13 2.86V28.03h1.2v10.44h-1.2Zm4.98 0-3.06-3.88.86-.83 3.72 4.7h-1.52Z" fill="#757575"/><rect x=".45" y="21.74" width="259.1" height="90.55" rx="3.14" stroke="#545454" stroke-width=".9"/></svg>