<svg width="290" height="148" viewBox="0 0 290 148" fill="none" xmlns="http://www.w3.org/2000/svg">
<path d="M1.00426 11.1382V0.956365H2.84872V9.59202H7.3331V11.1382H1.00426ZM11.0518 11.2923C10.5679 11.2923 10.1321 11.2061 9.74432 11.0338C9.35985 10.8581 9.05492 10.5996 8.82955 10.2582C8.60748 9.91683 8.49645 9.4959 8.49645 8.99543C8.49645 8.56456 8.57599 8.20826 8.73509 7.92654C8.89418 7.64481 9.11127 7.41943 9.38636 7.2504C9.66146 7.08137 9.97135 6.95376 10.3161 6.86759C10.6641 6.7781 11.0237 6.71347 11.3949 6.67369C11.8423 6.62729 12.2053 6.58586 12.4837 6.5494C12.7621 6.50963 12.9643 6.44997 13.0902 6.37043C13.2195 6.28757 13.2841 6.15996 13.2841 5.98762V5.95779C13.2841 5.58326 13.1731 5.29325 12.951 5.08776C12.7289 4.88226 12.4091 4.77952 11.9915 4.77952C11.5507 4.77952 11.201 4.87564 10.9425 5.06787C10.6873 5.26011 10.5149 5.48714 10.4254 5.74898L8.74503 5.51034C8.8776 5.04633 9.09635 4.65854 9.40128 4.34699C9.7062 4.03212 10.0791 3.7968 10.5199 3.64102C10.9607 3.48193 11.4479 3.40239 11.9815 3.40239C12.3494 3.40239 12.7157 3.44548 13.0803 3.53165C13.4448 3.61782 13.7779 3.76034 14.0795 3.95921C14.3812 4.15476 14.6231 4.42156 14.8054 4.75963C14.991 5.0977 15.0838 5.52029 15.0838 6.02739V11.1382H13.3537V10.0892H13.294C13.1847 10.3013 13.0305 10.5002 12.8317 10.6858C12.6361 10.8681 12.3892 11.0156 12.0909 11.1282C11.7959 11.2376 11.4496 11.2923 11.0518 11.2923ZM11.5192 9.96986C11.8804 9.96986 12.1937 9.8986 12.4588 9.75608C12.724 9.61025 12.9278 9.41801 13.0703 9.17938C13.2161 8.94074 13.2891 8.68056 13.2891 8.39884V7.49898C13.2327 7.54538 13.1366 7.58847 13.0007 7.62824C12.8681 7.66801 12.719 7.70281 12.5533 7.73264C12.3875 7.76247 12.2235 7.78899 12.0611 7.81219C11.8987 7.83539 11.7578 7.85528 11.6385 7.87185C11.37 7.90831 11.1297 7.96797 10.9176 8.05083C10.7055 8.13369 10.5381 8.24969 10.4155 8.39884C10.2929 8.54467 10.2315 8.73359 10.2315 8.9656C10.2315 9.29704 10.3525 9.54727 10.5945 9.71631C10.8364 9.88534 11.1446 9.96986 11.5192 9.96986ZM16.973 11.1382V0.956365H18.7727V4.7646H18.8473C18.9401 4.579 19.071 4.38179 19.2401 4.17298C19.4091 3.96086 19.6378 3.78023 19.9261 3.63108C20.2145 3.47862 20.5824 3.40239 21.0298 3.40239C21.6198 3.40239 22.1518 3.55319 22.6257 3.8548C23.103 4.1531 23.4808 4.59557 23.7592 5.18222C24.041 5.76555 24.1818 6.48146 24.1818 7.32994C24.1818 8.16849 24.0443 8.88108 23.7692 9.46773C23.4941 10.0544 23.1196 10.5018 22.6456 10.8101C22.1716 11.1183 21.6347 11.2724 21.0348 11.2724C20.5973 11.2724 20.2344 11.1995 19.946 11.0537C19.6577 10.9078 19.4257 10.7322 19.25 10.5267C19.0777 10.3179 18.9434 10.1207 18.8473 9.93506H18.7429V11.1382H16.973ZM18.7379 7.32C18.7379 7.81385 18.8075 8.24637 18.9467 8.61759C19.0893 8.9888 19.2931 9.27881 19.5582 9.48762C19.8267 9.69311 20.1515 9.79585 20.5327 9.79585C20.9304 9.79585 21.2635 9.68979 21.532 9.47767C21.8004 9.26224 22.0026 8.96891 22.1385 8.5977C22.2777 8.22317 22.3473 7.79727 22.3473 7.32C22.3473 6.84604 22.2794 6.42512 22.1435 6.05722C22.0076 5.68932 21.8054 5.40097 21.5369 5.19216C21.2685 4.98335 20.9337 4.87895 20.5327 4.87895C20.1482 4.87895 19.8217 4.98004 19.5533 5.18222C19.2848 5.3844 19.081 5.66778 18.9418 6.03236C18.8059 6.39694 18.7379 6.82616 18.7379 7.32ZM29.0925 11.2873C28.3269 11.2873 27.6657 11.1282 27.1088 10.8101C26.5553 10.4886 26.1294 10.0345 25.8311 9.44784C25.5328 8.85788 25.3837 8.16351 25.3837 7.36475C25.3837 6.57923 25.5328 5.88984 25.8311 5.29656C26.1328 4.69997 26.5537 4.23596 27.0939 3.90452C27.6342 3.56976 28.2689 3.40239 28.998 3.40239C29.4687 3.40239 29.9128 3.47862 30.3304 3.63108C30.7514 3.78023 31.1226 4.01224 31.4441 4.3271C31.7689 4.64197 32.0241 5.04301 32.2097 5.53023C32.3953 6.01413 32.4881 6.59083 32.4881 7.26034V7.81219H26.2289V6.59912H30.763C30.7596 6.25442 30.6851 5.94784 30.5392 5.67938C30.3934 5.4076 30.1896 5.19382 29.9277 5.03804C29.6692 4.88226 29.3676 4.80438 29.0229 4.80438C28.655 4.80438 28.3319 4.89387 28.0534 5.07284C27.775 5.24851 27.5579 5.48051 27.4022 5.76887C27.2497 6.0539 27.1718 6.36711 27.1685 6.7085V7.76744C27.1685 8.21157 27.2497 8.59273 27.4121 8.91091C27.5745 9.22578 27.8016 9.46773 28.0932 9.63676C28.3849 9.80248 28.7263 9.88534 29.1174 9.88534C29.3792 9.88534 29.6162 9.84888 29.8283 9.77597C30.0404 9.69974 30.2244 9.5887 30.3801 9.44287C30.5359 9.29704 30.6536 9.1164 30.7331 8.90097L32.4135 9.08989C32.3075 9.53402 32.1053 9.9218 31.807 10.2532C31.512 10.5814 31.1342 10.8366 30.6735 11.0189C30.2128 11.1978 29.6858 11.2873 29.0925 11.2873ZM35.8104 0.956365V11.1382H34.0107V0.956365H35.8104ZM41.1337 11.1382V3.50182H42.8787V4.77455H42.9583C43.0975 4.33373 43.3361 3.99401 43.6742 3.75537C44.0156 3.51342 44.405 3.39244 44.8425 3.39244C44.9419 3.39244 45.053 3.39742 45.1756 3.40736C45.3016 3.41399 45.406 3.42559 45.4888 3.44216V5.0977C45.4126 5.07119 45.2916 5.04798 45.1259 5.0281C44.9635 5.0049 44.806 4.9933 44.6536 4.9933C44.3255 4.9933 44.0305 5.06456 43.7686 5.20708C43.5101 5.34628 43.3063 5.54017 43.1571 5.78875C43.008 6.03733 42.9334 6.32403 42.9334 6.64884V11.1382H41.1337ZM49.7507 11.2873C48.9851 11.2873 48.3239 11.1282 47.767 10.8101C47.2135 10.4886 46.7876 10.0345 46.4893 9.44784C46.1911 8.85788 46.0419 8.16351 46.0419 7.36475C46.0419 6.57923 46.1911 5.88984 46.4893 5.29656C46.791 4.69997 47.2119 4.23596 47.7521 3.90452C48.2924 3.56976 48.9271 3.40239 49.6562 3.40239C50.1269 3.40239 50.571 3.47862 50.9886 3.63108C51.4096 3.78023 51.7808 4.01224 52.1023 4.3271C52.4271 4.64197 52.6823 5.04301 52.8679 5.53023C53.0535 6.01413 53.1463 6.59083 53.1463 7.26034V7.81219H46.8871V6.59912H51.4212C51.4179 6.25442 51.3433 5.94784 51.1974 5.67938C51.0516 5.4076 50.8478 5.19382 50.5859 5.03804C50.3274 4.88226 50.0258 4.80438 49.6811 4.80438C49.3132 4.80438 48.9901 4.89387 48.7116 5.07284C48.4332 5.24851 48.2161 5.48051 48.0604 5.76887C47.9079 6.0539 47.83 6.36711 47.8267 6.7085V7.76744C47.8267 8.21157 47.9079 8.59273 48.0703 8.91091C48.2327 9.22578 48.4598 9.46773 48.7514 9.63676C49.0431 9.80248 49.3845 9.88534 49.7756 9.88534C50.0374 9.88534 50.2744 9.84888 50.4865 9.77597C50.6986 9.69974 50.8826 9.5887 51.0384 9.44287C51.1941 9.29704 51.3118 9.1164 51.3913 8.90097L53.0717 9.08989C52.9657 9.53402 52.7635 9.9218 52.4652 10.2532C52.1702 10.5814 51.7924 10.8366 51.3317 11.0189C50.871 11.1978 50.344 11.2873 49.7507 11.2873ZM59.7647 14.0018V9.93506H59.6902C59.5974 10.1207 59.4631 10.3179 59.2875 10.5267C59.1118 10.7322 58.8798 10.9078 58.5914 11.0537C58.3031 11.1995 57.9402 11.2724 57.5027 11.2724C56.9028 11.2724 56.3658 11.1183 55.8919 10.8101C55.4179 10.5018 55.0434 10.0544 54.7683 9.46773C54.4932 8.88108 54.3556 8.16849 54.3556 7.32994C54.3556 6.48146 54.4949 5.76555 54.7733 5.18222C55.055 4.59557 55.4345 4.1531 55.9118 3.8548C56.389 3.55319 56.921 3.40239 57.5076 3.40239C57.9551 3.40239 58.323 3.47862 58.6113 3.63108C58.8997 3.78023 59.1284 3.96086 59.2974 4.17298C59.4664 4.38179 59.5974 4.579 59.6902 4.7646H59.7995V3.50182H61.5694V14.0018H59.7647ZM58.0048 9.79585C58.3859 9.79585 58.7108 9.69311 58.9792 9.48762C59.2477 9.27881 59.4515 8.9888 59.5907 8.61759C59.7299 8.24637 59.7995 7.81385 59.7995 7.32C59.7995 6.82616 59.7299 6.39694 59.5907 6.03236C59.4548 5.66778 59.2527 5.3844 58.9842 5.18222C58.719 4.98004 58.3926 4.87895 58.0048 4.87895C57.6038 4.87895 57.269 4.98335 57.0005 5.19216C56.7321 5.40097 56.5299 5.68932 56.394 6.05722C56.2581 6.42512 56.1902 6.84604 56.1902 7.32C56.1902 7.79727 56.2581 8.22317 56.394 8.5977C56.5332 8.96891 56.737 9.26224 57.0055 9.47767C57.2773 9.68979 57.6104 9.79585 58.0048 9.79585ZM68.286 7.92654V3.50182H70.0858V11.1382H68.3407V9.78094H68.2612C68.0888 10.2085 67.8055 10.5582 67.411 10.8299C67.0199 11.1017 66.5377 11.2376 65.9643 11.2376C65.4638 11.2376 65.0214 11.1266 64.6369 10.9045C64.2557 10.6791 63.9574 10.3527 63.742 9.92512C63.5266 9.49424 63.4189 8.97388 63.4189 8.36404V3.50182H65.2186V8.08563C65.2186 8.56953 65.3511 8.954 65.6163 9.23904C65.8815 9.52407 66.2295 9.66659 66.6603 9.66659C66.9255 9.66659 67.1824 9.60196 67.4309 9.4727C67.6795 9.34344 67.8833 9.1512 68.0424 8.896C68.2048 8.63747 68.286 8.31432 68.286 7.92654ZM71.9364 11.1382V3.50182H73.7362V11.1382H71.9364ZM72.8413 2.41801C72.5562 2.41801 72.311 2.32355 72.1055 2.13463C71.9 1.9424 71.7972 1.71205 71.7972 1.44358C71.7972 1.1718 71.9 0.94145 72.1055 0.75253C72.311 0.560295 72.5562 0.464178 72.8413 0.464178C73.1296 0.464178 73.3749 0.560295 73.5771 0.75253C73.7826 0.94145 73.8853 1.1718 73.8853 1.44358C73.8853 1.71205 73.7826 1.9424 73.5771 2.13463C73.3749 2.32355 73.1296 2.41801 72.8413 2.41801ZM75.5868 11.1382V3.50182H77.3319V4.77455H77.4114C77.5506 4.33373 77.7892 3.99401 78.1273 3.75537C78.4687 3.51342 78.8581 3.39244 79.2956 3.39244C79.3951 3.39244 79.5061 3.39742 79.6287 3.40736C79.7547 3.41399 79.8591 3.42559 79.9419 3.44216V5.0977C79.8657 5.07119 79.7447 5.04798 79.579 5.0281C79.4166 5.0049 79.2592 4.9933 79.1067 4.9933C78.7786 4.9933 78.4836 5.06456 78.2218 5.20708C77.9632 5.34628 77.7594 5.54017 77.6103 5.78875C77.4611 6.03733 77.3865 6.32403 77.3865 6.64884V11.1382H75.5868ZM84.2038 11.2873C83.4382 11.2873 82.777 11.1282 82.2202 10.8101C81.6667 10.4886 81.2408 10.0345 80.9425 9.44784C80.6442 8.85788 80.495 8.16351 80.495 7.36475C80.495 6.57923 80.6442 5.88984 80.9425 5.29656C81.2441 4.69997 81.665 4.23596 82.2053 3.90452C82.7455 3.56976 83.3802 3.40239 84.1094 3.40239C84.58 3.40239 85.0241 3.47862 85.4418 3.63108C85.8627 3.78023 86.2339 4.01224 86.5554 4.3271C86.8802 4.64197 87.1354 5.04301 87.321 5.53023C87.5066 6.01413 87.5994 6.59083 87.5994 7.26034V7.81219H81.3402V6.59912H85.8743C85.871 6.25442 85.7964 5.94784 85.6506 5.67938C85.5047 5.4076 85.3009 5.19382 85.0391 5.03804C84.7805 4.88226 84.4789 4.80438 84.1342 4.80438C83.7663 4.80438 83.4432 4.89387 83.1648 5.07284C82.8864 5.24851 82.6693 5.48051 82.5135 5.76887C82.361 6.0539 82.2831 6.36711 82.2798 6.7085V7.76744C82.2798 8.21157 82.361 8.59273 82.5234 8.91091C82.6858 9.22578 82.9129 9.46773 83.2045 9.63676C83.4962 9.80248 83.8376 9.88534 84.2287 9.88534C84.4905 9.88534 84.7275 9.84888 84.9396 9.77597C85.1518 9.69974 85.3357 9.5887 85.4915 9.44287C85.6473 9.29704 85.7649 9.1164 85.8445 8.90097L87.5249 9.08989C87.4188 9.53402 87.2166 9.9218 86.9183 10.2532C86.6233 10.5814 86.2455 10.8366 85.7848 11.0189C85.3241 11.1978 84.7971 11.2873 84.2038 11.2873ZM91.9558 11.2724C91.3559 11.2724 90.819 11.1183 90.345 10.8101C89.871 10.5018 89.4965 10.0544 89.2214 9.46773C88.9463 8.88108 88.8088 8.16849 88.8088 7.32994C88.8088 6.48146 88.948 5.76555 89.2264 5.18222C89.5081 4.59557 89.8876 4.1531 90.3649 3.8548C90.8422 3.55319 91.3741 3.40239 91.9608 3.40239C92.4082 3.40239 92.7761 3.47862 93.0645 3.63108C93.3528 3.78023 93.5815 3.96086 93.7505 4.17298C93.9196 4.38179 94.0505 4.579 94.1433 4.7646H94.2179V0.956365H96.0225V11.1382H94.2527V9.93506H94.1433C94.0505 10.1207 93.9163 10.3179 93.7406 10.5267C93.5649 10.7322 93.3329 10.9078 93.0446 11.0537C92.7562 11.1995 92.3933 11.2724 91.9558 11.2724ZM92.4579 9.79585C92.8391 9.79585 93.1639 9.69311 93.4324 9.48762C93.7008 9.27881 93.9047 8.9888 94.0439 8.61759C94.1831 8.24637 94.2527 7.81385 94.2527 7.32C94.2527 6.82616 94.1831 6.39694 94.0439 6.03236C93.908 5.66778 93.7058 5.3844 93.4373 5.18222C93.1722 4.98004 92.8457 4.87895 92.4579 4.87895C92.0569 4.87895 91.7221 4.98335 91.4537 5.19216C91.1852 5.40097 90.983 5.68932 90.8471 6.05722C90.7112 6.42512 90.6433 6.84604 90.6433 7.32C90.6433 7.79727 90.7112 8.22317 90.8471 8.5977C90.9863 8.96891 91.1902 9.26224 91.4586 9.47767C91.7304 9.68979 92.0635 9.79585 92.4579 9.79585ZM107.449 5.52029L105.808 5.69926C105.761 5.53354 105.68 5.37777 105.564 5.23193C105.452 5.0861 105.299 4.96844 105.107 4.87895C104.915 4.78946 104.679 4.74472 104.401 4.74472C104.026 4.74472 103.712 4.82592 103.456 4.98833C103.204 5.15073 103.08 5.36119 103.083 5.61972C103.08 5.84178 103.161 6.02242 103.327 6.16162C103.496 6.30083 103.775 6.41517 104.162 6.50466L105.465 6.78307C106.187 6.93885 106.724 7.18577 107.076 7.52384C107.43 7.86191 107.609 8.30438 107.613 8.85125C107.609 9.33184 107.468 9.75608 107.19 10.124C106.915 10.4886 106.532 10.7736 106.042 10.9791C105.551 11.1846 104.988 11.2873 104.351 11.2873C103.417 11.2873 102.664 11.0918 102.094 10.7007C101.524 10.3063 101.184 9.75774 101.075 9.05509L102.83 8.88605C102.909 9.23075 103.078 9.49093 103.337 9.66659C103.596 9.84226 103.932 9.93009 104.346 9.93009C104.774 9.93009 105.117 9.84226 105.375 9.66659C105.637 9.49093 105.768 9.27384 105.768 9.01531C105.768 8.79656 105.684 8.61593 105.515 8.47341C105.349 8.33089 105.09 8.22152 104.739 8.14529L103.436 7.87185C102.704 7.71939 102.162 7.46252 101.811 7.10125C101.459 6.73667 101.285 6.27597 101.289 5.71915C101.285 5.24851 101.413 4.84083 101.672 4.49614C101.933 4.14813 102.296 3.87966 102.76 3.69074C103.228 3.49851 103.766 3.40239 104.376 3.40239C105.271 3.40239 105.975 3.59297 106.489 3.97412C107.006 4.35528 107.326 4.87066 107.449 5.52029ZM109.097 11.1382V3.50182H110.817V4.7994H110.906C111.065 4.3619 111.329 4.02052 111.697 3.77526C112.065 3.52668 112.504 3.40239 113.014 3.40239C113.531 3.40239 113.967 3.52834 114.322 3.78023C114.68 4.02881 114.932 4.36853 115.077 4.7994H115.157C115.326 4.37516 115.611 4.03709 116.012 3.7852C116.416 3.52999 116.895 3.40239 117.449 3.40239C118.152 3.40239 118.725 3.62445 119.169 4.06858C119.613 4.51271 119.835 5.16067 119.835 6.01247V11.1382H118.031V6.29088C118.031 5.81692 117.905 5.47057 117.653 5.25182C117.401 5.02976 117.093 4.91872 116.728 4.91872C116.294 4.91872 115.954 5.05461 115.709 5.32639C115.467 5.59486 115.346 5.94453 115.346 6.3754V11.1382H113.581V6.21631C113.581 5.8219 113.462 5.50703 113.223 5.27171C112.988 5.03638 112.679 4.91872 112.298 4.91872C112.04 4.91872 111.804 4.98501 111.592 5.11759C111.38 5.24685 111.211 5.4308 111.085 5.66943C110.959 5.90476 110.896 6.17985 110.896 6.49472V11.1382H109.097Z" fill="#333333"/>
<path d="M128.197 6.68364L128.311 4.67014L126.621 5.77881L126.014 4.72483L127.819 3.82L126.014 2.91517L126.621 1.86119L128.311 2.96986L128.197 0.956365H129.405L129.295 2.96986L130.986 1.86119L131.592 2.91517L129.783 3.82L131.592 4.72483L130.986 5.77881L129.295 4.67014L129.405 6.68364H128.197Z" fill="#EE0505"/>
<path d="M4.375 33.1382H1.23295V22.9564H4.5142C5.50189 22.9564 6.34706 23.1602 7.04972 23.5679C7.75237 23.9722 8.29096 24.5539 8.66548 25.3129C9.04001 26.0686 9.22727 26.9734 9.22727 28.0274C9.22727 29.088 9.03835 30.0011 8.66051 30.7667C8.28267 31.529 7.73248 32.1157 7.00994 32.5267C6.28741 32.9343 5.40909 33.1382 4.375 33.1382ZM2.46591 32.0444H4.29545C5.13731 32.0444 5.83499 31.882 6.38849 31.5572C6.942 31.2324 7.35464 30.77 7.62642 30.1701C7.8982 29.5702 8.03409 28.856 8.03409 28.0274C8.03409 27.2054 7.89986 26.4978 7.63139 25.9045C7.36293 25.3079 6.96188 24.8505 6.42827 24.5324C5.89465 24.2109 5.23011 24.0501 4.43466 24.0501H2.46591V32.0444ZM14.3381 33.2973C13.6023 33.2973 12.9676 33.1349 12.4339 32.8101C11.9036 32.4819 11.4943 32.0245 11.206 31.4379C10.9209 30.8479 10.7784 30.1619 10.7784 29.3797C10.7784 28.5975 10.9209 27.9081 11.206 27.3115C11.4943 26.7116 11.8954 26.2442 12.4091 25.9095C12.9261 25.5714 13.5294 25.4024 14.2188 25.4024C14.6165 25.4024 15.0092 25.4687 15.397 25.6013C15.7848 25.7338 16.1378 25.9493 16.456 26.2476C16.7741 26.5425 17.0277 26.9336 17.2166 27.4209C17.4055 27.9081 17.5 28.508 17.5 29.2206V29.7177H11.6136V28.7035H16.3068C16.3068 28.2727 16.2206 27.8882 16.0483 27.5501C15.8793 27.212 15.6373 26.9452 15.3224 26.7497C15.0109 26.5541 14.643 26.4564 14.2188 26.4564C13.7514 26.4564 13.3471 26.5724 13.0057 26.8044C12.6676 27.0331 12.4074 27.3314 12.2251 27.6993C12.0429 28.0672 11.9517 28.4616 11.9517 28.8825V29.5586C11.9517 30.1353 12.0511 30.6242 12.25 31.0253C12.4522 31.423 12.7322 31.7263 13.0902 31.9351C13.4482 32.1406 13.8641 32.2433 14.3381 32.2433C14.6463 32.2433 14.9247 32.2002 15.1733 32.114C15.4252 32.0245 15.6423 31.892 15.8246 31.7163C16.0069 31.5373 16.1477 31.3153 16.2472 31.0501L17.3807 31.3683C17.2614 31.7528 17.0608 32.0908 16.7791 32.3825C16.4974 32.6709 16.1494 32.8962 15.7351 33.0586C15.3208 33.2177 14.8551 33.2973 14.3381 33.2973ZM24.6939 27.212L23.6399 27.5103C23.5736 27.3347 23.4759 27.164 23.3466 26.9983C23.2206 26.8292 23.0483 26.69 22.8295 26.5807C22.6108 26.4713 22.3307 26.4166 21.9893 26.4166C21.522 26.4166 21.1326 26.5243 20.821 26.7397C20.5128 26.9519 20.3587 27.222 20.3587 27.5501C20.3587 27.8418 20.4647 28.0721 20.6768 28.2412C20.889 28.4102 21.2204 28.5511 21.6712 28.6638L22.8047 28.9422C23.4875 29.1079 23.9962 29.3614 24.331 29.7028C24.6657 30.0409 24.8331 30.4767 24.8331 31.0103C24.8331 31.4478 24.7071 31.8389 24.4553 32.1836C24.2067 32.5283 23.8587 32.8001 23.4112 32.999C22.9638 33.1978 22.4434 33.2973 21.8501 33.2973C21.0713 33.2973 20.4266 33.1282 19.9162 32.7902C19.4058 32.4521 19.0826 31.9583 18.9467 31.3086L20.0604 31.0302C20.1664 31.4412 20.367 31.7495 20.6619 31.9549C20.9602 32.1604 21.3497 32.2632 21.8303 32.2632C22.3771 32.2632 22.8113 32.1472 23.1328 31.9152C23.4576 31.6799 23.62 31.3981 23.62 31.07C23.62 30.8049 23.5272 30.5828 23.3416 30.4038C23.156 30.2215 22.871 30.0856 22.4865 29.9961L21.2138 29.6978C20.5144 29.5321 20.0007 29.2753 19.6726 28.9272C19.3478 28.5759 19.1854 28.1368 19.1854 27.6098C19.1854 27.1789 19.3063 26.7977 19.5483 26.4663C19.7936 26.1349 20.1267 25.8747 20.5476 25.6858C20.9718 25.4968 21.4524 25.4024 21.9893 25.4024C22.745 25.4024 23.3383 25.5681 23.7692 25.8995C24.2034 26.231 24.5116 26.6685 24.6939 27.212ZM29.7015 33.2973C28.9856 33.2973 28.3691 33.1282 27.8521 32.7902C27.335 32.4521 26.9373 31.9864 26.6589 31.3932C26.3805 30.7999 26.2413 30.1221 26.2413 29.3598C26.2413 28.5842 26.3838 27.8998 26.6689 27.3065C26.9572 26.7099 27.3583 26.2442 27.872 25.9095C28.389 25.5714 28.9922 25.4024 29.6816 25.4024C30.2186 25.4024 30.7025 25.5018 31.1333 25.7007C31.5642 25.8995 31.9172 26.178 32.1923 26.5359C32.4674 26.8939 32.6381 27.3115 32.7044 27.7888H31.5311C31.4416 27.4407 31.2427 27.1325 30.9345 26.864C30.6296 26.5923 30.2186 26.4564 29.7015 26.4564C29.2441 26.4564 28.8431 26.5757 28.4984 26.8143C28.157 27.0496 27.8902 27.3827 27.698 27.8136C27.5091 28.2412 27.4146 28.7433 27.4146 29.32C27.4146 29.91 27.5074 30.4237 27.693 30.8612C27.8819 31.2987 28.1471 31.6384 28.4885 31.8804C28.8332 32.1223 29.2375 32.2433 29.7015 32.2433C30.0065 32.2433 30.2832 32.1903 30.5318 32.0842C30.7804 31.9781 30.9908 31.8257 31.1632 31.6268C31.3355 31.428 31.4582 31.1893 31.5311 30.9109H32.7044C32.6381 31.3617 32.474 31.7677 32.2122 32.129C31.9537 32.4869 31.6106 32.7719 31.1831 32.9841C30.7588 33.1929 30.265 33.2973 29.7015 33.2973ZM34.4196 33.1382V25.5018H35.5531V26.6552H35.6326C35.7718 26.2774 36.0237 25.9708 36.3883 25.7355C36.7529 25.5002 37.1639 25.3825 37.6213 25.3825C37.7074 25.3825 37.8152 25.3842 37.9444 25.3875C38.0737 25.3908 38.1715 25.3958 38.2377 25.4024V26.5956C38.198 26.5856 38.1068 26.5707 37.9643 26.5508C37.8251 26.5276 37.6776 26.516 37.5218 26.516C37.1506 26.516 36.8192 26.5939 36.5275 26.7497C36.2392 26.9022 36.0105 27.1143 35.8414 27.3861C35.6757 27.6545 35.5929 27.9611 35.5929 28.3058V33.1382H34.4196ZM39.6286 33.1382V25.5018H40.8018V33.1382H39.6286ZM40.2251 24.2291C39.9964 24.2291 39.7992 24.1512 39.6335 23.9954C39.4711 23.8397 39.3899 23.6524 39.3899 23.4336C39.3899 23.2149 39.4711 23.0276 39.6335 22.8718C39.7992 22.7161 39.9964 22.6382 40.2251 22.6382C40.4538 22.6382 40.6494 22.7161 40.8118 22.8718C40.9775 23.0276 41.0604 23.2149 41.0604 23.4336C41.0604 23.6524 40.9775 23.8397 40.8118 23.9954C40.6494 24.1512 40.4538 24.2291 40.2251 24.2291ZM42.9508 36.0018V25.5018H44.0843V26.7149H44.2235C44.3097 26.5823 44.429 26.4133 44.5815 26.2078C44.7373 25.999 44.9593 25.8134 45.2477 25.651C45.5394 25.4852 45.9338 25.4024 46.4309 25.4024C47.0739 25.4024 47.6407 25.5631 48.1312 25.8846C48.6217 26.2061 49.0046 26.6619 49.2797 27.2518C49.5547 27.8418 49.6923 28.5378 49.6923 29.3399C49.6923 30.1486 49.5547 30.8496 49.2797 31.4429C49.0046 32.0328 48.6234 32.4902 48.1362 32.815C47.649 33.1365 47.0872 33.2973 46.4508 33.2973C45.9603 33.2973 45.5675 33.2161 45.2725 33.0537C44.9776 32.8879 44.7505 32.7007 44.5914 32.4919C44.4324 32.2798 44.3097 32.1041 44.2235 31.9649H44.1241V36.0018H42.9508ZM44.1042 29.32C44.1042 29.8967 44.1887 30.4055 44.3578 30.8463C44.5268 31.2838 44.7737 31.6268 45.0985 31.8754C45.4234 32.1207 45.8211 32.2433 46.2917 32.2433C46.7823 32.2433 47.1916 32.114 47.5197 31.8555C47.8511 31.5937 48.0997 31.2424 48.2654 30.8015C48.4345 30.3574 48.519 29.8636 48.519 29.32C48.519 28.7831 48.4361 28.2992 48.2704 27.8683C48.108 27.4341 47.8611 27.0911 47.5297 26.8392C47.2015 26.584 46.7889 26.4564 46.2917 26.4564C45.8145 26.4564 45.4134 26.5773 45.0886 26.8193C44.7638 27.0579 44.5185 27.3927 44.3528 27.8236C44.1871 28.2511 44.1042 28.7499 44.1042 29.32ZM54.8031 25.5018V26.4961H50.8457V25.5018H54.8031ZM51.9991 23.6723H53.1724V30.9507C53.1724 31.2821 53.2205 31.5307 53.3166 31.6964C53.416 31.8588 53.542 31.9682 53.6944 32.0245C53.8502 32.0776 54.0143 32.1041 54.1866 32.1041C54.3159 32.1041 54.4219 32.0975 54.5048 32.0842C54.5877 32.0676 54.6539 32.0544 54.7037 32.0444L54.9423 33.0984C54.8627 33.1282 54.7517 33.1581 54.6092 33.1879C54.4667 33.221 54.286 33.2376 54.0673 33.2376C53.7359 33.2376 53.411 33.1664 53.0929 33.0238C52.778 32.8813 52.5162 32.6642 52.3074 32.3726C52.1019 32.0809 51.9991 31.713 51.9991 31.2689V23.6723ZM56.568 33.1382V25.5018H57.7413V33.1382H56.568ZM57.1646 24.2291C56.9359 24.2291 56.7387 24.1512 56.573 23.9954C56.4106 23.8397 56.3294 23.6524 56.3294 23.4336C56.3294 23.2149 56.4106 23.0276 56.573 22.8718C56.7387 22.7161 56.9359 22.6382 57.1646 22.6382C57.3933 22.6382 57.5888 22.7161 57.7512 22.8718C57.917 23.0276 57.9998 23.2149 57.9998 23.4336C57.9998 23.6524 57.917 23.8397 57.7512 23.9954C57.5888 24.1512 57.3933 24.2291 57.1646 24.2291ZM62.9925 33.2973C62.3031 33.2973 61.6983 33.1332 61.1779 32.8051C60.6609 32.477 60.2565 32.0179 59.9648 31.428C59.6765 30.838 59.5323 30.1486 59.5323 29.3598C59.5323 28.5643 59.6765 27.87 59.9648 27.2767C60.2565 26.6834 60.6609 26.2227 61.1779 25.8946C61.6983 25.5665 62.3031 25.4024 62.9925 25.4024C63.6819 25.4024 64.2852 25.5665 64.8022 25.8946C65.3226 26.2227 65.7269 26.6834 66.0153 27.2767C66.3069 27.87 66.4528 28.5643 66.4528 29.3598C66.4528 30.1486 66.3069 30.838 66.0153 31.428C65.7269 32.0179 65.3226 32.477 64.8022 32.8051C64.2852 33.1332 63.6819 33.2973 62.9925 33.2973ZM62.9925 32.2433C63.5162 32.2433 63.9471 32.1091 64.2852 31.8406C64.6232 31.5721 64.8735 31.2191 65.0359 30.7816C65.1983 30.3441 65.2795 29.8702 65.2795 29.3598C65.2795 28.8494 65.1983 28.3737 65.0359 27.9329C64.8735 27.4921 64.6232 27.1358 64.2852 26.864C63.9471 26.5923 63.5162 26.4564 62.9925 26.4564C62.4689 26.4564 62.038 26.5923 61.6999 26.864C61.3619 27.1358 61.1116 27.4921 60.9492 27.9329C60.7868 28.3737 60.7056 28.8494 60.7056 29.3598C60.7056 29.8702 60.7868 30.3441 60.9492 30.7816C61.1116 31.2191 61.3619 31.5721 61.6999 31.8406C62.038 32.1091 62.4689 32.2433 62.9925 32.2433ZM69.4171 28.5444V33.1382H68.2438V25.5018H69.3773V26.695H69.4767C69.6557 26.3072 69.9275 25.9957 70.2921 25.7603C70.6567 25.5217 71.1273 25.4024 71.704 25.4024C72.2211 25.4024 72.6735 25.5084 73.0613 25.7206C73.449 25.9294 73.7507 26.2476 73.9661 26.6751C74.1815 27.0994 74.2892 27.6363 74.2892 28.2859V33.1382H73.1159V28.3655C73.1159 27.7656 72.9602 27.2982 72.6486 26.9635C72.3371 26.6254 71.9095 26.4564 71.3659 26.4564C70.9914 26.4564 70.6567 26.5376 70.3617 26.7C70.07 26.8624 69.8397 27.0994 69.6706 27.4109C69.5016 27.7225 69.4171 28.1003 69.4171 28.5444Z" fill="#757575"/>
<rect x="0.5" y="45.6382" width="289" height="101" rx="3.5" fill="white"/>
<path d="M15.5227 65.1382L12.3409 53.5018H13.7727L16.2045 62.9791H16.3182L18.7955 53.5018H20.3864L22.8636 62.9791H22.9773L25.4091 53.5018H26.8409L23.6591 65.1382H22.2045L19.6364 55.8655H19.5455L16.9773 65.1382H15.5227ZM27.8679 65.1382V56.4109H29.1634V57.7291H29.2543C29.4134 57.2973 29.7012 56.9469 30.1179 56.678C30.5346 56.409 31.0043 56.2745 31.527 56.2745C31.6255 56.2745 31.7486 56.2764 31.8963 56.2802C32.044 56.284 32.1558 56.2897 32.2315 56.2973V57.6609C32.1861 57.6495 32.0819 57.6325 31.919 57.6098C31.7599 57.5833 31.5914 57.57 31.4134 57.57C30.9891 57.57 30.6103 57.659 30.277 57.837C29.9474 58.0113 29.6861 58.2537 29.4929 58.5643C29.3035 58.8711 29.2088 59.2215 29.2088 59.6155V65.1382H27.8679ZM33.821 65.1382V56.4109H35.1619V65.1382H33.821ZM34.5028 54.9564C34.2415 54.9564 34.0161 54.8674 33.8267 54.6893C33.6411 54.5113 33.5483 54.2973 33.5483 54.0473C33.5483 53.7973 33.6411 53.5833 33.8267 53.4052C34.0161 53.2272 34.2415 53.1382 34.5028 53.1382C34.7642 53.1382 34.9877 53.2272 35.1733 53.4052C35.3627 53.5833 35.4574 53.7973 35.4574 54.0473C35.4574 54.2973 35.3627 54.5113 35.1733 54.6893C34.9877 54.8674 34.7642 54.9564 34.5028 54.9564ZM41.4134 56.4109V57.5473H36.8906V56.4109H41.4134ZM38.2088 54.32H39.5497V62.6382C39.5497 63.017 39.6046 63.3011 39.7145 63.4905C39.8281 63.6761 39.9721 63.8011 40.1463 63.8655C40.3243 63.9261 40.5118 63.9564 40.7088 63.9564C40.8565 63.9564 40.9777 63.9488 41.0724 63.9336C41.1671 63.9147 41.2429 63.8995 41.2997 63.8882L41.5724 65.0927C41.4815 65.1268 41.3546 65.1609 41.1918 65.195C41.0289 65.2329 40.8224 65.2518 40.5724 65.2518C40.1937 65.2518 39.8224 65.1704 39.4588 65.0075C39.099 64.8446 38.7997 64.5965 38.5611 64.2632C38.3262 63.9299 38.2088 63.5094 38.2088 63.0018V54.32ZM46.9957 65.32C46.1548 65.32 45.4295 65.1344 44.8196 64.7632C44.2135 64.3882 43.7457 63.8655 43.4162 63.195C43.0904 62.5208 42.9276 61.7367 42.9276 60.8427C42.9276 59.9488 43.0904 59.1609 43.4162 58.4791C43.7457 57.7935 44.2041 57.2594 44.7912 56.8768C45.3821 56.4905 46.0715 56.2973 46.8594 56.2973C47.3139 56.2973 47.7628 56.373 48.206 56.5245C48.6491 56.6761 49.0526 56.9223 49.4162 57.2632C49.7798 57.6003 50.0696 58.0473 50.2855 58.6041C50.5014 59.1609 50.6094 59.8465 50.6094 60.6609V61.2291H43.8821V60.07H49.2457C49.2457 59.5776 49.1473 59.1382 48.9503 58.7518C48.7571 58.3655 48.4806 58.0605 48.1207 57.837C47.7647 57.6136 47.3442 57.5018 46.8594 57.5018C46.3253 57.5018 45.8632 57.6344 45.473 57.8995C45.0866 58.1609 44.7893 58.5018 44.581 58.9223C44.3726 59.3427 44.2685 59.7935 44.2685 60.2745V61.0473C44.2685 61.7064 44.3821 62.2651 44.6094 62.7234C44.8404 63.178 45.1605 63.5245 45.5696 63.7632C45.9787 63.998 46.4541 64.1155 46.9957 64.1155C47.348 64.1155 47.6662 64.0662 47.9503 63.9677C48.2382 63.8655 48.4863 63.7139 48.6946 63.5132C48.9029 63.3086 49.0639 63.0549 49.1776 62.7518L50.473 63.1155C50.3366 63.5549 50.1075 63.9412 49.7855 64.2745C49.4635 64.6041 49.0658 64.8617 48.5923 65.0473C48.1188 65.2291 47.5866 65.32 46.9957 65.32ZM58.4901 59.8882V65.1382H57.1491V53.5018H58.4901V57.7745H58.6037C58.8082 57.3238 59.1151 56.9658 59.5241 56.7007C59.937 56.4317 60.4863 56.2973 61.1719 56.2973C61.7666 56.2973 62.2874 56.4166 62.7344 56.6552C63.1813 56.8901 63.5279 57.2518 63.7741 57.7405C64.0241 58.2253 64.1491 58.8427 64.1491 59.5927V65.1382H62.8082V59.6836C62.8082 58.9905 62.6283 58.4545 62.2685 58.0757C61.9124 57.6931 61.4181 57.5018 60.7855 57.5018C60.3461 57.5018 59.9522 57.5946 59.6037 57.7802C59.259 57.9658 58.9863 58.2367 58.7855 58.5927C58.5885 58.9488 58.4901 59.3806 58.4901 59.8882ZM70.2614 65.32C69.4205 65.32 68.6951 65.1344 68.0852 64.7632C67.4792 64.3882 67.0114 63.8655 66.6818 63.195C66.3561 62.5208 66.1932 61.7367 66.1932 60.8427C66.1932 59.9488 66.3561 59.1609 66.6818 58.4791C67.0114 57.7935 67.4697 57.2594 68.0568 56.8768C68.6477 56.4905 69.3371 56.2973 70.125 56.2973C70.5795 56.2973 71.0284 56.373 71.4716 56.5245C71.9148 56.6761 72.3182 56.9223 72.6818 57.2632C73.0455 57.6003 73.3352 58.0473 73.5511 58.6041C73.767 59.1609 73.875 59.8465 73.875 60.6609V61.2291H67.1477V60.07H72.5114C72.5114 59.5776 72.4129 59.1382 72.2159 58.7518C72.0227 58.3655 71.7462 58.0605 71.3864 57.837C71.0303 57.6136 70.6098 57.5018 70.125 57.5018C69.5909 57.5018 69.1288 57.6344 68.7386 57.8995C68.3523 58.1609 68.0549 58.5018 67.8466 58.9223C67.6383 59.3427 67.5341 59.7935 67.5341 60.2745V61.0473C67.5341 61.7064 67.6477 62.2651 67.875 62.7234C68.1061 63.178 68.4261 63.5245 68.8352 63.7632C69.2443 63.998 69.7197 64.1155 70.2614 64.1155C70.6136 64.1155 70.9318 64.0662 71.2159 63.9677C71.5038 63.8655 71.7519 63.7139 71.9602 63.5132C72.1686 63.3086 72.3295 63.0549 72.4432 62.7518L73.7386 63.1155C73.6023 63.5549 73.3731 63.9412 73.0511 64.2745C72.7292 64.6041 72.3314 64.8617 71.858 65.0473C71.3845 65.2291 70.8523 65.32 70.2614 65.32ZM75.9148 65.1382V56.4109H77.2102V57.7291H77.3011C77.4602 57.2973 77.7481 56.9469 78.1648 56.678C78.5814 56.409 79.0511 56.2745 79.5739 56.2745C79.6723 56.2745 79.7955 56.2764 79.9432 56.2802C80.0909 56.284 80.2027 56.2897 80.2784 56.2973V57.6609C80.233 57.6495 80.1288 57.6325 79.9659 57.6098C79.8068 57.5833 79.6383 57.57 79.4602 57.57C79.036 57.57 78.6572 57.659 78.3239 57.837C77.9943 58.0113 77.733 58.2537 77.5398 58.5643C77.3504 58.8711 77.2557 59.2215 77.2557 59.6155V65.1382H75.9148ZM85.2614 65.32C84.4205 65.32 83.6951 65.1344 83.0852 64.7632C82.4792 64.3882 82.0114 63.8655 81.6818 63.195C81.3561 62.5208 81.1932 61.7367 81.1932 60.8427C81.1932 59.9488 81.3561 59.1609 81.6818 58.4791C82.0114 57.7935 82.4697 57.2594 83.0568 56.8768C83.6477 56.4905 84.3371 56.2973 85.125 56.2973C85.5795 56.2973 86.0284 56.373 86.4716 56.5245C86.9148 56.6761 87.3182 56.9223 87.6818 57.2632C88.0455 57.6003 88.3352 58.0473 88.5511 58.6041C88.767 59.1609 88.875 59.8465 88.875 60.6609V61.2291H82.1477V60.07H87.5114C87.5114 59.5776 87.4129 59.1382 87.2159 58.7518C87.0227 58.3655 86.7462 58.0605 86.3864 57.837C86.0303 57.6136 85.6098 57.5018 85.125 57.5018C84.5909 57.5018 84.1288 57.6344 83.7386 57.8995C83.3523 58.1609 83.0549 58.5018 82.8466 58.9223C82.6383 59.3427 82.5341 59.7935 82.5341 60.2745V61.0473C82.5341 61.7064 82.6477 62.2651 82.875 62.7234C83.1061 63.178 83.4261 63.5245 83.8352 63.7632C84.2443 63.998 84.7197 64.1155 85.2614 64.1155C85.6136 64.1155 85.9318 64.0662 86.2159 63.9677C86.5038 63.8655 86.7519 63.7139 86.9602 63.5132C87.1686 63.3086 87.3295 63.0549 87.4432 62.7518L88.7386 63.1155C88.6023 63.5549 88.3731 63.9412 88.0511 64.2745C87.7292 64.6041 87.3314 64.8617 86.858 65.0473C86.3845 65.2291 85.8523 65.32 85.2614 65.32Z" fill="#757575"/>
<rect x="0.5" y="45.6382" width="289" height="101" rx="3.5" stroke="#545454"/>
</svg>
