<svg width="260" height="132" fill="none" xmlns="http://www.w3.org/2000/svg"><path d="M.9 9.66V.53h1.65v7.74h4.02v1.39H.9Zm9 .13a2.7 2.7 0 0 1-1.16-.23 1.91 1.91 0 0 1-.82-.7 2 2 0 0 1-.3-1.13c0-.38.07-.7.21-.95.14-.26.34-.46.59-.61.24-.15.52-.27.83-.34.31-.08.63-.14.97-.18l.97-.1c.25-.04.43-.1.55-.17.11-.07.17-.19.17-.34V5c0-.33-.1-.6-.3-.78-.2-.18-.48-.28-.86-.28-.4 0-.7.1-.94.26-.23.18-.38.38-.46.61L7.84 4.6a2.4 2.4 0 0 1 1.6-1.68 4.27 4.27 0 0 1 2.3-.1c.31.08.61.21.88.39.27.17.49.41.65.72.17.3.25.68.25 1.13v4.59h-1.55V8.7h-.05a1.97 1.97 0 0 1-1.08.94c-.26.1-.57.14-.93.14Zm.43-1.18c.32 0 .6-.07.84-.2a1.36 1.36 0 0 0 .75-1.21v-.8a.76.76 0 0 1-.26.1 12.35 12.35 0 0 1-1.22.22c-.25.04-.46.1-.65.17-.2.07-.34.18-.45.3a.76.76 0 0 0-.17.52c0 .3.11.52.33.67.22.15.5.23.83.23Zm4.89 1.05V.53h1.61v3.41h.07c.08-.17.2-.34.35-.53.15-.19.36-.35.61-.49.26-.13.6-.2 1-.2a2.6 2.6 0 0 1 2.44 1.6c.25.52.38 1.16.38 1.92 0 .75-.12 1.4-.37 1.92s-.58.92-1 1.2a2.6 2.6 0 0 1-1.45.42 1.99 1.99 0 0 1-1.6-.67 3.06 3.06 0 0 1-.36-.53h-.1v1.08h-1.58Zm1.58-3.43c0 .44.06.83.19 1.17.12.33.3.59.55.78.24.18.53.27.87.27.36 0 .65-.1.9-.28.24-.2.42-.46.54-.8.12-.33.19-.71.19-1.14 0-.42-.07-.8-.19-1.13a1.7 1.7 0 0 0-.54-.78 1.42 1.42 0 0 0-.9-.28c-.35 0-.64.1-.88.28-.24.18-.42.43-.55.76a3.3 3.3 0 0 0-.18 1.15Zm9.28 3.56a3.5 3.5 0 0 1-1.78-.43 2.9 2.9 0 0 1-1.14-1.22 4.09 4.09 0 0 1-.4-1.87c0-.7.13-1.32.4-1.85A3.03 3.03 0 0 1 26 2.72a3.02 3.02 0 0 1 2.2.83c.28.28.51.64.68 1.08.16.43.25.95.25 1.55v.5h-5.61v-1.1h4.06c0-.3-.07-.58-.2-.82a1.46 1.46 0 0 0-.55-.57c-.23-.14-.5-.21-.8-.21a1.59 1.59 0 0 0-1.46.86c-.14.26-.2.54-.21.84v.95c0 .4.07.74.22 1.03.14.28.35.5.6.65.27.15.57.22.93.22.23 0 .44-.03.63-.1.2-.06.36-.16.5-.3.14-.13.24-.29.31-.48l1.51.17a2.47 2.47 0 0 1-1.56 1.73 3.9 3.9 0 0 1-1.42.24ZM32.11.53v9.13h-1.62V.53h1.62Zm4.77 9.13V2.8h1.56v1.14h.07a1.7 1.7 0 0 1 1.7-1.24 3.73 3.73 0 0 1 .57.05v1.48a3 3 0 0 0-.75-.1c-.29 0-.55.07-.79.2a1.4 1.4 0 0 0-.75 1.29v4.03h-1.61Zm7.72.13c-.68 0-1.28-.14-1.77-.43a2.9 2.9 0 0 1-1.15-1.22 4.1 4.1 0 0 1-.4-1.87c0-.7.13-1.32.4-1.85a3.03 3.03 0 0 1 2.84-1.7 3.02 3.02 0 0 1 2.2.83c.28.28.51.64.68 1.08.17.43.25.95.25 1.55v.5h-5.61v-1.1h4.06c0-.3-.07-.58-.2-.82a1.46 1.46 0 0 0-.55-.57c-.23-.14-.5-.21-.8-.21a1.59 1.59 0 0 0-1.46.86c-.14.26-.2.54-.21.84v.95c0 .4.07.74.22 1.03.14.28.35.5.6.65.27.15.58.22.93.22.23 0 .44-.03.63-.1a1.35 1.35 0 0 0 .82-.78l1.5.17c-.1.4-.27.74-.54 1.04-.27.3-.6.52-1.02.69a3.9 3.9 0 0 1-1.42.24Zm8.98 2.43V8.58h-.06c-.09.16-.2.34-.37.53a1.99 1.99 0 0 1-1.6.67 2.59 2.59 0 0 1-2.45-1.62 4.5 4.5 0 0 1-.37-1.92c0-.76.13-1.4.38-1.92a2.62 2.62 0 0 1 3.44-1.4c.26.14.46.3.61.5.15.18.27.35.36.52h.1V2.81h1.58v9.41h-1.62ZM52 8.45c.35 0 .64-.09.88-.27.24-.2.42-.45.55-.78.12-.34.18-.73.18-1.17 0-.44-.06-.83-.18-1.15-.13-.33-.3-.58-.55-.76a1.4 1.4 0 0 0-.88-.28c-.36 0-.66.1-.9.28a1.7 1.7 0 0 0-.54.78c-.12.33-.18.7-.18 1.13 0 .43.06.81.18 1.15.12.33.3.6.55.79.24.19.54.28.9.28Zm9.22-1.67V2.8h1.62v6.85h-1.57V8.44h-.07c-.15.38-.4.7-.76.94-.35.24-.79.36-1.3.36a2.08 2.08 0 0 1-2-1.18 3.1 3.1 0 0 1-.28-1.4V2.82h1.61v4.1c0 .44.12.79.36 1.04.24.26.55.39.93.39a1.48 1.48 0 0 0 1.24-.7c.15-.23.22-.52.22-.86Zm3.27 2.88V2.8h1.62v6.85h-1.62Zm.82-7.82a.94.94 0 0 1-.66-.26.82.82 0 0 1-.28-.62c0-.24.1-.45.28-.62.18-.17.4-.25.66-.25.25 0 .47.08.66.25.18.17.27.38.27.62s-.09.45-.27.62a.93.93 0 0 1-.66.26Zm2.46 7.82V2.8h1.56v1.14h.07a1.7 1.7 0 0 1 1.7-1.24 3.73 3.73 0 0 1 .57.05v1.48a3 3 0 0 0-.75-.1c-.3 0-.56.07-.79.2a1.4 1.4 0 0 0-.75 1.29v4.03h-1.61Zm7.72.13a3.5 3.5 0 0 1-1.78-.43 2.9 2.9 0 0 1-1.14-1.22 4.1 4.1 0 0 1-.4-1.87c0-.7.13-1.32.4-1.85a3.03 3.03 0 0 1 2.84-1.7 3.02 3.02 0 0 1 2.2.83c.28.28.51.64.68 1.08.16.43.25.95.25 1.55v.5h-5.61v-1.1h4.06c0-.3-.07-.58-.2-.82a1.46 1.46 0 0 0-.55-.57c-.23-.14-.5-.21-.8-.21a1.59 1.59 0 0 0-1.46.86c-.14.26-.2.54-.21.84v.95c0 .4.07.74.22 1.03.14.28.35.5.6.65.27.15.57.22.93.22.23 0 .44-.03.63-.1.2-.06.36-.16.5-.3.14-.13.24-.29.31-.48l1.51.17a2.47 2.47 0 0 1-1.56 1.73 3.9 3.9 0 0 1-1.42.24Zm6.95-.01A2.59 2.59 0 0 1 80 8.16a4.5 4.5 0 0 1-.37-1.92c0-.76.13-1.4.38-1.92a2.62 2.62 0 0 1 3.44-1.4 2.5 2.5 0 0 1 .96 1.02h.07V.53h1.62v9.13h-1.6V8.58h-.1c-.08.16-.2.34-.36.53a1.99 1.99 0 0 1-1.6.67Zm.45-1.33c.34 0 .64-.09.88-.27.24-.2.42-.45.55-.78.12-.34.18-.73.18-1.17 0-.44-.06-.83-.18-1.15-.13-.33-.3-.58-.55-.76a1.4 1.4 0 0 0-.88-.28c-.36 0-.66.1-.9.28a1.7 1.7 0 0 0-.54.78c-.12.33-.18.7-.18 1.13 0 .43.06.81.18 1.15.12.33.3.6.55.79.24.19.54.28.9.28Zm13.44-3.83-1.47.16a1.18 1.18 0 0 0-.63-.74 1.5 1.5 0 0 0-.63-.12c-.33 0-.62.08-.85.22-.22.15-.33.34-.33.57 0 .2.07.36.22.48.15.13.4.23.75.31l1.16.25c.65.14 1.13.36 1.45.66.32.3.48.7.48 1.2 0 .43-.13.8-.38 1.14-.25.32-.59.58-1.03.76a3.9 3.9 0 0 1-1.51.28c-.84 0-1.52-.18-2.03-.53a2.11 2.11 0 0 1-.91-1.47l1.57-.15c.07.3.23.54.46.7.23.15.53.23.9.23.39 0 .7-.08.92-.23.24-.16.36-.36.36-.59a.6.6 0 0 0-.23-.48 1.59 1.59 0 0 0-.7-.3l-1.16-.24a2.78 2.78 0 0 1-1.46-.7 1.7 1.7 0 0 1-.47-1.23c0-.43.11-.79.34-1.1.24-.31.56-.55.98-.72.42-.17.9-.26 1.45-.26.8 0 1.43.17 1.9.51.46.34.74.8.85 1.39Zm1.48 5.04V2.8h1.54v1.16h.08a1.87 1.87 0 0 1 1.89-1.25c.47 0 .86.11 1.18.34.32.22.54.53.67.91h.07c.16-.38.41-.68.77-.9.36-.24.8-.35 1.29-.35.63 0 1.14.2 1.54.6.4.4.6.98.6 1.74v4.6h-1.62V5.3c0-.43-.11-.74-.34-.93-.22-.2-.5-.3-.83-.3-.39 0-.7.12-.91.36-.22.25-.33.56-.33.95v4.27h-1.58V5.24c0-.35-.1-.63-.32-.84a1.12 1.12 0 0 0-.83-.32c-.23 0-.44.06-.63.18-.2.11-.34.28-.46.5-.1.2-.17.45-.17.73v4.17h-1.6Z" fill="#333"/><path d="m115.45 5.66.1-1.8-1.51.99-.54-.94 1.61-.82-1.61-.8.54-.95 1.52 1-.1-1.81h1.08l-.1 1.8 1.51-1 .55.95-1.63.81 1.63.82-.55.94-1.51-1 .1 1.81h-1.09Z" fill="#EE0505"/><path d="M3.92 29.41H1.11V20.3h2.94c.88 0 1.64.18 2.27.54.63.37 1.11.89 1.45 1.57.33.68.5 1.49.5 2.43a5.5 5.5 0 0 1-.5 2.46c-.34.68-.84 1.2-1.49 1.58-.64.36-1.43.54-2.36.54Zm-1.7-.98h1.63c.76 0 1.38-.14 1.88-.43.5-.3.86-.7 1.1-1.25a4.5 4.5 0 0 0 .37-1.92 4.6 4.6 0 0 0-.36-1.9 2.6 2.6 0 0 0-1.08-1.23 3.41 3.41 0 0 0-1.78-.43H2.2v7.16Zm10.63 1.13a2.93 2.93 0 0 1-2.8-1.67 4.2 4.2 0 0 1-.39-1.85c0-.7.13-1.31.39-1.85s.61-.96 1.08-1.26c.46-.3 1-.45 1.62-.45.35 0 .7.06 1.05.18a2.62 2.62 0 0 1 1.64 1.63c.17.44.25.97.25 1.61v.45h-5.28v-.91h4.21c0-.39-.08-.73-.23-1.04a1.75 1.75 0 0 0-1.64-.98c-.42 0-.78.1-1.09.32a2 2 0 0 0-.7.8c-.16.33-.24.68-.24 1.06v.6c0 .52.08.96.26 1.32a1.95 1.95 0 0 0 1.87 1.09c.28 0 .53-.04.75-.11.23-.08.42-.2.59-.36.16-.16.29-.36.38-.6l1.01.29c-.1.34-.28.65-.54.9a2.4 2.4 0 0 1-.93.61c-.37.15-.8.22-1.26.22Zm9.29-5.46-.95.27a1.75 1.75 0 0 0-.26-.46 1.28 1.28 0 0 0-.46-.38 1.7 1.7 0 0 0-.76-.14c-.41 0-.76.1-1.04.29-.28.19-.42.43-.42.72 0 .27.1.47.29.62.19.16.49.28.89.38l1.02.25a2.8 2.8 0 0 1 1.36.68c.3.3.45.7.45 1.18 0 .39-.1.74-.33 1.05-.23.3-.54.55-.94.73-.4.18-.87.27-1.4.27a3 3 0 0 1-1.73-.46c-.46-.3-.75-.74-.87-1.33l1-.25c.09.37.27.65.53.83.27.19.62.28 1.05.28.5 0 .88-.1 1.17-.31.3-.21.44-.47.44-.76a.8.8 0 0 0-.25-.6 1.6 1.6 0 0 0-.77-.36l-1.14-.27a2.72 2.72 0 0 1-1.38-.7c-.3-.3-.44-.7-.44-1.17 0-.39.1-.73.33-1.03.22-.3.51-.53.9-.7.37-.17.8-.25 1.28-.25.68 0 1.21.15 1.6.44.39.3.67.7.83 1.18Zm4.49 5.46a2.91 2.91 0 0 1-2.73-1.71 4.24 4.24 0 0 1-.37-1.82c0-.7.12-1.31.38-1.84a2.9 2.9 0 0 1 2.7-1.7c.48-.01.92.08 1.3.26a2.34 2.34 0 0 1 1.4 1.87h-1.04a1.6 1.6 0 0 0-1.64-1.2 1.88 1.88 0 0 0-1.8 1.22c-.17.38-.25.83-.25 1.35 0 .53.08.99.25 1.38.17.4.4.7.71.92.31.21.67.32 1.09.32.27 0 .52-.05.74-.14a1.54 1.54 0 0 0 .9-1.05h1.05a2.44 2.44 0 0 1-1.36 1.86 3.1 3.1 0 0 1-1.33.28Zm4.23-.15v-6.84h1.02v1.03h.07c.12-.34.35-.61.67-.82a2 2 0 0 1 1.1-.32 11.97 11.97 0 0 1 .56.02v1.07a3.12 3.12 0 0 0-.64-.07c-.33 0-.63.07-.9.2a1.59 1.59 0 0 0-.83 1.4v4.33h-1.05Zm4.67 0v-6.84h1.05v6.84h-1.05Zm.53-7.98a.75.75 0 0 1-.53-.21.67.67 0 0 1-.21-.5c0-.2.07-.37.21-.51a.75.75 0 0 1 .53-.21c.2 0 .38.07.53.21.15.14.22.3.22.5s-.07.37-.22.5a.73.73 0 0 1-.53.22Zm2.45 10.55v-9.41h1.01v1.09h.13c.08-.12.18-.28.32-.46a1.9 1.9 0 0 1 1.66-.72 2.72 2.72 0 0 1 2.55 1.66c.25.53.37 1.15.37 1.87 0 .72-.12 1.35-.37 1.88a2.68 2.68 0 0 1-2.54 1.66c-.43 0-.79-.07-1.05-.21a1.96 1.96 0 0 1-.61-.5 6.77 6.77 0 0 1-.33-.48h-.09v3.62h-1.05ZM39.54 26c0 .52.08.97.23 1.37a1.75 1.75 0 0 0 1.73 1.25c.44 0 .81-.11 1.1-.35.3-.23.52-.55.67-.94.15-.4.23-.84.23-1.33 0-.48-.07-.91-.22-1.3s-.37-.7-.67-.92c-.3-.23-.66-.35-1.1-.35a1.75 1.75 0 0 0-1.75 1.23 3.7 3.7 0 0 0-.22 1.34Zm9.6-3.42v.89h-3.55v-.9h3.54Zm-2.52-1.64h1.05v6.52c0 .3.04.52.13.67.09.15.2.25.34.3.14.04.29.07.44.07.12 0 .21 0 .29-.02l.17-.04.22.95a2.14 2.14 0 0 1-.79.12c-.3 0-.58-.06-.87-.19a1.74 1.74 0 0 1-.7-.58c-.19-.26-.28-.6-.28-1v-6.8Zm4.1 8.48v-6.84h1.05v6.84h-1.05Zm.53-7.98a.75.75 0 0 1-.53-.21.67.67 0 0 1-.22-.5c0-.2.08-.37.22-.51a.75.75 0 0 1 .53-.21c.2 0 .38.07.53.21.15.14.22.3.22.5s-.07.37-.22.5a.73.73 0 0 1-.53.22Zm5.23 8.13c-.62 0-1.16-.15-1.63-.44a3 3 0 0 1-1.09-1.24 4.18 4.18 0 0 1-.39-1.85c0-.72.13-1.34.4-1.87a3 3 0 0 1 1.08-1.24c.47-.3 1-.44 1.63-.44a3 3 0 0 1 1.62.44c.47.3.83.7 1.09 1.24.26.53.39 1.15.39 1.87 0 .7-.13 1.32-.4 1.85a2.9 2.9 0 0 1-1.08 1.24 3 3 0 0 1-1.62.44Zm0-.95c.47 0 .85-.12 1.16-.36.3-.24.52-.56.67-.95a3.67 3.67 0 0 0 0-2.55 2.1 2.1 0 0 0-.68-.96 1.8 1.8 0 0 0-1.15-.37c-.47 0-.86.13-1.16.37-.3.24-.53.56-.68.96a3.82 3.82 0 0 0 0 2.55c.15.4.37.71.68.95.3.24.69.36 1.16.36Zm5.76-3.31v4.11h-1.06v-6.84h1.02v1.07h.09c.16-.35.4-.63.73-.84.33-.21.75-.32 1.27-.32.46 0 .87.1 1.21.28.35.2.62.48.81.86.2.38.3.86.3 1.44v4.35h-1.06v-4.27c0-.54-.14-.96-.42-1.26a1.5 1.5 0 0 0-1.15-.46c-.33 0-.63.08-.9.22a1.6 1.6 0 0 0-.62.64 2.1 2.1 0 0 0-.22 1.02Z" fill="#757575"/><rect x=".45" y="40.62" width="259.1" height="90.55" rx="3.14" fill="#fff"/><path d="M13.92 57.35 11.06 46.9h1.29l2.18 8.5h.1l2.22-8.5h1.43l2.22 8.5h.1l2.18-8.5h1.28l-2.85 10.44h-1.3l-2.3-8.32h-.09l-2.3 8.32h-1.3Zm11.07 0v-7.83h1.16v1.18h.08c.14-.38.4-.7.77-.94.38-.24.8-.36 1.27-.36a13.32 13.32 0 0 1 .63.02v1.22a3.57 3.57 0 0 0-.74-.08c-.38 0-.72.08-1.01.24a1.76 1.76 0 0 0-.96 1.6v4.95h-1.2Zm5.33 0v-7.83h1.2v7.83h-1.2Zm.61-9.13a.85.85 0 0 1-.6-.24.77.77 0 0 1-.25-.58c0-.22.08-.41.25-.57a.85.85 0 0 1 .6-.24c.24 0 .44.08.6.24a.76.76 0 0 1 0 1.15.84.84 0 0 1-.6.24Zm6.2 1.3v1.02h-4.06v-1.02h4.06Zm-2.87-1.87h1.2v7.45c0 .34.05.6.15.77.1.16.23.28.38.33.16.06.33.09.5.09l.33-.02.2-.05.25 1.08a2.43 2.43 0 0 1-.9.15c-.33 0-.67-.08-1-.22a2.06 2.06 0 0 1-.8-.67 2 2 0 0 1-.31-1.13v-7.78Zm7.87 9.86a3.35 3.35 0 0 1-3.2-1.9 4.8 4.8 0 0 1-.44-2.12c0-.8.14-1.5.43-2.12a3.31 3.31 0 0 1 3.09-1.96c.41 0 .81.08 1.2.21a3 3 0 0 1 1.87 1.87c.2.5.3 1.11.3 1.84v.51h-6.04V52.8h4.81c0-.44-.09-.83-.26-1.18A2 2 0 0 0 42 50.5c-.48 0-.9.12-1.24.36-.35.23-.61.54-.8.91a2.7 2.7 0 0 0-.28 1.21v.7c0 .59.1 1.09.3 1.5.21.4.5.72.87.93.36.21.79.32 1.27.32.32 0 .6-.05.86-.13.26-.1.48-.23.67-.41.18-.19.33-.41.43-.68l1.16.32c-.12.4-.33.74-.61 1.04a3 3 0 0 1-1.07.7c-.43.16-.9.24-1.44.24Zm10.3-4.87v4.7h-1.2V46.92h1.21v3.83h.1c.18-.4.46-.72.83-.96.37-.24.86-.36 1.47-.36.54 0 1 .1 1.4.32.4.21.72.53.94.97.22.44.33 1 .33 1.66v4.98h-1.2v-4.9c0-.62-.16-1.1-.48-1.44a1.73 1.73 0 0 0-1.33-.51c-.4 0-.75.08-1.06.25-.31.16-.56.4-.74.73-.17.32-.26.7-.26 1.16ZM63 57.5a3.35 3.35 0 0 1-3.2-1.9 4.8 4.8 0 0 1-.44-2.12c0-.8.14-1.5.43-2.12a3.31 3.31 0 0 1 3.09-1.96c.4 0 .81.08 1.2.21a3 3 0 0 1 1.87 1.87c.2.5.3 1.11.3 1.84v.51H60.2V52.8h4.81c0-.44-.09-.83-.26-1.18a2 2 0 0 0-1.88-1.12 2.26 2.26 0 0 0-2.04 1.27 2.7 2.7 0 0 0-.28 1.21v.7c0 .59.1 1.09.3 1.5.21.4.5.72.86.93.37.21.8.32 1.28.32.32 0 .6-.05.86-.13.26-.1.48-.23.67-.41.18-.19.33-.41.43-.68l1.16.32c-.12.4-.33.74-.62 1.04a3 3 0 0 1-1.07.7 4 4 0 0 1-1.43.24Zm5.07-.16v-7.83h1.16v1.18h.08c.15-.38.4-.7.78-.94.37-.24.8-.36 1.26-.36a13.3 13.3 0 0 1 .63.02v1.22a3.57 3.57 0 0 0-.73-.08c-.38 0-.72.08-1.02.24a1.76 1.76 0 0 0-.96 1.6v4.95h-1.2Zm8.38.16a3.35 3.35 0 0 1-3.2-1.9 4.8 4.8 0 0 1-.45-2.12c0-.8.15-1.5.44-2.12a3.31 3.31 0 0 1 3.09-1.96c.4 0 .8.08 1.2.21a3 3 0 0 1 1.87 1.87c.2.5.3 1.11.3 1.84v.51h-6.04V52.8h4.8c0-.44-.08-.83-.26-1.18a2 2 0 0 0-1.87-1.12 2.26 2.26 0 0 0-2.04 1.27 2.7 2.7 0 0 0-.28 1.21v.7c0 .59.1 1.09.3 1.5.2.4.5.72.86.93.37.21.8.32 1.28.32.32 0 .6-.05.86-.13a1.85 1.85 0 0 0 1.1-1.09l1.16.32c-.12.4-.33.74-.62 1.04a3 3 0 0 1-1.07.7 4 4 0 0 1-1.43.24Z" fill="#757575"/><rect x=".45" y="40.62" width="259.1" height="90.55" rx="3.14" stroke="#545454" stroke-width=".9"/></svg>