<svg width="260" height="113" viewBox="0 0 260 113" fill="none" xmlns="http://www.w3.org/2000/svg">
<path d="M3.99373 10.5347H0.900372V1.4062H4.05613C4.96245 1.4062 5.74099 1.58895 6.39175 1.95445C7.04549 2.31697 7.54768 2.83848 7.89832 3.51896C8.24896 4.19944 8.42428 5.01363 8.42428 5.96155C8.42428 6.91244 8.24747 7.72961 7.89386 8.41306C7.54322 9.09651 7.03657 9.62098 6.37392 9.98648C5.71424 10.352 4.92085 10.5347 3.99373 10.5347ZM2.55403 9.10394H3.9135C4.54941 9.10394 5.07982 8.98805 5.50475 8.75627C5.92968 8.52152 6.24912 8.17237 6.46307 7.70881C6.67702 7.24228 6.78399 6.65986 6.78399 5.96155C6.78399 5.26324 6.67702 4.68379 6.46307 4.22321C6.24912 3.75965 5.93265 3.41347 5.51367 3.18466C5.09765 2.95288 4.58061 2.83699 3.96253 2.83699H2.55403V9.10394ZM12.9551 10.6684C12.2687 10.6684 11.6759 10.5258 11.1767 10.2405C10.6804 9.95231 10.2986 9.54521 10.0311 9.01925C9.76369 8.49032 9.62997 7.86778 9.62997 7.15165C9.62997 6.4474 9.76369 5.82932 10.0311 5.29741C10.3015 4.76254 10.6789 4.34653 11.1633 4.04937C11.6476 3.74925 12.2167 3.59919 12.8704 3.59919C13.2924 3.59919 13.6906 3.66753 14.065 3.80422C14.4424 3.93794 14.7752 4.14595 15.0634 4.42824C15.3546 4.71054 15.5834 5.07009 15.7498 5.50691C15.9162 5.94075 15.9994 6.4578 15.9994 7.05804V7.5528H10.3877V6.46522H14.4528C14.4498 6.15619 14.3829 5.88132 14.2522 5.64063C14.1214 5.39696 13.9387 5.2053 13.7039 5.06564C13.4722 4.92597 13.2017 4.85614 12.8927 4.85614C12.5629 4.85614 12.2731 4.93637 12.0235 5.09684C11.7739 5.25433 11.5793 5.46233 11.4396 5.72086C11.3029 5.97641 11.2331 6.25722 11.2301 6.56328V7.51269C11.2301 7.91087 11.3029 8.2526 11.4485 8.53786C11.5942 8.82016 11.7977 9.03708 12.0592 9.18863C12.3207 9.3372 12.6268 9.41149 12.9774 9.41149C13.2121 9.41149 13.4246 9.37881 13.6148 9.31343C13.805 9.24509 13.9699 9.14554 14.1095 9.01479C14.2492 8.88405 14.3547 8.7221 14.426 8.52895L15.9326 8.69833C15.8375 9.09651 15.6562 9.44418 15.3888 9.74133C15.1243 10.0355 14.7856 10.2643 14.3725 10.4278C13.9595 10.5882 13.487 10.6684 12.9551 10.6684ZM20.7832 3.68833V4.93637H16.8474V3.68833H20.7832ZM17.8191 2.04805H19.4327V8.47546C19.4327 8.69238 19.4654 8.85879 19.5307 8.97468C19.5991 9.0876 19.6882 9.16486 19.7982 9.20646C19.9081 9.24806 20.0299 9.26886 20.1637 9.26886C20.2647 9.26886 20.3568 9.26143 20.44 9.24657C20.5262 9.23171 20.5916 9.21834 20.6361 9.20646L20.908 10.4679C20.8219 10.4976 20.6985 10.5303 20.5381 10.5659C20.3806 10.6016 20.1874 10.6224 19.9586 10.6283C19.5545 10.6402 19.1905 10.5793 18.8666 10.4456C18.5427 10.3089 18.2857 10.0979 18.0955 9.81265C17.9083 9.52738 17.8162 9.1708 17.8191 8.7429V2.04805ZM24.1028 10.6729C23.6689 10.6729 23.2782 10.5956 22.9305 10.4411C22.5858 10.2836 22.3124 10.0519 22.1104 9.74579C21.9113 9.43972 21.8117 9.06234 21.8117 8.61364C21.8117 8.22734 21.8831 7.9079 22.0257 7.65532C22.1683 7.40274 22.363 7.20068 22.6096 7.04913C22.8562 6.89758 23.1341 6.78318 23.4431 6.70592C23.7551 6.62569 24.0775 6.56774 24.4103 6.53208C24.8115 6.49048 25.1369 6.45334 25.3865 6.42065C25.6361 6.38499 25.8174 6.33151 25.9303 6.26019C26.0462 6.1859 26.1041 6.0715 26.1041 5.91698V5.89023C26.1041 5.55445 26.0046 5.29444 25.8055 5.11021C25.6064 4.92597 25.3196 4.83386 24.9452 4.83386C24.55 4.83386 24.2365 4.92003 24.0047 5.09238C23.7759 5.26473 23.6214 5.46828 23.5412 5.70303L22.0346 5.48908C22.1535 5.07306 22.3496 4.7254 22.623 4.44607C22.8963 4.16378 23.2306 3.9528 23.6259 3.81314C24.0211 3.6705 24.4579 3.59919 24.9363 3.59919C25.2661 3.59919 25.5945 3.63782 25.9214 3.71508C26.2482 3.79234 26.5469 3.92011 26.8173 4.0984C27.0877 4.27372 27.3046 4.51293 27.468 4.81603C27.6344 5.11912 27.7177 5.49799 27.7177 5.95264V10.5347H26.1665V9.59424H26.113C26.015 9.78442 25.8768 9.96271 25.6985 10.1291C25.5232 10.2925 25.3018 10.4248 25.0344 10.5258C24.7699 10.6239 24.4594 10.6729 24.1028 10.6729ZM24.5218 9.48727C24.8457 9.48727 25.1265 9.42338 25.3642 9.2956C25.6019 9.16486 25.7847 8.99251 25.9124 8.77856C26.0432 8.56461 26.1086 8.33134 26.1086 8.07876V7.27199C26.0581 7.3136 25.9719 7.35222 25.85 7.38788C25.7312 7.42354 25.5975 7.45474 25.4489 7.48149C25.3003 7.50823 25.1532 7.532 25.0076 7.5528C24.862 7.5736 24.7357 7.59143 24.6287 7.60629C24.3881 7.63898 24.1726 7.69246 23.9824 7.76675C23.7923 7.84104 23.6422 7.94504 23.5323 8.07876C23.4223 8.20951 23.3673 8.37889 23.3673 8.58689C23.3673 8.88405 23.4758 9.1084 23.6927 9.25994C23.9096 9.41149 24.186 9.48727 24.5218 9.48727ZM29.3401 10.5347V3.68833H30.9536V10.5347H29.3401ZM30.1513 2.71665C29.8958 2.71665 29.6759 2.63196 29.4917 2.46258C29.3074 2.29023 29.2153 2.08371 29.2153 1.84302C29.2153 1.59935 29.3074 1.39283 29.4917 1.22345C29.6759 1.0511 29.8958 0.96493 30.1513 0.96493C30.4099 0.96493 30.6297 1.0511 30.811 1.22345C30.9952 1.39283 31.0874 1.59935 31.0874 1.84302C31.0874 2.08371 30.9952 2.29023 30.811 2.46258C30.6297 2.63196 30.4099 2.71665 30.1513 2.71665ZM34.2264 1.4062V10.5347H32.6129V1.4062H34.2264ZM41.2968 5.49799L39.8259 5.65846C39.7843 5.50988 39.7115 5.37022 39.6075 5.23947C39.5064 5.10872 39.3697 5.00323 39.1974 4.923C39.025 4.84277 38.8141 4.80266 38.5645 4.80266C38.2287 4.80266 37.9464 4.87546 37.7176 5.02106C37.4917 5.16667 37.3803 5.35536 37.3833 5.58714C37.3803 5.78623 37.4531 5.94818 37.6017 6.07298C37.7532 6.19779 38.0028 6.3003 38.3505 6.38054L39.5183 6.63014C40.1661 6.76981 40.6475 6.99118 40.9625 7.29428C41.2804 7.59738 41.4409 7.99407 41.4439 8.48438C41.4409 8.91525 41.3146 9.2956 41.065 9.62544C40.8184 9.95231 40.4752 10.2079 40.0354 10.3921C39.5956 10.5763 39.0904 10.6684 38.5199 10.6684C37.6819 10.6684 37.0074 10.4931 36.4963 10.1425C35.9852 9.78888 35.6806 9.29709 35.5825 8.66712L37.156 8.51558C37.2273 8.82462 37.3788 9.05788 37.6106 9.21537C37.8424 9.37286 38.144 9.45161 38.5154 9.45161C38.8988 9.45161 39.2063 9.37286 39.4381 9.21537C39.6728 9.05788 39.7902 8.86325 39.7902 8.63147C39.7902 8.43535 39.7144 8.2734 39.5629 8.14562C39.4143 8.01785 39.1825 7.91979 38.8676 7.85144L37.6997 7.60629C37.043 7.4696 36.5572 7.23931 36.2422 6.91541C35.9272 6.58854 35.7712 6.1755 35.7742 5.67628C35.7712 5.25433 35.8856 4.88883 36.1174 4.57979C36.3522 4.26778 36.6775 4.02709 37.0936 3.85771C37.5125 3.68536 37.9954 3.59919 38.5422 3.59919C39.3445 3.59919 39.9759 3.77005 40.4365 4.11178C40.9001 4.4535 41.1868 4.91557 41.2968 5.49799Z" fill="#333333"/>
<rect x="0.448276" y="21.7416" width="259.103" height="90.5517" rx="3.13793" fill="white"/>
<path d="M13.9171 38.4657L11.0644 28.0331H12.3481L14.5284 36.53H14.6303L16.8513 28.0331H18.2776L20.4986 36.53H20.6005L22.7807 28.0331H24.0644L21.2118 38.4657H19.9077L17.6052 30.1522H17.5237L15.2212 38.4657H13.9171ZM24.9852 38.4657V30.6413H26.1466V31.8231H26.2281C26.3708 31.4359 26.6289 31.1218 27.0024 30.8807C27.376 30.6396 27.7971 30.519 28.2657 30.519C28.354 30.519 28.4644 30.5207 28.5969 30.5241C28.7293 30.5275 28.8295 30.5326 28.8974 30.5394V31.762C28.8567 31.7518 28.7633 31.7365 28.6172 31.7161C28.4746 31.6923 28.3235 31.6805 28.1639 31.6805C27.7835 31.6805 27.4439 31.7603 27.1451 31.9199C26.8496 32.0761 26.6153 32.2934 26.4421 32.5719C26.2723 32.847 26.1874 33.1611 26.1874 33.5143V38.4657H24.9852ZM30.3225 38.4657V30.6413H31.5247V38.4657H30.3225ZM30.9337 29.3372C30.6994 29.3372 30.4974 29.2574 30.3276 29.0978C30.1612 28.9382 30.078 28.7463 30.078 28.5222C30.078 28.298 30.1612 28.1061 30.3276 27.9465C30.4974 27.7869 30.6994 27.7071 30.9337 27.7071C31.1681 27.7071 31.3684 27.7869 31.5348 27.9465C31.7046 28.1061 31.7895 28.298 31.7895 28.5222C31.7895 28.7463 31.7046 28.9382 31.5348 29.0978C31.3684 29.2574 31.1681 29.3372 30.9337 29.3372ZM37.1294 30.6413V31.6601H33.0745V30.6413H37.1294ZM34.2563 28.7667H35.4585V36.2243C35.4585 36.564 35.5078 36.8187 35.6063 36.9885C35.7081 37.1549 35.8372 37.2669 35.9934 37.3247C36.153 37.379 36.3211 37.4062 36.4977 37.4062C36.6302 37.4062 36.7388 37.3994 36.8237 37.3858C36.9086 37.3688 36.9766 37.3552 37.0275 37.345L37.272 38.425C37.1905 38.4555 37.0767 38.4861 36.9307 38.5167C36.7847 38.5506 36.5996 38.5676 36.3755 38.5676C36.0359 38.5676 35.703 38.4946 35.377 38.3486C35.0544 38.2025 34.7861 37.9801 34.5722 37.6812C34.3616 37.3824 34.2563 37.0054 34.2563 36.5504V28.7667ZM42.1343 38.6287C41.3804 38.6287 40.73 38.4623 40.1833 38.1295C39.6399 37.7933 39.2205 37.3247 38.925 36.7236C38.633 36.1191 38.4869 35.4161 38.4869 34.6146C38.4869 33.8132 38.633 33.1068 38.925 32.4955C39.2205 31.8808 39.6314 31.402 40.1578 31.059C40.6876 30.7126 41.3056 30.5394 42.012 30.5394C42.4195 30.5394 42.822 30.6073 43.2193 30.7432C43.6166 30.879 43.9783 31.0997 44.3043 31.4054C44.6304 31.7076 44.8902 32.1084 45.0837 32.6076C45.2773 33.1068 45.3741 33.7215 45.3741 34.4516V34.961H39.3427V33.9218H44.1515C44.1515 33.4804 44.0632 33.0864 43.8866 32.74C43.7134 32.3936 43.4655 32.1202 43.1429 31.9199C42.8237 31.7195 42.4467 31.6193 42.012 31.6193C41.5332 31.6193 41.1189 31.7382 40.7691 31.9759C40.4227 32.2102 40.1561 32.5159 39.9693 32.8928C39.7825 33.2698 39.6891 33.6739 39.6891 34.1052V34.798C39.6891 35.3889 39.791 35.8898 39.9948 36.3008C40.2019 36.7083 40.4889 37.019 40.8557 37.233C41.2224 37.4435 41.6486 37.5488 42.1343 37.5488C42.4501 37.5488 42.7354 37.5047 42.9901 37.4164C43.2482 37.3247 43.4706 37.1888 43.6574 37.0088C43.8442 36.8254 43.9885 36.5979 44.0904 36.3262L45.2518 36.6522C45.1296 37.0462 44.9241 37.3926 44.6355 37.6914C44.3468 37.9869 43.9902 38.2178 43.5657 38.3842C43.1412 38.5472 42.6641 38.6287 42.1343 38.6287ZM52.4395 33.7588V38.4657H51.2373V28.0331H52.4395V31.8638H52.5414C52.7248 31.4597 52.9999 31.1388 53.3666 30.9011C53.7368 30.66 54.2292 30.5394 54.8439 30.5394C55.3771 30.5394 55.8441 30.6464 56.2448 30.8603C56.6455 31.0709 56.9563 31.3952 57.177 31.8333C57.4011 32.268 57.5132 32.8215 57.5132 33.4939V38.4657H56.311V33.5754C56.311 32.954 56.1497 32.4734 55.8271 32.1338C55.5078 31.7908 55.0647 31.6193 54.4975 31.6193C54.1036 31.6193 53.7504 31.7025 53.438 31.8689C53.1289 32.0353 52.8844 32.2782 52.7044 32.5974C52.5278 32.9166 52.4395 33.3038 52.4395 33.7588ZM62.9931 38.6287C62.2392 38.6287 61.5889 38.4623 61.0421 38.1295C60.4987 37.7933 60.0793 37.3247 59.7839 36.7236C59.4918 36.1191 59.3458 35.4161 59.3458 34.6146C59.3458 33.8132 59.4918 33.1068 59.7839 32.4955C60.0793 31.8808 60.4902 31.402 61.0166 31.059C61.5464 30.7126 62.1645 30.5394 62.8709 30.5394C63.2784 30.5394 63.6808 30.6073 64.0781 30.7432C64.4755 30.879 64.8372 31.0997 65.1632 31.4054C65.4892 31.7076 65.749 32.1084 65.9426 32.6076C66.1361 33.1068 66.2329 33.7215 66.2329 34.4516V34.961H60.2016V33.9218H65.0104C65.0104 33.4804 64.9221 33.0864 64.7455 32.74C64.5723 32.3936 64.3244 32.1202 64.0017 31.9199C63.6825 31.7195 63.3056 31.6193 62.8709 31.6193C62.392 31.6193 61.9777 31.7382 61.6279 31.9759C61.2815 32.2102 61.0149 32.5159 60.8281 32.8928C60.6414 33.2698 60.548 33.6739 60.548 34.1052V34.798C60.548 35.3889 60.6499 35.8898 60.8536 36.3008C61.0608 36.7083 61.3477 37.019 61.7145 37.233C62.0813 37.4435 62.5075 37.5488 62.9931 37.5488C63.3089 37.5488 63.5942 37.5047 63.8489 37.4164C64.107 37.3247 64.3295 37.1888 64.5162 37.0088C64.703 36.8254 64.8473 36.5979 64.9492 36.3262L66.1107 36.6522C65.9884 37.0462 65.783 37.3926 65.4943 37.6914C65.2056 37.9869 64.849 38.2178 64.4245 38.3842C64 38.5472 63.5229 38.6287 62.9931 38.6287ZM68.0617 38.4657V30.6413H69.2231V31.8231H69.3046C69.4473 31.4359 69.7054 31.1218 70.0789 30.8807C70.4525 30.6396 70.8736 30.519 71.3423 30.519C71.4306 30.519 71.5409 30.5207 71.6734 30.5241C71.8058 30.5275 71.906 30.5326 71.9739 30.5394V31.762C71.9332 31.7518 71.8398 31.7365 71.6937 31.7161C71.5511 31.6923 71.4 31.6805 71.2404 31.6805C70.86 31.6805 70.5204 31.7603 70.2216 31.9199C69.9261 32.0761 69.6918 32.2934 69.5186 32.5719C69.3488 32.847 69.2639 33.1611 69.2639 33.5143V38.4657H68.0617ZM76.4414 38.6287C75.6875 38.6287 75.0371 38.4623 74.4904 38.1295C73.947 37.7933 73.5276 37.3247 73.2321 36.7236C72.9401 36.1191 72.7941 35.4161 72.7941 34.6146C72.7941 33.8132 72.9401 33.1068 73.2321 32.4955C73.5276 31.8808 73.9385 31.402 74.4649 31.059C74.9947 30.7126 75.6128 30.5394 76.3191 30.5394C76.7267 30.5394 77.1291 30.6073 77.5264 30.7432C77.9238 30.879 78.2854 31.0997 78.6115 31.4054C78.9375 31.7076 79.1973 32.1084 79.3908 32.6076C79.5844 33.1068 79.6812 33.7215 79.6812 34.4516V34.961H73.6499V33.9218H78.4586C78.4586 33.4804 78.3703 33.0864 78.1937 32.74C78.0205 32.3936 77.7726 32.1202 77.45 31.9199C77.1308 31.7195 76.7538 31.6193 76.3191 31.6193C75.8403 31.6193 75.426 31.7382 75.0762 31.9759C74.7298 32.2102 74.4632 32.5159 74.2764 32.8928C74.0896 33.2698 73.9963 33.6739 73.9963 34.1052V34.798C73.9963 35.3889 74.0981 35.8898 74.3019 36.3008C74.5091 36.7083 74.796 37.019 75.1628 37.233C75.5296 37.4435 75.9558 37.5488 76.4414 37.5488C76.7572 37.5488 77.0425 37.5047 77.2972 37.4164C77.5553 37.3247 77.7777 37.1888 77.9645 37.0088C78.1513 36.8254 78.2956 36.5979 78.3975 36.3262L79.5589 36.6522C79.4367 37.0462 79.2312 37.3926 78.9426 37.6914C78.6539 37.9869 78.2973 38.2178 77.8728 38.3842C77.4483 38.5472 76.9712 38.6287 76.4414 38.6287ZM86.3187 41.3999C86.115 41.3999 85.9333 41.3829 85.7737 41.349C85.6141 41.3184 85.5037 41.2878 85.4426 41.2573L85.7482 40.1977C86.0403 40.2724 86.2984 40.2996 86.5225 40.2792C86.7466 40.2588 86.9453 40.1586 87.1185 39.9787C87.2951 39.8021 87.4564 39.5151 87.6024 39.1178L87.8266 38.5065L84.9332 30.6413H86.2372L88.3971 36.8764H88.4786L90.6385 30.6413H91.9426L88.6213 39.6068C88.4718 40.0109 88.2867 40.3454 88.066 40.6103C87.8453 40.8786 87.5889 41.0773 87.2968 41.2063C87.0081 41.3354 86.6821 41.3999 86.3187 41.3999ZM96.4279 38.6287C95.7215 38.6287 95.1017 38.4606 94.5686 38.1244C94.0388 37.7882 93.6245 37.3179 93.3256 36.7134C93.0301 36.1089 92.8824 35.4025 92.8824 34.5943C92.8824 33.7792 93.0301 33.0677 93.3256 32.4599C93.6245 31.852 94.0388 31.3799 94.5686 31.0437C95.1017 30.7075 95.7215 30.5394 96.4279 30.5394C97.1343 30.5394 97.7523 30.7075 98.2821 31.0437C98.8153 31.3799 99.2296 31.852 99.5251 32.4599C99.8239 33.0677 99.9733 33.7792 99.9733 34.5943C99.9733 35.4025 99.8239 36.1089 99.5251 36.7134C99.2296 37.3179 98.8153 37.7882 98.2821 38.1244C97.7523 38.4606 97.1343 38.6287 96.4279 38.6287ZM96.4279 37.5488C96.9644 37.5488 97.4059 37.4113 97.7523 37.1362C98.0987 36.8611 98.3551 36.4994 98.5215 36.0512C98.6879 35.6029 98.7711 35.1172 98.7711 34.5943C98.7711 34.0713 98.6879 33.5839 98.5215 33.1323C98.3551 32.6806 98.0987 32.3155 97.7523 32.037C97.4059 31.7586 96.9644 31.6193 96.4279 31.6193C95.8913 31.6193 95.4498 31.7586 95.1034 32.037C94.757 32.3155 94.5006 32.6806 94.3342 33.1323C94.1678 33.5839 94.0846 34.0713 94.0846 34.5943C94.0846 35.1172 94.1678 35.6029 94.3342 36.0512C94.5006 36.4994 94.757 36.8611 95.1034 37.1362C95.4498 37.4113 95.8913 37.5488 96.4279 37.5488ZM106.739 35.2667V30.6413H107.942V38.4657H106.739V37.1413H106.658C106.475 37.5386 106.189 37.8765 105.802 38.155C105.415 38.4301 104.926 38.5676 104.335 38.5676C103.846 38.5676 103.411 38.4606 103.031 38.2467C102.651 38.0293 102.352 37.7033 102.134 37.2686C101.917 36.8305 101.808 36.2787 101.808 35.6131V30.6413H103.011V35.5316C103.011 36.1021 103.17 36.5572 103.489 36.8968C103.812 37.2364 104.223 37.4062 104.722 37.4062C105.021 37.4062 105.325 37.3298 105.634 37.1769C105.947 37.0241 106.208 36.7898 106.419 36.474C106.633 36.1581 106.739 35.7557 106.739 35.2667ZM110.144 38.4657V30.6413H111.305V31.8231H111.387C111.529 31.4359 111.787 31.1218 112.161 30.8807C112.534 30.6396 112.955 30.519 113.424 30.519C113.512 30.519 113.623 30.5207 113.755 30.5241C113.888 30.5275 113.988 30.5326 114.056 30.5394V31.762C114.015 31.7518 113.922 31.7365 113.776 31.7161C113.633 31.6923 113.482 31.6805 113.322 31.6805C112.942 31.6805 112.602 31.7603 112.303 31.9199C112.008 32.0761 111.774 32.2934 111.6 32.5719C111.431 32.847 111.346 33.1611 111.346 33.5143V38.4657H110.144ZM123 30.6413V31.6601H118.782V30.6413H123ZM120.045 38.4657V29.5613C120.045 29.1131 120.15 28.7395 120.361 28.4406C120.572 28.1418 120.845 27.9177 121.181 27.7682C121.517 27.6188 121.872 27.5441 122.246 27.5441C122.541 27.5441 122.782 27.5679 122.969 27.6154C123.156 27.663 123.295 27.7071 123.387 27.7479L123.04 28.787C122.979 28.7667 122.894 28.7412 122.786 28.7106C122.68 28.6801 122.541 28.6648 122.368 28.6648C121.971 28.6648 121.684 28.765 121.507 28.9653C121.334 29.1657 121.247 29.4595 121.247 29.8466V38.4657H120.045ZM127.643 38.6287C126.889 38.6287 126.239 38.4623 125.692 38.1295C125.149 37.7933 124.729 37.3247 124.434 36.7236C124.142 36.1191 123.996 35.4161 123.996 34.6146C123.996 33.8132 124.142 33.1068 124.434 32.4955C124.729 31.8808 125.14 31.402 125.666 31.059C126.196 30.7126 126.814 30.5394 127.521 30.5394C127.928 30.5394 128.331 30.6073 128.728 30.7432C129.125 30.879 129.487 31.0997 129.813 31.4054C130.139 31.7076 130.399 32.1084 130.592 32.6076C130.786 33.1068 130.883 33.7215 130.883 34.4516V34.961H124.851V33.9218H129.66C129.66 33.4804 129.572 33.0864 129.395 32.74C129.222 32.3936 128.974 32.1202 128.652 31.9199C128.332 31.7195 127.955 31.6193 127.521 31.6193C127.042 31.6193 126.627 31.7382 126.278 31.9759C125.931 32.2102 125.665 32.5159 125.478 32.8928C125.291 33.2698 125.198 33.6739 125.198 34.1052V34.798C125.198 35.3889 125.3 35.8898 125.503 36.3008C125.711 36.7083 125.998 37.019 126.364 37.233C126.731 37.4435 127.157 37.5488 127.643 37.5488C127.959 37.5488 128.244 37.5047 128.499 37.4164C128.757 37.3247 128.979 37.1888 129.166 37.0088C129.353 36.8254 129.497 36.5979 129.599 36.3262L130.76 36.6522C130.638 37.0462 130.433 37.3926 130.144 37.6914C129.855 37.9869 129.499 38.2178 129.074 38.3842C128.65 38.5472 128.173 38.6287 127.643 38.6287ZM135.992 38.6287C135.238 38.6287 134.588 38.4623 134.041 38.1295C133.498 37.7933 133.078 37.3247 132.783 36.7236C132.491 36.1191 132.345 35.4161 132.345 34.6146C132.345 33.8132 132.491 33.1068 132.783 32.4955C133.078 31.8808 133.489 31.402 134.016 31.059C134.545 30.7126 135.163 30.5394 135.87 30.5394C136.277 30.5394 136.68 30.6073 137.077 30.7432C137.474 30.879 137.836 31.0997 138.162 31.4054C138.488 31.7076 138.748 32.1084 138.941 32.6076C139.135 33.1068 139.232 33.7215 139.232 34.4516V34.961H133.201V33.9218H138.009C138.009 33.4804 137.921 33.0864 137.744 32.74C137.571 32.3936 137.323 32.1202 137.001 31.9199C136.681 31.7195 136.304 31.6193 135.87 31.6193C135.391 31.6193 134.977 31.7382 134.627 31.9759C134.28 32.2102 134.014 32.5159 133.827 32.8928C133.64 33.2698 133.547 33.6739 133.547 34.1052V34.798C133.547 35.3889 133.649 35.8898 133.853 36.3008C134.06 36.7083 134.347 37.019 134.713 37.233C135.08 37.4435 135.506 37.5488 135.992 37.5488C136.308 37.5488 136.593 37.5047 136.848 37.4164C137.106 37.3247 137.328 37.1888 137.515 37.0088C137.702 36.8254 137.846 36.5979 137.948 36.3262L139.11 36.6522C138.987 37.0462 138.782 37.3926 138.493 37.6914C138.205 37.9869 137.848 38.2178 137.423 38.3842C136.999 38.5472 136.522 38.6287 135.992 38.6287ZM144.015 38.6287C143.363 38.6287 142.787 38.464 142.288 38.1346C141.789 37.8018 141.399 37.3332 141.117 36.7287C140.835 36.1208 140.694 35.4025 140.694 34.5739C140.694 33.752 140.835 33.0389 141.117 32.4344C141.399 31.8299 141.791 31.3629 142.293 31.0335C142.796 30.7041 143.377 30.5394 144.036 30.5394C144.545 30.5394 144.947 30.6243 145.243 30.7941C145.542 30.9605 145.769 31.1507 145.925 31.3646C146.085 31.5752 146.209 31.7484 146.297 31.8842H146.399V28.0331H147.601V38.4657H146.44V37.2635H146.297C146.209 37.4062 146.083 37.5862 145.92 37.8035C145.757 38.0175 145.525 38.2093 145.222 38.3791C144.92 38.5455 144.518 38.6287 144.015 38.6287ZM144.178 37.5488C144.66 37.5488 145.068 37.4231 145.401 37.1718C145.734 36.9171 145.987 36.5657 146.16 36.1174C146.333 35.6657 146.42 35.1444 146.42 34.5535C146.42 33.9694 146.335 33.4583 146.165 33.0202C145.995 32.5787 145.744 32.2357 145.411 31.9912C145.078 31.7433 144.667 31.6193 144.178 31.6193C143.669 31.6193 143.244 31.7501 142.905 32.0116C142.568 32.2697 142.315 32.6212 142.146 33.066C141.979 33.5075 141.896 34.0033 141.896 34.5535C141.896 35.1105 141.981 35.6165 142.151 36.0715C142.324 36.5232 142.579 36.8832 142.915 37.1515C143.254 37.4164 143.676 37.5488 144.178 37.5488ZM150.133 38.4657V28.0331H151.335V31.8842H151.437C151.525 31.7484 151.648 31.5752 151.804 31.3646C151.964 31.1507 152.191 30.9605 152.487 30.7941C152.785 30.6243 153.19 30.5394 153.699 30.5394C154.358 30.5394 154.938 30.7041 155.441 31.0335C155.944 31.3629 156.336 31.8299 156.618 32.4344C156.9 33.0389 157.041 33.752 157.041 34.5739C157.041 35.4025 156.9 36.1208 156.618 36.7287C156.336 37.3332 155.945 37.8018 155.446 38.1346C154.947 38.464 154.371 38.6287 153.719 38.6287C153.217 38.6287 152.814 38.5455 152.512 38.3791C152.21 38.2093 151.977 38.0175 151.814 37.8035C151.651 37.5862 151.525 37.4062 151.437 37.2635H151.295V38.4657H150.133ZM151.315 34.5535C151.315 35.1444 151.402 35.6657 151.575 36.1174C151.748 36.5657 152.001 36.9171 152.334 37.1718C152.667 37.4231 153.074 37.5488 153.556 37.5488C154.059 37.5488 154.478 37.4164 154.815 37.1515C155.154 36.8832 155.409 36.5232 155.579 36.0715C155.752 35.6165 155.838 35.1105 155.838 34.5535C155.838 34.0033 155.754 33.5075 155.584 33.066C155.417 32.6212 155.164 32.2697 154.825 32.0116C154.489 31.7501 154.066 31.6193 153.556 31.6193C153.067 31.6193 152.656 31.7433 152.324 31.9912C151.991 32.2357 151.739 32.5787 151.57 33.0202C151.4 33.4583 151.315 33.9694 151.315 34.5535ZM161.182 38.6491C160.686 38.6491 160.236 38.5557 159.832 38.3689C159.428 38.1788 159.107 37.9054 158.869 37.5488C158.632 37.1888 158.513 36.7541 158.513 36.2447C158.513 35.7964 158.601 35.4331 158.778 35.1546C158.954 34.8727 159.19 34.652 159.486 34.4924C159.781 34.3328 160.107 34.2139 160.464 34.1358C160.824 34.0543 161.185 33.9898 161.549 33.9422C162.024 33.8811 162.41 33.8352 162.705 33.8047C163.004 33.7707 163.221 33.7147 163.357 33.6366C163.496 33.5585 163.566 33.4226 163.566 33.2291V33.1883C163.566 32.6857 163.429 32.2951 163.153 32.0167C162.882 31.7382 162.469 31.599 161.916 31.599C161.342 31.599 160.892 31.7246 160.566 31.9759C160.24 32.2272 160.01 32.4955 159.878 32.7808L158.737 32.3733C158.941 31.8978 159.212 31.5276 159.552 31.2628C159.895 30.9945 160.269 30.8077 160.673 30.7024C161.08 30.5937 161.481 30.5394 161.875 30.5394C162.126 30.5394 162.415 30.57 162.741 30.6311C163.07 30.6888 163.388 30.8094 163.693 30.9928C164.002 31.1762 164.259 31.4529 164.463 31.8231C164.666 32.1933 164.768 32.6891 164.768 33.3106V38.4657H163.566V37.4062H163.505C163.423 37.576 163.288 37.7577 163.097 37.9512C162.907 38.1448 162.654 38.3095 162.338 38.4454C162.023 38.5812 161.637 38.6491 161.182 38.6491ZM161.365 37.5692C161.841 37.5692 162.242 37.4758 162.568 37.289C162.897 37.1022 163.145 36.8611 163.311 36.5657C163.481 36.2702 163.566 35.9595 163.566 35.6334V34.5331C163.515 34.5943 163.403 34.6503 163.23 34.7012C163.06 34.7488 162.863 34.7912 162.639 34.8286C162.418 34.8625 162.203 34.8931 161.992 34.9203C161.785 34.944 161.617 34.9644 161.488 34.9814C161.175 35.0222 160.883 35.0884 160.612 35.1801C160.343 35.2684 160.126 35.4025 159.96 35.5825C159.797 35.7591 159.715 36.0002 159.715 36.3059C159.715 36.7236 159.87 37.0394 160.179 37.2533C160.491 37.4639 160.887 37.5692 161.365 37.5692ZM170.141 38.6287C169.408 38.6287 168.776 38.4555 168.246 38.1091C167.716 37.7628 167.309 37.2856 167.024 36.6777C166.738 36.0698 166.596 35.3753 166.596 34.5943C166.596 33.7996 166.742 33.0983 167.034 32.4904C167.329 31.8791 167.74 31.402 168.267 31.059C168.796 30.7126 169.414 30.5394 170.121 30.5394C170.671 30.5394 171.167 30.6413 171.608 30.845C172.05 31.0488 172.411 31.3341 172.693 31.7008C172.975 32.0676 173.15 32.4955 173.218 32.9845H172.016C171.924 32.628 171.72 32.3121 171.405 32.037C171.092 31.7586 170.671 31.6193 170.141 31.6193C169.673 31.6193 169.262 31.7416 168.908 31.9861C168.559 32.2272 168.285 32.5685 168.088 33.01C167.895 33.4481 167.798 33.9626 167.798 34.5535C167.798 35.158 167.893 35.6844 168.083 36.1327C168.277 36.5809 168.549 36.929 168.898 37.1769C169.251 37.4248 169.666 37.5488 170.141 37.5488C170.454 37.5488 170.737 37.4945 170.992 37.3858C171.247 37.2771 171.462 37.1209 171.639 36.9171C171.815 36.7134 171.941 36.4689 172.016 36.1836H173.218C173.15 36.6455 172.982 37.0615 172.714 37.4316C172.449 37.7984 172.097 38.0905 171.659 38.3078C171.225 38.5218 170.719 38.6287 170.141 38.6287ZM176.096 35.6131L176.076 34.1256H176.32L179.744 30.6413H181.231L177.584 34.3294H177.482L176.096 35.6131ZM174.975 38.4657V28.0331H176.178V38.4657H174.975ZM179.947 38.4657L176.891 34.5943L177.747 33.7588L181.475 38.4657H179.947Z" fill="#757575"/>
<rect x="0.448276" y="21.7416" width="259.103" height="90.5517" rx="3.13793" stroke="#545454" stroke-width="0.896552"/>
</svg>
