<svg width="672" height="210" fill="none" xmlns="http://www.w3.org/2000/svg"><path fill="#F6F6F6" d="M0 0h672v210H0z"/><path d="M106.88 41v-7.27h.88v6.49h3.38V41h-4.26Zm7.12.13a2.2 2.2 0 0 1-.94-.2c-.29-.13-.5-.32-.67-.57a1.61 1.61 0 0 1-.25-.9c0-.32.06-.57.18-.77.12-.2.29-.35.5-.46.2-.11.43-.2.68-.25a33.94 33.94 0 0 1 1.56-.23c.2-.02.36-.06.45-.12.1-.05.15-.15.15-.28v-.03c0-.35-.1-.62-.29-.82-.19-.19-.48-.29-.86-.29-.4 0-.72.1-.94.27-.23.17-.39.36-.48.56l-.8-.29c.14-.33.33-.59.57-.77.24-.19.5-.32.78-.4a3.24 3.24 0 0 1 1.44-.04c.23.04.45.12.67.25.21.13.4.32.53.58.15.26.22.6.22 1.04V41h-.84v-.74h-.04a1.63 1.63 0 0 1-.81.72c-.23.1-.5.15-.81.15Zm.13-.76c.33 0 .6-.06.83-.19a1.33 1.33 0 0 0 .7-1.15v-.77a.59.59 0 0 1-.23.12 4 4 0 0 1-.87.15l-.35.04c-.22.03-.42.08-.61.14a.94.94 0 0 0-.45.28.71.71 0 0 0-.18.5c0 .3.11.52.33.66.22.15.5.23.83.23Zm4.01.63v-7.27h.84v2.68h.07l.26-.36c.1-.15.27-.28.47-.4.2-.12.5-.18.85-.18a2.17 2.17 0 0 1 2.03 1.33c.2.42.3.91.3 1.49 0 .57-.1 1.08-.3 1.5a2.14 2.14 0 0 1-2.02 1.32 1.7 1.7 0 0 1-.84-.17 1.56 1.56 0 0 1-.49-.4l-.26-.38h-.1V41h-.81Zm.82-2.73c0 .41.07.78.19 1.1.12.3.3.55.52.73.24.17.52.26.86.26.35 0 .64-.1.87-.28.24-.18.42-.43.54-.75.12-.32.18-.67.18-1.06 0-.38-.06-.73-.18-1.03a1.6 1.6 0 0 0-.53-.74 1.4 1.4 0 0 0-.88-.27 1.4 1.4 0 0 0-1.39.97c-.12.3-.18.67-.18 1.07Zm7.57 2.84c-.53 0-.98-.11-1.36-.34a2.34 2.34 0 0 1-.88-.98c-.2-.43-.3-.92-.3-1.47 0-.56.1-1.06.3-1.48a2.3 2.3 0 0 1 2.15-1.36c.28 0 .56.04.84.14a2.08 2.08 0 0 1 1.3 1.3c.14.34.2.77.2 1.28v.36h-4.2v-.73h3.35c0-.3-.06-.58-.18-.82a1.38 1.38 0 0 0-1.31-.78 1.5 1.5 0 0 0-1.42.89c-.13.26-.2.54-.2.84v.48c0 .42.07.76.21 1.05.15.28.35.5.6.65.26.15.56.22.9.22.22 0 .41-.03.6-.1a1.21 1.21 0 0 0 .76-.75l.8.23c-.08.27-.22.51-.42.72-.2.2-.45.37-.75.48-.3.12-.63.17-1 .17Zm4.37-7.38V41h-.84v-7.27h.84Zm6.77 1.82v.7h-2.94v-.7h2.94ZM135.61 41v-6.2c0-.32.08-.58.22-.79.15-.2.34-.36.57-.47a2.1 2.1 0 0 1 1.54-.01l-.24.72-.18-.05a1.07 1.07 0 0 0-.29-.03c-.27 0-.47.07-.6.2a.95.95 0 0 0-.18.62V41h-.84Zm5.23.11c-.5 0-.93-.11-1.3-.35a2.39 2.39 0 0 1-.86-.98 3.3 3.3 0 0 1-.31-1.48c0-.57.1-1.06.3-1.49a2.37 2.37 0 0 1 2.17-1.34c.5 0 .92.12 1.3.36.36.23.65.56.86.98.2.43.31.92.31 1.5 0 .55-.1 1.05-.31 1.47a2.3 2.3 0 0 1-2.17 1.33Zm0-.75c.37 0 .68-.1.92-.29.24-.19.42-.44.54-.75a3.07 3.07 0 0 0 0-2.04c-.12-.31-.3-.57-.54-.76a1.4 1.4 0 0 0-.92-.3c-.38 0-.68.1-.93.3-.24.2-.41.45-.53.76-.12.32-.17.66-.17 1.02 0 .37.05.7.17 1.02.12.3.3.56.53.75.25.2.55.3.93.3Zm4.59-2.64V41h-.84v-5.45h.8v.85h.08c.13-.28.32-.5.58-.67.26-.17.6-.26 1.01-.26.37 0 .7.08.97.23.28.15.5.38.65.68.15.3.23.69.23 1.15V41h-.84v-3.4c0-.44-.11-.77-.33-1.01a1.19 1.19 0 0 0-.92-.36c-.27 0-.5.06-.72.17-.2.12-.37.29-.5.5-.11.23-.17.5-.17.82Zm7.38-2.17v.7h-2.83v-.7h2.83Zm-2-1.31h.84v5.2c0 .23.03.41.1.53.07.12.16.2.27.23.11.04.23.06.35.06l.23-.01.14-.03.17.75a1.75 1.75 0 0 1-.62.1 1.7 1.7 0 0 1-.7-.15 1.4 1.4 0 0 1-.56-.47 1.3 1.3 0 0 1-.22-.79v-5.42Z" fill="#E8178A"/><path d="M162 37.5h30" stroke="#E8178A"/><circle cx="191" cy="37.5" r="1" fill="#E8178A"/><path d="M195.46 42H192V31.82h3.52c1.01 0 1.88.2 2.6.61.74.4 1.3.99 1.69 1.74.4.76.59 1.67.59 2.73s-.2 1.97-.6 2.73a4.1 4.1 0 0 1-1.7 1.76 5.4 5.4 0 0 1-2.64.61Zm-1.61-1.6h1.52c.7 0 1.3-.13 1.77-.38.47-.27.83-.65 1.07-1.17.24-.52.36-1.17.36-1.95s-.12-1.43-.36-1.94a2.5 2.5 0 0 0-1.06-1.16 3.52 3.52 0 0 0-1.73-.39h-1.57v7Zm11.6 1.75c-.77 0-1.43-.16-1.98-.48a3.23 3.23 0 0 1-1.28-1.36 4.55 4.55 0 0 1-.45-2.08c0-.79.15-1.48.45-2.07a3.38 3.38 0 0 1 3.16-1.9c.48 0 .92.08 1.34.23a3 3 0 0 1 1.11.7c.33.31.58.71.77 1.2.18.49.28 1.06.28 1.73v.55h-6.26v-1.2h4.53a2 2 0 0 0-.22-.93 1.63 1.63 0 0 0-.62-.64 1.72 1.72 0 0 0-.9-.23 1.8 1.8 0 0 0-1.62.96 2 2 0 0 0-.23.94v1.06c0 .44.08.82.24 1.14.16.32.39.56.68.73.3.16.63.25 1.03.25.26 0 .5-.04.7-.11.22-.08.4-.19.56-.34.15-.14.27-.32.35-.54l1.68.2c-.1.44-.3.82-.6 1.16-.3.32-.68.58-1.14.76-.46.18-.99.27-1.58.27Zm8.73-7.79v1.4h-4.39v-1.4h4.4Zm-3.3-1.83h1.8v7.17c0 .25.03.43.1.56.08.13.18.21.3.26.13.04.26.07.41.07a1.74 1.74 0 0 0 .53-.07l.3 1.4a3.98 3.98 0 0 1-1.06.18c-.45.02-.85-.05-1.22-.2a1.9 1.9 0 0 1-.86-.7c-.2-.32-.3-.72-.3-1.2v-7.47Zm7 9.62c-.48 0-.92-.08-1.3-.25a2.13 2.13 0 0 1-.92-.78 2.27 2.27 0 0 1-.33-1.26c0-.43.08-.79.24-1.07.16-.28.37-.5.65-.68.27-.17.58-.3.93-.38.35-.09.7-.15 1.08-.2l1.09-.12c.27-.04.48-.1.6-.18.13-.08.2-.2.2-.38v-.03c0-.37-.12-.66-.34-.87-.22-.2-.54-.3-.96-.3-.44 0-.79.09-1.04.28-.26.2-.43.42-.52.68l-1.68-.24a2.69 2.69 0 0 1 1.77-1.87 4.76 4.76 0 0 1 2.56-.1c.37.08.7.22 1 .42.3.2.55.46.73.8.18.34.28.76.28 1.27V42h-1.73v-1.05h-.06a2.19 2.19 0 0 1-1.2 1.04c-.3.1-.65.16-1.05.16Zm.47-1.32c.36 0 .68-.07.94-.21a1.55 1.55 0 0 0 .83-1.36v-.9a.84.84 0 0 1-.29.13 13.36 13.36 0 0 1-1.36.24c-.27.04-.5.1-.72.18-.21.09-.38.2-.5.35a.85.85 0 0 0-.19.57c0 .33.13.58.37.75.24.17.55.25.92.25Zm5.38 1.17v-7.64h1.8V42h-1.8Zm.9-8.72c-.28 0-.53-.1-.73-.28a.91.91 0 0 1-.31-.7c0-.27.1-.5.3-.69.21-.19.46-.28.74-.28.29 0 .53.1.74.28.2.2.3.42.3.7 0 .26-.1.5-.3.69-.2.19-.45.28-.74.28Zm4.55-1.46V42h-1.8V31.82h1.8Zm7.88 4.56-1.64.18a1.31 1.31 0 0 0-.7-.82c-.2-.09-.43-.13-.7-.13-.38 0-.7.08-.95.24-.25.16-.38.37-.37.63 0 .22.08.4.24.54.17.14.45.26.84.35l1.3.27c.72.16 1.26.4 1.6.75.36.33.54.78.55 1.32 0 .48-.15.9-.43 1.28-.27.36-.66.65-1.15.85-.49.2-1.05.3-1.69.3-.93 0-1.68-.19-2.25-.58-.57-.4-.91-.94-1.02-1.64l1.75-.17c.08.34.25.6.51.78.26.17.6.26 1.01.26.43 0 .77-.09 1.03-.26.26-.18.4-.4.4-.65a.7.7 0 0 0-.26-.54 1.77 1.77 0 0 0-.78-.33l-1.3-.28a3.1 3.1 0 0 1-1.63-.77 1.9 1.9 0 0 1-.52-1.38c0-.47.13-.88.38-1.22a2.5 2.5 0 0 1 1.1-.8 4 4 0 0 1 1.6-.3c.9 0 1.6.2 2.12.58.52.38.84.9.96 1.54Z" fill="#333"/><path d="M195.38 64h-3.15V53.82h3.28c1 0 1.84.2 2.54.61a4 4 0 0 1 1.61 1.74c.38.76.57 1.67.57 2.72 0 1.06-.2 1.97-.57 2.74a4.04 4.04 0 0 1-1.65 1.76c-.72.4-1.6.61-2.63.61Zm-1.91-1.1h1.82c.85 0 1.55-.16 2.1-.48a3 3 0 0 0 1.24-1.39c.27-.6.4-1.31.4-2.14 0-.82-.13-1.53-.4-2.12a2.97 2.97 0 0 0-1.2-1.38 3.8 3.8 0 0 0-2-.48h-1.96v8Zm11.87 1.26a3.27 3.27 0 0 1-3.13-1.86 4.68 4.68 0 0 1-.43-2.06c0-.78.14-1.47.43-2.07a3.23 3.23 0 0 1 3.01-1.9c.4 0 .79.06 1.18.2a2.92 2.92 0 0 1 1.82 1.81 5 5 0 0 1 .28 1.8v.5h-5.89v-1.01h4.7c0-.44-.09-.82-.26-1.16a1.95 1.95 0 0 0-1.83-1.1c-.47 0-.87.12-1.21.36-.34.22-.6.52-.78.9-.19.36-.28.75-.28 1.17v.68c0 .58.1 1.07.3 1.47.2.4.48.7.84.9a2.68 2.68 0 0 0 2.08.19c.26-.1.47-.23.66-.4.18-.18.32-.4.42-.67l1.13.32c-.12.38-.32.72-.6 1.01-.28.3-.63.52-1.04.68-.42.16-.89.24-1.4.24Zm10.35-6.09-1.05.3a1.95 1.95 0 0 0-.3-.51c-.12-.17-.3-.3-.51-.42-.22-.1-.5-.16-.84-.16a2 2 0 0 0-1.17.32c-.3.21-.46.48-.46.81 0 .3.1.52.32.7.2.16.54.3 1 .42l1.13.27c.68.17 1.19.42 1.52.76.34.34.5.78.5 1.31 0 .44-.12.83-.38 1.18-.24.34-.6.61-1.04.81-.45.2-.97.3-1.56.3-.78 0-1.42-.17-1.93-.5a2.25 2.25 0 0 1-.97-1.49l1.11-.28c.1.41.3.72.6.93.3.2.69.3 1.17.3.55 0 .98-.11 1.3-.34.33-.24.49-.52.49-.85a.9.9 0 0 0-.28-.66 1.78 1.78 0 0 0-.85-.41l-1.28-.3a3.03 3.03 0 0 1-1.54-.77 1.87 1.87 0 0 1-.48-1.32c0-.43.12-.81.36-1.14.24-.33.58-.6 1-.78.42-.2.9-.29 1.44-.29.75 0 1.35.17 1.78.5.43.33.74.77.92 1.31Zm5.01 6.09a3.3 3.3 0 0 1-1.85-.5 3.3 3.3 0 0 1-1.2-1.4 4.74 4.74 0 0 1-.4-2.04c0-.77.13-1.46.42-2.05a3.23 3.23 0 0 1 3.01-1.9c.54 0 1.02.1 1.45.3a2.6 2.6 0 0 1 1.57 2.09h-1.17a1.81 1.81 0 0 0-1.83-1.34c-.46 0-.86.12-1.2.36-.34.23-.61.56-.8 1a3.7 3.7 0 0 0-.28 1.5 4 4 0 0 0 .27 1.54c.2.44.46.78.8 1.02s.75.37 1.21.37c.3 0 .58-.06.83-.16a1.71 1.71 0 0 0 1-1.18h1.17a2.71 2.71 0 0 1-1.52 2.08c-.42.2-.92.3-1.48.3Zm4.72-.16v-7.64h1.13v1.16h.08c.14-.38.4-.69.76-.92.36-.24.77-.36 1.23-.36a13.07 13.07 0 0 1 .62.02v1.2a3.46 3.46 0 0 0-.72-.08c-.37 0-.7.08-1 .23a1.72 1.72 0 0 0-.94 1.56V64h-1.16Zm5.2 0v-7.64h1.18V64h-1.17Zm.6-8.9a.83.83 0 0 1-.59-.24.75.75 0 0 1-.24-.56c0-.22.08-.41.24-.57a.83.83 0 0 1 .6-.23c.22 0 .42.08.58.23.17.16.25.35.25.57 0 .21-.08.4-.25.56a.82.82 0 0 1-.59.23Zm2.73 11.76v-10.5h1.13v1.22h.14l.36-.51c.16-.2.38-.4.67-.56.29-.16.68-.25 1.18-.25a3.03 3.03 0 0 1 2.85 1.85c.28.6.41 1.29.41 2.1 0 .8-.13 1.5-.41 2.1a2.99 2.99 0 0 1-2.83 1.85 2.5 2.5 0 0 1-1.18-.24 2.2 2.2 0 0 1-.68-.57 7.43 7.43 0 0 1-.37-.52h-.1v4.03h-1.17Zm1.15-6.68c0 .58.09 1.09.26 1.53.17.44.41.78.74 1.03.32.24.72.37 1.2.37s.9-.13 1.22-.4c.33-.25.58-.6.74-1.05.17-.44.26-.93.26-1.48a3.9 3.9 0 0 0-.25-1.45c-.16-.43-.4-.78-.74-1.03a1.96 1.96 0 0 0-1.24-.38 1.95 1.95 0 0 0-1.94 1.37 4.2 4.2 0 0 0-.25 1.5Zm10.7-3.82v1h-3.95v-1h3.95Zm-2.8-1.83h1.17v7.28c0 .33.05.58.15.75.1.16.22.27.37.33.16.05.32.08.5.08l.31-.02.2-.04.24 1.05a2.33 2.33 0 0 1-.87.14c-.33 0-.66-.07-.98-.21a1.94 1.94 0 0 1-.78-.66 1.9 1.9 0 0 1-.31-1.1v-7.6Zm4.57 9.47v-7.64h1.17V64h-1.17Zm.6-8.9a.83.83 0 0 1-.6-.24.75.75 0 0 1-.24-.56c0-.22.08-.41.24-.57a.83.83 0 0 1 .6-.23c.22 0 .42.08.58.23.17.16.25.35.25.57 0 .21-.08.4-.25.56a.82.82 0 0 1-.59.23Zm5.82 9.06a3.2 3.2 0 0 1-1.81-.5 3.35 3.35 0 0 1-1.22-1.37 4.65 4.65 0 0 1-.43-2.07c0-.8.15-1.49.44-2.08.29-.6.7-1.06 1.2-1.38.53-.33 1.13-.5 1.82-.5a3.28 3.28 0 0 1 3.02 1.87c.3.6.44 1.3.44 2.1a4.6 4.6 0 0 1-.44 2.06 3.3 3.3 0 0 1-1.2 1.38 3.3 3.3 0 0 1-1.82.49Zm0-1.05c.53 0 .96-.14 1.3-.4.33-.28.58-.63.75-1.07a4.25 4.25 0 0 0 0-2.85c-.17-.44-.42-.8-.76-1.06a2 2 0 0 0-1.29-.41 2 2 0 0 0-1.29.4c-.34.28-.59.63-.75 1.07a4.1 4.1 0 0 0-.24 1.43c0 .51.08.99.24 1.42.16.44.41.8.75 1.06.34.27.77.4 1.3.4Zm6.43-3.7V64h-1.18v-7.64h1.14v1.2h.1c.18-.4.45-.7.81-.94.37-.24.84-.36 1.41-.36.52 0 .97.11 1.36.32.39.21.7.53.9.96.22.42.33.96.33 1.6V64h-1.17v-4.77c0-.6-.16-1.07-.47-1.4a1.65 1.65 0 0 0-1.28-.51c-.38 0-.71.08-1 .24-.3.16-.53.4-.7.71-.17.31-.25.7-.25 1.14Z" fill="#757575"/><rect x="191.5" y="76.5" width="289" height="101" rx="3.5" fill="#fff"/><path d="m206.52 96-3.18-11.64h1.43l2.44 9.48h.1l2.48-9.48h1.6l2.47 9.48h.12l2.43-9.48h1.43L214.66 96h-1.45l-2.57-9.27h-.1L207.98 96h-1.46Zm12.35 0v-8.73h1.3v1.32h.08c.16-.43.45-.78.87-1.05.41-.27.88-.4 1.4-.4a15.2 15.2 0 0 1 .71.02v1.36a4.07 4.07 0 0 0-.82-.09c-.42 0-.8.1-1.13.27a1.96 1.96 0 0 0-1.07 1.78V96h-1.34Zm5.95 0v-8.73h1.34V96h-1.34Zm.68-10.18a.95.95 0 0 1-.67-.27.86.86 0 0 1-.28-.64c0-.25.1-.46.28-.64a.95.95 0 0 1 .67-.27c.26 0 .49.09.67.27a.85.85 0 0 1 0 1.28.93.93 0 0 1-.67.27Zm6.91 1.45v1.14h-4.52v-1.14h4.52Zm-3.2-2.09h1.34v8.32c0 .38.05.66.16.85.12.19.26.31.44.38.17.06.36.09.56.09.15 0 .27 0 .36-.02l.23-.05.27 1.2a2.67 2.67 0 0 1-1 .16 2.7 2.7 0 0 1-1.11-.24 2.21 2.21 0 0 1-.9-.75 2.14 2.14 0 0 1-.35-1.26v-8.68Zm8.79 11a3.74 3.74 0 0 1-3.58-2.13 5.34 5.34 0 0 1-.5-2.35c0-.89.17-1.68.5-2.36a3.7 3.7 0 0 1 3.44-2.18 4 4 0 0 1 1.35.23 3.33 3.33 0 0 1 2.08 2.08c.21.55.32 1.24.32 2.05v.57h-6.73v-1.16h5.37c0-.5-.1-.93-.3-1.32a2.22 2.22 0 0 0-2.1-1.25c-.53 0-.99.14-1.38.4-.38.26-.68.6-.89 1.02a3 3 0 0 0-.31 1.36v.77c0 .66.11 1.22.34 1.68.23.45.55.8.96 1.03.4.24.88.36 1.43.36.35 0 .67-.05.95-.15.29-.1.54-.25.75-.45.2-.2.36-.46.48-.77l1.3.37a2.9 2.9 0 0 1-.7 1.16c-.32.33-.71.58-1.19.77-.47.18-1 .27-1.6.27Zm11.49-5.43V96h-1.34V84.36h1.34v4.28h.11c.2-.45.52-.81.92-1.08.42-.27.97-.4 1.65-.4.6 0 1.12.12 1.56.36.45.23.8.6 1.04 1.08.25.49.38 1.1.38 1.85V96h-1.34v-5.45c0-.7-.18-1.23-.54-1.61a1.92 1.92 0 0 0-1.48-.58c-.44 0-.84.1-1.19.28a2.1 2.1 0 0 0-.81.81c-.2.36-.3.8-.3 1.3Zm11.77 5.43a3.73 3.73 0 0 1-3.58-2.13 5.34 5.34 0 0 1-.49-2.35c0-.89.17-1.68.5-2.36a3.7 3.7 0 0 1 3.44-2.18c.45 0 .9.07 1.34.23a3.34 3.34 0 0 1 2.08 2.08c.22.55.32 1.24.32 2.05v.57h-6.72v-1.16h5.36c0-.5-.1-.93-.3-1.32a2.22 2.22 0 0 0-2.08-1.25c-.54 0-1 .14-1.4.4-.38.26-.68.6-.88 1.02a3 3 0 0 0-.32 1.36v.77c0 .66.12 1.22.35 1.68.23.45.55.8.95 1.03.41.24.89.36 1.43.36.35 0 .67-.05.96-.15.28-.1.53-.25.74-.45.2-.2.37-.46.48-.77l1.3.37a2.99 2.99 0 0 1-1.89 1.93c-.47.18-1 .27-1.59.27Zm5.66-.18v-8.73h1.29v1.32h.1c.15-.43.44-.78.86-1.05.41-.27.88-.4 1.4-.4a15.28 15.28 0 0 1 .7.02v1.36a3.93 3.93 0 0 0-.81-.09c-.42 0-.8.1-1.14.27a1.95 1.95 0 0 0-1.07 1.78V96h-1.33Zm9.34.18a3.73 3.73 0 0 1-3.58-2.13 5.34 5.34 0 0 1-.49-2.35c0-.89.17-1.68.5-2.36a3.7 3.7 0 0 1 3.44-2.18c.45 0 .9.07 1.34.23a3.34 3.34 0 0 1 2.08 2.08c.22.55.32 1.24.32 2.05v.57h-6.72v-1.16h5.36c0-.5-.1-.93-.3-1.32a2.22 2.22 0 0 0-2.08-1.25c-.54 0-1 .14-1.4.4-.38.26-.68.6-.88 1.02a3 3 0 0 0-.32 1.36v.77c0 .66.12 1.22.35 1.68.23.45.55.8.95 1.03.41.24.89.36 1.43.36.35 0 .67-.05.96-.15.28-.1.53-.25.74-.45.2-.2.37-.46.48-.77l1.3.37a2.99 2.99 0 0 1-1.89 1.93c-.47.18-1 .27-1.59.27Z" fill="#757575"/><rect x="191.5" y="76.5" width="289" height="101" rx="3.5" stroke="#545454"/><path d="M309 91h-30" stroke="#E8178A"/><circle cx="280" cy="91" r="1" transform="rotate(180 280 91)" fill="#E8178A"/><path d="M317.88 94.5v-7.27h2.46c.57 0 1.04.1 1.4.3a2 2 0 0 1 .8.83c.18.35.27.74.27 1.17 0 .43-.09.82-.26 1.17-.18.35-.44.63-.8.83a2.8 2.8 0 0 1-1.4.31h-1.76v-.78h1.73c.4 0 .7-.06.94-.2.24-.13.41-.32.52-.55.1-.23.16-.49.16-.78 0-.3-.05-.55-.16-.78-.1-.23-.28-.41-.52-.54-.24-.14-.56-.2-.95-.2h-1.55v6.49h-.88Zm7.07-7.27v7.27h-.83v-7.27h.83Zm3.14 7.4c-.34 0-.66-.07-.94-.2a1.6 1.6 0 0 1-.67-.57 1.61 1.61 0 0 1-.25-.9c0-.32.06-.57.19-.77.12-.2.28-.35.49-.46.2-.11.43-.2.68-.25a33.94 33.94 0 0 1 1.56-.23c.21-.02.36-.06.46-.12.1-.05.14-.15.14-.28v-.03c0-.35-.1-.62-.28-.82-.2-.19-.48-.29-.87-.29-.4 0-.71.1-.94.27-.22.17-.38.36-.48.56l-.8-.29a1.92 1.92 0 0 1 1.36-1.16 3.24 3.24 0 0 1 1.44-.05c.23.04.45.12.66.25.22.13.4.32.54.58.14.26.21.6.21 1.04v3.59h-.83v-.74h-.05a1.63 1.63 0 0 1-.81.73c-.22.1-.49.14-.8.14Zm.13-.75c.33 0 .61-.07.84-.2a1.33 1.33 0 0 0 .7-1.15v-.77a.65.65 0 0 1-.24.12 3.9 3.9 0 0 1-.86.15l-.35.04c-.22.03-.43.08-.62.14-.18.06-.33.15-.45.28a.71.71 0 0 0-.17.5c0 .3.1.52.32.66.22.15.5.22.83.22Zm6.12.73c-.51 0-.95-.12-1.32-.36a2.36 2.36 0 0 1-.85-1c-.2-.42-.3-.9-.3-1.45 0-.55.1-1.04.3-1.47a2.3 2.3 0 0 1 2.15-1.36c.39 0 .73.08 1.04.22.3.14.56.34.76.6.2.25.32.55.36.89h-.84a1.27 1.27 0 0 0-1.3-.95c-.33 0-.62.08-.86.25-.25.17-.44.4-.57.72-.14.3-.2.66-.2 1.07 0 .42.06.8.2 1.1a1.47 1.47 0 0 0 1.43.99c.22 0 .41-.04.6-.11a1.22 1.22 0 0 0 .7-.84h.84a1.94 1.94 0 0 1-1.08 1.48c-.3.15-.66.22-1.06.22Zm5.66 0c-.53 0-.98-.11-1.37-.34a2.34 2.34 0 0 1-.87-.98c-.2-.43-.3-.92-.3-1.47 0-.56.1-1.06.3-1.48a2.3 2.3 0 0 1 2.15-1.36c.28 0 .56.04.84.14a2.08 2.08 0 0 1 1.3 1.3c.14.34.2.77.2 1.28v.36h-4.2v-.73h3.35c0-.3-.06-.58-.18-.82a1.4 1.4 0 0 0-1.31-.78 1.5 1.5 0 0 0-1.42.89c-.13.26-.2.54-.2.84v.48c0 .42.07.76.21 1.05.15.28.35.5.6.65.26.15.56.22.9.22.22 0 .41-.03.6-.1a1.21 1.21 0 0 0 .76-.75l.8.23a1.8 1.8 0 0 1-.42.72c-.2.2-.45.37-.75.48-.3.12-.63.17-1 .17Zm4.37-3.4v3.29h-.84v-7.27h.84v2.67h.07c.13-.28.32-.5.57-.67.26-.17.6-.26 1.03-.26.38 0 .7.08.98.23.28.14.5.37.65.68.16.3.23.69.23 1.15v3.47h-.83v-3.4c0-.44-.12-.78-.34-1.01a1.2 1.2 0 0 0-.93-.36c-.27 0-.52.06-.74.17-.21.12-.38.29-.5.5-.13.23-.2.5-.2.82Zm7.28 3.4c-.49 0-.92-.11-1.3-.35a2.39 2.39 0 0 1-.86-.98c-.2-.42-.3-.92-.3-1.48 0-.57.1-1.06.3-1.49a2.33 2.33 0 0 1 2.17-1.34 2.35 2.35 0 0 1 2.16 1.34c.2.43.3.92.3 1.5 0 .55-.1 1.05-.3 1.47a2.36 2.36 0 0 1-2.16 1.34Zm0-.75c.38 0 .69-.1.93-.29.24-.19.42-.44.53-.75a2.93 2.93 0 0 0 0-2.03c-.11-.32-.3-.58-.53-.77-.25-.2-.55-.3-.93-.3-.37 0-.68.1-.92.3-.24.2-.42.45-.54.76a3.12 3.12 0 0 0 0 2.04c.12.3.3.56.54.75.24.2.55.3.92.3Zm4.6-6.63v7.27h-.85v-7.27h.84Zm3.59 7.38a2.13 2.13 0 0 1-2.02-1.32 3.5 3.5 0 0 1-.3-1.5c0-.58.1-1.07.3-1.5a2.17 2.17 0 0 1 2.04-1.32c.35 0 .63.06.83.18.21.12.37.25.48.4l.26.36h.07v-2.68h.84v7.27h-.81v-.84h-.1l-.26.38a1.63 1.63 0 0 1-1.33.57Zm.11-.75c.34 0 .62-.09.85-.26.23-.18.41-.42.53-.74.12-.31.18-.68.18-1.09 0-.4-.06-.76-.18-1.07a1.4 1.4 0 0 0-1.38-.98c-.35 0-.65.1-.89.28-.23.18-.4.43-.53.74a3 3 0 0 0-.17 1.03 3 3 0 0 0 .18 1.06c.12.32.3.57.53.75.24.19.53.28.88.28Zm6.32.75c-.52 0-.97-.11-1.35-.34a2.34 2.34 0 0 1-.88-.98c-.2-.43-.3-.92-.3-1.47 0-.56.1-1.06.3-1.48a2.3 2.3 0 0 1 2.15-1.36c.28 0 .56.04.84.14a2.08 2.08 0 0 1 1.3 1.3c.14.34.2.77.2 1.28v.36h-4.2v-.73h3.35c0-.3-.06-.58-.18-.82a1.38 1.38 0 0 0-1.31-.78c-.33 0-.62.08-.87.25-.24.16-.42.37-.56.64-.13.26-.19.54-.19.84v.48c0 .42.07.76.21 1.05.15.28.35.5.6.65.26.15.56.22.9.22.22 0 .41-.03.6-.1a1.21 1.21 0 0 0 .76-.75l.8.23c-.08.27-.22.51-.42.72-.2.2-.45.37-.75.48-.3.12-.63.17-1 .17Zm3.54-.11v-5.45h.8v.82h.06c.1-.27.28-.49.54-.66.27-.17.56-.25.89-.25a9.19 9.19 0 0 1 .44.01v.86a2.4 2.4 0 0 0-.52-.06 1.45 1.45 0 0 0-1.2.62c-.12.2-.17.41-.17.66v3.45h-.84Zm8.96-5.45v.7h-2.94v-.7h2.94Zm-2.06 5.45v-6.2c0-.32.07-.58.22-.79.15-.2.34-.36.57-.47a2.1 2.1 0 0 1 1.54-.01l-.24.72-.18-.05a1.07 1.07 0 0 0-.29-.03c-.28 0-.48.07-.6.2a.95.95 0 0 0-.18.62v6.01h-.84Zm5.23.11c-.5 0-.93-.11-1.3-.35a2.4 2.4 0 0 1-.87-.98c-.2-.42-.3-.92-.3-1.48 0-.57.1-1.06.3-1.49a2.37 2.37 0 0 1 2.17-1.34 2.36 2.36 0 0 1 2.16 1.34c.2.43.3.92.3 1.5 0 .55-.1 1.05-.3 1.47a2.32 2.32 0 0 1-2.17 1.33Zm0-.75c.37 0 .68-.1.92-.29.24-.19.42-.44.54-.75a3.07 3.07 0 0 0 0-2.04c-.12-.31-.3-.57-.54-.76a1.4 1.4 0 0 0-.92-.3c-.38 0-.69.1-.93.3-.24.2-.42.45-.53.76a2.88 2.88 0 0 0 0 2.04c.11.3.3.56.53.75.24.2.55.3.93.3Zm4.58-2.64v3.28h-.83v-5.45h.8v.85h.08c.13-.28.32-.5.58-.67.26-.17.6-.26 1-.26.38 0 .7.08.98.23.27.15.49.38.64.68.16.3.24.69.24 1.15v3.47h-.84v-3.4c0-.44-.11-.77-.34-1.01a1.18 1.18 0 0 0-.91-.36c-.27 0-.51.06-.72.17-.2.12-.37.29-.5.5-.12.23-.18.5-.18.82Zm7.39-2.17v.7h-2.83v-.7h2.83Zm-2-1.31h.83v5.2c0 .23.04.41.1.53.08.12.17.2.28.23.1.04.23.06.35.06a1.5 1.5 0 0 0 .37-.04l.17.75a1.7 1.7 0 0 1-.63.1c-.23 0-.47-.05-.7-.15a1.33 1.33 0 0 1-.78-1.25v-5.43Z" fill="#E8178A"/><path d="M295 60h-30" stroke="#E8178A"/><circle cx="266" cy="60" r="1" transform="rotate(180 266 60)" fill="#E8178A"/><path d="M306.13 63.5h-2.25v-7.27h2.34c.71 0 1.31.14 1.82.43.5.3.88.7 1.15 1.25.27.54.4 1.19.4 1.94 0 .76-.13 1.4-.4 1.96-.27.54-.67.96-1.18 1.25a3.7 3.7 0 0 1-1.88.44Zm-1.37-.78h1.3c.61 0 1.1-.12 1.5-.35.4-.23.7-.56.89-.99.2-.43.29-.94.29-1.53 0-.59-.1-1.1-.29-1.52-.2-.42-.48-.75-.86-.98a2.72 2.72 0 0 0-1.42-.34h-1.4v5.7Zm8.48.9a2.34 2.34 0 0 1-2.24-1.33c-.2-.43-.3-.92-.3-1.47 0-.56.1-1.06.3-1.48a2.3 2.3 0 0 1 2.15-1.36c.29 0 .57.04.85.14a2.08 2.08 0 0 1 1.3 1.3c.13.34.2.77.2 1.28v.36h-4.2v-.73h3.35c0-.3-.06-.58-.19-.82a1.4 1.4 0 0 0-1.3-.78c-.34 0-.63.08-.87.25-.24.16-.43.37-.56.64-.13.26-.2.54-.2.84v.48c0 .42.08.76.22 1.05.14.28.34.5.6.65.26.15.55.22.9.22.21 0 .41-.03.59-.1a1.19 1.19 0 0 0 .76-.75l.81.23a1.8 1.8 0 0 1-.43.72c-.2.2-.44.37-.74.48-.3.12-.63.17-1 .17Zm7.4-4.35-.75.21a1.43 1.43 0 0 0-.21-.37 1.02 1.02 0 0 0-.37-.3 1.34 1.34 0 0 0-.6-.11c-.34 0-.61.08-.84.23-.22.15-.33.34-.33.58 0 .2.08.37.23.5.15.11.39.21.7.3l.82.2c.49.11.85.3 1.09.54.24.24.36.55.36.93 0 .31-.1.6-.27.84a1.8 1.8 0 0 1-.75.58c-.32.14-.69.21-1.11.21-.56 0-1.02-.12-1.38-.36a1.6 1.6 0 0 1-.7-1.06l.8-.2c.07.3.22.52.43.66.21.15.49.23.83.23.4 0 .7-.09.93-.25.24-.17.35-.37.35-.6a.64.64 0 0 0-.2-.48 1.28 1.28 0 0 0-.6-.3l-.92-.2a2.2 2.2 0 0 1-1.1-.56 1.33 1.33 0 0 1-.35-.94c0-.3.09-.58.26-.82.18-.23.42-.42.72-.55.3-.14.64-.2 1.03-.2.54 0 .96.11 1.27.35a2 2 0 0 1 .66.94Zm3.57 4.34c-.5 0-.95-.12-1.32-.36a2.36 2.36 0 0 1-.85-1c-.2-.42-.3-.9-.3-1.45 0-.55.1-1.04.3-1.47a2.3 2.3 0 0 1 2.15-1.36c.4 0 .74.08 1.05.22a1.92 1.92 0 0 1 1.12 1.49h-.84a1.27 1.27 0 0 0-1.3-.95c-.33 0-.62.08-.86.25-.25.17-.44.4-.58.72-.13.3-.2.66-.2 1.07 0 .42.07.8.2 1.1.14.32.33.56.57.73.25.17.53.26.86.26.22 0 .42-.04.6-.11a1.22 1.22 0 0 0 .71-.84h.84a1.94 1.94 0 0 1-1.09 1.48c-.3.15-.65.22-1.06.22Zm3.38-.11v-5.45h.8v.82h.06c.1-.27.28-.49.54-.66.26-.17.56-.25.88-.25a9.12 9.12 0 0 1 .44.01v.86a2.55 2.55 0 0 0-.5-.06c-.27 0-.51.06-.72.17a1.23 1.23 0 0 0-.67 1.11v3.45h-.84Zm3.72 0v-5.45h.83v5.45h-.83Zm.42-6.36a.6.6 0 0 1-.42-.17.54.54 0 0 1-.17-.4c0-.16.05-.3.17-.4a.6.6 0 0 1 .42-.17c.17 0 .3.06.42.17.12.1.18.24.18.4 0 .15-.06.29-.18.4a.58.58 0 0 1-.42.17Zm1.95 8.4v-7.5h.8v.87h.1l.26-.36c.12-.15.27-.28.48-.4.2-.12.49-.18.85-.18a2.16 2.16 0 0 1 2.03 1.33c.2.42.3.91.3 1.49 0 .57-.1 1.08-.3 1.5a2.14 2.14 0 0 1-2.02 1.32 1.7 1.7 0 0 1-.84-.17 1.56 1.56 0 0 1-.49-.4l-.26-.38h-.07v2.89h-.84Zm.82-4.77c0 .41.06.78.18 1.1.13.3.3.55.53.73.24.17.52.26.86.26.35 0 .64-.1.87-.28.24-.18.42-.43.54-.75.12-.32.18-.67.18-1.06 0-.38-.06-.73-.18-1.03a1.6 1.6 0 0 0-.53-.74 1.4 1.4 0 0 0-.88-.27 1.4 1.4 0 0 0-1.39.97c-.12.3-.18.67-.18 1.07Zm7.64-2.72v.7h-2.82v-.7h2.82Zm-2-1.31h.84v5.2c0 .23.03.41.1.53.07.12.16.2.27.23.11.04.23.06.35.06l.23-.01.14-.03.17.75a1.69 1.69 0 0 1-.62.1 1.7 1.7 0 0 1-.7-.15 1.4 1.4 0 0 1-.56-.47c-.14-.2-.22-.47-.22-.79v-5.42Zm3.27 6.76v-5.45h.83v5.45h-.83Zm.42-6.36a.6.6 0 0 1-.42-.17.54.54 0 0 1-.18-.4c0-.16.06-.3.18-.4a.6.6 0 0 1 .42-.17c.17 0 .3.06.42.17.12.1.18.24.18.4 0 .15-.06.29-.18.4a.58.58 0 0 1-.42.17ZM348 63.6c-.5 0-.93-.11-1.3-.35a2.38 2.38 0 0 1-.87-.98c-.2-.42-.3-.92-.3-1.48 0-.57.1-1.06.3-1.49a2.37 2.37 0 0 1 2.17-1.34 2.35 2.35 0 0 1 2.16 1.34c.2.43.3.92.3 1.5 0 .55-.1 1.05-.3 1.47a2.32 2.32 0 0 1-2.17 1.33Zm0-.75c.37 0 .68-.1.92-.29.24-.19.42-.44.53-.75a2.93 2.93 0 0 0 0-2.03c-.11-.32-.3-.58-.53-.77a1.4 1.4 0 0 0-.93-.3c-.37 0-.68.1-.92.3-.24.2-.42.45-.53.76a2.88 2.88 0 0 0 0 2.04c.11.3.29.56.53.75.24.2.55.3.93.3Zm4.58-2.64v3.28h-.83v-5.45h.8v.85h.08c.12-.28.32-.5.58-.67.26-.17.6-.26 1-.26a2 2 0 0 1 .98.23c.27.15.49.38.64.68.16.3.23.69.23 1.15v3.47h-.83v-3.4c0-.44-.12-.77-.34-1.01a1.18 1.18 0 0 0-.91-.36c-.27 0-.51.06-.72.17-.21.12-.38.29-.5.5-.12.23-.18.5-.18.82Zm10.26-2.17v.7h-2.94v-.7h2.94Zm-2.06 5.45v-6.2c0-.32.07-.58.22-.79.14-.2.33-.36.57-.47a2.1 2.1 0 0 1 1.54-.01l-.25.72-.17-.05a1.08 1.08 0 0 0-.3-.03c-.27 0-.47.07-.6.2a.95.95 0 0 0-.18.62v6.01h-.83Zm5.22.11c-.49 0-.92-.11-1.3-.35a2.39 2.39 0 0 1-.86-.98c-.2-.42-.3-.92-.3-1.48 0-.57.1-1.06.3-1.49a2.33 2.33 0 0 1 2.17-1.34 2.35 2.35 0 0 1 2.16 1.34c.2.43.3.92.3 1.5 0 .55-.1 1.05-.3 1.47a2.36 2.36 0 0 1-2.16 1.34Zm0-.75c.38 0 .68-.1.93-.29.24-.19.42-.44.53-.75a2.93 2.93 0 0 0 0-2.03c-.11-.32-.3-.58-.53-.77-.25-.2-.55-.3-.93-.3-.37 0-.68.1-.92.3-.24.2-.42.45-.54.76a3.12 3.12 0 0 0 0 2.04c.12.3.3.56.54.75.24.2.55.3.92.3Zm4.6-2.64v3.28h-.85v-5.45h.81v.85h.07c.13-.28.33-.5.59-.67.26-.17.6-.26 1-.26.37 0 .7.08.97.23.28.15.5.38.65.68.16.3.23.69.23 1.15v3.47h-.84v-3.4c0-.44-.1-.77-.33-1.01a1.19 1.19 0 0 0-.92-.36c-.26 0-.5.06-.71.17-.21.12-.38.29-.5.5-.12.23-.18.5-.18.82Zm7.38-2.17v.7h-2.83v-.7h2.83Zm-2-1.31h.83v5.2c0 .23.04.41.1.53.07.12.16.2.27.23.12.04.23.06.36.06l.22-.01.14-.03.18.75a1.75 1.75 0 0 1-.63.1 1.47 1.47 0 0 1-1.26-.62c-.14-.2-.22-.47-.22-.79v-5.42Z" fill="#E8178A"/></svg>