<svg width="260" height="112" fill="none" xmlns="http://www.w3.org/2000/svg"><path d="M.9 9.53V.41h5.94v1.38H2.55v2.48h3.98v1.39H2.55v2.49h4.32v1.38H.9Zm9.17-4v4H8.45V2.7H10v1.16h.08c.15-.38.4-.69.75-.91a2.3 2.3 0 0 1 1.29-.34c.47 0 .88.1 1.23.3.36.2.63.5.82.88.2.38.3.85.3 1.4v4.35h-1.62v-4.1c0-.46-.12-.82-.36-1.08a1.25 1.25 0 0 0-.97-.39c-.29 0-.54.07-.76.19-.21.12-.39.3-.51.53a1.8 1.8 0 0 0-.18.84Zm9.45-2.84v1.25h-3.94V2.69h3.94Zm-2.96-1.64h1.61v6.43a1 1 0 0 0 .1.5c.07.1.16.18.27.23a1 1 0 0 0 .36.06 1.58 1.58 0 0 0 .47-.06l.28 1.26a3.6 3.6 0 0 1-.95.16 2.8 2.8 0 0 1-1.1-.18 1.7 1.7 0 0 1-.77-.64 1.89 1.89 0 0 1-.27-1.07v-6.7Zm7.27 8.62c-.69 0-1.28-.14-1.78-.43a2.9 2.9 0 0 1-1.15-1.22 4.09 4.09 0 0 1-.4-1.87c0-.7.14-1.32.4-1.85a3.03 3.03 0 0 1 2.84-1.7 3.02 3.02 0 0 1 2.2.83c.29.28.52.64.68 1.08.17.43.25.95.25 1.55v.5h-5.61v-1.1h4.07c0-.3-.07-.58-.2-.82a1.46 1.46 0 0 0-.55-.57c-.24-.14-.5-.21-.81-.21-.33 0-.62.08-.87.24a1.6 1.6 0 0 0-.59.62c-.13.26-.2.54-.2.84v.95c0 .4.07.74.21 1.03.15.28.35.5.61.65.26.15.57.22.92.22.23 0 .45-.03.64-.1.19-.06.35-.16.5-.3.13-.13.24-.29.3-.48l1.52.17c-.1.4-.28.74-.55 1.04-.26.3-.6.52-1.02.69a3.9 3.9 0 0 1-1.41.24Zm4.4-.14V2.7h1.57v1.14h.07a1.7 1.7 0 0 1 1.7-1.24 3.73 3.73 0 0 1 .57.04v1.49a3 3 0 0 0-.75-.1c-.3 0-.56.07-.8.2a1.4 1.4 0 0 0-.74 1.29v4.02h-1.61ZM39.76 2.7v1.25H35.8V2.69h3.94Zm-2.97-1.64h1.62v6.43a1 1 0 0 0 .1.5c.06.1.15.18.26.23.11.04.23.06.37.06a1.58 1.58 0 0 0 .47-.06l.27 1.26a3.6 3.6 0 0 1-.95.16 2.8 2.8 0 0 1-1.1-.18 1.7 1.7 0 0 1-.76-.64 1.89 1.89 0 0 1-.28-1.07v-6.7Zm7.27 8.62a3.5 3.5 0 0 1-1.78-.43 2.9 2.9 0 0 1-1.14-1.22 4.1 4.1 0 0 1-.4-1.87c0-.7.13-1.32.4-1.85a3.03 3.03 0 0 1 2.84-1.7 3.02 3.02 0 0 1 2.2.83c.28.28.51.64.68 1.08.16.43.25.95.25 1.55v.5H41.5v-1.1h4.06c0-.3-.07-.58-.2-.82a1.46 1.46 0 0 0-.55-.57c-.23-.14-.5-.21-.81-.21-.33 0-.62.08-.87.24-.25.15-.44.36-.58.62-.14.26-.2.54-.21.84v.95c0 .4.07.74.22 1.03.14.28.35.5.6.65.27.15.57.22.92.22.24 0 .45-.03.64-.1.2-.06.36-.16.5-.3.14-.13.24-.29.31-.48l1.51.17a2.47 2.47 0 0 1-1.56 1.73 3.9 3.9 0 0 1-1.42.24Zm5.58-6.98 1.39 2.53 1.4-2.53h1.7l-2.06 3.4 2.1 3.42h-1.7l-1.44-2.46-1.44 2.46h-1.71l2.09-3.42-2.04-3.42h1.71Zm9.16 0v1.25h-3.93V2.69h3.93Zm-2.96-1.64h1.61v6.43c0 .21.04.38.1.5.07.1.16.18.27.23a1 1 0 0 0 .36.06 1.58 1.58 0 0 0 .48-.06l.27 1.26a3.6 3.6 0 0 1-.95.16 2.8 2.8 0 0 1-1.1-.18 1.7 1.7 0 0 1-.76-.64 1.89 1.89 0 0 1-.28-1.07v-6.7Zm9.04 4.47v4.01h-1.61V.41h1.57v3.44h.08c.17-.38.41-.69.75-.91.34-.23.77-.34 1.3-.34.47 0 .88.1 1.24.3.35.2.62.49.82.87.2.38.29.85.29 1.4v4.36H67.7v-4.1c0-.47-.12-.82-.36-1.08a1.27 1.27 0 0 0-.99-.39c-.29 0-.54.07-.77.19-.22.12-.4.3-.52.53-.13.23-.19.51-.19.84ZM74 9.68c-.7 0-1.28-.14-1.78-.43a2.9 2.9 0 0 1-1.15-1.22 4.1 4.1 0 0 1-.4-1.87c0-.7.13-1.32.4-1.85a3.03 3.03 0 0 1 2.84-1.7 3.02 3.02 0 0 1 2.2.83c.28.28.51.64.68 1.08.17.43.25.95.25 1.55v.5h-5.61v-1.1h4.06c0-.3-.07-.58-.2-.82a1.46 1.46 0 0 0-.55-.57c-.23-.14-.5-.21-.8-.21a1.59 1.59 0 0 0-1.46.86c-.14.26-.2.54-.21.84v.95c0 .4.07.74.22 1.03.14.28.35.5.6.65.27.15.58.22.93.22.23 0 .44-.03.64-.1.19-.06.35-.16.49-.3.14-.13.25-.29.32-.48l1.5.17c-.1.4-.27.74-.54 1.04-.27.3-.6.52-1.02.69a3.9 3.9 0 0 1-1.41.24Zm4.4-.14V2.7h1.57v1.14h.07a1.7 1.7 0 0 1 1.69-1.24 3.73 3.73 0 0 1 .58.04v1.49a3 3 0 0 0-.75-.1c-.3 0-.56.07-.8.2a1.4 1.4 0 0 0-.74 1.29v4.02H78.4Zm7.73.14c-.69 0-1.28-.14-1.78-.43a2.9 2.9 0 0 1-1.14-1.22 4.1 4.1 0 0 1-.4-1.87c0-.7.13-1.32.4-1.85a3.03 3.03 0 0 1 2.84-1.7c.42 0 .82.07 1.19.2a2.83 2.83 0 0 1 1.69 1.71c.16.43.24.95.24 1.55v.5h-5.6v-1.1h4.06c0-.3-.07-.58-.2-.82a1.46 1.46 0 0 0-.55-.57c-.23-.14-.5-.21-.81-.21-.33 0-.62.08-.87.24a1.6 1.6 0 0 0-.59.62c-.13.26-.2.54-.2.84v.95c0 .4.07.74.21 1.03.15.28.35.5.61.65.27.15.57.22.92.22.24 0 .45-.03.64-.1.19-.06.36-.16.5-.3.13-.13.24-.29.31-.48l1.5.17c-.09.4-.27.74-.54 1.04-.26.3-.6.52-1.01.69a3.9 3.9 0 0 1-1.42.24Z" fill="#333"/><rect x=".45" y="20.74" width="259.1" height="90.55" rx="3.14" fill="#fff"/><path d="m13.92 37.47-2.86-10.44h1.29l2.18 8.5h.1l2.22-8.5h1.43l2.22 8.5h.1l2.18-8.5h1.28l-2.85 10.44h-1.3l-2.3-8.32h-.09l-2.3 8.32h-1.3Zm11.07 0v-7.83h1.16v1.18h.08c.14-.38.4-.7.77-.94.38-.24.8-.36 1.27-.36a13.25 13.25 0 0 1 .63.02v1.22a3.52 3.52 0 0 0-.74-.08c-.38 0-.72.08-1.01.24a1.76 1.76 0 0 0-.96 1.6v4.95h-1.2Zm5.33 0v-7.83h1.2v7.83h-1.2Zm.61-9.13a.85.85 0 0 1-.6-.24.77.77 0 0 1-.25-.58c0-.22.08-.41.25-.57a.85.85 0 0 1 .6-.24c.24 0 .44.08.6.24a.76.76 0 0 1 0 1.15.84.84 0 0 1-.6.24Zm6.2 1.3v1.02h-4.06v-1.02h4.06Zm-2.87-1.87h1.2v7.45c0 .34.05.6.15.77.1.16.23.28.38.33.16.06.33.09.5.09l.33-.02.2-.04.25 1.07a2.45 2.45 0 0 1-.9.15c-.33 0-.67-.08-1-.22a2.06 2.06 0 0 1-.8-.67c-.2-.3-.31-.67-.31-1.13v-7.78Zm7.87 9.86a3.35 3.35 0 0 1-3.2-1.9 4.8 4.8 0 0 1-.44-2.12c0-.8.14-1.5.43-2.11a3.31 3.31 0 0 1 3.09-1.96c.41 0 .81.07 1.2.2a3 3 0 0 1 1.87 1.87c.2.5.3 1.11.3 1.84v.51h-6.04v-1.04h4.81c0-.44-.09-.83-.26-1.18A2 2 0 0 0 42 30.62c-.48 0-.9.12-1.24.36-.35.23-.61.54-.8.91a2.7 2.7 0 0 0-.28 1.22v.69c0 .59.1 1.09.3 1.5.21.4.5.72.87.93.36.21.79.32 1.27.32.32 0 .6-.05.86-.13.26-.1.48-.23.67-.41.18-.18.33-.41.43-.68l1.16.32c-.12.4-.33.74-.61 1.04a3 3 0 0 1-1.07.7c-.43.16-.9.24-1.44.24Zm10.3-4.87v4.7h-1.2V27.04h1.21v3.83h.1c.18-.4.46-.72.83-.96.37-.24.86-.36 1.47-.36.54 0 1 .1 1.4.32.4.21.72.54.94.97.22.44.33 1 .33 1.66v4.98h-1.2v-4.9c0-.62-.16-1.1-.48-1.44a1.73 1.73 0 0 0-1.33-.51c-.4 0-.75.08-1.06.25-.31.17-.56.4-.74.73-.17.32-.26.7-.26 1.16ZM63 37.63a3.35 3.35 0 0 1-3.2-1.9 4.8 4.8 0 0 1-.44-2.12c0-.8.14-1.5.43-2.11a3.31 3.31 0 0 1 3.09-1.96c.4 0 .81.07 1.2.2a3 3 0 0 1 1.87 1.87c.2.5.3 1.11.3 1.84v.51H60.2v-1.04h4.81c0-.44-.09-.83-.26-1.18a2 2 0 0 0-1.88-1.12 2.26 2.26 0 0 0-2.04 1.27 2.7 2.7 0 0 0-.28 1.22v.69c0 .59.1 1.09.3 1.5.21.4.5.72.86.93.37.21.8.32 1.28.32.32 0 .6-.05.86-.13.26-.1.48-.23.67-.41.18-.18.33-.41.43-.68l1.16.32c-.12.4-.33.74-.62 1.04a3 3 0 0 1-1.07.7 4 4 0 0 1-1.43.24Zm5.07-.16v-7.83h1.16v1.18h.08c.15-.38.4-.7.78-.94.37-.24.8-.36 1.26-.36a13.24 13.24 0 0 1 .63.02v1.22a3.52 3.52 0 0 0-.73-.08c-.38 0-.72.08-1.02.24a1.76 1.76 0 0 0-.96 1.6v4.95h-1.2Zm8.38.16a3.35 3.35 0 0 1-3.2-1.9 4.8 4.8 0 0 1-.45-2.12c0-.8.15-1.5.44-2.11a3.31 3.31 0 0 1 3.09-1.96c.4 0 .8.07 1.2.2a3 3 0 0 1 1.87 1.87c.2.5.3 1.11.3 1.84v.51h-6.04v-1.04h4.8c0-.44-.08-.83-.26-1.18a2 2 0 0 0-1.87-1.12 2.26 2.26 0 0 0-2.04 1.27 2.7 2.7 0 0 0-.28 1.22v.69c0 .59.1 1.09.3 1.5.2.4.5.72.86.93.37.21.8.32 1.28.32.32 0 .6-.05.86-.13a1.85 1.85 0 0 0 1.1-1.09l1.16.32c-.12.4-.33.74-.62 1.04a3 3 0 0 1-1.07.7 4 4 0 0 1-1.43.24Zm9.88 2.77a2.64 2.64 0 0 1-.88-.14l.3-1.06c.3.07.56.1.78.08a.93.93 0 0 0 .6-.3c.18-.18.34-.46.48-.86l.23-.61-2.9-7.87h1.3l2.17 6.24h.08l2.16-6.24h1.3l-3.32 8.97c-.15.4-.33.74-.55 1a2.1 2.1 0 0 1-1.75.79Zm10.1-2.77c-.7 0-1.32-.17-1.85-.5a3.37 3.37 0 0 1-1.24-1.42c-.3-.6-.45-1.3-.45-2.12 0-.81.15-1.52.45-2.13.3-.6.7-1.08 1.24-1.42.53-.33 1.15-.5 1.86-.5.7 0 1.32.17 1.85.5.54.34.95.81 1.25 1.42.3.6.44 1.32.44 2.13 0 .81-.15 1.52-.44 2.12a3.35 3.35 0 0 1-3.1 1.91Zm0-1.08c.54 0 .99-.14 1.33-.41.35-.28.6-.64.77-1.09.17-.45.25-.93.25-1.46a4.2 4.2 0 0 0-.25-1.46 2.46 2.46 0 0 0-.77-1.1 2.05 2.05 0 0 0-1.32-.41c-.54 0-.98.14-1.33.42-.34.28-.6.64-.77 1.1a4.2 4.2 0 0 0-.25 1.45c0 .53.09 1.01.25 1.46.17.45.43.81.77 1.09.35.27.8.4 1.33.4Zm10.32-2.28v-4.63h1.2v7.83h-1.2v-1.33h-.08c-.19.4-.47.74-.86 1.02-.38.27-.87.4-1.47.4-.48 0-.92-.1-1.3-.31a2.25 2.25 0 0 1-.9-.98 3.72 3.72 0 0 1-.32-1.66v-4.97h1.2v4.9c0 .56.16 1.02.48 1.36.32.34.73.5 1.23.5a2.05 2.05 0 0 0 2.02-2.13Zm3.4 3.2v-7.83h1.17v1.18h.08c.14-.38.4-.7.77-.94s.8-.36 1.26-.36a13.22 13.22 0 0 1 .64.02v1.22a3.55 3.55 0 0 0-.74-.08c-.38 0-.72.08-1.02.24a1.76 1.76 0 0 0-.96 1.6v4.95h-1.2ZM123 29.64v1.02h-4.22v-1.02H123Zm-2.95 7.83v-8.9c0-.46.1-.83.31-1.13.21-.3.48-.52.82-.67a3.02 3.02 0 0 1 2.2-.02l-.34 1.04a5.96 5.96 0 0 0-.25-.08 1.6 1.6 0 0 0-.42-.05c-.4 0-.69.1-.86.3-.18.2-.26.5-.26.89v8.62h-1.2Zm7.6.16a3.35 3.35 0 0 1-3.2-1.9 4.8 4.8 0 0 1-.45-2.12c0-.8.14-1.5.43-2.11a3.31 3.31 0 0 1 3.09-1.96c.4 0 .81.07 1.2.2a3 3 0 0 1 1.87 1.87c.2.5.3 1.11.3 1.84v.51h-6.04v-1.04h4.81c0-.44-.09-.83-.26-1.18a2 2 0 0 0-1.88-1.12c-.48 0-.9.12-1.24.36-.35.23-.61.54-.8.91a2.7 2.7 0 0 0-.28 1.22v.69c0 .59.1 1.09.3 1.5.21.4.5.72.86.93.37.21.8.32 1.28.32.32 0 .6-.05.86-.13.26-.1.48-.23.67-.41.18-.18.33-.41.43-.68l1.16.32c-.12.4-.33.74-.62 1.04a3 3 0 0 1-1.07.7 4 4 0 0 1-1.43.24Zm8.34 0a3.35 3.35 0 0 1-3.2-1.9 4.8 4.8 0 0 1-.44-2.12c0-.8.14-1.5.43-2.11a3.3 3.3 0 0 1 3.09-1.96c.4 0 .81.07 1.2.2a3 3 0 0 1 1.87 1.87c.2.5.3 1.11.3 1.84v.51h-6.04v-1.04h4.8c0-.44-.08-.83-.26-1.18a2 2 0 0 0-1.87-1.12 2.26 2.26 0 0 0-2.04 1.27 2.7 2.7 0 0 0-.28 1.22v.69c0 .59.1 1.09.3 1.5.21.4.5.72.86.93.37.21.8.32 1.28.32.32 0 .6-.05.86-.13a1.85 1.85 0 0 0 1.1-1.09l1.16.32c-.12.4-.33.74-.62 1.04a3 3 0 0 1-1.07.7 4 4 0 0 1-1.43.24Zm8.02 0a3.06 3.06 0 0 1-2.9-1.9 5.08 5.08 0 0 1-.42-2.16c0-.82.15-1.53.43-2.14a3.1 3.1 0 0 1 2.92-1.9 2.24 2.24 0 0 1 1.89.83l.37.52h.1v-3.85h1.2v10.44h-1.16v-1.2h-.14l-.38.53c-.16.22-.4.4-.7.58-.3.17-.7.25-1.2.25Zm.17-1.08c.48 0 .89-.13 1.22-.38.33-.25.59-.6.76-1.05.17-.45.26-.98.26-1.57 0-.58-.08-1.1-.25-1.53a2 2 0 0 0-1.99-1.4 2 2 0 0 0-1.28.4c-.33.25-.59.6-.75 1.05-.17.44-.25.93-.25 1.48 0 .56.08 1.07.25 1.52.17.45.43.81.76 1.08a2 2 0 0 0 1.27.4Zm5.95.92V27.03h1.2v3.85h.1l.37-.52c.16-.2.4-.4.69-.57.3-.17.7-.25 1.2-.25a3.1 3.1 0 0 1 2.93 1.9 5 5 0 0 1 .42 2.13c0 .83-.14 1.55-.42 2.16a3.06 3.06 0 0 1-2.9 1.9c-.5 0-.9-.08-1.2-.25a2.07 2.07 0 0 1-.7-.58 4.3 4.3 0 0 1-.38-.54h-.15v1.2h-1.16Zm1.19-3.92c0 .6.08 1.12.25 1.57.18.45.43.8.76 1.05a2 2 0 0 0 1.23.38c.5 0 .92-.13 1.25-.4.34-.27.6-.63.77-1.08a4.29 4.29 0 0 0 0-3 2.3 2.3 0 0 0-.76-1.06 2 2 0 0 0-1.26-.4 2 2 0 0 0-1.99 1.41c-.17.44-.25.95-.25 1.53Zm9.86 4.1c-.5 0-.94-.1-1.35-.28a2.4 2.4 0 0 1-.96-.82 2.3 2.3 0 0 1-.36-1.3 2 2 0 0 1 .27-1.1c.17-.28.41-.5.7-.66.3-.16.63-.28.98-.35.36-.09.72-.15 1.09-.2l1.16-.14c.3-.03.51-.09.65-.16.14-.08.2-.22.2-.41v-.04c0-.5-.13-.9-.4-1.17-.28-.28-.7-.42-1.24-.42-.58 0-1.03.12-1.35.38-.33.25-.56.52-.7.8l-1.13-.4a2.74 2.74 0 0 1 1.93-1.68 4.65 4.65 0 0 1 2.07-.07c.33.06.65.18.95.36.31.19.57.46.77.83.2.37.3.87.3 1.5v5.15h-1.2V36.4h-.06c-.08.17-.21.35-.4.54a2.51 2.51 0 0 1-1.92.7Zm.19-1.08c.47 0 .87-.1 1.2-.28a1.9 1.9 0 0 0 1-1.66v-1.1a.81.81 0 0 1-.34.17c-.17.05-.37.1-.6.13a26.7 26.7 0 0 1-1.14.15c-.31.04-.6.1-.88.2a1.5 1.5 0 0 0-.65.4c-.16.18-.25.42-.25.73 0 .41.16.73.47.94.31.21.7.32 1.19.32Zm8.77 1.06a3.4 3.4 0 0 1-1.9-.52 3.38 3.38 0 0 1-1.22-1.43 4.94 4.94 0 0 1-.42-2.09c0-.79.14-1.5.43-2.1a3.3 3.3 0 0 1 3.09-1.95c.55 0 1.05.1 1.49.3a2.75 2.75 0 0 1 1.61 2.14h-1.2a1.9 1.9 0 0 0-.62-.94 1.83 1.83 0 0 0-1.26-.42c-.47 0-.88.12-1.23.37a2.4 2.4 0 0 0-.82 1.02c-.2.44-.3.95-.3 1.54 0 .6.1 1.13.3 1.58.19.45.46.8.8 1.05a2.3 2.3 0 0 0 2.1.21 1.76 1.76 0 0 0 1.03-1.2h1.2a2.79 2.79 0 0 1-1.56 2.12 3.4 3.4 0 0 1-1.52.32Zm5.96-3.02-.02-1.48h.24l3.42-3.49h1.5l-3.66 3.69h-.1l-1.38 1.28Zm-1.13 2.86V27.03h1.2v10.44h-1.2Zm4.98 0-3.06-3.88.86-.83 3.72 4.7h-1.52Z" fill="#757575"/><rect x=".45" y="20.74" width="259.1" height="90.55" rx="3.14" stroke="#545454" stroke-width=".9"/></svg>