<svg width="260" height="132" viewBox="0 0 260 132" fill="none" xmlns="http://www.w3.org/2000/svg">
<path d="M0.900372 9.6554V0.526868H2.55403V8.26918H6.5745V9.6554H0.900372ZM9.90855 9.79357C9.47471 9.79357 9.08395 9.71631 8.73629 9.56179C8.39159 9.4043 8.11821 9.17252 7.91614 8.86646C7.71705 8.56039 7.61751 8.183 7.61751 7.7343C7.61751 7.34801 7.68882 7.02857 7.83146 6.77599C7.97409 6.52341 8.16872 6.32134 8.41536 6.1698C8.662 6.01825 8.93983 5.90384 9.24887 5.82658C9.56088 5.74635 9.88329 5.68841 10.2161 5.65275C10.6173 5.61115 10.9426 5.574 11.1923 5.54132C11.4419 5.50566 11.6231 5.45217 11.736 5.38086C11.8519 5.30657 11.9099 5.19216 11.9099 5.03764V5.0109C11.9099 4.67512 11.8103 4.41511 11.6112 4.23088C11.4121 4.04664 11.1254 3.95452 10.751 3.95452C10.3558 3.95452 10.0423 4.0407 9.81049 4.21305C9.58168 4.38539 9.42717 4.58894 9.34693 4.82369L7.84037 4.60974C7.95923 4.19373 8.15535 3.84606 8.42873 3.56674C8.70211 3.28444 9.03641 3.07347 9.43162 2.9338C9.82684 2.79117 10.2636 2.71985 10.7421 2.71985C11.0719 2.71985 11.4003 2.75848 11.7271 2.83574C12.054 2.913 12.3526 3.04078 12.623 3.21907C12.8935 3.39439 13.1104 3.6336 13.2738 3.93669C13.4402 4.23979 13.5234 4.61866 13.5234 5.0733V9.6554H11.9723V8.71491H11.9188C11.8207 8.90509 11.6826 9.08338 11.5043 9.24978C11.3289 9.41322 11.1076 9.54545 10.8401 9.64648C10.5757 9.74454 10.2651 9.79357 9.90855 9.79357ZM10.3275 8.60793C10.6514 8.60793 10.9322 8.54404 11.17 8.41627C11.4077 8.28552 11.5904 8.11317 11.7182 7.89922C11.849 7.68527 11.9143 7.45201 11.9143 7.19943V6.39266C11.8638 6.43426 11.7776 6.47289 11.6558 6.50855C11.5369 6.54421 11.4032 6.57541 11.2547 6.60215C11.1061 6.6289 10.959 6.65267 10.8134 6.67347C10.6678 6.69427 10.5415 6.7121 10.4345 6.72696C10.1938 6.75964 9.97838 6.81313 9.78821 6.88742C9.59803 6.96171 9.44797 7.06571 9.33802 7.19943C9.22807 7.33018 9.1731 7.49955 9.1731 7.70756C9.1731 8.00471 9.28156 8.22906 9.49848 8.38061C9.7154 8.53216 9.99176 8.60793 10.3275 8.60793ZM15.2172 9.6554V0.526868H16.8307V3.94115H16.8976C16.9808 3.77475 17.0982 3.59794 17.2497 3.41073C17.4013 3.22056 17.6063 3.05861 17.8648 2.92489C18.1233 2.7882 18.4532 2.71985 18.8543 2.71985C19.3833 2.71985 19.8602 2.85506 20.2851 3.12547C20.713 3.39291 21.0518 3.7896 21.3014 4.31556C21.554 4.83855 21.6803 5.4804 21.6803 6.24111C21.6803 6.99291 21.5569 7.63179 21.3103 8.15775C21.0637 8.68371 20.7279 9.08486 20.3029 9.36121C19.878 9.63757 19.3966 9.77574 18.8588 9.77574C18.4665 9.77574 18.1412 9.71037 17.8826 9.57962C17.6241 9.44887 17.4161 9.29138 17.2586 9.10715C17.1041 8.91994 16.9838 8.74314 16.8976 8.57673H16.804V9.6554H15.2172ZM16.7995 6.2322C16.7995 6.67496 16.8619 7.06274 16.9867 7.39555C17.1145 7.72836 17.2973 7.98837 17.535 8.17558C17.7757 8.35981 18.0669 8.45193 18.4086 8.45193C18.7652 8.45193 19.0638 8.35684 19.3045 8.16666C19.5452 7.97351 19.7265 7.71053 19.8483 7.37772C19.9731 7.04194 20.0355 6.6601 20.0355 6.2322C20.0355 5.80727 19.9746 5.42989 19.8528 5.10005C19.7309 4.77021 19.5497 4.51168 19.309 4.32448C19.0683 4.13727 18.7682 4.04367 18.4086 4.04367C18.0639 4.04367 17.7712 4.1343 17.5305 4.31556C17.2898 4.49683 17.1071 4.75089 16.9823 5.07776C16.8604 5.40463 16.7995 5.78944 16.7995 6.2322ZM26.0829 9.78911C25.3965 9.78911 24.8037 9.64648 24.3045 9.36121C23.8082 9.07298 23.4264 8.66588 23.159 8.13992C22.8915 7.61099 22.7578 6.98845 22.7578 6.27231C22.7578 5.56806 22.8915 4.94998 23.159 4.41808C23.4294 3.88321 23.8068 3.46719 24.2911 3.17004C24.7755 2.86992 25.3445 2.71985 25.9983 2.71985C26.4202 2.71985 26.8184 2.7882 27.1928 2.92489C27.5702 3.05861 27.903 3.26662 28.1912 3.54891C28.4824 3.83121 28.7113 4.19076 28.8777 4.62757C29.0441 5.06142 29.1273 5.57846 29.1273 6.17871V6.67347H23.5155V5.58589H27.5806C27.5776 5.27685 27.5108 5.00199 27.38 4.76129C27.2493 4.51763 27.0665 4.32596 26.8318 4.1863C26.6 4.04664 26.3296 3.97681 26.0205 3.97681C25.6907 3.97681 25.401 4.05704 25.1514 4.2175C24.9018 4.37499 24.7071 4.583 24.5675 4.84152C24.4308 5.09707 24.3609 5.37788 24.358 5.68395V6.63335C24.358 7.03154 24.4308 7.37326 24.5764 7.65853C24.722 7.94083 24.9255 8.15775 25.187 8.30929C25.4485 8.45787 25.7546 8.53216 26.1052 8.53216C26.34 8.53216 26.5524 8.49947 26.7426 8.4341C26.9328 8.36575 27.0977 8.26621 27.2374 8.13546C27.377 8.00471 27.4825 7.84276 27.5538 7.64962L29.0604 7.81899C28.9653 8.21718 28.7841 8.56485 28.5166 8.862C28.2522 9.15618 27.9134 9.38499 27.5004 9.54842C27.0873 9.70888 26.6148 9.78911 26.0829 9.78911ZM32.1058 0.526868V9.6554H30.4923V0.526868H32.1058ZM36.8785 9.6554V2.809H38.443V3.95007H38.5143C38.6391 3.55485 38.8531 3.25027 39.1562 3.03632C39.4622 2.8194 39.8114 2.71094 40.2036 2.71094C40.2928 2.71094 40.3923 2.7154 40.5023 2.72431C40.6152 2.73025 40.7088 2.74065 40.7831 2.75551V4.23979C40.7147 4.21602 40.6063 4.19522 40.4577 4.17739C40.3121 4.15659 40.1709 4.14619 40.0343 4.14619C39.7401 4.14619 39.4756 4.21007 39.2409 4.33785C39.0091 4.46265 38.8263 4.63649 38.6926 4.85935C38.5589 5.08222 38.492 5.33925 38.492 5.63046V9.6554H36.8785ZM44.6041 9.78911C43.9177 9.78911 43.3248 9.64648 42.8256 9.36121C42.3294 9.07298 41.9475 8.66588 41.6801 8.13992C41.4127 7.61099 41.279 6.98845 41.279 6.27231C41.279 5.56806 41.4127 4.94998 41.6801 4.41808C41.9505 3.88321 42.3279 3.46719 42.8123 3.17004C43.2966 2.86992 43.8657 2.71985 44.5194 2.71985C44.9414 2.71985 45.3395 2.7882 45.714 2.92489C46.0913 3.05861 46.4241 3.26662 46.7124 3.54891C47.0036 3.83121 47.2324 4.19076 47.3988 4.62757C47.5652 5.06142 47.6484 5.57846 47.6484 6.17871V6.67347H42.0367V5.58589H46.1017C46.0988 5.27685 46.0319 5.00199 45.9012 4.76129C45.7704 4.51763 45.5877 4.32596 45.3529 4.1863C45.1211 4.04664 44.8507 3.97681 44.5417 3.97681C44.2118 3.97681 43.9221 4.05704 43.6725 4.2175C43.4229 4.37499 43.2283 4.583 43.0886 4.84152C42.9519 5.09707 42.8821 5.37788 42.8791 5.68395V6.63335C42.8791 7.03154 42.9519 7.37326 43.0975 7.65853C43.2431 7.94083 43.4467 8.15775 43.7082 8.30929C43.9697 8.45787 44.2757 8.53216 44.6264 8.53216C44.8611 8.53216 45.0736 8.49947 45.2638 8.4341C45.4539 8.36575 45.6189 8.26621 45.7585 8.13546C45.8982 8.00471 46.0037 7.84276 46.075 7.64962L47.5816 7.81899C47.4865 8.21718 47.3052 8.56485 47.0378 8.862C46.7733 9.15618 46.4345 9.38499 46.0215 9.54842C45.6085 9.70888 45.136 9.78911 44.6041 9.78911ZM53.5822 12.2228V8.57673H53.5153C53.4321 8.74314 53.3118 8.91994 53.1543 9.10715C52.9968 9.29138 52.7888 9.44887 52.5303 9.57962C52.2717 9.71037 51.9464 9.77574 51.5541 9.77574C51.0163 9.77574 50.5349 9.63757 50.11 9.36121C49.685 9.08486 49.3492 8.68371 49.1026 8.15775C48.856 7.63179 48.7326 6.99291 48.7326 6.24111C48.7326 5.4804 48.8575 4.83855 49.1071 4.31556C49.3596 3.7896 49.6999 3.39291 50.1278 3.12547C50.5557 2.85506 51.0326 2.71985 51.5586 2.71985C51.9597 2.71985 52.2896 2.7882 52.5481 2.92489C52.8066 3.05861 53.0116 3.22056 53.1632 3.41073C53.3147 3.59794 53.4321 3.77475 53.5153 3.94115H53.6134V2.809H55.2002V12.2228H53.5822ZM52.0043 8.45193C52.346 8.45193 52.6372 8.35981 52.8779 8.17558C53.1186 7.98837 53.3014 7.72836 53.4262 7.39555C53.551 7.06274 53.6134 6.67496 53.6134 6.2322C53.6134 5.78944 53.551 5.40463 53.4262 5.07776C53.3043 4.75089 53.1231 4.49683 52.8824 4.31556C52.6447 4.1343 52.352 4.04367 52.0043 4.04367C51.6447 4.04367 51.3446 4.13727 51.1039 4.32448C50.8632 4.51168 50.682 4.77021 50.5601 5.10005C50.4383 5.42989 50.3774 5.80727 50.3774 6.2322C50.3774 6.6601 50.4383 7.04194 50.5601 7.37772C50.6849 7.71053 50.8677 7.97351 51.1084 8.16666C51.352 8.35684 51.6507 8.45193 52.0043 8.45193ZM61.222 6.77599V2.809H62.8355V9.6554H61.271V8.43856H61.1997C61.0452 8.82188 60.7911 9.13538 60.4375 9.37904C60.0869 9.62271 59.6545 9.74454 59.1404 9.74454C58.6917 9.74454 58.295 9.645 57.9503 9.4459C57.6086 9.24384 57.3412 8.95114 57.148 8.56782C56.9549 8.18152 56.8583 7.71499 56.8583 7.16823V2.809H58.4718V6.91862C58.4718 7.35246 58.5907 7.69716 58.8284 7.95271C59.0661 8.20826 59.3781 8.33604 59.7644 8.33604C60.0022 8.33604 60.2325 8.27809 60.4553 8.1622C60.6782 8.04631 60.8609 7.87397 61.0036 7.64516C61.1492 7.41338 61.222 7.12366 61.222 6.77599ZM64.4947 9.6554V2.809H66.1083V9.6554H64.4947ZM65.306 1.83731C65.0504 1.83731 64.8305 1.75262 64.6463 1.58325C64.462 1.4109 64.3699 1.20438 64.3699 0.963683C64.3699 0.720017 64.462 0.513496 64.6463 0.344119C64.8305 0.171771 65.0504 0.0855968 65.306 0.0855968C65.5645 0.0855968 65.7844 0.171771 65.9656 0.344119C66.1499 0.513496 66.242 0.720017 66.242 0.963683C66.242 1.20438 66.1499 1.4109 65.9656 1.58325C65.7844 1.75262 65.5645 1.83731 65.306 1.83731ZM67.7675 9.6554V2.809H69.332V3.95007H69.4033C69.5281 3.55485 69.7421 3.25027 70.0452 3.03632C70.3512 2.8194 70.7004 2.71094 71.0926 2.71094C71.1818 2.71094 71.2813 2.7154 71.3913 2.72431C71.5042 2.73025 71.5978 2.74065 71.6721 2.75551V4.23979C71.6037 4.21602 71.4953 4.19522 71.3467 4.17739C71.2011 4.15659 71.06 4.14619 70.9233 4.14619C70.6291 4.14619 70.3646 4.21007 70.1299 4.33785C69.8981 4.46265 69.7153 4.63649 69.5816 4.85935C69.4479 5.08222 69.381 5.33925 69.381 5.63046V9.6554H67.7675ZM75.4931 9.78911C74.8067 9.78911 74.2139 9.64648 73.7146 9.36121C73.2184 9.07298 72.8366 8.66588 72.5691 8.13992C72.3017 7.61099 72.168 6.98845 72.168 6.27231C72.168 5.56806 72.3017 4.94998 72.5691 4.41808C72.8395 3.88321 73.2169 3.46719 73.7013 3.17004C74.1856 2.86992 74.7547 2.71985 75.4084 2.71985C75.8304 2.71985 76.2286 2.7882 76.603 2.92489C76.9803 3.05861 77.3132 3.26662 77.6014 3.54891C77.8926 3.83121 78.1214 4.19076 78.2878 4.62757C78.4542 5.06142 78.5374 5.57846 78.5374 6.17871V6.67347H72.9257V5.58589H76.9907C76.9878 5.27685 76.9209 5.00199 76.7902 4.76129C76.6594 4.51763 76.4767 4.32596 76.2419 4.1863C76.0101 4.04664 75.7397 3.97681 75.4307 3.97681C75.1009 3.97681 74.8111 4.05704 74.5615 4.2175C74.3119 4.37499 74.1173 4.583 73.9776 4.84152C73.8409 5.09707 73.7711 5.37788 73.7681 5.68395V6.63335C73.7681 7.03154 73.8409 7.37326 73.9865 7.65853C74.1321 7.94083 74.3357 8.15775 74.5972 8.30929C74.8587 8.45787 75.1647 8.53216 75.5154 8.53216C75.7501 8.53216 75.9626 8.49947 76.1528 8.4341C76.343 8.36575 76.5079 8.26621 76.6475 8.13546C76.7872 8.00471 76.8927 7.84276 76.964 7.64962L78.4706 7.81899C78.3755 8.21718 78.1942 8.56485 77.9268 8.862C77.6623 9.15618 77.3236 9.38499 76.9105 9.54842C76.4975 9.70888 76.025 9.78911 75.4931 9.78911ZM82.4431 9.77574C81.9053 9.77574 81.4239 9.63757 80.999 9.36121C80.574 9.08486 80.2382 8.68371 79.9916 8.15775C79.745 7.63179 79.6217 6.99291 79.6217 6.24111C79.6217 5.4804 79.7465 4.83855 79.9961 4.31556C80.2486 3.7896 80.5889 3.39291 81.0168 3.12547C81.4447 2.85506 81.9216 2.71985 82.4476 2.71985C82.8487 2.71985 83.1786 2.7882 83.4371 2.92489C83.6956 3.05861 83.9007 3.22056 84.0522 3.41073C84.2037 3.59794 84.3211 3.77475 84.4043 3.94115H84.4712V0.526868H86.0892V9.6554H84.5024V8.57673H84.4043C84.3211 8.74314 84.2008 8.91994 84.0433 9.10715C83.8858 9.29138 83.6778 9.44887 83.4193 9.57962C83.1607 9.71037 82.8354 9.77574 82.4431 9.77574ZM82.8933 8.45193C83.235 8.45193 83.5262 8.35981 83.7669 8.17558C84.0076 7.98837 84.1904 7.72836 84.3152 7.39555C84.44 7.06274 84.5024 6.67496 84.5024 6.2322C84.5024 5.78944 84.44 5.40463 84.3152 5.07776C84.1933 4.75089 84.0121 4.49683 83.7714 4.31556C83.5337 4.1343 83.241 4.04367 82.8933 4.04367C82.5338 4.04367 82.2336 4.13727 81.9929 4.32448C81.7522 4.51168 81.571 4.77021 81.4491 5.10005C81.3273 5.42989 81.2664 5.80727 81.2664 6.2322C81.2664 6.6601 81.3273 7.04194 81.4491 7.37772C81.5739 7.71053 81.7567 7.97351 81.9974 8.16666C82.2411 8.35684 82.5397 8.45193 82.8933 8.45193ZM96.3331 4.61866L94.8622 4.77912C94.8206 4.63055 94.7478 4.49088 94.6438 4.36014C94.5428 4.22939 94.4061 4.1239 94.2338 4.04367C94.0614 3.96344 93.8504 3.92332 93.6008 3.92332C93.265 3.92332 92.9828 3.99612 92.7539 4.14173C92.5281 4.28733 92.4167 4.47603 92.4196 4.70781C92.4167 4.9069 92.4895 5.06885 92.6381 5.19365C92.7896 5.31845 93.0392 5.42097 93.3869 5.5012L94.5547 5.75081C95.2025 5.89047 95.6839 6.11185 95.9988 6.41495C96.3168 6.71804 96.4773 7.11474 96.4802 7.60504C96.4773 8.03591 96.351 8.41627 96.1014 8.74611C95.8547 9.07298 95.5115 9.32853 95.0717 9.51276C94.6319 9.697 94.1268 9.78911 93.5563 9.78911C92.7183 9.78911 92.0437 9.61379 91.5326 9.26315C91.0215 8.90954 90.717 8.41776 90.6189 7.78779L92.1923 7.63624C92.2636 7.94528 92.4152 8.17855 92.647 8.33604C92.8787 8.49353 93.1804 8.57227 93.5518 8.57227C93.9351 8.57227 94.2427 8.49353 94.4745 8.33604C94.7092 8.17855 94.8266 7.98391 94.8266 7.75213C94.8266 7.55601 94.7508 7.39406 94.5993 7.26629C94.4507 7.13851 94.2189 7.04045 93.9039 6.97211L92.7361 6.72696C92.0794 6.59027 91.5936 6.35997 91.2786 6.03608C90.9636 5.70921 90.8076 5.29617 90.8106 4.79695C90.8076 4.37499 90.922 4.0095 91.1538 3.70046C91.3885 3.38845 91.7139 3.14775 92.1299 2.97838C92.5489 2.80603 93.0318 2.71985 93.5785 2.71985C94.3809 2.71985 95.0123 2.89072 95.4729 3.23244C95.9364 3.57417 96.2232 4.03624 96.3331 4.61866ZM97.8107 9.6554V2.809H99.353V3.97235H99.4332C99.5758 3.58011 99.8121 3.27404 100.142 3.05415C100.472 2.83129 100.865 2.71985 101.323 2.71985C101.787 2.71985 102.177 2.83277 102.495 3.05861C102.816 3.28147 103.042 3.58605 103.173 3.97235H103.244C103.396 3.592 103.651 3.2889 104.011 3.06307C104.373 2.83426 104.803 2.71985 105.299 2.71985C105.929 2.71985 106.443 2.91895 106.841 3.31713C107.239 3.71532 107.438 4.29625 107.438 5.05993V9.6554H105.82V5.30954C105.82 4.88461 105.708 4.57409 105.482 4.37797C105.256 4.17887 104.98 4.07933 104.653 4.07933C104.263 4.07933 103.959 4.20116 103.739 4.44483C103.522 4.68552 103.414 4.99901 103.414 5.38531V9.6554H101.831V5.24268C101.831 4.88907 101.724 4.60677 101.51 4.3958C101.299 4.18482 101.023 4.07933 100.681 4.07933C100.449 4.07933 100.238 4.13876 100.048 4.25762C99.8581 4.37351 99.7066 4.53843 99.5937 4.75238C99.4807 4.96336 99.4243 5.20999 99.4243 5.49229V9.6554H97.8107Z" fill="#333333"/>
<path d="M115.452 5.66167L115.555 3.85646L114.04 4.85044L113.496 3.90549L115.114 3.09427L113.496 2.28304L114.04 1.33809L115.555 2.33207L115.452 0.526868H116.536L116.438 2.33207L117.953 1.33809L118.497 2.28304L116.874 3.09427L118.497 3.90549L117.953 4.85044L116.438 3.85646L116.536 5.66167H115.452Z" fill="#EE0505"/>
<path d="M3.92241 29.4141H1.10541V20.2855H4.04722C4.93273 20.2855 5.69047 20.4683 6.32043 20.8338C6.9504 21.1963 7.43327 21.7178 7.76905 22.3983C8.10484 23.0758 8.27273 23.887 8.27273 24.832C8.27273 25.7829 8.10335 26.6015 7.7646 27.2879C7.42584 27.9714 6.93257 28.4973 6.28478 28.8658C5.63698 29.2313 4.84953 29.4141 3.92241 29.4141ZM2.21082 28.4335H3.8511C4.60586 28.4335 5.23137 28.2879 5.72762 27.9966C6.22386 27.7054 6.59382 27.2909 6.83748 26.7531C7.08115 26.2152 7.20298 25.5749 7.20298 24.832C7.20298 24.095 7.08263 23.4606 6.84194 22.9287C6.60124 22.3938 6.24169 21.9838 5.76327 21.6985C5.28486 21.4103 4.68907 21.2661 3.9759 21.2661H2.21082V28.4335ZM12.8548 29.5567C12.1951 29.5567 11.6261 29.4111 11.1477 29.1199C10.6722 28.8257 10.3053 28.4156 10.0467 27.8897C9.79118 27.3607 9.6634 26.7456 9.6634 26.0444C9.6634 25.3431 9.79118 24.725 10.0467 24.1901C10.3053 23.6523 10.6648 23.2333 11.1254 22.9332C11.589 22.6301 12.1298 22.4785 12.7478 22.4785C13.1044 22.4785 13.4566 22.538 13.8042 22.6568C14.1519 22.7757 14.4684 22.9688 14.7536 23.2363C15.0389 23.5007 15.2662 23.8514 15.4356 24.2882C15.605 24.725 15.6897 25.2628 15.6897 25.9017V26.3474H10.4122V25.4382H14.6199C14.6199 25.0519 14.5426 24.7072 14.3881 24.4041C14.2366 24.101 14.0197 23.8618 13.7374 23.6864C13.458 23.5111 13.1282 23.4235 12.7478 23.4235C12.3289 23.4235 11.9663 23.5275 11.6603 23.7355C11.3572 23.9405 11.1239 24.2079 10.9605 24.5378C10.797 24.8676 10.7153 25.2212 10.7153 25.5986V26.2048C10.7153 26.7219 10.8045 27.1602 10.9828 27.5197C11.164 27.8763 11.4151 28.1482 11.736 28.3354C12.057 28.5196 12.4299 28.6118 12.8548 28.6118C13.1312 28.6118 13.3808 28.5731 13.6036 28.4959C13.8295 28.4156 14.0241 28.2968 14.1875 28.1393C14.351 27.9788 14.4773 27.7797 14.5664 27.542L15.5827 27.8273C15.4757 28.172 15.2959 28.4751 15.0433 28.7366C14.7908 28.9951 14.4788 29.1971 14.1073 29.3427C13.7359 29.4854 13.3184 29.5567 12.8548 29.5567ZM22.1394 24.101L21.1944 24.3684C21.135 24.2109 21.0473 24.0579 20.9314 23.9093C20.8185 23.7578 20.664 23.633 20.4679 23.5349C20.2717 23.4368 20.0207 23.3878 19.7146 23.3878C19.2956 23.3878 18.9464 23.4844 18.6671 23.6775C18.3908 23.8677 18.2526 24.1099 18.2526 24.4041C18.2526 24.6656 18.3477 24.8721 18.5379 25.0236C18.728 25.1752 19.0252 25.3015 19.4293 25.4025L20.4456 25.6521C21.0577 25.8007 21.5138 26.028 21.814 26.3341C22.1141 26.6372 22.2642 27.0279 22.2642 27.5063C22.2642 27.8986 22.1512 28.2492 21.9254 28.5583C21.7025 28.8673 21.3905 29.111 20.9894 29.2893C20.5882 29.4675 20.1217 29.5567 19.5898 29.5567C18.8915 29.5567 18.3135 29.4051 17.8559 29.1021C17.3983 28.799 17.1086 28.3562 16.9867 27.7738L17.9852 27.5242C18.0802 27.8926 18.26 28.169 18.5245 28.3532C18.7919 28.5375 19.1411 28.6296 19.572 28.6296C20.0623 28.6296 20.4515 28.5256 20.7398 28.3176C21.031 28.1066 21.1766 27.854 21.1766 27.5598C21.1766 27.3221 21.0934 27.123 20.927 26.9626C20.7606 26.7991 20.505 26.6773 20.1603 26.5971L19.0192 26.3296C18.3923 26.181 17.9317 25.9507 17.6375 25.6387C17.3463 25.3238 17.2007 24.93 17.2007 24.4576C17.2007 24.0713 17.3091 23.7295 17.5261 23.4324C17.746 23.1352 18.0446 22.902 18.422 22.7326C18.8023 22.5632 19.2332 22.4785 19.7146 22.4785C20.3921 22.4785 20.924 22.6271 21.3103 22.9242C21.6996 23.2214 21.9759 23.6136 22.1394 24.101ZM26.629 29.5567C25.9871 29.5567 25.4344 29.4051 24.9708 29.1021C24.5073 28.799 24.1507 28.3815 23.9011 27.8496C23.6515 27.3177 23.5267 26.71 23.5267 26.0265C23.5267 25.3312 23.6545 24.7176 23.91 24.1857C24.1685 23.6508 24.5281 23.2333 24.9887 22.9332C25.4522 22.6301 25.9931 22.4785 26.6111 22.4785C27.0925 22.4785 27.5264 22.5677 27.9127 22.746C28.299 22.9243 28.6154 23.1739 28.8621 23.4948C29.1087 23.8157 29.2617 24.1901 29.3212 24.618H28.2692C28.189 24.306 28.0107 24.0297 27.7344 23.789C27.461 23.5453 27.0925 23.4235 26.629 23.4235C26.2189 23.4235 25.8593 23.5304 25.5503 23.7444C25.2442 23.9554 25.005 24.254 24.8327 24.6403C24.6633 25.0236 24.5786 25.4738 24.5786 25.9909C24.5786 26.5198 24.6618 26.9804 24.8282 27.3726C24.9976 27.7649 25.2353 28.0694 25.5414 28.2864C25.8504 28.5033 26.2129 28.6118 26.629 28.6118C26.9023 28.6118 27.1505 28.5642 27.3733 28.4691C27.5962 28.374 27.7849 28.2373 27.9394 28.059C28.0939 27.8808 28.2039 27.6668 28.2692 27.4172H29.3212C29.2617 27.8213 29.1146 28.1853 28.8799 28.5092C28.6481 28.8302 28.3406 29.0857 27.9572 29.2759C27.5769 29.4631 27.1341 29.5567 26.629 29.5567ZM30.8589 29.4141V22.5677H31.8752V23.6018H31.9465C32.0713 23.263 32.2971 22.9881 32.624 22.7772C32.9509 22.5662 33.3193 22.4607 33.7294 22.4607C33.8067 22.4607 33.9033 22.4622 34.0191 22.4651C34.135 22.4681 34.2227 22.4726 34.2821 22.4785V23.5483C34.2465 23.5394 34.1647 23.526 34.037 23.5082C33.9122 23.4874 33.7799 23.477 33.6403 23.477C33.3075 23.477 33.0103 23.5468 32.7488 23.6864C32.4903 23.8231 32.2853 24.0133 32.1337 24.257C31.9851 24.4977 31.9108 24.7725 31.9108 25.0816V29.4141H30.8589ZM35.529 29.4141V22.5677H36.581V29.4141H35.529ZM36.0639 21.4266C35.8589 21.4266 35.6821 21.3568 35.5335 21.2171C35.3879 21.0774 35.3151 20.9096 35.3151 20.7134C35.3151 20.5173 35.3879 20.3494 35.5335 20.2098C35.6821 20.0701 35.8589 20.0003 36.0639 20.0003C36.269 20.0003 36.4443 20.0701 36.5899 20.2098C36.7385 20.3494 36.8127 20.5173 36.8127 20.7134C36.8127 20.9096 36.7385 21.0774 36.5899 21.2171C36.4443 21.3568 36.269 21.4266 36.0639 21.4266ZM38.5076 31.9815V22.5677H39.5239V23.6552H39.6487C39.726 23.5364 39.8329 23.3848 39.9696 23.2006C40.1093 23.0134 40.3084 22.847 40.5669 22.7014C40.8284 22.5528 41.182 22.4785 41.6277 22.4785C42.2042 22.4785 42.7123 22.6226 43.1521 22.9109C43.5919 23.1991 43.9351 23.6077 44.1818 24.1366C44.4284 24.6656 44.5517 25.2896 44.5517 26.0087C44.5517 26.7337 44.4284 27.3622 44.1818 27.8941C43.9351 28.4231 43.5934 28.8331 43.1566 29.1243C42.7198 29.4126 42.2161 29.5567 41.6456 29.5567C41.2058 29.5567 40.8537 29.4839 40.5892 29.3383C40.3247 29.1897 40.1212 29.0218 39.9785 28.8346C39.8359 28.6444 39.726 28.4869 39.6487 28.3621H39.5596V31.9815H38.5076ZM39.5417 25.9909C39.5417 26.5079 39.6175 26.964 39.769 27.3593C39.9206 27.7515 40.142 28.059 40.4332 28.2819C40.7244 28.5018 41.081 28.6118 41.5029 28.6118C41.9427 28.6118 42.3097 28.4959 42.6039 28.2641C42.901 28.0293 43.1239 27.7143 43.2725 27.3191C43.424 26.921 43.4998 26.4782 43.4998 25.9909C43.4998 25.5095 43.4255 25.0756 43.2769 24.6893C43.1313 24.3001 42.9099 23.9925 42.6128 23.7667C42.3186 23.5379 41.9487 23.4235 41.5029 23.4235C41.075 23.4235 40.7155 23.5319 40.4243 23.7488C40.1331 23.9628 39.9132 24.2629 39.7646 24.6492C39.616 25.0325 39.5417 25.4798 39.5417 25.9909ZM49.1338 22.5677V23.4591H45.5858V22.5677H49.1338ZM46.6199 20.9274H47.6718V27.4529C47.6718 27.75 47.7149 27.9729 47.8011 28.1214C47.8902 28.2671 48.0031 28.3651 48.1398 28.4156C48.2795 28.4632 48.4266 28.4869 48.5811 28.4869C48.697 28.4869 48.7921 28.481 48.8664 28.4691C48.9407 28.4543 49.0001 28.4424 49.0447 28.4335L49.2586 29.3784C49.1873 29.4051 49.0877 29.4319 48.96 29.4586C48.8322 29.4884 48.6702 29.5032 48.4741 29.5032C48.177 29.5032 47.8858 29.4393 47.6005 29.3115C47.3182 29.1838 47.0835 28.9891 46.8962 28.7276C46.712 28.4661 46.6199 28.1363 46.6199 27.7381V20.9274ZM50.7161 29.4141V22.5677H51.7681V29.4141H50.7161ZM51.251 21.4266C51.046 21.4266 50.8692 21.3568 50.7206 21.2171C50.575 21.0774 50.5022 20.9096 50.5022 20.7134C50.5022 20.5173 50.575 20.3494 50.7206 20.2098C50.8692 20.0701 51.046 20.0003 51.251 20.0003C51.4561 20.0003 51.6314 20.0701 51.777 20.2098C51.9256 20.3494 51.9998 20.5173 51.9998 20.7134C51.9998 20.9096 51.9256 21.0774 51.777 21.2171C51.6314 21.3568 51.4561 21.4266 51.251 21.4266ZM56.4761 29.5567C55.858 29.5567 55.3157 29.4096 54.8492 29.1154C54.3856 28.8212 54.0231 28.4097 53.7616 27.8808C53.5031 27.3518 53.3738 26.7337 53.3738 26.0265C53.3738 25.3134 53.5031 24.6908 53.7616 24.1589C54.0231 23.627 54.3856 23.214 54.8492 22.9198C55.3157 22.6256 55.858 22.4785 56.4761 22.4785C57.0942 22.4785 57.635 22.6256 58.0985 22.9198C58.5651 23.214 58.9276 23.627 59.1861 24.1589C59.4476 24.6908 59.5783 25.3134 59.5783 26.0265C59.5783 26.7337 59.4476 27.3518 59.1861 27.8808C58.9276 28.4097 58.5651 28.8212 58.0985 29.1154C57.635 29.4096 57.0942 29.5567 56.4761 29.5567ZM56.4761 28.6118C56.9456 28.6118 57.3319 28.4914 57.635 28.2507C57.9381 28.01 58.1624 27.6935 58.308 27.3013C58.4536 26.9091 58.5264 26.4841 58.5264 26.0265C58.5264 25.5689 58.4536 25.1425 58.308 24.7473C58.1624 24.3521 57.9381 24.0326 57.635 23.789C57.3319 23.5453 56.9456 23.4235 56.4761 23.4235C56.0066 23.4235 55.6203 23.5453 55.3172 23.789C55.0141 24.0326 54.7897 24.3521 54.6441 24.7473C54.4985 25.1425 54.4257 25.5689 54.4257 26.0265C54.4257 26.4841 54.4985 26.9091 54.6441 27.3013C54.7897 27.6935 55.0141 28.01 55.3172 28.2507C55.6203 28.4914 56.0066 28.6118 56.4761 28.6118ZM62.236 25.2955V29.4141H61.1841V22.5677H62.2003V23.6374H62.2895C62.45 23.2897 62.6936 23.0104 63.0205 22.7994C63.3474 22.5855 63.7693 22.4785 64.2864 22.4785C64.7499 22.4785 65.1555 22.5736 65.5032 22.7638C65.8509 22.951 66.1213 23.2363 66.3144 23.6196C66.5076 23.9999 66.6041 24.4813 66.6041 25.0637V29.4141H65.5522V25.1351C65.5522 24.5972 65.4126 24.1782 65.1332 23.8781C64.8539 23.575 64.4706 23.4235 63.9833 23.4235C63.6475 23.4235 63.3474 23.4963 63.0829 23.6419C62.8214 23.7875 62.6149 23.9999 62.4633 24.2793C62.3118 24.5586 62.236 24.8973 62.236 25.2955Z" fill="#757575"/>
<rect x="0.448276" y="40.6209" width="259.103" height="90.5517" rx="3.13793" fill="white"/>
<path d="M13.9171 57.3451L11.0644 46.9125H12.3481L14.5284 55.4094H14.6303L16.8513 46.9125H18.2776L20.4986 55.4094H20.6005L22.7807 46.9125H24.0644L21.2118 57.3451H19.9077L17.6052 49.0316H17.5237L15.2212 57.3451H13.9171ZM24.9852 57.3451V49.5206H26.1466V50.7025H26.2281C26.3708 50.3153 26.6289 50.0012 27.0024 49.7601C27.376 49.5189 27.7971 49.3984 28.2657 49.3984C28.354 49.3984 28.4644 49.4001 28.5969 49.4035C28.7293 49.4069 28.8295 49.412 28.8974 49.4188V50.6413C28.8567 50.6311 28.7633 50.6159 28.6172 50.5955C28.4746 50.5717 28.3235 50.5598 28.1639 50.5598C27.7835 50.5598 27.4439 50.6396 27.1451 50.7992C26.8496 50.9555 26.6153 51.1728 26.4421 51.4513C26.2723 51.7264 26.1874 52.0405 26.1874 52.3937V57.3451H24.9852ZM30.3225 57.3451V49.5206H31.5247V57.3451H30.3225ZM30.9337 48.2166C30.6994 48.2166 30.4974 48.1368 30.3276 47.9771C30.1612 47.8175 30.078 47.6257 30.078 47.4015C30.078 47.1774 30.1612 46.9855 30.3276 46.8259C30.4974 46.6663 30.6994 46.5865 30.9337 46.5865C31.1681 46.5865 31.3684 46.6663 31.5348 46.8259C31.7046 46.9855 31.7895 47.1774 31.7895 47.4015C31.7895 47.6257 31.7046 47.8175 31.5348 47.9771C31.3684 48.1368 31.1681 48.2166 30.9337 48.2166ZM37.1294 49.5206V50.5394H33.0745V49.5206H37.1294ZM34.2563 47.646H35.4585V55.1037C35.4585 55.4433 35.5078 55.698 35.6063 55.8678C35.7081 56.0342 35.8372 56.1463 35.9934 56.204C36.153 56.2584 36.3211 56.2855 36.4977 56.2855C36.6302 56.2855 36.7388 56.2787 36.8237 56.2652C36.9086 56.2482 36.9766 56.2346 37.0275 56.2244L37.272 57.3043C37.1905 57.3349 37.0767 57.3655 36.9307 57.396C36.7847 57.43 36.5996 57.447 36.3755 57.447C36.0359 57.447 35.703 57.374 35.377 57.2279C35.0544 57.0819 34.7861 56.8595 34.5722 56.5606C34.3616 56.2618 34.2563 55.8848 34.2563 55.4297V47.646ZM42.1343 57.5081C41.3804 57.5081 40.73 57.3417 40.1833 57.0089C39.6399 56.6727 39.2205 56.204 38.925 55.6029C38.633 54.9984 38.4869 54.2955 38.4869 53.494C38.4869 52.6925 38.633 51.9862 38.925 51.3749C39.2205 50.7602 39.6314 50.2814 40.1578 49.9384C40.6876 49.592 41.3056 49.4188 42.012 49.4188C42.4195 49.4188 42.822 49.4867 43.2193 49.6225C43.6166 49.7584 43.9783 49.9791 44.3043 50.2847C44.6304 50.587 44.8902 50.9877 45.0837 51.4869C45.2773 51.9862 45.3741 52.6008 45.3741 53.331V53.8404H39.3427V52.8012H44.1515C44.1515 52.3597 44.0632 51.9658 43.8866 51.6194C43.7134 51.273 43.4655 50.9996 43.1429 50.7992C42.8237 50.5989 42.4467 50.4987 42.012 50.4987C41.5332 50.4987 41.1189 50.6176 40.7691 50.8553C40.4227 51.0896 40.1561 51.3952 39.9693 51.7722C39.7825 52.1492 39.6891 52.5533 39.6891 52.9846V53.6774C39.6891 54.2683 39.791 54.7692 39.9948 55.1801C40.2019 55.5876 40.4889 55.8984 40.8557 56.1123C41.2224 56.3229 41.6486 56.4282 42.1343 56.4282C42.4501 56.4282 42.7354 56.384 42.9901 56.2957C43.2482 56.204 43.4706 56.0682 43.6574 55.8882C43.8442 55.7048 43.9885 55.4773 44.0904 55.2056L45.2518 55.5316C45.1296 55.9256 44.9241 56.2719 44.6355 56.5708C44.3468 56.8663 43.9902 57.0972 43.5657 57.2636C43.1412 57.4266 42.6641 57.5081 42.1343 57.5081ZM52.4395 52.6382V57.3451H51.2373V46.9125H52.4395V50.7432H52.5414C52.7248 50.3391 52.9999 50.0182 53.3666 49.7804C53.7368 49.5393 54.2292 49.4188 54.8439 49.4188C55.3771 49.4188 55.8441 49.5257 56.2448 49.7397C56.6455 49.9502 56.9563 50.2746 57.177 50.7126C57.4011 51.1473 57.5132 51.7009 57.5132 52.3733V57.3451H56.311V52.4548C56.311 51.8333 56.1497 51.3528 55.8271 51.0132C55.5078 50.6702 55.0647 50.4987 54.4975 50.4987C54.1036 50.4987 53.7504 50.5819 53.438 50.7483C53.1289 50.9147 52.8844 51.1575 52.7044 51.4768C52.5278 51.796 52.4395 52.1831 52.4395 52.6382ZM62.9931 57.5081C62.2392 57.5081 61.5889 57.3417 61.0421 57.0089C60.4987 56.6727 60.0793 56.204 59.7839 55.6029C59.4918 54.9984 59.3458 54.2955 59.3458 53.494C59.3458 52.6925 59.4918 51.9862 59.7839 51.3749C60.0793 50.7602 60.4902 50.2814 61.0166 49.9384C61.5464 49.592 62.1645 49.4188 62.8709 49.4188C63.2784 49.4188 63.6808 49.4867 64.0781 49.6225C64.4755 49.7584 64.8372 49.9791 65.1632 50.2847C65.4892 50.587 65.749 50.9877 65.9426 51.4869C66.1361 51.9862 66.2329 52.6008 66.2329 53.331V53.8404H60.2016V52.8012H65.0104C65.0104 52.3597 64.9221 51.9658 64.7455 51.6194C64.5723 51.273 64.3244 50.9996 64.0017 50.7992C63.6825 50.5989 63.3056 50.4987 62.8709 50.4987C62.392 50.4987 61.9777 50.6176 61.6279 50.8553C61.2815 51.0896 61.0149 51.3952 60.8281 51.7722C60.6414 52.1492 60.548 52.5533 60.548 52.9846V53.6774C60.548 54.2683 60.6499 54.7692 60.8536 55.1801C61.0608 55.5876 61.3477 55.8984 61.7145 56.1123C62.0813 56.3229 62.5075 56.4282 62.9931 56.4282C63.3089 56.4282 63.5942 56.384 63.8489 56.2957C64.107 56.204 64.3295 56.0682 64.5162 55.8882C64.703 55.7048 64.8473 55.4773 64.9492 55.2056L66.1107 55.5316C65.9884 55.9256 65.783 56.2719 65.4943 56.5708C65.2056 56.8663 64.849 57.0972 64.4245 57.2636C64 57.4266 63.5229 57.5081 62.9931 57.5081ZM68.0617 57.3451V49.5206H69.2231V50.7025H69.3046C69.4473 50.3153 69.7054 50.0012 70.0789 49.7601C70.4525 49.5189 70.8736 49.3984 71.3423 49.3984C71.4306 49.3984 71.5409 49.4001 71.6734 49.4035C71.8058 49.4069 71.906 49.412 71.9739 49.4188V50.6413C71.9332 50.6311 71.8398 50.6159 71.6937 50.5955C71.5511 50.5717 71.4 50.5598 71.2404 50.5598C70.86 50.5598 70.5204 50.6396 70.2216 50.7992C69.9261 50.9555 69.6918 51.1728 69.5186 51.4513C69.3488 51.7264 69.2639 52.0405 69.2639 52.3937V57.3451H68.0617ZM76.4414 57.5081C75.6875 57.5081 75.0371 57.3417 74.4904 57.0089C73.947 56.6727 73.5276 56.204 73.2321 55.6029C72.9401 54.9984 72.7941 54.2955 72.7941 53.494C72.7941 52.6925 72.9401 51.9862 73.2321 51.3749C73.5276 50.7602 73.9385 50.2814 74.4649 49.9384C74.9947 49.592 75.6128 49.4188 76.3191 49.4188C76.7267 49.4188 77.1291 49.4867 77.5264 49.6225C77.9238 49.7584 78.2854 49.9791 78.6115 50.2847C78.9375 50.587 79.1973 50.9877 79.3908 51.4869C79.5844 51.9862 79.6812 52.6008 79.6812 53.331V53.8404H73.6499V52.8012H78.4586C78.4586 52.3597 78.3703 51.9658 78.1937 51.6194C78.0205 51.273 77.7726 50.9996 77.45 50.7992C77.1308 50.5989 76.7538 50.4987 76.3191 50.4987C75.8403 50.4987 75.426 50.6176 75.0762 50.8553C74.7298 51.0896 74.4632 51.3952 74.2764 51.7722C74.0896 52.1492 73.9963 52.5533 73.9963 52.9846V53.6774C73.9963 54.2683 74.0981 54.7692 74.3019 55.1801C74.5091 55.5876 74.796 55.8984 75.1628 56.1123C75.5296 56.3229 75.9558 56.4282 76.4414 56.4282C76.7572 56.4282 77.0425 56.384 77.2972 56.2957C77.5553 56.204 77.7777 56.0682 77.9645 55.8882C78.1513 55.7048 78.2956 55.4773 78.3975 55.2056L79.5589 55.5316C79.4367 55.9256 79.2312 56.2719 78.9426 56.5708C78.6539 56.8663 78.2973 57.0972 77.8728 57.2636C77.4483 57.4266 76.9712 57.5081 76.4414 57.5081Z" fill="#757575"/>
<rect x="0.448276" y="40.6209" width="259.103" height="90.5517" rx="3.13793" stroke="#545454" stroke-width="0.896552"/>
</svg>
