<svg width="672" height="188" fill="none" xmlns="http://www.w3.org/2000/svg"><path fill="#F6F6F6" d="M0 0h672v188H0z"/><path d="M191.81 42h-1.97l3.59-10.18h2.28L199.29 42h-1.97l-2.71-8.1h-.08L191.8 42Zm.07-4h5.37v1.49h-5.37V38Zm8.75 4V31.82h1.8v3.8h.08c.1-.18.22-.38.4-.59.16-.2.39-.39.68-.54a2.91 2.91 0 0 1 3.83 1.55c.28.59.42 1.3.42 2.15 0 .84-.13 1.55-.4 2.14a2.89 2.89 0 0 1-2.73 1.8 2.5 2.5 0 0 1-1.1-.21 2.22 2.22 0 0 1-.7-.53 3.3 3.3 0 0 1-.4-.6h-.1V42h-1.78Zm1.77-3.82c0 .5.07.93.2 1.3.15.37.36.66.62.87.27.2.6.3.97.3.4 0 .74-.1 1-.31.27-.22.47-.5.61-.88s.2-.8.2-1.28c0-.47-.06-.9-.2-1.26a1.9 1.9 0 0 0-.6-.87c-.27-.2-.6-.3-1-.3-.39 0-.72.1-.98.3-.27.2-.48.48-.62.84-.13.37-.2.8-.2 1.3Zm10.3 3.97a3.7 3.7 0 0 1-1.93-.5 3.35 3.35 0 0 1-1.28-1.37 4.53 4.53 0 0 1-.44-2.07c0-.79.14-1.48.44-2.07.3-.6.73-1.06 1.28-1.38a3.7 3.7 0 0 1 1.94-.5c.74 0 1.39.17 1.93.5.55.32.97.79 1.27 1.38.3.6.45 1.28.45 2.07a4.5 4.5 0 0 1-.45 2.07c-.3.59-.72 1.05-1.27 1.38-.54.33-1.19.49-1.93.49Zm.02-1.44c.4 0 .74-.11 1-.34.28-.22.48-.52.62-.9.13-.38.2-.8.2-1.26 0-.47-.07-.9-.2-1.27a2 2 0 0 0-.61-.91 1.54 1.54 0 0 0-1.01-.34c-.42 0-.76.11-1.04.34-.27.22-.47.53-.61.9a3.95 3.95 0 0 0 0 2.54c.14.38.34.68.61.9.28.23.62.34 1.03.34Zm10.04-1.92v-4.43h1.8V42h-1.75v-1.36h-.08a2.3 2.3 0 0 1-.85 1.05c-.39.27-.87.4-1.44.4-.5 0-.95-.1-1.33-.32a2.3 2.3 0 0 1-.9-.98 3.45 3.45 0 0 1-.32-1.56v-4.87h1.8v4.59c0 .48.13.87.4 1.15.26.29.61.43 1.04.43.27 0 .53-.07.77-.2.25-.12.46-.32.61-.57.17-.26.25-.58.25-.97Zm7.46-4.43v1.4h-4.39v-1.4h4.4Zm-3.3-1.83h1.8v7.17c0 .25.03.43.1.56a.6.6 0 0 0 .3.26c.13.04.26.07.41.07a1.74 1.74 0 0 0 .53-.07l.3 1.4a4.08 4.08 0 0 1-1.06.18c-.45.02-.85-.05-1.22-.2a1.9 1.9 0 0 1-.86-.7c-.2-.32-.3-.72-.3-1.2v-7.47ZM235.2 42v-7.64h1.72v1.3h.09c.16-.44.42-.78.79-1.02.37-.25.8-.38 1.32-.38.51 0 .95.13 1.3.38.36.25.62.59.76 1.02h.08c.17-.42.46-.76.86-1.01.4-.26.88-.39 1.43-.39.7 0 1.28.23 1.72.67.45.44.67 1.1.67 1.94V42h-1.8v-4.85c0-.47-.13-.82-.38-1.04a1.35 1.35 0 0 0-.93-.33c-.43 0-.77.14-1.02.4a1.5 1.5 0 0 0-.36 1.06V42h-1.77v-4.92c0-.4-.12-.71-.35-.95a1.25 1.25 0 0 0-.93-.35 1.36 1.36 0 0 0-1.21.75 1.7 1.7 0 0 0-.19.83V42h-1.8Zm15.95.15c-.77 0-1.43-.16-1.99-.48a3.23 3.23 0 0 1-1.28-1.36 4.57 4.57 0 0 1-.44-2.08c0-.79.15-1.48.44-2.07a3.38 3.38 0 0 1 3.17-1.9c.47 0 .92.08 1.33.23a3.17 3.17 0 0 1 1.88 1.9c.19.49.28 1.06.28 1.73v.55h-6.26v-1.2h4.54c0-.35-.08-.66-.23-.93a1.63 1.63 0 0 0-.61-.64 1.72 1.72 0 0 0-.9-.23 1.8 1.8 0 0 0-1.63.96 2 2 0 0 0-.23.94v1.06c0 .44.08.82.25 1.14.16.32.38.56.68.73a2.25 2.25 0 0 0 1.73.14 1.55 1.55 0 0 0 .91-.88l1.68.2a2.7 2.7 0 0 1-1.74 1.92c-.46.18-1 .27-1.58.27Z" fill="#333"/><rect x="190" y="54.5" width="292" height="101" rx="3.5" fill="#fff"/><path d="M204.32 62.36V74h-1.41V62.36h1.4Zm10.8 11.82a3.74 3.74 0 0 1-3.58-2.13 5.34 5.34 0 0 1-.49-2.35c0-.89.16-1.68.5-2.36a3.7 3.7 0 0 1 3.44-2.18c.45 0 .9.07 1.34.23a3.33 3.33 0 0 1 2.08 2.08c.22.55.32 1.24.32 2.05v.57h-6.72v-1.16h5.36c0-.5-.1-.93-.3-1.32a2.22 2.22 0 0 0-2.09-1.25c-.53 0-1 .14-1.38.4-.39.26-.69.6-.9 1.02a3 3 0 0 0-.3 1.36v.77c0 .66.1 1.22.33 1.68.24.45.56.8.97 1.03.4.24.88.36 1.42.36.35 0 .67-.05.95-.15.3-.1.54-.25.75-.45.2-.2.37-.46.48-.77l1.3.37a2.99 2.99 0 0 1-1.89 1.93c-.47.18-1 .27-1.59.27Zm7-5.43V74h-1.35v-8.73h1.3v1.37h.11c.2-.45.52-.8.94-1.07.41-.27.95-.41 1.6-.41.6 0 1.12.12 1.56.36.44.24.79.6 1.03 1.1.25.48.37 1.1.37 1.83V74h-1.34v-5.45c0-.69-.18-1.22-.53-1.6a1.9 1.9 0 0 0-1.47-.59c-.43 0-.8.1-1.15.28-.33.19-.6.46-.78.81-.2.36-.3.8-.3 1.3Zm8.01-3.48h1.34v9.37c0 .53-.09 1-.27 1.4a2 2 0 0 1-.83.9c-.37.22-.84.33-1.4.33h-.27v-1.25h.25c.41 0 .71-.12.9-.36.19-.24.28-.58.28-1.02v-9.37Zm.66-1.45a.96.96 0 0 1-.67-.27.86.86 0 0 1-.28-.64c0-.25.1-.46.28-.64a.96.96 0 0 1 .67-.27c.26 0 .49.09.67.27a.85.85 0 0 1 0 1.28.93.93 0 0 1-.67.27Zm6.69 10.36a3.8 3.8 0 0 1-2.08-.56 3.84 3.84 0 0 1-1.38-1.57 5.32 5.32 0 0 1-.5-2.37c0-.9.17-1.7.5-2.38.33-.68.8-1.2 1.38-1.58a3.8 3.8 0 0 1 2.08-.56c.78 0 1.47.19 2.06.56.6.38 1.06.9 1.39 1.58.33.68.5 1.47.5 2.38 0 .9-.17 1.7-.5 2.37a3.8 3.8 0 0 1-1.39 1.57 3.8 3.8 0 0 1-2.06.56Zm0-1.2c.6 0 1.09-.16 1.47-.46.39-.31.68-.71.86-1.21a4.8 4.8 0 0 0 0-3.26c-.19-.5-.47-.91-.86-1.22a2.28 2.28 0 0 0-1.47-.47c-.6 0-1.1.16-1.48.47-.39.31-.67.72-.86 1.22a4.8 4.8 0 0 0 0 3.26c.19.5.47.9.86 1.2.38.31.88.47 1.48.47Zm6.55 4.3a2.94 2.94 0 0 1-.98-.17l.34-1.18c.33.09.62.12.87.1.25-.03.47-.14.66-.34.2-.2.38-.52.54-.96l.25-.68-3.23-8.78h1.46l2.4 6.96h.1l2.4-6.96h1.46l-3.7 10a3.8 3.8 0 0 1-.62 1.12c-.25.3-.53.52-.86.67-.32.14-.69.21-1.1.21ZM256.57 74v-8.73h1.3v1.32h.09c.16-.43.44-.78.86-1.05s.89-.4 1.41-.4a15.13 15.13 0 0 1 .7.02v1.36a4.07 4.07 0 0 0-.81-.09c-.43 0-.8.1-1.14.27a1.96 1.96 0 0 0-1.07 1.78V74h-1.34Zm9.35.18a3.74 3.74 0 0 1-3.58-2.13 5.34 5.34 0 0 1-.5-2.35c0-.89.17-1.68.5-2.36a3.7 3.7 0 0 1 3.44-2.18c.46 0 .9.07 1.35.23a3.34 3.34 0 0 1 2.08 2.08c.21.55.32 1.24.32 2.05v.57h-6.73v-1.16h5.37c0-.5-.1-.93-.3-1.32a2.23 2.23 0 0 0-2.09-1.25 2.53 2.53 0 0 0-2.28 1.42 3 3 0 0 0-.31 1.36v.77c0 .66.11 1.22.34 1.68.23.45.55.8.96 1.03.41.24.89.36 1.43.36.35 0 .67-.05.95-.15.29-.1.54-.25.75-.45.2-.2.37-.46.48-.77l1.3.37a2.9 2.9 0 0 1-.7 1.16c-.31.33-.71.58-1.19.77-.47.18-1 .27-1.6.27Zm8.22.02c-.55 0-1.06-.1-1.5-.3a2.7 2.7 0 0 1-1.08-.92c-.26-.4-.4-.89-.4-1.46 0-.5.1-.9.3-1.21.2-.32.46-.56.79-.74.33-.18.69-.31 1.09-.4.4-.1.8-.16 1.2-.22l1.3-.15c.33-.04.57-.1.73-.19.15-.08.23-.23.23-.45v-.05c0-.56-.16-1-.46-1.3-.3-.31-.76-.47-1.38-.47a2.4 2.4 0 0 0-1.5.42c-.37.28-.63.58-.77.9l-1.28-.46a3 3 0 0 1 .91-1.23c.38-.3.8-.51 1.25-.63a5.2 5.2 0 0 1 2.3-.08c.38.07.73.2 1.07.4.35.2.63.52.86.93.23.41.34.97.34 1.66V74h-1.34v-1.18h-.07a2.64 2.64 0 0 1-1.3 1.16 3.3 3.3 0 0 1-1.3.22Zm.2-1.2c.53 0 .98-.1 1.35-.31a2.12 2.12 0 0 0 1.1-1.85v-1.23c-.05.07-.17.13-.37.2-.19.04-.4.1-.66.13a30.27 30.27 0 0 1-1.28.17c-.35.05-.67.12-.98.23-.3.1-.54.24-.72.44-.19.2-.28.47-.28.81 0 .47.18.82.52 1.06.35.23.79.35 1.32.35Zm9.54 1.18a3.42 3.42 0 0 1-3.23-2.12 5.67 5.67 0 0 1-.47-2.4c0-.92.15-1.71.47-2.39a3.46 3.46 0 0 1 3.26-2.11c.56 0 1.01.1 1.34.28.33.19.59.4.76.64.18.23.32.43.42.58h.11v-4.3h1.34V74h-1.3v-1.34h-.15l-.42.6a2.5 2.5 0 0 1-.78.64 2.8 2.8 0 0 1-1.35.28Zm.18-1.2c.54 0 1-.14 1.37-.42.37-.29.65-.68.84-1.18.2-.5.3-1.08.3-1.74 0-.66-.1-1.23-.29-1.71a2.24 2.24 0 0 0-2.22-1.56c-.56 0-1.04.14-1.42.43-.37.29-.65.68-.84 1.18a5.03 5.03 0 0 0 0 3.35c.2.5.48.9.85 1.2.38.3.85.45 1.41.45Zm6.46 1.02v-8.73h1.35V74h-1.35Zm.69-10.18a.95.95 0 0 1-.68-.27.86.86 0 0 1-.28-.64c0-.25.1-.46.28-.64a.95.95 0 0 1 .68-.27c.26 0 .48.09.67.27.19.18.28.39.28.64s-.1.46-.28.64a.93.93 0 0 1-.67.27Zm4.45 4.93V74h-1.34v-8.73h1.3v1.37h.11c.2-.45.51-.8.93-1.07.42-.27.96-.41 1.62-.41.59 0 1.1.12 1.55.36.44.24.79.6 1.03 1.1.25.48.37 1.1.37 1.83V74h-1.34v-5.45c0-.69-.18-1.22-.53-1.6a1.9 1.9 0 0 0-1.47-.59c-.43 0-.81.1-1.15.28a2 2 0 0 0-.79.81c-.2.36-.29.8-.29 1.3Zm11.54 8.7c-.64 0-1.2-.08-1.67-.25a3.55 3.55 0 0 1-1.9-1.5l1.07-.75c.12.16.28.35.46.55a2.5 2.5 0 0 0 2.04.77c.7 0 1.29-.17 1.75-.5.46-.35.69-.88.69-1.61v-1.77h-.12c-.1.16-.24.35-.42.59-.18.23-.44.43-.77.62a3 3 0 0 1-1.35.26 3.5 3.5 0 0 1-3.22-1.95 5.09 5.09 0 0 1-.49-2.32c0-.9.16-1.67.47-2.33a3.47 3.47 0 0 1 3.26-2.1c.57 0 1.02.1 1.35.28.34.19.6.4.77.64.19.23.33.43.42.58h.14v-1.39h1.3v8.98c0 .75-.18 1.36-.52 1.83a2.9 2.9 0 0 1-1.36 1.04c-.57.22-1.2.33-1.9.33Zm-.04-4.8c.54 0 .99-.11 1.36-.36.37-.25.66-.6.85-1.06.2-.46.29-1.02.29-1.66 0-.63-.1-1.19-.29-1.67a2.5 2.5 0 0 0-.84-1.13c-.37-.27-.83-.4-1.37-.4a2.28 2.28 0 0 0-2.27 1.58 4.47 4.47 0 0 0-.28 1.62c0 .6.1 1.14.29 1.6.19.47.47.83.85 1.1.38.26.85.39 1.4.39ZM318.1 74V62.36h1.34v4.3h.12l.4-.58c.18-.24.44-.45.77-.64s.78-.28 1.35-.28a3.47 3.47 0 0 1 3.26 2.11c.31.68.47 1.47.47 2.39 0 .92-.16 1.72-.47 2.4a3.42 3.42 0 0 1-3.23 2.12c-.57 0-1.02-.1-1.35-.28a2.5 2.5 0 0 1-.78-.64 8.36 8.36 0 0 1-.42-.6h-.16V74h-1.3Zm1.32-4.36c0 .66.1 1.24.29 1.74.2.5.48.9.85 1.18.37.28.82.42 1.36.42a2.2 2.2 0 0 0 1.4-.45c.38-.3.67-.7.86-1.2.19-.5.29-1.07.29-1.7 0-.6-.1-1.16-.29-1.65a2.27 2.27 0 0 0-2.26-1.62 2.24 2.24 0 0 0-2.22 1.57 4.73 4.73 0 0 0-.28 1.7Zm11.98 4.54a3.8 3.8 0 0 1-2.07-.56 3.82 3.82 0 0 1-1.39-1.57 5.33 5.33 0 0 1-.5-2.37c0-.9.17-1.7.5-2.38.34-.68.8-1.2 1.39-1.58a3.8 3.8 0 0 1 2.07-.56c.8 0 1.48.19 2.07.56.6.38 1.06.9 1.39 1.58.33.68.5 1.47.5 2.38 0 .9-.17 1.7-.5 2.37a3.8 3.8 0 0 1-1.39 1.57c-.59.37-1.28.56-2.07.56Zm0-1.2c.6 0 1.1-.16 1.48-.46.39-.31.67-.71.86-1.21a4.77 4.77 0 0 0 0-3.26c-.19-.5-.47-.91-.86-1.22a2.29 2.29 0 0 0-1.48-.47c-.6 0-1.09.16-1.47.47a2.7 2.7 0 0 0-.86 1.22 4.7 4.7 0 0 0-.28 1.63c0 .59.1 1.13.28 1.63.18.5.47.9.86 1.2.38.31.88.47 1.47.47Zm9.55 1.2a3.8 3.8 0 0 1-2.07-.56c-.6-.38-1.06-.9-1.39-1.57a5.32 5.32 0 0 1-.5-2.37c0-.9.17-1.7.5-2.38.33-.68.8-1.2 1.39-1.58a3.8 3.8 0 0 1 2.07-.56c.79 0 1.48.19 2.07.56.6.38 1.06.9 1.39 1.58.33.68.5 1.47.5 2.38 0 .9-.17 1.7-.5 2.37a3.77 3.77 0 0 1-3.46 2.14Zm0-1.2c.6 0 1.1-.16 1.48-.46.38-.31.67-.71.86-1.21.18-.5.27-1.04.27-1.63a4.8 4.8 0 0 0-.27-1.63c-.19-.5-.48-.91-.86-1.22a2.29 2.29 0 0 0-1.48-.47c-.6 0-1.1.16-1.48.47-.38.31-.67.72-.86 1.22a4.8 4.8 0 0 0-.27 1.63c0 .59.09 1.13.27 1.63.2.5.48.9.86 1.2.39.31.88.47 1.48.47Zm7.25-2.16-.02-1.66h.27l3.82-3.89h1.66l-4.07 4.12h-.11l-1.55 1.43ZM346.96 74V62.36h1.34V74h-1.34Zm5.55 0-3.41-4.32.95-.93 4.16 5.25h-1.7Zm9.34-6.77-1.2.34c-.08-.2-.2-.4-.34-.59a1.6 1.6 0 0 0-.6-.47 2.15 2.15 0 0 0-.95-.2c-.54 0-.98.13-1.34.38-.35.24-.53.55-.53.92 0 .34.12.6.37.8.24.19.62.35 1.13.48l1.3.31c.78.2 1.36.48 1.74.87.38.39.58.89.58 1.5 0 .5-.15.95-.44 1.34-.28.4-.68.7-1.19.93-.51.23-1.1.34-1.78.34-.9 0-1.63-.2-2.21-.58a2.57 2.57 0 0 1-1.11-1.7l1.27-.3c.12.46.35.81.69 1.05.34.23.78.35 1.33.35a2.5 2.5 0 0 0 1.5-.4c.36-.27.55-.59.55-.96 0-.3-.1-.56-.32-.77-.21-.2-.54-.36-.98-.46l-1.45-.34a3.47 3.47 0 0 1-1.76-.88c-.37-.4-.56-.9-.56-1.5 0-.5.14-.94.42-1.31.28-.38.66-.68 1.14-.9a4 4 0 0 1 1.65-.32c.86 0 1.54.19 2.03.57.5.38.85.88 1.06 1.5Z" fill="#1F1F1F"/><rect x="190" y="54.5" width="292" height="101" rx="3.5" stroke="#545454"/></svg>