<svg width="672" height="210" viewBox="0 0 672 210" fill="none" xmlns="http://www.w3.org/2000/svg">
<rect width="672" height="210" fill="#F6F6F6"/>
<path d="M106.881 41V33.7273H107.761V40.2188H111.142V41H106.881ZM113.997 41.1278C113.652 41.1278 113.338 41.0627 113.056 40.9325C112.774 40.8 112.551 40.6094 112.385 40.3608C112.219 40.1098 112.136 39.8068 112.136 39.4517C112.136 39.1392 112.198 38.8859 112.321 38.6918C112.444 38.4953 112.609 38.3414 112.815 38.2301C113.021 38.1188 113.248 38.036 113.496 37.9815C113.747 37.9247 114 37.8797 114.253 37.8466C114.584 37.804 114.853 37.772 115.059 37.7507C115.267 37.727 115.419 37.688 115.513 37.6335C115.611 37.5791 115.659 37.4844 115.659 37.3494V37.321C115.659 36.9706 115.563 36.6984 115.371 36.5043C115.182 36.3101 114.894 36.2131 114.509 36.2131C114.108 36.2131 113.795 36.3007 113.567 36.4759C113.34 36.651 113.18 36.8381 113.088 37.0369L112.293 36.7528C112.435 36.4214 112.624 36.1634 112.861 35.9787C113.1 35.7917 113.36 35.6615 113.642 35.5881C113.926 35.5123 114.205 35.4744 114.48 35.4744C114.655 35.4744 114.857 35.4957 115.084 35.5384C115.313 35.5786 115.535 35.6626 115.748 35.7905C115.963 35.9183 116.142 36.1113 116.284 36.3693C116.426 36.6274 116.497 36.973 116.497 37.4062V41H115.659V40.2614H115.616C115.56 40.3797 115.465 40.5064 115.332 40.6413C115.2 40.7763 115.023 40.8911 114.803 40.9858C114.583 41.0805 114.314 41.1278 113.997 41.1278ZM114.125 40.375C114.456 40.375 114.736 40.3099 114.963 40.1797C115.193 40.0495 115.366 39.8814 115.482 39.6754C115.6 39.4695 115.659 39.2528 115.659 39.0256V38.2585C115.624 38.3011 115.545 38.3402 115.425 38.3757C115.306 38.4089 115.169 38.4384 115.013 38.4645C114.859 38.4882 114.709 38.5095 114.562 38.5284C114.417 38.545 114.3 38.5592 114.21 38.571C113.992 38.5994 113.789 38.6456 113.599 38.7095C113.412 38.7711 113.261 38.8646 113.145 38.9901C113.031 39.1132 112.974 39.2812 112.974 39.4943C112.974 39.7855 113.082 40.0057 113.298 40.1548C113.515 40.3016 113.791 40.375 114.125 40.375ZM118.14 41V33.7273H118.979V36.4119H119.05C119.111 36.3172 119.196 36.1965 119.305 36.0497C119.416 35.9006 119.575 35.768 119.781 35.652C119.989 35.5336 120.271 35.4744 120.626 35.4744C121.086 35.4744 121.49 35.5893 121.841 35.8189C122.191 36.0485 122.465 36.3741 122.661 36.7955C122.858 37.2169 122.956 37.714 122.956 38.2869C122.956 38.8646 122.858 39.3653 122.661 39.7891C122.465 40.2105 122.192 40.5372 121.844 40.7692C121.496 40.9988 121.095 41.1136 120.64 41.1136C120.29 41.1136 120.01 41.0556 119.799 40.9396C119.588 40.8213 119.426 40.6875 119.312 40.5384C119.199 40.3868 119.111 40.2614 119.05 40.1619H118.95V41H118.14ZM118.964 38.2727C118.964 38.6847 119.025 39.0481 119.145 39.3629C119.266 39.6754 119.443 39.9205 119.675 40.098C119.907 40.2732 120.191 40.3608 120.527 40.3608C120.877 40.3608 121.17 40.2685 121.404 40.0838C121.641 39.8968 121.818 39.6458 121.937 39.331C122.057 39.0137 122.118 38.661 122.118 38.2727C122.118 37.8892 122.059 37.5436 121.94 37.2358C121.824 36.9257 121.648 36.6806 121.411 36.5007C121.177 36.3184 120.882 36.2273 120.527 36.2273C120.186 36.2273 119.899 36.3137 119.667 36.4865C119.435 36.657 119.26 36.8961 119.142 37.2038C119.023 37.5092 118.964 37.8655 118.964 38.2727ZM126.525 41.1136C125.999 41.1136 125.546 40.9976 125.165 40.7656C124.786 40.5312 124.493 40.2045 124.287 39.7855C124.084 39.3641 123.982 38.8741 123.982 38.3153C123.982 37.7566 124.084 37.2642 124.287 36.8381C124.493 36.4096 124.78 36.0758 125.147 35.8366C125.516 35.5952 125.947 35.4744 126.439 35.4744C126.724 35.4744 127.004 35.5218 127.281 35.6165C127.558 35.7112 127.81 35.8651 128.037 36.0781C128.265 36.2888 128.446 36.5682 128.581 36.9162C128.716 37.2642 128.783 37.6927 128.783 38.2017V38.5568H124.579V37.8324H127.931C127.931 37.5246 127.869 37.25 127.746 37.0085C127.626 36.767 127.453 36.5765 127.228 36.4368C127.005 36.2971 126.742 36.2273 126.439 36.2273C126.106 36.2273 125.817 36.3101 125.573 36.4759C125.331 36.6392 125.146 36.8523 125.015 37.1151C124.885 37.3778 124.82 37.6596 124.82 37.9602V38.4432C124.82 38.8551 124.891 39.2043 125.033 39.4908C125.178 39.7749 125.378 39.9915 125.633 40.1406C125.889 40.2874 126.186 40.3608 126.525 40.3608C126.745 40.3608 126.944 40.33 127.121 40.2685C127.301 40.2045 127.456 40.1098 127.586 39.9844C127.717 39.8565 127.817 39.6979 127.888 39.5085L128.698 39.7358C128.613 40.0104 128.47 40.2519 128.268 40.4602C128.067 40.6662 127.818 40.8272 127.523 40.9432C127.227 41.0568 126.894 41.1136 126.525 41.1136ZM130.896 33.7273V41H130.058V33.7273H130.896ZM137.673 35.5455V36.2557H134.732V35.5455H137.673ZM135.613 41V34.7926C135.613 34.4801 135.686 34.2197 135.833 34.0114C135.98 33.803 136.17 33.6468 136.405 33.5426C136.639 33.4384 136.887 33.3864 137.147 33.3864C137.353 33.3864 137.521 33.4029 137.651 33.4361C137.781 33.4692 137.879 33.5 137.942 33.5284L137.701 34.2528C137.658 34.2386 137.599 34.2209 137.523 34.1996C137.45 34.1783 137.353 34.1676 137.232 34.1676C136.955 34.1676 136.755 34.2375 136.632 34.3771C136.511 34.5168 136.451 34.7216 136.451 34.9915V41H135.613ZM140.838 41.1136C140.346 41.1136 139.914 40.9964 139.542 40.7621C139.173 40.5277 138.884 40.1998 138.676 39.7784C138.47 39.357 138.367 38.8646 138.367 38.3011C138.367 37.733 138.47 37.237 138.676 36.8132C138.884 36.3894 139.173 36.0604 139.542 35.826C139.914 35.5916 140.346 35.4744 140.838 35.4744C141.331 35.4744 141.762 35.5916 142.131 35.826C142.503 36.0604 142.792 36.3894 142.998 36.8132C143.206 37.237 143.31 37.733 143.31 38.3011C143.31 38.8646 143.206 39.357 142.998 39.7784C142.792 40.1998 142.503 40.5277 142.131 40.7621C141.762 40.9964 141.331 41.1136 140.838 41.1136ZM140.838 40.3608C141.212 40.3608 141.52 40.2649 141.762 40.0732C142.003 39.8814 142.182 39.6293 142.298 39.3168C142.414 39.0043 142.472 38.6657 142.472 38.3011C142.472 37.9366 142.414 37.5968 142.298 37.282C142.182 36.9671 142.003 36.7126 141.762 36.5185C141.52 36.3243 141.212 36.2273 140.838 36.2273C140.464 36.2273 140.157 36.3243 139.915 36.5185C139.674 36.7126 139.495 36.9671 139.379 37.282C139.263 37.5968 139.205 37.9366 139.205 38.3011C139.205 38.6657 139.263 39.0043 139.379 39.3168C139.495 39.6293 139.674 39.8814 139.915 40.0732C140.157 40.2649 140.464 40.3608 140.838 40.3608ZM145.427 37.7188V41H144.589V35.5455H145.399V36.3977H145.47C145.598 36.1207 145.792 35.8982 146.052 35.7301C146.313 35.5597 146.649 35.4744 147.061 35.4744C147.43 35.4744 147.753 35.5502 148.03 35.7017C148.307 35.8509 148.523 36.0781 148.677 36.3835C148.831 36.6866 148.907 37.0701 148.907 37.5341V41H148.069V37.5909C148.069 37.1624 147.958 36.8286 147.736 36.5895C147.513 36.348 147.208 36.2273 146.819 36.2273C146.552 36.2273 146.313 36.2853 146.102 36.4013C145.894 36.5173 145.729 36.6866 145.608 36.9091C145.488 37.1316 145.427 37.4015 145.427 37.7188ZM152.811 35.5455V36.2557H149.984V35.5455H152.811ZM150.808 34.2386H151.646V39.4375C151.646 39.6742 151.681 39.8518 151.749 39.9702C151.82 40.0862 151.91 40.1643 152.019 40.2045C152.13 40.2424 152.248 40.2614 152.371 40.2614C152.463 40.2614 152.539 40.2566 152.598 40.2472C152.657 40.2353 152.705 40.2259 152.74 40.2188L152.911 40.9716C152.854 40.9929 152.774 41.0142 152.673 41.0355C152.571 41.0592 152.442 41.071 152.286 41.071C152.049 41.071 151.817 41.0201 151.589 40.9183C151.365 40.8165 151.178 40.6615 151.028 40.4531C150.882 40.2448 150.808 39.982 150.808 39.6648V34.2386Z" fill="#E8178A"/>
<path d="M162 37.5H192" stroke="#E8178A"/>
<circle cx="191" cy="37.5" r="1" fill="#E8178A"/>
<path d="M195.455 42H192.004V31.8182H195.524C196.535 31.8182 197.403 32.022 198.129 32.4297C198.858 32.834 199.419 33.4157 199.81 34.1747C200.201 34.9337 200.396 35.8419 200.396 36.8991C200.396 37.9598 200.199 38.8712 199.805 39.6335C199.414 40.3958 198.848 40.9808 198.109 41.3885C197.374 41.7962 196.489 42 195.455 42ZM193.849 40.4041H195.365C196.074 40.4041 196.666 40.2749 197.14 40.0163C197.614 39.7545 197.97 39.3651 198.209 38.848C198.447 38.3277 198.567 37.678 198.567 36.8991C198.567 36.1203 198.447 35.474 198.209 34.9602C197.97 34.4432 197.617 34.0571 197.15 33.8018C196.686 33.5433 196.109 33.4141 195.42 33.4141H193.849V40.4041ZM205.45 42.1491C204.684 42.1491 204.023 41.9901 203.466 41.6719C202.913 41.3504 202.487 40.8963 202.189 40.3097C201.89 39.7197 201.741 39.0253 201.741 38.2266C201.741 37.4411 201.89 36.7517 202.189 36.1584C202.49 35.5618 202.911 35.0978 203.451 34.7663C203.992 34.4316 204.626 34.2642 205.355 34.2642C205.826 34.2642 206.27 34.3404 206.688 34.4929C207.109 34.642 207.48 34.8741 207.801 35.1889C208.126 35.5038 208.382 35.9048 208.567 36.392C208.753 36.8759 208.846 37.4527 208.846 38.1222V38.674H202.586V37.4609H207.12C207.117 37.1162 207.042 36.8097 206.897 36.5412C206.751 36.2694 206.547 36.0556 206.285 35.8999C206.027 35.7441 205.725 35.6662 205.38 35.6662C205.012 35.6662 204.689 35.7557 204.411 35.9347C204.132 36.1103 203.915 36.3423 203.76 36.6307C203.607 36.9157 203.529 37.2289 203.526 37.5703V38.6293C203.526 39.0734 203.607 39.4545 203.77 39.7727C203.932 40.0876 204.159 40.3295 204.451 40.4986C204.742 40.6643 205.084 40.7472 205.475 40.7472C205.737 40.7472 205.974 40.7107 206.186 40.6378C206.398 40.5616 206.582 40.4505 206.738 40.3047C206.893 40.1589 207.011 39.9782 207.091 39.7628L208.771 39.9517C208.665 40.3958 208.463 40.7836 208.164 41.1151C207.869 41.4432 207.492 41.6984 207.031 41.8807C206.57 42.0597 206.043 42.1491 205.45 42.1491ZM214.181 34.3636V35.7557H209.791V34.3636H214.181ZM210.875 32.5341H212.675V39.7031C212.675 39.9451 212.711 40.1307 212.784 40.2599C212.86 40.3859 212.96 40.4721 213.083 40.5185C213.205 40.5649 213.341 40.5881 213.49 40.5881C213.603 40.5881 213.706 40.5798 213.798 40.5632C213.895 40.5466 213.968 40.5317 214.017 40.5185L214.32 41.9254C214.224 41.9586 214.087 41.995 213.908 42.0348C213.732 42.0746 213.517 42.0978 213.262 42.1044C212.811 42.1177 212.405 42.0497 212.044 41.9006C211.682 41.7481 211.396 41.5128 211.183 41.1946C210.975 40.8764 210.872 40.4787 210.875 40.0014V32.5341ZM217.884 42.1541C217.4 42.1541 216.964 42.0679 216.576 41.8956C216.192 41.7199 215.887 41.4614 215.662 41.12C215.44 40.7786 215.328 40.3577 215.328 39.8572C215.328 39.4264 215.408 39.0701 215.567 38.7884C215.726 38.5066 215.943 38.2812 216.218 38.1122C216.493 37.9432 216.803 37.8156 217.148 37.7294C217.496 37.6399 217.856 37.5753 218.227 37.5355C218.674 37.4891 219.037 37.4477 219.316 37.4112C219.594 37.3714 219.796 37.3118 219.922 37.2322C220.051 37.1494 220.116 37.0218 220.116 36.8494V36.8196C220.116 36.4451 220.005 36.1551 219.783 35.9496C219.561 35.7441 219.241 35.6413 218.824 35.6413C218.383 35.6413 218.033 35.7375 217.775 35.9297C217.519 36.1219 217.347 36.349 217.257 36.6108L215.577 36.3722C215.71 35.9081 215.928 35.5204 216.233 35.2088C216.538 34.8939 216.911 34.6586 217.352 34.5028C217.793 34.3438 218.28 34.2642 218.814 34.2642C219.181 34.2642 219.548 34.3073 219.912 34.3935C220.277 34.4796 220.61 34.6222 220.912 34.821C221.213 35.0166 221.455 35.2834 221.637 35.6214C221.823 35.9595 221.916 36.3821 221.916 36.8892V42H220.186V40.951H220.126C220.017 41.1631 219.863 41.362 219.664 41.5476C219.468 41.7299 219.221 41.8774 218.923 41.9901C218.628 42.0994 218.282 42.1541 217.884 42.1541ZM218.351 40.8317C218.712 40.8317 219.026 40.7604 219.291 40.6179C219.556 40.4721 219.76 40.2798 219.902 40.0412C220.048 39.8026 220.121 39.5424 220.121 39.2607V38.3608C220.065 38.4072 219.969 38.4503 219.833 38.4901C219.7 38.5298 219.551 38.5646 219.385 38.5945C219.22 38.6243 219.056 38.6508 218.893 38.674C218.731 38.6972 218.59 38.7171 218.471 38.7337C218.202 38.7701 217.962 38.8298 217.75 38.9126C217.538 38.9955 217.37 39.1115 217.248 39.2607C217.125 39.4065 217.064 39.5954 217.064 39.8274C217.064 40.1589 217.185 40.4091 217.426 40.5781C217.668 40.7472 217.977 40.8317 218.351 40.8317ZM223.725 42V34.3636H225.525V42H223.725ZM224.63 33.2798C224.345 33.2798 224.1 33.1854 223.895 32.9964C223.689 32.8042 223.586 32.5739 223.586 32.3054C223.586 32.0336 223.689 31.8033 223.895 31.6143C224.1 31.4221 224.345 31.326 224.63 31.326C224.919 31.326 225.164 31.4221 225.366 31.6143C225.572 31.8033 225.674 32.0336 225.674 32.3054C225.674 32.5739 225.572 32.8042 225.366 32.9964C225.164 33.1854 224.919 33.2798 224.63 33.2798ZM229.176 31.8182V42H227.376V31.8182H229.176ZM237.062 36.3821L235.421 36.5611C235.375 36.3954 235.294 36.2396 235.178 36.0938C235.065 35.9479 234.912 35.8303 234.72 35.7408C234.528 35.6513 234.293 35.6065 234.014 35.6065C233.64 35.6065 233.325 35.6877 233.07 35.8501C232.818 36.0125 232.693 36.223 232.697 36.4815C232.693 36.7036 232.775 36.8842 232.94 37.0234C233.109 37.1626 233.388 37.277 233.776 37.3665L235.078 37.6449C235.801 37.8007 236.338 38.0476 236.689 38.3857C237.044 38.7237 237.223 39.1662 237.226 39.7131C237.223 40.1937 237.082 40.6179 236.803 40.9858C236.528 41.3504 236.145 41.6354 235.655 41.8409C235.164 42.0464 234.601 42.1491 233.964 42.1491C233.03 42.1491 232.277 41.9536 231.707 41.5625C231.137 41.1681 230.798 40.6196 230.688 39.9169L232.443 39.7479C232.523 40.0926 232.692 40.3527 232.95 40.5284C233.209 40.7041 233.545 40.7919 233.96 40.7919C234.387 40.7919 234.73 40.7041 234.989 40.5284C235.25 40.3527 235.381 40.1357 235.381 39.8771C235.381 39.6584 235.297 39.4777 235.128 39.3352C234.962 39.1927 234.704 39.0833 234.352 39.0071L233.05 38.7337C232.317 38.5812 231.775 38.3243 231.424 37.9631C231.073 37.5985 230.899 37.1378 230.902 36.581C230.899 36.1103 231.026 35.7027 231.285 35.358C231.547 35.0099 231.91 34.7415 232.374 34.5526C232.841 34.3603 233.379 34.2642 233.989 34.2642C234.884 34.2642 235.589 34.4548 236.102 34.8359C236.619 35.2171 236.939 35.7325 237.062 36.3821Z" fill="#333333"/>
<path d="M195.375 64H192.233V53.8182H195.514C196.502 53.8182 197.347 54.022 198.05 54.4297C198.752 54.834 199.291 55.4157 199.665 56.1747C200.04 56.9304 200.227 57.8352 200.227 58.8892C200.227 59.9498 200.038 60.8629 199.661 61.6286C199.283 62.3909 198.732 62.9775 198.01 63.3885C197.287 63.7962 196.409 64 195.375 64ZM193.466 62.9062H195.295C196.137 62.9062 196.835 62.7438 197.388 62.419C197.942 62.0942 198.355 61.6319 198.626 61.032C198.898 60.4321 199.034 59.7178 199.034 58.8892C199.034 58.0672 198.9 57.3596 198.631 56.7663C198.363 56.1697 197.962 55.7124 197.428 55.3942C196.895 55.0727 196.23 54.9119 195.435 54.9119H193.466V62.9062ZM205.338 64.1591C204.602 64.1591 203.968 63.9967 203.434 63.6719C202.904 63.3438 202.494 62.8864 202.206 62.2997C201.921 61.7098 201.778 61.0237 201.778 60.2415C201.778 59.4593 201.921 58.7699 202.206 58.1733C202.494 57.5734 202.895 57.1061 203.409 56.7713C203.926 56.4332 204.529 56.2642 205.219 56.2642C205.616 56.2642 206.009 56.3305 206.397 56.4631C206.785 56.5956 207.138 56.8111 207.456 57.1094C207.774 57.4044 208.028 57.7955 208.217 58.2827C208.406 58.7699 208.5 59.3698 208.5 60.0824V60.5795H202.614V59.5653H207.307C207.307 59.1345 207.221 58.75 207.048 58.4119C206.879 58.0739 206.637 57.8071 206.322 57.6115C206.011 57.416 205.643 57.3182 205.219 57.3182C204.751 57.3182 204.347 57.4342 204.006 57.6662C203.668 57.8949 203.407 58.1932 203.225 58.5611C203.043 58.929 202.952 59.3234 202.952 59.7443V60.4205C202.952 60.9972 203.051 61.486 203.25 61.8871C203.452 62.2848 203.732 62.5881 204.09 62.7969C204.448 63.0024 204.864 63.1051 205.338 63.1051C205.646 63.1051 205.925 63.062 206.173 62.9759C206.425 62.8864 206.642 62.7538 206.825 62.5781C207.007 62.3991 207.148 62.1771 207.247 61.9119L208.381 62.2301C208.261 62.6146 208.061 62.9527 207.779 63.2443C207.497 63.5327 207.149 63.758 206.735 63.9205C206.321 64.0795 205.855 64.1591 205.338 64.1591ZM215.694 58.0739L214.64 58.3722C214.574 58.1965 214.476 58.0258 214.347 57.8601C214.221 57.6911 214.048 57.5518 213.83 57.4425C213.611 57.3331 213.331 57.2784 212.989 57.2784C212.522 57.2784 212.133 57.3861 211.821 57.6016C211.513 57.8137 211.359 58.0838 211.359 58.4119C211.359 58.7036 211.465 58.9339 211.677 59.103C211.889 59.272 212.22 59.4129 212.671 59.5256L213.805 59.804C214.487 59.9697 214.996 60.2232 215.331 60.5646C215.666 60.9027 215.833 61.3385 215.833 61.8722C215.833 62.3097 215.707 62.7008 215.455 63.0455C215.207 63.3902 214.859 63.6619 214.411 63.8608C213.964 64.0597 213.443 64.1591 212.85 64.1591C212.071 64.1591 211.427 63.9901 210.916 63.652C210.406 63.3139 210.083 62.8201 209.947 62.1705L211.06 61.892C211.166 62.303 211.367 62.6113 211.662 62.8168C211.96 63.0223 212.35 63.125 212.83 63.125C213.377 63.125 213.811 63.009 214.133 62.777C214.458 62.5417 214.62 62.2599 214.62 61.9318C214.62 61.6667 214.527 61.4446 214.342 61.2656C214.156 61.0833 213.871 60.9474 213.487 60.858L212.214 60.5597C211.514 60.3939 211.001 60.1371 210.673 59.7891C210.348 59.4377 210.185 58.9986 210.185 58.4716C210.185 58.0407 210.306 57.6596 210.548 57.3281C210.794 56.9967 211.127 56.7365 211.548 56.5476C211.972 56.3587 212.452 56.2642 212.989 56.2642C213.745 56.2642 214.338 56.4299 214.769 56.7614C215.203 57.0928 215.512 57.5303 215.694 58.0739ZM220.702 64.1591C219.986 64.1591 219.369 63.9901 218.852 63.652C218.335 63.3139 217.937 62.8482 217.659 62.255C217.381 61.6617 217.241 60.9839 217.241 60.2216C217.241 59.446 217.384 58.7616 217.669 58.1683C217.957 57.5717 218.358 57.1061 218.872 56.7713C219.389 56.4332 219.992 56.2642 220.682 56.2642C221.219 56.2642 221.702 56.3636 222.133 56.5625C222.564 56.7614 222.917 57.0398 223.192 57.3977C223.467 57.7557 223.638 58.1733 223.704 58.6506H222.531C222.442 58.3026 222.243 57.9943 221.934 57.7259C221.63 57.4541 221.219 57.3182 220.702 57.3182C220.244 57.3182 219.843 57.4375 219.498 57.6761C219.157 57.9115 218.89 58.2446 218.698 58.6754C218.509 59.103 218.415 59.6051 218.415 60.1818C218.415 60.7718 218.507 61.2855 218.693 61.723C218.882 62.1605 219.147 62.5002 219.488 62.7422C219.833 62.9841 220.238 63.1051 220.702 63.1051C221.006 63.1051 221.283 63.0521 221.532 62.946C221.78 62.84 221.991 62.6875 222.163 62.4886C222.336 62.2898 222.458 62.0511 222.531 61.7727H223.704C223.638 62.2235 223.474 62.6295 223.212 62.9908C222.954 63.3487 222.611 63.6338 222.183 63.8459C221.759 64.0547 221.265 64.1591 220.702 64.1591ZM225.42 64V56.3636H226.553V57.517H226.633C226.772 57.1392 227.024 56.8326 227.388 56.5973C227.753 56.362 228.164 56.2443 228.621 56.2443C228.707 56.2443 228.815 56.246 228.944 56.2493C229.074 56.2526 229.171 56.2576 229.238 56.2642V57.4574C229.198 57.4474 229.107 57.4325 228.964 57.4126C228.825 57.3894 228.678 57.3778 228.522 57.3778C228.151 57.3778 227.819 57.4557 227.528 57.6115C227.239 57.764 227.01 57.9761 226.841 58.2479C226.676 58.5163 226.593 58.8229 226.593 59.1676V64H225.42ZM230.629 64V56.3636H231.802V64H230.629ZM231.225 55.0909C230.996 55.0909 230.799 55.013 230.634 54.8572C230.471 54.7015 230.39 54.5142 230.39 54.2955C230.39 54.0767 230.471 53.8894 230.634 53.7337C230.799 53.5779 230.996 53.5 231.225 53.5C231.454 53.5 231.649 53.5779 231.812 53.7337C231.978 53.8894 232.06 54.0767 232.06 54.2955C232.06 54.5142 231.978 54.7015 231.812 54.8572C231.649 55.013 231.454 55.0909 231.225 55.0909ZM233.951 66.8636V56.3636H235.084V57.5767H235.224C235.31 57.4441 235.429 57.2751 235.581 57.0696C235.737 56.8608 235.959 56.6752 236.248 56.5128C236.539 56.3471 236.934 56.2642 237.431 56.2642C238.074 56.2642 238.641 56.425 239.131 56.7464C239.622 57.0679 240.005 57.5237 240.28 58.1136C240.555 58.7036 240.692 59.3996 240.692 60.2017C240.692 61.0104 240.555 61.7114 240.28 62.3047C240.005 62.8946 239.623 63.352 239.136 63.6768C238.649 63.9983 238.087 64.1591 237.451 64.1591C236.96 64.1591 236.568 64.0779 236.273 63.9155C235.978 63.7498 235.751 63.5625 235.591 63.3537C235.432 63.1416 235.31 62.9659 235.224 62.8267H235.124V66.8636H233.951ZM235.104 60.1818C235.104 60.7585 235.189 61.2673 235.358 61.7081C235.527 62.1456 235.774 62.4886 236.099 62.7372C236.423 62.9825 236.821 63.1051 237.292 63.1051C237.782 63.1051 238.192 62.9759 238.52 62.7173C238.851 62.4555 239.1 62.1042 239.265 61.6634C239.434 61.2192 239.519 60.7254 239.519 60.1818C239.519 59.6449 239.436 59.161 239.27 58.7301C239.108 58.2959 238.861 57.9529 238.53 57.701C238.202 57.4458 237.789 57.3182 237.292 57.3182C236.814 57.3182 236.413 57.4392 236.089 57.6811C235.764 57.9197 235.519 58.2545 235.353 58.6854C235.187 59.1129 235.104 59.6117 235.104 60.1818ZM245.803 56.3636V57.358H241.846V56.3636H245.803ZM242.999 54.5341H244.172V61.8125C244.172 62.1439 244.22 62.3925 244.317 62.5582C244.416 62.7206 244.542 62.83 244.694 62.8864C244.85 62.9394 245.014 62.9659 245.187 62.9659C245.316 62.9659 245.422 62.9593 245.505 62.946C245.588 62.9295 245.654 62.9162 245.704 62.9062L245.942 63.9602C245.863 63.9901 245.752 64.0199 245.609 64.0497C245.467 64.0829 245.286 64.0994 245.067 64.0994C244.736 64.0994 244.411 64.0282 244.093 63.8857C243.778 63.7431 243.516 63.526 243.307 63.2344C243.102 62.9427 242.999 62.5748 242.999 62.1307V54.5341ZM247.568 64V56.3636H248.741V64H247.568ZM248.165 55.0909C247.936 55.0909 247.739 55.013 247.573 54.8572C247.411 54.7015 247.329 54.5142 247.329 54.2955C247.329 54.0767 247.411 53.8894 247.573 53.7337C247.739 53.5779 247.936 53.5 248.165 53.5C248.393 53.5 248.589 53.5779 248.751 53.7337C248.917 53.8894 249 54.0767 249 54.2955C249 54.5142 248.917 54.7015 248.751 54.8572C248.589 55.013 248.393 55.0909 248.165 55.0909ZM253.993 64.1591C253.303 64.1591 252.698 63.995 252.178 63.6669C251.661 63.3388 251.257 62.8797 250.965 62.2898C250.676 61.6998 250.532 61.0104 250.532 60.2216C250.532 59.4261 250.676 58.7318 250.965 58.1385C251.257 57.5452 251.661 57.0845 252.178 56.7564C252.698 56.4283 253.303 56.2642 253.993 56.2642C254.682 56.2642 255.285 56.4283 255.802 56.7564C256.323 57.0845 256.727 57.5452 257.015 58.1385C257.307 58.7318 257.453 59.4261 257.453 60.2216C257.453 61.0104 257.307 61.6998 257.015 62.2898C256.727 62.8797 256.323 63.3388 255.802 63.6669C255.285 63.995 254.682 64.1591 253.993 64.1591ZM253.993 63.1051C254.516 63.1051 254.947 62.9709 255.285 62.7024C255.623 62.4339 255.873 62.081 256.036 61.6435C256.198 61.206 256.279 60.732 256.279 60.2216C256.279 59.7112 256.198 59.2356 256.036 58.7947C255.873 58.3539 255.623 57.9976 255.285 57.7259C254.947 57.4541 254.516 57.3182 253.993 57.3182C253.469 57.3182 253.038 57.4541 252.7 57.7259C252.362 57.9976 252.112 58.3539 251.949 58.7947C251.787 59.2356 251.706 59.7112 251.706 60.2216C251.706 60.732 251.787 61.206 251.949 61.6435C252.112 62.081 252.362 62.4339 252.7 62.7024C253.038 62.9709 253.469 63.1051 253.993 63.1051ZM260.417 59.4062V64H259.244V56.3636H260.377V57.5568H260.477C260.656 57.169 260.927 56.8575 261.292 56.6222C261.657 56.3835 262.127 56.2642 262.704 56.2642C263.221 56.2642 263.673 56.3703 264.061 56.5824C264.449 56.7912 264.751 57.1094 264.966 57.5369C265.182 57.9612 265.289 58.4981 265.289 59.1477V64H264.116V59.2273C264.116 58.6274 263.96 58.16 263.649 57.8253C263.337 57.4872 262.91 57.3182 262.366 57.3182C261.991 57.3182 261.657 57.3994 261.362 57.5618C261.07 57.7242 260.84 57.9612 260.671 58.2727C260.502 58.5843 260.417 58.9621 260.417 59.4062Z" fill="#757575"/>
<rect x="191.5" y="76.5" width="289" height="101" rx="3.5" fill="white"/>
<path d="M206.523 96L203.341 84.3636H204.773L207.205 93.8409H207.318L209.795 84.3636H211.386L213.864 93.8409H213.977L216.409 84.3636H217.841L214.659 96H213.205L210.636 86.7273H210.545L207.977 96H206.523ZM218.868 96V87.2727H220.163V88.5909H220.254C220.413 88.1591 220.701 87.8087 221.118 87.5398C221.535 87.2708 222.004 87.1364 222.527 87.1364C222.625 87.1364 222.749 87.1383 222.896 87.142C223.044 87.1458 223.156 87.1515 223.232 87.1591V88.5227C223.186 88.5114 223.082 88.4943 222.919 88.4716C222.76 88.4451 222.591 88.4318 222.413 88.4318C221.989 88.4318 221.61 88.5208 221.277 88.6989C220.947 88.8731 220.686 89.1155 220.493 89.4261C220.304 89.733 220.209 90.0833 220.209 90.4773V96H218.868ZM224.821 96V87.2727H226.162V96H224.821ZM225.503 85.8182C225.241 85.8182 225.016 85.7292 224.827 85.5511C224.641 85.3731 224.548 85.1591 224.548 84.9091C224.548 84.6591 224.641 84.4451 224.827 84.267C225.016 84.089 225.241 84 225.503 84C225.764 84 225.988 84.089 226.173 84.267C226.363 84.4451 226.457 84.6591 226.457 84.9091C226.457 85.1591 226.363 85.3731 226.173 85.5511C225.988 85.7292 225.764 85.8182 225.503 85.8182ZM232.413 87.2727V88.4091H227.891V87.2727H232.413ZM229.209 85.1818H230.55V93.5C230.55 93.8788 230.605 94.1629 230.714 94.3523C230.828 94.5379 230.972 94.6629 231.146 94.7273C231.324 94.7879 231.512 94.8182 231.709 94.8182C231.857 94.8182 231.978 94.8106 232.072 94.7955C232.167 94.7765 232.243 94.7614 232.3 94.75L232.572 95.9545C232.482 95.9886 232.355 96.0227 232.192 96.0568C232.029 96.0947 231.822 96.1136 231.572 96.1136C231.194 96.1136 230.822 96.0322 230.459 95.8693C230.099 95.7064 229.8 95.4583 229.561 95.125C229.326 94.7917 229.209 94.3712 229.209 93.8636V85.1818ZM237.996 96.1818C237.155 96.1818 236.429 95.9962 235.82 95.625C235.214 95.25 234.746 94.7273 234.416 94.0568C234.09 93.3826 233.928 92.5985 233.928 91.7045C233.928 90.8106 234.09 90.0227 234.416 89.3409C234.746 88.6553 235.204 88.1212 235.791 87.7386C236.382 87.3523 237.071 87.1591 237.859 87.1591C238.314 87.1591 238.763 87.2348 239.206 87.3864C239.649 87.5379 240.053 87.7841 240.416 88.125C240.78 88.4621 241.07 88.9091 241.286 89.4659C241.501 90.0227 241.609 90.7083 241.609 91.5227V92.0909H234.882V90.9318H240.246C240.246 90.4394 240.147 90 239.95 89.6136C239.757 89.2273 239.481 88.9223 239.121 88.6989C238.765 88.4754 238.344 88.3636 237.859 88.3636C237.325 88.3636 236.863 88.4962 236.473 88.7614C236.087 89.0227 235.789 89.3636 235.581 89.7841C235.373 90.2045 235.268 90.6553 235.268 91.1364V91.9091C235.268 92.5682 235.382 93.1269 235.609 93.5852C235.84 94.0398 236.161 94.3864 236.57 94.625C236.979 94.8598 237.454 94.9773 237.996 94.9773C238.348 94.9773 238.666 94.928 238.95 94.8295C239.238 94.7273 239.486 94.5758 239.695 94.375C239.903 94.1705 240.064 93.9167 240.178 93.6136L241.473 93.9773C241.337 94.4167 241.107 94.803 240.786 95.1364C240.464 95.4659 240.066 95.7235 239.592 95.9091C239.119 96.0909 238.587 96.1818 237.996 96.1818ZM249.49 90.75V96H248.149V84.3636H249.49V88.6364H249.604C249.808 88.1856 250.115 87.8277 250.524 87.5625C250.937 87.2936 251.486 87.1591 252.172 87.1591C252.767 87.1591 253.287 87.2784 253.734 87.517C254.181 87.7519 254.528 88.1136 254.774 88.6023C255.024 89.0871 255.149 89.7045 255.149 90.4545V96H253.808V90.5455C253.808 89.8523 253.628 89.3163 253.268 88.9375C252.912 88.5549 252.418 88.3636 251.786 88.3636C251.346 88.3636 250.952 88.4564 250.604 88.642C250.259 88.8277 249.986 89.0985 249.786 89.4545C249.589 89.8106 249.49 90.2424 249.49 90.75ZM261.261 96.1818C260.42 96.1818 259.695 95.9962 259.085 95.625C258.479 95.25 258.011 94.7273 257.682 94.0568C257.356 93.3826 257.193 92.5985 257.193 91.7045C257.193 90.8106 257.356 90.0227 257.682 89.3409C258.011 88.6553 258.47 88.1212 259.057 87.7386C259.648 87.3523 260.337 87.1591 261.125 87.1591C261.58 87.1591 262.028 87.2348 262.472 87.3864C262.915 87.5379 263.318 87.7841 263.682 88.125C264.045 88.4621 264.335 88.9091 264.551 89.4659C264.767 90.0227 264.875 90.7083 264.875 91.5227V92.0909H258.148V90.9318H263.511C263.511 90.4394 263.413 90 263.216 89.6136C263.023 89.2273 262.746 88.9223 262.386 88.6989C262.03 88.4754 261.61 88.3636 261.125 88.3636C260.591 88.3636 260.129 88.4962 259.739 88.7614C259.352 89.0227 259.055 89.3636 258.847 89.7841C258.638 90.2045 258.534 90.6553 258.534 91.1364V91.9091C258.534 92.5682 258.648 93.1269 258.875 93.5852C259.106 94.0398 259.426 94.3864 259.835 94.625C260.244 94.8598 260.72 94.9773 261.261 94.9773C261.614 94.9773 261.932 94.928 262.216 94.8295C262.504 94.7273 262.752 94.5758 262.96 94.375C263.169 94.1705 263.33 93.9167 263.443 93.6136L264.739 93.9773C264.602 94.4167 264.373 94.803 264.051 95.1364C263.729 95.4659 263.331 95.7235 262.858 95.9091C262.384 96.0909 261.852 96.1818 261.261 96.1818ZM266.915 96V87.2727H268.21V88.5909H268.301C268.46 88.1591 268.748 87.8087 269.165 87.5398C269.581 87.2708 270.051 87.1364 270.574 87.1364C270.672 87.1364 270.795 87.1383 270.943 87.142C271.091 87.1458 271.203 87.1515 271.278 87.1591V88.5227C271.233 88.5114 271.129 88.4943 270.966 88.4716C270.807 88.4451 270.638 88.4318 270.46 88.4318C270.036 88.4318 269.657 88.5208 269.324 88.6989C268.994 88.8731 268.733 89.1155 268.54 89.4261C268.35 89.733 268.256 90.0833 268.256 90.4773V96H266.915ZM276.261 96.1818C275.42 96.1818 274.695 95.9962 274.085 95.625C273.479 95.25 273.011 94.7273 272.682 94.0568C272.356 93.3826 272.193 92.5985 272.193 91.7045C272.193 90.8106 272.356 90.0227 272.682 89.3409C273.011 88.6553 273.47 88.1212 274.057 87.7386C274.648 87.3523 275.337 87.1591 276.125 87.1591C276.58 87.1591 277.028 87.2348 277.472 87.3864C277.915 87.5379 278.318 87.7841 278.682 88.125C279.045 88.4621 279.335 88.9091 279.551 89.4659C279.767 90.0227 279.875 90.7083 279.875 91.5227V92.0909H273.148V90.9318H278.511C278.511 90.4394 278.413 90 278.216 89.6136C278.023 89.2273 277.746 88.9223 277.386 88.6989C277.03 88.4754 276.61 88.3636 276.125 88.3636C275.591 88.3636 275.129 88.4962 274.739 88.7614C274.352 89.0227 274.055 89.3636 273.847 89.7841C273.638 90.2045 273.534 90.6553 273.534 91.1364V91.9091C273.534 92.5682 273.648 93.1269 273.875 93.5852C274.106 94.0398 274.426 94.3864 274.835 94.625C275.244 94.8598 275.72 94.9773 276.261 94.9773C276.614 94.9773 276.932 94.928 277.216 94.8295C277.504 94.7273 277.752 94.5758 277.96 94.375C278.169 94.1705 278.33 93.9167 278.443 93.6136L279.739 93.9773C279.602 94.4167 279.373 94.803 279.051 95.1364C278.729 95.4659 278.331 95.7235 277.858 95.9091C277.384 96.0909 276.852 96.1818 276.261 96.1818Z" fill="#757575"/>
<rect x="191.5" y="76.5" width="289" height="101" rx="3.5" stroke="#545454"/>
<path d="M309 91L279 91" stroke="#E8178A"/>
<circle cx="280" cy="91" r="1" transform="rotate(180 280 91)" fill="#E8178A"/>
<path d="M317.881 94.5V87.2273H320.338C320.909 87.2273 321.375 87.3303 321.737 87.5362C322.102 87.7398 322.372 88.0156 322.547 88.3636C322.722 88.7116 322.81 89.0999 322.81 89.5284C322.81 89.9569 322.722 90.3464 322.547 90.6967C322.374 91.0471 322.107 91.3265 321.744 91.5348C321.382 91.7408 320.918 91.8438 320.352 91.8438H318.591V91.0625H320.324C320.714 91.0625 321.028 90.995 321.265 90.8601C321.502 90.7251 321.673 90.5429 321.78 90.3132C321.889 90.0812 321.943 89.8196 321.943 89.5284C321.943 89.2372 321.889 88.9768 321.78 88.7472C321.673 88.5175 321.5 88.3376 321.261 88.2074C321.022 88.0748 320.705 88.0085 320.31 88.0085H318.761V94.5H317.881ZM324.953 87.2273V94.5H324.115V87.2273H324.953ZM328.093 94.6278C327.747 94.6278 327.434 94.5627 327.152 94.4325C326.87 94.3 326.646 94.1094 326.481 93.8608C326.315 93.6098 326.232 93.3068 326.232 92.9517C326.232 92.6392 326.294 92.3859 326.417 92.1918C326.54 91.9953 326.704 91.8414 326.91 91.7301C327.116 91.6188 327.344 91.536 327.592 91.4815C327.843 91.4247 328.095 91.3797 328.349 91.3466C328.68 91.304 328.949 91.272 329.155 91.2507C329.363 91.227 329.515 91.188 329.609 91.1335C329.706 91.0791 329.755 90.9844 329.755 90.8494V90.821C329.755 90.4706 329.659 90.1984 329.467 90.0043C329.278 89.8101 328.99 89.7131 328.604 89.7131C328.204 89.7131 327.89 89.8007 327.663 89.9759C327.436 90.151 327.276 90.3381 327.184 90.5369L326.388 90.2528C326.53 89.9214 326.72 89.6634 326.956 89.4787C327.196 89.2917 327.456 89.1615 327.738 89.0881C328.022 89.0123 328.301 88.9744 328.576 88.9744C328.751 88.9744 328.952 88.9957 329.18 89.0384C329.409 89.0786 329.631 89.1626 329.844 89.2905C330.059 89.4183 330.238 89.6113 330.38 89.8693C330.522 90.1274 330.593 90.473 330.593 90.9062V94.5H329.755V93.7614H329.712C329.655 93.8797 329.561 94.0064 329.428 94.1413C329.296 94.2763 329.119 94.3911 328.899 94.4858C328.679 94.5805 328.41 94.6278 328.093 94.6278ZM328.221 93.875C328.552 93.875 328.831 93.8099 329.059 93.6797C329.288 93.5495 329.461 93.3814 329.577 93.1754C329.696 92.9695 329.755 92.7528 329.755 92.5256V91.7585C329.719 91.8011 329.641 91.8402 329.52 91.8757C329.402 91.9089 329.265 91.9384 329.108 91.9645C328.955 91.9882 328.804 92.0095 328.657 92.0284C328.513 92.045 328.396 92.0592 328.306 92.071C328.088 92.0994 327.885 92.1456 327.695 92.2095C327.508 92.2711 327.357 92.3646 327.241 92.4901C327.127 92.6132 327.07 92.7812 327.07 92.9943C327.07 93.2855 327.178 93.5057 327.393 93.6548C327.611 93.8016 327.887 93.875 328.221 93.875ZM334.338 94.6136C333.827 94.6136 333.387 94.4929 333.017 94.2514C332.648 94.0099 332.364 93.6773 332.165 93.2536C331.966 92.8298 331.867 92.3456 331.867 91.8011C331.867 91.2472 331.969 90.7583 332.172 90.3345C332.378 89.9084 332.665 89.5758 333.032 89.3366C333.401 89.0952 333.832 88.9744 334.324 88.9744C334.708 88.9744 335.053 89.0455 335.361 89.1875C335.669 89.3295 335.921 89.5284 336.118 89.7841C336.314 90.0398 336.436 90.3381 336.483 90.679H335.645C335.581 90.4304 335.439 90.2102 335.219 90.0185C335.001 89.8243 334.708 89.7273 334.338 89.7273C334.012 89.7273 333.725 89.8125 333.479 89.983C333.235 90.151 333.045 90.389 332.907 90.6967C332.772 91.0021 332.705 91.3608 332.705 91.7727C332.705 92.1941 332.771 92.5611 332.904 92.8736C333.039 93.1861 333.228 93.4287 333.472 93.6016C333.718 93.7744 334.007 93.8608 334.338 93.8608C334.556 93.8608 334.754 93.8229 334.931 93.7472C335.109 93.6714 335.259 93.5625 335.382 93.4205C335.506 93.2784 335.593 93.108 335.645 92.9091H336.483C336.436 93.2311 336.319 93.5211 336.132 93.7791C335.947 94.0348 335.702 94.2384 335.397 94.3899C335.094 94.5391 334.741 94.6136 334.338 94.6136ZM339.995 94.6136C339.47 94.6136 339.016 94.4976 338.635 94.2656C338.257 94.0312 337.964 93.7045 337.758 93.2855C337.555 92.8641 337.453 92.3741 337.453 91.8153C337.453 91.2566 337.555 90.7642 337.758 90.3381C337.964 89.9096 338.251 89.5758 338.618 89.3366C338.987 89.0952 339.418 88.9744 339.91 88.9744C340.194 88.9744 340.475 89.0218 340.752 89.1165C341.029 89.2112 341.281 89.3651 341.508 89.5781C341.735 89.7888 341.917 90.0682 342.051 90.4162C342.186 90.7642 342.254 91.1927 342.254 91.7017V92.0568H338.049V91.3324H341.402C341.402 91.0246 341.34 90.75 341.217 90.5085C341.096 90.267 340.923 90.0765 340.699 89.9368C340.476 89.7971 340.213 89.7273 339.91 89.7273C339.576 89.7273 339.288 89.8101 339.044 89.9759C338.802 90.1392 338.616 90.3523 338.486 90.6151C338.356 90.8778 338.291 91.1596 338.291 91.4602V91.9432C338.291 92.3551 338.362 92.7043 338.504 92.9908C338.648 93.2749 338.848 93.4915 339.104 93.6406C339.36 93.7874 339.657 93.8608 339.995 93.8608C340.216 93.8608 340.414 93.83 340.592 93.7685C340.772 93.7045 340.927 93.6098 341.057 93.4844C341.187 93.3565 341.288 93.1979 341.359 93.0085L342.169 93.2358C342.083 93.5104 341.94 93.7519 341.739 93.9602C341.538 94.1662 341.289 94.3272 340.993 94.4432C340.697 94.5568 340.365 94.6136 339.995 94.6136ZM344.367 91.2188V94.5H343.529V87.2273H344.367V89.8977H344.438C344.566 89.616 344.757 89.3923 345.013 89.2266C345.271 89.0585 345.614 88.9744 346.043 88.9744C346.415 88.9744 346.74 89.049 347.02 89.1982C347.299 89.3449 347.516 89.571 347.669 89.8764C347.826 90.1795 347.904 90.5653 347.904 91.0341V94.5H347.066V91.0909C347.066 90.6577 346.953 90.3227 346.728 90.0859C346.506 89.8468 346.197 89.7273 345.801 89.7273C345.527 89.7273 345.281 89.7853 345.063 89.9013C344.847 90.0173 344.677 90.1866 344.551 90.4091C344.428 90.6316 344.367 90.9015 344.367 91.2188ZM351.653 94.6136C351.16 94.6136 350.728 94.4964 350.357 94.2621C349.987 94.0277 349.699 93.6998 349.49 93.2784C349.284 92.857 349.181 92.3646 349.181 91.8011C349.181 91.233 349.284 90.737 349.49 90.3132C349.699 89.8894 349.987 89.5604 350.357 89.326C350.728 89.0916 351.16 88.9744 351.653 88.9744C352.145 88.9744 352.576 89.0916 352.945 89.326C353.317 89.5604 353.606 89.8894 353.812 90.3132C354.02 90.737 354.124 91.233 354.124 91.8011C354.124 92.3646 354.02 92.857 353.812 93.2784C353.606 93.6998 353.317 94.0277 352.945 94.2621C352.576 94.4964 352.145 94.6136 351.653 94.6136ZM351.653 93.8608C352.027 93.8608 352.335 93.7649 352.576 93.5732C352.818 93.3814 352.996 93.1293 353.112 92.8168C353.228 92.5043 353.286 92.1657 353.286 91.8011C353.286 91.4366 353.228 91.0968 353.112 90.782C352.996 90.4671 352.818 90.2126 352.576 90.0185C352.335 89.8243 352.027 89.7273 351.653 89.7273C351.279 89.7273 350.971 89.8243 350.73 90.0185C350.488 90.2126 350.309 90.4671 350.193 90.782C350.077 91.0968 350.019 91.4366 350.019 91.8011C350.019 92.1657 350.077 92.5043 350.193 92.8168C350.309 93.1293 350.488 93.3814 350.73 93.5732C350.971 93.7649 351.279 93.8608 351.653 93.8608ZM356.242 87.2273V94.5H355.404V87.2273H356.242ZM359.836 94.6136C359.382 94.6136 358.981 94.4988 358.633 94.2692C358.285 94.0372 358.012 93.7105 357.816 93.2891C357.619 92.8653 357.521 92.3646 357.521 91.7869C357.521 91.214 357.619 90.7169 357.816 90.2955C358.012 89.8741 358.286 89.5485 358.636 89.3189C358.987 89.0893 359.391 88.9744 359.851 88.9744C360.206 88.9744 360.486 89.0336 360.692 89.152C360.901 89.268 361.059 89.4006 361.168 89.5497C361.279 89.6965 361.366 89.8172 361.427 89.9119H361.498V87.2273H362.336V94.5H361.527V93.6619H361.427C361.366 93.7614 361.278 93.8868 361.165 94.0384C361.051 94.1875 360.889 94.3213 360.678 94.4396C360.467 94.5556 360.187 94.6136 359.836 94.6136ZM359.95 93.8608C360.286 93.8608 360.57 93.7732 360.802 93.598C361.034 93.4205 361.211 93.1754 361.331 92.8629C361.452 92.5481 361.513 92.1847 361.513 91.7727C361.513 91.3655 361.453 91.0092 361.335 90.7038C361.217 90.3961 361.041 90.157 360.809 89.9865C360.577 89.8137 360.291 89.7273 359.95 89.7273C359.595 89.7273 359.299 89.8184 359.062 90.0007C358.828 90.1806 358.652 90.4257 358.533 90.7358C358.417 91.0436 358.359 91.3892 358.359 91.7727C358.359 92.161 358.418 92.5137 358.537 92.831C358.657 93.1458 358.835 93.3968 359.069 93.5838C359.306 93.7685 359.6 93.8608 359.95 93.8608ZM366.275 94.6136C365.749 94.6136 365.296 94.4976 364.915 94.2656C364.536 94.0312 364.243 93.7045 364.037 93.2855C363.834 92.8641 363.732 92.3741 363.732 91.8153C363.732 91.2566 363.834 90.7642 364.037 90.3381C364.243 89.9096 364.53 89.5758 364.897 89.3366C365.266 89.0952 365.697 88.9744 366.189 88.9744C366.474 88.9744 366.754 89.0218 367.031 89.1165C367.308 89.2112 367.56 89.3651 367.787 89.5781C368.015 89.7888 368.196 90.0682 368.331 90.4162C368.466 90.7642 368.533 91.1927 368.533 91.7017V92.0568H364.329V91.3324H367.681C367.681 91.0246 367.619 90.75 367.496 90.5085C367.376 90.267 367.203 90.0765 366.978 89.9368C366.755 89.7971 366.492 89.7273 366.189 89.7273C365.856 89.7273 365.567 89.8101 365.323 89.9759C365.081 90.1392 364.896 90.3523 364.765 90.6151C364.635 90.8778 364.57 91.1596 364.57 91.4602V91.9432C364.57 92.3551 364.641 92.7043 364.783 92.9908C364.928 93.2749 365.128 93.4915 365.383 93.6406C365.639 93.7874 365.936 93.8608 366.275 93.8608C366.495 93.8608 366.694 93.83 366.871 93.7685C367.051 93.7045 367.206 93.6098 367.336 93.4844C367.467 93.3565 367.567 93.1979 367.638 93.0085L368.448 93.2358C368.363 93.5104 368.22 93.7519 368.018 93.9602C367.817 94.1662 367.568 94.3272 367.273 94.4432C366.977 94.5568 366.644 94.6136 366.275 94.6136ZM369.808 94.5V89.0455H370.618V89.8693H370.675C370.774 89.5994 370.954 89.3804 371.214 89.2124C371.475 89.0443 371.768 88.9602 372.095 88.9602C372.157 88.9602 372.233 88.9614 372.326 88.9638C372.418 88.9661 372.488 88.9697 372.535 88.9744V89.8267C372.507 89.8196 372.442 89.8089 372.34 89.7947C372.241 89.7782 372.135 89.7699 372.024 89.7699C371.759 89.7699 371.522 89.8255 371.314 89.9368C371.108 90.0457 370.944 90.1972 370.824 90.3913C370.705 90.5831 370.646 90.8021 370.646 91.0483V94.5H369.808ZM378.77 89.0455V89.7557H375.83V89.0455H378.77ZM376.711 94.5V88.2926C376.711 87.9801 376.784 87.7197 376.931 87.5114C377.078 87.303 377.268 87.1468 377.502 87.0426C377.737 86.9384 377.984 86.8864 378.245 86.8864C378.451 86.8864 378.619 86.9029 378.749 86.9361C378.879 86.9692 378.976 87 379.04 87.0284L378.799 87.7528C378.756 87.7386 378.697 87.7209 378.621 87.6996C378.548 87.6783 378.451 87.6676 378.33 87.6676C378.053 87.6676 377.853 87.7375 377.73 87.8771C377.609 88.0168 377.549 88.2216 377.549 88.4915V94.5H376.711ZM381.936 94.6136C381.444 94.6136 381.012 94.4964 380.64 94.2621C380.271 94.0277 379.982 93.6998 379.773 93.2784C379.567 92.857 379.464 92.3646 379.464 91.8011C379.464 91.233 379.567 90.737 379.773 90.3132C379.982 89.8894 380.271 89.5604 380.64 89.326C381.012 89.0916 381.444 88.9744 381.936 88.9744C382.429 88.9744 382.859 89.0916 383.229 89.326C383.6 89.5604 383.889 89.8894 384.095 90.3132C384.304 90.737 384.408 91.233 384.408 91.8011C384.408 92.3646 384.304 92.857 384.095 93.2784C383.889 93.6998 383.6 94.0277 383.229 94.2621C382.859 94.4964 382.429 94.6136 381.936 94.6136ZM381.936 93.8608C382.31 93.8608 382.618 93.7649 382.859 93.5732C383.101 93.3814 383.28 93.1293 383.396 92.8168C383.512 92.5043 383.57 92.1657 383.57 91.8011C383.57 91.4366 383.512 91.0968 383.396 90.782C383.28 90.4671 383.101 90.2126 382.859 90.0185C382.618 89.8243 382.31 89.7273 381.936 89.7273C381.562 89.7273 381.254 89.8243 381.013 90.0185C380.771 90.2126 380.593 90.4671 380.477 90.782C380.361 91.0968 380.303 91.4366 380.303 91.8011C380.303 92.1657 380.361 92.5043 380.477 92.8168C380.593 93.1293 380.771 93.3814 381.013 93.5732C381.254 93.7649 381.562 93.8608 381.936 93.8608ZM386.525 91.2188V94.5H385.687V89.0455H386.497V89.8977H386.568C386.695 89.6207 386.89 89.3982 387.15 89.2301C387.41 89.0597 387.747 88.9744 388.159 88.9744C388.528 88.9744 388.851 89.0502 389.128 89.2017C389.405 89.3509 389.62 89.5781 389.774 89.8835C389.928 90.1866 390.005 90.5701 390.005 91.0341V94.5H389.167V91.0909C389.167 90.6624 389.056 90.3286 388.833 90.0895C388.611 89.848 388.305 89.7273 387.917 89.7273C387.65 89.7273 387.41 89.7853 387.2 89.9013C386.991 90.0173 386.827 90.1866 386.706 90.4091C386.585 90.6316 386.525 90.9015 386.525 91.2188ZM393.909 89.0455V89.7557H391.082V89.0455H393.909ZM391.906 87.7386H392.744V92.9375C392.744 93.1742 392.778 93.3518 392.847 93.4702C392.918 93.5862 393.008 93.6643 393.117 93.7045C393.228 93.7424 393.345 93.7614 393.468 93.7614C393.561 93.7614 393.636 93.7566 393.696 93.7472C393.755 93.7353 393.802 93.7259 393.838 93.7188L394.008 94.4716C393.951 94.4929 393.872 94.5142 393.77 94.5355C393.668 94.5592 393.539 94.571 393.383 94.571C393.146 94.571 392.914 94.5201 392.687 94.4183C392.462 94.3165 392.275 94.1615 392.126 93.9531C391.979 93.7448 391.906 93.482 391.906 93.1648V87.7386Z" fill="#E8178A"/>
<path d="M295 60L265 60" stroke="#E8178A"/>
<circle cx="266" cy="60" r="1" transform="rotate(180 266 60)" fill="#E8178A"/>
<path d="M306.125 63.5H303.881V56.2273H306.224C306.93 56.2273 307.534 56.3729 308.036 56.6641C308.537 56.9529 308.922 57.3684 309.19 57.9105C309.457 58.4503 309.591 59.0966 309.591 59.8494C309.591 60.607 309.456 61.2592 309.186 61.8061C308.916 62.3506 308.523 62.7696 308.007 63.0632C307.491 63.3544 306.864 63.5 306.125 63.5ZM304.761 62.7188H306.068C306.67 62.7188 307.168 62.6027 307.563 62.3707C307.959 62.1387 308.253 61.8085 308.447 61.38C308.642 60.9515 308.739 60.4413 308.739 59.8494C308.739 59.2623 308.643 58.7569 308.451 58.3331C308.259 57.907 307.973 57.5803 307.592 57.353C307.21 57.1233 306.736 57.0085 306.168 57.0085H304.761V62.7188ZM313.241 63.6136C312.716 63.6136 312.263 63.4976 311.881 63.2656C311.503 63.0312 311.21 62.7045 311.004 62.2855C310.801 61.8641 310.699 61.3741 310.699 60.8153C310.699 60.2566 310.801 59.7642 311.004 59.3381C311.21 58.9096 311.497 58.5758 311.864 58.3366C312.233 58.0952 312.664 57.9744 313.156 57.9744C313.44 57.9744 313.721 58.0218 313.998 58.1165C314.275 58.2112 314.527 58.3651 314.754 58.5781C314.982 58.7888 315.163 59.0682 315.298 59.4162C315.433 59.7642 315.5 60.1927 315.5 60.7017V61.0568H311.295V60.3324H314.648C314.648 60.0246 314.586 59.75 314.463 59.5085C314.342 59.267 314.17 59.0765 313.945 58.9368C313.722 58.7971 313.459 58.7273 313.156 58.7273C312.822 58.7273 312.534 58.8101 312.29 58.9759C312.048 59.1392 311.862 59.3523 311.732 59.6151C311.602 59.8778 311.537 60.1596 311.537 60.4602V60.9432C311.537 61.3551 311.608 61.7043 311.75 61.9908C311.894 62.2749 312.094 62.4915 312.35 62.6406C312.606 62.7874 312.903 62.8608 313.241 62.8608C313.462 62.8608 313.661 62.83 313.838 62.7685C314.018 62.7045 314.173 62.6098 314.303 62.4844C314.433 62.3565 314.534 62.1979 314.605 62.0085L315.415 62.2358C315.33 62.5104 315.186 62.7519 314.985 62.9602C314.784 63.1662 314.535 63.3272 314.239 63.4432C313.943 63.5568 313.611 63.6136 313.241 63.6136ZM320.638 59.267L319.886 59.4801C319.838 59.3546 319.768 59.2327 319.676 59.1143C319.586 58.9936 319.463 58.8942 319.307 58.8161C319.151 58.7379 318.951 58.6989 318.707 58.6989C318.373 58.6989 318.095 58.7758 317.872 58.9297C317.652 59.0812 317.542 59.2741 317.542 59.5085C317.542 59.7169 317.618 59.8814 317.769 60.0021C317.921 60.1229 318.157 60.2235 318.479 60.304L319.289 60.5028C319.777 60.6212 320.14 60.8023 320.379 61.0462C320.618 61.2876 320.738 61.599 320.738 61.9801C320.738 62.2926 320.648 62.572 320.468 62.8182C320.29 63.0644 320.042 63.2585 319.722 63.4006C319.403 63.5426 319.031 63.6136 318.607 63.6136C318.051 63.6136 317.59 63.4929 317.226 63.2514C316.861 63.0099 316.63 62.6572 316.533 62.1932L317.329 61.9943C317.405 62.2879 317.548 62.508 317.759 62.6548C317.972 62.8016 318.25 62.875 318.593 62.875C318.984 62.875 319.294 62.7921 319.523 62.6264C319.755 62.4583 319.871 62.2571 319.871 62.0227C319.871 61.8333 319.805 61.6747 319.673 61.5469C319.54 61.4167 319.336 61.3196 319.062 61.2557L318.153 61.0426C317.653 60.9242 317.286 60.7408 317.052 60.4922C316.82 60.2412 316.704 59.9276 316.704 59.5511C316.704 59.2434 316.79 58.9711 316.963 58.7344C317.138 58.4976 317.376 58.3118 317.677 58.1768C317.98 58.0419 318.323 57.9744 318.707 57.9744C319.246 57.9744 319.67 58.0928 319.978 58.3295C320.288 58.5663 320.508 58.8788 320.638 59.267ZM324.215 63.6136C323.704 63.6136 323.264 63.4929 322.894 63.2514C322.525 63.0099 322.241 62.6773 322.042 62.2536C321.843 61.8298 321.744 61.3456 321.744 60.8011C321.744 60.2472 321.846 59.7583 322.049 59.3345C322.255 58.9084 322.542 58.5758 322.909 58.3366C323.278 58.0952 323.709 57.9744 324.201 57.9744C324.585 57.9744 324.93 58.0455 325.238 58.1875C325.546 58.3295 325.798 58.5284 325.994 58.7841C326.191 59.0398 326.313 59.3381 326.36 59.679H325.522C325.458 59.4304 325.316 59.2102 325.096 59.0185C324.878 58.8243 324.585 58.7273 324.215 58.7273C323.889 58.7273 323.602 58.8125 323.356 58.983C323.112 59.151 322.922 59.389 322.784 59.6967C322.649 60.0021 322.582 60.3608 322.582 60.7727C322.582 61.1941 322.648 61.5611 322.781 61.8736C322.916 62.1861 323.105 62.4287 323.349 62.6016C323.595 62.7744 323.884 62.8608 324.215 62.8608C324.433 62.8608 324.631 62.8229 324.808 62.7472C324.986 62.6714 325.136 62.5625 325.259 62.4205C325.383 62.2784 325.47 62.108 325.522 61.9091H326.36C326.313 62.2311 326.196 62.5211 326.009 62.7791C325.824 63.0348 325.579 63.2384 325.274 63.3899C324.971 63.5391 324.618 63.6136 324.215 63.6136ZM327.585 63.5V58.0455H328.395V58.8693H328.452C328.551 58.5994 328.731 58.3804 328.992 58.2124C329.252 58.0443 329.546 57.9602 329.872 57.9602C329.934 57.9602 330.011 57.9614 330.103 57.9638C330.195 57.9661 330.265 57.9697 330.313 57.9744V58.8267C330.284 58.8196 330.219 58.8089 330.117 58.7947C330.018 58.7782 329.913 58.7699 329.801 58.7699C329.536 58.7699 329.299 58.8255 329.091 58.9368C328.885 59.0457 328.722 59.1972 328.601 59.3913C328.483 59.5831 328.423 59.8021 328.423 60.0483V63.5H327.585ZM331.306 63.5V58.0455H332.144V63.5H331.306ZM331.732 57.1364C331.569 57.1364 331.428 57.0807 331.31 56.9695C331.194 56.8582 331.136 56.7244 331.136 56.5682C331.136 56.4119 331.194 56.2782 331.31 56.1669C331.428 56.0556 331.569 56 331.732 56C331.896 56 332.035 56.0556 332.151 56.1669C332.27 56.2782 332.329 56.4119 332.329 56.5682C332.329 56.7244 332.27 56.8582 332.151 56.9695C332.035 57.0807 331.896 57.1364 331.732 57.1364ZM333.679 65.5455V58.0455H334.489V58.9119H334.588C334.65 58.8172 334.735 58.6965 334.844 58.5497C334.955 58.4006 335.114 58.268 335.32 58.152C335.528 58.0336 335.81 57.9744 336.165 57.9744C336.624 57.9744 337.029 58.0893 337.379 58.3189C337.73 58.5485 338.003 58.8741 338.2 59.2955C338.396 59.7169 338.494 60.214 338.494 60.7869C338.494 61.3646 338.396 61.8653 338.2 62.2891C338.003 62.7105 337.731 63.0372 337.383 63.2692C337.035 63.4988 336.634 63.6136 336.179 63.6136C335.829 63.6136 335.548 63.5556 335.338 63.4396C335.127 63.3213 334.965 63.1875 334.851 63.0384C334.737 62.8868 334.65 62.7614 334.588 62.6619H334.517V65.5455H333.679ZM334.503 60.7727C334.503 61.1847 334.563 61.5481 334.684 61.8629C334.805 62.1754 334.981 62.4205 335.213 62.598C335.445 62.7732 335.729 62.8608 336.066 62.8608C336.416 62.8608 336.708 62.7685 336.943 62.5838C337.179 62.3968 337.357 62.1458 337.475 61.831C337.596 61.5137 337.656 61.161 337.656 60.7727C337.656 60.3892 337.597 60.0436 337.479 59.7358C337.363 59.4257 337.186 59.1806 336.95 59.0007C336.715 58.8184 336.421 58.7273 336.066 58.7273C335.725 58.7273 335.438 58.8137 335.206 58.9865C334.974 59.157 334.799 59.3961 334.681 59.7038C334.562 60.0092 334.503 60.3655 334.503 60.7727ZM342.145 58.0455V58.7557H339.318V58.0455H342.145ZM340.142 56.7386H340.98V61.9375C340.98 62.1742 341.015 62.3518 341.083 62.4702C341.154 62.5862 341.244 62.6643 341.353 62.7045C341.464 62.7424 341.582 62.7614 341.705 62.7614C341.797 62.7614 341.873 62.7566 341.932 62.7472C341.991 62.7353 342.039 62.7259 342.074 62.7188L342.244 63.4716C342.188 63.4929 342.108 63.5142 342.007 63.5355C341.905 63.5592 341.776 63.571 341.619 63.571C341.383 63.571 341.151 63.5201 340.923 63.4183C340.699 63.3165 340.512 63.1615 340.362 62.9531C340.216 62.7448 340.142 62.482 340.142 62.1648V56.7386ZM343.406 63.5V58.0455H344.244V63.5H343.406ZM343.832 57.1364C343.669 57.1364 343.528 57.0807 343.409 56.9695C343.293 56.8582 343.235 56.7244 343.235 56.5682C343.235 56.4119 343.293 56.2782 343.409 56.1669C343.528 56.0556 343.669 56 343.832 56C343.995 56 344.135 56.0556 344.251 56.1669C344.369 56.2782 344.428 56.4119 344.428 56.5682C344.428 56.7244 344.369 56.8582 344.251 56.9695C344.135 57.0807 343.995 57.1364 343.832 57.1364ZM347.995 63.6136C347.502 63.6136 347.07 63.4964 346.699 63.2621C346.329 63.0277 346.04 62.6998 345.832 62.2784C345.626 61.857 345.523 61.3646 345.523 60.8011C345.523 60.233 345.626 59.737 345.832 59.3132C346.04 58.8894 346.329 58.5604 346.699 58.326C347.07 58.0916 347.502 57.9744 347.995 57.9744C348.487 57.9744 348.918 58.0916 349.287 58.326C349.659 58.5604 349.948 58.8894 350.154 59.3132C350.362 59.737 350.466 60.233 350.466 60.8011C350.466 61.3646 350.362 61.857 350.154 62.2784C349.948 62.6998 349.659 63.0277 349.287 63.2621C348.918 63.4964 348.487 63.6136 347.995 63.6136ZM347.995 62.8608C348.369 62.8608 348.676 62.7649 348.918 62.5732C349.159 62.3814 349.338 62.1293 349.454 61.8168C349.57 61.5043 349.628 61.1657 349.628 60.8011C349.628 60.4366 349.57 60.0968 349.454 59.782C349.338 59.4671 349.159 59.2126 348.918 59.0185C348.676 58.8243 348.369 58.7273 347.995 58.7273C347.621 58.7273 347.313 58.8243 347.071 59.0185C346.83 59.2126 346.651 59.4671 346.535 59.782C346.419 60.0968 346.361 60.4366 346.361 60.8011C346.361 61.1657 346.419 61.5043 346.535 61.8168C346.651 62.1293 346.83 62.3814 347.071 62.5732C347.313 62.7649 347.621 62.8608 347.995 62.8608ZM352.584 60.2188V63.5H351.746V58.0455H352.555V58.8977H352.626C352.754 58.6207 352.948 58.3982 353.209 58.2301C353.469 58.0597 353.805 57.9744 354.217 57.9744C354.586 57.9744 354.91 58.0502 355.187 58.2017C355.464 58.3509 355.679 58.5781 355.833 58.8835C355.987 59.1866 356.064 59.5701 356.064 60.0341V63.5H355.226V60.0909C355.226 59.6624 355.114 59.3286 354.892 59.0895C354.669 58.848 354.364 58.7273 353.976 58.7273C353.708 58.7273 353.469 58.7853 353.258 58.9013C353.05 59.0173 352.885 59.1866 352.765 59.4091C352.644 59.6316 352.584 59.9015 352.584 60.2188ZM362.837 58.0455V58.7557H359.896V58.0455H362.837ZM360.777 63.5V57.2926C360.777 56.9801 360.85 56.7197 360.997 56.5114C361.144 56.303 361.335 56.1468 361.569 56.0426C361.803 55.9384 362.051 55.8864 362.311 55.8864C362.517 55.8864 362.685 55.9029 362.815 55.9361C362.946 55.9692 363.043 56 363.107 56.0284L362.865 56.7528C362.822 56.7386 362.763 56.7209 362.688 56.6996C362.614 56.6783 362.517 56.6676 362.396 56.6676C362.119 56.6676 361.919 56.7375 361.796 56.8771C361.675 57.0168 361.615 57.2216 361.615 57.4915V63.5H360.777ZM366.002 63.6136C365.51 63.6136 365.078 63.4964 364.706 63.2621C364.337 63.0277 364.048 62.6998 363.84 62.2784C363.634 61.857 363.531 61.3646 363.531 60.8011C363.531 60.233 363.634 59.737 363.84 59.3132C364.048 58.8894 364.337 58.5604 364.706 58.326C365.078 58.0916 365.51 57.9744 366.002 57.9744C366.495 57.9744 366.926 58.0916 367.295 58.326C367.667 58.5604 367.956 58.8894 368.162 59.3132C368.37 59.737 368.474 60.233 368.474 60.8011C368.474 61.3646 368.37 61.857 368.162 62.2784C367.956 62.6998 367.667 63.0277 367.295 63.2621C366.926 63.4964 366.495 63.6136 366.002 63.6136ZM366.002 62.8608C366.377 62.8608 366.684 62.7649 366.926 62.5732C367.167 62.3814 367.346 62.1293 367.462 61.8168C367.578 61.5043 367.636 61.1657 367.636 60.8011C367.636 60.4366 367.578 60.0968 367.462 59.782C367.346 59.4671 367.167 59.2126 366.926 59.0185C366.684 58.8243 366.377 58.7273 366.002 58.7273C365.628 58.7273 365.321 58.8243 365.079 59.0185C364.838 59.2126 364.659 59.4671 364.543 59.782C364.427 60.0968 364.369 60.4366 364.369 60.8011C364.369 61.1657 364.427 61.5043 364.543 61.8168C364.659 62.1293 364.838 62.3814 365.079 62.5732C365.321 62.7649 365.628 62.8608 366.002 62.8608ZM370.591 60.2188V63.5H369.753V58.0455H370.563V58.8977H370.634C370.762 58.6207 370.956 58.3982 371.216 58.2301C371.477 58.0597 371.813 57.9744 372.225 57.9744C372.594 57.9744 372.917 58.0502 373.194 58.2017C373.471 58.3509 373.687 58.5781 373.841 58.8835C373.995 59.1866 374.072 59.5701 374.072 60.0341V63.5H373.233V60.0909C373.233 59.6624 373.122 59.3286 372.9 59.0895C372.677 58.848 372.372 58.7273 371.983 58.7273C371.716 58.7273 371.477 58.7853 371.266 58.9013C371.058 59.0173 370.893 59.1866 370.773 59.4091C370.652 59.6316 370.591 59.9015 370.591 60.2188ZM377.975 58.0455V58.7557H375.148V58.0455H377.975ZM375.972 56.7386H376.81V61.9375C376.81 62.1742 376.845 62.3518 376.913 62.4702C376.984 62.5862 377.074 62.6643 377.183 62.7045C377.295 62.7424 377.412 62.7614 377.535 62.7614C377.627 62.7614 377.703 62.7566 377.762 62.7472C377.821 62.7353 377.869 62.7259 377.904 62.7188L378.075 63.4716C378.018 63.4929 377.938 63.5142 377.837 63.5355C377.735 63.5592 377.606 63.571 377.45 63.571C377.213 63.571 376.981 63.5201 376.754 63.4183C376.529 63.3165 376.342 63.1615 376.192 62.9531C376.046 62.7448 375.972 62.482 375.972 62.1648V56.7386Z" fill="#E8178A"/>
</svg>
