<svg width="260" height="56" fill="none" xmlns="http://www.w3.org/2000/svg"><path d="M.9 9.57V.53h1.63V8.2H6.5v1.38H.89Zm8.9.13c-.42 0-.8-.07-1.15-.23a1.9 1.9 0 0 1-.81-.68 2 2 0 0 1-.3-1.12c0-.39.07-.7.21-.95.14-.25.34-.45.58-.6.24-.15.52-.27.82-.34.31-.08.63-.14.96-.18l.97-.1c.24-.04.42-.1.54-.16a.4.4 0 0 0 .17-.34v-.03a1 1 0 0 0-.3-.77c-.2-.18-.48-.28-.85-.28-.39 0-.7.09-.93.26-.23.17-.38.37-.46.6l-1.49-.2A2.38 2.38 0 0 1 9.34 2.9a4.23 4.23 0 0 1 2.27-.1c.32.08.62.21.88.39.27.17.49.4.65.7.16.3.24.68.24 1.13v4.54h-1.53v-.93h-.05a1.95 1.95 0 0 1-1.07.92c-.26.1-.57.14-.92.14Zm.42-1.17c.32 0 .6-.06.84-.19.23-.13.41-.3.54-.51.13-.21.2-.44.2-.7v-.8a.75.75 0 0 1-.26.12l-.4.1a12.19 12.19 0 0 1-.81.12 2.4 2.4 0 0 0-.64.16c-.19.07-.34.17-.45.3-.1.14-.16.3-.16.5 0 .3.1.52.32.67.22.15.49.23.82.23Zm4.84 1.04V.53h1.6v3.38h.06c.09-.16.2-.34.35-.52a1.88 1.88 0 0 1 1.59-.69 2.58 2.58 0 0 1 2.42 1.58c.25.52.38 1.15.38 1.9s-.12 1.38-.37 1.9a2.56 2.56 0 0 1-2.43 1.6 1.97 1.97 0 0 1-1.58-.66 3.03 3.03 0 0 1-.36-.52h-.09v1.07h-1.57Zm1.57-3.4c0 .45.06.83.18 1.16.13.33.31.59.55.77.23.18.52.28.86.28.35 0 .65-.1.89-.29.24-.19.41-.45.54-.78.12-.33.18-.7.18-1.13 0-.42-.06-.8-.18-1.12-.12-.33-.3-.58-.54-.77a1.4 1.4 0 0 0-.89-.28c-.34 0-.63.1-.87.27a1.6 1.6 0 0 0-.54.76c-.12.32-.18.7-.18 1.14Zm9.19 3.53a3.5 3.5 0 0 1-1.76-.42c-.5-.29-.87-.7-1.14-1.21a4.05 4.05 0 0 1-.4-1.85c0-.7.14-1.31.4-1.84a3 3 0 0 1 2.81-1.68c.42 0 .81.07 1.18.2.38.14.7.34 1 .62.28.28.5.64.67 1.07.17.43.25.94.25 1.54v.49h-5.56V5.54h4.03c0-.3-.07-.58-.2-.82a1.44 1.44 0 0 0-.54-.57 1.6 1.6 0 0 0-.8-.2c-.33 0-.62.08-.87.23a1.7 1.7 0 0 0-.57.62c-.14.25-.2.53-.21.84v.94c0 .39.07.73.21 1.01.15.28.35.5.6.64.27.15.57.22.92.22.23 0 .44-.03.63-.1a1.23 1.23 0 0 0 .8-.78l1.5.18a2.54 2.54 0 0 1-1.55 1.71c-.41.16-.88.24-1.4.24ZM31.78.53v9.04h-1.6V.53h1.6Zm10.08 4.05-1.46.16a1.17 1.17 0 0 0-.62-.73 1.48 1.48 0 0 0-.63-.12c-.33 0-.6.08-.84.22-.22.14-.33.33-.33.56 0 .2.07.36.22.48s.4.23.74.3l1.16.25c.64.14 1.11.36 1.43.66.31.3.47.7.47 1.18 0 .42-.13.8-.37 1.13a2.4 2.4 0 0 1-1.02.76c-.44.18-.94.27-1.5.27-.83 0-1.5-.17-2-.52a2.1 2.1 0 0 1-.9-1.46l1.55-.15c.07.3.22.53.45.7.23.15.53.22.9.22s.68-.07.9-.23c.24-.16.36-.35.36-.58a.6.6 0 0 0-.23-.48 1.57 1.57 0 0 0-.69-.29l-1.15-.24a2.75 2.75 0 0 1-1.45-.69 1.68 1.68 0 0 1-.46-1.22c0-.42.11-.78.34-1.09.23-.3.55-.54.97-.71.41-.17.89-.26 1.43-.26.8 0 1.42.17 1.88.5.45.35.74.8.85 1.38Zm1.46 4.99V2.79h1.53v1.15h.07c.15-.39.38-.69.7-.9a2 2 0 0 1 1.18-.34c.45 0 .84.11 1.16.34.31.22.54.52.67.9h.07c.15-.37.4-.67.76-.9.35-.22.78-.34 1.27-.34.62 0 1.13.2 1.53.6.4.39.59.96.59 1.72v4.55h-1.6v-4.3c0-.43-.11-.73-.34-.93-.22-.2-.5-.3-.82-.3-.38 0-.69.13-.9.37-.22.24-.33.55-.33.93v4.23H47.3V5.2c0-.35-.1-.63-.32-.84-.2-.2-.48-.31-.82-.31-.23 0-.44.06-.63.17a1.37 1.37 0 0 0-.61 1.23v4.12h-1.6Z" fill="#333"/><rect x=".44" y="20.66" width="259.11" height="34.61" rx="3.11" fill="#fff"/><path d="M13.77 37.31 10.95 27h1.27l2.16 8.4h.1l2.2-8.4h1.41l2.2 8.4h.1l2.16-8.4h1.27l-2.83 10.3H19.7l-2.28-8.22h-.08l-2.27 8.22h-1.3Zm10.96 0v-7.74h1.15v1.17h.08c.14-.38.4-.7.77-.93.37-.24.78-.36 1.25-.36a13.04 13.04 0 0 1 .62.02v1.2a3.55 3.55 0 0 0-.72-.07c-.38 0-.72.08-1.01.24a1.74 1.74 0 0 0-.95 1.58v4.9h-1.2Zm5.28 0v-7.74h1.2v7.74H30Zm.6-9.03a.85.85 0 0 1-.6-.24.76.76 0 0 1-.24-.57c0-.22.08-.41.25-.57a.85.85 0 0 1 .6-.23c.23 0 .43.07.6.23.16.16.24.35.24.57 0 .22-.08.41-.25.57a.83.83 0 0 1-.6.24Zm6.14 1.29v1h-4.01v-1h4Zm-2.84-1.86h1.19v7.39c0 .33.04.58.14.75.1.17.23.28.38.33.16.06.33.09.5.09l.33-.02.2-.05.24 1.07a2.42 2.42 0 0 1-.89.14 2.4 2.4 0 0 1-.99-.21 1.96 1.96 0 0 1-.8-.66 1.9 1.9 0 0 1-.3-1.12v-7.7Zm7.8 9.77a3.32 3.32 0 0 1-3.18-1.89c-.3-.6-.44-1.3-.44-2.09 0-.8.15-1.49.44-2.1a3.28 3.28 0 0 1 3.06-1.94c.4 0 .8.08 1.19.21a2.96 2.96 0 0 1 1.84 1.85c.2.49.29 1.1.29 1.82v.5h-5.97v-1.02h4.76c0-.44-.09-.83-.26-1.17a1.98 1.98 0 0 0-1.86-1.11 2.2 2.2 0 0 0-2.02 1.25c-.19.38-.28.78-.28 1.2v.7c0 .58.1 1.07.3 1.48a2.25 2.25 0 0 0 2.12 1.24c.32 0 .6-.05.85-.13.26-.1.48-.23.66-.4.19-.19.33-.41.43-.68l1.15.32a2.64 2.64 0 0 1-1.67 1.71c-.42.16-.9.25-1.42.25Zm10.2-4.82v4.65h-1.2V27h1.2v3.79h.1c.17-.4.45-.72.81-.95.37-.24.85-.36 1.46-.36.53 0 1 .1 1.39.32.4.2.7.53.92.96.22.43.33.98.33 1.64v4.92h-1.19v-4.84c0-.61-.16-1.09-.47-1.42a1.7 1.7 0 0 0-1.32-.51c-.4 0-.74.08-1.05.24-.3.17-.55.41-.73.73-.17.31-.26.7-.26 1.15Zm10.44 4.82a3.32 3.32 0 0 1-3.18-1.89c-.29-.6-.43-1.3-.43-2.09 0-.8.14-1.49.43-2.1a3.28 3.28 0 0 1 3.06-1.94c.4 0 .8.08 1.2.21a2.96 2.96 0 0 1 1.84 1.85c.19.49.28 1.1.28 1.82v.5H59.6v-1.02h4.75c0-.44-.08-.83-.26-1.17a1.98 1.98 0 0 0-1.85-1.11c-.48 0-.89.12-1.23.35-.35.23-.61.54-.8.9-.18.38-.27.78-.27 1.2v.7c0 .58.1 1.07.3 1.48.2.4.49.71.85.92a2.7 2.7 0 0 0 2.11.19c.26-.1.48-.23.67-.4.18-.19.32-.41.42-.68l1.15.32c-.12.39-.32.73-.6 1.03-.3.29-.65.52-1.07.68-.42.16-.89.25-1.41.25Zm5.01-.17v-7.74h1.15v1.17h.08c.15-.38.4-.7.77-.93.37-.24.79-.36 1.25-.36a13.03 13.03 0 0 1 .63.02v1.2a3.55 3.55 0 0 0-.73-.07c-.38 0-.71.08-1 .24a1.74 1.74 0 0 0-.95 1.58v4.9h-1.2Zm8.3.17a3.32 3.32 0 0 1-3.18-1.89c-.29-.6-.43-1.3-.43-2.09 0-.8.14-1.49.43-2.1a3.28 3.28 0 0 1 3.06-1.94c.4 0 .8.08 1.2.21a2.96 2.96 0 0 1 1.84 1.85c.19.49.29 1.1.29 1.82v.5H72.9v-1.02h4.76c0-.44-.1-.83-.27-1.17a1.98 1.98 0 0 0-1.85-1.11c-.48 0-.89.12-1.23.35-.35.23-.6.54-.8.9-.18.38-.27.78-.27 1.2v.7c0 .58.1 1.07.3 1.48.2.4.49.71.85.92a2.8 2.8 0 0 0 2.12.19c.25-.1.47-.23.66-.4.18-.19.32-.41.42-.68l1.15.32a2.61 2.61 0 0 1-1.66 1.71c-.42.16-.9.25-1.42.25Z" fill="#757575"/><rect x=".44" y="20.66" width="259.11" height="34.61" rx="3.11" stroke="#545454" stroke-width=".89"/></svg>