<svg width="672" height="224" fill="none" xmlns="http://www.w3.org/2000/svg"><path fill="#F6F6F6" d="M0 .4h672V224H0z"/><path d="m37.22 45.4-3.28-11.64h2.26l2.1 8.55h.1l2.25-8.55h2.06l2.24 8.56h.1l2.1-8.56h2.27L46.14 45.4h-2.08l-2.33-8.17h-.1L39.3 45.4h-2.08Zm15.63-5.11v5.1h-2.06V33.77h2.01v4.4h.1c.2-.5.53-.89.95-1.17.44-.29.98-.43 1.65-.43.6 0 1.14.13 1.59.38.45.25.8.62 1.04 1.11.25.5.38 1.09.38 1.8v5.55h-2.06v-5.24c0-.59-.15-1.04-.45-1.37-.3-.33-.72-.5-1.27-.5-.36 0-.68.09-.97.25a1.6 1.6 0 0 0-.67.67c-.16.3-.24.66-.24 1.08Zm10.27 5.29c-.56 0-1.06-.1-1.5-.3-.44-.2-.79-.5-1.04-.89a2.6 2.6 0 0 1-.39-1.44c0-.5.1-.9.28-1.22.18-.32.43-.58.74-.77.32-.2.67-.34 1.06-.44.4-.1.81-.18 1.24-.22.5-.06.92-.1 1.24-.15.32-.04.55-.1.7-.2a.5.5 0 0 0 .22-.44v-.03c0-.43-.13-.76-.38-1a1.6 1.6 0 0 0-1.1-.35c-.5 0-.9.11-1.2.33-.3.22-.49.48-.6.78l-1.91-.27a3.07 3.07 0 0 1 2.03-2.14 5.44 5.44 0 0 1 2.93-.13c.41.1.8.27 1.14.5.34.22.62.52.82.9.22.4.32.88.32 1.46v5.84h-1.97v-1.2h-.07a2.51 2.51 0 0 1-1.38 1.19c-.33.12-.73.19-1.18.19Zm.53-1.52c.41 0 .77-.08 1.07-.24.3-.17.54-.39.7-.66.17-.27.25-.57.25-.9v-1.02a.97.97 0 0 1-.33.15l-.5.12a15.7 15.7 0 0 1-1.05.16c-.31.04-.59.1-.83.2s-.43.23-.57.4a.97.97 0 0 0-.21.65c0 .37.14.66.41.85.28.2.63.3 1.06.3Zm10.5-7.39v1.6h-5.02v-1.6h5.02Zm-3.78-2.09h2.06v8.2c0 .27.04.48.12.63.09.14.2.24.34.3.14.05.3.08.47.08a2.01 2.01 0 0 0 .6-.08l.35 1.6a4.59 4.59 0 0 1-1.21.2c-.52.02-.98-.05-1.4-.22a2.17 2.17 0 0 1-.98-.81 2.4 2.4 0 0 1-.35-1.36v-8.54Zm11.98 11c-.55 0-1.05-.1-1.5-.3a2.5 2.5 0 0 1-1.04-.89 2.6 2.6 0 0 1-.38-1.44 2.11 2.11 0 0 1 1.02-2c.31-.19.66-.33 1.06-.43.4-.1.8-.18 1.23-.22.51-.06.93-.1 1.25-.15.31-.04.55-.1.69-.2.15-.1.22-.24.22-.44v-.03c0-.43-.13-.76-.38-1-.25-.23-.62-.35-1.1-.35-.5 0-.9.11-1.2.33a1.7 1.7 0 0 0-.59.78l-1.92-.27a3.07 3.07 0 0 1 2.03-2.14 5.44 5.44 0 0 1 2.93-.13c.41.1.8.27 1.14.5.34.22.62.52.83.9.21.4.32.88.32 1.46v5.84h-1.98v-1.2h-.07a2.51 2.51 0 0 1-1.37 1.19 3.6 3.6 0 0 1-1.2.19Zm.53-1.52c.42 0 .77-.08 1.08-.24a1.74 1.74 0 0 0 .95-1.56v-1.02a.97.97 0 0 1-.33.15l-.51.12a15.7 15.7 0 0 1-1.05.16c-.3.04-.58.1-.82.2-.25.1-.44.23-.58.4a.97.97 0 0 0-.2.65c0 .37.13.66.4.85.28.2.64.3 1.06.3Zm6.15 1.34v-8.73h1.99v1.46h.1a2.18 2.18 0 0 1 2.14-1.58 4.74 4.74 0 0 1 .74.05v1.9a3.8 3.8 0 0 0-.95-.12c-.38 0-.71.08-1.01.24a1.79 1.79 0 0 0-.96 1.65v5.13h-2.05Zm9.84.17a4.5 4.5 0 0 1-2.26-.55 3.7 3.7 0 0 1-1.46-1.55 5.21 5.21 0 0 1-.52-2.38c0-.9.18-1.69.52-2.37a3.87 3.87 0 0 1 3.62-2.16c.53 0 1.04.09 1.52.26s.9.44 1.27.8c.37.35.66.81.88 1.37.2.55.31 1.21.31 1.98v.63H95.6v-1.4h5.18c0-.4-.09-.74-.25-1.05a1.89 1.89 0 0 0-1.74-1 2 2 0 0 0-1.1.3c-.32.2-.57.47-.75.8-.17.33-.26.69-.27 1.08v1.2c0 .51.1.95.28 1.31.19.36.45.64.78.83.33.2.72.29 1.17.29.3 0 .57-.04.81-.13.25-.08.46-.21.64-.38.17-.17.3-.37.4-.62l1.92.22c-.12.5-.35.95-.7 1.33-.33.37-.76.66-1.29.87-.53.2-1.13.31-1.8.31Zm10.87 3.1a4.17 4.17 0 0 1-1.34-.21l.48-1.6c.3.08.56.12.8.12.23 0 .44-.08.62-.22s.33-.38.46-.7l.17-.48-3.16-8.9h2.18l2.01 6.58h.1l2.01-6.59h2.19l-3.5 9.79c-.16.46-.38.85-.64 1.18-.27.34-.6.59-1 .76a3.3 3.3 0 0 1-1.38.27Zm11.45-3.1c-.85 0-1.59-.19-2.21-.56a3.82 3.82 0 0 1-1.46-1.58 5.17 5.17 0 0 1-.51-2.36c0-.9.17-1.7.51-2.37.35-.68.83-1.2 1.46-1.58a4.22 4.22 0 0 1 2.21-.56c.85 0 1.6.19 2.22.56.62.38 1.1.9 1.45 1.58.34.68.51 1.47.51 2.37 0 .9-.17 1.69-.51 2.36a3.82 3.82 0 0 1-3.67 2.14Zm.01-1.65c.47 0 .85-.13 1.16-.38.31-.26.54-.6.7-1.03.15-.43.23-.92.23-1.45 0-.53-.08-1.01-.23-1.45a2.29 2.29 0 0 0-.7-1.03c-.3-.26-.7-.4-1.16-.4-.47 0-.86.14-1.18.4-.3.25-.54.6-.7 1.04-.15.43-.22.91-.22 1.44 0 .53.07 1.02.22 1.45.16.43.4.77.7 1.03.32.25.71.38 1.18.38Zm11.48-2.2v-5.05h2.06v8.73h-2v-1.55h-.09c-.2.49-.52.89-.97 1.2-.44.3-1 .46-1.65.46a2.65 2.65 0 0 1-2.54-1.5 3.94 3.94 0 0 1-.37-1.78v-5.56h2.06v5.24c0 .55.15 1 .45 1.32.3.32.7.49 1.2.49a2 2 0 0 0 .88-.22c.28-.15.51-.37.7-.66.18-.3.27-.67.27-1.11Zm8.14-7.96h2.06v9.14c0 .32.05.56.15.7.1.14.27.2.52.2a2.46 2.46 0 0 0 .5-.07l.34 1.56a4.12 4.12 0 0 1-1.11.17c-.84.02-1.45-.16-1.85-.53-.4-.37-.6-.93-.6-1.7v-9.47Zm8.4 11.81c-.85 0-1.59-.19-2.21-.56a3.81 3.81 0 0 1-1.46-1.58 5.17 5.17 0 0 1-.5-2.36c0-.9.16-1.7.5-2.37a3.8 3.8 0 0 1 1.46-1.58 4.23 4.23 0 0 1 2.21-.56c.85 0 1.6.19 2.22.56.62.38 1.1.9 1.45 1.58.34.68.52 1.47.52 2.37 0 .9-.18 1.69-.52 2.36a3.82 3.82 0 0 1-3.67 2.14Zm.01-1.65c.47 0 .85-.13 1.16-.38.31-.26.55-.6.7-1.03.15-.43.23-.92.23-1.45 0-.53-.08-1.01-.23-1.45a2.3 2.3 0 0 0-.7-1.03c-.3-.26-.7-.4-1.16-.4-.47 0-.86.14-1.18.4-.3.25-.54.6-.7 1.04-.15.43-.22.91-.22 1.44 0 .53.07 1.02.22 1.45.16.43.4.77.7 1.03.32.25.71.38 1.18.38Zm9.73 1.65c-.86 0-1.6-.19-2.22-.56-.62-.38-1.1-.9-1.45-1.58a5.17 5.17 0 0 1-.51-2.36c0-.9.17-1.7.5-2.37.35-.68.84-1.2 1.46-1.58a4.23 4.23 0 0 1 2.22-.56c.85 0 1.59.19 2.21.56.63.38 1.11.9 1.45 1.58.35.68.52 1.47.52 2.37 0 .9-.17 1.69-.52 2.36-.34.68-.82 1.2-1.45 1.58-.62.37-1.36.56-2.21.56Zm0-1.65c.47 0 .86-.13 1.17-.38.3-.26.54-.6.7-1.03.15-.43.22-.92.22-1.45a4.2 4.2 0 0 0-.23-1.45 2.3 2.3 0 0 0-.7-1.03c-.3-.26-.69-.4-1.15-.4-.47 0-.87.14-1.18.4-.31.25-.55.6-.7 1.04-.15.43-.23.91-.23 1.44 0 .53.08 1.02.23 1.45.15.43.39.77.7 1.03.31.25.7.38 1.18.38Zm7.8-1.26v-2.48h.32l3.14-3.5h2.4l-3.85 4.29h-.43l-1.58 1.7Zm-1.88 2.74V33.76h2.06V45.4h-2.06Zm5.48 0-2.84-3.97 1.39-1.45 3.91 5.42h-2.46Zm3.63 0v-8.73h2.06v8.73H174Zm1.04-9.97c-.33 0-.6-.1-.84-.32a1.04 1.04 0 0 1-.35-.79c0-.31.11-.57.35-.79.23-.22.51-.33.84-.33.33 0 .6.11.84.33a1.07 1.07 0 0 1 0 1.58c-.23.22-.51.32-.84.32Zm5.2 4.86v5.1h-2.06v-8.72h1.96v1.48h.1c.2-.48.53-.87.97-1.16.44-.29.99-.43 1.64-.43.6 0 1.12.13 1.57.38.45.26.8.64 1.05 1.12.25.5.37 1.09.36 1.78v5.56h-2.05v-5.24c0-.58-.15-1.04-.46-1.37a1.6 1.6 0 0 0-1.24-.5c-.36 0-.68.09-.96.25-.28.15-.5.38-.65.67-.16.3-.24.66-.24 1.08Zm11.48 8.56c-.74 0-1.37-.1-1.9-.3-.53-.2-.96-.46-1.28-.8a2.7 2.7 0 0 1-.67-1.1l1.85-.45c.08.17.2.34.36.5.16.18.38.32.65.43.27.11.61.17 1.03.17.58 0 1.06-.15 1.44-.43.39-.28.58-.74.58-1.39v-1.65h-.1a2.86 2.86 0 0 1-1.27 1.22c-.33.15-.75.22-1.25.22-.67 0-1.27-.15-1.82-.47a3.46 3.46 0 0 1-1.3-1.42 5.25 5.25 0 0 1-.47-2.37c0-.96.16-1.77.48-2.43a3.34 3.34 0 0 1 4.39-1.76c.32.17.59.38.79.62.2.24.34.46.45.68h.11v-1.45h2.03v8.87c0 .75-.18 1.36-.54 1.85a3.2 3.2 0 0 1-1.46 1.1 5.7 5.7 0 0 1-2.1.36Zm.02-5.19c.43 0 .8-.1 1.11-.32.3-.21.54-.51.7-.91.16-.4.24-.88.24-1.43a4 4 0 0 0-.24-1.45 2.06 2.06 0 0 0-.7-.96 1.8 1.8 0 0 0-1.11-.34c-.46 0-.84.12-1.15.35-.3.24-.54.57-.7.99-.15.4-.22.88-.22 1.4 0 .54.07 1 .23 1.4.16.4.39.72.7.94.3.22.69.33 1.14.33Zm14.58-6.99v1.6h-5.16v-1.6h5.16Zm-3.87 8.73v-9.55c0-.59.12-1.08.36-1.47.25-.39.57-.68.99-.87.41-.2.87-.3 1.37-.3a4.74 4.74 0 0 1 1.57.25l-.41 1.59a3.53 3.53 0 0 0-.78-.13c-.38 0-.65.1-.8.28-.16.18-.24.44-.24.78v9.42h-2.06Zm8.96.17c-.86 0-1.6-.19-2.22-.56a3.82 3.82 0 0 1-1.46-1.58 5.19 5.19 0 0 1-.5-2.36c0-.9.16-1.7.5-2.37.35-.68.83-1.2 1.46-1.58a4.23 4.23 0 0 1 2.22-.56 3.82 3.82 0 0 1 3.66 2.14c.34.68.52 1.47.52 2.37 0 .9-.18 1.69-.52 2.36-.34.68-.82 1.2-1.45 1.58-.62.37-1.36.56-2.22.56Zm0-1.65c.47 0 .85-.13 1.16-.38.32-.26.55-.6.7-1.03.15-.43.23-.92.23-1.45 0-.53-.08-1.01-.23-1.45a2.3 2.3 0 0 0-.7-1.03c-.3-.26-.7-.4-1.15-.4-.48 0-.87.14-1.19.4-.3.25-.54.6-.7 1.04-.15.43-.22.91-.22 1.44 0 .53.07 1.02.23 1.45.15.43.38.77.7 1.03.3.25.7.38 1.18.38Zm5.92 1.48v-8.73h2v1.46h.09a2.17 2.17 0 0 1 2.15-1.58 4.73 4.73 0 0 1 .74.05v1.9a3.81 3.81 0 0 0-.96-.12c-.37 0-.7.08-1 .24a1.78 1.78 0 0 0-.96 1.65v5.13h-2.06Zm8.31-3.42v-.15c0-.68.07-1.23.2-1.64.12-.4.3-.73.54-.97.24-.25.52-.48.86-.69.23-.14.44-.3.62-.47.18-.18.33-.37.44-.58.1-.22.16-.46.16-.72a1.4 1.4 0 0 0-.78-1.3 1.7 1.7 0 0 0-.8-.17 1.58 1.58 0 0 0-1.36.69c-.15.24-.24.53-.26.89h-2.02c.02-.72.2-1.33.52-1.81a3.1 3.1 0 0 1 1.32-1.1 4.45 4.45 0 0 1 1.82-.36c.72 0 1.36.13 1.9.38a2.93 2.93 0 0 1 1.76 2.74 2.8 2.8 0 0 1-.8 2.07c-.25.27-.55.5-.9.72-.3.19-.56.38-.75.59-.2.2-.34.44-.43.72-.1.27-.14.6-.15 1.01v.15h-1.89Zm1 3.54c-.35 0-.64-.12-.89-.36a1.2 1.2 0 0 1-.37-.89c0-.34.12-.63.37-.87s.54-.36.88-.36c.34 0 .63.12.88.36s.37.53.37.87a1.31 1.31 0 0 1-.63 1.09c-.19.1-.4.16-.62.16Z" fill="#1F1F1F"/><rect x="187.5" y="71.22" width="144.54" height="120.28" rx="3.5" fill="#fff" stroke="#EBEBEB"/><path d="M230.8 103.37h-2.24l4.1-11.64h2.6l4.1 11.64h-2.25l-3.1-9.25h-.1l-3.1 9.25Zm.08-4.56h6.14v1.7h-6.14v-1.7Zm21.31-7.08h2.11v7.6a3.99 3.99 0 0 1-2.24 3.68c-.7.36-1.53.54-2.48.54s-1.78-.18-2.49-.53a4 4 0 0 1-1.65-1.48 4.1 4.1 0 0 1-.58-2.2v-7.6h2.1v7.42a2.4 2.4 0 0 0 1.23 2.19c.4.21.86.32 1.4.32.53 0 .99-.11 1.38-.32a2.47 2.47 0 0 0 1.22-2.19v-7.43Zm11.21 5.22-1.87.2a1.51 1.51 0 0 0-.28-.53c-.13-.17-.3-.3-.52-.4a1.9 1.9 0 0 0-.81-.16c-.43 0-.79.1-1.08.28-.29.19-.43.43-.43.72 0 .26.1.46.28.62.2.16.51.3.96.4l1.48.31a3.8 3.8 0 0 1 1.85.85c.4.39.6.9.6 1.52 0 .55-.16 1.03-.47 1.45a3.1 3.1 0 0 1-1.32.98c-.56.23-1.2.35-1.93.35a4.48 4.48 0 0 1-2.58-.67 2.7 2.7 0 0 1-1.16-1.88l2-.2c.1.4.29.7.58.9.3.2.68.3 1.16.3.48 0 .88-.1 1.17-.3.3-.2.45-.45.45-.75 0-.25-.1-.45-.29-.61a2.02 2.02 0 0 0-.88-.38l-1.5-.31a3.54 3.54 0 0 1-1.85-.88 2.2 2.2 0 0 1-.6-1.58c0-.54.14-1 .44-1.4.3-.4.71-.7 1.24-.92a4.83 4.83 0 0 1 1.85-.33c1.02 0 1.83.22 2.42.65.59.44.95 1.03 1.1 1.77Zm5.75 6.6a4.5 4.5 0 0 1-2.27-.55 3.7 3.7 0 0 1-1.46-1.56 5.22 5.22 0 0 1-.51-2.38c0-.9.17-1.69.51-2.37a3.87 3.87 0 0 1 3.62-2.16c.54 0 1.05.09 1.52.26a3.59 3.59 0 0 1 2.15 2.17c.21.55.32 1.21.32 1.98v.63h-7.15v-1.39h5.18c0-.4-.1-.74-.26-1.05-.17-.3-.4-.55-.7-.73-.3-.18-.64-.27-1.03-.27a2 2 0 0 0-1.1.3 2.22 2.22 0 0 0-1.02 1.88v1.2c0 .52.1.95.28 1.31.18.37.44.64.78.83.33.2.72.29 1.17.29.3 0 .57-.04.8-.13a1.65 1.65 0 0 0 1.04-1l1.92.22a3 3 0 0 1-.69 1.33c-.34.37-.77.67-1.3.87-.52.2-1.12.31-1.8.31Zm5.62-.18v-8.73h2v1.46h.08a2.17 2.17 0 0 1 2.16-1.58 4.72 4.72 0 0 1 .74.05v1.9a3.83 3.83 0 0 0-.95-.12c-.38 0-.72.08-1.02.24a1.78 1.78 0 0 0-.95 1.65v5.13h-2.06Zm8.35-11.64v1.16c0 .34-.06.68-.19 1.04a4.5 4.5 0 0 1-1.27 1.86l-.95-.62c.2-.32.39-.66.54-1.02.16-.37.24-.78.24-1.25v-1.17h1.63Zm7.44 5.22-1.88.2a1.52 1.52 0 0 0-.28-.53c-.13-.17-.3-.3-.52-.4a1.9 1.9 0 0 0-.8-.16c-.43 0-.8.1-1.08.28-.3.19-.44.43-.43.72 0 .26.09.46.28.62.19.16.5.3.95.4l1.49.31c.83.18 1.44.46 1.84.85.4.39.61.9.62 1.52 0 .55-.17 1.03-.49 1.45a3.1 3.1 0 0 1-1.31.98c-.56.23-1.2.35-1.93.35a4.48 4.48 0 0 1-2.58-.67 2.7 2.7 0 0 1-1.17-1.88l2-.2c.1.4.3.7.59.9.3.2.68.3 1.15.3.5 0 .88-.1 1.18-.3.3-.2.45-.45.45-.75 0-.25-.1-.45-.3-.61a2.02 2.02 0 0 0-.88-.38l-1.49-.31a3.54 3.54 0 0 1-1.86-.88 2.2 2.2 0 0 1-.6-1.58c0-.54.15-1 .44-1.4.3-.4.72-.7 1.25-.92a4.82 4.82 0 0 1 1.85-.33 4 4 0 0 1 2.41.65c.6.44.96 1.03 1.1 1.77ZM218 118.93c-.05-.5-.27-.88-.67-1.16-.39-.27-.9-.41-1.52-.41-.44 0-.82.06-1.13.2-.32.13-.56.31-.72.54a1.3 1.3 0 0 0-.1 1.4c.12.19.27.34.47.46.19.12.4.23.64.3.23.1.47.16.7.22l1.1.27a7 7 0 0 1 1.27.42c.4.17.77.39 1.1.66a2.8 2.8 0 0 1 1.05 2.27 3.16 3.16 0 0 1-2.03 3.02 5.9 5.9 0 0 1-2.38.43c-.91 0-1.7-.14-2.36-.42a3.5 3.5 0 0 1-1.56-1.23 3.64 3.64 0 0 1-.6-1.97h2.07c.03.4.16.74.38 1.01s.5.47.85.6c.36.14.76.2 1.2.2.46 0 .86-.06 1.2-.2.35-.14.62-.33.82-.58.2-.25.3-.54.3-.87 0-.3-.1-.56-.27-.75-.17-.2-.41-.37-.73-.5a7.14 7.14 0 0 0-1.09-.37l-1.32-.34a5.34 5.34 0 0 1-2.28-1.12 2.58 2.58 0 0 1-.83-2 3 3 0 0 1 .56-1.8c.38-.52.89-.92 1.53-1.2a5.3 5.3 0 0 1 2.19-.44c.82 0 1.55.15 2.17.44a3.6 3.6 0 0 1 1.47 1.18c.35.5.54 1.09.55 1.74H218Zm9.54 4.77v-5.06h2.06v8.73h-2v-1.55h-.09c-.2.49-.52.89-.97 1.2-.45.3-1 .46-1.65.46a2.64 2.64 0 0 1-2.54-1.5 3.96 3.96 0 0 1-.37-1.78v-5.56h2.05v5.24c0 .56.16 1 .46 1.32.3.33.7.49 1.2.49a1.88 1.88 0 0 0 1.57-.88c.19-.3.28-.67.28-1.11Zm4.26 3.67v-11.64h2.06v4.36h.09c.1-.22.25-.44.44-.68.2-.24.46-.45.79-.62a2.7 2.7 0 0 1 1.26-.26 3.33 3.33 0 0 1 3.12 2.03c.32.67.48 1.49.48 2.46 0 .96-.16 1.77-.47 2.44a3.58 3.58 0 0 1-1.28 1.54 3.3 3.3 0 0 1-1.84.52 2.54 2.54 0 0 1-2.04-.85c-.2-.24-.36-.46-.47-.67h-.11v1.37h-2.03Zm2.02-4.36c0 .56.08 1.05.24 1.48.16.42.4.76.7 1 .3.23.68.35 1.11.35.46 0 .84-.13 1.14-.37.31-.24.54-.58.7-1 .16-.43.24-.92.24-1.46 0-.55-.08-1.03-.24-1.45a2.16 2.16 0 0 0-.7-.98c-.3-.24-.68-.36-1.14-.36-.44 0-.81.11-1.12.34-.3.23-.54.56-.7.97-.15.42-.23.91-.23 1.48Zm14.87-2.06-1.88.2a1.52 1.52 0 0 0-.28-.53c-.12-.17-.3-.3-.52-.4-.22-.1-.49-.16-.8-.16-.43 0-.8.1-1.08.28-.3.19-.43.43-.43.72 0 .26.09.46.28.62.2.16.5.3.95.4l1.5.31c.82.18 1.43.46 1.83.85.4.39.61.9.62 1.52 0 .55-.17 1.03-.49 1.45a3.1 3.1 0 0 1-1.31.98c-.56.23-1.2.35-1.93.35a4.48 4.48 0 0 1-2.58-.67 2.7 2.7 0 0 1-1.17-1.88l2.01-.2c.1.4.28.7.58.9.3.2.68.3 1.15.3.5 0 .88-.1 1.18-.3.3-.2.45-.45.45-.75 0-.25-.1-.45-.3-.61a2.02 2.02 0 0 0-.88-.38l-1.49-.31a3.54 3.54 0 0 1-1.86-.88 2.2 2.2 0 0 1-.6-1.58c0-.54.15-1 .45-1.4.3-.4.71-.7 1.24-.92a4.82 4.82 0 0 1 1.85-.33 4 4 0 0 1 2.41.65c.6.44.96 1.03 1.1 1.77Zm5.69 6.6a3.84 3.84 0 0 1-3.68-2.16 5.23 5.23 0 0 1-.5-2.35c0-.89.17-1.67.5-2.35.35-.68.83-1.2 1.45-1.59a4.17 4.17 0 0 1 2.22-.57c.7 0 1.33.13 1.88.4a3.22 3.22 0 0 1 1.87 2.74h-1.97a1.87 1.87 0 0 0-.57-1.06c-.3-.28-.69-.42-1.18-.42-.42 0-.8.11-1.11.34-.32.22-.57.55-.75.97-.17.42-.26.92-.26 1.5 0 .6.09 1.11.26 1.54.18.42.42.75.74.98.31.23.69.34 1.12.34a1.71 1.71 0 0 0 1.75-1.47h1.97a3.24 3.24 0 0 1-1.83 2.76 4.3 4.3 0 0 1-1.91.4Zm5.43-.18v-8.73h1.99v1.46h.1a2.18 2.18 0 0 1 2.14-1.58 4.92 4.92 0 0 1 .74.06v1.89a3.9 3.9 0 0 0-.95-.12c-.38 0-.71.08-1.01.24a1.79 1.79 0 0 0-.96 1.65v5.13h-2.05Zm6.34 0v-8.73h2.06v8.73h-2.06Zm1.03-9.97c-.32 0-.6-.1-.84-.32a1.04 1.04 0 0 1-.35-.79c0-.31.12-.57.35-.79.24-.22.52-.33.84-.33.33 0 .61.11.85.33a1.06 1.06 0 0 1 0 1.58 1.2 1.2 0 0 1-.85.32Zm3.14 13.24v-12h2.02v1.45h.12c.11-.22.26-.44.45-.68.2-.24.46-.45.79-.62a3.33 3.33 0 0 1 4.38 1.77c.32.67.48 1.49.48 2.46 0 .96-.16 1.77-.47 2.44a3.3 3.3 0 0 1-3.13 2.06 2.54 2.54 0 0 1-2.04-.85c-.2-.24-.35-.46-.46-.67h-.08v4.64h-2.06Zm2.02-7.63c0 .56.08 1.05.24 1.48.16.42.4.76.7 1 .3.23.67.35 1.11.35.45 0 .84-.13 1.14-.37.3-.24.54-.58.7-1 .15-.43.23-.92.23-1.46 0-.55-.07-1.03-.23-1.45a2.18 2.18 0 0 0-.7-.98c-.3-.24-.68-.36-1.14-.36-.44 0-.81.11-1.12.34-.3.23-.54.56-.7.97-.15.42-.23.91-.23 1.48Zm12.34-4.37v1.6h-5.02v-1.6h5.02Zm-3.78-2.09h2.06v8.2c0 .27.04.48.12.63.09.15.2.24.34.3.14.05.3.08.47.08a2 2 0 0 0 .6-.08l.35 1.6a4.44 4.44 0 0 1-1.21.21c-.52.02-.98-.06-1.4-.23a2.18 2.18 0 0 1-.98-.81 2.4 2.4 0 0 1-.35-1.36v-8.54Zm5.5 10.82v-8.73h2.06v8.73h-2.06Zm1.03-9.97c-.32 0-.6-.1-.84-.32a1.04 1.04 0 0 1-.35-.79c0-.31.12-.57.35-.79.24-.22.52-.33.84-.33.33 0 .61.11.85.33a1.06 1.06 0 0 1 0 1.58 1.2 1.2 0 0 1-.85.32Zm6.95 10.14c-.85 0-1.6-.19-2.22-.56a3.82 3.82 0 0 1-1.45-1.58 5.17 5.17 0 0 1-.51-2.36c0-.9.17-1.7.5-2.37.35-.68.84-1.2 1.46-1.58a4.22 4.22 0 0 1 2.22-.56c.85 0 1.59.19 2.21.56.63.38 1.11.9 1.45 1.58.35.68.52 1.47.52 2.37 0 .9-.17 1.69-.52 2.36-.34.68-.82 1.2-1.45 1.58-.62.37-1.36.56-2.21.56Zm.01-1.65c.46 0 .85-.12 1.16-.38.31-.26.54-.6.7-1.03a4.41 4.41 0 0 0-.01-2.89 2.3 2.3 0 0 0-.7-1.04 1.7 1.7 0 0 0-1.15-.39c-.47 0-.87.13-1.18.39-.31.25-.55.6-.7 1.04-.15.43-.23.91-.23 1.44 0 .53.08 1.02.23 1.45.15.43.39.77.7 1.03.31.26.7.38 1.18.38Zm7.97-3.63v5.11h-2.05v-8.73h1.96v1.49h.1c.2-.5.52-.88.96-1.17.45-.29 1-.43 1.65-.43.6 0 1.12.13 1.57.39.45.25.8.63 1.05 1.11.25.5.37 1.09.37 1.78v5.56h-2.06v-5.24c0-.58-.15-1.04-.46-1.37a1.6 1.6 0 0 0-1.24-.5c-.36 0-.68.09-.96.25-.28.15-.5.38-.65.67-.16.3-.24.66-.24 1.08Z" fill="#545454"/><path d="M211.9 141.73c-.06-.5-.3-.9-.72-1.17a2.78 2.78 0 0 0-1.56-.42c-.46 0-.85.08-1.19.22-.33.15-.6.35-.78.6a1.45 1.45 0 0 0-.09 1.57c.13.2.3.36.5.49.22.12.43.23.66.31l.62.2 1.03.27c.27.07.56.17.89.3.32.11.64.28.94.5a2.32 2.32 0 0 1 1.04 2.01c0 .55-.15 1.04-.44 1.49-.28.44-.7.8-1.25 1.06a4.6 4.6 0 0 1-2 .39c-.72 0-1.36-.12-1.89-.35a2.8 2.8 0 0 1-1.77-2.45h1.28c.03.38.16.7.39.95s.51.43.86.56a3.51 3.51 0 0 0 2.4-.05c.38-.16.67-.37.9-.65.21-.28.32-.6.32-.97 0-.34-.1-.62-.28-.83a2.08 2.08 0 0 0-.75-.52 6.5 6.5 0 0 0-1-.34l-1.25-.36a4.67 4.67 0 0 1-1.89-.98c-.46-.43-.7-.98-.7-1.67 0-.57.16-1.06.47-1.49.3-.43.73-.76 1.25-1a4.24 4.24 0 0 1 1.77-.35c.65 0 1.24.12 1.75.35.5.23.91.55 1.2.96.31.4.47.86.48 1.37h-1.19Zm6.4 7.8a3.6 3.6 0 0 1-1.9-.49 3.27 3.27 0 0 1-1.23-1.37 4.68 4.68 0 0 1-.42-2.06c0-.78.14-1.47.42-2.07.3-.6.7-1.06 1.2-1.4a3.63 3.63 0 0 1 2.99-.3 2.91 2.91 0 0 1 1.82 1.81 5 5 0 0 1 .29 1.8v.5h-5.89v-1.01h4.7c0-.44-.1-.82-.27-1.16a1.94 1.94 0 0 0-1.82-1.1c-.47 0-.88.13-1.22.36-.34.22-.6.52-.78.9a2.6 2.6 0 0 0-.27 1.18v.67c0 .58.1 1.07.3 1.47.2.4.48.7.84.9.35.21.77.31 1.24.31.31 0 .6-.04.84-.12.25-.1.47-.23.65-.4.18-.18.32-.4.42-.67l1.14.32a2.5 2.5 0 0 1-.6 1.02c-.29.28-.63.5-1.05.67-.41.16-.88.24-1.4.24Zm7.2.02c-.49 0-.93-.1-1.32-.27-.4-.19-.7-.46-.94-.8a2.25 2.25 0 0 1-.35-1.28c0-.44.09-.79.26-1.06.17-.28.4-.5.7-.65.28-.15.6-.27.95-.35.35-.07.7-.14 1.06-.18l1.13-.14c.29-.03.5-.09.63-.16.14-.08.2-.21.2-.4v-.04c0-.5-.13-.87-.4-1.14-.26-.28-.67-.41-1.2-.41a2.07 2.07 0 0 0-2 1.15l-1.1-.4a2.67 2.67 0 0 1 1.88-1.63 4.55 4.55 0 0 1 2.02-.07c.32.06.63.18.93.36.3.18.55.45.75.8.2.37.3.85.3 1.46v5.03h-1.18v-1.03h-.06a2.3 2.3 0 0 1-1.14 1.01c-.3.13-.68.2-1.12.2Zm.18-1.06c.46 0 .85-.09 1.17-.27a1.86 1.86 0 0 0 .97-1.61v-1.08c-.04.06-.15.12-.32.17a5.52 5.52 0 0 1-1.21.21 24 24 0 0 0-.5.06c-.3.04-.58.1-.85.2-.26.08-.47.21-.63.39a1 1 0 0 0-.24.7c0 .41.15.72.45.93.3.2.69.3 1.16.3Zm5.46.88v-7.64h1.13v1.16h.08c.14-.38.4-.69.76-.92.36-.24.77-.35 1.23-.35a10.39 10.39 0 0 1 .62.01v1.2a3.47 3.47 0 0 0-.72-.08c-.37 0-.7.08-1 .23a1.71 1.71 0 0 0-.94 1.56v4.83h-1.16Zm8.08.16a3.3 3.3 0 0 1-1.85-.5 3.3 3.3 0 0 1-1.2-1.4 4.74 4.74 0 0 1-.41-2.04c0-.77.14-1.46.43-2.05a3.23 3.23 0 0 1 3.01-1.9c.54 0 1.02.1 1.45.3a2.6 2.6 0 0 1 1.57 2.09h-1.17a1.78 1.78 0 0 0-1.83-1.33 1.9 1.9 0 0 0-1.2.35c-.35.23-.61.56-.8 1a3.7 3.7 0 0 0-.29 1.5c0 .6.1 1.1.28 1.54.19.44.45.78.8 1.02.34.24.75.36 1.2.36.31 0 .59-.05.84-.15a1.71 1.71 0 0 0 1-1.18h1.17a2.71 2.71 0 0 1-1.52 2.08c-.42.2-.92.3-1.48.3Zm5.89-4.75v4.59h-1.17v-10.18h1.17v3.74h.1c.18-.4.45-.71.8-.94a2.6 2.6 0 0 1 1.45-.36c.52 0 .97.1 1.36.32.4.2.7.52.91.95.22.42.33.96.33 1.62v4.85h-1.17v-4.77c0-.6-.16-1.08-.47-1.4a1.7 1.7 0 0 0-1.3-.51c-.39 0-.73.08-1.04.24-.3.16-.54.4-.71.71-.17.32-.26.7-.26 1.14Zm11.2 4.59v-10.18h1.17v3.76h.1c.08-.14.2-.3.36-.51.15-.2.37-.4.66-.56.3-.16.69-.25 1.19-.25a3.02 3.02 0 0 1 2.84 1.85c.28.6.42 1.29.42 2.1 0 .8-.14 1.5-.42 2.1a2.98 2.98 0 0 1-2.83 1.85c-.49 0-.88-.08-1.17-.24-.3-.17-.53-.36-.69-.57a7.88 7.88 0 0 1-.36-.52h-.14v1.17h-1.13Zm1.15-3.82c0 .58.08 1.09.25 1.53.17.44.42.78.74 1.03.33.24.73.36 1.2.36.49 0 .9-.12 1.22-.38.33-.26.58-.62.75-1.06.17-.44.25-.93.25-1.48a3.9 3.9 0 0 0-.25-1.45c-.16-.43-.4-.78-.74-1.03a1.96 1.96 0 0 0-1.23-.38 1.96 1.96 0 0 0-1.94 1.37 4 4 0 0 0-.25 1.5Zm7.86 6.68a2.58 2.58 0 0 1-.85-.13l.3-1.04c.28.07.53.1.75.08a.9.9 0 0 0 .58-.3c.18-.16.33-.45.48-.83l.22-.6-2.83-7.68h1.27l2.11 6.09h.08l2.1-6.09h1.28l-3.24 8.75c-.15.4-.33.73-.54.98-.22.26-.47.46-.75.58-.28.13-.6.2-.96.2Zm16.7-10.5c-.05-.5-.3-.9-.72-1.17a2.78 2.78 0 0 0-1.56-.42c-.45 0-.85.08-1.19.22-.33.15-.6.35-.78.6a1.44 1.44 0 0 0-.08 1.57c.13.2.3.36.5.49.2.12.42.23.65.31l.62.2 1.03.27c.27.07.56.17.89.3.33.11.64.28.94.5a2.32 2.32 0 0 1 1.04 2.01c0 .55-.15 1.04-.44 1.49-.28.44-.7.8-1.25 1.06a4.6 4.6 0 0 1-2 .39 4.8 4.8 0 0 1-1.89-.35 2.8 2.8 0 0 1-1.76-2.45h1.27c.03.38.16.7.39.95s.52.43.87.56a3.51 3.51 0 0 0 2.4-.05c.37-.16.67-.37.89-.65.22-.28.32-.6.32-.97 0-.34-.09-.62-.28-.83a2.07 2.07 0 0 0-.75-.52 6.5 6.5 0 0 0-1-.34l-1.25-.36a4.67 4.67 0 0 1-1.89-.98c-.46-.43-.7-.98-.7-1.67 0-.57.16-1.06.47-1.49a3.1 3.1 0 0 1 1.25-1 4.24 4.24 0 0 1 1.77-.35c.65 0 1.24.12 1.75.35.5.23.91.55 1.21.96.3.4.46.86.48 1.37h-1.2Zm6.53 0v1h-3.96v-1h3.96Zm-2.8-1.83h1.17v7.28c0 .33.04.58.14.75.1.16.23.27.38.33a1.98 1.98 0 0 0 1 .02l.25 1.05a2.6 2.6 0 0 1-1.85-.07 1.95 1.95 0 0 1-.79-.66 1.9 1.9 0 0 1-.3-1.1v-7.6Zm4.56 9.47v-7.64h1.13v1.16h.08c.14-.38.4-.69.76-.92a2.2 2.2 0 0 1 1.23-.35 10.33 10.33 0 0 1 .62.01v1.2a3.47 3.47 0 0 0-.72-.08c-.37 0-.7.08-.99.23a1.72 1.72 0 0 0-.94 1.56v4.83h-1.17Zm5.21 0v-7.64h1.17v7.64h-1.17Zm.6-8.9a.83.83 0 0 1-.6-.24.75.75 0 0 1-.24-.56c0-.22.08-.41.25-.57a.83.83 0 0 1 .59-.23c.23 0 .42.08.58.23.17.16.25.35.25.57 0 .22-.08.4-.25.56a.82.82 0 0 1-.58.23Zm2.72 11.76v-10.5h1.14v1.22h.14c.08-.14.2-.3.35-.51.16-.2.38-.4.67-.56.3-.16.69-.25 1.18-.25a3.02 3.02 0 0 1 2.85 1.85c.28.6.41 1.29.41 2.1 0 .8-.13 1.5-.4 2.1a2.98 2.98 0 0 1-2.83 1.85c-.5 0-.89-.08-1.18-.24a2.2 2.2 0 0 1-.69-.57 7.46 7.46 0 0 1-.36-.52h-.1v4.03h-1.18Zm1.16-6.68c0 .58.08 1.09.25 1.53.17.44.42.78.74 1.03.32.24.72.36 1.2.36s.9-.12 1.22-.38c.33-.26.58-.62.75-1.06.17-.44.25-.93.25-1.48a3.9 3.9 0 0 0-.25-1.45c-.16-.43-.4-.78-.74-1.03a1.96 1.96 0 0 0-1.24-.38 1.95 1.95 0 0 0-1.94 1.37c-.16.42-.24.92-.24 1.5Zm10.58 3.98a3.26 3.26 0 0 1-3.13-1.86 4.68 4.68 0 0 1-.43-2.06c0-.78.14-1.47.42-2.07.3-.6.7-1.06 1.2-1.4a3.64 3.64 0 0 1 2.99-.3 2.91 2.91 0 0 1 1.82 1.81 5 5 0 0 1 .29 1.8v.5h-5.89v-1.01h4.7c0-.44-.1-.82-.26-1.16a1.94 1.94 0 0 0-1.83-1.1c-.47 0-.88.13-1.22.36-.34.22-.6.52-.78.9a2.6 2.6 0 0 0-.27 1.18v.67c0 .58.1 1.07.3 1.47.2.4.48.7.84.9.36.21.77.31 1.25.31.3 0 .58-.04.83-.12.25-.1.47-.23.65-.4.19-.18.32-.4.43-.67l1.13.32a2.5 2.5 0 0 1-.6 1.02c-.28.28-.63.5-1.05.67-.41.16-.88.24-1.4.24Zm-87.67 10.66v10.18h-1.24v-10.18h1.24Zm5.61 10.18h-3.14v-10.18h3.28c.99 0 1.83.2 2.54.61a4 4 0 0 1 1.61 1.74c.38.76.56 1.67.56 2.72 0 1.06-.19 1.97-.56 2.74a4.04 4.04 0 0 1-1.65 1.76c-.73.4-1.6.61-2.64.61Zm-1.9-1.1h1.82c.84 0 1.54-.16 2.1-.48a3 3 0 0 0 1.23-1.39c.27-.6.41-1.31.41-2.14 0-.82-.13-1.53-.4-2.12a2.96 2.96 0 0 0-1.2-1.38 3.8 3.8 0 0 0-2-.48h-1.97v8Zm15.7 1.26a3.2 3.2 0 0 1-1.81-.5 3.34 3.34 0 0 1-1.22-1.37 4.66 4.66 0 0 1-.43-2.07c0-.8.15-1.49.43-2.08a3.3 3.3 0 0 1 3.03-1.88 3.25 3.25 0 0 1 3.03 1.88c.29.6.43 1.29.43 2.08 0 .8-.14 1.48-.44 2.07a3.3 3.3 0 0 1-1.2 1.38 3.3 3.3 0 0 1-1.82.49Zm0-1.06c.53 0 .96-.13 1.3-.4.33-.27.58-.62.75-1.06.16-.43.24-.9.24-1.42 0-.5-.08-.98-.25-1.43a2.4 2.4 0 0 0-.75-1.06 2 2 0 0 0-1.29-.41 2 2 0 0 0-1.3.4 2.4 2.4 0 0 0-.74 1.07 4.21 4.21 0 0 0 0 2.85c.16.44.41.8.75 1.06.34.27.77.4 1.3.4Zm5.25.9v-7.64h1.14v1.16h.08c.14-.38.39-.69.75-.92.37-.24.78-.35 1.24-.35a10.33 10.33 0 0 1 .61.01v1.2a3.47 3.47 0 0 0-.71-.08c-.38 0-.7.08-1 .23a1.71 1.71 0 0 0-.93 1.56v4.83h-1.18Zm14.88-7.64c-.06-.5-.3-.9-.73-1.17a2.78 2.78 0 0 0-1.56-.42c-.45 0-.85.08-1.18.22-.34.15-.6.35-.79.6a1.45 1.45 0 0 0-.08 1.57c.13.2.3.36.5.49.2.12.43.23.65.31l.62.2 1.04.27c.26.07.56.17.88.3.33.11.64.28.94.5a2.32 2.32 0 0 1 1.04 2.01 2.76 2.76 0 0 1-1.69 2.55 4.6 4.6 0 0 1-1.99.39 4.8 4.8 0 0 1-1.9-.35 2.82 2.82 0 0 1-1.77-2.45h1.28c.04.38.17.7.4.95.22.25.5.43.86.56a3.5 3.5 0 0 0 2.4-.05c.37-.16.67-.37.89-.65.22-.28.33-.6.33-.97 0-.34-.1-.62-.29-.83a2.08 2.08 0 0 0-.74-.52 6.9 6.9 0 0 0-1-.34l-1.25-.36a4.67 4.67 0 0 1-1.9-.98 2.17 2.17 0 0 1-.69-1.67c0-.57.15-1.06.46-1.49a3.1 3.1 0 0 1 1.25-1 4.24 4.24 0 0 1 1.77-.35c.66 0 1.24.12 1.75.35.51.23.92.55 1.21.96.3.4.46.86.48 1.37h-1.2Zm8.01 4.52v-4.52h1.17v7.64h-1.17v-1.3h-.08a2.4 2.4 0 0 1-2.27 1.4c-.47 0-.9-.1-1.27-.31a2.2 2.2 0 0 1-.87-.96 3.63 3.63 0 0 1-.32-1.61v-4.86h1.17v4.78c0 .55.16 1 .47 1.33.31.33.71.5 1.2.5a2 2 0 0 0 1.97-2.1Zm3.48 3.12v-10.18h1.18v3.76h.1c.08-.14.2-.3.35-.51a2.1 2.1 0 0 1 1.85-.8 3.03 3.03 0 0 1 2.85 1.84c.28.6.41 1.29.41 2.1 0 .8-.13 1.5-.41 2.1a2.99 2.99 0 0 1-2.83 1.85 2.5 2.5 0 0 1-1.18-.24c-.3-.17-.52-.36-.68-.57a7.52 7.52 0 0 1-.37-.52h-.13v1.17h-1.14Zm1.16-3.82c0 .58.08 1.09.25 1.53.17.44.41.78.74 1.03.32.24.72.36 1.2.36s.9-.12 1.22-.38c.33-.26.58-.62.75-1.06.17-.44.25-.93.25-1.48a3.9 3.9 0 0 0-.25-1.45c-.16-.43-.4-.78-.74-1.03a1.96 1.96 0 0 0-1.24-.38 1.96 1.96 0 0 0-1.94 1.37c-.16.42-.24.92-.24 1.5Zm12.7-6.36v10.18h-1.23v-10.18h1.24Zm5.62 10.18h-3.14v-10.18h3.28c.99 0 1.83.2 2.54.61a4 4 0 0 1 1.61 1.74c.38.76.56 1.67.56 2.72 0 1.06-.19 1.97-.56 2.74a4.04 4.04 0 0 1-1.65 1.76c-.73.4-1.6.61-2.64.61Zm-1.9-1.1h1.82c.84 0 1.54-.16 2.1-.48a3 3 0 0 0 1.23-1.39c.27-.6.41-1.31.41-2.14 0-.82-.13-1.53-.4-2.12a2.97 2.97 0 0 0-1.2-1.38 3.8 3.8 0 0 0-2-.48h-1.97v8Z" fill="#757575"/><rect x="340.42" y="71.22" width="144.54" height="120.28" rx="3.5" fill="#fff" stroke="#EBEBEB"/><path d="M353.71 103.37V91.73h4.37c.89 0 1.64.17 2.25.5.6.34 1.06.8 1.38 1.38.31.58.47 1.24.47 1.98s-.16 1.4-.47 1.98a3.36 3.36 0 0 1-1.4 1.37c-.61.33-1.37.5-2.26.5h-2.9V97.7h2.61c.53 0 .95-.1 1.29-.28.33-.18.58-.43.74-.75.16-.32.24-.68.24-1.1 0-.4-.08-.77-.24-1.08a1.68 1.68 0 0 0-.75-.74 2.73 2.73 0 0 0-1.29-.26h-1.93v9.87h-2.1Zm10.2 0v-8.73h2v1.46h.1a2.18 2.18 0 0 1 2.15-1.58 4.73 4.73 0 0 1 .73.05v1.9a3.8 3.8 0 0 0-.95-.12c-.38 0-.71.08-1.01.24a1.8 1.8 0 0 0-.96 1.65v5.13h-2.05Zm6.35 0v-8.73h2.06v8.73h-2.06Zm1.04-9.97c-.33 0-.61-.1-.85-.32a1.04 1.04 0 0 1-.35-.79c0-.31.12-.57.35-.79.24-.22.52-.33.85-.33.32 0 .6.11.84.33a1.06 1.06 0 0 1 0 1.58c-.24.22-.51.32-.84.32Zm3.13 9.97v-8.73h1.97v1.49h.1c.18-.5.48-.9.9-1.17.43-.29.93-.43 1.51-.43.6 0 1.09.14 1.5.43.4.29.7.67.86 1.17h.09c.2-.49.52-.88.98-1.16.46-.3 1-.44 1.64-.44.8 0 1.46.25 1.96.76.51.5.77 1.25.77 2.22v5.86h-2.07v-5.54c0-.54-.14-.94-.43-1.19a1.54 1.54 0 0 0-1.06-.38c-.5 0-.88.16-1.16.47-.28.3-.42.7-.42 1.2v5.44h-2.01v-5.62c0-.46-.14-.82-.41-1.08-.27-.27-.62-.4-1.06-.4a1.54 1.54 0 0 0-1.38.85 1.9 1.9 0 0 0-.22.94v5.31h-2.06Zm18.23.17a4.5 4.5 0 0 1-2.27-.55 3.7 3.7 0 0 1-1.46-1.55 5.22 5.22 0 0 1-.51-2.38c0-.9.17-1.69.5-2.37a3.87 3.87 0 0 1 3.63-2.16c.54 0 1.04.09 1.52.26s.9.44 1.27.8c.38.36.67.81.88 1.37.21.55.32 1.21.32 1.98v.63h-7.16v-1.39h5.19c0-.4-.1-.74-.26-1.05-.17-.3-.4-.55-.7-.73-.3-.18-.64-.27-1.03-.27a2 2 0 0 0-1.11.3c-.32.2-.57.47-.75.8a2.3 2.3 0 0 0-.26 1.08v1.2c0 .52.09.95.28 1.31.18.37.44.64.77.83.34.2.73.29 1.18.29.3 0 .56-.04.8-.13a1.65 1.65 0 0 0 1.04-1l1.92.22c-.12.5-.35.95-.7 1.33-.33.37-.76.67-1.29.87-.52.2-1.13.31-1.8.31Zm9.16-10.04v-1.77h9.29v1.77h-3.6v9.87h-2.09V93.5h-3.6Zm13.59 10.04a4.5 4.5 0 0 1-2.27-.55 3.7 3.7 0 0 1-1.46-1.55 5.22 5.22 0 0 1-.51-2.38c0-.9.17-1.69.5-2.37a3.87 3.87 0 0 1 3.63-2.16c.54 0 1.04.09 1.52.26s.9.44 1.27.8c.38.36.67.81.88 1.37.21.55.32 1.21.32 1.98v.63h-7.16v-1.39h5.19c0-.4-.1-.74-.26-1.05-.17-.3-.4-.55-.7-.73-.3-.18-.64-.27-1.03-.27a2 2 0 0 0-1.11.3c-.32.2-.57.47-.75.8a2.3 2.3 0 0 0-.26 1.08v1.2c0 .52.09.95.28 1.31.18.37.44.64.77.83.34.2.73.29 1.18.29.3 0 .56-.04.8-.13a1.65 1.65 0 0 0 1.04-1l1.92.22c-.12.5-.35.95-.7 1.33-.33.37-.76.67-1.29.87-.52.2-1.13.31-1.8.31Zm8.13 0c-.56 0-1.05-.1-1.5-.29-.44-.2-.78-.5-1.04-.89a2.6 2.6 0 0 1-.38-1.44c0-.5.09-.9.27-1.22.18-.32.43-.58.75-.77.3-.2.66-.34 1.06-.44.4-.1.8-.18 1.23-.22l1.25-.14c.31-.05.54-.12.69-.2.15-.1.22-.25.22-.45v-.03c0-.43-.13-.76-.38-1-.25-.23-.62-.35-1.1-.35-.5 0-.9.11-1.2.33-.29.22-.49.48-.59.78l-1.92-.27a3.08 3.08 0 0 1 2.03-2.14 5.45 5.45 0 0 1 2.93-.13c.41.1.8.27 1.14.5.34.22.62.52.83.91.21.39.32.87.32 1.45v5.84h-1.98v-1.2h-.07a2.49 2.49 0 0 1-1.37 1.19 3.6 3.6 0 0 1-1.2.19Zm.53-1.5c.42 0 .77-.09 1.08-.25.3-.17.53-.39.7-.66.16-.27.25-.57.25-.89v-1.03a.96.96 0 0 1-.33.15l-.52.12a15.74 15.74 0 0 1-1.04.16c-.3.04-.58.1-.82.2-.25.1-.44.23-.58.4a.97.97 0 0 0-.2.65c0 .38.13.66.4.86.28.19.63.28 1.06.28Zm9.95 1.5a3.84 3.84 0 0 1-3.68-2.16 5.25 5.25 0 0 1-.5-2.34c0-.89.17-1.67.51-2.35.34-.68.82-1.2 1.44-1.59a4.16 4.16 0 0 1 2.22-.57c.7 0 1.34.13 1.88.4a3.21 3.21 0 0 1 1.87 2.74h-1.97a1.88 1.88 0 0 0-.56-1.06c-.3-.28-.7-.42-1.2-.42-.41 0-.78.11-1.1.34-.32.22-.57.54-.74.97a3.8 3.8 0 0 0-.26 1.5c0 .6.08 1.11.26 1.54.17.42.42.75.73.98.32.23.69.34 1.12.34.3 0 .57-.05.81-.17.24-.11.45-.28.6-.5.17-.22.28-.49.34-.8h1.97a3.22 3.22 0 0 1-1.83 2.76 4.3 4.3 0 0 1-1.9.4Zm7.49-5.28v5.11h-2.06V91.73h2.01v4.4h.1c.2-.5.52-.88.95-1.17a2.9 2.9 0 0 1 1.65-.43c.6 0 1.13.13 1.58.38.45.25.8.63 1.05 1.11.25.5.38 1.09.38 1.8v5.55h-2.06v-5.24a1.9 1.9 0 0 0-.46-1.37c-.3-.33-.72-.5-1.26-.5-.36 0-.69.09-.97.25-.29.15-.51.38-.68.67-.16.3-.23.66-.23 1.08Zm11.62 5.28c-.88 0-1.64-.18-2.27-.55a3.69 3.69 0 0 1-1.46-1.55 5.22 5.22 0 0 1-.51-2.38c0-.9.17-1.69.5-2.37a3.86 3.86 0 0 1 3.63-2.16c.54 0 1.04.09 1.52.26s.9.44 1.27.8c.37.36.67.81.88 1.37.21.55.32 1.21.32 1.98v.63h-7.16v-1.39h5.18a1.96 1.96 0 0 0-.95-1.78c-.3-.18-.64-.27-1.03-.27a2 2 0 0 0-1.11.3c-.32.2-.57.47-.75.8a2.3 2.3 0 0 0-.26 1.08v1.2c0 .52.09.95.27 1.31.19.37.45.64.78.83.34.2.73.29 1.17.29.3 0 .57-.04.82-.13.24-.08.45-.21.63-.38.17-.16.3-.37.4-.62l1.92.22a3 3 0 0 1-.7 1.33c-.33.37-.76.67-1.29.87-.53.2-1.13.31-1.8.31Zm5.62-.17v-8.73h1.99v1.46h.1a2.18 2.18 0 0 1 2.14-1.58 4.73 4.73 0 0 1 .74.05v1.9a3.8 3.8 0 0 0-.96-.12c-.37 0-.7.08-1 .24a1.8 1.8 0 0 0-.96 1.65v5.13h-2.05Zm13.24-6.42-1.88.2a1.51 1.51 0 0 0-.28-.53c-.13-.17-.3-.3-.52-.4a1.9 1.9 0 0 0-.8-.16c-.43 0-.8.1-1.08.28-.3.19-.44.43-.43.72 0 .26.09.46.28.62.19.16.5.3.95.4l1.49.31c.83.18 1.44.46 1.84.85.4.39.61.9.62 1.52 0 .55-.17 1.03-.49 1.45a3.1 3.1 0 0 1-1.31.98c-.56.23-1.2.35-1.93.35a4.48 4.48 0 0 1-2.58-.67 2.7 2.7 0 0 1-1.17-1.88l2-.2c.1.4.3.7.59.9.3.2.68.3 1.15.3.49 0 .88-.1 1.18-.3.3-.2.45-.45.45-.75 0-.25-.1-.45-.3-.61a2.02 2.02 0 0 0-.88-.38l-1.49-.31a3.54 3.54 0 0 1-1.86-.88 2.2 2.2 0 0 1-.6-1.58c0-.54.15-1 .44-1.4.3-.4.72-.7 1.25-.92a4.83 4.83 0 0 1 1.85-.33 4 4 0 0 1 2.41.65c.6.44.96 1.03 1.1 1.77Zm-107.35 30.6c-.55 0-1.05-.1-1.5-.3a2.5 2.5 0 0 1-1.04-.89 2.6 2.6 0 0 1-.38-1.44c0-.5.09-.9.27-1.22.18-.32.43-.58.75-.77.31-.2.66-.34 1.06-.44.4-.1.8-.18 1.23-.22l1.25-.14c.31-.05.55-.12.69-.2.15-.1.22-.25.22-.45v-.03c0-.43-.13-.76-.38-1-.25-.23-.62-.35-1.1-.35-.5 0-.9.11-1.2.33a1.7 1.7 0 0 0-.59.78l-1.92-.27a3.05 3.05 0 0 1 2.03-2.14 5.47 5.47 0 0 1 2.93-.13c.42.1.8.27 1.14.5.34.22.62.52.83.91.21.39.32.87.32 1.45v5.84h-1.98v-1.2h-.07a2.5 2.5 0 0 1-1.37 1.19c-.34.12-.74.19-1.19.19Zm.53-1.52c.42 0 .77-.08 1.08-.24.3-.17.53-.39.7-.66.16-.27.25-.57.25-.89v-1.03a.97.97 0 0 1-.33.15l-.51.12-.57.09-.48.07c-.3.04-.58.1-.82.2-.25.1-.44.23-.58.4a.97.97 0 0 0-.2.65c0 .38.13.66.4.86.28.19.64.28 1.06.28Zm8.2-3.77v5.11h-2.05v-8.73h1.96v1.49h.1c.2-.5.52-.88.96-1.17.45-.29 1-.43 1.65-.43.6 0 1.12.13 1.57.39.45.25.8.63 1.05 1.11.25.5.37 1.09.37 1.78v5.56h-2.06v-5.24c0-.58-.15-1.04-.46-1.37a1.6 1.6 0 0 0-1.24-.5c-.36 0-.68.09-.96.25-.28.15-.5.38-.65.67-.16.3-.24.66-.24 1.08Zm10.94 5.26a3.3 3.3 0 0 1-1.85-.52 3.58 3.58 0 0 1-1.28-1.54 5.71 5.71 0 0 1-.47-2.44c0-.97.16-1.79.48-2.46a3.35 3.35 0 0 1 4.39-1.77c.32.17.58.38.78.62.19.24.34.46.44.68h.09v-4.36h2.06v11.64h-2.02v-1.38h-.13c-.1.22-.25.44-.46.68a2.52 2.52 0 0 1-2.03.85Zm.57-1.68c.43 0 .8-.12 1.11-.36.3-.23.54-.57.7-.99.16-.42.24-.92.24-1.48 0-.57-.08-1.06-.24-1.48a2.09 2.09 0 0 0-.7-.97c-.3-.23-.67-.34-1.11-.34-.46 0-.84.12-1.15.36-.3.23-.54.56-.7.98-.15.42-.22.9-.22 1.45 0 .54.07 1.03.23 1.46.16.42.39.76.7 1 .3.25.69.37 1.14.37Zm16.65-6.9c-.05-.5-.28-.89-.67-1.17-.4-.27-.9-.41-1.53-.41-.44 0-.81.06-1.13.2-.31.13-.55.31-.72.54a1.3 1.3 0 0 0-.09 1.4c.12.19.27.34.46.46a4.83 4.83 0 0 0 1.35.52l1.1.27c.43.1.86.24 1.26.42.41.17.78.39 1.1.66.32.26.58.58.77.95.19.38.28.82.28 1.32a3.15 3.15 0 0 1-2.03 3.02 5.9 5.9 0 0 1-2.38.43c-.9 0-1.7-.14-2.36-.42a3.51 3.51 0 0 1-1.55-1.23 3.64 3.64 0 0 1-.6-1.97h2.07a1.77 1.77 0 0 0 1.23 1.62c.36.13.75.2 1.2.2.45 0 .85-.07 1.2-.2.35-.15.62-.34.82-.59.2-.25.3-.54.3-.87 0-.3-.1-.56-.27-.75-.17-.2-.42-.37-.73-.5a7.07 7.07 0 0 0-1.1-.37l-1.32-.34a5.34 5.34 0 0 1-2.27-1.12 2.58 2.58 0 0 1-.83-2 3 3 0 0 1 .56-1.8c.37-.52.88-.92 1.53-1.2a5.3 5.3 0 0 1 2.18-.44c.83 0 1.55.15 2.17.44.63.28 1.12.68 1.48 1.18.35.5.54 1.09.55 1.74h-2.03Zm8.33-.3v1.6h-5.02v-1.6h5.02Zm-3.78-2.09h2.06v8.2c0 .27.04.48.13.63.08.15.2.24.34.3.14.05.3.08.46.08a2 2 0 0 0 .6-.08l.35 1.6a4.44 4.44 0 0 1-1.21.21c-.51.02-.98-.06-1.4-.23a2.17 2.17 0 0 1-.98-.81 2.4 2.4 0 0 1-.35-1.36v-8.54Zm11.06 7.15v-5.06h2.06v8.73h-2v-1.55h-.08c-.2.49-.52.89-.98 1.2-.44.3-1 .46-1.65.46a2.64 2.64 0 0 1-2.54-1.5 3.96 3.96 0 0 1-.37-1.78v-5.56h2.06v5.24c0 .56.15 1 .45 1.32.3.33.7.49 1.2.49a1.88 1.88 0 0 0 1.58-.88c.18-.3.27-.67.27-1.11Zm7.42 3.82a3.3 3.3 0 0 1-1.85-.52 3.58 3.58 0 0 1-1.28-1.54 5.71 5.71 0 0 1-.47-2.44c0-.97.16-1.79.48-2.46a3.35 3.35 0 0 1 4.39-1.77c.32.17.58.38.78.62.19.24.34.46.44.68h.09v-4.36h2.06v11.64h-2.02v-1.38h-.13c-.1.22-.25.44-.46.68a2.52 2.52 0 0 1-2.03.85Zm.57-1.68c.43 0 .8-.12 1.11-.36.3-.23.54-.57.7-.99.16-.42.24-.92.24-1.48 0-.57-.08-1.06-.24-1.48a2.09 2.09 0 0 0-.7-.97c-.3-.23-.67-.34-1.11-.34-.46 0-.84.12-1.15.36-.3.23-.54.56-.7.98-.15.42-.22.9-.22 1.45 0 .54.07 1.03.23 1.46.16.42.39.76.7 1 .3.25.69.37 1.14.37Zm10.13 1.7c-.88 0-1.63-.18-2.27-.55a3.68 3.68 0 0 1-1.46-1.55 5.22 5.22 0 0 1-.51-2.38c0-.9.17-1.69.51-2.37a3.86 3.86 0 0 1 3.62-2.16c.54 0 1.05.09 1.52.26a3.56 3.56 0 0 1 2.15 2.17c.21.55.32 1.21.32 1.98v.63h-7.15v-1.39h5.18c0-.4-.1-.74-.26-1.05-.17-.3-.4-.55-.7-.73-.3-.18-.64-.27-1.03-.27a2 2 0 0 0-1.11.3c-.32.2-.57.47-.74.8a2.3 2.3 0 0 0-.27 1.08v1.2c0 .52.1.95.28 1.31.18.37.44.64.78.83.33.2.72.29 1.17.29.3 0 .57-.04.8-.13a1.65 1.65 0 0 0 1.04-1l1.92.22a3 3 0 0 1-.69 1.33c-.34.37-.77.67-1.3.87-.52.2-1.12.31-1.8.31Zm7.68-5.28v5.11h-2.06v-8.73h1.96v1.49h.1c.2-.5.53-.88.97-1.17.44-.29.99-.43 1.64-.43.6 0 1.13.13 1.57.39.45.25.8.63 1.05 1.11.25.5.37 1.09.37 1.78v5.56h-2.06v-5.24c0-.58-.15-1.04-.45-1.37a1.6 1.6 0 0 0-1.25-.5c-.36 0-.68.09-.96.25-.27.15-.5.38-.65.67-.16.3-.24.66-.24 1.08Zm12.05-3.62v1.6h-5.02v-1.6h5.02Zm-3.78-2.09h2.06v8.2c0 .27.04.48.12.63.09.15.2.24.34.3.14.05.3.08.47.08a2 2 0 0 0 .6-.08l.35 1.6a4.44 4.44 0 0 1-1.21.21c-.52.02-.98-.06-1.4-.23a2.17 2.17 0 0 1-.98-.81 2.4 2.4 0 0 1-.35-1.36v-8.54Zm12.27 4.4-1.88.2a1.5 1.5 0 0 0-.8-.93 1.9 1.9 0 0 0-.8-.16c-.43 0-.8.1-1.08.28-.3.19-.43.43-.43.72 0 .26.09.46.28.62.2.16.51.3.95.4l1.5.31c.82.18 1.43.46 1.83.85.4.39.61.9.62 1.52 0 .55-.17 1.03-.49 1.45a3.1 3.1 0 0 1-1.3.98c-.57.23-1.21.35-1.94.35a4.48 4.48 0 0 1-2.58-.67 2.7 2.7 0 0 1-1.17-1.88l2.01-.2c.1.4.29.7.58.9.3.2.68.3 1.15.3.5 0 .88-.1 1.18-.3.3-.2.45-.45.45-.75 0-.25-.1-.45-.3-.61a2.02 2.02 0 0 0-.88-.38l-1.49-.31a3.54 3.54 0 0 1-1.85-.88 2.2 2.2 0 0 1-.6-1.58c0-.54.14-1 .44-1.4.3-.4.71-.7 1.24-.92a4.82 4.82 0 0 1 1.85-.33c1.02 0 1.83.22 2.41.65.6.44.96 1.03 1.1 1.77Z" fill="#545454"/><path d="M362.71 141.73c-.06-.5-.3-.9-.72-1.17a2.78 2.78 0 0 0-1.57-.42c-.45 0-.84.08-1.18.22-.33.15-.6.35-.79.6a1.5 1.5 0 0 0-.27.87c0 .27.06.5.2.7.12.2.3.36.5.49.2.12.42.23.64.31l.63.2 1.03.27c.26.07.56.17.88.3.33.11.65.28.94.5a2.33 2.33 0 0 1 1.04 2.01c0 .55-.14 1.04-.43 1.49-.28.44-.7.8-1.25 1.06a4.6 4.6 0 0 1-2 .39c-.73 0-1.36-.12-1.89-.35a2.82 2.82 0 0 1-1.77-2.45h1.28c.03.38.16.7.39.95.22.25.51.43.86.56a3.5 3.5 0 0 0 2.4-.05c.38-.16.67-.37.9-.65.21-.28.32-.6.32-.97 0-.34-.1-.62-.28-.83a2.08 2.08 0 0 0-.75-.52 6.5 6.5 0 0 0-1-.34l-1.25-.36a4.67 4.67 0 0 1-1.89-.98c-.47-.43-.7-.98-.7-1.67 0-.57.16-1.06.47-1.49.3-.43.73-.76 1.25-1a4.24 4.24 0 0 1 1.76-.35c.66 0 1.24.12 1.75.35.51.23.92.55 1.22.96.3.4.46.86.47 1.37h-1.19Zm6.4 7.8a3.26 3.26 0 0 1-3.13-1.86 4.68 4.68 0 0 1-.43-2.06c0-.78.15-1.47.43-2.07a3.23 3.23 0 0 1 3.01-1.9c.4 0 .8.06 1.18.2a2.91 2.91 0 0 1 1.82 1.81 5 5 0 0 1 .28 1.8v.5h-5.88v-1.01h4.7c0-.44-.1-.82-.27-1.16a1.94 1.94 0 0 0-1.83-1.1c-.46 0-.87.13-1.2.36-.35.22-.6.52-.79.9a2.6 2.6 0 0 0-.27 1.18v.67c0 .58.1 1.07.3 1.47.2.4.48.7.84.9.35.21.77.31 1.24.31.31 0 .59-.04.84-.12.25-.1.47-.23.65-.4.18-.18.32-.4.42-.67l1.14.32c-.12.39-.32.72-.6 1.02a3.32 3.32 0 0 1-2.45.91Zm7.2.02c-.49 0-.93-.1-1.32-.27-.4-.19-.7-.46-.94-.8a2.25 2.25 0 0 1-.35-1.28c0-.44.09-.79.26-1.06.17-.28.4-.5.7-.65.28-.15.6-.27.95-.35.35-.07.7-.14 1.06-.18l1.12-.14c.3-.03.5-.09.64-.16.14-.08.2-.21.2-.4v-.04c0-.5-.13-.87-.4-1.14-.26-.28-.67-.41-1.2-.41a2.07 2.07 0 0 0-2 1.15l-1.11-.4c.2-.46.46-.82.8-1.08.33-.26.7-.44 1.09-.55a4.53 4.53 0 0 1 2.02-.07c.32.06.63.18.93.36.3.18.55.45.75.8.2.37.3.85.3 1.46v5.03h-1.18v-1.03h-.06a2.27 2.27 0 0 1-1.14 1.01c-.3.13-.68.2-1.12.2Zm.18-1.06c.46 0 .85-.09 1.17-.27a1.86 1.86 0 0 0 .97-1.61v-1.08a.71.71 0 0 1-.32.17 5.5 5.5 0 0 1-1.21.21l-.5.06c-.3.04-.59.1-.85.2-.26.08-.47.21-.64.39a1 1 0 0 0-.24.7c0 .41.16.72.46.93.3.2.69.3 1.16.3Zm5.46.88v-7.64h1.13v1.16h.08c.14-.38.4-.69.76-.92.36-.24.77-.35 1.23-.35a10.33 10.33 0 0 1 .62.01v1.2a3.47 3.47 0 0 0-.72-.08c-.37 0-.7.08-1 .23a1.71 1.71 0 0 0-.93 1.56v4.83h-1.17Zm8.08.16a3.3 3.3 0 0 1-1.85-.5 3.3 3.3 0 0 1-1.2-1.4 4.72 4.72 0 0 1-.41-2.04c0-.77.14-1.46.42-2.05.3-.6.7-1.06 1.2-1.4.52-.34 1.13-.5 1.82-.5.53 0 1.02.1 1.45.3a2.6 2.6 0 0 1 1.57 2.09h-1.17a1.78 1.78 0 0 0-1.83-1.33 1.9 1.9 0 0 0-1.2.35c-.35.23-.61.56-.8 1a3.7 3.7 0 0 0-.29 1.5c0 .6.1 1.1.28 1.54.19.44.45.78.8 1.02.34.24.74.36 1.2.36.31 0 .59-.05.84-.15a1.71 1.71 0 0 0 1-1.18h1.17a2.71 2.71 0 0 1-1.52 2.08c-.43.2-.92.3-1.48.3Zm5.89-4.75v4.59h-1.18v-10.18h1.18v3.74h.1c.18-.4.44-.71.8-.94a2.6 2.6 0 0 1 1.44-.36c.53 0 .98.1 1.37.32.4.2.7.52.91.95.22.42.33.96.33 1.62v4.85h-1.17v-4.77c0-.6-.16-1.08-.47-1.4a1.7 1.7 0 0 0-1.3-.51c-.39 0-.73.08-1.04.24-.3.16-.54.4-.71.71-.18.32-.26.7-.26 1.14Zm11.2 4.59v-10.18h1.17v3.76h.1c.08-.14.2-.3.35-.51a2.1 2.1 0 0 1 1.85-.8 3.03 3.03 0 0 1 2.85 1.84c.28.6.42 1.29.42 2.1 0 .8-.14 1.5-.42 2.1a2.99 2.99 0 0 1-2.83 1.85 2.5 2.5 0 0 1-1.18-.24 2.31 2.31 0 0 1-.68-.57 7.52 7.52 0 0 1-.36-.52h-.14v1.17h-1.14Zm1.15-3.82c0 .58.08 1.09.25 1.53.17.44.42.78.74 1.03.33.24.72.36 1.2.36.49 0 .9-.12 1.22-.38.33-.26.58-.62.75-1.06.17-.44.25-.93.25-1.48a3.9 3.9 0 0 0-.25-1.45c-.16-.43-.4-.78-.74-1.03a1.96 1.96 0 0 0-1.24-.38 1.96 1.96 0 0 0-1.94 1.37c-.16.42-.24.92-.24 1.5Zm7.86 6.68a2.58 2.58 0 0 1-.85-.13l.3-1.04c.28.07.53.1.75.08a.9.9 0 0 0 .58-.3c.17-.16.33-.45.47-.83l.22-.6-2.82-7.68h1.27l2.11 6.09h.08l2.1-6.09h1.28l-3.24 8.75c-.15.4-.33.73-.54.98-.22.26-.47.46-.75.58-.28.13-.6.2-.96.2Zm16.39-8.79-1.06.3a1.97 1.97 0 0 0-.3-.51 1.5 1.5 0 0 0-.5-.42c-.23-.1-.5-.16-.85-.16a2 2 0 0 0-1.17.32c-.3.21-.46.48-.46.81 0 .3.1.52.32.7.21.16.54.3 1 .42l1.13.27c.68.17 1.19.42 1.52.77.34.33.5.77.5 1.3 0 .44-.12.83-.37 1.18-.25.34-.6.61-1.05.81-.44.2-.97.3-1.56.3-.78 0-1.42-.17-1.93-.5a2.25 2.25 0 0 1-.97-1.49l1.11-.28c.1.41.3.72.6.93.3.2.7.3 1.17.3.55 0 .98-.11 1.3-.34.33-.24.5-.52.5-.85 0-.26-.1-.49-.29-.66a1.78 1.78 0 0 0-.85-.41l-1.27-.3a3.04 3.04 0 0 1-1.55-.77 1.87 1.87 0 0 1-.48-1.32c0-.43.12-.81.36-1.14.25-.33.58-.6 1-.78.42-.2.9-.28 1.44-.28.76 0 1.35.16 1.78.5.44.32.74.76.93 1.3Zm5 6.09a3.3 3.3 0 0 1-1.85-.5 3.3 3.3 0 0 1-1.19-1.4 4.72 4.72 0 0 1-.42-2.04c0-.77.15-1.46.43-2.05a3.23 3.23 0 0 1 3.01-1.9c.54 0 1.02.1 1.45.3a2.6 2.6 0 0 1 1.57 2.09h-1.17a1.78 1.78 0 0 0-1.83-1.33c-.45-.01-.85.1-1.2.35-.34.23-.6.56-.8 1a3.7 3.7 0 0 0-.28 1.5 4 4 0 0 0 .27 1.54c.2.44.46.78.8 1.02s.75.36 1.21.36c.3 0 .59-.05.83-.15a1.71 1.71 0 0 0 1-1.18h1.18a2.71 2.71 0 0 1-1.52 2.08c-.43.2-.92.3-1.49.3Zm5.9-4.75v4.59h-1.18v-10.18h1.18v3.74h.1c.17-.4.44-.71.8-.94a2.6 2.6 0 0 1 1.44-.36c.52 0 .98.1 1.37.32.39.2.7.52.9.95.23.42.34.96.34 1.62v4.85h-1.18v-4.77c0-.6-.15-1.08-.47-1.4a1.67 1.67 0 0 0-1.3-.51c-.38 0-.73.08-1.03.24-.3.16-.54.4-.72.71-.17.32-.25.7-.25 1.14Zm10.2 4.75c-.7 0-1.3-.16-1.82-.5a3.34 3.34 0 0 1-1.21-1.37 4.66 4.66 0 0 1-.44-2.07c0-.8.15-1.49.44-2.08.29-.6.7-1.05 1.21-1.38.52-.33 1.13-.5 1.81-.5a3.25 3.25 0 0 1 3.03 1.88c.29.6.44 1.29.44 2.08 0 .8-.15 1.48-.44 2.07a3.3 3.3 0 0 1-1.21 1.38 3.3 3.3 0 0 1-1.81.49Zm0-1.06a2 2 0 0 0 1.29-.4c.34-.27.59-.62.75-1.06a4.25 4.25 0 0 0 0-2.85 2.4 2.4 0 0 0-.75-1.06 2 2 0 0 0-1.3-.41 2 2 0 0 0-1.29.4 2.4 2.4 0 0 0-.75 1.07 4.2 4.2 0 0 0 0 2.85c.16.44.41.8.75 1.06.34.27.77.4 1.3.4Zm8.35 1.06c-.7 0-1.3-.16-1.82-.5a3.34 3.34 0 0 1-1.2-1.37 4.66 4.66 0 0 1-.44-2.07c0-.8.14-1.49.43-2.08.3-.6.7-1.05 1.21-1.38.52-.33 1.13-.5 1.82-.5a3.29 3.29 0 0 1 3.02 1.87c.3.6.44 1.3.44 2.1a4.6 4.6 0 0 1-.44 2.06 3.4 3.4 0 0 1-1.21 1.38 3.3 3.3 0 0 1-1.81.49Zm0-1.06c.52 0 .95-.13 1.3-.4.33-.27.58-.62.74-1.06a4.1 4.1 0 0 0 0-2.85c-.16-.44-.41-.8-.75-1.06a2 2 0 0 0-1.3-.41 2 2 0 0 0-1.28.4c-.34.28-.6.63-.75 1.07a4.1 4.1 0 0 0-.25 1.43c0 .51.08.99.25 1.42.16.44.4.8.75 1.06.33.27.76.4 1.29.4Zm6.42-9.28v10.18h-1.17v-10.18h1.17Zm-71.65 26.59v4.59h-1.17v-7.64h1.13v1.2h.1c.18-.4.45-.7.81-.94.37-.24.84-.36 1.42-.36.51 0 .97.11 1.35.32.4.21.7.53.9.96.22.42.33.96.33 1.6v4.86h-1.17v-4.77c0-.6-.16-1.07-.47-1.4a1.65 1.65 0 0 0-1.28-.51c-.38 0-.71.08-1 .24-.3.16-.53.4-.7.71-.17.32-.25.7-.25 1.14Zm9.26 4.77c-.48 0-.92-.1-1.31-.27a2.3 2.3 0 0 1-.94-.8 2.25 2.25 0 0 1-.35-1.28c0-.44.08-.79.26-1.06.17-.28.4-.5.69-.65.28-.15.6-.27.95-.35.35-.07.7-.14 1.06-.18l1.13-.14c.29-.03.5-.09.63-.16.14-.08.2-.21.2-.4v-.04c0-.5-.13-.87-.4-1.14-.26-.28-.66-.41-1.2-.41a2.1 2.1 0 0 0-1.99 1.15l-1.11-.4a2.67 2.67 0 0 1 1.88-1.63 4.55 4.55 0 0 1 2.02-.07c.33.06.63.18.93.36.3.18.56.45.75.8.2.37.3.85.3 1.46v5.03h-1.17v-1.03h-.06a2.28 2.28 0 0 1-1.14 1.01c-.3.13-.68.2-1.13.2Zm.18-1.06c.46 0 .86-.09 1.17-.27a1.86 1.86 0 0 0 .98-1.61v-1.08c-.05.06-.16.12-.33.17a5.52 5.52 0 0 1-1.2.21l-.5.06a4 4 0 0 0-.86.2c-.26.08-.47.21-.63.39a1 1 0 0 0-.24.7c0 .41.15.72.45.93.3.2.7.3 1.16.3Zm5.46.88v-7.64h1.14v1.2h.1c.16-.41.41-.73.77-.95a2.3 2.3 0 0 1 1.28-.34c.5 0 .92.1 1.25.34.34.22.6.54.8.95h.07c.2-.4.5-.71.88-.94.4-.24.86-.36 1.41-.36.68 0 1.24.22 1.68.65.43.42.65 1.08.65 1.98v5.11h-1.18v-5.11c0-.56-.15-.97-.46-1.2-.3-.25-.67-.37-1.09-.37-.54 0-.95.16-1.25.49-.3.32-.44.72-.44 1.22v4.97h-1.2v-5.23c0-.43-.13-.78-.41-1.05-.29-.27-.65-.4-1.1-.4-.3 0-.58.08-.85.24a1.96 1.96 0 0 0-.87 1.67v4.77h-1.18Zm15.37.16a3.6 3.6 0 0 1-1.9-.49 3.27 3.27 0 0 1-1.23-1.37 4.68 4.68 0 0 1-.43-2.06c0-.78.15-1.47.43-2.07.29-.6.7-1.06 1.2-1.4a3.63 3.63 0 0 1 2.99-.3 2.91 2.91 0 0 1 1.82 1.81 5 5 0 0 1 .29 1.8v.5h-5.9v-1.01h4.7c0-.44-.08-.82-.26-1.16a1.94 1.94 0 0 0-1.83-1.1c-.46 0-.87.13-1.2.36-.35.22-.6.52-.79.9a2.6 2.6 0 0 0-.27 1.18v.67c0 .58.1 1.07.3 1.47.2.4.48.7.83.9.36.21.78.31 1.25.31.31 0 .59-.04.84-.12.25-.1.47-.23.65-.4.18-.18.32-.4.42-.67l1.14.32a2.5 2.5 0 0 1-.6 1.02c-.29.28-.63.5-1.05.67-.41.16-.88.24-1.4.24Z" fill="#757575"/><rect x="493.83" y="71.72" width="143.54" height="119.28" rx="3" fill="#F0F6FE" stroke="#194DCC" stroke-width="2"/><path d="M524.19 93.73h2.1v7.6a4 4 0 0 1-2.24 3.68c-.7.36-1.53.54-2.48.54s-1.78-.18-2.49-.53a3.99 3.99 0 0 1-2.23-3.68v-7.6h2.1v7.42a2.4 2.4 0 0 0 1.23 2.19c.4.21.86.32 1.4.32.53 0 .99-.11 1.38-.32a2.48 2.48 0 0 0 1.23-2.19v-7.43Zm11.2 5.22-1.87.2a1.5 1.5 0 0 0-.8-.93 1.9 1.9 0 0 0-.81-.16c-.43 0-.79.1-1.08.28-.29.19-.43.43-.43.72 0 .26.1.46.28.62.2.16.51.3.96.4l1.49.31c.82.18 1.44.46 1.84.85.4.39.6.9.61 1.52 0 .55-.17 1.03-.48 1.45a3.1 3.1 0 0 1-1.32.98c-.56.23-1.2.35-1.93.35a4.48 4.48 0 0 1-2.58-.67 2.7 2.7 0 0 1-1.16-1.88l2-.2c.1.4.29.7.58.9.3.2.68.3 1.16.3.49 0 .88-.1 1.17-.3.3-.2.45-.45.45-.75 0-.25-.1-.45-.29-.61a2.02 2.02 0 0 0-.88-.38l-1.5-.31a3.54 3.54 0 0 1-1.85-.88 2.2 2.2 0 0 1-.6-1.58c0-.54.14-1 .44-1.4.3-.4.71-.7 1.25-.92a4.82 4.82 0 0 1 1.84-.33c1.02 0 1.83.22 2.42.65.59.44.95 1.03 1.1 1.77Zm5.75 6.6c-.88 0-1.63-.2-2.27-.55a3.7 3.7 0 0 1-1.46-1.56 5.22 5.22 0 0 1-.5-2.38c0-.9.16-1.69.5-2.37a3.87 3.87 0 0 1 3.62-2.16c.54 0 1.05.09 1.52.26.49.17.91.44 1.28.8.37.36.66.81.87 1.37.21.55.32 1.21.32 1.98v.63h-7.15v-1.39h5.18c0-.4-.09-.74-.26-1.05a1.89 1.89 0 0 0-1.73-1 2 2 0 0 0-1.1.3c-.33.2-.57.47-.75.8a2.3 2.3 0 0 0-.27 1.08v1.2c0 .52.1.95.28 1.31.18.37.44.64.78.83.33.2.72.29 1.17.29.3 0 .57-.04.81-.13.24-.08.45-.21.63-.38.18-.16.31-.37.4-.62l1.92.22a3 3 0 0 1-.69 1.33c-.34.37-.77.67-1.3.87-.52.2-1.12.31-1.8.31Zm5.62-.18v-8.73h2v1.46h.09a2.17 2.17 0 0 1 2.15-1.58 4.73 4.73 0 0 1 .74.05v1.9a3.83 3.83 0 0 0-.96-.12c-.37 0-.7.08-1 .24a1.78 1.78 0 0 0-.96 1.65v5.13h-2.06Zm11.9 0h-2.25l4.1-11.64h2.6l4.1 11.64h-2.25l-3.1-9.25h-.1l-3.1 9.25Zm.07-4.56h6.14v1.7h-6.14v-1.7Zm13.46 4.73a3.84 3.84 0 0 1-3.68-2.16 5.25 5.25 0 0 1-.5-2.34c0-.89.17-1.67.51-2.35.34-.68.82-1.2 1.45-1.59a4.16 4.16 0 0 1 2.21-.57c.7 0 1.34.13 1.88.4a3.21 3.21 0 0 1 1.87 2.74h-1.96a1.88 1.88 0 0 0-.57-1.06c-.3-.28-.7-.42-1.2-.42-.41 0-.78.11-1.1.34-.32.22-.57.54-.74.97a3.8 3.8 0 0 0-.26 1.5c0 .6.08 1.11.26 1.54.17.42.42.75.73.98.32.23.7.34 1.12.34.3 0 .57-.05.81-.17.24-.11.45-.28.61-.5.16-.22.27-.49.34-.8h1.96a3.22 3.22 0 0 1-1.83 2.76 4.3 4.3 0 0 1-1.9.4Zm9.79-8.9v1.6h-5.02v-1.6h5.02Zm-3.78-2.09h2.06v8.2c0 .27.04.48.12.63.09.15.2.24.34.3.14.05.3.08.47.08a2 2 0 0 0 .6-.08l.35 1.6a4.44 4.44 0 0 1-1.21.21c-.52.02-.98-.06-1.4-.23a2.17 2.17 0 0 1-.98-.81 2.4 2.4 0 0 1-.35-1.36v-8.54Zm5.5 10.82v-8.73h2.05v8.73h-2.05Zm1.03-9.97c-.32 0-.6-.1-.84-.32a1.04 1.04 0 0 1-.35-.79c0-.31.12-.57.35-.79.24-.22.52-.33.84-.33.33 0 .61.11.84.33.24.22.35.48.35.8 0 .3-.11.56-.35.78-.23.22-.5.32-.84.32Zm10.93 1.24-3.1 8.73h-2.27l-3.11-8.73h2.19l2 6.49h.1l2-6.49h2.2Zm1.43 8.73v-8.73h2.05v8.73h-2.05Zm1.03-9.97c-.32 0-.6-.1-.84-.32a1.04 1.04 0 0 1-.35-.79c0-.31.12-.57.35-.79.24-.22.52-.33.84-.33.33 0 .61.11.84.33.24.22.36.48.36.8 0 .3-.12.56-.36.78-.23.22-.5.32-.84.32Zm7.5 1.24v1.6h-5.02v-1.6h5.02Zm-3.78-2.09h2.06v8.2c0 .27.04.48.12.63.09.15.2.24.34.3.14.05.3.08.47.08a2 2 0 0 0 .6-.08l.35 1.6a4.4 4.4 0 0 1-1.21.21c-.52.02-.98-.06-1.4-.23a2.17 2.17 0 0 1-.98-.81 2.4 2.4 0 0 1-.35-1.36v-8.54Zm6.78 14.1a4.2 4.2 0 0 1-1.34-.22l.47-1.6c.3.08.57.12.8.12.24 0 .45-.08.62-.22.19-.14.34-.38.46-.7l.18-.48-3.16-8.9h2.18l2 6.58h.1l2.02-6.59h2.18l-3.49 9.79c-.16.46-.38.85-.65 1.18-.27.34-.6.6-.99.77a3.4 3.4 0 0 1-1.38.26Z" fill="#184BC8"/><path d="M520.12 126.37v-10.18h6.1v1.1h-4.87v3.43h4.42v1.1h-4.42v4.55h-1.23Zm8.06 0v-7.64h1.17v7.64h-1.17Zm.6-8.9a.84.84 0 0 1-.6-.24.75.75 0 0 1-.24-.56c0-.22.08-.41.24-.57a.83.83 0 0 1 .6-.23c.22 0 .42.08.58.23.16.16.25.35.25.57 0 .22-.09.4-.25.56a.82.82 0 0 1-.59.23Zm3.9-1.28v10.18h-1.18v-10.18h1.17Zm5.46 2.54v1h-3.96v-1h3.96Zm-2.8-1.83h1.17v7.28c0 .33.05.58.14.75.1.16.23.27.38.33a1.99 1.99 0 0 0 1 .02l.25 1.05a2.6 2.6 0 0 1-1.85-.07 1.94 1.94 0 0 1-.78-.66 1.83 1.83 0 0 1-.31-1.1v-7.6Zm7.69 9.63a3.27 3.27 0 0 1-3.13-1.86 4.68 4.68 0 0 1-.43-2.06c0-.78.14-1.47.42-2.07.3-.6.7-1.06 1.2-1.4a3.64 3.64 0 0 1 2.99-.3 2.91 2.91 0 0 1 1.83 1.81c.18.49.28 1.09.28 1.8v.5h-5.89v-1.01h4.7c0-.44-.1-.82-.26-1.16a1.94 1.94 0 0 0-1.83-1.1 2.2 2.2 0 0 0-2 1.26c-.18.36-.27.75-.27 1.17v.68c0 .58.1 1.07.3 1.47.2.4.48.7.84.9.36.21.77.31 1.25.31.3 0 .58-.04.83-.12.25-.1.47-.23.65-.4.19-.18.33-.4.42-.67l1.14.32a2.58 2.58 0 0 1-1.65 1.69c-.41.16-.88.24-1.4.24Zm4.94-.16v-7.64h1.14v1.16h.08c.13-.38.39-.69.75-.92.37-.24.78-.36 1.23-.36a10.39 10.39 0 0 1 .62.03v1.19a3.47 3.47 0 0 0-.71-.08c-.38 0-.7.08-1 .23a1.71 1.71 0 0 0-.94 1.56v4.83h-1.17Zm13.96-3.12v-4.52h1.18v7.64h-1.18v-1.3h-.08a2.4 2.4 0 0 1-2.27 1.4c-.47 0-.9-.1-1.27-.31a2.2 2.2 0 0 1-.87-.96 3.63 3.63 0 0 1-.32-1.61v-4.86h1.17v4.78c0 .55.16 1 .47 1.33.32.33.72.5 1.2.5a2 2 0 0 0 1.97-2.1Zm8.73-2.8-1.05.3a1.97 1.97 0 0 0-.3-.52c-.12-.17-.3-.3-.51-.42-.22-.1-.5-.16-.84-.16a2 2 0 0 0-1.17.32c-.3.21-.46.48-.46.81 0 .3.1.52.32.7.2.16.54.3.99.42l1.13.27c.69.17 1.2.42 1.53.77.34.33.5.77.5 1.3 0 .44-.12.83-.38 1.18-.24.34-.6.61-1.04.81-.45.2-.97.3-1.56.3-.78 0-1.42-.17-1.94-.5a2.25 2.25 0 0 1-.96-1.49l1.11-.28c.1.41.3.72.6.93.3.2.69.3 1.17.3.55 0 .98-.11 1.3-.34.33-.24.49-.52.49-.85a.9.9 0 0 0-.28-.66 1.79 1.79 0 0 0-.85-.41l-1.28-.3a3.04 3.04 0 0 1-1.54-.77 1.86 1.86 0 0 1-.49-1.32c0-.43.13-.81.37-1.14.24-.33.58-.6 1-.78.42-.2.9-.28 1.44-.28.75 0 1.35.16 1.78.5.43.32.74.76.92 1.3Zm5.11 6.08a3.27 3.27 0 0 1-3.13-1.86 4.68 4.68 0 0 1-.43-2.06c0-.78.14-1.47.43-2.07a3.23 3.23 0 0 1 3.01-1.9c.4 0 .8.06 1.18.2a2.91 2.91 0 0 1 1.82 1.81 5 5 0 0 1 .28 1.8v.5h-5.88v-1.01h4.69c0-.44-.09-.82-.26-1.16a1.95 1.95 0 0 0-1.83-1.1c-.47 0-.87.13-1.21.36-.34.22-.6.52-.78.9-.18.36-.28.75-.28 1.17v.68c0 .58.1 1.07.3 1.47.2.4.48.7.84.9a2.8 2.8 0 0 0 2.09.19c.25-.1.46-.23.65-.4.18-.18.32-.4.42-.67l1.13.32a2.58 2.58 0 0 1-1.64 1.69c-.42.16-.88.24-1.4.24Zm4.95-.16v-7.64h1.13v1.16h.08c.14-.38.4-.69.76-.92.36-.24.77-.36 1.23-.36a10.37 10.37 0 0 1 .62.03v1.19a3.5 3.5 0 0 0-.72-.08c-.37 0-.7.08-1 .23a1.71 1.71 0 0 0-.94 1.56v4.83h-1.16Zm10.62-5.93-1.06.3a1.97 1.97 0 0 0-.3-.51 1.6 1.6 0 0 0-.5-.42c-.23-.1-.5-.16-.85-.16a2 2 0 0 0-1.17.32c-.3.21-.46.48-.46.81 0 .3.1.52.32.7.21.16.54.3 1 .42l1.13.27c.68.17 1.19.42 1.52.77.34.33.5.77.5 1.3 0 .44-.12.83-.37 1.18-.25.34-.6.61-1.05.81-.44.2-.97.3-1.56.3-.78 0-1.42-.17-1.93-.5a2.25 2.25 0 0 1-.97-1.49l1.11-.28c.1.41.3.72.6.93.3.2.7.3 1.17.3.55 0 .98-.11 1.3-.34.33-.24.5-.52.5-.85 0-.26-.1-.48-.29-.66a1.79 1.79 0 0 0-.85-.41l-1.27-.3a3.04 3.04 0 0 1-1.55-.77 1.86 1.86 0 0 1-.48-1.32c0-.43.12-.81.36-1.14.24-.33.58-.6 1-.78.42-.2.9-.28 1.44-.28.76 0 1.35.16 1.78.5.43.32.74.76.93 1.3Zm6 5.93v-10.18h1.17v3.76h.1l.36-.51c.15-.2.38-.4.66-.56.3-.16.69-.24 1.19-.24a3.02 3.02 0 0 1 2.85 1.84c.27.6.4 1.29.4 2.1 0 .8-.13 1.5-.4 2.1a2.98 2.98 0 0 1-2.83 1.85c-.5 0-.89-.08-1.18-.24-.3-.17-.52-.36-.68-.57a7.2 7.2 0 0 1-.37-.52h-.14v1.17h-1.13Zm1.15-3.82c0 .58.09 1.09.25 1.53.17.44.42.78.75 1.03.32.24.72.36 1.19.36.49 0 .9-.12 1.23-.38.33-.26.58-.62.74-1.06.17-.44.25-.93.25-1.48 0-.53-.08-1.02-.24-1.45a2.25 2.25 0 0 0-.74-1.03 1.96 1.96 0 0 0-1.24-.38 1.96 1.96 0 0 0-1.94 1.37 4 4 0 0 0-.25 1.5Zm7.87 6.68a2.59 2.59 0 0 1-.86-.13l.3-1.04c.28.07.54.1.75.08a.9.9 0 0 0 .59-.3c.17-.17.33-.45.47-.83l.22-.6-2.83-7.68h1.28l2.1 6.09h.08l2.11-6.09h1.27l-3.24 8.75c-.14.4-.32.73-.54.98a1.9 1.9 0 0 1-.75.58c-.28.13-.6.2-.95.2Zm-100 8.96v10.18h-1.18v-10.18h1.17Zm5.24 10.34c-.69 0-1.29-.16-1.81-.5a3.34 3.34 0 0 1-1.21-1.37 4.65 4.65 0 0 1-.44-2.07c0-.8.15-1.49.44-2.08.29-.6.7-1.05 1.21-1.38.52-.33 1.13-.5 1.81-.5a3.3 3.3 0 0 1 3.02 1.87c.3.6.45 1.3.45 2.1a4.6 4.6 0 0 1-.44 2.06 3.3 3.3 0 0 1-1.22 1.38 3.3 3.3 0 0 1-1.8.49Zm0-1.06c.53 0 .96-.13 1.3-.4.34-.27.59-.62.75-1.06a4.25 4.25 0 0 0 0-2.85c-.16-.44-.41-.8-.75-1.06a2 2 0 0 0-1.3-.41 2 2 0 0 0-1.29.4 2.4 2.4 0 0 0-.75 1.07 4.1 4.1 0 0 0 0 2.85c.16.44.41.8.75 1.06.34.27.77.4 1.3.4Zm8.34 3.92a4.2 4.2 0 0 1-1.46-.22 3.1 3.1 0 0 1-1.66-1.3l.93-.66c.1.13.24.3.4.47a2 2 0 0 0 .67.47c.28.14.66.2 1.12.2.61 0 1.12-.14 1.52-.44.4-.3.6-.76.6-1.4v-1.55h-.1c-.08.14-.2.31-.36.51-.16.2-.38.39-.68.55-.29.15-.68.23-1.18.23a3.07 3.07 0 0 1-2.82-1.71 4.45 4.45 0 0 1-.42-2.03c0-.78.13-1.46.41-2.04a3.02 3.02 0 0 1 2.85-1.83c.5 0 .9.08 1.18.24.3.17.52.35.68.56l.37.5h.12v-1.2h1.13v7.85c0 .66-.15 1.19-.45 1.6-.3.41-.7.72-1.2.91-.49.2-1.04.3-1.65.3Zm-.04-4.2c.47 0 .87-.1 1.2-.32a2 2 0 0 0 .73-.93c.17-.4.26-.88.26-1.45 0-.55-.09-1.03-.25-1.45a2.19 2.19 0 0 0-.74-1 1.98 1.98 0 0 0-1.2-.35 2 2 0 0 0-1.25.38 2.3 2.3 0 0 0-.74 1.01c-.16.42-.24.9-.24 1.41 0 .53.08 1 .25 1.4.17.41.42.73.75.96.33.23.74.35 1.23.35Zm5.49 1.18v-7.64h1.17v7.64h-1.17Zm.6-8.9a.84.84 0 0 1-.6-.24.75.75 0 0 1-.24-.56c0-.22.08-.41.24-.57a.83.83 0 0 1 .6-.23c.22 0 .42.08.58.23.17.16.25.35.25.57 0 .22-.08.4-.25.56a.82.82 0 0 1-.59.23Zm3.9 4.3v4.6h-1.18v-7.64h1.13v1.2h.1c.18-.4.45-.7.82-.94.36-.24.83-.36 1.4-.36.53 0 .98.11 1.37.32.38.21.69.53.9.96.22.42.33.96.33 1.6v4.86h-1.18v-4.77c0-.6-.16-1.07-.47-1.4-.3-.34-.74-.51-1.28-.51-.37 0-.7.08-1 .24-.3.16-.53.4-.7.71-.16.32-.25.7-.25 1.14Zm13.83 4.76a2.99 2.99 0 0 1-2.83-1.85c-.27-.6-.41-1.3-.41-2.1 0-.81.14-1.5.41-2.1a3.03 3.03 0 0 1 2.85-1.85c.5 0 .89.09 1.18.25.29.17.51.35.66.56l.37.5h.1v-3.75h1.17v10.18h-1.13v-1.17h-.14l-.37.52c-.16.21-.39.4-.68.57-.3.16-.69.24-1.18.24Zm.16-1.06c.47 0 .87-.12 1.2-.36.32-.25.56-.6.73-1.03.17-.44.26-.95.26-1.53 0-.57-.09-1.07-.25-1.5a1.96 1.96 0 0 0-1.94-1.37c-.5 0-.91.14-1.24.4-.33.24-.58.59-.75 1.02a4.1 4.1 0 0 0-.24 1.45c0 .55.08 1.04.25 1.48.17.44.42.8.75 1.06s.74.38 1.23.38Zm7.9 1.08c-.49 0-.92-.1-1.32-.27-.4-.19-.7-.46-.94-.8a2.25 2.25 0 0 1-.35-1.28c0-.44.09-.79.26-1.06.17-.28.4-.5.7-.65.28-.15.6-.27.95-.35.35-.07.7-.14 1.06-.18l1.13-.14c.29-.03.5-.09.63-.16.14-.08.2-.21.2-.4v-.04c0-.5-.13-.87-.4-1.14-.26-.28-.67-.41-1.2-.41a2.07 2.07 0 0 0-1.99 1.15l-1.12-.4a2.73 2.73 0 0 1 1.9-1.63 4.55 4.55 0 0 1 2.01-.07c.32.06.63.18.93.36.3.18.55.45.75.8.2.37.3.85.3 1.46v5.03h-1.17v-1.03h-.06a2.3 2.3 0 0 1-1.14 1.01c-.31.13-.69.2-1.13.2Zm.18-1.06c.46 0 .85-.09 1.17-.27a1.87 1.87 0 0 0 .98-1.61v-1.08a.76.76 0 0 1-.33.17 5.52 5.52 0 0 1-1.21.21l-.5.06c-.3.04-.58.1-.85.2-.26.08-.47.21-.63.39a1 1 0 0 0-.24.7c0 .41.15.72.45.93.3.2.69.3 1.16.3Zm8.78-6.76v1h-3.96v-1h3.96Zm-2.8-1.83h1.17v7.28c0 .33.05.58.14.75.1.16.23.27.38.33a1.99 1.99 0 0 0 1.01.02l.24 1.05a2.5 2.5 0 0 1-.88.14c-.33 0-.65-.07-.97-.21a1.95 1.95 0 0 1-.78-.66 1.83 1.83 0 0 1-.31-1.1v-7.6Zm7.69 9.63a3.26 3.26 0 0 1-3.13-1.86 4.67 4.67 0 0 1-.43-2.06c0-.78.14-1.47.42-2.07.3-.6.7-1.06 1.2-1.4a3.64 3.64 0 0 1 2.99-.3 2.93 2.93 0 0 1 1.82 1.81 5 5 0 0 1 .29 1.8v.5h-5.89v-1.01h4.7c0-.44-.1-.82-.26-1.16a1.94 1.94 0 0 0-1.83-1.1 2.2 2.2 0 0 0-2 1.26 2.6 2.6 0 0 0-.27 1.18v.67c0 .58.1 1.07.3 1.47.2.4.48.7.84.9.36.21.77.31 1.25.31.3 0 .58-.04.83-.12.25-.1.47-.23.65-.4.18-.18.32-.4.42-.67l1.14.32a2.58 2.58 0 0 1-1.65 1.69c-.41.16-.88.24-1.4.24Zm11.13.02c-.49 0-.93-.1-1.32-.27-.4-.19-.7-.46-.94-.8a2.25 2.25 0 0 1-.35-1.28c0-.44.09-.79.26-1.06.17-.28.4-.5.7-.65.28-.15.6-.27.95-.35.35-.07.7-.14 1.06-.18l1.12-.14c.3-.03.5-.09.64-.16.14-.08.2-.21.2-.4v-.04c0-.5-.13-.87-.4-1.14-.26-.28-.67-.41-1.2-.41-.57 0-1 .12-1.33.37-.31.24-.54.5-.67.78l-1.1-.4a2.67 2.67 0 0 1 1.88-1.63 4.55 4.55 0 0 1 2.02-.07c.32.06.63.18.93.36.3.18.55.45.75.8.2.37.3.85.3 1.46v5.03h-1.18v-1.03h-.06a2.28 2.28 0 0 1-1.14 1.01c-.3.13-.68.2-1.12.2Zm.18-1.06c.46 0 .85-.09 1.17-.27a1.86 1.86 0 0 0 .97-1.61v-1.08a.71.71 0 0 1-.32.17 5.52 5.52 0 0 1-1.21.21l-.5.06c-.3.04-.58.1-.85.2-.26.08-.47.21-.64.39a1 1 0 0 0-.23.7c0 .41.15.72.45.93.3.2.69.3 1.16.3Zm6.63-3.71v4.59h-1.17v-7.64h1.13v1.2h.1c.18-.4.45-.7.82-.94.36-.24.83-.36 1.4-.36.53 0 .98.11 1.37.32.38.21.68.53.9.96.22.42.32.96.32 1.6v4.86h-1.17v-4.77c0-.6-.15-1.07-.47-1.4-.3-.34-.74-.51-1.28-.51-.37 0-.7.08-1 .24-.3.16-.53.4-.7.71-.16.32-.25.7-.25 1.14Zm9.9 4.75a2.99 2.99 0 0 1-2.83-1.85c-.27-.6-.41-1.3-.41-2.1 0-.81.14-1.5.41-2.1a3.03 3.03 0 0 1 2.85-1.85 2.12 2.12 0 0 1 1.85.81l.36.5h.1v-3.75h1.17v10.18h-1.13v-1.17h-.14l-.37.52c-.16.21-.38.4-.68.57-.3.16-.69.24-1.18.24Zm.16-1.06c.47 0 .87-.12 1.2-.36.32-.25.57-.6.74-1.03.16-.44.25-.95.25-1.53 0-.57-.09-1.07-.25-1.5a1.96 1.96 0 0 0-1.94-1.37c-.5 0-.91.14-1.24.4-.33.24-.58.59-.74 1.02a4.1 4.1 0 0 0-.25 1.45c0 .55.09 1.04.25 1.48.17.44.42.8.75 1.06s.74.38 1.23.38Zm11.84 1.08c-.49 0-.93-.1-1.32-.27-.4-.19-.7-.46-.94-.8a2.25 2.25 0 0 1-.35-1.28c0-.44.09-.79.26-1.06.17-.28.4-.5.7-.65.28-.15.6-.27.95-.35.35-.07.7-.14 1.06-.18l1.12-.14c.3-.03.5-.09.64-.16.14-.08.2-.21.2-.4v-.04c0-.5-.13-.87-.4-1.14-.26-.28-.67-.41-1.2-.41a2.07 2.07 0 0 0-1.99 1.15l-1.12-.4a2.73 2.73 0 0 1 1.9-1.63 4.55 4.55 0 0 1 2-.07c.33.06.64.18.94.36.3.18.55.45.75.8.2.37.3.85.3 1.46v5.03h-1.18v-1.03h-.05a2.28 2.28 0 0 1-1.14 1.01c-.31.13-.69.2-1.13.2Zm.18-1.06c.46 0 .85-.09 1.17-.27a1.86 1.86 0 0 0 .97-1.61v-1.08c-.04.06-.15.12-.32.17a5.52 5.52 0 0 1-1.21.21l-.5.06c-.3.04-.58.1-.85.2-.26.08-.47.21-.63.39a1 1 0 0 0-.24.7c0 .41.15.72.45.93.3.2.69.3 1.16.3Zm5.46 3.74v-10.5h1.13v1.22h.14l.36-.51a2.1 2.1 0 0 1 1.85-.8 3.03 3.03 0 0 1 2.85 1.84c.27.6.41 1.29.41 2.1 0 .8-.14 1.5-.41 2.1a2.99 2.99 0 0 1-2.83 1.85c-.5 0-.88-.08-1.18-.24-.3-.17-.52-.36-.68-.57a7.52 7.52 0 0 1-.37-.52h-.1v4.03h-1.17Zm1.15-6.68c0 .58.09 1.09.26 1.53a1.93 1.93 0 0 0 1.93 1.39c.5 0 .9-.12 1.23-.38.33-.26.58-.62.74-1.06.17-.44.26-.93.26-1.48a3.9 3.9 0 0 0-.25-1.45 2.25 2.25 0 0 0-.74-1.03 1.96 1.96 0 0 0-1.24-.38 1.96 1.96 0 0 0-1.94 1.37 4.2 4.2 0 0 0-.25 1.5Zm7.38 6.68v-10.5h1.13v1.22h.14l.36-.51c.16-.2.38-.4.67-.56.29-.16.68-.25 1.18-.25a3.02 3.02 0 0 1 2.85 1.85c.27.6.41 1.29.41 2.1 0 .8-.13 1.5-.41 2.1a2.98 2.98 0 0 1-2.83 1.85 2.5 2.5 0 0 1-1.18-.24c-.3-.17-.52-.36-.68-.57a7.88 7.88 0 0 1-.37-.52h-.1v4.03h-1.17Zm1.15-6.68c0 .58.09 1.09.26 1.53.17.44.41.78.74 1.03.32.24.72.36 1.2.36s.9-.12 1.22-.38c.33-.26.58-.62.75-1.06a4.3 4.3 0 0 0 0-2.93c-.16-.43-.4-.78-.74-1.03a1.96 1.96 0 0 0-1.24-.38 1.96 1.96 0 0 0-1.94 1.37 4.2 4.2 0 0 0-.25 1.5Zm-69.31 21.7v-4.52h1.17v7.64h-1.17v-1.3h-.08a2.4 2.4 0 0 1-2.27 1.4c-.47 0-.9-.1-1.27-.31a2.2 2.2 0 0 1-.88-.96 3.63 3.63 0 0 1-.31-1.61v-4.86h1.17v4.78c0 .55.16 1 .47 1.33.31.33.71.5 1.2.5a2 2 0 0 0 1.97-2.1Zm8.73-2.8-1.05.3a1.97 1.97 0 0 0-.3-.52c-.12-.17-.3-.3-.51-.42-.22-.1-.5-.16-.84-.16a2 2 0 0 0-1.17.32.94.94 0 0 0-.46.81c0 .3.1.52.31.7.22.16.55.3 1 .42l1.13.27c.68.17 1.2.42 1.53.77.33.33.5.77.5 1.3 0 .44-.13.83-.38 1.18-.25.34-.6.61-1.04.81-.45.2-.97.3-1.56.3-.78 0-1.43-.17-1.94-.5a2.25 2.25 0 0 1-.97-1.49l1.12-.28c.1.41.3.72.6.93.3.2.69.3 1.17.3.54 0 .98-.11 1.3-.34.33-.24.49-.52.49-.85a.9.9 0 0 0-.28-.66 1.79 1.79 0 0 0-.86-.41l-1.27-.3a3.03 3.03 0 0 1-1.54-.77 1.86 1.86 0 0 1-.49-1.32c0-.43.12-.81.37-1.14.24-.33.57-.6 1-.78.42-.2.9-.28 1.44-.28.75 0 1.35.16 1.78.5.43.32.74.76.92 1.3Zm4.15 6.1c-.48 0-.92-.1-1.31-.27a2.3 2.3 0 0 1-.94-.8 2.25 2.25 0 0 1-.35-1.28c0-.44.09-.79.26-1.06.17-.28.4-.5.69-.65.29-.15.6-.27.95-.35.35-.07.7-.14 1.06-.18l1.13-.14c.3-.03.5-.09.64-.16.13-.08.2-.21.2-.4v-.04c0-.5-.13-.87-.4-1.14-.27-.28-.67-.41-1.21-.41a2.1 2.1 0 0 0-1.99 1.15l-1.11-.4c.2-.46.46-.82.8-1.08.33-.26.7-.44 1.09-.55a4.55 4.55 0 0 1 2.01-.07c.33.06.64.18.93.36.3.18.56.45.76.8.2.37.3.85.3 1.46v5.03h-1.18v-1.03h-.06a2.3 2.3 0 0 1-1.14 1.01c-.3.13-.68.2-1.13.2Zm.18-1.06c.47 0 .86-.09 1.18-.27a1.87 1.87 0 0 0 .97-1.61v-1.08c-.05.06-.16.12-.33.17a5.52 5.52 0 0 1-1.2.21l-.5.06c-.3.04-.59.1-.85.2-.26.08-.48.21-.64.39a1 1 0 0 0-.24.7c0 .41.15.72.45.93.3.2.7.3 1.16.3Zm8.55 3.9a4.2 4.2 0 0 1-1.46-.22 3.08 3.08 0 0 1-1.66-1.3l.93-.66c.1.13.24.3.4.47a2 2 0 0 0 .67.47c.28.14.66.2 1.12.2a2.5 2.5 0 0 0 1.52-.44c.4-.3.6-.76.6-1.4v-1.55h-.1c-.08.14-.2.31-.36.51-.16.2-.38.39-.68.55-.29.15-.68.23-1.18.23a3.2 3.2 0 0 1-1.66-.44 2.99 2.99 0 0 1-1.16-1.27 4.45 4.45 0 0 1-.42-2.03c0-.78.13-1.46.41-2.04a3.03 3.03 0 0 1 2.85-1.83c.5 0 .89.08 1.18.24.3.17.52.35.68.56l.37.5h.12v-1.2h1.13v7.85c0 .66-.15 1.19-.45 1.6-.3.41-.7.72-1.2.91-.49.2-1.04.3-1.65.3Zm-.04-4.2c.47 0 .87-.1 1.2-.32.32-.21.56-.52.73-.93.17-.4.25-.88.25-1.45 0-.55-.08-1.03-.24-1.45a2.19 2.19 0 0 0-.74-1 1.98 1.98 0 0 0-1.2-.35 2 2 0 0 0-1.99 1.4c-.16.41-.24.88-.24 1.4 0 .53.08 1 .25 1.4.17.41.42.73.75.96.33.23.74.35 1.23.35Zm8.69 1.34a3.27 3.27 0 0 1-3.13-1.86 4.68 4.68 0 0 1-.43-2.06c0-.78.14-1.47.43-2.07a3.23 3.23 0 0 1 3.01-1.9c.4 0 .79.06 1.18.2a2.91 2.91 0 0 1 1.82 1.81 5 5 0 0 1 .28 1.8v.5h-5.89v-1.01h4.7c0-.44-.09-.82-.26-1.16a1.94 1.94 0 0 0-1.83-1.1c-.47 0-.87.13-1.21.36-.34.22-.6.52-.78.9-.19.36-.28.75-.28 1.18v.67c0 .58.1 1.07.3 1.47.2.4.48.7.84.9.36.21.77.31 1.25.31.3 0 .59-.04.83-.12a1.72 1.72 0 0 0 1.08-1.07l1.13.32a2.58 2.58 0 0 1-1.64 1.69c-.42.16-.88.24-1.4.24Z" fill="#545454"/><rect x="34.59" y="71.22" width="144.54" height="120.28" rx="3.5" fill="#fff" stroke="#EBEBEB"/><path d="M62.5 103.37h-2.25l4.1-11.64h2.6l4.1 11.64H68.8l-3.1-9.25h-.1l-3.1 9.25Zm.08-4.56h6.13v1.7h-6.13v-1.7Zm11.97-.55v5.11H72.5v-8.73h1.96v1.49h.1c.2-.5.52-.88.96-1.17.45-.29 1-.43 1.65-.43.6 0 1.12.13 1.57.39.45.25.8.63 1.05 1.12.25.48.37 1.08.36 1.77v5.56H78.1v-5.24c0-.58-.15-1.04-.46-1.37a1.6 1.6 0 0 0-1.24-.5c-.36 0-.68.09-.96.25-.28.15-.5.38-.65.67-.16.3-.24.66-.24 1.08Zm8.66 8.38a4.2 4.2 0 0 1-1.34-.21l.48-1.6c.3.08.56.12.8.12.23 0 .44-.08.62-.22s.33-.38.46-.7l.17-.48-3.16-8.9h2.18l2.01 6.58h.1l2.01-6.59h2.19l-3.5 9.79c-.16.46-.37.85-.64 1.18-.27.34-.6.6-1 .77a3.3 3.3 0 0 1-1.38.26Zm19.34-14.9h2.1v7.6a3.99 3.99 0 0 1-2.24 3.68c-.7.35-1.53.53-2.48.53s-1.78-.18-2.49-.53a3.99 3.99 0 0 1-2.23-3.68v-7.6h2.11v7.42a2.4 2.4 0 0 0 1.22 2.19c.4.21.86.32 1.4.32.53 0 .99-.11 1.38-.32a2.48 2.48 0 0 0 1.23-2.19v-7.43Zm11.2 5.21-1.87.2a1.5 1.5 0 0 0-.8-.93 1.9 1.9 0 0 0-.81-.16c-.43 0-.79.1-1.08.28-.29.19-.43.43-.43.72 0 .26.1.46.28.62.2.16.51.3.96.4l1.49.31c.82.18 1.44.46 1.84.85.4.39.6.9.61 1.52 0 .55-.16 1.03-.48 1.45a3.1 3.1 0 0 1-1.31.98c-.57.23-1.21.35-1.94.35a4.48 4.48 0 0 1-2.58-.67 2.7 2.7 0 0 1-1.16-1.88l2-.2c.1.4.29.7.58.9.3.2.68.3 1.16.3.49 0 .88-.1 1.17-.3.3-.2.45-.45.45-.75 0-.25-.1-.45-.29-.61a2.02 2.02 0 0 0-.88-.38l-1.5-.31a3.54 3.54 0 0 1-1.85-.88 2.2 2.2 0 0 1-.6-1.58c0-.54.15-1 .44-1.4.3-.4.71-.7 1.24-.92a4.82 4.82 0 0 1 1.85-.33c1.02 0 1.83.22 2.42.65.59.44.95 1.03 1.1 1.77Zm5.75 6.6c-.88 0-1.63-.2-2.27-.55a3.69 3.69 0 0 1-1.46-1.56 5.22 5.22 0 0 1-.5-2.38c0-.9.16-1.69.5-2.37a3.86 3.86 0 0 1 3.62-2.16c.54 0 1.05.09 1.53.26s.9.44 1.27.8c.37.36.66.81.87 1.37.22.55.32 1.21.32 1.98v.63h-7.15v-1.39h5.18c0-.4-.09-.74-.26-1.05a1.89 1.89 0 0 0-1.73-1 2 2 0 0 0-1.1.3c-.33.2-.57.47-.75.8a2.3 2.3 0 0 0-.27 1.08v1.2c0 .52.1.95.28 1.31.19.37.45.64.78.83.33.2.72.29 1.17.29.3 0 .57-.04.81-.13.24-.08.45-.21.63-.38.18-.16.31-.37.4-.62l1.92.22a3 3 0 0 1-.69 1.33c-.33.37-.77.67-1.3.87-.52.2-1.12.31-1.8.31Zm5.62-.18v-8.73h2v1.46h.09a2.18 2.18 0 0 1 2.15-1.58 4.73 4.73 0 0 1 .74.05v1.9a3.8 3.8 0 0 0-.96-.12c-.37 0-.7.08-1 .24a1.8 1.8 0 0 0-.96 1.65v5.13h-2.06Zm14.12.17c-.85 0-1.6-.19-2.22-.56a3.81 3.81 0 0 1-1.45-1.58 5.17 5.17 0 0 1-.51-2.36c0-.9.17-1.7.51-2.37a3.8 3.8 0 0 1 1.45-1.58 4.23 4.23 0 0 1 2.22-.56 3.8 3.8 0 0 1 3.66 2.14c.35.68.52 1.47.52 2.37 0 .9-.17 1.69-.51 2.36-.35.68-.83 1.2-1.45 1.58a4.3 4.3 0 0 1-2.22.56Zm.01-1.65c.46 0 .85-.12 1.16-.38.31-.26.54-.6.7-1.03.15-.43.23-.91.23-1.44 0-.54-.08-1.02-.24-1.45a2.3 2.3 0 0 0-.69-1.04c-.31-.26-.7-.39-1.16-.39-.47 0-.87.13-1.18.39-.31.25-.54.6-.7 1.04-.15.43-.23.91-.23 1.45 0 .53.08 1 .23 1.44.16.43.39.77.7 1.03.31.26.7.38 1.18.38Zm7.97-3.63v5.11h-2.05v-8.73h1.96v1.49h.1c.2-.5.53-.88.97-1.17.44-.29.99-.43 1.64-.43.6 0 1.13.13 1.57.39.45.25.8.63 1.05 1.12.25.48.37 1.08.37 1.77v5.56h-2.06v-5.24c0-.58-.15-1.04-.46-1.37a1.6 1.6 0 0 0-1.24-.5c-.36 0-.68.09-.96.25-.28.15-.5.38-.65.67-.16.3-.24.66-.24 1.08Zm-58.27 29.11H86.7l4.1-11.64h2.6l4.1 11.64h-2.25l-3.1-9.25h-.1l-3.1 9.25Zm.07-4.56h6.14v1.7h-6.14v-1.7Zm13.73-4.17v1.6h-5.01v-1.6h5.01Zm-3.78-2.09h2.06v8.2c0 .27.04.48.13.63.08.15.2.24.34.3.14.05.3.08.46.08a2 2 0 0 0 .6-.08l.35 1.6a4.47 4.47 0 0 1-1.2.21 3.3 3.3 0 0 1-1.4-.23 2.17 2.17 0 0 1-.98-.81 2.4 2.4 0 0 1-.36-1.36v-8.54Zm9.22 11c-.86 0-1.6-.2-2.22-.57a3.76 3.76 0 0 1-1.45-1.58 5.17 5.17 0 0 1-.52-2.36c0-.9.17-1.7.52-2.37.34-.68.82-1.2 1.45-1.58a4.23 4.23 0 0 1 2.22-.56 3.82 3.82 0 0 1 3.66 2.14c.34.68.52 1.47.52 2.37 0 .9-.18 1.69-.52 2.36-.34.68-.82 1.2-1.45 1.58-.62.37-1.36.56-2.22.56Zm0-1.66c.47 0 .86-.12 1.17-.38.3-.26.54-.6.69-1.03.15-.43.23-.92.23-1.45 0-.53-.08-1.01-.23-1.44a2.3 2.3 0 0 0-.7-1.04c-.3-.26-.7-.39-1.15-.39-.48 0-.87.13-1.19.39-.3.25-.54.6-.7 1.04a4.63 4.63 0 0 0 .01 2.89c.15.43.38.77.7 1.03.3.26.7.38 1.18.38Zm5.92 1.48v-8.73h1.97v1.49h.1c.18-.5.48-.9.9-1.17a2.6 2.6 0 0 1 1.51-.43c.6 0 1.09.14 1.5.43.4.29.7.67.86 1.17h.09c.2-.49.52-.88.98-1.16.46-.3 1-.44 1.64-.44.8 0 1.46.25 1.96.76.51.5.77 1.25.77 2.22v5.86h-2.07v-5.54c0-.54-.14-.94-.43-1.19a1.54 1.54 0 0 0-1.06-.38c-.5 0-.88.16-1.16.47-.28.3-.42.7-.42 1.2v5.44h-2.01v-5.63c0-.44-.14-.8-.41-1.07-.27-.27-.62-.4-1.06-.4a1.54 1.54 0 0 0-1.38.85 1.9 1.9 0 0 0-.22.94v5.31h-2.06Z" fill="#545454"/><path d="M52.43 141.73c-.06-.5-.3-.9-.73-1.17a2.78 2.78 0 0 0-1.56-.42c-.45 0-.85.08-1.18.22-.34.15-.6.35-.79.6a1.45 1.45 0 0 0-.08 1.57c.13.2.3.36.5.49.2.12.42.23.65.31l.62.2 1.03.27c.27.07.56.17.89.3.33.11.64.28.94.5a2.32 2.32 0 0 1 1.04 2.01 2.76 2.76 0 0 1-1.69 2.55 4.6 4.6 0 0 1-2 .39 4.8 4.8 0 0 1-1.89-.35 2.81 2.81 0 0 1-1.76-2.45h1.27c.04.38.16.7.39.95s.52.43.87.56a3.51 3.51 0 0 0 2.4-.05c.37-.16.67-.37.89-.65.22-.28.32-.6.32-.97 0-.34-.09-.62-.28-.83a2.07 2.07 0 0 0-.74-.52 7.34 7.34 0 0 0-1-.34l-1.26-.36a4.67 4.67 0 0 1-1.89-.98c-.46-.43-.7-.98-.7-1.67 0-.57.16-1.06.47-1.49a3.1 3.1 0 0 1 1.25-1 4.24 4.24 0 0 1 1.77-.35c.65 0 1.24.12 1.75.35.5.23.91.55 1.21.96.3.4.46.86.48 1.37h-1.2Zm6.4 7.8a3.27 3.27 0 0 1-3.13-1.86 4.68 4.68 0 0 1-.43-2.06c0-.78.14-1.47.43-2.07a3.23 3.23 0 0 1 3.01-1.9c.4 0 .79.06 1.18.2a2.92 2.92 0 0 1 1.82 1.81 5 5 0 0 1 .28 1.8v.5H56.1v-1.01h4.7c0-.44-.09-.82-.26-1.16a1.94 1.94 0 0 0-1.83-1.1 2.23 2.23 0 0 0-2 1.26 2.6 2.6 0 0 0-.27 1.18v.67c0 .58.1 1.07.3 1.47.2.4.48.7.84.9.36.21.77.31 1.25.31.3 0 .58-.04.83-.12a1.72 1.72 0 0 0 1.08-1.07l1.13.32a2.58 2.58 0 0 1-1.65 1.69c-.41.16-.88.24-1.4.24Zm7.2.02c-.5 0-.93-.1-1.33-.27-.39-.19-.7-.46-.94-.8a2.25 2.25 0 0 1-.34-1.28c0-.44.08-.79.26-1.06.17-.28.4-.5.69-.65.28-.15.6-.27.95-.35.35-.07.7-.14 1.06-.18l1.13-.14c.29-.03.5-.09.63-.16.14-.08.2-.21.2-.4v-.04c0-.5-.13-.87-.4-1.14-.26-.28-.66-.41-1.2-.41a2.1 2.1 0 0 0-1.99 1.15l-1.11-.4c.2-.46.46-.82.8-1.08.33-.26.69-.44 1.08-.55a4.54 4.54 0 0 1 2.02-.07c.32.06.63.18.93.36.3.18.55.45.75.8.2.37.3.85.3 1.46v5.03h-1.17v-1.03h-.06a2.28 2.28 0 0 1-1.14 1.01c-.3.13-.68.2-1.13.2Zm.17-1.06c.46 0 .86-.09 1.17-.27a1.86 1.86 0 0 0 .98-1.61v-1.08c-.05.06-.16.12-.33.17a5.5 5.5 0 0 1-1.2.21l-.5.06a4 4 0 0 0-.86.2c-.26.08-.47.21-.63.39a1 1 0 0 0-.24.7c0 .41.15.72.45.93.3.2.7.3 1.16.3Zm5.46.88v-7.64h1.14v1.16h.08c.14-.38.39-.69.75-.92a2.2 2.2 0 0 1 1.23-.35 10.34 10.34 0 0 1 .62.01v1.2a3.47 3.47 0 0 0-.71-.08c-.38 0-.7.08-1 .23a1.72 1.72 0 0 0-.93 1.56v4.83h-1.18Zm8.08.16a3.3 3.3 0 0 1-1.85-.5 3.3 3.3 0 0 1-1.2-1.4 4.73 4.73 0 0 1-.4-2.04c0-.77.13-1.46.42-2.05a3.23 3.23 0 0 1 3.01-1.9c.54 0 1.02.1 1.45.3a2.6 2.6 0 0 1 1.57 2.09h-1.17a1.78 1.78 0 0 0-1.83-1.33 1.9 1.9 0 0 0-1.2.35c-.34.23-.6.56-.8 1a3.7 3.7 0 0 0-.28 1.5 4 4 0 0 0 .27 1.54c.2.44.46.78.8 1.02s.75.36 1.21.36c.3 0 .58-.05.83-.15a1.71 1.71 0 0 0 1-1.18h1.17a2.71 2.71 0 0 1-1.52 2.08c-.42.2-.91.3-1.48.3Zm5.9-4.75v4.59h-1.18v-10.18h1.17v3.74h.1c.18-.4.45-.71.8-.94a2.6 2.6 0 0 1 1.45-.36c.52 0 .98.1 1.37.32.39.2.7.52.9.95.23.42.33.96.33 1.62v4.85h-1.17v-4.77c0-.6-.16-1.08-.47-1.4a1.67 1.67 0 0 0-1.3-.51c-.38 0-.73.08-1.03.24-.3.16-.54.4-.72.71-.17.32-.26.7-.26 1.14Zm11.19 4.59v-10.18H98v3.76h.1l.36-.51a2.12 2.12 0 0 1 1.85-.81 3.03 3.03 0 0 1 2.85 1.85c.27.6.41 1.29.41 2.1 0 .8-.14 1.5-.41 2.1a2.98 2.98 0 0 1-2.83 1.85c-.5 0-.89-.08-1.18-.24-.3-.17-.52-.36-.68-.57a7.58 7.58 0 0 1-.37-.52h-.14v1.17h-1.13Zm1.15-3.82c0 .58.09 1.09.26 1.53a1.93 1.93 0 0 0 1.93 1.39c.49 0 .9-.12 1.23-.38.33-.26.58-.62.74-1.06.17-.44.26-.93.26-1.48 0-.54-.09-1.02-.25-1.45a2.25 2.25 0 0 0-.74-1.03 1.96 1.96 0 0 0-1.24-.38 1.96 1.96 0 0 0-1.94 1.37 4 4 0 0 0-.25 1.5Zm7.87 6.68a2.57 2.57 0 0 1-.86-.13l.3-1.04c.28.07.54.1.75.08a.9.9 0 0 0 .59-.3c.17-.16.33-.45.47-.83l.22-.6-2.83-7.68h1.28l2.1 6.09h.08l2.11-6.09h1.27l-3.24 8.75c-.14.4-.32.73-.54.98a1.9 1.9 0 0 1-.75.58c-.28.13-.6.2-.95.2Zm14.17-2.7a3.27 3.27 0 0 1-3.13-1.86 4.68 4.68 0 0 1-.43-2.06c0-.78.15-1.47.43-2.07a3.23 3.23 0 0 1 3.01-1.9c.4 0 .8.06 1.18.2a2.91 2.91 0 0 1 1.82 1.81 5 5 0 0 1 .28 1.8v.5h-5.88v-1.01h4.7c0-.44-.1-.82-.27-1.16a1.94 1.94 0 0 0-1.83-1.1c-.46 0-.87.13-1.2.36-.35.22-.6.52-.79.9a2.6 2.6 0 0 0-.27 1.18v.67c0 .58.1 1.07.3 1.47.2.4.48.7.84.9.35.21.77.31 1.24.31.31 0 .59-.04.84-.12.25-.1.47-.23.65-.4.18-.18.32-.4.42-.67l1.14.32c-.12.39-.32.72-.6 1.02a3.32 3.32 0 0 1-2.45.91Zm4.95-.16v-7.64h1.13v1.2h.1c.16-.41.42-.73.77-.95a2.3 2.3 0 0 1 1.28-.34 2.12 2.12 0 0 1 2.05 1.29h.08c.2-.4.49-.71.88-.94.39-.24.86-.36 1.4-.36.69 0 1.25.22 1.68.65.44.42.65 1.08.65 1.98v5.11h-1.17v-5.11c0-.56-.16-.97-.46-1.2a1.68 1.68 0 0 0-1.1-.37c-.53 0-.94.16-1.24.49-.3.32-.44.72-.44 1.22v4.97h-1.2v-5.23c0-.43-.14-.78-.42-1.05a1.5 1.5 0 0 0-1.09-.4c-.3 0-.59.08-.85.24-.26.16-.48.39-.64.68a2 2 0 0 0-.24.99v4.77h-1.17Zm14.41.18c-.48 0-.92-.1-1.31-.27a2.3 2.3 0 0 1-.94-.8 2.25 2.25 0 0 1-.35-1.28c0-.44.09-.79.26-1.06.17-.28.4-.5.69-.65.29-.15.6-.27.95-.35.35-.07.7-.14 1.06-.18l1.13-.14c.3-.03.5-.09.64-.16.13-.08.2-.21.2-.4v-.04c0-.5-.13-.87-.4-1.14-.27-.28-.67-.41-1.2-.41-.57 0-1 .12-1.33.37-.31.24-.54.5-.67.78l-1.11-.4c.2-.46.46-.82.8-1.08.33-.26.7-.44 1.09-.55a4.55 4.55 0 0 1 2.02-.07c.32.06.63.18.93.36.3.18.55.45.75.8.2.37.3.85.3 1.46v5.03h-1.18v-1.03h-.06a2.27 2.27 0 0 1-1.14 1.01c-.3.13-.68.2-1.13.2Zm.18-1.06c.47 0 .86-.09 1.18-.27a1.86 1.86 0 0 0 .97-1.61v-1.08c-.05.06-.16.12-.33.17a5.52 5.52 0 0 1-1.2.21l-.5.06c-.3.04-.59.1-.85.2-.26.08-.48.21-.64.39a1 1 0 0 0-.24.7c0 .41.15.72.46.93.3.2.69.3 1.15.3Zm5.47.88v-7.64h1.17v7.64h-1.17Zm.6-8.9a.84.84 0 0 1-.6-.24.75.75 0 0 1-.24-.56c0-.22.08-.41.24-.57a.83.83 0 0 1 .6-.23c.22 0 .42.08.58.23.16.16.25.35.25.57 0 .22-.09.4-.25.56a.82.82 0 0 1-.59.23Zm3.9-1.28v10.18h-1.18v-10.18h1.17Zm9.18 10.34a3.2 3.2 0 0 1-1.81-.5 3.34 3.34 0 0 1-1.22-1.37 4.66 4.66 0 0 1-.43-2.07c0-.8.15-1.49.43-2.08a3.3 3.3 0 0 1 3.03-1.88 3.28 3.28 0 0 1 3.02 1.88c.3.6.44 1.29.44 2.08a4.6 4.6 0 0 1-.44 2.07 3.26 3.26 0 0 1-1.21 1.38 3.3 3.3 0 0 1-1.8.49Zm0-1.06c.52 0 .95-.13 1.3-.4.33-.27.58-.62.74-1.06a4.1 4.1 0 0 0 0-2.85 2.4 2.4 0 0 0-.75-1.06 2 2 0 0 0-1.29-.41 2 2 0 0 0-1.3.4c-.33.28-.58.63-.74 1.07a4.1 4.1 0 0 0-.25 1.43c0 .51.09.99.25 1.42.16.44.41.8.75 1.06.34.27.77.4 1.3.4Zm5.25.9v-7.64h1.14v1.16h.08c.13-.38.39-.69.75-.92.36-.24.78-.35 1.23-.35a10.33 10.33 0 0 1 .62.01v1.2a3.5 3.5 0 0 0-.72-.08c-.37 0-.7.08-.99.23a1.71 1.71 0 0 0-.94 1.56v4.83h-1.17Zm-83.81 17.88v-4.52h1.17v7.64h-1.17v-1.3h-.08a2.4 2.4 0 0 1-2.27 1.4c-.48 0-.9-.1-1.27-.31a2.2 2.2 0 0 1-.88-.96 3.63 3.63 0 0 1-.32-1.61v-4.86h1.18v4.78c0 .55.15 1 .46 1.33.32.33.72.5 1.2.5a2 2 0 0 0 1.98-2.1Zm8.73-2.8-1.06.3a1.97 1.97 0 0 0-.29-.52c-.13-.17-.3-.3-.52-.42-.22-.1-.5-.16-.84-.16a2 2 0 0 0-1.16.32c-.31.21-.47.48-.47.81 0 .3.1.52.32.7.21.16.54.3 1 .42l1.13.27c.68.17 1.19.42 1.53.77.33.33.5.77.5 1.3 0 .44-.13.83-.38 1.18-.25.34-.6.61-1.04.81-.45.2-.97.3-1.57.3a3.5 3.5 0 0 1-1.93-.5 2.25 2.25 0 0 1-.97-1.49l1.11-.28c.11.41.31.72.6.93.3.2.7.3 1.17.3.55 0 .99-.11 1.3-.34.33-.24.5-.52.5-.85a.9.9 0 0 0-.28-.66 1.79 1.79 0 0 0-.86-.41l-1.27-.3a3.04 3.04 0 0 1-1.54-.77 1.86 1.86 0 0 1-.5-1.32c0-.43.13-.81.37-1.14.25-.33.58-.6 1-.78.43-.2.9-.28 1.44-.28.76 0 1.35.16 1.78.5.44.32.75.76.93 1.3Zm5.1 6.08a3.27 3.27 0 0 1-3.13-1.86 4.68 4.68 0 0 1-.42-2.06c0-.78.14-1.47.42-2.07.3-.6.7-1.06 1.2-1.4a3.63 3.63 0 0 1 2.99-.3 2.92 2.92 0 0 1 1.82 1.81 5 5 0 0 1 .29 1.8v.5h-5.89v-1.01h4.7c0-.44-.1-.82-.26-1.16a1.94 1.94 0 0 0-1.83-1.1c-.47 0-.88.13-1.22.36-.34.22-.6.52-.78.9a2.6 2.6 0 0 0-.27 1.18v.67c0 .58.1 1.07.3 1.47.2.4.48.7.84.9.36.21.77.31 1.25.31.3 0 .58-.04.83-.12.25-.1.47-.23.65-.4.18-.18.32-.4.42-.67l1.14.32a2.58 2.58 0 0 1-1.65 1.69c-.41.16-.88.24-1.4.24Zm4.95-.16v-7.64h1.13v1.16h.08c.14-.38.4-.69.76-.92.36-.24.78-.35 1.23-.35a10.39 10.39 0 0 1 .62.01v1.2a3.47 3.47 0 0 0-.72-.08c-.37 0-.7.08-.99.23a1.71 1.71 0 0 0-.94 1.56v4.83h-1.17Zm6.38-4.6v4.6h-1.17v-7.64h1.13v1.2h.1c.18-.4.45-.7.82-.94a2.5 2.5 0 0 1 1.41-.36c.52 0 .97.11 1.36.32.39.21.69.53.9.96.22.42.33.96.33 1.6v4.86H109v-4.77c0-.6-.15-1.07-.46-1.4a1.67 1.67 0 0 0-1.29-.51c-.37 0-.7.08-1 .24-.3.16-.52.4-.7.71-.16.32-.25.7-.25 1.14Zm9.27 4.78c-.49 0-.93-.1-1.32-.27-.4-.19-.7-.46-.94-.8a2.25 2.25 0 0 1-.35-1.28c0-.44.09-.79.26-1.06.17-.28.4-.5.7-.65.28-.15.6-.27.95-.35.35-.07.7-.14 1.06-.18l1.12-.14c.3-.03.5-.09.64-.16.14-.08.2-.21.2-.4v-.04c0-.5-.13-.87-.4-1.14-.26-.28-.67-.41-1.2-.41a2.07 2.07 0 0 0-1.99 1.15l-1.12-.4a2.67 2.67 0 0 1 1.89-1.63 4.55 4.55 0 0 1 2.02-.07c.32.06.63.18.93.36.3.18.55.45.75.8.2.37.3.85.3 1.46v5.03h-1.18v-1.03h-.06a2.3 2.3 0 0 1-1.14 1.01c-.3.13-.68.2-1.12.2Zm.18-1.06c.46 0 .85-.09 1.17-.27a1.86 1.86 0 0 0 .97-1.61v-1.08a.71.71 0 0 1-.32.17 5.52 5.52 0 0 1-1.21.21l-.5.06c-.3.04-.58.1-.85.2-.26.08-.47.21-.64.39a1 1 0 0 0-.23.7c0 .41.15.72.45.93.3.2.69.3 1.16.3Zm5.46.88v-7.64h1.13v1.2h.1c.16-.41.42-.73.77-.95a2.3 2.3 0 0 1 1.28-.34 2.12 2.12 0 0 1 2.05 1.29h.08c.2-.4.49-.71.88-.94.39-.24.86-.36 1.4-.36.69 0 1.25.22 1.68.65.43.42.65 1.08.65 1.98v5.11h-1.17v-5.11c0-.56-.16-.97-.46-1.2a1.7 1.7 0 0 0-1.1-.37c-.53 0-.95.16-1.24.49-.3.32-.44.72-.44 1.22v4.97h-1.2v-5.23c0-.43-.14-.78-.42-1.05a1.5 1.5 0 0 0-1.09-.4c-.3 0-.59.08-.85.24-.27.16-.48.39-.64.68a2 2 0 0 0-.24.99v4.77h-1.17Zm15.37.16a3.6 3.6 0 0 1-1.9-.49 3.27 3.27 0 0 1-1.23-1.37 4.68 4.68 0 0 1-.43-2.06c0-.78.14-1.47.43-2.07a3.23 3.23 0 0 1 3.01-1.9c.4 0 .79.06 1.18.2a2.91 2.91 0 0 1 1.82 1.81 5 5 0 0 1 .28 1.8v.5h-5.89v-1.01h4.7c0-.44-.09-.82-.26-1.16a1.94 1.94 0 0 0-1.83-1.1c-.47 0-.87.13-1.21.36-.34.22-.6.52-.78.9-.19.36-.28.75-.28 1.18v.67c0 .58.1 1.07.3 1.47.2.4.48.7.84.9.36.21.78.31 1.25.31.3 0 .59-.04.83-.12.26-.1.47-.23.66-.4.18-.18.32-.4.42-.67l1.13.32a2.58 2.58 0 0 1-1.64 1.69c-.42.16-.88.24-1.4.24Z" fill="#757575"/></svg>