<svg width="672" height="166" fill="none" xmlns="http://www.w3.org/2000/svg"><path fill="#F3F8FF" d="M0 0h218.67v166H0z"/><path d="M92.41 40V29.82h3.56c.7 0 1.3.12 1.75.37.47.24.8.56 1.03.98.23.4.34.86.34 1.35 0 .44-.08.8-.23 1.09-.15.28-.36.5-.6.67-.26.17-.53.3-.82.37v.1a2 2 0 0 1 .94.33c.32.2.58.48.8.85.2.37.31.83.31 1.37 0 .5-.12.96-.35 1.37-.23.41-.6.73-1.1.97-.5.24-1.15.36-1.95.36H92.4Zm1.23-1.1h2.45c.8 0 1.38-.15 1.71-.46.35-.32.52-.7.52-1.14a1.9 1.9 0 0 0-1.01-1.66 2.4 2.4 0 0 0-1.16-.27h-2.5v3.54Zm0-4.6h2.29c.37 0 .7-.08 1-.23a1.63 1.63 0 0 0 .98-1.55c0-.44-.15-.82-.46-1.14-.31-.31-.8-.47-1.48-.47h-2.33v3.38Zm9.96 5.88c-.48 0-.92-.1-1.31-.27a2.3 2.3 0 0 1-.94-.8 2.26 2.26 0 0 1-.35-1.28c0-.44.08-.79.26-1.06.17-.28.4-.5.69-.65.29-.15.6-.27.95-.35.35-.08.7-.14 1.06-.18l1.13-.14c.3-.03.5-.09.64-.16.13-.08.2-.21.2-.4v-.04c0-.5-.13-.87-.4-1.14-.27-.28-.67-.41-1.21-.41a2.1 2.1 0 0 0-1.99 1.15l-1.11-.4c.2-.46.46-.82.8-1.08.33-.26.7-.44 1.09-.55a4.53 4.53 0 0 1 2.02-.07c.32.06.63.18.93.36.3.18.55.45.75.8.2.37.3.85.3 1.46V40h-1.18v-1.03h-.06a2.3 2.3 0 0 1-1.14 1.01c-.3.13-.68.2-1.13.2Zm.18-1.05c.47 0 .86-.1 1.18-.28a1.86 1.86 0 0 0 .97-1.61v-1.08c-.05.06-.16.12-.33.17a5.53 5.53 0 0 1-1.2.21l-.5.06c-.3.04-.59.1-.85.2-.27.08-.48.21-.64.39a1 1 0 0 0-.24.7c0 .41.15.72.45.93.3.2.7.3 1.16.3Zm10.87-5.06-1.05.3a1.95 1.95 0 0 0-.3-.51c-.12-.17-.3-.3-.51-.42-.22-.1-.5-.16-.84-.16a2 2 0 0 0-1.17.32c-.3.21-.46.48-.46.81 0 .3.1.52.32.7.2.16.54.3 1 .42l1.13.27c.68.17 1.19.42 1.52.76.34.34.5.78.5 1.31 0 .44-.12.83-.37 1.18-.25.34-.6.61-1.05.81-.45.2-.97.3-1.56.3-.78 0-1.42-.17-1.93-.5a2.25 2.25 0 0 1-.97-1.49l1.11-.28c.1.41.3.72.6.93.3.2.69.3 1.17.3.55 0 .98-.11 1.3-.34.33-.24.49-.52.49-.85a.9.9 0 0 0-.28-.66 1.78 1.78 0 0 0-.85-.41l-1.28-.3a3.04 3.04 0 0 1-1.54-.77 1.87 1.87 0 0 1-.48-1.32c0-.43.12-.81.36-1.14.24-.33.58-.6 1-.78.42-.2.9-.29 1.44-.29.75 0 1.35.17 1.78.5.43.33.74.77.92 1.31Zm5.11 6.09a3.6 3.6 0 0 1-1.9-.49 3.28 3.28 0 0 1-1.23-1.37 4.68 4.68 0 0 1-.43-2.06c0-.78.14-1.47.43-2.07a3.23 3.23 0 0 1 3.01-1.9c.4 0 .8.06 1.18.2a2.92 2.92 0 0 1 1.82 1.81 5 5 0 0 1 .28 1.8v.5h-5.88v-1.01h4.69c0-.44-.09-.82-.26-1.16a1.95 1.95 0 0 0-1.83-1.1c-.47 0-.87.12-1.21.36-.34.22-.6.52-.78.9-.18.36-.28.75-.28 1.17v.68c0 .58.1 1.07.3 1.47.2.4.49.7.84.9.36.21.78.32 1.25.32.31 0 .59-.05.84-.13.25-.1.47-.23.65-.4.18-.18.32-.4.42-.67l1.13.32a2.5 2.5 0 0 1-.6 1.01c-.28.3-.63.52-1.04.68-.42.16-.88.24-1.4.24Zm5.8-.08a.86.86 0 0 1-.63-.26.86.86 0 0 1-.26-.64.9.9 0 0 1 .26-.63.86.86 0 0 1 .63-.26c.25 0 .46.09.63.26a.86.86 0 0 1 .14 1.08.93.93 0 0 1-.32.33.85.85 0 0 1-.45.12Zm0-5.67a.86.86 0 0 1-.63-.26.86.86 0 0 1-.26-.63c0-.25.09-.46.26-.63a.86.86 0 0 1 .63-.27c.25 0 .46.09.63.27.18.17.27.38.27.63 0 .16-.04.3-.13.44a.93.93 0 0 1-.32.33.85.85 0 0 1-.45.12Z" fill="#000"/><rect x="21.83" y="54.5" width="79" height="35" rx="7.5" fill="#fff"/><path d="M49.13 75.02a4.2 4.2 0 0 1-1.46-.22A3.1 3.1 0 0 1 46 73.5l.93-.66c.1.13.24.3.4.47.16.18.39.34.67.47.28.14.66.2 1.12.2.61 0 1.12-.14 1.52-.44.4-.3.6-.76.6-1.4v-1.55h-.1c-.08.14-.2.31-.36.52-.16.2-.38.38-.68.54-.29.15-.68.23-1.18.23a3.07 3.07 0 0 1-2.82-1.71 4.45 4.45 0 0 1-.42-2.03c0-.78.13-1.46.41-2.04a3.03 3.03 0 0 1 2.85-1.83c.5 0 .89.08 1.18.24.3.17.52.35.68.56l.37.5h.12v-1.2h1.13v7.85c0 .66-.15 1.19-.45 1.6-.3.41-.7.72-1.2.9-.49.2-1.04.3-1.65.3Zm-.04-4.2c.47 0 .87-.1 1.2-.32.32-.21.56-.52.73-.93.17-.4.26-.88.26-1.45 0-.55-.09-1.03-.25-1.45a2.19 2.19 0 0 0-.74-1 1.98 1.98 0 0 0-1.2-.35 2 2 0 0 0-1.99 1.39c-.16.42-.24.9-.24 1.41 0 .53.08 1 .25 1.4.17.41.42.73.74.96.34.23.75.35 1.24.35ZM54.58 72v-7.64h1.13v1.16h.08c.14-.38.4-.69.76-.92.36-.24.77-.36 1.23-.36a13.1 13.1 0 0 1 .61.02v1.2a3.45 3.45 0 0 0-.71-.08c-.37 0-.7.08-1 .23a1.71 1.71 0 0 0-.93 1.56V72h-1.17Zm8.17.16a3.27 3.27 0 0 1-3.13-1.86 4.68 4.68 0 0 1-.43-2.06c0-.78.15-1.47.43-2.07.3-.6.7-1.06 1.2-1.4a3.62 3.62 0 0 1 2.99-.3 2.92 2.92 0 0 1 1.82 1.81 5 5 0 0 1 .29 1.8v.5h-5.89v-1.01h4.7c0-.44-.1-.82-.27-1.16a1.95 1.95 0 0 0-1.82-1.1c-.47 0-.88.12-1.22.36-.34.22-.6.52-.78.9-.18.36-.27.75-.27 1.17v.68c0 .58.1 1.07.3 1.47.2.4.48.7.84.9a2.7 2.7 0 0 0 2.08.19c.25-.1.47-.23.65-.4.18-.18.32-.4.42-.67l1.14.32c-.12.38-.32.72-.6 1.01-.29.3-.63.52-1.05.68-.41.16-.88.24-1.4.24Zm5.47 2.7a2.57 2.57 0 0 1-.85-.14l.3-1.03c.28.07.53.1.75.08a.9.9 0 0 0 .59-.3c.17-.17.32-.45.47-.83l.22-.6-2.83-7.68h1.27l2.11 6.09h.08l2.11-6.09h1.27l-3.24 8.75c-.14.4-.32.72-.54.98-.22.26-.47.46-.75.58-.28.13-.6.2-.96.2Zm10.6-13.04V72H77.6v-8.89h-.06l-2.49 1.65v-1.25l2.55-1.7h1.23Z" fill="#333"/><rect x="21.83" y="54.5" width="79" height="35" rx="7.5" stroke="#EBEBEB"/><rect x="21.83" y="106.5" width="79" height="35" rx="7.5" fill="#F6F6F6"/><path d="M48.14 127.02c-.56 0-1.05-.07-1.46-.22a3.1 3.1 0 0 1-1.66-1.3l.94-.67c.1.14.24.3.4.48.16.19.38.34.66.47.29.14.66.2 1.12.2.62 0 1.13-.14 1.53-.44.4-.3.6-.76.6-1.4v-1.55h-.1c-.08.14-.2.31-.37.52-.15.2-.38.38-.67.54-.3.15-.69.23-1.19.23a3.06 3.06 0 0 1-2.82-1.71 4.45 4.45 0 0 1-.42-2.03c0-.78.14-1.46.42-2.04a3.03 3.03 0 0 1 2.85-1.84c.5 0 .89.09 1.18.25.3.16.52.35.67.56.16.2.29.37.37.5h.12v-1.2h1.13v7.85c0 .66-.14 1.19-.44 1.6-.3.41-.7.72-1.2.9-.5.2-1.05.3-1.66.3Zm-.04-4.2c.47 0 .87-.1 1.2-.32.32-.21.57-.52.74-.93.17-.4.25-.88.25-1.45 0-.55-.08-1.03-.25-1.45a2.2 2.2 0 0 0-.73-1 1.97 1.97 0 0 0-1.2-.35 2 2 0 0 0-1.99 1.39c-.16.42-.24.9-.24 1.41 0 .53.08 1 .24 1.4.17.41.42.73.75.96.33.23.74.35 1.23.35Zm5.5 1.18v-7.64h1.13v1.16h.08c.13-.38.39-.69.75-.92.37-.24.78-.36 1.23-.36a14.78 14.78 0 0 1 .62.02v1.2a3.66 3.66 0 0 0-.72-.08c-.37 0-.7.08-.99.23a1.71 1.71 0 0 0-.93 1.56V124h-1.18Zm8.17.16a3.27 3.27 0 0 1-3.13-1.86 4.68 4.68 0 0 1-.43-2.06c0-.78.14-1.47.43-2.07a3.23 3.23 0 0 1 3.01-1.9c.4 0 .8.06 1.18.2a2.93 2.93 0 0 1 1.82 1.81 5 5 0 0 1 .28 1.8v.5h-5.88v-1.02h4.69c0-.43-.09-.81-.26-1.15a1.94 1.94 0 0 0-1.83-1.1c-.47 0-.87.12-1.21.36-.34.22-.6.52-.78.9-.18.36-.28.75-.28 1.17v.68c0 .58.1 1.07.3 1.47.2.4.48.7.84.9a2.8 2.8 0 0 0 2.09.19c.25-.1.46-.23.65-.4.18-.18.32-.4.42-.67l1.13.32a2.5 2.5 0 0 1-.6 1.01c-.28.3-.63.52-1.04.68-.42.16-.88.24-1.4.24Zm5.47 2.7a2.58 2.58 0 0 1-.85-.14l.3-1.03c.28.07.53.1.75.08a.9.9 0 0 0 .58-.3c.17-.17.33-.45.47-.83l.22-.6-2.82-7.68h1.27l2.1 6.09h.09l2.1-6.09h1.28l-3.24 8.75c-.15.4-.33.72-.54.98a2.24 2.24 0 0 1-1.71.78Zm7.02-2.86v-.9l3.36-3.67c.4-.44.72-.8.97-1.13.26-.32.45-.62.57-.9.13-.29.19-.59.19-.9a1.65 1.65 0 0 0-.96-1.53c-.3-.15-.62-.22-.99-.22-.4 0-.73.08-1.02.25-.3.16-.52.38-.68.67a2.1 2.1 0 0 0-.23 1.01H74.3a2.87 2.87 0 0 1 1.54-2.63 3.39 3.39 0 0 1 1.6-.37c.6 0 1.12.13 1.59.38a2.8 2.8 0 0 1 1.27 3.54 4.8 4.8 0 0 1-.7 1.19c-.33.43-.78.96-1.37 1.6l-2.28 2.44v.08h4.73V124h-6.42Z" fill="#333"/><rect x="21.83" y="106.5" width="79" height="35" rx="7.5" stroke="#E0E0E0"/><rect x="117.83" y="54.5" width="79" height="35" rx="7.5" fill="#fff"/><path d="M143.16 72V61.82h1.18v3.76h.1c.08-.14.2-.3.35-.51.16-.2.38-.4.67-.56.3-.16.69-.25 1.18-.25a3.04 3.04 0 0 1 2.85 1.85c.28.6.41 1.29.41 2.1 0 .8-.13 1.5-.4 2.1a3 3 0 0 1-2.83 1.85c-.5 0-.9-.08-1.19-.24-.3-.17-.52-.36-.68-.57a7.5 7.5 0 0 1-.37-.52h-.13V72h-1.14Zm1.16-3.82c0 .58.08 1.09.25 1.53.17.44.42.78.74 1.03.32.24.72.37 1.2.37s.9-.13 1.22-.4c.33-.25.58-.6.75-1.05.17-.44.25-.93.25-1.48a3.9 3.9 0 0 0-.25-1.45 2.25 2.25 0 0 0-.74-1.03 1.96 1.96 0 0 0-1.24-.38 1.96 1.96 0 0 0-1.94 1.37c-.16.42-.24.92-.24 1.5Zm8.55-6.36V72h-1.17V61.82h1.17Zm6.96 7.06v-4.52h1.18V72h-1.18v-1.3h-.08a2.4 2.4 0 0 1-2.27 1.4c-.47 0-.9-.1-1.27-.31a2.2 2.2 0 0 1-.87-.96 3.63 3.63 0 0 1-.32-1.61v-4.86h1.17v4.78c0 .55.16 1 .47 1.33.32.33.72.5 1.2.5a2 2 0 0 0 1.97-2.1Zm6.53 3.28a3.27 3.27 0 0 1-3.13-1.86 4.68 4.68 0 0 1-.43-2.06c0-.78.14-1.47.42-2.07.3-.6.7-1.06 1.2-1.4a3.62 3.62 0 0 1 2.99-.3 2.92 2.92 0 0 1 1.83 1.81 5 5 0 0 1 .28 1.8v.5h-5.89v-1.01h4.7c0-.44-.09-.82-.26-1.16a1.95 1.95 0 0 0-1.83-1.1 2.2 2.2 0 0 0-2 1.26c-.18.36-.27.75-.27 1.17v.68c0 .58.1 1.07.3 1.47.2.4.48.7.84.9.36.21.77.32 1.25.32.3 0 .58-.05.83-.13a1.72 1.72 0 0 0 1.08-1.07l1.13.32a2.73 2.73 0 0 1-1.65 1.69c-.41.16-.88.24-1.4.24Zm8.5-10.34V72h-1.23v-8.89h-.06l-2.48 1.65v-1.25l2.54-1.7h1.23Z" fill="#333"/><rect x="117.83" y="54.5" width="79" height="35" rx="7.5" stroke="#E5F1FF"/><rect x="117.83" y="106.5" width="79" height="35" rx="7.5" fill="#F3F8FF"/><path d="M142.18 124v-10.18h1.17v3.76h.1l.36-.51c.15-.2.38-.4.66-.56.3-.16.7-.25 1.19-.25a3.03 3.03 0 0 1 2.85 1.85c.27.6.4 1.29.4 2.1 0 .8-.13 1.5-.4 2.1a3 3 0 0 1-2.83 1.85 2.19 2.19 0 0 1-1.86-.8 7.46 7.46 0 0 1-.37-.53h-.14V124h-1.13Zm1.15-3.82c0 .58.09 1.09.25 1.53.17.44.42.78.75 1.03.32.24.72.37 1.19.37.49 0 .9-.13 1.23-.4.33-.25.58-.6.74-1.05.17-.44.26-.94.26-1.48s-.09-1.02-.25-1.45a2.25 2.25 0 0 0-.74-1.03 1.96 1.96 0 0 0-1.24-.38 1.95 1.95 0 0 0-1.94 1.37 4 4 0 0 0-.25 1.5Zm8.56-6.36V124h-1.18v-10.18h1.18Zm6.96 7.06v-4.52h1.17V124h-1.17v-1.3h-.08a2.5 2.5 0 0 1-.84 1c-.37.27-.85.4-1.43.4-.47 0-.9-.1-1.27-.31a2.2 2.2 0 0 1-.88-.96 3.63 3.63 0 0 1-.31-1.61v-4.86h1.17v4.78c0 .55.16 1 .47 1.33.31.33.71.5 1.2.5a2 2 0 0 0 1.97-2.1Zm6.52 3.28a3.27 3.27 0 0 1-3.13-1.86 4.68 4.68 0 0 1-.43-2.06c0-.78.15-1.47.43-2.07a3.23 3.23 0 0 1 3.01-1.9c.4 0 .8.06 1.18.2a2.94 2.94 0 0 1 1.82 1.81 5 5 0 0 1 .28 1.8v.5h-5.88v-1.02h4.7c0-.43-.1-.81-.27-1.15a1.94 1.94 0 0 0-1.83-1.1c-.46 0-.87.12-1.21.36-.34.22-.6.52-.78.9-.18.36-.27.75-.27 1.17v.68c0 .58.1 1.07.3 1.47.2.4.48.7.84.9.35.21.77.31 1.24.31.31 0 .59-.04.84-.12.25-.1.47-.23.65-.4.18-.18.32-.4.42-.67l1.13.32a2.5 2.5 0 0 1-.6 1.01c-.28.3-.63.52-1.04.68-.42.16-.88.24-1.4.24Zm4.93-.16v-.9l3.36-3.67c.4-.44.72-.8.97-1.13.26-.32.45-.62.57-.9.13-.29.19-.59.19-.9a1.66 1.66 0 0 0-.95-1.53 2.2 2.2 0 0 0-1-.22c-.39 0-.73.08-1.02.25-.3.16-.51.38-.67.67a2.1 2.1 0 0 0-.24 1.01h-1.17a2.87 2.87 0 0 1 1.54-2.63 3.38 3.38 0 0 1 1.6-.37c.6 0 1.13.13 1.59.38a2.8 2.8 0 0 1 1.27 3.54 4.9 4.9 0 0 1-.7 1.19c-.32.43-.78.96-1.36 1.6l-2.29 2.44v.08h4.73V124h-6.42Z" fill="#333"/><rect x="117.83" y="106.5" width="79" height="35" rx="7.5" stroke="#D6EAFF"/><path fill="#F6F6F6" d="M226.67 0h218.67v166H226.67z"/><path d="M319.08 40V29.82h3.56c.7 0 1.3.12 1.75.37.46.24.8.56 1.03.98.23.4.34.86.34 1.35 0 .44-.08.8-.24 1.09-.15.28-.35.5-.6.67-.25.17-.52.3-.81.37v.1a2 2 0 0 1 .94.33c.31.2.58.48.79.85.21.37.32.83.32 1.37 0 .5-.12.96-.35 1.37-.23.41-.6.73-1.1.97-.5.24-1.15.36-1.95.36h-3.68Zm1.23-1.1h2.45c.8 0 1.37-.15 1.71-.46.34-.32.51-.7.51-1.14 0-.35-.09-.67-.26-.96a1.9 1.9 0 0 0-.75-.7 2.36 2.36 0 0 0-1.16-.27h-2.5v3.54Zm0-4.6h2.29c.37 0 .7-.08 1-.23a1.63 1.63 0 0 0 .98-1.55c0-.44-.15-.82-.46-1.14-.31-.31-.8-.47-1.48-.47h-2.33v3.38Zm9.96 5.88c-.48 0-.92-.1-1.32-.27-.4-.19-.7-.46-.94-.8a2.26 2.26 0 0 1-.34-1.28c0-.44.08-.79.25-1.06.18-.28.4-.5.7-.65.28-.15.6-.27.95-.35.35-.08.7-.14 1.06-.18l1.13-.14c.29-.03.5-.09.63-.16.14-.08.2-.21.2-.4v-.04c0-.5-.13-.87-.4-1.14-.26-.28-.66-.41-1.2-.41a2.1 2.1 0 0 0-1.99 1.15l-1.12-.4a2.68 2.68 0 0 1 1.9-1.63 4.54 4.54 0 0 1 2.01-.07c.32.06.63.18.93.36.3.18.55.45.75.8.2.37.3.85.3 1.46V40h-1.17v-1.03h-.06a2.3 2.3 0 0 1-1.14 1.01c-.3.13-.69.2-1.13.2Zm.18-1.05c.46 0 .85-.1 1.17-.28a1.86 1.86 0 0 0 .98-1.61v-1.08c-.05.06-.16.12-.33.17a5.55 5.55 0 0 1-1.2.21l-.5.06c-.3.04-.6.1-.86.2-.26.08-.47.21-.63.39a1 1 0 0 0-.24.7c0 .41.15.72.45.93.3.2.7.3 1.16.3Zm10.87-5.06-1.05.3a1.95 1.95 0 0 0-.3-.51c-.12-.17-.3-.3-.51-.42-.22-.1-.5-.16-.84-.16a2 2 0 0 0-1.17.32.94.94 0 0 0-.46.81c0 .3.1.52.31.7.22.16.55.3 1 .42l1.13.27c.68.17 1.2.42 1.53.76.33.34.5.78.5 1.31 0 .44-.13.83-.38 1.18-.25.34-.6.61-1.04.81-.45.2-.97.3-1.56.3-.78 0-1.43-.17-1.94-.5a2.25 2.25 0 0 1-.97-1.49l1.12-.28c.1.41.3.72.6.93.3.2.69.3 1.17.3.54 0 .98-.11 1.3-.34.32-.24.49-.52.49-.85a.9.9 0 0 0-.28-.66 1.78 1.78 0 0 0-.86-.41l-1.27-.3a3.03 3.03 0 0 1-1.54-.77 1.87 1.87 0 0 1-.49-1.32c0-.43.12-.81.37-1.14.24-.33.57-.6 1-.78.42-.2.9-.29 1.44-.29.75 0 1.34.17 1.78.5.43.33.74.77.92 1.31Zm5.1 6.09a3.26 3.26 0 0 1-3.13-1.86 4.68 4.68 0 0 1-.42-2.06c0-.78.14-1.47.43-2.07a3.23 3.23 0 0 1 3.01-1.9c.4 0 .79.06 1.18.2a2.92 2.92 0 0 1 1.82 1.81 5 5 0 0 1 .28 1.8v.5h-5.89v-1.01h4.7c0-.44-.09-.82-.26-1.16a1.95 1.95 0 0 0-1.83-1.1 2.23 2.23 0 0 0-2 1.26c-.18.36-.27.75-.27 1.17v.68c0 .58.1 1.07.3 1.47.2.4.48.7.84.9.36.21.77.32 1.25.32.3 0 .58-.05.83-.13a1.72 1.72 0 0 0 1.08-1.07l1.13.32a2.73 2.73 0 0 1-1.65 1.69c-.4.16-.88.24-1.4.24Zm5.81-.08a.86.86 0 0 1-.63-.26.86.86 0 0 1-.27-.64c0-.24.1-.45.27-.63a.86.86 0 0 1 .63-.26c.25 0 .45.09.63.26.18.18.26.39.26.63a.92.92 0 0 1-.45.78.85.85 0 0 1-.44.12Zm0-5.67a.86.86 0 0 1-.63-.26.86.86 0 0 1-.27-.63c0-.25.1-.46.27-.63a.86.86 0 0 1 .63-.27c.25 0 .45.09.63.27.18.17.26.38.26.63a.92.92 0 0 1-.45.78.85.85 0 0 1-.44.11Z" fill="#000"/><rect x="248.5" y="54.5" width="79" height="35" rx="7.5" fill="#fff"/><path d="M275.8 75.02a4.3 4.3 0 0 1-1.47-.22 3.11 3.11 0 0 1-1.66-1.3l.94-.66c.1.13.24.3.4.47.16.18.38.34.67.47.28.14.65.2 1.11.2.62 0 1.13-.14 1.53-.44.4-.3.6-.76.6-1.4v-1.55h-.1c-.08.14-.2.31-.37.52-.15.2-.38.38-.67.54-.3.15-.69.23-1.18.23a3.07 3.07 0 0 1-2.82-1.71 4.45 4.45 0 0 1-.43-2.03c0-.78.14-1.46.42-2.04a3.03 3.03 0 0 1 2.85-1.83c.5 0 .89.08 1.18.24.3.17.52.35.67.56.16.2.29.37.37.5h.12v-1.2h1.14v7.85c0 .66-.15 1.19-.45 1.6-.3.41-.7.72-1.2.9-.5.2-1.05.3-1.66.3Zm-.05-4.2c.48 0 .87-.1 1.2-.32a2 2 0 0 0 .74-.93c.17-.4.25-.88.25-1.45 0-.55-.08-1.03-.25-1.45a2.19 2.19 0 0 0-.73-1 1.98 1.98 0 0 0-1.2-.35 2 2 0 0 0-1.25.38 2.3 2.3 0 0 0-.74 1.01c-.16.42-.24.9-.24 1.41 0 .53.08 1 .25 1.4.17.41.41.73.74.96.33.23.74.35 1.23.35Zm5.5 1.18v-7.64h1.13v1.16h.08c.14-.38.39-.69.75-.92.37-.24.78-.36 1.24-.36a13.15 13.15 0 0 1 .61.02v1.2a3.5 3.5 0 0 0-.71-.08c-.38 0-.7.08-1 .23a1.71 1.71 0 0 0-.94 1.56V72h-1.17Zm8.17.16a3.27 3.27 0 0 1-3.13-1.86 4.68 4.68 0 0 1-.43-2.06c0-.78.14-1.47.43-2.07a3.23 3.23 0 0 1 3.01-1.9c.4 0 .8.06 1.18.2a2.92 2.92 0 0 1 1.82 1.81 5 5 0 0 1 .28 1.8v.5h-5.88v-1.01h4.69c0-.44-.09-.82-.26-1.16a1.95 1.95 0 0 0-1.83-1.1c-.47 0-.87.12-1.21.36-.34.22-.6.52-.78.9-.18.36-.27.75-.27 1.17v.68c0 .58.1 1.07.3 1.47.2.4.48.7.83.9.36.21.78.32 1.25.32.3 0 .59-.05.84-.13.25-.1.47-.23.65-.4.18-.18.32-.4.42-.67l1.13.32c-.12.38-.32.72-.6 1.01-.28.3-.63.52-1.04.68-.42.16-.88.24-1.4.24Zm5.47 2.7a2.57 2.57 0 0 1-.85-.14l.3-1.03c.28.07.53.1.75.08a.9.9 0 0 0 .58-.3c.17-.17.33-.45.47-.83l.22-.6-2.82-7.68h1.27l2.1 6.09h.09l2.1-6.09h1.28l-3.24 8.75c-.15.4-.33.72-.54.98-.22.26-.47.46-.75.58-.29.13-.6.2-.96.2Zm10.6-13.04V72h-1.24v-8.89h-.06l-2.48 1.65v-1.25l2.55-1.7h1.23Z" fill="#333"/><rect x="248.5" y="54.5" width="79" height="35" rx="7.5" stroke="#EBEBEB"/><rect x="248.5" y="106.5" width="79" height="35" rx="7.5" fill="#F6F6F6"/><path d="M274.81 127.02c-.57 0-1.05-.07-1.46-.22a3.1 3.1 0 0 1-1.66-1.3l.93-.67c.1.14.24.3.4.48a2 2 0 0 0 .67.47c.29.14.66.2 1.12.2a2.5 2.5 0 0 0 1.53-.44c.4-.3.6-.76.6-1.4v-1.55h-.1l-.37.52c-.16.2-.38.38-.68.54-.29.15-.68.23-1.18.23a3.07 3.07 0 0 1-2.82-1.71 4.45 4.45 0 0 1-.42-2.03c0-.78.14-1.46.41-2.04a3.04 3.04 0 0 1 2.85-1.84c.5 0 .9.09 1.18.25.3.16.52.35.68.56l.37.5h.12v-1.2h1.13v7.85c0 .66-.15 1.19-.45 1.6-.3.41-.69.72-1.19.9-.5.2-1.05.3-1.66.3Zm-.04-4.2c.47 0 .87-.1 1.2-.32.32-.21.56-.52.73-.93.17-.4.26-.88.26-1.45 0-.55-.09-1.03-.25-1.45a2.2 2.2 0 0 0-.74-1 1.97 1.97 0 0 0-1.2-.35 2 2 0 0 0-1.98 1.39c-.17.42-.25.9-.25 1.41 0 .53.08 1 .25 1.4.17.41.42.73.75.96.33.23.74.35 1.23.35Zm5.49 1.18v-7.64h1.13v1.16h.08c.14-.38.4-.69.76-.92.36-.24.77-.36 1.23-.36a14.75 14.75 0 0 1 .62.02v1.2a3.67 3.67 0 0 0-.72-.08c-.37 0-.7.08-1 .23a1.72 1.72 0 0 0-.93 1.56V124h-1.17Zm8.18.16a3.27 3.27 0 0 1-3.13-1.86 4.68 4.68 0 0 1-.43-2.06c0-.78.14-1.47.43-2.07a3.23 3.23 0 0 1 3.01-1.9c.4 0 .79.06 1.18.2a2.94 2.94 0 0 1 1.81 1.81 5 5 0 0 1 .29 1.8v.5h-5.89v-1.02h4.7c0-.43-.1-.81-.26-1.15a1.94 1.94 0 0 0-1.83-1.1 2.2 2.2 0 0 0-2 1.26c-.18.36-.27.75-.27 1.17v.68c0 .58.1 1.07.3 1.47.2.4.48.7.84.9.36.21.77.31 1.25.31.3 0 .58-.04.83-.12a1.72 1.72 0 0 0 1.08-1.07l1.13.32a2.5 2.5 0 0 1-.6 1.01c-.28.3-.63.52-1.05.68-.41.16-.88.24-1.4.24Zm5.47 2.7a2.58 2.58 0 0 1-.86-.14l.3-1.03c.28.07.54.1.76.08a.9.9 0 0 0 .58-.3c.17-.17.33-.45.47-.83l.22-.6-2.83-7.68h1.28l2.1 6.09h.08l2.11-6.09h1.27l-3.24 8.75c-.14.4-.32.72-.54.98-.21.27-.46.46-.75.58-.28.13-.6.2-.95.2Zm7.01-2.86v-.9l3.37-3.67c.39-.44.71-.8.97-1.13.25-.32.44-.62.57-.9.12-.29.19-.59.19-.9a1.65 1.65 0 0 0-.96-1.53 2.2 2.2 0 0 0-1-.22 2 2 0 0 0-1.02.25c-.29.16-.51.38-.67.67a2.1 2.1 0 0 0-.23 1.01h-1.18a2.86 2.86 0 0 1 1.54-2.63 3.39 3.39 0 0 1 1.6-.37c.6 0 1.13.13 1.6.38.45.25.81.59 1.08 1.02.26.42.39.9.39 1.42 0 .38-.07.74-.2 1.1a4.9 4.9 0 0 1-.7 1.19c-.33.43-.78.96-1.37 1.6l-2.29 2.44v.08h4.74V124h-6.43Z" fill="#333"/><rect x="248.5" y="106.5" width="79" height="35" rx="7.5" stroke="#E0E0E0"/><rect x="344.5" y="54.5" width="79" height="35" rx="7.5" fill="#fff"/><path d="M369.83 72V61.82H371v3.76h.1l.36-.51c.16-.2.38-.4.67-.56.29-.16.68-.25 1.18-.25a3.03 3.03 0 0 1 2.85 1.85c.27.6.41 1.29.41 2.1 0 .8-.14 1.5-.41 2.1a2.99 2.99 0 0 1-2.83 1.85c-.5 0-.88-.08-1.18-.24-.3-.17-.52-.36-.68-.57a7.86 7.86 0 0 1-.37-.52h-.14V72h-1.13Zm1.15-3.82c0 .58.09 1.09.26 1.53.16.44.41.78.74 1.03.32.24.72.37 1.19.37.49 0 .9-.13 1.23-.4.33-.25.58-.6.74-1.05.17-.44.26-.93.26-1.48 0-.54-.09-1.02-.25-1.45a2.25 2.25 0 0 0-.74-1.03 1.95 1.95 0 0 0-1.24-.38 1.96 1.96 0 0 0-1.94 1.37 4 4 0 0 0-.25 1.5Zm8.56-6.36V72h-1.18V61.82h1.18Zm6.96 7.06v-4.52h1.17V72h-1.17v-1.3h-.08a2.5 2.5 0 0 1-.84 1c-.37.27-.85.4-1.43.4-.47 0-.9-.1-1.27-.31a2.2 2.2 0 0 1-.88-.96 3.63 3.63 0 0 1-.31-1.61v-4.86h1.17v4.78c0 .55.16 1 .47 1.33.31.33.71.5 1.2.5a2 2 0 0 0 1.97-2.1Zm6.52 3.28a3.27 3.27 0 0 1-3.13-1.86 4.67 4.67 0 0 1-.43-2.06c0-.78.15-1.47.43-2.07a3.23 3.23 0 0 1 3.01-1.9c.4 0 .8.06 1.18.2a2.93 2.93 0 0 1 1.82 1.81 5 5 0 0 1 .29 1.8v.5h-5.9v-1.01h4.7c0-.44-.08-.82-.26-1.16a1.95 1.95 0 0 0-1.83-1.1 2 2 0 0 0-1.2.36c-.35.22-.6.52-.79.9-.18.36-.27.75-.27 1.17v.68c0 .58.1 1.07.3 1.47.2.4.48.7.84.9.35.21.77.32 1.24.32.31 0 .59-.05.84-.13.25-.1.47-.23.65-.4.18-.18.32-.4.42-.67l1.14.32c-.12.38-.32.72-.6 1.01-.29.3-.64.52-1.05.68-.41.16-.88.24-1.4.24Zm8.51-10.34V72h-1.23v-8.89h-.06l-2.49 1.65v-1.25l2.55-1.7h1.23Z" fill="#333"/><rect x="344.5" y="54.5" width="79" height="35" rx="7.5" stroke="#E5F1FF"/><rect x="344.5" y="106.5" width="79" height="35" rx="7.5" fill="#F3F8FF"/><path d="M368.84 124v-10.18h1.18v3.76h.1c.08-.14.2-.3.36-.51.15-.2.37-.4.66-.56.3-.16.69-.25 1.18-.25a3.04 3.04 0 0 1 2.85 1.85c.28.6.42 1.29.42 2.1 0 .8-.14 1.5-.42 2.1a3 3 0 0 1-2.83 1.85 2.18 2.18 0 0 1-1.86-.8 7.52 7.52 0 0 1-.36-.53h-.14V124h-1.14Zm1.16-3.82c0 .58.08 1.09.25 1.53.17.44.42.78.74 1.03.33.24.72.37 1.2.37.49 0 .9-.13 1.22-.4.33-.25.58-.6.75-1.05.17-.44.25-.94.25-1.48s-.08-1.02-.25-1.45c-.16-.43-.4-.78-.74-1.03a1.96 1.96 0 0 0-1.24-.38 1.96 1.96 0 0 0-1.93 1.37 4 4 0 0 0-.25 1.5Zm8.55-6.36V124h-1.17v-10.18h1.17Zm6.96 7.06v-4.52h1.18V124h-1.18v-1.3h-.07a2.5 2.5 0 0 1-.84 1c-.38.27-.86.4-1.43.4-.48 0-.9-.1-1.27-.31a2.2 2.2 0 0 1-.88-.96 3.63 3.63 0 0 1-.32-1.61v-4.86h1.18v4.78c0 .55.15 1 .46 1.33.32.33.72.5 1.2.5a2 2 0 0 0 1.97-2.1Zm6.53 3.28a3.27 3.27 0 0 1-3.13-1.86 4.68 4.68 0 0 1-.43-2.06c0-.78.14-1.47.43-2.07a3.23 3.23 0 0 1 3.01-1.9c.4 0 .79.06 1.18.2a2.93 2.93 0 0 1 1.82 1.81 5 5 0 0 1 .28 1.8v.5h-5.88v-1.02H394c0-.43-.09-.81-.26-1.15a1.95 1.95 0 0 0-1.83-1.1c-.47 0-.87.12-1.21.36-.34.22-.6.52-.78.9-.19.36-.28.75-.28 1.17v.68c0 .58.1 1.07.3 1.47.2.4.48.7.84.9.36.21.77.31 1.25.31.3 0 .59-.04.83-.12.26-.1.47-.23.66-.4.18-.18.32-.4.42-.67l1.13.32a2.5 2.5 0 0 1-.6 1.01 2.9 2.9 0 0 1-1.04.68c-.42.16-.88.24-1.4.24Zm4.93-.16v-.9l3.36-3.67c.4-.44.72-.8.97-1.13.26-.32.44-.62.57-.9.12-.29.19-.59.19-.9a1.65 1.65 0 0 0-.96-1.53c-.3-.15-.62-.22-1-.22s-.72.08-1.02.25c-.28.16-.5.38-.67.67a2.1 2.1 0 0 0-.23 1.01H397c0-.6.13-1.12.4-1.57.28-.45.66-.8 1.13-1.05a3.39 3.39 0 0 1 1.6-.38c.6 0 1.13.13 1.6.38.45.25.82.59 1.08 1.02.26.42.39.9.39 1.42 0 .38-.07.74-.2 1.1a4.9 4.9 0 0 1-.7 1.19c-.33.43-.78.96-1.37 1.6l-2.28 2.44v.08h4.73V124h-6.42Z" fill="#333"/><rect x="344.5" y="106.5" width="79" height="35" rx="7.5" stroke="#D6EAFF"/><path fill="#fff" d="M453.83.5H671.5v165H453.83z"/><path d="M545.74 40V29.82h3.56c.71 0 1.3.12 1.76.37.46.24.8.56 1.03.98a2.79 2.79 0 0 1 .1 2.44c-.15.28-.35.5-.6.67-.25.17-.52.3-.82.37v.1a2 2 0 0 1 .95.33c.3.2.57.48.78.85.22.37.32.83.32 1.37 0 .5-.11.96-.35 1.37-.23.41-.6.73-1.1.97a4.5 4.5 0 0 1-1.95.36h-3.68Zm1.24-1.1h2.44c.8 0 1.38-.15 1.72-.46.34-.32.51-.7.51-1.14 0-.35-.09-.67-.26-.96a1.9 1.9 0 0 0-.75-.7 2.36 2.36 0 0 0-1.16-.27h-2.5v3.54Zm0-4.6h2.28c.38 0 .71-.08 1-.23a1.63 1.63 0 0 0 .98-1.55 1.5 1.5 0 0 0-.46-1.14c-.3-.31-.8-.47-1.48-.47h-2.32v3.38Zm9.96 5.88c-.49 0-.93-.1-1.32-.27-.4-.19-.7-.46-.94-.8a2.26 2.26 0 0 1-.35-1.28c0-.44.09-.79.26-1.06.17-.28.4-.5.7-.65.28-.15.6-.27.95-.35.35-.08.7-.14 1.05-.18l1.13-.14c.3-.03.5-.09.64-.16.14-.08.2-.21.2-.4v-.04c0-.5-.13-.87-.4-1.14-.26-.28-.67-.41-1.2-.41a2.07 2.07 0 0 0-2 1.15l-1.1-.4a2.68 2.68 0 0 1 1.88-1.63 4.54 4.54 0 0 1 2.02-.07c.32.06.63.18.93.36.3.18.55.45.75.8.2.37.3.85.3 1.46V40h-1.18v-1.03h-.06a2.3 2.3 0 0 1-1.14 1.01c-.3.13-.68.2-1.12.2Zm.18-1.05c.46 0 .85-.1 1.17-.28a1.86 1.86 0 0 0 .97-1.61v-1.08c-.05.06-.15.12-.32.17a5.55 5.55 0 0 1-1.21.21l-.5.06c-.3.04-.58.1-.85.2-.26.08-.47.21-.64.39a1 1 0 0 0-.24.7c0 .41.16.72.46.93.3.2.69.3 1.16.3Zm10.87-5.06-1.06.3a1.95 1.95 0 0 0-.29-.51c-.13-.17-.3-.3-.52-.42-.22-.1-.5-.16-.84-.16a2 2 0 0 0-1.16.32c-.31.21-.47.48-.47.81 0 .3.1.52.32.7.21.16.54.3 1 .42l1.13.27c.68.17 1.19.42 1.52.76.34.34.5.78.5 1.31 0 .44-.12.83-.37 1.18-.25.34-.6.61-1.04.81-.45.2-.97.3-1.57.3a3.5 3.5 0 0 1-1.93-.5 2.25 2.25 0 0 1-.97-1.49l1.11-.28c.11.41.31.72.6.93.3.2.7.3 1.17.3.55 0 .99-.11 1.3-.34.33-.24.5-.52.5-.85a.9.9 0 0 0-.28-.66 1.78 1.78 0 0 0-.86-.41l-1.27-.3a3.03 3.03 0 0 1-1.54-.77 1.87 1.87 0 0 1-.5-1.32c0-.43.13-.81.37-1.14.25-.33.58-.6 1-.78.43-.2.9-.29 1.44-.29.76 0 1.35.17 1.78.5.44.33.75.77.93 1.31Zm5.1 6.09a3.26 3.26 0 0 1-3.13-1.86 4.68 4.68 0 0 1-.43-2.06c0-.78.15-1.47.43-2.07.3-.6.7-1.06 1.2-1.4a3.62 3.62 0 0 1 2.99-.3 2.92 2.92 0 0 1 1.82 1.81 5 5 0 0 1 .29 1.8v.5h-5.89v-1.01h4.7c0-.44-.1-.82-.27-1.16a1.95 1.95 0 0 0-1.82-1.1c-.47 0-.88.12-1.22.36-.34.22-.6.52-.78.9-.18.36-.27.75-.27 1.17v.68c0 .58.1 1.07.3 1.47.2.4.48.7.84.9.36.21.77.32 1.25.32.3 0 .58-.05.83-.13.25-.1.47-.23.65-.4.18-.18.32-.4.42-.67l1.14.32c-.12.38-.32.72-.6 1.01-.29.3-.63.52-1.05.68-.41.16-.88.24-1.4.24Zm5.8-.08a.86.86 0 0 1-.63-.26.86.86 0 0 1-.26-.64.9.9 0 0 1 .26-.63.86.86 0 0 1 .64-.26.9.9 0 0 1 .89.89.92.92 0 0 1-.45.78.85.85 0 0 1-.44.12Zm0-5.67a.86.86 0 0 1-.63-.26.86.86 0 0 1-.26-.63c0-.25.09-.46.26-.63a.86.86 0 0 1 .64-.27c.24 0 .45.09.63.27.17.17.26.38.26.63a.92.92 0 0 1-.45.78.85.85 0 0 1-.44.11Z" fill="#000"/><rect x="475.17" y="54.5" width="79" height="35" rx="7.5" fill="#fff"/><path d="M502.46 75.02c-.57 0-1.05-.07-1.46-.22a3.11 3.11 0 0 1-1.66-1.3l.93-.66c.1.13.24.3.4.47.17.18.4.34.67.47.29.14.66.2 1.12.2.62 0 1.13-.14 1.53-.44.4-.3.6-.76.6-1.4v-1.55h-.1c-.09.14-.2.31-.37.52-.15.2-.38.38-.68.54-.29.15-.68.23-1.18.23a3.07 3.07 0 0 1-2.82-1.71 4.45 4.45 0 0 1-.42-2.03c0-.78.14-1.46.41-2.04a3.03 3.03 0 0 1 2.85-1.83c.5 0 .9.08 1.19.24.29.17.52.35.67.56l.37.5h.12v-1.2h1.13v7.85a2.7 2.7 0 0 1-.44 1.6c-.3.41-.7.72-1.2.9-.5.2-1.05.3-1.66.3Zm-.04-4.2c.47 0 .87-.1 1.2-.32a2 2 0 0 0 .74-.93c.16-.4.25-.88.25-1.45 0-.55-.08-1.03-.25-1.45a2.19 2.19 0 0 0-.74-1 1.98 1.98 0 0 0-1.2-.35 2 2 0 0 0-1.24.38 2.3 2.3 0 0 0-.74 1.01c-.17.42-.25.9-.25 1.41 0 .53.09 1 .25 1.4.17.41.42.73.75.96.33.23.74.35 1.23.35Zm5.49 1.18v-7.64h1.13v1.16h.08c.14-.38.4-.69.76-.92.36-.24.77-.36 1.23-.36a13.15 13.15 0 0 1 .62.02v1.2a3.5 3.5 0 0 0-.72-.08c-.37 0-.7.08-1 .23a1.71 1.71 0 0 0-.93 1.56V72h-1.17Zm8.18.16a3.27 3.27 0 0 1-3.13-1.86 4.68 4.68 0 0 1-.43-2.06c0-.78.14-1.47.43-2.07a3.23 3.23 0 0 1 3.01-1.9c.4 0 .79.06 1.18.2a2.92 2.92 0 0 1 1.82 1.81 5 5 0 0 1 .28 1.8v.5h-5.89v-1.01h4.7c0-.44-.09-.82-.26-1.16a1.95 1.95 0 0 0-1.83-1.1c-.47 0-.87.12-1.21.36-.34.22-.6.52-.78.9-.19.36-.28.75-.28 1.17v.68c0 .58.1 1.07.3 1.47.2.4.48.7.84.9.36.21.77.32 1.25.32.3 0 .58-.05.83-.13.25-.1.47-.23.66-.4.18-.18.32-.4.42-.67l1.13.32c-.12.38-.32.72-.6 1.01-.28.3-.63.52-1.04.68-.42.16-.88.24-1.4.24Zm5.47 2.7a2.57 2.57 0 0 1-.86-.14l.3-1.03c.29.07.54.1.76.08a.9.9 0 0 0 .58-.3c.17-.17.33-.45.47-.83l.22-.6-2.82-7.68h1.27l2.1 6.09h.09l2.1-6.09h1.28l-3.25 8.75c-.14.4-.32.72-.54.98a1.9 1.9 0 0 1-.75.58c-.28.13-.6.2-.95.2Zm10.6-13.04V72h-1.24v-8.89h-.06l-2.48 1.65v-1.25l2.54-1.7h1.24Z" fill="#333"/><rect x="475.17" y="54.5" width="79" height="35" rx="7.5" stroke="#EBEBEB"/><rect x="475.17" y="106.5" width="79" height="35" rx="7.5" fill="#F6F6F6"/><path d="M501.48 127.02a4.3 4.3 0 0 1-1.47-.22 3.1 3.1 0 0 1-1.66-1.3l.94-.67c.1.14.24.3.4.48.16.19.39.34.67.47.28.14.66.2 1.12.2a2.5 2.5 0 0 0 1.52-.44c.4-.3.6-.76.6-1.4v-1.55h-.1c-.08.14-.2.31-.36.52-.16.2-.38.38-.68.54-.3.15-.69.23-1.18.23a3.07 3.07 0 0 1-2.82-1.71 4.45 4.45 0 0 1-.42-2.03c0-.78.13-1.46.4-2.04a3.04 3.04 0 0 1 2.85-1.84c.5 0 .9.09 1.2.25.29.16.51.35.67.56.16.2.28.37.36.5h.12v-1.2h1.14v7.85c0 .66-.15 1.19-.45 1.6-.3.41-.7.72-1.2.9-.49.2-1.04.3-1.65.3Zm-.04-4.2c.47 0 .87-.1 1.19-.32.32-.21.57-.52.74-.93.17-.4.25-.88.25-1.45 0-.55-.08-1.03-.24-1.45a2.2 2.2 0 0 0-.74-1 1.97 1.97 0 0 0-1.2-.35 2 2 0 0 0-1.99 1.39c-.16.42-.24.9-.24 1.41 0 .53.08 1 .25 1.4.17.41.42.73.74.96.34.23.75.35 1.24.35Zm5.49 1.18v-7.64h1.13v1.16h.08c.14-.38.39-.69.75-.92.37-.24.78-.36 1.24-.36a14.75 14.75 0 0 1 .61.02v1.2a3.67 3.67 0 0 0-.71-.08c-.37 0-.7.08-1 .23a1.72 1.72 0 0 0-.93 1.56V124h-1.18Zm8.17.16a3.27 3.27 0 0 1-3.13-1.86 4.68 4.68 0 0 1-.43-2.06c0-.78.15-1.47.43-2.07a3.23 3.23 0 0 1 3.01-1.9c.4 0 .8.06 1.18.2a2.94 2.94 0 0 1 1.82 1.81 5 5 0 0 1 .29 1.8v.5h-5.9v-1.02h4.7c0-.43-.08-.81-.26-1.15a1.94 1.94 0 0 0-1.83-1.1 2 2 0 0 0-1.2.36c-.35.22-.6.52-.79.9-.18.36-.27.75-.27 1.17v.68c0 .58.1 1.07.3 1.47.2.4.48.7.84.9.35.21.77.31 1.24.31.31 0 .59-.04.84-.12.25-.1.47-.23.65-.4.18-.18.32-.4.42-.67l1.14.32a2.5 2.5 0 0 1-.6 1.01c-.29.3-.63.52-1.05.68-.41.16-.88.24-1.4.24Zm5.47 2.7a2.58 2.58 0 0 1-.85-.14l.3-1.03c.28.07.53.1.75.08a.9.9 0 0 0 .58-.3c.18-.17.33-.45.48-.83l.21-.6-2.82-7.68h1.27l2.11 6.09h.08l2.11-6.09h1.27l-3.24 8.75c-.15.4-.33.72-.54.98-.22.27-.47.46-.75.58-.28.13-.6.2-.96.2Zm7.02-2.86v-.9l3.36-3.67c.4-.44.72-.8.98-1.13.25-.32.44-.62.56-.9.13-.29.2-.59.2-.9a1.65 1.65 0 0 0-.96-1.53 2.2 2.2 0 0 0-1-.22c-.39 0-.73.08-1.02.25-.29.16-.51.38-.67.67a2.1 2.1 0 0 0-.24 1.01h-1.17a2.86 2.86 0 0 1 1.54-2.63 3.39 3.39 0 0 1 1.6-.37c.6 0 1.13.13 1.59.38a2.8 2.8 0 0 1 1.28 3.54 4.9 4.9 0 0 1-.7 1.19c-.33.43-.79.96-1.37 1.6l-2.29 2.44v.08h4.73V124h-6.42Z" fill="#333"/><rect x="475.17" y="106.5" width="79" height="35" rx="7.5" stroke="#E0E0E0"/><rect x="571.17" y="54.5" width="79" height="35" rx="7.5" fill="#fff"/><path d="M596.5 72V61.82h1.17v3.76h.1l.36-.51c.15-.2.37-.4.66-.56.3-.16.69-.25 1.19-.25a3.03 3.03 0 0 1 2.84 1.85c.28.6.42 1.29.42 2.1 0 .8-.14 1.5-.42 2.1a2.99 2.99 0 0 1-2.83 1.85c-.48 0-.88-.08-1.17-.24-.3-.17-.53-.36-.68-.57a7.86 7.86 0 0 1-.37-.52h-.14V72h-1.13Zm1.15-3.82c0 .58.08 1.09.25 1.53.17.44.42.78.74 1.03a2 2 0 0 0 1.2.37c.49 0 .9-.13 1.23-.4.33-.25.57-.6.74-1.05.17-.44.25-.93.25-1.48 0-.54-.08-1.02-.24-1.45a2.27 2.27 0 0 0-.75-1.03 1.95 1.95 0 0 0-1.23-.38 1.96 1.96 0 0 0-1.94 1.37 4 4 0 0 0-.25 1.5Zm8.56-6.36V72h-1.18V61.82h1.18Zm6.96 7.06v-4.52h1.17V72h-1.17v-1.3h-.08a2.5 2.5 0 0 1-.84 1c-.38.27-.85.4-1.43.4-.48 0-.9-.1-1.27-.31a2.2 2.2 0 0 1-.88-.96 3.63 3.63 0 0 1-.32-1.61v-4.86h1.18v4.78c0 .55.15 1 .47 1.33.31.33.71.5 1.2.5a2 2 0 0 0 1.97-2.1Zm6.52 3.28a3.27 3.27 0 0 1-3.13-1.86 4.67 4.67 0 0 1-.43-2.06c0-.78.14-1.47.43-2.07a3.23 3.23 0 0 1 3.01-1.9c.4 0 .8.06 1.18.2a2.93 2.93 0 0 1 1.82 1.81 5 5 0 0 1 .28 1.8v.5h-5.88v-1.01h4.69c0-.44-.09-.82-.26-1.16a1.95 1.95 0 0 0-1.83-1.1c-.47 0-.87.12-1.21.36-.34.22-.6.52-.78.9-.19.36-.28.75-.28 1.17v.68c0 .58.1 1.07.3 1.47.2.4.49.7.84.9.36.21.78.32 1.25.32.3 0 .59-.05.84-.13.25-.1.47-.23.65-.4.18-.18.32-.4.42-.67l1.13.32c-.12.38-.32.72-.6 1.01-.28.3-.63.52-1.04.68-.42.16-.88.24-1.4.24Zm8.5-10.34V72h-1.23v-8.89h-.06l-2.48 1.65v-1.25l2.54-1.7h1.24Z" fill="#333"/><rect x="571.17" y="54.5" width="79" height="35" rx="7.5" stroke="#E5F1FF"/><rect x="571.17" y="106.5" width="79" height="35" rx="7.5" fill="#F3F8FF"/><path d="M595.51 124v-10.18h1.17v3.76h.1l.36-.51c.16-.2.38-.4.67-.56.29-.16.68-.25 1.18-.25a3.04 3.04 0 0 1 2.85 1.85c.27.6.41 1.29.41 2.1 0 .8-.13 1.5-.41 2.1a3 3 0 0 1-2.83 1.85 2.18 2.18 0 0 1-1.86-.8 7.52 7.52 0 0 1-.37-.53h-.13V124h-1.14Zm1.15-3.82c0 .58.09 1.09.26 1.53.17.44.41.78.74 1.03.32.24.72.37 1.2.37s.9-.13 1.22-.4c.33-.25.58-.6.75-1.05a4.33 4.33 0 0 0 0-2.93c-.16-.43-.4-.78-.74-1.03a1.96 1.96 0 0 0-1.24-.38 1.96 1.96 0 0 0-1.94 1.37 4.2 4.2 0 0 0-.25 1.5Zm8.56-6.36V124h-1.17v-10.18h1.17Zm6.96 7.06v-4.52h1.18V124h-1.18v-1.3h-.08a2.5 2.5 0 0 1-.83 1c-.38.27-.86.4-1.43.4-.48 0-.9-.1-1.28-.31a2.2 2.2 0 0 1-.87-.96 3.63 3.63 0 0 1-.32-1.61v-4.86h1.17v4.78c0 .55.16 1 .47 1.33.32.33.72.5 1.2.5a2 2 0 0 0 1.97-2.1Zm6.53 3.28a3.27 3.27 0 0 1-3.13-1.86 4.68 4.68 0 0 1-.43-2.06c0-.78.14-1.47.42-2.07.3-.6.7-1.06 1.2-1.4a3.6 3.6 0 0 1 2.99-.3 2.93 2.93 0 0 1 1.83 1.81 5 5 0 0 1 .28 1.8v.5h-5.89v-1.02h4.7c0-.43-.1-.81-.26-1.15a1.95 1.95 0 0 0-1.83-1.1 2.2 2.2 0 0 0-2 1.26c-.18.36-.27.75-.27 1.17v.68c0 .58.1 1.07.3 1.47.2.4.48.7.84.9.36.21.77.31 1.25.31.3 0 .58-.04.83-.12a1.7 1.7 0 0 0 1.07-1.07l1.14.32a2.5 2.5 0 0 1-.6 1.01 2.9 2.9 0 0 1-1.05.68c-.41.16-.88.24-1.4.24Zm4.92-.16v-.9l3.36-3.67c.4-.44.72-.8.98-1.13.25-.32.44-.62.56-.9.13-.29.2-.59.2-.9a1.65 1.65 0 0 0-.96-1.53 2.2 2.2 0 0 0-1-.22c-.39 0-.73.08-1.02.25-.29.16-.51.38-.67.67a2.1 2.1 0 0 0-.23 1.01h-1.18a2.87 2.87 0 0 1 1.54-2.63 3.39 3.39 0 0 1 1.6-.37c.6 0 1.13.13 1.6.38.45.25.81.59 1.08 1.02.26.42.39.9.39 1.42 0 .38-.07.74-.2 1.1a4.9 4.9 0 0 1-.7 1.19c-.33.43-.79.96-1.37 1.6l-2.29 2.44v.08h4.74V124h-6.43Z" fill="#333"/><rect x="571.17" y="106.5" width="79" height="35" rx="7.5" stroke="#D6EAFF"/><path stroke="#EBEBEB" d="M453.83.5H671.5v165H453.83z"/></svg>