<svg width="672" height="240" fill="none" xmlns="http://www.w3.org/2000/svg"><path fill="#F6F6F6" d="M0 0h672v240H0z"/><rect x="32.5" y="32.5" width="607" height="79" rx="7.5" fill="#fff"/><path d="M69.34 78.22c-.94 0-1.74-.24-2.41-.7a4.52 4.52 0 0 1-1.54-2.07 8.87 8.87 0 0 1-.54-3.26c0-1.27.19-2.35.54-3.24a4.5 4.5 0 0 1 1.54-2.04c.67-.47 1.47-.7 2.4-.7.94 0 1.74.23 2.4.7a4.4 4.4 0 0 1 1.55 2.04c.36.9.54 1.98.54 3.24a8.8 8.8 0 0 1-.54 3.26c-.36.9-.87 1.59-1.54 2.06s-1.47.71-2.4.71Zm0-1.78c.72 0 1.3-.35 1.72-1.07.42-.72.63-1.78.63-3.18 0-.92-.1-1.7-.29-2.33a3.1 3.1 0 0 0-.81-1.42 1.8 1.8 0 0 0-1.25-.48c-.73 0-1.3.36-1.72 1.08a6.37 6.37 0 0 0-.64 3.15c0 .93.1 1.71.28 2.34.2.64.47 1.11.82 1.44.35.31.77.47 1.26.47ZM75.7 78v-1.52l4.04-3.96c.38-.4.7-.74.96-1.04.26-.3.45-.6.58-.88.13-.29.2-.59.2-.91a1.66 1.66 0 0 0-.94-1.56 2.33 2.33 0 0 0-2 .02c-.3.16-.51.38-.67.67a2.1 2.1 0 0 0-.24 1.03h-2a3.41 3.41 0 0 1 1.9-3.2 4.5 4.5 0 0 1 2.04-.45c.78 0 1.47.15 2.06.44.59.3 1.05.7 1.37 1.2.33.5.5 1.09.5 1.74 0 .44-.09.86-.25 1.28-.17.42-.46.89-.88 1.4-.42.51-1 1.13-1.76 1.86l-2 2.04v.08h5.06V78H75.7Zm14.7-12.18-3.74 13.93h-1.8l3.75-13.93h1.8Zm6.03.54V78h-2.1v-9.59h-.08l-2.72 1.74v-1.93l2.9-1.86h2ZM99.39 78v-1.52l4.04-3.96c.39-.4.71-.74.97-1.04.26-.3.45-.6.58-.88.13-.29.2-.59.2-.91a1.66 1.66 0 0 0-.94-1.56 2.33 2.33 0 0 0-2 .02c-.3.16-.52.38-.68.67a2.2 2.2 0 0 0-.23 1.03h-2a3.41 3.41 0 0 1 1.9-3.2 4.5 4.5 0 0 1 2.04-.45c.78 0 1.46.15 2.06.44.59.3 1.05.7 1.37 1.2.33.5.5 1.09.5 1.74 0 .44-.09.86-.26 1.28-.16.42-.46.89-.88 1.4-.41.51-1 1.13-1.75 1.86l-2 2.04v.08h5.06V78H99.4Zm14.71-12.18-3.75 13.93h-1.8l3.75-13.93h1.8ZM115.4 78v-1.52l4.03-3.96c.39-.4.71-.74.97-1.04.26-.3.45-.6.58-.88.13-.29.2-.59.2-.91a1.66 1.66 0 0 0-.94-1.56 2.33 2.33 0 0 0-2 .02c-.3.16-.52.38-.68.67a2.2 2.2 0 0 0-.23 1.03h-2a3.41 3.41 0 0 1 1.9-3.2 4.5 4.5 0 0 1 2.04-.45c.78 0 1.46.15 2.06.44.59.3 1.05.7 1.37 1.2.33.5.5 1.09.5 1.74 0 .44-.09.86-.26 1.28-.16.42-.46.89-.88 1.4-.41.51-1 1.13-1.75 1.86l-2 2.04v.08h5.06V78h-7.98Zm14.23.22c-.93 0-1.74-.24-2.4-.7a4.52 4.52 0 0 1-1.55-2.07 8.87 8.87 0 0 1-.53-3.26c0-1.27.18-2.35.54-3.24.36-.89.87-1.57 1.54-2.04s1.47-.7 2.4-.7c.93 0 1.74.23 2.4.7a4.4 4.4 0 0 1 1.54 2.04c.37.9.55 1.98.55 3.24a8.8 8.8 0 0 1-.55 3.26c-.35.9-.86 1.59-1.53 2.06s-1.47.71-2.4.71Zm0-1.78c.73 0 1.3-.35 1.72-1.07a6.3 6.3 0 0 0 .64-3.18c0-.92-.1-1.7-.29-2.33a3.1 3.1 0 0 0-.82-1.42 1.8 1.8 0 0 0-1.25-.48c-.72 0-1.3.36-1.71 1.08a6.37 6.37 0 0 0-.64 3.15c0 .93.09 1.71.28 2.34.2.64.46 1.11.82 1.44.35.31.77.47 1.25.47ZM136 78v-1.52l4.04-3.96c.39-.4.71-.74.97-1.04.26-.3.45-.6.58-.88.13-.29.2-.59.2-.91a1.66 1.66 0 0 0-.94-1.56 2.33 2.33 0 0 0-2 .02c-.3.16-.52.38-.68.67a2.2 2.2 0 0 0-.23 1.03h-2a3.41 3.41 0 0 1 1.9-3.2 4.5 4.5 0 0 1 2.04-.45c.78 0 1.46.15 2.06.44.59.3 1.04.7 1.37 1.2.33.5.5 1.09.5 1.74 0 .44-.09.86-.26 1.28-.16.42-.46.89-.88 1.4-.41.51-1 1.13-1.75 1.86l-2 2.04v.08h5.06V78H136Zm9.94 0v-1.52l4.04-3.96c.39-.4.7-.74.97-1.04.25-.3.45-.6.58-.88.12-.29.19-.59.19-.91 0-.37-.09-.68-.25-.95a1.6 1.6 0 0 0-.69-.6c-.29-.15-.62-.23-1-.23s-.71.08-1 .24c-.29.16-.51.38-.67.67-.16.29-.23.63-.23 1.03h-2a3.41 3.41 0 0 1 1.9-3.2c.59-.3 1.27-.45 2.03-.45.79 0 1.47.15 2.06.44.6.3 1.05.7 1.38 1.2.33.5.5 1.09.5 1.74 0 .44-.1.86-.26 1.28-.17.42-.46.89-.88 1.4-.42.51-1 1.13-1.76 1.86l-2 2.04v.08h5.07V78h-7.98Z" fill="#1F1F1F"/><path d="m462.17 72.9.1-2.5-2.12 1.35-.54-.95 2.22-1.16-2.22-1.16.54-.96 2.11 1.34-.09-2.5h1.1l-.1 2.5 2.12-1.34.54.96-2.22 1.16 2.22 1.16-.54.95-2.12-1.34.1 2.5h-1.1Zm8 0 .1-2.5-2.12 1.35-.54-.95 2.22-1.16-2.22-1.16.54-.96 2.11 1.34-.09-2.5h1.1l-.1 2.5 2.12-1.34.54.96-2.22 1.16 2.22 1.16-.54.95-2.12-1.34.1 2.5h-1.1Zm8 0 .1-2.5-2.12 1.35-.54-.95 2.22-1.16-2.22-1.16.54-.96 2.11 1.34-.09-2.5h1.1l-.1 2.5 2.12-1.34.54.96-2.22 1.16 2.22 1.16-.54.95-2.12-1.34.1 2.5h-1.1Zm8 0 .1-2.5-2.12 1.35-.54-.95 2.22-1.16-2.22-1.16.54-.96 2.11 1.34-.09-2.5h1.1l-.1 2.5 2.12-1.34.54.96-2.22 1.16 2.22 1.16-.54.95-2.12-1.34.1 2.5h-1.1Zm12.5 0 .1-2.5-2.12 1.35-.54-.95 2.22-1.16-2.22-1.16.54-.96 2.11 1.34-.09-2.5h1.1l-.1 2.5 2.12-1.34.54.96-2.22 1.16 2.22 1.16-.54.95-2.12-1.34.1 2.5h-1.1Zm8 0 .1-2.5-2.12 1.35-.54-.95 2.22-1.16-2.22-1.16.54-.96 2.11 1.34-.09-2.5h1.1l-.1 2.5 2.12-1.34.54.96-2.22 1.16 2.22 1.16-.54.95-2.12-1.34.1 2.5h-1.1Zm8 0 .1-2.5-2.12 1.35-.54-.95 2.22-1.16-2.23-1.16.55-.96 2.11 1.34-.09-2.5h1.1l-.1 2.5 2.12-1.34.54.96-2.23 1.16 2.23 1.16-.54.95-2.12-1.34.1 2.5h-1.1Zm8 0 .1-2.5-2.12 1.35-.54-.95 2.22-1.16-2.23-1.16.55-.96 2.11 1.34-.09-2.5h1.1l-.1 2.5 2.12-1.34.54.96-2.23 1.16 2.23 1.16-.54.95-2.12-1.34.1 2.5h-1.1Zm12.5 0 .1-2.5-2.12 1.35-.54-.95 2.22-1.16-2.23-1.16.55-.96 2.11 1.34-.09-2.5h1.1l-.1 2.5 2.12-1.34.54.96-2.23 1.16 2.23 1.16-.54.95-2.12-1.34.1 2.5h-1.1Zm8 0 .1-2.5-2.12 1.35-.54-.95 2.22-1.16-2.23-1.16.55-.96 2.11 1.34-.09-2.5h1.1l-.1 2.5 2.12-1.34.54.96-2.23 1.16 2.23 1.16-.54.95-2.12-1.34.1 2.5h-1.1Zm8 0 .1-2.5-2.12 1.35-.54-.95 2.22-1.16-2.23-1.16.55-.96 2.11 1.34-.09-2.5h1.1l-.1 2.5 2.12-1.34.54.96-2.23 1.16 2.23 1.16-.54.95-2.12-1.34.1 2.5h-1.1Zm8 0 .1-2.5-2.12 1.35-.54-.95 2.22-1.16-2.23-1.16.55-.96 2.11 1.34-.09-2.5h1.1l-.1 2.5 2.12-1.34.54.96-2.23 1.16 2.23 1.16-.54.95-2.12-1.34.1 2.5h-1.1Zm14.05 5.26c-.86 0-1.59-.23-2.19-.7a4.37 4.37 0 0 1-1.38-2.04 9.68 9.68 0 0 1-.48-3.24c0-1.26.16-2.33.48-3.22a4.4 4.4 0 0 1 1.39-2.05c.6-.47 1.33-.7 2.18-.7.85 0 1.57.23 2.17.7a4.46 4.46 0 0 1 1.4 2.05c.31.89.47 1.96.47 3.22a9.7 9.7 0 0 1-.47 3.24 4.36 4.36 0 0 1-1.38 2.04c-.6.47-1.33.7-2.2.7Zm0-1.25c.85 0 1.5-.41 1.98-1.23.47-.82.7-1.98.7-3.5 0-1-.1-1.86-.32-2.57a3.53 3.53 0 0 0-.92-1.62c-.4-.37-.88-.56-1.44-.56-.84 0-1.5.42-1.97 1.25a7.01 7.01 0 0 0-.71 3.5 9 9 0 0 0 .32 2.57c.2.7.51 1.24.91 1.6.4.38.88.56 1.45.56Zm9.84 1.25a4 4 0 0 1-1.8-.4 3.34 3.34 0 0 1-1.29-1.09 2.9 2.9 0 0 1-.52-1.58h1.36c.05.53.3.96.72 1.3.42.35.94.52 1.53.52a2.42 2.42 0 0 0 2.15-1.26c.22-.4.33-.84.33-1.33 0-.5-.12-.96-.34-1.36a2.46 2.46 0 0 0-2.23-1.3 3.64 3.64 0 0 0-2.02.59l-1.32-.16.7-5.73h6.05v1.25h-4.87l-.4 3.44h.06a3.4 3.4 0 0 1 2.02-.66 3.57 3.57 0 0 1 3.23 1.9c.32.58.48 1.25.48 2s-.17 1.41-.5 2a3.66 3.66 0 0 1-3.34 1.87Zm9.83 0c-.78 0-1.48-.14-2.07-.42a3.38 3.38 0 0 1-1.4-1.15 2.9 2.9 0 0 1-.49-1.68 3.1 3.1 0 0 1 1.1-2.42c.34-.28.73-.46 1.15-.54v-.06c-.56-.15-1-.46-1.33-.94a2.84 2.84 0 0 1-.49-1.65c0-.6.15-1.12.45-1.59.3-.47.72-.83 1.25-1.1a4 4 0 0 1 1.83-.4c.67 0 1.27.13 1.8.4s.95.63 1.25 1.1a3 3 0 0 1-.03 3.24c-.34.48-.77.8-1.32.94v.06c.42.08.8.26 1.14.54a3.16 3.16 0 0 1 1.11 2.41c0 .64-.17 1.2-.51 1.7-.34.48-.8.86-1.4 1.14a4.8 4.8 0 0 1-2.04.42Zm0-1.25c.52 0 .98-.09 1.36-.26.38-.17.68-.4.88-.72a2.1 2.1 0 0 0-.02-2.26 2.3 2.3 0 0 0-.91-.79 2.8 2.8 0 0 0-1.32-.29c-.5 0-.93.1-1.33.3a2.1 2.1 0 0 0-.9.79 1.9 1.9 0 0 0-.33 1.16c0 .42.1.78.3 1.1.2.3.5.54.89.71.39.17.85.26 1.38.26Zm0-5.52c.41 0 .78-.09 1.1-.25a1.9 1.9 0 0 0 1.05-1.75 1.8 1.8 0 0 0-1.03-1.71c-.32-.17-.7-.25-1.13-.25-.43 0-.81.08-1.14.25a1.82 1.82 0 0 0-1.01 1.71c0 .4.08.75.26 1.05.19.3.44.53.77.7.33.16.7.25 1.13.25Zm10.06 6.77c-.75 0-1.42-.13-2-.39a3.44 3.44 0 0 1-1.4-1.07 2.9 2.9 0 0 1-.56-1.6h1.44c.03.37.16.69.38.96.23.27.53.48.9.63.36.15.77.22 1.22.22.5 0 .94-.09 1.33-.26.38-.18.69-.42.9-.73.22-.31.33-.67.33-1.08 0-.43-.1-.8-.31-1.13a2.1 2.1 0 0 0-.94-.77 3.5 3.5 0 0 0-1.5-.28h-.93V71.4h.93c.47 0 .87-.08 1.22-.25a1.89 1.89 0 0 0 1.13-1.77 2 2 0 0 0-.27-1.03c-.17-.3-.42-.52-.74-.68a2.39 2.39 0 0 0-1.1-.25c-.41 0-.79.08-1.14.22-.36.15-.64.36-.87.63-.22.28-.34.6-.36 1h-1.37a2.8 2.8 0 0 1 .55-1.6c.35-.47.8-.83 1.36-1.09a4.37 4.37 0 0 1 3.7.05 3.08 3.08 0 0 1 1.6 2.68 2.62 2.62 0 0 1-1.9 2.64v.09c.73.12 1.3.43 1.71.93.41.5.62 1.12.62 1.86 0 .63-.17 1.2-.52 1.7-.34.5-.8.9-1.4 1.19a4.5 4.5 0 0 1-2.01.43Z" fill="#545454"/><rect x="170.5" y="59.5" width="83" height="25" rx="4.5" fill="#EBEBEB"/><path d="M182.67 78.96a7.3 7.3 0 1 1 .02-14.6 7.3 7.3 0 0 1-.02 14.6Zm0-13.34a6.05 6.05 0 1 0 0 12.09 6.05 6.05 0 0 0 0-12.09Z" fill="#545454"/><path d="M185.33 74.96a.62.62 0 0 1-.44-.18l-2.67-2.67a.62.62 0 0 1-.18-.44V67c0-.35.28-.62.62-.62.34 0 .62.28.62.62v4.41l2.48 2.48c.24.24.24.64 0 .88a.62.62 0 0 1-.44.18l.01.01ZM196.3 77V66.82h3.43c.8 0 1.46.14 1.96.43.51.29.89.67 1.13 1.16.25.49.37 1.03.37 1.63 0 .6-.12 1.14-.37 1.64-.24.49-.61.88-1.12 1.17-.5.29-1.16.43-1.95.43h-2.46v-1.1h2.42c.55 0 .99-.09 1.32-.28.33-.18.57-.44.72-.76.15-.33.23-.7.23-1.1 0-.4-.08-.77-.23-1.1a1.63 1.63 0 0 0-.72-.75 2.74 2.74 0 0 0-1.34-.28h-2.16V77h-1.24Zm11.84.16a3.26 3.26 0 0 1-3.13-1.86 4.68 4.68 0 0 1-.43-2.06c0-.78.14-1.47.43-2.07a3.23 3.23 0 0 1 3.01-1.9c.4 0 .8.06 1.18.2a2.92 2.92 0 0 1 1.82 1.81 5 5 0 0 1 .28 1.8v.5h-5.89v-1.01h4.7c0-.44-.09-.82-.26-1.16a1.95 1.95 0 0 0-1.83-1.1c-.47 0-.87.12-1.21.36-.34.22-.6.52-.78.9-.19.36-.28.75-.28 1.17v.68c0 .58.1 1.07.3 1.47.2.4.48.7.84.9.36.21.78.32 1.25.32.3 0 .59-.05.84-.13.25-.1.46-.23.65-.4.18-.18.32-.4.42-.67l1.13.32a2.5 2.5 0 0 1-.6 1.01c-.28.3-.63.52-1.04.68-.42.16-.88.24-1.4.24Zm6.12-4.75V77h-1.17v-7.64h1.13v1.2h.1c.18-.4.45-.7.81-.94.37-.24.84-.36 1.42-.36.51 0 .97.11 1.35.32.4.21.7.53.9.96.22.42.33.96.33 1.6V77h-1.17v-4.77c0-.6-.16-1.07-.47-1.4a1.65 1.65 0 0 0-1.28-.51c-.38 0-.71.08-1 .24-.3.16-.53.4-.7.71-.17.31-.25.7-.25 1.14Zm9.9 4.75a2.99 2.99 0 0 1-2.83-1.86 5.01 5.01 0 0 1-.41-2.1 5 5 0 0 1 .41-2.09 3.03 3.03 0 0 1 2.85-1.85c.5 0 .89.09 1.18.25.29.17.51.35.66.56l.37.5h.1v-3.75h1.17V77h-1.13v-1.17h-.14l-.37.52c-.16.21-.39.4-.68.57-.3.16-.69.24-1.18.24Zm.16-1.05a2 2 0 0 0 1.2-.37c.32-.25.56-.6.73-1.03.17-.44.26-.95.26-1.53 0-.57-.09-1.07-.25-1.5a1.96 1.96 0 0 0-1.94-1.37c-.5 0-.91.14-1.24.4-.33.24-.58.59-.75 1.02a4.1 4.1 0 0 0-.24 1.45c0 .55.08 1.04.25 1.48.17.44.42.8.75 1.06s.74.39 1.23.39Zm5.65.89v-7.64h1.18V77h-1.18Zm.6-8.9a.83.83 0 0 1-.6-.24.75.75 0 0 1-.24-.56c0-.22.08-.41.25-.57a.83.83 0 0 1 .59-.23c.23 0 .42.08.59.23a.78.78 0 0 1-.01 1.13.82.82 0 0 1-.58.23Zm3.9 4.3V77h-1.18v-7.64h1.14v1.2h.1c.18-.4.45-.7.81-.94.37-.24.84-.36 1.41-.36.52 0 .97.11 1.36.32.39.21.69.53.9.96.22.42.33.96.33 1.6V77h-1.17v-4.77c0-.6-.16-1.07-.47-1.4a1.65 1.65 0 0 0-1.28-.51c-.38 0-.71.08-1 .24-.3.16-.53.4-.7.71-.17.31-.25.7-.25 1.14Zm10.1 7.62a4.3 4.3 0 0 1-1.47-.22 3.09 3.09 0 0 1-1.66-1.3l.94-.66c.1.13.24.3.4.47.16.18.38.34.67.47.28.14.66.2 1.12.2.61 0 1.12-.14 1.52-.44.4-.3.6-.76.6-1.4v-1.55h-.1c-.08.14-.2.31-.36.52-.16.2-.38.38-.68.54-.3.15-.69.23-1.18.23a3.07 3.07 0 0 1-2.82-1.71 4.45 4.45 0 0 1-.43-2.03c0-.78.14-1.46.42-2.04a3.03 3.03 0 0 1 2.85-1.83c.5 0 .89.08 1.18.24.3.17.52.35.68.56.16.2.28.37.36.5h.12v-1.2h1.14v7.85c0 .66-.15 1.19-.45 1.6-.3.41-.7.72-1.2.9-.5.2-1.04.3-1.66.3Zm-.04-4.2c.47 0 .86-.1 1.19-.32a2 2 0 0 0 .74-.93c.17-.4.25-.88.25-1.45 0-.55-.08-1.03-.25-1.45a2.19 2.19 0 0 0-.73-1 1.98 1.98 0 0 0-1.2-.35 2 2 0 0 0-1.99 1.39c-.16.42-.24.9-.24 1.41 0 .53.08 1 .25 1.4.17.41.41.73.74.96.33.23.75.35 1.24.35Z" fill="#545454"/><rect x="170.5" y="59.5" width="83" height="25" rx="4.5" stroke="#fff"/><rect x="32.5" y="32.5" width="607" height="79" rx="7.5" stroke="#EBEBEB"/><rect x="32.5" y="128.5" width="607" height="79" rx="7.5" fill="#fff"/><path d="M69.34 174.22c-.94 0-1.74-.23-2.41-.7a4.52 4.52 0 0 1-1.54-2.07 8.87 8.87 0 0 1-.54-3.26c0-1.27.19-2.34.54-3.23.36-.9.88-1.58 1.54-2.05.67-.47 1.47-.7 2.4-.7.94 0 1.74.23 2.4.7a4.4 4.4 0 0 1 1.55 2.05c.36.89.54 1.97.54 3.23a8.8 8.8 0 0 1-.54 3.27 4 4 0 0 1-3.94 2.76Zm0-1.78c.72 0 1.3-.35 1.72-1.07.42-.72.63-1.78.63-3.18 0-.92-.1-1.7-.29-2.33a3.1 3.1 0 0 0-.81-1.42 1.8 1.8 0 0 0-1.25-.48c-.73 0-1.3.36-1.72 1.08a6.37 6.37 0 0 0-.64 3.15c0 .93.1 1.71.28 2.34.2.64.47 1.11.82 1.44.35.31.77.47 1.26.47ZM75.7 174v-1.52l4.04-3.96c.38-.4.7-.74.96-1.04.26-.3.45-.6.58-.88.13-.29.2-.6.2-.91a1.66 1.66 0 0 0-.94-1.56 2.33 2.33 0 0 0-2 .02c-.3.16-.51.38-.67.67a2.1 2.1 0 0 0-.24 1.03h-2c0-.74.17-1.38.5-1.93.34-.54.8-.97 1.4-1.27a4.5 4.5 0 0 1 2.04-.44c.78 0 1.47.14 2.06.43.59.3 1.05.7 1.37 1.2.33.5.5 1.09.5 1.74 0 .43-.09.86-.25 1.28-.17.42-.46.89-.88 1.4-.42.51-1 1.13-1.76 1.86l-2 2.04v.08h5.06V174H75.7Zm14.7-12.18-3.74 13.93h-1.8l3.75-13.93h1.8Zm6.03.54V174h-2.1v-9.59h-.08l-2.72 1.74v-1.93l2.9-1.86h2Zm7.69 0V174h-2.11v-9.59h-.07l-2.72 1.74v-1.93l2.9-1.86h2Zm7.72-.54-3.75 13.93h-1.8l3.75-13.93h1.8Zm1.3 12.18v-1.52l4.03-3.96c.39-.4.71-.74.97-1.04.26-.3.45-.6.58-.88.13-.29.2-.6.2-.91a1.66 1.66 0 0 0-.94-1.56 2.33 2.33 0 0 0-2 .02c-.3.16-.52.38-.68.67a2.2 2.2 0 0 0-.23 1.03h-2a3.42 3.42 0 0 1 1.9-3.2 4.5 4.5 0 0 1 2.04-.44c.78 0 1.46.14 2.06.43.59.3 1.05.7 1.37 1.2.33.5.5 1.09.5 1.74 0 .43-.09.86-.26 1.28-.16.42-.46.89-.88 1.4-.41.51-1 1.13-1.75 1.86l-2 2.04v.08h5.06V174h-7.98Zm14.23.22c-.93 0-1.74-.23-2.4-.7a4.52 4.52 0 0 1-1.55-2.07 8.87 8.87 0 0 1-.53-3.26c0-1.27.18-2.34.54-3.23.36-.9.87-1.58 1.54-2.05.67-.47 1.47-.7 2.4-.7.93 0 1.74.23 2.4.7a4.4 4.4 0 0 1 1.54 2.05c.37.89.55 1.97.55 3.23a8.8 8.8 0 0 1-.55 3.27 4 4 0 0 1-3.93 2.76Zm0-1.78c.73 0 1.3-.35 1.72-1.07a6.3 6.3 0 0 0 .64-3.18c0-.92-.1-1.7-.29-2.33a3.1 3.1 0 0 0-.82-1.42 1.8 1.8 0 0 0-1.25-.48c-.72 0-1.3.36-1.71 1.08a6.37 6.37 0 0 0-.64 3.15c0 .93.09 1.71.28 2.34.2.64.46 1.11.82 1.44.35.31.77.47 1.25.47Zm6.37 1.56v-1.52l4.04-3.96c.39-.4.71-.74.97-1.04.26-.3.45-.6.58-.88.13-.29.2-.6.2-.91a1.66 1.66 0 0 0-.94-1.56 2.33 2.33 0 0 0-2 .02c-.3.16-.52.38-.68.67a2.2 2.2 0 0 0-.23 1.03h-2a3.42 3.42 0 0 1 1.9-3.2 4.5 4.5 0 0 1 2.04-.44c.78 0 1.46.14 2.06.43.59.3 1.04.7 1.37 1.2.33.5.5 1.09.5 1.74 0 .43-.09.86-.26 1.28-.16.42-.46.89-.88 1.4-.41.51-1 1.13-1.75 1.86l-2 2.04v.08h5.06V174h-7.98Zm9.94 0v-1.52l4.04-3.96c.39-.4.7-.74.97-1.04.25-.3.45-.6.58-.88.12-.29.19-.6.19-.91 0-.37-.09-.68-.25-.95a1.6 1.6 0 0 0-.69-.6c-.29-.15-.62-.22-1-.22s-.71.07-1 .23c-.29.16-.51.38-.67.67-.16.29-.23.63-.23 1.03h-2a3.42 3.42 0 0 1 1.9-3.2 4.5 4.5 0 0 1 2.03-.44c.79 0 1.47.14 2.06.43.6.3 1.05.7 1.38 1.2.33.5.5 1.09.5 1.74 0 .43-.1.86-.26 1.28-.17.42-.46.89-.88 1.4-.42.51-1 1.13-1.76 1.86l-2 2.04v.08h5.07V174h-7.98Z" fill="#1F1F1F"/><path d="m462.17 168.9.1-2.5-2.12 1.35-.54-.96 2.22-1.15-2.22-1.16.54-.96 2.11 1.34-.09-2.5h1.1l-.1 2.5 2.12-1.34.54.96-2.22 1.16 2.22 1.16-.54.95-2.12-1.34.1 2.5h-1.1Zm8 0 .1-2.5-2.12 1.35-.54-.96 2.22-1.15-2.22-1.16.54-.96 2.11 1.34-.09-2.5h1.1l-.1 2.5 2.12-1.34.54.96-2.22 1.16 2.22 1.16-.54.95-2.12-1.34.1 2.5h-1.1Zm8 0 .1-2.5-2.12 1.35-.54-.96 2.22-1.15-2.22-1.16.54-.96 2.11 1.34-.09-2.5h1.1l-.1 2.5 2.12-1.34.54.96-2.22 1.16 2.22 1.16-.54.95-2.12-1.34.1 2.5h-1.1Zm8 0 .1-2.5-2.12 1.35-.54-.96 2.22-1.15-2.22-1.16.54-.96 2.11 1.34-.09-2.5h1.1l-.1 2.5 2.12-1.34.54.96-2.22 1.16 2.22 1.16-.54.95-2.12-1.34.1 2.5h-1.1Zm12.5 0 .1-2.5-2.12 1.35-.54-.96 2.22-1.15-2.22-1.16.54-.96 2.11 1.34-.09-2.5h1.1l-.1 2.5 2.12-1.34.54.96-2.22 1.16 2.22 1.16-.54.95-2.12-1.34.1 2.5h-1.1Zm8 0 .1-2.5-2.12 1.35-.54-.96 2.22-1.15-2.22-1.16.54-.96 2.11 1.34-.09-2.5h1.1l-.1 2.5 2.12-1.34.54.96-2.22 1.16 2.22 1.16-.54.95-2.12-1.34.1 2.5h-1.1Zm8 0 .1-2.5-2.12 1.35-.54-.96 2.22-1.15-2.23-1.16.55-.96 2.11 1.34-.09-2.5h1.1l-.1 2.5 2.12-1.34.54.96-2.23 1.16 2.23 1.16-.54.95-2.12-1.34.1 2.5h-1.1Zm8 0 .1-2.5-2.12 1.35-.54-.96 2.22-1.15-2.23-1.16.55-.96 2.11 1.34-.09-2.5h1.1l-.1 2.5 2.12-1.34.54.96-2.23 1.16 2.23 1.16-.54.95-2.12-1.34.1 2.5h-1.1Zm12.5 0 .1-2.5-2.12 1.35-.54-.96 2.22-1.15-2.23-1.16.55-.96 2.11 1.34-.09-2.5h1.1l-.1 2.5 2.12-1.34.54.96-2.23 1.16 2.23 1.16-.54.95-2.12-1.34.1 2.5h-1.1Zm8 0 .1-2.5-2.12 1.35-.54-.96 2.22-1.15-2.23-1.16.55-.96 2.11 1.34-.09-2.5h1.1l-.1 2.5 2.12-1.34.54.96-2.23 1.16 2.23 1.16-.54.95-2.12-1.34.1 2.5h-1.1Zm8 0 .1-2.5-2.12 1.35-.54-.96 2.22-1.15-2.23-1.16.55-.96 2.11 1.34-.09-2.5h1.1l-.1 2.5 2.12-1.34.54.96-2.23 1.16 2.23 1.16-.54.95-2.12-1.34.1 2.5h-1.1Zm8 0 .1-2.5-2.12 1.35-.54-.96 2.22-1.15-2.23-1.16.55-.96 2.11 1.34-.09-2.5h1.1l-.1 2.5 2.12-1.34.54.96-2.23 1.16 2.23 1.16-.54.95-2.12-1.34.1 2.5h-1.1Zm14.05 5.26c-.86 0-1.59-.23-2.19-.7a4.36 4.36 0 0 1-1.38-2.04 9.67 9.67 0 0 1-.48-3.24c0-1.26.16-2.33.48-3.22a4.4 4.4 0 0 1 1.39-2.05c.6-.47 1.33-.7 2.18-.7.85 0 1.57.23 2.17.7a4.46 4.46 0 0 1 1.4 2.05c.31.89.47 1.96.47 3.22a9.7 9.7 0 0 1-.47 3.24c-.32.9-.78 1.57-1.38 2.04-.6.47-1.33.7-2.2.7Zm0-1.25c.85 0 1.5-.41 1.98-1.23.47-.82.7-1.98.7-3.5 0-1-.1-1.86-.32-2.57a3.53 3.53 0 0 0-.92-1.62c-.4-.37-.88-.56-1.44-.56-.84 0-1.5.42-1.97 1.25a7.01 7.01 0 0 0-.71 3.5 9 9 0 0 0 .32 2.57c.2.7.51 1.24.91 1.6.4.38.88.56 1.45.56Zm9.84 1.25a3.9 3.9 0 0 1-1.8-.4 3.33 3.33 0 0 1-1.29-1.09 2.9 2.9 0 0 1-.52-1.58h1.36c.05.53.3.96.72 1.3.42.35.94.52 1.53.52a2.42 2.42 0 0 0 2.15-1.26c.22-.4.33-.84.33-1.33 0-.5-.12-.96-.34-1.36a2.47 2.47 0 0 0-2.23-1.3 3.62 3.62 0 0 0-2.02.59l-1.32-.16.7-5.73h6.05v1.25h-4.87l-.4 3.43h.06a3.4 3.4 0 0 1 2.02-.66 3.57 3.57 0 0 1 3.23 1.9c.32.6.48 1.26.48 2.01 0 .75-.17 1.41-.5 2a3.66 3.66 0 0 1-3.34 1.87Zm9.83 0c-.78 0-1.48-.14-2.07-.42a3.38 3.38 0 0 1-1.4-1.15 2.9 2.9 0 0 1-.49-1.68 3.1 3.1 0 0 1 1.1-2.42c.34-.28.73-.46 1.15-.53v-.07c-.56-.15-1-.46-1.33-.94a2.84 2.84 0 0 1-.49-1.66c0-.58.15-1.11.45-1.58.3-.47.72-.83 1.25-1.1a4 4 0 0 1 1.83-.4c.67 0 1.27.13 1.8.4s.95.63 1.25 1.1a2.89 2.89 0 0 1-.04 3.24c-.33.48-.76.8-1.31.94v.07c.42.07.8.25 1.14.53a3.16 3.16 0 0 1 1.11 2.41c0 .64-.17 1.2-.51 1.7-.34.48-.8.86-1.4 1.14-.58.28-1.27.42-2.04.42Zm0-1.25c.52 0 .98-.09 1.36-.26.38-.17.68-.4.88-.72a2.1 2.1 0 0 0-.02-2.26 2.3 2.3 0 0 0-.91-.79 2.8 2.8 0 0 0-1.32-.29c-.5 0-.93.1-1.33.3a2.1 2.1 0 0 0-.9.79 1.9 1.9 0 0 0-.33 1.16c0 .42.1.78.3 1.1.2.3.5.54.89.71.39.17.85.26 1.38.26Zm0-5.52c.41 0 .78-.09 1.1-.25a1.9 1.9 0 0 0 1.05-1.75 1.8 1.8 0 0 0-1.03-1.71c-.32-.17-.7-.25-1.13-.25-.43 0-.81.08-1.14.25a1.82 1.82 0 0 0-1.01 1.71c0 .4.08.75.26 1.05.19.3.44.53.77.7.33.16.7.25 1.13.25Zm10.06 6.77c-.75 0-1.42-.13-2-.39a3.45 3.45 0 0 1-1.4-1.07 2.9 2.9 0 0 1-.56-1.6h1.44c.03.37.16.69.38.96.23.27.53.48.9.63.36.15.77.22 1.22.22.5 0 .94-.09 1.33-.26.38-.18.69-.42.9-.73.22-.31.33-.67.33-1.08 0-.43-.1-.8-.31-1.13a2.1 2.1 0 0 0-.94-.77 3.5 3.5 0 0 0-1.5-.28h-.93v-1.25h.93c.47 0 .87-.08 1.22-.25a1.89 1.89 0 0 0 1.13-1.77 2 2 0 0 0-.27-1.03c-.17-.3-.42-.52-.74-.68a2.39 2.39 0 0 0-1.1-.25c-.41 0-.79.08-1.14.22-.36.15-.64.36-.87.63-.22.28-.34.6-.36 1h-1.37c.03-.62.21-1.15.55-1.61.35-.46.8-.82 1.36-1.08a4.36 4.36 0 0 1 3.7.05 3.08 3.08 0 0 1 1.6 2.68 2.62 2.62 0 0 1-1.9 2.64v.08c.73.13 1.3.44 1.71.94.41.5.62 1.12.62 1.86 0 .63-.17 1.2-.52 1.7-.34.5-.8.9-1.4 1.19-.59.28-1.26.43-2.01.43Z" fill="#545454"/><rect x="170.5" y="155.5" width="58" height="25" rx="4.5" fill="#E9F8E9"/><path d="M181.33 171.96a.62.62 0 0 1-.44-.18l-3.33-3.33a.63.63 0 0 1 0-.88.63.63 0 0 1 .88 0l2.89 2.89 6.89-6.9a.63.63 0 0 1 .88 0c.24.24.24.64 0 .88l-7.33 7.33a.62.62 0 0 1-.44.18v.01Z" fill="#006F07"/><path d="M196.34 173v-10.18h3.44c.8 0 1.45.14 1.96.43.5.29.88.67 1.13 1.16.24.49.37 1.03.37 1.63 0 .6-.13 1.15-.37 1.64s-.62.88-1.12 1.17c-.51.29-1.16.43-1.95.43h-2.47v-1.1h2.43c.54 0 .98-.09 1.31-.28.34-.19.58-.44.72-.76.16-.33.23-.7.23-1.1 0-.4-.07-.77-.23-1.1a1.63 1.63 0 0 0-.72-.75 2.75 2.75 0 0 0-1.33-.28h-2.17V173h-1.23Zm10.97.18c-.48 0-.92-.1-1.32-.27-.4-.19-.7-.46-.94-.8a2.26 2.26 0 0 1-.34-1.28c0-.44.08-.79.25-1.06.18-.28.4-.5.7-.65.28-.15.6-.27.95-.35.35-.08.7-.14 1.06-.19a52 52 0 0 1 1.13-.13c.29-.03.5-.09.63-.16.14-.08.2-.21.2-.4v-.04c0-.5-.13-.87-.4-1.14-.26-.28-.66-.41-1.2-.41a2.1 2.1 0 0 0-1.99 1.15l-1.11-.4a2.68 2.68 0 0 1 1.88-1.63 4.55 4.55 0 0 1 2.02-.07c.32.06.63.18.93.36.3.18.55.45.75.8.2.37.3.85.3 1.46V173h-1.17v-1.03h-.06a2.3 2.3 0 0 1-1.14 1.01c-.3.13-.69.2-1.13.2Zm.18-1.06c.46 0 .85-.09 1.17-.27a1.87 1.87 0 0 0 .98-1.61v-1.08c-.05.06-.16.12-.33.17l-.58.12a29.9 29.9 0 0 1-1.12.15 4 4 0 0 0-.86.2c-.26.08-.47.21-.63.39a1 1 0 0 0-.24.7c0 .41.15.72.45.93.3.2.7.3 1.16.3Zm5.46.88v-7.64h1.18V173h-1.18Zm.6-8.9a.83.83 0 0 1-.6-.24.75.75 0 0 1-.24-.57c0-.21.08-.4.25-.56a.83.83 0 0 1 .59-.23c.23 0 .42.08.59.23.16.16.25.35.25.56 0 .22-.09.41-.25.57a.82.82 0 0 1-.6.23Zm5.6 9.06a3 3 0 0 1-2.82-1.85c-.28-.6-.41-1.3-.41-2.1 0-.81.14-1.5.41-2.1a3.04 3.04 0 0 1 2.85-1.85c.5 0 .89.09 1.18.25.29.17.51.35.66.56l.37.5h.1v-3.75h1.17V173h-1.13v-1.17h-.14l-.37.52c-.16.21-.39.4-.68.56-.3.17-.7.25-1.18.25Zm.17-1.06c.47 0 .87-.12 1.2-.36.32-.25.56-.6.73-1.03.17-.44.25-.95.25-1.53a4.3 4.3 0 0 0-.24-1.5 1.96 1.96 0 0 0-1.94-1.37c-.5 0-.91.14-1.25.4-.32.24-.57.59-.74 1.02a4.1 4.1 0 0 0-.24 1.45c0 .54.08 1.04.25 1.48.17.44.42.8.75 1.06s.74.38 1.23.38Z" fill="#005509"/><rect x="170.5" y="155.5" width="58" height="25" rx="4.5" stroke="#fff"/><rect x="32.5" y="128.5" width="607" height="79" rx="7.5" stroke="#EBEBEB"/></svg>