<svg width="672" height="160" fill="none" xmlns="http://www.w3.org/2000/svg"><path fill="#F6F6F6" d="M0 0h672v160H0z"/><rect x="32.5" y="32.5" width="607" height="95" rx="11.5" fill="#fff"/><path d="M120 80a32 32 0 1 1-64 0 32 32 0 0 1 64 0Z" fill="#E9F8E9"/><path d="M104.22 67.5v8.6a.45.45 0 0 1-.45.46H90.18a.45.45 0 0 1-.45-.45V62.52a.45.45 0 0 1 .45-.45h12.23" stroke="#757575" stroke-width="1.2" stroke-miterlimit="10"/><path d="M96.68 71.44a.78.78 0 0 1-.55-.28l-3.22-3.12.5-.5 3.32 3.24 10.3-9.78.48.51-10.27 9.77a.8.8 0 0 1-.56.16Z" fill="#4FBF5E" stroke="#4FBF5E" stroke-width="1.5"/><path d="M104.33 89.14v8.6a.45.45 0 0 1-.46.46H90.28a.45.45 0 0 1-.45-.45v-13.6a.45.45 0 0 1 .45-.45h12.23" stroke="#757575" stroke-width="1.2" stroke-miterlimit="10"/><path d="M96.73 93.15a.79.79 0 0 1-.55-.28L92.9 89.7l.51-.5 3.37 3.28 10.45-9.93.49.52L97.3 93a.8.8 0 0 1-.57.16Z" fill="#4FBF5E" stroke="#4FBF5E" stroke-width="1.5"/><g clip-path="url(#a)"><path d="M71 91.7h9.73V38.3H71v53.4Z" fill="#0D8F1F"/><path d="M73.43 91.7h4.87V38.3h-4.87v53.4Z" fill="#FFB71B"/><path d="m71 91.7 4.96 7.69 4.77-7.7H71Z" fill="#FFD67B"/><path d="M77.44 97h-3.02l1.55 2.48L77.44 97Z" fill="#0D8F1F"/></g><path d="M145.5 74V58.73h5.73c1.18 0 2.16.22 2.96.65.8.44 1.4 1.04 1.8 1.8.42.77.63 1.63.63 2.6 0 .98-.2 1.85-.62 2.61a4.43 4.43 0 0 1-1.83 1.8c-.8.43-1.8.65-2.97.65h-3.8v-2.28h3.42a3.5 3.5 0 0 0 1.69-.35c.44-.24.76-.57.97-.99.21-.41.32-.9.32-1.44 0-.54-.1-1.02-.32-1.43a2.22 2.22 0 0 0-.98-.96c-.44-.23-1-.35-1.7-.35h-2.53V74h-2.76Zm13.4 0V62.55h2.62v1.9h.12a2.85 2.85 0 0 1 2.83-2.07 6.2 6.2 0 0 1 .96.08v2.48a5.01 5.01 0 0 0-1.25-.16c-.5 0-.93.11-1.33.32a2.35 2.35 0 0 0-1.25 2.17V74h-2.7Zm11.42.23c-.73 0-1.38-.13-1.96-.39a3.2 3.2 0 0 1-1.37-1.16 3.4 3.4 0 0 1-.5-1.9 2.76 2.76 0 0 1 1.34-2.62c.4-.25.87-.44 1.38-.57.53-.13 1.07-.23 1.62-.29a63.9 63.9 0 0 0 1.64-.18c.41-.06.72-.15.9-.27.2-.13.3-.32.3-.58v-.04c0-.56-.17-1-.5-1.3-.33-.31-.81-.47-1.44-.47-.66 0-1.19.15-1.57.43-.39.3-.65.63-.78 1.03l-2.52-.36a4.03 4.03 0 0 1 2.66-2.8 7.15 7.15 0 0 1 3.84-.16c.55.12 1.05.33 1.5.63.45.3.82.7 1.09 1.2.28.5.42 1.14.42 1.9V74h-2.6v-1.57h-.09a3.3 3.3 0 0 1-1.8 1.56c-.44.16-.96.24-1.56.24Zm.7-1.98c.54 0 1.01-.1 1.4-.32.4-.22.71-.51.93-.87.22-.36.33-.75.33-1.17v-1.35a1.3 1.3 0 0 1-.44.2l-.67.15a20.76 20.76 0 0 1-1.37.21c-.4.06-.76.14-1.08.27-.32.12-.57.3-.76.52-.18.22-.27.5-.27.85 0 .5.18.87.54 1.13.37.25.83.38 1.39.38Zm13.06 1.97a5.04 5.04 0 0 1-4.83-2.83 6.89 6.89 0 0 1-.66-3.07c0-1.17.22-2.2.67-3.08.45-.9 1.08-1.6 1.9-2.09.81-.5 1.78-.75 2.9-.75.93 0 1.75.17 2.47.51a4.22 4.22 0 0 1 2.46 3.6h-2.59a2.47 2.47 0 0 0-.74-1.38c-.39-.37-.9-.56-1.56-.56a2.4 2.4 0 0 0-1.45.45c-.42.3-.75.72-.98 1.27a5.16 5.16 0 0 0-.34 1.98c0 .78.11 1.45.34 2.02.23.55.55.98.96 1.29.42.3.9.44 1.47.44a2.15 2.15 0 0 0 1.87-.89c.2-.28.35-.63.44-1.05h2.58a4.25 4.25 0 0 1-2.4 3.62c-.72.35-1.55.52-2.51.52Zm12.84-11.67v2.08h-6.58v-2.08h6.58Zm-4.96-2.75h2.7v10.75c0 .37.06.65.17.84.11.19.26.32.44.39.19.07.4.1.61.1a2.63 2.63 0 0 0 .8-.1l.45 2.1a5.96 5.96 0 0 1-1.59.28 4.4 4.4 0 0 1-1.82-.3 2.84 2.84 0 0 1-1.3-1.07 3.15 3.15 0 0 1-.46-1.79V59.8Zm7.22 14.2V62.55h2.7V74h-2.7Zm1.36-13.08c-.43 0-.8-.14-1.1-.43a1.32 1.32 0 0 1-.47-1.03c0-.41.15-.76.46-1.04.31-.29.68-.43 1.1-.43.44 0 .8.14 1.11.43.3.28.46.63.46 1.04 0 .4-.15.75-.46 1.03-.3.29-.67.43-1.1.43Zm9.11 13.3a5.03 5.03 0 0 1-4.83-2.83 6.87 6.87 0 0 1-.66-3.07c0-1.17.23-2.2.67-3.08a5 5 0 0 1 1.9-2.09c.82-.5 1.79-.75 2.9-.75.94 0 1.76.17 2.47.51a4.22 4.22 0 0 1 2.46 3.6h-2.58a2.47 2.47 0 0 0-.75-1.38c-.39-.37-.9-.56-1.56-.56-.55 0-1.03.15-1.45.45-.42.3-.74.72-.98 1.27a5.18 5.18 0 0 0-.34 1.98c0 .78.11 1.45.34 2.02.23.55.55.98.96 1.29.42.3.91.44 1.47.44a2.15 2.15 0 0 0 1.87-.89c.21-.28.36-.63.44-1.05h2.58a4.23 4.23 0 0 1-2.4 3.62c-.71.35-1.55.52-2.5.52Zm12.2 0a5.9 5.9 0 0 1-2.98-.71 4.85 4.85 0 0 1-1.92-2.05 6.84 6.84 0 0 1-.67-3.12c0-1.18.23-2.21.67-3.1a5.08 5.08 0 0 1 4.75-2.84c.71 0 1.38.11 2 .34.63.22 1.2.57 1.67 1.04a4.9 4.9 0 0 1 1.15 1.8c.28.73.42 1.6.42 2.6v.83h-9.39V67.2h6.8c0-.52-.11-.98-.33-1.38a2.45 2.45 0 0 0-2.28-1.31 2.75 2.75 0 0 0-2.43 1.45c-.23.42-.34.9-.35 1.4v1.6c0 .66.12 1.23.36 1.7a2.67 2.67 0 0 0 2.56 1.47c.4 0 .75-.05 1.07-.16.32-.12.6-.28.83-.5.23-.22.4-.5.53-.82l2.52.29a3.93 3.93 0 0 1-.91 1.74 4.3 4.3 0 0 1-1.7 1.15c-.7.27-1.48.4-2.37.4Z" fill="#333"/><path d="M145.4 102V90.36h6.99v1.25h-5.57v3.94h5.04v1.25h-5.04v5.2h-1.41Zm9.22 0v-8.73h1.34V102h-1.34Zm.68-10.18a.95.95 0 0 1-.68-.27.86.86 0 0 1-.28-.64c0-.25.1-.46.28-.64a.95.95 0 0 1 .68-.27c.26 0 .48.09.67.27.19.18.28.39.28.64s-.09.46-.28.64a.93.93 0 0 1-.67.27Zm4.46 4.93V102h-1.34v-8.73h1.29v1.37h.11c.2-.45.52-.8.94-1.07.41-.27.95-.41 1.6-.41.6 0 1.12.12 1.56.36.44.24.79.6 1.04 1.1.24.48.36 1.1.36 1.83V102h-1.34v-5.45c0-.69-.17-1.22-.53-1.6a1.9 1.9 0 0 0-1.47-.59c-.42 0-.8.1-1.14.28a2 2 0 0 0-.8.81c-.19.36-.28.8-.28 1.3Zm11.31 5.43a3.42 3.42 0 0 1-3.23-2.12 5.65 5.65 0 0 1-.47-2.4c0-.92.15-1.71.47-2.39.31-.67.75-1.2 1.3-1.56a3.5 3.5 0 0 1 1.95-.55c.57 0 1.02.1 1.35.28.33.19.59.4.76.64.18.23.32.43.42.58h.1v-4.3h1.35V102h-1.3v-1.34h-.16c-.1.16-.23.36-.42.6a2.5 2.5 0 0 1-.77.64c-.34.19-.79.28-1.35.28Zm.18-1.2c.54 0 1-.14 1.37-.42.37-.29.65-.68.84-1.18.2-.5.3-1.08.3-1.74 0-.66-.1-1.23-.3-1.71-.18-.5-.46-.88-.83-1.15a2.24 2.24 0 0 0-1.38-.42c-.57 0-1.04.15-1.42.44-.37.29-.66.68-.85 1.18a5.03 5.03 0 0 0 .01 3.35c.2.5.48.9.85 1.2.38.3.85.45 1.41.45Zm17.14-5.75-1.2.34c-.08-.2-.19-.4-.34-.59a1.56 1.56 0 0 0-.59-.47 2.15 2.15 0 0 0-.96-.2c-.53 0-.98.13-1.33.38-.35.24-.53.55-.53.92 0 .34.12.6.36.8.24.19.62.35 1.14.48l1.3.31c.77.2 1.36.48 1.74.87.38.39.57.89.57 1.5 0 .5-.14.95-.43 1.34-.28.4-.68.7-1.2.93-.5.23-1.1.34-1.78.34-.89 0-1.62-.2-2.2-.58a2.57 2.57 0 0 1-1.12-1.7l1.28-.3c.12.46.35.81.69 1.05.34.23.78.35 1.33.35a2.5 2.5 0 0 0 1.49-.4c.37-.27.56-.59.56-.96 0-.3-.11-.56-.32-.77-.21-.2-.54-.36-.98-.46l-1.45-.34a3.47 3.47 0 0 1-1.76-.88c-.38-.4-.56-.9-.56-1.5 0-.5.14-.94.41-1.31.28-.38.66-.68 1.15-.9a4 4 0 0 1 1.64-.32c.87 0 1.54.19 2.04.57.5.38.84.88 1.05 1.5Zm3.43 3.59-.02-1.66h.27l3.82-3.89h1.66l-4.07 4.12h-.11l-1.55 1.43Zm-1.25 3.18V90.36h1.34V102h-1.34Zm5.55 0-3.41-4.32.95-.93 4.16 5.25h-1.7Zm3.15 0v-8.73h1.34V102h-1.34Zm.69-10.18a.95.95 0 0 1-.68-.27.86.86 0 0 1-.28-.64c0-.25.1-.46.28-.64a.95.95 0 0 1 .68-.27c.26 0 .48.09.67.27.19.18.28.39.28.64s-.1.46-.28.64a.93.93 0 0 1-.67.27Zm4.45-1.46V102h-1.34V90.36h1.34Zm3.8 0V102h-1.34V90.36h1.34Zm8.64 4.87-1.2.34c-.08-.2-.2-.4-.34-.59a1.6 1.6 0 0 0-.6-.47 2.15 2.15 0 0 0-.95-.2c-.54 0-.98.13-1.34.38-.35.24-.53.55-.53.92 0 .34.12.6.37.8.24.19.62.35 1.13.48l1.3.31c.78.2 1.36.48 1.74.87.38.39.58.89.58 1.5 0 .5-.15.95-.44 1.34-.28.4-.68.7-1.19.93-.51.23-1.1.34-1.78.34-.9 0-1.63-.2-2.21-.58a2.57 2.57 0 0 1-1.11-1.7l1.27-.3c.12.46.35.81.69 1.05.34.23.78.35 1.33.35a2.5 2.5 0 0 0 1.5-.4c.36-.27.55-.59.55-.96 0-.3-.1-.56-.32-.77-.21-.2-.54-.36-.98-.46l-1.45-.34a3.47 3.47 0 0 1-1.76-.88c-.37-.4-.56-.9-.56-1.5 0-.5.14-.94.42-1.31.28-.38.66-.68 1.14-.9a4 4 0 0 1 1.65-.32c.86 0 1.54.19 2.03.57.5.38.85.88 1.06 1.5Zm7.54 10.04a2.93 2.93 0 0 1-.98-.16l.34-1.18c.33.08.62.11.87.1.25-.03.47-.14.66-.34.2-.2.38-.52.54-.96l.25-.69-3.23-8.77h1.46l2.4 6.96h.1l2.4-6.96h1.46l-3.7 10a3.8 3.8 0 0 1-.62 1.12 2.34 2.34 0 0 1-1.95.88Zm11.27-3.09a3.8 3.8 0 0 1-2.07-.56 3.82 3.82 0 0 1-1.39-1.58 5.33 5.33 0 0 1-.5-2.36c0-.9.17-1.7.5-2.38.34-.68.8-1.2 1.39-1.58a3.8 3.8 0 0 1 2.07-.56c.8 0 1.48.19 2.07.56.6.38 1.06.9 1.39 1.58.33.68.5 1.47.5 2.38 0 .9-.17 1.7-.5 2.36-.33.68-.8 1.2-1.39 1.58-.59.37-1.28.56-2.07.56Zm0-1.2c.6 0 1.1-.16 1.48-.46.39-.31.67-.71.86-1.21a4.77 4.77 0 0 0 0-3.26c-.19-.5-.47-.91-.86-1.22a2.29 2.29 0 0 0-1.48-.47c-.6 0-1.09.16-1.47.47a2.7 2.7 0 0 0-.86 1.22 4.7 4.7 0 0 0-.28 1.63c0 .59.1 1.13.28 1.63.18.5.47.9.86 1.2.38.31.88.47 1.47.47Zm11.5-2.55v-5.16h1.35V102h-1.34v-1.48h-.1a2.74 2.74 0 0 1-2.59 1.59 3 3 0 0 1-1.45-.35 2.5 2.5 0 0 1-1-1.1 4.15 4.15 0 0 1-.37-1.84v-5.55h1.35v5.46c0 .63.17 1.14.53 1.52.36.38.82.57 1.38.57a2.28 2.28 0 0 0 1.89-1.04c.23-.35.35-.8.35-1.35Zm10.28 3.57-2.66-8.73h1.4l1.9 6.68h.09l1.86-6.68h1.43l1.84 6.66h.1l1.88-6.66h1.4l-2.65 8.73h-1.32l-1.9-6.7h-.14l-1.91 6.7h-1.32Zm13.59.2c-.55 0-1.05-.1-1.5-.3a2.7 2.7 0 0 1-1.08-.92c-.26-.4-.4-.89-.4-1.46 0-.5.1-.9.3-1.21.2-.32.46-.56.79-.74.33-.18.7-.31 1.09-.4.4-.1.8-.16 1.2-.22l1.3-.15c.33-.04.57-.1.73-.19.15-.08.23-.23.23-.45v-.05c0-.56-.15-1-.46-1.3-.3-.31-.77-.47-1.38-.47-.64 0-1.14.14-1.5.42a2.5 2.5 0 0 0-.78.9l-1.27-.46a3 3 0 0 1 .91-1.23c.38-.3.8-.51 1.25-.63a5.18 5.18 0 0 1 2.3-.08c.38.07.73.2 1.07.4.35.2.63.52.86.93.23.41.34.97.34 1.66V102h-1.34v-1.18h-.07a2.61 2.61 0 0 1-1.3 1.16c-.35.15-.78.22-1.29.22Zm.2-1.2c.53 0 .98-.1 1.34-.31a2.13 2.13 0 0 0 1.12-1.85v-1.23c-.06.07-.18.13-.38.2-.19.04-.4.1-.66.13a29.63 29.63 0 0 1-1.28.17c-.35.05-.67.12-.98.23-.3.1-.54.24-.72.44-.19.2-.28.47-.28.81 0 .47.18.82.52 1.06.35.23.79.35 1.32.35Zm7.59-4.25V102h-1.34v-8.73h1.3v1.37h.1c.21-.45.52-.8.94-1.07.42-.27.95-.41 1.61-.41.6 0 1.11.12 1.55.36.45.24.8.6 1.04 1.1.24.48.37 1.1.37 1.83V102h-1.34v-5.45c0-.69-.18-1.22-.54-1.6a1.9 1.9 0 0 0-1.46-.59c-.43 0-.81.1-1.15.28-.34.19-.6.46-.8.81-.19.36-.28.8-.28 1.3Zm11.81-3.48v1.14h-4.52v-1.14h4.52Zm-3.2-2.09h1.34v8.32c0 .38.05.66.16.85.12.19.26.31.44.38a2.27 2.27 0 0 0 .93.07l.22-.05.27 1.2a2.76 2.76 0 0 1-1 .16 2.7 2.7 0 0 1-1.11-.24 2.21 2.21 0 0 1-.9-.75 2.14 2.14 0 0 1-.35-1.26v-8.68Zm13.51 2.1v1.13h-4.52v-1.14h4.52Zm-3.2-2.1h1.34v8.32c0 .38.06.66.17.85.1.19.25.31.43.38a2.27 2.27 0 0 0 .93.07l.22-.05.27 1.2a2.74 2.74 0 0 1-1 .16 2.7 2.7 0 0 1-1.11-.24 2.22 2.22 0 0 1-.9-.75 2.14 2.14 0 0 1-.35-1.26v-8.68Zm8.67 11a3.8 3.8 0 0 1-2.07-.56 3.82 3.82 0 0 1-1.39-1.58 5.33 5.33 0 0 1-.5-2.36c0-.9.17-1.7.5-2.38.34-.68.8-1.2 1.39-1.58a3.8 3.8 0 0 1 2.07-.56c.8 0 1.48.19 2.07.56.6.38 1.06.9 1.39 1.58.33.68.5 1.47.5 2.38 0 .9-.17 1.7-.5 2.36-.33.68-.8 1.2-1.39 1.58-.59.37-1.28.56-2.07.56Zm0-1.2c.6 0 1.1-.16 1.48-.46.39-.31.67-.71.86-1.21a4.77 4.77 0 0 0 0-3.26c-.19-.5-.47-.91-.86-1.22a2.29 2.29 0 0 0-1.48-.47c-.6 0-1.09.16-1.47.47a2.7 2.7 0 0 0-.86 1.22 4.7 4.7 0 0 0-.28 1.63c0 .59.1 1.13.28 1.63.18.5.47.9.86 1.2.38.31.88.47 1.47.47Zm10.5 4.3v-12h1.3v1.38h.16l.4-.58c.19-.24.44-.45.77-.64s.78-.28 1.35-.28a3.46 3.46 0 0 1 3.26 2.11c.31.68.47 1.47.47 2.39 0 .92-.16 1.72-.47 2.4a3.42 3.42 0 0 1-3.23 2.12c-.57 0-1.02-.1-1.35-.28-.34-.19-.6-.4-.78-.64a8.68 8.68 0 0 1-.42-.6h-.11v4.61h-1.34Zm1.32-7.64c0 .66.1 1.24.3 1.74.19.5.47.9.84 1.18.37.28.82.42 1.36.42a2.2 2.2 0 0 0 1.4-.45c.38-.3.67-.7.86-1.2.2-.5.29-1.07.29-1.7 0-.6-.1-1.16-.29-1.65a2.27 2.27 0 0 0-2.26-1.62 2.24 2.24 0 0 0-2.21 1.57 4.73 4.73 0 0 0-.29 1.7Zm8.44 4.36v-8.73h1.29v1.32h.1c.15-.43.44-.78.86-1.05.41-.27.88-.4 1.4-.4a15.28 15.28 0 0 1 .7.02v1.36a3.93 3.93 0 0 0-.81-.09c-.42 0-.8.1-1.14.27a1.95 1.95 0 0 0-1.07 1.78V102h-1.33Zm8.52.2c-.56 0-1.06-.1-1.51-.3-.45-.22-.8-.53-1.07-.92-.27-.4-.4-.89-.4-1.46a2.05 2.05 0 0 1 1.08-1.95c.33-.18.7-.31 1.1-.4.4-.1.8-.16 1.2-.22l1.3-.15c.33-.04.57-.1.72-.19.16-.08.24-.23.24-.45v-.05c0-.56-.16-1-.47-1.3-.3-.31-.76-.47-1.38-.47a2.4 2.4 0 0 0-1.5.42c-.37.28-.62.58-.77.9l-1.27-.46a3.08 3.08 0 0 1 2.16-1.86 5.18 5.18 0 0 1 2.3-.08c.37.07.73.2 1.07.4.34.2.63.52.86.93.22.41.34.97.34 1.66V102h-1.34v-1.18h-.07a2.61 2.61 0 0 1-1.3 1.16c-.36.15-.79.22-1.3.22Zm.2-1.2c.53 0 .98-.1 1.34-.31a2.14 2.14 0 0 0 1.12-1.85v-1.23a.99.99 0 0 1-.38.2c-.19.04-.4.1-.66.13a29.63 29.63 0 0 1-1.28.17c-.35.05-.68.12-.98.23-.3.1-.54.24-.73.44-.18.2-.27.47-.27.81 0 .47.17.82.52 1.06.35.23.79.35 1.32.35Zm9.79 1.18c-.82 0-1.52-.2-2.12-.58a3.77 3.77 0 0 1-1.36-1.6 5.41 5.41 0 0 1-.48-2.32c0-.88.17-1.67.5-2.34a3.7 3.7 0 0 1 3.44-2.18c.61 0 1.16.11 1.66.34a2.98 2.98 0 0 1 1.8 2.39h-1.35a2.04 2.04 0 0 0-2.1-1.52 2.4 2.4 0 0 0-2.28 1.54 4.23 4.23 0 0 0-.32 1.73c0 .67.1 1.26.31 1.76.22.5.52.89.91 1.16.4.28.86.42 1.39.42.35 0 .66-.06.95-.19a1.96 1.96 0 0 0 1.14-1.34h1.34a3.1 3.1 0 0 1-1.74 2.37 3.8 3.8 0 0 1-1.7.36Zm9.19-8.9v1.13h-4.53v-1.14h4.53Zm-3.2-2.1h1.33v8.32c0 .38.06.66.17.85.11.19.25.31.43.38a2.27 2.27 0 0 0 .93.07l.22-.05.28 1.2a2.74 2.74 0 0 1-1 .16 2.7 2.7 0 0 1-1.12-.24 2.22 2.22 0 0 1-.9-.75 2.14 2.14 0 0 1-.35-1.26v-8.68Zm5.21 10.82v-8.73h1.34V102h-1.34Zm.69-10.18a.95.95 0 0 1-.68-.27.86.86 0 0 1-.28-.64c0-.25.1-.46.28-.64a.95.95 0 0 1 .68-.27c.26 0 .48.09.67.27.19.18.28.39.28.64s-.1.46-.28.64a.93.93 0 0 1-.68.27Zm6.66 10.36c-.82 0-1.53-.2-2.12-.58a3.77 3.77 0 0 1-1.36-1.6 5.4 5.4 0 0 1-.48-2.32c0-.88.16-1.67.49-2.34a3.7 3.7 0 0 1 3.44-2.18c.62 0 1.17.11 1.66.34a2.97 2.97 0 0 1 1.8 2.39h-1.34c-.1-.4-.33-.75-.69-1.06a2.04 2.04 0 0 0-1.4-.47c-.53 0-.99.14-1.38.41-.39.27-.7.65-.91 1.14a4.23 4.23 0 0 0-.33 1.73c0 .67.1 1.26.32 1.76s.52.89.9 1.16c.4.28.87.42 1.4.42.34 0 .66-.06.94-.19a1.96 1.96 0 0 0 1.15-1.34h1.34a3.11 3.11 0 0 1-1.74 2.37 3.8 3.8 0 0 1-1.7.36Zm9.05 0a3.74 3.74 0 0 1-3.58-2.13 5.36 5.36 0 0 1-.5-2.35c0-.89.17-1.68.5-2.36.33-.68.79-1.22 1.37-1.6a3.7 3.7 0 0 1 2.07-.58c.46 0 .9.07 1.35.23a3.33 3.33 0 0 1 2.08 2.08c.21.55.32 1.24.32 2.05v.57h-6.73v-1.16h5.37c0-.5-.1-.93-.3-1.32a2.23 2.23 0 0 0-2.09-1.25 2.47 2.47 0 0 0-2.28 1.42 3 3 0 0 0-.31 1.36v.77c0 .66.11 1.22.34 1.68.23.45.55.8.96 1.03.41.24.88.36 1.43.36.35 0 .67-.05.95-.15.29-.1.54-.25.75-.45.2-.21.37-.46.48-.77l1.3.37a2.9 2.9 0 0 1-.7 1.16c-.31.33-.71.58-1.19.77-.47.18-1 .27-1.6.27Z" fill="#757575"/><path d="M596.35 88.37a.47.47 0 0 1-.25.13h-.1a.52.52 0 0 1-.36-.15.5.5 0 0 1 0-.7l6.16-6.15h1.4l-6.86 6.87Zm4.9-7.87H580a.5.5 0 0 1-.5-.5c0-.27.23-.5.5-.5h21.26a1.48 1.48 0 0 0 0 1Zm.53-2-6.14-6.13a.5.5 0 1 1 .7-.7l6.84 6.83h-1.41Zm2.39 1.5c0-.17-.03-.34-.08-.5a.5.5 0 0 1 .16.07l.1.1a.5.5 0 0 1 .1.56.5.5 0 0 1-.36.26c.05-.15.08-.32.08-.49Zm-1.02.15a.51.51 0 0 1-.33.33l.11-.12.22-.21Zm-.36-.63a.5.5 0 0 1 .37.36l-.23-.22-.14-.14Z" fill="#0F67F5" stroke="#0F67F5"/><rect x="568" y="56" width="48" height="48" rx="24" stroke="#0F67F5"/><rect x="32.5" y="32.5" width="607" height="95" rx="11.5" stroke="#EBEBEB"/><defs><clipPath id="a"><rect x="56" y="48" width="64" height="64" rx="32" fill="#fff"/></clipPath></defs></svg>