<svg width="672" height="172" fill="none" xmlns="http://www.w3.org/2000/svg"><path fill="#F6F6F6" d="M0 0h672v172H0z"/><path d="M314.1 44V32.36h2.1v4.93h5.4v-4.93h2.11V44h-2.1v-4.94h-5.4V44h-2.1Zm15.62.17c-.85 0-1.59-.19-2.21-.56a3.81 3.81 0 0 1-1.46-1.58 5.17 5.17 0 0 1-.5-2.36c0-.9.16-1.7.5-2.37a3.8 3.8 0 0 1 1.46-1.58 4.23 4.23 0 0 1 2.21-.56c.85 0 1.6.19 2.22.56.62.38 1.1.9 1.45 1.58.34.68.51 1.47.51 2.37 0 .9-.17 1.69-.51 2.36a3.82 3.82 0 0 1-3.67 2.14Zm.01-1.65c.47 0 .85-.12 1.16-.38.31-.26.55-.6.7-1.03.15-.43.23-.91.23-1.45 0-.53-.08-1.01-.23-1.44a2.3 2.3 0 0 0-.7-1.04c-.3-.26-.7-.39-1.16-.39-.47 0-.86.13-1.18.39-.3.25-.54.6-.7 1.04-.15.43-.22.91-.22 1.44 0 .54.07 1.02.22 1.45.16.43.4.77.7 1.03.32.26.71.38 1.18.38Zm13.42-7.25-3.1 8.73h-2.28l-3.1-8.73h2.18l2 6.49h.1l2.01-6.49h2.19Zm4.99 8.9a4.5 4.5 0 0 1-2.27-.55 3.7 3.7 0 0 1-1.46-1.55 5.21 5.21 0 0 1-.5-2.38c0-.9.16-1.69.5-2.37a3.87 3.87 0 0 1 3.62-2.16c.54 0 1.05.09 1.52.26a3.5 3.5 0 0 1 2.15 2.17c.21.55.32 1.21.32 1.98v.63h-7.15v-1.4h5.18c0-.4-.1-.74-.26-1.05a1.89 1.89 0 0 0-1.73-1 2 2 0 0 0-1.1.3c-.33.2-.57.47-.75.8a2.3 2.3 0 0 0-.27 1.08v1.2c0 .52.1.95.28 1.31.18.36.44.64.78.83.33.2.72.29 1.17.29.3 0 .57-.04.81-.13.24-.08.45-.21.63-.38.18-.16.31-.37.4-.62l1.93.22a3 3 0 0 1-.7 1.33c-.34.37-.77.67-1.3.87-.52.2-1.12.31-1.8.31Zm5.62-.17v-8.73h2v1.46h.09a2.18 2.18 0 0 1 2.15-1.58 4.73 4.73 0 0 1 .74.05v1.9a3.8 3.8 0 0 0-.95-.12c-.38 0-.72.08-1.02.24a1.8 1.8 0 0 0-.95 1.65V44h-2.06Z" fill="#000"/><g filter="url(#a)"><rect x="52" y="60" width="568" height="80" rx="8" fill="#fff"/><circle cx="92" cy="100" r="24" fill="#E5F1FF"/><path d="M89.33 93.33H100M89.33 100H100m-10.67 6.67H100" stroke="#0F67F5" stroke-width="2" stroke-linecap="round"/><circle cx="83.99" cy="106.67" fill="#0F67F5" r="1.65"/><path d="m83.09 92.94.91.92 2.02-2.02m-2.93 7.76.91.93 2.02-2.02" stroke="#0F67F5" stroke-width="1.8" stroke-linecap="round" stroke-linejoin="round"/><path d="M141.8 82.93a2.03 2.03 0 0 0-.87-1.53 3.38 3.38 0 0 0-2-.54c-.58 0-1.07.09-1.49.26a2.2 2.2 0 0 0-.94.7 1.72 1.72 0 0 0-.12 1.86c.15.23.35.43.6.6a5.42 5.42 0 0 0 1.78.67l1.43.36c.57.14 1.13.32 1.66.55.54.23 1.02.51 1.44.86.43.35.77.77 1.02 1.26.24.5.37 1.07.37 1.73a4.14 4.14 0 0 1-2.67 3.95c-.86.38-1.9.57-3.13.57a7.95 7.95 0 0 1-3.1-.55 4.6 4.6 0 0 1-2.03-1.61 4.77 4.77 0 0 1-.8-2.58h2.73c.04.53.2.97.49 1.33.29.35.66.61 1.13.79.46.17.98.26 1.56.26.6 0 1.13-.1 1.58-.27.46-.19.82-.44 1.08-.76.25-.33.39-.71.4-1.15-.01-.4-.13-.73-.36-.98a2.56 2.56 0 0 0-.96-.66c-.4-.18-.89-.34-1.43-.48l-1.74-.45a7 7 0 0 1-2.98-1.46 3.39 3.39 0 0 1-1.1-2.64c0-.9.25-1.69.74-2.36a4.77 4.77 0 0 1 2-1.57c.85-.38 1.8-.57 2.88-.57 1.08 0 2.03.19 2.84.57a4.7 4.7 0 0 1 1.94 1.55c.46.67.7 1.43.72 2.29h-2.66Zm12.53 6.25v-6.63h2.7V94h-2.62v-2.04h-.12a3.44 3.44 0 0 1-1.28 1.58c-.58.4-1.3.6-2.17.6a3.48 3.48 0 0 1-3.33-1.97 5.2 5.2 0 0 1-.48-2.33v-7.3h2.7v6.88c0 .73.2 1.3.6 1.73a2 2 0 0 0 1.56.64 2.48 2.48 0 0 0 2.07-1.15c.24-.4.37-.88.37-1.46Zm5.59 4.82V78.73h2.7v5.71h.11c.14-.28.34-.57.6-.89a2.9 2.9 0 0 1 1.02-.81c.43-.23.99-.34 1.66-.34a4.37 4.37 0 0 1 4.09 2.67c.42.87.63 1.94.63 3.22 0 1.26-.2 2.32-.61 3.2a4.33 4.33 0 0 1-4.1 2.7 3.31 3.31 0 0 1-2.68-1.12c-.26-.3-.46-.6-.6-.87h-.17V94h-2.65Zm2.65-5.73c0 .74.1 1.4.31 1.95.22.56.52 1 .92 1.3.4.31.89.47 1.46.47.6 0 1.1-.16 1.5-.48.4-.32.7-.76.9-1.32.22-.56.32-1.2.32-1.92 0-.7-.1-1.34-.3-1.9-.2-.54-.51-.98-.91-1.29-.4-.31-.9-.47-1.51-.47-.58 0-1.07.15-1.47.46-.4.3-.7.72-.92 1.27-.2.55-.3 1.2-.3 1.93Zm10.46-5.72h2.7v12.1a4 4 0 0 1-.47 2.05c-.31.54-.77.94-1.36 1.2a5.28 5.28 0 0 1-2.43.39l-.28-.01v-2.2a3.06 3.06 0 0 0 .4.02c.5 0 .88-.13 1.1-.38.23-.25.34-.62.34-1.1V82.55Zm1.34-1.63c-.43 0-.8-.14-1.11-.43-.3-.28-.45-.63-.45-1.03 0-.41.15-.76.45-1.04.3-.29.68-.43 1.11-.43.43 0 .8.14 1.1.43.3.28.46.63.46 1.04 0 .4-.16.75-.46 1.03-.3.29-.67.43-1.1.43Zm11.44 8.26v-6.63h2.7V94h-2.62v-2.04h-.12a3.45 3.45 0 0 1-1.28 1.58c-.58.4-1.3.6-2.17.6-.75 0-1.41-.16-1.99-.49a3.48 3.48 0 0 1-1.34-1.47 5.2 5.2 0 0 1-.49-2.34v-7.3h2.7v6.88c0 .73.2 1.3.6 1.73.4.43.92.64 1.57.64a2.47 2.47 0 0 0 2.07-1.15c.24-.4.37-.88.37-1.46Zm8.17-1.9V94h-2.7V82.55h2.58v1.94h.13c.27-.64.69-1.15 1.26-1.53.59-.37 1.3-.56 2.16-.56.8 0 1.48.17 2.07.5.59.34 1.05.83 1.37 1.47a5 5 0 0 1 .48 2.34V94h-2.7v-6.88c0-.76-.2-1.36-.6-1.8a2.1 2.1 0 0 0-1.63-.64c-.47 0-.89.1-1.26.31-.36.2-.64.5-.85.89a3 3 0 0 0-.31 1.4Zm15.1 6.94a5.03 5.03 0 0 1-4.83-2.83 6.87 6.87 0 0 1-.66-3.07c0-1.17.22-2.2.67-3.08.44-.9 1.08-1.6 1.9-2.09.81-.5 1.78-.75 2.9-.75.93 0 1.75.17 2.47.51a4.21 4.21 0 0 1 2.45 3.6h-2.58a2.47 2.47 0 0 0-.75-1.38c-.38-.37-.9-.56-1.55-.56-.56 0-1.04.15-1.46.45-.41.3-.74.72-.97 1.27a5.18 5.18 0 0 0-.35 1.98c0 .78.12 1.45.34 2.02.23.55.56.98.97 1.29.41.3.9.44 1.47.44a2.15 2.15 0 0 0 1.87-.89c.2-.28.35-.63.43-1.05h2.58a4.24 4.24 0 0 1-2.4 3.62c-.71.35-1.55.52-2.5.52Zm12.84-11.67v2.08h-6.59v-2.08h6.59Zm-4.96-2.75h2.7v10.75c0 .37.05.65.16.84.12.19.27.32.45.39s.39.1.61.1a2.63 2.63 0 0 0 .8-.1l.45 2.1a5.96 5.96 0 0 1-1.6.28 4.4 4.4 0 0 1-1.82-.3 2.84 2.84 0 0 1-1.29-1.07 3.15 3.15 0 0 1-.46-1.79V79.8Zm7.22 14.2V82.55h2.7V94h-2.7Zm1.35-13.08c-.43 0-.8-.14-1.1-.43a1.34 1.34 0 0 1-.46-1.03c0-.41.15-.76.46-1.04.3-.29.67-.43 1.1-.43.44 0 .8.14 1.1.43.31.28.47.63.47 1.04 0 .4-.16.75-.46 1.03-.3.29-.67.43-1.1.43Zm14.35 1.63L235.8 94h-2.98l-4.08-11.45h2.88l2.63 8.5h.12l2.64-8.5h2.87Zm6.55 11.67a5.9 5.9 0 0 1-2.97-.71 4.85 4.85 0 0 1-1.92-2.05 6.84 6.84 0 0 1-.67-3.12c0-1.18.22-2.21.67-3.1a5.07 5.07 0 0 1 4.75-2.84c.7 0 1.37.11 2 .34.63.22 1.19.57 1.67 1.04a4.9 4.9 0 0 1 1.15 1.8c.28.73.41 1.6.41 2.6v.83h-9.38V87.2h6.8c0-.52-.12-.98-.34-1.38a2.45 2.45 0 0 0-2.27-1.31c-.56 0-1.04.13-1.46.4a2.9 2.9 0 0 0-1.32 2.45v1.6c0 .66.12 1.23.36 1.7.25.48.59.84 1.02 1.1.44.25.95.37 1.54.37.4 0 .75-.05 1.06-.16.32-.12.6-.28.83-.5.24-.22.41-.5.53-.82l2.52.29a3.92 3.92 0 0 1-.9 1.74c-.45.5-1.02.88-1.7 1.15-.7.27-1.49.4-2.38.4Zm14.75-15.5 3.97 12.03h.16l3.97-12.02h3.04L266.94 94h-3.42l-5.38-15.27h3.04Zm16.88 15.5a5.9 5.9 0 0 1-2.98-.71 4.85 4.85 0 0 1-1.92-2.05 6.84 6.84 0 0 1-.67-3.12c0-1.18.22-2.21.67-3.1a5.08 5.08 0 0 1 4.75-2.84c.7 0 1.38.11 2 .34.63.22 1.19.57 1.67 1.04a4.9 4.9 0 0 1 1.15 1.8c.28.73.42 1.6.42 2.6v.83h-9.4V87.2h6.81c0-.52-.12-.98-.33-1.38a2.45 2.45 0 0 0-2.28-1.31 2.75 2.75 0 0 0-2.43 1.45c-.23.42-.35.9-.35 1.4v1.6c0 .66.12 1.23.36 1.7a2.67 2.67 0 0 0 2.56 1.47c.4 0 .75-.05 1.07-.16.32-.12.6-.28.83-.5.23-.22.4-.5.53-.82l2.52.29a3.93 3.93 0 0 1-.91 1.74c-.45.5-1.01.88-1.7 1.15-.7.27-1.49.4-2.38.4Zm7.37-.22V82.55h2.62v1.9h.12a2.86 2.86 0 0 1 2.82-2.07 6.2 6.2 0 0 1 .97.08v2.48a5 5 0 0 0-1.25-.16c-.49 0-.93.11-1.33.32a2.35 2.35 0 0 0-1.25 2.17V94h-2.7Zm8.45 0V78.73h2.7v5.71h.1c.15-.28.34-.57.6-.89.25-.32.6-.59 1.03-.81.43-.23.98-.34 1.65-.34a4.37 4.37 0 0 1 4.1 2.67c.42.87.63 1.94.63 3.22 0 1.26-.2 2.32-.62 3.2a4.33 4.33 0 0 1-4.1 2.7 3.31 3.31 0 0 1-2.68-1.12c-.26-.3-.46-.6-.6-.87h-.16V94h-2.65Zm2.64-5.73c0 .74.1 1.4.32 1.95.21.56.52 1 .92 1.3.4.31.88.47 1.46.47.6 0 1.1-.16 1.5-.48.4-.32.7-.76.9-1.32.21-.56.32-1.2.32-1.92 0-.7-.1-1.34-.3-1.9a2.88 2.88 0 0 0-.92-1.29c-.4-.31-.9-.47-1.5-.47-.58 0-1.07.15-1.47.46-.4.3-.71.72-.92 1.27-.2.55-.3 1.2-.3 1.93Zm15.8 5.73V78.73h9.78v2.32h-7.02v4.14h6.35v2.32h-6.35V94h-2.77Zm16.33.22a5.54 5.54 0 0 1-2.9-.73 5 5 0 0 1-1.91-2.07 6.78 6.78 0 0 1-.67-3.1c0-1.19.22-2.22.67-3.11a5 5 0 0 1 1.9-2.08c.83-.49 1.8-.73 2.91-.73 1.12 0 2.1.24 2.91.73.82.5 1.46 1.19 1.9 2.08.46.89.68 1.92.68 3.1 0 1.2-.22 2.22-.68 3.11a4.96 4.96 0 0 1-1.9 2.07c-.82.49-1.79.73-2.9.73Zm.02-2.16c.6 0 1.11-.17 1.52-.5.4-.34.71-.79.91-1.36.2-.56.3-1.2.3-1.89 0-.7-.1-1.33-.3-1.9a3 3 0 0 0-.9-1.37 2.3 2.3 0 0 0-1.53-.5 2.4 2.4 0 0 0-1.55.5c-.4.34-.72.8-.92 1.37-.2.57-.3 1.2-.3 1.9s.1 1.33.3 1.9c.2.56.51 1.01.92 1.35.41.33.93.5 1.55.5Zm7.76 1.94V82.55h2.62v1.9h.12a2.86 2.86 0 0 1 2.83-2.07 6.2 6.2 0 0 1 .97.08v2.48a5 5 0 0 0-1.25-.16c-.5 0-.94.11-1.33.32a2.35 2.35 0 0 0-1.26 2.17V94h-2.7Zm8.33 0V82.55h2.58v1.94h.14c.23-.65.63-1.17 1.18-1.53a3.45 3.45 0 0 1 1.98-.56c.77 0 1.43.19 1.96.56a3 3 0 0 1 1.13 1.53h.12c.25-.63.68-1.14 1.28-1.52a4 4 0 0 1 2.16-.57 3.5 3.5 0 0 1 2.58 1c.67.66 1 1.63 1 2.91V94h-2.7v-7.27c0-.71-.2-1.23-.57-1.56-.38-.33-.85-.5-1.4-.5-.64 0-1.15.2-1.52.61-.36.4-.55.93-.55 1.58V94h-2.64v-7.38c0-.6-.18-1.07-.54-1.42a1.88 1.88 0 0 0-1.39-.53c-.38 0-.74.1-1.06.3-.31.2-.57.47-.76.83-.19.35-.28.76-.28 1.23V94h-2.7Zm27.9-8.43-2.46.27a1.97 1.97 0 0 0-1.05-1.23 2.5 2.5 0 0 0-1.06-.2c-.56 0-1.03.12-1.42.37-.38.24-.56.55-.56.94 0 .34.12.6.37.82.25.2.67.38 1.25.51l1.96.42c1.08.23 1.88.6 2.41 1.1.53.52.8 1.18.8 2 0 .72-.2 1.36-.63 1.9-.4.56-.98.98-1.72 1.3a6.7 6.7 0 0 1-2.54.45c-1.4 0-2.52-.29-3.38-.88a3.54 3.54 0 0 1-1.53-2.46l2.63-.26c.12.52.38.9.76 1.17.4.27.9.4 1.52.4a2.7 2.7 0 0 0 1.54-.4c.4-.26.59-.59.59-.97 0-.33-.13-.6-.38-.82a2.65 2.65 0 0 0-1.16-.49l-1.96-.41a4.65 4.65 0 0 1-2.44-1.16 2.84 2.84 0 0 1-.78-2.07c0-.7.19-1.32.58-1.83.39-.53.93-.93 1.63-1.21.7-.29 1.5-.43 2.42-.43 1.34 0 2.4.28 3.17.85a3.6 3.6 0 0 1 1.44 2.32Z" fill="#333"/><rect x="393.5" y="73.5" width="70" height="25" rx="4.5" fill="#FCE7E7"/><path d="M412 92.62h-12a.62.62 0 0 1-.62-.62V81.33c0-.34.28-.62.62-.62h12c.35 0 .62.28.62.62V92c0 .34-.28.62-.62.62Zm-11.38-1.25h10.76v-9.41h-10.76v9.42-.01Z" fill="#CB0404"/><path d="M412 84.62h-12a.62.62 0 0 1-.62-.62c0-.34.28-.62.62-.62h12c.35 0 .62.28.62.62 0 .34-.28.62-.62.62Zm-9.33-2.66a.62.62 0 0 1-.62-.62v-1.33c0-.34.28-.62.62-.62.34 0 .62.28.62.62v1.33c0 .34-.28.62-.62.62Zm6.66 0a.62.62 0 0 1-.62-.62v-1.33c0-.34.28-.62.62-.62.34 0 .62.28.62.62v1.33c0 .34-.28.62-.62.62Zm0 8H408a.62.62 0 0 1-.62-.62v-1.33c0-.34.28-.62.62-.62h1.33c.35 0 .62.28.62.62v1.33c0 .34-.28.62-.62.62Zm-.71-1.25h.08v-.08h-.08v.08Zm10.39-6.8v-1.1h7.64v1.1h-3.2V91h-1.24v-9.09h-3.2Zm11.38 9.25c-.7 0-1.3-.16-1.82-.5a3.35 3.35 0 0 1-1.21-1.37 4.66 4.66 0 0 1-.44-2.07c0-.8.15-1.49.44-2.08a3.27 3.27 0 0 1 3.02-1.88 3.25 3.25 0 0 1 3.03 1.88c.29.6.44 1.29.44 2.08a4.6 4.6 0 0 1-.44 2.07 3.3 3.3 0 0 1-1.22 1.38 3.3 3.3 0 0 1-1.8.49Zm0-1.05c.52 0 .95-.14 1.29-.4.34-.28.59-.63.75-1.07a4.25 4.25 0 0 0 0-2.85 2.4 2.4 0 0 0-.75-1.06 2 2 0 0 0-1.3-.41 2 2 0 0 0-1.29.4 2.4 2.4 0 0 0-.75 1.07 4.2 4.2 0 0 0 0 2.85c.16.44.41.8.75 1.06.34.27.77.4 1.3.4Zm8.13 1.05a2.99 2.99 0 0 1-2.83-1.86 5.01 5.01 0 0 1-.41-2.1 5 5 0 0 1 .41-2.09 3.04 3.04 0 0 1 2.85-1.85c.5 0 .89.09 1.18.25.29.17.51.35.66.56l.37.5h.1v-3.75h1.17V91h-1.13v-1.17h-.14l-.37.52c-.16.21-.39.4-.68.57-.3.16-.69.24-1.18.24Zm.16-1.05a2 2 0 0 0 1.2-.37c.32-.25.56-.6.73-1.03.17-.44.26-.95.26-1.53 0-.57-.09-1.07-.25-1.5a1.96 1.96 0 0 0-1.94-1.37c-.5 0-.91.14-1.24.4-.33.24-.58.59-.75 1.02a4.1 4.1 0 0 0-.24 1.45c0 .55.09 1.04.25 1.48.17.44.42.8.75 1.06s.74.39 1.23.39Zm7.9 1.07c-.48 0-.92-.1-1.32-.27-.4-.19-.7-.46-.94-.8a2.26 2.26 0 0 1-.35-1.28c0-.44.09-.79.26-1.06.17-.28.4-.5.7-.65.28-.15.6-.27.95-.35.35-.08.7-.14 1.06-.18l1.13-.14c.29-.03.5-.09.63-.16.14-.08.2-.21.2-.4v-.04c0-.5-.13-.87-.4-1.14-.26-.28-.67-.41-1.2-.41a2.1 2.1 0 0 0-1.99 1.15l-1.12-.4a2.73 2.73 0 0 1 1.9-1.63 4.54 4.54 0 0 1 2.01-.07c.32.06.63.18.93.36.3.18.55.45.75.8.2.37.3.85.3 1.46V91h-1.17v-1.03h-.06a2.28 2.28 0 0 1-1.14 1.01c-.31.13-.69.2-1.13.2Zm.18-1.06c.46 0 .85-.09 1.17-.27a1.86 1.86 0 0 0 .98-1.61v-1.08c-.05.06-.16.12-.33.17a5.53 5.53 0 0 1-1.21.21l-.5.06c-.3.04-.58.1-.85.2-.26.08-.47.21-.63.39a1 1 0 0 0-.24.7c0 .41.15.72.45.93.3.2.69.3 1.16.3Zm5.94 3.74a2.56 2.56 0 0 1-.85-.14l.3-1.03c.28.07.53.1.75.08a.9.9 0 0 0 .58-.3c.17-.17.33-.45.47-.83l.22-.6-2.82-7.68h1.27l2.11 6.09h.08l2.1-6.09h1.28l-3.24 8.75c-.15.4-.33.72-.54.98-.22.26-.47.46-.75.58-.29.13-.6.2-.96.2Z" fill="#CB0404"/><rect x="393.5" y="73.5" width="70" height="25" rx="4.5" stroke="#fff"/><path d="M133.4 122v-11.64h1.42v5.19h6.2v-5.19h1.41V122h-1.4v-5.2h-6.21v5.2h-1.41Zm15.22.18a3.8 3.8 0 0 1-2.08-.56 3.8 3.8 0 0 1-1.38-1.58 5.33 5.33 0 0 1-.5-2.36c0-.9.17-1.7.5-2.38.33-.68.8-1.2 1.38-1.58a3.8 3.8 0 0 1 2.08-.56c.78 0 1.47.19 2.06.56.6.38 1.06.9 1.4 1.58.32.68.5 1.47.5 2.38 0 .9-.18 1.7-.5 2.36-.34.68-.8 1.2-1.4 1.58a3.8 3.8 0 0 1-2.06.56Zm0-1.2c.6 0 1.09-.16 1.47-.46.39-.31.68-.71.86-1.21a4.8 4.8 0 0 0 0-3.26 2.7 2.7 0 0 0-.86-1.22 2.28 2.28 0 0 0-1.47-.47c-.6 0-1.1.16-1.48.47-.39.31-.67.72-.86 1.22a4.7 4.7 0 0 0-.28 1.63c0 .58.1 1.13.28 1.63.19.5.47.9.86 1.2.39.31.88.47 1.48.47Zm6 1.02v-8.73h1.3v1.37h.1c.19-.47.48-.83.89-1.09.4-.26.89-.4 1.46-.4s1.05.14 1.44.4c.38.26.68.62.9 1.09h.09a2.6 2.6 0 0 1 1-1.08c.45-.27.99-.4 1.61-.4.78 0 1.42.24 1.92.73s.74 1.24.74 2.27V122h-1.34v-5.84c0-.64-.17-1.1-.53-1.38a1.96 1.96 0 0 0-1.24-.42c-.62 0-1.09.19-1.43.56a2 2 0 0 0-.5 1.4V122h-1.37v-5.98c0-.5-.16-.9-.48-1.2a1.89 1.89 0 0 0-2.22-.18c-.3.19-.54.44-.73.78-.18.32-.27.7-.27 1.13V122h-1.34Zm17.56.18a3.74 3.74 0 0 1-3.58-2.13 5.35 5.35 0 0 1-.48-2.35c0-.89.16-1.68.48-2.36a3.69 3.69 0 0 1 3.44-2.18c.46 0 .91.08 1.35.23a3.34 3.34 0 0 1 2.08 2.08c.22.55.33 1.24.33 2.05v.57h-6.73v-1.16h5.36c0-.5-.1-.93-.3-1.32a2.22 2.22 0 0 0-2.08-1.25c-.54 0-1 .14-1.39.4-.39.26-.68.6-.9 1.02a3 3 0 0 0-.3 1.36v.77c0 .66.11 1.22.34 1.67.23.46.55.8.96 1.05.4.23.88.35 1.42.35.36 0 .67-.05.96-.15a2 2 0 0 0 1.23-1.22l1.3.37c-.15.44-.38.82-.7 1.16a3.4 3.4 0 0 1-1.19.77c-.47.18-1 .27-1.6.27Zm7.63-.18-2.66-8.73h1.41l1.89 6.69h.1l1.85-6.69h1.44l1.84 6.66h.09l1.88-6.66h1.41L186.4 122h-1.31l-1.91-6.7h-.14l-1.9 6.7h-1.33Zm14.28.18a3.8 3.8 0 0 1-2.08-.56 3.8 3.8 0 0 1-1.38-1.58 5.32 5.32 0 0 1-.5-2.36c0-.9.16-1.7.5-2.38a3.8 3.8 0 0 1 1.38-1.58 3.8 3.8 0 0 1 2.08-.56c.78 0 1.47.19 2.06.56.6.38 1.06.9 1.39 1.58.33.68.5 1.47.5 2.38 0 .9-.17 1.7-.5 2.36-.33.68-.8 1.2-1.39 1.58a3.8 3.8 0 0 1-2.06.56Zm0-1.2c.6 0 1.09-.16 1.47-.46.39-.31.68-.71.86-1.21a4.8 4.8 0 0 0 0-3.26 2.7 2.7 0 0 0-.86-1.22 2.28 2.28 0 0 0-1.47-.47c-.6 0-1.1.16-1.48.47-.39.31-.67.72-.86 1.22a4.8 4.8 0 0 0 0 3.26c.19.5.47.9.86 1.2.38.31.88.47 1.47.47Zm6 1.02v-8.73h1.3v1.32h.08c.16-.43.45-.78.87-1.05.41-.27.88-.4 1.4-.4a14.1 14.1 0 0 1 .71.02v1.36a3.35 3.35 0 0 0-.31-.05 3.03 3.03 0 0 0-.5-.04c-.43 0-.81.1-1.14.27a1.95 1.95 0 0 0-1.07 1.78V122h-1.34Zm7.2-3.18-.02-1.66h.27l3.82-3.89h1.66l-4.07 4.12h-.11l-1.55 1.43Zm-1.25 3.18v-11.64h1.34V122h-1.34Zm5.55 0-3.41-4.32.95-.93 4.16 5.25h-1.7Zm8.59-4.45a1.35 1.35 0 0 0 0-2.69c-.74 0-1.35.61-1.35 1.35 0 .73.61 1.34 1.35 1.34Zm8.06-7.19h1.68l3.95 9.66h.14l3.95-9.66h1.69V122h-1.32v-8.84h-.12l-3.63 8.84h-1.28l-3.63-8.84h-.11V122h-1.32v-11.64ZM242.29 122v-8.73h1.3v1.32h.09c.16-.43.44-.78.86-1.05s.89-.4 1.4-.4a14.1 14.1 0 0 1 .71.02v1.36a3.35 3.35 0 0 0-.3-.05 3.03 3.03 0 0 0-.51-.04c-.43 0-.8.1-1.14.27a1.95 1.95 0 0 0-1.07 1.78V122h-1.34Zm12.14-6.77-1.21.34c-.08-.2-.19-.4-.34-.59a1.56 1.56 0 0 0-.59-.47 2.14 2.14 0 0 0-.96-.2c-.53 0-.98.13-1.33.38-.35.24-.53.55-.53.92 0 .34.12.6.36.8a3 3 0 0 0 1.14.48l1.3.31c.78.2 1.36.48 1.74.87.38.39.57.89.57 1.5 0 .5-.14.95-.43 1.34-.28.4-.68.7-1.2.93-.5.23-1.1.34-1.77.34a4 4 0 0 1-2.22-.58 2.57 2.57 0 0 1-1.1-1.7l1.27-.3c.12.46.35.81.69 1.05.34.23.78.35 1.33.35a2.5 2.5 0 0 0 1.5-.4c.36-.27.55-.59.55-.96 0-.3-.1-.56-.32-.77-.21-.2-.54-.36-.98-.46l-1.45-.34a3.47 3.47 0 0 1-1.76-.88c-.38-.4-.56-.9-.56-1.5 0-.5.14-.94.41-1.31a2.9 2.9 0 0 1 1.15-.9 4 4 0 0 1 1.64-.32c.87 0 1.54.19 2.04.57.5.38.85.88 1.06 1.5Zm3.15 6.86a.98.98 0 0 1-.72-.3.99.99 0 0 1-.3-.72c0-.28.1-.52.3-.72.2-.2.44-.3.72-.3.28 0 .52.1.72.3.2.2.3.44.3.72 0 .18-.05.35-.14.51a.98.98 0 0 1-.88.51Zm8.11-.09v-11.64h3.93c.91 0 1.66.16 2.24.47.58.3 1.02.73 1.3 1.27.28.53.42 1.15.42 1.83 0 .69-.14 1.3-.42 1.83-.28.53-.71.94-1.3 1.25-.57.3-1.31.44-2.22.44h-3.18v-1.27h3.14c.62 0 1.12-.09 1.5-.27.38-.18.66-.44.83-.77.17-.34.26-.74.26-1.2 0-.47-.09-.88-.26-1.23a1.79 1.79 0 0 0-.84-.8c-.38-.2-.88-.3-1.51-.3h-2.48V122h-1.41Zm5.48-5.23 2.86 5.23h-1.63l-2.82-5.23h1.59Zm5.44 8.5a2.92 2.92 0 0 1-.98-.16l.34-1.18c.33.08.61.11.86.1.25-.03.48-.14.67-.34.2-.2.38-.52.54-.96l.25-.69-3.23-8.77h1.46l2.4 6.96h.1l2.4-6.96h1.46l-3.7 10c-.17.45-.38.83-.63 1.12-.24.3-.53.52-.85.67-.32.14-.69.21-1.1.21Zm10.34-3.06a3.5 3.5 0 0 1-1.5-.32 2.67 2.67 0 0 1-1.08-.91c-.26-.4-.4-.89-.4-1.46 0-.5.1-.9.3-1.21.2-.32.46-.56.79-.74.33-.18.7-.31 1.1-.4.4-.09.8-.16 1.2-.22l1.3-.15a2 2 0 0 0 .72-.19c.15-.08.23-.23.23-.45v-.05c0-.56-.15-1-.46-1.3-.3-.31-.76-.47-1.38-.47-.64 0-1.14.14-1.5.42a2.5 2.5 0 0 0-.77.9l-1.28-.45c.23-.54.53-.95.91-1.24.39-.3.8-.51 1.25-.63a5.2 5.2 0 0 1 2.31-.08c.37.07.72.2 1.06.4.35.2.63.52.86.93.23.41.34.97.34 1.66V122h-1.34v-1.18h-.07a2.6 2.6 0 0 1-1.3 1.16c-.35.15-.78.22-1.29.22Zm.2-1.21c.54 0 .98-.1 1.35-.31a2.14 2.14 0 0 0 1.11-1.85v-1.23a.93.93 0 0 1-.37.2c-.2.04-.41.1-.66.13a28.39 28.39 0 0 1-1.29.17 5.1 5.1 0 0 0-.98.22c-.3.1-.54.25-.72.45-.18.2-.27.47-.27.81 0 .47.17.82.51 1.06.35.23.8.35 1.33.35Zm7.59-4.25V122h-1.34v-8.73h1.3v1.37h.1c.21-.45.52-.8.94-1.07.42-.27.95-.41 1.61-.41.6 0 1.11.12 1.55.36.45.24.8.6 1.04 1.1.25.48.37 1.1.37 1.83V122h-1.34v-5.45c0-.69-.18-1.22-.54-1.6a1.9 1.9 0 0 0-1.46-.59c-.43 0-.81.1-1.15.28-.33.19-.6.46-.79.81-.2.36-.29.8-.29 1.3Z" fill="#757575"/><path d="M584.35 108.37a.48.48 0 0 1-.25.13h-.1a.5.5 0 0 1-.36-.85l6.16-6.15h1.4l-6.86 6.87Zm4.9-7.87H568a.5.5 0 0 1-.5-.5c0-.27.23-.5.5-.5h21.26a1.48 1.48 0 0 0 0 1Zm.53-2-6.14-6.13a.5.5 0 1 1 .7-.7l6.84 6.83h-1.41Zm2.39 1.5c0-.17-.03-.34-.08-.5a.5.5 0 0 1 .16.07l.1.1a.5.5 0 0 1 .1.56.5.5 0 0 1-.36.26c.05-.15.08-.32.08-.49Zm-1.02.15a.51.51 0 0 1-.33.33l.11-.12.22-.21Zm-.36-.63a.5.5 0 0 1 .37.36l-.23-.22-.14-.14Z" fill="#0F67F5" stroke="#0F67F5"/><rect x="556" y="76" width="48" height="48" rx="24" stroke="#0F67F5"/><rect x="52.5" y="60.5" width="567" height="79" rx="7.5" stroke="#EBEBEB"/></g><defs><filter id="a" x="46" y="57" width="580" height="92" filterUnits="userSpaceOnUse" color-interpolation-filters="sRGB"><feFlood flood-opacity="0" result="BackgroundImageFix"/><feColorMatrix in="SourceAlpha" values="0 0 0 0 0 0 0 0 0 0 0 0 0 0 0 0 0 0 127 0" result="hardAlpha"/><feOffset dy="3"/><feGaussianBlur stdDeviation="3"/><feColorMatrix values="0 0 0 0 0.2 0 0 0 0 0.2 0 0 0 0 0.2 0 0 0 0.1 0"/><feBlend in2="BackgroundImageFix" result="effect1_dropShadow_7441_49479"/><feColorMatrix in="SourceAlpha" values="0 0 0 0 0 0 0 0 0 0 0 0 0 0 0 0 0 0 127 0" result="hardAlpha"/><feOffset dy="3"/><feGaussianBlur stdDeviation="3"/><feColorMatrix values="0 0 0 0 0.2 0 0 0 0 0.2 0 0 0 0 0.2 0 0 0 0.1 0"/><feBlend in2="effect1_dropShadow_7441_49479" result="effect2_dropShadow_7441_49479"/><feBlend in="SourceGraphic" in2="effect2_dropShadow_7441_49479" result="shape"/></filter></defs></svg>