<svg width="672" height="361" fill="none" xmlns="http://www.w3.org/2000/svg"><path fill="#F6F6F6" d="M0 0h672v360.4H0z"/><path d="m194.07 51-3.39-12h2.34l2.16 8.82h.11L197.6 39h2.13l2.31 8.82h.11l2.16-8.82h2.34l-3.39 12h-2.14l-2.4-8.42h-.1l-2.4 8.42h-2.15Zm16.12-5.27V51h-2.13V39h2.08v4.53h.1c.22-.51.54-.91.98-1.2a3 3 0 0 1 1.7-.45c.63 0 1.17.13 1.64.4.46.26.82.64 1.08 1.14.26.5.38 1.12.38 1.85V51h-2.12v-5.4a2 2 0 0 0-.47-1.42c-.3-.34-.74-.5-1.3-.5-.37 0-.7.08-1 .24-.3.16-.53.4-.7.7-.16.3-.24.67-.24 1.1Zm10.59 5.45c-.57 0-1.09-.1-1.54-.3a2.43 2.43 0 0 1-1.08-.92c-.26-.4-.4-.9-.4-1.49 0-.5.1-.92.29-1.26.18-.33.44-.6.76-.8.33-.2.7-.34 1.1-.44a7.5 7.5 0 0 1 1.27-.23c.53-.06.96-.1 1.28-.15.33-.05.57-.12.72-.21a.5.5 0 0 0 .23-.45v-.04c0-.44-.13-.78-.4-1.02a1.6 1.6 0 0 0-1.13-.37c-.51 0-.93.12-1.23.34-.3.23-.5.5-.61.8l-1.98-.27a3.18 3.18 0 0 1 2.09-2.2 5.62 5.62 0 0 1 3.02-.13c.43.1.82.26 1.18.5.35.23.64.54.85.94.22.4.33.9.33 1.5V51h-2.04v-1.24h-.07A2.6 2.6 0 0 1 222 51c-.35.13-.75.2-1.22.2Zm.55-1.56c.42 0 .8-.08 1.1-.25.32-.17.56-.4.73-.68.17-.28.25-.59.25-.92v-1.06a1 1 0 0 1-.34.15c-.15.05-.33.09-.52.13a16.91 16.91 0 0 1-1.08.16c-.32.04-.6.11-.85.21-.25.1-.45.23-.6.41a1 1 0 0 0-.21.67c0 .39.14.68.43.88.28.2.65.3 1.09.3ZM232.16 42v1.64h-5.18V42h5.18Zm-3.9-2.16h2.12v8.45c0 .29.05.5.13.66.1.15.2.25.35.3.15.06.3.09.48.09a2.06 2.06 0 0 0 .63-.09l.35 1.66a4.8 4.8 0 0 1-1.25.21 3.46 3.46 0 0 1-1.43-.24 2.23 2.23 0 0 1-1.02-.83 2.48 2.48 0 0 1-.36-1.4v-8.8Zm12.36 11.34c-.57 0-1.09-.1-1.54-.3a2.43 2.43 0 0 1-1.08-.92c-.26-.4-.4-.9-.4-1.49 0-.5.1-.92.29-1.26.18-.33.44-.6.76-.8.33-.2.7-.34 1.1-.44a7.5 7.5 0 0 1 1.27-.23c.53-.06.96-.1 1.28-.15.33-.05.57-.12.72-.21a.5.5 0 0 0 .23-.45v-.04c0-.44-.13-.78-.4-1.02a1.6 1.6 0 0 0-1.13-.37c-.51 0-.93.12-1.23.34-.3.23-.5.5-.61.8l-1.98-.27a3.16 3.16 0 0 1 2.09-2.2 5.62 5.62 0 0 1 3.02-.13c.43.1.82.26 1.18.5.35.23.64.54.85.94.22.4.33.9.33 1.5V51h-2.04v-1.24h-.07a2.58 2.58 0 0 1-1.42 1.23c-.35.13-.75.2-1.22.2Zm.55-1.56c.42 0 .8-.08 1.1-.25.32-.17.56-.4.73-.68.17-.28.25-.59.25-.92v-1.06a.99.99 0 0 1-.34.15c-.15.05-.33.09-.52.13a16.53 16.53 0 0 1-1.08.16c-.32.04-.6.11-.85.21-.25.1-.45.23-.6.41a1 1 0 0 0-.21.67c0 .39.14.68.43.88.28.2.65.3 1.09.3ZM247.5 51v-9h2.06v1.5h.1a2.25 2.25 0 0 1 2.22-1.63 4.9 4.9 0 0 1 .76.06v1.95a3.96 3.96 0 0 0-.98-.12c-.4 0-.74.08-1.05.25a1.84 1.84 0 0 0-.99 1.7V51h-2.12Zm10.16.18c-.9 0-1.68-.2-2.34-.57a3.8 3.8 0 0 1-1.5-1.6 5.37 5.37 0 0 1-.53-2.46c0-.92.18-1.74.53-2.44a3.99 3.99 0 0 1 3.73-2.23c.56 0 1.08.09 1.57.27a3.6 3.6 0 0 1 2.21 2.24c.23.57.33 1.25.33 2.04v.65h-7.37v-1.43h5.34c0-.4-.1-.77-.26-1.09a1.92 1.92 0 0 0-.72-.75c-.3-.18-.66-.28-1.07-.28a2.17 2.17 0 0 0-1.91 1.14c-.18.34-.27.7-.28 1.1v1.26c0 .52.1.97.3 1.34.18.38.45.66.8.86.34.2.74.3 1.2.3.3 0 .59-.05.84-.14a1.7 1.7 0 0 0 1.07-1.03l1.98.23a3.18 3.18 0 0 1-2.06 2.27 5.1 5.1 0 0 1-1.86.32Zm11.21 3.2a4.3 4.3 0 0 1-1.38-.23l.5-1.65c.3.09.57.13.82.13a1 1 0 0 0 .64-.23c.18-.14.34-.39.47-.73l.18-.48-3.26-9.2h2.25l2.07 6.8h.1l2.08-6.8h2.25L272 52.1c-.17.48-.4.89-.67 1.22a2.7 2.7 0 0 1-1.02.79c-.4.18-.87.28-1.43.28Zm11.81-3.2c-.88 0-1.64-.2-2.28-.58a3.94 3.94 0 0 1-1.5-1.63c-.35-.7-.53-1.5-.53-2.44 0-.93.18-1.74.53-2.44.35-.7.85-1.24 1.5-1.63a4.3 4.3 0 0 1 2.28-.58c.88 0 1.64.2 2.29.58a3.9 3.9 0 0 1 1.5 1.63c.35.7.53 1.51.53 2.44a5.3 5.3 0 0 1-.54 2.44 3.9 3.9 0 0 1-1.5 1.63c-.64.38-1.4.58-2.28.58Zm.01-1.7c.48 0 .88-.13 1.2-.4.32-.26.56-.62.72-1.06.15-.45.24-.94.24-1.5a4.4 4.4 0 0 0-.25-1.49c-.15-.45-.39-.8-.71-1.07-.32-.26-.72-.4-1.2-.4s-.89.14-1.21.4c-.33.27-.56.62-.73 1.07a4.5 4.5 0 0 0-.23 1.5c0 .55.08 1.04.23 1.49.17.44.4.8.73 1.06.32.27.73.4 1.21.4Zm11.84-2.27V42h2.13v9h-2.06v-1.6h-.1c-.2.5-.53.92-1 1.24-.46.32-1.03.48-1.7.48a3 3 0 0 1-1.57-.4c-.45-.26-.8-.65-1.05-1.15a4.08 4.08 0 0 1-.38-1.84V42h2.12v5.4c0 .57.15 1.03.47 1.36.31.34.72.5 1.23.5a1.94 1.94 0 0 0 1.63-.9c.19-.3.28-.69.28-1.15Zm4.3 3.79v-9h2.06v1.5h.1a2.24 2.24 0 0 1 2.22-1.63 4.93 4.93 0 0 1 .76.06v1.95a3.95 3.95 0 0 0-.98-.12c-.39 0-.74.08-1.05.25a1.84 1.84 0 0 0-.98 1.7V51h-2.12Zm14.57.18c-.9 0-1.67-.2-2.31-.6a3.95 3.95 0 0 1-1.49-1.63 5.4 5.4 0 0 1-.51-2.42c0-.91.17-1.72.53-2.42a3.92 3.92 0 0 1 3.77-2.23c.73 0 1.38.14 1.94.4a3.32 3.32 0 0 1 1.93 2.84h-2.03c-.08-.44-.28-.8-.59-1.09a1.7 1.7 0 0 0-1.22-.44c-.43 0-.81.12-1.14.35-.33.23-.59.57-.77 1-.18.43-.27.95-.27 1.56 0 .61.09 1.14.27 1.58.18.44.43.78.75 1.02.33.23.72.35 1.16.35.31 0 .6-.06.84-.18.25-.12.46-.3.62-.52a2 2 0 0 0 .35-.83h2.03a3.33 3.33 0 0 1-1.89 2.84c-.56.28-1.21.42-1.97.42Zm7.72-5.45V51H317V39h2.07v4.53h.11c.21-.51.54-.91.98-1.2a3 3 0 0 1 1.7-.45c.62 0 1.17.13 1.63.4.47.26.83.64 1.08 1.14.26.5.39 1.12.39 1.85V51h-2.12v-5.4a2 2 0 0 0-.47-1.42c-.31-.34-.74-.5-1.3-.5-.38 0-.71.08-1.01.24-.3.16-.52.4-.7.7-.16.3-.24.67-.24 1.1Zm8 5.27v-9h2.12v9h-2.12Zm1.07-10.28c-.34 0-.63-.11-.87-.33a1.1 1.1 0 0 1-.36-.82c0-.32.12-.59.36-.81.24-.23.53-.34.87-.34.34 0 .63.11.87.34.24.22.36.5.36.81 0 .32-.12.59-.36.82-.24.22-.53.33-.87.33Zm5.36-1.72v12h-2.13V39h2.13Zm5.52 12.16a3.4 3.4 0 0 1-3.22-2.13 5.91 5.91 0 0 1-.5-2.52c0-1 .17-1.84.5-2.53a3.45 3.45 0 0 1 4.52-1.83c.35.18.62.39.81.64.2.25.36.48.47.7h.09v-4.5h2.12V51h-2.08v-1.42h-.13c-.11.22-.27.45-.48.7a2.61 2.61 0 0 1-2.1.88Zm.6-1.74c.44 0 .82-.12 1.14-.37.32-.24.56-.58.72-1.02.16-.44.25-.95.25-1.53 0-.58-.09-1.09-.25-1.52a2.2 2.2 0 0 0-.71-1c-.32-.24-.7-.36-1.16-.36-.47 0-.87.12-1.18.37-.32.25-.56.59-.72 1.02-.16.43-.24.93-.24 1.49 0 .56.08 1.06.24 1.5.17.44.4.79.72 1.04.32.25.72.38 1.18.38ZM347.91 39v1.2c0 .34-.06.7-.2 1.07a4.6 4.6 0 0 1-1.3 1.9l-.99-.63c.22-.33.4-.68.56-1.05.16-.38.25-.8.25-1.29V39h1.68Zm7.67 5.38-1.93.2a1.58 1.58 0 0 0-.29-.54 1.43 1.43 0 0 0-.54-.42c-.22-.1-.5-.16-.83-.16-.44 0-.81.1-1.11.29-.3.2-.45.44-.44.74 0 .27.09.48.28.64.2.17.53.3.99.4l1.53.34c.86.18 1.49.47 1.9.87.42.4.63.92.64 1.56 0 .57-.18 1.07-.5 1.5a3.2 3.2 0 0 1-1.36 1.01c-.57.24-1.24.37-1.99.37-1.1 0-1.99-.23-2.66-.7a2.78 2.78 0 0 1-1.2-1.94l2.07-.2c.1.41.29.72.6.93.3.2.7.3 1.19.3.5 0 .9-.1 1.2-.3.32-.21.47-.47.47-.77a.8.8 0 0 0-.3-.64c-.2-.17-.5-.3-.91-.39l-1.54-.32a3.65 3.65 0 0 1-1.91-.9 2.23 2.23 0 0 1-.62-1.64c0-.55.15-1.03.45-1.44.31-.41.74-.73 1.29-.95a4.98 4.98 0 0 1 1.9-.34 4.1 4.1 0 0 1 2.5.67c.6.45.98 1.06 1.12 1.83Zm8.16-5.38v12h-2.12V39h2.12Zm6.17 12.18c-.9 0-1.69-.2-2.34-.57a3.82 3.82 0 0 1-1.5-1.6 5.39 5.39 0 0 1-.53-2.46c0-.92.17-1.74.52-2.44a4 4 0 0 1 3.74-2.23c.55 0 1.07.09 1.57.27.5.18.93.45 1.3.82.4.37.7.84.91 1.42.22.57.33 1.25.33 2.04v.65h-7.38v-1.43h5.35c0-.4-.1-.77-.27-1.09a1.92 1.92 0 0 0-.72-.75c-.3-.18-.66-.28-1.06-.28a2.17 2.17 0 0 0-1.92 1.14c-.18.34-.27.7-.27 1.1v1.26c0 .52.1.97.29 1.34.19.38.45.66.8.86.34.2.75.3 1.2.3.31 0 .6-.05.84-.14a1.65 1.65 0 0 0 1.07-1.03l1.98.23c-.12.52-.36.98-.71 1.37-.35.38-.8.68-1.34.9a5.1 5.1 0 0 1-1.86.32Zm8.38 0c-.56 0-1.08-.1-1.54-.3-.45-.21-.8-.51-1.07-.92-.27-.4-.4-.9-.4-1.49 0-.5.1-.92.28-1.26.2-.33.45-.6.77-.8.33-.2.7-.34 1.1-.44.4-.11.83-.19 1.27-.23.53-.06.96-.1 1.28-.15.33-.05.57-.12.72-.21a.5.5 0 0 0 .23-.45v-.04c0-.44-.13-.78-.4-1.02a1.62 1.62 0 0 0-1.13-.37c-.52 0-.93.12-1.23.34-.3.23-.5.5-.61.8l-1.98-.27a3.16 3.16 0 0 1 2.09-2.2 5.6 5.6 0 0 1 3.02-.13c.43.1.82.26 1.17.5.36.23.64.54.86.94.22.4.33.9.33 1.5V51h-2.04v-1.24h-.07a2.58 2.58 0 0 1-1.42 1.23c-.35.13-.76.2-1.22.2Zm.56-1.56c.42 0 .8-.08 1.1-.25.32-.17.56-.4.73-.68.17-.28.25-.59.25-.92v-1.06a.99.99 0 0 1-.34.15c-.15.05-.33.09-.53.13a16.53 16.53 0 0 1-1.07.16c-.32.04-.6.11-.85.21-.25.1-.45.23-.6.41a1 1 0 0 0-.21.67c0 .39.14.68.43.88.28.2.65.3 1.09.3Zm6.33 1.38v-9h2.06v1.5h.1a2.25 2.25 0 0 1 2.21-1.63 4.89 4.89 0 0 1 .77.06v1.95a3.95 3.95 0 0 0-.99-.12c-.39 0-.73.08-1.04.25a1.84 1.84 0 0 0-.99 1.7V51h-2.12Zm8.67-5.27V51h-2.13v-9h2.03v1.53h.1c.21-.5.55-.9 1-1.2.46-.3 1.02-.45 1.7-.45.61 0 1.15.13 1.62.4.46.26.82.65 1.07 1.15.26.5.39 1.12.38 1.84V51h-2.12v-5.4c0-.6-.15-1.08-.46-1.42-.31-.34-.74-.5-1.29-.5-.37 0-.7.08-.99.24-.28.16-.5.4-.67.7-.16.3-.24.67-.24 1.1Zm7.93 5.27v-9h2.12v9h-2.12Zm1.07-10.28c-.34 0-.63-.11-.87-.33a1.1 1.1 0 0 1-.36-.82c0-.32.12-.59.36-.81.24-.23.53-.34.87-.34.34 0 .63.11.87.34.24.22.36.5.36.81 0 .32-.12.59-.36.82-.24.22-.53.33-.87.33Zm5.36 5V51h-2.13v-9h2.03v1.53h.1c.22-.5.55-.9 1-1.2.46-.3 1.02-.45 1.7-.45.61 0 1.15.13 1.62.4.46.26.82.65 1.07 1.15.26.5.39 1.12.39 1.84V51h-2.13v-5.4a2 2 0 0 0-.47-1.42c-.3-.34-.73-.5-1.28-.5-.37 0-.7.08-.99.24-.28.16-.5.4-.67.7-.16.3-.24.67-.24 1.1Zm11.85 8.84c-.76 0-1.42-.1-1.97-.3a3.51 3.51 0 0 1-1.31-.83 2.84 2.84 0 0 1-.7-1.14l1.91-.46c.09.17.21.35.38.52.16.17.38.32.66.43.28.12.64.18 1.06.18.6 0 1.1-.15 1.5-.44.4-.3.59-.77.59-1.43v-1.7h-.1a3 3 0 0 1-.49.67c-.2.23-.48.42-.82.58a3.2 3.2 0 0 1-1.29.23 3.7 3.7 0 0 1-1.88-.49 3.5 3.5 0 0 1-1.34-1.46 5.43 5.43 0 0 1-.49-2.45c0-.99.17-1.82.5-2.5a3.45 3.45 0 0 1 4.53-1.82c.33.18.6.39.81.64.2.25.36.48.46.7h.12v-1.5h2.1v9.16c0 .77-.2 1.4-.56 1.9-.37.51-.87.89-1.5 1.14a5.9 5.9 0 0 1-2.17.37Zm.01-5.35c.45 0 .84-.11 1.15-.33.32-.22.56-.53.72-.95.17-.4.25-.9.25-1.47s-.08-1.06-.25-1.5c-.16-.42-.4-.75-.71-.98-.31-.24-.7-.36-1.16-.36-.47 0-.86.12-1.18.37-.31.25-.55.58-.71 1.01-.16.43-.24.91-.24 1.46a4 4 0 0 0 .24 1.45c.16.4.4.73.72.96.32.22.71.34 1.17.34Zm14.4 5.35c-.77 0-1.42-.1-1.97-.3a3.64 3.64 0 0 1-1.32-.83 2.84 2.84 0 0 1-.69-1.14l1.91-.46c.09.17.21.35.38.52.16.17.38.32.66.43.28.12.63.18 1.06.18.6 0 1.1-.15 1.5-.44.39-.3.59-.77.59-1.43v-1.7h-.1a3 3 0 0 1-.49.67c-.2.23-.48.42-.82.58a3.2 3.2 0 0 1-1.29.23 3.7 3.7 0 0 1-1.88-.49 3.5 3.5 0 0 1-1.34-1.46 5.43 5.43 0 0 1-.49-2.45c0-.99.17-1.82.5-2.5a3.45 3.45 0 0 1 4.52-1.82c.34.18.62.39.82.64.2.25.36.48.46.7h.12v-1.5h2.1v9.16c0 .77-.2 1.4-.56 1.9-.37.51-.87.89-1.5 1.14a5.9 5.9 0 0 1-2.17.37Zm.01-5.35c.45 0 .84-.11 1.15-.33.32-.22.56-.53.72-.95.17-.4.25-.9.25-1.47s-.08-1.06-.25-1.5c-.16-.42-.4-.75-.71-.98-.31-.24-.7-.36-1.16-.36-.47 0-.86.12-1.18.37-.32.25-.56.58-.71 1.01-.17.43-.25.91-.25 1.46a4 4 0 0 0 .25 1.45c.16.4.4.73.72.96a2 2 0 0 0 1.17.34Zm10.31 1.97c-.88 0-1.64-.2-2.28-.58a3.93 3.93 0 0 1-1.5-1.63c-.35-.7-.53-1.5-.53-2.44 0-.93.18-1.74.53-2.44.35-.7.85-1.24 1.5-1.63a4.3 4.3 0 0 1 2.28-.58c.88 0 1.64.2 2.29.58a3.9 3.9 0 0 1 1.5 1.63c.35.7.53 1.51.53 2.44a5.3 5.3 0 0 1-.54 2.44 3.9 3.9 0 0 1-1.5 1.63c-.64.38-1.4.58-2.28.58Zm.01-1.7c.48 0 .88-.13 1.2-.4.32-.26.56-.62.72-1.06.15-.45.23-.94.23-1.5a4.4 4.4 0 0 0-.23-1.49c-.16-.45-.4-.8-.72-1.07-.32-.26-.72-.4-1.2-.4s-.89.14-1.21.4c-.33.27-.56.62-.73 1.07a4.5 4.5 0 0 0-.23 1.5c0 .55.08 1.04.23 1.49.17.44.4.8.73 1.06.32.27.73.4 1.21.4Zm8.7 1.7c-.57 0-1.09-.1-1.54-.3a2.43 2.43 0 0 1-1.08-.92c-.26-.4-.4-.9-.4-1.49 0-.5.1-.92.29-1.26.18-.33.44-.6.76-.8.33-.2.7-.34 1.1-.44a7.5 7.5 0 0 1 1.27-.23c.53-.06.96-.1 1.28-.15.33-.05.57-.12.72-.21a.5.5 0 0 0 .23-.45v-.04c0-.44-.13-.78-.4-1.02a1.6 1.6 0 0 0-1.13-.37c-.51 0-.93.12-1.23.34-.3.23-.5.5-.61.8l-1.98-.27a3.16 3.16 0 0 1 2.09-2.2 5.62 5.62 0 0 1 3.02-.13c.43.1.82.26 1.18.5.35.23.64.54.85.94.22.4.33.9.33 1.5V51h-2.04v-1.24h-.07a2.6 2.6 0 0 1-1.42 1.23c-.35.13-.75.2-1.22.2Zm.55-1.56c.42 0 .8-.08 1.1-.25.32-.17.56-.4.73-.68.17-.28.25-.59.25-.92v-1.06a1 1 0 0 1-.33.15 16.16 16.16 0 0 1-1.6.29c-.33.04-.61.11-.86.21-.25.1-.45.23-.6.41a1 1 0 0 0-.21.67c0 .39.14.68.43.88.28.2.65.3 1.09.3ZM462.5 39v12h-2.12V39h2.13Zm9.3 5.38-1.93.2a1.55 1.55 0 0 0-.83-.96c-.23-.1-.5-.16-.83-.16-.44 0-.81.1-1.11.29-.3.2-.45.44-.44.74 0 .27.09.48.28.64.2.17.53.3.99.4l1.53.34c.85.18 1.49.47 1.9.87.42.4.63.92.63 1.56a2.4 2.4 0 0 1-.5 1.5c-.32.43-.77.77-1.35 1.01-.57.24-1.24.37-1.99.37-1.1 0-1.99-.23-2.66-.7a2.78 2.78 0 0 1-1.2-1.94l2.07-.2c.1.41.29.72.6.93.3.2.7.3 1.18.3.5 0 .91-.1 1.22-.3.3-.21.46-.47.46-.77a.8.8 0 0 0-.3-.64c-.2-.17-.5-.3-.91-.39l-1.54-.32a3.65 3.65 0 0 1-1.91-.9 2.23 2.23 0 0 1-.62-1.64c0-.55.15-1.03.45-1.44.31-.41.74-.73 1.29-.95a4.98 4.98 0 0 1 1.9-.34 4.1 4.1 0 0 1 2.5.67c.6.45.98 1.06 1.12 1.83Zm3.97 3.1v-.16c0-.7.07-1.27.2-1.69.13-.42.32-.75.56-1 .25-.26.54-.5.89-.72.24-.14.45-.3.64-.48s.34-.38.45-.6a1.67 1.67 0 0 0-.05-1.55c-.15-.22-.34-.4-.59-.52a1.75 1.75 0 0 0-.81-.2c-.28 0-.55.07-.8.19-.24.12-.45.3-.61.54-.16.24-.25.54-.27.9h-2.09c.02-.74.2-1.36.54-1.86.35-.5.8-.87 1.36-1.12a4.6 4.6 0 0 1 1.88-.38c.74 0 1.4.13 1.97.4a3 3 0 0 1 1.81 2.83c0 .44-.07.84-.22 1.2a2.9 2.9 0 0 1-.6.93c-.26.27-.58.52-.93.73a4 4 0 0 0-.78.61c-.2.21-.35.46-.45.75-.1.28-.14.63-.15 1.04v.15h-1.95Zm1.02 3.65c-.35 0-.65-.13-.9-.38a1.23 1.23 0 0 1-.39-.91c0-.35.13-.65.38-.9a1.27 1.27 0 0 1 1.81 0c.26.25.4.55.4.9a1.34 1.34 0 0 1-.65 1.12c-.2.11-.41.17-.65.17Z" fill="#000"/><rect x="26.24" y="82.39" width="189.21" height="188.83" rx="5.89" fill="#fff"/><g clip-path="url(#a)"><path d="M66.2 162.34a54.83 54.83 0 1 0 109.66 0 54.83 54.83 0 0 0-109.66 0Z" fill="#0F67F5"/><path d="M140.45 127.45h-53.2v69.17h53.2v-69.17Z" fill="#E1F2FF"/><path fill-rule="evenodd" clip-rule="evenodd" d="M146.87 136.57c.26-.27.62-.42 1-.42h1.31v.65h-1.32a.76.76 0 0 0-.76.76v21.74h-.65v-21.74c0-.37.15-.73.42-1Z" fill="#D4D4D4"/><path d="M152.01 138.36a3.8 3.8 0 1 0 0-7.59 3.8 3.8 0 0 0 0 7.59Z" fill="#7F5EDD"/><path d="M148.26 188.26h7.49V149.9h-7.49v38.36Z" fill="#F2F2F2"/><path opacity=".4" d="M152.82 188.26h2.93V149.9h-2.93v38.36Z" fill="#D4D4D4"/><path d="M148.23 134.56v15.3h7.58v-15.3h-7.58Z" fill="#7F5EDD"/><path d="M146.78 160.84a.82.82 0 1 0 0-1.64.82.82 0 0 0 0 1.64Z" fill="#5699FB"/><path d="m155.75 188.27-3.19 6.9h-1.12l-3.18-6.9h7.49Z" fill="#D4D4D4"/><path d="M152 195.89a.3.3 0 1 0 0-.59.3.3 0 0 0 0 .59Z" fill="#7ACCFF"/><path d="M152.3 195.18h-.59v.41h.59v-.41Z" fill="#7ACCFF"/></g><path d="M51.91 246.46v-12h7.8v1.82h-5.63v3.26h5.23v1.83h-5.23v3.27h5.68v1.82h-7.85Zm11.67-9 1.81 3.32 1.85-3.32h2.24l-2.71 4.5 2.76 4.5H67.3l-1.9-3.24-1.9 3.24h-2.25l2.75-4.5-2.68-4.5h2.26Zm10.1 9.19c-.57 0-1.08-.1-1.54-.3a2.7 2.7 0 0 1-1.08-.92 2.7 2.7 0 0 1-.39-1.5 2.19 2.19 0 0 1 1.05-2.05c.32-.2.69-.35 1.1-.45a9 9 0 0 1 1.27-.23l1.28-.14c.33-.05.57-.12.72-.22.15-.1.22-.24.22-.45v-.03c0-.44-.13-.79-.39-1.03s-.64-.36-1.13-.36c-.52 0-.93.11-1.24.34-.3.22-.5.5-.6.8l-1.99-.28a3.16 3.16 0 0 1 2.1-2.2 5.64 5.64 0 0 1 3.02-.13c.42.1.82.27 1.17.5.36.23.64.55.86.94.22.4.33.9.33 1.5v6.02H76.4v-1.23h-.07a2.6 2.6 0 0 1-1.42 1.22c-.35.13-.76.2-1.23.2Zm.55-1.56c.43 0 .8-.09 1.11-.25.31-.18.55-.4.72-.69.17-.28.26-.58.26-.91v-1.07a1 1 0 0 1-.34.16l-.53.12-.58.1-.5.06c-.31.05-.6.12-.85.21-.25.1-.44.24-.59.42a1 1 0 0 0-.21.66c0 .4.14.69.42.89.29.2.65.3 1.1.3Zm6.34 1.37v-9h2.03V239h.1c.19-.51.5-.92.93-1.2.44-.3.96-.44 1.56-.44a2.39 2.39 0 0 1 2.43 1.64h.1c.2-.5.53-.9 1-1.2.48-.3 1.04-.44 1.7-.44.82 0 1.5.26 2.02.78.53.52.79 1.29.79 2.3v6.03H91.1v-5.71c0-.56-.15-.97-.44-1.22a1.6 1.6 0 0 0-1.1-.4c-.5 0-.9.16-1.2.48a1.8 1.8 0 0 0-.42 1.24v5.61h-2.08v-5.8c0-.46-.15-.83-.43-1.11a1.47 1.47 0 0 0-1.09-.42 1.63 1.63 0 0 0-1.43.88c-.15.28-.22.6-.22.98v5.47h-2.12Zm18.9 3.38v-12.38h2.09v1.5h.12c.11-.23.27-.46.47-.7.2-.26.46-.47.8-.64a3.44 3.44 0 0 1 4.52 1.83c.34.68.5 1.52.5 2.52a5.9 5.9 0 0 1-.48 2.53 3.45 3.45 0 0 1-3.23 2.12c-.51 0-.94-.08-1.28-.25a2.62 2.62 0 0 1-.82-.63 4.1 4.1 0 0 1-.48-.7h-.08v4.8h-2.13Zm2.09-7.88c0 .59.08 1.1.24 1.53.17.44.4.78.72 1.03.32.24.7.36 1.15.36.47 0 .86-.12 1.18-.37.32-.26.55-.6.71-1.04.17-.44.25-.94.25-1.5s-.08-1.06-.24-1.5c-.16-.43-.4-.77-.72-1.01a1.87 1.87 0 0 0-1.18-.37c-.45 0-.84.12-1.15.35a2.2 2.2 0 0 0-.72 1 4.4 4.4 0 0 0-.24 1.52Zm8.23 4.5v-9h2.06v1.5h.09a2.24 2.24 0 0 1 2.22-1.63 4.8 4.8 0 0 1 .76.06v1.95a3.84 3.84 0 0 0-.98-.12c-.39 0-.74.09-1.05.25a1.84 1.84 0 0 0-.98 1.7v5.3h-2.12Zm10.16.18c-.9 0-1.69-.19-2.34-.56a3.81 3.81 0 0 1-1.5-1.6 5.39 5.39 0 0 1-.53-2.46c0-.93.17-1.74.52-2.44a4 4 0 0 1 3.74-2.24c.55 0 1.07.1 1.57.28a3.66 3.66 0 0 1 2.21 2.23c.22.57.33 1.25.33 2.04v.65h-7.38v-1.43h5.35c0-.4-.1-.76-.27-1.08a1.93 1.93 0 0 0-1.79-1.03c-.43 0-.81.1-1.14.31a2.24 2.24 0 0 0-1.04 1.93v1.25c0 .52.1.97.29 1.35.19.37.45.66.8.85a2.7 2.7 0 0 0 2.04.17c.25-.1.47-.22.66-.4.18-.17.32-.38.41-.63l1.98.22c-.12.52-.36.98-.71 1.37-.35.39-.8.69-1.34.9a4.9 4.9 0 0 1-1.86.32Zm5.8 3.2v-12.38h2.08v1.5h.12c.11-.23.27-.46.47-.7.2-.26.47-.47.8-.64a3.43 3.43 0 0 1 4.52 1.83c.34.68.5 1.52.5 2.52s-.16 1.83-.48 2.53a3.41 3.41 0 0 1-3.22 2.13c-.52 0-.95-.1-1.29-.27a2.62 2.62 0 0 1-.82-.62 4.1 4.1 0 0 1-.48-.7h-.08v4.8h-2.13Zm2.08-7.88c0 .59.08 1.1.24 1.53.17.44.41.78.72 1.03.32.24.7.36 1.15.36.47 0 .86-.12 1.18-.37.32-.26.55-.6.71-1.04.17-.44.25-.94.25-1.5s-.08-1.06-.24-1.5c-.16-.43-.4-.77-.72-1.01a1.87 1.87 0 0 0-1.18-.37c-.45 0-.84.12-1.15.35a2.2 2.2 0 0 0-.72 1 4.4 4.4 0 0 0-.24 1.52Zm10.82 4.69c-.57 0-1.08-.1-1.54-.3a2.7 2.7 0 0 1-1.08-.92c-.26-.4-.4-.9-.4-1.5 0-.5.1-.92.29-1.25.19-.33.44-.6.77-.8.32-.2.69-.35 1.1-.45.4-.1.83-.18 1.27-.23l1.28-.14c.33-.05.56-.12.71-.22.16-.1.23-.24.23-.45v-.03c0-.44-.13-.79-.4-1.03-.25-.24-.63-.36-1.12-.36-.52 0-.93.11-1.24.34-.3.22-.5.5-.6.8l-1.99-.28a3.16 3.16 0 0 1 2.1-2.2 5.64 5.64 0 0 1 3.02-.13c.42.1.81.27 1.17.5.35.23.64.55.85.94.22.4.33.9.33 1.5v6.02h-2.04v-1.23h-.07a2.58 2.58 0 0 1-1.41 1.22c-.35.13-.76.2-1.23.2Zm.55-1.56c.43 0 .8-.09 1.1-.25a1.87 1.87 0 0 0 .99-1.6v-1.07a1 1 0 0 1-.34.16l-.53.12-.58.1-.5.06c-.31.05-.6.12-.85.21-.25.1-.45.24-.59.42a1 1 0 0 0-.22.66c0 .4.15.69.43.89.29.2.65.3 1.1.3Zm6.34 1.37v-9h2.05v1.5h.1a2.26 2.26 0 0 1 2.22-1.63 4.76 4.76 0 0 1 .76.06v1.95a3.85 3.85 0 0 0-.98-.12c-.4 0-.74.09-1.05.25a1.84 1.84 0 0 0-.98 1.7v5.3h-2.12Zm8.97.19c-.57 0-1.08-.1-1.54-.3a2.5 2.5 0 0 1-1.08-.92c-.26-.4-.4-.9-.4-1.5 0-.5.1-.92.29-1.25.19-.33.44-.6.77-.8.32-.2.69-.35 1.1-.45.4-.1.83-.18 1.26-.23l1.29-.14c.33-.05.56-.12.71-.22.16-.1.23-.24.23-.45v-.03c0-.44-.13-.79-.4-1.03-.25-.24-.63-.36-1.12-.36a2 2 0 0 0-1.24.34c-.3.22-.5.5-.6.8l-1.99-.28a3.15 3.15 0 0 1 2.1-2.2 5.65 5.65 0 0 1 3.02-.13c.42.1.81.27 1.17.5.35.23.64.55.85.94.22.4.33.9.33 1.5v6.02h-2.04v-1.23h-.07a2.6 2.6 0 0 1-1.42 1.22c-.34.13-.75.2-1.22.2Zm.55-1.56c.43 0 .8-.09 1.1-.25a1.87 1.87 0 0 0 .99-1.6v-1.07a1 1 0 0 1-.34.16l-.53.12-.58.1-.5.06c-.32.05-.6.12-.85.21-.25.1-.45.24-.6.42a1 1 0 0 0-.2.66c0 .4.13.69.42.89.28.2.65.3 1.09.3Zm10.83-7.63v1.64h-5.17v-1.64h5.17Zm-3.9-2.15h2.13v8.45c0 .28.04.5.12.65.1.15.21.25.36.3.14.06.3.09.48.09a2.14 2.14 0 0 0 .62-.08l.36 1.66a4.54 4.54 0 0 1-1.25.2 3.45 3.45 0 0 1-1.44-.23 2.23 2.23 0 0 1-1.01-.84 2.48 2.48 0 0 1-.37-1.4v-8.8Zm5.67 11.15v-9h2.13v9h-2.13Zm1.07-10.28c-.33 0-.62-.1-.86-.33-.25-.23-.37-.5-.37-.81 0-.32.12-.6.37-.82.24-.22.53-.34.86-.34.34 0 .63.12.87.34.24.22.36.5.36.82 0 .31-.12.58-.36.81-.24.22-.53.34-.87.34Zm7.17 10.46c-.88 0-1.65-.2-2.29-.58a3.95 3.95 0 0 1-1.5-1.62 5.38 5.38 0 0 1-.53-2.44c0-.93.18-1.75.53-2.44.35-.7.85-1.25 1.5-1.63.64-.4 1.4-.59 2.28-.59.88 0 1.65.2 2.3.59.64.38 1.13.92 1.49 1.63.35.7.53 1.5.53 2.44 0 .93-.18 1.74-.53 2.44a3.9 3.9 0 0 1-1.5 1.62 4.3 4.3 0 0 1-2.28.58Zm0-1.7c.48 0 .88-.13 1.2-.4.32-.26.56-.61.72-1.06.16-.44.24-.94.24-1.49a4.4 4.4 0 0 0-.24-1.5c-.16-.44-.4-.8-.72-1.06-.32-.27-.72-.4-1.2-.4s-.89.13-1.21.4a2.4 2.4 0 0 0-.72 1.07 4.5 4.5 0 0 0-.24 1.5c0 .54.08 1.04.24 1.48.16.45.4.8.72 1.07.32.26.73.4 1.22.4Zm8.23-3.75v5.27h-2.12v-9h2.03V239h.1c.21-.5.54-.9 1-1.2a3 3 0 0 1 1.69-.44c.62 0 1.16.13 1.62.4.47.26.83.64 1.08 1.15.26.5.38 1.11.38 1.83v5.73h-2.12v-5.4a2 2 0 0 0-.47-1.41c-.3-.34-.74-.51-1.28-.51-.38 0-.7.08-1 .25-.28.16-.5.39-.67.7-.16.3-.24.67-.24 1.1Z" fill="#333"/><rect x="26.24" y="82.39" width="189.21" height="188.83" rx="5.89" stroke="#EBEBEB" stroke-width=".79"/><rect x="241.39" y="82.39" width="189.21" height="189.61" rx="5.89" fill="#fff"/><g clip-path="url(#b)"><path d="M280.99 162.16a55.01 55.01 0 1 0 110.02 0 55.01 55.01 0 0 0-110.02 0Z" fill="#0F67F5"/><path d="M366.07 168.5h-66.35a6.26 6.26 0 0 1 0-12.52h66.35" fill="#fff"/><mask id="c" style="mask-type:alpha" maskUnits="userSpaceOnUse" x="293" y="155" width="74" height="14"><path d="M366.07 168.5h-66.35a6.26 6.26 0 0 1 0-12.52h66.35" fill="#FF8D6B"/></mask><g mask="url(#c)"><path d="M299.72 168.5v-.84.84Zm0-12.52v.83-.83Zm66.35 11.68h-66.35v1.67h66.35v-1.67Zm-66.35 0a5.43 5.43 0 0 1-3.84-1.59l-1.18 1.18a7.1 7.1 0 0 0 5.02 2.08v-1.67Zm-3.84-1.59a5.43 5.43 0 0 1-1.59-3.83h-1.67c0 1.88.75 3.68 2.08 5.01l1.18-1.18Zm-1.59-3.83a5.4 5.4 0 0 1 1.6-3.84l-1.19-1.18a7.1 7.1 0 0 0-2.08 5.02h1.67Zm1.6-3.84a5.43 5.43 0 0 1 3.83-1.59v-1.67a7.1 7.1 0 0 0-5.02 2.08l1.18 1.18Zm3.83-1.59h66.35v-1.67h-66.35v1.67Z" fill="#FF8D6B"/></g><path d="M366.07 155.98H309.2a6.27 6.27 0 1 1 0-12.52h56.87" fill="#fff"/><mask id="d" style="mask-type:alpha" maskUnits="userSpaceOnUse" x="302" y="143" width="65" height="13"><path d="M366.07 155.98H309.2a6.27 6.27 0 1 1 0-12.52h56.87" fill="#71C5FF"/></mask><g mask="url(#d)"><path d="M309.2 155.98v-.84.84Zm-6.28-6.26h-.84.84Zm6.26-6.26v-.84.84Zm56.9 11.68h-56.89v1.67h56.88v-1.67Zm-56.89 0a5.5 5.5 0 0 1-2.08-.4l-.63 1.54a7.1 7.1 0 0 0 2.71.53v-1.67Zm-2.08-.4a5.42 5.42 0 0 1-1.76-1.18l-1.18 1.18a7.1 7.1 0 0 0 2.3 1.54l.64-1.55Zm-1.76-1.18a5.4 5.4 0 0 1-1.18-1.76l-1.55.64a7.1 7.1 0 0 0 1.55 2.3l1.18-1.18Zm-1.18-1.76a5.42 5.42 0 0 1-.42-2.08h-1.67c0 .93.19 1.86.55 2.72l1.54-.64Zm-.42-2.08a5.4 5.4 0 0 1 1.6-3.84l-1.19-1.18a7.1 7.1 0 0 0-2.08 5.02h1.67Zm1.6-3.84a5.43 5.43 0 0 1 3.83-1.59v-1.67a7.1 7.1 0 0 0-5.02 2.08l1.18 1.18Zm3.83-1.59h56.88v-1.67h-56.88v1.67Z" fill="#71C5FF"/></g><path d="M366.07 181.02H309.2a6.29 6.29 0 0 1-6.27-6.26 6.26 6.26 0 0 1 6.26-6.26h56.88" fill="#fff"/><mask id="e" style="mask-type:alpha" maskUnits="userSpaceOnUse" x="302" y="168" width="65" height="14"><path d="M366.07 181.02H309.2a6.29 6.29 0 0 1-6.27-6.26 6.26 6.26 0 0 1 6.26-6.26h56.88" fill="#FFB71B"/></mask><g mask="url(#e)"><path d="M309.2 181.02v-.84.84Zm-.02-12.52v-.84.84Zm56.9 11.68h-56.89v1.67h56.88v-1.67Zm-56.89 0a5.7 5.7 0 0 1-2.08-.4l-.63 1.54a7.1 7.1 0 0 0 2.71.53v-1.67Zm-2.08-.4a5.42 5.42 0 0 1-1.76-1.18l-1.18 1.18a7.13 7.13 0 0 0 2.3 1.54l.64-1.55Zm-1.76-1.18a5.4 5.4 0 0 1-1.18-1.76l-1.55.64a7.1 7.1 0 0 0 1.55 2.3l1.18-1.18Zm-1.18-1.76a5.42 5.42 0 0 1-.42-2.08h-1.67c0 .93.19 1.86.55 2.72l1.54-.64Zm-.42-2.08a5.4 5.4 0 0 1 1.6-3.84l-1.19-1.18a7.1 7.1 0 0 0-2.08 5.02h1.67Zm1.6-3.84a5.43 5.43 0 0 1 3.83-1.59v-1.67a7.1 7.1 0 0 0-5.02 2.08l1.18 1.18Zm3.83-1.59h56.88v-1.67h-56.88v1.67Z" fill="#FFB71B"/></g><path d="m361.9 164.6-4.87-3.01-4.87 3.01v-14.74h9.74v14.74Z" fill="#71C5FF"/><path d="m347.15 189.64-4.86-3.01-4.87 3.01V174.9h9.73v14.74Z" fill="#FFB71B"/></g><path d="M279.64 239.08a3.08 3.08 0 0 0-1.02-1.5 2.4 2.4 0 0 0-.8-.4 3.37 3.37 0 0 0-2.73.34c-.5.33-.9.8-1.19 1.43a5.48 5.48 0 0 0-.42 2.29c0 .9.14 1.67.42 2.3.29.63.69 1.1 1.2 1.44.5.32 1.1.48 1.76.48.61 0 1.14-.11 1.59-.35.45-.23.8-.57 1.03-1 .25-.43.37-.94.37-1.52l.49.08h-3.26v-1.7h4.87v1.44a5.2 5.2 0 0 1-.65 2.67 4.5 4.5 0 0 1-1.81 1.73c-.77.4-1.64.6-2.64.6a5.15 5.15 0 0 1-4.87-2.87 7.2 7.2 0 0 1-.69-3.28c0-.97.14-1.83.41-2.6.28-.76.67-1.4 1.16-1.94.5-.53 1.08-.94 1.75-1.22a5.6 5.6 0 0 1 2.18-.42c.66 0 1.28.1 1.86.3a4.94 4.94 0 0 1 2.63 2.08c.3.5.48 1.03.57 1.62h-2.21Zm8.3 8.35c-.9 0-1.68-.2-2.33-.57a3.8 3.8 0 0 1-1.5-1.6 5.38 5.38 0 0 1-.54-2.46c0-.92.18-1.74.53-2.44a4 4 0 0 1 3.73-2.23c.56 0 1.08.1 1.57.27a3.62 3.62 0 0 1 2.22 2.24c.22.57.33 1.25.33 2.04v.65h-7.38v-1.43h5.35c0-.4-.1-.77-.27-1.09a1.92 1.92 0 0 0-.72-.75c-.3-.18-.66-.28-1.07-.28a2.17 2.17 0 0 0-1.91 1.14c-.18.34-.27.7-.27 1.1v1.26c0 .52.1.97.28 1.34.2.38.46.66.8.86.35.2.75.3 1.22.3.3 0 .58-.05.83-.14a1.71 1.71 0 0 0 1.07-1.03l1.98.23c-.13.52-.36.98-.72 1.37-.34.38-.79.69-1.33.9-.54.21-1.17.32-1.87.32Zm7.93-5.45v5.27h-2.13v-9h2.03v1.53h.1c.21-.5.54-.9 1-1.2a3 3 0 0 1 1.7-.45c.61 0 1.15.13 1.61.4.47.26.83.65 1.08 1.15.26.5.39 1.12.38 1.84v5.73h-2.12v-5.4a2 2 0 0 0-.47-1.42c-.3-.34-.73-.5-1.28-.5-.37 0-.7.08-1 .24-.28.16-.5.4-.66.7-.17.3-.25.67-.25 1.1Zm11.92 5.45c-.9 0-1.69-.2-2.34-.57a3.81 3.81 0 0 1-1.5-1.6 5.38 5.38 0 0 1-.54-2.46c0-.92.18-1.74.53-2.44a3.99 3.99 0 0 1 3.73-2.23c.56 0 1.08.1 1.57.27a3.62 3.62 0 0 1 2.22 2.24c.22.57.33 1.25.33 2.04v.65h-7.38v-1.43h5.34c0-.4-.09-.77-.26-1.09a1.92 1.92 0 0 0-.72-.75c-.3-.18-.66-.28-1.07-.28a2.18 2.18 0 0 0-1.91 1.14c-.18.34-.27.7-.27 1.1v1.26c0 .52.1.97.29 1.34.19.38.45.66.8.86.34.2.74.3 1.2.3.31 0 .6-.05.84-.14a1.71 1.71 0 0 0 1.07-1.03l1.98.23a3.1 3.1 0 0 1-.71 1.37c-.35.38-.8.69-1.34.9a5.1 5.1 0 0 1-1.86.32Zm5.8-.18v-9h2.05v1.5h.1a2.25 2.25 0 0 1 2.21-1.63 4.77 4.77 0 0 1 .77.06v1.95a4 4 0 0 0-.98-.12c-.4 0-.74.08-1.05.25a1.84 1.84 0 0 0-.99 1.7v5.29h-2.12Zm8.97.18c-.57 0-1.09-.1-1.55-.3-.45-.21-.8-.51-1.07-.92-.26-.4-.4-.9-.4-1.49 0-.5.1-.92.28-1.26.2-.33.45-.6.77-.8.33-.2.7-.34 1.1-.44.4-.11.83-.19 1.27-.23.53-.06.96-.1 1.28-.15.33-.05.57-.12.72-.21a.5.5 0 0 0 .23-.45v-.04c0-.44-.13-.78-.4-1.02a1.6 1.6 0 0 0-1.13-.37c-.52 0-.93.12-1.23.34-.3.23-.5.5-.61.8l-1.98-.27a3.16 3.16 0 0 1 2.09-2.2 5.64 5.64 0 0 1 3.02-.13c.43.1.82.26 1.18.5.35.23.64.54.85.94.22.4.33.9.33 1.5v6.02h-2.04v-1.24h-.07a2.58 2.58 0 0 1-1.42 1.23c-.35.13-.75.2-1.22.2Zm.55-1.56c.42 0 .8-.08 1.1-.25.32-.17.56-.4.73-.68.17-.28.25-.59.25-.92v-1.06a1 1 0 0 1-.34.15 5.06 5.06 0 0 1-1.1.22l-.5.07c-.32.04-.6.11-.85.21-.25.1-.45.23-.6.41a1 1 0 0 0-.21.67c0 .39.14.69.43.88.28.2.65.3 1.09.3Zm8.45-10.62v12h-2.12v-12h2.12Zm8.4 0v12h-2.12v-12h2.12Zm6.17 12.18c-.9 0-1.68-.2-2.34-.57a3.8 3.8 0 0 1-1.5-1.6 5.39 5.39 0 0 1-.53-2.46c0-.92.17-1.74.52-2.44a4 4 0 0 1 3.74-2.23c.55 0 1.08.1 1.57.27a3.59 3.59 0 0 1 2.21 2.24c.22.57.33 1.25.33 2.04v.65h-7.38v-1.43h5.35c0-.4-.1-.77-.27-1.09a1.93 1.93 0 0 0-1.78-1.03 2.14 2.14 0 0 0-1.91 1.14c-.18.34-.28.7-.28 1.1v1.26c0 .52.1.97.29 1.34.19.38.46.66.8.86.34.2.75.3 1.2.3.32 0 .6-.05.85-.14.25-.08.46-.22.65-.39.18-.17.32-.38.41-.64l1.98.23c-.12.52-.36.98-.71 1.37-.35.38-.8.69-1.34.9a5.1 5.1 0 0 1-1.86.32Zm8.39 0c-.57 0-1.09-.1-1.54-.3a2.43 2.43 0 0 1-1.08-.92c-.26-.4-.4-.9-.4-1.49 0-.5.1-.92.29-1.26.18-.33.44-.6.76-.8.33-.2.7-.34 1.1-.44.4-.11.83-.19 1.27-.23.53-.06.96-.1 1.28-.15.33-.05.57-.12.72-.21a.5.5 0 0 0 .23-.45v-.04c0-.44-.13-.78-.4-1.02a1.6 1.6 0 0 0-1.13-.37c-.52 0-.93.12-1.23.34-.3.23-.5.5-.61.8l-1.98-.27a3.15 3.15 0 0 1 2.09-2.2 5.65 5.65 0 0 1 3.02-.13c.43.1.82.26 1.18.5.35.23.64.54.85.94.22.4.33.9.33 1.5v6.02h-2.04v-1.24h-.07a2.59 2.59 0 0 1-1.42 1.23c-.35.13-.75.2-1.22.2Zm.55-1.56c.42 0 .8-.08 1.1-.25.32-.17.56-.4.73-.68.17-.28.25-.59.25-.92v-1.06a1 1 0 0 1-.34.15 15.83 15.83 0 0 1-1.1.22l-.5.07c-.32.04-.6.11-.85.21-.25.1-.45.23-.6.41a1 1 0 0 0-.21.67c0 .39.14.69.43.88.28.2.65.3 1.09.3Zm6.33 1.38v-9h2.06v1.5h.1a2.24 2.24 0 0 1 2.21-1.63 4.76 4.76 0 0 1 .77.06v1.95a4 4 0 0 0-.98-.12c-.4 0-.74.08-1.05.25a1.85 1.85 0 0 0-.99 1.7v5.29h-2.12Zm8.67-5.27v5.27h-2.12v-9h2.02v1.53h.11c.2-.5.54-.9.99-1.2.46-.3 1.02-.45 1.7-.45.62 0 1.16.13 1.62.4.46.26.82.65 1.08 1.15.25.5.38 1.12.38 1.84v5.73h-2.13v-5.4a2 2 0 0 0-.46-1.42c-.31-.34-.74-.5-1.29-.5-.37 0-.7.08-.99.24-.28.16-.5.4-.67.7-.16.3-.24.67-.24 1.1Zm7.93 5.27v-9h2.13v9H378Zm1.07-10.28c-.34 0-.63-.11-.87-.33a1.1 1.1 0 0 1-.36-.82c0-.32.12-.59.36-.81.25-.23.53-.34.87-.34.34 0 .63.11.87.34.24.22.36.5.36.81 0 .32-.12.59-.36.82-.24.22-.53.33-.87.33Zm5.36 5v5.28h-2.12v-9h2.02v1.53h.11c.2-.5.54-.9.99-1.2.46-.3 1.02-.45 1.7-.45.62 0 1.16.13 1.62.4.46.26.82.65 1.08 1.15.25.5.38 1.12.38 1.84v5.73h-2.13v-5.4a2 2 0 0 0-.46-1.42c-.31-.34-.74-.5-1.29-.5-.37 0-.7.08-.99.24-.28.16-.5.4-.67.7-.16.3-.24.67-.24 1.1Zm11.85 8.84c-.76 0-1.42-.1-1.96-.3a3.4 3.4 0 0 1-1.32-.83 2.83 2.83 0 0 1-.7-1.14l1.92-.46a1.86 1.86 0 0 0 1.03.95c.28.12.64.18 1.06.18.6 0 1.1-.15 1.5-.44.4-.3.59-.77.59-1.43v-1.7h-.1c-.12.21-.28.44-.49.67-.2.23-.48.42-.82.58a3.2 3.2 0 0 1-1.29.23 3.7 3.7 0 0 1-1.88-.49c-.56-.32-1-.81-1.33-1.46a5.42 5.42 0 0 1-.5-2.45c0-.99.17-1.82.5-2.5a3.45 3.45 0 0 1 4.52-1.82c.35.18.62.39.82.64.2.25.36.48.47.7h.11v-1.5h2.1v9.16a3.1 3.1 0 0 1-2.06 3.04 5.9 5.9 0 0 1-2.17.37Zm.02-5.35c.44 0 .83-.11 1.14-.33.32-.22.56-.53.73-.94.16-.41.24-.9.24-1.48 0-.57-.08-1.06-.24-1.49-.16-.43-.4-.76-.72-1a1.9 1.9 0 0 0-1.15-.35c-.48 0-.87.13-1.19.37-.31.25-.55.58-.71 1.01-.16.43-.24.91-.24 1.46a4 4 0 0 0 .24 1.45c.16.4.4.73.72.96.32.22.71.34 1.18.34Z" fill="#333"/><rect x="241.39" y="82.39" width="189.21" height="189.61" rx="5.89" stroke="#EBEBEB" stroke-width=".79"/><rect x="456.93" y="82.79" width="188.43" height="188.04" rx="5.5" fill="#F0F6FE"/><g clip-path="url(#f)"><path d="M606.16 162.16a55.01 55.01 0 1 1-110.02 0 55.01 55.01 0 0 1 110.02 0Z" fill="#1D6FF5"/><path d="M538.53 152.6v-1.46c0-2.08.4-3.79 1.22-5.13a9.55 9.55 0 0 1 4.09-3.36l1.03-.49a14.76 14.76 0 0 0 4.2-2.74 5.29 5.29 0 0 0 1.47-3.91 5.33 5.33 0 0 0-3.35-4.95 9.48 9.48 0 0 0-3.72-.67c-1.46 0-2.79.24-3.96.73a6.35 6.35 0 0 0-2.75 2.2 6.5 6.5 0 0 0-.97 3.67v1.34h-7.93v-1.22c0-2.81.7-5.23 2.07-7.27a13.12 13.12 0 0 1 5.61-4.64c2.36-1.1 5-1.65 7.93-1.65 2.89 0 5.45.53 7.68 1.59a13.08 13.08 0 0 1 5.37 4.4 11.07 11.07 0 0 1 1.95 6.47c0 2.44-.45 4.46-1.34 6.04a11.79 11.79 0 0 1-3.42 3.79 30.69 30.69 0 0 1-4.14 2.44l-1.04.49c-.73.33-1.24.73-1.52 1.22a3.8 3.8 0 0 0-.43 2.02v1.1h-8.05Zm4.27 14.9c-1.63 0-3-.52-4.15-1.58a5.7 5.7 0 0 1-1.64-4.22c0-1.7.54-3.09 1.64-4.15a5.74 5.74 0 0 1 4.15-1.65 5.62 5.62 0 0 1 5.8 5.8c0 1.71-.56 3.12-1.65 4.22a5.73 5.73 0 0 1-4.15 1.59Z" fill="#fff"/><path d="m533.35 192.77 8.73 8.72 47.87-47.87-8.73-8.72-47.87 47.87Z" fill="#243EB6"/><path d="m535.53 194.95 4.37 4.36 47.87-47.86-4.37-4.37-47.87 47.87Z" fill="#FFBE00"/><path d="m587.27 143.21-6.05 1.69-1.69 6.05 4.37 4.36 6.05-1.69 1.68-6.05-4.36-4.36Z" fill="#F4EEE3"/><path d="M587.28 147.85a1.75 1.75 0 1 0-2.48 2.49 1.75 1.75 0 0 0 2.48-2.49Z" fill="#FA5453"/><path d="m533.36 192.77-2.45 11.35 11.17-2.63-8.73-8.72Z" fill="#F4EEE3"/><path d="m533.34 203.59-1.9-1.9-.6 2.52 2.5-.62Z" fill="#FA5453"/></g><path d="M487.5 234.46v12h-2.17v-12h2.18Zm8.22 12-2.54-9h2.16l1.58 6.33h.08l1.62-6.33h2.14l1.62 6.3h.09l1.55-6.3h2.17l-2.55 9h-2.2l-1.7-6.08h-.12l-1.68 6.08h-2.22Zm11.95 0v-9h2.13v9h-2.13Zm1.07-10.28c-.34 0-.62-.1-.87-.33-.24-.23-.36-.5-.36-.81 0-.32.12-.6.36-.82.25-.22.53-.34.87-.34.34 0 .63.12.87.34.24.22.36.5.36.82 0 .31-.12.58-.36.81-.24.22-.53.34-.87.34Zm5.36-1.72v12h-2.12v-12h2.12Zm4.3 0v12h-2.12v-12h2.12Zm9.62 12.16a3.41 3.41 0 0 1-3.22-2.13 5.89 5.89 0 0 1-.5-2.52c0-1 .17-1.84.5-2.53a3.45 3.45 0 0 1 4.52-1.83c.35.18.62.4.82.64.2.25.35.48.46.7h.09v-4.49h2.12v12h-2.08v-1.41h-.13a4 4 0 0 1-.48.7 2.62 2.62 0 0 1-2.1.87Zm.6-1.74c.44 0 .82-.12 1.14-.36.32-.25.56-.59.72-1.03.16-.44.25-.94.25-1.53 0-.58-.09-1.09-.25-1.52a2.2 2.2 0 0 0-.72-1c-.3-.23-.7-.35-1.15-.35-.47 0-.87.12-1.18.37-.32.24-.56.58-.72 1.01-.16.44-.24.94-.24 1.5s.08 1.06.24 1.5c.17.44.4.78.72 1.04.32.25.72.37 1.18.37Zm10.44 1.76c-.9 0-1.68-.19-2.34-.56a3.8 3.8 0 0 1-1.5-1.6 5.38 5.38 0 0 1-.53-2.46c0-.93.17-1.74.52-2.44a3.99 3.99 0 0 1 3.74-2.24c.55 0 1.08.1 1.57.28.5.17.93.44 1.31.81.38.38.68.85.9 1.42.22.57.33 1.25.33 2.04v.65h-7.38v-1.43h5.35c0-.4-.1-.76-.26-1.08a1.93 1.93 0 0 0-1.8-1.03 2.1 2.1 0 0 0-1.9 1.13c-.18.34-.28.71-.28 1.11v1.25c0 .52.1.97.29 1.35a2 2 0 0 0 .8.85c.35.2.75.3 1.2.3.32 0 .6-.05.85-.13.25-.1.46-.22.65-.4.18-.17.32-.38.41-.63l1.98.22c-.12.52-.36.98-.71 1.37-.35.39-.8.69-1.34.9a4.9 4.9 0 0 1-1.86.32Zm9.72 0c-.9 0-1.67-.2-2.31-.6a3.95 3.95 0 0 1-1.48-1.63 5.4 5.4 0 0 1-.52-2.41c0-.92.18-1.72.53-2.42.35-.7.85-1.25 1.49-1.64.64-.4 1.4-.6 2.28-.6.73 0 1.38.14 1.94.4a3.32 3.32 0 0 1 1.93 2.84h-2.03c-.08-.43-.27-.8-.58-1.08a1.7 1.7 0 0 0-1.23-.44c-.43 0-.81.11-1.14.35a2.2 2.2 0 0 0-.77 1c-.18.43-.27.95-.27 1.55 0 .62.1 1.14.27 1.59.18.43.43.77.76 1.01.33.23.71.35 1.15.35a1.68 1.68 0 0 0 1.46-.7 2 2 0 0 0 .35-.82h2.03a3.32 3.32 0 0 1-1.89 2.84c-.56.27-1.21.41-1.97.41Zm5.6-.18v-9h2.12v9h-2.12Zm1.07-10.28c-.34 0-.63-.1-.87-.33s-.36-.5-.36-.81c0-.32.12-.6.36-.82.24-.22.53-.34.87-.34.34 0 .63.12.87.34.24.22.36.5.36.82 0 .31-.12.58-.36.81-.24.22-.53.34-.87.34Zm6.58 10.44a3.41 3.41 0 0 1-3.23-2.13 5.89 5.89 0 0 1-.48-2.52c0-1 .16-1.84.49-2.53a3.45 3.45 0 0 1 4.52-1.83c.34.18.61.4.81.64.2.25.36.48.47.7h.08v-4.49h2.13v12h-2.09v-1.41h-.13c-.1.21-.26.45-.47.7a2.62 2.62 0 0 1-2.1.87Zm.59-1.74c.45 0 .83-.12 1.15-.36.31-.25.55-.59.72-1.03.16-.44.24-.94.24-1.53 0-.58-.08-1.09-.24-1.52a2.2 2.2 0 0 0-.72-1 1.9 1.9 0 0 0-1.15-.35c-.48 0-.87.12-1.19.37-.31.24-.55.58-.71 1.01-.16.44-.24.94-.24 1.5s.08 1.06.24 1.5c.16.44.4.78.72 1.04.32.25.71.37 1.18.37Zm10.45 1.76c-.9 0-1.69-.19-2.34-.56a3.8 3.8 0 0 1-1.5-1.6 5.38 5.38 0 0 1-.54-2.46c0-.93.18-1.74.53-2.44a3.99 3.99 0 0 1 3.74-2.24c.55 0 1.07.1 1.57.28a3.66 3.66 0 0 1 2.21 2.23c.22.57.33 1.25.33 2.04v.65h-7.38v-1.43h5.34c0-.4-.09-.76-.26-1.08a1.93 1.93 0 0 0-1.79-1.03c-.43 0-.81.1-1.14.31a2.24 2.24 0 0 0-1.04 1.93v1.25c0 .52.1.97.29 1.35.19.37.45.66.8.85a2.7 2.7 0 0 0 2.04.17c.25-.1.47-.22.65-.4.19-.17.33-.38.42-.63l1.98.22c-.12.52-.36.98-.71 1.37-.35.39-.8.69-1.34.9a4.9 4.9 0 0 1-1.86.32Zm12-12.18v12h-2.11v-12h2.12Zm4.78 12.19c-.57 0-1.08-.1-1.54-.3a2.5 2.5 0 0 1-1.08-.92c-.26-.4-.4-.9-.4-1.5 0-.5.1-.92.29-1.25.19-.33.44-.6.77-.8.32-.2.69-.35 1.1-.45.4-.1.83-.18 1.27-.23l1.28-.14c.33-.05.57-.12.71-.22.16-.1.23-.24.23-.45v-.03c0-.44-.13-.79-.39-1.03s-.64-.36-1.13-.36c-.52 0-.93.11-1.24.34-.3.22-.5.5-.6.8l-1.99-.28a3.15 3.15 0 0 1 2.1-2.2 5.65 5.65 0 0 1 3.02-.13c.42.1.82.27 1.17.5.36.23.64.55.86.94.22.4.32.9.32 1.5v6.02h-2.03v-1.23h-.08a2.6 2.6 0 0 1-1.41 1.22c-.35.13-.76.2-1.23.2Zm.55-1.56c.43 0 .8-.09 1.11-.25.31-.18.55-.4.72-.69.17-.28.26-.58.26-.91v-1.07a1 1 0 0 1-.34.16l-.53.12-.58.1-.5.06c-.31.05-.6.12-.85.21-.25.1-.44.24-.59.42a1 1 0 0 0-.22.66c0 .4.15.69.43.89.29.2.65.3 1.1.3Zm10.83-7.63v1.64h-5.17v-1.64h5.17Zm-3.9-2.15h2.13v8.45c0 .28.04.5.13.65.09.15.2.25.35.3.14.06.3.09.48.09a2.14 2.14 0 0 0 .62-.08l.36 1.66a4.54 4.54 0 0 1-1.25.2 3.45 3.45 0 0 1-1.44-.23 2.23 2.23 0 0 1-1.01-.84 2.48 2.48 0 0 1-.36-1.4v-8.8Zm9.57 11.33c-.9 0-1.69-.19-2.34-.56a3.82 3.82 0 0 1-1.5-1.6 5.39 5.39 0 0 1-.54-2.46c0-.93.18-1.74.53-2.44a4 4 0 0 1 3.74-2.24c.55 0 1.07.1 1.57.28a3.66 3.66 0 0 1 2.21 2.23c.22.57.33 1.25.33 2.04v.65h-7.38v-1.43h5.35c0-.4-.1-.76-.27-1.08a1.93 1.93 0 0 0-1.79-1.03c-.43 0-.81.1-1.14.31a2.24 2.24 0 0 0-1.04 1.93v1.25c0 .52.1.97.28 1.35.2.37.46.66.8.85a2.7 2.7 0 0 0 2.05.17c.25-.1.47-.22.65-.4.19-.17.33-.38.42-.63l1.98.22c-.12.52-.36.98-.71 1.37-.35.39-.8.69-1.34.9a4.9 4.9 0 0 1-1.86.32Zm5.8-.18v-9h2.05v1.5h.1a2.24 2.24 0 0 1 2.22-1.63 4.76 4.76 0 0 1 .76.06v1.95a3.85 3.85 0 0 0-.99-.12c-.38 0-.73.09-1.04.25a1.84 1.84 0 0 0-.98 1.7v5.3h-2.13Z" fill="#184BC8"/><rect x="456.93" y="82.79" width="188.43" height="188.04" rx="5.5" stroke="#194DCC" stroke-width="1.57"/><rect x="269" y="296.4" width="134" height="32" rx="4" fill="#0F67F5"/><path d="M302.83 310.65h-1.85a2.31 2.31 0 0 0-.83-1.41 2.21 2.21 0 0 0-.73-.38 2.83 2.83 0 0 0-2.34.3c-.43.27-.76.67-1 1.2a4.67 4.67 0 0 0-.37 1.95c0 .78.13 1.43.37 1.97.24.53.58.93 1 1.2a2.94 2.94 0 0 0 2.32.28 2.32 2.32 0 0 0 1.27-.95c.15-.23.25-.5.3-.8l1.86.02a4.02 4.02 0 0 1-2.65 3.24c-.5.18-1.05.27-1.66.27a4.33 4.33 0 0 1-4.06-2.42 6.1 6.1 0 0 1-.6-2.81 6 6 0 0 1 .61-2.82 4.37 4.37 0 0 1 4.05-2.41c.57 0 1.1.08 1.59.24a4.03 4.03 0 0 1 2.24 1.82c.25.44.4.95.48 1.51Zm4.94 6.9a3.7 3.7 0 0 1-1.93-.5 3.33 3.33 0 0 1-1.28-1.37 4.52 4.52 0 0 1-.44-2.07c0-.79.14-1.48.44-2.07.3-.6.73-1.06 1.28-1.38.54-.33 1.19-.5 1.94-.5.74 0 1.39.17 1.93.5.55.32.97.78 1.27 1.38.3.6.45 1.28.45 2.07a4.5 4.5 0 0 1-.45 2.07 3.3 3.3 0 0 1-1.27 1.38c-.54.32-1.19.49-1.94.49Zm.02-1.44c.4 0 .74-.12 1-.34.28-.22.48-.52.62-.9.13-.38.2-.8.2-1.26 0-.47-.07-.9-.2-1.27a2.01 2.01 0 0 0-.61-.91 1.5 1.5 0 0 0-1.01-.34c-.42 0-.76.11-1.04.34a2 2 0 0 0-.61.9 3.95 3.95 0 0 0 0 2.54c.13.38.34.68.61.9.28.23.62.34 1.04.34Zm6.97-3.19v4.48h-1.8v-7.64h1.72v1.3h.1c.17-.43.45-.77.83-1.02.39-.25.87-.38 1.44-.38.52 0 .99.12 1.38.34.39.23.7.55.91.98.22.43.33.95.32 1.56v4.86h-1.8v-4.58c0-.51-.13-.91-.4-1.2a1.4 1.4 0 0 0-1.08-.44c-.32 0-.6.07-.84.21-.25.14-.44.34-.58.6a2 2 0 0 0-.2.94Zm10.55-3.16v1.4h-4.4v-1.4h4.4Zm-3.31-1.83h1.8v7.17c0 .24.04.43.1.56a.6.6 0 0 0 .3.26c.13.04.27.07.42.07a2.49 2.49 0 0 0 .53-.07l.3 1.4a4.1 4.1 0 0 1-1.06.18c-.45.02-.86-.05-1.22-.2a1.9 1.9 0 0 1-.86-.7 2.14 2.14 0 0 1-.31-1.2v-7.47Zm4.81 9.47v-7.64h1.8v7.64h-1.8Zm.9-8.72c-.28 0-.52-.1-.73-.28a.92.92 0 0 1-.3-.7c0-.27.1-.5.3-.69.2-.19.45-.28.74-.28.28 0 .53.1.73.28a.95.95 0 0 1 .01 1.39 1.1 1.1 0 0 1-.74.28Zm4.55 4.25v4.47h-1.8v-7.64h1.72v1.3h.1c.17-.43.45-.77.83-1.02.39-.25.87-.38 1.44-.38.52 0 .99.12 1.38.34.39.23.7.55.91.98.22.43.33.95.32 1.56v4.86h-1.8v-4.58c0-.51-.13-.91-.4-1.2a1.4 1.4 0 0 0-1.08-.44c-.32 0-.6.07-.84.21-.25.14-.44.34-.58.6a2 2 0 0 0-.2.94Zm11.6 1.26v-4.43h1.8v7.64h-1.75v-1.36h-.08a2.3 2.3 0 0 1-.84 1.05c-.4.27-.88.4-1.45.4-.5 0-.94-.1-1.33-.32a2.31 2.31 0 0 1-.9-.98 3.47 3.47 0 0 1-.32-1.56v-4.87h1.8v4.59c0 .48.13.86.4 1.15.27.29.61.43 1.05.43a1.65 1.65 0 0 0 1.38-.77c.16-.26.24-.59.24-.97Zm7.03 3.36a3.9 3.9 0 0 1-1.98-.48 3.23 3.23 0 0 1-1.28-1.36 4.57 4.57 0 0 1-.45-2.08c0-.79.15-1.48.45-2.07a3.4 3.4 0 0 1 3.17-1.9c.47 0 .91.08 1.33.23a3.19 3.19 0 0 1 1.88 1.9c.18.48.28 1.06.28 1.73v.55h-6.26v-1.21h4.53c0-.35-.08-.65-.22-.92a1.64 1.64 0 0 0-1.52-.88 1.83 1.83 0 0 0-1.62.97c-.15.29-.23.6-.23.94v1.06c0 .44.08.82.24 1.14.16.32.39.56.68.73.3.16.63.25 1.03.25.26 0 .5-.04.7-.11.22-.08.4-.19.56-.34.15-.14.27-.32.35-.54l1.68.2c-.1.44-.3.82-.6 1.15-.3.33-.68.59-1.14.77-.46.18-.99.27-1.58.27Z" fill="#fff"/><path d="m372.47 312.75.36-.35-.36-.35-3.56-3.56a.12.12 0 0 1-.03-.1c0-.03.01-.06.03-.08a.12.12 0 0 1 .09-.03c.04 0 .07.01.09.03l4 4c.02.02.03.05.03.09 0 .04-.01.06-.03.09l-4 4a.12.12 0 0 1-.09.03.12.12 0 0 1-.09-.03.12.12 0 0 1-.03-.1c0-.03.01-.06.03-.08l3.56-3.56Z" fill="#0F67F5" stroke="#fff"/><defs><clipPath id="a"><path fill="#fff" transform="translate(65.84 107.15)" d="M0 0h110.03v110.03H0z"/></clipPath><clipPath id="b"><path fill="#fff" transform="translate(280.99 107.15)" d="M0 0h110.03v110.03H0z"/></clipPath><clipPath id="f"><path fill="#fff" transform="translate(496.14 107.15)" d="M0 0h110.03v110.03H0z"/></clipPath></defs></svg>