<svg width="98" height="62" fill="none" xmlns="http://www.w3.org/2000/svg"><rect x=".5" y=".5" width="97" height="61" rx="3.5" fill="#fff"/><path d="M9.06 35.5v-8.73H12c.68 0 1.24.13 1.67.37.44.25.77.58.98 1 .2.41.31.88.31 1.4 0 .5-.1.98-.31 1.4-.21.42-.53.75-.97 1a3.3 3.3 0 0 1-1.67.37h-2.1v-.94h2.08c.47 0 .84-.08 1.13-.24.28-.16.49-.38.62-.65.13-.28.2-.6.2-.95s-.07-.66-.2-.93a1.4 1.4 0 0 0-.63-.65 2.35 2.35 0 0 0-1.14-.24h-1.86v7.79H9.06Zm9.4.15c-.41 0-.79-.07-1.13-.23-.33-.16-.6-.39-.8-.69-.2-.3-.3-.66-.3-1.09 0-.37.07-.68.22-.91.15-.24.35-.42.6-.55.24-.14.51-.24.81-.3a14.76 14.76 0 0 1 1.88-.28c.25-.03.43-.07.54-.14.12-.07.18-.18.18-.34v-.03c0-.43-.12-.75-.35-.98-.22-.24-.57-.35-1.03-.35-.48 0-.86.1-1.13.31-.27.21-.47.44-.58.67l-.95-.34a2.3 2.3 0 0 1 1.62-1.4 3.9 3.9 0 0 1 1.73-.05c.27.04.54.15.8.3.25.15.47.38.64.7.17.3.25.72.25 1.24v4.31h-1v-.89h-.05a1.91 1.91 0 0 1-.98.87c-.26.12-.59.17-.97.17Zm.16-.9a2 2 0 0 0 1-.23 1.6 1.6 0 0 0 .84-1.39v-.92c-.04.05-.14.1-.28.14a4.77 4.77 0 0 1-1.04.18l-.42.06c-.26.03-.5.08-.73.16-.23.08-.41.19-.55.34a.86.86 0 0 0-.2.6c0 .35.13.62.38.8.27.17.6.26 1 .26Zm5.68-7.98v8.73h-1v-8.73h1Zm4.6 8.87a2.8 2.8 0 0 1-2.68-1.6 3.8 3.8 0 0 1-.38-1.76c0-.67.12-1.26.37-1.77a2.77 2.77 0 0 1 2.58-1.64c.34 0 .68.06 1 .17a2.5 2.5 0 0 1 1.57 1.56c.16.42.24.93.24 1.54v.43h-5.04v-.87h4.02c0-.37-.07-.7-.22-.99a1.67 1.67 0 0 0-1.57-.94c-.4 0-.75.1-1.04.3-.3.2-.51.45-.67.77-.16.31-.23.65-.23 1.01v.58c0 .5.08.92.25 1.26.17.34.41.6.72.78.3.17.67.26 1.07.26.27 0 .5-.03.72-.1.21-.08.4-.2.56-.35.15-.15.27-.34.36-.57l.97.27c-.1.33-.27.62-.52.87-.24.25-.54.44-.9.58-.35.14-.75.2-1.19.2Zm10.45-6.69v.86h-3.39v-.86h3.4Zm-2.4-1.56h1v6.23c0 .29.05.5.13.64s.2.24.32.29a1.78 1.78 0 0 0 .7.05l.17-.04.2.9a2.05 2.05 0 0 1-.75.13c-.28 0-.56-.07-.83-.19a1.6 1.6 0 0 1-.68-.56 1.6 1.6 0 0 1-.26-.94v-6.51Zm6.59 8.25a2.8 2.8 0 0 1-2.68-1.6c-.25-.5-.37-1.1-.37-1.76 0-.67.12-1.26.37-1.77a2.77 2.77 0 0 1 2.58-1.64c.34 0 .68.06 1 .17a2.5 2.5 0 0 1 1.57 1.56c.16.42.24.93.24 1.54v.43H41.2v-.87h4.03c0-.37-.08-.7-.22-.99a1.67 1.67 0 0 0-1.57-.94 1.85 1.85 0 0 0-1.71 1.07c-.16.31-.24.65-.24 1.01v.58c0 .5.09.92.26 1.26.17.34.41.6.72.78.3.17.66.26 1.07.26.26 0 .5-.03.72-.1a1.55 1.55 0 0 0 .92-.91l.97.26c-.1.33-.28.62-.52.87s-.54.44-.9.58c-.35.14-.75.2-1.19.2Zm4.81-6.69 1.57 2.68 1.57-2.68h1.16l-2.11 3.28 2.11 3.27h-1.16l-1.57-2.54-1.57 2.54H47.2l2.08-3.27-2.08-3.28h1.16Zm8.58 0v.86h-3.4v-.86h3.4Zm-2.4-1.56h1v6.23c0 .29.04.5.13.64.08.14.19.24.32.29a1.78 1.78 0 0 0 .7.05l.17-.04.2.9a2.05 2.05 0 0 1-.75.13c-.28 0-.56-.07-.83-.19a1.6 1.6 0 0 1-.68-.56 1.6 1.6 0 0 1-.26-.94v-6.51Zm9.95 8.25c-.62 0-1.14-.15-1.59-.44a2.83 2.83 0 0 1-1.02-1.2 4.06 4.06 0 0 1-.36-1.74c0-.66.12-1.25.37-1.76s.59-.9 1.03-1.2c.44-.29.96-.43 1.55-.43.46 0 .88.08 1.25.25.36.18.67.41.9.72.24.3.39.67.44 1.07h-1c-.08-.3-.25-.56-.52-.79a1.53 1.53 0 0 0-1.05-.35c-.4 0-.74.1-1.03.3a2 2 0 0 0-.69.87c-.16.36-.24.8-.24 1.29 0 .5.08.94.24 1.32.16.37.39.66.68.87.3.2.64.31 1.04.31.26 0 .5-.04.71-.13a1.47 1.47 0 0 0 .86-1h1a2.33 2.33 0 0 1-1.3 1.77c-.37.18-.79.27-1.27.27Zm6.7 0c-.59 0-1.1-.14-1.55-.43a2.87 2.87 0 0 1-1.04-1.18 4 4 0 0 1-.37-1.77c0-.68.12-1.28.37-1.78.25-.51.6-.9 1.04-1.19.44-.28.96-.42 1.55-.42a2.75 2.75 0 0 1 2.59 1.61 4 4 0 0 1 .38 1.78c0 .68-.13 1.27-.38 1.77a2.76 2.76 0 0 1-2.59 1.61Zm0-.9c.45 0 .82-.12 1.1-.35.3-.23.51-.53.65-.91a3.72 3.72 0 0 0 .01-2.44 2.06 2.06 0 0 0-.65-.92 1.71 1.71 0 0 0-1.1-.35c-.46 0-.83.12-1.12.35-.29.24-.5.54-.64.92s-.2.78-.2 1.22c0 .44.06.85.2 1.22.14.38.35.68.64.9.3.24.66.35 1.11.35Zm5.5-7.97v8.73h-1v-8.73h1Zm4.5 8.87a2.8 2.8 0 0 1-1.55-.43 2.87 2.87 0 0 1-1.04-1.18 4 4 0 0 1-.37-1.77c0-.68.13-1.28.37-1.78.25-.51.6-.9 1.04-1.19a2.9 2.9 0 0 1 1.56-.42 2.75 2.75 0 0 1 2.59 1.61 4 4 0 0 1 .37 1.78c0 .68-.12 1.27-.37 1.77a2.76 2.76 0 0 1-2.59 1.61Zm0-.9c.46 0 .83-.12 1.12-.35.29-.23.5-.53.64-.91.14-.37.2-.78.2-1.22 0-.44-.06-.84-.2-1.22a2.06 2.06 0 0 0-.64-.92 1.71 1.71 0 0 0-1.11-.35c-.45 0-.82.12-1.1.35-.3.24-.51.54-.65.92s-.21.78-.21 1.22c0 .44.07.85.2 1.22.15.38.36.68.65.9.3.24.66.35 1.1.35Zm4.51.76v-6.55h.97v1h.07c.12-.33.33-.6.65-.8.31-.2.66-.3 1.05-.3a11.3 11.3 0 0 1 .53.02v1.02a2.98 2.98 0 0 0-.61-.07c-.32 0-.6.07-.85.2s-.45.32-.6.55c-.13.23-.2.5-.2.79v4.14h-1.01Z" fill="#B5B5B5"/><rect x=".5" y=".5" width="97" height="61" rx="3.5" stroke="#EBEBEB"/></svg>