<svg width="258" height="134" fill="none" xmlns="http://www.w3.org/2000/svg"><path fill="#fff" d="M0 .5h258v133H0z"/><rect x="74.5" y="40.5" width="108" height="53" rx="3.5" fill="#fff"/><path d="M118.58 63.71v-.94h6.55v.94h-2.75v7.79h-1.06v-7.79h-2.74Zm8.04 7.79v-6.55h1v6.55h-1Zm.51-7.64a.71.71 0 0 1-.5-.2.64.64 0 0 1-.21-.48c0-.19.06-.35.2-.48a.74.74 0 0 1 1.01 0c.15.13.22.3.22.48a.6.6 0 0 1-.22.48.7.7 0 0 1-.5.2Zm3.34-1.09v8.73h-1v-8.73h1Zm4.59 8.87a2.8 2.8 0 0 1-2.68-1.6 4 4 0 0 1-.37-1.76c0-.67.12-1.26.37-1.77a2.77 2.77 0 0 1 2.58-1.64c.34 0 .67.06 1 .17a2.5 2.5 0 0 1 1.57 1.56c.16.42.24.93.24 1.54v.43h-5.05v-.87h4.03c0-.37-.08-.7-.22-.99a1.67 1.67 0 0 0-1.57-.94 1.85 1.85 0 0 0-1.71 1.07c-.16.31-.24.65-.24 1.01v.58c0 .5.09.92.26 1.26.17.34.41.6.72.78.3.17.66.26 1.07.26.26 0 .5-.03.72-.1a1.55 1.55 0 0 0 .92-.91l.97.26c-.1.33-.28.62-.52.87s-.54.44-.9.58c-.35.14-.75.2-1.2.2Z" fill="#545454"/><rect x="74.5" y="40.5" width="108" height="53" rx="3.5" stroke="#EBEBEB"/></svg>