<svg width="672" height="216" viewBox="0 0 672 216" fill="none" xmlns="http://www.w3.org/2000/svg">
<rect width="218.667" height="216" fill="#F3F8FF"/>
<path d="M85.9844 26.6172C85.938 26.183 85.7425 25.8449 85.3978 25.603C85.0564 25.361 84.6123 25.2401 84.0654 25.2401C83.6809 25.2401 83.3511 25.2981 83.076 25.4141C82.8009 25.5301 82.5905 25.6875 82.4446 25.8864C82.2988 26.0852 82.2242 26.3123 82.2209 26.5675C82.2209 26.7796 82.269 26.9635 82.3651 27.1193C82.4645 27.2751 82.5988 27.4077 82.7678 27.517C82.9368 27.6231 83.1241 27.7126 83.3296 27.7855C83.5351 27.8584 83.7422 27.9197 83.951 27.9695L84.9056 28.2081C85.2901 28.2976 85.6596 28.4186 86.0142 28.571C86.3722 28.7235 86.692 28.9157 86.9738 29.1477C87.2588 29.3797 87.4842 29.6598 87.6499 29.9879C87.8156 30.3161 87.8985 30.7005 87.8985 31.1413C87.8985 31.7379 87.746 32.2633 87.4411 32.7173C87.1362 33.1681 86.6954 33.5211 86.1187 33.7763C85.5453 34.0282 84.8509 34.1541 84.0356 34.1541C83.2434 34.1541 82.5557 34.0315 81.9723 33.7862C81.3923 33.541 80.9383 33.183 80.6101 32.7124C80.2853 32.2417 80.1097 31.6683 80.0831 30.9922H81.8978C81.9243 31.3468 82.0337 31.6418 82.2259 31.8771C82.4181 32.1125 82.6684 32.2881 82.9766 32.4041C83.2882 32.5201 83.6362 32.5781 84.0206 32.5781C84.4217 32.5781 84.773 32.5185 85.0746 32.3991C85.3795 32.2765 85.6182 32.1075 85.7905 31.892C85.9629 31.6733 86.0507 31.4181 86.054 31.1264C86.0507 30.8613 85.9728 30.6425 85.8204 30.4702C85.6679 30.2945 85.4541 30.1487 85.179 30.0327C84.9072 29.9134 84.5891 29.8073 84.2245 29.7145L83.0661 29.4162C82.2276 29.2008 81.5647 28.8743 81.0775 28.4368C80.5936 27.996 80.3516 27.411 80.3516 26.6818C80.3516 26.0819 80.514 25.5566 80.8388 25.1058C81.1669 24.6551 81.6127 24.3054 82.1762 24.0568C82.7396 23.8049 83.3776 23.679 84.0902 23.679C84.8128 23.679 85.4458 23.8049 85.9894 24.0568C86.5363 24.3054 86.9655 24.6518 87.277 25.0959C87.5886 25.5367 87.7493 26.0438 87.7593 26.6172H85.9844ZM92.844 34.1491C92.0783 34.1491 91.4171 33.9901 90.8603 33.6719C90.3068 33.3504 89.8809 32.8963 89.5826 32.3097C89.2843 31.7197 89.1352 31.0253 89.1352 30.2266C89.1352 29.4411 89.2843 28.7517 89.5826 28.1584C89.8842 27.5618 90.3051 27.0978 90.8454 26.7663C91.3856 26.4316 92.0203 26.2642 92.7495 26.2642C93.2202 26.2642 93.6643 26.3404 94.0819 26.4929C94.5028 26.642 94.874 26.8741 95.1955 27.1889C95.5203 27.5038 95.7756 27.9048 95.9612 28.392C96.1468 28.8759 96.2396 29.4527 96.2396 30.1222V30.674H89.9803V29.4609H94.5144C94.5111 29.1162 94.4365 28.8097 94.2907 28.5412C94.1449 28.2694 93.941 28.0556 93.6792 27.8999C93.4207 27.7441 93.1191 27.6662 92.7744 27.6662C92.4065 27.6662 92.0833 27.7557 91.8049 27.9347C91.5265 28.1103 91.3094 28.3423 91.1536 28.6307C91.0012 28.9157 90.9233 29.2289 90.92 29.5703V30.6293C90.92 31.0734 91.0012 31.4545 91.1636 31.7727C91.326 32.0876 91.553 32.3295 91.8447 32.4986C92.1363 32.6643 92.4777 32.7472 92.8688 32.7472C93.1307 32.7472 93.3676 32.7107 93.5798 32.6378C93.7919 32.5616 93.9758 32.4505 94.1316 32.3047C94.2874 32.1589 94.4051 31.9782 94.4846 31.7628L96.165 31.9517C96.0589 32.3958 95.8568 32.7836 95.5585 33.1151C95.2635 33.4432 94.8856 33.6984 94.4249 33.8807C93.9642 34.0597 93.4372 34.1491 92.844 34.1491ZM99.5618 23.8182V34H97.7621V23.8182H99.5618ZM104.793 34.1491C104.028 34.1491 103.366 33.9901 102.81 33.6719C102.256 33.3504 101.83 32.8963 101.532 32.3097C101.234 31.7197 101.084 31.0253 101.084 30.2266C101.084 29.4411 101.234 28.7517 101.532 28.1584C101.833 27.5618 102.254 27.0978 102.795 26.7663C103.335 26.4316 103.97 26.2642 104.699 26.2642C105.169 26.2642 105.614 26.3404 106.031 26.4929C106.452 26.642 106.823 26.8741 107.145 27.1889C107.47 27.5038 107.725 27.9048 107.91 28.392C108.096 28.8759 108.189 29.4527 108.189 30.1222V30.674H101.93V29.4609H106.464C106.46 29.1162 106.386 28.8097 106.24 28.5412C106.094 28.2694 105.89 28.0556 105.628 27.8999C105.37 27.7441 105.068 27.6662 104.724 27.6662C104.356 27.6662 104.033 27.7557 103.754 27.9347C103.476 28.1103 103.259 28.3423 103.103 28.6307C102.95 28.9157 102.872 29.2289 102.869 29.5703V30.6293C102.869 31.0734 102.95 31.4545 103.113 31.7727C103.275 32.0876 103.502 32.3295 103.794 32.4986C104.086 32.6643 104.427 32.7472 104.818 32.7472C105.08 32.7472 105.317 32.7107 105.529 32.6378C105.741 32.5616 105.925 32.4505 106.081 32.3047C106.237 32.1589 106.354 31.9782 106.434 31.7628L108.114 31.9517C108.008 32.3958 107.806 32.7836 107.508 33.1151C107.213 33.4432 106.835 33.6984 106.374 33.8807C105.913 34.0597 105.386 34.1491 104.793 34.1491ZM113.042 34.1491C112.28 34.1491 111.625 33.9818 111.079 33.647C110.535 33.3123 110.116 32.8499 109.821 32.2599C109.529 31.6667 109.383 30.9839 109.383 30.2116C109.383 29.4361 109.532 28.7517 109.831 28.1584C110.129 27.5618 110.55 27.0978 111.093 26.7663C111.64 26.4316 112.287 26.2642 113.032 26.2642C113.652 26.2642 114.201 26.3786 114.678 26.6072C115.159 26.8326 115.541 27.1525 115.826 27.5668C116.111 27.9777 116.274 28.4583 116.314 29.0085H114.593C114.524 28.6406 114.358 28.334 114.096 28.0888C113.838 27.8402 113.491 27.7159 113.057 27.7159C112.689 27.7159 112.366 27.8153 112.088 28.0142C111.809 28.2098 111.592 28.4915 111.436 28.8594C111.284 29.2273 111.208 29.6681 111.208 30.1818C111.208 30.7022 111.284 31.1496 111.436 31.5241C111.589 31.8954 111.803 32.1821 112.078 32.3842C112.356 32.5831 112.683 32.6825 113.057 32.6825C113.322 32.6825 113.559 32.6328 113.768 32.5334C113.98 32.4306 114.158 32.2831 114.3 32.0909C114.443 31.8987 114.54 31.665 114.593 31.3899H116.314C116.271 31.9302 116.111 32.4091 115.836 32.8267C115.561 33.241 115.187 33.5658 114.713 33.8011C114.239 34.0331 113.682 34.1491 113.042 34.1491ZM121.605 26.3636V27.7557H117.215V26.3636H121.605ZM118.299 24.5341H120.098V31.7031C120.098 31.9451 120.135 32.1307 120.208 32.2599C120.284 32.3859 120.383 32.4721 120.506 32.5185C120.629 32.5649 120.764 32.5881 120.914 32.5881C121.026 32.5881 121.129 32.5798 121.222 32.5632C121.318 32.5466 121.391 32.5317 121.441 32.5185L121.744 33.9254C121.648 33.9586 121.51 33.995 121.331 34.0348C121.156 34.0746 120.94 34.0978 120.685 34.1044C120.234 34.1177 119.828 34.0497 119.467 33.9006C119.106 33.7481 118.819 33.5128 118.607 33.1946C118.398 32.8764 118.295 32.4787 118.299 32.0014V24.5341ZM126.408 34.1491C125.643 34.1491 124.982 33.9901 124.425 33.6719C123.871 33.3504 123.445 32.8963 123.147 32.3097C122.849 31.7197 122.7 31.0253 122.7 30.2266C122.7 29.4411 122.849 28.7517 123.147 28.1584C123.449 27.5618 123.87 27.0978 124.41 26.7663C124.95 26.4316 125.585 26.2642 126.314 26.2642C126.785 26.2642 127.229 26.3404 127.646 26.4929C128.067 26.642 128.438 26.8741 128.76 27.1889C129.085 27.5038 129.34 27.9048 129.526 28.392C129.711 28.8759 129.804 29.4527 129.804 30.1222V30.674H123.545V29.4609H128.079C128.076 29.1162 128.001 28.8097 127.855 28.5412C127.709 28.2694 127.505 28.0556 127.244 27.8999C126.985 27.7441 126.684 27.6662 126.339 27.6662C125.971 27.6662 125.648 27.7557 125.369 27.9347C125.091 28.1103 124.874 28.3423 124.718 28.6307C124.566 28.9157 124.488 29.2289 124.484 29.5703V30.6293C124.484 31.0734 124.566 31.4545 124.728 31.7727C124.89 32.0876 125.117 32.3295 125.409 32.4986C125.701 32.6643 126.042 32.7472 126.433 32.7472C126.695 32.7472 126.932 32.7107 127.144 32.6378C127.356 32.5616 127.54 32.4505 127.696 32.3047C127.852 32.1589 127.97 31.9782 128.049 31.7628L129.729 31.9517C129.623 32.3958 129.421 32.7836 129.123 33.1151C128.828 33.4432 128.45 33.6984 127.989 33.8807C127.529 34.0597 127.002 34.1491 126.408 34.1491ZM134.16 34.1342C133.56 34.1342 133.024 33.9801 132.55 33.6719C132.076 33.3636 131.701 32.9162 131.426 32.3295C131.151 31.7429 131.013 31.0303 131.013 30.1918C131.013 29.3433 131.153 28.6274 131.431 28.044C131.713 27.4574 132.092 27.0149 132.569 26.7166C133.047 26.415 133.579 26.2642 134.165 26.2642C134.613 26.2642 134.981 26.3404 135.269 26.4929C135.557 26.642 135.786 26.8227 135.955 27.0348C136.124 27.2436 136.255 27.4408 136.348 27.6264H136.422V23.8182H138.227V34H136.457V32.7969H136.348C136.255 32.9825 136.121 33.1797 135.945 33.3885C135.77 33.594 135.538 33.7696 135.249 33.9155C134.961 34.0613 134.598 34.1342 134.16 34.1342ZM134.663 32.6577C135.044 32.6577 135.368 32.5549 135.637 32.3494C135.905 32.1406 136.109 31.8506 136.248 31.4794C136.388 31.1082 136.457 30.6757 136.457 30.1818C136.457 29.688 136.388 29.2588 136.248 28.8942C136.113 28.5296 135.91 28.2462 135.642 28.044C135.377 27.8419 135.05 27.7408 134.663 27.7408C134.261 27.7408 133.927 27.8452 133.658 28.054C133.39 28.2628 133.188 28.5511 133.052 28.919C132.916 29.2869 132.848 29.7079 132.848 30.1818C132.848 30.6591 132.916 31.085 133.052 31.4595C133.191 31.8307 133.395 32.1241 133.663 32.3395C133.935 32.5516 134.268 32.6577 134.663 32.6577ZM85.7936 56H84.501L88.2397 45.8182H89.5124L93.251 56H91.9584L88.9158 47.429H88.8362L85.7936 56ZM86.2709 52.0227H91.4811V53.1165H86.2709V52.0227ZM97.7801 56.1591C97.0642 56.1591 96.4478 55.9901 95.9307 55.652C95.4137 55.3139 95.0159 54.8482 94.7375 54.255C94.4591 53.6617 94.3199 52.9839 94.3199 52.2216C94.3199 51.446 94.4624 50.7616 94.7475 50.1683C95.0358 49.5717 95.4369 49.1061 95.9506 48.7713C96.4676 48.4332 97.0709 48.2642 97.7603 48.2642C98.2972 48.2642 98.7811 48.3636 99.212 48.5625C99.6428 48.7614 99.9958 49.0398 100.271 49.3977C100.546 49.7557 100.717 50.1733 100.783 50.6506H99.6097C99.5202 50.3026 99.3213 49.9943 99.0131 49.7259C98.7082 49.4541 98.2972 49.3182 97.7801 49.3182C97.3228 49.3182 96.9217 49.4375 96.577 49.6761C96.2356 49.9115 95.9688 50.2446 95.7766 50.6754C95.5877 51.103 95.4932 51.6051 95.4932 52.1818C95.4932 52.7718 95.586 53.2855 95.7716 53.723C95.9605 54.1605 96.2257 54.5002 96.5671 54.7422C96.9118 54.9841 97.3161 55.1051 97.7801 55.1051C98.0851 55.1051 98.3618 55.0521 98.6104 54.946C98.859 54.84 99.0694 54.6875 99.2418 54.4886C99.4141 54.2898 99.5368 54.0511 99.6097 53.7727H100.783C100.717 54.2235 100.553 54.6295 100.291 54.9908C100.032 55.3487 99.6892 55.6338 99.2617 55.8459C98.8374 56.0547 98.3436 56.1591 97.7801 56.1591ZM105.6 56.1591C104.885 56.1591 104.268 55.9901 103.751 55.652C103.234 55.3139 102.836 54.8482 102.558 54.255C102.279 53.6617 102.14 52.9839 102.14 52.2216C102.14 51.446 102.283 50.7616 102.568 50.1683C102.856 49.5717 103.257 49.1061 103.771 48.7713C104.288 48.4332 104.891 48.2642 105.581 48.2642C106.117 48.2642 106.601 48.3636 107.032 48.5625C107.463 48.7614 107.816 49.0398 108.091 49.3977C108.366 49.7557 108.537 50.1733 108.603 50.6506H107.43C107.341 50.3026 107.142 49.9943 106.833 49.7259C106.528 49.4541 106.117 49.3182 105.6 49.3182C105.143 49.3182 104.742 49.4375 104.397 49.6761C104.056 49.9115 103.789 50.2446 103.597 50.6754C103.408 51.103 103.314 51.6051 103.314 52.1818C103.314 52.7718 103.406 53.2855 103.592 53.723C103.781 54.1605 104.046 54.5002 104.387 54.7422C104.732 54.9841 105.136 55.1051 105.6 55.1051C105.905 55.1051 106.182 55.0521 106.431 54.946C106.679 54.84 106.89 54.6875 107.062 54.4886C107.234 54.2898 107.357 54.0511 107.43 53.7727H108.603C108.537 54.2235 108.373 54.6295 108.111 54.9908C107.853 55.3487 107.51 55.6338 107.082 55.8459C106.658 56.0547 106.164 56.1591 105.6 56.1591ZM113.52 56.1591C112.784 56.1591 112.15 55.9967 111.616 55.6719C111.086 55.3438 110.676 54.8864 110.388 54.2997C110.103 53.7098 109.961 53.0237 109.961 52.2415C109.961 51.4593 110.103 50.7699 110.388 50.1733C110.676 49.5734 111.077 49.1061 111.591 48.7713C112.108 48.4332 112.711 48.2642 113.401 48.2642C113.799 48.2642 114.191 48.3305 114.579 48.4631C114.967 48.5956 115.32 48.8111 115.638 49.1094C115.956 49.4044 116.21 49.7955 116.399 50.2827C116.588 50.7699 116.682 51.3698 116.682 52.0824V52.5795H110.796V51.5653H115.489C115.489 51.1345 115.403 50.75 115.23 50.4119C115.061 50.0739 114.819 49.8071 114.505 49.6115C114.193 49.416 113.825 49.3182 113.401 49.3182C112.934 49.3182 112.529 49.4342 112.188 49.6662C111.85 49.8949 111.59 50.1932 111.407 50.5611C111.225 50.929 111.134 51.3234 111.134 51.7443V52.4205C111.134 52.9972 111.233 53.486 111.432 53.8871C111.634 54.2848 111.914 54.5881 112.272 54.7969C112.63 55.0024 113.046 55.1051 113.52 55.1051C113.828 55.1051 114.107 55.062 114.355 54.9759C114.607 54.8864 114.824 54.7538 115.007 54.5781C115.189 54.3991 115.33 54.1771 115.429 53.9119L116.563 54.2301C116.443 54.6146 116.243 54.9527 115.961 55.2443C115.68 55.5327 115.332 55.758 114.917 55.9205C114.503 56.0795 114.037 56.1591 113.52 56.1591ZM119.64 51.4062V56H118.467V48.3636H119.6V49.5568H119.7C119.879 49.169 120.151 48.8575 120.515 48.6222C120.88 48.3835 121.35 48.2642 121.927 48.2642C122.444 48.2642 122.897 48.3703 123.284 48.5824C123.672 48.7912 123.974 49.1094 124.189 49.5369C124.405 49.9612 124.512 50.4981 124.512 51.1477V56H123.339V51.2273C123.339 50.6274 123.183 50.16 122.872 49.8253C122.56 49.4872 122.133 49.3182 121.589 49.3182C121.215 49.3182 120.88 49.3994 120.585 49.5618C120.293 49.7242 120.063 49.9612 119.894 50.2727C119.725 50.5843 119.64 50.9621 119.64 51.4062ZM129.977 48.3636V49.358H126.02V48.3636H129.977ZM127.173 46.5341H128.347V53.8125C128.347 54.1439 128.395 54.3925 128.491 54.5582C128.59 54.7206 128.716 54.83 128.869 54.8864C129.025 54.9394 129.189 54.9659 129.361 54.9659C129.49 54.9659 129.596 54.9593 129.679 54.946C129.762 54.9295 129.828 54.9162 129.878 54.9062L130.117 55.9602C130.037 55.9901 129.926 56.0199 129.784 56.0497C129.641 56.0829 129.46 56.0994 129.242 56.0994C128.91 56.0994 128.585 56.0282 128.267 55.8857C127.952 55.7431 127.69 55.526 127.482 55.2344C127.276 54.9427 127.173 54.5748 127.173 54.1307V46.5341ZM132.597 56.0795C132.352 56.0795 132.142 55.9917 131.966 55.8161C131.79 55.6404 131.703 55.4299 131.703 55.1847C131.703 54.9394 131.79 54.7289 131.966 54.5533C132.142 54.3776 132.352 54.2898 132.597 54.2898C132.843 54.2898 133.053 54.3776 133.229 54.5533C133.404 54.7289 133.492 54.9394 133.492 55.1847C133.492 55.3471 133.451 55.4962 133.368 55.6321C133.288 55.768 133.181 55.8774 133.045 55.9602C132.912 56.0398 132.763 56.0795 132.597 56.0795ZM132.597 50.4119C132.352 50.4119 132.142 50.3241 131.966 50.1484C131.79 49.9728 131.703 49.7623 131.703 49.517C131.703 49.2718 131.79 49.0613 131.966 48.8857C132.142 48.71 132.352 48.6222 132.597 48.6222C132.843 48.6222 133.053 48.71 133.229 48.8857C133.404 49.0613 133.492 49.2718 133.492 49.517C133.492 49.6795 133.451 49.8286 133.368 49.9645C133.288 50.1004 133.181 50.2098 133.045 50.2926C132.912 50.3722 132.763 50.4119 132.597 50.4119Z" fill="black"/>
<rect x="22.3335" y="65" width="78" height="54" rx="7" fill="white"/>
<path d="M39.1274 85.0227C38.5607 85.0227 38.0735 84.9498 37.6658 84.804C37.2581 84.6615 36.9184 84.4725 36.6466 84.2372C36.3782 84.0052 36.1644 83.7566 36.0053 83.4915L36.9399 82.8352C37.046 82.9744 37.1802 83.1335 37.3426 83.3125C37.505 83.4948 37.7271 83.6522 38.0088 83.7848C38.2939 83.9207 38.6667 83.9886 39.1274 83.9886C39.7439 83.9886 40.2527 83.8395 40.6537 83.5412C41.0548 83.2429 41.2553 82.7756 41.2553 82.1392V80.5881H41.1559C41.0697 80.7273 40.947 80.8996 40.788 81.1051C40.6322 81.3073 40.4068 81.4879 40.1118 81.647C39.8201 81.8028 39.4257 81.8807 38.9286 81.8807C38.3121 81.8807 37.7586 81.7348 37.2681 81.4432C36.7809 81.1515 36.3947 80.7273 36.1097 80.1705C35.828 79.6136 35.6871 78.9375 35.6871 78.142C35.6871 77.3598 35.8246 76.6787 36.0997 76.0987C36.3748 75.5154 36.7576 75.0646 37.2482 74.7464C37.7387 74.425 38.3055 74.2642 38.9485 74.2642C39.4456 74.2642 39.84 74.3471 40.1317 74.5128C40.4267 74.6752 40.6521 74.8608 40.8078 75.0696C40.9669 75.2751 41.0896 75.4441 41.1757 75.5767H41.2951V74.3636H42.4286V82.2188C42.4286 82.875 42.2794 83.4086 41.9811 83.8196C41.6862 84.2339 41.2884 84.5372 40.788 84.7294C40.2908 84.925 39.7373 85.0227 39.1274 85.0227ZM39.0877 80.8267C39.5583 80.8267 39.956 80.719 40.2809 80.5036C40.6057 80.2881 40.8526 79.9782 41.0216 79.5739C41.1907 79.1695 41.2752 78.6856 41.2752 78.1222C41.2752 77.572 41.1923 77.0864 41.0266 76.6655C40.8609 76.2446 40.6156 75.9148 40.2908 75.6761C39.966 75.4375 39.5649 75.3182 39.0877 75.3182C38.5905 75.3182 38.1762 75.4441 37.8448 75.696C37.5166 75.9479 37.2697 76.286 37.104 76.7102C36.9416 77.1345 36.8604 77.6051 36.8604 78.1222C36.8604 78.6525 36.9433 79.1214 37.109 79.5291C37.278 79.9335 37.5266 80.2517 37.8547 80.4837C38.1862 80.7124 38.5971 80.8267 39.0877 80.8267ZM44.5763 82V74.3636H45.7098V75.517H45.7894C45.9286 75.1392 46.1805 74.8326 46.5451 74.5973C46.9096 74.362 47.3206 74.2443 47.778 74.2443C47.8642 74.2443 47.9719 74.246 48.1012 74.2493C48.2304 74.2526 48.3282 74.2576 48.3945 74.2642V75.4574C48.3547 75.4474 48.2636 75.4325 48.121 75.4126C47.9818 75.3894 47.8344 75.3778 47.6786 75.3778C47.3074 75.3778 46.9759 75.4557 46.6843 75.6115C46.3959 75.764 46.1672 75.9761 45.9982 76.2479C45.8325 76.5163 45.7496 76.8229 45.7496 77.1676V82H44.5763ZM52.7546 82.1591C52.0188 82.1591 51.3841 81.9967 50.8505 81.6719C50.3201 81.3438 49.9108 80.8864 49.6225 80.2997C49.3374 79.7098 49.1949 79.0237 49.1949 78.2415C49.1949 77.4593 49.3374 76.7699 49.6225 76.1733C49.9108 75.5734 50.3119 75.1061 50.8256 74.7713C51.3426 74.4332 51.9459 74.2642 52.6353 74.2642C53.033 74.2642 53.4257 74.3305 53.8135 74.4631C54.2013 74.5956 54.5543 74.8111 54.8725 75.1094C55.1907 75.4044 55.4442 75.7955 55.6331 76.2827C55.822 76.7699 55.9165 77.3698 55.9165 78.0824V78.5795H50.0301V77.5653H54.7233C54.7233 77.1345 54.6371 76.75 54.4648 76.4119C54.2958 76.0739 54.0538 75.8071 53.7389 75.6115C53.4274 75.416 53.0595 75.3182 52.6353 75.3182C52.1679 75.3182 51.7636 75.4342 51.4222 75.6662C51.0841 75.8949 50.8239 76.1932 50.6416 76.5611C50.4594 76.929 50.3682 77.3234 50.3682 77.7443V78.4205C50.3682 78.9972 50.4676 79.486 50.6665 79.8871C50.8687 80.2848 51.1487 80.5881 51.5067 80.7969C51.8647 81.0024 52.2806 81.1051 52.7546 81.1051C53.0628 81.1051 53.3412 81.062 53.5898 80.9759C53.8417 80.8864 54.0588 80.7538 54.2411 80.5781C54.4234 80.3991 54.5642 80.1771 54.6637 79.9119L55.7972 80.2301C55.6779 80.6146 55.4773 80.9527 55.1956 81.2443C54.9139 81.5327 54.5659 81.758 54.1516 81.9205C53.7373 82.0795 53.2716 82.1591 52.7546 82.1591ZM58.2246 84.8636C58.0257 84.8636 57.8484 84.8471 57.6926 84.8139C57.5368 84.7841 57.4291 84.7543 57.3695 84.7244L57.6677 83.6903C57.9528 83.7633 58.2047 83.7898 58.4234 83.7699C58.6422 83.75 58.8361 83.6522 59.0051 83.4766C59.1775 83.3042 59.3349 83.0241 59.4774 82.6364L59.6962 82.0398L56.8723 74.3636H58.145L60.253 80.4489H60.3325L62.4405 74.3636H63.7132L60.4717 83.1136C60.3259 83.508 60.1453 83.8345 59.9298 84.093C59.7144 84.3549 59.4641 84.5488 59.1791 84.6747C58.8974 84.8007 58.5792 84.8636 58.2246 84.8636ZM68.8215 71.8182V82H67.5886V73.1108H67.5289L65.0431 74.7614V73.5085L67.5886 71.8182H68.8215Z" fill="#333333"/>
<rect x="22.3335" y="65" width="78" height="54" rx="7" stroke="#333333" stroke-width="2"/>
<rect x="22.3335" y="137" width="78" height="54" rx="7" fill="#F6F6F6"/>
<path d="M38.1431 157.023C37.5763 157.023 37.0891 156.95 36.6814 156.804C36.2737 156.661 35.934 156.473 35.6622 156.237C35.3938 156.005 35.18 155.757 35.0209 155.491L35.9556 154.835C36.0616 154.974 36.1959 155.134 36.3583 155.312C36.5207 155.495 36.7427 155.652 37.0245 155.785C37.3095 155.921 37.6824 155.989 38.1431 155.989C38.7595 155.989 39.2683 155.839 39.6693 155.541C40.0704 155.243 40.2709 154.776 40.2709 154.139V152.588H40.1715C40.0853 152.727 39.9627 152.9 39.8036 153.105C39.6478 153.307 39.4224 153.488 39.1274 153.647C38.8358 153.803 38.4414 153.881 37.9442 153.881C37.3277 153.881 36.7742 153.735 36.2837 153.443C35.7965 153.152 35.4103 152.727 35.1253 152.17C34.8436 151.614 34.7027 150.937 34.7027 150.142C34.7027 149.36 34.8403 148.679 35.1154 148.099C35.3905 147.515 35.7733 147.065 36.2638 146.746C36.7543 146.425 37.3211 146.264 37.9641 146.264C38.4612 146.264 38.8557 146.347 39.1473 146.513C39.4423 146.675 39.6677 146.861 39.8235 147.07C39.9826 147.275 40.1052 147.444 40.1914 147.577H40.3107V146.364H41.4442V154.219C41.4442 154.875 41.2951 155.409 40.9968 155.82C40.7018 156.234 40.3041 156.537 39.8036 156.729C39.3064 156.925 38.7529 157.023 38.1431 157.023ZM38.1033 152.827C38.5739 152.827 38.9717 152.719 39.2965 152.504C39.6213 152.288 39.8682 151.978 40.0372 151.574C40.2063 151.17 40.2908 150.686 40.2908 150.122C40.2908 149.572 40.2079 149.086 40.0422 148.665C39.8765 148.245 39.6312 147.915 39.3064 147.676C38.9816 147.437 38.5806 147.318 38.1033 147.318C37.6061 147.318 37.1918 147.444 36.8604 147.696C36.5323 147.948 36.2853 148.286 36.1196 148.71C35.9572 149.134 35.876 149.605 35.876 150.122C35.876 150.652 35.9589 151.121 36.1246 151.529C36.2936 151.933 36.5422 152.252 36.8703 152.484C37.2018 152.712 37.6128 152.827 38.1033 152.827ZM43.5919 154V146.364H44.7255V147.517H44.805C44.9442 147.139 45.1961 146.833 45.5607 146.597C45.9253 146.362 46.3362 146.244 46.7936 146.244C46.8798 146.244 46.9875 146.246 47.1168 146.249C47.246 146.253 47.3438 146.258 47.4101 146.264V147.457C47.3703 147.447 47.2792 147.433 47.1367 147.413C46.9975 147.389 46.85 147.378 46.6942 147.378C46.323 147.378 45.9916 147.456 45.6999 147.612C45.4115 147.764 45.1828 147.976 45.0138 148.248C44.8481 148.516 44.7652 148.823 44.7652 149.168V154H43.5919ZM51.7702 154.159C51.0344 154.159 50.3997 153.997 49.8661 153.672C49.3358 153.344 48.9264 152.886 48.6381 152.3C48.3531 151.71 48.2105 151.024 48.2105 150.241C48.2105 149.459 48.3531 148.77 48.6381 148.173C48.9264 147.573 49.3275 147.106 49.8412 146.771C50.3583 146.433 50.9615 146.264 51.6509 146.264C52.0486 146.264 52.4414 146.33 52.8291 146.463C53.2169 146.596 53.5699 146.811 53.8881 147.109C54.2063 147.404 54.4598 147.795 54.6487 148.283C54.8377 148.77 54.9321 149.37 54.9321 150.082V150.58H49.0458V149.565H53.7389C53.7389 149.134 53.6528 148.75 53.4804 148.412C53.3114 148.074 53.0694 147.807 52.7546 147.612C52.443 147.416 52.0751 147.318 51.6509 147.318C51.1835 147.318 50.7792 147.434 50.4378 147.666C50.0997 147.895 49.8396 148.193 49.6573 148.561C49.475 148.929 49.3838 149.323 49.3838 149.744V150.42C49.3838 150.997 49.4833 151.486 49.6821 151.887C49.8843 152.285 50.1644 152.588 50.5223 152.797C50.8803 153.002 51.2962 153.105 51.7702 153.105C52.0784 153.105 52.3568 153.062 52.6054 152.976C52.8573 152.886 53.0744 152.754 53.2567 152.578C53.439 152.399 53.5799 152.177 53.6793 151.912L54.8128 152.23C54.6935 152.615 54.493 152.953 54.2112 153.244C53.9295 153.533 53.5815 153.758 53.1672 153.92C52.7529 154.08 52.2872 154.159 51.7702 154.159ZM57.2402 156.864C57.0413 156.864 56.864 156.847 56.7082 156.814C56.5525 156.784 56.4447 156.754 56.3851 156.724L56.6834 155.69C56.9684 155.763 57.2203 155.79 57.4391 155.77C57.6578 155.75 57.8517 155.652 58.0207 155.477C58.1931 155.304 58.3505 155.024 58.493 154.636L58.7118 154.04L55.8879 146.364H57.1606L59.2686 152.449H59.3481L61.4561 146.364H62.7288L59.4873 155.114C59.3415 155.508 59.1609 155.835 58.9454 156.093C58.73 156.355 58.4798 156.549 58.1947 156.675C57.913 156.801 57.5948 156.864 57.2402 156.864ZM64.2576 154V153.105L67.6184 149.426C68.0128 148.995 68.3376 148.621 68.5928 148.303C68.848 147.981 69.0369 147.679 69.1596 147.398C69.2855 147.113 69.3485 146.814 69.3485 146.503C69.3485 146.145 69.2623 145.835 69.09 145.573C68.9209 145.311 68.6889 145.109 68.394 144.967C68.099 144.824 67.7675 144.753 67.3996 144.753C67.0085 144.753 66.6672 144.834 66.3755 144.996C66.0871 145.156 65.8634 145.379 65.7043 145.668C65.5485 145.956 65.4707 146.294 65.4707 146.682H64.2974C64.2974 146.085 64.4349 145.562 64.71 145.111C64.9851 144.66 65.3596 144.309 65.8336 144.057C66.3109 143.805 66.8461 143.679 67.4394 143.679C68.036 143.679 68.5646 143.805 69.0253 144.057C69.486 144.309 69.8473 144.648 70.1092 145.076C70.371 145.504 70.5019 145.979 70.5019 146.503C70.5019 146.877 70.434 147.244 70.2981 147.602C70.1655 147.956 69.9335 148.352 69.6021 148.79C69.2739 149.224 68.8182 149.754 68.2349 150.381L65.9479 152.827V152.906H70.6809V154H64.2576Z" fill="#333333"/>
<rect x="22.3335" y="137" width="78" height="54" rx="7" stroke="#1F1F1F" stroke-width="2"/>
<rect x="118.333" y="65" width="78" height="54" rx="7" fill="white"/>
<path d="M133.162 82V71.8182H134.335V75.5767H134.435C134.521 75.4441 134.64 75.2751 134.793 75.0696C134.949 74.8608 135.171 74.6752 135.459 74.5128C135.751 74.3471 136.145 74.2642 136.642 74.2642C137.285 74.2642 137.852 74.425 138.343 74.7464C138.833 75.0679 139.216 75.5237 139.491 76.1136C139.766 76.7036 139.904 77.3996 139.904 78.2017C139.904 79.0104 139.766 79.7114 139.491 80.3047C139.216 80.8946 138.835 81.352 138.348 81.6768C137.86 81.9983 137.299 82.1591 136.662 82.1591C136.172 82.1591 135.779 82.0779 135.484 81.9155C135.189 81.7498 134.962 81.5625 134.803 81.3537C134.644 81.1416 134.521 80.9659 134.435 80.8267H134.296V82H133.162ZM134.316 78.1818C134.316 78.7585 134.4 79.2673 134.569 79.7081C134.738 80.1456 134.985 80.4886 135.31 80.7372C135.635 80.9825 136.032 81.1051 136.503 81.1051C136.994 81.1051 137.403 80.9759 137.731 80.7173C138.062 80.4555 138.311 80.1042 138.477 79.6634C138.646 79.2192 138.73 78.7254 138.73 78.1818C138.73 77.6449 138.647 77.161 138.482 76.7301C138.319 76.2959 138.072 75.9529 137.741 75.701C137.413 75.4458 137 75.3182 136.503 75.3182C136.026 75.3182 135.625 75.4392 135.3 75.6811C134.975 75.9197 134.73 76.2545 134.564 76.6854C134.398 77.1129 134.316 77.6117 134.316 78.1818ZM142.872 71.8182V82H141.698V71.8182H142.872ZM149.833 78.8778V74.3636H151.006V82H149.833V80.7074H149.754C149.575 81.0952 149.296 81.425 148.918 81.6967C148.541 81.9652 148.063 82.0994 147.487 82.0994C147.009 82.0994 146.585 81.995 146.214 81.7862C145.843 81.5741 145.551 81.2559 145.339 80.8317C145.127 80.4041 145.021 79.8655 145.021 79.2159V74.3636H146.194V79.1364C146.194 79.6932 146.35 80.1373 146.661 80.4688C146.976 80.8002 147.377 80.9659 147.864 80.9659C148.156 80.9659 148.453 80.8913 148.754 80.7422C149.059 80.593 149.314 80.3643 149.52 80.0561C149.729 79.7479 149.833 79.3551 149.833 78.8778ZM156.357 82.1591C155.621 82.1591 154.987 81.9967 154.453 81.6719C153.923 81.3438 153.513 80.8864 153.225 80.2997C152.94 79.7098 152.797 79.0237 152.797 78.2415C152.797 77.4593 152.94 76.7699 153.225 76.1733C153.513 75.5734 153.914 75.1061 154.428 74.7713C154.945 74.4332 155.548 74.2642 156.238 74.2642C156.636 74.2642 157.028 74.3305 157.416 74.4631C157.804 74.5956 158.157 74.8111 158.475 75.1094C158.793 75.4044 159.047 75.7955 159.236 76.2827C159.425 76.7699 159.519 77.3698 159.519 78.0824V78.5795H153.633V77.5653H158.326C158.326 77.1345 158.24 76.75 158.067 76.4119C157.898 76.0739 157.656 75.8071 157.341 75.6115C157.03 75.416 156.662 75.3182 156.238 75.3182C155.77 75.3182 155.366 75.4342 155.025 75.6662C154.687 75.8949 154.426 76.1932 154.244 76.5611C154.062 76.929 153.971 77.3234 153.971 77.7443V78.4205C153.971 78.9972 154.07 79.486 154.269 79.8871C154.471 80.2848 154.751 80.5881 155.109 80.7969C155.467 81.0024 155.883 81.1051 156.357 81.1051C156.665 81.1051 156.944 81.062 157.192 80.9759C157.444 80.8864 157.661 80.7538 157.844 80.5781C158.026 80.3991 158.167 80.1771 158.266 79.9119L159.4 80.2301C159.28 80.6146 159.08 80.9527 158.798 81.2443C158.516 81.5327 158.168 81.758 157.754 81.9205C157.34 82.0795 156.874 82.1591 156.357 82.1591ZM164.864 71.8182V82H163.631V73.1108H163.571L161.085 74.7614V73.5085L163.631 71.8182H164.864Z" fill="#333333"/>
<rect x="118.333" y="65" width="78" height="54" rx="7" stroke="#0F67F5" stroke-width="2"/>
<rect x="118.333" y="137" width="78" height="54" rx="7" fill="#F3F8FF"/>
<path d="M132.178 154V143.818H133.351V147.577H133.451C133.537 147.444 133.656 147.275 133.808 147.07C133.964 146.861 134.186 146.675 134.475 146.513C134.766 146.347 135.161 146.264 135.658 146.264C136.301 146.264 136.868 146.425 137.358 146.746C137.849 147.068 138.232 147.524 138.507 148.114C138.782 148.704 138.919 149.4 138.919 150.202C138.919 151.01 138.782 151.711 138.507 152.305C138.232 152.895 137.85 153.352 137.363 153.677C136.876 153.998 136.314 154.159 135.678 154.159C135.187 154.159 134.794 154.078 134.5 153.915C134.205 153.75 133.977 153.562 133.818 153.354C133.659 153.142 133.537 152.966 133.451 152.827H133.311V154H132.178ZM133.331 150.182C133.331 150.759 133.416 151.267 133.585 151.708C133.754 152.146 134.001 152.489 134.326 152.737C134.65 152.982 135.048 153.105 135.519 153.105C136.009 153.105 136.419 152.976 136.747 152.717C137.078 152.455 137.327 152.104 137.492 151.663C137.661 151.219 137.746 150.725 137.746 150.182C137.746 149.645 137.663 149.161 137.497 148.73C137.335 148.296 137.088 147.953 136.757 147.701C136.428 147.446 136.016 147.318 135.519 147.318C135.041 147.318 134.64 147.439 134.316 147.681C133.991 147.92 133.745 148.254 133.58 148.685C133.414 149.113 133.331 149.612 133.331 150.182ZM141.887 143.818V154H140.714V143.818H141.887ZM148.849 150.878V146.364H150.022V154H148.849V152.707H148.769C148.59 153.095 148.312 153.425 147.934 153.697C147.556 153.965 147.079 154.099 146.502 154.099C146.025 154.099 145.601 153.995 145.229 153.786C144.858 153.574 144.567 153.256 144.354 152.832C144.142 152.404 144.036 151.866 144.036 151.216V146.364H145.21V151.136C145.21 151.693 145.365 152.137 145.677 152.469C145.992 152.8 146.393 152.966 146.88 152.966C147.172 152.966 147.468 152.891 147.77 152.742C148.075 152.593 148.33 152.364 148.536 152.056C148.744 151.748 148.849 151.355 148.849 150.878ZM155.373 154.159C154.637 154.159 154.002 153.997 153.469 153.672C152.938 153.344 152.529 152.886 152.241 152.3C151.956 151.71 151.813 151.024 151.813 150.241C151.813 149.459 151.956 148.77 152.241 148.173C152.529 147.573 152.93 147.106 153.444 146.771C153.961 146.433 154.564 146.264 155.253 146.264C155.651 146.264 156.044 146.33 156.432 146.463C156.819 146.596 157.172 146.811 157.491 147.109C157.809 147.404 158.062 147.795 158.251 148.283C158.44 148.77 158.535 149.37 158.535 150.082V150.58H152.648V149.565H157.341C157.341 149.134 157.255 148.75 157.083 148.412C156.914 148.074 156.672 147.807 156.357 147.612C156.046 147.416 155.678 147.318 155.253 147.318C154.786 147.318 154.382 147.434 154.04 147.666C153.702 147.895 153.442 148.193 153.26 148.561C153.078 148.929 152.986 149.323 152.986 149.744V150.42C152.986 150.997 153.086 151.486 153.285 151.887C153.487 152.285 153.767 152.588 154.125 152.797C154.483 153.002 154.899 153.105 155.373 153.105C155.681 153.105 155.959 153.062 156.208 152.976C156.46 152.886 156.677 152.754 156.859 152.578C157.042 152.399 157.182 152.177 157.282 151.912L158.415 152.23C158.296 152.615 158.096 152.953 157.814 153.244C157.532 153.533 157.184 153.758 156.77 153.92C156.355 154.08 155.89 154.159 155.373 154.159ZM160.3 154V153.105L163.66 149.426C164.055 148.995 164.38 148.621 164.635 148.303C164.89 147.981 165.079 147.679 165.202 147.398C165.328 147.113 165.39 146.814 165.39 146.503C165.39 146.145 165.304 145.835 165.132 145.573C164.963 145.311 164.731 145.109 164.436 144.967C164.141 144.824 163.81 144.753 163.442 144.753C163.051 144.753 162.709 144.834 162.417 144.996C162.129 145.156 161.905 145.379 161.746 145.668C161.591 145.956 161.513 146.294 161.513 146.682H160.339C160.339 146.085 160.477 145.562 160.752 145.111C161.027 144.66 161.402 144.309 161.876 144.057C162.353 143.805 162.888 143.679 163.481 143.679C164.078 143.679 164.607 143.805 165.067 144.057C165.528 144.309 165.889 144.648 166.151 145.076C166.413 145.504 166.544 145.979 166.544 146.503C166.544 146.877 166.476 147.244 166.34 147.602C166.207 147.956 165.975 148.352 165.644 148.79C165.316 149.224 164.86 149.754 164.277 150.381L161.99 152.827V152.906H166.723V154H160.3Z" fill="#333333"/>
<rect x="118.333" y="137" width="78" height="54" rx="7" stroke="#184BC8" stroke-width="2"/>
<rect width="218.667" height="216" transform="translate(226.667)" fill="#F6F6F6"/>
<path d="M312.651 26.6172C312.605 26.183 312.409 25.8449 312.064 25.603C311.723 25.361 311.279 25.2401 310.732 25.2401C310.347 25.2401 310.018 25.2981 309.743 25.4141C309.467 25.5301 309.257 25.6875 309.111 25.8864C308.965 26.0852 308.891 26.3123 308.887 26.5675C308.887 26.7796 308.935 26.9635 309.032 27.1193C309.131 27.2751 309.265 27.4077 309.434 27.517C309.603 27.6231 309.791 27.7126 309.996 27.7855C310.202 27.8584 310.409 27.9197 310.618 27.9695L311.572 28.2081C311.957 28.2976 312.326 28.4186 312.681 28.571C313.039 28.7235 313.359 28.9157 313.64 29.1477C313.925 29.3797 314.151 29.6598 314.316 29.9879C314.482 30.3161 314.565 30.7005 314.565 31.1413C314.565 31.7379 314.413 32.2633 314.108 32.7173C313.803 33.1681 313.362 33.5211 312.785 33.7763C312.212 34.0282 311.517 34.1541 310.702 34.1541C309.91 34.1541 309.222 34.0315 308.639 33.7862C308.059 33.541 307.605 33.183 307.277 32.7124C306.952 32.2417 306.776 31.6683 306.75 30.9922H308.564C308.591 31.3468 308.7 31.6418 308.892 31.8771C309.085 32.1125 309.335 32.2881 309.643 32.4041C309.955 32.5201 310.303 32.5781 310.687 32.5781C311.088 32.5781 311.44 32.5185 311.741 32.3991C312.046 32.2765 312.285 32.1075 312.457 31.892C312.629 31.6733 312.717 31.4181 312.721 31.1264C312.717 30.8613 312.639 30.6425 312.487 30.4702C312.334 30.2945 312.121 30.1487 311.846 30.0327C311.574 29.9134 311.256 29.8073 310.891 29.7145L309.733 29.4162C308.894 29.2008 308.231 28.8743 307.744 28.4368C307.26 27.996 307.018 27.411 307.018 26.6818C307.018 26.0819 307.181 25.5566 307.505 25.1058C307.833 24.6551 308.279 24.3054 308.843 24.0568C309.406 23.8049 310.044 23.679 310.757 23.679C311.479 23.679 312.112 23.8049 312.656 24.0568C313.203 24.3054 313.632 24.6518 313.944 25.0959C314.255 25.5367 314.416 26.0438 314.426 26.6172H312.651ZM319.51 34.1491C318.745 34.1491 318.084 33.9901 317.527 33.6719C316.973 33.3504 316.547 32.8963 316.249 32.3097C315.951 31.7197 315.802 31.0253 315.802 30.2266C315.802 29.4411 315.951 28.7517 316.249 28.1584C316.551 27.5618 316.972 27.0978 317.512 26.7663C318.052 26.4316 318.687 26.2642 319.416 26.2642C319.887 26.2642 320.331 26.3404 320.748 26.4929C321.169 26.642 321.541 26.8741 321.862 27.1889C322.187 27.5038 322.442 27.9048 322.628 28.392C322.813 28.8759 322.906 29.4527 322.906 30.1222V30.674H316.647V29.4609H321.181C321.178 29.1162 321.103 28.8097 320.957 28.5412C320.811 28.2694 320.608 28.0556 320.346 27.8999C320.087 27.7441 319.786 27.6662 319.441 27.6662C319.073 27.6662 318.75 27.7557 318.471 27.9347C318.193 28.1103 317.976 28.3423 317.82 28.6307C317.668 28.9157 317.59 29.2289 317.586 29.5703V30.6293C317.586 31.0734 317.668 31.4545 317.83 31.7727C317.992 32.0876 318.22 32.3295 318.511 32.4986C318.803 32.6643 319.144 32.7472 319.535 32.7472C319.797 32.7472 320.034 32.7107 320.246 32.6378C320.458 32.5616 320.642 32.4505 320.798 32.3047C320.954 32.1589 321.072 31.9782 321.151 31.7628L322.831 31.9517C322.725 32.3958 322.523 32.7836 322.225 33.1151C321.93 33.4432 321.552 33.6984 321.091 33.8807C320.631 34.0597 320.104 34.1491 319.51 34.1491ZM326.228 23.8182V34H324.429V23.8182H326.228ZM331.46 34.1491C330.694 34.1491 330.033 33.9901 329.476 33.6719C328.923 33.3504 328.497 32.8963 328.198 32.3097C327.9 31.7197 327.751 31.0253 327.751 30.2266C327.751 29.4411 327.9 28.7517 328.198 28.1584C328.5 27.5618 328.921 27.0978 329.461 26.7663C330.001 26.4316 330.636 26.2642 331.365 26.2642C331.836 26.2642 332.28 26.3404 332.698 26.4929C333.119 26.642 333.49 26.8741 333.811 27.1889C334.136 27.5038 334.391 27.9048 334.577 28.392C334.762 28.8759 334.855 29.4527 334.855 30.1222V30.674H328.596V29.4609H333.13C333.127 29.1162 333.052 28.8097 332.906 28.5412C332.761 28.2694 332.557 28.0556 332.295 27.8999C332.036 27.7441 331.735 27.6662 331.39 27.6662C331.022 27.6662 330.699 27.7557 330.421 27.9347C330.142 28.1103 329.925 28.3423 329.769 28.6307C329.617 28.9157 329.539 29.2289 329.536 29.5703V30.6293C329.536 31.0734 329.617 31.4545 329.779 31.7727C329.942 32.0876 330.169 32.3295 330.46 32.4986C330.752 32.6643 331.093 32.7472 331.485 32.7472C331.746 32.7472 331.983 32.7107 332.195 32.6378C332.408 32.5616 332.592 32.4505 332.747 32.3047C332.903 32.1589 333.021 31.9782 333.1 31.7628L334.781 31.9517C334.675 32.3958 334.472 32.7836 334.174 33.1151C333.879 33.4432 333.501 33.6984 333.041 33.8807C332.58 34.0597 332.053 34.1491 331.46 34.1491ZM339.709 34.1491C338.946 34.1491 338.292 33.9818 337.745 33.647C337.201 33.3123 336.782 32.8499 336.487 32.2599C336.196 31.6667 336.05 30.9839 336.05 30.2116C336.05 29.4361 336.199 28.7517 336.497 28.1584C336.795 27.5618 337.216 27.0978 337.76 26.7663C338.307 26.4316 338.953 26.2642 339.699 26.2642C340.319 26.2642 340.867 26.3786 341.344 26.6072C341.825 26.8326 342.208 27.1525 342.493 27.5668C342.778 27.9777 342.94 28.4583 342.98 29.0085H341.26C341.19 28.6406 341.025 28.334 340.763 28.0888C340.504 27.8402 340.158 27.7159 339.724 27.7159C339.356 27.7159 339.033 27.8153 338.754 28.0142C338.476 28.2098 338.259 28.4915 338.103 28.8594C337.951 29.2273 337.874 29.6681 337.874 30.1818C337.874 30.7022 337.951 31.1496 338.103 31.5241C338.255 31.8954 338.469 32.1821 338.744 32.3842C339.023 32.5831 339.349 32.6825 339.724 32.6825C339.989 32.6825 340.226 32.6328 340.435 32.5334C340.647 32.4306 340.824 32.2831 340.967 32.0909C341.109 31.8987 341.207 31.665 341.26 31.3899H342.98C342.937 31.9302 342.778 32.4091 342.503 32.8267C342.228 33.241 341.853 33.5658 341.379 33.8011C340.905 34.0331 340.348 34.1491 339.709 34.1491ZM348.271 26.3636V27.7557H343.881V26.3636H348.271ZM344.965 24.5341H346.765V31.7031C346.765 31.9451 346.801 32.1307 346.874 32.2599C346.95 32.3859 347.05 32.4721 347.172 32.5185C347.295 32.5649 347.431 32.5881 347.58 32.5881C347.693 32.5881 347.796 32.5798 347.888 32.5632C347.984 32.5466 348.057 32.5317 348.107 32.5185L348.41 33.9254C348.314 33.9586 348.177 33.995 347.998 34.0348C347.822 34.0746 347.607 34.0978 347.351 34.1044C346.901 34.1177 346.495 34.0497 346.133 33.9006C345.772 33.7481 345.485 33.5128 345.273 33.1946C345.064 32.8764 344.962 32.4787 344.965 32.0014V24.5341ZM353.075 34.1491C352.309 34.1491 351.648 33.9901 351.091 33.6719C350.538 33.3504 350.112 32.8963 349.814 32.3097C349.515 31.7197 349.366 31.0253 349.366 30.2266C349.366 29.4411 349.515 28.7517 349.814 28.1584C350.115 27.5618 350.536 27.0978 351.076 26.7663C351.617 26.4316 352.251 26.2642 352.98 26.2642C353.451 26.2642 353.895 26.3404 354.313 26.4929C354.734 26.642 355.105 26.8741 355.426 27.1889C355.751 27.5038 356.007 27.9048 356.192 28.392C356.378 28.8759 356.471 29.4527 356.471 30.1222V30.674H350.211V29.4609H354.745C354.742 29.1162 354.667 28.8097 354.522 28.5412C354.376 28.2694 354.172 28.0556 353.91 27.8999C353.652 27.7441 353.35 27.6662 353.005 27.6662C352.637 27.6662 352.314 27.7557 352.036 27.9347C351.757 28.1103 351.54 28.3423 351.385 28.6307C351.232 28.9157 351.154 29.2289 351.151 29.5703V30.6293C351.151 31.0734 351.232 31.4545 351.395 31.7727C351.557 32.0876 351.784 32.3295 352.076 32.4986C352.367 32.6643 352.709 32.7472 353.1 32.7472C353.362 32.7472 353.599 32.7107 353.811 32.6378C354.023 32.5616 354.207 32.4505 354.363 32.3047C354.518 32.1589 354.636 31.9782 354.716 31.7628L356.396 31.9517C356.29 32.3958 356.088 32.7836 355.789 33.1151C355.494 33.4432 355.117 33.6984 354.656 33.8807C354.195 34.0597 353.668 34.1491 353.075 34.1491ZM360.827 34.1342C360.227 34.1342 359.69 33.9801 359.216 33.6719C358.742 33.3636 358.368 32.9162 358.093 32.3295C357.817 31.7429 357.68 31.0303 357.68 30.1918C357.68 29.3433 357.819 28.6274 358.097 28.044C358.379 27.4574 358.759 27.0149 359.236 26.7166C359.713 26.415 360.245 26.2642 360.832 26.2642C361.279 26.2642 361.647 26.3404 361.936 26.4929C362.224 26.642 362.453 26.8227 362.622 27.0348C362.791 27.2436 362.922 27.4408 363.014 27.6264H363.089V23.8182H364.894V34H363.124V32.7969H363.014C362.922 32.9825 362.787 33.1797 362.612 33.3885C362.436 33.594 362.204 33.7696 361.916 33.9155C361.627 34.0613 361.264 34.1342 360.827 34.1342ZM361.329 32.6577C361.71 32.6577 362.035 32.5549 362.303 32.3494C362.572 32.1406 362.776 31.8506 362.915 31.4794C363.054 31.1082 363.124 30.6757 363.124 30.1818C363.124 29.688 363.054 29.2588 362.915 28.8942C362.779 28.5296 362.577 28.2462 362.308 28.044C362.043 27.8419 361.717 27.7408 361.329 27.7408C360.928 27.7408 360.593 27.8452 360.325 28.054C360.056 28.2628 359.854 28.5511 359.718 28.919C359.582 29.2869 359.514 29.7079 359.514 30.1818C359.514 30.6591 359.582 31.085 359.718 31.4595C359.857 31.8307 360.061 32.1241 360.33 32.3395C360.602 32.5516 360.935 32.6577 361.329 32.6577ZM312.46 56H311.168L314.906 45.8182H316.179L319.918 56H318.625L315.582 47.429H315.503L312.46 56ZM312.937 52.0227H318.148V53.1165H312.937V52.0227ZM324.447 56.1591C323.731 56.1591 323.114 55.9901 322.597 55.652C322.08 55.3139 321.682 54.8482 321.404 54.255C321.126 53.6617 320.986 52.9839 320.986 52.2216C320.986 51.446 321.129 50.7616 321.414 50.1683C321.702 49.5717 322.103 49.1061 322.617 48.7713C323.134 48.4332 323.737 48.2642 324.427 48.2642C324.964 48.2642 325.448 48.3636 325.878 48.5625C326.309 48.7614 326.662 49.0398 326.937 49.3977C327.213 49.7557 327.383 50.1733 327.449 50.6506H326.276C326.187 50.3026 325.988 49.9943 325.68 49.7259C325.375 49.4541 324.964 49.3182 324.447 49.3182C323.989 49.3182 323.588 49.4375 323.244 49.6761C322.902 49.9115 322.635 50.2446 322.443 50.6754C322.254 51.103 322.16 51.6051 322.16 52.1818C322.16 52.7718 322.253 53.2855 322.438 53.723C322.627 54.1605 322.892 54.5002 323.234 54.7422C323.578 54.9841 323.983 55.1051 324.447 55.1051C324.752 55.1051 325.028 55.0521 325.277 54.946C325.525 54.84 325.736 54.6875 325.908 54.4886C326.081 54.2898 326.203 54.0511 326.276 53.7727H327.449C327.383 54.2235 327.219 54.6295 326.957 54.9908C326.699 55.3487 326.356 55.6338 325.928 55.8459C325.504 56.0547 325.01 56.1591 324.447 56.1591ZM332.267 56.1591C331.551 56.1591 330.935 55.9901 330.418 55.652C329.9 55.3139 329.503 54.8482 329.224 54.255C328.946 53.6617 328.807 52.9839 328.807 52.2216C328.807 51.446 328.949 50.7616 329.234 50.1683C329.523 49.5717 329.924 49.1061 330.437 48.7713C330.954 48.4332 331.558 48.2642 332.247 48.2642C332.784 48.2642 333.268 48.3636 333.699 48.5625C334.13 48.7614 334.483 49.0398 334.758 49.3977C335.033 49.7557 335.204 50.1733 335.27 50.6506H334.097C334.007 50.3026 333.808 49.9943 333.5 49.7259C333.195 49.4541 332.784 49.3182 332.267 49.3182C331.81 49.3182 331.409 49.4375 331.064 49.6761C330.722 49.9115 330.456 50.2446 330.263 50.6754C330.074 51.103 329.98 51.6051 329.98 52.1818C329.98 52.7718 330.073 53.2855 330.258 53.723C330.447 54.1605 330.713 54.5002 331.054 54.7422C331.399 54.9841 331.803 55.1051 332.267 55.1051C332.572 55.1051 332.849 55.0521 333.097 54.946C333.346 54.84 333.556 54.6875 333.729 54.4886C333.901 54.2898 334.024 54.0511 334.097 53.7727H335.27C335.204 54.2235 335.039 54.6295 334.778 54.9908C334.519 55.3487 334.176 55.6338 333.748 55.8459C333.324 56.0547 332.83 56.1591 332.267 56.1591ZM340.187 56.1591C339.451 56.1591 338.816 55.9967 338.283 55.6719C337.752 55.3438 337.343 54.8864 337.055 54.2997C336.77 53.7098 336.627 53.0237 336.627 52.2415C336.627 51.4593 336.77 50.7699 337.055 50.1733C337.343 49.5734 337.744 49.1061 338.258 48.7713C338.775 48.4332 339.378 48.2642 340.067 48.2642C340.465 48.2642 340.858 48.3305 341.246 48.4631C341.633 48.5956 341.986 48.8111 342.305 49.1094C342.623 49.4044 342.876 49.7955 343.065 50.2827C343.254 50.7699 343.349 51.3698 343.349 52.0824V52.5795H337.462V51.5653H342.155C342.155 51.1345 342.069 50.75 341.897 50.4119C341.728 50.0739 341.486 49.8071 341.171 49.6115C340.86 49.416 340.492 49.3182 340.067 49.3182C339.6 49.3182 339.196 49.4342 338.854 49.6662C338.516 49.8949 338.256 50.1932 338.074 50.5611C337.891 50.929 337.8 51.3234 337.8 51.7443V52.4205C337.8 52.9972 337.9 53.486 338.099 53.8871C338.301 54.2848 338.581 54.5881 338.939 54.7969C339.297 55.0024 339.713 55.1051 340.187 55.1051C340.495 55.1051 340.773 55.062 341.022 54.9759C341.274 54.8864 341.491 54.7538 341.673 54.5781C341.855 54.3991 341.996 54.1771 342.096 53.9119L343.229 54.2301C343.11 54.6146 342.909 54.9527 342.628 55.2443C342.346 55.5327 341.998 55.758 341.584 55.9205C341.169 56.0795 340.704 56.1591 340.187 56.1591ZM346.307 51.4062V56H345.133V48.3636H346.267V49.5568H346.366C346.545 49.169 346.817 48.8575 347.182 48.6222C347.546 48.3835 348.017 48.2642 348.594 48.2642C349.111 48.2642 349.563 48.3703 349.951 48.5824C350.339 48.7912 350.64 49.1094 350.856 49.5369C351.071 49.9612 351.179 50.4981 351.179 51.1477V56H350.006V51.2273C350.006 50.6274 349.85 50.16 349.538 49.8253C349.227 49.4872 348.799 49.3182 348.256 49.3182C347.881 49.3182 347.546 49.3994 347.251 49.5618C346.96 49.7242 346.729 49.9612 346.56 50.2727C346.391 50.5843 346.307 50.9621 346.307 51.4062ZM356.644 48.3636V49.358H352.687V48.3636H356.644ZM353.84 46.5341H355.013V53.8125C355.013 54.1439 355.061 54.3925 355.157 54.5582C355.257 54.7206 355.383 54.83 355.535 54.8864C355.691 54.9394 355.855 54.9659 356.027 54.9659C356.157 54.9659 356.263 54.9593 356.346 54.946C356.428 54.9295 356.495 54.9162 356.544 54.9062L356.783 55.9602C356.704 55.9901 356.593 56.0199 356.45 56.0497C356.307 56.0829 356.127 56.0994 355.908 56.0994C355.577 56.0994 355.252 56.0282 354.934 55.8857C354.619 55.7431 354.357 55.526 354.148 55.2344C353.943 54.9427 353.84 54.5748 353.84 54.1307V46.5341ZM359.264 56.0795C359.019 56.0795 358.808 55.9917 358.633 55.8161C358.457 55.6404 358.369 55.4299 358.369 55.1847C358.369 54.9394 358.457 54.7289 358.633 54.5533C358.808 54.3776 359.019 54.2898 359.264 54.2898C359.509 54.2898 359.72 54.3776 359.895 54.5533C360.071 54.7289 360.159 54.9394 360.159 55.1847C360.159 55.3471 360.117 55.4962 360.035 55.6321C359.955 55.768 359.847 55.8774 359.711 55.9602C359.579 56.0398 359.43 56.0795 359.264 56.0795ZM359.264 50.4119C359.019 50.4119 358.808 50.3241 358.633 50.1484C358.457 49.9728 358.369 49.7623 358.369 49.517C358.369 49.2718 358.457 49.0613 358.633 48.8857C358.808 48.71 359.019 48.6222 359.264 48.6222C359.509 48.6222 359.72 48.71 359.895 48.8857C360.071 49.0613 360.159 49.2718 360.159 49.517C360.159 49.6795 360.117 49.8286 360.035 49.9645C359.955 50.1004 359.847 50.2098 359.711 50.2926C359.579 50.3722 359.43 50.4119 359.264 50.4119Z" fill="black"/>
<rect x="249" y="65" width="78" height="54" rx="7" fill="white"/>
<path d="M265.794 85.0227C265.227 85.0227 264.74 84.9498 264.332 84.804C263.925 84.6615 263.585 84.4725 263.313 84.2372C263.045 84.0052 262.831 83.7566 262.672 83.4915L263.606 82.8352C263.713 82.9744 263.847 83.1335 264.009 83.3125C264.172 83.4948 264.394 83.6522 264.675 83.7848C264.96 83.9207 265.333 83.9886 265.794 83.9886C266.41 83.9886 266.919 83.8395 267.32 83.5412C267.721 83.2429 267.922 82.7756 267.922 82.1392V80.5881H267.822C267.736 80.7273 267.614 80.8996 267.454 81.1051C267.299 81.3073 267.073 81.4879 266.778 81.647C266.487 81.8028 266.092 81.8807 265.595 81.8807C264.979 81.8807 264.425 81.7348 263.935 81.4432C263.447 81.1515 263.061 80.7273 262.776 80.1705C262.494 79.6136 262.354 78.9375 262.354 78.142C262.354 77.3598 262.491 76.6787 262.766 76.0987C263.041 75.5154 263.424 75.0646 263.915 74.7464C264.405 74.425 264.972 74.2642 265.615 74.2642C266.112 74.2642 266.507 74.3471 266.798 74.5128C267.093 74.6752 267.319 74.8608 267.474 75.0696C267.633 75.2751 267.756 75.4441 267.842 75.5767H267.962V74.3636H269.095V82.2188C269.095 82.875 268.946 83.4086 268.648 83.8196C268.353 84.2339 267.955 84.5372 267.454 84.7294C266.957 84.925 266.404 85.0227 265.794 85.0227ZM265.754 80.8267C266.225 80.8267 266.623 80.719 266.947 80.5036C267.272 80.2881 267.519 79.9782 267.688 79.5739C267.857 79.1695 267.942 78.6856 267.942 78.1222C267.942 77.572 267.859 77.0864 267.693 76.6655C267.527 76.2446 267.282 75.9148 266.957 75.6761C266.632 75.4375 266.231 75.3182 265.754 75.3182C265.257 75.3182 264.843 75.4441 264.511 75.696C264.183 75.9479 263.936 76.286 263.771 76.7102C263.608 77.1345 263.527 77.6051 263.527 78.1222C263.527 78.6525 263.61 79.1214 263.775 79.5291C263.945 79.9335 264.193 80.2517 264.521 80.4837C264.853 80.7124 265.264 80.8267 265.754 80.8267ZM271.243 82V74.3636H272.376V75.517H272.456C272.595 75.1392 272.847 74.8326 273.212 74.5973C273.576 74.362 273.987 74.2443 274.445 74.2443C274.531 74.2443 274.638 74.246 274.768 74.2493C274.897 74.2526 274.995 74.2576 275.061 74.2642V75.4574C275.021 75.4474 274.93 75.4325 274.788 75.4126C274.648 75.3894 274.501 75.3778 274.345 75.3778C273.974 75.3778 273.642 75.4557 273.351 75.6115C273.062 75.764 272.834 75.9761 272.665 76.2479C272.499 76.5163 272.416 76.8229 272.416 77.1676V82H271.243ZM279.421 82.1591C278.685 82.1591 278.051 81.9967 277.517 81.6719C276.987 81.3438 276.577 80.8864 276.289 80.2997C276.004 79.7098 275.861 79.0237 275.861 78.2415C275.861 77.4593 276.004 76.7699 276.289 76.1733C276.577 75.5734 276.978 75.1061 277.492 74.7713C278.009 74.4332 278.612 74.2642 279.302 74.2642C279.699 74.2642 280.092 74.3305 280.48 74.4631C280.868 74.5956 281.221 74.8111 281.539 75.1094C281.857 75.4044 282.111 75.7955 282.3 76.2827C282.489 76.7699 282.583 77.3698 282.583 78.0824V78.5795H276.697V77.5653H281.39C281.39 77.1345 281.304 76.75 281.131 76.4119C280.962 76.0739 280.72 75.8071 280.405 75.6115C280.094 75.416 279.726 75.3182 279.302 75.3182C278.834 75.3182 278.43 75.4342 278.089 75.6662C277.751 75.8949 277.49 76.1932 277.308 76.5611C277.126 76.929 277.035 77.3234 277.035 77.7443V78.4205C277.035 78.9972 277.134 79.486 277.333 79.8871C277.535 80.2848 277.815 80.5881 278.173 80.7969C278.531 81.0024 278.947 81.1051 279.421 81.1051C279.729 81.1051 280.008 81.062 280.256 80.9759C280.508 80.8864 280.725 80.7538 280.908 80.5781C281.09 80.3991 281.231 80.1771 281.33 79.9119L282.464 80.2301C282.344 80.6146 282.144 80.9527 281.862 81.2443C281.58 81.5327 281.232 81.758 280.818 81.9205C280.404 82.0795 279.938 82.1591 279.421 82.1591ZM284.891 84.8636C284.692 84.8636 284.515 84.8471 284.359 84.8139C284.203 84.7841 284.096 84.7543 284.036 84.7244L284.334 83.6903C284.619 83.7633 284.871 83.7898 285.09 83.7699C285.309 83.75 285.503 83.6522 285.672 83.4766C285.844 83.3042 286.001 83.0241 286.144 82.6364L286.363 82.0398L283.539 74.3636H284.812L286.919 80.4489H286.999L289.107 74.3636H290.38L287.138 83.1136C286.992 83.508 286.812 83.8345 286.596 84.093C286.381 84.3549 286.131 84.5488 285.846 84.6747C285.564 84.8007 285.246 84.8636 284.891 84.8636ZM295.488 71.8182V82H294.255V73.1108H294.195L291.71 74.7614V73.5085L294.255 71.8182H295.488Z" fill="#333333"/>
<rect x="249" y="65" width="78" height="54" rx="7" stroke="#333333" stroke-width="2"/>
<rect x="249" y="137" width="78" height="54" rx="7" fill="#F6F6F6"/>
<path d="M264.81 157.023C264.243 157.023 263.756 156.95 263.348 156.804C262.94 156.661 262.601 156.473 262.329 156.237C262.06 156.005 261.847 155.757 261.687 155.491L262.622 154.835C262.728 154.974 262.862 155.134 263.025 155.312C263.187 155.495 263.409 155.652 263.691 155.785C263.976 155.921 264.349 155.989 264.81 155.989C265.426 155.989 265.935 155.839 266.336 155.541C266.737 155.243 266.937 154.776 266.937 154.139V152.588H266.838C266.752 152.727 266.629 152.9 266.47 153.105C266.314 153.307 266.089 153.488 265.794 153.647C265.502 153.803 265.108 153.881 264.611 153.881C263.994 153.881 263.441 153.735 262.95 153.443C262.463 153.152 262.077 152.727 261.792 152.17C261.51 151.614 261.369 150.937 261.369 150.142C261.369 149.36 261.507 148.679 261.782 148.099C262.057 147.515 262.44 147.065 262.93 146.746C263.421 146.425 263.988 146.264 264.631 146.264C265.128 146.264 265.522 146.347 265.814 146.513C266.109 146.675 266.334 146.861 266.49 147.07C266.649 147.275 266.772 147.444 266.858 147.577H266.977V146.364H268.111V154.219C268.111 154.875 267.962 155.409 267.663 155.82C267.368 156.234 266.971 156.537 266.47 156.729C265.973 156.925 265.419 157.023 264.81 157.023ZM264.77 152.827C265.24 152.827 265.638 152.719 265.963 152.504C266.288 152.288 266.535 151.978 266.704 151.574C266.873 151.17 266.957 150.686 266.957 150.122C266.957 149.572 266.874 149.086 266.709 148.665C266.543 148.245 266.298 147.915 265.973 147.676C265.648 147.437 265.247 147.318 264.77 147.318C264.273 147.318 263.858 147.444 263.527 147.696C263.199 147.948 262.952 148.286 262.786 148.71C262.624 149.134 262.543 149.605 262.543 150.122C262.543 150.652 262.625 151.121 262.791 151.529C262.96 151.933 263.209 152.252 263.537 152.484C263.868 152.712 264.279 152.827 264.77 152.827ZM270.258 154V146.364H271.392V147.517H271.472C271.611 147.139 271.863 146.833 272.227 146.597C272.592 146.362 273.003 146.244 273.46 146.244C273.546 146.244 273.654 146.246 273.783 146.249C273.913 146.253 274.01 146.258 274.077 146.264V147.457C274.037 147.447 273.946 147.433 273.803 147.413C273.664 147.389 273.516 147.378 273.361 147.378C272.989 147.378 272.658 147.456 272.366 147.612C272.078 147.764 271.849 147.976 271.68 148.248C271.515 148.516 271.432 148.823 271.432 149.168V154H270.258ZM278.437 154.159C277.701 154.159 277.066 153.997 276.533 153.672C276.002 153.344 275.593 152.886 275.305 152.3C275.02 151.71 274.877 151.024 274.877 150.241C274.877 149.459 275.02 148.77 275.305 148.173C275.593 147.573 275.994 147.106 276.508 146.771C277.025 146.433 277.628 146.264 278.317 146.264C278.715 146.264 279.108 146.33 279.496 146.463C279.883 146.596 280.236 146.811 280.555 147.109C280.873 147.404 281.126 147.795 281.315 148.283C281.504 148.77 281.599 149.37 281.599 150.082V150.58H275.712V149.565H280.405C280.405 149.134 280.319 148.75 280.147 148.412C279.978 148.074 279.736 147.807 279.421 147.612C279.11 147.416 278.742 147.318 278.317 147.318C277.85 147.318 277.446 147.434 277.104 147.666C276.766 147.895 276.506 148.193 276.324 148.561C276.141 148.929 276.05 149.323 276.05 149.744V150.42C276.05 150.997 276.15 151.486 276.349 151.887C276.551 152.285 276.831 152.588 277.189 152.797C277.547 153.002 277.963 153.105 278.437 153.105C278.745 153.105 279.023 153.062 279.272 152.976C279.524 152.886 279.741 152.754 279.923 152.578C280.105 152.399 280.246 152.177 280.346 151.912L281.479 152.23C281.36 152.615 281.159 152.953 280.878 153.244C280.596 153.533 280.248 153.758 279.834 153.92C279.419 154.08 278.954 154.159 278.437 154.159ZM283.907 156.864C283.708 156.864 283.531 156.847 283.375 156.814C283.219 156.784 283.111 156.754 283.052 156.724L283.35 155.69C283.635 155.763 283.887 155.79 284.106 155.77C284.324 155.75 284.518 155.652 284.687 155.477C284.86 155.304 285.017 155.024 285.16 154.636L285.378 154.04L282.554 146.364H283.827L285.935 152.449H286.015L288.123 146.364H289.395L286.154 155.114C286.008 155.508 285.827 155.835 285.612 156.093C285.397 156.355 285.146 156.549 284.861 156.675C284.58 156.801 284.261 156.864 283.907 156.864ZM290.924 154V153.105L294.285 149.426C294.679 148.995 295.004 148.621 295.259 148.303C295.515 147.981 295.703 147.679 295.826 147.398C295.952 147.113 296.015 146.814 296.015 146.503C296.015 146.145 295.929 145.835 295.756 145.573C295.587 145.311 295.355 145.109 295.06 144.967C294.765 144.824 294.434 144.753 294.066 144.753C293.675 144.753 293.334 144.834 293.042 144.996C292.754 145.156 292.53 145.379 292.371 145.668C292.215 145.956 292.137 146.294 292.137 146.682H290.964C290.964 146.085 291.101 145.562 291.377 145.111C291.652 144.66 292.026 144.309 292.5 144.057C292.977 143.805 293.513 143.679 294.106 143.679C294.703 143.679 295.231 143.805 295.692 144.057C296.153 144.309 296.514 144.648 296.776 145.076C297.037 145.504 297.168 145.979 297.168 146.503C297.168 146.877 297.1 147.244 296.965 147.602C296.832 147.956 296.6 148.352 296.269 148.79C295.94 149.224 295.485 149.754 294.901 150.381L292.614 152.827V152.906H297.347V154H290.924Z" fill="#333333"/>
<rect x="249" y="137" width="78" height="54" rx="7" stroke="#1F1F1F" stroke-width="2"/>
<rect x="345" y="65" width="78" height="54" rx="7" fill="white"/>
<path d="M359.829 82V71.8182H361.002V75.5767H361.101C361.188 75.4441 361.307 75.2751 361.459 75.0696C361.615 74.8608 361.837 74.6752 362.126 74.5128C362.417 74.3471 362.812 74.2642 363.309 74.2642C363.952 74.2642 364.519 74.425 365.009 74.7464C365.5 75.0679 365.882 75.5237 366.157 76.1136C366.433 76.7036 366.57 77.3996 366.57 78.2017C366.57 79.0104 366.433 79.7114 366.157 80.3047C365.882 80.8946 365.501 81.352 365.014 81.6768C364.527 81.9983 363.965 82.1591 363.329 82.1591C362.838 82.1591 362.445 82.0779 362.15 81.9155C361.855 81.7498 361.628 81.5625 361.469 81.3537C361.31 81.1416 361.188 80.9659 361.101 80.8267H360.962V82H359.829ZM360.982 78.1818C360.982 78.7585 361.067 79.2673 361.236 79.7081C361.405 80.1456 361.652 80.4886 361.976 80.7372C362.301 80.9825 362.699 81.1051 363.17 81.1051C363.66 81.1051 364.069 80.9759 364.398 80.7173C364.729 80.4555 364.978 80.1042 365.143 79.6634C365.312 79.2192 365.397 78.7254 365.397 78.1818C365.397 77.6449 365.314 77.161 365.148 76.7301C364.986 76.2959 364.739 75.9529 364.407 75.701C364.079 75.4458 363.667 75.3182 363.17 75.3182C362.692 75.3182 362.291 75.4392 361.966 75.6811C361.642 75.9197 361.396 76.2545 361.231 76.6854C361.065 77.1129 360.982 77.6117 360.982 78.1818ZM369.538 71.8182V82H368.365V71.8182H369.538ZM376.5 78.8778V74.3636H377.673V82H376.5V80.7074H376.42C376.241 81.0952 375.963 81.425 375.585 81.6967C375.207 81.9652 374.73 82.0994 374.153 82.0994C373.676 82.0994 373.252 81.995 372.88 81.7862C372.509 81.5741 372.217 81.2559 372.005 80.8317C371.793 80.4041 371.687 79.8655 371.687 79.2159V74.3636H372.86V79.1364C372.86 79.6932 373.016 80.1373 373.328 80.4688C373.643 80.8002 374.044 80.9659 374.531 80.9659C374.823 80.9659 375.119 80.8913 375.421 80.7422C375.726 80.593 375.981 80.3643 376.186 80.0561C376.395 79.7479 376.5 79.3551 376.5 78.8778ZM383.024 82.1591C382.288 82.1591 381.653 81.9967 381.119 81.6719C380.589 81.3438 380.18 80.8864 379.892 80.2997C379.606 79.7098 379.464 79.0237 379.464 78.2415C379.464 77.4593 379.606 76.7699 379.892 76.1733C380.18 75.5734 380.581 75.1061 381.095 74.7713C381.612 74.4332 382.215 74.2642 382.904 74.2642C383.302 74.2642 383.695 74.3305 384.083 74.4631C384.47 74.5956 384.823 74.8111 385.142 75.1094C385.46 75.4044 385.713 75.7955 385.902 76.2827C386.091 76.7699 386.186 77.3698 386.186 78.0824V78.5795H380.299V77.5653H384.992C384.992 77.1345 384.906 76.75 384.734 76.4119C384.565 76.0739 384.323 75.8071 384.008 75.6115C383.696 75.416 383.329 75.3182 382.904 75.3182C382.437 75.3182 382.033 75.4342 381.691 75.6662C381.353 75.8949 381.093 76.1932 380.911 76.5611C380.728 76.929 380.637 77.3234 380.637 77.7443V78.4205C380.637 78.9972 380.737 79.486 380.936 79.8871C381.138 80.2848 381.418 80.5881 381.776 80.7969C382.134 81.0024 382.55 81.1051 383.024 81.1051C383.332 81.1051 383.61 81.062 383.859 80.9759C384.111 80.8864 384.328 80.7538 384.51 80.5781C384.692 80.3991 384.833 80.1771 384.933 79.9119L386.066 80.2301C385.947 80.6146 385.746 80.9527 385.465 81.2443C385.183 81.5327 384.835 81.758 384.421 81.9205C384.006 82.0795 383.541 82.1591 383.024 82.1591ZM391.53 71.8182V82H390.297V73.1108H390.237L387.752 74.7614V73.5085L390.297 71.8182H391.53Z" fill="#333333"/>
<rect x="345" y="65" width="78" height="54" rx="7" stroke="#0F67F5" stroke-width="2"/>
<rect x="345" y="137" width="78" height="54" rx="7" fill="#F3F8FF"/>
<path d="M358.844 154V143.818H360.018V147.577H360.117C360.203 147.444 360.323 147.275 360.475 147.07C360.631 146.861 360.853 146.675 361.141 146.513C361.433 146.347 361.827 146.264 362.324 146.264C362.967 146.264 363.534 146.425 364.025 146.746C364.515 147.068 364.898 147.524 365.173 148.114C365.448 148.704 365.586 149.4 365.586 150.202C365.586 151.01 365.448 151.711 365.173 152.305C364.898 152.895 364.517 153.352 364.03 153.677C363.542 153.998 362.981 154.159 362.344 154.159C361.854 154.159 361.461 154.078 361.166 153.915C360.871 153.75 360.644 153.562 360.485 153.354C360.326 153.142 360.203 152.966 360.117 152.827H359.978V154H358.844ZM359.998 150.182C359.998 150.759 360.082 151.267 360.251 151.708C360.42 152.146 360.667 152.489 360.992 152.737C361.317 152.982 361.715 153.105 362.185 153.105C362.676 153.105 363.085 152.976 363.413 152.717C363.745 152.455 363.993 152.104 364.159 151.663C364.328 151.219 364.412 150.725 364.412 150.182C364.412 149.645 364.33 149.161 364.164 148.73C364.001 148.296 363.755 147.953 363.423 147.701C363.095 147.446 362.682 147.318 362.185 147.318C361.708 147.318 361.307 147.439 360.982 147.681C360.657 147.92 360.412 148.254 360.246 148.685C360.081 149.113 359.998 149.612 359.998 150.182ZM368.554 143.818V154H367.381V143.818H368.554ZM375.515 150.878V146.364H376.689V154H375.515V152.707H375.436C375.257 153.095 374.978 153.425 374.6 153.697C374.223 153.965 373.745 154.099 373.169 154.099C372.691 154.099 372.267 153.995 371.896 153.786C371.525 153.574 371.233 153.256 371.021 152.832C370.809 152.404 370.703 151.866 370.703 151.216V146.364H371.876V151.136C371.876 151.693 372.032 152.137 372.343 152.469C372.658 152.8 373.059 152.966 373.547 152.966C373.838 152.966 374.135 152.891 374.436 152.742C374.741 152.593 374.997 152.364 375.202 152.056C375.411 151.748 375.515 151.355 375.515 150.878ZM382.039 154.159C381.303 154.159 380.669 153.997 380.135 153.672C379.605 153.344 379.195 152.886 378.907 152.3C378.622 151.71 378.48 151.024 378.48 150.241C378.48 149.459 378.622 148.77 378.907 148.173C379.195 147.573 379.597 147.106 380.11 146.771C380.627 146.433 381.231 146.264 381.92 146.264C382.318 146.264 382.71 146.33 383.098 146.463C383.486 146.596 383.839 146.811 384.157 147.109C384.475 147.404 384.729 147.795 384.918 148.283C385.107 148.77 385.201 149.37 385.201 150.082V150.58H379.315V149.565H384.008C384.008 149.134 383.922 148.75 383.749 148.412C383.58 148.074 383.338 147.807 383.024 147.612C382.712 147.416 382.344 147.318 381.92 147.318C381.453 147.318 381.048 147.434 380.707 147.666C380.369 147.895 380.109 148.193 379.926 148.561C379.744 148.929 379.653 149.323 379.653 149.744V150.42C379.653 150.997 379.752 151.486 379.951 151.887C380.153 152.285 380.433 152.588 380.791 152.797C381.149 153.002 381.565 153.105 382.039 153.105C382.347 153.105 382.626 153.062 382.874 152.976C383.126 152.886 383.343 152.754 383.526 152.578C383.708 152.399 383.849 152.177 383.948 151.912L385.082 152.23C384.963 152.615 384.762 152.953 384.48 153.244C384.199 153.533 383.851 153.758 383.436 153.92C383.022 154.08 382.556 154.159 382.039 154.159ZM386.966 154V153.105L390.327 149.426C390.721 148.995 391.046 148.621 391.301 148.303C391.557 147.981 391.745 147.679 391.868 147.398C391.994 147.113 392.057 146.814 392.057 146.503C392.057 146.145 391.971 145.835 391.798 145.573C391.629 145.311 391.397 145.109 391.102 144.967C390.807 144.824 390.476 144.753 390.108 144.753C389.717 144.753 389.376 144.834 389.084 144.996C388.796 145.156 388.572 145.379 388.413 145.668C388.257 145.956 388.179 146.294 388.179 146.682H387.006C387.006 146.085 387.143 145.562 387.419 145.111C387.694 144.66 388.068 144.309 388.542 144.057C389.019 143.805 389.555 143.679 390.148 143.679C390.744 143.679 391.273 143.805 391.734 144.057C392.195 144.309 392.556 144.648 392.818 145.076C393.079 145.504 393.21 145.979 393.21 146.503C393.21 146.877 393.142 147.244 393.007 147.602C392.874 147.956 392.642 148.352 392.311 148.79C391.982 149.224 391.527 149.754 390.943 150.381L388.656 152.827V152.906H393.389V154H386.966Z" fill="#333333"/>
<rect x="345" y="137" width="78" height="54" rx="7" stroke="#184BC8" stroke-width="2"/>
<rect x="453.833" y="0.5" width="217.667" height="215" fill="white"/>
<path d="M539.318 26.6172C539.272 26.183 539.076 25.8449 538.731 25.603C538.39 25.361 537.946 25.2401 537.399 25.2401C537.014 25.2401 536.685 25.2981 536.41 25.4141C536.134 25.5301 535.924 25.6875 535.778 25.8864C535.632 26.0852 535.558 26.3123 535.554 26.5675C535.554 26.7796 535.602 26.9635 535.699 27.1193C535.798 27.2751 535.932 27.4077 536.101 27.517C536.27 27.6231 536.458 27.7126 536.663 27.7855C536.869 27.8584 537.076 27.9197 537.285 27.9695L538.239 28.2081C538.624 28.2976 538.993 28.4186 539.348 28.571C539.706 28.7235 540.026 28.9157 540.307 29.1477C540.592 29.3797 540.818 29.6598 540.983 29.9879C541.149 30.3161 541.232 30.7005 541.232 31.1413C541.232 31.7379 541.08 32.2633 540.775 32.7173C540.47 33.1681 540.029 33.5211 539.452 33.7763C538.879 34.0282 538.184 34.1541 537.369 34.1541C536.577 34.1541 535.889 34.0315 535.306 33.7862C534.726 33.541 534.272 33.183 533.944 32.7124C533.619 32.2417 533.443 31.6683 533.417 30.9922H535.231C535.258 31.3468 535.367 31.6418 535.559 31.8771C535.752 32.1125 536.002 32.2881 536.31 32.4041C536.622 32.5201 536.97 32.5781 537.354 32.5781C537.755 32.5781 538.107 32.5185 538.408 32.3991C538.713 32.2765 538.952 32.1075 539.124 31.892C539.296 31.6733 539.384 31.4181 539.388 31.1264C539.384 30.8613 539.306 30.6425 539.154 30.4702C539.001 30.2945 538.788 30.1487 538.513 30.0327C538.241 29.9134 537.923 29.8073 537.558 29.7145L536.4 29.4162C535.561 29.2008 534.898 28.8743 534.411 28.4368C533.927 27.996 533.685 27.411 533.685 26.6818C533.685 26.0819 533.848 25.5566 534.172 25.1058C534.5 24.6551 534.946 24.3054 535.51 24.0568C536.073 23.8049 536.711 23.679 537.424 23.679C538.146 23.679 538.779 23.8049 539.323 24.0568C539.87 24.3054 540.299 24.6518 540.611 25.0959C540.922 25.5367 541.083 26.0438 541.093 26.6172H539.318ZM546.177 34.1491C545.412 34.1491 544.751 33.9901 544.194 33.6719C543.64 33.3504 543.214 32.8963 542.916 32.3097C542.618 31.7197 542.469 31.0253 542.469 30.2266C542.469 29.4411 542.618 28.7517 542.916 28.1584C543.218 27.5618 543.639 27.0978 544.179 26.7663C544.719 26.4316 545.354 26.2642 546.083 26.2642C546.554 26.2642 546.998 26.3404 547.415 26.4929C547.836 26.642 548.208 26.8741 548.529 27.1889C548.854 27.5038 549.109 27.9048 549.295 28.392C549.48 28.8759 549.573 29.4527 549.573 30.1222V30.674H543.314V29.4609H547.848C547.845 29.1162 547.77 28.8097 547.624 28.5412C547.478 28.2694 547.275 28.0556 547.013 27.8999C546.754 27.7441 546.453 27.6662 546.108 27.6662C545.74 27.6662 545.417 27.7557 545.138 27.9347C544.86 28.1103 544.643 28.3423 544.487 28.6307C544.335 28.9157 544.257 29.2289 544.253 29.5703V30.6293C544.253 31.0734 544.335 31.4545 544.497 31.7727C544.659 32.0876 544.887 32.3295 545.178 32.4986C545.47 32.6643 545.811 32.7472 546.202 32.7472C546.464 32.7472 546.701 32.7107 546.913 32.6378C547.125 32.5616 547.309 32.4505 547.465 32.3047C547.621 32.1589 547.739 31.9782 547.818 31.7628L549.498 31.9517C549.392 32.3958 549.19 32.7836 548.892 33.1151C548.597 33.4432 548.219 33.6984 547.758 33.8807C547.298 34.0597 546.771 34.1491 546.177 34.1491ZM552.895 23.8182V34H551.096V23.8182H552.895ZM558.127 34.1491C557.361 34.1491 556.7 33.9901 556.143 33.6719C555.59 33.3504 555.164 32.8963 554.865 32.3097C554.567 31.7197 554.418 31.0253 554.418 30.2266C554.418 29.4411 554.567 28.7517 554.865 28.1584C555.167 27.5618 555.588 27.0978 556.128 26.7663C556.668 26.4316 557.303 26.2642 558.032 26.2642C558.503 26.2642 558.947 26.3404 559.365 26.4929C559.786 26.642 560.157 26.8741 560.478 27.1889C560.803 27.5038 561.058 27.9048 561.244 28.392C561.429 28.8759 561.522 29.4527 561.522 30.1222V30.674H555.263V29.4609H559.797C559.794 29.1162 559.719 28.8097 559.573 28.5412C559.428 28.2694 559.224 28.0556 558.962 27.8999C558.703 27.7441 558.402 27.6662 558.057 27.6662C557.689 27.6662 557.366 27.7557 557.088 27.9347C556.809 28.1103 556.592 28.3423 556.436 28.6307C556.284 28.9157 556.206 29.2289 556.203 29.5703V30.6293C556.203 31.0734 556.284 31.4545 556.446 31.7727C556.609 32.0876 556.836 32.3295 557.127 32.4986C557.419 32.6643 557.76 32.7472 558.152 32.7472C558.413 32.7472 558.65 32.7107 558.862 32.6378C559.075 32.5616 559.259 32.4505 559.414 32.3047C559.57 32.1589 559.688 31.9782 559.767 31.7628L561.448 31.9517C561.342 32.3958 561.139 32.7836 560.841 33.1151C560.546 33.4432 560.168 33.6984 559.708 33.8807C559.247 34.0597 558.72 34.1491 558.127 34.1491ZM566.376 34.1491C565.613 34.1491 564.959 33.9818 564.412 33.647C563.868 33.3123 563.449 32.8499 563.154 32.2599C562.863 31.6667 562.717 30.9839 562.717 30.2116C562.717 29.4361 562.866 28.7517 563.164 28.1584C563.462 27.5618 563.883 27.0978 564.427 26.7663C564.974 26.4316 565.62 26.2642 566.366 26.2642C566.986 26.2642 567.534 26.3786 568.011 26.6072C568.492 26.8326 568.875 27.1525 569.16 27.5668C569.445 27.9777 569.607 28.4583 569.647 29.0085H567.927C567.857 28.6406 567.692 28.334 567.43 28.0888C567.171 27.8402 566.825 27.7159 566.391 27.7159C566.023 27.7159 565.7 27.8153 565.421 28.0142C565.143 28.2098 564.926 28.4915 564.77 28.8594C564.618 29.2273 564.541 29.6681 564.541 30.1818C564.541 30.7022 564.618 31.1496 564.77 31.5241C564.922 31.8954 565.136 32.1821 565.411 32.3842C565.69 32.5831 566.016 32.6825 566.391 32.6825C566.656 32.6825 566.893 32.6328 567.102 32.5334C567.314 32.4306 567.491 32.2831 567.634 32.0909C567.776 31.8987 567.874 31.665 567.927 31.3899H569.647C569.604 31.9302 569.445 32.4091 569.17 32.8267C568.895 33.241 568.52 33.5658 568.046 33.8011C567.572 34.0331 567.015 34.1491 566.376 34.1491ZM574.938 26.3636V27.7557H570.548V26.3636H574.938ZM571.632 24.5341H573.432V31.7031C573.432 31.9451 573.468 32.1307 573.541 32.2599C573.617 32.3859 573.717 32.4721 573.839 32.5185C573.962 32.5649 574.098 32.5881 574.247 32.5881C574.36 32.5881 574.463 32.5798 574.555 32.5632C574.651 32.5466 574.724 32.5317 574.774 32.5185L575.077 33.9254C574.981 33.9586 574.844 33.995 574.665 34.0348C574.489 34.0746 574.274 34.0978 574.018 34.1044C573.568 34.1177 573.162 34.0497 572.8 33.9006C572.439 33.7481 572.152 33.5128 571.94 33.1946C571.731 32.8764 571.629 32.4787 571.632 32.0014V24.5341ZM579.742 34.1491C578.976 34.1491 578.315 33.9901 577.758 33.6719C577.205 33.3504 576.779 32.8963 576.481 32.3097C576.182 31.7197 576.033 31.0253 576.033 30.2266C576.033 29.4411 576.182 28.7517 576.481 28.1584C576.782 27.5618 577.203 27.0978 577.743 26.7663C578.284 26.4316 578.918 26.2642 579.647 26.2642C580.118 26.2642 580.562 26.3404 580.98 26.4929C581.401 26.642 581.772 26.8741 582.093 27.1889C582.418 27.5038 582.674 27.9048 582.859 28.392C583.045 28.8759 583.138 29.4527 583.138 30.1222V30.674H576.878V29.4609H581.412C581.409 29.1162 581.334 28.8097 581.189 28.5412C581.043 28.2694 580.839 28.0556 580.577 27.8999C580.319 27.7441 580.017 27.6662 579.672 27.6662C579.304 27.6662 578.981 27.7557 578.703 27.9347C578.424 28.1103 578.207 28.3423 578.052 28.6307C577.899 28.9157 577.821 29.2289 577.818 29.5703V30.6293C577.818 31.0734 577.899 31.4545 578.062 31.7727C578.224 32.0876 578.451 32.3295 578.743 32.4986C579.034 32.6643 579.376 32.7472 579.767 32.7472C580.029 32.7472 580.266 32.7107 580.478 32.6378C580.69 32.5616 580.874 32.4505 581.03 32.3047C581.185 32.1589 581.303 31.9782 581.383 31.7628L583.063 31.9517C582.957 32.3958 582.755 32.7836 582.456 33.1151C582.161 33.4432 581.784 33.6984 581.323 33.8807C580.862 34.0597 580.335 34.1491 579.742 34.1491ZM587.494 34.1342C586.894 34.1342 586.357 33.9801 585.883 33.6719C585.409 33.3636 585.035 32.9162 584.759 32.3295C584.484 31.7429 584.347 31.0303 584.347 30.1918C584.347 29.3433 584.486 28.6274 584.764 28.044C585.046 27.4574 585.426 27.0149 585.903 26.7166C586.38 26.415 586.912 26.2642 587.499 26.2642C587.946 26.2642 588.314 26.3404 588.603 26.4929C588.891 26.642 589.12 26.8227 589.289 27.0348C589.458 27.2436 589.589 27.4408 589.681 27.6264H589.756V23.8182H591.561V34H589.791V32.7969H589.681C589.589 32.9825 589.454 33.1797 589.279 33.3885C589.103 33.594 588.871 33.7696 588.583 33.9155C588.294 34.0613 587.931 34.1342 587.494 34.1342ZM587.996 32.6577C588.377 32.6577 588.702 32.5549 588.97 32.3494C589.239 32.1406 589.443 31.8506 589.582 31.4794C589.721 31.1082 589.791 30.6757 589.791 30.1818C589.791 29.688 589.721 29.2588 589.582 28.8942C589.446 28.5296 589.244 28.2462 588.975 28.044C588.71 27.8419 588.384 27.7408 587.996 27.7408C587.595 27.7408 587.26 27.8452 586.992 28.054C586.723 28.2628 586.521 28.5511 586.385 28.919C586.249 29.2869 586.181 29.7079 586.181 30.1818C586.181 30.6591 586.249 31.085 586.385 31.4595C586.524 31.8307 586.728 32.1241 586.997 32.3395C587.268 32.5516 587.602 32.6577 587.996 32.6577ZM539.127 56H537.835L541.573 45.8182H542.846L546.585 56H545.292L542.249 47.429H542.17L539.127 56ZM539.604 52.0227H544.815V53.1165H539.604V52.0227ZM551.114 56.1591C550.398 56.1591 549.781 55.9901 549.264 55.652C548.747 55.3139 548.349 54.8482 548.071 54.255C547.793 53.6617 547.653 52.9839 547.653 52.2216C547.653 51.446 547.796 50.7616 548.081 50.1683C548.369 49.5717 548.77 49.1061 549.284 48.7713C549.801 48.4332 550.404 48.2642 551.094 48.2642C551.631 48.2642 552.115 48.3636 552.545 48.5625C552.976 48.7614 553.329 49.0398 553.604 49.3977C553.879 49.7557 554.05 50.1733 554.116 50.6506H552.943C552.854 50.3026 552.655 49.9943 552.347 49.7259C552.042 49.4541 551.631 49.3182 551.114 49.3182C550.656 49.3182 550.255 49.4375 549.911 49.6761C549.569 49.9115 549.302 50.2446 549.11 50.6754C548.921 51.103 548.827 51.6051 548.827 52.1818C548.827 52.7718 548.92 53.2855 549.105 53.723C549.294 54.1605 549.559 54.5002 549.901 54.7422C550.245 54.9841 550.65 55.1051 551.114 55.1051C551.419 55.1051 551.695 55.0521 551.944 54.946C552.192 54.84 552.403 54.6875 552.575 54.4886C552.748 54.2898 552.87 54.0511 552.943 53.7727H554.116C554.05 54.2235 553.886 54.6295 553.624 54.9908C553.366 55.3487 553.023 55.6338 552.595 55.8459C552.171 56.0547 551.677 56.1591 551.114 56.1591ZM558.934 56.1591C558.218 56.1591 557.602 55.9901 557.085 55.652C556.567 55.3139 556.17 54.8482 555.891 54.255C555.613 53.6617 555.474 52.9839 555.474 52.2216C555.474 51.446 555.616 50.7616 555.901 50.1683C556.19 49.5717 556.591 49.1061 557.104 48.7713C557.621 48.4332 558.225 48.2642 558.914 48.2642C559.451 48.2642 559.935 48.3636 560.366 48.5625C560.797 48.7614 561.15 49.0398 561.425 49.3977C561.7 49.7557 561.871 50.1733 561.937 50.6506H560.763C560.674 50.3026 560.475 49.9943 560.167 49.7259C559.862 49.4541 559.451 49.3182 558.934 49.3182C558.477 49.3182 558.076 49.4375 557.731 49.6761C557.389 49.9115 557.123 50.2446 556.93 50.6754C556.741 51.103 556.647 51.6051 556.647 52.1818C556.647 52.7718 556.74 53.2855 556.925 53.723C557.114 54.1605 557.379 54.5002 557.721 54.7422C558.066 54.9841 558.47 55.1051 558.934 55.1051C559.239 55.1051 559.516 55.0521 559.764 54.946C560.013 54.84 560.223 54.6875 560.396 54.4886C560.568 54.2898 560.691 54.0511 560.763 53.7727H561.937C561.871 54.2235 561.706 54.6295 561.445 54.9908C561.186 55.3487 560.843 55.6338 560.415 55.8459C559.991 56.0547 559.497 56.1591 558.934 56.1591ZM566.854 56.1591C566.118 56.1591 565.483 55.9967 564.95 55.6719C564.419 55.3438 564.01 54.8864 563.722 54.2997C563.437 53.7098 563.294 53.0237 563.294 52.2415C563.294 51.4593 563.437 50.7699 563.722 50.1733C564.01 49.5734 564.411 49.1061 564.925 48.7713C565.442 48.4332 566.045 48.2642 566.734 48.2642C567.132 48.2642 567.525 48.3305 567.913 48.4631C568.3 48.5956 568.653 48.8111 568.972 49.1094C569.29 49.4044 569.543 49.7955 569.732 50.2827C569.921 50.7699 570.016 51.3698 570.016 52.0824V52.5795H564.129V51.5653H568.822C568.822 51.1345 568.736 50.75 568.564 50.4119C568.395 50.0739 568.153 49.8071 567.838 49.6115C567.527 49.416 567.159 49.3182 566.734 49.3182C566.267 49.3182 565.863 49.4342 565.521 49.6662C565.183 49.8949 564.923 50.1932 564.741 50.5611C564.558 50.929 564.467 51.3234 564.467 51.7443V52.4205C564.467 52.9972 564.567 53.486 564.766 53.8871C564.968 54.2848 565.248 54.5881 565.606 54.7969C565.964 55.0024 566.38 55.1051 566.854 55.1051C567.162 55.1051 567.44 55.062 567.689 54.9759C567.941 54.8864 568.158 54.7538 568.34 54.5781C568.522 54.3991 568.663 54.1771 568.763 53.9119L569.896 54.2301C569.777 54.6146 569.576 54.9527 569.295 55.2443C569.013 55.5327 568.665 55.758 568.251 55.9205C567.836 56.0795 567.371 56.1591 566.854 56.1591ZM572.974 51.4062V56H571.8V48.3636H572.934V49.5568H573.033C573.212 49.169 573.484 48.8575 573.849 48.6222C574.213 48.3835 574.684 48.2642 575.261 48.2642C575.778 48.2642 576.23 48.3703 576.618 48.5824C577.006 48.7912 577.307 49.1094 577.523 49.5369C577.738 49.9612 577.846 50.4981 577.846 51.1477V56H576.673V51.2273C576.673 50.6274 576.517 50.16 576.205 49.8253C575.894 49.4872 575.466 49.3182 574.923 49.3182C574.548 49.3182 574.213 49.3994 573.918 49.5618C573.627 49.7242 573.396 49.9612 573.227 50.2727C573.058 50.5843 572.974 50.9621 572.974 51.4062ZM583.311 48.3636V49.358H579.354V48.3636H583.311ZM580.507 46.5341H581.68V53.8125C581.68 54.1439 581.728 54.3925 581.824 54.5582C581.924 54.7206 582.05 54.83 582.202 54.8864C582.358 54.9394 582.522 54.9659 582.694 54.9659C582.824 54.9659 582.93 54.9593 583.013 54.946C583.095 54.9295 583.162 54.9162 583.211 54.9062L583.45 55.9602C583.371 55.9901 583.26 56.0199 583.117 56.0497C582.974 56.0829 582.794 56.0994 582.575 56.0994C582.244 56.0994 581.919 56.0282 581.601 55.8857C581.286 55.7431 581.024 55.526 580.815 55.2344C580.61 54.9427 580.507 54.5748 580.507 54.1307V46.5341ZM585.931 56.0795C585.686 56.0795 585.475 55.9917 585.3 55.8161C585.124 55.6404 585.036 55.4299 585.036 55.1847C585.036 54.9394 585.124 54.7289 585.3 54.5533C585.475 54.3776 585.686 54.2898 585.931 54.2898C586.176 54.2898 586.387 54.3776 586.562 54.5533C586.738 54.7289 586.826 54.9394 586.826 55.1847C586.826 55.3471 586.784 55.4962 586.702 55.6321C586.622 55.768 586.514 55.8774 586.378 55.9602C586.246 56.0398 586.097 56.0795 585.931 56.0795ZM585.931 50.4119C585.686 50.4119 585.475 50.3241 585.3 50.1484C585.124 49.9728 585.036 49.7623 585.036 49.517C585.036 49.2718 585.124 49.0613 585.3 48.8857C585.475 48.71 585.686 48.6222 585.931 48.6222C586.176 48.6222 586.387 48.71 586.562 48.8857C586.738 49.0613 586.826 49.2718 586.826 49.517C586.826 49.6795 586.784 49.8286 586.702 49.9645C586.622 50.1004 586.514 50.2098 586.378 50.2926C586.246 50.3722 586.097 50.4119 585.931 50.4119Z" fill="black"/>
<rect x="475.667" y="65" width="78" height="54" rx="7" fill="white"/>
<path d="M492.461 85.0227C491.894 85.0227 491.407 84.9498 490.999 84.804C490.592 84.6615 490.252 84.4725 489.98 84.2372C489.712 84.0052 489.498 83.7566 489.339 83.4915L490.273 82.8352C490.379 82.9744 490.514 83.1335 490.676 83.3125C490.839 83.4948 491.061 83.6522 491.342 83.7848C491.627 83.9207 492 83.9886 492.461 83.9886C493.077 83.9886 493.586 83.8395 493.987 83.5412C494.388 83.2429 494.589 82.7756 494.589 82.1392V80.5881H494.489C494.403 80.7273 494.281 80.8996 494.121 81.1051C493.966 81.3073 493.74 81.4879 493.445 81.647C493.154 81.8028 492.759 81.8807 492.262 81.8807C491.646 81.8807 491.092 81.7348 490.602 81.4432C490.114 81.1515 489.728 80.7273 489.443 80.1705C489.161 79.6136 489.021 78.9375 489.021 78.142C489.021 77.3598 489.158 76.6787 489.433 76.0987C489.708 75.5154 490.091 75.0646 490.582 74.7464C491.072 74.425 491.639 74.2642 492.282 74.2642C492.779 74.2642 493.174 74.3471 493.465 74.5128C493.76 74.6752 493.986 74.8608 494.141 75.0696C494.3 75.2751 494.423 75.4441 494.509 75.5767H494.629V74.3636H495.762V82.2188C495.762 82.875 495.613 83.4086 495.315 83.8196C495.02 84.2339 494.622 84.5372 494.121 84.7294C493.624 84.925 493.071 85.0227 492.461 85.0227ZM492.421 80.8267C492.892 80.8267 493.29 80.719 493.614 80.5036C493.939 80.2881 494.186 79.9782 494.355 79.5739C494.524 79.1695 494.609 78.6856 494.609 78.1222C494.609 77.572 494.526 77.0864 494.36 76.6655C494.194 76.2446 493.949 75.9148 493.624 75.6761C493.299 75.4375 492.898 75.3182 492.421 75.3182C491.924 75.3182 491.51 75.4441 491.178 75.696C490.85 75.9479 490.603 76.286 490.438 76.7102C490.275 77.1345 490.194 77.6051 490.194 78.1222C490.194 78.6525 490.277 79.1214 490.442 79.5291C490.612 79.9335 490.86 80.2517 491.188 80.4837C491.52 80.7124 491.931 80.8267 492.421 80.8267ZM497.91 82V74.3636H499.043V75.517H499.123C499.262 75.1392 499.514 74.8326 499.879 74.5973C500.243 74.362 500.654 74.2443 501.112 74.2443C501.198 74.2443 501.305 74.246 501.435 74.2493C501.564 74.2526 501.662 74.2576 501.728 74.2642V75.4574C501.688 75.4474 501.597 75.4325 501.455 75.4126C501.315 75.3894 501.168 75.3778 501.012 75.3778C500.641 75.3778 500.309 75.4557 500.018 75.6115C499.729 75.764 499.501 75.9761 499.332 76.2479C499.166 76.5163 499.083 76.8229 499.083 77.1676V82H497.91ZM506.088 82.1591C505.352 82.1591 504.718 81.9967 504.184 81.6719C503.654 81.3438 503.244 80.8864 502.956 80.2997C502.671 79.7098 502.528 79.0237 502.528 78.2415C502.528 77.4593 502.671 76.7699 502.956 76.1733C503.244 75.5734 503.645 75.1061 504.159 74.7713C504.676 74.4332 505.279 74.2642 505.969 74.2642C506.366 74.2642 506.759 74.3305 507.147 74.4631C507.535 74.5956 507.888 74.8111 508.206 75.1094C508.524 75.4044 508.778 75.7955 508.967 76.2827C509.156 76.7699 509.25 77.3698 509.25 78.0824V78.5795H503.364V77.5653H508.057C508.057 77.1345 507.971 76.75 507.798 76.4119C507.629 76.0739 507.387 75.8071 507.072 75.6115C506.761 75.416 506.393 75.3182 505.969 75.3182C505.501 75.3182 505.097 75.4342 504.756 75.6662C504.418 75.8949 504.157 76.1932 503.975 76.5611C503.793 76.929 503.702 77.3234 503.702 77.7443V78.4205C503.702 78.9972 503.801 79.486 504 79.8871C504.202 80.2848 504.482 80.5881 504.84 80.7969C505.198 81.0024 505.614 81.1051 506.088 81.1051C506.396 81.1051 506.675 81.062 506.923 80.9759C507.175 80.8864 507.392 80.7538 507.575 80.5781C507.757 80.3991 507.898 80.1771 507.997 79.9119L509.131 80.2301C509.011 80.6146 508.811 80.9527 508.529 81.2443C508.247 81.5327 507.899 81.758 507.485 81.9205C507.071 82.0795 506.605 82.1591 506.088 82.1591ZM511.558 84.8636C511.359 84.8636 511.182 84.8471 511.026 84.8139C510.87 84.7841 510.763 84.7543 510.703 84.7244L511.001 83.6903C511.286 83.7633 511.538 83.7898 511.757 83.7699C511.976 83.75 512.17 83.6522 512.339 83.4766C512.511 83.3042 512.668 83.0241 512.811 82.6364L513.03 82.0398L510.206 74.3636H511.479L513.586 80.4489H513.666L515.774 74.3636H517.047L513.805 83.1136C513.659 83.508 513.479 83.8345 513.263 84.093C513.048 84.3549 512.798 84.5488 512.513 84.6747C512.231 84.8007 511.913 84.8636 511.558 84.8636ZM522.155 71.8182V82H520.922V73.1108H520.862L518.377 74.7614V73.5085L520.922 71.8182H522.155Z" fill="#333333"/>
<rect x="475.667" y="65" width="78" height="54" rx="7" stroke="#333333" stroke-width="2"/>
<rect x="475.667" y="137" width="78" height="54" rx="7" fill="#F6F6F6"/>
<path d="M491.477 157.023C490.91 157.023 490.423 156.95 490.015 156.804C489.607 156.661 489.268 156.473 488.996 156.237C488.727 156.005 488.513 155.757 488.354 155.491L489.289 154.835C489.395 154.974 489.529 155.134 489.692 155.312C489.854 155.495 490.076 155.652 490.358 155.785C490.643 155.921 491.016 155.989 491.477 155.989C492.093 155.989 492.602 155.839 493.003 155.541C493.404 155.243 493.604 154.776 493.604 154.139V152.588H493.505C493.419 152.727 493.296 152.9 493.137 153.105C492.981 153.307 492.756 153.488 492.461 153.647C492.169 153.803 491.775 153.881 491.278 153.881C490.661 153.881 490.108 153.735 489.617 153.443C489.13 153.152 488.744 152.727 488.459 152.17C488.177 151.614 488.036 150.937 488.036 150.142C488.036 149.36 488.174 148.679 488.449 148.099C488.724 147.515 489.107 147.065 489.597 146.746C490.088 146.425 490.655 146.264 491.298 146.264C491.795 146.264 492.189 146.347 492.481 146.513C492.776 146.675 493.001 146.861 493.157 147.07C493.316 147.275 493.439 147.444 493.525 147.577H493.644V146.364H494.778V154.219C494.778 154.875 494.629 155.409 494.33 155.82C494.035 156.234 493.638 156.537 493.137 156.729C492.64 156.925 492.086 157.023 491.477 157.023ZM491.437 152.827C491.907 152.827 492.305 152.719 492.63 152.504C492.955 152.288 493.202 151.978 493.371 151.574C493.54 151.17 493.624 150.686 493.624 150.122C493.624 149.572 493.541 149.086 493.376 148.665C493.21 148.245 492.965 147.915 492.64 147.676C492.315 147.437 491.914 147.318 491.437 147.318C490.94 147.318 490.525 147.444 490.194 147.696C489.866 147.948 489.619 148.286 489.453 148.71C489.291 149.134 489.21 149.605 489.21 150.122C489.21 150.652 489.292 151.121 489.458 151.529C489.627 151.933 489.876 152.252 490.204 152.484C490.535 152.712 490.946 152.827 491.437 152.827ZM496.925 154V146.364H498.059V147.517H498.138C498.278 147.139 498.53 146.833 498.894 146.597C499.259 146.362 499.67 146.244 500.127 146.244C500.213 146.244 500.321 146.246 500.45 146.249C500.58 146.253 500.677 146.258 500.744 146.264V147.457C500.704 147.447 500.613 147.433 500.47 147.413C500.331 147.389 500.183 147.378 500.028 147.378C499.656 147.378 499.325 147.456 499.033 147.612C498.745 147.764 498.516 147.976 498.347 148.248C498.182 148.516 498.099 148.823 498.099 149.168V154H496.925ZM505.104 154.159C504.368 154.159 503.733 153.997 503.2 153.672C502.669 153.344 502.26 152.886 501.972 152.3C501.687 151.71 501.544 151.024 501.544 150.241C501.544 149.459 501.687 148.77 501.972 148.173C502.26 147.573 502.661 147.106 503.175 146.771C503.692 146.433 504.295 146.264 504.984 146.264C505.382 146.264 505.775 146.33 506.163 146.463C506.55 146.596 506.903 146.811 507.222 147.109C507.54 147.404 507.793 147.795 507.982 148.283C508.171 148.77 508.266 149.37 508.266 150.082V150.58H502.379V149.565H507.072C507.072 149.134 506.986 148.75 506.814 148.412C506.645 148.074 506.403 147.807 506.088 147.612C505.777 147.416 505.409 147.318 504.984 147.318C504.517 147.318 504.113 147.434 503.771 147.666C503.433 147.895 503.173 148.193 502.991 148.561C502.808 148.929 502.717 149.323 502.717 149.744V150.42C502.717 150.997 502.817 151.486 503.016 151.887C503.218 152.285 503.498 152.588 503.856 152.797C504.214 153.002 504.63 153.105 505.104 153.105C505.412 153.105 505.69 153.062 505.939 152.976C506.191 152.886 506.408 152.754 506.59 152.578C506.772 152.399 506.913 152.177 507.013 151.912L508.146 152.23C508.027 152.615 507.826 152.953 507.545 153.244C507.263 153.533 506.915 153.758 506.501 153.92C506.086 154.08 505.621 154.159 505.104 154.159ZM510.574 156.864C510.375 156.864 510.198 156.847 510.042 156.814C509.886 156.784 509.778 156.754 509.719 156.724L510.017 155.69C510.302 155.763 510.554 155.79 510.773 155.77C510.991 155.75 511.185 155.652 511.354 155.477C511.527 155.304 511.684 155.024 511.827 154.636L512.045 154.04L509.221 146.364H510.494L512.602 152.449H512.682L514.79 146.364H516.062L512.821 155.114C512.675 155.508 512.494 155.835 512.279 156.093C512.064 156.355 511.813 156.549 511.528 156.675C511.247 156.801 510.928 156.864 510.574 156.864ZM517.591 154V153.105L520.952 149.426C521.346 148.995 521.671 148.621 521.926 148.303C522.182 147.981 522.37 147.679 522.493 147.398C522.619 147.113 522.682 146.814 522.682 146.503C522.682 146.145 522.596 145.835 522.423 145.573C522.254 145.311 522.022 145.109 521.727 144.967C521.432 144.824 521.101 144.753 520.733 144.753C520.342 144.753 520.001 144.834 519.709 144.996C519.421 145.156 519.197 145.379 519.038 145.668C518.882 145.956 518.804 146.294 518.804 146.682H517.631C517.631 146.085 517.768 145.562 518.044 145.111C518.319 144.66 518.693 144.309 519.167 144.057C519.644 143.805 520.18 143.679 520.773 143.679C521.369 143.679 521.898 143.805 522.359 144.057C522.82 144.309 523.181 144.648 523.443 145.076C523.704 145.504 523.835 145.979 523.835 146.503C523.835 146.877 523.767 147.244 523.632 147.602C523.499 147.956 523.267 148.352 522.936 148.79C522.607 149.224 522.152 149.754 521.568 150.381L519.281 152.827V152.906H524.014V154H517.591Z" fill="#333333"/>
<rect x="475.667" y="137" width="78" height="54" rx="7" stroke="#1F1F1F" stroke-width="2"/>
<rect x="571.667" y="65" width="78" height="54" rx="7" fill="white"/>
<path d="M586.496 82V71.8182H587.669V75.5767H587.768C587.855 75.4441 587.974 75.2751 588.126 75.0696C588.282 74.8608 588.504 74.6752 588.793 74.5128C589.084 74.3471 589.479 74.2642 589.976 74.2642C590.619 74.2642 591.186 74.425 591.676 74.7464C592.167 75.0679 592.549 75.5237 592.824 76.1136C593.1 76.7036 593.237 77.3996 593.237 78.2017C593.237 79.0104 593.1 79.7114 592.824 80.3047C592.549 80.8946 592.168 81.352 591.681 81.6768C591.194 81.9983 590.632 82.1591 589.996 82.1591C589.505 82.1591 589.112 82.0779 588.817 81.9155C588.522 81.7498 588.295 81.5625 588.136 81.3537C587.977 81.1416 587.855 80.9659 587.768 80.8267H587.629V82H586.496ZM587.649 78.1818C587.649 78.7585 587.734 79.2673 587.903 79.7081C588.072 80.1456 588.319 80.4886 588.643 80.7372C588.968 80.9825 589.366 81.1051 589.837 81.1051C590.327 81.1051 590.736 80.9759 591.065 80.7173C591.396 80.4555 591.645 80.1042 591.81 79.6634C591.979 79.2192 592.064 78.7254 592.064 78.1818C592.064 77.6449 591.981 77.161 591.815 76.7301C591.653 76.2959 591.406 75.9529 591.074 75.701C590.746 75.4458 590.334 75.3182 589.837 75.3182C589.359 75.3182 588.958 75.4392 588.633 75.6811C588.309 75.9197 588.063 76.2545 587.898 76.6854C587.732 77.1129 587.649 77.6117 587.649 78.1818ZM596.205 71.8182V82H595.032V71.8182H596.205ZM603.167 78.8778V74.3636H604.34V82H603.167V80.7074H603.087C602.908 81.0952 602.63 81.425 602.252 81.6967C601.874 81.9652 601.397 82.0994 600.82 82.0994C600.343 82.0994 599.919 81.995 599.547 81.7862C599.176 81.5741 598.884 81.2559 598.672 80.8317C598.46 80.4041 598.354 79.8655 598.354 79.2159V74.3636H599.527V79.1364C599.527 79.6932 599.683 80.1373 599.995 80.4688C600.31 80.8002 600.711 80.9659 601.198 80.9659C601.49 80.9659 601.786 80.8913 602.088 80.7422C602.393 80.593 602.648 80.3643 602.853 80.0561C603.062 79.7479 603.167 79.3551 603.167 78.8778ZM609.691 82.1591C608.955 82.1591 608.32 81.9967 607.786 81.6719C607.256 81.3438 606.847 80.8864 606.559 80.2997C606.273 79.7098 606.131 79.0237 606.131 78.2415C606.131 77.4593 606.273 76.7699 606.559 76.1733C606.847 75.5734 607.248 75.1061 607.762 74.7713C608.279 74.4332 608.882 74.2642 609.571 74.2642C609.969 74.2642 610.362 74.3305 610.75 74.4631C611.137 74.5956 611.49 74.8111 611.809 75.1094C612.127 75.4044 612.38 75.7955 612.569 76.2827C612.758 76.7699 612.853 77.3698 612.853 78.0824V78.5795H606.966V77.5653H611.659C611.659 77.1345 611.573 76.75 611.401 76.4119C611.232 76.0739 610.99 75.8071 610.675 75.6115C610.363 75.416 609.996 75.3182 609.571 75.3182C609.104 75.3182 608.7 75.4342 608.358 75.6662C608.02 75.8949 607.76 76.1932 607.578 76.5611C607.395 76.929 607.304 77.3234 607.304 77.7443V78.4205C607.304 78.9972 607.404 79.486 607.603 79.8871C607.805 80.2848 608.085 80.5881 608.443 80.7969C608.801 81.0024 609.217 81.1051 609.691 81.1051C609.999 81.1051 610.277 81.062 610.526 80.9759C610.778 80.8864 610.995 80.7538 611.177 80.5781C611.359 80.3991 611.5 80.1771 611.6 79.9119L612.733 80.2301C612.614 80.6146 612.413 80.9527 612.132 81.2443C611.85 81.5327 611.502 81.758 611.088 81.9205C610.673 82.0795 610.208 82.1591 609.691 82.1591ZM618.197 71.8182V82H616.964V73.1108H616.904L614.419 74.7614V73.5085L616.964 71.8182H618.197Z" fill="#333333"/>
<rect x="571.667" y="65" width="78" height="54" rx="7" stroke="#0F67F5" stroke-width="2"/>
<rect x="571.667" y="137" width="78" height="54" rx="7" fill="#F3F8FF"/>
<path d="M585.511 154V143.818H586.685V147.577H586.784C586.87 147.444 586.989 147.275 587.142 147.07C587.298 146.861 587.52 146.675 587.808 146.513C588.1 146.347 588.494 146.264 588.991 146.264C589.634 146.264 590.201 146.425 590.692 146.746C591.182 147.068 591.565 147.524 591.84 148.114C592.115 148.704 592.253 149.4 592.253 150.202C592.253 151.01 592.115 151.711 591.84 152.305C591.565 152.895 591.184 153.352 590.697 153.677C590.209 153.998 589.648 154.159 589.011 154.159C588.521 154.159 588.128 154.078 587.833 153.915C587.538 153.75 587.311 153.562 587.152 153.354C586.993 153.142 586.87 152.966 586.784 152.827H586.645V154H585.511ZM586.665 150.182C586.665 150.759 586.749 151.267 586.918 151.708C587.087 152.146 587.334 152.489 587.659 152.737C587.984 152.982 588.382 153.105 588.852 153.105C589.343 153.105 589.752 152.976 590.08 152.717C590.412 152.455 590.66 152.104 590.826 151.663C590.995 151.219 591.079 150.725 591.079 150.182C591.079 149.645 590.997 149.161 590.831 148.73C590.668 148.296 590.422 147.953 590.09 147.701C589.762 147.446 589.349 147.318 588.852 147.318C588.375 147.318 587.974 147.439 587.649 147.681C587.324 147.92 587.079 148.254 586.913 148.685C586.748 149.113 586.665 149.612 586.665 150.182ZM595.221 143.818V154H594.047V143.818H595.221ZM602.182 150.878V146.364H603.356V154H602.182V152.707H602.103C601.924 153.095 601.645 153.425 601.267 153.697C600.89 153.965 600.412 154.099 599.836 154.099C599.358 154.099 598.934 153.995 598.563 153.786C598.192 153.574 597.9 153.256 597.688 152.832C597.476 152.404 597.37 151.866 597.37 151.216V146.364H598.543V151.136C598.543 151.693 598.699 152.137 599.01 152.469C599.325 152.8 599.726 152.966 600.214 152.966C600.505 152.966 600.802 152.891 601.103 152.742C601.408 152.593 601.664 152.364 601.869 152.056C602.078 151.748 602.182 151.355 602.182 150.878ZM608.706 154.159C607.97 154.159 607.336 153.997 606.802 153.672C606.272 153.344 605.862 152.886 605.574 152.3C605.289 151.71 605.147 151.024 605.147 150.241C605.147 149.459 605.289 148.77 605.574 148.173C605.862 147.573 606.264 147.106 606.777 146.771C607.294 146.433 607.898 146.264 608.587 146.264C608.985 146.264 609.377 146.33 609.765 146.463C610.153 146.596 610.506 146.811 610.824 147.109C611.142 147.404 611.396 147.795 611.585 148.283C611.774 148.77 611.868 149.37 611.868 150.082V150.58H605.982V149.565H610.675C610.675 149.134 610.589 148.75 610.416 148.412C610.247 148.074 610.005 147.807 609.691 147.612C609.379 147.416 609.011 147.318 608.587 147.318C608.12 147.318 607.715 147.434 607.374 147.666C607.036 147.895 606.776 148.193 606.593 148.561C606.411 148.929 606.32 149.323 606.32 149.744V150.42C606.32 150.997 606.419 151.486 606.618 151.887C606.82 152.285 607.1 152.588 607.458 152.797C607.816 153.002 608.232 153.105 608.706 153.105C609.014 153.105 609.293 153.062 609.541 152.976C609.793 152.886 610.01 152.754 610.193 152.578C610.375 152.399 610.516 152.177 610.615 151.912L611.749 152.23C611.63 152.615 611.429 152.953 611.147 153.244C610.866 153.533 610.518 153.758 610.103 153.92C609.689 154.08 609.223 154.159 608.706 154.159ZM613.633 154V153.105L616.994 149.426C617.388 148.995 617.713 148.621 617.968 148.303C618.224 147.981 618.412 147.679 618.535 147.398C618.661 147.113 618.724 146.814 618.724 146.503C618.724 146.145 618.638 145.835 618.465 145.573C618.296 145.311 618.064 145.109 617.769 144.967C617.474 144.824 617.143 144.753 616.775 144.753C616.384 144.753 616.043 144.834 615.751 144.996C615.463 145.156 615.239 145.379 615.08 145.668C614.924 145.956 614.846 146.294 614.846 146.682H613.673C613.673 146.085 613.81 145.562 614.085 145.111C614.361 144.66 614.735 144.309 615.209 144.057C615.686 143.805 616.222 143.679 616.815 143.679C617.411 143.679 617.94 143.805 618.401 144.057C618.862 144.309 619.223 144.648 619.485 145.076C619.746 145.504 619.877 145.979 619.877 146.503C619.877 146.877 619.809 147.244 619.674 147.602C619.541 147.956 619.309 148.352 618.978 148.79C618.649 149.224 618.194 149.754 617.61 150.381L615.323 152.827V152.906H620.056V154H613.633Z" fill="#333333"/>
<rect x="571.667" y="137" width="78" height="54" rx="7" stroke="#184BC8" stroke-width="2"/>
<rect x="453.833" y="0.5" width="217.667" height="215" stroke="#EBEBEB"/>
</svg>
