<svg width="160" height="66" viewBox="0 0 160 66" fill="none" xmlns="http://www.w3.org/2000/svg">
<path d="M4 0.5H156C157.933 0.5 159.5 2.067 159.5 4V62C159.5 63.933 157.933 65.5 156 65.5H4C2.067 65.5 0.5 63.933 0.5 62V4C0.5 2.067 2.067 0.5 4 0.5Z" fill="white"/>
<path d="M31.5419 18.5625C31.4889 18.0663 31.2654 17.6799 30.8714 17.4034C30.4813 17.1269 29.9737 16.9886 29.3487 16.9886C28.9093 16.9886 28.5324 17.0549 28.218 17.1875C27.9036 17.3201 27.6631 17.5 27.4964 17.7273C27.3298 17.9545 27.2446 18.214 27.2408 18.5057C27.2408 18.7481 27.2957 18.9583 27.4055 19.1364C27.5192 19.3144 27.6726 19.4659 27.8658 19.5909C28.0589 19.7121 28.273 19.8144 28.5078 19.8977C28.7427 19.9811 28.9794 20.0511 29.218 20.108L30.3089 20.3807C30.7483 20.483 31.1707 20.6212 31.576 20.7955C31.9851 20.9697 32.3506 21.1894 32.6726 21.4545C32.9983 21.7197 33.2559 22.0398 33.4453 22.4148C33.6347 22.7898 33.7294 23.2292 33.7294 23.733C33.7294 24.4148 33.5552 25.0152 33.2067 25.5341C32.8582 26.0492 32.3544 26.4527 31.6953 26.7443C31.04 27.0322 30.2464 27.1761 29.3146 27.1761C28.4093 27.1761 27.6233 27.036 26.9567 26.7557C26.2938 26.4754 25.7749 26.0663 25.3999 25.5284C25.0286 24.9905 24.8279 24.3352 24.7976 23.5625H26.8714C26.9018 23.9678 27.0268 24.3049 27.2464 24.5739C27.4661 24.8428 27.7521 25.0436 28.1044 25.1761C28.4605 25.3087 28.8582 25.375 29.2976 25.375C29.7559 25.375 30.1574 25.3068 30.5021 25.1705C30.8506 25.0303 31.1233 24.8371 31.3203 24.5909C31.5173 24.3409 31.6177 24.0492 31.6214 23.7159C31.6177 23.4129 31.5286 23.1629 31.3544 22.9659C31.1802 22.7652 30.9358 22.5985 30.6214 22.4659C30.3108 22.3295 29.9472 22.2083 29.5305 22.1023L28.2067 21.7614C27.2483 21.5152 26.4908 21.142 25.9339 20.642C25.3809 20.1383 25.1044 19.4697 25.1044 18.6364C25.1044 17.9508 25.29 17.3504 25.6612 16.8352C26.0362 16.3201 26.5457 15.9205 27.1896 15.6364C27.8336 15.3485 28.5627 15.2045 29.3771 15.2045C30.2029 15.2045 30.9264 15.3485 31.5476 15.6364C32.1726 15.9205 32.6631 16.3163 33.0192 16.8239C33.3752 17.3277 33.5589 17.9072 33.5703 18.5625H31.5419ZM38.0291 27.1761C37.4761 27.1761 36.978 27.0777 36.5348 26.8807C36.0954 26.6799 35.7469 26.3845 35.4893 25.9943C35.2356 25.6042 35.1087 25.1231 35.1087 24.5511C35.1087 24.0587 35.1996 23.6515 35.3814 23.3295C35.5632 23.0076 35.8113 22.75 36.1257 22.5568C36.4401 22.3636 36.7943 22.2178 37.1882 22.1193C37.5859 22.017 37.9969 21.9432 38.4212 21.8977C38.9325 21.8447 39.3473 21.7973 39.6655 21.7557C39.9837 21.7102 40.2147 21.642 40.3587 21.5511C40.5064 21.4564 40.5803 21.3106 40.5803 21.1136V21.0795C40.5803 20.6515 40.4534 20.3201 40.1996 20.0852C39.9458 19.8504 39.5803 19.733 39.103 19.733C38.5992 19.733 38.1996 19.8428 37.9041 20.0625C37.6125 20.2822 37.4155 20.5417 37.3132 20.8409L35.3928 20.5682C35.5443 20.0379 35.7943 19.5947 36.1428 19.2386C36.4912 18.8788 36.9174 18.6098 37.4212 18.4318C37.925 18.25 38.4818 18.1591 39.0916 18.1591C39.5121 18.1591 39.9306 18.2083 40.3473 18.3068C40.764 18.4053 41.1446 18.5682 41.4893 18.7955C41.834 19.0189 42.1106 19.3239 42.3189 19.7102C42.531 20.0966 42.6371 20.5795 42.6371 21.1591V27H40.6598V25.8011H40.5916C40.4666 26.0436 40.2905 26.2708 40.0632 26.483C39.8397 26.6913 39.5575 26.8598 39.2166 26.9886C38.8795 27.1136 38.4837 27.1761 38.0291 27.1761ZM38.5632 25.6648C38.9761 25.6648 39.334 25.5833 39.6371 25.4205C39.9401 25.2538 40.1731 25.0341 40.3359 24.7614C40.5026 24.4886 40.5859 24.1913 40.5859 23.8693V22.8409C40.5215 22.8939 40.4117 22.9432 40.2564 22.9886C40.1049 23.0341 39.9344 23.0739 39.745 23.108C39.5556 23.142 39.3681 23.1723 39.1825 23.1989C38.9969 23.2254 38.8359 23.2481 38.6996 23.267C38.3928 23.3087 38.1181 23.3769 37.8757 23.4716C37.6333 23.5663 37.442 23.6989 37.3018 23.8693C37.1617 24.036 37.0916 24.2519 37.0916 24.517C37.0916 24.8958 37.2299 25.1818 37.5064 25.375C37.7829 25.5682 38.1352 25.6648 38.5632 25.6648ZM52.1882 18.2727L49.0803 27H46.8075L43.6996 18.2727H45.8928L47.8984 24.7557H47.9893L50.0007 18.2727H52.1882ZM57.1783 27.1705C56.3033 27.1705 55.5476 26.9886 54.9112 26.625C54.2786 26.2576 53.7919 25.7386 53.451 25.0682C53.1101 24.3939 52.9396 23.6004 52.9396 22.6875C52.9396 21.7898 53.1101 21.0019 53.451 20.3239C53.7957 19.642 54.2768 19.1117 54.8942 18.733C55.5116 18.3504 56.237 18.1591 57.0703 18.1591C57.6082 18.1591 58.1158 18.2462 58.593 18.4205C59.0741 18.5909 59.4983 18.8561 59.8658 19.2159C60.237 19.5758 60.5286 20.0341 60.7408 20.5909C60.9529 21.1439 61.0589 21.803 61.0589 22.5682V23.1989H53.9055V21.8125H59.0874C59.0836 21.4186 58.9983 21.0682 58.8317 20.7614C58.665 20.4508 58.4321 20.2064 58.1328 20.0284C57.8374 19.8504 57.4927 19.7614 57.0987 19.7614C56.6783 19.7614 56.3089 19.8636 55.9908 20.0682C55.6726 20.2689 55.4245 20.5341 55.2464 20.8636C55.0722 21.1894 54.9832 21.5473 54.9794 21.9375V23.1477C54.9794 23.6553 55.0722 24.0909 55.2578 24.4545C55.4434 24.8144 55.7029 25.0909 56.0362 25.2841C56.3696 25.4735 56.7597 25.5682 57.2067 25.5682C57.5059 25.5682 57.7768 25.5265 58.0192 25.4432C58.2616 25.3561 58.4718 25.2292 58.6499 25.0625C58.8279 24.8958 58.9624 24.6894 59.0533 24.4432L60.9737 24.6591C60.8525 25.1667 60.6214 25.6098 60.2805 25.9886C59.9434 26.3636 59.5116 26.6553 58.9851 26.8636C58.4586 27.0682 57.8563 27.1705 57.1783 27.1705ZM70.5746 27.1705C69.7034 27.1705 68.9553 26.9792 68.3303 26.5966C67.709 26.214 67.2299 25.6856 66.8928 25.0114C66.5594 24.3333 66.3928 23.553 66.3928 22.6705C66.3928 21.7841 66.5632 21.0019 66.9041 20.3239C67.245 19.642 67.7261 19.1117 68.3473 18.733C68.9723 18.3504 69.7109 18.1591 70.5632 18.1591C71.2715 18.1591 71.8984 18.2898 72.4439 18.5511C72.9931 18.8087 73.4306 19.1742 73.7564 19.6477C74.0821 20.1174 74.2678 20.6667 74.3132 21.2955H72.3473C72.2678 20.875 72.0784 20.5246 71.7791 20.2443C71.4837 19.9602 71.0878 19.8182 70.5916 19.8182C70.1712 19.8182 69.8018 19.9318 69.4837 20.1591C69.1655 20.3826 68.9174 20.7045 68.7393 21.125C68.5651 21.5455 68.478 22.0492 68.478 22.6364C68.478 23.2311 68.5651 23.7424 68.7393 24.1705C68.9136 24.5947 69.1579 24.9223 69.4723 25.1534C69.7905 25.3807 70.1636 25.4943 70.5916 25.4943C70.8946 25.4943 71.1655 25.4375 71.4041 25.3239C71.6465 25.2064 71.8492 25.0379 72.0121 24.8182C72.175 24.5985 72.2867 24.3314 72.3473 24.017H74.3132C74.264 24.6345 74.0821 25.1818 73.7678 25.6591C73.4534 26.1326 73.0253 26.5038 72.4837 26.7727C71.942 27.0379 71.3056 27.1705 70.5746 27.1705ZM78.0589 21.8864V27H76.0021V15.3636H78.0135V19.7557H78.1158C78.3203 19.2633 78.6366 18.875 79.0646 18.5909C79.4964 18.303 80.0457 18.1591 80.7124 18.1591C81.3184 18.1591 81.8468 18.286 82.2976 18.5398C82.7483 18.7936 83.0968 19.1648 83.343 19.6534C83.593 20.142 83.718 20.7386 83.718 21.4432V27H81.6612V21.7614C81.6612 21.1742 81.5097 20.7178 81.2067 20.392C80.9074 20.0625 80.487 19.8977 79.9453 19.8977C79.5817 19.8977 79.2559 19.9773 78.968 20.1364C78.6839 20.2917 78.4605 20.517 78.2976 20.8125C78.1385 21.108 78.0589 21.4659 78.0589 21.8864ZM88.326 27.1761C87.773 27.1761 87.2749 27.0777 86.8317 26.8807C86.3923 26.6799 86.0438 26.3845 85.7862 25.9943C85.5324 25.6042 85.4055 25.1231 85.4055 24.5511C85.4055 24.0587 85.4964 23.6515 85.6783 23.3295C85.8601 23.0076 86.1082 22.75 86.4226 22.5568C86.737 22.3636 87.0911 22.2178 87.4851 22.1193C87.8828 22.017 88.2938 21.9432 88.718 21.8977C89.2294 21.8447 89.6442 21.7973 89.9624 21.7557C90.2805 21.7102 90.5116 21.642 90.6555 21.5511C90.8033 21.4564 90.8771 21.3106 90.8771 21.1136V21.0795C90.8771 20.6515 90.7502 20.3201 90.4964 20.0852C90.2427 19.8504 89.8771 19.733 89.3999 19.733C88.8961 19.733 88.4964 19.8428 88.201 20.0625C87.9093 20.2822 87.7124 20.5417 87.6101 20.8409L85.6896 20.5682C85.8411 20.0379 86.0911 19.5947 86.4396 19.2386C86.7881 18.8788 87.2143 18.6098 87.718 18.4318C88.2218 18.25 88.7786 18.1591 89.3885 18.1591C89.8089 18.1591 90.2275 18.2083 90.6442 18.3068C91.0608 18.4053 91.4415 18.5682 91.7862 18.7955C92.1309 19.0189 92.4074 19.3239 92.6158 19.7102C92.8279 20.0966 92.9339 20.5795 92.9339 21.1591V27H90.9567V25.8011H90.8885C90.7635 26.0436 90.5874 26.2708 90.3601 26.483C90.1366 26.6913 89.8544 26.8598 89.5135 26.9886C89.1764 27.1136 88.7805 27.1761 88.326 27.1761ZM88.8601 25.6648C89.273 25.6648 89.6309 25.5833 89.9339 25.4205C90.237 25.2538 90.4699 25.0341 90.6328 24.7614C90.7995 24.4886 90.8828 24.1913 90.8828 23.8693V22.8409C90.8184 22.8939 90.7086 22.9432 90.5533 22.9886C90.4018 23.0341 90.2313 23.0739 90.0419 23.108C89.8525 23.142 89.665 23.1723 89.4794 23.1989C89.2938 23.2254 89.1328 23.2481 88.9964 23.267C88.6896 23.3087 88.415 23.3769 88.1726 23.4716C87.9302 23.5663 87.7389 23.6989 87.5987 23.8693C87.4586 24.036 87.3885 24.2519 87.3885 24.517C87.3885 24.8958 87.5268 25.1818 87.8033 25.375C88.0798 25.5682 88.4321 25.6648 88.8601 25.6648ZM97.0589 21.8864V27H95.0021V18.2727H96.968V19.7557H97.0703C97.2711 19.267 97.5911 18.8788 98.0305 18.5909C98.4737 18.303 99.0211 18.1591 99.6726 18.1591C100.275 18.1591 100.799 18.2879 101.246 18.5455C101.697 18.803 102.046 19.1761 102.292 19.6648C102.542 20.1534 102.665 20.7462 102.661 21.4432V27H100.604V21.7614C100.604 21.178 100.453 20.7216 100.15 20.392C99.8506 20.0625 99.4358 19.8977 98.9055 19.8977C98.5457 19.8977 98.2256 19.9773 97.9453 20.1364C97.6688 20.2917 97.451 20.517 97.2919 20.8125C97.1366 21.108 97.0589 21.4659 97.0589 21.8864ZM108.548 30.4545C107.809 30.4545 107.174 30.3542 106.644 30.1534C106.114 29.9564 105.688 29.6913 105.366 29.358C105.044 29.0246 104.82 28.6553 104.695 28.25L106.548 27.8011C106.631 27.9716 106.752 28.1402 106.911 28.3068C107.07 28.4773 107.284 28.6174 107.553 28.7273C107.826 28.8409 108.169 28.8977 108.582 28.8977C109.165 28.8977 109.648 28.7557 110.031 28.4716C110.413 28.1913 110.604 27.7292 110.604 27.0852V25.4318H110.502C110.396 25.6439 110.241 25.8617 110.036 26.0852C109.835 26.3087 109.568 26.4962 109.235 26.6477C108.906 26.7992 108.491 26.875 107.991 26.875C107.32 26.875 106.712 26.7178 106.167 26.4034C105.625 26.0852 105.193 25.6117 104.871 24.983C104.553 24.3504 104.394 23.5587 104.394 22.608C104.394 21.6496 104.553 20.8409 104.871 20.1818C105.193 19.5189 105.627 19.017 106.173 18.6761C106.718 18.3314 107.326 18.1591 107.996 18.1591C108.508 18.1591 108.928 18.2462 109.258 18.4205C109.591 18.5909 109.856 18.7973 110.053 19.0398C110.25 19.2784 110.4 19.5038 110.502 19.7159H110.616V18.2727H112.644V27.142C112.644 27.8883 112.466 28.5057 112.11 28.9943C111.754 29.483 111.267 29.8485 110.65 30.0909C110.032 30.3333 109.332 30.4545 108.548 30.4545ZM108.565 25.2614C109 25.2614 109.371 25.1553 109.678 24.9432C109.985 24.7311 110.218 24.4261 110.377 24.0284C110.536 23.6307 110.616 23.1534 110.616 22.5966C110.616 22.0473 110.536 21.5663 110.377 21.1534C110.222 20.7405 109.991 20.4205 109.684 20.1932C109.381 19.9621 109.008 19.8466 108.565 19.8466C108.106 19.8466 107.724 19.9659 107.417 20.2045C107.11 20.4432 106.879 20.7708 106.724 21.1875C106.568 21.6004 106.491 22.0701 106.491 22.5966C106.491 23.1307 106.568 23.5985 106.724 24C106.883 24.3977 107.116 24.7083 107.423 24.9318C107.733 25.1515 108.114 25.2614 108.565 25.2614ZM118.616 27.1705C117.741 27.1705 116.985 26.9886 116.349 26.625C115.716 26.2576 115.229 25.7386 114.888 25.0682C114.548 24.3939 114.377 23.6004 114.377 22.6875C114.377 21.7898 114.548 21.0019 114.888 20.3239C115.233 19.642 115.714 19.1117 116.332 18.733C116.949 18.3504 117.674 18.1591 118.508 18.1591C119.046 18.1591 119.553 18.2462 120.031 18.4205C120.512 18.5909 120.936 18.8561 121.303 19.2159C121.674 19.5758 121.966 20.0341 122.178 20.5909C122.39 21.1439 122.496 21.803 122.496 22.5682V23.1989H115.343V21.8125H120.525C120.521 21.4186 120.436 21.0682 120.269 20.7614C120.103 20.4508 119.87 20.2064 119.57 20.0284C119.275 19.8504 118.93 19.7614 118.536 19.7614C118.116 19.7614 117.746 19.8636 117.428 20.0682C117.11 20.2689 116.862 20.5341 116.684 20.8636C116.51 21.1894 116.421 21.5473 116.417 21.9375V23.1477C116.417 23.6553 116.51 24.0909 116.695 24.4545C116.881 24.8144 117.14 25.0909 117.474 25.2841C117.807 25.4735 118.197 25.5682 118.644 25.5682C118.943 25.5682 119.214 25.5265 119.457 25.4432C119.699 25.3561 119.909 25.2292 120.087 25.0625C120.265 24.8958 120.4 24.6894 120.491 24.4432L122.411 24.6591C122.29 25.1667 122.059 25.6098 121.718 25.9886C121.381 26.3636 120.949 26.6553 120.423 26.8636C119.896 27.0682 119.294 27.1705 118.616 27.1705ZM131.134 20.5795L129.259 20.7841C129.206 20.5947 129.113 20.4167 128.981 20.25C128.852 20.0833 128.678 19.9489 128.458 19.8466C128.238 19.7443 127.969 19.6932 127.651 19.6932C127.223 19.6932 126.863 19.786 126.572 19.9716C126.284 20.1572 126.142 20.3977 126.146 20.6932C126.142 20.947 126.235 21.1534 126.424 21.3125C126.617 21.4716 126.935 21.6023 127.379 21.7045L128.867 22.0227C129.693 22.2008 130.307 22.483 130.708 22.8693C131.113 23.2557 131.318 23.7614 131.322 24.3864C131.318 24.9356 131.157 25.4205 130.839 25.8409C130.524 26.2576 130.087 26.5833 129.526 26.8182C128.966 27.053 128.322 27.1705 127.594 27.1705C126.526 27.1705 125.666 26.947 125.015 26.5C124.363 26.0492 123.975 25.4223 123.85 24.6193L125.856 24.4261C125.947 24.8201 126.14 25.1174 126.435 25.3182C126.731 25.5189 127.115 25.6193 127.589 25.6193C128.077 25.6193 128.469 25.5189 128.765 25.3182C129.064 25.1174 129.214 24.8693 129.214 24.5739C129.214 24.3239 129.117 24.1174 128.924 23.9545C128.735 23.7917 128.439 23.6667 128.038 23.5795L126.549 23.267C125.712 23.0928 125.093 22.7992 124.691 22.3864C124.29 21.9697 124.091 21.4432 124.094 20.8068C124.091 20.2689 124.237 19.803 124.532 19.4091C124.831 19.0114 125.246 18.7045 125.776 18.4886C126.31 18.2689 126.926 18.1591 127.623 18.1591C128.646 18.1591 129.451 18.3769 130.038 18.8125C130.629 19.2481 130.994 19.8371 131.134 20.5795ZM33.1072 51.1761C32.5542 51.1761 32.0561 51.0777 31.6129 50.8807C31.1735 50.6799 30.825 50.3845 30.5675 49.9943C30.3137 49.6042 30.1868 49.1231 30.1868 48.5511C30.1868 48.0587 30.2777 47.6515 30.4595 47.3295C30.6413 47.0076 30.8894 46.75 31.2038 46.5568C31.5182 46.3636 31.8724 46.2178 32.2663 46.1193C32.6641 46.017 33.075 45.9432 33.4993 45.8977C34.0107 45.8447 34.4254 45.7973 34.7436 45.7557C35.0618 45.7102 35.2929 45.642 35.4368 45.5511C35.5845 45.4564 35.6584 45.3106 35.6584 45.1136V45.0795C35.6584 44.6515 35.5315 44.3201 35.2777 44.0852C35.0239 43.8504 34.6584 43.733 34.1811 43.733C33.6773 43.733 33.2777 43.8428 32.9822 44.0625C32.6906 44.2822 32.4936 44.5417 32.3913 44.8409L30.4709 44.5682C30.6224 44.0379 30.8724 43.5947 31.2209 43.2386C31.5694 42.8788 31.9955 42.6098 32.4993 42.4318C33.0031 42.25 33.5599 42.1591 34.1697 42.1591C34.5902 42.1591 35.0088 42.2083 35.4254 42.3068C35.8421 42.4053 36.2228 42.5682 36.5675 42.7955C36.9122 43.0189 37.1887 43.3239 37.397 43.7102C37.6091 44.0966 37.7152 44.5795 37.7152 45.1591V51H35.7379V49.8011H35.6697C35.5447 50.0436 35.3686 50.2708 35.1413 50.483C34.9179 50.6913 34.6357 50.8598 34.2947 50.9886C33.9576 51.1136 33.5618 51.1761 33.1072 51.1761ZM33.6413 49.6648C34.0542 49.6648 34.4122 49.5833 34.7152 49.4205C35.0182 49.2538 35.2512 49.0341 35.4141 48.7614C35.5807 48.4886 35.6641 48.1913 35.6641 47.8693V46.8409C35.5997 46.8939 35.4898 46.9432 35.3345 46.9886C35.183 47.0341 35.0125 47.0739 34.8232 47.108C34.6338 47.142 34.4463 47.1723 34.2607 47.1989C34.075 47.2254 33.9141 47.2481 33.7777 47.267C33.4709 47.3087 33.1963 47.3769 32.9538 47.4716C32.7114 47.5663 32.5201 47.6989 32.38 47.8693C32.2398 48.036 32.1697 48.2519 32.1697 48.517C32.1697 48.8958 32.308 49.1818 32.5845 49.375C32.861 49.5682 33.2133 49.6648 33.6413 49.6648ZM41.8402 45.8864V51H39.7834V42.2727H41.7493V43.7557H41.8516C42.0523 43.267 42.3724 42.8788 42.8118 42.5909C43.255 42.303 43.8023 42.1591 44.4538 42.1591C45.0561 42.1591 45.5807 42.2879 46.0277 42.5455C46.4785 42.803 46.8269 43.1761 47.0732 43.6648C47.3232 44.1534 47.4463 44.7462 47.4425 45.4432V51H45.3857V45.7614C45.3857 45.178 45.2341 44.7216 44.9311 44.392C44.6319 44.0625 44.2171 43.8977 43.6868 43.8977C43.3269 43.8977 43.0069 43.9773 42.7266 44.1364C42.45 44.2917 42.2322 44.517 42.0732 44.8125C41.9179 45.108 41.8402 45.4659 41.8402 45.8864ZM52.772 51.1534C52.0864 51.1534 51.4728 50.9773 50.9311 50.625C50.3894 50.2727 49.9614 49.7614 49.647 49.0909C49.3326 48.4205 49.1754 47.6061 49.1754 46.6477C49.1754 45.678 49.3345 44.8598 49.6527 44.1932C49.9747 43.5227 50.4084 43.017 50.9538 42.6761C51.4993 42.3314 52.1072 42.1591 52.7777 42.1591C53.2891 42.1591 53.7095 42.2462 54.0391 42.4205C54.3686 42.5909 54.63 42.7973 54.8232 43.0398C55.0163 43.2784 55.166 43.5038 55.272 43.7159H55.3572V39.3636H57.4197V51H55.397V49.625H55.272C55.166 49.8371 55.0125 50.0625 54.8118 50.3011C54.611 50.536 54.3459 50.7367 54.0163 50.9034C53.6868 51.0701 53.272 51.1534 52.772 51.1534ZM53.3459 49.4659C53.7815 49.4659 54.1527 49.3485 54.4595 49.1136C54.7663 48.875 54.9993 48.5436 55.1584 48.1193C55.3175 47.6951 55.397 47.2008 55.397 46.6364C55.397 46.072 55.3175 45.5814 55.1584 45.1648C55.0031 44.7481 54.772 44.4242 54.4652 44.1932C54.1622 43.9621 53.7891 43.8466 53.3459 43.8466C52.8875 43.8466 52.505 43.9659 52.1982 44.2045C51.8913 44.4432 51.6603 44.7727 51.505 45.1932C51.3497 45.6136 51.272 46.0947 51.272 46.6364C51.272 47.1818 51.3497 47.6686 51.505 48.0966C51.6641 48.5208 51.897 48.8561 52.2038 49.1023C52.5144 49.3447 52.8951 49.4659 53.3459 49.4659ZM67.3871 51.1705C66.5159 51.1705 65.7678 50.9792 65.1428 50.5966C64.5215 50.214 64.0424 49.6856 63.7053 49.0114C63.3719 48.3333 63.2053 47.553 63.2053 46.6705C63.2053 45.7841 63.3757 45.0019 63.7166 44.3239C64.0575 43.642 64.5386 43.1117 65.1598 42.733C65.7848 42.3504 66.5234 42.1591 67.3757 42.1591C68.084 42.1591 68.7109 42.2898 69.2564 42.5511C69.8056 42.8087 70.2431 43.1742 70.5689 43.6477C70.8946 44.1174 71.0803 44.6667 71.1257 45.2955H69.1598C69.0803 44.875 68.8909 44.5246 68.5916 44.2443C68.2962 43.9602 67.9003 43.8182 67.4041 43.8182C66.9837 43.8182 66.6143 43.9318 66.2962 44.1591C65.978 44.3826 65.7299 44.7045 65.5518 45.125C65.3776 45.5455 65.2905 46.0492 65.2905 46.6364C65.2905 47.2311 65.3776 47.7424 65.5518 48.1705C65.7261 48.5947 65.9704 48.9223 66.2848 49.1534C66.603 49.3807 66.9761 49.4943 67.4041 49.4943C67.7071 49.4943 67.978 49.4375 68.2166 49.3239C68.459 49.2064 68.6617 49.0379 68.8246 48.8182C68.9875 48.5985 69.0992 48.3314 69.1598 48.017H71.1257C71.0765 48.6345 70.8946 49.1818 70.5803 49.6591C70.2659 50.1326 69.8378 50.5038 69.2962 50.7727C68.7545 51.0379 68.1181 51.1705 67.3871 51.1705ZM76.6214 51.1705C75.7692 51.1705 75.0305 50.983 74.4055 50.608C73.7805 50.233 73.2957 49.7083 72.951 49.0341C72.6101 48.3598 72.4396 47.572 72.4396 46.6705C72.4396 45.7689 72.6101 44.9792 72.951 44.3011C73.2957 43.6231 73.7805 43.0966 74.4055 42.7216C75.0305 42.3466 75.7692 42.1591 76.6214 42.1591C77.4737 42.1591 78.2124 42.3466 78.8374 42.7216C79.4624 43.0966 79.9453 43.6231 80.2862 44.3011C80.6309 44.9792 80.8033 45.7689 80.8033 46.6705C80.8033 47.572 80.6309 48.3598 80.2862 49.0341C79.9453 49.7083 79.4624 50.233 78.8374 50.608C78.2124 50.983 77.4737 51.1705 76.6214 51.1705ZM76.6328 49.5227C77.0949 49.5227 77.4813 49.3958 77.7919 49.142C78.1025 48.8845 78.3336 48.5398 78.4851 48.108C78.6404 47.6761 78.718 47.1951 78.718 46.6648C78.718 46.1307 78.6404 45.6477 78.4851 45.2159C78.3336 44.7803 78.1025 44.4337 77.7919 44.1761C77.4813 43.9186 77.0949 43.7898 76.6328 43.7898C76.1593 43.7898 75.7654 43.9186 75.451 44.1761C75.1404 44.4337 74.9074 44.7803 74.7521 45.2159C74.6006 45.6477 74.5249 46.1307 74.5249 46.6648C74.5249 47.1951 74.6006 47.6761 74.7521 48.108C74.9074 48.5398 75.1404 48.8845 75.451 49.142C75.7654 49.3958 76.1593 49.5227 76.6328 49.5227ZM84.6058 45.8864V51H82.549V42.2727H84.5149V43.7557H84.6172C84.8179 43.267 85.138 42.8788 85.5774 42.5909C86.0206 42.303 86.5679 42.1591 87.2195 42.1591C87.8217 42.1591 88.3464 42.2879 88.7933 42.5455C89.2441 42.803 89.5926 43.1761 89.8388 43.6648C90.0888 44.1534 90.2119 44.7462 90.2081 45.4432V51H88.1513V45.7614C88.1513 45.178 87.9998 44.7216 87.6967 44.392C87.3975 44.0625 86.9827 43.8977 86.4524 43.8977C86.0926 43.8977 85.7725 43.9773 85.4922 44.1364C85.2157 44.2917 84.9979 44.517 84.8388 44.8125C84.6835 45.108 84.6058 45.4659 84.6058 45.8864ZM96.657 42.2727V43.8636H91.6399V42.2727H96.657ZM92.8786 40.1818H94.9354V48.375C94.9354 48.6515 94.977 48.8636 95.0604 49.0114C95.1475 49.1553 95.2611 49.2538 95.4013 49.3068C95.5414 49.3598 95.6967 49.3864 95.8672 49.3864C95.996 49.3864 96.1134 49.3769 96.2195 49.358C96.3293 49.339 96.4126 49.322 96.4695 49.3068L96.8161 50.9148C96.7062 50.9527 96.549 50.9943 96.3445 51.0398C96.1437 51.0852 95.8975 51.1117 95.6058 51.1193C95.0907 51.1345 94.6267 51.0568 94.2138 50.8864C93.8009 50.7121 93.4732 50.4432 93.2308 50.0795C92.9922 49.7159 92.8748 49.2614 92.8786 48.7159V40.1818ZM98.3771 51V42.2727H100.434V51H98.3771ZM99.4112 41.0341C99.0855 41.0341 98.8052 40.9261 98.5703 40.7102C98.3355 40.4905 98.218 40.2273 98.218 39.9205C98.218 39.6098 98.3355 39.3466 98.5703 39.1307C98.8052 38.911 99.0855 38.8011 99.4112 38.8011C99.7408 38.8011 100.021 38.911 100.252 39.1307C100.487 39.3466 100.604 39.6098 100.604 39.9205C100.604 40.2273 100.487 40.4905 100.252 40.7102C100.021 40.9261 99.7408 41.0341 99.4112 41.0341ZM104.606 45.8864V51H102.549V42.2727H104.515V43.7557H104.617C104.818 43.267 105.138 42.8788 105.577 42.5909C106.021 42.303 106.568 42.1591 107.219 42.1591C107.822 42.1591 108.346 42.2879 108.793 42.5455C109.244 42.803 109.593 43.1761 109.839 43.6648C110.089 44.1534 110.212 44.7462 110.208 45.4432V51H108.151V45.7614C108.151 45.178 108 44.7216 107.697 44.392C107.397 44.0625 106.983 43.8977 106.452 43.8977C106.093 43.8977 105.772 43.9773 105.492 44.1364C105.216 44.2917 104.998 44.517 104.839 44.8125C104.683 45.108 104.606 45.4659 104.606 45.8864ZM117.862 47.3295V42.2727H119.918V51H117.924V49.4489H117.833C117.636 49.9375 117.312 50.3371 116.862 50.6477C116.415 50.9583 115.863 51.1136 115.208 51.1136C114.636 51.1136 114.13 50.9867 113.691 50.733C113.255 50.4754 112.915 50.1023 112.668 49.6136C112.422 49.1212 112.299 48.5265 112.299 47.8295V42.2727H114.356V47.5114C114.356 48.0644 114.507 48.5038 114.81 48.8295C115.113 49.1553 115.511 49.3182 116.004 49.3182C116.307 49.3182 116.6 49.2443 116.884 49.0966C117.168 48.9489 117.401 48.7292 117.583 48.4375C117.769 48.142 117.862 47.7727 117.862 47.3295ZM125.897 51.1705C125.022 51.1705 124.266 50.9886 123.63 50.625C122.997 50.2576 122.511 49.7386 122.17 49.0682C121.829 48.3939 121.658 47.6004 121.658 46.6875C121.658 45.7898 121.829 45.0019 122.17 44.3239C122.514 43.642 122.996 43.1117 123.613 42.733C124.23 42.3504 124.956 42.1591 125.789 42.1591C126.327 42.1591 126.835 42.2462 127.312 42.4205C127.793 42.5909 128.217 42.8561 128.585 43.2159C128.956 43.5758 129.247 44.0341 129.46 44.5909C129.672 45.1439 129.778 45.803 129.778 46.5682V47.1989H122.624V45.8125H127.806C127.802 45.4186 127.717 45.0682 127.55 44.7614C127.384 44.4508 127.151 44.2064 126.852 44.0284C126.556 43.8504 126.211 43.7614 125.817 43.7614C125.397 43.7614 125.028 43.8636 124.71 44.0682C124.391 44.2689 124.143 44.5341 123.965 44.8636C123.791 45.1894 123.702 45.5473 123.698 45.9375V47.1477C123.698 47.6553 123.791 48.0909 123.977 48.4545C124.162 48.8144 124.422 49.0909 124.755 49.2841C125.088 49.4735 125.478 49.5682 125.925 49.5682C126.225 49.5682 126.496 49.5265 126.738 49.4432C126.98 49.3561 127.191 49.2292 127.369 49.0625C127.547 48.8958 127.681 48.6894 127.772 48.4432L129.692 48.6591C129.571 49.1667 129.34 49.6098 128.999 49.9886C128.662 50.3636 128.23 50.6553 127.704 50.8636C127.177 51.0682 126.575 51.1705 125.897 51.1705Z" fill="#545454"/>
<path d="M4 0.5H156C157.933 0.5 159.5 2.067 159.5 4V62C159.5 63.933 157.933 65.5 156 65.5H4C2.067 65.5 0.5 63.933 0.5 62V4C0.5 2.067 2.067 0.5 4 0.5Z" stroke="#AFAFAF"/>
</svg>
