<svg width="160" height="66" fill="none" xmlns="http://www.w3.org/2000/svg"><path d="M4 .5h152a3.5 3.5 0 0 1 3.5 3.5v58a3.5 3.5 0 0 1-3.5 3.5H4A3.5 3.5 0 0 1 .5 62V4A3.5 3.5 0 0 1 4 .5Z" fill="#fff"/><path d="M31.54 18.56c-.05-.5-.27-.88-.67-1.16-.39-.27-.9-.41-1.52-.41-.44 0-.82.06-1.13.2-.32.13-.56.31-.72.54a1.31 1.31 0 0 0-.1 1.4c.12.18.27.34.47.46.19.12.4.22.64.3.23.1.47.16.7.22l1.1.27a7 7 0 0 1 1.27.42c.4.17.77.39 1.1.65.32.27.58.59.77.96.18.38.28.82.28 1.32a3.15 3.15 0 0 1-2.03 3.01 5.9 5.9 0 0 1-2.39.44c-.9 0-1.69-.14-2.35-.42a3.51 3.51 0 0 1-1.56-1.23 3.64 3.64 0 0 1-.6-1.97h2.07a1.76 1.76 0 0 0 1.23 1.62c.36.13.76.2 1.2.2.46 0 .86-.07 1.2-.2.35-.15.62-.34.82-.59.2-.25.3-.54.3-.87 0-.3-.1-.56-.27-.75-.17-.2-.41-.37-.73-.5a7.05 7.05 0 0 0-1.09-.37l-1.32-.34a5.33 5.33 0 0 1-2.28-1.12 2.58 2.58 0 0 1-.83-2 3 3 0 0 1 .56-1.8c.38-.52.89-.92 1.53-1.2a5.3 5.3 0 0 1 2.19-.44c.82 0 1.55.15 2.17.44a3.6 3.6 0 0 1 1.47 1.18 3 3 0 0 1 .55 1.74h-2.03Zm6.49 8.62c-.55 0-1.05-.1-1.5-.3a2.5 2.5 0 0 1-1.04-.89 2.6 2.6 0 0 1-.38-1.44 2.11 2.11 0 0 1 1.02-2c.31-.19.66-.33 1.06-.43.4-.1.8-.18 1.23-.22l1.25-.14c.31-.05.54-.12.69-.2.15-.1.22-.25.22-.45v-.03c0-.43-.13-.76-.38-1-.25-.23-.62-.35-1.1-.35-.5 0-.9.11-1.2.33a1.7 1.7 0 0 0-.59.78l-1.92-.27a3.07 3.07 0 0 1 2.03-2.14 5.44 5.44 0 0 1 2.93-.13c.41.1.8.27 1.14.5.34.22.62.52.83.91.21.39.32.87.32 1.45V27h-1.98v-1.2h-.07a2.51 2.51 0 0 1-1.37 1.2 3.6 3.6 0 0 1-1.2.19Zm.53-1.52c.42 0 .77-.08 1.08-.24a1.74 1.74 0 0 0 .95-1.56v-1.02a.97.97 0 0 1-.33.15l-.52.12a16.16 16.16 0 0 1-1.04.16c-.3.04-.58.1-.82.2-.25.1-.44.23-.58.4a.97.97 0 0 0-.2.65c0 .38.13.66.4.86.28.19.64.28 1.06.28Zm13.63-7.39L49.08 27h-2.27l-3.11-8.73h2.2l2 6.49h.09L50 18.27h2.19Zm4.99 8.9a4.5 4.5 0 0 1-2.27-.55 3.7 3.7 0 0 1-1.46-1.55 5.21 5.21 0 0 1-.51-2.38c0-.9.17-1.69.51-2.37a3.87 3.87 0 0 1 3.62-2.16c.54 0 1.05.09 1.52.26a3.59 3.59 0 0 1 2.15 2.17c.21.55.32 1.21.32 1.98v.63H53.9v-1.4h5.18c0-.4-.1-.74-.26-1.05a1.89 1.89 0 0 0-1.73-1 2 2 0 0 0-1.1.3 2.22 2.22 0 0 0-1.02 1.88v1.2c0 .52.1.95.28 1.31.18.36.44.64.78.83.33.2.72.29 1.17.29.3 0 .57-.04.8-.13a1.65 1.65 0 0 0 1.04-1l1.92.22a3 3 0 0 1-.69 1.33c-.34.37-.77.67-1.3.87-.52.2-1.12.31-1.8.31Zm13.4 0a3.83 3.83 0 0 1-3.68-2.16 5.24 5.24 0 0 1-.5-2.34c0-.89.16-1.67.5-2.35.34-.68.83-1.2 1.45-1.59a4.16 4.16 0 0 1 2.21-.57c.71 0 1.34.13 1.88.4a3.21 3.21 0 0 1 1.87 2.74h-1.96a1.88 1.88 0 0 0-.57-1.06c-.3-.28-.7-.42-1.19-.42-.42 0-.79.11-1.1.34-.32.22-.57.54-.75.96a4.1 4.1 0 0 0-.26 1.52c0 .6.09 1.1.26 1.53.17.42.42.75.73.98.32.23.7.34 1.12.34.3 0 .58-.05.81-.17.25-.11.45-.28.61-.5a2 2 0 0 0 .34-.8h1.96a3.23 3.23 0 0 1-1.83 2.76 4.3 4.3 0 0 1-1.9.39Zm7.48-5.28V27H76V15.36h2.01v4.4h.1c.21-.5.53-.89.95-1.17.44-.29.99-.43 1.65-.43.6 0 1.14.13 1.59.38.45.25.8.62 1.04 1.11.25.5.38 1.09.38 1.8V27h-2.06v-5.24c0-.59-.15-1.04-.45-1.37-.3-.33-.72-.5-1.26-.5-.37 0-.7.09-.98.25a1.6 1.6 0 0 0-.67.67c-.16.3-.24.66-.24 1.08Zm10.27 5.29c-.56 0-1.06-.1-1.5-.3-.44-.2-.79-.5-1.04-.89a2.6 2.6 0 0 1-.38-1.44 2.11 2.11 0 0 1 1.02-2c.3-.19.66-.33 1.06-.43.4-.1.8-.18 1.23-.22l1.24-.14c.32-.05.55-.12.7-.2.14-.1.22-.25.22-.45v-.03c0-.43-.13-.76-.38-1a1.6 1.6 0 0 0-1.1-.35c-.5 0-.9.11-1.2.33-.3.22-.49.48-.59.78l-1.92-.27a3.07 3.07 0 0 1 2.03-2.14 5.44 5.44 0 0 1 2.93-.13c.41.1.8.27 1.14.5.34.22.62.52.83.91.2.39.31.87.31 1.45V27h-1.97v-1.2h-.07A2.51 2.51 0 0 1 89.5 27c-.33.12-.73.19-1.18.19Zm.53-1.52c.41 0 .77-.08 1.07-.24.3-.17.54-.39.7-.66.17-.27.25-.57.25-.9v-1.02a.97.97 0 0 1-.33.15l-.5.12a16.16 16.16 0 0 1-1.05.16c-.31.04-.58.1-.83.2-.24.1-.43.23-.57.4a.97.97 0 0 0-.21.65 1 1 0 0 0 .41.86c.28.19.63.28 1.06.28Zm8.2-3.77V27H95v-8.73h1.97v1.49h.1c.2-.5.52-.88.96-1.17.44-.29 1-.43 1.64-.43.6 0 1.13.13 1.58.39.45.25.8.63 1.04 1.11.25.5.38 1.09.37 1.78V27h-2.06v-5.24c0-.58-.15-1.04-.45-1.37a1.6 1.6 0 0 0-1.24-.5c-.36 0-.68.09-.96.25-.28.15-.5.38-.66.67-.15.3-.23.66-.23 1.08Zm11.49 8.56c-.74 0-1.38-.1-1.9-.3-.54-.2-.96-.46-1.28-.8-.33-.33-.55-.7-.68-1.1l1.86-.45c.08.17.2.34.36.5.16.18.37.32.64.43.28.11.62.17 1.03.17.59 0 1.07-.14 1.45-.43.38-.28.57-.74.57-1.38v-1.66h-.1a2.59 2.59 0 0 1-2.51 1.45 3.38 3.38 0 0 1-3.12-1.9 5.26 5.26 0 0 1-.48-2.37c0-.96.16-1.77.48-2.43a3.34 3.34 0 0 1 4.39-1.76c.33.17.6.38.8.62.19.24.34.46.44.68h.12v-1.45h2.02v8.87a3 3 0 0 1-.53 1.85 3.2 3.2 0 0 1-1.46 1.1c-.62.24-1.32.36-2.1.36Zm.02-5.19c.43 0 .8-.1 1.1-.32.31-.2.55-.51.7-.91.17-.4.25-.88.25-1.43a4 4 0 0 0-.24-1.45 2.06 2.06 0 0 0-.7-.96 1.8 1.8 0 0 0-1.12-.34c-.45 0-.84.12-1.14.35a2.2 2.2 0 0 0-.7.99c-.15.41-.23.88-.23 1.4 0 .54.08 1 .23 1.41.16.4.4.7.7.93.31.22.7.33 1.14.33Zm10.05 1.91a4.5 4.5 0 0 1-2.27-.55 3.7 3.7 0 0 1-1.46-1.55 5.23 5.23 0 0 1-.51-2.38c0-.9.17-1.69.5-2.37a3.87 3.87 0 0 1 3.63-2.16c.54 0 1.04.09 1.52.26s.9.44 1.27.8c.37.36.67.81.88 1.37.21.55.32 1.21.32 1.98v.63h-7.16v-1.4h5.19c0-.4-.1-.74-.26-1.05-.17-.3-.4-.55-.7-.73-.3-.18-.64-.27-1.03-.27a2 2 0 0 0-1.11.3c-.32.2-.57.47-.75.8a2.3 2.3 0 0 0-.26 1.08v1.2c0 .52.09.95.27 1.31.2.36.45.64.78.83.34.2.73.29 1.17.29.3 0 .57-.04.82-.13.24-.08.45-.21.63-.38.17-.16.31-.37.4-.62l1.92.22c-.12.5-.35.95-.7 1.33-.33.37-.76.67-1.29.87-.52.2-1.13.31-1.8.31Zm12.51-6.6-1.87.21a1.51 1.51 0 0 0-.28-.53c-.13-.17-.3-.3-.52-.4a1.9 1.9 0 0 0-.8-.16c-.44 0-.8.1-1.09.28-.29.19-.43.43-.42.72 0 .26.08.46.27.62.2.16.52.3.96.4l1.49.31c.82.18 1.44.46 1.84.85.4.39.6.9.61 1.52 0 .55-.16 1.03-.48 1.45a3.1 3.1 0 0 1-1.31.98c-.56.23-1.2.35-1.94.35a4.48 4.48 0 0 1-2.58-.67 2.7 2.7 0 0 1-1.16-1.88l2-.2c.1.4.29.7.59.9.3.2.67.3 1.15.3.49 0 .88-.1 1.17-.3.3-.2.45-.45.45-.75a.8.8 0 0 0-.29-.62 2.02 2.02 0 0 0-.88-.37l-1.5-.31a3.54 3.54 0 0 1-1.85-.88 2.2 2.2 0 0 1-.6-1.58c0-.54.15-1 .44-1.4.3-.4.72-.7 1.25-.92a4.83 4.83 0 0 1 1.84-.33c1.03 0 1.83.22 2.42.65.59.44.95 1.03 1.1 1.77Zm-98.02 30.6c-.56 0-1.05-.1-1.5-.29-.44-.2-.79-.5-1.04-.89a2.6 2.6 0 0 1-.38-1.44 2.11 2.11 0 0 1 1.02-2c.3-.19.66-.33 1.06-.43.4-.1.8-.18 1.23-.22l1.24-.14c.32-.05.55-.12.7-.2.14-.1.22-.25.22-.45v-.03c0-.43-.13-.76-.38-1a1.6 1.6 0 0 0-1.1-.35c-.5 0-.9.11-1.2.33-.29.22-.49.48-.59.78l-1.92-.27a3.07 3.07 0 0 1 2.03-2.14 5.44 5.44 0 0 1 2.93-.13c.41.1.8.27 1.14.5.34.22.62.52.83.91.2.39.32.87.32 1.45V51h-1.98v-1.2h-.07a2.51 2.51 0 0 1-1.38 1.2c-.33.12-.73.19-1.18.19Zm.53-1.5c.41 0 .77-.09 1.08-.25a1.73 1.73 0 0 0 .94-1.56v-1.02a.97.97 0 0 1-.33.15l-.5.12a16.16 16.16 0 0 1-1.05.16c-.3.04-.58.1-.83.2-.24.1-.43.23-.57.4a.97.97 0 0 0-.21.65c0 .38.14.66.41.85.28.2.63.3 1.06.3Zm8.2-3.78V51h-2.06v-8.73h1.97v1.49h.1c.2-.5.52-.88.96-1.17.45-.29 1-.43 1.64-.43.6 0 1.13.13 1.58.39.45.25.8.63 1.04 1.11.25.5.38 1.09.37 1.78V51H45.4v-5.24c0-.58-.16-1.04-.46-1.37a1.6 1.6 0 0 0-1.24-.5c-.36 0-.68.09-.96.25-.28.15-.5.38-.66.67-.15.3-.23.66-.23 1.08Zm10.93 5.26a3.3 3.3 0 0 1-3.12-2.06 5.72 5.72 0 0 1-.47-2.44c0-.97.15-1.79.47-2.46a3.34 3.34 0 0 1 4.39-1.77c.33.17.59.38.78.62.2.24.35.46.45.68h.09v-4.36h2.06V51H55.4v-1.38h-.13c-.1.22-.26.44-.46.68a2.53 2.53 0 0 1-2.04.85Zm.58-1.68c.43 0 .8-.12 1.1-.36a2 2 0 0 0 .7-1c.17-.41.25-.9.25-1.47s-.08-1.06-.24-1.48a2.1 2.1 0 0 0-.7-.97 1.8 1.8 0 0 0-1.11-.34c-.46 0-.84.12-1.15.35-.3.24-.54.57-.7 1-.15.41-.23.9-.23 1.44 0 .54.08 1.03.23 1.46.16.42.4.76.7 1 .31.24.7.37 1.15.37Zm14.04 1.7a3.83 3.83 0 0 1-3.68-2.16 5.24 5.24 0 0 1-.5-2.34c0-.89.17-1.67.5-2.35.35-.68.83-1.2 1.45-1.59a4.16 4.16 0 0 1 2.22-.57c.7 0 1.33.13 1.88.4a3.21 3.21 0 0 1 1.87 2.74h-1.97a1.88 1.88 0 0 0-.57-1.06c-.3-.28-.69-.42-1.19-.42-.42 0-.79.11-1.1.34-.32.22-.57.54-.75.97-.17.42-.26.92-.26 1.5 0 .6.09 1.11.26 1.54.18.42.42.75.73.98.32.23.7.34 1.12.34.3 0 .58-.05.82-.17.24-.11.44-.28.6-.5.17-.22.28-.49.34-.8h1.97a3.23 3.23 0 0 1-1.83 2.76 4.3 4.3 0 0 1-1.91.4Zm9.23 0c-.85 0-1.59-.19-2.21-.56a3.82 3.82 0 0 1-1.46-1.58 5.17 5.17 0 0 1-.51-2.36c0-.9.17-1.7.51-2.37.35-.68.83-1.2 1.46-1.58a4.23 4.23 0 0 1 2.21-.56c.85 0 1.6.19 2.22.56.62.38 1.1.9 1.45 1.58.34.68.51 1.47.51 2.37 0 .9-.17 1.69-.51 2.36a3.82 3.82 0 0 1-3.67 2.14Zm.01-1.65c.46 0 .85-.12 1.16-.38.31-.26.54-.6.7-1.03.15-.43.23-.91.23-1.45 0-.53-.08-1.01-.23-1.44a2.3 2.3 0 0 0-.7-1.04c-.3-.26-.7-.39-1.16-.39-.47 0-.86.13-1.18.39-.31.25-.54.6-.7 1.04-.15.43-.23.91-.23 1.44 0 .54.08 1.02.23 1.45.16.43.39.77.7 1.03.32.26.7.38 1.18.38Zm7.98-3.63V51h-2.06v-8.73h1.96v1.49h.1c.2-.5.53-.88.97-1.17.44-.29.99-.43 1.64-.43.6 0 1.13.13 1.57.39.45.25.8.63 1.05 1.11.25.5.37 1.09.37 1.78V51h-2.06v-5.24c0-.58-.15-1.04-.45-1.37a1.6 1.6 0 0 0-1.25-.5c-.36 0-.68.09-.96.25-.27.15-.5.38-.65.67-.16.3-.23.66-.23 1.08Zm12.05-3.62v1.6h-5.02v-1.6h5.02Zm-3.78-2.09h2.06v8.2c0 .27.04.48.12.63.09.15.2.24.34.3.14.05.3.08.47.08a2.02 2.02 0 0 0 .6-.08l.35 1.6a4.6 4.6 0 0 1-1.21.2c-.52.02-.98-.05-1.4-.22a2.17 2.17 0 0 1-.98-.81 2.4 2.4 0 0 1-.35-1.36v-8.54ZM98.38 51v-8.73h2.05V51h-2.05Zm1.03-9.97c-.32 0-.6-.1-.84-.32a1.04 1.04 0 0 1-.35-.79c0-.31.12-.57.35-.79.24-.22.52-.33.84-.33.33 0 .61.11.84.33.24.22.35.48.35.79 0 .3-.11.57-.35.79-.23.22-.5.32-.84.32Zm5.2 4.86V51h-2.06v-8.73h1.97v1.49h.1c.2-.5.52-.88.96-1.17.44-.29.99-.43 1.64-.43.6 0 1.13.13 1.57.39.45.25.8.63 1.05 1.11.25.5.37 1.09.37 1.78V51h-2.06v-5.24c0-.58-.15-1.04-.45-1.37a1.6 1.6 0 0 0-1.25-.5c-.36 0-.68.09-.96.25-.27.15-.5.38-.65.67-.16.3-.23.66-.23 1.08Zm13.25 1.44v-5.06h2.06V51h-2v-1.55h-.09c-.2.49-.52.89-.97 1.2-.44.3-1 .46-1.65.46a2.65 2.65 0 0 1-2.54-1.5 3.96 3.96 0 0 1-.37-1.78v-5.56h2.06v5.24c0 .55.15 1 .45 1.32.3.33.7.49 1.2.49a1.88 1.88 0 0 0 1.57-.88c.19-.3.28-.67.28-1.11Zm8.04 3.84a4.5 4.5 0 0 1-2.27-.55 3.7 3.7 0 0 1-1.46-1.55 5.21 5.21 0 0 1-.51-2.38c0-.9.17-1.69.51-2.37a3.86 3.86 0 0 1 3.62-2.16c.54 0 1.04.09 1.52.26a3.59 3.59 0 0 1 2.15 2.17c.21.55.32 1.21.32 1.98v.63h-7.16v-1.4h5.19c0-.4-.1-.74-.26-1.05-.17-.3-.4-.55-.7-.73-.3-.18-.64-.27-1.03-.27a2 2 0 0 0-1.11.3c-.32.2-.57.47-.74.8a2.3 2.3 0 0 0-.27 1.08v1.2c0 .52.1.95.28 1.31.18.36.44.64.77.83.34.2.73.29 1.17.29.3 0 .58-.04.82-.13.24-.08.45-.21.63-.38.18-.16.31-.37.4-.62l1.92.22c-.12.5-.35.95-.7 1.33-.33.37-.76.67-1.29.87-.52.2-1.13.31-1.8.31Z" fill="#545454"/><path d="M4 .5h152a3.5 3.5 0 0 1 3.5 3.5v58a3.5 3.5 0 0 1-3.5 3.5H4A3.5 3.5 0 0 1 .5 62V4A3.5 3.5 0 0 1 4 .5Z" stroke="#AFAFAF"/></svg>