<svg width="97" height="40" fill="none" xmlns="http://www.w3.org/2000/svg"><path d="M4 .5h89A3.5 3.5 0 0 1 96.5 4v32a3.5 3.5 0 0 1-3.5 3.5H4A3.5 3.5 0 0 1 .5 36V4A3.5 3.5 0 0 1 4 .5Z" fill="#fff"/><path d="M25.37 14.36h2.58l3.46 8.44h.13L35 14.36h2.58V26h-2.02v-8h-.11l-3.22 7.97h-1.5l-3.23-7.98h-.1V26h-2.03V14.36ZM42.3 26.18c-.55 0-1.05-.1-1.49-.3-.44-.2-.79-.5-1.04-.89a2.6 2.6 0 0 1-.39-1.44c0-.5.1-.9.28-1.22.18-.32.43-.58.74-.77.32-.2.67-.34 1.06-.44.4-.1.81-.18 1.24-.22l1.24-.14c.32-.05.55-.12.7-.2.14-.1.22-.25.22-.45v-.03c0-.43-.13-.76-.38-1a1.6 1.6 0 0 0-1.1-.35c-.5 0-.9.11-1.2.33-.3.22-.49.48-.6.78l-1.91-.27a3.07 3.07 0 0 1 2.03-2.14 5.44 5.44 0 0 1 2.93-.13c.41.1.79.27 1.14.5.34.22.62.52.82.91.22.39.32.87.32 1.45V26h-1.97v-1.2h-.07a2.51 2.51 0 0 1-1.39 1.2 3.5 3.5 0 0 1-1.19.19Zm.54-1.52c.41 0 .77-.08 1.07-.24.3-.17.54-.39.7-.66.17-.27.25-.57.25-.9v-1.02a.97.97 0 0 1-.33.15l-.5.12a16.16 16.16 0 0 1-1.05.16c-.31.04-.59.1-.83.2s-.43.23-.57.4a.97.97 0 0 0-.21.65 1 1 0 0 0 .41.86c.28.19.63.28 1.06.28Zm10.5-7.39v1.6H48.3v-1.6h5.02Zm-3.78-2.09h2.06v8.2c0 .27.04.48.12.63.09.15.2.24.34.3.14.05.3.08.47.08a2.01 2.01 0 0 0 .6-.08l.35 1.6a4.59 4.59 0 0 1-1.21.2c-.52.02-.98-.05-1.4-.22a2.17 2.17 0 0 1-.98-.81 2.4 2.4 0 0 1-.35-1.36v-8.54Zm7.74 5.7V26h-2.05V14.36h2v4.4h.11c.2-.5.52-.89.95-1.17a2.9 2.9 0 0 1 1.65-.43c.6 0 1.13.13 1.58.38.45.25.8.62 1.05 1.11.25.5.37 1.09.37 1.8V26H60.9v-5.24c0-.59-.16-1.04-.46-1.37-.3-.33-.72-.5-1.26-.5-.36 0-.69.09-.98.25-.28.15-.5.38-.67.67-.16.3-.24.66-.24 1.08Zm14.66-1.3-1.88.2a1.5 1.5 0 0 0-.8-.93 1.9 1.9 0 0 0-.8-.16c-.43 0-.8.1-1.09.28-.28.19-.43.43-.42.72 0 .26.09.46.28.62.19.16.5.3.95.4l1.49.31c.83.18 1.44.46 1.84.85.4.39.61.9.61 1.52 0 .55-.16 1.03-.48 1.45a3.1 3.1 0 0 1-1.31.98c-.56.23-1.2.35-1.93.35a4.48 4.48 0 0 1-2.58-.67 2.7 2.7 0 0 1-1.17-1.88l2-.2c.1.4.3.7.59.9.3.2.68.3 1.15.3.49 0 .88-.1 1.18-.3.3-.2.45-.45.45-.75 0-.25-.1-.45-.3-.62a2.02 2.02 0 0 0-.88-.37l-1.49-.31a3.54 3.54 0 0 1-1.86-.88 2.2 2.2 0 0 1-.6-1.58c0-.54.15-1 .44-1.4.3-.4.72-.7 1.25-.92a4.82 4.82 0 0 1 1.85-.33 4 4 0 0 1 2.41.65c.6.44.96 1.03 1.1 1.77Z" fill="#545454"/><path d="M4 .5h89A3.5 3.5 0 0 1 96.5 4v32a3.5 3.5 0 0 1-3.5 3.5H4A3.5 3.5 0 0 1 .5 36V4A3.5 3.5 0 0 1 4 .5Z" stroke="#AFAFAF"/></svg>