<svg width="202" height="33" fill="none" xmlns="http://www.w3.org/2000/svg"><path d="M4 .5h53.5v32H4A3.5 3.5 0 0 1 .5 29V4A3.5 3.5 0 0 1 4 .5Z" fill="#fff"/><path d="M20.45 21H17V10.82h3.52c1.02 0 1.88.2 2.6.61.74.4 1.3.99 1.69 1.74.4.76.59 1.67.59 2.73s-.2 1.97-.6 2.73a4.02 4.02 0 0 1-1.7 1.76 5.4 5.4 0 0 1-2.65.61Zm-1.6-1.6h1.52c.7 0 1.3-.13 1.77-.38.47-.27.83-.65 1.07-1.17.24-.52.36-1.17.36-1.95a4.6 4.6 0 0 0-.36-1.94 2.5 2.5 0 0 0-1.06-1.16 3.52 3.52 0 0 0-1.73-.39h-1.57v7Zm10.42 1.75c-.49 0-.92-.08-1.31-.25a2.13 2.13 0 0 1-.92-.78 2.27 2.27 0 0 1-.33-1.26c0-.43.08-.79.24-1.07.16-.28.38-.5.65-.68.28-.17.59-.3.93-.38.35-.09.7-.15 1.08-.2l1.09-.12c.28-.04.48-.1.6-.18.13-.08.2-.2.2-.38v-.03c0-.37-.11-.66-.33-.87-.23-.2-.55-.3-.96-.3-.44 0-.8.09-1.05.28-.26.2-.43.42-.52.68l-1.68-.24a2.68 2.68 0 0 1 1.77-1.87 4.76 4.76 0 0 1 2.56-.1c.37.08.7.22 1 .42.3.2.55.46.73.8.19.34.28.76.28 1.27V21h-1.73v-1.05h-.06A2.2 2.2 0 0 1 30.3 21c-.3.1-.65.16-1.04.16Zm.46-1.32c.37 0 .68-.07.94-.21a1.52 1.52 0 0 0 .83-1.36v-.9a.85.85 0 0 1-.28.13l-.45.1a13.84 13.84 0 0 1-.92.14c-.27.04-.5.1-.72.18-.21.09-.38.2-.5.35a.85.85 0 0 0-.18.57c0 .33.12.58.36.75.24.17.55.25.92.25Zm6.22 4.03a3.64 3.64 0 0 1-1.17-.19l.42-1.4c.26.08.5.12.7.11.2 0 .38-.07.54-.2.16-.11.3-.32.4-.6l.16-.42-2.77-7.8h1.9l1.77 5.77h.08l1.76-5.77h1.92l-3.06 8.56c-.14.4-.33.76-.57 1.04-.23.3-.52.52-.86.67-.34.16-.75.23-1.22.23Z" fill="#545454"/><path d="M4 .5h53.5v32H4A3.5 3.5 0 0 1 .5 29V4A3.5 3.5 0 0 1 4 .5Z" stroke="#AFAFAF"/><path d="M57.5.5h69v32h-69V.5Z" fill="#fff"/><path d="m76.15 21-2.88-10.18h1.99l1.83 7.48h.1l1.95-7.48h1.81l1.96 7.49h.1l1.83-7.5h1.98L83.95 21h-1.82l-2.04-7.14h-.08L77.97 21h-1.82Zm14.47.15a3.9 3.9 0 0 1-1.98-.48 3.23 3.23 0 0 1-1.28-1.36 4.56 4.56 0 0 1-.45-2.08c0-.79.15-1.48.45-2.07a3.39 3.39 0 0 1 3.17-1.9c.47 0 .91.08 1.33.23a3.19 3.19 0 0 1 1.88 1.9c.18.49.28 1.06.28 1.73v.55h-6.26v-1.2h4.53a2 2 0 0 0-.22-.93 1.63 1.63 0 0 0-.61-.64 1.72 1.72 0 0 0-.9-.23c-.38 0-.7.09-.98.26-.28.18-.5.41-.65.7a2 2 0 0 0-.23.94v1.06c0 .44.08.82.24 1.14.16.32.4.56.68.73.3.16.64.25 1.03.25.26 0 .5-.04.7-.11.22-.08.4-.19.56-.34.16-.14.27-.32.35-.54l1.68.2c-.1.44-.3.82-.6 1.16-.3.32-.68.58-1.14.76-.46.18-.98.27-1.58.27Zm8.3 0c-.77 0-1.43-.16-1.98-.48a3.23 3.23 0 0 1-1.28-1.36 4.56 4.56 0 0 1-.45-2.08c0-.79.15-1.48.45-2.07a3.38 3.38 0 0 1 3.17-1.9c.47 0 .91.08 1.33.23a3.19 3.19 0 0 1 1.88 1.9c.18.49.28 1.06.28 1.73v.55h-6.26v-1.2h4.53a2 2 0 0 0-.22-.93 1.62 1.62 0 0 0-.61-.64 1.72 1.72 0 0 0-.9-.23c-.38 0-.7.09-.98.26-.28.18-.5.41-.65.7a2 2 0 0 0-.23.94v1.06c0 .44.08.82.24 1.14.16.32.39.56.68.73.3.16.63.25 1.03.25.26 0 .5-.04.7-.11.22-.08.4-.19.56-.34.15-.14.27-.32.35-.54l1.68.2c-.1.44-.3.82-.6 1.16-.3.32-.68.58-1.14.76-.46.18-.99.27-1.58.27Zm6.56-2.55v-2.17h.28l2.75-3.07h2.1l-3.38 3.76h-.37l-1.38 1.48Zm-1.64 2.4V10.82h1.8V21h-1.8Zm4.8 0-2.5-3.48 1.22-1.26 3.42 4.74h-2.15Z" fill="#545454"/><path d="M57.5.5h69v32h-69V.5Z" stroke="#AFAFAF"/><path d="M127 1h71a3 3 0 0 1 3 3v25a3 3 0 0 1-3 3h-71V1Z" fill="#fff"/><path d="M143 10.82h2.26l3.02 7.38h.12l3.03-7.38h2.25V21h-1.77v-7h-.1l-2.8 6.97h-1.33l-2.81-6.98h-.1V21H143V10.82Zm15.94 10.33a3.7 3.7 0 0 1-1.94-.5 3.34 3.34 0 0 1-1.27-1.37 4.52 4.52 0 0 1-.45-2.07c0-.79.15-1.48.45-2.07.3-.6.73-1.06 1.27-1.38a3.7 3.7 0 0 1 1.94-.5c.75 0 1.4.17 1.94.5.55.32.97.79 1.27 1.38.3.6.45 1.28.45 2.07a4.5 4.5 0 0 1-.45 2.07 3.3 3.3 0 0 1-1.27 1.38c-.54.33-1.2.49-1.94.49Zm.01-1.44c.4 0 .75-.11 1.02-.34.27-.22.47-.52.6-.9.14-.38.2-.8.2-1.26 0-.47-.06-.9-.2-1.27a2 2 0 0 0-.6-.91 1.53 1.53 0 0 0-1.02-.34c-.41 0-.76.11-1.03.34a2 2 0 0 0-.61.9 3.95 3.95 0 0 0 0 2.54c.13.38.34.68.6.9.28.23.63.34 1.04.34Zm6.98-3.18V21h-1.8v-7.64h1.72v1.3h.09c.18-.43.46-.77.84-1.02.39-.25.87-.38 1.44-.38.52 0 .98.12 1.37.34.4.23.7.55.92.98.22.43.33.95.32 1.56V21h-1.8v-4.58c0-.51-.13-.91-.4-1.2a1.4 1.4 0 0 0-1.09-.43c-.31 0-.59.07-.83.2-.25.14-.44.34-.58.6a2 2 0 0 0-.2.94Zm10.54-3.17v1.4h-4.39v-1.4h4.4Zm-3.3-1.83h1.8v7.17c0 .25.03.43.1.56.08.13.18.21.3.26.13.04.26.07.41.07a1.74 1.74 0 0 0 .53-.07l.3 1.4a3.98 3.98 0 0 1-1.06.18c-.45.02-.85-.05-1.21-.2a1.9 1.9 0 0 1-.86-.7 2.14 2.14 0 0 1-.31-1.2v-7.47Zm6.77 5V21h-1.8V10.82h1.76v3.84h.1c.17-.43.45-.77.82-1.02.38-.25.86-.38 1.44-.38.53 0 1 .12 1.4.34.39.22.7.54.9.97.23.43.34.95.34 1.57V21h-1.8v-4.58c0-.52-.14-.92-.4-1.2a1.41 1.41 0 0 0-1.1-.43c-.32 0-.6.07-.86.2-.25.14-.45.34-.59.6-.14.25-.2.57-.2.94Z" fill="#0F67F5"/><path d="M127 1h71a3 3 0 0 1 3 3v25a3 3 0 0 1-3 3h-71V1Z" stroke="#0F67F5" stroke-width="2"/></svg>