<svg width="288" height="88" viewBox="0 0 288 88" fill="none" xmlns="http://www.w3.org/2000/svg">
<rect x="0.5" y="0.5" width="96" height="39" rx="1.5" fill="white"/>
<path d="M25.3743 14.3636H27.9538L31.4084 22.7955H31.5447L34.9993 14.3636H37.5788V26H35.5561V18.0057H35.4482L32.2322 25.9659H30.7209L27.505 17.9886H27.397V26H25.3743V14.3636ZM42.2947 26.1761C41.7417 26.1761 41.2436 26.0777 40.8004 25.8807C40.361 25.6799 40.0125 25.3845 39.755 24.9943C39.5012 24.6042 39.3743 24.1231 39.3743 23.5511C39.3743 23.0587 39.4652 22.6515 39.647 22.3295C39.8288 22.0076 40.0769 21.75 40.3913 21.5568C40.7057 21.3636 41.0599 21.2178 41.4538 21.1193C41.8516 21.017 42.2625 20.9432 42.6868 20.8977C43.1982 20.8447 43.6129 20.7973 43.9311 20.7557C44.2493 20.7102 44.4804 20.642 44.6243 20.5511C44.772 20.4564 44.8459 20.3106 44.8459 20.1136V20.0795C44.8459 19.6515 44.719 19.3201 44.4652 19.0852C44.2114 18.8504 43.8459 18.733 43.3686 18.733C42.8648 18.733 42.4652 18.8428 42.1697 19.0625C41.8781 19.2822 41.6811 19.5417 41.5788 19.8409L39.6584 19.5682C39.8099 19.0379 40.0599 18.5947 40.4084 18.2386C40.7569 17.8788 41.183 17.6098 41.6868 17.4318C42.1906 17.25 42.7474 17.1591 43.3572 17.1591C43.7777 17.1591 44.1963 17.2083 44.6129 17.3068C45.0296 17.4053 45.4103 17.5682 45.755 17.7955C46.0997 18.0189 46.3762 18.3239 46.5845 18.7102C46.7966 19.0966 46.9027 19.5795 46.9027 20.1591V26H44.9254V24.8011H44.8572C44.7322 25.0436 44.5561 25.2708 44.3288 25.483C44.1054 25.6913 43.8232 25.8598 43.4822 25.9886C43.1451 26.1136 42.7493 26.1761 42.2947 26.1761ZM42.8288 24.6648C43.2417 24.6648 43.5997 24.5833 43.9027 24.4205C44.2057 24.2538 44.4387 24.0341 44.6016 23.7614C44.7682 23.4886 44.8516 23.1913 44.8516 22.8693V21.8409C44.7872 21.8939 44.6773 21.9432 44.522 21.9886C44.3705 22.0341 44.2 22.0739 44.0107 22.108C43.8213 22.142 43.6338 22.1723 43.4482 22.1989C43.2625 22.2254 43.1016 22.2481 42.9652 22.267C42.6584 22.3087 42.3838 22.3769 42.1413 22.4716C41.8989 22.5663 41.7076 22.6989 41.5675 22.8693C41.4273 23.036 41.3572 23.2519 41.3572 23.517C41.3572 23.8958 41.4955 24.1818 41.772 24.375C42.0485 24.5682 42.4008 24.6648 42.8288 24.6648ZM53.3288 17.2727V18.8636H48.3118V17.2727H53.3288ZM49.5504 15.1818H51.6072V23.375C51.6072 23.6515 51.6489 23.8636 51.7322 24.0114C51.8194 24.1553 51.933 24.2538 52.0732 24.3068C52.2133 24.3598 52.3686 24.3864 52.5391 24.3864C52.6679 24.3864 52.7853 24.3769 52.8913 24.358C53.0012 24.339 53.0845 24.322 53.1413 24.3068L53.4879 25.9148C53.3781 25.9527 53.2209 25.9943 53.0163 26.0398C52.8156 26.0852 52.5694 26.1117 52.2777 26.1193C51.7625 26.1345 51.2985 26.0568 50.8857 25.8864C50.4728 25.7121 50.1451 25.4432 49.9027 25.0795C49.6641 24.7159 49.5466 24.2614 49.5504 23.7159V15.1818ZM57.2933 20.8864V26H55.2365V14.3636H57.2479V18.7557H57.3501C57.5547 18.2633 57.871 17.875 58.299 17.5909C58.7308 17.303 59.2801 17.1591 59.9467 17.1591C60.5528 17.1591 61.0812 17.286 61.532 17.5398C61.9827 17.7936 62.3312 18.1648 62.5774 18.6534C62.8274 19.142 62.9524 19.7386 62.9524 20.4432V26H60.8956V20.7614C60.8956 20.1742 60.7441 19.7178 60.4411 19.392C60.1418 19.0625 59.7214 18.8977 59.1797 18.8977C58.8161 18.8977 58.4903 18.9773 58.2024 19.1364C57.9183 19.2917 57.6948 19.517 57.532 19.8125C57.3729 20.108 57.2933 20.4659 57.2933 20.8864ZM71.9467 19.5795L70.0717 19.7841C70.0187 19.5947 69.9259 19.4167 69.7933 19.25C69.6645 19.0833 69.4903 18.9489 69.2706 18.8466C69.0509 18.7443 68.782 18.6932 68.4638 18.6932C68.0357 18.6932 67.6759 18.786 67.3842 18.9716C67.0964 19.1572 66.9543 19.3977 66.9581 19.6932C66.9543 19.947 67.0471 20.1534 67.2365 20.3125C67.4297 20.4716 67.7479 20.6023 68.1911 20.7045L69.6797 21.0227C70.5054 21.2008 71.1191 21.483 71.5206 21.8693C71.9259 22.2557 72.1304 22.7614 72.1342 23.3864C72.1304 23.9356 71.9695 24.4205 71.6513 24.8409C71.3369 25.2576 70.8994 25.5833 70.3388 25.8182C69.7782 26.053 69.1342 26.1705 68.407 26.1705C67.3388 26.1705 66.4789 25.947 65.8274 25.5C65.1759 25.0492 64.7876 24.4223 64.6626 23.6193L66.6683 23.4261C66.7592 23.8201 66.9524 24.1174 67.2479 24.3182C67.5433 24.5189 67.9278 24.6193 68.4013 24.6193C68.8899 24.6193 69.282 24.5189 69.5774 24.3182C69.8767 24.1174 70.0263 23.8693 70.0263 23.5739C70.0263 23.3239 69.9297 23.1174 69.7365 22.9545C69.5471 22.7917 69.2517 22.6667 68.8501 22.5795L67.3615 22.267C66.5244 22.0928 65.9051 21.7992 65.5036 21.3864C65.102 20.9697 64.9032 20.4432 64.907 19.8068C64.9032 19.2689 65.049 18.803 65.3445 18.4091C65.6437 18.0114 66.0585 17.7045 66.5888 17.4886C67.1229 17.2689 67.7384 17.1591 68.4354 17.1591C69.4581 17.1591 70.263 17.3769 70.8501 17.8125C71.4411 18.2481 71.8066 18.8371 71.9467 19.5795Z" fill="#545454"/>
<rect x="0.5" y="0.5" width="96" height="39" rx="1.5" stroke="#AFAFAF"/>
<rect x="105.5" y="0.5" width="104" height="39" rx="1.5" fill="white"/>
<path d="M130.445 26V14.3636H138.013V16.1307H132.553V19.2898H137.621V21.0568H132.553V24.233H138.058V26H130.445ZM142.129 20.8864V26H140.072V17.2727H142.038V18.7557H142.141C142.341 18.267 142.661 17.8788 143.101 17.5909C143.544 17.303 144.091 17.1591 144.743 17.1591C145.345 17.1591 145.87 17.2879 146.317 17.5455C146.768 17.803 147.116 18.1761 147.362 18.6648C147.612 19.1534 147.735 19.7462 147.732 20.4432V26H145.675V20.7614C145.675 20.178 145.523 19.7216 145.22 19.392C144.921 19.0625 144.506 18.8977 143.976 18.8977C143.616 18.8977 143.296 18.9773 143.016 19.1364C142.739 19.2917 142.521 19.517 142.362 19.8125C142.207 20.108 142.129 20.4659 142.129 20.8864ZM153.618 29.4545C152.879 29.4545 152.245 29.3542 151.714 29.1534C151.184 28.9564 150.758 28.6913 150.436 28.358C150.114 28.0246 149.891 27.6553 149.766 27.25L151.618 26.8011C151.701 26.9716 151.822 27.1402 151.982 27.3068C152.141 27.4773 152.355 27.6174 152.624 27.7273C152.896 27.8409 153.239 27.8977 153.652 27.8977C154.235 27.8977 154.718 27.7557 155.101 27.4716C155.483 27.1913 155.675 26.7292 155.675 26.0852V24.4318H155.572C155.466 24.6439 155.311 24.8617 155.107 25.0852C154.906 25.3087 154.639 25.4962 154.305 25.6477C153.976 25.7992 153.561 25.875 153.061 25.875C152.391 25.875 151.783 25.7178 151.237 25.4034C150.696 25.0852 150.264 24.6117 149.942 23.983C149.624 23.3504 149.464 22.5587 149.464 21.608C149.464 20.6496 149.624 19.8409 149.942 19.1818C150.264 18.5189 150.697 18.017 151.243 17.6761C151.788 17.3314 152.396 17.1591 153.067 17.1591C153.578 17.1591 153.999 17.2462 154.328 17.4205C154.661 17.5909 154.927 17.7973 155.124 18.0398C155.321 18.2784 155.47 18.5038 155.572 18.7159H155.686V17.2727H157.714V26.142C157.714 26.8883 157.536 27.5057 157.18 27.9943C156.824 28.483 156.338 28.8485 155.72 29.0909C155.103 29.3333 154.402 29.4545 153.618 29.4545ZM153.635 24.2614C154.071 24.2614 154.442 24.1553 154.749 23.9432C155.055 23.7311 155.288 23.4261 155.447 23.0284C155.607 22.6307 155.686 22.1534 155.686 21.5966C155.686 21.0473 155.607 20.5663 155.447 20.1534C155.292 19.7405 155.061 19.4205 154.754 19.1932C154.451 18.9621 154.078 18.8466 153.635 18.8466C153.177 18.8466 152.794 18.9659 152.487 19.2045C152.18 19.4432 151.949 19.7708 151.794 20.1875C151.639 20.6004 151.561 21.0701 151.561 21.5966C151.561 22.1307 151.639 22.5985 151.794 23C151.953 23.3977 152.186 23.7083 152.493 23.9318C152.804 24.1515 153.184 24.2614 153.635 24.2614ZM161.879 14.3636V26H159.822V14.3636H161.879ZM163.994 26V17.2727H166.051V26H163.994ZM165.028 16.0341C164.703 16.0341 164.422 15.9261 164.188 15.7102C163.953 15.4905 163.835 15.2273 163.835 14.9205C163.835 14.6098 163.953 14.3466 164.188 14.1307C164.422 13.911 164.703 13.8011 165.028 13.8011C165.358 13.8011 165.638 13.911 165.869 14.1307C166.104 14.3466 166.222 14.6098 166.222 14.9205C166.222 15.2273 166.104 15.4905 165.869 15.7102C165.638 15.9261 165.358 16.0341 165.028 16.0341ZM175.064 19.5795L173.189 19.7841C173.136 19.5947 173.043 19.4167 172.911 19.25C172.782 19.0833 172.607 18.9489 172.388 18.8466C172.168 18.7443 171.899 18.6932 171.581 18.6932C171.153 18.6932 170.793 18.786 170.501 18.9716C170.214 19.1572 170.071 19.3977 170.075 19.6932C170.071 19.947 170.164 20.1534 170.354 20.3125C170.547 20.4716 170.865 20.6023 171.308 20.7045L172.797 21.0227C173.623 21.2008 174.236 21.483 174.638 21.8693C175.043 22.2557 175.248 22.7614 175.251 23.3864C175.248 23.9356 175.087 24.4205 174.768 24.8409C174.454 25.2576 174.017 25.5833 173.456 25.8182C172.895 26.053 172.251 26.1705 171.524 26.1705C170.456 26.1705 169.596 25.947 168.945 25.5C168.293 25.0492 167.905 24.4223 167.78 23.6193L169.786 23.4261C169.876 23.8201 170.07 24.1174 170.365 24.3182C170.661 24.5189 171.045 24.6193 171.518 24.6193C172.007 24.6193 172.399 24.5189 172.695 24.3182C172.994 24.1174 173.143 23.8693 173.143 23.5739C173.143 23.3239 173.047 23.1174 172.854 22.9545C172.664 22.7917 172.369 22.6667 171.967 22.5795L170.479 22.267C169.642 22.0928 169.022 21.7992 168.621 21.3864C168.219 20.9697 168.02 20.4432 168.024 19.8068C168.02 19.2689 168.166 18.803 168.462 18.4091C168.761 18.0114 169.176 17.7045 169.706 17.4886C170.24 17.2689 170.856 17.1591 171.553 17.1591C172.575 17.1591 173.38 17.3769 173.967 17.8125C174.558 18.2481 174.924 18.8371 175.064 19.5795ZM179.004 20.8864V26H176.947V14.3636H178.959V18.7557H179.061C179.266 18.2633 179.582 17.875 180.01 17.5909C180.442 17.303 180.991 17.1591 181.658 17.1591C182.264 17.1591 182.792 17.286 183.243 17.5398C183.694 17.7936 184.042 18.1648 184.288 18.6534C184.538 19.142 184.663 19.7386 184.663 20.4432V26H182.607V20.7614C182.607 20.1742 182.455 19.7178 182.152 19.392C181.853 19.0625 181.432 18.8977 180.891 18.8977C180.527 18.8977 180.201 18.9773 179.913 19.1364C179.629 19.2917 179.406 19.517 179.243 19.8125C179.084 20.108 179.004 20.4659 179.004 20.8864Z" fill="#545454"/>
<rect x="105.5" y="0.5" width="104" height="39" rx="1.5" stroke="#AFAFAF"/>
<rect x="218.5" y="0.5" width="69" height="39" rx="1.5" fill="white"/>
<path d="M244.712 14.3636L247.741 23.5227H247.86L250.883 14.3636H253.201L249.099 26H246.496L242.4 14.3636H244.712ZM254.734 26V14.3636H259.097C259.991 14.3636 260.741 14.5189 261.347 14.8295C261.957 15.1402 262.417 15.5758 262.728 16.1364C263.042 16.6932 263.2 17.3428 263.2 18.0852C263.2 18.8314 263.04 19.4792 262.722 20.0284C262.408 20.5739 261.944 20.9962 261.33 21.2955C260.717 21.5909 259.963 21.7386 259.069 21.7386H255.961V19.9886H258.785C259.308 19.9886 259.736 19.9167 260.069 19.7727C260.402 19.625 260.648 19.411 260.808 19.1307C260.97 18.8466 261.052 18.4981 261.052 18.0852C261.052 17.6723 260.97 17.3201 260.808 17.0284C260.645 16.733 260.397 16.5095 260.063 16.358C259.73 16.2027 259.3 16.125 258.773 16.125H256.842V26H254.734ZM260.745 20.7273L263.626 26H261.273L258.444 20.7273H260.745Z" fill="#545454"/>
<rect x="218.5" y="0.5" width="69" height="39" rx="1.5" stroke="#AFAFAF"/>
<rect x="44.5" y="48.5" width="81" height="39" rx="1.5" fill="white"/>
<path d="M78.7884 62.3636V74H76.9134L71.4304 66.0739H71.3338V74H69.2259V62.3636H71.1122L76.5895 70.2955H76.6918V62.3636H78.7884ZM82.642 62.3636L85.6705 71.5227H85.7898L88.8125 62.3636H91.1307L87.0284 74H84.4261L80.3295 62.3636H82.642ZM92.6634 74V62.3636H97.027C97.9209 62.3636 98.6709 62.5189 99.277 62.8295C99.8868 63.1402 100.347 63.5758 100.658 64.1364C100.972 64.6932 101.129 65.3428 101.129 66.0852C101.129 66.8314 100.97 67.4792 100.652 68.0284C100.338 68.5739 99.8736 68.9962 99.2599 69.2955C98.6463 69.5909 97.8925 69.7386 96.9986 69.7386H93.8906V67.9886H96.7145C97.2372 67.9886 97.6652 67.9167 97.9986 67.7727C98.3319 67.625 98.5781 67.411 98.7372 67.1307C98.9001 66.8466 98.9815 66.4981 98.9815 66.0852C98.9815 65.6723 98.9001 65.3201 98.7372 65.0284C98.5743 64.733 98.3262 64.5095 97.9929 64.358C97.6596 64.2027 97.2296 64.125 96.7031 64.125H94.7713V74H92.6634ZM98.6747 68.7273L101.555 74H99.2031L96.3736 68.7273H98.6747Z" fill="#545454"/>
<rect x="44.5" y="48.5" width="81" height="39" rx="1.5" stroke="#AFAFAF"/>
<rect x="135" y="49" width="108" height="38" rx="1" fill="white"/>
<path d="M165.597 65.5625C165.544 65.0663 165.32 64.6799 164.926 64.4034C164.536 64.1269 164.028 63.9886 163.403 63.9886C162.964 63.9886 162.587 64.0549 162.273 64.1875C161.958 64.3201 161.718 64.5 161.551 64.7273C161.384 64.9545 161.299 65.214 161.295 65.5057C161.295 65.7481 161.35 65.9583 161.46 66.1364C161.574 66.3144 161.727 66.4659 161.92 66.5909C162.114 66.7121 162.328 66.8144 162.562 66.8977C162.797 66.9811 163.034 67.0511 163.273 67.108L164.364 67.3807C164.803 67.483 165.225 67.6212 165.631 67.7955C166.04 67.9697 166.405 68.1894 166.727 68.4545C167.053 68.7197 167.311 69.0398 167.5 69.4148C167.689 69.7898 167.784 70.2292 167.784 70.733C167.784 71.4148 167.61 72.0152 167.261 72.5341C166.913 73.0492 166.409 73.4527 165.75 73.7443C165.095 74.0322 164.301 74.1761 163.369 74.1761C162.464 74.1761 161.678 74.036 161.011 73.7557C160.348 73.4754 159.83 73.0663 159.455 72.5284C159.083 71.9905 158.883 71.3352 158.852 70.5625H160.926C160.956 70.9678 161.081 71.3049 161.301 71.5739C161.521 71.8428 161.807 72.0436 162.159 72.1761C162.515 72.3087 162.913 72.375 163.352 72.375C163.811 72.375 164.212 72.3068 164.557 72.1705C164.905 72.0303 165.178 71.8371 165.375 71.5909C165.572 71.3409 165.672 71.0492 165.676 70.7159C165.672 70.4129 165.583 70.1629 165.409 69.9659C165.235 69.7652 164.991 69.5985 164.676 69.4659C164.366 69.3295 164.002 69.2083 163.585 69.1023L162.261 68.7614C161.303 68.5152 160.545 68.142 159.989 67.642C159.436 67.1383 159.159 66.4697 159.159 65.6364C159.159 64.9508 159.345 64.3504 159.716 63.8352C160.091 63.3201 160.6 62.9205 161.244 62.6364C161.888 62.3485 162.617 62.2045 163.432 62.2045C164.258 62.2045 164.981 62.3485 165.602 62.6364C166.227 62.9205 166.718 63.3163 167.074 63.8239C167.43 64.3277 167.614 64.9072 167.625 65.5625H165.597ZM173.379 74.1705C172.508 74.1705 171.76 73.9792 171.135 73.5966C170.514 73.214 170.035 72.6856 169.697 72.0114C169.364 71.3333 169.197 70.553 169.197 69.6705C169.197 68.7841 169.368 68.0019 169.709 67.3239C170.05 66.642 170.531 66.1117 171.152 65.733C171.777 65.3504 172.516 65.1591 173.368 65.1591C174.076 65.1591 174.703 65.2898 175.249 65.5511C175.798 65.8087 176.235 66.1742 176.561 66.6477C176.887 67.1174 177.072 67.6667 177.118 68.2955H175.152C175.072 67.875 174.883 67.5246 174.584 67.2443C174.288 66.9602 173.893 66.8182 173.396 66.8182C172.976 66.8182 172.607 66.9318 172.288 67.1591C171.97 67.3826 171.722 67.7045 171.544 68.125C171.37 68.5455 171.283 69.0492 171.283 69.6364C171.283 70.2311 171.37 70.7424 171.544 71.1705C171.718 71.5947 171.963 71.9223 172.277 72.1534C172.595 72.3807 172.968 72.4943 173.396 72.4943C173.699 72.4943 173.97 72.4375 174.209 72.3239C174.451 72.2064 174.654 72.0379 174.817 71.8182C174.98 71.5985 175.091 71.3314 175.152 71.017H177.118C177.069 71.6345 176.887 72.1818 176.572 72.6591C176.258 73.1326 175.83 73.5038 175.288 73.7727C174.747 74.0379 174.11 74.1705 173.379 74.1705ZM178.807 74V65.2727H180.864V74H178.807ZM179.841 64.0341C179.515 64.0341 179.235 63.9261 179 63.7102C178.765 63.4905 178.648 63.2273 178.648 62.9205C178.648 62.6098 178.765 62.3466 179 62.1307C179.235 61.911 179.515 61.8011 179.841 61.8011C180.17 61.8011 180.451 61.911 180.682 62.1307C180.917 62.3466 181.034 62.6098 181.034 62.9205C181.034 63.2273 180.917 63.4905 180.682 63.7102C180.451 63.9261 180.17 64.0341 179.841 64.0341ZM186.842 74.1705C185.967 74.1705 185.212 73.9886 184.575 73.625C183.943 73.2576 183.456 72.7386 183.115 72.0682C182.774 71.3939 182.604 70.6004 182.604 69.6875C182.604 68.7898 182.774 68.0019 183.115 67.3239C183.46 66.642 183.941 66.1117 184.558 65.733C185.176 65.3504 185.901 65.1591 186.734 65.1591C187.272 65.1591 187.78 65.2462 188.257 65.4205C188.738 65.5909 189.162 65.8561 189.53 66.2159C189.901 66.5758 190.193 67.0341 190.405 67.5909C190.617 68.1439 190.723 68.803 190.723 69.5682V70.1989H183.57V68.8125H188.751C188.748 68.4186 188.662 68.0682 188.496 67.7614C188.329 67.4508 188.096 67.2064 187.797 67.0284C187.501 66.8504 187.157 66.7614 186.763 66.7614C186.342 66.7614 185.973 66.8636 185.655 67.0682C185.337 67.2689 185.089 67.5341 184.911 67.8636C184.736 68.1894 184.647 68.5473 184.643 68.9375V70.1477C184.643 70.6553 184.736 71.0909 184.922 71.4545C185.107 71.8144 185.367 72.0909 185.7 72.2841C186.034 72.4735 186.424 72.5682 186.871 72.5682C187.17 72.5682 187.441 72.5265 187.683 72.4432C187.926 72.3561 188.136 72.2292 188.314 72.0625C188.492 71.8958 188.626 71.6894 188.717 71.4432L190.638 71.6591C190.517 72.1667 190.286 72.6098 189.945 72.9886C189.607 73.3636 189.176 73.6553 188.649 73.8636C188.123 74.0682 187.52 74.1705 186.842 74.1705ZM194.52 68.8864V74H192.463V65.2727H194.429V66.7557H194.531C194.732 66.267 195.052 65.8788 195.491 65.5909C195.935 65.303 196.482 65.1591 197.134 65.1591C197.736 65.1591 198.26 65.2879 198.707 65.5455C199.158 65.803 199.507 66.1761 199.753 66.6648C200.003 67.1534 200.126 67.7462 200.122 68.4432V74H198.065V68.7614C198.065 68.178 197.914 67.7216 197.611 67.392C197.312 67.0625 196.897 66.8977 196.366 66.8977C196.007 66.8977 195.687 66.9773 195.406 67.1364C195.13 67.2917 194.912 67.517 194.753 67.8125C194.598 68.108 194.52 68.4659 194.52 68.8864ZM206.02 74.1705C205.149 74.1705 204.401 73.9792 203.776 73.5966C203.154 73.214 202.675 72.6856 202.338 72.0114C202.005 71.3333 201.838 70.553 201.838 69.6705C201.838 68.7841 202.009 68.0019 202.349 67.3239C202.69 66.642 203.171 66.1117 203.793 65.733C204.418 65.3504 205.156 65.1591 206.009 65.1591C206.717 65.1591 207.344 65.2898 207.889 65.5511C208.438 65.8087 208.876 66.1742 209.202 66.6477C209.527 67.1174 209.713 67.6667 209.759 68.2955H207.793C207.713 67.875 207.524 67.5246 207.224 67.2443C206.929 66.9602 206.533 66.8182 206.037 66.8182C205.616 66.8182 205.247 66.9318 204.929 67.1591C204.611 67.3826 204.363 67.7045 204.185 68.125C204.01 68.5455 203.923 69.0492 203.923 69.6364C203.923 70.2311 204.01 70.7424 204.185 71.1705C204.359 71.5947 204.603 71.9223 204.918 72.1534C205.236 72.3807 205.609 72.4943 206.037 72.4943C206.34 72.4943 206.611 72.4375 206.849 72.3239C207.092 72.2064 207.295 72.0379 207.457 71.8182C207.62 71.5985 207.732 71.3314 207.793 71.017H209.759C209.709 71.6345 209.527 72.1818 209.213 72.6591C208.899 73.1326 208.471 73.5038 207.929 73.7727C207.387 74.0379 206.751 74.1705 206.02 74.1705ZM215.311 74.1705C214.436 74.1705 213.68 73.9886 213.044 73.625C212.411 73.2576 211.925 72.7386 211.584 72.0682C211.243 71.3939 211.072 70.6004 211.072 69.6875C211.072 68.7898 211.243 68.0019 211.584 67.3239C211.929 66.642 212.41 66.1117 213.027 65.733C213.644 65.3504 214.37 65.1591 215.203 65.1591C215.741 65.1591 216.249 65.2462 216.726 65.4205C217.207 65.5909 217.631 65.8561 217.999 66.2159C218.37 66.5758 218.661 67.0341 218.874 67.5909C219.086 68.1439 219.192 68.803 219.192 69.5682V70.1989H212.038V68.8125H217.22C217.216 68.4186 217.131 68.0682 216.964 67.7614C216.798 67.4508 216.565 67.2064 216.266 67.0284C215.97 66.8504 215.625 66.7614 215.232 66.7614C214.811 66.7614 214.442 66.8636 214.124 67.0682C213.805 67.2689 213.557 67.5341 213.379 67.8636C213.205 68.1894 213.116 68.5473 213.112 68.9375V70.1477C213.112 70.6553 213.205 71.0909 213.391 71.4545C213.576 71.8144 213.836 72.0909 214.169 72.2841C214.502 72.4735 214.893 72.5682 215.339 72.5682C215.639 72.5682 215.91 72.5265 216.152 72.4432C216.394 72.3561 216.605 72.2292 216.783 72.0625C216.961 71.8958 217.095 71.6894 217.186 71.4432L219.107 71.6591C218.985 72.1667 218.754 72.6098 218.413 72.9886C218.076 73.3636 217.644 73.6553 217.118 73.8636C216.591 74.0682 215.989 74.1705 215.311 74.1705Z" fill="#0F67F5"/>
<rect x="135" y="49" width="108" height="38" rx="1" stroke="#0F67F5" stroke-width="2"/>
</svg>
