<svg width="417" height="64" fill="none" xmlns="http://www.w3.org/2000/svg"><mask id="b" fill="#fff"><path d="M0 0h417v64H0V0Z"/></mask><path d="M0 0h417v64H0V0Z" fill="#fff"/><path d="M42 37.38H30a.38.38 0 0 1-.38-.38c0-.21.17-.38.38-.38h12c.2 0 .38.17.38.38s-.17.38-.38.38Zm0-5H30a.38.38 0 0 1-.38-.38c0-.21.17-.38.38-.38h12c.2 0 .38.17.38.38s-.17.38-.38.38Zm0-5H30a.38.38 0 0 1-.38-.38c0-.21.17-.38.38-.38h12c.2 0 .38.17.38.38s-.17.38-.38.38Z" fill="#0F67F5" stroke="#757575"/><g clip-path="url(#a)"><path d="M123.07 40.96a.55.55 0 0 1-.56.54H98.07a.56.56 0 0 1-.56-.56c0-6.73 5.9-12.17 12.78-12.17 6.88 0 12.78 5.41 12.78 12.14v.05Zm-2.52-13.46a2.5 2.5 0 0 0 2.52-2.5 2.5 2.5 0 0 0-2.52-2.5 2.5 2.5 0 0 0-2.52 2.5 2.5 2.5 0 0 0 2.52 2.5Z" fill="#F74E4E"/><path d="M85.66 40.94a.56.56 0 0 1-.57.56H64.44a.57.57 0 0 1-.57-.56c0-.11.04-.22.1-.32L74.3 22.75a.62.62 0 0 1 .48-.25.57.57 0 0 1 .46.25l10.33 17.87c.06.1.1.2.1.32Z" fill="#FFB71B"/><path d="M151.73 22.5c-.1 0-.2.04-.28.1l-12.3 9.07a.46.46 0 0 1-.29.09.43.43 0 0 1-.26-.08h-.03l-12.2-9.05a.48.48 0 0 0-.27-.09.54.54 0 0 0-.51.56v17.84a.53.53 0 0 0 .5.56h25.64a.54.54 0 0 0 .52-.56V23.07a.54.54 0 0 0-.52-.57Z" fill="#4FBF5E"/><path d="M98.2 22.53h-2.96a.28.28 0 0 1-.28-.28v-4.19a.56.56 0 0 0-.35-.52.57.57 0 0 0-.22-.04h-5.65a.57.57 0 0 0-.57.56v22.88a.56.56 0 0 0 .57.56h5.65a.57.57 0 0 0 .57-.56V29.56a.27.27 0 0 1 .17-.26.28.28 0 0 1 .1-.02h2.97a.57.57 0 0 0 .57-.56V23.1a.56.56 0 0 0-.57-.57Z" fill="#71C5FF"/></g><rect x="258" y="16" width="99" height="32" rx="4" fill="#0F67F5"/><path d="M288.66 29.12a1.36 1.36 0 0 0-.6-1.02 2.25 2.25 0 0 0-1.32-.36c-.39 0-.72.06-1 .17-.27.12-.48.28-.62.48a1.15 1.15 0 0 0-.08 1.23c.1.16.23.29.4.4.17.1.36.2.56.27.2.07.41.13.62.18l.96.24c.38.09.75.2 1.1.36.36.15.68.35.96.58a2.4 2.4 0 0 1 .93 1.99 2.76 2.76 0 0 1-1.78 2.64 5.2 5.2 0 0 1-2.08.37 5.3 5.3 0 0 1-2.07-.36 3.07 3.07 0 0 1-1.36-1.08 3.18 3.18 0 0 1-.52-1.72h1.8a1.55 1.55 0 0 0 1.09 1.41c.31.12.66.18 1.04.18.4 0 .75-.06 1.06-.18.3-.12.54-.3.71-.5.17-.23.26-.48.27-.77a.97.97 0 0 0-.24-.66 1.71 1.71 0 0 0-.64-.44 6.17 6.17 0 0 0-.95-.32l-1.16-.3a4.66 4.66 0 0 1-2-.97 2.26 2.26 0 0 1-.72-1.76c0-.6.17-1.12.49-1.57.33-.45.77-.8 1.34-1.05a4.5 4.5 0 0 1 1.91-.38c.72 0 1.36.12 1.9.38.55.25.98.6 1.29 1.04.31.44.47.94.48 1.52h-1.77Zm3.47 7.38v-7.64h1.8v7.64h-1.8Zm.91-8.72c-.29 0-.53-.1-.74-.28a.91.91 0 0 1-.3-.7c0-.27.1-.5.3-.69.2-.19.45-.28.74-.28s.53.1.73.28c.21.2.31.42.31.7 0 .26-.1.5-.3.69-.2.19-.45.28-.74.28Zm6.07 11.74a4.7 4.7 0 0 1-1.67-.26c-.46-.17-.84-.4-1.12-.7a2.37 2.37 0 0 1-.58-.97l1.62-.39a1.57 1.57 0 0 0 .88.81c.24.1.53.15.9.15.5 0 .93-.12 1.26-.37.34-.25.5-.65.5-1.22v-1.44h-.08c-.1.18-.23.37-.41.57-.18.2-.41.36-.7.5a3.14 3.14 0 0 1-2.69-.21c-.47-.29-.85-.7-1.13-1.25a4.6 4.6 0 0 1-.42-2.08c0-.84.14-1.55.42-2.13a2.92 2.92 0 0 1 3.84-1.54 2.29 2.29 0 0 1 1.09 1.14h.1v-1.27h1.77v7.76c0 .66-.15 1.2-.47 1.63a2.8 2.8 0 0 1-1.27.95 5 5 0 0 1-1.84.32Zm.01-4.54c.38 0 .7-.1.98-.28.26-.19.47-.45.6-.8.15-.35.22-.77.22-1.25s-.07-.9-.21-1.27a1.8 1.8 0 0 0-.61-.84c-.27-.2-.6-.3-.98-.3-.4 0-.74.1-1 .31-.27.21-.47.5-.61.86-.14.37-.2.78-.2 1.24 0 .46.06.87.2 1.23.14.34.34.61.61.81.27.2.6.29 1 .29Zm7.21-2.95v4.47h-1.8v-7.64h1.73v1.3h.09c.17-.43.45-.77.83-1.02.4-.25.87-.38 1.44-.38.53 0 .99.12 1.38.34.4.23.7.55.91.98.22.43.33.95.33 1.56v4.86h-1.8v-4.58c0-.51-.14-.91-.4-1.2a1.4 1.4 0 0 0-1.09-.43c-.31 0-.6.07-.84.2a1.5 1.5 0 0 0-.57.6 2 2 0 0 0-.2.94Zm15.08 1.26v-4.43h1.8v7.64h-1.75v-1.36h-.08c-.17.43-.45.78-.85 1.05-.39.27-.87.4-1.45.4-.5 0-.94-.1-1.32-.32a2.32 2.32 0 0 1-.9-.98 3.47 3.47 0 0 1-.32-1.56v-4.87h1.8v4.59c0 .48.13.87.4 1.15.26.29.61.43 1.04.43a1.65 1.65 0 0 0 1.38-.77c.16-.26.25-.58.25-.97Zm3.65 6.07v-10.5h1.77v1.27h.1c.1-.19.22-.39.4-.6.16-.2.4-.39.68-.54a2.91 2.91 0 0 1 3.83 1.55c.28.59.42 1.3.42 2.15 0 .84-.13 1.55-.4 2.14a2.89 2.89 0 0 1-2.74 1.8c-.44 0-.8-.07-1.09-.21a2.2 2.2 0 0 1-.7-.53 3.3 3.3 0 0 1-.4-.6h-.07v4.07h-1.8Zm1.76-6.68c0 .5.07.93.21 1.3.14.37.35.66.61.87.27.2.6.3.98.3.4 0 .73-.1 1-.31.26-.22.47-.5.6-.88.14-.38.21-.8.21-1.28 0-.47-.07-.9-.2-1.26a1.9 1.9 0 0 0-.61-.87c-.27-.2-.6-.3-1-.3-.39 0-.72.1-.98.3-.27.2-.47.48-.62.84-.13.37-.2.8-.2 1.3Z" fill="#fff"/><path d="M387.37 39.85h-.01l-.5-.22c.22-.17.43-.35.64-.54l.17.07c.2.08.28.3.2.5a.38.38 0 0 1-.34.22h-.03a.3.3 0 0 1-.13-.03Zm-.88-1.21a8.6 8.6 0 0 1-.69.51 11.5 11.5 0 0 1-3.05-1.88c-.2-.2-.28-.36-.3-.48a.68.68 0 0 1 .02-.38c.1-.28.32-.53.5-.74l.02-.02c.3-.33.72-.78 1.06-1.5a7.4 7.4 0 0 0 .58-3.15c0-1.9-.43-3.09-1.17-3.8a3.4 3.4 0 0 0-2.45-.82c-.76 0-1.7.12-2.45.83-.74.71-1.17 1.9-1.17 3.79 0 1.4.24 2.4.58 3.14.33.73.75 1.18 1.06 1.51l.01.02c.2.2.42.46.51.74.05.13.06.25.03.38-.03.12-.11.28-.3.48-.52.52-1.52 1.14-3.08 1.89a8.69 8.69 0 0 1-.68-.51c1.62-.75 2.5-1.3 2.98-1.68l.43-.35-.39-.38v-.01l-.07-.07a6.1 6.1 0 0 1-1.15-1.62 8.1 8.1 0 0 1-.68-3.53c0-2.45.73-3.76 1.57-4.47a4.32 4.32 0 0 1 2.81-.91c.86 0 1.94.18 2.8.9.85.71 1.58 2.02 1.58 4.48a8.1 8.1 0 0 1-.68 3.54 6.11 6.11 0 0 1-1.17 1.63l-.04.05-.4.39.43.35c.5.4 1.36.94 2.95 1.67ZM381 41.62c1.78 0 3.45-.48 4.88-1.33l.83.37a10.32 10.32 0 0 1-11.42 0c.3-.12.57-.24.84-.37a9.56 9.56 0 0 0 4.87 1.33Zm-7.23-3.27c-.22.14-.39.34-.5.57a10.4 10.4 0 1 1 18.1-6.92c.01 2.64-.98 5.06-2.61 6.9a1.38 1.38 0 0 0-.52-.57A9.63 9.63 0 1 0 371.38 32c0 2.43.9 4.65 2.4 6.35Zm.4 1.3a.38.38 0 0 1 .2-.5l.14-.05c.2.19.42.37.64.54l-.49.21a.38.38 0 0 1-.5-.2Z" fill="#0F67F5" stroke="#757575"/><path d="M417 63H0v2h417v-2Z" fill="#EEE" mask="url(#b)"/><defs><clipPath id="a"><path fill="#fff" transform="translate(64 17.5)" d="M0 0h88v24H0z"/></clipPath></defs></svg>