<svg width="672" height="216" viewBox="0 0 672 216" fill="none" xmlns="http://www.w3.org/2000/svg">
<rect width="672" height="216" fill="#F6F6F6"/>
<path d="M155.5 50.6199C155.34 50.6199 155.18 50.5599 155.06 50.4399L151.06 46.4399C150.82 46.1999 150.82 45.7999 151.06 45.5599C151.3 45.3199 151.7 45.3199 151.94 45.5599L155.5 49.1199L159.06 45.5599C159.3 45.3199 159.7 45.3199 159.94 45.5599C160.18 45.7999 160.18 46.1999 159.94 46.4399L155.94 50.4399C155.82 50.5599 155.66 50.6199 155.5 50.6199V50.6199Z" fill="#333333"/>
<path d="M180.909 54V42.3636H184.841C185.754 42.3636 186.5 42.5284 187.08 42.858C187.663 43.1837 188.095 43.625 188.375 44.1818C188.655 44.7386 188.795 45.3598 188.795 46.0455C188.795 46.7311 188.655 47.3542 188.375 47.9148C188.098 48.4754 187.67 48.9223 187.091 49.2557C186.511 49.5852 185.769 49.75 184.864 49.75H182.045V48.5H184.818C185.443 48.5 185.945 48.392 186.324 48.1761C186.703 47.9602 186.977 47.6686 187.148 47.3011C187.322 46.9299 187.409 46.5114 187.409 46.0455C187.409 45.5795 187.322 45.1629 187.148 44.7955C186.977 44.428 186.701 44.1402 186.318 43.9318C185.936 43.7197 185.428 43.6136 184.795 43.6136H182.318V54H180.909ZM193.452 54.2045C192.899 54.2045 192.397 54.1004 191.946 53.892C191.495 53.6799 191.137 53.375 190.872 52.9773C190.607 52.5758 190.474 52.0909 190.474 51.5227C190.474 51.0227 190.573 50.6174 190.77 50.3068C190.967 49.9924 191.23 49.7462 191.56 49.5682C191.889 49.3902 192.253 49.2576 192.651 49.1705C193.052 49.0795 193.455 49.0076 193.861 48.9545C194.391 48.8864 194.821 48.8352 195.151 48.8011C195.484 48.7633 195.726 48.7008 195.878 48.6136C196.033 48.5265 196.111 48.375 196.111 48.1591V48.1136C196.111 47.553 195.957 47.1174 195.651 46.8068C195.348 46.4962 194.887 46.3409 194.27 46.3409C193.63 46.3409 193.128 46.4811 192.764 46.7614C192.401 47.0417 192.145 47.3409 191.997 47.6591L190.724 47.2045C190.952 46.6742 191.255 46.2614 191.634 45.9659C192.016 45.6667 192.433 45.4583 192.884 45.3409C193.338 45.2197 193.785 45.1591 194.224 45.1591C194.505 45.1591 194.827 45.1932 195.19 45.2614C195.558 45.3258 195.912 45.4602 196.253 45.6648C196.598 45.8693 196.884 46.178 197.111 46.5909C197.338 47.0038 197.452 47.5568 197.452 48.25V54H196.111V52.8182H196.043C195.952 53.0076 195.8 53.2102 195.588 53.4261C195.376 53.642 195.094 53.8258 194.741 53.9773C194.389 54.1288 193.959 54.2045 193.452 54.2045ZM193.656 53C194.187 53 194.634 52.8958 194.997 52.6875C195.365 52.4792 195.641 52.2102 195.827 51.8807C196.016 51.5511 196.111 51.2045 196.111 50.8409V49.6136C196.054 49.6818 195.929 49.7443 195.736 49.8011C195.546 49.8542 195.327 49.9015 195.077 49.9432C194.83 49.9811 194.59 50.0152 194.355 50.0455C194.124 50.072 193.937 50.0947 193.793 50.1136C193.444 50.1591 193.118 50.233 192.815 50.3352C192.516 50.4337 192.274 50.5833 192.088 50.7841C191.906 50.9811 191.815 51.25 191.815 51.5909C191.815 52.0568 191.988 52.4091 192.332 52.6477C192.681 52.8826 193.122 53 193.656 53ZM199.899 54V45.2727H201.195V46.5909H201.286C201.445 46.1591 201.732 45.8087 202.149 45.5398C202.566 45.2708 203.036 45.1364 203.558 45.1364C203.657 45.1364 203.78 45.1383 203.928 45.142C204.075 45.1458 204.187 45.1515 204.263 45.1591V46.5227C204.217 46.5114 204.113 46.4943 203.95 46.4716C203.791 46.4451 203.623 46.4318 203.445 46.4318C203.02 46.4318 202.642 46.5208 202.308 46.6989C201.979 46.8731 201.717 47.1155 201.524 47.4261C201.335 47.733 201.24 48.0833 201.24 48.4773V54H199.899ZM209.246 54.1818C208.405 54.1818 207.679 53.9962 207.07 53.625C206.464 53.25 205.996 52.7273 205.666 52.0568C205.34 51.3826 205.178 50.5985 205.178 49.7045C205.178 48.8106 205.34 48.0227 205.666 47.3409C205.996 46.6553 206.454 46.1212 207.041 45.7386C207.632 45.3523 208.321 45.1591 209.109 45.1591C209.564 45.1591 210.013 45.2348 210.456 45.3864C210.899 45.5379 211.303 45.7841 211.666 46.125C212.03 46.4621 212.32 46.9091 212.536 47.4659C212.751 48.0227 212.859 48.7083 212.859 49.5227V50.0909H206.132V48.9318H211.496C211.496 48.4394 211.397 48 211.2 47.6136C211.007 47.2273 210.731 46.9223 210.371 46.6989C210.015 46.4754 209.594 46.3636 209.109 46.3636C208.575 46.3636 208.113 46.4962 207.723 46.7614C207.337 47.0227 207.039 47.3636 206.831 47.7841C206.623 48.2045 206.518 48.6553 206.518 49.1364V49.9091C206.518 50.5682 206.632 51.1269 206.859 51.5852C207.09 52.0398 207.411 52.3864 207.82 52.625C208.229 52.8598 208.704 52.9773 209.246 52.9773C209.598 52.9773 209.916 52.928 210.2 52.8295C210.488 52.7273 210.736 52.5758 210.945 52.375C211.153 52.1705 211.314 51.9167 211.428 51.6136L212.723 51.9773C212.587 52.4167 212.357 52.803 212.036 53.1364C211.714 53.4659 211.316 53.7235 210.842 53.9091C210.369 54.0909 209.837 54.1818 209.246 54.1818ZM216.24 48.75V54H214.899V45.2727H216.195V46.6364H216.308C216.513 46.1932 216.823 45.8371 217.24 45.5682C217.657 45.2955 218.195 45.1591 218.854 45.1591C219.445 45.1591 219.962 45.2803 220.405 45.5227C220.848 45.7614 221.193 46.125 221.439 46.6136C221.685 47.0985 221.808 47.7121 221.808 48.4545V54H220.467V48.5455C220.467 47.8598 220.289 47.3258 219.933 46.9432C219.577 46.5568 219.089 46.3636 218.467 46.3636C218.039 46.3636 217.657 46.4564 217.32 46.642C216.986 46.8277 216.723 47.0985 216.53 47.4545C216.337 47.8106 216.24 48.2424 216.24 48.75ZM228.054 45.2727V46.4091H223.531V45.2727H228.054ZM224.849 43.1818H226.19V51.5C226.19 51.8788 226.245 52.1629 226.355 52.3523C226.469 52.5379 226.613 52.6629 226.787 52.7273C226.965 52.7879 227.152 52.8182 227.349 52.8182C227.497 52.8182 227.618 52.8106 227.713 52.7955C227.808 52.7765 227.884 52.7614 227.94 52.75L228.213 53.9545C228.122 53.9886 227.995 54.0227 227.832 54.0568C227.67 54.0947 227.463 54.1136 227.213 54.1136C226.834 54.1136 226.463 54.0322 226.099 53.8693C225.74 53.7064 225.44 53.4583 225.202 53.125C224.967 52.7917 224.849 52.3712 224.849 51.8636V43.1818ZM235.912 48.75V54H234.571V45.2727H235.866V46.6364H235.98C236.185 46.1932 236.495 45.8371 236.912 45.5682C237.329 45.2955 237.866 45.1591 238.526 45.1591C239.116 45.1591 239.634 45.2803 240.077 45.5227C240.52 45.7614 240.865 46.125 241.111 46.6136C241.357 47.0985 241.48 47.7121 241.48 48.4545V54H240.139V48.5455C240.139 47.8598 239.961 47.3258 239.605 46.9432C239.249 46.5568 238.76 46.3636 238.139 46.3636C237.711 46.3636 237.329 46.4564 236.991 46.642C236.658 46.8277 236.395 47.0985 236.202 47.4545C236.009 47.8106 235.912 48.2424 235.912 48.75ZM247.476 54.1818C246.688 54.1818 245.997 53.9943 245.402 53.6193C244.811 53.2443 244.349 52.7197 244.016 52.0455C243.686 51.3712 243.521 50.5833 243.521 49.6818C243.521 48.7727 243.686 47.9792 244.016 47.3011C244.349 46.6231 244.811 46.0966 245.402 45.7216C245.997 45.3466 246.688 45.1591 247.476 45.1591C248.264 45.1591 248.953 45.3466 249.544 45.7216C250.139 46.0966 250.601 46.6231 250.93 47.3011C251.264 47.9792 251.43 48.7727 251.43 49.6818C251.43 50.5833 251.264 51.3712 250.93 52.0455C250.601 52.7197 250.139 53.2443 249.544 53.6193C248.953 53.9943 248.264 54.1818 247.476 54.1818ZM247.476 52.9773C248.074 52.9773 248.567 52.8239 248.953 52.517C249.339 52.2102 249.625 51.8068 249.811 51.3068C249.997 50.8068 250.089 50.2652 250.089 49.6818C250.089 49.0985 249.997 48.5549 249.811 48.0511C249.625 47.5473 249.339 47.1402 248.953 46.8295C248.567 46.5189 248.074 46.3636 247.476 46.3636C246.877 46.3636 246.385 46.5189 245.999 46.8295C245.612 47.1402 245.326 47.5473 245.141 48.0511C244.955 48.5549 244.862 49.0985 244.862 49.6818C244.862 50.2652 244.955 50.8068 245.141 51.3068C245.326 51.8068 245.612 52.2102 245.999 52.517C246.385 52.8239 246.877 52.9773 247.476 52.9773ZM256.773 54.1818C256.045 54.1818 255.403 53.9981 254.847 53.6307C254.29 53.2595 253.854 52.7367 253.54 52.0625C253.225 51.3845 253.068 50.5833 253.068 49.6591C253.068 48.7424 253.225 47.947 253.54 47.2727C253.854 46.5985 254.292 46.0777 254.852 45.7102C255.413 45.3428 256.061 45.1591 256.795 45.1591C257.364 45.1591 257.813 45.2538 258.142 45.4432C258.475 45.6288 258.729 45.8409 258.903 46.0795C259.081 46.3144 259.22 46.5076 259.318 46.6591H259.432V42.3636H260.773V54H259.477V52.6591H259.318C259.22 52.8182 259.08 53.0189 258.898 53.2614C258.716 53.5 258.456 53.714 258.119 53.9034C257.782 54.089 257.333 54.1818 256.773 54.1818ZM256.955 52.9773C257.492 52.9773 257.947 52.8371 258.318 52.5568C258.689 52.2727 258.972 51.8807 259.165 51.3807C259.358 50.8769 259.455 50.2955 259.455 49.6364C259.455 48.9848 259.36 48.4148 259.17 47.9261C258.981 47.4337 258.701 47.0511 258.33 46.7784C257.958 46.5019 257.5 46.3636 256.955 46.3636C256.386 46.3636 255.913 46.5095 255.534 46.8011C255.159 47.089 254.877 47.4811 254.688 47.9773C254.502 48.4697 254.409 49.0227 254.409 49.6364C254.409 50.2576 254.504 50.822 254.693 51.3295C254.886 51.8333 255.17 52.2348 255.545 52.5341C255.924 52.8295 256.394 52.9773 256.955 52.9773ZM267.074 54.1818C266.233 54.1818 265.508 53.9962 264.898 53.625C264.292 53.25 263.824 52.7273 263.494 52.0568C263.169 51.3826 263.006 50.5985 263.006 49.7045C263.006 48.8106 263.169 48.0227 263.494 47.3409C263.824 46.6553 264.282 46.1212 264.869 45.7386C265.46 45.3523 266.15 45.1591 266.938 45.1591C267.392 45.1591 267.841 45.2348 268.284 45.3864C268.727 45.5379 269.131 45.7841 269.494 46.125C269.858 46.4621 270.148 46.9091 270.364 47.4659C270.58 48.0227 270.688 48.7083 270.688 49.5227V50.0909H263.96V48.9318H269.324C269.324 48.4394 269.225 48 269.028 47.6136C268.835 47.2273 268.559 46.9223 268.199 46.6989C267.843 46.4754 267.422 46.3636 266.938 46.3636C266.403 46.3636 265.941 46.4962 265.551 46.7614C265.165 47.0227 264.867 47.3636 264.659 47.7841C264.451 48.2045 264.347 48.6553 264.347 49.1364V49.9091C264.347 50.5682 264.46 51.1269 264.688 51.5852C264.919 52.0398 265.239 52.3864 265.648 52.625C266.057 52.8598 266.532 52.9773 267.074 52.9773C267.426 52.9773 267.744 52.928 268.028 52.8295C268.316 52.7273 268.564 52.5758 268.773 52.375C268.981 52.1705 269.142 51.9167 269.256 51.6136L270.551 51.9773C270.415 52.4167 270.186 52.803 269.864 53.1364C269.542 53.4659 269.144 53.7235 268.67 53.9091C268.197 54.0909 267.665 54.1818 267.074 54.1818Z" fill="#333333"/>
<path d="M169.5 92.6199C169.34 92.6199 169.18 92.5599 169.06 92.4399C168.82 92.1999 168.82 91.7999 169.06 91.5599L172.62 87.9999L169.06 84.4399C168.82 84.1999 168.82 83.7999 169.06 83.5599C169.3 83.3199 169.7 83.3199 169.94 83.5599L173.94 87.5599C174.18 87.7999 174.18 88.1999 173.94 88.4399L169.94 92.4399C169.82 92.5599 169.66 92.6199 169.5 92.6199V92.6199Z" fill="#333333"/>
<path d="M206.273 86H204.864C204.78 85.5947 204.634 85.2386 204.426 84.9318C204.222 84.625 203.972 84.3674 203.676 84.1591C203.384 83.947 203.061 83.7879 202.705 83.6818C202.348 83.5758 201.977 83.5227 201.591 83.5227C200.886 83.5227 200.248 83.7008 199.676 84.0568C199.108 84.4129 198.655 84.9375 198.318 85.6307C197.985 86.3239 197.818 87.1742 197.818 88.1818C197.818 89.1894 197.985 90.0398 198.318 90.733C198.655 91.4261 199.108 91.9508 199.676 92.3068C200.248 92.6629 200.886 92.8409 201.591 92.8409C201.977 92.8409 202.348 92.7879 202.705 92.6818C203.061 92.5758 203.384 92.4186 203.676 92.2102C203.972 91.9981 204.222 91.7386 204.426 91.4318C204.634 91.1212 204.78 90.7652 204.864 90.3636H206.273C206.167 90.9583 205.973 91.4905 205.693 91.9602C205.413 92.4299 205.064 92.8295 204.648 93.1591C204.231 93.4848 203.763 93.733 203.244 93.9034C202.729 94.0739 202.178 94.1591 201.591 94.1591C200.598 94.1591 199.716 93.9167 198.943 93.4318C198.17 92.947 197.563 92.2576 197.119 91.3636C196.676 90.4697 196.455 89.4091 196.455 88.1818C196.455 86.9545 196.676 85.8939 197.119 85C197.563 84.1061 198.17 83.4167 198.943 82.9318C199.716 82.447 200.598 82.2045 201.591 82.2045C202.178 82.2045 202.729 82.2898 203.244 82.4602C203.763 82.6307 204.231 82.8807 204.648 83.2102C205.064 83.536 205.413 83.9337 205.693 84.4034C205.973 84.8693 206.167 85.4015 206.273 86ZM209.709 88.75V94H208.368V82.3636H209.709V86.6364H209.822C210.027 86.1856 210.334 85.8277 210.743 85.5625C211.156 85.2936 211.705 85.1591 212.391 85.1591C212.985 85.1591 213.506 85.2784 213.953 85.517C214.4 85.7519 214.747 86.1136 214.993 86.6023C215.243 87.0871 215.368 87.7045 215.368 88.4545V94H214.027V88.5455C214.027 87.8523 213.847 87.3163 213.487 86.9375C213.131 86.5549 212.637 86.3636 212.004 86.3636C211.565 86.3636 211.171 86.4564 210.822 86.642C210.478 86.8277 210.205 87.0985 210.004 87.4545C209.807 87.8106 209.709 88.2424 209.709 88.75ZM217.821 94V85.2727H219.162V94H217.821ZM218.503 83.8182C218.241 83.8182 218.016 83.7292 217.827 83.5511C217.641 83.3731 217.548 83.1591 217.548 82.9091C217.548 82.6591 217.641 82.4451 217.827 82.267C218.016 82.089 218.241 82 218.503 82C218.764 82 218.988 82.089 219.173 82.267C219.363 82.4451 219.457 82.6591 219.457 82.9091C219.457 83.1591 219.363 83.3731 219.173 83.5511C218.988 83.7292 218.764 83.8182 218.503 83.8182ZM222.959 82.3636V94H221.618V82.3636H222.959ZM228.71 94.1818C227.983 94.1818 227.341 93.9981 226.784 93.6307C226.227 93.2595 225.792 92.7367 225.477 92.0625C225.163 91.3845 225.006 90.5833 225.006 89.6591C225.006 88.7424 225.163 87.947 225.477 87.2727C225.792 86.5985 226.229 86.0777 226.79 85.7102C227.35 85.3428 227.998 85.1591 228.733 85.1591C229.301 85.1591 229.75 85.2538 230.08 85.4432C230.413 85.6288 230.667 85.8409 230.841 86.0795C231.019 86.3144 231.157 86.5076 231.256 86.6591H231.369V82.3636H232.71V94H231.415V92.6591H231.256C231.157 92.8182 231.017 93.0189 230.835 93.2614C230.653 93.5 230.394 93.714 230.057 93.9034C229.72 94.089 229.271 94.1818 228.71 94.1818ZM228.892 92.9773C229.43 92.9773 229.884 92.8371 230.256 92.5568C230.627 92.2727 230.909 91.8807 231.102 91.3807C231.295 90.8769 231.392 90.2955 231.392 89.6364C231.392 88.9848 231.297 88.4148 231.108 87.9261C230.919 87.4337 230.638 87.0511 230.267 86.7784C229.896 86.5019 229.438 86.3636 228.892 86.3636C228.324 86.3636 227.85 86.5095 227.472 86.8011C227.097 87.089 226.814 87.4811 226.625 87.9773C226.439 88.4697 226.347 89.0227 226.347 89.6364C226.347 90.2576 226.441 90.822 226.631 91.3295C226.824 91.8333 227.108 92.2348 227.483 92.5341C227.862 92.8295 228.331 92.9773 228.892 92.9773ZM241.193 88.75V94H239.852V85.2727H241.148V86.6364H241.261C241.466 86.1932 241.777 85.8371 242.193 85.5682C242.61 85.2955 243.148 85.1591 243.807 85.1591C244.398 85.1591 244.915 85.2803 245.358 85.5227C245.801 85.7614 246.146 86.125 246.392 86.6136C246.638 87.0985 246.761 87.7121 246.761 88.4545V94H245.42V88.5455C245.42 87.8598 245.242 87.3258 244.886 86.9432C244.53 86.5568 244.042 86.3636 243.42 86.3636C242.992 86.3636 242.61 86.4564 242.273 86.642C241.939 86.8277 241.676 87.0985 241.483 87.4545C241.29 87.8106 241.193 88.2424 241.193 88.75ZM252.757 94.1818C251.969 94.1818 251.278 93.9943 250.683 93.6193C250.092 93.2443 249.63 92.7197 249.297 92.0455C248.967 91.3712 248.803 90.5833 248.803 89.6818C248.803 88.7727 248.967 87.9792 249.297 87.3011C249.63 86.6231 250.092 86.0966 250.683 85.7216C251.278 85.3466 251.969 85.1591 252.757 85.1591C253.545 85.1591 254.234 85.3466 254.825 85.7216C255.42 86.0966 255.882 86.6231 256.212 87.3011C256.545 87.9792 256.712 88.7727 256.712 89.6818C256.712 90.5833 256.545 91.3712 256.212 92.0455C255.882 92.7197 255.42 93.2443 254.825 93.6193C254.234 93.9943 253.545 94.1818 252.757 94.1818ZM252.757 92.9773C253.356 92.9773 253.848 92.8239 254.234 92.517C254.621 92.2102 254.907 91.8068 255.092 91.3068C255.278 90.8068 255.371 90.2652 255.371 89.6818C255.371 89.0985 255.278 88.5549 255.092 88.0511C254.907 87.5473 254.621 87.1402 254.234 86.8295C253.848 86.5189 253.356 86.3636 252.757 86.3636C252.159 86.3636 251.666 86.5189 251.28 86.8295C250.893 87.1402 250.607 87.5473 250.422 88.0511C250.236 88.5549 250.143 89.0985 250.143 89.6818C250.143 90.2652 250.236 90.8068 250.422 91.3068C250.607 91.8068 250.893 92.2102 251.28 92.517C251.666 92.8239 252.159 92.9773 252.757 92.9773ZM262.054 94.1818C261.327 94.1818 260.685 93.9981 260.128 93.6307C259.571 93.2595 259.135 92.7367 258.821 92.0625C258.507 91.3845 258.349 90.5833 258.349 89.6591C258.349 88.7424 258.507 87.947 258.821 87.2727C259.135 86.5985 259.573 86.0777 260.134 85.7102C260.694 85.3428 261.342 85.1591 262.077 85.1591C262.645 85.1591 263.094 85.2538 263.423 85.4432C263.757 85.6288 264.01 85.8409 264.185 86.0795C264.363 86.3144 264.501 86.5076 264.599 86.6591H264.713V82.3636H266.054V94H264.759V92.6591H264.599C264.501 92.8182 264.361 93.0189 264.179 93.2614C263.997 93.5 263.738 93.714 263.401 93.9034C263.063 94.089 262.615 94.1818 262.054 94.1818ZM262.236 92.9773C262.774 92.9773 263.228 92.8371 263.599 92.5568C263.971 92.2727 264.253 91.8807 264.446 91.3807C264.639 90.8769 264.736 90.2955 264.736 89.6364C264.736 88.9848 264.641 88.4148 264.452 87.9261C264.262 87.4337 263.982 87.0511 263.611 86.7784C263.24 86.5019 262.781 86.3636 262.236 86.3636C261.668 86.3636 261.194 86.5095 260.815 86.8011C260.44 87.089 260.158 87.4811 259.969 87.9773C259.783 88.4697 259.69 89.0227 259.69 89.6364C259.69 90.2576 259.785 90.822 259.974 91.3295C260.168 91.8333 260.452 92.2348 260.827 92.5341C261.205 92.8295 261.675 92.9773 262.236 92.9773ZM272.355 94.1818C271.514 94.1818 270.789 93.9962 270.179 93.625C269.573 93.25 269.105 92.7273 268.776 92.0568C268.45 91.3826 268.287 90.5985 268.287 89.7045C268.287 88.8106 268.45 88.0227 268.776 87.3409C269.105 86.6553 269.563 86.1212 270.151 85.7386C270.741 85.3523 271.431 85.1591 272.219 85.1591C272.673 85.1591 273.122 85.2348 273.565 85.3864C274.009 85.5379 274.412 85.7841 274.776 86.125C275.139 86.4621 275.429 86.9091 275.645 87.4659C275.861 88.0227 275.969 88.7083 275.969 89.5227V90.0909H269.241V88.9318H274.605C274.605 88.4394 274.507 88 274.31 87.6136C274.116 87.2273 273.84 86.9223 273.48 86.6989C273.124 86.4754 272.704 86.3636 272.219 86.3636C271.685 86.3636 271.223 86.4962 270.832 86.7614C270.446 87.0227 270.149 87.3636 269.94 87.7841C269.732 88.2045 269.628 88.6553 269.628 89.1364V89.9091C269.628 90.5682 269.741 91.1269 269.969 91.5852C270.2 92.0398 270.52 92.3864 270.929 92.625C271.338 92.8598 271.813 92.9773 272.355 92.9773C272.707 92.9773 273.026 92.928 273.31 92.8295C273.598 92.7273 273.846 92.5758 274.054 92.375C274.262 92.1705 274.423 91.9167 274.537 91.6136L275.832 91.9773C275.696 92.4167 275.467 92.803 275.145 93.1364C274.823 93.4659 274.425 93.7235 273.952 93.9091C273.478 94.0909 272.946 94.1818 272.355 94.1818Z" fill="#333333"/>
<path d="M196.909 134V122.364H198.318V132.75H203.727V134H196.909ZM209.386 134.182C208.545 134.182 207.82 133.996 207.21 133.625C206.604 133.25 206.136 132.727 205.807 132.057C205.481 131.383 205.318 130.598 205.318 129.705C205.318 128.811 205.481 128.023 205.807 127.341C206.136 126.655 206.595 126.121 207.182 125.739C207.773 125.352 208.462 125.159 209.25 125.159C209.705 125.159 210.153 125.235 210.597 125.386C211.04 125.538 211.443 125.784 211.807 126.125C212.17 126.462 212.46 126.909 212.676 127.466C212.892 128.023 213 128.708 213 129.523V130.091H206.273V128.932H211.636C211.636 128.439 211.538 128 211.341 127.614C211.148 127.227 210.871 126.922 210.511 126.699C210.155 126.475 209.735 126.364 209.25 126.364C208.716 126.364 208.254 126.496 207.864 126.761C207.477 127.023 207.18 127.364 206.972 127.784C206.763 128.205 206.659 128.655 206.659 129.136V129.909C206.659 130.568 206.773 131.127 207 131.585C207.231 132.04 207.551 132.386 207.96 132.625C208.369 132.86 208.845 132.977 209.386 132.977C209.739 132.977 210.057 132.928 210.341 132.83C210.629 132.727 210.877 132.576 211.085 132.375C211.294 132.17 211.455 131.917 211.568 131.614L212.864 131.977C212.727 132.417 212.498 132.803 212.176 133.136C211.854 133.466 211.456 133.723 210.983 133.909C210.509 134.091 209.977 134.182 209.386 134.182ZM217.608 134.205C217.055 134.205 216.553 134.1 216.102 133.892C215.652 133.68 215.294 133.375 215.028 132.977C214.763 132.576 214.631 132.091 214.631 131.523C214.631 131.023 214.729 130.617 214.926 130.307C215.123 129.992 215.386 129.746 215.716 129.568C216.045 129.39 216.409 129.258 216.807 129.17C217.208 129.08 217.612 129.008 218.017 128.955C218.547 128.886 218.977 128.835 219.307 128.801C219.64 128.763 219.883 128.701 220.034 128.614C220.189 128.527 220.267 128.375 220.267 128.159V128.114C220.267 127.553 220.114 127.117 219.807 126.807C219.504 126.496 219.044 126.341 218.426 126.341C217.786 126.341 217.284 126.481 216.92 126.761C216.557 127.042 216.301 127.341 216.153 127.659L214.881 127.205C215.108 126.674 215.411 126.261 215.79 125.966C216.172 125.667 216.589 125.458 217.04 125.341C217.494 125.22 217.941 125.159 218.381 125.159C218.661 125.159 218.983 125.193 219.347 125.261C219.714 125.326 220.068 125.46 220.409 125.665C220.754 125.869 221.04 126.178 221.267 126.591C221.494 127.004 221.608 127.557 221.608 128.25V134H220.267V132.818H220.199C220.108 133.008 219.956 133.21 219.744 133.426C219.532 133.642 219.25 133.826 218.898 133.977C218.545 134.129 218.116 134.205 217.608 134.205ZM217.812 133C218.343 133 218.79 132.896 219.153 132.688C219.521 132.479 219.797 132.21 219.983 131.881C220.172 131.551 220.267 131.205 220.267 130.841V129.614C220.21 129.682 220.085 129.744 219.892 129.801C219.703 129.854 219.483 129.902 219.233 129.943C218.987 129.981 218.746 130.015 218.511 130.045C218.28 130.072 218.093 130.095 217.949 130.114C217.6 130.159 217.275 130.233 216.972 130.335C216.672 130.434 216.43 130.583 216.244 130.784C216.063 130.981 215.972 131.25 215.972 131.591C215.972 132.057 216.144 132.409 216.489 132.648C216.837 132.883 217.278 133 217.812 133ZM227.942 125.273V126.409H223.237V125.273H227.942ZM224.646 134V124.068C224.646 123.568 224.764 123.152 224.999 122.818C225.233 122.485 225.538 122.235 225.913 122.068C226.288 121.902 226.684 121.818 227.101 121.818C227.43 121.818 227.699 121.845 227.908 121.898C228.116 121.951 228.271 122 228.374 122.045L227.987 123.205C227.919 123.182 227.824 123.153 227.703 123.119C227.586 123.085 227.43 123.068 227.237 123.068C226.794 123.068 226.474 123.18 226.277 123.403C226.084 123.627 225.987 123.955 225.987 124.386V134H224.646ZM235.662 128.75V134H234.321V125.273H235.616V126.636H235.73C235.935 126.193 236.245 125.837 236.662 125.568C237.079 125.295 237.616 125.159 238.276 125.159C238.866 125.159 239.384 125.28 239.827 125.523C240.27 125.761 240.615 126.125 240.861 126.614C241.107 127.098 241.23 127.712 241.23 128.455V134H239.889V128.545C239.889 127.86 239.711 127.326 239.355 126.943C238.999 126.557 238.51 126.364 237.889 126.364C237.461 126.364 237.079 126.456 236.741 126.642C236.408 126.828 236.145 127.098 235.952 127.455C235.759 127.811 235.662 128.242 235.662 128.75ZM247.226 134.182C246.438 134.182 245.747 133.994 245.152 133.619C244.561 133.244 244.099 132.72 243.766 132.045C243.436 131.371 243.271 130.583 243.271 129.682C243.271 128.773 243.436 127.979 243.766 127.301C244.099 126.623 244.561 126.097 245.152 125.722C245.747 125.347 246.438 125.159 247.226 125.159C248.014 125.159 248.703 125.347 249.294 125.722C249.889 126.097 250.351 126.623 250.68 127.301C251.014 127.979 251.18 128.773 251.18 129.682C251.18 130.583 251.014 131.371 250.68 132.045C250.351 132.72 249.889 133.244 249.294 133.619C248.703 133.994 248.014 134.182 247.226 134.182ZM247.226 132.977C247.824 132.977 248.317 132.824 248.703 132.517C249.089 132.21 249.375 131.807 249.561 131.307C249.747 130.807 249.839 130.265 249.839 129.682C249.839 129.098 249.747 128.555 249.561 128.051C249.375 127.547 249.089 127.14 248.703 126.83C248.317 126.519 247.824 126.364 247.226 126.364C246.627 126.364 246.135 126.519 245.749 126.83C245.362 127.14 245.076 127.547 244.891 128.051C244.705 128.555 244.612 129.098 244.612 129.682C244.612 130.265 244.705 130.807 244.891 131.307C245.076 131.807 245.362 132.21 245.749 132.517C246.135 132.824 246.627 132.977 247.226 132.977ZM256.523 134.182C255.795 134.182 255.153 133.998 254.597 133.631C254.04 133.259 253.604 132.737 253.29 132.062C252.975 131.384 252.818 130.583 252.818 129.659C252.818 128.742 252.975 127.947 253.29 127.273C253.604 126.598 254.042 126.078 254.602 125.71C255.163 125.343 255.811 125.159 256.545 125.159C257.114 125.159 257.563 125.254 257.892 125.443C258.225 125.629 258.479 125.841 258.653 126.08C258.831 126.314 258.97 126.508 259.068 126.659H259.182V122.364H260.523V134H259.227V132.659H259.068C258.97 132.818 258.83 133.019 258.648 133.261C258.466 133.5 258.206 133.714 257.869 133.903C257.532 134.089 257.083 134.182 256.523 134.182ZM256.705 132.977C257.242 132.977 257.697 132.837 258.068 132.557C258.439 132.273 258.722 131.881 258.915 131.381C259.108 130.877 259.205 130.295 259.205 129.636C259.205 128.985 259.11 128.415 258.92 127.926C258.731 127.434 258.451 127.051 258.08 126.778C257.708 126.502 257.25 126.364 256.705 126.364C256.136 126.364 255.663 126.509 255.284 126.801C254.909 127.089 254.627 127.481 254.438 127.977C254.252 128.47 254.159 129.023 254.159 129.636C254.159 130.258 254.254 130.822 254.443 131.33C254.636 131.833 254.92 132.235 255.295 132.534C255.674 132.83 256.144 132.977 256.705 132.977ZM266.824 134.182C265.983 134.182 265.258 133.996 264.648 133.625C264.042 133.25 263.574 132.727 263.244 132.057C262.919 131.383 262.756 130.598 262.756 129.705C262.756 128.811 262.919 128.023 263.244 127.341C263.574 126.655 264.032 126.121 264.619 125.739C265.21 125.352 265.9 125.159 266.688 125.159C267.142 125.159 267.591 125.235 268.034 125.386C268.477 125.538 268.881 125.784 269.244 126.125C269.608 126.462 269.898 126.909 270.114 127.466C270.33 128.023 270.438 128.708 270.438 129.523V130.091H263.71V128.932H269.074C269.074 128.439 268.975 128 268.778 127.614C268.585 127.227 268.309 126.922 267.949 126.699C267.593 126.475 267.172 126.364 266.688 126.364C266.153 126.364 265.691 126.496 265.301 126.761C264.915 127.023 264.617 127.364 264.409 127.784C264.201 128.205 264.097 128.655 264.097 129.136V129.909C264.097 130.568 264.21 131.127 264.438 131.585C264.669 132.04 264.989 132.386 265.398 132.625C265.807 132.86 266.282 132.977 266.824 132.977C267.176 132.977 267.494 132.928 267.778 132.83C268.066 132.727 268.314 132.576 268.523 132.375C268.731 132.17 268.892 131.917 269.006 131.614L270.301 131.977C270.165 132.417 269.936 132.803 269.614 133.136C269.292 133.466 268.894 133.723 268.42 133.909C267.947 134.091 267.415 134.182 266.824 134.182Z" fill="#333333"/>
<path d="M169.5 172.62C169.34 172.62 169.18 172.56 169.06 172.44C168.82 172.2 168.82 171.8 169.06 171.56L172.62 168L169.06 164.44C168.82 164.2 168.82 163.8 169.06 163.56C169.3 163.32 169.7 163.32 169.94 163.56L173.94 167.56C174.18 167.8 174.18 168.2 173.94 168.44L169.94 172.44C169.82 172.56 169.66 172.62 169.5 172.62V172.62Z" fill="#333333"/>
<path d="M206.273 166H204.864C204.78 165.595 204.634 165.239 204.426 164.932C204.222 164.625 203.972 164.367 203.676 164.159C203.384 163.947 203.061 163.788 202.705 163.682C202.348 163.576 201.977 163.523 201.591 163.523C200.886 163.523 200.248 163.701 199.676 164.057C199.108 164.413 198.655 164.938 198.318 165.631C197.985 166.324 197.818 167.174 197.818 168.182C197.818 169.189 197.985 170.04 198.318 170.733C198.655 171.426 199.108 171.951 199.676 172.307C200.248 172.663 200.886 172.841 201.591 172.841C201.977 172.841 202.348 172.788 202.705 172.682C203.061 172.576 203.384 172.419 203.676 172.21C203.972 171.998 204.222 171.739 204.426 171.432C204.634 171.121 204.78 170.765 204.864 170.364H206.273C206.167 170.958 205.973 171.491 205.693 171.96C205.413 172.43 205.064 172.83 204.648 173.159C204.231 173.485 203.763 173.733 203.244 173.903C202.729 174.074 202.178 174.159 201.591 174.159C200.598 174.159 199.716 173.917 198.943 173.432C198.17 172.947 197.563 172.258 197.119 171.364C196.676 170.47 196.455 169.409 196.455 168.182C196.455 166.955 196.676 165.894 197.119 165C197.563 164.106 198.17 163.417 198.943 162.932C199.716 162.447 200.598 162.205 201.591 162.205C202.178 162.205 202.729 162.29 203.244 162.46C203.763 162.631 204.231 162.881 204.648 163.21C205.064 163.536 205.413 163.934 205.693 164.403C205.973 164.869 206.167 165.402 206.273 166ZM209.709 168.75V174H208.368V162.364H209.709V166.636H209.822C210.027 166.186 210.334 165.828 210.743 165.562C211.156 165.294 211.705 165.159 212.391 165.159C212.985 165.159 213.506 165.278 213.953 165.517C214.4 165.752 214.747 166.114 214.993 166.602C215.243 167.087 215.368 167.705 215.368 168.455V174H214.027V168.545C214.027 167.852 213.847 167.316 213.487 166.938C213.131 166.555 212.637 166.364 212.004 166.364C211.565 166.364 211.171 166.456 210.822 166.642C210.478 166.828 210.205 167.098 210.004 167.455C209.807 167.811 209.709 168.242 209.709 168.75ZM217.821 174V165.273H219.162V174H217.821ZM218.503 163.818C218.241 163.818 218.016 163.729 217.827 163.551C217.641 163.373 217.548 163.159 217.548 162.909C217.548 162.659 217.641 162.445 217.827 162.267C218.016 162.089 218.241 162 218.503 162C218.764 162 218.988 162.089 219.173 162.267C219.363 162.445 219.457 162.659 219.457 162.909C219.457 163.159 219.363 163.373 219.173 163.551C218.988 163.729 218.764 163.818 218.503 163.818ZM222.959 162.364V174H221.618V162.364H222.959ZM228.71 174.182C227.983 174.182 227.341 173.998 226.784 173.631C226.227 173.259 225.792 172.737 225.477 172.062C225.163 171.384 225.006 170.583 225.006 169.659C225.006 168.742 225.163 167.947 225.477 167.273C225.792 166.598 226.229 166.078 226.79 165.71C227.35 165.343 227.998 165.159 228.733 165.159C229.301 165.159 229.75 165.254 230.08 165.443C230.413 165.629 230.667 165.841 230.841 166.08C231.019 166.314 231.157 166.508 231.256 166.659H231.369V162.364H232.71V174H231.415V172.659H231.256C231.157 172.818 231.017 173.019 230.835 173.261C230.653 173.5 230.394 173.714 230.057 173.903C229.72 174.089 229.271 174.182 228.71 174.182ZM228.892 172.977C229.43 172.977 229.884 172.837 230.256 172.557C230.627 172.273 230.909 171.881 231.102 171.381C231.295 170.877 231.392 170.295 231.392 169.636C231.392 168.985 231.297 168.415 231.108 167.926C230.919 167.434 230.638 167.051 230.267 166.778C229.896 166.502 229.438 166.364 228.892 166.364C228.324 166.364 227.85 166.509 227.472 166.801C227.097 167.089 226.814 167.481 226.625 167.977C226.439 168.47 226.347 169.023 226.347 169.636C226.347 170.258 226.441 170.822 226.631 171.33C226.824 171.833 227.108 172.235 227.483 172.534C227.862 172.83 228.331 172.977 228.892 172.977ZM241.193 168.75V174H239.852V165.273H241.148V166.636H241.261C241.466 166.193 241.777 165.837 242.193 165.568C242.61 165.295 243.148 165.159 243.807 165.159C244.398 165.159 244.915 165.28 245.358 165.523C245.801 165.761 246.146 166.125 246.392 166.614C246.638 167.098 246.761 167.712 246.761 168.455V174H245.42V168.545C245.42 167.86 245.242 167.326 244.886 166.943C244.53 166.557 244.042 166.364 243.42 166.364C242.992 166.364 242.61 166.456 242.273 166.642C241.939 166.828 241.676 167.098 241.483 167.455C241.29 167.811 241.193 168.242 241.193 168.75ZM252.757 174.182C251.969 174.182 251.278 173.994 250.683 173.619C250.092 173.244 249.63 172.72 249.297 172.045C248.967 171.371 248.803 170.583 248.803 169.682C248.803 168.773 248.967 167.979 249.297 167.301C249.63 166.623 250.092 166.097 250.683 165.722C251.278 165.347 251.969 165.159 252.757 165.159C253.545 165.159 254.234 165.347 254.825 165.722C255.42 166.097 255.882 166.623 256.212 167.301C256.545 167.979 256.712 168.773 256.712 169.682C256.712 170.583 256.545 171.371 256.212 172.045C255.882 172.72 255.42 173.244 254.825 173.619C254.234 173.994 253.545 174.182 252.757 174.182ZM252.757 172.977C253.356 172.977 253.848 172.824 254.234 172.517C254.621 172.21 254.907 171.807 255.092 171.307C255.278 170.807 255.371 170.265 255.371 169.682C255.371 169.098 255.278 168.555 255.092 168.051C254.907 167.547 254.621 167.14 254.234 166.83C253.848 166.519 253.356 166.364 252.757 166.364C252.159 166.364 251.666 166.519 251.28 166.83C250.893 167.14 250.607 167.547 250.422 168.051C250.236 168.555 250.143 169.098 250.143 169.682C250.143 170.265 250.236 170.807 250.422 171.307C250.607 171.807 250.893 172.21 251.28 172.517C251.666 172.824 252.159 172.977 252.757 172.977ZM262.054 174.182C261.327 174.182 260.685 173.998 260.128 173.631C259.571 173.259 259.135 172.737 258.821 172.062C258.507 171.384 258.349 170.583 258.349 169.659C258.349 168.742 258.507 167.947 258.821 167.273C259.135 166.598 259.573 166.078 260.134 165.71C260.694 165.343 261.342 165.159 262.077 165.159C262.645 165.159 263.094 165.254 263.423 165.443C263.757 165.629 264.01 165.841 264.185 166.08C264.363 166.314 264.501 166.508 264.599 166.659H264.713V162.364H266.054V174H264.759V172.659H264.599C264.501 172.818 264.361 173.019 264.179 173.261C263.997 173.5 263.738 173.714 263.401 173.903C263.063 174.089 262.615 174.182 262.054 174.182ZM262.236 172.977C262.774 172.977 263.228 172.837 263.599 172.557C263.971 172.273 264.253 171.881 264.446 171.381C264.639 170.877 264.736 170.295 264.736 169.636C264.736 168.985 264.641 168.415 264.452 167.926C264.262 167.434 263.982 167.051 263.611 166.778C263.24 166.502 262.781 166.364 262.236 166.364C261.668 166.364 261.194 166.509 260.815 166.801C260.44 167.089 260.158 167.481 259.969 167.977C259.783 168.47 259.69 169.023 259.69 169.636C259.69 170.258 259.785 170.822 259.974 171.33C260.168 171.833 260.452 172.235 260.827 172.534C261.205 172.83 261.675 172.977 262.236 172.977ZM272.355 174.182C271.514 174.182 270.789 173.996 270.179 173.625C269.573 173.25 269.105 172.727 268.776 172.057C268.45 171.383 268.287 170.598 268.287 169.705C268.287 168.811 268.45 168.023 268.776 167.341C269.105 166.655 269.563 166.121 270.151 165.739C270.741 165.352 271.431 165.159 272.219 165.159C272.673 165.159 273.122 165.235 273.565 165.386C274.009 165.538 274.412 165.784 274.776 166.125C275.139 166.462 275.429 166.909 275.645 167.466C275.861 168.023 275.969 168.708 275.969 169.523V170.091H269.241V168.932H274.605C274.605 168.439 274.507 168 274.31 167.614C274.116 167.227 273.84 166.922 273.48 166.699C273.124 166.475 272.704 166.364 272.219 166.364C271.685 166.364 271.223 166.496 270.832 166.761C270.446 167.023 270.149 167.364 269.94 167.784C269.732 168.205 269.628 168.655 269.628 169.136V169.909C269.628 170.568 269.741 171.127 269.969 171.585C270.2 172.04 270.52 172.386 270.929 172.625C271.338 172.86 271.813 172.977 272.355 172.977C272.707 172.977 273.026 172.928 273.31 172.83C273.598 172.727 273.846 172.576 274.054 172.375C274.262 172.17 274.423 171.917 274.537 171.614L275.832 171.977C275.696 172.417 275.467 172.803 275.145 173.136C274.823 173.466 274.425 173.723 273.952 173.909C273.478 174.091 272.946 174.182 272.355 174.182Z" fill="#333333"/>
<path d="M357.5 50.6199C357.34 50.6199 357.18 50.5599 357.06 50.4399L353.06 46.4399C352.82 46.1999 352.82 45.7999 353.06 45.5599C353.3 45.3199 353.7 45.3199 353.94 45.5599L357.5 49.1199L361.06 45.5599C361.3 45.3199 361.7 45.3199 361.94 45.5599C362.18 45.7999 362.18 46.1999 361.94 46.4399L357.94 50.4399C357.82 50.5599 357.66 50.6199 357.5 50.6199V50.6199Z" fill="#333333"/>
<path d="M382.909 54V42.3636H384.318V52.75H389.727V54H382.909ZM395.386 54.1818C394.545 54.1818 393.82 53.9962 393.21 53.625C392.604 53.25 392.136 52.7273 391.807 52.0568C391.481 51.3826 391.318 50.5985 391.318 49.7045C391.318 48.8106 391.481 48.0227 391.807 47.3409C392.136 46.6553 392.595 46.1212 393.182 45.7386C393.773 45.3523 394.462 45.1591 395.25 45.1591C395.705 45.1591 396.153 45.2348 396.597 45.3864C397.04 45.5379 397.443 45.7841 397.807 46.125C398.17 46.4621 398.46 46.9091 398.676 47.4659C398.892 48.0227 399 48.7083 399 49.5227V50.0909H392.273V48.9318H397.636C397.636 48.4394 397.538 48 397.341 47.6136C397.148 47.2273 396.871 46.9223 396.511 46.6989C396.155 46.4754 395.735 46.3636 395.25 46.3636C394.716 46.3636 394.254 46.4962 393.864 46.7614C393.477 47.0227 393.18 47.3636 392.972 47.7841C392.763 48.2045 392.659 48.6553 392.659 49.1364V49.9091C392.659 50.5682 392.773 51.1269 393 51.5852C393.231 52.0398 393.551 52.3864 393.96 52.625C394.369 52.8598 394.845 52.9773 395.386 52.9773C395.739 52.9773 396.057 52.928 396.341 52.8295C396.629 52.7273 396.877 52.5758 397.085 52.375C397.294 52.1705 397.455 51.9167 397.568 51.6136L398.864 51.9773C398.727 52.4167 398.498 52.803 398.176 53.1364C397.854 53.4659 397.456 53.7235 396.983 53.9091C396.509 54.0909 395.977 54.1818 395.386 54.1818ZM407.911 45.2727L404.683 54H403.32L400.092 45.2727H401.547L403.956 52.2273H404.047L406.456 45.2727H407.911ZM413.027 54.1818C412.186 54.1818 411.461 53.9962 410.851 53.625C410.245 53.25 409.777 52.7273 409.447 52.0568C409.122 51.3826 408.959 50.5985 408.959 49.7045C408.959 48.8106 409.122 48.0227 409.447 47.3409C409.777 46.6553 410.235 46.1212 410.822 45.7386C411.413 45.3523 412.103 45.1591 412.891 45.1591C413.345 45.1591 413.794 45.2348 414.237 45.3864C414.68 45.5379 415.084 45.7841 415.447 46.125C415.811 46.4621 416.101 46.9091 416.317 47.4659C416.533 48.0227 416.641 48.7083 416.641 49.5227V50.0909H409.913V48.9318H415.277C415.277 48.4394 415.179 48 414.982 47.6136C414.788 47.2273 414.512 46.9223 414.152 46.6989C413.796 46.4754 413.375 46.3636 412.891 46.3636C412.357 46.3636 411.894 46.4962 411.504 46.7614C411.118 47.0227 410.821 47.3636 410.612 47.7841C410.404 48.2045 410.3 48.6553 410.3 49.1364V49.9091C410.3 50.5682 410.413 51.1269 410.641 51.5852C410.872 52.0398 411.192 52.3864 411.601 52.625C412.01 52.8598 412.485 52.9773 413.027 52.9773C413.379 52.9773 413.697 52.928 413.982 52.8295C414.269 52.7273 414.518 52.5758 414.726 52.375C414.934 52.1705 415.095 51.9167 415.209 51.6136L416.504 51.9773C416.368 52.4167 416.139 52.803 415.817 53.1364C415.495 53.4659 415.097 53.7235 414.624 53.9091C414.15 54.0909 413.618 54.1818 413.027 54.1818ZM420.021 42.3636V54H418.68V42.3636H420.021ZM430.75 54.1591C429.894 54.1591 429.165 53.9261 428.562 53.4602C427.96 52.9905 427.5 52.3106 427.182 51.4205C426.864 50.5265 426.705 49.447 426.705 48.1818C426.705 46.9242 426.864 45.8504 427.182 44.9602C427.504 44.0663 427.966 43.3845 428.568 42.9148C429.174 42.4413 429.902 42.2045 430.75 42.2045C431.598 42.2045 432.324 42.4413 432.926 42.9148C433.532 43.3845 433.994 44.0663 434.312 44.9602C434.634 45.8504 434.795 46.9242 434.795 48.1818C434.795 49.447 434.636 50.5265 434.318 51.4205C434 52.3106 433.54 52.9905 432.938 53.4602C432.335 53.9261 431.606 54.1591 430.75 54.1591ZM430.75 52.9091C431.598 52.9091 432.258 52.5 432.727 51.6818C433.197 50.8636 433.432 49.697 433.432 48.1818C433.432 47.1742 433.324 46.3163 433.108 45.608C432.896 44.8996 432.589 44.3598 432.188 43.9886C431.79 43.6174 431.311 43.4318 430.75 43.4318C429.909 43.4318 429.252 43.8466 428.778 44.6761C428.305 45.5019 428.068 46.6705 428.068 48.1818C428.068 49.1894 428.174 50.0455 428.386 50.75C428.598 51.4545 428.903 51.9905 429.301 52.358C429.703 52.7254 430.186 52.9091 430.75 52.9091Z" fill="#333333"/>
<path d="M373.5 90.6199C373.34 90.6199 373.18 90.5599 373.06 90.4399L369.06 86.4399C368.82 86.1999 368.82 85.7999 369.06 85.5599C369.3 85.3199 369.7 85.3199 369.94 85.5599L373.5 89.1199L377.06 85.5599C377.3 85.3199 377.7 85.3199 377.94 85.5599C378.18 85.7999 378.18 86.1999 377.94 86.4399L373.94 90.4399C373.82 90.5599 373.66 90.6199 373.5 90.6199V90.6199Z" fill="#333333"/>
<path d="M398.909 94V82.3636H400.318V92.75H405.727V94H398.909ZM411.386 94.1818C410.545 94.1818 409.82 93.9962 409.21 93.625C408.604 93.25 408.136 92.7273 407.807 92.0568C407.481 91.3826 407.318 90.5985 407.318 89.7045C407.318 88.8106 407.481 88.0227 407.807 87.3409C408.136 86.6553 408.595 86.1212 409.182 85.7386C409.773 85.3523 410.462 85.1591 411.25 85.1591C411.705 85.1591 412.153 85.2348 412.597 85.3864C413.04 85.5379 413.443 85.7841 413.807 86.125C414.17 86.4621 414.46 86.9091 414.676 87.4659C414.892 88.0227 415 88.7083 415 89.5227V90.0909H408.273V88.9318H413.636C413.636 88.4394 413.538 88 413.341 87.6136C413.148 87.2273 412.871 86.9223 412.511 86.6989C412.155 86.4754 411.735 86.3636 411.25 86.3636C410.716 86.3636 410.254 86.4962 409.864 86.7614C409.477 87.0227 409.18 87.3636 408.972 87.7841C408.763 88.2045 408.659 88.6553 408.659 89.1364V89.9091C408.659 90.5682 408.773 91.1269 409 91.5852C409.231 92.0398 409.551 92.3864 409.96 92.625C410.369 92.8598 410.845 92.9773 411.386 92.9773C411.739 92.9773 412.057 92.928 412.341 92.8295C412.629 92.7273 412.877 92.5758 413.085 92.375C413.294 92.1705 413.455 91.9167 413.568 91.6136L414.864 91.9773C414.727 92.4167 414.498 92.803 414.176 93.1364C413.854 93.4659 413.456 93.7235 412.983 93.9091C412.509 94.0909 411.977 94.1818 411.386 94.1818ZM423.911 85.2727L420.683 94H419.32L416.092 85.2727H417.547L419.956 92.2273H420.047L422.456 85.2727H423.911ZM429.027 94.1818C428.186 94.1818 427.461 93.9962 426.851 93.625C426.245 93.25 425.777 92.7273 425.447 92.0568C425.122 91.3826 424.959 90.5985 424.959 89.7045C424.959 88.8106 425.122 88.0227 425.447 87.3409C425.777 86.6553 426.235 86.1212 426.822 85.7386C427.413 85.3523 428.103 85.1591 428.891 85.1591C429.345 85.1591 429.794 85.2348 430.237 85.3864C430.68 85.5379 431.084 85.7841 431.447 86.125C431.811 86.4621 432.101 86.9091 432.317 87.4659C432.533 88.0227 432.641 88.7083 432.641 89.5227V90.0909H425.913V88.9318H431.277C431.277 88.4394 431.179 88 430.982 87.6136C430.788 87.2273 430.512 86.9223 430.152 86.6989C429.796 86.4754 429.375 86.3636 428.891 86.3636C428.357 86.3636 427.894 86.4962 427.504 86.7614C427.118 87.0227 426.821 87.3636 426.612 87.7841C426.404 88.2045 426.3 88.6553 426.3 89.1364V89.9091C426.3 90.5682 426.413 91.1269 426.641 91.5852C426.872 92.0398 427.192 92.3864 427.601 92.625C428.01 92.8598 428.485 92.9773 429.027 92.9773C429.379 92.9773 429.697 92.928 429.982 92.8295C430.269 92.7273 430.518 92.5758 430.726 92.375C430.934 92.1705 431.095 91.9167 431.209 91.6136L432.504 91.9773C432.368 92.4167 432.139 92.803 431.817 93.1364C431.495 93.4659 431.097 93.7235 430.624 93.9091C430.15 94.0909 429.618 94.1818 429.027 94.1818ZM436.021 82.3636V94H434.68V82.3636H436.021ZM447.045 82.3636V94H445.636V83.8409H445.568L442.727 85.7273V84.2955L445.636 82.3636H447.045Z" fill="#333333"/>
<path d="M389.5 130.62C389.34 130.62 389.18 130.56 389.06 130.44L385.06 126.44C384.82 126.2 384.82 125.8 385.06 125.56C385.3 125.32 385.7 125.32 385.94 125.56L389.5 129.12L393.06 125.56C393.3 125.32 393.7 125.32 393.94 125.56C394.18 125.8 394.18 126.2 393.94 126.44L389.94 130.44C389.82 130.56 389.66 130.62 389.5 130.62V130.62Z" fill="#333333"/>
<path d="M414.909 134V122.364H416.318V132.75H421.727V134H414.909ZM427.386 134.182C426.545 134.182 425.82 133.996 425.21 133.625C424.604 133.25 424.136 132.727 423.807 132.057C423.481 131.383 423.318 130.598 423.318 129.705C423.318 128.811 423.481 128.023 423.807 127.341C424.136 126.655 424.595 126.121 425.182 125.739C425.773 125.352 426.462 125.159 427.25 125.159C427.705 125.159 428.153 125.235 428.597 125.386C429.04 125.538 429.443 125.784 429.807 126.125C430.17 126.462 430.46 126.909 430.676 127.466C430.892 128.023 431 128.708 431 129.523V130.091H424.273V128.932H429.636C429.636 128.439 429.538 128 429.341 127.614C429.148 127.227 428.871 126.922 428.511 126.699C428.155 126.475 427.735 126.364 427.25 126.364C426.716 126.364 426.254 126.496 425.864 126.761C425.477 127.023 425.18 127.364 424.972 127.784C424.763 128.205 424.659 128.655 424.659 129.136V129.909C424.659 130.568 424.773 131.127 425 131.585C425.231 132.04 425.551 132.386 425.96 132.625C426.369 132.86 426.845 132.977 427.386 132.977C427.739 132.977 428.057 132.928 428.341 132.83C428.629 132.727 428.877 132.576 429.085 132.375C429.294 132.17 429.455 131.917 429.568 131.614L430.864 131.977C430.727 132.417 430.498 132.803 430.176 133.136C429.854 133.466 429.456 133.723 428.983 133.909C428.509 134.091 427.977 134.182 427.386 134.182ZM439.911 125.273L436.683 134H435.32L432.092 125.273H433.547L435.956 132.227H436.047L438.456 125.273H439.911ZM445.027 134.182C444.186 134.182 443.461 133.996 442.851 133.625C442.245 133.25 441.777 132.727 441.447 132.057C441.122 131.383 440.959 130.598 440.959 129.705C440.959 128.811 441.122 128.023 441.447 127.341C441.777 126.655 442.235 126.121 442.822 125.739C443.413 125.352 444.103 125.159 444.891 125.159C445.345 125.159 445.794 125.235 446.237 125.386C446.68 125.538 447.084 125.784 447.447 126.125C447.811 126.462 448.101 126.909 448.317 127.466C448.533 128.023 448.641 128.708 448.641 129.523V130.091H441.913V128.932H447.277C447.277 128.439 447.179 128 446.982 127.614C446.788 127.227 446.512 126.922 446.152 126.699C445.796 126.475 445.375 126.364 444.891 126.364C444.357 126.364 443.894 126.496 443.504 126.761C443.118 127.023 442.821 127.364 442.612 127.784C442.404 128.205 442.3 128.655 442.3 129.136V129.909C442.3 130.568 442.413 131.127 442.641 131.585C442.872 132.04 443.192 132.386 443.601 132.625C444.01 132.86 444.485 132.977 445.027 132.977C445.379 132.977 445.697 132.928 445.982 132.83C446.269 132.727 446.518 132.576 446.726 132.375C446.934 132.17 447.095 131.917 447.209 131.614L448.504 131.977C448.368 132.417 448.139 132.803 447.817 133.136C447.495 133.466 447.097 133.723 446.624 133.909C446.15 134.091 445.618 134.182 445.027 134.182ZM452.021 122.364V134H450.68V122.364H452.021ZM458.955 134V132.977L462.795 128.773C463.246 128.28 463.617 127.852 463.909 127.489C464.201 127.121 464.417 126.777 464.557 126.455C464.701 126.129 464.773 125.788 464.773 125.432C464.773 125.023 464.674 124.669 464.477 124.369C464.284 124.07 464.019 123.839 463.682 123.676C463.345 123.513 462.966 123.432 462.545 123.432C462.098 123.432 461.708 123.525 461.375 123.71C461.045 123.892 460.79 124.148 460.608 124.477C460.43 124.807 460.341 125.193 460.341 125.636H459C459 124.955 459.157 124.356 459.472 123.841C459.786 123.326 460.214 122.924 460.756 122.636C461.301 122.348 461.913 122.205 462.591 122.205C463.273 122.205 463.877 122.348 464.403 122.636C464.93 122.924 465.343 123.312 465.642 123.801C465.941 124.29 466.091 124.833 466.091 125.432C466.091 125.86 466.013 126.278 465.858 126.688C465.706 127.093 465.441 127.545 465.062 128.045C464.688 128.542 464.167 129.148 463.5 129.864L460.886 132.659V132.75H466.295V134H458.955Z" fill="#333333"/>
<path d="M405.5 170.62C405.34 170.62 405.18 170.56 405.06 170.44L401.06 166.44C400.82 166.2 400.82 165.8 401.06 165.56C401.3 165.32 401.7 165.32 401.94 165.56L405.5 169.12L409.06 165.56C409.3 165.32 409.7 165.32 409.94 165.56C410.18 165.8 410.18 166.2 409.94 166.44L405.94 170.44C405.82 170.56 405.66 170.62 405.5 170.62V170.62Z" fill="#333333"/>
<path d="M430.909 174V162.364H432.318V172.75H437.727V174H430.909ZM443.386 174.182C442.545 174.182 441.82 173.996 441.21 173.625C440.604 173.25 440.136 172.727 439.807 172.057C439.481 171.383 439.318 170.598 439.318 169.705C439.318 168.811 439.481 168.023 439.807 167.341C440.136 166.655 440.595 166.121 441.182 165.739C441.773 165.352 442.462 165.159 443.25 165.159C443.705 165.159 444.153 165.235 444.597 165.386C445.04 165.538 445.443 165.784 445.807 166.125C446.17 166.462 446.46 166.909 446.676 167.466C446.892 168.023 447 168.708 447 169.523V170.091H440.273V168.932H445.636C445.636 168.439 445.538 168 445.341 167.614C445.148 167.227 444.871 166.922 444.511 166.699C444.155 166.475 443.735 166.364 443.25 166.364C442.716 166.364 442.254 166.496 441.864 166.761C441.477 167.023 441.18 167.364 440.972 167.784C440.763 168.205 440.659 168.655 440.659 169.136V169.909C440.659 170.568 440.773 171.127 441 171.585C441.231 172.04 441.551 172.386 441.96 172.625C442.369 172.86 442.845 172.977 443.386 172.977C443.739 172.977 444.057 172.928 444.341 172.83C444.629 172.727 444.877 172.576 445.085 172.375C445.294 172.17 445.455 171.917 445.568 171.614L446.864 171.977C446.727 172.417 446.498 172.803 446.176 173.136C445.854 173.466 445.456 173.723 444.983 173.909C444.509 174.091 443.977 174.182 443.386 174.182ZM455.911 165.273L452.683 174H451.32L448.092 165.273H449.547L451.956 172.227H452.047L454.456 165.273H455.911ZM461.027 174.182C460.186 174.182 459.461 173.996 458.851 173.625C458.245 173.25 457.777 172.727 457.447 172.057C457.122 171.383 456.959 170.598 456.959 169.705C456.959 168.811 457.122 168.023 457.447 167.341C457.777 166.655 458.235 166.121 458.822 165.739C459.413 165.352 460.103 165.159 460.891 165.159C461.345 165.159 461.794 165.235 462.237 165.386C462.68 165.538 463.084 165.784 463.447 166.125C463.811 166.462 464.101 166.909 464.317 167.466C464.533 168.023 464.641 168.708 464.641 169.523V170.091H457.913V168.932H463.277C463.277 168.439 463.179 168 462.982 167.614C462.788 167.227 462.512 166.922 462.152 166.699C461.796 166.475 461.375 166.364 460.891 166.364C460.357 166.364 459.894 166.496 459.504 166.761C459.118 167.023 458.821 167.364 458.612 167.784C458.404 168.205 458.3 168.655 458.3 169.136V169.909C458.3 170.568 458.413 171.127 458.641 171.585C458.872 172.04 459.192 172.386 459.601 172.625C460.01 172.86 460.485 172.977 461.027 172.977C461.379 172.977 461.697 172.928 461.982 172.83C462.269 172.727 462.518 172.576 462.726 172.375C462.934 172.17 463.095 171.917 463.209 171.614L464.504 171.977C464.368 172.417 464.139 172.803 463.817 173.136C463.495 173.466 463.097 173.723 462.624 173.909C462.15 174.091 461.618 174.182 461.027 174.182ZM468.021 162.364V174H466.68V162.364H468.021ZM478.886 174.159C478.136 174.159 477.468 174.03 476.881 173.773C476.297 173.515 475.833 173.157 475.489 172.699C475.148 172.237 474.962 171.701 474.932 171.091H476.364C476.394 171.466 476.523 171.79 476.75 172.062C476.977 172.331 477.275 172.54 477.642 172.688C478.009 172.835 478.417 172.909 478.864 172.909C479.364 172.909 479.807 172.822 480.193 172.648C480.58 172.473 480.883 172.231 481.102 171.92C481.322 171.61 481.432 171.25 481.432 170.841C481.432 170.413 481.326 170.036 481.114 169.71C480.902 169.381 480.591 169.123 480.182 168.938C479.773 168.752 479.273 168.659 478.682 168.659H477.75V167.409H478.682C479.144 167.409 479.549 167.326 479.898 167.159C480.25 166.992 480.525 166.758 480.722 166.455C480.922 166.152 481.023 165.795 481.023 165.386C481.023 164.992 480.936 164.65 480.761 164.358C480.587 164.066 480.341 163.839 480.023 163.676C479.708 163.513 479.337 163.432 478.909 163.432C478.508 163.432 478.129 163.506 477.773 163.653C477.42 163.797 477.133 164.008 476.909 164.284C476.686 164.557 476.564 164.886 476.545 165.273H475.182C475.205 164.663 475.388 164.129 475.733 163.67C476.078 163.208 476.528 162.848 477.085 162.591C477.646 162.333 478.261 162.205 478.932 162.205C479.652 162.205 480.269 162.35 480.784 162.642C481.299 162.93 481.695 163.311 481.972 163.784C482.248 164.258 482.386 164.769 482.386 165.318C482.386 165.973 482.214 166.532 481.869 166.994C481.528 167.456 481.064 167.777 480.477 167.955V168.045C481.212 168.167 481.786 168.479 482.199 168.983C482.612 169.483 482.818 170.102 482.818 170.841C482.818 171.473 482.646 172.042 482.301 172.545C481.96 173.045 481.494 173.439 480.903 173.727C480.313 174.015 479.64 174.159 478.886 174.159Z" fill="#333333"/>
</svg>
