<svg width="672" height="256" viewBox="0 0 672 256" fill="none" xmlns="http://www.w3.org/2000/svg">
<rect width="672" height="256" fill="#F6F6F6"/>
<rect width="672" height="176" transform="translate(0 48)" fill="#F6F6F6"/>
<path d="M283 98.6199C282.84 98.6199 282.68 98.5599 282.56 98.4399L278.56 94.4399C278.32 94.1999 278.32 93.7999 278.56 93.5599C278.8 93.3199 279.2 93.3199 279.44 93.5599L283 97.1199L286.56 93.5599C286.8 93.3199 287.2 93.3199 287.44 93.5599C287.68 93.7999 287.68 94.1999 287.44 94.4399L283.44 98.4399C283.32 98.5599 283.16 98.6199 283 98.6199V98.6199Z" fill="#333333"/>
<path d="M308.409 102V90.3636H312.341C313.254 90.3636 314 90.5284 314.58 90.858C315.163 91.1837 315.595 91.625 315.875 92.1818C316.155 92.7386 316.295 93.3598 316.295 94.0455C316.295 94.7311 316.155 95.3542 315.875 95.9148C315.598 96.4754 315.17 96.9223 314.591 97.2557C314.011 97.5852 313.269 97.75 312.364 97.75H309.545V96.5H312.318C312.943 96.5 313.445 96.392 313.824 96.1761C314.203 95.9602 314.477 95.6686 314.648 95.3011C314.822 94.9299 314.909 94.5114 314.909 94.0455C314.909 93.5795 314.822 93.1629 314.648 92.7955C314.477 92.428 314.201 92.1402 313.818 91.9318C313.436 91.7197 312.928 91.6136 312.295 91.6136H309.818V102H308.409ZM320.952 102.205C320.399 102.205 319.897 102.1 319.446 101.892C318.995 101.68 318.637 101.375 318.372 100.977C318.107 100.576 317.974 100.091 317.974 99.5227C317.974 99.0227 318.073 98.6174 318.27 98.3068C318.467 97.9924 318.73 97.7462 319.06 97.5682C319.389 97.3902 319.753 97.2576 320.151 97.1705C320.552 97.0795 320.955 97.0076 321.361 96.9545C321.891 96.8864 322.321 96.8352 322.651 96.8011C322.984 96.7633 323.226 96.7008 323.378 96.6136C323.533 96.5265 323.611 96.375 323.611 96.1591V96.1136C323.611 95.553 323.457 95.1174 323.151 94.8068C322.848 94.4962 322.387 94.3409 321.77 94.3409C321.13 94.3409 320.628 94.4811 320.264 94.7614C319.901 95.0417 319.645 95.3409 319.497 95.6591L318.224 95.2045C318.452 94.6742 318.755 94.2614 319.134 93.9659C319.516 93.6667 319.933 93.4583 320.384 93.3409C320.838 93.2197 321.285 93.1591 321.724 93.1591C322.005 93.1591 322.327 93.1932 322.69 93.2614C323.058 93.3258 323.412 93.4602 323.753 93.6648C324.098 93.8693 324.384 94.178 324.611 94.5909C324.838 95.0038 324.952 95.5568 324.952 96.25V102H323.611V100.818H323.543C323.452 101.008 323.3 101.21 323.088 101.426C322.876 101.642 322.594 101.826 322.241 101.977C321.889 102.129 321.459 102.205 320.952 102.205ZM321.156 101C321.687 101 322.134 100.896 322.497 100.688C322.865 100.479 323.141 100.21 323.327 99.8807C323.516 99.5511 323.611 99.2045 323.611 98.8409V97.6136C323.554 97.6818 323.429 97.7443 323.236 97.8011C323.046 97.8542 322.827 97.9015 322.577 97.9432C322.33 97.9811 322.09 98.0152 321.855 98.0455C321.624 98.072 321.437 98.0947 321.293 98.1136C320.944 98.1591 320.618 98.233 320.315 98.3352C320.016 98.4337 319.774 98.5833 319.588 98.7841C319.406 98.9811 319.315 99.25 319.315 99.5909C319.315 100.057 319.488 100.409 319.832 100.648C320.181 100.883 320.622 101 321.156 101ZM327.399 102V93.2727H328.695V94.5909H328.786C328.945 94.1591 329.232 93.8087 329.649 93.5398C330.066 93.2708 330.536 93.1364 331.058 93.1364C331.157 93.1364 331.28 93.1383 331.428 93.142C331.575 93.1458 331.687 93.1515 331.763 93.1591V94.5227C331.717 94.5114 331.613 94.4943 331.45 94.4716C331.291 94.4451 331.123 94.4318 330.945 94.4318C330.52 94.4318 330.142 94.5208 329.808 94.6989C329.479 94.8731 329.217 95.1155 329.024 95.4261C328.835 95.733 328.74 96.0833 328.74 96.4773V102H327.399ZM336.746 102.182C335.905 102.182 335.179 101.996 334.57 101.625C333.964 101.25 333.496 100.727 333.166 100.057C332.84 99.3826 332.678 98.5985 332.678 97.7045C332.678 96.8106 332.84 96.0227 333.166 95.3409C333.496 94.6553 333.954 94.1212 334.541 93.7386C335.132 93.3523 335.821 93.1591 336.609 93.1591C337.064 93.1591 337.513 93.2348 337.956 93.3864C338.399 93.5379 338.803 93.7841 339.166 94.125C339.53 94.4621 339.82 94.9091 340.036 95.4659C340.251 96.0227 340.359 96.7083 340.359 97.5227V98.0909H333.632V96.9318H338.996C338.996 96.4394 338.897 96 338.7 95.6136C338.507 95.2273 338.231 94.9223 337.871 94.6989C337.515 94.4754 337.094 94.3636 336.609 94.3636C336.075 94.3636 335.613 94.4962 335.223 94.7614C334.837 95.0227 334.539 95.3636 334.331 95.7841C334.123 96.2045 334.018 96.6553 334.018 97.1364V97.9091C334.018 98.5682 334.132 99.1269 334.359 99.5852C334.59 100.04 334.911 100.386 335.32 100.625C335.729 100.86 336.204 100.977 336.746 100.977C337.098 100.977 337.416 100.928 337.7 100.83C337.988 100.727 338.236 100.576 338.445 100.375C338.653 100.17 338.814 99.9167 338.928 99.6136L340.223 99.9773C340.087 100.417 339.857 100.803 339.536 101.136C339.214 101.466 338.816 101.723 338.342 101.909C337.869 102.091 337.337 102.182 336.746 102.182ZM343.74 96.75V102H342.399V93.2727H343.695V94.6364H343.808C344.013 94.1932 344.323 93.8371 344.74 93.5682C345.157 93.2955 345.695 93.1591 346.354 93.1591C346.945 93.1591 347.462 93.2803 347.905 93.5227C348.348 93.7614 348.693 94.125 348.939 94.6136C349.185 95.0985 349.308 95.7121 349.308 96.4545V102H347.967V96.5455C347.967 95.8598 347.789 95.3258 347.433 94.9432C347.077 94.5568 346.589 94.3636 345.967 94.3636C345.539 94.3636 345.157 94.4564 344.82 94.642C344.486 94.8277 344.223 95.0985 344.03 95.4545C343.837 95.8106 343.74 96.2424 343.74 96.75ZM355.554 93.2727V94.4091H351.031V93.2727H355.554ZM352.349 91.1818H353.69V99.5C353.69 99.8788 353.745 100.163 353.855 100.352C353.969 100.538 354.113 100.663 354.287 100.727C354.465 100.788 354.652 100.818 354.849 100.818C354.997 100.818 355.118 100.811 355.213 100.795C355.308 100.777 355.384 100.761 355.44 100.75L355.713 101.955C355.622 101.989 355.495 102.023 355.332 102.057C355.17 102.095 354.963 102.114 354.713 102.114C354.334 102.114 353.963 102.032 353.599 101.869C353.24 101.706 352.94 101.458 352.702 101.125C352.467 100.792 352.349 100.371 352.349 99.8636V91.1818ZM363.412 96.75V102H362.071V93.2727H363.366V94.6364H363.48C363.685 94.1932 363.995 93.8371 364.412 93.5682C364.829 93.2955 365.366 93.1591 366.026 93.1591C366.616 93.1591 367.134 93.2803 367.577 93.5227C368.02 93.7614 368.365 94.125 368.611 94.6136C368.857 95.0985 368.98 95.7121 368.98 96.4545V102H367.639V96.5455C367.639 95.8598 367.461 95.3258 367.105 94.9432C366.749 94.5568 366.26 94.3636 365.639 94.3636C365.211 94.3636 364.829 94.4564 364.491 94.642C364.158 94.8277 363.895 95.0985 363.702 95.4545C363.509 95.8106 363.412 96.2424 363.412 96.75ZM374.976 102.182C374.188 102.182 373.497 101.994 372.902 101.619C372.311 101.244 371.849 100.72 371.516 100.045C371.186 99.3712 371.021 98.5833 371.021 97.6818C371.021 96.7727 371.186 95.9792 371.516 95.3011C371.849 94.6231 372.311 94.0966 372.902 93.7216C373.497 93.3466 374.188 93.1591 374.976 93.1591C375.764 93.1591 376.453 93.3466 377.044 93.7216C377.639 94.0966 378.101 94.6231 378.43 95.3011C378.764 95.9792 378.93 96.7727 378.93 97.6818C378.93 98.5833 378.764 99.3712 378.43 100.045C378.101 100.72 377.639 101.244 377.044 101.619C376.453 101.994 375.764 102.182 374.976 102.182ZM374.976 100.977C375.574 100.977 376.067 100.824 376.453 100.517C376.839 100.21 377.125 99.8068 377.311 99.3068C377.497 98.8068 377.589 98.2652 377.589 97.6818C377.589 97.0985 377.497 96.5549 377.311 96.0511C377.125 95.5473 376.839 95.1402 376.453 94.8295C376.067 94.5189 375.574 94.3636 374.976 94.3636C374.377 94.3636 373.885 94.5189 373.499 94.8295C373.112 95.1402 372.826 95.5473 372.641 96.0511C372.455 96.5549 372.362 97.0985 372.362 97.6818C372.362 98.2652 372.455 98.8068 372.641 99.3068C372.826 99.8068 373.112 100.21 373.499 100.517C373.885 100.824 374.377 100.977 374.976 100.977ZM384.273 102.182C383.545 102.182 382.903 101.998 382.347 101.631C381.79 101.259 381.354 100.737 381.04 100.062C380.725 99.3845 380.568 98.5833 380.568 97.6591C380.568 96.7424 380.725 95.947 381.04 95.2727C381.354 94.5985 381.792 94.0777 382.352 93.7102C382.913 93.3428 383.561 93.1591 384.295 93.1591C384.864 93.1591 385.313 93.2538 385.642 93.4432C385.975 93.6288 386.229 93.8409 386.403 94.0795C386.581 94.3144 386.72 94.5076 386.818 94.6591H386.932V90.3636H388.273V102H386.977V100.659H386.818C386.72 100.818 386.58 101.019 386.398 101.261C386.216 101.5 385.956 101.714 385.619 101.903C385.282 102.089 384.833 102.182 384.273 102.182ZM384.455 100.977C384.992 100.977 385.447 100.837 385.818 100.557C386.189 100.273 386.472 99.8807 386.665 99.3807C386.858 98.8769 386.955 98.2955 386.955 97.6364C386.955 96.9848 386.86 96.4148 386.67 95.9261C386.481 95.4337 386.201 95.0511 385.83 94.7784C385.458 94.5019 385 94.3636 384.455 94.3636C383.886 94.3636 383.413 94.5095 383.034 94.8011C382.659 95.089 382.377 95.4811 382.188 95.9773C382.002 96.4697 381.909 97.0227 381.909 97.6364C381.909 98.2576 382.004 98.822 382.193 99.3295C382.386 99.8333 382.67 100.235 383.045 100.534C383.424 100.83 383.894 100.977 384.455 100.977ZM394.574 102.182C393.733 102.182 393.008 101.996 392.398 101.625C391.792 101.25 391.324 100.727 390.994 100.057C390.669 99.3826 390.506 98.5985 390.506 97.7045C390.506 96.8106 390.669 96.0227 390.994 95.3409C391.324 94.6553 391.782 94.1212 392.369 93.7386C392.96 93.3523 393.65 93.1591 394.438 93.1591C394.892 93.1591 395.341 93.2348 395.784 93.3864C396.227 93.5379 396.631 93.7841 396.994 94.125C397.358 94.4621 397.648 94.9091 397.864 95.4659C398.08 96.0227 398.188 96.7083 398.188 97.5227V98.0909H391.46V96.9318H396.824C396.824 96.4394 396.725 96 396.528 95.6136C396.335 95.2273 396.059 94.9223 395.699 94.6989C395.343 94.4754 394.922 94.3636 394.438 94.3636C393.903 94.3636 393.441 94.4962 393.051 94.7614C392.665 95.0227 392.367 95.3636 392.159 95.7841C391.951 96.2045 391.847 96.6553 391.847 97.1364V97.9091C391.847 98.5682 391.96 99.1269 392.188 99.5852C392.419 100.04 392.739 100.386 393.148 100.625C393.557 100.86 394.032 100.977 394.574 100.977C394.926 100.977 395.244 100.928 395.528 100.83C395.816 100.727 396.064 100.576 396.273 100.375C396.481 100.17 396.642 99.9167 396.756 99.6136L398.051 99.9773C397.915 100.417 397.686 100.803 397.364 101.136C397.042 101.466 396.644 101.723 396.17 101.909C395.697 102.091 395.165 102.182 394.574 102.182Z" fill="#333333"/>
<path d="M297 140.62C296.84 140.62 296.68 140.56 296.56 140.44C296.32 140.2 296.32 139.8 296.56 139.56L300.12 136L296.56 132.44C296.32 132.2 296.32 131.8 296.56 131.56C296.8 131.32 297.2 131.32 297.44 131.56L301.44 135.56C301.68 135.8 301.68 136.2 301.44 136.44L297.44 140.44C297.32 140.56 297.16 140.62 297 140.62V140.62Z" fill="#333333"/>
<path d="M333.773 134H332.364C332.28 133.595 332.134 133.239 331.926 132.932C331.722 132.625 331.472 132.367 331.176 132.159C330.884 131.947 330.561 131.788 330.205 131.682C329.848 131.576 329.477 131.523 329.091 131.523C328.386 131.523 327.748 131.701 327.176 132.057C326.608 132.413 326.155 132.938 325.818 133.631C325.485 134.324 325.318 135.174 325.318 136.182C325.318 137.189 325.485 138.04 325.818 138.733C326.155 139.426 326.608 139.951 327.176 140.307C327.748 140.663 328.386 140.841 329.091 140.841C329.477 140.841 329.848 140.788 330.205 140.682C330.561 140.576 330.884 140.419 331.176 140.21C331.472 139.998 331.722 139.739 331.926 139.432C332.134 139.121 332.28 138.765 332.364 138.364H333.773C333.667 138.958 333.473 139.491 333.193 139.96C332.913 140.43 332.564 140.83 332.148 141.159C331.731 141.485 331.263 141.733 330.744 141.903C330.229 142.074 329.678 142.159 329.091 142.159C328.098 142.159 327.216 141.917 326.443 141.432C325.67 140.947 325.063 140.258 324.619 139.364C324.176 138.47 323.955 137.409 323.955 136.182C323.955 134.955 324.176 133.894 324.619 133C325.063 132.106 325.67 131.417 326.443 130.932C327.216 130.447 328.098 130.205 329.091 130.205C329.678 130.205 330.229 130.29 330.744 130.46C331.263 130.631 331.731 130.881 332.148 131.21C332.564 131.536 332.913 131.934 333.193 132.403C333.473 132.869 333.667 133.402 333.773 134ZM337.209 136.75V142H335.868V130.364H337.209V134.636H337.322C337.527 134.186 337.834 133.828 338.243 133.562C338.656 133.294 339.205 133.159 339.891 133.159C340.485 133.159 341.006 133.278 341.453 133.517C341.9 133.752 342.247 134.114 342.493 134.602C342.743 135.087 342.868 135.705 342.868 136.455V142H341.527V136.545C341.527 135.852 341.347 135.316 340.987 134.938C340.631 134.555 340.137 134.364 339.504 134.364C339.065 134.364 338.671 134.456 338.322 134.642C337.978 134.828 337.705 135.098 337.504 135.455C337.307 135.811 337.209 136.242 337.209 136.75ZM345.321 142V133.273H346.662V142H345.321ZM346.003 131.818C345.741 131.818 345.516 131.729 345.327 131.551C345.141 131.373 345.048 131.159 345.048 130.909C345.048 130.659 345.141 130.445 345.327 130.267C345.516 130.089 345.741 130 346.003 130C346.264 130 346.488 130.089 346.673 130.267C346.863 130.445 346.957 130.659 346.957 130.909C346.957 131.159 346.863 131.373 346.673 131.551C346.488 131.729 346.264 131.818 346.003 131.818ZM350.459 130.364V142H349.118V130.364H350.459ZM356.21 142.182C355.483 142.182 354.841 141.998 354.284 141.631C353.727 141.259 353.292 140.737 352.977 140.062C352.663 139.384 352.506 138.583 352.506 137.659C352.506 136.742 352.663 135.947 352.977 135.273C353.292 134.598 353.729 134.078 354.29 133.71C354.85 133.343 355.498 133.159 356.233 133.159C356.801 133.159 357.25 133.254 357.58 133.443C357.913 133.629 358.167 133.841 358.341 134.08C358.519 134.314 358.657 134.508 358.756 134.659H358.869V130.364H360.21V142H358.915V140.659H358.756C358.657 140.818 358.517 141.019 358.335 141.261C358.153 141.5 357.894 141.714 357.557 141.903C357.22 142.089 356.771 142.182 356.21 142.182ZM356.392 140.977C356.93 140.977 357.384 140.837 357.756 140.557C358.127 140.273 358.409 139.881 358.602 139.381C358.795 138.877 358.892 138.295 358.892 137.636C358.892 136.985 358.797 136.415 358.608 135.926C358.419 135.434 358.138 135.051 357.767 134.778C357.396 134.502 356.938 134.364 356.392 134.364C355.824 134.364 355.35 134.509 354.972 134.801C354.597 135.089 354.314 135.481 354.125 135.977C353.939 136.47 353.847 137.023 353.847 137.636C353.847 138.258 353.941 138.822 354.131 139.33C354.324 139.833 354.608 140.235 354.983 140.534C355.362 140.83 355.831 140.977 356.392 140.977ZM368.693 136.75V142H367.352V133.273H368.648V134.636H368.761C368.966 134.193 369.277 133.837 369.693 133.568C370.11 133.295 370.648 133.159 371.307 133.159C371.898 133.159 372.415 133.28 372.858 133.523C373.301 133.761 373.646 134.125 373.892 134.614C374.138 135.098 374.261 135.712 374.261 136.455V142H372.92V136.545C372.92 135.86 372.742 135.326 372.386 134.943C372.03 134.557 371.542 134.364 370.92 134.364C370.492 134.364 370.11 134.456 369.773 134.642C369.439 134.828 369.176 135.098 368.983 135.455C368.79 135.811 368.693 136.242 368.693 136.75ZM380.257 142.182C379.469 142.182 378.778 141.994 378.183 141.619C377.592 141.244 377.13 140.72 376.797 140.045C376.467 139.371 376.303 138.583 376.303 137.682C376.303 136.773 376.467 135.979 376.797 135.301C377.13 134.623 377.592 134.097 378.183 133.722C378.778 133.347 379.469 133.159 380.257 133.159C381.045 133.159 381.734 133.347 382.325 133.722C382.92 134.097 383.382 134.623 383.712 135.301C384.045 135.979 384.212 136.773 384.212 137.682C384.212 138.583 384.045 139.371 383.712 140.045C383.382 140.72 382.92 141.244 382.325 141.619C381.734 141.994 381.045 142.182 380.257 142.182ZM380.257 140.977C380.856 140.977 381.348 140.824 381.734 140.517C382.121 140.21 382.407 139.807 382.592 139.307C382.778 138.807 382.871 138.265 382.871 137.682C382.871 137.098 382.778 136.555 382.592 136.051C382.407 135.547 382.121 135.14 381.734 134.83C381.348 134.519 380.856 134.364 380.257 134.364C379.659 134.364 379.166 134.519 378.78 134.83C378.393 135.14 378.107 135.547 377.922 136.051C377.736 136.555 377.643 137.098 377.643 137.682C377.643 138.265 377.736 138.807 377.922 139.307C378.107 139.807 378.393 140.21 378.78 140.517C379.166 140.824 379.659 140.977 380.257 140.977ZM389.554 142.182C388.827 142.182 388.185 141.998 387.628 141.631C387.071 141.259 386.635 140.737 386.321 140.062C386.007 139.384 385.849 138.583 385.849 137.659C385.849 136.742 386.007 135.947 386.321 135.273C386.635 134.598 387.073 134.078 387.634 133.71C388.194 133.343 388.842 133.159 389.577 133.159C390.145 133.159 390.594 133.254 390.923 133.443C391.257 133.629 391.51 133.841 391.685 134.08C391.863 134.314 392.001 134.508 392.099 134.659H392.213V130.364H393.554V142H392.259V140.659H392.099C392.001 140.818 391.861 141.019 391.679 141.261C391.497 141.5 391.238 141.714 390.901 141.903C390.563 142.089 390.115 142.182 389.554 142.182ZM389.736 140.977C390.274 140.977 390.728 140.837 391.099 140.557C391.471 140.273 391.753 139.881 391.946 139.381C392.139 138.877 392.236 138.295 392.236 137.636C392.236 136.985 392.141 136.415 391.952 135.926C391.762 135.434 391.482 135.051 391.111 134.778C390.74 134.502 390.281 134.364 389.736 134.364C389.168 134.364 388.694 134.509 388.315 134.801C387.94 135.089 387.658 135.481 387.469 135.977C387.283 136.47 387.19 137.023 387.19 137.636C387.19 138.258 387.285 138.822 387.474 139.33C387.668 139.833 387.952 140.235 388.327 140.534C388.705 140.83 389.175 140.977 389.736 140.977ZM399.855 142.182C399.014 142.182 398.289 141.996 397.679 141.625C397.073 141.25 396.605 140.727 396.276 140.057C395.95 139.383 395.787 138.598 395.787 137.705C395.787 136.811 395.95 136.023 396.276 135.341C396.605 134.655 397.063 134.121 397.651 133.739C398.241 133.352 398.931 133.159 399.719 133.159C400.173 133.159 400.622 133.235 401.065 133.386C401.509 133.538 401.912 133.784 402.276 134.125C402.639 134.462 402.929 134.909 403.145 135.466C403.361 136.023 403.469 136.708 403.469 137.523V138.091H396.741V136.932H402.105C402.105 136.439 402.007 136 401.81 135.614C401.616 135.227 401.34 134.922 400.98 134.699C400.624 134.475 400.204 134.364 399.719 134.364C399.185 134.364 398.723 134.496 398.332 134.761C397.946 135.023 397.649 135.364 397.44 135.784C397.232 136.205 397.128 136.655 397.128 137.136V137.909C397.128 138.568 397.241 139.127 397.469 139.585C397.7 140.04 398.02 140.386 398.429 140.625C398.838 140.86 399.313 140.977 399.855 140.977C400.207 140.977 400.526 140.928 400.81 140.83C401.098 140.727 401.346 140.576 401.554 140.375C401.762 140.17 401.923 139.917 402.037 139.614L403.332 139.977C403.196 140.417 402.967 140.803 402.645 141.136C402.323 141.466 401.925 141.723 401.452 141.909C400.978 142.091 400.446 142.182 399.855 142.182Z" fill="#333333"/>
<path d="M324.409 182V170.364H325.818V180.75H331.227V182H324.409ZM336.886 182.182C336.045 182.182 335.32 181.996 334.71 181.625C334.104 181.25 333.636 180.727 333.307 180.057C332.981 179.383 332.818 178.598 332.818 177.705C332.818 176.811 332.981 176.023 333.307 175.341C333.636 174.655 334.095 174.121 334.682 173.739C335.273 173.352 335.962 173.159 336.75 173.159C337.205 173.159 337.653 173.235 338.097 173.386C338.54 173.538 338.943 173.784 339.307 174.125C339.67 174.462 339.96 174.909 340.176 175.466C340.392 176.023 340.5 176.708 340.5 177.523V178.091H333.773V176.932H339.136C339.136 176.439 339.038 176 338.841 175.614C338.648 175.227 338.371 174.922 338.011 174.699C337.655 174.475 337.235 174.364 336.75 174.364C336.216 174.364 335.754 174.496 335.364 174.761C334.977 175.023 334.68 175.364 334.472 175.784C334.263 176.205 334.159 176.655 334.159 177.136V177.909C334.159 178.568 334.273 179.127 334.5 179.585C334.731 180.04 335.051 180.386 335.46 180.625C335.869 180.86 336.345 180.977 336.886 180.977C337.239 180.977 337.557 180.928 337.841 180.83C338.129 180.727 338.377 180.576 338.585 180.375C338.794 180.17 338.955 179.917 339.068 179.614L340.364 179.977C340.227 180.417 339.998 180.803 339.676 181.136C339.354 181.466 338.956 181.723 338.483 181.909C338.009 182.091 337.477 182.182 336.886 182.182ZM345.108 182.205C344.555 182.205 344.053 182.1 343.602 181.892C343.152 181.68 342.794 181.375 342.528 180.977C342.263 180.576 342.131 180.091 342.131 179.523C342.131 179.023 342.229 178.617 342.426 178.307C342.623 177.992 342.886 177.746 343.216 177.568C343.545 177.39 343.909 177.258 344.307 177.17C344.708 177.08 345.112 177.008 345.517 176.955C346.047 176.886 346.477 176.835 346.807 176.801C347.14 176.763 347.383 176.701 347.534 176.614C347.689 176.527 347.767 176.375 347.767 176.159V176.114C347.767 175.553 347.614 175.117 347.307 174.807C347.004 174.496 346.544 174.341 345.926 174.341C345.286 174.341 344.784 174.481 344.42 174.761C344.057 175.042 343.801 175.341 343.653 175.659L342.381 175.205C342.608 174.674 342.911 174.261 343.29 173.966C343.672 173.667 344.089 173.458 344.54 173.341C344.994 173.22 345.441 173.159 345.881 173.159C346.161 173.159 346.483 173.193 346.847 173.261C347.214 173.326 347.568 173.46 347.909 173.665C348.254 173.869 348.54 174.178 348.767 174.591C348.994 175.004 349.108 175.557 349.108 176.25V182H347.767V180.818H347.699C347.608 181.008 347.456 181.21 347.244 181.426C347.032 181.642 346.75 181.826 346.398 181.977C346.045 182.129 345.616 182.205 345.108 182.205ZM345.312 181C345.843 181 346.29 180.896 346.653 180.688C347.021 180.479 347.297 180.21 347.483 179.881C347.672 179.551 347.767 179.205 347.767 178.841V177.614C347.71 177.682 347.585 177.744 347.392 177.801C347.203 177.854 346.983 177.902 346.733 177.943C346.487 177.981 346.246 178.015 346.011 178.045C345.78 178.072 345.593 178.095 345.449 178.114C345.1 178.159 344.775 178.233 344.472 178.335C344.172 178.434 343.93 178.583 343.744 178.784C343.563 178.981 343.472 179.25 343.472 179.591C343.472 180.057 343.644 180.409 343.989 180.648C344.337 180.883 344.778 181 345.312 181ZM355.442 173.273V174.409H350.737V173.273H355.442ZM352.146 182V172.068C352.146 171.568 352.264 171.152 352.499 170.818C352.733 170.485 353.038 170.235 353.413 170.068C353.788 169.902 354.184 169.818 354.601 169.818C354.93 169.818 355.199 169.845 355.408 169.898C355.616 169.951 355.771 170 355.874 170.045L355.487 171.205C355.419 171.182 355.324 171.153 355.203 171.119C355.086 171.085 354.93 171.068 354.737 171.068C354.294 171.068 353.974 171.18 353.777 171.403C353.584 171.627 353.487 171.955 353.487 172.386V182H352.146ZM363.162 176.75V182H361.821V173.273H363.116V174.636H363.23C363.435 174.193 363.745 173.837 364.162 173.568C364.579 173.295 365.116 173.159 365.776 173.159C366.366 173.159 366.884 173.28 367.327 173.523C367.77 173.761 368.115 174.125 368.361 174.614C368.607 175.098 368.73 175.712 368.73 176.455V182H367.389V176.545C367.389 175.86 367.211 175.326 366.855 174.943C366.499 174.557 366.01 174.364 365.389 174.364C364.961 174.364 364.579 174.456 364.241 174.642C363.908 174.828 363.645 175.098 363.452 175.455C363.259 175.811 363.162 176.242 363.162 176.75ZM374.726 182.182C373.938 182.182 373.247 181.994 372.652 181.619C372.061 181.244 371.599 180.72 371.266 180.045C370.936 179.371 370.771 178.583 370.771 177.682C370.771 176.773 370.936 175.979 371.266 175.301C371.599 174.623 372.061 174.097 372.652 173.722C373.247 173.347 373.938 173.159 374.726 173.159C375.514 173.159 376.203 173.347 376.794 173.722C377.389 174.097 377.851 174.623 378.18 175.301C378.514 175.979 378.68 176.773 378.68 177.682C378.68 178.583 378.514 179.371 378.18 180.045C377.851 180.72 377.389 181.244 376.794 181.619C376.203 181.994 375.514 182.182 374.726 182.182ZM374.726 180.977C375.324 180.977 375.817 180.824 376.203 180.517C376.589 180.21 376.875 179.807 377.061 179.307C377.247 178.807 377.339 178.265 377.339 177.682C377.339 177.098 377.247 176.555 377.061 176.051C376.875 175.547 376.589 175.14 376.203 174.83C375.817 174.519 375.324 174.364 374.726 174.364C374.127 174.364 373.635 174.519 373.249 174.83C372.862 175.14 372.576 175.547 372.391 176.051C372.205 176.555 372.112 177.098 372.112 177.682C372.112 178.265 372.205 178.807 372.391 179.307C372.576 179.807 372.862 180.21 373.249 180.517C373.635 180.824 374.127 180.977 374.726 180.977ZM384.023 182.182C383.295 182.182 382.653 181.998 382.097 181.631C381.54 181.259 381.104 180.737 380.79 180.062C380.475 179.384 380.318 178.583 380.318 177.659C380.318 176.742 380.475 175.947 380.79 175.273C381.104 174.598 381.542 174.078 382.102 173.71C382.663 173.343 383.311 173.159 384.045 173.159C384.614 173.159 385.063 173.254 385.392 173.443C385.725 173.629 385.979 173.841 386.153 174.08C386.331 174.314 386.47 174.508 386.568 174.659H386.682V170.364H388.023V182H386.727V180.659H386.568C386.47 180.818 386.33 181.019 386.148 181.261C385.966 181.5 385.706 181.714 385.369 181.903C385.032 182.089 384.583 182.182 384.023 182.182ZM384.205 180.977C384.742 180.977 385.197 180.837 385.568 180.557C385.939 180.273 386.222 179.881 386.415 179.381C386.608 178.877 386.705 178.295 386.705 177.636C386.705 176.985 386.61 176.415 386.42 175.926C386.231 175.434 385.951 175.051 385.58 174.778C385.208 174.502 384.75 174.364 384.205 174.364C383.636 174.364 383.163 174.509 382.784 174.801C382.409 175.089 382.127 175.481 381.938 175.977C381.752 176.47 381.659 177.023 381.659 177.636C381.659 178.258 381.754 178.822 381.943 179.33C382.136 179.833 382.42 180.235 382.795 180.534C383.174 180.83 383.644 180.977 384.205 180.977ZM394.324 182.182C393.483 182.182 392.758 181.996 392.148 181.625C391.542 181.25 391.074 180.727 390.744 180.057C390.419 179.383 390.256 178.598 390.256 177.705C390.256 176.811 390.419 176.023 390.744 175.341C391.074 174.655 391.532 174.121 392.119 173.739C392.71 173.352 393.4 173.159 394.188 173.159C394.642 173.159 395.091 173.235 395.534 173.386C395.977 173.538 396.381 173.784 396.744 174.125C397.108 174.462 397.398 174.909 397.614 175.466C397.83 176.023 397.938 176.708 397.938 177.523V178.091H391.21V176.932H396.574C396.574 176.439 396.475 176 396.278 175.614C396.085 175.227 395.809 174.922 395.449 174.699C395.093 174.475 394.672 174.364 394.188 174.364C393.653 174.364 393.191 174.496 392.801 174.761C392.415 175.023 392.117 175.364 391.909 175.784C391.701 176.205 391.597 176.655 391.597 177.136V177.909C391.597 178.568 391.71 179.127 391.938 179.585C392.169 180.04 392.489 180.386 392.898 180.625C393.307 180.86 393.782 180.977 394.324 180.977C394.676 180.977 394.994 180.928 395.278 180.83C395.566 180.727 395.814 180.576 396.023 180.375C396.231 180.17 396.392 179.917 396.506 179.614L397.801 179.977C397.665 180.417 397.436 180.803 397.114 181.136C396.792 181.466 396.394 181.723 395.92 181.909C395.447 182.091 394.915 182.182 394.324 182.182Z" fill="#333333"/>
</svg>
