<svg width="138" height="112" viewBox="0 0 138 112" fill="none" xmlns="http://www.w3.org/2000/svg">
<path d="M15.9999 18.6199C15.8399 18.6199 15.6799 18.5599 15.5599 18.4399L11.5599 14.4399C11.3199 14.1999 11.3199 13.7999 11.5599 13.5599C11.7999 13.3199 12.1999 13.3199 12.4399 13.5599L15.9999 17.1199L19.5599 13.5599C19.7999 13.3199 20.1999 13.3199 20.4399 13.5599C20.6799 13.7999 20.6799 14.1999 20.4399 14.4399L16.4399 18.4399C16.3199 18.5599 16.1599 18.6199 15.9999 18.6199Z" fill="#333333"/>
<path d="M41.4091 22V10.3636H45.3409C46.2538 10.3636 47 10.5284 47.5795 10.858C48.1629 11.1837 48.5947 11.625 48.875 12.1818C49.1553 12.7386 49.2955 13.3598 49.2955 14.0455C49.2955 14.7311 49.1553 15.3542 48.875 15.9148C48.5985 16.4754 48.1705 16.9223 47.5909 17.2557C47.0114 17.5852 46.2689 17.75 45.3636 17.75H42.5455V16.5H45.3182C45.9432 16.5 46.4451 16.392 46.8239 16.1761C47.2027 15.9602 47.4773 15.6686 47.6477 15.3011C47.822 14.9299 47.9091 14.5114 47.9091 14.0455C47.9091 13.5795 47.822 13.1629 47.6477 12.7955C47.4773 12.428 47.2008 12.1402 46.8182 11.9318C46.4356 11.7197 45.928 11.6136 45.2955 11.6136H42.8182V22H41.4091ZM53.9517 22.2045C53.3987 22.2045 52.8968 22.1004 52.446 21.892C51.9953 21.6799 51.6373 21.375 51.3722 20.9773C51.107 20.5758 50.9744 20.0909 50.9744 19.5227C50.9744 19.0227 51.0729 18.6174 51.2699 18.3068C51.4669 17.9924 51.7301 17.7462 52.0597 17.5682C52.3892 17.3902 52.7528 17.2576 53.1506 17.1705C53.5521 17.0795 53.9555 17.0076 54.3608 16.9545C54.8911 16.8864 55.321 16.8352 55.6506 16.8011C55.9839 16.7633 56.2263 16.7008 56.3778 16.6136C56.5331 16.5265 56.6108 16.375 56.6108 16.1591V16.1136C56.6108 15.553 56.4574 15.1174 56.1506 14.8068C55.8475 14.4962 55.3873 14.3409 54.7699 14.3409C54.1297 14.3409 53.6278 14.4811 53.2642 14.7614C52.9006 15.0417 52.6449 15.3409 52.4972 15.6591L51.2244 15.2045C51.4517 14.6742 51.7547 14.2614 52.1335 13.9659C52.5161 13.6667 52.9328 13.4583 53.3835 13.3409C53.8381 13.2197 54.285 13.1591 54.7244 13.1591C55.0047 13.1591 55.3267 13.1932 55.6903 13.2614C56.0578 13.3258 56.4119 13.4602 56.7528 13.6648C57.0975 13.8693 57.3835 14.178 57.6108 14.5909C57.8381 15.0038 57.9517 15.5568 57.9517 16.25V22H56.6108V20.8182H56.5426C56.4517 21.0076 56.3002 21.2102 56.0881 21.4261C55.8759 21.642 55.5938 21.8258 55.2415 21.9773C54.8892 22.1288 54.4593 22.2045 53.9517 22.2045ZM54.1562 21C54.6866 21 55.1335 20.8958 55.4972 20.6875C55.8646 20.4792 56.1411 20.2102 56.3267 19.8807C56.5161 19.5511 56.6108 19.2045 56.6108 18.8409V17.6136C56.554 17.6818 56.429 17.7443 56.2358 17.8011C56.0464 17.8542 55.8267 17.9015 55.5767 17.9432C55.3305 17.9811 55.09 18.0152 54.8551 18.0455C54.6241 18.072 54.4366 18.0947 54.2926 18.1136C53.9441 18.1591 53.6184 18.233 53.3153 18.3352C53.0161 18.4337 52.7737 18.5833 52.5881 18.7841C52.4063 18.9811 52.3153 19.25 52.3153 19.5909C52.3153 20.0568 52.4877 20.4091 52.8324 20.6477C53.1809 20.8826 53.6222 21 54.1562 21ZM60.3991 22V13.2727H61.6946V14.5909H61.7855C61.9446 14.1591 62.2325 13.8087 62.6491 13.5398C63.0658 13.2708 63.5355 13.1364 64.0582 13.1364C64.1567 13.1364 64.2798 13.1383 64.4276 13.142C64.5753 13.1458 64.687 13.1515 64.7628 13.1591V14.5227C64.7173 14.5114 64.6132 14.4943 64.4503 14.4716C64.2912 14.4451 64.1226 14.4318 63.9446 14.4318C63.5204 14.4318 63.1416 14.5208 62.8082 14.6989C62.4787 14.8731 62.2173 15.1155 62.0241 15.4261C61.8348 15.733 61.7401 16.0833 61.7401 16.4773V22H60.3991ZM69.7457 22.1818C68.9048 22.1818 68.1795 21.9962 67.5696 21.625C66.9635 21.25 66.4957 20.7273 66.1662 20.0568C65.8404 19.3826 65.6776 18.5985 65.6776 17.7045C65.6776 16.8106 65.8404 16.0227 66.1662 15.3409C66.4957 14.6553 66.9541 14.1212 67.5412 13.7386C68.1321 13.3523 68.8215 13.1591 69.6094 13.1591C70.0639 13.1591 70.5128 13.2348 70.956 13.3864C71.3991 13.5379 71.8026 13.7841 72.1662 14.125C72.5298 14.4621 72.8196 14.9091 73.0355 15.4659C73.2514 16.0227 73.3594 16.7083 73.3594 17.5227V18.0909H66.6321V16.9318H71.9957C71.9957 16.4394 71.8973 16 71.7003 15.6136C71.5071 15.2273 71.2306 14.9223 70.8707 14.6989C70.5147 14.4754 70.0942 14.3636 69.6094 14.3636C69.0753 14.3636 68.6132 14.4962 68.223 14.7614C67.8366 15.0227 67.5393 15.3636 67.331 15.7841C67.1226 16.2045 67.0185 16.6553 67.0185 17.1364V17.9091C67.0185 18.5682 67.1321 19.1269 67.3594 19.5852C67.5904 20.0398 67.9105 20.3864 68.3196 20.625C68.7287 20.8598 69.2041 20.9773 69.7457 20.9773C70.098 20.9773 70.4162 20.928 70.7003 20.8295C70.9882 20.7273 71.2363 20.5758 71.4446 20.375C71.6529 20.1705 71.8139 19.9167 71.9276 19.6136L73.223 19.9773C73.0866 20.4167 72.8575 20.803 72.5355 21.1364C72.2135 21.4659 71.8158 21.7235 71.3423 21.9091C70.8688 22.0909 70.3366 22.1818 69.7457 22.1818ZM76.7401 16.75V22H75.3991V13.2727H76.6946V14.6364H76.8082C77.0128 14.1932 77.3234 13.8371 77.7401 13.5682C78.1567 13.2955 78.6946 13.1591 79.3537 13.1591C79.9446 13.1591 80.4616 13.2803 80.9048 13.5227C81.348 13.7614 81.6927 14.125 81.9389 14.6136C82.1851 15.0985 82.3082 15.7121 82.3082 16.4545V22H80.9673V16.5455C80.9673 15.8598 80.7893 15.3258 80.4332 14.9432C80.0772 14.5568 79.5885 14.3636 78.9673 14.3636C78.5393 14.3636 78.1567 14.4564 77.8196 14.642C77.4863 14.8277 77.223 15.0985 77.0298 15.4545C76.8366 15.8106 76.7401 16.2424 76.7401 16.75ZM88.554 13.2727V14.4091H84.0312V13.2727H88.554ZM85.3494 11.1818H86.6903V19.5C86.6903 19.8788 86.7453 20.1629 86.8551 20.3523C86.9688 20.5379 87.1127 20.6629 87.2869 20.7273C87.465 20.7879 87.6525 20.8182 87.8494 20.8182C87.9972 20.8182 88.1184 20.8106 88.2131 20.7955C88.3078 20.7765 88.3835 20.7614 88.4403 20.75L88.7131 21.9545C88.6222 21.9886 88.4953 22.0227 88.3324 22.0568C88.1695 22.0947 87.9631 22.1136 87.7131 22.1136C87.3343 22.1136 86.9631 22.0322 86.5994 21.8693C86.2396 21.7064 85.9403 21.4583 85.7017 21.125C85.4669 20.7917 85.3494 20.3712 85.3494 19.8636V11.1818ZM96.4119 16.75V22H95.071V13.2727H96.3665V14.6364H96.4801C96.6847 14.1932 96.9953 13.8371 97.4119 13.5682C97.8286 13.2955 98.3665 13.1591 99.0256 13.1591C99.6165 13.1591 100.134 13.2803 100.577 13.5227C101.02 13.7614 101.365 14.125 101.611 14.6136C101.857 15.0985 101.98 15.7121 101.98 16.4545V22H100.639V16.5455C100.639 15.8598 100.461 15.3258 100.105 14.9432C99.7491 14.5568 99.2604 14.3636 98.6392 14.3636C98.2112 14.3636 97.8286 14.4564 97.4915 14.642C97.1581 14.8277 96.8949 15.0985 96.7017 15.4545C96.5085 15.8106 96.4119 16.2424 96.4119 16.75ZM107.976 22.1818C107.188 22.1818 106.497 21.9943 105.902 21.6193C105.311 21.2443 104.849 20.7197 104.516 20.0455C104.186 19.3712 104.021 18.5833 104.021 17.6818C104.021 16.7727 104.186 15.9792 104.516 15.3011C104.849 14.6231 105.311 14.0966 105.902 13.7216C106.497 13.3466 107.188 13.1591 107.976 13.1591C108.764 13.1591 109.453 13.3466 110.044 13.7216C110.639 14.0966 111.101 14.6231 111.43 15.3011C111.764 15.9792 111.93 16.7727 111.93 17.6818C111.93 18.5833 111.764 19.3712 111.43 20.0455C111.101 20.7197 110.639 21.2443 110.044 21.6193C109.453 21.9943 108.764 22.1818 107.976 22.1818ZM107.976 20.9773C108.574 20.9773 109.067 20.8239 109.453 20.517C109.839 20.2102 110.125 19.8068 110.311 19.3068C110.497 18.8068 110.589 18.2652 110.589 17.6818C110.589 17.0985 110.497 16.5549 110.311 16.0511C110.125 15.5473 109.839 15.1402 109.453 14.8295C109.067 14.5189 108.574 14.3636 107.976 14.3636C107.377 14.3636 106.885 14.5189 106.499 14.8295C106.112 15.1402 105.826 15.5473 105.641 16.0511C105.455 16.5549 105.362 17.0985 105.362 17.6818C105.362 18.2652 105.455 18.8068 105.641 19.3068C105.826 19.8068 106.112 20.2102 106.499 20.517C106.885 20.8239 107.377 20.9773 107.976 20.9773ZM117.273 22.1818C116.545 22.1818 115.903 21.9981 115.347 21.6307C114.79 21.2595 114.354 20.7367 114.04 20.0625C113.725 19.3845 113.568 18.5833 113.568 17.6591C113.568 16.7424 113.725 15.947 114.04 15.2727C114.354 14.5985 114.792 14.0777 115.352 13.7102C115.913 13.3428 116.561 13.1591 117.295 13.1591C117.864 13.1591 118.313 13.2538 118.642 13.4432C118.975 13.6288 119.229 13.8409 119.403 14.0795C119.581 14.3144 119.72 14.5076 119.818 14.6591H119.932V10.3636H121.273V22H119.977V20.6591H119.818C119.72 20.8182 119.58 21.0189 119.398 21.2614C119.216 21.5 118.956 21.714 118.619 21.9034C118.282 22.089 117.833 22.1818 117.273 22.1818ZM117.455 20.9773C117.992 20.9773 118.447 20.8371 118.818 20.5568C119.189 20.2727 119.472 19.8807 119.665 19.3807C119.858 18.8769 119.955 18.2955 119.955 17.6364C119.955 16.9848 119.86 16.4148 119.67 15.9261C119.481 15.4337 119.201 15.0511 118.83 14.7784C118.458 14.5019 118 14.3636 117.455 14.3636C116.886 14.3636 116.413 14.5095 116.034 14.8011C115.659 15.089 115.377 15.4811 115.188 15.9773C115.002 16.4697 114.909 17.0227 114.909 17.6364C114.909 18.2576 115.004 18.822 115.193 19.3295C115.386 19.8333 115.67 20.2348 116.045 20.5341C116.424 20.8295 116.894 20.9773 117.455 20.9773ZM127.574 22.1818C126.733 22.1818 126.008 21.9962 125.398 21.625C124.792 21.25 124.324 20.7273 123.994 20.0568C123.669 19.3826 123.506 18.5985 123.506 17.7045C123.506 16.8106 123.669 16.0227 123.994 15.3409C124.324 14.6553 124.782 14.1212 125.369 13.7386C125.96 13.3523 126.65 13.1591 127.438 13.1591C127.892 13.1591 128.341 13.2348 128.784 13.3864C129.227 13.5379 129.631 13.7841 129.994 14.125C130.358 14.4621 130.648 14.9091 130.864 15.4659C131.08 16.0227 131.188 16.7083 131.188 17.5227V18.0909H124.46V16.9318H129.824C129.824 16.4394 129.725 16 129.528 15.6136C129.335 15.2273 129.059 14.9223 128.699 14.6989C128.343 14.4754 127.922 14.3636 127.438 14.3636C126.903 14.3636 126.441 14.4962 126.051 14.7614C125.665 15.0227 125.367 15.3636 125.159 15.7841C124.951 16.2045 124.847 16.6553 124.847 17.1364V17.9091C124.847 18.5682 124.96 19.1269 125.188 19.5852C125.419 20.0398 125.739 20.3864 126.148 20.625C126.557 20.8598 127.032 20.9773 127.574 20.9773C127.926 20.9773 128.244 20.928 128.528 20.8295C128.816 20.7273 129.064 20.5758 129.273 20.375C129.481 20.1705 129.642 19.9167 129.756 19.6136L131.051 19.9773C130.915 20.4167 130.686 20.803 130.364 21.1364C130.042 21.4659 129.644 21.7235 129.17 21.9091C128.697 22.0909 128.165 22.1818 127.574 22.1818Z" fill="#333333"/>
<path d="M29.9999 60.6199C29.8399 60.6199 29.6799 60.5599 29.5599 60.4399C29.3199 60.1999 29.3199 59.7999 29.5599 59.5599L33.1199 55.9999L29.5599 52.4399C29.3199 52.1999 29.3199 51.7999 29.5599 51.5599C29.7999 51.3199 30.1999 51.3199 30.4399 51.5599L34.4399 55.5599C34.6799 55.7999 34.6799 56.1999 34.4399 56.4399L30.4399 60.4399C30.3199 60.5599 30.1599 60.6199 29.9999 60.6199Z" fill="#333333"/>
<path d="M66.7727 54H65.3636C65.2803 53.5947 65.1345 53.2386 64.9261 52.9318C64.7216 52.625 64.4716 52.3674 64.1761 52.1591C63.8845 51.947 63.5606 51.7879 63.2045 51.6818C62.8485 51.5758 62.4773 51.5227 62.0909 51.5227C61.3864 51.5227 60.7481 51.7008 60.1761 52.0568C59.608 52.4129 59.1553 52.9375 58.8182 53.6307C58.4848 54.3239 58.3182 55.1742 58.3182 56.1818C58.3182 57.1894 58.4848 58.0398 58.8182 58.733C59.1553 59.4261 59.608 59.9508 60.1761 60.3068C60.7481 60.6629 61.3864 60.8409 62.0909 60.8409C62.4773 60.8409 62.8485 60.7879 63.2045 60.6818C63.5606 60.5758 63.8845 60.4186 64.1761 60.2102C64.4716 59.9981 64.7216 59.7386 64.9261 59.4318C65.1345 59.1212 65.2803 58.7652 65.3636 58.3636H66.7727C66.6667 58.9583 66.4735 59.4905 66.1932 59.9602C65.9129 60.4299 65.5644 60.8295 65.1477 61.1591C64.7311 61.4848 64.2633 61.733 63.7443 61.9034C63.2292 62.0739 62.678 62.1591 62.0909 62.1591C61.0985 62.1591 60.2159 61.9167 59.4432 61.4318C58.6705 60.947 58.0625 60.2576 57.6193 59.3636C57.1761 58.4697 56.9545 57.4091 56.9545 56.1818C56.9545 54.9545 57.1761 53.8939 57.6193 53C58.0625 52.1061 58.6705 51.4167 59.4432 50.9318C60.2159 50.447 61.0985 50.2045 62.0909 50.2045C62.678 50.2045 63.2292 50.2898 63.7443 50.4602C64.2633 50.6307 64.7311 50.8807 65.1477 51.2102C65.5644 51.536 65.9129 51.9337 66.1932 52.4034C66.4735 52.8693 66.6667 53.4015 66.7727 54ZM70.2088 56.75V62H68.8679V50.3636H70.2088V54.6364H70.3224C70.527 54.1856 70.8338 53.8277 71.2429 53.5625C71.6558 53.2936 72.205 53.1591 72.8906 53.1591C73.4853 53.1591 74.0062 53.2784 74.4531 53.517C74.9001 53.7519 75.2467 54.1136 75.4929 54.6023C75.7429 55.0871 75.8679 55.7045 75.8679 56.4545V62H74.527V56.5455C74.527 55.8523 74.3471 55.3163 73.9872 54.9375C73.6312 54.5549 73.1368 54.3636 72.5043 54.3636C72.0649 54.3636 71.6709 54.4564 71.3224 54.642C70.9777 54.8277 70.705 55.0985 70.5043 55.4545C70.3073 55.8106 70.2088 56.2424 70.2088 56.75ZM78.321 62V53.2727H79.6619V62H78.321ZM79.0028 51.8182C78.7415 51.8182 78.5161 51.7292 78.3267 51.5511C78.1411 51.3731 78.0483 51.1591 78.0483 50.9091C78.0483 50.6591 78.1411 50.4451 78.3267 50.267C78.5161 50.089 78.7415 50 79.0028 50C79.2642 50 79.4877 50.089 79.6733 50.267C79.8627 50.4451 79.9574 50.6591 79.9574 50.9091C79.9574 51.1591 79.8627 51.3731 79.6733 51.5511C79.4877 51.7292 79.2642 51.8182 79.0028 51.8182ZM83.4588 50.3636V62H82.1179V50.3636H83.4588ZM89.2102 62.1818C88.483 62.1818 87.8409 61.9981 87.2841 61.6307C86.7273 61.2595 86.2917 60.7367 85.9773 60.0625C85.6629 59.3845 85.5057 58.5833 85.5057 57.6591C85.5057 56.7424 85.6629 55.947 85.9773 55.2727C86.2917 54.5985 86.7292 54.0777 87.2898 53.7102C87.8504 53.3428 88.4981 53.1591 89.233 53.1591C89.8011 53.1591 90.25 53.2538 90.5795 53.4432C90.9129 53.6288 91.1667 53.8409 91.3409 54.0795C91.5189 54.3144 91.6572 54.5076 91.7557 54.6591H91.8693V50.3636H93.2102V62H91.9148V60.6591H91.7557C91.6572 60.8182 91.517 61.0189 91.3352 61.2614C91.1534 61.5 90.8939 61.714 90.5568 61.9034C90.2197 62.089 89.7708 62.1818 89.2102 62.1818ZM89.392 60.9773C89.9299 60.9773 90.3845 60.8371 90.7557 60.5568C91.1269 60.2727 91.4091 59.8807 91.6023 59.3807C91.7955 58.8769 91.892 58.2955 91.892 57.6364C91.892 56.9848 91.7973 56.4148 91.608 55.9261C91.4186 55.4337 91.1383 55.0511 90.767 54.7784C90.3958 54.5019 89.9375 54.3636 89.392 54.3636C88.8239 54.3636 88.3504 54.5095 87.9716 54.8011C87.5966 55.089 87.3144 55.4811 87.125 55.9773C86.9394 56.4697 86.8466 57.0227 86.8466 57.6364C86.8466 58.2576 86.9413 58.822 87.1307 59.3295C87.3239 59.8333 87.608 60.2348 87.983 60.5341C88.3617 60.8295 88.8314 60.9773 89.392 60.9773ZM101.693 56.75V62H100.352V53.2727H101.648V54.6364H101.761C101.966 54.1932 102.277 53.8371 102.693 53.5682C103.11 53.2955 103.648 53.1591 104.307 53.1591C104.898 53.1591 105.415 53.2803 105.858 53.5227C106.301 53.7614 106.646 54.125 106.892 54.6136C107.138 55.0985 107.261 55.7121 107.261 56.4545V62H105.92V56.5455C105.92 55.8598 105.742 55.3258 105.386 54.9432C105.03 54.5568 104.542 54.3636 103.92 54.3636C103.492 54.3636 103.11 54.4564 102.773 54.642C102.439 54.8277 102.176 55.0985 101.983 55.4545C101.79 55.8106 101.693 56.2424 101.693 56.75ZM113.257 62.1818C112.469 62.1818 111.778 61.9943 111.183 61.6193C110.592 61.2443 110.13 60.7197 109.797 60.0455C109.467 59.3712 109.303 58.5833 109.303 57.6818C109.303 56.7727 109.467 55.9792 109.797 55.3011C110.13 54.6231 110.592 54.0966 111.183 53.7216C111.778 53.3466 112.469 53.1591 113.257 53.1591C114.045 53.1591 114.734 53.3466 115.325 53.7216C115.92 54.0966 116.382 54.6231 116.712 55.3011C117.045 55.9792 117.212 56.7727 117.212 57.6818C117.212 58.5833 117.045 59.3712 116.712 60.0455C116.382 60.7197 115.92 61.2443 115.325 61.6193C114.734 61.9943 114.045 62.1818 113.257 62.1818ZM113.257 60.9773C113.856 60.9773 114.348 60.8239 114.734 60.517C115.121 60.2102 115.407 59.8068 115.592 59.3068C115.778 58.8068 115.871 58.2652 115.871 57.6818C115.871 57.0985 115.778 56.5549 115.592 56.0511C115.407 55.5473 115.121 55.1402 114.734 54.8295C114.348 54.5189 113.856 54.3636 113.257 54.3636C112.659 54.3636 112.166 54.5189 111.78 54.8295C111.393 55.1402 111.107 55.5473 110.922 56.0511C110.736 56.5549 110.643 57.0985 110.643 57.6818C110.643 58.2652 110.736 58.8068 110.922 59.3068C111.107 59.8068 111.393 60.2102 111.78 60.517C112.166 60.8239 112.659 60.9773 113.257 60.9773ZM122.554 62.1818C121.827 62.1818 121.185 61.9981 120.628 61.6307C120.071 61.2595 119.635 60.7367 119.321 60.0625C119.007 59.3845 118.849 58.5833 118.849 57.6591C118.849 56.7424 119.007 55.947 119.321 55.2727C119.635 54.5985 120.073 54.0777 120.634 53.7102C121.194 53.3428 121.842 53.1591 122.577 53.1591C123.145 53.1591 123.594 53.2538 123.923 53.4432C124.257 53.6288 124.51 53.8409 124.685 54.0795C124.863 54.3144 125.001 54.5076 125.099 54.6591H125.213V50.3636H126.554V62H125.259V60.6591H125.099C125.001 60.8182 124.861 61.0189 124.679 61.2614C124.497 61.5 124.238 61.714 123.901 61.9034C123.563 62.089 123.115 62.1818 122.554 62.1818ZM122.736 60.9773C123.274 60.9773 123.728 60.8371 124.099 60.5568C124.471 60.2727 124.753 59.8807 124.946 59.3807C125.139 58.8769 125.236 58.2955 125.236 57.6364C125.236 56.9848 125.141 56.4148 124.952 55.9261C124.762 55.4337 124.482 55.0511 124.111 54.7784C123.74 54.5019 123.281 54.3636 122.736 54.3636C122.168 54.3636 121.694 54.5095 121.315 54.8011C120.94 55.089 120.658 55.4811 120.469 55.9773C120.283 56.4697 120.19 57.0227 120.19 57.6364C120.19 58.2576 120.285 58.822 120.474 59.3295C120.668 59.8333 120.952 60.2348 121.327 60.5341C121.705 60.8295 122.175 60.9773 122.736 60.9773ZM132.855 62.1818C132.014 62.1818 131.289 61.9962 130.679 61.625C130.073 61.25 129.605 60.7273 129.276 60.0568C128.95 59.3826 128.787 58.5985 128.787 57.7045C128.787 56.8106 128.95 56.0227 129.276 55.3409C129.605 54.6553 130.063 54.1212 130.651 53.7386C131.241 53.3523 131.931 53.1591 132.719 53.1591C133.173 53.1591 133.622 53.2348 134.065 53.3864C134.509 53.5379 134.912 53.7841 135.276 54.125C135.639 54.4621 135.929 54.9091 136.145 55.4659C136.361 56.0227 136.469 56.7083 136.469 57.5227V58.0909H129.741V56.9318H135.105C135.105 56.4394 135.007 56 134.81 55.6136C134.616 55.2273 134.34 54.9223 133.98 54.6989C133.624 54.4754 133.204 54.3636 132.719 54.3636C132.185 54.3636 131.723 54.4962 131.332 54.7614C130.946 55.0227 130.649 55.3636 130.44 55.7841C130.232 56.2045 130.128 56.6553 130.128 57.1364V57.9091C130.128 58.5682 130.241 59.1269 130.469 59.5852C130.7 60.0398 131.02 60.3864 131.429 60.625C131.838 60.8598 132.313 60.9773 132.855 60.9773C133.207 60.9773 133.526 60.928 133.81 60.8295C134.098 60.7273 134.346 60.5758 134.554 60.375C134.762 60.1705 134.923 59.9167 135.037 59.6136L136.332 59.9773C136.196 60.4167 135.967 60.803 135.645 61.1364C135.323 61.4659 134.925 61.7235 134.452 61.9091C133.978 62.0909 133.446 62.1818 132.855 62.1818Z" fill="#333333"/>
<path d="M57.4091 102V90.3636H58.8182V100.75H64.2273V102H57.4091ZM69.8864 102.182C69.0455 102.182 68.3201 101.996 67.7102 101.625C67.1042 101.25 66.6364 100.727 66.3068 100.057C65.9811 99.3826 65.8182 98.5985 65.8182 97.7045C65.8182 96.8106 65.9811 96.0227 66.3068 95.3409C66.6364 94.6553 67.0947 94.1212 67.6818 93.7386C68.2727 93.3523 68.9621 93.1591 69.75 93.1591C70.2045 93.1591 70.6534 93.2348 71.0966 93.3864C71.5398 93.5379 71.9432 93.7841 72.3068 94.125C72.6705 94.4621 72.9602 94.9091 73.1761 95.4659C73.392 96.0227 73.5 96.7083 73.5 97.5227V98.0909H66.7727V96.9318H72.1364C72.1364 96.4394 72.0379 96 71.8409 95.6136C71.6477 95.2273 71.3712 94.9223 71.0114 94.6989C70.6553 94.4754 70.2348 94.3636 69.75 94.3636C69.2159 94.3636 68.7538 94.4962 68.3636 94.7614C67.9773 95.0227 67.6799 95.3636 67.4716 95.7841C67.2633 96.2045 67.1591 96.6553 67.1591 97.1364V97.9091C67.1591 98.5682 67.2727 99.1269 67.5 99.5852C67.7311 100.04 68.0511 100.386 68.4602 100.625C68.8693 100.86 69.3447 100.977 69.8864 100.977C70.2386 100.977 70.5568 100.928 70.8409 100.83C71.1288 100.727 71.3769 100.576 71.5852 100.375C71.7936 100.17 71.9545 99.9167 72.0682 99.6136L73.3636 99.9773C73.2273 100.417 72.9981 100.803 72.6761 101.136C72.3542 101.466 71.9564 101.723 71.483 101.909C71.0095 102.091 70.4773 102.182 69.8864 102.182ZM78.108 102.205C77.5549 102.205 77.053 102.1 76.6023 101.892C76.1515 101.68 75.7936 101.375 75.5284 100.977C75.2633 100.576 75.1307 100.091 75.1307 99.5227C75.1307 99.0227 75.2292 98.6174 75.4261 98.3068C75.6231 97.9924 75.8864 97.7462 76.2159 97.5682C76.5455 97.3902 76.9091 97.2576 77.3068 97.1705C77.7083 97.0795 78.1117 97.0076 78.517 96.9545C79.0473 96.8864 79.4773 96.8352 79.8068 96.8011C80.1402 96.7633 80.3826 96.7008 80.5341 96.6136C80.6894 96.5265 80.767 96.375 80.767 96.1591V96.1136C80.767 95.553 80.6136 95.1174 80.3068 94.8068C80.0038 94.4962 79.5436 94.3409 78.9261 94.3409C78.286 94.3409 77.7841 94.4811 77.4205 94.7614C77.0568 95.0417 76.8011 95.3409 76.6534 95.6591L75.3807 95.2045C75.608 94.6742 75.911 94.2614 76.2898 93.9659C76.6723 93.6667 77.089 93.4583 77.5398 93.3409C77.9943 93.2197 78.4413 93.1591 78.8807 93.1591C79.161 93.1591 79.483 93.1932 79.8466 93.2614C80.214 93.3258 80.5682 93.4602 80.9091 93.6648C81.2538 93.8693 81.5398 94.178 81.767 94.5909C81.9943 95.0038 82.108 95.5568 82.108 96.25V102H80.767V100.818H80.6989C80.608 101.008 80.4564 101.21 80.2443 101.426C80.0322 101.642 79.75 101.826 79.3977 101.977C79.0455 102.129 78.6155 102.205 78.108 102.205ZM78.3125 101C78.8428 101 79.2898 100.896 79.6534 100.688C80.0208 100.479 80.2973 100.21 80.483 99.8807C80.6723 99.5511 80.767 99.2045 80.767 98.8409V97.6136C80.7102 97.6818 80.5852 97.7443 80.392 97.8011C80.2027 97.8542 79.983 97.9015 79.733 97.9432C79.4867 97.9811 79.2462 98.0152 79.0114 98.0455C78.7803 98.072 78.5928 98.0947 78.4489 98.1136C78.1004 98.1591 77.7746 98.233 77.4716 98.3352C77.1723 98.4337 76.9299 98.5833 76.7443 98.7841C76.5625 98.9811 76.4716 99.25 76.4716 99.5909C76.4716 100.057 76.6439 100.409 76.9886 100.648C77.3371 100.883 77.7784 101 78.3125 101ZM88.4418 93.2727V94.4091H83.7372V93.2727H88.4418ZM85.1463 102V92.0682C85.1463 91.5682 85.2637 91.1515 85.4986 90.8182C85.7334 90.4848 86.0384 90.2348 86.4134 90.0682C86.7884 89.9015 87.1842 89.8182 87.6009 89.8182C87.9304 89.8182 88.1993 89.8447 88.4077 89.8977C88.616 89.9508 88.7713 90 88.8736 90.0455L88.4872 91.2045C88.419 91.1818 88.3243 91.1534 88.2031 91.1193C88.0857 91.0852 87.9304 91.0682 87.7372 91.0682C87.294 91.0682 86.974 91.1799 86.777 91.4034C86.5838 91.6269 86.4872 91.9545 86.4872 92.3864V102H85.1463ZM96.1619 96.75V102H94.821V93.2727H96.1165V94.6364H96.2301C96.4347 94.1932 96.7453 93.8371 97.1619 93.5682C97.5786 93.2955 98.1165 93.1591 98.7756 93.1591C99.3665 93.1591 99.8835 93.2803 100.327 93.5227C100.77 93.7614 101.115 94.125 101.361 94.6136C101.607 95.0985 101.73 95.7121 101.73 96.4545V102H100.389V96.5455C100.389 95.8598 100.211 95.3258 99.8551 94.9432C99.4991 94.5568 99.0104 94.3636 98.3892 94.3636C97.9612 94.3636 97.5786 94.4564 97.2415 94.642C96.9081 94.8277 96.6449 95.0985 96.4517 95.4545C96.2585 95.8106 96.1619 96.2424 96.1619 96.75ZM107.726 102.182C106.938 102.182 106.247 101.994 105.652 101.619C105.061 101.244 104.599 100.72 104.266 100.045C103.936 99.3712 103.771 98.5833 103.771 97.6818C103.771 96.7727 103.936 95.9792 104.266 95.3011C104.599 94.6231 105.061 94.0966 105.652 93.7216C106.247 93.3466 106.938 93.1591 107.726 93.1591C108.514 93.1591 109.203 93.3466 109.794 93.7216C110.389 94.0966 110.851 94.6231 111.18 95.3011C111.514 95.9792 111.68 96.7727 111.68 97.6818C111.68 98.5833 111.514 99.3712 111.18 100.045C110.851 100.72 110.389 101.244 109.794 101.619C109.203 101.994 108.514 102.182 107.726 102.182ZM107.726 100.977C108.324 100.977 108.817 100.824 109.203 100.517C109.589 100.21 109.875 99.8068 110.061 99.3068C110.247 98.8068 110.339 98.2652 110.339 97.6818C110.339 97.0985 110.247 96.5549 110.061 96.0511C109.875 95.5473 109.589 95.1402 109.203 94.8295C108.817 94.5189 108.324 94.3636 107.726 94.3636C107.127 94.3636 106.635 94.5189 106.249 94.8295C105.862 95.1402 105.576 95.5473 105.391 96.0511C105.205 96.5549 105.112 97.0985 105.112 97.6818C105.112 98.2652 105.205 98.8068 105.391 99.3068C105.576 99.8068 105.862 100.21 106.249 100.517C106.635 100.824 107.127 100.977 107.726 100.977ZM117.023 102.182C116.295 102.182 115.653 101.998 115.097 101.631C114.54 101.259 114.104 100.737 113.79 100.062C113.475 99.3845 113.318 98.5833 113.318 97.6591C113.318 96.7424 113.475 95.947 113.79 95.2727C114.104 94.5985 114.542 94.0777 115.102 93.7102C115.663 93.3428 116.311 93.1591 117.045 93.1591C117.614 93.1591 118.063 93.2538 118.392 93.4432C118.725 93.6288 118.979 93.8409 119.153 94.0795C119.331 94.3144 119.47 94.5076 119.568 94.6591H119.682V90.3636H121.023V102H119.727V100.659H119.568C119.47 100.818 119.33 101.019 119.148 101.261C118.966 101.5 118.706 101.714 118.369 101.903C118.032 102.089 117.583 102.182 117.023 102.182ZM117.205 100.977C117.742 100.977 118.197 100.837 118.568 100.557C118.939 100.273 119.222 99.8807 119.415 99.3807C119.608 98.8769 119.705 98.2955 119.705 97.6364C119.705 96.9848 119.61 96.4148 119.42 95.9261C119.231 95.4337 118.951 95.0511 118.58 94.7784C118.208 94.5019 117.75 94.3636 117.205 94.3636C116.636 94.3636 116.163 94.5095 115.784 94.8011C115.409 95.089 115.127 95.4811 114.938 95.9773C114.752 96.4697 114.659 97.0227 114.659 97.6364C114.659 98.2576 114.754 98.822 114.943 99.3295C115.136 99.8333 115.42 100.235 115.795 100.534C116.174 100.83 116.644 100.977 117.205 100.977ZM127.324 102.182C126.483 102.182 125.758 101.996 125.148 101.625C124.542 101.25 124.074 100.727 123.744 100.057C123.419 99.3826 123.256 98.5985 123.256 97.7045C123.256 96.8106 123.419 96.0227 123.744 95.3409C124.074 94.6553 124.532 94.1212 125.119 93.7386C125.71 93.3523 126.4 93.1591 127.188 93.1591C127.642 93.1591 128.091 93.2348 128.534 93.3864C128.977 93.5379 129.381 93.7841 129.744 94.125C130.108 94.4621 130.398 94.9091 130.614 95.4659C130.83 96.0227 130.938 96.7083 130.938 97.5227V98.0909H124.21V96.9318H129.574C129.574 96.4394 129.475 96 129.278 95.6136C129.085 95.2273 128.809 94.9223 128.449 94.6989C128.093 94.4754 127.672 94.3636 127.188 94.3636C126.653 94.3636 126.191 94.4962 125.801 94.7614C125.415 95.0227 125.117 95.3636 124.909 95.7841C124.701 96.2045 124.597 96.6553 124.597 97.1364V97.9091C124.597 98.5682 124.71 99.1269 124.938 99.5852C125.169 100.04 125.489 100.386 125.898 100.625C126.307 100.86 126.782 100.977 127.324 100.977C127.676 100.977 127.994 100.928 128.278 100.83C128.566 100.727 128.814 100.576 129.023 100.375C129.231 100.17 129.392 99.9167 129.506 99.6136L130.801 99.9773C130.665 100.417 130.436 100.803 130.114 101.136C129.792 101.466 129.394 101.723 128.92 101.909C128.447 102.091 127.915 102.182 127.324 102.182Z" fill="#333333"/>
</svg>
