<?xml version="1.0" standalone="no"?>
<!DOCTYPE svg PUBLIC "-//W3C//DTD SVG 20010904//EN"
 "http://www.w3.org/TR/2001/REC-SVG-20010904/DTD/svg10.dtd">
<svg version="1.0" xmlns="http://www.w3.org/2000/svg"
 width="2400.000000pt" height="2400.000000pt" viewBox="0 0 2400.000000 2400.000000"
 preserveAspectRatio="xMidYMid meet">
<metadata>
Created by potrace 1.14, written by Peter Selinger 2001-2017
</metadata>
<g transform="translate(0.000000,2400.000000) scale(0.100000,-0.100000)"
fill="#000000" stroke="none">
<path d="M6563 15259 c-18 -12 -33 -26 -33 -32 0 -6 -3 -7 -7 -4 -17 17 -55
-104 -43 -138 4 -11 4 -31 0 -45 -4 -14 -4 -35 1 -47 5 -13 4 -25 -2 -28 -5
-4 -7 -11 -3 -16 6 -10 6 -33 3 -155 -1 -29 1 -57 5 -63 4 -6 2 -11 -4 -11 -6
0 -8 -5 -4 -11 6 -11 7 -37 2 -150 -1 -25 2 -51 6 -57 3 -6 2 -13 -4 -17 -6
-4 -8 -11 -4 -16 6 -10 6 -33 3 -155 -1 -29 1 -57 5 -63 4 -6 2 -11 -4 -11 -6
0 -8 -5 -4 -11 6 -11 7 -37 2 -150 -1 -25 2 -51 6 -57 3 -6 2 -13 -4 -17 -6
-4 -8 -11 -4 -16 6 -10 6 -33 3 -155 -1 -29 1 -57 5 -63 4 -6 2 -11 -4 -11 -6
0 -8 -5 -4 -11 6 -11 7 -37 2 -150 -1 -25 2 -51 6 -57 3 -6 2 -13 -4 -17 -6
-4 -8 -11 -4 -16 6 -10 6 -33 3 -155 -1 -29 1 -57 5 -63 4 -6 2 -11 -4 -11 -6
0 -8 -5 -4 -11 6 -11 7 -37 2 -150 -1 -25 2 -51 6 -57 3 -6 2 -13 -4 -17 -6
-4 -8 -11 -4 -16 6 -10 6 -33 3 -155 -1 -29 1 -57 5 -63 4 -6 2 -11 -4 -11 -6
0 -8 -5 -4 -11 6 -11 7 -37 2 -150 -1 -25 2 -51 6 -57 3 -6 2 -13 -3 -17 -6
-3 -7 -15 -3 -28 5 -12 5 -38 2 -57 -3 -19 -3 -45 2 -57 4 -12 3 -25 -2 -28
-5 -3 -6 -16 -1 -28 4 -12 4 -35 1 -52 -3 -16 -3 -40 1 -52 5 -12 4 -25 -1
-28 -5 -3 -6 -16 -1 -28 4 -12 4 -35 1 -52 -3 -16 -3 -40 1 -52 5 -12 4 -25
-1 -28 -5 -3 -6 -16 -1 -28 4 -12 4 -35 1 -52 -3 -16 -3 -40 1 -52 5 -12 4
-25 -1 -28 -5 -3 -6 -16 -1 -28 4 -12 4 -35 1 -52 -3 -16 -3 -40 1 -52 5 -12
4 -25 -1 -28 -5 -3 -6 -16 -1 -28 4 -12 4 -35 1 -52 -3 -16 -3 -40 1 -52 5
-12 4 -25 -1 -28 -5 -3 -6 -16 -1 -28 4 -12 4 -35 1 -52 -3 -16 -3 -40 1 -52
5 -12 4 -25 -1 -28 -5 -3 -6 -16 -1 -28 4 -12 4 -35 1 -52 -3 -16 -3 -40 1
-52 5 -12 4 -25 -1 -28 -5 -3 -6 -16 -2 -28 4 -12 6 -37 5 -54 -6 -73 -5 -131
1 -142 4 -6 2 -11 -4 -11 -6 0 -8 -5 -4 -11 6 -11 7 -37 2 -150 -1 -25 2 -51
6 -57 3 -6 2 -13 -4 -17 -6 -4 -8 -11 -4 -16 6 -10 6 -33 3 -155 -1 -29 1 -57
5 -63 4 -6 2 -11 -4 -11 -6 0 -8 -5 -4 -11 6 -11 7 -37 2 -150 -1 -25 2 -51 6
-57 3 -6 2 -13 -4 -17 -6 -4 -8 -11 -4 -16 6 -10 6 -33 3 -155 -1 -29 1 -57 5
-63 4 -6 2 -11 -4 -11 -6 0 -8 -5 -4 -11 6 -11 7 -45 2 -145 -1 -22 1 -45 5
-50 3 -5 2 -16 -3 -24 -4 -7 -4 -24 0 -36 6 -14 5 -26 0 -29 -5 -3 -7 -15 -4
-28 5 -22 6 -68 2 -158 -1 -25 2 -51 6 -57 3 -6 2 -13 -4 -17 -6 -4 -8 -11 -4
-16 6 -10 6 -33 3 -155 -1 -29 1 -57 5 -63 4 -6 2 -11 -4 -11 -6 0 -8 -5 -4
-11 6 -11 7 -37 2 -150 -1 -25 2 -51 6 -57 3 -6 2 -13 -4 -17 -6 -4 -8 -11 -4
-16 5 -9 8 -92 4 -114 -4 -20 1 -51 15 -90 21 -56 81 -95 150 -96 316 -4 1529
1 1557 6 56 11 109 73 114 133 2 26 4 48 4 50 5 8 2 71 -2 84 -4 8 -2 21 2 28
5 8 5 21 0 30 -5 9 -5 22 0 30 5 8 5 21 0 30 -5 9 -5 22 0 30 5 8 5 21 0 30
-5 9 -5 22 0 30 5 8 5 21 0 30 -5 9 -5 22 0 30 5 8 5 21 1 29 -5 9 -5 25 -1
36 4 11 4 30 -1 42 -5 13 -4 25 1 28 6 3 6 15 0 30 -5 14 -5 27 0 30 5 3 5 18
0 35 -5 16 -5 32 0 35 5 3 5 19 0 35 -5 17 -5 30 0 30 5 0 5 13 0 30 -5 17 -5
30 0 30 5 0 5 13 0 30 -5 17 -5 30 0 30 5 0 5 13 0 30 -5 17 -5 32 0 35 5 3 5
16 0 30 -6 15 -6 27 0 30 5 3 6 15 1 27 -4 12 -5 38 -1 59 4 21 4 43 -1 50 -4
7 -4 20 1 29 5 9 5 22 0 30 -5 8 -5 21 0 30 5 9 5 22 0 30 -5 8 -5 21 0 30 5
9 5 22 0 30 -5 8 -5 21 0 30 5 9 5 22 0 30 -5 8 -5 21 0 30 5 9 5 22 0 30 -5
8 -5 21 0 30 5 9 5 22 0 30 -5 8 -5 21 0 30 5 9 5 22 0 30 -5 8 -5 21 0 30 5
9 5 22 0 30 -5 8 -5 21 0 30 5 9 5 22 0 30 -5 8 -5 21 0 30 5 9 5 22 0 30 -4
7 -5 23 0 34 4 12 4 31 -1 43 -5 13 -4 25 1 28 6 3 6 15 0 30 -5 14 -5 27 0
30 5 3 5 18 0 35 -5 16 -5 32 0 35 5 3 5 19 0 35 -5 17 -5 30 0 30 5 0 5 13 0
30 -5 17 -5 30 0 30 5 0 5 13 0 30 -5 17 -5 30 0 30 5 0 5 13 0 30 -5 17 -5
32 0 35 5 3 5 16 0 30 -6 15 -6 27 0 30 5 3 6 16 1 28 -4 12 -5 33 -1 47 4 14
3 35 -1 47 -5 12 -4 25 1 28 6 3 6 15 0 29 -5 13 -6 27 -3 30 8 8 9 76 1 76
-4 0 -3 14 2 30 5 17 5 30 0 30 -5 0 -5 13 0 30 5 17 5 30 0 30 -5 0 -5 13 0
30 5 17 5 30 0 30 -5 0 -5 13 0 30 5 17 5 30 0 30 -5 0 -7 7 -4 15 9 22 10
354 2 349 -4 -3 -3 9 3 25 7 21 21 33 42 40 19 6 198 10 436 10 408 0 463 2
491 24 40 31 65 82 67 137 1 30 2 57 3 60 5 20 0 312 -5 320 -3 5 -1 10 5 10
6 0 8 4 5 10 -7 11 -8 106 -2 158 2 18 0 35 -5 38 -5 3 -6 9 -3 14 5 8 6 47 4
110 0 8 0 49 1 90 1 103 2 272 1 290 0 8 0 44 0 80 1 36 1 72 0 80 -2 65 -1
112 4 119 3 5 1 12 -5 16 -6 4 -8 11 -4 16 6 11 7 118 0 193 -7 83 -62 136
-147 142 -90 7 -156 7 -168 0 -6 -4 -11 -4 -11 1 0 8 -93 8 -116 -1 -7 -3 -16
-1 -19 4 -3 5 -15 6 -26 1 -12 -4 -42 -4 -69 -1 -26 3 -56 3 -66 -1 -11 -3
-23 -4 -28 -1 -6 3 -35 4 -65 3 -59 -2 -75 -2 -168 0 -32 0 -62 0 -68 -2 -22
-5 -66 22 -75 47 -6 15 -8 29 -6 31 3 3 1 16 -4 29 -5 13 -6 26 0 29 5 3 5 18
0 35 -5 17 -6 30 -2 30 8 0 7 78 -1 86 -3 3 -2 17 3 30 5 13 6 25 2 28 -8 5
-6 80 2 103 3 7 1 13 -4 13 -5 0 -5 13 0 30 5 17 5 32 0 35 -5 3 -6 15 0 29 4
12 4 29 0 36 -5 8 -5 21 0 30 5 9 5 22 0 30 -5 8 -5 21 0 30 5 9 5 22 0 30 -5
8 -5 21 0 30 4 8 4 22 0 31 -5 8 -5 21 0 29 4 7 4 24 0 36 -6 14 -5 26 0 29 5
3 5 18 0 35 -5 17 -5 30 0 30 5 0 5 13 0 30 -5 17 -6 30 -2 30 8 0 6 86 -3 99
-3 5 -2 12 3 15 15 9 3 78 -20 112 -45 67 -13 64 -901 64 -793 -1 -802 -1
-834 -21z"/>
<path d="M15418 13925 c-3 -3 -34 -7 -69 -10 -112 -7 -199 -35 -301 -95 -186
-111 -307 -306 -323 -524 -3 -31 -7 -61 -10 -67 -4 -5 -3 -9 2 -9 4 0 9 -24
10 -54 3 -100 60 -244 132 -336 92 -117 208 -198 346 -241 43 -14 43 -14 128
-23 32 -3 63 -8 68 -11 5 -4 9 -3 9 2 0 4 19 8 43 8 44 -1 137 18 172 34 11 5
35 15 53 22 90 33 214 136 277 230 17 24 34 47 38 50 5 3 8 9 8 13 -1 3 5 19
13 34 30 58 54 145 61 222 2 19 4 37 5 40 2 3 2 8 2 11 -1 3 -4 36 -7 73 -14
171 -77 307 -196 426 -54 54 -162 130 -184 130 -8 0 -16 4 -19 9 -9 14 -137
50 -191 53 -28 2 -53 6 -56 11 -3 4 -8 5 -11 2z"/>
<path d="M23770 13884 c-30 -20 -57 -40 -60 -44 -3 -3 -33 -26 -67 -49 -35
-24 -63 -48 -63 -52 0 -5 -4 -9 -9 -9 -6 0 -68 -44 -140 -97 -71 -54 -140
-105 -151 -113 -12 -8 -32 -23 -43 -34 -12 -10 -33 -26 -47 -35 -14 -9 -29
-19 -35 -24 -43 -33 -64 -49 -132 -100 -130 -97 -269 -201 -299 -222 -15 -11
-33 -26 -40 -32 -7 -7 -15 -13 -18 -13 -5 0 -28 -18 -60 -45 -6 -6 -28 -21
-48 -35 -21 -14 -38 -28 -38 -32 0 -5 -6 -8 -14 -8 -8 0 -16 -3 -18 -8 -1 -4
-28 -25 -58 -47 -30 -21 -71 -52 -90 -67 -19 -16 -39 -32 -45 -36 -76 -55
-203 -150 -213 -159 -7 -7 -16 -13 -20 -13 -4 0 -21 -13 -38 -28 -18 -15 -42
-34 -54 -42 -30 -21 -152 -112 -167 -125 -6 -5 -63 -48 -127 -95 -64 -46 -116
-88 -116 -93 0 -4 -4 -6 -9 -3 -5 3 -19 -5 -32 -17 -13 -13 -76 -61 -139 -107
-63 -47 -124 -93 -134 -102 -11 -10 -23 -18 -26 -18 -4 0 -20 -11 -36 -25 -16
-14 -47 -38 -69 -53 -22 -15 -45 -31 -51 -37 -6 -5 -75 -57 -153 -115 -78 -58
-166 -123 -195 -145 -75 -57 -102 -77 -181 -135 -38 -28 -72 -55 -75 -60 -8
-13 -75 -28 -102 -23 -18 3 -490 347 -598 436 -8 7 -31 23 -50 37 -19 13 -37
27 -40 30 -3 3 -57 43 -120 90 -63 46 -120 90 -126 97 -6 7 -14 13 -17 13 -3
0 -57 39 -119 86 -155 117 -147 111 -298 224 -74 55 -142 106 -150 113 -8 7
-78 59 -155 116 -77 58 -141 109 -143 113 -2 4 -10 8 -17 8 -7 0 -15 3 -17 8
-1 4 -43 36 -91 72 -48 36 -102 77 -120 92 -18 15 -35 28 -39 28 -5 0 -17 8
-27 18 -23 20 -4 6 -226 172 -99 74 -189 142 -199 152 -11 10 -26 18 -33 18
-7 0 -13 4 -13 9 0 4 -28 28 -62 52 -35 24 -74 54 -88 66 -14 13 -28 23 -32
23 -3 0 -13 6 -20 13 -7 7 -43 35 -80 62 -38 27 -68 53 -68 59 0 5 -3 7 -6 3
-4 -3 -12 -1 -19 6 -15 14 -22 19 -205 155 -74 56 -139 105 -145 109 -64 53
-113 57 -173 14 -54 -40 -66 -77 -61 -201 0 -8 -1 -36 -3 -63 -2 -26 0 -47 4
-47 4 0 3 -13 -2 -29 -4 -15 -4 -34 0 -42 5 -7 7 -16 5 -20 -4 -5 -5 -43 -5
-121 0 -29 0 -127 0 -143 0 -8 0 -23 0 -32 -1 -36 -1 -98 -1 -110 1 -42 1 -63
-1 -101 -2 -23 0 -42 4 -42 4 0 3 -13 -2 -29 -4 -15 -4 -34 0 -42 5 -7 7 -16
5 -20 -4 -5 -5 -43 -5 -121 0 -29 0 -127 0 -143 0 -41 0 -53 0 -90 -1 -22 -2
-61 -3 -88 -1 -26 1 -47 4 -47 3 0 3 -20 -1 -45 -4 -24 -3 -50 1 -57 4 -6 5
-16 2 -21 -3 -5 -5 -33 -4 -63 1 -30 1 -62 1 -71 0 -10 0 -25 -1 -33 0 -8 2
-29 4 -47 2 -17 1 -37 -3 -44 -4 -6 -4 -25 0 -40 5 -16 5 -31 1 -33 -7 -5 -5
-92 4 -113 2 -7 1 -13 -3 -13 -4 0 -7 -16 -7 -35 0 -19 3 -35 7 -35 4 0 3 -13
-2 -28 -4 -16 -4 -35 1 -43 4 -8 4 -21 -1 -28 -4 -8 -5 -25 -1 -40 6 -24 6
-41 1 -66 -4 -24 0 -196 5 -205 3 -6 2 -10 -3 -10 -5 0 -6 -17 -2 -39 4 -22 4
-45 -1 -52 -4 -7 -4 -22 1 -34 5 -12 5 -28 0 -35 -4 -7 -5 -24 -1 -39 8 -29 7
-69 -2 -77 -3 -3 -1 -19 3 -35 5 -16 5 -31 1 -33 -7 -5 -5 -92 4 -113 2 -7 1
-13 -3 -13 -4 0 -7 -16 -7 -35 0 -19 3 -35 7 -35 4 0 3 -13 -2 -28 -4 -16 -4
-35 1 -43 4 -8 4 -21 -1 -28 -4 -8 -5 -25 -1 -40 6 -24 6 -41 1 -66 -4 -24 0
-196 5 -205 3 -6 2 -10 -3 -10 -5 0 -6 -17 -2 -39 4 -22 4 -45 -1 -52 -4 -7
-4 -22 1 -34 5 -12 5 -28 0 -35 -4 -7 -5 -24 -1 -39 8 -29 7 -69 -2 -77 -3 -3
-1 -18 3 -34 4 -16 6 -31 3 -34 -4 -3 -5 -34 -4 -68 3 -84 3 -77 -1 -131 -2
-26 0 -47 4 -47 4 0 3 -13 -2 -29 -4 -15 -4 -34 0 -42 5 -7 7 -16 5 -20 -4 -5
-5 -43 -5 -121 0 -29 0 -127 0 -143 0 -8 0 -23 0 -32 -1 -66 -1 -101 0 -118 1
-11 1 -26 1 -32 0 -7 -1 -38 -1 -68 0 -30 0 -62 0 -70 -1 -55 -1 -136 -1 -150
0 -85 29 -142 85 -169 31 -15 324 -16 3514 -16 2022 0 3490 4 3504 9 29 11 58
38 81 73 16 26 17 175 14 2525 -2 2397 -3 2499 -20 2525 -26 38 -61 58 -110
64 -37 5 -50 1 -97 -32z"/>
<path d="M2834 13833 c-28 -5 -75 -56 -107 -115 -14 -25 -36 -63 -49 -85 -13
-21 -29 -49 -36 -63 -6 -14 -16 -32 -22 -40 -12 -17 -305 -534 -357 -630 -20
-36 -44 -77 -55 -92 -10 -14 -18 -29 -18 -32 0 -4 -18 -36 -40 -72 -22 -36
-40 -68 -40 -70 0 -2 -13 -25 -29 -52 -29 -49 -60 -105 -107 -189 -15 -27 -30
-52 -34 -58 -4 -5 -21 -35 -37 -65 -17 -30 -55 -99 -87 -152 -31 -54 -56 -102
-56 -108 0 -5 -4 -10 -10 -10 -5 0 -10 -4 -10 -10 0 -5 -13 -31 -29 -58 -38
-65 -80 -139 -103 -182 -10 -19 -28 -51 -39 -70 -12 -19 -53 -91 -92 -160 -39
-69 -78 -137 -88 -151 -10 -14 -16 -29 -12 -33 3 -3 1 -6 -5 -6 -7 0 -12 -4
-12 -9 0 -7 -177 -322 -225 -401 -9 -14 -24 -41 -33 -60 -9 -19 -20 -37 -23
-40 -3 -3 -37 -61 -75 -128 -38 -68 -81 -145 -96 -170 -15 -26 -35 -63 -44
-82 -10 -19 -23 -42 -29 -50 -7 -8 -29 -46 -49 -84 -20 -38 -40 -74 -45 -80
-4 -6 -23 -38 -41 -71 -53 -95 -91 -163 -137 -241 -17 -28 -34 -61 -38 -72 -3
-12 -11 -22 -16 -22 -5 0 -9 -4 -9 -10 0 -5 -13 -31 -29 -58 -15 -26 -39 -68
-53 -93 -75 -134 -300 -529 -356 -624 -64 -110 -64 -110 -60 -177 3 -61 6 -69
38 -96 19 -17 47 -33 63 -36 56 -11 5514 -7 5544 5 52 19 103 95 97 144 -7 50
1 35 -189 370 -59 105 -121 215 -137 245 -17 30 -68 120 -113 200 -45 80 -97
172 -115 205 -18 33 -49 89 -70 125 -20 36 -50 88 -65 115 -15 28 -55 100 -90
160 -34 61 -75 133 -90 160 -16 28 -39 68 -52 90 -12 22 -26 46 -30 54 -11 24
-152 275 -163 291 -6 8 -13 22 -17 30 -4 8 -23 42 -42 75 -20 33 -36 62 -36
65 0 3 -8 16 -16 30 -17 26 -92 158 -139 245 -15 28 -37 67 -48 88 -24 41 -39
68 -98 172 -21 39 -47 84 -56 100 -10 17 -26 46 -36 65 -9 19 -20 37 -23 40
-3 3 -27 46 -54 95 -26 50 -56 102 -67 117 -10 14 -18 33 -18 42 0 9 -3 16 -8
16 -4 0 -18 21 -32 48 -25 48 -98 177 -126 222 -8 14 -24 43 -35 65 -11 22
-28 54 -39 70 -10 17 -28 48 -40 70 -48 88 -84 151 -96 170 -26 41 -85 151
-91 168 -3 9 -9 17 -14 17 -5 0 -9 4 -9 9 0 5 -21 46 -47 92 -65 115 -72 128
-117 211 -21 40 -42 75 -45 78 -3 3 -17 28 -31 55 -14 28 -28 52 -32 53 -5 2
-8 8 -8 12 0 5 -15 35 -34 67 -42 72 -84 147 -108 193 -36 67 -65 113 -86 135
-29 30 -84 41 -148 28z"/>
<path d="M12508 12245 c-3 -3 -47 -7 -99 -10 -118 -5 -225 -13 -264 -20 -151
-24 -231 -37 -240 -39 -13 -4 -75 -16 -100 -21 -11 -2 -21 -4 -22 -5 -2 -2 -6
-3 -10 -4 -87 -18 -133 -32 -133 -39 0 -4 -4 -6 -8 -3 -5 3 -38 -4 -73 -15
-35 -11 -68 -21 -74 -23 -5 -2 -21 -7 -35 -13 -81 -32 -156 -57 -162 -55 -5 1
-8 -3 -8 -8 0 -6 -6 -10 -14 -10 -23 0 -261 -112 -378 -179 -21 -11 -55 -30
-75 -42 -102 -57 -388 -257 -444 -309 -8 -8 -37 -33 -64 -55 -72 -59 -303
-290 -371 -370 -32 -38 -62 -71 -66 -73 -5 -2 -8 -10 -8 -18 0 -8 -4 -14 -9
-14 -4 0 -28 -28 -52 -62 -23 -35 -45 -65 -49 -68 -13 -12 -60 -79 -60 -87 0
-4 -14 -24 -30 -43 -16 -19 -30 -39 -30 -43 0 -5 -14 -28 -30 -53 -17 -24 -27
-44 -23 -44 4 0 4 -4 -2 -8 -13 -9 -37 -50 -81 -137 -19 -38 -39 -77 -43 -85
-25 -47 -39 -76 -40 -82 -1 -5 -13 -34 -27 -65 -30 -69 -111 -290 -118 -324
-3 -13 -16 -64 -30 -112 -14 -49 -27 -100 -30 -115 -3 -15 -7 -38 -10 -52 -5
-23 -13 -61 -22 -115 -2 -11 -6 -31 -9 -45 -2 -14 -7 -47 -10 -75 -3 -27 -8
-69 -11 -91 -8 -59 -12 -142 -14 -265 -2 -122 8 -151 67 -196 l36 -28 3336 0
3336 0 32 24 c26 20 60 72 53 83 -1 2 3 15 9 29 5 15 7 29 5 32 -3 3 -7 58
-10 124 -2 65 -6 138 -8 163 -9 88 -17 161 -22 183 -2 12 -6 36 -9 52 -3 17
-7 41 -10 55 -3 14 -7 40 -10 59 -3 19 -8 37 -10 41 -2 4 -7 22 -10 40 -11 64
-46 185 -86 300 -22 63 -42 120 -43 125 -3 11 -18 48 -42 105 -31 73 -179 365
-186 368 -5 2 -8 8 -8 13 0 6 -18 37 -40 69 -22 32 -40 64 -40 69 0 6 -4 11
-10 11 -5 0 -10 5 -10 10 0 10 -142 206 -186 257 -10 12 -26 31 -34 42 -58 75
-350 378 -350 363 0 -3 -6 1 -12 10 -21 24 -176 150 -268 216 -47 34 -89 65
-95 70 -5 4 -28 19 -50 32 -22 13 -42 27 -45 30 -3 4 -12 9 -20 13 -8 4 -44
25 -80 46 -36 22 -81 47 -100 56 -19 9 -43 23 -53 33 -11 9 -21 16 -23 14 -2
-1 -50 20 -107 47 -56 26 -124 56 -152 66 -27 10 -54 22 -60 26 -14 10 -266
94 -361 119 -102 28 -343 78 -414 85 -30 4 -66 8 -80 11 -64 10 -165 17 -267
18 -62 1 -113 4 -113 8 0 4 -11 3 -24 -2 -14 -5 -27 -5 -33 1 -5 5 -12 7 -15
4z"/>
</g>
</svg>
